<svg width="87" height="38" viewBox="0 0 87 38" fill="none" xmlns="http://www.w3.org/2000/svg">
<path d="M6.44787 2.7819L6.82867 2.87639L6.34566 4.69293L7.37762 6.25614L7.06406 6.46674L5.9393 4.76088L6.44787 2.7819ZM7.13434 2.66711L7.49935 2.76424L7.03213 4.57814L8.06409 6.14134L7.75053 6.35194L6.62577 4.64609L7.13434 2.66711Z" fill="white"/>
<path d="M8.41646 2.55276C8.69469 2.71083 8.93325 2.87396 9.13213 3.04215L8.88684 3.36377C8.70882 3.20098 8.46925 3.02992 8.16915 2.85851L8.41646 2.55276ZM8.03246 3.74694L8.94903 3.63004L9.15905 5.2767C9.26096 5.15886 9.36979 5.03207 9.48504 4.89237L9.65578 5.31416C9.42426 5.58563 9.17333 5.83135 8.904 6.05926L8.69772 5.70652C8.75758 5.6384 8.78368 5.55846 8.77254 5.47116L8.59492 4.07844L8.08306 4.14373L8.03246 3.74694ZM9.51368 4.04191L11.45 3.79496L11.4981 4.1719C11.4305 4.52731 11.2859 4.84818 11.0639 5.13054C11.3301 5.25788 11.6454 5.3588 12.0142 5.43676L11.8376 5.82221C11.4285 5.71309 11.0769 5.58051 10.7902 5.41948C10.5086 5.67719 10.1539 5.89985 9.71824 6.08848L9.44357 5.76866C9.83708 5.5975 10.1631 5.40269 10.4255 5.18373C10.1391 4.96218 9.92515 4.7072 9.79045 4.40985L9.56428 4.4387L9.51368 4.04191ZM10.1793 4.36026C10.2954 4.5753 10.4646 4.76341 10.6942 4.91961C10.8733 4.71128 11.0022 4.48918 11.084 4.24488L10.1793 4.36026ZM9.58765 2.47194L11.0161 2.28976L11.1208 3.11111C11.132 3.1984 11.1856 3.23994 11.2848 3.22729L11.6261 3.18377L11.6742 3.56071L11.2218 3.61841C10.9242 3.65636 10.7597 3.53621 10.7243 3.25846L10.657 2.73073L10.0459 2.80867L10.0596 2.9158C10.1122 3.32846 9.93895 3.67718 9.5467 3.95302L9.22846 3.67102C9.54405 3.48963 9.68936 3.26948 9.65647 3.01157L9.58765 2.47194Z" fill="white"/>
<path d="M13.2378 3.09577L14.2657 3.00463L14.1633 1.84916L14.5936 1.81101L14.6961 2.96648L15.6722 2.87993L15.709 3.29431L14.7328 3.38085L14.9221 5.51648L14.4918 5.55463L14.3025 3.41901L13.2745 3.51015L13.2378 3.09577ZM12.4369 2.03435C12.7052 2.20733 12.9377 2.38349 13.134 2.55884L12.8729 2.87514C12.7052 2.70528 12.4688 2.52947 12.1675 2.34737L12.4369 2.03435ZM11.9852 3.23494L12.9335 3.15086L13.0811 4.81633C13.1878 4.70648 13.3015 4.58396 13.422 4.44879L13.5674 4.86558C13.3296 5.1276 13.0737 5.36713 12.7958 5.58452L12.6033 5.22412C12.6697 5.158 12.6992 5.0831 12.6918 4.99943L12.5664 3.58498L12.0205 3.63337L11.9852 3.23494Z" fill="white"/>
<path d="M18.2155 3.40529L18.2361 3.82879C18.0279 3.91102 17.8113 3.98565 17.5825 4.05686L17.622 4.8679C17.6348 5.13159 17.5016 5.27424 17.2219 5.28786L16.7705 5.30984L16.6593 4.91879C16.7999 4.92796 16.9321 4.92953 17.06 4.9233C17.1519 4.91883 17.1975 4.86855 17.1932 4.78065L17.1638 4.17737C16.9344 4.2366 16.7009 4.29203 16.4551 4.34404L16.3747 3.92746C16.6445 3.87427 16.9018 3.81368 17.143 3.74987L17.1095 3.06269L16.3305 3.10063L16.311 2.70111L17.0901 2.66316L17.072 2.2916C16.8822 2.3409 16.6879 2.38239 16.4816 2.42048L16.3744 2.02923C16.9228 1.94245 17.4126 1.80246 17.8355 1.60565L17.9984 1.99018C17.8375 2.05809 17.6683 2.11839 17.4908 2.17509L17.5136 2.64254L18.3326 2.60265C18.2937 2.29618 18.2691 1.95697 18.2512 1.58941L18.6707 1.56898C18.6934 1.95233 18.7217 2.28735 18.7601 2.58183L19.9547 2.52365L19.9741 2.92317L18.8115 2.9798C18.8481 3.23832 18.8944 3.44832 18.9465 3.61398C18.9656 3.67713 18.9843 3.73228 19.003 3.78744C19.1569 3.5757 19.2897 3.34097 19.3975 3.08742L19.7664 3.26168C19.6081 3.62982 19.4117 3.95576 19.1808 4.23131C19.2255 4.32525 19.2735 4.40701 19.3206 4.4688C19.441 4.63914 19.5332 4.72276 19.5891 4.72003C19.633 4.71789 19.6671 4.51199 19.6956 4.11013L20.0766 4.2878C20.0006 4.86419 19.8668 5.15904 19.671 5.16858C19.4952 5.17714 19.3056 5.06623 19.1063 4.83966C19.03 4.75127 18.957 4.6507 18.8912 4.53376C18.6304 4.77073 18.3354 4.96131 18.01 5.10531L17.7609 4.76101C18.1219 4.60727 18.4362 4.39974 18.6998 4.13861C18.6496 4.0129 18.6032 3.883 18.5606 3.74891C18.4902 3.53609 18.434 3.28653 18.388 3.00042L17.533 3.04206L17.5618 3.63336C17.7906 3.56215 18.0113 3.48733 18.2155 3.40529ZM19.112 1.58353C19.4002 1.7457 19.6485 1.90982 19.8568 2.07588L19.5717 2.39012C19.3994 2.2223 19.1587 2.04981 18.8453 1.86483L19.112 1.58353Z" fill="white"/>
<path d="M23.4133 5.12724L23.0613 5.13096L22.9452 4.74017L23.3253 4.74815C23.4213 4.74713 23.4686 4.68263 23.4672 4.55464L23.441 2.07478L22.5331 2.08438L22.5288 1.6804L23.8527 1.6664L23.8844 4.66623C23.8877 4.97022 23.7293 5.1239 23.4133 5.12724ZM22.0425 1.46953C22.2209 1.69566 22.355 1.89425 22.4529 2.06523L22.1273 2.29668C22.0293 2.10571 21.8951 1.89911 21.7247 1.6729L22.0425 1.46953ZM21.1582 1.44288L21.5401 1.61885C21.4393 1.92794 21.3105 2.22531 21.1495 2.51103L21.1778 5.19088L20.7619 5.19528L20.7398 3.1114C20.6332 3.24453 20.5186 3.37375 20.3999 3.50301L20.2594 3.07648C20.6665 2.61215 20.9648 2.06896 21.1582 1.44288ZM21.5138 2.15516L21.9257 2.1508L21.9577 5.17464L21.5457 5.17899L21.5138 2.15516Z" fill="white"/>
<path d="M25.8184 2.1436L25.7411 4.94654L25.3412 4.9355L25.3467 4.73558L24.7549 4.71924L24.7462 5.03512L24.3464 5.02408L24.4269 2.1052L24.8108 2.11579C24.8886 1.90586 24.9467 1.68738 24.985 1.46035L25.4032 1.52791C25.3533 1.74262 25.2877 1.94489 25.2107 2.12683L25.8184 2.1436ZM24.7655 4.33539L25.3573 4.35172L25.3782 3.59601L24.7864 3.57968L24.7655 4.33539ZM24.7967 3.20782L25.3884 3.22415L25.4078 2.52442L24.816 2.50808L24.7967 3.20782ZM26.5193 3.13532C26.7663 3.46626 26.9544 3.75556 27.0875 4.00733L26.7452 4.22997C26.6045 3.96199 26.4127 3.66458 26.1736 3.33786L26.5193 3.13532ZM27.8776 2.20044C27.839 3.59991 27.7952 4.46303 27.7461 4.7898C27.6984 5.06859 27.5026 5.20324 27.1588 5.19375C27.0788 5.19154 26.9351 5.17957 26.7276 5.15784L26.6381 4.77522C26.8137 4.79208 26.9694 4.80438 27.1014 4.80802C27.2453 4.81199 27.3315 4.73434 27.3598 4.57906C27.3891 4.3878 27.4193 3.72838 27.4585 2.59703L26.4909 2.57032C26.3763 2.80725 26.2424 3.01964 26.0892 3.20748L25.8464 2.86865C26.1207 2.50008 26.3094 2.04111 26.4205 1.49597L26.8309 1.55932C26.785 1.77413 26.7274 1.97662 26.6621 2.16689L27.8776 2.20044Z" fill="white"/>
<path d="M29.9831 1.68854L30.4062 1.71651L30.373 2.21941L31.6981 2.30701L31.6712 2.71412L30.346 2.62652L30.3078 3.20526L31.8444 3.30684L31.8175 3.71395L30.6161 3.63453C30.8495 4.10695 31.2576 4.54282 31.8366 4.94188L31.5164 5.29754C30.9175 4.7769 30.5098 4.21278 30.2889 3.6129L30.2809 3.61237L30.1635 5.38849L29.7404 5.36053L29.8578 3.5844L29.8538 3.58414C29.5277 4.212 29.0333 4.71649 28.371 5.09362L28.1577 4.68266C28.7535 4.40135 29.211 4.03071 29.5225 3.56224L28.3212 3.48283L28.3481 3.07572L29.8847 3.17729L29.923 2.59856L28.6258 2.51281L28.6527 2.1057L29.9499 2.19144L29.9831 1.68854Z" fill="white"/>
<path d="M33.182 2.83495C33.2808 3.04243 33.3772 3.27378 33.4674 3.5246L33.1699 3.6381L33.8064 3.70506L33.898 2.83387L32.5137 2.68822L32.556 2.28644L33.9403 2.43208L33.9838 2.01837L34.4055 2.06273L34.362 2.47645L35.7822 2.62586L35.7399 3.02764L34.3197 2.87823L34.2281 3.74942L34.5463 3.7829C34.7088 3.53856 34.853 3.27621 34.983 2.99628L35.3737 3.18218C35.2439 3.42191 35.1047 3.63652 34.956 3.82601L35.7596 3.91055L35.7173 4.31234L34.504 4.18469C34.7402 4.61577 35.1517 5.02506 35.7388 5.40859L35.4147 5.73648C34.8146 5.24701 34.4025 4.72905 34.182 4.18701L34.0201 5.72651L33.5984 5.68215L33.7608 4.13867C33.4444 4.66043 32.9177 5.07962 32.1761 5.39979L31.9847 5.00157C32.671 4.74799 33.1582 4.43726 33.4379 4.07252L32.2246 3.94487L32.2669 3.54309L33.0824 3.62889C32.9957 3.38246 32.9021 3.16347 32.7976 2.97148L33.182 2.83495Z" fill="white"/>
<path d="M37.382 3.19231C37.4691 3.2051 37.5363 3.24326 37.5903 3.31589C37.6409 3.38397 37.6615 3.46381 37.6487 3.55088C37.636 3.63794 37.5938 3.70453 37.5257 3.75517C37.4537 3.80523 37.3778 3.82643 37.2908 3.81364C37.2037 3.80085 37.1331 3.75814 37.0825 3.69006C37.0319 3.62197 37.0146 3.54667 37.0274 3.4596C37.0402 3.37254 37.0789 3.30141 37.147 3.25077C37.2157 3.19617 37.295 3.17952 37.382 3.19231ZM37.1692 4.64076C37.2563 4.65355 37.3235 4.69172 37.3775 4.76434C37.4281 4.83242 37.4488 4.91227 37.436 4.99933C37.4232 5.0864 37.381 5.15298 37.313 5.20362C37.2409 5.25369 37.165 5.27488 37.078 5.26209C36.9909 5.2493 36.9204 5.2066 36.8697 5.13851C36.8191 5.07043 36.8018 4.99512 36.8146 4.90806C36.8274 4.82099 36.8662 4.74987 36.9343 4.69923C37.0029 4.64463 37.0822 4.62797 37.1692 4.64076Z" fill="white"/>
<path d="M41.4533 5.91093L41.3794 6.30403C40.9675 6.37306 40.505 6.40814 39.9966 6.40608L40.0185 5.9869C40.5569 6.00273 41.0336 5.97848 41.4533 5.91093ZM41.1892 2.9673L41.5527 3.19852C41.3018 3.62344 41.0593 3.96041 40.8315 4.21876L41.1706 4.23372C41.2602 4.10404 41.359 3.96798 41.4601 3.82012L41.7919 4.02502C41.3957 4.57321 41.0684 4.97155 40.8171 5.22545C41.0405 5.20643 41.2754 5.16924 41.5141 5.11239L41.443 5.48977C41.011 5.57941 40.6129 5.61847 40.2488 5.60693L40.2122 5.21744C40.2889 5.19931 40.3591 5.17183 40.4191 5.13428C40.5435 5.03558 40.7093 4.84698 40.9195 4.57314C40.7461 4.56492 40.564 4.55915 40.378 4.55263L40.35 4.1607C40.4181 4.14501 40.4827 4.10427 40.5471 4.04313C40.7741 3.7236 40.9881 3.36499 41.1892 2.9673ZM42.2643 5.06226L42.1888 5.46323L42.7667 5.57197L42.8421 5.171L42.2643 5.06226ZM42.1185 5.83667L42.0305 6.30446L42.6084 6.4132L42.6964 5.94541L42.1185 5.83667ZM41.9588 6.68577L41.921 6.88625L41.5279 6.81228L41.9333 4.65809C41.8163 4.78259 41.6968 4.89849 41.5741 5.00972L41.5267 4.56936C41.9004 4.18383 42.1958 3.73878 42.4129 3.23422L42.7873 3.38607C42.7053 3.56195 42.6123 3.73168 42.5169 3.89281L43.079 3.99859C43.0541 3.80667 43.0213 3.61327 42.9752 3.42551L43.3922 3.39409C43.4311 3.64155 43.458 3.8664 43.4721 4.07257L44.0225 4.17613L43.95 4.56137L43.3839 4.45485L43.3062 4.8676L43.8055 4.96155L43.7345 5.33892L43.2352 5.24498L43.1598 5.64594L43.659 5.73989L43.5887 6.11333L43.0895 6.01938L43.0015 6.48717L43.6462 6.60849L43.5744 6.9898L41.9588 6.68577ZM42.9908 4.38087L42.413 4.27213L42.3353 4.68489L42.9131 4.79363L42.9908 4.38087Z" fill="white"/>
<path d="M46.4884 4.05187L46.8062 4.32713C46.7525 4.3639 46.6987 4.40067 46.6459 4.43354L47.6549 4.6685L47.5814 4.98406C46.9865 5.63407 46.1085 5.87728 44.9443 5.70887L44.863 5.29976C45.1783 5.35675 45.4688 5.37922 45.7365 5.37585C45.6613 5.2228 45.5785 5.08442 45.493 4.95773L45.8835 4.86796C45.9801 5.01776 46.067 5.17353 46.1482 5.33619C46.5246 5.27188 46.8445 5.1328 47.104 4.91805L46.095 4.68309C45.7542 4.78855 45.3688 4.83846 44.9389 4.8328L44.7874 4.40737C45.5021 4.44237 46.0717 4.32447 46.4884 4.05187ZM45.8941 6.48038C45.9957 6.64368 46.0868 6.81685 46.1752 7.00171C46.5747 6.92635 46.9177 6.77622 47.2042 6.55133L46.1718 6.31093C45.8005 6.38875 45.3789 6.41789 44.9013 6.40525L44.748 5.98761C45.6154 6.10745 46.2929 6.00237 46.7874 5.67805L47.0905 5.94578C47.0137 5.9936 46.9329 6.04051 46.8492 6.08262L47.8154 6.3076L47.7419 6.62316C46.9695 7.40024 45.8226 7.63421 44.2941 7.31938L44.2173 6.89079C44.79 7.02414 45.3032 7.07793 45.7569 7.05215C45.6745 6.87689 45.5884 6.71722 45.4949 6.57223L45.8941 6.48038Z" fill="white"/>
<path d="M48.3244 5.56678L49.0297 5.76269L49.1367 5.37729C48.9431 5.35673 48.7489 5.32354 48.5597 5.28757L48.5391 4.88332C49.1977 5.00815 49.7392 5.04648 50.1625 5.00216L50.267 5.3882C50.0375 5.40747 49.8024 5.4169 49.5677 5.40983L49.4382 5.87617L50.1204 6.06566L50.0122 6.45493L49.3301 6.26543L49.3033 6.36179C49.4849 6.6198 49.6649 6.89814 49.8414 7.20454L49.5056 7.50152C49.3842 7.20626 49.2759 6.96859 49.1855 6.78573L48.7241 8.44684L48.3156 8.33336L48.7352 6.82256C48.48 7.08378 48.1976 7.30839 47.8781 7.50195L47.8248 6.97651C48.2728 6.76882 48.6389 6.49689 48.9194 6.15966L48.9215 6.15195L48.2162 5.95604L48.3244 5.56678ZM50.536 5.49612L50.9368 5.60746L50.2827 7.9623L49.8818 7.85096L50.536 5.49612ZM50.549 8.91639L49.9748 8.75688L49.9981 8.34406C50.175 8.4098 50.3462 8.46568 50.512 8.51172C50.6006 8.53634 50.6619 8.49523 50.6918 8.38731L51.5226 5.39655L51.9311 5.51003L51.0715 8.60485C50.9933 8.8862 50.8188 8.99133 50.549 8.91639Z" fill="white"/>
<path d="M52.6613 5.92684L55.8243 6.96166L55.7012 7.33803L54.7203 7.01714L53.9281 9.43883L55.0268 9.79828L54.8999 10.1861L51.5012 9.07412L51.628 8.68634L52.7191 9.04331L53.5114 6.62161L52.5382 6.30321L52.6613 5.92684ZM53.1107 9.17141L53.5365 9.31072L54.3288 6.88903L53.903 6.74972L53.1107 9.17141ZM55.1274 7.65113L55.4499 7.86184C55.134 8.38981 54.8064 8.83816 54.4593 9.20439L54.1594 8.96319C54.4726 8.63636 54.7965 8.19942 55.1274 7.65113ZM52.7781 6.92042C52.8238 7.39831 52.8293 7.93461 52.7883 8.52303L52.4113 8.50489C52.4437 7.96838 52.4383 7.44473 52.3936 6.92509L52.7781 6.92042Z" fill="white"/>
<path d="M56.6401 8.08538L56.9245 8.31998C56.7121 8.67163 56.4646 8.99415 56.1873 9.28557L55.8979 9.01356C56.1778 8.74531 56.424 8.43537 56.6401 8.08538ZM58.476 8.01851L58.8402 8.1839L58.435 9.0762L58.7035 9.07511C58.7268 9.41078 58.7203 9.76367 58.6823 10.1374L58.3053 10.1551C58.3416 9.83333 58.3574 9.53737 58.349 9.26559L57.4261 11.2979L57.0619 11.1325L58.476 8.01851ZM59.5341 8.35844L59.8947 8.52217L58.3715 11.8765L58.0109 11.7128L59.5341 8.35844ZM57.6761 8.64811C57.6994 8.98377 57.6912 9.34031 57.6553 9.71937L57.2782 9.73705C57.3175 9.39904 57.3326 9.08521 57.3219 8.79919C56.8608 9.77593 56.3075 10.3945 55.6621 10.6549L55.4921 10.2746C56.0707 10.0454 56.5671 9.48439 56.9812 8.59175L57.4923 7.46635L57.8528 7.63009L57.3914 8.64622L57.6761 8.64811Z" fill="white"/>
<path d="M62.3829 9.85816C62.3621 9.95718 62.3386 10.0686 62.3077 10.1849L63.6404 10.9644L63.4465 11.2959L60.3702 9.4964L60.5641 9.16494L61.9141 9.95463C61.9274 9.86049 61.9367 9.77326 61.9386 9.69091L62.3829 9.85816ZM61.3629 13.5666L61.0798 13.401L61.1793 13.0328L61.4391 13.1987C61.5599 13.2694 61.6463 13.2643 61.6948 13.1814L62.1896 12.3355L60.0835 11.1035L59.3301 12.3914L58.9883 12.1915L59.9234 10.5929L62.7132 12.2247L61.9942 13.4539C61.8548 13.6921 61.6426 13.7302 61.3629 13.5666ZM60.8191 9.94899L62.8389 11.1305L62.4107 11.8624L60.3909 10.681L60.8191 9.94899ZM62.223 11.3912L62.3361 11.1978L61.0068 10.4203L60.8937 10.6136L62.223 11.3912ZM60.348 11.4436L61.7705 12.2757L61.3342 13.0215L59.9117 12.1894L60.348 11.4436ZM61.1721 12.5698L61.2973 12.3558L60.5101 11.8953L60.3849 12.1094L61.1721 12.5698Z" fill="white"/>
<path d="M63.8423 12.1303L64.776 12.7913L64.8846 12.6379L65.2242 12.8782L65.1156 13.0317L66.0362 13.6834L65.8282 13.9772L64.9076 13.3255L64.7504 13.5475L66.0433 14.4627L65.8353 14.7565L65.2444 14.3382L65.0803 14.57L65.5308 14.8889L65.3205 15.186L64.87 14.8671L64.5718 15.2883C64.4193 15.5037 64.2222 15.526 63.9839 15.3573L63.5301 15.036L63.6815 14.6629C63.8192 14.78 63.9494 14.8868 64.0799 14.9793C64.1681 15.0417 64.2392 15.0381 64.2901 14.9663L64.5304 14.6268L62.725 13.3487L62.9353 13.0516L64.7407 14.3297L64.9048 14.0979L62.9068 12.6835L63.1147 12.3896L64.4109 13.3071L64.568 13.0851L63.6343 12.4242L63.8423 12.1303ZM63.3124 13.8135C63.3601 14.0923 63.3801 14.3271 63.3837 14.5159L62.9843 14.5124C62.9867 14.3083 62.9633 14.0712 62.9157 13.7925L63.3124 13.8135ZM64.3362 11.8134C64.1626 11.9062 63.983 11.98 63.8084 12.0328L63.643 11.6364C63.9942 11.5419 64.2981 11.3895 64.5567 11.1903L64.8291 11.491C64.7679 11.5359 64.7146 11.5765 64.658 11.6149L65.4155 12.1511L65.2144 12.4351L64.7279 12.0908C64.7308 12.2251 64.7262 12.3493 64.7165 12.46L64.3287 12.357C64.3568 12.1858 64.3705 12.0142 64.3721 11.8389L64.3362 11.8134ZM65.6653 12.7396C65.5415 12.8039 65.4189 12.8592 65.3001 12.9025L65.1385 12.5284C65.4176 12.4319 65.6611 12.2956 65.8715 12.1161L66.1429 12.4112C66.0873 12.4551 66.034 12.4958 65.9807 12.5365L66.8491 13.1512L66.648 13.4353L66.1518 13.084C66.1524 13.2216 66.1478 13.3458 66.1325 13.4574L65.7545 13.3614C65.7816 13.1846 65.7976 13.0097 65.7959 12.8321L65.6653 12.7396Z" fill="white"/>
<path d="M68.0258 13.8303C68.0993 14.1418 68.1421 14.4276 68.1542 14.6878L67.7516 14.7269C67.7498 14.4857 67.7121 14.1937 67.6335 13.8572L68.0258 13.8303ZM66.8894 14.3616L67.5988 14.9537L66.5351 16.2281C66.6908 16.2226 66.8578 16.2161 67.0386 16.2054L66.8457 16.6176C66.4892 16.6327 66.1384 16.616 65.7882 16.5737L65.9063 16.1825C65.9969 16.1801 66.0732 16.1448 66.1296 16.0772L67.0293 14.9993L66.6331 14.6687L66.8894 14.3616ZM67.6813 15.6477L69.1799 16.8985L68.9364 17.1902C68.63 17.3826 68.2965 17.495 67.9384 17.5244C68.0263 17.8062 68.1669 18.1059 68.3608 18.4292L67.9581 18.562C67.7597 18.188 67.6176 17.8402 67.5405 17.5205C67.16 17.4895 66.7555 17.3811 66.3208 17.1903L66.3683 16.7714C66.7615 16.9432 67.126 17.0495 67.465 17.0928C67.4325 16.7322 67.4738 16.4019 67.6 16.1009L67.4249 15.9548L67.6813 15.6477ZM67.9009 16.3521C67.8224 16.5835 67.7997 16.8355 67.8415 17.11C68.116 17.0995 68.3665 17.0428 68.6011 16.9365L67.9009 16.3521ZM68.882 14.6335L69.9875 15.5563L69.457 16.1919C69.4006 16.2595 69.4067 16.3271 69.4834 16.3912L69.7475 16.6116L69.5041 16.9033L69.154 16.6112C68.9236 16.4189 68.8997 16.2166 69.0791 16.0016L69.42 15.5932L68.9471 15.1985L68.8779 15.2814C68.6114 15.6008 68.2379 15.7111 67.7689 15.6114L67.7589 15.1863C68.1066 15.2941 68.3668 15.2508 68.5334 15.0512L68.882 14.6335Z" fill="white"/>
<path d="M70.8542 17.7418L71.601 18.454L72.4016 17.6146L72.7142 17.9128L71.9136 18.7522L72.6227 19.4286L72.3356 19.7296L71.6264 19.0532L70.1467 20.6047L69.8341 20.3065L71.3138 18.7551L70.567 18.0428L70.8542 17.7418ZM71.1232 16.4396C71.1703 16.7554 71.1914 17.0463 71.1891 17.3095L70.7792 17.322C70.7962 17.0839 70.7722 16.7903 70.7103 16.4437L71.1232 16.4396ZM69.9231 16.8924L70.612 17.5495L69.458 18.7594C69.6109 18.7671 69.778 18.7716 69.9591 18.773L69.7418 19.1572C69.388 19.1515 69.0392 19.1173 68.6925 19.0519L68.8362 18.6694C68.9298 18.6757 69.0055 18.6484 69.0635 18.5876L70.0435 17.5601L69.647 17.1819L69.9231 16.8924Z" fill="white"/>
<path d="M74.2592 21.7831C74.1449 21.8128 74.028 21.834 73.92 21.847L73.9798 21.4529C74.4275 21.3647 74.9174 21.1281 75.4522 20.7459L75.6772 21.0938C75.5291 21.1931 75.3843 21.284 75.2425 21.3665L75.9013 22.0758L75.6112 22.3453L75.4696 22.1928C75.0051 22.5861 74.5311 22.8516 74.0533 22.9897C73.9558 23.3314 73.9203 23.681 73.958 24.0391L73.5441 24.1342C73.5063 23.7761 73.5392 23.4236 73.6342 23.0733C73.2504 23.1186 72.861 23.0872 72.4715 22.9794L72.5896 22.5422C72.9893 22.6787 73.3873 22.7075 73.7805 22.6371C73.9014 22.3501 74.062 22.0645 74.2592 21.7831ZM75.2056 21.9086L74.8789 21.5569C74.876 21.5596 74.8703 21.5594 74.8644 21.5648C74.5898 21.8745 74.3773 22.1865 74.2295 22.5094C74.557 22.3799 74.8842 22.1797 75.2056 21.9086ZM73.7849 19.4503L74.1061 19.7962L74.3259 19.592L74.5954 19.8822L74.3756 20.0863L74.6424 20.3735L74.405 20.594C74.5959 20.5586 74.7843 20.5146 74.9673 20.4648L75.0647 20.8165C74.8018 20.8861 74.5478 20.9418 74.3001 20.9808L74.4335 21.1244L74.1521 21.3857L73.8173 21.0252C73.7011 21.0294 73.5878 21.0309 73.4748 21.0267L73.8858 21.4693L73.669 21.6707C73.4675 21.6831 73.2471 21.6749 73.0132 21.6465L72.9399 21.7146C73.1435 21.8749 73.3311 22.0064 73.4942 22.1115L73.2099 22.3755C73.0633 22.2824 72.8786 22.1482 72.6615 21.9732L72.3977 22.2182C72.1896 22.4114 71.9861 22.4039 71.7956 22.1988L71.5506 21.935L71.7497 21.6027C71.8278 21.7103 71.8897 21.7947 71.9415 21.8504C72.0231 21.9383 72.1109 21.9387 72.2046 21.8516L72.3512 21.7155C72.1646 21.5557 71.959 21.3755 71.7316 21.1718L71.9838 20.8556C72.2133 21.0792 72.4324 21.2798 72.6296 21.4569L72.7996 21.299C72.9541 21.3302 73.1174 21.3532 73.2841 21.3621L72.9302 20.9811C72.7051 20.9445 72.4891 20.8941 72.2849 20.8271L72.3219 20.4379C72.4226 20.4699 72.5206 20.499 72.6215 20.5254L72.8296 20.3321L73.0964 20.6193C73.226 20.6354 73.3529 20.6486 73.4743 20.6559L72.8918 20.0287L73.1731 19.7674L73.6196 20.248L73.8364 20.0466L73.5152 19.7008L73.7849 19.4503ZM73.9898 20.6466C74.1118 20.637 74.2341 20.6217 74.3537 20.6035L74.1059 20.3368L73.8891 20.5382L73.9898 20.6466Z" fill="white"/>
<path d="M76.3227 22.1642L77.3278 23.3625C77.3782 23.2732 77.4169 23.1886 77.4499 23.1034L77.8248 23.4259C77.7708 23.5234 77.7082 23.6229 77.6363 23.7302L78.662 24.953L78.3617 25.2049L77.8552 24.6012C77.8657 24.9996 77.8545 25.3223 77.8266 25.5754L77.4135 25.4625C77.433 25.3365 77.4475 25.2043 77.4603 25.0578C76.9907 24.585 76.4038 23.9601 75.7083 23.1808L75.9245 22.8846C75.9821 22.9407 76.0411 22.98 76.0929 23.0044C76.2344 23.0423 76.4071 23.0802 76.6136 23.121L76.0224 22.4161L76.3227 22.1642ZM76.9555 23.5286C76.7147 23.4904 76.5143 23.4445 76.3507 23.3989C76.7753 23.8677 77.1541 24.2757 77.4814 24.6224C77.4873 24.5235 77.4874 24.4241 77.4876 24.3248L77.6727 24.3836L76.9555 23.5286ZM75.2675 24.3233L75.105 24.4595L76.1796 25.7405L76.342 25.6043L75.2675 24.3233ZM76.6117 25.378L76.7833 25.2341L75.7088 23.9531L75.5371 24.097L76.6117 25.378ZM74.8354 24.6857L74.3512 25.0919L74.0812 24.7701L75.7116 23.4025L77.3311 25.3332L76.0164 26.436C75.808 26.6108 75.6087 26.5848 75.4185 26.3581L75.1563 26.0455L75.3964 25.7031L75.6278 26.0101C75.6895 26.0837 75.7536 26.0978 75.8088 26.0516L75.9099 25.9667L74.8354 24.6857Z" fill="white"/>
<path d="M78.8329 27.1879L78.5021 27.4402C78.3688 27.3709 78.233 27.2983 78.1028 27.2266L77.2059 27.9106C76.9896 28.0755 76.7958 28.0523 76.6357 27.8424L76.4053 27.5402L76.6651 27.2213C76.7227 27.3232 76.7787 27.4164 76.8418 27.4991C76.8951 27.5691 76.9624 27.5781 77.0387 27.5199L77.7226 26.9984C77.5698 26.9036 77.421 26.8008 77.2778 26.6988L77.5423 26.3663C77.7034 26.505 77.8717 26.6332 78.047 26.751L78.6959 26.2562L78.3733 25.8332L78.6881 25.593L79.0107 26.0161L79.5515 25.6037L79.8013 25.9313L79.2606 26.3437L79.5056 26.6649L79.1907 26.9051L78.9457 26.5838L78.4241 26.9816C78.5574 27.0509 78.6932 27.1235 78.8329 27.1879ZM78.8487 27.855L77.4428 28.9271L77.2027 28.6122L80.0462 26.4438L81.1862 27.9387C80.8045 28.2298 80.5299 28.404 80.3712 28.4597C80.2163 28.5073 80.0565 28.423 79.8915 28.2067L79.7072 27.965L79.9223 27.66C79.9587 27.7077 80.0016 27.7706 80.0574 27.8437C80.1132 27.9169 80.1576 27.9685 80.1931 28.0019C80.2269 28.0264 80.2678 28.0405 80.3142 28.0353C80.3701 28.0228 80.4808 27.9636 80.6447 27.8486L79.9874 26.9867L79.1508 27.6246L80.0653 28.8237L79.779 29.042C79.4214 29.2393 79.0695 29.3517 78.7265 29.3769C78.7116 29.6146 78.7256 29.8705 78.7686 30.1445L78.3412 30.1184C78.3174 29.8498 78.3195 29.6017 78.3448 29.3711C78.0837 29.3388 77.8319 29.2592 77.5861 29.1348L77.7574 28.7526C77.9791 28.8652 78.2013 28.9323 78.4207 28.9561C78.5184 28.5697 78.691 28.2419 78.9408 27.9759L78.8487 27.855ZM79.164 28.2685C78.992 28.4651 78.8698 28.6941 78.7975 28.9555C79.0381 28.9279 79.2815 28.858 79.5254 28.7424L79.164 28.2685Z" fill="white"/>
<path d="M81.6929 32.1813L80.4345 33.0621L80.1914 32.7148L80.3454 32.607L79.2765 31.0799L79.1225 31.1877L78.8793 30.8403L80.1377 29.9595L81.6929 32.1813ZM79.5976 30.8551L80.6665 32.3822L81.1286 32.0587L80.0597 30.5317L79.5976 30.8551ZM81.3413 29.5027C81.1159 29.4946 80.8898 29.4575 80.6676 29.3982L80.7941 29.0069C81.2286 29.1325 81.649 29.1262 82.0544 28.9939L82.2536 29.3622C82.1039 29.4133 81.9571 29.4477 81.8089 29.4733L82.1668 29.9845L82.5928 29.6863L82.8336 30.0304L82.4076 30.3286L83.1301 31.3608L82.8025 31.5902L82.0799 30.5579L81.6572 30.8538L82.5563 32.1384L82.2221 32.3724L80.1256 29.3772L80.4598 29.1432L81.4163 30.5098L81.8391 30.2139L81.3413 29.5027Z" fill="white"/>
<path d="M84.335 32.1896L83.2119 33.8966L81.1929 34.2108L81.138 33.8371L82.989 33.5501L84.0177 31.9847L84.335 32.1896ZM84.7115 32.775L83.5884 34.4819L81.5694 34.7961L81.5145 34.4224L83.3655 34.1354L84.3856 32.5566L84.7115 32.775Z" fill="white"/>
<g clip-path="url(#clip0_255_5577)">
<path d="M0.399994 4L4.29747 3.1002L5.19728 6.99768L1.2998 7.89748L0.399994 4Z" fill="#00008B"/>
<path d="M2.34873 3.5501L2.40497 3.79369L1.85052 4.69142L2.738 5.23621L2.79864 5.49884L2.54363 5.55771L1.65146 5.00999L1.10871 5.88899L0.849896 5.94874L0.790143 5.68992L1.33376 4.81474L0.465019 4.28165L0.399994 4L0.635974 3.94552L1.53195 4.49236L2.07469 3.61337L2.34873 3.5501Z" fill="white"/>
<path d="M1.38503 5.0715L1.45677 5.19125L1.00975 5.91183L0.849896 5.94874L0.84726 5.93732L1.38503 5.0715ZM1.84644 4.91687L2.059 4.89987L2.75909 5.32756L2.79864 5.49884L1.84644 4.91687ZM2.34873 3.5501L1.79018 4.46481L1.7363 4.30086L2.17365 3.59052L2.34873 3.5501ZM0.400873 4.00381L1.30153 4.55357L1.06994 4.57497L0.443051 4.1865L0.400873 4.00381Z" fill="#FF0000"/>
<path d="M1.06987 3.84535L1.51978 5.79409L2.12876 5.65349L1.67885 3.70475L1.06987 3.84535ZM0.554648 4.66988L0.695242 5.27886L2.64398 4.82896L2.50339 4.21998L0.554648 4.66988Z" fill="white"/>
<path d="M0.582767 4.79168L0.667123 5.15706L2.61586 4.70716L2.53151 4.34177L0.582767 4.79168ZM1.19167 3.81723L1.64157 5.76597L2.00696 5.68161L1.55706 3.73287L1.19167 3.81723Z" fill="#FF0000"/>
<path d="M2.64556 6.71122L2.30641 6.83282L2.42209 7.17414L2.11547 6.98514L1.92085 7.28825L1.87748 6.93024L1.51865 6.96658L1.77118 6.70943L1.51925 6.45169L1.8775 6.48925L1.9215 6.13111L2.11594 6.435L2.42276 6.2463L2.30668 6.58741L2.64614 6.71029L2.64556 6.71122ZM4.35487 6.38074L4.20339 6.43656L4.25616 6.58874L4.11819 6.50514L4.03178 6.64135L4.01097 6.48178L3.8507 6.49954L3.96271 6.38388L3.84898 6.26982L4.00961 6.28486L4.02786 6.12429L4.116 6.25949L4.25267 6.17422L4.20215 6.327L4.35487 6.38074ZM4.07506 5.50563L4.07277 5.40193L3.98235 5.35064L4.0802 5.31602L4.1008 5.21425L4.16393 5.29669L4.26705 5.28491L4.20826 5.37064L4.25166 5.46486L4.15176 5.435L4.07506 5.50563ZM3.32942 5.19669L3.17876 5.24912L3.22814 5.40048L3.09304 5.31541L3.00516 5.44875L2.98775 5.29001L2.82924 5.30495L2.94195 5.19234L2.83127 5.07758L2.99013 5.09542L3.01137 4.93737L3.09629 5.07252L3.2329 4.99046L3.18033 5.14131L3.32942 5.19669ZM4.61002 4.63806L4.45566 4.69534L4.5099 4.85039L4.36912 4.76503L4.28095 4.90405L4.26003 4.7405L4.09671 4.75897L4.21124 4.64032L4.09529 4.52357L4.25931 4.53942L4.2778 4.37639L4.3674 4.51446L4.50676 4.42697L4.45466 4.58332L4.61002 4.63806ZM3.8383 4.14672L3.68477 4.2006L3.73579 4.3556L3.59788 4.26877L3.50824 4.40493L3.49013 4.24313L3.32764 4.2582L3.44304 4.14336L3.33013 4.0259L3.49222 4.04381L3.51352 3.88254L3.5999 4.02055L3.7392 3.93627L3.68564 4.08975L3.8383 4.14672Z" fill="white"/>
</g>
<defs>
<clipPath id="clip0_255_5577">
<rect x="0.399994" y="4" width="4" height="4" rx="2" transform="rotate(-13 0.399994 4)" fill="white"/>
</clipPath>
</defs>
</svg>
