<svg width="596" height="444" viewBox="0 0 596 444" fill="none" xmlns="http://www.w3.org/2000/svg">
<path d="M584.726 156.024C599.378 56.514 333.562 44.5134 234.051 29.8612C134.541 15.209 41.9944 83.9999 27.3422 183.51C12.69 283.02 81.4809 375.567 180.991 390.219C280.501 404.872 570.074 255.534 584.726 156.024Z" fill="url(#paint0_linear_860_23558)"/>
<path d="M69.1819 161.46L55.9488 156.956L56.6341 154.943L58.3026 155.511L59.5362 151.886L61.3198 152.493L60.0862 156.117L61.9849 156.764L63.1401 153.369L64.8662 153.956L63.7109 157.351L65.6096 157.997L66.9214 154.142L68.6475 154.73L67.3356 158.584L69.8672 159.446L69.1819 161.46ZM63.9875 168.423L62.2615 167.836L63.5929 163.923L61.6942 163.277L60.5195 166.729L58.7934 166.142L59.9682 162.69L58.0695 162.044L56.8164 165.726L55.0329 165.119L56.2859 161.437L54.6174 160.869L55.3027 158.855L68.5358 163.358L67.8505 165.372L65.3189 164.511L63.9875 168.423Z" fill="#4B861D"/>
<path d="M71.1051 142.559C70.2641 141.491 69.0628 140.523 67.5015 139.654L66.5183 141.744C68.1098 142.358 69.6388 142.63 71.1051 142.559ZM67.8997 144.946L68.7796 145.36L68.0809 146.845L70.9406 148.191C71.1065 147.552 71.3082 146.886 71.5454 146.191C71.7847 146.349 72.1621 146.594 72.6775 146.926C72.5481 146.059 72.3561 145.23 72.1016 144.438C70.8164 144.505 69.5084 144.382 68.1778 144.07C68.1973 144.124 68.2264 144.204 68.2652 144.312C68.304 144.42 68.4076 144.581 68.5758 144.794C68.3235 144.855 68.0981 144.905 67.8997 144.946ZM62.5459 140.479L63.8398 138.872C64.0252 139.048 64.2851 139.305 64.6193 139.641C64.8242 139.872 64.9914 140.04 65.1208 140.146L66.932 136.297L68.6918 137.125L68.2777 138.005C70.4818 139.221 72.1553 140.613 73.2983 142.18C74.2687 141.831 75.2348 141.3 76.1966 140.589C76.4274 141.145 76.7778 141.78 77.248 142.494C76.4824 143.074 75.4527 143.597 74.1588 144.063C74.4953 145.251 74.7251 146.523 74.8481 147.88C74.1063 147.934 73.4475 148.049 72.8717 148.226C71.9575 150.93 71.3592 152.821 71.0767 153.897L69.2685 153.314C69.2663 153.224 69.2998 153.105 69.3687 152.959C69.4184 152.758 69.4604 152.621 69.4948 152.548L63.5557 149.753L64.2802 148.214L69.9994 150.905C70.0856 150.721 70.1784 150.429 70.2775 150.028C70.2474 150.282 70.2646 150.246 70.3293 149.918L62.9604 146.451L61.589 149.365L59.9392 148.589L62.9665 142.155L64.6163 142.931L63.7366 144.801L66.4312 146.069L66.8193 145.244C65.9113 143.653 64.4868 142.064 62.5459 140.479Z" fill="#4B861D"/>
<path d="M77.2935 131.302L77.2717 129.53C78.3129 129.434 79.3512 129.383 80.3865 129.377L80.3164 131.307C79.3015 131.277 78.2938 131.276 77.2935 131.302ZM76.0117 130.484L74.3844 129.534L76.3445 126.175L74.7697 125.256L75.7497 123.576L77.3245 124.495L78.0902 123.183L79.7175 124.132L78.9519 125.444L82.9414 127.772C84.1663 128.487 84.487 129.424 83.9037 130.585C83.4691 131.41 83.0782 132.12 82.7311 132.715C82.5358 132.648 82.2777 132.568 81.9568 132.475C81.4406 132.314 81.0571 132.208 80.8063 132.155C81.1476 131.651 81.5122 131.066 81.9001 130.401C82.1859 129.911 82.0664 129.513 81.5414 129.207L77.9718 127.124L76.0117 130.484ZM76.1785 121.997L70.5433 131.656C71.9431 132.473 72.8706 133.014 73.3255 133.279C73.9204 133.626 74.3477 133.899 74.6072 134.097C73.887 132.598 72.9552 131.14 71.8121 129.722L73.1727 128.476C73.3914 128.744 73.7093 129.164 74.1263 129.736C74.24 129.943 74.3392 130.094 74.4237 130.191L81.7205 134.448L80.7711 136.075L76.2565 133.441C76.379 133.794 76.5291 134.14 76.707 134.478C76.4912 134.446 76.1675 134.398 75.7358 134.334C75.3043 134.269 74.998 134.231 74.8172 134.22C77.1415 135.623 78.712 137.032 79.5285 138.446C78.7672 138.706 78.0863 138.988 77.4855 139.295C76.6543 137.825 74.9687 136.372 72.4285 134.937L68.124 132.426L70.8191 127.806C70.4779 127.748 70.1717 127.71 69.9005 127.692L70.6225 125.369C71.1094 125.419 71.6039 125.496 72.1054 125.601L74.7086 121.139L76.1785 121.997Z" fill="#4B861D"/>
<path d="M84.7579 114.983L86.3467 116.105L88.3094 113.324L86.7207 112.203L84.7579 114.983ZM85.2311 111.151L83.6919 110.065L81.7292 112.845L83.2683 113.932L85.2311 111.151ZM87.7865 117.121L89.3754 118.243L91.3382 115.462L89.7493 114.341L87.7865 117.121ZM86.2645 125.495L84.6495 124.727C85.111 123.862 85.8382 122.516 86.8314 120.687C86.9852 120.399 87.0923 120.177 87.1527 120.021C87.2189 120.068 87.3181 120.138 87.4505 120.232C87.5927 120.382 87.6969 120.48 87.7631 120.527L88.2187 119.881L81.5159 115.15C82.3414 117.071 83.0199 118.815 83.5514 120.381C83.8124 119.87 84.2018 119.178 84.7198 118.304C84.7665 118.238 84.8015 118.188 84.8249 118.155C85.3312 118.562 85.7595 118.939 86.11 119.285C84.8832 121.445 84.2075 122.753 84.0829 123.211L82.2721 122.825C82.3208 122.264 82.0249 121.138 81.3844 119.446C80.8567 120.264 80.5606 120.823 80.4964 121.125L78.7557 120.64C78.7947 120.023 78.0509 118.407 76.5244 115.792L78.1717 114.723C78.3002 114.962 78.4647 115.327 78.6653 115.815C78.9846 116.487 79.4139 117.46 79.9532 118.733C80.1635 118.435 80.3807 118.093 80.6045 117.705C80.3846 117.103 80.1081 116.511 79.7752 115.929L81.367 115.044L79.083 113.432L83.3591 107.375L92.4948 113.824L93.0206 113.079L94.4604 114.096L89.0627 121.742L88.4172 121.286C88.1699 121.707 87.8204 122.377 87.3687 123.298C86.8935 124.252 86.5255 124.985 86.2645 125.495Z" fill="#4B861D"/>
<path d="M99.2136 102.921L99.7094 101.084C101.388 101.331 102.995 101.567 104.529 101.794L104.094 103.928C102.435 103.537 100.808 103.201 99.2136 102.921ZM95.2821 102.676L97.8679 99.7708L94.8716 97.1041L92.2857 100.01L95.2821 102.676ZM96.6336 104.449L98.4914 103.824C99.1899 105.964 99.66 107.63 99.9015 108.822C99.8443 108.825 99.7871 108.828 99.7299 108.832C99.2756 108.915 98.6395 109.082 97.8218 109.33C97.7816 109.131 97.7564 108.946 97.7464 108.775C96.8303 110.292 96.0422 111.543 95.3821 112.528L93.7777 111.589C94.0168 111.259 94.4007 110.706 94.9294 109.929C95.6132 108.856 96.1536 108.035 96.5511 107.467C97.0689 107.982 97.464 108.361 97.7365 108.603C97.6226 107.634 97.255 106.249 96.6336 104.449ZM89.9709 105.353C90.1595 105.141 90.3884 104.884 90.6578 104.581C90.6209 104.44 90.5352 104.201 90.4008 103.865C90.2597 103.414 90.1539 103.075 90.0834 102.85L91.6383 102.2C92.2631 104.058 92.7617 105.722 93.1343 107.192C93.3734 106.863 93.7439 106.325 94.2456 105.578C93.9291 106.055 93.9813 105.966 94.4023 105.31C94.7385 105.664 95.1521 106.113 95.6431 106.659C94.7439 107.974 93.9945 109.151 93.3949 110.19L91.8509 109.548C91.8649 108.802 91.6602 107.752 91.2371 106.399C90.7017 107.061 90.3834 107.51 90.2824 107.746L88.6929 107.063C88.5455 106.01 87.9173 104.339 86.8083 102.05L88.4795 101.178C89.0742 102.521 89.5714 103.913 89.9709 105.353ZM95.3511 105.341L89.6307 100.25L94.8026 94.4392L100.523 99.5302L95.3511 105.341Z" fill="#4B861D"/>
<defs>
<linearGradient id="paint0_linear_860_23558" x1="97.7658" y1="365.957" x2="460.562" y2="139.613" gradientUnits="userSpaceOnUse">
<stop stop-color="#49A700" stop-opacity="0.09"/>
<stop offset="1" stop-color="#629C35" stop-opacity="0"/>
</linearGradient>
</defs>
</svg>
