<svg width="855" height="676" viewBox="0 0 855 676" fill="none" xmlns="http://www.w3.org/2000/svg">
<path d="M676.163 253.427C677.365 252.73 678.518 251.655 679.623 250.201L677.651 248.904C676.799 250.426 676.303 251.933 676.163 253.427ZM674.212 249.839L673.665 250.669L672.264 249.747L670.49 252.446C671.111 252.706 671.756 253.006 672.424 253.347C672.231 253.566 671.928 253.912 671.518 254.386C672.414 254.38 673.28 254.306 674.118 254.163C674.236 252.853 674.549 251.548 675.058 250.247C675.001 250.259 674.915 250.276 674.8 250.3C674.685 250.324 674.508 250.405 674.268 250.545C674.243 250.281 674.224 250.045 674.212 249.839ZM679.505 245.069L680.944 246.61C680.739 246.772 680.441 246.998 680.053 247.288C679.79 247.461 679.595 247.606 679.47 247.722L683.102 250.111L682.01 251.772L681.18 251.225C679.63 253.279 677.98 254.771 676.229 255.7C676.442 256.733 676.839 257.787 677.42 258.863C676.823 259.016 676.13 259.278 675.34 259.651C674.864 258.792 674.484 257.675 674.2 256.299C672.949 256.467 671.629 256.515 670.239 256.444C670.291 255.685 670.27 255.002 670.174 254.394C667.571 253.078 665.745 252.199 664.697 251.758L665.548 250.013C665.64 250.024 665.755 250.075 665.893 250.166C666.089 250.245 666.221 250.307 666.291 250.353L669.977 244.749L671.43 245.704L667.88 251.101C668.053 251.215 668.335 251.351 668.727 251.509C668.474 251.442 668.508 251.464 668.83 251.577L673.404 244.624L670.654 242.815L671.678 241.258L677.749 245.252L676.725 246.809L674.961 245.648L673.288 248.191L674.067 248.703C675.808 248.014 677.621 246.803 679.505 245.069Z" fill="#2C4681"/>
<path d="M686.647 261.127L688.446 261.332C688.41 262.4 688.329 263.459 688.202 264.509L686.255 264.191C686.415 263.166 686.545 262.144 686.647 261.127ZM687.641 259.932L688.812 258.404L691.967 260.822L693.101 259.343L694.678 260.552L693.545 262.031L694.777 262.975L693.606 264.504L692.373 263.559L689.502 267.306C688.62 268.456 687.629 268.661 686.527 267.92C685.745 267.374 685.076 266.887 684.517 266.458C684.61 266.269 684.724 266.018 684.86 265.704C685.089 265.201 685.246 264.826 685.332 264.579C685.799 264.989 686.345 265.434 686.97 265.913C687.43 266.265 687.849 266.195 688.227 265.702L690.796 262.35L687.641 259.932ZM696.224 261.189L687.154 254.237C686.146 255.552 685.479 256.423 685.151 256.85C684.723 257.409 684.392 257.807 684.158 258.045C685.77 257.507 687.368 256.749 688.952 255.772L690.041 257.311C689.741 257.498 689.274 257.767 688.641 258.116C688.417 258.205 688.25 258.286 688.142 258.36L682.89 265.212L681.362 264.04L684.611 259.801C684.238 259.88 683.868 259.988 683.502 260.125C683.563 259.91 683.653 259.588 683.773 259.159C683.894 258.729 683.971 258.424 684.006 258.242C682.286 260.419 680.656 261.83 679.117 262.477C678.952 261.672 678.752 260.945 678.519 260.296C680.116 259.642 681.805 258.119 683.585 255.728L686.684 251.686L691.022 255.011C691.125 254.672 691.202 254.367 691.255 254.094L693.517 255.124C693.405 255.611 693.263 256.102 693.092 256.598L697.282 259.809L696.224 261.189Z" fill="#2C4681"/>
<path d="M699.498 266.415L698.383 266.177L699.594 267.245C700.46 267.015 701.264 266.73 702.005 266.39L699.63 264.295C699.626 265.175 699.582 265.882 699.498 266.415ZM696.469 272.853L697.702 271.456L695.28 269.319L694.047 270.717L696.469 272.853ZM692.486 272.487L691.135 271.295L694.997 266.917L700.167 271.478L696.346 275.809L694.949 274.577L695.483 273.971L693.061 271.835L692.486 272.487ZM704.843 266.741L703.775 267.951L702.331 266.678L703.044 268.217C702.497 268.398 701.891 268.553 701.225 268.683L702.529 269.834L701.46 271.045L695.266 265.58L696.334 264.369L697.638 265.519C697.658 265.372 697.688 265.15 697.728 264.854C697.789 264.41 697.825 264.056 697.838 263.791L699.443 264.13L698.046 262.898L699.114 261.687L701.257 263.577C701.492 263.122 701.656 262.686 701.747 262.27L703.67 263.47C703.537 263.683 703.368 264.031 703.164 264.513C703.061 264.755 702.985 264.935 702.934 265.056L704.843 266.741ZM705.43 273.304C705.54 275.058 705.115 276.478 704.157 277.564C703.171 278.682 702.126 278.865 701.023 278.113C700.809 277.979 700.454 277.694 699.957 277.255C700.392 276.7 700.764 276.09 701.075 275.425C701.358 275.73 701.561 275.937 701.686 276.047C702.12 276.431 702.529 276.405 702.913 275.97C703.652 275.132 703.969 273.865 703.863 272.17C705.057 271.568 706.277 270.904 707.523 270.181L706.358 269.154L698.428 278.143L696.985 276.869L706.065 266.576L710.21 270.233L709.265 271.304C708.84 271.536 707.93 272.004 706.537 272.707C706.084 272.97 705.715 273.169 705.43 273.304Z" fill="#2C4681"/>
<path d="M714.318 274.03L716.107 274.889C715.829 275.968 715.463 277.076 715.008 278.212L713.045 277.263C713.588 276.04 714.013 274.963 714.318 274.03ZM721.978 282.435L714.278 289.929C713.269 290.911 712.256 291.088 711.24 290.459C710.892 290.22 709.953 289.314 708.422 287.741C708.84 287.161 709.2 286.551 709.501 285.911C710.078 286.563 710.669 287.201 711.276 287.824C711.969 288.536 712.612 288.604 713.206 288.026L719.081 282.308L715.313 278.436L716.737 277.05L721.978 282.435ZM703.14 282.135L711.864 273.645L713.38 275.203L704.656 283.693L703.14 282.135Z" fill="#2C4681"/>
<path d="M720.763 296.362C720.963 295.029 721.364 293.746 721.966 292.515C720.251 293.422 718.491 294.045 716.689 294.384C718.129 295.243 719.487 295.903 720.763 296.362ZM724.663 294.568L726.112 293.397L728.536 293.036L725.92 289.799C725.791 289.903 725.617 290.017 725.398 290.141C725.237 290.271 725.124 290.362 725.06 290.414C723.804 292.813 723.077 294.944 722.88 296.807C724.102 296.937 725.256 296.883 726.342 296.645L724.663 294.568ZM723.071 286.272L724.568 285.062L731.595 293.758L730.387 294.734L727.557 295.184L729.391 297.455L728.28 298.353C726.485 298.898 724.698 299.091 722.919 298.932C723.094 300.334 723.544 301.78 724.269 303.271C723.558 303.313 722.811 303.41 722.03 303.563C721.337 302.047 720.879 300.393 720.657 298.603C719.232 298.157 717.745 297.469 716.195 296.539C716.329 296.112 716.48 295.377 716.65 294.335C715.965 294.41 715.237 294.465 714.468 294.501C714.529 293.654 714.554 292.861 714.544 292.124C717.765 292.29 721.002 291.058 724.255 288.43L724.593 288.156L723.071 286.272Z" fill="#2C4681"/>
<path d="M733.961 303.364L735.924 303.843C735.87 304.312 735.77 305.026 735.626 305.986C735.461 306.91 735.333 307.617 735.244 308.107C736.488 308.321 737.728 308.488 738.964 308.61L738.89 310.762C737.526 310.669 736.172 310.474 734.829 310.176C734.524 311.669 734.237 313.151 733.968 314.623L731.738 313.942C731.85 313.487 732.023 312.776 732.26 311.809C732.482 310.899 732.638 310.199 732.728 309.708C731.192 309.333 729.712 308.851 728.289 308.262C728.443 307.878 728.645 307.173 728.895 306.15C730.319 306.738 731.735 307.235 733.143 307.639C733.455 306.239 733.728 304.814 733.961 303.364ZM735.105 302.015L727.301 306.755L733.265 316.576L731.672 317.543L724.612 305.917L735.707 299.179L742.542 310.433L740.843 311.465L735.105 302.015Z" fill="#2C4681"/>
<path d="M739.645 323.149L741.793 322.17L741.329 321.153L739.182 322.132L739.645 323.149ZM737.294 321.286L741.985 319.147L743.737 322.99L739.046 325.129L737.294 321.286ZM743.115 318.632L744.811 317.859L746.794 322.211C747.359 321.953 747.981 321.67 748.659 321.361L749.458 323.113C749.232 323.216 748.901 323.389 748.466 323.633C748.09 323.805 747.807 323.934 747.619 324.019L748.185 325.263C748.264 325.136 748.363 324.954 748.483 324.718C748.681 324.354 748.82 324.109 748.899 323.982L750.2 324.89C750.06 325.182 749.879 325.583 749.656 326.094C749.52 326.293 749.431 326.447 749.39 326.557L748.469 325.884L749.061 327.184L747.366 327.957L745.949 324.849C744.384 325.608 743.137 326.267 742.209 326.827C743.395 326.832 744.567 326.708 745.725 326.453L745.968 328.185C743.936 328.519 741.925 328.549 739.934 328.274C739.074 328.984 738.705 329.471 738.825 329.735C738.928 329.961 739.714 329.739 741.184 329.069C741.249 329.813 741.341 330.362 741.458 330.719C739.046 331.818 737.575 331.784 737.042 330.616C736.63 329.711 736.84 328.774 737.671 327.803C737.49 327.704 737.215 327.601 736.849 327.496C736.208 327.287 735.741 327.113 735.45 326.973C735.806 326.356 736.076 325.8 736.26 325.307C736.016 324.872 735.569 324.188 734.916 323.257C734.69 322.86 734.515 322.576 734.391 322.404L735.074 321.956C734.357 320.782 733.648 319.626 732.948 318.489L734.561 317.685C734.791 317.99 734.992 318.331 735.163 318.708L740.137 316.441L739.699 315.48L741.394 314.707L741.832 315.668L745.336 314.07L746.135 315.822L742.631 317.42L742.966 318.154L741.27 318.927L740.935 318.193L736.245 320.331C736.334 320.427 736.449 320.579 736.589 320.788C736.713 320.959 736.801 321.101 736.852 321.214C736.664 321.3 736.4 321.42 736.061 321.575C736.287 321.972 736.61 322.53 737.029 323.25C737.692 324.404 738.181 325.227 738.497 325.72C738.308 325.806 738.11 325.92 737.901 326.06C738.01 326.101 738.148 326.153 738.312 326.214C738.514 326.258 738.818 326.325 739.222 326.414C740.4 325.604 742.376 324.498 745.15 323.097L743.115 318.632Z" fill="#2C4681"/>
<path d="M749.333 330.049L749.649 331.321C748.879 331.504 747.771 331.784 746.323 332.161C745.88 332.273 745.554 332.344 745.345 332.374C745.379 332.098 745.347 331.693 745.246 331.158C745.232 331.119 745.225 331.099 745.225 331.099C746.739 330.786 748.109 330.436 749.333 330.049ZM752.564 330.625L753.224 332.5L751.29 333.18C751.326 333.781 751.277 334.391 751.144 335.009L749.373 334.842C749.424 334.736 749.473 334.565 749.522 334.328C749.609 334.078 749.652 333.888 749.65 333.757L739.631 337.281L738.971 335.406L752.564 330.625ZM740.529 338.15L742.228 337.552L743.568 341.361L746.146 340.454L745.053 337.349L746.87 336.71L747.962 339.815L750.481 338.929L749.904 337.288C748.963 337.356 748.099 337.397 747.313 337.41C747.373 337.081 747.464 336.589 747.584 335.932C747.632 335.695 747.662 335.531 747.674 335.439C749.403 335.489 751.227 335.309 753.145 334.897L753.646 336.696C753.019 336.785 752.419 336.887 751.844 337.001L752.298 338.29L754.934 337.363L755.614 339.296L752.978 340.224L753.987 343.094L752.171 343.733L751.161 340.862L748.642 341.749L749.631 344.561L747.815 345.2L746.826 342.387L744.248 343.294L745.422 346.634L743.723 347.231L740.529 338.15Z" fill="#2C4681"/>
<path d="M751.882 357.411C753.243 357.685 754.82 357.644 756.61 357.286L755.992 355.009C754.347 355.584 752.976 356.385 751.882 357.411ZM752.797 353.43L751.838 353.69L751.399 352.072L748.282 352.918C748.575 353.524 748.859 354.177 749.134 354.874C748.844 354.91 748.388 354.97 747.767 355.052C748.442 355.642 749.14 356.16 749.862 356.608C750.818 355.705 751.918 354.934 753.161 354.297C753.11 354.268 753.034 354.224 752.932 354.166C752.83 354.107 752.644 354.051 752.371 353.996C752.528 353.782 752.67 353.593 752.797 353.43ZM759.922 353.363L759.979 355.471C759.718 355.457 759.346 355.429 758.863 355.388C758.55 355.344 758.309 355.324 758.138 355.327L759.277 359.523L757.358 360.044L757.098 359.085C754.577 359.597 752.353 359.621 750.425 359.158C749.901 360.072 749.5 361.125 749.223 362.316C748.675 362.035 747.981 361.773 747.143 361.528C747.355 360.57 747.81 359.481 748.509 358.262C747.46 357.559 746.439 356.721 745.445 355.747C745.987 355.213 746.424 354.687 746.755 354.169C745.676 351.458 744.891 349.59 744.398 348.566L746.191 347.822C746.253 347.891 746.305 348.005 746.349 348.165C746.443 348.354 746.501 348.488 746.522 348.568L752.996 346.812L753.452 348.49L747.218 350.182C747.272 350.381 747.393 350.67 747.581 351.048C747.436 350.83 747.447 350.87 747.614 351.168L755.646 348.989L754.784 345.812L756.582 345.324L758.485 352.337L756.687 352.825L756.134 350.787L753.197 351.584L753.441 352.483C755.201 353.121 757.362 353.414 759.922 353.363Z" fill="#2C4681"/>
<path d="M754.598 369.761L755.82 371.097C755.091 371.879 754.334 372.624 753.549 373.333L752.29 371.814C753.084 371.146 753.853 370.461 754.598 369.761ZM756.132 369.512L758.019 369.129L758.81 373.025L760.636 372.654L761.032 374.601L759.206 374.972L759.515 376.494L757.628 376.877L757.319 375.356L752.693 376.295C751.273 376.584 750.39 376.087 750.045 374.805C749.815 373.88 749.63 373.072 749.49 372.383C749.685 372.301 749.936 372.186 750.244 372.039C750.747 371.81 751.112 371.631 751.339 371.5C751.422 372.117 751.542 372.811 751.698 373.582C751.814 374.15 752.176 374.372 752.784 374.249L756.923 373.408L756.132 369.512ZM761.779 376.097L759.504 364.898C757.881 365.228 756.806 365.446 756.278 365.553C755.589 365.693 755.077 365.776 754.744 365.801C756.314 366.454 758.016 366.932 759.852 367.236L759.663 369.112C759.314 369.056 758.786 368.952 758.079 368.8C757.851 368.719 757.672 368.671 757.542 368.655L749.082 370.374L748.699 368.487L753.933 367.424C753.6 367.238 753.25 367.077 752.884 366.94C753.071 366.817 753.35 366.634 753.723 366.389C754.096 366.144 754.355 365.965 754.501 365.851C751.774 366.363 749.618 366.357 748.033 365.834C748.437 365.118 748.764 364.439 749.013 363.797C750.647 364.352 752.921 364.313 755.834 363.679L760.825 362.665L761.913 368.021C762.213 367.833 762.472 367.654 762.691 367.483L763.721 369.745C763.316 370.039 762.887 370.316 762.433 370.577L763.483 375.751L761.779 376.097Z" fill="#2C4681"/>
<path d="M756.386 385.248L756.791 388.139L758.206 387.94L757.801 385.05L756.386 385.248ZM759.805 387.716L761.22 387.518L760.814 384.627L759.4 384.825L759.805 387.716ZM764.944 380.535L765.888 382.347C765.255 382.896 764.542 383.477 763.75 384.09L762.665 382.172C763.58 381.542 764.34 380.996 764.944 380.535ZM751.101 380.658L763.464 378.924L763.749 380.954L751.386 382.688L751.101 380.658ZM766.575 392.16L755.565 393.705C754.253 393.889 753.387 393.529 752.968 392.626C752.776 392.152 752.548 390.971 752.283 389.085C752.969 388.905 753.584 388.672 754.129 388.387C754.175 389.008 754.266 389.81 754.404 390.794C754.496 391.45 754.829 391.738 755.404 391.658L764.507 390.381L763.696 384.599L765.479 384.349L766.575 392.16ZM753.667 383.748L762.155 382.557L763.078 389.139L755.39 390.217L754.725 385.481L753.926 385.593L753.667 383.748Z" fill="#2C4681"/>
<path d="M761.914 403.299L759.932 403.459L760.212 406.926L762.193 406.766L761.914 403.299ZM764.05 406.617L765.969 406.462L765.69 402.995L763.771 403.15L764.05 406.617ZM758.137 403.603L756.156 403.763L756.435 407.23L758.416 407.07L758.137 403.603ZM753.851 396.035L755.622 395.581C755.825 396.562 756.136 398.094 756.553 400.179C756.621 400.506 756.682 400.75 756.736 400.912C756.654 400.919 756.53 400.929 756.365 400.942C756.155 400.918 756.009 400.908 755.927 400.915L755.991 401.72L764.349 401.047C762.444 400.079 760.77 399.154 759.328 398.274C759.457 398.845 759.604 399.643 759.77 400.668C759.777 400.751 759.782 400.812 759.785 400.854C759.121 400.866 758.539 400.85 758.037 400.808C757.586 398.31 757.26 396.841 757.059 396.4L758.732 395.518C759.061 395.99 760.031 396.68 761.641 397.589C761.52 396.602 761.386 395.969 761.239 395.69L762.922 394.931C763.296 395.441 764.937 396.223 767.847 397.276L767.253 399.193C766.996 399.089 766.628 398.911 766.151 398.659C765.461 398.341 764.487 397.858 763.23 397.212C763.26 397.583 763.314 397.994 763.392 398.445C763.958 398.773 764.563 399.057 765.205 399.296L764.535 401.032L767.383 400.803L767.991 408.356L756.6 409.273L756.674 410.202L754.879 410.346L754.111 400.812L754.916 400.747C754.835 400.255 754.67 399.5 754.422 398.482C754.171 397.422 753.98 396.606 753.851 396.035Z" fill="#2C4681"/>
<path d="M758.942 422.306L759.839 424.031C758.405 425.006 757.032 425.939 755.721 426.829L754.573 424.922C756.091 424.069 757.548 423.197 758.942 422.306ZM762.069 419.771L762.132 423.746L766.231 423.681L766.168 419.706L762.069 419.771ZM759.827 419.372L758.861 421.127C756.855 419.999 755.35 419.07 754.344 418.341C754.385 418.299 754.426 418.257 754.466 418.215C754.75 417.837 755.114 417.273 755.558 416.52C755.725 416.642 755.872 416.764 755.998 416.886C755.639 415.111 755.367 413.624 755.182 412.426L757.039 412.024C757.087 412.438 757.181 413.119 757.32 414.07C757.547 415.35 757.708 416.341 757.802 417.044C757.056 417.014 756.497 417.002 756.124 417.008C756.88 417.659 758.114 418.447 759.827 419.372ZM764.215 414.085C764.22 414.374 764.225 414.726 764.232 415.14C764.358 415.221 764.587 415.342 764.921 415.502C765.339 415.744 765.653 415.925 765.861 416.046L765.141 417.611C763.386 416.645 761.86 415.737 760.563 414.888C760.611 415.301 760.704 415.962 760.843 416.871C760.751 416.293 760.773 416.396 760.91 417.181C760.413 417.147 759.791 417.095 759.044 417.024C758.811 415.413 758.561 414.009 758.294 412.812L759.9 412.227C760.406 412.799 761.286 413.448 762.54 414.173C762.484 413.305 762.413 412.747 762.327 412.499L763.995 411.914C764.834 412.605 766.462 413.428 768.879 414.383L768.224 416.195C766.848 415.596 765.512 414.892 764.215 414.085ZM760.175 417.814L768 417.689L768.126 425.638L760.301 425.763L760.175 417.814Z" fill="#2C4681"/>
<path d="M501.091 594.729C606.553 639.494 728.337 590.291 773.103 484.829C817.868 379.367 768.665 257.584 663.203 212.818C557.741 168.052 103.196 141.049 58.4303 246.511C13.6644 351.973 395.63 549.963 501.091 594.729Z" fill="url(#paint0_linear_859_20865)"/>
<defs>
<linearGradient id="paint0_linear_859_20865" x1="824.889" y1="394.159" x2="408.768" y2="390.443" gradientUnits="userSpaceOnUse">
<stop stop-color="#004DFF" stop-opacity="0.18"/>
<stop offset="1" stop-color="#1A50CC" stop-opacity="0"/>
</linearGradient>
</defs>
</svg>
