<svg width="874" height="874" viewBox="0 0 874 874" fill="none" xmlns="http://www.w3.org/2000/svg">
<circle opacity="0.6" cx="436.899" cy="436.899" r="309.6" transform="rotate(-50 436.899 436.899)" fill="url(#paint0_linear_868_17179)"/>
<path d="M507.981 179.639C509.385 178.026 510.531 175.886 511.417 173.218L507.899 172.309C507.415 174.949 507.442 177.393 507.981 179.639ZM503.352 175.382L502.97 176.863L500.47 176.217L499.226 181.032C500.262 181.102 501.351 181.218 502.494 181.382C502.321 181.798 502.053 182.453 501.69 183.347C502.992 182.893 504.218 182.354 505.367 181.729C504.888 179.762 504.695 177.704 504.789 175.555C504.711 175.601 504.595 175.67 504.44 175.761C504.284 175.853 504.066 176.06 503.785 176.382C503.618 176.01 503.474 175.676 503.352 175.382ZM508.692 165.798L511.556 167.328C511.337 167.666 511.016 168.143 510.594 168.758C510.297 169.143 510.086 169.45 509.961 169.681L516.442 171.355L515.676 174.318L514.195 173.935C512.96 177.699 511.297 180.693 509.208 182.919C510.032 184.317 511.135 185.655 512.516 186.934C511.724 187.453 510.845 188.181 509.879 189.116C508.758 188.103 507.648 186.664 506.549 184.8C504.811 185.668 502.911 186.395 500.85 186.982C500.55 185.851 500.178 184.866 499.737 184.028C495.288 183.405 492.191 183.033 490.445 182.912L490.816 179.946C490.955 179.916 491.148 179.933 491.395 179.997C491.72 180.015 491.944 180.04 492.067 180.071L494.65 170.072L497.242 170.742L494.755 180.371C495.064 180.45 495.543 180.508 496.192 180.544C495.79 180.572 495.851 180.588 496.377 180.592L499.582 168.186L494.675 166.918L495.392 164.14L506.225 166.939L505.507 169.716L502.359 168.903L501.187 173.44L502.576 173.798C504.771 171.929 506.81 169.262 508.692 165.798Z" fill="#2C4681"/>
<path d="M525.59 185.467L528.325 184.925C528.772 186.508 529.149 188.1 529.455 189.7L526.45 190.145C526.204 188.566 525.917 187.007 525.59 185.467ZM526.488 183.249L527.49 180.459L533.25 182.528L534.219 179.828L537.099 180.862L536.13 183.562L538.38 184.37L537.378 187.16L535.128 186.352L532.672 193.192C531.918 195.292 530.559 196.057 528.596 195.487C527.194 195.052 525.984 194.651 524.964 194.285C525.011 193.963 525.061 193.541 525.114 193.018C525.214 192.173 525.269 191.549 525.278 191.146C526.156 191.529 527.165 191.926 528.305 192.335C529.145 192.637 529.727 192.337 530.05 191.437L532.248 185.318L526.488 183.249ZM539.665 181.072L523.106 175.126C522.244 177.526 521.673 179.116 521.393 179.896C521.026 180.916 520.727 181.655 520.495 182.113C522.607 180.569 524.596 178.709 526.461 176.534L528.78 178.281C528.428 178.696 527.869 179.309 527.104 180.118C526.817 180.353 526.61 180.55 526.486 180.708L521.994 193.218L519.204 192.216L521.983 184.476C521.472 184.767 520.981 185.099 520.508 185.471C520.496 185.128 520.478 184.613 520.453 183.927C520.429 183.241 520.399 182.756 520.366 182.473C518.862 186.472 517.133 189.305 515.179 190.974C514.559 189.871 513.926 188.899 513.28 188.057C515.316 186.35 517.079 183.325 518.57 178.984L521.22 171.604L529.14 174.448C529.133 173.903 529.104 173.419 529.053 172.994L532.854 173.444C532.917 174.212 532.939 174.999 532.92 175.805L540.57 178.552L539.665 181.072Z" fill="#2C4681"/>
<path d="M545.57 186.846L543.82 186.982L546.075 188.03C547.252 187.312 548.314 186.54 549.26 185.714L544.838 183.658C545.217 184.96 545.461 186.022 545.57 186.846ZM543.911 197.674L545.12 195.073L540.611 192.977L539.402 195.578L543.911 197.674ZM537.87 198.873L535.355 197.704L539.145 189.553L548.77 194.028L545.02 202.092L542.419 200.883L542.943 199.756L538.434 197.659L537.87 198.873ZM553.603 184.992L552.555 187.246L549.867 185.997L551.592 187.958C550.864 188.464 550.037 188.958 549.11 189.441L551.538 190.569L550.489 192.824L538.957 187.462L540.005 185.208L542.433 186.337C542.398 186.109 542.345 185.769 542.275 185.314C542.17 184.633 542.07 184.094 541.973 183.697L544.491 183.497L541.89 182.288L542.938 180.033L546.927 181.888C547.076 181.113 547.127 180.399 547.08 179.744L550.443 180.675C550.34 181.049 550.242 181.636 550.151 182.438C550.105 182.838 550.071 183.139 550.048 183.339L553.603 184.992ZM557.337 194.426C558.265 196.966 558.259 199.248 557.318 201.272C556.351 203.353 554.888 204.079 552.931 203.45C552.557 203.347 551.908 203.08 550.983 202.65C551.382 201.64 551.666 200.577 551.833 199.46C552.385 199.786 552.776 200.003 553.007 200.111C553.816 200.487 554.409 200.271 554.785 199.461C555.511 197.9 555.425 195.892 554.528 193.436C556.028 192.025 557.54 190.513 559.063 188.901L556.895 187.893L549.114 204.628L546.426 203.378L555.335 184.215L563.053 187.803L562.126 189.797C561.599 190.326 560.46 191.414 558.71 193.061C558.157 193.647 557.699 194.102 557.337 194.426Z" fill="#2C4681"/>
<path d="M569.436 191.049L572.445 191.582C572.48 193.298 572.395 195.092 572.192 196.965L568.887 196.371C569.187 194.333 569.37 192.559 569.436 191.049ZM584.277 200.339L575.964 214.642C574.875 216.516 573.446 217.197 571.679 216.686C571.064 216.476 569.295 215.522 566.374 213.824C566.753 212.791 567.034 211.737 567.216 210.663C568.341 211.391 569.483 212.091 570.64 212.764C571.963 213.533 572.945 213.366 573.585 212.264L579.929 201.351L572.736 197.17L574.274 194.525L584.277 200.339ZM556.219 207.7L565.637 191.496L568.531 193.178L559.112 209.382L556.219 207.7Z" fill="#2C4681"/>
<path d="M587.995 221.415C587.74 219.355 587.803 217.287 588.185 215.211C586.017 217.268 583.667 218.921 581.134 220.17C583.625 220.848 585.912 221.263 587.995 221.415ZM593.034 217.137L594.698 214.8L598.141 213.26L592.922 209.545C592.774 209.753 592.563 209.994 592.289 210.269C592.104 210.529 591.975 210.71 591.901 210.814C591.033 214.892 590.839 218.353 591.318 221.198C593.185 220.883 594.874 220.325 596.384 219.522L593.034 217.137ZM587.234 205.498L588.953 203.082L602.977 213.063L601.59 215.011L597.581 216.852L601.242 219.458L599.967 221.25C597.531 222.803 594.962 223.83 592.257 224.331C593.098 226.338 594.365 228.296 596.058 230.205C595.021 230.562 593.955 231.016 592.859 231.567C591.203 229.605 589.839 227.344 588.768 224.781C586.47 224.711 583.98 224.308 581.296 223.571C581.317 222.882 581.237 221.73 581.056 220.115C580.071 220.509 579.016 220.893 577.89 221.265C577.629 219.983 577.338 218.798 577.017 217.709C581.862 216.619 586.151 213.451 589.885 208.205L590.273 207.66L587.234 205.498Z" fill="#2C4681"/>
<path d="M609.551 225.4L612.652 225.167C612.796 225.88 612.991 226.972 613.237 228.446C613.435 229.877 613.585 230.974 613.688 231.735C615.611 231.455 617.506 231.109 619.374 230.697L620.291 233.883C618.25 234.398 616.175 234.757 614.066 234.961C614.331 237.292 614.617 239.598 614.924 241.881L611.335 241.947C611.281 241.227 611.197 240.104 611.082 238.575C610.974 237.137 610.869 236.037 610.767 235.276C608.339 235.459 605.943 235.458 603.579 235.274C603.622 234.638 603.582 233.51 603.461 231.892C605.825 232.076 608.135 232.129 610.389 232.05C610.179 229.851 609.899 227.634 609.551 225.4ZM610.582 222.882L601.414 233.538L614.825 245.075L612.954 247.25L597.079 233.592L610.113 218.441L625.481 231.663L623.485 233.982L610.582 222.882Z" fill="#2C4681"/>
<path d="M626.525 250.369L629.131 247.836L627.931 246.602L625.325 249.134L626.525 250.369ZM622.15 248.886L627.842 243.355L632.374 248.018L626.682 253.549L622.15 248.886ZM629.214 242.022L631.271 240.023L636.403 245.303C637.088 244.637 637.843 243.903 638.666 243.104L640.732 245.23C640.457 245.496 640.068 245.919 639.564 246.498C639.107 246.942 638.764 247.275 638.535 247.497L640.001 249.006C640.05 248.781 640.099 248.467 640.15 248.062C640.249 247.432 640.323 247.005 640.371 246.78L642.729 247.422C642.677 247.917 642.622 248.593 642.565 249.449C642.47 249.808 642.421 250.078 642.418 250.258L640.735 249.76L642.267 251.338L640.21 253.337L636.545 249.565C634.669 251.477 633.203 253.079 632.148 254.371C633.87 253.765 635.504 252.977 637.051 252.007L638.301 254.392C635.529 255.93 632.629 257.016 629.599 257.649C628.721 259.124 628.438 260.021 628.749 260.341C629.016 260.616 630.04 259.886 631.823 258.154C632.304 259.197 632.722 259.947 633.076 260.403C630.15 263.247 627.999 263.96 626.621 262.543C625.555 261.445 625.373 259.978 626.076 258.139C625.761 258.09 625.31 258.083 624.723 258.12C623.686 258.15 622.92 258.139 622.425 258.087C622.62 257.008 622.724 256.063 622.736 255.251C622.157 254.747 621.153 253.989 619.725 252.977C619.191 252.518 618.79 252.197 618.522 252.013L619.28 251.009C617.631 249.678 616.004 248.37 614.399 247.085L616.322 245.084C616.813 245.406 617.281 245.796 617.725 246.253L623.76 240.389L622.627 239.223L624.684 237.223L625.817 238.389L630.069 234.257L632.135 236.383L627.883 240.515L628.749 241.407L626.692 243.406L625.826 242.514L620.134 248.046C620.313 248.139 620.558 248.3 620.871 248.53C621.139 248.714 621.339 248.875 621.472 249.012C621.244 249.234 620.924 249.545 620.512 249.945C621.047 250.403 621.804 251.045 622.784 251.871C624.343 253.2 625.479 254.141 626.193 254.692C625.964 254.914 625.735 255.181 625.505 255.494C625.685 255.496 625.91 255.499 626.181 255.503C626.497 255.463 626.971 255.402 627.604 255.321C628.891 253.536 631.183 250.909 634.479 247.439L629.214 242.022Z" fill="#2C4681"/>
<path d="M643.721 254.811L644.834 256.494C643.812 257.155 642.347 258.133 640.442 259.426C639.856 259.817 639.419 260.087 639.131 260.238C639.04 259.82 638.783 259.249 638.362 258.524C638.322 258.475 638.302 258.45 638.302 258.45C640.337 257.216 642.144 256.003 643.721 254.811ZM648.706 253.982L650.628 256.363L648.173 258.345C648.535 259.2 648.778 260.11 648.902 261.075L646.247 261.744C646.266 261.565 646.25 261.291 646.198 260.923C646.196 260.515 646.16 260.216 646.09 260.027L633.367 270.3L631.445 267.919L648.706 253.982ZM635.118 271.099L637.276 269.356L641.181 274.192L644.454 271.549L641.27 267.606L643.577 265.744L646.76 269.687L649.96 267.104L648.278 265.02C646.946 265.604 645.714 266.107 644.581 266.531C644.499 266.023 644.376 265.262 644.212 264.247C644.161 263.879 644.12 263.625 644.089 263.486C646.624 262.668 649.177 261.467 651.749 259.882L653.402 262.234C652.538 262.686 651.719 263.143 650.944 263.605L652.266 265.241L655.614 262.538L657.596 264.993L654.248 267.697L657.192 271.342L654.886 273.204L651.942 269.559L648.743 272.142L651.626 275.713L649.32 277.575L646.437 274.004L643.163 276.648L646.587 280.888L644.43 282.63L635.118 271.099Z" fill="#2C4681"/>
<path d="M661.253 293.458C663.375 293.199 665.658 292.374 668.102 290.984L666.095 287.955C663.969 289.593 662.355 291.428 661.253 293.458ZM660.66 287.197L659.385 288.042L657.959 285.89L653.814 288.636C654.536 289.381 655.268 290.196 656.008 291.082C655.601 291.276 654.963 291.583 654.096 292.005C655.367 292.539 656.639 292.958 657.911 293.263C658.871 291.48 660.105 289.821 661.612 288.287C661.524 288.269 661.391 288.242 661.214 288.206C661.038 288.171 660.737 288.179 660.313 288.23C660.437 287.842 660.553 287.497 660.66 287.197ZM671.04 283.646L672.146 286.699C671.756 286.804 671.199 286.944 670.474 287.119C669.996 287.206 669.633 287.293 669.385 287.381L673.083 292.961L670.532 294.651L669.687 293.376C666.251 295.346 663.012 296.46 659.97 296.716C659.647 298.307 659.572 300.039 659.743 301.914C658.807 301.77 657.666 301.722 656.322 301.772C656.168 300.268 656.305 298.456 656.736 296.336C654.863 295.818 652.964 295.087 651.04 294.145C651.573 293.103 651.956 292.123 652.188 291.204C649.299 287.766 647.245 285.417 646.029 284.159L648.289 282.202C648.412 282.273 648.545 282.415 648.685 282.628C648.915 282.858 649.064 283.027 649.135 283.133L657.744 277.429L659.223 279.661L650.933 285.154C651.109 285.419 651.426 285.783 651.884 286.244C651.567 285.995 651.602 286.049 651.99 286.403L662.672 279.326L659.872 275.101L662.264 273.516L668.444 282.843L666.052 284.428L664.256 281.717L660.35 284.305L661.142 285.501C664.024 285.58 667.324 284.962 671.04 283.646Z" fill="#2C4681"/>
<path d="M670.058 308.881L672.456 310.304C671.732 311.781 670.95 313.217 670.11 314.613L667.576 312.938C668.446 311.599 669.274 310.247 670.058 308.881ZM672.207 307.83L674.816 306.421L677.723 311.807L680.247 310.444L681.701 313.137L679.177 314.5L680.312 316.603L677.704 318.011L676.568 315.908L670.173 319.36C668.21 320.42 666.687 320.083 665.606 318.348C664.853 317.088 664.22 315.982 663.705 315.028C663.955 314.82 664.274 314.539 664.662 314.185C665.301 313.623 665.758 313.195 666.034 312.901C666.432 313.773 666.919 314.742 667.494 315.807C667.918 316.593 668.551 316.758 669.393 316.304L675.115 313.215L672.207 307.83ZM683.471 315.006L675.113 299.524C672.869 300.735 671.382 301.538 670.653 301.931C669.699 302.446 668.983 302.797 668.504 302.983C671.108 303.243 673.83 303.186 676.671 302.812L677.231 305.661C676.691 305.735 675.866 305.818 674.757 305.91C674.386 305.893 674.101 305.902 673.902 305.937L662.206 312.251L660.797 309.643L668.034 305.736C667.46 305.611 666.872 305.53 666.272 305.492C666.492 305.228 666.822 304.833 667.262 304.305C667.702 303.778 668.003 303.398 668.167 303.165C664.378 305.137 661.199 306.093 658.63 306.031C658.905 304.796 659.083 303.649 659.164 302.591C661.82 302.679 665.152 301.605 669.161 299.368L676.06 295.643L680.058 303.048C680.416 302.637 680.718 302.257 680.964 301.907L683.492 304.78C683.027 305.394 682.518 305.994 681.966 306.582L685.827 313.735L683.471 315.006Z" fill="#2C4681"/>
<path d="M678.799 329.965L680.561 334.1L682.584 333.238L680.822 329.103L678.799 329.965ZM684.872 332.263L686.895 331.401L685.133 327.266L683.11 328.128L684.872 332.263ZM689.631 319.528L691.761 321.843C691.039 322.913 690.212 324.062 689.28 325.291L686.9 322.875C688.007 321.571 688.918 320.456 689.631 319.528ZM669.103 325.262L686.785 317.727L688.022 320.63L670.34 328.165L669.103 325.262ZM696.717 336.154L680.97 342.865C679.094 343.665 677.663 343.478 676.677 342.304C676.201 341.675 675.389 340.012 674.239 337.314C675.186 336.772 676.007 336.179 676.703 335.536C677.02 336.441 677.478 337.597 678.078 339.004C678.478 339.943 679.088 340.237 679.909 339.887L692.929 334.338L689.404 326.069L691.956 324.982L696.717 336.154ZM674.156 328.826L686.295 323.652L690.307 333.065L679.311 337.751L676.424 330.978L675.28 331.465L674.156 328.826Z" fill="#2C4681"/>
<path d="M693.66 354.318L690.748 355.256L692.39 360.353L695.302 359.415L693.66 354.318ZM698.033 358.536L700.854 357.627L699.213 352.53L696.391 353.438L698.033 358.536ZM688.108 356.106L685.195 357.045L686.837 362.142L689.75 361.204L688.108 356.106ZM679.015 346.277L681.508 344.971C682.159 346.369 683.165 348.557 684.526 351.534C684.743 352 684.921 352.344 685.059 352.568C684.938 352.607 684.756 352.665 684.513 352.743C684.19 352.781 683.968 352.819 683.847 352.858L684.228 354.041L696.516 350.083C693.318 349.305 690.483 348.51 688.012 347.698C688.407 348.509 688.909 349.653 689.519 351.131C689.559 351.252 689.588 351.343 689.607 351.404C688.617 351.656 687.738 351.839 686.971 351.952C685.415 348.368 684.407 346.281 683.95 345.692L686.147 343.779C686.806 344.37 688.502 345.062 691.236 345.856C690.706 344.419 690.282 343.518 689.963 343.152L692.219 341.421C692.958 342.053 695.694 342.646 700.426 343.198L700.213 346.28C699.791 346.215 699.177 346.078 698.373 345.868C697.226 345.635 695.597 345.255 693.485 344.73C693.661 345.276 693.887 345.873 694.163 346.521C695.128 346.813 696.133 347.025 697.18 347.156L696.789 349.995L700.976 348.646L704.552 359.751L687.805 365.145L688.245 366.511L685.605 367.361L681.09 353.344L682.273 352.963C681.978 352.254 681.465 351.18 680.733 349.742C679.983 348.242 679.41 347.087 679.015 346.277Z" fill="#2C4681"/>
<path d="M695.029 382.444L696.922 384.763C695.066 386.683 693.29 388.519 691.594 390.273L689.264 387.758C691.286 385.997 693.207 384.225 695.029 382.444ZM698.948 377.643L700.29 383.614L706.448 382.23L705.106 376.259L698.948 377.643ZM695.442 377.745L694.537 380.692C691.16 379.622 688.599 378.694 686.855 377.91C686.903 377.834 686.951 377.758 687 377.682C687.309 377.024 687.68 376.059 688.113 374.785C688.403 374.916 688.663 375.054 688.892 375.198C687.793 372.636 686.916 370.48 686.262 368.733L688.935 367.544C689.137 368.152 689.492 369.15 690.001 370.539C690.745 372.397 691.298 373.841 691.66 374.87C690.527 375.06 689.68 375.217 689.12 375.343C690.463 376.087 692.571 376.887 695.442 377.745ZM700.399 368.398C700.496 368.833 700.615 369.362 700.755 369.984C700.97 370.066 701.354 370.176 701.907 370.313C702.613 370.546 703.142 370.721 703.495 370.838L702.9 373.422C699.952 372.517 697.367 371.627 695.146 370.754C695.348 371.362 695.696 372.33 696.19 373.656C695.87 372.813 695.936 372.962 696.388 374.102C695.628 374.207 694.674 374.324 693.526 374.451C692.67 372.095 691.853 370.057 691.074 368.337L693.311 366.952C694.253 367.655 695.783 368.357 697.9 369.057C697.545 367.765 697.263 366.946 697.054 366.601L699.385 365.195C700.866 365.973 703.579 366.703 707.522 367.385L707.104 370.321C704.841 369.849 702.606 369.208 700.399 368.398ZM695.478 375.286L707.234 372.644L709.918 384.586L698.162 387.228L695.478 375.286Z" fill="#2C4681"/>
<defs>
<linearGradient id="paint0_linear_868_17179" x1="776.195" y1="439.545" x2="190.343" y2="437.979" gradientUnits="userSpaceOnUse">
<stop stop-color="#004DFF" stop-opacity="0.18"/>
<stop offset="1" stop-color="#1A50CC" stop-opacity="0"/>
</linearGradient>
</defs>
</svg>
