<svg width="117" height="18" viewBox="0 0 117 18" fill="none" xmlns="http://www.w3.org/2000/svg">
<path d="M3.11029 11.2499L3.44454 11.3979L2.64391 13.1125L3.38717 14.8455L3.06546 14.9857L2.25994 13.1079L3.11029 11.2499ZM3.79424 11.2581L4.11249 11.406L3.32786 13.1207L4.07112 14.8537L3.74941 14.9939L2.94389 13.1161L3.79424 11.2581Z" fill="white"/>
<path d="M5.57843 11.3289C5.72711 11.5314 5.87146 11.7538 6.00749 11.9961L5.75748 12.116L6.58536 12.1296C6.7331 11.904 6.86557 11.6342 6.9827 11.3241L7.353 11.4302C7.26066 11.6927 7.14478 11.9268 7.01331 12.1367L7.7732 12.1492L7.76714 12.5172L6.46331 12.4957L6.46127 12.6196C6.4501 12.8115 6.42721 12.9871 6.39651 13.1506L7.98829 13.1769L7.98222 13.5448L6.58241 13.5218C6.77041 14.0089 7.26408 14.3971 8.06335 14.6903L7.83345 15.0466C6.99923 14.6888 6.47482 14.2241 6.25215 13.6563C6.17706 13.8431 6.0863 14.0096 5.97994 14.1519C5.70205 14.5074 5.25356 14.776 4.63447 14.9578L4.43198 14.6225C5.05119 14.4326 5.47129 14.1875 5.69627 13.8872C5.77417 13.7725 5.84027 13.6455 5.89451 13.5104L4.52669 13.4879L4.53276 13.1199L6.00456 13.1442C6.03932 12.9767 6.06622 12.8012 6.07732 12.6133L6.07936 12.4893L4.77154 12.4678L4.77761 12.0998L5.63349 12.1139C5.50534 11.8798 5.36872 11.6735 5.2277 11.4912L5.57843 11.3289Z" fill="white"/>
<path d="M8.91444 11.5018L11.9418 11.562L11.9344 11.934L10.6587 11.9086L10.6393 12.8844L12.195 12.9153L12.1874 13.2953L10.6317 13.2643L10.6046 14.6281C10.5991 14.908 10.4482 15.049 10.1563 15.0432L9.52041 15.0306L9.44774 14.6611C9.65146 14.6771 9.84726 14.689 10.0312 14.6927C10.1592 14.6952 10.2244 14.6365 10.2266 14.5245L10.2518 13.2568L8.62814 13.2245L8.63569 12.8446L10.2594 12.8769L10.2788 11.901L8.90705 11.8738L8.91444 11.5018Z" fill="white"/>
<path d="M13.2489 13.2304L13.2256 14.2942C13.5551 14.2294 13.9049 14.153 14.2671 14.0569L14.3594 14.407C13.8646 14.5322 13.3581 14.6372 12.8441 14.7259L12.699 14.4067C12.7962 14.3568 12.8458 14.2819 12.848 14.1819L12.9012 11.7545C13.4028 11.6854 13.861 11.5914 14.2758 11.4685L14.5051 11.7776C14.1466 11.8858 13.7365 11.9768 13.2747 12.0547L13.2569 12.8665L14.3606 12.8907L14.3527 13.2546L13.2489 13.2304ZM15.698 14.6684L15.3221 14.6602L15.2262 14.29L15.5819 14.3058C15.6859 14.3081 15.7392 14.2492 15.7417 14.1373L15.7871 12.0658L14.9992 12.0485L14.9304 15.1917L14.5465 15.1833L14.6232 11.6802L16.1789 11.7143L16.1238 14.2256C16.1173 14.5256 15.974 14.6745 15.698 14.6684Z" fill="white"/>
<path d="M16.839 12.8216L17.1812 11.661L17.5596 11.7335L17.335 12.4687L17.9269 12.482C18.0095 12.1878 18.0765 11.8772 18.1319 11.5504L18.5187 11.6071C18.4636 11.9219 18.397 12.2165 18.3228 12.4909L20.1543 12.5321L20.1461 12.896L18.2186 12.8527C18.1757 12.9837 18.1289 13.1067 18.0862 13.2258L19.6858 13.2618L19.6786 13.5817C19.5672 13.9073 19.3646 14.1988 19.0627 14.4561C19.3629 14.6309 19.7273 14.7951 20.1519 14.9487L19.9479 15.3042C19.468 15.1173 19.0645 14.9122 18.7412 14.6969C18.4204 14.9097 18.028 15.1009 17.564 15.2705L17.3722 14.9061C17.7753 14.7712 18.1228 14.619 18.4106 14.4534C18.1554 14.2396 17.9645 14.0112 17.8418 13.7724C17.5406 14.3578 17.166 14.8215 16.7222 15.1636L16.5342 14.8072C17.097 14.3318 17.5239 13.6772 17.8147 12.8436L16.839 12.8216ZM18.1224 13.5707C18.2491 13.8096 18.4521 14.0342 18.7315 14.2406C18.988 14.0423 19.1769 13.8265 19.2941 13.5971L18.1224 13.5707ZM19.1915 11.5782C19.4628 11.7924 19.69 12.0096 19.8731 12.2257L19.5951 12.4915C19.4398 12.28 19.2207 12.059 18.9299 11.8244L19.1915 11.5782Z" fill="white"/>
<path d="M24.0332 12.0608L24.0137 12.9646L23.6297 12.9563L23.6413 12.4204L20.998 12.3633L20.9864 12.8951L20.6025 12.8868L20.622 11.987L22.1137 12.0193C22.0642 11.9022 22.0105 11.793 21.9487 11.6917L22.3782 11.6289C22.4315 11.7501 22.4847 11.8833 22.5376 12.0285L24.0332 12.0608ZM20.5341 13.0934L21.6418 13.1174C21.7583 12.9118 21.8707 12.7102 21.9791 12.5045L22.3685 12.629C22.2687 12.8028 22.1771 12.9689 22.0897 13.127L24.0852 13.1702L24.0773 13.5381L23.3054 13.5214C23.137 13.9099 22.9582 14.2221 22.7692 14.4501C23.1615 14.6266 23.5611 14.8353 23.9721 15.0682L23.7049 15.3985C23.2982 15.1497 22.891 14.9248 22.4872 14.728C22.0268 15.1101 21.4304 15.3053 20.7022 15.3095L20.4898 14.9529C21.1458 14.9631 21.6808 14.8266 22.095 14.5475C21.7383 14.3877 21.3814 14.244 21.0279 14.1243C21.1686 13.9073 21.3012 13.6941 21.4299 13.4809L20.5261 13.4613L20.5341 13.0934ZM21.8778 13.4905C21.7658 13.6722 21.6622 13.838 21.567 13.9839C21.8372 14.0698 22.1152 14.1678 22.3967 14.286C22.5933 14.0742 22.759 13.8137 22.8895 13.5124L21.8778 13.4905Z" fill="white"/>
<path d="M25.329 11.7032L25.6461 11.8573C25.4498 12.2896 25.1304 12.6756 24.6837 13.0191L24.5786 12.657C24.9118 12.3874 25.162 12.0681 25.329 11.7032ZM25.4234 12.6212L25.7287 12.767C25.6408 12.9734 25.5329 13.1714 25.4053 13.361L25.3661 15.4126L25.0061 15.4057L25.0368 13.802C24.9267 13.9119 24.8126 14.0178 24.6907 14.1194L24.5893 13.7734C24.9636 13.4445 25.243 13.0618 25.4234 12.6212ZM26.2324 11.7405L26.5364 11.7463L26.5236 12.4142L26.7196 12.4179L26.7294 11.906L27.0253 11.9117L27.0098 12.7235L25.726 12.699L25.7415 11.8871L26.0375 11.8928L26.0277 12.4047L26.2197 12.4084L26.2324 11.7405ZM25.6738 12.918L26.9456 12.9423L26.9418 13.1383C27.1128 12.7735 27.2376 12.3158 27.312 11.7731L27.6549 11.8357C27.6232 12.0271 27.5878 12.2025 27.5446 12.3697L28.2445 12.3831L28.2379 12.731L28.1059 12.7285C28.0773 13.384 27.9706 13.9461 27.7937 14.4068C27.9202 14.6973 28.0834 14.9525 28.2791 15.1762L28.038 15.4437C27.8697 15.2484 27.7298 15.0297 27.6143 14.7955C27.4775 15.0449 27.3134 15.2578 27.1261 15.4302L26.9787 15.1874L26.8374 15.2527C26.7729 15.0674 26.7042 14.8981 26.631 14.7486L26.8772 14.6333C26.9391 14.7465 27.0007 14.8717 27.0582 15.0049C27.2134 14.8398 27.3412 14.6382 27.4497 14.4042C27.3283 14.0619 27.2474 13.6882 27.2071 13.2834C27.1449 13.3982 27.0789 13.501 27.0091 13.5957L26.8297 13.3522C26.8463 13.3205 26.8629 13.2928 26.8794 13.2651L26.2715 13.2535L26.4541 13.329C26.3274 13.4706 26.189 13.596 26.0348 13.7091C26.1629 13.7035 26.2951 13.694 26.4233 13.6845L26.5947 13.5077L26.8806 13.6212C26.652 13.8609 26.3958 14.076 26.1081 14.2666C26.3005 14.2462 26.4931 14.2179 26.6817 14.1895C26.6509 14.1249 26.6201 14.0643 26.5892 14.0077L26.8508 13.9247C26.9436 14.0945 27.0281 14.2762 27.0964 14.4695L26.8343 14.5805C26.8115 14.5161 26.7886 14.4556 26.7696 14.4032C26.6893 14.4177 26.609 14.4362 26.5327 14.4507L26.5201 15.1066C26.5163 15.3066 26.4144 15.4046 26.2225 15.401L25.9665 15.3961L25.9044 15.0868C25.9762 15.1002 26.048 15.1096 26.12 15.1109C26.168 15.1119 26.1926 15.0803 26.1937 15.0203L26.2036 14.5044C26.0192 14.5249 25.8387 14.5455 25.6625 14.5581L25.5992 14.3088C25.7976 14.1886 25.98 14.0601 26.1507 13.9233C25.9903 13.9403 25.8341 13.9533 25.6779 13.9583L25.6185 13.7211C25.8131 13.5848 25.9881 13.4281 26.1355 13.2509L25.6676 13.242L25.6738 12.918ZM27.4459 12.7199C27.4615 13.1602 27.5179 13.5574 27.619 13.9194C27.7137 13.5691 27.7694 13.1701 27.7939 12.7225L27.446 12.7159L27.4459 12.7199ZM25.7527 14.6518L26.0023 14.7806C25.9145 14.975 25.8113 15.1451 25.6925 15.2908L25.4519 15.1102C25.5664 14.9803 25.6693 14.8263 25.7527 14.6518Z" fill="white"/>
<path d="M30.2991 11.8035L30.671 11.809L30.6558 12.8289L30.2838 12.8234L30.2991 11.8035ZM29.372 13.6058C29.1955 13.6392 29.019 13.6725 28.8425 13.7019L28.6917 13.3556C29.9024 13.1817 30.8349 12.8916 31.485 12.4853C31.3546 12.3793 31.2161 12.2732 31.0697 12.167L31.3293 11.9269C31.733 12.2169 32.0768 12.5061 32.3525 12.7903L32.0846 13.0543C31.9862 12.9408 31.8759 12.8272 31.7496 12.7133C31.39 12.9519 30.963 13.1535 30.4644 13.3221L31.8802 13.3433L31.8478 15.515L31.4758 15.5095L31.4781 15.3575L29.7143 15.3311L29.7119 15.4911L29.3439 15.4856L29.372 13.6058ZM29.7193 14.9952L31.4831 15.0215L31.4871 14.7536L29.7233 14.7272L29.7193 14.9952ZM29.7278 14.4232L31.4916 14.4496L31.4953 14.2056L29.7315 14.1793L29.7278 14.4232ZM29.736 13.8793L31.4998 13.9057L31.5035 13.6537L29.7397 13.6273L29.736 13.8793ZM29.6677 12.0221L29.9322 12.262C29.6918 12.5505 29.396 12.8021 29.0448 13.0129L28.8291 12.7256C29.1602 12.5225 29.4397 12.2907 29.6677 12.0221Z" fill="white"/>
<path d="M34.018 11.8511L34.39 11.8545L34.3804 12.8745L34.0084 12.871L34.018 11.8511ZM33.101 13.6585C32.9247 13.6929 32.7484 13.7272 32.5721 13.7576L32.4193 13.4121C33.629 13.2315 34.5599 12.9362 35.2077 12.5262C35.0767 12.421 34.9377 12.3157 34.7907 12.2103L35.0489 11.9687C35.4543 12.2565 35.7996 12.5438 36.0769 12.8264L35.8104 13.0919C35.7115 12.979 35.6006 12.8659 35.4736 12.7527C35.1153 12.9934 34.6894 13.1974 34.1918 13.3687L35.6077 13.382L35.5874 15.5539L35.2154 15.5504L35.2168 15.3984L33.4529 15.3819L33.4514 15.5419L33.0834 15.5385L33.101 13.6585ZM33.456 15.0459L35.22 15.0625L35.2225 14.7945L33.4586 14.7779L33.456 15.0459ZM33.4614 14.474L35.2253 14.4905L35.2276 14.2465L33.4637 14.23L33.4614 14.474ZM33.4665 13.93L35.2304 13.9465L35.2328 13.6945L33.4689 13.678L33.4665 13.93ZM33.3879 12.0732L33.6537 12.3117C33.4149 12.6014 33.1206 12.8547 32.7705 13.0674L32.5532 12.7814C32.8831 12.5765 33.1613 12.343 33.3879 12.0732Z" fill="white"/>
<path d="M37.64 14.6763L37.6393 15.0363C37.2871 15.1756 36.8909 15.2869 36.4427 15.37L36.3954 15.0019C36.8676 14.9228 37.2838 14.8116 37.64 14.6763ZM37.1095 11.8713L37.4732 12.016C37.2723 12.4796 37.0716 12.8592 36.863 13.1508C37.019 13.1351 37.1751 13.1194 37.3271 13.0957C37.4034 12.9679 37.4836 12.828 37.5639 12.6802L37.8957 12.8048C37.5465 13.4041 37.2537 13.8436 37.0211 14.1191C37.2732 14.0716 37.5294 14.0041 37.7935 13.9246L37.7928 14.2686C37.3606 14.3958 36.9484 14.483 36.5563 14.5302L36.457 14.186C36.525 14.1622 36.5811 14.1263 36.6292 14.0784C36.7575 13.9546 36.9219 13.7429 37.1185 13.4393C36.9184 13.4669 36.7143 13.4945 36.5063 13.5181L36.411 13.1699C36.471 13.146 36.5231 13.1021 36.5712 13.0342C36.7759 12.6826 36.9567 12.295 37.1095 11.8713ZM38.2045 12.3774L37.8405 12.3767L37.8412 12.0207L39.6492 12.0242L39.6488 12.2602C39.5841 12.5961 39.5235 12.884 39.4631 13.1279L39.9591 13.1288L39.9587 13.3408C39.8696 13.8847 39.6927 14.3443 39.428 14.7118C39.6276 14.9162 39.8592 15.1006 40.1229 15.2612L39.8783 15.5807C39.6146 15.4042 39.387 15.2077 39.1954 14.9913C38.959 15.2349 38.6746 15.4343 38.3463 15.5857L38.135 15.2373C38.4553 15.0859 38.7236 14.8984 38.9401 14.6749C38.7446 14.3945 38.5892 14.0862 38.4779 13.7499C38.3483 14.5257 38.0952 15.1332 37.7183 15.5645L37.4348 15.3159C37.9359 14.7409 38.1937 13.8214 38.2042 12.5494L38.2045 12.3774ZM39.1646 14.4113C39.3651 14.1317 39.5017 13.8159 39.5784 13.4601L39.0264 13.459C39.0949 13.2111 39.1716 12.8513 39.2605 12.3795L38.5725 12.3781L38.5722 12.5501C38.5719 12.7181 38.5635 12.8781 38.5553 13.0301C38.6582 13.5543 38.8613 14.0147 39.1646 14.4113Z" fill="white"/>
<path d="M42.055 12.5222L40.7151 12.5318L40.7125 12.1678L43.7804 12.146L43.783 12.51L42.439 12.5195L42.4563 14.9515L44.0523 14.9401L44.0549 15.3081L40.475 15.3335L40.4724 14.9655L42.0723 14.9542L42.055 12.5222Z" fill="white"/>
<path d="M45.5996 11.8725L45.9795 11.8658L46.0352 15.0093L46.5152 15.0008L46.4594 11.8573L46.8394 11.8505L46.8951 14.994L48.0629 14.9733L48.0695 15.3453L44.5021 15.4085L44.4955 15.0366L45.6553 15.016L45.5996 11.8725ZM47.6004 12.5812L47.9381 12.6712C47.7983 13.3618 47.613 13.9652 47.3822 14.4853L47.0401 14.3714C47.2558 13.9035 47.4452 13.304 47.6004 12.5812ZM44.8567 12.6218C45.0702 13.1541 45.261 13.7628 45.4332 14.4479L45.0868 14.542C44.9397 13.9165 44.7529 13.3117 44.5346 12.7315L44.8567 12.6218Z" fill="white"/>
<path d="M48.9011 11.8359C49.1628 12.0202 49.3805 12.2097 49.5622 12.3964L49.3102 12.668C49.1526 12.4847 48.9307 12.2912 48.6487 12.0915L48.9011 11.8359ZM48.4234 12.9907L49.319 12.9639L49.3695 14.6552C49.4904 14.5475 49.6187 14.4236 49.7586 14.2834L49.8745 14.6801C49.6218 14.9277 49.3523 15.1519 49.0661 15.3485L48.9119 15.009C48.9742 14.9511 49.008 14.8781 49.0055 14.7941L48.962 13.3387L48.4343 13.3545L48.4234 12.9907ZM49.865 13.4238L51.8041 13.3659L51.8145 13.7137C51.7092 14.073 51.5263 14.3826 51.2661 14.6465C51.527 14.8068 51.8434 14.9494 52.2071 15.0666L52.0129 15.4006C51.6084 15.2526 51.271 15.0786 50.9932 14.8868C50.688 15.12 50.3055 15.3115 49.8538 15.4611L49.6323 15.1475C50.0524 15.0109 50.4036 14.8444 50.6858 14.6439C50.406 14.3881 50.2094 14.1018 50.1039 13.7848L49.876 13.7917L49.865 13.4238ZM50.4597 13.7742C50.5589 14.0154 50.7214 14.2306 50.9513 14.4238C51.1614 14.2215 51.3227 13.9966 51.4313 13.7452L50.4597 13.7742ZM50.0988 11.8721L51.5141 11.8299L51.5392 12.6695C51.5418 12.7575 51.5912 12.804 51.6912 12.801L52.043 12.7905L52.0534 13.1384L51.6016 13.1518C51.3178 13.1603 51.1738 13.0286 51.1659 12.7647L51.1489 12.1969L50.4852 12.2168L50.4888 12.3367C50.5012 12.7525 50.299 13.0827 49.886 13.3231L49.6254 13.0388C49.9567 12.8768 50.1223 12.6598 50.1142 12.3879L50.0988 11.8721Z" fill="white"/>
<path d="M53.7238 12.7826L54.7708 12.7371L54.7199 11.5662L55.1115 11.5492L55.1624 12.7201L56.1535 12.677L56.1698 13.0527L55.1787 13.0957L55.2723 15.2497L54.8807 15.2667L54.7871 13.1127L53.7401 13.1582L53.7238 12.7826ZM52.9471 11.6793C53.2154 11.8638 53.4437 12.0501 53.6322 12.2421L53.3839 12.5171C53.2159 12.3362 52.9874 12.146 52.6947 11.9505L52.9471 11.6793ZM52.47 12.8611L53.3931 12.821L53.4671 14.5234C53.5904 14.4139 53.7171 14.2883 53.8512 14.1503L53.968 14.5336C53.7227 14.7845 53.4563 15.0123 53.1727 15.2128L53.0141 14.8794C53.0796 14.8205 53.1126 14.751 53.1092 14.671L53.0453 13.2004L52.4858 13.2247L52.47 12.8611Z" fill="white"/>
<path d="M58.1315 11.3797L58.5228 11.3568L58.5632 12.0476L59.9847 11.9647L60.0973 13.8934L59.718 13.9155L59.7047 13.6879L58.6625 13.7487L58.7406 15.0865L58.3492 15.1093L58.2711 13.7716L57.2329 13.8322L57.2462 14.0598L56.8668 14.0819L56.7542 12.1532L58.1718 12.0705L58.1315 11.3797ZM57.2112 13.4608L58.2495 13.4002L58.1935 12.4419L57.1553 12.5025L57.2112 13.4608ZM58.6408 13.3774L59.683 13.3165L59.6271 12.3582L58.5848 12.419L58.6408 13.3774Z" fill="white"/>
<path d="M63.1915 14.6077L62.3069 14.6853C61.9961 14.7126 61.827 14.5709 61.8004 14.268L61.6024 12.0127L61.981 11.9795L62.172 14.1551C62.1818 14.2667 62.2544 14.3165 62.3899 14.3046L63.0872 14.2434C63.1669 14.2364 63.2192 14.1917 63.2484 14.1128C63.2806 14.0216 63.2893 13.7559 63.2661 13.3082L63.6352 13.3962C63.653 13.9648 63.6226 14.3048 63.5448 14.4241C63.4738 14.5307 63.3548 14.5933 63.1915 14.6077ZM61.0354 12.46L61.4046 12.5039C61.3593 13.2226 61.2578 13.8499 61.1037 14.3814L60.7591 14.2069C60.9115 13.6554 61.0009 13.0734 61.0354 12.46ZM63.7036 12.1173C63.9816 12.631 64.2385 13.1786 64.467 13.7689L64.134 13.9547C63.8853 13.3181 63.6231 12.7548 63.3479 12.2731L63.7036 12.1173ZM62.1861 11.1142C62.5721 11.4859 62.8738 11.8128 63.0917 12.0988L62.7918 12.342C62.5639 12.0327 62.2654 11.6975 61.8924 11.3368L62.1861 11.1142Z" fill="white"/>
<path d="M66.6625 10.6773L67.0438 10.6315C67.0848 10.9731 67.1115 11.2962 67.1229 11.593C67.4467 12.5452 67.8976 13.2807 68.4755 13.7995L68.2436 14.1496C67.7894 13.6885 67.4142 13.1131 67.1139 12.424L67.1007 12.5827C67.0397 13.2829 66.7694 13.8834 66.2906 14.3921L65.9992 14.1128C66.4053 13.6693 66.6415 13.1535 66.7158 12.5644C66.7693 12.0705 66.7501 11.4403 66.6625 10.6773ZM64.9036 10.8924C65.1851 11.0561 65.4269 11.2245 65.6295 11.4016L65.4028 11.6947C65.2215 11.5271 64.9793 11.3547 64.6725 11.1821L64.9036 10.8924ZM64.5176 12.1071L65.4351 11.997L65.6343 13.6571C65.745 13.539 65.8618 13.4042 65.9886 13.252L66.1306 13.6297C65.9045 13.8946 65.6597 14.1375 65.3927 14.3629L65.2092 14.0425C65.27 13.9788 65.2977 13.907 65.2877 13.8236L65.117 12.4018L64.561 12.4685L64.5176 12.1071Z" fill="white"/>
<path d="M69.175 11.4932L71.5277 11.1613L71.578 11.5178L70.6036 11.6552L70.6874 12.2494L71.8281 12.0885L71.8784 12.4449L70.7377 12.6058L70.8405 13.3346C71.1154 13.3362 71.4469 13.3097 71.8436 13.2578C72.0416 13.2298 72.2459 13.1889 72.4496 13.144L72.4308 13.5264L72.0585 13.5789C71.2268 13.6962 70.6181 13.7053 70.2404 13.6051C69.9701 13.522 69.7396 13.3768 69.5487 13.1694C69.4429 13.5075 69.2947 13.8031 69.1042 14.0562L68.8162 13.7898C69.1338 13.3491 69.3135 12.7905 69.3487 12.1231L69.722 12.1351C69.7069 12.3715 69.6782 12.5977 69.6388 12.8053C69.8685 13.0879 70.1307 13.257 70.4202 13.305L70.457 13.3079L70.2313 11.7077L69.2253 11.8496L69.175 11.4932ZM71.898 10.3214L72.0248 11.2205L71.6565 11.2724L71.5788 10.7219L68.9964 11.0861L69.0768 11.6565L68.7085 11.7084L68.5789 10.7895L70.0681 10.5795C69.9948 10.4606 69.9152 10.3546 69.8373 10.2606L70.2324 10.1402C70.3052 10.2552 70.3796 10.382 70.4523 10.5253L71.898 10.3214Z" fill="white"/>
<path d="M75.3389 10.9993L75.4682 11.8293L73.5434 12.1291L73.576 12.3386L75.6866 12.0099L75.851 13.0651L75.4755 13.1236L75.4533 12.9813L73.7182 13.2516L73.7398 13.3899L73.3643 13.4484L73.0387 11.3576L75.3389 10.9993ZM73.6665 12.9196L75.4016 12.6493L75.3573 12.3648L73.6222 12.635L73.6665 12.9196ZM73.4966 11.8287L75.0539 11.5862L75.0182 11.357L73.4609 11.5995L73.4966 11.8287ZM75.8074 10.4203L75.925 11.1752L75.5574 11.2325L75.4891 10.7938L72.8252 11.2087L72.8935 11.6474L72.526 11.7046L72.4084 10.9497L73.938 10.7115C73.894 10.6374 73.8474 10.5718 73.802 10.5141L74.1253 10.407L74.0514 10.374C74.1962 10.1086 74.2912 9.83469 74.3278 9.54967L74.6998 9.5727C74.6865 9.64358 74.6766 9.7099 74.6628 9.77683L75.7615 9.6057L75.8126 9.93375L75.1684 10.0341C75.2451 10.1112 75.3101 10.1901 75.3659 10.2624L75.0529 10.4366C74.97 10.32 74.8752 10.2052 74.7692 10.0963L74.5676 10.1277C74.5207 10.2685 74.4647 10.4028 74.399 10.5264L74.1902 10.4334C74.2329 10.4996 74.2728 10.5743 74.3174 10.6524L75.8074 10.4203ZM72.8681 10.3923C72.8033 10.5482 72.7294 10.6973 72.6457 10.8359L72.2856 10.6814C72.4767 10.4007 72.5969 10.1067 72.6514 9.80672L73.0234 9.82975C73.0101 9.90063 72.9929 9.97213 72.9791 10.0391L73.975 9.88394L74.0261 10.212L73.4333 10.3043C73.5198 10.392 73.5978 10.4771 73.6594 10.5606L73.3359 10.7446C73.2465 10.6127 73.1499 10.4861 73.042 10.3653L72.8681 10.3923Z" fill="white"/>
<path d="M77.7721 9.14639L79.7682 8.81153L80.0845 10.6972L79.2758 10.8328L79.342 11.2273L80.202 11.0831L80.2602 11.4302L79.4002 11.5745L79.4691 11.9848L80.4671 11.8173L80.5273 12.1763L78.1407 12.5767L78.0805 12.2177L79.0982 12.047L79.0294 11.6367L78.1655 11.7816L78.1073 11.4345L78.9712 11.2895L78.905 10.8951L78.0884 11.032L77.7721 9.14639ZM79.67 10.426L79.5945 9.97632L79.1448 10.0518L79.2202 10.5015L79.67 10.426ZM78.8494 10.5637L78.774 10.114L78.3164 10.1907L78.3918 10.6405L78.8494 10.5637ZM78.2621 9.86726L78.7197 9.79049L78.6443 9.34077L78.1867 9.41754L78.2621 9.86726ZM79.0151 9.27857L79.0905 9.72828L79.5402 9.65284L79.4648 9.20312L79.0151 9.27857ZM76.6288 10.6726L77.0194 10.6071L76.8778 9.76285L76.428 9.83829L76.3685 9.48325L77.6427 9.2695L77.7022 9.62454L77.2565 9.69932L77.3981 10.5435L77.7965 10.4767L77.8567 10.8357L77.4583 10.9025L77.5907 11.6915C77.7168 11.6216 77.8391 11.5525 77.9561 11.4761L78.0169 11.839C77.6778 12.0419 77.3117 12.229 76.9141 12.3971L76.7631 12.0534C76.9242 11.998 77.08 11.9353 77.2311 11.8694L77.0796 10.966L76.6891 11.0316L76.6288 10.6726Z" fill="white"/>
<path d="M80.856 9.93758L81.2098 10.0089C81.1629 10.5007 81.057 10.8891 80.889 11.1788L80.5661 10.9842C80.7276 10.7037 80.8247 10.3575 80.856 9.93758ZM81.4236 8.39492L81.8017 8.32793L81.9315 9.06053L83.1761 8.84004C83.2171 9.11714 83.2585 9.37385 83.2925 9.61157L83.5301 9.43948C83.7741 9.76186 84.0204 10.1204 84.2658 10.5197L83.9524 10.7458C83.7423 10.385 83.5259 10.0577 83.3125 9.77051C83.3484 10.0648 83.3787 10.3275 83.402 10.5509C83.438 10.9832 83.424 11.2944 83.3641 11.4838C83.3028 11.6652 83.1725 11.7777 82.9744 11.829L82.5136 11.9107L82.347 11.5665C82.4823 11.5506 82.609 11.5322 82.7272 11.5113C82.9202 11.4771 83.0264 11.3202 83.0473 11.0484C83.0615 10.7615 82.9969 10.1676 82.8582 9.27008L81.9799 9.42567C82.0515 10.0589 82.0319 10.5905 81.9212 11.0204C81.7924 11.486 81.5123 11.8768 81.0855 12.1962L80.8227 11.9055C81.2278 11.5779 81.4792 11.2083 81.5776 10.8009C81.6508 10.4345 81.6589 9.99845 81.6018 9.49266L80.6644 9.65872L80.6002 9.29636L81.5534 9.12751L81.4236 8.39492Z" fill="white"/>
<path d="M85.9613 7.57056L86.3389 7.5007L86.4488 8.09462L87.4282 7.9134L87.4952 8.27526L86.5158 8.45647L86.6359 9.10546L87.7214 8.9046L87.7884 9.26646L86.5101 9.50298C86.3834 10.0715 86.2588 10.4973 86.1323 10.781C86.5562 10.6538 86.9719 10.5037 87.3806 10.3385C87.2391 10.1451 87.0965 9.96805 86.9568 9.80677L87.2968 9.62182C87.6017 9.9722 87.8833 10.3513 88.1394 10.7677L87.8145 10.9905C87.7386 10.8662 87.6635 10.7459 87.5905 10.6373C87.0256 10.8598 86.4051 11.0682 85.7299 11.2664L85.583 10.9559C85.6122 10.9383 85.6376 10.9214 85.6551 10.906C85.7997 10.7205 85.9497 10.2779 86.105 9.57794L85.2357 9.73877L85.1688 9.37691L86.2583 9.17532L86.1382 8.52634L85.2375 8.693L85.1705 8.33114L86.0712 8.16448L85.9613 7.57056ZM84.2601 7.91788C84.5483 8.06796 84.7963 8.22139 85.009 8.38137L84.7917 8.70225C84.608 8.54504 84.3553 8.38841 84.0368 8.22769L84.2601 7.91788ZM84.3321 8.85645C84.6005 9.01017 84.8336 9.17045 85.0352 9.33654L84.8133 9.65422C84.6414 9.49483 84.4076 9.33062 84.1127 9.16553L84.3321 8.85645ZM84.9189 9.89503L85.2826 9.9701C85.2044 10.4931 85.1015 10.9921 84.9778 11.4665L84.5735 11.3705C84.7194 10.8838 84.8356 10.3904 84.9189 9.89503Z" fill="white"/>
<path d="M88.6405 7.03092L88.9902 6.96425C88.8761 7.2629 88.8021 7.55799 88.7681 7.84951C88.7146 8.2099 88.7248 8.56223 88.79 8.90407C88.8544 9.24199 88.9746 9.57334 89.1576 9.89271C89.2958 10.1473 89.4732 10.3945 89.6899 10.6341L89.3402 10.7008C89.1061 10.4767 88.9137 10.2365 88.763 9.98016C88.5776 9.6694 88.4534 9.33879 88.386 8.98516C88.3178 8.62761 88.3109 8.2706 88.3697 7.91732C88.414 7.61569 88.5045 7.32153 88.6405 7.03092Z" fill="white"/>
<path d="M91.9232 8.41437L91.5856 8.48041L91.5173 8.13103L92.5575 7.92754L92.6259 8.27692L92.2883 8.34296L92.4772 9.30866C92.6273 9.24261 92.7766 9.17264 92.9213 9.09951L92.9896 9.44889C92.6665 9.60991 92.3176 9.76376 91.942 9.90652L91.7818 9.56695C91.8965 9.52821 92.0112 9.48947 92.1252 9.44681L91.9232 8.41437ZM93.7813 9.7872C93.64 9.81485 93.4897 9.7342 93.3399 9.55157C93.1659 9.32883 93.0118 9.02066 92.8786 8.631C92.7639 8.29476 92.6503 7.88087 92.5363 7.38146L91.3233 7.61874L91.2527 7.25758L92.4578 7.02184C92.407 6.80354 92.3617 6.57193 92.3156 6.3364L92.6767 6.26575C92.7243 6.50914 92.7689 6.73682 92.819 6.9512L93.5688 6.80453L93.6394 7.16568L92.8975 7.31082C93.0307 7.90836 93.1644 8.38353 93.29 8.73394C93.456 9.1661 93.5916 9.38005 93.7014 9.37894C93.7627 9.3588 93.7802 9.11491 93.7633 8.65357L94.1046 8.83544C94.0746 9.43229 93.9697 9.75035 93.7813 9.7872ZM93.0057 6.19732C93.2059 6.34565 93.363 6.48203 93.4833 6.59707L93.2596 6.82833C93.1362 6.69758 92.9744 6.55805 92.782 6.40819L93.0057 6.19732ZM90.4319 6.7497C90.7129 6.89445 90.9547 7.04687 91.1579 7.2109L90.9534 7.5199C90.7682 7.36458 90.5217 7.209 90.2227 7.05554L90.4319 6.7497ZM90.1246 7.99179L91.0079 7.81901L91.3243 9.43636C91.3969 9.32841 91.4719 9.21184 91.5485 9.08273L91.7235 9.45609C91.5497 9.73463 91.3588 9.98799 91.1468 10.2169L90.9402 9.91091C90.9923 9.84367 91.0153 9.77395 91.0007 9.69936L90.7166 8.24689L90.1945 8.34902L90.1246 7.99179Z" fill="white"/>
<path d="M95.2281 5.99809L97.1415 5.61201L97.2151 5.97666L95.3016 6.36274L95.2281 5.99809ZM95.3278 6.99812L97.5079 6.55823L97.5815 6.92288L96.9698 7.0463L97.3052 8.7088C97.3559 8.95974 97.24 9.11369 96.9616 9.16987L96.3931 9.28458L96.2372 8.93655C96.4207 8.91584 96.5987 8.88808 96.7634 8.85485C96.8771 8.83191 96.9272 8.77691 96.9106 8.69457L96.5934 7.12225L95.4014 7.36277L95.3278 6.99812ZM94.5227 5.94046L94.8955 6.02847C94.7708 6.5025 94.4954 6.95796 94.0632 7.40428L93.8743 7.05473C94.2 6.70744 94.4151 6.33759 94.5227 5.94046ZM94.8882 6.80118L95.257 6.88998C95.1939 7.12308 95.1009 7.34994 94.9781 7.57059L95.369 9.50755L95.0043 9.58113L94.6871 8.00882C94.5704 8.15885 94.4452 8.30654 94.3034 8.45348L94.1193 8.10706C94.503 7.70319 94.7619 7.26737 94.8882 6.80118Z" fill="white"/>
<path d="M97.7781 5.22336L98.1267 5.1514C98.3595 5.36883 98.5555 5.60611 98.7156 5.86714C98.901 6.17195 99.0348 6.50374 99.1084 6.86023C99.1812 7.2128 99.1889 7.56655 99.1401 7.92379C99.0948 8.21903 99.0088 8.51452 98.8819 8.81027L98.5333 8.88223C98.6381 8.57878 98.7077 8.2826 98.742 7.9937C98.7852 7.62944 98.7737 7.27649 98.7041 6.9396C98.6338 6.59878 98.5047 6.27009 98.3215 5.95664C98.1748 5.70102 97.9937 5.45659 97.7781 5.22336Z" fill="white"/>
<path d="M101.37 5.17956L101.944 7.90364L101.588 7.97875L101.545 7.77523L100.927 7.90565L100.994 8.22267L100.638 8.29779L100.039 5.46021L100.411 5.38179C100.437 5.15558 100.446 4.92876 100.43 4.69515L100.812 4.66761C100.819 4.89113 100.802 5.10312 100.767 5.30668L101.37 5.17956ZM100.854 7.56122L101.473 7.4308L101.31 6.65977L100.692 6.79018L100.854 7.56122ZM100.622 6.4575L101.24 6.32708L101.088 5.60692L100.47 5.73734L100.622 6.4575ZM102.273 5.97032C102.599 6.23678 102.857 6.47257 103.045 6.68634L102.795 6.95569C102.592 6.72873 102.328 6.48594 102.011 6.22174L102.273 5.97032ZM103.39 4.75755C103.675 6.10784 103.831 6.94563 103.858 7.267C103.879 7.55706 103.72 7.73758 103.388 7.80774C103.309 7.82425 103.167 7.84614 102.969 7.87567L102.807 7.55414C102.981 7.52565 103.131 7.50211 103.256 7.4757C103.413 7.44268 103.486 7.3415 103.474 7.17217C103.457 6.97152 103.33 6.31151 103.102 5.19439L102.12 5.40158C102.06 5.65952 101.98 5.9012 101.873 6.12826L101.588 5.88177C101.767 5.45156 101.85 4.95566 101.83 4.39573L102.208 4.36511C102.215 4.59254 102.203 4.80762 102.181 5.01261L103.39 4.75755Z" fill="white"/>
<path d="M103.819 4.02754C104.129 4.17712 104.397 4.33601 104.621 4.50032L104.415 4.8151C104.216 4.65353 103.952 4.48987 103.617 4.32499L103.819 4.02754ZM106.826 7.04304C106.611 7.08964 106.375 7.13657 106.124 7.18688C105.869 7.23805 105.657 7.2595 105.484 7.25599C105.318 7.24297 105.161 7.1788 105.014 7.07131C104.945 7.01671 104.892 6.9956 104.845 7.00577C104.763 7.02356 104.66 7.22998 104.537 7.62502L104.208 7.43023C104.335 7.07122 104.468 6.83372 104.607 6.72165L104.367 5.61533L103.844 5.72887L103.769 5.38485L104.641 5.19591L104.961 6.6736C104.984 6.685 105.008 6.70031 105.032 6.71953C105.145 6.8056 105.256 6.86345 105.365 6.89308C105.494 6.9224 105.673 6.9203 105.906 6.87813C106.129 6.83374 106.392 6.78089 106.697 6.7148C106.889 6.67328 107.083 6.62701 107.278 6.58074C107.473 6.53446 107.623 6.4936 107.727 6.46291L107.717 6.84986L106.826 7.04304ZM105.474 4.07396L104.72 4.23748L104.653 3.92865L106.799 3.4635L106.856 3.72542C106.671 3.97002 106.464 4.18674 106.237 4.38339C106.246 4.38951 106.255 4.39173 106.265 4.39785L107.05 4.22755L107.426 5.96325C107.476 6.1939 107.373 6.33914 107.119 6.39421L106.818 6.45945L106.673 6.16756L106.954 6.12304C107.04 6.1044 107.077 6.05124 107.059 5.96523L107.015 5.76586L106.452 5.88787L106.591 6.52898L106.251 6.6027L106.112 5.96158L105.561 6.08105L105.702 6.72998L105.35 6.80623L104.892 4.69525L105.792 4.50037C105.644 4.44233 105.48 4.38377 105.301 4.3325L105.474 4.07396ZM105.972 4.25662C106.118 4.13894 106.251 4.01207 106.369 3.87993L105.494 4.06972C105.662 4.13134 105.823 4.19076 105.972 4.25662ZM105.437 5.50639L105.496 5.78003L106.047 5.66057L105.988 5.38692L105.437 5.50639ZM106.328 5.31321L106.387 5.58686L106.95 5.46485L106.891 5.1912L106.328 5.31321ZM106.825 4.88628L106.765 4.61264L106.202 4.73464L106.262 5.00829L106.825 4.88628ZM105.922 5.082L105.862 4.80836L105.311 4.92782L105.37 5.20147L105.922 5.082Z" fill="white"/>
<path d="M111.145 2.77565L111.825 5.82059L111.466 5.90083L111.416 5.67831L110.733 5.83093L110.784 6.05735L110.425 6.13758L109.743 3.08874L111.145 2.77565ZM110.656 5.4835L111.339 5.33088L110.863 3.20332L110.18 3.35594L110.656 5.4835ZM108.446 3.86638C108.4 4.08162 108.338 4.28387 108.266 4.47225L107.895 4.33773C108.063 3.91496 108.155 3.48057 108.166 3.03541L108.55 3.03151C108.544 3.18857 108.528 3.33567 108.511 3.47886L109.577 3.24078L109.656 3.59602L109.125 3.71463C109.171 3.95841 109.21 4.18744 109.233 4.39957L109.842 4.26352L109.921 4.61877L109.262 4.76615C109.265 4.85553 109.265 4.94577 109.267 5.02733C109.559 5.21617 109.861 5.43146 110.177 5.67233L110.028 6.06644C109.709 5.77698 109.446 5.55297 109.238 5.39441C109.166 5.84094 108.966 6.25029 108.631 6.62032L108.322 6.3777C108.661 5.98641 108.845 5.56016 108.876 5.09415C108.875 5.01649 108.877 4.93406 108.875 4.85249L108.106 5.0243L108.027 4.66906L108.85 4.48504C108.828 4.27291 108.789 4.04387 108.743 3.8001L108.446 3.86638Z" fill="white"/>
<path d="M111.644 2.23185L112.87 3.86609L112.483 5.87235L112.139 5.80392L112.496 3.95236L111.364 2.44406L111.644 2.23185ZM112.31 2.07819L113.537 3.71242L113.149 5.71869L112.805 5.65026L113.162 3.79869L112.015 2.29399L112.31 2.07819Z" fill="white"/>
</svg>
