<svg width="145" height="25" viewBox="0 0 145 25" fill="none" xmlns="http://www.w3.org/2000/svg">
<path d="M3.84314 13.4648L4.16104 13.6453L3.19421 15.2719L3.76181 17.0701L3.42779 17.1776L2.81259 15.2292L3.84314 13.4648ZM4.5229 13.5409L4.8249 13.7195L3.87397 15.3479L4.44157 17.1462L4.10755 17.2537L3.49235 15.3052L4.5229 13.5409Z" fill="white"/>
<path d="M6.39412 13.7855C6.5243 14.0004 6.6484 14.2347 6.76245 14.488L6.50281 14.5853L7.32624 14.6722C7.49337 14.4605 7.64919 14.2035 7.79331 13.9049L8.15276 14.0434C8.03755 14.2967 7.90142 14.5197 7.75188 14.7171L8.50769 14.7968L8.46908 15.1628L7.17228 15.026L7.15927 15.1493C7.13117 15.3394 7.09282 15.5123 7.04777 15.6725L8.63099 15.8395L8.59238 16.2055L7.20011 16.0586C7.34425 16.5605 7.80163 16.9908 8.57182 17.3536L8.3113 17.6882C7.51202 17.2579 7.03079 16.7486 6.85923 16.1634C6.76791 16.3428 6.66277 16.5007 6.54424 16.633C6.23597 16.9625 5.76547 17.1904 5.13273 17.3167L4.9607 16.9647C5.59428 16.8304 6.03442 16.6234 6.2851 16.3442C6.37285 16.2368 6.44993 16.1162 6.51591 15.9864L5.15545 15.8429L5.19406 15.477L6.65794 15.6314C6.70738 15.4677 6.74971 15.2951 6.77739 15.109L6.7904 14.9857L5.48962 14.8485L5.52822 14.4825L6.3795 14.5723C6.27256 14.3278 6.15473 14.1102 6.03041 13.9161L6.39412 13.7855Z" fill="white"/>
<path d="M9.41627 14.2191L12.4291 14.5216L12.392 14.8917L11.1223 14.7643L11.0249 15.7354L12.5731 15.8908L12.5351 16.2689L10.9869 16.1135L10.8506 17.4707C10.8227 17.7493 10.661 17.8777 10.3705 17.8486L9.73767 17.785L9.69483 17.4109C9.89661 17.4432 10.0908 17.4708 10.2739 17.4891C10.4013 17.5019 10.4709 17.4486 10.4821 17.3372L10.6088 16.0755L8.99292 15.9133L9.03087 15.5352L10.6468 15.6974L10.7442 14.7263L9.37911 14.5892L9.41627 14.2191Z" fill="white"/>
<path d="M13.4491 16.269L13.3479 17.3281C13.6812 17.2877 14.0356 17.2372 14.4039 17.1679L14.4703 17.5239C13.9676 17.6124 13.4549 17.6799 12.9357 17.7307L12.8144 17.4017C12.9149 17.3591 12.97 17.288 12.9795 17.1884L13.2106 14.7715C13.7159 14.7394 14.1798 14.6793 14.6025 14.5871L14.8085 14.9122C14.443 14.9938 14.0274 15.0545 13.5611 15.0983L13.4838 15.9066L14.5828 16.0117L14.5481 16.3741L13.4491 16.269ZM15.7861 17.8828L15.4118 17.847L15.3433 17.4707L15.697 17.5126C15.8005 17.5225 15.858 17.4677 15.8686 17.3562L16.0659 15.2936L15.2814 15.2186L14.9822 18.3483L14.5999 18.3118L14.9335 14.8237L16.4824 14.9718L16.2433 17.4724C16.2147 17.771 16.0609 17.909 15.7861 17.8828Z" fill="white"/>
<path d="M17.1323 16.1295L17.5527 14.9949L17.9253 15.093L17.6512 15.8111L18.2408 15.8647C18.3433 15.5768 18.4313 15.2715 18.5087 14.9492L18.8908 15.0321C18.8144 15.3425 18.7279 15.6318 18.6352 15.9005L20.4597 16.0663L20.4267 16.4288L18.5066 16.2544C18.4549 16.3822 18.3998 16.5017 18.3491 16.6176L19.9426 16.7624L19.9136 17.0811C19.7804 17.3983 19.5584 17.6754 19.2397 17.9115C19.5272 18.1063 19.8796 18.295 20.2928 18.4771L20.0651 18.8179C19.599 18.5988 19.2104 18.3667 18.9026 18.1299C18.5679 18.3204 18.1634 18.4845 17.689 18.6221L17.5224 18.2455C17.9338 18.1383 18.2909 18.01 18.5893 17.8644C18.3492 17.6338 18.1742 17.393 18.0681 17.1463C17.7277 17.7099 17.3225 18.147 16.8565 18.4581L16.6931 18.0898C17.287 17.6537 17.7574 17.0298 18.1043 16.2178L17.1323 16.1295ZM18.3618 16.9642C18.4719 17.2111 18.6592 17.4491 18.9239 17.6739C19.1933 17.4936 19.3965 17.2911 19.529 17.0702L18.3618 16.9642ZM19.564 15.0491C19.8201 15.2812 20.0319 15.5133 20.2 15.7415L19.9045 15.9878C19.764 15.7661 19.5604 15.5307 19.2863 15.2769L19.564 15.0491Z" fill="white"/>
<path d="M24.3131 15.8418L24.2355 16.7425L23.8529 16.7095L23.8989 16.1755L21.2647 15.9485L21.219 16.4786L20.8364 16.4456L20.9137 15.5489L22.4002 15.677C22.3583 15.557 22.3118 15.4446 22.2566 15.3394L22.6892 15.3044C22.7347 15.4288 22.7792 15.5651 22.8226 15.7134L24.3131 15.8418ZM20.7548 16.6473L21.8587 16.7425C21.9881 16.5448 22.1133 16.3509 22.2347 16.1526L22.6153 16.3018C22.5046 16.4689 22.4025 16.6287 22.305 16.7809L24.2937 16.9523L24.2621 17.3189L23.4929 17.2526C23.2999 17.6295 23.1014 17.9295 22.8981 18.1449C23.2783 18.3462 23.6636 18.5802 24.0588 18.8391L23.7709 19.1515C23.3811 18.877 22.9891 18.6265 22.5988 18.4041C22.1148 18.7559 21.5071 18.9123 20.7801 18.8697L20.5911 18.5001C21.245 18.5525 21.7878 18.4507 22.219 18.1988C21.8734 18.0164 21.5264 17.85 21.1813 17.7079C21.3357 17.5004 21.4818 17.2961 21.6239 17.0916L20.7232 17.014L20.7548 16.6473ZM22.0702 17.13C21.9468 17.3041 21.8328 17.4629 21.7284 17.6024C21.9925 17.7055 22.2636 17.8212 22.5369 17.9572C22.7468 17.7584 22.9288 17.5092 23.0785 17.2169L22.0702 17.13Z" fill="white"/>
<path d="M25.8276 15.5822L26.1346 15.7556C25.912 16.175 25.5693 16.5405 25.1023 16.8558L25.0198 16.4879C25.369 16.2393 25.6384 15.9361 25.8276 15.5822ZM25.8652 16.5043L26.1609 16.6687C26.0604 16.8692 25.9406 17.0602 25.8014 17.2415L25.6357 19.2868L25.2769 19.2577L25.4064 17.659C25.2897 17.7619 25.1694 17.8605 25.0414 17.9544L24.9615 17.6028C25.3555 17.2977 25.6579 16.9329 25.8652 16.5043ZM26.727 15.6752L27.03 15.6997L26.9761 16.3655L27.1714 16.3814L27.2128 15.871L27.5078 15.895L27.4422 16.7043L26.1624 16.6006L26.228 15.7912L26.523 15.8151L26.4817 16.3255L26.673 16.341L26.727 15.6752ZM26.0968 16.816L27.3646 16.9187L27.3488 17.1141C27.542 16.7606 27.6948 16.3114 27.8025 15.7744L28.1409 15.858C28.0974 16.0471 28.0513 16.2199 27.9979 16.3841L28.6956 16.4407L28.6675 16.7876L28.5359 16.7769C28.467 17.4295 28.3257 17.9839 28.1208 18.4328C28.2291 18.7305 28.3762 18.9952 28.5578 19.2307L28.3006 19.4827C28.1446 19.2775 28.0186 19.0505 27.9177 18.8096C27.7658 19.0501 27.5888 19.2525 27.3912 19.413L27.2591 19.1615L27.1141 19.218C27.0612 19.0291 27.003 18.8559 26.9392 18.7022L27.1921 18.6023C27.2468 18.7191 27.3006 18.8479 27.3497 18.9843C27.5148 18.8291 27.6549 18.6358 27.7776 18.409C27.6775 18.0597 27.6198 17.6818 27.6046 17.2753C27.5354 17.3861 27.4632 17.4846 27.3877 17.5747L27.2237 17.3207C27.2422 17.2901 27.2604 17.2635 27.2787 17.2368L26.6726 17.1877L26.8502 17.2743C26.715 17.4079 26.5691 17.5245 26.4082 17.6278C26.5365 17.6302 26.669 17.6289 26.7975 17.6272L26.9795 17.4614L27.2579 17.5923C27.0149 17.8174 26.7459 18.0163 26.447 18.1888C26.6404 18.1804 26.8343 18.164 27.0243 18.1473C26.9976 18.0809 26.9705 18.0185 26.9431 17.9601L27.2094 17.8934C27.2915 18.0686 27.3647 18.2551 27.4209 18.4523L27.1524 18.5469C27.1337 18.4812 27.1146 18.4194 27.0989 18.366C27.0178 18.3755 26.9365 18.389 26.8594 18.3988L26.8064 19.0526C26.7903 19.252 26.6825 19.3436 26.4911 19.3281L26.236 19.3074L26.1931 18.9949C26.2639 19.0127 26.335 19.0265 26.4068 19.0323C26.4546 19.0361 26.4811 19.0062 26.486 18.9464L26.5276 18.4321C26.3423 18.4411 26.161 18.4505 25.9842 18.4522L25.9365 18.1996C26.1419 18.0918 26.3319 17.9748 26.5107 17.8488C26.3496 17.8558 26.1928 17.8592 26.0367 17.8545L25.992 17.6141C26.1947 17.4901 26.379 17.3445 26.5371 17.1767L26.0706 17.1389L26.0968 16.816ZM27.8778 16.7276C27.8661 17.1681 27.8979 17.5679 27.9765 17.9355C28.0926 17.5918 28.1728 17.1969 28.2249 16.7517L27.8781 16.7236L27.8778 16.7276ZM26.0685 18.5514L26.3097 18.6953C26.2101 18.8839 26.0965 19.0473 25.969 19.1854L25.74 18.9903C25.8623 18.8677 25.9746 18.7203 26.0685 18.5514Z" fill="white"/>
<path d="M30.4681 15.9627L30.839 15.9909L30.7616 17.0079L30.3907 16.9797L30.4681 15.9627ZM29.4329 17.7052C29.2547 17.7277 29.0765 17.7502 28.8986 17.7688L28.7691 17.414C29.9882 17.3142 30.9366 17.0814 31.6103 16.7155C31.4865 16.6018 31.3548 16.4874 31.2151 16.3725L31.4889 16.1486C31.8742 16.4628 32.1997 16.7724 32.4576 17.0728L32.174 17.32C32.0828 17.2007 31.9796 17.0806 31.8605 16.9592C31.487 17.1755 31.0485 17.3507 30.5405 17.4886L31.9525 17.596L31.7877 19.7617L31.4168 19.7335L31.4283 19.5819L29.6694 19.4481L29.6572 19.6077L29.2903 19.5797L29.4329 17.7052ZM29.6949 19.1131L31.4538 19.2469L31.4741 18.9797L29.7152 18.8459L29.6949 19.1131ZM29.7383 18.5427L31.4972 18.6765L31.5157 18.4333L29.7568 18.2994L29.7383 18.5427ZM29.7795 18.0003L31.5384 18.1341L31.5576 17.8828L29.7986 17.749L29.7795 18.0003ZM29.8246 16.1424L30.0739 16.398C29.8165 16.6713 29.5059 16.9044 29.1425 17.0934L28.9447 16.7935C29.2875 16.611 29.5806 16.3966 29.8246 16.1424Z" fill="white"/>
<path d="M34.6998 18.1232L34.6685 18.5661L35.287 18.6098L35.3183 18.167L34.6998 18.1232ZM34.6437 18.9173L34.6088 19.412L35.2272 19.4557L35.2622 18.961L34.6437 18.9173ZM34.5831 19.7751L34.5704 19.9547L34.1954 19.9282L34.3516 17.7177C34.2636 17.8278 34.1679 17.9333 34.0682 18.0385L33.9688 17.6305C34.3139 17.2298 34.5697 16.7868 34.7329 16.293L35.0949 16.3908C35.025 16.5863 34.9436 16.7731 34.8509 16.951L35.4613 16.9941C35.411 16.7981 35.3527 16.6015 35.2859 16.4123L35.6558 16.3422C35.7263 16.5918 35.7827 16.8163 35.8164 17.0192L36.4269 17.0624L36.4013 17.4254L35.7509 17.3795L35.7185 17.8383L36.289 17.8787L36.2639 18.2338L35.6934 18.1935L35.6621 18.6364L36.2326 18.6767L36.2078 19.0278L35.6373 18.9875L35.6023 19.4822L36.2966 19.5313L36.2709 19.8944L34.5831 19.7751ZM35.3758 17.353L34.7574 17.3093L34.7249 17.7681L35.3434 17.8118L35.3758 17.353ZM34.0211 17.8547L33.9937 18.2418C33.8783 18.2857 33.7592 18.3254 33.6441 18.3654L33.5674 19.4507C33.5491 19.7101 33.4042 19.8322 33.1368 19.8133L32.7777 19.7879L32.7199 19.4149C32.8265 19.4385 32.9296 19.4538 33.0294 19.4608C33.1331 19.4682 33.1884 19.4239 33.1952 19.3282L33.2549 18.4823C33.0996 18.5234 32.9407 18.5603 32.7859 18.5935L32.7172 18.2037C32.9076 18.177 33.0945 18.1421 33.282 18.0992L33.3412 17.2613L32.8624 17.2275L32.8884 16.8604L33.3672 16.8942L33.4168 16.192L33.7958 16.2188L33.7462 16.921L34.1173 16.9473L34.0913 17.3143L33.7203 17.2881L33.6709 17.9864C33.79 17.9467 33.9054 17.9027 34.0211 17.8547Z" fill="white"/>
<path d="M37.0014 16.4842C37.2513 16.7089 37.4613 16.931 37.6314 17.1506L37.3423 17.4043C37.1996 17.1946 36.9938 16.9687 36.7215 16.7185L37.0014 16.4842ZM39.0516 20.2093C38.836 20.1953 38.6008 20.176 38.3496 20.1556C38.0944 20.135 37.8884 20.0975 37.7273 20.0469C37.5708 19.9886 37.4413 19.884 37.3304 19.7405C37.2829 19.6692 37.2371 19.6342 37.1892 19.6311C37.1094 19.6259 36.954 19.7961 36.727 20.1421L36.4645 19.8645C36.6851 19.5541 36.878 19.3623 37.0429 19.2928L37.1165 18.1632L36.5776 18.1281L36.6005 17.7769L37.4946 17.8351L37.3961 19.3479C37.411 19.3649 37.4299 19.3822 37.4483 19.4074C37.5291 19.5209 37.6197 19.607 37.7161 19.6654C37.8282 19.7288 37.9975 19.7759 38.2285 19.799C38.4518 19.8175 38.7149 19.8387 39.0223 19.8587C39.2139 19.8712 39.4137 19.8802 39.6176 19.8894C39.8174 19.8984 39.9736 19.9006 40.0819 19.8996L39.9656 20.2689L39.0516 20.2093ZM37.871 17.102L38.3101 17.1306L38.3494 16.5279L38.7126 16.5516L38.6733 17.1543L39.2162 17.1896L39.2552 16.5909L39.6224 16.6148L39.5834 17.2136L40.0584 17.2445L40.0353 17.5997L39.5603 17.5688L39.5142 18.2753L40.117 18.3146L40.0936 18.6738L39.4909 18.6346L39.4201 19.7202L39.0529 19.6963L39.1236 18.6106L38.489 18.5693C38.3473 19.021 38.1256 19.3473 37.8157 19.5516L37.6079 19.2334C37.8419 19.0883 38.0131 18.859 38.1218 18.5454L37.6388 18.5139L37.6622 18.1547L38.217 18.1908C38.2418 18.0561 38.2589 17.917 38.2685 17.7693L38.287 17.4859L37.8479 17.4573L37.871 17.102ZM38.6502 17.5095L38.6375 17.7051C38.6255 17.8887 38.6026 18.0556 38.5762 18.2142L39.147 18.2514L39.193 17.5449L38.6502 17.5095Z" fill="white"/>
<path d="M41.0649 17.352L42.6741 17.4465C42.5815 17.2487 42.4643 17.0615 42.3226 16.8809L42.7102 16.7634C42.8427 16.9635 42.9651 17.1991 43.0734 17.4699L44.5868 17.5587L44.5648 17.934L43.9539 17.8982C43.7266 18.4939 43.4133 18.9844 43.0138 19.3737C43.4092 19.7374 43.9117 20.0514 44.5135 20.3111L44.2831 20.6181C43.6543 20.3408 43.1368 20.01 42.7346 19.6257C42.2599 19.9986 41.6875 20.2615 41.0174 20.4145L40.8335 20.0672C41.4902 19.9374 42.0367 19.705 42.4813 19.3665C42.0679 18.9014 41.7908 18.3643 41.6538 17.7632L41.0429 17.7274L41.0649 17.352ZM42.0172 17.7846C42.1561 18.2856 42.4023 18.7327 42.7601 19.1224C43.1044 18.786 43.3733 18.369 43.5625 17.8752L42.0172 17.7846Z" fill="white"/>
<path d="M46.1991 16.9634L46.5459 17.1497C46.393 17.4702 46.201 17.7726 45.9702 18.053L45.8333 20.6854L45.4578 20.6659L45.5716 18.4769C45.3991 18.6361 45.2148 18.7908 45.019 18.9368L44.9197 18.5351C45.4833 18.0958 45.911 17.5733 46.1991 16.9634ZM47.9062 20.7211L47.1592 20.6823C46.8396 20.6657 46.6882 20.4976 46.7048 20.178L46.763 19.0595C46.6152 19.1279 46.4635 19.1961 46.3079 19.2602L46.1548 18.8917C46.3755 18.8071 46.5885 18.718 46.786 18.6161L46.8668 17.0622L47.2463 17.082L47.1778 18.4002C47.5827 18.1609 47.9456 17.8834 48.2585 17.5672L48.5065 17.8805C48.1067 18.2522 47.657 18.5813 47.1539 18.8596L47.087 20.1458C47.0812 20.2577 47.1382 20.3167 47.266 20.3234L47.8612 20.3543C47.9531 20.3591 48.0226 20.3307 48.0697 20.273C48.1128 20.2152 48.1517 20.0049 48.1788 19.6378L48.5243 19.772C48.4725 20.2299 48.406 20.5068 48.3291 20.5989C48.2482 20.6909 48.1059 20.7315 47.9062 20.7211Z" fill="white"/>
<path d="M49.9709 18.793L49.2276 18.7595L49.1589 20.2819C49.1545 20.3778 49.2041 20.4321 49.312 20.437L50.0073 20.4684C50.1272 20.4738 50.2045 20.4453 50.2352 20.3866C50.2701 20.3241 50.3002 20.1893 50.3254 19.9863L50.6756 20.1222C50.6279 20.4684 50.5704 20.678 50.4952 20.7467C50.4284 20.8078 50.2951 20.8338 50.1033 20.8251L49.1323 20.7812C48.8805 20.7698 48.7621 20.6444 48.7729 20.4046L48.8587 18.5066L48.6582 18.6897L48.4483 18.3719C48.8437 18.0414 49.2099 17.6455 49.5469 17.1883L49.8266 17.2009C50.1616 17.5844 50.48 17.9832 50.7736 18.3969L50.5141 18.6454C50.191 18.1744 49.9232 17.8099 49.7025 17.5557C49.4808 17.854 49.2357 18.1392 48.9591 18.411L50.3577 18.4742L50.3078 19.5771C50.2939 19.7966 50.1688 19.9071 49.9283 19.9123C49.7725 19.9052 49.6248 19.8945 49.4853 19.8802L49.4095 19.5204C49.5566 19.5431 49.6841 19.5569 49.796 19.5619C49.8879 19.5661 49.938 19.5203 49.942 19.4324L49.9709 18.793ZM50.9904 17.5858L51.362 17.6026L51.2506 20.0681L50.879 20.0513L50.9904 17.5858ZM51.5326 20.9177L50.9292 20.8904L50.8577 20.5228C51.0528 20.5477 51.2402 20.5641 51.4161 20.5721C51.512 20.5764 51.5626 20.5187 51.5679 20.4028L51.709 17.278L52.0887 17.2951L51.9431 20.5158C51.9305 20.7955 51.7923 20.9294 51.5326 20.9177Z" fill="white"/>
<path d="M53.5068 17.8809L52.8832 17.8577L52.8951 17.538L54.2142 17.5869C54.1847 17.5178 54.1551 17.4526 54.1252 17.3955L54.5393 17.3468C54.5684 17.4239 54.6013 17.5092 54.6299 17.6024L56.0129 17.6537L56.001 17.9735L55.3655 17.9499L55.2407 18.1854L56.18 18.2203L56.1678 18.5481L52.6742 18.4184L52.6864 18.0906L53.5938 18.1243L53.5068 17.8809ZM53.9895 18.139L54.8449 18.1707L54.9698 17.9352L53.9025 17.8956L53.9895 18.139ZM53.0837 18.6017L55.7459 18.7005L55.6996 19.9476L53.0374 19.8488L53.0837 18.6017ZM55.3385 19.646L55.346 19.4462L53.4273 19.375L53.4199 19.5748L55.3385 19.646ZM53.4374 19.1031L55.356 19.1744L55.3633 18.9785L53.4446 18.9073L53.4374 19.1031ZM52.8798 19.9991L53.2447 20.0887C53.141 20.401 53.003 20.6681 52.8305 20.8939L52.5103 20.6778C52.6782 20.4679 52.7986 20.2442 52.8798 19.9991ZM54.8872 21.0222L53.9118 20.986C53.6041 20.9746 53.4574 20.8291 53.4674 20.5573L53.4864 20.0456L53.8702 20.0599L53.8542 20.4916C53.8504 20.5915 53.9085 20.6457 54.0324 20.6503L54.8278 20.6798C54.8998 20.6825 54.9523 20.6684 54.9814 20.6415C55.0227 20.607 55.0545 20.5041 55.077 20.3288L55.4325 20.4581C55.3901 20.7367 55.3278 20.9065 55.2378 20.9592C55.16 21.0044 55.0431 21.028 54.8872 21.0222ZM54.4639 19.9178C54.6178 20.0836 54.7325 20.228 54.8119 20.355L54.4879 20.5631C54.4009 20.4278 54.2825 20.2753 54.1325 20.1096L54.4639 19.9178ZM55.7079 20.048C55.9181 20.316 56.0775 20.5501 56.1863 20.7463L55.8624 20.9544C55.7465 20.7339 55.5913 20.492 55.393 20.2285L55.7079 20.048Z" fill="white"/>
<path d="M60.197 17.7974L60.1046 21.0801L59.7367 21.0698L59.745 20.7779L58.8773 20.7535L58.8677 21.0933L58.5039 21.0831L58.5977 17.7524L60.197 17.7974ZM58.8874 20.3936L59.7551 20.418L59.8192 18.1429L58.9515 18.1185L58.8874 20.3936ZM56.7631 18.5291L57.4308 18.5479L57.4443 18.0681C57.2596 18.0909 57.0711 18.1056 56.8867 18.1164L56.7764 17.7732C57.3935 17.7425 57.8921 17.6565 58.276 17.5233L58.447 17.8442C58.2411 17.9104 58.0314 17.9686 57.8141 18.0105L57.7987 18.5582L58.4504 18.5766L58.4404 18.9324L57.7886 18.9141L57.7841 19.074C58.0025 19.2763 58.2243 19.5026 58.4493 19.753L58.2162 20.0746C58.0434 19.8136 57.8972 19.6054 57.7738 19.4419L57.7259 21.1412L57.3581 21.1309L57.4037 19.5115C57.2343 19.8429 57.0177 20.1449 56.7619 20.4178L56.6097 19.9973C56.9706 19.6874 57.2408 19.3268 57.4202 18.9237L57.4208 18.9037L56.7531 18.8849L56.7631 18.5291Z" fill="white"/>
<path d="M61.1881 17.6403C61.4406 17.8369 61.649 18.0367 61.8215 18.2318L61.5568 18.4911C61.4082 18.3004 61.1959 18.0965 60.9237 17.8835L61.1881 17.6403ZM60.6555 18.7708L61.5514 18.787L61.5207 20.4788C61.6466 20.377 61.7808 20.2594 61.9272 20.1261L62.0239 20.5279C61.7596 20.7631 61.4798 20.9741 61.1844 21.1568L61.0467 20.8102C61.1117 20.7554 61.149 20.6841 61.1505 20.6001L61.1769 19.1443L60.649 19.1347L60.6555 18.7708ZM62.0747 19.2726L64.0144 19.3078L64.0081 19.6557C63.8856 20.0095 63.6882 20.31 63.4156 20.5611C63.6685 20.7337 63.9777 20.8913 64.3353 21.0258L64.1254 21.3501C63.7283 21.1829 63.3997 20.9929 63.1314 20.788C62.8154 21.0063 62.4242 21.1792 61.9658 21.307L61.7596 20.9832C62.1858 20.8669 62.5446 20.7174 62.836 20.5306C62.5688 20.2617 62.3862 19.9664 62.296 19.6447L62.068 19.6405L62.0747 19.2726ZM62.6519 19.6511C62.7395 19.8967 62.8915 20.1195 63.1118 20.3236C63.3313 20.1315 63.5033 19.9146 63.6238 19.6687L62.6519 19.6511ZM62.3826 17.7339L63.7984 17.7596L63.7832 18.5994C63.7816 18.6874 63.8287 18.7363 63.9287 18.7381L64.2806 18.7445L64.2743 19.0924L63.8224 19.0842C63.5384 19.0791 63.4009 18.9406 63.4057 18.6766L63.416 18.1087L62.7521 18.0967L62.7499 18.2167C62.7424 18.6326 62.5246 18.9527 62.1005 19.173L61.8538 18.8765C62.1925 18.7306 62.3683 18.5218 62.3733 18.2498L62.3826 17.7339Z" fill="white"/>
<path d="M65.8085 18.819L66.8564 18.8262L66.8644 17.6542L67.2564 17.6569L67.2484 18.8289L68.2404 18.8356L68.2378 19.2116L67.2459 19.2048L67.2311 21.3608L66.8392 21.3581L66.8539 19.2022L65.8059 19.195L65.8085 18.819ZM65.0882 17.6781C65.3469 17.8759 65.5655 18.0734 65.7442 18.2746L65.4824 18.5368C65.3237 18.3477 65.105 18.1462 64.8225 17.9363L65.0882 17.6781ZM64.5523 18.8345L65.4763 18.8408L65.4647 20.5447C65.5934 20.4416 65.7262 20.3225 65.8671 20.1915L65.9644 20.5801C65.7068 20.8184 65.4293 21.0325 65.1361 21.2185L64.9944 20.8775C65.0628 20.822 65.0992 20.7542 65.0998 20.6742L65.1098 19.2023L64.5498 19.1985L64.5523 18.8345Z" fill="white"/>
<path d="M69.4127 19.0856L69.4167 19.6696L69.9767 19.6657L69.9727 19.0817L69.4127 19.0856ZM69.9703 18.7417L69.9662 18.1497L69.4062 18.1536L69.4103 18.7456L69.9703 18.7417ZM69.4111 20.0136C69.3869 20.5578 69.294 21.0104 69.1324 21.3676L68.8427 21.1096C69.0002 20.7605 69.0772 20.3159 69.0774 19.7759L69.0638 17.8119L70.3078 17.8033L70.3295 20.9313C70.3313 21.2033 70.2083 21.3401 69.9643 21.3418L69.6443 21.344L69.55 21.0087C69.6621 21.0199 69.7621 21.0272 69.8581 21.0265C69.9421 21.0259 69.9856 20.9536 69.9846 20.8136L69.9791 20.0097L69.4111 20.0136ZM70.9483 19.607L70.9582 21.0349C71.1654 20.9215 71.3404 20.7763 71.4872 20.6073C71.2532 20.3129 71.0909 19.978 71.0003 19.6066L70.9483 19.607ZM70.9583 21.0469L70.9604 21.3509L70.6044 21.3534L70.5798 17.8015L72.2638 17.7898C72.2674 18.3098 72.2457 18.654 72.1989 18.8263C72.1521 18.9946 72.0007 19.0797 71.7447 19.0814L71.4087 19.0838L71.3065 18.7645C71.3705 18.764 71.4585 18.7674 71.5705 18.7666C71.6545 18.766 71.7185 18.7576 71.7584 18.7453C71.7983 18.7331 71.83 18.6968 71.8536 18.6407C71.8772 18.5725 71.892 18.4044 71.8982 18.1363L70.9382 18.143L70.946 19.271L72.298 19.2616L72.3002 19.5816C72.2309 19.9741 72.1132 20.3109 71.9471 20.5881C72.1122 20.7429 72.3052 20.8816 72.522 21.0081L72.3363 21.3294C72.1073 21.195 71.9063 21.0444 71.7371 20.8815C71.5744 21.0667 71.3795 21.22 71.1563 21.3416L70.9583 21.0469ZM71.3243 19.6044C71.4061 19.8638 71.5277 20.099 71.6932 20.3098C71.8117 20.101 71.9021 19.8644 71.9643 19.5999L71.3243 19.6044Z" fill="white"/>
<path d="M73.9701 17.5984L74.3592 17.6456C74.3214 17.7425 74.2796 17.8355 74.2335 17.9205L75.945 17.8815L75.9521 18.1894C75.7184 18.4708 75.432 18.7174 75.0966 18.9251C75.5281 19.0753 76.0065 19.1724 76.5354 19.2084L76.3716 19.5682C75.7501 19.5104 75.1868 19.3712 74.6855 19.1465C74.2106 19.3734 73.6543 19.5421 73.0246 19.6525L72.8406 19.3006C73.3749 19.2204 73.8522 19.0975 74.2645 18.9321C74.07 18.8245 73.8912 18.7005 73.7241 18.5683C73.5908 18.6874 73.4453 18.7987 73.2836 18.9024L73.0447 18.6038C73.5065 18.3252 73.815 17.9901 73.9701 17.5984ZM74.6724 18.7467C74.9453 18.6045 75.1855 18.439 75.3973 18.2501L73.9937 18.2821C73.9819 18.2944 73.9741 18.3025 73.9703 18.3106C74.1822 18.4778 74.4176 18.6245 74.6724 18.7467ZM74.3992 19.3971L74.7751 19.3886C74.7784 19.5325 74.7695 19.6688 74.7524 19.7972L76.132 19.7657C76.14 20.4657 76.0896 20.887 75.9807 21.0255C75.8718 21.164 75.6735 21.2406 75.3936 21.2469C75.2576 21.25 75.0895 21.2459 74.8973 21.2383L74.7935 20.8965C75.0016 20.8998 75.1697 20.904 75.2979 20.909C75.5017 20.9004 75.6287 20.8535 75.6789 20.7723C75.7289 20.6872 75.7559 20.4665 75.7599 20.1143L74.6762 20.139C74.6424 20.2358 74.6045 20.3287 74.5584 20.4138C74.3667 20.7782 73.9055 21.0848 73.1711 21.3376L72.9121 21.0355C73.5596 20.8286 73.9822 20.5869 74.1758 20.3065C74.2067 20.2537 74.2375 20.201 74.2603 20.1485L73.1366 20.1741L73.1288 19.8342L74.3685 19.8059C74.3896 19.6774 74.4025 19.5411 74.3992 19.3971Z" fill="white"/>
<path d="M77.2495 17.5126L77.6265 17.529L77.595 18.0267L79.949 17.9294L79.964 18.2931L77.5741 18.3919L77.5414 18.9577L79.7555 18.8662C79.8017 19.9812 79.7485 20.632 79.6039 20.8141C79.459 20.9882 79.1387 21.0856 78.6392 21.1062C78.5113 21.1115 78.3751 21.1091 78.2349 21.1069L78.1206 20.7634C78.3252 20.7749 78.4696 20.7809 78.5495 20.7776C78.9732 20.7601 79.226 20.6776 79.3041 20.5342C79.3857 20.3787 79.416 19.9491 79.3866 19.2377L77.1325 19.331L77.2495 17.5126ZM76.6679 19.9067L78.922 19.8134L78.937 20.1771L76.683 20.2703L76.6679 19.9067Z" fill="white"/>
<path d="M83.9235 17.3894L84.1484 20.8581L83.7772 20.8822L83.7625 20.6547L82.569 20.7321L82.584 20.9636L82.2247 20.9869L81.9995 17.5142L83.9235 17.3894ZM82.5459 20.3769L83.7394 20.2994L83.6998 19.6887L82.5063 19.7661L82.5459 20.3769ZM82.4838 19.4189L83.6773 19.3415L83.6366 18.7148L82.4432 18.7922L82.4838 19.4189ZM82.4206 18.4449L83.6141 18.3675L83.5753 17.7688L82.3818 17.8462L82.4206 18.4449ZM81.4572 19.0405L81.5856 21.0204L81.2143 21.0444L81.0934 19.1804C80.9869 19.5159 80.8509 19.8294 80.6849 20.1127L80.5169 19.7469C80.769 19.3697 80.9422 18.9497 81.0399 18.4783L80.517 18.5123L80.4934 18.149L81.0243 18.1146L80.9759 17.3682L81.3471 17.3441L81.3955 18.0905L81.8785 18.0592L81.9021 18.4224L81.4191 18.4538L81.4305 18.6294C81.6178 18.7976 81.8103 18.9855 82 19.1897L81.8123 19.5105C81.6759 19.323 81.5575 19.1663 81.4572 19.0405Z" fill="white"/>
<path d="M85.7884 17.0283C85.9591 17.2126 86.1277 17.4172 86.2903 17.6425L86.0555 17.7899L86.8796 17.7096C87.0008 17.4687 87.1018 17.1856 87.183 16.8642L87.563 16.9277C87.501 17.199 87.4124 17.4447 87.3056 17.6681L88.062 17.5944L88.0977 17.9607L86.7998 18.0872L86.8119 18.2106C86.8225 18.4024 86.8197 18.5795 86.8077 18.7455L88.3922 18.5911L88.4279 18.9573L87.0345 19.0931C87.2765 19.5558 87.811 19.8856 88.6384 20.0863L88.4504 20.4663C87.581 20.2054 87.0073 19.8031 86.7216 19.2643C86.6682 19.4584 86.5969 19.6341 86.5074 19.7875C86.2716 20.1722 85.8564 20.49 85.262 20.7408L85.0227 20.4306C85.6164 20.1718 86.006 19.8806 86.1955 19.5567C86.2599 19.4339 86.3112 19.3003 86.3498 19.1599L84.9882 19.2925L84.9525 18.9263L86.4176 18.7835C86.4331 18.6132 86.4399 18.4357 86.4297 18.2478L86.4177 18.1244L85.1158 18.2513L85.0801 17.885L85.9321 17.802C85.7782 17.5839 85.6191 17.3944 85.4583 17.2292L85.7884 17.0283Z" fill="white"/>
<path d="M90.34 16.4678C90.4115 16.5879 90.481 16.7243 90.5566 16.876L91.9337 16.703L91.9786 17.0602L91.3118 17.144C91.2946 17.3276 91.261 17.5092 91.2105 17.6848L92.1273 17.5696L92.1731 17.9348L89.3553 18.2888L89.4226 18.8246C89.4845 19.4457 89.4084 19.9632 89.1859 20.3742L88.8643 20.1566C89.0407 19.828 89.1 19.4013 89.0416 18.8725L88.9284 17.9715L89.7301 17.8708L89.5259 17.3684L88.8194 17.4571L88.7746 17.0999L90.1716 16.9244C90.1035 16.7999 90.0285 16.6844 89.9511 16.5812L90.34 16.4678ZM90.1032 17.8239L90.8493 17.7302C90.8998 17.5545 90.9334 17.3729 90.9507 17.1893L89.895 17.322L90.1032 17.8239Z" fill="white"/>
<path d="M93.5932 16.1094L93.969 16.0528L94.4369 19.1618L94.9116 19.0903L94.4436 15.9814L94.8194 15.9248L95.2874 19.0338L96.4423 18.8599L96.4977 19.2278L92.9695 19.7589L92.9141 19.391L94.0612 19.2184L93.5932 16.1094ZM95.6698 16.5492L96.0163 16.5941C95.9684 17.2971 95.8639 17.9196 95.7034 18.4655L95.3493 18.3975C95.5018 17.9053 95.6108 17.2862 95.6698 16.5492ZM92.9552 16.9497C93.2367 17.4494 93.5058 18.0278 93.7664 18.6843L93.4354 18.8231C93.2074 18.2223 92.9429 17.6473 92.6503 17.1008L92.9552 16.9497Z" fill="white"/>
<path d="M98.5029 15.9791L99.0429 15.8859L98.9299 15.2315L99.2808 15.171L99.3937 15.8253L99.9495 15.7294L100.234 17.377L99.6782 17.4729L99.8115 18.2455L100.085 18.1374C100.02 17.9944 99.956 17.8593 99.8895 17.7328L100.162 17.5924C100.318 17.8657 100.471 18.1845 100.615 18.5492L100.309 18.6793C100.278 18.5953 100.244 18.5159 100.214 18.4358C99.8478 18.5965 99.4554 18.7454 99.0406 18.8819L98.8933 18.5461C99.0909 18.4917 99.2839 18.434 99.4716 18.3691L99.3274 17.5335L98.7873 17.6267L98.5029 15.9791ZM99.8628 17.1082L99.69 16.107L99.4298 16.1519L99.6027 17.1531L99.8628 17.1082ZM99.2952 17.2062L99.1224 16.205L98.878 16.2472L99.0508 17.2484L99.2952 17.2062ZM96.4395 15.7833L98.3394 15.4553L98.3972 15.7903L96.4973 16.1183L96.4395 15.7833ZM96.7415 16.2629L98.2039 16.0104L98.359 16.9091L96.8967 17.1616L96.7415 16.2629ZM97.9815 16.6739L97.9271 16.3586L97.123 16.4974L97.1774 16.8128L97.9815 16.6739ZM97.3505 18.1914L97.52 18.1621C97.4482 18.0284 97.3738 17.9032 97.2929 17.7873L97.5165 17.6716C97.5967 17.7836 97.6724 17.9166 97.743 18.0668L97.5515 18.1567L97.8353 18.1077C97.8711 17.9392 97.901 17.7595 97.9177 17.5739L98.1849 17.6171C98.1642 17.779 98.1328 17.9265 98.0994 18.0621L98.2768 18.0315L98.3258 18.3153L97.9986 18.3718L98.1163 19.0537L97.8207 19.1047L97.703 18.4228L97.3995 18.4752L97.3505 18.1914ZM98.5573 18.9979L98.2774 19.0462L98.1296 18.7307L98.3931 18.7055C98.4601 18.6939 98.4909 18.6602 98.482 18.609L98.2772 17.4225L97.1459 17.6178L97.4236 19.2261L97.1003 19.2819L96.7696 17.3662L98.5473 17.0593L98.8175 18.6241C98.8542 18.837 98.7662 18.9618 98.5573 18.9979Z" fill="white"/>
<path d="M102.024 14.6375L102.299 14.5846C102.901 15.0471 103.552 15.3781 104.258 15.5763L104.126 15.9723C103.887 15.896 103.659 15.8096 103.445 15.7123L103.498 15.9912L101.432 16.3888L101.377 16.1021C101.208 16.2813 101.025 16.451 100.828 16.6151L100.562 16.2915C101.182 15.8057 101.67 15.2515 102.024 14.6375ZM101.462 16.0125L103.324 15.6542C102.928 15.4615 102.561 15.2266 102.227 14.9488C102.025 15.3215 101.772 15.6759 101.462 16.0125ZM103.827 16.3639L104.14 17.994L103.779 18.0635L103.738 17.8514L101.9 18.2052L101.941 18.4173L101.579 18.4868L101.266 16.8568L103.827 16.3639ZM101.832 17.8517L103.67 17.4979L103.533 16.783L101.694 17.1368L101.832 17.8517Z" fill="white"/>
<path d="M104.818 15.4083L104.887 14.2003L105.272 14.1847L105.221 14.9517L105.8 14.8299C105.814 14.5246 105.808 14.2069 105.788 13.876L106.178 13.8432C106.196 14.1623 106.198 14.4643 106.188 14.7484L107.981 14.3714L108.056 14.7276L106.169 15.1244C106.157 15.2618 106.139 15.3922 106.125 15.5178L107.691 15.1886L107.757 15.5017C107.722 15.8441 107.591 16.1741 107.356 16.4934C107.688 16.5952 108.08 16.6722 108.529 16.725L108.411 17.1176C107.901 17.045 107.462 16.9371 107.098 16.8011C106.834 17.0814 106.495 17.357 106.082 17.6278L105.812 17.3166C106.174 17.0934 106.478 16.866 106.72 16.6393C106.423 16.4892 106.185 16.3104 106.012 16.1057C105.852 16.7443 105.592 17.2811 105.238 17.7153L104.974 17.4112C105.414 16.82 105.68 16.0855 105.774 15.2075L104.818 15.4083ZM106.239 15.8454C106.417 16.0492 106.665 16.2217 106.984 16.359C107.189 16.1075 107.324 15.8543 107.386 15.6042L106.239 15.8454ZM106.826 13.6618C107.139 13.8086 107.41 13.9683 107.637 14.1371L107.427 14.4592C107.228 14.2886 106.964 14.1233 106.627 13.9611L106.826 13.6618Z" fill="white"/>
<path d="M109.327 14.6577L109.865 14.5358L109.794 14.2237L109.143 14.3712L109.21 14.6677C109.263 14.9018 109.298 15.1316 109.323 15.3476L110.013 15.1912L109.939 14.8635L109.401 14.9854L109.327 14.6577ZM109.352 15.6937C109.374 16.1357 109.341 16.5493 109.251 16.9306L108.889 16.7294C109.024 16.1822 109.006 15.5259 108.835 14.7525L108.539 13.4417L111.523 12.766L111.753 13.7803L111.21 13.9031L111.281 14.2152L111.866 14.0827L111.94 14.4104L111.355 14.5429L111.429 14.8706L112.147 14.7081L112.223 15.0436L111.833 15.1319L112.11 15.3031C112.022 15.4787 111.917 15.6297 111.798 15.7551C112.022 15.8232 112.267 15.8539 112.536 15.8463L112.44 16.2372C111.696 16.2128 111.108 15.9318 110.671 15.3951L110.187 15.5047L110.355 16.2459C110.575 16.1344 110.767 16.0213 110.926 15.9074L111.073 16.2309C110.782 16.4117 110.428 16.5901 110.013 16.7662L109.838 16.4653C109.945 16.392 109.985 16.2968 109.956 16.172L109.824 15.5868L109.352 15.6937ZM111.045 15.3103C111.171 15.4335 111.309 15.5336 111.458 15.6146C111.586 15.4913 111.695 15.3355 111.782 15.1434L111.045 15.3103ZM110.851 13.9844L110.149 14.1433L110.22 14.4554L110.922 14.2965L110.851 13.9844ZM110.368 15.1109L111.071 14.9519L110.996 14.6242L110.294 14.7832L110.368 15.1109ZM111.225 13.1902L108.99 13.6963L109.068 14.0396L111.303 13.5335L111.225 13.1902Z" fill="white"/>
<path d="M113.424 12.408L115.322 11.9505L115.409 12.3122L113.511 12.7697L113.424 12.408ZM113.561 13.4036L115.723 12.8824L115.811 13.244L115.204 13.3903L115.602 15.039C115.662 15.2879 115.552 15.4461 115.275 15.5126L114.712 15.6486L114.543 15.3066C114.725 15.279 114.902 15.2446 115.066 15.2053C115.178 15.1781 115.226 15.1212 115.207 15.0396L114.831 13.4803L113.649 13.7652L113.561 13.4036ZM112.717 12.3768L113.093 12.4508C112.986 12.9292 112.728 13.3946 112.313 13.8568L112.111 13.5146C112.424 13.1554 112.625 12.7777 112.717 12.3768ZM113.115 13.2233L113.487 13.2982C113.432 13.5335 113.348 13.7637 113.233 13.9888L113.697 15.9097L113.335 15.9969L112.959 14.4376C112.848 14.5919 112.728 14.7442 112.592 14.8963L112.395 14.557C112.764 14.1391 113.006 13.6939 113.115 13.2233Z" fill="white"/>
<path d="M116.025 11.8024L117.467 11.4346L117.557 11.7873L116.115 12.1551L116.025 11.8024ZM116.148 12.8855L117.873 12.4455L117.964 12.802L117.092 13.0245C117.088 13.5911 117.067 14.0093 117.029 14.2831C117.271 14.1636 117.511 14.0198 117.746 13.8567C117.608 13.6895 117.474 13.534 117.342 13.39L117.614 13.1598C117.875 13.4399 118.137 13.7568 118.4 14.1067L118.124 14.3506L117.96 14.1283C117.588 14.3716 117.179 14.5957 116.728 14.8016L116.55 14.4756C116.587 14.4579 116.607 14.4404 116.619 14.4248C116.686 14.2469 116.723 13.8121 116.735 13.1155L116.239 13.242L116.148 12.8855ZM118.075 11.0358L118.439 10.9429L118.631 11.6948L119.468 11.4812C119.791 12.7448 119.97 13.5288 120.01 13.8322C120.043 14.1377 119.883 14.3354 119.53 14.4253C119.468 14.4412 119.357 14.4611 119.2 14.4929L119.032 14.1891C119.175 14.1651 119.297 14.1422 119.397 14.1165C119.568 14.073 119.641 13.9553 119.625 13.7613C119.602 13.5732 119.458 12.9617 119.203 11.9288L118.722 12.0514L118.731 12.0863C119.004 13.2055 118.944 14.0876 118.549 14.7376L118.211 14.5636C118.564 13.9866 118.617 13.1928 118.367 12.1792L118.358 12.1443L117.865 12.2699L117.775 11.9133L118.267 11.7877L118.075 11.0358Z" fill="white"/>
<path d="M121.28 11.3929L122.292 11.1211L121.988 9.98924L122.367 9.88759L122.671 11.0195L123.629 10.7622L123.726 11.1254L122.768 11.3826L123.327 13.4649L122.949 13.5665L122.39 11.4843L121.377 11.7561L121.28 11.3929ZM120.282 10.4846C120.584 10.6064 120.848 10.7387 121.073 10.8852L120.891 11.2076C120.687 11.0675 120.423 10.9314 120.095 10.8041L120.282 10.4846ZM120.073 11.7418L120.966 11.5022L121.407 13.1479C121.504 13.0143 121.6 12.8641 121.701 12.7003L121.899 13.0491C121.714 13.3473 121.503 13.6275 121.27 13.8848L121.043 13.5938C121.094 13.5221 121.111 13.447 121.09 13.3698L120.708 11.9481L120.168 12.0934L120.073 11.7418Z" fill="white"/>
<path d="M125.748 9.31687L126.102 9.21741L126.77 11.5974L126.416 11.6969L125.748 9.31687ZM127.374 12.2963L126.819 12.452L126.636 12.1253C126.821 12.0899 126.993 12.0501 127.155 12.0047C127.263 11.9744 127.305 11.9043 127.276 11.8003L126.427 8.77715L126.789 8.67552L127.664 11.7911C127.738 12.0529 127.64 12.2217 127.374 12.2963ZM125.547 9.90496L125.705 10.243L124.665 10.7135C124.729 10.8825 124.797 11.0339 124.867 11.1678C124.939 11.3054 125.008 11.4316 125.08 11.5402C125.213 11.2452 125.309 10.9192 125.363 10.5634L125.729 10.6393C125.655 11.117 125.525 11.54 125.332 11.9056C125.378 11.9635 125.421 12.0137 125.467 12.059C125.66 12.2456 125.815 12.3227 125.924 12.2962C125.982 12.2674 125.992 12.0652 125.957 11.6887L126.321 11.8025C126.319 12.0151 126.303 12.198 126.272 12.3522C126.233 12.5378 126.16 12.6495 126.052 12.6798C125.867 12.7317 125.651 12.6554 125.401 12.4598C125.31 12.3896 125.225 12.3095 125.146 12.2196C124.969 12.477 124.758 12.7024 124.513 12.8958L124.202 12.6301C124.475 12.4203 124.706 12.1769 124.888 11.8931C124.799 11.7685 124.713 11.639 124.631 11.4958C124.527 11.3173 124.427 11.1086 124.326 10.8669L123.877 11.072L123.723 10.7328L124.187 10.5196C124.073 10.2191 123.961 9.87678 123.854 9.49552L124.223 9.39172C124.325 9.75373 124.425 10.0789 124.53 10.3651L125.547 9.90496ZM124.73 9.22867C124.916 9.3592 125.104 9.51006 125.289 9.67849L125.024 9.91903C124.841 9.74182 124.657 9.58987 124.471 9.45935L124.73 9.22867Z" fill="white"/>
<path d="M129.083 8.68402L129.866 11.3554L129.517 11.4579L129.459 11.2583L128.852 11.4362L128.943 11.7471L128.594 11.8496L127.778 9.06692L128.142 8.95993C128.151 8.7324 128.142 8.50553 128.108 8.27391L128.487 8.21682C128.511 8.43918 128.51 8.65182 128.492 8.85745L129.083 8.68402ZM128.753 11.0985L129.359 10.9205L129.138 10.1644L128.531 10.3423L128.753 11.0985ZM128.435 10.0161L129.042 9.83817L128.835 9.13194L128.228 9.30987L128.435 10.0161ZM130.044 9.40248C130.389 9.64288 130.665 9.85796 130.869 10.0565L130.641 10.3444C130.421 10.1339 130.139 9.91224 129.802 9.67342L130.044 9.40248ZM131.064 8.10675C131.453 9.43093 131.673 10.2541 131.725 10.5724C131.768 10.86 131.624 11.0523 131.298 11.148C131.221 11.1705 131.081 11.2034 130.885 11.2482L130.699 10.9401C130.87 10.8983 131.018 10.8632 131.141 10.8271C131.295 10.7821 131.359 10.6756 131.335 10.5076C131.302 10.3089 131.124 9.66074 130.811 8.5646L129.847 8.84727C129.808 9.10909 129.747 9.35623 129.657 9.59094L129.354 9.36726C129.499 8.92447 129.544 8.4236 129.481 7.8669L129.855 7.8071C129.88 8.0333 129.884 8.24865 129.878 8.45474L131.064 8.10675Z" fill="white"/>
<path d="M131.557 7.30694C131.879 7.43025 132.159 7.56642 132.396 7.71161L132.217 8.04237C132.005 7.89782 131.728 7.75666 131.381 7.62006L131.557 7.30694ZM134.804 10.0629C134.593 10.1272 134.363 10.1934 134.117 10.2644C133.867 10.3365 133.657 10.3755 133.485 10.3863C133.318 10.3871 133.156 10.3362 133.001 10.2411C132.928 10.1925 132.873 10.1759 132.827 10.1899C132.746 10.2144 132.661 10.4286 132.571 10.8325L132.227 10.6656C132.324 10.2974 132.437 10.0497 132.566 9.92644L132.236 8.8438L131.723 9.00035L131.62 8.66369L132.473 8.40317L132.915 9.84924C132.939 9.8587 132.964 9.87199 132.99 9.8891C133.109 9.96552 133.225 10.014 133.335 10.0345C133.467 10.053 133.645 10.0361 133.873 9.97478C134.093 9.91202 134.35 9.83757 134.649 9.74644C134.836 9.6892 135.026 9.62696 135.216 9.56472C135.406 9.50248 135.553 9.44927 135.654 9.41007L135.676 9.79655L134.804 10.0629ZM133.211 7.21603L132.472 7.4415L132.38 7.13928L134.48 6.4979L134.559 6.75422C134.395 7.01326 134.207 7.24636 133.997 7.46119C134.007 7.46651 134.015 7.468 134.025 7.47331L134.794 7.23849L135.313 8.93705C135.382 9.16276 135.291 9.31608 135.042 9.39202L134.748 9.48198L134.579 9.20312L134.855 9.13547C134.939 9.10977 134.972 9.05367 134.947 8.96951L134.887 8.7744L134.336 8.94263L134.528 9.57003L134.195 9.67167L134.003 9.04427L133.464 9.209L133.658 9.84405L133.314 9.94919L132.683 7.88337L133.563 7.61467C133.411 7.56906 133.242 7.5243 133.06 7.48803L133.211 7.21603ZM133.722 7.3568C133.858 7.22739 133.98 7.09002 134.087 6.9485L133.23 7.21019C133.403 7.25761 133.568 7.30354 133.722 7.3568ZM133.292 8.64664L133.374 8.91443L133.913 8.7497L133.832 8.48191L133.292 8.64664ZM134.164 8.38027L134.246 8.64806L134.797 8.47983L134.715 8.21204L134.164 8.38027ZM134.624 7.91365L134.542 7.64585L133.992 7.81408L134.073 8.08188L134.624 7.91365ZM133.74 8.18352L133.659 7.91572L133.119 8.08045L133.201 8.34824L133.74 8.18352Z" fill="white"/>
<path d="M138.51 5.50868L139.455 8.48207L139.105 8.59355L139.036 8.37626L138.368 8.58832L138.439 8.80942L138.088 8.9209L137.142 5.9437L138.51 5.50868ZM138.261 8.24905L138.928 8.03699L138.267 5.95943L137.6 6.17149L138.261 8.24905ZM135.917 6.83235C135.89 7.05082 135.847 7.25768 135.791 7.45172L135.41 7.35026C135.54 6.91437 135.593 6.47361 135.565 6.0292L135.948 5.99153C135.956 6.14851 135.953 6.29647 135.948 6.44062L136.989 6.10981L137.099 6.45671L136.581 6.62151C136.648 6.86028 136.707 7.08501 136.748 7.29432L137.343 7.10528L137.453 7.45218L136.809 7.65697C136.82 7.74568 136.828 7.8356 136.837 7.91669C137.145 8.07912 137.465 8.26702 137.801 8.47918L137.686 8.88492C137.343 8.62459 137.061 8.42457 136.841 8.28487C136.808 8.73602 136.645 9.16133 136.343 9.5594L136.015 9.34481C136.318 8.92526 136.463 8.48453 136.454 8.01759C136.446 7.94032 136.441 7.85802 136.432 7.77693L135.681 8.01565L135.57 7.66875L136.375 7.41307C136.333 7.20376 136.275 6.97903 136.207 6.74026L135.917 6.83235Z" fill="white"/>
<path d="M139.259 4.82332L140.633 6.33573L140.435 8.36941L140.086 8.33346L140.268 6.45661L139 5.06073L139.259 4.82332ZM139.908 4.60802L141.282 6.12043L141.084 8.1541L140.735 8.11815L140.917 6.2413L139.634 4.85046L139.908 4.60802Z" fill="white"/>
</svg>
