<svg width="55" height="32" viewBox="0 0 55 32" fill="none" xmlns="http://www.w3.org/2000/svg">
<path d="M6.84216 16.9279L7.21766 17.0416L6.6429 18.8313L7.59402 20.4449L7.27016 20.6393L6.23361 18.8785L6.84216 16.9279ZM7.53358 16.8482L7.89318 16.9637L7.33431 18.7515L8.28544 20.3652L7.96157 20.5596L6.92503 18.7987L7.53358 16.8482Z" fill="white"/>
<path d="M11.977 16.7778L12.1368 18.7955L11.738 18.8271L11.6061 17.1603L9.96719 17.2901L10.0992 18.9569L9.70041 18.9884L9.54065 16.9707L10.4378 16.8997C10.4815 16.7919 10.5131 16.6851 10.5285 16.5755L10.9437 16.5988C10.923 16.6928 10.8941 16.7833 10.8565 16.8666L11.977 16.7778ZM10.0973 17.8696L10.3127 17.8526C10.2544 17.7248 10.1934 17.6132 10.1337 17.5176L10.388 17.3852C10.4632 17.5236 10.5273 17.6751 10.5878 17.8308L10.6755 17.8238L10.6357 17.3214L10.9707 17.2949L11.0105 17.7973L11.0623 17.7932C11.1414 17.6264 11.2005 17.4613 11.2398 17.2977L11.5197 17.3878C11.4667 17.5285 11.4084 17.6535 11.3454 17.7708L11.5608 17.7537L11.5835 18.0408L11.0332 18.0844L11.0367 18.1283C11.2314 18.2051 11.431 18.2937 11.6358 18.3978L11.4702 18.6878C11.3073 18.5562 11.1666 18.451 11.0559 18.3715L11.0825 18.7065L10.7475 18.733L10.7172 18.3502C10.6025 18.5238 10.4664 18.679 10.313 18.8195L10.1178 18.5341C10.3326 18.4087 10.5102 18.2703 10.6584 18.1141L10.1201 18.1567L10.0973 17.8696ZM8.80396 16.7883C9.08197 16.9549 9.3241 17.1243 9.52604 17.2929L9.25065 17.6156C9.07726 17.4528 8.8388 17.2791 8.53161 17.0988L8.80396 16.7883ZM8.77574 17.7495C9.05407 17.9201 9.29221 18.0898 9.49079 18.2667L9.21908 18.5852C9.04935 18.418 8.8109 18.2443 8.50339 18.06L8.77574 17.7495ZM9.17998 18.8009L9.5582 18.9154C9.43512 19.4388 9.28958 19.9318 9.12158 20.3945L8.72121 20.2537C8.90422 19.7777 9.05837 19.292 9.17998 18.8009ZM9.5803 19.1945L10.7088 19.1052C10.7111 19.0328 10.7121 18.9444 10.7082 18.8444L11.099 18.8135C11.1065 18.9092 11.1052 18.9936 11.1035 19.0739L12.2759 18.9811L12.3036 19.332L11.3666 19.4062C11.6029 19.6042 11.9419 19.7298 12.3795 19.7834L12.2448 20.1593C11.6267 20.0557 11.2123 19.8397 10.9941 19.516C10.805 19.864 10.3896 20.1416 9.75224 20.3526L9.56401 20.0024C10.0423 19.8602 10.3735 19.6855 10.5531 19.4706L9.60808 19.5454L9.5803 19.1945Z" fill="white"/>
<path d="M12.5799 17.4652L14.0939 17.3872C14.1071 17.1782 14.1122 16.9657 14.1047 16.7418L14.0861 16.3823L14.5096 16.3604L14.5232 16.6241C14.5366 16.8838 14.5333 17.1323 14.5173 17.3654L16.1192 17.2828L16.1402 17.6903L14.6342 17.7679C14.9648 18.588 15.5293 19.2037 16.3317 19.619L16.0857 19.9761C15.3109 19.5514 14.7464 18.9357 14.4004 18.1284C14.1747 19.0332 13.6732 19.7159 12.8958 20.1766L12.6101 19.8388C13.3968 19.4057 13.8744 18.7243 14.043 17.7984L12.6009 17.8727L12.5799 17.4652Z" fill="white"/>
<path d="M16.5716 17.2948L17.3032 17.2686L17.2888 16.8688C17.0981 16.9077 16.9029 16.9347 16.7116 16.9576L16.5699 16.5784C17.2355 16.4985 17.7633 16.3715 18.1534 16.2014L18.3696 16.5379C18.1567 16.6255 17.9354 16.7055 17.7095 16.7697L17.7269 17.2534L18.4344 17.228L18.4489 17.6317L17.7414 17.6571L17.745 17.757C17.996 17.9482 18.2517 18.1591 18.5124 18.3979L18.2821 18.7824C18.0772 18.5376 17.9021 18.3438 17.7607 18.1968L17.8226 19.9196L17.3988 19.9349L17.3426 18.3679C17.1782 18.694 16.9768 18.9934 16.7307 19.2744L16.5212 18.7896C16.8855 18.4563 17.1524 18.0865 17.3179 17.6803L17.3177 17.6723L16.5861 17.6986L16.5716 17.2948ZM18.6586 16.5595L19.0743 16.5446L19.162 18.987L18.7463 19.0019L18.6586 16.5595ZM19.7041 19.8161L19.1085 19.8375L19.006 19.4369C19.1945 19.4461 19.3746 19.4477 19.5465 19.4415C19.6385 19.4382 19.6844 19.3805 19.6804 19.2686L19.5691 16.1666L19.9928 16.1514L20.108 19.3613C20.1185 19.6531 19.9839 19.8061 19.7041 19.8161Z" fill="white"/>
<path d="M20.708 16.3237L24.0339 16.2048L24.048 16.6005L23.0167 16.6374L23.1077 19.1837L24.263 19.1424L24.2776 19.5502L20.7038 19.6779L20.6893 19.2702L21.8365 19.2292L21.7455 16.6828L20.7222 16.7194L20.708 16.3237ZM22.2483 19.2145L22.696 19.1985L22.605 16.6521L22.1572 16.6681L22.2483 19.2145ZM23.6173 17.0922L23.9927 17.1789C23.8782 17.7833 23.7252 18.3171 23.5256 18.7806L23.161 18.6575C23.3423 18.2428 23.4957 17.721 23.6173 17.0922ZM21.1602 17.2161C21.3678 17.6489 21.5578 18.1505 21.7222 18.7169L21.362 18.8299C21.2075 18.3151 21.0219 17.8254 20.8008 17.353L21.1602 17.2161Z" fill="white"/>
<path d="M25.0674 16.0098C25.3333 16.1878 25.5592 16.3679 25.7453 16.5502L25.4771 16.853C25.3115 16.6777 25.0851 16.4895 24.7983 16.2966L25.0674 16.0098ZM24.5969 17.1726L25.5196 17.1231L25.6085 18.7808C25.7188 18.6707 25.8366 18.5522 25.9618 18.4213L26.1012 18.8545C25.8504 19.1083 25.5821 19.335 25.2968 19.5425L25.1169 19.1757C25.1816 19.1121 25.2135 19.0343 25.2088 18.9464L25.1336 17.5444L24.6184 17.572L24.5969 17.1726ZM26.0526 17.5753L28.0018 17.4708L28.0221 17.8502C27.9287 18.1997 27.761 18.5091 27.5189 18.7745C27.7751 18.921 28.0822 19.0447 28.4443 19.1495L28.2399 19.5209C27.8399 19.3822 27.499 19.2242 27.2248 19.0426C26.9251 19.279 26.555 19.4751 26.1068 19.6313L25.8562 19.2922C26.2612 19.1504 26.6006 18.9799 26.8783 18.7808C26.609 18.5389 26.4142 18.2689 26.3017 17.9625L26.074 17.9747L26.0526 17.5753ZM26.6931 17.9415C26.7932 18.1645 26.9481 18.3644 27.1657 18.537C27.3595 18.3424 27.5044 18.1303 27.6038 17.8927L26.6931 17.9415ZM26.2413 16.0149L27.6793 15.9378L27.7236 16.7646C27.7283 16.8525 27.7788 16.8979 27.8787 16.8925L28.2222 16.8741L28.2425 17.2536L27.7872 17.278C27.4876 17.294 27.3323 17.1622 27.3173 16.8826L27.2888 16.3513L26.6737 16.3843L26.6795 16.4921C26.7018 16.9075 26.5034 17.2426 26.092 17.489L25.7953 17.1845C26.1233 17.0267 26.2844 16.8178 26.2705 16.5581L26.2413 16.0149Z" fill="white"/>
<path d="M29.6992 16.8224L30.7272 16.7312L30.6247 15.5757L31.055 15.5375L31.1575 16.693L32.1337 16.6063L32.1704 17.0207L31.1943 17.1073L31.3838 19.2429L30.9535 19.2811L30.764 17.1455L29.736 17.2367L29.6992 16.8224ZM28.8983 15.761C29.1666 15.934 29.3991 16.1101 29.5954 16.2855L29.3343 16.6018C29.1666 16.4319 28.9302 16.2561 28.6289 16.0741L28.8983 15.761ZM28.4466 16.9616L29.3949 16.8775L29.5427 18.5429C29.6494 18.4331 29.763 18.3106 29.8836 18.1754L30.029 18.5922C29.7912 18.8542 29.5354 19.0938 29.2575 19.3112L29.0649 18.9508C29.1313 18.8847 29.1608 18.8098 29.1534 18.7261L29.0279 17.3116L28.482 17.3601L28.4466 16.9616Z" fill="white"/>
<path d="M32.8385 15.3734L33.2426 15.3169L33.3323 15.9587L34.0612 15.8567L34.1144 16.237L33.3855 16.339L33.4719 16.9569L34.0741 16.8727L34.2824 18.3622C34.5397 18.1809 34.7638 17.9637 34.958 17.7063C34.8956 17.5778 34.8361 17.4407 34.7743 17.2878C34.699 17.0963 34.6279 16.8761 34.5675 16.6179L34.0732 16.78L33.9612 16.4119L34.4787 16.2426C34.4095 15.9211 34.3472 15.5623 34.2918 15.1661L34.6879 15.1107C34.7451 15.4905 34.8041 15.8255 34.8649 16.1159L35.8461 15.7969L35.9582 16.165L34.9463 16.4963C35.0056 16.7465 35.0626 16.9526 35.1255 17.1134C35.1525 17.1904 35.1828 17.2629 35.208 17.3281C35.3502 17.0739 35.4727 16.7943 35.5714 16.4897L35.9222 16.6587C35.7745 17.0752 35.6031 17.4384 35.4082 17.7484C35.4464 17.8198 35.4876 17.8827 35.527 17.9337C35.6538 18.0897 35.7413 18.1663 35.7888 18.1597C35.8443 18.1519 35.8788 17.9653 35.8889 17.6044L36.2477 17.7441C36.224 18.2967 36.1151 18.5866 35.917 18.6143C35.7586 18.6364 35.5756 18.5409 35.3725 18.331C35.302 18.26 35.2338 18.1767 35.1719 18.0803C34.9414 18.367 34.6861 18.5925 34.4022 18.7574L34.1428 18.4908L33.1723 18.6265L33.2099 18.8959L32.8138 18.9513L32.5529 17.0855L33.0679 17.0134L32.8385 15.3734ZM33.1196 18.2502L33.8525 18.1477L33.7351 17.3079L33.0022 17.4104L33.1196 18.2502ZM35.1382 15.1245C35.3521 15.2966 35.523 15.4504 35.6465 15.5825L35.3709 15.8351C35.2451 15.6871 35.077 15.5248 34.8705 15.3477L35.1382 15.1245Z" fill="white"/>
<path d="M39.8287 16.2217C39.5246 16.155 39.2537 16.0721 39.014 15.9652C38.8346 16.1771 38.6204 16.3809 38.3703 16.5728L39.8287 16.2217ZM38.3039 16.6217C38.2688 16.6466 38.2337 16.6715 38.2024 16.6955L38.0175 16.5426L38.3274 17.8298L37.9852 17.9122L37.9505 17.7683L37.2739 17.9312L37.3085 18.0751L36.943 18.1631L36.2164 15.1453L37.6008 14.812L37.7628 15.4848C37.9301 15.2059 38.0525 14.8596 38.125 14.443L38.55 14.4312C38.5308 14.5223 38.5145 14.6085 38.4983 14.6947L39.4977 14.454L39.5726 14.7651C39.5252 15.081 39.412 15.3798 39.233 15.6615C39.498 15.7541 39.7934 15.8187 40.1151 15.8564L40.0272 16.2602C39.9759 16.252 39.9245 16.2438 39.88 16.2299L40.234 17.6999L39.8373 17.7954L39.8026 17.6515L39.0171 17.8406L39.0517 17.9845L38.6551 18.08L38.3039 16.6217ZM37.7974 15.6287L37.9753 16.3676C38.2428 16.1797 38.4706 15.9809 38.6518 15.7768C38.4974 15.6823 38.3586 15.5841 38.2382 15.4773C38.1809 15.598 38.1169 15.7081 38.0519 15.8142L37.7974 15.6287ZM38.8609 15.5002C38.9779 15.3197 39.0649 15.1342 39.1228 14.9475L38.3761 15.1273C38.3741 15.136 38.3712 15.1408 38.3721 15.1447C38.5125 15.2837 38.6764 15.4006 38.8609 15.5002ZM38.9263 17.4634L39.7118 17.2743L39.5695 16.6831L38.7839 16.8723L38.9263 17.4634ZM37.8663 17.4183L37.6434 16.4927L37.4606 16.5367L37.6835 17.4623L37.8663 17.4183ZM37.5591 16.1427L37.3475 15.2638L37.1647 15.3079L37.3764 16.1867L37.5591 16.1427ZM36.8459 15.3846L36.6709 15.4268L36.8825 16.3057L37.0575 16.2635L36.8459 15.3846ZM36.9667 16.6557L37.1896 17.5812L37.3646 17.5391L37.1417 16.6135L36.9667 16.6557Z" fill="white"/>
<path d="M41.1879 13.8827C41.4474 13.7886 41.689 13.7861 41.9127 13.8751C42.1327 13.9655 42.285 14.1273 42.3723 14.368C42.4568 14.6011 42.4429 14.8444 42.3395 15.0989C42.2751 15.2499 42.1389 15.461 41.9398 15.7332C41.7307 16.0132 41.6226 16.2312 41.6115 16.3884L42.9351 15.9084L43.0756 16.2957L41.2029 16.9748C41.1034 16.7003 41.104 16.432 41.2108 16.1635C41.2677 16.0152 41.4145 15.7748 41.6489 15.4472C41.7782 15.2642 41.8617 15.119 41.9083 15.0128C41.9772 14.8389 41.9855 14.6742 41.931 14.5238C41.8778 14.3771 41.7969 14.283 41.6958 14.2389C41.5909 14.1961 41.462 14.2045 41.3079 14.2604C41.1424 14.3204 41.0388 14.4218 40.9969 14.5646C40.9524 14.6999 40.9659 14.878 41.0347 15.0913L40.5948 15.2508C40.4895 14.9486 40.4887 14.6766 40.5948 14.4296C40.7007 14.17 40.8983 13.9877 41.1879 13.8827Z" fill="white"/>
<path d="M44.2795 15.1195C44.3599 15.0839 44.4371 15.0804 44.5215 15.113C44.6007 15.1436 44.6607 15.2001 44.6963 15.2806C44.732 15.361 44.7318 15.4398 44.7029 15.5226C44.667 15.5998 44.6142 15.6582 44.5337 15.6938C44.4532 15.7294 44.3708 15.7309 44.2969 15.7024C44.2125 15.6698 44.1577 15.6152 44.1221 15.5348C44.0865 15.4543 44.0813 15.3735 44.1155 15.2927C44.1408 15.2115 44.199 15.1552 44.2795 15.1195Z" fill="white"/>
<path d="M45.5016 12.0009C45.8004 11.8562 46.0936 11.8653 46.3849 12.0354C46.6583 12.1963 46.8927 12.4783 47.0879 12.8816C47.2832 13.2848 47.3591 13.6435 47.3158 13.9579C47.2668 14.2882 47.0938 14.5275 46.795 14.6722C46.4926 14.8186 46.1976 14.8059 45.9117 14.6377C45.6382 14.4768 45.4039 14.1947 45.2086 13.7915C45.0134 13.3883 44.9375 13.0295 44.9808 12.7152C45.0244 12.383 45.1991 12.1473 45.5016 12.0009ZM45.6741 12.3573C45.4689 12.4567 45.379 12.638 45.4077 12.9085C45.4251 13.0912 45.4991 13.3176 45.6299 13.5876C45.7589 13.854 45.8905 14.0524 46.0248 14.183C46.2174 14.3697 46.4172 14.4152 46.6224 14.3158C46.8241 14.2182 46.9123 14.0332 46.8889 13.7646C46.8698 13.5783 46.7957 13.3519 46.6667 13.0855C46.536 12.8155 46.4043 12.617 46.2718 12.4901C46.0738 12.3016 45.8757 12.2597 45.6741 12.3573Z" fill="white"/>
<path d="M47.3154 10.6663L48.8308 12.0369L48.833 14.0802L48.4553 14.0774L48.4543 12.2043L47.0644 10.9486L47.3154 10.6663ZM47.9513 10.3836L49.4668 11.7542L49.469 13.7975L49.0913 13.7947L49.0903 11.9215L47.6858 10.6724L47.9513 10.3836Z" fill="white"/>
<g clip-path="url(#clip0_255_5593)">
<path d="M0.800049 17.4363L4.7508 16.8106L5.37654 20.7613L1.42579 21.3871L0.800049 17.4363Z" fill="#00008B"/>
<path d="M2.77543 17.1235L2.81453 17.3704L2.19881 18.2272L3.04613 18.8326L3.08829 19.0988L2.8298 19.1398L1.97801 18.5312L1.37527 19.3701L1.11292 19.4117L1.07136 19.1493L1.67471 18.3142L0.845268 17.7218L0.800049 17.4363L1.03925 17.3984L1.8949 18.0064L2.49764 17.1675L2.77543 17.1235Z" fill="white"/>
<path d="M1.70794 18.5739L1.77115 18.6984L1.27496 19.386L1.11292 19.4117L1.11108 19.4001L1.70794 18.5739ZM2.17902 18.4519L2.39224 18.4497L3.0608 18.9252L3.08829 19.0988L2.17902 18.4519ZM2.77543 17.1235L2.15443 17.997L2.11211 17.8297L2.59795 17.1516L2.77543 17.1235ZM0.80066 17.4402L1.66078 18.0514L1.42826 18.0566L0.829991 17.6254L0.80066 17.4402Z" fill="#FF0000"/>
<path d="M1.47908 17.3288L1.79195 19.3042L2.40926 19.2064L2.09639 17.231L1.47908 17.3288ZM0.907598 18.1154L1.00537 18.7327L2.98075 18.4198L2.88297 17.8025L0.907598 18.1154Z" fill="white"/>
<path d="M0.927152 18.2388L0.985815 18.6092L2.96119 18.2963L2.90253 17.926L0.927152 18.2388ZM1.60255 17.3092L1.91541 19.2846L2.2858 19.2259L1.97293 17.2506L1.60255 17.3092Z" fill="#FF0000"/>
<path d="M2.85107 20.2976L2.50426 20.3952L2.59585 20.7438L2.30316 20.5339L2.08787 20.8227L2.06959 20.4625L1.70909 20.4737L1.97895 20.2348L1.7456 19.9601L2.10036 20.0226L2.16924 19.6684L2.34201 19.9851L2.66125 19.8182L2.52165 20.1504L2.85172 20.2967L2.85107 20.2976ZM4.57927 20.0871L4.42426 20.1323L4.46629 20.2878L4.33449 20.1947L4.23878 20.3246L4.22916 20.1639L4.06804 20.1705L4.18785 20.0629L4.08235 19.9412L4.24153 19.9674L4.27094 19.8085L4.34944 19.9495L4.49172 19.874L4.43067 20.0229L4.57927 20.0871ZM4.36118 19.1946L4.36613 19.091L4.27951 19.0336L4.37953 19.0059L4.40718 18.9058L4.46441 18.9924L4.5681 18.9879L4.50348 19.0693L4.5402 19.1663L4.44263 19.1295L4.36118 19.1946ZM3.63891 18.8344L3.48496 18.8762L3.52366 19.0307L3.39482 18.9364L3.29785 19.0633L3.29156 18.9037L3.13239 18.9076L3.25269 18.8031L3.15028 18.6809L3.30751 18.7098L3.33973 18.5536L3.41501 18.6943L3.55701 18.622L3.49405 18.7688L3.63891 18.8344ZM4.95535 18.3665L4.79738 18.4129L4.84067 18.5713L4.70619 18.4764L4.60853 18.6089L4.59907 18.4443L4.43487 18.4513L4.55739 18.3409L4.44987 18.2164L4.61238 18.2436L4.6422 18.0823L4.72195 18.2263L4.86707 18.1487L4.80419 18.3011L4.95535 18.3665ZM4.2198 17.8225L4.06288 17.8656L4.10296 18.0237L3.97144 17.9275L3.87253 18.0571L3.86575 17.8944L3.7026 17.8981L3.82573 17.7916L3.72129 17.6666L3.88173 17.6957L3.91423 17.5363L3.99078 17.68L4.13562 17.6057L4.07148 17.7551L4.2198 17.8225Z" fill="white"/>
</g>
<defs>
<clipPath id="clip0_255_5593">
<rect x="0.800049" y="17.4363" width="4" height="4" rx="2" transform="rotate(-9 0.800049 17.4363)" fill="white"/>
</clipPath>
</defs>
</svg>
