<svg width="88" height="25" viewBox="0 0 88 25" fill="none" xmlns="http://www.w3.org/2000/svg">
<path d="M6.16661 4.28726L6.54682 4.38408L6.05266 6.19762L7.075 7.76714L6.76015 7.97581L5.64589 6.26307L6.16661 4.28726ZM6.85377 4.17668L7.21818 4.27605L6.73982 6.08705L7.76216 7.65656L7.44731 7.86523L6.33305 6.1525L6.85377 4.17668Z" fill="white"/>
<path d="M11.1966 3.87541L11.4704 5.88081L11.0741 5.93491L10.8479 4.27828L9.21904 4.50064L9.44519 6.15728L9.04887 6.21138L8.7751 4.20598L9.66683 4.08425C9.70428 3.97417 9.72985 3.86572 9.73902 3.75546L10.1548 3.75522C10.1395 3.85016 10.1157 3.94222 10.083 4.02744L11.1966 3.87541ZM9.3818 5.07188L9.59581 5.04266C9.5304 4.91837 9.46319 4.81047 9.39814 4.71842L9.64456 4.57174C9.72745 4.70576 9.80008 4.85329 9.86928 5.00533L9.95647 4.99343L9.8883 4.49406L10.2212 4.44861L10.2894 4.94798L10.3409 4.94095C10.4104 4.76997 10.4601 4.6017 10.49 4.43614L10.7746 4.51032C10.7296 4.65373 10.6785 4.78182 10.6223 4.90253L10.8363 4.87332L10.8753 5.15867L10.3283 5.23333L10.3343 5.27693C10.533 5.34265 10.7373 5.41973 10.9477 5.51211L10.7988 5.81101C10.6287 5.68889 10.4822 5.59181 10.3673 5.51869L10.4127 5.8516L10.0798 5.89705L10.0279 5.51658C9.92324 5.69638 9.79608 5.85908 9.6509 6.00808L9.4399 5.7341C9.64724 5.5968 9.81674 5.44851 9.95579 5.28419L9.42075 5.35723L9.3818 5.07188ZM8.02925 4.06558C8.31626 4.21614 8.56759 4.37157 8.77875 4.52845L8.52209 4.86627C8.33975 4.71353 8.09184 4.5536 7.77493 4.39097L8.02925 4.06558ZM8.05552 5.02686C8.34306 5.18139 8.59043 5.33736 8.79871 5.50271L8.54547 5.83602C8.36656 5.67878 8.11865 5.51884 7.80119 5.35225L8.05552 5.02686ZM8.51866 6.05365L8.90276 6.14655C8.80952 6.67603 8.69213 7.1765 8.5506 7.64798L8.14291 7.53004C8.29866 7.04451 8.42506 6.55088 8.51866 6.05365ZM8.94063 6.42398L10.0622 6.27086C10.0604 6.19844 10.0564 6.11017 10.0469 6.01055L10.4353 5.95752C10.4483 6.05264 10.4517 6.13695 10.4546 6.2173L11.6198 6.05823L11.6674 6.407L10.736 6.53414C10.9832 6.7184 11.3288 6.82464 11.7687 6.8534L11.6554 7.23623C11.0325 7.16787 10.6066 6.97571 10.3703 6.66481C10.2012 7.02297 9.80225 7.3237 9.17788 7.57042L8.97011 7.23141C9.43956 7.06236 9.76038 6.86919 9.92753 6.64452L8.98824 6.77274L8.94063 6.42398Z" fill="white"/>
<path d="M11.7954 4.52907L13.3019 4.35975C13.3025 4.15037 13.2947 3.93791 13.2737 3.71486L13.2335 3.35711L13.6548 3.30976L13.6843 3.5721C13.7134 3.83048 13.7252 4.07871 13.7233 4.31239L15.3172 4.13324L15.3628 4.53868L13.8642 4.70711C14.2438 5.50572 14.8444 6.08627 15.6704 6.45229L15.4465 6.82363C14.6474 6.44652 14.0468 5.86597 13.6527 5.08108C13.482 5.99788 13.0226 6.70964 12.2745 7.21637L11.9689 6.8965C12.7281 6.41671 13.1636 5.70763 13.2759 4.77324L11.841 4.93452L11.7954 4.52907Z" fill="white"/>
<path d="M15.7705 4.11483L16.4996 4.04993L16.4642 3.6515C16.2758 3.7004 16.0823 3.7377 15.8925 3.77066L15.7309 3.39952C16.3913 3.28451 16.9117 3.12977 17.2923 2.93928L17.526 3.26384C17.3179 3.36267 17.1012 3.45425 16.8791 3.53024L16.922 4.01234L17.6272 3.94957L17.663 4.35197L16.9578 4.41475L16.9666 4.51435C17.2274 4.69193 17.4939 4.88908 17.7669 5.11376L17.5572 5.50991C17.3397 5.27628 17.1546 5.09196 17.0057 4.95262L17.1585 6.66983L16.7362 6.70742L16.5972 5.1456C16.4502 5.47994 16.2649 5.78959 16.0341 6.08321L15.7992 5.61017C16.1454 5.2581 16.3923 4.87469 16.5362 4.46031L16.5355 4.45234L15.8063 4.51724L15.7705 4.11483ZM17.8157 3.27018L18.23 3.23329L18.4467 5.66767L18.0324 5.70455L17.8157 3.27018ZM19.0319 6.46694L18.4382 6.51978L18.3148 6.12517C18.5034 6.12444 18.6834 6.11645 18.8548 6.1012C18.9464 6.09304 18.9893 6.03301 18.9793 5.92145L18.7041 2.82967L19.1265 2.79208L19.4112 5.99143C19.4371 6.28228 19.3108 6.44211 19.0319 6.46694Z" fill="white"/>
<path d="M19.9036 2.92397L23.2242 2.70222L23.2506 3.09734L22.2209 3.1661L22.3907 5.70844L23.5441 5.63142L23.5713 6.03851L20.0033 6.27678L19.9761 5.86969L21.1215 5.7932L20.9517 3.25086L19.93 3.31909L19.9036 2.92397ZM21.5326 5.76575L21.9796 5.73589L21.8098 3.19356L21.3628 3.22341L21.5326 5.76575ZM22.8353 3.60213L23.2132 3.67712C23.1175 4.28485 22.981 4.82314 22.7959 5.29252L22.4276 5.18081C22.596 4.76066 22.7332 4.23434 22.8353 3.60213ZM20.3832 3.80197C20.6041 4.2282 20.8096 4.72361 20.9914 5.28474L20.6348 5.40877C20.4645 4.89899 20.2638 4.41529 20.0283 3.94995L20.3832 3.80197Z" fill="white"/>
<path d="M24.2116 2.49729C24.4763 2.67714 24.701 2.85886 24.8858 3.04244L24.6155 3.34337C24.4511 3.16685 24.226 2.97714 23.9406 2.78223L24.2116 2.49729ZM23.7332 3.65686L24.6561 3.61377L24.7336 5.27196C24.8446 5.16267 24.9632 5.045 25.0893 4.91498L25.2257 5.34909C24.9732 5.60115 24.7034 5.82597 24.4166 6.03157L24.2393 5.66344C24.3044 5.60033 24.3368 5.52274 24.3327 5.43483L24.2672 4.03236L23.7518 4.05642L23.7332 3.65686ZM25.186 4.06955L27.1359 3.97852L27.1536 4.35811C27.0577 4.70696 26.8879 5.01521 26.644 5.27887C26.8992 5.42714 27.2054 5.55299 27.5668 5.66025L27.3598 6.03031C26.9608 5.88876 26.6209 5.72844 26.3481 5.54496C26.0467 5.77928 25.6753 5.97281 25.2259 6.12593L24.9778 5.78513C25.3837 5.64605 25.7242 5.47798 26.0034 5.28075C25.7357 5.03697 25.5428 4.76567 25.4324 4.45849L25.2046 4.46912L25.186 4.06955ZM25.824 4.4402C25.9225 4.66385 26.076 4.86491 26.2924 5.03901C26.4876 4.8457 26.6339 4.63464 26.735 4.39767L25.824 4.4402ZM25.3855 2.51055L26.8239 2.4434L26.8625 3.2705C26.8666 3.3584 26.9168 3.40411 27.0167 3.39945L27.3603 3.3834L27.3781 3.76299L26.9226 3.78426C26.6229 3.79825 26.4685 3.6653 26.4555 3.38561L26.4307 2.85418L25.8153 2.88291L25.8204 2.9908C25.8398 3.40634 25.6391 3.74006 25.226 3.98359L24.9314 3.677C25.2605 3.52148 25.423 3.31368 25.4109 3.05396L25.3855 2.51055Z" fill="white"/>
<path d="M29.111 3.3971L30.1426 3.36793L30.1099 2.2084L30.5417 2.19619L30.5745 3.35572L31.5541 3.32803L31.5658 3.74386L30.5862 3.77156L30.6468 5.9147L30.215 5.92691L30.1544 3.78377L29.1228 3.81293L29.111 3.3971ZM28.3755 2.28944C28.6329 2.47824 28.8543 2.66806 29.0397 2.8549L28.7601 3.15492C28.6029 2.97529 28.3775 2.78559 28.0877 2.58569L28.3755 2.28944ZM27.8523 3.4607L28.804 3.43379L28.8512 5.10512C28.9643 5.00189 29.0851 4.88643 29.2136 4.75874L29.3336 5.18352C29.0805 5.43077 28.8107 5.65449 28.5203 5.85478L28.3497 5.48345C28.42 5.42144 28.4539 5.34845 28.4516 5.26448L28.4114 3.84505L27.8636 3.86054L27.8523 3.4607Z" fill="white"/>
<path d="M35.0779 3.66231C35.1936 3.94886 35.3015 4.25551 35.3937 4.58237L35.0835 4.73032C35.0039 4.44331 34.9206 4.18835 34.8377 3.95739C34.8385 4.64944 34.8242 5.10165 34.803 5.31794C34.767 5.63842 34.5691 5.80496 34.2132 5.80949C34.1492 5.8103 34.0451 5.80362 33.8969 5.78951L33.7881 5.41086C33.9202 5.42118 34.0363 5.42771 34.1323 5.42648C34.2883 5.4245 34.379 5.32334 34.4045 5.127C34.4222 4.94676 34.4261 4.31066 34.4202 3.21864L34.0363 3.22353L34.0363 3.22753C34.0356 4.42763 33.7307 5.30758 33.1178 5.86743L32.7983 5.59147C33.356 5.09634 33.6341 4.31273 33.6283 3.23272L33.6283 3.22872L32.9963 3.23676L32.9911 2.82879L33.6231 2.82075L33.6149 2.1808L34.0229 2.17561L34.0311 2.81556L34.831 2.80538C34.8354 3.15335 34.8354 3.46538 34.839 3.74536L35.0779 3.66231ZM33.0339 3.67632L33.363 3.75614C33.2571 4.23752 33.1017 4.60353 32.897 4.86216L32.6097 4.60179C32.8143 4.33917 32.9544 4.02936 33.0339 3.67632ZM31.6382 3.07403L32.0581 3.06869L32.047 2.19276L32.4429 2.18772L32.4541 3.06365L32.8581 3.05851L32.863 3.44648L32.459 3.45162L32.4897 5.86342L32.0937 5.86846L32.0631 3.45665L31.6431 3.462L31.6382 3.07403Z" fill="white"/>
<path d="M37.3741 2.11403L37.6781 2.11437C38.1775 2.66292 38.753 3.09556 39.4086 3.40829L39.1802 3.81604C38.9483 3.69578 38.7325 3.55954 38.5286 3.41531L38.5283 3.70331L36.5323 3.7011L36.5326 3.3971C36.3205 3.54486 36.0923 3.68461 35.8522 3.81634L35.6286 3.4081C36.329 3.06487 36.9095 2.63352 37.3741 2.11403ZM36.6527 3.30923L38.3927 3.31116C38.065 3.0668 37.7773 2.79448 37.5257 2.4902C37.2773 2.78592 36.989 3.0616 36.6527 3.30923ZM35.9039 4.1084L39.1519 4.112L39.1514 4.52L37.2914 4.51794C37.1231 4.82975 36.9268 5.10554 36.7025 5.33729C37.2425 5.30589 37.7706 5.26247 38.2826 5.20304C38.1668 5.05891 38.043 4.91077 37.9111 4.75863L38.2354 4.55499C38.5989 4.94739 38.8785 5.2917 39.0782 5.57992L38.73 5.82354C38.6621 5.71946 38.5902 5.61138 38.5143 5.5073C37.8942 5.60261 37.1221 5.67775 36.1941 5.73272L36.0825 5.3686C36.1825 5.34471 36.2545 5.30479 36.2986 5.25684C36.4988 5.02106 36.6671 4.77325 36.8074 4.5174L35.9034 4.5164L35.9039 4.1084Z" fill="white"/>
<path d="M40.5856 2.94532C40.414 3.22315 40.1991 3.45241 39.9446 3.64117L39.6692 3.28161C40.069 2.99071 40.342 2.59817 40.4844 2.09996L40.9154 2.18549C40.8777 2.31301 40.8362 2.43249 40.7908 2.54392L43.2026 2.57482L43.1974 2.97879L41.9815 2.96321L41.9749 3.47917L43.0508 3.49295L43.0458 3.88492L41.9698 3.87113L41.9604 4.61107L43.2963 4.62819L43.291 5.03616L41.9551 5.01904L41.9442 5.87097L41.5243 5.86559L41.5352 5.01366L39.7353 4.9906L39.7405 4.58263L40.3565 4.59052L40.371 3.45862L41.5549 3.47378L41.5615 2.95783L40.5856 2.94532ZM40.7765 4.5959L41.5404 4.60569L41.5499 3.86575L40.7859 3.85596L40.7765 4.5959Z" fill="white"/>
<path d="M44.6384 4.39021L47.0214 4.45967L47.0124 4.76754C46.8098 4.99373 46.572 5.18689 46.2951 5.35089C46.6195 5.48039 46.9969 5.57543 47.4231 5.64387L47.2324 6.00647C46.7072 5.90313 46.2554 5.7539 45.8849 5.55902C45.4797 5.73129 45.0119 5.85372 44.4856 5.92641L44.3165 5.54933C44.746 5.50582 45.1325 5.42505 45.476 5.311C45.2487 5.14431 45.058 4.95868 44.9039 4.7541L44.6281 4.74606L44.6384 4.39021ZM45.3597 4.76739C45.5036 4.91164 45.6719 5.0406 45.8688 5.15038C46.0799 5.04849 46.2714 4.93002 46.4433 4.79897L45.3597 4.76739ZM44.5141 3.57425L44.5087 3.76217C44.467 4.64133 44.3065 5.34495 44.019 5.87279L43.7114 5.57971C43.9321 5.14596 44.062 4.53348 44.0928 3.75005L44.1307 2.4506L45.6341 2.49442C45.5964 2.41328 45.5547 2.33603 45.5088 2.26267L45.9547 2.20363C45.9921 2.29276 46.0332 2.394 46.0699 2.50712L47.4053 2.54604L47.3939 2.93788L44.5351 2.85455L44.5253 3.19041L45.0931 3.20696L45.1003 2.95906L45.5081 2.97095L45.5009 3.21884L46.3885 3.24471L46.3959 2.99282L46.7997 3.00459L46.7924 3.25648L47.3841 3.27373L47.3729 3.65757L46.7812 3.64032L46.7632 4.25606L45.064 4.20653L45.0819 3.59079L44.5141 3.57425ZM45.4897 3.60268L45.4818 3.87456L46.3694 3.90044L46.3774 3.62855L45.4897 3.60268Z" fill="white"/>
<path d="M49.3196 3.96351L49.2832 4.37791C49.1421 4.42977 48.9971 4.48128 48.8563 4.52916L48.7577 5.65284C48.7339 5.92379 48.5862 6.05136 48.3232 6.02827L47.9446 5.99504L47.884 5.58817C47.9981 5.61426 48.1047 5.63566 48.2083 5.64475C48.2959 5.65245 48.3479 5.60883 48.3563 5.5132L48.4316 4.6565C48.2586 4.70556 48.0824 4.7463 47.9105 4.78341L47.8429 4.36389C48.0539 4.33825 48.2621 4.30031 48.4672 4.25006L48.5386 3.43719L48.0087 3.39066L48.0433 2.99617L48.5732 3.0427L48.6327 2.36531L49.0431 2.40134L48.9837 3.07874L49.3861 3.11407L49.3515 3.50855L48.949 3.47322L48.8917 4.12671C49.0327 4.07485 49.1778 4.02334 49.3196 3.96351ZM49.8232 4.40123L49.6686 6.16246L49.2741 6.12782L49.5869 2.56553L51.4597 2.72995C51.4177 3.20812 51.3615 3.52842 51.2957 3.68326C51.2266 3.82978 51.0566 3.89115 50.7856 3.86736L50.4828 3.84077L50.4023 3.47634C50.4621 3.48159 50.5375 3.49222 50.6291 3.50027C50.7208 3.50831 50.7888 3.51027 50.8374 3.5065C50.8783 3.49805 50.9162 3.47729 50.9436 3.43954C50.9721 3.38984 51.0028 3.26806 51.0283 3.06953L49.9485 2.97472L49.8565 4.02269L51.3587 4.15458L51.3272 4.5132C51.2321 4.91041 51.0781 5.24623 50.8657 5.51668C51.0313 5.68783 51.2299 5.84982 51.4614 6.00265L51.1542 6.30092C50.9396 6.13753 50.7577 5.96897 50.6043 5.79489C50.4046 5.96608 50.1761 6.0986 49.9186 6.19645L49.7515 5.81237C49.9841 5.72438 50.1833 5.60534 50.3487 5.45925C50.1289 5.12675 50.0029 4.7784 49.9746 4.41453L49.8232 4.40123ZM50.3412 4.44671C50.3706 4.70628 50.4576 4.95082 50.6021 5.18034C50.7438 4.98398 50.8561 4.75693 50.9349 4.49884L50.3412 4.44671Z" fill="white"/>
<path d="M55.1964 5.33352L54.9571 6.85077L54.5383 6.78472L54.5676 6.59902L52.7263 6.30866L52.697 6.49436L52.2782 6.42832L52.5175 4.91107L55.1964 5.33352ZM52.7874 5.92144L54.6286 6.2118L54.7165 5.65469L52.8752 5.36433L52.7874 5.92144ZM53.024 3.72752C52.8616 3.88414 52.6781 4.02122 52.4811 4.13999L52.2873 3.77737C52.6792 3.55166 52.9665 3.24468 53.1526 2.86097L53.556 2.97319C53.4889 3.11648 53.4118 3.24605 53.3274 3.37042L53.9437 3.46762L54.0247 2.95397L54.4396 3.01939L54.3586 3.53304L55.6032 3.72932L55.5409 4.12443L54.2963 3.92816L54.2159 4.43786L55.7648 4.68211L55.7012 5.08513L52.0899 4.51563L52.1534 4.11261L53.8011 4.37244L53.8814 3.86274L53.024 3.72752Z" fill="white"/>
<path d="M57.1439 4.31906C57.2295 4.3394 57.2931 4.38328 57.3405 4.46033C57.385 4.53257 57.3986 4.61391 57.3783 4.69953C57.358 4.78515 57.3102 4.8478 57.2379 4.89232C57.1618 4.9359 57.0844 4.9504 56.9987 4.93007C56.9131 4.90973 56.8466 4.86104 56.8021 4.7888C56.7576 4.71656 56.7469 4.64003 56.7673 4.55442C56.7876 4.4688 56.8324 4.40132 56.9047 4.35681C56.9778 4.30841 57.0582 4.29873 57.1439 4.31906ZM56.8056 5.74344C56.8912 5.76378 56.9548 5.80765 57.0022 5.88471C57.0468 5.95695 57.0603 6.03829 57.04 6.12391C57.0197 6.20953 56.9719 6.27218 56.8997 6.3167C56.8235 6.36028 56.7461 6.37478 56.6605 6.35445C56.5748 6.33411 56.5083 6.28542 56.4638 6.21318C56.4193 6.14093 56.4087 6.06441 56.429 5.97879C56.4493 5.89318 56.4941 5.8257 56.5664 5.78119C56.6395 5.73279 56.7199 5.72311 56.8056 5.74344Z" fill="white"/>
<path d="M61.7581 5.13359C62.0212 5.21675 62.2145 5.36174 62.3379 5.56854C62.4575 5.77414 62.48 5.99517 62.4028 6.23927C62.3281 6.47575 62.1691 6.66041 61.9322 6.79948C61.7892 6.88015 61.5527 6.96482 61.2291 7.05971C60.8928 7.1548 60.6743 7.26196 60.5699 7.37998L61.9125 7.80425L61.7883 8.1971L59.8889 7.59686C59.9769 7.31843 60.1406 7.10586 60.3887 6.95776C60.5241 6.87467 60.7869 6.77315 61.1721 6.65578C61.3862 6.58918 61.5407 6.52477 61.6423 6.46878C61.8028 6.37265 61.9096 6.247 61.9578 6.09444C62.0048 5.94569 61.9978 5.82182 61.9444 5.72525C61.8872 5.62747 61.7798 5.55578 61.6235 5.50636C61.4556 5.45332 61.3117 5.47076 61.1916 5.55867C61.074 5.63894 60.9764 5.78848 60.9013 5.99966L60.455 5.85864C60.5552 5.55472 60.7201 5.33834 60.9546 5.2069C61.1966 5.06521 61.4644 5.04078 61.7581 5.13359Z" fill="white"/>
<path d="M64.5623 6.11834C64.8719 6.23837 65.0651 6.45917 65.1391 6.7882C65.2078 7.09797 65.1611 7.46171 64.9992 7.8794C64.8372 8.2971 64.6264 8.5972 64.3669 8.77972C64.0918 8.96908 63.7988 9.00561 63.4893 8.88558C63.176 8.7641 62.9842 8.53957 62.9124 8.21572C62.8438 7.90595 62.8904 7.54221 63.0524 7.12452C63.2144 6.70682 63.4251 6.40671 63.6847 6.2242C63.9575 6.02967 64.249 5.99686 64.5623 6.11834ZM64.4191 6.48755C64.2066 6.40512 64.0126 6.46289 63.8342 6.66831C63.7124 6.80554 63.5972 7.01401 63.4888 7.29371C63.3817 7.56969 63.3262 7.8013 63.3223 7.98853C63.317 8.25675 63.4199 8.43393 63.6324 8.51637C63.8413 8.59735 64.0367 8.53585 64.2174 8.33561C64.3407 8.19465 64.4558 7.98618 64.5628 7.71021C64.6713 7.4305 64.7268 7.19889 64.7293 7.01539C64.7323 6.742 64.628 6.56854 64.4191 6.48755Z" fill="white"/>
<path d="M67.5222 7.37823C67.7724 7.4947 67.9453 7.66345 68.041 7.88446C68.1331 8.10379 68.1268 8.32587 68.0187 8.55796C67.9141 8.7828 67.7325 8.94536 67.4796 9.05266C67.3274 9.11419 67.082 9.1676 66.7488 9.21988C66.403 9.27072 66.1726 9.34876 66.0538 9.4523L67.3303 10.0465L67.1564 10.42L65.3505 9.57938C65.4737 9.31465 65.6634 9.12501 65.9287 9.01021C66.0736 8.9453 66.3473 8.87858 66.7445 8.81198C66.9653 8.77358 67.127 8.72968 67.2349 8.68729C67.4064 8.61269 67.5286 8.5019 67.5961 8.35684C67.662 8.21541 67.671 8.09168 67.6306 7.98902C67.5865 7.88467 67.4892 7.7997 67.3406 7.7305C67.181 7.65623 67.036 7.65492 66.9056 7.72657C66.7785 7.79098 66.6624 7.92666 66.5607 8.12636L66.1364 7.92887C66.275 7.64044 66.4665 7.44718 66.716 7.34713C66.9742 7.23789 67.2429 7.24826 67.5222 7.37823Z" fill="white"/>
<path d="M69.7651 8.55709L70.0761 8.72186L68.7392 11.2456L68.3257 11.0265L69.3986 9.00118C69.1736 9.05851 68.9284 9.05991 68.6595 9.00348L68.8767 8.59346C69.0048 8.6251 69.1512 8.63928 69.3159 8.636C69.4843 8.62564 69.6334 8.60052 69.7651 8.55709Z" fill="white"/>
<path d="M70.3214 10.7131L72.0553 11.7494L71.8624 12.0721L70.1285 11.0358L70.3214 10.7131Z" fill="white"/>
<path d="M74.6118 11.4058C74.8407 11.5601 74.985 11.7539 75.0448 11.9872C75.1012 12.2183 75.0602 12.4366 74.917 12.6489C74.7784 12.8545 74.5735 12.9865 74.3069 13.0528C74.147 13.0897 73.8962 13.1039 73.5589 13.1032C73.2095 13.0991 72.9696 13.14 72.8361 13.2236L74.0034 14.0108L73.7731 14.3524L72.1215 13.2387C72.2848 12.9966 72.5019 12.8391 72.7819 12.7674C72.9352 12.726 73.216 12.7031 73.6187 12.6997C73.8429 12.6964 74.0094 12.6785 74.1227 12.6535C74.3037 12.6068 74.4418 12.5165 74.5312 12.3839C74.6185 12.2545 74.6468 12.1338 74.623 12.026C74.5958 11.9161 74.5132 11.8169 74.3772 11.7252C74.2313 11.6268 74.0883 11.6027 73.9482 11.653C73.8126 11.6967 73.6767 11.8125 73.5448 11.9937L73.1568 11.7321C73.339 11.469 73.5584 11.3082 73.8205 11.2485C74.0927 11.1812 74.3565 11.2336 74.6118 11.4058Z" fill="white"/>
<path d="M77.2584 13.2918C77.5237 13.4913 77.6498 13.7563 77.6318 14.093C77.6138 14.4098 77.4702 14.7472 77.2009 15.1053C76.9317 15.4634 76.6474 15.695 76.3481 15.8002C76.0319 15.9078 75.74 15.8635 75.4746 15.664C75.2061 15.462 75.0824 15.1939 75.1012 14.8627C75.1192 14.5459 75.2628 14.2085 75.5321 13.8504C75.8013 13.4924 76.0856 13.2607 76.385 13.1555C76.7003 13.0423 76.9898 13.0898 77.2584 13.2918ZM77.0204 13.6083C76.8382 13.4713 76.6358 13.4742 76.4084 13.6235C76.2539 13.7225 76.0864 13.8919 75.9061 14.1317C75.7282 14.3683 75.612 14.5761 75.5574 14.7553C75.4794 15.012 75.5304 15.2104 75.7126 15.3475C75.8917 15.4821 76.0965 15.4759 76.3246 15.3322C76.4816 15.23 76.649 15.0606 76.8269 14.824C77.0072 14.5843 77.1234 14.3764 77.1757 14.2005C77.2528 13.9382 77.1994 13.7429 77.0204 13.6083Z" fill="white"/>
<path d="M79.6243 15.1518C79.8377 15.3268 79.9633 15.5332 80.001 15.7711C80.0356 16.0064 79.9742 16.22 79.8119 16.4179C79.6546 16.6096 79.4383 16.722 79.1667 16.763C79.004 16.7848 78.753 16.7754 78.4172 16.7432C78.0697 16.7065 77.8271 16.7248 77.6863 16.7955L78.7749 17.6885L78.5137 18.007L76.9735 16.7437C77.1586 16.518 77.3896 16.3815 77.675 16.3362C77.8315 16.3094 78.1133 16.3128 78.5145 16.3471C78.738 16.3648 78.9054 16.3625 79.0206 16.3483C79.2052 16.3187 79.3511 16.2417 79.4526 16.118C79.5515 15.9974 79.591 15.8798 79.5774 15.7703C79.5606 15.6583 79.4876 15.5518 79.3608 15.4478C79.2247 15.3362 79.0846 15.2989 78.9405 15.3358C78.8014 15.3666 78.6552 15.4692 78.507 15.6373L78.1451 15.3405C78.3511 15.0956 78.5846 14.956 78.8512 14.9212C79.1285 14.8796 79.3862 14.9564 79.6243 15.1518Z" fill="white"/>
<path d="M81.9853 17.1642C82.1921 17.347 82.3099 17.558 82.3388 17.7971C82.3648 18.0335 82.2956 18.2446 82.1261 18.4364C81.9618 18.6223 81.7415 18.7265 81.4686 18.7575C81.3052 18.7733 81.0547 18.7547 80.7204 18.7101C80.3744 18.6606 80.1313 18.6699 79.988 18.7354L81.043 19.6679L80.7701 19.9766L79.2775 18.6574C79.4709 18.4386 79.7067 18.3107 79.9936 18.276C80.151 18.255 80.4324 18.2688 80.8322 18.3178C81.0548 18.3438 81.2223 18.3476 81.3378 18.3377C81.5235 18.3149 81.6721 18.2434 81.778 18.1235C81.8814 18.0066 81.9252 17.8906 81.9156 17.7806C81.903 17.6681 81.8339 17.559 81.711 17.4504C81.5792 17.3338 81.4405 17.2913 81.2951 17.323C81.155 17.3486 81.0051 17.4457 80.8508 17.6082L80.5001 17.2983C80.715 17.0612 80.9535 16.9303 81.2212 16.9053C81.4998 16.874 81.7545 16.9603 81.9853 17.1642Z" fill="white"/>
<path d="M83.8398 18.2944L83.1551 20.2195L81.2688 21.005L81.1266 20.6551L82.8561 19.936L83.4829 18.1709L83.8398 18.2944ZM84.3448 18.7734L83.66 20.6985L81.7738 21.484L81.6315 21.1341L83.3611 20.415L83.9763 18.6388L84.3448 18.7734Z" fill="white"/>
<g clip-path="url(#clip0_255_5609)">
<path d="M0.300049 5.39999L4.19753 4.50019L5.09733 8.39767L1.19985 9.29747L0.300049 5.39999Z" fill="#00008B"/>
<path d="M2.24879 4.95009L2.30503 5.19368L1.75057 6.09142L2.63806 6.63621L2.69869 6.89883L2.44368 6.95771L1.55151 6.40999L1.00877 7.28898L0.749951 7.34873L0.690198 7.08992L1.23382 6.21473L0.365074 5.68165L0.300049 5.39999L0.536029 5.34551L1.43201 5.89235L1.97475 5.01336L2.24879 4.95009Z" fill="white"/>
<path d="M1.28508 6.4715L1.35682 6.59124L0.909809 7.31183L0.749951 7.34873L0.747315 7.33732L1.28508 6.4715ZM1.7465 6.31686L1.95906 6.29986L2.65915 6.72756L2.69869 6.89883L1.7465 6.31686ZM2.24879 4.95009L1.69024 5.86481L1.63635 5.70085L2.07371 4.99051L2.24879 4.95009ZM0.300928 5.4038L1.20159 5.95357L0.969997 5.97496L0.343106 5.58649L0.300928 5.4038Z" fill="#FF0000"/>
<path d="M0.969928 5.24534L1.41983 7.19408L2.02881 7.05349L1.57891 5.10475L0.969928 5.24534ZM0.454703 6.06987L0.595297 6.67885L2.54404 6.22895L2.40344 5.61997L0.454703 6.06987Z" fill="white"/>
<path d="M0.482822 6.19167L0.567178 6.55706L2.51592 6.10716L2.43156 5.74177L0.482822 6.19167ZM1.09172 5.21722L1.54163 7.16596L1.90702 7.0816L1.45711 5.13286L1.09172 5.21722Z" fill="#FF0000"/>
<path d="M2.54557 8.11122L2.20642 8.23281L2.3221 8.57413L2.01548 8.38514L1.82086 8.68825L1.77749 8.33023L1.41866 8.36657L1.67119 8.10942L1.41925 7.85168L1.77751 7.88924L1.82151 7.5311L2.01595 7.83499L2.32277 7.64629L2.20669 7.9874L2.54615 8.11028L2.54557 8.11122ZM4.25488 7.78073L4.1034 7.83655L4.15617 7.98874L4.0182 7.90513L3.93178 8.04134L3.91098 7.88178L3.75071 7.89954L3.86272 7.78387L3.74899 7.66982L3.90962 7.68485L3.92787 7.52428L4.01601 7.65949L4.15268 7.57421L4.10216 7.72699L4.25488 7.78073ZM3.97507 6.90562L3.97278 6.80192L3.88236 6.75063L3.9802 6.71602L4.00081 6.61424L4.06394 6.69668L4.16706 6.6849L4.10827 6.77064L4.15167 6.86485L4.05177 6.835L3.97507 6.90562ZM3.22943 6.59669L3.07877 6.64911L3.12815 6.80048L2.99305 6.71541L2.90517 6.84875L2.88776 6.69L2.72925 6.70495L2.84196 6.59233L2.73127 6.47757L2.89014 6.49542L2.91138 6.33737L2.9963 6.47251L3.13291 6.39046L3.08034 6.54131L3.22943 6.59669ZM4.51002 6.03805L4.35567 6.09533L4.40991 6.25039L4.26913 6.16502L4.18096 6.30405L4.16004 6.1405L3.99672 6.15896L4.11125 6.04031L3.9953 5.92356L4.15932 5.93941L4.1778 5.77639L4.26741 5.91446L4.40677 5.82696L4.35467 5.98331L4.51002 6.03805ZM3.73831 5.54671L3.58478 5.6006L3.6358 5.75559L3.49789 5.66877L3.40825 5.80492L3.39014 5.64313L3.22765 5.65819L3.34305 5.54335L3.23014 5.4259L3.39223 5.4438L3.41353 5.28253L3.49991 5.42054L3.63921 5.33627L3.58565 5.48975L3.73831 5.54671Z" fill="white"/>
</g>
<defs>
<clipPath id="clip0_255_5609">
<rect x="0.300049" y="5.39999" width="4" height="4" rx="2" transform="rotate(-13 0.300049 5.39999)" fill="white"/>
</clipPath>
</defs>
</svg>
