<svg width="62" height="23" viewBox="0 0 62 23" fill="none" xmlns="http://www.w3.org/2000/svg">
<path d="M5.75341 17.217L6.12131 17.3534L5.43891 19.1048L6.29026 20.7732L5.95519 20.9476L5.02751 19.127L5.75341 17.217ZM6.44839 17.1795L6.80031 17.3166L6.13389 19.0672L6.98525 20.7356L6.65017 20.91L5.72249 19.0894L6.44839 17.1795Z" fill="white"/>
<path d="M8.45546 18.8892L9.31327 18.8278L9.26417 18.1416L9.68709 18.1113L9.73619 18.7976L10.6499 18.7322L10.679 19.1391L9.76531 19.2045L9.8321 20.1381L10.9173 20.0605L10.9464 20.4674L8.43685 20.647L8.40774 20.24L9.40918 20.1684L9.34239 19.2348L8.48458 19.2961L8.45546 18.8892ZM7.78579 19.3381C7.68549 19.4496 7.58091 19.5573 7.47234 19.6653L7.18019 19.3373C7.6005 18.9343 7.92933 18.4857 8.16296 17.9958L7.23334 18.0623L7.20422 17.6553L8.33334 17.5745C8.39659 17.3936 8.44758 17.2095 8.4903 17.0219L8.92491 17.043C8.88902 17.214 8.84459 17.3776 8.79616 17.5414L10.7272 17.4033L10.7563 17.8102L8.64174 17.9615C8.51182 18.2756 8.35255 18.5717 8.16392 18.8499L8.3035 20.8009L7.89255 20.8303L7.78579 19.3381Z" fill="white"/>
<path d="M11.1041 17.0008L12.3632 16.8899L12.392 17.2166C12.3179 17.5604 12.2216 17.9263 12.1112 18.3135C12.367 18.6644 12.5146 18.9726 12.5584 19.2418C12.5752 19.4331 12.5477 19.576 12.4793 19.6664C12.3729 19.7802 12.1822 19.8492 11.9076 19.8774L11.735 19.4669C11.824 19.4752 11.9004 19.4765 11.9562 19.4715C12.0352 19.4566 12.0859 19.44 12.1117 19.4137C12.1335 19.3877 12.1416 19.3428 12.136 19.279C12.1125 19.0121 11.9666 18.7237 11.6984 18.4141C11.8231 18.0056 11.9153 17.6401 11.9753 17.3176L11.5449 17.3555L11.8247 20.5312L11.4183 20.567L11.1041 17.0008ZM12.4728 16.9485L14.6284 16.7586L14.6639 17.161L14.4248 17.1821L14.6558 19.8039C14.6814 20.0948 14.5629 20.2538 14.2999 20.277L13.6983 20.33L13.5712 19.9356C13.7638 19.9347 13.9438 19.9269 14.1192 19.9114C14.2068 19.9037 14.2497 19.8437 14.2399 19.7321L14.0184 17.2179L12.5082 17.3509L12.4728 16.9485ZM12.642 17.821L13.7497 17.7234L13.8884 19.2973L12.7807 19.3949L12.642 17.821ZM13.4743 18.9724L13.3984 18.1117L13.0518 18.1423L13.1276 19.0029L13.4743 18.9724Z" fill="white"/>
<path d="M15.714 17.2964L16.255 17.2389L16.2317 17.0201L15.6192 17.0853L15.6695 17.5586L15.2717 17.6009L15.185 16.7855L16.6289 16.632C16.5639 16.5504 16.4998 16.4768 16.4325 16.4115L16.8704 16.2925C16.9362 16.3821 16.9989 16.48 17.0625 16.5859L18.5342 16.4294L18.6209 17.2448L18.2231 17.2871L18.1728 16.8138L17.5562 16.8793L17.5795 17.0981L18.1284 17.0397L18.1639 17.3738L17.615 17.4322L17.6358 17.6271L18.1449 17.573L18.1787 17.8912L17.6696 17.9453L17.6903 18.1402L18.7404 18.0286L18.7768 18.3706L17.9812 18.4552C18.2054 18.5963 18.5177 18.6959 18.9141 18.7543L18.778 19.1388C18.5093 19.0708 18.2747 18.9832 18.0746 18.8797L18.1042 19.1582L17.3445 19.2389L17.3716 19.4935L18.7439 19.3476L18.7836 19.7215L15.6334 20.0564L15.5936 19.6825L16.9659 19.5366L16.9388 19.2821L16.1711 19.3637L16.1407 19.0773C15.9744 19.2157 15.7794 19.349 15.5513 19.4738L15.3033 19.1462C15.6658 18.9991 15.9378 18.8334 16.1277 18.6523L15.364 18.7335L15.3276 18.3914L16.3658 18.281L16.345 18.0861L15.8439 18.1394L15.81 17.8212L16.3112 17.7679L16.2905 17.573L15.7495 17.6305L15.714 17.2964ZM17.1505 16.9225L16.6374 16.977L16.6607 17.1958L17.1738 17.1412L17.1505 16.9225ZM16.2179 19.0088L16.902 18.936L16.8741 18.6735L17.2798 18.6304L17.3077 18.8929L17.972 18.8223C17.805 18.7274 17.6651 18.6216 17.5556 18.5005L16.5573 18.6066C16.4678 18.7489 16.3532 18.8817 16.2179 19.0088ZM16.7715 18.2379L17.2846 18.1834L17.2639 17.9884L16.7508 18.043L16.7715 18.2379ZM17.23 17.6702L17.2093 17.4753L16.6962 17.5299L16.7169 17.7248L17.23 17.6702Z" fill="white"/>
<path d="M21.4886 16.3239L20.7704 16.4153L20.7189 16.0105L22.5323 15.7798L22.5838 16.1845L21.9013 16.2714L21.9467 16.6285L22.5578 16.5507L22.6058 16.9277L21.9947 17.0055L22.0391 17.3546L22.6502 17.2769L22.6987 17.6578L22.0876 17.7356L22.1335 18.0967L22.8597 18.0043L22.9107 18.405L22.1845 18.4974L22.3001 19.4061L21.8875 19.4586L21.7718 18.5499L20.9782 18.6509L20.9272 18.2501L21.7209 18.1492L21.6749 17.7881L21.0361 17.8694L20.9876 17.4884L21.6264 17.4071L21.582 17.058L20.9432 17.1392L20.8952 16.7623L21.5341 16.681L21.4886 16.3239ZM19.6804 16.6265C19.5088 16.6725 19.3293 16.7196 19.1453 16.7631L19.013 16.3888C19.563 16.2745 20.0474 16.1201 20.4657 15.9218L20.661 16.284C20.481 16.3593 20.2887 16.4322 20.0839 16.5026L20.1597 17.0978L20.6715 17.0327L20.722 17.4295L20.2102 17.4946L20.2369 17.7049C20.251 17.816 20.2562 17.9202 20.2614 18.0244L20.809 17.9547L20.86 18.3555L20.2608 18.4317C20.2253 18.9765 20.0591 19.413 19.7671 19.7485L19.4138 19.5072C19.6543 19.2427 19.7925 18.9026 19.8363 18.4857L19.3164 18.5518L19.2655 18.1511L19.8488 18.0769C19.8436 17.9727 19.8379 17.8645 19.8242 17.7574L19.7975 17.5471L19.2935 17.6112L19.2431 17.2144L19.747 17.1503L19.6804 16.6265Z" fill="white"/>
<path d="M23.1015 17.7393L23.2953 17.7099L23.2682 17.5319L23.5806 17.4844L23.6077 17.6624L23.8331 17.6281L23.8776 17.9208L23.6522 17.955L23.684 18.1646C23.7516 18.1301 23.8198 18.0995 23.8801 18.0701L23.9287 18.3904C23.7351 18.5008 23.5108 18.5955 23.257 18.6827L23.1636 18.3611C23.2403 18.3332 23.3137 18.3099 23.383 18.2872L23.3398 18.0025L23.146 18.032L23.1015 17.7393ZM23.3852 16.7575L23.3865 17.0325L24.1853 16.911C24.3152 17.7652 24.378 18.3383 24.3778 18.6296C24.3742 18.9255 24.1926 19.115 23.8251 19.1992C23.7144 19.216 23.5985 19.2255 23.4787 19.2356L23.3245 18.8869C23.441 18.8813 23.5608 18.8712 23.6795 18.8531C23.893 18.8207 24.0012 18.7071 24.0051 18.5204C24.0085 18.3297 23.9642 17.9319 23.8723 17.3268L23.026 17.4555L22.9898 16.4454L23.6779 16.3408L23.6232 15.981L22.8402 16.1L22.7861 15.7441L23.9606 15.5655L24.1247 16.6451L23.3852 16.7575ZM24.1005 15.5281L26.2479 15.2017L26.2929 15.4982L24.1456 15.8247L24.1005 15.5281ZM24.3446 15.936L26.1479 15.6619L26.3012 16.6703L24.4979 16.9444L24.3446 15.936ZM25.8791 16.4755L25.8563 16.3253L25.5201 16.3764L25.543 16.5266L25.8791 16.4755ZM25.1871 16.5807L25.1642 16.4305L24.8162 16.4834L24.8391 16.6336L25.1871 16.5807ZM24.7844 16.2738L25.1324 16.2209L25.1101 16.0746L24.7621 16.1275L24.7844 16.2738ZM25.466 16.0205L25.4883 16.1668L25.8244 16.1157L25.8022 15.9694L25.466 16.0205ZM24.3273 17.0998L26.5498 16.762L26.5931 17.0467L24.3706 17.3846L24.3273 17.0998ZM24.5374 17.4968L26.4276 17.2094L26.5875 18.2614L24.6973 18.5487L24.5374 17.4968ZM26.1688 18.062L26.1436 17.8959L25.756 17.9548L25.7813 18.1209L26.1688 18.062ZM25.4254 18.175L25.4001 18.0089L25.0165 18.0673L25.0418 18.2333L25.4254 18.175ZM24.9847 17.8577L25.3683 17.7994L25.343 17.6333L24.9594 17.6916L24.9847 17.8577ZM25.6989 17.5792L25.7242 17.7452L26.1117 17.6863L26.0865 17.5202L25.6989 17.5792ZM24.5443 18.7136L26.8142 18.3685L26.8599 18.6691L24.59 19.0141L24.5443 18.7136Z" fill="white"/>
<path d="M27.1111 16.2772L27.2099 15.0509L27.6314 15.0421L27.5663 15.7904L28.1091 15.6901C28.1268 15.3899 28.1298 15.0761 28.115 14.7535L28.5453 14.7268C28.5541 15.0384 28.5513 15.3318 28.5339 15.6116L30.3236 15.2809L30.3955 15.6703L28.5036 16.0199C28.486 16.1452 28.471 16.2619 28.4559 16.3786L30.0136 16.0907L30.0775 16.4369C30.0398 16.7611 29.9033 17.0792 29.672 17.3904C29.9968 17.4972 30.3738 17.578 30.8037 17.6369L30.6632 18.0656C30.1632 17.979 29.7357 17.8668 29.38 17.7251C29.1124 17.9942 28.7744 18.2559 28.3658 18.5104L28.0782 18.1649C28.4343 17.9567 28.7332 17.747 28.9709 17.5363C28.6946 17.3839 28.4759 17.2128 28.31 17.0197C28.1354 17.6378 27.8696 18.1587 27.512 18.5787L27.2252 18.2371C27.6689 17.667 27.9485 16.9564 28.067 16.1006L27.1111 16.2772ZM28.5675 16.7403C28.7373 16.9327 28.971 17.0969 29.2695 17.237C29.4666 17.0053 29.598 16.7695 29.6649 16.5375L28.5675 16.7403ZM29.1959 14.5496C29.5005 14.7008 29.7657 14.8593 29.9844 15.0304L29.7478 15.3792C29.5574 15.2069 29.2979 15.0352 28.9661 14.8687L29.1959 14.5496Z" fill="white"/>
<path d="M31.6903 15.5735L32.2126 15.4533L32.1481 15.1727L31.5361 15.3135L31.597 15.5785C31.6508 15.8124 31.6903 16.0373 31.7162 16.2571L32.3633 16.1082L32.2951 15.812L31.7728 15.9321L31.6903 15.5735ZM31.7498 16.6352C31.7726 17.0732 31.7388 17.4791 31.654 17.8598L31.2545 17.6398C31.3802 17.0978 31.3566 16.4424 31.1838 15.6736L30.8834 14.3677L33.9006 13.6736L34.14 14.7144L33.6021 14.8381L33.6667 15.1188L34.2397 14.987L34.3222 15.3456L33.7492 15.4774L33.8173 15.7737L34.5268 15.6105L34.6111 15.9769L34.2213 16.0666L34.4994 16.2407C34.4216 16.4022 34.3307 16.5422 34.2227 16.6614C34.4331 16.7197 34.6645 16.7445 34.9131 16.7365L34.8109 17.1664C34.0748 17.1428 33.4862 16.8678 33.0479 16.3365L32.584 16.4433L32.7446 17.141C32.9563 17.0266 33.1408 16.9185 33.2962 16.8089L33.4593 17.1613C33.1609 17.3449 32.7965 17.5272 32.37 17.7074L32.1793 17.3778C32.2933 17.3023 32.338 17.1935 32.3075 17.061L32.1864 16.5347L31.7498 16.6352ZM33.4572 16.2424C33.5774 16.3543 33.7047 16.444 33.8441 16.5146C33.9539 16.4031 34.0488 16.2622 34.1316 16.0872L33.4572 16.2424ZM33.2045 14.9296L32.5418 15.0821L32.6064 15.3627L33.269 15.2103L33.2045 14.9296ZM32.757 16.0176L33.4197 15.8652L33.3515 15.5689L32.6889 15.7214L32.757 16.0176ZM33.5765 14.1381L31.3818 14.643L31.4535 14.9548L33.6482 14.4499L33.5765 14.1381Z" fill="white"/>
<path d="M34.5002 14.0568L36.0179 13.6033C35.8694 13.4557 35.7014 13.3264 35.5164 13.2104L35.8753 12.9446C36.0671 13.0835 36.2577 13.2603 36.4471 13.4751L37.8959 13.0422L38.015 13.4408L37.4362 13.6137C37.4241 14.2436 37.2989 14.8028 37.062 15.2952C37.5506 15.4916 38.1191 15.6056 38.7658 15.6461L38.6454 16.0537C37.9635 16.0069 37.369 15.8756 36.862 15.6598C36.5461 16.1674 36.1008 16.6052 35.5288 16.9682L35.2088 16.6797C35.7712 16.3405 36.2038 15.9441 36.5016 15.4877C35.9617 15.1898 35.5289 14.789 35.2019 14.2813L34.6193 14.4554L34.5002 14.0568ZM35.5851 14.1668C35.8774 14.5721 36.2483 14.8913 36.7039 15.1309C36.9044 14.7119 37.0114 14.2458 37.0223 13.7374L35.5851 14.1668Z" fill="white"/>
<path d="M39.0145 11.8862L39.4472 11.9045C39.4506 12.2543 39.4072 12.6064 39.3208 12.9592L40.3405 15.3943L39.9568 15.5549L39.1256 13.57C39.0419 13.7741 38.9457 13.9792 38.8405 14.1837L38.5467 13.8341C38.8612 13.208 39.0179 12.5569 39.0145 11.8862ZM42.2091 14.5337L41.5229 14.821C41.213 14.9508 40.9931 14.8608 40.8649 14.5545L40.4462 13.5547C40.3485 13.6736 40.2457 13.7904 40.1428 13.9072L39.8164 13.6146C39.9749 13.4441 40.1207 13.2746 40.2576 13.1046L39.6643 11.6878L40.048 11.5271L40.5425 12.7077C40.7941 12.3248 40.9928 11.9294 41.1385 11.5214L41.5361 11.7149C41.3333 12.2248 41.0677 12.7089 40.7372 13.1726L41.2254 14.3385C41.2671 14.4381 41.3441 14.4666 41.4585 14.4187L41.9898 14.1962C42.0709 14.1622 42.1176 14.108 42.1329 14.0409C42.1466 13.9701 42.0884 13.769 41.9583 13.4375L42.3634 13.4109C42.5153 13.846 42.5755 14.1244 42.5425 14.2423C42.5079 14.3565 42.3973 14.4549 42.2091 14.5337Z" fill="white"/>
<path d="M43.5657 11.6527L42.9459 11.9695L43.6141 13.2766C43.6614 13.3692 43.7314 13.3919 43.8311 13.3409L44.4223 13.0387C44.5256 12.9859 44.5752 12.9246 44.5692 12.8603C44.565 12.7906 44.5281 12.6657 44.4514 12.4803L44.8623 12.423C44.994 12.751 45.0442 12.9634 45.0164 13.0585C44.985 13.1464 44.882 13.235 44.7111 13.3224L43.8385 13.7684C43.6034 13.8885 43.4276 13.8346 43.3111 13.6067L42.47 11.9612L42.3986 12.1819L42.0284 11.9937C42.2067 11.5163 42.3291 11 42.3956 10.4359L42.6663 10.2975C43.1508 10.4632 43.6212 10.654 44.0774 10.8611L43.9645 11.2377C43.4542 10.9864 43.0465 10.804 42.7415 10.6994C42.6981 11.054 42.6297 11.4124 42.5256 11.7711L43.7615 11.1394L44.2694 12.1331C44.3678 12.3343 44.312 12.4976 44.102 12.6229C43.9595 12.6957 43.8241 12.756 43.6994 12.8108L43.4302 12.5126C43.5692 12.4595 43.6869 12.4084 43.7795 12.361C43.8578 12.321 43.877 12.2618 43.8406 12.1905L43.5657 11.6527ZM43.8522 10.0688L44.2154 9.88308L45.3351 12.0735L44.9718 12.2592L43.8522 10.0688ZM45.9793 12.7011L45.4486 12.9723L45.1829 12.6634C45.3611 12.5903 45.5286 12.5137 45.6818 12.4354C45.7672 12.3917 45.7827 12.3164 45.7317 12.2167L44.3171 9.44926L44.6876 9.25992L46.1494 12.12C46.2823 12.38 46.225 12.5755 45.9793 12.7011Z" fill="white"/>
<path d="M46.0543 9.11232L45.5247 9.41895L45.3483 9.11431L46.4699 8.46499C46.4156 8.42709 46.3634 8.39265 46.3131 8.36168L46.6682 8.07291C46.7319 8.11918 46.7962 8.17439 46.868 8.23451L48.0554 7.54711L48.2318 7.85174L47.6917 8.16438L47.7059 8.3965L48.4987 7.93756L48.6791 8.24912L45.6466 10.0047L45.4662 9.69315L46.2312 9.25024L46.0543 9.11232ZM46.6086 9.0318L47.3286 8.61494L47.3144 8.38283L46.4317 8.89387L46.6086 9.0318ZM46.0629 9.92546L48.403 8.57069L49.0403 9.67152L47.9776 10.2868C48.1853 10.3422 48.3538 10.4017 48.4812 10.4621L48.3022 10.8476C48.1619 10.7809 47.9859 10.7164 47.7742 10.6541L47.9672 10.2928L46.7002 11.0263L46.0629 9.92546ZM48.5309 9.60592L48.4427 9.4536L46.8088 10.3995L46.897 10.5519L48.5309 9.60592ZM46.6605 10.1434L48.2944 9.19744L48.2082 9.04858L46.5743 9.99451L46.6605 10.1434ZM46.6408 11.2271L47.036 11.0953C47.1147 11.4149 47.1402 11.7144 47.1145 11.9974L46.6887 11.9804C46.721 11.7168 46.7057 11.4668 46.6408 11.2271ZM48.9075 11.0148L48.0628 11.5038C47.7824 11.6662 47.5718 11.6217 47.4315 11.3794L47.177 10.9398L47.5439 10.7273L47.7524 11.0873C47.8005 11.1704 47.8784 11.1854 47.9823 11.1252L48.6539 10.7364C48.7127 10.7024 48.7462 10.6645 48.7544 10.6228C48.773 10.575 48.7437 10.4765 48.6719 10.3285L49.0808 10.2443C49.1934 10.5027 49.2256 10.6781 49.1775 10.7707C49.1358 10.8503 49.046 10.9347 48.9075 11.0148ZM49.0853 9.73328C49.4025 9.85007 49.6601 9.95976 49.8567 10.0678L49.6778 10.4533C49.4677 10.33 49.2076 10.2079 48.9008 10.0851L49.0853 9.73328Z" fill="white"/>
<path d="M49.8429 6.13068C49.9564 6.20571 50.0751 6.2964 50.1989 6.40276L51.3662 5.66673L51.5774 6.00171L51.0157 6.35585C51.0715 6.5193 51.1128 6.68237 51.144 6.85185L51.9087 6.3697L52.1242 6.71144L49.7354 8.21763L50.0127 8.65749C50.3342 9.19725 50.4845 9.69825 50.4571 10.1648L50.0384 10.0931C50.053 9.73387 49.9268 9.33115 49.6541 8.88363L49.1613 8.10203L49.8414 7.67321L49.4694 7.33082L48.8739 7.7063L48.6627 7.37132L49.8368 6.63103C49.7246 6.55049 49.6153 6.48224 49.5091 6.42626L49.8429 6.13068ZM50.1899 7.45347L50.8023 7.06733C50.7745 6.89571 50.7331 6.73264 50.6774 6.56919L49.8179 7.11108L50.1899 7.45347Z" fill="white"/>
<path d="M52.7569 4.32511L53.1051 4.09015L54.8572 6.68619L55.2219 6.44004L53.4698 3.844L53.8179 3.60904L55.57 6.20507L56.5249 5.5606L56.7532 5.89878L53.7891 7.89932L53.5608 7.56114L54.5091 6.92115L52.7569 4.32511ZM54.8277 3.83959L55.1909 3.71992C55.4475 4.3719 55.6241 4.97664 55.7182 5.53081L55.3327 5.63175C55.2588 5.12184 55.0867 4.52373 54.8277 3.83959ZM52.5797 5.34235C53.0431 5.67143 53.5346 6.078 54.0488 6.56099L53.7853 6.84983C53.3235 6.4087 52.8486 6.00536 52.3517 5.64098L52.5797 5.34235Z" fill="white"/>
<path d="M55.2862 2.54376L57.0436 3.58614L57.4515 5.58829L57.0807 5.66054L56.7078 3.82492L55.0962 2.87027L55.2862 2.54376ZM55.8533 2.14038L57.6107 3.18275L58.0186 5.1849L57.6479 5.25715L57.275 3.42154L55.6504 2.47615L55.8533 2.14038Z" fill="white"/>
<g clip-path="url(#clip0_251_4209)">
<path d="M0 17.0001H4V21.0001H0V17.0001Z" fill="#3F9C35"/>
<path d="M0 17.0001H4V19.6665H0V17.0001Z" fill="#ED2939"/>
<path d="M0 17.0001H4V18.3337H0V17.0001Z" fill="#00B9E4"/>
<path d="M1.86563 19.6001C2.197 19.6001 2.46563 19.3315 2.46563 19.0001C2.46563 18.6687 2.197 18.4001 1.86563 18.4001C1.53425 18.4001 1.26562 18.6687 1.26562 19.0001C1.26562 19.3315 1.53425 19.6001 1.86563 19.6001Z" fill="white"/>
<path d="M1.99927 19.5001C2.27541 19.5001 2.49927 19.2762 2.49927 19.0001C2.49927 18.7239 2.27541 18.5001 1.99927 18.5001C1.72313 18.5001 1.49927 18.7239 1.49927 19.0001C1.49927 19.2762 1.72313 19.5001 1.99927 19.5001Z" fill="#ED2939"/>
<path d="M2.53281 18.6665L2.59609 18.8462L2.76797 18.7642L2.68672 18.936L2.86641 19.0001L2.68672 19.0642L2.76797 19.236L2.59609 19.154L2.53281 19.3337L2.46875 19.154L2.29687 19.236L2.37891 19.0642L2.19922 19.0001L2.37891 18.936L2.29687 18.7642L2.46875 18.8462L2.53281 18.6665Z" fill="white"/>
</g>
<defs>
<clipPath id="clip0_251_4209">
<rect y="17.0001" width="4" height="4" rx="2" fill="white"/>
</clipPath>
</defs>
</svg>
