<svg width="58" height="5" viewBox="0 0 58 5" fill="none" xmlns="http://www.w3.org/2000/svg">
<path d="M1.756 0.996199L2.092 1.1402L1.312 2.8642L2.076 4.5882L1.756 4.7322L0.928 2.8642L1.756 0.996199ZM2.44 0.996199L2.76 1.1402L1.996 2.8642L2.76 4.5882L2.44 4.7322L1.612 2.8642L2.44 0.996199ZM4.284 1.0362H4.668V4.6882H4.284V4.0562C3.968 4.1962 3.636 4.3162 3.284 4.4162L3.192 4.0402C3.568 3.9602 3.932 3.8402 4.284 3.6762V2.4762H3.268V2.1122H4.284V1.0362ZM6.296 4.6522H5.68C5.396 4.6522 5.256 4.5002 5.256 4.2042V1.0362H5.636V2.3282C5.964 2.2082 6.276 2.0442 6.572 1.8362L6.792 2.1442C6.384 2.3842 6 2.5642 5.636 2.6922V4.1442C5.636 4.2442 5.68 4.2962 5.768 4.2962H6.232C6.304 4.2962 6.36 4.2642 6.396 4.2042C6.424 4.1402 6.444 3.9162 6.456 3.5402L6.812 3.6562C6.788 4.1242 6.74 4.4082 6.676 4.5082C6.604 4.6042 6.48 4.6522 6.296 4.6522ZM7.684 2.0802H10.32V3.2882H9.204V4.2922C9.204 4.5522 9.068 4.6842 8.8 4.6842H8.368L8.28 4.3202C8.416 4.3362 8.544 4.3442 8.668 4.3442C8.772 4.3442 8.828 4.2922 8.828 4.1962V3.2882H7.684V2.0802ZM9.944 2.9242V2.4442H8.06V2.9242H9.944ZM9.008 1.0122C9.064 1.1322 9.116 1.2722 9.168 1.4242H10.784V1.7802H7.216V1.4242H8.776C8.728 1.2962 8.672 1.1802 8.616 1.0762L9.008 1.0122ZM9.908 3.4802C10.26 3.7722 10.556 4.0602 10.796 4.3482L10.52 4.6242C10.312 4.3442 10.024 4.0442 9.656 3.7242L9.908 3.4802ZM8.08 3.4802L8.348 3.7202C8.1 4.0682 7.796 4.3722 7.432 4.6322L7.192 4.3242C7.544 4.0842 7.84 3.8042 8.08 3.4802ZM11.216 1.4522H12.792C12.732 1.3082 12.668 1.1722 12.6 1.0522L13.008 0.988199C13.068 1.1282 13.124 1.2842 13.18 1.4522H14.784V1.8162H13.192V2.2522H14.492V3.7362C14.492 3.9922 14.356 4.1242 14.092 4.1242H13.688L13.592 3.7642L13.972 3.7842C14.068 3.7842 14.116 3.7362 14.116 3.6482V2.6162H13.192V4.7122H12.808V2.6162H11.932V4.1522H11.56V2.2522H12.808V1.8162H11.216V1.4522ZM15.624 2.5962C15.508 2.7402 15.384 2.8802 15.248 3.0162L15.124 2.6122C15.532 2.1562 15.836 1.6282 16.032 1.0202L16.392 1.1882C16.292 1.4882 16.16 1.7762 16 2.0522V4.7242H15.624V2.5962ZM16.388 1.5042H17.156L17.264 1.0202L17.636 1.0562C17.604 1.2122 17.568 1.3602 17.536 1.5042H18.688V1.8722H17.44C17.4 2.0042 17.364 2.1282 17.328 2.2482H18.852V2.6122H17.208C17.152 2.7642 17.1 2.9042 17.044 3.0362H18.636V3.3642C18.476 3.6202 18.232 3.8762 17.896 4.1362C18.064 4.2242 18.228 4.3202 18.384 4.4202L18.168 4.7482C17.68 4.4202 17.176 4.1642 16.664 3.9762L16.868 3.6762C17.108 3.7642 17.34 3.8642 17.564 3.9682C17.844 3.7762 18.068 3.5842 18.232 3.3882H16.552C16.656 3.1402 16.752 2.8802 16.844 2.6122H16.212V2.2482H16.96C16.996 2.1242 17.032 2.0002 17.064 1.8722H16.388V1.5042ZM20.528 3.7402V4.1042C20.164 4.2882 19.748 4.4402 19.284 4.5522L19.24 4.1722C19.728 4.0642 20.16 3.9202 20.528 3.7402ZM19.832 1.0082L20.196 1.1522C20.004 1.6282 19.812 2.0162 19.62 2.3122C19.756 2.2962 19.892 2.2762 20.028 2.2522C20.096 2.1242 20.168 1.9842 20.24 1.8362L20.58 1.9642C20.26 2.5722 19.992 3.0202 19.772 3.3082C20.02 3.2402 20.272 3.1522 20.528 3.0402V3.3882C20.096 3.5682 19.684 3.6882 19.296 3.7522L19.196 3.4002C19.264 3.3682 19.32 3.3322 19.368 3.2882C19.492 3.1562 19.648 2.9282 19.836 2.6042C19.652 2.6362 19.46 2.6642 19.26 2.6922L19.164 2.3442C19.224 2.3202 19.28 2.2682 19.328 2.1962C19.52 1.8402 19.688 1.4442 19.832 1.0082ZM20.648 2.8202L20.564 2.4842C20.596 2.4762 20.624 2.4642 20.64 2.4562C20.76 2.3682 20.916 2.1402 21.104 1.7802H20.484V1.4162H21.456C21.408 1.2882 21.356 1.1682 21.3 1.0562L21.688 0.992199C21.74 1.1202 21.792 1.2602 21.84 1.4162H22.716V1.7802H21.5C21.348 2.0682 21.212 2.2882 21.092 2.4482C21.416 2.4162 21.74 2.3762 22.06 2.3282C21.98 2.2162 21.9 2.1082 21.82 2.0002L22.108 1.8202C22.372 2.1602 22.576 2.4602 22.72 2.7162L22.424 2.9202C22.376 2.8282 22.32 2.7362 22.264 2.6402C21.768 2.7162 21.228 2.7762 20.648 2.8202ZM20.944 2.9442H21.312C21.292 3.4522 21.228 3.8242 21.124 4.0602C21.008 4.3082 20.816 4.5242 20.544 4.7082L20.304 4.4082C20.528 4.2642 20.688 4.0922 20.784 3.8922C20.876 3.7002 20.928 3.3842 20.944 2.9442ZM22.408 4.6442H22.152C21.868 4.6442 21.728 4.5162 21.728 4.2642V2.9002H22.092V4.1922C22.092 4.2562 22.116 4.2962 22.164 4.3042H22.388C22.46 4.2962 22.504 4.2442 22.512 4.1482C22.524 4.0402 22.532 3.8842 22.532 3.6842L22.86 3.8002C22.86 4.1842 22.828 4.4162 22.772 4.5042C22.716 4.5842 22.592 4.6282 22.408 4.6442ZM24.812 1.6682H23.472V1.3042H26.54V1.6682H25.196V4.1002H26.792V4.4682H23.212V4.1002H24.812V1.6682ZM27.228 1.3602H28.132V1.0122H28.52V1.3602H29.48V1.0122H29.868V1.3602H30.772V1.7162H29.868V2.0322H29.48V1.7162H28.52V2.0322H28.132V1.7162H27.228V1.3602ZM27.592 2.1762H30.248V2.5402C29.148 3.1402 28.436 3.5962 28.116 3.9082C28.012 4.0122 27.952 4.0962 27.932 4.1682C27.932 4.2282 27.964 4.2602 28.036 4.2602H30C30.108 4.2602 30.192 4.2322 30.248 4.1802C30.304 4.1322 30.352 3.9002 30.392 3.4842L30.744 3.6282C30.7 4.0922 30.624 4.3722 30.512 4.4682C30.404 4.5602 30.244 4.6082 30.036 4.6082H28.056C27.704 4.6082 27.532 4.4842 27.532 4.2362C27.532 4.0682 27.664 3.8682 27.92 3.6362C28.256 3.3282 28.824 2.9642 29.616 2.5402H27.592V2.1762ZM31.372 1.4002H32.232C32.18 1.2802 32.124 1.1722 32.06 1.0722L32.46 1.0082C32.516 1.1242 32.568 1.2562 32.62 1.4002H33.392C33.452 1.2722 33.5 1.1362 33.532 0.996199L33.94 1.0482C33.904 1.1722 33.856 1.2882 33.796 1.4002H34.628V1.7442H33.192V2.0482H34.416V2.3762H33.192V2.6842H34.76V3.0362H31.24V2.6842H32.808V2.3762H31.596V2.0482H32.808V1.7442H31.372V1.4002ZM32.836 3.1122L33.22 3.1522C33.208 3.2282 33.192 3.3042 33.172 3.3762H34.672V3.7362H33.352C33.624 4.0482 34.132 4.2602 34.876 4.3722L34.676 4.7322C33.82 4.5642 33.26 4.2602 32.992 3.8162C32.908 3.9602 32.808 4.0842 32.688 4.1922C32.424 4.4242 31.964 4.6082 31.3 4.7442L31.144 4.3722C31.712 4.2722 32.124 4.1282 32.376 3.9362C32.456 3.8722 32.52 3.8082 32.576 3.7362H31.332V3.3762H32.772C32.8 3.2882 32.82 3.2002 32.836 3.1122ZM35.292 1.9402H36.812V1.0162H37.188V1.9402H38.712V2.3042H37.536C37.792 2.9282 38.224 3.4842 38.832 3.9722L38.576 4.2922C37.916 3.7082 37.452 3.0522 37.188 2.3242V4.7082H36.812V2.3322C36.52 3.1322 36.036 3.7922 35.36 4.3082L35.152 3.9682C35.752 3.5362 36.192 2.9802 36.464 2.3042H35.292V1.9402ZM37.84 1.0202C38.068 1.2602 38.244 1.4682 38.368 1.6442L38.064 1.8602C37.936 1.6602 37.76 1.4442 37.544 1.2042L37.84 1.0202ZM39.988 0.992199L40.348 1.1562C40.256 1.4482 40.14 1.7242 39.996 1.9882V4.7242H39.612V2.5802C39.496 2.7322 39.372 2.8762 39.24 3.0162L39.116 2.6122C39.508 2.1482 39.8 1.6082 39.988 0.992199ZM40.516 1.1882H42.452V2.5162H41.668V2.8682H42.788V3.2362H42.008C42.216 3.5962 42.5 3.9122 42.864 4.1842L42.616 4.5162C42.248 4.1722 41.944 3.7482 41.7 3.2362H41.668V4.7162H41.292V3.2362H41.256C41.004 3.7842 40.692 4.2122 40.32 4.5202L40.104 4.1762C40.448 3.9362 40.728 3.6242 40.952 3.2362H40.212V2.8682H41.292V2.5162H40.516V1.1882ZM42.076 2.1522V1.5522H40.892V2.1522H42.076ZM43.672 4.6802H43.272L43.188 4.3122C43.308 4.3242 43.428 4.3322 43.54 4.3322C43.632 4.3322 43.68 4.2842 43.68 4.1882V3.3402C43.528 3.3922 43.376 3.4402 43.224 3.4842L43.128 3.1042C43.312 3.0642 43.496 3.0162 43.68 2.9602V2.1242H43.208V1.7602H43.68V1.0362H44.06V1.7602H44.464V2.1242H44.06V2.8282C44.204 2.7682 44.348 2.7042 44.492 2.6362V3.0162C44.348 3.0802 44.204 3.1442 44.06 3.2002V4.2842C44.06 4.5482 43.928 4.6802 43.672 4.6802ZM46.376 1.8442H45.044V2.5162H46.376V1.8442ZM45.04 2.8802C45.024 3.5922 44.856 4.2082 44.532 4.7202L44.244 4.4642C44.524 4.0322 44.664 3.4802 44.668 2.8002V1.4842H45.52C45.464 1.3322 45.408 1.1922 45.344 1.0642L45.748 1.0002C45.8 1.1442 45.852 1.3042 45.904 1.4842H46.744V2.8802H45.04ZM47.616 2.4562L47.952 2.5882C47.82 3.0642 47.648 3.4282 47.432 3.6842L47.148 3.4362C47.356 3.1882 47.512 2.8642 47.616 2.4562ZM48.444 1.0362H48.828V1.7802H50.092C50.084 2.0602 50.08 2.3202 50.072 2.5602L50.336 2.4322C50.52 2.7922 50.7 3.1882 50.872 3.6242L50.524 3.7922C50.38 3.4002 50.224 3.0402 50.064 2.7202C50.048 3.0162 50.032 3.2802 50.016 3.5042C49.976 3.9362 49.908 4.2402 49.816 4.4162C49.724 4.5842 49.576 4.6722 49.372 4.6882H48.904L48.8 4.3202C48.936 4.3282 49.064 4.3322 49.184 4.3322C49.38 4.3322 49.512 4.1962 49.58 3.9322C49.644 3.6522 49.684 3.0562 49.704 2.1482H48.812C48.772 2.7842 48.66 3.3042 48.476 3.7082C48.268 4.1442 47.924 4.4802 47.448 4.7202L47.24 4.3882C47.696 4.1362 48.008 3.8162 48.176 3.4322C48.312 3.0842 48.396 2.6562 48.428 2.1482H47.476V1.7802H48.444V1.0362ZM53.284 1.0322H53.668V1.6362H54.664V2.0042H53.668V2.6642H54.772V3.0322H53.472C53.244 3.5682 53.044 3.9642 52.868 4.2202C53.308 4.1722 53.744 4.1002 54.176 4.0122C54.072 3.7962 53.964 3.5962 53.856 3.4122L54.224 3.2922C54.46 3.6922 54.668 4.1162 54.844 4.5722L54.484 4.7322C54.432 4.5962 54.38 4.4642 54.328 4.3442C53.732 4.4602 53.084 4.5522 52.384 4.6242L52.296 4.2922C52.328 4.2802 52.356 4.2682 52.376 4.2562C52.552 4.1002 52.78 3.6922 53.06 3.0322H52.176V2.6642H53.284V2.0042H52.368V1.6362H53.284V1.0322ZM51.548 1.0642C51.804 1.2642 52.02 1.4602 52.2 1.6562L51.928 1.9322C51.776 1.7442 51.556 1.5442 51.272 1.3282L51.548 1.0642ZM51.448 2.0002C51.684 2.2002 51.884 2.4002 52.052 2.6002L51.776 2.8722C51.636 2.6842 51.436 2.4802 51.176 2.2642L51.448 2.0002ZM51.836 3.1282L52.18 3.2682C52.008 3.7682 51.816 4.2402 51.608 4.6842L51.228 4.5162C51.46 4.0642 51.664 3.6002 51.836 3.1282ZM55.56 0.996199L56.388 2.8642L55.56 4.7322L55.24 4.5882L56.004 2.8642L55.24 1.1402L55.56 0.996199ZM56.244 0.996199L57.072 2.8642L56.244 4.7322L55.924 4.5882L56.688 2.8642L55.908 1.1402L56.244 0.996199Z" fill="white"/>
</svg>
