<svg width="109" height="20" viewBox="0 0 109 20" fill="none" xmlns="http://www.w3.org/2000/svg">
<path d="M3.78287 1.24084L4.08234 1.45049L2.96634 2.97861L3.36174 4.82239L3.01906 4.89793L2.59046 2.9001L3.78287 1.24084ZM4.45242 1.38068L4.73623 1.58706L3.6359 3.11845L4.03129 4.96223L3.68861 5.03777L3.26001 3.03994L4.45242 1.38068Z" fill="white"/>
<path d="M6.11243 1.75181C6.22433 1.97672 6.32856 2.22052 6.42119 2.48247L6.15437 2.55789L6.96775 2.71279C7.15186 2.51576 7.32849 2.27251 7.49688 1.98697L7.8436 2.1548C7.70777 2.39767 7.55359 2.60855 7.38819 2.79287L8.13477 2.93505L8.06592 3.29655L6.78495 3.05259L6.76175 3.1744C6.71797 3.36152 6.6654 3.53067 6.60721 3.68654L8.1711 3.98437L8.10225 4.34587L6.72697 4.08396C6.82896 4.59608 7.24904 5.06291 7.98647 5.48838L7.69907 5.80012C6.93826 5.30505 6.50096 4.75757 6.37857 4.16012C6.27267 4.33133 6.1548 4.4799 6.02569 4.6019C5.69114 4.90466 5.20335 5.09272 4.5623 5.16609L4.42009 4.80104C5.06263 4.71981 5.51843 4.55009 5.79142 4.29262C5.88778 4.19288 5.9746 4.07911 6.05112 3.95524L4.70727 3.69931L4.77612 3.33781L6.22213 3.6132C6.285 3.45415 6.3415 3.28575 6.38453 3.10256L6.40773 2.98075L5.12282 2.73605L5.19167 2.37455L6.03255 2.53469C5.94629 2.28209 5.84693 2.0555 5.73914 1.85174L6.11243 1.75181Z" fill="white"/>
<path d="M9.16842 2.44487L12.1537 2.95174L12.0914 3.31849L10.8334 3.1049L10.6701 4.06712L12.2041 4.32759L12.1405 4.70223L10.6064 4.44176L10.3781 5.78652C10.3312 6.06257 10.1612 6.17976 9.87335 6.13088L9.24632 6.02442L9.22905 5.64822C9.42816 5.6942 9.62006 5.73489 9.80146 5.76569C9.92766 5.78712 10.0008 5.73868 10.0195 5.62826L10.2318 4.37815L8.63072 4.1063L8.69433 3.73166L10.2954 4.00351L10.4588 3.04129L9.10615 2.81162L9.16842 2.44487Z" fill="white"/>
<path d="M13.1841 4.77409L13.0292 5.82676C13.3642 5.80327 13.7207 5.77081 14.092 5.72031L14.1403 6.07916C13.6338 6.14211 13.1182 6.18352 12.5971 6.20794L12.4927 5.87318C12.5953 5.83571 12.6538 5.7675 12.6684 5.66857L13.0218 3.26642C13.5281 3.26004 13.9944 3.22351 14.4212 3.15288L14.6104 3.48799C14.2413 3.55094 13.8231 3.5905 13.3552 3.61061L13.237 4.41397L14.3293 4.57464L14.2763 4.93477L13.1841 4.77409ZM15.4362 6.50429L15.0642 6.44957L15.0149 6.07035L15.3659 6.13008C15.4688 6.14522 15.529 6.09342 15.5453 5.98262L15.8469 3.93268L15.0673 3.81799L14.6097 6.92852L14.2298 6.87263L14.7398 3.40594L16.2792 3.6324L15.9136 6.11765C15.8699 6.41446 15.7093 6.54446 15.4362 6.50429Z" fill="white"/>
<path d="M16.8763 4.81493L17.3325 3.69421L17.7018 3.80409L17.4051 4.51319L17.9927 4.58542C18.1042 4.3009 18.2018 3.99855 18.2895 3.67886L18.6687 3.77384C18.5826 4.08162 18.4869 4.36809 18.3857 4.63373L20.204 4.85724L20.1596 5.21852L18.246 4.9833C18.1902 5.10943 18.1314 5.22714 18.0771 5.34136L19.6651 5.53657L19.6261 5.85418C19.4828 6.16704 19.2522 6.43691 18.9262 6.66283C19.2074 6.86666 19.5536 7.0664 19.9609 7.26154L19.7224 7.59494C19.2635 7.3612 18.8825 7.11689 18.5823 6.87042C18.2418 7.05023 17.8323 7.20139 17.3538 7.32393L17.1992 6.94221C17.6138 6.84809 17.9747 6.73126 18.2776 6.59519C18.0449 6.35702 17.8777 6.11078 17.7795 5.86093C17.4214 6.41337 17.0025 6.83743 16.5268 7.13361L16.3752 6.76033C16.9827 6.34332 17.4726 5.73455 17.845 4.93401L16.8763 4.81493ZM18.0788 5.68816C18.181 5.9385 18.3606 6.18223 18.6181 6.41539C18.8931 6.24366 19.1026 6.04775 19.242 5.83115L18.0788 5.68816ZM19.3411 3.81215C19.5897 4.05227 19.7941 4.29099 19.9548 4.52435L19.6516 4.76113C19.5182 4.53516 19.3222 4.29345 19.0563 4.03104L19.3411 3.81215Z" fill="white"/>
<path d="M23.7374 4.26001L24.0417 4.43483L23.1116 6.07521L23.7021 7.86606L23.3695 7.97785L22.7295 6.03739L23.7374 4.26001Z" fill="white"/>
<path d="M25.7543 4.46886L26.1372 4.49767L25.8631 8.13938L25.4802 8.11057L25.5277 7.48035C25.202 7.59624 24.862 7.69099 24.5035 7.7643L24.4399 7.38245C24.8209 7.33089 25.1929 7.23854 25.5562 7.10142L25.6462 5.9048L24.6331 5.82856L24.6604 5.46559L25.6735 5.54183L25.7543 4.46886ZM27.4893 8.22564L26.875 8.17942C26.5918 8.15811 26.4636 7.99603 26.4858 7.70086L26.7235 4.5418L27.1025 4.57031L27.0055 5.85867C27.3416 5.76362 27.665 5.62349 27.9758 5.43829L28.1721 5.76193C27.7472 5.97064 27.3508 6.12131 26.9782 6.22164L26.8692 7.66955C26.8617 7.76927 26.9017 7.82442 26.9895 7.83102L27.4522 7.86584C27.524 7.87124 27.5822 7.84354 27.6226 7.78641C27.6553 7.72469 27.6921 7.50282 27.7322 7.12878L28.0785 7.27117C28.0195 7.73605 27.9503 8.01564 27.879 8.11056C27.8 8.20089 27.6727 8.23945 27.4893 8.22564Z" fill="white"/>
<path d="M28.8885 5.73972L31.5204 5.88617L31.4533 7.0923L30.339 7.0303L30.2832 8.03275C30.2688 8.29235 30.1257 8.41659 29.8581 8.4017L29.4268 8.3777L29.3591 8.00938C29.494 8.03291 29.6214 8.048 29.7452 8.05489C29.849 8.06067 29.9078 8.01186 29.9132 7.91601L29.9636 7.00941L28.8214 6.94586L28.8885 5.73972ZM31.0981 6.70798L31.1248 6.22872L29.2437 6.12405L29.217 6.60331L31.0981 6.70798ZM30.2698 4.74693C30.319 4.86985 30.3632 5.01253 30.4066 5.16718L32.0201 5.25696L32.0004 5.61241L28.4379 5.41419L28.4576 5.05874L30.0152 5.1454C29.9744 5.01493 29.925 4.896 29.8748 4.78905L30.2698 4.74693ZM31.0313 7.26112C31.3665 7.57222 31.646 7.87622 31.8697 8.17711L31.5788 8.43735C31.3866 8.14623 31.1158 7.83069 30.7661 7.49074L31.0313 7.26112ZM29.2061 7.15956L29.4603 7.41408C29.1934 7.74776 28.873 8.03441 28.4951 8.27378L28.2726 7.95293C28.6374 7.73285 28.9485 7.46973 29.2061 7.15956Z" fill="white"/>
<path d="M32.5244 5.30821L34.0991 5.37261C34.045 5.22627 33.9866 5.08777 33.9236 4.96509L34.3338 4.91782C34.3881 5.06015 34.4377 5.21831 34.4867 5.38846L36.0894 5.454L36.0745 5.81769L34.4839 5.75265L34.466 6.18828L35.765 6.2414L35.7043 7.72416C35.6939 7.97995 35.5526 8.10628 35.2888 8.09549L34.8851 8.07898L34.8039 7.71536L35.1828 7.75087C35.2787 7.75479 35.3286 7.7088 35.3322 7.62087L35.3744 6.58973L34.4512 6.55198L34.3655 8.64623L33.9818 8.63054L34.0675 6.53629L33.1922 6.50049L33.1295 8.03521L32.7578 8.02001L32.8354 6.1216L34.0824 6.17259L34.1002 5.73696L32.5095 5.67191L32.5244 5.30821Z" fill="white"/>
<path d="M37.5329 5.88572L38.3485 5.91292C38.3838 5.81404 38.4111 5.7149 38.4346 5.61162L37.1713 5.56948L37.1317 6.75682C37.0882 7.57983 36.9341 8.23906 36.6696 8.73052L36.3903 8.46506C36.5961 8.05569 36.7154 7.47935 36.7479 6.74402L36.7999 5.18489L40.1021 5.29504L40.0897 5.66683L38.8104 5.62416C38.7829 5.7273 38.7555 5.83044 38.7203 5.92532L39.8037 5.96146L39.7506 7.55257L38.8511 7.52257L38.8207 8.43406C38.8127 8.67393 38.6806 8.79359 38.4328 8.78533L38.029 8.77186L37.9574 8.39726C38.0808 8.41739 38.2005 8.42939 38.3124 8.43312C38.3964 8.43592 38.4416 8.40141 38.444 8.32945L38.4713 7.5099L37.4799 7.47683L37.5329 5.88572ZM39.3943 7.1965L39.4041 6.90066L37.869 6.84946L37.8591 7.14529L39.3943 7.1965ZM37.8798 6.52564L39.4149 6.57684L39.4244 6.293L37.8893 6.24179L37.8798 6.52564ZM37.7356 7.60943L38.0621 7.78041C37.8747 8.11835 37.6529 8.40712 37.4047 8.65098L37.0963 8.41657C37.3439 8.1927 37.557 7.92365 37.7356 7.60943ZM39.4548 7.66277C39.7078 7.99539 39.9062 8.28617 40.042 8.53483L39.719 8.74018C39.5799 8.47139 39.3897 8.17289 39.1445 7.84453L39.4548 7.66277Z" fill="white"/>
<path d="M41.9158 6.82197L41.1723 6.79725L41.1216 8.32041C41.1184 8.41635 41.1687 8.47005 41.2766 8.47364L41.9722 8.49677C42.0922 8.50076 42.1692 8.4713 42.1992 8.41226C42.2333 8.34936 42.2618 8.21423 42.2845 8.01088L42.6364 8.14264C42.5928 8.48939 42.5378 8.69967 42.4634 8.76924C42.3973 8.83108 42.2644 8.85868 42.0725 8.8523L41.101 8.82C40.8491 8.81162 40.7292 8.68757 40.7372 8.4477L40.8003 6.54875L40.602 6.73426L40.3884 6.41899C40.7797 6.08381 41.1412 5.6836 41.4728 5.22236L41.7526 5.23167C42.0922 5.61116 42.4152 6.00611 42.7138 6.41626L42.4573 6.66788C42.1286 6.2007 41.8565 5.83945 41.6327 5.58788C41.4146 5.8888 41.1729 6.17692 40.8996 6.452L42.2988 6.49852L42.2621 7.60191C42.2508 7.82165 42.127 7.9336 41.8866 7.94162C41.7307 7.93643 41.5829 7.92752 41.4433 7.91487L41.3631 7.55601C41.5105 7.57692 41.6382 7.58917 41.7501 7.59289C41.8421 7.59595 41.8917 7.54957 41.8946 7.46162L41.9158 6.82197ZM42.9209 5.60269L43.2927 5.61506L43.2107 8.08169L42.8389 8.06933L42.9209 5.60269ZM43.5027 8.92786L42.8991 8.90779L42.8232 8.54107C43.0186 8.56358 43.2062 8.57782 43.3821 8.58367C43.4781 8.58686 43.528 8.52848 43.5319 8.41255L43.6358 5.28628L44.0156 5.2989L43.9085 8.52112C43.8992 8.80097 43.7626 8.9365 43.5027 8.92786Z" fill="white"/>
<path d="M44.6154 5.5549L46.1023 5.61372L46.0879 5.97743L44.601 5.91862L44.6154 5.5549ZM44.4249 6.62821L46.2035 6.69856L46.1889 7.06628L45.2896 7.0307C45.1241 7.57258 44.9844 7.96737 44.8703 8.21906C45.1363 8.17354 45.4073 8.10419 45.679 8.01486C45.5949 7.81538 45.5102 7.62789 45.4251 7.45239L45.751 7.30916C45.9216 7.65217 46.0827 8.03083 46.2346 8.44116L45.9002 8.59606L45.8064 8.33615C45.3811 8.46344 44.9248 8.56148 44.4337 8.63012L44.356 8.26677C44.3963 8.26035 44.4208 8.24931 44.4372 8.23795C44.5513 8.08635 44.7115 7.68036 44.9219 7.01616L44.4103 6.99592L44.4249 6.62821ZM46.7991 5.4051L47.1748 5.41996L47.1441 6.19535L48.0074 6.2295C47.9559 7.53248 47.9041 8.33506 47.8561 8.6374C47.8001 8.93943 47.5903 9.08324 47.2266 9.06886C47.1626 9.06633 47.051 9.05391 46.8915 9.03959L46.8168 8.70037C46.9602 8.71806 47.0838 8.73095 47.1877 8.73506C47.3636 8.74202 47.4673 8.65005 47.5069 8.45946C47.5383 8.27256 47.5751 7.64552 47.6252 6.58267L47.1296 6.56306L47.1281 6.59904C47.0706 7.74966 46.7616 8.5781 46.197 9.08818L45.9232 8.82515C46.4255 8.37265 46.7032 7.62704 46.7524 6.58417L46.7538 6.5482L46.2462 6.52812L46.2608 6.16041L46.7684 6.18049L46.7991 5.4051Z" fill="white"/>
<path d="M48.8899 5.51226C49.1602 5.71024 49.3867 5.90199 49.5691 6.0955L49.2921 6.34576C49.1332 6.16145 48.9113 5.95792 48.626 5.73915L48.8899 5.51226ZM48.76 6.49093C49.0145 6.6841 49.2251 6.87504 49.3957 7.06395L49.1187 7.3142C48.9756 7.1347 48.7654 6.93578 48.4962 6.71782L48.76 6.49093ZM49.0621 7.63975L49.3911 7.78464C49.2028 8.25969 48.9959 8.70576 48.7666 9.11865L48.4272 8.94119C48.6688 8.52091 48.8791 8.08703 49.0621 7.63975ZM49.8736 5.62235L51.827 5.72167L51.7698 6.84821L49.8163 6.74889L49.8736 5.62235ZM51.4162 6.55388L51.4244 6.39409L50.2099 6.33235L50.2018 6.49214L51.4162 6.55388ZM50.2231 6.07268L51.4376 6.13443L51.4455 5.97863L50.2311 5.91688L50.2231 6.07268ZM49.5651 6.88431L51.9939 7.0078L51.9509 7.85471L49.522 7.73122L49.5651 6.88431ZM51.6215 7.5576L51.6364 7.26598L51.2569 7.24669L51.242 7.53831L51.6215 7.5576ZM50.9225 7.52206L50.9373 7.23044L50.5937 7.21297L50.5789 7.50459L50.9225 7.52206ZM50.2593 7.48834L50.2741 7.19672L49.8906 7.17722L49.8758 7.46884L50.2593 7.48834ZM49.7411 8.22698L49.5254 8.21602L49.5417 7.89643L51.8227 8.01241L51.8085 8.29204C51.623 8.47486 51.4029 8.62788 51.1519 8.75931C51.4235 8.85322 51.7319 8.93298 52.077 8.99859L51.8492 9.30342C51.4218 9.20158 51.0516 9.07862 50.7385 8.93454C50.3632 9.06766 49.9383 9.15419 49.4553 9.20173L49.3083 8.86183C49.6781 8.83657 50.0131 8.78552 50.3174 8.70887C50.0844 8.56485 49.8924 8.40289 49.7411 8.22698ZM50.7122 8.58476C50.9164 8.50702 51.1015 8.4123 51.2672 8.30457L50.1566 8.24811C50.3105 8.37208 50.493 8.48549 50.7122 8.58476Z" fill="white"/>
<path d="M54.2026 6.68046C53.9942 7.05179 53.7652 7.36968 53.5196 7.63439L53.2693 7.28953C53.6257 6.92375 53.9437 6.40719 54.219 5.74357L54.5968 5.85216C54.5301 6.0162 54.4599 6.172 54.3902 6.31981L56.0348 6.42612L56.0108 6.79734L54.7295 6.71452L54.6926 7.28533L55.8142 7.35783L55.7905 7.72506L54.6688 7.65256L54.6309 8.23933L55.7605 8.31236L55.7371 8.6756L54.6074 8.60258L54.5491 9.50469L54.1659 9.47992L54.3463 6.68975L54.2026 6.68046ZM52.7988 7.25109C52.6783 7.37959 52.5458 7.5073 52.4095 7.63077L52.3081 7.21537C52.7484 6.79088 53.0858 6.28359 53.3201 5.69749L53.6686 5.88836C53.5452 6.18502 53.3949 6.4639 53.2176 6.72501L53.0443 9.40742L52.6611 9.38265L52.7988 7.25109Z" fill="white"/>
<path d="M57.2037 6.11576L59.4686 6.29551L59.3582 7.68714L57.0933 7.50739L57.2037 6.11576ZM59.0078 7.2982L59.0613 6.62432L57.5541 6.5047L57.5006 7.17858L59.0078 7.2982ZM58.0106 7.88113L57.8682 9.67549L57.5013 9.64638L57.5165 9.45498L56.7788 9.39643L56.7637 9.58783L56.3928 9.5584L56.5352 7.76404L58.0106 7.88113ZM56.807 9.04155L57.5447 9.10009L57.6153 8.21089L56.8776 8.15234L56.807 9.04155ZM59.8687 8.0286L59.7263 9.82296L59.3475 9.7929L59.3627 9.6015L58.5931 9.54042L58.578 9.73182L58.2071 9.70239L58.3495 7.90803L59.8687 8.0286ZM58.6213 9.18554L59.3909 9.24661L59.4615 8.35741L58.6919 8.29633L58.6213 9.18554Z" fill="white"/>
<path d="M61.6926 7.90495L61.6571 8.27927C61.5272 8.33526 61.3978 8.38726 61.2643 8.43889L61.157 9.56982C61.1317 9.83662 60.9875 9.95955 60.7246 9.93462L60.4021 9.90402L60.3532 9.52973C60.4476 9.55074 60.5385 9.5674 60.6261 9.57571C60.7217 9.58477 60.7744 9.53754 60.7838 9.43798L60.8658 8.57386C60.7131 8.61564 60.5605 8.65741 60.4043 8.69482L60.3471 8.32376C60.5344 8.29734 60.7189 8.25858 60.9005 8.20751L60.981 7.35931L60.4951 7.31323L60.5295 6.95086L61.0153 6.99694L61.0811 6.30405L61.4633 6.34031L61.3976 7.0332L61.7998 7.07135L61.7654 7.43372L61.3632 7.39557L61.2987 8.07652C61.4321 8.02489 61.5664 7.9653 61.6926 7.90495ZM62.0383 7.01362L62.775 7.08349L62.8328 6.47423L63.2111 6.51011L63.1533 7.11938L63.9537 7.1953L63.919 7.56165L63.1186 7.48573L63.0778 7.9158C63.0691 8.00739 63.0524 8.09822 63.0358 8.18906L64.0234 8.28273L63.9886 8.64909L63.1205 8.56675C63.2809 9.12037 63.5583 9.58464 63.9487 9.95918L63.6655 10.2337C63.2822 9.82764 63.0063 9.34745 62.8371 8.80103C62.6143 9.28616 62.2538 9.69796 61.7556 10.0364L61.4844 9.76158C62.0064 9.42538 62.3633 9.00922 62.555 8.51311L61.7785 8.43945L61.8133 8.0731L62.6575 8.15317C62.6745 8.05836 62.6912 7.96753 62.6995 7.87992L62.7403 7.44985L62.0036 7.37997L62.0383 7.01362Z" fill="white"/>
<path d="M66.954 6.91581L67.3237 6.95683L67.2827 7.32656L68.0659 7.41343L68.0276 7.75931L67.2444 7.67244L67.2025 8.05012L68.1367 8.15375L68.097 8.51156L65.9025 8.26813L65.9422 7.91032L66.8327 8.00911L66.8746 7.63142L66.1272 7.54851L66.1656 7.20264L66.913 7.28554L66.954 6.91581ZM65.7921 8.68249L67.2075 8.83948L67.2379 8.56517L67.6156 8.60706L67.5851 8.88138L68.0543 8.93342L68.015 9.28725L67.5459 9.23521L67.4356 10.2291C67.4065 10.4915 67.2604 10.6121 66.998 10.583L66.4732 10.5248L66.4303 10.1498C66.5959 10.1802 66.7501 10.2054 66.9012 10.2221C67.0005 10.2332 67.058 10.1872 67.0685 10.0918L67.1682 9.19331L65.7529 9.03632L65.7921 8.68249ZM64.7526 10.3259L64.4028 10.2871L64.3634 9.91649C64.465 9.94386 64.5635 9.96283 64.6589 9.97342C64.7543 9.984 64.8117 9.93805 64.8232 9.83468L64.9154 9.00378C64.7709 9.03605 64.6265 9.06833 64.4785 9.09618L64.4254 8.70394C64.6048 8.68359 64.781 8.65484 64.9582 8.61815L65.0503 7.78724L64.5971 7.73697L64.6372 7.37519L65.0905 7.42546L65.1659 6.74563L65.5356 6.78664L65.4602 7.46647L65.8418 7.50881L65.8017 7.87059L65.4201 7.82826L65.3433 8.52001C65.4811 8.47493 65.6154 8.42543 65.7497 8.37594L65.7069 8.76157C65.5726 8.81107 65.4348 8.85615 65.3014 8.8977L65.1824 9.97111C65.1533 10.2335 65.0071 10.3541 64.7526 10.3259ZM66.2238 9.21734C66.3846 9.47263 66.5048 9.69523 66.5844 9.88516L66.2633 10.0588C66.1771 9.85608 66.0538 9.62508 65.897 9.37024L66.2238 9.21734Z" fill="white"/>
<path d="M69.0331 8.57316L69.3498 8.74654C69.1587 9.20206 68.9421 9.54142 68.6955 9.76809L68.4451 9.48621C68.6828 9.26646 68.8784 8.96476 69.0331 8.57316ZM70.0338 7.26911L70.4148 7.31761L70.3208 8.05565L71.5747 8.21529C71.5314 8.49204 71.4946 8.74945 71.4563 8.98652L71.7344 8.89289C71.8714 9.27324 72 9.6888 72.1155 10.143L71.7491 10.2657C71.6558 9.85869 71.5465 9.48187 71.4282 9.14423C71.3749 9.43584 71.3257 9.6957 71.2815 9.91589C71.1873 10.3394 71.0815 10.6324 70.968 10.7953C70.8555 10.9504 70.6976 11.019 70.4932 11.0091L70.0289 10.95L69.9722 10.5718C70.1061 10.5969 70.2326 10.617 70.3516 10.6322C70.5461 10.6569 70.6942 10.5387 70.795 10.2854C70.8938 10.0157 71.0088 9.42954 71.1433 8.53134L70.2584 8.41868C70.1384 9.04454 69.9617 9.54623 69.7281 9.92375C69.4667 10.33 69.083 10.6199 68.5805 10.7978L68.4161 10.4422C68.9003 10.2498 69.2502 9.97178 69.4654 9.61207C69.6442 9.28404 69.7816 8.87007 69.8775 8.37018L68.9331 8.24995L68.9796 7.88489L69.9399 8.00715L70.0338 7.26911Z" fill="white"/>
<path d="M74.754 7.90078L75.1341 7.95519L75.0485 8.5531L76.0344 8.69425L75.9823 9.05853L74.9963 8.91738L74.9028 9.57072L75.9957 9.72718L75.9435 10.0915L74.6566 9.90723C74.355 10.4055 74.1009 10.7692 73.8904 10.9976C74.3327 11.0125 74.7745 11.003 75.2147 10.9771C75.1423 10.7486 75.0638 10.5353 74.9829 10.3378L75.3642 10.2712C75.5411 10.7006 75.687 11.1498 75.7966 11.6261L75.4175 11.7335C75.3853 11.5915 75.3525 11.4535 75.3181 11.3273C74.7116 11.3577 74.0572 11.3569 73.354 11.329L73.314 10.9879C73.3473 10.9805 73.3767 10.9726 73.3982 10.9636C73.5946 10.8341 73.8781 10.4625 74.2488 9.84885L73.3737 9.72357L73.4259 9.35928L74.5227 9.5163L74.6162 8.86297L73.7095 8.73315L73.7616 8.36887L74.6684 8.49868L74.754 7.90078ZM73.031 7.68643C73.256 7.9207 73.4421 8.14533 73.5925 8.36486L73.2841 8.59953C73.1603 8.39188 72.9709 8.16272 72.7203 7.90866L73.031 7.68643ZM72.7993 8.59882C73.0046 8.83024 73.1742 9.05657 73.3122 9.27836L73.0004 9.5085C72.8885 9.30256 72.7194 9.07227 72.4927 8.82161L72.7993 8.59882ZM73.0235 9.77042L73.3442 9.95776C73.1031 10.4283 72.8462 10.8684 72.5773 11.2784L72.225 11.0582C72.5187 10.6437 72.7864 10.2133 73.0235 9.77042Z" fill="white"/>
<path d="M77.2072 8.22892L77.559 8.28336C77.3514 8.52647 77.1827 8.77965 77.0529 9.0429C76.8817 9.36451 76.7732 9.69985 76.72 10.0438C76.6674 10.3837 76.6695 10.7362 76.7349 11.0984C76.7796 11.3846 76.8639 11.677 76.9877 11.9754L76.6359 11.921C76.4905 11.6313 76.3898 11.3405 76.3338 11.0485C76.2632 10.6936 76.2571 10.3405 76.3122 9.98471C76.3678 9.62499 76.481 9.28631 76.6549 8.97322C76.7977 8.7039 76.9816 8.45711 77.2072 8.22892Z" fill="white"/>
<path d="M80.0247 10.6835L79.6854 10.6272L79.7437 10.276L80.7894 10.4497L80.7311 10.8009L80.3917 10.7445L80.2305 11.7152C80.3942 11.7059 80.5586 11.6927 80.7197 11.6748L80.6614 12.026C80.3024 12.0637 79.9216 12.0856 79.5198 12.0878L79.4887 11.7136C79.6097 11.7175 79.7307 11.7214 79.8524 11.7213L80.0247 10.6835ZM81.2845 12.6201C81.1424 12.5965 81.0299 12.4684 80.9535 12.2448C80.8685 11.9753 80.8321 11.6327 80.8438 11.221C80.8541 10.8659 80.8926 10.4384 80.9607 9.93073L79.7414 9.72821L79.8017 9.36519L81.0131 9.5664C81.042 9.34411 81.0806 9.1113 81.12 8.87455L81.483 8.93484C81.4423 9.17949 81.4043 9.40836 81.3762 9.62669L82.1298 9.75188L82.0696 10.1149L81.3238 9.99103C81.2393 10.5974 81.1981 11.0893 81.1931 11.4615C81.1973 11.9244 81.2494 12.1723 81.3526 12.2097C81.4171 12.2123 81.5189 11.99 81.6646 11.552L81.9206 11.8418C81.6835 12.3904 81.4739 12.6516 81.2845 12.6201ZM81.8151 8.98595C81.9507 9.19499 82.0501 9.37775 82.1225 9.52764L81.8319 9.6659C81.7621 9.50022 81.6594 9.31286 81.5317 9.10513L81.8151 8.98595ZM79.2108 8.60205C79.4233 8.83603 79.5964 9.06347 79.7294 9.28829L79.4296 9.50612C79.3105 9.29576 79.1341 9.06372 78.9078 8.81528L79.2108 8.60205ZM78.488 9.65789L79.3759 9.80536L79.1058 11.4311C79.2117 11.3554 79.3228 11.2725 79.4398 11.1784L79.4729 11.5894C79.2126 11.7894 78.945 11.9599 78.6663 12.1001L78.5799 11.7411C78.6522 11.6963 78.6982 11.6391 78.7107 11.5641L78.9532 10.1041L78.4284 10.017L78.488 9.65789Z" fill="white"/>
<path d="M84.1944 9.64786L86.1156 9.99338L86.0497 10.3595L84.1285 10.014L84.1944 9.64786ZM83.919 10.6144L86.1078 11.008L86.042 11.3742L85.4278 11.2637L85.1276 12.9329C85.0823 13.1849 84.9179 13.2854 84.6384 13.2351L84.0676 13.1324L84.0508 12.7514C84.229 12.7998 84.4048 12.8395 84.5701 12.8692C84.6843 12.8898 84.7511 12.8571 84.766 12.7744L85.0499 11.1957L83.8531 10.9805L83.919 10.6144ZM83.5598 9.33458L83.874 9.55366C83.5835 9.94848 83.1598 10.2706 82.5936 10.5264L82.5467 10.1318C82.9774 9.92888 83.3136 9.6642 83.5598 9.33458ZM83.5827 10.2694L83.893 10.4878C83.7484 10.6812 83.5785 10.8579 83.3831 11.0179L83.0333 12.9627L82.6672 12.8968L82.9511 11.3182C82.7874 11.4147 82.6166 11.5059 82.4307 11.5903L82.387 11.2005C82.8925 10.9662 83.2936 10.6563 83.5827 10.2694Z" fill="white"/>
<path d="M86.7398 9.85596L87.0896 9.92205C87.2222 10.2117 87.3132 10.5057 87.3619 10.808C87.4174 11.1604 87.415 11.5182 87.3474 11.8759C87.2806 12.2296 87.1531 12.5597 86.972 12.8715C86.8179 13.1273 86.6259 13.3679 86.3961 13.5931L86.0462 13.527C86.2586 13.2863 86.4356 13.0388 86.5773 12.7847C86.7559 12.4643 86.8794 12.1335 86.9433 11.7955C87.0079 11.4535 87.0135 11.1004 86.9634 10.7409C86.925 10.4486 86.8505 10.1537 86.7398 9.85596Z" fill="white"/>
<path d="M89.1921 10.3209L89.6438 12.3136L88.4706 13.9866L88.1845 13.7835L89.267 12.2395L88.8503 10.4004L89.1921 10.3209Z" fill="white"/>
<path d="M93.8001 11.9418L93.2408 14.669L92.8842 14.5959L92.926 14.3922L92.3069 14.2652L92.2418 14.5826L91.8852 14.5095L92.4678 11.6686L92.84 11.7449C92.954 11.5478 93.053 11.3435 93.131 11.1227L93.4928 11.25C93.4094 11.4574 93.3096 11.6452 93.1966 11.8181L93.8001 11.9418ZM92.3776 13.9204L92.9967 14.0473L93.155 13.2754L92.5359 13.1484L92.3776 13.9204ZM92.6042 12.8154L93.2233 12.9423L93.3712 12.2213L92.752 12.0944L92.6042 12.8154ZM94.3125 13.0269C94.5052 13.4012 94.648 13.7204 94.7354 13.9915L94.3989 14.1389C94.303 13.8497 94.1579 13.5219 93.9722 13.1531L94.3125 13.0269ZM95.8212 12.3604C95.5439 13.7122 95.3532 14.5429 95.2497 14.8483C95.1527 15.1224 94.9357 15.2249 94.6026 15.1566C94.5242 15.1405 94.3848 15.1037 94.1913 15.0518L94.171 14.6924C94.3418 14.7356 94.4891 14.774 94.6145 14.7997C94.7713 14.8318 94.8783 14.768 94.9355 14.6083C94.9992 14.4172 95.146 13.7613 95.3828 12.6461L94.3993 12.4444C94.2414 12.657 94.0718 12.8468 93.8827 13.0122L93.7196 12.6725C94.0554 12.3494 94.3297 11.9279 94.5346 11.4065L94.8933 11.529C94.8091 11.7404 94.7125 11.9329 94.6104 12.1121L95.8212 12.3604Z" fill="white"/>
<path d="M96.9059 11.9502C97.1283 12.2138 97.3075 12.4683 97.4446 12.7099L97.1278 12.9128C97.0126 12.684 96.838 12.4264 96.6003 12.1391L96.9059 11.9502ZM98.4156 15.9321C98.2003 15.8867 97.9663 15.8331 97.7167 15.7763C97.4631 15.7187 97.2607 15.6514 97.1046 15.5775C96.9579 15.4975 96.8408 15.3746 96.7515 15.2168C96.7108 15.1387 96.6704 15.0974 96.6234 15.0875C96.5413 15.0702 96.3632 15.2165 96.0892 15.5266L95.8689 15.2143C96.1316 14.9386 96.3499 14.7763 96.5229 14.731L96.7569 13.6235L96.2325 13.5127L96.3052 13.1683L97.178 13.3527L96.8655 14.832C96.8817 14.8518 96.8972 14.8755 96.9118 14.9031C96.9795 15.0278 97.0569 15.1259 97.144 15.1975C97.2498 15.2771 97.4146 15.3487 97.6438 15.4053C97.8661 15.4563 98.1274 15.5156 98.4327 15.5801C98.6245 15.6206 98.821 15.658 99.0175 15.6954C99.214 15.7328 99.3683 15.7573 99.4756 15.7717L99.3079 16.1206L98.4156 15.9321ZM98.3974 12.6699L97.642 12.5104L97.7074 12.2012L99.8559 12.6551L99.8006 12.9173C99.5322 13.065 99.2549 13.1781 98.9668 13.2645C98.973 13.2739 98.98 13.2795 98.9862 13.289L99.7728 13.4552L99.4058 15.1928C99.357 15.4237 99.203 15.5138 98.9486 15.4601L98.6473 15.3965L98.6343 15.0707L98.9089 15.1451C98.995 15.1633 99.051 15.1301 99.0692 15.044L99.1114 14.8445L98.5478 14.7254L98.4122 15.3672L98.0718 15.2953L98.2073 14.6535L97.6555 14.5369L97.5183 15.1866L97.1661 15.1122L97.6125 12.9988L98.5126 13.189C98.4016 13.0756 98.2759 12.955 98.1336 12.835L98.3974 12.6699ZM98.777 13.0404C98.9587 12.9929 99.1312 12.9312 99.2936 12.8593L98.417 12.6741C98.5458 12.7994 98.6677 12.9192 98.777 13.0404ZM97.777 13.9616L97.7192 14.2356L98.271 14.3521L98.3289 14.0782L97.777 13.9616ZM98.6693 14.1501L98.6115 14.4241L99.175 14.5431L99.2329 14.2691L98.6693 14.1501ZM99.2974 13.9639L99.3553 13.6899L98.7917 13.5709L98.7338 13.8448L99.2974 13.9639ZM98.3933 13.7729L98.4512 13.499L97.8994 13.3824L97.8415 13.6564L98.3933 13.7729Z" fill="white"/>
<path d="M103.857 13.7919L103.201 16.8423L102.841 16.765L102.889 16.5421L102.205 16.3951L102.156 16.6219L101.796 16.5446L102.453 13.4903L103.857 13.7919ZM102.28 16.047L102.964 16.194L103.422 14.0627L102.738 13.9156L102.28 16.047ZM100.949 13.654C100.817 13.8302 100.676 13.9883 100.532 14.129L100.251 13.852C100.581 13.5382 100.845 13.1818 101.042 12.7821L101.393 12.9393C101.322 13.0796 101.245 13.2063 101.17 13.3292L102.237 13.5586L102.161 13.9145L101.629 13.8002C101.569 14.041 101.509 14.2653 101.441 14.4675L102.051 14.5986L101.974 14.9545L101.313 14.8125C101.279 14.8952 101.241 14.977 101.209 15.0519C101.395 15.3456 101.58 15.6675 101.766 16.0185L101.465 16.3139C101.297 15.9177 101.151 15.6041 101.029 15.3733C100.777 15.7487 100.424 16.0371 99.9649 16.2329L99.7863 15.8836C100.258 15.6699 100.603 15.3594 100.826 14.9491C100.857 14.8782 100.894 14.8042 100.926 14.7293L100.156 14.5638L100.232 14.2079L101.057 14.3852C101.125 14.183 101.186 13.9587 101.246 13.7179L100.949 13.654Z" fill="white"/>
<path d="M104.732 13.5518L105.147 15.5526L103.943 17.2034L103.66 16.995L104.771 15.4714L104.389 13.6249L104.732 13.5518ZM105.401 13.6964L105.815 15.6971L104.611 17.348L104.329 17.1396L105.44 15.616L105.042 13.7661L105.401 13.6964Z" fill="white"/>
</svg>
