<svg width="103" height="22" viewBox="0 0 103 22" fill="none" xmlns="http://www.w3.org/2000/svg">
<path d="M2.83933 4.9239L3.19771 4.99597L2.78766 6.84325L3.88883 8.37403L3.60514 8.58057L2.41181 6.92196L2.83933 4.9239ZM3.5088 4.78369L3.85152 4.85904L3.45714 6.70304L4.5583 8.23382L4.27461 8.44036L3.08129 6.78175L3.5088 4.78369Z" fill="white"/>
<path d="M5.32142 4.4461C5.51128 4.6106 5.70133 4.79549 5.88766 5.0016L5.67043 5.17391L6.48076 5.00377C6.57483 4.75104 6.64421 4.45854 6.68971 4.13019L7.07432 4.15161C7.04244 4.42806 6.98133 4.68204 6.89963 4.91582L7.64341 4.75964L7.71903 5.11979L6.44286 5.38775L6.46834 5.5091C6.49996 5.69865 6.51656 5.875 6.52285 6.04126L8.08088 5.71411L8.1565 6.07426L6.78638 6.36195C7.07765 6.79534 7.64507 7.06449 8.48945 7.1733L8.3442 7.57165C7.45144 7.4076 6.83709 7.07065 6.49415 6.56636C6.46231 6.76515 6.41072 6.94764 6.33853 7.10994C6.14631 7.51815 5.7685 7.8795 5.2051 8.19399L4.93331 7.91181C5.49507 7.5895 5.85041 7.25739 6.00324 6.91467C6.05378 6.78553 6.09012 6.64711 6.11306 6.50333L4.77425 6.78444L4.69863 6.42429L6.13922 6.12181C6.13601 5.95082 6.12334 5.77364 6.09253 5.58801L6.06705 5.46666L4.78697 5.73544L4.71134 5.37529L5.54908 5.19939C5.37222 4.99947 5.19329 4.82859 5.01537 4.68202L5.32142 4.4461Z" fill="white"/>
<path d="M8.46429 3.90514L11.432 3.30391L11.5059 3.6685L10.2553 3.92186L10.4491 4.87843L11.9741 4.56948L12.0495 4.94191L10.5245 5.25086L10.7953 6.58771C10.8509 6.86213 10.7345 7.03265 10.4483 7.09063L9.82495 7.21691L9.67348 6.87212C9.8758 6.84338 10.0695 6.8123 10.2498 6.77577C10.3753 6.75035 10.4261 6.67884 10.4038 6.56907L10.1521 5.32631L8.56041 5.64877L8.48496 5.27633L10.0766 4.95388L9.88284 3.99731L8.53815 4.26973L8.46429 3.90514Z" fill="white"/>
<path d="M13.0795 4.6536L13.2734 5.69978C13.5828 5.56922 13.9097 5.4232 14.2447 5.25534L14.4065 5.57929C13.9475 5.80267 13.4731 6.00858 12.9879 6.20021L12.7808 5.9172C12.8657 5.84857 12.8991 5.7651 12.8809 5.66677L12.4384 3.27943C12.9154 3.10965 13.3448 2.92429 13.7259 2.71942L14.0133 2.97533C13.6844 3.15426 13.3015 3.32694 12.8652 3.49729L13.0132 4.29569L14.0987 4.09451L14.1651 4.45241L13.0795 4.6536ZM15.7702 5.56248L15.4005 5.631L15.2312 5.28812L15.5827 5.23111C15.685 5.21216 15.7252 5.14369 15.7047 5.03356L15.3272 2.99626L14.5524 3.13986L15.1253 6.23121L14.7477 6.30119L14.1092 2.85586L15.6391 2.57231L16.0969 5.04224C16.1516 5.33722 16.0416 5.51219 15.7702 5.56248Z" fill="white"/>
<path d="M16.4335 3.54055L16.5628 2.33749L16.9481 2.34123L16.8585 3.10466L17.4432 3.01201C17.4719 2.70776 17.4823 2.39022 17.4784 2.05875L17.8692 2.04543C17.8712 2.36505 17.8583 2.66679 17.8343 2.95003L19.6437 2.6633L19.7007 3.02282L17.7965 3.32457C17.7776 3.4612 17.7536 3.59056 17.7328 3.71534L19.3131 3.46493L19.3632 3.78098C19.3118 4.12122 19.1646 4.44425 18.9135 4.75132C19.2401 4.86967 19.6279 4.96615 20.0732 5.04139L19.936 5.42763C19.4304 5.32955 18.9967 5.19982 18.6402 5.04572C18.3626 5.31247 18.0106 5.57073 17.5845 5.8205L17.3306 5.49624C17.7031 5.29141 18.0179 5.07955 18.2714 4.86522C17.9821 4.70047 17.7534 4.50991 17.5901 4.29685C17.3983 4.92663 17.1126 5.44978 16.7371 5.86568L16.4884 5.5487C16.9573 4.98032 17.2603 4.26002 17.3974 3.3878L16.4335 3.54055ZM17.8301 4.04822C17.9974 4.26065 18.2373 4.44538 18.5491 4.59847C18.7661 4.35754 18.9134 4.11146 18.9877 3.86479L17.8301 4.04822ZM18.526 1.8968C18.8311 2.05904 19.0935 2.23211 19.3123 2.41208L19.0862 2.72329C18.8957 2.5429 18.6406 2.36462 18.3126 2.18576L18.526 1.8968Z" fill="white"/>
<path d="M22.5706 1.33429L22.9216 1.43644L22.3566 3.24237L23.3242 4.86089L23.0241 5.04267L21.9755 3.28898L22.5706 1.33429ZM23.2495 1.25126L23.5847 1.35536L23.0356 3.15935L24.0032 4.77786L23.703 4.95964L22.6544 3.20596L23.2495 1.25126Z" fill="white"/>
<path d="M27.3399 0.893899L27.6703 1.01205L27.0455 2.79124L27.9439 4.44918L27.6363 4.61812L26.6627 2.82171L27.3399 0.893899Z" fill="white"/>
<path d="M29.8658 0.784328L30.2576 0.770472L30.2821 1.46204L31.7052 1.41171L31.7735 3.3425L31.3937 3.35593L31.3856 3.12807L30.3423 3.16498L30.3896 4.50414L29.9979 4.51799L29.9505 3.17883L28.9112 3.21559L28.9192 3.44345L28.5395 3.45688L28.4712 1.52609L29.8903 1.4759L29.8658 0.784328ZM28.898 2.84382L29.9374 2.80706L29.9034 1.84766L28.8641 1.88442L28.898 2.84382ZM30.3291 2.79321L31.3725 2.75631L31.3386 1.79691L30.2952 1.83381L30.3291 2.79321Z" fill="white"/>
<path d="M33.143 1.51563L35.1229 1.53071L35.1203 1.8747L34.3243 1.86864L34.3206 2.36062L34.9926 2.36574L34.99 2.70173L34.318 2.69661L34.3138 3.2526L34.7218 3.2557C34.651 3.09516 34.576 2.95859 34.4969 2.83798L34.7977 2.74427C34.8887 2.87296 34.9676 3.00957 35.0345 3.16208L34.8178 3.25644L35.2258 3.25954L35.2231 3.60353L33.0192 3.58675L33.0218 3.24276L33.9298 3.24967L33.934 2.69369L33.262 2.68857L33.2646 2.35258L33.9366 2.3577L33.9403 1.86571L33.1404 1.85962L33.143 1.51563ZM35.8197 0.899996L35.7928 4.43189L35.4089 4.42897L35.41 4.27697L32.8181 4.25724L32.8169 4.40923L32.4329 4.40631L32.4598 0.874411L35.8197 0.899996ZM32.8208 3.90125L35.4127 3.92098L35.433 1.25706L32.8411 1.23732L32.8208 3.90125Z" fill="white"/>
<path d="M36.902 1.61623C36.8311 1.76103 36.7453 1.88109 36.6528 1.97281L36.3556 1.73845C36.5573 1.53979 36.6906 1.2618 36.76 0.896684L37.113 0.96951C37.0877 1.08044 37.0627 1.18337 37.0344 1.27413L37.398 1.2914L37.4204 0.819928L37.796 0.837766L37.7736 1.30923L38.4888 1.3432L38.4723 1.69081L37.7571 1.65684L37.7368 2.08436L38.5678 2.12383L38.5509 2.47943L37.7199 2.43996L37.7039 2.77558L38.4751 2.81221L38.4244 3.879C38.4119 4.14271 38.2698 4.26811 37.9981 4.2552L37.8023 4.2459L37.7233 3.88575L37.8983 3.91008C38.0062 3.91521 38.0644 3.86992 38.0686 3.78202L38.0988 3.14673L37.6872 3.12719L37.6214 4.51362L37.2458 4.49578L37.3117 3.10935L36.9001 3.0898L36.846 4.22852L36.4785 4.21106L36.5492 2.72074L37.3284 2.75774L37.3443 2.42212L36.4094 2.37772L36.4262 2.02212L37.3612 2.06652L37.3815 1.639L36.902 1.61623ZM38.7977 1.24575L39.1653 1.26321L39.0492 3.70845L38.6816 3.69099L38.7977 1.24575ZM39.4131 4.56268L38.8177 4.5344L38.7511 4.16683C38.9421 4.19192 39.1216 4.20845 39.2974 4.2168C39.4012 4.22173 39.4558 4.16826 39.461 4.06038L39.6099 0.92392L39.9855 0.941759L39.832 4.17412C39.8191 4.44581 39.6768 4.5752 39.4131 4.56268Z" fill="white"/>
<path d="M40.9733 1.0137C41.2174 1.25558 41.4257 1.49437 41.5904 1.7254L41.3007 1.96537C41.1592 1.74438 40.9593 1.5023 40.693 1.23842L40.9733 1.0137ZM42.9426 4.80508C42.7274 4.78651 42.4886 4.76188 42.2339 4.73588C41.9752 4.70954 41.7661 4.6674 41.6061 4.61344C41.4508 4.55186 41.3196 4.44418 41.2118 4.29837C41.1618 4.2258 41.1128 4.18945 41.0689 4.18567C40.9812 4.1781 40.8223 4.34505 40.5878 4.69016L40.3311 4.40704C40.5586 4.09746 40.7595 3.91003 40.9258 3.84409L41.0231 2.71628L40.4891 2.67019L40.5194 2.31949L41.4081 2.3962L41.2777 3.90658C41.2923 3.9239 41.3108 3.94156 41.3287 3.96719C41.415 4.08305 41.5038 4.17101 41.595 4.23107C41.7097 4.29718 41.882 4.34818 42.1204 4.37679C42.3432 4.40004 42.6099 4.42707 42.9207 4.4539C43.116 4.47075 43.3156 4.48396 43.5192 4.49752C43.7188 4.51073 43.8749 4.51618 43.9872 4.51784L43.8632 4.88454L42.9426 4.80508ZM42.2446 1.91435C42.1691 2.04434 42.0867 2.16169 42.001 2.27073L41.707 2.04862C41.9217 1.79414 42.0827 1.51093 42.1899 1.199L42.5304 1.30065C42.4939 1.39788 42.4578 1.49111 42.4183 1.57604L42.8168 1.61043L42.8554 1.16409L43.218 1.19539L43.1795 1.64173L43.9646 1.70949L43.9343 2.06019L43.1492 1.99243L43.1124 2.41884L44.1047 2.50449L44.0748 2.8512L41.612 2.63863L41.6419 2.29192L42.7498 2.38754L42.7866 1.96113L42.2446 1.91435ZM41.9131 2.91756L43.7622 3.07716L43.6607 4.25279L41.8116 4.09319L41.9131 2.91756ZM43.328 3.87478L43.3696 3.39257L42.2458 3.29557L42.2042 3.77778L43.328 3.87478Z" fill="white"/>
<path d="M45.5877 1.81089C45.8578 1.84292 46.0753 1.94523 46.2312 2.12484C46.3832 2.30398 46.4466 2.51693 46.4169 2.76717C46.3877 3.01345 46.266 3.22459 46.0592 3.4055C45.9344 3.50751 45.7218 3.63537 45.4172 3.7926C45.0873 3.95891 44.8834 4.116 44.8054 4.26385L46.2235 4.43199L46.1783 4.81332L44.224 4.58159C44.2574 4.29957 44.378 4.06413 44.5941 3.87224C44.712 3.76134 44.9467 3.61597 45.2948 3.43168C45.5015 3.31923 45.6493 3.228 45.7386 3.154C45.8827 3.02608 45.9686 2.87917 45.9884 2.71234C46.0072 2.55345 45.9776 2.4291 45.8997 2.3393C45.8217 2.24949 45.6953 2.19423 45.5285 2.17445C45.3497 2.15325 45.2076 2.19682 45.1017 2.30913C44.9922 2.41699 44.9243 2.58214 44.889 2.81158L44.4561 2.76025C44.4977 2.44295 44.6192 2.19956 44.8206 2.03009C45.0278 1.8452 45.2858 1.7751 45.5877 1.81089Z" fill="white"/>
<path d="M48.4873 2.18215C48.8198 2.23017 49.0572 2.40589 49.1987 2.71327C49.3272 2.99857 49.3601 3.35896 49.2966 3.7984C49.2337 4.23388 49.0997 4.57423 48.8957 4.81151C48.6736 5.06234 48.3957 5.16771 48.0631 5.11969C47.7306 5.07168 47.4938 4.892 47.3517 4.58858C47.2232 4.30328 47.1904 3.94289 47.2538 3.50345C47.3178 3.06005 47.4513 2.72366 47.6547 2.49034C47.8774 2.23555 48.1547 2.13414 48.4873 2.18215ZM48.4347 2.54638C48.2011 2.51265 48.0205 2.6159 47.8883 2.85952C47.7919 3.02342 47.7254 3.26034 47.6814 3.56518C47.6379 3.86606 47.6347 4.11213 47.6803 4.30057C47.7387 4.56766 47.8822 4.72175 48.1157 4.75547C48.3454 4.78862 48.5305 4.68199 48.6621 4.44233C48.7551 4.2739 48.8256 4.03755 48.8691 3.73667C48.9131 3.43183 48.9123 3.18519 48.8702 3.00128C48.8123 2.73023 48.6643 2.57953 48.4347 2.54638Z" fill="white"/>
<path d="M51.7895 2.69222C52.0577 2.73774 52.2697 2.85083 52.4165 3.03803C52.5593 3.22455 52.6119 3.4404 52.5697 3.68885C52.5282 3.93335 52.3961 4.13813 52.1805 4.30846C52.0507 4.40408 51.832 4.52113 51.5199 4.6629C51.1821 4.81247 50.9706 4.95914 50.8853 5.1029L52.2932 5.34188L52.2289 5.72047L50.2887 5.39111C50.3362 5.11112 50.4684 4.88201 50.6938 4.70119C50.8171 4.59634 51.0589 4.46292 51.4158 4.2963C51.6278 4.19435 51.78 4.11063 51.8729 4.04121C52.0232 3.92066 52.1163 3.77824 52.1445 3.61261C52.1712 3.45487 52.1479 3.32919 52.0746 3.2356C52.0012 3.142 51.8778 3.08047 51.7121 3.05235C51.5347 3.02223 51.3905 3.05862 51.2791 3.16548C51.1644 3.26772 51.0883 3.42926 51.0415 3.65665L50.6117 3.58368C50.6692 3.26887 50.8027 3.03187 51.0123 2.87271C51.2285 2.69843 51.4898 2.64135 51.7895 2.69222Z" fill="white"/>
<path d="M53.8558 3.10748L55.5449 3.43172L55.4725 3.80883L54.1291 3.55095L53.8912 4.34434L53.903 4.3466C54.0068 4.27284 54.1171 4.22884 54.2385 4.21142C54.349 4.18782 54.4706 4.1908 54.5963 4.21493C54.8595 4.26545 55.0589 4.39334 55.1908 4.59786C55.3226 4.80237 55.3637 5.05466 55.3057 5.35714C55.2499 5.64783 55.0946 5.86241 54.8471 6.00632C54.6151 6.13286 54.3596 6.16935 54.0807 6.11582C53.8293 6.06756 53.6268 5.95537 53.4725 5.7832C53.3008 5.59547 53.2308 5.36615 53.2609 5.10312L53.6812 5.1838C53.6668 5.34395 53.7063 5.47779 53.7972 5.57671C53.8779 5.66552 53.9969 5.72501 54.154 5.75517C54.3268 5.78835 54.4827 5.76125 54.621 5.67781C54.7599 5.59044 54.846 5.46033 54.8807 5.27963C54.9184 5.08321 54.8967 4.92021 54.8157 4.79061C54.7347 4.66101 54.6038 4.57887 54.4153 4.54268C54.2895 4.51855 54.1797 4.51783 54.0764 4.54687C53.9652 4.57441 53.8762 4.63472 53.8016 4.7263L53.4009 4.64938L53.8558 3.10748Z" fill="white"/>
<path d="M57.1263 3.28301L57.5421 5.28354L56.339 6.93511L56.0565 6.72691L57.1667 5.20262L56.7831 3.35634L57.1263 3.28301Z" fill="white"/>
<path d="M61.6476 4.32731L62.021 4.41674L61.1705 7.96832L60.797 7.87889L60.9442 7.26427C60.6043 7.32683 60.2535 7.36621 59.8879 7.38148L59.886 6.99439C60.2703 7.00416 60.6522 6.97223 61.0327 6.89472L61.3122 5.72772L60.3241 5.4911L60.4089 5.13711L61.397 5.37372L61.6476 4.32731ZM62.7621 8.31246L62.163 8.169C61.8868 8.10286 61.7861 7.92243 61.855 7.63457L62.5928 4.55368L62.9624 4.64218L62.6615 5.89866C63.0084 5.85834 63.35 5.77152 63.6863 5.63817L63.8285 5.98894C63.3759 6.12732 62.9605 6.21294 62.5767 6.25265L62.2385 7.66472C62.2153 7.76197 62.2459 7.82279 62.3315 7.84328L62.7828 7.95134C62.8528 7.96811 62.9147 7.95003 62.9637 7.90007C63.0058 7.84435 63.0774 7.63117 63.1767 7.2683L63.4959 7.46402C63.3635 7.91356 63.2507 8.17857 63.1652 8.26092C63.0728 8.33751 62.941 8.35531 62.7621 8.31246Z" fill="white"/>
<path d="M64.7013 6.1444L67.2525 6.8078L66.9485 7.97692L65.8684 7.69606L65.6157 8.66774C65.5503 8.91937 65.3854 9.01289 65.1261 8.94545L64.708 8.83672L64.7144 8.46229C64.842 8.51201 64.9639 8.55196 65.0839 8.58317C65.1845 8.60934 65.2518 8.57311 65.276 8.4802L65.5045 7.60143L64.3973 7.31351L64.7013 6.1444ZM66.6762 7.53001L66.797 7.06546L64.9736 6.59131L64.8528 7.05586L66.6762 7.53001ZM66.2515 5.44399C66.2755 5.57422 66.2906 5.7228 66.3027 5.88299L67.8667 6.28969L67.7771 6.63424L64.3239 5.73627L64.4135 5.39173L65.9233 5.78434C65.909 5.64838 65.884 5.52202 65.856 5.40727L66.2515 5.44399ZM66.5014 8.05905C66.7686 8.43024 66.9826 8.78347 67.1424 9.1226L66.8058 9.32025C66.675 8.99692 66.4717 8.63409 66.1961 8.23178L66.5014 8.05905ZM64.7323 7.599L64.9312 7.89872C64.6036 8.1731 64.2329 8.39081 63.8152 8.55083L63.6604 8.19235C64.0615 8.04866 64.4184 7.85217 64.7323 7.599Z" fill="white"/>
<path d="M69.7672 6.62899L71.6482 7.15044L71.5488 7.50892L69.6678 6.98747L69.7672 6.62899ZM69.4037 7.56594L71.5468 8.16005L71.4475 8.51853L70.8461 8.35184L70.3931 9.9862C70.3247 10.2329 70.1517 10.3178 69.878 10.2419L69.3191 10.087L69.3375 9.70605C69.5106 9.77062 69.6819 9.82642 69.8438 9.8713C69.9556 9.90228 70.0252 9.87591 70.0476 9.79496L70.4761 8.24926L69.3043 7.92442L69.4037 7.56594ZM69.1642 6.25846L69.4568 6.50561C69.1312 6.87192 68.6795 7.1535 68.0921 7.35594L68.0818 6.95876C68.5294 6.79644 68.8886 6.56393 69.1642 6.25846ZM69.1007 7.19139L69.3895 7.43748C69.2277 7.61677 69.0421 7.77703 68.8328 7.91824L68.3049 9.82243L67.9465 9.72306L68.3749 8.17735C68.203 8.25837 68.0245 8.33341 67.8316 8.40031L67.8241 8.00806C68.3491 7.8215 68.7771 7.54999 69.1007 7.19139Z" fill="white"/>
<path d="M72.3685 7.37942L73.7973 7.79511L73.6956 8.14462L72.2669 7.72893L72.3685 7.37942ZM71.9247 8.37508L73.6339 8.87234L73.531 9.22569L72.6669 8.97427C72.3755 9.46022 72.1447 9.80965 71.9733 10.0264C72.2425 10.0464 72.5222 10.0444 72.8074 10.0233C72.7738 9.80939 72.7369 9.60702 72.6966 9.41617L73.0475 9.35577C73.1303 9.7298 73.1953 10.1362 73.2438 10.571L72.8819 10.6407L72.8536 10.3658C72.4101 10.3868 71.9436 10.3719 71.4505 10.32L71.4627 9.94867C71.5034 9.95216 71.5298 9.94734 71.5485 9.94029C71.6958 9.82067 71.9491 9.4653 72.3135 8.87146L71.8219 8.72843L71.9247 8.37508ZM74.5238 7.76071L74.8849 7.86575L74.6681 8.61086L75.4977 8.85222C75.1334 10.1043 74.8896 10.8707 74.7701 11.1525C74.6429 11.4322 74.4046 11.5211 74.0551 11.4194C73.9936 11.4015 73.8883 11.3626 73.7369 11.3102L73.7463 10.963C73.8812 11.0147 73.998 11.0571 74.0979 11.0861C74.2669 11.1353 74.3897 11.071 74.4741 10.8956C74.5496 10.7218 74.7366 10.1222 75.0415 9.10277L74.5653 8.9642L74.5552 8.99877C74.2219 10.1016 73.7222 10.831 73.0512 11.1899L72.8489 10.8685C73.4455 10.5505 73.8949 9.89393 74.1942 8.89373L74.2042 8.85916L73.7165 8.71725L73.8193 8.3639L74.307 8.50582L74.5238 7.76071Z" fill="white"/>
<path d="M77.9224 9.70545C77.9991 9.94997 78.0667 10.1834 78.1277 10.4106C78.2858 10.1909 78.4305 9.94624 78.5684 9.6828L78.8663 9.83102C78.6724 10.2112 78.4632 10.5451 78.2387 10.8326C78.3234 11.1756 78.3882 11.4875 78.4319 11.7722L78.0897 11.8822C78.0551 11.6504 78.0113 11.4074 77.9571 11.1572C77.7446 11.3772 77.5172 11.5636 77.2811 11.7097L77.142 11.367C77.4004 11.2025 77.6424 10.9955 77.8641 10.7448C77.7894 10.4382 77.7054 10.1205 77.6085 9.79053L77.9224 9.70545ZM78.1206 12.6393L77.8142 12.547L77.8273 12.1708L78.1049 12.2753C78.216 12.3088 78.2931 12.261 78.33 12.1384L79.0879 9.62208L77.7704 9.22521L76.8463 12.2931L76.5055 12.1904L77.5311 8.7855L79.5303 9.38771L78.6478 12.3177C78.5601 12.6088 78.3811 12.7177 78.1206 12.6393ZM76.6168 11.3216L76.5141 11.6624C76.119 11.698 75.6823 11.6918 75.2076 11.6449L75.2667 11.2825C75.767 11.3413 76.2141 11.3548 76.6168 11.3216ZM76.7675 8.42182L77.0692 8.65472C76.7622 9.06356 76.4779 9.38315 76.2202 9.61466C76.3474 9.63626 76.4784 9.65901 76.6067 9.67678C76.7134 9.55851 76.8262 9.43373 76.9501 9.29977L77.2425 9.52155C76.7454 10.0486 76.35 10.4182 76.0589 10.6355C76.2972 10.6488 76.5401 10.6468 76.7953 10.6317L76.7019 10.942C76.2689 10.9787 75.8712 10.9675 75.5115 10.9134L75.5088 10.5617C75.5809 10.5584 75.6449 10.54 75.7047 10.5079C75.8588 10.4123 76.0747 10.2225 76.3501 9.94621C76.1685 9.92494 75.9804 9.89753 75.7885 9.86896L75.7947 9.51572C75.859 9.51005 75.9227 9.47908 75.9883 9.42782C76.2594 9.13771 76.5192 8.80237 76.7675 8.42182Z" fill="white"/>
<path d="M80.095 9.55593L83.4973 10.6039L83.3972 10.9288L82.3 10.5909L82.2141 10.8699L83.0819 11.1372L82.7698 12.1502L81.2025 11.6675C81.1157 11.7454 81.0389 11.818 80.9672 11.888L82.9627 12.5026L82.859 12.839L82.0601 12.5929C81.9224 12.7682 81.7471 12.9025 81.528 13.0024C81.857 13.2252 82.1916 13.4705 82.5291 13.7335L82.2117 13.9622C81.8595 13.6654 81.4976 13.3865 81.1297 13.1267C80.7139 13.1995 80.0792 13.1673 79.227 13.0262L79.1883 12.6627C79.8212 12.7823 80.3261 12.8415 80.6978 12.8305C80.4305 12.6519 80.1597 12.4847 79.8866 12.3253C80.0083 12.2289 80.1301 12.1324 80.2443 12.0336L79.3612 11.7617L79.4648 11.4253L80.5543 11.7608C80.6361 11.6856 80.7167 11.6141 80.7935 11.5415L79.8263 11.2436L80.1383 10.2306L81.0061 10.4979L81.0921 10.2188L79.9949 9.88087L80.095 9.55593ZM81.1695 12.7665C81.3845 12.7071 81.5557 12.6134 81.6816 12.4764L80.6609 12.162L80.4436 12.3378C80.6832 12.4702 80.9243 12.6114 81.1695 12.7665ZM81.8662 10.7628L81.9522 10.4837L81.4399 10.3259L81.354 10.605L81.8662 10.7628ZM82.5173 11.7335L82.6386 11.3397L82.1187 11.1796L81.9974 11.5733L82.5173 11.7335ZM81.6496 11.4662L81.7708 11.0724L81.2586 10.9146L81.1373 11.3084L81.6496 11.4662ZM80.7894 11.2012L80.9107 10.8075L80.3908 10.6474L80.2695 11.0411L80.7894 11.2012Z" fill="white"/>
<path d="M84.3803 10.7071L84.6156 12.7368L83.2697 14.2742L83.007 14.0416L84.2489 12.6226L84.0319 10.7494L84.3803 10.7071ZM85.0333 10.9104L85.2687 12.9401L83.9228 14.4775L83.6601 14.2449L84.902 12.8259L84.6697 10.948L85.0333 10.9104Z" fill="white"/>
<path d="M88.8206 12.811L87.9933 15.4693L87.6457 15.3611L87.7075 15.1625L87.1041 14.9747L87.0078 15.284L86.6602 15.1759L87.522 12.4069L87.8849 12.5198C88.0178 12.335 88.1367 12.1415 88.2361 11.9295L88.5835 12.0921C88.48 12.2903 88.362 12.4672 88.2324 12.628L88.8206 12.811ZM87.2087 14.6386L87.8121 14.8264L88.0463 14.074L87.4429 13.8862L87.2087 14.6386ZM87.5439 13.5615L88.1473 13.7493L88.3661 13.0466L87.7626 12.8588L87.5439 13.5615ZM89.2228 13.9416C89.3774 14.3333 89.4878 14.665 89.5478 14.9434L89.1983 15.0567C89.1316 14.7595 89.0198 14.4189 88.8716 14.0334L89.2228 13.9416ZM90.7902 13.4282C90.3801 14.7459 90.1078 15.5534 89.9745 15.8471C89.8507 16.1102 89.6246 16.1906 89.3 16.0896C89.2236 16.0658 89.0885 16.0154 88.9011 15.9445L88.9166 15.5849C89.0823 15.6448 89.2251 15.6976 89.3473 15.7357C89.5 15.7832 89.6129 15.7303 89.6857 15.5771C89.768 15.3932 89.9792 14.7552 90.3256 13.669L89.367 13.3707C89.1887 13.5665 89.0011 13.7386 88.7965 13.8844L88.668 13.5302C89.0342 13.242 89.3489 12.8498 89.6046 12.3513L89.9494 12.5088C89.8446 12.7108 89.7294 12.8928 89.61 13.0609L90.7902 13.4282Z" fill="white"/>
<path d="M91.8673 13.1093C92.0649 13.392 92.2204 13.6616 92.3351 13.9146L92.0013 14.0881C91.9072 13.8498 91.7567 13.5775 91.5458 13.2699L91.8673 13.1093ZM93.0113 17.2113C92.8011 17.1466 92.5729 17.0722 92.3294 16.9931C92.082 16.9128 91.8865 16.8275 91.7377 16.7398C91.5989 16.6469 91.4933 16.5139 91.4186 16.3487C91.3851 16.2672 91.3486 16.2225 91.3027 16.2084C91.2225 16.1837 91.0319 16.3134 90.731 16.5974L90.5399 16.2666C90.8263 16.0157 91.0584 15.8737 91.2348 15.8443L91.5678 14.7624L91.0555 14.6047L91.159 14.2683L92.0116 14.5307L91.5668 15.9758C91.5813 15.9969 91.5945 16.0219 91.6065 16.0508C91.6627 16.1811 91.7309 16.2857 91.8112 16.3649C91.9094 16.4537 92.0671 16.5399 92.2903 16.6169C92.507 16.6878 92.762 16.7705 93.0602 16.8622C93.2475 16.9199 93.4398 16.9749 93.6322 17.0299C93.8245 17.0849 93.9759 17.1231 94.0815 17.1473L93.883 17.4796L93.0113 17.2113ZM93.2877 13.9608L92.5498 13.7337L92.6428 13.4317L94.7416 14.0776L94.6628 14.3338C94.3822 14.4567 94.0958 14.5443 93.8011 14.6043C93.8064 14.6143 93.8129 14.6205 93.8182 14.6305L94.5866 14.8669L94.0642 16.5644C93.9948 16.7899 93.8333 16.8658 93.5848 16.7893L93.2904 16.6987L93.3069 16.3732L93.5737 16.472C93.6578 16.4979 93.7166 16.47 93.7425 16.3859L93.8025 16.1909L93.252 16.0215L93.059 16.6484L92.7264 16.5461L92.9194 15.9191L92.3803 15.7532L92.185 16.3878L91.8409 16.2819L92.4763 14.2175L93.3556 14.4881C93.2553 14.3652 93.1409 14.2337 93.01 14.1014L93.2877 13.9608ZM93.6323 14.364C93.8176 14.3331 93.9949 14.2873 94.1631 14.2302L93.3068 13.9667C93.4238 14.1031 93.5344 14.2334 93.6323 14.364ZM92.5533 15.1912L92.4709 15.4588L93.0099 15.6247L93.0923 15.3571L92.5533 15.1912ZM93.4249 15.4595L93.3426 15.7271L93.8931 15.8965L93.9754 15.6289L93.4249 15.4595ZM94.0672 15.3307L94.1496 15.0631L93.599 14.8937L93.5167 15.1613L94.0672 15.3307ZM93.1841 15.0589L93.2664 14.7913L92.7274 14.6254L92.645 14.893L93.1841 15.0589Z" fill="white"/>
<path d="M98.7161 15.5619L97.8172 18.5496L97.4648 18.4436L97.5305 18.2252L96.8602 18.0236L96.7933 18.2457L96.4409 18.1397L97.341 15.1482L98.7161 15.5619ZM96.9627 17.6826L97.6331 17.8843L98.2611 15.7968L97.5908 15.5951L96.9627 17.6826ZM95.8287 15.1903C95.683 15.3553 95.5304 15.5015 95.3747 15.6301L95.1179 15.3315C95.4714 15.0452 95.764 14.7113 95.9918 14.3287L96.3288 14.5137C96.2467 14.6477 96.1604 14.7679 96.0753 14.8843L97.121 15.1989L97.0161 15.5475L96.4952 15.3908C96.4161 15.626 96.3378 15.8447 96.2537 16.0408L96.8512 16.2205L96.7464 16.5691L96.099 16.3743C96.0584 16.454 96.0139 16.5325 95.9755 16.6045C96.1377 16.9123 96.2957 17.248 96.4532 17.6129L96.1296 17.8831C95.9936 17.4746 95.8739 17.1504 95.7707 16.9105C95.4888 17.2643 95.1143 17.5233 94.6406 17.6816L94.4907 17.319C94.9778 17.1439 95.3466 16.8622 95.602 16.4713C95.6393 16.4031 95.6815 16.3323 95.7198 16.2603L94.9652 16.0332L95.0701 15.6847L95.8783 15.9278C95.9624 15.7317 96.0407 15.513 96.1198 15.2778L95.8287 15.1903Z" fill="white"/>
<path d="M99.46 15.3444L99.733 17.3693L98.4159 18.9315L98.1489 18.7038L99.3643 17.262L99.1125 15.3932L99.46 15.3444ZM100.117 15.5355L100.39 17.5605L99.0726 19.1227L98.8056 18.895L100.021 17.4532L99.7539 15.5799L100.117 15.5355Z" fill="white"/>
</svg>
