<svg width="143" height="22" viewBox="0 0 143 22" fill="none" xmlns="http://www.w3.org/2000/svg">
<path d="M4.23303 4.00199L4.51833 4.23055L3.30597 5.68339L3.58145 7.54886L3.23461 7.60211L2.93594 5.58077L4.23303 4.00199ZM4.89216 4.18479L5.16203 4.40907L3.96509 5.86619L4.24057 7.73166L3.89373 7.7849L3.59506 5.76357L4.89216 4.18479Z" fill="white"/>
<path d="M6.68989 4.72736C6.78333 4.96054 6.8676 5.21194 6.93885 5.4805L6.66683 5.5342L7.46511 5.75405C7.66448 5.57247 7.86011 5.34423 8.05093 5.07316L8.38302 5.26835C8.22808 5.49951 8.05744 5.6973 7.87774 5.8677L8.61046 6.0695L8.51275 6.42429L7.25556 6.07804L7.22263 6.19759C7.16394 6.38058 7.09792 6.54495 7.02738 6.69563L8.56223 7.11834L8.46452 7.47313L7.11477 7.1014C7.17522 7.62007 7.55638 8.11919 8.25717 8.60262L7.94562 8.89022C7.22711 8.33553 6.83529 7.75464 6.76137 7.14928C6.64204 7.31141 6.51259 7.45002 6.37409 7.56123C6.01626 7.83609 5.51492 7.98428 4.87005 8.00583L4.75767 7.63052C5.40466 7.60126 5.87264 7.46876 6.16546 7.23409C6.26954 7.14244 6.36523 7.03603 6.45147 6.91871L5.13258 6.55547L5.23029 6.20068L6.64945 6.59154C6.72491 6.43807 6.79478 6.27476 6.85241 6.09563L6.88534 5.97608L5.62429 5.62877L5.72201 5.27398L6.54728 5.50127C6.48162 5.24255 6.40081 5.0087 6.30978 4.79693L6.68989 4.72736Z" fill="white"/>
<path d="M9.42907 5.60178L12.3509 6.39662L12.2532 6.75558L11.022 6.42063L10.7658 7.36241L12.2672 7.77085L12.1675 8.13753L10.666 7.72908L10.308 9.04525C10.2345 9.31543 10.0539 9.41553 9.77212 9.33888L9.15842 9.17193L9.17782 8.79584C9.37152 8.86097 9.55855 8.92014 9.7361 8.96844C9.85961 9.00204 9.93711 8.96094 9.96651 8.85287L10.2994 7.62933L8.73231 7.20304L8.83206 6.83636L10.3991 7.26266L10.6553 6.32088L9.33142 5.96074L9.42907 5.60178Z" fill="white"/>
<path d="M13.2368 8.33408L12.9628 9.36219C13.2983 9.37709 13.6562 9.38554 14.0308 9.37775L14.0378 9.73977C13.5274 9.74448 13.0105 9.72678 12.4901 9.69155L12.4246 9.34707C12.5307 9.32154 12.5967 9.26047 12.6224 9.16384L13.2477 6.81773C13.7514 6.86919 14.2188 6.88613 14.6509 6.86468L14.8007 7.2192C14.4268 7.23961 14.0068 7.23117 13.5397 7.19774L13.3306 7.98235L14.3973 8.26666L14.3036 8.61838L13.2368 8.33408ZM15.2768 10.3101L14.9134 10.2132L14.9077 9.83085L15.2497 9.93026C15.3501 9.95705 15.4158 9.91246 15.4447 9.80424L15.9783 7.80212L15.2169 7.59919L14.4072 10.6372L14.0362 10.5383L14.9385 7.15245L16.442 7.55315L15.7951 9.98043C15.7179 10.2703 15.5435 10.3811 15.2768 10.3101Z" fill="white"/>
<path d="M16.9431 8.81506L17.5414 7.76336L17.8933 7.92045L17.5067 8.58482L18.0798 8.73302C18.2275 8.46547 18.3637 8.17843 18.4923 7.87289L18.8559 8.0165C18.7303 8.31042 18.5981 8.58197 18.4632 8.83216L20.2369 9.29079L20.1457 9.6432L18.2791 9.16053C18.2074 9.27832 18.1337 9.38735 18.065 9.49352L19.614 9.89407L19.5339 10.2039C19.3511 10.4954 19.0872 10.7329 18.7346 10.9144C18.9868 11.1532 19.3041 11.3963 19.6824 11.6429L19.4025 11.9423C18.978 11.6508 18.632 11.3589 18.3665 11.0754C18.0055 11.2093 17.5798 11.3058 17.0894 11.3649L16.9859 10.9663C17.4092 10.927 17.7823 10.8582 18.1003 10.7628C17.9007 10.4963 17.767 10.2304 17.7022 9.96986C17.2751 10.4709 16.8045 10.8368 16.2943 11.0684L16.1927 10.6785C16.8493 10.3443 17.4144 9.80455 17.888 9.05939L16.9431 8.81506ZM18.0214 9.83758C18.0902 10.0991 18.2365 10.3642 18.4613 10.6289C18.7564 10.4945 18.9896 10.3276 19.1561 10.131L18.0214 9.83758ZM19.5175 8.14213C19.7327 8.4126 19.9042 8.67593 20.0331 8.92825L19.7017 9.12349C19.5989 8.88206 19.4361 8.61686 19.2066 8.32202L19.5175 8.14213Z" fill="white"/>
<path d="M24.1123 9.27972L24.3883 9.49649L23.2319 10.986L23.5586 12.8432L23.2134 12.906L22.8592 10.8936L24.1123 9.27972Z" fill="white"/>
<path d="M25.8502 9.73735L26.2241 9.82514L25.3892 13.3804L25.0154 13.2926L25.1598 12.6774C24.8202 12.7414 24.4696 12.7824 24.104 12.7992L24.1004 12.4122C24.4847 12.4202 24.8665 12.3866 25.2467 12.3074L25.521 11.1392L24.5319 10.907L24.6152 10.5526L25.6043 10.7849L25.8502 9.73735ZM26.9823 13.7176L26.3826 13.5767C26.1061 13.5118 26.0046 13.3318 26.0723 13.0437L26.7965 9.95956L27.1664 10.0464L26.8711 11.3042C27.2178 11.2624 27.559 11.174 27.8948 11.0392L28.0385 11.3894C27.5865 11.5297 27.1715 11.6172 26.7879 11.6586L26.4559 13.0721C26.4331 13.1695 26.464 13.2302 26.5497 13.2503L27.0014 13.3564C27.0715 13.3728 27.1333 13.3545 27.1821 13.3043C27.224 13.2484 27.2946 13.0349 27.3923 12.6716L27.7123 12.8659C27.582 13.316 27.4703 13.5815 27.3852 13.6642C27.2931 13.7412 27.1614 13.7596 26.9823 13.7176Z" fill="white"/>
<path d="M28.9437 11.5269L31.5187 12.0906L31.2605 13.2706L30.1703 13.032L29.9556 14.0128C29.9 14.2668 29.7389 14.3666 29.4771 14.3093L29.0551 14.217L29.047 13.8426C29.1764 13.8873 29.2997 13.9225 29.4209 13.949C29.5225 13.9712 29.5883 13.9324 29.6088 13.8386L29.803 12.9516L28.6854 12.707L28.9437 11.5269ZM30.971 12.8346L31.0736 12.3657L29.2332 11.9629L29.1305 12.4318L30.971 12.8346ZM30.4654 10.7667C30.4945 10.8959 30.5154 11.0438 30.5337 11.2034L32.1123 11.5489L32.0362 11.8967L28.5507 11.1338L28.6268 10.786L30.1507 11.1196C30.1312 10.9843 30.1013 10.859 30.0688 10.7454L30.4654 10.7667ZM30.8169 13.3701C31.0984 13.7306 31.3259 14.0752 31.4988 14.4079L31.1702 14.6185C31.0268 14.3005 30.8096 13.9459 30.5186 13.5546L30.8169 13.3701ZM29.0312 12.9792L29.2417 13.271C28.925 13.5579 28.563 13.7899 28.1519 13.966L27.9833 13.6138C28.3785 13.4547 28.7275 13.2444 29.0312 12.9792Z" fill="white"/>
<path d="M32.4368 11.6473L33.9819 11.9577C33.9515 11.8048 33.9155 11.6588 33.8725 11.5278L34.2851 11.5454C34.3163 11.6945 34.3405 11.8584 34.3623 12.0342L35.9349 12.3501L35.8632 12.707L34.3024 12.3934L34.2165 12.8209L35.491 13.0769L35.1987 14.5319C35.1483 14.7829 34.9889 14.8855 34.7301 14.8335L34.334 14.7539L34.3108 14.382L34.6794 14.4765C34.7736 14.4954 34.8301 14.4578 34.8474 14.3715L35.0507 13.3597L34.1448 13.1777L33.7319 15.2327L33.3554 15.157L33.7683 13.1021L32.9095 12.9295L32.6069 14.4354L32.2422 14.3622L32.6165 12.4994L33.84 12.7452L33.9259 12.3178L32.3651 12.0042L32.4368 11.6473Z" fill="white"/>
<path d="M36.4382 13.6093C36.2983 13.7302 36.1513 13.8458 35.9932 13.9554L35.9434 13.5357C36.4262 13.1599 36.8196 12.6947 37.121 12.1314L37.4452 12.361C37.2933 12.6383 37.112 12.8981 36.9053 13.1411L36.4282 15.7702L36.0583 15.7031L36.4382 13.6093ZM37.3849 12.6712L38.1405 12.8083L38.3332 12.3514L38.6928 12.4532C38.6335 12.601 38.5716 12.7402 38.5144 12.8762L39.6479 13.0818L39.5822 13.4439L38.3543 13.2211C38.2913 13.3438 38.2338 13.4594 38.1769 13.5711L39.6764 13.8432L39.6115 14.2013L37.9939 13.9078C37.9116 14.0474 37.8355 14.1758 37.7568 14.2957L39.3232 14.5799L39.2647 14.9027C39.0615 15.126 38.7758 15.3343 38.3987 15.5301C38.5483 15.6467 38.6925 15.7705 38.8282 15.8967L38.5571 16.1809C38.1355 15.771 37.6853 15.4291 37.2151 15.1528L37.4694 14.894C37.6898 15.0234 37.9002 15.1632 38.1021 15.3056C38.4118 15.1666 38.6665 15.0177 38.8629 14.8541L37.2099 14.5542C37.3565 14.3288 37.4973 14.0901 37.6357 13.8428L37.0139 13.73L37.0789 13.3718L37.8148 13.5054C37.8724 13.3898 37.93 13.2742 37.9843 13.154L37.3192 13.0333L37.3849 12.6712Z" fill="white"/>
<path d="M41.0423 15.5793L40.9844 15.9387C40.5958 16.0625 40.1609 16.1464 39.685 16.1832L39.702 15.801C40.2009 15.772 40.6503 15.6985 41.0423 15.5793ZM40.7895 12.7714L41.126 12.9715C40.8608 13.4109 40.6095 13.7634 40.3729 14.0251C40.5097 14.031 40.6472 14.0328 40.7852 14.0308C40.8727 13.9152 40.9661 13.7884 41.0607 13.6538L41.376 13.8342C40.9634 14.3836 40.6276 14.7833 40.3646 15.0326C40.6202 15.0049 40.883 14.9581 41.1536 14.8883L41.0982 15.2318C40.6431 15.3408 40.2173 15.3938 39.824 15.3953L39.7813 15.0319C39.8535 15.0111 39.9145 14.9844 39.9689 14.9486C40.1123 14.838 40.3026 14.6377 40.5397 14.3478C40.353 14.3501 40.159 14.3472 39.957 14.3431L39.9176 13.9842C39.9807 13.9701 40.0442 13.9276 40.1031 13.8642C40.3492 13.5432 40.578 13.179 40.7895 12.7714ZM41.307 14.6901L41.2775 14.3451C41.3104 14.3422 41.3399 14.3348 41.357 14.3295C41.4895 14.2617 41.6798 14.0614 41.9226 13.7359L41.3105 13.6373L41.3684 13.2779L42.328 13.4325C42.301 13.2985 42.2687 13.1717 42.2312 13.0523L42.6245 13.0508C42.6555 13.1854 42.6845 13.3319 42.7071 13.4935L43.572 13.6328L43.5141 13.9922L42.3136 13.7988C42.1177 14.059 41.9485 14.2546 41.8045 14.3935C42.1295 14.4134 42.4557 14.4254 42.7793 14.4289C42.7181 14.3056 42.6563 14.1863 42.5945 14.0669L42.9075 13.935C43.114 14.3127 43.2677 14.6413 43.3692 14.9169L43.0445 15.0713C43.0118 14.9728 42.9711 14.8731 42.9311 14.7694C42.4293 14.7656 41.8866 14.7389 41.307 14.6901ZM41.5795 14.8596L41.9429 14.9181C41.8423 15.4165 41.72 15.7736 41.5798 15.99C41.4258 16.2164 41.2019 16.3992 40.9041 16.5376L40.7149 16.2032C40.9589 16.0967 41.1443 15.9523 41.2708 15.7701C41.3922 15.5952 41.4938 15.2915 41.5795 14.8596ZM42.7546 16.7708L42.5019 16.7301C42.2215 16.6849 42.1036 16.5363 42.1437 16.2875L42.3606 14.9409L42.7199 14.9987L42.5145 16.2743C42.5043 16.3375 42.5216 16.3808 42.5678 16.3963L42.7889 16.4319C42.8613 16.4355 42.913 16.3911 42.9361 16.2976C42.9652 16.1929 42.9979 16.0402 43.0297 15.8427L43.3351 16.0094C43.274 16.3885 43.2055 16.6125 43.1362 16.6905C43.0682 16.7605 42.9388 16.7843 42.7546 16.7708Z" fill="white"/>
<path d="M45.678 14.1913L44.351 14.005L44.4016 13.6445L47.4398 14.0711L47.3892 14.4315L46.0583 14.2447L45.7202 16.6531L47.3007 16.8749L47.2495 17.2394L43.7043 16.7417L43.7555 16.3772L45.3399 16.5997L45.678 14.1913Z" fill="white"/>
<path d="M48.0734 14.2137L48.9708 14.3221L49.0126 13.9766L49.3978 14.0231L49.356 14.3686L50.3091 14.4837L50.3508 14.1382L50.736 14.1847L50.6943 14.5302L51.5918 14.6386L51.5491 14.9921L50.6516 14.8837L50.6137 15.1974L50.2285 15.1509L50.2664 14.8371L49.3133 14.722L49.2755 15.0357L48.8903 14.9892L48.9281 14.6755L48.0307 14.5671L48.0734 14.2137ZM48.3369 15.0674L50.9737 15.3859L50.9301 15.7473C49.7661 16.211 49.0045 16.5784 48.6494 16.8498C48.5337 16.9405 48.4641 17.0167 48.4356 17.0858C48.4284 17.1454 48.4563 17.181 48.5278 17.1896L50.4776 17.4251C50.5848 17.4381 50.6716 17.4204 50.7334 17.3754C50.7948 17.3345 50.8702 17.1099 50.9598 16.7017L51.292 16.8869C51.1927 17.3423 51.0837 17.6111 50.961 17.693C50.8427 17.7714 50.6781 17.7999 50.4716 17.7749L48.5059 17.5375C48.1565 17.4953 48.0006 17.3516 48.0303 17.1054C48.0504 16.9386 48.2055 16.7558 48.4874 16.5562C48.858 16.2907 49.4655 15.9975 50.3026 15.6715L48.2932 15.4288L48.3369 15.0674Z" fill="white"/>
<path d="M52.0819 14.7335L52.9374 14.8213C52.8979 14.6966 52.8532 14.5835 52.7998 14.4775L53.2042 14.4546C53.2481 14.5757 53.2863 14.7124 53.3233 14.8609L54.0913 14.9398C54.1641 14.8186 54.2257 14.6882 54.2718 14.5522L54.6724 14.6456C54.6239 14.7652 54.5643 14.8757 54.4932 14.981L55.3208 15.066L55.2857 15.4082L53.8572 15.2615L53.8262 15.5639L55.0438 15.6889L55.0103 16.0152L53.7927 15.8902L53.7612 16.1966L55.321 16.3567L55.2851 16.7069L51.7835 16.3475L51.8194 15.9973L53.3792 16.1574L53.4107 15.851L52.205 15.7273L52.2385 15.401L53.4442 15.5247L53.4752 15.2223L52.0467 15.0757L52.0819 14.7335ZM53.3634 16.586L53.7413 16.665C53.7216 16.7394 53.6979 16.8134 53.6707 16.883L55.1628 17.0361L55.1261 17.3943L53.813 17.2595C54.0517 17.5976 54.5354 17.8604 55.2641 18.0478L55.0283 18.3855C54.194 18.1309 53.6679 17.7713 53.4467 17.3023C53.3484 17.4369 53.2363 17.5501 53.1059 17.6453C52.8196 17.8491 52.3432 17.9852 51.6688 18.0526L51.5516 17.6667C52.1268 17.6252 52.5514 17.524 52.8217 17.3587C52.9078 17.3033 52.978 17.2461 53.041 17.1802L51.8035 17.0532L51.8403 16.6951L53.2728 16.8421C53.3096 16.7574 53.3385 16.6719 53.3634 16.586Z" fill="white"/>
<path d="M55.7993 15.6558L57.3137 15.7863L57.3931 14.8657L57.7677 14.898L57.6883 15.8186L59.2067 15.9495L59.1754 16.3122L58.0038 16.2112C58.2052 16.8548 58.5879 17.4459 59.1517 17.9843L58.8692 18.2811C58.2618 17.6426 57.8558 16.9492 57.6553 16.2012L57.4506 18.5764L57.076 18.5441L57.28 16.1769C56.9204 16.9488 56.3815 17.5648 55.6637 18.0209L55.4857 17.6642C56.1205 17.2854 56.6067 16.7692 56.9357 16.1191L55.7681 16.0184L55.7993 15.6558ZM58.4169 14.958C58.6235 15.2167 58.781 15.4391 58.8894 15.6251L58.568 15.8142C58.4576 15.6039 58.3008 15.3736 58.1062 15.1159L58.4169 14.958Z" fill="white"/>
<path d="M60.7621 15.1165L61.1096 15.3055C60.9971 15.5903 60.8619 15.8574 60.6996 16.1106L60.5061 18.8397L60.1231 18.8126L60.2747 16.6739C60.1482 16.8173 60.0144 16.9522 59.8728 17.0825L59.7777 16.6708C60.2015 16.2357 60.531 15.7177 60.7621 15.1165ZM61.2749 15.3494L63.206 15.4863L63.1121 16.8109L62.3301 16.7555L62.3052 17.1066L63.4224 17.1858L63.3964 17.5529L62.6183 17.4977C62.8003 17.8715 63.0613 18.2068 63.4051 18.5039L63.1343 18.8175C62.7915 18.4484 62.5183 18.0039 62.3111 17.476L62.2792 17.4737L62.1745 18.95L61.7994 18.9234L61.9041 17.4471L61.8682 17.4446C61.5781 17.9734 61.2366 18.3782 60.8437 18.6591L60.6526 18.3007C61.0127 18.0857 61.3141 17.7942 61.565 17.4231L60.8268 17.3707L60.8528 17.0036L61.9301 17.08L61.955 16.7289L61.181 16.674L61.2749 15.3494ZM62.7628 16.4213L62.8052 15.8228L61.6242 15.739L61.5818 16.3375L62.7628 16.4213Z" fill="white"/>
<path d="M64.0634 19.0401L63.6641 19.017L63.6015 18.6447C63.7207 18.6637 63.84 18.6786 63.9518 18.6851C64.0436 18.6904 64.0943 18.6453 64.0999 18.5494L64.149 17.7029C63.9943 17.746 63.8397 17.7851 63.6854 17.8202L63.6116 17.4353C63.7976 17.406 63.9841 17.3687 64.171 17.3235L64.2194 16.4889L63.7482 16.4616L63.7693 16.0982L64.2405 16.1255L64.2825 15.4027L64.6618 15.4247L64.6199 16.1475L65.0232 16.1709L65.0021 16.5343L64.5988 16.5109L64.558 17.2137C64.7053 17.1622 64.8527 17.1066 65.0004 17.0471L64.9784 17.4264C64.831 17.482 64.6835 17.5375 64.5365 17.5851L64.4737 18.6673C64.4584 18.9308 64.319 19.055 64.0634 19.0401ZM66.9271 16.3655L65.5974 16.2884L65.5585 16.9592L66.8882 17.0364L66.9271 16.3655ZM65.5334 17.3224C65.4762 18.0323 65.2728 18.6375 64.9197 19.1299L64.647 18.8576C64.9515 18.4426 65.1233 17.8996 65.1666 17.221L65.2429 15.9072L66.0934 15.9565C66.0463 15.8016 65.9985 15.6585 65.942 15.5271L66.3491 15.4866C66.3926 15.6333 66.4353 15.7961 66.4768 15.9788L67.3154 16.0274L67.2345 17.4211L65.5334 17.3224Z" fill="white"/>
<path d="M67.7652 16.8765L68.1354 15.7246L68.512 15.8063L68.2697 16.5357L68.861 16.5634C68.9508 16.2713 69.0253 15.9624 69.0885 15.637L69.4739 15.7031C69.4112 16.0165 69.3374 16.3094 69.2566 16.5819L71.0866 16.6675L71.0696 17.0311L69.1437 16.941C69.0976 17.071 69.0478 17.1928 69.0023 17.3108L70.6005 17.3855L70.5856 17.7052C70.4663 18.028 70.2567 18.3145 69.9487 18.5644C70.2445 18.7464 70.6048 18.9194 71.0257 19.0833L70.813 19.4337C70.3378 19.2353 69.9394 19.0204 69.6215 18.7974C69.2955 19.0023 68.8986 19.184 68.4307 19.3423L68.2478 18.9734C68.654 18.8482 69.0051 18.7045 69.2969 18.5459C69.0469 18.326 68.8616 18.0931 68.7447 17.8514C68.4294 18.4293 68.0437 18.8837 67.5918 19.215L67.4124 18.8542C67.9866 18.3925 68.4292 17.7485 68.7401 16.9221L67.7652 16.8765ZM69.0301 17.6565C69.151 17.8984 69.3485 18.1279 69.6228 18.3409C69.8841 18.1489 70.0781 17.9377 70.2009 17.7112L69.0301 17.6565ZM70.1472 15.6905C70.4132 15.9112 70.635 16.1338 70.8129 16.3543L70.5285 16.6133C70.3784 16.3981 70.1647 16.1719 69.8797 15.9303L70.1472 15.6905Z" fill="white"/>
<path d="M72.4701 17.2862L73.022 17.293L73.026 16.973L72.358 16.9648L72.3543 17.2688C72.3513 17.5088 72.3325 17.7405 72.3059 17.9562L73.0138 17.9649L73.0179 17.6289L72.466 17.6222L72.4701 17.2862ZM72.2536 18.2996C72.1723 18.7347 72.0435 19.1291 71.8672 19.479L71.5626 19.1992C71.8207 18.6983 71.9566 18.056 71.9703 17.2641L71.9868 15.9202L75.0466 15.9577L75.0338 16.9976L74.4779 16.9908L74.4739 17.3107L75.0739 17.3181L75.0698 17.6541L74.4698 17.6467L74.4657 17.9827L75.2016 17.9917L75.1974 18.3357L74.7975 18.3308L75.0266 18.5616C74.9008 18.7121 74.7633 18.8344 74.6181 18.9286C74.8207 19.0471 75.0516 19.134 75.315 19.1892L75.1306 19.547C74.4129 19.3502 73.9059 18.9399 73.6055 18.3162L73.1096 18.3101L73.1003 19.0701C73.341 19.013 73.5538 18.9476 73.7347 18.8738L73.8025 19.2227C73.4771 19.3307 73.092 19.422 72.647 19.4965L72.5471 19.1633C72.6677 19.1168 72.7287 19.0335 72.7303 18.9055L72.7376 18.3055L72.2536 18.2996ZM73.9895 18.3209C74.0837 18.4701 74.1941 18.5994 74.3207 18.713C74.4739 18.6228 74.6154 18.4966 74.7455 18.3302L73.9895 18.3209ZM74.1099 16.9863L73.3899 16.9774L73.386 17.2974L74.106 17.3062L74.1099 16.9863ZM73.3778 17.9694L74.0977 17.9782L74.1018 17.6422L73.3819 17.6334L73.3778 17.9694ZM74.6583 16.3009L72.3665 16.2729L72.3622 16.6248L74.654 16.6529L74.6583 16.3009Z" fill="white"/>
<path d="M76.2035 15.8762C76.4454 15.9459 76.6717 16.032 76.8746 16.1387L76.6787 16.452C76.4633 16.3255 76.2448 16.2312 76.023 16.165L76.2035 15.8762ZM77.4252 15.7722L77.7983 15.8105C77.7764 15.8911 77.7503 15.9638 77.7202 16.0366L79.2877 15.9957L79.2936 16.2236C79.2546 16.4167 79.1998 16.6142 79.1328 16.808L78.7661 16.7096C78.8233 16.6 78.872 16.4747 78.9085 16.3377L78.3247 16.353C78.3108 16.4334 78.2926 16.5059 78.2705 16.5785C78.4899 16.8568 78.8949 17.0423 79.4895 17.1348L79.3622 17.4703C78.7953 17.369 78.3821 17.1717 78.1224 16.8824C78.0839 16.9395 78.0452 16.9885 78.0024 17.0376C77.8194 17.2305 77.4994 17.3869 77.0464 17.5107L76.8976 17.1745C77.2714 17.0847 77.5405 16.9696 77.7047 16.8213C77.8296 16.702 77.9176 16.5477 77.9648 16.3624L77.5289 16.3737C77.4286 16.5164 77.304 16.6477 77.163 16.7634L76.9313 16.4734C77.1784 16.2829 77.3443 16.0465 77.4252 15.7722ZM79.0633 17.5181L79.0945 18.7137L78.7107 18.7237L78.6886 17.88L76.8293 17.9285L76.8524 18.8122L76.4725 18.8222L76.4402 17.5866L79.0633 17.5181ZM77.6038 18.0163L77.9845 18.0384C77.9419 18.5517 77.8268 18.8948 77.6472 19.0636C77.4528 19.2807 76.9845 19.429 76.2384 19.5125L76.0815 19.1725C76.7084 19.1241 77.1178 19.0174 77.3135 18.8482C77.4852 18.6837 77.5821 18.4091 77.6038 18.0163ZM76.7313 16.6267L76.962 16.8807C76.7674 17.0899 76.5244 17.2843 76.2331 17.4679L75.9735 17.1826C76.273 17.0067 76.5283 16.824 76.7313 16.6267ZM78.0782 18.7122C78.5973 18.8267 79.0732 18.9703 79.5059 19.1431L79.3062 19.4644C78.8448 19.2644 78.3767 19.1125 77.8937 19.0051L78.0782 18.7122Z" fill="white"/>
<path d="M80.49 16.8871C80.3205 17.0013 80.1425 17.108 79.956 17.2072L79.7177 16.9047C80.3906 16.5604 80.9267 16.14 81.33 15.6432L81.6335 15.6253C82.0322 16.0665 82.61 16.417 83.3709 16.6805L83.1739 17.0087C82.9775 16.9402 82.7887 16.8632 82.6153 16.7773L82.6276 16.9849L81.7531 17.0367L81.7817 17.5198L83.1713 17.4376L83.1921 17.789L81.8025 17.8712L81.8604 18.8495L82.2358 18.8273C82.3449 18.5724 82.4369 18.2985 82.5159 18.0093L82.8666 18.1128C82.7937 18.3695 82.7111 18.5988 82.6191 18.8046L83.3897 18.759L83.411 19.1183L79.973 19.3219L79.9518 18.9625L80.7344 18.9162C80.645 18.6931 80.5364 18.4831 80.4126 18.2861L80.7447 18.1422C80.8692 18.3512 80.9882 18.6006 81.1017 18.8944L81.4851 18.8717L81.4272 17.8934L80.0336 17.9759L80.0128 17.6246L81.4064 17.5421L81.3778 17.0589L80.5033 17.1107L80.49 16.8871ZM82.3879 16.6585C82.0481 16.4703 81.7544 16.2472 81.5028 15.9896C81.2553 16.2768 80.978 16.5336 80.6709 16.7602L82.3879 16.6585Z" fill="white"/>
<path d="M86.5452 16.8081L86.6202 17.6448L84.68 17.8188L84.6989 18.03L86.8264 17.8391L86.9218 18.9029L86.5433 18.9368L86.5305 18.7934L84.7815 18.9503L84.794 19.0897L84.4155 19.1237L84.2265 17.0161L86.5452 16.8081ZM84.7515 18.6156L86.5005 18.4587L86.4747 18.1719L84.7258 18.3288L84.7515 18.6156ZM84.6528 17.516L86.2225 17.3752L86.2018 17.1442L84.6321 17.285L84.6528 17.516ZM87.0503 16.2608L87.1185 17.0218L86.748 17.055L86.7084 16.6128L84.0231 16.8537L84.0628 17.2959L83.6923 17.3291L83.624 16.5682L85.1659 16.4299C85.1268 16.353 85.0845 16.2845 85.043 16.224L85.3726 16.1382L85.301 16.1005C85.4628 15.845 85.5754 15.5779 85.6304 15.2958L86.0001 15.343C85.9823 15.4129 85.9681 15.4784 85.9499 15.5443L87.0574 15.4449L87.0871 15.7756L86.4377 15.8338C86.5093 15.9158 86.569 15.9988 86.6199 16.0745L86.2963 16.228C86.2212 16.1063 86.134 15.9856 86.0353 15.8699L85.8321 15.8882C85.7762 16.0257 85.7116 16.156 85.6379 16.2751L85.4356 16.1687C85.4739 16.2376 85.5089 16.3147 85.5483 16.3956L87.0503 16.2608ZM84.119 16.0418C84.0442 16.1931 83.9608 16.3372 83.8682 16.47L83.519 16.2924C83.7279 16.0247 83.8669 15.7391 83.9408 15.4434L84.3105 15.4905C84.2927 15.5604 84.2709 15.6306 84.2527 15.6965L85.2567 15.6065L85.2863 15.9371L84.6887 15.9907C84.7694 16.0839 84.8417 16.1738 84.8977 16.2611L84.5629 16.4237C84.4823 16.2864 84.3941 16.1537 84.2943 16.0261L84.119 16.0418Z" fill="white"/>
<path d="M89.1039 15.0877L91.1136 14.8474L91.3406 16.7458L90.5264 16.8432L90.5739 17.2404L91.4398 17.1368L91.4816 17.4863L90.6158 17.5899L90.6652 18.0029L91.67 17.8828L91.7132 18.2442L89.3104 18.5316L89.2671 18.1702L90.2918 18.0476L90.2424 17.6345L89.3726 17.7386L89.3308 17.3891L90.2006 17.285L90.1531 16.8879L89.331 16.9862L89.1039 15.0877ZM90.9393 16.4554L90.8852 16.0027L90.4324 16.0568L90.4865 16.5096L90.9393 16.4554ZM90.1132 16.5542L90.059 16.1015L89.5983 16.1566L89.6525 16.6094L90.1132 16.5542ZM89.5594 15.8309L90.0201 15.7758L89.9659 15.323L89.5052 15.3781L89.5594 15.8309ZM90.3393 15.2784L90.3934 15.7311L90.8462 15.677L90.792 15.2242L90.3393 15.2784ZM87.8899 16.5583L88.2831 16.5113L88.1815 15.6614L87.7287 15.7155L87.686 15.3581L88.9688 15.2046L89.0116 15.5621L88.5628 15.6157L88.6644 16.4657L89.0656 16.4177L89.1088 16.7791L88.7077 16.8271L88.8027 17.6214C88.932 17.5576 89.0574 17.4943 89.1778 17.4235L89.2215 17.7889C88.8732 17.9756 88.4987 18.1453 88.0936 18.2944L87.959 17.9439C88.1225 17.8962 88.281 17.841 88.4352 17.7822L88.3264 16.8727L87.9332 16.9197L87.8899 16.5583Z" fill="white"/>
<path d="M93.3443 15.8278L93.3887 16.1326L92.8573 16.2585L92.8976 16.5356L92.5493 16.5863L92.513 16.337C92.2659 16.3891 92.0115 16.4464 91.7447 16.5014L91.6539 16.1832C91.9411 16.1292 92.2125 16.0776 92.4674 16.0243L92.4305 15.7709L91.7378 15.8718L91.6143 15.5786C91.6903 15.4624 91.759 15.3231 91.8241 15.16L91.4521 15.2142L91.4036 14.8817L91.934 14.8044C91.9542 14.7206 91.9703 14.6374 91.9905 14.5536L92.3712 14.5588C92.3561 14.6217 92.345 14.6839 92.3299 14.7467L93.2442 14.6136L93.2926 14.946L92.2239 15.1017C92.1723 15.2467 92.1116 15.3849 92.0491 15.5112L92.3856 15.4622L92.3515 15.2286L92.6999 15.1779L92.7339 15.4114L93.3118 15.3273L93.3568 15.636L92.7789 15.7202L92.8123 15.9498C93 15.9063 93.1764 15.8684 93.3443 15.8278ZM93.9154 15.5587C93.9147 15.8862 93.8448 16.1834 93.7143 16.453L93.4132 16.2179C93.5437 15.9483 93.5921 15.6421 93.551 15.3045L93.4559 14.6514C93.9635 14.529 94.3387 14.3854 94.5821 14.2246L94.8679 14.466C94.5974 14.6347 94.2544 14.7776 93.8418 14.8863L93.8913 15.2267L95.0353 15.06L95.0831 15.3886L94.7031 15.4439L94.8219 16.2593L94.4617 16.3118L94.3429 15.4964L93.9154 15.5587ZM94.8108 16.3499L95.0334 17.8777L94.6534 17.9331L94.6332 17.7945L92.7095 18.0748L92.7297 18.2133L92.3497 18.2687L92.1272 16.7408L94.8108 16.3499ZM92.6628 17.7542L94.5865 17.4739L94.5525 17.2404L92.6288 17.5206L92.6628 17.7542ZM92.5856 17.2237L94.5093 16.9435L94.4764 16.7179L92.5527 16.9981L92.5856 17.2237Z" fill="white"/>
<path d="M96.9208 14.0566L98.8447 13.7269L98.9076 14.0935L96.9836 14.4232L96.9208 14.0566ZM96.9911 15.0591L99.1832 14.6835L99.246 15.0501L98.631 15.1555L98.9174 16.8272C98.9607 17.0795 98.8403 17.23 98.5604 17.2779L97.9888 17.3759L97.8431 17.0234C98.0272 17.0081 98.206 16.9856 98.3715 16.9572C98.4859 16.9376 98.5376 16.8841 98.5234 16.8013L98.2525 15.2204L97.0539 15.4258L96.9911 15.0591ZM96.2174 13.9783L96.5875 14.0772C96.4489 14.5473 96.1603 14.9945 95.7151 15.4279L95.5366 15.073C95.8724 14.7354 96.0982 14.3721 96.2174 13.9783ZM96.5575 14.8493L96.9235 14.9489C96.8536 15.1801 96.754 15.4041 96.6248 15.6211L96.9585 17.5687L96.5919 17.6315L96.3209 16.0506C96.2 16.1971 96.0704 16.341 95.9244 16.4838L95.7505 16.1321C96.1459 15.7396 96.4175 15.3116 96.5575 14.8493Z" fill="white"/>
<path d="M100.052 14.7319L100.407 14.7971C100.369 15.2895 100.27 15.6797 100.107 15.9724L99.7806 15.7834C99.9372 15.5001 100.028 15.1523 100.052 14.7319ZM100.593 13.1795L100.97 13.106L101.112 13.8362L102.353 13.594C102.398 13.8703 102.444 14.1263 102.483 14.3633L102.717 14.1871C102.967 14.5052 103.219 14.8594 103.472 15.2543L103.162 15.4859C102.946 15.1288 102.724 14.8053 102.505 14.5219C102.546 14.8155 102.581 15.0777 102.608 15.3006C102.652 15.7322 102.643 16.0436 102.587 16.234C102.529 16.4165 102.4 16.5313 102.203 16.586L101.744 16.6757L101.571 16.3345C101.706 16.3163 101.833 16.2957 101.951 16.2727C102.143 16.2351 102.246 16.0763 102.263 15.8042C102.272 15.5171 102.197 14.9245 102.042 14.0295L101.167 14.2004C101.25 14.8323 101.239 15.3641 101.136 15.7959C101.015 16.2637 100.742 16.6594 100.321 16.9861L100.053 16.7001C100.453 16.3654 100.697 15.9916 100.789 15.5825C100.856 15.2149 100.856 14.7787 100.79 14.274L99.8557 14.4564L99.7852 14.0952L100.735 13.9098L100.593 13.1795Z" fill="white"/>
<path d="M105.198 12.2299L105.573 12.1484L105.701 12.7386L106.674 12.5269L106.753 12.8865L105.779 13.0982L105.92 13.7431L106.998 13.5085L107.077 13.8681L105.806 14.1443C105.697 14.7165 105.586 15.146 105.468 15.4335C105.888 15.2931 106.299 15.1301 106.702 14.9524C106.555 14.7634 106.407 14.5909 106.262 14.4341L106.596 14.2386C106.912 14.5793 107.205 14.9494 107.474 15.3576L107.156 15.5905C107.077 15.4686 106.998 15.3507 106.921 15.2445C106.364 15.4845 105.75 15.7121 105.081 15.9312L104.925 15.6254C104.954 15.6069 104.978 15.5892 104.995 15.5733C105.134 15.3834 105.27 14.9363 105.404 14.2319L104.54 14.4197L104.462 14.0601L105.544 13.8247L105.404 13.1798L104.509 13.3744L104.431 13.0148L105.326 12.8202L105.198 12.2299ZM103.508 12.6301C103.801 12.7711 104.053 12.9168 104.271 13.07L104.064 13.3975C103.875 13.2461 103.618 13.0974 103.294 12.9467L103.508 12.6301ZM103.609 13.566C103.882 13.7113 104.12 13.8642 104.327 14.0239L104.115 14.3484C103.938 14.1944 103.699 14.0376 103.399 13.8817L103.609 13.566ZM104.228 14.5858L104.594 14.6495C104.532 15.1746 104.445 15.6766 104.336 16.1547L103.929 16.0713C104.059 15.5803 104.16 15.0835 104.228 14.5858Z" fill="white"/>
<path d="M109.644 14.1822C109.409 14.5922 108.965 14.97 108.315 15.3147L108.038 15.048C108.715 14.6842 109.152 14.3247 109.342 13.9667L109.386 13.8614L107.877 14.2227L107.793 13.8726L109.493 13.4656C109.531 13.2099 109.523 12.9362 109.469 12.6446L109.356 12.17L109.714 12.0844L109.827 12.5589C109.884 12.8496 109.904 13.1205 109.882 13.3725L111.104 13.0801L111.187 13.4302L109.814 13.7589C109.802 13.7947 109.79 13.8305 109.782 13.8653C110.369 13.9469 110.923 14.0776 111.441 14.2497L111.315 14.6171C110.755 14.4058 110.198 14.2634 109.644 14.1822ZM108.173 13.0003C108.476 13.047 108.761 13.1226 109.029 13.2272L108.908 13.5646C108.623 13.4395 108.337 13.3599 108.056 13.3203L108.173 13.0003ZM108.423 12.3644C108.726 12.4072 109.011 12.4829 109.275 12.5883L109.154 12.9257C108.87 12.8045 108.587 12.7202 108.306 12.6805L108.423 12.3644ZM110.645 11.3185L110.836 12.116L110.478 12.2016L110.368 11.7426L107.832 12.3498L107.942 12.8088L107.584 12.8945L107.393 12.097L108.852 11.7478C108.783 11.6491 108.716 11.5582 108.647 11.476L109.009 11.3235C109.082 11.4212 109.154 11.5316 109.225 11.6584L110.645 11.3185Z" fill="white"/>
<path d="M111.123 11.3862L111.685 11.2403C111.575 11.0871 111.464 10.9465 111.349 10.8233L111.708 10.6599C111.815 10.8016 111.927 10.9626 112.041 11.1478L112.498 11.0291L112.59 11.3853L111.835 11.5814L111.953 12.0344L112.638 11.8563C112.9 12.8629 113.043 13.4912 113.073 13.7355C113.095 13.9778 112.955 14.1421 112.646 14.2225C112.615 14.2306 112.558 14.2369 112.483 14.2483L112.316 13.9403C112.389 13.9339 112.453 13.9255 112.507 13.9114C112.642 13.8762 112.707 13.7893 112.7 13.6506C112.685 13.5139 112.579 13.058 112.386 12.2855L112.038 12.3761C112.237 13.2377 112.258 13.906 112.1 14.3809L111.763 14.2123C111.9 13.7715 111.861 13.1286 111.648 12.2914L111.487 11.6719L111.216 11.7424L111.123 11.3862ZM113.114 11.1088C113.058 11.4207 112.977 11.698 112.872 11.9444L112.558 11.7203C112.712 11.3744 112.802 10.9254 112.832 10.376L113.197 10.3639C113.188 10.4901 113.178 10.6086 113.167 10.727L114.503 10.38L114.593 10.7245L113.114 11.1088ZM114.569 11.1895C114.761 11.9289 114.858 12.383 114.867 12.546C114.873 12.7099 114.751 12.8284 114.495 12.8948L114.476 12.8998L114.302 12.6142C114.368 12.5971 114.427 12.5859 114.478 12.5728C114.52 12.5618 114.537 12.516 114.526 12.4404C114.517 12.3726 114.463 12.1344 114.358 11.7318L114.091 11.9128L114.419 13.1749L114.079 13.2634L113.782 12.1213L113.511 12.3033L113.773 13.3138C113.818 13.4841 113.899 13.5581 114.015 13.5279L114.747 13.3378C114.828 13.3166 114.885 13.2812 114.914 13.2324C114.948 13.1739 114.944 13.0303 114.9 12.7979L115.243 12.8161C115.295 13.1581 115.288 13.3706 115.221 13.4624C115.159 13.5406 115.051 13.6018 114.888 13.644L113.994 13.8764C113.731 13.9448 113.554 13.8048 113.465 13.4641L113.216 12.5039L112.966 12.6721L112.88 12.3392L113.129 12.171L112.995 11.6522L113.32 11.5677L113.424 11.9704L113.694 11.7845L113.536 11.1767L113.877 11.0882L114.004 11.576L114.569 11.1895Z" fill="white"/>
<path d="M116.799 12.2517L116.895 12.5945C116.597 12.8358 116.244 13.0592 115.836 13.2647L115.692 12.9271C116.127 12.7141 116.496 12.4902 116.799 12.2517ZM115.376 9.7051L115.747 9.74226C115.717 10.2575 115.658 10.6852 115.575 11.0243C115.686 10.9765 115.799 10.92 115.908 10.8645C115.932 10.7125 115.957 10.5516 115.981 10.3831L116.333 10.4091C116.218 11.0975 116.107 11.6063 115.992 11.9375C116.195 11.8309 116.402 11.7106 116.605 11.5749L116.696 11.8984C116.353 12.1274 116.013 12.3096 115.686 12.4469L115.509 12.1558C115.563 12.1116 115.605 12.0668 115.636 12.0164C115.707 11.8552 115.779 11.5902 115.85 11.2214L115.348 11.4615L115.172 11.1743C115.22 11.1361 115.257 11.0759 115.278 11.0035C115.341 10.6038 115.373 10.171 115.376 9.7051ZM117.22 9.86991L116.685 10.0198L116.963 11.0136L117.499 10.8637L117.22 9.86991ZM117.591 11.195L117.056 11.3449L117.345 12.3772L117.88 12.2273L117.591 11.195ZM118.211 12.1346L118.731 11.989L118.443 10.9567L117.922 11.1022L118.211 12.1346ZM117.83 10.771L118.35 10.6254L118.072 9.63161L117.552 9.77718L117.83 10.771ZM118.824 12.3202L117.438 12.7084L117.501 12.9357L117.166 13.0295L116.256 9.77849L118.324 9.19944L119.235 12.4505L118.888 12.5475L118.824 12.3202Z" fill="white"/>
<path d="M120.275 8.45337L120.996 10.8641L120.643 10.9694L120.027 8.90747L119.023 9.20742L119.649 11.3039L119.296 11.4092L118.566 8.96398L120.275 8.45337ZM120.524 11.1011C120.838 11.2325 121.111 11.3765 121.345 11.5319L121.151 11.8865C120.945 11.7307 120.674 11.5779 120.345 11.4258L120.524 11.1011ZM119.42 9.33509L119.773 9.22976L120.131 10.4294C120.251 10.8862 120.266 11.274 120.185 11.5903C120.095 11.8887 119.893 12.162 119.574 12.4076L119.27 12.1436C119.576 11.9103 119.763 11.6707 119.826 11.4347C119.884 11.1835 119.866 10.8842 119.778 10.5347L119.42 9.33509ZM120.696 8.54888L121.049 8.44355L121.756 10.8121L121.404 10.9175L120.696 8.54888ZM122.374 11.496L121.849 11.6528L121.659 11.3254C121.831 11.2865 121.995 11.2461 122.148 11.2003C122.259 11.1671 122.299 11.0925 122.267 10.9852L121.374 7.99568L121.735 7.88806L122.655 10.9695C122.735 11.2378 122.642 11.4159 122.374 11.496Z" fill="white"/>
<path d="M122.58 7.58559L123.936 9.11476L123.713 11.1458L123.364 11.1056L123.57 9.23114L122.319 7.8198L122.58 7.58559Z" fill="white"/>
<path d="M127.608 6.67976L128.499 9.3174L128.154 9.43387L128.088 9.2368L127.489 9.43902L127.593 9.74599L127.248 9.86245L126.32 7.1149L126.68 6.99332C126.679 6.76564 126.662 6.53928 126.618 6.30924L126.994 6.23692C127.027 6.45816 127.035 6.67063 127.025 6.87685L127.608 6.67976ZM127.376 9.10552L127.975 8.90331L127.723 8.15673L127.124 8.35895L127.376 9.10552ZM127.015 8.03682L127.614 7.83461L127.379 7.1373L126.78 7.33951L127.015 8.03682ZM128.598 7.35892C128.953 7.5852 129.237 7.789 129.449 7.97917L129.232 8.27601C129.004 8.07453 128.713 7.86443 128.367 7.63937L128.598 7.35892ZM129.565 6.02315C130.007 7.3306 130.26 8.14421 130.325 8.46019C130.379 8.74584 130.243 8.94371 129.921 9.05249C129.845 9.07809 129.706 9.11659 129.513 9.16921L129.314 8.86894C129.484 8.82021 129.63 8.77915 129.752 8.7382C129.903 8.687 129.963 8.57798 129.932 8.41113C129.891 8.21397 129.688 7.57346 129.33 6.49083L128.379 6.81207C128.35 7.07529 128.299 7.32468 128.219 7.5628L127.907 7.35152C128.034 6.90323 128.059 6.40096 127.973 5.84727L128.345 5.77244C128.378 5.99746 128.392 6.21244 128.394 6.41862L129.565 6.02315Z" fill="white"/>
<path d="M130.26 5.12028C130.587 5.22812 130.873 5.35081 131.117 5.48457L130.954 5.82349C130.736 5.68917 130.452 5.56136 130.099 5.44143L130.26 5.12028ZM133.634 7.71864C133.427 7.79284 133.199 7.87001 132.957 7.95258C132.711 8.0365 132.503 8.0854 132.332 8.1044C132.165 8.11317 132.001 8.07001 131.842 7.98245C131.766 7.93732 131.71 7.92338 131.665 7.93957C131.586 7.9679 131.511 8.18592 131.44 8.59362L131.089 8.44329C131.168 8.07082 131.269 7.81806 131.392 7.68879L131.011 6.62311L130.506 6.80387L130.387 6.47249L131.227 6.17167L131.737 7.59509C131.761 7.60341 131.787 7.61549 131.814 7.63134C131.937 7.70199 132.054 7.74492 132.166 7.76015C132.298 7.7724 132.475 7.74694 132.7 7.67488C132.916 7.60175 133.17 7.51514 133.464 7.40991C133.648 7.34381 133.835 7.2726 134.022 7.20138C134.209 7.13017 134.353 7.07003 134.452 7.02607L134.492 7.41107L133.634 7.71864ZM131.907 4.95078L131.18 5.21114L131.074 4.91365L133.141 4.17305L133.232 4.42535C133.081 4.69188 132.904 4.93367 132.704 5.15827C132.714 5.1631 132.723 5.16417 132.733 5.16901L133.49 4.89786L134.089 6.56981C134.169 6.79199 134.085 6.94947 133.84 7.03716L133.55 7.14103L133.368 6.87052L133.641 6.78981C133.724 6.76013 133.754 6.70252 133.724 6.61967L133.656 6.42763L133.113 6.62188L133.335 7.23945L133.007 7.35681L132.786 6.73924L132.255 6.92945L132.479 7.55455L132.14 7.67596L131.411 5.6425L132.277 5.33223C132.124 5.29391 131.953 5.25721 131.769 5.22967L131.907 4.95078ZM132.425 5.06706C132.554 4.93132 132.669 4.78833 132.769 4.64186L131.926 4.94404C132.101 4.98315 132.268 5.0212 132.425 5.06706ZM132.057 6.3759L132.151 6.63949L132.682 6.44929L132.587 6.18569L132.057 6.3759ZM132.915 6.06833L133.01 6.33192L133.552 6.13767L133.457 5.87407L132.915 6.06833ZM133.352 5.58035L133.258 5.31675L132.715 5.51101L132.81 5.77461L133.352 5.58035ZM132.482 5.89197L132.388 5.62837L131.857 5.81858L131.951 6.08218L132.482 5.89197Z" fill="white"/>
<path d="M137.026 2.99804L138.134 5.91463L137.79 6.04533L137.709 5.83219L137.055 6.0808L137.137 6.29768L136.793 6.42838L135.684 3.50804L137.026 2.99804ZM136.928 5.74801L137.583 5.4994L136.808 3.46153L136.154 3.71014L136.928 5.74801ZM134.51 4.46302C134.495 4.68265 134.463 4.89159 134.418 5.08842L134.033 5.00815C134.138 4.56575 134.167 4.12273 134.115 3.68054L134.494 3.62179C134.511 3.77808 134.516 3.926 134.519 4.07019L135.54 3.68235L135.669 4.02262L135.161 4.21583C135.241 4.4505 135.313 4.67164 135.365 4.87834L135.949 4.65672L136.078 4.99699L135.446 5.23708C135.462 5.32502 135.475 5.41439 135.488 5.49486C135.805 5.64003 136.134 5.80996 136.482 6.00322L136.39 6.41467C136.033 6.17369 135.741 5.98956 135.513 5.86227C135.505 6.31455 135.366 6.74821 135.086 7.16234L134.747 6.96623C135.026 6.53057 135.147 6.08248 135.111 5.6168C135.099 5.54008 135.089 5.45819 135.076 5.37772L134.339 5.65759L134.21 5.31732L134.999 5.01756C134.946 4.81086 134.875 4.58972 134.794 4.35505L134.51 4.46302Z" fill="white"/>
<path d="M137.757 2.25929L139.229 3.67706L139.166 5.7194L138.816 5.70672L138.873 3.82189L137.515 2.51334L137.757 2.25929ZM138.391 2.00132L139.862 3.4191L139.8 5.46143L139.449 5.44875L139.506 3.56392L138.134 2.26141L138.391 2.00132Z" fill="white"/>
</svg>
