<svg width="179" height="33" viewBox="0 0 179 33" fill="none" xmlns="http://www.w3.org/2000/svg">
<path d="M4.9578 5.8622L5.23328 6.10249L3.96119 7.50334L4.15838 9.3787L3.80961 9.41739L3.59578 7.38532L4.9578 5.8622ZM5.60869 6.07241L5.86895 6.30779L4.61209 7.71355L4.80928 9.58892L4.46051 9.6276L4.24668 7.59554L5.60869 6.07241Z" fill="white"/>
<path d="M7.37653 6.67579C7.46196 6.91203 7.5376 7.16616 7.59964 7.43699L7.32594 7.48137L8.11625 7.72835C8.3217 7.55368 8.525 7.33225 8.72497 7.06786L9.05021 7.27426C8.88747 7.5 8.71017 7.69185 8.52476 7.85602L9.25017 8.08271L9.1404 8.43396L7.89576 8.045L7.85877 8.16335C7.79387 8.34423 7.72228 8.50625 7.64663 8.65443L9.16616 9.1293L9.0564 9.48055L7.72013 9.06295C7.76284 9.58338 8.12673 10.0952 8.81061 10.6023L8.48942 10.8791C7.79027 10.3002 7.41851 9.70627 7.3653 9.09874C7.2405 9.25671 7.10639 9.39081 6.96418 9.49723C6.59718 9.75971 6.09106 9.89071 5.44583 9.89023L5.34633 9.5113C5.99395 9.50415 6.46618 9.3877 6.76684 9.16316C6.87398 9.07511 6.97325 8.97203 7.06345 8.85773L5.75772 8.44968L5.86749 8.09844L7.27248 8.53751C7.35313 8.3867 7.42854 8.22587 7.49225 8.04881L7.52924 7.93046L6.28078 7.54031L6.39055 7.18906L7.20758 7.44439C7.15079 7.18358 7.07802 6.9471 6.99426 6.73234L7.37653 6.67579Z" fill="white"/>
<path d="M10.292 7.70492L13.189 8.586L13.0808 8.9419L11.86 8.57061L11.576 9.50438L13.0647 9.95714L12.9541 10.3207L11.4654 9.86794L11.0685 11.1729C10.9871 11.4408 10.8036 11.5355 10.5242 11.4505L9.91571 11.2655L9.94626 10.8901C10.1379 10.961 10.3231 11.0257 10.4992 11.0792C10.6216 11.1164 10.7003 11.0777 10.7329 10.9705L11.1019 9.75737L9.54814 9.28482L9.65871 8.92126L11.2124 9.39381L11.4964 8.46004L10.1838 8.06082L10.292 7.70492Z" fill="white"/>
<path d="M14.0444 10.5543L13.7423 11.5745C14.0773 11.5986 14.4348 11.6168 14.8095 11.6193L14.8066 11.9814C14.2962 11.9721 13.78 11.9402 13.2607 11.8907L13.2047 11.5446C13.3115 11.522 13.3791 11.4627 13.4075 11.3668L14.0969 9.03878C14.5991 9.10405 15.0658 9.13382 15.4984 9.12425L15.6383 9.48275C15.264 9.49288 14.8444 9.47291 14.3784 9.42667L14.1478 10.2052L15.2064 10.5187L15.103 10.8677L14.0444 10.5543ZM16.0294 12.5855L15.6688 12.4787L15.6736 12.0964L16.0127 12.2051C16.1124 12.2346 16.1793 12.1919 16.2111 12.0845L16.7995 10.0978L16.0439 9.87402L15.1511 12.8886L14.7829 12.7796L15.7779 9.4198L17.2699 9.86164L16.5566 12.2702C16.4714 12.5579 16.294 12.6639 16.0294 12.5855Z" fill="white"/>
<path d="M17.6315 11.1046L18.2588 10.07L18.6062 10.2368L18.2013 10.8901L18.7701 11.0542C18.9251 10.7908 19.0692 10.5077 19.2063 10.2058L19.5658 10.3595C19.4321 10.6498 19.2924 10.9176 19.1506 11.1639L20.9108 11.6717L20.8099 12.0214L18.9574 11.4871C18.8824 11.6028 18.8058 11.7098 18.7341 11.814L20.2714 12.2574L20.1827 12.5649C19.9919 12.8512 19.7216 13.0813 19.364 13.2529C19.6095 13.4986 19.9199 13.7505 20.2912 14.0074L20.0031 14.299C19.5868 13.9958 19.2491 13.6944 18.9916 13.4036C18.627 13.5274 18.1988 13.6121 17.7069 13.6575L17.6145 13.2562C18.0388 13.2287 18.4137 13.1703 18.7342 13.0837C18.542 12.8118 18.4158 12.5423 18.3582 12.2801C17.9174 12.7691 17.4369 13.1217 16.9204 13.3391L16.8296 12.9465C17.4952 12.6306 18.0751 12.1068 18.5693 11.3751L17.6315 11.1046ZM18.681 12.1567C18.7425 12.42 18.8813 12.6891 19.0988 12.9599C19.3975 12.8338 19.6352 12.6734 19.8071 12.4815L18.681 12.1567ZM20.2236 10.5035C20.4312 10.7798 20.5953 11.0478 20.7172 11.3036L20.3805 11.4896C20.2844 11.2454 20.129 10.9757 19.9078 10.6746L20.2236 10.5035Z" fill="white"/>
<path d="M24.5249 11.7037L24.794 11.9288L23.5924 13.3821L23.8619 15.2485L23.5149 15.3006L23.2227 13.2783L24.5249 11.7037Z" fill="white"/>
<path d="M26.276 12.2285L26.6464 12.3296L25.685 15.8528L25.3146 15.7517L25.481 15.142C25.1392 15.1939 24.7874 15.2222 24.4215 15.226L24.4317 14.8391C24.8155 14.8609 25.1982 14.841 25.581 14.7754L25.8969 13.6177L24.9167 13.3503L25.0126 12.9991L25.9927 13.2666L26.276 12.2285ZM27.2651 16.2466L26.6708 16.0845C26.3968 16.0097 26.3018 15.8262 26.3797 15.5407L27.2137 12.4844L27.5803 12.5844L27.2402 13.8309C27.5882 13.8015 27.9324 13.7254 28.2727 13.6026L28.4038 13.9577C27.947 14.0818 27.5292 14.1544 27.1443 14.182L26.7621 15.5828C26.7358 15.6793 26.7645 15.741 26.8494 15.7642L27.2971 15.8864C27.3665 15.9053 27.429 15.8892 27.4795 15.8408C27.5234 15.7864 27.6016 15.5756 27.7122 15.216L28.0251 15.4216C27.8787 15.8668 27.7577 16.1281 27.6696 16.2078C27.5749 16.2814 27.4426 16.2951 27.2651 16.2466Z" fill="white"/>
<path d="M29.131 14.0865L31.6792 14.7611L31.3701 15.9289L30.2912 15.6433L30.0343 16.6138C29.9677 16.8652 29.8025 16.958 29.5434 16.8894L29.1258 16.7788L29.1339 16.4044C29.2613 16.4547 29.383 16.4952 29.5028 16.5269C29.6034 16.5535 29.6708 16.5176 29.6954 16.4248L29.9278 15.547L28.8219 15.2543L29.131 14.0865ZM31.0998 15.4808L31.2226 15.0168L29.4013 14.5346L29.2785 14.9986L31.0998 15.4808ZM30.6842 13.3929C30.7077 13.5232 30.7221 13.6719 30.7335 13.8321L32.2957 14.2457L32.2046 14.5898L28.7554 13.6767L28.8465 13.3326L30.3545 13.7318C30.3409 13.5958 30.3164 13.4693 30.2889 13.3544L30.6842 13.3929ZM30.9227 16.009C31.1882 16.3814 31.4006 16.7356 31.5589 17.0754L31.2215 17.2716C31.0921 16.9477 30.8905 16.5839 30.6166 16.1804L30.9227 16.009ZM29.1555 15.5412L29.3532 15.8418C29.0244 16.1147 28.6527 16.3308 28.2343 16.489L28.0811 16.1298C28.4828 15.9879 28.8406 15.793 29.1555 15.5412Z" fill="white"/>
<path d="M32.8192 14.4123L34.346 14.803C34.3236 14.6486 34.2953 14.501 34.2592 14.3679L34.6703 14.407C34.6937 14.5575 34.7093 14.7225 34.7219 14.8992L36.2758 15.2968L36.1856 15.6494L34.6433 15.2548L34.5352 15.6772L35.7946 15.9994L35.4268 17.4371C35.3633 17.6851 35.1988 17.7793 34.9431 17.7138L34.5517 17.6137L34.5479 17.2411L34.9111 17.3547C35.0041 17.3785 35.0625 17.3439 35.0843 17.2586L35.3401 16.2589L34.445 16.0298L33.9254 18.0604L33.5534 17.9652L34.073 15.9346L33.2243 15.7175L32.8435 17.2055L32.4832 17.1133L32.9542 15.2726L34.1632 15.582L34.2713 15.1596L32.729 14.7649L32.8192 14.4123Z" fill="white"/>
<path d="M36.6954 16.5818C36.5483 16.6938 36.3943 16.8 36.2297 16.8995L36.2061 16.4775C36.7115 16.1326 37.1331 15.6928 37.4691 15.1494L37.7783 15.3988C37.6094 15.6661 37.4122 15.9141 37.1908 16.1437L36.5506 18.7379L36.1856 18.6478L36.6954 16.5818ZM37.6988 15.7046L38.4444 15.8886L38.6652 15.4446L39.0177 15.5687C38.9493 15.7124 38.8789 15.8475 38.8133 15.9797L39.9318 16.2556L39.8436 16.6129L38.632 16.3139C38.5615 16.4325 38.4968 16.5443 38.4331 16.6522L39.9128 17.0173L39.8255 17.3707L38.2294 16.9768C38.1386 17.111 38.0546 17.2344 37.9686 17.3492L39.5143 17.7306L39.4357 18.049C39.219 18.2592 38.9208 18.4493 38.5323 18.6213C38.6743 18.7469 38.8105 18.8794 38.938 19.0139L38.6497 19.2806C38.2545 18.8452 37.8265 18.4759 37.3745 18.1707L37.6444 17.9284C37.8563 18.0713 38.0576 18.224 38.2502 18.3786C38.568 18.2593 38.8315 18.1265 39.0377 17.9755L37.4066 17.573C37.567 17.3572 37.7225 17.1278 37.876 16.8896L37.2624 16.7382L37.3496 16.3848L38.0759 16.564C38.1405 16.4522 38.2052 16.3405 38.2669 16.2239L37.6106 16.0619L37.6988 15.7046Z" fill="white"/>
<path d="M41.2327 18.8665L41.1488 19.2207C40.7522 19.3159 40.3124 19.368 39.835 19.37L39.8798 18.9901C40.3795 18.9975 40.8331 18.9569 41.2327 18.8665ZM41.185 16.0477L41.506 16.2717C41.2095 16.6906 40.9332 17.0239 40.6782 17.2677C40.8142 17.2835 40.9512 17.2954 41.089 17.3034C41.1847 17.1945 41.287 17.0748 41.3912 16.9474L41.6925 17.1503C41.241 17.6682 40.877 18.0424 40.5966 18.272C40.8536 18.2629 41.1191 18.2354 41.394 18.1854L41.3138 18.524C40.8519 18.5996 40.4234 18.6214 40.0311 18.5943L40.0149 18.2287C40.0884 18.2133 40.1512 18.1911 40.208 18.1594C40.3591 18.0595 40.5635 17.8736 40.8211 17.6016C40.6347 17.5904 40.4414 17.5734 40.2403 17.5545L40.2271 17.1938C40.291 17.1843 40.3575 17.1466 40.4208 17.0876C40.6896 16.7854 40.9444 16.4388 41.185 16.0477ZM41.5614 17.999L41.5571 17.6526C41.5901 17.6522 41.6201 17.647 41.6375 17.6429C41.7746 17.5849 41.9789 17.399 42.2448 17.092L41.6415 16.9492L41.7254 16.5949L42.6712 16.8189C42.654 16.6833 42.6311 16.5546 42.6024 16.4327L42.9947 16.4598C43.0158 16.5964 43.0341 16.7446 43.0449 16.9074L43.8973 17.1093L43.8134 17.4635L42.6302 17.1833C42.4159 17.4285 42.2329 17.6112 42.0792 17.7393C42.4019 17.7828 42.7264 17.8185 43.0488 17.8456C42.9968 17.7182 42.9438 17.5946 42.8909 17.4711L43.2126 17.3623C43.3911 17.754 43.5205 18.0929 43.6016 18.3752L43.2666 18.5055C43.2411 18.4049 43.2078 18.3025 43.1754 18.1962C42.6753 18.1558 42.136 18.0898 41.5614 17.999ZM41.8209 18.1878L42.179 18.2726C42.0425 18.7623 41.8945 19.1096 41.7389 19.3153C41.5689 19.5299 41.3322 19.6958 41.0252 19.8122L40.8608 19.4649C41.1119 19.3764 41.3072 19.2459 41.4468 19.0734C41.5805 18.9078 41.7039 18.6123 41.8209 18.1878ZM42.8537 20.1794L42.6046 20.1204C42.3283 20.055 42.2215 19.8982 42.2796 19.653L42.5939 18.3257L42.9481 18.4096L42.6504 19.6668C42.6357 19.7291 42.6498 19.7735 42.6947 19.7924L42.9126 19.844C42.9845 19.8528 43.0393 19.8123 43.0692 19.7208C43.1058 19.6184 43.1495 19.4685 43.1956 19.2739L43.4881 19.4623C43.3996 19.836 43.315 20.0544 43.2402 20.1271C43.1673 20.192 43.0365 20.2063 42.8537 20.1794Z" fill="white"/>
<path d="M46.0137 17.8511L44.7067 17.5558L44.7869 17.2008L47.7795 17.8769L47.6993 18.2319L46.3883 17.9357L45.8524 20.3079L47.4091 20.6597L47.328 21.0186L43.8361 20.2297L43.9171 19.8707L45.4778 20.2233L46.0137 17.8511Z" fill="white"/>
<path d="M48.1561 18.0205L49.0399 18.2103L49.113 17.87L49.4923 17.9515L49.4193 18.2917L50.3579 18.4932L50.4309 18.1529L50.8103 18.2344L50.7373 18.5746L51.6211 18.7644L51.5464 19.1124L50.6625 18.9227L50.5962 19.2317L50.2168 19.1502L50.2832 18.8413L49.3446 18.6398L49.2782 18.9487L48.8989 18.8673L48.9652 18.5583L48.0813 18.3686L48.1561 18.0205ZM48.3407 18.8947L50.9375 19.4522L50.8611 19.8081C49.6597 20.1639 48.8678 20.4603 48.4895 20.6981C48.366 20.778 48.2897 20.8475 48.255 20.9137C48.2424 20.9724 48.267 21.0104 48.3374 21.0255L50.2576 21.4377C50.3632 21.4604 50.4512 21.4507 50.5169 21.4116C50.5817 21.3764 50.6773 21.1596 50.8038 20.7613L51.1177 20.976C50.9773 21.4204 50.8442 21.6782 50.7146 21.7486C50.5897 21.8159 50.4231 21.8292 50.2198 21.7855L48.2839 21.37C47.9397 21.2961 47.7976 21.1387 47.8496 20.8963C47.8849 20.732 48.0559 20.5642 48.3549 20.3911C48.7481 20.1604 49.3798 19.9238 50.2432 19.6755L48.2643 19.2506L48.3407 18.8947Z" fill="white"/>
<path d="M52.4001 18.9689L53.2432 19.1388C53.2159 19.0109 53.1823 18.894 53.1394 18.7833L53.5441 18.7996C53.5761 18.9243 53.601 19.064 53.6235 19.2155L54.3803 19.368C54.4644 19.2543 54.5383 19.1305 54.5974 18.9996L54.9871 19.1311C54.9273 19.2456 54.8573 19.3498 54.7764 19.4478L55.592 19.6121L55.524 19.9493L54.1163 19.6657L54.0563 19.9637L55.2561 20.2055L55.1914 20.527L53.9915 20.2852L53.9306 20.5871L55.4677 20.8969L55.3982 21.2419L51.9476 20.5466L52.0171 20.2016L53.5542 20.5113L53.615 20.2094L52.4269 19.9699L52.4917 19.6484L53.6798 19.8878L53.7399 19.5898L52.3322 19.3062L52.4001 18.9689ZM53.4971 20.9364L53.8656 21.0515C53.8389 21.1236 53.8082 21.1949 53.7743 21.2616L55.2448 21.5579L55.1737 21.9108L53.8797 21.65C54.0847 22.0096 54.5408 22.3178 55.248 22.5745L54.9808 22.8879C54.1749 22.5542 53.686 22.1455 53.511 21.6573C53.4002 21.7819 53.2776 21.8837 53.1387 21.9659C52.8341 22.1412 52.3468 22.2307 51.669 22.2328L51.5895 21.8373C52.1661 21.8515 52.5984 21.7917 52.8834 21.6533C52.9745 21.6064 53.0498 21.5563 53.119 21.4967L51.8995 21.251L51.9706 20.8981L53.3822 21.1825C53.427 21.1018 53.464 21.0195 53.4971 20.9364Z" fill="white"/>
<path d="M56.3151 20.3046L57.8093 20.5838L57.979 19.6756L58.3486 19.7446L58.1789 20.6529L59.6769 20.9329L59.6101 21.2907L58.4541 21.0746C58.5911 21.735 58.9136 22.3609 59.4216 22.9523L59.1112 23.2199C58.5697 22.5246 58.2341 21.7945 58.1083 21.0304L57.6704 23.3738L57.3008 23.3047L57.7372 20.9692C57.3033 21.7019 56.7063 22.2618 55.947 22.6448L55.805 22.2724C56.4741 21.958 57.0088 21.4922 57.4003 20.8777L56.2483 20.6624L56.3151 20.3046ZM58.9888 19.8683C59.1688 20.1461 59.3036 20.3829 59.3932 20.5787L59.0546 20.7352C58.9656 20.5151 58.8322 20.2704 58.664 19.9948L58.9888 19.8683Z" fill="white"/>
<path d="M60.7344 20.1562L61.0615 20.3787C60.9215 20.6509 60.7605 20.9033 60.5739 21.1392L60.1113 23.8358L59.7328 23.7709L60.0953 21.6577C59.9553 21.7879 59.8087 21.9089 59.655 22.0246L59.6011 21.6054C60.0659 21.2144 60.445 20.7315 60.7344 20.1562ZM61.2217 20.4386L63.1298 20.7659L62.9053 22.0748L62.1326 21.9423L62.073 22.2892L63.1769 22.4786L63.1147 22.8413L62.3459 22.7094C62.4901 23.0994 62.7166 23.4588 63.0293 23.7885L62.7288 24.0738C62.4242 23.6725 62.1963 23.2032 62.0424 22.6573L62.0108 22.6519L61.7606 24.1106L61.39 24.047L61.6402 22.5883L61.6048 22.5823C61.2637 23.0798 60.8839 23.4488 60.4651 23.6895L60.3104 23.3139C60.69 23.1356 61.0188 22.8754 61.3051 22.5309L60.5758 22.4057L60.638 22.043L61.7025 22.2256L61.762 21.8787L60.9971 21.7475L61.2217 20.4386ZM62.5962 21.6525L62.6977 21.0611L61.5307 20.861L61.4293 21.4523L62.5962 21.6525Z" fill="white"/>
<path d="M63.7859 24.4129L63.3905 24.3523L63.3632 23.9758C63.48 24.0059 63.5974 24.0319 63.7081 24.0489C63.7991 24.0628 63.8538 24.0227 63.8683 23.9278L63.9968 23.0896C63.8387 23.1179 63.6812 23.1424 63.5243 23.1628L63.4869 22.7727C63.6749 22.761 63.864 22.7414 64.0544 22.714L64.1811 21.8876L63.7145 21.8161L63.7697 21.4563L64.2362 21.5278L64.3459 20.8122L64.7215 20.8698L64.6118 21.5854L65.0112 21.6466L64.956 22.0064L64.5567 21.9452L64.45 22.6411C64.6014 22.6036 64.7535 22.5621 64.9061 22.5167L64.8485 22.8923C64.6965 22.9338 64.5445 22.9752 64.3936 23.0088L64.2294 24.0803C64.1894 24.3412 64.0389 24.4517 63.7859 24.4129ZM66.8884 22.0193L65.5717 21.8175L65.4699 22.4818L66.7865 22.6836L66.8884 22.0193ZM65.4108 22.8409C65.2871 23.5423 65.0277 24.1257 64.6299 24.5827L64.384 24.2861C64.7262 23.9015 64.9482 23.377 65.0552 22.7055L65.2546 21.4047L66.0968 21.5338C66.0645 21.3751 66.0303 21.2282 65.9865 21.092L66.3955 21.0899C66.4251 21.2401 66.4522 21.4062 66.4764 21.592L67.3067 21.7192L67.0951 23.0991L65.4108 22.8409Z" fill="white"/>
<path d="M68.1344 22.6707L68.5998 21.5538L68.9682 21.6667L68.6656 22.3733L69.2526 22.4504C69.3665 22.1668 69.4666 21.8653 69.5569 21.5463L69.9353 21.6444C69.8466 21.9515 69.7486 22.2372 69.6452 22.502L71.4616 22.7405L71.4143 23.1014L69.5027 22.8504C69.4458 22.976 69.3861 23.0933 69.3308 23.207L70.9172 23.4153L70.8755 23.7326C70.7297 24.0443 70.4968 24.3122 70.169 24.5355C70.4485 24.7416 70.7931 24.9442 71.1987 25.1427L70.9575 25.4741C70.5005 25.2366 70.1215 24.9891 69.8234 24.7402C69.4814 24.9172 69.0707 25.065 68.5912 25.1836L68.4397 24.8006C68.8551 24.7099 69.217 24.596 69.5209 24.4625C69.2902 24.2224 69.1251 23.9748 69.0289 23.7241C68.6663 24.2736 68.2439 24.6942 67.7658 24.9864L67.6173 24.6119C68.2281 24.1999 68.7231 23.5952 69.1021 22.7978L68.1344 22.6707ZM69.3296 23.5538C69.4298 23.805 69.6073 24.0502 69.8629 24.2855C70.1393 24.116 70.3504 23.9219 70.4916 23.7064L69.3296 23.5538ZM70.6074 21.6883C70.8539 21.9305 71.0564 22.1709 71.2152 22.4055L70.9101 22.6398C70.7785 22.4127 70.5845 22.1694 70.3207 21.9048L70.6074 21.6883Z" fill="white"/>
<path d="M72.2951 23.4113L72.8439 23.4703L72.8781 23.1522L72.214 23.0808L72.1815 23.383C72.1558 23.6216 72.1151 23.8506 72.0681 24.0628L72.7721 24.1385L72.808 23.8044L72.2592 23.7454L72.2951 23.4113ZM71.9837 24.3997C71.8615 24.8251 71.6959 25.2055 71.4872 25.5371L71.2105 25.2298C71.5149 24.7556 71.711 24.129 71.7997 23.342L71.9433 22.0057L74.9858 22.3327L74.8746 23.3668L74.3218 23.3074L74.2876 23.6255L74.8842 23.6897L74.8482 24.0237L74.2517 23.9596L74.2158 24.2937L74.9476 24.3723L74.9108 24.7144L74.5131 24.6716L74.7194 24.9231C74.5798 25.061 74.4314 25.1697 74.2779 25.2498C74.4684 25.3869 74.6901 25.4953 74.947 25.5752L74.7295 25.9139C74.0338 25.65 73.5679 25.1936 73.3279 24.5442L72.8347 24.4912L72.7535 25.2468C72.9985 25.2128 73.2166 25.1679 73.4037 25.1116L73.4381 25.4653C73.104 25.542 72.7119 25.5964 72.2619 25.6285L72.194 25.2873C72.3184 25.2524 72.3871 25.1753 72.4007 25.048L72.4649 24.4514L71.9837 24.3997ZM73.7097 24.5853C73.7893 24.7427 73.887 24.8819 74.0023 25.0069C74.1633 24.9317 74.3161 24.8194 74.4614 24.6661L73.7097 24.5853ZM73.9559 23.268L73.24 23.1911L73.2058 23.5092L73.9217 23.5862L73.9559 23.268ZM73.134 24.1774L73.8499 24.2543L73.8858 23.9203L73.1699 23.8433L73.134 24.1774ZM74.5668 22.6377L72.2879 22.3927L72.2503 22.7427L74.5292 22.9877L74.5668 22.6377Z" fill="white"/>
<path d="M75.921 22.3471C76.1539 22.4428 76.3694 22.5531 76.5595 22.6813L76.3306 22.9713C76.1303 22.8221 75.9233 22.7046 75.7101 22.6145L75.921 22.3471ZM77.1467 22.377L77.5135 22.4557C77.4829 22.5334 77.449 22.6029 77.4112 22.672L78.9738 22.8021L78.9548 23.0294C78.895 23.217 78.819 23.4074 78.7313 23.5927L78.3775 23.4549C78.4463 23.3522 78.5084 23.233 78.5595 23.1008L77.9776 23.0523C77.955 23.1307 77.9291 23.2008 77.8992 23.2705C78.0869 23.5712 78.4692 23.7997 79.0502 23.9565L78.8871 24.276C78.3347 24.1136 77.9454 23.8725 77.7188 23.5566C77.6743 23.609 77.6304 23.6536 77.5826 23.6977C77.3796 23.8695 77.0445 23.9901 76.5808 24.0638L76.4695 23.7134C76.8508 23.6649 77.1308 23.5798 77.3102 23.4503C77.4474 23.3453 77.5517 23.2015 77.6188 23.0224L77.1843 22.9862C77.069 23.1171 76.9309 23.234 76.778 23.3337L76.5794 23.0201C76.8458 22.8577 77.0365 22.6407 77.1467 22.377ZM78.5848 24.291L78.4855 25.4829L78.1028 25.451L78.1729 24.6099L76.3193 24.4555L76.2459 25.3364L75.8673 25.3049L75.9699 24.0731L78.5848 24.291ZM77.0797 24.6272L77.4557 24.6906C77.3574 25.1962 77.2056 25.5247 77.0086 25.6729C76.7917 25.8676 76.3101 25.9639 75.5593 25.9656L75.4404 25.6105C76.0689 25.6307 76.4874 25.5693 76.7004 25.4224C76.889 25.2776 77.0153 25.0152 77.0797 24.6272ZM76.3638 23.1507L76.5655 23.4284C76.3492 23.6151 76.0865 23.7818 75.7769 23.9326L75.55 23.6207C75.8669 23.4785 76.1406 23.3247 76.3638 23.1507ZM77.4754 25.3706C77.9789 25.541 78.4364 25.7357 78.8476 25.9545L78.6141 26.2522C78.1773 26.0031 77.7285 25.8011 77.2601 25.6417L77.4754 25.3706Z" fill="white"/>
<path d="M80.1994 23.8425C80.0173 23.9354 79.8277 24.0199 79.6306 24.0958L79.4306 23.7668C80.1401 23.5062 80.7231 23.1536 81.1835 22.7093L81.4869 22.7281C81.8294 23.2143 82.3606 23.632 83.0841 23.9855L82.8489 24.2875C82.6623 24.1957 82.4841 24.0965 82.3223 23.9903L82.3095 24.1979L81.4351 24.1436L81.4052 24.6267L82.7945 24.7129L82.7727 25.0642L81.3834 24.978L81.3227 25.9562L81.6979 25.9794C81.8371 25.7396 81.9615 25.4788 82.0749 25.2013L82.4105 25.3464C82.3071 25.5924 82.1974 25.8101 82.0812 26.0032L82.8517 26.051L82.8294 26.4103L79.392 26.1971L79.4143 25.8377L80.1968 25.8863C80.1351 25.654 80.0527 25.4325 79.9535 25.222L80.3005 25.1193C80.3989 25.3418 80.4869 25.6037 80.5641 25.9091L80.9474 25.9329L81.0081 24.9548L79.6148 24.8683L79.6366 24.517L81.0299 24.6034L81.0599 24.1204L80.1855 24.0661L80.1994 23.8425ZM82.1109 23.8449C81.7964 23.617 81.5318 23.3601 81.3131 23.074C81.0328 23.3292 80.7265 23.5506 80.3942 23.7384L82.1109 23.8449Z" fill="white"/>
<path d="M84.3085 23.6054L83.8648 23.5883L83.879 23.2205L85.1381 23.2692L85.1239 23.6369L84.6922 23.6202L84.627 25.307C84.7849 25.261 84.935 25.2108 85.081 25.1604L85.0664 25.5401C84.7091 25.6704 84.3001 25.7907 83.8397 25.897L83.7423 25.517C83.9117 25.4835 84.0773 25.4458 84.2389 25.408L84.3085 23.6054ZM85.2745 23.0543L87.5128 23.1408L87.4986 23.5085L86.5673 23.4725C86.5427 23.5916 86.5144 23.7026 86.4862 23.8096L87.3256 23.842L87.2509 25.7766L86.8831 25.7624L86.9443 24.1796L85.7492 24.1334L85.688 25.7162L85.3243 25.7022L85.3991 23.7676L86.1105 23.7951C86.1468 23.6844 86.1751 23.5734 86.1956 23.4581L85.2603 23.422L85.2745 23.0543ZM86.6562 25.7296C86.9671 25.9738 87.2221 26.2118 87.4292 26.444L87.1469 26.7053C86.9716 26.4783 86.7209 26.2325 86.395 25.9637L86.6562 25.7296ZM86.1372 24.3485L86.5169 24.3632L86.4899 25.0627C86.4532 25.4936 86.3197 25.8407 86.0937 26.0962C85.8726 26.3278 85.5217 26.4984 85.0368 26.6158L84.8415 26.284C85.3101 26.174 85.636 26.0264 85.8113 25.8411C85.9792 25.6394 86.0815 25.3752 86.1102 25.048L86.1372 24.3485Z" fill="white"/>
<path d="M91.1669 23.2262L91.1137 26.7498L90.7297 26.744L90.7333 26.508L88.7175 26.4776L88.7138 26.7216L88.3259 26.7157L88.3792 23.1841L91.1669 23.2262ZM88.7231 26.1096L90.7389 26.1401L90.7489 25.4762L88.7331 25.4457L88.7231 26.1096ZM88.7383 25.1017L90.7541 25.1322L90.7634 24.5163L88.7476 24.4858L88.7383 25.1017ZM88.7529 24.1339L90.7687 24.1643L90.7774 23.5884L88.7616 23.5579L88.7529 24.1339Z" fill="white"/>
<path d="M93.7531 24.3062C93.6263 24.4473 93.4914 24.5724 93.3483 24.6816L93.1457 24.3793C93.5829 24.0397 93.9152 23.5969 94.1507 23.0549L94.4907 23.052C94.6908 23.5464 95.0344 23.9795 95.5255 24.3474L95.3202 24.6611C95.1592 24.5425 95.0181 24.4156 94.893 24.2807L94.895 24.5207L93.755 24.5302L93.7531 24.3062ZM94.8001 24.1775C94.6062 23.9471 94.4441 23.6964 94.3218 23.4254C94.1842 23.7146 94.0303 23.9679 93.8561 24.1854L94.8001 24.1775ZM93.2775 26.2583L94.5614 26.2475C94.7019 25.8303 94.8256 25.3173 94.9326 24.7164L95.2974 24.8053C95.1979 25.3422 95.0738 25.8192 94.9254 26.2445L95.4854 26.2398L95.4884 26.6038L93.2805 26.6223L93.2775 26.2583ZM93.6976 24.8427C93.8204 25.1697 93.9355 25.5488 94.0391 25.9719L93.7158 26.0546C93.6246 25.6714 93.5095 25.3083 93.3746 24.9574L93.6976 24.8427ZM94.3126 24.7176C94.4192 25.0287 94.5102 25.3919 94.5937 25.7993L94.2663 25.882C94.1953 25.5146 94.1043 25.1633 93.9895 24.8243L94.3126 24.7176ZM92.7749 23.5624L91.8389 23.5702L91.836 23.2262L93.148 23.2153L92.9738 24.8648L93.2058 24.8628C93.2136 25.7988 93.1741 26.3392 93.0953 26.4838C93.0125 26.6285 92.8372 26.702 92.5732 26.7042C92.4852 26.7049 92.3931 26.7017 92.2971 26.6945L92.1943 26.3594C92.3344 26.3782 92.4305 26.3894 92.4865 26.3889C92.6665 26.3874 92.774 26.3265 92.8091 26.2142C92.8481 26.0979 92.8653 25.7617 92.8606 25.2017L91.8486 25.2102L92.0248 23.7967L92.373 23.8138L92.2258 24.871L92.6178 24.8678L92.7749 23.5624ZM92.6869 25.4792L92.6898 25.8192C92.4306 25.9174 92.1353 25.9998 91.8038 26.0666L91.7568 25.707C92.1083 25.6481 92.4197 25.5734 92.6869 25.4792Z" fill="white"/>
<path d="M95.6851 25.9613L95.563 25.645C95.6262 25.6189 95.6609 25.5778 95.6593 25.5259L95.5917 23.3909L95.9635 23.3792L96.0306 25.4981C96.1969 25.4408 96.359 25.3797 96.5209 25.3105L96.4488 23.0316L96.8206 23.0199L96.9252 26.3262C97.315 26.1218 97.6268 25.8598 97.8571 25.5484C97.6522 25.2707 97.4787 24.972 97.3366 24.6564C97.2719 24.7625 97.2029 24.8567 97.1337 24.9469L96.8927 24.6664C97.1954 24.2406 97.3936 23.6741 97.4833 22.9669L97.8651 23.0188C97.8389 23.2038 97.8045 23.3809 97.7697 23.5461L99.0331 23.5061L99.0449 23.878L98.729 23.888C98.7168 24.5127 98.5779 25.0573 98.3205 25.5217C98.5782 25.8257 98.8829 26.0962 99.2266 26.3334L98.9765 26.6495C98.6408 26.412 98.3482 26.1451 98.0988 25.8529C97.8488 26.1729 97.5293 26.4472 97.1364 26.6757L96.9262 26.3582L96.9358 26.6621L96.564 26.6738L96.5324 25.6743C96.2636 25.7789 95.9785 25.8759 95.6851 25.9613ZM97.6655 23.9216C97.6291 24.0348 97.5884 24.1402 97.5437 24.2456C97.6828 24.5934 97.861 24.9119 98.0702 25.2014C98.2585 24.8273 98.3568 24.392 98.3692 23.8993L97.6655 23.9216Z" fill="white"/>
<path d="M100.14 25.5704C100.314 25.6768 100.481 25.8036 100.642 25.9548C100.777 26.0793 100.905 26.2124 101.025 26.3578L100.778 26.5921C100.666 26.4462 100.538 26.3132 100.403 26.1846C100.25 26.0409 100.091 25.9097 99.9238 25.7909L100.14 25.5704Z" fill="white"/>
<path d="M105.19 23.4291L105.605 23.3957L105.582 23.1126L105.941 23.0838L105.963 23.3668L106.378 23.3335L106.402 23.6325L105.987 23.6659L106.012 23.9689L106.486 23.9307L106.511 24.2417L105.207 24.3466L105.182 24.0356L105.653 23.9978L105.629 23.6947L105.214 23.7281L105.19 23.4291ZM105.337 24.5569L106.409 24.4706L106.496 25.5432L105.423 25.6294L105.337 24.5569ZM106.152 25.2618L106.115 24.8073L105.685 24.8419L105.721 25.2965L106.152 25.2618ZM106.845 22.5496L107.096 25.6794C107.118 25.9426 106.989 26.0894 106.718 26.1112L106.347 26.141L106.231 25.8012C106.356 25.7992 106.472 25.7979 106.58 25.7892C106.687 25.7806 106.738 25.7083 106.727 25.5807L106.513 22.9213L104.998 23.0432L105.149 24.9211C105.185 25.468 105.101 25.9202 104.897 26.2777L104.598 26.045C104.759 25.7511 104.822 25.3968 104.796 24.9736L104.616 22.7288L106.845 22.5496ZM103.822 22.6923C104.081 22.8681 104.304 23.0468 104.488 23.2287L104.25 23.5127C104.083 23.3415 103.86 23.1588 103.576 22.973L103.822 22.6923ZM103.373 23.8922L104.266 23.8204L104.394 25.4072C104.46 25.3297 104.534 25.2515 104.607 25.1654L104.733 25.5285C104.546 25.7522 104.345 25.9529 104.127 26.1349L103.957 25.8116C104.017 25.7546 104.047 25.6879 104.041 25.6082L103.929 24.2127L103.402 24.255L103.373 23.8922Z" fill="white"/>
<path d="M107.753 22.9659L108.378 22.9002L108.36 22.7291L107.604 22.8086L107.574 22.5222L108.329 22.4427L108.312 22.2756L108.646 22.2405L108.664 22.4075L109.376 22.3326L109.406 22.6191L108.694 22.694L108.712 22.865L109.336 22.7993L109.414 23.5392L108.79 23.6049L108.792 23.6328C109.024 23.6929 109.265 23.7681 109.508 23.8552L109.347 24.1617C109.141 24.0386 108.962 23.9408 108.818 23.8715L108.857 24.2454L108.523 24.2805L108.482 23.8947C108.286 24.0923 108.078 24.255 107.867 24.3898L107.676 24.1082C107.93 24.001 108.179 23.8461 108.424 23.6434L107.831 23.7058L107.753 22.9659ZM109.089 23.32L109.065 23.0853L108.738 23.1196L108.763 23.3543L109.089 23.32ZM108.429 23.3895L108.404 23.1548L108.078 23.1891L108.103 23.4238L108.429 23.3895ZM109.964 22.7292C109.949 22.7711 109.933 22.809 109.921 22.8504C110.046 23.0424 110.195 23.1997 110.373 23.3257C110.496 23.152 110.569 22.9311 110.589 22.6635L109.964 22.7292ZM110.137 23.5638C109.988 23.4467 109.862 23.3192 109.759 23.1812C109.714 23.2503 109.668 23.3194 109.623 23.3845L109.375 23.1291C109.586 22.8414 109.712 22.5064 109.759 22.1153L110.102 22.1235C110.088 22.2175 110.073 22.3076 110.058 22.3976L111.096 22.2884L111.13 22.6066L110.919 22.6288C110.895 22.9772 110.809 23.2638 110.664 23.4962C110.859 23.5883 111.075 23.6541 111.313 23.6974L111.15 24.0163C110.878 23.9564 110.635 23.8693 110.43 23.7541C110.253 23.9015 110.013 24.0353 109.72 24.1546L109.561 23.8617C109.793 23.7729 109.988 23.676 110.137 23.5638ZM109.383 24.6244L108.019 24.7679L107.985 24.4417L111.151 24.1086L111.186 24.4348L109.757 24.5851L109.784 24.8397L110.97 24.715L111.003 25.0332L109.818 25.1579L109.845 25.4165L111.464 25.2462L111.499 25.5803L107.943 25.9544L107.908 25.6203L108.512 25.5567L108.439 24.8645L108.789 24.8276L108.862 25.5198L109.471 25.4558L109.383 24.6244Z" fill="white"/>
<path d="M112.43 24.5281C112.611 24.6218 112.787 24.7363 112.958 24.8756C113.102 24.9903 113.239 25.1138 113.369 25.2503L113.139 25.5017C113.017 25.3641 112.88 25.2406 112.736 25.122C112.574 24.9896 112.405 24.8701 112.23 24.7635L112.43 24.5281Z" fill="white"/>
<path d="M117.188 24.0267L117.245 24.4104C116.898 24.6 116.499 24.777 116.046 24.9339L115.931 24.5466C116.418 24.3929 116.836 24.2169 117.188 24.0267ZM116.058 21.3162L116.426 21.3986C116.314 21.8926 116.188 22.2957 116.042 22.6169C116.174 22.5809 116.302 22.5415 116.429 22.4983C116.477 22.3333 116.531 22.1553 116.584 21.9694L116.931 22.0428C116.713 22.7469 116.524 23.2647 116.354 23.5934C116.541 23.5129 116.725 23.4206 116.911 23.3118L116.961 23.6481C116.621 23.8365 116.295 23.9824 115.986 24.0773L115.836 23.7519C115.895 23.7147 115.945 23.6708 115.986 23.6202C116.081 23.4685 116.189 23.2178 116.314 22.8634C116.132 22.9189 115.946 22.975 115.753 23.0363L115.611 22.7097C115.667 22.6771 115.712 22.6259 115.745 22.5482C115.879 22.1722 115.983 21.7642 116.058 21.3162ZM117.896 23.2208C118.317 23.2751 118.706 23.3585 119.066 23.4703L118.923 23.7829C118.533 23.6634 118.141 23.5846 117.742 23.5393L117.896 23.2208ZM117.512 23.9255C118.17 23.9968 118.777 24.1081 119.335 24.2672L119.184 24.6093C118.581 24.4409 117.969 24.3263 117.346 24.27L117.512 23.9255ZM117.431 21.1145L117.818 21.1051C117.803 21.2206 117.787 21.3322 117.762 21.437L118.85 21.274L118.896 21.5786C118.784 21.9109 118.635 22.2123 118.448 22.4749C118.743 22.6126 119.067 22.7218 119.416 22.8072L119.269 23.177C118.889 23.0721 118.541 22.9342 118.219 22.7599C117.939 23.0729 117.598 23.3343 117.196 23.5401L116.96 23.2357C117.322 23.0601 117.637 22.8391 117.895 22.5658C117.734 22.4605 117.584 22.3535 117.445 22.2368C117.37 22.3572 117.287 22.4749 117.198 22.5852L116.915 22.3122C117.202 21.9618 117.377 21.5635 117.431 21.1145ZM118.118 22.3018C118.256 22.1153 118.376 21.9153 118.473 21.6986L117.646 21.8224C117.628 21.8616 117.613 21.9002 117.599 21.9387C117.757 22.0729 117.932 22.1922 118.118 22.3018Z" fill="white"/>
<path d="M121.019 20.5864L121.398 20.5225L121.608 21.7648L122.803 21.5629L122.864 21.9258L121.669 22.1277L121.922 23.6225L123.322 23.3859L123.384 23.7527L119.858 24.3485L119.796 23.9817L120.435 23.8738L120.028 21.4639L120.406 21.3999L120.814 23.8098L121.543 23.6865L121.019 20.5864Z" fill="white"/>
<path d="M126.136 21.2399L126.289 22.0658L124.374 22.4212L124.412 22.6297L126.512 22.2399L126.707 23.29L126.334 23.3593L126.307 23.2177L124.581 23.5382L124.606 23.6758L124.233 23.7452L123.847 21.6647L126.136 21.2399ZM124.52 23.2078L126.246 22.8874L126.194 22.6042L124.467 22.9246L124.52 23.2078ZM124.318 22.1223L125.868 21.8348L125.825 21.6067L124.276 21.8942L124.318 22.1223ZM126.587 20.6475L126.726 21.3987L126.361 21.4666L126.28 21.0301L123.629 21.522L123.71 21.9586L123.344 22.0264L123.205 21.2753L124.727 20.9928C124.681 20.92 124.632 20.8558 124.585 20.7994L124.905 20.683L124.83 20.6522C124.968 20.3826 125.055 20.1061 125.083 19.8201L125.455 19.8324C125.444 19.9036 125.436 19.9702 125.424 20.0375L126.518 19.8346L126.578 20.161L125.937 20.28C126.016 20.3548 126.083 20.4319 126.141 20.5025L125.833 20.6857C125.747 20.5715 125.649 20.4596 125.54 20.3537L125.339 20.3909C125.297 20.5331 125.244 20.6689 125.182 20.7944L124.971 20.7075C125.015 20.7724 125.058 20.846 125.104 20.9227L126.587 20.6475ZM123.648 20.7048C123.588 20.8624 123.518 21.0137 123.439 21.1546L123.074 21.0106C123.257 20.7245 123.369 20.4271 123.415 20.1257L123.787 20.1379C123.776 20.2092 123.761 20.2811 123.749 20.3484L124.74 20.1645L124.801 20.4909L124.211 20.6004C124.3 20.6856 124.38 20.7683 124.444 20.85L124.126 21.0433C124.033 20.9141 123.933 20.7903 123.821 20.6727L123.648 20.7048Z" fill="white"/>
<path d="M128.494 19.3178L130.478 18.9203L130.854 20.7951L130.05 20.9561L130.128 21.3483L130.983 21.1771L131.053 21.5223L130.198 21.6935L130.279 22.1014L131.272 21.9027L131.343 22.2596L128.97 22.7348L128.899 22.3779L129.911 22.1752L129.829 21.7673L128.97 21.9393L128.901 21.5942L129.76 21.4222L129.681 21.03L128.869 21.1925L128.494 19.3178ZM130.431 20.5371L130.341 20.09L129.894 20.1795L129.984 20.6267L130.431 20.5371ZM129.615 20.7005L129.526 20.2534L129.071 20.3445L129.16 20.7916L129.615 20.7005ZM129.006 20.0229L129.461 19.9318L129.372 19.4846L128.917 19.5757L129.006 20.0229ZM129.74 19.4108L129.83 19.8579L130.277 19.7684L130.188 19.3213L129.74 19.4108ZM127.399 20.8791L127.787 20.8014L127.619 19.962L127.172 20.0516L127.102 19.6986L128.368 19.4449L128.439 19.7979L127.996 19.8866L128.164 20.726L128.56 20.6466L128.632 21.0035L128.235 21.0829L128.393 21.8673C128.516 21.7935 128.636 21.7205 128.751 21.6405L128.823 22.0013C128.491 22.2148 128.131 22.4133 127.738 22.5939L127.577 22.255C127.736 22.1946 127.89 22.1271 128.039 22.0564L127.859 21.1583L127.471 21.236L127.399 20.8791Z" fill="white"/>
<path d="M133.546 21.1052C133.3 21.5088 132.846 21.8746 132.187 22.2019L131.917 21.9279C132.604 21.5823 133.05 21.2346 133.249 20.8818L133.297 20.7777L131.778 21.0987L131.704 20.7464L133.414 20.3849C133.458 20.1303 133.457 19.8565 133.412 19.5636L133.311 19.0861L133.671 19.01L133.772 19.4875C133.821 19.7795 133.834 20.0508 133.805 20.3022L135.034 20.0424L135.108 20.3947L133.727 20.6867C133.714 20.7221 133.701 20.7576 133.692 20.7922C134.277 20.8894 134.827 21.0348 135.34 21.2206L135.205 21.5845C134.65 21.3583 134.097 21.2012 133.546 21.1052ZM132.106 19.8846C132.408 19.9393 132.691 20.0225 132.956 20.1342L132.826 20.4682C132.545 20.3356 132.261 20.2485 131.981 20.2013L132.106 19.8846ZM132.374 19.2556C132.675 19.3064 132.958 19.3897 133.219 19.5021L133.089 19.8362C132.809 19.7074 132.528 19.6156 132.248 19.5684L132.374 19.2556ZM134.622 18.2692L134.792 19.0715L134.432 19.1476L134.334 18.6858L131.783 19.2252L131.88 19.687L131.52 19.7631L131.351 18.9608L132.818 18.6506C132.752 18.5501 132.688 18.4575 132.621 18.3735L132.987 18.2306C133.057 18.3303 133.126 18.4425 133.194 18.5712L134.622 18.2692Z" fill="white"/>
<path d="M134.842 18.4062L135.409 18.2825C135.305 18.125 135.199 17.9802 135.09 17.8526L135.454 17.7034C135.556 17.8491 135.661 18.0144 135.768 18.2039L136.229 18.1032L136.308 18.4627L135.546 18.6292L135.646 19.0864L136.337 18.9353C136.559 19.9514 136.677 20.5848 136.698 20.83C136.71 21.073 136.564 21.2317 136.252 21.3C136.221 21.3068 136.164 21.311 136.088 21.3194L135.934 21.0051C136.007 21.0015 136.071 20.9956 136.125 20.9837C136.262 20.9538 136.33 20.8695 136.328 20.7306C136.319 20.5935 136.231 20.1337 136.068 19.3543L135.717 19.4311C135.882 20.2999 135.876 20.9685 135.7 21.4368L135.37 21.2551C135.525 20.8201 135.511 20.1762 135.331 19.3313L135.194 18.706L134.92 18.7657L134.842 18.4062ZM136.841 18.207C136.774 18.5165 136.682 18.7904 136.567 19.0325L136.262 18.7962C136.429 18.4567 136.537 18.0115 136.589 17.4637L136.954 17.4659C136.94 17.5917 136.925 17.7096 136.91 17.8276L138.258 17.5331L138.334 17.8809L136.841 18.207ZM138.292 18.3446C138.455 19.091 138.535 19.5486 138.538 19.7117C138.537 19.8757 138.41 19.9894 138.152 20.0457L138.132 20.05L137.97 19.7578C138.037 19.7433 138.096 19.7344 138.147 19.7233C138.19 19.7139 138.209 19.6689 138.2 19.5929C138.194 19.5248 138.15 19.2847 138.061 18.8783L137.787 19.0486L138.065 20.3226L137.721 20.3977L137.469 19.2449L137.192 19.4161L137.414 20.4361C137.452 20.608 137.53 20.6851 137.647 20.6595L138.386 20.4982C138.468 20.4803 138.526 20.4471 138.557 20.3995C138.593 20.3423 138.595 20.1987 138.56 19.9648L138.903 19.9964C138.941 20.3401 138.926 20.5522 138.855 20.6414C138.79 20.717 138.68 20.7739 138.515 20.8098L137.613 21.0069C137.347 21.0649 137.176 20.9181 137.101 20.5742L136.889 19.6051L136.633 19.7634L136.559 19.4273L136.815 19.269L136.701 18.7453L137.029 18.6736L137.118 19.0801L137.395 18.9049L137.261 18.2914L137.605 18.2163L137.713 18.7087L138.292 18.3446Z" fill="white"/>
<path d="M140.611 19.4856L140.689 19.8331C140.378 20.0578 140.014 20.2617 139.595 20.4448L139.47 20.0999C139.915 19.9107 140.296 19.7073 140.611 19.4856ZM139.329 16.8655L139.698 16.9227C139.64 17.4356 139.558 17.8594 139.456 18.1935C139.569 18.1519 139.685 18.1015 139.797 18.0521C139.829 17.9015 139.864 17.7423 139.896 17.5753L140.246 17.6204C140.094 18.3016 139.956 18.8035 139.823 19.1281C140.031 19.0326 140.245 18.9237 140.455 18.7992L140.528 19.1272C140.173 19.3372 139.824 19.5007 139.49 19.62L139.329 19.3198C139.385 19.2786 139.429 19.2361 139.463 19.1875C139.543 19.0304 139.629 18.7697 139.72 18.4052L139.206 18.6178L139.046 18.3215C139.095 18.2859 139.135 18.2278 139.161 18.1566C139.245 17.7609 139.301 17.3306 139.329 16.8655ZM141.162 17.1302L140.619 17.2508L140.843 18.2582L141.385 18.1376L141.162 17.1302ZM141.46 18.4734L140.917 18.594L141.15 19.6405L141.693 19.5199L141.46 18.4734ZM142.028 19.4453L142.556 19.3281L142.323 18.2817L141.796 18.3988L142.028 19.4453ZM141.721 18.063L142.248 17.9458L142.025 16.9384L141.497 17.0555L141.721 18.063ZM142.63 19.6639L141.224 19.9763L141.276 20.2067L140.936 20.2822L140.204 16.9865L142.301 16.5206L143.033 19.8162L142.681 19.8943L142.63 19.6639Z" fill="white"/>
<path d="M144.336 15.9034L144.882 18.3595L144.523 18.4393L144.056 16.3386L143.033 16.566L143.508 18.7018L143.148 18.7817L142.595 16.2905L144.336 15.9034ZM144.394 18.5621C144.699 18.7157 144.961 18.8788 145.183 19.0506L144.964 19.3903C144.77 19.2203 144.511 19.0485 144.193 18.8732L144.394 18.5621ZM143.42 16.7217L143.779 16.6419L144.051 17.864C144.138 18.3283 144.125 18.7161 144.022 19.0259C143.911 19.317 143.689 19.5752 143.354 19.7973L143.069 19.5123C143.391 19.3014 143.595 19.0758 143.675 18.845C143.751 18.5986 143.754 18.2988 143.692 17.9439L143.42 16.7217ZM144.749 16.0288L145.109 15.9489L145.645 18.3621L145.286 18.4419L144.749 16.0288ZM146.212 19.0883L145.677 19.2072L145.511 18.8671C145.686 18.8406 145.851 18.812 146.008 18.7772C146.121 18.7521 146.166 18.6805 146.142 18.5712L145.465 15.5255L145.832 15.4439L146.53 18.5833C146.591 18.8566 146.485 19.0276 146.212 19.0883Z" fill="white"/>
<path d="M146.976 15.1506L147.324 15.0741C147.218 15.3758 147.152 15.6729 147.126 15.9653C147.083 16.327 147.103 16.6789 147.178 17.0188C147.252 17.3548 147.381 17.6826 147.573 17.9967C147.719 18.2473 147.903 18.4894 148.126 18.7229L147.779 18.7993C147.538 18.5819 147.339 18.3472 147.181 18.0952C146.987 17.7898 146.854 17.4628 146.776 17.1112C146.698 16.7557 146.681 16.399 146.73 16.0442C146.766 15.7415 146.848 15.4449 146.976 15.1506Z" fill="white"/>
<path d="M150.501 16.4071L150.165 16.4797L150.09 16.1317L151.126 15.9082L151.201 16.2562L150.865 16.3287L151.072 17.2906C151.221 17.2216 151.369 17.1488 151.512 17.0729L151.587 17.4209C151.267 17.5881 150.922 17.7487 150.549 17.8986L150.382 17.5622C150.496 17.5213 150.61 17.4803 150.723 17.4355L150.501 16.4071ZM152.385 17.7439C152.245 17.7742 152.093 17.6965 151.94 17.5168C151.761 17.2974 151.601 16.9923 151.461 16.6053C151.339 16.2713 151.218 15.8597 151.094 15.3626L149.886 15.6232L149.808 15.2635L151.009 15.0045C150.954 14.7873 150.904 14.5566 150.853 14.322L151.213 14.2444C151.265 14.4868 151.314 14.7136 151.369 14.9269L152.115 14.7658L152.193 15.1256L151.454 15.285C151.599 15.8799 151.742 16.3524 151.874 16.7003C152.048 17.1291 152.188 17.3404 152.298 17.3372C152.359 17.3159 152.371 17.0717 152.346 16.6108L152.69 16.786C152.672 17.3834 152.573 17.7034 152.385 17.7439ZM151.541 14.1696C151.744 14.314 151.904 14.4474 152.026 14.5601L151.807 14.7956C151.681 14.6673 151.516 14.5309 151.321 14.3848L151.541 14.1696ZM148.978 14.7715C149.262 14.9108 149.506 15.0586 149.713 15.2186L149.514 15.5315C149.326 15.3798 149.077 15.229 148.775 15.0814L148.978 14.7715ZM148.695 16.0193L149.575 15.8295L149.922 17.4405C149.993 17.3312 150.065 17.2132 150.14 17.0826L150.322 17.4525C150.153 17.7344 149.967 17.9913 149.76 18.2244L149.547 17.9224C149.598 17.8541 149.62 17.784 149.604 17.7097L149.292 16.263L148.772 16.3751L148.695 16.0193Z" fill="white"/>
<path d="M153.812 13.9361L155.723 13.5394L155.799 13.9036L153.888 14.3004L153.812 13.9361ZM153.917 14.9356L156.095 14.4835L156.17 14.8478L155.559 14.9746L155.904 16.6352C155.956 16.8859 155.841 17.0405 155.563 17.0982L154.995 17.2161L154.837 16.8689C155.021 16.8472 155.199 16.8184 155.363 16.7843C155.477 16.7607 155.527 16.7054 155.509 16.6232L155.183 15.0527L153.993 15.2998L153.917 14.9356ZM153.106 13.8824L153.48 13.9683C153.357 14.4431 153.085 14.9 152.655 15.3488L152.464 15.0003C152.788 14.6512 153.001 14.2801 153.106 13.8824ZM153.477 14.7411L153.846 14.8278C153.784 15.0613 153.692 15.2887 153.571 15.51L153.972 17.4447L153.608 17.5203L153.282 15.9498C153.166 16.1005 153.042 16.2489 152.901 16.3966L152.715 16.0512C153.096 15.6452 153.353 15.208 153.477 14.7411Z" fill="white"/>
<path d="M156.506 13.1252L156.855 13.0557C157.086 13.2747 157.281 13.5133 157.439 13.7755C157.622 14.0816 157.754 14.4143 157.825 14.7713C157.895 15.1243 157.901 15.4781 157.849 15.835C157.802 16.1299 157.714 16.4248 157.585 16.7197L157.236 16.7892C157.343 16.4865 157.414 16.1908 157.451 15.9022C157.496 15.5382 157.487 15.1852 157.42 14.8478C157.352 14.5065 157.225 14.1769 157.044 13.8622C156.899 13.6056 156.72 13.3599 156.506 13.1252Z" fill="white"/>
<path d="M158.737 12.6799L159.9 14.3604L159.435 16.3502L159.094 16.2685L159.523 14.4321L158.45 12.8811L158.737 12.6799Z" fill="white"/>
<path d="M164.058 12.3929L164.539 15.1351L164.18 15.1979L164.144 14.9931L163.522 15.1023L163.578 15.4214L163.219 15.4843L162.718 12.6279L163.093 12.5622C163.126 12.337 163.143 12.1107 163.135 11.8766L163.518 11.8622C163.517 12.0858 163.493 12.2971 163.451 12.4994L164.058 12.3929ZM163.461 14.7556L164.084 14.6464L163.948 13.8702L163.325 13.9794L163.461 14.7556ZM163.266 13.6445L163.889 13.5353L163.762 12.8104L163.139 12.9196L163.266 13.6445ZM164.933 13.2141C165.25 13.4916 165.5 13.736 165.68 13.9561L165.422 14.2168C165.226 13.983 164.971 13.7313 164.663 13.4564L164.933 13.2141ZM166.092 12.0403C166.33 13.3995 166.458 14.2422 166.473 14.5643C166.484 14.8548 166.32 15.0298 165.985 15.0886C165.906 15.1024 165.763 15.1194 165.564 15.1421L165.413 14.8153C165.588 14.7927 165.739 14.7744 165.865 14.7522C166.022 14.7246 166.098 14.626 166.093 14.4564C166.082 14.2552 165.978 13.5912 165.789 12.467L164.8 12.6405C164.731 12.8962 164.643 13.135 164.528 13.3583L164.251 13.1022C164.445 12.6783 164.545 12.1856 164.545 11.6253L164.923 11.6076C164.923 11.8352 164.903 12.0497 164.874 12.2538L166.092 12.0403Z" fill="white"/>
<path d="M166.66 11.3129C166.962 11.4794 167.22 11.6527 167.435 11.8291L167.212 12.1321C167.022 11.9598 166.767 11.7819 166.442 11.5989L166.66 11.3129ZM169.496 14.489C169.279 14.5237 169.042 14.5576 168.788 14.5941C168.531 14.6312 168.318 14.641 168.145 14.628C167.98 14.6058 167.826 14.5331 167.686 14.4178C167.62 14.3595 167.568 14.3354 167.521 14.343C167.438 14.3563 167.324 14.5567 167.179 14.9444L166.862 14.7319C167.008 14.3804 167.154 14.1505 167.299 14.0463L167.12 12.9285L166.591 13.0131L166.535 12.6655L167.416 12.5247L167.655 14.0177C167.677 14.0304 167.7 14.047 167.724 14.0675C167.832 14.1596 167.939 14.2235 168.046 14.259C168.173 14.2954 168.353 14.3032 168.587 14.2738C168.813 14.2418 169.078 14.2034 169.386 14.1542C169.58 14.1233 169.777 14.0877 169.973 14.0522C170.17 14.0167 170.323 13.9842 170.428 13.9592L170.397 14.345L169.496 14.489ZM168.31 11.4502L167.548 11.572L167.498 11.26L169.666 10.9134L169.708 11.178C169.511 11.4121 169.293 11.6172 169.055 11.801C169.064 11.8077 169.072 11.8104 169.081 11.817L169.875 11.6901L170.156 13.4438C170.193 13.6769 170.082 13.8162 169.825 13.8572L169.521 13.9058L169.392 13.6064L169.675 13.5774C169.762 13.5635 169.802 13.5125 169.788 13.4256L169.756 13.2242L169.187 13.3151L169.291 13.9628L168.947 14.0178L168.844 13.37L168.287 13.459L168.391 14.1147L168.036 14.1715L167.695 12.0386L168.604 11.8934C168.459 11.8273 168.299 11.7598 168.123 11.6988L168.31 11.4502ZM168.797 11.6599C168.95 11.5504 169.089 11.431 169.214 11.3056L168.33 11.447C168.495 11.5178 168.652 11.5859 168.797 11.6599ZM168.194 12.8784L168.238 13.1549L168.795 13.0659L168.751 12.7894L168.194 12.8784ZM169.094 12.7344L169.139 13.0109L169.707 12.92L169.663 12.6435L169.094 12.7344ZM169.614 12.3354L169.57 12.0589L169.001 12.1499L169.045 12.4264L169.614 12.3354ZM168.702 12.4813L168.657 12.2048L168.1 12.2938L168.145 12.5703L168.702 12.4813Z" fill="white"/>
<path d="M173.824 10.5851L174.265 13.6738L173.901 13.7258L173.869 13.5L173.176 13.5989L173.208 13.8286L172.844 13.8806L172.403 10.788L173.824 10.5851ZM173.125 13.2465L173.818 13.1476L173.51 10.9895L172.817 11.0884L173.125 13.2465ZM171.048 11.4621C170.986 11.6731 170.909 11.8699 170.821 12.0521L170.463 11.8891C170.663 11.4807 170.788 11.0547 170.834 10.6118L171.218 10.6379C171.199 10.794 171.172 10.9394 171.143 11.0808L172.224 10.9265L172.276 11.2869L171.737 11.3637C171.764 11.6104 171.785 11.8417 171.792 12.055L172.409 11.9668L172.461 12.3272L171.792 12.4227C171.788 12.5121 171.781 12.602 171.776 12.6835C172.053 12.8945 172.337 13.1327 172.634 13.3975L172.454 13.7787C172.159 13.4653 171.914 13.2215 171.719 13.0472C171.612 13.4867 171.381 13.8793 171.018 14.222L170.73 13.9561C171.098 13.5924 171.314 13.1818 171.381 12.7196C171.386 12.6421 171.395 12.5601 171.4 12.4787L170.619 12.59L170.568 12.2296L171.404 12.1104C171.397 11.8971 171.376 11.6658 171.349 11.4191L171.048 11.4621Z" fill="white"/>
<path d="M174.243 10.1035L175.297 11.8536L174.709 13.8103L174.373 13.7074L174.916 11.9015L173.943 10.2863L174.243 10.1035ZM174.921 10.0182L175.976 11.7683L175.387 13.725L175.052 13.622L175.595 11.8162L174.606 10.203L174.921 10.0182Z" fill="white"/>
</svg>
