<svg width="113" height="19" viewBox="0 0 113 19" fill="none" xmlns="http://www.w3.org/2000/svg">
<path d="M5.03137 1.71187L5.31207 1.94604L4.07113 3.37455L4.30954 5.24511L3.96171 5.29147L3.7032 3.2646L5.03137 1.71187ZM5.68673 1.9077L5.95211 2.13729L4.72649 3.57038L4.96491 5.44095L4.61708 5.4873L4.35857 3.46044L5.68673 1.9077Z" fill="white"/>
<path d="M7.53432 2.51506C7.62135 2.75071 7.69873 3.00432 7.76262 3.27472L7.48923 3.32097L8.2812 3.56255C8.48546 3.38648 8.68725 3.16366 8.8854 2.89791L9.21204 3.10209C9.05085 3.32893 8.87487 3.52199 8.69058 3.68742L9.41752 3.90915L9.31015 4.26114L8.06288 3.88069L8.02671 3.9993C7.96304 4.18061 7.89256 4.34312 7.81793 4.49181L9.34066 4.95629L9.2333 5.30828L7.89421 4.89982C7.94047 5.41995 8.30785 5.92929 8.99518 6.43168L8.67589 6.71067C7.9728 6.13656 7.59699 5.54518 7.53963 4.93803C7.41592 5.09685 7.28273 5.23186 7.14124 5.33925C6.77604 5.60423 6.27083 5.73869 5.62562 5.74261L5.52353 5.36437C6.17108 5.35279 6.64251 5.23313 6.94163 5.00654C7.04816 4.91776 7.14673 4.814 7.23614 4.69909L5.92766 4.29997L6.03503 3.94798L7.44298 4.37744C7.52261 4.22609 7.59691 4.06475 7.65941 3.88726L7.69559 3.76866L6.4445 3.38704L6.55187 3.03505L7.37062 3.28479C7.31205 3.02438 7.23766 2.7884 7.15244 2.57422L7.53432 2.51506Z" fill="white"/>
<path d="M10.5104 3.54621L13.4074 4.42712L13.2992 4.78303L12.0784 4.41182L11.7944 5.3456L13.2831 5.79827L13.1726 6.16184L11.6839 5.70916L11.2871 7.01417C11.2056 7.28206 11.0221 7.37677 10.7427 7.29182L10.1342 7.1068L10.1648 6.73144C10.3565 6.80227 10.5416 6.86695 10.7177 6.92047C10.8402 6.95771 10.9188 6.91893 10.9514 6.81177L11.3203 5.59861L9.76655 5.12616L9.8771 4.7626L11.4309 5.23505L11.7148 4.30127L10.4021 3.90212L10.5104 3.54621Z" fill="white"/>
<path d="M14.2633 6.39687L13.964 7.41793C14.2991 7.44108 14.6566 7.45834 15.0314 7.45979L15.0294 7.82186C14.5191 7.814 14.0028 7.78358 13.4833 7.73555L13.4263 7.38955C13.5331 7.36665 13.6005 7.30722 13.6286 7.21125L14.3115 4.88125C14.8138 4.9451 15.2806 4.97355 15.7131 4.96274L15.8541 5.32085C15.4799 5.33204 15.0602 5.31326 14.594 5.26834L14.3657 6.04757L15.4251 6.35805L15.3227 6.70736L14.2633 6.39687ZM16.254 8.42248L15.8931 8.31674L15.8968 7.93434L16.2362 8.04214C16.336 8.07139 16.4028 8.02844 16.4343 7.92096L17.017 5.93259L16.2608 5.71097L15.3766 8.72807L15.0081 8.62008L15.9936 5.25751L17.4868 5.69511L16.7803 8.10572C16.6959 8.39361 16.5188 8.50011 16.254 8.42248Z" fill="white"/>
<path d="M17.8798 6.94339L18.4901 5.89858L18.8401 6.05967L18.4459 6.71959L19.0174 6.87432C19.1681 6.60847 19.3075 6.32299 19.4396 6.01894L19.8016 6.16668C19.6726 6.45915 19.5374 6.72918 19.3996 6.97781L21.1679 7.45663L21.0728 7.80798L19.2118 7.30407C19.1387 7.42103 19.0638 7.52922 18.9938 7.63459L20.5382 8.05277L20.4546 8.36165C20.2685 8.65107 20.0019 8.88555 19.6472 9.06301C19.8967 9.30463 20.2112 9.55139 20.5867 9.80224L20.3034 10.0985C19.8822 9.80212 19.5396 9.5063 19.2774 9.2198C18.9149 9.34956 18.4881 9.4412 17.997 9.49472L17.8981 9.09496C18.3218 9.06051 18.6957 8.99598 19.0147 8.90419C18.8181 8.63546 18.6875 8.36802 18.6256 8.10677C18.1929 8.60292 17.7182 8.96338 17.2054 9.18919L17.1082 8.7982C17.7685 8.47143 18.3398 7.93819 18.8218 7.19848L17.8798 6.94339ZM18.9464 7.97814C19.0121 8.24043 19.1554 8.50715 19.3773 8.77442C19.6738 8.64338 19.9089 8.47912 20.0777 8.28445L18.9464 7.97814ZM20.4617 6.29985C20.6738 6.57275 20.8423 6.83802 20.9683 7.09179L20.6347 7.28324C20.5346 7.04065 20.3749 6.77362 20.1487 6.47618L20.4617 6.29985Z" fill="white"/>
<path d="M24.8517 7.37207L25.1295 7.58643L23.9862 9.08596L24.3291 10.9402L23.9844 11.006L23.6127 8.99682L24.8517 7.37207Z" fill="white"/>
<path d="M26.5798 7.78345L26.9563 7.85897L26.2381 11.4397L25.8616 11.3641L25.9859 10.7445C25.6485 10.8196 25.2994 10.872 24.9346 10.9008L24.9184 10.514C25.3027 10.5095 25.6832 10.4635 26.0606 10.3719L26.2966 9.19533L25.3005 8.99552L25.372 8.63863L26.3682 8.83844L26.5798 7.78345ZM27.8414 11.7245L27.2374 11.6034C26.959 11.5475 26.8516 11.371 26.9098 11.0807L27.5328 7.97461L27.9054 8.04934L27.6513 9.31611C27.9965 9.26296 28.3347 9.16352 28.6658 9.0178L28.8209 9.36305C28.3737 9.51812 27.9618 9.61909 27.5797 9.673L27.2942 11.0966C27.2745 11.1947 27.3074 11.2543 27.3937 11.2716L27.8486 11.3629C27.9192 11.377 27.9804 11.3567 28.0275 11.3049C28.0676 11.2477 28.1312 11.032 28.2169 10.6657L28.5432 10.8495C28.4276 11.3036 28.3247 11.5726 28.2423 11.6581C28.1528 11.738 28.0218 11.7607 27.8414 11.7245Z" fill="white"/>
<path d="M29.7547 9.45854L32.3575 9.87566L32.1663 11.0684L31.0644 10.8918L30.9055 11.8832C30.8644 12.1399 30.7092 12.2487 30.4446 12.2063L30.018 12.138L29.9887 11.7646C30.1205 11.8019 30.2456 11.8301 30.3681 11.8497C30.4707 11.8662 30.5343 11.8237 30.5495 11.7289L30.6931 10.8323L29.5635 10.6513L29.7547 9.45854ZM31.8527 10.6495L31.9286 10.1756L30.0684 9.87745L29.9924 10.3514L31.8527 10.6495ZM31.231 8.6135C31.2673 8.74085 31.2965 8.88732 31.3238 9.04563L32.9194 9.30134L32.8631 9.65286L29.3401 9.08826L29.3964 8.73675L30.9367 8.9836C30.9096 8.84962 30.8727 8.72622 30.8338 8.61467L31.231 8.6135ZM31.7291 11.1928C32.0305 11.5368 32.2772 11.8681 32.4686 12.1904L32.1524 12.4193C31.9913 12.1099 31.7544 11.7681 31.4417 11.3939L31.7291 11.1928ZM29.9242 10.9036L30.1508 11.1829C29.8509 11.4873 29.5026 11.7394 29.1021 11.9385L28.9138 11.5964C29.2994 11.4151 29.6359 11.1855 29.9242 10.9036Z" fill="white"/>
<path d="M33.2846 9.3806L34.8489 9.57247C34.8068 9.42224 34.7599 9.27946 34.707 9.15207L35.1198 9.13822C35.1623 9.28448 35.1989 9.44614 35.234 9.61971L36.826 9.81499L36.7817 10.1763L35.2016 9.98246L35.1485 10.4152L36.4388 10.5735L36.2582 12.0465C36.227 12.3005 36.0759 12.415 35.8139 12.3829L35.4129 12.3337L35.3614 11.9647L35.7362 12.0308C35.8315 12.0425 35.885 12.0007 35.8957 11.9133L36.0213 10.889L35.1042 10.7765L34.849 12.8569L34.4679 12.8102L34.723 10.7298L33.8536 10.6231L33.6666 12.1477L33.2973 12.1024L33.5286 10.2165L34.7674 10.3685L34.8204 9.93571L33.2403 9.74189L33.2846 9.3806Z" fill="white"/>
<path d="M38.4989 11.15L37.7579 11.0837L37.622 12.6016C37.6134 12.6972 37.6606 12.7536 37.7682 12.7633L38.4614 12.8253C38.5809 12.836 38.6595 12.8109 38.6927 12.7537C38.7303 12.6928 38.7663 12.5595 38.8004 12.3577L39.1443 12.509C39.0814 12.8527 39.0147 13.0596 38.9366 13.1249C38.8671 13.1829 38.7328 13.203 38.5416 13.1859L37.5734 13.0993C37.3224 13.0768 37.2096 12.9462 37.231 12.7072L37.4004 10.8147L37.1921 10.9888L36.9964 10.6621C37.406 10.3494 37.7893 9.97004 38.1461 9.52809L38.425 9.55305C38.7428 9.95097 39.0432 10.3634 39.3183 10.7896L39.0481 11.0265C38.7461 10.5416 38.4947 10.1657 38.2853 9.90199C38.0507 10.1902 37.7932 10.4644 37.505 10.7237L38.8994 10.8485L38.801 11.9481C38.7774 12.1669 38.6475 12.2717 38.407 12.2663C38.2517 12.2523 38.1046 12.2352 37.9659 12.2147L37.906 11.8519C38.052 11.8811 38.1787 11.9004 38.2903 11.9104C38.3819 11.9186 38.434 11.8751 38.4419 11.7875L38.4989 11.15ZM39.5707 9.98894L39.9412 10.0221L39.7212 12.4803L39.3507 12.4471L39.5707 9.98894ZM39.9654 13.3415L39.3638 13.2876L39.3086 12.9172C39.5024 12.9506 39.6889 12.9754 39.8642 12.9911C39.9598 12.9996 40.013 12.9441 40.0233 12.8286L40.3022 9.71306L40.6807 9.74694L40.3933 12.9581C40.3683 13.237 40.2243 13.3647 39.9654 13.3415Z" fill="white"/>
<path d="M41.7055 10.3566L41.0837 10.3042L41.1106 9.98532L42.4259 10.0961C42.3997 10.0256 42.3732 9.95917 42.346 9.90069L42.7619 9.87148C42.7874 9.9499 42.8163 10.0366 42.8404 10.131L44.2196 10.2471L44.1927 10.566L43.5589 10.5126L43.4232 10.742L44.3599 10.8209L44.3324 11.1478L40.8487 10.8544L40.8762 10.5276L41.781 10.6038L41.7055 10.3566ZM42.1756 10.637L43.0286 10.7088L43.1643 10.4794L42.1001 10.3898L42.1756 10.637ZM41.2491 11.0567L43.9038 11.2803L43.799 12.5239L41.1444 12.3003L41.2491 11.0567ZM43.4525 12.2057L43.4693 12.0064L41.5561 11.8453L41.5393 12.0446L43.4525 12.2057ZM41.5789 11.5742L43.4921 11.7353L43.5086 11.54L41.5953 11.3789L41.5789 11.5742ZM40.9799 12.443L41.3402 12.5496C41.222 12.8568 41.0716 13.1171 40.8888 13.3345L40.579 13.1037C40.7566 12.9019 40.8873 12.6841 40.9799 12.443ZM42.9371 13.5592L41.9646 13.4773C41.6577 13.4515 41.5179 13.2992 41.5408 13.0281L41.5837 12.518L41.9664 12.5502L41.9301 12.9807C41.9217 13.0803 41.9772 13.1372 42.1007 13.1476L42.8939 13.2143C42.9657 13.2204 43.0188 13.2088 43.0491 13.1833C43.0919 13.1507 43.1286 13.0495 43.1593 12.8754L43.5083 13.0212C43.4529 13.2975 43.3827 13.4642 43.2903 13.5127C43.2105 13.5541 43.0926 13.5723 42.9371 13.5592ZM42.5661 12.4361C42.7121 12.609 42.8199 12.7585 42.8932 12.8891L42.5598 13.0818C42.4792 12.9426 42.3681 12.7847 42.2261 12.6122L42.5661 12.4361ZM43.8026 12.6245C44 12.9021 44.1483 13.1433 44.2478 13.3444L43.9144 13.5371C43.809 13.3115 43.6654 13.0625 43.4796 12.79L43.8026 12.6245Z" fill="white"/>
<path d="M45.603 10.2026C45.8421 10.4153 46.0371 10.6282 46.1965 10.8342L45.9155 11.0756C45.7796 10.8757 45.581 10.6584 45.3232 10.4282L45.603 10.2026ZM44.998 11.2961L45.8909 11.3706L45.7502 13.0568C45.8824 12.9634 46.0239 12.8548 46.1787 12.7313L46.2491 13.1385C45.9701 13.3561 45.6771 13.5484 45.3704 13.7115L45.2555 13.3567C45.324 13.3062 45.3658 13.2374 45.3728 13.1537L45.4939 11.7028L44.9677 11.6589L44.998 11.2961ZM46.3814 11.8892L48.3147 12.0505L48.2858 12.3973C48.1406 12.7424 47.924 13.0294 47.6356 13.2622C47.8768 13.4509 48.1751 13.6283 48.5232 13.7858L48.2926 14.0957C47.9073 13.903 47.5918 13.6921 47.3373 13.4701C47.0078 13.6674 46.6062 13.8145 46.1404 13.9122L45.9558 13.5756C46.3886 13.4873 46.7563 13.3615 47.0593 13.1941C46.8102 12.9084 46.6471 12.6017 46.5781 12.2749L46.3508 12.2559L46.3814 11.8892ZM46.9328 12.3045C47.0042 12.5553 47.1414 12.7875 47.348 13.0054C47.5795 12.828 47.7652 12.6228 47.9015 12.3853L46.9328 12.3045ZM46.7888 10.3738L48.1999 10.4915L48.1301 11.3286C48.1228 11.4163 48.1666 11.4681 48.2663 11.4765L48.6171 11.5057L48.5881 11.8525L48.1377 11.8149C47.8547 11.7913 47.7265 11.6442 47.7484 11.3811L47.7956 10.815L47.1339 10.7598L47.124 10.8794C47.0894 11.294 46.8512 11.5992 46.4137 11.7915L46.1868 11.4796C46.5343 11.3561 46.7233 11.1591 46.7459 10.888L46.7888 10.3738Z" fill="white"/>
<path d="M50.2157 11.6979L51.2602 11.7837L51.3562 10.6157L51.7468 10.6478L51.6509 11.8158L52.6395 11.8971L52.6087 12.2718L51.6201 12.1906L51.4435 14.3393L51.0528 14.3072L51.2294 12.1585L50.1849 12.0726L50.2157 11.6979ZM49.5832 10.5061C49.8262 10.7227 50.0295 10.9361 50.1925 11.1502L49.9117 11.392C49.7677 11.1915 49.5648 10.9742 49.2988 10.7436L49.5832 10.5061ZM48.9619 11.619L49.8828 11.6946L49.7433 13.3929C49.8794 13.2997 50.0208 13.191 50.1711 13.0709L50.239 13.4657C49.9642 13.684 49.6714 13.8766 49.365 14.0401L49.2493 13.6895C49.3217 13.6392 49.3632 13.5744 49.3697 13.4947L49.4903 12.0276L48.9321 11.9817L48.9619 11.619Z" fill="white"/>
<path d="M53.1406 11.954L54.261 12.044C54.3037 11.911 54.3502 11.7823 54.393 11.6493L53.444 11.5731L53.4725 11.2182L54.5012 11.3008C54.5453 11.1519 54.5857 10.9986 54.6297 10.8497L55.0179 10.9129C54.9782 11.0582 54.9387 11.1995 54.9039 11.3332L56.5706 11.467L56.5421 11.8218L54.7997 11.6819C54.7566 11.8189 54.7138 11.9519 54.6716 12.077L56.745 12.2434L56.7158 12.6063L54.5428 12.4318C54.4822 12.5874 54.4265 12.7314 54.3674 12.8671L56.2135 13.0154L56.1872 13.3423C55.9821 13.5987 55.6772 13.8471 55.2723 14.0915C55.4813 14.1885 55.6819 14.2889 55.8742 14.3926L55.6406 14.7029C55.0689 14.3761 54.4768 14.1039 53.8676 13.8944L54.0907 13.6154C54.364 13.7096 54.6251 13.8068 54.8732 13.915C55.2294 13.7269 55.5138 13.533 55.7271 13.3254L53.7973 13.1705C53.9135 12.923 54.0223 12.6669 54.1282 12.3985L53.1114 12.3169L53.1406 11.954Z" fill="white"/>
<path d="M58.3023 11.2097L58.6812 11.2392L58.4373 14.3737L58.9159 14.411L59.1597 11.2764L59.5386 11.3059L59.2947 14.4404L60.4592 14.531L60.4303 14.9019L56.8731 14.6252L56.9019 14.2543L58.0584 14.3443L58.3023 11.2097ZM60.2266 12.1057L60.5541 12.2274C60.3492 12.9016 60.1073 13.4846 59.828 13.9804L59.4983 13.8344C59.7576 13.3892 60.0033 12.8105 60.2266 12.1057ZM57.4915 11.8849C57.6533 12.4351 57.7853 13.0592 57.8915 13.7575L57.5377 13.8183C57.4508 13.1816 57.3225 12.5618 57.1604 11.9634L57.4915 11.8849Z" fill="white"/>
<path d="M61.1705 11.5368L62.778 11.6565L62.7519 12.0076L62.5604 11.9933L62.405 14.0795C62.4866 14.0615 62.5685 14.0395 62.65 14.0216L62.6227 14.3885C62.5411 14.4065 62.4599 14.4205 62.3783 14.4385L62.3222 15.1924L61.9552 15.1651L62.0039 14.5109C61.6788 14.5669 61.3384 14.6138 60.9866 14.6518L60.9219 14.2819L61.1921 14.262L61.3677 11.9045L61.1443 11.8878L61.1705 11.5368ZM61.5559 14.2249C61.7138 14.2045 61.8721 14.1802 62.0306 14.1519L62.0684 13.6453L61.6016 13.6106L61.5559 14.2249ZM61.6272 13.2675L62.0939 13.3023L62.1304 12.8116L61.6637 12.7769L61.6272 13.2675ZM61.6893 12.4338L62.156 12.4686L62.1934 11.966L61.7267 11.9312L61.6893 12.4338ZM62.9245 11.7356L64.6557 11.8645L64.5105 13.8151L62.7793 13.6862L62.9245 11.7356ZM64.166 13.4325L64.258 12.1959L63.2688 12.1223L63.1767 13.3588L64.166 13.4325ZM63.1283 13.9007L63.4432 14.0886C63.2372 14.5386 63.0044 14.9183 62.7481 15.2362L62.4499 14.9854C62.7044 14.6914 62.9281 14.3271 63.1283 13.9007ZM64.0945 13.9607C64.3334 14.4157 64.5126 14.8101 64.6361 15.1441L64.3044 15.3441C64.1832 14.9781 64.0089 14.572 63.7857 14.1222L64.0945 13.9607Z" fill="white"/>
<path d="M65.0068 12.7531L65.5574 12.7918L65.5911 12.313C65.4381 12.3223 65.2813 12.3273 65.1206 12.332L65.0698 11.9716C65.5674 11.9665 66.0119 11.9176 66.4034 11.8249L66.5098 12.1932C66.3348 12.229 66.1525 12.2563 65.9584 12.2787L65.9205 12.8174L66.3594 12.8483L66.3338 13.2114L65.8949 13.1805L65.8826 13.3561C66.0549 13.5286 66.2301 13.7174 66.4078 13.9264L66.1699 14.2304C66.0488 14.0134 65.9449 13.8376 65.8581 13.7032L65.7371 15.4229L65.3739 15.3974L65.4922 13.7175C65.3404 14.0517 65.1586 14.3557 64.9391 14.6249L64.8013 14.1902C65.1031 13.8906 65.3279 13.5456 65.484 13.1516L64.9812 13.1162L65.0068 12.7531ZM67.102 15.515L66.7229 15.4883L66.6647 15.1193C66.7793 15.1434 66.8904 15.1593 66.9942 15.1666C67.0819 15.1728 67.1335 15.1243 67.1402 15.0285L67.2798 13.0454L67.6629 13.0724L67.5165 15.1512C67.4983 15.4106 67.3573 15.533 67.102 15.515ZM66.6899 13.5653L67.032 13.6615C66.8831 14.1804 66.6952 14.6283 66.4608 14.9967L66.1482 14.7662C66.3866 14.398 66.5672 13.9977 66.6899 13.5653ZM68.1448 13.6316C68.2906 14.0669 68.4142 14.5328 68.5082 15.0206L68.1461 15.1515C68.0475 14.6152 67.9327 14.138 67.7978 13.7195L68.1448 13.6316ZM67.0937 12.7276C66.9651 12.9591 66.818 13.1693 66.6443 13.3576L66.43 13.0417C66.7175 12.7171 66.9223 12.3145 67.0489 11.8262L67.4169 11.8962C67.3729 12.0655 67.3175 12.226 67.2589 12.3743L68.5517 12.4653L68.5346 12.7087C68.4722 12.969 68.3935 13.2321 68.3031 13.4904L67.9436 13.3568C68.0192 13.1937 68.0843 13.0098 68.1471 12.8017L67.0937 12.7276Z" fill="white"/>
<path d="M70.4545 12.2229L72.6419 12.3658L72.6187 12.7211L71.7046 12.6614L71.6118 14.0823L72.6456 14.1499L72.6221 14.5091L71.5883 14.4416L71.4976 15.8306L71.1303 15.8066L71.2211 14.4176L70.2033 14.3511L70.2267 13.9918L71.2446 14.0583L71.3374 12.6374L70.4313 12.5782L70.4545 12.2229ZM72.1934 12.8496L72.5189 12.9591C72.4141 13.337 72.2884 13.6656 72.1419 13.9446L71.8299 13.812C71.9586 13.5598 72.0797 13.239 72.1934 12.8496ZM70.7873 12.7738C70.8801 13.0725 70.9539 13.414 71.017 13.799L70.6885 13.8577C70.635 13.5094 70.5566 13.1756 70.4572 12.8565L70.7873 12.7738ZM69.6127 12.0397C69.8594 12.2522 70.0661 12.4621 70.2327 12.6734L69.956 12.9199C69.8086 12.7219 69.6021 12.508 69.3323 12.2819L69.6127 12.0397ZM68.9982 13.162L69.9203 13.2222L69.8105 14.9026C69.9248 14.8099 70.0478 14.7057 70.1794 14.594L70.2571 15C70.0022 15.2198 69.7289 15.4144 69.4455 15.5803L69.3242 15.2276C69.3918 15.1759 69.4321 15.1104 69.4373 15.0306L69.5333 13.5617L68.9745 13.5252L68.9982 13.162Z" fill="white"/>
<path d="M73.3496 13.7841C73.2243 13.9369 73.0915 14.0813 72.9552 14.2174L72.8516 13.8026C73.25 13.3695 73.5571 12.8548 73.7689 12.2583L74.1143 12.4471C74.019 12.7019 73.9044 12.9435 73.7704 13.176L73.6059 15.9431L73.2226 15.9203L73.3496 13.7841ZM75.5009 13.7918L75.8683 13.8136L75.7351 16.0537L75.3677 16.0318L75.5009 13.7918ZM74.494 13.7439L74.8613 13.7658L74.8262 14.3567C74.7724 15.1269 74.5432 15.6783 74.1388 16.0109L73.87 15.7464C74.2152 15.4664 74.4114 14.9973 74.4588 14.3349L74.494 13.7439ZM75.0804 12.3723L75.4278 12.393C75.6405 12.9266 76.0329 13.4027 76.6006 13.8291L76.3698 14.14C75.8481 13.7483 75.4669 13.2849 75.2305 12.7459C74.8922 13.3148 74.4778 13.747 73.9916 14.0386L73.7992 13.7026C74.3397 13.3741 74.7667 12.9307 75.0804 12.3723Z" fill="white"/>
<path d="M78.3126 14.4898L77.969 14.4716L77.9878 14.1161L79.0464 14.172L79.0276 14.5275L78.6841 14.5094L78.6321 15.492C78.7938 15.4645 78.9557 15.433 79.1138 15.3973L79.095 15.7528C78.7424 15.8303 78.3665 15.8946 77.9675 15.9416L77.8948 15.5732C78.0155 15.5636 78.1362 15.5539 78.2571 15.5403L78.3126 14.4898ZM79.7805 16.2737C79.6367 16.2661 79.5106 16.1513 79.4097 15.9377C79.2952 15.6793 79.2208 15.3429 79.1864 14.9325C79.1571 14.5784 79.1477 14.1494 79.1587 13.6372L77.9245 13.572L77.9439 13.2045L79.1702 13.2693C79.174 13.0452 79.1864 12.8095 79.1991 12.5699L79.5666 12.5893C79.5535 12.8369 79.5413 13.0686 79.5376 13.2887L80.3006 13.329L80.2812 13.6965L79.5262 13.6566C79.5099 14.2686 79.5239 14.7621 79.5604 15.1325C79.6162 15.5921 79.6956 15.8326 79.8024 15.8583C79.8668 15.8537 79.9431 15.6214 80.0391 15.1698L80.3258 15.4293C80.1514 16.0009 79.9722 16.2838 79.7805 16.2737ZM79.9023 12.603C80.0604 12.7956 80.1796 12.9662 80.2683 13.107L79.9949 13.2768C79.9071 13.12 79.7841 12.9453 79.634 12.7531L79.9023 12.603ZM77.2715 12.5121C77.5088 12.7209 77.7062 12.9276 77.8634 13.1362L77.5898 13.3861C77.4479 13.1903 77.2468 12.9794 76.9941 12.7578L77.2715 12.5121ZM76.671 13.642L77.5698 13.6895L77.4828 15.3352C77.5795 15.2481 77.6807 15.1533 77.7864 15.0468L77.8652 15.4515C77.6288 15.6793 77.382 15.8786 77.1206 16.049L76.9948 15.7019C77.0616 15.6494 77.101 15.5874 77.105 15.5115L77.1831 14.0335L76.6518 14.0055L76.671 13.642Z" fill="white"/>
<path d="M82.3086 12.9588L84.2586 13.0468L84.2418 13.4184L82.2918 13.3304L82.3086 12.9588ZM82.1635 13.9532L84.3853 14.0536L84.3685 14.4252L83.7451 14.397L83.6686 16.0913C83.6571 16.347 83.5075 16.4684 83.2237 16.4556L82.6443 16.4294L82.5772 16.054C82.7603 16.0783 82.9397 16.0944 83.1076 16.102C83.2235 16.1072 83.2854 16.066 83.2892 15.9821L83.3615 14.3797L82.1468 14.3249L82.1635 13.9532ZM81.6381 12.7323L81.9785 12.9078C81.7429 13.3376 81.3656 13.713 80.8382 14.0415L80.7395 13.6567C81.1395 13.3985 81.4377 13.0916 81.6381 12.7323ZM81.7846 13.6558L82.121 13.8312C82.0034 14.0421 81.8583 14.2398 81.6858 14.4242L81.5967 16.3982L81.2251 16.3814L81.2974 14.779C81.148 14.8964 80.9907 15.0094 80.8176 15.1177L80.7227 14.737C81.1927 14.4379 81.5493 14.0777 81.7846 13.6558Z" fill="white"/>
<path d="M85.2102 14.2953L85.5411 14.4396C85.3917 14.9104 85.2064 15.2678 84.9811 15.5157L84.7064 15.2574C84.9234 15.0172 85.0912 14.6992 85.2102 14.2953ZM86.0899 12.9067L86.4736 12.9209L86.4463 13.6644L87.7094 13.7109C87.6911 13.9904 87.6775 14.2501 87.6607 14.4896L87.9292 14.3714C88.0998 14.738 88.2651 15.1403 88.421 15.5824L88.067 15.7374C87.9376 15.3404 87.7949 14.9749 87.6468 14.6492C87.6199 14.9444 87.5942 15.2077 87.57 15.4309C87.5141 15.8612 87.435 16.1625 87.3365 16.335C87.2384 16.4995 87.0873 16.5819 86.8828 16.5904L86.4151 16.5732L86.3248 16.2016C86.4604 16.2146 86.5881 16.2233 86.7081 16.2277C86.9039 16.235 87.0408 16.1039 87.1185 15.8426C87.1928 15.5651 87.2547 14.971 87.3081 14.0644L86.4167 14.0315C86.3533 14.6656 86.2223 15.1811 86.0235 15.5781C85.7996 16.0061 85.4435 16.3293 84.959 16.5516L84.7633 16.2121C85.2283 15.9771 85.5519 15.6688 85.7339 15.2912C85.8826 14.9485 85.9823 14.5239 86.033 14.0174L85.0816 13.9823L85.0952 13.6146L86.0625 13.6502L86.0899 12.9067Z" fill="white"/>
<path d="M90.9346 13.0622L91.3184 13.073L91.3015 13.6767L92.2971 13.7046L92.2868 14.0725L91.2912 14.0446L91.2727 14.7043L92.3763 14.7353L92.366 15.1031L91.0665 15.0667C90.8235 15.5961 90.6125 15.9863 90.4294 16.2373C90.8706 16.2017 91.3084 16.1419 91.7427 16.066C91.6448 15.8472 91.5425 15.6443 91.4397 15.4573L91.8109 15.3477C92.0356 15.7541 92.2316 16.1838 92.3948 16.6445L92.0305 16.7944C91.9823 16.657 91.934 16.5236 91.8854 16.4022C91.2864 16.5014 90.636 16.5752 89.9343 16.6276L89.8556 16.2933C89.888 16.2822 89.9163 16.2709 89.9366 16.2595C90.1169 16.1085 90.3563 15.707 90.6546 15.0552L89.771 15.0304L89.7813 14.6625L90.8889 14.6936L90.9074 14.0338L89.9917 14.0082L90.002 13.6403L90.9177 13.666L90.9346 13.0622ZM89.1984 13.0456C89.4487 13.2527 89.6591 13.4546 89.8335 13.6556L89.5539 13.9239C89.4072 13.7317 89.1929 13.5256 88.9151 13.3017L89.1984 13.0456ZM89.0722 13.9784C89.3025 14.1849 89.4968 14.3905 89.6591 14.5951L89.3756 14.8592C89.2409 14.6674 89.0467 14.4579 88.7929 14.2347L89.0722 13.9784ZM89.4284 15.1168L89.7684 15.2664C89.5824 15.7614 89.3773 16.2278 89.1569 16.6658L88.7818 16.4872C89.0264 16.0419 89.2433 15.5838 89.4284 15.1168Z" fill="white"/>
<path d="M93.3392 13.0885L94.1318 14.9718L93.2687 16.8238L92.9515 16.6738L93.7479 14.9645L93.0166 13.2264L93.3392 13.0885Z" fill="white"/>
<path d="M98.0922 13.854L98.0644 16.6378L97.7004 16.6342L97.7025 16.4262L97.0705 16.4199L97.0673 16.7439L96.7033 16.7402L96.7323 13.8404L97.1123 13.8442C97.1864 13.6289 97.2446 13.4095 97.2789 13.1778L97.6584 13.2336C97.6162 13.4532 97.5542 13.6566 97.4763 13.8478L98.0922 13.854ZM97.0741 16.0679L97.706 16.0742L97.7139 15.2862L97.0819 15.2799L97.0741 16.0679ZM97.0853 14.94L97.7173 14.9463L97.7247 14.2103L97.0927 14.204L97.0853 14.94ZM98.8026 14.8211C99.0633 15.1517 99.2645 15.4377 99.402 15.6871L99.0999 15.8961C98.9505 15.6306 98.7455 15.3366 98.4927 15.01L98.8026 14.8211ZM100.156 13.8786C100.142 15.2585 100.114 16.1103 100.071 16.4299C100.028 16.7174 99.8343 16.8595 99.4943 16.8561C99.4143 16.8553 99.2704 16.8459 99.0705 16.8319L98.982 16.483C99.1579 16.4927 99.3098 16.5023 99.4378 16.5035C99.5978 16.5051 99.6907 16.4221 99.7163 16.2543C99.7423 16.0546 99.761 15.3827 99.7804 14.2428L98.7765 14.2328C98.6621 14.4717 98.5319 14.6904 98.3779 14.8889L98.1529 14.5866C98.4207 14.2053 98.6094 13.7391 98.7109 13.1881L99.0864 13.2399C99.0442 13.4634 98.9861 13.6709 98.9201 13.8662L100.156 13.8786Z" fill="white"/>
<path d="M101.256 13.2601C101.528 13.4723 101.756 13.6844 101.939 13.8925L101.671 14.1564C101.511 13.9563 101.288 13.7401 100.996 13.5079L101.256 13.2601ZM103.553 16.8456C103.333 16.8455 103.094 16.8413 102.838 16.8371C102.578 16.833 102.366 16.8088 102.198 16.7687C102.038 16.7206 101.898 16.6245 101.778 16.4884C101.722 16.4204 101.674 16.3884 101.626 16.3883C101.542 16.3883 101.398 16.5682 101.193 16.9281L100.914 16.6679C101.114 16.344 101.294 16.1401 101.454 16.0602L101.455 14.9282L100.919 14.9279L100.919 14.5759L101.811 14.5765L101.81 16.0885C101.83 16.1045 101.85 16.1245 101.87 16.1485C101.962 16.2566 102.058 16.3366 102.158 16.3887C102.278 16.4448 102.454 16.4809 102.69 16.489C102.918 16.4932 103.186 16.4974 103.498 16.4976C103.694 16.4977 103.894 16.4938 104.094 16.4899C104.294 16.4861 104.45 16.4782 104.558 16.4702L104.465 16.8462L103.553 16.8456ZM102.864 13.6571L102.092 13.6566L102.092 13.3406L104.288 13.3421L104.288 13.6101C104.055 13.8099 103.807 13.9778 103.543 14.1216C103.551 14.1296 103.559 14.1336 103.567 14.1416L104.371 14.1421L104.37 15.9181C104.37 16.1541 104.238 16.274 103.978 16.2739L103.67 16.2737L103.59 15.9576L103.874 15.9738C103.962 15.9739 104.01 15.9299 104.01 15.8419L104.01 15.6379L103.434 15.6375L103.434 16.2935L103.086 16.2933L103.086 15.6373L102.522 15.6369L102.522 16.3009L102.162 16.3007L102.163 14.1407L103.083 14.1413C102.951 14.0532 102.803 13.9611 102.639 13.873L102.864 13.6571ZM103.311 13.9414C103.479 13.8575 103.635 13.7616 103.78 13.6577L102.884 13.6572C103.035 13.7533 103.179 13.8453 103.311 13.9414ZM102.523 15.0489L102.522 15.3289L103.086 15.3293L103.087 15.0493L102.523 15.0489ZM103.435 15.0495L103.434 15.3295L104.01 15.3299L104.011 15.0499L103.435 15.0495ZM104.011 14.7379L104.011 14.4579L103.435 14.4575L103.435 14.7375L104.011 14.7379ZM103.087 14.7373L103.087 14.4573L102.523 14.4569L102.523 14.7369L103.087 14.7373Z" fill="white"/>
<path d="M108.456 13.5844L108.481 16.7043L108.113 16.7073L108.111 16.4793L107.411 16.485L107.413 16.717L107.045 16.72L107.02 13.5961L108.456 13.5844ZM107.408 16.129L108.108 16.1233L108.091 13.9434L107.391 13.9491L107.408 16.129ZM105.588 14.0837C105.497 14.2845 105.395 14.4693 105.284 14.6382L104.951 14.4289C105.203 14.0508 105.384 13.6454 105.489 13.2125L105.865 13.2894C105.827 13.4418 105.78 13.5821 105.733 13.7185L106.825 13.7096L106.828 14.0736L106.284 14.0781C106.278 14.3261 106.268 14.5582 106.245 14.7704L106.869 14.7653L106.872 15.1293L106.196 15.1348C106.181 15.2229 106.162 15.3111 106.146 15.3912C106.392 15.6372 106.643 15.9112 106.901 16.2131L106.672 16.567C106.421 16.217 106.211 15.9427 106.041 15.7441C105.877 16.1654 105.596 16.5237 105.19 16.815L104.94 16.5131C105.353 16.2017 105.622 15.8235 105.75 15.3744C105.766 15.2983 105.785 15.2182 105.8 15.138L105.012 15.1444L105.009 14.7804L105.853 14.7736C105.876 14.5614 105.886 14.3293 105.892 14.0812L105.588 14.0837Z" fill="white"/>
<path d="M109.153 13.155L110.011 15.0093L109.214 16.8905L108.892 16.7517L109.628 15.0155L108.836 13.3042L109.153 13.155ZM109.837 13.1439L110.695 14.9982L109.898 16.8794L109.576 16.7406L110.311 15.0044L109.503 13.2933L109.837 13.1439Z" fill="white"/>
</svg>
