<svg width="53" height="9" viewBox="0 0 53 9" fill="none" xmlns="http://www.w3.org/2000/svg">
<path d="M6.69699 2.79631L7.06091 2.94032L6.33056 4.67744L7.13537 6.36365L6.79568 6.531L5.91879 4.6911L6.69699 2.79631ZM7.39261 2.77324L7.74054 2.91778L7.02618 4.65437L7.83099 6.34058L7.4913 6.50793L6.61441 4.66803L7.39261 2.77324ZM9.75917 3.29507L8.85566 3.32503L8.88197 4.32068L9.78548 4.29072L9.75917 3.29507ZM10.2092 4.27666L11.1087 4.24683L11.0824 3.25118L10.1829 3.28101L10.2092 4.27666ZM11.4836 2.83766L11.531 4.62904L8.89243 4.71654L8.91896 5.72019C8.92244 5.85215 8.9962 5.91774 9.14812 5.9127L11.211 5.84429C11.3067 5.83311 11.3654 5.78313 11.3951 5.6941C11.4214 5.6292 11.4439 5.42034 11.4625 5.06754L11.8697 5.1821C11.8462 5.50305 11.8161 5.72817 11.7837 5.86531C11.7258 6.09535 11.585 6.22008 11.3615 6.23951L8.98678 6.31826C8.66695 6.32887 8.50723 6.19009 8.49963 5.90219L8.42133 2.93922L11.4836 2.83766ZM12.1741 2.77074L15.7801 2.65115L15.7909 3.05901L14.6195 3.09785L14.6322 3.57769L15.5957 3.54573L15.666 6.2048L15.2462 6.21873L15.2423 6.07078L12.8996 6.14847L12.9035 6.29642L12.4837 6.31034L12.4134 3.65127L13.3529 3.62011L13.3402 3.14028L12.1849 3.1786L12.1741 2.77074ZM12.8892 5.75661L15.2319 5.67891L15.2176 5.1351L14.7018 5.15221C14.406 5.16202 14.258 5.01085 14.2499 4.70695L14.2308 3.98321L13.7751 3.99832L13.7756 4.01831C13.7847 4.66635 13.5773 5.14548 13.1613 5.45543L12.8751 5.2208L12.8892 5.75661ZM13.752 3.12662L13.7647 3.60646L14.2204 3.59134L14.2078 3.11151L13.752 3.12662ZM12.873 5.14482C13.2066 4.89764 13.3689 4.52806 13.3638 4.03197L13.3633 4.01198L12.8436 4.02921L12.873 5.14482ZM14.6426 3.96955L14.659 4.58933C14.6621 4.70929 14.7158 4.77155 14.8197 4.7681L15.2075 4.75524L15.1863 3.95152L14.6426 3.96955ZM16.6615 2.54187C16.9225 2.72532 17.1434 2.9101 17.3244 3.09619L17.0481 3.39351C16.8874 3.21474 16.6662 3.02197 16.3849 2.82319L16.6615 2.54187ZM16.1598 3.69511L17.0833 3.66448L17.1272 5.32391C17.2404 5.2161 17.3613 5.10003 17.49 4.97169L17.6175 5.4077C17.36 5.65636 17.0858 5.87757 16.795 6.07931L16.6252 5.70875C16.6915 5.64652 16.7255 5.56935 16.7232 5.48138L16.6861 4.07787L16.1704 4.09497L16.1598 3.69511ZM17.6037 4.12748L19.5546 4.06278L19.5647 4.44264C19.4618 4.79024 19.2859 5.09623 19.0367 5.35663C19.2887 5.50835 19.5923 5.63836 19.9514 5.75052L19.737 6.11782C19.341 5.97086 19.0045 5.80593 18.7355 5.61875C18.4295 5.84901 18.0543 6.03755 17.6021 6.18462L17.3609 5.84043C17.7695 5.70682 18.1133 5.54333 18.3963 5.34985C18.1336 5.10243 17.9463 4.82849 17.8422 4.51978L17.6143 4.52734L17.6037 4.12748ZM18.2339 4.50679C18.3279 4.73179 18.4773 4.93495 18.6901 5.11199C18.8891 4.92129 19.0396 4.71219 19.1454 4.47656L18.2339 4.50679ZM17.8347 2.571L19.2739 2.52327L19.2958 3.35098C19.2981 3.43895 19.3473 3.48534 19.4473 3.48203L19.7911 3.47063L19.8011 3.8505L19.3454 3.86561C19.0455 3.87555 18.8939 3.74051 18.8865 3.46061L18.8725 2.92879L18.2568 2.94921L18.2597 3.05717C18.2706 3.47303 18.0633 3.80407 17.6455 4.04205L17.3572 3.73144C17.6893 3.58035 17.8559 3.37472 17.849 3.11481L17.8347 2.571ZM21.416 3.48477L22.4474 3.45057L22.4168 2.29097L22.8485 2.27665L22.8792 3.43625L23.8586 3.40376L23.8696 3.81962L22.8902 3.8521L22.9468 5.99535L22.515 6.00967L22.4584 3.86642L21.427 3.90063L21.416 3.48477ZM20.6826 2.3805C20.9396 2.56808 21.1607 2.75685 21.3456 2.94282L21.0655 3.24426C20.9087 3.06537 20.6837 2.87673 20.3943 2.67821L20.6826 2.3805ZM20.1574 3.55453L21.1089 3.52297L21.1531 5.19439C21.2664 5.09058 21.3873 4.97451 21.516 4.84618L21.6352 5.27045C21.3817 5.51898 21.1116 5.74405 20.8208 5.9458L20.651 5.57523C20.7213 5.51287 20.7554 5.4397 20.7532 5.35573L20.7157 3.93622L20.168 3.95439L20.1574 3.55453ZM25.6523 2.84001L25.7264 5.64303L25.3266 5.65629L25.3213 5.45636L24.7297 5.47598L24.738 5.79187L24.3382 5.80513L24.2611 2.88615L24.6449 2.87342C24.7112 2.65911 24.7574 2.43746 24.7834 2.20848L25.2046 2.25054C25.1663 2.46792 25.1118 2.67384 25.0447 2.86016L25.6523 2.84001ZM24.7195 5.09212L25.3112 5.07249L25.2912 4.31676L24.6995 4.33638L24.7195 5.09212ZM24.6897 3.96451L25.2814 3.94489L25.2629 3.24513L24.6712 3.26476L24.6897 3.96451ZM26.4056 3.78754C26.67 4.10294 26.8734 4.38035 27.0199 4.62362L26.6902 4.86668C26.5353 4.60767 26.3277 4.3224 26.0714 4.01074L26.4056 3.78754ZM27.7112 2.77173C27.7482 4.17124 27.751 5.0356 27.7197 5.36481C27.6871 5.64604 27.4989 5.79236 27.1551 5.80376C27.0752 5.80641 26.931 5.80319 26.7227 5.79409L26.6127 5.41753C26.789 5.4237 26.9451 5.42652 27.077 5.42215C27.2209 5.41737 27.3028 5.33462 27.3226 5.17788C27.3415 4.98515 27.3361 4.32498 27.3142 3.19311L26.3467 3.2252C26.2451 3.46869 26.1229 3.68886 25.9801 3.8857L25.7194 3.56217C25.9734 3.17755 26.137 2.70788 26.2185 2.15688L26.6316 2.19521C26.5973 2.41246 26.5508 2.61811 26.4959 2.81203L27.7112 2.77173ZM30.6738 2.98564L30.9878 3.20735C30.7104 3.61276 30.2981 3.91058 29.7471 4.10495L29.5736 3.74651C30.0654 3.58212 30.4348 3.32974 30.6738 2.98564ZM31.1388 3.47048L31.4488 3.69632C31.1026 4.22008 30.5726 4.60585 29.8589 4.85364L29.6771 4.48347C30.3314 4.26166 30.8187 3.92533 31.1388 3.47048ZM31.5689 4.0005L31.9034 4.24154C31.4257 4.94175 30.7111 5.4577 29.7517 5.79368L29.5611 5.39579C30.4615 5.09779 31.1294 4.6314 31.5689 4.0005ZM28.6783 2.11933C28.9352 2.30291 29.1563 2.49168 29.3412 2.67765L29.0611 2.97909C28.9043 2.80019 28.6793 2.61155 28.3939 2.41291L28.6783 2.11933ZM28.141 3.28975L29.0925 3.2582L29.1359 4.90163C29.2334 4.80634 29.3386 4.6988 29.4476 4.58313L29.5751 5.01513C29.3335 5.26327 29.0793 5.48381 28.8084 5.68089L28.6386 5.31033C28.7048 5.2441 28.7387 5.16293 28.7363 5.07096L28.6993 3.67145L28.1516 3.68961L28.141 3.28975ZM30.4203 2.02154L30.7201 2.01159C31.0608 2.48855 31.4548 2.86369 31.902 3.129L31.7077 3.49964C31.2726 3.23392 30.899 2.87812 30.5833 2.43635C30.307 2.88174 29.9331 3.27034 29.4658 3.60601L29.2522 3.2449C29.7236 2.9131 30.1129 2.50398 30.4203 2.02154ZM32.2203 2.15394L32.5841 2.14187L32.66 5.01287L33.9593 4.96978L33.9693 5.34965L32.3063 5.4048L32.2203 2.15394ZM32.7197 3.18193L33.2514 3.16429L33.2191 1.94472L33.6029 1.93199L33.6352 3.15157L34.1189 3.13552L34.1287 3.50739L33.645 3.52344L33.6466 3.58341C33.8266 3.73353 34.007 3.89963 34.192 4.0856L33.9769 4.42491C33.8517 4.22896 33.7473 4.06433 33.656 3.93929L33.6805 4.86697L33.2967 4.8797L33.2729 3.98001C33.1509 4.20817 33.0005 4.42127 32.8217 4.6193L32.6471 4.22088C32.9137 4.01193 33.1077 3.78538 33.2372 3.53696L32.7295 3.5538L32.7197 3.18193ZM33.8052 2.16541L34.138 2.19439C34.1219 2.49108 34.0768 2.75272 34.0028 2.98329L33.6925 2.89753C33.7587 2.67922 33.7964 2.43785 33.8052 2.16541ZM32.9746 2.22898C33.0403 2.44291 33.1027 2.68497 33.166 2.96302L32.8522 3.04946C32.7938 2.80727 32.7236 2.57348 32.6457 2.35194L32.9746 2.22898ZM34.6963 3.48457L34.7028 3.72848C34.7121 4.5366 34.6042 5.1485 34.3751 5.56431L34.0148 5.40417C34.2283 5.00488 34.3337 4.4491 34.327 3.74094L34.2851 2.1575C34.7883 2.1208 35.2138 2.01864 35.5574 1.85116L35.7664 2.18841C35.4342 2.3355 35.0686 2.43167 34.6656 2.47305L34.6857 3.08471L35.8571 3.04586L35.8677 3.44572L35.4999 3.45792L35.5557 5.56918L35.1559 5.58244L35.1001 3.47118L34.6963 3.48457ZM36.2342 2.62914L36.5547 2.64252C36.5572 3.04265 36.5233 3.42398 36.4609 3.78624L36.1225 3.70141C36.1936 3.36287 36.2322 3.00541 36.2342 2.62914ZM37.351 2.49205C37.4189 2.64188 37.4792 2.80396 37.5359 2.97818C37.6202 2.68723 37.6682 2.38548 37.6758 2.06506L38.0569 2.10444C38.0525 2.24066 38.0479 2.36888 38.0353 2.49737L38.4671 2.48305L38.4486 1.78329L38.8724 1.76924L38.8908 2.46899L39.7144 2.44168L39.7251 2.84554L38.9015 2.87285L38.924 3.72456L39.7116 3.69844L39.7224 4.10629L38.9348 4.13241L38.9563 4.94413L39.8877 4.91324L39.8984 5.3171L37.4478 5.39837L37.4371 4.99451L38.5325 4.95818L38.511 4.14647L37.6275 4.17577L37.6167 3.76791L38.5003 3.73861L38.4778 2.88691L37.966 2.90388C37.9013 3.17817 37.808 3.4334 37.6862 3.66956L37.3671 3.404C37.3897 3.35122 37.4124 3.30244 37.4351 3.25366L37.2802 3.29882C37.218 3.06476 37.1482 2.84296 37.0666 2.63355L37.1424 5.50055L36.7226 5.51447L36.6254 1.83575L37.0452 1.82183L37.0655 2.59356L37.351 2.49205ZM41.0532 3.89407L41.0621 4.22995L41.8297 4.2045L41.8208 3.86861L41.0532 3.89407ZM41.8397 4.58436L41.0721 4.60982L41.0776 4.81775L40.6698 4.83127L40.6166 2.81597L41.7919 2.77699L41.7833 2.44911L42.199 2.43532L42.2077 2.7632L43.3951 2.72383L43.448 4.72713L43.0402 4.74065L43.035 4.54472L42.2555 4.57057L42.2763 5.3583L41.8605 5.37209L41.8397 4.58436ZM42.2454 4.19071L43.025 4.16485L43.0161 3.82897L42.2365 3.85482L42.2454 4.19071ZM43.0065 3.4651L42.9974 3.12122L42.2178 3.14707L42.2269 3.49095L43.0065 3.4651ZM41.8021 3.16086L41.0345 3.18632L41.0436 3.5302L41.8112 3.50474L41.8021 3.16086ZM43.6762 1.85405L43.6967 2.62978L43.2889 2.6433L43.2784 2.24744L40.6559 2.33442L40.6669 2.75027L40.2591 2.7638L40.2381 1.96807L41.7212 1.91888C41.6871 1.83997 41.6492 1.76519 41.6113 1.69441L42.0531 1.60772C42.0874 1.69463 42.1221 1.79353 42.157 1.90443L43.6762 1.85405ZM44.7677 3.03449L47.2383 2.95255L47.2788 4.48402L44.8082 4.56596L44.7677 3.03449ZM46.8613 4.12967L46.8556 3.91375L45.2005 3.96864L45.2062 4.18456L46.8613 4.12967ZM45.1912 3.61676L46.8463 3.56187L46.8403 3.33395L45.1852 3.38884L45.1912 3.61676ZM44.3133 1.88895L45.7685 1.84069L45.7599 1.5168L46.1677 1.50328L46.1763 1.82716L47.6315 1.7789L47.6416 2.16277L46.5502 2.19896C46.852 2.41308 47.2765 2.57909 47.8318 2.69675L47.6618 3.07858C46.9882 2.8728 46.4966 2.59295 46.1872 2.23902L46.2038 2.8708L45.7961 2.88432L45.7794 2.25254C45.473 2.61889 45.005 2.93057 44.3756 3.18757L44.138 2.82725C44.7017 2.65648 45.1287 2.46222 45.4228 2.23635L44.3234 2.27282L44.3133 1.88895ZM44.3099 4.79059L47.776 4.67564L47.7861 5.0555L44.32 5.17046L44.3099 4.79059ZM48.538 1.40866L49.4149 3.24856L48.6367 5.14336L48.2887 4.99881L49.0031 3.26222L48.1983 1.57601L48.538 1.40866ZM49.2336 1.38559L50.1105 3.22549L49.3323 5.12029L48.9844 4.97574L49.6987 3.23915L48.8779 1.55347L49.2336 1.38559Z" fill="white"/>
<g clip-path="url(#clip0_251_4140)">
<path fill-rule="evenodd" clip-rule="evenodd" d="M0.807861 3.21259L4.78734 2.80793L5.192 6.78741L1.21252 7.19207L0.807861 3.21259Z" fill="#229E45"/>
<path fill-rule="evenodd" clip-rule="evenodd" d="M3.16001 6.15693L4.82819 4.81566L2.91297 3.83564L1.23843 5.18383L3.15923 6.15701L3.16001 6.15693Z" fill="#F8E509"/>
<path fill-rule="evenodd" clip-rule="evenodd" d="M3.8199 4.91662C3.83333 5.0175 3.82635 5.12005 3.79936 5.21818C3.77238 5.31631 3.72595 5.40801 3.66282 5.48784C3.5997 5.56767 3.52117 5.634 3.43191 5.68288C3.34265 5.73177 3.24447 5.76221 3.14321 5.7724C3.04195 5.78259 2.93967 5.77232 2.84246 5.74221C2.74525 5.71209 2.65508 5.66275 2.57731 5.5971C2.49955 5.53145 2.43577 5.45083 2.38977 5.36005C2.34378 5.26927 2.3165 5.17016 2.30956 5.06863C2.29611 4.8719 2.35971 4.67766 2.48691 4.52699C2.61411 4.37632 2.79493 4.28103 2.99112 4.26128C3.18731 4.24154 3.38349 4.29888 3.53817 4.42118C3.69284 4.54349 3.79387 4.72116 3.8199 4.91662Z" fill="#2B49A3"/>
<path fill-rule="evenodd" clip-rule="evenodd" d="M2.8617 5.47109L2.83696 5.45947L2.81413 5.47435L2.8168 5.4466L2.79618 5.42906L2.82229 5.42327L2.83219 5.39713L2.84646 5.42159L2.87336 5.42357L2.85505 5.44428M3.3815 5.5478L3.35676 5.53618L3.33316 5.55115L3.33583 5.52339L3.3152 5.50585L3.34209 5.49998L3.35199 5.47384L3.36548 5.49839L3.39238 5.50036L3.37485 5.52099M3.14223 5.36482L3.12084 5.35521L3.10088 5.36745L3.10317 5.34366L3.08589 5.32814L3.10819 5.32352L3.11694 5.30143L3.12848 5.32224L3.15219 5.32376L3.13667 5.34104M3.64615 5.23897L3.62476 5.22937L3.60557 5.24153L3.60795 5.21852L3.59074 5.20377L3.61297 5.19837L3.62101 5.17714L3.63325 5.19709L3.65619 5.19869L3.64067 5.21597M3.10983 5.13881L3.08509 5.12719L3.06226 5.14208L3.06493 5.11432L3.0443 5.09679L3.07041 5.09099L3.0804 5.06563L3.09459 5.08932L3.12149 5.09129L3.10317 5.112M2.46269 4.96825L2.43795 4.95663L2.4159 4.97143L2.41779 4.94376L2.39716 4.92622L2.42405 4.92035L2.43396 4.89421L2.44745 4.91875L2.47435 4.92073L2.45681 4.94136M2.5697 5.27148L2.54504 5.26064L2.52213 5.27474L2.52488 5.24776L2.50417 5.22945L2.53028 5.22366L2.54035 5.19908L2.55445 5.22198L2.58143 5.22474L2.56304 5.24467M3.3044 4.76643L3.28301 4.75683L3.26227 4.76915L3.26457 4.74536L3.2472 4.72906L3.27028 4.72436L3.27895 4.70149L3.29135 4.723L3.31506 4.72452L3.29884 4.74266M3.28306 4.97356L3.26338 4.96536L3.24785 4.97479L3.24906 4.95582L3.23528 4.94387L3.2537 4.93964L3.26051 4.92167L3.2701 4.93876L3.28907 4.93997L3.27634 4.95383M2.46424 5.33874L2.44775 5.33099L2.43222 5.34043L2.43351 5.32223L2.41973 5.31029L2.43822 5.30683L2.44442 5.2905L2.45377 5.30525L2.47204 5.30732L2.46009 5.3211M3.65525 5.28988L3.64141 5.285L3.62875 5.29179L3.63051 5.27826L3.61938 5.26918L3.63399 5.26612L3.6398 5.25375L3.6465 5.26564L3.66151 5.26647L3.65158 5.2769" fill="#FFFFEF"/>
<path fill-rule="evenodd" clip-rule="evenodd" d="M2.46514 5.33944L2.44864 5.33169L2.43311 5.34112L2.43518 5.32285L2.42062 5.31098L2.43834 5.30761L2.44531 5.2912L2.45466 5.30595L2.47294 5.30802L2.46099 5.3218" fill="#FFFFEF"/>
<path fill-rule="evenodd" clip-rule="evenodd" d="M2.4651 5.33944L2.44861 5.33169L2.43308 5.34112L2.43515 5.32285L2.42059 5.31098L2.43831 5.30761L2.44528 5.2912L2.45463 5.30595L2.4729 5.30802L2.46095 5.3218M2.71304 5.31423L2.69655 5.30648L2.6818 5.31583L2.68309 5.29764L2.66931 5.28569L2.68703 5.28232L2.69314 5.26521L2.70257 5.28074L2.72084 5.28281L2.70889 5.29659M2.69041 5.40055L2.67392 5.39281L2.65916 5.40216L2.66045 5.38397L2.64668 5.37202L2.66431 5.36787L2.67051 5.35153L2.67986 5.36629L2.69813 5.36836L2.68618 5.38214M3.19117 5.19729L3.17467 5.18954L3.15914 5.19897L3.16043 5.18078L3.14665 5.16883L3.16437 5.16546L3.17126 5.14827L3.18069 5.1638L3.19811 5.16517L3.18616 5.17895M3.03961 5.2127L3.02311 5.20495L3.00758 5.21439L3.00965 5.19611L2.99587 5.18417L3.01359 5.18079L3.0197 5.16368L3.02913 5.17921L3.04733 5.1805L3.03538 5.19428M2.62385 5.20158L2.61397 5.19709L2.60434 5.20278L2.60471 5.19096L2.59614 5.18398L2.60764 5.18124L2.61206 5.17058L2.61705 5.18107L2.62887 5.18144L2.62188 5.19M3.64262 5.35869L3.62621 5.35173L3.61068 5.36116L3.61275 5.34289L3.59897 5.33094L3.61661 5.32679L3.6228 5.31045L3.63215 5.32521L3.65042 5.32728L3.63848 5.34106M3.51759 5.3879L3.50437 5.38139L3.49194 5.39051L3.49347 5.37465L3.48149 5.36487L3.49687 5.36174L3.50175 5.34789L3.50931 5.36047L3.52517 5.362L3.51454 5.37329M3.57814 5.38096L3.56491 5.37445L3.55319 5.38271L3.5541 5.36848L3.54374 5.35933L3.55758 5.35635L3.56253 5.34328L3.56923 5.35516L3.58346 5.35607L3.57439 5.3672M3.73318 5.21442L3.72081 5.20861L3.70901 5.21609L3.71077 5.20256L3.70042 5.19341L3.71347 5.19051L3.71851 5.17822L3.72521 5.1901L3.73866 5.19109L3.72951 5.20144M3.52691 5.47176L3.51049 5.46479L3.49574 5.47415L3.49789 5.45665L3.48426 5.44626L3.50113 5.44219L3.50817 5.42655L3.51753 5.4413L3.53417 5.44275L3.52284 5.4549M3.53456 5.5393L3.51978 5.53295L3.5065 5.54137L3.50787 5.52396L3.4958 5.5134L3.51111 5.50949L3.51738 5.49393L3.52518 5.50885L3.54104 5.51037L3.53049 5.52244M3.40404 5.39866L3.39167 5.39285L3.37986 5.40033L3.38155 5.38603L3.37127 5.37765L3.38433 5.37475L3.38928 5.36168L3.39599 5.37357L3.40944 5.37455L3.40028 5.38491M3.29678 5.40957L3.28441 5.40376L3.2726 5.41124L3.27429 5.39693L3.26402 5.38856L3.27707 5.38566L3.28202 5.37259L3.28873 5.38447L3.30218 5.38546L3.2938 5.39574M3.09785 5.26803L3.08548 5.26222L3.07367 5.2697L3.07544 5.25617L3.06508 5.24702L3.07814 5.24412L3.08317 5.23183L3.08988 5.24371L3.10333 5.2447L3.09409 5.25428M3.15101 5.59008L3.14035 5.58567L3.1308 5.59214L3.13195 5.58024L3.12339 5.57326L3.13403 5.56982L3.13844 5.55917L3.14421 5.56957L3.15603 5.56994L3.14827 5.57858M2.82252 5.09342L2.79786 5.08258L2.77495 5.09669L2.7777 5.06971L2.75699 5.0514L2.7831 5.0456L2.79309 5.02024L2.80728 5.04393L2.83418 5.04591L2.81587 5.06662" fill="#FFFFEF"/>
<path fill-rule="evenodd" clip-rule="evenodd" d="M3.79786 5.19371C3.80861 5.15411 3.81606 5.11369 3.82013 5.07287C3.38319 4.76078 2.91708 4.62521 2.35504 4.72005C2.3388 4.76173 2.32636 4.80478 2.31787 4.84869C2.57478 4.79608 2.84003 4.7996 3.09546 4.85902C3.35089 4.91843 3.59046 5.03234 3.79778 5.19293L3.79786 5.19371Z" fill="white"/>
<path d="M3.59727 5.01307L3.61205 5.01942C3.61031 5.02397 3.61027 5.02899 3.61192 5.03357C3.61301 5.0366 3.61652 5.04017 3.62064 5.04211C3.62562 5.04474 3.62966 5.0459 3.63355 5.04551C3.63666 5.04519 3.63953 5.04254 3.64085 5.04005C3.64147 5.03842 3.64209 5.03678 3.64107 5.03453L3.63811 5.02855L3.62775 5.0194C3.62229 5.01486 3.61794 5.00912 3.61505 5.00263C3.61318 4.99771 3.61314 4.99228 3.61495 4.98734C3.61675 4.98239 3.62028 4.97827 3.62488 4.97571C3.62884 4.97345 3.63339 4.97244 3.63794 4.97281C3.64367 4.97347 3.64921 4.97531 3.65419 4.97823C3.66141 4.98228 3.66743 4.98817 3.67164 4.9953C3.67293 4.99865 3.67343 5.00224 3.67312 5.00582C3.6728 5.00939 3.67167 5.01284 3.6698 5.01591L3.65494 5.00878C3.6561 5.00473 3.65649 5.00077 3.65539 4.99774C3.65438 4.99549 3.65095 4.99269 3.64683 4.99076C3.64263 4.98804 3.63866 4.98766 3.63555 4.98798C3.63466 4.9881 3.6338 4.98841 3.63303 4.98889C3.63227 4.98938 3.63162 4.99002 3.63113 4.99078C3.63067 4.99162 3.63041 4.99256 3.63037 4.99352C3.63033 4.99447 3.63051 4.99543 3.6309 4.9963C3.63122 4.99941 3.63558 5.00368 3.64157 5.00857L3.65481 5.02293C3.65733 5.02658 3.65875 5.03087 3.65892 5.0353C3.6591 5.03973 3.65801 5.04412 3.65579 5.04796C3.65347 5.05208 3.64998 5.05544 3.64578 5.05761C3.64137 5.0602 3.63624 5.06127 3.63117 5.06067C3.62512 5.05977 3.6193 5.05769 3.61405 5.05456C3.60626 5.0509 3.60005 5.04456 3.59653 5.03671C3.59349 5.02995 3.59348 5.0221 3.59727 5.01307ZM3.52437 4.97572L3.5407 4.98192C3.53927 4.98598 3.53917 4.99039 3.54041 4.99451C3.54159 4.99832 3.54509 5.00189 3.54921 5.00382C3.55419 5.00646 3.55816 5.00684 3.56197 5.00567C3.56507 5.00535 3.56803 5.00348 3.56926 5.00021C3.56985 4.9987 3.56996 4.99705 3.56957 4.99547C3.56933 4.99314 3.56839 4.99166 3.56583 4.98957L3.55547 4.98041C3.54987 4.97618 3.54529 4.97074 3.54207 4.9645C3.54073 4.96152 3.54007 4.95827 3.54015 4.95501C3.54022 4.95174 3.54103 4.94853 3.54251 4.94561C3.54447 4.94195 3.54743 4.93893 3.55104 4.93689C3.55502 4.93468 3.55956 4.93367 3.5641 4.93399C3.56876 4.93352 3.57366 4.93537 3.58028 4.93863C3.5886 4.94328 3.59537 4.94809 3.59764 4.95492C3.59914 4.95813 3.5999 4.96164 3.59985 4.96518C3.5998 4.96872 3.59895 4.9722 3.59736 4.97537L3.58173 4.96832C3.58366 4.9642 3.58327 4.96031 3.58225 4.95806C3.58038 4.95511 3.57781 4.95301 3.57369 4.95108C3.57009 4.94884 3.56584 4.94789 3.56164 4.94838C3.56068 4.94859 3.55979 4.94903 3.55904 4.94965C3.55828 4.95027 3.55768 4.95106 3.55729 4.95196C3.55696 4.95285 3.55684 4.9538 3.55694 4.95474C3.55703 4.95569 3.55734 4.95659 3.55784 4.9574C3.55808 4.95973 3.56244 4.964 3.56851 4.96966C3.57528 4.97447 3.57972 4.97952 3.58237 4.98239C3.58516 4.98603 3.58682 4.99041 3.58714 4.99498C3.58747 4.99955 3.58645 5.00412 3.5842 5.00812C3.58197 5.01242 3.57853 5.01597 3.57431 5.01835C3.57009 5.02073 3.56527 5.02184 3.56044 5.02153C3.55421 5.02096 3.54816 5.01918 3.54263 5.01627C3.53476 5.0129 3.52831 5.00689 3.52441 4.99928C3.5214 4.99172 3.52139 4.9833 3.52437 4.97572ZM3.43805 4.96094L3.47447 4.88657L3.5297 4.91236L3.5232 4.92559L3.48352 4.90606L3.47499 4.92263L3.51296 4.94076L3.50645 4.95399L3.46926 4.93578L3.45958 4.9564L3.50081 4.97576L3.49508 4.98891L3.43813 4.96172L3.43805 4.96094ZM3.30506 4.87317L3.31079 4.86002L3.34361 4.87396L3.33177 4.90422C3.31945 4.90829 3.30611 4.90799 3.29399 4.90335C3.28667 4.90045 3.28023 4.89569 3.27531 4.88954C3.2706 4.88403 3.26771 4.87719 3.26704 4.86996C3.26625 4.86219 3.26787 4.85496 3.27104 4.84757C3.2739 4.84003 3.27862 4.83333 3.28477 4.82811C3.28973 4.8229 3.29727 4.81977 3.30504 4.81898C3.31048 4.81843 3.31772 4.82005 3.32503 4.82245C3.33306 4.82527 3.33994 4.83064 3.34464 4.83773C3.34838 4.84363 3.34987 4.85055 3.34911 4.85848L3.33231 4.85547C3.33279 4.85144 3.33182 4.84736 3.32957 4.84397C3.32712 4.84037 3.32353 4.8377 3.31938 4.83637C3.31644 4.83494 3.31324 4.83417 3.30998 4.83409C3.30672 4.83402 3.30348 4.83465 3.30048 4.83594C3.29528 4.83882 3.29039 4.84482 3.28652 4.85306C3.28346 4.86059 3.28293 4.86892 3.285 4.87678C3.28719 4.88284 3.29155 4.8871 3.29886 4.8895L3.30928 4.89158L3.31939 4.89056L3.3231 4.88075L3.30506 4.87317ZM2.75688 4.79541L2.76093 4.71176L2.7862 4.71312L2.79835 4.77078L2.81613 4.714L2.84062 4.71544L2.83734 4.79901L2.82156 4.79826L2.82433 4.7328L2.805 4.79759L2.78922 4.79683L2.77535 4.72993L2.77266 4.79616L2.75688 4.79541ZM2.67268 4.79376L2.67208 4.71059L2.73326 4.70986L2.7339 4.72393L2.68843 4.72463L2.68869 4.74266L2.73028 4.74236L2.73093 4.75643L2.68934 4.75673L2.68938 4.78029L2.73563 4.77951L2.7355 4.79366L2.67268 4.79376Z" fill="#309E3A"/>
<path d="M2.39073 4.76983C2.38994 4.76205 2.3907 4.75412 2.39248 4.74845L2.39915 4.73677L2.41001 4.72782C2.41555 4.72526 2.42155 4.72385 2.42765 4.72367C2.43304 4.72308 2.4385 4.72362 2.44367 4.72526C2.44883 4.7269 2.45361 4.7296 2.45768 4.73318C2.46624 4.74016 2.4696 4.75003 2.47094 4.76324C2.47236 4.77723 2.46873 4.78781 2.46244 4.79552C2.45894 4.79968 2.4546 4.80307 2.4497 4.80546C2.4448 4.80786 2.43946 4.8092 2.43402 4.8094C2.42869 4.81008 2.42329 4.80965 2.41813 4.80815C2.41298 4.80665 2.4082 4.8041 2.40407 4.80067C2.39981 4.79692 2.39642 4.79229 2.39413 4.7871C2.39183 4.78191 2.3907 4.77628 2.39081 4.7706L2.39073 4.76983Z" fill="#309E3A"/>
<path d="M2.4078 4.76809C2.40875 4.77741 2.41109 4.78503 2.41623 4.78922C2.42067 4.79426 2.42635 4.79604 2.43256 4.79541C2.43575 4.79515 2.43884 4.79424 2.44166 4.79273C2.44448 4.79123 2.44696 4.78917 2.44895 4.78667C2.45236 4.78162 2.45398 4.77438 2.45381 4.76498C2.45279 4.75487 2.45052 4.74804 2.44538 4.74385C2.44326 4.74171 2.4407 4.74005 2.43789 4.73898C2.43507 4.73791 2.43205 4.73746 2.42905 4.73766C2.42127 4.73845 2.41607 4.74133 2.41266 4.74639C2.40847 4.75153 2.40685 4.75876 2.40702 4.76817L2.4078 4.76809Z" fill="#F7FFFF"/>
<path d="M2.49308 4.80339L2.4854 4.72015L2.52037 4.71659C2.5297 4.71564 2.53608 4.71656 2.54012 4.71772C2.54416 4.71888 2.54829 4.72082 2.55024 4.72455C2.55219 4.72828 2.55491 4.73193 2.55547 4.73737C2.5561 4.74358 2.55424 4.74848 2.55161 4.75346C2.54812 4.75775 2.54291 4.76063 2.5353 4.76298C2.53934 4.76413 2.54269 4.76615 2.54526 4.76824L2.55601 4.78129L2.56769 4.7958L2.54748 4.79786L2.53401 4.78117C2.53072 4.77712 2.52718 4.77328 2.52341 4.76968C2.52198 4.76843 2.52027 4.76753 2.51844 4.76705C2.51584 4.76641 2.51317 4.76615 2.5105 4.76628L2.50662 4.76668L2.51018 4.80165L2.49308 4.80339Z" fill="#309E3A"/>
<path d="M2.50529 4.75346L2.51773 4.7522C2.52295 4.75231 2.52817 4.75178 2.53327 4.75062L2.53676 4.74634C2.53816 4.74462 2.5387 4.74221 2.53846 4.73988C2.53814 4.73677 2.53713 4.73452 2.53542 4.73312C2.5336 4.73155 2.53129 4.73067 2.52888 4.73065L2.50401 4.73317L2.50607 4.75338L2.50529 4.75346Z" fill="white"/>
<path d="M2.5798 4.71447L2.61027 4.71294C2.61554 4.71249 2.62085 4.71274 2.62605 4.7137C2.63065 4.71492 2.6349 4.71717 2.6385 4.72028C2.64257 4.72422 2.64573 4.72898 2.64777 4.73426C2.64988 4.73954 2.65051 4.74576 2.6513 4.75353C2.65214 4.75946 2.65168 4.7655 2.64996 4.77123C2.64824 4.77697 2.6453 4.78226 2.64133 4.78674C2.63846 4.78939 2.63481 4.79212 2.6303 4.79415L2.61476 4.79573L2.58359 4.79811L2.5798 4.71447Z" fill="#309E3A"/>
<path d="M2.59681 4.72766L2.60001 4.7823L2.61261 4.78259L2.62271 4.78157L2.62931 4.77697C2.63149 4.77518 2.63203 4.77277 2.63319 4.76872L2.63394 4.75294L2.63174 4.73903C2.62979 4.7353 2.62877 4.73305 2.62628 4.73173C2.62398 4.72965 2.62111 4.7283 2.61804 4.72786C2.61359 4.72739 2.60912 4.72732 2.60467 4.72765L2.59689 4.72844L2.59681 4.72766Z" fill="white"/>
<path d="M3.00144 4.82159L3.01266 4.73878L3.03894 4.74239C3.04928 4.7437 3.05573 4.74539 3.059 4.74663C3.06312 4.74857 3.06733 4.75128 3.06936 4.75579C3.07224 4.76099 3.07279 4.76643 3.07187 4.77281C3.07159 4.77689 3.07025 4.78082 3.06798 4.78422C3.0657 4.78762 3.06258 4.79037 3.05892 4.79219C3.05638 4.79378 3.05356 4.79486 3.05061 4.79539C3.04477 4.79547 3.03894 4.79502 3.03319 4.79402L3.02207 4.79279L3.01738 4.8239L3.00144 4.82159Z" fill="#309E3A"/>
<path d="M3.02693 4.75539L3.02386 4.77926L3.03334 4.77987C3.03972 4.78079 3.04446 4.7811 3.04671 4.78008C3.04884 4.77964 3.05079 4.77858 3.05231 4.77702C3.05383 4.77547 3.05485 4.7735 3.05525 4.77136L3.0536 4.76289C3.05201 4.76051 3.0496 4.7588 3.04683 4.75808L3.03486 4.75616L3.02693 4.75539Z" fill="white"/>
<path d="M3.08074 4.83708L3.09996 4.75581L3.13456 4.76407C3.1408 4.76517 3.14683 4.7672 3.15245 4.77011C3.15588 4.7729 3.15861 4.77655 3.16063 4.78105C3.16266 4.78556 3.1615 4.7896 3.16042 4.79443C3.1595 4.8008 3.15601 4.80508 3.15158 4.80789C3.14907 4.80972 3.14621 4.81102 3.14318 4.81174C3.14015 4.81245 3.13701 4.81255 3.13394 4.81204L3.14111 4.82073L3.14736 4.8358L3.15314 4.85406L3.13385 4.84974L3.12628 4.82931C3.12455 4.82441 3.12249 4.81963 3.12011 4.81502C3.11926 4.81331 3.11804 4.81183 3.11653 4.81067C3.114 4.80919 3.11124 4.80815 3.10836 4.80757L3.10517 4.80711L3.09683 4.84094L3.08074 4.83708Z" fill="#309E3A"/>
<path d="M3.10777 4.79428L3.11982 4.79698L3.13498 4.79936C3.13732 4.79913 3.13887 4.79897 3.14027 4.79726L3.1436 4.79142L3.14281 4.78365C3.14161 4.78172 3.1398 4.78024 3.13767 4.77946L3.12562 4.77676L3.11271 4.77336L3.10777 4.79428Z" fill="white"/>
<path d="M3.17755 4.82409C3.1788 4.81678 3.18157 4.80981 3.18568 4.80364C3.18762 4.79951 3.19127 4.79679 3.19491 4.79406C3.19854 4.79155 3.20264 4.7898 3.20696 4.78891C3.2124 4.78835 3.21861 4.78772 3.22507 4.78942C3.23048 4.7902 3.23566 4.79211 3.24029 4.79502C3.24491 4.79794 3.24887 4.80179 3.25192 4.80632C3.25753 4.81518 3.25949 4.82676 3.25609 4.83967C3.25537 4.84539 3.25353 4.85091 3.25067 4.85592C3.24781 4.86093 3.24399 4.86532 3.23943 4.86885C3.23488 4.87172 3.22978 4.87362 3.22445 4.87444C3.21913 4.87525 3.2137 4.87495 3.2085 4.87356C3.20309 4.87278 3.1979 4.87087 3.19328 4.86796C3.18865 4.86505 3.18469 4.8612 3.18165 4.85666C3.17603 4.84677 3.17455 4.83506 3.17755 4.82409Z" fill="#309E3A"/>
<path d="M3.19436 4.8271C3.19289 4.83589 3.1936 4.84288 3.19657 4.84886C3.20031 4.85476 3.20537 4.85818 3.21182 4.85988C3.2182 4.8608 3.22356 4.85947 3.22869 4.8558C3.23381 4.85214 3.23784 4.84545 3.24 4.83581C3.24139 4.82624 3.24067 4.81925 3.23771 4.81327C3.23611 4.81053 3.23392 4.80819 3.23129 4.80642C3.22866 4.80465 3.22567 4.80349 3.22253 4.80303C3.21947 4.80237 3.2163 4.8024 3.21325 4.80312C3.2102 4.80383 3.20734 4.80522 3.20489 4.80718C3.19977 4.81084 3.19652 4.81746 3.19436 4.8271Z" fill="white"/>
<path d="M3.35101 4.92346L3.38159 4.84575L3.41426 4.85814C3.42251 4.86201 3.42826 4.86456 3.43091 4.86744C3.43442 4.87101 3.43637 4.87473 3.43754 4.87854C3.43871 4.88235 3.43849 4.88787 3.43577 4.89207C3.43399 4.89775 3.4305 4.90203 3.4253 4.90491C3.42002 4.90702 3.41458 4.90758 3.40734 4.90596C3.40999 4.90883 3.41194 4.91256 3.41304 4.91559L3.41703 4.93167L3.42056 4.95094L3.40173 4.94343L3.39719 4.92191L3.39327 4.9066C3.39243 4.9049 3.3912 4.90341 3.38969 4.90225C3.38742 4.90056 3.3849 4.89922 3.38222 4.8983L3.37896 4.89706L3.36657 4.92973L3.35101 4.92346Z" fill="#309E3A"/>
<path d="M3.38398 4.88477L3.39541 4.88911L3.41003 4.8939C3.41237 4.89367 3.41392 4.89351 3.41532 4.8918C3.4173 4.8905 3.41884 4.88863 3.41974 4.88643C3.42064 4.88424 3.42085 4.88182 3.42035 4.8795C3.41928 4.87727 3.41742 4.8755 3.41513 4.87454C3.41162 4.87268 3.40804 4.87095 3.4044 4.86935L3.39218 4.86509L3.38398 4.88477Z" fill="white"/>
<path d="M3.67342 5.04381C3.6773 5.03556 3.68149 5.03042 3.68739 5.02668C3.69093 5.02377 3.69495 5.0215 3.69927 5.01997C3.7033 5.01876 3.70752 5.01833 3.71171 5.01871C3.71723 5.01893 3.72368 5.02063 3.7296 5.02474C3.73447 5.02708 3.73881 5.03041 3.74234 5.03451C3.74587 5.03861 3.7485 5.0434 3.75008 5.04858C3.75236 5.05977 3.75047 5.07141 3.74477 5.08131C3.74233 5.08663 3.73884 5.0914 3.73453 5.09535C3.73021 5.09929 3.72514 5.10233 3.71962 5.10429C3.71446 5.10581 3.70904 5.10624 3.7037 5.10557C3.69836 5.1049 3.69322 5.10313 3.6886 5.10037C3.68372 5.09804 3.67938 5.09471 3.67585 5.09061C3.67233 5.08651 3.66969 5.08172 3.66811 5.07654C3.66668 5.07107 3.66635 5.06537 3.66712 5.05976C3.6679 5.05416 3.66978 5.04876 3.67265 5.04388L3.67342 5.04381Z" fill="#309E3A"/>
<path d="M3.6883 5.05093C3.68443 5.05918 3.68289 5.06719 3.6843 5.07333C3.68515 5.07642 3.68662 5.0793 3.68863 5.0818C3.69064 5.08429 3.69315 5.08635 3.69598 5.08784C3.69862 5.0893 3.70154 5.09018 3.70454 5.09042C3.70755 5.09065 3.71057 5.09024 3.7134 5.08921C3.71946 5.08703 3.7252 5.08173 3.72977 5.07263C3.73442 5.0643 3.73604 5.05707 3.73386 5.05101C3.73322 5.04479 3.72886 5.04053 3.72295 5.03642C3.71703 5.0323 3.71082 5.03294 3.70476 5.03512C3.6987 5.03731 3.69373 5.04253 3.68908 5.05085L3.6883 5.05093Z" fill="white"/>
<path d="M2.90396 4.79773L2.91116 4.73732L2.95572 4.74299L2.95441 4.75333L2.92253 4.74872L2.92077 4.76225L2.95023 4.76632L2.94893 4.77667L2.91938 4.77182L2.91716 4.78853L2.95059 4.79299L2.94929 4.80333L2.90396 4.79773Z" fill="#309E3A"/>
</g>
<defs>
<clipPath id="clip0_251_4140">
<rect x="0.807861" y="3.21259" width="4" height="4" rx="2" transform="rotate(-5.80626 0.807861 3.21259)" fill="white"/>
</clipPath>
</defs>
</svg>
