<svg width="92" height="17" viewBox="0 0 92 17" fill="none" xmlns="http://www.w3.org/2000/svg">
<path d="M5.771 9.10776L6.16301 9.0915L6.20963 10.9706L7.63909 12.181L7.3973 12.4712L5.83871 11.1499L5.771 9.10776ZM6.39759 8.80479L6.7752 8.79549L6.83623 10.6676L8.26568 11.8781L8.0239 12.1682L6.46531 10.847L6.39759 8.80479Z" fill="white"/>
<path d="M10.5704 7.80249L10.8813 8.51786L10.5071 8.68047L10.3237 8.25859L8.0162 9.2614L8.19954 9.68328L7.82535 9.8459L7.51447 9.13054L8.24451 8.81327L8.16798 8.63718L7.3609 8.98793L7.22379 8.67243L8.03087 8.32169L7.94318 8.11992L8.33205 7.95092L8.41974 8.15269L9.24516 7.79397L9.16066 7.59954L9.54953 7.43055L9.63403 7.62498L10.4411 7.27424L10.5782 7.58973L9.77113 7.94047L9.84766 8.11656L10.5704 7.80249ZM9.45879 8.28556L9.38227 8.10947L8.55685 8.46819L8.63337 8.64428L9.45879 8.28556ZM8.29578 9.29255L10.1594 8.48265L10.2774 8.75412L8.41376 9.56402L8.29578 9.29255ZM7.82708 9.98035L10.982 8.60926L11.116 8.91742L10.7564 9.07366L11.0654 9.19237C10.9498 9.4083 10.8154 9.61067 10.6603 9.79582C10.9427 9.97401 11.2998 10.0631 11.7279 10.0646L11.593 10.507C11.1264 10.4568 10.7333 10.3049 10.419 10.0534C10.387 10.0803 10.3588 10.1057 10.3306 10.131C10.3386 10.1494 10.3502 10.1661 10.3598 10.1881C10.516 10.5476 10.564 10.7885 10.5037 10.9106C10.4418 11.0291 10.2995 11.1433 10.0752 11.2495C10.0239 11.2718 9.97775 11.2962 9.92639 11.3185L9.67763 11.0472L9.92343 10.9404C10.0261 10.8957 10.092 10.8366 10.1211 10.7629C10.1402 10.7066 10.1213 10.5927 10.0584 10.4281C9.74098 10.9019 9.32878 11.3383 8.82345 11.7411L8.47356 11.5181C9.08113 11.0796 9.55729 10.6197 9.9057 10.1368C9.8687 10.0919 9.8349 10.0542 9.80061 10.0255C9.53627 10.4108 9.137 10.8067 8.59913 11.2149L8.29598 10.989C8.86176 10.5949 9.27952 10.2214 9.54721 9.87394C9.48724 9.85639 9.42887 9.8425 9.37209 9.83228C9.16391 10.1059 8.85238 10.4027 8.43956 10.7173L8.12381 10.4925C8.51492 10.2484 8.81161 10.0279 9.01388 9.83095L7.961 10.2885L7.82708 9.98035ZM9.68155 9.54079C9.86464 9.60079 10.0206 9.69874 10.1453 9.84517C10.346 9.64457 10.5149 9.40105 10.6611 9.11511L9.68155 9.54079Z" fill="white"/>
<path d="M13.1367 6.00625L13.5301 5.85918L13.6673 6.22636L14.3155 5.98405L14.4486 6.33999L13.8004 6.5823L13.9223 6.90827L14.7353 6.60433L14.8726 6.97151L12.8493 7.72786L12.7121 7.36068L13.5289 7.05534L13.407 6.72937L12.7963 6.95767L12.6632 6.60173L13.2739 6.37343L13.1367 6.00625ZM13.055 8.02676L14.1865 7.60376L14.1109 7.40144L14.4931 7.25857L14.5687 7.4609L14.9584 7.31523L15.0956 7.68241L14.706 7.82808L15.0575 8.76852C15.1556 9.03079 15.081 9.20815 14.8412 9.29779L14.3653 9.47567L14.1494 9.1379C14.3011 9.09826 14.4477 9.05628 14.5826 9.00586C14.6575 8.97784 14.6768 8.91513 14.6403 8.81771L14.3238 7.97095L13.1923 8.39394L13.055 8.02676ZM13.5594 8.35921C13.8265 8.50274 14.0375 8.63311 14.2013 8.75125L13.9715 9.08482C13.8008 8.94794 13.5856 8.80633 13.3273 8.66374L13.5594 8.35921ZM11.7509 7.80538C11.7882 7.99643 11.8114 8.18419 11.8257 8.371L11.4484 8.40105C11.4137 7.96562 11.3219 7.52592 11.1744 7.08569L11.5364 6.98026C11.5822 7.12544 11.6279 7.27061 11.6633 7.4111L11.8507 7.34107L11.5747 6.60296L11.9532 6.46149L12.2291 7.1996L12.5101 7.09455L12.6502 7.46923L12.3691 7.57428L12.6549 8.33862C12.7444 8.25818 12.8264 8.18055 12.907 8.09917L13.0443 8.46636C12.9585 8.54539 12.8728 8.62442 12.7893 8.6983L13.2474 9.92349L12.8689 10.065L12.4613 8.97465C12.2903 9.11118 12.1179 9.24396 11.9389 9.37065L11.7038 9.02725C11.9207 8.89919 12.1259 8.7627 12.3255 8.61122L11.9907 7.71574L11.7509 7.80538Z" fill="white"/>
<path d="M15.0309 6.41418L15.7308 6.19983L15.6137 5.81737C15.4395 5.90419 15.2579 5.9807 15.079 6.05223L14.8442 5.72254C15.4665 5.47339 15.9436 5.21434 16.2765 4.94922L16.5723 5.2184C16.3892 5.35815 16.1961 5.49258 15.9945 5.61289L16.1362 6.07568L16.8132 5.86836L16.9315 6.25465L16.2545 6.46197L16.2838 6.55759C16.5757 6.67737 16.8772 6.81511 17.1908 6.97844L17.0676 7.40941C16.8064 7.22585 16.5872 7.08381 16.4126 6.9783L16.9175 8.62673L16.5121 8.75089L16.0529 7.25162C15.9783 7.60913 15.8611 7.95041 15.696 8.28545L15.3683 7.87124C15.6342 7.45516 15.7965 7.02895 15.8514 6.59378L15.8491 6.58613L15.1492 6.80047L15.0309 6.41418ZM16.857 5.16467L17.2548 5.04285L17.9705 7.37972L17.5727 7.50154L16.857 5.16467ZM18.7083 8.04063L18.1385 8.21515L17.936 7.85463C18.1205 7.81487 18.2949 7.76982 18.4594 7.71945C18.5474 7.69251 18.5769 7.62491 18.5441 7.51782L17.6351 4.54988L18.0405 4.42572L18.9811 7.49693C19.0666 7.77613 18.9761 7.95864 18.7083 8.04063Z" fill="white"/>
<path d="M21.8551 5.26449C22.2528 5.64807 22.6206 6.0797 22.9607 6.55068L22.6229 6.81034C22.2641 6.29444 21.8926 5.84723 21.5141 5.47559L21.8551 5.26449ZM19.9209 4.79216C19.8367 5.15276 19.7086 5.46612 19.5406 5.73131L19.1895 5.52989C19.4512 5.04978 19.5951 4.52321 19.6194 3.9589L20.0335 3.97306C20.0236 4.1068 20.0129 4.23665 19.9974 4.36351L22.1241 3.86663L22.186 4.13149C22.1951 4.41689 22.1878 4.70203 22.1658 4.99471L21.7343 4.9764C21.7653 4.79253 21.7831 4.58711 21.7827 4.35715L19.9209 4.79216ZM21.1696 7.42922L20.6749 7.54479L20.4925 7.16842C20.6519 7.1476 20.8027 7.1247 20.9429 7.09194C21.0364 7.0701 21.0695 7.00075 21.0431 6.8878L20.5835 4.92077L20.9964 4.82431L21.4805 6.8965C21.5479 7.18474 21.4422 7.36551 21.1696 7.42922ZM19.9983 5.68599L20.3889 5.77547C20.2826 6.37539 20.12 6.9104 19.8934 7.38232L19.5011 7.2152C19.7254 6.76846 19.8943 6.26072 19.9983 5.68599Z" fill="white"/>
<path d="M24.1524 3.43741C24.4243 3.39027 24.6626 3.43015 24.8673 3.55706C25.0681 3.68464 25.1896 3.87062 25.2333 4.12285C25.2757 4.36721 25.2194 4.60432 25.0729 4.83674C24.983 4.97411 24.8119 5.15804 24.5682 5.3911C24.3133 5.63015 24.1685 5.82574 24.1301 5.97856L25.5174 5.73807L25.5878 6.14402L23.625 6.48425C23.5752 6.19654 23.6228 5.93253 23.775 5.68691C23.857 5.55091 24.0437 5.33992 24.3319 5.05857C24.4913 4.90102 24.599 4.77275 24.6635 4.67632C24.7618 4.51719 24.7989 4.3565 24.7715 4.19885C24.7449 4.04514 24.6817 3.93836 24.5899 3.87714C24.4942 3.81661 24.3658 3.80231 24.2042 3.83032C24.0308 3.86039 23.911 3.94205 23.8448 4.07532C23.7772 4.2007 23.7593 4.37837 23.7897 4.60045L23.3286 4.68038C23.2779 4.3644 23.3248 4.09645 23.4726 3.8719C23.6223 3.63485 23.8489 3.49002 24.1524 3.43741Z" fill="white"/>
<path d="M27.1716 2.98414C27.501 2.94247 27.776 3.04477 27.9976 3.29896C28.2054 3.53878 28.3374 3.88092 28.3936 4.32538C28.4498 4.76984 28.4072 5.13407 28.2657 5.41807C28.1139 5.71548 27.8735 5.88701 27.5441 5.92867C27.2108 5.97084 26.9352 5.86458 26.7181 5.61386C26.5103 5.37403 26.3783 5.03189 26.3221 4.58744C26.2659 4.14298 26.3085 3.77875 26.45 3.49475C26.5974 3.19387 26.8383 3.02631 27.1716 2.98414ZM27.2213 3.37701C26.9951 3.40563 26.8519 3.54873 26.7928 3.81425C26.7509 3.99292 26.7488 4.23107 26.7864 4.5287C26.8236 4.82236 26.8849 5.05248 26.9705 5.21905C27.0934 5.45751 27.2682 5.56442 27.4944 5.53581C27.7166 5.50769 27.8593 5.36062 27.9229 5.09857C27.9643 4.91593 27.9665 4.67778 27.9293 4.38412C27.8917 4.08649 27.8303 3.85637 27.7452 3.69376C27.6178 3.45184 27.4435 3.3489 27.2213 3.37701Z" fill="white"/>
<path d="M30.2211 2.65881C30.5081 2.63401 30.749 2.68145 30.9364 2.80578C31.1199 2.93045 31.2241 3.11416 31.2454 3.36124C31.2723 3.67208 31.1308 3.89308 30.8249 4.0239C30.9967 4.06125 31.1348 4.1256 31.2314 4.22164C31.3364 4.32097 31.3962 4.45632 31.4107 4.6237C31.4334 4.88672 31.3604 5.10984 31.1915 5.29305C31.015 5.48094 30.7715 5.59031 30.4607 5.61717C30.1658 5.64265 29.9201 5.58759 29.7277 5.45165C29.514 5.30149 29.3811 5.06405 29.3296 4.74731L29.8038 4.70633C29.8277 4.88896 29.8958 5.0276 30.016 5.11759C30.1236 5.20064 30.2592 5.2371 30.4226 5.22298C30.602 5.20749 30.7409 5.14328 30.8359 5.0347C30.9197 4.93512 30.9579 4.81941 30.9462 4.68391C30.932 4.52052 30.8699 4.40544 30.7677 4.33799C30.6652 4.26655 30.5226 4.24274 30.3393 4.25857L30.14 4.27579L30.1097 3.9251L30.309 3.90788C30.4764 3.89342 30.6008 3.84653 30.6823 3.76723C30.7598 3.68826 30.7943 3.57688 30.7822 3.43739C30.7702 3.29791 30.7214 3.19774 30.6395 3.13255C30.5496 3.06805 30.4229 3.04286 30.2596 3.05698C30.0922 3.07144 29.9681 3.12231 29.8837 3.21392C29.7953 3.30587 29.7505 3.43822 29.7494 3.61096L29.2911 3.65055C29.2902 3.36156 29.3745 3.12944 29.552 2.9535C29.7176 2.7786 29.9422 2.68291 30.2211 2.65881Z" fill="white"/>
<path d="M33.2198 2.4487C33.5513 2.43107 33.8182 2.55307 34.0208 2.8227C34.2105 3.07698 34.3173 3.4278 34.3411 3.87517C34.3649 4.32254 34.2959 4.68271 34.1342 4.95568C33.9611 5.24128 33.7089 5.39488 33.3774 5.41251C33.0418 5.43035 32.7748 5.30436 32.5764 5.03852C32.3866 4.78424 32.2798 4.43341 32.256 3.98604C32.2322 3.53867 32.3012 3.1785 32.463 2.90553C32.6318 2.61616 32.8842 2.46654 33.2198 2.4487ZM33.2408 2.84414C33.0131 2.85625 32.8599 2.98857 32.7816 3.24909C32.7269 3.42425 32.7074 3.66162 32.7234 3.96119C32.7391 4.25677 32.7836 4.49074 32.8568 4.6631C32.9621 4.90986 33.1287 5.02918 33.3563 5.01707C33.58 5.00518 33.733 4.86886 33.8155 4.61212C33.87 4.43297 33.8895 4.1956 33.8738 3.90002C33.8578 3.60045 33.8133 3.36648 33.7403 3.19812C33.6308 2.94758 33.4645 2.83225 33.2408 2.84414Z" fill="white"/>
<path d="M35.835 2.76682C35.6733 3.05055 35.4666 3.28729 35.219 3.48494L34.9311 3.13536C35.3203 2.83048 35.5792 2.42852 35.7039 1.92557L36.1376 1.99578C36.1045 2.12456 36.0672 2.24543 36.0258 2.3584L38.4371 2.30383L38.4463 2.70773L37.2306 2.73524L37.2423 3.25111L38.318 3.22676L38.3269 3.61866L37.2511 3.64301L37.2679 4.38282L38.6035 4.35259L38.6128 4.76049L37.2771 4.79071L37.2964 5.64249L36.8765 5.652L36.8572 4.80021L35.0577 4.84094L35.0484 4.43304L35.6643 4.4191L35.6387 3.28739L36.8224 3.26061L36.8107 2.74474L35.835 2.76682ZM36.0842 4.4096L36.848 4.39232L36.8312 3.65251L36.0674 3.66979L36.0842 4.4096Z" fill="white"/>
<path d="M39.5088 1.95003C39.7643 2.14269 39.9798 2.33525 40.1553 2.5277L39.8705 2.81497C39.715 2.63056 39.4995 2.43 39.2241 2.22129L39.5088 1.95003ZM38.9738 3.08464L39.8978 3.08704L39.8935 4.74703C40.0098 4.64333 40.1341 4.53165 40.2664 4.408L40.3813 4.8483C40.1166 5.08761 39.8361 5.29888 39.5396 5.49012L39.3806 5.1137C39.4487 5.05388 39.4849 4.97797 39.4851 4.88997L39.4888 3.48598L38.9728 3.48464L38.9738 3.08464ZM40.4046 3.56835L42.3566 3.57341L42.3556 3.95341C42.2427 4.29712 42.0579 4.59664 41.8013 4.84798C42.0488 5.00862 42.3485 5.1494 42.7042 5.27432L42.4792 5.63374C42.0876 5.47272 41.7561 5.29586 41.4926 5.09918C41.18 5.31837 40.7996 5.49338 40.3432 5.6242L40.1122 5.2716C40.5245 5.15267 40.8729 5.00157 41.1613 4.81832C40.906 4.56166 40.7267 4.28119 40.6315 3.96894L40.4035 3.96835L40.4046 3.56835ZM41.0235 3.96996C41.1109 4.19819 41.2544 4.40656 41.4619 4.5911C41.6664 4.40763 41.8229 4.20403 41.9355 3.97232L41.0235 3.96996ZM40.6806 2.02106L42.1206 2.0248L42.1184 2.85279C42.1182 2.94079 42.1661 2.98892 42.2661 2.98918L42.6101 2.99007L42.6091 3.37007L42.1531 3.36888C41.8531 3.36811 41.7055 3.22772 41.7062 2.94772L41.7076 2.41573L41.0916 2.41413L41.0913 2.52213C41.0902 2.93813 40.8734 3.26157 40.4488 3.48447L40.1696 3.16374C40.506 3.02461 40.6785 2.82506 40.6792 2.56506L40.6806 2.02106Z" fill="white"/>
<path d="M44.2889 3.08805L45.3207 3.10846L45.3437 1.94869L45.7756 1.95723L45.7526 3.11701L46.7325 3.13639L46.7242 3.55231L45.7444 3.53293L45.702 5.67651L45.2701 5.66796L45.3125 3.52438L44.2807 3.50397L44.2889 3.08805ZM43.6074 1.94635C43.8555 2.1473 44.0675 2.34753 44.2437 2.54305L43.95 2.8293C43.8017 2.64233 43.5856 2.44202 43.3057 2.22844L43.6074 1.94635ZM43.0286 3.09113L43.9804 3.10996L43.9474 4.78163C44.0653 4.68394 44.1915 4.57442 44.3259 4.45305L44.4255 4.8831C44.1608 5.11791 43.8805 5.32841 43.5808 5.51452L43.4283 5.13543C43.5014 5.07687 43.5389 5.00559 43.5405 4.92161L43.5686 3.50189L43.0207 3.49105L43.0286 3.09113Z" fill="white"/>
<path d="M50.8278 2.34133L50.7199 5.64356L50.3121 5.63024L50.3215 5.34239L49.5019 5.3156L49.491 5.65142L49.0872 5.63823L49.1967 2.28801L50.8278 2.34133ZM49.5147 4.92381L50.3343 4.9506L50.4073 2.71579L49.5878 2.689L49.5147 4.92381ZM47.3666 3.05664L48.0222 3.07807L48.0367 2.63431C47.8599 2.65654 47.6794 2.67065 47.5031 2.6769L47.3793 2.30065C48.0047 2.26906 48.5075 2.18945 48.8799 2.06155L49.0646 2.41176C48.8583 2.47706 48.6483 2.53423 48.4389 2.57541L48.422 3.09114L49.0617 3.11204L49.049 3.49984L48.4093 3.47893L48.4046 3.62285C48.6224 3.81807 48.8392 4.04127 49.0592 4.28859L48.8035 4.64443C48.6437 4.39107 48.5063 4.18647 48.3913 4.03064L48.3371 5.68975L47.9373 5.67668L47.9881 4.12151C47.8178 4.43612 47.6123 4.72156 47.3677 4.98171L47.2028 4.51607C47.5608 4.21561 47.8282 3.87216 48.0089 3.48585L48.0096 3.46586L47.3539 3.44443L47.3666 3.05664Z" fill="white"/>
<path d="M54.6007 3.98742L53.7577 3.94752L53.7475 4.16328L54.6345 4.20525L54.6184 4.54487L53.7314 4.5029L53.7212 4.71866L54.7241 4.76612L54.7076 5.11373L53.7047 5.06627L53.6909 5.35794L53.2834 5.33866L53.2972 5.04698L52.4381 5.00633L52.4546 4.65872L53.3136 4.69937L53.3238 4.48361L52.5887 4.44882L52.6047 4.1092L53.3399 4.14399L53.3501 3.92823L52.6989 3.89741L52.7151 3.5538L53.3664 3.58462L53.3768 3.36486L52.5297 3.32478L52.5456 2.98915L53.3927 3.02924L53.4025 2.82147L52.7512 2.79065L52.7675 2.44704L53.4188 2.47786L53.4309 2.22214L53.8384 2.24143L53.8263 2.49714L54.6694 2.53704L54.6433 3.08842L54.871 3.0992L54.8551 3.43482L54.6274 3.42405L54.6007 3.98742ZM53.81 2.84076L53.8002 3.04853L54.2437 3.06951L54.2536 2.86175L53.81 2.84076ZM53.7843 3.38415L53.7739 3.6039L54.2174 3.62489L54.2278 3.40514L53.7843 3.38415ZM53.3852 5.47162C53.8407 5.49317 54.3126 5.50749 54.8008 5.51458L54.7101 5.90673L53.5474 5.85171C52.8043 5.81654 52.282 5.6837 51.9761 5.461L51.8993 5.39329C51.7714 5.55543 51.6206 5.69646 51.4467 5.81637L51.1879 5.44772C51.3612 5.33979 51.5114 5.21075 51.6309 5.05623C51.4973 4.83366 51.3902 4.55629 51.3099 4.22412L51.6677 4.10891C51.721 4.33568 51.7839 4.53087 51.8564 4.69048C51.9633 4.46328 52.0359 4.19841 52.074 3.89988L51.3628 3.86623L51.3778 3.55058C51.5984 3.28871 51.8036 3.01411 51.9938 2.71877L51.4184 2.69154L51.437 2.29998L52.4758 2.34914L52.4597 2.68876C52.2726 3.00427 52.0914 3.28001 51.912 3.51579L52.4714 3.54226L52.4597 3.78999C52.4197 4.29666 52.2992 4.72745 52.1064 5.07873C52.1482 5.12476 52.1945 5.16299 52.2411 5.19322C52.49 5.34916 52.8702 5.43924 53.3852 5.47162Z" fill="white"/>
<path d="M57.4882 4.42894C57.6478 4.68778 57.7776 4.91262 57.8769 5.11145L57.9397 4.14147L57.2531 4.09707L57.2386 4.32061C57.233 4.40842 57.2233 4.49598 57.2181 4.57581L57.4882 4.42894ZM57.2092 4.6514C57.1816 4.95425 57.1382 5.19194 57.0867 5.36898C57.015 5.60886 56.8708 5.85607 56.6539 6.1106L56.3561 5.81877C56.5337 5.61381 56.6504 5.42094 56.7102 5.24042C56.7784 5.05243 56.827 4.73491 56.8554 4.29582L56.8939 3.70107L58.3469 3.79503L58.224 5.69506C58.2204 5.75095 58.2345 5.77992 58.2705 5.78224L58.3223 5.7856C58.3463 5.78715 58.3678 5.76449 58.3866 5.72161C58.4017 5.67449 58.4235 5.52358 58.4522 5.2649L58.7878 5.40685C58.7291 5.75579 58.6753 5.96876 58.6259 6.04974C58.5729 6.12648 58.4862 6.16497 58.3625 6.15696L58.111 6.1407C57.9114 6.12779 57.8188 6.00957 57.833 5.79003L57.8648 5.29906L57.6272 5.44002C57.5264 5.20101 57.387 4.93947 57.2092 4.6514ZM55.7361 4.0631L55.2811 4.03367L55.3069 3.63451L56.6122 3.71892L56.5863 4.11809L56.1393 4.08917L56.0665 5.21482C56.2452 5.17828 56.4202 5.13749 56.5957 5.08872L56.5712 5.46792C56.139 5.58027 55.6763 5.67059 55.1866 5.74314L55.116 5.34576C55.3012 5.33368 55.4789 5.31311 55.6569 5.28854L55.7361 4.0631ZM55.9491 3.06276C55.8407 3.25216 55.7213 3.42481 55.587 3.58047L55.2424 3.32971C55.5108 3.02239 55.7086 2.69047 55.8359 2.33394L56.2334 2.44783C56.1998 2.53384 56.1664 2.61585 56.1331 2.69787L57.099 2.76034L57.0748 3.13556L56.5958 3.10458C56.6554 3.2367 56.7035 3.36007 56.7402 3.47467L56.3559 3.59012C56.3032 3.41434 56.2462 3.24231 56.1766 3.07748L55.9491 3.06276ZM57.5977 3.16938C57.5168 3.30444 57.4324 3.43126 57.3409 3.54559L57.0115 3.30784C57.2292 3.04133 57.3882 2.75099 57.4882 2.4448L57.8777 2.55818C57.8481 2.64444 57.8147 2.72646 57.7816 2.80449L58.8554 2.87393L58.8311 3.24915L58.3282 3.21662C58.3997 3.34951 58.4601 3.46966 58.501 3.58053L58.1208 3.69623C58.0558 3.52368 57.9825 3.3546 57.901 3.189L57.5977 3.16938Z" fill="white"/>
<path d="M59.9635 3.88341L59.9392 4.17039C59.8432 5.06548 59.6114 5.76439 59.2392 6.27076L58.974 5.94318C59.2626 5.52206 59.4501 4.91975 59.5366 4.13625L59.6448 2.86083C60.7219 2.94011 61.6856 2.93752 62.5361 2.84906L62.7079 3.23696C61.9033 3.30523 61.0077 3.30958 60.0179 3.24172L59.996 3.50079L61.2156 3.60419L61.2765 3.31229L61.6866 3.39925C61.6719 3.47829 61.6528 3.56098 61.6341 3.63968L62.8418 3.74207L62.8093 4.1247L61.5379 4.0169L61.4561 4.2709L62.4605 4.35606L62.3416 5.75902L61.939 5.72489L62.0255 4.70455L60.5787 4.58188L60.4922 5.60222L60.0896 5.56809L60.2086 4.16513L61.0336 4.23508L61.1154 3.98108L59.9635 3.88341ZM61.4918 5.5545C61.9174 5.74313 62.2961 5.96391 62.6362 6.21354L62.3743 6.55664C62.0176 6.26547 61.6443 6.02908 61.2582 5.84781L61.4918 5.5545ZM61.1747 4.74884L61.5749 4.81087C61.4872 5.27712 61.313 5.62766 61.0449 5.85382C60.7725 6.08363 60.373 6.25047 59.8427 6.35003L59.6519 5.94847C60.1238 5.87608 60.4754 5.75334 60.7115 5.57264C60.9436 5.39161 61.0995 5.11579 61.1747 4.74884Z" fill="white"/>
<path d="M63.6018 4.64013L66.4574 4.94729L66.3453 5.98928L65.1164 5.85709L65.0997 6.01219L66.4042 6.15251L66.3755 6.41897L65.071 6.27866L65.0531 6.44569L66.6439 6.61681L66.6105 6.92702L63.0232 6.54115L63.0566 6.23094L64.6394 6.4012L64.6574 6.23417L63.3688 6.09556L63.3975 5.8291L64.6861 5.9677L64.7028 5.8126L63.4897 5.68212L63.6018 4.64013ZM65.9772 5.7083L65.9956 5.53729L65.1604 5.44745L65.142 5.61847L65.9772 5.7083ZM64.7284 5.57398L64.7468 5.40296L63.9275 5.31484L63.9091 5.48585L64.7284 5.57398ZM63.9515 5.09212L64.7708 5.18025L64.7887 5.01321L63.9695 4.92508L63.9515 5.09212ZM65.2024 5.0577L65.1844 5.22474L66.0196 5.31457L66.0375 5.14754L65.2024 5.0577ZM63.863 3.03486L66.5475 3.32362L66.4376 4.34572L63.7531 4.05696L63.863 3.03486ZM66.0647 4.07227L66.0822 3.90921L64.1931 3.70601L64.1756 3.86907L66.0647 4.07227ZM64.2179 3.47534L66.107 3.67855L66.1246 3.51549L64.2355 3.31228L64.2179 3.47534ZM63.2794 4.15889L66.8668 4.54476L66.8351 4.83907L63.2478 4.4532L63.2794 4.15889Z" fill="white"/>
<path d="M70.8229 4.04311L70.3906 7.31871L69.9861 7.26532L70.0238 6.9798L69.2108 6.8725L69.1669 7.20561L68.7663 7.15275L69.205 3.82957L70.8229 4.04311ZM69.2621 6.48387L70.0751 6.59117L70.3677 4.37439L69.5547 4.2671L69.2621 6.48387ZM67.3081 4.4144L67.9585 4.50024L68.0166 4.06005C67.8384 4.06478 67.6574 4.06106 67.4813 4.04993L67.3951 3.66333C68.0206 3.69342 68.5289 3.66367 68.912 3.57303L69.0613 3.93972C68.8496 3.98441 68.6351 4.02064 68.4226 4.04101L68.355 4.55258L68.9895 4.63632L68.9388 5.02098L68.3043 4.93724L68.2854 5.08C68.4829 5.2957 68.6767 5.53915 68.8714 5.80692L68.5818 6.13586C68.4477 5.86801 68.3311 5.65089 68.232 5.48449L68.0148 7.13022L67.6183 7.07788L67.8219 5.53526C67.6214 5.83157 67.3889 6.09542 67.1198 6.33023L67.0016 5.85063C67.3874 5.58685 67.6872 5.27137 67.9051 4.90473L67.9077 4.8849L67.2574 4.79906L67.3081 4.4144Z" fill="white"/>
<path d="M73.3622 6.68015L72.6471 6.567L72.7102 6.16796L74.5671 6.46179L74.504 6.86082L73.781 6.74642L73.6691 7.45362L74.5699 7.59616L74.5061 7.99914L72.2936 7.64905L72.3574 7.24606L73.2503 7.38735L73.3622 6.68015ZM73.8876 5.63746C73.5748 5.82284 73.1959 5.96537 72.756 6.05776L72.5451 5.6761C73.2798 5.53723 73.8162 5.26978 74.1628 4.87104L72.9025 4.67162L72.965 4.27653L74.7231 4.55473L74.6719 4.8787C74.5466 5.08162 74.3883 5.2631 74.2015 5.41984C74.4678 5.65636 74.6952 5.88269 74.8792 6.10214L74.5268 6.35822C74.3757 6.13587 74.1627 5.89561 73.8876 5.63746ZM72.4052 6.81625L72.3445 7.19948C71.934 7.33701 71.4817 7.43147 70.9849 7.47435L70.9927 7.06657C71.5205 7.03264 71.9913 6.9492 72.4052 6.81625ZM72.1287 3.98221L72.4994 4.19881C72.2445 4.6323 71.9988 4.9822 71.7629 5.24455C71.8998 5.25001 72.0326 5.25483 72.1622 5.25509C72.25 5.13534 72.343 5.00831 72.4418 4.87005L72.7986 5.0723C72.3887 5.61491 72.0513 6.007 71.7857 6.2525C72.0242 6.22949 72.2692 6.19131 72.5206 6.13795L72.4618 6.50933C72.0141 6.60047 71.5982 6.644 71.2101 6.6393L71.1622 6.25104C71.2384 6.23069 71.3078 6.20118 71.3667 6.1619C71.5 6.0615 71.68 5.87129 71.9019 5.59458C71.7164 5.58953 71.5224 5.58718 71.3205 5.58357L71.2811 5.19262C71.3487 5.17496 71.4122 5.13235 71.4748 5.06936C71.7128 4.74255 71.9281 4.37975 72.1287 3.98221Z" fill="white"/>
<path d="M77.1237 6.14468C76.9778 6.25204 76.827 6.34221 76.6744 6.41986L76.5189 6.04957C77.0117 5.80275 77.4204 5.43875 77.7489 4.9583L78.1108 5.02495C78.2152 5.54038 78.472 6.02288 78.8774 6.47173L78.5902 6.77268C78.4624 6.62714 78.3504 6.48449 78.2556 6.33687L78.2136 6.56503L77.0845 6.35711L77.1237 6.14468ZM78.1597 6.17279C78.0186 5.9231 77.9197 5.66493 77.8559 5.39288C77.6776 5.63253 77.4893 5.83783 77.2903 6.01268L78.1597 6.17279ZM76.2925 7.91948L77.5552 8.15204C77.7643 7.76756 77.9768 7.29828 78.1895 6.73957L78.5641 6.9143C78.3676 7.40686 78.1609 7.84466 77.9407 8.22304L78.4797 8.3223L78.4072 8.71568L76.22 8.31287L76.2925 7.91948ZM77.0002 6.63848C77.0588 6.98279 77.0969 7.37213 77.1145 7.80651L76.7492 7.82464C76.7315 7.43499 76.6912 7.05744 76.6276 6.69595L77.0002 6.63848ZM77.6285 6.6281C77.6664 6.95233 77.687 7.32625 77.6878 7.74127L77.3225 7.7594C77.3215 7.3891 77.2988 7.02698 77.2573 6.6777L77.6285 6.6281ZM76.2936 5.21903L75.3849 5.05167L75.453 4.68189L76.7669 4.92387L76.2835 6.51056L76.5038 6.55113C76.3321 7.48345 76.1896 8.01442 76.0809 8.14082C75.9722 8.26723 75.7814 8.30937 75.5139 8.2601C75.4273 8.24416 75.3422 8.22036 75.2532 8.19583L75.2097 7.81363C75.3438 7.85865 75.436 7.88784 75.4911 7.89799C75.6603 7.92914 75.7727 7.8929 75.8276 7.79321C75.8833 7.68958 75.9617 7.37456 76.0595 6.84349L75.0721 6.66165L75.5156 5.29132L75.8857 5.37981L75.5479 6.37508L75.898 6.43956L76.2936 5.21903ZM75.8658 7.05593L75.7984 7.42177C75.5253 7.4691 75.2198 7.49416 74.8863 7.49376L74.9062 7.09883C75.2664 7.10823 75.5863 7.09393 75.8658 7.05593Z" fill="white"/>
<path d="M81.6171 5.70128C81.7854 6.06766 81.9111 6.38422 81.9863 6.64931L81.6184 6.80508C81.5379 6.52661 81.4162 6.21087 81.261 5.85952L81.6171 5.70128ZM82.4636 6.10781L82.834 6.27135C82.5181 7.15328 82.1044 7.83894 81.6017 8.32607C81.8246 8.72435 82.1063 9.05729 82.4457 9.3288L82.1283 9.6341C81.789 9.3422 81.5098 8.99752 81.2869 8.59923C80.8997 8.88584 80.4743 9.08264 80.0104 9.18965L79.8612 8.7905C80.3203 8.68658 80.7293 8.49041 81.0913 8.2067C80.838 7.62221 80.6836 6.93588 80.6228 6.15473L81.0131 6.02819C81.0486 6.75498 81.1775 7.38693 81.4047 7.92097C81.838 7.47242 82.1897 6.86776 82.4636 6.10781ZM80.0123 5.42172C80.2148 5.66448 80.3828 5.89593 80.5156 6.11998L80.1738 6.3466C80.0636 6.13139 79.8972 5.89212 79.6698 5.63186L80.0123 5.42172ZM79.2198 6.4325L80.1476 6.62721L79.8173 8.20093L80.189 7.96831L80.2122 8.42275C79.9258 8.59969 79.6278 8.75378 79.319 8.88108L79.2405 8.47632C79.3225 8.4363 79.3756 8.37797 79.3936 8.29184L79.6779 6.93735L79.1377 6.82398L79.2198 6.4325Z" fill="white"/>
<path d="M85.0061 6.61011L86.7548 7.01927L86.4742 8.21888L84.7254 7.80971L85.0061 6.61011ZM86.1646 7.76851L86.2776 7.28556L85.3195 7.06138L85.2065 7.54434L86.1646 7.76851ZM84.5546 8.06553L86.5215 8.52573L86.4358 8.89184L85.6335 8.70412L85.5478 9.07023L86.2294 9.2297L86.1447 9.59192L85.4631 9.43245L85.3701 9.82972L86.2659 10.0393L86.1766 10.421L83.9683 9.90431L84.0576 9.52262L84.9573 9.73312L85.0502 9.33585L84.3881 9.18093L84.4729 8.81872L85.135 8.97363L85.2207 8.60752L84.469 8.43164L84.5546 8.06553ZM83.2328 7.14828L83.7586 7.2713L83.8607 6.83508C83.712 6.82084 83.5604 6.80179 83.4087 6.78274L83.4162 6.38191C83.9044 6.45505 84.3502 6.48129 84.7553 6.45284L84.8101 6.86825C84.6317 6.8758 84.4473 6.87374 84.2609 6.86298L84.1442 7.36152L84.5687 7.46085L84.4785 7.84644L84.054 7.74711L84.0185 7.899C84.1534 8.09489 84.2895 8.30338 84.421 8.53134L84.1101 8.82421C84.0409 8.61083 83.98 8.43226 83.9273 8.28849L83.5446 9.92431L83.159 9.83409L83.5272 8.26059C83.3335 8.54392 83.119 8.79361 82.8788 9.01265L82.8062 8.51503C83.1364 8.28008 83.4096 7.99069 83.6217 7.64595L83.1426 7.53387L83.2328 7.14828Z" fill="white"/>
<path d="M87.7498 7.11198L88.0884 9.127L86.8228 10.7312L86.5283 10.4947L87.6893 9.02478L87.3778 7.17775L87.7498 7.11198ZM88.424 7.28466L88.7626 9.29969L87.4971 10.9038L87.2025 10.6674L88.3635 9.19747L88.0366 7.34647L88.424 7.28466Z" fill="white"/>
<g clip-path="url(#clip0_251_4018)">
<path d="M1.16077 11.7049L3.66547 10.3866L5.52854 13.9262L3.02384 15.2445L1.16077 11.7049Z" fill="white"/>
<path d="M-0.0911865 12.3639L1.16082 11.7049L3.02389 15.2445L1.77189 15.9035L-0.0911865 12.3639ZM3.66552 10.3865L4.91752 9.72756L6.7806 13.2672L5.52859 13.9262L3.66552 10.3865ZM2.43576 13.218L2.35644 13.3022L3.01781 13.4617C3.10623 13.5458 3.07556 13.5999 3.07421 13.6695L3.53231 13.3489L3.78004 13.8498L3.88054 13.7925L3.59973 13.3143L4.12253 13.1133C4.05827 13.065 4.01348 13.0453 3.98727 12.9285L4.24109 12.3137L4.14736 12.3268C4.05581 12.3106 4.04838 12.0717 3.99889 11.9441C3.99889 11.9441 3.78316 12.1733 3.74077 12.1347L3.60501 12.0429L3.50409 12.4315C3.48145 12.4522 3.46457 12.447 3.4467 12.4281L3.2673 11.8189L3.14374 12.0102C3.1325 12.0241 3.1147 12.0255 3.09629 12.014L2.74861 11.7644L2.75961 12.208C2.75303 12.2273 2.74062 12.2356 2.72519 12.2331L2.5084 12.2272L2.89684 12.722C2.90015 12.7467 2.88443 12.7638 2.85613 12.7637L2.48836 12.6235C2.48411 12.6876 2.50485 12.7773 2.47491 12.816C2.44387 12.8527 2.28424 12.8731 2.18487 12.9007C2.27315 12.9946 2.46462 13.1269 2.43613 13.2187L2.43576 13.218Z" fill="#D52B1E"/>
</g>
<defs>
<clipPath id="clip0_251_4018">
<rect x="0.600098" y="12" width="4" height="4" rx="2" transform="rotate(-27.76 0.600098 12)" fill="white"/>
</clipPath>
</defs>
</svg>
