<svg width="142" height="13" viewBox="0 0 142 13" fill="none" xmlns="http://www.w3.org/2000/svg">
<path d="M4.20923 2.28751L4.53051 2.46189L3.59481 4.10659L4.19652 5.89372L3.8646 6.00758L3.21244 4.07117L4.20923 2.28751ZM4.89031 2.35061L5.19566 2.52351L4.27589 4.16969L4.8776 5.95681L4.54569 6.07068L3.89353 4.13426L4.89031 2.35061Z" fill="white"/>
<path d="M6.36369 3.30401L8.33581 3.48053L8.30514 3.82316L7.51231 3.7522L7.46845 4.24224L8.13778 4.30214L8.10782 4.63681L7.4385 4.5769L7.38893 5.13069L7.79531 5.16706C7.73786 5.00128 7.67428 4.85904 7.6053 4.73239L7.91266 4.66352C7.99289 4.79921 8.06044 4.9418 8.11462 5.09925L7.89092 5.17562L8.2973 5.21199L8.26663 5.55462L6.07141 5.35814L6.10207 5.01551L7.00646 5.09645L7.05603 4.54267L6.3867 4.48276L6.41666 4.1481L7.08598 4.208L7.12984 3.71796L6.33303 3.64665L6.36369 3.30401ZM9.08175 2.90875L8.76688 6.42669L8.38441 6.39245L8.39796 6.24106L5.81628 6.00999L5.80273 6.16138L5.42026 6.12715L5.73513 2.60921L9.08175 2.90875ZM5.84802 5.65541L8.4297 5.88648L8.66719 3.23308L6.08551 3.00201L5.84802 5.65541Z" fill="white"/>
<path d="M10.7804 2.88789L11.1622 2.97687C11.1142 3.0691 11.0624 3.157 11.0074 3.23659L12.7132 3.383L12.6868 3.68987C12.4241 3.94434 12.1126 4.15848 11.7568 4.32867C12.1695 4.52469 12.6346 4.673 13.1565 4.76598L12.9547 5.10597C12.3431 4.98121 11.7982 4.78187 11.3242 4.50432C10.8275 4.67848 10.2562 4.78601 9.61828 4.82761L9.47337 4.45786C10.0132 4.43595 10.501 4.36541 10.9289 4.24556C10.7471 4.11755 10.5827 3.97497 10.431 3.82544C10.2855 3.92939 10.1288 4.02433 9.9569 4.10994L9.75174 3.78721C10.241 3.56022 10.5838 3.26045 10.7804 2.88789ZM11.3544 4.10544C11.641 3.99355 11.8978 3.855 12.1288 3.69015L10.7299 3.57007C10.7169 3.581 10.7083 3.58829 10.7036 3.59592C10.8961 3.78508 11.1143 3.95636 11.3544 4.10544ZM11.0124 4.72245L11.387 4.75461C11.3747 4.89808 11.3511 5.03256 11.3202 5.15838L12.6952 5.2764C12.6273 5.97315 12.5316 6.38648 12.4084 6.5124C12.2852 6.63833 12.0798 6.69296 11.8008 6.66901C11.6653 6.65738 11.4986 6.63504 11.3083 6.60667L11.2421 6.25572C11.4486 6.28148 11.6153 6.30381 11.7422 6.32273C11.9458 6.33619 12.0771 6.3033 12.1357 6.22804C12.1947 6.1488 12.2454 5.93234 12.2875 5.58266L11.2075 5.48995C11.1634 5.58252 11.1157 5.67076 11.0606 5.75035C10.8306 6.09192 10.339 6.34682 9.58152 6.51866L9.35679 6.19024C10.0228 6.0547 10.4691 5.86016 10.692 5.60227C10.7283 5.5532 10.7646 5.50413 10.793 5.45437L9.6731 5.35824L9.70218 5.01949L10.9376 5.12554C10.9725 5.00006 11.0001 4.86593 11.0124 4.72245Z" fill="white"/>
<path d="M17.2686 3.77448L17.198 4.6396L16.8831 4.6139L16.8639 4.84912L15.3409 4.72485L15.3601 4.48963L15.0372 4.46328L15.1078 3.59816L15.9769 3.66908C15.9455 3.56217 15.9131 3.46722 15.8724 3.37561L16.2683 3.3437C16.3037 3.45093 16.3341 3.5698 16.3636 3.70063L17.2686 3.77448ZM15.4124 4.38956L16.8437 4.50634L16.8765 4.10368L15.4453 3.98689L15.4124 4.38956ZM15.008 5.06691L17.1808 5.2442L17.1515 5.60301L16.5176 5.55129L16.4379 6.52804C16.4298 6.62771 16.4574 6.68214 16.5212 6.68734L16.6448 6.69743C16.6767 6.70003 16.7059 6.68636 16.7278 6.66407C16.7583 6.63445 16.7916 6.47262 16.8276 6.17858L17.1607 6.32616C17.0989 6.69033 17.0411 6.90635 16.9838 6.9699C16.9231 7.02515 16.8288 7.04956 16.6929 7.04248L16.374 7.01646C16.2584 7.00702 16.1779 6.96032 16.1283 6.88002C16.071 6.79508 16.0469 6.6968 16.056 6.58517L16.1428 5.52071L15.8518 5.49696C15.7874 5.89303 15.6992 6.18683 15.5796 6.37372C15.4325 6.60252 15.2003 6.79226 14.883 6.94296L14.6652 6.61215C14.9314 6.49742 15.1281 6.34892 15.255 6.17066C15.3554 6.02233 15.4308 5.78768 15.481 5.4667L14.9787 5.42572L15.008 5.06691ZM13.8277 3.30107L15.0317 3.39931L15.0076 3.69433C14.876 4.02873 14.7228 4.38144 14.5484 4.74847C14.738 5.12916 14.8316 5.45786 14.8251 5.73425C14.8098 5.92162 14.7589 6.05392 14.6803 6.13178C14.5642 6.22666 14.3726 6.26319 14.1012 6.24506L14.0091 5.84826C14.0876 5.87071 14.1587 5.88454 14.2145 5.8891C14.3029 5.88828 14.3683 5.87355 14.4021 5.85223C14.4326 5.82262 14.4525 5.77608 14.4583 5.70432C14.4801 5.4372 14.3849 5.12844 14.177 4.77436C14.3651 4.38837 14.5182 4.03566 14.632 3.72388L14.1655 3.68582L13.905 6.8792L13.5382 6.84927L13.8277 3.30107Z" fill="white"/>
<path d="M17.9105 4.93243L18.2353 5.08983C18.0672 5.55429 17.8678 5.90402 17.6328 6.14269L17.3686 5.87362C17.595 5.64232 17.7755 5.33124 17.9105 4.93243ZM18.845 3.58016L19.2279 3.60963L19.1708 4.35144L20.431 4.44844C20.4016 4.727 20.3776 4.98593 20.3512 5.2246L20.6243 5.11724C20.7801 5.4903 20.9292 5.89895 21.0672 6.34686L20.7074 6.48766C20.5939 6.08576 20.4659 5.71485 20.331 5.38352C20.2923 5.67742 20.2561 5.93941 20.223 6.16152C20.1499 6.58918 20.0588 6.88706 19.9536 7.05548C19.8489 7.21593 19.6946 7.29231 19.49 7.29261L19.0234 7.25669L18.9479 6.8818C19.0829 6.90021 19.2102 6.91402 19.3299 6.92323C19.5253 6.93827 19.6673 6.8128 19.7554 6.5548C19.8407 6.28054 19.9263 5.68937 20.0159 4.78558L19.1266 4.71712C19.0379 5.34818 18.8863 5.85805 18.6718 6.24674C18.431 6.66549 18.0622 6.9741 17.5692 7.17686L17.3873 6.82988C17.8613 6.61361 18.1969 6.3185 18.3939 5.94853C18.5562 5.61199 18.6728 5.1917 18.7437 4.68765L17.7945 4.61459L17.8227 4.24768L18.7879 4.32197L18.845 3.58016Z" fill="white"/>
<path d="M22.61 3.88854L22.9511 4.05339C22.608 4.86691 22.1871 5.47834 21.6888 5.8837L21.4082 5.60289C21.9193 5.18642 22.3213 4.61374 22.61 3.88854ZM23.9584 6.11079C24.2147 6.5623 24.4334 7.03518 24.6059 7.53682L24.2394 7.67092C24.1927 7.53924 24.15 7.40784 24.1027 7.28414C23.4011 7.33804 22.6253 7.36255 21.7675 7.35712L21.726 6.9852C22.0159 6.91377 22.4547 6.33169 23.0464 5.23926L23.4083 5.39357C23.0407 6.04492 22.6732 6.58398 22.3137 7.01134C22.8831 7.01211 23.4379 6.99179 23.9703 6.9498C23.8576 6.67703 23.7391 6.42791 23.6109 6.20215L23.9584 6.11079ZM24.0446 3.95945C24.2159 4.70162 24.5563 5.32358 25.0739 5.82193L24.7803 6.11365C24.2373 5.57739 23.8798 4.9141 23.7083 4.11977L24.0446 3.95945Z" fill="white"/>
<path d="M29.187 4.44402L29.1628 4.81122L26.3968 4.62843L26.319 5.80587C26.2484 6.63101 26.033 7.28222 25.6767 7.75977L25.4063 7.48534C25.6971 7.08765 25.875 6.51814 25.9398 5.78081L26.0419 4.23618L29.187 4.44402ZM26.5435 5.19935L29.0739 5.36657L29.0502 5.72578L28.0763 5.66143L27.9608 7.40962C27.941 7.70896 27.7913 7.8514 27.5119 7.83294L27.0888 7.80498L27.0248 7.43996C27.1554 7.46463 27.2826 7.48105 27.4024 7.48896C27.5181 7.49661 27.5827 7.42873 27.5917 7.29302L27.7011 5.63664L26.5197 5.55856L26.5435 5.19935Z" fill="white"/>
<path d="M30.3221 5.48794L30.6854 5.5098L30.6516 6.07279L31.0668 6.09777L31.0464 6.43715L30.6311 6.41217L30.6037 6.86735C30.7856 6.84222 30.9597 6.81263 31.1218 6.78231L31.1002 7.14166C30.9341 7.17174 30.76 7.20133 30.5819 7.23069L30.5307 8.08115L30.1674 8.05929L30.2142 7.2807C29.9802 7.3067 29.7343 7.33197 29.4808 7.34878L29.4552 6.97457C29.7287 6.95896 29.9904 6.93864 30.2363 6.91337L30.2678 6.39031L29.6289 6.35188L29.5693 6.01168C29.6861 5.80231 29.8022 5.53681 29.914 5.21094L29.5626 5.1898L29.5847 4.82246L30.0319 4.84936C30.0772 4.69581 30.123 4.53427 30.1653 4.3645L30.5215 4.43802C30.4804 4.58783 30.4396 4.73364 30.3992 4.87146L31.1179 4.9147L31.0958 5.28204L30.2813 5.23304C30.1752 5.5312 30.067 5.79719 29.9528 6.03075L30.2882 6.05093L30.3221 5.48794ZM31.2777 4.92431L31.8806 4.96059C31.9224 4.7988 31.9602 4.63678 31.9982 4.47077L32.3674 4.52904C32.3298 4.68707 32.2927 4.83711 32.2599 4.98341L33.1862 5.03914L33.1641 5.40647L32.1619 5.34618C32.1263 5.47227 32.0909 5.59436 32.0557 5.71246L33.2416 5.78381L33.2197 6.14715L31.942 6.07028C31.889 6.21936 31.8364 6.36046 31.7886 6.48982L33.0343 6.56477L33.0156 6.87621C32.8724 7.12406 32.6656 7.36407 32.3867 7.60375C32.5252 7.70024 32.6552 7.80424 32.7812 7.90799L32.5499 8.22267C32.1578 7.8785 31.7537 7.60174 31.3335 7.39212L31.5552 7.10492C31.742 7.1963 31.9202 7.29919 32.0899 7.40958C32.3085 7.2384 32.4875 7.06083 32.6228 6.87662L31.2972 6.79687C31.3917 6.55811 31.479 6.3069 31.5667 6.0477L31.0956 6.01935L31.1174 5.65601L31.6804 5.68988C31.716 5.56379 31.7514 5.4417 31.7866 5.3236L31.2556 5.29165L31.2777 4.92431Z" fill="white"/>
<path d="M33.7298 5.86343L34.1085 4.71423L34.4845 4.79868L34.2368 5.52635L34.8279 5.55836C34.9198 5.2669 34.9966 4.9586 35.0622 4.63368L35.4471 4.70259C35.3821 5.01553 35.3061 5.30785 35.2233 5.57977L37.0526 5.67883L37.033 6.04229L35.1078 5.93805C35.0607 6.06769 35.0101 6.18913 34.9636 6.30679L36.5613 6.39331L36.544 6.71284C36.4224 7.03473 36.2107 7.3197 35.9008 7.56731C36.1953 7.7515 36.5543 7.92717 36.9739 8.0941L36.7588 8.44298C36.285 8.24107 35.8882 8.02329 35.5719 7.79786C35.2445 8.00046 34.8462 8.17918 34.3772 8.33405L34.1969 7.96376C34.6041 7.8416 34.9563 7.70043 35.2492 7.54404C35.0008 7.32229 34.8172 7.08802 34.7021 6.84544C34.3825 7.421 33.9935 7.87263 33.5392 8.20054L33.3625 7.83846C33.9401 7.38102 34.3874 6.74027 34.7044 5.9162L33.7298 5.86343ZM34.989 6.65267C35.108 6.89546 35.3038 7.12639 35.5766 7.34145C35.8392 7.15137 36.0349 6.94164 36.1593 6.71604L34.989 6.65267ZM36.1205 4.69499C36.3848 4.9176 36.605 5.14184 36.7813 5.36369L36.495 5.62059C36.3465 5.40424 36.1345 5.17645 35.8512 4.93278L36.1205 4.69499Z" fill="white"/>
<path d="M40.1326 6.02931L39.2336 5.98601L39.2507 5.63042L40.2815 5.68007L40.3181 4.92095L40.6857 4.93865L40.6491 5.69777L41.0766 5.71837L41.0595 6.07395L40.632 6.05336L40.5308 8.15492C40.5171 8.4386 40.3863 8.57646 40.1466 8.56492L39.6272 8.5399L39.5606 8.17627C39.7236 8.20015 39.8791 8.21564 40.0309 8.22295C40.1148 8.227 40.1618 8.16519 40.1678 8.04133L40.2423 6.49512C39.9767 7.10305 39.6119 7.61009 39.152 8.01243L38.9606 7.66281C39.4812 7.24738 39.8717 6.70554 40.1326 6.02931ZM39.0852 4.99371L38.9628 7.53477L38.6272 7.5186L38.7328 5.32515L37.9417 5.28704L37.8357 7.48849L37.4921 7.47194L37.6149 4.92289L39.0852 4.99371ZM38.1689 5.55829L38.4886 5.57368L38.4266 6.86019C38.3929 7.31109 38.2996 7.66702 38.1467 7.93197C37.9987 8.17713 37.7656 8.36213 37.4514 8.48315L37.263 8.15371C37.565 8.0361 37.7769 7.87811 37.8946 7.67954C38.0088 7.4688 38.0784 7.18782 38.107 6.8448L38.1689 5.55829ZM38.5457 7.63081C38.7522 7.83298 38.9269 8.02962 39.0657 8.22452L38.7893 8.47551C38.6705 8.28157 38.5083 8.07353 38.2948 7.851L38.5457 7.63081Z" fill="white"/>
<path d="M41.5156 5.30612L43.2341 5.37889L43.2184 5.75056L42.6389 5.72602L42.6064 6.49334L43.026 6.5111L43.0159 6.75089C43.2958 6.28632 43.4958 5.72227 43.6202 5.05494L43.99 5.11464C43.9495 5.3131 43.9014 5.50324 43.8497 5.68521L45.0246 5.73497L45.0089 6.10664L44.7451 6.09547C44.6861 6.73354 44.5154 7.26679 44.225 7.69489C44.4429 8.03241 44.7038 8.29969 45.0038 8.49656L44.7744 8.80713C44.4707 8.6061 44.2059 8.33466 43.988 7.99714C43.7025 8.30934 43.3399 8.55421 42.9079 8.7321L42.6893 8.41056C43.1531 8.23803 43.5241 7.9855 43.7941 7.66063C43.6501 7.37428 43.5314 7.05697 43.434 6.70854C43.3473 6.86502 43.2528 7.01715 43.1508 7.15696L42.9508 6.86824L42.5912 6.85301L42.5522 7.77219C42.7464 7.72436 42.9328 7.6722 43.1112 7.6197L43.0963 7.97139C42.6013 8.12658 42.027 8.26241 41.3733 8.38286L41.2842 8.03077C41.3648 8.01817 41.4415 8.0014 41.5221 7.9888L41.5993 6.16643L41.955 6.1815L41.8814 7.91994C41.9863 7.90036 42.0832 7.88044 42.1802 7.86053L42.2712 5.71045L41.4999 5.67779L41.5156 5.30612ZM44.0203 7.3299C44.2195 6.97401 44.3372 6.55862 44.3735 6.07973L43.7261 6.05231C43.6992 6.11924 43.6763 6.18633 43.6497 6.24926C43.7446 6.65364 43.8654 7.01507 44.0203 7.3299Z" fill="white"/>
<path d="M46.1191 5.98533C46.1965 6.1643 46.2647 6.37895 46.3275 6.62943L46.6833 6.64252C46.7869 6.43819 46.8829 6.22158 46.9634 5.99238L47.3067 6.1251C47.2274 6.32232 47.1449 6.4994 47.055 6.6562L47.4867 6.67209L47.4733 7.03585L45.4627 6.96185L45.4761 6.59809L45.9718 6.61634C45.9144 6.4341 45.8488 6.25957 45.7707 6.09659L46.1191 5.98533ZM47.6912 5.35872L49.0782 5.40977L49.0676 5.69758C48.9287 6.10074 48.7788 6.47548 48.622 6.82195C48.9043 7.20058 49.0451 7.50597 49.0406 7.73796C49.0306 8.00978 48.9677 8.19559 48.86 8.2957C48.7442 8.39551 48.5143 8.44308 48.1785 8.43073L48.0733 8.02658C48.2166 8.04787 48.3363 8.06028 48.4362 8.06395C48.5243 8.06319 48.5851 8.04142 48.6109 7.99433C48.6363 7.95524 48.6517 7.86374 48.6608 7.72399C48.6652 7.49599 48.5164 7.19031 48.2183 6.80709C48.3612 6.51215 48.5024 6.1571 48.6456 5.74609L48.046 5.72402L47.9284 8.91786L47.5607 8.90432L47.6912 5.35872ZM45.5924 5.50563L46.3279 5.5327C46.2922 5.41531 46.2562 5.30591 46.2197 5.2085L46.6098 5.15882C46.6415 5.27606 46.6728 5.4053 46.6996 5.54638L47.4911 5.57551L47.4777 5.93926L45.579 5.86938L45.5924 5.50563ZM47.3027 7.32176L47.245 8.8887L46.8653 8.87473L46.873 8.66687L45.9856 8.63421L45.9779 8.84207L45.6062 8.82839L45.6638 7.26145L47.3027 7.32176ZM45.9988 8.27445L46.8862 8.30711L46.9097 7.66754L46.0223 7.63488L45.9988 8.27445Z" fill="white"/>
<path d="M49.8688 6.45683L51.0283 6.49373L51.0347 6.28983L51.4106 6.3018L51.4041 6.50569L52.5475 6.54209L52.5369 6.87392L51.3935 6.83752L51.3838 7.14137L52.983 7.19227L52.9726 7.52011L52.233 7.49656L52.223 7.80841L52.7908 7.82648L52.7802 8.15831L52.2125 8.14024L52.195 8.68796C52.187 8.93983 52.043 9.06331 51.7712 9.05466L51.2074 9.03672L51.1349 8.67423C51.3183 8.69607 51.4899 8.71354 51.6498 8.71863C51.7617 8.72219 51.8192 8.676 51.822 8.58804L51.8367 8.12828L49.6098 8.0574L49.6204 7.72556L51.8472 7.79644L51.8572 7.4846L49.3944 7.40621L49.4048 7.07838L51.008 7.12941L51.0177 6.82556L49.8583 6.78866L49.8688 6.45683ZM50.3354 8.14452C50.5328 8.35491 50.683 8.53978 50.79 8.69927L50.4876 8.89375C50.373 8.72201 50.219 8.53302 50.0214 8.32663L50.3354 8.14452ZM50.0829 5.89135C49.9854 6.06434 49.8762 6.22494 49.7554 6.37318L49.4342 6.15485C49.675 5.88237 49.8484 5.59174 49.9585 5.27508L50.3158 5.36649C50.2895 5.43769 50.2592 5.50877 50.2329 5.57997L51.1884 5.61038L51.1784 5.92622L50.5627 5.90662C50.6468 6.02936 50.7154 6.1396 50.768 6.24533L50.4201 6.36232C50.3493 6.19998 50.2623 6.04113 50.1629 5.8939L50.0829 5.89135ZM51.7065 5.93102C51.6385 6.05692 51.5628 6.17057 51.4834 6.2761L51.1778 6.07027C51.3532 5.83974 51.4852 5.59181 51.5658 5.32224L51.9192 5.40953C51.8929 5.48073 51.8706 5.55205 51.8445 5.61926L52.9359 5.654L52.9259 5.96984L52.2822 5.94935C52.3703 6.07221 52.4386 6.19045 52.4873 6.29605L52.1555 6.40955C52.0806 6.24709 51.9935 6.09224 51.8944 5.937L51.7065 5.93102Z" fill="white"/>
<path d="M54.1633 6.25346C54.2424 6.43168 54.3126 6.64568 54.3778 6.89555L54.7337 6.90525C54.8353 6.69995 54.9293 6.48243 55.0076 6.25248L55.3522 6.38192C55.2748 6.57988 55.1939 6.75775 55.1056 6.9154L55.5374 6.92717L55.5275 7.29104L53.5162 7.23618L53.5262 6.87232L54.022 6.88584C53.9629 6.70416 53.8956 6.53027 53.816 6.36804L54.1633 6.25346ZM55.7293 5.61192L57.1168 5.64976L57.109 5.93765C56.9739 6.34212 56.8276 6.71827 56.674 7.06621C56.9599 7.44215 57.1037 7.74618 57.1013 7.9782C57.0939 8.2501 57.0328 8.4365 56.926 8.53763C56.8112 8.63854 56.5818 8.6883 56.2459 8.67914L56.1369 8.27602C56.2804 8.29594 56.4001 8.30721 56.5001 8.30993C56.5881 8.30833 56.6488 8.28598 56.6741 8.23865C56.6992 8.19932 56.7137 8.10768 56.7215 7.96784C56.7237 7.73982 56.5719 7.43557 56.2702 7.0552C56.4103 6.75891 56.5481 6.40253 56.6874 5.99018L56.0876 5.97382L56.0005 9.16863L55.6326 9.1586L55.7293 5.61192ZM53.632 5.7788L54.3677 5.79887C54.3309 5.68182 54.2939 5.57277 54.2565 5.47571L54.6461 5.42231C54.6789 5.53925 54.7114 5.66819 54.7396 5.80901L55.5313 5.8306L55.5214 6.19446L53.6221 6.14266L53.632 5.7788ZM55.3596 7.57857L55.3168 9.14599L54.937 9.13563L54.9426 8.9277L54.055 8.90349L54.0493 9.11142L53.6774 9.10127L53.7202 7.53386L55.3596 7.57857ZM54.0648 8.54363L54.9525 8.56784L54.9699 7.92807L54.0822 7.90386L54.0648 8.54363Z" fill="white"/>
<path d="M60.5093 9.25495L60.1813 9.24729L60.0937 8.88915L60.4414 8.90527C60.5454 8.90769 60.603 8.83702 60.6063 8.69706L60.6663 6.12576L59.1627 6.09067L59.1709 5.73876L61.0424 5.78244L60.9718 8.80962C60.9647 9.11353 60.8092 9.26195 60.5093 9.25495ZM57.7439 6.19359L58.1118 6.20218L58.0411 9.23335L57.6732 9.22477L57.7439 6.19359ZM58.4282 5.50537C58.6071 5.7256 58.7654 5.96937 58.8994 6.22856L58.5553 6.40058C58.4099 6.11711 58.2516 5.86935 58.0807 5.6493L58.4282 5.50537Z" fill="white"/>
<path d="M62.6558 5.65564C62.8038 5.85864 62.9474 6.08155 63.0826 6.3243L62.8321 6.44332L63.66 6.45987C63.8085 6.23479 63.9419 5.96541 64.0601 5.65571L64.4301 5.76312C64.3368 6.02531 64.2201 6.25903 64.0879 6.46843L64.8477 6.48362L64.8404 6.85154L63.5366 6.82548L63.5342 6.94945C63.5223 7.14126 63.4988 7.31682 63.4675 7.48023L65.0592 7.51205L65.0519 7.87997L63.6521 7.85199C63.8384 8.33981 64.3307 8.72973 65.129 9.02575L64.8978 9.3812C64.0649 9.02048 63.5421 8.55393 63.3214 7.98541C63.2457 8.17193 63.1543 8.33814 63.0475 8.48003C62.7683 8.83452 62.3189 9.10159 61.6992 9.28124L61.4979 8.94515C62.1177 8.7575 62.5387 8.51387 62.7647 8.21433C62.843 8.09987 62.9096 7.97317 62.9643 7.83824L61.5966 7.8109L61.6039 7.44297L63.0756 7.47239C63.111 7.30507 63.1385 7.12958 63.1502 6.94178L63.1527 6.8178L61.845 6.79166L61.8523 6.42373L62.7082 6.44084C62.5808 6.20625 62.4449 5.99949 62.3046 5.81665L62.6558 5.65564Z" fill="white"/>
<path d="M65.7293 5.83191L68.7568 5.88394L68.7504 6.25589L67.4746 6.23396L67.4578 7.20982L69.0136 7.23655L69.0071 7.6165L67.4513 7.58976L67.4279 8.95356C67.4231 9.23352 67.2726 9.37495 66.9807 9.36993L66.3447 9.35901L66.2711 8.98969C66.4748 9.00519 66.6707 9.01656 66.8547 9.01972C66.9826 9.02192 67.0477 8.96303 67.0496 8.85104L67.0714 7.58323L65.4476 7.55532L65.4541 7.17538L67.0779 7.20329L67.0947 6.22743L65.7229 6.20385L65.7293 5.83191Z" fill="white"/>
<path d="M71.3957 7.62845L71.3892 8.0724L72.0091 8.08153L72.0157 7.63758L71.3957 7.62845ZM71.384 8.42436L71.3767 8.92031L71.9966 8.92944L72.0039 8.43349L71.384 8.42436ZM71.3713 9.28427L71.3687 9.46425L70.9927 9.45871L71.0254 7.24295C70.9437 7.35776 70.854 7.46846 70.7604 7.57909L70.6383 7.17725C70.9605 6.75795 71.1912 6.30129 71.3267 5.79923L71.6936 5.87664C71.6346 6.0758 71.5638 6.26678 71.4811 6.44958L72.093 6.45859C72.0319 6.26567 71.9627 6.07263 71.8854 5.88747L72.2508 5.79684C72.3352 6.04211 72.4039 6.26315 72.449 6.46383L73.0609 6.47284L73.0556 6.8368L72.4036 6.8272L72.3969 7.28715L72.9688 7.29557L72.9636 7.65154L72.3916 7.64311L72.3851 8.08707L72.957 8.09549L72.9518 8.44745L72.3799 8.43903L72.3726 8.93497L73.0685 8.94522L73.0632 9.30918L71.3713 9.28427ZM72.0277 6.82167L71.4077 6.81254L71.401 7.27249L72.0209 7.28162L72.0277 6.82167ZM70.703 7.39823L70.6973 7.78618C70.5846 7.83653 70.4679 7.88282 70.3552 7.92916L70.3392 9.01704C70.3353 9.27702 70.1974 9.407 69.9294 9.40305L69.5695 9.39775L69.4909 9.02856C69.5987 9.04614 69.7025 9.05567 69.8025 9.05715C69.9065 9.05868 69.9592 9.01145 69.9606 8.91546L69.9731 8.06755C69.8204 8.11731 69.6637 8.16301 69.511 8.20476L69.4207 7.81939C69.6093 7.78216 69.794 7.73688 69.9788 7.68359L69.9911 6.84368L69.5112 6.83662L69.5166 6.46866L69.9965 6.47572L70.0069 5.7718L70.3869 5.77739L70.3765 6.48132L70.7485 6.4868L70.743 6.85476L70.3711 6.84928L70.3608 7.5492C70.4775 7.50292 70.5902 7.45257 70.703 7.39823Z" fill="white"/>
<path d="M73.6041 6.07265L75.092 6.09073L75.0876 6.4547L73.5997 6.43662L73.6041 6.07265ZM73.443 7.15077L75.2228 7.1724L75.2184 7.54037L74.3184 7.52944C74.1678 8.07565 74.0389 8.47411 73.9318 8.72883C74.1965 8.67604 74.4654 8.5993 74.7346 8.50257C74.645 8.30546 74.5553 8.12036 74.4654 7.94725L74.7872 7.79515C74.9671 8.13337 75.1386 8.50748 75.3017 8.91349L74.9717 9.07749L74.8708 8.82024C74.4491 8.95913 73.9957 9.06963 73.5067 9.15169L73.419 8.7906C73.4591 8.78309 73.4833 8.77138 73.4994 8.75957C73.6093 8.6049 73.7583 8.19468 73.9505 7.52496L73.4385 7.51874L73.443 7.15077ZM75.7828 5.86311L76.1588 5.86768L76.1493 6.64362L77.0133 6.65412C76.9974 7.95803 76.9677 8.76173 76.928 9.06527C76.8803 9.36871 76.6744 9.51822 76.3105 9.51379C76.2465 9.51302 76.1346 9.50366 75.9747 9.49371L75.8908 9.15667C76.0346 9.17042 76.1585 9.17992 76.2625 9.18119C76.4385 9.18333 76.5397 9.08855 76.574 8.89695C76.6003 8.70926 76.6199 8.08145 76.6408 7.01762L76.1449 7.0116L76.1444 7.04759C76.1184 8.19936 75.8322 9.03595 75.2818 9.5613L75.0009 9.30586C75.4906 8.83978 75.7478 8.08685 75.7685 7.04302L75.7689 7.00703L75.2609 7.00085L75.2654 6.63288L75.7734 6.63905L75.7828 5.86311Z" fill="white"/>
<path d="M79.2831 7.71603L79.2796 8.10401C79.0629 8.17405 78.8344 8.23599 78.5938 8.29782L78.5863 9.13379C78.5839 9.38978 78.4468 9.52054 78.1788 9.51812L77.7308 9.51407L77.6501 9.14933C77.7899 9.16659 77.9219 9.17578 78.0498 9.17694C78.1498 9.17784 78.2023 9.13032 78.2031 9.03432L78.209 8.38235C77.9686 8.43218 77.7241 8.47797 77.4678 8.51565L77.4192 8.1352C77.6956 8.0937 77.96 8.04808 78.2125 7.99836L78.219 7.28239L77.427 7.27523L77.4303 6.91125L78.2223 6.91841L78.2261 6.49442C78.0257 6.53261 77.8215 6.56277 77.6092 6.59285L77.5324 6.23214C78.093 6.17721 78.59 6.06569 79.0236 5.89361L79.1523 6.25078C78.9798 6.30923 78.7993 6.3636 78.6108 6.4139L78.6062 6.92188L79.4702 6.92968C79.449 6.61748 79.4401 6.27339 79.4435 5.8974L79.8275 5.90087C79.824 6.29286 79.8329 6.63695 79.8542 6.93315L81.0621 6.94407L81.0589 7.30806L79.8829 7.29743C79.9045 7.56163 79.9385 7.78195 79.9849 7.95838C80.0002 8.03452 80.0196 8.1027 80.0391 8.16688C80.2129 7.96044 80.3671 7.72582 80.4974 7.46299L80.8239 7.63795C80.6405 8.0043 80.4257 8.31838 80.1753 8.58012C80.2223 8.68855 80.2655 8.78095 80.3129 8.85338C80.4312 9.03446 80.5224 9.12728 80.5864 9.12786C80.6384 9.12833 80.6923 8.92081 80.748 8.5053L81.0824 8.68433C80.9773 9.2514 80.8267 9.53805 80.6347 9.53631C80.4627 9.53476 80.2838 9.41314 80.0979 9.17545C80.0228 9.07877 79.9558 8.97016 79.897 8.84162C79.6189 9.07112 79.3092 9.25232 78.964 9.38121L78.755 9.05131C79.1322 8.91871 79.462 8.72568 79.7443 8.47222C79.6975 8.3398 79.6587 8.20344 79.624 8.05912C79.57 7.84262 79.5283 7.58624 79.4989 7.29396L78.603 7.28586L78.5973 7.91384C78.8379 7.85201 79.0665 7.78607 79.2831 7.71603ZM80.2672 5.94085C80.5495 6.12341 80.7879 6.30557 80.9863 6.48737L80.7078 6.75686C80.5414 6.57935 80.3111 6.38926 80.009 6.18252L80.2672 5.94085Z" fill="white"/>
<path d="M82.2846 6.70034L84.2646 6.71085L84.2628 7.05485L83.4668 7.05062L83.4642 7.54262L84.1362 7.54618L84.1344 7.88218L83.4624 7.87861L83.4595 8.4346L83.8675 8.43677C83.7963 8.27639 83.721 8.13999 83.6417 8.01956L83.9422 7.92516C84.0335 8.05364 84.1128 8.19007 84.18 8.34243L83.9635 8.43728L84.3714 8.43944L84.3696 8.78344L82.1657 8.77174L82.1675 8.42774L83.0755 8.43256L83.0784 7.87657L82.4064 7.873L82.4082 7.53701L83.0802 7.54058L83.0828 7.04858L82.2828 7.04434L82.2846 6.70034ZM84.96 6.07854L84.9412 9.61049L84.5572 9.60845L84.558 9.45645L81.9661 9.44269L81.9653 9.59469L81.5813 9.59265L81.6 6.0607L84.96 6.07854ZM81.968 9.08669L84.5599 9.10045L84.5741 6.43649L81.9821 6.42273L81.968 9.08669Z" fill="white"/>
<path d="M85.6897 6.17754L87.1777 6.17891L87.1774 6.54291L85.6894 6.54154L85.6897 6.17754ZM85.5407 7.2574L87.3207 7.25904L87.3204 7.62704L86.4204 7.62621C86.2759 8.17408 86.1515 8.57397 86.0473 8.82987C86.3113 8.77411 86.5794 8.69436 86.8475 8.5946C86.7557 8.39852 86.6638 8.21444 86.572 8.04235L86.8921 7.88665C87.0758 8.22281 87.2515 8.59498 87.4191 8.99913L87.091 9.16683L86.9872 8.91073C86.5671 9.05435 86.1149 9.16993 85.6269 9.25748L85.5352 8.8974C85.5752 8.88944 85.5992 8.87746 85.6152 8.86547C85.7234 8.70957 85.8677 8.2977 86.0524 7.62587L85.5404 7.6254L85.5407 7.2574ZM87.8659 5.94354L88.2419 5.94388L88.2412 6.71988L89.1052 6.72068C89.104 8.02468 89.0833 8.82866 89.047 9.13263C89.0027 9.43658 88.7986 9.5884 88.4346 9.58806C88.3706 9.588 88.2586 9.5799 88.0986 9.57175L88.0109 9.23567C88.1549 9.24781 88.2789 9.25592 88.3829 9.25602C88.5589 9.25618 88.659 9.16027 88.6911 8.9683C88.7153 8.78032 88.7279 8.15233 88.7369 7.08834L88.2409 7.08788L88.2408 7.12388C88.2278 8.27587 87.951 9.11562 87.4065 9.64712L87.1227 9.39486C87.6072 8.9233 87.8559 8.16753 87.8648 7.12354L87.8649 7.08754L87.3569 7.08707L87.3572 6.71907L87.8652 6.71954L87.8659 5.94354Z" fill="white"/>
<path d="M89.9816 5.96305C90.2624 6.14588 90.4991 6.3249 90.6919 6.5081L90.429 6.77319C90.2603 6.59789 90.0275 6.40686 89.7306 6.20409L89.9816 5.96305ZM89.9057 6.94737C90.1705 7.12627 90.3912 7.30536 90.572 7.48461L90.3091 7.7497C90.1564 7.57834 89.9356 7.39125 89.6547 7.18842L89.9057 6.94737ZM90.2704 8.07787L90.607 8.20447C90.445 8.68914 90.2629 9.14591 90.0566 9.57077L89.708 9.41222C89.9262 8.97931 90.1123 8.53453 90.2704 8.07787ZM90.9699 6.01894L92.9259 6.0108L92.9306 7.13879L90.9746 7.14693L90.9699 6.01894ZM92.5614 6.86432L92.5607 6.70433L91.3448 6.70938L91.3454 6.86938L92.5614 6.86432ZM91.3437 6.44939L92.5597 6.44433L92.559 6.28833L91.343 6.29339L91.3437 6.44939ZM90.7312 7.29594L93.1632 7.28582L93.1667 8.13382L90.7347 8.14393L90.7312 7.29594ZM92.8215 7.85525L92.8203 7.56325L92.4403 7.56483L92.4415 7.85683L92.8215 7.85525ZM92.1215 7.85816L92.1203 7.56617L91.7763 7.5676L91.7775 7.85959L92.1215 7.85816ZM91.4575 7.86093L91.4563 7.56893L91.0723 7.57053L91.0736 7.86252L91.4575 7.86093ZM90.9807 8.62692L90.7647 8.62781L90.7634 8.30782L93.0474 8.29832L93.0485 8.57831C92.8733 8.77104 92.662 8.93592 92.4186 9.08094C92.695 9.15979 93.0072 9.22249 93.3554 9.26904L93.1447 9.58592C92.7124 9.50772 92.336 9.40528 92.0155 9.27862C91.6481 9.43215 91.2285 9.54189 90.7488 9.61589L90.5835 9.28457C90.9513 9.23904 91.283 9.16966 91.5826 9.07642C91.3421 8.94542 91.1414 8.79425 90.9807 8.62692ZM91.97 8.9308C92.1696 8.84197 92.3492 8.73722 92.5087 8.62056L91.3967 8.62518C91.5572 8.74052 91.7456 8.84374 91.97 8.9308Z" fill="white"/>
<path d="M95.4442 5.84985C95.5014 5.9773 95.5548 6.12079 95.6123 6.28024L97.0003 6.26679L97.0038 6.62678L96.3318 6.63329C96.2935 6.81367 96.2392 6.9902 96.1689 7.15889L97.0928 7.14994L97.0964 7.51792L94.2565 7.54543L94.2618 8.0854C94.2518 8.70953 94.1167 9.21486 93.8484 9.59748L93.5539 9.34432C93.767 9.03824 93.8749 8.62118 93.8778 8.08912L93.869 7.18117L94.6769 7.17334L94.5319 6.65072L93.8199 6.65762L93.8164 6.29763L95.2243 6.284C95.1711 6.15251 95.1099 6.02909 95.0448 5.91772L95.4442 5.84985ZM95.0529 7.1697L95.8049 7.16241C95.8753 6.99373 95.9295 6.81719 95.9678 6.63681L94.9039 6.64712L95.0529 7.1697Z" fill="white"/>
<path d="M98.8291 5.8891L99.2091 5.88309L99.2587 9.0267L99.7387 9.01912L99.689 5.87551L100.069 5.8695L100.119 9.01311L101.286 8.99466L101.292 9.36661L97.7248 9.42299L97.7189 9.05104L98.8788 9.03271L98.8291 5.8891ZM100.829 6.60159L101.166 6.69227C101.025 7.38259 100.838 7.98561 100.607 8.50534L100.265 8.39073C100.481 7.92324 100.672 7.32416 100.829 6.60159ZM98.0848 6.63695C98.2973 7.16966 98.4869 7.77874 98.6578 8.46413L98.3112 8.55762C98.1653 7.93184 97.9797 7.3267 97.7625 6.74606L98.0848 6.63695Z" fill="white"/>
<path d="M101.85 7.0913L102.14 5.91659L102.521 5.97215L102.33 6.71658L102.922 6.70346C102.991 6.40585 103.044 6.0926 103.085 5.76362L103.474 5.80301C103.433 6.11999 103.379 6.41725 103.317 6.69469L105.149 6.6541L105.157 7.01801L103.23 7.06073C103.192 7.19358 103.151 7.31853 103.114 7.43938L104.713 7.40393L104.721 7.72385C104.624 8.05408 104.434 8.35435 104.144 8.62484C104.452 8.78606 104.823 8.93387 105.254 9.06835L105.067 9.43261C104.579 9.26738 104.166 9.08046 103.834 8.87978C103.523 9.10673 103.139 9.31528 102.684 9.50542L102.476 9.14994C102.872 8.99712 103.213 8.82953 103.493 8.65128C103.228 8.4491 103.027 8.22949 102.894 7.99639C102.619 8.59462 102.266 9.07457 101.838 9.43615L101.634 9.08858C102.175 8.58846 102.572 7.9155 102.826 7.06968L101.85 7.0913ZM103.165 7.78232C103.303 8.01534 103.516 8.23068 103.804 8.42434C104.051 8.2148 104.23 7.99078 104.337 7.75636L103.165 7.78232ZM104.145 5.74413C104.425 5.94596 104.662 6.15277 104.854 6.36055L104.588 6.63851C104.424 6.43411 104.195 6.22313 103.894 6.00174L104.145 5.74413Z" fill="white"/>
<path d="M106.382 7.19326L106.934 7.17748L106.924 6.85761L106.257 6.87671L106.265 7.18058C106.272 7.42049 106.263 7.65285 106.245 7.86945L106.953 7.8492L106.943 7.51334L106.391 7.52912L106.382 7.19326ZM106.207 8.21468C106.144 8.65267 106.031 9.05206 105.869 9.40883L105.553 9.14175C105.791 8.63075 105.9 7.98335 105.882 7.19156L105.843 5.84811L108.902 5.76062L108.932 6.80019L108.376 6.81609L108.385 7.13596L108.985 7.1188L108.994 7.45467L108.395 7.47182L108.404 7.80769L109.14 7.78664L109.15 8.1305L108.75 8.14194L108.988 8.36321C108.869 8.51869 108.736 8.64653 108.595 8.74661C108.802 8.85673 109.037 8.93406 109.302 8.97849L109.132 9.34349C108.407 9.17616 107.884 8.78696 107.558 8.17602L107.063 8.1902L107.084 8.94989C107.323 8.88305 107.533 8.80902 107.71 8.7279L107.792 9.0737C107.472 9.19492 107.09 9.30186 106.649 9.39452L106.535 9.06563C106.654 9.01422 106.712 8.92854 106.708 8.80059L106.691 8.20084L106.207 8.21468ZM107.942 8.16504C108.042 8.31023 108.158 8.43498 108.289 8.54327C108.439 8.44697 108.575 8.31502 108.698 8.14342L107.942 8.16504ZM108.008 6.82661L107.288 6.8472L107.297 7.16707L108.017 7.14648L108.008 6.82661ZM107.317 7.83879L108.036 7.81821L108.027 7.48234L107.307 7.50293L107.317 7.83879ZM108.528 6.11946L106.237 6.18499L106.247 6.53685L108.538 6.47131L108.528 6.11946Z" fill="white"/>
<path d="M112.716 7.63966L112.769 9.14673L112.417 9.15904L112.409 8.94317L110.806 8.99922L110.815 9.23108L110.467 9.24324L110.426 8.06796C110.216 8.2434 109.977 8.39185 109.709 8.52128L109.505 8.1882C110.001 7.95072 110.383 7.64919 110.646 7.27977L109.579 7.31709L109.567 6.96531L110.854 6.9203C110.917 6.778 110.968 6.63214 111.003 6.48283L111.376 6.5138C111.341 6.65112 111.301 6.78058 111.258 6.90618L113.1 6.84174L113.113 7.19352L111.09 7.26425C111 7.42351 110.901 7.57106 110.789 7.70703L112.716 7.63966ZM110.795 8.66742L112.398 8.61137L112.376 7.98775L110.773 8.04381L110.795 8.66742ZM109.547 5.95736L110.427 5.92661L110.415 5.59082L110.783 5.57796L110.795 5.91375L111.79 5.87894L111.778 5.54315L112.146 5.53029L112.158 5.86608L113.033 5.83547L113.046 6.18726L112.17 6.21787L112.182 6.54967L111.814 6.56253L111.802 6.23073L110.807 6.26553L110.819 6.61332L110.451 6.62618L110.439 6.2784L109.56 6.30915L109.547 5.95736Z" fill="white"/>
<path d="M113.869 5.66711L116.847 5.54476L116.862 5.90445L115.567 5.95766L115.609 6.98879L117.2 6.92343L117.215 7.29112L115.624 7.35648L115.695 9.07104L115.311 9.0868L115.24 7.37225L113.638 7.43811L113.623 7.07042L115.225 7.00456L115.183 5.97343L113.884 6.0268L113.869 5.66711Z" fill="white"/>
<path d="M118.341 5.80624L117.718 5.83531L117.703 5.51565L119.022 5.45417C118.986 5.38773 118.952 5.32529 118.917 5.27085L119.326 5.18772C119.361 5.26215 119.401 5.34438 119.437 5.43479L120.82 5.37033L120.835 5.68998L120.199 5.7196L120.095 5.96475L121.034 5.92096L121.049 6.24861L117.557 6.41145L117.541 6.0838L118.448 6.04151L118.341 5.80624ZM118.844 6.02306L119.699 5.98319L119.804 5.73805L118.737 5.7878L118.844 6.02306ZM117.98 6.55989L120.641 6.4358L120.699 7.68245L118.038 7.80653L117.98 6.55989ZM120.314 7.41209L120.305 7.2123L118.387 7.30174L118.396 7.50152L120.314 7.41209ZM118.374 7.03003L120.292 6.9406L120.283 6.74481L118.365 6.83424L118.374 7.03003ZM117.894 7.96944L118.265 8.02822C118.187 8.34816 118.072 8.62583 117.919 8.86522L117.582 8.67672C117.732 8.4535 117.833 8.22053 117.894 7.96944ZM119.979 8.82121L119.005 8.86667C118.697 8.88101 118.539 8.74825 118.526 8.47654L118.502 7.9651L118.886 7.94721L118.906 8.37874C118.91 8.47863 118.973 8.52778 119.097 8.52201L119.892 8.48493C119.964 8.48158 120.015 8.46317 120.041 8.4339C120.08 8.39607 120.103 8.29088 120.111 8.11433L120.476 8.21343C120.457 8.49462 120.409 8.66904 120.324 8.72908C120.25 8.78057 120.135 8.81394 119.979 8.82121ZM119.465 7.756C119.633 7.90838 119.759 8.04263 119.849 8.16259L119.543 8.39707C119.445 8.2695 119.314 8.12743 119.151 7.97487L119.465 7.756ZM120.716 7.78178C120.948 8.03125 121.126 8.25118 121.251 8.43757L120.946 8.67205C120.812 8.46206 120.637 8.23395 120.417 7.98792L120.716 7.78178Z" fill="white"/>
<path d="M124.571 5.10696L124.687 7.33998L124.303 7.35981L124.207 5.4983L122.537 5.58466L122.634 7.45017L122.25 7.47L122.135 5.23299L124.571 5.10696ZM123.168 5.78033L123.544 5.76091L123.582 6.50791C123.586 6.72404 123.572 6.92102 123.541 7.10684L123.881 7.08928L123.93 8.03202C123.937 8.17982 123.993 8.25303 124.097 8.24766L124.68 8.2175C124.728 8.21502 124.775 8.19256 124.813 8.15455C124.855 8.11233 124.878 7.9429 124.879 7.64647L125.249 7.74751C125.225 8.13726 125.181 8.36785 125.116 8.44327C125.04 8.51131 124.934 8.55284 124.798 8.56786L124.011 8.60856C123.724 8.62343 123.571 8.4591 123.554 8.11955L123.509 7.2647C123.447 7.53227 123.351 7.76155 123.217 7.96073C122.971 8.30992 122.556 8.58768 121.975 8.80201L121.754 8.49298C122.336 8.27865 122.727 8.02209 122.924 7.72353C123.116 7.40919 123.208 7.01193 123.207 6.52734L123.168 5.78033Z" fill="white"/>
<path d="M126.789 5.4987L126.945 8.27835L126.581 8.29868L126.569 8.09101L125.938 8.12631L125.957 8.44981L125.593 8.47014L125.431 5.57467L125.811 5.55344C125.87 5.33376 125.914 5.11097 125.933 4.87755L126.315 4.90824C126.288 5.13013 126.239 5.33716 126.174 5.53311L126.789 5.4987ZM125.919 7.77486L126.55 7.73956L126.506 6.95279L125.875 6.98809L125.919 7.77486ZM125.856 6.64862L126.487 6.61332L126.446 5.87847L125.815 5.91377L125.856 6.64862ZM127.562 6.41698C127.843 6.72972 128.063 7.00188 128.217 7.24167L127.929 7.4701C127.762 7.215 127.538 6.93508 127.265 6.62588L127.562 6.41698ZM128.85 5.38739C128.927 6.76524 128.955 7.61702 128.933 7.93876C128.909 8.22854 128.725 8.38304 128.386 8.40204C128.306 8.4065 128.162 8.40656 127.961 8.40575L127.85 8.06344C128.026 8.06159 128.178 8.06109 128.306 8.05394C128.466 8.045 128.553 7.95599 128.568 7.78691C128.58 7.58588 128.555 6.91426 128.499 5.7756L127.497 5.83168C127.398 6.07756 127.283 6.30437 127.142 6.51255L126.898 6.22575C127.14 5.82761 127.298 5.35006 127.363 4.79356L127.741 4.82048C127.713 5.04636 127.669 5.25717 127.616 5.45644L128.85 5.38739Z" fill="white"/>
<path d="M129.65 4.71621C129.934 4.91162 130.174 5.10965 130.37 5.30631L130.118 5.58582C129.947 5.39571 129.71 5.19345 129.405 4.97926L129.65 4.71621ZM132.159 8.15674C131.94 8.16986 131.7 8.18017 131.444 8.19144C131.184 8.20294 130.971 8.19162 130.801 8.1617C130.639 8.12333 130.493 8.03584 130.365 7.90724C130.305 7.84269 130.255 7.81361 130.208 7.81647C130.124 7.82148 129.991 8.00974 129.809 8.38126L129.514 8.13841C129.694 7.80307 129.861 7.5887 130.016 7.49931L129.949 6.36932L129.414 6.40127L129.393 6.0499L130.283 5.99673L130.373 7.50604C130.394 7.52082 130.415 7.53959 130.437 7.56236C130.535 7.66468 130.636 7.73882 130.739 7.78476C130.862 7.83351 131.04 7.85896 131.276 7.85288C131.503 7.84328 131.771 7.8313 132.083 7.8127C132.278 7.80102 132.478 7.78511 132.677 7.76919C132.877 7.75328 133.032 7.73599 133.139 7.72157L133.07 8.10239L132.159 8.15674ZM131.279 5.01566L130.508 5.06167L130.489 4.74624L132.681 4.61534L132.697 4.88287C132.477 5.09634 132.24 5.27882 131.985 5.4383C131.993 5.44581 132.002 5.44933 132.01 5.45684L132.813 5.40891L132.919 7.18176C132.933 7.41734 132.808 7.54499 132.548 7.56049L132.241 7.57885L132.142 7.26818L132.427 7.26722C132.515 7.26198 132.56 7.21519 132.555 7.12735L132.542 6.92371L131.968 6.95805L132.007 7.61288L131.659 7.63362L131.62 6.97879L131.057 7.0124L131.097 7.67522L130.737 7.69668L130.609 5.54052L131.527 5.48569C131.39 5.40571 131.237 5.3227 131.068 5.24463L131.279 5.01566ZM131.743 5.27245C131.905 5.17859 132.055 5.07346 132.193 4.96106L131.298 5.01447C131.456 5.10124 131.605 5.18449 131.743 5.27245ZM131.022 6.42545L131.039 6.70495L131.602 6.67134L131.585 6.39183L131.022 6.42545ZM131.932 6.37109L131.949 6.65059L132.524 6.61626L132.507 6.33676L131.932 6.37109ZM132.489 6.02531L132.472 5.74581L131.897 5.78014L131.914 6.05965L132.489 6.02531ZM131.566 6.08039L131.55 5.80089L130.987 5.8345L131.003 6.114L131.566 6.08039Z" fill="white"/>
<path d="M136.784 4.63136L136.98 7.74522L136.613 7.7683L136.598 7.54075L135.9 7.58467L135.914 7.81621L135.547 7.8393L135.351 4.72145L136.784 4.63136ZM135.877 7.22937L136.576 7.18545L136.439 5.00975L135.741 5.05366L135.877 7.22937ZM133.948 5.2866C133.869 5.49198 133.776 5.68214 133.675 5.85684L133.33 5.66608C133.562 5.27476 133.721 4.86002 133.801 4.42209L134.182 4.47835C134.151 4.63256 134.112 4.77529 134.073 4.91403L135.163 4.84553L135.185 5.20881L134.642 5.24294C134.65 5.49095 134.653 5.72325 134.642 5.93634L135.265 5.89719L135.288 6.26047L134.613 6.30288C134.602 6.39171 134.588 6.48079 134.577 6.56164C134.836 6.79384 135.101 7.05374 135.375 7.34108L135.166 7.70694C134.896 7.37119 134.672 7.10879 134.491 6.91972C134.35 7.34943 134.089 7.72255 133.7 8.03558L133.433 7.74774C133.829 7.41424 134.077 7.02192 134.181 6.56652C134.192 6.48967 134.207 6.40857 134.218 6.32772L133.431 6.37716L133.408 6.01388L134.251 5.96093C134.261 5.74784 134.259 5.51554 134.251 5.26753L133.948 5.2866Z" fill="white"/>
<path d="M137.942 4.13605L138.89 5.94587L138.186 7.86405L137.858 7.74129L138.507 5.971L137.632 4.30068L137.942 4.13605ZM138.625 4.0913L139.573 5.90112L138.869 7.81929L138.54 7.69654L139.19 5.92624L138.299 4.25697L138.625 4.0913Z" fill="white"/>
</svg>
