<svg width="110" height="5" viewBox="0 0 110 5" fill="none" xmlns="http://www.w3.org/2000/svg">
<path d="M1.756 0.692L2.092 0.836L1.312 2.56L2.076 4.284L1.756 4.428L0.928 2.56L1.756 0.692ZM2.44 0.692L2.76 0.836L1.996 2.56L2.76 4.284L2.44 4.428L1.612 2.56L2.44 0.692ZM4.288 0.736C4.44 0.936 4.588 1.156 4.728 1.396L4.48 1.52H5.308C5.452 1.292 5.58 1.02 5.692 0.708L6.064 0.808C5.976 1.072 5.864 1.308 5.736 1.52H6.496V1.888H5.192V2.012C5.184 2.204 5.164 2.38 5.136 2.544H6.728V2.912H5.328C5.524 3.396 6.024 3.776 6.828 4.056L6.604 4.416C5.764 4.072 5.232 3.616 5 3.052C4.928 3.24 4.84 3.408 4.736 3.552C4.464 3.912 4.02 4.188 3.404 4.38L3.196 4.048C3.812 3.848 4.228 3.596 4.448 3.292C4.524 3.176 4.588 3.048 4.64 2.912H3.272V2.544H4.744C4.776 2.376 4.8 2.2 4.808 2.012V1.888H3.5V1.52H4.356C4.224 1.288 4.084 1.084 3.94 0.904L4.288 0.736ZM7.472 0.852H10.5V1.224H9.224V2.2H10.78V2.58H9.224V3.944C9.224 4.224 9.076 4.368 8.784 4.368H8.148L8.068 4C8.272 4.012 8.468 4.02 8.652 4.02C8.78 4.02 8.844 3.96 8.844 3.848V2.58H7.22V2.2H8.844V1.224H7.472V0.852ZM12.588 3.436V3.796C12.204 3.984 11.768 4.132 11.28 4.244L11.232 3.864C11.752 3.76 12.204 3.616 12.588 3.436ZM11.904 0.708L12.264 0.848C12.064 1.312 11.86 1.688 11.652 1.976C11.804 1.96 11.96 1.94 12.112 1.916C12.192 1.772 12.272 1.624 12.36 1.464L12.704 1.592C12.356 2.216 12.06 2.676 11.82 2.968C12.084 2.904 12.348 2.824 12.62 2.72V3.068C12.168 3.232 11.74 3.344 11.34 3.4L11.24 3.052C11.308 3.02 11.364 2.984 11.412 2.94C11.544 2.808 11.708 2.584 11.908 2.268C11.7 2.296 11.492 2.324 11.276 2.352L11.18 2C11.24 1.976 11.296 1.928 11.344 1.856C11.56 1.512 11.744 1.132 11.904 0.708ZM14.512 0.896V3.904H14.832V4.272H12.496V3.904H12.824V0.896H14.512ZM13.196 3.904H14.14V3.256H13.196V3.904ZM13.196 2.896H14.14V2.24H13.196V2.896ZM13.196 1.884H14.14V1.26H13.196V1.884ZM16.576 3.544V3.916C16.176 4.06 15.72 4.176 15.216 4.268L15.164 3.892C15.7 3.804 16.172 3.688 16.576 3.544ZM15.856 0.704L16.22 0.844C16.016 1.34 15.812 1.74 15.608 2.048C15.764 2.032 15.92 2.012 16.076 1.988C16.16 1.836 16.252 1.668 16.348 1.488L16.688 1.62C16.344 2.244 16.052 2.708 15.812 3.008C16.068 2.952 16.324 2.876 16.584 2.784V3.112C16.14 3.28 15.72 3.396 15.324 3.452L15.22 3.096C15.292 3.064 15.348 3.028 15.396 2.984C15.524 2.856 15.684 2.636 15.876 2.332C15.672 2.364 15.464 2.392 15.248 2.424L15.148 2.076C15.212 2.048 15.264 2 15.312 1.928C15.52 1.56 15.7 1.152 15.856 0.704ZM16.768 0.928H18.632V2.88H16.768V0.928ZM18.256 2.524V1.288H17.14V2.524H18.256ZM17.116 3.052L17.448 3.212C17.256 3.676 17.032 4.076 16.772 4.412L16.448 4.18C16.708 3.868 16.932 3.492 17.116 3.052ZM18.216 3.052C18.504 3.488 18.724 3.868 18.88 4.192L18.556 4.416C18.396 4.064 18.18 3.676 17.908 3.244L18.216 3.052ZM19.428 0.932H22.58V1.3H21.94V2.26H22.784V2.628H21.94V4.36H21.56V2.628H20.488C20.448 3.028 20.372 3.36 20.252 3.628C20.1 3.964 19.844 4.224 19.488 4.404L19.284 4.084C19.604 3.896 19.824 3.656 19.94 3.368C20.016 3.16 20.068 2.912 20.1 2.628H19.22V2.26H20.128C20.128 2.228 20.132 2.196 20.132 2.172V1.3H19.428V0.932ZM20.516 1.3V2.172C20.516 2.204 20.512 2.232 20.512 2.26H21.56V1.3H20.516ZM24.008 2.212H24.56V1.892H23.892V2.196C23.892 2.436 23.876 2.668 23.852 2.884H24.56V2.548H24.008V2.212ZM23.804 3.228C23.728 3.664 23.604 4.06 23.432 4.412L23.124 4.136C23.376 3.632 23.504 2.988 23.508 2.196V0.852H26.568V1.892H26.012V2.212H26.612V2.548H26.012V2.884H26.748V3.228H26.348L26.58 3.456C26.456 3.608 26.32 3.732 26.176 3.828C26.38 3.944 26.612 4.028 26.876 4.08L26.696 4.44C25.976 4.252 25.464 3.848 25.156 3.228H24.66V3.988C24.9 3.928 25.112 3.86 25.292 3.784L25.364 4.132C25.04 4.244 24.656 4.34 24.212 4.42L24.108 4.088C24.228 4.04 24.288 3.956 24.288 3.828V3.228H23.804ZM25.54 3.228C25.636 3.376 25.748 3.504 25.876 3.616C26.028 3.524 26.168 3.396 26.296 3.228H25.54ZM25.644 1.892H24.924V2.212H25.644V1.892ZM24.924 2.884H25.644V2.548H24.924V2.884ZM26.184 1.2H23.892V1.552H26.184V1.2ZM28.244 1.088C28.516 1.088 28.744 1.164 28.92 1.324C29.092 1.484 29.18 1.688 29.18 1.94C29.18 2.188 29.084 2.412 28.9 2.616C28.788 2.732 28.592 2.884 28.308 3.076C28 3.28 27.816 3.46 27.756 3.616H29.184V4H27.216C27.216 3.716 27.308 3.468 27.5 3.252C27.604 3.128 27.82 2.956 28.144 2.732C28.336 2.596 28.472 2.488 28.552 2.404C28.68 2.26 28.748 2.104 28.748 1.936C28.748 1.776 28.704 1.656 28.616 1.576C28.528 1.496 28.396 1.456 28.228 1.456C28.048 1.456 27.912 1.516 27.82 1.64C27.724 1.76 27.676 1.932 27.668 2.164H27.232C27.236 1.844 27.328 1.588 27.508 1.396C27.692 1.188 27.94 1.088 28.244 1.088ZM30.5984 1.088C30.9344 1.088 31.1944 1.228 31.3784 1.512C31.5464 1.776 31.6304 2.128 31.6304 2.572C31.6304 3.012 31.5464 3.368 31.3784 3.632C31.1944 3.912 30.9344 4.056 30.5984 4.056C30.2624 4.056 30.0024 3.912 29.8184 3.632C29.6504 3.368 29.5664 3.016 29.5664 2.572C29.5664 2.124 29.6504 1.772 29.8184 1.512C30.0024 1.228 30.2624 1.088 30.5984 1.088ZM30.5984 1.456C30.3624 1.456 30.1984 1.584 30.1024 1.844C30.0304 2.02 29.9984 2.264 29.9984 2.572C29.9984 2.876 30.0304 3.12 30.1024 3.3C30.1984 3.556 30.3624 3.688 30.5984 3.688C30.8304 3.688 30.9984 3.556 31.0944 3.3C31.1624 3.12 31.1984 2.876 31.1984 2.572C31.1984 2.264 31.1624 2.02 31.0944 1.844C30.9984 1.584 30.8304 1.456 30.5984 1.456ZM32.7249 1.144H33.0529V4H32.6169V1.668C32.4449 1.832 32.2249 1.952 31.9609 2.028V1.596C32.0889 1.564 32.2209 1.508 32.3649 1.428C32.5089 1.34 32.6289 1.248 32.7249 1.144ZM33.5537 1.144H35.4737V1.496L34.4617 4H33.9977L35.0337 1.54H33.5537V1.144ZM36.6648 1.504C36.4968 1.784 36.2888 2.016 36.0368 2.208L35.7808 1.888C36.1808 1.588 36.4488 1.188 36.5848 0.684L36.9768 0.756C36.9368 0.892 36.8968 1.016 36.8488 1.136H39.2808V1.504H38.0528V2.056H39.1408V2.412H38.0528V3.188H39.4048V3.56H38.0528V4.424H37.6728V3.56H35.8568V3.188H36.4848V2.056H37.6728V1.504H36.6648ZM36.8688 3.188H37.6728V2.412H36.8688V3.188ZM40.6648 2.916H43.0328V3.196C42.8288 3.444 42.5848 3.652 42.2968 3.828C42.6368 3.956 43.0288 4.052 43.4688 4.108L43.3048 4.436C42.7728 4.348 42.3168 4.208 41.9368 4.024C41.5368 4.212 41.0688 4.348 40.5408 4.436L40.3768 4.104C40.8208 4.04 41.2168 3.944 41.5608 3.812C41.3088 3.644 41.1008 3.456 40.9328 3.24H40.6648V2.916ZM41.3408 3.24C41.5008 3.4 41.6888 3.536 41.9088 3.656C42.1408 3.536 42.3448 3.396 42.5208 3.24H41.3408ZM40.4888 2.08V2.304C40.4728 3.176 40.3328 3.872 40.0608 4.4L39.7728 4.144C39.9888 3.704 40.1048 3.088 40.1128 2.304V1H41.6288C41.5848 0.912 41.5368 0.828 41.4888 0.756L41.8928 0.692C41.9368 0.784 41.9808 0.888 42.0208 1H43.3648V1.36H40.4888V1.728H41.0888V1.46H41.4568V1.728H42.3968V1.456H42.7648V1.728H43.3648V2.08H42.7648V2.696H41.0888V2.08H40.4888ZM41.4568 2.08V2.38H42.3968V2.08H41.4568ZM44.6408 1.508H46.6208V1.852H45.8248V2.344H46.4968V2.68H45.8248V3.236H46.2328C46.1608 3.076 46.0848 2.94 46.0048 2.82L46.3048 2.724C46.3968 2.852 46.4768 2.988 46.5448 3.14L46.3288 3.236H46.7368V3.58H44.5328V3.236H45.4408V2.68H44.7688V2.344H45.4408V1.852H44.6408V1.508ZM47.3128 0.872V4.404H46.9288V4.252H44.3368V4.404H43.9528V0.872H47.3128ZM44.3368 3.896H46.9288V1.232H44.3368V3.896ZM50.2448 2.884C50.1848 2.9 50.1248 2.912 50.0688 2.928C50.1288 3.112 50.1608 3.312 50.1648 3.528C50.1648 3.848 50.1168 4.072 50.0288 4.192C49.9248 4.336 49.6928 4.408 49.3288 4.408H49.2008L49.0728 4.072H49.2768C49.5008 4.072 49.6408 4.04 49.6968 3.98C49.7608 3.9 49.7968 3.752 49.7968 3.528C49.7968 3.488 49.7928 3.448 49.7928 3.412C49.3608 3.736 48.7928 4.004 48.0968 4.22L47.9048 3.896C48.6848 3.676 49.2928 3.392 49.7288 3.048C49.7048 2.968 49.6728 2.888 49.6408 2.816C49.2648 3.096 48.7648 3.324 48.1448 3.504L47.9568 3.176C48.6088 3.008 49.1168 2.796 49.4808 2.536C49.4408 2.484 49.4048 2.436 49.3648 2.388C49.3488 2.396 49.3368 2.4 49.3248 2.408C49.0648 2.532 48.6968 2.664 48.2248 2.804L48.0328 2.488C48.4008 2.412 48.7448 2.308 49.0648 2.176C49.1608 2.136 49.2528 2.096 49.3408 2.052H48.4448V1.7H50.8208V2.052H49.9328C49.8368 2.116 49.7448 2.176 49.6568 2.232C49.7728 2.36 49.8688 2.496 49.9488 2.64C50.3008 2.536 50.6368 2.384 50.9568 2.18L51.2128 2.436C51.0048 2.568 50.7848 2.68 50.5488 2.776C50.7328 3.244 51.0328 3.62 51.4408 3.908L51.1688 4.224C50.7448 3.868 50.4368 3.42 50.2448 2.884ZM49.7248 0.692C49.7688 0.796 49.8088 0.912 49.8488 1.04H51.3488V1.784H50.9688V1.392H48.2968V1.784H47.9168V1.04H49.4648C49.4248 0.936 49.3808 0.844 49.3368 0.76L49.7248 0.692ZM53.0248 3.512V3.872C52.6728 4.012 52.2768 4.124 51.8288 4.208L51.7808 3.84C52.2528 3.76 52.6688 3.648 53.0248 3.512ZM52.4888 0.708L52.8528 0.852C52.6528 1.316 52.4528 1.696 52.2448 1.988C52.4008 1.972 52.5568 1.956 52.7088 1.932C52.7848 1.804 52.8648 1.664 52.9448 1.516L53.2768 1.64C52.9288 2.24 52.6368 2.68 52.4048 2.956C52.6568 2.908 52.9128 2.84 53.1768 2.76V3.104C52.7448 3.232 52.3328 3.32 51.9408 3.368L51.8408 3.024C51.9088 3 51.9648 2.964 52.0128 2.916C52.1408 2.792 52.3048 2.58 52.5008 2.276C52.3008 2.304 52.0968 2.332 51.8888 2.356L51.7928 2.008C51.8528 1.984 51.9048 1.94 51.9528 1.872C52.1568 1.52 52.3368 1.132 52.4888 0.708ZM53.5848 1.212H53.2208V0.856H55.0288V1.092C54.9648 1.428 54.9048 1.716 54.8448 1.96H55.3408V2.172C55.2528 2.716 55.0768 3.176 54.8128 3.544C55.0128 3.748 55.2448 3.932 55.5088 4.092L55.2648 4.412C55.0008 4.236 54.7728 4.04 54.5808 3.824C54.3448 4.068 54.0608 4.268 53.7328 4.42L53.5208 4.072C53.8408 3.92 54.1088 3.732 54.3248 3.508C54.1288 3.228 53.9728 2.92 53.8608 2.584C53.7328 3.36 53.4808 3.968 53.1048 4.4L52.8208 4.152C53.3208 3.576 53.5768 2.656 53.5848 1.384V1.212ZM54.5488 3.244C54.7488 2.964 54.8848 2.648 54.9608 2.292H54.4088C54.4768 2.044 54.5528 1.684 54.6408 1.212H53.9528V1.384C53.9528 1.552 53.9448 1.712 53.9368 1.864C54.0408 2.388 54.2448 2.848 54.5488 3.244ZM57.4448 1.364H56.1048V1H59.1728V1.364H57.8288V3.796H59.4248V4.164H55.8448V3.796H57.4448V1.364ZM61.0088 0.752H61.3888V3.896H61.8688V0.752H62.2488V3.896H63.4168V4.268H59.8488V3.896H61.0088V0.752ZM62.9968 1.496L63.3328 1.592C63.1808 2.28 62.9848 2.88 62.7448 3.396L62.4048 3.276C62.6288 2.812 62.8288 2.216 62.9968 1.496ZM60.2528 1.488C60.4568 2.024 60.6368 2.636 60.7968 3.324L60.4488 3.412C60.3128 2.784 60.1368 2.176 59.9288 1.592L60.2528 1.488ZM64.3088 0.78C64.5648 0.972 64.7768 1.168 64.9528 1.36L64.6928 1.624C64.5408 1.436 64.3248 1.236 64.0488 1.028L64.3088 0.78ZM63.7968 1.92H64.6928V3.612C64.8168 3.508 64.9488 3.388 65.0928 3.252L65.1968 3.652C64.9368 3.892 64.6608 4.108 64.3688 4.296L64.2248 3.952C64.2888 3.896 64.3248 3.824 64.3248 3.74V2.284H63.7968V1.92ZM65.2248 2.396H67.1648V2.744C67.0488 3.1 66.8568 3.404 66.5888 3.66C66.8448 3.828 67.1568 3.98 67.5168 4.108L67.3128 4.436C66.9128 4.276 66.5808 4.092 66.3088 3.892C65.9968 4.116 65.6088 4.296 65.1528 4.432L64.9408 4.112C65.3648 3.988 65.7208 3.832 66.0088 3.64C65.7368 3.376 65.5488 3.084 65.4528 2.764H65.2248V2.396ZM65.8088 2.764C65.9008 3.008 66.0568 3.228 66.2808 3.428C66.4968 3.232 66.6648 3.012 66.7808 2.764H65.8088ZM65.5048 0.852H66.9208V1.692C66.9208 1.78 66.9688 1.828 67.0688 1.828H67.4208V2.176H66.9688C66.6848 2.176 66.5448 2.04 66.5448 1.776V1.208H65.8808V1.328C65.8808 1.744 65.6688 2.068 65.2488 2.296L64.9968 2.004C65.3328 1.852 65.5048 1.64 65.5048 1.368V0.852ZM69.0528 1.888H70.1008V0.716H70.4928V1.888H71.4848V2.264H70.4928V4.42H70.1008V2.264H69.0528V1.888ZM68.3248 0.752C68.5848 0.948 68.8048 1.144 68.9848 1.344L68.7248 1.608C68.5648 1.42 68.3448 1.22 68.0608 1.012L68.3248 0.752ZM67.7968 1.912H68.7208V3.616C68.8488 3.512 68.9808 3.392 69.1208 3.26L69.2208 3.648C68.9648 3.888 68.6888 4.104 68.3968 4.292L68.2528 3.952C68.3208 3.896 68.3568 3.828 68.3568 3.748V2.276H67.7968V1.912ZM73.4368 0.704H73.8288V1.396H75.2528V3.328H74.8728V3.1H73.8288V4.44H73.4368V3.1H72.3968V3.328H72.0168V1.396H73.4368V0.704ZM72.3968 2.728H73.4368V1.768H72.3968V2.728ZM73.8288 2.728H74.8728V1.768H73.8288V2.728ZM78.1608 4.28H77.2728C76.9608 4.28 76.8048 4.124 76.8048 3.82V1.556H77.1848V3.74C77.1848 3.852 77.2528 3.908 77.3888 3.908H78.0888C78.1688 3.908 78.2248 3.868 78.2608 3.792C78.3008 3.704 78.3328 3.44 78.3488 2.992L78.7088 3.112C78.6768 3.68 78.6168 4.016 78.5288 4.128C78.4488 4.228 78.3248 4.28 78.1608 4.28ZM76.2008 1.952L76.5648 2.028C76.4568 2.74 76.3008 3.356 76.1008 3.872L75.7728 3.668C75.9728 3.132 76.1128 2.56 76.2008 1.952ZM78.8888 1.844C79.1208 2.38 79.3288 2.948 79.5048 3.556L79.1568 3.712C78.9648 3.056 78.7528 2.472 78.5208 1.968L78.8888 1.844ZM77.4648 0.712C77.8168 1.116 78.0888 1.468 78.2808 1.772L77.9608 1.988C77.7608 1.66 77.4928 1.3 77.1528 0.908L77.4648 0.712ZM82.0968 0.748H82.4808C82.4808 1.092 82.4688 1.416 82.4448 1.712C82.6528 2.696 83.0128 3.48 83.5248 4.064L83.2528 4.384C82.8568 3.872 82.5528 3.256 82.3368 2.536L82.3048 2.692C82.1608 3.38 81.8208 3.944 81.2848 4.392L81.0288 4.08C81.4848 3.688 81.7808 3.204 81.9248 2.628C82.0368 2.144 82.0928 1.516 82.0968 0.748ZM80.3248 0.752C80.5848 0.948 80.8048 1.144 80.9848 1.344L80.7248 1.608C80.5648 1.42 80.3448 1.22 80.0608 1.012L80.3248 0.752ZM79.7968 1.912H80.7208V3.584C80.8448 3.48 80.9768 3.36 81.1208 3.224L81.2168 3.616C80.9608 3.852 80.6888 4.064 80.3968 4.256L80.2528 3.916C80.3208 3.86 80.3568 3.792 80.3568 3.708V2.276H79.7968V1.912ZM84.4488 1.876H86.8248V2.236H85.8408V2.836H86.9928V3.196H85.8408V3.932C86.1128 3.972 86.4448 3.992 86.8448 3.996C87.0448 3.996 87.2528 3.984 87.4608 3.968L87.3888 4.344H87.0128C86.1728 4.344 85.5688 4.268 85.2088 4.116C84.9528 3.996 84.7448 3.82 84.5848 3.588C84.4328 3.908 84.2448 4.18 84.0208 4.404L83.7728 4.1C84.1488 3.708 84.4048 3.18 84.5328 2.524L84.9008 2.588C84.8528 2.82 84.7928 3.04 84.7248 3.24C84.9128 3.552 85.1488 3.756 85.4288 3.844L85.4648 3.852V2.236H84.4488V1.876ZM87.3088 1.096V2.004H86.9368V1.448H84.3288V2.024H83.9568V1.096H85.4608C85.4048 0.968 85.3408 0.852 85.2768 0.748L85.6848 0.684C85.7408 0.808 85.7968 0.944 85.8488 1.096H87.3088ZM89.4448 1.364H88.1048V1H91.1728V1.364H89.8288V3.796H91.4248V4.164H87.8448V3.796H89.4448V1.364ZM93.6088 1.624C93.4248 2.008 93.2168 2.34 92.9888 2.62L92.7168 2.292C93.0488 1.904 93.3328 1.368 93.5648 0.688L93.9488 0.772C93.8928 0.94 93.8328 1.1 93.7728 1.252H95.4208V1.624H94.1368V2.196H95.2608V2.564H94.1368V3.152H95.2688V3.516H94.1368V4.42H93.7528V1.624H93.6088ZM92.2448 2.284C92.1328 2.42 92.0088 2.556 91.8808 2.688L91.7528 2.28C92.1648 1.828 92.4688 1.3 92.6648 0.7L93.0248 0.868C92.9208 1.172 92.7888 1.46 92.6288 1.732V4.42H92.2448V2.284ZM97.2848 1.38V4.164H96.9208V3.956H96.2888V4.28H95.9248V1.38H96.3048C96.3768 1.164 96.4328 0.944 96.4648 0.712L96.8448 0.764C96.8048 0.984 96.7448 1.188 96.6688 1.38H97.2848ZM96.2888 3.604H96.9208V2.816H96.2888V3.604ZM96.2888 2.476H96.9208V1.74H96.2888V2.476ZM98.0048 2.34C98.2688 2.668 98.4728 2.952 98.6128 3.2L98.3128 3.412C98.1608 3.148 97.9528 2.856 97.6968 2.532L98.0048 2.34ZM99.3488 1.384C99.3488 2.764 99.3288 3.616 99.2888 3.936C99.2488 4.224 99.0568 4.368 98.7168 4.368C98.6368 4.368 98.4928 4.36 98.2928 4.348L98.2008 4C98.3768 4.008 98.5288 4.016 98.6568 4.016C98.8168 4.016 98.9088 3.932 98.9328 3.764C98.9568 3.564 98.9688 2.892 98.9768 1.752H97.9728C97.8608 1.992 97.7328 2.212 97.5808 2.412L97.3528 2.112C97.6168 1.728 97.8008 1.26 97.8968 0.708L98.2728 0.756C98.2328 0.98 98.1768 1.188 98.1128 1.384H99.3488ZM100.173 0.76C100.445 0.972 100.673 1.184 100.857 1.392L100.589 1.656C100.429 1.456 100.205 1.24 99.9128 1.008L100.173 0.76ZM102.473 4.344C102.253 4.344 102.013 4.34 101.757 4.336C101.497 4.332 101.285 4.308 101.117 4.268C100.957 4.22 100.817 4.124 100.697 3.988C100.641 3.92 100.593 3.888 100.545 3.888C100.461 3.888 100.317 4.068 100.113 4.428L99.8328 4.168C100.033 3.844 100.213 3.64 100.373 3.56V2.428H99.8368V2.076H100.729V3.588C100.749 3.604 100.769 3.624 100.789 3.648C100.881 3.756 100.977 3.836 101.077 3.888C101.197 3.944 101.373 3.98 101.609 3.988C101.837 3.992 102.105 3.996 102.417 3.996C102.613 3.996 102.813 3.992 103.013 3.988C103.213 3.984 103.369 3.976 103.477 3.968L103.385 4.344H102.473ZM101.781 1.156H101.009V0.84H103.205V1.108C102.973 1.308 102.725 1.476 102.461 1.62C102.469 1.628 102.477 1.632 102.485 1.64H103.289V3.416C103.289 3.652 103.157 3.772 102.897 3.772H102.589L102.509 3.456L102.793 3.472C102.881 3.472 102.929 3.428 102.929 3.34V3.136H102.353V3.792H102.005V3.136H101.441V3.8H101.081V1.64H102.001C101.869 1.552 101.721 1.46 101.557 1.372L101.781 1.156ZM102.229 1.44C102.397 1.356 102.553 1.26 102.697 1.156H101.801C101.953 1.252 102.097 1.344 102.229 1.44ZM101.441 2.548V2.828H102.005V2.548H101.441ZM102.353 2.548V2.828H102.929V2.548H102.353ZM102.929 2.236V1.956H102.353V2.236H102.929ZM102.005 2.236V1.956H101.441V2.236H102.005ZM107.325 1.112V4.232H106.957V4.004H106.257V4.236H105.889V1.112H107.325ZM106.257 3.648H106.957V1.468H106.257V3.648ZM104.453 1.588C104.361 1.788 104.257 1.972 104.145 2.14L103.813 1.928C104.069 1.552 104.253 1.148 104.361 0.716L104.737 0.796C104.697 0.948 104.649 1.088 104.601 1.224H105.693V1.588H105.149C105.141 1.836 105.129 2.068 105.105 2.28H105.729V2.644H105.053C105.037 2.732 105.017 2.82 105.001 2.9C105.245 3.148 105.493 3.424 105.749 3.728L105.517 4.08C105.269 3.728 105.061 3.452 104.893 3.252C104.725 3.672 104.441 4.028 104.033 4.316L103.785 4.012C104.201 3.704 104.473 3.328 104.605 2.88C104.621 2.804 104.641 2.724 104.657 2.644H103.869V2.28H104.713C104.737 2.068 104.749 1.836 104.757 1.588H104.453ZM108.193 0.692L109.021 2.56L108.193 4.428L107.873 4.284L108.637 2.56L107.873 0.836L108.193 0.692ZM108.877 0.692L109.705 2.56L108.877 4.428L108.557 4.284L109.321 2.56L108.541 0.836L108.877 0.692Z" fill="white"/>
</svg>
