<svg width="82" height="5" viewBox="0 0 82 5" fill="none" xmlns="http://www.w3.org/2000/svg">
<path d="M1.756 0.692L2.092 0.836L1.312 2.56L2.076 4.284L1.756 4.428L0.928 2.56L1.756 0.692ZM2.44 0.692L2.76 0.836L1.996 2.56L2.76 4.284L2.44 4.428L1.612 2.56L2.44 0.692ZM4.288 0.736C4.44 0.936 4.588 1.156 4.728 1.396L4.48 1.52H5.308C5.452 1.292 5.58 1.02 5.692 0.708L6.064 0.808C5.976 1.072 5.864 1.308 5.736 1.52H6.496V1.888H5.192V2.012C5.184 2.204 5.164 2.38 5.136 2.544H6.728V2.912H5.328C5.524 3.396 6.024 3.776 6.828 4.056L6.604 4.416C5.764 4.072 5.232 3.616 5 3.052C4.928 3.24 4.84 3.408 4.736 3.552C4.464 3.912 4.02 4.188 3.404 4.38L3.196 4.048C3.812 3.848 4.228 3.596 4.448 3.292C4.524 3.176 4.588 3.048 4.64 2.912H3.272V2.544H4.744C4.776 2.376 4.8 2.2 4.808 2.012V1.888H3.5V1.52H4.356C4.224 1.288 4.084 1.084 3.94 0.904L4.288 0.736ZM7.472 0.852H10.5V1.224H9.224V2.2H10.78V2.58H9.224V3.944C9.224 4.224 9.076 4.368 8.784 4.368H8.148L8.068 4C8.272 4.012 8.468 4.02 8.652 4.02C8.78 4.02 8.844 3.96 8.844 3.848V2.58H7.22V2.2H8.844V1.224H7.472V0.852ZM13.104 2.556V3H13.724V2.556H13.104ZM13.104 3.352V3.848H13.724V3.352H13.104ZM13.104 4.212V4.392H12.728V2.176C12.648 2.292 12.56 2.404 12.468 2.516L12.34 2.116C12.656 1.692 12.88 1.232 13.008 0.728L13.376 0.8C13.32 1 13.252 1.192 13.172 1.376H13.784C13.72 1.184 13.648 0.992 13.568 0.808L13.932 0.712C14.02 0.956 14.092 1.176 14.14 1.376H14.752V1.74H14.1V2.2H14.672V2.556H14.1V3H14.672V3.352H14.1V3.848H14.796V4.212H13.104ZM13.724 1.74H13.104V2.2H13.724V1.74ZM12.408 2.336V2.724C12.296 2.776 12.18 2.824 12.068 2.872V3.96C12.068 4.22 11.932 4.352 11.664 4.352H11.304L11.22 3.984C11.328 4 11.432 4.008 11.532 4.008C11.636 4.008 11.688 3.96 11.688 3.864V3.016C11.536 3.068 11.38 3.116 11.228 3.16L11.132 2.776C11.32 2.736 11.504 2.688 11.688 2.632V1.792H11.208V1.424H11.688V0.72H12.068V1.424H12.44V1.792H12.068V2.492C12.184 2.444 12.296 2.392 12.408 2.336ZM15.34 0.968H16.828V1.332H15.34V0.968ZM15.192 2.048H16.972V2.416H16.072C15.928 2.964 15.804 3.364 15.7 3.62C15.964 3.564 16.232 3.484 16.5 3.384C16.408 3.188 16.316 3.004 16.224 2.832L16.544 2.676C16.728 3.012 16.904 3.384 17.072 3.788L16.744 3.956L16.64 3.7C16.22 3.844 15.768 3.96 15.28 4.048L15.188 3.688C15.228 3.68 15.252 3.668 15.268 3.656C15.376 3.5 15.52 3.088 15.704 2.416H15.192V2.048ZM17.516 0.732H17.892V1.508H18.756C18.756 2.812 18.736 3.616 18.7 3.92C18.656 4.224 18.452 4.376 18.088 4.376C18.024 4.376 17.912 4.368 17.752 4.36L17.664 4.024C17.808 4.036 17.932 4.044 18.036 4.044C18.212 4.044 18.312 3.948 18.344 3.756C18.368 3.568 18.38 2.94 18.388 1.876H17.892V1.912C17.88 3.064 17.604 3.904 17.06 4.436L16.776 4.184C17.26 3.712 17.508 2.956 17.516 1.912V1.876H17.008V1.508H17.516V0.732ZM21.668 1.664C21.652 1.728 21.636 1.788 21.62 1.844C21.708 2.26 21.824 2.624 21.964 2.936C22.096 2.568 22.168 2.144 22.184 1.664H21.668ZM21.792 3.324C21.656 3.048 21.536 2.736 21.436 2.388C21.372 2.532 21.308 2.668 21.236 2.788L20.996 2.492C21.22 2.052 21.372 1.46 21.452 0.716L21.824 0.78C21.8 0.964 21.776 1.136 21.744 1.3H22.76V1.664H22.528C22.504 2.316 22.384 2.872 22.168 3.332C22.368 3.664 22.6 3.924 22.872 4.108L22.66 4.416C22.4 4.228 22.176 3.98 21.984 3.672C21.796 3.964 21.56 4.212 21.28 4.412L21.084 4.096C21.38 3.896 21.616 3.64 21.792 3.324ZM19.896 2.576L20.252 2.62C20.228 2.684 20.208 2.744 20.184 2.808H21V3.116C20.928 3.356 20.8 3.568 20.616 3.752C20.78 3.824 20.94 3.904 21.092 3.984L20.888 4.28C20.732 4.184 20.544 4.088 20.324 3.988C20.06 4.16 19.728 4.296 19.332 4.4L19.156 4.088C19.456 4.016 19.716 3.928 19.932 3.816C19.768 3.748 19.592 3.68 19.408 3.608C19.504 3.44 19.592 3.284 19.668 3.132H19.248V2.808H19.812C19.844 2.728 19.872 2.648 19.896 2.576ZM20.268 3.608C20.444 3.468 20.572 3.308 20.66 3.132H20.04C19.984 3.244 19.924 3.352 19.86 3.456C20 3.504 20.136 3.552 20.268 3.608ZM19.62 0.78C19.708 0.932 19.784 1.092 19.852 1.268L19.58 1.392C19.5 1.2 19.412 1.028 19.32 0.88L19.62 0.78ZM20.768 0.776L21.036 0.904C20.956 1.072 20.856 1.24 20.732 1.404L20.468 1.268C20.596 1.1 20.696 0.936 20.768 0.776ZM19.256 1.46H20.012V0.724H20.36V1.46H21.056V1.792H20.36V1.812C20.572 1.9 20.788 2.004 21.008 2.12L20.808 2.42C20.632 2.28 20.484 2.168 20.36 2.088V2.536H20.012V1.86C19.88 2.148 19.66 2.4 19.352 2.616L19.164 2.308C19.444 2.148 19.64 1.976 19.76 1.792H19.256V1.46ZM26.72 1.108V2.044H26.336V1.468H23.664V2.044H23.28V1.108H24.808C24.752 0.98 24.696 0.86 24.632 0.752L25.068 0.68C25.124 0.808 25.18 0.948 25.232 1.108H26.72ZM23.908 1.824H26.084V2.176C25.832 2.352 25.552 2.528 25.24 2.7V2.896H26.784V3.264H25.24V4.016C25.24 4.268 25.108 4.396 24.844 4.396H24.352L24.26 4.052C24.4 4.056 24.552 4.06 24.716 4.06C24.812 4.06 24.86 4 24.86 3.884V3.264H23.22V2.896H24.86V2.544C25.14 2.396 25.36 2.272 25.52 2.176H23.908V1.824ZM27.236 1.364H28.848C28.744 1.172 28.616 0.992 28.464 0.82L28.844 0.68C28.988 0.872 29.124 1.1 29.248 1.364H30.764V1.74H30.152C29.96 2.348 29.676 2.856 29.3 3.268C29.716 3.608 30.236 3.892 30.852 4.116L30.64 4.436C29.996 4.196 29.46 3.896 29.036 3.536C28.584 3.936 28.028 4.232 27.368 4.424L27.164 4.088C27.812 3.92 28.344 3.656 28.768 3.292C28.328 2.852 28.02 2.332 27.848 1.74H27.236V1.364ZM28.212 1.74C28.38 2.232 28.652 2.664 29.032 3.032C29.356 2.676 29.6 2.244 29.76 1.74H28.212ZM32.336 0.684L32.692 0.852C32.556 1.18 32.38 1.492 32.164 1.784V4.42H31.788V2.228C31.624 2.396 31.448 2.56 31.26 2.716L31.14 2.32C31.68 1.852 32.08 1.308 32.336 0.684ZM34.236 4.348H33.488C33.168 4.348 33.008 4.188 33.008 3.868V2.748C32.864 2.824 32.716 2.9 32.564 2.972L32.392 2.612C32.608 2.516 32.816 2.416 33.008 2.304V0.748H33.388V2.068C33.78 1.808 34.128 1.512 34.424 1.18L34.688 1.48C34.308 1.872 33.876 2.224 33.388 2.528V3.816C33.388 3.928 33.448 3.984 33.576 3.984H34.172C34.264 3.984 34.332 3.952 34.376 3.892C34.416 3.832 34.444 3.62 34.452 3.252L34.804 3.368C34.776 3.828 34.724 4.108 34.652 4.204C34.576 4.3 34.436 4.348 34.236 4.348ZM37.052 0.672C37.108 0.8 37.16 0.944 37.216 1.104H38.604V1.464H37.932C37.892 1.644 37.836 1.82 37.764 1.988H38.688V2.356H35.848V2.896C35.832 3.52 35.692 4.024 35.42 4.404L35.128 4.148C35.344 3.844 35.456 3.428 35.464 2.896V1.988H36.272L36.132 1.464H35.42V1.104H36.828C36.776 0.972 36.716 0.848 36.652 0.736L37.052 0.672ZM36.648 1.988H37.4C37.472 1.82 37.528 1.644 37.568 1.464H36.504L36.648 1.988ZM40.376 0.752H40.756V3.896H41.236V0.752H41.616V3.896H42.784V4.268H39.216V3.896H40.376V0.752ZM42.364 1.496L42.7 1.592C42.548 2.28 42.352 2.88 42.112 3.396L41.772 3.276C41.996 2.812 42.196 2.216 42.364 1.496ZM39.62 1.488C39.824 2.024 40.004 2.636 40.164 3.324L39.816 3.412C39.68 2.784 39.504 2.176 39.296 1.592L39.62 1.488ZM44.66 2.324H43.916V3.848C43.916 3.944 43.968 3.996 44.076 3.996H44.772C44.892 3.996 44.968 3.964 44.996 3.904C45.028 3.84 45.052 3.704 45.068 3.5L45.424 3.62C45.392 3.968 45.344 4.18 45.272 4.252C45.208 4.316 45.076 4.348 44.884 4.348H43.912C43.66 4.348 43.536 4.228 43.536 3.988V2.088L43.344 2.28L43.12 1.972C43.5 1.624 43.848 1.212 44.164 0.74H44.444C44.796 1.108 45.132 1.492 45.444 1.892L45.196 2.152C44.852 1.696 44.568 1.344 44.336 1.1C44.128 1.408 43.896 1.704 43.632 1.988H45.032V3.092C45.028 3.312 44.908 3.428 44.668 3.444C44.512 3.444 44.364 3.44 44.224 3.432L44.132 3.076C44.28 3.092 44.408 3.1 44.52 3.1C44.612 3.1 44.66 3.052 44.66 2.964V2.324ZM45.624 1.072H45.996V3.54H45.624V1.072ZM46.316 4.376H45.712L45.624 4.012C45.82 4.028 46.008 4.036 46.184 4.036C46.28 4.036 46.328 3.976 46.328 3.86V0.732H46.708V3.956C46.708 4.236 46.576 4.376 46.316 4.376ZM50.572 0.752L50.756 1.088C50.412 1.208 50.032 1.28 49.616 1.308V1.956H50.852V2.32H50.468V4.416H50.096V2.32H49.616V2.724C49.596 3.428 49.44 3.988 49.148 4.408L48.88 4.12C49.108 3.784 49.232 3.32 49.248 2.724V0.996C49.74 0.988 50.18 0.904 50.572 0.752ZM47.232 1.036H47.944C47.896 0.932 47.84 0.832 47.78 0.74L48.172 0.676C48.22 0.784 48.272 0.904 48.32 1.036H49.06V1.388H47.232V1.036ZM47.192 1.944H47.616C47.564 1.804 47.504 1.672 47.436 1.552L47.768 1.428C47.832 1.572 47.896 1.744 47.952 1.944H48.332C48.396 1.776 48.452 1.604 48.5 1.424L48.84 1.544C48.792 1.692 48.736 1.824 48.676 1.944H49.084V2.292H48.344V2.652H49.016V2.996H48.344V4.068C48.344 4.308 48.212 4.428 47.948 4.428H47.74L47.656 4.076C47.716 4.092 47.772 4.1 47.824 4.1C47.92 4.1 47.968 4.06 47.968 3.98V2.996H47.256V2.652H47.968V2.292H47.192V1.944ZM47.496 3.172L47.84 3.244C47.744 3.648 47.612 4 47.436 4.3L47.124 4.1C47.3 3.812 47.424 3.5 47.496 3.172ZM48.748 3.144C48.852 3.4 48.936 3.632 48.996 3.84L48.676 3.96C48.612 3.712 48.532 3.468 48.436 3.228L48.748 3.144ZM51.412 2.004L51.728 0.836L52.108 0.9L51.9 1.64H52.492C52.568 1.344 52.628 1.032 52.676 0.704L53.064 0.752C53.016 1.068 52.956 1.364 52.888 1.64H54.72V2.004H52.792C52.752 2.136 52.708 2.26 52.668 2.38H54.268V2.7C54.164 3.028 53.968 3.324 53.672 3.588C53.976 3.756 54.344 3.912 54.772 4.056L54.576 4.416C54.092 4.24 53.684 4.044 53.356 3.836C53.04 4.056 52.652 4.256 52.192 4.436L51.992 4.076C52.392 3.932 52.736 3.772 53.02 3.6C52.76 3.392 52.564 3.168 52.436 2.932C52.148 3.524 51.784 3.996 51.348 4.348L51.152 3.996C51.704 3.508 52.116 2.844 52.388 2.004H51.412ZM52.712 2.724C52.844 2.96 53.052 3.18 53.336 3.38C53.588 3.176 53.772 2.956 53.884 2.724H52.712ZM53.736 0.708C54.012 0.916 54.244 1.128 54.432 1.34L54.16 1.612C54 1.404 53.776 1.188 53.48 0.96L53.736 0.708ZM56.008 2.212H56.56V1.892H55.892V2.196C55.892 2.436 55.876 2.668 55.852 2.884H56.56V2.548H56.008V2.212ZM55.804 3.228C55.728 3.664 55.604 4.06 55.432 4.412L55.124 4.136C55.376 3.632 55.504 2.988 55.508 2.196V0.852H58.568V1.892H58.012V2.212H58.612V2.548H58.012V2.884H58.748V3.228H58.348L58.58 3.456C58.456 3.608 58.32 3.732 58.176 3.828C58.38 3.944 58.612 4.028 58.876 4.08L58.696 4.44C57.976 4.252 57.464 3.848 57.156 3.228H56.66V3.988C56.9 3.928 57.112 3.86 57.292 3.784L57.364 4.132C57.04 4.244 56.656 4.34 56.212 4.42L56.108 4.088C56.228 4.04 56.288 3.956 56.288 3.828V3.228H55.804ZM57.54 3.228C57.636 3.376 57.748 3.504 57.876 3.616C58.028 3.524 58.168 3.396 58.296 3.228H57.54ZM57.644 1.892H56.924V2.212H57.644V1.892ZM56.924 2.884H57.644V2.548H56.924V2.884ZM58.184 1.2H55.892V1.552H58.184V1.2ZM60.652 1.38V4.164H60.288V3.956H59.656V4.28H59.292V1.38H59.672C59.744 1.164 59.8 0.944 59.832 0.712L60.212 0.764C60.172 0.984 60.112 1.188 60.036 1.38H60.652ZM59.656 3.604H60.288V2.816H59.656V3.604ZM59.656 2.476H60.288V1.74H59.656V2.476ZM61.372 2.34C61.636 2.668 61.84 2.952 61.98 3.2L61.68 3.412C61.528 3.148 61.32 2.856 61.064 2.532L61.372 2.34ZM62.716 1.384C62.716 2.764 62.696 3.616 62.656 3.936C62.616 4.224 62.424 4.368 62.084 4.368C62.004 4.368 61.86 4.36 61.66 4.348L61.568 4C61.744 4.008 61.896 4.016 62.024 4.016C62.184 4.016 62.276 3.932 62.3 3.764C62.324 3.564 62.336 2.892 62.344 1.752H61.34C61.228 1.992 61.1 2.212 60.948 2.412L60.72 2.112C60.984 1.728 61.168 1.26 61.264 0.708L61.64 0.756C61.6 0.98 61.544 1.188 61.48 1.384H62.716ZM65.084 1.56V1.748C65.084 1.836 65.128 1.884 65.216 1.884H66.188C66.26 1.884 66.316 1.864 66.356 1.828C66.396 1.784 66.424 1.648 66.44 1.42L66.792 1.532C66.76 1.872 66.7 2.076 66.616 2.14C66.536 2.204 66.416 2.236 66.256 2.236H65.1C64.844 2.236 64.716 2.1 64.716 1.828V0.736H65.084V1.228C65.548 1.132 65.996 0.996 66.424 0.82L66.632 1.12C66.088 1.316 65.572 1.464 65.084 1.56ZM63.72 4.376H63.304L63.22 4.012C63.348 4.028 63.472 4.036 63.588 4.036C63.684 4.036 63.736 3.984 63.736 3.884V3.032C63.576 3.088 63.412 3.136 63.248 3.184L63.156 2.804C63.352 2.764 63.544 2.712 63.736 2.652V1.82H63.228V1.456H63.736V0.736H64.1V1.456H64.512V1.82H64.1V2.524C64.252 2.464 64.404 2.4 64.548 2.328V2.716C64.4 2.78 64.252 2.844 64.1 2.9V3.98C64.1 4.244 63.972 4.376 63.72 4.376ZM66.644 2.488V4.412H66.264V4.236H65.124V4.412H64.748V2.488H66.644ZM65.124 3.9H66.264V3.524H65.124V3.9ZM65.124 3.188H66.264V2.82H65.124V3.188ZM67.168 2.904H69.58V2.7H69.964V2.904H70.828V3.272H69.964V4.044C69.964 4.296 69.824 4.424 69.552 4.424H69.048L68.96 4.052C69.12 4.068 69.276 4.076 69.42 4.076C69.524 4.076 69.58 4.032 69.58 3.952V3.272H67.168V2.904ZM70.24 0.852V1.868H67.956V2.072C67.956 2.18 68.012 2.236 68.128 2.236H70.22C70.284 2.232 70.328 2.208 70.352 2.168C70.372 2.136 70.392 2.04 70.408 1.88L70.768 1.996C70.744 2.18 70.716 2.308 70.688 2.388C70.636 2.516 70.52 2.58 70.34 2.588H67.98C67.708 2.588 67.572 2.464 67.572 2.22V0.852H70.24ZM67.956 1.524H69.86V1.196H67.956V1.524ZM68.168 3.32C68.428 3.524 68.648 3.728 68.828 3.932L68.54 4.216C68.388 4.02 68.172 3.808 67.896 3.584L68.168 3.32ZM72.064 1.26H71.44V0.94H72.76C72.728 0.872 72.696 0.808 72.664 0.752L73.076 0.688C73.108 0.764 73.144 0.848 73.176 0.94H74.56V1.26H73.924L73.808 1.5H74.748V1.828H71.252V1.5H72.16L72.064 1.26ZM72.556 1.5H73.412L73.528 1.26H72.46L72.556 1.5ZM71.668 1.996H74.332V3.244H71.668V1.996ZM73.96 2.956V2.756H72.04V2.956H73.96ZM72.04 2.484H73.96V2.288H72.04V2.484ZM71.516 3.4L71.884 3.476C71.792 3.792 71.664 4.064 71.5 4.296L71.172 4.092C71.332 3.876 71.444 3.648 71.516 3.4ZM73.56 4.348H72.584C72.276 4.348 72.124 4.208 72.124 3.936V3.424H72.508V3.856C72.508 3.956 72.568 4.008 72.692 4.008H73.488C73.56 4.008 73.612 3.992 73.64 3.964C73.68 3.928 73.708 3.824 73.724 3.648L74.084 3.764C74.052 4.044 73.996 4.216 73.908 4.272C73.832 4.32 73.716 4.348 73.56 4.348ZM73.096 3.26C73.256 3.42 73.376 3.56 73.46 3.684L73.144 3.904C73.052 3.772 72.928 3.624 72.772 3.464L73.096 3.26ZM74.344 3.344C74.564 3.604 74.732 3.832 74.848 4.024L74.532 4.244C74.408 4.028 74.244 3.792 74.036 3.536L74.344 3.344ZM78.188 0.868V3.104H77.804V1.24H76.132V3.108H75.748V0.868H78.188ZM76.752 1.468H77.128V2.216C77.12 2.432 77.096 2.628 77.056 2.812H77.396V3.756C77.396 3.904 77.448 3.98 77.552 3.98H78.136C78.184 3.98 78.232 3.96 78.272 3.924C78.316 3.884 78.348 3.716 78.364 3.42L78.728 3.54C78.684 3.928 78.628 4.156 78.56 4.228C78.48 4.292 78.372 4.328 78.236 4.336H77.448C77.16 4.336 77.016 4.164 77.016 3.824V2.968C76.94 3.232 76.832 3.456 76.688 3.648C76.424 3.984 75.996 4.24 75.404 4.424L75.2 4.104C75.792 3.92 76.196 3.684 76.408 3.396C76.616 3.092 76.728 2.7 76.752 2.216V1.468ZM79.56 0.692L80.388 2.56L79.56 4.428L79.24 4.284L80.004 2.56L79.24 0.836L79.56 0.692ZM80.244 0.692L81.072 2.56L80.244 4.428L79.924 4.284L80.688 2.56L79.908 0.836L80.244 0.692Z" fill="white"/>
</svg>
