<svg width="99" height="5" viewBox="0 0 99 5" fill="none" xmlns="http://www.w3.org/2000/svg">
<path d="M1.44496 0.692L1.78097 0.836L1.00096 2.56L1.76497 4.284L1.44496 4.428L0.616965 2.56L1.44496 0.692ZM2.12896 0.692L2.44897 0.836L1.68496 2.56L2.44897 4.284L2.12896 4.428L1.30097 2.56L2.12896 0.692ZM2.99696 0.992H3.67296V0.716H4.04096V0.992H5.33296V0.716H5.70096V0.992H6.37697V1.312H5.70096V2.564H6.43696V2.892H5.67297C5.86896 3.092 6.14496 3.248 6.49696 3.368L6.34097 3.696C6.06497 3.576 5.83697 3.44 5.65297 3.284V3.612H4.87296V3.928H6.21297V4.28H3.13696V3.928H4.50496V3.612H3.71696V3.292C3.54096 3.44 3.32896 3.572 3.08496 3.692L2.88896 3.372C3.24896 3.244 3.51696 3.084 3.70096 2.892H2.93696V2.564H3.67296V1.312H2.99696V0.992ZM3.73296 3.276H4.50496V2.996H4.87296V3.276H5.64496C5.50096 3.156 5.38496 3.028 5.29696 2.892H4.07296C3.98096 3.028 3.86896 3.156 3.73296 3.276ZM4.04096 2.564H5.33296V2.348H4.04096V2.564ZM4.04096 2.052H5.33296V1.836H4.04096V2.052ZM4.04096 1.54H5.33296V1.312H4.04096V1.54ZM7.16096 0.852H10.189V1.224H8.91297V2.2H10.469V2.58H8.91297V3.944C8.91297 4.224 8.76497 4.368 8.47296 4.368H7.83696L7.75696 4C7.96096 4.012 8.15696 4.02 8.34096 4.02C8.46896 4.02 8.53296 3.96 8.53296 3.848V2.58H6.90896V2.2H8.53296V1.224H7.16096V0.852ZM10.969 1.144H12.009C12.469 1.144 12.817 1.272 13.057 1.532C13.281 1.772 13.393 2.12 13.393 2.572C13.393 3.02 13.277 3.368 13.049 3.616C12.809 3.872 12.461 4 12.001 4H10.969V1.144ZM11.405 1.516V3.628H11.921C12.281 3.628 12.549 3.54 12.717 3.368C12.881 3.196 12.965 2.932 12.965 2.572C12.965 2.204 12.881 1.94 12.721 1.772C12.553 1.6 12.289 1.516 11.929 1.516H11.405ZM14.6562 1.144H15.1522L16.2522 4H15.7842L15.5162 3.264H14.2882L14.0202 4H13.5562L14.6562 1.144ZM14.4202 2.904H15.3842L14.9122 1.612H14.8962L14.4202 2.904ZM17.5315 1.088C17.8635 1.088 18.1235 1.156 18.3115 1.3C18.5115 1.448 18.6235 1.676 18.6515 1.988H18.2195C18.1795 1.804 18.1075 1.668 17.9955 1.588C17.8835 1.504 17.7235 1.464 17.5075 1.464C17.3195 1.464 17.1755 1.492 17.0755 1.548C16.9515 1.612 16.8915 1.716 16.8915 1.86C16.8915 1.988 16.9595 2.088 17.1035 2.164C17.1675 2.2 17.3315 2.26 17.5995 2.34C17.9835 2.46 18.2355 2.552 18.3475 2.62C18.5915 2.768 18.7155 2.972 18.7155 3.236C18.7155 3.492 18.6155 3.692 18.4155 3.84C18.2155 3.984 17.9355 4.056 17.5755 4.056C17.2275 4.056 16.9555 3.984 16.7595 3.848C16.5235 3.68 16.3955 3.416 16.3715 3.056H16.8035C16.8355 3.28 16.9155 3.444 17.0435 3.54C17.1595 3.628 17.3355 3.672 17.5755 3.672C17.7915 3.672 17.9635 3.632 18.0915 3.56C18.2195 3.488 18.2835 3.388 18.2835 3.26C18.2835 3.1 18.1915 2.976 18.0115 2.884C17.9475 2.852 17.7595 2.788 17.4435 2.692C17.0915 2.58 16.8755 2.504 16.7875 2.456C16.5675 2.324 16.4595 2.132 16.4595 1.884C16.4595 1.632 16.5635 1.436 16.7755 1.292C16.9755 1.156 17.2275 1.088 17.5315 1.088ZM20.0853 1.088C20.3573 1.088 20.5853 1.164 20.7613 1.324C20.9333 1.484 21.0213 1.688 21.0213 1.94C21.0213 2.188 20.9253 2.412 20.7413 2.616C20.6293 2.732 20.4333 2.884 20.1493 3.076C19.8413 3.28 19.6573 3.46 19.5973 3.616H21.0253V4H19.0573C19.0573 3.716 19.1493 3.468 19.3413 3.252C19.4453 3.128 19.6613 2.956 19.9853 2.732C20.1773 2.596 20.3133 2.488 20.3933 2.404C20.5213 2.26 20.5893 2.104 20.5893 1.936C20.5893 1.776 20.5453 1.656 20.4573 1.576C20.3693 1.496 20.2373 1.456 20.0693 1.456C19.8893 1.456 19.7533 1.516 19.6613 1.64C19.5653 1.76 19.5173 1.932 19.5093 2.164H19.0733C19.0773 1.844 19.1693 1.588 19.3493 1.396C19.5333 1.188 19.7813 1.088 20.0853 1.088ZM21.7837 3.428C21.8637 3.428 21.9357 3.456 21.9957 3.512C22.0517 3.568 22.0837 3.64 22.0837 3.728C22.0837 3.808 22.0517 3.88 21.9957 3.94C21.9357 3.992 21.8637 4.02 21.7837 4.02C21.6957 4.02 21.6277 3.992 21.5757 3.94C21.5157 3.88 21.4877 3.808 21.4877 3.728C21.4877 3.64 21.5157 3.568 21.5757 3.512C21.6277 3.456 21.6957 3.428 21.7837 3.428ZM23.5296 1.088C23.8656 1.088 24.1256 1.228 24.3096 1.512C24.4776 1.776 24.5616 2.128 24.5616 2.572C24.5616 3.012 24.4776 3.368 24.3096 3.632C24.1256 3.912 23.8656 4.056 23.5296 4.056C23.1936 4.056 22.9336 3.912 22.7496 3.632C22.5816 3.368 22.4976 3.016 22.4976 2.572C22.4976 2.124 22.5816 1.772 22.7496 1.512C22.9336 1.228 23.1936 1.088 23.5296 1.088ZM23.5296 1.456C23.2936 1.456 23.1296 1.584 23.0336 1.844C22.9616 2.02 22.9296 2.264 22.9296 2.572C22.9296 2.876 22.9616 3.12 23.0336 3.3C23.1296 3.556 23.2936 3.688 23.5296 3.688C23.7616 3.688 23.9296 3.556 24.0256 3.3C24.0936 3.12 24.1296 2.876 24.1296 2.572C24.1296 2.264 24.0936 2.02 24.0256 1.844C23.9296 1.584 23.7616 1.456 23.5296 1.456ZM26.38 1.38V4.164H26.016V3.956H25.384V4.28H25.02V1.38H25.4C25.472 1.164 25.528 0.944 25.56 0.712L25.94 0.764C25.9 0.984 25.84 1.188 25.764 1.38H26.38ZM25.384 3.604H26.016V2.816H25.384V3.604ZM25.384 2.476H26.016V1.74H25.384V2.476ZM27.1 2.34C27.364 2.668 27.568 2.952 27.708 3.2L27.408 3.412C27.256 3.148 27.048 2.856 26.792 2.532L27.1 2.34ZM28.444 1.384C28.444 2.764 28.424 3.616 28.384 3.936C28.344 4.224 28.152 4.368 27.812 4.368C27.732 4.368 27.588 4.36 27.388 4.348L27.296 4C27.472 4.008 27.624 4.016 27.752 4.016C27.912 4.016 28.004 3.932 28.028 3.764C28.052 3.564 28.064 2.892 28.072 1.752H27.068C26.956 1.992 26.828 2.212 26.676 2.412L26.448 2.112C26.712 1.728 26.896 1.26 26.992 0.708L27.368 0.756C27.328 0.98 27.272 1.188 27.208 1.384H28.444ZM30.532 0.704H30.924V1.396H32.348V3.328H31.968V3.1H30.924V4.44H30.532V3.1H29.492V3.328H29.112V1.396H30.532V0.704ZM29.492 2.728H30.532V1.768H29.492V2.728ZM30.924 2.728H31.968V1.768H30.924V2.728ZM32.992 1.068H33.564V0.724H33.936V1.068H34.512V1.412H33.936V1.684H34.464V3.18H33.932V3.468H34.568V3.808H33.932V4.408H33.564V3.808H32.964V3.468H33.564V3.18H33.068V1.684H33.564V1.412H32.992V1.068ZM34.12 2.868V2.584H33.416V2.868H34.12ZM33.416 2.28H34.12V1.996H33.416V2.28ZM34.576 1.216H35.248V0.724H35.616V1.216H36.448V1.584H35.616V1.96H36.296V2.312H35.616V2.768H36.504C36.492 3.336 36.456 3.688 36.396 3.832C36.336 4.028 36.204 4.128 36 4.132C35.936 4.132 35.86 4.124 35.772 4.116L35.66 3.772C35.78 3.788 35.88 3.796 35.964 3.796C36.032 3.788 36.076 3.728 36.096 3.612C36.116 3.544 36.128 3.38 36.132 3.12H35.616V4.408H35.248V3.12H34.612V2.768H35.248V2.312H34.696V1.96H35.248V1.584H34.576V1.216ZM39.228 0.728H39.612V1.912C39.936 2.144 40.268 2.408 40.604 2.704L40.368 3.06C40.072 2.752 39.82 2.512 39.612 2.336V4.408H39.228V0.728ZM37.692 2.3C37.9 2.408 38.088 2.532 38.264 2.676C38.424 2.356 38.532 2.004 38.592 1.62H37.88C37.688 2.068 37.432 2.436 37.112 2.732L36.848 2.404C37.296 1.988 37.6 1.428 37.76 0.724L38.14 0.788C38.104 0.948 38.064 1.104 38.016 1.256H38.964V1.592C38.828 2.8 38.244 3.716 37.208 4.332L36.948 4.008C37.432 3.736 37.812 3.392 38.088 2.976C37.892 2.816 37.692 2.692 37.492 2.596L37.692 2.3ZM44.26 0.856V3.1H43.896V1.212H42.88V3.1H42.516V0.856H44.26ZM44.16 4.34H43.764C43.524 4.34 43.404 4.212 43.404 3.964V3.264C43.356 3.412 43.296 3.548 43.228 3.668C43.032 4 42.708 4.256 42.26 4.436L42.052 4.116C42.492 3.932 42.792 3.696 42.952 3.412C43.104 3.108 43.188 2.716 43.204 2.232V1.472H43.564V2.232C43.556 2.56 43.516 2.848 43.452 3.1H43.76V3.888C43.76 3.964 43.796 4.004 43.868 4.004H44.1C44.148 4.004 44.188 3.98 44.212 3.936C44.244 3.888 44.264 3.744 44.272 3.504L44.604 3.612C44.576 3.964 44.528 4.172 44.46 4.244C44.396 4.308 44.296 4.34 44.16 4.34ZM41.208 1.648C41.408 1.888 41.592 2.132 41.768 2.372C41.852 2.06 41.908 1.724 41.936 1.372H40.98V1.004H42.292V1.292C42.268 1.836 42.18 2.324 42.036 2.764C42.192 2.996 42.336 3.232 42.468 3.468L42.196 3.74C42.1 3.556 41.996 3.368 41.876 3.176C41.684 3.592 41.428 3.96 41.116 4.272L40.868 3.988C41.196 3.656 41.452 3.26 41.628 2.796C41.428 2.504 41.204 2.204 40.952 1.892L41.208 1.648ZM45.404 0.78C45.66 0.972 45.872 1.168 46.048 1.36L45.788 1.624C45.636 1.436 45.42 1.236 45.144 1.028L45.404 0.78ZM44.892 1.92H45.788V3.612C45.912 3.508 46.044 3.388 46.188 3.252L46.292 3.652C46.032 3.892 45.756 4.108 45.464 4.296L45.32 3.952C45.384 3.896 45.42 3.824 45.42 3.74V2.284H44.892V1.92ZM46.32 2.396H48.26V2.744C48.144 3.1 47.952 3.404 47.684 3.66C47.94 3.828 48.252 3.98 48.612 4.108L48.408 4.436C48.008 4.276 47.676 4.092 47.404 3.892C47.092 4.116 46.704 4.296 46.248 4.432L46.036 4.112C46.46 3.988 46.816 3.832 47.104 3.64C46.832 3.376 46.644 3.084 46.548 2.764H46.32V2.396ZM46.904 2.764C46.996 3.008 47.152 3.228 47.376 3.428C47.592 3.232 47.76 3.012 47.876 2.764H46.904ZM46.6 0.852H48.016V1.692C48.016 1.78 48.064 1.828 48.164 1.828H48.516V2.176H48.064C47.78 2.176 47.64 2.04 47.64 1.776V1.208H46.976V1.328C46.976 1.744 46.764 2.068 46.344 2.296L46.092 2.004C46.428 1.852 46.6 1.64 46.6 1.368V0.852ZM50.148 1.888H51.196V0.716H51.588V1.888H52.58V2.264H51.588V4.42H51.196V2.264H50.148V1.888ZM49.42 0.752C49.68 0.948 49.9 1.144 50.08 1.344L49.82 1.608C49.66 1.42 49.44 1.22 49.156 1.012L49.42 0.752ZM48.892 1.912H49.816V3.616C49.944 3.512 50.076 3.392 50.216 3.26L50.316 3.648C50.06 3.888 49.784 4.104 49.492 4.292L49.348 3.952C49.416 3.896 49.452 3.828 49.452 3.748V2.276H48.892V1.912ZM53.376 2.256C53.252 2.412 53.12 2.564 52.976 2.708L52.864 2.332C53.272 1.872 53.576 1.336 53.768 0.724L54.116 0.884C54.02 1.172 53.9 1.444 53.752 1.7V4.412H53.376V2.256ZM53.984 1.664H54.776C54.78 1.596 54.784 1.532 54.784 1.468V0.732H55.148V1.468C55.148 1.532 55.144 1.6 55.14 1.664H56.452V2.032H55.652V3.908C55.652 3.968 55.68 4 55.744 4H56.056C56.088 4 56.12 3.976 56.152 3.936C56.18 3.888 56.2 3.692 56.212 3.352L56.552 3.46C56.52 3.892 56.472 4.148 56.416 4.224C56.352 4.3 56.26 4.34 56.148 4.348H55.644C55.404 4.348 55.288 4.224 55.288 3.976V2.032H55.12C55.028 3.084 54.7 3.876 54.132 4.404L53.852 4.16C54.364 3.688 54.668 2.98 54.756 2.032H53.984V1.664ZM55.664 0.78C55.912 0.952 56.124 1.124 56.296 1.3L56.036 1.56C55.888 1.392 55.68 1.208 55.416 1.016L55.664 0.78ZM57.716 1.664C57.616 1.864 57.508 2.052 57.388 2.22L57.02 1.992C57.308 1.616 57.516 1.216 57.64 0.788L58.02 0.868C57.976 1.02 57.928 1.164 57.876 1.3H58.572V0.732H58.952V1.3H60.24V1.664H58.952V2.332H60.516V2.696H59.456V3.752C59.456 3.908 59.512 3.988 59.632 3.988H59.98C60.024 3.988 60.064 3.964 60.104 3.92C60.144 3.868 60.168 3.664 60.184 3.304L60.548 3.42C60.508 3.876 60.452 4.148 60.388 4.228C60.312 4.308 60.208 4.348 60.08 4.352H59.524C59.22 4.352 59.072 4.176 59.072 3.824V2.696H58.412C58.368 3.148 58.272 3.484 58.12 3.708C57.936 3.98 57.62 4.216 57.18 4.416L56.912 4.076C57.308 3.92 57.592 3.732 57.76 3.516C57.896 3.34 57.984 3.064 58.024 2.696H56.96V2.332H58.572V1.664H57.716ZM61.92 2.424V4.396H61.544V2.468C61.408 2.848 61.24 3.196 61.032 3.508L60.864 3.076C61.168 2.712 61.388 2.3 61.528 1.836H60.948V1.472H61.544V0.724H61.92V1.472H62.416V1.836H61.92V2.02C62.116 2.2 62.312 2.404 62.508 2.628L62.288 2.96C62.148 2.744 62.024 2.564 61.92 2.424ZM63.956 1.296H63C63.048 1.848 63.196 2.352 63.448 2.804C63.7 2.364 63.868 1.86 63.956 1.296ZM63.228 3.148C62.896 2.592 62.7 1.976 62.636 1.296H62.488V0.932H64.32V1.292C64.208 2.016 63.996 2.64 63.676 3.168C63.924 3.512 64.232 3.824 64.608 4.104L64.348 4.412C63.996 4.128 63.696 3.82 63.456 3.492C63.184 3.848 62.852 4.152 62.468 4.404L62.224 4.096C62.628 3.828 62.964 3.512 63.228 3.148ZM64.964 1.364H66.576C66.472 1.172 66.344 0.992 66.192 0.82L66.572 0.68C66.716 0.872 66.852 1.1 66.976 1.364H68.492V1.74H67.88C67.688 2.348 67.404 2.856 67.028 3.268C67.444 3.608 67.964 3.892 68.58 4.116L68.368 4.436C67.724 4.196 67.188 3.896 66.764 3.536C66.312 3.936 65.756 4.232 65.096 4.424L64.892 4.088C65.54 3.92 66.072 3.656 66.496 3.292C66.056 2.852 65.748 2.332 65.576 1.74H64.964V1.364ZM65.94 1.74C66.108 2.232 66.38 2.664 66.76 3.032C67.084 2.676 67.328 2.244 67.488 1.74H65.94ZM69.732 0.688L70.088 0.852C69.988 1.168 69.856 1.468 69.696 1.748V4.412H69.324V2.3C69.212 2.444 69.092 2.58 68.968 2.712L68.844 2.308C69.244 1.844 69.54 1.304 69.732 0.688ZM70.404 0.976L70.776 1.024C70.744 1.204 70.708 1.376 70.664 1.536H71.144V0.736H71.524V1.536H72.408V1.908H71.524V2.768H72.556V3.136H71.524V4.396H71.144V3.136H70.008V2.768H71.144V1.908H70.54C70.44 2.16 70.32 2.388 70.176 2.596L69.932 2.28C70.164 1.924 70.324 1.488 70.404 0.976ZM73.584 2.452V2.952H74.472V2.452H73.584ZM74.472 3.308H73.584V3.624H73.204V1.244H74.472V0.728H74.852V1.244H76.144V3.308H74.852V3.712C74.852 3.9 74.936 3.996 75.104 3.996H75.976C76.056 3.996 76.12 3.972 76.16 3.932C76.192 3.892 76.216 3.744 76.228 3.496L76.592 3.62C76.568 3.964 76.52 4.172 76.448 4.248C76.372 4.316 76.236 4.352 76.04 4.352H75.016C74.652 4.352 74.472 4.156 74.472 3.768V3.308ZM74.852 2.952H75.768V2.452H74.852V2.952ZM75.768 2.104V1.604H74.852V2.104H75.768ZM74.472 1.604H73.584V2.104H74.472V1.604ZM76.968 2.396H78.62V1.884C78.936 1.7 79.24 1.484 79.532 1.228H77.388V0.872H80.044V1.228C79.74 1.528 79.392 1.812 79 2.076V2.396H80.488V2.768H79V3.992C79 4.252 78.868 4.384 78.608 4.384H77.908L77.804 4.016C78.004 4.024 78.224 4.028 78.456 4.028C78.564 4.028 78.62 3.976 78.62 3.872V2.768H76.968V2.396ZM80.948 1.164H82.536C82.468 1.02 82.396 0.884 82.316 0.764L82.74 0.692C82.816 0.832 82.888 0.988 82.956 1.164H84.512V1.528H80.948V1.164ZM83.388 1.576C83.832 1.92 84.204 2.264 84.508 2.608L84.228 2.888C83.968 2.56 83.6 2.208 83.128 1.828L83.388 1.576ZM83.356 2.332L83.708 2.488C83.524 2.836 83.304 3.14 83.04 3.404C83.456 3.692 83.964 3.908 84.564 4.056L84.328 4.412C83.704 4.236 83.176 3.988 82.744 3.664C82.304 4.008 81.772 4.264 81.148 4.428L80.916 4.076C81.516 3.928 82.024 3.704 82.436 3.408C82.164 3.156 81.936 2.868 81.756 2.544L82.084 2.356C82.248 2.66 82.464 2.932 82.732 3.164C82.988 2.924 83.196 2.644 83.356 2.332ZM82.04 1.58L82.316 1.824C82.012 2.224 81.636 2.568 81.188 2.864L80.94 2.544C81.376 2.272 81.744 1.948 82.04 1.58ZM88.356 1.796V2.88H88.58V3.232H87.64C87.848 3.588 88.168 3.868 88.604 4.072L88.432 4.432C87.932 4.148 87.568 3.78 87.336 3.332C87.16 3.76 86.788 4.128 86.22 4.432L85.972 4.112C86.472 3.88 86.808 3.584 86.98 3.232H86.108V2.88H86.364V1.908L86.356 1.912L86.132 1.616C86.52 1.368 86.784 1.06 86.924 0.696L87.292 0.744C87.26 0.832 87.224 0.916 87.184 0.996H87.992V1.268C87.888 1.472 87.788 1.648 87.688 1.796H88.356ZM86.7 2.88H87.096C87.136 2.668 87.164 2.416 87.172 2.128H86.7V2.88ZM87.46 2.88H88.02V2.128H87.524C87.516 2.424 87.496 2.672 87.46 2.88ZM87.304 1.796C87.4 1.656 87.5 1.496 87.596 1.316H86.992C86.856 1.492 86.7 1.652 86.516 1.796H87.304ZM85.36 4.368H85.02L84.936 4.004C85.04 4.02 85.136 4.028 85.228 4.028C85.324 4.028 85.372 3.976 85.372 3.876V3.028C85.228 3.084 85.088 3.132 84.944 3.18L84.848 2.796C85.024 2.756 85.196 2.704 85.372 2.64V1.788H84.928V1.424H85.372V0.724H85.748V1.424H86.124V1.788H85.748V2.488C85.88 2.424 86.012 2.36 86.14 2.288V2.672C86.012 2.74 85.88 2.804 85.748 2.868V3.972C85.748 4.236 85.616 4.368 85.36 4.368ZM89.496 2.14V2.724H90.056V2.14H89.496ZM90.056 1.8V1.208H89.496V1.8H90.056ZM89.488 3.068C89.46 3.612 89.364 4.064 89.2 4.42L88.912 4.16C89.072 3.812 89.152 3.368 89.156 2.828V0.864H90.4V3.992C90.4 4.264 90.276 4.4 90.032 4.4H89.712L89.62 4.064C89.732 4.076 89.832 4.084 89.928 4.084C90.012 4.084 90.056 4.012 90.056 3.872V3.068H89.488ZM91.028 2.672V4.1C91.236 3.988 91.412 3.844 91.56 3.676C91.328 3.38 91.168 3.044 91.08 2.672H91.028ZM91.028 4.112V4.416H90.672V0.864H92.356C92.356 1.384 92.332 1.728 92.284 1.9C92.236 2.068 92.084 2.152 91.828 2.152H91.492L91.392 1.832C91.456 1.832 91.544 1.836 91.656 1.836C91.74 1.836 91.804 1.828 91.844 1.816C91.884 1.804 91.916 1.768 91.94 1.712C91.964 1.644 91.98 1.476 91.988 1.208H91.028V2.336H92.38V2.656C92.308 3.048 92.188 3.384 92.02 3.66C92.184 3.816 92.376 3.956 92.592 4.084L92.404 4.404C92.176 4.268 91.976 4.116 91.808 3.952C91.644 4.136 91.448 4.288 91.224 4.408L91.028 4.112ZM91.404 2.672C91.484 2.932 91.604 3.168 91.768 3.38C91.888 3.172 91.98 2.936 92.044 2.672H91.404ZM94.052 0.704L94.44 0.76C94.4 0.856 94.356 0.948 94.308 1.032H96.02V1.34C95.78 1.616 95.488 1.856 95.148 2.056C95.576 2.216 96.052 2.324 96.58 2.372L96.408 2.728C95.788 2.656 95.228 2.504 94.732 2.268C94.252 2.484 93.692 2.64 93.06 2.736L92.884 2.38C93.42 2.312 93.9 2.2 94.316 2.044C94.124 1.932 93.948 1.804 93.784 1.668C93.648 1.784 93.5 1.892 93.336 1.992L93.104 1.688C93.572 1.42 93.888 1.092 94.052 0.704ZM94.728 1.868C95.004 1.732 95.248 1.572 95.464 1.388H94.06C94.048 1.4 94.04 1.408 94.036 1.416C94.244 1.588 94.476 1.74 94.728 1.868ZM94.44 2.512H94.816C94.816 2.656 94.804 2.792 94.784 2.92H96.164C96.156 3.62 96.096 4.04 95.984 4.176C95.872 4.312 95.672 4.384 95.392 4.384C95.256 4.384 95.088 4.376 94.896 4.364L94.8 4.02C95.008 4.028 95.176 4.036 95.304 4.044C95.508 4.04 95.636 3.996 95.688 3.916C95.74 3.832 95.772 3.612 95.784 3.26H94.7C94.664 3.356 94.624 3.448 94.576 3.532C94.376 3.892 93.908 4.188 93.168 4.424L92.916 4.116C93.568 3.924 93.996 3.692 94.196 3.416C94.228 3.364 94.26 3.312 94.284 3.26H93.16V2.92H94.4C94.424 2.792 94.44 2.656 94.44 2.512ZM97.288 0.692L98.116 2.56L97.288 4.428L96.968 4.284L97.732 2.56L96.968 0.836L97.288 0.692ZM97.972 0.692L98.8 2.56L97.972 4.428L97.652 4.284L98.416 2.56L97.636 0.836L97.972 0.692Z" fill="white"/>
</svg>
