<svg width="69" height="5" viewBox="0 0 69 5" fill="none" xmlns="http://www.w3.org/2000/svg">
<path d="M1.00502 0.692L1.34102 0.836L0.561023 2.56L1.32502 4.284L1.00502 4.428L0.177024 2.56L1.00502 0.692ZM1.68902 0.692L2.00902 0.836L1.24502 2.56L2.00902 4.284L1.68902 4.428L0.861024 2.56L1.68902 0.692ZM3.53702 0.736C3.68902 0.936 3.83702 1.156 3.97702 1.396L3.72902 1.52H4.55702C4.70102 1.292 4.82902 1.02 4.94102 0.708L5.31302 0.808C5.22502 1.072 5.11302 1.308 4.98502 1.52H5.74502V1.888H4.44102V2.012C4.43302 2.204 4.41302 2.38 4.38502 2.544H5.97702V2.912H4.57702C4.77302 3.396 5.27302 3.776 6.07702 4.056L5.85302 4.416C5.01302 4.072 4.48102 3.616 4.24902 3.052C4.17702 3.24 4.08902 3.408 3.98502 3.552C3.71302 3.912 3.26902 4.188 2.65302 4.38L2.44502 4.048C3.06102 3.848 3.47702 3.596 3.69702 3.292C3.77302 3.176 3.83702 3.048 3.88902 2.912H2.52102V2.544H3.99302C4.02502 2.376 4.04902 2.2 4.05702 2.012V1.888H2.74902V1.52H3.60502C3.47302 1.288 3.33302 1.084 3.18902 0.904L3.53702 0.736ZM6.72102 0.852H9.74902V1.224H8.47302V2.2H10.029V2.58H8.47302V3.944C8.47302 4.224 8.32502 4.368 8.03302 4.368H7.39702L7.31702 4C7.52102 4.012 7.71702 4.02 7.90102 4.02C8.02902 4.02 8.09302 3.96 8.09302 3.848V2.58H6.46902V2.2H8.09302V1.224H6.72102V0.852ZM10.513 0.916H11.649V1.22C11.457 1.556 11.265 1.84 11.081 2.072H11.673V2.284C11.657 2.788 11.561 3.212 11.377 3.564C11.477 3.66 11.581 3.732 11.693 3.78C12.029 3.92 12.553 3.992 13.273 4C13.545 4 13.825 3.988 14.113 3.972L14.037 4.348H13.445C12.529 4.348 11.869 4.252 11.469 4.06C11.365 4.008 11.269 3.944 11.181 3.872C11.013 4.08 10.813 4.252 10.581 4.388L10.389 4.056C10.605 3.936 10.781 3.784 10.921 3.6C10.749 3.376 10.601 3.096 10.473 2.76L10.793 2.644C10.897 2.888 11.005 3.096 11.125 3.264C11.241 3.012 11.309 2.72 11.333 2.392H10.601V2.12C10.837 1.856 11.049 1.568 11.233 1.26H10.513V0.916ZM11.997 1.812H12.357V3.208H12.793V1.312C12.537 1.336 12.261 1.352 11.965 1.352L11.849 1.012C12.593 1.012 13.217 0.92 13.721 0.744L13.905 1.064C13.685 1.148 13.437 1.216 13.157 1.264V2.012H13.825V2.356H13.157V3.208H13.957V3.568H11.997V1.812ZM15.685 3.512V3.872C15.341 4.012 14.949 4.124 14.513 4.212L14.469 3.84C14.933 3.76 15.337 3.648 15.685 3.512ZM15.021 0.712L15.381 0.852C15.209 1.316 15.033 1.696 14.857 1.988C14.985 1.972 15.113 1.952 15.245 1.928C15.309 1.8 15.381 1.664 15.453 1.524L15.801 1.656C15.481 2.244 15.213 2.676 14.997 2.948C15.205 2.9 15.417 2.836 15.633 2.76V3.104C15.249 3.232 14.885 3.32 14.541 3.368L14.437 3.024C14.505 3 14.561 2.964 14.609 2.916C14.729 2.792 14.877 2.576 15.053 2.272C14.877 2.3 14.693 2.328 14.509 2.356L14.417 2.012C14.473 1.988 14.525 1.944 14.573 1.872C14.741 1.524 14.893 1.136 15.021 0.712ZM15.961 0.948H16.733V0.712H17.101V0.948H17.929V1.292H17.101V1.568H17.997V1.804C17.941 2.06 17.865 2.312 17.773 2.56L17.409 2.456C17.489 2.3 17.553 2.12 17.609 1.92H15.837V1.568H16.733V1.292H15.961V0.948ZM15.749 3.008H16.321C16.137 2.852 15.953 2.728 15.765 2.632L15.941 2.372C16.153 2.476 16.349 2.6 16.525 2.752L16.357 3.008H16.829C16.837 2.936 16.845 2.86 16.849 2.784V2.028H17.217V2.784C17.213 2.864 17.209 2.936 17.201 3.008H18.097V3.36H17.133C17.117 3.408 17.105 3.452 17.089 3.492C17.465 3.668 17.813 3.872 18.129 4.104L17.917 4.432C17.597 4.16 17.277 3.944 16.949 3.776C16.933 3.804 16.913 3.832 16.897 3.856C16.705 4.104 16.389 4.296 15.957 4.432L15.745 4.1C16.165 3.972 16.449 3.808 16.601 3.608C16.653 3.532 16.697 3.448 16.737 3.36H15.749V3.008ZM16.253 1.968C16.449 2.06 16.629 2.176 16.797 2.316L16.621 2.584C16.445 2.424 16.265 2.304 16.085 2.216L16.253 1.968ZM18.589 0.968H20.077V1.332H18.589V0.968ZM18.441 2.048H20.221V2.416H19.321C19.177 2.964 19.053 3.364 18.949 3.62C19.213 3.564 19.481 3.484 19.749 3.384C19.657 3.188 19.565 3.004 19.473 2.832L19.793 2.676C19.977 3.012 20.153 3.384 20.321 3.788L19.993 3.956L19.889 3.7C19.469 3.844 19.017 3.96 18.529 4.048L18.437 3.688C18.477 3.68 18.501 3.668 18.517 3.656C18.625 3.5 18.769 3.088 18.953 2.416H18.441V2.048ZM20.765 0.732H21.141V1.508H22.005C22.005 2.812 21.985 3.616 21.949 3.92C21.905 4.224 21.701 4.376 21.337 4.376C21.273 4.376 21.161 4.368 21.001 4.36L20.913 4.024C21.057 4.036 21.181 4.044 21.285 4.044C21.461 4.044 21.561 3.948 21.593 3.756C21.617 3.568 21.629 2.94 21.637 1.876H21.141V1.912C21.129 3.064 20.853 3.904 20.309 4.436L20.025 4.184C20.509 3.712 20.757 2.956 20.765 1.912V1.876H20.257V1.508H20.765V0.732ZM22.749 0.752C23.029 0.936 23.265 1.116 23.457 1.3L23.193 1.564C23.025 1.388 22.793 1.196 22.497 0.992L22.749 0.752ZM22.669 1.736C22.933 1.916 23.153 2.096 23.333 2.276L23.069 2.54C22.917 2.368 22.697 2.18 22.417 1.976L22.669 1.736ZM23.029 2.868L23.365 2.996C23.201 3.48 23.017 3.936 22.809 4.36L22.461 4.2C22.681 3.768 22.869 3.324 23.029 2.868ZM23.737 0.812H25.693V1.94H23.737V0.812ZM25.325 1.664V1.504H24.109V1.664H25.325ZM24.109 1.244H25.325V1.088H24.109V1.244ZM23.493 2.088H25.925V2.936H23.493V2.088ZM25.581 2.656V2.364H25.201V2.656H25.581ZM24.881 2.656V2.364H24.537V2.656H24.881ZM24.217 2.656V2.364H23.833V2.656H24.217ZM23.737 3.42H23.521V3.1H25.805V3.38C25.629 3.572 25.417 3.736 25.173 3.88C25.449 3.96 25.761 4.024 26.109 4.072L25.897 4.388C25.465 4.308 25.089 4.204 24.769 4.076C24.401 4.228 23.981 4.336 23.501 4.408L23.337 4.076C23.705 4.032 24.037 3.964 24.337 3.872C24.097 3.74 23.897 3.588 23.737 3.42ZM24.725 3.728C24.925 3.64 25.105 3.536 25.265 3.42H24.153C24.313 3.536 24.501 3.64 24.725 3.728ZM28.301 0.672C28.357 0.8 28.409 0.944 28.465 1.104H29.853V1.464H29.181C29.141 1.644 29.085 1.82 29.013 1.988H29.937V2.356H27.097V2.896C27.081 3.52 26.941 4.024 26.669 4.404L26.377 4.148C26.593 3.844 26.705 3.428 26.713 2.896V1.988H27.521L27.381 1.464H26.669V1.104H28.077C28.025 0.972 27.965 0.848 27.901 0.736L28.301 0.672ZM27.897 1.988H28.649C28.721 1.82 28.777 1.644 28.817 1.464H27.753L27.897 1.988ZM31.625 0.752H32.005V3.896H32.485V0.752H32.865V3.896H34.033V4.268H30.465V3.896H31.625V0.752ZM33.613 1.496L33.949 1.592C33.797 2.28 33.601 2.88 33.361 3.396L33.021 3.276C33.245 2.812 33.445 2.216 33.613 1.496ZM30.869 1.488C31.073 2.024 31.253 2.636 31.413 3.324L31.065 3.412C30.929 2.784 30.753 2.176 30.545 1.592L30.869 1.488ZM34.433 1.756H34.837V0.74H35.209V1.756H35.581V2.116H35.209V3.328C35.353 3.264 35.493 3.2 35.633 3.128V3.508C35.277 3.684 34.897 3.836 34.489 3.956L34.393 3.58C34.545 3.548 34.693 3.508 34.837 3.464V2.116H34.433V1.756ZM36.437 0.716C36.489 0.86 36.541 1.024 36.589 1.208H37.093C37.157 1.044 37.201 0.872 37.233 0.696L37.609 0.748C37.573 0.912 37.525 1.064 37.465 1.208H37.961V2.628H35.717V1.208H36.233C36.177 1.056 36.121 0.912 36.057 0.78L36.437 0.716ZM37.633 2.32V1.52H36.977V2.32H37.633ZM36.681 2.32V1.52H36.045V2.32H36.681ZM36.393 1.644C36.457 1.792 36.513 1.964 36.565 2.156L36.325 2.22C36.277 2.044 36.221 1.88 36.157 1.72L36.393 1.644ZM37.261 1.624L37.513 1.688C37.465 1.892 37.401 2.072 37.325 2.232L37.089 2.148C37.153 2.008 37.213 1.832 37.261 1.624ZM37.817 2.848V4.416H37.453V4.272H36.237V4.416H35.873V2.848H37.817ZM36.237 3.964H37.453V3.7H36.237V3.964ZM36.237 3.412H37.453V3.152H36.237V3.412ZM40.669 0.7L41.045 0.752C41.037 0.86 41.025 0.964 41.017 1.068H41.973V1.412H40.977C40.961 1.508 40.949 1.596 40.937 1.684H41.725V3.956H42.089V4.3H39.445V3.956H39.841V1.684H40.565C40.581 1.592 40.593 1.5 40.601 1.412H39.617V1.068H40.641C40.649 0.944 40.661 0.82 40.669 0.7ZM40.205 3.956H41.361V3.688H40.205V3.956ZM40.205 3.388H41.361V3.132H40.205V3.388ZM40.205 2.828H41.361V2.576H40.205V2.828ZM40.205 2.276H41.361V2.024H40.205V2.276ZM38.921 2.22C38.801 2.388 38.673 2.552 38.537 2.708L38.413 2.304C38.785 1.848 39.057 1.312 39.229 0.704L39.573 0.864C39.497 1.12 39.401 1.364 39.289 1.596V4.416H38.921V2.22ZM44.057 1.552H44.485C44.381 1.304 44.273 1.084 44.157 0.892L44.465 0.744C44.585 0.948 44.701 1.172 44.813 1.42L44.553 1.552H45.001C45.137 1.288 45.253 1.004 45.357 0.7L45.721 0.828C45.621 1.096 45.509 1.336 45.389 1.552H45.821V2.9H45.401V3.892C45.401 3.972 45.429 4.016 45.485 4.016H45.633C45.673 4.016 45.705 3.988 45.721 3.94C45.745 3.884 45.761 3.72 45.769 3.444L46.101 3.548C46.077 3.94 46.033 4.172 45.969 4.252C45.909 4.324 45.817 4.36 45.697 4.36H45.373C45.157 4.36 45.049 4.228 45.049 3.968V2.9H44.765C44.725 3.604 44.477 4.116 44.025 4.432L43.825 4.1C44.181 3.864 44.377 3.464 44.413 2.9H44.057V1.552ZM45.477 2.564V1.888H44.405V2.564H45.477ZM42.505 1.772H43.049V1.284C42.889 1.308 42.729 1.328 42.565 1.344L42.489 0.992C42.969 0.952 43.397 0.872 43.773 0.756L43.905 1.108C43.749 1.148 43.585 1.188 43.417 1.224V1.772H43.877V2.136H43.417V2.344C43.597 2.528 43.781 2.736 43.969 2.968L43.757 3.288C43.625 3.064 43.513 2.884 43.417 2.74V4.384H43.049V2.768C42.921 3.092 42.761 3.388 42.569 3.66L42.397 3.22C42.681 2.9 42.889 2.536 43.017 2.136H42.505V1.772ZM46.513 1.052H48.233V1.424H47.653V2.192H48.073V2.432C48.333 1.956 48.509 1.384 48.605 0.712L48.977 0.756C48.945 0.956 48.905 1.148 48.861 1.332H50.037V1.704H49.773C49.741 2.344 49.593 2.884 49.321 3.324C49.553 3.652 49.825 3.908 50.133 4.092L49.917 4.412C49.605 4.224 49.329 3.964 49.097 3.636C48.825 3.96 48.473 4.22 48.049 4.416L47.817 4.104C48.273 3.912 48.633 3.644 48.889 3.308C48.733 3.028 48.601 2.716 48.489 2.372C48.409 2.532 48.321 2.688 48.225 2.832L48.013 2.552H47.653V3.472C47.845 3.416 48.029 3.356 48.205 3.296V3.648C47.717 3.824 47.149 3.984 46.501 4.132L46.397 3.784C46.477 3.768 46.553 3.748 46.633 3.732V1.908H46.989V3.648C47.093 3.624 47.189 3.6 47.285 3.576V1.424H46.513V1.052ZM49.101 2.968C49.285 2.604 49.385 2.184 49.401 1.704H48.753C48.729 1.772 48.709 1.84 48.685 1.904C48.797 2.304 48.933 2.66 49.101 2.968ZM50.473 1.884H52.057V1.644H52.409L52.197 1.504C52.373 1.248 52.497 0.976 52.569 0.684L52.937 0.764C52.913 0.852 52.885 0.94 52.857 1.02H54.005V1.356H53.325C53.405 1.48 53.469 1.596 53.521 1.7L53.189 1.828C53.117 1.668 53.033 1.508 52.937 1.356H52.721C52.657 1.484 52.589 1.6 52.517 1.712L52.441 1.664V1.884H54.025V2.228H52.441V2.46H53.753V3.236C53.753 3.46 53.633 3.572 53.393 3.572H53.121L53.025 3.236L53.285 3.256C53.345 3.256 53.377 3.22 53.377 3.156V2.792H52.441V3.116C52.865 3.492 53.421 3.784 54.117 4L53.917 4.348C53.349 4.132 52.857 3.844 52.441 3.476V4.424H52.057V3.488C51.657 3.864 51.201 4.156 50.697 4.368L50.469 4.028C51.085 3.812 51.617 3.504 52.057 3.108V2.792H51.185V3.556H50.813V2.46H52.057V2.228H50.473V1.884ZM51.037 1.356C50.949 1.496 50.857 1.628 50.753 1.748L50.425 1.544C50.673 1.276 50.849 0.988 50.953 0.68L51.317 0.76C51.285 0.852 51.249 0.94 51.213 1.02H52.169V1.356H51.581C51.661 1.48 51.733 1.596 51.789 1.704L51.445 1.828C51.373 1.668 51.285 1.508 51.189 1.356H51.037ZM55.901 1.38V4.164H55.537V3.956H54.905V4.28H54.541V1.38H54.921C54.993 1.164 55.049 0.944 55.081 0.712L55.461 0.764C55.421 0.984 55.361 1.188 55.285 1.38H55.901ZM54.905 3.604H55.537V2.816H54.905V3.604ZM54.905 2.476H55.537V1.74H54.905V2.476ZM56.621 2.34C56.885 2.668 57.089 2.952 57.229 3.2L56.929 3.412C56.777 3.148 56.569 2.856 56.313 2.532L56.621 2.34ZM57.965 1.384C57.965 2.764 57.945 3.616 57.905 3.936C57.865 4.224 57.673 4.368 57.333 4.368C57.253 4.368 57.109 4.36 56.909 4.348L56.817 4C56.993 4.008 57.145 4.016 57.273 4.016C57.433 4.016 57.525 3.932 57.549 3.764C57.573 3.564 57.585 2.892 57.593 1.752H56.589C56.477 1.992 56.349 2.212 56.197 2.412L55.969 2.112C56.233 1.728 56.417 1.26 56.513 0.708L56.889 0.756C56.849 0.98 56.793 1.188 56.729 1.384H57.965ZM58.789 0.76C59.061 0.972 59.289 1.184 59.473 1.392L59.205 1.656C59.045 1.456 58.821 1.24 58.529 1.008L58.789 0.76ZM61.089 4.344C60.869 4.344 60.629 4.34 60.373 4.336C60.113 4.332 59.901 4.308 59.733 4.268C59.573 4.22 59.433 4.124 59.313 3.988C59.257 3.92 59.209 3.888 59.161 3.888C59.077 3.888 58.933 4.068 58.729 4.428L58.449 4.168C58.649 3.844 58.829 3.64 58.989 3.56V2.428H58.453V2.076H59.345V3.588C59.365 3.604 59.385 3.624 59.405 3.648C59.497 3.756 59.593 3.836 59.693 3.888C59.813 3.944 59.989 3.98 60.225 3.988C60.453 3.992 60.721 3.996 61.033 3.996C61.229 3.996 61.429 3.992 61.629 3.988C61.829 3.984 61.985 3.976 62.093 3.968L62.001 4.344H61.089ZM60.397 1.156H59.625V0.84H61.821V1.108C61.589 1.308 61.341 1.476 61.077 1.62C61.085 1.628 61.093 1.632 61.101 1.64H61.905V3.416C61.905 3.652 61.773 3.772 61.513 3.772H61.205L61.125 3.456L61.409 3.472C61.497 3.472 61.545 3.428 61.545 3.34V3.136H60.969V3.792H60.621V3.136H60.057V3.8H59.697V1.64H60.617C60.485 1.552 60.337 1.46 60.173 1.372L60.397 1.156ZM60.845 1.44C61.013 1.356 61.169 1.26 61.313 1.156H60.417C60.569 1.252 60.713 1.344 60.845 1.44ZM60.057 2.548V2.828H60.621V2.548H60.057ZM60.969 2.548V2.828H61.545V2.548H60.969ZM61.545 2.236V1.956H60.969V2.236H61.545ZM60.621 2.236V1.956H60.057V2.236H60.621ZM65.941 1.112V4.232H65.573V4.004H64.873V4.236H64.505V1.112H65.941ZM64.873 3.648H65.573V1.468H64.873V3.648ZM63.069 1.588C62.977 1.788 62.873 1.972 62.761 2.14L62.429 1.928C62.685 1.552 62.869 1.148 62.977 0.716L63.353 0.796C63.313 0.948 63.265 1.088 63.217 1.224H64.309V1.588H63.765C63.757 1.836 63.745 2.068 63.721 2.28H64.345V2.644H63.669C63.653 2.732 63.633 2.82 63.617 2.9C63.861 3.148 64.109 3.424 64.365 3.728L64.133 4.08C63.885 3.728 63.677 3.452 63.509 3.252C63.341 3.672 63.057 4.028 62.649 4.316L62.401 4.012C62.817 3.704 63.089 3.328 63.221 2.88C63.237 2.804 63.257 2.724 63.273 2.644H62.485V2.28H63.329C63.353 2.068 63.365 1.836 63.373 1.588H63.069ZM66.809 0.692L67.637 2.56L66.809 4.428L66.489 4.284L67.253 2.56L66.489 0.836L66.809 0.692ZM67.493 0.692L68.321 2.56L67.493 4.428L67.173 4.284L67.937 2.56L67.157 0.836L67.493 0.692Z" fill="white"/>
</svg>
