<svg width="94" height="5" viewBox="0 0 94 5" fill="none" xmlns="http://www.w3.org/2000/svg">
<path d="M1.756 0.692L2.092 0.836L1.312 2.56L2.076 4.284L1.756 4.428L0.928 2.56L1.756 0.692ZM2.44 0.692L2.76 0.836L1.996 2.56L2.76 4.284L2.44 4.428L1.612 2.56L2.44 0.692ZM4.288 0.736C4.44 0.936 4.588 1.156 4.728 1.396L4.48 1.52H5.308C5.452 1.292 5.58 1.02 5.692 0.708L6.064 0.808C5.976 1.072 5.864 1.308 5.736 1.52H6.496V1.888H5.192V2.012C5.184 2.204 5.164 2.38 5.136 2.544H6.728V2.912H5.328C5.524 3.396 6.024 3.776 6.828 4.056L6.604 4.416C5.764 4.072 5.232 3.616 5 3.052C4.928 3.24 4.84 3.408 4.736 3.552C4.464 3.912 4.02 4.188 3.404 4.38L3.196 4.048C3.812 3.848 4.228 3.596 4.448 3.292C4.524 3.176 4.588 3.048 4.64 2.912H3.272V2.544H4.744C4.776 2.376 4.8 2.2 4.808 2.012V1.888H3.5V1.52H4.356C4.224 1.288 4.084 1.084 3.94 0.904L4.288 0.736ZM7.472 0.852H10.5V1.224H9.224V2.2H10.78V2.58H9.224V3.944C9.224 4.224 9.076 4.368 8.784 4.368H8.148L8.068 4C8.272 4.012 8.468 4.02 8.652 4.02C8.78 4.02 8.844 3.96 8.844 3.848V2.58H7.22V2.2H8.844V1.224H7.472V0.852ZM11.58 2.312C11.476 2.448 11.368 2.584 11.256 2.712L11.128 2.308C11.504 1.852 11.776 1.32 11.952 0.712L12.296 0.872C12.208 1.168 12.092 1.452 11.952 1.716V4.42H11.58V2.312ZM12.496 0.856H14.572V2.208H13.776V2.776H14.68V3.128H13.776V3.964C13.904 3.98 14.056 3.992 14.228 4C14.452 4 14.66 3.996 14.852 3.988L14.784 4.348H14.4C13.824 4.344 13.428 4.284 13.22 4.172C13.004 4.064 12.824 3.888 12.688 3.648C12.576 3.956 12.44 4.22 12.28 4.436L12.04 4.136C12.316 3.716 12.504 3.156 12.604 2.456L12.964 2.52C12.924 2.776 12.876 3.008 12.82 3.224C12.876 3.368 12.952 3.492 13.048 3.604C13.152 3.724 13.272 3.812 13.404 3.868V2.208H12.496V0.856ZM14.204 1.856V1.204H12.868V1.856H14.204ZM15.548 0.76C15.812 0.968 16.036 1.176 16.22 1.384L15.948 1.656C15.792 1.456 15.572 1.244 15.284 1.012L15.548 0.76ZM17.836 4.344C17.62 4.344 17.384 4.34 17.132 4.336C16.876 4.332 16.668 4.308 16.504 4.268C16.344 4.22 16.208 4.124 16.088 3.988C16.036 3.92 15.988 3.888 15.94 3.888C15.86 3.888 15.716 4.068 15.512 4.428L15.232 4.168C15.432 3.844 15.612 3.64 15.772 3.56V2.428H15.232V2.076H16.128V3.592C16.144 3.608 16.164 3.624 16.184 3.648C16.272 3.756 16.368 3.836 16.468 3.888C16.584 3.944 16.756 3.98 16.988 3.988C17.212 3.992 17.476 3.996 17.784 3.996C17.976 3.996 18.176 3.992 18.38 3.988C18.58 3.984 18.736 3.976 18.844 3.968L18.752 4.344H17.836ZM16.456 1.32H16.896V0.716H17.26V1.32H17.804V0.72H18.172V1.32H18.648V1.676H18.172V2.384H18.776V2.744H18.172V3.832H17.804V2.744H17.168C17.056 3.204 16.856 3.544 16.56 3.768L16.332 3.464C16.556 3.304 16.712 3.064 16.8 2.744H16.316V2.384H16.872C16.888 2.248 16.896 2.108 16.896 1.96V1.676H16.456V1.32ZM17.26 1.676V1.872C17.26 2.056 17.248 2.224 17.232 2.384H17.804V1.676H17.26ZM20.904 1.468H22.024V0.712H22.408V1.468H22.82V1.836H22.408V3.94C22.408 4.244 22.248 4.4 21.932 4.4H21.324L21.244 4.028C21.436 4.044 21.624 4.052 21.8 4.052C21.948 4.052 22.024 3.98 22.024 3.844V1.836H20.904V1.468ZM19.52 1.752C19.752 2.008 19.972 2.26 20.176 2.516C20.304 2.188 20.376 1.836 20.396 1.46H19.332V1.092H20.736V1.372C20.728 1.904 20.624 2.392 20.42 2.836C20.572 3.044 20.712 3.248 20.844 3.452L20.564 3.732C20.464 3.556 20.352 3.38 20.228 3.2C20.012 3.552 19.724 3.872 19.372 4.168L19.156 3.836C19.516 3.564 19.796 3.244 20 2.884C19.784 2.596 19.536 2.296 19.264 1.992L19.52 1.752ZM21.172 2.24C21.432 2.56 21.632 2.848 21.772 3.096L21.472 3.304C21.324 3.044 21.128 2.76 20.884 2.452L21.172 2.24ZM25.5 0.728H25.884V1.912C26.208 2.144 26.54 2.408 26.876 2.704L26.64 3.06C26.344 2.752 26.092 2.512 25.884 2.336V4.408H25.5V0.728ZM23.964 2.3C24.172 2.408 24.36 2.532 24.536 2.676C24.696 2.356 24.804 2.004 24.864 1.62H24.152C23.96 2.068 23.704 2.436 23.384 2.732L23.12 2.404C23.568 1.988 23.872 1.428 24.032 0.724L24.412 0.788C24.376 0.948 24.336 1.104 24.288 1.256H25.236V1.592C25.1 2.8 24.516 3.716 23.48 4.332L23.22 4.008C23.704 3.736 24.084 3.392 24.36 2.976C24.164 2.816 23.964 2.692 23.764 2.596L23.964 2.3ZM27.676 0.78C27.932 0.972 28.144 1.168 28.32 1.36L28.06 1.624C27.908 1.436 27.692 1.236 27.416 1.028L27.676 0.78ZM27.164 1.92H28.06V3.612C28.184 3.508 28.316 3.388 28.46 3.252L28.564 3.652C28.304 3.892 28.028 4.108 27.736 4.296L27.592 3.952C27.656 3.896 27.692 3.824 27.692 3.74V2.284H27.164V1.92ZM28.592 2.396H30.532V2.744C30.416 3.1 30.224 3.404 29.956 3.66C30.212 3.828 30.524 3.98 30.884 4.108L30.68 4.436C30.28 4.276 29.948 4.092 29.676 3.892C29.364 4.116 28.976 4.296 28.52 4.432L28.308 4.112C28.732 3.988 29.088 3.832 29.376 3.64C29.104 3.376 28.916 3.084 28.82 2.764H28.592V2.396ZM29.176 2.764C29.268 3.008 29.424 3.228 29.648 3.428C29.864 3.232 30.032 3.012 30.148 2.764H29.176ZM28.872 0.852H30.288V1.692C30.288 1.78 30.336 1.828 30.436 1.828H30.788V2.176H30.336C30.052 2.176 29.912 2.04 29.912 1.776V1.208H29.248V1.328C29.248 1.744 29.036 2.068 28.616 2.296L28.364 2.004C28.7 1.852 28.872 1.64 28.872 1.368V0.852ZM32.42 1.888H33.468V0.716H33.86V1.888H34.852V2.264H33.86V4.42H33.468V2.264H32.42V1.888ZM31.692 0.752C31.952 0.948 32.172 1.144 32.352 1.344L32.092 1.608C31.932 1.42 31.712 1.22 31.428 1.012L31.692 0.752ZM31.164 1.912H32.088V3.616C32.216 3.512 32.348 3.392 32.488 3.26L32.588 3.648C32.332 3.888 32.056 4.104 31.764 4.292L31.62 3.952C31.688 3.896 31.724 3.828 31.724 3.748V2.276H31.164V1.912ZM36.968 1.392C36.848 1.608 36.7 1.804 36.528 1.976L36.292 1.672C36.56 1.408 36.74 1.084 36.836 0.7L37.212 0.748C37.188 0.848 37.16 0.944 37.128 1.032H38.64V1.336C38.52 1.608 38.392 1.832 38.256 2.008L37.972 1.784C38.064 1.676 38.152 1.544 38.232 1.392H36.968ZM35.568 0.792C35.832 0.96 36.052 1.132 36.236 1.308L35.972 1.564C35.82 1.4 35.6 1.224 35.312 1.036L35.568 0.792ZM36.088 1.772L36.376 1.988C36.084 2.344 35.78 2.64 35.468 2.872L35.22 2.592C35.54 2.36 35.828 2.084 36.088 1.772ZM38.352 2.92V4.416H37.98V4.244H36.036V4.416H35.664V2.92H38.352ZM36.036 3.888H37.98V3.276H36.036V3.888ZM37.348 1.48L37.704 1.516C37.688 1.612 37.672 1.7 37.648 1.788C37.812 2.14 38.212 2.388 38.852 2.532L38.668 2.864C38.104 2.712 37.712 2.476 37.496 2.148C37.44 2.236 37.38 2.316 37.312 2.388C37.12 2.58 36.776 2.736 36.288 2.848L36.148 2.516C36.552 2.432 36.84 2.312 37.016 2.156C37.196 1.996 37.308 1.768 37.348 1.48ZM40.664 2.004C40.612 2.06 40.56 2.116 40.504 2.172L40.268 1.868C40.592 1.548 40.808 1.16 40.92 0.704L41.304 0.76C41.272 0.888 41.232 1.008 41.192 1.124H42.728C42.728 2.636 42.708 3.568 42.668 3.92C42.628 4.228 42.432 4.384 42.088 4.384C42.012 4.384 41.88 4.376 41.692 4.368L41.6 4.028C41.768 4.04 41.916 4.048 42.036 4.048C42.188 4.048 42.28 3.948 42.304 3.752C42.328 3.528 42.34 2.772 42.348 1.484H41.028C40.948 1.628 40.86 1.76 40.76 1.888H41.944V3.768H40.664V2.004ZM41.588 3.448V2.98H41.032V3.448H41.588ZM41.032 2.668H41.588V2.208H41.032V2.668ZM39.692 0.752C39.948 0.948 40.168 1.144 40.348 1.344L40.088 1.608C39.928 1.42 39.708 1.22 39.428 1.012L39.692 0.752ZM39.152 1.912H40.076V3.596C40.184 3.496 40.3 3.384 40.424 3.26L40.528 3.66C40.288 3.896 40.028 4.108 39.756 4.292L39.612 3.952C39.676 3.896 39.712 3.824 39.712 3.744V2.276H39.152V1.912ZM45.112 0.696C45.148 0.796 45.184 0.904 45.22 1.024H46.776V1.376H43.22V1.024H44.808C44.772 0.932 44.732 0.848 44.688 0.768L45.112 0.696ZM46.128 4.4H45.796L45.708 4.06L46.016 4.076C46.164 4.076 46.24 4.02 46.24 3.916V2.904H43.76V4.412H43.4V2.576H46.6V3.996C46.6 4.264 46.44 4.4 46.128 4.4ZM43.848 1.564H46.156V2.396H43.848V1.564ZM45.792 2.108V1.852H44.212V2.108H45.792ZM44.188 3.096H45.816V3.936H44.188V3.096ZM45.48 3.656V3.376H44.528V3.656H45.48ZM47.912 1.944V2.248C47.892 3.144 47.72 3.856 47.392 4.392L47.128 4.112C47.384 3.664 47.524 3.04 47.548 2.248V0.976C48.62 0.964 49.576 0.88 50.416 0.724L50.604 1.064C49.804 1.2 48.904 1.28 47.912 1.296V1.592H49.168C49.184 1.484 49.196 1.38 49.208 1.276L49.588 1.324C49.58 1.416 49.568 1.504 49.556 1.592H50.78V1.944H49.496C49.472 2.044 49.452 2.14 49.428 2.236H50.44V3.632H50.076V2.588H48.584V3.636H48.22V2.236H49.044C49.068 2.136 49.088 2.04 49.108 1.944H47.912ZM49.588 3.512C50.028 3.668 50.424 3.86 50.784 4.084L50.576 4.412C50.192 4.152 49.8 3.948 49.396 3.796L49.588 3.512ZM49.228 2.716L49.596 2.74C49.548 3.212 49.404 3.576 49.156 3.824C48.908 4.076 48.524 4.276 48.008 4.42L47.804 4.068C48.268 3.956 48.612 3.8 48.832 3.596C49.052 3.388 49.184 3.096 49.228 2.716ZM51.58 2.4H54.428V3.44H53.184V3.616H54.508V3.86H53.184V4.048H54.8V4.336H51.2V4.048H52.808V3.86H51.5V3.616H52.808V3.44H51.58V2.4ZM54.068 3.216V3.024H53.184V3.216H54.068ZM52.808 3.216V3.024H51.94V3.216H52.808ZM51.94 2.816H52.808V2.624H51.94V2.816ZM53.184 2.624V2.816H54.068V2.624H53.184ZM51.668 0.78H54.344V1.796H51.668V0.78ZM53.98 1.58V1.396H52.032V1.58H53.98ZM52.032 1.18H53.98V1H52.032V1.18ZM51.2 1.964H54.8V2.236H51.2V1.964ZM55.412 2.004L55.728 0.836L56.108 0.9L55.9 1.64H56.492C56.568 1.344 56.628 1.032 56.676 0.704L57.064 0.752C57.016 1.068 56.956 1.364 56.888 1.64H58.72V2.004H56.792C56.752 2.136 56.708 2.26 56.668 2.38H58.268V2.7C58.164 3.028 57.968 3.324 57.672 3.588C57.976 3.756 58.344 3.912 58.772 4.056L58.576 4.416C58.092 4.24 57.684 4.044 57.356 3.836C57.04 4.056 56.652 4.256 56.192 4.436L55.992 4.076C56.392 3.932 56.736 3.772 57.02 3.6C56.76 3.392 56.564 3.168 56.436 2.932C56.148 3.524 55.784 3.996 55.348 4.348L55.152 3.996C55.704 3.508 56.116 2.844 56.388 2.004H55.412ZM56.712 2.724C56.844 2.96 57.052 3.18 57.336 3.38C57.588 3.176 57.772 2.956 57.884 2.724H56.712ZM57.736 0.708C58.012 0.916 58.244 1.128 58.432 1.34L58.16 1.612C58 1.404 57.776 1.188 57.48 0.96L57.736 0.708ZM60.008 2.212H60.56V1.892H59.892V2.196C59.892 2.436 59.876 2.668 59.852 2.884H60.56V2.548H60.008V2.212ZM59.804 3.228C59.728 3.664 59.604 4.06 59.432 4.412L59.124 4.136C59.376 3.632 59.504 2.988 59.508 2.196V0.852H62.568V1.892H62.012V2.212H62.612V2.548H62.012V2.884H62.748V3.228H62.348L62.58 3.456C62.456 3.608 62.32 3.732 62.176 3.828C62.38 3.944 62.612 4.028 62.876 4.08L62.696 4.44C61.976 4.252 61.464 3.848 61.156 3.228H60.66V3.988C60.9 3.928 61.112 3.86 61.292 3.784L61.364 4.132C61.04 4.244 60.656 4.34 60.212 4.42L60.108 4.088C60.228 4.04 60.288 3.956 60.288 3.828V3.228H59.804ZM61.54 3.228C61.636 3.376 61.748 3.504 61.876 3.616C62.028 3.524 62.168 3.396 62.296 3.228H61.54ZM61.644 1.892H60.924V2.212H61.644V1.892ZM60.924 2.884H61.644V2.548H60.924V2.884ZM62.184 1.2H59.892V1.552H62.184V1.2ZM64.448 2.212V2.564H65.944V2.212H64.448ZM65.944 2.896H64.448V3.24H65.944V2.896ZM65.944 3.568H64.448V4.404H64.092V2.408C63.884 2.652 63.656 2.876 63.4 3.084L63.156 2.764C63.62 2.396 63.988 1.972 64.252 1.5H63.264V1.132H64.436C64.496 0.988 64.548 0.84 64.596 0.696L64.984 0.74C64.944 0.876 64.9 1.008 64.852 1.132H66.784V1.5H64.688C64.624 1.632 64.552 1.76 64.476 1.884H66.3V4.048C66.3 4.268 66.172 4.38 65.916 4.388H65.468L65.376 4.044C65.524 4.056 65.664 4.064 65.796 4.064C65.892 4.064 65.944 4.02 65.944 3.932V3.568ZM68.288 0.736C68.44 0.936 68.588 1.156 68.728 1.396L68.48 1.52H69.308C69.452 1.292 69.58 1.02 69.692 0.708L70.064 0.808C69.976 1.072 69.864 1.308 69.736 1.52H70.496V1.888H69.192V2.012C69.184 2.204 69.164 2.38 69.136 2.544H70.728V2.912H69.328C69.524 3.396 70.024 3.776 70.828 4.056L70.604 4.416C69.764 4.072 69.232 3.616 69 3.052C68.928 3.24 68.84 3.408 68.736 3.552C68.464 3.912 68.02 4.188 67.404 4.38L67.196 4.048C67.812 3.848 68.228 3.596 68.448 3.292C68.524 3.176 68.588 3.048 68.64 2.912H67.272V2.544H68.744C68.776 2.376 68.8 2.2 68.808 2.012V1.888H67.5V1.52H68.356C68.224 1.288 68.084 1.084 67.94 0.904L68.288 0.736ZM72.812 1.364H71.472V1H74.54V1.364H73.196V3.796H74.792V4.164H71.212V3.796H72.812V1.364ZM76.976 1.624C76.792 2.008 76.584 2.34 76.356 2.62L76.084 2.292C76.416 1.904 76.7 1.368 76.932 0.688L77.316 0.772C77.26 0.94 77.2 1.1 77.14 1.252H78.788V1.624H77.504V2.196H78.628V2.564H77.504V3.152H78.636V3.516H77.504V4.42H77.12V1.624H76.976ZM75.612 2.284C75.5 2.42 75.376 2.556 75.248 2.688L75.12 2.28C75.532 1.828 75.836 1.3 76.032 0.7L76.392 0.868C76.288 1.172 76.156 1.46 75.996 1.732V4.42H75.612V2.284ZM80.652 1.38V4.164H80.288V3.956H79.656V4.28H79.292V1.38H79.672C79.744 1.164 79.8 0.944 79.832 0.712L80.212 0.764C80.172 0.984 80.112 1.188 80.036 1.38H80.652ZM79.656 3.604H80.288V2.816H79.656V3.604ZM79.656 2.476H80.288V1.74H79.656V2.476ZM81.372 2.34C81.636 2.668 81.84 2.952 81.98 3.2L81.68 3.412C81.528 3.148 81.32 2.856 81.064 2.532L81.372 2.34ZM82.716 1.384C82.716 2.764 82.696 3.616 82.656 3.936C82.616 4.224 82.424 4.368 82.084 4.368C82.004 4.368 81.86 4.36 81.66 4.348L81.568 4C81.744 4.008 81.896 4.016 82.024 4.016C82.184 4.016 82.276 3.932 82.3 3.764C82.324 3.564 82.336 2.892 82.344 1.752H81.34C81.228 1.992 81.1 2.212 80.948 2.412L80.72 2.112C80.984 1.728 81.168 1.26 81.264 0.708L81.64 0.756C81.6 0.98 81.544 1.188 81.48 1.384H82.716ZM83.54 0.76C83.812 0.972 84.04 1.184 84.224 1.392L83.956 1.656C83.796 1.456 83.572 1.24 83.28 1.008L83.54 0.76ZM85.84 4.344C85.62 4.344 85.38 4.34 85.124 4.336C84.864 4.332 84.652 4.308 84.484 4.268C84.324 4.22 84.184 4.124 84.064 3.988C84.008 3.92 83.96 3.888 83.912 3.888C83.828 3.888 83.684 4.068 83.48 4.428L83.2 4.168C83.4 3.844 83.58 3.64 83.74 3.56V2.428H83.204V2.076H84.096V3.588C84.116 3.604 84.136 3.624 84.156 3.648C84.248 3.756 84.344 3.836 84.444 3.888C84.564 3.944 84.74 3.98 84.976 3.988C85.204 3.992 85.472 3.996 85.784 3.996C85.98 3.996 86.18 3.992 86.38 3.988C86.58 3.984 86.736 3.976 86.844 3.968L86.752 4.344H85.84ZM85.148 1.156H84.376V0.84H86.572V1.108C86.34 1.308 86.092 1.476 85.828 1.62C85.836 1.628 85.844 1.632 85.852 1.64H86.656V3.416C86.656 3.652 86.524 3.772 86.264 3.772H85.956L85.876 3.456L86.16 3.472C86.248 3.472 86.296 3.428 86.296 3.34V3.136H85.72V3.792H85.372V3.136H84.808V3.8H84.448V1.64H85.368C85.236 1.552 85.088 1.46 84.924 1.372L85.148 1.156ZM85.596 1.44C85.764 1.356 85.92 1.26 86.064 1.156H85.168C85.32 1.252 85.464 1.344 85.596 1.44ZM84.808 2.548V2.828H85.372V2.548H84.808ZM85.72 2.548V2.828H86.296V2.548H85.72ZM86.296 2.236V1.956H85.72V2.236H86.296ZM85.372 2.236V1.956H84.808V2.236H85.372ZM90.692 1.112V4.232H90.324V4.004H89.624V4.236H89.256V1.112H90.692ZM89.624 3.648H90.324V1.468H89.624V3.648ZM87.82 1.588C87.728 1.788 87.624 1.972 87.512 2.14L87.18 1.928C87.436 1.552 87.62 1.148 87.728 0.716L88.104 0.796C88.064 0.948 88.016 1.088 87.968 1.224H89.06V1.588H88.516C88.508 1.836 88.496 2.068 88.472 2.28H89.096V2.644H88.42C88.404 2.732 88.384 2.82 88.368 2.9C88.612 3.148 88.86 3.424 89.116 3.728L88.884 4.08C88.636 3.728 88.428 3.452 88.26 3.252C88.092 3.672 87.808 4.028 87.4 4.316L87.152 4.012C87.568 3.704 87.84 3.328 87.972 2.88C87.988 2.804 88.008 2.724 88.024 2.644H87.236V2.28H88.08C88.104 2.068 88.116 1.836 88.124 1.588H87.82ZM91.56 0.692L92.388 2.56L91.56 4.428L91.24 4.284L92.004 2.56L91.24 0.836L91.56 0.692ZM92.244 0.692L93.072 2.56L92.244 4.428L91.924 4.284L92.688 2.56L91.908 0.836L92.244 0.692Z" fill="white"/>
</svg>
