<svg width="74" height="5" viewBox="0 0 74 5" fill="none" xmlns="http://www.w3.org/2000/svg">
<path d="M1.756 0.692L2.092 0.836L1.312 2.56L2.076 4.284L1.756 4.428L0.928 2.56L1.756 0.692ZM2.44 0.692L2.76 0.836L1.996 2.56L2.76 4.284L2.44 4.428L1.612 2.56L2.44 0.692ZM4.288 0.736C4.44 0.936 4.588 1.156 4.728 1.396L4.48 1.52H5.308C5.452 1.292 5.58 1.02 5.692 0.708L6.064 0.808C5.976 1.072 5.864 1.308 5.736 1.52H6.496V1.888H5.192V2.012C5.184 2.204 5.164 2.38 5.136 2.544H6.728V2.912H5.328C5.524 3.396 6.024 3.776 6.828 4.056L6.604 4.416C5.764 4.072 5.232 3.616 5 3.052C4.928 3.24 4.84 3.408 4.736 3.552C4.464 3.912 4.02 4.188 3.404 4.38L3.196 4.048C3.812 3.848 4.228 3.596 4.448 3.292C4.524 3.176 4.588 3.048 4.64 2.912H3.272V2.544H4.744C4.776 2.376 4.8 2.2 4.808 2.012V1.888H3.5V1.52H4.356C4.224 1.288 4.084 1.084 3.94 0.904L4.288 0.736ZM7.472 0.852H10.5V1.224H9.224V2.2H10.78V2.58H9.224V3.944C9.224 4.224 9.076 4.368 8.784 4.368H8.148L8.068 4C8.272 4.012 8.468 4.02 8.652 4.02C8.78 4.02 8.844 3.96 8.844 3.848V2.58H7.22V2.2H8.844V1.224H7.472V0.852ZM13.104 2.556V3H13.724V2.556H13.104ZM13.104 3.352V3.848H13.724V3.352H13.104ZM13.104 4.212V4.392H12.728V2.176C12.648 2.292 12.56 2.404 12.468 2.516L12.34 2.116C12.656 1.692 12.88 1.232 13.008 0.728L13.376 0.8C13.32 1 13.252 1.192 13.172 1.376H13.784C13.72 1.184 13.648 0.992 13.568 0.808L13.932 0.712C14.02 0.956 14.092 1.176 14.14 1.376H14.752V1.74H14.1V2.2H14.672V2.556H14.1V3H14.672V3.352H14.1V3.848H14.796V4.212H13.104ZM13.724 1.74H13.104V2.2H13.724V1.74ZM12.408 2.336V2.724C12.296 2.776 12.18 2.824 12.068 2.872V3.96C12.068 4.22 11.932 4.352 11.664 4.352H11.304L11.22 3.984C11.328 4 11.432 4.008 11.532 4.008C11.636 4.008 11.688 3.96 11.688 3.864V3.016C11.536 3.068 11.38 3.116 11.228 3.16L11.132 2.776C11.32 2.736 11.504 2.688 11.688 2.632V1.792H11.208V1.424H11.688V0.72H12.068V1.424H12.44V1.792H12.068V2.492C12.184 2.444 12.296 2.392 12.408 2.336ZM15.34 0.968H16.828V1.332H15.34V0.968ZM15.192 2.048H16.972V2.416H16.072C15.928 2.964 15.804 3.364 15.7 3.62C15.964 3.564 16.232 3.484 16.5 3.384C16.408 3.188 16.316 3.004 16.224 2.832L16.544 2.676C16.728 3.012 16.904 3.384 17.072 3.788L16.744 3.956L16.64 3.7C16.22 3.844 15.768 3.96 15.28 4.048L15.188 3.688C15.228 3.68 15.252 3.668 15.268 3.656C15.376 3.5 15.52 3.088 15.704 2.416H15.192V2.048ZM17.516 0.732H17.892V1.508H18.756C18.756 2.812 18.736 3.616 18.7 3.92C18.656 4.224 18.452 4.376 18.088 4.376C18.024 4.376 17.912 4.368 17.752 4.36L17.664 4.024C17.808 4.036 17.932 4.044 18.036 4.044C18.212 4.044 18.312 3.948 18.344 3.756C18.368 3.568 18.38 2.94 18.388 1.876H17.892V1.912C17.88 3.064 17.604 3.904 17.06 4.436L16.776 4.184C17.26 3.712 17.508 2.956 17.516 1.912V1.876H17.008V1.508H17.516V0.732ZM19.236 1.364H20.848C20.744 1.172 20.616 0.992 20.464 0.82L20.844 0.68C20.988 0.872 21.124 1.1 21.248 1.364H22.764V1.74H22.152C21.96 2.348 21.676 2.856 21.3 3.268C21.716 3.608 22.236 3.892 22.852 4.116L22.64 4.436C21.996 4.196 21.46 3.896 21.036 3.536C20.584 3.936 20.028 4.232 19.368 4.424L19.164 4.088C19.812 3.92 20.344 3.656 20.768 3.292C20.328 2.852 20.02 2.332 19.848 1.74H19.236V1.364ZM20.212 1.74C20.38 2.232 20.652 2.664 21.032 3.032C21.356 2.676 21.6 2.244 21.76 1.74H20.212ZM24.336 0.684L24.692 0.852C24.556 1.18 24.38 1.492 24.164 1.784V4.42H23.788V2.228C23.624 2.396 23.448 2.56 23.26 2.716L23.14 2.32C23.68 1.852 24.08 1.308 24.336 0.684ZM26.236 4.348H25.488C25.168 4.348 25.008 4.188 25.008 3.868V2.748C24.864 2.824 24.716 2.9 24.564 2.972L24.392 2.612C24.608 2.516 24.816 2.416 25.008 2.304V0.748H25.388V2.068C25.78 1.808 26.128 1.512 26.424 1.18L26.688 1.48C26.308 1.872 25.876 2.224 25.388 2.528V3.816C25.388 3.928 25.448 3.984 25.576 3.984H26.172C26.264 3.984 26.332 3.952 26.376 3.892C26.416 3.832 26.444 3.62 26.452 3.252L26.804 3.368C26.776 3.828 26.724 4.108 26.652 4.204C26.576 4.3 26.436 4.348 26.236 4.348ZM29.052 0.672C29.108 0.8 29.16 0.944 29.216 1.104H30.604V1.464H29.932C29.892 1.644 29.836 1.82 29.764 1.988H30.688V2.356H27.848V2.896C27.832 3.52 27.692 4.024 27.42 4.404L27.128 4.148C27.344 3.844 27.456 3.428 27.464 2.896V1.988H28.272L28.132 1.464H27.42V1.104H28.828C28.776 0.972 28.716 0.848 28.652 0.736L29.052 0.672ZM28.648 1.988H29.4C29.472 1.82 29.528 1.644 29.568 1.464H28.504L28.648 1.988ZM32.376 0.752H32.756V3.896H33.236V0.752H33.616V3.896H34.784V4.268H31.216V3.896H32.376V0.752ZM34.364 1.496L34.7 1.592C34.548 2.28 34.352 2.88 34.112 3.396L33.772 3.276C33.996 2.812 34.196 2.216 34.364 1.496ZM31.62 1.488C31.824 2.024 32.004 2.636 32.164 3.324L31.816 3.412C31.68 2.784 31.504 2.176 31.296 1.592L31.62 1.488ZM36.556 0.856V3.4H36.22V1.208H35.588V3.404H35.256V0.856H36.556ZM35.752 1.46H36.06V2.768C36.048 3.216 35.988 3.576 35.88 3.84C35.772 4.088 35.596 4.28 35.352 4.416L35.16 4.112C35.384 3.98 35.536 3.812 35.62 3.612C35.7 3.396 35.744 3.112 35.752 2.768V1.46ZM36.208 3.544C36.324 3.68 36.428 3.812 36.524 3.944C36.592 3.932 36.656 3.92 36.72 3.912V2.464H37.024V3.856C37.088 3.84 37.152 3.828 37.212 3.816V2.108H37.532V2.708H37.792V3.02H37.532V3.74C37.66 3.704 37.784 3.668 37.9 3.628V3.96C37.504 4.104 37.056 4.216 36.552 4.304L36.548 4.276L36.42 4.4C36.312 4.204 36.164 3.992 35.976 3.768L36.208 3.544ZM36.784 0.96H37.628V1.3H36.784V0.96ZM36.668 1.62H37.876C37.872 1.352 37.872 1.06 37.872 0.748H38.208V0.928L38.488 0.832C38.592 1.012 38.68 1.204 38.756 1.408L38.484 1.528C38.396 1.304 38.304 1.104 38.208 0.936C38.208 1.18 38.208 1.408 38.212 1.62H38.792V1.976H38.216C38.232 2.708 38.26 3.2 38.3 3.448C38.348 3.752 38.404 3.92 38.468 3.948C38.496 3.94 38.52 3.78 38.54 3.472L38.828 3.672C38.772 4.148 38.656 4.388 38.488 4.388C38.388 4.388 38.296 4.32 38.212 4.184C38.104 4 38.024 3.756 37.972 3.452C37.924 3.18 37.896 2.688 37.884 1.976H36.668V1.62ZM39.768 3.064V3.356H40.592V3.064H39.768ZM40.592 2.752V2.444H39.768V2.752H40.592ZM39.768 3.672V4.42H39.4V2.112H40.96V3.976C40.96 4.252 40.828 4.392 40.572 4.392H40.26L40.168 4.036L40.452 4.052C40.544 4.052 40.592 4 40.592 3.896V3.672H39.768ZM42.324 2.492H41.672C41.392 2.492 41.256 2.34 41.256 2.036V0.736H41.632V1.208C42.044 1.144 42.38 1.08 42.64 1.008L42.764 1.344C42.436 1.42 42.06 1.492 41.632 1.556V1.956C41.632 2.084 41.68 2.152 41.776 2.152H42.252C42.316 2.152 42.36 2.132 42.388 2.092C42.42 2.044 42.444 1.908 42.452 1.684L42.808 1.8C42.776 2.132 42.72 2.332 42.648 2.4C42.576 2.46 42.468 2.492 42.324 2.492ZM41.632 3.416V3.904C41.632 3.976 41.676 4.012 41.772 4.012H42.256C42.32 4.012 42.368 3.992 42.396 3.956C42.428 3.908 42.452 3.772 42.464 3.548L42.808 3.66C42.776 3.996 42.724 4.196 42.652 4.26C42.584 4.32 42.476 4.352 42.328 4.352H41.664C41.392 4.352 41.256 4.228 41.256 3.988V2.632H41.632V3.072C42.008 3.032 42.344 2.964 42.64 2.876L42.764 3.216C42.412 3.312 42.032 3.376 41.632 3.416ZM40.672 1C40.908 1.316 41.088 1.592 41.216 1.824L40.904 2.048C40.864 1.968 40.82 1.884 40.772 1.8C40.356 1.864 39.856 1.912 39.272 1.944L39.168 1.628C39.236 1.604 39.292 1.572 39.34 1.532C39.584 1.26 39.772 0.988 39.9 0.716L40.264 0.824C40.096 1.152 39.908 1.412 39.7 1.612C39.98 1.596 40.284 1.564 40.608 1.524C40.536 1.412 40.46 1.3 40.38 1.184L40.672 1ZM46.144 2.256L46.532 2.296C46.444 2.88 46.176 3.352 45.736 3.704C45.352 4.02 44.668 4.272 43.684 4.456L43.52 4.076C44.404 3.928 45.04 3.716 45.428 3.44C45.556 3.348 45.664 3.244 45.756 3.132C45.244 3.204 44.612 3.264 43.86 3.312L43.744 2.98C44.112 2.796 44.496 2.516 44.896 2.148C44.5 2.192 44.104 2.224 43.708 2.24L43.612 1.912C44.064 1.56 44.452 1.152 44.78 0.68L45.16 0.82C44.872 1.22 44.544 1.576 44.168 1.888C44.524 1.872 44.88 1.848 45.236 1.816C45.42 1.62 45.608 1.412 45.796 1.192L46.168 1.372C45.548 2.084 44.992 2.604 44.496 2.928C45.064 2.888 45.556 2.836 45.98 2.78C46.056 2.62 46.112 2.444 46.144 2.256ZM47.228 1.472H47.836V0.724H48.212V1.472H48.652V1.836H48.212V2.052C48.396 2.228 48.584 2.424 48.776 2.644L48.556 2.976C48.424 2.748 48.308 2.56 48.212 2.416V4.392H47.836V2.464C47.696 2.84 47.516 3.184 47.296 3.496L47.128 3.072C47.44 2.712 47.664 2.3 47.808 1.836H47.228V1.472ZM49.18 2.228C49.428 2.58 49.62 2.888 49.756 3.152L49.444 3.372C49.304 3.088 49.112 2.772 48.872 2.424L49.18 2.228ZM50.004 4.368H49.312L49.232 4C49.456 4.012 49.668 4.02 49.872 4.02C49.964 4.02 50.012 3.964 50.012 3.86V1.86H48.828V1.496H50.012V0.744H50.396V1.496H50.792V1.86H50.396V3.96C50.396 4.232 50.264 4.368 50.004 4.368ZM51.644 4.368H51.3L51.22 4.012C51.324 4.028 51.42 4.036 51.516 4.036C51.608 4.036 51.656 3.984 51.656 3.88V3.02C51.512 3.076 51.368 3.124 51.224 3.172L51.132 2.812C51.308 2.772 51.484 2.72 51.656 2.656V1.788H51.204V1.424H51.656V0.724H52.024V1.424H52.416V1.788H52.024V2.504C52.16 2.44 52.292 2.368 52.424 2.296V2.668C52.292 2.736 52.16 2.8 52.024 2.864V3.976C52.024 4.236 51.896 4.368 51.644 4.368ZM52.904 2.588C52.848 3.32 52.68 3.92 52.4 4.388L52.116 4.136C52.4 3.664 52.548 3.008 52.564 2.168V0.856H54.688V1.212H52.924V2.168C52.924 2.192 52.92 2.212 52.92 2.236H54.724V2.588H54.016C54.028 2.772 54.064 2.944 54.124 3.108C54.268 3.012 54.408 2.884 54.54 2.716L54.784 2.956C54.624 3.14 54.444 3.288 54.248 3.392C54.388 3.656 54.592 3.896 54.86 4.108L54.596 4.372C54.04 3.876 53.74 3.28 53.7 2.588H53.456V3.9C53.616 3.852 53.772 3.796 53.924 3.74L54.008 4.052C53.744 4.164 53.428 4.26 53.06 4.348L52.956 4.032C53.06 3.984 53.112 3.9 53.112 3.788V2.588H52.904ZM53.1 1.552H54.548V1.896H53.1V1.552ZM55.176 2.496H57.396C57.684 1.96 57.924 1.372 58.12 0.732L58.496 0.872C58.272 1.528 58.036 2.068 57.796 2.496H58.824V2.864H55.176V2.496ZM55.764 0.964C55.96 1.316 56.144 1.704 56.32 2.128L55.96 2.304C55.792 1.868 55.608 1.476 55.408 1.132L55.764 0.964ZM56.728 0.724C56.92 1.1 57.1 1.512 57.272 1.96L56.92 2.136C56.748 1.68 56.564 1.264 56.368 0.896L56.728 0.724ZM56.24 3.02L56.584 3.188C56.312 3.648 55.992 4.044 55.62 4.38L55.304 4.156C55.668 3.836 55.98 3.46 56.24 3.02ZM57.78 2.996C58.18 3.432 58.484 3.808 58.7 4.128L58.356 4.368C58.136 4.016 57.836 3.628 57.456 3.2L57.78 2.996ZM60.652 1.38V4.164H60.288V3.956H59.656V4.28H59.292V1.38H59.672C59.744 1.164 59.8 0.944 59.832 0.712L60.212 0.764C60.172 0.984 60.112 1.188 60.036 1.38H60.652ZM59.656 3.604H60.288V2.816H59.656V3.604ZM59.656 2.476H60.288V1.74H59.656V2.476ZM61.372 2.34C61.636 2.668 61.84 2.952 61.98 3.2L61.68 3.412C61.528 3.148 61.32 2.856 61.064 2.532L61.372 2.34ZM62.716 1.384C62.716 2.764 62.696 3.616 62.656 3.936C62.616 4.224 62.424 4.368 62.084 4.368C62.004 4.368 61.86 4.36 61.66 4.348L61.568 4C61.744 4.008 61.896 4.016 62.024 4.016C62.184 4.016 62.276 3.932 62.3 3.764C62.324 3.564 62.336 2.892 62.344 1.752H61.34C61.228 1.992 61.1 2.212 60.948 2.412L60.72 2.112C60.984 1.728 61.168 1.26 61.264 0.708L61.64 0.756C61.6 0.98 61.544 1.188 61.48 1.384H62.716ZM64.064 1.26H63.44V0.94H64.76C64.728 0.872 64.696 0.808 64.664 0.752L65.076 0.688C65.108 0.764 65.144 0.848 65.176 0.94H66.56V1.26H65.924L65.808 1.5H66.748V1.828H63.252V1.5H64.16L64.064 1.26ZM64.556 1.5H65.412L65.528 1.26H64.46L64.556 1.5ZM63.668 1.996H66.332V3.244H63.668V1.996ZM65.96 2.956V2.756H64.04V2.956H65.96ZM64.04 2.484H65.96V2.288H64.04V2.484ZM63.516 3.4L63.884 3.476C63.792 3.792 63.664 4.064 63.5 4.296L63.172 4.092C63.332 3.876 63.444 3.648 63.516 3.4ZM65.56 4.348H64.584C64.276 4.348 64.124 4.208 64.124 3.936V3.424H64.508V3.856C64.508 3.956 64.568 4.008 64.692 4.008H65.488C65.56 4.008 65.612 3.992 65.64 3.964C65.68 3.928 65.708 3.824 65.724 3.648L66.084 3.764C66.052 4.044 65.996 4.216 65.908 4.272C65.832 4.32 65.716 4.348 65.56 4.348ZM65.096 3.26C65.256 3.42 65.376 3.56 65.46 3.684L65.144 3.904C65.052 3.772 64.928 3.624 64.772 3.464L65.096 3.26ZM66.344 3.344C66.564 3.604 66.732 3.832 66.848 4.024L66.532 4.244C66.408 4.028 66.244 3.792 66.036 3.536L66.344 3.344ZM70.188 0.868V3.104H69.804V1.24H68.132V3.108H67.748V0.868H70.188ZM68.752 1.468H69.128V2.216C69.12 2.432 69.096 2.628 69.056 2.812H69.396V3.756C69.396 3.904 69.448 3.98 69.552 3.98H70.136C70.184 3.98 70.232 3.96 70.272 3.924C70.316 3.884 70.348 3.716 70.364 3.42L70.728 3.54C70.684 3.928 70.628 4.156 70.56 4.228C70.48 4.292 70.372 4.328 70.236 4.336H69.448C69.16 4.336 69.016 4.164 69.016 3.824V2.968C68.94 3.232 68.832 3.456 68.688 3.648C68.424 3.984 67.996 4.24 67.404 4.424L67.2 4.104C67.792 3.92 68.196 3.684 68.408 3.396C68.616 3.092 68.728 2.7 68.752 2.216V1.468ZM71.56 0.692L72.388 2.56L71.56 4.428L71.24 4.284L72.004 2.56L71.24 0.836L71.56 0.692ZM72.244 0.692L73.072 2.56L72.244 4.428L71.924 4.284L72.688 2.56L71.908 0.836L72.244 0.692Z" fill="white"/>
</svg>
