<svg width="38" height="5" viewBox="0 0 38 5" fill="none" xmlns="http://www.w3.org/2000/svg">
<path d="M1.756 0.692L2.092 0.836L1.312 2.56L2.076 4.284L1.756 4.428L0.928 2.56L1.756 0.692ZM2.44 0.692L2.76 0.836L1.996 2.56L2.76 4.284L2.44 4.428L1.612 2.56L2.44 0.692ZM4.008 1.508H5.988V1.852H5.192V2.344H5.864V2.68H5.192V3.236H5.6C5.528 3.076 5.452 2.94 5.372 2.82L5.672 2.724C5.764 2.852 5.844 2.988 5.912 3.14L5.696 3.236H6.104V3.58H3.9V3.236H4.808V2.68H4.136V2.344H4.808V1.852H4.008V1.508ZM6.68 0.872V4.404H6.296V4.252H3.704V4.404H3.32V0.872H6.68ZM3.704 3.896H6.296V1.232H3.704V3.896ZM9.612 2.884C9.552 2.9 9.492 2.912 9.436 2.928C9.496 3.112 9.528 3.312 9.532 3.528C9.532 3.848 9.484 4.072 9.396 4.192C9.292 4.336 9.06 4.408 8.696 4.408H8.568L8.44 4.072H8.644C8.868 4.072 9.008 4.04 9.064 3.98C9.128 3.9 9.164 3.752 9.164 3.528C9.164 3.488 9.16 3.448 9.16 3.412C8.728 3.736 8.16 4.004 7.464 4.22L7.272 3.896C8.052 3.676 8.66 3.392 9.096 3.048C9.072 2.968 9.04 2.888 9.008 2.816C8.632 3.096 8.132 3.324 7.512 3.504L7.324 3.176C7.976 3.008 8.484 2.796 8.848 2.536C8.808 2.484 8.772 2.436 8.732 2.388C8.716 2.396 8.704 2.4 8.692 2.408C8.432 2.532 8.064 2.664 7.592 2.804L7.4 2.488C7.768 2.412 8.112 2.308 8.432 2.176C8.528 2.136 8.62 2.096 8.708 2.052H7.812V1.7H10.188V2.052H9.3C9.204 2.116 9.112 2.176 9.024 2.232C9.14 2.36 9.236 2.496 9.316 2.64C9.668 2.536 10.004 2.384 10.324 2.18L10.58 2.436C10.372 2.568 10.152 2.68 9.916 2.776C10.1 3.244 10.4 3.62 10.808 3.908L10.536 4.224C10.112 3.868 9.804 3.42 9.612 2.884ZM9.092 0.692C9.136 0.796 9.176 0.912 9.216 1.04H10.716V1.784H10.336V1.392H7.664V1.784H7.284V1.04H8.832C8.792 0.936 8.748 0.844 8.704 0.76L9.092 0.692ZM11.72 0.732H12.092V1.456H12.524V1.82H12.092V2.08C12.28 2.268 12.472 2.476 12.664 2.708L12.448 3.032C12.312 2.816 12.192 2.636 12.092 2.492V4.408H11.72V2.592C11.604 2.916 11.464 3.216 11.296 3.488L11.132 3.072C11.4 2.704 11.596 2.288 11.716 1.82H11.264V1.456H11.72V0.732ZM12.9 2.548L13.248 2.624C13.12 3.184 12.94 3.664 12.708 4.072L12.376 3.86C12.624 3.452 12.796 3.016 12.9 2.548ZM14.44 2.516C14.6 2.964 14.736 3.444 14.852 3.956L14.504 4.112C14.38 3.552 14.244 3.06 14.1 2.628L14.44 2.516ZM13.492 4.368H13.088L13.012 4.012C13.132 4.028 13.252 4.036 13.364 4.036C13.46 4.036 13.512 3.98 13.512 3.872V2.256H12.572V1.892H14.84V2.256H13.892V3.964C13.892 4.232 13.756 4.368 13.492 4.368ZM12.78 0.928H14.632V1.288H12.78V0.928ZM15.504 0.828C15.764 1.184 15.964 1.496 16.1 1.764L15.784 1.98C15.636 1.696 15.436 1.38 15.18 1.028L15.504 0.828ZM15.768 2.584L16.112 2.72C15.944 3.312 15.752 3.872 15.544 4.392L15.184 4.236C15.408 3.696 15.604 3.144 15.768 2.584ZM16.836 2.544V3H17.572V2.544H16.836ZM16.836 3.348V3.844H17.572V3.348H16.836ZM16.836 4.196V4.416H16.464V2.188C16.36 2.34 16.256 2.488 16.144 2.628L16.02 2.236C16.352 1.772 16.588 1.268 16.724 0.716L17.088 0.788C17.032 0.988 16.968 1.18 16.892 1.372H17.632C17.572 1.172 17.5 0.976 17.42 0.788L17.784 0.684C17.872 0.94 17.944 1.168 17.992 1.372H18.74V1.732H17.94V2.192H18.656V2.544H17.94V3H18.664V3.348H17.94V3.844H18.824V4.196H16.836ZM17.572 1.732H16.836V2.192H17.572V1.732ZM22.168 2.292V3.132H20.22V3.344H22.356V4.412H21.976V4.268H20.22V4.408H19.84V2.292H22.168ZM20.22 3.932H21.976V3.644H20.22V3.932ZM20.22 2.828H21.796V2.596H20.22V2.828ZM22.72 1.792V2.556H22.348V2.112H19.652V2.556H19.28V1.792H20.828C20.796 1.712 20.76 1.64 20.724 1.576L21.06 1.52L20.992 1.476C21.176 1.236 21.312 0.98 21.392 0.704L21.756 0.784C21.732 0.852 21.712 0.916 21.688 0.98H22.8V1.312H22.148C22.212 1.4 22.264 1.488 22.308 1.568L21.972 1.692C21.908 1.564 21.832 1.436 21.744 1.312H21.54C21.472 1.444 21.396 1.568 21.312 1.68L21.12 1.556C21.152 1.628 21.18 1.708 21.212 1.792H22.72ZM19.82 1.312C19.732 1.456 19.636 1.592 19.532 1.716L19.2 1.508C19.432 1.26 19.596 0.988 19.696 0.7L20.06 0.78C20.036 0.848 20.008 0.916 19.984 0.98H20.992V1.312H20.392C20.464 1.412 20.528 1.508 20.576 1.6L20.228 1.732C20.16 1.588 20.084 1.448 19.996 1.312H19.82ZM24.628 0.856H26.652V2.768H25.832V3.168H26.704V3.52H25.832V3.936H26.844V4.3H24.424V3.936H25.456V3.52H24.58V3.168H25.456V2.768H24.628V0.856ZM26.288 2.432V1.976H25.832V2.432H26.288ZM25.456 2.432V1.976H24.992V2.432H25.456ZM24.992 1.648H25.456V1.192H24.992V1.648ZM25.832 1.192V1.648H26.288V1.192H25.832ZM23.248 2.172H23.644V1.316H23.188V0.956H24.48V1.316H24.028V2.172H24.432V2.536H24.028V3.336C24.164 3.288 24.296 3.24 24.424 3.184V3.552C24.056 3.696 23.664 3.82 23.244 3.92L23.152 3.556C23.32 3.528 23.484 3.492 23.644 3.452V2.536H23.248V2.172ZM27.616 2.152L27.952 2.284C27.82 2.76 27.648 3.124 27.432 3.38L27.148 3.132C27.356 2.884 27.512 2.56 27.616 2.152ZM28.444 0.732H28.828V1.476H30.092C30.084 1.756 30.08 2.016 30.072 2.256L30.336 2.128C30.52 2.488 30.7 2.884 30.872 3.32L30.524 3.488C30.38 3.096 30.224 2.736 30.064 2.416C30.048 2.712 30.032 2.976 30.016 3.2C29.976 3.632 29.908 3.936 29.816 4.112C29.724 4.28 29.576 4.368 29.372 4.384H28.904L28.8 4.016C28.936 4.024 29.064 4.028 29.184 4.028C29.38 4.028 29.512 3.892 29.58 3.628C29.644 3.348 29.684 2.752 29.704 1.844H28.812C28.772 2.48 28.66 3 28.476 3.404C28.268 3.84 27.924 4.176 27.448 4.416L27.24 4.084C27.696 3.832 28.008 3.512 28.176 3.128C28.312 2.78 28.396 2.352 28.428 1.844H27.476V1.476H28.444V0.732ZM33.284 0.728H33.668V1.332H34.664V1.7H33.668V2.36H34.772V2.728H33.472C33.244 3.264 33.044 3.66 32.868 3.916C33.308 3.868 33.744 3.796 34.176 3.708C34.072 3.492 33.964 3.292 33.856 3.108L34.224 2.988C34.46 3.388 34.668 3.812 34.844 4.268L34.484 4.428C34.432 4.292 34.38 4.16 34.328 4.04C33.732 4.156 33.084 4.248 32.384 4.32L32.296 3.988C32.328 3.976 32.356 3.964 32.376 3.952C32.552 3.796 32.78 3.388 33.06 2.728H32.176V2.36H33.284V1.7H32.368V1.332H33.284V0.728ZM31.548 0.76C31.804 0.96 32.02 1.156 32.2 1.352L31.928 1.628C31.776 1.44 31.556 1.24 31.272 1.024L31.548 0.76ZM31.448 1.696C31.684 1.896 31.884 2.096 32.052 2.296L31.776 2.568C31.636 2.38 31.436 2.176 31.176 1.96L31.448 1.696ZM31.836 2.824L32.18 2.964C32.008 3.464 31.816 3.936 31.608 4.38L31.228 4.212C31.46 3.76 31.664 3.296 31.836 2.824ZM35.56 0.692L36.388 2.56L35.56 4.428L35.24 4.284L36.004 2.56L35.24 0.836L35.56 0.692ZM36.244 0.692L37.072 2.56L36.244 4.428L35.924 4.284L36.688 2.56L35.908 0.836L36.244 0.692Z" fill="white"/>
</svg>
