<svg width="82" height="5" viewBox="0 0 82 5" fill="none" xmlns="http://www.w3.org/2000/svg">
<path d="M1.756 0.692L2.092 0.836L1.312 2.56L2.076 4.284L1.756 4.428L0.928 2.56L1.756 0.692ZM2.44 0.692L2.76 0.836L1.996 2.56L2.76 4.284L2.44 4.428L1.612 2.56L2.44 0.692ZM4.288 0.736C4.44 0.936 4.588 1.156 4.728 1.396L4.48 1.52H5.308C5.452 1.292 5.58 1.02 5.692 0.708L6.064 0.808C5.976 1.072 5.864 1.308 5.736 1.52H6.496V1.888H5.192V2.012C5.184 2.204 5.164 2.38 5.136 2.544H6.728V2.912H5.328C5.524 3.396 6.024 3.776 6.828 4.056L6.604 4.416C5.764 4.072 5.232 3.616 5 3.052C4.928 3.24 4.84 3.408 4.736 3.552C4.464 3.912 4.02 4.188 3.404 4.38L3.196 4.048C3.812 3.848 4.228 3.596 4.448 3.292C4.524 3.176 4.588 3.048 4.64 2.912H3.272V2.544H4.744C4.776 2.376 4.8 2.2 4.808 2.012V1.888H3.5V1.52H4.356C4.224 1.288 4.084 1.084 3.94 0.904L4.288 0.736ZM7.472 0.852H10.5V1.224H9.224V2.2H10.78V2.58H9.224V3.944C9.224 4.224 9.076 4.368 8.784 4.368H8.148L8.068 4C8.272 4.012 8.468 4.02 8.652 4.02C8.78 4.02 8.844 3.96 8.844 3.848V2.58H7.22V2.2H8.844V1.224H7.472V0.852ZM12.424 2.264V2.64C12.3 2.708 12.176 2.772 12.048 2.836V3.972C12.048 4.24 11.916 4.376 11.652 4.376H11.328L11.244 4.008C11.34 4.02 11.432 4.028 11.52 4.028C11.616 4.028 11.664 3.976 11.664 3.876V3.008C11.516 3.064 11.368 3.12 11.216 3.172L11.124 2.808C11.308 2.764 11.488 2.708 11.664 2.64V1.788H11.176V1.424H11.664V0.728H12.048V1.424H12.452V1.788H12.048V2.472C12.176 2.408 12.304 2.336 12.424 2.264ZM12.684 1.344H13.424V0.732H13.804V1.344H14.608V1.712H13.804V2.144C13.804 2.236 13.796 2.328 13.788 2.42H14.78V2.788H13.908C14.12 3.324 14.44 3.76 14.864 4.096L14.608 4.396C14.188 4.028 13.868 3.576 13.648 3.048C13.472 3.552 13.152 3.996 12.688 4.38L12.392 4.132C12.88 3.748 13.196 3.3 13.34 2.788H12.56V2.42H13.408C13.416 2.324 13.424 2.232 13.424 2.144V1.712H12.684V1.344ZM17.472 0.744H17.844V1.116H18.632V1.464H17.844V1.844H18.784V2.204H16.576V1.844H17.472V1.464H16.72V1.116H17.472V0.744ZM16.512 2.628H17.936V2.352H18.316V2.628H18.788V2.984H18.316V3.984C18.316 4.248 18.184 4.384 17.92 4.384H17.392L17.308 4.016C17.476 4.028 17.632 4.036 17.784 4.036C17.884 4.036 17.936 3.984 17.936 3.888V2.984H16.512V2.628ZM15.66 4.376H15.308L15.228 4.012C15.332 4.028 15.432 4.036 15.528 4.036C15.624 4.036 15.676 3.984 15.676 3.88V3.044C15.536 3.092 15.396 3.14 15.252 3.184L15.156 2.8C15.332 2.76 15.504 2.712 15.676 2.656V1.82H15.22V1.456H15.676V0.772H16.048V1.456H16.432V1.82H16.048V2.516C16.18 2.456 16.308 2.392 16.436 2.328V2.716C16.308 2.78 16.176 2.84 16.048 2.896V3.976C16.048 4.24 15.916 4.376 15.66 4.376ZM17 3.112C17.188 3.348 17.332 3.556 17.432 3.736L17.132 3.944C17.024 3.752 16.876 3.536 16.692 3.3L17 3.112ZM21.044 2.548V2.936C20.828 3.008 20.6 3.072 20.36 3.136V3.972C20.36 4.228 20.224 4.36 19.956 4.36H19.508L19.424 3.996C19.564 4.012 19.696 4.02 19.824 4.02C19.924 4.02 19.976 3.972 19.976 3.876V3.224C19.736 3.276 19.492 3.324 19.236 3.364L19.184 2.984C19.46 2.94 19.724 2.892 19.976 2.84V2.124H19.184V1.76H19.976V1.336C19.776 1.376 19.572 1.408 19.36 1.44L19.28 1.08C19.84 1.02 20.336 0.904 20.768 0.728L20.9 1.084C20.728 1.144 20.548 1.2 20.36 1.252V1.76H21.224C21.2 1.448 21.188 1.104 21.188 0.728H21.572C21.572 1.12 21.584 1.464 21.608 1.76H22.816V2.124H21.64C21.664 2.388 21.7 2.608 21.748 2.784C21.764 2.86 21.784 2.928 21.804 2.992C21.976 2.784 22.128 2.548 22.256 2.284L22.584 2.456C22.404 2.824 22.192 3.14 21.944 3.404C21.992 3.512 22.036 3.604 22.084 3.676C22.204 3.856 22.296 3.948 22.36 3.948C22.412 3.948 22.464 3.74 22.516 3.324L22.852 3.5C22.752 4.068 22.604 4.356 22.412 4.356C22.24 4.356 22.06 4.236 21.872 4C21.796 3.904 21.728 3.796 21.668 3.668C21.392 3.9 21.084 4.084 20.74 4.216L20.528 3.888C20.904 3.752 21.232 3.556 21.512 3.3C21.464 3.168 21.424 3.032 21.388 2.888C21.332 2.672 21.288 2.416 21.256 2.124H20.36V2.752C20.6 2.688 20.828 2.62 21.044 2.548ZM22.012 0.764C22.296 0.944 22.536 1.124 22.736 1.304L22.46 1.576C22.292 1.4 22.06 1.212 21.756 1.008L22.012 0.764ZM24.008 1.508H25.988V1.852H25.192V2.344H25.864V2.68H25.192V3.236H25.6C25.528 3.076 25.452 2.94 25.372 2.82L25.672 2.724C25.764 2.852 25.844 2.988 25.912 3.14L25.696 3.236H26.104V3.58H23.9V3.236H24.808V2.68H24.136V2.344H24.808V1.852H24.008V1.508ZM26.68 0.872V4.404H26.296V4.252H23.704V4.404H23.32V0.872H26.68ZM23.704 3.896H26.296V1.232H23.704V3.896ZM27.34 0.968H28.828V1.332H27.34V0.968ZM27.192 2.048H28.972V2.416H28.072C27.928 2.964 27.804 3.364 27.7 3.62C27.964 3.564 28.232 3.484 28.5 3.384C28.408 3.188 28.316 3.004 28.224 2.832L28.544 2.676C28.728 3.012 28.904 3.384 29.072 3.788L28.744 3.956L28.64 3.7C28.22 3.844 27.768 3.96 27.28 4.048L27.188 3.688C27.228 3.68 27.252 3.668 27.268 3.656C27.376 3.5 27.52 3.088 27.704 2.416H27.192V2.048ZM29.516 0.732H29.892V1.508H30.756C30.756 2.812 30.736 3.616 30.7 3.92C30.656 4.224 30.452 4.376 30.088 4.376C30.024 4.376 29.912 4.368 29.752 4.36L29.664 4.024C29.808 4.036 29.932 4.044 30.036 4.044C30.212 4.044 30.312 3.948 30.344 3.756C30.368 3.568 30.38 2.94 30.388 1.876H29.892V1.912C29.88 3.064 29.604 3.904 29.06 4.436L28.776 4.184C29.26 3.712 29.508 2.956 29.516 1.912V1.876H29.008V1.508H29.516V0.732ZM31.5 0.752C31.78 0.936 32.016 1.116 32.208 1.3L31.944 1.564C31.776 1.388 31.544 1.196 31.248 0.992L31.5 0.752ZM31.42 1.736C31.684 1.916 31.904 2.096 32.084 2.276L31.82 2.54C31.668 2.368 31.448 2.18 31.168 1.976L31.42 1.736ZM31.78 2.868L32.116 2.996C31.952 3.48 31.768 3.936 31.56 4.36L31.212 4.2C31.432 3.768 31.62 3.324 31.78 2.868ZM32.488 0.812H34.444V1.94H32.488V0.812ZM34.076 1.664V1.504H32.86V1.664H34.076ZM32.86 1.244H34.076V1.088H32.86V1.244ZM32.244 2.088H34.676V2.936H32.244V2.088ZM34.332 2.656V2.364H33.952V2.656H34.332ZM33.632 2.656V2.364H33.288V2.656H33.632ZM32.968 2.656V2.364H32.584V2.656H32.968ZM32.488 3.42H32.272V3.1H34.556V3.38C34.38 3.572 34.168 3.736 33.924 3.88C34.2 3.96 34.512 4.024 34.86 4.072L34.648 4.388C34.216 4.308 33.84 4.204 33.52 4.076C33.152 4.228 32.732 4.336 32.252 4.408L32.088 4.076C32.456 4.032 32.788 3.964 33.088 3.872C32.848 3.74 32.648 3.588 32.488 3.42ZM33.476 3.728C33.676 3.64 33.856 3.536 34.016 3.42H32.904C33.064 3.536 33.252 3.64 33.476 3.728ZM37.772 1.62C37.668 1.86 37.544 2.068 37.396 2.24L37.156 1.944C37.396 1.636 37.556 1.22 37.64 0.7L38.016 0.764C37.984 0.932 37.948 1.092 37.908 1.24H38.84V1.62H37.772ZM35.436 0.78C35.652 0.944 35.832 1.112 35.98 1.28L35.712 1.548C35.584 1.388 35.404 1.212 35.176 1.028L35.436 0.78ZM35.424 1.78C35.648 1.956 35.84 2.132 35.996 2.312L35.724 2.584C35.588 2.412 35.404 2.228 35.164 2.028L35.424 1.78ZM35.628 2.868L35.964 3C35.82 3.48 35.66 3.932 35.484 4.352L35.132 4.196C35.324 3.764 35.488 3.32 35.628 2.868ZM36.276 1.68H35.984V1.316H36.504C36.456 1.116 36.4 0.932 36.344 0.764L36.724 0.7C36.78 0.88 36.828 1.084 36.876 1.316H37.312V1.68H36.648V1.908C36.648 2.004 36.644 2.096 36.64 2.188H37.264C37.264 3.16 37.244 3.76 37.212 3.988C37.184 4.228 37.052 4.348 36.812 4.348C36.756 4.348 36.66 4.34 36.524 4.328L36.436 4.004C36.56 4.012 36.668 4.02 36.76 4.02C36.82 4.02 36.856 3.956 36.864 3.828C36.888 3.7 36.904 3.276 36.912 2.552H36.62C36.556 3.364 36.376 3.98 36.088 4.4L35.804 4.148C36.112 3.684 36.268 2.936 36.276 1.908V1.68ZM37.608 1.96H38.724V2.3C38.604 2.452 38.472 2.604 38.332 2.748V2.944H38.856V3.284H38.332V3.928C38.332 4.212 38.22 4.356 38.004 4.356H37.632L37.54 4.012C37.64 4.016 37.752 4.02 37.872 4.02C37.932 4.02 37.964 3.944 37.964 3.8V3.284H37.396V2.944H37.964V2.704C38.108 2.54 38.22 2.404 38.3 2.3H37.608V1.96ZM42.648 1.628L42.708 1.992L41.672 2.156C41.688 2.316 41.704 2.46 41.728 2.592C41.76 2.764 41.792 2.92 41.828 3.056C42.024 2.824 42.2 2.556 42.352 2.26L42.66 2.464C42.444 2.864 42.208 3.2 41.956 3.472C41.972 3.52 41.988 3.564 42.008 3.604C42.124 3.832 42.228 3.948 42.324 3.952C42.376 3.936 42.428 3.716 42.484 3.296L42.808 3.504C42.752 3.736 42.688 3.928 42.624 4.088C42.54 4.28 42.448 4.376 42.344 4.376C42.176 4.376 42.008 4.244 41.84 3.988C41.788 3.908 41.74 3.816 41.696 3.72C41.44 3.94 41.172 4.104 40.892 4.212L40.66 3.904C40.988 3.776 41.288 3.588 41.552 3.344C41.504 3.192 41.456 3.028 41.416 2.852C41.372 2.668 41.336 2.456 41.308 2.216L40.832 2.292L40.776 1.924L41.272 1.848C41.248 1.512 41.232 1.14 41.232 0.724H41.612C41.612 1.116 41.62 1.472 41.644 1.788L42.648 1.628ZM42.136 0.824C42.312 1.012 42.444 1.176 42.54 1.316L42.22 1.536C42.124 1.38 41.992 1.208 41.828 1.02L42.136 0.824ZM39.54 1.764C39.748 1.988 39.948 2.208 40.132 2.432C40.24 2.128 40.312 1.8 40.348 1.452H39.328V1.076H40.716V1.424C40.68 1.928 40.58 2.38 40.412 2.784C40.58 3.004 40.732 3.224 40.876 3.444L40.6 3.712C40.488 3.528 40.364 3.348 40.228 3.164C40.012 3.544 39.732 3.876 39.38 4.156L39.14 3.86C39.492 3.564 39.764 3.22 39.964 2.824C39.756 2.568 39.52 2.304 39.264 2.032L39.54 1.764ZM45.052 0.672C45.108 0.8 45.16 0.944 45.216 1.104H46.604V1.464H45.932C45.892 1.644 45.836 1.82 45.764 1.988H46.688V2.356H43.848V2.896C43.832 3.52 43.692 4.024 43.42 4.404L43.128 4.148C43.344 3.844 43.456 3.428 43.464 2.896V1.988H44.272L44.132 1.464H43.42V1.104H44.828C44.776 0.972 44.716 0.848 44.652 0.736L45.052 0.672ZM44.648 1.988H45.4C45.472 1.82 45.528 1.644 45.568 1.464H44.504L44.648 1.988ZM48.376 0.752H48.756V3.896H49.236V0.752H49.616V3.896H50.784V4.268H47.216V3.896H48.376V0.752ZM50.364 1.496L50.7 1.592C50.548 2.28 50.352 2.88 50.112 3.396L49.772 3.276C49.996 2.812 50.196 2.216 50.364 1.496ZM47.62 1.488C47.824 2.024 48.004 2.636 48.164 3.324L47.816 3.412C47.68 2.784 47.504 2.176 47.296 1.592L47.62 1.488ZM51.412 2.004L51.728 0.836L52.108 0.9L51.9 1.64H52.492C52.568 1.344 52.628 1.032 52.676 0.704L53.064 0.752C53.016 1.068 52.956 1.364 52.888 1.64H54.72V2.004H52.792C52.752 2.136 52.708 2.26 52.668 2.38H54.268V2.7C54.164 3.028 53.968 3.324 53.672 3.588C53.976 3.756 54.344 3.912 54.772 4.056L54.576 4.416C54.092 4.24 53.684 4.044 53.356 3.836C53.04 4.056 52.652 4.256 52.192 4.436L51.992 4.076C52.392 3.932 52.736 3.772 53.02 3.6C52.76 3.392 52.564 3.168 52.436 2.932C52.148 3.524 51.784 3.996 51.348 4.348L51.152 3.996C51.704 3.508 52.116 2.844 52.388 2.004H51.412ZM52.712 2.724C52.844 2.96 53.052 3.18 53.336 3.38C53.588 3.176 53.772 2.956 53.884 2.724H52.712ZM53.736 0.708C54.012 0.916 54.244 1.128 54.432 1.34L54.16 1.612C54 1.404 53.776 1.188 53.48 0.96L53.736 0.708ZM56.008 2.212H56.56V1.892H55.892V2.196C55.892 2.436 55.876 2.668 55.852 2.884H56.56V2.548H56.008V2.212ZM55.804 3.228C55.728 3.664 55.604 4.06 55.432 4.412L55.124 4.136C55.376 3.632 55.504 2.988 55.508 2.196V0.852H58.568V1.892H58.012V2.212H58.612V2.548H58.012V2.884H58.748V3.228H58.348L58.58 3.456C58.456 3.608 58.32 3.732 58.176 3.828C58.38 3.944 58.612 4.028 58.876 4.08L58.696 4.44C57.976 4.252 57.464 3.848 57.156 3.228H56.66V3.988C56.9 3.928 57.112 3.86 57.292 3.784L57.364 4.132C57.04 4.244 56.656 4.34 56.212 4.42L56.108 4.088C56.228 4.04 56.288 3.956 56.288 3.828V3.228H55.804ZM57.54 3.228C57.636 3.376 57.748 3.504 57.876 3.616C58.028 3.524 58.168 3.396 58.296 3.228H57.54ZM57.644 1.892H56.924V2.212H57.644V1.892ZM56.924 2.884H57.644V2.548H56.924V2.884ZM58.184 1.2H55.892V1.552H58.184V1.2ZM60.652 1.38V4.164H60.288V3.956H59.656V4.28H59.292V1.38H59.672C59.744 1.164 59.8 0.944 59.832 0.712L60.212 0.764C60.172 0.984 60.112 1.188 60.036 1.38H60.652ZM59.656 3.604H60.288V2.816H59.656V3.604ZM59.656 2.476H60.288V1.74H59.656V2.476ZM61.372 2.34C61.636 2.668 61.84 2.952 61.98 3.2L61.68 3.412C61.528 3.148 61.32 2.856 61.064 2.532L61.372 2.34ZM62.716 1.384C62.716 2.764 62.696 3.616 62.656 3.936C62.616 4.224 62.424 4.368 62.084 4.368C62.004 4.368 61.86 4.36 61.66 4.348L61.568 4C61.744 4.008 61.896 4.016 62.024 4.016C62.184 4.016 62.276 3.932 62.3 3.764C62.324 3.564 62.336 2.892 62.344 1.752H61.34C61.228 1.992 61.1 2.212 60.948 2.412L60.72 2.112C60.984 1.728 61.168 1.26 61.264 0.708L61.64 0.756C61.6 0.98 61.544 1.188 61.48 1.384H62.716ZM66.356 2.86V4.368H66.004V4.152H64.4V4.384H64.052V3.208C63.836 3.376 63.592 3.516 63.32 3.636L63.128 3.296C63.632 3.076 64.024 2.788 64.3 2.428H63.232V2.076H64.52C64.588 1.936 64.644 1.792 64.684 1.644L65.056 1.688C65.016 1.824 64.972 1.952 64.924 2.076H66.768V2.428H64.744C64.648 2.584 64.544 2.728 64.428 2.86H66.356ZM64.4 3.82H66.004V3.196H64.4V3.82ZM63.248 1.068H64.128V0.732H64.496V1.068H65.492V0.732H65.86V1.068H66.736V1.42H65.86V1.752H65.492V1.42H64.496V1.768H64.128V1.42H63.248V1.068ZM67.516 0.932H70.496V1.292H69.2V2.324H70.792V2.692H69.2V4.408H68.816V2.692H67.212V2.324H68.816V1.292H67.516V0.932ZM72.064 1.26H71.44V0.94H72.76C72.728 0.872 72.696 0.808 72.664 0.752L73.076 0.688C73.108 0.764 73.144 0.848 73.176 0.94H74.56V1.26H73.924L73.808 1.5H74.748V1.828H71.252V1.5H72.16L72.064 1.26ZM72.556 1.5H73.412L73.528 1.26H72.46L72.556 1.5ZM71.668 1.996H74.332V3.244H71.668V1.996ZM73.96 2.956V2.756H72.04V2.956H73.96ZM72.04 2.484H73.96V2.288H72.04V2.484ZM71.516 3.4L71.884 3.476C71.792 3.792 71.664 4.064 71.5 4.296L71.172 4.092C71.332 3.876 71.444 3.648 71.516 3.4ZM73.56 4.348H72.584C72.276 4.348 72.124 4.208 72.124 3.936V3.424H72.508V3.856C72.508 3.956 72.568 4.008 72.692 4.008H73.488C73.56 4.008 73.612 3.992 73.64 3.964C73.68 3.928 73.708 3.824 73.724 3.648L74.084 3.764C74.052 4.044 73.996 4.216 73.908 4.272C73.832 4.32 73.716 4.348 73.56 4.348ZM73.096 3.26C73.256 3.42 73.376 3.56 73.46 3.684L73.144 3.904C73.052 3.772 72.928 3.624 72.772 3.464L73.096 3.26ZM74.344 3.344C74.564 3.604 74.732 3.832 74.848 4.024L74.532 4.244C74.408 4.028 74.244 3.792 74.036 3.536L74.344 3.344ZM78.188 0.868V3.104H77.804V1.24H76.132V3.108H75.748V0.868H78.188ZM76.752 1.468H77.128V2.216C77.12 2.432 77.096 2.628 77.056 2.812H77.396V3.756C77.396 3.904 77.448 3.98 77.552 3.98H78.136C78.184 3.98 78.232 3.96 78.272 3.924C78.316 3.884 78.348 3.716 78.364 3.42L78.728 3.54C78.684 3.928 78.628 4.156 78.56 4.228C78.48 4.292 78.372 4.328 78.236 4.336H77.448C77.16 4.336 77.016 4.164 77.016 3.824V2.968C76.94 3.232 76.832 3.456 76.688 3.648C76.424 3.984 75.996 4.24 75.404 4.424L75.2 4.104C75.792 3.92 76.196 3.684 76.408 3.396C76.616 3.092 76.728 2.7 76.752 2.216V1.468ZM79.56 0.692L80.388 2.56L79.56 4.428L79.24 4.284L80.004 2.56L79.24 0.836L79.56 0.692ZM80.244 0.692L81.072 2.56L80.244 4.428L79.924 4.284L80.688 2.56L79.908 0.836L80.244 0.692Z" fill="white"/>
</svg>
