<svg width="114" height="5" viewBox="0 0 114 5" fill="none" xmlns="http://www.w3.org/2000/svg">
<path d="M1.756 0.692L2.092 0.836L1.312 2.56L2.076 4.284L1.756 4.428L0.928 2.56L1.756 0.692ZM2.44 0.692L2.76 0.836L1.996 2.56L2.76 4.284L2.44 4.428L1.612 2.56L2.44 0.692ZM4.288 0.736C4.44 0.936 4.588 1.156 4.728 1.396L4.48 1.52H5.308C5.452 1.292 5.58 1.02 5.692 0.708L6.064 0.808C5.976 1.072 5.864 1.308 5.736 1.52H6.496V1.888H5.192V2.012C5.184 2.204 5.164 2.38 5.136 2.544H6.728V2.912H5.328C5.524 3.396 6.024 3.776 6.828 4.056L6.604 4.416C5.764 4.072 5.232 3.616 5 3.052C4.928 3.24 4.84 3.408 4.736 3.552C4.464 3.912 4.02 4.188 3.404 4.38L3.196 4.048C3.812 3.848 4.228 3.596 4.448 3.292C4.524 3.176 4.588 3.048 4.64 2.912H3.272V2.544H4.744C4.776 2.376 4.8 2.2 4.808 2.012V1.888H3.5V1.52H4.356C4.224 1.288 4.084 1.084 3.94 0.904L4.288 0.736ZM7.472 0.852H10.5V1.224H9.224V2.2H10.78V2.58H9.224V3.944C9.224 4.224 9.076 4.368 8.784 4.368H8.148L8.068 4C8.272 4.012 8.468 4.02 8.652 4.02C8.78 4.02 8.844 3.96 8.844 3.848V2.58H7.22V2.2H8.844V1.224H7.472V0.852ZM13.028 3.624C12.704 3.968 12.184 4.232 11.472 4.416L11.264 4.092C12.008 3.896 12.516 3.648 12.784 3.344L12.852 3.252H11.3V2.892H13.048C13.144 2.652 13.2 2.384 13.216 2.088V1.6H13.584V2.088C13.572 2.384 13.528 2.652 13.448 2.892H14.704V3.252H13.292C13.272 3.284 13.252 3.316 13.236 3.348C13.788 3.564 14.296 3.82 14.76 4.108L14.552 4.436C14.056 4.1 13.548 3.832 13.028 3.624ZM11.872 2.132C12.156 2.248 12.416 2.388 12.652 2.552L12.456 2.852C12.208 2.664 11.948 2.52 11.684 2.416L11.872 2.132ZM12.264 1.572C12.548 1.684 12.808 1.824 13.04 1.988L12.844 2.288C12.596 2.104 12.34 1.956 12.076 1.852L12.264 1.572ZM14.668 1.072V1.892H14.3V1.42H11.692V1.892H11.324V1.072H12.824C12.78 0.96 12.736 0.856 12.688 0.76L13.076 0.696C13.124 0.808 13.168 0.932 13.208 1.072H14.668ZM15.22 1.252H15.8C15.732 1.076 15.66 0.912 15.58 0.764L15.968 0.696C16.036 0.86 16.104 1.044 16.168 1.252H16.64V1.62H15.86V2.088H16.568C16.568 3.128 16.548 3.772 16.516 4.016C16.476 4.256 16.3 4.38 15.98 4.38C15.948 4.38 15.892 4.372 15.816 4.364L15.732 4.024C15.804 4.036 15.868 4.044 15.924 4.044C16.064 4.044 16.148 3.976 16.176 3.84C16.196 3.704 16.208 3.236 16.216 2.44H15.856C15.832 3.324 15.684 3.976 15.412 4.396L15.128 4.148C15.372 3.756 15.496 3.124 15.5 2.26V1.62H15.22V1.252ZM17.216 1.484C17.084 1.772 16.936 2.02 16.772 2.232L16.524 1.936C16.76 1.64 16.96 1.228 17.128 0.704L17.484 0.784C17.444 0.904 17.404 1.016 17.364 1.128H18.744V1.484H17.216ZM18.604 1.928C18.604 2.692 18.584 3.156 18.552 3.316C18.516 3.476 18.368 3.56 18.104 3.56H18.084L17.988 3.24C18.056 3.24 18.116 3.244 18.168 3.244C18.212 3.244 18.24 3.204 18.248 3.128C18.256 3.06 18.264 2.816 18.264 2.4L17.96 2.508V3.812H17.608V2.632L17.3 2.74V3.784C17.3 3.96 17.36 4.052 17.48 4.052H18.236C18.32 4.052 18.384 4.032 18.424 3.992C18.472 3.944 18.504 3.804 18.52 3.568L18.848 3.672C18.812 4.016 18.752 4.22 18.664 4.292C18.584 4.352 18.464 4.384 18.296 4.384H17.372C17.1 4.384 16.964 4.204 16.964 3.852V2.86L16.68 2.96V2.616L16.964 2.516V1.98H17.3V2.396L17.608 2.284V1.656H17.96V2.16L18.604 1.928ZM22.36 0.692L22.68 0.836L21.916 2.56L22.68 4.284L22.36 4.428L21.532 2.56L22.36 0.692ZM23.34 0.968H24.828V1.332H23.34V0.968ZM23.192 2.048H24.972V2.416H24.072C23.928 2.964 23.804 3.364 23.7 3.62C23.964 3.564 24.232 3.484 24.5 3.384C24.408 3.188 24.316 3.004 24.224 2.832L24.544 2.676C24.728 3.012 24.904 3.384 25.072 3.788L24.744 3.956L24.64 3.7C24.22 3.844 23.768 3.96 23.28 4.048L23.188 3.688C23.228 3.68 23.252 3.668 23.268 3.656C23.376 3.5 23.52 3.088 23.704 2.416H23.192V2.048ZM25.516 0.732H25.892V1.508H26.756C26.756 2.812 26.736 3.616 26.7 3.92C26.656 4.224 26.452 4.376 26.088 4.376C26.024 4.376 25.912 4.368 25.752 4.36L25.664 4.024C25.808 4.036 25.932 4.044 26.036 4.044C26.212 4.044 26.312 3.948 26.344 3.756C26.368 3.568 26.38 2.94 26.388 1.876H25.892V1.912C25.88 3.064 25.604 3.904 25.06 4.436L24.776 4.184C25.26 3.712 25.508 2.956 25.516 1.912V1.876H25.008V1.508H25.516V0.732ZM27.5 0.752C27.78 0.936 28.016 1.116 28.208 1.3L27.944 1.564C27.776 1.388 27.544 1.196 27.248 0.992L27.5 0.752ZM27.42 1.736C27.684 1.916 27.904 2.096 28.084 2.276L27.82 2.54C27.668 2.368 27.448 2.18 27.168 1.976L27.42 1.736ZM27.78 2.868L28.116 2.996C27.952 3.48 27.768 3.936 27.56 4.36L27.212 4.2C27.432 3.768 27.62 3.324 27.78 2.868ZM28.488 0.812H30.444V1.94H28.488V0.812ZM30.076 1.664V1.504H28.86V1.664H30.076ZM28.86 1.244H30.076V1.088H28.86V1.244ZM28.244 2.088H30.676V2.936H28.244V2.088ZM30.332 2.656V2.364H29.952V2.656H30.332ZM29.632 2.656V2.364H29.288V2.656H29.632ZM28.968 2.656V2.364H28.584V2.656H28.968ZM28.488 3.42H28.272V3.1H30.556V3.38C30.38 3.572 30.168 3.736 29.924 3.88C30.2 3.96 30.512 4.024 30.86 4.072L30.648 4.388C30.216 4.308 29.84 4.204 29.52 4.076C29.152 4.228 28.732 4.336 28.252 4.408L28.088 4.076C28.456 4.032 28.788 3.964 29.088 3.872C28.848 3.74 28.648 3.588 28.488 3.42ZM29.476 3.728C29.676 3.64 29.856 3.536 30.016 3.42H28.904C29.064 3.536 29.252 3.64 29.476 3.728ZM32.86 0.724H33.14C33.644 1.272 34.22 1.704 34.876 2.016L34.668 2.384C34.016 2.048 33.46 1.608 33 1.064C32.576 1.576 32.012 2.016 31.316 2.388L31.112 2.02C31.812 1.676 32.396 1.244 32.86 0.724ZM32.924 1.8H33.304V2.656H34.364V3.02H33.304V3.9H34.652V4.268H31.3V3.9H31.876V2.376H32.252V3.9H32.924V1.8ZM36.376 0.752H36.756V3.896H37.236V0.752H37.616V3.896H38.784V4.268H35.216V3.896H36.376V0.752ZM38.364 1.496L38.7 1.592C38.548 2.28 38.352 2.88 38.112 3.396L37.772 3.276C37.996 2.812 38.196 2.216 38.364 1.496ZM35.62 1.488C35.824 2.024 36.004 2.636 36.164 3.324L35.816 3.412C35.68 2.784 35.504 2.176 35.296 1.592L35.62 1.488ZM41.464 0.748H41.848C41.848 1.092 41.836 1.416 41.812 1.712C42.02 2.696 42.38 3.48 42.892 4.064L42.62 4.384C42.224 3.872 41.92 3.256 41.704 2.536L41.672 2.692C41.528 3.38 41.188 3.944 40.652 4.392L40.396 4.08C40.852 3.688 41.148 3.204 41.292 2.628C41.404 2.144 41.46 1.516 41.464 0.748ZM39.692 0.752C39.952 0.948 40.172 1.144 40.352 1.344L40.092 1.608C39.932 1.42 39.712 1.22 39.428 1.012L39.692 0.752ZM39.164 1.912H40.088V3.584C40.212 3.48 40.344 3.36 40.488 3.224L40.584 3.616C40.328 3.852 40.056 4.064 39.764 4.256L39.62 3.916C39.688 3.86 39.724 3.792 39.724 3.708V2.276H39.164V1.912ZM43.816 1.876H46.192V2.236H45.208V2.836H46.36V3.196H45.208V3.932C45.48 3.972 45.812 3.992 46.212 3.996C46.412 3.996 46.62 3.984 46.828 3.968L46.756 4.344H46.38C45.54 4.344 44.936 4.268 44.576 4.116C44.32 3.996 44.112 3.82 43.952 3.588C43.8 3.908 43.612 4.18 43.388 4.404L43.14 4.1C43.516 3.708 43.772 3.18 43.9 2.524L44.268 2.588C44.22 2.82 44.16 3.04 44.092 3.24C44.28 3.552 44.516 3.756 44.796 3.844L44.832 3.852V2.236H43.816V1.876ZM46.676 1.096V2.004H46.304V1.448H43.696V2.024H43.324V1.096H44.828C44.772 0.968 44.708 0.852 44.644 0.748L45.052 0.684C45.108 0.808 45.164 0.944 45.216 1.096H46.676ZM50.168 2.292V3.132H48.22V3.344H50.356V4.412H49.976V4.268H48.22V4.408H47.84V2.292H50.168ZM48.22 3.932H49.976V3.644H48.22V3.932ZM48.22 2.828H49.796V2.596H48.22V2.828ZM50.72 1.792V2.556H50.348V2.112H47.652V2.556H47.28V1.792H48.828C48.796 1.712 48.76 1.64 48.724 1.576L49.06 1.52L48.992 1.476C49.176 1.236 49.312 0.98 49.392 0.704L49.756 0.784C49.732 0.852 49.712 0.916 49.688 0.98H50.8V1.312H50.148C50.212 1.4 50.264 1.488 50.308 1.568L49.972 1.692C49.908 1.564 49.832 1.436 49.744 1.312H49.54C49.472 1.444 49.396 1.568 49.312 1.68L49.12 1.556C49.152 1.628 49.18 1.708 49.212 1.792H50.72ZM47.82 1.312C47.732 1.456 47.636 1.592 47.532 1.716L47.2 1.508C47.432 1.26 47.596 0.988 47.696 0.7L48.06 0.78C48.036 0.848 48.008 0.916 47.984 0.98H48.992V1.312H48.392C48.464 1.412 48.528 1.508 48.576 1.6L48.228 1.732C48.16 1.588 48.084 1.448 47.996 1.312H47.82ZM52.628 0.856H54.652V2.768H53.832V3.168H54.704V3.52H53.832V3.936H54.844V4.3H52.424V3.936H53.456V3.52H52.58V3.168H53.456V2.768H52.628V0.856ZM54.288 2.432V1.976H53.832V2.432H54.288ZM53.456 2.432V1.976H52.992V2.432H53.456ZM52.992 1.648H53.456V1.192H52.992V1.648ZM53.832 1.192V1.648H54.288V1.192H53.832ZM51.248 2.172H51.644V1.316H51.188V0.956H52.48V1.316H52.028V2.172H52.432V2.536H52.028V3.336C52.164 3.288 52.296 3.24 52.424 3.184V3.552C52.056 3.696 51.664 3.82 51.244 3.92L51.152 3.556C51.32 3.528 51.484 3.492 51.644 3.452V2.536H51.248V2.172ZM55.616 2.152L55.952 2.284C55.82 2.76 55.648 3.124 55.432 3.38L55.148 3.132C55.356 2.884 55.512 2.56 55.616 2.152ZM56.444 0.732H56.828V1.476H58.092C58.084 1.756 58.08 2.016 58.072 2.256L58.336 2.128C58.52 2.488 58.7 2.884 58.872 3.32L58.524 3.488C58.38 3.096 58.224 2.736 58.064 2.416C58.048 2.712 58.032 2.976 58.016 3.2C57.976 3.632 57.908 3.936 57.816 4.112C57.724 4.28 57.576 4.368 57.372 4.384H56.904L56.8 4.016C56.936 4.024 57.064 4.028 57.184 4.028C57.38 4.028 57.512 3.892 57.58 3.628C57.644 3.348 57.684 2.752 57.704 1.844H56.812C56.772 2.48 56.66 3 56.476 3.404C56.268 3.84 55.924 4.176 55.448 4.416L55.24 4.084C55.696 3.832 56.008 3.512 56.176 3.128C56.312 2.78 56.396 2.352 56.428 1.844H55.476V1.476H56.444V0.732ZM61.284 0.728H61.668V1.332H62.664V1.7H61.668V2.36H62.772V2.728H61.472C61.244 3.264 61.044 3.66 60.868 3.916C61.308 3.868 61.744 3.796 62.176 3.708C62.072 3.492 61.964 3.292 61.856 3.108L62.224 2.988C62.46 3.388 62.668 3.812 62.844 4.268L62.484 4.428C62.432 4.292 62.38 4.16 62.328 4.04C61.732 4.156 61.084 4.248 60.384 4.32L60.296 3.988C60.328 3.976 60.356 3.964 60.376 3.952C60.552 3.796 60.78 3.388 61.06 2.728H60.176V2.36H61.284V1.7H60.368V1.332H61.284V0.728ZM59.548 0.76C59.804 0.96 60.02 1.156 60.2 1.352L59.928 1.628C59.776 1.44 59.556 1.24 59.272 1.024L59.548 0.76ZM59.448 1.696C59.684 1.896 59.884 2.096 60.052 2.296L59.776 2.568C59.636 2.38 59.436 2.176 59.176 1.96L59.448 1.696ZM59.836 2.824L60.18 2.964C60.008 3.464 59.816 3.936 59.608 4.38L59.228 4.212C59.46 3.76 59.664 3.296 59.836 2.824ZM66.324 0.692H66.68C66.512 0.964 66.384 1.24 66.296 1.52C66.176 1.864 66.12 2.212 66.12 2.56C66.12 2.904 66.176 3.252 66.296 3.6C66.384 3.876 66.512 4.152 66.68 4.428H66.324C66.136 4.164 65.992 3.892 65.892 3.612C65.768 3.272 65.708 2.924 65.708 2.564C65.708 2.2 65.768 1.848 65.892 1.512C65.992 1.224 66.136 0.952 66.324 0.692ZM68.836 2.672H68.492V2.316H69.552V2.672H69.208V3.656C69.368 3.62 69.528 3.58 69.684 3.536V3.892C69.336 3.988 68.964 4.072 68.568 4.14L68.476 3.776C68.596 3.76 68.716 3.744 68.836 3.724V2.672ZM70.396 4.376C70.252 4.376 70.12 4.268 70.008 4.06C69.88 3.808 69.788 3.476 69.732 3.068C69.684 2.716 69.652 2.288 69.636 1.776H68.4V1.408H69.628C69.62 1.184 69.62 0.948 69.62 0.708H69.988C69.988 0.956 69.988 1.188 69.996 1.408H70.76V1.776H70.004C70.02 2.388 70.06 2.88 70.116 3.248C70.196 3.704 70.288 3.94 70.396 3.96C70.46 3.952 70.524 3.716 70.596 3.26L70.896 3.504C70.752 4.084 70.588 4.376 70.396 4.376ZM70.324 0.704C70.492 0.888 70.62 1.052 70.716 1.188L70.452 1.372C70.356 1.22 70.224 1.052 70.064 0.868L70.324 0.704ZM67.692 0.752C67.94 0.948 68.148 1.144 68.316 1.344L68.056 1.608C67.904 1.42 67.692 1.22 67.428 1.012L67.692 0.752ZM67.152 1.912H68.052V3.56C68.144 3.468 68.24 3.368 68.34 3.256L68.44 3.656C68.216 3.896 67.98 4.108 67.728 4.292L67.584 3.952C67.648 3.896 67.684 3.832 67.684 3.756V2.276H67.152V1.912ZM72.68 0.944H74.632V1.316H72.68V0.944ZM72.58 1.944H74.804V2.316H74.18V4.012C74.18 4.268 74.036 4.396 73.752 4.396H73.172L73.088 4.024C73.272 4.04 73.452 4.048 73.62 4.048C73.736 4.048 73.796 4.004 73.796 3.92V2.316H72.58V1.944ZM72 0.748L72.348 0.908C72.132 1.348 71.772 1.74 71.26 2.092L71.144 1.712C71.532 1.436 71.816 1.116 72 0.748ZM72.188 1.664L72.532 1.824C72.424 2.04 72.288 2.244 72.124 2.436V4.412H71.752V2.808C71.608 2.932 71.456 3.052 71.288 3.168L71.176 2.792C71.632 2.472 71.972 2.096 72.188 1.664ZM75.32 0.692H75.676C75.86 0.952 76.004 1.224 76.108 1.512C76.228 1.848 76.292 2.2 76.292 2.564C76.292 2.924 76.228 3.272 76.108 3.612C76.004 3.892 75.86 4.164 75.676 4.428H75.32C75.484 4.152 75.612 3.876 75.704 3.6C75.82 3.252 75.88 2.904 75.88 2.56C75.88 2.212 75.82 1.864 75.704 1.52C75.612 1.24 75.484 0.964 75.32 0.692ZM79.64 0.692L80.468 2.56L79.64 4.428L79.32 4.284L80.084 2.56L79.32 0.836L79.64 0.692ZM84.448 2.212V2.564H85.944V2.212H84.448ZM85.944 2.896H84.448V3.24H85.944V2.896ZM85.944 3.568H84.448V4.404H84.092V2.408C83.884 2.652 83.656 2.876 83.4 3.084L83.156 2.764C83.62 2.396 83.988 1.972 84.252 1.5H83.264V1.132H84.436C84.496 0.988 84.548 0.84 84.596 0.696L84.984 0.74C84.944 0.876 84.9 1.008 84.852 1.132H86.784V1.5H84.688C84.624 1.632 84.552 1.76 84.476 1.884H86.3V4.048C86.3 4.268 86.172 4.38 85.916 4.388H85.468L85.376 4.044C85.524 4.056 85.664 4.064 85.796 4.064C85.892 4.064 85.944 4.02 85.944 3.932V3.568ZM88.288 0.736C88.44 0.936 88.588 1.156 88.728 1.396L88.48 1.52H89.308C89.452 1.292 89.58 1.02 89.692 0.708L90.064 0.808C89.976 1.072 89.864 1.308 89.736 1.52H90.496V1.888H89.192V2.012C89.184 2.204 89.164 2.38 89.136 2.544H90.728V2.912H89.328C89.524 3.396 90.024 3.776 90.828 4.056L90.604 4.416C89.764 4.072 89.232 3.616 89 3.052C88.928 3.24 88.84 3.408 88.736 3.552C88.464 3.912 88.02 4.188 87.404 4.38L87.196 4.048C87.812 3.848 88.228 3.596 88.448 3.292C88.524 3.176 88.588 3.048 88.64 2.912H87.272V2.544H88.744C88.776 2.376 88.8 2.2 88.808 2.012V1.888H87.5V1.52H88.356C88.224 1.288 88.084 1.084 87.94 0.904L88.288 0.736ZM94.148 4.388H93.74L93.644 4.032L94.072 4.04C94.208 4.04 94.28 3.964 94.28 3.816V1.292H92.768V0.924H94.668V3.916C94.668 4.228 94.492 4.388 94.148 4.388ZM91.332 1.384H91.72V4.416H91.332V1.384ZM92.228 1.928H93.756V3.52H92.228V1.928ZM93.376 3.156V2.292H92.608V3.156H93.376ZM92.024 0.68C92.204 0.896 92.364 1.136 92.508 1.396L92.168 1.572C92.016 1.292 91.852 1.048 91.672 0.836L92.024 0.68ZM97.88 3.996C98.312 3.996 98.632 3.988 98.844 3.972L98.78 4.348H97.968C97.008 4.348 96.412 4.296 96.172 4.196C95.98 4.116 95.812 3.976 95.664 3.78C95.596 4.012 95.504 4.224 95.388 4.42L95.116 4.176C95.316 3.824 95.428 3.428 95.448 2.992L95.784 3.036C95.776 3.168 95.764 3.296 95.744 3.416C95.828 3.536 95.92 3.632 96.016 3.712V2.856H95.252V2.512H96.964V2.856H96.348V3.2H96.864V3.536H96.348V3.892C96.356 3.892 96.36 3.896 96.364 3.896C96.58 3.96 97.088 3.996 97.88 3.996ZM95.408 0.852H96.828V2.304H95.408V0.852ZM96.46 1.992V1.724H95.776V1.992H96.46ZM95.776 1.436H96.46V1.164H95.776V1.436ZM96.996 0.852H98.748V1.196H98.056C98.044 1.284 98.028 1.368 98.012 1.448H98.656V3.092H98.304V1.772H97.44V3.092H97.104V1.448H97.676C97.692 1.364 97.704 1.28 97.712 1.196H96.996V0.852ZM98.196 3.076C98.436 3.256 98.636 3.44 98.8 3.624L98.536 3.888C98.392 3.712 98.196 3.52 97.94 3.316L98.196 3.076ZM97.696 1.924H98.048V2.5C98.032 2.876 97.956 3.176 97.82 3.4C97.68 3.608 97.456 3.772 97.148 3.884L96.944 3.56C97.232 3.456 97.428 3.324 97.532 3.164C97.632 2.996 97.688 2.772 97.696 2.5V1.924ZM100.652 1.38V4.164H100.288V3.956H99.656V4.28H99.292V1.38H99.672C99.744 1.164 99.8 0.944 99.832 0.712L100.212 0.764C100.172 0.984 100.112 1.188 100.036 1.38H100.652ZM99.656 3.604H100.288V2.816H99.656V3.604ZM99.656 2.476H100.288V1.74H99.656V2.476ZM101.372 2.34C101.636 2.668 101.84 2.952 101.98 3.2L101.68 3.412C101.528 3.148 101.32 2.856 101.064 2.532L101.372 2.34ZM102.716 1.384C102.716 2.764 102.696 3.616 102.656 3.936C102.616 4.224 102.424 4.368 102.084 4.368C102.004 4.368 101.86 4.36 101.66 4.348L101.568 4C101.744 4.008 101.896 4.016 102.024 4.016C102.184 4.016 102.276 3.932 102.3 3.764C102.324 3.564 102.336 2.892 102.344 1.752H101.34C101.228 1.992 101.1 2.212 100.948 2.412L100.72 2.112C100.984 1.728 101.168 1.26 101.264 0.708L101.64 0.756C101.6 0.98 101.544 1.188 101.48 1.384H102.716ZM103.54 0.76C103.812 0.972 104.04 1.184 104.224 1.392L103.956 1.656C103.796 1.456 103.572 1.24 103.28 1.008L103.54 0.76ZM105.84 4.344C105.62 4.344 105.38 4.34 105.124 4.336C104.864 4.332 104.652 4.308 104.484 4.268C104.324 4.22 104.184 4.124 104.064 3.988C104.008 3.92 103.96 3.888 103.912 3.888C103.828 3.888 103.684 4.068 103.48 4.428L103.2 4.168C103.4 3.844 103.58 3.64 103.74 3.56V2.428H103.204V2.076H104.096V3.588C104.116 3.604 104.136 3.624 104.156 3.648C104.248 3.756 104.344 3.836 104.444 3.888C104.564 3.944 104.74 3.98 104.976 3.988C105.204 3.992 105.472 3.996 105.784 3.996C105.98 3.996 106.18 3.992 106.38 3.988C106.58 3.984 106.736 3.976 106.844 3.968L106.752 4.344H105.84ZM105.148 1.156H104.376V0.84H106.572V1.108C106.34 1.308 106.092 1.476 105.828 1.62C105.836 1.628 105.844 1.632 105.852 1.64H106.656V3.416C106.656 3.652 106.524 3.772 106.264 3.772H105.956L105.876 3.456L106.16 3.472C106.248 3.472 106.296 3.428 106.296 3.34V3.136H105.72V3.792H105.372V3.136H104.808V3.8H104.448V1.64H105.368C105.236 1.552 105.088 1.46 104.924 1.372L105.148 1.156ZM105.596 1.44C105.764 1.356 105.92 1.26 106.064 1.156H105.168C105.32 1.252 105.464 1.344 105.596 1.44ZM104.808 2.548V2.828H105.372V2.548H104.808ZM105.72 2.548V2.828H106.296V2.548H105.72ZM106.296 2.236V1.956H105.72V2.236H106.296ZM105.372 2.236V1.956H104.808V2.236H105.372ZM110.692 1.112V4.232H110.324V4.004H109.624V4.236H109.256V1.112H110.692ZM109.624 3.648H110.324V1.468H109.624V3.648ZM107.82 1.588C107.728 1.788 107.624 1.972 107.512 2.14L107.18 1.928C107.436 1.552 107.62 1.148 107.728 0.716L108.104 0.796C108.064 0.948 108.016 1.088 107.968 1.224H109.06V1.588H108.516C108.508 1.836 108.496 2.068 108.472 2.28H109.096V2.644H108.42C108.404 2.732 108.384 2.82 108.368 2.9C108.612 3.148 108.86 3.424 109.116 3.728L108.884 4.08C108.636 3.728 108.428 3.452 108.26 3.252C108.092 3.672 107.808 4.028 107.4 4.316L107.152 4.012C107.568 3.704 107.84 3.328 107.972 2.88C107.988 2.804 108.008 2.724 108.024 2.644H107.236V2.28H108.08C108.104 2.068 108.116 1.836 108.124 1.588H107.82ZM111.56 0.692L112.388 2.56L111.56 4.428L111.24 4.284L112.004 2.56L111.24 0.836L111.56 0.692ZM112.244 0.692L113.072 2.56L112.244 4.428L111.924 4.284L112.688 2.56L111.908 0.836L112.244 0.692Z" fill="white"/>
</svg>
