<svg width="90" height="5" viewBox="0 0 90 5" fill="none" xmlns="http://www.w3.org/2000/svg">
<path d="M1.756 0.692L2.092 0.836L1.312 2.56L2.076 4.284L1.756 4.428L0.928 2.56L1.756 0.692ZM2.44 0.692L2.76 0.836L1.996 2.56L2.76 4.284L2.44 4.428L1.612 2.56L2.44 0.692ZM4.288 0.736C4.44 0.936 4.588 1.156 4.728 1.396L4.48 1.52H5.308C5.452 1.292 5.58 1.02 5.692 0.708L6.064 0.808C5.976 1.072 5.864 1.308 5.736 1.52H6.496V1.888H5.192V2.012C5.184 2.204 5.164 2.38 5.136 2.544H6.728V2.912H5.328C5.524 3.396 6.024 3.776 6.828 4.056L6.604 4.416C5.764 4.072 5.232 3.616 5 3.052C4.928 3.24 4.84 3.408 4.736 3.552C4.464 3.912 4.02 4.188 3.404 4.38L3.196 4.048C3.812 3.848 4.228 3.596 4.448 3.292C4.524 3.176 4.588 3.048 4.64 2.912H3.272V2.544H4.744C4.776 2.376 4.8 2.2 4.808 2.012V1.888H3.5V1.52H4.356C4.224 1.288 4.084 1.084 3.94 0.904L4.288 0.736ZM7.472 0.852H10.5V1.224H9.224V2.2H10.78V2.58H9.224V3.944C9.224 4.224 9.076 4.368 8.784 4.368H8.148L8.068 4C8.272 4.012 8.468 4.02 8.652 4.02C8.78 4.02 8.844 3.96 8.844 3.848V2.58H7.22V2.2H8.844V1.224H7.472V0.852ZM12.424 2.264V2.64C12.3 2.708 12.176 2.772 12.048 2.836V3.972C12.048 4.24 11.916 4.376 11.652 4.376H11.328L11.244 4.008C11.34 4.02 11.432 4.028 11.52 4.028C11.616 4.028 11.664 3.976 11.664 3.876V3.008C11.516 3.064 11.368 3.12 11.216 3.172L11.124 2.808C11.308 2.764 11.488 2.708 11.664 2.64V1.788H11.176V1.424H11.664V0.728H12.048V1.424H12.452V1.788H12.048V2.472C12.176 2.408 12.304 2.336 12.424 2.264ZM12.684 1.344H13.424V0.732H13.804V1.344H14.608V1.712H13.804V2.144C13.804 2.236 13.796 2.328 13.788 2.42H14.78V2.788H13.908C14.12 3.324 14.44 3.76 14.864 4.096L14.608 4.396C14.188 4.028 13.868 3.576 13.648 3.048C13.472 3.552 13.152 3.996 12.688 4.38L12.392 4.132C12.88 3.748 13.196 3.3 13.34 2.788H12.56V2.42H13.408C13.416 2.324 13.424 2.232 13.424 2.144V1.712H12.684V1.344ZM17.472 0.744H17.844V1.116H18.632V1.464H17.844V1.844H18.784V2.204H16.576V1.844H17.472V1.464H16.72V1.116H17.472V0.744ZM16.512 2.628H17.936V2.352H18.316V2.628H18.788V2.984H18.316V3.984C18.316 4.248 18.184 4.384 17.92 4.384H17.392L17.308 4.016C17.476 4.028 17.632 4.036 17.784 4.036C17.884 4.036 17.936 3.984 17.936 3.888V2.984H16.512V2.628ZM15.66 4.376H15.308L15.228 4.012C15.332 4.028 15.432 4.036 15.528 4.036C15.624 4.036 15.676 3.984 15.676 3.88V3.044C15.536 3.092 15.396 3.14 15.252 3.184L15.156 2.8C15.332 2.76 15.504 2.712 15.676 2.656V1.82H15.22V1.456H15.676V0.772H16.048V1.456H16.432V1.82H16.048V2.516C16.18 2.456 16.308 2.392 16.436 2.328V2.716C16.308 2.78 16.176 2.84 16.048 2.896V3.976C16.048 4.24 15.916 4.376 15.66 4.376ZM17 3.112C17.188 3.348 17.332 3.556 17.432 3.736L17.132 3.944C17.024 3.752 16.876 3.536 16.692 3.3L17 3.112ZM19.34 0.968H20.828V1.332H19.34V0.968ZM19.192 2.048H20.972V2.416H20.072C19.928 2.964 19.804 3.364 19.7 3.62C19.964 3.564 20.232 3.484 20.5 3.384C20.408 3.188 20.316 3.004 20.224 2.832L20.544 2.676C20.728 3.012 20.904 3.384 21.072 3.788L20.744 3.956L20.64 3.7C20.22 3.844 19.768 3.96 19.28 4.048L19.188 3.688C19.228 3.68 19.252 3.668 19.268 3.656C19.376 3.5 19.52 3.088 19.704 2.416H19.192V2.048ZM21.516 0.732H21.892V1.508H22.756C22.756 2.812 22.736 3.616 22.7 3.92C22.656 4.224 22.452 4.376 22.088 4.376C22.024 4.376 21.912 4.368 21.752 4.36L21.664 4.024C21.808 4.036 21.932 4.044 22.036 4.044C22.212 4.044 22.312 3.948 22.344 3.756C22.368 3.568 22.38 2.94 22.388 1.876H21.892V1.912C21.88 3.064 21.604 3.904 21.06 4.436L20.776 4.184C21.26 3.712 21.508 2.956 21.516 1.912V1.876H21.008V1.508H21.516V0.732ZM23.5 0.752C23.78 0.936 24.016 1.116 24.208 1.3L23.944 1.564C23.776 1.388 23.544 1.196 23.248 0.992L23.5 0.752ZM23.42 1.736C23.684 1.916 23.904 2.096 24.084 2.276L23.82 2.54C23.668 2.368 23.448 2.18 23.168 1.976L23.42 1.736ZM23.78 2.868L24.116 2.996C23.952 3.48 23.768 3.936 23.56 4.36L23.212 4.2C23.432 3.768 23.62 3.324 23.78 2.868ZM24.488 0.812H26.444V1.94H24.488V0.812ZM26.076 1.664V1.504H24.86V1.664H26.076ZM24.86 1.244H26.076V1.088H24.86V1.244ZM24.244 2.088H26.676V2.936H24.244V2.088ZM26.332 2.656V2.364H25.952V2.656H26.332ZM25.632 2.656V2.364H25.288V2.656H25.632ZM24.968 2.656V2.364H24.584V2.656H24.968ZM24.488 3.42H24.272V3.1H26.556V3.38C26.38 3.572 26.168 3.736 25.924 3.88C26.2 3.96 26.512 4.024 26.86 4.072L26.648 4.388C26.216 4.308 25.84 4.204 25.52 4.076C25.152 4.228 24.732 4.336 24.252 4.408L24.088 4.076C24.456 4.032 24.788 3.964 25.088 3.872C24.848 3.74 24.648 3.588 24.488 3.42ZM25.476 3.728C25.676 3.64 25.856 3.536 26.016 3.42H24.904C25.064 3.536 25.252 3.64 25.476 3.728ZM29.052 0.672C29.108 0.8 29.16 0.944 29.216 1.104H30.604V1.464H29.932C29.892 1.644 29.836 1.82 29.764 1.988H30.688V2.356H27.848V2.896C27.832 3.52 27.692 4.024 27.42 4.404L27.128 4.148C27.344 3.844 27.456 3.428 27.464 2.896V1.988H28.272L28.132 1.464H27.42V1.104H28.828C28.776 0.972 28.716 0.848 28.652 0.736L29.052 0.672ZM28.648 1.988H29.4C29.472 1.82 29.528 1.644 29.568 1.464H28.504L28.648 1.988ZM32.376 0.752H32.756V3.896H33.236V0.752H33.616V3.896H34.784V4.268H31.216V3.896H32.376V0.752ZM34.364 1.496L34.7 1.592C34.548 2.28 34.352 2.88 34.112 3.396L33.772 3.276C33.996 2.812 34.196 2.216 34.364 1.496ZM31.62 1.488C31.824 2.024 32.004 2.636 32.164 3.324L31.816 3.412C31.68 2.784 31.504 2.176 31.296 1.592L31.62 1.488ZM35.412 2.004L35.728 0.836L36.108 0.9L35.9 1.64H36.492C36.568 1.344 36.628 1.032 36.676 0.704L37.064 0.752C37.016 1.068 36.956 1.364 36.888 1.64H38.72V2.004H36.792C36.752 2.136 36.708 2.26 36.668 2.38H38.268V2.7C38.164 3.028 37.968 3.324 37.672 3.588C37.976 3.756 38.344 3.912 38.772 4.056L38.576 4.416C38.092 4.24 37.684 4.044 37.356 3.836C37.04 4.056 36.652 4.256 36.192 4.436L35.992 4.076C36.392 3.932 36.736 3.772 37.02 3.6C36.76 3.392 36.564 3.168 36.436 2.932C36.148 3.524 35.784 3.996 35.348 4.348L35.152 3.996C35.704 3.508 36.116 2.844 36.388 2.004H35.412ZM36.712 2.724C36.844 2.96 37.052 3.18 37.336 3.38C37.588 3.176 37.772 2.956 37.884 2.724H36.712ZM37.736 0.708C38.012 0.916 38.244 1.128 38.432 1.34L38.16 1.612C38 1.404 37.776 1.188 37.48 0.96L37.736 0.708ZM40.008 2.212H40.56V1.892H39.892V2.196C39.892 2.436 39.876 2.668 39.852 2.884H40.56V2.548H40.008V2.212ZM39.804 3.228C39.728 3.664 39.604 4.06 39.432 4.412L39.124 4.136C39.376 3.632 39.504 2.988 39.508 2.196V0.852H42.568V1.892H42.012V2.212H42.612V2.548H42.012V2.884H42.748V3.228H42.348L42.58 3.456C42.456 3.608 42.32 3.732 42.176 3.828C42.38 3.944 42.612 4.028 42.876 4.08L42.696 4.44C41.976 4.252 41.464 3.848 41.156 3.228H40.66V3.988C40.9 3.928 41.112 3.86 41.292 3.784L41.364 4.132C41.04 4.244 40.656 4.34 40.212 4.42L40.108 4.088C40.228 4.04 40.288 3.956 40.288 3.828V3.228H39.804ZM41.54 3.228C41.636 3.376 41.748 3.504 41.876 3.616C42.028 3.524 42.168 3.396 42.296 3.228H41.54ZM41.644 1.892H40.924V2.212H41.644V1.892ZM40.924 2.884H41.644V2.548H40.924V2.884ZM42.184 1.2H39.892V1.552H42.184V1.2ZM43.184 1.756H43.588V0.74H43.96V1.756H44.332V2.116H43.96V3.328C44.104 3.264 44.244 3.2 44.384 3.128V3.508C44.028 3.684 43.648 3.836 43.24 3.956L43.144 3.58C43.296 3.548 43.444 3.508 43.588 3.464V2.116H43.184V1.756ZM45.188 0.716C45.24 0.86 45.292 1.024 45.34 1.208H45.844C45.908 1.044 45.952 0.872 45.984 0.696L46.36 0.748C46.324 0.912 46.276 1.064 46.216 1.208H46.712V2.628H44.468V1.208H44.984C44.928 1.056 44.872 0.912 44.808 0.78L45.188 0.716ZM46.384 2.32V1.52H45.728V2.32H46.384ZM45.432 2.32V1.52H44.796V2.32H45.432ZM45.144 1.644C45.208 1.792 45.264 1.964 45.316 2.156L45.076 2.22C45.028 2.044 44.972 1.88 44.908 1.72L45.144 1.644ZM46.012 1.624L46.264 1.688C46.216 1.892 46.152 2.072 46.076 2.232L45.84 2.148C45.904 2.008 45.964 1.832 46.012 1.624ZM46.568 2.848V4.416H46.204V4.272H44.988V4.416H44.624V2.848H46.568ZM44.988 3.964H46.204V3.7H44.988V3.964ZM44.988 3.412H46.204V3.152H44.988V3.412ZM49.42 0.7L49.796 0.752C49.788 0.86 49.776 0.964 49.768 1.068H50.724V1.412H49.728C49.712 1.508 49.7 1.596 49.688 1.684H50.476V3.956H50.84V4.3H48.196V3.956H48.592V1.684H49.316C49.332 1.592 49.344 1.5 49.352 1.412H48.368V1.068H49.392C49.4 0.944 49.412 0.82 49.42 0.7ZM48.956 3.956H50.112V3.688H48.956V3.956ZM48.956 3.388H50.112V3.132H48.956V3.388ZM48.956 2.828H50.112V2.576H48.956V2.828ZM48.956 2.276H50.112V2.024H48.956V2.276ZM47.672 2.22C47.552 2.388 47.424 2.552 47.288 2.708L47.164 2.304C47.536 1.848 47.808 1.312 47.98 0.704L48.324 0.864C48.248 1.12 48.152 1.364 48.04 1.596V4.416H47.672V2.22ZM52.808 1.552H53.236C53.132 1.304 53.024 1.084 52.908 0.892L53.216 0.744C53.336 0.948 53.452 1.172 53.564 1.42L53.304 1.552H53.752C53.888 1.288 54.004 1.004 54.108 0.7L54.472 0.828C54.372 1.096 54.26 1.336 54.14 1.552H54.572V2.9H54.152V3.892C54.152 3.972 54.18 4.016 54.236 4.016H54.384C54.424 4.016 54.456 3.988 54.472 3.94C54.496 3.884 54.512 3.72 54.52 3.444L54.852 3.548C54.828 3.94 54.784 4.172 54.72 4.252C54.66 4.324 54.568 4.36 54.448 4.36H54.124C53.908 4.36 53.8 4.228 53.8 3.968V2.9H53.516C53.476 3.604 53.228 4.116 52.776 4.432L52.576 4.1C52.932 3.864 53.128 3.464 53.164 2.9H52.808V1.552ZM54.228 2.564V1.888H53.156V2.564H54.228ZM51.256 1.772H51.8V1.284C51.64 1.308 51.48 1.328 51.316 1.344L51.24 0.992C51.72 0.952 52.148 0.872 52.524 0.756L52.656 1.108C52.5 1.148 52.336 1.188 52.168 1.224V1.772H52.628V2.136H52.168V2.344C52.348 2.528 52.532 2.736 52.72 2.968L52.508 3.288C52.376 3.064 52.264 2.884 52.168 2.74V4.384H51.8V2.768C51.672 3.092 51.512 3.388 51.32 3.66L51.148 3.22C51.432 2.9 51.64 2.536 51.768 2.136H51.256V1.772ZM55.972 2.168H58.048V3.024H55.972V2.168ZM57.7 2.744V2.456H56.324V2.744H57.7ZM58.424 3.24V4.416H58.056V4.26H55.984V4.416H55.612V3.24H58.424ZM55.984 3.944H58.056V3.552H55.984V3.944ZM55.268 0.968H56.136V0.728H56.512V0.968H57.488V0.728H57.864V0.968H58.732V1.3H57.864V1.504H57.488V1.3H56.512V1.504H56.136V1.3H55.268V0.968ZM58.652 1.628V2.424H58.288V1.948H55.712V2.444H55.348V1.628H58.652ZM60.376 0.752H60.756V3.896H61.236V0.752H61.616V3.896H62.784V4.268H59.216V3.896H60.376V0.752ZM62.364 1.496L62.7 1.592C62.548 2.28 62.352 2.88 62.112 3.396L61.772 3.276C61.996 2.812 62.196 2.216 62.364 1.496ZM59.62 1.488C59.824 2.024 60.004 2.636 60.164 3.324L59.816 3.412C59.68 2.784 59.504 2.176 59.296 1.592L59.62 1.488ZM64.808 1.552H65.236C65.132 1.304 65.024 1.084 64.908 0.892L65.216 0.744C65.336 0.948 65.452 1.172 65.564 1.42L65.304 1.552H65.752C65.888 1.288 66.004 1.004 66.108 0.7L66.472 0.828C66.372 1.096 66.26 1.336 66.14 1.552H66.572V2.9H66.152V3.892C66.152 3.972 66.18 4.016 66.236 4.016H66.384C66.424 4.016 66.456 3.988 66.472 3.94C66.496 3.884 66.512 3.72 66.52 3.444L66.852 3.548C66.828 3.94 66.784 4.172 66.72 4.252C66.66 4.324 66.568 4.36 66.448 4.36H66.124C65.908 4.36 65.8 4.228 65.8 3.968V2.9H65.516C65.476 3.604 65.228 4.116 64.776 4.432L64.576 4.1C64.932 3.864 65.128 3.464 65.164 2.9H64.808V1.552ZM66.228 2.564V1.888H65.156V2.564H66.228ZM63.256 1.772H63.8V1.284C63.64 1.308 63.48 1.328 63.316 1.344L63.24 0.992C63.72 0.952 64.148 0.872 64.524 0.756L64.656 1.108C64.5 1.148 64.336 1.188 64.168 1.224V1.772H64.628V2.136H64.168V2.344C64.348 2.528 64.532 2.736 64.72 2.968L64.508 3.288C64.376 3.064 64.264 2.884 64.168 2.74V4.384H63.8V2.768C63.672 3.092 63.512 3.388 63.32 3.66L63.148 3.22C63.432 2.9 63.64 2.536 63.768 2.136H63.256V1.772ZM67.264 1.052H68.984V1.424H68.404V2.192H68.824V2.432C69.084 1.956 69.26 1.384 69.356 0.712L69.728 0.756C69.696 0.956 69.656 1.148 69.612 1.332H70.788V1.704H70.524C70.492 2.344 70.344 2.884 70.072 3.324C70.304 3.652 70.576 3.908 70.884 4.092L70.668 4.412C70.356 4.224 70.08 3.964 69.848 3.636C69.576 3.96 69.224 4.22 68.8 4.416L68.568 4.104C69.024 3.912 69.384 3.644 69.64 3.308C69.484 3.028 69.352 2.716 69.24 2.372C69.16 2.532 69.072 2.688 68.976 2.832L68.764 2.552H68.404V3.472C68.596 3.416 68.78 3.356 68.956 3.296V3.648C68.468 3.824 67.9 3.984 67.252 4.132L67.148 3.784C67.228 3.768 67.304 3.748 67.384 3.732V1.908H67.74V3.648C67.844 3.624 67.94 3.6 68.036 3.576V1.424H67.264V1.052ZM69.852 2.968C70.036 2.604 70.136 2.184 70.152 1.704H69.504C69.48 1.772 69.46 1.84 69.436 1.904C69.548 2.304 69.684 2.66 69.852 2.968ZM71.224 1.884H72.808V1.644H73.16L72.948 1.504C73.124 1.248 73.248 0.976 73.32 0.684L73.688 0.764C73.664 0.852 73.636 0.94 73.608 1.02H74.756V1.356H74.076C74.156 1.48 74.22 1.596 74.272 1.7L73.94 1.828C73.868 1.668 73.784 1.508 73.688 1.356H73.472C73.408 1.484 73.34 1.6 73.268 1.712L73.192 1.664V1.884H74.776V2.228H73.192V2.46H74.504V3.236C74.504 3.46 74.384 3.572 74.144 3.572H73.872L73.776 3.236L74.036 3.256C74.096 3.256 74.128 3.22 74.128 3.156V2.792H73.192V3.116C73.616 3.492 74.172 3.784 74.868 4L74.668 4.348C74.1 4.132 73.608 3.844 73.192 3.476V4.424H72.808V3.488C72.408 3.864 71.952 4.156 71.448 4.368L71.22 4.028C71.836 3.812 72.368 3.504 72.808 3.108V2.792H71.936V3.556H71.564V2.46H72.808V2.228H71.224V1.884ZM71.788 1.356C71.7 1.496 71.608 1.628 71.504 1.748L71.176 1.544C71.424 1.276 71.6 0.988 71.704 0.68L72.068 0.76C72.036 0.852 72 0.94 71.964 1.02H72.92V1.356H72.332C72.412 1.48 72.484 1.596 72.54 1.704L72.196 1.828C72.124 1.668 72.036 1.508 71.94 1.356H71.788ZM76.652 1.38V4.164H76.288V3.956H75.656V4.28H75.292V1.38H75.672C75.744 1.164 75.8 0.944 75.832 0.712L76.212 0.764C76.172 0.984 76.112 1.188 76.036 1.38H76.652ZM75.656 3.604H76.288V2.816H75.656V3.604ZM75.656 2.476H76.288V1.74H75.656V2.476ZM77.372 2.34C77.636 2.668 77.84 2.952 77.98 3.2L77.68 3.412C77.528 3.148 77.32 2.856 77.064 2.532L77.372 2.34ZM78.716 1.384C78.716 2.764 78.696 3.616 78.656 3.936C78.616 4.224 78.424 4.368 78.084 4.368C78.004 4.368 77.86 4.36 77.66 4.348L77.568 4C77.744 4.008 77.896 4.016 78.024 4.016C78.184 4.016 78.276 3.932 78.3 3.764C78.324 3.564 78.336 2.892 78.344 1.752H77.34C77.228 1.992 77.1 2.212 76.948 2.412L76.72 2.112C76.984 1.728 77.168 1.26 77.264 0.708L77.64 0.756C77.6 0.98 77.544 1.188 77.48 1.384H78.716ZM79.54 0.76C79.812 0.972 80.04 1.184 80.224 1.392L79.956 1.656C79.796 1.456 79.572 1.24 79.28 1.008L79.54 0.76ZM81.84 4.344C81.62 4.344 81.38 4.34 81.124 4.336C80.864 4.332 80.652 4.308 80.484 4.268C80.324 4.22 80.184 4.124 80.064 3.988C80.008 3.92 79.96 3.888 79.912 3.888C79.828 3.888 79.684 4.068 79.48 4.428L79.2 4.168C79.4 3.844 79.58 3.64 79.74 3.56V2.428H79.204V2.076H80.096V3.588C80.116 3.604 80.136 3.624 80.156 3.648C80.248 3.756 80.344 3.836 80.444 3.888C80.564 3.944 80.74 3.98 80.976 3.988C81.204 3.992 81.472 3.996 81.784 3.996C81.98 3.996 82.18 3.992 82.38 3.988C82.58 3.984 82.736 3.976 82.844 3.968L82.752 4.344H81.84ZM81.148 1.156H80.376V0.84H82.572V1.108C82.34 1.308 82.092 1.476 81.828 1.62C81.836 1.628 81.844 1.632 81.852 1.64H82.656V3.416C82.656 3.652 82.524 3.772 82.264 3.772H81.956L81.876 3.456L82.16 3.472C82.248 3.472 82.296 3.428 82.296 3.34V3.136H81.72V3.792H81.372V3.136H80.808V3.8H80.448V1.64H81.368C81.236 1.552 81.088 1.46 80.924 1.372L81.148 1.156ZM81.596 1.44C81.764 1.356 81.92 1.26 82.064 1.156H81.168C81.32 1.252 81.464 1.344 81.596 1.44ZM80.808 2.548V2.828H81.372V2.548H80.808ZM81.72 2.548V2.828H82.296V2.548H81.72ZM82.296 2.236V1.956H81.72V2.236H82.296ZM81.372 2.236V1.956H80.808V2.236H81.372ZM86.692 1.112V4.232H86.324V4.004H85.624V4.236H85.256V1.112H86.692ZM85.624 3.648H86.324V1.468H85.624V3.648ZM83.82 1.588C83.728 1.788 83.624 1.972 83.512 2.14L83.18 1.928C83.436 1.552 83.62 1.148 83.728 0.716L84.104 0.796C84.064 0.948 84.016 1.088 83.968 1.224H85.06V1.588H84.516C84.508 1.836 84.496 2.068 84.472 2.28H85.096V2.644H84.42C84.404 2.732 84.384 2.82 84.368 2.9C84.612 3.148 84.86 3.424 85.116 3.728L84.884 4.08C84.636 3.728 84.428 3.452 84.26 3.252C84.092 3.672 83.808 4.028 83.4 4.316L83.152 4.012C83.568 3.704 83.84 3.328 83.972 2.88C83.988 2.804 84.008 2.724 84.024 2.644H83.236V2.28H84.08C84.104 2.068 84.116 1.836 84.124 1.588H83.82ZM87.56 0.692L88.388 2.56L87.56 4.428L87.24 4.284L88.004 2.56L87.24 0.836L87.56 0.692ZM88.244 0.692L89.072 2.56L88.244 4.428L87.924 4.284L88.688 2.56L87.908 0.836L88.244 0.692Z" fill="white"/>
</svg>
