<svg width="78" height="5" viewBox="0 0 78 5" fill="none" xmlns="http://www.w3.org/2000/svg">
<path d="M1.756 0.692L2.092 0.836L1.312 2.56L2.076 4.284L1.756 4.428L0.928 2.56L1.756 0.692ZM2.44 0.692L2.76 0.836L1.996 2.56L2.76 4.284L2.44 4.428L1.612 2.56L2.44 0.692ZM4.288 0.736C4.44 0.936 4.588 1.156 4.728 1.396L4.48 1.52H5.308C5.452 1.292 5.58 1.02 5.692 0.708L6.064 0.808C5.976 1.072 5.864 1.308 5.736 1.52H6.496V1.888H5.192V2.012C5.184 2.204 5.164 2.38 5.136 2.544H6.728V2.912H5.328C5.524 3.396 6.024 3.776 6.828 4.056L6.604 4.416C5.764 4.072 5.232 3.616 5 3.052C4.928 3.24 4.84 3.408 4.736 3.552C4.464 3.912 4.02 4.188 3.404 4.38L3.196 4.048C3.812 3.848 4.228 3.596 4.448 3.292C4.524 3.176 4.588 3.048 4.64 2.912H3.272V2.544H4.744C4.776 2.376 4.8 2.2 4.808 2.012V1.888H3.5V1.52H4.356C4.224 1.288 4.084 1.084 3.94 0.904L4.288 0.736ZM7.472 0.852H10.5V1.224H9.224V2.2H10.78V2.58H9.224V3.944C9.224 4.224 9.076 4.368 8.784 4.368H8.148L8.068 4C8.272 4.012 8.468 4.02 8.652 4.02C8.78 4.02 8.844 3.96 8.844 3.848V2.58H7.22V2.2H8.844V1.224H7.472V0.852ZM11.34 0.968H12.828V1.332H11.34V0.968ZM11.192 2.048H12.972V2.416H12.072C11.928 2.964 11.804 3.364 11.7 3.62C11.964 3.564 12.232 3.484 12.5 3.384C12.408 3.188 12.316 3.004 12.224 2.832L12.544 2.676C12.728 3.012 12.904 3.384 13.072 3.788L12.744 3.956L12.64 3.7C12.22 3.844 11.768 3.96 11.28 4.048L11.188 3.688C11.228 3.68 11.252 3.668 11.268 3.656C11.376 3.5 11.52 3.088 11.704 2.416H11.192V2.048ZM13.516 0.732H13.892V1.508H14.756C14.756 2.812 14.736 3.616 14.7 3.92C14.656 4.224 14.452 4.376 14.088 4.376C14.024 4.376 13.912 4.368 13.752 4.36L13.664 4.024C13.808 4.036 13.932 4.044 14.036 4.044C14.212 4.044 14.312 3.948 14.344 3.756C14.368 3.568 14.38 2.94 14.388 1.876H13.892V1.912C13.88 3.064 13.604 3.904 13.06 4.436L12.776 4.184C13.26 3.712 13.508 2.956 13.516 1.912V1.876H13.008V1.508H13.516V0.732ZM15.5 0.752C15.78 0.936 16.016 1.116 16.208 1.3L15.944 1.564C15.776 1.388 15.544 1.196 15.248 0.992L15.5 0.752ZM15.42 1.736C15.684 1.916 15.904 2.096 16.084 2.276L15.82 2.54C15.668 2.368 15.448 2.18 15.168 1.976L15.42 1.736ZM15.78 2.868L16.116 2.996C15.952 3.48 15.768 3.936 15.56 4.36L15.212 4.2C15.432 3.768 15.62 3.324 15.78 2.868ZM16.488 0.812H18.444V1.94H16.488V0.812ZM18.076 1.664V1.504H16.86V1.664H18.076ZM16.86 1.244H18.076V1.088H16.86V1.244ZM16.244 2.088H18.676V2.936H16.244V2.088ZM18.332 2.656V2.364H17.952V2.656H18.332ZM17.632 2.656V2.364H17.288V2.656H17.632ZM16.968 2.656V2.364H16.584V2.656H16.968ZM16.488 3.42H16.272V3.1H18.556V3.38C18.38 3.572 18.168 3.736 17.924 3.88C18.2 3.96 18.512 4.024 18.86 4.072L18.648 4.388C18.216 4.308 17.84 4.204 17.52 4.076C17.152 4.228 16.732 4.336 16.252 4.408L16.088 4.076C16.456 4.032 16.788 3.964 17.088 3.872C16.848 3.74 16.648 3.588 16.488 3.42ZM17.476 3.728C17.676 3.64 17.856 3.536 18.016 3.42H16.904C17.064 3.536 17.252 3.64 17.476 3.728ZM21.052 0.672C21.108 0.8 21.16 0.944 21.216 1.104H22.604V1.464H21.932C21.892 1.644 21.836 1.82 21.764 1.988H22.688V2.356H19.848V2.896C19.832 3.52 19.692 4.024 19.42 4.404L19.128 4.148C19.344 3.844 19.456 3.428 19.464 2.896V1.988H20.272L20.132 1.464H19.42V1.104H20.828C20.776 0.972 20.716 0.848 20.652 0.736L21.052 0.672ZM20.648 1.988H21.4C21.472 1.82 21.528 1.644 21.568 1.464H20.504L20.648 1.988ZM24.376 0.752H24.756V3.896H25.236V0.752H25.616V3.896H26.784V4.268H23.216V3.896H24.376V0.752ZM26.364 1.496L26.7 1.592C26.548 2.28 26.352 2.88 26.112 3.396L25.772 3.276C25.996 2.812 26.196 2.216 26.364 1.496ZM23.62 1.488C23.824 2.024 24.004 2.636 24.164 3.324L23.816 3.412C23.68 2.784 23.504 2.176 23.296 1.592L23.62 1.488ZM27.184 1.756H27.588V0.74H27.96V1.756H28.332V2.116H27.96V3.328C28.104 3.264 28.244 3.2 28.384 3.128V3.508C28.028 3.684 27.648 3.836 27.24 3.956L27.144 3.58C27.296 3.548 27.444 3.508 27.588 3.464V2.116H27.184V1.756ZM29.188 0.716C29.24 0.86 29.292 1.024 29.34 1.208H29.844C29.908 1.044 29.952 0.872 29.984 0.696L30.36 0.748C30.324 0.912 30.276 1.064 30.216 1.208H30.712V2.628H28.468V1.208H28.984C28.928 1.056 28.872 0.912 28.808 0.78L29.188 0.716ZM30.384 2.32V1.52H29.728V2.32H30.384ZM29.432 2.32V1.52H28.796V2.32H29.432ZM29.144 1.644C29.208 1.792 29.264 1.964 29.316 2.156L29.076 2.22C29.028 2.044 28.972 1.88 28.908 1.72L29.144 1.644ZM30.012 1.624L30.264 1.688C30.216 1.892 30.152 2.072 30.076 2.232L29.84 2.148C29.904 2.008 29.964 1.832 30.012 1.624ZM30.568 2.848V4.416H30.204V4.272H28.988V4.416H28.624V2.848H30.568ZM28.988 3.964H30.204V3.7H28.988V3.964ZM28.988 3.412H30.204V3.152H28.988V3.412ZM33.42 0.7L33.796 0.752C33.788 0.86 33.776 0.964 33.768 1.068H34.724V1.412H33.728C33.712 1.508 33.7 1.596 33.688 1.684H34.476V3.956H34.84V4.3H32.196V3.956H32.592V1.684H33.316C33.332 1.592 33.344 1.5 33.352 1.412H32.368V1.068H33.392C33.4 0.944 33.412 0.82 33.42 0.7ZM32.956 3.956H34.112V3.688H32.956V3.956ZM32.956 3.388H34.112V3.132H32.956V3.388ZM32.956 2.828H34.112V2.576H32.956V2.828ZM32.956 2.276H34.112V2.024H32.956V2.276ZM31.672 2.22C31.552 2.388 31.424 2.552 31.288 2.708L31.164 2.304C31.536 1.848 31.808 1.312 31.98 0.704L32.324 0.864C32.248 1.12 32.152 1.364 32.04 1.596V4.416H31.672V2.22ZM36.808 1.552H37.236C37.132 1.304 37.024 1.084 36.908 0.892L37.216 0.744C37.336 0.948 37.452 1.172 37.564 1.42L37.304 1.552H37.752C37.888 1.288 38.004 1.004 38.108 0.7L38.472 0.828C38.372 1.096 38.26 1.336 38.14 1.552H38.572V2.9H38.152V3.892C38.152 3.972 38.18 4.016 38.236 4.016H38.384C38.424 4.016 38.456 3.988 38.472 3.94C38.496 3.884 38.512 3.72 38.52 3.444L38.852 3.548C38.828 3.94 38.784 4.172 38.72 4.252C38.66 4.324 38.568 4.36 38.448 4.36H38.124C37.908 4.36 37.8 4.228 37.8 3.968V2.9H37.516C37.476 3.604 37.228 4.116 36.776 4.432L36.576 4.1C36.932 3.864 37.128 3.464 37.164 2.9H36.808V1.552ZM38.228 2.564V1.888H37.156V2.564H38.228ZM35.256 1.772H35.8V1.284C35.64 1.308 35.48 1.328 35.316 1.344L35.24 0.992C35.72 0.952 36.148 0.872 36.524 0.756L36.656 1.108C36.5 1.148 36.336 1.188 36.168 1.224V1.772H36.628V2.136H36.168V2.344C36.348 2.528 36.532 2.736 36.72 2.968L36.508 3.288C36.376 3.064 36.264 2.884 36.168 2.74V4.384H35.8V2.768C35.672 3.092 35.512 3.388 35.32 3.66L35.148 3.22C35.432 2.9 35.64 2.536 35.768 2.136H35.256V1.772ZM42.684 0.96V4.244H42.316V3.952H41.448V4.292H41.084V0.96H42.684ZM41.448 3.592H42.316V1.316H41.448V3.592ZM39.272 1.788H39.94V1.308C39.756 1.336 39.568 1.356 39.384 1.372L39.264 1.032C39.88 0.984 40.376 0.884 40.756 0.74L40.936 1.056C40.732 1.128 40.524 1.192 40.308 1.24V1.788H40.96V2.144H40.308V2.304C40.532 2.5 40.76 2.72 40.992 2.964L40.768 3.292C40.588 3.036 40.436 2.832 40.308 2.672V4.372H39.94V2.752C39.78 3.088 39.572 3.396 39.324 3.676L39.16 3.26C39.512 2.94 39.772 2.572 39.94 2.164V2.144H39.272V1.788ZM43.972 2.168H46.048V3.024H43.972V2.168ZM45.7 2.744V2.456H44.324V2.744H45.7ZM46.424 3.24V4.416H46.056V4.26H43.984V4.416H43.612V3.24H46.424ZM43.984 3.944H46.056V3.552H43.984V3.944ZM43.268 0.968H44.136V0.728H44.512V0.968H45.488V0.728H45.864V0.968H46.732V1.3H45.864V1.504H45.488V1.3H44.512V1.504H44.136V1.3H43.268V0.968ZM46.652 1.628V2.424H46.288V1.948H43.712V2.444H43.348V1.628H46.652ZM48.376 0.752H48.756V3.896H49.236V0.752H49.616V3.896H50.784V4.268H47.216V3.896H48.376V0.752ZM50.364 1.496L50.7 1.592C50.548 2.28 50.352 2.88 50.112 3.396L49.772 3.276C49.996 2.812 50.196 2.216 50.364 1.496ZM47.62 1.488C47.824 2.024 48.004 2.636 48.164 3.324L47.816 3.412C47.68 2.784 47.504 2.176 47.296 1.592L47.62 1.488ZM52.808 1.552H53.236C53.132 1.304 53.024 1.084 52.908 0.892L53.216 0.744C53.336 0.948 53.452 1.172 53.564 1.42L53.304 1.552H53.752C53.888 1.288 54.004 1.004 54.108 0.7L54.472 0.828C54.372 1.096 54.26 1.336 54.14 1.552H54.572V2.9H54.152V3.892C54.152 3.972 54.18 4.016 54.236 4.016H54.384C54.424 4.016 54.456 3.988 54.472 3.94C54.496 3.884 54.512 3.72 54.52 3.444L54.852 3.548C54.828 3.94 54.784 4.172 54.72 4.252C54.66 4.324 54.568 4.36 54.448 4.36H54.124C53.908 4.36 53.8 4.228 53.8 3.968V2.9H53.516C53.476 3.604 53.228 4.116 52.776 4.432L52.576 4.1C52.932 3.864 53.128 3.464 53.164 2.9H52.808V1.552ZM54.228 2.564V1.888H53.156V2.564H54.228ZM51.256 1.772H51.8V1.284C51.64 1.308 51.48 1.328 51.316 1.344L51.24 0.992C51.72 0.952 52.148 0.872 52.524 0.756L52.656 1.108C52.5 1.148 52.336 1.188 52.168 1.224V1.772H52.628V2.136H52.168V2.344C52.348 2.528 52.532 2.736 52.72 2.968L52.508 3.288C52.376 3.064 52.264 2.884 52.168 2.74V4.384H51.8V2.768C51.672 3.092 51.512 3.388 51.32 3.66L51.148 3.22C51.432 2.9 51.64 2.536 51.768 2.136H51.256V1.772ZM55.264 1.052H56.984V1.424H56.404V2.192H56.824V2.432C57.084 1.956 57.26 1.384 57.356 0.712L57.728 0.756C57.696 0.956 57.656 1.148 57.612 1.332H58.788V1.704H58.524C58.492 2.344 58.344 2.884 58.072 3.324C58.304 3.652 58.576 3.908 58.884 4.092L58.668 4.412C58.356 4.224 58.08 3.964 57.848 3.636C57.576 3.96 57.224 4.22 56.8 4.416L56.568 4.104C57.024 3.912 57.384 3.644 57.64 3.308C57.484 3.028 57.352 2.716 57.24 2.372C57.16 2.532 57.072 2.688 56.976 2.832L56.764 2.552H56.404V3.472C56.596 3.416 56.78 3.356 56.956 3.296V3.648C56.468 3.824 55.9 3.984 55.252 4.132L55.148 3.784C55.228 3.768 55.304 3.748 55.384 3.732V1.908H55.74V3.648C55.844 3.624 55.94 3.6 56.036 3.576V1.424H55.264V1.052ZM57.852 2.968C58.036 2.604 58.136 2.184 58.152 1.704H57.504C57.48 1.772 57.46 1.84 57.436 1.904C57.548 2.304 57.684 2.66 57.852 2.968ZM59.224 1.884H60.808V1.644H61.16L60.948 1.504C61.124 1.248 61.248 0.976 61.32 0.684L61.688 0.764C61.664 0.852 61.636 0.94 61.608 1.02H62.756V1.356H62.076C62.156 1.48 62.22 1.596 62.272 1.7L61.94 1.828C61.868 1.668 61.784 1.508 61.688 1.356H61.472C61.408 1.484 61.34 1.6 61.268 1.712L61.192 1.664V1.884H62.776V2.228H61.192V2.46H62.504V3.236C62.504 3.46 62.384 3.572 62.144 3.572H61.872L61.776 3.236L62.036 3.256C62.096 3.256 62.128 3.22 62.128 3.156V2.792H61.192V3.116C61.616 3.492 62.172 3.784 62.868 4L62.668 4.348C62.1 4.132 61.608 3.844 61.192 3.476V4.424H60.808V3.488C60.408 3.864 59.952 4.156 59.448 4.368L59.22 4.028C59.836 3.812 60.368 3.504 60.808 3.108V2.792H59.936V3.556H59.564V2.46H60.808V2.228H59.224V1.884ZM59.788 1.356C59.7 1.496 59.608 1.628 59.504 1.748L59.176 1.544C59.424 1.276 59.6 0.988 59.704 0.68L60.068 0.76C60.036 0.852 60 0.94 59.964 1.02H60.92V1.356H60.332C60.412 1.48 60.484 1.596 60.54 1.704L60.196 1.828C60.124 1.668 60.036 1.508 59.94 1.356H59.788ZM64.652 1.38V4.164H64.288V3.956H63.656V4.28H63.292V1.38H63.672C63.744 1.164 63.8 0.944 63.832 0.712L64.212 0.764C64.172 0.984 64.112 1.188 64.036 1.38H64.652ZM63.656 3.604H64.288V2.816H63.656V3.604ZM63.656 2.476H64.288V1.74H63.656V2.476ZM65.372 2.34C65.636 2.668 65.84 2.952 65.98 3.2L65.68 3.412C65.528 3.148 65.32 2.856 65.064 2.532L65.372 2.34ZM66.716 1.384C66.716 2.764 66.696 3.616 66.656 3.936C66.616 4.224 66.424 4.368 66.084 4.368C66.004 4.368 65.86 4.36 65.66 4.348L65.568 4C65.744 4.008 65.896 4.016 66.024 4.016C66.184 4.016 66.276 3.932 66.3 3.764C66.324 3.564 66.336 2.892 66.344 1.752H65.34C65.228 1.992 65.1 2.212 64.948 2.412L64.72 2.112C64.984 1.728 65.168 1.26 65.264 0.708L65.64 0.756C65.6 0.98 65.544 1.188 65.48 1.384H66.716ZM67.54 0.76C67.812 0.972 68.04 1.184 68.224 1.392L67.956 1.656C67.796 1.456 67.572 1.24 67.28 1.008L67.54 0.76ZM69.84 4.344C69.62 4.344 69.38 4.34 69.124 4.336C68.864 4.332 68.652 4.308 68.484 4.268C68.324 4.22 68.184 4.124 68.064 3.988C68.008 3.92 67.96 3.888 67.912 3.888C67.828 3.888 67.684 4.068 67.48 4.428L67.2 4.168C67.4 3.844 67.58 3.64 67.74 3.56V2.428H67.204V2.076H68.096V3.588C68.116 3.604 68.136 3.624 68.156 3.648C68.248 3.756 68.344 3.836 68.444 3.888C68.564 3.944 68.74 3.98 68.976 3.988C69.204 3.992 69.472 3.996 69.784 3.996C69.98 3.996 70.18 3.992 70.38 3.988C70.58 3.984 70.736 3.976 70.844 3.968L70.752 4.344H69.84ZM69.148 1.156H68.376V0.84H70.572V1.108C70.34 1.308 70.092 1.476 69.828 1.62C69.836 1.628 69.844 1.632 69.852 1.64H70.656V3.416C70.656 3.652 70.524 3.772 70.264 3.772H69.956L69.876 3.456L70.16 3.472C70.248 3.472 70.296 3.428 70.296 3.34V3.136H69.72V3.792H69.372V3.136H68.808V3.8H68.448V1.64H69.368C69.236 1.552 69.088 1.46 68.924 1.372L69.148 1.156ZM69.596 1.44C69.764 1.356 69.92 1.26 70.064 1.156H69.168C69.32 1.252 69.464 1.344 69.596 1.44ZM68.808 2.548V2.828H69.372V2.548H68.808ZM69.72 2.548V2.828H70.296V2.548H69.72ZM70.296 2.236V1.956H69.72V2.236H70.296ZM69.372 2.236V1.956H68.808V2.236H69.372ZM74.692 1.112V4.232H74.324V4.004H73.624V4.236H73.256V1.112H74.692ZM73.624 3.648H74.324V1.468H73.624V3.648ZM71.82 1.588C71.728 1.788 71.624 1.972 71.512 2.14L71.18 1.928C71.436 1.552 71.62 1.148 71.728 0.716L72.104 0.796C72.064 0.948 72.016 1.088 71.968 1.224H73.06V1.588H72.516C72.508 1.836 72.496 2.068 72.472 2.28H73.096V2.644H72.42C72.404 2.732 72.384 2.82 72.368 2.9C72.612 3.148 72.86 3.424 73.116 3.728L72.884 4.08C72.636 3.728 72.428 3.452 72.26 3.252C72.092 3.672 71.808 4.028 71.4 4.316L71.152 4.012C71.568 3.704 71.84 3.328 71.972 2.88C71.988 2.804 72.008 2.724 72.024 2.644H71.236V2.28H72.08C72.104 2.068 72.116 1.836 72.124 1.588H71.82ZM75.56 0.692L76.388 2.56L75.56 4.428L75.24 4.284L76.004 2.56L75.24 0.836L75.56 0.692ZM76.244 0.692L77.072 2.56L76.244 4.428L75.924 4.284L76.688 2.56L75.908 0.836L76.244 0.692Z" fill="white"/>
</svg>
