<svg width="180" height="21" viewBox="0 0 180 21" fill="none" xmlns="http://www.w3.org/2000/svg">
<path d="M2.81108 14.9382L3.15971 15.0482L2.55468 16.8411L3.48602 18.4807L3.18189 18.6558L2.17257 16.8792L2.81108 14.9382ZM3.4917 14.8703L3.82441 14.9819L3.2353 16.7732L4.16664 18.4128L3.86251 18.5879L2.85319 16.8113L3.4917 14.8703Z" fill="white"/>
<path d="M5.15895 14.7491C5.32991 14.9331 5.49887 15.1374 5.66184 15.3625L5.42727 15.5103L6.25124 15.4287C6.37207 15.1876 6.47264 14.9044 6.55335 14.5828L6.9334 14.6457C6.87184 14.9171 6.78364 15.163 6.67715 15.3865L7.43346 15.3117L7.46972 15.6779L6.17207 15.8064L6.18428 15.9298C6.19524 16.1216 6.19268 16.2987 6.18098 16.4647L7.76523 16.3078L7.8015 16.674L6.40831 16.812C6.65105 17.2743 7.18606 17.6032 8.01374 17.8026L7.82631 18.1829C6.9565 17.9234 6.38215 17.522 6.0957 16.9836C6.04258 17.1778 5.97156 17.3537 5.88226 17.5072C5.64706 17.8923 5.23241 18.2107 4.63833 18.4624L4.39863 18.1525C4.99192 17.8928 5.38107 17.601 5.57004 17.2768C5.63424 17.1539 5.68531 17.0202 5.72366 16.8798L4.36232 17.0146L4.32605 16.6484L5.79089 16.5033C5.80618 16.333 5.81272 16.1555 5.80215 15.9676L5.78993 15.8442L4.4883 15.9731L4.45204 15.6069L5.30387 15.5225C5.14965 15.3047 4.99023 15.1155 4.82919 14.9505L5.15895 14.7491Z" fill="white"/>
<path d="M8.42876 14.5422L11.4423 14.2471L11.4786 14.6173L10.2087 14.7417L10.3038 15.713L11.8524 15.5614L11.8894 15.9396L10.3408 16.0912L10.4737 17.4487C10.501 17.7274 10.3678 17.8851 10.0772 17.9136L9.44418 17.9756L9.3287 17.6171C9.5329 17.6092 9.72874 17.598 9.91187 17.5801C10.0393 17.5676 10.0971 17.5017 10.0862 17.3902L9.96262 16.1283L8.34635 16.2865L8.30932 15.9083L9.92559 15.7501L9.83048 14.7787L8.46501 14.9124L8.42876 14.5422Z" fill="white"/>
<path d="M12.6876 14.1221L15.1243 13.8871L15.1408 14.3918L15.6106 14.3465L15.6448 14.7009L15.1511 14.7485L15.1676 15.2532L12.6314 15.4978L12.6507 14.9896L12.157 15.0372L12.1228 14.6829L12.6643 14.6307L12.6876 14.1221ZM12.9952 15.1453L13.7 15.0773L13.7107 14.8553L13.0099 14.9228L12.9952 15.1453ZM13.0293 14.6236L13.7221 14.5568L13.7292 14.3391L13.0444 14.4051L13.0293 14.6236ZM14.0796 14.3053L14.0725 14.523L14.7891 14.4539L14.7843 14.2373L14.0796 14.3053ZM14.7937 14.7508L14.0611 14.8215L14.0503 15.0435L14.7949 14.9717L14.7937 14.7508ZM15.272 15.4602L15.3983 16.7701L15.0201 16.8066L14.9271 15.843L13.0678 16.0224L13.1607 16.9859L12.7785 17.0228L12.6521 15.7128L15.272 15.4602ZM14.3169 16.7659C14.8751 16.8447 15.3881 16.9559 15.8561 17.0997L15.6833 17.4338C15.1769 17.2656 14.667 17.146 14.1495 17.0714L14.3169 16.7659ZM13.8937 16.1276L14.2714 16.1273C14.2533 16.5229 14.116 16.8496 13.86 17.1113C13.6335 17.3462 13.2156 17.5553 12.606 17.7346L12.4209 17.3988C12.9456 17.2558 13.3152 17.0875 13.5296 16.8941C13.748 16.7002 13.8679 16.4435 13.8937 16.1276Z" fill="white"/>
<path d="M16.6414 13.5933L16.9822 13.7138C16.8605 14.1271 16.6276 14.5107 16.2873 14.8642L16.1325 14.5012C16.372 14.2295 16.5444 13.9279 16.6414 13.5933ZM16.862 14.4403L17.1905 14.5579C17.1458 14.7229 17.0845 14.8814 17.0112 15.041L17.2196 17.2471L16.8572 17.2814L16.6943 15.557C16.6013 15.6783 16.5036 15.792 16.4015 15.9021L16.2553 15.5463C16.5457 15.2175 16.7479 14.8489 16.862 14.4403ZM17.6673 16.4575L17.542 16.152C17.6156 16.0807 17.646 15.9774 17.6333 15.842L17.5445 14.9022L17.2833 14.9871L17.2003 14.6615L17.5121 14.5597L17.4215 13.6L17.7719 13.5669L17.855 14.447L18.2486 14.3174L18.328 14.6474L17.8874 14.7894L17.998 15.9602C18.1281 15.8917 18.2539 15.8195 18.3793 15.7434L18.4947 16.0298C18.6278 15.5672 18.6639 15.0134 18.6113 14.3715L18.5804 14.0449L18.1743 14.0833L18.1423 13.7448L19.6555 13.6019C19.7977 15.1072 19.8659 16.0409 19.8631 16.3947C19.8564 16.7489 19.6902 16.9454 19.3556 16.977C19.28 16.9842 19.1478 16.9886 18.9639 16.998L18.8509 16.6953C19.0149 16.6878 19.1547 16.6786 19.2742 16.6673C19.4255 16.653 19.5014 16.5213 19.5024 16.2761C19.5048 16.0469 19.4485 15.2808 19.3331 13.9738L18.9269 14.0122L18.9578 14.3388C19.0624 15.5744 18.8531 16.5062 18.3299 17.1342L18.0285 16.9216C18.2385 16.6768 18.3917 16.3851 18.4915 16.0381C18.2686 16.1878 17.9928 16.3303 17.6673 16.4575Z" fill="white"/>
<path d="M20.1497 13.5193L21.03 13.4383L21.0087 13.2073L21.3751 13.1736L21.3964 13.4046L22.3763 13.3144L22.355 13.0834L22.7215 13.0496L22.7427 13.2807L23.623 13.1996L23.6531 13.5263L22.7728 13.6073L22.797 13.8702L22.4305 13.9039L22.4063 13.641L21.4265 13.7312L21.4492 13.9782L21.0827 14.0119L21.06 13.7649L20.1797 13.846L20.1497 13.5193ZM20.5631 13.9954C20.8312 14.1154 21.0595 14.239 21.2483 14.3702L21.0136 14.6569C20.8454 14.5318 20.6164 14.4003 20.3269 14.2662L20.5631 13.9954ZM20.4861 14.818C20.7622 14.9372 20.9945 15.0604 21.1869 15.1873L20.9479 15.4704C20.7761 15.3496 20.5434 15.2224 20.2499 15.0887L20.4861 14.818ZM20.8489 15.6603L21.1832 15.758C21.0627 16.1507 20.9201 16.5214 20.7597 16.8735L20.3782 16.744C20.5625 16.3896 20.7178 16.0258 20.8489 15.6603ZM23.2793 15.4446C23.0044 15.3815 22.7559 15.3 22.5377 15.1995C22.3409 15.3301 22.1234 15.4546 21.8852 15.5729L23.2793 15.4446ZM22.8409 14.9587C23.1569 15.0742 23.518 15.1575 23.9316 15.1998L23.7487 15.5259C23.647 15.5112 23.5535 15.4997 23.4677 15.4835L23.578 16.6824L23.2275 16.7147L23.2136 16.5633L22.0744 16.6682L22.0883 16.8195L21.7378 16.8518L21.6307 15.6887C21.5533 15.7199 21.4794 15.7468 21.4099 15.7773L21.1601 15.5071C21.5724 15.3607 21.9192 15.2002 22.208 15.021C22.063 14.9299 21.9333 14.8294 21.8227 14.719C21.6907 14.8557 21.5496 14.9812 21.3958 15.0998L21.1507 14.8371C21.5661 14.5498 21.8366 14.2156 21.9589 13.8429L22.3153 13.8743C22.2904 13.9529 22.2652 14.0276 22.2352 14.0946L23.3505 13.9919L23.3747 14.2548C23.2576 14.5106 23.0783 14.7441 22.8409 14.9587ZM22.0172 14.4762C22.1579 14.6078 22.3206 14.7174 22.5062 14.8128C22.6936 14.667 22.8441 14.5126 22.9536 14.3498L22.0494 14.4331C22.035 14.4505 22.0241 14.4635 22.0172 14.4762ZM22.0443 16.3416L23.1835 16.2367L23.1425 15.7906L22.0033 15.8954L22.0443 16.3416Z" fill="white"/>
<path d="M25.9298 15.6715C25.6376 16.0429 25.1431 16.3521 24.4503 16.5986L24.2143 16.2943C24.9379 16.033 25.4219 15.7409 25.6619 15.4143L25.7214 15.3166L24.1755 15.4544L24.1436 15.0959L25.8847 14.9406C25.959 14.693 25.9909 14.4211 25.9806 14.1249L25.9372 13.6388L26.3038 13.6061L26.3471 14.0922C26.3615 14.3881 26.3414 14.6589 26.2831 14.9051L27.5341 14.7935L27.5661 15.1521L26.1597 15.2775C26.1426 15.3112 26.1255 15.3448 26.1124 15.3781C26.6814 15.5442 27.2102 15.7541 27.6979 15.9997L27.5199 16.3449C26.996 16.0543 26.4662 15.8325 25.9298 15.6715ZM24.6458 14.2881C24.939 14.3784 25.2104 14.4947 25.46 14.6371L25.2914 14.9534C25.0277 14.7881 24.756 14.6678 24.4838 14.5876L24.6458 14.2881ZM24.9865 13.6955C25.2793 13.7818 25.5508 13.8981 25.7964 14.0409L25.6278 14.3571C25.3645 14.1959 25.0963 14.0712 24.8241 13.9911L24.9865 13.6955ZM27.3366 12.9839L27.4094 13.8007L27.0429 13.8334L27.001 13.3632L24.4033 13.5949L24.4452 14.065L24.0787 14.0977L24.0058 13.2809L25.4999 13.1477C25.4461 13.0401 25.3931 12.9404 25.3367 12.849L25.7175 12.7508C25.7753 12.8581 25.8301 12.9777 25.8824 13.1136L27.3366 12.9839Z" fill="white"/>
<path d="M30.4564 12.3334L30.8034 12.4482L30.1734 14.2325L31.0817 15.885L30.7752 16.0558L29.7908 14.2653L30.4564 12.3334ZM31.1379 12.2751L31.469 12.3912L30.8549 14.1741L31.7632 15.8267L31.4567 15.9974L30.4723 14.2069L31.1379 12.2751Z" fill="white"/>
<path d="M32.7192 12.9618L34.6926 12.8006L34.7206 13.1435L33.9272 13.2083L33.9673 13.6986L34.637 13.644L34.6644 13.9788L33.9946 14.0335L34.0398 14.5877L34.4465 14.5545C34.3617 14.4009 34.2749 14.2715 34.1854 14.1584L34.4766 14.0383C34.5787 14.1584 34.6695 14.2875 34.7496 14.4334L34.5422 14.5467L34.9488 14.5135L34.9768 14.8563L32.7801 15.0357L32.7521 14.6928L33.6571 14.6189L33.6119 14.0648L32.9421 14.1195L32.9148 13.7846L33.5845 13.7299L33.5445 13.2395L32.7471 13.3046L32.7192 12.9618ZM35.3305 12.1104L35.6179 15.6307L35.2352 15.662L35.2228 15.5105L32.6394 15.7214L32.6518 15.8729L32.2691 15.9041L31.9817 12.3838L35.3305 12.1104ZM32.6105 15.3666L35.1939 15.1557L34.9771 12.5005L32.3937 12.7114L32.6105 15.3666Z" fill="white"/>
<path d="M37.2198 11.7938L37.6109 11.8198C37.5784 11.9186 37.5416 12.0137 37.5002 12.1012L39.2071 11.9699L39.2308 12.277C39.0126 12.5706 38.7399 12.8322 38.4162 13.0577C38.8552 13.1844 39.3381 13.2556 39.8683 13.263L39.7241 13.6311C39.1004 13.6069 38.5304 13.4983 38.0177 13.301C37.5557 13.5532 37.0093 13.7517 36.3865 13.8958L36.1838 13.5544C36.713 13.4455 37.183 13.297 37.5858 13.1096C37.3857 13.0126 37.2004 12.8985 37.0265 12.7755C36.8998 12.9016 36.7605 13.0206 36.6047 13.1329L36.35 12.8476C36.7961 12.5445 37.086 12.1932 37.2198 11.7938ZM37.9831 12.9025C38.2478 12.7457 38.4788 12.5675 38.6801 12.3675L37.2802 12.4751C37.2692 12.488 37.2618 12.4966 37.2584 12.5049C37.479 12.6604 37.722 12.7942 37.9831 12.9025ZM37.7453 13.5667L38.1202 13.5378C38.1312 13.6814 38.1297 13.8179 38.1196 13.9471L39.4955 13.8413C39.5412 14.5398 39.5136 14.9632 39.4123 15.1074C39.3111 15.2516 39.1172 15.3387 38.838 15.3602C38.7024 15.3706 38.5343 15.3755 38.342 15.3783L38.2199 15.0426C38.4279 15.0347 38.596 15.0298 38.7242 15.0279C38.9273 15.0083 39.0516 14.9546 39.0973 14.8708C39.1427 14.7831 39.1577 14.5613 39.1427 14.2094L38.0619 14.2925C38.0334 14.391 38.0005 14.4858 37.9591 14.5732C37.7873 14.9475 37.3434 15.2785 36.6237 15.5706L36.3488 15.2828C36.9841 15.0414 37.3931 14.7773 37.5713 14.4867C37.5993 14.4324 37.6272 14.3781 37.6471 14.3244L36.5264 14.4106L36.5003 14.0716L37.7367 13.9765C37.7508 13.8471 37.7563 13.7103 37.7453 13.5667Z" fill="white"/>
<path d="M43.4377 11.6778L43.5 12.5435L43.1848 12.5662L43.2017 12.8016L41.6777 12.9113L41.6607 12.6759L41.3376 12.6992L41.2753 11.8334L42.145 11.7708C42.0977 11.67 42.0512 11.5811 41.997 11.4968L42.3834 11.4048C42.4347 11.5053 42.4829 11.6182 42.532 11.743L43.4377 11.6778ZM41.6972 12.569L43.1295 12.4659L43.1005 12.063L41.6682 12.1661L41.6972 12.569ZM41.4009 13.3002L43.5753 13.1437L43.6011 13.5028L42.9668 13.5484L43.0371 14.5259C43.0443 14.6256 43.0799 14.6752 43.1438 14.6706L43.2675 14.6617C43.2994 14.6594 43.3262 14.6414 43.3444 14.6161C43.37 14.5821 43.3782 14.4171 43.3689 14.121L43.7206 14.216C43.7151 14.5854 43.691 14.8077 43.644 14.8792C43.5925 14.9431 43.503 14.9816 43.3677 14.9954L43.0485 15.0183C42.9328 15.0267 42.8461 14.9928 42.7848 14.921C42.7152 14.8458 42.6764 14.7524 42.6684 14.6407L42.5917 13.5754L42.3005 13.5964C42.2973 13.9976 42.255 14.3015 42.1653 14.5044C42.0549 14.753 41.8544 14.976 41.5638 15.1733L41.298 14.8797C41.5436 14.7256 41.7153 14.5488 41.8136 14.3533C41.8901 14.1914 41.9288 13.948 41.9294 13.6231L41.4267 13.6593L41.4009 13.3002ZM39.9648 11.7353L41.1697 11.6485L41.191 11.9438C41.1119 12.2943 41.0144 12.6663 40.898 13.0557C41.1436 13.4029 41.2863 13.7135 41.322 13.9876C41.3355 14.1751 41.3054 14.3137 41.2396 14.4026C41.1394 14.5141 40.9556 14.5795 40.6846 14.603L40.533 14.2249C40.614 14.2351 40.6864 14.2379 40.7422 14.2339C40.8294 14.2196 40.8918 14.1951 40.922 14.1688C40.9476 14.1349 40.9602 14.0859 40.955 14.0141C40.9358 13.7467 40.7945 13.4561 40.535 13.1379C40.6619 12.7278 40.7594 12.3558 40.8242 12.0303L40.3574 12.0639L40.5875 15.2597L40.2204 15.2861L39.9648 11.7353Z" fill="white"/>
<path d="M45.0966 11.2526C45.2615 11.4421 45.4238 11.6518 45.5794 11.882L45.3401 12.0222L46.1663 11.9673C46.2949 11.7303 46.4046 11.4504 46.4957 11.1317L46.8735 11.2068C46.8032 11.4761 46.707 11.719 46.5933 11.939L47.3517 11.8887L47.3761 12.2559L46.0749 12.3422L46.0831 12.4659C46.0879 12.658 46.0796 12.835 46.0625 13.0005L47.651 12.895L47.6754 13.2622L46.2784 13.355C46.5061 13.8249 47.0301 14.171 47.8509 14.3971L47.6512 14.7711C46.7903 14.4835 46.2293 14.0638 45.9604 13.5164C45.901 13.7087 45.8243 13.8822 45.7301 14.0328C45.4826 14.41 45.0578 14.7148 44.4559 14.9471L44.2263 14.6296C44.8277 14.3893 45.2261 14.1103 45.4255 13.7924C45.4937 13.6716 45.5491 13.5397 45.5919 13.4005L44.2269 13.4911L44.2026 13.1239L45.6713 13.0264C45.6921 12.8567 45.7044 12.6795 45.7 12.4914L45.6918 12.3676L44.3866 12.4543L44.3623 12.0871L45.2164 12.0304C45.0693 11.8076 44.9161 11.6133 44.7605 11.4433L45.0966 11.2526Z" fill="white"/>
<path d="M48.419 11.1511L51.4415 10.9685L51.4639 11.3399L50.1902 11.4168L50.2491 12.391L51.8022 12.2972L51.8252 12.6765L50.272 12.7703L50.3542 14.1318C50.3711 14.4113 50.2321 14.564 49.9406 14.5816L49.3057 14.6199L49.2037 14.2574C49.4081 14.2571 49.6042 14.2533 49.7878 14.2422C49.9156 14.2345 49.9759 14.1707 49.9691 14.0589L49.8927 12.7932L48.2716 12.8911L48.2487 12.5118L49.8698 12.4139L49.8109 11.4397L48.4414 11.5224L48.419 11.1511Z" fill="white"/>
<path d="M53.8854 12.5391L53.9095 12.9825L54.5286 12.9487L54.5045 12.5054L53.8854 12.5391ZM53.9287 13.3339L53.9557 13.8292L54.5747 13.7955L54.5478 13.3002L53.9287 13.3339ZM53.9754 14.1927L53.9852 14.3724L53.6098 14.3928L53.4893 12.1801C53.4157 12.3003 53.3339 12.4169 53.2482 12.5338L53.0986 12.1413C53.3911 11.7008 53.5897 11.2293 53.6901 10.719L54.0615 10.7709C54.0165 10.9737 53.959 11.1691 53.8891 11.3572L54.5002 11.3239C54.4259 11.1357 54.3435 10.9479 54.2536 10.7685L54.6119 10.6528C54.713 10.8917 54.7969 11.1074 54.8557 11.3045L55.4668 11.2712L55.4866 11.6347L54.8355 11.6702L54.8606 12.1295L55.4317 12.0984L55.4511 12.4539L54.8799 12.485L54.9041 12.9283L55.4752 12.8972L55.4944 13.2487L54.9232 13.2798L54.9502 13.775L55.6451 13.7372L55.6649 14.1007L53.9754 14.1927ZM54.4601 11.6906L53.841 11.7243L53.866 12.1836L54.4851 12.1499L54.4601 11.6906ZM53.1785 12.3573L53.1996 12.7447C53.0906 12.8027 52.9773 12.857 52.8681 12.911L52.9273 13.9974C52.9414 14.257 52.8128 14.3962 52.5452 14.4108L52.1857 14.4303L52.0818 14.0675C52.1905 14.0776 52.2948 14.0799 52.3947 14.0745C52.4985 14.0688 52.5478 14.018 52.5426 13.9222L52.4965 13.0754C52.3476 13.1356 52.1944 13.192 52.045 13.2442L51.9283 12.866C52.1138 12.8159 52.2949 12.7579 52.4756 12.692L52.4299 11.8533L51.9507 11.8794L51.9306 11.5119L52.4099 11.4858L52.3716 10.7828L52.7511 10.7622L52.7894 11.4651L53.1608 11.4449L53.1808 11.8124L52.8094 11.8326L52.8474 12.5316C52.9607 12.4773 53.0697 12.4193 53.1785 12.3573Z" fill="white"/>
<path d="M56.4407 10.6049C56.7144 10.8 56.9481 10.997 57.1419 11.196L56.8832 11.4807C56.7178 11.2884 56.4879 11.0872 56.1891 10.8693L56.4407 10.6049ZM58.898 14.0751C58.6822 14.0854 58.4463 14.0928 58.1944 14.1009C57.9385 14.1091 57.7296 14.0951 57.5638 14.063C57.4017 14.0228 57.2613 13.9334 57.1349 13.8033C57.0797 13.7379 57.0302 13.7082 56.9823 13.7105C56.9024 13.7144 56.7672 13.9011 56.5807 14.2704L56.2885 14.0242C56.4728 13.6909 56.6428 13.4785 56.7987 13.391L56.7445 12.2603L56.2051 12.2862L56.1882 11.9346L57.0832 11.8916L57.1559 13.4059C57.1726 13.4211 57.1934 13.4361 57.2145 13.4591C57.3076 13.5628 57.4073 13.6381 57.5097 13.6852C57.6282 13.7356 57.8017 13.7633 58.0339 13.7602C58.2578 13.7534 58.5217 13.7448 58.8293 13.73C59.0211 13.7208 59.2207 13.7072 59.4243 13.6934C59.6238 13.6798 59.7793 13.6644 59.8868 13.6512L59.8129 14.0312L58.898 14.0751ZM57.3746 11.1207L57.814 11.0996L57.7851 10.4963L58.1487 10.4789L58.1776 11.0822L58.721 11.0561L58.6922 10.4568L59.0598 10.4391L59.0886 11.0385L59.564 11.0156L59.5811 11.3712L59.1056 11.3941L59.1396 12.1012L59.7429 12.0723L59.7602 12.4319L59.1569 12.4608L59.209 13.5476L58.8414 13.5652L58.7893 12.4785L58.154 12.509C58.0642 12.9738 57.8807 13.323 57.5958 13.5609L57.3535 13.2682C57.5696 13.0977 57.7139 12.8505 57.7864 12.5266L57.303 12.5498L57.2857 12.1902L57.8411 12.1636C57.8506 12.027 57.8518 11.8867 57.8447 11.7389L57.8311 11.4552L57.3916 11.4763L57.3746 11.1207ZM58.1947 11.4378L58.2041 11.6336C58.2129 11.8173 58.209 11.9857 58.2007 12.1463L58.772 12.1189L58.7381 11.4117L58.1947 11.4378Z" fill="white"/>
<path d="M60.0319 11.0378L61.6425 10.9705C61.5306 10.7831 61.3952 10.6085 61.2362 10.443L61.61 10.2873C61.7619 10.4731 61.9073 10.6953 62.0422 10.9539L63.5569 10.8906L63.5726 11.2663L62.9611 11.2918C62.7946 11.9073 62.5321 12.4267 62.1736 12.854C62.6034 13.1764 63.1348 13.4385 63.7596 13.6366L63.5611 13.9651C62.9077 13.7522 62.3596 13.4748 61.921 13.1328C61.4861 13.5513 60.9429 13.8703 60.2915 14.0896L60.0736 13.7624C60.7141 13.5675 61.2346 13.2816 61.643 12.9002C61.1851 12.4789 60.8556 11.9722 60.6591 11.3879L60.0476 11.4135L60.0319 11.0378ZM61.0228 11.3727C61.2112 11.8573 61.5009 12.2776 61.896 12.6294C62.2048 12.2602 62.4306 11.8184 62.5694 11.3082L61.0228 11.3727Z" fill="white"/>
<path d="M65.0884 10.1536L65.4501 10.3089C65.3258 10.6415 65.161 10.9595 64.9555 11.259L65.0488 13.8933L64.6731 13.9066L64.5954 11.716C64.4375 11.8897 64.2674 12.0599 64.085 12.2224L63.9511 11.8309C64.4742 11.3441 64.8547 10.7863 65.0884 10.1536ZM67.117 13.748L66.3695 13.7745C66.0497 13.7858 65.8841 13.6316 65.8728 13.3118L65.8331 12.1925C65.6919 12.2735 65.5466 12.3547 65.3973 12.4321L65.2127 12.0784C65.4251 11.9748 65.6294 11.8675 65.8174 11.7488L65.7622 10.1937L66.142 10.1803L66.1888 11.4995C66.5713 11.2257 66.9086 10.9176 67.1927 10.5753L67.4671 10.8658C67.1012 11.271 66.682 11.6381 66.2051 11.9592L66.2507 13.2464C66.2546 13.3583 66.3166 13.4121 66.4445 13.4076L67.0401 13.3865C67.1321 13.3832 67.1989 13.3488 67.2407 13.2873C67.2786 13.2259 67.2991 13.0131 67.294 12.645L67.6499 12.7485C67.6382 13.2092 67.5962 13.4908 67.5276 13.5893C67.4551 13.688 67.3169 13.7409 67.117 13.748Z" fill="white"/>
<path d="M69.582 11.6455L68.8383 11.6672L68.8828 13.1905C68.8856 13.2865 68.939 13.3369 69.047 13.3338L69.7427 13.3135C69.8627 13.31 69.9377 13.2758 69.9639 13.215C69.994 13.1501 70.0141 13.0135 70.0241 12.8091L70.3835 12.9187C70.3616 13.2674 70.3198 13.4808 70.25 13.5548C70.1878 13.6207 70.0568 13.6565 69.8649 13.6621L68.8933 13.6904C68.6414 13.6978 68.514 13.5814 68.507 13.3415L68.4516 11.4423L68.2653 11.6399L68.0324 11.3385C68.4021 10.9796 68.7379 10.5576 69.0401 10.0766L69.3199 10.0684C69.6825 10.426 70.0296 10.8001 70.3531 11.1908L70.1128 11.4579C69.7556 11.0121 69.4615 10.6686 69.2225 10.4314C69.0235 10.7454 68.8003 11.048 68.5447 11.3396L69.9441 11.2988L69.9762 12.4023C69.9787 12.6223 69.8621 12.7418 69.6227 12.7648C69.4667 12.7693 69.3187 12.7696 69.1785 12.7657L69.0762 12.4125C69.2246 12.4242 69.3527 12.4285 69.4647 12.4252C69.5567 12.4225 69.6032 12.3732 69.6007 12.2852L69.582 11.6455ZM70.5091 10.3659L70.881 10.3551L70.9529 12.822L70.581 12.8329L70.5091 10.3659ZM71.2971 13.6483L70.6934 13.6659L70.5948 13.3047C70.7912 13.3149 70.9793 13.3175 71.1553 13.3123C71.2512 13.3095 71.2975 13.2482 71.2941 13.1322L71.2029 10.0055L71.5827 9.99446L71.6767 13.2171C71.6849 13.497 71.557 13.6408 71.2971 13.6483Z" fill="white"/>
<path d="M72.7976 10.4925L72.1738 10.507L72.1664 10.1871L73.486 10.1563C73.4524 10.0891 73.4189 10.0259 73.3856 9.97063L73.796 9.89706C73.8298 9.97229 73.8677 10.0554 73.9019 10.1467L75.2855 10.1144L75.293 10.4344L74.6571 10.4492L74.5467 10.6918L75.4865 10.6699L75.4941 10.9978L71.9991 11.0792L71.9914 10.7513L72.8992 10.7302L72.7976 10.4925ZM73.2951 10.7209L74.1509 10.701L74.2612 10.4584L73.1935 10.4832L73.2951 10.7209ZM72.4189 11.2375L75.0821 11.1755L75.1112 12.4231L72.4479 12.4851L72.4189 11.2375ZM74.7326 12.1439L74.7279 11.9439L72.8085 11.9886L72.8131 12.1886L74.7326 12.1439ZM72.8021 11.7167L74.7216 11.672L74.717 11.476L72.7976 11.5207L72.8021 11.7167ZM72.2996 12.6446L72.6693 12.712C72.5846 13.0301 72.463 13.305 72.3045 13.5408L71.9718 13.3445C72.1267 13.1248 72.2334 12.8942 72.2996 12.6446ZM74.3651 13.5448L73.3894 13.5675C73.0815 13.5747 72.9262 13.4383 72.9199 13.1663L72.908 12.6545L73.2919 12.6455L73.3019 13.0774C73.3043 13.1774 73.3655 13.228 73.4894 13.2251L74.2852 13.2066C74.3572 13.2049 74.4088 13.1877 74.4361 13.159C74.4753 13.1221 74.5009 13.0175 74.5128 12.8412L74.8754 12.9488C74.8499 13.2294 74.7979 13.4027 74.7112 13.4607C74.6364 13.5105 74.5211 13.5412 74.3651 13.5448ZM73.8759 12.4679C74.0396 12.6241 74.1628 12.7613 74.2497 12.8833L73.9389 13.1106C73.8438 12.9808 73.7164 12.8357 73.5567 12.6794L73.8759 12.4679ZM75.1255 12.5228C75.3515 12.7776 75.5248 13.0017 75.6452 13.1909L75.3344 13.4182C75.2054 13.2051 75.036 12.973 74.8221 12.7219L75.1255 12.5228Z" fill="white"/>
<path d="M79.4263 10.0584L79.4839 13.3419L79.116 13.3483L79.1108 13.0564L78.243 13.0716L78.2489 13.4115L77.885 13.4179L77.8266 10.0864L79.4263 10.0584ZM78.2367 12.7116L79.1045 12.6964L79.0646 10.4208L78.1968 10.436L78.2367 12.7116ZM76.0294 10.946L76.6973 10.9343L76.6889 10.4544C76.5054 10.4856 76.3178 10.5089 76.1341 10.5281L76.0081 10.1903C76.6232 10.1315 77.1174 10.0228 77.4948 9.87219L77.6803 10.185C77.4776 10.2606 77.2707 10.3282 77.0556 10.38L77.0652 10.9279L77.7171 10.9165L77.7234 11.2724L77.0715 11.2838L77.0743 11.4438C77.3017 11.6359 77.5335 11.8518 77.7697 12.0917L77.5515 12.4236C77.367 12.1708 77.2115 11.9695 77.0807 11.8117L77.1105 13.5115L76.7426 13.5179L76.7142 11.8982C76.5601 12.2369 76.3575 12.5485 76.1145 12.8328L75.9432 12.4198C76.2895 12.0937 76.543 11.7212 76.7039 11.3103L76.7035 11.2903L76.0356 11.302L76.0294 10.946Z" fill="white"/>
<path d="M80.6286 9.86123C80.8869 10.0502 81.1012 10.2436 81.2795 10.4335L81.0227 10.7006C80.8684 10.5144 80.6501 10.317 80.3716 10.1123L80.6286 9.86123ZM80.1303 11.0073L81.0262 10.9966L81.0464 12.6884C81.1692 12.583 81.2997 12.4614 81.4421 12.3237L81.5509 12.7224C81.2937 12.9655 81.0203 13.1848 80.7306 13.3763L80.5825 13.034C80.6458 12.9772 80.681 12.9048 80.68 12.8208L80.6626 11.3649L80.1346 11.3712L80.1303 11.0073ZM81.5639 11.4662L83.5037 11.443L83.5079 11.791C83.3961 12.1483 83.2078 12.4546 82.9428 12.7138C83.2008 12.8787 83.5146 13.027 83.8761 13.1507L83.6761 13.4811C83.2742 13.3259 82.94 13.1459 82.6656 12.9491C82.3563 13.1768 81.9705 13.3615 81.5162 13.5029L81.3004 13.1854C81.7229 13.0564 82.077 12.8962 82.3627 12.7007C82.0875 12.44 81.896 12.1503 81.7962 11.8314L81.5682 11.8342L81.5639 11.4662ZM82.1522 11.8272C82.2471 12.0701 82.4057 12.2882 82.6321 12.4855C82.8457 12.2869 83.0111 12.0649 83.1241 11.8156L82.1522 11.8272ZM81.8254 9.91894L83.2413 9.90204L83.2513 10.742C83.2524 10.83 83.3009 10.8774 83.4009 10.8762L83.7529 10.872L83.7571 11.22L83.3051 11.2254C83.0211 11.2288 82.8795 11.0944 82.8764 10.8305L82.8696 10.2625L82.2056 10.2704L82.2071 10.3904C82.212 10.8064 82.0039 11.1329 81.5867 11.3659L81.3312 11.0769C81.6654 10.9209 81.8348 10.7069 81.8316 10.4349L81.8254 9.91894Z" fill="white"/>
<path d="M85.3382 10.92L86.3861 10.9128L86.3781 9.74084L86.7701 9.73816L86.7781 10.9101L87.7701 10.9033L87.7727 11.2793L86.7807 11.2861L86.7955 13.4421L86.4035 13.4448L86.3887 11.2888L85.3407 11.296L85.3382 10.92ZM84.6024 9.78899C84.8637 9.98321 85.0851 10.1777 85.2664 10.3765L85.0083 10.6422C84.847 10.4553 84.6256 10.2568 84.3402 10.0508L84.6024 9.78899ZM84.0824 10.9526L85.0063 10.9463L85.018 12.6502C85.1453 12.5453 85.2765 12.4244 85.4156 12.2915L85.5182 12.6788C85.2639 12.9205 84.9893 13.1384 84.6986 13.3284L84.5523 12.9894C84.6199 12.9329 84.6555 12.8647 84.6549 12.7847L84.6448 11.3127L84.0848 11.3166L84.0824 10.9526Z" fill="white"/>
<path d="M88.8557 11.1519L88.8568 11.7359L89.4168 11.7348L89.4157 11.1508L88.8557 11.1519ZM89.415 10.8108L89.4139 10.2188L88.8539 10.2199L88.855 10.8119L89.415 10.8108ZM88.8495 12.0799C88.8225 12.624 88.7274 13.0762 88.5641 13.4325L88.2756 13.1731C88.4349 12.8247 88.5141 12.3806 88.517 11.8406L88.5132 9.87659L89.7572 9.87416L89.7633 13.0022C89.7638 13.2742 89.6401 13.4104 89.3961 13.4109L89.0761 13.4115L88.9834 13.0757C89.0954 13.0875 89.1955 13.0953 89.2915 13.0951C89.3755 13.0949 89.4193 13.0228 89.419 12.8828L89.4175 12.0788L88.8495 12.0799ZM90.3887 11.6809L90.3915 13.1089C90.5993 12.9965 90.775 12.8522 90.9227 12.6839C90.6901 12.3883 90.5294 12.0527 90.4407 11.6808L90.3887 11.6809ZM90.3915 13.1209L90.3921 13.4249L90.0361 13.4256L90.0292 9.87363L91.7132 9.87035C91.7142 10.3903 91.6909 10.7344 91.6432 10.9065C91.5955 11.0746 91.4437 11.1589 91.1877 11.1594L90.8517 11.16L90.7511 10.8402C90.8151 10.8401 90.9031 10.8439 91.0151 10.8437C91.0991 10.8435 91.1631 10.8354 91.203 10.8233C91.243 10.8113 91.2749 10.7752 91.2988 10.7192C91.3227 10.6511 91.3384 10.4831 91.3458 10.2151L90.3858 10.2169L90.3881 11.3449L91.74 11.3423L91.7407 11.6623C91.6694 12.0544 91.5501 12.3907 91.3826 12.667C91.5469 12.8227 91.7392 12.9623 91.9555 13.0899L91.7681 13.4102C91.5398 13.2747 91.3395 13.1231 91.1712 12.9594C91.0076 13.1437 90.8119 13.2961 90.5881 13.4165L90.3915 13.1209ZM90.7647 11.6802C90.8452 11.94 90.9657 12.1758 91.1301 12.3875C91.2497 12.1793 91.3412 11.9431 91.4047 11.679L90.7647 11.6802Z" fill="white"/>
<path d="M93.5629 9.70105L93.952 9.74927C93.9139 9.84605 93.8717 9.93892 93.8254 10.0239L95.5371 9.9896L95.5433 10.2975C95.3088 10.5783 95.0217 10.8241 94.6858 11.0308C95.1169 11.1822 95.5949 11.2807 96.1238 11.3181L95.9589 11.6775C95.3376 11.6179 94.7747 11.4772 94.2741 11.2511C93.7985 11.4767 93.2417 11.6439 92.6118 11.7525L92.4287 11.4001C92.9632 11.3214 93.4409 11.1998 93.8537 11.0355C93.6595 10.9274 93.481 10.8029 93.3143 10.6702C93.1806 10.7889 93.0348 10.8999 92.8728 11.0031L92.6348 10.7038C93.0973 10.4265 93.4067 10.0923 93.5629 9.70105ZM94.2621 10.8513C94.5353 10.7098 94.776 10.5449 94.9883 10.3567L93.5846 10.3848C93.5728 10.397 93.565 10.4051 93.5612 10.4132C93.7726 10.581 94.0076 10.7284 94.2621 10.8513ZM93.987 11.5009L94.3629 11.4934C94.3658 11.6374 94.3565 11.7736 94.3391 11.902L95.7188 11.8743C95.7248 12.5744 95.6733 12.9955 95.564 13.1337C95.4548 13.2719 95.2562 13.3479 94.9763 13.3535C94.8403 13.3562 94.6722 13.3516 94.48 13.3434L94.3771 13.0014C94.5852 13.0053 94.7534 13.0099 94.8815 13.0153C95.0854 13.0072 95.2125 12.9607 95.2629 12.8797C95.3132 12.7946 95.3408 12.574 95.3457 12.2219L94.2619 12.2436C94.2279 12.3403 94.1897 12.4331 94.1434 12.518C93.9506 12.8819 93.4887 13.1872 92.7535 13.438L92.4954 13.1351C93.1434 12.9301 93.5667 12.6896 93.7612 12.4096C93.7921 12.357 93.8231 12.3044 93.846 12.2519L92.7222 12.2744L92.7154 11.9345L93.9552 11.9096C93.9766 11.7812 93.9899 11.6449 93.987 11.5009Z" fill="white"/>
<path d="M96.7555 9.61959L97.1327 9.6334L97.1047 10.1313L99.4579 10.0176L99.4755 10.3812L97.0863 10.4966L97.0576 11.0627L99.271 10.9557C99.3248 12.0704 99.2762 12.7215 99.1329 12.9047C98.9892 13.0798 98.6696 13.1794 98.1702 13.2035C98.0423 13.2097 97.9061 13.2082 97.7659 13.207L97.6492 12.8642C97.8539 12.8744 97.9983 12.8794 98.0782 12.8755C98.5018 12.8551 98.754 12.7708 98.8311 12.6269C98.9117 12.4708 98.939 12.041 98.9046 11.3299L96.6512 11.4387L96.7555 9.61959ZM96.1906 12.0176L98.444 11.9088L98.4616 12.2723L96.2082 12.3812L96.1906 12.0176Z" fill="white"/>
<path d="M103.624 9.42452L103.883 12.8909L103.512 12.9186L103.495 12.6912L102.303 12.7803L102.32 13.0117L101.961 13.0385L101.702 9.56815L103.624 9.42452ZM102.276 12.4253L103.469 12.3362L103.423 11.7259L102.231 11.815L102.276 12.4253ZM102.205 11.468L103.397 11.3789L103.351 10.7526L102.158 10.8417L102.205 11.468ZM102.132 10.4947L103.325 10.4056L103.28 9.80724L102.087 9.89634L102.132 10.4947ZM101.174 11.0997L101.322 13.0782L100.951 13.1059L100.812 11.2431C100.709 11.5797 100.576 11.8945 100.413 12.1794L100.241 11.8152C100.49 11.4357 100.659 11.0139 100.752 10.5416L100.229 10.5807L100.202 10.2177L100.733 10.1781L100.677 9.43213L101.048 9.40442L101.104 10.1503L101.586 10.1143L101.613 10.4773L101.131 10.5133L101.144 10.6888C101.333 10.8552 101.527 11.0413 101.719 11.2435L101.534 11.5662C101.396 11.38 101.276 11.2245 101.174 11.0997Z" fill="white"/>
<path d="M105.288 9.07009C105.459 9.25439 105.628 9.45897 105.79 9.68424L105.556 9.83174L106.38 9.75133C106.501 9.51043 106.602 9.22728 106.683 8.90588L107.063 8.96929C107.001 9.24058 106.913 9.48634 106.806 9.70977L107.562 9.63597L107.598 10.0022L106.3 10.1289L106.312 10.2523C106.323 10.4441 106.32 10.6213 106.308 10.7872L107.892 10.6326L107.928 10.9989L106.535 11.1348C106.777 11.5975 107.311 11.9271 108.139 12.1277L107.951 12.5078C107.081 12.247 106.508 11.8448 106.222 11.306C106.169 11.5001 106.097 11.6759 106.008 11.8293C105.772 12.214 105.357 12.5318 104.762 12.7827L104.523 12.4725C105.117 12.2136 105.506 11.9224 105.696 11.5985C105.76 11.4756 105.812 11.342 105.85 11.2016L104.489 11.3345L104.453 10.9682L105.918 10.8253C105.933 10.655 105.94 10.4775 105.93 10.2896L105.918 10.1662L104.616 10.2932L104.58 9.92691L105.432 9.84378C105.278 9.6257 105.119 9.43626 104.958 9.27109L105.288 9.07009Z" fill="white"/>
<path d="M109.769 8.53409C109.839 8.65478 109.908 8.79183 109.982 8.94431L111.361 8.78436L111.402 9.14196L110.734 9.2194C110.716 9.40281 110.68 9.58409 110.628 9.75927L111.546 9.65279L111.588 10.0183L108.767 10.3456L108.829 10.882C108.885 11.5037 108.804 12.0205 108.578 12.4293L108.258 12.2086C108.438 11.8818 108.501 11.4556 108.448 10.9263L108.343 10.0243L109.146 9.9312L108.946 9.42683L108.239 9.50888L108.198 9.15127L109.596 8.98902C109.529 8.86389 109.456 8.74763 109.379 8.64375L109.769 8.53409ZM109.519 9.88787L110.266 9.80122C110.319 9.62604 110.354 9.44476 110.373 9.26135L109.316 9.38396L109.519 9.88787Z" fill="white"/>
<path d="M113.27 8.18558L113.647 8.13592L114.058 11.253L114.534 11.1902L114.123 8.07318L114.499 8.02352L114.91 11.1406L116.068 10.9879L116.117 11.3567L112.58 11.823L112.531 11.4542L113.681 11.3026L113.27 8.18558ZM115.338 8.66338L115.684 8.71464C115.623 9.4166 115.507 10.0371 115.337 10.58L114.984 10.5055C115.145 10.0162 115.266 9.39916 115.338 8.66338ZM112.617 9.01408C112.889 9.51882 113.148 10.102 113.396 10.7632L113.063 10.896C112.846 10.2911 112.592 9.71134 112.309 9.15953L112.617 9.01408Z" fill="white"/>
<path d="M118.025 8.18705L118.568 8.1092L118.473 7.45194L118.826 7.40136L118.92 8.05863L119.478 7.97851L119.716 9.63355L119.158 9.71367L119.269 10.4897L119.545 10.3894C119.484 10.2446 119.424 10.1078 119.361 9.97942L119.637 9.84687C119.786 10.1245 119.93 10.4474 120.063 10.8162L119.753 10.9374C119.725 10.8526 119.693 10.7723 119.666 10.6914C119.295 10.8416 118.899 10.9793 118.48 11.104L118.342 10.7641C118.542 10.7153 118.736 10.6632 118.926 10.6036L118.805 9.76425L118.263 9.84209L118.025 8.18705ZM119.352 9.35434L119.208 8.34864L118.947 8.38615L119.091 9.39184L119.352 9.35434ZM118.782 9.43616L118.638 8.43047L118.392 8.4657L118.537 9.47139L118.782 9.43616ZM115.968 7.93268L117.877 7.6588L117.925 7.99535L116.016 8.26923L115.968 7.93268ZM116.256 8.42068L117.725 8.20987L117.855 9.11262L116.386 9.32343L116.256 8.42068ZM117.484 8.86679L117.439 8.55003L116.631 8.66595L116.677 8.9827L117.484 8.86679ZM116.81 10.3657L116.981 10.3413C116.913 10.2056 116.842 10.0783 116.764 9.96015L116.991 9.85083C117.068 9.96505 117.14 10.1002 117.206 10.2523L117.012 10.3367L117.297 10.2958C117.338 10.1284 117.373 9.94958 117.395 9.76459L117.661 9.81533C117.635 9.97656 117.6 10.1231 117.563 10.2578L117.741 10.2322L117.782 10.5173L117.453 10.5644L117.551 11.2494L117.254 11.292L117.156 10.607L116.851 10.6508L116.81 10.3657ZM117.994 11.2061L117.713 11.2465L117.574 10.927L117.838 10.9092C117.905 10.8996 117.937 10.8668 117.93 10.8153L117.759 9.6235L116.622 9.78658L116.854 11.402L116.529 11.4486L116.253 9.52434L118.039 9.26807L118.264 10.84C118.295 11.0538 118.204 11.176 117.994 11.2061Z" fill="white"/>
<path d="M121.479 6.98096L121.755 6.93891C122.339 7.42477 122.976 7.78118 123.674 8.00693L123.527 8.39744C123.291 8.31185 123.066 8.21654 122.856 8.11092L122.899 8.3917L120.818 8.7077L120.775 8.41901C120.598 8.59142 120.409 8.75376 120.206 8.91L119.953 8.57621C120.591 8.11516 121.1 7.58057 121.479 6.98096ZM120.863 8.33281L122.737 8.04805C122.349 7.83991 121.992 7.59077 121.669 7.30004C121.453 7.66457 121.186 8.00862 120.863 8.33281ZM123.212 8.77699L123.461 10.4182L123.097 10.4734L123.065 10.2599L121.214 10.541L121.247 10.7546L120.883 10.8099L120.634 9.16869L123.212 8.77699ZM121.16 10.1851L123.011 9.90397L122.902 9.18423L121.051 9.46538L121.16 10.1851Z" fill="white"/>
<path d="M124.221 7.86843L124.352 6.66555L124.737 6.66981L124.647 7.43312L125.231 7.34126C125.26 7.03705 125.271 6.71952 125.268 6.38804L125.659 6.37525C125.66 6.69488 125.647 6.9966 125.623 7.27981L127.432 6.99553L127.489 7.35513L125.584 7.6543C125.565 7.7909 125.541 7.92023 125.52 8.04498L127.101 7.79671L127.15 8.11283C127.098 8.453 126.951 8.77583 126.699 9.08256C127.026 9.20135 127.413 9.29836 127.859 9.3742L127.721 9.76026C127.215 9.66149 126.782 9.53117 126.426 9.37659C126.148 9.64296 125.795 9.90074 125.369 10.1499L125.115 9.82534C125.488 9.62101 125.803 9.40957 126.057 9.19559C125.768 9.03045 125.54 8.83958 125.376 8.6263C125.184 9.25582 124.897 9.77858 124.521 10.194L124.273 9.87665C124.743 9.30891 125.047 8.58902 125.185 7.71699L124.221 7.86843ZM125.617 8.37799C125.784 8.59065 126.024 8.77571 126.335 8.92922C126.552 8.68858 126.7 8.4427 126.775 8.19613L125.617 8.37799ZM126.316 6.22751C126.621 6.39017 126.883 6.5636 127.101 6.74386L126.875 7.05477C126.684 6.87412 126.43 6.69549 126.102 6.51618L126.316 6.22751Z" fill="white"/>
<path d="M128.898 7.34139L129.443 7.25468L129.393 6.93866L128.733 7.04358L128.781 7.34381C128.818 7.58083 128.839 7.81246 128.849 8.02955L129.548 7.91834L129.496 7.58651L128.95 7.67322L128.898 7.34139ZM128.856 8.37682C128.849 8.81935 128.789 9.22991 128.674 9.60456L128.327 9.38036C128.497 8.84304 128.522 8.18692 128.401 7.40413L128.19 6.07681L131.212 5.59615L131.376 6.62324L130.826 6.71058L130.877 7.0266L131.469 6.93236L131.522 7.26419L130.93 7.35843L130.982 7.69026L131.709 7.57465L131.763 7.91438L131.368 7.97721L131.633 8.16594C131.535 8.33553 131.42 8.47936 131.293 8.59678C131.512 8.6793 131.755 8.72581 132.023 8.7357L131.902 9.1195C131.162 9.04694 130.593 8.72837 130.191 8.16445L129.701 8.24236L129.821 8.99293C130.048 8.89597 130.247 8.79552 130.413 8.69219L130.538 9.02456C130.236 9.18606 129.872 9.34119 129.446 9.48994L129.291 9.17839C129.402 9.11214 129.448 9.01976 129.428 8.89335L129.334 8.3008L128.856 8.37682ZM130.57 8.10413C130.688 8.23522 130.819 8.34403 130.963 8.43454C131.099 8.3198 131.217 8.1714 131.317 7.98538L130.57 8.10413ZM130.463 6.76838L129.752 6.88148L129.802 7.19751L130.513 7.08441L130.463 6.76838ZM129.908 7.86116L130.619 7.74807L130.566 7.41624L129.855 7.52934L129.908 7.86116ZM130.888 6.00015L128.624 6.36017L128.679 6.7078L130.943 6.34778L130.888 6.00015Z" fill="white"/>
<path d="M133.139 5.82489L133.573 8.57475L133.214 8.63158L133.181 8.42613L132.557 8.5248L132.608 8.84482L132.248 8.90165L131.795 6.03722L132.171 5.97789C132.208 5.7533 132.229 5.52725 132.224 5.2931L132.608 5.28513C132.603 5.50868 132.575 5.71955 132.53 5.92106L133.139 5.82489ZM132.502 8.17711L133.126 8.07844L133.003 7.30011L132.379 7.39878L132.502 8.17711ZM132.326 7.06295L132.95 6.96427L132.835 6.2373L132.211 6.33597L132.326 7.06295ZM134 6.6607C134.312 6.94346 134.558 7.19213 134.735 7.41523L134.471 7.67147C134.28 7.43444 134.029 7.17849 133.726 6.89844L134 6.6607ZM135.178 5.50659C135.393 6.86967 135.507 7.71435 135.517 8.03667C135.523 8.32738 135.355 8.49959 135.02 8.55267C134.941 8.56516 134.797 8.57974 134.598 8.59912L134.453 8.26975C134.628 8.25017 134.779 8.23434 134.905 8.21436C135.063 8.18938 135.141 8.09204 135.139 7.92236C135.131 7.72106 135.038 7.05543 134.868 5.92816L133.876 6.08491C133.803 6.33945 133.711 6.57674 133.592 6.79802L133.32 6.53729C133.521 6.11678 133.63 5.6258 133.638 5.06558L134.017 5.05429C134.013 5.28178 133.99 5.49598 133.957 5.69956L135.178 5.50659Z" fill="white"/>
<path d="M139.277 6.36532L139.507 7.85573L139.159 7.90934L139.126 7.69586L137.54 7.94015L137.576 8.16944L137.232 8.22244L137.053 7.06016C136.865 7.2591 136.645 7.43463 136.394 7.59465L136.153 7.28786C136.618 6.99367 136.961 6.64933 137.179 6.25149L136.123 6.41415L136.07 6.06625L137.343 5.87009C137.389 5.72137 137.422 5.57052 137.439 5.41815L137.814 5.40499C137.795 5.54549 137.771 5.6787 137.742 5.80856L139.565 5.52772L139.618 5.87562L137.618 6.18387C137.547 6.35267 137.466 6.51083 137.371 6.65896L139.277 6.36532ZM137.49 7.61202L139.075 7.36773L138.98 6.75101L137.395 6.9953L137.49 7.61202ZM135.932 5.06758L136.802 4.93355L136.751 4.60147L137.114 4.54543L137.166 4.87751L138.15 4.72582L138.099 4.39373L138.463 4.33769L138.514 4.66977L139.379 4.53635L139.433 4.88425L138.567 5.01766L138.618 5.34579L138.254 5.40184L138.204 5.07371L137.219 5.2254L137.272 5.56934L136.909 5.62539L136.856 5.28145L135.986 5.41547L135.932 5.06758Z" fill="white"/>
<path d="M140.094 4.29097L143.042 3.85567L143.094 4.21181L141.812 4.40112L141.963 5.42205L143.538 5.1895L143.592 5.55355L142.017 5.7861L142.268 7.4837L141.888 7.53979L141.637 5.84219L140.05 6.07649L139.996 5.71244L141.583 5.47814L141.433 4.45721L140.146 4.6471L140.094 4.29097Z" fill="white"/>
<path d="M144.698 3.95121L144.08 4.03695L144.036 3.71999L145.343 3.53861C145.302 3.47565 145.262 3.41665 145.222 3.36558L145.622 3.24558C145.664 3.31646 145.711 3.39472 145.755 3.48145L147.126 3.29127L147.17 3.60824L146.54 3.69563L146.458 3.94929L147.389 3.82013L147.434 4.14501L143.971 4.6254L143.926 4.30051L144.826 4.17574L144.698 3.95121ZM145.218 4.12133L146.066 4.00371L146.148 3.75004L145.09 3.8968L145.218 4.12133ZM144.407 4.73464L147.045 4.36858L147.217 5.60475L144.578 5.9708L144.407 4.73464ZM146.809 5.37059L146.781 5.17249L144.88 5.43632L144.907 5.63442L146.809 5.37059ZM144.842 5.1669L146.744 4.90307L146.717 4.70893L144.815 4.97276L144.842 5.1669ZM144.449 6.14621L144.824 6.17092C144.776 6.49657 144.687 6.78358 144.556 7.03591L144.203 6.87892C144.332 6.64298 144.412 6.40175 144.449 6.14621ZM146.604 6.80435L145.637 6.93846C145.332 6.98079 145.162 6.863 145.125 6.59358L145.055 6.08644L145.435 6.03367L145.494 6.46158C145.508 6.56063 145.575 6.60389 145.697 6.58685L146.486 6.47747C146.557 6.46758 146.606 6.44458 146.63 6.413C146.665 6.37185 146.678 6.26499 146.67 6.08846L147.043 6.15389C147.049 6.43563 147.018 6.61369 146.938 6.68126C146.869 6.73924 146.758 6.78292 146.604 6.80435ZM145.995 5.79043C146.175 5.92693 146.313 6.04911 146.414 6.16039L146.131 6.42173C146.022 6.30362 145.878 6.17406 145.702 6.03702L145.995 5.79043ZM147.242 5.70215C147.496 5.92945 147.694 6.1322 147.835 6.30644L147.552 6.56778C147.4 6.37087 147.205 6.15964 146.964 5.93465L147.242 5.70215Z" fill="white"/>
<path d="M150.448 2.78848L150.732 5.00636L150.351 5.05515L150.115 3.20625L148.456 3.41866L148.693 5.27153L148.313 5.32031L148.028 3.09846L150.448 2.78848ZM149.1 3.56605L149.473 3.51828L149.568 4.26022C149.588 4.47549 149.589 4.67295 149.572 4.86054L149.91 4.81735L150.03 5.7537C150.048 5.9005 150.11 5.96928 150.213 5.95606L150.792 5.88187C150.84 5.87577 150.885 5.84984 150.92 5.80905C150.958 5.76378 150.969 5.59308 150.947 5.29744L151.323 5.37023C151.329 5.76067 151.302 5.99394 151.244 6.074C151.173 6.14764 151.07 6.19707 150.936 6.22228L150.155 6.32239C149.869 6.35898 149.704 6.20667 149.661 5.86942L149.553 5.02036C149.511 5.29187 149.432 5.52778 149.314 5.73652C149.094 6.10333 148.702 6.41163 148.139 6.66935L147.896 6.37786C148.459 6.12014 148.83 5.83473 149.004 5.52213C149.171 5.19417 149.233 4.79112 149.195 4.30799L149.1 3.56605Z" fill="white"/>
<path d="M152.052 2.41277L153.087 4.17429L152.477 6.12445L152.143 6.01784L152.706 4.21803L151.75 2.59228L152.052 2.41277ZM152.731 2.33485L153.767 4.09638L153.157 6.04654L152.822 5.93992L153.385 4.14012L152.414 2.51619L152.731 2.33485Z" fill="white"/>
<path d="M157.121 2.54594L157.398 5.31612L157.036 5.35234L157.015 5.14537L156.386 5.20826L156.418 5.53065L156.056 5.56687L155.768 2.68126L156.146 2.64345C156.196 2.42135 156.23 2.19687 156.239 1.96284L156.622 1.97677C156.604 2.19966 156.565 2.40862 156.508 2.60723L157.121 2.54594ZM156.351 4.858L156.98 4.79512L156.902 4.01103L156.273 4.07391L156.351 4.858ZM156.239 3.7356L156.868 3.67272L156.795 2.94037L156.166 3.00325L156.239 3.7356ZM157.933 3.42953C158.228 3.72964 158.459 3.99193 158.623 4.22477L158.346 4.46557C158.169 4.218 157.933 3.94815 157.646 3.65123L157.933 3.42953ZM159.175 2.34455C159.312 3.7177 159.377 4.56746 159.369 4.88986C159.358 5.18041 159.181 5.3428 158.843 5.37663C158.764 5.38459 158.619 5.39095 158.419 5.39891L158.293 5.06179C158.469 5.05224 158.621 5.04508 158.748 5.03234C158.908 5.01642 158.991 4.92369 158.998 4.75413C159.002 4.55274 158.947 3.88288 158.842 2.74774L157.843 2.84764C157.755 3.09759 157.65 3.32923 157.518 3.54336L157.261 3.26754C157.486 2.85918 157.622 2.37519 157.663 1.81638L158.042 1.82673C158.024 2.0536 157.989 2.26614 157.945 2.46753L159.175 2.34455Z" fill="white"/>
<path d="M161.704 4.37418C161.409 4.74396 160.913 5.05035 160.219 5.293L159.985 4.98745C160.71 4.73017 161.195 4.44073 161.437 4.11547L161.497 4.01813L159.951 4.14736L159.921 3.78861L161.663 3.64306C161.738 3.3959 161.772 3.12416 161.763 2.82786L161.722 2.34155L162.089 2.31091L162.13 2.79722C162.142 3.09319 162.121 3.36392 162.061 3.60975L163.313 3.50516L163.343 3.86391L161.936 3.98149C161.918 4.01504 161.901 4.0486 161.888 4.08182C162.456 4.2511 162.984 4.46391 163.47 4.71227L163.29 5.05645C162.768 4.76292 162.239 4.53816 161.704 4.37418ZM160.427 2.98362C160.72 3.07557 160.991 3.19343 161.24 3.33721L161.069 3.65249C160.806 3.4858 160.535 3.36395 160.264 3.28229L160.427 2.98362ZM160.771 2.39293C161.064 2.48089 161.334 2.59875 161.579 2.74286L161.409 3.05814C161.147 2.89543 160.879 2.76926 160.607 2.68761L160.771 2.39293ZM163.125 1.69448L163.194 2.51163L162.827 2.54227L162.788 2.07191L160.189 2.28908L160.228 2.75945L159.861 2.79009L159.793 1.97294L161.288 1.84803C161.235 1.74008 161.182 1.64011 161.126 1.54844L161.508 1.45235C161.565 1.55997 161.619 1.67987 161.67 1.81605L163.125 1.69448Z" fill="white"/>
<path d="M163.848 1.81869L164.426 1.78079C164.347 1.60961 164.265 1.45067 164.175 1.30821L164.558 1.21501C164.636 1.37421 164.716 1.55338 164.794 1.75675L165.265 1.72591L165.289 2.09312L164.51 2.14409L164.541 2.61109L165.247 2.56483C165.315 3.60261 165.338 4.24654 165.322 4.49211C165.297 4.73421 165.13 4.86944 164.81 4.89035C164.779 4.89244 164.722 4.88812 164.646 4.8851L164.54 4.55131C164.612 4.55858 164.677 4.56239 164.733 4.55873C164.872 4.54958 164.952 4.47624 164.971 4.3387C164.982 4.20168 164.963 3.7339 164.919 2.93908L164.56 2.9626C164.594 3.84628 164.489 4.50655 164.245 4.94343L163.945 4.71451C164.163 4.30741 164.245 3.66866 164.193 2.80624L164.151 2.16761L163.872 2.1859L163.848 1.81869ZM165.855 1.91978C165.742 2.21579 165.61 2.47293 165.46 2.69519L165.194 2.41603C165.41 2.10524 165.582 1.68105 165.716 1.1472L166.076 1.20377C166.044 1.32612 166.012 1.4405 165.979 1.55487L167.356 1.46471L167.379 1.81995L165.855 1.91978ZM167.269 2.27214C167.319 3.03451 167.329 3.49883 167.307 3.66058C167.282 3.82259 167.14 3.91608 166.876 3.93333L166.856 3.93463L166.74 3.62159C166.808 3.61715 166.868 3.61722 166.92 3.61382C166.963 3.61094 166.989 3.5692 166.992 3.49284C166.995 3.42446 166.987 3.18046 166.96 2.76535L166.664 2.89298L166.749 4.1942L166.398 4.21719L166.321 3.03972L166.02 3.16761L166.089 4.20938C166.1 4.385 166.166 4.47289 166.286 4.46504L167.04 4.41565C167.124 4.41016 167.187 4.38602 167.224 4.34349C167.269 4.29246 167.291 4.15067 167.292 3.91413L167.626 3.99648C167.613 4.34209 167.566 4.54958 167.483 4.62717C167.407 4.69227 167.289 4.73204 167.122 4.74302L166.2 4.80339C165.928 4.82116 165.781 4.65043 165.758 4.29919L165.693 3.30931L165.416 3.42765L165.394 3.08438L165.671 2.96604L165.636 2.43119L165.971 2.40923L165.998 2.82434L166.298 2.69246L166.257 2.0658L166.608 2.0428L166.641 2.54573L167.269 2.27214Z" fill="white"/>
<path d="M168.503 1.53825L167.88 1.56755L167.864 1.2479L169.183 1.18594C169.148 1.11951 169.113 1.05709 169.078 1.00265L169.487 0.919381C169.522 0.993795 169.562 1.07601 169.599 1.16641L170.981 1.10144L170.996 1.42109L170.361 1.45094L170.256 1.69612L171.195 1.652L171.211 1.97964L167.718 2.14375L167.703 1.81611L168.61 1.77348L168.503 1.53825ZM169.006 1.7549L169.861 1.71471L169.965 1.46953L168.898 1.51967L169.006 1.7549ZM168.142 2.29203L170.803 2.16698L170.861 3.4136L168.2 3.53866L168.142 2.29203ZM170.476 3.14338L170.467 2.9436L168.549 3.03373L168.558 3.23351L170.476 3.14338ZM168.536 2.76203L170.454 2.6719L170.445 2.47612L168.527 2.56625L168.536 2.76203ZM168.056 3.70162L168.427 3.76026C168.35 4.08023 168.235 4.35794 168.082 4.59738L167.745 4.40901C167.894 4.18573 167.996 3.95273 168.056 3.70162ZM170.142 4.55263L169.167 4.59844C168.86 4.6129 168.701 4.48019 168.688 4.20849L168.664 3.69705L169.048 3.67903L169.068 4.11055C169.073 4.21044 169.135 4.25957 169.259 4.25375L170.054 4.21638C170.126 4.213 170.177 4.19458 170.204 4.16529C170.242 4.12746 170.265 4.02226 170.273 3.8457L170.638 3.94467C170.619 4.22587 170.571 4.40031 170.486 4.46037C170.413 4.51189 170.298 4.5453 170.142 4.55263ZM169.628 3.48761C169.795 3.63992 169.921 3.77413 170.011 3.89405L169.706 4.12864C169.608 4.00111 169.477 3.85909 169.314 3.70659L169.628 3.48761ZM170.878 3.51293C171.11 3.76232 171.289 3.98218 171.414 4.16852L171.108 4.40311C170.974 4.19317 170.799 3.96513 170.579 3.71918L170.878 3.51293Z" fill="white"/>
<path d="M174.55 0.920484L174.611 3.15565L174.227 3.16611L174.177 1.30281L172.505 1.34835L172.556 3.21566L172.172 3.22612L172.111 0.98695L174.55 0.920484ZM173.131 1.55938L173.507 1.54914L173.527 2.29686C173.525 2.513 173.507 2.70958 173.472 2.8946L173.812 2.88534L173.837 3.82899C173.841 3.97693 173.895 4.05149 173.999 4.04865L174.583 4.03275C174.631 4.03144 174.679 4.01014 174.718 3.97306C174.76 3.93188 174.788 3.76307 174.796 3.46674L175.163 3.57678C175.129 3.96584 175.08 4.19528 175.014 4.2691C174.935 4.33526 174.828 4.37419 174.693 4.38589L173.905 4.40736C173.617 4.4152 173.469 4.24719 173.459 3.90731L173.436 3.05163C173.367 3.3176 173.265 3.54446 173.127 3.74031C172.872 4.08338 172.451 4.35094 171.864 4.551L171.652 4.23668C172.238 4.03662 172.636 3.7897 172.84 3.49603C173.039 3.18648 173.141 2.79158 173.152 2.3071L173.131 1.55938Z" fill="white"/>
<path d="M175.995 0.71382L176.835 2.57652L176.019 4.44974L175.698 4.30778L176.451 2.57896L175.676 0.859849L175.995 0.71382ZM176.679 0.709475L177.519 2.57218L176.703 4.4454L176.382 4.30344L177.135 2.57462L176.344 0.855606L176.679 0.709475Z" fill="white"/>
</svg>
