<svg width="126" height="11" viewBox="0 0 126 11" fill="none" xmlns="http://www.w3.org/2000/svg">
<path d="M1.76368 7.07825L2.10724 7.20314L1.42537 8.96825L2.28505 10.6466L1.97365 10.8083L1.04198 8.98983L1.76368 7.07825ZM2.4466 7.03981L2.77419 7.16559L2.10829 8.92981L2.96797 10.6081L2.65657 10.7699L1.72489 8.95139L2.4466 7.03981ZM4.05798 7.76639L6.03485 7.65511L6.05419 7.99857L5.25944 8.0433L5.2871 8.53453L5.95803 8.49676L5.97692 8.83223L5.30598 8.86999L5.33723 9.42512L5.74458 9.40218C5.66371 9.24648 5.58018 9.11497 5.49356 8.99966L5.78769 8.88695C5.88674 9.00957 5.97426 9.14086 6.0507 9.2888L5.84043 9.39679L6.24779 9.37386L6.26712 9.71732L4.0666 9.84119L4.04727 9.49773L4.95384 9.4467L4.92259 8.89158L4.25165 8.92934L4.23277 8.59388L4.9037 8.55611L4.87605 8.06488L4.07732 8.10985L4.05798 7.76639ZM6.69001 6.98122L6.88852 10.5076L6.50513 10.5292L6.49659 10.3775L3.90868 10.5231L3.91723 10.6749L3.53383 10.6965L3.33532 7.17006L6.69001 6.98122ZM3.88867 10.1677L6.47658 10.022L6.32685 7.36224L3.73895 7.50791L3.88867 10.1677ZM8.32197 6.72109L8.71251 6.7552C8.67797 6.85329 8.63921 6.94762 8.596 7.03418L10.3053 6.93797L10.3226 7.24548C10.0985 7.53453 9.82045 7.79056 9.49223 8.00936C9.92854 8.14505 10.4099 8.22613 10.9397 8.24437L10.788 8.60948C10.1649 8.57244 9.59728 8.45215 9.0888 8.2444C8.6217 8.48704 8.07135 8.67426 7.44575 8.80563L7.25002 8.46009C7.78135 8.36207 8.25429 8.22327 8.66087 8.04414C8.46288 7.9431 8.27996 7.8252 8.10858 7.69863C7.97931 7.82209 7.83761 7.93824 7.67949 8.0473L7.43078 7.75682C7.88297 7.46294 8.18004 7.1177 8.32197 6.72109ZM9.06232 7.84526C9.33025 7.69396 9.56487 7.5205 9.77018 7.32465L8.3684 7.40356C8.3571 7.41622 8.34956 7.42465 8.34602 7.43287C8.56335 7.5929 8.80353 7.73162 9.06232 7.84526ZM8.81097 8.50443L9.18638 8.48329C9.19447 8.62707 9.19014 8.76353 9.17736 8.89245L10.5552 8.81489C10.5865 9.51423 10.5502 9.93694 10.4461 10.079C10.3419 10.2211 10.1462 10.3042 9.86668 10.32C9.7309 10.3276 9.56271 10.3291 9.37034 10.3279L9.25516 9.98981C9.46328 9.98611 9.63146 9.98465 9.75971 9.98545C9.96316 9.96999 10.0885 9.91886 10.1359 9.83607C10.1831 9.74928 10.2027 9.52783 10.1949 9.17571L9.1126 9.23663C9.08206 9.3345 9.04729 9.42861 9.00409 9.51517C8.82464 9.88584 8.37401 10.2077 7.64844 10.4849L7.37953 10.1915C8.01971 9.9632 8.434 9.70752 8.61817 9.42071C8.64719 9.367 8.67622 9.31328 8.69726 9.26001L7.57504 9.32318L7.55593 8.98372L8.79397 8.91403C8.81074 8.78488 8.81907 8.6482 8.81097 8.50443ZM14.7591 6.70328L14.8079 7.56991L14.4924 7.58767L14.5057 7.82329L12.9801 7.90917L12.9668 7.67354L12.6434 7.69175L12.5946 6.82512L13.4652 6.77612C13.4194 6.67453 13.3743 6.58492 13.3214 6.49976L13.7092 6.41383C13.759 6.51519 13.8055 6.62876 13.8526 6.75431L14.7591 6.70328ZM13.0049 7.56723L14.4387 7.48653L14.416 7.08317L12.9822 7.16387L13.0049 7.56723ZM12.6973 8.29367L14.8738 8.17115L14.8941 8.53058L14.2591 8.56633L14.3141 9.54478C14.3198 9.64462 14.3546 9.69474 14.4185 9.69114L14.5423 9.68417C14.5743 9.68238 14.6013 9.66483 14.62 9.63974C14.6461 9.60622 14.6569 9.44135 14.6522 9.14515L15.0024 9.24562C14.9912 9.61484 14.9636 9.83674 14.9155 9.90756C14.8629 9.97061 14.7729 10.0077 14.6373 10.0194L14.3178 10.0374C14.202 10.0439 14.1159 10.0087 14.0557 9.93592C13.9873 9.85965 13.95 9.7656 13.9437 9.65377L13.8837 8.58746L13.5921 8.60387C13.5827 9.00504 13.5356 9.30816 13.4428 9.5097C13.3285 9.75651 13.1245 9.97632 12.8309 10.1691L12.5697 9.87134C12.8177 9.72116 12.9922 9.54708 13.0934 9.35308C13.1725 9.19238 13.215 8.94962 13.2207 8.62478L12.7175 8.65311L12.6973 8.29367ZM11.2858 6.70649L12.4919 6.6386L12.5086 6.93413C12.4241 7.28343 12.3207 7.65383 12.1983 8.04132C12.4384 8.39238 12.5762 8.70513 12.6077 8.97979C12.6183 9.1675 12.586 9.30553 12.5188 9.39344C12.4168 9.50335 12.232 9.56583 11.9607 9.58511L11.8151 9.2047C11.8959 9.21617 11.9682 9.22011 12.0241 9.21697C12.1115 9.20403 12.1743 9.18047 12.2049 9.15471C12.231 9.12119 12.2443 9.07236 12.2403 9.00048C12.2252 8.7329 12.0885 8.44012 11.834 8.11791C11.9673 7.70978 12.0706 7.33938 12.1405 7.01494L11.6733 7.04125L11.8533 10.2402L11.4859 10.2609L11.2858 6.70649ZM16.2752 6.30544C16.4382 6.49658 16.5983 6.70792 16.7516 6.93967L16.5109 7.07741L17.3376 7.03088C17.4686 6.79515 17.5811 6.51638 17.6754 6.19858L18.0524 6.27751C17.9794 6.54604 17.8808 6.78796 17.765 7.00682L18.5238 6.96411L18.5444 7.33153L17.2425 7.40482L17.2495 7.52862C17.2523 7.72077 17.2422 7.89761 17.2235 8.06293L18.8129 7.97345L18.8336 8.34087L17.4358 8.41955C17.6587 8.89177 18.1793 9.24307 18.9978 9.47744L18.7943 9.84946C17.9363 9.55322 17.3796 9.12784 17.1162 8.57777C17.0549 8.76952 16.9765 8.9422 16.8807 9.09181C16.6294 9.46653 16.2016 9.76705 15.5974 9.99337L15.3711 9.67358C15.9748 9.43928 16.376 9.1643 16.5786 8.84841C16.6479 8.72832 16.7047 8.59693 16.7489 8.45822L15.3831 8.53511L15.3624 8.16769L16.8321 8.08496C16.8546 7.91542 16.8687 7.73835 16.8661 7.5502L16.8591 7.4264L15.5532 7.49991L15.5325 7.13249L16.3871 7.08438C16.2423 6.86017 16.0911 6.66436 15.9372 6.49274L16.2752 6.30544ZM19.4607 6.24231L22.4839 6.07213L22.5048 6.44354L21.2308 6.51526L21.2857 7.48971L22.8392 7.40226L22.8606 7.78166L21.307 7.86911L21.3837 9.23096C21.3994 9.51052 21.2597 9.66261 20.9682 9.67902L20.3332 9.71476L20.2327 9.35184C20.437 9.35236 20.6331 9.34933 20.8169 9.33899C20.9447 9.33179 21.0052 9.26829 20.9989 9.15647L20.9276 7.89047L19.3062 7.98174L19.2848 7.60234L20.9063 7.51107L20.8514 6.53661L19.4816 6.61372L19.4607 6.24231ZM25.1795 7.62709L25.2045 8.07038L25.8235 8.03554L25.7986 7.59224L25.1795 7.62709ZM25.2243 8.42183L25.2522 8.91704L25.8712 8.8822L25.8433 8.38698L25.2243 8.42183ZM25.2726 9.28047L25.2827 9.46018L24.9073 9.48132L24.7828 7.26882C24.7094 7.38913 24.6279 7.5059 24.5423 7.62289L24.392 7.23072C24.6837 6.78963 24.8815 6.31777 24.981 5.80737L25.3524 5.85857C25.3077 6.06141 25.2506 6.25692 25.1811 6.44513L25.7921 6.41073C25.7175 6.22263 25.6348 6.03498 25.5446 5.85577L25.9026 5.73946C26.0042 5.97813 26.0884 6.19374 26.1476 6.39073L26.7586 6.35633L26.7791 6.71975L26.1281 6.7564L26.154 7.21567L26.7251 7.18352L26.7451 7.53896L26.174 7.57111L26.1989 8.01441L26.77 7.98226L26.7898 8.3337L26.2187 8.36585L26.2466 8.86107L26.9415 8.82195L26.9619 9.18537L25.2726 9.28047ZM25.7527 6.77753L25.1337 6.81238L25.1595 7.27165L25.7786 7.2368L25.7527 6.77753ZM24.4723 7.44655L24.4941 7.83394C24.3852 7.89215 24.2721 7.94659 24.1629 8.00081L24.2241 9.08709C24.2387 9.34668 24.1103 9.48612 23.8428 9.50118L23.4833 9.52141L23.3788 9.15871C23.4875 9.16862 23.5918 9.17076 23.6916 9.16514C23.7955 9.1593 23.8447 9.10845 23.8393 9.0126L23.7916 8.16594C23.6428 8.2264 23.4897 8.28309 23.3404 8.33557L23.223 7.95757C23.4085 7.90707 23.5895 7.8488 23.77 7.78255L23.7228 6.94388L23.2436 6.97085L23.2229 6.60343L23.7022 6.57646L23.6626 5.87357L24.042 5.85221L24.0816 6.5551L24.453 6.53419L24.4736 6.90161L24.1022 6.92252L24.1416 7.62141C24.2547 7.56697 24.3636 7.50876 24.4723 7.44655ZM27.5187 5.69657C27.794 5.8894 28.0293 6.08448 28.2247 6.28181L27.9685 6.56867C27.8015 6.37775 27.5699 6.17845 27.2693 5.963L27.5187 5.69657ZM30.0045 9.14631C29.7889 9.15845 29.553 9.16772 29.3012 9.17789C29.0454 9.18828 28.8364 9.17601 28.6704 9.14529C28.5079 9.10636 28.3668 9.01815 28.2393 8.88911C28.1836 8.82414 28.1338 8.79489 28.0859 8.79759C28.006 8.80209 27.8724 8.9899 27.6889 9.36079L27.3948 9.11694C27.5762 8.78221 27.7445 8.56842 27.8997 8.47955L27.8361 7.34934L27.297 7.37969L27.2772 7.02825L28.1718 6.97789L28.257 8.49149C28.2739 8.50657 28.2947 8.52142 28.316 8.54426C28.41 8.64714 28.5103 8.72162 28.6131 8.76792C28.732 8.81731 28.9058 8.84358 29.1379 8.83853C29.3618 8.82994 29.6256 8.81909 29.9331 8.80178C30.1248 8.79099 30.3242 8.77576 30.5277 8.7603C30.7271 8.74506 30.8824 8.72831 30.9898 8.71425L30.9191 9.09483L30.0045 9.14631ZM28.4568 6.20465L28.8961 6.17992L28.8621 5.57687L29.2256 5.55642L29.2595 6.15946L29.8026 6.12889L29.7689 5.52984L30.1363 5.50915L30.1701 6.10821L30.6453 6.08145L30.6653 6.43689L30.1901 6.46364L30.2299 7.17052L30.8329 7.13658L30.8531 7.49601L30.2501 7.52995L30.3112 8.61623L29.9438 8.63692L29.8827 7.55064L29.2477 7.58638C29.1617 8.05195 28.9811 8.40265 28.6982 8.64293L28.4535 8.35223C28.6681 8.17989 28.8104 7.9315 28.8803 7.60706L28.397 7.63427L28.3768 7.27484L28.9319 7.24359C28.9402 7.1069 28.9404 6.96667 28.932 6.81891L28.9161 6.53536L28.4768 6.56009L28.4568 6.20465ZM29.2795 6.5149L29.2905 6.71059C29.3009 6.8943 29.2983 7.06271 29.2913 7.22335L29.8624 7.19121L29.8227 6.48432L29.2795 6.5149ZM31.2349 6.09234L32.8443 6.00174C32.7297 5.81589 32.5918 5.64336 32.4303 5.48018L32.8019 5.31904C32.9564 5.50265 33.105 5.72264 33.2437 5.97926L34.7573 5.89405L34.7784 6.26946L34.1674 6.30386C34.0099 6.92169 33.7549 7.44484 33.4026 7.87732C33.8371 8.19341 34.3722 8.44773 34.9998 8.63676L34.8061 8.96817C34.1497 8.76474 33.5976 8.49534 33.1541 8.15974C32.7253 8.58451 32.1868 8.91129 31.5386 9.14008L31.3161 8.81608C31.9536 8.61192 32.4699 8.31844 32.8728 7.93119C32.4088 7.51661 32.072 7.01474 31.867 6.43335L31.256 6.46774L31.2349 6.09234ZM32.2304 6.41289C32.4258 6.89467 32.7217 7.3107 33.1218 7.65676C33.4252 7.28311 33.6446 6.83808 33.776 6.32589L32.2304 6.41289ZM36.2886 5.12678L36.6535 5.2745C36.5361 5.60963 36.3779 5.93103 36.1787 6.23471L36.3268 8.86654L35.9514 8.88767L35.8282 6.69914C35.6739 6.87609 35.5074 7.04972 35.3285 7.21604L35.1864 6.82741C35.6993 6.3298 36.068 5.76418 36.2886 5.12678ZM38.3915 8.6782L37.6447 8.72024C37.3252 8.73823 37.1564 8.58747 37.1385 8.26798L37.0755 7.14975C36.936 7.23372 36.7925 7.31792 36.6448 7.39835L36.4528 7.04858C36.6631 6.9406 36.8652 6.82906 37.0506 6.70645L36.9631 5.15291L37.3425 5.13155L37.4167 6.44947C37.7935 6.16784 38.1243 5.85275 38.4012 5.50464L38.6816 5.78933C38.3242 6.20207 37.9127 6.57779 37.4425 6.90874L37.5149 8.1947C37.5212 8.30653 37.5843 8.35906 37.7121 8.35187L38.3071 8.31837C38.399 8.3132 38.4651 8.27743 38.5056 8.21505C38.5422 8.1529 38.5583 7.93966 38.5456 7.57179L38.9035 7.66783C38.9014 8.12867 38.8652 8.41115 38.7987 8.51105C38.7283 8.61117 38.5912 8.66696 38.3915 8.6782ZM40.6979 6.52117L39.9551 6.56298L40.0407 8.08457C40.0461 8.18042 40.101 8.22942 40.2088 8.22335L40.9037 8.18423C41.0235 8.17748 41.0976 8.14126 41.1222 8.07978C41.1505 8.01409 41.1669 7.87695 41.1714 7.67238L41.5335 7.77218C41.5212 8.12143 41.4851 8.33579 41.4173 8.41172C41.357 8.47922 41.227 8.51859 41.0353 8.52938L40.0648 8.58401C39.8132 8.59817 39.6827 8.48533 39.6692 8.24571L39.5624 6.34871L39.3815 6.5512L39.1406 6.25627C39.5004 5.88747 39.8247 5.45656 40.1137 4.96755L40.3932 4.95181C40.7654 5.29944 41.1224 5.66395 41.4564 6.04579L41.2234 6.31931C40.8543 5.88337 40.551 5.54789 40.3056 5.31731C40.1153 5.63651 39.9003 5.94508 39.6527 6.24347L41.0504 6.16479L41.1125 7.26704C41.1209 7.48692 41.0076 7.60948 40.7688 7.63895C40.6131 7.64771 40.4651 7.65204 40.3249 7.65192L40.213 7.30165C40.3617 7.30931 40.4899 7.3101 40.6017 7.30381C40.6936 7.29864 40.7388 7.24802 40.7339 7.16015L40.6979 6.52117ZM41.59 5.21697L41.9614 5.19606L42.1001 7.66016L41.7287 7.68106L41.59 5.21697ZM42.4666 8.47685L41.8636 8.5108L41.7553 8.15232C41.9518 8.15728 42.14 8.1547 42.3157 8.14481C42.4116 8.13941 42.4561 8.07681 42.4496 7.96099L42.2738 4.83794L42.6532 4.81658L42.8344 8.03548C42.8501 8.31504 42.7262 8.46224 42.4666 8.47685ZM44.0367 5.26753L43.4137 5.3026L43.3957 4.98311L44.7136 4.90892C44.6779 4.84283 44.6423 4.78073 44.6072 4.72662L45.015 4.63956C45.0512 4.71364 45.0919 4.79549 45.129 4.88554L46.5108 4.80776L46.5288 5.12725L45.8938 5.163L45.7915 5.40914L46.73 5.35631L46.7484 5.68379L43.2579 5.88027L43.2395 5.55279L44.1461 5.50176L44.0367 5.26753ZM44.5414 5.4795L45.3961 5.43139L45.4984 5.18525L44.4321 5.24528L44.5414 5.4795ZM43.6827 6.02463L46.3425 5.8749L46.4127 7.12093L43.7529 7.27065L43.6827 6.02463ZM46.0251 6.85429L46.0138 6.65461L44.0968 6.76252L44.1081 6.9622L46.0251 6.85429ZM44.0816 6.49095L45.9985 6.38304L45.9875 6.18735L44.0705 6.29526L44.0816 6.49095ZM43.6099 7.43495L43.9816 7.49015C43.9075 7.81082 43.795 8.08958 43.6443 8.33043L43.3053 8.14519C43.4529 7.92054 43.5519 7.68661 43.6099 7.43495ZM45.7039 8.26657L44.7295 8.32143C44.422 8.33874 44.2623 8.2075 44.247 7.93593L44.2183 7.42474L44.6017 7.40316L44.6259 7.83448C44.6316 7.93432 44.6944 7.98287 44.8182 7.9759L45.6129 7.93116C45.6848 7.92711 45.7358 7.90821 45.7622 7.87869C45.8001 7.84049 45.8222 7.73508 45.8283 7.55846L46.1943 7.65405C46.1781 7.9354 46.1318 8.11028 46.0471 8.17114C45.9739 8.22333 45.8597 8.25781 45.7039 8.26657ZM45.1795 7.20637C45.3482 7.35713 45.4759 7.49016 45.5668 7.60924L45.2636 7.84666C45.1644 7.72004 45.0322 7.57924 44.8675 7.42826L45.1795 7.20637ZM46.4303 7.2201C46.6645 7.46732 46.8451 7.68552 46.9717 7.8707L46.6685 8.10811C46.5326 7.89942 46.3556 7.67301 46.1335 7.42911L46.4303 7.2201ZM50.6294 4.59595L50.814 7.87476L50.4466 7.89544L50.4301 7.6039L49.5635 7.65269L49.5826 7.99215L49.2192 8.01261L49.0319 4.68587L50.6294 4.59595ZM49.5433 7.29325L50.4099 7.24447L50.282 4.97207L49.4154 5.02085L49.5433 7.29325ZM47.2693 5.6144L47.9363 5.57686L47.9093 5.09762C47.7272 5.13591 47.5406 5.16645 47.3578 5.19277L47.2189 4.86005C47.8312 4.7775 48.3208 4.64978 48.6921 4.48465L48.8896 4.79004C48.6899 4.87339 48.4859 4.94898 48.2729 5.00904L48.3037 5.55618L48.9547 5.51953L48.9747 5.87497L48.3237 5.91161L48.3327 6.07136C48.5674 6.25446 48.8074 6.4613 49.0527 6.69188L48.8475 7.03195C48.6534 6.78647 48.4902 6.59133 48.3534 6.43878L48.4489 8.13609L48.0815 8.15677L47.9905 6.53934C47.8496 6.8838 47.6592 7.203 47.4274 7.4965L47.2402 7.09037C47.5737 6.75109 47.8126 6.36906 47.9574 5.95226L47.9563 5.9323L47.2893 5.96984L47.2693 5.6144ZM51.6097 4.36048C51.8761 4.53779 52.0988 4.72156 52.2853 4.90337L52.0406 5.18156C51.8782 5.0024 51.6513 4.81486 51.3641 4.6227L51.6097 4.36048ZM51.1626 5.52745L52.0572 5.4771L52.1523 7.16642C52.2702 7.05562 52.3953 6.92839 52.5314 6.78451L52.6577 7.17803C52.4116 7.43227 52.1482 7.66344 51.8672 7.86755L51.7041 7.53219C51.7649 7.47268 51.7968 7.39877 51.7921 7.3149L51.7102 5.8612L51.1831 5.89088L51.1626 5.52745ZM52.6151 5.92244L54.552 5.81341L54.5716 6.16086C54.4758 6.52282 54.3012 6.83713 54.048 7.10779C54.313 7.26113 54.6331 7.39536 54.9997 7.50292L54.8145 7.84187C54.4061 7.7046 54.0643 7.53955 53.7815 7.35516C53.4825 7.59634 53.1053 7.79786 52.6576 7.95927L52.428 7.65169C52.8444 7.50406 53.191 7.3283 53.4678 7.12041C53.1814 6.87212 52.9773 6.59115 52.8634 6.27705L52.6358 6.28986L52.6151 5.92244ZM53.2189 6.25704C53.3244 6.49548 53.4925 6.70637 53.7274 6.89346C53.9321 6.68563 54.0874 6.45654 54.1893 6.20241L53.2189 6.25704ZM52.8079 4.36515L54.2216 4.28556L54.2689 5.12424C54.2738 5.2121 54.3244 5.25732 54.4243 5.2517L54.7757 5.23192L54.7953 5.57937L54.344 5.60477C54.0604 5.62074 53.913 5.49282 53.8982 5.22924L53.8662 4.66213L53.2033 4.69945L53.21 4.81926C53.2334 5.23461 53.04 5.57001 52.6334 5.82125L52.3654 5.54388C52.6924 5.37323 52.8522 5.1519 52.8369 4.88033L52.8079 4.36515ZM56.4085 5.2001L57.4548 5.1412L57.389 3.97106L57.7804 3.94902L57.8462 5.11917L58.8367 5.06342L58.8578 5.43882L57.8674 5.49458L57.9885 7.64717L57.5971 7.6692L57.476 5.51661L56.4296 5.57551L56.4085 5.2001ZM55.6178 4.10681C55.8884 4.28789 56.1191 4.47122 56.31 4.66079L56.0653 4.93898C55.895 4.76027 55.6641 4.57295 55.3688 4.38124L55.6178 4.10681ZM55.1558 5.29466L56.0784 5.24272L56.1741 6.94403C56.2961 6.833 56.4211 6.70577 56.5535 6.56611L56.6751 6.94788C56.433 7.20189 56.1696 7.43306 55.8886 7.63717L55.7258 7.3058C55.7905 7.24607 55.8226 7.17615 55.8181 7.09628L55.7354 5.62661L55.1763 5.65808L55.1558 5.29466ZM59.7654 5.26354L59.7982 5.84662L60.3573 5.81514L60.3245 5.23207L59.7654 5.26354ZM60.3054 4.8926L60.2721 4.30154L59.713 4.33301L59.7463 4.92408L60.3054 4.8926ZM59.8095 6.19052C59.8122 6.73524 59.7417 7.19192 59.598 7.55657L59.2958 7.31317C59.436 6.95673 59.4909 6.50893 59.4646 5.96956L59.3542 4.00866L60.5962 3.93875L60.772 7.06181C60.7873 7.33338 60.6712 7.47613 60.4275 7.48984L60.108 7.50783L59.9973 7.17753C60.1098 7.18322 60.2101 7.18558 60.3059 7.18019C60.3898 7.17547 60.4297 7.10111 60.4218 6.96133L60.3766 6.1586L59.8095 6.19052ZM61.3248 5.7086L61.4051 7.13434C61.6065 7.01083 61.7741 6.85716 61.9124 6.68111C61.6642 6.39862 61.4855 6.07214 61.3768 5.70567L61.3248 5.7086ZM61.4058 7.14632L61.4229 7.44984L61.0674 7.46985L60.8678 3.92346L62.5491 3.82882C62.5784 4.34799 62.5737 4.6928 62.5355 4.86723C62.497 5.03766 62.35 5.13007 62.0944 5.14446L61.7589 5.16334L61.6411 4.84947C61.705 4.84587 61.793 4.84492 61.9049 4.83862C61.9887 4.8339 62.0522 4.82232 62.0914 4.80809C62.1307 4.79386 62.1606 4.75612 62.1815 4.69886C62.2016 4.62962 62.2081 4.46098 62.201 4.19296L61.2426 4.24691L61.306 5.37313L62.6558 5.29714L62.6738 5.61664C62.624 6.01206 62.523 6.35428 62.3708 6.63928C62.5433 6.78582 62.7429 6.91481 62.9657 7.03046L62.796 7.36052C62.5607 7.23755 62.3525 7.09703 62.1756 6.94274C62.0222 7.13566 61.835 7.29844 61.6181 7.43084L61.4058 7.14632ZM61.7003 5.68746C61.7947 5.94256 61.9278 6.17144 62.1035 6.37389C62.2116 6.15947 62.2902 5.91867 62.3392 5.65149L61.7003 5.68746ZM64.2335 3.57375L64.624 3.60786C64.5895 3.70595 64.5507 3.80028 64.5075 3.88684L66.2168 3.79063L66.2341 4.09814C66.01 4.38719 65.7319 4.64322 65.4037 4.86202C65.84 4.99771 66.3213 5.07878 66.8512 5.09703L66.6995 5.46214C66.0764 5.4251 65.5088 5.30481 65.0003 5.09706C64.5332 5.3397 63.9828 5.52692 63.3572 5.65829L63.1615 5.31275C63.6928 5.21473 64.1658 5.07593 64.5724 4.89679C64.3744 4.79576 64.1914 4.67786 64.0201 4.55129C63.8908 4.67475 63.7491 4.7909 63.591 4.89996L63.3423 4.60948C63.7945 4.3156 64.0915 3.97035 64.2335 3.57375ZM64.9738 4.69792C65.2417 4.54662 65.4764 4.37316 65.6817 4.17731L64.2799 4.25622C64.2686 4.26888 64.261 4.27731 64.2575 4.28552C64.4748 4.44556 64.715 4.58428 64.9738 4.69792ZM64.7225 5.35709L65.0979 5.33595C65.106 5.47973 65.1016 5.61619 65.0888 5.74511L66.4667 5.66755C66.498 6.36689 66.4617 6.7896 66.3575 6.93168C66.2534 7.07376 66.0577 7.15689 65.7782 7.17262C65.6424 7.18027 65.4742 7.18172 65.2818 7.18053L65.1666 6.84247C65.3748 6.83877 65.543 6.83731 65.6712 6.83811C65.8747 6.82265 66 6.77152 66.0474 6.68873C66.0946 6.60194 66.1142 6.38049 66.1064 6.02837L65.0241 6.08929C64.9935 6.18716 64.9588 6.28127 64.9156 6.36783C64.7361 6.7385 64.2855 7.06034 63.5599 7.33755L63.291 7.0442C63.9312 6.81586 64.3455 6.56017 64.5297 6.27337C64.5587 6.21965 64.5877 6.16594 64.6087 6.11267L63.4865 6.17584L63.4674 5.83638L64.7055 5.76669C64.7222 5.63754 64.7306 5.50086 64.7225 5.35709ZM67.7759 3.37434L68.1531 3.38516L68.129 3.8833L70.4813 3.75089L70.5017 4.11431L68.1135 4.24875L68.0893 4.815L70.3018 4.69046C70.3645 5.80469 70.3211 6.45617 70.1792 6.64043C70.0369 6.81671 69.7181 6.91879 69.2189 6.94689C69.0911 6.95408 68.9549 6.95374 68.8147 6.95362L68.6953 6.61179C68.9001 6.62029 69.0445 6.62418 69.1244 6.61968C69.5477 6.59585 69.7993 6.50958 69.8753 6.36508C69.9546 6.20837 69.9784 5.77835 69.9384 5.06748L67.686 5.19427L67.7759 3.37434ZM67.23 5.77682L69.4824 5.65003L69.5029 6.01345L67.2505 6.14024L67.23 5.77682ZM74.5941 3.2229L74.7895 6.69341L74.4181 6.71431L74.4053 6.48667L73.2111 6.55389L73.2242 6.78553L72.8648 6.80576L72.6692 3.33126L74.5941 3.2229ZM73.1911 6.19846L74.3852 6.13124L74.3508 5.5202L73.1567 5.58742L73.1911 6.19846ZM73.1372 5.23997L74.3313 5.17275L74.296 4.54575L73.1019 4.61297L73.1372 5.23997ZM73.0823 4.26552L74.2764 4.1983L74.2427 3.59925L73.0486 3.66646L73.0823 4.26552ZM72.1138 4.85288L72.2253 6.83374L71.8539 6.85465L71.7489 4.9896C71.6396 5.32428 71.5009 5.63656 71.3325 5.91847L71.1676 5.55116C71.4229 5.17622 71.5996 4.75762 71.7014 4.28716L71.1782 4.31661L71.1577 3.95319L71.6889 3.92329L71.6468 3.17647L72.0183 3.15556L72.0603 3.90238L72.5435 3.87518L72.564 4.2386L72.0808 4.26581L72.0907 4.44153C72.2765 4.61135 72.4674 4.80092 72.6553 5.00669L72.4649 5.32589C72.3301 5.13717 72.2131 4.9795 72.1138 4.85288ZM76.1803 2.93329C76.3433 3.12443 76.5035 3.33577 76.6567 3.56752L76.4161 3.70526L77.2428 3.65873C77.3738 3.42299 77.4863 3.14423 77.5806 2.82643L77.9576 2.90536C77.8846 3.17389 77.786 3.41581 77.6701 3.63467L78.4289 3.59196L78.4496 3.95938L77.1477 4.03267L77.1546 4.15647C77.1574 4.34862 77.1474 4.52546 77.1286 4.69078L78.7181 4.6013L78.7388 4.96872L77.341 5.0474C77.5639 5.51962 78.0845 5.87092 78.9029 6.10529L78.6995 6.47731C77.8415 6.18107 77.2847 5.75569 77.0214 5.20562C76.9601 5.39737 76.8816 5.57005 76.7859 5.71966C76.5346 6.09438 76.1068 6.3949 75.5025 6.62122L75.2762 6.30143C75.88 6.06713 76.2812 5.79214 76.4837 5.47626C76.5531 5.35617 76.6098 5.22478 76.6541 5.08607L75.2883 5.16296L75.2676 4.79554L76.7372 4.71281C76.7597 4.54327 76.7738 4.3662 76.7712 4.17805L76.7643 4.05425L75.4583 4.12776L75.4377 3.76034L76.2923 3.71223C76.1475 3.48802 75.9962 3.29221 75.8423 3.12059L76.1803 2.93329ZM80.9332 2.60165C80.9963 2.7263 81.0563 2.86715 81.1212 3.02375L82.507 2.94574L82.5273 3.30517L81.8563 3.34294C81.8265 3.5249 81.7805 3.70377 81.7181 3.87555L82.6406 3.82362L82.6613 4.19104L79.8258 4.35065L79.8561 4.8898C79.8752 5.51371 79.7638 6.02478 79.5135 6.41947L79.2076 6.18028C79.4062 5.86463 79.4946 5.44299 79.4727 4.91138L79.4217 4.00481L80.2284 3.9594L80.0592 3.4441L79.3483 3.48412L79.3281 3.12468L80.7339 3.04555C80.6745 2.91668 80.6076 2.79625 80.5375 2.68802L80.9332 2.60165ZM80.6038 3.93827L81.3546 3.89601C81.4171 3.72423 81.4631 3.54536 81.4929 3.36339L80.4306 3.42319L80.6038 3.93827ZM84.2565 2.4947L84.6359 2.47334L84.8126 5.61238L85.2918 5.5854L85.1151 2.44637L85.4945 2.42501L85.6712 5.56404L86.8374 5.4984L86.8583 5.86981L83.2959 6.07034L83.275 5.69893L84.4332 5.63373L84.2565 2.4947ZM86.2831 3.12579L86.624 3.20276C86.5109 3.89821 86.3489 4.50828 86.1383 5.03696L85.7921 4.93625C85.9897 4.4604 86.1559 3.8541 86.2831 3.12579ZM83.543 3.27203C83.7768 3.79571 83.9909 4.39663 84.1894 5.07455L83.8468 5.18197C83.6758 4.56261 83.4659 3.96546 83.2254 3.39407L83.543 3.27203ZM89.1212 2.86988L89.6684 2.83908L89.6311 2.17613L89.9865 2.15612L90.0238 2.81907L90.5869 2.78738L90.6809 4.45673L90.1178 4.48843L90.1618 5.27119L90.446 5.1951C90.3975 5.04559 90.3495 4.90407 90.2979 4.77075L90.5843 4.66249C90.7088 4.95195 90.8237 5.28602 90.9252 5.66491L90.606 5.759C90.585 5.67204 90.5604 5.5893 90.5397 5.50633C90.1577 5.62399 89.7508 5.72701 89.3231 5.81519L89.2152 5.4647C89.4178 5.43327 89.6161 5.39807 89.81 5.3551L89.7623 4.50844L89.2152 4.53924L89.1212 2.86988ZM90.343 4.14724L90.2859 3.13284L90.0223 3.14768L90.0794 4.16207L90.343 4.14724ZM89.7679 4.17961L89.7108 3.16522L89.4632 3.17915L89.5203 4.19355L89.7679 4.17961ZM87.0938 2.43915L89.0188 2.33079L89.0379 2.67025L87.1129 2.77861L87.0938 2.43915ZM87.3389 2.95018L88.8206 2.86677L88.8718 3.77733L87.3902 3.86074L87.3389 2.95018ZM88.5237 3.50046L88.5058 3.18097L87.691 3.22683L87.709 3.54632L88.5237 3.50046ZM87.7231 4.93572L87.8949 4.92606C87.8388 4.78498 87.7793 4.65212 87.7122 4.52769L87.9475 4.43833C88.0144 4.55876 88.0744 4.69961 88.1273 4.85688L87.9268 4.92426L88.2144 4.90807C88.2693 4.74473 88.3195 4.56963 88.3573 4.38722L88.6179 4.46069C88.5787 4.61914 88.5307 4.76207 88.4819 4.89301L88.6616 4.88289L88.6778 5.17044L88.3464 5.1891L88.3853 5.88L88.0857 5.89687L88.0468 5.20596L87.7393 5.22327L87.7231 4.93572ZM88.8297 5.87502L88.5461 5.89098L88.4354 5.56068L88.7001 5.56581C88.768 5.56199 88.8024 5.53201 88.7994 5.48009L88.7318 4.278L87.5856 4.34252L87.6773 5.97194L87.3498 5.99037L87.2406 4.04945L89.0417 3.94806L89.131 5.53355C89.1431 5.7492 89.0413 5.8631 88.8297 5.87502ZM92.7248 1.97794L93.0044 1.96221C93.5395 2.50098 94.1398 2.9159 94.8132 3.20651L94.6299 3.5814C94.4035 3.47396 94.1887 3.35785 93.9893 3.23286L94.0053 3.51641L91.9046 3.63466L91.8882 3.34312C91.6966 3.49813 91.4924 3.64184 91.2757 3.77823L91.0553 3.42205C91.734 3.02328 92.2917 2.53917 92.7248 1.97794ZM91.984 3.26561L93.877 3.15905C93.5107 2.91525 93.1784 2.63349 92.8839 2.31353C92.6348 2.65607 92.3361 2.97336 91.984 3.26561ZM94.281 3.92957L94.3742 5.58694L94.0068 5.60763L93.9947 5.39197L92.1256 5.49718L92.1378 5.71284L91.7704 5.73352L91.6771 4.07614L94.281 3.92957ZM92.1054 5.13775L93.9745 5.03254L93.9335 4.30569L92.0645 4.4109L92.1054 5.13775ZM95.3454 3.12447L95.5952 1.94056L95.9782 1.9831L95.8122 2.73362L96.4032 2.70035C96.4625 2.40054 96.5048 2.08567 96.5343 1.75549L96.9244 1.7816C96.8942 2.0998 96.851 2.39871 96.7986 2.67809L98.6277 2.57513L98.6482 2.93855L96.7232 3.04691C96.6907 3.18095 96.6537 3.30723 96.6205 3.42929L98.218 3.33936L98.236 3.65886C98.1506 3.99218 97.9715 4.29873 97.6908 4.57895C98.0038 4.7296 98.38 4.86467 98.8154 4.98439L98.6399 5.35483C98.1468 5.20631 97.7284 5.03356 97.3893 4.84432C97.0861 5.08173 96.71 5.30322 96.2608 5.50879L96.0409 5.1606C96.4322 4.99435 96.7667 4.81527 97.0405 4.62758C96.7693 4.43452 96.561 4.22189 96.4199 3.99345C96.1657 4.6007 95.8288 5.09242 95.4132 5.46836L95.1978 5.12794C95.7215 4.60968 96.0955 3.92358 96.3198 3.06962L95.3454 3.12447ZM96.6838 3.77027C96.8289 3.99848 97.0489 4.20644 97.3437 4.39016C97.5838 4.17232 97.7552 3.94233 97.8539 3.7044L96.6838 3.77027ZM97.5929 1.69991C97.8801 1.89206 98.1237 2.09069 98.3233 2.29179L98.067 2.57865C97.8956 2.37997 97.6598 2.1769 97.3514 1.96589L97.5929 1.69991ZM99.9458 3.07384L100.497 3.04281L100.479 2.72332L99.812 2.76086L99.8291 3.06438C99.8426 3.304 99.8396 3.53653 99.8278 3.75354L100.535 3.71375L100.516 3.37828L99.9647 3.40931L99.9458 3.07384ZM99.7992 4.0997C99.7479 4.53928 99.6463 4.94162 99.4944 5.30273L99.1713 5.04448C99.3946 4.52711 99.4862 3.87694 99.4457 3.08596L99.3702 1.74409L102.425 1.57211L102.484 2.61046L101.929 2.64171L101.947 2.96121L102.546 2.92748L102.565 3.26295L101.966 3.29668L101.984 3.63214L102.719 3.59078L102.739 3.93424L102.339 3.95672L102.584 4.17132C102.468 4.33005 102.34 4.46149 102.201 4.56544C102.411 4.66979 102.648 4.74061 102.914 4.77769L102.755 5.14724C102.025 5.00001 101.491 4.62542 101.149 4.02371L100.654 4.05159L100.697 4.81039C100.933 4.73699 101.141 4.65718 101.316 4.57119L101.408 4.91459C101.09 5.04462 100.712 5.16205 100.274 5.26688L100.151 4.94125C100.268 4.88658 100.323 4.79934 100.316 4.67155L100.282 4.07249L99.7992 4.0997ZM101.532 4.00213C101.637 4.1445 101.756 4.266 101.89 4.37063C102.036 4.27023 102.169 4.13457 102.287 3.95964L101.532 4.00213ZM101.561 2.66239L100.842 2.70286L100.86 3.02235L101.579 2.98189L101.561 2.66239ZM100.898 3.69329L101.617 3.65283L101.598 3.31736L100.879 3.35782L100.898 3.69329ZM102.061 1.94114L99.7731 2.06996L99.7929 2.4214L102.081 2.29258L102.061 1.94114ZM104.536 1.98215L104.692 4.76175L104.329 4.7822L104.317 4.57453L103.686 4.61005L103.704 4.93354L103.341 4.954L103.178 2.05858L103.557 2.03723C103.617 1.81752 103.661 1.59472 103.679 1.36129L104.062 1.39185C104.034 1.61375 103.986 1.8208 103.921 2.01677L104.536 1.98215ZM103.666 4.25861L104.297 4.22309L104.253 3.43633L103.622 3.47185L103.666 4.25861ZM103.603 3.13239L104.234 3.09687L104.193 2.36204L103.562 2.39756L103.603 3.13239ZM105.309 2.90016C105.591 3.21281 105.81 3.48489 105.964 3.72463L105.676 3.95316C105.51 3.69812 105.286 3.41827 105.012 3.10917L105.309 2.90016ZM106.597 1.87014C106.674 3.24796 106.702 4.09973 106.68 4.42148C106.656 4.71127 106.473 4.86583 106.133 4.88494C106.054 4.88944 105.909 4.88954 105.709 4.8888L105.598 4.54652C105.774 4.54462 105.926 4.54406 106.054 4.53687C106.213 4.52788 106.301 4.43884 106.315 4.26976C106.328 4.06872 106.302 3.39711 106.246 2.25846L105.244 2.31489C105.145 2.56081 105.03 2.78765 104.889 2.99588L104.645 2.70917C104.887 2.31094 105.044 1.83334 105.109 1.27681L105.487 1.3036C105.46 1.5295 105.416 1.74032 105.363 1.9396L106.597 1.87014ZM110.314 3.13923L110.399 4.64484L110.047 4.66463L110.035 4.44897L108.434 4.53912L108.447 4.77075L108.099 4.79031L108.033 3.61617C107.827 3.79604 107.591 3.94954 107.326 4.08463L107.115 3.75596C107.606 3.50798 107.982 3.19841 108.237 2.82346L107.171 2.88349L107.151 2.53204L108.437 2.45966C108.497 2.31605 108.545 2.16914 108.576 2.01912L108.95 2.04214C108.918 2.18018 108.881 2.31045 108.84 2.43695L110.681 2.33331L110.701 2.68476L108.68 2.79851C108.593 2.95966 108.497 3.10928 108.389 3.24759L110.314 3.13923ZM108.415 4.20764L110.016 4.11749L109.981 3.49448L108.38 3.58463L108.415 4.20764ZM107.11 1.52474L107.989 1.47528L107.97 1.13981L108.337 1.11913L108.356 1.4546L109.351 1.39862L109.332 1.06315L109.699 1.04247L109.718 1.37794L110.593 1.3287L110.612 1.68015L109.738 1.72938L109.756 2.06086L109.389 2.08154L109.37 1.75006L108.376 1.80604L108.395 2.15349L108.028 2.17417L108.008 1.82672L107.13 1.87618L107.11 1.52474ZM111.364 1.14908L114.339 0.981597L114.359 1.34103L113.065 1.41387L113.123 2.44424L114.713 2.35476L114.733 2.72218L113.144 2.81165L113.24 4.52494L112.857 4.54652L112.761 2.83324L111.159 2.92338L111.138 2.55597L112.74 2.46582L112.682 1.43545L111.384 1.50851L111.364 1.14908ZM115.923 1.22095L115.3 1.25602L115.282 0.936529L116.6 0.862342C116.564 0.796248 116.529 0.734148 116.493 0.680035L116.901 0.59298C116.937 0.667062 116.978 0.748906 117.015 0.838962L118.397 0.761178L118.415 1.08067L117.78 1.11642L117.678 1.36256L118.616 1.30973L118.635 1.63721L115.144 1.83369L115.126 1.50621L116.032 1.45518L115.923 1.22095ZM116.428 1.43292L117.282 1.38481L117.385 1.13867L116.318 1.1987L116.428 1.43292ZM115.569 1.97805L118.229 1.82832L118.299 3.07435L115.639 3.22407L115.569 1.97805ZM117.911 2.80771L117.9 2.60803L115.983 2.71594L115.994 2.91562L117.911 2.80771ZM115.968 2.44437L117.885 2.33646L117.874 2.14077L115.957 2.24868L115.968 2.44437ZM115.496 3.38837L115.868 3.44357C115.794 3.76424 115.681 4.043 115.53 4.28385L115.192 4.09861C115.339 3.87396 115.438 3.64002 115.496 3.38837ZM117.59 4.21999L116.616 4.27485C116.308 4.29216 116.149 4.16092 116.133 3.88935L116.104 3.37816L116.488 3.35658L116.512 3.7879C116.518 3.88774 116.581 3.93628 116.704 3.92931L117.499 3.88458C117.571 3.88053 117.622 3.86163 117.648 3.8321C117.686 3.79391 117.708 3.6885 117.715 3.51188L118.08 3.60747C118.064 3.88882 118.018 4.0637 117.933 4.12456C117.86 4.17675 117.746 4.21123 117.59 4.21999ZM117.066 3.15979C117.234 3.31055 117.362 3.44358 117.453 3.56266L117.15 3.80008C117.051 3.67345 116.918 3.53266 116.754 3.38168L117.066 3.15979ZM118.316 3.17352C118.551 3.42074 118.731 3.63894 118.858 3.82412L118.555 4.06153C118.419 3.85284 118.242 3.62643 118.02 3.38252L118.316 3.17352ZM122.015 0.485389L122.141 2.71785L121.757 2.73944L121.653 0.878382L119.983 0.972353L120.088 2.8374L119.705 2.85898L119.579 0.622523L122.015 0.485389ZM120.615 1.16515L120.991 1.14402L121.033 1.89083C121.037 2.10694 121.024 2.30398 120.994 2.48994L121.334 2.47083L121.387 3.41334C121.395 3.5611 121.451 3.63406 121.555 3.62821L122.138 3.59539C122.186 3.59269 122.233 3.57003 122.271 3.53184C122.313 3.48943 122.335 3.31989 122.334 3.02346L122.705 3.12282C122.682 3.51268 122.639 3.74346 122.575 3.81917C122.499 3.88757 122.393 3.92958 122.258 3.94521L121.471 3.9895C121.184 4.00568 121.03 3.84205 121.011 3.50259L120.963 2.64794C120.902 2.91579 120.807 3.14551 120.674 3.3453C120.429 3.6956 120.016 3.97525 119.435 4.19224L119.214 3.88421C119.795 3.66723 120.185 3.40889 120.38 3.10943C120.571 2.79422 120.66 2.39655 120.657 1.91196L120.615 1.16515ZM123.375 0.232557L124.307 2.05107L123.585 3.96265L123.258 3.83686L123.923 2.07265L123.064 0.394314L123.375 0.232557ZM124.058 0.194115L124.99 2.01263L124.268 3.92421L123.94 3.79842L124.606 2.03421L123.731 0.356771L124.058 0.194115Z" fill="white"/>
</svg>
