<svg width="80" height="16" viewBox="0 0 80 16" fill="none" xmlns="http://www.w3.org/2000/svg">
<path d="M3.48749 1.9126L3.75284 2.002C4.05546 2.68225 4.46336 3.27556 4.98539 3.7807L4.67078 4.06302C4.1602 3.53641 3.77381 2.94191 3.5116 2.2795C2.9463 2.62931 2.27133 2.86618 1.49298 2.99646L1.41717 2.58258C2.19037 2.48011 2.88174 2.25721 3.48749 1.9126ZM3.20456 2.9527L3.56466 3.07404L3.29133 3.88523L4.29584 4.2237L4.1796 4.56865L3.1751 4.23017L2.8941 5.0641L4.17153 5.49454L4.05402 5.84328L0.877504 4.77292L0.995012 4.42419L1.54086 4.60812L2.0275 3.1639L2.38381 3.28396L1.89717 4.72818L2.53399 4.94276L3.20456 2.9527Z" fill="white"/>
<path d="M6.71223 3.02175L7.07315 3.14065L6.08938 6.12677L6.54528 6.27697L7.52904 3.29084L7.88996 3.40974L6.90619 6.39587L8.01554 6.76134L7.89914 7.11466L4.51031 5.99822L4.62671 5.6449L5.72846 6.00787L6.71223 3.02175ZM8.3676 4.35044L8.65669 4.54675C8.29705 5.15264 7.92315 5.66118 7.53374 6.07618L7.24836 5.85582C7.6063 5.48521 7.98275 4.98171 8.3676 4.35044ZM5.76389 3.48423C5.78993 4.05715 5.7694 4.69474 5.70609 5.39826L5.34803 5.37295C5.41536 4.73393 5.43844 4.10139 5.42362 3.48163L5.76389 3.48423Z" fill="white"/>
<path d="M9.8296 4.05177C10.0188 4.32956 10.1698 4.59531 10.2827 4.84903L9.9415 5.0266C9.8529 4.78893 9.70688 4.52056 9.50202 4.21267L9.8296 4.05177ZM10.9333 8.15808C10.7273 8.0931 10.5035 8.01828 10.2643 7.93865C10.0214 7.85781 9.83027 7.77235 9.6859 7.68486C9.54775 7.59095 9.44694 7.45848 9.37341 7.29267C9.34428 7.21218 9.30813 7.16722 9.26236 7.15278C9.18606 7.12871 8.99458 7.25705 8.69172 7.53899L8.50292 7.2068C8.79113 6.95798 9.02417 6.81759 9.20082 6.78943L9.54139 5.70988L9.02641 5.54742L9.13231 5.21172L9.9868 5.48129L9.5307 6.92706C9.54114 6.94713 9.5554 6.9684 9.56726 6.99731C9.61869 7.12678 9.68617 7.23196 9.76589 7.31163C9.85967 7.39994 10.0129 7.48602 10.2317 7.56345C10.4441 7.63465 10.6947 7.7179 10.9884 7.81056C11.1715 7.86832 11.3635 7.92468 11.5592 7.98224C11.7512 8.0386 11.9023 8.0779 12.0077 8.10277L11.8069 8.43367L10.9333 8.15808ZM10.5271 4.859L10.9467 4.99138L11.1284 4.41536L11.4755 4.52488L11.2938 5.10089L11.8126 5.26456L11.9931 4.69236L12.3441 4.80307L12.1635 5.37528L12.6175 5.51848L12.5104 5.85799L12.0564 5.71478L11.8434 6.38998L12.4195 6.5717L12.3111 6.91502L11.7351 6.7333L11.4078 7.77089L11.0568 7.66018L11.3842 6.62258L10.7776 6.43124C10.5324 6.83623 10.2394 7.1003 9.88973 7.22487L9.76376 6.86636C10.0255 6.78117 10.2465 6.59922 10.4267 6.32052L9.96512 6.17491L10.0734 5.83159L10.6037 5.99886C10.6598 5.87398 10.7096 5.74287 10.7541 5.60173L10.8396 5.33089L10.4199 5.19851L10.5271 4.859ZM11.1867 5.4404L11.1277 5.62732C11.0724 5.80279 11.0104 5.9594 10.947 6.10717L11.4925 6.27926L11.7055 5.60407L11.1867 5.4404Z" fill="white"/>
<path d="M16.1584 6.41525L15.2565 9.46468L14.8845 9.35464L14.9491 9.136L12.8241 8.50752L12.7594 8.72616L12.3912 8.61726L13.2931 5.56783L16.1584 6.41525ZM12.9296 8.1508L15.0546 8.77928L15.6808 6.66194L13.5558 6.03346L12.9296 8.1508Z" fill="white"/>
<path d="M16.9551 6.43957L18.3921 6.82569L18.2977 7.17722L16.8606 6.7911L16.9551 6.43957ZM16.5319 7.44417L18.2509 7.90606L18.1555 8.26146L17.2863 8.02792C17.005 8.51978 16.7815 8.8739 16.6146 9.09415C16.8841 9.10857 17.1637 9.10085 17.4484 9.07382C17.4105 8.86066 17.3693 8.65909 17.3251 8.46911L17.6747 8.40149C17.7652 8.77373 17.8386 9.17866 17.896 9.61241L17.5357 9.68954L17.5016 9.41533C17.0587 9.44541 16.592 9.44015 16.0979 9.3985L16.1025 9.02696C16.1432 9.02961 16.1695 9.02425 16.1881 9.01681C16.3328 8.89418 16.5788 8.53366 16.9309 7.93243L16.4364 7.79957L16.5319 7.44417ZM19.1178 6.7763L19.4809 6.87387L19.2796 7.62329L20.114 7.84749C19.7756 9.10682 19.5476 9.87809 19.434 10.1623C19.3126 10.4445 19.0762 10.5384 18.7246 10.4439C18.6628 10.4273 18.5567 10.3905 18.4043 10.3413L18.4065 9.99394C18.5424 10.0429 18.6601 10.0828 18.7606 10.1098C18.9305 10.1555 19.052 10.0887 19.1327 9.91158C19.2047 9.73624 19.3793 9.13287 19.6631 8.10739L19.1841 7.97868L19.1747 8.01345C18.8642 9.12288 18.3797 9.86249 17.7163 10.2351L17.5074 9.91804C18.0973 9.5878 18.533 8.92205 18.8116 7.91588L18.8209 7.88112L18.3303 7.7493L18.4258 7.3939L18.9164 7.52572L19.1178 6.7763Z" fill="white"/>
<path d="M21.0325 7.30023C21.2634 7.543 21.4524 7.77188 21.5976 7.99467L21.2805 8.19184C21.1569 7.98229 20.9745 7.74263 20.7326 7.47675L21.0325 7.30023ZM20.7312 8.24037C20.9474 8.47561 21.1208 8.70086 21.2552 8.91703L20.9382 9.11419C20.8292 8.91217 20.6576 8.67913 20.4313 8.41688L20.7312 8.24037ZM20.8247 9.42454L21.1229 9.62549C20.8533 10.0596 20.5706 10.4619 20.2717 10.8276L19.9691 10.5928C20.2815 10.222 20.5654 9.8323 20.8247 9.42454ZM21.9811 7.58299L23.886 8.02711L23.6299 9.12565L21.725 8.68153L21.9811 7.58299ZM23.3342 8.7733L23.3705 8.61748L22.1862 8.34138L22.1499 8.49721L23.3342 8.7733ZM22.2453 8.08817L23.4295 8.36427L23.4649 8.21235L22.2807 7.93625L22.2453 8.08817ZM21.4537 8.77027L23.8222 9.32246L23.6297 10.1483L21.2612 9.59612L21.4537 8.77027ZM23.3582 9.79752L23.4245 9.51315L23.0545 9.42687L22.9882 9.71124L23.3582 9.79752ZM22.6765 9.63858L22.7428 9.35421L22.4078 9.2761L22.3415 9.56048L22.6765 9.63858ZM22.0299 9.48782L22.0962 9.20344L21.7222 9.11626L21.6559 9.40063L22.0299 9.48782ZM21.3889 10.1229L21.1786 10.0738L21.2512 9.76219L23.4756 10.2808L23.412 10.5535C23.197 10.7005 22.9533 10.8121 22.683 10.8969C22.9336 11.0375 23.2229 11.1707 23.5509 11.2964L23.2727 11.556C22.8702 11.38 22.5276 11.1934 22.245 10.9961C21.8521 11.0605 21.4186 11.0704 20.9348 11.0315L20.8504 10.6709C21.2188 10.7116 21.5576 10.7208 21.8706 10.6993C21.6669 10.5163 21.5066 10.3228 21.3889 10.1229ZM22.2812 10.6472C22.4959 10.6069 22.6949 10.5465 22.877 10.4698L21.7941 10.2173C21.9235 10.3666 22.083 10.5106 22.2812 10.6472Z" fill="white"/>
<path d="M24.8528 8.36164L27.9508 8.94286L27.8829 9.30455L27.2539 9.18653L27.0769 10.1301L27.9064 10.2857L27.8385 10.6474L27.009 10.4918L26.6896 12.1941L26.3161 12.124L26.6355 10.4217L25.5819 10.224C25.4688 10.6098 25.3329 10.9221 25.1655 11.1634C24.9542 11.4656 24.6546 11.6739 24.2716 11.7852L24.1301 11.433C24.4792 11.3073 24.7397 11.1119 24.9068 10.8503C25.0199 10.6599 25.1167 10.4257 25.2005 10.1525L24.3356 9.9902L24.4035 9.62851L25.2959 9.79594C25.3018 9.76449 25.3117 9.73378 25.3161 9.71019L25.4769 8.85314L24.7849 8.72333L24.8528 8.36164ZM25.8543 8.92395L25.6935 9.781C25.6876 9.81245 25.6785 9.83923 25.6733 9.86675L26.7034 10.06L26.8804 9.11646L25.8543 8.92395Z" fill="white"/>
<path d="M28.4153 10.1088L28.8814 8.99216L29.2498 9.10532L28.9468 9.81176L29.5337 9.8892C29.6478 9.60568 29.7481 9.30421 29.8385 8.98531L30.2169 9.08366C30.128 9.39066 30.0298 9.67627 29.9263 9.941L31.7425 10.1807L31.6949 10.5415L29.7835 10.2893C29.7266 10.4149 29.6667 10.5321 29.6114 10.6459L31.1976 10.8552L31.1558 11.1724C31.0097 11.484 30.7767 11.7518 30.4487 11.9748C30.7281 12.1811 31.0726 12.3839 31.478 12.5827L31.2366 12.914C30.7798 12.6762 30.401 12.4285 30.103 12.1794C29.7609 12.3561 29.3501 12.5036 28.8705 12.6219L28.7193 12.2389C29.1347 12.1484 29.4967 12.0348 29.8007 11.9014C29.5702 11.6612 29.4052 11.4135 29.3092 11.1628C28.9462 11.712 28.5236 12.1323 28.0453 12.4243L27.897 12.0497C28.5081 11.6381 29.0034 11.0337 29.383 10.2365L28.4153 10.1088ZM29.61 10.9927C29.71 11.2439 29.8874 11.4892 30.1428 11.7247C30.4193 11.5554 30.6305 11.3613 30.7719 11.146L29.61 10.9927ZM30.8889 9.12794C31.1353 9.37026 31.3376 9.61079 31.4963 9.84556L31.191 10.0796C31.0596 9.8525 30.8658 9.60905 30.6021 9.34429L30.8889 9.12794Z" fill="white"/>
<path d="M32.9336 10.4349C32.7455 10.7811 32.5224 11.0643 32.2602 11.2842L32.038 10.9496C32.4269 10.5993 32.7107 10.1082 32.8893 9.47639L33.2707 9.5749C33.2163 9.75516 33.1588 9.92313 33.0983 10.0788L33.8399 10.1377L33.8932 9.46786L34.272 9.49795L34.2187 10.1678L35.4987 10.2695L35.4696 10.6364L34.1896 10.5347L34.124 11.3601L35.3242 11.4554L35.2951 11.8223L34.0949 11.7269L34.0227 12.6361L35.5578 12.758L35.528 13.1328L31.9912 12.8519L32.021 12.477L33.6439 12.606L33.7161 11.6968L32.5757 11.6062L32.6048 11.2394L33.7452 11.33L33.8108 10.5046L32.9336 10.4349Z" fill="white"/>
<path d="M38.1579 9.63268C38.2097 9.76244 38.2569 9.90806 38.3077 10.0698L39.6949 10.1151L39.6832 10.4749L39.0115 10.453C38.9657 10.6316 38.904 10.8057 38.8265 10.9712L39.75 11.0014L39.738 11.3692L36.8995 11.2765L36.8819 11.8162C36.8455 12.4393 36.6892 12.9385 36.4049 13.3094L36.1214 13.044C36.3472 12.7472 36.4728 12.3351 36.4981 11.8036L36.5278 10.8961L37.3353 10.9225L37.2125 10.3942L36.5009 10.371L36.5126 10.0112L37.9199 10.0571C37.8722 9.92351 37.8163 9.79761 37.756 9.68358L38.1579 9.63268ZM37.7111 10.9348L38.4627 10.9593C38.5402 10.7938 38.6019 10.6197 38.6477 10.4411L37.5843 10.4064L37.7111 10.9348Z" fill="white"/>
<path d="M40.9246 11.1828L40.9342 11.7947L41.8541 11.7803L41.8445 11.1684L40.9246 11.1828ZM40.9197 12.147C40.8796 12.6516 40.7381 13.0699 40.4953 13.4017L40.1992 13.1463C40.4338 12.7986 40.551 12.3607 40.5508 11.8327L40.5201 9.87292L43.5878 9.82498L43.6348 12.8366C43.6395 13.1366 43.4859 13.291 43.1819 13.2957L42.722 13.3029L42.6162 12.9325C42.7724 12.9421 42.9165 12.9479 43.0524 12.9457C43.1804 12.9437 43.2472 12.8627 43.2447 12.7067L43.2354 12.1108L42.2435 12.1263L42.2614 13.2661L41.8774 13.2721L41.8596 12.1323L40.9197 12.147ZM43.2299 11.7588L43.2204 11.1469L42.2285 11.1624L42.238 11.7743L43.2299 11.7588ZM43.2149 10.7989L43.2055 10.199L42.2137 10.2145L42.223 10.8144L43.2149 10.7989ZM41.8297 10.2205L40.9098 10.2349L40.9192 10.8348L41.8391 10.8204L41.8297 10.2205Z" fill="white"/>
<path d="M44.6251 9.77525L46.8925 9.631L46.9811 11.0242L44.7137 11.1684L44.6251 9.77525ZM46.5791 10.689L46.5361 10.0144L45.0272 10.1104L45.0701 10.785L46.5791 10.689ZM45.6749 11.4079L45.7892 13.2043L45.4219 13.2276L45.4097 13.036L44.6712 13.083L44.6834 13.2746L44.3121 13.2982L44.1979 11.5019L45.6749 11.4079ZM44.6486 12.7277L45.3871 12.6807L45.3305 11.7905L44.592 11.8375L44.6486 12.7277ZM47.5351 11.2895L47.6494 13.0859L47.2702 13.11L47.258 12.9184L46.4875 12.9674L46.4997 13.1591L46.1285 13.1827L46.0142 11.3863L47.5351 11.2895ZM46.4649 12.6122L47.2354 12.5631L47.1787 11.6729L46.4083 11.722L46.4649 12.6122Z" fill="white"/>
<path d="M49.576 10.0763L50.0014 10.0294C49.8709 9.7943 49.7395 9.58745 49.6031 9.40931L49.8931 9.22847C50.0347 9.41809 50.1745 9.62804 50.313 9.86228L50.069 10.022L50.5143 9.97289C50.6206 9.69558 50.7048 9.40058 50.7749 9.08702L51.1507 9.17438C51.0807 9.45172 50.9956 9.70254 50.9 9.93039L51.3294 9.88306L51.4771 11.223L51.0596 11.269L51.1683 12.255C51.177 12.3345 51.2097 12.3752 51.2653 12.369L51.4124 12.3528C51.4522 12.3484 51.4809 12.3171 51.4916 12.2676C51.5093 12.2094 51.5072 12.0446 51.485 11.7694L51.8264 11.8364C51.8454 12.2287 51.8271 12.4641 51.7723 12.5506C51.7205 12.6287 51.633 12.6746 51.5137 12.6877L51.1917 12.7232C50.977 12.7469 50.8552 12.6275 50.8267 12.3691L50.7097 11.3075L50.4274 11.3386C50.4648 12.0428 50.2744 12.5789 49.8597 12.9425L49.6245 12.6344C49.9525 12.3608 50.1035 11.9417 50.0775 11.3772L49.7237 11.4162L49.576 10.0763ZM51.0983 10.9267L51.0243 10.2547L49.9587 10.3722L50.0328 11.0441L51.0983 10.9267ZM48.0575 10.465L48.5982 10.4054L48.5447 9.92033C48.3883 9.96171 48.2315 9.99912 48.0702 10.033L47.9561 9.69143C48.4288 9.59909 48.8455 9.47269 49.2065 9.3162L49.3763 9.65162C49.2256 9.70847 49.067 9.76619 48.9039 9.82038L48.964 10.3651L49.4212 10.3147L49.4611 10.6765L49.0038 10.7269L49.0266 10.9336C49.2257 11.0968 49.4314 11.2834 49.6437 11.4934L49.468 11.8347C49.3122 11.6265 49.1812 11.4599 49.07 11.3273L49.2501 12.9614L48.8843 13.0017L48.7073 11.3954C48.6155 11.7315 48.4889 12.0432 48.3279 12.3346L48.1087 11.9161C48.356 11.5669 48.5228 11.1823 48.6062 10.7707L48.0973 10.8268L48.0575 10.465Z" fill="white"/>
<path d="M52.4019 11.8534L52.2435 11.5536C52.3032 11.5204 52.3329 11.4754 52.3251 11.424L52.0073 9.3118L52.3752 9.25644L52.6906 11.3528C52.849 11.2764 53.0028 11.1966 53.1555 11.109L52.8162 8.85434L53.1841 8.79898L53.6763 12.0702C54.0393 11.8214 54.3183 11.5246 54.5104 11.1882C54.2743 10.9366 54.0669 10.6603 53.8887 10.3635C53.837 10.4765 53.7795 10.5782 53.7214 10.6759L53.4491 10.4257C53.6997 9.96727 53.8299 9.38136 53.8359 8.66854L54.2212 8.67528C54.217 8.86199 54.2036 9.04199 54.1884 9.21011L55.4384 9.02203L55.4937 9.38989L55.1812 9.43691C55.2425 10.0587 55.1685 10.6159 54.9674 11.1073C55.2591 11.3789 55.5935 11.6118 55.9626 11.807L55.7513 12.1503C55.3901 11.9539 55.0682 11.7232 54.7862 11.4622C54.5755 11.8095 54.2905 12.1193 53.9271 12.3924L53.6811 12.1018L53.7263 12.4024L53.3585 12.4578L53.2097 11.4689C52.955 11.6043 52.6833 11.7342 52.4019 11.8534ZM54.1291 9.59523C54.1062 9.71194 54.0782 9.82133 54.0462 9.93131C54.2251 10.2603 54.4395 10.5557 54.6813 10.8187C54.8243 10.425 54.8708 9.98117 54.8253 9.49048L54.1291 9.59523Z" fill="white"/>
<path d="M55.7794 8.71553L57.4722 8.4104L57.5382 8.7765L56.9674 8.8794L57.1036 9.63522L57.5169 9.56071L57.5595 9.7969C57.7309 9.28233 57.8027 8.68818 57.7779 8.00981L58.1519 7.98711C58.1558 8.18962 58.1505 8.38567 58.1399 8.57456L59.2972 8.36594L59.3632 8.73204L59.1034 8.77887C59.1854 9.41439 59.1356 9.97209 58.946 10.4534C59.2325 10.735 59.5456 10.9387 59.8813 11.0651L59.7255 11.4184C59.3851 11.2887 59.0674 11.0818 58.7809 10.8001C58.5707 11.1673 58.2704 11.4856 57.8879 11.7537L57.6042 11.4878C58.0189 11.2179 58.3256 10.8903 58.518 10.5142C58.3148 10.2664 58.1295 9.98273 57.9583 9.66405C57.9079 9.83571 57.849 10.0048 57.7801 10.1636L57.5218 9.92564L57.1675 9.98951L57.3307 10.8949C57.5097 10.8057 57.6801 10.7141 57.8427 10.6238L57.9051 10.9702C57.4561 11.23 56.9255 11.4882 56.314 11.7488L56.1499 11.4248C56.2258 11.3948 56.2971 11.3617 56.373 11.3317L56.0494 9.53667L56.3997 9.47351L56.7084 11.1859C56.8065 11.1438 56.8967 11.1032 56.987 11.0625L56.6052 8.94468L55.8454 9.08163L55.7794 8.71553ZM58.6663 10.142C58.7828 9.75117 58.8067 9.32009 58.7373 8.84486L58.0996 8.95982C58.088 9.031 58.0804 9.10146 58.0681 9.16871C58.2493 9.54249 58.4463 9.86872 58.6663 10.142Z" fill="white"/>
<path d="M59.7468 8.83967L61.3007 8.5324L61.2542 8.29696L61.5995 8.22868L61.3644 8.13246C61.4874 7.84718 61.5562 7.5563 61.5702 7.25588L61.9468 7.26297C61.9403 7.35395 61.9299 7.44571 61.9179 7.52963L63.0441 7.30693L63.1093 7.63655L62.4422 7.76846C62.5448 7.87458 62.6301 7.97597 62.7012 8.0679L62.4004 8.25787C62.2987 8.11488 62.1853 7.97421 62.0616 7.84372L61.8497 7.88562C61.8118 8.02361 61.7675 8.1506 61.7186 8.27444L61.6348 8.24209L61.6774 8.45791L63.2314 8.15064L63.2981 8.4881L61.7442 8.79538L61.7892 9.02297L63.0763 8.76846L63.2268 9.52972C63.2702 9.74947 63.1743 9.88262 62.9388 9.92917L62.672 9.98194L62.5126 9.67094L62.7716 9.64013C62.8304 9.62849 62.8548 9.58696 62.8424 9.52418L62.7718 9.16709L61.8536 9.34866L61.9164 9.66651C62.4053 9.95312 63.0074 10.1317 63.7321 10.2086L63.6034 10.5888C63.0043 10.4871 62.4658 10.3 61.9863 10.0197L62.1702 10.9497L61.7935 11.0242L61.6119 10.1059C61.2924 10.5524 60.9017 10.9273 60.4484 11.233L60.1588 10.9437C60.7212 10.6123 61.1834 10.207 61.5382 9.73315L61.4769 9.42315L60.6214 9.59231L60.7697 10.3418L60.4047 10.414L60.1921 9.33878L61.4125 9.09746L61.3675 8.86987L59.8136 9.17714L59.7468 8.83967ZM60.1977 8.21229C60.1385 8.36671 60.0739 8.51404 59.9951 8.65194L59.6338 8.51544C59.8251 8.20442 59.9419 7.88775 59.9842 7.56543L60.3568 7.5733C60.3432 7.66976 60.325 7.76307 60.3052 7.84854L61.243 7.66309L61.3082 7.9927L60.7314 8.10677C60.8339 8.21289 60.927 8.31272 61.0029 8.40781L60.6895 8.59618C60.5878 8.45319 60.4705 8.3133 60.3468 8.18281L60.1977 8.21229Z" fill="white"/>
<path d="M65.0178 7.27245L65.5696 10.0012L65.2129 10.0734L65.1716 9.86949L64.5522 9.99477L64.6164 10.3123L64.2596 10.3845L63.6848 7.54205L64.0572 7.46672C64.085 7.24073 64.0963 7.014 64.0816 6.78026L64.4644 6.7559C64.4688 6.97946 64.4504 7.19131 64.414 7.39456L65.0178 7.27245ZM64.4824 9.64976L65.1019 9.52447L64.9457 8.75211L64.3262 8.87739L64.4824 9.64976ZM64.2588 8.54414L64.8783 8.41886L64.7324 7.69747L64.1129 7.82275L64.2588 8.54414ZM65.9138 8.07068C66.2376 8.33984 66.4938 8.57776 66.6802 8.79309L66.4282 9.06035C66.2269 8.83172 65.9651 8.58675 65.65 8.31992L65.9138 8.07068ZM67.0416 6.86723C67.3152 8.21984 67.4645 9.0589 67.4887 9.38048C67.5066 9.67069 67.3469 9.84989 67.0137 9.91729C66.9353 9.93315 66.7925 9.95386 66.5941 9.98174L66.435 9.65888C66.6091 9.63184 66.7596 9.60955 66.8851 9.58417C67.0419 9.55246 67.1154 9.45188 67.1057 9.28246C67.0895 9.08167 66.9681 8.42063 66.7499 7.30167L65.7659 7.50069C65.7037 7.75813 65.6218 7.99914 65.5125 8.2253L65.2295 7.97645C65.4122 7.54774 65.4997 7.05255 65.4844 6.49247L65.8625 6.46498C65.8677 6.69247 65.854 6.90744 65.8301 7.11224L67.0416 6.86723Z" fill="white"/>
<path d="M67.7632 6.08467C68.0707 6.24078 68.335 6.40529 68.5554 6.57429L68.3428 6.88465C68.1475 6.71891 67.8863 6.54971 67.5554 6.3778L67.7632 6.08467ZM70.7058 9.16301C70.4899 9.20506 70.2535 9.247 70.0015 9.292C69.7455 9.33777 69.5328 9.35473 69.3603 9.34758C69.194 9.33105 69.0383 9.26357 68.8945 9.15302C68.8265 9.09697 68.7733 9.07474 68.7262 9.08391C68.6437 9.09997 68.5368 9.30417 68.4054 9.69652L68.0808 9.49483C68.2152 9.13858 68.3529 8.90394 68.4947 8.79483L68.2783 7.6837L67.7522 7.78614L67.6849 7.44063L68.5605 7.27015L68.8495 8.75427C68.8721 8.76616 68.8956 8.78196 68.9198 8.8017C69.0308 8.89012 69.1403 8.9503 69.2484 8.98223C69.3769 9.01426 69.5565 9.01596 69.7897 8.97871C70.0142 8.93906 70.2781 8.89176 70.5843 8.83213C70.7767 8.79467 70.9723 8.75251 71.1678 8.71036C71.3633 8.66821 71.5149 8.63054 71.6194 8.60205L71.601 8.9887L70.7058 9.16301ZM69.4172 6.16604L68.6595 6.31359L68.5991 6.00342L70.7546 5.5837L70.8058 5.84676C70.6163 6.08741 70.405 6.29972 70.1734 6.49152C70.1828 6.49784 70.1914 6.50024 70.2008 6.50656L70.9899 6.3529L71.3294 8.09616C71.3745 8.3278 71.2679 8.47082 71.0127 8.52051L70.7103 8.57938L70.5714 8.2845L70.8532 8.24592C70.9396 8.2291 70.9783 8.17674 70.9615 8.09036L70.9225 7.89012L70.3571 8.00021L70.4825 8.64412L70.1409 8.71063L70.0155 8.06673L69.4619 8.17452L69.5888 8.82628L69.2355 8.89509L68.8226 6.77491L69.7257 6.59907C69.5793 6.53792 69.4164 6.4759 69.2387 6.42087L69.4172 6.16604ZM69.9113 6.35918C70.0601 6.24462 70.1949 6.12057 70.3164 5.99097L69.4369 6.16222C69.6044 6.2274 69.7633 6.29018 69.9113 6.35918ZM69.3496 7.59736L69.4031 7.8722L69.9567 7.7644L69.9032 7.48957L69.3496 7.59736ZM70.2447 7.42305L70.2983 7.69789L70.8636 7.5878L70.8101 7.31296L70.2447 7.42305ZM70.7505 7.00671L70.697 6.73188L70.1316 6.84197L70.1851 7.1168L70.7505 7.00671ZM69.8435 7.18332L69.79 6.90848L69.2364 7.01628L69.2899 7.29111L69.8435 7.18332Z" fill="white"/>
<path d="M74.9565 5.10232L75.5021 8.17424L75.1398 8.23859L75.0999 8.01411L74.4107 8.13652L74.4513 8.36494L74.0889 8.4293L73.5426 5.35343L74.9565 5.10232ZM74.3485 7.786L75.0377 7.66359L74.6564 5.51718L73.9672 5.63959L74.3485 7.786ZM72.212 6.07321C72.1564 6.28622 72.0862 6.48557 72.0053 6.67057L71.6413 6.51989C71.8276 6.10492 71.9382 5.67497 71.9689 5.23074L72.3531 5.24375C72.3403 5.40041 72.3176 5.54664 72.2941 5.68894L73.3693 5.49798L73.4329 5.85637L72.8973 5.9515C72.9328 6.19708 72.9615 6.4276 72.975 6.64053L73.5894 6.53141L73.653 6.88981L72.9874 7.00802C72.9871 7.09746 72.9828 7.1876 72.981 7.26917C73.2646 7.47068 73.5571 7.69906 73.8623 7.95361L73.6954 8.34075C73.3897 8.03754 73.1366 7.80217 72.9362 7.63463C72.8443 8.07754 72.6269 8.47771 72.2755 8.83262L71.9782 8.57668C72.3339 8.20068 72.536 7.7829 72.5876 7.31872C72.5901 7.2411 72.5958 7.15883 72.5975 7.07727L71.8217 7.21507L71.758 6.85667L72.589 6.70908C72.5756 6.49615 72.5468 6.26563 72.5113 6.02005L72.212 6.07321Z" fill="white"/>
<path d="M75.6855 4.55542L76.7889 6.27511L76.2558 8.24763L75.9176 8.15417L76.4094 6.33374L75.3912 4.74659L75.6855 4.55542ZM76.3614 4.451L77.4649 6.17068L76.9318 8.1432L76.5936 8.04974L77.0854 6.22931L76.0514 4.6446L76.3614 4.451Z" fill="white"/>
</svg>
