<svg width="120" height="22" viewBox="0 0 120 22" fill="none" xmlns="http://www.w3.org/2000/svg">
<path d="M2.88553 10.5187C2.89793 10.7134 2.8895 10.9384 2.86395 11.1954L3.19433 11.328C3.36089 11.1707 3.52451 10.9993 3.67774 10.8108L3.956 11.0518C3.81469 11.2106 3.67711 11.3494 3.53956 11.4666L3.94048 11.6275L3.8049 11.9653L1.93767 11.2159L2.07325 10.878L2.53356 11.0628C2.54121 10.8719 2.53846 10.6855 2.5201 10.5057L2.88553 10.5187ZM4.57691 10.4605L5.86504 10.9775L5.75777 11.2448C5.49072 11.5773 5.22297 11.8793 4.95822 12.1523C5.09585 12.6041 5.12517 12.9391 5.04247 13.1559C4.94116 13.4083 4.81916 13.5619 4.68391 13.6197C4.54123 13.6745 4.30878 13.6416 3.99696 13.5164L4.03458 13.1005C4.16226 13.169 4.27064 13.2211 4.36345 13.2584C4.4466 13.2874 4.51123 13.2875 4.55138 13.2519C4.58855 13.2237 4.63395 13.1428 4.68981 13.0144C4.77102 12.8013 4.73428 12.4633 4.58329 12.0018C4.81753 11.7726 5.07041 11.4862 5.34415 11.1478L4.78732 10.9243L3.5969 13.8903L3.25538 13.7532L4.57691 10.4605ZM2.55201 9.88922L3.23505 10.1634C3.24114 10.0408 3.24424 9.92568 3.24288 9.82169L3.6268 9.90681C3.617 10.0279 3.60273 10.1601 3.58028 10.3019L4.3153 10.5969L4.17972 10.9347L2.41643 10.227L2.55201 9.88922ZM3.54765 12.1767L2.96361 13.6318L2.61095 13.4903L2.68843 13.2973L1.86433 12.9665L1.78685 13.1595L1.44162 13.021L2.02566 11.5658L3.54765 12.1767ZM1.99842 12.6324L2.82252 12.9632L3.0609 12.3692L2.2368 12.0385L1.99842 12.6324Z" fill="white"/>
<path d="M6.17285 12.1844L7.26398 12.5781L7.33322 12.3862L7.6869 12.5139L7.61766 12.7058L8.69375 13.094L8.58107 13.4063L7.50498 13.0181L7.4018 13.304L8.90682 13.8471L8.79549 14.1556L8.09942 13.9044L7.99352 14.1979L8.5278 14.3907L8.41512 14.703L7.88084 14.5102L7.69484 15.0257C7.6093 15.2627 7.43417 15.3356 7.17832 15.2433L6.6478 15.0518L6.69097 14.6847C6.85862 14.7622 7.01634 14.8319 7.16684 14.8862C7.27219 14.9242 7.34116 14.898 7.37103 14.8153L7.52716 14.3826L5.43142 13.6264L5.5441 13.3141L7.63984 14.0703L7.74574 13.7768L5.42801 12.9405L5.53934 12.632L7.04812 13.1764L7.1513 12.8904L6.06016 12.4967L6.17285 12.1844ZM6.09448 13.9337C6.21713 14.1948 6.30277 14.4171 6.35517 14.6018L6.00751 14.6932C5.95165 14.4945 5.8636 14.2671 5.73959 14.0097L6.09448 13.9337ZM6.55135 11.7129C6.40508 11.8472 6.25159 11.9662 6.09088 12.0698L5.85295 11.7628C6.16622 11.5782 6.42095 11.3554 6.62362 11.0884L6.9351 11.2858C6.88809 11.3454 6.83731 11.4036 6.7903 11.4632L7.68955 11.7877L7.58229 12.0849L7.00286 11.8758C7.04491 12.0186 7.07598 12.1446 7.09335 12.2614L6.72633 12.2651C6.70915 12.0888 6.67556 11.9108 6.62661 11.7401L6.55135 11.7129ZM8.08302 12.2528C7.97938 12.3515 7.87228 12.4362 7.76413 12.512L7.53718 12.2217C7.77531 12.0567 7.97748 11.8618 8.13753 11.6304L8.4466 11.8227C8.39958 11.8823 8.35633 11.9432 8.31068 11.999L9.33785 12.3697L9.2306 12.6669L8.62483 12.4483C8.67064 12.5924 8.69899 12.726 8.71261 12.8415L8.36199 12.8468C8.34105 12.6691 8.3061 12.4949 8.25986 12.3166L8.08302 12.2528Z" fill="white"/>
<path d="M10.085 13.213C10.1126 13.406 10.1218 13.631 10.1164 13.8892L10.4562 13.9956C10.6099 13.8257 10.7596 13.6421 10.8976 13.4422L11.1939 13.6606C11.0654 13.83 10.9391 13.9791 10.8112 14.1067L11.2235 14.2357L11.1147 14.5831L9.19458 13.9821L9.30331 13.6347L9.77666 13.7829C9.76935 13.592 9.75201 13.4063 9.71964 13.2286L10.085 13.213ZM11.7666 13.0226L13.0912 13.4371L13.0052 13.712C12.765 14.0643 12.5217 14.3864 12.2792 14.6793C12.4517 15.1189 12.5072 15.4506 12.4417 15.6732C12.3605 15.9328 12.2509 16.0955 12.1205 16.1637C11.9826 16.2295 11.7483 16.2148 11.4276 16.1145L11.4326 15.6969C11.5652 15.7552 11.6774 15.7986 11.7728 15.8285C11.858 15.851 11.9224 15.846 11.9596 15.8073C11.9945 15.7763 12.0334 15.6921 12.0791 15.5597C12.1433 15.3409 12.0802 15.0068 11.8936 14.5586C12.1092 14.3117 12.3389 14.0064 12.5853 13.6476L12.0127 13.4684L11.0581 16.5185L10.7069 16.4086L11.7666 13.0226ZM9.7032 12.6115L10.4056 12.8313C10.4021 12.7087 10.3962 12.5936 10.3867 12.4901L10.7761 12.5449C10.7758 12.6664 10.7719 12.7993 10.7606 12.9424L11.5165 13.179L11.4077 13.5264L9.59448 12.9589L9.7032 12.6115ZM10.8748 14.814L10.4065 16.3104L10.0438 16.1969L10.106 15.9984L9.25849 15.7332L9.19636 15.9317L8.84134 15.8205L9.30969 14.3241L10.8748 14.814ZM9.36602 15.3896L10.2135 15.6548L10.4046 15.044L9.55718 14.7788L9.36602 15.3896Z" fill="white"/>
<path d="M15.4821 17.7186L15.1646 17.6362L15.1611 17.2675L15.4959 17.3627C15.5966 17.3888 15.6689 17.3332 15.704 17.1977L16.3501 14.7082L14.8944 14.3303L14.9828 13.9896L16.7948 14.4599L16.0341 17.3908C15.9577 17.685 15.7724 17.794 15.4821 17.7186ZM13.4896 14.1063L13.8458 14.1987L13.0842 17.1335L12.728 17.041L13.4896 14.1063ZM14.3131 13.5927C14.4369 13.8479 14.5353 14.1214 14.6065 14.4044L14.2322 14.4932C14.1554 14.184 14.058 13.9066 13.9419 13.6534L14.3131 13.5927Z" fill="white"/>
<path d="M18.2372 14.6142C18.346 14.8406 18.4469 15.0858 18.5359 15.349L18.2681 15.4207L19.0792 15.5868C19.266 15.3924 19.446 15.1516 19.6183 14.8684L19.9627 15.041C19.8235 15.2819 19.6665 15.4907 19.4985 15.6727L20.2431 15.8251L20.1693 16.1857L18.8918 15.9241L18.8669 16.0456C18.8206 16.2321 18.7657 16.4005 18.7053 16.5555L20.265 16.8749L20.1912 17.2354L18.8196 16.9546C18.9145 17.468 19.3282 17.9406 20.0596 18.3762L19.768 18.6839C19.0141 18.1784 18.5843 17.625 18.4702 17.0259C18.3619 17.1957 18.242 17.3426 18.1113 17.4628C17.7726 17.7609 17.2822 17.9422 16.6402 18.0068L16.5031 17.6398C17.1467 17.5674 17.6048 17.404 17.8813 17.1503C17.979 17.0519 18.0674 16.9394 18.1456 16.8165L16.8054 16.5421L16.8792 16.1816L18.3213 16.4769C18.3863 16.3187 18.4452 16.1511 18.4907 15.9685L18.5156 15.8471L17.2342 15.5847L17.308 15.2242L18.1466 15.3959C18.0638 15.1421 17.9676 14.9142 17.8626 14.7089L18.2372 14.6142Z" fill="white"/>
<path d="M21.3714 15.3541L24.3668 15.7975L24.3123 16.1655L23.0501 15.9787L22.9071 16.9441L24.4463 17.172L24.3907 17.5479L22.8515 17.32L22.6517 18.6693C22.6107 18.9463 22.4432 19.0671 22.1543 19.0243L21.5252 18.9312L21.5 18.5554C21.7 18.5972 21.8927 18.6338 22.0747 18.6607C22.2014 18.6795 22.2735 18.6295 22.2899 18.5187L22.4756 17.2644L20.8691 17.0265L20.9247 16.6506L22.5312 16.8885L22.6742 15.923L21.3169 15.7221L21.3714 15.3541Z" fill="white"/>
<path d="M26.7842 17.7643L26.743 18.2064L27.3603 18.264L27.4016 17.8219L26.7842 17.7643ZM26.7103 18.5569L26.6642 19.0507L27.2816 19.1083L27.3276 18.6145L26.7103 18.5569ZM26.6304 19.4131L26.6137 19.5924L26.2393 19.5574L26.4452 17.351C26.3547 17.4591 26.2567 17.5624 26.1547 17.6654L26.0644 17.2552C26.4184 16.8624 26.6842 16.4252 26.8585 15.9353L27.2182 16.0412C27.1438 16.2351 27.0583 16.4199 26.9616 16.5957L27.5709 16.6526C27.525 16.4555 27.4712 16.2576 27.4086 16.067L27.7799 16.0052C27.8449 16.2563 27.8962 16.482 27.9254 16.6856L28.5347 16.7425L28.5009 17.1049L27.8517 17.0443L27.809 17.5024L28.3785 17.5555L28.3455 17.9099L27.7759 17.8568L27.7347 18.2989L28.3042 18.352L28.2715 18.7025L27.702 18.6494L27.6559 19.1432L28.3489 19.2079L28.3151 19.5703L26.6304 19.4131ZM27.4774 17.0094L26.86 16.9518L26.8173 17.4098L27.4346 17.4674L27.4774 17.0094ZM26.1117 17.4806L26.0757 17.8669C25.9593 17.9083 25.8394 17.9453 25.7234 17.9827L25.6223 19.066C25.5982 19.3249 25.4505 19.4437 25.1837 19.4188L24.8252 19.3853L24.7758 19.0111C24.8818 19.0371 24.9846 19.0547 25.0842 19.064C25.1877 19.0737 25.244 19.0307 25.2529 18.9351L25.3316 18.0908C25.1755 18.1284 25.0157 18.1618 24.8603 18.1914L24.8003 17.8002C24.9912 17.7778 25.1789 17.7471 25.3673 17.7085L25.4453 16.8721L24.9674 16.8275L25.0016 16.4611L25.4795 16.5057L25.5449 15.8047L25.9233 15.84L25.8579 16.541L26.2283 16.5755L26.1941 16.9419L25.8237 16.9074L25.7587 17.6044C25.8786 17.5673 25.995 17.526 26.1117 17.4806Z" fill="white"/>
<path d="M29.1292 16.3716L30.6159 16.4333L30.6008 16.797L29.1141 16.7353L29.1292 16.3716ZM28.9365 17.4446L30.715 17.5184L30.6997 17.8861L29.8005 17.8487C29.6339 18.3903 29.4934 18.7848 29.3789 19.0363C29.645 18.9913 29.9161 18.9225 30.188 18.8337C30.1042 18.634 30.0199 18.4464 29.9351 18.2707L30.2613 18.1281C30.4312 18.4714 30.5917 18.8504 30.7428 19.261L30.4081 19.4153L30.3148 19.1552C29.8892 19.2817 29.4328 19.3788 28.9415 19.4465L28.8645 19.083C28.9048 19.0767 28.9293 19.0657 28.9458 19.0543C29.0602 18.903 29.2211 18.4973 29.4328 17.8335L28.9213 17.8123L28.9365 17.4446ZM31.3131 16.2261L31.6888 16.2416L31.6566 17.017L32.5198 17.0528C32.4658 18.3557 32.4125 19.1582 32.3639 19.4604C32.3073 19.7623 32.0972 19.9057 31.7335 19.8906C31.6696 19.888 31.558 19.8754 31.3985 19.8607L31.3245 19.5214C31.4678 19.5393 31.5914 19.5525 31.6953 19.5568C31.8712 19.5641 31.9751 19.4723 32.015 19.2818C32.0468 19.0949 32.0848 18.468 32.1369 17.4052L31.6413 17.3847L31.6398 17.4206C31.5801 18.5711 31.2695 19.399 30.7039 19.908L30.4306 19.6444C30.9338 19.1929 31.2129 18.4478 31.2642 17.405L31.2657 17.3691L30.7581 17.348L30.7733 16.9803L31.2809 17.0014L31.3131 16.2261Z" fill="white"/>
<path d="M33.0623 16.917L34.6743 16.9185C34.5705 16.7264 34.4427 16.5463 34.2909 16.3741L34.671 16.2345C34.8148 16.4266 34.9506 16.6548 35.0743 16.9189L36.5903 16.9203L36.59 17.2963L35.978 17.2957C35.7854 17.9036 35.5009 18.4113 35.1245 18.8229C35.5402 19.1633 36.0599 19.4478 36.6757 19.6724L36.4634 19.9922C35.8196 19.7516 35.2839 19.4511 34.8603 19.0907C34.4079 19.4902 33.8516 19.7857 33.1914 19.9771L32.9877 19.6409C33.6359 19.4735 34.1681 19.21 34.5925 18.8464C34.1529 18.406 33.8454 17.8857 33.674 17.2935L33.062 17.293L33.0623 16.917ZM34.038 17.2939C34.2055 17.7861 34.4771 18.2183 34.8567 18.5867C35.1811 18.231 35.4255 17.7992 35.586 17.2954L34.038 17.2939Z" fill="white"/>
<path d="M38.1425 16.196L38.5039 16.3519C38.3791 16.6843 38.2137 17.002 38.0076 17.3011L38.0965 19.9356L37.7207 19.9483L37.6468 17.7575C37.4886 17.931 37.3182 18.1008 37.1356 18.2631L37.0023 17.8713C37.5262 17.3854 37.9076 16.8282 38.1425 16.196ZM40.1649 19.7938L39.4173 19.819C39.0975 19.8298 38.9322 19.6753 38.9214 19.3555L38.8837 18.2361C38.7423 18.3169 38.5969 18.3979 38.4475 18.475L38.2634 18.121C38.4761 18.0177 38.6806 17.9108 38.8687 17.7924L38.8162 16.2373L39.196 16.2245L39.2405 17.5437C39.6235 17.2707 39.9614 16.9631 40.246 16.6213L40.52 16.9122C40.1534 17.3168 39.7335 17.6832 39.256 18.0035L39.2994 19.2907C39.3032 19.4027 39.3651 19.4566 39.493 19.4523L40.0887 19.4322C40.1806 19.4291 40.2475 19.3948 40.2894 19.3334C40.3274 19.2721 40.3482 19.0592 40.3438 18.6912L40.6995 18.7953C40.687 19.2559 40.6445 19.5375 40.5758 19.6359C40.5031 19.7344 40.3648 19.7871 40.1649 19.7938Z" fill="white"/>
<path d="M40.6099 16.7958L42.2186 16.6926C42.1026 16.5077 41.9633 16.3362 41.8006 16.1743L42.1709 16.0103C42.3268 16.1927 42.4772 16.4115 42.6178 16.667L44.1307 16.57L44.1548 16.9452L43.544 16.9844C43.3913 17.6034 43.1404 18.1286 42.7916 18.5638C43.2285 18.8765 43.7656 19.1266 44.3947 19.3107L44.2036 19.6436C43.5456 19.4453 42.9914 19.1803 42.5453 18.8481C42.1198 19.2762 41.5839 19.6072 40.9375 19.8411L40.7124 19.5188C41.3484 19.3097 41.8624 19.0122 42.2622 18.6218C41.7949 18.2109 41.4543 17.7116 41.2447 17.1319L40.634 17.171L40.6099 16.7958ZM41.608 17.1086C41.8072 17.5888 42.1062 18.0025 42.509 18.3454C42.8096 17.9694 43.0254 17.5227 43.1528 17.0095L41.608 17.1086Z" fill="white"/>
<path d="M46.2456 15.7288L46.6126 15.7868C46.5907 15.9817 46.5633 16.161 46.5305 16.3248L48.0478 16.1824C48.1764 17.5524 48.2357 18.3986 48.2257 18.7209C48.2101 19.0679 48.0031 19.26 47.6009 19.2978C47.5451 19.303 47.4448 19.3044 47.3007 19.3099L47.1813 18.9796C47.3099 18.9796 47.4182 18.9775 47.5137 18.9685C47.7328 18.9479 47.8494 18.8205 47.8596 18.5865C47.8648 18.3851 47.8183 17.7186 47.7198 16.5828L47.5406 16.5996C47.5135 17.253 47.4462 17.7776 47.3304 18.1701C47.1868 18.6095 46.9471 19.0096 46.6201 19.3778L46.3571 19.1011C46.656 18.7758 46.8679 18.4224 47.0008 18.0403C47.1117 17.6804 47.1802 17.212 47.1981 16.6318L46.9671 16.6534C46.8838 17.521 46.6434 18.1703 46.2419 18.6017L45.9725 18.3417C46.3314 17.9706 46.5528 17.4195 46.6326 16.6848L46.4334 16.7035C46.3523 16.9522 46.2559 17.1661 46.1394 17.3377L45.8386 17.1289C46.06 16.7908 46.1969 16.3239 46.2456 15.7288ZM44.9858 17.0322C44.9719 17.2263 44.9453 17.4136 44.9143 17.5973L44.5751 17.5367C44.655 17.1034 44.6812 16.655 44.6538 16.1915L44.9906 16.184C44.9976 16.3441 45.0006 16.5045 44.9992 16.6613L45.2063 16.6419L45.1316 15.8454L45.498 15.811L45.5727 16.6075L45.8634 16.5802L45.8978 16.9466L45.6071 16.9739L45.6859 17.8142C45.7774 17.7614 45.8649 17.709 45.9484 17.657L45.982 18.0154C45.8945 18.0678 45.807 18.1202 45.7192 18.1686L45.8425 19.4829L45.4761 19.5172L45.3666 18.3504C45.1862 18.4396 45.001 18.5213 44.8114 18.5993L44.6894 18.2411C44.908 18.1724 45.1254 18.0918 45.3334 17.9959L45.2407 17.0083L44.9858 17.0322Z" fill="white"/>
<path d="M48.8889 16.0802L49.6911 15.9833C49.5592 15.826 49.4254 15.685 49.2859 15.5649L49.5814 15.376C49.7342 15.5067 49.881 15.6541 50.0222 15.8224L49.7983 15.9703L50.6005 15.8734C50.7035 15.6594 50.7853 15.436 50.8498 15.2026L51.231 15.2895C51.1657 15.4827 51.0865 15.6615 50.9936 15.8258L51.7163 15.7385L51.9222 17.4421L50.6952 17.5904L50.7331 17.9041L52.3215 17.7121L52.3647 18.0695L50.7763 18.2615L50.8622 18.9723L50.4889 19.0175L50.403 18.3066L48.8145 18.4986L48.7714 18.1412L50.3598 17.9492L50.3219 17.6355L49.0948 17.7838L48.8889 16.0802ZM51.5166 17.1527L51.4724 16.7873L50.6107 16.8915L50.6548 17.2568L51.5166 17.1527ZM50.2816 17.3019L50.2374 16.9366L49.3757 17.0408L49.4198 17.4061L50.2816 17.3019ZM49.3373 16.7231L50.199 16.6189L50.1558 16.2615L49.2941 16.3657L49.3373 16.7231ZM50.5291 16.2164L50.5723 16.5738L51.434 16.4697L51.3908 16.1123L50.5291 16.2164Z" fill="white"/>
<path d="M53.2149 14.8995L53.5907 15.0107C53.5355 15.3259 53.4507 15.6332 53.3321 15.9294L53.7194 18.5974L53.3473 18.6514L53.0399 16.5336C52.9424 16.6973 52.8403 16.8577 52.7293 17.0112L52.5485 16.6292C52.8856 16.1114 53.1094 15.5373 53.2149 14.8995ZM53.5845 15.4966L54.6058 15.3483C54.5228 15.1664 54.4381 15.0008 54.3467 14.8443L54.7333 14.7235C54.814 14.8896 54.8982 15.0795 54.9819 15.2937L55.9913 15.1472L56.0436 15.5074L53.6368 15.8568L53.5845 15.4966ZM53.8827 18.024L55.2286 17.8286C55.3467 17.2779 55.4227 16.604 55.4525 15.8074L55.826 15.8462C55.7965 16.5618 55.7239 17.2029 55.6126 17.7728L56.4597 17.6498L56.5132 18.018L53.9362 18.3921L53.8827 18.024ZM54.2227 16.0224C54.4455 16.4993 54.6595 17.0543 54.8725 17.6863L54.5374 17.8279C54.3488 17.253 54.132 16.7065 53.8904 16.1838L54.2227 16.0224Z" fill="white"/>
<path d="M56.4933 15.1037L58.0833 14.8385C57.9492 14.6662 57.7933 14.5098 57.6151 14.3651L57.9669 14.1645C58.1405 14.3302 58.3122 14.5327 58.4779 14.7727L59.9732 14.5233L60.0351 14.8942L59.4314 14.9949C59.3421 15.6262 59.1455 16.174 58.8424 16.6422C59.3087 16.9092 59.8683 17.1037 60.5128 17.2234L60.3563 17.5739C59.6816 17.4431 59.1035 17.2353 58.6261 16.95C58.2461 17.4189 57.7463 17.8023 57.1269 18.1003L56.8704 17.8024C57.4819 17.5301 57.9633 17.1822 58.3216 16.7534C57.8152 16.3918 57.4259 15.9295 57.1588 15.3739L56.5552 15.4746L56.4933 15.1037ZM57.5179 15.314C57.7645 15.7717 58.1039 16.1531 58.5392 16.4535C58.8003 16.0491 58.9699 15.5828 59.0448 15.0594L57.5179 15.314Z" fill="white"/>
<path d="M61.4228 13.5689L61.8034 13.6691C61.7296 14.0164 61.6135 14.3553 61.4544 14.6818L61.9354 17.2735L61.5657 17.3421L61.1657 15.1869C61.0351 15.3821 60.892 15.5754 60.7356 15.7631L60.5454 15.3956C60.9909 14.837 61.2849 14.2291 61.4228 13.5689ZM63.9594 16.8247L63.224 16.9612C62.9094 17.0195 62.7228 16.8914 62.6645 16.5768L62.4601 15.4756C62.3324 15.5766 62.2007 15.6783 62.0644 15.7769L61.8296 15.4543C62.0245 15.3205 62.2107 15.1842 62.3791 15.0391L62.0952 13.5092L62.4688 13.4398L62.7096 14.7377C63.0476 14.4105 63.3358 14.056 63.5662 13.6755L63.8805 13.9223C63.5784 14.3771 63.2179 14.802 62.7936 15.19L63.0286 16.4563C63.049 16.5665 63.1182 16.6106 63.2441 16.5872L63.8301 16.4785C63.9205 16.4617 63.9816 16.4178 64.0139 16.3508C64.0423 16.2845 64.0311 16.0709 63.9718 15.7077L64.3391 15.7575C64.3955 16.2149 64.3954 16.4997 64.3422 16.6072C64.285 16.7154 64.1561 16.7882 63.9594 16.8247Z" fill="white"/>
<path d="M66.0279 14.3562L65.2986 14.5032L65.5997 15.9971C65.6187 16.0912 65.6799 16.1319 65.7858 16.1106L66.4681 15.9731C66.5857 15.9494 66.6539 15.903 66.6695 15.8386C66.6882 15.7696 66.6849 15.6315 66.6602 15.4284L67.0329 15.4757C67.0703 15.8231 67.0652 16.0404 67.0088 16.1252C66.9587 16.2006 66.8356 16.2581 66.6474 16.296L65.6946 16.4881C65.4476 16.5379 65.3023 16.4447 65.2549 16.2095L64.8794 14.3469L64.7291 14.5731L64.4487 14.3154C64.7524 13.8992 65.0122 13.4265 65.2287 12.9014L65.5032 12.8461C65.9209 13.1373 66.3262 13.4473 66.7111 13.7778L66.5193 14.0816C66.092 13.7026 65.7441 13.4137 65.4684 13.2203C65.3254 13.5634 65.1564 13.8994 64.9538 14.2299L66.3262 13.9533L66.5443 15.0355C66.5839 15.252 66.4892 15.3894 66.257 15.4525C66.1041 15.4833 65.9583 15.5087 65.8194 15.5285L65.6589 15.1977C65.8071 15.1841 65.9342 15.1667 66.044 15.1445C66.1342 15.1264 66.1717 15.0698 66.1544 14.9836L66.0279 14.3562ZM66.7255 12.9384L67.0902 12.8649L67.5778 15.2842L67.2132 15.3577L66.7255 12.9384ZM68.0567 16.0405L67.4646 16.1598L67.3064 15.8204C67.5017 15.7974 67.6876 15.7681 67.8601 15.7333C67.9542 15.7143 67.9894 15.646 67.9665 15.5323L67.3484 12.466L67.7209 12.3909L68.358 15.5513C68.4133 15.8258 68.3116 15.9891 68.0567 16.0405Z" fill="white"/>
<path d="M69.2135 12.6145L68.6034 12.7455L68.5362 12.4326L69.8268 12.1555C69.7812 12.0958 69.7365 12.0399 69.6935 11.9919L70.0829 11.8428C70.1301 11.9104 70.1829 11.985 70.2335 12.0682L71.5867 11.7777L71.6539 12.0905L71.032 12.224L70.969 12.483L71.8881 12.2857L71.9569 12.6064L68.5388 13.3403L68.47 13.0196L69.3577 12.829L69.2135 12.6145ZM69.7449 12.7459L70.5818 12.5662L70.6449 12.3072L69.6007 12.5314L69.7449 12.7459ZM68.9808 13.4172L71.5855 12.858L71.8475 14.0782L69.2428 14.6374L68.9808 13.4172ZM71.4233 13.8747L71.3813 13.6791L69.5041 14.0822L69.5461 14.2778L71.4233 13.8747ZM69.447 13.8163L71.3242 13.4132L71.2831 13.2216L69.4058 13.6246L69.447 13.8163ZM69.127 14.8219L69.5027 14.8189C69.4791 15.1472 69.4111 15.44 69.2994 15.7013L68.9359 15.5707C69.047 15.3259 69.1086 15.0795 69.127 14.8219ZM71.3244 15.3196L70.3702 15.5245C70.069 15.5892 69.891 15.4842 69.8339 15.2183L69.7264 14.7177L70.1019 14.6371L70.1926 15.0595C70.2136 15.1572 70.2832 15.1955 70.4044 15.1694L71.1827 15.0023C71.253 14.9872 71.3005 14.9607 71.322 14.9274C71.3536 14.8838 71.3591 14.7763 71.3378 14.6008L71.7141 14.6387C71.7416 14.9191 71.723 15.0991 71.6487 15.1723C71.5845 15.2352 71.4769 15.2869 71.3244 15.3196ZM70.6424 14.3533C70.8324 14.4761 70.9791 14.5878 71.0873 14.6914L70.8245 14.9729C70.7068 14.8631 70.5545 14.7445 70.3684 14.6208L70.6424 14.3533ZM71.8802 14.1734C72.1499 14.3815 72.362 14.5691 72.5157 14.7325L72.2529 15.0139C72.0863 14.8288 71.8765 14.6324 71.6194 14.4258L71.8802 14.1734Z" fill="white"/>
<path d="M73.603 11.0531C73.6857 11.1658 73.7679 11.2949 73.8576 11.4387L75.2119 11.1347L75.2908 11.4859L74.6351 11.6331C74.6355 11.8175 74.6194 12.0015 74.5859 12.1812L75.4875 11.9788L75.5681 12.3379L72.7971 12.96L72.9154 13.4868C73.0364 14.0992 73.0102 14.6216 72.8281 15.052L72.4871 14.8662C72.6313 14.5222 72.6494 14.0918 72.5407 13.571L72.3418 12.685L73.1302 12.508L72.8788 12.0274L72.1841 12.1834L72.1052 11.8321L73.479 11.5237C73.3994 11.4063 73.3137 11.2985 73.2267 11.2032L73.603 11.0531ZM73.4971 12.4257L74.2308 12.2609C74.2642 12.0812 74.2803 11.8973 74.2799 11.7129L73.2418 11.9459L73.4971 12.4257Z" fill="white"/>
<path d="M76.478 10.5897L78.6912 10.0761L79.0068 11.436L76.7936 11.9496L76.478 10.5897ZM78.5552 11.1712L78.4024 10.5127L76.9295 10.8545L77.0823 11.513L78.5552 11.1712ZM77.7809 12.0284L78.1878 13.7818L77.8293 13.865L77.7859 13.678L77.0651 13.8453L77.1085 14.0323L76.7461 14.1164L76.3392 12.363L77.7809 12.0284ZM76.9846 13.4985L77.7055 13.3312L77.5038 12.4623L76.783 12.6296L76.9846 13.4985ZM79.5967 11.6071L80.0036 13.3605L79.6334 13.4464L79.59 13.2594L78.838 13.4339L78.8814 13.6209L78.519 13.705L78.1121 11.9516L79.5967 11.6071ZM78.7575 13.0871L79.5095 12.9126L79.3079 12.0437L78.5559 12.2182L78.7575 13.0871Z" fill="white"/>
<path d="M80.0755 9.83032L83.1427 9.10425L83.2275 9.46236L82.6047 9.60978L82.8259 10.544L83.6472 10.3495L83.7319 10.7077L82.9106 10.9021L83.3096 12.5875L82.9398 12.675L82.5409 10.9896L81.4977 11.2365C81.5509 11.635 81.5534 11.9756 81.4984 12.264C81.4279 12.626 81.2386 12.938 80.9337 13.1951L80.6614 12.9307C80.9295 12.6741 81.0883 12.3898 81.1349 12.0829C81.1609 11.863 81.1544 11.6096 81.1201 11.3259L80.2638 11.5286L80.179 11.1705L81.0626 10.9614C81.0552 10.9302 81.0517 10.8982 81.0462 10.8748L80.8453 10.0263L80.1603 10.1884L80.0755 9.83032ZM81.219 9.9378L81.4199 10.7864C81.4273 10.8175 81.4298 10.8457 81.4363 10.8729L82.4561 10.6315L82.2349 9.69732L81.219 9.9378Z" fill="white"/>
<path d="M84.3232 9.9248L84.3596 8.71536L84.7441 8.68946L84.7134 9.45752L85.2893 9.32019C85.2945 9.01463 85.2805 8.69723 85.2511 8.36704L85.6397 8.32372C85.6663 8.64223 85.6766 8.94408 85.6745 9.22832L87.4565 8.80333L87.5409 9.1574L85.6655 9.60466C85.6572 9.74234 85.6432 9.87317 85.6321 9.99917L87.1885 9.628L87.2627 9.93927C87.2376 10.2825 87.1157 10.6158 86.889 10.9413C87.2237 11.0342 87.6178 11.1006 88.0675 11.1414L87.9604 11.537C87.4488 11.4781 87.0064 11.3821 86.6391 11.2559C86.3828 11.5432 86.0518 11.8277 85.6461 12.1095L85.368 11.8057C85.7237 11.5729 86.0212 11.3374 86.2575 11.1042C85.9564 10.9622 85.7138 10.7898 85.5345 10.5899C85.3917 11.2326 85.1471 11.7762 84.8047 12.2197L84.5324 11.9228C84.9561 11.32 85.2028 10.5786 85.2725 9.69839L84.3232 9.9248ZM85.7547 10.3236C85.9379 10.5225 86.1912 10.6883 86.5139 10.8169C86.7117 10.56 86.8396 10.3034 86.8948 10.0517L85.7547 10.3236ZM86.2831 8.12503C86.5998 8.26333 86.8747 8.41572 87.1068 8.57833L86.9053 8.90601C86.7014 8.7408 86.4334 8.58265 86.0926 8.42954L86.2831 8.12503Z" fill="white"/>
<path d="M90.9754 9.22047L91.3238 10.6877L90.9814 10.769L90.9315 10.5588L89.3709 10.9295L89.4245 11.1552L89.0859 11.2356L88.8141 10.0915C88.6428 10.3048 88.4378 10.4974 88.2009 10.677L87.9355 10.3906C88.375 10.0601 88.6898 9.6893 88.8752 9.27526L87.8361 9.52206L87.7548 9.17958L89.0079 8.88195C89.0417 8.73003 89.0629 8.57699 89.0676 8.42375L89.4397 8.3806C89.4322 8.52216 89.419 8.65686 89.401 8.7886L91.1951 8.36249L91.2764 8.70496L89.3072 9.17266C89.2498 9.34663 89.1819 9.51076 89.0996 9.66599L90.9754 9.22047ZM89.2941 10.6065L90.8547 10.2358L90.7105 9.62872L89.15 9.99937L89.2941 10.6065ZM87.5374 8.19517L88.3936 7.99182L88.3159 7.66491L88.674 7.57987L88.7516 7.90678L89.7207 7.67663L89.643 7.34972L90.0011 7.26468L90.0787 7.59159L90.931 7.38916L91.0123 7.73164L90.16 7.93406L90.2368 8.25708L89.8787 8.34211L89.802 8.0191L88.833 8.24925L88.9134 8.58783L88.5553 8.67287L88.4749 8.33429L87.6187 8.53764L87.5374 8.19517Z" fill="white"/>
<path d="M91.8024 7.04332L94.7043 6.36526L94.7862 6.71582L93.5242 7.0107L93.759 8.01563L95.3092 7.6534L95.393 8.01174L93.8427 8.37398L94.2332 10.045L93.8592 10.1323L93.4688 8.46136L91.9069 8.82632L91.8231 8.46798L93.3851 8.10301L93.1502 7.09808L91.8843 7.39388L91.8024 7.04332Z" fill="white"/>
<path d="M96.4561 6.29868L95.8476 6.43679L95.7768 6.12472L97.064 5.83257C97.0178 5.77334 96.9724 5.71801 96.9288 5.67048L97.3164 5.51688C97.3645 5.58391 97.4182 5.65786 97.4697 5.7405L98.8194 5.43418L98.8902 5.74624L98.27 5.88701L98.21 6.14673L99.1267 5.93868L99.1993 6.25854L95.79 7.03231L95.7174 6.71244L96.6029 6.51148L96.4561 6.29868ZM96.9891 6.42383L97.8238 6.23437L97.8838 5.97465L96.8423 6.21103L96.9891 6.42383ZM96.2329 7.10407L98.8308 6.51445L99.107 7.7315L96.5091 8.32112L96.2329 7.10407ZM98.6805 7.53298L98.6362 7.33794L96.7638 7.76289L96.8081 7.95793L98.6805 7.53298ZM96.7036 7.49763L98.576 7.07268L98.5326 6.88154L96.6603 7.30649L96.7036 7.49763ZM96.3954 8.50689L96.7711 8.49956C96.7513 8.82808 96.6867 9.12167 96.5781 9.38421L96.2131 9.25787C96.3213 9.01181 96.38 8.76468 96.3954 8.50689ZM98.5985 8.97898L97.6467 9.195C97.3463 9.26317 97.1671 9.16029 97.1069 8.89503L96.9936 8.39573L97.3681 8.31074L97.4637 8.73202C97.4858 8.82954 97.5558 8.86698 97.6768 8.83953L98.453 8.66335C98.5232 8.64742 98.5704 8.6203 98.5915 8.5868C98.6226 8.54284 98.6268 8.43522 98.6035 8.26005L98.9802 8.29349C99.011 8.57363 98.9945 8.75376 98.921 8.82785C98.8576 8.89148 98.7506 8.94446 98.5985 8.97898ZM97.9052 8.02066C98.0966 8.14128 98.2447 8.25125 98.354 8.35359L98.0945 8.63807C97.9756 8.52971 97.8219 8.41282 97.6344 8.29132L97.9052 8.02066ZM99.1408 7.82636C99.4129 8.03122 99.6272 8.21638 99.7828 8.37795L99.5234 8.66243C99.3546 8.47923 99.1425 8.28539 98.883 8.08177L99.1408 7.82636Z" fill="white"/>
<path d="M102.067 4.64778L102.544 6.83247L102.168 6.91426L101.771 5.09304L100.138 5.44918L100.536 7.27431L100.16 7.35611L99.6833 5.16751L102.067 4.64778ZM100.792 5.53989L101.159 5.4598L101.319 6.19063C101.357 6.40338 101.375 6.59999 101.375 6.78829L101.708 6.71587L101.909 7.6382C101.94 7.78281 102.007 7.84599 102.109 7.82383L102.679 7.69944C102.726 7.68922 102.769 7.65945 102.8 7.61576C102.835 7.5673 102.83 7.39634 102.783 7.10373L103.164 7.14344C103.204 7.53191 103.198 7.7666 103.146 7.85143C103.082 7.93101 102.984 7.98918 102.853 8.02597L102.083 8.19382C101.802 8.25516 101.624 8.11778 101.552 7.78559L101.37 6.94923C101.351 7.22336 101.294 7.46522 101.194 7.68349C101.008 8.06801 100.644 8.4093 100.105 8.71518L99.8372 8.44598C100.376 8.1401 100.721 7.82346 100.867 7.49691C101.005 7.15559 101.031 6.74873 100.951 6.27072L100.792 5.53989Z" fill="white"/>
<path d="M104.744 4.60609L105.306 7.33295L104.949 7.40632L104.907 7.20259L104.288 7.32998L104.353 7.64733L103.997 7.7207L103.412 4.88022L103.785 4.80363C103.811 4.57755 103.822 4.35077 103.807 4.11709L104.189 4.09142C104.194 4.31497 104.177 4.52688 104.141 4.73026L104.744 4.60609ZM104.217 6.9852L104.836 6.85781L104.677 6.08599L104.058 6.21338L104.217 6.9852ZM103.99 5.88035L104.609 5.75297L104.46 5.03207L103.841 5.15946L103.99 5.88035ZM105.643 5.40126C105.968 5.66931 106.225 5.90636 106.412 6.12106L106.161 6.38917C105.959 6.16123 105.696 5.91715 105.38 5.6514L105.643 5.40126ZM106.767 4.19398C107.045 5.54565 107.197 6.3842 107.222 6.70569C107.241 6.99584 107.082 7.17559 106.749 7.24412C106.671 7.26024 106.528 7.28143 106.33 7.30999L106.17 6.98768C106.344 6.96004 106.494 6.93724 106.62 6.91144C106.776 6.87919 106.849 6.77837 106.839 6.60898C106.822 6.40825 106.699 5.74762 106.477 4.62941L105.493 4.83178C105.432 5.08943 105.351 5.33071 105.242 5.55725L104.959 5.30936C105.14 4.88003 105.226 4.38455 105.208 3.82452L105.586 3.79575C105.592 4.02322 105.579 4.23823 105.556 4.44311L106.767 4.19398Z" fill="white"/>
<path d="M107.619 3.38875C107.926 3.54602 108.189 3.71153 108.409 3.88136L108.195 4.19091C108.001 4.02444 107.74 3.85424 107.41 3.68108L107.619 3.38875ZM110.55 6.47822C110.333 6.51945 110.097 6.5605 109.845 6.60454C109.589 6.64934 109.376 6.66549 109.203 6.65769C109.037 6.64052 108.882 6.57246 108.738 6.46136C108.671 6.40506 108.617 6.38262 108.57 6.39161C108.488 6.40736 108.38 6.61115 108.247 7.003L107.923 6.80008C108.059 6.44434 108.198 6.21022 108.34 6.10166L108.128 4.98971L107.601 5.09016L107.535 4.7444L108.411 4.57723L108.695 6.06245C108.717 6.07441 108.741 6.09031 108.765 6.11014C108.876 6.19898 108.985 6.25958 109.093 6.29192C109.221 6.32443 109.401 6.32681 109.634 6.29044C109.859 6.25165 110.123 6.20535 110.429 6.14688C110.622 6.11015 110.818 6.06874 111.013 6.02733C111.209 5.98592 111.361 5.94883 111.465 5.92073L111.445 6.30731L110.55 6.47822ZM109.272 3.47639L108.514 3.62106L108.455 3.31066L110.612 2.89912L110.662 3.16237C110.472 3.40231 110.26 3.61381 110.027 3.80473C110.037 3.81109 110.045 3.81352 110.055 3.81988L110.844 3.66921L111.177 5.41374C111.221 5.64556 111.114 5.78817 110.859 5.8369L110.556 5.89462L110.419 5.59921L110.7 5.5617C110.787 5.54521 110.826 5.49299 110.809 5.40655L110.771 5.20617L110.205 5.31411L110.328 5.95849L109.986 6.02371L109.863 5.37933L109.309 5.48502L109.434 6.13726L109.08 6.20472L108.675 4.08299L109.579 3.91058C109.433 3.84888 109.27 3.78624 109.093 3.73054L109.272 3.47639ZM109.766 3.6714C109.915 3.5574 110.05 3.43387 110.172 3.30472L109.292 3.47264C109.459 3.53845 109.618 3.60184 109.766 3.6714ZM109.199 4.90744L109.252 5.18248L109.806 5.07678L109.753 4.80175L109.199 4.90744ZM110.095 4.73653L110.148 5.01157L110.713 4.90362L110.661 4.62859L110.095 4.73653ZM110.602 4.32211L110.55 4.04707L109.984 4.15502L110.037 4.43006L110.602 4.32211ZM109.695 4.49527L109.642 4.22023L109.088 4.32593L109.141 4.60097L109.695 4.49527Z" fill="white"/>
<path d="M114.445 2.49993L114.98 5.5737L114.618 5.63681L114.579 5.41219L113.889 5.53225L113.929 5.76081L113.566 5.82392L113.03 2.74621L114.445 2.49993ZM113.828 5.18152L114.518 5.06147L114.144 2.91377L113.454 3.03382L113.828 5.18152ZM111.697 3.46144C111.641 3.67425 111.57 3.87336 111.489 4.05808L111.125 3.90616C111.313 3.49183 111.425 3.06226 111.457 2.61813L111.841 2.63246C111.828 2.78907 111.805 2.93523 111.781 3.07745L112.857 2.89016L112.919 3.24877L112.383 3.34207C112.418 3.58777 112.446 3.81839 112.458 4.03136L113.073 3.92434L113.136 4.28295L112.47 4.39889C112.469 4.48833 112.464 4.57845 112.462 4.66001C112.745 4.86249 113.037 5.09187 113.341 5.34746L113.173 5.73403C112.868 5.42978 112.616 5.19354 112.416 5.02532C112.323 5.46791 112.104 5.86734 111.751 6.22105L111.455 5.96408C111.812 5.5893 112.016 5.17222 112.069 4.70822C112.071 4.63061 112.077 4.54836 112.079 4.4668L111.303 4.60195L111.241 4.24334L112.072 4.09859C112.06 3.88562 112.032 3.655 111.997 3.4093L111.697 3.46144Z" fill="white"/>
<path d="M115.411 1.91428L116.513 3.63474L115.979 5.60688L115.641 5.51319L116.134 3.6931L115.117 2.10524L115.411 1.91428ZM116.087 1.81033L117.189 3.53079L116.655 5.50293L116.317 5.40923L116.81 3.58915L115.777 2.00372L116.087 1.81033Z" fill="white"/>
</svg>
