<svg width="28" height="16" viewBox="0 0 28 16" fill="none" xmlns="http://www.w3.org/2000/svg">
<path d="M5.40705 1.99906L5.65586 2.26687L4.24411 3.52684L4.24387 5.41254L3.89297 5.4145L3.89306 3.37122L5.40705 1.99906ZM6.03236 2.27626L6.26655 2.53759L4.86942 3.80404L4.86918 5.68974L4.51828 5.6917L4.51837 3.64842L6.03236 2.27626Z" fill="white"/>
<path d="M7.53331 2.96796C7.59519 3.21142 7.64558 3.47174 7.68079 3.74735L7.40406 3.76471L8.16638 4.08791C8.38795 3.9342 8.61197 3.73374 8.83687 3.4902L9.14033 3.72747C8.95626 3.93618 8.76103 4.10975 8.56043 4.25497L9.26014 4.55162L9.1165 4.89043L7.91594 4.38144L7.86754 4.4956C7.78523 4.66925 7.69812 4.82348 7.60833 4.96354L9.07404 5.58495L8.9304 5.92375L7.64146 5.37729C7.63299 5.8994 7.945 6.44442 8.57593 7.01604L8.22918 7.26005C7.59009 6.61546 7.27828 5.98798 7.28483 5.37816C7.14516 5.52314 6.99856 5.64347 6.8466 5.73545C6.45566 5.96072 5.93915 6.04152 5.29707 5.97785L5.23516 5.59099C5.88036 5.6473 6.36173 5.57767 6.68294 5.38366C6.79819 5.30652 6.90707 5.21366 7.00803 5.10874L5.74855 4.57477L5.89219 4.23596L7.24742 4.81053C7.34246 4.66835 7.43325 4.51568 7.514 4.34571L7.5624 4.23155L6.35816 3.721L6.5018 3.38219L7.2899 3.71631C7.25893 3.45119 7.20966 3.20873 7.14734 2.9868L7.53331 2.96796Z" fill="white"/>
<path d="M10.5417 4.36161L13.3463 5.5032L13.2061 5.84775L12.0242 5.36668L11.6562 6.27066L13.0974 6.85729L12.9542 7.20925L11.513 6.62262L10.9987 7.88597C10.8932 8.14531 10.7018 8.22289 10.4314 8.1128L9.84228 7.87302L9.90693 7.50201C10.0914 7.59004 10.2699 7.67134 10.4403 7.74071C10.5588 7.78897 10.6407 7.75753 10.683 7.65379L11.161 6.47936L9.65686 5.86709L9.80012 5.51513L11.3043 6.1274L11.6722 5.22342L10.4015 4.70616L10.5417 4.36161Z" fill="white"/>
<path d="M13.849 7.4679L13.4613 8.45875C13.793 8.51122 14.1477 8.55981 14.5208 8.59414L14.4871 8.95465C13.9794 8.90202 13.4678 8.82639 12.9545 8.73294L12.9281 8.38328C13.0365 8.36984 13.1089 8.31655 13.1453 8.22343L14.0301 5.96237C14.5248 6.07007 14.9874 6.13938 15.4192 6.16659L15.5282 6.53568C15.1544 6.51398 14.738 6.45843 14.2775 6.37276L13.9816 7.12893L15.0097 7.53122L14.8771 7.8702L13.849 7.4679ZM15.6542 9.66045L15.304 9.52343L15.3413 9.14284L15.6699 9.28001C15.7667 9.31791 15.837 9.28098 15.8778 9.17669L16.6329 7.24715L15.899 6.96L14.7534 9.88784L14.3958 9.74791L15.6726 6.48483L17.1216 7.05183L16.2063 9.39111C16.097 9.67049 15.9112 9.76102 15.6542 9.66045Z" fill="white"/>
<path d="M17.2241 8.26163L17.9305 7.27931L18.2638 7.47283L17.8089 8.09245L18.3631 8.3006C18.5383 8.05022 18.7042 7.77923 18.8644 7.48905L19.2108 7.67041C19.0547 7.94936 18.8945 8.20536 18.7338 8.43983L20.4488 9.08396L20.3208 9.42472L18.5159 8.74683C18.4321 8.85634 18.3473 8.95695 18.2677 9.05523L19.7655 9.61779L19.653 9.91736C19.4403 10.1878 19.1527 10.396 18.7828 10.5391C19.0083 10.8033 19.298 11.0787 19.648 11.364L19.338 11.6321C18.9468 11.2971 18.6337 10.9702 18.3998 10.6602C18.0266 10.755 17.5931 10.8058 17.0992 10.8126L17.0385 10.4053C17.4636 10.4111 17.8419 10.3823 18.1682 10.3211C17.998 10.035 17.8932 9.75635 17.8564 9.49041C17.3786 9.94335 16.8719 10.2572 16.34 10.4335L16.2803 10.035C16.9686 9.77226 17.5878 9.29552 18.1377 8.60479L17.2241 8.26163ZM18.1879 9.39273C18.2285 9.66008 18.3459 9.93916 18.5414 10.2262C18.849 10.1239 19.0987 9.98262 19.2851 9.80481L18.1879 9.39273ZM19.8553 7.86549C20.0406 8.15725 20.1832 8.43729 20.2847 8.70185L19.9344 8.86085C19.8578 8.60988 19.724 8.32891 19.5271 8.01139L19.8553 7.86549Z" fill="white"/>
<path d="M22.9702 8.95055L22.886 9.18382C22.7685 9.17965 22.664 9.20997 22.565 9.27206C22.4674 9.33039 22.4061 9.40606 22.3772 9.49772C22.4001 9.49322 22.4316 9.50032 22.473 9.51526C22.5482 9.54242 22.6064 9.5932 22.6401 9.66489C22.6737 9.73658 22.6756 9.81381 22.6458 9.89658C22.6159 9.97935 22.5613 10.0362 22.4897 10.0699C22.4142 10.1022 22.3332 10.1027 22.2467 10.0715C22.1451 10.0348 22.0773 9.96354 22.0469 9.85904C22.0115 9.75694 22.0181 9.64449 22.0629 9.52033C22.1335 9.32469 22.2497 9.17951 22.4142 9.07728C22.5749 8.9737 22.7607 8.9302 22.9702 8.95055ZM22.0936 8.63412L22.0094 8.86739C21.8956 8.86458 21.7911 8.8949 21.6959 8.95835C21.5983 9.01668 21.5332 9.09099 21.5044 9.18265C21.5235 9.17679 21.5549 9.18389 21.6001 9.20019C21.6753 9.22735 21.7298 9.27677 21.7634 9.34846C21.7971 9.42015 21.8028 9.49874 21.7729 9.58151C21.743 9.66428 21.6885 9.72114 21.6168 9.7548C21.5413 9.7871 21.4603 9.78764 21.3738 9.7564C21.2722 9.71973 21.2081 9.64983 21.1778 9.54533C21.1386 9.44187 21.1452 9.32942 21.19 9.20526C21.2606 9.00962 21.3731 8.86308 21.5375 8.76085C21.702 8.65863 21.8878 8.61513 22.0936 8.63412Z" fill="white"/>
<path d="M25.5199 9.92738L25.8829 10.0528L25.466 11.2588L26.9669 11.7776L26.8467 12.1254L25.3458 11.6066L24.6807 13.5309L24.3178 13.4055L24.9829 11.4812L23.4669 10.9572L23.5871 10.6094L25.1031 11.1334L25.5199 9.92738Z" fill="white"/>
</svg>
