<svg width="104" height="19" viewBox="0 0 104 19" fill="none" xmlns="http://www.w3.org/2000/svg">
<path d="M3.74257 5.89813L4.10272 6.03134L3.47133 7.73831L3.11118 7.60509L3.2888 7.12489C3.01791 7.16543 2.72492 7.18501 2.40095 7.18459L2.38009 6.81436C2.76034 6.83559 3.10488 6.82656 3.41508 6.7835L3.74257 5.89813ZM4.1357 6.49562L4.89728 6.77732L5.04853 6.3684L5.40493 6.50023L5.25367 6.90915L6.01149 7.18946L5.89354 7.50835L5.13572 7.22804L4.95949 7.70449L5.61226 7.94594L5.49431 8.26483L3.83986 7.65286L3.95781 7.33397L4.60309 7.57266L4.77932 7.09621L4.01775 6.8145L4.1357 6.49562ZM3.03707 5.79923C3.21107 5.97448 3.36314 6.16294 3.48437 6.36558L3.20535 6.57798C3.06578 6.35575 2.9151 6.16354 2.7468 6.00746L3.03707 5.79923ZM2.15349 7.43851L3.71039 8.0144C3.69452 7.91896 3.66975 7.8245 3.63984 7.73241L4.00647 7.74434C4.04404 7.87339 4.06993 8.01091 4.08555 8.15317L5.4999 8.67632L5.38056 8.99896L4.03374 8.50078C4.07675 8.69581 4.14407 8.88278 4.2357 9.06168C4.47796 9.00628 4.69576 8.92478 4.89146 8.82231L5.06095 9.13663C4.86288 9.23396 4.64549 9.30282 4.41489 9.34973C4.58211 9.57792 4.79796 9.78997 5.05866 9.98449L4.73853 10.2158C4.13942 9.7255 3.79213 9.11938 3.70041 8.39881C3.49346 8.49712 3.2569 8.57168 2.99074 8.6225L2.82977 9.05768C3.12208 9.09757 3.40217 9.1244 3.66766 9.13304L3.60737 9.46899C3.23364 9.44164 2.79378 9.38556 2.28403 9.29936L2.32515 8.96912C2.43657 8.96768 2.50754 8.9257 2.53529 8.85067L2.60052 8.67434C2.37213 8.69222 2.13151 8.69704 1.87866 8.68882L1.80724 8.31694C2.44799 8.38336 2.95256 8.35675 3.32844 8.23989L2.03415 7.76114L2.15349 7.43851Z" fill="white"/>
<path d="M7.60693 8.98022L6.90153 8.74367L6.41698 10.1886C6.38646 10.2796 6.41923 10.3454 6.52163 10.3798L7.18151 10.6011C7.29528 10.6392 7.37751 10.633 7.42314 10.5851C7.47383 10.5346 7.53982 10.4132 7.61985 10.2249L7.91922 10.4519C7.77824 10.7716 7.66533 10.9574 7.57417 11.0028C7.49314 11.0431 7.35782 11.0315 7.17578 10.9704L6.25422 10.6614C6.0153 10.5812 5.93588 10.428 6.01219 10.2005L6.61629 8.39909L6.37321 8.52008L6.25876 8.15685C6.72968 7.94772 7.19062 7.66775 7.64029 7.32071L7.90576 7.40974C8.12249 7.87056 8.31897 8.34146 8.4876 8.81991L8.1698 8.98756C7.98863 8.44585 7.83129 8.02182 7.68891 7.71672C7.39377 7.9426 7.0797 8.14948 6.7391 8.33481L8.06645 8.77993L7.71544 9.82664C7.6417 10.034 7.49105 10.1058 7.25841 10.0446C7.11051 9.99504 6.97146 9.9442 6.84127 9.8921L6.86723 9.52532C7.00246 9.58755 7.12128 9.63583 7.22747 9.67144C7.31469 9.70069 7.37546 9.67044 7.40344 9.58701L7.60693 8.98022ZM8.91897 8.09969L9.27167 8.21796L8.48698 10.5579L8.13428 10.4396L8.91897 8.09969ZM8.52457 11.4523L7.95191 11.2602L7.98421 10.8871C8.16495 10.9646 8.34065 11.032 8.50752 11.0879C8.59854 11.1185 8.66313 11.0768 8.70001 10.9668L9.69454 8.00116L10.0548 8.12198L9.02977 11.1787C8.94074 11.4442 8.77108 11.5349 8.52457 11.4523Z" fill="white"/>
<path d="M10.9904 8.96113L10.3923 8.78311L10.4836 8.47641L11.7488 8.85299C11.7375 8.77869 11.7251 8.70822 11.7104 8.64542L12.1235 8.70162C12.1325 8.78359 12.1431 8.87437 12.1475 8.97167L13.474 9.36651L13.3827 9.67321L12.7731 9.49177L12.5935 9.6887L13.4944 9.95687L13.4008 10.2712L10.0501 9.27388L10.1437 8.95951L11.0139 9.21855L10.9904 8.96113ZM11.3935 9.33152L12.2139 9.57573L12.3936 9.37879L11.3699 9.07411L11.3935 9.33152ZM10.4009 9.55357L12.9542 10.3136L12.5981 11.5097L10.0448 10.7497L10.4009 9.55357ZM12.3238 11.1276L12.3808 10.9359L10.5406 10.3881L10.4835 10.5798L12.3238 11.1276ZM10.6182 10.1274L12.4584 10.6752L12.5143 10.4873L10.6741 9.93957L10.6182 10.1274ZM9.85466 10.8559L10.1857 11.0337C10.0074 11.3103 9.80708 11.5345 9.5837 11.7101L9.32753 11.421C9.54251 11.2596 9.7149 11.073 9.85466 10.8559ZM11.5433 12.3476L10.6078 12.0692C10.3126 11.9813 10.2069 11.8037 10.2845 11.543L10.4305 11.0523L10.7986 11.1619L10.6753 11.5759C10.6468 11.6718 10.6895 11.7387 10.8083 11.7741L11.5713 12.0012C11.6403 12.0217 11.6947 12.0212 11.7295 12.0024C11.7781 11.9793 11.8346 11.8876 11.9001 11.7235L12.2121 11.9374C12.1015 12.1966 11.9988 12.3455 11.8985 12.374C11.8119 12.3984 11.6928 12.3921 11.5433 12.3476ZM11.4089 11.1724C11.5166 11.3714 11.5917 11.5398 11.6368 11.6827L11.2712 11.8034C11.2207 11.6506 11.1441 11.4734 11.0402 11.2755L11.4089 11.1724ZM12.5811 11.609C12.7178 11.9209 12.8138 12.1874 12.8702 12.4045L12.5045 12.5252C12.4473 12.2828 12.3575 12.0098 12.2311 11.7051L12.5811 11.609Z" fill="white"/>
<path d="M14.6128 9.51409C14.8131 9.76368 14.9697 10.0062 15.0925 10.2359L14.7751 10.427C14.6745 10.2072 14.515 9.95976 14.2994 9.6897L14.6128 9.51409ZM13.8336 10.4911L14.7015 10.7138L14.2811 12.3527C14.427 12.2828 14.5847 12.1993 14.758 12.1034L14.7593 12.5167C14.4478 12.6845 14.1268 12.8252 13.7973 12.9347L13.7433 12.5657C13.8192 12.5274 13.8719 12.4666 13.8928 12.3852L14.2546 10.9749L13.7432 10.8437L13.8336 10.4911ZM15.0985 11.307L16.9777 11.7891L16.8912 12.1262C16.6904 12.4422 16.4289 12.6889 16.1057 12.8703C16.3119 13.0967 16.5763 13.3214 16.8932 13.5349L16.6141 13.8019C16.2664 13.5475 15.9906 13.2868 15.7768 13.0255C15.4189 13.1649 14.9984 13.2428 14.5229 13.2613L14.397 12.8986C14.8386 12.8839 15.2222 12.8212 15.5488 12.7068C15.351 12.3835 15.2414 12.054 15.2279 11.7201L15.0071 11.6635L15.0985 11.307ZM15.5728 11.8086C15.6013 12.0678 15.6977 12.3197 15.865 12.5691C16.1229 12.4329 16.3403 12.2615 16.5143 12.0501L15.5728 11.8086ZM15.7534 9.88102L17.125 10.2329L16.9163 11.0465C16.8944 11.1318 16.929 11.1902 17.0258 11.215L17.3668 11.3025L17.2803 11.6396L16.8425 11.5273C16.5674 11.4567 16.4656 11.2902 16.5312 11.0345L16.6723 10.4843L16.0292 10.3193L15.9994 10.4355C15.896 10.8385 15.6101 11.0996 15.1466 11.2161L14.9751 10.8707C15.3383 10.8069 15.5576 10.6443 15.6252 10.3808L15.7534 9.88102Z" fill="white"/>
<path d="M18.7387 11.6685L19.7629 11.8905L20.0112 10.7451L20.3943 10.8282L20.146 11.9735L21.1155 12.1837L21.0359 12.5512L20.0664 12.341L19.6096 14.4481L19.2265 14.365L19.6833 12.258L18.6591 12.0359L18.7387 11.6685ZM18.2679 10.404C18.4805 10.6506 18.654 10.8888 18.7875 11.1224L18.4775 11.3253C18.361 11.1077 18.1883 10.8656 17.9548 10.6022L18.2679 10.404ZM17.5062 11.4258L18.4092 11.6216L18.0482 13.2869C18.1953 13.2124 18.3497 13.1231 18.5145 13.0237L18.53 13.4241C18.229 13.6044 17.9135 13.757 17.5883 13.8789L17.5196 13.5161C17.5979 13.4758 17.6475 13.417 17.6645 13.3388L17.9763 11.9002L17.429 11.7815L17.5062 11.4258Z" fill="white"/>
<path d="M23.0806 13.3383L22.7418 13.2784L22.8038 12.9278L23.8476 13.1124L23.7856 13.4629L23.4469 13.4031L23.2756 14.372C23.4394 14.3644 23.6039 14.3529 23.7652 14.3367L23.7032 14.6873C23.3438 14.7212 22.9629 14.7392 22.5611 14.7372L22.5338 14.3628C22.6548 14.3679 22.7758 14.373 22.8974 14.3742L23.0806 13.3383ZM24.3201 15.2879C24.1783 15.2628 24.0671 15.1335 23.993 14.9091C23.9108 14.6387 23.878 14.2958 23.8939 13.8842C23.9079 13.5293 23.9509 13.1022 24.0243 12.5953L22.8072 12.3801L22.8713 12.0177L24.0805 12.2315C24.1116 12.0095 24.1527 11.7771 24.1945 11.5408L24.5569 11.6049C24.5137 11.8491 24.4733 12.0775 24.4429 12.2956L25.1952 12.4286L25.1312 12.7909L24.3867 12.6593C24.2959 13.2648 24.2497 13.7562 24.2407 14.1283C24.2401 14.5913 24.2896 14.8397 24.3925 14.8782C24.4569 14.8815 24.561 14.6602 24.7113 14.2237L24.9642 14.5162C24.7215 15.0623 24.5091 15.3213 24.3201 15.2879ZM24.8885 11.6594C25.0219 11.8698 25.1194 12.0536 25.1902 12.2043L24.8982 12.3395C24.8301 12.1731 24.7294 11.9847 24.6039 11.7756L24.8885 11.6594ZM22.2883 11.2484C22.4984 11.4846 22.6691 11.7138 22.7997 11.94L22.4977 12.1547C22.3808 11.9432 22.2068 11.7093 21.9831 11.4585L22.2883 11.2484ZM21.5546 12.2967L22.4408 12.4534L22.1539 14.0762C22.2605 14.0017 22.3725 13.9199 22.4905 13.827L22.5193 14.2383C22.2569 14.4357 21.9876 14.6033 21.7074 14.7406L21.6248 14.3808C21.6976 14.3368 21.7442 14.28 21.7574 14.2052L22.0151 12.7478L21.4912 12.6552L21.5546 12.2967Z" fill="white"/>
<path d="M27.1592 12.0413L27.5315 12.0936L27.4825 12.4422L28.9917 12.6543L28.9422 13.0068L27.433 12.7947L27.374 13.2146L28.6336 13.3916L28.4449 14.7344L25.7435 14.3548L25.9322 13.012L27.0017 13.1623L27.1592 12.0413ZM28.1176 14.333L28.2078 13.6913L26.255 13.4168L26.1648 14.0585L28.1176 14.333ZM25.7172 14.4844L26.0084 14.6829C25.8179 15.0035 25.6064 15.2726 25.3817 15.4915L25.1045 15.2223C25.3264 15.0233 25.5306 14.7773 25.7172 14.4844ZM26.6421 14.7436C26.6857 15.0083 26.718 15.2956 26.7396 15.6016L26.3471 15.6353C26.3441 15.3117 26.3203 15.0216 26.279 14.7694L26.6421 14.7436ZM27.4732 14.8079C27.5502 15.0934 27.6086 15.3965 27.6518 15.7217L27.2672 15.7565C27.2387 15.4132 27.1854 15.1027 27.1107 14.8297L27.4732 14.8079ZM28.2777 14.8321C28.4816 15.192 28.6322 15.4999 28.7329 15.7605L28.3894 15.9344C28.2875 15.6535 28.1425 15.3342 27.9494 14.9839L28.2777 14.8321Z" fill="white"/>
<path d="M30.7703 16.1438L30.2572 16.0892L30.2165 15.7148C30.3744 15.7437 30.5287 15.7681 30.6758 15.7838C30.7872 15.7956 30.8484 15.7498 30.8594 15.6464L31.0253 14.0872L29.5019 13.9251L29.5416 13.5513L32.9544 13.9143L32.9146 14.2882L31.4111 14.1283L31.2351 15.7829C31.2063 16.0534 31.0487 16.1734 30.7703 16.1438ZM30.0336 14.3719L30.3986 14.4952C30.1771 15.0268 29.8961 15.4756 29.5594 15.842L29.2508 15.604C29.5963 15.2305 29.8572 14.8198 30.0336 14.3719ZM32.2382 14.5582C32.463 15.0165 32.6455 15.4945 32.7892 15.9965L32.4266 16.1148C32.2721 15.5634 32.0913 15.0695 31.8839 14.6371L32.2382 14.5582ZM30.0142 12.5878L32.707 12.8743L32.6681 13.2403L29.9753 12.9538L30.0142 12.5878Z" fill="white"/>
<path d="M33.6273 13.1109L34.5291 13.1747L34.5528 12.8395L34.9398 12.8669L34.9161 13.2021L35.8737 13.2698L35.8974 12.9346L36.2844 12.962L36.2607 13.2972L37.1625 13.361L37.1379 13.7081L36.2362 13.6443L36.2122 13.9835L35.8251 13.9561L35.8491 13.6169L34.8915 13.5492L34.8675 13.8883L34.4805 13.861L34.5045 13.5218L33.6028 13.458L33.6273 13.1109ZM34.1427 13.7609C34.3817 13.9542 34.581 14.1407 34.7442 14.3287L34.4665 14.5697C34.3267 14.3914 34.1237 14.2006 33.8616 13.9936L34.1427 13.7609ZM33.8434 14.4214C34.0786 14.6105 34.278 14.797 34.4414 14.981L34.1677 15.2223C34.0276 15.048 33.8246 14.8572 33.5662 14.6544L33.8434 14.4214ZM34.1806 15.3234L34.4927 15.5019C34.3194 15.8546 34.1031 16.1921 33.8437 16.5146L33.5055 16.3062C33.7812 15.9809 34.0049 15.6519 34.1806 15.3234ZM36.3889 14.4331L35.3435 14.3591L35.2286 15.983C35.2202 16.1027 35.2835 16.1714 35.4191 16.181L36.1812 16.2349C36.3528 16.247 36.4591 16.2185 36.5001 16.1492C36.5496 16.0725 36.5928 15.9151 36.6337 15.6774L36.9886 15.8188C36.9205 16.215 36.8437 16.4502 36.7542 16.524C36.6614 16.5897 36.499 16.6183 36.2675 16.6019L35.2301 16.5285C34.9429 16.5082 34.8128 16.3626 34.8317 16.0953L34.9802 13.9966L36.7877 14.1244L36.7081 15.2496C36.6888 15.4648 36.5572 15.5678 36.313 15.5625C36.1454 15.5507 35.9821 15.5351 35.8231 15.5158L35.7604 15.1545C35.9229 15.182 36.066 15.2002 36.1896 15.2089C36.2854 15.2157 36.3364 15.1752 36.3423 15.0914L36.3889 14.4331Z" fill="white"/>
<path d="M40.7595 13.3099L40.6392 16.8478L40.2594 16.8349L40.2643 16.691L37.6738 16.6029L37.6689 16.7468L37.2891 16.7339L37.4094 13.196L40.7595 13.3099ZM37.6852 16.2671L40.2757 16.3552L40.368 13.6408L37.7775 13.5527L37.6852 16.2671ZM38.2113 13.8596L39.9183 13.9176L39.9069 14.2534L38.1999 14.1954L38.2113 13.8596ZM37.9602 14.5355L40.119 14.6089L40.1076 14.9447L39.4999 14.924L39.4748 15.6636C39.4721 15.7435 39.5027 15.7846 39.5746 15.787L39.6826 15.7907C39.7305 15.7923 39.7669 15.7816 39.7997 15.7587C39.8404 15.74 39.8686 15.6169 39.8923 15.3896L40.2006 15.5041C40.1543 15.8067 40.1043 15.9812 40.0465 16.0352C39.9889 16.0813 39.8881 16.1019 39.7441 16.101L39.4522 16.0911C39.3403 16.0873 39.2614 16.0526 39.2076 15.9867C39.146 15.9166 39.1209 15.8317 39.1243 15.7317L39.1521 14.9122L38.8483 14.9019C38.7977 15.2123 38.7133 15.4576 38.5914 15.6295C38.4484 15.8328 38.2308 15.9935 37.9429 16.1038L37.7774 15.794C38.0124 15.7099 38.1927 15.584 38.3104 15.4199C38.403 15.2869 38.4689 15.1131 38.5085 14.8903L37.9488 14.8713L37.9602 14.5355Z" fill="white"/>
<path d="M42.6513 13.9525C43.0054 14.2178 43.3395 14.4831 43.6456 14.7488C43.8514 14.4711 44.0289 14.1577 44.1782 13.8045L44.5236 13.9858C44.3587 14.3751 44.1653 14.7167 43.9436 15.0104C44.2337 15.2722 44.5038 15.538 44.7459 15.8001L44.4522 16.0985C44.2342 15.8442 43.9801 15.5782 43.69 15.3084C43.3568 15.671 42.9669 15.9461 42.5245 16.1416L42.3018 15.7993C42.7204 15.624 43.0865 15.3732 43.3959 15.0427C43.0897 14.7731 42.7476 14.4998 42.3774 14.2227L42.6513 13.9525ZM41.7063 13.3239L44.9142 13.2987L44.9171 13.6627L42.0732 13.6851L42.094 16.337L45.0619 16.3137L45.0648 16.6777L41.7329 16.7038L41.7063 13.3239Z" fill="white"/>
<path d="M45.8808 13.0752L46.2366 13.0614C46.0792 13.3397 45.962 13.6204 45.8849 13.9036C45.7784 14.252 45.7359 14.6019 45.7494 14.9497C45.7627 15.2934 45.8322 15.639 45.9656 15.9821C46.0642 16.2545 46.2028 16.5253 46.3814 16.7946L46.0256 16.8084C45.8275 16.5519 45.6731 16.2856 45.5623 16.0097C45.4252 15.6748 45.3518 15.3294 45.3378 14.9696C45.3237 14.6059 45.37 14.2519 45.4809 13.9113C45.5697 13.6196 45.703 13.3423 45.8808 13.0752Z" fill="white"/>
<path d="M47.5208 13.1959L50.7685 12.9634L50.7951 13.3345L49.3428 13.4385L49.4439 14.8508L51.0478 14.736L51.0738 15.0991L49.4699 15.2139L49.5687 16.5944L49.1857 16.6218L49.0869 15.2413L47.5149 15.3539L47.4889 14.9908L49.0609 14.8783L48.9598 13.4659L47.5474 13.567L47.5208 13.1959ZM48.1194 13.7145C48.2824 13.9756 48.4432 14.2608 48.6023 14.5782L48.2598 14.7792C48.1041 14.4535 47.943 14.1643 47.7766 13.9115L48.1194 13.7145ZM50.2727 13.5443L50.6315 13.683C50.5378 13.9985 50.4076 14.3086 50.2452 14.617L49.8896 14.466C50.0554 14.1494 50.1819 13.8436 50.2727 13.5443Z" fill="white"/>
<path d="M54.5381 14.4026L54.7306 16.0917L54.3491 16.1352L54.3305 15.9722L52.3752 16.1951L52.3938 16.358L52.0122 16.4015L51.8197 14.7124L54.5381 14.4026ZM52.334 15.8334L54.2893 15.6106L54.1978 14.8078L52.2425 15.0306L52.334 15.8334ZM51.5193 14.3723L51.407 14.0227C51.7013 13.9207 52.0702 13.4479 52.514 12.6083L52.9228 12.6986C52.6516 13.1804 52.3683 13.5911 52.0689 13.9312C52.7418 13.8303 53.3886 13.7124 54.0137 13.5807C53.8648 13.4045 53.7137 13.2445 53.5635 13.0926L53.8868 12.8907C54.254 13.2514 54.6098 13.6537 54.9547 14.1015L54.606 14.3265C54.4916 14.1704 54.3825 14.0258 54.2743 13.8892C53.4518 14.0554 52.5322 14.2166 51.5193 14.3723Z" fill="white"/>
<path d="M54.8681 12.3133L55.2205 12.2626C55.4397 12.4937 55.621 12.7424 55.765 13.0126C55.9317 13.3281 56.0452 13.6673 56.0971 14.0276C56.1484 14.3839 56.1347 14.7375 56.0644 15.0911C56.0014 15.3831 55.8976 15.6729 55.7531 15.9604L55.4008 16.0112C55.5237 15.7146 55.6111 15.4232 55.6628 15.1369C55.728 14.7759 55.7378 14.4229 55.6887 14.0824C55.6391 13.738 55.5301 13.4021 55.3663 13.0781C55.2353 12.8141 55.0692 12.5592 54.8681 12.3133Z" fill="white"/>
<path d="M60.1198 13.0956L60.2637 13.9231L58.3444 14.2568L58.3808 14.4657L60.4852 14.0998L60.6681 15.152L60.2938 15.2171L60.2691 15.0752L58.539 15.376L58.563 15.514L58.1886 15.5791L57.8262 13.4944L60.1198 13.0956ZM58.4815 15.045L60.2115 14.7442L60.1622 14.4605L58.4322 14.7613L58.4815 15.045ZM58.2924 13.9573L59.8451 13.6874L59.8053 13.4588L58.2526 13.7288L58.2924 13.9573ZM60.5779 12.5084L60.7088 13.2611L60.3423 13.3248L60.2663 12.8874L57.6101 13.3492L57.6862 13.7867L57.3197 13.8504L57.1888 13.0977L58.7139 12.8325C58.6687 12.7592 58.6209 12.6944 58.5744 12.6375L58.8959 12.5248L58.8214 12.4931C58.9615 12.2251 59.0517 11.9496 59.0832 11.664L59.4555 11.6804C59.4435 11.7515 59.4348 11.818 59.4221 11.8852L60.5177 11.6947L60.5745 12.0218L59.9322 12.1335C60.0103 12.2092 60.0766 12.287 60.1337 12.3583L59.8239 12.538C59.7389 12.4229 59.6421 12.3098 59.5341 12.2027L59.3332 12.2376C59.2888 12.3793 59.2351 12.5145 59.1716 12.6392L58.9612 12.55C59.005 12.6154 59.0463 12.6894 59.0922 12.7667L60.5779 12.5084ZM57.6386 12.5323C57.5766 12.6892 57.5053 12.8396 57.4241 12.9796L57.0613 12.8316C57.2474 12.5475 57.3624 12.2514 57.4116 11.9506L57.7839 11.967C57.7719 12.0381 57.756 12.1099 57.7433 12.1771L58.7364 12.0044L58.7933 12.3315L58.2021 12.4343C58.2902 12.5205 58.3697 12.6041 58.4327 12.6865L58.1125 12.8762C58.0208 12.7459 57.922 12.621 57.812 12.5021L57.6386 12.5323Z" fill="white"/>
<path d="M62.1728 11.2283L64.1541 10.8152L64.5444 12.6869L63.7417 12.8543L63.8233 13.2459L64.677 13.0679L64.7488 13.4125L63.8952 13.5905L63.9801 13.9977L64.9708 13.7911L65.0451 14.1475L62.6761 14.6414L62.6018 14.2851L63.612 14.0745L63.5271 13.6672L62.6695 13.846L62.5977 13.5014L63.4553 13.3226L63.3736 12.931L62.563 13.1001L62.1728 11.2283ZM64.1195 12.4323L64.0264 11.9859L63.58 12.079L63.6731 12.5254L64.1195 12.4323ZM63.305 12.6021L63.2119 12.1557L62.7577 12.2504L62.8508 12.6968L63.305 12.6021ZM62.6908 11.9293L63.145 11.8346L63.0519 11.3882L62.5977 11.4829L62.6908 11.9293ZM63.42 11.3115L63.5131 11.7579L63.9595 11.6648L63.8664 11.2184L63.42 11.3115ZM61.0904 12.7983L61.4781 12.7175L61.3034 11.8795L60.857 11.9726L60.7835 11.6202L62.0483 11.3564L62.1218 11.7088L61.6793 11.8011L61.854 12.6391L62.2495 12.5566L62.3238 12.913L61.9283 12.9954L62.0916 13.7786C62.215 13.7038 62.3344 13.6299 62.4482 13.5489L62.5234 13.9092C62.1925 14.1253 61.8341 14.3267 61.4433 14.5103L61.279 14.1728C61.4377 14.1111 61.5909 14.0423 61.7394 13.9705L61.5524 13.0738L61.1647 13.1546L61.0904 12.7983Z" fill="white"/>
<path d="M65.2709 11.8912L65.6282 11.9422C65.6095 12.4358 65.5261 12.8296 65.3749 13.1285L65.0414 12.9527C65.1866 12.6634 65.2637 12.3122 65.2709 11.8912ZM65.7492 10.3186L66.1228 10.23L66.2943 10.954L67.5243 10.6626C67.5811 10.9369 67.6371 11.1908 67.6847 11.4262L67.912 11.2407C68.1741 11.5486 68.4405 11.8924 68.7084 12.277L68.4085 12.5207C68.178 12.1725 67.9432 11.8582 67.7138 11.5837C67.7665 11.8754 67.8117 12.136 67.8478 12.3576C67.9085 12.7872 67.9124 13.0987 67.8635 13.2912C67.8127 13.4759 67.689 13.5956 67.4942 13.6582L67.0388 13.7661L66.8527 13.432C66.9869 13.4084 67.1124 13.3828 67.2291 13.3551C67.4199 13.31 67.517 13.1472 67.5223 12.8746C67.52 12.5874 67.4215 11.9982 67.2316 11.1101L66.3636 11.3158C66.4713 11.9438 66.4822 12.4757 66.3963 12.9112C66.2945 13.3834 66.0372 13.7897 65.6294 14.1329L65.3504 13.8578C65.736 13.5075 65.9659 13.1242 66.0408 12.7118C66.0929 12.3418 66.076 11.906 65.99 11.4043L65.0636 11.6238L64.9788 11.2657L65.9207 11.0425L65.7492 10.3186Z" fill="white"/>
<path d="M70.3813 9.17035L70.7531 9.07432L70.9041 9.65913L71.8685 9.41007L71.9605 9.76638L70.9961 10.0154L71.1612 10.6545L72.2301 10.3784L72.3221 10.7347L71.0634 11.0598C70.9767 11.6358 70.8821 12.0692 70.7757 12.3611C71.1897 12.2046 71.5939 12.0258 71.9901 11.8326C71.8354 11.6495 71.6808 11.4828 71.5303 11.3317L71.8566 11.1235C72.1851 11.4518 72.4925 11.8103 72.7769 12.2078L72.4684 12.4527C72.384 12.334 72.3007 12.2192 72.2203 12.1161C71.6723 12.3774 71.0679 12.6285 70.4081 12.8733L70.2399 12.5738C70.2679 12.5542 70.292 12.5356 70.3083 12.519C70.4397 12.3239 70.5585 11.8719 70.6645 11.1628L69.8086 11.3839L69.7166 11.0276L70.7894 10.7505L70.6243 10.1115L69.7374 10.3405L69.6454 9.98422L70.5323 9.75516L70.3813 9.17035ZM68.7084 9.63544C69.0063 9.76507 69.2645 9.90083 69.4878 10.0456L69.2934 10.3808C69.0992 10.2368 68.8362 10.0982 68.5072 9.96007L68.7084 9.63544ZM68.8457 10.5667C69.1242 10.7013 69.3678 10.845 69.5805 10.9966L69.3813 11.329C69.1987 11.182 68.9541 11.0345 68.6483 10.8903L68.8457 10.5667ZM69.5034 11.5618L69.8715 11.6114C69.83 12.1385 69.7621 12.6435 69.6718 13.1254L69.2618 13.0578C69.3734 12.5621 69.4549 12.0619 69.5034 11.5618Z" fill="white"/>
<path d="M72.9203 8.46255L73.264 8.36994C73.1726 8.67628 73.1208 8.97608 73.1087 9.26933C73.0823 9.6327 73.1188 9.98329 73.2093 10.3193C73.2988 10.6515 73.4434 10.9729 73.6498 11.2777C73.8066 11.5213 74.002 11.7545 74.236 11.9773L73.8922 12.0699C73.642 11.8639 73.4322 11.6387 73.2628 11.3944C73.0546 11.0984 72.9062 10.778 72.8125 10.4304C72.7178 10.0789 72.6842 9.7234 72.7165 9.36671C72.7381 9.06261 72.8064 8.76251 72.9203 8.46255Z" fill="white"/>
<path d="M76.2236 9.61493L75.892 9.7064L75.7973 9.36322L76.8191 9.08136L76.9138 9.42454L76.5822 9.51601L76.8438 10.4646C76.9885 10.3873 77.1321 10.3062 77.2708 10.2223L77.3655 10.5655C77.0555 10.7506 76.7192 10.9305 76.3556 11.1013L76.1701 10.7749C76.2815 10.7276 76.393 10.6802 76.5033 10.6291L76.2236 9.61493ZM78.1805 10.8428C78.0417 10.8811 77.8857 10.812 77.7225 10.6413C77.5321 10.4324 77.3551 10.1368 77.1926 9.75842C77.0527 9.43185 76.9081 9.02777 76.7565 8.53846L75.565 8.86713L75.4672 8.51238L76.651 8.18584C76.5837 7.97203 76.5209 7.74452 76.4571 7.51317L76.8119 7.41531C76.8778 7.65438 76.9395 7.87803 77.0057 8.08798L77.7422 7.88482L77.8401 8.23958L77.1113 8.4406C77.2894 9.02632 77.4588 9.48997 77.6107 9.82983C77.809 10.2481 77.9605 10.4512 78.0699 10.4417C78.1295 10.417 78.1284 10.1725 78.0766 9.71376L78.4307 9.8692C78.4461 10.4666 78.3656 10.7917 78.1805 10.8428ZM77.1347 7.32211C77.3456 7.45481 77.5126 7.57887 77.6413 7.68445L77.4357 7.93202C77.3028 7.81102 77.1308 7.68417 76.9277 7.54934L77.1347 7.32211ZM74.6102 8.06826C74.9014 8.19126 75.154 8.32489 75.3692 8.47302L75.1887 8.79665C74.9922 8.65584 74.7347 8.51941 74.4249 8.3891L74.6102 8.06826ZM74.3981 9.33009L75.2657 9.09077L75.7039 10.6794C75.7682 10.5663 75.8341 10.4444 75.9007 10.3098L76.1035 10.6688C75.9514 10.9597 75.7802 11.2269 75.5862 11.4712L75.357 11.1818C75.4038 11.1108 75.4215 11.0395 75.4013 10.9662L75.0078 9.53952L74.4949 9.68098L74.3981 9.33009Z" fill="white"/>
<path d="M79.4288 6.93218L81.3092 6.4086L81.409 6.76697L79.5286 7.29054L79.4288 6.93218ZM79.6007 7.92235L81.7432 7.32582L81.8429 7.68419L81.2418 7.85156L81.6967 9.48541C81.7654 9.73203 81.661 9.89396 81.3874 9.97014L80.8287 10.1257L80.648 9.78988C80.8295 9.75594 81.0051 9.71536 81.1669 9.6703C81.2787 9.63918 81.3247 9.5807 81.3021 9.49978L80.8719 7.95456L79.7004 8.28072L79.6007 7.92235ZM78.7211 6.92575L79.0993 6.98655C79.0092 7.46836 78.7676 7.94256 78.3687 8.41899L78.1551 8.08403C78.4548 7.71407 78.6426 7.32962 78.7211 6.92575ZM79.1479 7.75776L79.5222 7.81963C79.4761 8.05668 79.3998 8.28968 79.2933 8.51864L79.8234 10.4222L79.465 10.522L79.0348 8.97679C78.9293 9.13487 78.815 9.29124 78.6843 9.44805L78.4756 9.11587C78.829 8.68528 79.0557 8.23187 79.1479 7.75776Z" fill="white"/>
<path d="M81.8933 5.98509L82.2365 5.89033C82.4831 6.09197 82.6943 6.31583 82.8712 6.56576C83.0763 6.85769 83.2317 7.17996 83.3286 7.53083C83.4244 7.87784 83.4553 8.23032 83.4302 8.58999C83.4044 8.88758 83.338 9.18809 83.231 9.49155L82.8878 9.58631C82.9724 9.27661 83.0223 8.9765 83.0375 8.68596C83.0567 8.31964 83.0219 7.96823 82.9304 7.63664C82.8377 7.30119 82.6873 6.98172 82.4839 6.681C82.3207 6.43559 82.1238 6.20362 81.8933 5.98509Z" fill="white"/>
<path d="M84.1848 6.63776L86.3639 6.95306L86.4468 7.25799L84.7284 8.63717L84.6277 8.26662L85.9234 7.23864L84.2855 7.00831L84.1848 6.63776Z" fill="white"/>
<path d="M88.214 4.97939L88.9228 7.67166L88.5708 7.76433L88.5178 7.56318L87.9066 7.72408L87.9891 8.0374L87.6371 8.13007L86.8988 5.32562L87.2663 5.22888C87.281 5.00167 87.2791 4.77466 87.251 4.54216L87.6317 4.4957C87.649 4.71864 87.6429 4.93119 87.6183 5.13621L88.214 4.97939ZM87.817 7.38368L88.4282 7.22278L88.2276 6.46074L87.6164 6.62164L87.817 7.38368ZM87.5299 6.29284L88.141 6.13195L87.9537 5.4202L87.3425 5.58109L87.5299 6.29284ZM89.1547 5.72446C89.4935 5.97444 89.7631 6.19715 89.9616 6.40134L89.7255 6.68273C89.5113 6.46612 89.2358 6.2367 88.9057 5.98855L89.1547 5.72446ZM90.211 4.4578C90.5624 5.79233 90.7599 6.62135 90.8027 6.94099C90.8373 7.22969 90.6883 7.41782 90.3595 7.50438C90.2822 7.52475 90.1409 7.55367 89.9444 7.59298L89.7669 7.27987C89.9391 7.2428 90.0881 7.21184 90.2119 7.17925C90.3666 7.13852 90.4342 7.03387 90.4147 6.86529C90.3869 6.66577 90.2275 6.01286 89.945 4.90838L88.9741 5.16398C88.9269 5.42459 88.8591 5.66993 88.763 5.90203L88.4661 5.66996C88.6237 5.2314 88.6825 4.73198 88.6348 4.17373L89.0106 4.12442C89.029 4.35123 89.0278 4.56663 89.0158 4.77247L90.211 4.4578Z" fill="white"/>
<path d="M90.8605 3.6457C91.1758 3.78542 91.4484 3.93581 91.6773 4.09299L91.4813 4.41409C91.2776 4.25885 91.0079 4.10361 90.6684 3.94934L90.8605 3.6457ZM93.9609 6.56507C93.7474 6.61841 93.5136 6.67273 93.2643 6.73092C93.0111 6.79008 92.7996 6.8182 92.6269 6.82013C92.46 6.81235 92.3009 6.75316 92.1516 6.65032C92.0807 6.59792 92.0264 6.57852 91.9798 6.59016C91.8983 6.61052 91.8023 6.82007 91.6917 7.21879L91.357 7.03444C91.4725 6.67161 91.5976 6.43006 91.7334 6.31365L91.459 5.21543L90.939 5.34539L90.8536 5.00389L91.719 4.78761L92.0856 6.25449C92.1089 6.26517 92.1331 6.27972 92.1584 6.29816C92.2738 6.38063 92.3863 6.43496 92.496 6.46116C92.626 6.4864 92.8054 6.47865 93.0363 6.42919C93.2585 6.37779 93.5195 6.31668 93.8222 6.24103C94.0123 6.19351 94.2054 6.14114 94.3984 6.08876C94.5915 6.03639 94.7409 5.9908 94.8437 5.95685L94.8457 6.34394L93.9609 6.56507ZM92.5165 3.63999L91.7676 3.82718L91.691 3.52061L93.8214 2.98815L93.8864 3.24815C93.7098 3.49843 93.51 3.72155 93.2888 3.92527C93.2985 3.93109 93.3072 3.93303 93.3169 3.93885L94.0969 3.74391L94.5275 5.46691C94.5847 5.69587 94.4858 5.84429 94.2335 5.90733L93.9347 5.98201L93.7805 5.69484L94.0599 5.6415C94.1453 5.62017 94.1812 5.56584 94.1598 5.48047L94.1104 5.28255L93.5516 5.42222L93.7106 6.05864L93.373 6.14302L93.2139 5.50659L92.6668 5.64335L92.8278 6.28753L92.4785 6.37482L91.9548 4.27928L92.8473 4.0562C92.6979 4.00284 92.532 3.94947 92.3516 3.90386L92.5165 3.63999ZM93.02 3.80689C93.1627 3.68466 93.2907 3.5537 93.4052 3.41789L92.5359 3.63514C92.7067 3.69142 92.8687 3.74576 93.02 3.80689ZM92.5242 5.07289L92.5921 5.34454L93.1393 5.20778L93.0714 4.93614L92.5242 5.07289ZM93.409 4.85176L93.4769 5.12341L94.0357 4.98374L93.9678 4.7121L93.409 4.85176ZM93.8921 4.40941L93.8243 4.13777L93.2654 4.27743L93.3333 4.54907L93.8921 4.40941ZM92.9957 4.63345L92.9278 4.36181L92.3807 4.49856L92.4485 4.7702L92.9957 4.63345Z" fill="white"/>
<path d="M98.2202 2.22921L98.9294 5.26753L98.5711 5.35119L98.5192 5.12916L97.8376 5.28828L97.8903 5.51421L97.5319 5.59786L96.8218 2.55565L98.2202 2.22921ZM97.7566 4.9416L98.4383 4.78248L97.9428 2.65955L97.2611 2.81867L97.7566 4.9416ZM95.5316 3.34562C95.4875 3.5613 95.428 3.76412 95.3571 3.95318L94.9856 3.8222C95.1495 3.39785 95.2368 2.9626 95.2438 2.51736L95.6281 2.50979C95.6237 2.66691 95.6088 2.81415 95.593 2.9575L96.6564 2.70927L96.7391 3.06374L96.2094 3.1874C96.258 3.43073 96.299 3.65938 96.3238 3.87129L96.9315 3.72944L97.0142 4.08391L96.3559 4.23758C96.3604 4.32691 96.3609 4.41716 96.3635 4.4987C96.6575 4.68474 96.9617 4.89714 97.2801 5.13499L97.1342 5.53051C96.8127 5.2441 96.5474 5.02261 96.3383 4.86603C96.2702 5.31323 96.0746 5.72447 95.7427 6.09767L95.4321 5.85801C95.7672 5.46351 95.9466 5.03552 95.9733 4.56924C95.9716 4.49159 95.9729 4.40914 95.9703 4.3276L95.2029 4.50673L95.1202 4.15226L95.9421 3.9604C95.9173 3.74849 95.8762 3.51984 95.8276 3.27651L95.5316 3.34562Z" fill="white"/>
<path d="M98.7085 1.68884L99.9132 3.33916L99.4995 5.34013L99.1563 5.26715L99.5379 3.42047L98.4262 1.89733L98.7085 1.68884ZM99.377 1.54401L100.582 3.19433L100.168 5.1953L99.8248 5.12232L100.206 3.27564L99.0791 1.75589L99.377 1.54401Z" fill="white"/>
</svg>
