<svg width="43" height="23" viewBox="0 0 43 23" fill="none" xmlns="http://www.w3.org/2000/svg">
<path d="M4.13887 1.49679L4.42109 1.72913L3.18943 3.16565L3.43996 5.03464L3.09244 5.08324L2.8208 3.0581L4.13887 1.49679ZM4.79549 1.68837L5.06235 1.91624L3.84605 3.35724L4.09659 5.22622L3.74906 5.27483L3.47742 3.24968L4.79549 1.68837Z" fill="white"/>
<path d="M5.98843 2.91347L7.87175 3.52462L7.76557 3.85182L7.00844 3.60613L6.85658 4.0741L7.49577 4.28153L7.39206 4.60112L6.75287 4.3937L6.58125 4.92255L6.96933 5.04848C6.95023 4.87407 6.91992 4.72125 6.88087 4.58242L7.19585 4.58371C7.24385 4.73385 7.27796 4.88791 7.29573 5.05347L7.06064 5.07811L7.44872 5.20405L7.34254 5.53125L5.24616 4.85096L5.35234 4.52376L6.216 4.80402L6.38762 4.27517L5.74843 4.06775L5.85214 3.74816L6.49133 3.95558L6.64319 3.4876L5.88225 3.24067L5.98843 2.91347ZM8.72627 3.13327L7.63608 6.49281L7.27083 6.37428L7.31774 6.2297L4.85231 5.42965L4.80539 5.57423L4.44014 5.4557L5.53034 2.09616L8.72627 3.13327ZM4.96219 5.09103L7.42763 5.89109L8.24991 3.35716L5.78447 2.55711L4.96219 5.09103Z" fill="white"/>
<path d="M10.39 3.53433L10.7365 3.71756C10.6666 3.79452 10.5942 3.86636 10.5207 3.92932L12.133 4.50514L12.0294 4.79519C11.7105 4.97439 11.3548 5.1022 10.9674 5.17619C11.3166 5.47082 11.7286 5.73263 12.2097 5.95542L11.9279 6.23283C11.3683 5.95649 10.892 5.625 10.5043 5.23592C9.97962 5.27789 9.39978 5.23645 8.77231 5.11429L8.7263 4.71984C9.25395 4.83608 9.74365 4.89205 10.1879 4.88505C10.0447 4.715 9.92205 4.53526 9.81334 4.35202C9.64625 4.41552 9.47055 4.46745 9.28247 4.50647L9.16623 4.14215C9.69711 4.04717 10.105 3.84456 10.39 3.53433ZM10.6351 4.85788C10.9407 4.82263 11.2243 4.75402 11.4896 4.65339L10.1674 4.18117C10.1521 4.18843 10.1419 4.19328 10.1354 4.19946C10.2735 4.4314 10.4408 4.65258 10.6351 4.85788ZM10.1473 5.36749L10.5013 5.49396C10.4529 5.62957 10.3959 5.75361 10.334 5.86742L11.6336 6.33157C11.3906 6.9881 11.1928 7.36345 11.0416 7.45386C10.8904 7.54427 10.6778 7.5448 10.4142 7.45063C10.2861 7.40488 10.1306 7.34085 9.95378 7.26497L9.97908 6.90872C10.1723 6.98621 10.3278 7.05025 10.4456 7.10084C10.6391 7.16568 10.7744 7.1673 10.8503 7.10945C10.9275 7.04783 11.0317 6.85141 11.1614 6.52396L10.1405 6.15936C10.0743 6.23766 10.0057 6.31085 9.93226 6.37381C9.62283 6.64557 9.08254 6.76692 8.30628 6.74027L8.17255 6.36546C8.85114 6.40394 9.33224 6.32941 9.61342 6.13676C9.66104 6.09855 9.70867 6.06034 9.74876 6.01945L8.69024 5.6414L8.8046 5.32121L9.97236 5.73827C10.038 5.6258 10.0988 5.5031 10.1473 5.36749Z" fill="white"/>
<path d="M16.4414 6.1707L16.1271 6.97977L15.8325 6.86533L15.747 7.0853L14.3228 6.5319L14.4083 6.31192L14.1063 6.19457L14.4206 5.3855L15.2334 5.70132C15.2338 5.58989 15.2298 5.48965 15.217 5.39024L15.6055 5.47256C15.6089 5.58544 15.6042 5.70805 15.5951 5.84185L16.4414 6.1707ZM14.4869 6.23091L15.8254 6.751L15.9718 6.37443L14.6333 5.85434L14.4869 6.23091ZM13.9061 6.76481L15.9381 7.55436L15.8078 7.88992L15.2149 7.65957L14.86 8.57304C14.8238 8.66625 14.8348 8.72631 14.8944 8.74949L15.01 8.7944C15.0398 8.80599 15.0717 8.80121 15.0991 8.78609C15.1368 8.7664 15.2148 8.62078 15.3332 8.34922L15.6104 8.58566C15.4473 8.91709 15.3303 9.10767 15.2572 9.15222C15.1833 9.18786 15.0859 9.18437 14.9577 9.13884L14.6594 9.02294C14.5513 8.98093 14.4875 8.91322 14.4628 8.8221C14.4322 8.72435 14.4371 8.62328 14.4777 8.51888L14.8645 7.52339L14.5923 7.41764C14.4176 7.77889 14.2493 8.03534 14.0814 8.18037C13.8751 8.35772 13.5985 8.47337 13.2513 8.52731L13.1369 8.14813C13.4248 8.11408 13.6557 8.02785 13.8282 7.89318C13.9667 7.77964 14.1058 7.57622 14.2455 7.28291L13.7758 7.10037L13.9061 6.76481ZM13.2784 4.7357L14.4044 5.17322L14.2972 5.44912C14.0757 5.7321 13.8283 6.02648 13.5564 6.32852C13.6296 6.74749 13.6256 7.08923 13.5406 7.35228C13.4725 7.52752 13.3859 7.6398 13.2884 7.69202C13.1501 7.74984 12.956 7.73023 12.701 7.63544L12.7259 7.22887C12.7947 7.27276 12.8589 7.30629 12.9111 7.32658C12.9961 7.35099 13.063 7.35553 13.1015 7.34475C13.1392 7.32506 13.1715 7.28611 13.1975 7.219C13.2946 6.9692 13.2914 6.6461 13.1931 6.24744C13.4834 5.9311 13.7308 5.63672 13.9287 5.37032L13.4925 5.20082L12.3321 8.18729L11.9891 8.05401L13.2784 4.7357Z" fill="white"/>
<path d="M16.7284 7.47865L16.9879 7.72959C16.6832 8.11836 16.3846 8.38836 16.0868 8.54175L15.9199 8.20368C16.2072 8.05461 16.4757 7.81539 16.7284 7.47865ZM18.0384 6.48566L18.3929 6.63317L18.1071 7.32008L19.2741 7.80563C19.1592 8.06107 19.0556 8.29959 18.956 8.5181L19.2489 8.50134C19.2805 8.9044 19.2946 9.33916 19.2859 9.80778L18.9001 9.82921C18.9177 9.41197 18.912 9.01966 18.8872 8.66275C18.7587 8.9299 18.6425 9.1675 18.5417 9.36817C18.3388 9.75166 18.1593 10.0062 18.0067 10.1334C17.8572 10.2531 17.6868 10.2775 17.4923 10.2139L17.0602 10.0342L17.1055 9.65445C17.228 9.71408 17.3447 9.76694 17.4555 9.81304C17.6364 9.88833 17.8105 9.81347 17.9747 9.59584C18.1414 9.36191 18.4073 8.827 18.7745 7.99635L17.951 7.6537C17.6697 8.22554 17.3666 8.66262 17.0415 8.96495C16.682 9.28759 16.2353 9.46567 15.7036 9.50441L15.6391 9.11798C16.1569 9.06048 16.5679 8.88488 16.8705 8.59488C17.1298 8.32582 17.3717 7.96293 17.5964 7.50619L16.7175 7.1405L16.8588 6.80073L17.7526 7.17257L18.0384 6.48566Z" fill="white"/>
<path d="M21.8728 8.13936L22.1385 8.40938C21.5416 9.05996 20.9395 9.4941 20.3338 9.70811L20.1641 9.34924C20.7856 9.12908 21.3569 8.72511 21.8728 8.13936ZM22.3946 10.6858C22.484 11.1972 22.5308 11.7161 22.5244 12.2465L22.1342 12.2495C22.1345 12.1097 22.1385 11.9716 22.1356 11.8392C21.4568 11.6539 20.718 11.4159 19.9121 11.1221L19.9982 10.7579C20.2952 10.7882 20.9043 10.3877 21.8291 9.55816L22.118 9.82525C21.5526 10.3149 21.0251 10.6988 20.5427 10.9803C21.0787 11.1726 21.608 11.3402 22.1235 11.4799C22.1091 11.185 22.0814 10.9106 22.0367 10.6549L22.3946 10.6858ZM23.1998 8.68894C23.1114 9.44546 23.2225 10.1457 23.5423 10.7892L23.1676 10.9651C22.8367 10.2773 22.7234 9.53245 22.8291 8.72672L23.1998 8.68894Z" fill="white"/>
<path d="M27.5636 10.8157L27.4106 11.1504L24.8895 9.99798L24.3989 11.0712C24.0402 11.8176 23.6077 12.35 23.1052 12.67L22.9497 12.3175C23.3627 12.0489 23.7312 11.5796 24.0533 10.9132L24.6969 9.50531L27.5636 10.8157ZM24.824 10.5838L27.1305 11.6381L26.9808 11.9655L26.0932 11.5597L25.3648 13.1532C25.2401 13.426 25.0496 13.506 24.7949 13.3896L24.4093 13.2134L24.4789 12.8494C24.5923 12.9188 24.7054 12.9793 24.8146 13.0292C24.9201 13.0774 25.0046 13.0369 25.0611 12.9132L25.7512 11.4034L24.6744 10.9112L24.824 10.5838Z" fill="white"/>
<path d="M28.1989 12.1839L28.5288 12.3378L28.2904 12.8489L28.6675 13.0247L28.5238 13.3329L28.1467 13.157L27.954 13.5703C28.1324 13.6138 28.3052 13.6502 28.4671 13.6816L28.3149 14.0078C28.1494 13.9748 27.9766 13.9383 27.8002 13.9002L27.4401 14.6724L27.1102 14.5185L27.4399 13.8116C27.2127 13.7498 26.9746 13.683 26.7327 13.6055L26.8464 13.248C27.1065 13.334 27.3573 13.4112 27.5954 13.4781L27.8168 13.0032L27.2368 12.7327L27.3063 12.3944C27.4919 12.2426 27.6974 12.0383 27.9211 11.7763L27.6021 11.6276L27.7576 11.294L28.1637 11.4834C28.2622 11.3572 28.3642 11.2238 28.4659 11.0814L28.7701 11.2807C28.6769 11.4049 28.5854 11.5256 28.4972 11.6389L29.1497 11.9432L28.9942 12.2767L28.2547 11.9319C28.0464 12.1702 27.8481 12.3778 27.656 12.5531L27.9605 12.6951L28.1989 12.1839ZM29.2947 12.0108L29.8421 12.2661C29.9404 12.131 30.0351 11.9942 30.1315 11.8538L30.4534 12.0436C30.3604 12.1768 30.2708 12.3027 30.1865 12.4267L31.0276 12.8189L30.872 13.1524L29.9621 12.7281C29.8826 12.8323 29.8049 12.9328 29.7288 13.0297L30.8055 13.5318L30.6516 13.8617L29.4916 13.3208C29.3874 13.4399 29.2867 13.5518 29.1947 13.6546L30.3257 14.182L30.1939 14.4648C29.9697 14.6427 29.6892 14.7899 29.3417 14.9104C29.435 15.051 29.5177 15.1955 29.5968 15.3382L29.266 15.5459C29.0278 15.0818 28.7537 14.6759 28.4399 14.3265L28.7516 14.1409C28.8918 14.2945 29.0197 14.4557 29.1369 14.6207C29.4032 14.5418 29.6349 14.4424 29.8285 14.3208L28.6249 13.7596C28.8005 13.5723 28.974 13.3707 29.1508 13.1618L28.723 12.9624L28.8769 12.6325L29.388 12.8708C29.4675 12.7667 29.5453 12.6661 29.6214 12.5692L29.1392 12.3443L29.2947 12.0108Z" fill="white"/>
<path d="M31.3856 13.863L32.1655 12.9379L32.4829 13.1564L31.9817 13.7392L32.5183 13.9894C32.7122 13.7532 32.8984 13.4958 33.0805 13.2187L33.4119 13.4262C33.2349 13.6923 33.0554 13.9352 32.8772 14.1567L34.5377 14.9307L34.3839 15.2606L32.6364 14.446C32.5444 14.5488 32.4521 14.6426 32.3651 14.7344L33.8153 15.4104L33.6801 15.7005C33.4473 15.9538 33.1446 16.1393 32.7648 16.2535C32.9693 16.5342 33.2369 16.8311 33.564 17.1424L33.2343 17.3859C32.87 17.0219 32.583 16.6719 32.3736 16.3448C31.9942 16.4107 31.558 16.428 31.0651 16.3968L31.0359 15.986C31.4593 16.0245 31.8387 16.0248 32.1687 15.9889C32.021 15.6905 31.938 15.4047 31.9217 15.1367C31.4105 15.5516 30.8812 15.8256 30.3373 15.9605L30.3083 15.5586C31.0148 15.3495 31.6688 14.9218 32.2702 14.2753L31.3856 13.863ZM32.2597 15.0648C32.2796 15.3345 32.3752 15.6218 32.5481 15.923C32.8627 15.8446 33.1224 15.7229 33.3219 15.56L32.2597 15.0648ZM34.0396 13.6702C34.2018 13.9754 34.3225 14.2655 34.4034 14.5371L34.0419 14.6687C33.9848 14.4126 33.873 14.1222 33.7011 13.7905L34.0396 13.6702Z" fill="white"/>
<path d="M35.0972 14.8889L36.5642 15.5571C36.5492 15.3392 36.5073 15.1224 36.4402 14.9028L36.8441 14.9329C36.8956 15.1673 36.9248 15.4312 36.9283 15.7228L38.3079 16.3512L38.1521 16.6934L37.5951 16.4397C37.1684 16.9134 36.6994 17.2581 36.1864 17.4772C36.4241 17.959 36.7796 18.433 37.2474 18.8921L36.9218 19.0955C36.4352 18.6102 36.0718 18.115 35.8351 17.6116C35.258 17.7883 34.6293 17.8273 33.9491 17.7285L33.9027 17.3381C34.562 17.4538 35.1556 17.434 35.6923 17.2785C35.4743 16.6957 35.4095 16.0948 35.4983 15.4848L34.9414 15.2311L35.0972 14.8889ZM35.8296 15.6356C35.7786 16.153 35.8471 16.6589 36.0404 17.1513C36.4828 16.9616 36.8839 16.6696 37.2384 16.2772L35.8296 15.6356Z" fill="white"/>
<path d="M39.9038 16.3116L40.1634 16.6074C39.9081 16.8541 39.6224 17.0702 39.308 17.2521L38.2583 19.67L37.9133 19.5203L38.7863 17.5096C38.5689 17.5984 38.3422 17.6788 38.1076 17.747L38.1552 17.336C38.8369 17.1217 39.4205 16.782 39.9038 16.3116ZM40.1875 20.4291L39.5014 20.1313C39.2079 20.0038 39.1248 19.7933 39.2523 19.4998L39.6983 18.4724C39.5359 18.4848 39.3699 18.4956 39.2018 18.5011L39.1874 18.1024C39.4237 18.1003 39.6544 18.0914 39.8751 18.0652L40.4947 16.6379L40.8433 16.7892L40.3176 18C40.7808 17.9176 41.2178 17.7847 41.6216 17.598L41.7443 17.9783C41.2396 18.1866 40.7031 18.3374 40.1345 18.422L39.6215 19.6034C39.5769 19.7062 39.6097 19.7814 39.7271 19.8324L40.2738 20.0697C40.3582 20.1064 40.4333 20.1041 40.4976 20.0666C40.5581 20.0275 40.6682 19.8442 40.8221 19.5098L41.0988 19.7564C40.89 20.1672 40.7308 20.4033 40.6265 20.4627C40.5185 20.5205 40.371 20.5088 40.1875 20.4291Z" fill="white"/>
</svg>
