<svg width="84" height="15" viewBox="0 0 84 15" fill="none" xmlns="http://www.w3.org/2000/svg">
<path d="M2.87328 2.01968L5.77037 2.96687L5.65477 3.32045L2.75768 2.37326L2.87328 2.01968ZM2.70165 3.40703L5.08548 4.18642L4.96987 4.54L2.58605 3.76061L2.70165 3.40703ZM1.7107 4.63593L5.15527 5.76212L5.03718 6.12331L1.59261 4.99712L1.7107 4.63593Z" fill="white"/>
<path d="M6.52009 4.43585L7.36923 4.69568L7.8015 3.91186L6.58135 3.53849L6.68903 3.1866L9.82164 4.14519L9.71396 4.49708L8.16869 4.02423L7.73642 4.80805L9.00629 5.19663L8.50418 6.83753L9.10087 7.02011L8.99201 7.37583L5.5687 6.32829L5.67755 5.97257L6.52286 6.23124L7.18887 5.02534L6.41241 4.78774L6.52009 4.43585ZM6.88623 6.34243L8.13316 6.72399L8.5276 5.43499L7.55224 5.13653L6.88623 6.34243Z" fill="white"/>
<path d="M11.8228 4.43872C11.9228 4.4673 11.9926 4.52884 12.0338 4.63214C12.0723 4.73049 12.0761 4.84807 12.0387 4.97883C11.9838 5.17114 11.8766 5.32772 11.7233 5.442C11.5662 5.55518 11.3849 5.60736 11.1772 5.60625L11.2453 5.3678C11.3552 5.36176 11.4612 5.3255 11.5547 5.26067C11.6453 5.1909 11.7014 5.11123 11.7277 5.01893C11.7063 5.02113 11.6733 5.02002 11.631 5.00793C11.5541 4.98595 11.4937 4.9354 11.4552 4.86617C11.4168 4.79694 11.4085 4.72386 11.4327 4.63925C11.4569 4.55464 11.5036 4.4931 11.5805 4.45684C11.6497 4.41838 11.7305 4.41234 11.8228 4.43872ZM10.9267 4.18264C11.0267 4.21121 11.1003 4.27385 11.1377 4.37605C11.18 4.4755 11.1838 4.59308 11.1464 4.72385C11.0915 4.91615 10.9843 5.07274 10.8272 5.18591C10.67 5.29909 10.4887 5.35128 10.281 5.35017L10.3492 5.11172C10.4629 5.10678 10.5651 5.06942 10.6585 5.00459C10.753 4.93591 10.8091 4.85625 10.8355 4.76394C10.814 4.76614 10.7811 4.76504 10.7388 4.75295C10.6618 4.73097 10.6052 4.68152 10.5668 4.61228C10.5245 4.54195 10.5162 4.46888 10.5404 4.38426C10.5646 4.29965 10.6113 4.23812 10.6805 4.19966C10.7536 4.1623 10.8344 4.15626 10.9267 4.18264Z" fill="white"/>
<path d="M13.713 5.85865L15.6272 6.36482L15.5393 6.69739L14.7697 6.4939L14.644 6.96955L15.2936 7.14134L15.2077 7.46618L14.5581 7.29439L14.4159 7.83191L14.8104 7.93621C14.7817 7.76312 14.7429 7.61221 14.6963 7.47575L15.0109 7.45963C15.0671 7.6069 15.1097 7.75883 15.1365 7.92317L14.9032 7.96076L15.2976 8.06506L15.2097 8.39763L13.0789 7.83419L13.1668 7.50162L14.0447 7.73374L14.1868 7.19622L13.5371 7.02442L13.623 6.69959L14.2727 6.87138L14.3985 6.39573L13.6251 6.19122L13.713 5.85865ZM16.4588 5.92686L15.5559 9.3415L15.1846 9.24333L15.2235 9.09638L12.7176 8.43375L12.6788 8.5807L12.3075 8.48253L13.2105 5.0679L16.4588 5.92686ZM12.8086 8.08958L15.3145 8.75221L15.9955 6.17673L13.4897 5.5141L12.8086 8.08958Z" fill="white"/>
<path d="M19.0399 8.61565C18.9778 8.6175 18.9167 8.61546 18.8585 8.61823C18.8748 8.81107 18.8602 9.01309 18.8147 9.22428C18.7415 9.5358 18.6436 9.74288 18.5305 9.83958C18.3963 9.95597 18.154 9.973 17.7996 9.88975L17.675 9.86048L17.6273 9.50411L17.8258 9.55076C18.0439 9.602 18.1875 9.60286 18.2558 9.55726C18.3364 9.49402 18.4052 9.35818 18.4565 9.14011C18.4656 9.10117 18.4709 9.06132 18.4791 9.02627C17.9845 9.24288 17.3702 9.37387 16.6433 9.42496L16.5305 9.06564C17.3401 9.02986 17.9969 8.89245 18.5001 8.65729C18.495 8.57392 18.4821 8.48872 18.4675 8.41131C18.0374 8.59789 17.4985 8.70549 16.8538 8.73892L16.7458 8.37661C17.4189 8.36219 17.9619 8.27199 18.3757 8.10214C18.3487 8.04237 18.3246 7.9874 18.2967 7.93153C18.2793 7.93566 18.2667 7.93681 18.2531 7.94185C17.9717 8.0031 17.5832 8.04743 17.0917 8.07577L16.9771 7.72423C17.3527 7.73441 17.7114 7.71185 18.0531 7.65653C18.1557 7.63955 18.2544 7.62165 18.3501 7.59894L17.4779 7.39402L17.5584 7.05135L19.8714 7.59477L19.7909 7.93744L18.9265 7.73434C18.8184 7.77469 18.7151 7.81206 18.6166 7.84645C18.7003 7.99758 18.7626 8.15194 18.8075 8.31042C19.174 8.28968 19.5359 8.21856 19.894 8.09315L20.0847 8.40092C19.852 8.48185 19.6122 8.54056 19.3605 8.58004C19.4326 9.07772 19.6387 9.51237 19.97 9.88605L19.6329 10.1315C19.3016 9.68792 19.1042 9.18135 19.0399 8.61565ZM19.035 6.36282C19.0541 6.47413 19.0665 6.5962 19.0761 6.72995L20.5364 7.07302L20.3662 7.7973L19.9963 7.71039L20.0859 7.32878L17.4848 6.71766L17.3951 7.09927L17.0252 7.01236L17.1953 6.28808L18.7023 6.64213C18.6872 6.53174 18.6654 6.43211 18.6418 6.34028L19.035 6.36282Z" fill="white"/>
<path d="M21.3997 6.94626L21.7604 7.01931L21.6294 7.66617L22.3704 7.81624L22.3005 8.16124L21.5595 8.01117L21.4293 8.65412L22.0291 8.7756L21.7266 10.2693C22.0422 10.1822 22.339 10.0464 22.6219 9.85882C22.6027 9.71208 22.5936 9.55516 22.587 9.38649C22.5812 9.1731 22.5889 8.93386 22.6138 8.66955L22.0851 8.66042L22.0993 8.30823L22.6515 8.32212C22.6939 7.99197 22.7552 7.62891 22.8354 7.23295L23.1961 7.306C23.1222 7.69099 23.0657 8.03053 23.0257 8.32853L24.0737 8.35304L24.0556 8.70444L22.9794 8.67829C22.9497 8.94572 22.9374 9.16769 22.9424 9.34421L22.9496 9.61094C23.1776 9.41224 23.3963 9.17901 23.6064 8.90731L23.8568 9.16208C23.5735 9.51284 23.2865 9.80161 22.9949 10.0323C23.0088 10.1249 23.0298 10.2026 23.0524 10.2725C23.1194 10.4656 23.1795 10.5717 23.2344 10.5828C23.2971 10.5955 23.3972 10.424 23.5337 10.0721L23.8022 10.2979C23.5963 10.8112 23.3972 11.0484 23.209 11.0103C23.0522 10.9785 22.9153 10.8284 22.7983 10.5598C22.7522 10.4647 22.7164 10.3595 22.69 10.2481C22.3679 10.4481 22.0436 10.5783 21.7171 10.6387L21.5634 10.3097C21.5728 10.3034 21.5853 10.3019 21.5932 10.3035L20.5974 10.1018L20.5426 10.3723L20.1859 10.3L20.5551 8.47705L21.0686 8.58107L21.3997 6.94626ZM20.6665 9.76071L21.431 9.91554L21.6064 9.04913L20.842 8.8943L20.6665 9.76071ZM23.6154 7.47254C23.7631 7.71059 23.8771 7.91326 23.9488 8.08288L23.6363 8.21548C23.5638 8.02939 23.4553 7.81967 23.3154 7.5832L23.6154 7.47254Z" fill="white"/>
<path d="M27.5844 10.2435L27.3405 11.7398L26.9733 11.6799L26.9978 11.5299L26.145 11.3909L26.1206 11.5409L25.7534 11.481L25.9967 9.98874C25.9467 9.99681 25.8962 10.0088 25.8535 10.0221L25.7416 9.81341L25.5286 11.1202L25.2088 11.068L25.2339 10.9141L24.5114 10.7963L24.4863 10.9503L24.1507 10.8955L24.647 7.85173L26.0248 8.07634L25.9102 8.77906C26.1857 8.58081 26.4425 8.29844 26.6805 7.93197L27.0394 8.06748C26.9851 8.15184 26.9315 8.23226 26.8785 8.30873L27.9128 8.47735L27.8659 8.76555C27.6906 9.04499 27.4659 9.27989 27.191 9.4742C27.3982 9.67009 27.6481 9.85267 27.9413 10.018L27.7248 10.3272C27.3952 10.1114 27.1195 9.88809 26.8984 9.65345C26.6326 9.79249 26.3351 9.90205 26.0052 9.98608L27.5844 10.2435ZM25.8935 8.88171L25.7648 9.67129C26.1012 9.59644 26.3974 9.49478 26.6534 9.36629C26.5371 9.20954 26.4418 9.04811 26.3703 8.89054C26.2654 8.98692 26.1624 9.07146 26.0529 9.14681L25.8935 8.88171ZM26.2023 11.0395L27.0551 11.1785L27.1606 10.5311L26.3079 10.3921L26.2023 11.0395ZM25.2873 10.5864L25.445 9.61915L25.2318 9.5844L25.0741 10.5516L25.2873 10.5864ZM25.4984 9.29148L25.6496 8.36373L25.4365 8.32897L25.2852 9.25673L25.4984 9.29148ZM25.1364 8.28006L24.9272 8.24595L24.7759 9.1737L24.9852 9.20781L25.1364 8.28006ZM24.7225 9.50138L24.5648 10.4686L24.7741 10.5027L24.9317 9.53549L24.7225 9.50138ZM26.9316 9.20091C27.1271 9.07066 27.289 8.92279 27.4213 8.75792L26.6238 8.62791C26.6146 8.63452 26.6088 8.64572 26.6035 8.65297C26.6818 8.84406 26.7896 9.0278 26.9316 9.20091Z" fill="white"/>
<path d="M28.4939 9.00664L28.7857 9.06002C28.7325 9.45655 28.6453 9.8331 28.529 10.1822L28.233 10.0599C28.3509 9.73112 28.4394 9.37886 28.4939 9.00664ZM29.5858 9.03444C29.6347 9.20508 29.678 9.39117 29.711 9.59623C29.8487 9.30595 29.949 8.99128 30.0034 8.65528L30.3437 8.74237C30.3194 8.88454 30.2917 9.02228 30.2604 9.1556L30.7293 9.20903L30.8104 8.49764L31.1919 8.54111L31.1109 9.25251L31.9455 9.34761L31.9043 9.70927L31.0697 9.61417L30.9691 10.4965L31.76 10.5866L31.7179 10.9562L30.927 10.8661L30.8301 11.7166L31.768 11.8234L31.7264 12.1891L29.302 11.9128L29.3437 11.5472L30.4486 11.6731L30.5455 10.8226L29.6552 10.7212L29.6974 10.3515L30.5876 10.453L30.6881 9.57069L30.1476 9.5091C30.0448 9.77518 29.9165 10.0182 29.7542 10.2413L29.5041 9.96316C29.5431 9.9032 29.5777 9.84675 29.6079 9.79383L29.432 9.81807C29.4045 9.56533 29.3636 9.32315 29.3016 9.09062L29.5858 9.03444ZM28.9986 8.28716L29.3761 8.33018L28.9613 11.9706L28.5838 11.9276L28.9986 8.28716Z" fill="white"/>
<path d="M32.4665 10.7292L34.4831 10.8451L34.4629 11.1965L32.4463 11.0806L32.4665 10.7292Z" fill="white"/>
<path d="M38.8545 8.88872L39.0364 9.22583C38.6917 9.34374 38.3113 9.41342 37.8951 9.43889L37.8912 10.0869L39.1271 10.0944L39.1249 10.4584L38.7409 10.4561L38.7282 12.552L38.3562 12.5498L38.3689 10.4538L37.8889 10.4509L37.8865 10.8549C37.8622 11.5587 37.7028 12.1178 37.4082 12.536L37.142 12.2464C37.372 11.9118 37.4989 11.4485 37.5185 10.8526L37.529 9.12466C38.021 9.11965 38.4615 9.03833 38.8545 8.88872ZM35.5128 9.15238L36.2248 9.15672C36.1774 9.05243 36.122 8.95209 36.0626 8.85972L36.455 8.79811C36.5023 8.9064 36.5536 9.02672 36.6008 9.15901L37.3408 9.16351L37.3386 9.5155L35.5107 9.50438L35.5128 9.15238ZM35.4673 10.0601L35.8913 10.0627C35.8401 9.92239 35.7809 9.79003 35.7137 9.66962L36.0464 9.54764C36.1095 9.69203 36.1725 9.86441 36.2273 10.0647L36.6073 10.0671C36.6723 9.89946 36.7293 9.7278 36.7784 9.54809L37.1177 9.67016C37.0688 9.81787 37.012 9.94952 36.9512 10.0692L37.3592 10.0716L37.3571 10.4196L36.6171 10.4151L36.6149 10.7751L37.2869 10.7792L37.2848 11.1232L36.6128 11.1191L36.6063 12.1911C36.6049 12.4311 36.4721 12.5503 36.2081 12.5487L36.0001 12.5474L35.9183 12.1949C35.9782 12.2113 36.0341 12.2196 36.0861 12.2199C36.1821 12.2205 36.2304 12.1808 36.2309 12.1008L36.2369 11.1168L35.5249 11.1125L35.527 10.7685L36.2389 10.7728L36.2411 10.4128L35.4652 10.4081L35.4673 10.0601ZM35.7638 11.29L36.1073 11.364C36.0089 11.7675 35.8747 12.1186 35.6969 12.4176L35.3861 12.2157C35.5639 11.9287 35.6898 11.6175 35.7638 11.29ZM37.0159 11.2696C37.1184 11.5262 37.201 11.7587 37.2597 11.9671L36.939 12.0851C36.8765 11.8367 36.798 11.5923 36.7034 11.3517L37.0159 11.2696Z" fill="white"/>
<path d="M39.434 10.6278L41.6522 10.5384C41.9184 9.99129 42.1346 9.3941 42.3046 8.74674L42.686 8.87149C42.4885 9.53598 42.2745 10.085 42.0519 10.5223L43.079 10.481L43.0939 10.8487L39.4488 10.9955L39.434 10.6278ZM39.9599 9.07335C40.1699 9.41718 40.3694 9.79746 40.5623 10.214L40.2096 10.4044C40.0242 9.97549 39.8246 9.59121 39.6109 9.25554L39.9599 9.07335ZM40.9134 8.79475C41.1204 9.16272 41.3169 9.56715 41.5067 10.0079L41.1621 10.1979C40.9719 9.74917 40.7713 9.34091 40.5607 8.9811L40.9134 8.79475ZM40.5182 11.1085L40.8687 11.2626C40.6154 11.7331 40.3116 12.1417 39.9535 12.4924L39.6287 12.2813C39.9795 11.9469 40.2761 11.5586 40.5182 11.1085ZM42.056 11.0226C42.4732 11.4421 42.7921 11.8056 43.0208 12.1166L42.6868 12.3703C42.4528 12.0274 42.1374 11.6518 41.7405 11.2395L42.056 11.0226Z" fill="white"/>
<path d="M45.0513 8.50436C45.117 8.62766 45.1799 8.76723 45.2481 8.92244L46.632 8.81552L46.6597 9.17445L45.9897 9.22621C45.9637 9.40876 45.9214 9.58855 45.8625 9.7616L46.7838 9.69042L46.8121 10.0573L43.9806 10.2761L44.0222 10.8145C44.0543 11.4379 43.9535 11.9512 43.7116 12.351L43.4008 12.1182C43.5927 11.7985 43.6723 11.3751 43.6393 10.8441L43.5694 9.93878L44.375 9.87654L44.195 9.36488L43.4851 9.41973L43.4574 9.0608L44.8612 8.95233C44.7992 8.82473 44.7298 8.70572 44.6574 8.59898L45.0513 8.50436ZM44.7499 9.84757L45.4996 9.78964C45.5585 9.61659 45.6007 9.4368 45.6268 9.25425L44.5659 9.33622L44.7499 9.84757Z" fill="white"/>
<path d="M48.375 8.2854L48.7528 8.24433L49.0926 11.3699L49.5698 11.318L49.23 8.19245L49.6077 8.15138L49.9475 11.277L51.1087 11.1507L51.1489 11.5206L47.6018 11.9062L47.5616 11.5364L48.7148 11.411L48.375 8.2854ZM50.4318 8.81018L50.7762 8.86931C50.6994 9.5697 50.5694 10.1874 50.3866 10.7263L50.0356 10.6437C50.2081 10.1582 50.3426 9.54412 50.4318 8.81018ZM47.703 9.0988C47.9637 9.60961 48.2088 10.1986 48.4422 10.8652L48.1058 10.9903C47.9027 10.3807 47.662 9.79531 47.3921 9.23721L47.703 9.0988Z" fill="white"/>
<path d="M51.3022 9.22066L51.4595 8.02094L51.8446 8.03366L51.7372 8.7948L52.3239 8.71581C52.3598 8.41231 52.3776 8.0951 52.3814 7.76363L52.7723 7.75943C52.7669 8.07901 52.747 8.38036 52.7164 8.66297L54.532 8.41853L54.5806 8.77927L52.6698 9.03652C52.6478 9.17268 52.6207 9.30144 52.5971 9.42571L54.1828 9.21222L54.2255 9.52936C54.1662 9.8683 54.0114 10.1878 53.7533 10.4889C54.077 10.6149 54.4625 10.7204 54.9059 10.806L54.7597 11.1889C54.2566 11.0791 53.8261 10.9393 53.4732 10.7769C53.1894 11.0371 52.8316 11.2871 52.3997 11.5268L52.1535 11.1967C52.5307 11.0007 52.8502 10.7962 53.1088 10.5878C52.8233 10.4164 52.5992 10.2205 52.4408 10.0037C52.2344 10.6289 51.9366 11.1452 51.5515 11.5522L51.3103 11.2295C51.7922 10.6722 52.112 9.95921 52.2694 9.09043L51.3022 9.22066ZM52.6866 9.76076C52.8489 9.97704 53.0844 10.1673 53.3926 10.3276C53.6151 10.0918 53.7681 9.84925 53.8481 9.60438L52.6866 9.76076ZM53.4325 7.62616C53.7338 7.79547 53.992 7.97462 54.2066 8.15964L53.9733 8.4655C53.787 8.28071 53.5362 8.09653 53.2124 7.91006L53.4325 7.62616Z" fill="white"/>
<path d="M56.0451 8.76813L56.5903 8.68182L56.5403 8.36576L55.8805 8.47021L55.928 8.77047C55.9656 9.00752 55.986 9.23917 55.9961 9.45626L56.6954 9.34555L56.6429 9.01369L56.0976 9.1L56.0451 8.76813ZM56.0025 9.80354C55.9956 10.2461 55.935 10.6566 55.8202 11.0311L55.4728 10.8067C55.6429 10.2695 55.6686 9.6134 55.5488 8.83052L55.3386 7.50305L58.3609 7.02456L58.5236 8.05176L57.9744 8.13871L58.0245 8.45477L58.6171 8.36095L58.6696 8.69281L58.077 8.78664L58.1295 9.1185L58.8565 9.00341L58.9103 9.34318L58.5152 9.40573L58.78 9.59465C58.6813 9.76417 58.5663 9.90791 58.4391 10.0252C58.6588 10.1079 58.901 10.1546 59.1699 10.1647L59.0484 10.5484C58.3079 10.4753 57.739 10.1563 57.3379 9.59212L56.848 9.66968L56.9668 10.4203C57.1945 10.3235 57.3932 10.2232 57.5591 10.12L57.6847 10.4525C57.3822 10.6138 57.0179 10.7686 56.5919 10.9171L56.4372 10.6054C56.5482 10.5392 56.5944 10.4469 56.5744 10.3205L56.4805 9.72785L56.0025 9.80354ZM57.7171 9.53208C57.8351 9.66325 57.9657 9.77216 58.1097 9.86276C58.2454 9.74813 58.3637 9.59981 58.4638 9.41386L57.7171 9.53208ZM57.6109 8.19625L56.8998 8.30884L56.9498 8.6249L57.661 8.51231L57.6109 8.19625ZM57.0549 9.28863L57.7661 9.17605L57.7135 8.84418L57.0024 8.95677L57.0549 9.28863ZM58.0361 7.42832L55.7723 7.78672L55.8273 8.13439L58.0911 7.77599L58.0361 7.42832Z" fill="white"/>
<path d="M59.2018 7.29827L59.7373 7.20237L59.6463 6.69445L60.0203 6.62746L60.1113 7.13538L60.5956 7.04864L60.6598 7.40694L60.1755 7.49368L60.2763 8.05672L60.8157 7.96011L60.8799 8.31841L60.3247 8.41784C60.3324 8.50587 60.3354 8.59067 60.3416 8.67083C60.5895 8.82962 60.8448 9.00739 61.109 9.21202L60.9535 9.56902C60.708 9.3326 60.5053 9.15354 60.3446 9.02789C60.321 9.57665 60.1863 10.0274 59.9407 10.3803L59.6174 10.1862C59.9083 9.76841 60.0186 9.20413 59.9507 8.48483L59.3758 8.58778L59.3117 8.22948L59.9023 8.12371L59.8014 7.56067L59.2659 7.65657L59.2018 7.29827ZM62.3842 6.32601L62.7784 8.52699L62.4201 8.59116L62.0873 6.73273L61.1226 6.90549L61.4555 8.76393L61.0972 8.82809L60.703 6.62711L62.3842 6.32601ZM62.8574 9.78477L62.5109 9.84682C62.2865 9.88702 62.1544 9.7847 62.112 9.54846L61.983 8.82793C61.9618 8.98207 61.9261 9.12258 61.8796 9.24875C61.7412 9.61081 61.4635 9.92062 61.055 10.1807L60.8063 9.90422C61.207 9.64554 61.4607 9.36034 61.5681 9.05259C61.6681 8.72585 61.6817 8.32518 61.6121 7.84594L61.4823 7.12146L61.8249 7.06011L61.9546 7.78459C62.0046 8.10886 62.0174 8.40728 61.9995 8.67055L62.2988 8.61696L62.4412 9.4123C62.4532 9.47924 62.491 9.50903 62.558 9.49705L62.7391 9.46461C62.7863 9.45615 62.8143 9.43082 62.8309 9.38721C62.846 9.33573 62.8418 9.19834 62.8127 8.96786L63.1499 9.01311C63.1869 9.35595 63.1757 9.56522 63.1247 9.64344C63.0722 9.71378 62.9834 9.7622 62.8574 9.78477Z" fill="white"/>
<path d="M65.2563 5.97354L65.6174 5.90225L66.0963 8.32742L65.7352 8.39871L65.2563 5.97354ZM66.6428 9.07164L66.0777 9.18323L65.9209 8.84317C66.1084 8.82245 66.2826 8.7962 66.4474 8.76365C66.5573 8.74195 66.6053 8.67539 66.5844 8.56944L65.9761 5.48893L66.345 5.41608L66.9719 8.59078C67.0246 8.85762 66.9136 9.01817 66.6428 9.07164ZM65.0102 6.54404L65.1404 6.89344L64.0671 7.28071C64.1176 7.4542 64.1729 7.61044 64.233 7.74944C64.2938 7.89236 64.3524 8.02351 64.4156 8.13741C64.5716 7.85381 64.6924 7.5364 64.7741 7.18594L65.1331 7.29036C65.0221 7.76077 64.8588 8.17222 64.6383 8.52156C64.6789 8.58285 64.718 8.63628 64.7602 8.68502C64.9386 8.88628 65.0867 8.97529 65.1973 8.95751C65.2578 8.93334 65.2834 8.73258 65.278 8.35445L65.6322 8.49652C65.6129 8.70828 65.5834 8.88942 65.5399 9.04071C65.4861 9.22258 65.4051 9.32829 65.2952 9.34998C65.1068 9.38718 64.8968 9.2941 64.6628 9.07937C64.5783 9.00229 64.5 8.91581 64.4281 8.81993C64.2314 9.06263 64.0034 9.27075 63.7441 9.44427L63.4545 9.15488C63.7437 8.96731 63.9929 8.74278 64.1967 8.4742C64.1178 8.343 64.042 8.20711 63.9718 8.05789C63.882 7.87175 63.7986 7.65582 63.7169 7.40694L63.2528 7.57604L63.1266 7.22586L63.6056 7.04974C63.5161 6.74123 63.4307 6.39115 63.3539 6.00265L63.7307 5.92826C63.8035 6.29713 63.8772 6.62914 63.9597 6.92273L65.0102 6.54404ZM64.2487 5.80557C64.4241 5.95034 64.5994 6.1155 64.77 6.29791L64.487 6.51688C64.3188 6.32584 64.1474 6.1599 63.9721 6.01513L64.2487 5.80557Z" fill="white"/>
<path d="M68.1003 5.70692L68.6825 8.42937L68.3266 8.50549L68.2831 8.30209L67.665 8.43424L67.7328 8.75108L67.3768 8.8272L66.7704 5.99131L67.142 5.91185C67.1672 5.68557 67.176 5.45872 67.1588 5.22516L67.5413 5.19655C67.5481 5.42005 67.5321 5.63208 67.498 5.83573L68.1003 5.70692ZM67.5914 8.09003L68.2095 7.95787L68.0447 7.18729L67.4266 7.31945L67.5914 8.09003ZM67.3555 6.98696L67.9736 6.85481L67.8197 6.13508L67.2016 6.26724L67.3555 6.98696ZM69.0052 6.49514C69.3319 6.76068 69.5908 6.99574 69.7796 7.20898L69.5305 7.47903C69.3267 7.25265 69.0622 7.0106 68.7441 6.7473L69.0052 6.49514ZM70.1195 5.27923C70.4081 6.62872 70.5667 7.46606 70.5945 7.78735C70.6156 8.07735 70.458 8.25832 70.1255 8.32941C70.0473 8.34614 69.9048 8.36843 69.7067 8.39852L69.544 8.07745C69.7177 8.04847 69.8681 8.02451 69.9932 7.99774C70.1497 7.96428 70.2221 7.8629 70.2104 7.6936C70.1921 7.493 70.0633 6.83335 69.8327 5.71688L68.8509 5.92683C68.7916 6.18494 68.7124 6.42684 68.6056 6.65421L68.3199 6.40852C68.4978 5.9778 68.5798 5.48167 68.5583 4.9218L68.936 4.89011C68.9437 5.11753 68.9325 5.33264 68.9109 5.53769L70.1195 5.27923Z" fill="white"/>
<path d="M70.8366 4.48061C71.1492 4.62632 71.4189 4.78188 71.6448 4.94339L71.4427 5.2607C71.242 5.10161 70.9753 4.94126 70.6388 4.78054L70.8366 4.48061ZM73.8808 7.45855C73.6664 7.50781 73.4316 7.55766 73.1812 7.61109C72.9269 7.66541 72.7149 7.6895 72.5422 7.68813C72.3755 7.67718 72.2176 7.61497 72.0702 7.5093C72.0004 7.45556 71.9464 7.43513 71.8996 7.44587C71.8178 7.46468 71.7177 7.67236 71.5995 8.0689L71.2684 7.8782C71.3908 7.51765 71.5205 7.27852 71.6585 7.16472L71.4051 6.06147L70.8827 6.1815L70.8038 5.83844L71.6732 5.63869L72.0118 7.11229C72.0349 7.1234 72.0588 7.13842 72.0837 7.15733C72.1975 7.24198 72.309 7.29846 72.4181 7.32674C72.5476 7.35445 72.7272 7.35012 72.959 7.30507C73.1821 7.25791 73.4442 7.20179 73.7483 7.13193C73.9393 7.08804 74.1333 7.03935 74.3273 6.99067C74.5214 6.94198 74.6716 6.89925 74.7751 6.86727L74.7696 7.25432L73.8808 7.45855ZM72.4925 4.50647L71.7401 4.67935L71.6693 4.37137L73.8095 3.87962L73.8695 4.14081C73.6882 4.38768 73.4841 4.60695 73.2591 4.80641C73.2687 4.81242 73.2774 4.81453 73.287 4.82053L74.0705 4.64049L74.4682 6.37139C74.5211 6.60139 74.4193 6.7479 74.1659 6.80613L73.8657 6.8751L73.717 6.58504L73.9974 6.53704C74.0831 6.51733 74.1201 6.4637 74.1004 6.37793L74.0547 6.17911L73.4933 6.3081L73.6402 6.94744L73.3011 7.02537L73.1542 6.38603L72.6045 6.51233L72.7532 7.15946L72.4023 7.24008L71.9186 5.13493L72.8153 4.92892C72.6669 4.87271 72.5021 4.81619 72.3225 4.76715L72.4925 4.50647ZM72.9927 4.68294C73.1376 4.56345 73.2681 4.43495 73.3852 4.30135L72.5119 4.50199C72.6816 4.56152 72.8425 4.61894 72.9927 4.68294ZM72.4728 5.93926L72.5355 6.21215L73.0852 6.08585L73.0225 5.81296L72.4728 5.93926ZM73.3616 5.73503L73.4243 6.00792L73.9857 5.87894L73.923 5.60605L73.3616 5.73503ZM73.8531 5.30197L73.7904 5.02908L73.2291 5.15807L73.2918 5.43096L73.8531 5.30197ZM72.9526 5.50888L72.8899 5.23599L72.3402 5.36229L72.4029 5.63518L72.9526 5.50888Z" fill="white"/>
<path d="M78.0361 3.13222L78.7789 6.16251L78.4215 6.25012L78.3672 6.02867L77.6873 6.19533L77.7426 6.42065L77.3852 6.50827L76.6414 3.47409L78.0361 3.13222ZM77.6026 5.84956L78.2825 5.68291L77.7635 3.56559L77.0836 3.73224L77.6026 5.84956ZM75.36 4.27827C75.3183 4.49443 75.2611 4.6979 75.1923 4.88773L74.8194 4.76086C74.9785 4.33473 75.061 3.89854 75.0631 3.45325L75.4473 3.44143C75.4446 3.59859 75.4314 3.74599 75.4171 3.88951L76.4777 3.62953L76.5644 3.98306L76.036 4.11258C76.0873 4.35535 76.1309 4.58354 76.158 4.79515L76.7641 4.6466L76.8507 5.00013L76.1942 5.16107C76.1996 5.25035 76.2011 5.34058 76.2046 5.42209C76.5006 5.60487 76.8072 5.81389 77.1282 6.0482L76.9867 6.44531C76.662 6.16248 76.3943 5.94393 76.1835 5.78968C76.1204 6.2376 75.9293 6.65097 75.6016 7.02783L75.2883 6.79161C75.619 6.39343 75.7937 5.96348 75.8152 5.49694C75.8127 5.41931 75.8131 5.33685 75.8096 5.25534L75.0442 5.44295L74.9576 5.08941L75.7773 4.88848C75.7501 4.67686 75.7066 4.44867 75.6553 4.2059L75.36 4.27827Z" fill="white"/>
<path d="M78.7663 2.51309L80.0374 4.11287L79.7057 6.12905L79.3598 6.07014L79.6657 4.20943L78.4928 2.73292L78.7663 2.51309ZM79.4283 2.3411L80.6994 3.94088L80.3677 5.95706L80.0218 5.89815L80.3278 4.03744L79.1393 2.56496L79.4283 2.3411Z" fill="white"/>
</svg>
