<svg width="35" height="37" viewBox="0 0 35 37" fill="none" xmlns="http://www.w3.org/2000/svg">
<path d="M2.55446 31.049L2.90328 30.9396L3.43319 32.7561L5.13529 33.5677L4.98607 33.8853L3.14165 33.0061L2.55446 31.049ZM3.07376 30.6038L3.41042 30.5048L3.95248 32.311L5.65459 33.1226L5.50537 33.4402L3.66094 32.5609L3.07376 30.6038Z" fill="white"/>
<path d="M4.3776 29.4143C4.62622 29.4502 4.88602 29.5032 5.15416 29.576L5.06439 29.8383L5.6545 29.2575C5.5972 28.994 5.49762 28.7104 5.35858 28.4094L5.69385 28.2198C5.81633 28.4696 5.90205 28.7164 5.95954 28.9573L6.50119 28.4242L6.75933 28.6864L5.82997 29.6012L5.91695 29.6895C6.04593 29.832 6.15514 29.9715 6.25022 30.108L7.38484 28.9912L7.64298 29.2535L6.6452 30.2356C7.1244 30.443 7.74731 30.3631 8.51673 29.9987L8.60962 30.4124C7.76965 30.7565 7.07062 30.8046 6.50964 30.5654C6.59021 30.7499 6.64534 30.9314 6.67223 31.107C6.7309 31.5543 6.60807 32.0625 6.30373 32.6314L5.9226 32.5407C6.22133 31.9661 6.34104 31.4947 6.28459 31.1237C6.25738 30.9877 6.21321 30.8516 6.15487 30.7182L5.1799 31.6778L4.92176 31.4155L5.97085 30.383C5.87581 30.2408 5.76945 30.0985 5.64328 29.9589L5.55629 29.8705L4.62409 30.7881L4.36594 30.5258L4.97601 29.9253C4.7192 29.8526 4.47632 29.8054 4.24743 29.7781L4.3776 29.4143Z" fill="white"/>
<path d="M6.49884 27.4666L8.57646 25.2638L8.84708 25.519L7.97157 26.4473L8.68158 27.1169L9.74921 25.985L10.0256 26.2457L8.95802 27.3777L9.9503 28.3136C10.154 28.5057 10.1572 28.7121 9.95685 28.9246L9.52047 29.3872L9.19786 29.1929C9.34657 29.0528 9.48687 28.9157 9.61312 28.7818C9.70094 28.6887 9.70121 28.601 9.61973 28.5241L8.69729 27.6541L7.58301 28.8355L7.30657 28.5748L8.42085 27.3934L7.71084 26.7237L6.76946 27.7218L6.49884 27.4666Z" fill="white"/>
<path d="M10.617 25.4627L11.4069 26.1755C11.5732 25.8838 11.744 25.5692 11.9079 25.2322L12.2333 25.3911C12.0046 25.8475 11.7531 26.2994 11.4843 26.7465L11.1479 26.6476C11.1736 26.5415 11.1493 26.455 11.0751 26.388L9.27256 24.7613C9.54815 24.3365 9.77645 23.9283 9.95448 23.534L10.3383 23.5624C10.1859 23.9045 9.98678 24.2743 9.74393 24.6748L10.3468 25.2188L11.0864 24.3992L11.3566 24.6431L10.617 25.4627ZM13.306 24.5488L13.0541 24.8279L12.7112 24.6586L12.9556 24.3997C13.0253 24.3224 13.0156 24.2436 12.9325 24.1686L11.3942 22.7804L10.8663 23.3654L13.2004 25.4718L12.9431 25.7569L10.3418 23.4093L11.3842 22.2542L13.2491 23.9371C13.4718 24.1381 13.4909 24.3439 13.306 24.5488Z" fill="white"/>
<path d="M12.6933 22.4237L12.0265 21.4141L12.3259 21.1715L12.7432 21.817L13.1348 21.373C12.9631 21.1202 12.7689 20.8688 12.5546 20.6158L12.8473 20.3566C13.0525 20.6017 13.2348 20.8425 13.3968 21.0761L14.6087 19.7022L14.8817 19.943L13.6063 21.3889C13.6788 21.5062 13.7427 21.6212 13.8062 21.7306L14.8647 20.5307L15.1046 20.7424C15.2818 21.0374 15.3741 21.3802 15.3763 21.7768C15.7034 21.66 16.0638 21.4872 16.4549 21.2615L16.5952 21.6466C16.1431 21.8932 15.7262 22.0695 15.3532 22.1778C15.3092 22.5603 15.2025 22.9836 15.0331 23.4477L14.6309 23.3595C14.7875 22.9643 14.8951 22.6004 14.954 22.2737C14.626 22.3311 14.3283 22.3299 14.0667 22.2697C14.3201 22.8773 14.4333 23.4625 14.4088 24.0224L14.0152 23.9365C14.0144 23.1997 13.789 22.4515 13.339 21.6918L12.6933 22.4237ZM14.0933 21.9252C14.3576 21.9823 14.6602 21.9718 14.998 21.8912C15.0117 21.5672 14.9685 21.2837 14.8686 21.0463L14.0933 21.9252ZM13.2589 19.8236C13.5974 19.7542 13.9099 19.7205 14.1932 19.7197L14.2173 20.1037C13.9555 20.086 13.6453 20.1111 13.2785 20.1823L13.2589 19.8236Z" fill="white"/>
<path d="M15.347 19.2276L16.1537 18.3071L16.0063 18.1779L14.9992 19.3271L14.7586 19.1162L15.7657 17.967L15.6002 17.822C15.3622 18.124 15.1079 18.4384 14.8405 18.7678L14.5697 18.6156C15.2311 17.8123 15.7953 17.0835 16.2651 16.4261L16.5732 16.5419C16.3468 16.8488 16.1019 17.1767 15.8356 17.5231L16.0161 17.6812L17.0285 16.5261L17.2692 16.737L16.2568 17.8922L16.4042 18.0213L17.2136 17.0978L18.2484 18.0047L17.439 18.9282L17.5985 19.068L18.5186 18.0181L18.7442 18.2158L17.8241 19.2657L17.9956 19.416L19.0475 18.2157L19.2911 18.4292L16.9448 21.1066L16.7011 20.893L17.7451 19.7018L17.5736 19.5515L16.6615 20.5923L16.4358 20.3946L17.348 19.3538L17.1886 19.214L16.3819 20.1346L15.347 19.2276ZM17.7802 18.0837L17.5937 17.9203L17.0269 18.5671L17.2134 18.7305L17.7802 18.0837ZM16.963 19.0163L16.7764 18.8528L16.2096 19.4996L16.3961 19.6631L16.963 19.0163ZM15.993 19.3098L16.5599 18.663L16.3794 18.5048L15.8125 19.1516L15.993 19.3098ZM16.6298 18.2191L16.8103 18.3772L17.3771 17.7305L17.1966 17.5723L16.6298 18.2191Z" fill="white"/>
<path d="M18.6724 16.0725L19.4055 15.2417C19.3598 15.1908 19.3115 15.1428 19.2662 15.0974C19.1132 14.9624 18.9989 14.8562 18.9149 14.7821L19.1531 14.5122C19.3271 14.6657 19.4747 14.8067 19.5984 14.9265C19.619 14.9393 19.6367 14.9496 19.657 14.9568L20.4668 14.0391L20.7338 14.2746L19.9927 15.1144C20.6028 15.354 21.241 15.3623 21.9015 15.1397L21.976 15.5148C21.2891 15.7249 20.6303 15.7037 19.9969 15.4542C20.3219 16.029 20.4127 16.712 20.2694 17.5031L19.8895 17.456C20.0542 16.6891 19.9688 16.0482 19.6275 15.5283L18.9393 16.3081L18.6724 16.0725ZM18.235 14.1501C18.3726 14.1755 18.5222 14.2115 18.6812 14.2611L19.626 13.1904L19.8989 13.4312L17.9589 15.6296L18.5918 16.1881C19.235 16.777 19.6589 17.3485 19.8636 17.9025L19.4698 17.9498C19.2911 17.4934 18.9146 17.0011 18.3377 16.476L17.4319 15.6767L18.4059 14.573C18.2736 14.5416 18.142 14.5215 18.011 14.5126L18.235 14.1501Z" fill="white"/>
<path d="M19.896 12.938L20.9498 11.7661C20.8026 11.7144 20.6586 11.6711 20.5239 11.6414L20.7491 11.2952C20.8934 11.3442 21.0468 11.4069 21.2092 11.4775L22.2816 10.2848L22.5523 10.5282L21.4879 11.712L21.8121 12.0035L22.6813 11.0368L23.7848 12.029C23.9752 12.2002 23.9824 12.3896 23.8059 12.5859L23.5358 12.8863L23.2039 12.717L23.4728 12.4478C23.537 12.3764 23.5334 12.3086 23.468 12.2498L22.7006 11.5598L22.0828 12.2469L23.6414 13.6483L23.3846 13.9338L21.826 12.5324L21.2403 13.1838L22.3825 14.2108L22.1338 14.4874L20.7209 13.2171L21.5554 12.289L21.2311 11.9975L20.1667 13.1814L19.896 12.938Z" fill="white"/>
<path d="M22.5512 9.98422L23.6227 8.82856C23.4763 8.77464 23.3331 8.72911 23.1989 8.69738L23.4293 8.35468C23.5728 8.40587 23.7253 8.47088 23.8865 8.54404L24.9771 7.36785L25.244 7.61534L24.1616 8.78273L24.4813 9.07918L25.3652 8.1259L26.4534 9.1349C26.6411 9.30896 26.6455 9.49844 26.466 9.69202L26.1913 9.98827L25.862 9.8139L26.1351 9.54885C26.2003 9.47845 26.1978 9.41062 26.1332 9.35078L25.3765 8.64911L24.7482 9.32667L26.2852 10.7518L26.0241 11.0334L24.4872 9.60825L23.8915 10.2506L25.0179 11.295L24.7649 11.5677L23.3717 10.2759L24.2202 9.36076L23.9005 9.06431L22.8181 10.2317L22.5512 9.98422Z" fill="white"/>
<path d="M27.9553 7.67728L28.2136 7.92804C28.0689 8.27812 27.8734 8.64026 27.6216 9.02021L27.3241 8.79832C27.5955 8.40394 27.8049 8.02744 27.9553 7.67728ZM25.5701 6.10872L25.9269 5.94785C26.1205 6.41455 26.2539 6.82274 26.3185 7.17538C26.4157 7.0523 26.5129 6.92923 26.6015 6.80345C26.5626 6.65976 26.5179 6.50484 26.4674 6.34435L26.7877 6.19251C26.9758 6.86014 27.0881 7.37613 27.1245 7.73484C27.2656 7.5206 27.3951 7.28955 27.5216 7.04441L27.7684 7.28402C27.5594 7.68314 27.3355 8.04005 27.0969 8.35475L26.7804 8.18688C26.8106 8.12137 26.8238 8.05612 26.8227 7.98824C26.8229 7.81003 26.7851 7.54469 26.7035 7.19231C26.5842 7.35531 26.4622 7.52118 26.3346 7.68714L26.018 7.51362C26.0426 7.45385 26.0472 7.38589 26.0319 7.30409C25.9214 6.91253 25.7684 6.51312 25.5701 6.10872ZM26.6951 5.6734L26.4416 5.93457L26.1861 5.68659L27.4455 4.38935L27.6148 4.55374C27.8113 4.8337 27.9762 5.07736 28.1095 5.29037L28.455 4.93449L28.6071 5.08216C28.9361 5.52422 29.1435 5.97092 29.2237 6.41667C29.5094 6.41527 29.803 6.37698 30.1017 6.299L30.1613 6.69697C29.8512 6.7638 29.5517 6.79086 29.263 6.77817C29.2737 7.11746 29.2194 7.46054 29.0999 7.80176L28.7026 7.71147C28.8164 7.37599 28.8682 7.05275 28.8579 6.74174C28.5205 6.68733 28.1909 6.58472 27.8718 6.43104C28.3394 7.06341 28.6001 7.66773 28.6482 8.23842L28.2724 8.26944C28.2074 7.50948 27.7256 6.68496 26.8185 5.7932L26.6951 5.6734ZM28.8246 6.39713C28.763 6.05859 28.631 5.7409 28.4285 5.43839L28.044 5.83446C27.9134 5.61292 27.708 5.30763 27.4307 4.91571L26.9514 5.40936L27.0749 5.52916C27.1954 5.64619 27.3046 5.76337 27.4081 5.87499C27.8565 6.16537 28.3287 6.33941 28.8246 6.39713Z" fill="white"/>
<path d="M29.4162 3.15569L28.4549 4.0893L28.2013 3.82819L30.4021 1.69064L30.6557 1.95175L29.6916 2.88815L31.3861 4.63272L32.5309 3.52076L32.7873 3.78474L30.2192 6.279L29.9628 6.01502L31.1106 4.90026L29.4162 3.15569Z" fill="white"/>
</svg>
