<svg width="47" height="18" viewBox="0 0 47 18" fill="none" xmlns="http://www.w3.org/2000/svg">
<path d="M3.25677 9.3194L2.62076 9.70545L3.41155 11.0082C3.46136 11.0903 3.53279 11.1078 3.62512 11.0517L4.22009 10.6906C4.32267 10.6283 4.37103 10.5615 4.36384 10.4957C4.35798 10.4244 4.30793 10.2957 4.21575 10.113L4.58234 10.0308C4.73556 10.3449 4.80453 10.5511 4.78034 10.65C4.75884 10.7379 4.66261 10.8337 4.49848 10.9334L3.66757 11.4377C3.45215 11.5685 3.28388 11.5302 3.15935 11.3251L2.17347 9.70088L2.10896 9.96464L1.75766 9.81758C1.90193 9.32291 1.98563 8.79015 2.01085 8.22269L2.25021 8.0774C2.74206 8.20934 3.22854 8.36325 3.70281 8.5433L3.62572 8.89424C3.09504 8.68293 2.66961 8.52939 2.34468 8.44119C2.32669 8.81241 2.28196 9.18582 2.20364 9.56558L3.40042 8.83914L3.97327 9.78289C4.08401 9.97303 4.04162 10.1345 3.84476 10.2727C3.7114 10.3536 3.58281 10.427 3.45898 10.4928L3.19561 10.2362C3.33043 10.1731 3.444 10.1135 3.53975 10.0554C3.61839 10.0077 3.63452 9.94172 3.58885 9.8665L3.25677 9.3194ZM3.43119 7.74893L3.74919 7.5559L5.0298 9.66565L4.7118 9.85868L3.43119 7.74893ZM5.73714 10.2143L5.22082 10.5277L4.95672 10.2622C5.13257 10.1741 5.29743 10.0834 5.44788 9.9921C5.52995 9.94229 5.53985 9.86609 5.47966 9.76693L3.85658 7.09298L4.18142 6.89581L5.85431 9.65182C5.9996 9.89118 5.9594 10.0793 5.73714 10.2143Z" fill="white"/>
<path d="M5.58965 6.74864L5.03102 7.02668L4.88843 6.7402L6.07015 6.15203C6.01121 6.10542 5.95404 6.06238 5.90044 6.0265L6.24077 5.78563C6.30328 5.83941 6.37293 5.89857 6.44258 5.96667L7.68159 5.34999L7.82418 5.63647L7.2548 5.91986L7.25789 6.1864L8.09942 5.76756L8.24557 6.0612L5.1158 7.61894L4.96965 7.3253L5.78253 6.92072L5.58965 6.74864ZM6.13705 6.74427L6.90338 6.36285L6.90029 6.09631L5.94417 6.57219L6.13705 6.74427ZM5.56308 7.58398L7.94801 6.39696L8.50409 7.51422L6.11917 8.70125L5.56308 7.58398ZM8.04273 7.42215L7.95362 7.2431L6.23475 8.09861L6.32387 8.27766L8.04273 7.42215ZM6.11356 7.85511L7.83242 6.99959L7.74509 6.82413L6.02622 7.67964L6.11356 7.85511ZM6.0526 8.90863L6.41591 8.8127C6.47435 9.13659 6.48096 9.43713 6.43751 9.7179L6.05298 9.68142C6.09997 9.41675 6.09865 9.16273 6.0526 8.90863ZM8.30488 8.84656L7.43113 9.28144C7.15539 9.41868 6.95693 9.36108 6.83574 9.11757L6.6076 8.65921L6.95137 8.4881L7.14386 8.87485C7.18842 8.96437 7.26531 8.98419 7.37632 8.92894L8.08893 8.57426C8.15339 8.54217 8.19281 8.50468 8.2054 8.46714C8.22517 8.41709 8.2039 8.3115 8.1398 8.14681L8.51377 8.09025C8.60989 8.35518 8.63639 8.53411 8.58256 8.62346C8.53591 8.70029 8.44454 8.77705 8.30488 8.84656ZM7.4047 8.07928C7.61923 8.15123 7.78904 8.22309 7.91949 8.29667L7.73463 8.63443C7.59345 8.55725 7.41649 8.48001 7.20554 8.40628L7.4047 8.07928ZM8.55939 7.5984C8.8722 7.73313 9.12419 7.86239 9.31359 7.98259L9.12872 8.32035C8.92146 8.18223 8.66949 8.04403 8.36921 7.90752L8.55939 7.5984Z" fill="white"/>
<path d="M10.2689 3.99707C10.367 4.09661 10.467 4.21251 10.5765 4.34193L11.8728 3.8459L12.0015 4.18212L11.3739 4.42228C11.4008 4.60469 11.4114 4.78908 11.4042 4.97171L12.2672 4.6415L12.3987 4.9852L9.74628 6.00014L9.93926 6.50448C10.1473 7.09299 10.1967 7.61374 10.0784 8.06585L9.71424 7.93111C9.80734 7.56999 9.76327 7.14144 9.58062 6.64171L9.25612 5.79368L10.0108 5.50492L9.69275 5.06555L9.02777 5.32L8.89911 4.98378L10.2141 4.48059C10.1184 4.3759 10.018 4.28153 9.91824 4.19979L10.2689 3.99707ZM10.3619 5.37054L11.0643 5.1018C11.0715 4.91916 11.0609 4.73477 11.0339 4.55236L10.0402 4.93261L10.3619 5.37054Z" fill="white"/>
<path d="M13.1633 3.18213L15.3542 2.58057L15.7239 3.92674L13.533 4.52831L13.1633 3.18213ZM15.2621 3.68021L15.0831 3.02833L13.6251 3.42867L13.8041 4.08055L15.2621 3.68021ZM14.5227 4.56766L14.9993 6.30342L14.6444 6.40085L14.5936 6.21571L13.88 6.41164L13.9308 6.59679L13.5721 6.69528L13.0955 4.95952L14.5227 4.56766ZM13.7857 6.06834L14.4993 5.87241L14.2631 5.01225L13.5496 5.20818L13.7857 6.06834ZM16.3202 4.07412L16.7968 5.80988L16.4303 5.91049L16.3795 5.72534L15.635 5.92975L15.6859 6.1149L15.3272 6.21339L14.8506 4.47763L16.3202 4.07412ZM15.5408 5.58646L16.2852 5.38205L16.049 4.52188L15.3046 4.72629L15.5408 5.58646Z" fill="white"/>
<path d="M16.6229 2.34452L19.728 1.80249L19.7912 2.16501L19.1608 2.27506L19.3259 3.22076L20.1573 3.07563L20.2206 3.43814L19.3891 3.58328L19.687 5.28948L19.3126 5.35483L19.0148 3.64863L17.9588 3.83297C17.9881 4.23389 17.9704 4.57401 17.8982 4.85866C17.8063 5.21579 17.5988 5.51594 17.2791 5.75448L17.0231 5.47432C17.306 5.2341 17.4814 4.95984 17.5462 4.65618C17.5853 4.43821 17.5939 4.18496 17.5765 3.89969L16.7097 4.05102L16.6464 3.6885L17.5408 3.53236C17.5353 3.50084 17.5338 3.46862 17.5297 3.44498L17.3797 2.58597L16.6862 2.70703L16.6229 2.34452ZM17.758 2.51994L17.9079 3.37895C17.9134 3.41047 17.9143 3.43874 17.9191 3.46633L18.9515 3.28611L18.7864 2.34041L17.758 2.51994Z" fill="white"/>
<path d="M20.9329 2.72075L21.157 1.53171L21.5409 1.56595L21.3911 2.31989L21.9813 2.27383C22.034 1.97281 22.0696 1.65709 22.0919 1.32635L22.4825 1.34402C22.4592 1.6628 22.4224 1.96257 22.3761 2.24302L24.2025 2.10049L24.2309 2.46338L22.3087 2.61339C22.2791 2.7481 22.2449 2.87515 22.2143 2.99789L23.8095 2.87341L23.8344 3.19244C23.7562 3.52754 23.5838 3.83789 23.3093 4.12412C23.6254 4.26796 24.0044 4.39485 24.4423 4.50512L24.2749 4.87928C23.7787 4.74147 23.3567 4.5778 23.0135 4.39595C22.7156 4.63987 22.3443 4.86945 21.8997 5.0847L21.6723 4.74135C22.0599 4.56666 22.3904 4.38038 22.6602 4.18681C22.3848 3.99967 22.1719 3.7916 22.026 3.56627C21.7849 4.17888 21.4587 4.67777 21.0514 5.06263L20.8286 4.72694C21.341 4.19748 21.7001 3.50343 21.9059 2.64482L20.9329 2.72075ZM22.285 3.33743C22.4349 3.56244 22.6594 3.76559 22.9581 3.94289C23.1935 3.7199 23.3598 3.48625 23.4534 3.24624L22.285 3.33743ZM23.149 1.24787C23.4403 1.43377 23.6881 1.62707 23.8921 1.8238L23.642 2.11614C23.4664 1.92122 23.2262 1.7233 22.9134 1.51902L23.149 1.24787Z" fill="white"/>
<path d="M26.8391 1.97999L26.4503 4.73671L26.0899 4.68588L26.1189 4.47992L25.4931 4.39166L25.4479 4.71248L25.0874 4.66165L25.4924 1.79007L25.8687 1.84313C25.9702 1.6393 26.0563 1.42928 26.1204 1.20402L26.4894 1.30858C26.4191 1.52084 26.3312 1.71446 26.2291 1.89397L26.8391 1.97999ZM25.5423 4.04311L26.1681 4.13136L26.2781 3.35109L25.6523 3.26283L25.5423 4.04311ZM25.6998 2.92616L26.3256 3.01442L26.4284 2.28563L25.8026 2.19737L25.6998 2.92616ZM27.418 3.03113C27.6336 3.39278 27.7959 3.70249 27.8999 3.96761L27.5733 4.13564C27.4596 3.853 27.2944 3.53481 27.0862 3.17823L27.418 3.03113ZM28.8823 2.27218C28.6896 3.63866 28.5508 4.47952 28.4665 4.7908C28.3867 5.07039 28.1765 5.18617 27.8398 5.13869C27.7606 5.12751 27.6191 5.09948 27.4227 5.05967L27.3802 4.70223C27.5534 4.73473 27.7028 4.76388 27.8295 4.78176C27.988 4.8041 28.0908 4.73377 28.138 4.57077C28.1897 4.37608 28.2954 3.71234 28.4626 2.58463L27.4684 2.44442C27.324 2.66643 27.1665 2.8664 26.9881 3.04321L26.8042 2.71431C27.1192 2.37094 27.3668 1.93322 27.5389 1.40004L27.9046 1.50007C27.8337 1.71629 27.7492 1.91444 27.6584 2.09958L28.8823 2.27218Z" fill="white"/>
<path d="M30.5346 5.23221C30.1062 5.43169 29.5254 5.48423 28.7959 5.39133L28.7227 5.01333C29.4864 5.10694 30.0501 5.06481 30.4117 4.88174L30.5089 4.82148L29.0674 4.24645L29.2008 3.91207L30.8244 4.55972C31.0025 4.37237 31.1538 4.14419 31.2783 3.87519L31.4591 3.42192L31.8009 3.55827L31.6201 4.01154C31.4993 4.28202 31.3591 4.51465 31.1959 4.70793L32.3625 5.17329L32.2291 5.50766L30.9176 4.9845C30.8872 5.00682 30.8568 5.02913 30.83 5.05292C31.2627 5.45807 31.6397 5.88407 31.964 6.32349L31.6493 6.55108C31.3131 6.05522 30.9405 5.61808 30.5346 5.23221ZM30.0137 3.41809C30.2345 3.63106 30.4241 3.85743 30.5825 4.0972L30.2893 4.30323C30.1286 4.03672 29.9405 3.80664 29.7338 3.61222L30.0137 3.41809ZM30.5853 3.04319C30.8075 3.25244 30.9972 3.47881 31.1519 3.7171L30.8587 3.92313C30.6965 3.66033 30.5136 3.42802 30.3069 3.23361L30.5853 3.04319ZM33.0034 3.46948L32.6996 4.23112L32.3578 4.09477L32.5327 3.65636L30.1103 2.69008L29.9354 3.12848L29.5936 2.99214L29.8974 2.2305L31.2907 2.78626C31.2913 2.66593 31.2889 2.55303 31.2799 2.44608L31.664 2.53039C31.6671 2.6522 31.662 2.78368 31.6473 2.92854L33.0034 3.46948Z" fill="white"/>
<path d="M33.7331 4.04697L34.2215 4.35979C34.2592 4.17491 34.287 3.99797 34.2995 3.8302L34.6629 3.9822C34.6317 4.15698 34.5897 4.3486 34.5314 4.55827L34.9289 4.81284L34.7304 5.12273L34.0736 4.70204L33.8212 5.09613L34.4174 5.47799C33.8564 6.35376 33.4923 6.88527 33.3337 7.07348C33.1706 7.254 32.9555 7.26349 32.686 7.0909C32.6591 7.07364 32.6162 7.0367 32.5566 6.98898L32.6692 6.65736C32.7234 6.7063 32.7729 6.74756 32.8201 6.77776C32.938 6.85327 33.0454 6.84131 33.1423 6.74189C33.2325 6.63816 33.495 6.25053 33.9311 5.58455L33.6279 5.39039C33.131 6.12184 32.6547 6.59105 32.1991 6.79802L32.0937 6.43601C32.5106 6.23752 32.9559 5.7722 33.4253 5.0468L33.7704 4.50787L33.5347 4.35685L33.7331 4.04697ZM35.2888 5.31887C35.0223 5.4902 34.7639 5.61921 34.5115 5.70928L34.4623 5.32626C34.8207 5.20429 35.2113 4.96523 35.6354 4.61459L35.892 4.87396C35.7936 4.95344 35.6995 5.02618 35.6054 5.09892L36.7675 5.84322L36.5755 6.143L35.2888 5.31887ZM36.2181 6.44138C35.8061 7.08473 35.539 7.46467 35.4257 7.58214C35.3091 7.69746 35.1392 7.68837 34.9169 7.54598L34.9 7.53519L34.9918 7.21395C35.049 7.25062 35.0974 7.28635 35.1412 7.3144C35.1783 7.33813 35.2234 7.31955 35.2711 7.25987C35.3145 7.20692 35.4529 7.00577 35.6773 6.65546L35.363 6.58244L34.6597 7.68052L34.3633 7.49066L34.9997 6.49701L34.6821 6.42183L34.119 7.30097C34.0241 7.44917 34.025 7.559 34.1261 7.62373L34.7627 8.03148C34.8334 8.07678 34.8981 8.09446 34.9533 8.08235C35.0196 8.06782 35.1221 7.96719 35.2629 7.77709L35.483 8.04157C35.2671 8.31183 35.1066 8.45125 34.9936 8.46442C34.8939 8.47179 34.7756 8.43402 34.6341 8.34341L33.856 7.84505C33.627 7.69834 33.6096 7.47342 33.7994 7.17701L34.3344 6.34166L34.0414 6.27269L34.2269 5.98302L34.52 6.05199L34.8091 5.60063L35.092 5.78185L34.8676 6.13216L35.1874 6.20396L35.5261 5.67514L35.8225 5.86499L35.5507 6.2894L36.2181 6.44138Z" fill="white"/>
<path d="M37.8929 6.91575L37.4156 6.51383L37.6217 6.26905L38.6314 7.11927C38.6508 7.04664 38.6675 6.97708 38.6791 6.91363L39.0355 7.13005C39.011 7.20879 38.9844 7.29623 38.9497 7.38722L40.0083 8.27867L39.8022 8.52345L39.3157 8.11379L39.0724 8.22266L39.7914 8.82812L39.5802 9.07902L36.906 6.82722L37.1172 6.57632L37.8118 7.16117L37.8929 6.91575ZM38.1147 7.41624L38.7695 7.96759L39.0128 7.85872L38.1959 7.17082L38.1147 7.41624ZM37.116 7.22367L39.1537 8.93958L38.3499 9.89422L36.3121 8.17831L37.116 7.22367ZM38.2508 9.43431L38.3797 9.28132L36.911 8.04463L36.7822 8.19762L38.2508 9.43431ZM37.0862 7.83657L38.5549 9.07326L38.6811 8.92333L37.2124 7.68664L37.0862 7.83657ZM36.0954 8.19974L36.3279 8.4949C36.054 8.67737 35.7809 8.80298 35.506 8.87481L35.3865 8.5075C35.648 8.44533 35.8805 8.34307 36.0954 8.19974ZM37.0483 10.2415L36.3017 9.6128C36.0661 9.41442 36.04 9.20942 36.2152 9.00136L36.545 8.60971L36.8387 8.85705L36.5605 9.1875C36.4961 9.264 36.5085 9.34242 36.6033 9.42229L37.2122 9.935C37.2673 9.98138 37.3174 10.0026 37.3568 9.99925C37.4106 9.99747 37.499 9.93596 37.6246 9.81163L37.8253 10.1322C37.6204 10.3258 37.4668 10.4213 37.3634 10.4075C37.2744 10.3952 37.1676 10.3419 37.0483 10.2415ZM37.3941 9.11034C37.4135 9.33578 37.4151 9.52017 37.3995 9.66913L37.016 9.63387C37.0307 9.47364 37.0312 9.28056 37.0149 9.05769L37.3941 9.11034ZM38.2947 9.97844C38.2955 10.319 38.2771 10.6016 38.2422 10.8232L37.8588 10.788C37.9031 10.5429 37.9296 10.2567 37.9354 9.92692L38.2947 9.97844Z" fill="white"/>
<path d="M42.7565 10.8595L41.1812 12.4464L40.9087 12.1759L42.2219 10.853L41.0353 9.67509L39.7193 11.0008L39.4467 10.7303L41.0248 9.14055L42.7565 10.8595ZM41.3147 10.2737L41.5815 10.5386L41.0545 11.0694C40.8967 11.2171 40.7416 11.3393 40.5836 11.4417L40.8249 11.6812L40.1598 12.3512C40.0555 12.4562 40.0389 12.5468 40.1127 12.6201L40.5272 13.0315C40.5612 13.0653 40.6094 13.0849 40.6632 13.0876C40.7226 13.0902 40.8636 12.9935 41.0835 12.7947L41.2573 13.1363C40.9527 13.3807 40.7524 13.503 40.6534 13.5062C40.5515 13.4953 40.4495 13.4447 40.3473 13.3546L39.7881 12.7994C39.5837 12.5966 39.6027 12.373 39.8422 12.1317L40.4453 11.5242C40.2053 11.658 39.9709 11.7409 39.7334 11.7758C39.3094 11.8282 38.8252 11.7084 38.2755 11.4219L38.3561 11.0511C38.9059 11.3376 39.3589 11.4547 39.7122 11.3996C40.074 11.3304 40.4297 11.1311 40.7877 10.8045L41.3147 10.2737Z" fill="white"/>
<path d="M43.9214 11.8193L43.1068 13.6932L41.1713 14.3481L41.0607 14.015L42.8469 13.4105L43.5988 11.6812L43.9214 11.8193ZM44.3844 12.3228L43.5698 14.1967L41.6343 14.8516L41.5237 14.5185L43.3098 13.914L44.051 12.173L44.3844 12.3228Z" fill="white"/>
</svg>
