<svg width="107" height="22" viewBox="0 0 107 22" fill="none" xmlns="http://www.w3.org/2000/svg">
<path d="M5.3454 3.90848L5.60042 4.17039L4.21859 5.46311L4.26257 7.3483L3.91181 7.35848L3.86399 5.31576L5.3454 3.90848ZM5.97704 4.17095L6.21729 4.42672L4.85023 5.72558L4.89421 7.61077L4.54345 7.62095L4.49563 5.57823L5.97704 4.17095Z" fill="white"/>
<path d="M7.65188 4.88197C7.72095 5.1235 7.77903 5.38221 7.8224 5.65665L7.5463 5.68221L8.31787 5.98267C8.53479 5.82246 8.75276 5.61545 8.97034 5.36536L9.2807 5.59353C9.1029 5.8076 8.9129 5.98687 8.71669 6.13798L9.42489 6.41376L9.29135 6.75668L8.07623 6.28349L8.03124 6.39904C7.95411 6.57505 7.87161 6.73179 7.78601 6.87445L9.26949 7.45215L9.13596 7.79507L7.83138 7.28704C7.83839 7.80918 8.16642 8.34471 8.81401 8.89738L8.47465 9.15155C7.81673 8.52619 7.48646 7.90822 7.47494 7.29848C7.33962 7.44754 7.19666 7.57215 7.0475 7.6686C6.6634 7.90536 6.14951 8.00143 5.50583 7.95681L5.43248 7.57197C6.07907 7.60913 6.55815 7.52526 6.87347 7.32181C6.98639 7.2413 7.09247 7.14525 7.19028 7.03739L5.91552 6.54097L6.04906 6.19806L7.42073 6.73221C7.51151 6.58727 7.59774 6.43198 7.67341 6.25969L7.71841 6.14415L6.49956 5.66951L6.6331 5.32659L7.43076 5.63721C7.39194 5.37312 7.33551 5.13223 7.26664 4.91224L7.65188 4.88197Z" fill="white"/>
<path d="M10.5337 6.11978L13.3756 7.16494L13.2472 7.51407L12.0496 7.07365L11.7127 7.98966L13.1731 8.52674L13.0419 8.88338L11.5816 8.34631L11.1108 9.62648C11.0141 9.88927 10.8255 9.97334 10.5515 9.87255L9.95454 9.65303L10.0065 9.28003C10.1938 9.36171 10.375 9.43687 10.5477 9.50038C10.6678 9.54456 10.7486 9.51034 10.7873 9.40522L11.2249 8.21515L9.70072 7.6546L9.83189 7.29796L11.3561 7.8585L11.693 6.94248L10.4053 6.46892L10.5337 6.11978Z" fill="white"/>
<path d="M14.2497 8.51521L14.5935 8.63466L14.4084 9.16743L14.8014 9.30394L14.6898 9.62511L14.2969 9.4886L14.1472 9.91935C14.3291 9.94441 14.5047 9.96307 14.6689 9.97779L14.5508 10.3179C14.3828 10.3018 14.2072 10.2832 14.0278 10.2632L13.7482 11.068L13.4044 10.9486L13.6603 10.2118C13.428 10.1734 13.1844 10.1311 12.9359 10.0787L13.0126 9.71151C13.28 9.77054 13.5375 9.82185 13.7811 9.86413L13.953 9.36915L13.3485 9.15913L13.3832 8.81549C13.5523 8.64558 13.736 8.42145 13.9319 8.13803L13.5993 8.02252L13.7201 7.6749L14.1433 7.82191C14.2285 7.68636 14.3163 7.54326 14.403 7.39128L14.726 7.55854C14.6459 7.69162 14.5671 7.82092 14.4909 7.94267L15.1711 8.17894L15.0503 8.52656L14.2795 8.25879C14.0966 8.51708 13.9204 8.74383 13.7472 8.93772L14.0646 9.04798L14.2497 8.51521ZM15.3222 8.23145L15.8927 8.42965C15.9768 8.28523 16.0571 8.1395 16.1386 7.99L16.4782 8.14607C16.3993 8.28803 16.3229 8.42242 16.2517 8.55435L17.1283 8.85888L17.0076 9.2065L16.0591 8.87703C15.9907 8.98876 15.9236 9.0967 15.8577 9.20087L16.9799 9.59071L16.8605 9.93456L15.6514 9.51452C15.5599 9.64366 15.4711 9.76525 15.39 9.87682L16.5689 10.2864L16.4665 10.5811C16.2616 10.7809 15.9975 10.9559 15.6641 11.1111C15.7713 11.2415 15.8683 11.3768 15.9615 11.5108L15.6536 11.7511C15.3694 11.3136 15.0553 10.9377 14.7076 10.6222L14.9988 10.4057C15.1539 10.5443 15.2975 10.6916 15.431 10.8438C15.6878 10.7382 15.9082 10.6158 16.0884 10.4751L14.8339 10.0393C14.9895 9.83508 15.1415 9.61689 15.2962 9.39113L14.8503 9.23625L14.9698 8.8924L15.5025 9.07748C15.571 8.96576 15.6381 8.85781 15.704 8.75365L15.2014 8.57907L15.3222 8.23145Z" fill="white"/>
<path d="M17.5358 9.83174L18.1987 8.81948L18.5401 8.99825L18.1127 9.63716L18.6755 9.82089C18.8396 9.56309 18.9935 9.28511 19.1409 8.98821L19.4948 9.15425C19.3511 9.43975 19.2022 9.70251 19.0519 9.94378L20.7935 10.5123L20.6805 10.8584L18.8477 10.26C18.7687 10.3731 18.6884 10.4773 18.6131 10.579L20.1341 11.0755L20.0348 11.3797C19.8342 11.6593 19.556 11.8798 19.1927 12.0389C19.4295 12.293 19.7309 12.5555 20.0931 12.8252L19.7951 13.1066C19.3896 12.7891 19.0626 12.4761 18.8153 12.1766C18.4466 12.2877 18.0157 12.3574 17.5226 12.3857L17.4442 11.9814C17.8691 11.9687 18.2458 11.9233 18.5691 11.848C18.3865 11.5696 18.2697 11.2958 18.2213 11.0317C17.7638 11.5051 17.2713 11.8408 16.7475 12.0401L16.6705 11.6447C17.3467 11.3521 17.9444 10.8487 18.4636 10.1346L17.5358 9.83174ZM18.5482 10.9196C18.6004 11.185 18.7299 11.4586 18.9378 11.7369C19.2407 11.6212 19.4839 11.4692 19.6623 11.2834L18.5482 10.9196ZM20.1473 9.32098C20.3451 9.60436 20.4999 9.87789 20.6128 10.1378L20.2698 10.3119C20.1823 10.0645 20.0364 9.78969 19.8257 9.48108L20.1473 9.32098Z" fill="white"/>
<path d="M21.3349 10.1701L22.8422 10.6301C22.8269 10.4749 22.8054 10.3261 22.7754 10.1915L23.1843 10.2494C23.2008 10.4008 23.2088 10.5663 23.2133 10.7434L24.7475 11.2116L24.6412 11.5597L23.1186 11.095L22.9913 11.512L24.2347 11.8915L23.8015 13.3109C23.7268 13.5557 23.5582 13.6423 23.3057 13.5652L22.9193 13.4473L22.9325 13.0749L23.2901 13.205C23.382 13.233 23.4419 13.2011 23.4676 13.117L23.7688 12.1299L22.885 11.8602L22.2732 13.8649L21.9059 13.7528L22.5178 11.7481L21.6799 11.4924L21.2316 12.9615L20.8758 12.8529L21.4304 11.0357L22.624 11.3999L22.7513 10.9829L21.2286 10.5182L21.3349 10.1701Z" fill="white"/>
<path d="M25.067 11.5328L26.6182 11.9713C26.5703 11.7582 26.4961 11.5502 26.3967 11.3433L26.8004 11.312C26.8867 11.5359 26.9556 11.7923 27.0031 12.0801L28.4619 12.4925L28.3596 12.8543L27.7707 12.6879C27.4206 13.2207 27.0091 13.6323 26.5352 13.9264C26.843 14.3668 27.2661 14.7815 27.7979 15.1647L27.5069 15.4149C26.9525 15.0088 26.5183 14.5743 26.2082 14.1125C25.6644 14.3745 25.0489 14.5081 24.3616 14.5133L24.2567 14.1344C24.9259 14.1491 25.5097 14.0397 26.0167 13.8048C25.713 13.2617 25.5581 12.6775 25.5536 12.0611L24.9647 11.8946L25.067 11.5328ZM25.9039 12.1601C25.9317 12.6792 26.0759 13.1689 26.3415 13.6264C26.7501 13.372 27.1024 13.0227 27.3935 12.5812L25.9039 12.1601Z" fill="white"/>
<path d="M30.0012 12.1958L30.3038 12.4477C30.0899 12.7311 29.8413 12.9891 29.559 13.2176L28.8981 15.7694L28.5341 15.6751L29.0837 13.5531C28.8828 13.6747 28.6713 13.7893 28.4502 13.8932L28.4333 13.4797C29.0734 13.1621 29.597 12.7357 30.0012 12.1958ZM30.922 16.2192L30.1979 16.0316C29.8881 15.9514 29.7733 15.7564 29.8535 15.4466L30.1343 14.3624C29.9759 14.3999 29.8135 14.4363 29.6483 14.4679L29.5721 14.0763C29.8053 14.0375 30.0317 13.9929 30.2456 13.9326L30.6357 12.4263L31.0036 12.5215L30.6727 13.7994C31.1173 13.646 31.5284 13.4467 31.8982 13.1995L32.0786 13.5561C31.6124 13.8403 31.106 14.0727 30.5573 14.2447L30.2344 15.4915C30.2064 15.6 30.2504 15.6692 30.3743 15.7013L30.9513 15.8507C31.0403 15.8738 31.1142 15.8599 31.1718 15.8128C31.2256 15.7648 31.3058 15.5666 31.4059 15.2123L31.7175 15.4129C31.5751 15.8511 31.4546 16.1092 31.3608 16.184C31.2632 16.2579 31.1156 16.2693 30.922 16.2192Z" fill="white"/>
<path d="M34.4828 14.473L34.4633 14.4684L34.3111 15.123L33.9448 15.0378L34.0971 14.3832L34.0776 14.3787C33.7539 14.6402 33.2484 14.8183 32.5581 14.9082L32.4257 14.5242C32.9918 14.4916 33.4087 14.412 33.6841 14.2872L32.6945 14.057L32.7752 13.7102L34.1777 14.0365L34.2357 13.7872C33.898 13.7209 33.5338 13.6444 33.152 13.5556L33.1182 13.2069C34.1155 13.4389 34.965 13.5831 35.6742 13.6413L35.7809 13.9947C35.4371 13.9722 35.0462 13.9223 34.6065 13.8529L34.544 14.1217L35.9699 14.4534L35.8892 14.8001L34.8802 14.5654C35.0989 14.8257 35.4357 15.0725 35.8985 15.3074L35.6494 15.6191C35.072 15.2589 34.6845 14.8772 34.4828 14.473ZM32.3802 15.0023L33.4827 15.2588C33.5773 15.1699 33.671 15.085 33.756 15.0021L34.0891 15.1945L33.9152 15.3594L35.7424 15.7845L35.6617 16.1312L34.9721 15.9708C34.7814 16.1728 34.5929 16.3302 34.4026 16.442C34.6994 16.6137 35.0043 16.8037 35.3085 17.0141L35.008 17.2646C34.681 17.0283 34.3504 16.8077 34.0191 16.6074C33.5481 16.7607 32.9758 16.7672 32.3021 16.6269L32.1708 16.2555C32.7162 16.3824 33.1893 16.4144 33.589 16.3554C33.2991 16.1894 33.0056 16.039 32.7102 15.8964C32.8615 15.7755 33.0071 15.6615 33.1488 15.5467L32.2995 15.3491L32.3802 15.0023ZM33.5852 15.6482C33.4846 15.7274 33.3936 15.8007 33.3093 15.8632C33.5468 15.9719 33.7934 16.0949 34.0402 16.2345C34.2415 16.1458 34.421 16.0274 34.5748 15.8784L33.5852 15.6482Z" fill="white"/>
<path d="M37.0145 15.1057L38.1512 15.3367L38.1918 15.1367L38.5603 15.2116L38.5197 15.4115L39.6408 15.6393L39.5747 15.9647L38.4536 15.7369L38.3931 16.0348L39.961 16.3534L39.8957 16.6748L39.1705 16.5275L39.1084 16.8332L39.6651 16.9463L39.599 17.2717L39.0423 17.1586L38.9332 17.6956C38.883 17.9425 38.7204 18.0401 38.4538 17.986L37.9011 17.8737L37.8905 17.5041C38.0676 17.5565 38.2338 17.6025 38.3906 17.6343C38.5003 17.6566 38.5647 17.6207 38.5823 17.5345L38.6739 17.0837L36.4905 16.6401L36.5566 16.3147L38.74 16.7583L38.8021 16.4526L36.3874 15.962L36.4527 15.6406L38.0246 15.9599L38.0851 15.662L36.9484 15.4311L37.0145 15.1057ZM37.1911 16.8478C37.3504 17.0883 37.4675 17.2958 37.5462 17.4709L37.2155 17.6119C37.1313 17.4234 37.0112 17.2112 36.8511 16.9746L37.1911 16.8478ZM37.3204 14.5842C37.1952 14.7383 37.0606 14.8784 36.9167 15.0042L36.6367 14.7351C36.9198 14.5069 37.1394 14.2494 37.3011 13.9558L37.638 14.1058C37.6002 14.1716 37.5584 14.2366 37.5205 14.3024L38.4574 14.4927L38.3945 14.8024L37.7908 14.6798C37.8532 14.8149 37.9022 14.935 37.9364 15.0481L37.5738 15.1051C37.5312 14.9331 37.4721 14.7619 37.3988 14.6001L37.3204 14.5842ZM38.9143 14.8958C38.8261 15.0085 38.7324 15.1078 38.6365 15.1985L38.3697 14.9443C38.5813 14.7465 38.753 14.5242 38.8778 14.272L39.2115 14.4174C39.1736 14.4831 39.1397 14.5497 39.1026 14.6116L40.1728 14.829L40.1099 15.1387L39.4788 15.0104C39.545 15.1464 39.5925 15.2744 39.6227 15.3866L39.2766 15.4429C39.2301 15.2701 39.1702 15.1029 39.0985 14.9332L38.9143 14.8958Z" fill="white"/>
<path d="M40.9585 15.5454C41.0115 15.7331 41.0505 15.9549 41.0794 16.2115L41.4303 16.2718C41.5601 16.083 41.6841 15.8811 41.7944 15.6646L42.117 15.8418C42.0122 16.0267 41.9068 16.1913 41.7969 16.3347L42.2227 16.4079L42.1611 16.7666L40.1781 16.426L40.2397 16.0672L40.7286 16.1512C40.696 15.963 40.6541 15.7813 40.5984 15.6094L40.9585 15.5454ZM42.5999 15.1334L43.9679 15.3684L43.9191 15.6522C43.7278 16.0333 43.5295 16.3848 43.3279 16.7074C43.5574 17.1202 43.6564 17.4416 43.621 17.6709C43.575 17.939 43.488 18.1148 43.3678 18.1997C43.2399 18.2832 43.0057 18.2998 42.6745 18.2429L42.624 17.8283C42.7632 17.8685 42.8801 17.8967 42.9787 17.9136C43.0661 17.9246 43.1293 17.9111 43.161 17.8679C43.1915 17.8325 43.2189 17.7439 43.2465 17.6066C43.2812 17.3812 43.1743 17.0584 42.9298 16.639C43.1107 16.3656 43.2978 16.0325 43.4944 15.6442L42.903 15.5426L42.3619 18.6924L41.9992 18.6301L42.5999 15.1334ZM40.5002 14.9999L41.2256 15.1245C41.2058 15.0034 41.1847 14.8902 41.1615 14.7888L41.5547 14.7915C41.5706 14.9119 41.5844 15.0441 41.5922 15.1875L42.3728 15.3216L42.3111 15.6804L40.4386 15.3587L40.5002 14.9999ZM41.9539 17.0273L41.6884 18.5727L41.3139 18.5084L41.3491 18.3034L40.474 18.153L40.4387 18.358L40.0721 18.295L40.3376 16.7497L41.9539 17.0273ZM40.5349 17.7982L41.4101 17.9486L41.5185 17.3178L40.6433 17.1674L40.5349 17.7982Z" fill="white"/>
<path d="M46.6528 19.3029L46.3278 19.2585L46.2809 18.8928L46.6246 18.9478C46.7276 18.9619 46.7928 18.8981 46.8118 18.7594L47.1596 16.211L45.6694 16.0076L45.717 15.6588L47.5718 15.912L47.1623 18.9122C47.1212 19.2134 46.9501 19.3434 46.6528 19.3029ZM44.248 15.9509L44.6127 16.0006L44.2026 19.0048L43.838 18.955L44.248 15.9509ZM45.0051 15.3437C45.1582 15.5826 45.2882 15.8425 45.3923 16.1151L45.0311 16.2475C44.9184 15.9495 44.7889 15.6856 44.6437 15.4478L45.0051 15.3437Z" fill="white"/>
<path d="M48.4911 17.0163L49.7097 17.131L49.7281 16.9359L48.2068 16.7926L48.2368 16.474L49.7581 16.6173L49.7787 16.3983C49.3946 16.3822 48.9908 16.3602 48.5672 16.3364L48.532 16.0277C49.5704 16.0934 50.4916 16.1239 51.2996 16.1197L51.3862 16.4372C51.0048 16.4334 50.5956 16.427 50.1589 16.414L50.1364 16.6529L51.6657 16.797L51.6357 17.1156L50.1064 16.9715L50.088 17.1667L51.3106 17.2818L51.1816 18.6518L49.959 18.5366L49.9391 18.7477L51.329 18.8786L51.3009 19.1773L49.911 19.0464L49.8896 19.2734L51.4786 19.423L51.4482 19.7456L47.9039 19.4118L47.9343 19.0892L49.5113 19.2377L49.5327 19.0107L48.1548 18.8809L48.1829 18.5823L49.5608 18.712L49.5807 18.501L48.3621 18.3862L48.4911 17.0163ZM50.8434 18.3186L50.8666 18.0717L50.0104 17.991L49.9871 18.2379L50.8434 18.3186ZM49.6088 18.2023L49.6321 17.9554L48.7759 17.8748L48.7526 18.1217L49.6088 18.2023ZM48.8029 17.588L49.6591 17.6687L49.6816 17.4297L48.8254 17.3491L48.8029 17.588ZM50.0599 17.4654L50.0374 17.7043L50.8936 17.7849L50.9161 17.546L50.0599 17.4654Z" fill="white"/>
<path d="M52.8597 17.8084L53.9666 17.8587C53.9776 17.7912 53.9847 17.7234 53.9916 17.6597C54.0009 17.4559 54.012 17.3002 54.0171 17.1883L54.3767 17.2047C54.3662 17.4364 54.3489 17.6399 54.3331 17.8113C54.336 17.8355 54.3391 17.8557 54.3462 17.876L55.5689 17.9316L55.5528 18.2872L54.4339 18.2363C54.6297 18.8619 55.0233 19.3643 55.6109 19.7393L55.3653 20.0325C54.771 19.6291 54.3745 19.1025 54.1718 18.4527C53.9277 19.0662 53.4526 19.5652 52.7464 19.9495L52.545 19.624C53.2457 19.2715 53.6914 18.8032 53.8825 18.2113L52.8435 18.1641L52.8597 17.8084ZM54.0832 16.2624C54.1496 16.3855 54.2154 16.5247 54.2764 16.6796L55.7029 16.7444L55.6864 17.108L52.7574 16.9749L52.7191 17.8181C52.6636 18.6884 52.4841 19.377 52.1808 19.8838L51.8971 19.6066C52.1407 19.1812 52.2881 18.5793 52.3355 17.8006L52.3904 16.5939L53.8608 16.6607C53.8024 16.5379 53.7355 16.4228 53.6603 16.3153L54.0832 16.2624Z" fill="white"/>
<path d="M55.8784 16.7939L57.4543 16.776C57.3927 16.6327 57.3271 16.4975 57.2578 16.3782L57.665 16.3096C57.7266 16.4489 57.7844 16.6043 57.8423 16.7716L59.4462 16.7535L59.4503 17.1174L57.8584 17.1355L57.8634 17.5715L59.1633 17.5567L59.1801 19.0406C59.183 19.2966 59.0485 19.4301 58.7845 19.4331L58.3806 19.4377L58.2805 19.0788L58.6607 19.0945C58.7567 19.0934 58.8041 19.0449 58.8031 18.9569L58.7914 17.925L57.8675 17.9354L57.8913 20.0313L57.5073 20.0357L57.4835 17.9398L56.6076 17.9497L56.625 19.4856L56.253 19.4898L56.2315 17.59L57.4794 17.5758L57.4744 17.1398L55.8825 17.1579L55.8784 16.7939Z" fill="white"/>
<path d="M60.2589 17.8618C60.1551 18.0148 60.0429 18.1644 59.9185 18.3111L59.7619 17.9186C60.1313 17.4308 60.3911 16.8797 60.5368 16.2577L60.9093 16.3957C60.8341 16.7029 60.7261 17.0007 60.5892 17.2889L60.8075 19.9519L60.4328 19.9826L60.2589 17.8618ZM60.9311 16.711L61.6966 16.6482L61.7646 16.157L62.1383 16.1625C62.1192 16.3206 62.0954 16.471 62.0753 16.6172L63.2234 16.523L63.2535 16.8898L62.0097 16.9918C61.9806 17.1266 61.9549 17.2531 61.9288 17.3757L63.4477 17.2511L63.4774 17.6139L61.8389 17.7483C61.7955 17.9043 61.7551 18.0481 61.7101 18.1843L63.2968 18.0542L63.3236 18.3811C63.1851 18.6493 62.9628 18.9244 62.6492 19.211C62.8238 19.2849 62.9951 19.3672 63.1587 19.4541L62.9703 19.7987C62.4571 19.5117 61.9339 19.2977 61.4082 19.1522L61.587 18.8365C61.8334 18.9046 62.0728 18.9853 62.3045 19.0706C62.5679 18.8564 62.7755 18.6467 62.9229 18.438L61.2485 18.5753C61.3319 18.3196 61.4063 18.0526 61.4761 17.778L60.8463 17.8297L60.8165 17.4669L61.562 17.4058C61.5878 17.2792 61.6135 17.1527 61.6349 17.0225L60.9612 17.0778L60.9311 16.711Z" fill="white"/>
<path d="M65.5388 18.4367L65.5986 18.7957C65.2698 19.0371 64.8845 19.2554 64.4452 19.4421L64.3393 19.0745C64.803 18.8878 65.2054 18.6747 65.5388 18.4367ZM64.4032 15.8562L64.7859 15.9385C64.6748 16.4395 64.5492 16.8538 64.4084 17.1774C64.54 17.1392 64.6708 17.0971 64.801 17.0511C64.8471 16.9137 64.8951 16.7637 64.9418 16.6059L65.2982 16.6763C65.0825 17.3286 64.8918 17.8146 64.7221 18.1348C64.9555 18.027 65.1896 17.8988 65.4237 17.7462L65.481 18.0895C65.0844 18.338 64.6977 18.5241 64.3255 18.651L64.169 18.3203C64.2309 18.2775 64.2802 18.2328 64.3203 18.1815C64.4209 18.0309 64.5373 17.7804 64.6695 17.4299C64.4933 17.4917 64.3085 17.5509 64.1158 17.6114L63.9639 17.2839C64.0191 17.2503 64.0658 17.1898 64.1013 17.1109C64.2322 16.7282 64.3328 16.31 64.4032 15.8562ZM65.506 17.5095L65.3679 17.1918C65.3981 17.1787 65.4238 17.1623 65.4382 17.1517C65.5421 17.0452 65.6585 16.7947 65.7848 16.4087L65.1732 16.5106L65.1134 16.1515L66.0722 15.9917C66.0038 15.8734 65.9328 15.7636 65.8591 15.6623L66.2313 15.5354C66.3037 15.6531 66.378 15.7826 66.451 15.9286L67.315 15.7846L67.3749 16.1437L66.1754 16.3436C66.0728 16.6526 65.9748 16.892 65.8828 17.0695C66.1971 16.9847 66.5101 16.892 66.8179 16.7921C66.7206 16.6947 66.6239 16.6014 66.5272 16.508L66.7817 16.2831C67.098 16.5751 67.3486 16.8374 67.5327 17.0663L67.2742 17.3162C67.2118 17.2333 67.1414 17.1518 67.0704 17.0663C66.5936 17.2228 66.0708 17.3707 65.506 17.5095ZM65.8183 17.5831L66.1813 17.5226C66.2451 18.027 66.2431 18.4045 66.1793 18.6544C66.1056 18.9181 65.9518 19.1627 65.7137 19.3889L65.4277 19.1324C65.6249 18.9536 65.7545 18.7576 65.8163 18.5445C65.8755 18.34 65.8749 18.0198 65.8183 17.5831ZM67.5418 19.0194L67.2893 19.0614C67.0092 19.1081 66.85 19.0049 66.8086 18.7563L66.5844 17.4109L66.9435 17.351L67.1558 18.6254C67.1664 18.6886 67.1966 18.7241 67.2453 18.7241L67.4662 18.6873C67.5359 18.6675 67.5708 18.609 67.5629 18.513C67.557 18.4045 67.5392 18.2493 67.5063 18.052L67.849 18.1125C67.9121 18.4913 67.9186 18.7254 67.8779 18.8214C67.8358 18.9095 67.7207 18.9733 67.5418 19.0194Z" fill="white"/>
<path d="M69.5624 15.6128L68.2476 15.8716L68.1773 15.5145L71.1875 14.9218L71.2578 15.279L69.9391 15.5386L70.4089 17.9248L71.9749 17.6165L72.046 17.9775L68.5334 18.6691L68.4623 18.3081L70.0322 17.999L69.5624 15.6128Z" fill="white"/>
<path d="M71.7224 14.8712L72.6032 14.6679L72.5249 14.3288L72.903 14.2415L72.9813 14.5806L73.9167 14.3647L73.8384 14.0256L74.2165 13.9383L74.2947 14.2774L75.1756 14.074L75.2556 14.4209L74.3748 14.6243L74.4459 14.9322L74.0678 15.0194L73.9968 14.7115L73.0614 14.9275L73.1324 15.2354L72.7544 15.3226L72.6833 15.0147L71.8025 15.2181L71.7224 14.8712ZM72.2606 15.5844L74.8485 14.987L74.9304 15.3417C73.9936 16.1737 73.4024 16.7782 73.1608 17.1542C73.0828 17.2789 73.0433 17.3742 73.04 17.4489C73.0535 17.5074 73.0918 17.5313 73.162 17.5151L75.0757 17.0734C75.1809 17.0491 75.2564 17.0029 75.2993 16.9396C75.3431 16.8803 75.3377 16.6434 75.2831 16.2291L75.6584 16.2902C75.7199 16.7522 75.7089 17.0421 75.6213 17.1609C75.5368 17.2748 75.3917 17.3576 75.189 17.4044L73.2598 17.8497C72.9168 17.9289 72.7213 17.8468 72.6655 17.6051C72.6277 17.4414 72.7114 17.2169 72.9086 16.9332C73.1667 16.5575 73.6383 16.0751 74.3146 15.4838L72.3425 15.9391L72.2606 15.5844Z" fill="white"/>
<path d="M76.7929 17.0784L76.4609 17.1682L76.2907 16.8454C76.3952 16.8337 76.49 16.8164 76.5827 16.7913C76.6715 16.7673 76.7042 16.7045 76.6771 16.6042L76.4525 15.774C76.3282 15.8656 76.2017 15.9496 76.0752 16.0335L75.8924 15.71C76.0519 15.6255 76.2082 15.5293 76.3575 15.4226L76.1309 14.5847L75.6945 14.7027L75.5995 14.3514L76.0358 14.2333L75.853 13.5576L76.2083 13.4615L76.3911 14.1373L76.7695 14.0349L76.8645 14.3863L76.4861 14.4886L76.673 15.1798C76.7876 15.0825 76.8962 14.9785 77.0049 14.8746L77.102 15.2337C76.9923 15.3338 76.8816 15.43 76.767 15.5273L77.0574 16.6007C77.1253 16.8517 77.0362 17.0126 76.7929 17.0784ZM77.5444 15.0311C77.6815 15.7523 77.676 16.3754 77.5279 16.9003L77.188 16.7312C77.3389 16.2014 77.3105 15.5295 77.1066 14.7145L76.764 13.448L78.8143 12.8934L78.9073 13.237L77.2045 13.6976L77.4541 14.6205C77.4604 14.6436 77.4617 14.664 77.468 14.6871L79.2094 14.2161L79.3013 14.5559L78.6179 14.7408C78.6775 14.9152 78.7572 15.0719 78.8579 15.2145C78.9718 15.0843 79.0736 14.9241 79.1571 14.7275L79.4553 14.8955C79.3489 15.1149 79.2138 15.3047 79.0518 15.4563C79.2558 15.6746 79.5154 15.853 79.8295 15.9877L79.6436 16.3114C78.9773 15.9778 78.5321 15.4808 78.3128 14.8233L78.0773 14.887L78.4199 16.1535C78.5618 16.0654 78.6978 15.9706 78.8299 15.8768L78.9924 16.1561C78.7668 16.3331 78.4868 16.5083 78.1546 16.6893L77.9717 16.4114C78.0595 16.338 78.0878 16.2433 78.0586 16.1352L77.7452 14.9768L77.5444 15.0311ZM77.4631 13.9799L78.8609 13.6018L78.9507 13.9339L77.553 14.3119L77.4631 13.9799Z" fill="white"/>
<path d="M79.7394 14.3378L81.8559 13.6678C81.9687 13.0699 82.0201 12.4369 82.0138 11.7676L82.4145 11.7876C82.3989 12.4806 82.3369 13.0666 82.2372 13.5471L83.2173 13.2369L83.3284 13.5877L79.8504 14.6886L79.7394 14.3378ZM79.8376 12.6997C80.1307 12.9762 80.4232 13.2906 80.719 13.6417L80.4289 13.9181C80.1371 13.5531 79.8434 13.2349 79.5489 12.9673L79.8376 12.6997ZM80.6843 12.18C80.9808 12.4805 81.2767 12.819 81.5759 13.1942L81.2934 13.4683C80.9918 13.0854 80.6909 12.7443 80.393 12.4526L80.6843 12.18ZM80.9119 14.5162L81.2906 14.5726C81.1701 15.0932 80.9845 15.5673 80.7312 15.9999L80.3623 15.8817C80.6128 15.4668 80.7968 15.0142 80.9119 14.5162ZM82.3729 14.0286C82.8858 14.3236 83.2891 14.5903 83.5916 14.8302L83.336 15.1629C83.0201 14.8937 82.617 14.6143 82.1255 14.3209L82.3729 14.0286Z" fill="white"/>
<path d="M84.3313 12.1892L85.315 11.8276L84.9107 10.7276L85.2786 10.5923L85.6829 11.6924L86.614 11.3501L86.7437 11.703L85.8127 12.0453L86.5565 14.0689L86.1885 14.2041L85.4447 12.1805L84.4611 12.5421L84.3313 12.1892ZM83.2561 11.3741C83.5678 11.4683 83.8419 11.5764 84.0798 11.702L83.9269 12.0395C83.7118 11.9183 83.4364 11.8064 83.098 11.7092L83.2561 11.3741ZM83.1607 12.645L84.028 12.3262L84.6159 13.9256C84.7001 13.7838 84.7826 13.6257 84.8685 13.4535L85.0962 13.7831C84.9387 14.0967 84.7542 14.3947 84.545 14.6719L84.2925 14.4024C84.337 14.3264 84.3474 14.2502 84.3198 14.1751L83.8119 12.7935L83.2863 12.9867L83.1607 12.645Z" fill="white"/>
<path d="M88.6726 9.59598L89.0111 9.45175L89.98 11.726L89.6414 11.8702L88.6726 9.59598ZM90.6683 12.3414L90.1384 12.5672L89.9147 12.2668C90.094 12.2078 90.259 12.1462 90.4136 12.0804C90.5166 12.0365 90.5499 11.9614 90.5075 11.8621L89.2769 8.97331L89.6228 8.82594L90.8911 11.803C90.9977 12.0533 90.9222 12.2333 90.6683 12.3414ZM88.5494 10.205L88.7488 10.52L87.7785 11.1204C87.8638 11.2797 87.9501 11.4212 88.0376 11.5448C88.1266 11.6721 88.2109 11.7883 88.2963 11.8867C88.3904 11.5771 88.4432 11.2415 88.4508 10.8818L88.8236 10.9099C88.8121 11.3931 88.7371 11.8294 88.5934 12.2167C88.6458 12.2683 88.6951 12.3125 88.7464 12.3515C88.9625 12.5116 89.1257 12.5682 89.2303 12.5279C89.2845 12.4918 89.2681 12.2901 89.1849 11.9212L89.5608 11.9872C89.5856 12.1983 89.5941 12.3817 89.5827 12.5387C89.5676 12.7277 89.5101 12.8479 89.4071 12.8918C89.2304 12.967 89.0057 12.9193 88.7324 12.7574C88.6338 12.6995 88.5394 12.631 88.4493 12.552C88.3069 12.8301 88.1267 13.0807 87.9088 13.304L87.5657 13.0806C87.81 12.8374 88.0075 12.5663 88.1516 12.2614C88.0473 12.1493 87.9451 12.032 87.8456 11.9005C87.7194 11.7369 87.5932 11.5428 87.4619 11.3161L87.0427 11.5773L86.847 11.2607L87.2793 10.9896C87.1281 10.7061 86.9723 10.3812 86.8171 10.0169L87.1703 9.86639C87.3177 10.2123 87.4583 10.522 87.5996 10.7922L88.5494 10.205ZM87.6519 9.63948C87.8534 9.74495 88.059 9.8704 88.2635 10.0137L88.0319 10.2863C87.8279 10.1341 87.6259 10.0071 87.4245 9.9016L87.6519 9.63948Z" fill="white"/>
<path d="M91.662 8.56944L92.892 11.067L92.5654 11.2278L92.4736 11.0412L91.9066 11.3204L92.0497 11.6111L91.7232 11.7719L90.442 9.17029L90.7829 9.00241C90.752 8.77682 90.7051 8.55472 90.6313 8.33245L90.9951 8.21121C91.0565 8.42625 91.0928 8.63577 91.1094 8.84159L91.662 8.56944ZM91.7511 11.0047L92.318 10.7254L91.9699 10.0185L91.4029 10.2977L91.7511 11.0047ZM91.2527 9.99271L91.8197 9.7135L91.4945 9.05322L90.9275 9.33244L91.2527 9.99271ZM92.7321 9.11258C93.1138 9.2902 93.4223 9.45485 93.6575 9.61548L93.482 9.93821C93.229 9.76853 92.9134 9.59846 92.5406 9.4209L92.7321 9.11258ZM93.5154 7.66116C94.1251 8.89918 94.4836 9.67235 94.5891 9.9771C94.6804 10.2531 94.5718 10.4672 94.2668 10.6174C94.195 10.6527 94.0623 10.7092 93.8776 10.7867L93.6413 10.5152C93.8027 10.4446 93.9426 10.3846 94.0575 10.3281C94.201 10.2574 94.2464 10.1414 94.1937 9.98008C94.1269 9.79005 93.8408 9.18189 93.3443 8.15565L92.4436 8.59921C92.4491 8.864 92.4315 9.11792 92.3835 9.36449L92.0464 9.19609C92.1136 8.73496 92.0719 8.23382 91.9142 7.6962L92.2727 7.57315C92.3358 7.79177 92.3774 8.00311 92.4066 8.20722L93.5154 7.66116Z" fill="white"/>
<path d="M93.8917 6.75403C94.2328 6.80493 94.5356 6.87746 94.798 6.96813L94.6944 7.32978C94.4568 7.23427 94.1555 7.15629 93.7872 7.09781L93.8917 6.75403ZM97.6565 8.74438C97.4649 8.85253 97.2539 8.96703 97.029 9.08939C96.8007 9.21373 96.6043 9.29705 96.4383 9.3448C96.2754 9.38166 96.1063 9.36688 95.9349 9.30744C95.8527 9.27576 95.7952 9.27149 95.7534 9.29508C95.6802 9.33638 95.6433 9.56392 95.6426 9.9777L95.271 9.88893C95.2859 9.50847 95.3423 9.24233 95.4424 9.09401L94.8859 8.10824L94.4191 8.37174L94.2461 8.06521L95.0228 7.6267L95.7661 8.94338C95.7914 8.94748 95.8187 8.95507 95.8479 8.96614C95.9811 9.01496 96.104 9.03743 96.2167 9.03355C96.3487 9.02333 96.5196 8.96815 96.7291 8.8591C96.9296 8.7505 97.165 8.62224 97.4366 8.46886C97.6073 8.37251 97.7795 8.2707 97.9517 8.1689C98.1239 8.0671 98.2558 7.98344 98.346 7.92338L98.4507 8.29604L97.6565 8.74438ZM95.4867 6.30838L94.8144 6.6879L94.659 6.41272L96.5714 5.33317L96.7031 5.56655C96.5994 5.85476 96.466 6.12298 96.3069 6.37816C96.3178 6.38119 96.3268 6.38074 96.3377 6.38377L97.0378 5.98853L97.9109 7.53511C98.0269 7.74062 97.9709 7.91001 97.7445 8.03783L97.4763 8.18924L97.2513 7.95339L97.5065 7.82771C97.5831 7.78445 97.6033 7.72253 97.56 7.6459L97.4597 7.46825L96.9581 7.75141L97.2806 8.32267L96.9776 8.49375L96.6551 7.92249L96.164 8.19975L96.4904 8.77798L96.1769 8.95495L95.115 7.07398L95.9162 6.62171C95.758 6.60997 95.5839 6.60261 95.3978 6.6066L95.4867 6.30838ZM96.0164 6.33546C96.1214 6.17972 96.2101 6.01943 96.2843 5.85808L95.5041 6.29855C95.6836 6.30743 95.8543 6.31675 96.0164 6.33546ZM95.8749 7.68771L96.0125 7.93154L96.5037 7.65428L96.366 7.41045L95.8749 7.68771ZM96.6691 7.23937L96.8067 7.4832L97.3083 7.20004L97.1707 6.95621L96.6691 7.23937ZM97.0173 6.68451L96.8796 6.44068L96.3781 6.72384L96.5157 6.96767L97.0173 6.68451ZM96.2127 7.13875L96.075 6.89492L95.5839 7.17218L95.7215 7.41601L96.2127 7.13875Z" fill="white"/>
<path d="M100.116 3.41033L101.802 6.03613L101.492 6.23488L101.369 6.043L100.78 6.42107L100.905 6.61632L100.595 6.81507L98.9079 4.18591L100.116 3.41033ZM100.587 6.12146L101.176 5.74339L99.999 3.90869L99.4099 4.28676L100.587 6.12146ZM97.9565 5.36209C97.9871 5.5801 97.9989 5.79112 97.9954 5.993L97.6015 5.9939C97.6139 5.53919 97.5505 5.0998 97.4081 4.6779L97.7677 4.54215C97.8162 4.69168 97.8514 4.83543 97.8844 4.97581L98.8035 4.38603L99.0001 4.69237L98.5422 4.98618C98.6694 5.19922 98.7847 5.40095 98.879 5.59234L99.4041 5.25531L99.6007 5.56166L99.0318 5.92676C99.0658 6.00947 99.0965 6.09433 99.1263 6.1703C99.4656 6.24723 99.8234 6.34557 100.203 6.46315L100.198 6.8847C99.799 6.7224 99.4749 6.60246 99.2255 6.52487C99.311 6.96908 99.2642 7.42208 99.0764 7.88482L98.7035 7.76292C98.8872 7.27903 98.9131 6.81568 98.7822 6.36735C98.7546 6.29474 98.7283 6.21661 98.6985 6.14064L98.0353 6.56624L97.8387 6.2599L98.549 5.80405C98.4547 5.61267 98.3395 5.41094 98.2123 5.1979L97.9565 5.36209Z" fill="white"/>
<path d="M100.553 2.59764L102.318 3.62574L102.743 5.62453L102.399 5.69543L102.007 3.85083L100.378 2.90188L100.553 2.59764ZM101.107 2.19671L102.873 3.22481L103.297 5.22359L102.953 5.2945L102.562 3.44989L100.919 2.51032L101.107 2.19671Z" fill="white"/>
</svg>
