<svg width="114" height="46" viewBox="0 0 114 46" fill="none" xmlns="http://www.w3.org/2000/svg">
<path d="M5.98232 2.8438L6.10906 3.18668L4.32142 3.8071L3.59627 5.5478L3.27158 5.41471L4.05717 3.52848L5.98232 2.8438ZM6.45301 3.34009L6.56874 3.67136L4.79211 4.30339L4.06696 6.04409L3.74227 5.911L4.52786 4.02477L6.45301 3.34009Z" fill="white"/>
<path d="M7.72252 4.69241C7.68827 4.94127 7.63703 5.20142 7.56598 5.47004L7.30305 5.38203L7.8878 5.96824C8.15092 5.90917 8.43389 5.8077 8.73388 5.66666L8.9258 6.00065C8.67674 6.12479 8.43056 6.21216 8.19007 6.27126L8.72679 6.80933L8.46625 7.06922L7.54534 6.146L7.45755 6.23358C7.31597 6.36351 7.17723 6.47364 7.04135 6.56964L8.16566 7.69676L7.90512 7.95665L6.9164 6.96546C6.71216 7.44604 6.79623 8.0684 7.1658 8.83537L6.75273 8.93102C6.40305 8.09336 6.35018 7.39468 6.58564 6.83211C6.40169 6.91391 6.2206 6.97025 6.04521 6.99832C5.59824 7.05998 5.08927 6.94055 4.5183 6.64003L4.60646 6.2583C5.18309 6.55317 5.65529 6.66973 6.02589 6.6108C6.16169 6.58268 6.29751 6.5376 6.43052 6.47837L5.46441 5.50984L5.72495 5.24995L6.76451 6.29211C6.90605 6.19612 7.04761 6.08881 7.18636 5.96171L7.27415 5.87414L6.35041 4.94809L6.61095 4.6882L7.21548 5.29423C7.28651 5.03694 7.33207 4.79375 7.35781 4.56468L7.72252 4.69241Z" fill="white"/>
<path d="M9.78355 6.9124L11.9655 9.0119L11.7076 9.27996L10.7881 8.39523L10.1114 9.09853L11.2326 10.1774L10.9691 10.4512L9.8479 9.37235L8.90216 10.3552C8.70802 10.557 8.50152 10.5581 8.29111 10.3557L7.83282 9.91471L8.03033 9.59406C8.16901 9.74416 8.30469 9.88582 8.43728 10.0134C8.52952 10.1021 8.61724 10.1033 8.69489 10.0226L9.57408 9.10887L8.40384 7.98285L8.66732 7.70903L9.83755 8.83505L10.5143 8.13175L9.52562 7.18046L9.78355 6.9124Z" fill="white"/>
<path d="M12.4585 9.59024L14.7721 11.7309L14.5221 12.0011L14.0524 11.5664L13.4004 12.271L14.0199 12.8442L13.77 13.1143L13.1505 12.5411L11.9742 13.8124L11.6952 13.5543L12.8715 12.2831L12.0847 11.555C11.7837 11.8214 11.5024 12.0135 11.2323 12.1287C10.8926 12.2721 10.5281 12.2891 10.1445 12.1794L10.2121 11.806C10.5747 11.8853 10.8992 11.8586 11.1799 11.726C11.3769 11.6249 11.5835 11.4782 11.7999 11.2915L11.154 10.6938L11.4039 10.4237L12.0704 11.0404C12.0921 11.0169 12.1168 10.9961 12.1331 10.9785L12.7253 10.3385L12.2086 9.86035L12.4585 9.59024ZM13.0072 10.5993L12.4149 11.2393C12.3932 11.2628 12.3713 11.2806 12.3522 11.3012L13.1215 12.0129L13.7735 11.3083L13.0072 10.5993Z" fill="white"/>
<path d="M14.9113 13.5814L15.3239 13.9482L15.5365 13.709L15.0373 13.2652L14.8353 13.4923C14.6758 13.6717 14.5097 13.8344 14.3482 13.9799L14.8773 14.4504L15.1006 14.1993L14.6881 13.8325L14.9113 13.5814ZM14.0838 14.2051C13.7373 14.4804 13.3815 14.6939 13.019 14.8427L12.9723 14.4318C13.4955 14.2226 14.0191 13.8264 14.5483 13.2372L15.4414 12.2328L17.7281 14.2662L17.0371 15.0433L16.6216 14.6739L16.4089 14.913L16.8573 15.3117L16.634 15.5628L16.1857 15.1641L15.9624 15.4152L16.5124 15.9043L16.2838 16.1613L15.9849 15.8955L16.0068 16.2201C15.8131 16.2513 15.6291 16.2536 15.4577 16.2296C15.533 16.4519 15.6506 16.6688 15.8133 16.8831L15.4396 17.0325C15.0265 16.4136 14.9123 15.7714 15.0941 15.1035L14.7235 14.7739L14.2184 15.3418C14.4377 15.4565 14.6413 15.5465 14.8263 15.6093L14.6489 15.9172C14.3323 15.7856 13.9816 15.6022 13.5966 15.367L13.7395 15.0497C13.8611 15.0936 13.9617 15.0707 14.0468 14.9751L14.4455 14.5267L14.0838 14.2051ZM15.3811 15.3586C15.3545 15.533 15.3531 15.7031 15.3743 15.8718C15.5491 15.9041 15.7387 15.9015 15.946 15.861L15.3811 15.3586ZM16.3466 14.4293L15.8085 13.9509L15.5959 14.19L16.1339 14.6685L16.3466 14.4293ZM15.1493 14.6922L15.6874 15.1707L15.9106 14.9196L15.3726 14.4411L15.1493 14.6922ZM17.2099 14.271L15.4971 12.748L15.2632 13.0111L16.976 14.5341L17.2099 14.271Z" fill="white"/>
<path d="M19.6167 15.7136L19.8237 15.89C19.8694 16.6071 20.0431 17.2912 20.3473 17.9395L19.9836 18.0763C19.8937 17.8735 19.8186 17.678 19.7573 17.4786L19.5237 17.7526L18.8205 17.1531L18.4313 17.6098L19.2867 18.3389L19.048 18.619L18.1926 17.8898L17.7826 18.3708L18.915 19.3361L18.6737 19.6192L16.1197 17.4421L16.361 17.159L17.4904 18.1217L17.9003 17.6407L17.0419 16.9089L17.2806 16.6289L18.1391 17.3606L18.5283 16.904L17.8251 16.3046L18.0587 16.0306C17.846 15.9965 17.6324 15.9511 17.4153 15.8975L17.4907 15.5254C18.2357 15.7243 18.9444 15.787 19.6167 15.7136ZM18.0673 16.0328L19.7538 17.4704C19.6033 17.0057 19.5174 16.533 19.497 16.0636C19.0477 16.1221 18.57 16.1091 18.0673 16.0328Z" fill="white"/>
<path d="M21.2087 17.633L22.4303 18.6287C22.4748 18.4792 22.5111 18.3334 22.5342 18.1974L22.8909 18.4056C22.8489 18.552 22.7938 18.7083 22.731 18.8739L23.9743 19.8873L23.7443 20.1695L22.5104 19.1636L22.2349 19.5016L23.2425 20.3229L22.3049 21.4732C22.1432 21.6716 21.9544 21.688 21.7497 21.5212L21.4366 21.266L21.5896 20.9263L21.8715 21.1819C21.9459 21.2425 22.0135 21.2356 22.0691 21.1674L22.7211 20.3675L22.0049 19.7837L20.6806 21.4084L20.383 21.1657L21.7073 19.5411L21.0283 18.9876L20.0578 20.1782L19.7694 19.9432L20.9699 18.4704L21.9372 19.2589L22.2127 18.921L20.9787 17.9151L21.2087 17.633Z" fill="white"/>
<path d="M26.3231 22.6836L24.7838 24.6636L24.4869 24.4329L24.5753 24.3192L23.0153 23.1064L22.9269 23.22L22.6301 22.9893L24.1694 21.0092L25.0252 21.6746C25.108 21.6072 25.1869 21.5318 25.2683 21.4532L24.0367 20.4957L24.2626 20.2051L25.0236 20.7968C25.0629 20.6551 25.0885 20.5179 25.1053 20.379L25.4849 20.4968C25.4597 20.6595 25.4085 20.8427 25.3394 21.0423L25.9868 21.5456C26.1562 21.4645 26.3242 21.3722 26.4877 21.2663L26.7035 21.6012C26.5709 21.6806 26.4425 21.7479 26.3184 21.8034L27.0794 22.3951L26.8536 22.6856L25.5872 21.7011C25.5027 21.7773 25.4175 21.8478 25.3347 21.9152L26.3231 22.6836ZM23.2264 22.8348L24.7864 24.0476L24.9976 23.776L23.4376 22.5632L23.2264 22.8348ZM23.6413 22.3011L25.2014 23.5139L25.4076 23.2486L23.8476 22.0358L23.6413 22.3011ZM24.0489 21.7769L25.6089 22.9897L25.8151 22.7244L24.2551 21.5116L24.0489 21.7769Z" fill="white"/>
<path d="M27.434 24.1801L27.2199 24.4695C27.0981 24.4391 26.9787 24.4055 26.8625 24.3743L26.2322 25.2266C26.0752 25.4388 25.8938 25.4688 25.6944 25.3214L25.4178 25.1168L25.5747 24.7702C25.6456 24.8425 25.718 24.906 25.7952 24.9631C25.8692 25.0178 25.9363 25.0077 25.9934 24.9306L26.4929 24.2552C26.3662 24.2112 26.2419 24.1641 26.1232 24.1161L26.2688 23.7711C26.4133 23.8381 26.5601 23.9019 26.7117 23.9593L27.2445 23.2389L26.9068 22.9892L27.1233 22.6965L27.4609 22.9463L27.8819 22.377L28.1778 22.5959L27.7568 23.1651L28.0495 23.3815L27.833 23.6742L27.5404 23.4578L27.0766 24.0849C27.1936 24.1217 27.3154 24.1521 27.434 24.1801ZM27.9735 24.3453L26.996 25.6671C27.1596 25.7284 27.3183 25.7761 27.4745 25.807L27.3223 26.1273C27.025 26.0517 26.7018 25.937 26.3536 25.789L26.4857 25.4489C26.5939 25.4841 26.6842 25.4563 26.7507 25.3663L28.5655 22.9125L28.8678 23.136L28.1924 24.0494L28.604 24.3538L28.3852 24.6497L27.9735 24.3453ZM27.8441 26.8814L27.5611 26.6721C27.3521 26.5175 27.3324 26.3288 27.4965 26.1069L29.4088 23.5212L29.7111 23.7448L29.0357 24.6582C29.2545 24.7255 29.4844 24.7711 29.7213 24.7872L29.7151 25.1656C29.3787 25.1159 29.0767 25.0467 28.8121 24.9605L27.8488 26.263C27.7917 26.3401 27.7985 26.4049 27.8693 26.4572L28.0011 26.5547C28.059 26.5975 28.1199 26.6027 28.1813 26.5735C28.2515 26.5459 28.3921 26.3961 28.6063 26.1267L28.8163 26.4213C28.517 26.7721 28.3079 26.9607 28.1912 26.9839C28.0858 27.0054 27.9696 26.9742 27.8441 26.8814Z" fill="white"/>
<path d="M31.6088 25.8805L30.5105 25.1127L30.7191 24.8144L33.2335 26.5723L33.025 26.8706L31.9235 26.1005L30.53 28.0937L31.838 29.0082L31.6271 29.3098L28.6931 27.2585L28.9039 26.9569L30.2152 27.8737L31.6088 25.8805Z" fill="white"/>
<path d="M35.2305 27.7264L36.6989 28.6895L36.0342 29.703L34.5658 28.7399L35.2305 27.7264ZM35.9129 29.2168L36.2069 28.7686L35.3573 28.2114L35.0633 28.6596L35.9129 29.2168ZM34.2932 28.9294L35.9756 30.0329L35.7869 30.3206L35.0845 29.8599L34.8564 30.2077L35.4551 30.6004L35.2686 30.8847L34.6699 30.492L34.4264 30.8633L35.2091 31.3766L35.0117 31.6777L33.1219 30.4382L33.3193 30.1372L34.1053 30.6527L34.3488 30.2814L33.7668 29.8997L33.9533 29.6154L34.5353 29.9971L34.7634 29.6493L34.1045 29.2171L34.2932 28.9294ZM33.3647 27.6173L33.8263 27.92L34.0918 27.5153C33.9537 27.4487 33.8089 27.3777 33.6664 27.3033L33.798 26.9639C34.2347 27.2025 34.6487 27.3736 35.039 27.486L34.9519 27.8594C34.7818 27.8053 34.6093 27.74 34.429 27.6648L34.1307 28.1197L34.5153 28.372L34.3157 28.6763L33.9311 28.424L33.8389 28.5645C33.8973 28.8037 33.9447 29.0596 33.9889 29.3278L33.6361 29.4791C33.6431 29.235 33.6472 29.0319 33.6415 28.8656L32.6982 30.3038L32.3938 30.1042L33.3086 28.7094C33.0173 28.9202 32.7124 29.0933 32.3949 29.2199L32.487 28.7733C32.8966 28.6592 33.2613 28.4679 33.5899 28.2003L33.1651 27.9217L33.3647 27.6173Z" fill="white"/>
<path d="M35.7938 32.2758L35.5035 32.0989L35.6204 31.7533C35.7009 31.8211 35.7787 31.8778 35.8573 31.9257C35.9393 31.9757 36.0094 31.9528 36.0656 31.8606L36.5069 31.1365C36.3548 31.1094 36.1993 31.0802 36.0513 31.0462L36.165 30.6752C36.3396 30.7347 36.5169 30.7819 36.7005 30.8189L37.1502 30.0811L36.7642 29.8458L36.9536 29.535L37.3396 29.7703L37.7039 29.1725L38.0181 29.364L37.6538 29.9618L37.9886 30.1658L37.7991 30.4766L37.4644 30.2726L37.0939 30.8806C37.2433 30.8967 37.3914 30.9073 37.5416 30.9145L37.348 31.2322C37.1978 31.225 37.0518 31.2109 36.9023 31.1948L36.3299 32.1341C36.1925 32.3595 36.0124 32.4091 35.7938 32.2758ZM38.1654 30.0909L38.9646 30.578L39.2436 30.1203L39.5578 30.3118L39.2789 30.7695L40.0781 31.2566L39.8887 31.5674L39.0894 31.0803L38.7918 31.5687L39.4612 31.9768L39.2864 32.2637C38.9606 32.5523 38.5922 32.7494 38.1765 32.8473C38.2925 33.1335 38.4667 33.4318 38.6979 33.7366L38.3681 33.901C38.1277 33.5577 37.9509 33.2251 37.8337 32.9101C37.4513 32.9534 37.0372 32.9259 36.5892 32.8308L36.5999 32.4673C37.0081 32.5662 37.3838 32.6031 37.7277 32.5691C37.6236 32.1403 37.6271 31.7349 37.7389 31.344L37.5613 31.2357L37.7466 30.9317L38.4775 31.3772L38.7752 30.8888L37.976 30.4017L38.1654 30.0909ZM38.0429 31.5293C37.9625 31.8456 37.9692 32.1729 38.0642 32.5166C38.394 32.4365 38.6914 32.2945 38.9583 32.0871L38.0429 31.5293Z" fill="white"/>
<path d="M40.0029 31.6441L41.3275 32.3896L41.7807 31.5844L42.1084 31.7688L41.6552 32.574L42.9833 33.3214L42.8048 33.6387L41.78 33.0619C41.697 33.7313 41.8008 34.4277 42.0913 35.1511L41.7113 35.3045C41.4225 34.4718 41.3399 33.6726 41.4669 32.9087L40.2977 34.9863L39.97 34.8018L41.1353 32.7312C40.4885 33.2852 39.743 33.623 38.9008 33.7411L38.8863 33.3428C39.621 33.2606 40.2772 32.9919 40.8457 32.5361L39.8244 31.9614L40.0029 31.6441ZM42.6746 32.092C42.7556 32.413 42.807 32.6806 42.8287 32.8948L42.4579 32.9339C42.4444 32.6968 42.397 32.4223 42.3264 32.1072L42.6746 32.092Z" fill="white"/>
<path d="M45.0144 34.0755L43.8202 33.4675L43.9854 33.1431L46.7194 34.5353L46.5542 34.8596L45.3565 34.2498L44.253 36.417L45.6753 37.1412L45.5083 37.4691L42.318 35.8447L42.485 35.5168L43.9108 36.2428L45.0144 34.0755Z" fill="white"/>
<path d="M48.441 35.072L48.7874 35.2283L47.4942 38.094L47.9317 38.2914L49.2249 35.4257L49.5713 35.582L48.2781 38.4477L49.3427 38.9281L49.1897 39.2672L45.9375 37.7997L46.0905 37.4606L47.1478 37.9377L48.441 35.072ZM49.947 36.5678L50.2138 36.7935C49.7923 37.3581 49.3668 37.8244 48.9358 38.196L48.6753 37.9468C49.0703 37.616 49.4978 37.155 49.947 36.5678ZM47.4492 35.4319C47.4147 36.0043 47.327 36.6362 47.1899 37.3291L46.8365 37.2662C46.9708 36.6378 47.0605 36.0113 47.1111 35.3934L47.4492 35.4319Z" fill="white"/>
<path d="M51.294 36.3664C51.4632 36.638 51.5898 36.8975 51.6844 37.1402L51.3464 37.2921C51.2728 37.0619 51.1439 36.7972 50.9619 36.5034L51.294 36.3664ZM50.404 37.2437L51.2393 37.568L50.6267 39.1453C50.7799 39.0932 50.9464 39.0291 51.1299 38.9545L51.082 39.365C50.7527 39.4946 50.4173 39.596 50.077 39.6656L50.0673 39.2928C50.1473 39.2637 50.2069 39.2096 50.2373 39.1313L50.7644 37.7741L50.2722 37.583L50.404 37.2437ZM51.5628 38.2044L53.3712 38.9067L53.2452 39.2311C53.0082 39.521 52.7192 39.7348 52.3767 39.8764C52.5545 40.1257 52.7903 40.3804 53.0795 40.63L52.7706 40.8619C52.4557 40.568 52.2128 40.2762 52.0317 39.9913C51.6597 40.0872 51.2329 40.1145 50.7586 40.0762L50.6768 39.7011C51.1169 39.7391 51.5053 39.7225 51.8433 39.6478C51.6853 39.3032 51.6158 38.963 51.6421 38.6299L51.4296 38.5474L51.5628 38.2044ZM51.974 38.7588C51.9714 39.0196 52.0372 39.2811 52.1736 39.5487C52.4459 39.4442 52.6821 39.2999 52.88 39.1107L51.974 38.7588ZM52.3828 36.8665L53.7028 37.3791L53.3986 38.1622C53.3668 38.2442 53.3942 38.3063 53.4874 38.3425L53.8155 38.47L53.6895 38.7943L53.2682 38.6307C53.0034 38.5279 52.9222 38.3504 53.0177 38.1043L53.2234 37.5749L52.6044 37.3345L52.561 37.4463C52.4104 37.8341 52.0955 38.0594 51.6214 38.1198L51.4922 37.7564C51.8605 37.7364 52.0975 37.601 52.196 37.3475L52.3828 36.8665Z" fill="white"/>
<path d="M55.5567 39.113L56.5561 39.4283L56.9087 38.3106L57.2826 38.4286L56.93 39.5463L57.876 39.8447L57.7629 40.2033L56.8168 39.9048L56.1682 41.9609L55.7943 41.843L56.443 39.7869L55.4435 39.4716L55.5567 39.113ZM55.2042 37.8106C55.3932 38.0758 55.544 38.3289 55.6555 38.5738L55.3281 38.7473C55.2321 38.5199 55.0825 38.2629 54.8742 37.9791L55.2042 37.8106ZM54.3517 38.758L55.2328 39.036L54.7202 40.6611C54.8735 40.6004 55.0355 40.5257 55.2087 40.4419L55.1874 40.842C54.871 40.9939 54.5428 41.1168 54.2078 41.2083L54.1728 40.8407C54.2545 40.8077 54.3092 40.7537 54.3333 40.6774L54.7762 39.2736L54.2421 39.1051L54.3517 38.758Z" fill="white"/>
<path d="M57.8083 39.8512L58.9012 40.1138C58.964 39.9891 59.0299 39.8691 59.0928 39.7444L58.1671 39.522L58.2503 39.1758L59.2537 39.4169C59.3204 39.2766 59.384 39.1315 59.4507 38.9912L59.8243 39.1139C59.7625 39.2512 59.7017 39.3847 59.6466 39.5113L61.2723 39.9019L61.1891 40.2481L59.4895 39.8397C59.4257 39.9684 59.3628 40.0931 59.3018 40.2101L61.3242 40.6961L61.2391 41.05L59.1195 40.5407C59.0354 40.685 58.9581 40.8186 58.8787 40.9436L60.6794 41.3762L60.6028 41.6952C60.3603 41.9166 60.0207 42.1148 59.5828 42.2934C59.7741 42.4217 59.9568 42.5519 60.1307 42.6842L59.8518 42.9546C59.3377 42.5431 58.795 42.1823 58.2256 41.8809L58.4892 41.6398C58.7447 41.7753 58.9875 41.9118 59.2158 42.0571C59.5969 41.9266 59.9079 41.7791 60.1509 41.6071L58.2684 41.1548C58.4216 40.9283 58.5688 40.6922 58.715 40.4435L57.7232 40.2052L57.8083 39.8512Z" fill="white"/>
<path d="M62.9268 39.8061L63.3024 39.8633L62.829 42.9715L63.3036 43.0437L63.777 39.9356L64.1526 39.9928L63.6792 43.101L64.8339 43.2768L64.7779 43.6446L61.2506 43.1073L61.3066 42.7396L62.4534 42.9142L62.9268 39.8061ZM64.7801 40.8409L65.0978 40.9864C64.8439 41.6437 64.5598 42.2074 64.2449 42.6813L63.9268 42.5115C64.2181 42.0865 64.5056 41.5274 64.7801 40.8409ZM62.0686 40.4199C62.1895 40.9805 62.2753 41.6126 62.3299 42.3168L61.9726 42.3514C61.9327 41.7101 61.8503 41.0825 61.7326 40.4739L62.0686 40.4199Z" fill="white"/>
<path d="M67.6675 40.2687C67.6986 40.3703 67.7293 40.4799 67.7595 40.6015L69.3136 40.6771L69.2965 41.0287L65.7447 40.856L65.7618 40.5044L67.3479 40.5815C67.3165 40.4879 67.2806 40.402 67.2405 40.32L67.6675 40.2687ZM68.5025 44.0176L68.1708 44.0015L68.0995 43.6577L68.4063 43.6886C68.5541 43.6958 68.6328 43.6435 68.6378 43.5397L68.687 42.5289L66.2099 42.4084L66.1367 43.9146L65.7771 43.8972L65.8662 42.0633L69.0625 42.2187L68.9935 43.637C68.9805 43.9047 68.8141 44.0328 68.5025 44.0176ZM66.3629 41.0743L68.6681 41.1864L68.6277 42.0174L66.3225 41.9053L66.3629 41.0743ZM68.2781 41.712L68.2906 41.4563L66.7124 41.3796L66.7 41.6353L68.2781 41.712ZM66.6281 42.621L68.2541 42.7L68.2133 43.539L66.5873 43.46L66.6281 42.621ZM67.8913 43.2431L67.9049 42.9634L66.9541 42.9172L66.9405 43.1968L67.8913 43.2431Z" fill="white"/>
<path d="M70.7752 40.2822L71.1665 40.2583L71.2086 40.949L72.63 40.8622L72.7477 42.7906L72.3684 42.8138L72.3545 42.5862L71.3125 42.6499L71.3942 43.9874L71.0029 44.0113L70.9212 42.6737L69.8832 42.7371L69.897 42.9647L69.5178 42.9879L69.4 41.0595L70.8174 40.9729L70.7752 40.2822ZM69.8605 42.3658L70.8985 42.3024L70.84 41.3442L69.802 41.4076L69.8605 42.3658ZM71.2898 42.2785L72.3319 42.2149L72.2734 41.2567L71.2313 41.3203L71.2898 42.2785Z" fill="white"/>
<path d="M75.1089 42.6548L75.1684 43.0099C74.8444 43.2062 74.4724 43.3821 74.0444 43.539L73.9363 43.184C74.3885 43.0271 74.7803 42.8478 75.1089 42.6548ZM74.1166 39.9781L74.4994 40.0599C74.3789 40.5506 74.2444 40.9584 74.0876 41.2808C74.2388 41.2392 74.39 41.1977 74.536 41.1488C74.5897 41.01 74.6455 40.8587 74.6999 40.6995L75.0478 40.7669C74.8039 41.4162 74.5886 41.8985 74.4055 42.209C74.6461 42.12 74.8873 42.0106 75.1344 41.8881L75.1913 42.2273C74.7864 42.425 74.3947 42.5799 74.016 42.6921L73.8605 42.3694C73.9236 42.3344 73.9729 42.2897 74.0123 42.2344C74.118 42.0909 74.2447 41.8547 74.3877 41.5225C74.1951 41.5832 73.9985 41.6445 73.7974 41.7026L73.6451 41.3753C73.7003 41.3417 73.7443 41.2897 73.7804 41.2147C73.9234 40.8338 74.0368 40.4214 74.1166 39.9781ZM75.2808 40.2939L74.9218 40.3541L74.863 40.003L76.6461 39.704L76.6851 39.9368C76.6775 40.2787 76.666 40.5727 76.6472 40.8232L77.1363 40.7412L77.1714 40.9503C77.1746 41.5014 77.0771 41.9841 76.8776 42.3907C77.1085 42.5588 77.3678 42.7019 77.6546 42.8161L77.4669 43.172C77.1774 43.0421 76.9201 42.8865 76.6951 42.7052C76.5027 42.9849 76.2556 43.2291 75.9573 43.4333L75.6907 43.1251C75.9811 42.9223 76.2143 42.6925 76.3903 42.4359C76.1507 42.1922 75.9459 41.9142 75.7799 41.6014C75.782 42.3878 75.634 43.0292 75.3346 43.5174L75.0135 43.3198C75.4114 42.669 75.5117 41.7193 75.3093 40.4635L75.2808 40.2939ZM76.5676 42.1385C76.7185 41.8293 76.8004 41.4951 76.8165 41.1315L76.2721 41.2228C76.2981 40.9669 76.3136 40.5993 76.3223 40.1193L75.6438 40.233L75.6722 40.4027C75.7 40.5684 75.7186 40.7275 75.7358 40.8787C75.925 41.3783 76.2023 41.7982 76.5676 42.1385Z" fill="white"/>
<path d="M77.1094 39.6301L78.672 39.2341L78.7585 39.5753L78.5724 39.6225L79.0862 41.6504C79.1579 41.6075 79.2285 41.5607 79.3002 41.5178L79.3906 41.8745C79.3189 41.9174 79.2463 41.9565 79.1746 41.9994L79.3603 42.7322L79.0036 42.8226L78.8425 42.1867C78.5519 42.3428 78.2439 42.4952 77.9223 42.6427L77.7437 42.3124L77.9937 42.2078L77.413 39.9163L77.1959 39.9713L77.1094 39.6301ZM78.3269 42.0574C78.4703 41.988 78.6127 41.9148 78.7541 41.8377L78.6293 41.3453L78.1756 41.4602L78.3269 42.0574ZM78.0911 41.1268L78.5448 41.0118L78.4239 40.5349L77.9703 40.6499L78.0911 41.1268ZM77.8858 40.3164L78.3394 40.2014L78.2156 39.7129L77.762 39.8278L77.8858 40.3164ZM78.8361 39.2627L80.5189 38.8363L80.9993 40.7324L79.3165 41.1588L78.8361 39.2627ZM80.5513 40.4786L80.2467 39.2766L79.2851 39.5203L79.5897 40.7223L80.5513 40.4786ZM79.7155 41.2516L80.0738 41.33C80.021 41.822 79.9205 42.256 79.7782 42.6387L79.4158 42.4953C79.5641 42.1359 79.6608 41.7194 79.7155 41.2516ZM80.6509 41.0022C81.0217 41.358 81.3167 41.6753 81.5397 41.953L81.2884 42.2478C81.0575 41.939 80.7635 41.6092 80.4092 41.2533L80.6509 41.0022Z" fill="white"/>
<path d="M81.069 39.5835L81.5925 39.4086L81.4404 38.9533C81.3026 39.0204 81.1597 39.0851 81.013 39.1509L80.8281 38.8374C81.2858 38.6422 81.6778 38.4269 82.004 38.1914L82.2433 38.491C82.0953 38.5911 81.9373 38.686 81.7666 38.781L81.9377 39.2932L82.3551 39.1538L82.4704 39.499L82.0531 39.6384L82.1089 39.8054C82.3341 39.8988 82.5682 40.0062 82.8124 40.1312L82.709 40.5032C82.514 40.349 82.3508 40.2264 82.2192 40.1354L82.7655 41.7706L82.4203 41.8859L81.8866 40.2887C81.8742 40.6556 81.8226 41.006 81.7229 41.3387L81.4292 40.9898C81.5934 40.5976 81.669 40.1928 81.6623 39.769L81.1843 39.9287L81.069 39.5835ZM84.0617 41.3332L83.7013 41.4537L83.5063 41.135C83.6214 41.1135 83.7302 41.0855 83.8288 41.0526C83.9123 41.0247 83.9413 40.9602 83.9109 40.8691L83.2809 38.9836L83.6451 38.8619L84.3055 40.8385C84.3879 41.0851 84.3046 41.2521 84.0617 41.3332ZM82.9348 39.6897L83.2877 39.6477C83.3488 40.1839 83.3466 40.6697 83.271 41.0998L82.894 41.0065C82.9734 40.5751 82.987 40.1361 82.9348 39.6897ZM84.3043 39.1941C84.6056 39.5405 84.8981 39.9235 85.1716 40.3382L84.8872 40.5977C84.5909 40.14 84.3022 39.7431 84.0173 39.4081L84.3043 39.1941ZM82.9872 38.7612C82.9571 39.0243 82.9016 39.2748 82.8132 39.5152L82.4943 39.3055C82.6357 38.8955 82.6708 38.4452 82.6008 37.9456L82.9676 37.8694C82.9918 38.0427 83.002 38.2122 83.0047 38.3716L84.2339 37.9609L84.3112 38.1923C84.3531 38.4566 84.3811 38.7298 84.3965 39.003L84.0133 39.0172C84.0207 38.8376 84.0105 38.6428 83.9888 38.4265L82.9872 38.7612Z" fill="white"/>
<path d="M86.7775 36.3977L87.1322 36.2507C87.2639 36.5685 87.3769 36.8724 87.4681 37.155C88.037 37.9844 88.6697 38.5708 89.3663 38.9143L89.2375 39.3141C88.6757 38.9927 88.159 38.54 87.6838 37.9576L87.7139 38.114C87.8443 38.8047 87.7462 39.4559 87.4226 40.075L87.0666 39.8847C87.3378 39.348 87.4259 38.7876 87.3384 38.2003C87.2565 37.7103 87.0678 37.1087 86.7775 36.3977ZM85.142 37.0799C85.4573 37.1614 85.7355 37.2582 85.9784 37.3741L85.8393 37.7175C85.6195 37.6051 85.3397 37.5046 84.9977 37.4212L85.142 37.0799ZM85.0984 38.3537L85.952 37.9999L86.5922 39.5445C86.6669 39.4009 86.7429 39.2395 86.8239 39.0588L87.0626 39.3841C86.9165 39.7002 86.7464 40.0001 86.5502 40.2893L86.287 40.0304C86.3283 39.9526 86.3355 39.876 86.3034 39.7984L85.7551 38.4755L85.2378 38.6899L85.0984 38.3537Z" fill="white"/>
<path d="M89.2422 36.548L91.379 35.509L91.5364 35.8327L90.6515 36.263L90.9139 36.8026L91.9499 36.2988L92.1073 36.6226L91.0713 37.1264L91.3932 37.7882C91.6553 37.7053 91.9626 37.5781 92.3241 37.4067C92.5039 37.3193 92.6858 37.2175 92.8658 37.1122L92.9655 37.4818L92.6274 37.6462C91.8719 38.0136 91.2955 38.2094 90.9053 38.2301C90.6226 38.2341 90.3586 38.1668 90.1132 38.0282C90.1165 38.3824 90.0664 38.7092 89.9629 39.0086L89.6069 38.8437C89.7736 38.3267 89.7729 37.74 89.6012 37.094L89.9601 36.9907C90.0184 37.2203 90.0606 37.4444 90.0869 37.654C90.3925 37.8523 90.6939 37.9326 90.9842 37.8893L91.0201 37.8807L90.3134 36.4275L89.3997 36.8718L89.2422 36.548ZM91.4731 34.5958L91.8702 35.4124L91.5357 35.5751L91.2925 35.0751L88.9471 36.2156L89.199 36.7336L88.8645 36.8963L88.4587 36.0617L89.8112 35.404C89.7049 35.3134 89.5966 35.237 89.4936 35.1715L89.8325 34.9355C89.9371 35.0225 90.0469 35.1204 90.1602 35.2343L91.4731 34.5958Z" fill="white"/>
<path d="M93.335 33.8863L92.163 34.5359L91.9865 34.2176L94.6698 32.7302L94.8463 33.0486L93.6708 33.7002L94.8498 35.8272L96.2457 35.0535L96.4241 35.3754L93.293 37.1109L93.1146 36.7891L94.514 36.0134L93.335 33.8863Z" fill="white"/>
<path d="M96.9279 32.0908C96.9735 32.5141 96.9713 32.9059 96.9248 33.264L96.5209 33.1282C96.599 32.6235 96.5585 32.0183 96.398 31.318L96.7687 31.1873C96.8095 31.3597 96.8427 31.5273 96.8716 31.6881L98.2731 30.821L98.4688 31.1373L97.3769 31.8129L97.6779 32.2994L98.6337 31.7079L98.8273 32.0209L97.8715 32.6123L98.1809 33.1123L99.1435 32.5167L99.3351 32.8262L98.3725 33.4218L98.8481 34.1906L98.5216 34.3926L97.0504 32.015L96.9279 32.0908ZM96.1153 33.3697C96.0916 33.5443 96.0577 33.7252 96.0183 33.9048L95.6948 33.6252C95.8073 33.0241 95.788 32.4151 95.639 31.8017L96.0335 31.7552C96.105 32.0684 96.1443 32.3828 96.1514 32.6983L97.5658 34.9841L97.2392 35.1861L96.1153 33.3697Z" fill="white"/>
<path d="M99.7187 30.0037L101.284 32.3059L100.983 32.5106L100.866 32.3386L100.344 32.6939L100.526 32.9619L100.225 33.1665L98.5941 30.7685L98.9083 30.5548C98.8464 30.3357 98.769 30.1223 98.665 29.9124L99.0085 29.7418C99.0991 29.9462 99.1642 30.1486 99.2093 30.3501L99.7187 30.0037ZM100.146 32.4029L100.668 32.0475L100.225 31.3959L99.7026 31.7512L100.146 32.4029ZM99.5114 31.4701L100.034 31.1147L99.6202 30.5061L99.0975 30.8615L99.5114 31.4701ZM100.854 30.3927C101.257 30.5155 101.585 30.6356 101.84 30.762L101.711 31.106C101.437 30.9731 101.101 30.8486 100.707 30.7247L100.854 30.3927ZM101.428 28.8464C102.204 29.9876 102.666 30.7034 102.813 30.9905C102.942 31.2511 102.864 31.4782 102.583 31.6693C102.517 31.7143 102.393 31.7887 102.221 31.8912L101.949 31.6552C102.099 31.5628 102.23 31.484 102.336 31.412C102.468 31.322 102.497 31.2008 102.422 31.0484C102.329 30.8695 101.961 30.3071 101.327 29.3599L100.497 29.9245C100.539 30.1859 100.557 30.4398 100.544 30.6907L100.187 30.5708C100.189 30.1048 100.078 29.6143 99.8469 29.1039L100.185 28.9322C100.278 29.1399 100.348 29.3434 100.406 29.5414L101.428 28.8464Z" fill="white"/>
<path d="M101.811 27.8072C102.155 27.8155 102.465 27.8501 102.737 27.9076L102.679 28.2792C102.431 28.2139 102.122 28.1738 101.75 28.1613L101.811 27.8072ZM105.793 29.3165C105.616 29.4476 105.421 29.5873 105.213 29.7365C105.002 29.8882 104.817 29.9951 104.658 30.0631C104.501 30.1198 104.332 30.126 104.154 30.0883C104.069 30.067 104.011 30.0699 103.972 30.0985C103.905 30.1485 103.897 30.3788 103.947 30.7895L103.567 30.7474C103.535 30.368 103.558 30.097 103.639 29.9374L102.965 29.028L102.534 29.3473L102.325 29.0645L103.041 28.5333L103.942 29.7479C103.967 29.7488 103.995 29.753 104.026 29.7603C104.164 29.7923 104.289 29.7994 104.4 29.7816C104.53 29.7551 104.692 29.6792 104.887 29.5451C105.072 29.4125 105.29 29.2561 105.541 29.0703C105.698 28.9536 105.856 28.8313 106.015 28.709C106.173 28.5866 106.293 28.4873 106.375 28.4166L106.525 28.7734L105.793 29.3165ZM103.338 27.1677L102.718 27.6275L102.53 27.3736L104.294 26.0658L104.454 26.2811C104.386 26.5799 104.287 26.8625 104.161 27.1355C104.172 27.1371 104.181 27.1356 104.192 27.1372L104.838 26.6584L105.896 28.0851C106.036 28.2747 106.002 28.4497 105.793 28.6045L105.545 28.788L105.293 28.5818L105.531 28.4255C105.601 28.3731 105.614 28.3091 105.561 28.2384L105.44 28.0746L104.977 28.4176L105.368 28.9446L105.088 29.1518L104.697 28.6248L104.244 28.9607L104.64 29.4941L104.351 29.7085L103.064 27.9734L103.803 27.4255C103.645 27.4334 103.471 27.4476 103.287 27.4746L103.338 27.1677ZM103.867 27.129C103.952 26.9615 104.02 26.7915 104.074 26.6222L103.354 27.1558C103.534 27.1424 103.704 27.1305 103.867 27.129ZM103.894 28.4884L104.061 28.7133L104.514 28.3774L104.347 28.1525L103.894 28.4884ZM104.627 27.9452L104.794 28.1702L105.256 27.8271L105.09 27.6022L104.627 27.9452ZM104.904 27.3516L104.737 27.1266L104.274 27.4697L104.441 27.6946L104.904 27.3516ZM104.161 27.9019L103.995 27.6769L103.542 28.0128L103.708 28.2378L104.161 27.9019Z" fill="white"/>
<path d="M107.649 23.7527L109.598 26.1894L109.31 26.4193L109.168 26.2412L108.621 26.6784L108.766 26.8595L108.479 27.0894L106.528 24.6495L107.649 23.7527ZM108.399 26.4003L108.946 25.9632L107.584 24.2606L107.037 24.6977L108.399 26.4003ZM105.703 25.9181C105.757 26.1317 105.79 26.3404 105.808 26.5415L105.416 26.5833C105.381 26.1298 105.272 25.6993 105.087 25.2945L105.431 25.1222C105.494 25.2658 105.544 25.4052 105.592 25.5414L106.445 24.8594L106.672 25.1437L106.247 25.4834C106.396 25.6821 106.531 25.8708 106.645 26.0513L107.132 25.6616L107.36 25.9459L106.832 26.3681C106.874 26.4468 106.913 26.528 106.951 26.6005C107.296 26.6418 107.662 26.7025 108.052 26.7801L108.091 27.1999C107.677 27.0798 107.342 26.9942 107.086 26.9429C107.217 27.3758 107.218 27.8312 107.079 28.311L106.696 28.2284C106.828 27.7281 106.806 27.2645 106.629 26.8322C106.594 26.7629 106.56 26.6879 106.522 26.6154L105.907 27.1075L105.68 26.8233L106.339 26.2962C106.225 26.1156 106.09 25.9269 105.941 25.7282L105.703 25.9181Z" fill="white"/>
<path d="M107.869 23.0238L109.713 23.9055L110.297 25.8634L109.961 25.9619L109.421 24.1551L107.72 23.3413L107.869 23.0238ZM108.389 22.5793L110.233 23.461L110.817 25.4189L110.48 25.5174L109.941 23.7106L108.228 22.9071L108.389 22.5793Z" fill="white"/>
</svg>
