<svg width="87" height="30" viewBox="0 0 87 30" fill="none" xmlns="http://www.w3.org/2000/svg">
<path d="M6.15392 13.617L6.35489 13.9224L4.7538 14.9309L4.44097 16.7905L4.0946 16.7342L4.4334 14.7192L6.15392 13.617ZM6.72462 13.9941L6.91225 14.2906L5.32451 15.3079L5.01168 17.1675L4.6653 17.1112L5.00411 15.0962L6.72462 13.9941Z" fill="white"/>
<path d="M6.9312 15.538L7.98088 16.1676L8.08169 15.9995L6.77131 15.2136L6.9359 14.9392L8.24628 15.7251L8.35944 15.5364C8.01984 15.3561 7.66515 15.162 7.2933 14.9576L7.39478 14.664C8.30312 15.1715 9.1209 15.5966 9.85155 15.9416L9.79261 16.2654C9.45027 16.0974 9.08391 15.915 8.69561 15.7147L8.57216 15.9205L9.88941 16.7106L9.72482 16.985L8.40757 16.195L8.30676 16.363L9.35987 16.9947L8.65213 18.1747L7.59902 17.5431L7.48998 17.7249L8.68716 18.4429L8.53286 18.7002L7.33567 17.9822L7.2184 18.1777L8.5871 18.9986L8.42045 19.2764L5.36746 17.4454L5.53411 17.1675L6.89252 17.9822L7.00979 17.7867L5.8229 17.0748L5.9772 16.8176L7.1641 17.5294L7.27314 17.3476L6.22346 16.7181L6.9312 15.538ZM8.49084 17.7281L8.6184 17.5155L7.88088 17.0731L7.75332 17.2858L8.49084 17.7281ZM7.42744 17.0903L7.555 16.8777L6.81748 16.4353L6.68992 16.648L7.42744 17.0903ZM6.96561 16.1883L7.70313 16.6307L7.82658 16.4249L7.08905 15.9825L6.96561 16.1883ZM8.15246 16.6203L8.02901 16.8261L8.76653 17.2685L8.88998 17.0627L8.15246 16.6203Z" fill="white"/>
<path d="M10.5912 18.1663L11.5699 18.6857C11.6089 18.6294 11.6443 18.5712 11.6778 18.5166C11.7735 18.3364 11.8501 18.2005 11.9026 18.1015L12.2206 18.2703C12.1119 18.4752 12.0092 18.6517 11.9215 18.7998C11.9137 18.8229 11.9079 18.8425 11.9056 18.8639L12.9867 19.4377L12.8198 19.7522L11.8305 19.2271C11.7396 19.8762 11.8802 20.4988 12.2505 21.0893L11.9031 21.2491C11.5388 20.63 11.406 19.9844 11.5011 19.3103C11.0177 19.7603 10.3747 20.0077 9.57197 20.0526L9.52932 19.6722C10.3135 19.6537 10.9168 19.4214 11.343 18.9683L10.4243 18.4807L10.5912 18.1663ZM12.3589 17.2931C12.3662 17.4328 12.3661 17.5867 12.3549 17.7529L13.6162 18.4223L13.4456 18.7438L10.8558 17.3693L10.4601 18.1148C10.0371 18.8775 9.58011 19.4229 9.08901 19.751L8.95132 19.379C9.35358 19.0989 9.74461 18.6181 10.1209 17.9348L10.6872 16.8677L11.9874 17.5578C11.9872 17.4218 11.9761 17.2891 11.9542 17.1598L12.3589 17.2931Z" fill="white"/>
<path d="M13.8833 18.5985L15.3166 19.2537C15.3219 19.0978 15.3202 18.9475 15.3083 18.8101L15.706 18.9215C15.7023 19.0737 15.6884 19.2389 15.6695 19.415L17.1283 20.0818L16.977 20.4128L15.5291 19.751L15.3478 20.1476L16.5302 20.688L15.9132 22.0377C15.8068 22.2705 15.6283 22.334 15.3882 22.2243L15.0207 22.0563L15.0831 21.689L15.4204 21.8652C15.5077 21.9051 15.5713 21.8814 15.6079 21.8013L16.0369 20.8627L15.1965 20.4786L14.3252 22.3849L13.9759 22.2253L14.8473 20.319L14.0506 19.9548L13.412 21.3518L13.0737 21.1971L13.8636 19.4691L14.9986 19.9879L15.1799 19.5914L13.7319 18.9295L13.8833 18.5985Z" fill="white"/>
<path d="M18.7676 20.9499L17.5149 20.474L17.6442 20.1337L20.5122 21.2233L20.3829 21.5636L19.1265 21.0862L18.2628 23.3597L19.7548 23.9265L19.6241 24.2705L16.2775 22.9991L16.4081 22.6551L17.9038 23.2233L18.7676 20.9499Z" fill="white"/>
<path d="M22.1098 21.4778L22.4738 21.5872L21.5694 24.5983L22.0291 24.7363L22.9335 21.7252L23.2974 21.8345L22.393 24.8457L23.5117 25.1816L23.4047 25.5379L19.9875 24.5116L20.0945 24.1553L21.2055 24.489L22.1098 21.4778ZM23.7998 22.7623L24.094 22.9508C23.7505 23.566 23.3902 24.0843 23.0119 24.5095L22.7208 24.2967C23.0688 23.9168 23.4318 23.4035 23.7998 22.7623ZM21.1741 21.9653C21.2153 22.5373 21.2116 23.1752 21.1669 23.8802L20.8083 23.8643C20.8587 23.2238 20.8651 22.5908 20.8338 21.9717L21.1741 21.9653Z" fill="white"/>
<path d="M25.0561 22.358C25.2649 22.6004 25.43 22.8373 25.5607 23.0625L25.2502 23.2647C25.142 23.0484 24.9739 22.8068 24.7489 22.5445L25.0561 22.358ZM24.3116 23.3617L25.1867 23.5538L24.824 25.2064C24.9674 25.1314 25.1221 25.0425 25.2919 24.9406L25.3077 25.3536C25.0023 25.5322 24.6864 25.684 24.3609 25.8051L24.294 25.4382C24.3685 25.3972 24.4191 25.3346 24.4371 25.2526L24.7493 23.8304L24.2335 23.7172L24.3116 23.3617ZM25.6043 24.1328L27.4992 24.5486L27.4246 24.8886C27.235 25.2114 26.9823 25.4672 26.6656 25.6598C26.8797 25.8788 27.1518 26.0941 27.476 26.2963L27.2065 26.5729C26.8501 26.3309 26.5652 26.08 26.3424 25.8264C25.9897 25.9783 25.5721 26.0709 25.0975 26.106L24.9591 25.748C25.3998 25.7178 25.781 25.6417 26.1034 25.5159C25.8943 25.1997 25.7733 24.8742 25.7481 24.5411L25.5254 24.4922L25.6043 24.1328ZM26.0959 24.6174C26.1334 24.8754 26.2386 25.1238 26.4145 25.3671C26.6675 25.222 26.8788 25.0431 27.0453 24.8258L26.0959 24.6174ZM26.2088 22.6847L27.5919 22.9882L27.4118 23.8087C27.393 23.8947 27.4295 23.9518 27.5272 23.9733L27.871 24.0487L27.7964 24.3886L27.3549 24.2917C27.0775 24.2309 26.97 24.068 27.0266 23.8101L27.1483 23.2554L26.4998 23.113L26.474 23.2302C26.3849 23.6365 26.1083 23.9076 25.6492 24.0402L25.4657 23.701C25.8264 23.6246 26.0399 23.4544 26.0982 23.1887L26.2088 22.6847Z" fill="white"/>
<path d="M29.4277 24.3497L30.4658 24.4933L30.6264 23.3323L31.0147 23.386L30.8541 24.547L31.8368 24.6829L31.7852 25.0554L30.8026 24.9194L30.5072 27.0551L30.1189 27.0014L30.4143 24.8657L29.3762 24.7221L29.4277 24.3497ZM28.8622 23.1246C29.0929 23.3544 29.284 23.5787 29.4349 23.8015L29.1412 24.0274C29.0084 23.8192 28.8179 23.591 28.5651 23.346L28.8622 23.1246ZM28.1803 24.2014L29.0955 24.328L28.8621 26.0159C29.0031 25.9304 29.1503 25.8296 29.3071 25.718L29.353 26.1161C29.0665 26.3188 28.7635 26.4949 28.4485 26.6411L28.3524 26.2846C28.4275 26.2384 28.4725 26.176 28.4834 26.0968L28.6851 24.6386L28.1304 24.5619L28.1803 24.2014Z" fill="white"/>
<path d="M34.7902 24.6503C34.7706 24.7133 34.7511 24.7723 34.7319 24.8273C34.7958 25.2476 34.8906 25.6177 35.0124 25.9373C35.1654 25.5775 35.2617 25.1584 35.3054 24.6801L34.7902 24.6503ZM34.8183 26.3147C34.6984 26.0313 34.5966 25.7129 34.5169 25.3597C34.4447 25.4998 34.3729 25.6319 34.2941 25.7475L34.0716 25.4382C34.3206 25.0118 34.5065 24.4296 34.6293 23.6914L34.997 23.7768C34.9624 23.9591 34.9285 24.1294 34.8871 24.2913L35.9014 24.3499L35.8804 24.7133L35.6488 24.6999C35.5872 25.3495 35.4354 25.8976 35.1932 26.3444C35.3737 26.6874 35.5903 26.9603 35.8513 27.1597L35.6219 27.455C35.3731 27.2523 35.1638 26.9918 34.9899 26.6732C34.7854 26.9539 34.5355 27.1879 34.2444 27.3714L34.0669 27.0446C34.374 26.862 34.6243 26.62 34.8183 26.3147ZM32.9686 25.4586L33.3215 25.5231C33.2938 25.5856 33.2704 25.6443 33.2427 25.7068L34.0574 25.7539L34.0396 26.0614C33.9539 26.2968 33.8139 26.5011 33.6196 26.6742C33.7791 26.7555 33.9342 26.8446 34.0814 26.9332L33.8606 27.217C33.7104 27.1121 33.5283 27.0055 33.3144 26.8929C33.0409 27.0494 32.7017 27.166 32.3003 27.247L32.1426 26.9254C32.4463 26.8708 32.7109 26.798 32.933 26.6986C32.7732 26.6213 32.6014 26.5432 32.4219 26.4607C32.5274 26.2985 32.6243 26.1479 32.7089 26.0005L32.2896 25.9763L32.3083 25.6528L32.8713 25.6854C32.9079 25.6073 32.9405 25.5291 32.9686 25.4586ZM33.2804 26.5103C33.4642 26.3807 33.6012 26.2284 33.6992 26.0577L33.0803 26.022C33.0179 26.1306 32.9518 26.2349 32.8819 26.3351C33.0189 26.3911 33.1519 26.4468 33.2804 26.5103ZM32.7966 23.6497C32.8757 23.8065 32.9424 23.9706 33.0001 24.1502L32.7214 24.2583C32.6526 24.062 32.5747 23.8853 32.4914 23.7322L32.7966 23.6497ZM33.943 23.7119L34.2031 23.8551C34.1136 24.0182 34.004 24.1802 33.8708 24.3368L33.6151 24.1858C33.7526 24.0254 33.8618 23.8675 33.943 23.7119ZM32.394 24.3075L33.1488 24.3511L33.1912 23.6164L33.5386 23.6364L33.4962 24.3712L34.191 24.4114L34.1719 24.7428L33.477 24.7027L33.4759 24.7226C33.6824 24.8227 33.8921 24.939 34.105 25.0675L33.8881 25.3555C33.7204 25.2055 33.5791 25.0852 33.46 24.9982L33.4341 25.4454L33.0867 25.4254L33.1257 24.7505C32.9773 25.0304 32.7431 25.2693 32.4232 25.4672L32.2533 25.1488C32.542 25.0052 32.7476 24.8448 32.878 24.6681L32.3749 24.639L32.394 24.3075Z" fill="white"/>
<path d="M39.5185 24.112L39.5327 25.0478L39.1487 25.0537L39.14 24.4777L36.4683 24.5181L36.477 25.094L36.0931 25.0998L36.0789 24.1639L37.6068 24.1409C37.5488 24.0137 37.491 23.8946 37.4254 23.7876L37.8603 23.709C37.9182 23.8361 37.9763 23.9752 38.0307 24.1344L39.5185 24.112ZM36.7177 24.8704L38.8934 24.8375L38.8988 25.1894C38.6494 25.3692 38.3721 25.5494 38.0628 25.7261L38.0657 25.9221L39.6096 25.8988L39.6151 26.2667L38.0713 26.2901L38.0827 27.042C38.0865 27.294 37.9564 27.4239 37.6925 27.4279L37.2005 27.4354L37.1033 27.0928C37.2434 27.0947 37.3954 27.0964 37.5594 27.0939C37.6554 27.0925 37.7025 27.0317 37.7007 26.9157L37.6913 26.2958L36.0515 26.3206L36.046 25.9526L37.6858 25.9279L37.6805 25.5759C37.9582 25.4237 38.1763 25.2964 38.3348 25.198L36.723 25.2223L36.7177 24.8704Z" fill="white"/>
<path d="M41.0217 23.5793L41.3908 23.716C41.2835 24.0545 41.135 24.3805 40.9449 24.69L41.1716 27.3162L40.797 27.3486L40.6085 25.1647C40.4596 25.3462 40.2983 25.5247 40.1244 25.6963L39.9708 25.3121C40.4686 24.7994 40.8203 24.223 41.0217 23.5793ZM43.2298 27.0663L42.4845 27.1306C42.1657 27.1582 41.9925 27.0125 41.965 26.6937L41.8687 25.5778C41.7318 25.6659 41.5909 25.7544 41.4456 25.8392L41.2433 25.4953C41.4502 25.3811 41.6489 25.2636 41.8305 25.1355L41.6967 23.5852L42.0753 23.5526L42.1888 24.8677C42.557 24.5749 42.8783 24.2501 43.1446 23.8939L43.4334 24.1701C43.0886 24.5933 42.6884 24.9811 42.2284 25.326L42.3391 26.6092C42.3488 26.7208 42.4134 26.7714 42.5409 26.7604L43.1347 26.7092C43.2263 26.7013 43.2913 26.6635 43.33 26.6C43.3647 26.5367 43.3744 26.3231 43.3507 25.9558L43.7114 26.0411C43.723 26.5018 43.6953 26.7852 43.6318 26.8871C43.5644 26.9893 43.429 27.0491 43.2298 27.0663Z" fill="white"/>
<path d="M44.3968 23.8788C44.3319 24.0101 44.2599 24.1222 44.1816 24.2191L44.7511 24.1323C44.7518 24.031 44.7486 23.9304 44.7408 23.8264L44.3968 23.8788ZM44.7007 24.492L43.9652 24.6041L43.9128 24.2601L44.0907 24.233L43.8693 24.028C44.0265 23.8382 44.1536 23.5841 44.2423 23.2631L44.5892 23.283C44.5736 23.3663 44.5528 23.4423 44.532 23.5183L45.6155 23.3531L45.6662 23.6853L45.1007 23.7715C45.1091 23.8795 45.1162 23.9795 45.1149 24.0768L45.8227 23.9689L45.8751 24.313L45.0882 24.4329C45.0833 24.4539 45.0824 24.4743 45.0808 24.4907C45.3964 24.5964 45.6645 24.7092 45.893 24.8282L45.6958 25.101L47.2064 24.8707L47.4626 26.5513L47.083 26.6092L47.0595 26.4549L45.193 26.7395L45.2165 26.8937L44.8409 26.951L44.5931 25.3257C44.5 25.4047 44.4028 25.4842 44.2926 25.5577L43.9932 25.2918C44.3767 25.0472 44.6085 24.7893 44.6952 24.509L44.7007 24.492ZM45.1424 26.4073L47.0088 26.1228L46.969 25.8618L45.1026 26.1463L45.1424 26.4073ZM45.0532 25.8221L46.9196 25.5375L46.8774 25.2607L45.011 25.5453L45.0532 25.8221ZM44.6638 25.2583L45.6286 25.1112C45.4579 24.9997 45.2509 24.8896 44.9999 24.7822C44.9279 24.947 44.8145 25.1059 44.6638 25.2583ZM45.8494 23.3215L47.2334 23.1105L47.4613 24.6053L46.0773 24.8162L45.8494 23.3215ZM47.0435 24.3331L46.9163 23.4988L46.2678 23.5976L46.395 24.432L47.0435 24.3331Z" fill="white"/>
<path d="M48.9498 24.8941L49.011 25.1796L49.8167 25.0067L49.7554 24.7212L48.9498 24.8941ZM49.69 24.4162L49.6254 24.115L48.8197 24.2879L48.8843 24.589L49.69 24.4162ZM49.0773 25.4885L49.2342 26.2199L48.8744 26.2971L48.3903 24.0404L49.9156 23.7132L50.3065 25.5358C50.3644 25.8056 50.2647 25.9702 50.0144 26.0239L49.7094 26.0893L49.5447 25.7605L49.8258 25.7166C49.9157 25.6973 49.9518 25.6364 49.9299 25.5347L49.883 25.3157L49.0773 25.4885ZM51.3289 23.7987L50.6914 23.9354C50.4177 23.9942 50.2528 23.8741 50.189 23.5768L49.9163 22.3057L50.284 22.2269L50.383 22.6884C50.7724 22.5394 51.0875 22.4063 51.3266 22.2814L51.5183 22.5839C51.2136 22.727 50.861 22.8763 50.456 23.0286L50.5399 23.4197C50.5667 23.5449 50.6279 23.6013 50.7218 23.5812L51.1872 23.4813C51.2498 23.4679 51.2886 23.4391 51.3076 23.3941C51.3288 23.3405 51.3238 23.2025 51.2846 22.9818L51.657 23.0205C51.6954 23.3519 51.6825 23.5592 51.6264 23.6407C51.5686 23.7145 51.4697 23.7685 51.3289 23.7987ZM50.8461 24.8473L50.9485 25.3244C50.9636 25.3948 51.0142 25.4208 51.108 25.4006L51.5813 25.2991C51.6438 25.2857 51.6866 25.2561 51.7064 25.215C51.7276 25.1613 51.7226 25.0233 51.6873 24.8018L52.0471 24.8392C52.0863 25.1744 52.0774 25.3808 52.0205 25.4585C51.9666 25.5315 51.8677 25.5854 51.723 25.6164L51.0737 25.7557C50.8078 25.8128 50.6488 25.7201 50.5985 25.4854L50.314 24.1596L50.6817 24.0807L50.774 24.5109C51.1332 24.3929 51.4475 24.256 51.7184 24.1078L51.911 24.4143C51.587 24.582 51.2288 24.7242 50.8461 24.8473ZM49.4007 22.6864C49.6977 22.9458 49.9316 23.1779 50.1055 23.3779L49.8474 23.6624C49.7915 23.5926 49.7308 23.5197 49.6663 23.4476C49.273 23.5974 48.7942 23.7492 48.2299 23.903L48.0619 23.6159C48.1234 23.5781 48.1714 23.5351 48.2099 23.4859C48.3915 23.1688 48.5182 22.8634 48.5863 22.5706L48.9649 22.5999C48.8694 22.9558 48.7401 23.2495 48.5787 23.4886C48.8491 23.4143 49.1396 23.3192 49.448 23.2121C49.3542 23.1177 49.2564 23.0242 49.1538 22.9275L49.4007 22.6864Z" fill="white"/>
<path d="M52.5181 21.6342L52.9059 21.7016C52.862 22.054 52.7752 22.4015 52.6445 22.7404L53.345 25.2816L52.9825 25.3815L52.4 23.2684C52.2866 23.4739 52.1605 23.6788 52.0207 23.8791L51.7998 23.5292C52.196 22.9346 52.4371 22.3038 52.5181 21.6342ZM55.3234 24.6617L54.6022 24.8604C54.2938 24.9454 54.097 24.8337 54.012 24.5252L53.7144 23.4455C53.5957 23.557 53.4732 23.6696 53.3458 23.7794L53.0844 23.4781C53.2671 23.3281 53.441 23.1764 53.5964 23.0174L53.1829 21.5174L53.5493 21.4164L53.9 22.6889C54.2088 22.3341 54.4657 21.9563 54.6628 21.5576L54.997 21.7767C54.7348 22.2555 54.4119 22.7097 54.0222 23.1324L54.3645 24.3741C54.3942 24.4821 54.467 24.5201 54.5904 24.4861L55.1649 24.3277C55.2536 24.3033 55.3107 24.2544 55.3372 24.1848C55.3598 24.1164 55.3304 23.9046 55.2404 23.5477L55.6105 23.566C55.7058 24.0169 55.73 24.3006 55.6861 24.4123C55.6384 24.525 55.5162 24.6085 55.3234 24.6617Z" fill="white"/>
<path d="M57.03 24.1666L56.6982 24.2842L56.4962 23.9653C56.5982 23.9419 56.6989 23.9147 56.7894 23.8827C56.8761 23.852 56.9054 23.7907 56.8746 23.704L56.5889 22.8971C56.478 22.9915 56.3621 23.0835 56.2461 23.1755L56.0312 22.8442C56.18 22.7491 56.321 22.644 56.4593 22.5313L56.1842 21.7546L55.7581 21.9055L55.6366 21.5624L56.0627 21.4115L55.821 20.7291L56.1829 20.6009L56.4247 21.2833L56.7753 21.1591L56.8968 21.5022L56.5462 21.6264L56.7679 22.2523C56.8499 22.1724 56.9268 22.09 57.0023 22.0038L57.1319 22.3695C57.0512 22.4533 56.9743 22.5357 56.8961 22.6143L57.27 23.67C57.3555 23.9113 57.2751 24.0798 57.03 24.1666ZM56.8274 20.4914L58.5241 19.8905L59.0062 21.2516L57.3095 21.8526L56.8274 20.4914ZM58.5527 21.0855L58.4619 20.8291L57.4627 21.183L57.5535 21.4394L58.5527 21.0855ZM57.3666 20.9115L58.3657 20.5576L58.2763 20.305L57.2771 20.6589L57.3666 20.9115ZM57.1338 22.1354L59.3019 21.3676L59.4154 21.688L58.5105 22.0086L58.6333 22.3554L59.3761 22.0924L59.4883 22.4091L58.7455 22.6722L58.8871 23.0718C59.0319 23.0375 59.198 22.9914 59.3866 22.9246C59.5902 22.8525 59.761 22.7835 59.8989 22.7177L59.9237 23.0993C59.7767 23.1514 59.6434 23.1944 59.5214 23.2333C59.0186 23.4072 58.6594 23.4834 58.4426 23.4584C58.2866 23.4373 58.1232 23.3593 57.9562 23.2233C57.9429 23.4614 57.8979 23.6937 57.8212 23.9204L57.472 23.7852C57.6233 23.3497 57.6419 22.923 57.5252 22.4976L57.8553 22.4231C57.8958 22.5615 57.9224 22.6964 57.94 22.8301C58.1306 23.0088 58.3095 23.1066 58.478 23.1149L58.5159 23.1142L58.1674 22.1301L57.2474 22.4559L57.1338 22.1354Z" fill="white"/>
<path d="M60.5921 18.8834L60.8852 19.0903C60.7152 19.2795 60.5372 19.4503 60.3474 19.6045L60.7204 20.4455L61.6199 20.0466L61.0329 18.7229L61.3803 18.5689L61.9673 19.8925L62.7827 19.5309L62.9319 19.8674L62.1164 20.229L62.8591 21.9037L62.5117 22.0577L61.7691 20.383L60.8622 20.7851C61.1483 21.5684 61.0966 22.2608 60.7066 22.8713L60.3411 22.7577C60.7006 22.2264 60.7592 21.6184 60.5112 20.9408L59.6592 21.3186L59.51 20.9822L60.3693 20.6012L60.0353 19.8479C59.8354 19.9891 59.6216 20.1189 59.403 20.2377L59.1539 19.9719C59.7865 19.6125 60.2636 19.2478 60.5921 18.8834Z" fill="white"/>
<path d="M62.8944 19.1448L63.8804 18.6053C63.8432 18.4706 63.8114 18.3376 63.7742 18.2029L62.9391 18.6598L62.7682 18.3475L63.6735 17.8522C63.6286 17.7035 63.5783 17.5532 63.5334 17.4045L63.8927 17.2444C63.9392 17.3877 63.9837 17.5274 64.0279 17.6583L65.4947 16.8557L65.6656 17.168L64.1321 18.0071C64.1713 18.1452 64.2085 18.2799 64.2418 18.4076L66.0666 17.4092L66.2413 17.7285L64.3288 18.7749C64.3635 18.9383 64.396 19.0892 64.4211 19.2351L66.0458 18.3462L66.2032 18.6339C66.1723 18.9608 66.0537 19.3358 65.8494 19.7622C66.0772 19.7287 66.3 19.7026 66.5177 19.6838L66.4927 20.0714C65.8354 20.1118 65.191 20.209 64.5668 20.3682L64.6002 20.0125C64.8804 19.9413 65.152 19.8793 65.4188 19.8336C65.6134 19.481 65.7448 19.1628 65.8093 18.8722L64.1109 19.8015C64.0722 19.5308 64.0227 19.257 63.9639 18.9746L63.0691 19.4641L62.8944 19.1448Z" fill="white"/>
<path d="M66.5124 16.5887L66.1428 16.8347L65.9389 16.5283L66.9879 15.8303L67.1918 16.1367L66.8321 16.376L67.7672 17.7814C67.8683 17.6517 67.9605 17.5231 68.0493 17.3967L68.2598 17.713C68.0465 18.0279 67.7855 18.3649 67.4746 18.7208L67.173 18.4698C67.2908 18.3434 67.4029 18.2159 67.5117 18.0907L66.5124 16.5887ZM66.9726 15.5763L68.8375 14.3354L69.0414 14.6418L68.2655 15.1581C68.3153 15.2691 68.3573 15.3756 68.3972 15.4788L69.0965 15.0135L70.169 16.6253L69.8626 16.8292L68.9851 15.5104L67.9894 16.1729L68.8669 17.4917L68.5638 17.6933L67.4914 16.0815L68.0841 15.6871C68.0487 15.5761 68.0067 15.4696 67.9557 15.3642L67.1765 15.8827L66.9726 15.5763ZM69.6595 16.9355C70.0544 16.9514 70.4005 16.995 70.7044 17.0618L70.6286 17.4389C70.3536 17.3577 70.0064 17.3052 69.5848 17.2782L69.6595 16.9355ZM68.4299 16.1201L68.7463 15.9096L69.134 16.4924C69.3567 16.8631 69.4518 17.2226 69.4182 17.5621C69.3746 17.8793 69.1902 18.2231 68.8659 18.6022L68.5132 18.4477C68.8286 18.0841 69.0064 17.7736 69.0399 17.5207C69.0579 17.2589 68.986 16.9848 68.8177 16.7029L68.4299 16.1201Z" fill="white"/>
<path d="M70.2526 13.3328L71.7826 12.1205L72.0136 12.4121L70.4836 13.6244L70.2526 13.3328ZM70.7953 14.1787L72.5384 12.7975L72.7694 13.0891L72.2804 13.4766L73.3336 14.8059C73.4926 15.0066 73.4592 15.1963 73.2366 15.3727L72.782 15.7329L72.4852 15.4935C72.6393 15.3917 72.7854 15.2862 72.9171 15.1819C73.008 15.1099 73.0277 15.0381 72.9755 14.9723L71.9794 13.7151L71.0263 14.4703L70.7953 14.1787ZM69.5979 13.6015L69.97 13.5108C70.074 13.9898 70.0353 14.5206 69.8526 15.1144L69.5257 14.8886C69.6584 14.4314 69.6822 14.0042 69.5979 13.6015ZM70.3141 14.2027L70.6831 14.1144C70.7326 14.3508 70.7527 14.5952 70.7434 14.8475L71.9706 16.3963L71.679 16.6273L70.6829 15.3701C70.647 15.5567 70.6024 15.7452 70.5428 15.9404L70.2215 15.7153C70.3802 15.1813 70.4131 14.6754 70.3141 14.2027Z" fill="white"/>
<path d="M72.1605 11.8289L73.2556 10.8215L73.502 11.0894L72.4069 12.0968L72.1605 11.8289ZM72.7827 12.7239L74.0927 11.5188L74.3419 11.7897L73.6795 12.399C73.9446 12.8998 74.1241 13.2781 74.2209 13.5369C74.3773 13.317 74.5203 13.0767 74.6499 12.8216C74.4495 12.7397 74.2572 12.6665 74.073 12.6022L74.2029 12.2708C74.5658 12.3935 74.9472 12.5481 75.3444 12.7317L75.2167 13.0774L74.9668 12.9594C74.7552 13.3497 74.5011 13.7411 74.2015 14.1363L73.8901 13.9336C73.9141 13.9007 73.9237 13.8756 73.9273 13.8559C73.9012 13.668 73.7282 13.2673 73.4087 12.6481L73.0319 12.9948L72.7827 12.7239ZM73.6021 10.182L73.8789 9.92745L74.4042 10.4986L75.0401 9.9136C75.9229 10.8733 76.4526 11.4785 76.6319 11.7267C76.8053 11.9802 76.7581 12.2302 76.4902 12.4766C76.4431 12.5199 76.3552 12.5899 76.2321 12.6923L75.9398 12.5046C76.0539 12.4159 76.1506 12.3379 76.2271 12.2675C76.3567 12.1483 76.3653 12.0099 76.2588 11.847C76.1492 11.6924 75.7329 11.2221 75.0184 10.4336L74.6534 10.7694L74.6778 10.7959C75.4489 11.6518 75.8144 12.4569 75.7742 13.2167L75.3946 13.2235C75.4313 12.5485 75.102 11.8242 74.401 11.0504L74.3767 11.0239L74.0028 11.3679L73.7536 11.097L74.1275 10.7531L73.6021 10.182Z" fill="white"/>
<path d="M75.0505 9.58626L76.2156 8.37039C76.0504 8.31733 75.8827 8.27847 75.7068 8.25393L75.8605 7.90268C76.0537 7.93817 76.2615 7.99881 76.4841 8.09025L77.5108 7.01879L77.7765 7.2734L76.3374 8.77519L76.7687 9.23279L77.9089 8.04291C78.5216 8.6466 78.8865 9.0462 79.0011 9.24463C79.1713 9.52956 79.1513 9.78744 78.9384 10.0211C78.8499 10.1135 78.7362 10.2206 78.6057 10.3394L78.2799 10.1823C78.4323 10.0347 78.5626 9.91031 78.6623 9.80634C78.7727 9.67951 78.7608 9.51851 78.6207 9.3178C78.5391 9.20638 78.2962 8.95694 77.9032 8.56924L76.9982 9.51364C77.1818 9.76717 77.3205 10.033 77.4057 10.3141C77.5184 10.6936 77.5556 11.1115 77.52 11.5649L77.1385 11.5815C77.1748 11.0291 77.1317 10.6 77.0063 10.2915C76.8809 9.98293 76.688 9.69282 76.4303 9.41823C76.277 9.26024 76.1584 9.13546 76.0773 9.04666L75.3162 9.84088L75.0505 9.58626Z" fill="white"/>
<path d="M78.8526 5.61133L79.1527 5.41565C79.1712 5.51069 79.1893 5.60009 79.2013 5.68428L80.3226 4.37995L80.5531 4.57812L80.1255 5.07559C80.166 5.27392 80.18 5.46007 80.1702 5.63099C80.4503 5.43399 80.7448 5.23873 81.0566 5.04785L81.1316 5.40242C80.7755 5.60799 80.4259 5.82443 80.0915 6.0539C79.9633 6.49755 79.6846 6.97527 79.2608 7.48662L78.8886 7.44097C79.2537 7.01631 79.5097 6.65093 79.6577 6.35611C79.4479 6.5081 79.2442 6.6653 79.0461 6.82208C79.0294 6.67584 79.0101 6.53264 78.9938 6.39204L78.4671 7.00477L78.2366 6.8066L78.9302 5.99974C78.9061 5.86825 78.8793 5.73979 78.8526 5.61133ZM79.8206 5.8843C79.853 5.71167 79.8632 5.54639 79.8491 5.39712L79.265 6.07658L79.2903 6.29875C79.4584 6.15842 79.6352 6.02027 79.8206 5.8843ZM79.8316 3.9263L80.2866 4.31743L80.0572 4.58436L79.8418 4.39923L78.1782 6.33448L78.3936 6.51961L78.1641 6.78654L77.7091 6.39542L78.6452 5.30646C78.5472 5.2855 78.4496 5.27017 78.3524 5.26049L78.5621 4.91847C78.6661 4.94465 78.7737 4.97908 78.8929 5.0183L79.8316 3.9263ZM79.2118 7.81368L80.2156 6.64586L79.9972 6.45812L80.2476 6.16692L80.466 6.35466L81.462 5.19594L81.7108 5.40975L80.9233 6.32581C81.2904 6.2669 81.7154 6.07313 82.1897 5.74234L82.3346 6.08312C81.7423 6.4285 81.2192 6.6013 80.7541 6.60237L81.47 7.21774L81.2197 7.50894L80.4977 6.88836C80.5813 7.31887 80.5033 7.86368 80.2646 8.53409L79.8742 8.4728C80.131 7.89179 80.2583 7.43685 80.2532 7.10537L79.4605 8.0275L79.2118 7.81368Z" fill="white"/>
<path d="M80.0444 3.15818L82.0237 3.66573L82.9768 5.47308L82.6655 5.63502L81.7857 3.96713L79.9592 3.49857L80.0444 3.15818ZM80.4683 2.62131L82.4475 3.12886L83.4006 4.93621L83.0893 5.09815L82.2096 3.43026L80.3731 2.97426L80.4683 2.62131Z" fill="white"/>
</svg>
