<svg width="92" height="6" viewBox="0 0 92 6" fill="none" xmlns="http://www.w3.org/2000/svg">
<path d="M5.72 0.691878L6.08 0.847878L5.304 2.55988L6.064 4.27188L5.72 4.42788L4.892 2.55988L5.72 0.691878ZM6.416 0.691878L6.76 0.847878L6 2.55988L6.76 4.27188L6.416 4.42788L5.588 2.55988L6.416 0.691878ZM8.66 1.34788H9.42V0.731878H9.84V1.34788H10.624V3.06388H9.844V3.80788C9.996 3.78388 10.14 3.75588 10.268 3.73188C10.224 3.57988 10.176 3.43188 10.128 3.28788L10.464 3.17188C10.596 3.51188 10.716 3.89988 10.82 4.33988L10.44 4.43988C10.416 4.32388 10.392 4.21188 10.368 4.10788C9.984 4.19588 9.388 4.27588 8.58 4.34788L8.516 3.92788C8.852 3.91188 9.156 3.88788 9.428 3.85988V3.06388H8.66V1.34788ZM10.22 2.67988V1.73188H9.836V2.67988H10.22ZM9.436 2.67988V1.73188H9.068V2.67988H9.436ZM8.34 0.751878L8.684 0.963878C8.524 1.21188 8.364 1.41988 8.204 1.57988C8.22 1.61988 8.24 1.66388 8.256 1.70388C8.376 2.02788 8.44 2.48788 8.452 3.08388C8.452 3.73988 8.372 4.13188 8.212 4.26788C8.116 4.33988 7.988 4.37588 7.832 4.37588C7.684 4.37588 7.568 4.37188 7.484 4.36788L7.36 3.97988C7.496 3.99588 7.62 4.00788 7.74 4.00788C7.844 4.00788 7.908 3.98388 7.94 3.93988C8.016 3.84388 8.056 3.55188 8.056 3.06388C8.056 2.96388 8.052 2.87188 8.048 2.78788C7.864 3.03188 7.652 3.23988 7.412 3.41188L7.176 3.05988C7.52 2.83188 7.792 2.56388 7.992 2.25188C7.964 2.10788 7.932 1.97988 7.892 1.87188C7.888 1.86388 7.888 1.85988 7.888 1.85988C7.744 1.96388 7.584 2.07588 7.404 2.18788L7.184 1.82388C7.36 1.73988 7.532 1.63188 7.696 1.49988C7.584 1.32788 7.448 1.17188 7.288 1.03188L7.616 0.779878C7.76 0.923878 7.884 1.06788 7.988 1.21588C8.108 1.07988 8.228 0.923878 8.34 0.751878ZM11.312 1.31188H12.772C12.716 1.13188 12.656 0.963878 12.588 0.803878L13.076 0.723878C13.132 0.899878 13.184 1.09588 13.24 1.31188H14.7V1.71588H11.312V1.31188ZM11.176 3.80788H13.136C13.364 3.28788 13.564 2.64788 13.74 1.87988L14.184 1.99988C14.032 2.67588 13.844 3.27988 13.62 3.80788H14.836V4.21188H11.176V3.80788ZM12.272 1.87188C12.448 2.38788 12.6 2.97988 12.736 3.64388L12.284 3.75588C12.164 3.15588 12.016 2.57588 11.832 2.01988L12.272 1.87188ZM16.564 2.25988V2.67588C16.428 2.73988 16.288 2.80388 16.152 2.86388V3.99188C16.152 4.26388 16.016 4.40388 15.752 4.40388H15.372L15.276 4.00388C15.392 4.01988 15.5 4.03188 15.604 4.03188C15.692 4.03188 15.74 3.98388 15.74 3.88788V3.02788C15.572 3.09188 15.4 3.14788 15.232 3.19988L15.128 2.78788C15.336 2.74388 15.54 2.68788 15.74 2.61988V1.80388H15.208V1.40788H15.74V0.727878H16.152V1.40788H16.556V1.80388H16.152V2.45988C16.288 2.39588 16.428 2.33188 16.564 2.25988ZM17.104 2.65188V4.41988H16.708V0.843878H18.588C18.588 1.32388 18.56 1.64788 18.508 1.80788C18.452 1.95988 18.288 2.03588 18.016 2.03588H17.712L17.6 1.67988C17.66 1.67988 17.736 1.68388 17.828 1.68388C17.92 1.68388 17.988 1.67988 18.036 1.67188C18.076 1.65988 18.112 1.63588 18.136 1.59588C18.16 1.54388 18.18 1.41988 18.188 1.21988H17.104V2.27188H18.612V2.63188C18.552 3.03588 18.428 3.38388 18.24 3.67188C18.42 3.82788 18.632 3.97188 18.876 4.10388L18.596 4.42788C18.368 4.28388 18.172 4.13188 18.004 3.97188C17.82 4.15988 17.604 4.31188 17.356 4.43188L17.156 4.06388C17.38 3.95588 17.568 3.81988 17.72 3.65988C17.472 3.34788 17.316 3.01188 17.256 2.65188H17.104ZM17.624 2.65188C17.676 2.90788 17.784 3.14388 17.948 3.35988C18.072 3.15188 18.164 2.91588 18.22 2.65188H17.624ZM22.368 2.87988V4.41588H21.944V4.22788H20.08V4.41588H19.656V2.87988H22.368ZM20.08 3.83588H21.944V3.27188H20.08V3.83588ZM19.972 1.63188C19.836 1.81188 19.676 1.97588 19.5 2.12388L19.252 1.79588C19.604 1.51188 19.84 1.16388 19.964 0.755878L20.38 0.803878C20.336 0.955878 20.28 1.09588 20.216 1.23188H20.84V0.711878H21.26V1.23188H22.52V1.63188H21.26V2.14788H22.828V2.55588H19.172V2.14788H20.84V1.63188H19.972ZM23.216 1.45188H23.764V0.715878H24.18V1.45188H24.628V1.85588H24.18V2.00388C24.356 2.17588 24.536 2.36788 24.716 2.57588L24.472 2.94388C24.36 2.74388 24.264 2.57188 24.18 2.43188V4.39988H23.764V2.58788C23.64 2.91588 23.488 3.21988 23.308 3.49988L23.128 3.04388C23.408 2.69988 23.612 2.30388 23.744 1.85588H23.216V1.45188ZM24.38 4.14388C24.54 3.90388 24.656 3.64788 24.72 3.38388C24.772 3.15588 24.8 2.81588 24.8 2.36388V0.839878H26.208V3.87588C26.208 3.91188 26.22 3.93188 26.248 3.93188H26.368C26.4 3.93188 26.424 3.92388 26.44 3.90788C26.456 3.89188 26.464 3.86788 26.472 3.83988C26.488 3.78388 26.496 3.53988 26.496 3.11588L26.88 3.23588C26.88 3.53988 26.868 3.77188 26.852 3.92388C26.836 4.07588 26.796 4.17988 26.732 4.24388C26.668 4.29588 26.564 4.32388 26.424 4.32388H26.244C25.936 4.32388 25.784 4.18788 25.784 3.92388V1.23188H25.216V2.36388C25.216 2.81588 25.18 3.19988 25.108 3.51988C25.04 3.83988 24.912 4.15188 24.724 4.44788L24.38 4.14388ZM27.676 1.57188C27.612 1.71588 27.536 1.83188 27.452 1.92788L27.112 1.68788C27.296 1.48388 27.416 1.19988 27.468 0.835878L27.86 0.899878C27.844 1.00388 27.824 1.09988 27.8 1.18788H28.12V0.723878H28.536V1.18788H29.236V1.57188H28.536V1.96388H29.352V2.35188H28.536V2.65588H29.304V3.72788C29.304 3.99988 29.16 4.13988 28.876 4.13988H28.684L28.58 3.75188L28.748 3.77188C28.852 3.77188 28.908 3.72788 28.908 3.63988V3.03988H28.536V4.41588H28.12V3.03988H27.752V4.16788H27.348V2.65588H28.12V2.35188H27.2V1.96388H28.12V1.57188H27.676ZM29.524 1.08788H29.928V3.52788H29.524V1.08788ZM30.308 4.37988H29.712L29.62 3.98388C29.812 3.99988 29.992 4.00788 30.164 4.00788C30.26 4.00788 30.308 3.95588 30.308 3.85188V0.727878H30.724V3.95988C30.724 4.23988 30.584 4.37988 30.308 4.37988ZM32 1.49588C32.088 1.49588 32.16 1.52388 32.224 1.58788C32.284 1.64788 32.316 1.72388 32.316 1.81188C32.316 1.89988 32.284 1.97188 32.224 2.03188C32.16 2.09188 32.088 2.12388 32 2.12388C31.912 2.12388 31.836 2.09188 31.776 2.03188C31.716 1.97188 31.688 1.89988 31.688 1.81188C31.688 1.72388 31.716 1.64788 31.776 1.58788C31.836 1.52388 31.912 1.49588 32 1.49588ZM32 2.95988C32.088 2.95988 32.16 2.98788 32.224 3.05188C32.284 3.11188 32.316 3.18788 32.316 3.27588C32.316 3.36388 32.284 3.43588 32.224 3.49588C32.16 3.55588 32.088 3.58788 32 3.58788C31.912 3.58788 31.836 3.55588 31.776 3.49588C31.716 3.43588 31.688 3.36388 31.688 3.27588C31.688 3.18788 31.716 3.11188 31.776 3.05188C31.836 2.98788 31.912 2.95988 32 2.95988ZM35.212 2.45588H35.94V0.843878H38.244V2.45588H38.788V2.85988H38.244V3.99988C38.244 4.25588 38.104 4.38788 37.824 4.38788H37.352L37.24 3.98388C37.404 3.99188 37.556 3.99988 37.696 3.99988C37.776 3.99988 37.816 3.94788 37.816 3.85188V2.85988H36.34C36.268 3.48388 36.064 4.00388 35.728 4.41988L35.408 4.12788C35.684 3.77588 35.852 3.35588 35.912 2.85988H35.212V2.45588ZM37.816 2.45588V1.22788H36.364V2.45588H37.816ZM36.948 1.36388C37.192 1.64388 37.38 1.88388 37.512 2.09188L37.184 2.31988C37.04 2.09588 36.852 1.84388 36.612 1.57188L36.948 1.36388ZM40.788 0.691878H41.212V1.00388H42.548V1.37988H41.212V1.61588H42.364V1.97188H41.212V2.19988H42.768V2.57588H40.744C40.704 2.64388 40.664 2.70788 40.624 2.76788H42.248V3.10388C42.04 3.34388 41.796 3.55588 41.508 3.73588C41.88 3.86788 42.308 3.96388 42.788 4.02788L42.592 4.42788C42 4.33588 41.488 4.18788 41.056 3.97988C40.596 4.19588 40.056 4.35188 39.44 4.44788L39.248 4.05588C39.764 3.99188 40.22 3.88388 40.62 3.73588C40.428 3.60788 40.26 3.47188 40.112 3.31988C39.956 3.44788 39.784 3.56388 39.592 3.67188L39.312 3.31188C39.744 3.10388 40.064 2.85588 40.272 2.57588H39.232V2.19988H40.788V1.97188H39.636V1.61588H40.788V1.37988H39.448V1.00388H40.788V0.691878ZM40.48 3.15588C40.648 3.29988 40.84 3.43188 41.06 3.54388C41.284 3.42788 41.484 3.29988 41.66 3.15588H40.48ZM43.688 0.767878C43.944 0.959878 44.16 1.15188 44.336 1.34388L44.052 1.63188C43.896 1.44788 43.68 1.24788 43.404 1.03988L43.688 0.767878ZM43.156 1.90388H44.08V3.56388C44.196 3.45988 44.32 3.34788 44.452 3.22388L44.568 3.66388C44.304 3.90388 44.024 4.11588 43.728 4.30788L43.568 3.93188C43.636 3.87188 43.672 3.79588 43.672 3.70788V2.30388H43.156V1.90388ZM44.588 2.38388H46.54V2.76388C46.428 3.10788 46.244 3.40788 45.988 3.65988C46.236 3.81988 46.536 3.95988 46.892 4.08388L46.668 4.44388C46.276 4.28388 45.944 4.10788 45.68 3.91188C45.368 4.13188 44.988 4.30788 44.532 4.43988L44.3 4.08788C44.712 3.96788 45.06 3.81588 45.348 3.63188C45.092 3.37588 44.912 3.09588 44.816 2.78388H44.588V2.38388ZM45.208 2.78388C45.296 3.01188 45.44 3.21988 45.648 3.40388C45.852 3.21988 46.008 3.01588 46.12 2.78388H45.208ZM44.86 0.835878H46.3V1.66388C46.3 1.75188 46.348 1.79988 46.448 1.79988H46.792V2.17988H46.336C46.036 2.17988 45.888 2.03988 45.888 1.75988V1.22788H45.272V1.33588C45.272 1.75188 45.056 2.07588 44.632 2.29988L44.352 1.97988C44.688 1.83988 44.86 1.63988 44.86 1.37988V0.835878ZM48.416 1.86788H49.448V0.707878H49.88V1.86788H50.86V2.28388H49.88V4.42788H49.448V2.28388H48.416V1.86788ZM47.712 0.739878C47.964 0.935878 48.18 1.13188 48.36 1.32388L48.072 1.61588C47.92 1.43188 47.7 1.23588 47.416 1.02788L47.712 0.739878ZM47.156 1.89588H48.108V3.56788C48.224 3.46788 48.348 3.35588 48.48 3.23188L48.588 3.65988C48.328 3.89988 48.052 4.11588 47.756 4.30788L47.596 3.93188C47.668 3.87188 47.704 3.79988 47.704 3.71588V2.29588H47.156V1.89588ZM51.388 2.01988L51.708 0.831878L52.124 0.899878L51.924 1.62388H52.476C52.548 1.33188 52.608 1.02388 52.652 0.703878L53.08 0.755878C53.032 1.06388 52.976 1.35188 52.908 1.62388H54.728V2.01988H52.804C52.764 2.13988 52.728 2.25188 52.692 2.36388H54.276V2.71588C54.18 3.02788 53.988 3.31588 53.704 3.57988C54.004 3.74388 54.36 3.89188 54.772 4.02788L54.556 4.42388C54.08 4.24788 53.68 4.05988 53.356 3.85588C53.044 4.07188 52.664 4.26788 52.216 4.44388L51.996 4.05188C52.384 3.91188 52.716 3.75988 52.988 3.59588C52.744 3.39588 52.56 3.18788 52.432 2.96788C52.148 3.54388 51.792 4.00788 51.364 4.35588L51.144 3.96788C51.684 3.48788 52.088 2.83988 52.36 2.01988H51.388ZM52.736 2.73988C52.868 2.95988 53.068 3.16388 53.336 3.35588C53.572 3.16388 53.744 2.95588 53.852 2.73988H52.736ZM53.752 0.699878C54.024 0.903878 54.256 1.10788 54.44 1.31588L54.144 1.61588C53.988 1.41188 53.764 1.19588 53.468 0.971878L53.752 0.699878ZM56.004 2.19588H56.54V1.90788H55.912V2.17988C55.912 2.41988 55.9 2.64788 55.876 2.86788H56.54V2.56388H56.004V2.19588ZM55.824 3.24388C55.748 3.67588 55.624 4.06388 55.456 4.41588L55.116 4.11188C55.36 3.61188 55.484 2.96788 55.488 2.17988V0.839878H58.584V1.90788H58.032V2.19588H58.62V2.56388H58.032V2.86788H58.76V3.24388H58.36L58.592 3.47588C58.48 3.61588 58.36 3.73188 58.228 3.82388C58.42 3.92788 58.64 4.00388 58.884 4.05188L58.688 4.44788C57.976 4.25988 57.464 3.85988 57.156 3.24388H56.68V3.95988C56.912 3.89588 57.116 3.83188 57.292 3.75988L57.372 4.13988C57.04 4.25188 56.644 4.34788 56.188 4.42788L56.076 4.06388C56.204 4.01588 56.272 3.91988 56.272 3.78388V3.24388H55.824ZM57.576 3.24388C57.668 3.37988 57.772 3.49588 57.892 3.59588C58.024 3.51188 58.148 3.39588 58.268 3.24388H57.576ZM57.624 1.90788H56.944V2.19588H57.624V1.90788ZM56.944 2.86788H57.624V2.56388H56.944V2.86788ZM58.164 1.21988H55.912V1.53988H58.164V1.21988ZM60.564 2.25988V2.67588C60.428 2.73988 60.288 2.80388 60.152 2.86388V3.99188C60.152 4.26388 60.016 4.40388 59.752 4.40388H59.372L59.276 4.00388C59.392 4.01988 59.5 4.03188 59.604 4.03188C59.692 4.03188 59.74 3.98388 59.74 3.88788V3.02788C59.572 3.09188 59.4 3.14788 59.232 3.19988L59.128 2.78788C59.336 2.74388 59.54 2.68788 59.74 2.61988V1.80388H59.208V1.40788H59.74V0.727878H60.152V1.40788H60.556V1.80388H60.152V2.45988C60.288 2.39588 60.428 2.33188 60.564 2.25988ZM61.104 2.65188V4.41988H60.708V0.843878H62.588C62.588 1.32388 62.56 1.64788 62.508 1.80788C62.452 1.95988 62.288 2.03588 62.016 2.03588H61.712L61.6 1.67988C61.66 1.67988 61.736 1.68388 61.828 1.68388C61.92 1.68388 61.988 1.67988 62.036 1.67188C62.076 1.65988 62.112 1.63588 62.136 1.59588C62.16 1.54388 62.18 1.41988 62.188 1.21988H61.104V2.27188H62.612V2.63188C62.552 3.03588 62.428 3.38388 62.24 3.67188C62.42 3.82788 62.632 3.97188 62.876 4.10388L62.596 4.42788C62.368 4.28388 62.172 4.13188 62.004 3.97188C61.82 4.15988 61.604 4.31188 61.356 4.43188L61.156 4.06388C61.38 3.95588 61.568 3.81988 61.72 3.65988C61.472 3.34788 61.316 3.01188 61.256 2.65188H61.104ZM61.624 2.65188C61.676 2.90788 61.784 3.14388 61.948 3.35988C62.072 3.15188 62.164 2.91588 62.22 2.65188H61.624ZM66.368 2.87988V4.41588H65.944V4.22788H64.08V4.41588H63.656V2.87988H66.368ZM64.08 3.83588H65.944V3.27188H64.08V3.83588ZM63.972 1.63188C63.836 1.81188 63.676 1.97588 63.5 2.12388L63.252 1.79588C63.604 1.51188 63.84 1.16388 63.964 0.755878L64.38 0.803878C64.336 0.955878 64.28 1.09588 64.216 1.23188H64.84V0.711878H65.26V1.23188H66.52V1.63188H65.26V2.14788H66.828V2.55588H63.172V2.14788H64.84V1.63188H63.972ZM68.244 1.08788C68.52 1.08788 68.748 1.16788 68.928 1.32788C69.104 1.48788 69.192 1.69188 69.192 1.94788C69.192 2.19588 69.096 2.41988 68.912 2.62388C68.8 2.74388 68.6 2.89588 68.32 3.08388C68.028 3.27588 67.852 3.44388 67.788 3.58788H69.196V3.99988H67.204C67.204 3.70788 67.296 3.45588 67.488 3.23988C67.592 3.11988 67.812 2.94388 68.144 2.71588C68.328 2.58788 68.456 2.47988 68.536 2.39588C68.66 2.25588 68.724 2.10388 68.724 1.94388C68.724 1.78788 68.68 1.67188 68.6 1.59588C68.516 1.51988 68.392 1.48388 68.228 1.48388C68.052 1.48388 67.92 1.54388 67.832 1.66388C67.744 1.77588 67.696 1.94788 67.688 2.17188H67.22C67.224 1.85188 67.316 1.59588 67.5 1.39988C67.688 1.19188 67.936 1.08788 68.244 1.08788ZM70.5984 1.08788C70.9304 1.08788 71.1904 1.22388 71.3784 1.50388C71.5544 1.76788 71.6424 2.12388 71.6424 2.57188C71.6424 3.01988 71.5544 3.37588 71.3784 3.63988C71.1904 3.91588 70.9304 4.05588 70.5984 4.05588C70.2624 4.05588 70.0024 3.91588 69.8184 3.63988C69.6424 3.37588 69.5544 3.01988 69.5544 2.57188C69.5544 2.12388 69.6424 1.76788 69.8184 1.50388C70.0024 1.22388 70.2624 1.08788 70.5984 1.08788ZM70.5984 1.48388C70.3704 1.48388 70.2104 1.60788 70.1184 1.86388C70.0544 2.03588 70.0224 2.27188 70.0224 2.57188C70.0224 2.86788 70.0544 3.10388 70.1184 3.27988C70.2104 3.53188 70.3704 3.65988 70.5984 3.65988C70.8224 3.65988 70.9824 3.53188 71.0784 3.27988C71.1424 3.10388 71.1744 2.86788 71.1744 2.57188C71.1744 2.27188 71.1424 2.03588 71.0784 1.86388C70.9824 1.60788 70.8224 1.48388 70.5984 1.48388ZM72.7249 1.14388H73.0769V3.99988H72.6089V1.70788C72.4369 1.86388 72.2209 1.97988 71.9569 2.05588V1.59188C72.0849 1.55988 72.2209 1.50388 72.3649 1.42388C72.5089 1.33588 72.6289 1.24388 72.7249 1.14388ZM74.6055 1.08788C74.9535 1.08788 75.2215 1.21188 75.4055 1.46388C75.5895 1.71188 75.6815 2.05188 75.6815 2.49188C75.6815 2.95588 75.5815 3.33588 75.3895 3.62388C75.1935 3.91188 74.9295 4.05588 74.6015 4.05588C74.0375 4.05588 73.7215 3.79588 73.6535 3.27588H74.1095C74.1655 3.53988 74.3295 3.67188 74.6055 3.67188C74.7935 3.67188 74.9455 3.57588 75.0615 3.39188C75.1695 3.21588 75.2255 2.99588 75.2255 2.73188V2.69588H75.2055C75.1215 2.81188 75.0215 2.89988 74.9055 2.95588C74.7935 3.00788 74.6655 3.03588 74.5215 3.03588C74.2415 3.03588 74.0135 2.94388 73.8455 2.75988C73.6775 2.58388 73.5975 2.35588 73.5975 2.07588C73.5975 1.78788 73.6935 1.55188 73.8855 1.36788C74.0775 1.17988 74.3175 1.08788 74.6055 1.08788ZM74.6215 1.47588C74.4535 1.47588 74.3175 1.53188 74.2135 1.64388C74.1095 1.75588 74.0615 1.89988 74.0615 2.07588C74.0615 2.25188 74.1095 2.39188 74.2135 2.49588C74.3095 2.59988 74.4455 2.65588 74.6215 2.65588C74.7935 2.65588 74.9295 2.59988 75.0295 2.49588C75.1255 2.38788 75.1775 2.24388 75.1775 2.05988C75.1775 1.87588 75.1255 1.73588 75.0215 1.63188C74.9175 1.52788 74.7815 1.47588 74.6215 1.47588ZM76.0359 2.77588H78.0559V3.15188H76.0359V2.77588ZM79.5018 1.08788C79.7778 1.08788 80.0058 1.16788 80.1858 1.32788C80.3618 1.48788 80.4498 1.69188 80.4498 1.94788C80.4498 2.19588 80.3538 2.41988 80.1698 2.62388C80.0578 2.74388 79.8578 2.89588 79.5778 3.08388C79.2858 3.27588 79.1098 3.44388 79.0458 3.58788H80.4538V3.99988H78.4618C78.4618 3.70788 78.5538 3.45588 78.7458 3.23988C78.8498 3.11988 79.0698 2.94388 79.4018 2.71588C79.5858 2.58788 79.7138 2.47988 79.7938 2.39588C79.9178 2.25588 79.9818 2.10388 79.9818 1.94388C79.9818 1.78788 79.9378 1.67188 79.8578 1.59588C79.7738 1.51988 79.6498 1.48388 79.4858 1.48388C79.3098 1.48388 79.1778 1.54388 79.0898 1.66388C79.0018 1.77588 78.9538 1.94788 78.9458 2.17188H78.4778C78.4818 1.85188 78.5738 1.59588 78.7578 1.39988C78.9458 1.19188 79.1938 1.08788 79.5018 1.08788ZM81.8563 1.08788C82.1883 1.08788 82.4483 1.22388 82.6363 1.50388C82.8123 1.76788 82.9003 2.12388 82.9003 2.57188C82.9003 3.01988 82.8123 3.37588 82.6363 3.63988C82.4483 3.91588 82.1883 4.05588 81.8563 4.05588C81.5203 4.05588 81.2603 3.91588 81.0763 3.63988C80.9003 3.37588 80.8123 3.01988 80.8123 2.57188C80.8123 2.12388 80.9003 1.76788 81.0763 1.50388C81.2603 1.22388 81.5203 1.08788 81.8563 1.08788ZM81.8563 1.48388C81.6283 1.48388 81.4683 1.60788 81.3763 1.86388C81.3123 2.03588 81.2803 2.27188 81.2803 2.57188C81.2803 2.86788 81.3123 3.10388 81.3763 3.27988C81.4683 3.53188 81.6283 3.65988 81.8563 3.65988C82.0803 3.65988 82.2403 3.53188 82.3363 3.27988C82.4003 3.10388 82.4323 2.86788 82.4323 2.57188C82.4323 2.27188 82.4003 2.03588 82.3363 1.86388C82.2403 1.60788 82.0803 1.48388 81.8563 1.48388ZM84.2987 1.08788C84.5747 1.08788 84.8027 1.16788 84.9827 1.32788C85.1587 1.48788 85.2467 1.69188 85.2467 1.94788C85.2467 2.19588 85.1507 2.41988 84.9667 2.62388C84.8547 2.74388 84.6547 2.89588 84.3747 3.08388C84.0827 3.27588 83.9067 3.44388 83.8427 3.58788H85.2507V3.99988H83.2587C83.2587 3.70788 83.3507 3.45588 83.5427 3.23988C83.6467 3.11988 83.8667 2.94388 84.1987 2.71588C84.3827 2.58788 84.5107 2.47988 84.5907 2.39588C84.7147 2.25588 84.7787 2.10388 84.7787 1.94388C84.7787 1.78788 84.7347 1.67188 84.6547 1.59588C84.5707 1.51988 84.4467 1.48388 84.2827 1.48388C84.1067 1.48388 83.9747 1.54388 83.8867 1.66388C83.7987 1.77588 83.7507 1.94788 83.7427 2.17188H83.2747C83.2787 1.85188 83.3707 1.59588 83.5547 1.39988C83.7427 1.19188 83.9907 1.08788 84.2987 1.08788ZM86.3811 1.14388H86.7331V3.99988H86.2651V1.70788C86.0931 1.86388 85.8771 1.97988 85.6131 2.05588V1.59188C85.7411 1.55988 85.8771 1.50388 86.0211 1.42388C86.1651 1.33588 86.2851 1.24388 86.3811 1.14388ZM87.6778 0.691878L88.5058 2.55988L87.6778 4.42788L87.3338 4.27188L88.0938 2.55988L87.3338 0.847878L87.6778 0.691878ZM88.3738 0.691878L89.2018 2.55988L88.3738 4.42788L88.0298 4.27188L88.7898 2.55988L88.0138 0.847878L88.3738 0.691878Z" fill="white"/>
<g clip-path="url(#clip0_248_883)">
<path d="M0 0.59997L4.00078 0.59997V4.59997H0L0 0.59997Z" fill="#C8102E"/>
<path d="M1.125 0.59997H1.69609V4.59997H1.125V0.59997Z" fill="white"/>
<path d="M0 2.31403H4.00078V2.88591H0L0 2.31403Z" fill="white"/>
</g>
<defs>
<clipPath id="clip0_248_883">
<rect y="0.59997" width="4" height="4" rx="2" fill="white"/>
</clipPath>
</defs>
</svg>
