<svg width="81" height="6" viewBox="0 0 81 6" fill="none" xmlns="http://www.w3.org/2000/svg">
<path d="M5.212 2.45588H5.94V0.843878H8.244V2.45588H8.788V2.85988H8.244V3.99988C8.244 4.25588 8.104 4.38788 7.824 4.38788H7.352L7.24 3.98388C7.404 3.99188 7.556 3.99988 7.696 3.99988C7.776 3.99988 7.816 3.94788 7.816 3.85188V2.85988H6.34C6.268 3.48388 6.064 4.00388 5.728 4.41988L5.408 4.12788C5.684 3.77588 5.852 3.35588 5.912 2.85988H5.212V2.45588ZM7.816 2.45588V1.22788H6.364V2.45588H7.816ZM6.948 1.36388C7.192 1.64388 7.38 1.88388 7.512 2.09188L7.184 2.31988C7.04 2.09588 6.852 1.84388 6.612 1.57188L6.948 1.36388ZM10.788 0.691878H11.212V1.00388H12.548V1.37988H11.212V1.61588H12.364V1.97188H11.212V2.19988H12.768V2.57588H10.744C10.704 2.64388 10.664 2.70788 10.624 2.76788H12.248V3.10388C12.04 3.34388 11.796 3.55588 11.508 3.73588C11.88 3.86788 12.308 3.96388 12.788 4.02788L12.592 4.42788C12 4.33588 11.488 4.18788 11.056 3.97988C10.596 4.19588 10.056 4.35188 9.44 4.44788L9.248 4.05588C9.764 3.99188 10.22 3.88388 10.62 3.73588C10.428 3.60788 10.26 3.47188 10.112 3.31988C9.956 3.44788 9.784 3.56388 9.592 3.67188L9.312 3.31188C9.744 3.10388 10.064 2.85588 10.272 2.57588H9.232V2.19988H10.788V1.97188H9.636V1.61588H10.788V1.37988H9.448V1.00388H10.788V0.691878ZM10.48 3.15588C10.648 3.29988 10.84 3.43188 11.06 3.54388C11.284 3.42788 11.484 3.29988 11.66 3.15588H10.48ZM16.46 1.31588V4.41188H16.04V4.13588H13.964V4.41988H13.544V1.31588H14.512C14.588 1.11588 14.644 0.911878 14.684 0.695878L15.148 0.759878C15.108 0.959878 15.048 1.14788 14.976 1.31588H16.46ZM13.964 3.73588H16.04V2.87988H13.964V3.73588ZM13.964 2.48788H16.04V1.71188H13.964V2.48788ZM18.928 0.707878H19.352V1.14788H20.68V1.35988C20.628 1.59988 20.544 1.83988 20.432 2.07988L20.028 1.96388C20.1 1.84388 20.164 1.70388 20.216 1.55188H19.352V2.17588H20.34V2.54388C20.18 2.94388 19.936 3.29188 19.612 3.57988C19.956 3.77588 20.368 3.93988 20.844 4.07588L20.612 4.43188C20.084 4.27188 19.636 4.07588 19.276 3.84388C18.912 4.09188 18.476 4.29188 17.968 4.44788L17.736 4.08388C18.204 3.95588 18.6 3.79188 18.928 3.59188C18.572 3.29588 18.32 2.95588 18.168 2.56788H17.976C17.948 3.27188 17.776 3.87988 17.456 4.39188L17.124 4.10388C17.412 3.64388 17.56 3.06788 17.576 2.37188V1.14788H18.928V0.707878ZM18.568 2.56788C18.72 2.86388 18.952 3.12788 19.264 3.35588C19.544 3.12388 19.756 2.86388 19.896 2.56788H18.568ZM17.98 2.17588H18.928V1.55188H17.98V2.17588ZM22.572 0.695878H22.992V1.35588H24.168V1.55588L24.092 2.42788H24.648C24.644 3.23988 24.576 3.71588 24.44 3.85188C24.388 3.90788 24.304 3.95188 24.192 3.97588C24.092 3.99588 23.992 4.00788 23.892 4.01188H23.636L23.524 3.61988C23.68 3.61988 23.828 3.62388 23.964 3.62388C24.052 3.61588 24.12 3.58788 24.164 3.53588C24.204 3.48388 24.228 3.24788 24.236 2.83188H22.992V4.42388H22.572V2.83188H21.208V2.42788H22.572V1.75588H21.44V1.35588H22.572V0.695878ZM22.992 2.42788H23.688L23.748 1.75588H22.992V2.42788ZM23.98 0.703878C24.268 0.839878 24.536 0.999878 24.776 1.18388L24.552 1.53188C24.296 1.31588 24.032 1.14388 23.768 1.01988L23.98 0.703878ZM26 1.49588C26.088 1.49588 26.16 1.52388 26.224 1.58788C26.284 1.64788 26.316 1.72388 26.316 1.81188C26.316 1.89988 26.284 1.97188 26.224 2.03188C26.16 2.09188 26.088 2.12388 26 2.12388C25.912 2.12388 25.836 2.09188 25.776 2.03188C25.716 1.97188 25.688 1.89988 25.688 1.81188C25.688 1.72388 25.716 1.64788 25.776 1.58788C25.836 1.52388 25.912 1.49588 26 1.49588ZM26 2.95988C26.088 2.95988 26.16 2.98788 26.224 3.05188C26.284 3.11188 26.316 3.18788 26.316 3.27588C26.316 3.36388 26.284 3.43588 26.224 3.49588C26.16 3.55588 26.088 3.58788 26 3.58788C25.912 3.58788 25.836 3.55588 25.776 3.49588C25.716 3.43588 25.688 3.36388 25.688 3.27588C25.688 3.18788 25.716 3.11188 25.776 3.05188C25.836 2.98788 25.912 2.95988 26 2.95988ZM31.72 0.691878L32.08 0.847878L31.304 2.55988L32.064 4.27188L31.72 4.42788L30.892 2.55988L31.72 0.691878ZM32.416 0.691878L32.76 0.847878L32 2.55988L32.76 4.27188L32.416 4.42788L31.588 2.55988L32.416 0.691878ZM33.688 0.767878C33.944 0.959878 34.16 1.15188 34.336 1.34388L34.052 1.63188C33.896 1.44788 33.68 1.24788 33.404 1.03988L33.688 0.767878ZM33.156 1.90388H34.08V3.56388C34.196 3.45988 34.32 3.34788 34.452 3.22388L34.568 3.66388C34.304 3.90388 34.024 4.11588 33.728 4.30788L33.568 3.93188C33.636 3.87188 33.672 3.79588 33.672 3.70788V2.30388H33.156V1.90388ZM34.588 2.38388H36.54V2.76388C36.428 3.10788 36.244 3.40788 35.988 3.65988C36.236 3.81988 36.536 3.95988 36.892 4.08388L36.668 4.44388C36.276 4.28388 35.944 4.10788 35.68 3.91188C35.368 4.13188 34.988 4.30788 34.532 4.43988L34.3 4.08788C34.712 3.96788 35.06 3.81588 35.348 3.63188C35.092 3.37588 34.912 3.09588 34.816 2.78388H34.588V2.38388ZM35.208 2.78388C35.296 3.01188 35.44 3.21988 35.648 3.40388C35.852 3.21988 36.008 3.01588 36.12 2.78388H35.208ZM34.86 0.835878H36.3V1.66388C36.3 1.75188 36.348 1.79988 36.448 1.79988H36.792V2.17988H36.336C36.036 2.17988 35.888 2.03988 35.888 1.75988V1.22788H35.272V1.33588C35.272 1.75188 35.056 2.07588 34.632 2.29988L34.352 1.97988C34.688 1.83988 34.86 1.63988 34.86 1.37988V0.835878ZM38.416 1.86788H39.448V0.707878H39.88V1.86788H40.86V2.28388H39.88V4.42788H39.448V2.28388H38.416V1.86788ZM37.712 0.739878C37.964 0.935878 38.18 1.13188 38.36 1.32388L38.072 1.61588C37.92 1.43188 37.7 1.23588 37.416 1.02788L37.712 0.739878ZM37.156 1.89588H38.108V3.56788C38.224 3.46788 38.348 3.35588 38.48 3.23188L38.588 3.65988C38.328 3.89988 38.052 4.11588 37.756 4.30788L37.596 3.93188C37.668 3.87188 37.704 3.79988 37.704 3.71588V2.29588H37.156V1.89588ZM41.272 0.887878H44.728V1.29588H43.444C43.376 1.44388 43.3 1.58788 43.216 1.72788V4.42388H42.784V2.31588C42.42 2.72388 41.964 3.09188 41.42 3.41988L41.144 3.05588C42.008 2.56788 42.616 1.98388 42.968 1.29588H41.272V0.887878ZM43.72 1.98388C44.164 2.33188 44.54 2.67988 44.844 3.02788L44.516 3.35988C44.26 3.02388 43.892 2.65988 43.42 2.27188L43.72 1.98388ZM45.204 0.927878H48.808V1.33188H48.312V3.93988C48.312 4.23588 48.168 4.38788 47.888 4.38788H47.212L47.116 3.98388C47.332 3.99988 47.544 4.00788 47.744 4.00788C47.84 4.00788 47.892 3.94788 47.892 3.83588V1.33188H45.204V0.927878ZM47.284 1.81188V3.37988H46.032V3.69988H45.632V1.81188H47.284ZM46.032 3.00388H46.888V2.18388H46.032V3.00388ZM49.668 4.37188H49.304L49.212 3.97588C49.32 3.98788 49.424 3.99588 49.52 3.99588C49.62 3.99588 49.672 3.94788 49.672 3.85188V3.04788C49.52 3.10388 49.372 3.15188 49.22 3.19988L49.112 2.77588C49.304 2.73588 49.488 2.68788 49.672 2.62388V1.80788H49.192V1.40388H49.672V0.719878H50.084V1.40388H50.528V1.80788H50.084V2.46788C50.228 2.40388 50.376 2.33588 50.52 2.25988V2.68388C50.376 2.75588 50.232 2.81988 50.084 2.88388V3.95588C50.084 4.23188 49.944 4.37188 49.668 4.37188ZM50.596 1.19188H51.424C51.36 1.03588 51.292 0.891878 51.212 0.759878L51.64 0.687878C51.708 0.835878 51.776 1.00388 51.844 1.19188H52.676V1.59988H50.596V1.19188ZM50.352 4.15988C50.56 3.97988 50.704 3.79188 50.784 3.59988C50.856 3.42388 50.892 3.16788 50.892 2.83188V1.93988H52.264V3.88388C52.264 3.96388 52.288 4.00388 52.344 4.00388H52.412C52.428 4.00388 52.448 3.99588 52.464 3.98788C52.476 3.97988 52.484 3.96388 52.492 3.94388C52.5 3.90788 52.508 3.74388 52.508 3.45188L52.872 3.55988C52.872 3.78788 52.86 3.95588 52.844 4.06788C52.828 4.17988 52.796 4.25988 52.74 4.30388C52.68 4.34388 52.588 4.36388 52.46 4.36388H52.336C52.028 4.36388 51.876 4.21588 51.876 3.92788V2.31988H51.28V2.83188C51.28 3.17988 51.236 3.47588 51.148 3.72388C51.06 3.97188 50.9 4.20788 50.66 4.43988L50.352 4.15988ZM56.636 3.24388H55.104V3.90388H56.848V4.30388H54.684V0.835878H56.772V1.23588H55.104V1.77588H56.636V3.24388ZM55.104 2.16388V2.85188H56.232V2.16388H55.104ZM54.564 2.24788V2.67188C54.416 2.74388 54.268 2.81188 54.12 2.87588V4.02388C54.12 4.26388 53.996 4.38388 53.752 4.38388H53.36L53.268 3.99188C53.388 4.00788 53.504 4.01988 53.612 4.01988C53.68 4.01988 53.716 3.98788 53.716 3.92788V3.03588C53.552 3.09188 53.388 3.14788 53.224 3.19988L53.12 2.77588C53.32 2.73588 53.516 2.67988 53.716 2.61188V1.80788H53.2V1.40388H53.716V0.727878H54.12V1.40388H54.564V1.80788H54.12V2.45988C54.268 2.39588 54.416 2.32388 54.564 2.24788ZM58.668 1.36388V4.16788H58.268V3.96788H57.676V4.28388H57.276V1.36388H57.66C57.732 1.15188 57.784 0.931878 57.816 0.703878L58.236 0.759878C58.192 0.975878 58.132 1.17988 58.06 1.36388H58.668ZM57.676 3.58388H58.268V2.82788H57.676V3.58388ZM57.676 2.45588H58.268V1.75588H57.676V2.45588ZM59.396 2.33588C59.652 2.65988 59.848 2.94388 59.988 3.19188L59.652 3.42388C59.504 3.15988 59.304 2.86788 59.056 2.54788L59.396 2.33588ZM60.728 1.36388C60.728 2.76388 60.708 3.62788 60.668 3.95588C60.628 4.23588 60.436 4.37588 60.092 4.37588C60.012 4.37588 59.868 4.36788 59.66 4.35188L59.56 3.97188C59.736 3.98388 59.892 3.99188 60.024 3.99188C60.168 3.99188 60.252 3.91188 60.276 3.75588C60.3 3.56388 60.312 2.90388 60.32 1.77188H59.352C59.244 2.01188 59.116 2.22788 58.968 2.41988L58.716 2.08788C58.98 1.71188 59.156 1.24788 59.252 0.699878L59.664 0.751878C59.624 0.967878 59.572 1.17188 59.512 1.36388H60.728ZM64.52 0.727878L64.716 1.07588C64.148 1.19588 63.516 1.26388 62.816 1.28388V1.51188H63.636L63.652 1.24388L64.06 1.29988L64.048 1.51188H64.788V1.87188H64.012C64 1.96388 63.988 2.05188 63.98 2.13588H64.648V4.41988H64.264V4.17988H63.352V4.41188H62.964V2.13588H63.576C63.588 2.04388 63.6 1.95588 63.608 1.87188H62.816V2.55188C62.8 3.32788 62.66 3.95188 62.404 4.41588L62.112 4.10788C62.308 3.73188 62.412 3.21588 62.424 2.55188V0.947878C63.208 0.935878 63.904 0.863878 64.52 0.727878ZM63.352 3.82388H64.264V3.58388H63.352V3.82388ZM63.352 3.27188H64.264V3.03188H63.352V3.27188ZM63.352 2.71988H64.264V2.48388H63.352V2.71988ZM61.928 0.751878L62.296 0.927878C62.108 1.35988 61.784 1.74788 61.32 2.09988L61.192 1.69188C61.524 1.42788 61.768 1.11188 61.928 0.751878ZM62.008 1.77188L62.368 1.93988C62.272 2.14788 62.144 2.34788 61.984 2.53188V4.39588H61.588V2.92388C61.484 3.00788 61.38 3.08788 61.272 3.16788L61.148 2.77188C61.536 2.48788 61.824 2.15588 62.008 1.77188ZM68.156 1.99188C68.472 2.39188 68.716 2.74388 68.892 3.03988L68.54 3.28388C68.372 2.97188 68.148 2.62388 67.868 2.24388V4.41188H67.46V2.47188C67.252 2.78388 67.004 3.07188 66.72 3.32788L66.464 2.99588C67.012 2.51588 67.4 1.93988 67.624 1.26788H66.652V0.867878H68.724V1.26788H68.024C67.976 1.41988 67.924 1.56388 67.868 1.70788V2.17188L68.156 1.99188ZM65.256 2.12788H65.656V1.38388H65.196V0.983878H66.532V1.38388H66.064V2.12788H66.476V2.52388H66.064V3.31188C66.224 3.25988 66.384 3.20388 66.544 3.14388V3.54388C66.136 3.69588 65.7 3.82388 65.24 3.92788L65.136 3.52788C65.312 3.49988 65.484 3.46388 65.656 3.42388V2.52388H65.256V2.12788ZM71.452 0.743878H71.876V1.87188H72.748V2.27988H71.876V3.87588H72.84V4.28388H70.464V3.87588H71.452V2.27988H70.608V1.87188H71.452V0.743878ZM69.724 2.88788C69.588 3.01588 69.44 3.14788 69.284 3.27988L69.152 2.83988C69.664 2.42388 70.012 2.01588 70.196 1.61988H69.248V1.21988H69.788C69.732 1.07588 69.672 0.939878 69.608 0.807878L70.004 0.699878C70.08 0.883878 70.14 1.05988 70.188 1.21988H70.62V1.57188C70.52 1.85188 70.364 2.12788 70.156 2.40388C70.376 2.52388 70.584 2.66788 70.776 2.83188L70.54 3.19588C70.404 3.05588 70.272 2.93588 70.136 2.83188V4.41188H69.724V2.88788ZM74.848 0.703878H75.152C75.652 1.25188 76.228 1.68388 76.884 1.99588L76.656 2.40388C76.424 2.28388 76.208 2.14788 76.004 2.00388V2.29188H74.008V1.98788C73.796 2.13588 73.568 2.27588 73.328 2.40788L73.104 1.99988C73.804 1.65588 74.384 1.22388 74.848 0.703878ZM74.128 1.89988H75.868C75.54 1.65588 75.252 1.38388 75 1.07988C74.752 1.37588 74.464 1.65188 74.128 1.89988ZM73.38 2.69988H76.628V3.10788H74.768C74.6 3.41988 74.404 3.69588 74.18 3.92788C74.72 3.89588 75.248 3.85188 75.76 3.79188C75.644 3.64788 75.52 3.49988 75.388 3.34788L75.712 3.14388C76.076 3.53588 76.356 3.87988 76.556 4.16788L76.208 4.41188C76.14 4.30788 76.068 4.19988 75.992 4.09588C75.372 4.19188 74.6 4.26788 73.672 4.32388L73.56 3.95988C73.66 3.93588 73.732 3.89588 73.776 3.84788C73.976 3.61188 74.144 3.36388 74.284 3.10788H73.38V2.69988ZM77.584 0.691878L78.412 2.55988L77.584 4.42788L77.24 4.27188L78 2.55988L77.24 0.847878L77.584 0.691878ZM78.28 0.691878L79.108 2.55988L78.28 4.42788L77.936 4.27188L78.696 2.55988L77.92 0.847878L78.28 0.691878Z" fill="white"/>
<g clip-path="url(#clip0_248_888)">
<path d="M0 0.599976L4.00078 0.599976V4.59998H0L0 0.599976Z" fill="#C8102E"/>
<path d="M1.125 0.599976H1.69609V4.59998H1.125V0.599976Z" fill="white"/>
<path d="M0 2.31404H4.00078V2.88591H0L0 2.31404Z" fill="white"/>
</g>
<defs>
<clipPath id="clip0_248_888">
<rect y="0.599976" width="4" height="4" rx="2" fill="white"/>
</clipPath>
</defs>
</svg>
