<svg width="112" height="11" viewBox="0 0 112 11" fill="none" xmlns="http://www.w3.org/2000/svg">
<path d="M6.80965 3.44706L7.18384 3.56503L6.58888 5.34804L7.52169 6.97236L7.19564 7.16307L6.17908 5.39061L6.80965 3.44706ZM7.50193 3.37515L7.86021 3.49478L7.28115 5.27614L8.21396 6.90045L7.88792 7.09116L6.87136 5.3187L7.50193 3.37515Z" fill="white"/>
<path d="M8.84442 3.31384C9.11829 3.47935 9.35236 3.64885 9.54663 3.82234L9.29277 4.13723C9.1192 3.96971 8.88433 3.79225 8.58896 3.61281L8.84442 3.31384ZM8.42837 4.49723L9.34776 4.40508L9.51332 6.0568C9.61837 5.94175 9.73058 5.81795 9.84955 5.6814L10.0089 6.10764C9.77011 6.37277 9.51265 6.61164 9.23727 6.8322L9.04057 6.47403C9.10225 6.40755 9.13049 6.32834 9.12171 6.24078L8.98169 4.84378L8.46826 4.89524L8.42837 4.49723ZM9.9011 4.83202L11.8434 4.63734L11.8813 5.01545C11.8041 5.36891 11.651 5.68576 11.4214 5.96204C11.6841 6.0965 11.9966 6.20589 12.3632 6.29376L12.1762 6.67431C11.7702 6.5542 11.4223 6.41219 11.14 6.2435C10.8515 6.49352 10.491 6.70654 10.0504 6.88336L9.78448 6.55625C10.1825 6.39576 10.5136 6.20981 10.7818 5.998C10.5015 5.76881 10.2945 5.50816 10.1679 5.20729L9.94099 5.23003L9.9011 4.83202ZM10.5579 5.16819C10.6682 5.38628 10.8322 5.57888 11.0575 5.74122C11.2422 5.53779 11.377 5.31925 11.4654 5.07724L10.5579 5.16819ZM10.0174 3.26461L11.4502 3.121L11.5328 3.94487C11.5415 4.03243 11.5941 4.07541 11.6936 4.06543L12.0359 4.03112L12.0738 4.40923L11.62 4.45471C11.3215 4.48463 11.1603 4.36009 11.1324 4.08148L11.0793 3.55213L10.4664 3.61357L10.4772 3.72103C10.5187 4.13496 10.336 4.47888 9.9365 4.74405L9.62598 4.45358C9.94634 4.28076 10.0975 4.06461 10.0716 3.8059L10.0174 3.26461Z" fill="white"/>
<path d="M13.722 3.93796L14.7495 3.84102L14.6405 2.68615L15.0706 2.64557L15.1796 3.80044L16.1552 3.70839L16.1943 4.12255L15.2186 4.2146L15.42 6.34912L14.99 6.3897L14.7886 4.25518L13.7611 4.35212L13.722 3.93796ZM12.9152 2.88108C13.1845 3.05254 13.418 3.22738 13.6152 3.40163L13.3559 3.71939C13.1873 3.55048 12.9498 3.37601 12.6476 3.19561L12.9152 2.88108ZM12.4702 4.08419L13.418 3.99477L13.5751 5.65938C13.6812 5.54892 13.7941 5.42577 13.9139 5.28992L14.0616 5.70588C13.8253 5.96924 13.5708 6.21021 13.2942 6.42917L13.0995 6.06986C13.1656 6.00336 13.1947 5.9283 13.1868 5.84467L13.0534 4.43095L12.5078 4.48242L12.4702 4.08419Z" fill="white"/>
<path d="M17.1448 3.94648L17.1942 4.52036L18.0709 4.44492L18.0215 3.87104L17.1448 3.94648ZM17.2071 4.90466C17.1979 5.40329 17.0861 5.83045 16.8711 6.17816L16.5276 5.91865C16.7339 5.56366 16.8168 5.12695 16.7802 4.60817L16.6104 2.63546L19.699 2.3697L19.9579 5.37858C19.9843 5.68545 19.8383 5.85459 19.5234 5.88168L19.0651 5.92112L18.9186 5.52422C19.0793 5.52644 19.2235 5.52207 19.359 5.51041C19.4786 5.50012 19.5355 5.41493 19.5224 5.26349L19.4748 4.70954L18.5263 4.79115L18.623 5.915L18.2005 5.95135L18.1038 4.8275L17.2071 4.90466ZM19.4418 4.32695L19.3925 3.75307L18.444 3.83469L18.4934 4.40857L19.4418 4.32695ZM19.3595 3.37048L19.3115 2.81255L18.363 2.89416L18.4111 3.4521L19.3595 3.37048ZM17.9406 2.93051L17.0638 3.00595L17.1119 3.56389L17.9886 3.48845L17.9406 2.93051Z" fill="white"/>
<path d="M20.6017 2.29585L23.6371 2.06831L23.6676 2.47517L22.4072 2.56966L22.4766 3.49506L24.0122 3.37994L24.0433 3.79478L22.5076 3.90989L22.6081 5.25013C22.6296 5.53733 22.4891 5.69628 22.186 5.719L21.5478 5.76684L21.4298 5.37055C21.6344 5.37126 21.8305 5.36458 22.014 5.35083C22.1336 5.34186 22.1893 5.28153 22.1812 5.17383L22.0888 3.94129L20.4853 4.06149L20.4542 3.64665L22.0577 3.52645L21.9884 2.60105L20.6322 2.70271L20.6017 2.29585Z" fill="white"/>
<path d="M24.4315 2.0992L28.0287 1.87789L28.0535 2.28112L27.5584 2.31158L27.7186 4.91466C27.7368 5.2101 27.6024 5.37066 27.3229 5.38785L26.6482 5.42936L26.5276 5.03202C26.7441 5.03473 26.9562 5.02969 27.1558 5.01741C27.2517 5.01152 27.2999 4.94844 27.293 4.83665L27.1392 2.33737L24.4563 2.50244L24.4315 2.0992ZM26.5619 2.8538L26.6581 4.41884L25.4085 4.49573L25.4282 4.81512L25.0289 4.83969L24.913 2.95525L26.5619 2.8538ZM25.3854 4.12044L26.2398 4.06787L26.1894 3.24942L25.3351 3.30198L25.3854 4.12044Z" fill="white"/>
<path d="M30.5542 1.57171L30.9618 1.55253L30.9785 1.90814L31.7536 1.87166L31.7715 2.25124L30.9964 2.28772L31.0127 2.63533L31.9397 2.59171L31.9581 2.98328L29.7446 3.08745L29.7261 2.69588L30.6052 2.65451L30.5888 2.3069L29.8536 2.34149L29.8358 1.96191L30.5709 1.92732L30.5542 1.57171ZM29.6991 3.48202L31.0975 3.41621L31.0851 3.1525L31.5046 3.13276L31.5171 3.39647L31.9805 3.37465L31.9988 3.76222L31.5353 3.78404L31.581 4.75496C31.594 5.03066 31.4607 5.17708 31.185 5.19006L30.6616 5.21469L30.5507 4.81546C30.7153 4.82373 30.8715 4.82439 31.0193 4.81743C31.1152 4.81292 31.1609 4.76272 31.1564 4.66682L31.1158 3.80378L29.7173 3.86959L29.6991 3.48202ZM28.9311 5.28812L28.5795 5.30466L28.473 4.91324C28.5776 4.92433 28.6739 4.92781 28.7698 4.9233C28.8617 4.91897 28.9072 4.86477 28.9025 4.76488L28.8653 3.97376C28.7317 4.0281 28.6021 4.08225 28.4681 4.1286L28.3445 3.71395C28.5146 3.66991 28.6803 3.61806 28.8455 3.55422L28.8075 2.74712L28.368 2.7678L28.3494 2.37224L28.7889 2.35155L28.7573 1.6803L29.1649 1.66112L29.1965 2.33238L29.5681 2.31489L29.5867 2.71045L29.2151 2.72794L29.2457 3.37922C29.371 3.31726 29.496 3.25131 29.6129 3.18174L29.6328 3.60527C29.5117 3.67103 29.3905 3.7328 29.2653 3.79476L29.3151 4.85359C29.3281 5.12928 29.1988 5.27552 28.9311 5.28812ZM30.2376 3.94922C30.4245 4.17669 30.574 4.37388 30.6781 4.54517L30.3574 4.79252C30.2445 4.60562 30.0945 4.39644 29.9078 4.17297L30.2376 3.94922Z" fill="white"/>
<path d="M33.656 4.20093L33.6685 4.59273C33.3292 4.74369 32.945 4.86806 32.5159 4.96586L32.4509 4.55974C32.9121 4.46491 33.3165 4.34789 33.656 4.20093ZM32.8787 1.42842L33.2796 1.57565C33.1261 2.0288 32.9701 2.40599 32.8074 2.69936L33.1497 2.64036L33.3408 2.23403L33.7292 2.36565C33.4356 2.94335 33.1892 3.37147 32.9898 3.646C33.1843 3.59574 33.3823 3.52936 33.5839 3.45086L33.5959 3.82667C33.2084 3.97116 32.8434 4.07091 32.501 4.12591L32.381 3.75357C32.452 3.72327 32.5147 3.68124 32.565 3.6276C32.6694 3.5122 32.7989 3.30794 32.9577 3.0187C32.7906 3.04808 32.6196 3.08157 32.4446 3.1152L32.3324 2.7386C32.3956 2.71256 32.4499 2.65879 32.4995 2.58117C32.6484 2.23221 32.7721 1.84805 32.8787 1.42842ZM33.8497 1.62941L34.6053 1.60518L34.5981 1.38129L35.0059 1.36822L35.0131 1.5921L35.8246 1.56608L35.8367 1.94189L35.0251 1.96791L35.0329 2.21178L35.9165 2.18346L35.9248 2.44332C35.8769 2.69699 35.809 2.95129 35.7292 3.20598L35.3256 3.10286C35.3967 2.9485 35.4552 2.77454 35.505 2.58085L33.7539 2.63699L33.7416 2.25319L34.6251 2.22486L34.6173 1.98099L33.8617 2.00521L33.8497 1.62941ZM33.7038 3.69514L34.2315 3.67822C34.059 3.53968 33.8835 3.43325 33.7048 3.35093L33.8876 3.06093C34.1027 3.15408 34.2985 3.27187 34.4752 3.41428L34.3195 3.6754L34.7712 3.66092C34.7771 3.59269 34.7829 3.52447 34.7847 3.45638L34.7602 2.69277L35.164 2.67983L35.1885 3.44343C35.1868 3.51552 35.185 3.58362 35.179 3.64784L36.0586 3.61964L36.0709 4.00344L35.1154 4.03408L35.0829 4.14318C35.46 4.29917 35.8102 4.48404 36.1294 4.70593L35.9052 5.0773C35.5848 4.81944 35.266 4.61355 34.9409 4.45989L34.8991 4.52926C34.7152 4.78329 34.4095 4.98519 33.9821 5.13496L33.7384 4.77459C34.1501 4.63332 34.4288 4.4643 34.5666 4.26779C34.6124 4.19828 34.6501 4.12504 34.6796 4.04805L33.7161 4.07895L33.7038 3.69514ZM34.1863 2.64314C34.3853 2.73281 34.5688 2.83898 34.7371 2.96966L34.5545 3.26766C34.3736 3.11738 34.1939 3.00308 34.0111 2.9209L34.1863 2.64314Z" fill="white"/>
<path d="M36.4382 2.35744L36.8261 2.35057L36.8083 1.34673L37.2203 1.33944L37.238 2.34328L37.594 2.33699L37.6009 2.72892L37.245 2.73522L37.2656 3.89904C37.4006 3.84064 37.5354 3.77425 37.6701 3.69985L37.6775 4.11579C37.3207 4.30213 36.9435 4.46083 36.5376 4.58802L36.4264 4.17793C36.5698 4.14339 36.7131 4.10484 36.8563 4.0583L36.833 2.74251L36.4451 2.74937L36.4382 2.35744ZM38.4476 1.28972C38.4981 1.43285 38.553 1.59191 38.6041 1.77103L39.0801 1.76261C39.1372 1.60157 39.1782 1.43282 39.2072 1.26028L39.6201 1.30898C39.587 1.4696 39.5416 1.61842 39.488 1.75539L39.9719 1.74683L39.9975 3.1946L37.7339 3.23465L37.7083 1.78688L38.2082 1.77803C38.1536 1.63098 38.0952 1.49599 38.0329 1.36907L38.4476 1.28972ZM39.6317 2.86902L39.6181 2.09714L38.9942 2.10818L39.0078 2.88006L39.6317 2.86902ZM38.6879 2.88572L38.6742 2.11384L38.0743 2.12446L38.088 2.89634L38.6879 2.88572ZM38.4161 2.22243C38.4747 2.36941 38.5337 2.54039 38.5891 2.73144L38.3304 2.80403C38.2833 2.63284 38.2244 2.46985 38.1576 2.31101L38.4161 2.22243ZM39.2556 2.18757L39.5288 2.25475C39.4845 2.45956 39.4236 2.64067 39.3544 2.79792L39.0968 2.71046C39.1584 2.57335 39.2113 2.39639 39.2556 2.18757ZM39.8572 3.40112L39.885 4.97687L39.4851 4.98395L39.4827 4.84797L38.3149 4.86863L38.3173 5.00461L37.9174 5.01168L37.8895 3.43593L39.8572 3.40112ZM38.3089 4.53268L39.4768 4.51202L39.4727 4.28006L38.3048 4.30072L38.3089 4.53268ZM38.2993 3.98877L39.4671 3.96811L39.4631 3.74014L38.2953 3.7608L38.2993 3.98877Z" fill="white"/>
<path d="M40.5343 2.76817L41.3023 2.76444L41.2951 1.27646L41.7151 1.27442L41.7223 2.7624L44.0903 2.75089L44.0923 3.15889L42.8363 3.16499C43.007 3.72817 43.4452 4.17004 44.1547 4.4906L43.9087 4.8878C43.0986 4.46373 42.6038 3.89013 42.4323 3.16695L41.7243 3.1704L41.7305 4.43838C41.9981 4.36908 42.2657 4.28778 42.5293 4.19449L42.6392 4.58597C42.2318 4.72395 41.8004 4.84205 41.3369 4.9483L41.2031 4.56495C41.2749 4.5286 41.3106 4.46842 41.3102 4.38042L41.3043 3.17244L40.5363 3.17617L40.5343 2.76817ZM43.4072 1.28619L43.6885 1.56883C43.3703 1.93038 42.8958 2.25269 42.2612 2.53978L42.0116 2.20899C42.6383 1.93394 43.1048 1.62767 43.4072 1.28619Z" fill="white"/>
<path d="M45.3528 2.03238C45.4408 2.03292 45.5126 2.06137 45.5762 2.12576C45.6358 2.18613 45.6673 2.26233 45.6668 2.35033C45.6662 2.43833 45.6338 2.51013 45.5734 2.56975C45.5091 2.62936 45.4369 2.66091 45.3489 2.66036C45.2609 2.65982 45.1851 2.62735 45.1254 2.56698C45.0658 2.5066 45.0383 2.43443 45.0388 2.34643C45.0394 2.25844 45.0678 2.18261 45.1282 2.12298C45.1886 2.05936 45.2648 2.03183 45.3528 2.03238ZM45.3437 3.49635C45.4317 3.49689 45.5035 3.52534 45.5671 3.58974C45.6267 3.65011 45.6583 3.7263 45.6577 3.8143C45.6572 3.9023 45.6247 3.9741 45.5643 4.03373C45.5 4.09333 45.4278 4.12488 45.3398 4.12434C45.2518 4.12379 45.176 4.09132 45.1164 4.03095C45.0567 3.97058 45.0292 3.8984 45.0297 3.81041C45.0303 3.72241 45.0587 3.64658 45.1191 3.58696C45.1795 3.52333 45.2557 3.4958 45.3437 3.49635Z" fill="white"/>
<path d="M48.686 3.01645L49.4139 3.02762L49.4387 1.41581L51.7424 1.45115L51.7177 3.06296L52.2616 3.0713L52.2554 3.47525L51.7115 3.46691L51.694 4.60677C51.6901 4.86274 51.548 4.99258 51.2681 4.98829L50.7961 4.98105L50.6903 4.57538C50.8542 4.58589 51.0061 4.59622 51.146 4.59837C51.226 4.5996 51.2668 4.54822 51.2683 4.45223L51.2835 3.46034L49.8077 3.4377C49.7261 4.06053 49.5142 4.57734 49.1718 4.98813L48.8564 4.69126C49.1377 4.34353 49.3121 3.92616 49.3797 3.43114L48.6798 3.4204L48.686 3.01645ZM51.2897 3.05639L51.3086 1.82854L49.8567 1.80626L49.8379 3.03412L51.2897 3.05639ZM50.4386 1.95121C50.6782 2.23492 50.8625 2.47777 50.9913 2.68777L50.6599 2.91071C50.5193 2.68453 50.3352 2.42968 50.0994 2.15403L50.4386 1.95121Z" fill="white"/>
<path d="M54.2294 1.35073L54.6533 1.36059L54.6461 1.6725L55.9817 1.70356L55.973 2.07946L54.6373 2.0484L54.6318 2.28434L55.7835 2.31112L55.7753 2.66702L54.6236 2.64024L54.6183 2.86818L56.1739 2.90435L56.1651 3.28025L54.1417 3.2332C54.1001 3.30025 54.0586 3.3633 54.0172 3.42236L55.6408 3.46011L55.633 3.79602C55.4195 4.03112 55.1706 4.23739 54.8785 4.41064C55.2473 4.55126 55.673 4.65718 56.1514 4.73232L55.9461 5.12766C55.3564 5.02192 54.848 4.86206 54.4209 4.64407C53.956 4.84932 53.4126 4.99273 52.7945 5.07438L52.6117 4.67802C53.129 4.62604 53.5874 4.52866 53.9907 4.39C53.8018 4.25757 53.637 4.11771 53.4925 3.96231C53.3336 4.08665 53.159 4.19862 52.9645 4.30212L52.6929 3.93571C53.1297 3.73781 53.4553 3.49732 53.6698 3.22223L52.6301 3.19805L52.6388 2.82215L54.1944 2.85832L54.1997 2.63038L53.048 2.60361L53.0563 2.2477L54.208 2.27448L54.2134 2.03854L52.8738 2.0074L52.8825 1.6315L54.2222 1.66265L54.2294 1.35073ZM53.8642 3.80691C54.0289 3.95477 54.2177 4.0912 54.4351 4.20828C54.6617 4.09752 54.8646 3.9742 55.0439 3.83433L53.8642 3.80691Z" fill="white"/>
<path d="M57.0706 1.49751C57.3204 1.69748 57.5302 1.8962 57.7001 2.09365L57.4071 2.37255C57.257 2.18373 57.0474 1.97702 56.7781 1.76042L57.0706 1.49751ZM56.503 2.61618L57.4266 2.6453L57.3742 4.30448C57.4934 4.20418 57.6209 4.09615 57.7568 3.97637L57.8588 4.41981C57.5874 4.65137 57.3009 4.85444 56.9989 5.03701L56.8509 4.65615C56.9207 4.59833 56.9591 4.5235 56.9619 4.43554L57.0061 3.03224L56.4904 3.01598L56.503 2.61618ZM57.9192 3.14108L59.8702 3.2026L59.8582 3.58242C59.7354 3.92271 59.5421 4.21677 59.2783 4.46057C59.5211 4.62831 59.8165 4.7777 60.1684 4.91285L59.9332 5.26562C59.5464 5.09334 59.2202 4.90696 58.9625 4.70274C58.6437 4.91279 58.2583 5.07673 57.7984 5.19429L57.5776 4.83515C57.9932 4.7282 58.3458 4.58724 58.6395 4.41241C58.3916 4.14847 58.2206 3.86293 58.1344 3.54806L57.9066 3.54088L57.9192 3.14108ZM58.5263 3.56042C58.607 3.79108 58.7444 4.00352 58.9465 4.19398C59.1562 4.0165 59.3185 3.81752 59.4378 3.58917L58.5263 3.56042ZM58.2398 1.60242L59.6791 1.64781L59.653 2.4754C59.6502 2.56335 59.6967 2.61284 59.7967 2.61599L60.1405 2.62684L60.1285 3.00665L59.6727 2.99228C59.3729 2.98282 59.2294 2.83822 59.2382 2.55836L59.255 2.02663L58.6393 2.00721L58.6359 2.11516C58.6228 2.53095 58.3966 2.84798 57.9658 3.0585L57.696 2.72984C58.0363 2.6005 58.2145 2.40602 58.2227 2.14615L58.2398 1.60242Z" fill="white"/>
<path d="M61.718 2.75548L62.7491 2.79676L62.7955 1.63769L63.2272 1.65496L63.1808 2.81403L64.16 2.85323L64.1434 3.2689L63.1642 3.2297L63.0784 5.37199L62.6468 5.35471L62.7325 3.21242L61.7013 3.17115L61.718 2.75548ZM61.0596 1.60023C61.3036 1.80615 61.5116 2.01063 61.6838 2.20968L61.3843 2.48993C61.2398 2.29999 61.0278 2.09535 60.7524 1.87616L61.0596 1.60023ZM60.4579 2.73307L61.4091 2.77114L61.3422 4.4418C61.4621 4.34652 61.5905 4.23957 61.7274 4.12095L61.8182 4.55293C61.5488 4.78234 61.2643 4.98713 60.9609 5.16713L60.8161 4.78504C60.8904 4.72796 60.9293 4.65746 60.9326 4.57353L60.9894 3.15466L60.4419 3.13275L60.4579 2.73307Z" fill="white"/>
<path d="M66.1477 1.77402L66.5792 1.79494L66.5461 2.47814L67.9644 2.54691L67.8699 4.49662L67.4504 4.47628L67.4611 4.25653L66.4622 4.20811L66.3975 5.54254L65.966 5.52162L66.0307 4.18718L65.0359 4.13895L65.0252 4.35869L64.6057 4.33835L64.7003 2.38864L66.1146 2.45722L66.1477 1.77402ZM65.0557 3.73143L66.0505 3.77966L66.0949 2.86474L65.1 2.8165L65.0557 3.73143ZM66.482 3.80058L67.4808 3.84901L67.5252 2.93409L66.5263 2.88566L66.482 3.80058Z" fill="white"/>
<path d="M70.804 5.61635L69.9174 5.56615C69.5899 5.54761 69.4394 5.37483 69.4575 5.05534L69.5848 2.80694L70.0041 2.83068L69.882 4.98723C69.8757 5.09905 69.9364 5.15858 70.0682 5.16604L70.7472 5.20448C70.819 5.20855 70.8732 5.17155 70.9097 5.09349C70.9544 5.01188 70.993 4.75366 71.0336 4.31926L71.4216 4.47343C71.3573 5.04271 71.2781 5.37877 71.1842 5.48163C71.0984 5.58094 70.9717 5.62585 70.804 5.61635ZM68.9521 3.15573L69.3507 3.26243C69.2019 3.97917 69.0149 4.59358 68.7896 5.10567L68.4391 4.85745C68.6655 4.3254 68.8378 3.75824 68.9521 3.15573ZM71.6854 3.21033C71.8825 3.76235 72.0496 4.34874 72.1867 4.96948L71.7934 5.12349C71.6477 4.44216 71.4733 3.84335 71.2786 3.3195L71.6854 3.21033ZM70.3401 1.99233C70.6645 2.41935 70.9117 2.79392 71.078 3.11183L70.717 3.33178C70.536 2.989 70.2933 2.60667 69.9844 2.18854L70.3401 1.99233Z" fill="white"/>
<path d="M73.2478 2.19841L73.6549 2.22441L73.6137 2.8711L74.3482 2.91799L74.3237 3.30121L73.5892 3.25431L73.5494 3.87705L74.1562 3.91579L74.0604 5.41673C74.349 5.29087 74.6122 5.1233 74.8542 4.91029C74.819 4.77176 74.7882 4.62551 74.7585 4.46328C74.7234 4.26063 74.698 4.03055 74.6908 3.76555L74.174 3.82474L74.1384 3.44169L74.6794 3.38004C74.6763 3.05118 74.6876 2.68715 74.713 2.28796L75.1122 2.31345C75.0918 2.69693 75.0821 3.037 75.0832 3.33367L76.1086 3.21878L76.1442 3.60183L75.0864 3.72267C75.094 3.97968 75.1085 4.19303 75.1377 4.36324C75.1485 4.4441 75.1637 4.52122 75.1753 4.5901C75.3657 4.36978 75.542 4.12051 75.7 3.84201L76.0096 4.07822C75.781 4.45642 75.5401 4.77772 75.2867 5.04212C75.3098 5.11975 75.3374 5.18965 75.3658 5.24757C75.4586 5.42585 75.5289 5.51851 75.5768 5.52157C75.6326 5.52514 75.704 5.34933 75.7866 4.99788L76.1099 5.2069C75.9754 5.74343 75.8104 6.00544 75.6108 5.9927C75.4511 5.9825 75.2911 5.85204 75.1345 5.60556C75.0797 5.5219 75.0297 5.42652 74.9884 5.31967C74.7049 5.55408 74.4095 5.7236 74.0982 5.82798L73.8978 5.51457L72.9198 5.45213L72.9024 5.72357L72.5033 5.69809L72.6233 3.81791L73.1423 3.85105L73.2478 2.19841ZM72.944 5.0729L73.6825 5.12005L73.7365 4.27378L72.998 4.22662L72.944 5.0729ZM75.5505 2.41759C75.7254 2.62916 75.8618 2.81424 75.9562 2.96856L75.6353 3.16051C75.542 2.99021 75.41 2.79741 75.2434 2.58235L75.5505 2.41759Z" fill="white"/>
<path d="M79.753 4.76306C79.4832 4.60785 79.2499 4.44718 79.0535 4.27305C78.8186 4.42102 78.5529 4.5508 78.2567 4.65839L79.753 4.76306ZM78.1787 4.68501C78.1376 4.69817 78.0966 4.71134 78.0596 4.72479L77.9293 4.52321L77.8369 5.84399L77.4858 5.81942L77.4961 5.67178L76.8018 5.62322L76.7915 5.77085L76.4164 5.74462L76.633 2.64818L78.0535 2.74755L78.0053 3.43787C78.2489 3.22234 78.4699 2.92905 78.6646 2.55372L79.0734 2.67053C79.0276 2.75154 78.9861 2.82883 78.9447 2.90612L79.9701 2.97786L79.9478 3.29708C79.8075 3.58398 79.6095 3.83478 79.3539 4.04946C79.5787 4.21756 79.8408 4.36822 80.1363 4.50116L79.9307 4.85969C79.8842 4.83639 79.8378 4.81309 79.7995 4.78636L79.694 6.29467L79.287 6.2662L79.2973 6.11856L78.4913 6.06218L78.481 6.20982L78.074 6.18135L78.1787 4.68501ZM77.9949 3.5855L77.9419 4.34365C78.2535 4.24516 78.5306 4.1242 78.765 3.98421C78.6462 3.84759 78.5434 3.71209 78.4609 3.57399C78.3698 3.67187 78.2756 3.75751 78.1817 3.83915L77.9949 3.5855ZM79.0477 3.78345C79.2136 3.6467 79.3525 3.49602 79.464 3.33541L78.6978 3.28181C78.6933 3.28952 78.689 3.29323 78.6887 3.29722C78.7808 3.47206 78.9018 3.6329 79.0477 3.78345ZM78.5184 5.67513L79.3244 5.73151L79.3668 5.12499L78.5608 5.06861L78.5184 5.67513ZM77.5212 5.31266L77.5877 4.36298L77.4001 4.34986L77.3337 5.29954L77.5212 5.31266ZM77.6128 4.00386L77.6759 3.10206L77.4883 3.08894L77.4253 3.99074L77.6128 4.00386ZM77.1611 3.06606L76.9816 3.05349L76.9185 3.95529L77.0981 3.96785L77.1611 3.06606ZM76.8934 4.31441L76.8269 5.26409L77.0065 5.27665L77.0729 4.32697L76.8934 4.31441Z" fill="white"/>
<path d="M81.7296 3.1357C82.0049 3.15616 82.2263 3.25283 82.394 3.42573C82.5576 3.59834 82.6303 3.8083 82.6113 4.06359C82.5929 4.31091 82.4806 4.52718 82.282 4.71698C82.1614 4.82835 81.9507 4.96511 81.6575 5.13184C81.3521 5.30168 81.1641 5.45617 81.0896 5.59503L82.4938 5.69938L82.4632 6.11025L80.4767 5.96262C80.4983 5.67142 80.6088 5.42693 80.8162 5.22575C80.9288 5.11379 81.1613 4.95458 81.5093 4.75181C81.7022 4.6378 81.8379 4.53958 81.9239 4.46174C82.0579 4.33132 82.133 4.18448 82.1449 4.02492C82.1564 3.86935 82.1212 3.75041 82.047 3.66869C81.9689 3.58667 81.8479 3.54158 81.6843 3.52943C81.5088 3.51638 81.3727 3.56643 81.2761 3.67958C81.18 3.78475 81.1194 3.95272 81.0948 4.17551L80.6281 4.14083C80.6558 3.82201 80.7666 3.57353 80.9646 3.3917C81.1675 3.19821 81.4225 3.11287 81.7296 3.1357Z" fill="white"/>
<path d="M84.7667 3.36499C85.0977 3.39052 85.3465 3.54612 85.5124 3.83975C85.6676 4.1165 85.7279 4.47821 85.6935 4.92488C85.659 5.37156 85.5439 5.71974 85.3481 5.96942C85.1395 6.23014 84.8695 6.34974 84.5385 6.3242C84.2035 6.29837 83.955 6.13879 83.7928 5.84945C83.6376 5.5727 83.5772 5.21099 83.6117 4.76431C83.6461 4.31764 83.7612 3.96946 83.957 3.71978C84.162 3.45476 84.4317 3.33915 84.7667 3.36499ZM84.7363 3.75982C84.5089 3.74229 84.3399 3.85362 84.2285 4.10178C84.1514 4.26835 84.1014 4.50119 84.0783 4.8003C84.0555 5.09543 84.0693 5.33319 84.1196 5.51359C84.1919 5.77192 84.3416 5.91184 84.5689 5.92938C84.7923 5.9466 84.9616 5.83129 85.0767 5.58742C85.1541 5.41686 85.2041 5.18402 85.2269 4.88889C85.2499 4.58978 85.2362 4.35202 85.1856 4.17561C85.1096 3.91298 84.9596 3.77705 84.7363 3.75982Z" fill="white"/>
<path d="M87.6913 3.59295C87.9664 3.61469 88.1874 3.71241 88.3542 3.8861C88.5171 4.05947 88.5887 4.26977 88.5685 4.52498C88.549 4.7722 88.4356 4.98794 88.2361 5.17681C88.115 5.28761 87.9037 5.42338 87.6097 5.58873C87.3035 5.75712 87.1148 5.91073 87.0397 6.04924L88.4433 6.16019L88.4108 6.57091L86.425 6.41394C86.448 6.12284 86.5596 5.87888 86.768 5.67868C86.8812 5.56725 87.1143 5.40913 87.4633 5.208C87.6568 5.0949 87.7929 4.99732 87.8793 4.91989C88.0139 4.7901 88.0897 4.64361 88.1023 4.48411C88.1146 4.32859 88.0799 4.20949 88.0061 4.12742C87.9284 4.04504 87.8076 3.99938 87.6441 3.98645C87.4687 3.97258 87.3323 4.022 87.2352 4.13469C87.1386 4.2394 87.0772 4.40709 87.0516 4.62976L86.585 4.59288C86.6142 4.27419 86.7261 4.02624 86.925 3.84535C87.1288 3.65281 87.3842 3.56867 87.6913 3.59295Z" fill="white"/>
<path d="M90.6299 3.82673C90.9608 3.85328 91.2091 4.00963 91.3741 4.30377C91.5285 4.581 91.5877 4.9429 91.5519 5.38946C91.5161 5.83603 91.3999 6.18385 91.2033 6.43293C90.9939 6.69301 90.7235 6.81177 90.3926 6.78523C90.0577 6.75836 89.8097 6.59802 89.6483 6.30819C89.494 6.03096 89.4348 5.66906 89.4706 5.2225C89.5064 4.77593 89.6226 4.42811 89.8191 4.17903C90.0249 3.91464 90.295 3.79986 90.6299 3.82673ZM90.5982 4.22146C90.371 4.20323 90.2016 4.31404 90.0894 4.56186C90.0118 4.7282 89.9611 4.96088 89.9371 5.25992C89.9134 5.55497 89.9264 5.79278 89.9762 5.97333C90.0477 6.23188 90.197 6.37226 90.4242 6.3905C90.6475 6.40841 90.8172 6.29361 90.9331 6.05009C91.011 5.87978 91.0617 5.64709 91.0854 5.35204C91.1094 5.053 91.0964 4.8152 91.0463 4.63863C90.9711 4.37577 90.8215 4.23937 90.5982 4.22146Z" fill="white"/>
<path d="M92.6089 5.67919L94.6224 5.84162L94.5922 6.2164L92.5787 6.05397L92.6089 5.67919Z" fill="white"/>
<path d="M96.7522 4.31988C97.0273 4.34202 97.2482 4.44005 97.4147 4.61397C97.5773 4.78758 97.6487 4.99798 97.6282 5.25315C97.6083 5.50035 97.4946 5.71593 97.2948 5.90451C97.1736 6.01514 96.962 6.15061 96.6678 6.31554C96.3614 6.4835 96.1725 6.63684 96.0971 6.77524L97.5006 6.88819L97.4675 7.29886L95.482 7.13907C95.5054 6.84801 95.6173 6.6042 95.826 6.4043C95.9393 6.29303 96.1727 6.13524 96.5219 5.93461C96.7156 5.82178 96.8519 5.7244 96.9383 5.64709C97.0732 5.51749 97.1492 5.37111 97.162 5.21162C97.1745 5.05613 97.1399 4.93697 97.0663 4.8548C96.9887 4.77231 96.868 4.72647 96.7045 4.71332C96.5291 4.6992 96.3927 4.74842 96.2953 4.86097C96.1986 4.96555 96.137 5.13315 96.111 5.35578L95.6445 5.31824C95.6742 4.99959 95.7864 4.7518 95.9856 4.57119C96.1896 4.37894 96.4452 4.29517 96.7522 4.31988Z" fill="white"/>
<path d="M99.5316 4.54294C99.8625 4.56934 100.111 4.72558 100.276 5.01965C100.43 5.2968 100.49 5.65867 100.454 6.10526C100.419 6.55184 100.303 6.89971 100.106 7.14888C99.8968 7.40906 99.6265 7.52794 99.2956 7.50154C98.9606 7.47483 98.7126 7.3146 98.5511 7.02484C98.3967 6.74768 98.3372 6.38581 98.3729 5.93923C98.4085 5.49265 98.5245 5.14477 98.721 4.8956C98.9266 4.63112 99.1966 4.51622 99.5316 4.54294ZM99.5001 4.93769C99.2728 4.91956 99.1034 5.03044 98.9914 5.27832C98.9139 5.44468 98.8632 5.67739 98.8394 5.97644C98.8159 6.2715 98.829 6.5093 98.8788 6.68983C98.9505 6.94835 99.0998 7.08867 99.3271 7.1068C99.5503 7.12461 99.72 7.00974 99.8357 6.76617C99.9135 6.59581 99.9642 6.36311 99.9877 6.06804C100.012 5.76899 99.9985 5.5312 99.9483 5.35465C99.873 5.09183 99.7234 4.9555 99.5001 4.93769Z" fill="white"/>
<path d="M102.569 4.784C102.845 4.80563 103.066 4.90325 103.232 5.07686C103.395 5.25016 103.467 5.46043 103.447 5.71564C103.428 5.96288 103.314 6.17867 103.115 6.36762C102.994 6.47848 102.783 6.61434 102.489 6.77982C102.183 6.94835 101.994 7.10204 101.919 7.24059L103.323 7.35091L103.29 7.76164L101.304 7.60556C101.327 7.31446 101.439 7.07044 101.647 6.87015C101.76 6.75867 101.993 6.60045 102.342 6.39916C102.536 6.28597 102.672 6.18833 102.758 6.11086C102.893 5.98101 102.968 5.83449 102.981 5.67498C102.993 5.51946 102.958 5.40037 102.884 5.31834C102.807 5.23599 102.686 5.19038 102.522 5.17753C102.347 5.16374 102.211 5.21321 102.113 5.32595C102.017 5.43071 101.956 5.59842 101.93 5.82111L101.464 5.78444C101.493 5.46573 101.604 5.21773 101.803 5.03675C102.007 4.84412 102.262 4.75987 102.569 4.784Z" fill="white"/>
<path d="M104.876 5.02099L106.611 5.1546L106.58 5.56538L105.22 5.46065L105.08 6.23619L105.092 6.23711C105.186 6.15613 105.291 6.1 105.41 6.06902C105.516 6.03712 105.634 6.02609 105.761 6.03592C106.028 6.0565 106.241 6.16113 106.395 6.34951C106.549 6.53789 106.618 6.78793 106.594 7.09502C106.572 7.39015 106.441 7.62084 106.204 7.79108C105.983 7.94261 105.734 8.00763 105.451 7.98582C105.191 7.96586 104.973 7.87687 104.801 7.72316C104.605 7.55164 104.51 7.33167 104.51 7.06691L104.969 7.10224C104.977 7.25931 105.028 7.37958 105.126 7.46334C105.209 7.53391 105.329 7.57932 105.485 7.5913C105.652 7.6042 105.8 7.56341 105.924 7.46863C106.043 7.37353 106.114 7.23855 106.127 7.06307C106.142 6.87164 106.102 6.7161 106.015 6.60104C105.927 6.482 105.788 6.4191 105.604 6.40497C105.481 6.39545 105.372 6.4071 105.28 6.44421C105.177 6.48439 105.096 6.55034 105.032 6.64574L104.597 6.61227L104.876 5.02099Z" fill="white"/>
<path d="M107.869 4.7979L108.555 6.72257L107.589 8.52344L107.258 8.34216L108.144 6.69177L107.514 4.92774L107.869 4.7979ZM108.563 4.84993L109.249 6.7746L108.283 8.57547L107.952 8.39419L108.838 6.7438L108.192 4.97858L108.563 4.84993Z" fill="white"/>
<g clip-path="url(#clip0_248_878)">
<path d="M0.803955 4.21729L4.78333 3.80395L5.19658 7.78255L1.21721 8.19588L0.803955 4.21729Z" fill="#C8102E"/>
<path d="M1.92297 4.10106L2.49101 4.04206L2.90426 8.02065L2.33623 8.07965L1.92297 4.10106Z" fill="white"/>
<path d="M0.981079 5.92218L4.96045 5.50884L5.01953 6.07766L1.04016 6.49099L0.981079 5.92218Z" fill="white"/>
</g>
<defs>
<clipPath id="clip0_248_878">
<rect x="0.803955" y="4.21729" width="4" height="4" rx="2" transform="rotate(-5.93 0.803955 4.21729)" fill="white"/>
</clipPath>
</defs>
</svg>
