<svg width="72" height="6" viewBox="0 0 72 6" fill="none" xmlns="http://www.w3.org/2000/svg">
<path d="M6.71988 0.691969L7.07988 0.847969L6.30388 2.55997L7.06388 4.27197L6.71988 4.42797L5.89188 2.55997L6.71988 0.691969ZM7.41588 0.691969L7.75988 0.847969L6.99988 2.55997L7.75988 4.27197L7.41588 4.42797L6.58788 2.55997L7.41588 0.691969ZM10.8199 3.34797C10.7039 3.77997 10.4519 4.14397 10.0599 4.43997L9.80788 4.13597H8.24788V0.951969H9.90788V1.33597H8.63588V3.30797C8.83588 3.09197 9.00388 2.83997 9.13988 2.55197C8.99588 2.31197 8.83988 2.07197 8.66788 1.82397L8.94788 1.55597C9.07588 1.73997 9.19588 1.92797 9.31588 2.11197C9.38388 1.90797 9.43988 1.69197 9.48388 1.46797L9.86388 1.52797C9.78788 1.89597 9.68788 2.22797 9.56388 2.52797C9.71588 2.79197 9.85188 3.05197 9.97588 3.30797L9.69188 3.59597C9.59588 3.38397 9.48788 3.16797 9.36388 2.94397C9.21588 3.20797 9.04388 3.44397 8.85188 3.64397L8.63588 3.37597V3.74397H9.88788V4.04797C10.1759 3.79997 10.3679 3.50797 10.4599 3.17197C10.5399 2.85197 10.5839 2.44397 10.5879 1.93997H10.9759C10.9759 2.22797 10.9599 2.49597 10.9359 2.73597C11.1239 3.29197 11.4399 3.73997 11.8879 4.07597L11.6079 4.40797C11.2759 4.11197 11.0119 3.75597 10.8199 3.34797ZM10.2799 0.739969L10.6799 0.803969C10.6559 0.979969 10.6319 1.14397 10.5999 1.29597H11.7479V1.55997C11.6879 1.87997 11.6079 2.19997 11.5079 2.51997L11.1079 2.40397C11.1919 2.19597 11.2639 1.95597 11.3239 1.68397H10.5039C10.4079 2.01597 10.2839 2.27997 10.1319 2.47197L9.79588 2.23197C10.0439 1.87597 10.2079 1.37997 10.2799 0.739969ZM13.2479 1.76397L13.5639 1.84797C13.5239 2.22797 13.4439 2.59197 13.3319 2.94397L12.9959 2.82797C13.1159 2.49197 13.1999 2.13997 13.2479 1.76397ZM12.5079 0.771969C12.7719 0.971969 12.9959 1.17197 13.1759 1.37197L12.8879 1.65997C12.7319 1.46797 12.5119 1.26397 12.2239 1.04397L12.5079 0.771969ZM12.4199 1.71997C12.6679 1.92797 12.8799 2.13597 13.0559 2.34397L12.7639 2.63597C12.6199 2.43597 12.4079 2.21997 12.1359 1.99197L12.4199 1.71997ZM12.6839 2.94797L13.0519 3.09197C12.9119 3.55997 12.7559 3.99997 12.5879 4.40797L12.1959 4.23197C12.3799 3.81597 12.5439 3.38797 12.6839 2.94797ZM14.4799 0.851969H14.8479V4.28797H14.4799V0.851969ZM15.3279 0.727969H15.7279V4.42397H15.3279V0.727969ZM13.6319 0.759969H14.0319V1.97997C14.0199 3.09597 13.7839 3.91197 13.3279 4.43197L13.0079 4.14797C13.4159 3.69997 13.6239 2.97597 13.6319 1.97997V0.759969ZM15.0919 1.78797C15.1759 2.09597 15.2479 2.42397 15.3079 2.77597L15.0639 2.88797C15.0039 2.50397 14.9399 2.15997 14.8679 1.85997L15.0919 1.78797ZM14.2759 1.78797C14.3479 2.09597 14.4079 2.42797 14.4599 2.77997L14.2159 2.89197C14.1679 2.50397 14.1119 2.15997 14.0519 1.85997L14.2759 1.78797ZM16.2559 1.03597H17.9919V1.44397H17.4239V2.17597H17.8279V2.39197C18.0759 1.92397 18.2439 1.36397 18.3359 0.707969L18.7479 0.755969C18.7159 0.951969 18.6799 1.13997 18.6359 1.31597H19.7919V1.72397H19.5359C19.5039 2.34397 19.3599 2.87197 19.0999 3.31197C19.3239 3.63197 19.5879 3.88397 19.8919 4.06397L19.6519 4.41997C19.3439 4.23197 19.0759 3.97597 18.8519 3.65597C18.5799 3.97197 18.2359 4.22797 17.8159 4.42397L17.5599 4.07997C18.0119 3.88797 18.3679 3.62797 18.6239 3.29597C18.4759 3.03197 18.3479 2.73597 18.2439 2.40797C18.1639 2.55997 18.0799 2.70397 17.9919 2.83997L17.7839 2.56797H17.4239V3.44397C17.6079 3.38797 17.7879 3.33197 17.9559 3.27597V3.65997C17.4639 3.83597 16.8959 3.99997 16.2519 4.14797L16.1399 3.76397L16.3679 3.71597V1.90797H16.7559V3.62397C16.8479 3.59997 16.9359 3.57997 17.0199 3.55597V1.44397H16.2559V1.03597ZM18.8559 2.91597C19.0239 2.56397 19.1159 2.16797 19.1319 1.72397H18.5199C18.4999 1.78797 18.4799 1.84797 18.4599 1.90397C18.5679 2.28397 18.6999 2.61997 18.8559 2.91597ZM20.2119 1.86797H21.7879V1.64397H22.1679L21.9399 1.49597C22.1119 1.23997 22.2319 0.971969 22.3039 0.683969L22.7039 0.771969C22.6799 0.851969 22.6559 0.931969 22.6319 1.00397H23.7599V1.37197H23.1039C23.1759 1.48397 23.2359 1.59197 23.2839 1.69197L22.9199 1.83197C22.8479 1.67197 22.7679 1.51997 22.6799 1.37197H22.4879C22.4279 1.49997 22.3639 1.61597 22.2919 1.72397L22.2119 1.67197V1.86797H23.7879V2.24397H22.2119V2.44397H23.5239V3.22797C23.5239 3.45997 23.3959 3.57597 23.1439 3.57597H22.8999C23.1879 3.73197 23.5159 3.86397 23.8799 3.97597L23.6599 4.35597C23.0999 4.14797 22.6199 3.86397 22.2119 3.51197V4.43197H21.7879V3.52797C21.3959 3.88797 20.9519 4.17197 20.4599 4.37597L20.2119 4.00397C20.8239 3.79197 21.3479 3.49597 21.7879 3.11197V2.80797H20.9559V3.55997H20.5439V2.44397H21.7879V2.24397H20.2119V1.86797ZM22.2119 3.11997C22.4039 3.27997 22.6199 3.42797 22.8679 3.55997L22.7679 3.20797L23.0279 3.22797C23.0799 3.22797 23.1079 3.19597 23.1079 3.13997V2.80797H22.2119V3.11997ZM20.8039 1.37197C20.7199 1.50797 20.6279 1.63597 20.5279 1.75597L20.1679 1.52797C20.4079 1.26397 20.5799 0.979969 20.6799 0.679969L21.0799 0.767969C21.0519 0.847969 21.0199 0.927969 20.9879 1.00397H21.9159V1.37197H21.3639C21.4359 1.48397 21.4999 1.59197 21.5519 1.69597L21.1759 1.83597C21.1039 1.67597 21.0239 1.51997 20.9359 1.37197H20.8039ZM25.7839 0.695969H26.2159V1.37997H27.6359V3.33197H27.2159V3.11197H26.2159V4.44797H25.7839V3.11197H24.7879V3.33197H24.3679V1.37997H25.7839V0.695969ZM24.7879 2.70397H25.7839V1.78797H24.7879V2.70397ZM26.2159 2.70397H27.2159V1.78797H26.2159V2.70397ZM29.6679 1.36397V4.16797H29.2679V3.96797H28.6759V4.28397H28.2759V1.36397H28.6599C28.7319 1.15197 28.7839 0.931969 28.8159 0.703969L29.2359 0.759969C29.1919 0.975969 29.1319 1.17997 29.0599 1.36397H29.6679ZM28.6759 3.58397H29.2679V2.82797H28.6759V3.58397ZM28.6759 2.45597H29.2679V1.75597H28.6759V2.45597ZM30.3959 2.33597C30.6519 2.65997 30.8479 2.94397 30.9879 3.19197L30.6519 3.42397C30.5039 3.15997 30.3039 2.86797 30.0559 2.54797L30.3959 2.33597ZM31.7279 1.36397C31.7279 2.76397 31.7079 3.62797 31.6679 3.95597C31.6279 4.23597 31.4359 4.37597 31.0919 4.37597C31.0119 4.37597 30.8679 4.36797 30.6599 4.35197L30.5599 3.97197C30.7359 3.98397 30.8919 3.99197 31.0239 3.99197C31.1679 3.99197 31.2519 3.91197 31.2759 3.75597C31.2999 3.56397 31.3119 2.90397 31.3199 1.77197H30.3519C30.2439 2.01197 30.1159 2.22797 29.9679 2.41997L29.7159 2.08797C29.9799 1.71197 30.1559 1.24797 30.2519 0.699969L30.6639 0.751969C30.6239 0.967969 30.5719 1.17197 30.5119 1.36397H31.7279ZM32.6879 0.767969C32.9439 0.959969 33.1599 1.15197 33.3359 1.34397L33.0519 1.63197C32.8959 1.44797 32.6799 1.24797 32.4039 1.03997L32.6879 0.767969ZM32.1559 1.90397H33.0799V3.56397C33.1959 3.45997 33.3199 3.34797 33.4519 3.22397L33.5679 3.66397C33.3039 3.90397 33.0239 4.11597 32.7279 4.30797L32.5679 3.93197C32.6359 3.87197 32.6719 3.79597 32.6719 3.70797V2.30397H32.1559V1.90397ZM33.5879 2.38397H35.5399V2.76397C35.4279 3.10797 35.2439 3.40797 34.9879 3.65997C35.2359 3.81997 35.5359 3.95997 35.8919 4.08397L35.6679 4.44397C35.2759 4.28397 34.9439 4.10797 34.6799 3.91197C34.3679 4.13197 33.9879 4.30797 33.5319 4.43997L33.2999 4.08797C33.7119 3.96797 34.0599 3.81597 34.3479 3.63197C34.0919 3.37597 33.9119 3.09597 33.8159 2.78397H33.5879V2.38397ZM34.2079 2.78397C34.2959 3.01197 34.4399 3.21997 34.6479 3.40397C34.8519 3.21997 35.0079 3.01597 35.1199 2.78397H34.2079ZM33.8599 0.835969H35.2999V1.66397C35.2999 1.75197 35.3479 1.79997 35.4479 1.79997H35.7919V2.17997H35.3359C35.0359 2.17997 34.8879 2.03997 34.8879 1.75997V1.22797H34.2719V1.33597C34.2719 1.75197 34.0559 2.07597 33.6319 2.29997L33.3519 1.97997C33.6879 1.83997 33.8599 1.63997 33.8599 1.37997V0.835969ZM37.4159 1.86797H38.4479V0.707969H38.8799V1.86797H39.8599V2.28397H38.8799V4.42797H38.4479V2.28397H37.4159V1.86797ZM36.7119 0.739969C36.9639 0.935969 37.1799 1.13197 37.3599 1.32397L37.0719 1.61597C36.9199 1.43197 36.6999 1.23597 36.4159 1.02797L36.7119 0.739969ZM36.1559 1.89597H37.1079V3.56797C37.2239 3.46797 37.3479 3.35597 37.4799 3.23197L37.5879 3.65997C37.3279 3.89997 37.0519 4.11597 36.7559 4.30797L36.5959 3.93197C36.6679 3.87197 36.7039 3.79997 36.7039 3.71597V2.29597H36.1559V1.89597ZM40.9999 1.49597C41.0879 1.49597 41.1599 1.52397 41.2239 1.58797C41.2839 1.64797 41.3159 1.72397 41.3159 1.81197C41.3159 1.89997 41.2839 1.97197 41.2239 2.03197C41.1599 2.09197 41.0879 2.12397 40.9999 2.12397C40.9119 2.12397 40.8359 2.09197 40.7759 2.03197C40.7159 1.97197 40.6879 1.89997 40.6879 1.81197C40.6879 1.72397 40.7159 1.64797 40.7759 1.58797C40.8359 1.52397 40.9119 1.49597 40.9999 1.49597ZM40.9999 2.95997C41.0879 2.95997 41.1599 2.98797 41.2239 3.05197C41.2839 3.11197 41.3159 3.18797 41.3159 3.27597C41.3159 3.36397 41.2839 3.43597 41.2239 3.49597C41.1599 3.55597 41.0879 3.58797 40.9999 3.58797C40.9119 3.58797 40.8359 3.55597 40.7759 3.49597C40.7159 3.43597 40.6879 3.36397 40.6879 3.27597C40.6879 3.18797 40.7159 3.11197 40.7759 3.05197C40.8359 2.98797 40.9119 2.95997 40.9999 2.95997ZM44.6879 0.767969C44.9439 0.959969 45.1599 1.15197 45.3359 1.34397L45.0519 1.63197C44.8959 1.44797 44.6799 1.24797 44.4039 1.03997L44.6879 0.767969ZM44.1559 1.90397H45.0799V3.56397C45.1959 3.45997 45.3199 3.34797 45.4519 3.22397L45.5679 3.66397C45.3039 3.90397 45.0239 4.11597 44.7279 4.30797L44.5679 3.93197C44.6359 3.87197 44.6719 3.79597 44.6719 3.70797V2.30397H44.1559V1.90397ZM45.5879 2.38397H47.5399V2.76397C47.4279 3.10797 47.2439 3.40797 46.9879 3.65997C47.2359 3.81997 47.5359 3.95997 47.8919 4.08397L47.6679 4.44397C47.2759 4.28397 46.9439 4.10797 46.6799 3.91197C46.3679 4.13197 45.9879 4.30797 45.5319 4.43997L45.2999 4.08797C45.7119 3.96797 46.0599 3.81597 46.3479 3.63197C46.0919 3.37597 45.9119 3.09597 45.8159 2.78397H45.5879V2.38397ZM46.2079 2.78397C46.2959 3.01197 46.4399 3.21997 46.6479 3.40397C46.8519 3.21997 47.0079 3.01597 47.1199 2.78397H46.2079ZM45.8599 0.835969H47.2999V1.66397C47.2999 1.75197 47.3479 1.79997 47.4479 1.79997H47.7919V2.17997H47.3359C47.0359 2.17997 46.8879 2.03997 46.8879 1.75997V1.22797H46.2719V1.33597C46.2719 1.75197 46.0559 2.07597 45.6319 2.29997L45.3519 1.97997C45.6879 1.83997 45.8599 1.63997 45.8599 1.37997V0.835969ZM49.4159 1.86797H50.4479V0.707969H50.8799V1.86797H51.8599V2.28397H50.8799V4.42797H50.4479V2.28397H49.4159V1.86797ZM48.7119 0.739969C48.9639 0.935969 49.1799 1.13197 49.3599 1.32397L49.0719 1.61597C48.9199 1.43197 48.6999 1.23597 48.4159 1.02797L48.7119 0.739969ZM48.1559 1.89597H49.1079V3.56797C49.2239 3.46797 49.3479 3.35597 49.4799 3.23197L49.5879 3.65997C49.3279 3.89997 49.0519 4.11597 48.7559 4.30797L48.5959 3.93197C48.6679 3.87197 48.7039 3.79997 48.7039 3.71597V2.29597H48.1559V1.89597ZM52.2559 1.03597H53.9919V1.44397H53.4239V2.17597H53.8279V2.39197C54.0759 1.92397 54.2439 1.36397 54.3359 0.707969L54.7479 0.755969C54.7159 0.951969 54.6799 1.13997 54.6359 1.31597H55.7919V1.72397H55.5359C55.5039 2.34397 55.3599 2.87197 55.0999 3.31197C55.3239 3.63197 55.5879 3.88397 55.8919 4.06397L55.6519 4.41997C55.3439 4.23197 55.0759 3.97597 54.8519 3.65597C54.5799 3.97197 54.2359 4.22797 53.8159 4.42397L53.5599 4.07997C54.0119 3.88797 54.3679 3.62797 54.6239 3.29597C54.4759 3.03197 54.3479 2.73597 54.2439 2.40797C54.1639 2.55997 54.0799 2.70397 53.9919 2.83997L53.7839 2.56797H53.4239V3.44397C53.6079 3.38797 53.7879 3.33197 53.9559 3.27597V3.65997C53.4639 3.83597 52.8959 3.99997 52.2519 4.14797L52.1399 3.76397L52.3679 3.71597V1.90797H52.7559V3.62397C52.8479 3.59997 52.9359 3.57997 53.0199 3.55597V1.44397H52.2559V1.03597ZM54.8559 2.91597C55.0239 2.56397 55.1159 2.16797 55.1319 1.72397H54.5199C54.4999 1.78797 54.4799 1.84797 54.4599 1.90397C54.5679 2.28397 54.6999 2.61997 54.8559 2.91597ZM56.2119 1.86797H57.7879V1.64397H58.1679L57.9399 1.49597C58.1119 1.23997 58.2319 0.971969 58.3039 0.683969L58.7039 0.771969C58.6799 0.851969 58.6559 0.931969 58.6319 1.00397H59.7599V1.37197H59.1039C59.1759 1.48397 59.2359 1.59197 59.2839 1.69197L58.9199 1.83197C58.8479 1.67197 58.7679 1.51997 58.6799 1.37197H58.4879C58.4279 1.49997 58.3639 1.61597 58.2919 1.72397L58.2119 1.67197V1.86797H59.7879V2.24397H58.2119V2.44397H59.5239V3.22797C59.5239 3.45997 59.3959 3.57597 59.1439 3.57597H58.8999C59.1879 3.73197 59.5159 3.86397 59.8799 3.97597L59.6599 4.35597C59.0999 4.14797 58.6199 3.86397 58.2119 3.51197V4.43197H57.7879V3.52797C57.3959 3.88797 56.9519 4.17197 56.4599 4.37597L56.2119 4.00397C56.8239 3.79197 57.3479 3.49597 57.7879 3.11197V2.80797H56.9559V3.55997H56.5439V2.44397H57.7879V2.24397H56.2119V1.86797ZM58.2119 3.11997C58.4039 3.27997 58.6199 3.42797 58.8679 3.55997L58.7679 3.20797L59.0279 3.22797C59.0799 3.22797 59.1079 3.19597 59.1079 3.13997V2.80797H58.2119V3.11997ZM56.8039 1.37197C56.7199 1.50797 56.6279 1.63597 56.5279 1.75597L56.1679 1.52797C56.4079 1.26397 56.5799 0.979969 56.6799 0.679969L57.0799 0.767969C57.0519 0.847969 57.0199 0.927969 56.9879 1.00397H57.9159V1.37197H57.3639C57.4359 1.48397 57.4999 1.59197 57.5519 1.69597L57.1759 1.83597C57.1039 1.67597 57.0239 1.51997 56.9359 1.37197H56.8039ZM63.1399 4.39197H62.7439L62.6319 3.99997L63.0599 4.01197C63.1919 4.01197 63.2599 3.93997 63.2599 3.79997V1.31197H61.7639V0.907969H63.6839V3.91197C63.6839 4.23197 63.4999 4.39197 63.1399 4.39197ZM60.3159 1.37597H60.7399V4.42397H60.3159V1.37597ZM61.2079 1.91197H62.7759V3.53997H61.2079V1.91197ZM62.3559 3.13597V2.30797H61.6279V3.13597H62.3559ZM61.0439 0.671969C61.2239 0.887969 61.3839 1.12797 61.5239 1.38397L61.1479 1.57997C60.9999 1.29997 60.8359 1.05597 60.6599 0.843969L61.0439 0.671969ZM66.8559 3.96797C67.2959 3.96797 67.6279 3.95597 67.8439 3.93997L67.7719 4.35597H66.9519C65.9959 4.35597 65.3999 4.30397 65.1599 4.20397C64.9759 4.12397 64.8159 3.99597 64.6719 3.81597C64.6039 4.03197 64.5159 4.23597 64.4079 4.42797L64.1039 4.15997C64.3039 3.80797 64.4119 3.41997 64.4319 2.99197L64.7999 3.03997C64.7919 3.17197 64.7799 3.29997 64.7599 3.41997C64.8399 3.52397 64.9199 3.61197 65.0039 3.67997V2.87197H64.2479V2.49597H65.9679V2.87197H65.3639V3.18397H65.8679V3.55197H65.3639V3.86797C65.5759 3.93197 66.0719 3.96797 66.8559 3.96797ZM64.3959 0.835969H65.8399V2.31597H64.3959V0.835969ZM65.4319 1.97197V1.73197H64.7999V1.97197H65.4319ZM64.7999 1.41997H65.4319V1.17997H64.7999V1.41997ZM65.9919 0.835969H67.7519V1.21197H67.0679C67.0559 1.29197 67.0439 1.36797 67.0279 1.43997H67.6679V3.09197H67.2839V1.79197H66.4599V3.09197H66.0919V1.43997H66.6599C66.6719 1.36397 66.6839 1.28797 66.6919 1.21197H65.9919V0.835969ZM67.2119 3.06397C67.4439 3.23997 67.6439 3.41997 67.8079 3.59997L67.5159 3.89197C67.3799 3.71997 67.1839 3.53197 66.9319 3.32797L67.2119 3.06397ZM66.6799 1.92797H67.0639V2.50797C67.0479 2.88397 66.9719 3.18397 66.8319 3.40797C66.6919 3.61597 66.4679 3.77197 66.1599 3.88397L65.9319 3.53197C66.2199 3.42797 66.4159 3.29997 66.5159 3.14797C66.6119 2.98397 66.6679 2.77197 66.6799 2.50797V1.92797ZM68.5839 0.691969L69.4119 2.55997L68.5839 4.42797L68.2399 4.27197L68.9999 2.55997L68.2399 0.847969L68.5839 0.691969ZM69.2799 0.691969L70.1079 2.55997L69.2799 4.42797L68.9359 4.27197L69.6959 2.55997L68.9199 0.847969L69.2799 0.691969Z" fill="white"/>
<g clip-path="url(#clip0_251_3515)">
<path d="M1.21985 -3.05176e-05L5.19794 0.418083L4.77982 4.39617L0.801735 3.97806L1.21985 -3.05176e-05Z" fill="#003399"/>
<path d="M3.14231 0.841569L3.06273 1.03182L3.15889 1.06179L3.14231 0.841569Z" fill="#FFCC00"/>
<path d="M3.1423 0.841565L3.18059 1.04421L3.0803 1.05353L3.1423 0.841565Z" fill="#FFCC00"/>
<path d="M3.31487 0.99695L3.10934 0.980055L3.11055 1.08077L3.31487 0.99695Z" fill="#FFCC00"/>
<path d="M3.31489 0.99695L3.134 1.09598L3.09414 1.00348L3.31489 0.99695Z" fill="#FFCC00"/>
<path d="M3.22053 1.20909L3.17309 1.0084L3.07768 1.04067L3.22053 1.20909Z" fill="#FFCC00"/>
<path d="M3.22057 1.2091L3.07049 1.06766L3.14614 1.00117L3.22057 1.2091Z" fill="#FFCC00"/>
<path d="M2.94123 0.957672L3.14579 0.983879L3.12366 1.08214L2.94123 0.957672Z" fill="#FFCC00"/>
<path d="M2.94128 0.957676L3.09763 1.09216L3.15585 1.00996L2.94128 0.957676Z" fill="#FFCC00"/>
<path d="M2.98947 1.1848L3.07761 0.998357L3.16422 1.04976L2.98947 1.1848Z" fill="#FFCC00"/>
<path d="M2.98947 1.1848L3.16568 1.07766L3.1055 0.996894L2.98947 1.1848Z" fill="#FFCC00"/>
<path d="M2.89457 3.19895L2.81498 3.38921L2.91114 3.41918L2.89457 3.19895Z" fill="#FFCC00"/>
<path d="M2.89456 3.19895L2.93284 3.4016L2.83255 3.41092L2.89456 3.19895Z" fill="#FFCC00"/>
<path d="M3.06713 3.35434L2.8616 3.33744L2.86281 3.43816L3.06713 3.35434Z" fill="#FFCC00"/>
<path d="M3.06715 3.35434L2.88625 3.45337L2.8464 3.36087L3.06715 3.35434Z" fill="#FFCC00"/>
<path d="M2.97279 3.56648L2.92534 3.36579L2.82993 3.39806L2.97279 3.56648Z" fill="#FFCC00"/>
<path d="M2.97283 3.56648L2.82274 3.42505L2.8984 3.35856L2.97283 3.56648Z" fill="#FFCC00"/>
<path d="M2.69349 3.31506L2.89804 3.34127L2.87592 3.43953L2.69349 3.31506Z" fill="#FFCC00"/>
<path d="M2.69354 3.31506L2.84989 3.44954L2.9081 3.36735L2.69354 3.31506Z" fill="#FFCC00"/>
<path d="M2.74173 3.54219L2.82987 3.35574L2.91648 3.40715L2.74173 3.54219Z" fill="#FFCC00"/>
<path d="M2.74173 3.54219L2.91794 3.43505L2.85776 3.35428L2.74173 3.54219Z" fill="#FFCC00"/>
<path d="M1.83976 1.89637L1.76018 2.08663L1.85633 2.1166L1.83976 1.89637Z" fill="#FFCC00"/>
<path d="M1.83969 1.89637L1.87797 2.09901L1.77768 2.10833L1.83969 1.89637Z" fill="#FFCC00"/>
<path d="M2.01232 2.05176L1.80679 2.03486L1.808 2.13558L2.01232 2.05176Z" fill="#FFCC00"/>
<path d="M2.01228 2.05175L1.83138 2.15079L1.79153 2.05829L2.01228 2.05175Z" fill="#FFCC00"/>
<path d="M1.91792 2.2639L1.87047 2.0632L1.77506 2.09548L1.91792 2.2639Z" fill="#FFCC00"/>
<path d="M1.9179 2.2639L1.76781 2.12246L1.84347 2.05597L1.9179 2.2639Z" fill="#FFCC00"/>
<path d="M1.63862 2.01248L1.84317 2.03869L1.82105 2.13695L1.63862 2.01248Z" fill="#FFCC00"/>
<path d="M1.63867 2.01248L1.79502 2.14696L1.85323 2.06476L1.63867 2.01248Z" fill="#FFCC00"/>
<path d="M1.6868 2.23961L1.77494 2.05316L1.86155 2.10457L1.6868 2.23961Z" fill="#FFCC00"/>
<path d="M1.6868 2.23961L1.86301 2.13246L1.80283 2.0517L1.6868 2.23961Z" fill="#FFCC00"/>
<path d="M2.39706 1.29119L2.57328 1.18405L2.5131 1.10329L2.39706 1.29119Z" fill="#FFCC00"/>
<path d="M2.39707 1.29119L2.4852 1.10475L2.57182 1.15615L2.39707 1.29119Z" fill="#FFCC00"/>
<path d="M2.34881 1.06406L2.50516 1.19854L2.56338 1.11635L2.34881 1.06406Z" fill="#FFCC00"/>
<path d="M2.34876 1.06406L2.55332 1.09027L2.53119 1.18853L2.34876 1.06406Z" fill="#FFCC00"/>
<path d="M2.5499 0.947957L2.47032 1.13821L2.56648 1.16818L2.5499 0.947957Z" fill="#FFCC00"/>
<path d="M2.54995 0.947961L2.58824 1.1506L2.48795 1.15992L2.54995 0.947961Z" fill="#FFCC00"/>
<path d="M2.62798 1.31547L2.47789 1.17404L2.55355 1.10755L2.62798 1.31547Z" fill="#FFCC00"/>
<path d="M2.628 1.31547L2.58056 1.11478L2.48515 1.14705L2.628 1.31547Z" fill="#FFCC00"/>
<path d="M2.72248 1.10334L2.54159 1.20238L2.50173 1.10988L2.72248 1.10334Z" fill="#FFCC00"/>
<path d="M2.7224 1.10333L2.51687 1.08644L2.51808 1.18715L2.7224 1.10333Z" fill="#FFCC00"/>
<path d="M2.14509 1.70653L2.09765 1.50584L2.00224 1.53811L2.14509 1.70653Z" fill="#FFCC00"/>
<path d="M2.14507 1.70653L1.99498 1.56509L2.07064 1.4986L2.14507 1.70653Z" fill="#FFCC00"/>
<path d="M1.91409 1.68226L2.0903 1.57512L2.03012 1.49435L1.91409 1.68226Z" fill="#FFCC00"/>
<path d="M1.91403 1.68226L2.00217 1.49581L2.08878 1.54722L1.91403 1.68226Z" fill="#FFCC00"/>
<path d="M1.86578 1.45512L2.02213 1.5896L2.08035 1.50741L1.86578 1.45512Z" fill="#FFCC00"/>
<path d="M1.86573 1.45512L2.07028 1.48132L2.04816 1.57958L1.86573 1.45512Z" fill="#FFCC00"/>
<path d="M2.23951 1.49439L2.05862 1.59342L2.01876 1.50092L2.23951 1.49439Z" fill="#FFCC00"/>
<path d="M2.23955 1.49439L2.03402 1.4775L2.03523 1.57821L2.23955 1.49439Z" fill="#FFCC00"/>
<path d="M2.06698 1.33901L2.10527 1.54166L2.00498 1.55098L2.06698 1.33901Z" fill="#FFCC00"/>
<path d="M2.06693 1.33901L1.98735 1.52927L2.08351 1.55923L2.06693 1.33901Z" fill="#FFCC00"/>
<path d="M2.11553 2.67594L1.91 2.65905L1.91121 2.75976L2.11553 2.67594Z" fill="#FFCC00"/>
<path d="M2.11549 2.67594L1.93459 2.77497L1.89474 2.68247L2.11549 2.67594Z" fill="#FFCC00"/>
<path d="M2.02107 2.88806L1.97362 2.68737L1.87821 2.71964L2.02107 2.88806Z" fill="#FFCC00"/>
<path d="M2.02099 2.88806L1.8709 2.74662L1.94656 2.68013L2.02099 2.88806Z" fill="#FFCC00"/>
<path d="M1.79013 2.86379L1.96634 2.75665L1.90616 2.67589L1.79013 2.86379Z" fill="#FFCC00"/>
<path d="M1.79013 2.8638L1.87827 2.67735L1.96488 2.72876L1.79013 2.8638Z" fill="#FFCC00"/>
<path d="M1.94302 2.52056L1.98131 2.72321L1.88102 2.73253L1.94302 2.52056Z" fill="#FFCC00"/>
<path d="M1.94309 2.52057L1.86351 2.71082L1.95967 2.74079L1.94309 2.52057Z" fill="#FFCC00"/>
<path d="M1.74195 2.63667L1.94651 2.66288L1.92438 2.76114L1.74195 2.63667Z" fill="#FFCC00"/>
<path d="M1.742 2.63667L1.89835 2.77115L1.95657 2.68896L1.742 2.63667Z" fill="#FFCC00"/>
<path d="M2.50036 3.11616L2.29482 3.09927L2.29604 3.19998L2.50036 3.11616Z" fill="#FFCC00"/>
<path d="M2.50031 3.11616L2.31942 3.21519L2.27956 3.12269L2.50031 3.11616Z" fill="#FFCC00"/>
<path d="M2.40589 3.32829L2.35845 3.1276L2.26304 3.15987L2.40589 3.32829Z" fill="#FFCC00"/>
<path d="M2.40581 3.32828L2.25573 3.18685L2.33138 3.12036L2.40581 3.32828Z" fill="#FFCC00"/>
<path d="M2.17496 3.30402L2.35117 3.19688L2.29099 3.11611L2.17496 3.30402Z" fill="#FFCC00"/>
<path d="M2.17496 3.30402L2.26309 3.11758L2.34971 3.16898L2.17496 3.30402Z" fill="#FFCC00"/>
<path d="M2.32785 2.96078L2.36613 3.16343L2.26584 3.17275L2.32785 2.96078Z" fill="#FFCC00"/>
<path d="M2.32792 2.96079L2.24833 3.15104L2.34449 3.18101L2.32792 2.96079Z" fill="#FFCC00"/>
<path d="M2.12678 3.07689L2.33133 3.1031L2.30921 3.20136L2.12678 3.07689Z" fill="#FFCC00"/>
<path d="M2.12683 3.07689L2.28318 3.21137L2.34139 3.12918L2.12683 3.07689Z" fill="#FFCC00"/>
<path d="M4.19717 2.14415L4.23546 2.34679L4.13517 2.35611L4.19717 2.14415Z" fill="#FFCC00"/>
<path d="M4.19712 2.14415L4.11754 2.3344L4.2137 2.36437L4.19712 2.14415Z" fill="#FFCC00"/>
<path d="M3.99604 2.26026L4.2006 2.28647L4.17847 2.38473L3.99604 2.26026Z" fill="#FFCC00"/>
<path d="M3.99609 2.26026L4.15244 2.39474L4.21066 2.31255L3.99609 2.26026Z" fill="#FFCC00"/>
<path d="M4.04428 2.48739L4.13242 2.30094L4.21903 2.35235L4.04428 2.48739Z" fill="#FFCC00"/>
<path d="M4.04434 2.48739L4.22055 2.38025L4.16037 2.29948L4.04434 2.48739Z" fill="#FFCC00"/>
<path d="M4.36968 2.29952L4.16415 2.28263L4.16536 2.38334L4.36968 2.29952Z" fill="#FFCC00"/>
<path d="M4.3697 2.29952L4.1888 2.39856L4.14895 2.30606L4.3697 2.29952Z" fill="#FFCC00"/>
<path d="M4.27528 2.51167L4.22783 2.31097L4.13242 2.34325L4.27528 2.51167Z" fill="#FFCC00"/>
<path d="M4.2752 2.51166L4.12511 2.37022L4.20077 2.30373L4.2752 2.51166Z" fill="#FFCC00"/>
<path d="M3.77788 1.43633L3.6278 1.29489L3.70345 1.2284L3.77788 1.43633Z" fill="#FFCC00"/>
<path d="M3.7779 1.43633L3.73046 1.23564L3.63505 1.26791L3.7779 1.43633Z" fill="#FFCC00"/>
<path d="M3.87226 1.22419L3.69137 1.32322L3.65151 1.23072L3.87226 1.22419Z" fill="#FFCC00"/>
<path d="M3.87231 1.22419L3.66677 1.2073L3.66798 1.30801L3.87231 1.22419Z" fill="#FFCC00"/>
<path d="M3.69967 1.06881L3.73796 1.27146L3.63767 1.28078L3.69967 1.06881Z" fill="#FFCC00"/>
<path d="M3.69968 1.06881L3.6201 1.25907L3.71626 1.28904L3.69968 1.06881Z" fill="#FFCC00"/>
<path d="M3.5469 1.41206L3.72312 1.30492L3.66294 1.22415L3.5469 1.41206Z" fill="#FFCC00"/>
<path d="M3.54685 1.41205L3.63498 1.22561L3.7216 1.27701L3.54685 1.41205Z" fill="#FFCC00"/>
<path d="M3.49859 1.18492L3.65494 1.3194L3.71316 1.23721L3.49859 1.18492Z" fill="#FFCC00"/>
<path d="M3.49854 1.18492L3.7031 1.21112L3.68097 1.30938L3.49854 1.18492Z" fill="#FFCC00"/>
<path d="M3.93784 1.89497L4.02597 1.70852L4.11259 1.75993L3.93784 1.89497Z" fill="#FFCC00"/>
<path d="M3.9379 1.89497L4.11411 1.78783L4.05393 1.70707L3.9379 1.89497Z" fill="#FFCC00"/>
<path d="M4.16881 1.91924L4.01873 1.77781L4.09438 1.71132L4.16881 1.91924Z" fill="#FFCC00"/>
<path d="M4.16877 1.91924L4.12133 1.71855L4.02592 1.75082L4.16877 1.91924Z" fill="#FFCC00"/>
<path d="M4.26331 1.70711L4.08242 1.80615L4.04256 1.71365L4.26331 1.70711Z" fill="#FFCC00"/>
<path d="M4.26336 1.70712L4.05782 1.69022L4.05904 1.79094L4.26336 1.70712Z" fill="#FFCC00"/>
<path d="M3.88964 1.66783L4.04599 1.80231L4.10421 1.72012L3.88964 1.66783Z" fill="#FFCC00"/>
<path d="M3.88965 1.66783L4.09421 1.69404L4.07208 1.7923L3.88965 1.66783Z" fill="#FFCC00"/>
<path d="M4.09067 1.55172L4.01109 1.74198L4.10725 1.77195L4.09067 1.55172Z" fill="#FFCC00"/>
<path d="M4.0906 1.55172L4.12889 1.75436L4.0286 1.76368L4.0906 1.55172Z" fill="#FFCC00"/>
<path d="M3.76533 2.84934L3.96988 2.87555L3.94776 2.97381L3.76533 2.84934Z" fill="#FFCC00"/>
<path d="M3.76537 2.84934L3.92173 2.98382L3.97994 2.90163L3.76537 2.84934Z" fill="#FFCC00"/>
<path d="M3.81351 3.07646L3.90164 2.89002L3.98826 2.94142L3.81351 3.07646Z" fill="#FFCC00"/>
<path d="M3.81351 3.07646L3.98972 2.96932L3.92954 2.88855L3.81351 3.07646Z" fill="#FFCC00"/>
<path d="M4.04448 3.10074L3.8944 2.9593L3.97006 2.89281L4.04448 3.10074Z" fill="#FFCC00"/>
<path d="M4.04451 3.10074L3.99706 2.90004L3.90165 2.93232L4.04451 3.10074Z" fill="#FFCC00"/>
<path d="M3.96641 2.73322L3.88682 2.92348L3.98298 2.95345L3.96641 2.73322Z" fill="#FFCC00"/>
<path d="M3.96639 2.73322L4.00468 2.93586L3.90439 2.94518L3.96639 2.73322Z" fill="#FFCC00"/>
<path d="M4.13891 2.8886L3.93337 2.87171L3.93459 2.97242L4.13891 2.8886Z" fill="#FFCC00"/>
<path d="M4.13892 2.8886L3.95803 2.98764L3.91817 2.89514L4.13892 2.8886Z" fill="#FFCC00"/>
<path d="M3.29737 3.19993L3.50193 3.22614L3.4798 3.3244L3.29737 3.19993Z" fill="#FFCC00"/>
<path d="M3.29742 3.19994L3.45377 3.33442L3.51199 3.25223L3.29742 3.19994Z" fill="#FFCC00"/>
<path d="M3.34555 3.42706L3.43369 3.24062L3.5203 3.29202L3.34555 3.42706Z" fill="#FFCC00"/>
<path d="M3.34555 3.42706L3.52176 3.31992L3.46158 3.23915L3.34555 3.42706Z" fill="#FFCC00"/>
<path d="M3.57653 3.45134L3.42644 3.3099L3.5021 3.24341L3.57653 3.45134Z" fill="#FFCC00"/>
<path d="M3.57655 3.45134L3.5291 3.25064L3.43369 3.28292L3.57655 3.45134Z" fill="#FFCC00"/>
<path d="M3.49845 3.08382L3.41887 3.27408L3.51503 3.30404L3.49845 3.08382Z" fill="#FFCC00"/>
<path d="M3.49844 3.08382L3.53673 3.28646L3.43644 3.29578L3.49844 3.08382Z" fill="#FFCC00"/>
<path d="M3.67095 3.2392L3.46542 3.2223L3.46663 3.32302L3.67095 3.2392Z" fill="#FFCC00"/>
<path d="M3.67097 3.2392L3.49007 3.33823L3.45022 3.24573L3.67097 3.2392Z" fill="#FFCC00"/>
</g>
<defs>
<clipPath id="clip0_251_3515">
<rect x="1.21985" y="-3.05176e-05" width="4" height="4" rx="2" transform="rotate(6 1.21985 -3.05176e-05)" fill="white"/>
</clipPath>
</defs>
</svg>
