<svg width="63" height="6" viewBox="0 0 63 6" fill="none" xmlns="http://www.w3.org/2000/svg">
<path d="M5.72 0.691969L6.08 0.847969L5.304 2.55997L6.064 4.27197L5.72 4.42797L4.892 2.55997L5.72 0.691969ZM6.416 0.691969L6.76 0.847969L6 2.55997L6.76 4.27197L6.416 4.42797L5.588 2.55997L6.416 0.691969ZM9.82 3.34797C9.704 3.77997 9.452 4.14397 9.06 4.43997L8.808 4.13597H7.248V0.951969H8.908V1.33597H7.636V3.30797C7.836 3.09197 8.004 2.83997 8.14 2.55197C7.996 2.31197 7.84 2.07197 7.668 1.82397L7.948 1.55597C8.076 1.73997 8.196 1.92797 8.316 2.11197C8.384 1.90797 8.44 1.69197 8.484 1.46797L8.864 1.52797C8.788 1.89597 8.688 2.22797 8.564 2.52797C8.716 2.79197 8.852 3.05197 8.976 3.30797L8.692 3.59597C8.596 3.38397 8.488 3.16797 8.364 2.94397C8.216 3.20797 8.044 3.44397 7.852 3.64397L7.636 3.37597V3.74397H8.888V4.04797C9.176 3.79997 9.368 3.50797 9.46 3.17197C9.54 2.85197 9.584 2.44397 9.588 1.93997H9.976C9.976 2.22797 9.96 2.49597 9.936 2.73597C10.124 3.29197 10.44 3.73997 10.888 4.07597L10.608 4.40797C10.276 4.11197 10.012 3.75597 9.82 3.34797ZM9.28 0.739969L9.68 0.803969C9.656 0.979969 9.632 1.14397 9.6 1.29597H10.748V1.55997C10.688 1.87997 10.608 2.19997 10.508 2.51997L10.108 2.40397C10.192 2.19597 10.264 1.95597 10.324 1.68397H9.504C9.408 2.01597 9.284 2.27997 9.132 2.47197L8.796 2.23197C9.044 1.87597 9.208 1.37997 9.28 0.739969ZM12.248 1.76397L12.564 1.84797C12.524 2.22797 12.444 2.59197 12.332 2.94397L11.996 2.82797C12.116 2.49197 12.2 2.13997 12.248 1.76397ZM11.508 0.771969C11.772 0.971969 11.996 1.17197 12.176 1.37197L11.888 1.65997C11.732 1.46797 11.512 1.26397 11.224 1.04397L11.508 0.771969ZM11.42 1.71997C11.668 1.92797 11.88 2.13597 12.056 2.34397L11.764 2.63597C11.62 2.43597 11.408 2.21997 11.136 1.99197L11.42 1.71997ZM11.684 2.94797L12.052 3.09197C11.912 3.55997 11.756 3.99997 11.588 4.40797L11.196 4.23197C11.38 3.81597 11.544 3.38797 11.684 2.94797ZM13.48 0.851969H13.848V4.28797H13.48V0.851969ZM14.328 0.727969H14.728V4.42397H14.328V0.727969ZM12.632 0.759969H13.032V1.97997C13.02 3.09597 12.784 3.91197 12.328 4.43197L12.008 4.14797C12.416 3.69997 12.624 2.97597 12.632 1.97997V0.759969ZM14.092 1.78797C14.176 2.09597 14.248 2.42397 14.308 2.77597L14.064 2.88797C14.004 2.50397 13.94 2.15997 13.868 1.85997L14.092 1.78797ZM13.276 1.78797C13.348 2.09597 13.408 2.42797 13.46 2.77997L13.216 2.89197C13.168 2.50397 13.112 2.15997 13.052 1.85997L13.276 1.78797ZM17.444 3.16397H16.72V2.75997H18.6V3.16397H17.868V3.87997H18.78V4.28797H16.54V3.87997H17.444V3.16397ZM17.8 2.05197C17.52 2.28397 17.168 2.48397 16.748 2.64397L16.48 2.29997C17.184 2.04797 17.672 1.69997 17.952 1.25197H16.676V0.851969H18.456V1.17997C18.364 1.39997 18.236 1.60397 18.076 1.78797C18.376 1.97997 18.636 2.16797 18.852 2.35597L18.544 2.66397C18.36 2.46797 18.112 2.26397 17.8 2.05197ZM16.52 3.44797V3.83597C16.136 4.03597 15.704 4.19997 15.22 4.31997L15.164 3.91597C15.68 3.79997 16.132 3.64397 16.52 3.44797ZM15.804 0.691969L16.204 0.847969C16.02 1.31597 15.832 1.69997 15.64 1.99597C15.776 1.97997 15.908 1.96397 16.036 1.94397C16.104 1.81197 16.176 1.67197 16.252 1.51997L16.636 1.66397C16.316 2.26397 16.044 2.70397 15.82 2.98797C16.052 2.92797 16.288 2.85197 16.528 2.75997V3.13597C16.1 3.29597 15.696 3.40397 15.312 3.45997L15.204 3.08397C15.276 3.05197 15.34 3.01197 15.392 2.96397C15.508 2.84397 15.656 2.62797 15.832 2.31997C15.648 2.34397 15.456 2.37197 15.256 2.39997L15.156 2.01997C15.22 1.99197 15.276 1.93997 15.328 1.86797C15.512 1.50797 15.668 1.11597 15.804 0.691969ZM21.116 1.99597C20.992 2.12797 20.86 2.24397 20.724 2.34797L20.504 2.01197C20.944 1.67997 21.28 1.24797 21.516 0.715969H21.884C22.08 1.20397 22.42 1.63197 22.9 1.99997L22.672 2.34797C22.52 2.22797 22.384 2.10797 22.264 1.97997V2.21197H21.116V1.99597ZM22.14 1.83597C21.956 1.61597 21.812 1.37997 21.7 1.12397C21.568 1.39197 21.42 1.62797 21.256 1.83597H22.14ZM20.62 3.89197H21.904C22.04 3.47597 22.164 2.97597 22.272 2.38797L22.672 2.49197C22.568 3.01197 22.444 3.47997 22.296 3.89197H22.844V4.29197H20.62V3.89197ZM21.084 2.50397C21.204 2.83197 21.312 3.20797 21.408 3.63197L21.052 3.71597C20.964 3.33597 20.856 2.97197 20.728 2.62797L21.084 2.50397ZM21.7 2.37997C21.796 2.69197 21.884 3.05597 21.96 3.46397L21.604 3.54797C21.536 3.18397 21.448 2.83197 21.344 2.49597L21.7 2.37997ZM20.132 1.23597H19.208V0.859969H20.544L20.356 2.50797H20.58C20.58 3.45597 20.536 4.00397 20.452 4.14797C20.368 4.29197 20.188 4.36797 19.916 4.36797C19.828 4.36797 19.74 4.35997 19.648 4.35197L19.536 3.98397C19.676 4.00397 19.772 4.01597 19.828 4.01597C20 4.01597 20.104 3.95997 20.14 3.85197C20.176 3.73997 20.196 3.41597 20.196 2.87597H19.192L19.38 1.44797L19.76 1.46797L19.608 2.50797H19.964L20.132 1.23597ZM20.044 3.11997V3.49197C19.784 3.58797 19.488 3.66797 19.16 3.72797L19.108 3.33597C19.464 3.27997 19.776 3.20797 20.044 3.11997ZM24.38 0.783969L24.74 1.00397C24.556 1.33197 24.368 1.60397 24.18 1.81197C23.996 2.01997 23.732 2.24797 23.38 2.49997L23.152 2.12797C23.4 1.99197 23.64 1.79997 23.864 1.54797C24.044 1.33997 24.216 1.08797 24.38 0.783969ZM24.488 2.66397H23.768V2.25997H26.2C26.184 2.77997 26.16 3.19597 26.12 3.51597C26.08 3.83597 26.016 4.05597 25.92 4.18397C25.828 4.30397 25.68 4.37197 25.476 4.38397H24.708L24.596 3.97197C24.832 3.97997 25.056 3.98797 25.264 3.98797C25.46 3.98797 25.588 3.90397 25.652 3.74397C25.716 3.57597 25.76 3.21597 25.776 2.66397H24.912C24.82 3.07197 24.696 3.39597 24.536 3.63997C24.328 3.93197 24.02 4.19597 23.612 4.42797L23.34 4.07997C23.7 3.88797 23.972 3.67597 24.156 3.44397C24.296 3.24397 24.408 2.98397 24.488 2.66397ZM25.632 0.735969C25.848 1.33197 26.252 1.80397 26.844 2.14797L26.56 2.47997C25.944 2.08397 25.512 1.57197 25.268 0.939969L25.632 0.735969ZM27.748 1.53997H30.256V2.43197H27.748V1.53997ZM29.852 2.07997V1.89197H28.152V2.07997H29.852ZM29.028 0.703969C29.08 0.791969 29.132 0.891969 29.18 0.999969H30.752V1.39197H27.248V0.999969H28.7C28.652 0.923969 28.6 0.851969 28.544 0.783969L29.028 0.703969ZM27.16 3.33597H28.864V3.23597L29.568 2.95597H27.548V2.58797H30.408V2.87997C30.088 3.01597 29.712 3.16797 29.288 3.33597H30.84V3.71197H29.276V3.97997C29.276 4.26797 29.132 4.41597 28.848 4.41597H28.296L28.184 4.04397C28.396 4.05997 28.564 4.06797 28.684 4.06797C28.804 4.06797 28.864 3.99597 28.864 3.85997V3.71197H27.16V3.33597ZM32 1.49597C32.088 1.49597 32.16 1.52397 32.224 1.58797C32.284 1.64797 32.316 1.72397 32.316 1.81197C32.316 1.89997 32.284 1.97197 32.224 2.03197C32.16 2.09197 32.088 2.12397 32 2.12397C31.912 2.12397 31.836 2.09197 31.776 2.03197C31.716 1.97197 31.688 1.89997 31.688 1.81197C31.688 1.72397 31.716 1.64797 31.776 1.58797C31.836 1.52397 31.912 1.49597 32 1.49597ZM32 2.95997C32.088 2.95997 32.16 2.98797 32.224 3.05197C32.284 3.11197 32.316 3.18797 32.316 3.27597C32.316 3.36397 32.284 3.43597 32.224 3.49597C32.16 3.55597 32.088 3.58797 32 3.58797C31.912 3.58797 31.836 3.55597 31.776 3.49597C31.716 3.43597 31.688 3.36397 31.688 3.27597C31.688 3.18797 31.716 3.11197 31.776 3.05197C31.836 2.98797 31.912 2.95997 32 2.95997ZM35.256 1.03597H36.992V1.44397H36.424V2.17597H36.828V2.39197C37.076 1.92397 37.244 1.36397 37.336 0.707969L37.748 0.755969C37.716 0.951969 37.68 1.13997 37.636 1.31597H38.792V1.72397H38.536C38.504 2.34397 38.36 2.87197 38.1 3.31197C38.324 3.63197 38.588 3.88397 38.892 4.06397L38.652 4.41997C38.344 4.23197 38.076 3.97597 37.852 3.65597C37.58 3.97197 37.236 4.22797 36.816 4.42397L36.56 4.07997C37.012 3.88797 37.368 3.62797 37.624 3.29597C37.476 3.03197 37.348 2.73597 37.244 2.40797C37.164 2.55997 37.08 2.70397 36.992 2.83997L36.784 2.56797H36.424V3.44397C36.608 3.38797 36.788 3.33197 36.956 3.27597V3.65997C36.464 3.83597 35.896 3.99997 35.252 4.14797L35.14 3.76397L35.368 3.71597V1.90797H35.756V3.62397C35.848 3.59997 35.936 3.57997 36.02 3.55597V1.44397H35.256V1.03597ZM37.856 2.91597C38.024 2.56397 38.116 2.16797 38.132 1.72397H37.52C37.5 1.78797 37.48 1.84797 37.46 1.90397C37.568 2.28397 37.7 2.61997 37.856 2.91597ZM39.212 1.86797H40.788V1.64397H41.168L40.94 1.49597C41.112 1.23997 41.232 0.971969 41.304 0.683969L41.704 0.771969C41.68 0.851969 41.656 0.931969 41.632 1.00397H42.76V1.37197H42.104C42.176 1.48397 42.236 1.59197 42.284 1.69197L41.92 1.83197C41.848 1.67197 41.768 1.51997 41.68 1.37197H41.488C41.428 1.49997 41.364 1.61597 41.292 1.72397L41.212 1.67197V1.86797H42.788V2.24397H41.212V2.44397H42.524V3.22797C42.524 3.45997 42.396 3.57597 42.144 3.57597H41.9C42.188 3.73197 42.516 3.86397 42.88 3.97597L42.66 4.35597C42.1 4.14797 41.62 3.86397 41.212 3.51197V4.43197H40.788V3.52797C40.396 3.88797 39.952 4.17197 39.46 4.37597L39.212 4.00397C39.824 3.79197 40.348 3.49597 40.788 3.11197V2.80797H39.956V3.55997H39.544V2.44397H40.788V2.24397H39.212V1.86797ZM41.212 3.11997C41.404 3.27997 41.62 3.42797 41.868 3.55997L41.768 3.20797L42.028 3.22797C42.08 3.22797 42.108 3.19597 42.108 3.13997V2.80797H41.212V3.11997ZM39.804 1.37197C39.72 1.50797 39.628 1.63597 39.528 1.75597L39.168 1.52797C39.408 1.26397 39.58 0.979969 39.68 0.679969L40.08 0.767969C40.052 0.847969 40.02 0.927969 39.988 1.00397H40.916V1.37197H40.364C40.436 1.48397 40.5 1.59197 40.552 1.69597L40.176 1.83597C40.104 1.67597 40.024 1.51997 39.936 1.37197H39.804ZM44.636 2.34797H43.94V3.81597C43.94 3.91997 43.992 3.97197 44.104 3.97197H44.768C44.884 3.97197 44.956 3.93997 44.98 3.87997C45.008 3.81597 45.032 3.68797 45.048 3.48797L45.44 3.62397C45.408 3.97597 45.356 4.18797 45.288 4.25997C45.22 4.32397 45.088 4.35597 44.896 4.35597H43.916C43.652 4.35597 43.52 4.22797 43.52 3.97197V2.12397L43.356 2.28797L43.112 1.95197C43.488 1.60797 43.832 1.20397 44.148 0.731969H44.452C44.808 1.09997 45.14 1.48397 45.452 1.87597L45.18 2.15997C44.84 1.70397 44.56 1.35597 44.336 1.12397C44.136 1.41997 43.912 1.70797 43.656 1.97997H45.044V3.09597C45.04 3.31997 44.916 3.43997 44.672 3.45597C44.512 3.45597 44.364 3.44797 44.228 3.43997L44.124 3.05197C44.272 3.06797 44.4 3.07597 44.504 3.07597C44.592 3.07597 44.636 3.03197 44.636 2.95197V2.34797ZM45.612 1.06797H46.02V3.52797H45.612V1.06797ZM46.308 4.37997H45.712L45.616 3.98397C45.808 3.99997 45.992 4.00797 46.164 4.00797C46.26 4.00797 46.308 3.94797 46.308 3.83597V0.727969H46.724V3.93997C46.724 4.23197 46.584 4.37997 46.308 4.37997ZM50.568 0.739969L50.772 1.11597C50.432 1.22797 50.056 1.29597 49.644 1.31997V1.93997H50.856V2.33597H50.488V4.41997H50.076V2.33597H49.644V2.71597C49.624 3.42397 49.468 3.98797 49.176 4.41197L48.876 4.09597C49.1 3.76397 49.224 3.30397 49.24 2.71597V0.979969C49.736 0.971969 50.176 0.891969 50.568 0.739969ZM47.228 1.01997H47.92C47.872 0.919969 47.82 0.827969 47.764 0.743969L48.196 0.671969C48.244 0.775969 48.288 0.891969 48.336 1.01997H49.064V1.40397H47.228V1.01997ZM47.188 1.92797H47.596C47.548 1.79597 47.492 1.67197 47.428 1.55997L47.796 1.41997C47.856 1.56397 47.912 1.73197 47.968 1.92797H48.32C48.38 1.76397 48.432 1.59597 48.476 1.41997L48.848 1.55197C48.8 1.68797 48.752 1.81197 48.7 1.92797H49.088V2.30797H48.364V2.63197H49.02V3.01197H48.364V4.05997C48.364 4.30797 48.224 4.43197 47.948 4.43197H47.74L47.648 4.04797C47.708 4.06397 47.764 4.07597 47.812 4.07597C47.9 4.07597 47.948 4.03597 47.948 3.95997V3.01197H47.252V2.63197H47.948V2.30797H47.188V1.92797ZM47.476 3.16797L47.852 3.24797C47.76 3.65597 47.632 4.00797 47.464 4.30797L47.116 4.08797C47.288 3.79997 47.408 3.49197 47.476 3.16797ZM48.772 3.14397C48.868 3.39197 48.948 3.61997 49.004 3.82797L48.652 3.96397C48.592 3.71597 48.516 3.47197 48.428 3.23597L48.772 3.14397ZM51.688 0.767969C51.944 0.959969 52.16 1.15197 52.336 1.34397L52.052 1.63197C51.896 1.44797 51.68 1.24797 51.404 1.03997L51.688 0.767969ZM51.156 1.90397H52.08V3.56397C52.196 3.45997 52.32 3.34797 52.452 3.22397L52.568 3.66397C52.304 3.90397 52.024 4.11597 51.728 4.30797L51.568 3.93197C51.636 3.87197 51.672 3.79597 51.672 3.70797V2.30397H51.156V1.90397ZM52.588 2.38397H54.54V2.76397C54.428 3.10797 54.244 3.40797 53.988 3.65997C54.236 3.81997 54.536 3.95997 54.892 4.08397L54.668 4.44397C54.276 4.28397 53.944 4.10797 53.68 3.91197C53.368 4.13197 52.988 4.30797 52.532 4.43997L52.3 4.08797C52.712 3.96797 53.06 3.81597 53.348 3.63197C53.092 3.37597 52.912 3.09597 52.816 2.78397H52.588V2.38397ZM53.208 2.78397C53.296 3.01197 53.44 3.21997 53.648 3.40397C53.852 3.21997 54.008 3.01597 54.12 2.78397H53.208ZM52.86 0.835969H54.3V1.66397C54.3 1.75197 54.348 1.79997 54.448 1.79997H54.792V2.17997H54.336C54.036 2.17997 53.888 2.03997 53.888 1.75997V1.22797H53.272V1.33597C53.272 1.75197 53.056 2.07597 52.632 2.29997L52.352 1.97997C52.688 1.83997 52.86 1.63997 52.86 1.37997V0.835969ZM56.416 1.86797H57.448V0.707969H57.88V1.86797H58.86V2.28397H57.88V4.42797H57.448V2.28397H56.416V1.86797ZM55.712 0.739969C55.964 0.935969 56.18 1.13197 56.36 1.32397L56.072 1.61597C55.92 1.43197 55.7 1.23597 55.416 1.02797L55.712 0.739969ZM55.156 1.89597H56.108V3.56797C56.224 3.46797 56.348 3.35597 56.48 3.23197L56.588 3.65997C56.328 3.89997 56.052 4.11597 55.756 4.30797L55.596 3.93197C55.668 3.87197 55.704 3.79997 55.704 3.71597V2.29597H55.156V1.89597ZM59.584 0.691969L60.412 2.55997L59.584 4.42797L59.24 4.27197L60 2.55997L59.24 0.847969L59.584 0.691969ZM60.28 0.691969L61.108 2.55997L60.28 4.42797L59.936 4.27197L60.696 2.55997L59.92 0.847969L60.28 0.691969Z" fill="white"/>
<rect y="0.59997" width="4" height="4" rx="2" fill="black"/>
<path fill-rule="evenodd" clip-rule="evenodd" d="M0.871187 1.58938C0.98239 1.5842 1.09012 1.60074 1.19439 1.63898C1.23209 1.65322 1.26462 1.67509 1.29199 1.70458C1.31251 1.73779 1.31038 1.76979 1.28559 1.80058C1.25011 1.84369 1.20478 1.86023 1.14959 1.85018C1.10312 1.83397 1.05618 1.81904 1.00879 1.80538C0.967516 1.79769 0.925916 1.79556 0.883987 1.79898C0.809209 1.81996 0.790544 1.86423 0.827987 1.93178C0.860288 1.95832 0.897087 1.97592 0.938387 1.98458C1.00019 1.99885 1.06205 2.01272 1.12399 2.02618C1.20281 2.04503 1.26947 2.08396 1.32399 2.14298C1.36778 2.20297 1.38484 2.27017 1.37519 2.34458C1.35793 2.45243 1.30193 2.53296 1.20719 2.58618C1.08788 2.64437 0.962015 2.6657 0.829587 2.65018C0.735404 2.64118 0.647936 2.61238 0.567187 2.56378C0.548656 2.55059 0.531056 2.53619 0.514387 2.52058C0.470452 2.46255 0.478452 2.41188 0.538387 2.36858C0.576278 2.3488 0.615744 2.3456 0.656787 2.35898C0.710905 2.38444 0.765305 2.40897 0.819987 2.43258C0.887257 2.45372 0.953388 2.45159 1.01839 2.42618C1.0722 2.39382 1.08554 2.34955 1.05839 2.29338C1.03195 2.26781 1.00049 2.25128 0.963987 2.24378C0.890313 2.22598 0.816713 2.20785 0.743187 2.18938C0.667212 2.16875 0.602678 2.12982 0.549587 2.07258C0.496912 1.99471 0.485713 1.91098 0.515987 1.82138C0.55446 1.73064 0.619526 1.66664 0.711187 1.62938C0.762934 1.60791 0.816265 1.59457 0.871187 1.58938Z" fill="#FEFEFD"/>
<path fill-rule="evenodd" clip-rule="evenodd" d="M1.91762 1.59257C2.01135 1.58583 2.10202 1.59916 2.18962 1.63257C2.29633 1.68062 2.37153 1.75902 2.41522 1.86777C2.44039 1.92659 2.45373 1.98792 2.45522 2.05177C2.46088 2.12182 2.42888 2.15915 2.35922 2.16377C2.20135 2.16484 2.04348 2.16591 1.88562 2.16697C1.80739 2.17583 1.77379 2.21903 1.78482 2.29657C1.81275 2.37036 1.86448 2.4189 1.94002 2.44217C2.01133 2.45373 2.07639 2.43879 2.13522 2.39737C2.16082 2.37604 2.18642 2.35471 2.21202 2.33337C2.28663 2.2967 2.3501 2.3111 2.40242 2.37657C2.41543 2.39851 2.4165 2.42091 2.40562 2.44377C2.37538 2.49855 2.33324 2.54175 2.27922 2.57337C2.16436 2.63537 2.0417 2.6599 1.91122 2.64697C1.69215 2.62151 1.55402 2.50258 1.49682 2.29017C1.46669 2.14212 1.47949 1.99812 1.53522 1.85817C1.59387 1.73553 1.68827 1.65393 1.81842 1.61337C1.85157 1.6045 1.88463 1.59757 1.91762 1.59257Z" fill="#FEFEFD"/>
<path fill-rule="evenodd" clip-rule="evenodd" d="M2.98323 1.59257C3.10413 1.58224 3.21613 1.60838 3.31923 1.67097C3.39478 1.72523 3.44864 1.79616 3.48083 1.88377C3.5015 1.93791 3.5127 1.99391 3.51443 2.05177C3.52013 2.12179 3.48813 2.15912 3.41843 2.16377C3.26056 2.16484 3.1027 2.16591 2.94483 2.16697C2.86971 2.17484 2.83611 2.2159 2.84403 2.29017C2.86073 2.34957 2.89647 2.39383 2.95123 2.42297C3.03712 2.46125 3.11819 2.45271 3.19443 2.39737C3.22003 2.37604 3.24563 2.35471 3.27123 2.33337C3.34592 2.29673 3.40941 2.31113 3.46163 2.37657C3.47465 2.39851 3.47571 2.42091 3.46483 2.44377C3.43459 2.49855 3.39245 2.54175 3.33843 2.57337C3.24512 2.6255 3.14485 2.65057 3.03763 2.64857C2.88461 2.65283 2.75608 2.59949 2.65203 2.48857C2.57221 2.38239 2.53541 2.26239 2.54163 2.12857C2.53938 2.0127 2.56658 1.90444 2.62323 1.80377C2.7094 1.6767 2.8294 1.6063 2.98323 1.59257Z" fill="#FEFEFD"/>
<path fill-rule="evenodd" clip-rule="evenodd" d="M1.97839 2.89497C1.99869 2.89444 2.01895 2.89497 2.03919 2.89657C2.08146 2.9105 2.09266 2.9377 2.07279 2.97817C2.06135 2.98737 2.04908 2.99537 2.03599 3.00217C2.02059 3.0151 2.01953 3.02897 2.03279 3.04377C2.04751 3.05086 2.06085 3.05993 2.07279 3.07097C2.08205 3.09144 2.07725 3.10798 2.05839 3.12057C2.04211 3.12684 2.02771 3.13591 2.01519 3.14777C2.01244 3.15285 2.0103 3.15819 2.00879 3.16377C2.00773 3.25231 2.00666 3.34084 2.00559 3.42937C1.997 3.46093 1.9762 3.4748 1.94319 3.47097C1.91802 3.47359 1.89935 3.46399 1.88719 3.44217C1.88303 3.35059 1.8809 3.25886 1.88079 3.16697C1.87785 3.15597 1.87252 3.14637 1.86479 3.13817C1.84335 3.12742 1.82895 3.11089 1.82159 3.08857C1.82317 3.07955 1.82691 3.07155 1.83279 3.06457C1.84502 3.05419 1.85782 3.04459 1.87119 3.03577C1.88107 3.01202 1.88854 2.98748 1.89359 2.96217C1.9094 2.92337 1.93767 2.90097 1.97839 2.89497Z" fill="#FEFEFB"/>
<path fill-rule="evenodd" clip-rule="evenodd" d="M0.98326 2.89817C1.00382 2.89699 1.02409 2.89859 1.04406 2.90297C1.058 2.90996 1.06707 2.92116 1.07126 2.93657C1.07339 3.10297 1.07339 3.26937 1.07126 3.43577C1.06646 3.45337 1.05526 3.46457 1.03766 3.46937C1.01953 3.47151 1.00139 3.47151 0.98326 3.46937C0.962802 3.46385 0.951602 3.45051 0.94966 3.42937C0.947525 3.26404 0.947525 3.09871 0.94966 2.93337C0.955135 2.91564 0.966335 2.90391 0.98326 2.89817Z" fill="#FEFEFD"/>
<path fill-rule="evenodd" clip-rule="evenodd" d="M1.62001 2.92377C1.64361 2.92118 1.66601 2.92491 1.68721 2.93497C1.69398 2.94051 1.69878 2.94745 1.70161 2.95577C1.70102 2.98021 1.70528 3.00368 1.71441 3.02617C1.72692 3.03804 1.74132 3.04711 1.75761 3.05337C1.77407 3.06809 1.77781 3.08569 1.76881 3.10617C1.75471 3.1183 1.73924 3.12843 1.72241 3.13657C1.71276 3.14574 1.70689 3.15694 1.70481 3.17017C1.70179 3.22474 1.70286 3.27914 1.70801 3.33337C1.71033 3.34121 1.71353 3.34868 1.71761 3.35577C1.73689 3.36809 1.75503 3.38196 1.77201 3.39737C1.78963 3.43946 1.7763 3.4656 1.73201 3.47577C1.68127 3.48309 1.63807 3.46869 1.60241 3.43257C1.58996 3.41196 1.58356 3.38956 1.58321 3.36537C1.58214 3.29924 1.58107 3.23311 1.58001 3.16697C1.57636 3.15542 1.57103 3.14475 1.56401 3.13497C1.54786 3.12416 1.53506 3.11029 1.52561 3.09337C1.52261 3.08256 1.52474 3.07296 1.53201 3.06457C1.54615 3.05065 1.56001 3.03678 1.57361 3.02297C1.58013 3.00222 1.58333 2.98089 1.58321 2.95897C1.59101 2.9421 1.60327 2.93037 1.62001 2.92377Z" fill="#FEFEFC"/>
<path fill-rule="evenodd" clip-rule="evenodd" d="M2.64079 3.04218C2.65683 3.04164 2.67283 3.04218 2.68879 3.04378C2.71132 3.04827 2.73372 3.05307 2.75599 3.05818C2.77714 3.05306 2.79847 3.05039 2.81999 3.05018C2.83406 3.05251 2.84313 3.06051 2.84719 3.07418C2.85071 3.09621 2.84857 3.11754 2.84079 3.13818C2.83599 3.14298 2.83119 3.14778 2.82639 3.15258C2.80414 3.16034 2.78281 3.16994 2.76239 3.18138C2.75243 3.19117 2.74443 3.20237 2.73839 3.21498C2.73426 3.28628 2.73213 3.35775 2.73199 3.42938C2.73005 3.45051 2.71885 3.46385 2.69839 3.46938C2.67813 3.47151 2.65786 3.47151 2.63759 3.46938C2.61916 3.45979 2.60902 3.44432 2.60719 3.42298C2.60506 3.30884 2.60506 3.19471 2.60719 3.08058C2.61229 3.06216 2.62349 3.04936 2.64079 3.04218Z" fill="#FEFEFC"/>
<path fill-rule="evenodd" clip-rule="evenodd" d="M1.26476 3.04537C1.29785 3.04484 1.33091 3.04537 1.36396 3.04697C1.4464 3.05155 1.4896 3.09475 1.49356 3.17657C1.4957 3.26511 1.4957 3.35364 1.49356 3.44217C1.48359 3.46244 1.46705 3.47098 1.44396 3.46777C1.41994 3.46386 1.39594 3.45959 1.37196 3.45497C1.34128 3.46164 1.31088 3.46964 1.28076 3.47897C1.22524 3.48712 1.17884 3.47058 1.14156 3.42937C1.10095 3.34426 1.12282 3.2808 1.20716 3.23897C1.22475 3.23111 1.24288 3.22471 1.26156 3.21977C1.29713 3.21653 1.33127 3.20799 1.36396 3.19417C1.37918 3.17587 1.38078 3.15614 1.36876 3.13497C1.34499 3.11141 1.31779 3.10661 1.28716 3.12057C1.27484 3.12941 1.26311 3.13901 1.25196 3.14937C1.226 3.16496 1.19827 3.16923 1.16876 3.16217C1.15365 3.15176 1.14885 3.13736 1.15436 3.11897C1.17064 3.08564 1.19678 3.06378 1.23276 3.05337C1.24408 3.05166 1.25475 3.04899 1.26476 3.04537Z" fill="#FEFEFC"/>
<path fill-rule="evenodd" clip-rule="evenodd" d="M2.3048 3.04217C2.37741 3.03775 2.44141 3.05855 2.4968 3.10457C2.5455 3.16135 2.5631 3.22695 2.5496 3.30137C2.53249 3.39848 2.47542 3.45661 2.3784 3.47577C2.31891 3.48486 2.26237 3.47632 2.2088 3.45017C2.15621 3.41708 2.12475 3.36962 2.1144 3.30777C2.09611 3.1593 2.15957 3.07076 2.3048 3.04217Z" fill="#FEFEFC"/>
<path fill-rule="evenodd" clip-rule="evenodd" d="M0.679201 3.04857C0.801342 3.03901 0.872276 3.09448 0.892001 3.21497C0.895153 3.26021 0.891953 3.30501 0.882401 3.34937C0.851486 3.44513 0.785886 3.48619 0.685601 3.47257C0.665457 3.46484 0.645188 3.46377 0.624801 3.46937C0.615306 3.47609 0.609441 3.48516 0.607201 3.49657C0.607665 3.52926 0.603399 3.56126 0.594401 3.59257C0.570106 3.6104 0.543972 3.61306 0.516001 3.60057C0.50834 3.59433 0.50354 3.58633 0.501601 3.57657C0.499466 3.41231 0.499466 3.24804 0.501601 3.08377C0.505335 3.07151 0.513335 3.06351 0.525601 3.05977C0.562935 3.06084 0.600266 3.06191 0.637601 3.06297C0.651902 3.05839 0.665767 3.05359 0.679201 3.04857Z" fill="#FEFEFC"/>
<path fill-rule="evenodd" clip-rule="evenodd" d="M3.10479 3.06137C3.14719 3.05672 3.18559 3.06686 3.21999 3.09177C3.23463 3.09649 3.24957 3.09756 3.26479 3.09497C3.29185 3.08251 3.31958 3.07184 3.34799 3.06297C3.3861 3.05707 3.42236 3.0624 3.45679 3.07897C3.48047 3.09587 3.49487 3.1188 3.49999 3.14777C3.50213 3.2459 3.50213 3.34404 3.49999 3.44217C3.49449 3.45833 3.48329 3.4674 3.46639 3.46937C3.45228 3.4716 3.43842 3.47053 3.42479 3.46617C3.41817 3.46314 3.41337 3.45834 3.41039 3.45177C3.40709 3.37079 3.40389 3.28972 3.40079 3.20857C3.38124 3.14376 3.34124 3.12616 3.28079 3.15577C3.26801 3.16908 3.25894 3.18454 3.25359 3.20217C3.24945 3.28094 3.24731 3.35988 3.24719 3.43897C3.24308 3.45695 3.23188 3.46708 3.21359 3.46937C3.18842 3.47658 3.16869 3.46964 3.15439 3.44857C3.15021 3.3677 3.14808 3.28664 3.14799 3.20537C3.1365 3.15437 3.10503 3.1325 3.05359 3.13977C3.02381 3.15036 3.00514 3.17116 2.99759 3.20217C2.99448 3.28546 2.99128 3.36866 2.98799 3.45177C2.97076 3.46876 2.94996 3.47462 2.92559 3.46937C2.91087 3.46426 2.90181 3.45412 2.89839 3.43897C2.89626 3.3259 2.89626 3.21284 2.89839 3.09977C2.90437 3.08425 2.91557 3.07518 2.93199 3.07257C2.96362 3.07259 2.99509 3.07526 3.02639 3.08057C3.0533 3.07638 3.07944 3.06998 3.10479 3.06137Z" fill="#FEFEFC"/>
<path fill-rule="evenodd" clip-rule="evenodd" d="M0.688834 3.12217C0.715416 3.12135 0.738351 3.12988 0.757634 3.14777C0.78134 3.17889 0.79254 3.21409 0.791234 3.25337C0.790764 3.29035 0.782764 3.32555 0.767234 3.35897C0.736869 3.39939 0.699 3.40846 0.653634 3.38617C0.631554 3.36816 0.617154 3.34523 0.610434 3.31737C0.594885 3.26224 0.601285 3.20998 0.629634 3.16057C0.644812 3.13996 0.664546 3.12716 0.688834 3.12217Z" fill="black"/>
<path fill-rule="evenodd" clip-rule="evenodd" d="M2.30474 3.13177C2.37941 3.12405 2.42368 3.15712 2.43754 3.23097C2.44569 3.28649 2.43023 3.33396 2.39114 3.37337C2.32983 3.40914 2.28023 3.39688 2.24234 3.33657C2.21392 3.27365 2.21978 3.21445 2.25994 3.15897C2.27358 3.14737 2.28852 3.1383 2.30474 3.13177Z" fill="black"/>
<path fill-rule="evenodd" clip-rule="evenodd" d="M1.31921 3.27897C1.37395 3.27452 1.39155 3.29798 1.37201 3.34937C1.35057 3.38489 1.3191 3.40036 1.27761 3.39577C1.23906 3.37826 1.23 3.35106 1.25041 3.31417C1.27077 3.29679 1.2937 3.28506 1.31921 3.27897Z" fill="black"/>
</svg>
