<svg width="35" height="6" viewBox="0 0 35 6" fill="none" xmlns="http://www.w3.org/2000/svg">
<path d="M5.72 0.692L6.08 0.848L5.304 2.56L6.064 4.272L5.72 4.428L4.892 2.56L5.72 0.692ZM6.416 0.692L6.76 0.848L6 2.56L6.76 4.272L6.416 4.428L5.588 2.56L6.416 0.692ZM9.82 3.348C9.704 3.78 9.452 4.144 9.06 4.44L8.808 4.136H7.248V0.952H8.908V1.336H7.636V3.308C7.836 3.092 8.004 2.84 8.14 2.552C7.996 2.312 7.84 2.072 7.668 1.824L7.948 1.556C8.076 1.74 8.196 1.928 8.316 2.112C8.384 1.908 8.44 1.692 8.484 1.468L8.864 1.528C8.788 1.896 8.688 2.228 8.564 2.528C8.716 2.792 8.852 3.052 8.976 3.308L8.692 3.596C8.596 3.384 8.488 3.168 8.364 2.944C8.216 3.208 8.044 3.444 7.852 3.644L7.636 3.376V3.744H8.888V4.048C9.176 3.8 9.368 3.508 9.46 3.172C9.54 2.852 9.584 2.444 9.588 1.94H9.976C9.976 2.228 9.96 2.496 9.936 2.736C10.124 3.292 10.44 3.74 10.888 4.076L10.608 4.408C10.276 4.112 10.012 3.756 9.82 3.348ZM9.28 0.74L9.68 0.804C9.656 0.98 9.632 1.144 9.6 1.296H10.748V1.56C10.688 1.88 10.608 2.2 10.508 2.52L10.108 2.404C10.192 2.196 10.264 1.956 10.324 1.684H9.504C9.408 2.016 9.284 2.28 9.132 2.472L8.796 2.232C9.044 1.876 9.208 1.38 9.28 0.74ZM12.248 1.764L12.564 1.848C12.524 2.228 12.444 2.592 12.332 2.944L11.996 2.828C12.116 2.492 12.2 2.14 12.248 1.764ZM11.508 0.772C11.772 0.972 11.996 1.172 12.176 1.372L11.888 1.66C11.732 1.468 11.512 1.264 11.224 1.044L11.508 0.772ZM11.42 1.72C11.668 1.928 11.88 2.136 12.056 2.344L11.764 2.636C11.62 2.436 11.408 2.22 11.136 1.992L11.42 1.72ZM11.684 2.948L12.052 3.092C11.912 3.56 11.756 4 11.588 4.408L11.196 4.232C11.38 3.816 11.544 3.388 11.684 2.948ZM13.48 0.852H13.848V4.288H13.48V0.852ZM14.328 0.728H14.728V4.424H14.328V0.728ZM12.632 0.76H13.032V1.98C13.02 3.096 12.784 3.912 12.328 4.432L12.008 4.148C12.416 3.7 12.624 2.976 12.632 1.98V0.76ZM14.092 1.788C14.176 2.096 14.248 2.424 14.308 2.776L14.064 2.888C14.004 2.504 13.94 2.16 13.868 1.86L14.092 1.788ZM13.276 1.788C13.348 2.096 13.408 2.428 13.46 2.78L13.216 2.892C13.168 2.504 13.112 2.16 13.052 1.86L13.276 1.788ZM15.688 0.768C15.944 0.96 16.16 1.152 16.336 1.344L16.052 1.632C15.896 1.448 15.68 1.248 15.404 1.04L15.688 0.768ZM15.156 1.904H16.08V3.564C16.196 3.46 16.32 3.348 16.452 3.224L16.568 3.664C16.304 3.904 16.024 4.116 15.728 4.308L15.568 3.932C15.636 3.872 15.672 3.796 15.672 3.708V2.304H15.156V1.904ZM16.588 2.384H18.54V2.764C18.428 3.108 18.244 3.408 17.988 3.66C18.236 3.82 18.536 3.96 18.892 4.084L18.668 4.444C18.276 4.284 17.944 4.108 17.68 3.912C17.368 4.132 16.988 4.308 16.532 4.44L16.3 4.088C16.712 3.968 17.06 3.816 17.348 3.632C17.092 3.376 16.912 3.096 16.816 2.784H16.588V2.384ZM17.208 2.784C17.296 3.012 17.44 3.22 17.648 3.404C17.852 3.22 18.008 3.016 18.12 2.784H17.208ZM16.86 0.836H18.3V1.664C18.3 1.752 18.348 1.8 18.448 1.8H18.792V2.18H18.336C18.036 2.18 17.888 2.04 17.888 1.76V1.228H17.272V1.336C17.272 1.752 17.056 2.076 16.632 2.3L16.352 1.98C16.688 1.84 16.86 1.64 16.86 1.38V0.836ZM20.416 1.868H21.448V0.708H21.88V1.868H22.86V2.284H21.88V4.428H21.448V2.284H20.416V1.868ZM19.712 0.74C19.964 0.936 20.18 1.132 20.36 1.324L20.072 1.616C19.92 1.432 19.7 1.236 19.416 1.028L19.712 0.74ZM19.156 1.896H20.108V3.568C20.224 3.468 20.348 3.356 20.48 3.232L20.588 3.66C20.328 3.9 20.052 4.116 19.756 4.308L19.596 3.932C19.668 3.872 19.704 3.8 19.704 3.716V2.296H19.156V1.896ZM23.256 1.036H24.992V1.444H24.424V2.176H24.828V2.392C25.076 1.924 25.244 1.364 25.336 0.708L25.748 0.756C25.716 0.952 25.68 1.14 25.636 1.316H26.792V1.724H26.536C26.504 2.344 26.36 2.872 26.1 3.312C26.324 3.632 26.588 3.884 26.892 4.064L26.652 4.42C26.344 4.232 26.076 3.976 25.852 3.656C25.58 3.972 25.236 4.228 24.816 4.424L24.56 4.08C25.012 3.888 25.368 3.628 25.624 3.296C25.476 3.032 25.348 2.736 25.244 2.408C25.164 2.56 25.08 2.704 24.992 2.84L24.784 2.568H24.424V3.444C24.608 3.388 24.788 3.332 24.956 3.276V3.66C24.464 3.836 23.896 4 23.252 4.148L23.14 3.764L23.368 3.716V1.908H23.756V3.624C23.848 3.6 23.936 3.58 24.02 3.556V1.444H23.256V1.036ZM25.856 2.916C26.024 2.564 26.116 2.168 26.132 1.724H25.52C25.5 1.788 25.48 1.848 25.46 1.904C25.568 2.284 25.7 2.62 25.856 2.916ZM27.212 1.868H28.788V1.644H29.168L28.94 1.496C29.112 1.24 29.232 0.972 29.304 0.684L29.704 0.772C29.68 0.852 29.656 0.932 29.632 1.004H30.76V1.372H30.104C30.176 1.484 30.236 1.592 30.284 1.692L29.92 1.832C29.848 1.672 29.768 1.52 29.68 1.372H29.488C29.428 1.5 29.364 1.616 29.292 1.724L29.212 1.672V1.868H30.788V2.244H29.212V2.444H30.524V3.228C30.524 3.46 30.396 3.576 30.144 3.576H29.9C30.188 3.732 30.516 3.864 30.88 3.976L30.66 4.356C30.1 4.148 29.62 3.864 29.212 3.512V4.432H28.788V3.528C28.396 3.888 27.952 4.172 27.46 4.376L27.212 4.004C27.824 3.792 28.348 3.496 28.788 3.112V2.808H27.956V3.56H27.544V2.444H28.788V2.244H27.212V1.868ZM29.212 3.12C29.404 3.28 29.62 3.428 29.868 3.56L29.768 3.208L30.028 3.228C30.08 3.228 30.108 3.196 30.108 3.14V2.808H29.212V3.12ZM27.804 1.372C27.72 1.508 27.628 1.636 27.528 1.756L27.168 1.528C27.408 1.264 27.58 0.98 27.68 0.68L28.08 0.768C28.052 0.848 28.02 0.928 27.988 1.004H28.916V1.372H28.364C28.436 1.484 28.5 1.592 28.552 1.696L28.176 1.836C28.104 1.676 28.024 1.52 27.936 1.372H27.804ZM31.584 0.692L32.412 2.56L31.584 4.428L31.24 4.272L32 2.56L31.24 0.848L31.584 0.692ZM32.28 0.692L33.108 2.56L32.28 4.428L31.936 4.272L32.696 2.56L31.92 0.848L32.28 0.692Z" fill="white"/>
<g clip-path="url(#clip0_251_3769)">
<path d="M0 0.5L4 0.5V4.5H0L0 0.5Z" fill="#003399"/>
<path d="M1.99993 1.13603L1.94067 1.33356L2.03944 1.35332L1.99993 1.13603Z" fill="#FFCC00"/>
<path d="M1.99988 1.13603L2.05914 1.33356L1.96038 1.35332L1.99988 1.13603Z" fill="#FFCC00"/>
<path d="M2.18787 1.27252L1.98169 1.2772L1.99343 1.37724L2.18787 1.27252Z" fill="#FFCC00"/>
<path d="M2.18786 1.27252L2.01831 1.38992L1.96901 1.30209L2.18786 1.27252Z" fill="#FFCC00"/>
<path d="M2.11618 1.49337L2.04802 1.29873L1.9565 1.3408L2.11618 1.49337Z" fill="#FFCC00"/>
<path d="M2.11618 1.49337L1.95213 1.36839L2.02042 1.29436L2.11618 1.49337Z" fill="#FFCC00"/>
<path d="M1.81213 1.27252L2.01831 1.2772L2.00657 1.37724L1.81213 1.27252Z" fill="#FFCC00"/>
<path d="M1.8122 1.27252L1.98175 1.38992L2.03105 1.30209L1.8122 1.27252Z" fill="#FFCC00"/>
<path d="M1.88382 1.49337L1.95198 1.29873L2.0435 1.3408L1.88382 1.49337Z" fill="#FFCC00"/>
<path d="M1.88382 1.49337L2.04787 1.36839L1.97958 1.29436L1.88382 1.49337Z" fill="#FFCC00"/>
<path d="M1.99993 3.5064L1.94067 3.70393L2.03944 3.72369L1.99993 3.5064Z" fill="#FFCC00"/>
<path d="M1.99988 3.5064L2.05914 3.70393L1.96038 3.72369L1.99988 3.5064Z" fill="#FFCC00"/>
<path d="M2.18787 3.64289L1.98169 3.64757L1.99343 3.74761L2.18787 3.64289Z" fill="#FFCC00"/>
<path d="M2.18786 3.64289L2.01831 3.76029L1.96901 3.67247L2.18786 3.64289Z" fill="#FFCC00"/>
<path d="M2.11618 3.86374L2.04802 3.6691L1.9565 3.71118L2.11618 3.86374Z" fill="#FFCC00"/>
<path d="M2.11618 3.86374L1.95213 3.73877L2.02042 3.66473L2.11618 3.86374Z" fill="#FFCC00"/>
<path d="M1.81213 3.64289L2.01831 3.64757L2.00657 3.74761L1.81213 3.64289Z" fill="#FFCC00"/>
<path d="M1.8122 3.64289L1.98175 3.76029L2.03105 3.67247L1.8122 3.64289Z" fill="#FFCC00"/>
<path d="M1.88382 3.86374L1.95198 3.6691L2.0435 3.71118L1.88382 3.86374Z" fill="#FFCC00"/>
<path d="M1.88382 3.86374L2.04787 3.73877L1.97958 3.66473L1.88382 3.86374Z" fill="#FFCC00"/>
<path d="M0.814691 2.32122L0.755432 2.51875L0.854198 2.5385L0.814691 2.32122Z" fill="#FFCC00"/>
<path d="M0.814642 2.32122L0.873901 2.51875L0.775136 2.5385L0.814642 2.32122Z" fill="#FFCC00"/>
<path d="M1.00263 2.45771L0.796451 2.46239L0.808185 2.56243L1.00263 2.45771Z" fill="#FFCC00"/>
<path d="M1.00262 2.45771L0.833072 2.57511L0.783766 2.48728L1.00262 2.45771Z" fill="#FFCC00"/>
<path d="M0.93094 2.67856L0.862776 2.48392L0.771263 2.52599L0.93094 2.67856Z" fill="#FFCC00"/>
<path d="M0.930937 2.67855L0.76689 2.55358L0.835182 2.47955L0.930937 2.67855Z" fill="#FFCC00"/>
<path d="M0.626768 2.45771L0.832944 2.46239L0.82121 2.56243L0.626768 2.45771Z" fill="#FFCC00"/>
<path d="M0.626772 2.45771L0.796322 2.57511L0.845629 2.48728L0.626772 2.45771Z" fill="#FFCC00"/>
<path d="M0.698454 2.67856L0.766618 2.48392L0.858132 2.52599L0.698454 2.67856Z" fill="#FFCC00"/>
<path d="M0.698457 2.67855L0.862505 2.55358L0.794212 2.47955L0.698457 2.67855Z" fill="#FFCC00"/>
<path d="M1.3057 1.6611L1.46974 1.53613L1.40145 1.46209L1.3057 1.6611Z" fill="#FFCC00"/>
<path d="M1.30569 1.6611L1.37386 1.46646L1.46537 1.50854L1.30569 1.6611Z" fill="#FFCC00"/>
<path d="M1.23401 1.44026L1.40356 1.55765L1.45287 1.46983L1.23401 1.44026Z" fill="#FFCC00"/>
<path d="M1.23401 1.44025L1.44018 1.44493L1.42845 1.54497L1.23401 1.44025Z" fill="#FFCC00"/>
<path d="M1.42187 1.30377L1.36261 1.5013L1.46138 1.52105L1.42187 1.30377Z" fill="#FFCC00"/>
<path d="M1.42188 1.30377L1.48114 1.5013L1.38237 1.52105L1.42188 1.30377Z" fill="#FFCC00"/>
<path d="M1.53793 1.6611L1.37388 1.53613L1.44218 1.4621L1.53793 1.6611Z" fill="#FFCC00"/>
<path d="M1.53793 1.66111L1.46977 1.46647L1.37826 1.50854L1.53793 1.66111Z" fill="#FFCC00"/>
<path d="M1.60974 1.44026L1.44019 1.55766L1.39088 1.46983L1.60974 1.44026Z" fill="#FFCC00"/>
<path d="M1.60968 1.44026L1.40351 1.44494L1.41524 1.54498L1.60968 1.44026Z" fill="#FFCC00"/>
<path d="M1.09848 2.1005L1.03032 1.90587L0.938804 1.94794L1.09848 2.1005Z" fill="#FFCC00"/>
<path d="M1.09848 2.10051L0.934431 1.97553L1.00272 1.9015L1.09848 2.10051Z" fill="#FFCC00"/>
<path d="M0.866243 2.10051L1.03029 1.97553L0.961998 1.9015L0.866243 2.10051Z" fill="#FFCC00"/>
<path d="M0.866179 2.10051L0.934343 1.90587L1.02586 1.94794L0.866179 2.10051Z" fill="#FFCC00"/>
<path d="M0.794496 1.87966L0.964047 1.99706L1.01335 1.90923L0.794496 1.87966Z" fill="#FFCC00"/>
<path d="M0.794493 1.87966L1.00067 1.88434L0.988934 1.98437L0.794493 1.87966Z" fill="#FFCC00"/>
<path d="M1.17023 1.87965L1.00067 1.99705L0.951368 1.90923L1.17023 1.87965Z" fill="#FFCC00"/>
<path d="M1.17023 1.87965L0.964053 1.88433L0.975787 1.98437L1.17023 1.87965Z" fill="#FFCC00"/>
<path d="M0.982367 1.74316L1.04163 1.94069L0.942861 1.96045L0.982367 1.74316Z" fill="#FFCC00"/>
<path d="M0.982355 1.74317L0.923096 1.9407L1.02186 1.96045L0.982355 1.74317Z" fill="#FFCC00"/>
<path d="M1.17053 3.06769L0.964359 3.07237L0.976093 3.1724L1.17053 3.06769Z" fill="#FFCC00"/>
<path d="M1.17053 3.06768L1.00098 3.18508L0.951673 3.09726L1.17053 3.06768Z" fill="#FFCC00"/>
<path d="M1.09866 3.28852L1.0305 3.09389L0.938987 3.13596L1.09866 3.28852Z" fill="#FFCC00"/>
<path d="M1.0986 3.28852L0.934553 3.16355L1.00285 3.08952L1.0986 3.28852Z" fill="#FFCC00"/>
<path d="M0.866487 3.28853L1.03053 3.16355L0.962242 3.08952L0.866487 3.28853Z" fill="#FFCC00"/>
<path d="M0.866484 3.28853L0.934648 3.09389L1.02616 3.13596L0.866484 3.28853Z" fill="#FFCC00"/>
<path d="M0.982733 2.93119L1.04199 3.12872L0.943227 3.14847L0.982733 2.93119Z" fill="#FFCC00"/>
<path d="M0.982782 2.93119L0.923523 3.12872L1.02229 3.14847L0.982782 2.93119Z" fill="#FFCC00"/>
<path d="M0.794859 3.06768L1.00103 3.07236L0.989301 3.1724L0.794859 3.06768Z" fill="#FFCC00"/>
<path d="M0.794862 3.06768L0.964413 3.18508L1.01372 3.09725L0.794862 3.06768Z" fill="#FFCC00"/>
<path d="M1.59924 3.46527L1.39307 3.46995L1.4048 3.56999L1.59924 3.46527Z" fill="#FFCC00"/>
<path d="M1.59924 3.46527L1.42969 3.58267L1.38038 3.49484L1.59924 3.46527Z" fill="#FFCC00"/>
<path d="M1.52738 3.68611L1.45921 3.49148L1.3677 3.53355L1.52738 3.68611Z" fill="#FFCC00"/>
<path d="M1.52731 3.68611L1.36326 3.56114L1.43156 3.48711L1.52731 3.68611Z" fill="#FFCC00"/>
<path d="M1.2952 3.68611L1.45925 3.56114L1.39095 3.48711L1.2952 3.68611Z" fill="#FFCC00"/>
<path d="M1.2952 3.68612L1.36336 3.49148L1.45487 3.53355L1.2952 3.68612Z" fill="#FFCC00"/>
<path d="M1.41144 3.32878L1.4707 3.52631L1.37194 3.54606L1.41144 3.32878Z" fill="#FFCC00"/>
<path d="M1.41149 3.32878L1.35223 3.52631L1.451 3.54606L1.41149 3.32878Z" fill="#FFCC00"/>
<path d="M1.22357 3.46527L1.42975 3.46995L1.41801 3.56998L1.22357 3.46527Z" fill="#FFCC00"/>
<path d="M1.22357 3.46527L1.39312 3.58267L1.44243 3.49484L1.22357 3.46527Z" fill="#FFCC00"/>
<path d="M3.18506 2.32122L3.24432 2.51875L3.14556 2.5385L3.18506 2.32122Z" fill="#FFCC00"/>
<path d="M3.18505 2.32122L3.12579 2.51875L3.22456 2.5385L3.18505 2.32122Z" fill="#FFCC00"/>
<path d="M2.99725 2.45771L3.20343 2.46239L3.19169 2.56243L2.99725 2.45771Z" fill="#FFCC00"/>
<path d="M2.99732 2.45771L3.16687 2.57511L3.21617 2.48728L2.99732 2.45771Z" fill="#FFCC00"/>
<path d="M3.06894 2.67856L3.1371 2.48392L3.22862 2.52599L3.06894 2.67856Z" fill="#FFCC00"/>
<path d="M3.06894 2.67855L3.23299 2.55358L3.1647 2.47955L3.06894 2.67855Z" fill="#FFCC00"/>
<path d="M3.37287 2.45771L3.16669 2.46239L3.17842 2.56243L3.37287 2.45771Z" fill="#FFCC00"/>
<path d="M3.37286 2.45771L3.20331 2.57511L3.154 2.48728L3.37286 2.45771Z" fill="#FFCC00"/>
<path d="M3.30118 2.67856L3.23302 2.48392L3.1415 2.52599L3.30118 2.67856Z" fill="#FFCC00"/>
<path d="M3.30112 2.67855L3.13707 2.55358L3.20536 2.47955L3.30112 2.67855Z" fill="#FFCC00"/>
<path d="M2.69412 1.6611L2.53007 1.53613L2.59837 1.46209L2.69412 1.6611Z" fill="#FFCC00"/>
<path d="M2.69418 1.6611L2.62602 1.46646L2.53451 1.50854L2.69418 1.6611Z" fill="#FFCC00"/>
<path d="M2.76587 1.44026L2.59632 1.55765L2.54701 1.46983L2.76587 1.44026Z" fill="#FFCC00"/>
<path d="M2.76593 1.44025L2.55976 1.44493L2.57149 1.54497L2.76593 1.44025Z" fill="#FFCC00"/>
<path d="M2.57801 1.30377L2.63727 1.5013L2.5385 1.52105L2.57801 1.30377Z" fill="#FFCC00"/>
<path d="M2.578 1.30377L2.51874 1.5013L2.6175 1.52105L2.578 1.30377Z" fill="#FFCC00"/>
<path d="M2.46195 1.6611L2.62599 1.53613L2.5577 1.4621L2.46195 1.6611Z" fill="#FFCC00"/>
<path d="M2.46188 1.66111L2.53005 1.46647L2.62156 1.50854L2.46188 1.66111Z" fill="#FFCC00"/>
<path d="M2.39014 1.44026L2.55969 1.55766L2.609 1.46983L2.39014 1.44026Z" fill="#FFCC00"/>
<path d="M2.39007 1.44026L2.59625 1.44494L2.58452 1.54498L2.39007 1.44026Z" fill="#FFCC00"/>
<path d="M2.90121 2.1005L2.96938 1.90587L3.06089 1.94794L2.90121 2.1005Z" fill="#FFCC00"/>
<path d="M2.90128 2.10051L3.06532 1.97553L2.99703 1.9015L2.90128 2.10051Z" fill="#FFCC00"/>
<path d="M3.13345 2.10051L2.9694 1.97553L3.0377 1.9015L3.13345 2.10051Z" fill="#FFCC00"/>
<path d="M3.13345 2.10051L3.06529 1.90587L2.97378 1.94794L3.13345 2.10051Z" fill="#FFCC00"/>
<path d="M3.20526 1.87966L3.03571 1.99706L2.9864 1.90923L3.20526 1.87966Z" fill="#FFCC00"/>
<path d="M3.20532 1.87966L2.99915 1.88434L3.01088 1.98437L3.20532 1.87966Z" fill="#FFCC00"/>
<path d="M2.82947 1.87965L2.99902 1.99705L3.04833 1.90923L2.82947 1.87965Z" fill="#FFCC00"/>
<path d="M2.82947 1.87965L3.03564 1.88433L3.02391 1.98437L2.82947 1.87965Z" fill="#FFCC00"/>
<path d="M3.01733 1.74316L2.95807 1.94069L3.05683 1.96045L3.01733 1.74316Z" fill="#FFCC00"/>
<path d="M3.01728 1.74317L3.07654 1.9407L2.97777 1.96045L3.01728 1.74317Z" fill="#FFCC00"/>
<path d="M2.82934 3.06769L3.03552 3.07237L3.02379 3.1724L2.82934 3.06769Z" fill="#FFCC00"/>
<path d="M2.82941 3.06768L2.99896 3.18508L3.04827 3.09726L2.82941 3.06768Z" fill="#FFCC00"/>
<path d="M2.90103 3.28852L2.96919 3.09389L3.06071 3.13596L2.90103 3.28852Z" fill="#FFCC00"/>
<path d="M2.90103 3.28852L3.06508 3.16355L2.99679 3.08952L2.90103 3.28852Z" fill="#FFCC00"/>
<path d="M3.13327 3.28853L2.96922 3.16355L3.03751 3.08952L3.13327 3.28853Z" fill="#FFCC00"/>
<path d="M3.13327 3.28853L3.06511 3.09389L2.97359 3.13596L3.13327 3.28853Z" fill="#FFCC00"/>
<path d="M3.01721 2.93119L2.95795 3.12872L3.05671 3.14847L3.01721 2.93119Z" fill="#FFCC00"/>
<path d="M3.01716 2.93119L3.07642 3.12872L2.97765 3.14847L3.01716 2.93119Z" fill="#FFCC00"/>
<path d="M3.20502 3.06768L2.99884 3.07236L3.01058 3.1724L3.20502 3.06768Z" fill="#FFCC00"/>
<path d="M3.20502 3.06768L3.03546 3.18508L2.98616 3.09725L3.20502 3.06768Z" fill="#FFCC00"/>
<path d="M2.40063 3.46527L2.60681 3.46995L2.59507 3.56999L2.40063 3.46527Z" fill="#FFCC00"/>
<path d="M2.4007 3.46527L2.57025 3.58267L2.61955 3.49484L2.4007 3.46527Z" fill="#FFCC00"/>
<path d="M2.47232 3.68611L2.54048 3.49148L2.632 3.53355L2.47232 3.68611Z" fill="#FFCC00"/>
<path d="M2.47232 3.68611L2.63637 3.56114L2.56808 3.48711L2.47232 3.68611Z" fill="#FFCC00"/>
<path d="M2.70456 3.68611L2.54051 3.56114L2.6088 3.48711L2.70456 3.68611Z" fill="#FFCC00"/>
<path d="M2.70456 3.68612L2.6364 3.49148L2.54488 3.53355L2.70456 3.68612Z" fill="#FFCC00"/>
<path d="M2.5885 3.32878L2.52924 3.52631L2.628 3.54606L2.5885 3.32878Z" fill="#FFCC00"/>
<path d="M2.58845 3.32878L2.64771 3.52631L2.54894 3.54606L2.58845 3.32878Z" fill="#FFCC00"/>
<path d="M2.77631 3.46527L2.57013 3.46995L2.58187 3.56998L2.77631 3.46527Z" fill="#FFCC00"/>
<path d="M2.7763 3.46527L2.60675 3.58267L2.55745 3.49484L2.7763 3.46527Z" fill="#FFCC00"/>
</g>
<defs>
<clipPath id="clip0_251_3769">
<rect y="0.5" width="4" height="4" rx="2" fill="white"/>
</clipPath>
</defs>
</svg>
