<svg width="97" height="37" viewBox="0 0 97 37" fill="none" xmlns="http://www.w3.org/2000/svg">
<path d="M5.1402 30.2217L5.53254 30.2243L5.48843 32.1035L6.85781 33.3815L6.60229 33.6597L5.10929 32.2647L5.1402 30.2217ZM5.78069 29.9493L6.15831 29.9582L6.12892 31.8311L7.49829 33.1091L7.24278 33.3873L5.74978 31.9923L5.78069 29.9493Z" fill="white"/>
<path d="M6.68037 29.6114C6.99539 29.6677 7.27468 29.742 7.51824 29.8342L7.39419 30.2192C7.17209 30.1251 6.8892 30.0437 6.54913 29.9821L6.68037 29.6114ZM6.71639 30.8653L7.54158 30.4495L8.28848 31.932C8.34528 31.787 8.40563 31.6311 8.46772 31.461L8.76928 31.8018C8.6415 32.1349 8.48683 32.4502 8.30887 32.7548L7.99681 32.491C8.03054 32.4069 8.02849 32.3228 7.9889 32.2442L7.35719 30.9903L6.89637 31.2225L6.71639 30.8653ZM8.21123 30.6496L9.95448 29.7714L10.1255 30.1107C10.1802 30.4683 10.1509 30.819 10.0356 31.1593C10.3291 31.1906 10.66 31.1806 11.0337 31.1312L10.9957 31.5535C10.5736 31.587 10.1979 31.5792 9.87395 31.5229C9.6943 31.8598 9.43413 32.1879 9.08629 32.511L8.72072 32.301C9.03467 32.0085 9.27706 31.7161 9.45147 31.4222C9.10767 31.3088 8.82093 31.1397 8.59482 30.9043L8.3912 31.0069L8.21123 30.6496ZM8.9449 30.7279C9.12607 30.8919 9.34826 31.0129 9.61681 31.0836C9.7162 30.8275 9.76373 30.5751 9.75937 30.3176L8.9449 30.7279ZM7.75764 29.1448L9.04364 28.4969L9.41619 29.2364C9.45579 29.3149 9.52025 29.3362 9.60956 29.2912L9.91677 29.1364L10.0877 29.4758L9.68051 29.681C9.41259 29.816 9.21743 29.7575 9.09145 29.5075L8.85208 29.0323L8.30195 29.3095L8.35055 29.406C8.53772 29.7775 8.4906 30.164 8.21273 30.5548L7.81869 30.395C8.05577 30.1188 8.11939 29.8628 8.0024 29.6306L7.75764 29.1448Z" fill="white"/>
<path d="M11.2932 28.4355L12.1882 27.9216L11.6106 26.9156L11.9853 26.7005L12.5628 27.7065L13.4127 27.2185L13.6199 27.5793L12.77 28.0673L13.8375 29.9266L13.4629 30.1417L12.3953 28.2824L11.5004 28.7962L11.2932 28.4355ZM10.1211 27.8078C10.4372 27.8523 10.7221 27.9147 10.9738 27.9916L10.8694 28.3882C10.646 28.3043 10.3576 28.2439 10.0078 28.2049L10.1211 27.8078ZM10.2145 29.0871L11.0401 28.6131L11.8726 30.0631C11.9234 29.9186 11.9752 29.7598 12.0279 29.5865L12.3347 29.9039C12.2287 30.2415 12.0969 30.5662 11.9358 30.8801L11.6098 30.6337C11.6424 30.5458 11.6378 30.4655 11.5959 30.3926L10.8889 29.1612L10.4136 29.434L10.2145 29.0871Z" fill="white"/>
<path d="M13.409 26.2432L14.8771 25.3167L15.0949 25.6617L14.6145 25.9649L15.0052 26.5839L15.3469 26.3683L15.4621 26.551C15.4221 26.0228 15.2653 25.4596 14.993 24.8557L15.367 24.6764C15.4446 24.8593 15.5145 25.0375 15.5712 25.2098L16.5488 24.5928L16.7665 24.9379L16.5501 25.0745C16.8539 25.6159 17.0139 26.1393 17.0288 26.6501C17.3891 26.8012 17.7468 26.8734 18.1 26.8634L18.087 27.2925C17.7262 27.2979 17.3629 27.2245 17.0027 27.0734C16.9413 27.4858 16.787 27.8859 16.5365 28.2758L16.1364 28.1215C16.4162 27.7179 16.5785 27.308 16.6178 26.8906C16.3517 26.7464 16.0855 26.5643 15.8225 26.3425C15.836 26.5137 15.8418 26.6803 15.8399 26.8423L15.5189 26.7233L15.2144 26.9154L15.6819 27.6562C15.8077 27.5107 15.93 27.3672 16.0422 27.2302L16.2471 27.555C15.925 27.9664 15.5321 28.4082 15.0665 28.8771L14.7669 28.6121L14.9341 28.4498L13.9691 26.9208L14.2973 26.7138L15.2131 28.1649C15.2781 28.0956 15.3418 28.0317 15.4001 27.9665L14.2729 26.1805L13.6268 26.5882L13.409 26.2432ZM16.6112 26.4455C16.5654 26.0581 16.4318 25.6741 16.2084 25.2901L15.6908 25.6167C15.7081 25.6815 15.7232 25.7429 15.7362 25.801C16.0303 26.0647 16.3213 26.2784 16.6112 26.4455Z" fill="white"/>
<path d="M17.0832 24.8992L18.3941 24.0243L18.2697 23.838L18.5858 23.627L18.314 23.6305C18.3149 23.3221 18.266 23.0325 18.166 22.753L18.5475 22.6042C18.572 22.684 18.5964 22.7639 18.6164 22.8371L19.5546 22.2109L19.7589 22.517L19.2133 22.8812C19.3354 22.9343 19.4452 22.9909 19.5407 23.0474L19.3156 23.3659C19.1669 23.2728 19.016 23.1908 18.8606 23.1165L18.7009 23.2231C18.7221 23.3629 18.7333 23.4949 18.7333 23.6247L18.6379 23.6259L18.7467 23.7889L20.0576 22.914L20.2663 23.2267L18.9555 24.1016L19.0665 24.268L20.1577 23.5396L20.593 24.1917C20.7218 24.3847 20.6797 24.5522 20.4701 24.6921L20.2672 24.8276C20.5933 24.7975 20.9394 24.7252 21.3043 24.6163L21.3323 25.0545C20.751 25.1923 20.1941 25.2226 19.6594 25.1563L20.1701 25.9215L19.8174 26.1569L19.3156 25.405C19.1894 25.922 18.9778 26.4047 18.6818 26.8475L18.269 26.6758C18.6603 26.1597 18.9319 25.6226 19.0847 25.059L18.9159 24.8061L18.2239 25.268L18.6413 25.8935L18.2986 26.1222L17.6791 25.194L18.7138 24.5034L18.6028 24.337L17.2919 25.2119L17.0832 24.8992ZM19.4418 24.8302C19.6903 24.8567 19.9521 24.8599 20.2317 24.832L19.9531 24.5948L20.1804 24.4671C20.2237 24.4382 20.2292 24.3961 20.1981 24.3495L20.0138 24.0733L19.2686 24.5707L19.4418 24.8302ZM17.3003 24.158C17.3059 24.3177 17.3004 24.4753 17.2839 24.6306L16.8579 24.6408C16.9109 24.288 16.8963 23.9563 16.813 23.6512L17.1945 23.5024C17.2156 23.5845 17.2334 23.6688 17.249 23.7497L18.0209 23.2346L18.2252 23.5407L17.766 23.8471C17.8881 23.9003 18.0013 23.9546 18.1023 24.0122L17.8673 24.3374C17.7185 24.2443 17.5654 24.1589 17.4101 24.0847L17.3003 24.158Z" fill="white"/>
<path d="M21.996 21.2141C22.064 21.5407 22.0763 21.8423 22.0328 22.119L21.6321 22.0004C21.6684 21.5784 21.5711 21.1168 21.3391 20.6068L21.7409 20.4292C21.7945 20.5573 21.8403 20.6811 21.8815 20.7982L22.8031 20.1688L23.0332 20.5058L21.996 21.2141ZM22.452 21.1158C22.7671 21.2155 23.0245 21.3158 23.2253 21.4112L23.0733 21.8056C22.859 21.6904 22.5971 21.5835 22.2941 21.4804L22.452 21.1158ZM20.4915 21.2099L20.8384 20.973L21.9663 22.6246L21.6195 22.8615L20.4915 21.2099ZM19.9249 21.8342L20.2652 21.6018L21.1991 22.9693L20.8589 23.2017L19.9249 21.8342ZM23.5128 21.7186L24.1354 22.6303L24.4558 22.4114L24.6656 22.7186L21.6498 24.7783L21.44 24.4711L21.7769 24.241L21.1543 23.3293L23.5128 21.7186ZM22.1106 24.0131L22.4442 23.7853L22.0336 23.1841L21.7 23.412L22.1106 24.0131ZM22.7778 23.5574L23.1213 23.3228L22.7108 22.7217L22.3672 22.9563L22.7778 23.5574ZM23.455 23.095L23.8018 22.8581L23.3912 22.2569L23.0444 22.4938L23.455 23.095Z" fill="white"/>
<path d="M23.3479 19.3329C23.6299 19.3643 23.8832 19.4104 24.1099 19.4744L24.0369 19.852C23.8368 19.7846 23.578 19.7374 23.2661 19.7117L23.3479 19.3329ZM23.8438 20.1806C24.1292 20.2242 24.3881 20.2858 24.6149 20.3642L24.5453 20.7396C24.3362 20.6589 24.074 20.5996 23.762 20.5594L23.8438 20.1806ZM24.6587 20.9574L25.0288 20.8762C25.1828 21.3612 25.3112 21.8296 25.4074 22.2861L25.004 22.3608C24.9144 21.8855 24.7971 21.4192 24.6587 20.9574ZM25.1361 18.2784L26.5274 20.3362L26.2225 20.5423L25.0306 18.7794L24.4375 19.1805L25.6428 20.9632L25.338 21.1693L23.9332 19.0917L25.1361 18.2784ZM26.258 20.7018C26.5578 20.7454 26.8311 20.8068 27.0757 20.8829L26.9983 21.2684C26.7803 21.1744 26.5124 21.0996 26.1892 21.0429L26.258 20.7018ZM24.712 19.2508L24.997 19.0581L25.6982 20.0953C25.9448 20.4886 26.0913 20.8338 26.1355 21.142C26.1695 21.428 26.1026 21.7146 25.9358 21.9964L25.5619 21.8291C25.721 21.5574 25.7838 21.3073 25.7546 21.0856C25.7131 20.8529 25.6004 20.5863 25.4132 20.288L24.712 19.2508ZM27.7536 20.7143L27.3891 20.9607L27.1011 20.6919C27.2227 20.629 27.3388 20.565 27.4415 20.4955C27.5045 20.453 27.5085 20.3875 27.4547 20.308L25.696 17.7067L26.0207 17.4872L27.8355 20.1713C27.9856 20.3933 27.959 20.5754 27.7536 20.7143ZM25.3992 18.3033L25.7008 18.0994L27.0808 20.1407L26.7793 20.3445L25.3992 18.3033Z" fill="white"/>
<path d="M27.663 16.826C27.8941 16.6751 28.1287 16.6175 28.3669 16.653C28.6017 16.6908 28.787 16.8135 28.9269 17.0279C29.0625 17.2355 29.1046 17.4756 29.062 17.747C29.0338 17.9087 28.9495 18.1453 28.8178 18.4558C28.6782 18.7762 28.6227 19.0131 28.6478 19.1686L29.8268 18.3989L30.0521 18.7439L28.3841 19.8329C28.2244 19.5884 28.1637 19.3271 28.2064 19.0412C28.2279 18.8839 28.3159 18.6163 28.4692 18.2439C28.5533 18.0361 28.6015 17.8757 28.6225 17.7616C28.6498 17.5766 28.6203 17.4143 28.5328 17.2804C28.4476 17.1497 28.3473 17.0767 28.2388 17.0568C28.1269 17.039 28.0034 17.0767 27.866 17.1663C27.7187 17.2626 27.6409 17.385 27.6329 17.5335C27.6204 17.6754 27.6742 17.8457 27.79 18.0376L27.3981 18.2935C27.2265 18.0233 27.1636 17.7587 27.2105 17.494C27.2543 17.217 27.4051 16.9944 27.663 16.826Z" fill="white"/>
<path d="M30.2789 15.1576C30.561 14.9826 30.8537 14.9612 31.161 15.1001C31.4497 15.2317 31.7121 15.4878 31.9482 15.8686C32.1843 16.2493 32.2972 16.5982 32.2867 16.9153C32.2724 17.249 32.1252 17.505 31.8431 17.68C31.5575 17.857 31.2628 17.8751 30.961 17.7375C30.6722 17.6059 30.4098 17.3497 30.1737 16.969C29.9376 16.5882 29.8248 16.2393 29.8352 15.9222C29.8441 15.5873 29.9933 15.3347 30.2789 15.1576ZM30.4876 15.4941C30.2938 15.6143 30.2232 15.804 30.2799 16.07C30.3162 16.2499 30.4134 16.4674 30.5715 16.7223C30.7275 16.9739 30.879 17.1576 31.0262 17.2734C31.2372 17.4391 31.4406 17.4636 31.6344 17.3434C31.8247 17.2254 31.8933 17.0323 31.842 16.7675C31.8037 16.5842 31.7065 16.3668 31.5505 16.1152C31.3924 15.8603 31.2408 15.6766 31.0958 15.5641C30.8793 15.3971 30.678 15.3761 30.4876 15.4941Z" fill="white"/>
<path d="M32.6445 13.7969L32.9483 13.6191L34.3911 16.0839L33.9873 16.3203L32.8294 14.3423C32.7597 14.5638 32.6319 14.773 32.4425 14.972L32.2081 14.5716C32.3024 14.4793 32.3915 14.3622 32.4753 14.2205C32.5551 14.0718 32.6122 13.9317 32.6445 13.7969Z" fill="white"/>
<path d="M33.918 13.0615L35.4446 12.2266L35.6423 12.5881L34.4456 13.2426L34.7516 13.9688L34.7621 13.9631C34.7971 13.8436 34.8541 13.7395 34.9367 13.6487C35.0087 13.5637 35.1009 13.4905 35.2132 13.4291C35.4484 13.3005 35.6836 13.2722 35.9154 13.346C36.1473 13.4197 36.3416 13.5916 36.4894 13.8618C36.6314 14.1215 36.6483 14.3858 36.542 14.6583C36.4401 14.9055 36.2664 15.0962 36.0172 15.2325C35.7891 15.3573 35.558 15.4016 35.3294 15.3671C35.072 15.33 34.8721 15.1977 34.7278 14.9757L35.1314 14.755C35.2238 14.8823 35.3321 14.9552 35.4598 14.972C35.5677 14.9859 35.6938 14.958 35.8307 14.8832C35.9781 14.8025 36.0795 14.6878 36.1313 14.5409C36.1797 14.3959 36.1652 14.2443 36.0807 14.0899C35.9886 13.9214 35.87 13.813 35.734 13.7644C35.596 13.7122 35.4447 13.7356 35.2833 13.8239C35.1745 13.8834 35.0893 13.9528 35.0332 14.0336C34.9685 14.1237 34.9364 14.2234 34.9352 14.338L34.5527 14.5472L33.918 13.0615Z" fill="white"/>
<path d="M37.7835 13.5398C37.8807 13.4927 37.9827 13.4923 38.0858 13.5402C38.1854 13.5898 38.2683 13.6786 38.3292 13.8046C38.4215 13.9954 38.444 14.189 38.4056 14.3852C38.3619 14.5797 38.2577 14.75 38.0966 14.8946L37.9816 14.6569C38.0614 14.5739 38.1164 14.4762 38.1465 14.3639C38.1695 14.2462 38.1583 14.1494 38.1165 14.063C38.0984 14.0806 38.073 14.1018 38.0334 14.1209C37.9542 14.1592 37.8755 14.1618 37.7953 14.1339C37.7152 14.106 37.6569 14.0497 37.6186 13.9705C37.5768 13.8841 37.5725 13.8017 37.6057 13.7235C37.6336 13.6433 37.6935 13.5833 37.7835 13.5398Z" fill="white"/>
<path d="M41.4893 11.3002L41.6154 11.6116L42.3273 11.3234L42.2012 11.012L41.4893 11.3002ZM42.4699 11.6756L41.758 11.9638L41.8361 12.1566L41.4579 12.3098L40.7013 10.4411L41.7914 9.99978L41.6683 9.69575L42.0539 9.53964L42.177 9.84367L43.2782 9.39784L44.0302 11.2554L43.652 11.4085L43.5785 11.2268L42.8555 11.5195L43.1512 12.2499L42.7656 12.4061L42.4699 11.6756ZM42.7129 11.1673L43.4359 10.8746L43.3098 10.5631L42.5868 10.8559L42.7129 11.1673ZM43.1732 10.2257L43.0441 9.90689L42.3211 10.1996L42.4502 10.5185L43.1732 10.2257ZM41.9355 10.3557L41.2236 10.6439L41.3527 10.9628L42.0646 10.6746L41.9355 10.3557ZM43.2372 8.48661L43.5284 9.2059L43.1502 9.35901L43.0016 8.99195L40.5694 9.97666L40.7255 10.3623L40.3473 10.5154L40.0486 9.77755L41.4242 9.22064C41.3645 9.1585 41.3026 9.10156 41.2422 9.04834L41.6267 8.81498C41.6894 8.88454 41.7566 8.96522 41.8283 9.05703L43.2372 8.48661Z" fill="white"/>
<path d="M44.7384 9.24872L47.0902 8.48713L47.5622 9.94461L45.2104 10.7062L44.7384 9.24872ZM47.0607 9.72021L46.9941 9.51471L45.4187 10.0249L45.4852 10.2304L47.0607 9.72021ZM45.3102 9.69003L46.8857 9.17984L46.8154 8.96293L45.24 9.47312L45.3102 9.69003ZM43.9777 8.27577L45.3629 7.82719L45.2631 7.51895L45.6512 7.39326L45.751 7.7015L47.1362 7.25292L47.2545 7.61824L46.2156 7.95467C46.5662 8.07658 47.0213 8.11843 47.5883 8.07775L47.5329 8.49092C46.8272 8.47981 46.2755 8.34732 45.878 8.09346L46.0727 8.69471L45.6845 8.82041L45.4898 8.21915C45.2989 8.65519 44.9372 9.08344 44.4048 9.50391L44.0746 9.22405C44.5681 8.90445 44.9236 8.60011 45.1425 8.3022L44.096 8.64109L43.9777 8.27577ZM44.795 11.0594L48.0943 9.99091L48.2114 10.3524L44.9121 11.4209L44.795 11.0594Z" fill="white"/>
<path d="M47.9196 7.36056L48.5199 7.2058L48.482 7.05861L47.7577 7.24532L47.6798 6.9432L48.4041 6.75648L48.3642 6.60155L48.7205 6.50969L48.7605 6.66463L49.4422 6.4889L49.5201 6.79102L48.8383 6.96675L48.8763 7.11394L49.4767 6.95918L49.5545 7.2613C49.7114 6.95649 49.7836 6.61156 49.7731 6.23424L50.1453 6.18786C50.1479 6.27807 50.1446 6.36153 50.1413 6.44499L51.1368 6.18838L51.2247 6.52924L51.0271 6.58016C51.0538 6.90788 51.0122 7.19536 50.9063 7.44158C51.1076 7.50123 51.3271 7.53553 51.56 7.54159L51.4288 7.91412C51.161 7.90055 50.9171 7.85189 50.6972 7.76812C50.5461 7.93512 50.3319 8.09773 50.0595 8.25883L49.8391 7.96454C50.0488 7.84852 50.2206 7.72988 50.3497 7.60573C50.2035 7.51948 50.0709 7.42149 49.9507 7.30789C49.9202 7.38184 49.8848 7.45292 49.8523 7.51913L49.5625 7.29229L49.6664 7.69512L49.066 7.84988L49.069 7.8615C49.3069 7.88693 49.5516 7.92298 49.7993 7.97065L49.6719 8.32569C49.4588 8.23605 49.2798 8.16654 49.1359 8.12102L49.2257 8.46962L48.8694 8.56148L48.7775 8.20513C48.6181 8.41973 48.4467 8.60434 48.2645 8.76284L48.0083 8.49016C48.2363 8.34879 48.4591 8.17156 48.6709 7.95172L48.1093 8.0965L47.9196 7.36056ZM50.075 6.92473C50.2198 7.08569 50.3846 7.21255 50.5707 7.30918C50.6567 7.13004 50.6919 6.91441 50.6785 6.67002L50.0975 6.81979L50.075 6.92473ZM49.2818 7.51748L49.2289 7.31219L48.9462 7.38508L48.9991 7.59036L49.2818 7.51748ZM48.6427 7.68222L48.5898 7.47693L48.3071 7.54982L48.36 7.75511L48.6427 7.68222ZM49.7714 8.79161L48.4583 9.13009L48.3684 8.78149L51.4594 7.98472L51.5493 8.33332L50.1742 8.68777L50.2291 8.90081L51.3679 8.60726L51.4558 8.94812L50.317 9.24167L50.3719 9.4547L51.9329 9.05233L52.0247 9.40868L48.5542 10.3033L48.4623 9.94694L49.0395 9.79817L48.8727 9.15132L49.2446 9.05547L49.4113 9.70232L49.9691 9.55854L49.7714 8.79161Z" fill="white"/>
<path d="M53.5626 6.5621L53.9766 6.47078L54.5159 8.91602L54.1018 9.00733L53.5626 6.5621ZM53.3315 5.38423L53.6908 5.30497C54.1266 5.75775 54.782 6.09244 55.6503 6.31466L55.486 6.74002C54.6941 6.52963 54.063 6.19368 53.5956 5.7274C53.3077 6.4094 52.8764 6.97968 52.3064 7.44126L51.9785 7.12446C52.6197 6.61439 53.0688 6.032 53.3315 5.38423Z" fill="white"/>
<path d="M58.8482 6.96749C58.8124 7.41336 58.6306 7.81701 58.2987 8.17915L57.9958 7.92586L56.4616 8.20859L55.8846 5.07732L57.5171 4.77646L57.5867 5.1541L56.3357 5.38464L56.6931 7.32398C56.8507 7.07531 56.9702 6.79704 57.0518 6.48916C56.8667 6.27923 56.6698 6.07148 56.4557 5.85876L56.6824 5.54445C56.8417 5.7022 56.9938 5.86534 57.1451 6.02454C57.175 5.8116 57.1909 5.58903 57.1936 5.36076L57.5782 5.3509C57.5702 5.72658 57.532 6.0712 57.4644 6.38871C57.6617 6.62079 57.8426 6.85183 58.011 7.08112L57.7839 7.41582C57.651 7.22473 57.5057 7.03188 57.3431 6.83407C57.2454 7.12052 57.119 7.38378 56.9665 7.61527L56.7055 7.39085L56.7722 7.75276L58.0034 7.52585L58.0585 7.82481C58.2968 7.52873 58.4327 7.20676 58.4623 6.85965C58.483 6.53045 58.4523 6.12124 58.3649 5.62486L58.7465 5.55454C58.7987 5.83777 58.8315 6.10423 58.8514 6.3446C59.137 6.85732 59.529 7.24063 60.0305 7.48987L59.8153 7.86712C59.4351 7.6362 59.111 7.33394 58.8482 6.96749ZM57.8445 4.50055L58.2495 4.491C58.2578 4.66843 58.2639 4.83407 58.26 4.98935L59.389 4.78129L59.4368 5.04091C59.4358 5.36649 59.4151 5.69569 59.3748 6.02851L58.9604 5.98693C59.0053 5.76715 59.0326 5.51808 59.0423 5.23971L58.2359 5.38832C58.2016 5.73222 58.1275 6.01432 58.0129 6.23069L57.6389 6.05556C57.8183 5.66051 57.8897 5.143 57.8445 4.50055Z" fill="white"/>
<path d="M61.004 5.00263L61.3289 5.03866C61.3459 5.42039 61.321 5.79224 61.2626 6.15699L60.9131 6.09228C60.9818 5.74217 61.0125 5.38159 61.004 5.00263ZM60.1246 4.13181C60.4154 4.29029 60.6667 4.45473 60.8744 4.62571L60.6325 4.95337C60.4497 4.78672 60.2017 4.61773 59.8842 4.44305L60.1246 4.13181ZM60.1786 5.08235C60.4548 5.25112 60.6954 5.42526 60.9004 5.60474L60.6551 5.93695C60.483 5.76061 60.2412 5.57857 59.9383 5.39359L60.1786 5.08235ZM60.6225 6.25738L61.0078 6.34501C60.939 6.82863 60.8502 7.28695 60.7448 7.71541L60.331 7.59971C60.451 7.16096 60.5495 6.71332 60.6225 6.25738ZM62.0865 3.91743L62.4504 3.86266L62.9618 7.2604L62.5979 7.31516L62.0865 3.91743ZM62.9066 3.66861L63.3022 3.60907L63.8522 7.26391L63.4567 7.32344L62.9066 3.66861ZM61.2343 3.95266L61.6298 3.89313L61.8114 5.09954C61.9656 6.2049 61.8537 7.04694 61.4801 7.62901L61.1214 7.3958C61.4582 6.89207 61.5561 6.14517 61.4158 5.15907L61.2343 3.95266ZM62.831 4.75192C62.9599 5.04399 63.0799 5.35762 63.1916 5.69677L62.967 5.84384C62.8505 5.47305 62.7361 5.1424 62.6202 4.85646L62.831 4.75192ZM62.0241 4.87337C62.1411 5.16722 62.2499 5.48659 62.3537 5.82694L62.1291 5.974C62.0238 5.59747 61.9173 5.26563 61.8133 4.9779L62.0241 4.87337Z" fill="white"/>
<path d="M65.1837 4.0148L65.5222 6.7983L65.1251 6.84658L65.101 6.64805L64.5133 6.71951L64.5514 7.0332L64.1544 7.08149L63.8019 4.18284L64.1831 4.13649C64.2289 3.91734 64.254 3.69268 64.2582 3.46248L64.6819 3.46737C64.6643 3.6871 64.6294 3.89685 64.5801 4.0882L65.1837 4.0148ZM64.4669 6.33832L65.0546 6.26685L64.9633 5.51638L64.3757 5.58785L64.4669 6.33832ZM64.3308 5.21857L64.9184 5.1471L64.8339 4.45222L64.2463 4.52369L64.3308 5.21857ZM66.0237 4.89181C66.3169 5.18254 66.5458 5.4408 66.7147 5.67009L66.4092 5.94095C66.2304 5.69675 65.9966 5.43103 65.7118 5.14331L66.0237 4.89181ZM67.2286 3.76613C67.3976 5.15589 67.4821 6.01598 67.482 6.34641C67.476 6.6292 67.3023 6.79135 66.9609 6.83288C66.8814 6.84253 66.7375 6.85197 66.5291 6.8612L66.384 6.49605C66.5601 6.48672 66.716 6.47583 66.847 6.45989C66.99 6.44251 67.0637 6.35295 67.0687 6.1952C67.0693 6.0017 67.0016 5.34508 66.8729 4.2204L65.9119 4.33725C65.8337 4.58853 65.7327 4.8184 65.609 5.02687L65.3187 4.72771C65.5354 4.32259 65.6541 3.84074 65.6833 3.28516L66.0985 3.28704C66.0849 3.50629 66.0579 3.71508 66.0215 3.91292L67.2286 3.76613Z" fill="white"/>
<path d="M69.4114 4.53384L68.7186 4.60145L68.8613 6.06251C68.8714 6.16602 68.9282 6.21272 69.0396 6.20184L69.7005 6.13733C69.8159 6.12606 69.8845 6.08722 69.9026 6.02517C69.9242 5.95876 69.9357 5.82903 69.9321 5.62842L70.3355 5.7257C70.3379 6.07914 70.3067 6.29519 70.246 6.37346C70.1845 6.44376 70.0563 6.48843 69.8652 6.50708L68.8898 6.60229C68.6271 6.62793 68.4833 6.51336 68.4584 6.25857L68.2789 4.41931L68.1316 4.59847L67.8561 4.28776C68.1969 3.90886 68.5 3.47335 68.7687 2.97289L69.0712 2.94336C69.4613 3.27503 69.829 3.62496 70.1776 3.9848L69.9345 4.29388C69.5518 3.87307 69.2393 3.55391 68.9939 3.34477C68.8236 3.6588 68.6286 3.9672 68.4002 4.26278L69.7817 4.12794L69.8901 5.23866C69.9079 5.46199 69.7961 5.59347 69.5548 5.6331C69.3956 5.64864 69.2475 5.65506 69.1114 5.66031L68.9702 5.28425C69.119 5.28579 69.2472 5.28132 69.3507 5.27122C69.4383 5.26267 69.4778 5.2146 69.47 5.13498L69.4114 4.53384ZM70.2584 3.16508L70.6645 3.12544L70.9034 5.57381L70.4974 5.61344L70.2584 3.16508ZM71.2728 6.3938L70.6797 6.4517L70.5456 6.0669C70.7383 6.06417 70.9222 6.05426 71.0934 6.03755C71.1889 6.02822 71.2309 5.96384 71.22 5.85237L70.9181 2.75907L71.3321 2.71866L71.6441 5.91547C71.6725 6.20609 71.5475 6.36699 71.2728 6.3938Z" fill="white"/>
<path d="M75.1234 2.41909L75.3573 2.77726C75.0276 2.91653 74.6583 3.01487 74.2497 3.07229L74.3001 3.69024L75.508 3.5917L75.5402 3.98639L75.1735 4.01631L75.3429 6.09341L74.9323 6.12691L74.7628 4.04981L74.3323 4.08493L74.3632 4.46367C74.4008 5.17095 74.2912 5.74577 74.0346 6.19211L73.7099 5.90155C73.9062 5.55243 73.9924 5.08387 73.9605 4.49652L73.8193 2.76627C74.3131 2.71797 74.7451 2.60246 75.1234 2.41909ZM71.8173 2.96972L72.507 2.91346C72.451 2.81769 72.3917 2.73023 72.329 2.65106L72.7538 2.54417C72.8101 2.64392 72.8633 2.75596 72.9216 2.87964L73.6472 2.82044L73.6784 3.20317L71.8485 3.35245L71.8173 2.96972ZM71.8512 3.87797L72.2579 3.8448C72.1993 3.71714 72.1334 3.5981 72.0605 3.49167L72.4159 3.32222C72.4874 3.46086 72.5569 3.62375 72.6286 3.81455L72.9795 3.78593C73.0259 3.61759 73.0641 3.44592 73.0936 3.26693L73.4751 3.36825C73.4384 3.5077 73.4006 3.63519 73.3582 3.75503L73.7449 3.72349L73.7758 4.10223L73.0542 4.16109L73.0806 4.48402L73.7344 4.43069L73.7653 4.80943L73.1115 4.86276L73.1967 5.90729C73.2168 6.15447 73.0874 6.28945 72.8123 6.31189L72.605 6.3288L72.4821 5.95355C72.5432 5.96462 72.6 5.97202 72.6478 5.96812C72.7355 5.96097 72.7801 5.9172 72.7739 5.84145L72.6968 4.89659L72.0031 4.95318L71.9722 4.57443L72.6659 4.51785L72.6396 4.19492L71.8821 4.25671L71.8512 3.87797ZM72.2391 5.09045L72.6203 5.13961C72.5618 5.55374 72.4629 5.91498 72.3198 6.22765L71.9551 6.03667C72.1031 5.73564 72.1977 5.4189 72.2391 5.09045ZM73.5288 4.96115C73.6447 5.20053 73.743 5.42127 73.8157 5.62403L73.4759 5.7882C73.3959 5.5459 73.3004 5.30888 73.1935 5.08082L73.5288 4.96115Z" fill="white"/>
<path d="M79.2905 2.31711L79.5315 5.61231L79.1246 5.64207L79.1036 5.35484L78.2858 5.41466L78.3103 5.74977L77.9074 5.77924L77.6628 2.43617L79.2905 2.31711ZM78.2572 5.02371L79.075 4.96389L78.9119 2.73384L78.094 2.79367L78.2572 5.02371ZM75.924 3.39358L76.5783 3.34572L76.5459 2.9029C76.3724 2.94367 76.1943 2.97675 76.0197 3.00155L75.8569 2.64047C76.4754 2.54308 76.9671 2.41086 77.3239 2.24439L77.5445 2.57317C77.3463 2.65986 77.1435 2.73887 76.9396 2.80191L76.9772 3.31654L77.6155 3.26985L77.6438 3.65681L77.0055 3.7035L77.016 3.84712C77.2531 4.01828 77.4923 4.21736 77.7372 4.44009L77.5204 4.82092C77.3348 4.58583 77.1766 4.39687 77.0458 4.25403L77.1669 5.90961L76.768 5.93879L76.6544 4.38694C76.5182 4.71776 76.344 5.02328 76.1282 5.30778L75.9151 4.86214C76.2395 4.52558 76.4691 4.15584 76.608 3.75263L76.6066 3.73269L75.9523 3.78054L75.924 3.39358Z" fill="white"/>
<path d="M80.2174 2.07572C80.4865 2.24881 80.7158 2.42477 80.9051 2.6036L80.6426 2.91129C80.4738 2.73899 80.2439 2.55505 79.9537 2.36745L80.2174 2.07572ZM79.7685 3.24706L80.6901 3.18057L80.8095 4.83627C80.9178 4.72419 81.0334 4.60356 81.1561 4.47038L81.3035 4.9009C81.0574 5.15927 80.7934 5.39087 80.512 5.60367L80.3253 5.24016C80.3888 5.17542 80.4193 5.09703 80.413 5.00925L80.3119 3.60889L79.7973 3.64602L79.7685 3.24706ZM81.2313 3.62278L83.1783 3.48232L83.2056 3.86134C83.1186 4.2125 82.9567 4.52497 82.7195 4.79473C82.9784 4.93647 83.2877 5.05452 83.6517 5.15259L83.4541 5.52777C83.0517 5.39639 82.7078 5.24474 82.4304 5.06824C82.1351 5.31012 81.7687 5.51301 81.3234 5.67748L81.0667 5.34308C81.469 5.19375 81.8051 5.0171 82.0791 4.81286C81.8054 4.57594 81.6057 4.30962 81.4875 4.00533L81.2601 4.02174L81.2313 3.62278ZM81.8785 3.97713C81.9827 4.1982 82.1413 4.3953 82.362 4.56386C82.5522 4.36566 82.6931 4.15096 82.7881 3.91151L81.8785 3.97713ZM81.3912 2.05922L82.8275 1.9556L82.8871 2.78146C82.8934 2.86923 82.9447 2.91365 83.0445 2.90646L83.3876 2.8817L83.4149 3.26072L82.9601 3.29353C82.6609 3.31512 82.5032 3.18613 82.483 2.90685L82.4448 2.37623L81.8304 2.42056L81.8381 2.52828C81.8681 2.9432 81.6759 3.2819 81.2692 3.53583L80.9669 3.2368C81.2919 3.07299 81.4491 2.86113 81.4304 2.60181L81.3912 2.05922Z" fill="white"/>
<path d="M84.9743 2.83039L86.0032 2.75068L85.9136 1.59415L86.3444 1.56078L86.4339 2.71732L87.411 2.64163L87.4431 3.05639L86.4661 3.13208L86.6317 5.26967L86.201 5.30304L86.0354 3.16544L85.0064 3.24515L84.9743 2.83039ZM84.1853 1.76013C84.4517 1.93608 84.6822 2.11481 84.8765 2.29234L84.6119 2.60571C84.4461 2.434 84.2116 2.25558 83.9124 2.07013L84.1853 1.76013ZM83.7202 2.95562L84.6694 2.88209L84.7985 4.5491C84.9065 4.44044 85.0214 4.3192 85.1435 4.18537L85.2842 4.60375C85.0435 4.86312 84.785 5.09979 84.5047 5.31408L84.3162 4.95156C84.3833 4.88617 84.4137 4.81161 84.4072 4.72786L84.2975 3.3121L83.7511 3.35443L83.7202 2.95562Z" fill="white"/>
<path d="M87.7546 1.78019L89.4839 1.62823L89.5196 2.03467L88.9538 2.08439L89.0179 2.81358L89.4203 2.77821L89.4392 2.99338C89.6453 2.50547 89.7637 1.93291 89.7979 1.27138L90.2125 1.28313C90.1978 1.48118 90.1784 1.67161 90.15 1.85079L91.3015 1.7496L91.3372 2.15603L91.0822 2.17844C91.1046 2.79886 91.0074 3.33744 90.7869 3.79851C91.038 4.09767 91.3231 4.3256 91.6417 4.47829L91.4338 4.85394C91.1105 4.69362 90.8211 4.46206 90.57 4.1629C90.3267 4.50149 90.0064 4.78662 89.6052 5.01863L89.32 4.69836C89.7535 4.46753 90.0854 4.17737 90.3113 3.82424C90.1408 3.5742 89.9874 3.29054 89.855 2.97291C89.7887 3.13133 89.7176 3.28213 89.6418 3.42531L89.4108 3.17256L89.0522 3.20407L89.1289 4.07671C89.3073 4.00482 89.4817 3.93328 89.6441 3.86279L89.6777 4.24531C89.203 4.4637 88.6516 4.67679 88.023 4.8806L87.8778 4.50787L88.1007 4.4401L87.9425 2.63904L88.329 2.60508L88.4792 4.31449C88.5687 4.28253 88.6547 4.2549 88.7362 4.22364L88.5514 2.11975L87.7903 2.18662L87.7546 1.78019ZM90.5092 3.42539C90.6457 3.06003 90.7027 2.6575 90.6798 2.2138L90.0701 2.26737C90.0558 2.33288 90.0411 2.3944 90.0261 2.45193C90.1669 2.82102 90.3279 3.14418 90.5092 3.42539Z" fill="white"/>
<path d="M91.8906 2.24974L93.4585 2.08966L93.4357 1.86681L93.8138 1.82822L93.5719 1.70414C93.717 1.43199 93.8092 1.15319 93.8516 0.859366L94.2584 0.90628C94.2427 0.988304 94.2269 1.07033 94.2104 1.14439L95.3325 1.02982L95.3699 1.39591L94.7173 1.46255C94.8003 1.56665 94.871 1.668 94.9289 1.76261L94.581 1.93886C94.4931 1.787 94.3981 1.64391 94.2955 1.50561L94.1045 1.52512C94.0578 1.65855 94.0059 1.78045 93.9453 1.89521L93.8604 1.8516L93.8803 2.04659L95.4481 1.8865L95.4863 2.26056L93.9185 2.42064L93.9388 2.61961L95.244 2.48634L95.3237 3.26628C95.3472 3.49708 95.2317 3.62549 94.981 3.65108L94.7382 3.67587C95.0406 3.80181 95.3803 3.89981 95.7538 3.97425L95.5735 4.37464C94.9953 4.22459 94.4889 3.99082 94.0473 3.68208L94.1407 4.59733L93.7189 4.64039L93.6271 3.74107C93.2737 4.13903 92.8608 4.46666 92.3921 4.71958L92.1076 4.37469C92.6949 4.10162 93.1861 3.75393 93.5848 3.32722L93.554 3.02479L92.7263 3.10931L92.8027 3.85742L92.3928 3.89927L92.2794 2.78904L93.517 2.66268L93.4967 2.46371L91.9288 2.6238L91.8906 2.24974ZM94.0075 3.29211C94.2147 3.43178 94.4446 3.55708 94.7048 3.6632L94.5695 3.32318L94.8302 3.31667C94.8819 3.31138 94.9066 3.27671 94.9009 3.221L94.8671 2.89071L93.9758 2.98173L94.0075 3.29211ZM92.4292 1.69617C92.3594 1.84 92.2809 1.97669 92.1936 2.10622L91.8123 1.91597C92.0243 1.62896 92.1665 1.32895 92.2355 1.02035L92.6424 1.06726C92.6227 1.14969 92.599 1.23253 92.5749 1.31139L93.4981 1.21712L93.5354 1.58322L92.9863 1.63929C93.0693 1.7434 93.1439 1.84434 93.2062 1.94252L92.8464 2.11999C92.7585 1.96813 92.6631 1.82106 92.5605 1.68276L92.4292 1.69617Z" fill="white"/>
<g clip-path="url(#clip0_251_3869)">
<rect y="32.5655" width="4" height="4" rx="2" transform="rotate(-23.04 0 32.5655)" fill="black"/>
<path fill-rule="evenodd" clip-rule="evenodd" d="M1.18895 33.135C1.28926 33.0867 1.39487 33.0597 1.50578 33.0541C1.54605 33.0525 1.58455 33.0599 1.62127 33.0763C1.65315 33.0988 1.66372 33.1291 1.65295 33.1671C1.63718 33.2207 1.60193 33.2537 1.54721 33.266C1.49811 33.2693 1.44907 33.2739 1.40011 33.2799C1.35912 33.289 1.32001 33.3033 1.28276 33.3228C1.22216 33.3714 1.22231 33.4195 1.2832 33.467C1.32331 33.4788 1.36407 33.4805 1.40546 33.4723C1.46791 33.4613 1.53028 33.4498 1.59253 33.438C1.67244 33.4245 1.74903 33.4342 1.82229 33.4672C1.88607 33.5053 1.92808 33.5604 1.94831 33.6327C1.97464 33.7387 1.95463 33.8347 1.88827 33.9208C1.80125 34.021 1.69378 34.0899 1.56583 34.1274C1.47564 34.156 1.38388 34.1637 1.29055 34.1506C1.26834 34.1457 1.2465 34.1394 1.22506 34.1315C1.16192 34.0953 1.14945 34.0456 1.18765 33.9823C1.21478 33.9492 1.24985 33.9309 1.29285 33.9271C1.35262 33.9293 1.41228 33.9306 1.47184 33.9309C1.54202 33.9241 1.60204 33.8962 1.65191 33.8474C1.68876 33.7966 1.68371 33.7506 1.63674 33.7096C1.60241 33.6964 1.56699 33.6935 1.53046 33.7009C1.4557 33.7133 1.38087 33.7254 1.30598 33.7372C1.228 33.748 1.15337 33.7374 1.08211 33.7055C1.00317 33.6545 0.960088 33.5818 0.952879 33.4875C0.952771 33.3889 0.987599 33.3046 1.05736 33.2344C1.09658 33.1944 1.14044 33.1612 1.18895 33.135Z" fill="#FEFEFD"/>
<path fill-rule="evenodd" clip-rule="evenodd" d="M2.1531 32.7284C2.23672 32.6855 2.32538 32.6623 2.41906 32.6587C2.53606 32.6612 2.63595 32.7039 2.71871 32.7869C2.7649 32.8312 2.80118 32.8824 2.82754 32.9405C2.86017 33.0028 2.84533 33.0497 2.78303 33.0812C2.63817 33.144 2.49332 33.2067 2.34846 33.2695C2.27994 33.3083 2.26593 33.3612 2.30642 33.4282C2.361 33.4852 2.4276 33.5096 2.50623 33.5014C2.57637 33.4842 2.6304 33.445 2.66832 33.3838C2.68353 33.3542 2.69874 33.3245 2.71395 33.2949C2.76826 33.2319 2.8323 33.2203 2.90607 33.2601C2.92663 33.2752 2.93638 33.2954 2.93531 33.3207C2.92892 33.3829 2.90706 33.4392 2.86972 33.4894C2.78829 33.5914 2.68501 33.662 2.55988 33.7012C2.34832 33.7635 2.17466 33.7081 2.03889 33.535C1.95322 33.4106 1.90864 33.2731 1.90515 33.1225C1.91114 32.9866 1.96607 32.8746 2.06996 32.7863C2.09699 32.7652 2.12471 32.7459 2.1531 32.7284Z" fill="#FEFEFD"/>
<path fill-rule="evenodd" clip-rule="evenodd" d="M3.13375 32.3113C3.24096 32.2545 3.35425 32.2347 3.47363 32.252C3.56439 32.2723 3.64171 32.3165 3.70562 32.3846C3.74583 32.4263 3.77805 32.4734 3.80229 32.526C3.83494 32.5882 3.8201 32.6351 3.75778 32.6666C3.61293 32.7294 3.46807 32.7922 3.32321 32.8549C3.25716 32.8916 3.24232 32.9425 3.27867 33.0078C3.31729 33.0559 3.3675 33.0826 3.4293 33.088C3.52331 33.0896 3.59458 33.05 3.64308 32.9693C3.65828 32.9396 3.67349 32.91 3.6887 32.8803C3.7431 32.8174 3.80715 32.8058 3.88082 32.8456C3.90139 32.8607 3.91113 32.8809 3.91007 32.9061C3.90368 32.9684 3.8818 33.0246 3.84447 33.0749C3.779 33.1594 3.69655 33.2217 3.5971 33.2618C3.45795 33.3256 3.3188 33.3268 3.17964 33.2655C3.06462 33.199 2.98379 33.103 2.93715 32.9774C2.88973 32.8717 2.87239 32.7614 2.88512 32.6466C2.91468 32.4959 2.99756 32.3842 3.13375 32.3113Z" fill="#FEFEFD"/>
<path fill-rule="evenodd" clip-rule="evenodd" d="M2.71877 33.9031C2.73724 33.8947 2.7561 33.8872 2.77535 33.8808C2.81969 33.8771 2.84065 33.8977 2.8382 33.9427C2.83127 33.9557 2.82311 33.9678 2.81373 33.9792C2.80462 33.9971 2.80907 34.0103 2.82707 34.0188C2.84339 34.0195 2.8592 34.0226 2.87452 34.0281C2.89105 34.0433 2.8931 34.0604 2.88068 34.0794C2.86815 34.0915 2.85845 34.1055 2.85158 34.1213C2.85103 34.1271 2.85115 34.1328 2.85195 34.1386C2.88562 34.2205 2.91928 34.3023 2.95295 34.3842C2.95739 34.4166 2.94368 34.4375 2.91181 34.4469C2.88967 34.4592 2.86873 34.4577 2.84901 34.4424C2.80933 34.3597 2.77147 34.2761 2.73541 34.1916C2.7284 34.1826 2.71973 34.1759 2.70942 34.1714C2.68548 34.1699 2.66575 34.1603 2.65025 34.1426C2.64817 34.1337 2.64848 34.1249 2.65116 34.1162C2.65835 34.1018 2.66638 34.088 2.67523 34.0746C2.67502 34.0489 2.67229 34.0234 2.66704 33.9981C2.6664 33.9562 2.68364 33.9246 2.71877 33.9031Z" fill="#FEFEFB"/>
<path fill-rule="evenodd" clip-rule="evenodd" d="M1.80427 34.2955C1.82273 34.2864 1.842 34.2799 1.8621 34.2761C1.87766 34.2771 1.89039 34.2839 1.90028 34.2964C1.96737 34.4487 2.03249 34.6018 2.09565 34.7558C2.09812 34.7739 2.0922 34.7886 2.07788 34.7999C2.06203 34.8089 2.04535 34.816 2.02782 34.8212C2.00683 34.8241 1.99131 34.8162 1.98125 34.7975C1.91458 34.6462 1.84987 34.4941 1.78713 34.3411C1.78522 34.3226 1.79094 34.3074 1.80427 34.2955Z" fill="#FEFEFD"/>
<path fill-rule="evenodd" clip-rule="evenodd" d="M2.40022 34.0699C2.42093 34.0583 2.443 34.0529 2.46644 34.0539C2.47485 34.0563 2.48198 34.0608 2.48784 34.0674C2.49686 34.0901 2.50997 34.11 2.52717 34.1272C2.54333 34.1332 2.56013 34.1359 2.57757 34.1353C2.59848 34.1424 2.6088 34.1571 2.60854 34.1795C2.60031 34.1962 2.59004 34.2115 2.57774 34.2256C2.57244 34.2378 2.57143 34.2504 2.57469 34.2634C2.59327 34.3148 2.61555 34.3645 2.64151 34.4124C2.64671 34.4187 2.65258 34.4243 2.65911 34.4292C2.68168 34.433 2.70379 34.4387 2.72545 34.4462C2.75814 34.478 2.7561 34.5073 2.71933 34.534C2.6755 34.5606 2.63011 34.5643 2.58316 34.545C2.56363 34.5309 2.54898 34.5128 2.53919 34.4907C2.51232 34.4302 2.48546 34.3698 2.45859 34.3093C2.45072 34.3001 2.44163 34.2924 2.43135 34.2861C2.41225 34.2825 2.39504 34.2748 2.37973 34.2629C2.37273 34.2541 2.37094 34.2444 2.37435 34.2339C2.38191 34.2155 2.38924 34.1974 2.39635 34.1793C2.39422 34.1577 2.38882 34.1368 2.38013 34.1167C2.3807 34.0981 2.3874 34.0825 2.40022 34.0699Z" fill="#FEFEFC"/>
<path fill-rule="evenodd" clip-rule="evenodd" d="M3.38599 33.7793C3.40053 33.7725 3.41547 33.7668 3.43078 33.762C3.45327 33.7573 3.47576 33.753 3.49826 33.7489C3.51572 33.736 3.53431 33.7252 3.55402 33.7165C3.56788 33.7132 3.57936 33.717 3.58845 33.728C3.6003 33.7469 3.60669 33.7673 3.6076 33.7894C3.60507 33.7957 3.60253 33.802 3.59999 33.8083C3.58255 33.8241 3.56668 33.8413 3.55237 33.8598C3.54703 33.8727 3.54405 33.8862 3.54343 33.9001C3.56754 33.9674 3.59354 34.034 3.62145 34.0999C3.62794 34.1201 3.62285 34.1368 3.60619 34.1499C3.58837 34.1598 3.56972 34.1677 3.55024 34.1737C3.52952 34.1721 3.51414 34.1618 3.5041 34.1429C3.45747 34.0387 3.4128 33.9337 3.3701 33.8278C3.36758 33.8089 3.37288 33.7927 3.38599 33.7793Z" fill="#FEFEFC"/>
<path fill-rule="evenodd" clip-rule="evenodd" d="M2.12099 34.3208C2.15123 34.3074 2.18186 34.2949 2.2129 34.2834C2.29055 34.2554 2.34721 34.2782 2.38289 34.352C2.4195 34.4326 2.45415 34.5141 2.48683 34.5964C2.48559 34.619 2.47371 34.6333 2.45121 34.6394C2.42757 34.6452 2.40382 34.6506 2.37994 34.6558C2.35432 34.6739 2.32948 34.6932 2.30541 34.7135C2.2575 34.7428 2.20833 34.7457 2.1579 34.7224C2.08722 34.66 2.08251 34.593 2.14375 34.5215C2.15686 34.5074 2.17104 34.4944 2.1863 34.4825C2.21776 34.4656 2.24583 34.4444 2.27051 34.4189C2.27735 34.3961 2.2711 34.3773 2.25176 34.3625C2.22066 34.3502 2.19375 34.3564 2.17103 34.3812C2.16315 34.3942 2.15611 34.4076 2.14991 34.4215C2.13213 34.446 2.10828 34.4608 2.07836 34.4658C2.06037 34.4622 2.05032 34.4508 2.0482 34.4317C2.05014 34.3947 2.06563 34.3643 2.09467 34.3407C2.10442 34.3347 2.11319 34.328 2.12099 34.3208Z" fill="#FEFEFC"/>
<path fill-rule="evenodd" clip-rule="evenodd" d="M3.07676 33.9108C3.14185 33.8783 3.20889 33.8724 3.27787 33.8931C3.34491 33.9263 3.38678 33.9798 3.40348 34.0535C3.42574 34.1496 3.39598 34.2254 3.31419 34.281C3.263 34.3127 3.20764 34.3269 3.1481 34.3238C3.08676 34.314 3.03923 34.2826 3.0055 34.2297C2.93056 34.1003 2.95432 33.994 3.07676 33.9108Z" fill="#FEFEFC"/>
<path fill-rule="evenodd" clip-rule="evenodd" d="M1.58335 34.5529C1.69201 34.4963 1.77899 34.5196 1.8443 34.6228C1.8649 34.6632 1.87949 34.7056 1.88806 34.7502C1.89709 34.8504 1.8528 34.9139 1.75518 34.9406C1.73362 34.9414 1.71455 34.9483 1.69798 34.9614C1.69187 34.9713 1.69002 34.982 1.69243 34.9934C1.70565 35.0233 1.71424 35.0544 1.71822 35.0867C1.70284 35.1126 1.67983 35.1253 1.6492 35.1248C1.63971 35.122 1.63216 35.1165 1.62656 35.1083C1.56031 34.958 1.49602 34.8068 1.43369 34.6548C1.43233 34.6421 1.43656 34.6316 1.44638 34.6233C1.48116 34.6097 1.51593 34.5961 1.5507 34.5825C1.56207 34.5726 1.57295 34.5628 1.58335 34.5529Z" fill="#FEFEFC"/>
<path fill-rule="evenodd" clip-rule="evenodd" d="M3.82044 33.6154C3.85764 33.5945 3.89694 33.5888 3.93835 33.5983C3.95367 33.5969 3.96783 33.592 3.98083 33.5837C4.00085 33.5616 4.02219 33.541 4.04487 33.5217C4.07763 33.5013 4.11308 33.4921 4.15125 33.4938C4.17965 33.5001 4.20188 33.5156 4.21793 33.5402C4.25831 33.6297 4.29672 33.72 4.33315 33.8111C4.33441 33.8282 4.32765 33.8409 4.31288 33.8493C4.30076 33.8569 4.28759 33.8613 4.27334 33.8627C4.26606 33.8625 4.25976 33.8599 4.25445 33.855C4.21973 33.7818 4.18506 33.7085 4.15044 33.635C4.10708 33.583 4.06338 33.5825 4.01935 33.6334C4.01279 33.6506 4.0105 33.6684 4.01247 33.6867C4.03949 33.7608 4.06842 33.8343 4.09926 33.9071C4.10251 33.9253 4.09617 33.939 4.08024 33.9483C4.0599 33.9648 4.03903 33.9661 4.01762 33.9523C3.98213 33.8795 3.94844 33.8058 3.91655 33.731C3.88601 33.6886 3.8485 33.6808 3.80401 33.7076C3.78075 33.729 3.77171 33.7554 3.7769 33.7869C3.80663 33.8648 3.83625 33.9426 3.86575 34.0204C3.85654 34.0427 3.83969 34.0563 3.81521 34.061C3.79967 34.062 3.78736 34.0563 3.77829 34.0437C3.73207 33.9404 3.68782 33.8364 3.64553 33.7315C3.64496 33.7149 3.65172 33.7022 3.66581 33.6933C3.69492 33.681 3.72492 33.6711 3.75581 33.6637C3.77893 33.6494 3.80048 33.6332 3.82044 33.6154Z" fill="#FEFEFC"/>
<path fill-rule="evenodd" clip-rule="evenodd" d="M1.62103 34.6169C1.64517 34.6057 1.66961 34.6046 1.69436 34.6135C1.72835 34.6329 1.75244 34.6609 1.76661 34.6975C1.78065 34.7317 1.78706 34.7673 1.78585 34.8041C1.77373 34.8532 1.74243 34.8763 1.69196 34.8736C1.66459 34.8657 1.64237 34.8502 1.62528 34.8272C1.5894 34.7825 1.57483 34.7319 1.58158 34.6754C1.58748 34.6505 1.60063 34.631 1.62103 34.6169Z" fill="black"/>
<path fill-rule="evenodd" clip-rule="evenodd" d="M3.11177 33.9933C3.17746 33.957 3.23114 33.9701 3.2728 34.0326C3.30204 34.0805 3.30638 34.1302 3.28583 34.1818C3.24341 34.2387 3.19297 34.2468 3.1345 34.2062C3.08372 34.1594 3.06595 34.1026 3.08119 34.0359C3.0892 34.0198 3.0994 34.0056 3.11177 33.9933Z" fill="black"/>
<path fill-rule="evenodd" clip-rule="evenodd" d="M2.26249 34.5145C2.31112 34.4889 2.3365 34.5036 2.33863 34.5586C2.33279 34.5997 2.30989 34.6262 2.26992 34.6382C2.22759 34.6372 2.2086 34.6157 2.21295 34.5738C2.22489 34.5498 2.2414 34.53 2.26249 34.5145Z" fill="black"/>
</g>
<defs>
<clipPath id="clip0_251_3869">
<rect y="32.5655" width="4" height="4" rx="2" transform="rotate(-23.04 0 32.5655)" fill="white"/>
</clipPath>
</defs>
</svg>
