<svg width="48" height="6" viewBox="0 0 48 6" fill="none" xmlns="http://www.w3.org/2000/svg">
<path d="M5.76065 0.692L6.12065 0.848L5.34465 2.56L6.10465 4.272L5.76065 4.428L4.93265 2.56L5.76065 0.692ZM6.45665 0.692L6.80065 0.848L6.04065 2.56L6.80065 4.272L6.45665 4.428L5.62865 2.56L6.45665 0.692ZM7.72865 0.768C7.98465 0.96 8.20065 1.152 8.37665 1.344L8.09265 1.632C7.93665 1.448 7.72065 1.248 7.44465 1.04L7.72865 0.768ZM7.19665 1.904H8.12065V3.564C8.23665 3.46 8.36065 3.348 8.49265 3.224L8.60865 3.664C8.34465 3.904 8.06465 4.116 7.76865 4.308L7.60865 3.932C7.67665 3.872 7.71265 3.796 7.71265 3.708V2.304H7.19665V1.904ZM8.62865 2.384H10.5806V2.764C10.4686 3.108 10.2846 3.408 10.0286 3.66C10.2766 3.82 10.5766 3.96 10.9326 4.084L10.7086 4.444C10.3166 4.284 9.98465 4.108 9.72065 3.912C9.40865 4.132 9.02865 4.308 8.57265 4.44L8.34065 4.088C8.75265 3.968 9.10065 3.816 9.38865 3.632C9.13265 3.376 8.95265 3.096 8.85665 2.784H8.62865V2.384ZM9.24865 2.784C9.33665 3.012 9.48065 3.22 9.68865 3.404C9.89265 3.22 10.0486 3.016 10.1606 2.784H9.24865ZM8.90065 0.836H10.3406V1.664C10.3406 1.752 10.3886 1.8 10.4886 1.8H10.8326V2.18H10.3766C10.0766 2.18 9.92865 2.04 9.92865 1.76V1.228H9.31265V1.336C9.31265 1.752 9.09665 2.076 8.67265 2.3L8.39265 1.98C8.72865 1.84 8.90065 1.64 8.90065 1.38V0.836ZM12.4566 1.868H13.4886V0.708H13.9206V1.868H14.9006V2.284H13.9206V4.428H13.4886V2.284H12.4566V1.868ZM11.7526 0.74C12.0046 0.936 12.2206 1.132 12.4006 1.324L12.1126 1.616C11.9606 1.432 11.7406 1.236 11.4566 1.028L11.7526 0.74ZM11.1966 1.896H12.1486V3.568C12.2646 3.468 12.3886 3.356 12.5206 3.232L12.6286 3.66C12.3686 3.9 12.0926 4.116 11.7966 4.308L11.6366 3.932C11.7086 3.872 11.7446 3.8 11.7446 3.716V2.296H11.1966V1.896ZM15.2886 1.012H16.1406V0.728H16.5486V1.012H17.4926V0.728H17.9006V1.012H18.7926V1.404H17.9006V1.612H17.4926V1.404H16.5486V1.616H16.1406V1.404H15.2886V1.012ZM16.4046 1.7L16.7526 1.912C16.5686 2.172 16.3806 2.384 16.1966 2.544C16.1566 2.58 16.1126 2.616 16.0686 2.652H17.9646C17.7006 2.412 17.4966 2.148 17.3606 1.852L17.7126 1.652C17.9246 2.124 18.3206 2.496 18.9046 2.776L18.6206 3.112C18.4526 3.02 18.3006 2.924 18.1646 2.82C18.1486 3.168 18.1286 3.452 18.1046 3.676C18.0686 3.932 18.0126 4.116 17.9366 4.22C17.8566 4.316 17.7286 4.372 17.5566 4.38H16.9006L16.7886 3.976C16.9846 3.984 17.1726 3.992 17.3486 3.992C17.5006 3.992 17.6006 3.932 17.6486 3.816C17.6966 3.696 17.7326 3.44 17.7486 3.044H16.9286C16.8326 3.372 16.7046 3.632 16.5446 3.828C16.3366 4.056 16.0246 4.264 15.6166 4.448L15.3526 4.108C15.7166 3.964 15.9926 3.808 16.1766 3.632C16.3246 3.48 16.4406 3.284 16.5206 3.044H15.8326V2.824C15.7006 2.908 15.5566 2.996 15.4006 3.088L15.1766 2.716C15.4246 2.612 15.6606 2.468 15.8846 2.28C16.0686 2.12 16.2406 1.928 16.4046 1.7ZM19.7046 2.696H22.3766V3.104H19.7046V2.696ZM19.2526 3.828H22.8286V4.236H19.2526V3.828ZM19.4046 1.628H21.3966C21.5486 1.34 21.6766 1.032 21.7886 0.704L22.1966 0.848C22.0846 1.136 21.9566 1.396 21.8166 1.628H22.6766V2.032H19.4046V1.628ZM20.2566 0.748C20.3926 0.944 20.5246 1.164 20.6526 1.404L20.2806 1.592C20.1526 1.348 20.0126 1.128 19.8646 0.936L20.2566 0.748ZM24.7086 1.364V4.168H24.3086V3.968H23.7166V4.284H23.3166V1.364H23.7006C23.7726 1.152 23.8246 0.932 23.8566 0.704L24.2766 0.76C24.2326 0.976 24.1726 1.18 24.1006 1.364H24.7086ZM23.7166 3.584H24.3086V2.828H23.7166V3.584ZM23.7166 2.456H24.3086V1.756H23.7166V2.456ZM25.4366 2.336C25.6926 2.66 25.8886 2.944 26.0286 3.192L25.6926 3.424C25.5446 3.16 25.3446 2.868 25.0966 2.548L25.4366 2.336ZM26.7686 1.364C26.7686 2.764 26.7486 3.628 26.7086 3.956C26.6686 4.236 26.4766 4.376 26.1326 4.376C26.0526 4.376 25.9086 4.368 25.7006 4.352L25.6006 3.972C25.7766 3.984 25.9326 3.992 26.0646 3.992C26.2086 3.992 26.2926 3.912 26.3166 3.756C26.3406 3.564 26.3526 2.904 26.3606 1.772H25.3926C25.2846 2.012 25.1566 2.228 25.0086 2.42L24.7566 2.088C25.0206 1.712 25.1966 1.248 25.2926 0.7L25.7046 0.752C25.6646 0.968 25.6126 1.172 25.5526 1.364H26.7686ZM28.8246 0.696H29.2566V1.38H30.6766V3.332H30.2566V3.112H29.2566V4.448H28.8246V3.112H27.8286V3.332H27.4086V1.38H28.8246V0.696ZM27.8286 2.704H28.8246V1.788H27.8286V2.704ZM29.2566 2.704H30.2566V1.788H29.2566V2.704ZM31.4806 0.736H31.8806V1.136H32.5406V0.744H32.9406V1.136H33.1366V1.524H32.9406V3.088H33.1566V3.476H31.2326V3.088H31.4806V1.524H31.2766V1.136H31.4806V0.736ZM31.8806 3.088H32.5406V2.812H31.8806V3.088ZM32.5406 1.524H31.8806V1.804H32.5406V1.524ZM31.8806 2.448H32.5406V2.168H31.8806V2.448ZM32.5966 3.5C32.7526 3.7 32.8766 3.876 32.9686 4.028C33.1806 3.68 33.2886 3.26 33.2926 2.764V0.836H34.7446V3.98C34.7446 4.244 34.6086 4.38 34.3366 4.38H33.9206L33.8086 3.972C33.9526 3.984 34.0846 3.992 34.2046 3.992C34.2846 3.992 34.3246 3.936 34.3246 3.828V3.14H33.6846C33.6246 3.664 33.4646 4.1 33.2046 4.448L32.9126 4.184L32.6726 4.352C32.5766 4.16 32.4406 3.944 32.2726 3.704L32.5966 3.5ZM31.6926 3.512L32.0246 3.672C31.8806 3.96 31.7166 4.204 31.5286 4.412L31.1926 4.172C31.3846 3.988 31.5526 3.768 31.6926 3.512ZM33.7086 2.184V2.76H34.3246V2.184H33.7086ZM34.3246 1.804V1.228H33.7086V1.804H34.3246ZM36.5806 0.864H38.7806V1.256H37.8806V2.644H38.9046V3.04H37.8806V4.42H37.4726V3.04H36.4646V2.644H37.4726V1.256H36.5806V0.864ZM38.3446 1.392L38.7086 1.488C38.6286 1.872 38.5246 2.204 38.4006 2.492L38.0526 2.368C38.1646 2.112 38.2606 1.784 38.3446 1.392ZM36.9726 1.404C37.0766 1.696 37.1726 2.032 37.2566 2.412L36.9006 2.5C36.8286 2.16 36.7326 1.836 36.6166 1.524L36.9726 1.404ZM35.7526 0.74C36.0046 0.936 36.2206 1.132 36.4006 1.324L36.1126 1.616C35.9606 1.432 35.7406 1.236 35.4566 1.028L35.7526 0.74ZM35.1846 1.896H36.1366V3.54C36.2366 3.448 36.3446 3.344 36.4566 3.232L36.5726 3.672C36.3246 3.908 36.0646 4.12 35.7846 4.308L35.6286 3.932C35.6966 3.872 35.7326 3.8 35.7326 3.716V2.296H35.1846V1.896ZM40.0166 0.68L40.4126 0.864C40.3086 1.18 40.1766 1.48 40.0166 1.76V4.424H39.5966V2.376C39.5006 2.496 39.3966 2.616 39.2926 2.728L39.1526 2.284C39.5406 1.828 39.8286 1.296 40.0166 0.68ZM40.3166 1.464H41.3646V0.72H41.7886V1.464H42.8846V1.868H41.7886V2.588H42.6606V4.416H42.2486V4.26H40.9326V4.416H40.5166V2.588H41.3646V1.868H40.3166V1.464ZM40.9326 3.86H42.2486V2.984H40.9326V3.86ZM43.6246 0.692L44.4526 2.56L43.6246 4.428L43.2806 4.272L44.0406 2.56L43.2806 0.848L43.6246 0.692ZM44.3206 0.692L45.1486 2.56L44.3206 4.428L43.9766 4.272L44.7366 2.56L43.9606 0.848L44.3206 0.692Z" fill="white"/>
<g clip-path="url(#clip0_249_904)">
<path d="M0 0.600027H4V4.60003H0V0.600027Z" fill="white"/>
<path d="M0 2.05471H4V3.14534H0V2.05471Z" fill="#002F6C"/>
<path d="M0.962451 0.600027H2.05308V4.60003H0.96167L0.962451 0.600027Z" fill="#002F6C"/>
</g>
<defs>
<clipPath id="clip0_249_904">
<rect y="0.600027" width="4" height="4" rx="2" fill="white"/>
</clipPath>
</defs>
</svg>
