<svg width="118" height="14" viewBox="0 0 118 14" fill="none" xmlns="http://www.w3.org/2000/svg">
<path d="M4.44296 1.12606L4.75239 1.3207L3.71306 2.90196L4.19883 4.72401L3.86028 4.81634L3.33375 2.84207L4.44296 1.12606ZM5.11859 1.23274L5.41222 1.42489L4.38869 3.00863L4.87446 4.83069L4.53591 4.92302L4.00938 2.94874L5.11859 1.23274Z" fill="white"/>
<path d="M7.00927 1.58133C7.12735 1.80306 7.23828 2.04388 7.33812 2.30317L7.07349 2.38594L7.89085 2.51829C8.06944 2.31623 8.23927 2.06819 8.3997 1.7781L8.75093 1.93627C8.62186 2.18281 8.47358 2.39788 8.31334 2.58669L9.06357 2.70817L9.00475 3.07144L7.71752 2.86301L7.6977 2.98542C7.65911 3.17367 7.61124 3.34421 7.55739 3.50163L9.12892 3.75609L9.0701 4.11936L7.6881 3.89559C7.80422 4.40469 8.23705 4.85972 8.98596 5.26463L8.7073 5.5842C7.93308 5.11036 7.48081 4.57519 7.34194 3.98136C7.24081 4.15543 7.12709 4.30721 7.00141 4.43273C6.67537 4.74463 6.19296 4.94612 5.55419 5.03719L5.40193 4.67621C6.04198 4.57724 6.49291 4.39497 6.75867 4.13004C6.85224 4.02768 6.93587 3.91156 7.00894 3.78562L5.65853 3.56696L5.71735 3.20369L7.17042 3.43897C7.22887 3.27825 7.28069 3.10835 7.31863 2.92404L7.33845 2.80164L6.04727 2.59257L6.10609 2.2293L6.95109 2.36612C6.85786 2.11601 6.75227 1.89225 6.63889 1.69155L7.00927 1.58133Z" fill="white"/>
<path d="M10.1308 2.20583L13.1188 2.69679L13.0585 3.06387L11.7993 2.85698L11.6411 3.82006L13.1765 4.07235L13.1149 4.44732L11.5795 4.19503L11.3583 5.54099C11.3129 5.81728 11.1435 5.93538 10.8554 5.88803L10.2278 5.78491L10.2085 5.40881C10.4079 5.45373 10.6 5.4934 10.7816 5.52324C10.9079 5.54399 10.9807 5.49516 10.9989 5.38464L11.2045 4.13342L9.60199 3.87011L9.6636 3.49513L11.2661 3.75845L11.4244 2.79536L10.0705 2.57291L10.1308 2.20583Z" fill="white"/>
<path d="M14.0639 4.51502L13.8911 5.5649C14.2265 5.54711 14.5835 5.52072 14.9556 5.47655L14.9978 5.83617C14.4902 5.89049 13.9741 5.92312 13.4526 5.93866L13.354 5.60217C13.4571 5.56645 13.5168 5.49925 13.5331 5.40058L13.9273 3.0048C14.4336 3.00704 14.9005 2.97846 15.3284 2.9151L15.512 3.25338C15.1418 3.31004 14.723 3.34247 14.2548 3.35462L14.123 4.15585L15.2123 4.33509L15.1532 4.69426L14.0639 4.51502ZM16.2863 6.28331L15.9153 6.22226L15.8724 5.84226L16.2224 5.90795C16.325 5.92484 16.386 5.87408 16.4042 5.76356L16.7406 3.71906L15.9631 3.59112L15.4526 6.6934L15.0737 6.63105L15.6426 3.17355L17.178 3.42618L16.7701 5.90485C16.7214 6.20087 16.5586 6.32812 16.2863 6.28331Z" fill="white"/>
<path d="M17.6184 4.60562L18.1171 3.50321L18.482 3.62717L18.1583 4.32437L18.7427 4.41906C18.8651 4.13903 18.9742 3.84064 19.074 3.52454L19.4494 3.63399C19.3514 3.93824 19.2449 4.22083 19.1336 4.4824L20.942 4.77544L20.8838 5.13476L18.9806 4.82636C18.92 4.95026 18.8567 5.06563 18.7981 5.17769L20.3775 5.43362L20.3263 5.74949C20.1711 6.05664 19.9303 6.31747 19.5959 6.53073C19.8691 6.74519 20.2074 6.95805 20.6069 7.16865L20.3558 7.49267C19.9062 7.24151 19.5348 6.98278 19.2443 6.72499C18.8972 6.89161 18.4822 7.02697 17.9993 7.13107L17.8595 6.74372C18.2774 6.66555 18.6425 6.56264 18.9504 6.43828C18.727 6.19137 18.5693 5.9389 18.4807 5.68547C18.1018 6.22378 17.6669 6.63148 17.1803 6.9092L17.0431 6.53038C17.666 6.13696 18.1789 5.54742 18.5818 4.76174L17.6184 4.60562ZM18.7865 5.52429C18.879 5.77837 19.0491 6.02881 19.2975 6.27166C19.5789 6.1106 19.7957 5.92286 19.9434 5.71176L18.7865 5.52429ZM20.1197 3.69805C20.3589 3.94752 20.554 4.1939 20.7057 4.43324L20.3937 4.65823C20.269 4.42731 20.0825 4.17826 19.8267 3.90585L20.1197 3.69805Z" fill="white"/>
<path d="M24.2482 4.33561L24.558 4.52969L23.5216 6.11285L24.0107 7.93401L23.6723 8.02696L23.1422 6.05365L24.2482 4.33561ZM24.924 4.44105L25.218 4.63266L24.1974 6.21828L24.6865 8.03945L24.3481 8.1324L23.818 6.15909L24.924 4.44105Z" fill="white"/>
<path d="M26.9667 4.91287L29.1435 5.23158L29.0948 5.56403L26.918 5.24532L26.9667 4.91287ZM27.1011 5.48638L28.8425 5.74135L28.7075 6.66351L26.966 6.40855L27.1011 5.48638ZM28.3987 6.31511L28.4468 5.98661L27.4098 5.83479L27.3617 6.16328L28.3987 6.31511ZM28.852 6.91914L28.5842 8.74765L28.228 8.6955L28.2495 8.54906L26.8563 8.34508L26.8349 8.49152L26.4787 8.43937L26.7464 6.61086L28.852 6.91914ZM26.9039 8.02054L27.4223 8.09645L27.4768 7.72442L26.9583 7.64851L26.9039 8.02054ZM27.7785 8.14861L28.297 8.22452L28.3515 7.85248L27.833 7.77657L27.7785 8.14861ZM27.0041 7.33584L27.5226 7.41175L27.5753 7.05159L27.0568 6.97568L27.0041 7.33584ZM27.9315 7.10375L27.8788 7.46391L28.3972 7.53982L28.45 7.17966L27.9315 7.10375ZM25.7853 6.7693C25.6395 6.88137 25.4859 6.99227 25.3203 7.10144L25.2635 6.68885C25.797 6.33037 26.1739 5.96512 26.3987 5.58972L25.528 5.46223L25.5807 5.10207L26.1031 5.17856C26.0703 5.01609 26.033 4.85701 25.9871 4.70072L26.3539 4.65334C26.404 4.86282 26.4362 5.05753 26.4554 5.23013L26.8314 5.28518L26.785 5.60181C26.6483 5.87286 26.4607 6.13243 26.2183 6.37992C26.383 6.52531 26.5335 6.68479 26.6664 6.85383L26.4193 7.13299C26.3344 6.99523 26.2471 6.8733 26.1581 6.76325L25.9252 8.35428L25.5611 8.30097L25.7853 6.7693Z" fill="white"/>
<path d="M32.7246 7.27383L31.884 7.16213L31.8519 7.40401L32.748 7.52308L32.7069 7.83237L31.8108 7.71329L31.7781 7.95913L32.7892 8.09348L32.7476 8.40673L31.7365 8.27237L31.6938 8.59355L31.329 8.54508L31.3717 8.2239L30.5033 8.10851L30.5449 7.79526L31.4133 7.91065L31.446 7.66481L30.7005 7.56576L30.7416 7.25648L31.4871 7.35553L31.5192 7.11366L30.857 7.02567L30.8986 6.71242L31.5608 6.80041L31.5935 6.55457L30.737 6.44077L30.7776 6.13545L31.6341 6.24926L31.6657 6.01135L31.0035 5.92336L31.0446 5.61408L31.7068 5.70207L31.7421 5.4364L32.1069 5.48488L32.0716 5.75054L32.9122 5.86224L32.8395 6.40943L33.0774 6.44105L33.0368 6.74636L32.7989 6.71475L32.7246 7.27383ZM32.0305 6.05982L31.9989 6.29773L32.4786 6.36148L32.5102 6.12358L32.0305 6.05982ZM31.9583 6.60305L31.9256 6.84889L32.4054 6.91264L32.4381 6.6668L31.9583 6.60305ZM31.4102 8.69306C31.8583 8.7526 32.3238 8.80235 32.8017 8.84972L32.6903 9.20212L31.5285 9.04774C30.7989 8.95079 30.2937 8.77471 30.0079 8.5269C29.9719 8.49387 29.9439 8.4619 29.9232 8.43495C29.7732 8.59256 29.6064 8.72374 29.4225 8.83246L29.2194 8.47861C29.4096 8.38284 29.5714 8.25906 29.7085 8.10781C29.5913 7.86626 29.5087 7.57686 29.4567 7.23908L29.7892 7.16624C29.825 7.4131 29.8735 7.62534 29.9391 7.7995C30.0793 7.56392 30.1807 7.28686 30.2467 6.97281L29.5329 6.87797L29.5709 6.59248C29.8219 6.34337 30.0552 6.07577 30.2786 5.79072L29.6878 5.71222L29.7353 5.35535L30.7464 5.48971L30.7053 5.79899C30.4826 6.10835 30.2697 6.37463 30.062 6.60125L30.6369 6.67765L30.6069 6.90366C30.5236 7.40909 30.3665 7.83209 30.1357 8.17264C30.1769 8.22655 30.2232 8.27305 30.2745 8.31215C30.5133 8.48914 30.8918 8.61611 31.4102 8.69306Z" fill="white"/>
<path d="M34.9426 5.83685L35.3121 5.87994L35.1939 6.89307L34.8244 6.84998L34.9426 5.83685ZM33.8383 7.53636C33.6593 7.55173 33.4803 7.5671 33.3018 7.5785L33.1867 7.21874C34.4088 7.16797 35.3658 6.97352 36.0536 6.63492C35.9346 6.51633 35.8075 6.39682 35.6726 6.27637L35.9551 6.06367C36.3275 6.39302 36.6402 6.71542 36.8859 7.02597L36.5927 7.26159C36.5063 7.13876 36.408 7.01454 36.2939 6.88846C35.912 7.08958 35.4668 7.24706 34.9537 7.36442L36.3602 7.52845L36.1086 9.68583L35.7391 9.64274L35.7567 9.49176L34.0046 9.28741L33.986 9.44633L33.6205 9.4037L33.8383 7.53636ZM34.0435 8.95367L35.7956 9.15802L35.8266 8.89183L34.0745 8.68748L34.0435 8.95367ZM34.1097 8.38553L35.8619 8.58987L35.8901 8.34751L34.138 8.14317L34.1097 8.38553ZM34.1728 7.84519L35.9249 8.04953L35.9541 7.79923L34.202 7.59488L34.1728 7.84519ZM34.2924 5.99056L34.5313 6.25602C34.263 6.51871 33.9433 6.73916 33.5727 6.9134L33.387 6.60582C33.7369 6.43722 34.0384 6.23478 34.2924 5.99056Z" fill="white"/>
<path d="M37.5563 6.39406L39.0373 6.53804L39.0021 6.90033L37.521 6.75635L37.5563 6.39406ZM37.3045 7.45467L39.0761 7.6269L39.0405 7.99318L38.1447 7.90609C37.9484 8.43759 37.7863 8.82371 37.658 9.06845C37.9262 9.03826 38.2006 8.98456 38.4771 8.91096C38.4045 8.70698 38.3307 8.51494 38.2558 8.33485L38.5894 8.21054C38.74 8.56277 38.8792 8.95006 39.0073 9.36842L38.6646 9.50389L38.5858 9.23903C38.1539 9.34171 37.6928 9.41343 37.1985 9.4538L37.1418 9.08659C37.1824 9.0825 37.2074 9.07288 37.2245 9.06248C37.3471 8.91766 37.5303 8.52153 37.7785 7.87049L37.2689 7.82095L37.3045 7.45467ZM39.7449 6.36972L40.1191 6.4061L40.044 7.17846L40.904 7.26206C40.7778 8.55994 40.6801 9.35823 40.6149 9.65732C40.5417 9.95564 40.3239 10.0872 39.9616 10.052C39.8979 10.0458 39.7872 10.027 39.6287 10.0035L39.5737 9.66059C39.7158 9.68647 39.8385 9.70643 39.942 9.71649C40.1172 9.73352 40.226 9.64765 40.2764 9.45964C40.3185 9.27485 40.3912 8.65095 40.5021 7.59272L40.0084 7.54473L40.005 7.58056C39.8815 8.72599 39.5256 9.53535 38.9326 10.0122L38.6744 9.73392C39.2018 9.31096 39.5217 8.58251 39.6307 7.54418L39.6342 7.50835L39.1286 7.45919L39.1642 7.09292L39.6698 7.14207L39.7449 6.36972Z" fill="white"/>
<path d="M41.6897 6.56972C41.9548 6.77457 42.1764 6.97206 42.3537 7.17019L42.0704 7.41326C41.9163 7.22494 41.6996 7.01579 41.4201 6.78978L41.6897 6.56972ZM41.5347 7.54474C41.7842 7.74437 41.9898 7.94065 42.1556 8.13387L41.8722 8.37694C41.7338 8.19383 41.5288 7.98958 41.2652 7.7648L41.5347 7.54474ZM41.8073 8.70093L42.1325 8.85421C41.932 9.32427 41.7137 9.76489 41.474 10.1718L41.1392 9.98566C41.3915 9.57172 41.6129 9.14338 41.8073 8.70093ZM42.6702 6.70499L44.6205 6.85435L44.5343 7.97906L42.5841 7.8297L42.6702 6.70499ZM44.1885 7.67576L44.2007 7.51623L42.9883 7.42338L42.976 7.58291L44.1885 7.67576ZM43.0081 7.16414L44.2206 7.25699L44.2325 7.10145L43.02 7.00859L43.0081 7.16414ZM42.3295 7.95863L44.7544 8.14434L44.6896 8.98987L42.2647 8.80416L42.3295 7.95863ZM44.368 8.68442L44.3903 8.39327L44.0114 8.36425L43.9891 8.6554L44.368 8.68442ZM43.67 8.63096L43.6923 8.33982L43.3493 8.31355L43.327 8.6047L43.67 8.63096ZM43.008 8.58026L43.0303 8.28911L42.6474 8.25979L42.6251 8.55094L43.008 8.58026ZM42.471 9.30538L42.2557 9.28888L42.2801 8.96982L44.5574 9.14423L44.5361 9.42341C44.3459 9.60141 44.122 9.74874 43.8677 9.87369C44.1368 9.97453 44.443 10.0622 44.7863 10.1366L44.5508 10.4355C44.1262 10.3227 43.7592 10.1903 43.4499 10.0383C43.0714 10.1617 42.6444 10.2373 42.1603 10.2725L42.0221 9.92892C42.3924 9.91315 42.7286 9.8707 43.0348 9.80187C42.8056 9.65193 42.6177 9.4851 42.471 9.30538ZM43.4326 9.68792C43.6388 9.61545 43.8262 9.5255 43.9946 9.42206L42.8858 9.33714C43.0365 9.46502 43.216 9.58307 43.4326 9.68792Z" fill="white"/>
<path d="M46.9717 6.90873L47.2513 6.92429C47.724 7.49944 48.2751 7.96278 48.9128 8.31074L48.6847 8.66662C48.0523 8.29491 47.5217 7.8247 47.0926 7.25599C46.6408 7.74364 46.0532 8.15163 45.3376 8.48439L45.1544 8.10562C45.8724 7.80104 46.4795 7.40215 46.9717 6.90873ZM46.9758 7.98663L47.3552 8.00774L47.3077 8.86242L48.366 8.92131L48.3458 9.28474L47.2874 9.22586L47.2386 10.1045L48.5845 10.1794L48.564 10.5468L45.2172 10.3606L45.2377 9.99316L45.8128 10.0252L45.8974 8.50352L46.2729 8.52441L46.1882 10.0461L46.8591 10.0834L46.9758 7.98663Z" fill="white"/>
<path d="M50.4347 7.10209L50.8145 7.11543L50.7041 10.2575L51.1838 10.2743L51.2942 7.13228L51.6739 7.14562L51.5636 10.2877L52.7308 10.3287L52.7178 10.7005L49.152 10.5752L49.165 10.2034L50.3243 10.2441L50.4347 7.10209ZM52.3953 7.91541L52.7278 8.02315C52.5517 8.70539 52.3348 9.29814 52.0768 9.8054L51.7412 9.67354C51.9814 9.21769 52.2022 8.62907 52.3953 7.91541ZM49.6533 7.81109C49.8384 8.35392 49.9968 8.97187 50.1325 9.66506L49.7817 9.74079C49.6678 9.1084 49.5132 8.4946 49.3259 7.90366L49.6533 7.81109Z" fill="white"/>
<path d="M55.5351 7.22892L55.919 7.2349C55.9137 7.57886 55.8966 7.90263 55.868 8.19822C56.0606 9.18534 56.4084 9.97485 56.9112 10.5668L56.6343 10.8825C56.2463 10.3644 55.9519 9.74371 55.7472 9.02044L55.7128 9.17592C55.5581 9.86159 55.2093 10.4202 54.6664 10.8598L54.4153 10.5439C54.8773 10.159 55.1808 9.6797 55.3338 9.10601C55.4533 8.62381 55.5191 7.99676 55.5351 7.22892ZM53.7632 7.20531C54.0201 7.40534 54.237 7.60474 54.4139 7.80752L54.1498 8.06744C53.9928 7.87697 53.7759 7.67357 53.4952 7.46117L53.7632 7.20531ZM53.2172 8.35695L54.1411 8.37134L54.1151 10.0431C54.2407 9.94108 54.3745 9.82315 54.5206 9.68941L54.6105 10.0829C54.3508 10.3148 54.0756 10.5226 53.7806 10.71L53.6419 10.3678C53.7108 10.3129 53.7479 10.2454 53.7492 10.1615L53.7715 8.72963L53.2115 8.72091L53.2172 8.35695Z" fill="white"/>
<path d="M57.7806 8.37696L60.1566 8.37479L60.1569 8.73479L59.1729 8.73569L59.1735 9.33569L60.3255 9.33464L60.3258 9.69464L59.1738 9.69569L59.1745 10.4317C59.4465 10.4714 59.7785 10.4911 60.1785 10.4948C60.3785 10.4946 60.5865 10.4824 60.7945 10.4662L60.7229 10.8423L60.3469 10.8426C59.5069 10.8434 58.9028 10.7679 58.5427 10.6163C58.2865 10.4965 58.0784 10.3207 57.9182 10.0888C57.7665 10.409 57.5787 10.6811 57.3549 10.9054L57.1066 10.6016C57.4823 10.2092 57.7378 9.681 57.8652 9.02489L58.2333 9.08855C58.1855 9.32059 58.1257 9.54065 58.0579 9.74071C58.2461 10.0525 58.4823 10.2563 58.7624 10.3441L58.7984 10.352L58.7969 8.73603L57.7809 8.73696L57.7806 8.37696ZM60.6399 7.59435L60.6407 8.50235L60.2687 8.50269L60.2682 7.94669L57.6602 7.94907L57.6607 8.52507L57.2887 8.52541L57.2879 7.59741L58.7919 7.59604C58.7358 7.46809 58.6717 7.35215 58.6076 7.24821L59.0155 7.18383C59.0716 7.30778 59.1278 7.44373 59.1799 7.59568L60.6399 7.59435Z" fill="white"/>
<path d="M64.2471 8.76944L64.2525 9.60943L62.3045 9.62192L62.3059 9.83391L64.4418 9.82022L64.4487 10.8882L64.0687 10.8906L64.0678 10.7466L62.3118 10.7579L62.3127 10.8979L61.9327 10.9003L61.9191 8.78437L64.2471 8.76944ZM62.3096 10.4219L64.0656 10.4106L64.0638 10.1226L62.3078 10.1339L62.3096 10.4219ZM62.3026 9.31792L63.8785 9.30782L63.877 9.07582L62.3011 9.08593L62.3026 9.31792ZM64.7959 8.26592L64.8008 9.0299L64.4288 9.03228L64.4259 8.58829L61.73 8.60558L61.7328 9.04957L61.3608 9.05195L61.3559 8.28797L62.9039 8.27805C62.8714 8.19825 62.8349 8.12648 62.7985 8.06272L63.1342 8.00456L63.0659 7.961C63.2483 7.71983 63.3827 7.46296 63.4609 7.18645L63.8254 7.26412C63.8019 7.33227 63.7823 7.3964 63.7587 7.46055L64.8707 7.45342L64.8728 7.78541L64.2208 7.78959C64.2854 7.87718 64.3379 7.96485 64.3824 8.04456L64.0472 8.17071C63.9824 8.04313 63.9056 7.91562 63.8168 7.79218L63.6128 7.79349C63.5457 7.92592 63.4705 8.05041 63.3872 8.16294L63.1944 8.04018C63.2268 8.11197 63.2554 8.19179 63.2879 8.27558L64.7959 8.26592ZM61.8928 7.80452C61.8058 7.94908 61.7106 8.08569 61.6074 8.21036L61.2741 8.00449C61.5045 7.75501 61.6668 7.48196 61.7649 7.19333L62.1294 7.27099C62.1059 7.33914 62.0783 7.40732 62.0547 7.47147L63.0627 7.46501L63.0648 7.797L62.4648 7.80085C62.5375 7.90039 62.6021 7.99598 62.6507 8.08767L62.3035 8.22189C62.2346 8.07833 62.1577 7.93882 62.0688 7.80339L61.8928 7.80452Z" fill="white"/>
<path d="M66.6933 7.31116L68.7172 7.29039L68.7369 9.20228L67.9169 9.2107L67.921 9.61068L68.793 9.60173L68.7966 9.95371L67.9246 9.96266L67.9289 10.3786L68.9408 10.3683L68.9446 10.7322L66.5247 10.7571L66.521 10.3931L67.5529 10.3825L67.5486 9.96652L66.6727 9.97552L66.6691 9.62354L67.545 9.61454L67.5409 9.21456L66.713 9.22306L66.6933 7.31116ZM68.3694 8.87004L68.3648 8.41406L67.9088 8.41875L67.9135 8.87472L68.3694 8.87004ZM67.5375 8.87858L67.5328 8.42261L67.0688 8.42737L67.0735 8.88334L67.5375 8.87858ZM67.0655 8.09939L67.5294 8.09462L67.5247 7.63865L67.0608 7.64341L67.0655 8.09939ZM67.9007 7.63479L67.9054 8.09076L68.3614 8.08608L68.3567 7.63011L67.9007 7.63479ZM65.3269 8.64126L65.7229 8.6372L65.7141 7.78124L65.2581 7.78592L65.2544 7.42594L66.5464 7.41268L66.5501 7.77266L66.0981 7.7773L66.1069 8.63326L66.5109 8.62911L66.5146 8.99309L66.1106 8.99724L66.1188 9.79719C66.2543 9.7478 66.3858 9.69845 66.5133 9.64114L66.517 10.0091C66.1505 10.1569 65.7598 10.2849 65.3409 10.3892L65.2451 10.0262C65.4128 9.99645 65.5765 9.95877 65.736 9.91713L65.7266 9.00118L65.3307 9.00524L65.3269 8.64126Z" fill="white"/>
<path d="M71.0268 10.0302C70.7071 10.3782 70.1904 10.6486 69.4808 10.8415L69.2688 10.5201C70.0103 10.3149 70.5152 10.0606 70.7794 9.75328L70.8462 9.66045L69.2944 9.67967L69.2899 9.3197L71.0378 9.29805C71.1308 9.05688 71.1835 8.7882 71.1958 8.49203L71.1898 8.00407L71.5577 7.99951L71.5638 8.48747C71.5554 8.7836 71.5148 9.05212 71.4377 9.29309L72.6936 9.27753L72.6981 9.63751L71.2862 9.655C71.2666 9.68724 71.247 9.71949 71.2314 9.75168C71.786 9.96083 72.2972 10.2105 72.7647 10.4927L72.5608 10.8233C72.0607 10.4935 71.5494 10.2318 71.0268 10.0302ZM69.8524 8.55267C70.1379 8.66515 70.3996 8.80192 70.6376 8.96298L70.4453 9.26538C70.195 9.08047 69.9332 8.9397 69.668 8.83898L69.8524 8.55267ZM70.2375 7.98786C70.5228 8.09633 70.7846 8.2331 71.0186 8.39422L70.8263 8.69662C70.576 8.51571 70.3182 8.37089 70.053 8.27017L70.2375 7.98786ZM72.6351 7.45812L72.6453 8.27806L72.2773 8.28261L72.2714 7.81065L69.6636 7.84296L69.6695 8.31492L69.3015 8.31948L69.2914 7.49954L70.7912 7.48096C70.7459 7.36952 70.7006 7.26607 70.6514 7.17067L71.0386 7.10187C71.0879 7.21327 71.1335 7.33671 71.1752 7.4762L72.6351 7.45812Z" fill="white"/>
<path d="M73.2886 7.62924L73.8685 7.62188C73.7983 7.44676 73.7242 7.28368 73.6424 7.13671L74.0295 7.0638C74.0996 7.22692 74.1699 7.41004 74.2365 7.61722L74.7085 7.61123L74.7131 7.9792L73.9332 7.98909L73.9391 8.45705L74.6471 8.44808C74.6603 9.48799 74.6484 10.1322 74.6195 10.3766C74.5826 10.6171 74.4082 10.7433 74.0882 10.7473C74.0562 10.7478 74.0001 10.7405 73.924 10.7334L73.8357 10.3945C73.9078 10.4056 73.9719 10.4128 74.0279 10.4121C74.1679 10.4103 74.2511 10.3413 74.2773 10.2049C74.2956 10.0687 74.3017 9.60055 74.2996 8.80451L73.9396 8.80908C73.9268 9.69331 73.7871 10.3471 73.5204 10.7705L73.2333 10.5262C73.4723 10.1311 73.5883 9.49759 73.5814 8.6336L73.5732 7.99366L73.2933 7.99721L73.2886 7.62924ZM75.2874 7.83591C75.159 8.12556 75.0142 8.37542 74.8529 8.58948L74.6012 8.29665C74.8334 7.99768 75.0281 7.58317 75.1895 7.05709L75.5465 7.13257C75.508 7.25306 75.4694 7.36556 75.4308 7.47806L76.8107 7.46056L76.8153 7.81653L75.2874 7.83591ZM76.6809 8.26227C76.6906 9.02621 76.6765 9.49043 76.6465 9.65082C76.6125 9.81126 76.4656 9.89713 76.2016 9.90048L76.1816 9.90073L76.0816 9.58198C76.1496 9.58111 76.2096 9.58435 76.2616 9.58369C76.3056 9.58314 76.3331 9.54278 76.3401 9.46669C76.3473 9.39859 76.3522 9.15451 76.3469 8.73855L76.0443 8.85039L76.0608 10.1543L75.7089 10.1587L75.6939 8.97884L75.3873 9.09074L75.4005 10.1347C75.4028 10.3106 75.4639 10.4019 75.5839 10.4004L76.3399 10.3908C76.4238 10.3897 76.4876 10.3689 76.5271 10.3284C76.5745 10.2798 76.6047 10.1394 76.6177 9.9032L76.947 10.003C76.9154 10.3475 76.8579 10.5522 76.7709 10.6253C76.6916 10.6863 76.572 10.7198 76.4041 10.722L75.4801 10.7337C75.2082 10.7371 75.0699 10.5589 75.0654 10.2069L75.0528 9.21499L74.7701 9.31859L74.7658 8.97461L75.0485 8.87102L75.0417 8.33506L75.3777 8.3308L75.3829 8.74677L75.6895 8.63087L75.6815 8.00292L76.0335 7.99846L76.0399 8.50242L76.6809 8.26227Z" fill="white"/>
<path d="M78.1637 7.57637L77.5397 7.58322L77.5362 7.26324L78.8561 7.24875C78.8234 7.18111 78.7907 7.11746 78.7581 7.06182L79.1694 6.9933C79.2022 7.06894 79.2391 7.15254 79.2721 7.24419L80.656 7.229L80.6596 7.54898L80.0236 7.55596L79.9102 7.79722L80.8502 7.7869L80.8538 8.11488L77.358 8.15325L77.3544 7.82527L78.2623 7.8153L78.1637 7.57637ZM78.6583 7.81096L79.5143 7.80156L79.6276 7.56031L78.5597 7.57203L78.6583 7.81096ZM77.7758 8.31667L80.4396 8.28744L80.4533 9.53536L77.7895 9.5646L77.7758 8.31667ZM80.0782 9.25146L80.076 9.05147L78.1561 9.07255L78.1583 9.27253L80.0782 9.25146ZM78.1531 8.80056L80.073 8.77949L80.0709 8.5835L78.151 8.60457L78.1531 8.80056ZM77.6392 9.72226L78.008 9.79421C77.9195 10.1112 77.7945 10.3846 77.6331 10.6184L77.3028 10.418C77.4605 10.2002 77.5699 9.97103 77.6392 9.72226ZM79.6935 10.6478L78.7176 10.6585C78.4096 10.6619 78.2561 10.5235 78.2531 10.2516L78.2474 9.73958L78.6314 9.73537L78.6362 10.1673C78.6373 10.2673 78.6978 10.3187 78.8218 10.3173L79.6178 10.3086C79.6898 10.3078 79.7416 10.2912 79.7693 10.2629C79.8089 10.2265 79.8357 10.1222 79.8498 9.94601L80.2111 10.0581C80.1821 10.3384 80.128 10.511 80.0406 10.568C79.9652 10.6168 79.8495 10.6461 79.6935 10.6478ZM79.2176 9.56493C79.3793 9.72316 79.5009 9.86184 79.5862 9.98491L79.2727 10.2084C79.1792 10.0774 79.0536 9.93075 78.8958 9.77247L79.2176 9.56493ZM80.4664 9.63523C80.6893 9.8928 80.8598 10.1189 80.9779 10.3097L80.6643 10.5331C80.5379 10.3185 80.3714 10.0843 80.1606 9.83059L80.4664 9.63523Z" fill="white"/>
<path d="M84.266 7.12861L84.2821 9.36455L83.8982 9.36732L83.8847 7.50337L82.2127 7.51547L82.2262 9.38342L81.8422 9.3862L81.826 7.14626L84.266 7.12861ZM82.8344 7.73898L83.2103 7.73626L83.2158 8.48424C83.2093 8.70029 83.1867 8.89646 83.1481 9.08074L83.4881 9.07828L83.4949 10.0223C83.496 10.1703 83.5485 10.2459 83.6525 10.2451L84.2365 10.2409C84.2845 10.2406 84.3323 10.2202 84.3721 10.1839C84.4158 10.1436 84.4466 9.97537 84.4604 9.67927L84.8253 9.79663C84.7841 10.1849 84.7297 10.4133 84.6623 10.4858C84.5827 10.5504 84.475 10.5872 84.3391 10.5962L83.5511 10.6019C83.2631 10.604 83.1178 10.433 83.1154 10.093L83.1092 9.23703C83.0351 9.50157 82.9287 9.72635 82.7861 9.91938C82.5246 10.2573 82.0984 10.5164 81.5078 10.7047L81.3015 10.3861C81.8921 10.1979 82.2944 9.95894 82.5043 9.66942C82.7101 9.36392 82.8193 8.97112 82.8398 8.48696L82.8344 7.73898Z" fill="white"/>
<path d="M85.907 6.94569L86.263 6.94461C86.0958 7.21711 85.9686 7.4935 85.8815 7.77377C85.7625 8.11813 85.7076 8.4663 85.7086 8.8143C85.7097 9.15829 85.7667 9.50612 85.8878 9.85376C85.9766 10.1295 86.1055 10.4051 86.2743 10.6806L85.9183 10.6817C85.7295 10.4182 85.5847 10.1467 85.4838 9.86698C85.3588 9.52736 85.2978 9.17954 85.2967 8.81955C85.2956 8.45555 85.3545 8.10337 85.4775 7.76699C85.5766 7.47869 85.7198 7.20625 85.907 6.94569Z" fill="white"/>
<path d="M88.9665 8.92311L88.6225 8.92231L88.6233 8.56631L89.6833 8.56879L89.6825 8.92479L89.3385 8.92398L89.3362 9.90798C89.4962 9.87235 89.6563 9.83273 89.8124 9.78909L89.8116 10.1451C89.4634 10.2403 89.0912 10.3234 88.695 10.3905L88.6039 10.0263C88.7239 10.0105 88.844 9.99483 88.964 9.97511L88.9665 8.92311ZM90.5225 10.6308C90.3785 10.6304 90.2467 10.5221 90.1352 10.3138C90.0078 10.0615 89.9166 9.72933 89.8615 9.32121C89.8144 8.96909 89.7834 8.54102 89.7686 8.02898L88.5326 8.02609L88.5334 7.6581L89.7614 7.66097C89.7539 7.43695 89.7545 7.20095 89.7551 6.96095L90.1231 6.96181C90.1225 7.20981 90.1219 7.44181 90.1294 7.66183L90.8934 7.66361L90.8926 8.03161L90.1366 8.02984C90.1511 8.64188 90.19 9.13397 90.2451 9.5021C90.3241 9.95829 90.4155 10.1945 90.5235 10.2148C90.5875 10.2069 90.652 9.97106 90.7251 9.51522L91.0245 9.75993C90.8792 10.3396 90.7145 10.6312 90.5225 10.6308ZM90.4591 6.9586C90.6266 7.14299 90.7542 7.30729 90.8499 7.44351L90.5855 7.62689C90.4899 7.47467 90.3583 7.30636 90.1987 7.12199L90.4591 6.9586ZM87.827 7.00044C88.0745 7.19702 88.282 7.39351 88.4496 7.5939L88.189 7.85729C88.0374 7.66894 87.8259 7.46844 87.5624 7.25982L87.827 7.00044ZM87.2842 8.15918L88.1842 8.16128L88.1804 9.80928C88.2726 9.71749 88.3688 9.61772 88.4691 9.50595L88.5682 9.90618C88.3436 10.1457 88.1071 10.3571 87.8547 10.5405L87.7115 10.2002C87.7756 10.1443 87.8118 10.0804 87.8119 10.0044L87.8154 8.52442L87.2834 8.52318L87.2842 8.15918Z" fill="white"/>
<path d="M92.7514 7.21736L94.7033 7.23918L94.6991 7.61115L92.7472 7.58934L92.7514 7.21736ZM92.6402 8.21618L94.8641 8.24104L94.8599 8.61301L94.2359 8.60604L94.217 10.3019C94.2141 10.5579 94.0687 10.6843 93.7847 10.6811L93.2048 10.6746L93.1249 10.3017C93.3087 10.3198 93.4886 10.3298 93.6566 10.3317C93.7726 10.333 93.8331 10.2896 93.834 10.2056L93.852 8.60175L92.636 8.58815L92.6402 8.21618ZM92.0736 7.01377L92.4198 7.17765C92.1989 7.61521 91.8345 8.00316 91.3186 8.34941L91.2069 7.96814C91.5979 7.6965 91.8855 7.37969 92.0736 7.01377ZM92.2514 7.93181L92.5935 8.09565C92.4831 8.31043 92.3449 8.5129 92.1787 8.70305L92.1566 10.6789L91.7847 10.6748L91.8026 9.07087C91.6572 9.19325 91.5039 9.31155 91.3346 9.42566L91.2268 9.04843C91.6864 8.73355 92.0305 8.36137 92.2514 7.93181Z" fill="white"/>
<path d="M95.2849 6.9983L95.6408 7.00513C95.8198 7.26862 95.9585 7.54333 96.057 7.83327C96.1705 8.17151 96.2277 8.52467 96.2208 8.88861C96.2139 9.24854 96.1432 9.59525 96.0167 9.93288C95.9073 10.2108 95.7582 10.48 95.5691 10.7404L95.2132 10.7336C95.3825 10.4608 95.5157 10.1873 95.613 9.91314C95.7357 9.56743 95.8023 9.22064 95.8089 8.8767C95.8156 8.52877 95.7623 8.17968 95.6529 7.83352C95.5663 7.5518 95.4436 7.2734 95.2849 6.9983Z" fill="white"/>
<path d="M97.7121 7.04471L98.487 8.93537L97.6065 10.7792L97.2907 10.6262L98.1031 8.92452L97.3881 7.17961L97.7121 7.04471ZM98.3958 7.06405L99.1707 8.95471L98.2902 10.7986L97.9744 10.6456L98.7868 8.94385L98.0559 7.19849L98.3958 7.06405Z" fill="white"/>
<path d="M102.783 7.89757L102.667 10.6791L102.303 10.6639L102.312 10.4561L101.68 10.4297L101.667 10.7534L101.303 10.7382L101.424 7.84071L101.804 7.8566C101.885 7.6438 101.95 7.42633 101.992 7.19587L102.369 7.26371C102.32 7.48185 102.252 7.68316 102.168 7.87182L102.783 7.89757ZM101.695 10.078L102.327 10.1044L102.36 9.3171L101.728 9.29067L101.695 10.078ZM101.742 8.95097L102.374 8.97739L102.405 8.24204L101.773 8.21561L101.742 8.95097ZM103.463 8.88684C103.713 9.22559 103.905 9.51787 104.034 9.77151L103.725 9.97078C103.585 9.70065 103.389 9.40021 103.147 9.06579L103.463 8.88684ZM104.845 7.98787C104.788 9.36666 104.732 10.2171 104.679 10.5351C104.627 10.8212 104.429 10.957 104.089 10.9428C104.009 10.9395 103.866 10.9255 103.666 10.9051L103.589 10.5536C103.764 10.5689 103.916 10.5833 104.044 10.5886C104.204 10.5953 104.299 10.5152 104.33 10.3484C104.363 10.1496 104.403 9.47866 104.458 8.33999L103.455 8.29801C103.333 8.53312 103.196 8.74758 103.036 8.94105L102.821 8.63178C103.1 8.25915 103.304 7.79925 103.423 7.25175L103.797 7.31543C103.747 7.53756 103.683 7.74304 103.61 7.93619L104.845 7.98787Z" fill="white"/>
<path d="M105.767 7.40918C106.027 7.63634 106.242 7.86099 106.414 8.07914L106.132 8.32744C105.983 8.11864 105.772 7.89022 105.494 7.64195L105.767 7.40918ZM107.859 11.1185C107.64 11.1059 107.4 11.0883 107.145 11.0697C106.885 11.0508 106.675 11.0148 106.51 10.9653C106.353 10.9082 106.218 10.8044 106.106 10.6618C106.054 10.5907 106.008 10.556 105.96 10.5533C105.876 10.5485 105.722 10.72 105.498 11.0678L105.234 10.7923C105.452 10.4802 105.643 10.2868 105.807 10.216L105.872 9.08587L105.337 9.05531L105.357 8.70388L106.247 8.75473L106.161 10.2643C106.18 10.2814 106.199 10.3025 106.218 10.3276C106.303 10.4407 106.395 10.526 106.491 10.5836C106.608 10.6464 106.782 10.6924 107.017 10.7138C107.244 10.7308 107.512 10.7501 107.823 10.7678C108.019 10.779 108.219 10.7864 108.419 10.7938C108.619 10.8012 108.775 10.8021 108.883 10.8003L108.77 11.1705L107.859 11.1185ZM107.35 7.8962L106.579 7.85219L106.597 7.53671L108.79 7.6619L108.775 7.92946C108.531 8.11591 108.274 8.2695 108.003 8.39822C108.01 8.40666 108.018 8.41111 108.025 8.41955L108.828 8.46539L108.727 10.2385C108.713 10.4741 108.575 10.5864 108.315 10.5716L108.008 10.554L107.946 10.234L108.228 10.2661C108.316 10.2711 108.367 10.23 108.372 10.1421L108.383 9.93843L107.808 9.90559L107.771 10.5605L107.423 10.5407L107.461 9.88575L106.898 9.8536L106.86 10.5165L106.5 10.496L106.624 8.33951L107.542 8.39196C107.415 8.29658 107.273 8.19629 107.114 8.09908L107.35 7.8962ZM107.781 8.20528C107.954 8.131 108.115 8.04405 108.265 7.94843L107.37 7.89734C107.516 8.00185 107.655 8.10191 107.781 8.20528ZM106.931 9.26656L106.915 9.5461L107.478 9.57826L107.494 9.29871L106.931 9.26656ZM107.842 9.31855L107.826 9.59809L108.401 9.63093L108.417 9.35139L107.842 9.31855ZM108.435 9.03989L108.451 8.76035L107.876 8.72751L107.86 9.00706L108.435 9.03989ZM107.512 8.98722L107.528 8.70767L106.965 8.67552L106.949 8.95507L107.512 8.98722Z" fill="white"/>
<path d="M112.751 8.21731L112.523 11.329L112.156 11.3021L112.172 11.0747L111.474 11.0235L111.457 11.2549L111.09 11.228L111.319 8.11233L112.751 8.21731ZM111.5 10.6684L112.198 10.7196L112.358 8.54545L111.66 8.49428L111.5 10.6684ZM109.852 8.48208C109.745 8.67482 109.628 8.85072 109.504 9.01008L109.188 8.77438C109.471 8.4181 109.684 8.02863 109.824 7.60568L110.193 7.71296C110.142 7.86163 110.084 7.99774 110.026 8.12987L111.115 8.2097L111.088 8.57273L110.546 8.53296C110.52 8.77971 110.491 9.01021 110.451 9.21989L111.074 9.26551L111.047 9.62853L110.373 9.57911C110.35 9.66571 110.324 9.75201 110.302 9.83063C110.527 10.0958 110.755 10.3892 110.988 10.7111L110.731 11.0452C110.509 10.676 110.322 10.3855 110.169 10.1738C109.971 10.5804 109.661 10.9147 109.233 11.1721L109.008 10.8508C109.446 10.574 109.744 10.2189 109.909 9.78173C109.93 9.7071 109.956 9.62878 109.978 9.55016L109.192 9.49256L109.219 9.12953L110.06 9.19123C110.1 8.98155 110.129 8.75105 110.155 8.5043L109.852 8.48208Z" fill="white"/>
<path d="M113.901 7.89125L114.555 9.82689L113.561 11.6117L113.255 11.4392L114.173 9.79192L113.569 8.00551L113.901 7.89125ZM114.582 7.95354L115.236 9.88919L114.242 11.674L113.936 11.5015L114.854 9.85421L114.234 8.06634L114.582 7.95354Z" fill="white"/>
</svg>
