<svg width="93" height="24" viewBox="0 0 93 24" fill="none" xmlns="http://www.w3.org/2000/svg">
<path d="M4.27941 3.71319L4.56146 3.94575L3.32874 5.38136L3.5779 7.25053L3.23034 7.29888L2.96019 5.27353L4.27941 3.71319ZM4.93589 3.90526L5.20258 4.13332L3.98522 5.57343L4.23438 7.4426L3.88682 7.49095L3.61667 5.4656L4.93589 3.90526Z" fill="white"/>
<path d="M6.54702 4.79294C6.80791 4.86988 7.0051 5.00728 7.12864 5.21053C7.24835 5.41265 7.27505 5.63321 7.20376 5.87492C7.1336 6.11279 6.97816 6.30048 6.74396 6.4441C6.60372 6.52367 6.37273 6.61402 6.04601 6.71783C5.69289 6.82637 5.46548 6.94697 5.3638 7.07962L6.73347 7.48359L6.62484 7.8519L4.73723 7.29517C4.81757 7.02277 4.97597 6.81093 5.22123 6.65807C5.35606 6.56855 5.6119 6.46469 5.98603 6.34149C6.20866 6.26536 6.36966 6.20025 6.47015 6.14231C6.63366 6.0404 6.74301 5.91001 6.79054 5.74887C6.8358 5.59541 6.82755 5.46786 6.76577 5.36624C6.704 5.26461 6.58871 5.1889 6.42757 5.14138C6.25492 5.09046 6.1075 5.10953 5.98418 5.20244C5.85816 5.29038 5.76346 5.44178 5.69016 5.66204L5.27197 5.5387C5.36633 5.2329 5.52699 5.01338 5.75395 4.88015C5.98928 4.73269 6.25544 4.70694 6.54702 4.79294Z" fill="white"/>
<path d="M9.24117 5.58869C9.56338 5.68396 9.77301 5.89194 9.86893 6.21645C9.95518 6.51725 9.93592 6.87863 9.81002 7.3044C9.68526 7.72634 9.50376 8.04391 9.2678 8.24944C9.01196 8.46578 8.7218 8.53014 8.39959 8.43487C8.07738 8.3396 7.86888 8.12778 7.77183 7.8071C7.68558 7.5063 7.70484 7.14493 7.83074 6.71915C7.95777 6.28954 8.13813 5.9758 8.37296 5.77411C8.62993 5.55394 8.91896 5.49341 9.24117 5.58869ZM9.13682 5.94158C8.91051 5.87466 8.71695 5.95091 8.55116 6.17302C8.43221 6.32138 8.33234 6.54629 8.24501 6.84165C8.15881 7.13317 8.12031 7.37623 8.13831 7.56926C8.15778 7.84197 8.27762 8.01506 8.50394 8.08197C8.72641 8.14776 8.92495 8.06881 9.0896 7.85054C9.20585 7.69721 9.30955 7.47343 9.39575 7.18191C9.48309 6.88655 9.51775 6.64236 9.50245 6.4543C9.48411 6.17775 9.3593 6.00737 9.13682 5.94158Z" fill="white"/>
<path d="M11.9347 6.4432L12.2493 6.53608L11.4406 9.27519L11.0225 9.15174L11.6828 6.91517C11.4714 7.02376 11.2264 7.07655 10.9517 7.07469L11.074 6.66037C11.2058 6.66593 11.3483 6.64959 11.5091 6.61364C11.6721 6.57002 11.8132 6.51576 11.9347 6.4432Z" fill="white"/>
<path d="M14.1446 7.03616C14.421 7.11731 14.6206 7.24679 14.75 7.43071C14.8717 7.61238 14.9021 7.82139 14.8333 8.05551C14.7454 8.35487 14.5322 8.51319 14.2035 8.52507C14.3501 8.6223 14.4503 8.73512 14.5055 8.85971C14.5671 8.99038 14.5737 9.13823 14.5264 9.29943C14.452 9.55273 14.3029 9.73406 14.0829 9.84453C13.8513 9.95163 13.5847 9.96506 13.293 9.8794C13.0129 9.79713 12.8078 9.65771 12.6807 9.46612C12.5361 9.24857 12.4974 8.9829 12.5645 8.66911L12.9867 8.79308C12.9403 8.97956 12.9561 9.13847 13.042 9.27206C13.1147 9.39348 13.2317 9.47785 13.3929 9.52519C13.5694 9.57703 13.7272 9.565 13.864 9.49677C13.9831 9.43171 14.0657 9.33506 14.1063 9.19689C14.1536 9.0357 14.1387 8.90207 14.0614 8.79601C13.9918 8.6922 13.8649 8.61325 13.6846 8.56028L13.485 8.50167L13.5774 8.18696L13.7731 8.24444C13.942 8.29403 14.0799 8.29284 14.1858 8.24472C14.2916 8.19659 14.3692 8.10265 14.4098 7.96449C14.4504 7.82632 14.4386 7.7103 14.3833 7.61484C14.3214 7.51329 14.2049 7.44155 14.0437 7.39422C13.8786 7.34575 13.7357 7.34965 13.6188 7.40704C13.5019 7.46442 13.4072 7.57417 13.3422 7.73853L12.9316 7.61794C13.0346 7.35221 13.1964 7.17042 13.4219 7.06988C13.6358 6.96595 13.876 6.95727 14.1446 7.03616Z" fill="white"/>
<path d="M16.5991 8.18863C16.3599 8.4109 16.0956 8.57593 15.8002 8.69031L15.6432 8.31176C16.1108 8.13478 16.4795 7.82504 16.7502 7.37871L17.1067 7.55685C17.0305 7.67637 16.9576 7.78436 16.8782 7.88629L19.2143 8.56235L19.112 8.91585L17.9324 8.57448L17.779 9.10472L18.8241 9.40717L18.7251 9.74914L17.68 9.44669L17.4643 10.1921L18.763 10.5679L18.6596 10.9253L17.3609 10.5494L17.1207 11.3794L16.7557 11.2738L16.9958 10.4438L15.2514 9.93898L15.3548 9.58164L15.9581 9.75622L16.2728 8.66884L17.4139 8.99909L17.5674 8.46884L16.5991 8.18863ZM16.3269 9.86297L17.0993 10.0865L17.315 9.34105L16.5427 9.11755L16.3269 9.86297Z" fill="white"/>
<path d="M19.5394 10.3734L21.4835 10.9216L21.388 11.2604L19.4438 10.7122L19.5394 10.3734Z" fill="white"/>
<path d="M23.66 9.76123C23.9224 9.83308 24.1222 9.9666 24.2497 10.1674C24.3733 10.3671 24.4043 10.5871 24.3377 10.8302C24.2722 11.0694 24.1205 11.2601 23.8891 11.4082C23.7505 11.4905 23.5213 11.5854 23.1967 11.6955C22.8457 11.8109 22.6207 11.936 22.5216 12.0706L23.8989 12.4477L23.7975 12.8181L21.8994 12.2983C21.9744 12.0244 22.1286 11.8095 22.3709 11.6519C22.5039 11.5598 22.7577 11.4509 23.1293 11.3204C23.3505 11.24 23.5101 11.1717 23.6095 11.1119C23.771 11.0068 23.8778 10.8743 23.9221 10.7122C23.9644 10.5579 23.9537 10.4306 23.8899 10.3302C23.8262 10.2298 23.7094 10.1563 23.5474 10.1119C23.3738 10.0644 23.2268 10.0863 23.1053 10.1816C22.981 10.272 22.8893 10.4252 22.8203 10.6469L22.3998 10.5317C22.4881 10.2242 22.6445 10.0015 22.8688 9.8639C23.1012 9.71189 23.3668 9.68094 23.66 9.76123Z" fill="white"/>
<path d="M26.7166 10.5855C27.0415 10.6709 27.2574 10.8724 27.3632 11.1939C27.4586 11.4919 27.4504 11.8537 27.3375 12.2831C27.2257 12.7087 27.054 13.0316 26.8244 13.2442C26.5753 13.4683 26.2872 13.5415 25.9622 13.4561C25.6373 13.3707 25.4224 13.1653 25.3156 12.8477C25.2202 12.5497 25.2284 12.1879 25.3413 11.7585C25.4552 11.3252 25.6259 11.0061 25.8544 10.7974C26.1046 10.5695 26.3916 10.5001 26.7166 10.5855ZM26.6231 10.9415C26.3948 10.8815 26.2037 10.9636 26.0447 11.1906C25.9304 11.3426 25.8374 11.5704 25.7591 11.8683C25.6818 12.1623 25.6508 12.4064 25.6747 12.5988C25.7024 12.8708 25.8275 13.0402 26.0558 13.1002C26.2801 13.1591 26.4762 13.0742 26.6341 12.851C26.7456 12.6942 26.8424 12.4673 26.9197 12.1733C26.998 11.8754 27.0252 11.6303 27.0041 11.4428C26.9774 11.1669 26.8474 11.0004 26.6231 10.9415Z" fill="white"/>
<path d="M29.1756 11.2796L29.4937 11.3599L28.7941 14.1289L28.3713 14.0221L28.9426 11.7612C28.7356 11.878 28.493 11.9405 28.2184 11.9495L28.3242 11.5307C28.4561 11.531 28.5978 11.509 28.757 11.4667C28.9182 11.4167 29.0571 11.3569 29.1756 11.2796Z" fill="white"/>
<path d="M30.6511 11.6514L32.3234 12.0538L32.2335 12.4271L30.9035 12.107L30.629 12.8885L30.6407 12.8913C30.7478 12.8225 30.86 12.7836 30.9821 12.7719C31.0935 12.7535 31.2149 12.7621 31.3393 12.792C31.5999 12.8547 31.7932 12.9918 31.9154 13.2022C32.0375 13.4126 32.0669 13.6665 31.9949 13.966C31.9256 14.2538 31.7606 14.4609 31.5066 14.5932C31.2689 14.7088 31.012 14.7333 30.7359 14.6669C30.487 14.607 30.29 14.4855 30.1438 14.3064C29.9811 14.1108 29.9218 13.8785 29.9641 13.6172L30.3802 13.7173C30.3583 13.8766 30.3916 14.0121 30.4778 14.1152C30.5543 14.2077 30.6704 14.2726 30.8259 14.31C30.997 14.3512 31.154 14.3314 31.296 14.2545C31.4388 14.1737 31.5309 14.0477 31.5739 13.8688C31.6207 13.6744 31.6066 13.5105 31.5317 13.3773C31.4568 13.2441 31.3299 13.1559 31.1433 13.111C31.0188 13.0811 30.9091 13.0752 30.8046 13.0994C30.6922 13.1218 30.6005 13.1779 30.5218 13.2659L30.1251 13.1704L30.6511 11.6514Z" fill="white"/>
<path d="M34.0678 12.8318C33.843 13.0686 33.5896 13.25 33.302 13.3827L33.1215 13.0148C33.5771 12.8087 33.9255 12.4764 34.1676 12.0139L34.5346 12.1693C34.4661 12.2934 34.4001 12.4057 34.3272 12.5124L36.7013 13.0402L36.6214 13.3994L35.4227 13.1329L35.3029 13.6718L36.365 13.9079L36.2877 14.2554L35.2257 14.0193L35.0573 14.7768L36.3771 15.0702L36.2963 15.4333L34.9765 15.14L34.7891 15.9834L34.4181 15.9009L34.6056 15.0575L32.8329 14.6634L32.9136 14.3003L33.5266 14.4366L33.7723 13.3315L34.932 13.5893L35.0517 13.0505L34.0678 12.8318ZM33.9015 14.5199L34.6863 14.6944L34.8547 13.9369L34.0699 13.7624L33.9015 14.5199Z" fill="white"/>
<path d="M38.4531 13.1128L40.6105 13.5436L40.5447 13.8731L38.3873 13.4422L38.4531 13.1128ZM38.5576 13.6924L40.2835 14.0371L40.101 14.9511L38.3751 14.6064L38.5576 13.6924ZM39.8106 14.5872L39.8757 14.2616L38.8479 14.0563L38.7829 14.3819L39.8106 14.5872ZM40.2321 15.2138L39.8702 17.026L39.5172 16.9555L39.5461 16.8104L38.1654 16.5347L38.1364 16.6798L37.7834 16.6093L38.1453 14.7971L40.2321 15.2138ZM38.2296 16.213L38.7435 16.3156L38.8171 15.9469L38.3033 15.8443L38.2296 16.213ZM39.0965 16.3861L39.6104 16.4888L39.684 16.12L39.1702 16.0174L39.0965 16.3861ZM38.3651 15.5344L38.879 15.637L38.9503 15.2801L38.4364 15.1775L38.3651 15.5344ZM39.3033 15.3506L39.232 15.7075L39.7459 15.8101L39.8172 15.4532L39.3033 15.3506ZM37.1773 14.9056C37.0259 15.01 36.8667 15.1128 36.6957 15.2133L36.6603 14.7983C37.2117 14.4679 37.6069 14.1226 37.8508 13.7593L36.9878 13.587L37.0591 13.23L37.5769 13.3334C37.5525 13.1695 37.5235 13.0087 37.4858 12.8502L37.8545 12.8219C37.8937 13.0337 37.9158 13.2298 37.926 13.4032L38.2987 13.4776L38.236 13.7914C38.0854 14.055 37.8847 14.3045 37.6298 14.5392C37.7868 14.6929 37.9288 14.8599 38.0528 15.0356L37.7916 15.3016C37.7139 15.1596 37.6331 15.0334 37.5499 14.9189L37.235 16.4957L36.8741 16.4237L37.1773 14.9056Z" fill="white"/>
<path d="M44.2151 15.7541L43.3798 15.6083L43.3378 15.8486L44.2283 16.0041L44.1746 16.3115L43.2841 16.156L43.2415 16.4003L44.2463 16.5758L44.1919 16.887L43.1871 16.7116L43.1313 17.0307L42.7688 16.9674L42.8246 16.6482L41.9616 16.4975L42.016 16.1862L42.8789 16.3369L42.9216 16.0926L42.1808 15.9633L42.2345 15.6559L42.9753 15.7853L43.0173 15.5449L42.3592 15.43L42.4136 15.1187L43.0716 15.2336L43.1143 14.9893L42.2632 14.8407L42.3162 14.5373L43.1673 14.6859L43.2086 14.4495L42.5506 14.3346L42.6042 14.0272L43.2623 14.1422L43.3084 13.8782L43.6709 13.9415L43.6248 14.2055L44.4601 14.3514L44.3652 14.8952L44.6016 14.9364L44.5486 15.2398L44.3122 15.1986L44.2151 15.7541ZM43.5711 14.5128L43.5298 14.7493L44.0066 14.8325L44.0479 14.5961L43.5711 14.5128ZM43.4768 15.0527L43.4342 15.297L43.9109 15.3802L43.9536 15.1359L43.4768 15.0527ZM42.8439 17.1186C43.2892 17.1963 43.7523 17.265 44.2279 17.3319L44.1022 17.6794L42.9477 17.4778C42.2227 17.3512 41.7251 17.1546 41.4496 16.8954C41.415 16.8609 41.3883 16.8278 41.3688 16.8C41.2124 16.9514 41.0404 17.0757 40.8522 17.1768L40.6637 16.8149C40.8577 16.727 41.0243 16.6099 41.1675 16.4644C41.0602 16.2183 40.9895 15.9257 40.9514 15.5861L41.2866 15.5269C41.3123 15.775 41.352 15.9891 41.4105 16.1658C41.5603 15.9361 41.6728 15.6634 41.7515 15.3523L41.0423 15.2284L41.0918 14.9447C41.3528 14.7061 41.5968 14.4482 41.8317 14.1725L41.2446 14.07L41.3065 13.7153L42.3113 13.8908L42.2577 14.1982C42.0225 14.4982 41.7989 14.7556 41.5822 14.9735L42.1535 15.0733L42.1143 15.2979C42.0105 15.7995 41.8363 16.2157 41.5917 16.5466C41.6307 16.6021 41.6751 16.6505 41.7247 16.6917C41.9561 16.8782 42.3291 17.0205 42.8439 17.1186Z" fill="white"/>
<path d="M46.5389 14.4033L46.9067 14.4586L46.755 15.4672L46.3871 15.4119L46.5389 14.4033ZM45.3787 16.0652C45.1993 16.0746 45.0199 16.084 44.8411 16.0895L44.738 15.7261C45.9612 15.7159 46.9241 15.5533 47.6228 15.2378C47.5077 15.1153 47.3847 14.9916 47.2539 14.8668L47.5433 14.6636C47.9045 15.0051 48.2064 15.3377 48.4416 15.6562L48.1407 15.882C48.0585 15.7564 47.9644 15.6289 47.8545 15.4991C47.4661 15.6875 47.0159 15.8301 46.4992 15.9303L47.8995 16.141L47.5764 18.2888L47.2085 18.2335L47.2311 18.0832L45.4868 17.8208L45.463 17.979L45.0991 17.9242L45.3787 16.0652ZM45.5368 17.4885L47.2811 17.7509L47.321 17.4859L45.5766 17.2235L45.5368 17.4885ZM45.6218 16.9229L47.3662 17.1853L47.4025 16.944L45.6581 16.6816L45.6218 16.9229ZM45.7028 16.3849L47.4471 16.6473L47.4846 16.3981L45.7403 16.1357L45.7028 16.3849ZM45.8839 14.5353L46.1138 14.8085C45.837 15.0622 45.5102 15.2719 45.1339 15.4337L44.9586 15.1202C45.3139 14.9633 45.622 14.7709 45.8839 14.5353Z" fill="white"/>
<path d="M50.534 15.6194L49.2045 15.4519L49.25 15.0907L52.294 15.4742L52.2485 15.8354L50.915 15.6674L50.611 18.0803L52.1944 18.2798L52.1484 18.6449L48.5965 18.1974L48.6425 17.8323L50.23 18.0323L50.534 15.6194Z" fill="white"/>
<path d="M53.9216 15.4022L54.2995 15.4414L53.9755 18.5687L54.453 18.6181L54.777 15.4909L55.155 15.53L54.831 18.6573L55.9927 18.7776L55.9544 19.1477L52.4054 18.78L52.4437 18.41L53.5976 18.5295L53.9216 15.4022ZM55.8223 16.3471L56.1466 16.4773C55.9245 17.1459 55.6677 17.7225 55.3759 18.2111L55.05 18.0567C55.3206 17.6182 55.581 17.046 55.8223 16.3471ZM53.0937 16.0564C53.2414 16.6106 53.3574 17.2379 53.4456 17.9387L53.0904 17.9904C53.0199 17.3517 52.9075 16.7288 52.7607 16.1265L53.0937 16.0564Z" fill="white"/>
<path d="M57.2908 15.7647C57.5303 15.9769 57.7256 16.1896 57.8853 16.3953L57.6047 16.6372C57.4685 16.4374 57.2695 16.2205 57.0114 15.9906L57.2908 15.7647ZM56.6875 16.8591L57.5805 16.9322L57.4425 18.6186C57.5746 18.525 57.7159 18.4162 57.8705 18.2924L57.9416 18.6995C57.6629 18.9175 57.3702 19.1103 57.0638 19.2738L56.9483 18.9192C57.0167 18.8687 57.0584 18.7998 57.0653 18.7161L57.1841 17.265L56.6578 17.2219L56.6875 16.8591ZM58.0719 17.45L60.0055 17.6082L59.9771 17.9551C59.8324 18.3004 59.6163 18.5878 59.3283 18.821C59.5697 19.0094 59.8683 19.1863 60.2166 19.3433L59.9866 19.6535C59.6009 19.4614 59.2851 19.251 59.0303 19.0294C58.7011 19.2272 58.2997 19.375 57.8341 19.4733L57.6489 19.1371C58.0816 19.0481 58.4491 18.9217 58.7518 18.7538C58.5023 18.4685 58.3387 18.1621 58.2691 17.8354L58.0419 17.8168L58.0719 17.45ZM58.624 17.8644C58.6957 18.1151 58.8333 18.3471 59.0402 18.5647C59.2715 18.387 59.4569 18.1814 59.5927 17.9437L58.624 17.8644ZM58.4769 15.934L59.8882 16.0495L59.8197 16.8867C59.8125 16.9744 59.8564 17.0261 59.9561 17.0343L60.3069 17.063L60.2785 17.4099L59.8281 17.373C59.545 17.3498 59.4166 17.2029 59.4381 16.9397L59.4844 16.3736L58.8226 16.3195L58.8129 16.4391C58.7789 16.8537 58.5412 17.1593 58.104 17.3523L57.8767 17.0407C58.2239 16.9166 58.4127 16.7194 58.4348 16.4483L58.4769 15.934Z" fill="white"/>
<path d="M62.0304 17.2316L63.0767 17.291L63.1432 16.1209L63.5345 16.1431L63.4681 17.3132L64.4585 17.3694L64.4372 17.7448L63.4468 17.6886L63.3246 19.8411L62.9332 19.8189L63.0554 17.6664L62.0091 17.607L62.0304 17.2316ZM61.368 16.0561C61.6165 16.2666 61.825 16.4747 61.9934 16.6846L61.7188 16.9334C61.5697 16.7367 61.3614 16.5245 61.0897 16.3007L61.368 16.0561ZM60.7751 17.1843L61.6976 17.2367L61.601 18.938C61.7347 18.8414 61.8733 18.7291 62.0205 18.6052L62.0984 18.9983C61.8292 19.2234 61.5414 19.4234 61.2392 19.5945L61.1147 19.2469C61.1858 19.1948 61.2256 19.129 61.2301 19.0491L61.3135 17.5795L60.7544 17.5478L60.7751 17.1843Z" fill="white"/>
<path d="M64.9625 17.5055L65.3151 16.348L65.6929 16.4239L65.4617 17.157L66.0534 17.1757C66.1387 16.8822 66.2085 16.5722 66.2668 16.2459L66.6531 16.3061C66.5951 16.6204 66.5259 16.9144 66.4492 17.1881L68.2803 17.2458L68.2688 17.6096L66.3418 17.5489C66.2977 17.6796 66.2498 17.8022 66.206 17.9208L67.8052 17.9712L67.7952 18.291C67.6809 18.6156 67.4757 18.9053 67.1715 19.1598C67.4701 19.3373 67.833 19.5048 68.2562 19.6622L68.049 20.0159C67.5708 19.8247 67.1691 19.616 66.8478 19.3978C66.5251 19.6077 66.131 19.7954 65.6655 19.9608L65.477 19.5947C65.8813 19.4634 66.2302 19.3143 66.5194 19.1513C66.2661 18.9352 66.0773 18.7052 65.9568 18.4653C65.6503 19.0479 65.2716 19.5082 64.8247 19.8463L64.6399 19.4883C65.207 19.0179 65.6397 18.3672 65.938 17.5362L64.9625 17.5055ZM66.2392 18.266C66.3637 18.5061 66.5646 18.7325 66.8422 18.9414C67.1005 18.7454 67.2913 18.5313 67.4106 18.3029L66.2392 18.266ZM67.3261 16.2833C67.5954 16.4999 67.8207 16.7191 68.0019 16.9369L67.7215 17.2002C67.5681 16.9872 67.351 16.7643 67.0623 16.5271L67.3261 16.2833Z" fill="white"/>
<path d="M69.618 17.8354L70.17 17.8395L70.1724 17.5195L69.5044 17.5145L69.5022 17.8185C69.5004 18.0585 69.4827 18.2904 69.4571 18.5062L70.1651 18.5114L70.1675 18.1755L69.6156 18.1714L69.618 17.8354ZM69.4065 18.8498C69.3273 19.2853 69.2004 19.6803 69.0258 20.031L68.7198 19.7528C68.9755 19.2507 69.1083 18.6076 69.1182 17.8157L69.1281 16.4717L72.1881 16.4944L72.1803 17.5344L71.6244 17.5302L71.622 17.8502L72.222 17.8547L72.2195 18.1907L71.6195 18.1862L71.617 18.5222L72.353 18.5277L72.3504 18.8717L71.9505 18.8687L72.1808 19.0984C72.0556 19.2495 71.9187 19.3725 71.774 19.4674C71.9771 19.5849 72.2085 19.6706 72.4721 19.7246L72.2895 20.0832C71.5709 19.8899 71.0619 19.4821 70.7585 18.8599L70.2625 18.8562L70.2569 19.6162C70.4973 19.5579 70.7098 19.4915 70.8904 19.4168L70.9598 19.7654C70.635 19.875 70.2503 19.9681 69.8057 20.0448L69.7041 19.7121C69.8245 19.665 69.8851 19.5814 69.8861 19.4534L69.8905 18.8534L69.4065 18.8498ZM71.1425 18.8627C71.2374 19.0114 71.3484 19.1402 71.4756 19.2532C71.6283 19.1623 71.7692 19.0353 71.8985 18.8683L71.1425 18.8627ZM71.2564 17.5275L70.5364 17.5222L70.534 17.8422L71.254 17.8475L71.2564 17.5275ZM70.529 18.5141L71.249 18.5195L71.2515 18.1835L70.5315 18.1782L70.529 18.5141ZM71.8015 16.8395L69.5095 16.8225L69.5069 17.1745L71.7989 17.1915L71.8015 16.8395Z" fill="white"/>
<path d="M74.255 16.5653L76.2068 16.5371L76.2122 16.909L74.2604 16.9373L74.255 16.5653ZM74.1695 17.5667L76.3933 17.5345L76.3987 17.9064L75.7747 17.9155L75.7993 19.6113C75.803 19.8673 75.6608 19.9973 75.3769 20.0015L74.7969 20.0098L74.7076 19.6391C74.8918 19.6524 75.0719 19.6578 75.2398 19.6554C75.3558 19.6537 75.4152 19.6089 75.414 19.5249L75.3908 17.921L74.1749 17.9386L74.1695 17.5667ZM73.5722 16.3792L73.9225 16.5341C73.7129 16.9772 73.3586 17.3744 72.8518 17.7338L72.7303 17.3555C73.1143 17.0739 73.3936 16.7498 73.5722 16.3792ZM73.7735 17.2924L74.1198 17.4474C74.0149 17.6649 73.8819 17.8709 73.7207 18.0652L73.7493 20.041L73.3773 20.0464L73.3541 18.4426C73.2119 18.5686 73.0617 18.6908 72.8954 18.8093L72.7779 18.4349C73.2292 18.1083 73.5638 17.7275 73.7735 17.2924Z" fill="white"/>
<path d="M76.8179 16.5465L78.3051 16.4961L78.3174 16.8598L76.8303 16.9103L76.8179 16.5465ZM76.7066 17.6309L78.4856 17.5705L78.4981 17.9383L77.5986 17.9688C77.4733 18.5214 77.3629 18.9254 77.2676 19.1848C77.5296 19.1198 77.7947 19.0308 78.0592 18.9218C77.9606 18.729 77.8624 18.5482 77.7646 18.3795L78.0791 18.2127C78.2744 18.5423 78.4629 18.9081 78.6445 19.3062L78.3224 19.4852L78.2098 19.2329C77.7949 19.391 77.3471 19.5223 76.8624 19.6268L76.7582 19.2701C76.7979 19.2607 76.8215 19.2479 76.8371 19.2354C76.9397 19.0758 77.0697 18.6592 77.2308 17.9813L76.7191 17.9987L76.7066 17.6309ZM78.9847 16.2369L79.3605 16.2241L79.3868 16.9997L80.2503 16.9704C80.2945 18.2736 80.3017 19.0779 80.2761 19.3829C80.2424 19.6882 80.0437 19.847 79.6799 19.8594C79.6159 19.8616 79.5037 19.8574 79.3435 19.8548L79.2442 19.522C79.3885 19.5291 79.5127 19.5329 79.6167 19.5293C79.7926 19.5234 79.8892 19.424 79.9147 19.2311C79.9323 19.0424 79.923 18.4143 79.895 17.3506L79.3992 17.3675L79.4005 17.4034C79.4275 18.5552 79.1802 19.4041 78.6545 19.9542L78.3621 19.712C78.8298 19.2238 79.0521 18.4599 79.0247 17.4162L79.0235 17.3802L78.5158 17.3974L78.5033 17.0296L79.011 17.0124L78.9847 16.2369Z" fill="white"/>
<path d="M80.5983 16.7278L82.2801 16.6425C82.1963 16.4906 82.1009 16.3472 81.9898 16.2087L82.3426 16.0586C82.4588 16.2169 82.5684 16.4036 82.6676 16.6229L84.1497 16.5477L84.1683 16.9153L82.091 17.0206L82.0908 17.6494L83.7367 17.566C83.7683 18.4255 83.7597 18.9666 83.7069 19.1896C83.6352 19.5136 83.4438 19.6875 83.1286 19.7115C83.0008 19.718 82.8445 19.7179 82.6682 19.7148L82.5389 19.3769C82.751 19.3742 82.9312 19.3731 83.075 19.3658C83.2424 19.3493 83.3442 19.224 83.38 18.9818C83.397 18.8448 83.3914 18.4966 83.3715 17.9449L82.0651 18.0112C82.0248 18.3216 81.9433 18.6101 81.8124 18.8731C81.6341 19.2266 81.3745 19.5561 81.0375 19.8616L80.7485 19.6119C81.1539 19.2349 81.417 18.8931 81.5374 18.5826C81.6578 18.2721 81.7165 17.9287 81.7174 17.5522C81.7143 17.3321 81.7136 17.1599 81.7155 17.0396L80.6169 17.0953L80.5983 16.7278Z" fill="white"/>
<path d="M86.1643 16.5085L86.514 16.586C86.4591 16.6657 86.4079 16.7412 86.3562 16.8087L88.0725 16.6972L88.0922 17.0005L87.4376 17.0431C87.3243 17.2108 87.2011 17.3511 87.0721 17.4637C87.4089 17.526 87.7544 17.5997 88.1089 17.6889L87.9081 17.9906C87.5121 17.88 87.1128 17.7817 86.7149 17.7033C86.3082 17.9222 85.7719 18.0572 85.1101 18.1122L84.8823 17.8144C85.4411 17.7781 85.8813 17.7054 86.1954 17.6048C85.9401 17.5613 85.6852 17.5257 85.4346 17.4939C85.5274 17.3796 85.6162 17.2656 85.7053 17.1556L84.899 17.208L84.8793 16.9047L85.941 16.8357C86.0181 16.7264 86.0912 16.6175 86.1643 16.5085ZM86.6465 17.3911C86.7925 17.2934 86.9177 17.1851 87.0145 17.0706L86.1204 17.1287L85.9794 17.3022C86.1972 17.3241 86.4196 17.3537 86.6465 17.3911ZM88.0532 16.029L88.0921 16.6278L87.7408 16.6506L87.7224 16.3672L85.1758 16.5327L85.1942 16.8161L84.8429 16.8389L84.804 16.2401L86.237 16.147C86.1834 16.0623 86.1261 15.9819 86.065 15.9057L86.456 15.8161C86.5101 15.9088 86.5608 16.0098 86.6162 16.1224L88.0532 16.029ZM84.8421 18.306L86.3788 18.2062L86.3601 17.9188L86.7433 17.8939L86.762 18.1813L88.2868 18.0822L88.3081 18.4095L87.1026 18.4878C87.4016 18.7089 87.8374 18.877 88.4055 18.9844L88.2634 19.3263C87.6023 19.1448 87.1128 18.892 86.7866 18.5605L86.8479 19.5025L86.4647 19.5274L86.4029 18.5774C86.1538 18.9383 85.71 19.2638 85.064 19.5623L84.8346 19.2405C85.4294 19.0174 85.8435 18.7901 86.0768 18.5545L84.8633 18.6333L84.8421 18.306Z" fill="white"/>
<path d="M88.8515 15.6506L89.8184 17.4506L89.1341 19.3759L88.8042 19.2565L89.4355 17.4796L88.5433 15.8184L88.8515 15.6506ZM89.5335 15.5988L90.5005 17.3988L89.8162 19.3241L89.4862 19.2047L90.1176 17.4279L89.2094 15.7678L89.5335 15.5988Z" fill="white"/>
</svg>
