<svg width="102" height="30" viewBox="0 0 102 30" fill="none" xmlns="http://www.w3.org/2000/svg">
<path d="M5.46114 7.89382L5.67651 8.18919L4.12558 9.27325L3.9022 11.1457L3.55353 11.1061L3.79541 9.07717L5.46114 7.89382ZM6.04926 8.24307L6.25087 8.53028L4.71369 9.6225L4.49031 11.4949L4.14164 11.4553L4.38352 9.42643L6.04926 8.24307Z" fill="white"/>
<path d="M7.55928 9.14979C7.5947 9.39848 7.61688 9.6627 7.62234 9.9405L7.34535 9.92809L8.06862 10.3312C8.3054 10.2021 8.54961 10.0268 8.79933 9.80879L9.0756 10.0772C8.87021 10.265 8.65749 10.4166 8.44248 10.5395L9.10635 10.9095L8.92721 11.2309L7.78815 10.5961L7.72779 10.7045C7.62733 10.8683 7.52419 11.0123 7.41989 11.1419L8.81053 11.9169L8.63139 12.2383L7.40847 11.5568C7.34407 12.075 7.59584 12.6504 8.16184 13.2863L7.79093 13.4917C7.22463 12.7823 6.9819 12.125 7.0538 11.5194C6.89939 11.6486 6.74074 11.7525 6.57979 11.8277C6.16695 12.0097 5.64476 12.0347 5.0132 11.9025L4.99313 11.5113C5.62858 11.6364 6.11463 11.6188 6.45479 11.4604C6.57765 11.396 6.69586 11.3154 6.80749 11.2219L5.61252 10.556L5.79166 10.2345L7.07748 10.9511C7.18721 10.8199 7.29385 10.6779 7.39236 10.5175L7.45272 10.4092L6.31016 9.77248L6.4893 9.45102L7.23703 9.86772C7.23467 9.60081 7.21168 9.35446 7.17352 9.12713L7.55928 9.14979Z" fill="white"/>
<path d="M10.2162 10.7526L12.8957 12.1629L12.7224 12.4921L11.5933 11.8978L11.1387 12.7615L12.5156 13.4862L12.3386 13.8224L10.9617 13.0977L10.3264 14.3047C10.196 14.5525 9.99798 14.611 9.73958 14.475L9.17678 14.1788L9.27738 13.8159C9.45231 13.9215 9.62203 14.0199 9.78486 14.1056C9.89812 14.1652 9.9827 14.1419 10.0349 14.0428L10.6254 12.9207L9.18835 12.1644L9.36533 11.8281L10.8024 12.5845L11.257 11.7208L10.0429 11.0818L10.2162 10.7526Z" fill="white"/>
<path d="M13.2511 14.1849L12.7782 15.138C13.104 15.2193 13.4531 15.2988 13.8218 15.3656L13.7567 15.7218C13.2555 15.6249 12.7524 15.5048 12.2494 15.3668L12.2537 15.0162C12.3628 15.0123 12.4396 14.9655 12.484 14.8759L13.5633 12.701C14.0467 12.8516 14.5014 12.9611 14.9292 13.026L15.0054 13.4032C14.635 13.3489 14.2251 13.2571 13.7739 13.1315L13.4129 13.8588L14.4019 14.3496L14.2401 14.6756L13.2511 14.1849ZM14.8574 16.527L14.5206 16.3599L14.5911 15.984L14.9064 16.1494C14.9996 16.1957 15.0728 16.165 15.1226 16.0647L16.0436 14.2087L15.3378 13.8584L13.9402 16.6747L13.5962 16.504L15.1538 13.3652L16.5476 14.0569L15.431 16.3071C15.2977 16.5758 15.1047 16.6497 14.8574 16.527Z" fill="white"/>
<path d="M16.6035 15.2972L17.3831 14.3718L17.7006 14.5903L17.1996 15.1733L17.7362 15.4232C17.9301 15.187 18.1162 14.9295 18.2982 14.6525L18.6297 14.8598C18.4527 15.126 18.2734 15.369 18.0952 15.5904L19.7559 16.364L19.6022 16.6939L17.8545 15.8799C17.7625 15.9826 17.6702 16.0765 17.5833 16.1684L19.0337 16.8439L18.8986 17.134C18.6658 17.3874 18.3632 17.573 17.9834 17.6873C18.188 17.968 18.4557 18.2648 18.7829 18.576L18.4532 18.8196C18.0888 18.4557 17.8017 18.1057 17.5922 17.7787C17.2129 17.8447 16.7767 17.8622 16.2837 17.8311L16.2544 17.4203C16.6778 17.4587 17.0572 17.4589 17.3873 17.4229C17.2394 17.1246 17.1563 16.8388 17.1399 16.5708C16.6289 16.9858 16.0996 17.26 15.5558 17.395L15.5267 16.9932C16.2332 16.7839 16.887 16.3559 17.4882 15.7093L16.6035 15.2972ZM17.4779 16.4988C17.498 16.7684 17.5936 17.0557 17.7666 17.3569C18.0812 17.2784 18.3409 17.1566 18.5403 16.9936L17.4779 16.4988ZM19.2574 15.1036C19.4198 15.4087 19.5406 15.6989 19.6215 15.9704L19.2601 16.1021C19.2028 15.846 19.091 15.5557 18.9189 15.224L19.2574 15.1036Z" fill="white"/>
<path d="M23.5201 16.9737L23.7565 17.233L22.3706 18.5116L22.3868 20.3972L22.036 20.4023L22.0182 18.3591L23.5201 16.9737Z" fill="white"/>
<path d="M25.5594 17.9848L27.604 18.797L27.48 19.1092L25.4354 18.2971L25.5594 17.9848ZM25.5579 18.5738L27.1935 19.2236L26.8495 20.0897L25.2138 19.44L25.5579 18.5738ZM26.6294 19.6795L26.7519 19.3709L25.778 18.9841L25.6554 19.2926L26.6294 19.6795ZM26.9311 20.3718L26.2489 22.0893L25.9143 21.9563L25.9689 21.8188L24.6604 21.299L24.6058 21.4366L24.2712 21.3037L24.9534 19.5862L26.9311 20.3718ZM24.7815 20.9942L25.2685 21.1876L25.4073 20.8382L24.9203 20.6447L24.7815 20.9942ZM25.603 21.3205L26.09 21.514L26.2288 21.1645L25.7419 20.9711L25.603 21.3205ZM25.037 20.3511L25.5239 20.5445L25.6583 20.2062L25.1713 20.0128L25.037 20.3511ZM25.9929 20.3391L25.8585 20.6774L26.3455 20.8709L26.4799 20.5326L25.9929 20.3391ZM23.9817 19.5187C23.814 19.5941 23.6389 19.6666 23.4526 19.7346L23.4925 19.3201C24.0943 19.0943 24.5453 18.8258 24.8506 18.5124L24.0327 18.1875L24.1671 17.8492L24.6578 18.0441C24.6634 17.8785 24.6637 17.7151 24.6552 17.5524L25.0229 17.5909C25.0234 17.8063 25.0098 18.0032 24.9887 18.1756L25.3418 18.3159L25.2237 18.6132C25.0282 18.8455 24.7858 19.0548 24.4928 19.2397C24.6195 19.4191 24.7292 19.609 24.8195 19.8042L24.5147 20.0188C24.4639 19.8652 24.4071 19.7264 24.3459 19.5988L23.7522 21.0932L23.4102 20.9573L23.9817 19.5187Z" fill="white"/>
<path d="M30.5306 21.5002L29.7324 21.2139L29.65 21.4436L30.501 21.7488L30.3956 22.0424L29.5447 21.7373L29.461 21.9707L30.4211 22.315L30.3144 22.6125L29.3543 22.2681L29.2449 22.5731L28.8985 22.4489L29.0079 22.1439L28.1833 21.8482L28.29 21.5507L29.1146 21.8465L29.1983 21.613L28.4905 21.3591L28.5958 21.0655L29.3037 21.3193L29.386 21.0897L28.7572 20.8641L28.8639 20.5667L29.4927 20.7922L29.5764 20.5588L28.7632 20.2671L28.8671 19.9772L29.6804 20.2689L29.7614 20.0429L29.1326 19.8174L29.238 19.5237L29.8668 19.7493L29.9572 19.497L30.3036 19.6212L30.2132 19.8735L31.0114 20.1598L30.825 20.6794L31.0509 20.7604L30.9469 21.0503L30.721 20.9693L30.5306 21.5002ZM30.1078 20.1672L30.0268 20.3931L30.4824 20.5565L30.5634 20.3306L30.1078 20.1672ZM29.9228 20.683L29.8391 20.9164L30.2947 21.0798L30.3784 20.8464L29.9228 20.683ZM28.9467 22.6107C29.3722 22.7633 29.8168 22.91 30.274 23.0569L30.0909 23.378L28.9877 22.9823C28.2949 22.7338 27.8381 22.4553 27.6109 22.1528C27.5827 22.1129 27.562 22.0758 27.5475 22.0451C27.3676 22.1675 27.177 22.2607 26.9743 22.3282L26.8503 21.9395C27.0564 21.8859 27.2406 21.799 27.4065 21.68C27.3428 21.4192 27.323 21.1189 27.3434 20.7778L27.6838 20.7766C27.6668 21.0255 27.6694 21.2432 27.6969 21.4272C27.8836 21.2265 28.0411 20.977 28.1717 20.6839L27.494 20.4408L27.5912 20.1697C27.8891 19.9791 28.1735 19.7666 28.452 19.5351L27.891 19.3339L28.0125 18.995L28.9727 19.3393L28.8673 19.633C28.5845 19.8885 28.3202 20.104 28.0695 20.2818L28.6154 20.4776L28.5384 20.6922C28.3505 21.1687 28.1079 21.5491 27.8104 21.8334C27.8394 21.8948 27.8749 21.95 27.9168 21.999C28.1129 22.2224 28.4562 22.4262 28.9467 22.6107Z" fill="white"/>
<path d="M32.9079 20.4972L33.2626 20.6096L32.9545 21.5819L32.5998 21.4696L32.9079 20.4972ZM31.5014 21.9565C31.3228 21.9377 31.1441 21.9189 30.9667 21.8962L30.9219 21.5211C32.1315 21.703 33.1079 21.6935 33.8475 21.4915C33.7531 21.3524 33.651 21.211 33.5414 21.0672L33.8591 20.9119C34.1623 21.3059 34.4082 21.6817 34.5906 22.0332L34.258 22.209C34.1965 22.072 34.1235 21.9314 34.0353 21.7859C33.6223 21.911 33.1552 21.9812 32.6292 21.9992L33.9791 22.4269L33.323 24.4974L32.9684 24.3851L33.0143 24.2402L31.3327 23.7074L31.2844 23.8599L30.9336 23.7487L31.5014 21.9565ZM31.4342 23.387L33.1158 23.9199L33.1968 23.6644L31.5152 23.1316L31.4342 23.387ZM31.607 22.8418L33.2886 23.3746L33.3623 23.142L31.6807 22.6092L31.607 22.8418ZM31.7713 22.3232L33.4529 22.856L33.529 22.6158L31.8474 22.0829L31.7713 22.3232ZM32.2404 20.5249L32.4246 20.8308C32.1114 21.0379 31.7557 21.1937 31.3588 21.2945L31.2348 20.9573C31.6103 20.8581 31.9447 20.7165 32.2404 20.5249Z" fill="white"/>
<path d="M36.7231 21.6309L37.0825 21.727L36.8193 22.7124L36.4599 22.6164L36.7231 21.6309ZM35.3849 23.1531C35.2056 23.1425 35.0263 23.1318 34.848 23.1173L34.786 22.7447C36.0027 22.871 36.9777 22.8168 37.7072 22.5811C37.6065 22.4466 37.4981 22.31 37.382 22.1713L37.6923 22.0016C38.0132 22.3813 38.2761 22.7455 38.4743 23.0883L38.1501 23.2791C38.0824 23.1451 38.0031 23.0079 37.9083 22.8667C37.5014 23.0106 37.0381 23.1021 36.5135 23.1441L37.8815 23.5096L37.3209 25.608L36.9615 25.512L37.0008 25.3651L35.2965 24.9098L35.2552 25.0644L34.8997 24.9694L35.3849 23.1531ZM35.3832 24.5852L37.0875 25.0405L37.1566 24.7816L35.4524 24.3263L35.3832 24.5852ZM35.5309 24.0326L37.2351 24.4879L37.2981 24.2521L35.5938 23.7969L35.5309 24.0326ZM35.6713 23.507L37.3755 23.9623L37.4405 23.7188L35.7363 23.2636L35.6713 23.507ZM36.0575 21.6891L36.2556 21.9863C35.9522 22.2075 35.604 22.3795 35.2121 22.4983L35.0728 22.1672C35.4434 22.0509 35.7709 21.8941 36.0575 21.6891Z" fill="white"/>
<path d="M39.5544 25.2161L39.4805 25.5685C39.1072 25.6332 38.6967 25.6615 38.241 25.6518L38.2695 25.2817C38.7479 25.3004 39.1781 25.2762 39.5544 25.2161ZM39.6055 22.3618L39.9322 22.5775C39.6412 22.9905 39.3674 23.3214 39.1039 23.5645C39.2599 23.5808 39.4158 23.5972 39.5695 23.6049C39.6702 23.4952 39.7772 23.3747 39.8859 23.2462L40.1854 23.4358C39.7216 23.9515 39.3455 24.3222 39.0617 24.5447C39.3182 24.5495 39.5827 24.5355 39.8575 24.5114L39.7869 24.848C39.3378 24.8846 38.9165 24.8862 38.523 24.8527L38.4958 24.4954C38.5673 24.4859 38.6295 24.4622 38.6863 24.4251C38.837 24.33 39.0411 24.1562 39.2953 23.8989C39.0938 23.8852 38.8884 23.8707 38.6799 23.8515L38.6574 23.4912C38.7211 23.4801 38.781 23.4477 38.8419 23.391C39.1139 23.0884 39.3697 22.7456 39.6055 22.3618ZM40.5747 23.0801L40.2184 23.0054L40.2915 22.657L42.061 23.0282L42.0125 23.2591C41.8809 23.5748 41.7631 23.8444 41.6543 24.0709L42.1397 24.1727L42.0962 24.3802C41.8984 24.8945 41.6317 25.3086 41.2977 25.6145C41.4516 25.8553 41.6409 26.083 41.8664 26.2938L41.5619 26.5569C41.3397 26.3304 41.1567 26.0918 41.0132 25.841C40.7321 26.0313 40.4131 26.1687 40.0609 26.2502L39.9248 25.866C40.2692 25.783 40.5701 25.654 40.8275 25.4791C40.6932 25.1648 40.6037 24.8314 40.5631 24.4795C40.2785 25.2127 39.9071 25.756 39.4504 26.1016L39.2233 25.8006C39.8309 25.3395 40.2704 24.4917 40.5394 23.2484L40.5747 23.0801ZM41.1009 25.2667C41.3542 25.0338 41.5522 24.7524 41.6996 24.4196L41.1594 24.3063C41.2769 24.0775 41.4251 23.7408 41.6082 23.2969L40.9348 23.1557L40.8995 23.324C40.865 23.4884 40.8243 23.6434 40.7853 23.7905C40.7795 24.3247 40.8847 24.8168 41.1009 25.2667Z" fill="white"/>
<path d="M44.4001 23.9199L43.073 23.7343L43.1234 23.3738L46.1619 23.7987L46.1115 24.1592L44.7804 23.9731L44.4436 26.3816L46.0243 26.6026L45.9733 26.9671L42.4278 26.4714L42.4787 26.1069L44.0633 26.3285L44.4001 23.9199Z" fill="white"/>
<path d="M47.7738 23.6798L48.1532 23.7012L47.9758 26.8402L48.455 26.8673L48.6324 23.7283L49.0118 23.7497L48.8344 26.8887L50.0005 26.9546L49.9796 27.326L46.4172 27.1247L46.4382 26.7533L47.5964 26.8187L47.7738 23.6798ZM49.7166 24.5347L50.0467 24.6495C49.8561 25.3279 49.6266 25.9158 49.3578 26.4175L49.0251 26.2785C49.275 25.8279 49.5083 25.2441 49.7166 24.5347ZM46.9774 24.3719C47.1509 24.9186 47.2961 25.5398 47.417 26.2357L47.0646 26.3039C46.9642 25.6692 46.8228 25.0523 46.6481 24.4575L46.9774 24.3719Z" fill="white"/>
<path d="M51.0383 23.8248C51.3031 24.0045 51.5241 24.1902 51.709 24.3737L51.4618 24.6497C51.3011 24.4691 51.0759 24.2795 50.7903 24.0848L51.0383 23.8248ZM50.5808 24.9877L51.4758 24.9454L51.5558 26.6355C51.6748 26.5257 51.8009 26.3996 51.9383 26.2569L52.0611 26.6516C51.8128 26.9036 51.5473 27.1324 51.2645 27.334L51.1044 26.9972C51.1657 26.9383 51.1983 26.8646 51.1943 26.7807L51.1254 25.3264L50.598 25.3513L50.5808 24.9877ZM52.0297 25.3957L53.9675 25.3039L53.984 25.6515C53.885 26.0126 53.7076 26.3253 53.452 26.5937C53.7156 26.7494 54.0345 26.8865 54.4001 26.9973L54.2119 27.3346C53.8047 27.1937 53.4644 27.0256 53.1833 26.8387C52.8822 27.0772 52.5031 27.2754 52.0541 27.4328L51.8272 27.1232C52.2449 26.9793 52.5931 26.8066 52.8717 26.6012C52.5875 26.3503 52.3859 26.0676 52.2749 25.7525L52.0471 25.7632L52.0297 25.3957ZM52.6305 25.7356C52.7339 25.975 52.9001 26.1874 53.1333 26.3766C53.3398 26.1706 53.4972 25.9429 53.6014 25.6897L52.6305 25.7356ZM52.2364 23.8401L53.6508 23.7732L53.6905 24.6122C53.6947 24.7001 53.7449 24.7458 53.8448 24.7411L54.1964 24.7244L54.2129 25.072L53.7614 25.0934C53.4777 25.1069 53.3314 24.9776 53.3189 24.7139L53.292 24.1466L52.6288 24.178L52.6345 24.2978C52.6541 24.7134 52.4577 25.047 52.049 25.2946L51.7834 25.0149C52.1119 24.8472 52.2736 24.6273 52.2608 24.3556L52.2364 23.8401Z" fill="white"/>
<path d="M55.5405 24.6505L56.5823 24.5367L56.455 23.3716L56.8447 23.329L56.972 24.4941L57.9581 24.3863L57.999 24.7601L57.0129 24.8679L57.2471 27.0111L56.8574 27.0537L56.6232 24.9105L55.5814 25.0243L55.5405 24.6505ZM54.6934 23.6003C54.9732 23.7669 55.2132 23.9379 55.4138 24.1171L55.1841 24.4078C55.0046 24.2383 54.7642 24.0634 54.4592 23.8875L54.6934 23.6003ZM54.2946 24.8108L55.2131 24.7105L55.3982 26.4044C55.5142 26.2871 55.6324 26.1535 55.7572 26.007L55.8987 26.3819C55.6703 26.6483 55.4194 26.893 55.1496 27.1116L54.9695 26.7892C55.031 26.7262 55.0594 26.6547 55.0507 26.5751L54.8908 25.1119L54.3341 25.1727L54.2946 24.8108Z" fill="white"/>
<path d="M59.8392 22.862L60.2247 22.791L60.35 23.4716L61.7504 23.2137L62.1003 25.1138L61.7266 25.1826L61.6853 24.9584L60.6586 25.1474L60.9012 26.4653L60.5157 26.5363L60.273 25.2184L59.2502 25.4067L59.2915 25.631L58.9178 25.6998L58.5679 23.7997L59.9645 23.5426L59.8392 22.862ZM59.1829 25.0409L60.2057 24.8526L60.0318 23.9084L59.009 24.0968L59.1829 25.0409ZM60.5912 24.7816L61.6179 24.5925L61.4441 23.6484L60.4173 23.8375L60.5912 24.7816Z" fill="white"/>
<path d="M65.0335 25.3563L64.1748 25.5824C63.8731 25.6619 63.6825 25.5507 63.6051 25.2567L63.0286 23.0674L63.3961 22.9706L63.9522 25.0826C63.9807 25.1909 64.0607 25.2278 64.1923 25.1931L64.8692 25.0149C64.9465 24.9945 64.9905 24.9416 65.006 24.8589C65.0222 24.7636 64.986 24.5002 64.8874 24.0629L65.2661 24.0872C65.3797 24.6447 65.4073 24.9849 65.3507 25.1156C65.2988 25.2327 65.1921 25.3145 65.0335 25.3563ZM62.5453 23.6041L62.9167 23.5849C62.9936 24.3009 62.9996 24.9364 62.9375 25.4863L62.5684 25.3725C62.6253 24.8033 62.6151 24.2145 62.5453 23.6041ZM65.1172 22.8152C65.4781 23.2745 65.8239 23.7708 66.1489 24.3139L65.8521 24.5534C65.4994 23.9679 65.1456 23.4571 64.7929 23.0288L65.1172 22.8152ZM63.4519 22.0831C63.8952 22.3842 64.2479 22.6553 64.511 22.9004L64.2565 23.1908C63.9796 22.9245 63.6287 22.6446 63.2001 22.3521L63.4519 22.0831Z" fill="white"/>
<path d="M67.7943 20.7829L68.1566 20.6557C68.2706 20.9802 68.3667 21.2899 68.4421 21.5771C68.9644 22.4366 69.5638 23.0571 70.2404 23.4384L70.0898 23.8305C69.5465 23.4786 69.0556 22.9981 68.6132 22.3904L68.6347 22.5482C68.7268 23.245 68.5929 23.8898 68.2356 24.4901L67.8907 24.2806C68.191 23.7596 68.3099 23.2049 68.255 22.6137C68.2003 22.1199 68.045 21.5088 67.7943 20.7829ZM66.1238 21.3738C66.434 21.4726 66.7065 21.5846 66.9426 21.7137L66.7848 22.0489C66.5715 21.9245 66.2977 21.8087 65.9608 21.7066L66.1238 21.3738ZM66.0099 22.6432L66.8817 22.3371L67.4357 23.9146C67.5183 23.7754 67.603 23.6185 67.6938 23.4424L67.9143 23.7805C67.751 24.088 67.5646 24.3781 67.3527 24.656L67.1042 24.3829C67.1498 24.3076 67.1612 24.2315 67.1334 24.1522L66.6589 22.8011L66.1305 22.9867L66.0099 22.6432Z" fill="white"/>
<path d="M70.1741 21.0905L72.3497 20.1355L72.4944 20.4651L71.5934 20.8606L71.8345 21.41L72.8894 20.947L73.0341 21.2767L71.9792 21.7397L72.2751 22.4136C72.5402 22.3409 72.8522 22.2258 73.2201 22.0687C73.4032 21.9883 73.5889 21.8937 73.7729 21.7954L73.8581 22.1687L73.5138 22.3198C72.7447 22.6574 72.161 22.8306 71.7703 22.8361C71.4877 22.8291 71.2265 22.7516 70.9867 22.6035C70.9762 22.9576 70.9133 23.2822 70.7983 23.5773L70.449 23.3987C70.6357 22.8886 70.6579 22.3022 70.5114 21.6501L70.8741 21.5608C70.9234 21.7925 70.9569 22.0181 70.975 22.2285C71.2726 22.4387 71.5707 22.5306 71.8624 22.4986L71.8986 22.4915L71.2491 21.0118L70.3188 21.4201L70.1741 21.0905ZM72.4794 19.2267L72.8443 20.0582L72.5037 20.2077L72.2802 19.6986L69.8922 20.7468L70.1237 21.2742L69.783 21.4238L69.41 20.574L70.7872 19.9695C70.6845 19.8748 70.5793 19.7943 70.4789 19.7248L70.8267 19.5022C70.9278 19.5933 71.0338 19.6953 71.1425 19.8136L72.4794 19.2267Z" fill="white"/>
<path d="M76.0601 18.7221L76.451 19.4656L74.7267 20.3721L74.8254 20.5597L76.716 19.5658L77.213 20.5111L76.8766 20.6879L76.8096 20.5605L75.2553 21.3776L75.3205 21.5015L74.9841 21.6783L73.9995 19.8054L76.0601 18.7221ZM75.099 21.0802L76.6533 20.2631L76.5193 20.0081L74.965 20.8252L75.099 21.0802ZM74.5853 20.103L75.9802 19.3696L75.8723 19.1643L74.4773 19.8976L74.5853 20.103ZM76.316 18.0227L76.6715 18.6989L76.3423 18.872L76.1357 18.479L73.7493 19.7335L73.9559 20.1265L73.6267 20.2996L73.2711 19.6234L74.6413 18.903C74.5758 18.8471 74.5104 18.8001 74.4488 18.7602L74.7201 18.5543L74.6395 18.547C74.6907 18.249 74.6919 17.9591 74.6343 17.6776L74.9937 17.579C75.0041 17.6504 75.0162 17.7163 75.0247 17.7841L76.009 17.2667L76.1635 17.5606L75.5864 17.864C75.684 17.9121 75.771 17.9658 75.8471 18.0161L75.6074 18.2822C75.4912 18.1987 75.3644 18.1208 75.2288 18.0519L75.0482 18.1469C75.0494 18.2954 75.0399 18.4405 75.0176 18.5787L74.79 18.5583C74.8518 18.6071 74.9138 18.6649 74.9812 18.7244L76.316 18.0227ZM73.5258 18.9472C73.5149 19.1156 73.4932 19.2807 73.4588 19.4388L73.0682 19.4092C73.1581 19.0817 73.1767 18.7647 73.1312 18.4632L73.4907 18.3646C73.5011 18.436 73.5079 18.5092 73.5164 18.577L74.4087 18.108L74.5632 18.4019L74.0321 18.6811C74.1423 18.7361 74.2437 18.7913 74.329 18.8504L74.0823 19.1291C73.9551 19.0333 73.8227 18.9448 73.6816 18.8653L73.5258 18.9472Z" fill="white"/>
<path d="M77.465 16.2543L79.1976 15.2081L80.186 16.8448L79.484 17.2687L79.6908 17.6111L80.4372 17.1604L80.6192 17.4617L79.8727 17.9124L80.0878 18.2686L80.9541 17.7455L81.1422 18.0571L79.0706 19.308L78.8824 18.9964L79.7659 18.4629L79.5508 18.1068L78.801 18.5596L78.619 18.2583L79.3689 17.8055L79.1621 17.4631L78.4533 17.8911L77.465 16.2543ZM79.7007 16.7454L79.465 16.355L79.0746 16.5907L79.3103 16.9811L79.7007 16.7454ZM78.9885 17.1754L78.7528 16.7851L78.3555 17.0249L78.5913 17.4153L78.9885 17.1754ZM78.186 16.7441L78.5832 16.5043L78.3475 16.1139L77.9503 16.3538L78.186 16.7441ZM78.6694 15.9196L78.9051 16.3099L79.2954 16.0742L79.0597 15.6839L78.6694 15.9196ZM76.9639 18.0942L77.3029 17.8895L76.8604 17.1567L76.4701 17.3924L76.284 17.0842L77.39 16.4164L77.5761 16.7246L77.1892 16.9582L77.6316 17.691L77.9775 17.4822L78.1656 17.7938L77.8198 18.0026L78.2333 18.6874C78.3249 18.576 78.4131 18.4667 78.4937 18.3526L78.6839 18.6676C78.4434 18.9811 78.1719 19.2899 77.864 19.5926L77.5971 19.3286C77.7265 19.2178 77.8483 19.1022 77.9645 18.9852L77.4911 18.2011L77.1521 18.4058L76.9639 18.0942Z" fill="white"/>
<path d="M80.5758 15.86L80.9286 15.7834C81.0829 16.2526 81.1418 16.6509 81.1042 16.9837L80.7303 16.935C80.7657 16.6132 80.7157 16.2571 80.5758 15.86ZM80.4766 14.2192L80.7961 14.0061L81.2089 14.6251L82.2604 13.9236C82.4092 14.161 82.5501 14.3795 82.6767 14.5836L82.8252 14.3306C83.1781 14.528 83.5476 14.7576 83.9326 15.0248L83.7363 15.3577C83.399 15.1115 83.0695 14.8986 82.7588 14.7212C82.9097 14.9763 83.0429 15.2048 83.1539 15.4C83.3604 15.7816 83.4725 16.0722 83.4936 16.2697C83.5103 16.4605 83.4361 16.6158 83.2752 16.7423L82.8859 17.0021L82.5952 16.7536C82.7127 16.6848 82.8214 16.6171 82.9213 16.5505C83.0843 16.4418 83.1187 16.2554 83.0287 15.998C82.9266 15.7296 82.6291 15.2116 82.1419 14.4451L81.3998 14.9401C81.7195 15.4914 81.9149 15.9861 81.986 16.4243C82.0549 16.9024 81.9552 17.3729 81.6924 17.8367L81.3351 17.6759C81.5746 17.2132 81.6566 16.7739 81.5833 16.3612C81.5033 15.9962 81.3357 15.5935 81.0804 15.1532L80.2884 15.6815L80.0842 15.3753L80.8895 14.8382L80.4766 14.2192Z" fill="white"/>
<path d="M84.4713 11.4572L84.7836 11.2339L85.1349 11.7252L85.9451 11.1458L86.1592 11.4451L85.349 12.0245L85.7329 12.5613L86.6309 11.9192L86.845 12.2185L85.7875 12.9747C85.9139 13.5433 85.9815 13.9818 85.9873 14.2924C86.3172 13.9974 86.63 13.6852 86.9302 13.3623C86.72 13.2471 86.5158 13.1473 86.3209 13.0604L86.5505 12.7488C86.9751 12.9369 87.3909 13.1608 87.7993 13.4293L87.5996 13.7688C87.4782 13.6885 87.3591 13.6113 87.247 13.544C86.8297 13.985 86.3561 14.4368 85.8286 14.9025L85.5639 14.6837C85.5829 14.6553 85.5987 14.6292 85.608 14.6078C85.6604 14.3786 85.6086 13.9141 85.4524 13.2143L84.7333 13.7286L84.5193 13.4292L85.4206 12.7847L85.0366 12.2479L84.2916 12.7807L84.0775 12.4813L84.8226 11.9485L84.4713 11.4572ZM83.0778 12.493C83.4023 12.5068 83.692 12.5406 83.9525 12.5953L83.8918 12.978C83.6588 12.9135 83.3635 12.8788 83.0068 12.8683L83.0778 12.493ZM83.5409 13.3126C83.8492 13.338 84.1282 13.3843 84.3812 13.4493L84.3149 13.8311C84.0917 13.7596 83.8103 13.71 83.4732 13.6855L83.5409 13.3126ZM84.5126 14.0044L84.8739 13.9182C85.0248 14.425 85.1432 14.9206 85.2323 15.4027L84.8254 15.4871C84.7512 14.9845 84.6473 14.4884 84.5126 14.0044Z" fill="white"/>
<path d="M86.3671 10.0379L88.1473 11.0408L88.5998 13.0334L88.2571 13.1091L87.8394 11.2703L86.1966 10.3445L86.3671 10.0379Z" fill="white"/>
<path d="M89.5517 7.73879C89.8966 7.74319 90.2064 7.77419 90.4787 7.8286L90.4248 8.20092C90.1765 8.13837 89.8675 8.10176 89.4946 8.09353L89.5517 7.73879ZM93.5507 9.20277C93.3755 9.33579 93.1819 9.47771 92.9756 9.62932C92.7661 9.78334 92.5827 9.89241 92.4247 9.96213C92.2683 10.0206 92.0987 10.0288 91.9209 9.99306C91.8352 9.97275 91.7776 9.97629 91.7394 10.0053C91.6725 10.0561 91.6666 10.2865 91.7218 10.6966L91.3416 10.6588C91.3049 10.2798 91.325 10.0085 91.404 9.84806L90.7196 8.94642L90.2927 9.27051L90.0798 8.99014L90.7903 8.4508L91.7045 9.65511C91.7301 9.65576 91.7582 9.6596 91.7886 9.66662C91.9272 9.69701 92.052 9.70269 92.1631 9.68364C92.2925 9.65569 92.4545 9.57795 92.6473 9.44162C92.8313 9.30695 93.0472 9.14809 93.2957 8.95944C93.4518 8.84093 93.6087 8.71682 93.7656 8.59271C93.9225 8.46859 94.0419 8.3679 94.1231 8.29622L94.2771 8.65133L93.5507 9.20277ZM91.072 7.08194L90.4571 7.54873L90.266 7.29703L92.0151 5.96924L92.1771 6.1827C92.1133 6.48228 92.0173 6.76604 91.8941 7.04036C91.9053 7.0419 91.9141 7.04025 91.9253 7.04178L92.5657 6.55565L93.6396 7.97023C93.7823 8.1582 93.7497 8.33359 93.5426 8.4908L93.2973 8.67703L93.0425 8.47371L93.2784 8.31473C93.3484 8.26153 93.3601 8.19746 93.3069 8.12737L93.1835 7.96488L92.7247 8.31315L93.1214 8.83566L92.8442 9.04607L92.4476 8.52357L91.9983 8.86459L92.3998 9.39346L92.1131 9.61113L90.8071 7.8907L91.5398 7.33443C91.3815 7.34415 91.208 7.36036 91.0241 7.38943L91.072 7.08194ZM91.6005 7.03727C91.6835 6.86878 91.7497 6.698 91.8015 6.52809L91.0879 7.06985C91.267 7.05441 91.4373 7.04062 91.6005 7.03727ZM91.6428 8.39625L91.8121 8.61927L92.2613 8.27825L92.092 8.05523L91.6428 8.39625ZM92.3692 7.84481L92.5385 8.06783L92.9973 7.71956L92.828 7.49654L92.3692 7.84481ZM92.6393 7.24803L92.47 7.02501L92.0113 7.37329L92.1806 7.59631L92.6393 7.24803ZM91.9034 7.80672L91.7341 7.5837L91.2849 7.92472L91.4542 8.14774L91.9034 7.80672Z" fill="white"/>
<path d="M95.2736 3.8342L97.1602 6.31924L96.8671 6.54175L96.7292 6.36015L96.1717 6.78341L96.312 6.9682L96.0188 7.19071L94.1299 4.70249L95.2736 3.8342ZM95.9564 6.49986L96.514 6.0766L95.1958 4.34027L94.6383 4.76353L95.9564 6.49986ZM93.274 5.94991C93.3216 6.16483 93.35 6.37427 93.3624 6.5758L92.9698 6.60769C92.9463 6.15342 92.8486 5.72039 92.6734 5.311L93.0213 5.14737C93.0813 5.29262 93.1277 5.43315 93.1717 5.5705L94.0415 4.91021L94.2616 5.20013L93.8283 5.52907C93.9719 5.73143 94.1026 5.92347 94.2117 6.10684L94.7087 5.72953L94.9288 6.01945L94.3904 6.4282C94.4308 6.50797 94.4681 6.59015 94.5037 6.66354C94.848 6.71354 95.2125 6.78341 95.6002 6.87075L95.6282 7.29139C95.2179 7.16099 94.8853 7.06692 94.6306 7.00921C94.7507 7.44532 94.7398 7.90059 94.5889 8.37668L94.2076 8.2845C94.3527 7.78764 94.342 7.3237 94.1762 6.88706C94.143 6.81685 94.1106 6.74104 94.075 6.66765L93.4473 7.14412L93.2272 6.8542L93.8995 6.34386C93.7904 6.1605 93.6597 5.96846 93.5161 5.76609L93.274 5.94991Z" fill="white"/>
<path d="M95.7585 2.94025L97.5405 3.93984L97.9967 5.93155L97.6542 6.00797L97.2331 4.1699L95.5885 3.24726L95.7585 2.94025ZM96.3061 2.53046L98.0882 3.53005L98.5444 5.52177L98.2019 5.59818L97.7807 3.76011L96.1234 2.84705L96.3061 2.53046Z" fill="white"/>
</svg>
