<svg width="149" height="54" viewBox="0 0 149 54" fill="none" xmlns="http://www.w3.org/2000/svg">
<path d="M4.87377 25.2869L5.13653 25.541L3.79408 26.8746L3.89456 28.7576L3.54427 28.7783L3.43522 26.7379L4.87377 25.2869ZM5.51299 25.5303L5.7608 25.7787L4.4333 27.118L4.53379 29.001L4.18349 29.0217L4.07444 26.9814L5.51299 25.5303Z" fill="white"/>
<path d="M7.10223 26.2408C7.16261 26.4846 7.2114 26.7452 7.24492 27.0211L6.96809 27.0367L7.72841 27.3646C7.95092 27.2122 8.17617 27.0132 8.40255 26.771L8.70455 27.0101C8.51921 27.2177 8.32291 27.3901 8.12143 27.5341L8.81931 27.835L8.67359 28.1729L7.47618 27.6566L7.42708 27.7704C7.3437 27.9436 7.25565 28.0973 7.165 28.2368L8.62687 28.8672L8.48116 29.2051L7.19559 28.6507C7.18392 29.1728 7.49258 29.7197 8.11999 30.2952L7.77175 30.5371C7.13662 29.8886 6.82867 29.2592 6.83896 28.6494C6.6984 28.7935 6.55107 28.913 6.39855 29.004C6.00624 29.2269 5.48924 29.3045 4.84756 29.2369L4.78803 28.8497C5.43287 28.9099 5.91465 28.8433 6.23705 28.6512C6.35277 28.5748 6.46222 28.4826 6.56382 28.3783L5.30764 27.8366L5.45336 27.4987L6.80504 28.0816C6.90095 27.94 6.99268 27.7879 7.07446 27.6184L7.12356 27.5045L5.92248 26.9866L6.06819 26.6487L6.85423 26.9876C6.82488 26.7223 6.7771 26.4796 6.71615 26.2573L7.10223 26.2408Z" fill="white"/>
<path d="M10.02 27.6428L12.76 28.9316L12.6017 29.2683L11.447 28.7251L11.0316 29.6083L12.4396 30.2706L12.2779 30.6145L10.8699 29.9522L10.2893 31.1864C10.1701 31.4398 9.97487 31.5071 9.71064 31.3828L9.13514 31.1121L9.21938 30.745C9.39887 30.8427 9.57283 30.9334 9.73933 31.0117C9.85515 31.0662 9.9386 31.0392 9.98628 30.9378L10.526 29.7904L9.05646 29.0992L9.21821 28.7553L10.6877 29.4466L11.1032 28.5634L9.86168 27.9794L10.02 27.6428Z" fill="white"/>
<path d="M13.3595 31.0494L12.8847 32.0016C13.2103 32.0835 13.5592 32.1636 13.9278 32.2312L13.862 32.5872C13.361 32.4894 12.8582 32.3683 12.3554 32.2293L12.3604 31.8787C12.4695 31.875 12.5464 31.8284 12.591 31.7389L13.6745 29.5661C14.1576 29.7176 14.6121 29.828 15.0397 29.8937L15.1153 30.2711C14.7449 30.216 14.3352 30.1235 13.8842 29.9969L13.5219 30.7236L14.5099 31.2163L14.3474 31.542L13.3595 31.0494ZM14.9613 33.3946L14.6248 33.2268L14.6959 32.8511L15.0109 33.0171C15.104 33.0635 15.1773 33.033 15.2273 32.9328L16.1519 31.0785L15.4467 30.7269L14.0437 33.5405L13.7001 33.3691L15.2637 30.2334L16.6562 30.9277L15.5352 33.1757C15.4014 33.4442 15.2083 33.5178 14.9613 33.3946Z" fill="white"/>
<path d="M16.7836 32.2194L17.5998 31.3262L17.9082 31.5573L17.3841 32.1196L17.9103 32.391C18.1135 32.1627 18.3098 31.9129 18.5028 31.6434L18.8257 31.8639C18.6382 32.1228 18.4492 32.3583 18.2622 32.5725L19.8904 33.4122L19.7236 33.7357L18.0101 32.852C17.914 32.951 17.8181 33.041 17.7275 33.1293L19.1495 33.8627L19.0029 34.1471C18.7601 34.3909 18.4502 34.5642 18.0661 34.6631C18.2593 34.9518 18.5149 35.2591 18.8293 35.5833L18.4901 35.8134C18.1406 35.4351 17.8678 35.0739 17.6716 34.7387C17.2899 34.7894 16.8534 34.7893 16.3621 34.7384L16.3493 34.3268C16.7708 34.3822 17.1499 34.3977 17.4812 34.375C17.3454 34.0709 17.2739 33.782 17.2683 33.5136C16.741 33.9077 16.2011 34.1604 15.6523 34.2734L15.6394 33.8707C16.3537 33.69 17.0242 33.2887 17.651 32.6668L16.7836 32.2194ZM17.6089 33.4552C17.6181 33.7255 17.7021 34.0163 17.8629 34.3243C18.1803 34.2585 18.4447 34.1473 18.6506 33.9924L17.6089 33.4552ZM19.4431 32.1328C19.5931 32.4442 19.7021 32.739 19.772 33.0135L19.4056 33.1306C19.3587 32.8724 19.2586 32.5778 19.1001 32.2395L19.4431 32.1328Z" fill="white"/>
<path d="M23.6001 34.2836L23.8169 34.5596L22.3407 35.7329L22.2184 37.6147L21.8681 37.5939L22.0005 35.5549L23.6001 34.2836Z" fill="white"/>
<path d="M25.8455 35.4717L26.1931 35.6529L25.8732 36.2665L27.1359 36.9248L26.2428 38.6379L25.9058 38.4623L26.0112 38.2601L25.0855 37.7775L24.466 38.9657L24.1184 38.7845L24.7379 37.5963L23.8157 37.1155L23.7103 37.3177L23.3733 37.142L24.2664 35.4288L25.5256 36.0853L25.8455 35.4717ZM23.9876 36.7856L24.9098 37.2664L25.3536 36.4151L24.4314 35.9344L23.9876 36.7856ZM25.2574 37.4476L26.1832 37.9302L26.627 37.079L25.7012 36.5964L25.2574 37.4476Z" fill="white"/>
<path d="M28.1339 37.5661L29.8972 38.4669L29.7407 38.7733L29.0318 38.4111L28.808 38.8493L29.4064 39.155L29.2535 39.4542L28.6551 39.1485L28.4022 39.6436L28.7655 39.8292C28.7742 39.654 28.7684 39.4983 28.7517 39.355L29.0625 39.406C29.0862 39.5619 29.0956 39.7194 29.087 39.8857L28.851 39.8729L29.2143 40.0585L29.0578 40.3649L27.0951 39.3622L27.2516 39.0558L28.0602 39.4689L28.3132 38.9738L27.7147 38.6681L27.8676 38.3688L28.466 38.6746L28.6899 38.2364L27.9774 37.8725L28.1339 37.5661ZM30.8028 38.2154L29.1959 41.3607L28.8539 41.186L28.9231 41.0506L26.6148 39.8714L26.5457 40.0068L26.2037 39.8321L27.8106 36.6868L30.8028 38.2154ZM26.7768 39.5544L29.085 40.7336L30.297 38.3613L27.9888 37.1821L26.7768 39.5544Z" fill="white"/>
<path d="M32.5422 38.8791L32.861 39.0375C32.5895 39.2063 32.3521 39.3965 32.1487 39.6081C31.8881 39.8628 31.6831 40.1495 31.5283 40.4612C31.3752 40.7692 31.2705 41.1058 31.2231 41.4708C31.1791 41.7572 31.1709 42.0613 31.1986 42.3832L30.8798 42.2248C30.8289 41.9047 30.8209 41.5971 30.856 41.3018C30.8962 40.9421 30.9973 40.6038 31.1575 40.2814C31.3195 39.9554 31.5299 39.6669 31.7904 39.4212C32.0081 39.2078 32.2581 39.0282 32.5422 38.8791Z" fill="white"/>
<path d="M34.4156 39.976L36.4007 40.9245L36.2558 41.2277L34.2708 40.2792L34.4156 39.976ZM34.3743 40.5636L35.9623 41.3224L35.5605 42.1633L33.9725 41.4045L34.3743 40.5636ZM35.3686 41.7392L35.5117 41.4396L34.5661 40.9878L34.423 41.2873L35.3686 41.7392ZM35.6229 42.4503L34.8261 44.1177L34.5013 43.9625L34.5651 43.829L33.2947 43.2219L33.2309 43.3555L32.9061 43.2002L33.7028 41.5328L35.6229 42.4503ZM33.4361 42.926L33.9089 43.1519L34.071 42.8126L33.5982 42.5867L33.4361 42.926ZM34.2337 43.3071L34.7065 43.533L34.8686 43.1937L34.3958 42.9678L34.2337 43.3071ZM33.7345 42.3016L34.2073 42.5275L34.3642 42.1991L33.8914 41.9731L33.7345 42.3016ZM34.689 42.3543L34.5321 42.6827L35.0049 42.9086L35.1618 42.5802L34.689 42.3543ZM32.7379 41.3998C32.5655 41.4637 32.3858 41.5242 32.1954 41.5795L32.2632 41.1686C32.8789 40.984 33.347 40.7466 33.6728 40.4545L32.8788 40.0751L33.0357 39.7467L33.5121 39.9743C33.5288 39.8094 33.5402 39.6464 33.5427 39.4835L33.907 39.5468C33.893 39.7617 33.866 39.9572 33.8333 40.1278L34.1762 40.2916L34.0382 40.5804C33.8274 40.7988 33.5714 40.9913 33.2667 41.156C33.3809 41.3436 33.4775 41.5404 33.5545 41.7412L33.2359 41.9348C33.1955 41.7781 33.1482 41.6358 33.0958 41.5043L32.4025 42.9552L32.0705 42.7965L32.7379 41.3998Z" fill="white"/>
<path d="M38.9046 43.7435L38.1302 43.3979L38.0307 43.6208L38.8563 43.9891L38.7292 44.274L37.9036 43.9057L37.8026 44.1322L38.734 44.5478L38.6053 44.8364L37.6738 44.4207L37.5418 44.7166L37.2057 44.5667L37.3377 44.2708L36.5378 43.9138L36.6665 43.6252L37.4665 43.9822L37.5676 43.7557L36.8808 43.4493L37.0079 43.1644L37.6947 43.4708L37.7941 43.248L37.1841 42.9758L37.3128 42.6872L37.9229 42.9594L38.0239 42.7329L37.2349 42.3809L37.3604 42.0996L38.1494 42.4517L38.2472 42.2325L37.6372 41.9603L37.7643 41.6754L38.3744 41.9476L38.4836 41.7028L38.8196 41.8528L38.7104 42.0975L39.4848 42.4431L39.2599 42.9472L39.4791 43.0449L39.3536 43.3262L39.1344 43.2284L38.9046 43.7435ZM38.5833 42.3824L38.4855 42.6016L38.9275 42.7988L39.0253 42.5797L38.5833 42.3824ZM38.36 42.8829L38.2589 43.1094L38.7009 43.3066L38.802 43.0801L38.36 42.8829ZM37.2416 44.7316C37.6544 44.9158 38.0867 45.0955 38.5315 45.2765L38.3248 45.5828L37.2545 45.1053C36.5823 44.8054 36.1478 44.4932 35.944 44.1745C35.9189 44.1326 35.9011 44.094 35.8889 44.0623C35.7003 44.1709 35.5032 44.2494 35.296 44.3015L35.2016 43.9046C35.4112 43.8667 35.6014 43.7939 35.7758 43.6877C35.7319 43.4228 35.7348 43.1219 35.7808 42.7832L36.1202 42.8077C36.0846 43.0546 36.0708 43.2718 36.0844 43.4575C36.2857 43.2713 36.4615 43.0344 36.6138 42.752L35.9563 42.4586L36.0736 42.1956C36.385 42.0279 36.6846 41.8375 36.9797 41.6275L36.4355 41.3846L36.5822 41.0559L37.5136 41.4715L37.3865 41.7564C37.0852 41.9899 36.8055 42.1849 36.5421 42.3433L37.0718 42.5796L36.9789 42.7878C36.7556 43.2489 36.485 43.61 36.167 43.871C36.1913 43.9344 36.2225 43.9922 36.2606 44.0442C36.4393 44.2816 36.7663 44.5108 37.2416 44.7316Z" fill="white"/>
<path d="M40.7644 42.6672L41.0931 42.8039C41.1631 43.1146 41.1917 43.421 41.1771 43.7269C41.1589 44.0832 41.0829 44.4328 40.9431 44.7689C40.8049 45.1013 40.6122 45.3981 40.3708 45.6659C40.1673 45.8845 39.9299 46.0804 39.6586 46.2535L39.3299 46.1168C39.5873 45.9249 39.8115 45.7192 40.0024 45.4997C40.2431 45.2229 40.4321 44.9246 40.5642 44.607C40.6978 44.2857 40.776 43.9413 40.801 43.5791C40.8236 43.2853 40.8114 42.9813 40.7644 42.6672Z" fill="white"/>
<path d="M44.9951 44.8419L43.8484 47.8722L43.4893 47.7363L43.5685 47.5268L41.7129 46.8246L41.6337 47.0341L41.2745 46.8982L42.4212 43.8679L43.2293 44.1737C43.3565 44.0636 43.4701 43.9441 43.5642 43.8086L43.9073 43.9983C43.8189 44.1188 43.716 44.2211 43.6034 44.3153L44.9951 44.8419ZM41.8404 46.4879L43.6959 47.1901L43.8941 46.6664L42.0386 45.9642L41.8404 46.4879ZM42.1631 45.635L44.0187 46.3371L44.2042 45.847L42.3486 45.1449L42.1631 45.635ZM42.4732 44.8157L44.3288 45.5178L44.5071 45.0465L42.6515 44.3443L42.4732 44.8157Z" fill="white"/>
<path d="M48.6675 46.234L47.726 49.1456L47.3644 49.0287L47.4371 48.8041L45.2372 48.0927L45.1646 48.3173L44.803 48.2004L45.7445 45.2888L47.0233 45.7023L47.208 45.1314L47.5733 45.2496L47.3887 45.8205L48.6675 46.234ZM45.3504 47.7426L46.2677 48.0392L46.5507 47.1638L45.6335 46.8672L45.3504 47.7426ZM46.633 48.1573L47.5503 48.454L47.8333 47.5786L46.9161 47.282L46.633 48.1573ZM45.7418 46.5323L46.659 46.8289L46.9113 46.0487L45.9941 45.7521L45.7418 46.5323ZM47.2767 46.1668L47.0244 46.9471L47.9417 47.2437L48.194 46.4634L47.2767 46.1668Z" fill="white"/>
<path d="M50.4159 46.7114C50.5707 47.0733 50.6813 47.3825 50.7475 47.6391L50.4286 47.7554C50.3982 47.6485 50.3688 47.5377 50.3346 47.4298C49.9927 47.4906 49.6043 47.5396 49.1675 47.5843L49.1552 47.2301C49.2669 47.2134 49.3391 47.1411 49.372 47.0132L49.5879 46.1725C50.1222 46.2147 50.551 46.2175 50.8733 46.1846L50.9962 46.526C50.7147 46.561 50.3382 46.5634 49.8582 46.5351L49.689 47.1938C49.8677 47.1736 50.0483 47.1456 50.225 47.1167C50.185 47.0155 50.141 46.9134 50.1009 46.8122L50.4159 46.7114ZM51.4825 46.9482L51.0447 46.8358L51.1343 46.4871L52.6685 46.8811C52.5075 47.4758 52.3761 47.8426 52.2792 47.9788C52.1804 48.1062 52.0181 48.143 51.7924 48.0892C51.7227 48.0713 51.6472 48.0436 51.5649 48.0101L51.5401 47.6403C51.6534 47.6818 51.7521 47.7154 51.8373 47.7373C51.9352 47.7583 52.0061 47.7393 52.0541 47.6814C52.0895 47.6079 52.1478 47.4288 52.2302 47.1403L51.8389 47.0398C51.7327 47.2603 51.622 47.4342 51.5125 47.5547C51.367 47.7032 51.18 47.8204 50.9505 47.9101L50.8023 47.5706C50.9841 47.5058 51.1302 47.4194 51.2405 47.3114C51.3265 47.2179 51.4068 47.0981 51.4825 46.9482ZM52.0375 48.2925L51.731 49.4858L51.3591 49.3903L51.58 48.5302L49.7746 48.0665L49.5418 48.9731L49.1737 48.8785L49.4921 47.6388L52.0375 48.2925ZM50.7358 49.1641C51.2133 49.4272 51.6364 49.7093 52.0071 50.0027L51.725 50.2648C51.3314 49.9324 50.919 49.6407 50.4782 49.3953L50.7358 49.1641ZM50.5153 48.4467L50.8657 48.578C50.7159 48.936 50.4727 49.1915 50.1448 49.3427C49.8528 49.4825 49.382 49.5308 48.74 49.4898L48.6861 49.1208C49.2271 49.1689 49.6348 49.1415 49.909 49.0385C50.1804 48.9306 50.3834 48.735 50.5153 48.4467Z" fill="white"/>
<path d="M53.8379 48.546L53.3499 48.4576L53.6134 47.0013L56.0813 47.4479L55.8178 48.9043L54.2709 48.6243C54.1962 48.7002 54.1136 48.7747 54.0285 48.8406L56.0674 49.2096C55.9772 49.6404 55.8909 49.9825 55.8071 50.2438C55.7207 50.4964 55.6282 50.6707 55.527 50.7581C55.4258 50.8455 55.282 50.8764 55.0917 50.8501L54.5445 50.751L54.5095 50.3829C54.6695 50.42 54.8216 50.4557 54.9711 50.4827C55.1483 50.5148 55.2785 50.4692 55.3578 50.3454C55.4385 50.2137 55.5313 49.9256 55.6297 49.4718L55.3227 49.4163C54.851 50.0911 54.2273 50.4823 53.4525 50.5859L53.2962 50.2365C53.9906 50.1508 54.5406 49.852 54.9409 49.3472L54.5158 49.2703C54.1633 49.6455 53.6659 49.901 53.0156 50.0353L52.8282 49.7006C53.3859 49.6064 53.8143 49.4401 54.1143 49.1976L53.6026 49.105C53.388 49.2125 53.1488 49.2993 52.8887 49.366L52.7439 48.9984C53.2114 48.9082 53.5759 48.7587 53.8379 48.546ZM55.5087 48.5231L55.5571 48.2555L53.8213 47.9414L53.7729 48.209L55.5087 48.5231ZM53.8748 47.6461L55.6106 47.9603L55.6576 47.7005L53.9218 47.3864L53.8748 47.6461Z" fill="white"/>
<path d="M58.155 49.5409L57.8126 49.5081L57.8465 49.1537L58.9017 49.2548L58.8677 49.6091L58.5253 49.5763L58.4315 50.5559C58.5942 50.5353 58.7573 50.5107 58.9168 50.4818L58.8828 50.8362C58.5273 50.8986 58.149 50.9467 57.7483 50.9767L57.6914 50.6055C57.8124 50.6011 57.9334 50.5966 58.0547 50.5881L58.155 49.5409ZM59.5455 51.3858C59.4021 51.3721 59.281 51.252 59.1894 51.0343C59.086 50.7712 59.026 50.432 59.0092 50.0205C58.9949 49.6655 59.0039 49.2364 59.0367 48.7252L57.8064 48.6074L57.8415 48.2411L59.0639 48.3581C59.0772 48.1344 59.0997 47.8995 59.1226 47.6606L59.4889 47.6956C59.4653 47.9425 59.4432 48.1734 59.4302 48.3932L60.1907 48.466L60.1556 48.8324L59.4031 48.7603C59.3607 49.371 59.3536 49.8646 59.3743 50.2363C59.4104 50.6978 59.4795 50.9415 59.5851 50.9717C59.6496 50.9699 59.7358 50.741 59.8509 50.294L60.1263 50.5655C59.9277 51.1291 59.7366 51.4041 59.5455 51.3858ZM59.8238 47.7237C59.9735 47.9229 60.0853 48.0983 60.1679 48.2428L59.8875 48.4008C59.8065 48.2404 59.6911 48.0606 59.5493 47.8622L59.8238 47.7237ZM57.1992 47.5206C57.4274 47.7393 57.6158 47.9543 57.7639 48.1694L57.48 48.4074C57.3466 48.2058 57.1546 47.9865 56.9116 47.7542L57.1992 47.5206ZM56.5511 48.6238L57.447 48.7096L57.2899 50.3501C57.3903 50.2673 57.4954 50.1769 57.6056 50.075L57.667 50.4827C57.4211 50.7002 57.166 50.8888 56.8976 51.0479L56.7867 50.6957C56.8557 50.6461 56.8977 50.5858 56.9049 50.5101L57.046 49.0369L56.5164 48.9862L56.5511 48.6238Z" fill="white"/>
<path d="M62.5386 49.0605C62.411 49.2009 62.2753 49.3253 62.1316 49.4337L61.9308 49.1302C62.3699 48.793 62.7046 48.3521 62.9431 47.8114L63.2831 47.8104C63.4805 48.3059 63.8217 48.7409 64.3108 49.1116L64.1036 49.4242C63.9433 49.3046 63.8029 49.177 63.6786 49.0413L63.6792 49.2813L62.5392 49.2845L62.5386 49.0605ZM63.5863 48.9376C63.3936 48.7061 63.2329 48.4546 63.1121 48.1829C62.973 48.4713 62.8177 48.7238 62.6423 48.9402L63.5863 48.9376ZM62.0521 51.0099L63.3361 51.0063C63.4789 50.5899 63.6055 50.0776 63.7158 49.4772L64.08 49.5682C63.9775 50.1045 63.8509 50.5809 63.7001 51.0053L64.2601 51.0037L64.2611 51.3677L62.0531 51.3739L62.0521 51.0099ZM62.4801 49.5967C62.601 49.9244 62.7141 50.3041 62.8153 50.7278L62.4915 50.8087C62.4024 50.4249 62.2894 50.0612 62.1564 49.7096L62.4801 49.5967ZM63.0958 49.475C63.2006 49.7867 63.2897 50.1504 63.3708 50.5582L63.043 50.6391C62.974 50.2713 62.885 49.9196 62.7721 49.5799L63.0958 49.475ZM61.5645 48.3113L60.6285 48.3139L60.6275 47.9699L61.9395 47.9662L61.7561 49.6147L61.9881 49.6141C61.9908 50.5501 61.9483 51.0902 61.8687 51.2344C61.7851 51.3787 61.6093 51.4511 61.3453 51.4519C61.2573 51.4521 61.1653 51.4484 61.0693 51.4407L60.9683 51.1049C61.1084 51.1246 61.2044 51.1363 61.2604 51.1361C61.4404 51.1356 61.5482 51.0753 61.5839 50.9632C61.6236 50.8471 61.6427 50.5111 61.6411 49.9511L60.6291 49.9539L60.8131 48.5414L61.1612 48.5604L61.0082 49.6168L61.4002 49.6157L61.5645 48.3113ZM61.4659 50.2275L61.4668 50.5675C61.2071 50.6643 60.9113 50.7451 60.5795 50.81L60.5345 50.4502C60.8863 50.3932 61.1981 50.3203 61.4659 50.2275Z" fill="white"/>
<path d="M65.6326 48.4621C66.0082 48.6958 66.3639 48.9315 66.6918 49.1697C66.8729 48.8754 67.0228 48.5478 67.141 48.1831L67.5008 48.334C67.37 48.736 67.2068 49.093 67.0113 49.4047C67.3228 49.6405 67.6148 49.8821 67.8786 50.1224L67.6117 50.4449C67.3726 50.2103 67.0965 49.9672 66.7842 49.7235C66.4835 50.1134 66.1188 50.4211 65.6948 50.654L65.4435 50.3322C65.8455 50.1215 66.1885 49.84 66.4683 49.4841C66.1401 49.2419 65.7757 48.999 65.383 48.7549L65.6326 48.4621ZM64.637 47.9173L67.8308 47.6158L67.865 47.9782L65.0336 48.2455L65.2828 50.8857L68.2377 50.6068L68.2719 50.9692L64.9546 51.2823L64.637 47.9173Z" fill="white"/>
<path d="M71.9706 46.9327L72.0232 47.2565L69.1608 47.7215L69.3775 49.056C69.4887 49.8403 69.4525 50.4905 69.265 51.0073L68.9488 50.8074C69.0979 50.3779 69.1199 49.8151 69.0143 49.115L68.7449 47.4567L71.9706 46.9327ZM69.3647 47.8545L71.9429 47.4357L71.9891 47.7199L70.8362 47.9072C70.8288 47.9611 70.8174 48.0157 70.8014 48.0669L71.7805 47.9078L72.0037 49.2818L70.6534 49.5012C70.619 49.5635 70.5839 49.6219 70.5521 49.6757L71.9458 49.4493L71.9837 49.6822C71.8869 49.86 71.7594 50.0226 71.6003 50.1659C71.9264 50.1778 72.2717 50.1582 72.6448 50.1097L72.6119 50.4312C72.1033 50.4935 71.6417 50.4956 71.2191 50.4386C70.8407 50.6541 70.3515 50.8105 69.7513 50.908L69.5736 50.637C70.0197 50.5645 70.4003 50.4622 70.7164 50.3379C70.5167 50.2812 70.3316 50.214 70.1563 50.133C70.0422 50.2286 69.9175 50.3096 69.7818 50.3722L69.5323 50.1331C69.8419 49.9937 70.0906 49.8033 70.2784 49.5621L69.9072 49.6224L69.684 48.2484L70.4421 48.1252C70.4535 48.0707 70.4649 48.0162 70.473 47.9662L69.4109 48.1388L69.3647 47.8545ZM71.1441 50.1266C71.3135 50.0221 71.4488 49.9069 71.5584 49.7837L70.4648 49.9614C70.6716 50.0372 70.8996 50.0934 71.1441 50.1266ZM71.6336 49.0988L71.6079 48.9409L70.1668 49.175L70.1925 49.3329L71.6336 49.0988ZM70.1309 48.9539L71.572 48.7198L71.5483 48.5737L70.1072 48.8078L70.1309 48.9539ZM70.0713 48.5867L71.5124 48.3526L71.488 48.2025L70.0469 48.4366L70.0713 48.5867Z" fill="white"/>
<path d="M75.679 49.7494L75.359 49.8213L75.1873 49.495L75.5286 49.4266C75.63 49.4038 75.6689 49.3212 75.6382 49.1846L75.0744 46.6752L73.607 47.0049L73.5298 46.6615L75.3563 46.2511L76.02 49.2054C76.0867 49.5021 75.9717 49.6837 75.679 49.7494ZM72.2552 47.448L72.6143 47.3673L73.2789 50.3256L72.9199 50.4062L72.2552 47.448ZM72.7527 46.6147C72.9795 46.7851 73.1921 46.9833 73.3849 47.2024L73.0926 47.4525C72.8829 47.2127 72.6694 47.0105 72.4503 46.8384L72.7527 46.6147Z" fill="white"/>
<path d="M77.2659 46.9838L77.3248 47.1874C77.3626 47.3181 77.3893 47.4394 77.415 47.5569L79.1864 47.0448L79.6664 48.7048L79.3013 48.8104L78.9225 47.5L77.4738 47.9188C77.5399 48.5076 77.4618 49.0007 77.2356 49.3992L76.884 49.2344C77.1616 48.7544 77.1865 48.106 76.9598 47.293L76.5498 45.875L76.9149 45.7695L77.1648 46.6341L78.2062 46.333L77.924 45.357L78.2814 45.2537L78.5636 46.2297L79.3744 45.9953L79.4755 46.345L77.2659 46.9838Z" fill="white"/>
<path d="M81.0028 45.2124C81.4238 45.3486 81.8258 45.4914 82.2014 45.6435C82.3062 45.3142 82.3727 44.9602 82.3994 44.5777L82.785 44.6373C82.755 45.0591 82.6828 45.4448 82.5682 45.7945C82.9274 45.9482 83.2691 46.1122 83.583 46.2818L83.4018 46.6591C83.1132 46.4892 82.7866 46.3198 82.4248 46.1586C82.227 46.6097 81.9473 46.9962 81.592 47.3245L81.2705 47.0728C81.6097 46.7713 81.8748 46.4154 82.0604 46.0026C81.6835 45.8467 81.2712 45.6989 80.8312 45.5567L81.0028 45.2124ZM79.9052 44.9238L82.9319 43.8607L83.0525 44.2042L80.3692 45.1466L81.2481 47.6488L84.0484 46.6652L84.169 47.0087L81.0253 48.1128L79.9052 44.9238Z" fill="white"/>
<path d="M84.4165 43.9607L86.248 43.2084L86.3787 43.5266L85.6424 43.8291L85.8293 44.2842L86.4509 44.0289L86.5786 44.3397L85.957 44.595L86.1682 45.1093L86.5456 44.9543C86.4182 44.8336 86.2963 44.7367 86.1767 44.6561L86.4177 44.4533C86.5514 44.5368 86.6771 44.6322 86.7978 44.7469L86.6344 44.9178L87.0118 44.7628L87.1425 45.081L85.1038 45.9184L84.9731 45.6001L85.813 45.2552L85.6018 44.7409L84.9802 44.9962L84.8525 44.6854L85.4741 44.4301L85.2872 43.975L84.5472 44.2789L84.4165 43.9607ZM86.6465 42.3572L87.9884 45.6244L87.6332 45.7703L87.5754 45.6297L85.1778 46.6144L85.2355 46.755L84.8803 46.9009L83.5384 43.6338L86.6465 42.3572ZM85.0425 46.2851L87.4402 45.3003L86.4281 42.8361L84.0304 43.8209L85.0425 46.2851Z" fill="white"/>
<path d="M90.1405 42.9619C90.0929 43.0018 90.0437 43.0381 89.9997 43.0763C90.1319 43.2176 90.2456 43.3852 90.3407 43.5792C90.4761 43.8691 90.5275 44.0924 90.4985 44.2384C90.4653 44.4129 90.2856 44.5763 89.9558 44.7304L89.8398 44.7846L89.5816 44.5344L89.7665 44.448C89.9694 44.3532 90.0827 44.2649 90.108 44.1869C90.1321 44.0873 90.1021 43.938 90.0073 43.735C89.9903 43.6988 89.9698 43.6642 89.9545 43.6316C89.7003 44.108 89.2992 44.5913 88.7601 45.0816L88.449 44.8694C89.0625 44.3399 89.4931 43.8252 89.7425 43.3289C89.6869 43.2666 89.624 43.2077 89.5645 43.156C89.3424 43.5689 88.9859 43.9871 88.5004 44.4126L88.1913 44.195C88.7108 43.7668 89.0813 43.3597 89.301 42.9701C89.2428 42.9399 89.1898 42.9116 89.1333 42.8851C89.1222 42.8991 89.113 42.9078 89.1055 42.9201C88.9225 43.1425 88.6449 43.4179 88.2766 43.7446L87.9689 43.5396C88.2701 43.3149 88.5377 43.0751 88.7717 42.82C88.8418 42.7431 88.9082 42.668 88.9693 42.5908L88.1576 42.9701L88.0085 42.6512L90.1611 41.6454L90.3101 41.9643L89.5056 42.3402C89.4458 42.4389 89.3878 42.5322 89.3318 42.6201C89.4911 42.687 89.6356 42.7696 89.7691 42.8662C90.0439 42.6229 90.284 42.343 90.4875 42.0227L90.8278 42.1463C90.6953 42.3539 90.5434 42.5485 90.3702 42.7354C90.735 43.0815 91.166 43.2951 91.6576 43.3833L91.5449 43.7848C91.0101 43.6417 90.5414 43.3662 90.1405 42.9619ZM88.7415 41.1962C88.8254 41.2718 88.9107 41.3599 89.0011 41.4589L90.3601 40.8239L90.675 41.498L90.3308 41.6589L90.1648 41.3037L87.7441 42.4349L87.91 42.79L87.5657 42.9509L87.2508 42.2768L88.6532 41.6215C88.573 41.5442 88.4942 41.4795 88.4187 41.422L88.7415 41.1962Z" fill="white"/>
<path d="M90.5609 41.0911L91.9927 40.3505C91.8121 40.2277 91.6157 40.1267 91.4017 40.0437L91.6749 39.7448C91.891 39.8492 92.1165 39.9892 92.348 40.1667L93.6945 39.4702L93.8673 39.8041L93.3237 40.0853C93.4325 40.7135 93.4136 41.2952 93.269 41.8339C93.7947 41.9448 94.387 41.9581 95.0371 41.874L94.9958 42.2557C94.3135 42.3384 93.6996 42.3182 93.1576 42.1933C92.9399 42.7562 92.5821 43.2746 92.0841 43.7484L91.7485 43.5437C92.2469 43.0967 92.5981 42.6178 92.8075 42.0997C92.2145 41.911 91.702 41.5907 91.2773 41.1439L90.7337 41.4251L90.5609 41.0911ZM91.6006 40.9766C91.9758 41.3365 92.4159 41.5952 92.9225 41.7474C93.0467 41.2824 93.0649 40.7866 92.9755 40.2654L91.6006 40.9766Z" fill="white"/>
<path d="M94.7788 38.0912L95.1714 38.0617C95.2149 38.4141 95.2157 38.7723 95.1719 39.1329L96.4723 41.4258L96.1452 41.6113L95.0638 39.7046C95.0041 39.9316 94.9319 40.1611 94.8453 40.3895L94.5456 40.1043C94.7844 39.4308 94.864 38.7603 94.7788 38.0912ZM98.2391 40.341L97.5884 40.71C97.3101 40.8679 97.092 40.8076 96.9341 40.5293L96.3816 39.555C96.2938 39.6922 96.2026 39.8313 96.1059 39.9689L95.7787 39.7406C95.9192 39.5506 96.0508 39.361 96.1626 39.1688L95.395 37.8153L95.7255 37.6279L96.3767 38.7761C96.5894 38.3565 96.7461 37.9274 96.8398 37.4926L97.2174 37.6233C97.0802 38.1517 96.8781 38.671 96.6036 39.1762L97.239 40.2966C97.2942 40.394 97.3741 40.4131 97.4854 40.35L98.0038 40.056C98.0839 40.0106 98.1272 39.9492 98.1359 39.8753C98.1411 39.8034 98.0609 39.6052 97.8863 39.2811L98.2497 39.2084C98.4523 39.6223 98.5452 39.8915 98.5299 40.0105C98.5111 40.1315 98.413 40.2423 98.2391 40.341Z" fill="white"/>
<path d="M100.459 36.3567L99.9052 35.453L100.233 35.2523L100.979 36.4698L99.9387 37.1074L100.66 38.2839L101.543 37.7425L100.989 36.8388L101.313 36.6402L102.158 38.0179L101.834 38.2165L101.733 38.0528L99.6327 39.3406L99.733 39.5042L99.4091 39.7028L98.5645 38.3251L98.8885 38.1265L99.4425 39.0302L100.326 38.4888L99.6045 37.3122L98.5644 37.9498L97.8181 36.7324L98.1455 36.5317L98.6994 37.4354L99.4122 36.9985L98.6993 35.8356L99.0335 35.6307L99.7464 36.7936L100.459 36.3567Z" fill="white"/>
<path d="M103.813 33.1078L105.554 35.7686L105.23 35.9811L105.105 35.7903L103.251 37.0039L103.376 37.1947L103.054 37.405L101.313 34.7442L103.813 33.1078ZM103.047 36.6926L104.901 35.479L103.692 33.6316L101.838 34.8452L103.047 36.6926Z" fill="white"/>
<path d="M104.098 32.7086L104.654 32.325L104.498 32.0978L104.801 31.8889L104.957 32.1162L106.021 31.383L105.865 31.1557L106.168 30.9469L106.324 31.1741L106.881 30.7905L107.062 31.054L106.506 31.4376L107.216 32.4685L107.822 32.0508L108.008 32.3208L107.379 32.7544C107.654 32.8079 107.97 32.7797 108.328 32.6787L108.386 33.0373C108.09 33.0951 107.825 33.1126 107.585 33.0885L107.772 33.3586L107.129 33.8012L107.309 34.0614L108.412 33.301L108.612 33.5908L106.079 35.3364L105.879 35.0466L107.006 34.2703L106.826 34.0101L106.177 34.4573L105.996 34.1938C105.935 34.4155 105.835 34.6445 105.703 34.8818L105.36 34.7296C105.583 34.4199 105.713 34.136 105.756 33.8735L105.127 34.3071L104.941 34.037L105.547 33.6194L104.836 32.5885L104.279 32.9721L104.098 32.7086ZM106 34.1715L106.636 33.7334L106.477 33.5029L106.78 33.2941L106.939 33.5246L107.574 33.0865C107.388 33.0694 107.219 33.0298 107.07 32.9678L106.062 33.6624C106.063 33.8266 106.044 33.9956 106 34.1715ZM105.85 33.4105L106.913 32.6773L106.791 32.4995L105.727 33.2327L105.85 33.4105ZM105.559 32.9889L106.623 32.2557L106.5 32.0779L105.436 32.8111L105.559 32.9889ZM105.268 32.5674L106.332 31.8342L106.203 31.6464L105.139 32.3797L105.268 32.5674Z" fill="white"/>
<path d="M110.529 28.7367C111.021 29.4179 111.298 29.844 111.368 30.0157C111.435 30.1842 111.343 30.3641 111.084 30.5513L111.071 30.5607L110.762 30.3245C110.829 30.2809 110.887 30.2444 110.935 30.2093C110.997 30.1648 111.01 30.1011 110.976 30.0268C110.947 29.9591 110.795 29.7338 110.524 29.3519L110.213 29.7542L111.071 30.9447L110.773 31.16L109.98 30.0603L109.671 30.4659L110.527 31.6532C110.593 31.744 110.677 31.752 110.781 31.6771L111.657 31.0452C111.709 31.0078 111.731 30.957 111.725 30.8929C111.721 30.8264 111.637 30.6696 111.473 30.4137L111.824 30.2986C112.041 30.6547 112.146 30.8895 112.128 31.0012C112.111 31.1073 112.044 31.2052 111.924 31.2918L110.895 32.0337C110.652 32.2092 110.443 32.1725 110.27 31.9324L109.434 30.7743L109.256 31.0063L109.039 30.7046L109.217 30.4727L108.653 29.6909L108.954 29.4732L109.451 30.1609L109.76 29.7554L109.111 28.8568L109.41 28.6415L109.993 29.4493L110.529 28.7367ZM109.639 31.4551L109.862 31.7632C109.661 32.1204 109.424 32.4688 109.15 32.8142L108.848 32.559C108.959 32.4394 109.065 32.3134 109.166 32.1864L108.386 31.1062L108.043 31.3542L107.827 31.0558L108.171 30.8077L107.581 29.9902L107.883 29.7726L108.473 30.5901L108.784 30.3654L109 30.6639L108.688 30.8885L109.393 31.865C109.48 31.733 109.562 31.5945 109.639 31.4551Z" fill="white"/>
<path d="M114.252 27.1469L113.573 27.655L113.719 27.8503L114.443 27.3088L114.63 27.5586L113.906 28.1002L114.054 28.2987L114.871 27.6876L115.06 27.9407L114.244 28.5517L114.438 28.8112L114.143 29.0316L113.949 28.7722L113.248 29.297L113.058 29.044L113.76 28.5192L113.611 28.3206L113.009 28.7711L112.822 28.5213L113.424 28.0708L113.278 27.8755L112.743 28.2756L112.554 28.0226L113.089 27.6224L112.94 27.4239L112.248 27.9415L112.064 27.6949L112.756 27.1773L112.612 26.9851L112.077 27.3853L111.89 27.1355L112.425 26.7353L112.264 26.5207L112.559 26.3002L112.72 26.5148L113.399 26.0068L113.729 26.4488L113.921 26.305L114.106 26.5516L113.914 26.6954L114.252 27.1469ZM112.906 26.7646L113.05 26.9568L113.438 26.6668L113.294 26.4747L112.906 26.7646ZM113.235 27.2034L113.383 27.402L113.771 27.112L113.622 26.9134L113.235 27.2034ZM114.305 29.0806C114.667 28.8098 115.034 28.5198 115.409 28.2195L115.576 28.5492L114.637 29.2514C114.048 29.6923 113.564 29.9198 113.186 29.9425C113.137 29.9441 113.095 29.9408 113.061 29.936C113.064 30.1536 113.037 30.364 112.981 30.5703L112.589 30.4595C112.658 30.258 112.687 30.0564 112.679 29.8524C112.426 29.7617 112.165 29.6126 111.891 29.4075L112.078 29.1229C112.276 29.2743 112.459 29.3921 112.628 29.4707C112.564 29.2042 112.442 28.9353 112.27 28.6647L111.693 29.0961L111.521 28.8655C111.526 28.5119 111.506 28.1575 111.466 27.7974L110.989 28.1545L110.773 27.8662L111.59 27.2551L111.777 27.505C111.834 27.8818 111.868 28.2211 111.878 28.5283L112.342 28.1808L112.479 28.3633C112.773 28.7829 112.957 29.1951 113.03 29.6C113.097 29.6096 113.162 29.6105 113.226 29.6026C113.521 29.5621 113.88 29.3881 114.305 29.0806Z" fill="white"/>
<path d="M113.913 25.3644C114.233 25.3607 114.52 25.387 114.777 25.432L114.731 25.7998C114.496 25.7433 114.203 25.7163 113.858 25.7195L113.913 25.3644ZM114.201 26.5804L114.912 26.0345L115.942 27.3762C115.977 27.2182 116.009 27.0426 116.04 26.8471L116.367 27.1009C116.307 27.4496 116.219 27.7891 116.102 28.116L115.778 27.931C115.795 27.8476 115.78 27.7685 115.729 27.7019L114.842 26.5473L114.423 26.869L114.201 26.5804ZM115.624 26.0878L117.162 24.9059L117.374 25.1819C117.499 25.5349 117.532 25.8929 117.475 26.2592C117.781 26.2365 118.121 26.1669 118.484 26.0491L118.522 26.4335C118.107 26.5503 117.732 26.6066 117.395 26.6138C117.284 26.9815 117.086 27.3606 116.807 27.7462L116.444 27.6216C116.704 27.265 116.892 26.9244 117.003 26.5967C116.627 26.5531 116.3 26.436 116.029 26.2408L115.848 26.3797L115.624 26.0878ZM116.311 26.0239C116.532 26.1613 116.79 26.2407 117.09 26.2629C117.142 25.9758 117.141 25.699 117.082 25.4317L116.311 26.0239ZM114.905 24.6929L116.028 23.8302L116.54 24.4963C116.593 24.5661 116.66 24.5749 116.74 24.514L117.019 24.2996L117.231 24.5755L116.872 24.8509C116.647 25.0239 116.453 25.0014 116.293 24.792L115.947 24.3416L115.42 24.7461L115.493 24.8413C115.747 25.1712 115.776 25.5572 115.582 25.9939L115.204 25.9159C115.378 25.5907 115.385 25.3178 115.219 25.1021L114.905 24.6929Z" fill="white"/>
<path d="M118.288 22.7386L120.006 24.9297L119.719 25.1542L119.591 24.9905L119.094 25.3804L119.293 25.6354L119.007 25.86L117.218 23.5776L117.517 23.3432C117.44 23.1287 117.349 22.9211 117.231 22.7187L117.562 22.5252C117.666 22.723 117.745 22.9206 117.803 23.1186L118.288 22.7386ZM118.876 25.1034L119.374 24.7135L118.888 24.0933L118.39 24.4832L118.876 25.1034ZM118.18 24.2156L118.678 23.8257L118.224 23.2465L117.726 23.6364L118.18 24.2156ZM119.447 23.0499C119.857 23.1452 120.193 23.2429 120.456 23.3517L120.351 23.7036C120.068 23.5896 119.725 23.4881 119.323 23.3911L119.447 23.0499ZM119.915 21.4684C120.766 22.5545 121.276 23.2374 121.442 23.5139C121.588 23.7653 121.526 23.997 121.259 24.2068C121.196 24.2561 121.077 24.3387 120.913 24.4526L120.625 24.2355C120.769 24.1332 120.893 24.0457 120.994 23.9668C121.12 23.8681 121.141 23.7452 121.056 23.5982C120.951 23.426 120.546 22.8897 119.849 21.9875L119.059 22.6069C119.119 22.8649 119.154 23.117 119.158 23.3682L118.793 23.2727C118.764 22.8076 118.62 22.3258 118.355 21.8321L118.681 21.638C118.788 21.8389 118.872 22.0372 118.942 22.2309L119.915 21.4684Z" fill="white"/>
<path d="M123.727 20.3294L124.665 21.5108L124.389 21.7296L124.255 21.5603L122.998 22.5572L123.142 22.7389L122.869 22.9552L122.139 22.0338C122.074 22.2997 121.97 22.561 121.831 22.8241L121.469 22.677C121.728 22.1914 121.856 21.7222 121.848 21.2686L121.011 21.9324L120.793 21.6566L121.802 20.8561C121.768 20.7042 121.722 20.5566 121.662 20.4158L121.981 20.2191C122.034 20.3505 122.079 20.4781 122.118 20.6051L123.563 19.4591L123.782 19.7349L122.196 20.9927C122.218 21.1746 122.226 21.352 122.217 21.5275L123.727 20.3294ZM122.792 22.2971L124.048 21.3002L123.66 20.8114L122.404 21.8082L122.792 22.2971ZM120.179 20.8569L120.868 20.31L120.659 20.0468L120.948 19.8181L121.157 20.0813L121.937 19.4624L121.728 19.1991L122.016 18.9704L122.225 19.2337L122.911 18.6893L123.13 18.9651L122.444 19.5094L122.65 19.7696L122.362 19.9982L122.156 19.7381L121.375 20.3571L121.592 20.6298L121.303 20.8585L121.087 20.5858L120.398 21.1327L120.179 20.8569Z" fill="white"/>
<path d="M123.438 18.0957L125.769 16.2397L125.993 16.5213L124.979 17.3285L125.622 18.1359L126.868 17.1443L127.097 17.4322L125.851 18.4238L126.92 19.7663L126.62 20.0055L125.551 18.663L124.296 19.662L124.067 19.3741L125.322 18.3751L124.679 17.5677L123.662 18.3774L123.438 18.0957Z" fill="white"/>
<path d="M126.393 15.8945L127.742 14.8263L127.973 15.1179L127.518 15.4781L127.995 16.08L128.324 15.8192L128.473 16.0073C128.381 15.4728 128.164 14.9151 127.822 14.3288L128.141 14.1323C128.24 14.3089 128.328 14.4842 128.408 14.6558L129.329 13.9255L129.56 14.217L129.354 14.381C129.726 14.9025 129.945 15.4176 130.005 15.9314C130.391 16.0444 130.763 16.0762 131.119 16.0291L131.148 16.4141C130.787 16.4605 130.409 16.4281 130.023 16.3151C130.012 16.7379 129.897 17.1603 129.686 17.5773L129.311 17.4768C129.549 17.0431 129.665 16.6095 129.657 16.1872C129.361 16.0646 129.063 15.902 128.762 15.7019C128.799 15.877 128.827 16.054 128.841 16.2264L128.501 16.1386L128.218 16.3622L128.79 17.0833C128.906 16.9202 129.013 16.7589 129.113 16.6025L129.332 16.8784C129.059 17.3194 128.713 17.7976 128.297 18.316L127.999 18.1078C128.052 18.0456 128.099 17.9827 128.152 17.9205L127.019 16.4909L127.298 16.2698L128.379 17.6336C128.445 17.5502 128.506 17.4718 128.566 17.3933L127.23 15.7066L126.624 16.1861L126.393 15.8945ZM129.612 15.789C129.53 15.3895 129.347 14.9982 129.062 14.612L128.554 15.0144C128.577 15.0826 128.604 15.1483 128.625 15.2134C128.961 15.4574 129.289 15.6519 129.612 15.789Z" fill="white"/>
<path d="M129.894 14.1804L131.142 13.2049L130.995 13.0158L131.272 12.799L131.019 12.8193C131 12.5092 130.93 12.2185 130.807 11.9441L131.146 11.7805C131.181 11.8646 131.213 11.9512 131.241 12.0315L132.145 11.3245L132.352 11.5892L131.816 12.008C131.956 12.0564 132.077 12.1084 132.182 12.1583L132 12.4636C131.844 12.3819 131.68 12.3076 131.51 12.247L131.34 12.38C131.369 12.5202 131.387 12.6535 131.399 12.7861L131.309 12.7951L131.445 12.9684L132.693 11.9929L132.905 12.2639L131.657 13.2394L131.8 13.4222L132.833 12.6142L133.311 13.2256C133.449 13.4021 133.424 13.5642 133.234 13.7121L133.02 13.8796L132.738 13.674L132.955 13.5296C133.002 13.4926 133.005 13.4446 132.966 13.3942L132.742 13.1074L132.004 13.6838L132.204 13.9391C132.769 13.9742 133.387 13.8618 134.068 13.6034L134.125 14.0007C133.545 14.1804 132.98 14.2564 132.425 14.2227L133.009 14.9696L132.707 15.2061L132.13 14.4686C132.047 15.0112 131.867 15.5221 131.601 15.9995L131.212 15.872C131.564 15.3225 131.793 14.7522 131.896 14.1692L131.702 13.9203L131.014 14.4573L131.485 15.0592L131.192 15.2883L130.517 14.4248L131.497 13.6587L131.354 13.4759L130.106 14.4514L129.894 14.1804ZM130.014 13.4171C130.03 13.5815 130.039 13.7422 130.031 13.9008L129.647 13.9421C129.677 13.5782 129.639 13.2429 129.531 12.9362L129.867 12.775C129.899 12.8672 129.924 12.9587 129.945 13.0439L130.698 12.4552L130.905 12.7199L130.442 13.082C130.582 13.1305 130.71 13.1775 130.82 13.2281L130.626 13.5377C130.47 13.4559 130.303 13.3841 130.133 13.3234L130.014 13.4171Z" fill="white"/>
<path d="M132.793 10.408L134.584 11.3913L135.059 13.3787L134.717 13.4583L134.279 11.6241L132.626 10.7166L132.793 10.408Z" fill="white"/>
<path d="M135.994 8.06083C136.338 8.07045 136.648 8.10614 136.919 8.16467L136.86 8.53613C136.612 8.46982 136.304 8.42854 135.931 8.41466L135.994 8.06083ZM139.97 9.58521C139.793 9.71556 139.597 9.85454 139.389 10.003C139.177 10.1538 138.992 10.2601 138.833 10.3274C138.675 10.3836 138.506 10.3892 138.328 10.3507C138.243 10.3291 138.185 10.3318 138.147 10.3602C138.079 10.41 138.07 10.6403 138.119 11.0512L137.739 11.0077C137.708 10.6281 137.732 10.3572 137.814 10.1979L137.143 9.28601L136.711 9.6036L136.503 9.32004L137.221 8.79152L138.117 10.0095C138.143 10.0106 138.171 10.0148 138.201 10.0223C138.339 10.0548 138.464 10.0624 138.575 10.045C138.705 10.019 138.868 9.94374 139.063 9.81036C139.249 9.67849 139.467 9.52292 139.719 9.33806C139.877 9.22192 140.035 9.1002 140.194 8.97848C140.353 8.85675 140.474 8.75788 140.556 8.68744L140.705 9.04485L139.97 9.58521ZM137.524 7.42708L136.902 7.8845L136.715 7.62994L138.484 6.3288L138.642 6.54469C138.574 6.84326 138.474 7.12554 138.346 7.39796C138.358 7.39967 138.366 7.39815 138.378 7.39985L139.025 6.92348L140.078 8.35416C140.217 8.54427 140.182 8.71915 139.973 8.87321L139.725 9.0557L139.473 8.84854L139.711 8.69316C139.782 8.64102 139.795 8.57713 139.743 8.50624L139.622 8.34191L139.158 8.68319L139.546 9.21164L139.266 9.41783L138.877 8.88938L138.423 9.22356L138.816 9.75845L138.526 9.97175L137.247 8.23173L137.988 7.68663C137.829 7.69395 137.655 7.70753 137.471 7.73381L137.524 7.42708ZM138.053 7.39042C138.138 7.22321 138.207 7.05345 138.262 6.88435L137.54 7.41523C137.719 7.40251 137.89 7.3913 138.053 7.39042ZM138.075 8.74988L138.24 8.97544L138.695 8.64127L138.529 8.41571L138.075 8.74988ZM138.809 8.20952L138.975 8.43508L139.439 8.09379L139.273 7.86823L138.809 8.20952ZM139.088 7.6169L138.922 7.39134L138.458 7.73262L138.624 7.95818L139.088 7.6169ZM138.344 8.16437L138.178 7.93881L137.724 8.27299L137.89 8.49855L138.344 8.16437Z" fill="white"/>
<path d="M141.947 4.21803L143.737 6.77365L143.436 6.98475L143.305 6.79799L142.731 7.19954L142.864 7.38957L142.563 7.60067L140.771 5.04177L141.947 4.21803ZM142.527 6.90793L143.101 6.50639L141.85 4.72073L141.277 5.12228L142.527 6.90793ZM139.868 6.25541C139.907 6.47201 139.927 6.68238 139.932 6.88424L139.539 6.90104C139.533 6.4462 139.452 6.00973 139.292 5.59392L139.646 5.44376C139.7 5.59121 139.741 5.73342 139.78 5.87236L140.675 5.24594L140.883 5.5441L140.438 5.85616C140.574 6.06389 140.697 6.2608 140.799 6.44822L141.31 6.09027L141.519 6.38843L140.965 6.77621C141.002 6.85747 141.036 6.94102 141.069 7.01573C141.411 7.0789 141.773 7.16271 142.157 7.26487L142.169 7.68628C141.764 7.54022 141.435 7.43346 141.183 7.36601C141.286 7.8064 141.258 8.26092 141.089 8.73087L140.711 8.62412C140.875 8.1332 140.882 7.66919 140.733 7.22651C140.703 7.15508 140.673 7.07807 140.641 7.00337L139.995 7.45539L139.786 7.15724L140.478 6.67309C140.376 6.48567 140.252 6.28875 140.117 6.08102L139.868 6.25541Z" fill="white"/>
<path d="M142.582 3.27787L144.298 4.38776L144.628 6.40425L144.281 6.45894L143.977 4.59798L142.393 3.57356L142.582 3.27787ZM143.155 2.9034L144.87 4.01329L145.2 6.02978L144.853 6.08447L144.549 4.22351L142.952 3.20785L143.155 2.9034Z" fill="white"/>
</svg>
