<svg width="84" height="21" viewBox="0 0 84 21" fill="none" xmlns="http://www.w3.org/2000/svg">
<path d="M3.38799 4.24691L3.73408 4.36463L3.08906 6.14354L3.98346 7.80363L3.67549 7.97183L2.7062 6.17309L3.38799 4.24691ZM4.06996 4.19427L4.4001 4.31322L3.77103 6.0909L4.66543 7.751L4.35746 7.9192L3.38817 6.12045L4.06996 4.19427Z" fill="white"/>
<path d="M6.02864 4.06051C6.19919 4.24495 6.36768 4.44969 6.53013 4.6751L6.29521 4.82239L7.11937 4.7427C7.24075 4.50189 7.34198 4.21884 7.42343 3.89751L7.80333 3.96123C7.74115 4.23248 7.65238 4.47816 7.54538 4.7015L8.30185 4.62835L8.33727 4.99464L7.03933 5.12015L7.05126 5.24358C7.06178 5.43546 7.05881 5.61256 7.04673 5.7785L8.63134 5.62526L8.66676 5.99155L7.27326 6.12631C7.51494 6.5892 8.04919 6.9193 8.87641 7.12062L8.6881 7.50051C7.81889 7.23896 7.24547 6.83628 6.96026 6.29723C6.90669 6.49129 6.83527 6.66698 6.74561 6.82032C6.50952 7.20483 6.09415 7.52228 5.49949 7.77268L5.2605 7.46224C5.85439 7.20388 6.2442 6.91301 6.43392 6.58925C6.4984 6.46647 6.54979 6.3329 6.58845 6.19253L5.22681 6.3242L5.19138 5.95791L6.65655 5.81623C6.67223 5.64593 6.67918 5.46843 6.66905 5.28054L6.65711 5.15711L5.35518 5.28301L5.31976 4.91672L6.17179 4.83433C6.01807 4.61611 5.85909 4.42653 5.69843 4.26123L6.02864 4.06051Z" fill="white"/>
<path d="M9.16962 3.8652L12.1795 3.53462L12.2201 3.9044L10.9518 4.0437L11.0583 5.01387L12.605 4.844L12.6465 5.22172L11.0998 5.3916L11.2487 6.74745C11.2793 7.02577 11.1479 7.18507 10.8576 7.21695L10.2254 7.28638L10.1057 6.92932C10.3098 6.91897 10.5055 6.90553 10.6884 6.88544C10.8157 6.87147 10.8727 6.80484 10.8605 6.69351L10.7221 5.43309L9.10778 5.61038L9.06629 5.23266L10.6806 5.05536L10.574 4.08519L9.21023 4.23498L9.16962 3.8652Z" fill="white"/>
<path d="M13.1016 3.33554C13.3876 3.51216 13.6338 3.69332 13.8402 3.87904L13.6009 4.18022C13.4232 3.99926 13.1805 3.81367 12.868 3.61594L13.1016 3.33554ZM15.7825 6.63597C15.5679 6.66054 15.333 6.68342 15.0822 6.70811C14.8274 6.73327 14.618 6.73309 14.4505 6.712C14.2861 6.68252 14.14 6.60261 14.0053 6.48115C13.946 6.41951 13.8946 6.39317 13.8469 6.39864C13.7675 6.40774 13.6449 6.60295 13.4831 6.98382L13.1754 6.75737C13.3372 6.41272 13.4928 6.18956 13.6427 6.09188L13.5139 4.96723L12.9774 5.02866L12.9374 4.67895L13.8276 4.57701L14 6.08317C14.0178 6.09724 14.0394 6.11087 14.062 6.13243C14.1618 6.22972 14.2662 6.29828 14.3715 6.33857C14.4931 6.38101 14.6681 6.3972 14.8995 6.37876C15.1225 6.35725 15.3852 6.33119 15.6912 6.29614C15.882 6.2743 16.0802 6.24757 16.2825 6.22039C16.4807 6.19366 16.6348 6.16797 16.7412 6.14773L16.6926 6.53176L15.7825 6.63597ZM14.0674 3.7886L14.5046 3.73855L14.4359 3.13847L14.7975 3.09706L14.8662 3.69713L15.4067 3.63524L15.3384 3.03914L15.704 2.99727L15.7723 3.59338L16.2452 3.53922L16.2857 3.89291L15.8128 3.94707L15.8933 4.65047L16.4934 4.58175L16.5344 4.93942L15.9343 5.00813L16.0581 6.08907L15.6925 6.13093L15.5687 5.05L14.9368 5.12236C14.8779 5.59211 14.7178 5.95266 14.4493 6.20888L14.1881 5.93279C14.3925 5.74835 14.5202 5.49216 14.5712 5.16422L14.0903 5.21929L14.0494 4.86162L14.6018 4.79837C14.6022 4.66143 14.5942 4.52143 14.5774 4.37439L14.5451 4.09223L14.1079 4.14229L14.0674 3.7886ZM14.9067 4.05082L14.929 4.24555C14.9499 4.42836 14.9571 4.59663 14.9594 4.75741L15.5277 4.69234L15.4472 3.98893L14.9067 4.05082Z" fill="white"/>
<path d="M16.9868 4.48228L20.5856 4.09077L20.6262 4.46457L17.0275 4.85608L16.9868 4.48228Z" fill="white"/>
<path d="M22.4674 2.27131L22.8498 2.23614L22.8912 2.68624L24.0742 2.57742L24.1075 2.93989L22.9245 3.04871L22.9663 3.50279L24.5436 3.35771L24.5773 3.72416L23.0279 3.86668L23.1352 5.03375L22.7568 5.06856L22.6495 3.90149L21.0164 4.0517L20.9827 3.68525L21.5483 3.63322L21.4604 2.67726L21.8427 2.64208L21.9307 3.59805L22.5839 3.53796L22.4674 2.27131ZM23.9577 4.01815L24.3171 4.16987C23.9163 5.31539 22.9993 5.95809 21.5657 6.09397L21.393 5.74432C22.7712 5.61755 23.6259 5.04084 23.9577 4.01815ZM21.9522 4.09416L22.2407 4.30462C22.0437 4.69631 21.7866 5.04533 21.469 5.34769L21.2018 5.06297C21.505 4.778 21.7563 4.45362 21.9522 4.09416Z" fill="white"/>
<path d="M25.2742 3.6301C25.1794 3.77263 25.0805 3.91541 24.9771 4.05048L24.8229 3.65573C25.1682 3.17607 25.4048 2.62739 25.5406 2.00916L25.8943 2.14628C25.8259 2.44741 25.7288 2.7384 25.6064 3.01101L25.7836 5.70919L25.4124 5.73357L25.2742 3.6301ZM26.0928 2.1172L28.1644 1.98115L28.253 3.33025L27.4587 3.38241L27.4959 3.94919L28.398 3.88995L28.421 4.24119L27.519 4.30044L27.5738 5.13464C27.7025 5.14222 27.855 5.14423 28.0271 5.14094C28.2507 5.12626 28.458 5.10864 28.649 5.08807L28.6048 5.45175L28.2216 5.47692C27.6466 5.51068 27.2475 5.47676 27.0326 5.37863C26.81 5.28502 26.6188 5.12119 26.4674 4.89062C26.3758 5.2053 26.2574 5.47764 26.1119 5.70366L25.8528 5.42004C26.1006 4.98285 26.2515 4.41174 26.3055 3.70669L26.6689 3.74696C26.6457 4.00503 26.613 4.23967 26.5713 4.45888C26.6366 4.5989 26.7206 4.71765 26.8237 4.82312C26.9354 4.93605 27.0609 5.01599 27.1963 5.06322L27.0875 3.40679L26.1814 3.4663L26.0928 2.1172ZM27.8627 3.00312L27.82 2.35252L26.4868 2.44008L26.5296 3.09068L27.8627 3.00312Z" fill="white"/>
<path d="M29.2873 1.8289C29.5577 2.02854 29.7881 2.22942 29.9785 2.43156L29.7152 2.71194C29.553 2.51692 29.3265 2.31191 29.0314 2.08904L29.2873 1.8289ZM31.6864 5.33953C31.4705 5.34629 31.2345 5.34968 30.9825 5.35357C30.7265 5.35759 30.5178 5.34011 30.3527 5.30526C30.1912 5.26229 30.0523 5.1706 29.9281 5.03842C29.874 4.97208 29.825 4.9416 29.7771 4.9431C29.6971 4.9456 29.5588 5.13002 29.3662 5.49623L29.0782 5.24512C29.2679 4.91502 29.4415 4.70549 29.5989 4.62052L29.5634 3.48907L29.0237 3.50597L29.0127 3.15415L29.9082 3.1261L29.9557 4.64136C29.9722 4.65685 29.9927 4.67222 30.0134 4.69558C30.1048 4.80077 30.2032 4.87773 30.3048 4.92657C30.4225 4.97891 30.5955 5.00951 30.8277 5.01025C31.0517 5.00723 31.3157 5.00297 31.6235 4.99333C31.8154 4.98732 32.0152 4.97706 32.219 4.96668C32.4188 4.95642 32.5744 4.94354 32.6821 4.93217L32.6019 5.31086L31.6864 5.33953ZM30.2124 2.36021L30.6522 2.34643L30.6333 1.74273L30.9971 1.73134L31.016 2.33504L31.5598 2.31801L31.541 1.71831L31.9088 1.70679L31.9276 2.3065L32.4033 2.2916L32.4145 2.64742L31.9387 2.66232L31.9609 3.36998L32.5646 3.35107L32.5759 3.71089L31.9722 3.7298L32.0062 4.81727L31.6384 4.82878L31.6043 3.74132L30.9686 3.76122C30.8711 4.2245 30.6818 4.5706 30.393 4.80375L30.1556 4.50704C30.3745 4.3401 30.5229 4.09534 30.6008 3.77274L30.1171 3.78789L30.1058 3.42807L30.6615 3.41066C30.6733 3.27423 30.6769 3.13405 30.6722 2.98612L30.6633 2.70226L30.2236 2.71603L30.2124 2.36021ZM31.0272 2.69087L31.0333 2.88677C31.0391 3.07068 31.0323 3.23897 31.0213 3.3994L31.5931 3.38149L31.5709 2.67384L31.0272 2.69087Z" fill="white"/>
<path d="M33.5765 3.103L33.5725 3.68699L34.1324 3.69085L34.1365 3.10686L33.5765 3.103ZM34.1388 2.76687L34.1429 2.17488L33.5829 2.17102L33.5788 2.76301L34.1388 2.76687ZM33.5621 4.03093C33.5303 4.57472 33.4312 5.02605 33.2648 5.38091L32.9786 5.11893C33.141 4.77204 33.224 4.3286 33.2318 3.78864L33.2453 1.82469L34.4893 1.83326L34.4677 4.96119C34.4658 5.23318 34.3409 5.36832 34.0969 5.36664L33.7769 5.36444L33.6872 5.02781C33.7991 5.04058 33.8991 5.04927 33.9951 5.04993C34.0791 5.05051 34.1236 4.97882 34.1245 4.83882L34.1301 4.03484L33.5621 4.03093ZM35.1048 3.64554L35.0949 5.07351C35.3037 4.96294 35.4807 4.82016 35.6299 4.65318C35.3999 4.35559 35.2422 4.0185 35.1568 3.6459L35.1048 3.64554ZM35.0949 5.08551L35.0928 5.3895L34.7368 5.38705L34.7612 1.83513L36.4452 1.84673C36.4416 2.36672 36.4153 2.71055 36.3661 2.88221C36.3169 3.04988 36.1643 3.13283 35.9083 3.13106L35.5724 3.12875L35.4746 2.80807C35.5386 2.80851 35.6265 2.81312 35.7385 2.81389C35.8225 2.81447 35.8866 2.80691 35.9267 2.79518C35.9667 2.78346 35.999 2.74768 36.0234 2.69185C36.0478 2.62401 36.065 2.45613 36.0748 2.18819L35.1149 2.18158L35.1071 3.30955L36.4591 3.31886L36.4569 3.63885C36.3822 4.03035 36.2599 4.36552 36.09 4.64035C36.2529 4.79748 36.4439 4.9388 36.659 5.06828L36.4688 5.38698C36.2418 5.24941 36.0428 5.09604 35.8759 4.93088C35.7107 5.11375 35.5136 5.2644 35.2888 5.38285L35.0949 5.08551ZM35.4808 3.64813C35.559 3.90868 35.6774 4.1455 35.8399 4.35862C35.9613 4.15145 36.0549 3.91609 36.1208 3.65254L35.4808 3.64813Z" fill="white"/>
<path d="M38.2129 1.75094L38.5979 1.82479C38.5536 1.91884 38.5054 2.00871 38.4535 2.09041L40.1637 2.16943L40.1495 2.47711C39.897 2.74173 39.5942 2.968 39.2454 3.15209C39.6655 3.33168 40.136 3.46153 40.6613 3.53386L40.473 3.88154C39.857 3.78099 39.3046 3.60331 38.82 3.34466C38.3306 3.53827 37.764 3.66826 37.1282 3.73498L36.9688 3.37124C37.5074 3.32805 37.992 3.23833 38.4148 3.1017C38.2282 2.98095 38.0583 2.84497 37.9007 2.70154C37.7595 2.81114 37.6067 2.91219 37.4383 3.00451L37.2205 2.69013C37.7004 2.44402 38.0312 2.13095 38.2129 1.75094ZM38.8345 2.9449C39.1165 2.82179 39.3676 2.67322 39.5919 2.49939L38.1894 2.43458C38.1768 2.44601 38.1685 2.45363 38.1641 2.46144C38.3639 2.64286 38.5887 2.80541 38.8345 2.9449ZM38.5171 3.57492L38.8927 3.59228C38.886 3.73613 38.8678 3.87143 38.8419 3.99837L40.2204 4.06207C40.1801 4.76095 40.1008 5.17774 39.9826 5.30842C39.8645 5.43911 39.6613 5.5018 39.3816 5.48887C39.2458 5.48259 39.0783 5.46685 38.8871 5.446L38.8071 5.09793C39.0145 5.11553 39.1819 5.13127 39.3094 5.14517C39.5134 5.15059 39.6433 5.11255 39.6989 5.03503C39.7548 4.95352 39.7969 4.73524 39.8251 4.38417L38.7423 4.33413C38.7019 4.42836 38.6577 4.51842 38.6058 4.60011C38.3894 4.9505 37.9083 5.22458 37.1582 5.42617L36.9207 5.10686C37.5808 4.94516 38.0191 4.73317 38.2316 4.4667C38.266 4.41623 38.3003 4.36576 38.3267 4.31492L37.2039 4.26304L37.2196 3.9234L38.4583 3.98064C38.4882 3.85389 38.5104 3.71877 38.5171 3.57492Z" fill="white"/>
<path d="M41.2218 2.06366L43.1263 2.23286L43.0965 2.56754L42.722 2.53427L42.6763 3.04824L43.1385 3.0893L43.1074 3.43992L42.6452 3.39886L42.5702 4.24353L42.2036 4.21097L42.2786 3.36629L41.8324 3.32665C41.7495 3.71685 41.5796 4.00293 41.3148 4.1802L41.0503 3.9037C41.2546 3.77327 41.3933 3.56874 41.4619 3.29373L41.0116 3.25373L41.0428 2.90311L41.5169 2.94523L41.5626 2.43126L41.192 2.39834L41.2218 2.06366ZM41.9291 2.46382L41.8835 2.9778L42.3098 3.01568L42.3555 2.5017L41.9291 2.46382ZM43.3786 2.37575L43.7412 2.40796L43.6198 3.77458L43.2572 3.74237L43.3786 2.37575ZM41.1101 4.45114L42.4767 4.57255L42.5025 4.2817L42.877 4.31497L42.8512 4.60583L44.1899 4.72476L44.1591 5.0714L42.8204 4.95246L42.7875 5.323L44.3453 5.4614L44.3146 5.80804L40.7924 5.49512L40.8232 5.14849L42.413 5.28973L42.4459 4.91919L41.0793 4.79777L41.1101 4.45114ZM43.9289 4.40842L43.395 4.36099L43.3425 4.00293C43.5124 4.03409 43.675 4.05657 43.8304 4.07038C43.9101 4.07746 43.9596 4.0176 43.9706 3.89409L44.1192 2.22068L44.4818 2.25289L44.3254 4.01396C44.3002 4.29684 44.168 4.42966 43.9289 4.40842Z" fill="white"/>
<path d="M45.7528 3.18739C45.6682 3.32471 45.5713 3.43597 45.4705 3.51838L45.1971 3.25655C45.4169 3.07818 45.5764 2.81429 45.6805 2.45753L46.0248 2.56393C45.989 2.67191 45.9543 2.77197 45.9174 2.85959L46.2776 2.91171L46.3452 2.44457L46.7173 2.49841L46.6498 2.96555L47.3584 3.06807L47.3086 3.41248L46.5999 3.30996L46.5387 3.73355L47.3621 3.85268L47.3111 4.20501L46.4877 4.08588L46.4396 4.41842L47.2036 4.52896L47.0507 5.58595C47.0129 5.84723 46.8594 5.9584 46.5902 5.91945L46.3962 5.89139L46.3522 5.52531L46.5241 5.56635C46.631 5.58181 46.6933 5.54232 46.7059 5.45523L46.7969 4.82578L46.3892 4.76679L46.1904 6.14049L45.8183 6.08665L46.017 4.71296L45.6093 4.65396L45.4461 5.78222L45.0819 5.72953L45.2955 4.2529L46.0674 4.36458L46.1156 4.03204L45.1892 3.89802L45.2402 3.54569L46.1665 3.67971L46.2278 3.25612L45.7528 3.18739ZM47.6753 3.00075L48.0395 3.05344L47.689 5.47622L47.3248 5.42352L47.6753 3.00075ZM47.9691 6.36145L47.3793 6.27611L47.3482 5.90383C47.536 5.94716 47.713 5.98085 47.8872 6.00605C47.9901 6.02094 48.0496 5.97296 48.065 5.86608L48.5146 2.75843L48.8868 2.81227L48.4234 6.01492C48.3845 6.28412 48.2304 6.39925 47.9691 6.36145Z" fill="white"/>
<path d="M49.8643 2.99131C50.079 3.25966 50.2584 3.52082 50.3955 3.76925L50.0801 3.97432C49.9649 3.73852 49.7942 3.47505 49.56 3.1823L49.8643 2.99131ZM51.3845 6.98401C51.1729 6.94081 50.9385 6.88889 50.6885 6.83377C50.4345 6.77785 50.2316 6.71194 50.0789 6.63995C49.9318 6.56092 49.8138 6.43885 49.7234 6.2816C49.6822 6.20378 49.6376 6.16202 49.5945 6.15322C49.5083 6.13562 49.3312 6.28319 49.0585 6.59903L48.8362 6.28829C49.0977 6.00691 49.3188 5.84383 49.4916 5.79745L49.718 4.68832L49.1928 4.58112L49.2632 4.23623L50.1372 4.41463L49.834 5.9C49.8465 5.91888 49.8628 5.93856 49.8776 5.96607C49.9501 6.09109 50.0282 6.18867 50.1118 6.25882C50.2182 6.33769 50.3834 6.40816 50.617 6.464C50.8357 6.51272 51.0975 6.57024 51.4032 6.63264C51.5952 6.67184 51.792 6.70792 51.9926 6.7448C52.1894 6.78088 52.3438 6.80424 52.4552 6.8188L52.2898 7.16881L51.3845 6.98401ZM51.0236 4.03218C50.9337 4.15264 50.8383 4.25973 50.7407 4.35819L50.4742 4.10375C50.7167 3.87564 50.9091 3.61282 51.0515 3.31529L51.3781 3.45543C51.3307 3.54781 51.284 3.63627 51.2351 3.7161L51.627 3.7961L51.7166 3.35715L52.0732 3.42995L51.9836 3.86889L52.7557 4.02649L52.6853 4.37138L51.9132 4.21378L51.8276 4.63314L52.8035 4.83233L52.7339 5.1733L50.3118 4.67891L50.3814 4.33794L51.471 4.56034L51.5566 4.14098L51.0236 4.03218ZM50.5789 4.99061L52.3974 5.36181L52.1614 6.51797L50.3429 6.14677L50.5789 4.99061ZM51.8744 6.1042L51.9712 5.62998L50.8659 5.40438L50.7692 5.8786L51.8744 6.1042Z" fill="white"/>
<path d="M53.3343 5.01333L53.9394 3.96548L54.2902 4.12482L53.8994 4.7867L54.4716 4.93856C54.621 4.67196 54.759 4.38579 54.8895 4.08108L55.2522 4.22701C55.1248 4.52012 54.9908 4.79082 54.8543 5.04014L56.625 5.5101L56.5316 5.86192L54.6682 5.36734C54.5956 5.48466 54.5213 5.59322 54.4519 5.69895L55.9983 6.10939L55.9162 6.41868C55.7316 6.70902 55.4662 6.94484 55.1124 7.12408C55.3631 7.36444 55.6788 7.60962 56.0555 7.85859L55.7737 8.15627C55.3511 7.862 55.007 7.56789 54.7433 7.28271C54.3815 7.41429 53.9551 7.50807 53.4644 7.56404L53.3634 7.16478C53.787 7.12821 54.1605 7.06181 54.4791 6.96842C54.2812 6.70068 54.1492 6.4339 54.086 6.17296C53.6558 6.67127 53.1829 7.0341 52.6712 7.26248L52.572 6.87198C53.2307 6.54191 53.7993 6.00582 54.2777 5.2637L53.3343 5.01333ZM54.4061 6.04272C54.4732 6.30469 54.6178 6.57068 54.841 6.83684C55.1369 6.70431 55.3711 6.53888 55.5389 6.34337L54.4061 6.04272ZM55.913 4.35686C56.1264 4.62871 56.2963 4.89313 56.4236 5.14626L56.0909 5.33938C55.9896 5.0973 55.8286 4.83106 55.6009 4.53476L55.913 4.35686Z" fill="white"/>
<path d="M57.8047 6.47523L58.3293 6.64712L58.4289 6.34303L57.7941 6.13502L57.6995 6.42391C57.6248 6.65197 57.5373 6.86746 57.4472 7.06524L58.12 7.28571L58.2247 6.96641L57.7001 6.79453L57.8047 6.47523ZM57.2945 7.3772C57.0865 7.76785 56.8454 8.10555 56.5723 8.38649L56.3656 8.02831C56.762 7.62783 57.0842 7.05571 57.3346 6.30433L57.7531 5.02715L60.661 5.98L60.3371 6.9683L59.8087 6.79516L59.7091 7.09925L60.2793 7.28609L60.1746 7.60538L59.6045 7.41855L59.4999 7.73784L60.1993 7.96703L60.0921 8.29392L59.712 8.16937L59.8615 8.45827C59.6963 8.5641 59.5285 8.63959 59.3617 8.68598C59.5195 8.85973 59.7138 9.0118 59.9485 9.14342L59.6653 9.42947C59.0397 9.02662 58.6789 8.48328 58.5793 7.79819L58.108 7.64374L57.8713 8.36596C58.118 8.38367 58.3407 8.38507 58.5354 8.3689L58.4955 8.72202C58.1527 8.72756 57.7579 8.69921 57.3111 8.63698L57.3156 8.2891C57.4446 8.28085 57.5278 8.21971 57.5676 8.09808L57.7544 7.52791L57.2945 7.3772ZM58.9442 7.91777C58.9893 8.0883 59.0559 8.24481 59.1427 8.3911C59.3158 8.35101 59.4887 8.27296 59.6626 8.15318L58.9442 7.91777ZM59.459 6.68057L58.7748 6.45637L58.6752 6.76046L59.3594 6.98466L59.459 6.68057ZM58.4659 7.39905L59.1501 7.62325L59.2548 7.30396L58.5706 7.07976L58.4659 7.39905ZM60.1877 6.19113L58.0096 5.47742L57.9 5.81192L60.0781 6.52563L60.1877 6.19113Z" fill="white"/>
<path d="M62.5615 7.25L61.5626 9.84862L61.2228 9.71801L61.2974 9.52386L60.7075 9.29709L60.5913 9.59952L60.2515 9.46891L61.292 6.76202L61.6467 6.89837C61.7915 6.72259 61.9227 6.53733 62.0358 6.33226L62.3718 6.51714C62.2555 6.70814 62.1263 6.87703 61.9865 7.02897L62.5615 7.25ZM60.8338 8.96853L61.4237 9.1953L61.7065 8.45977L61.1166 8.233L60.8338 8.96853ZM61.2386 7.91564L61.8285 8.14241L62.0926 7.45542L61.5026 7.22865L61.2386 7.91564ZM62.8891 8.40442C63.0178 8.8053 63.1063 9.14359 63.148 9.42531L62.7919 9.51555C62.7448 9.21459 62.6554 8.8674 62.5327 8.47312L62.8891 8.40442ZM64.4866 7.99432C63.9915 9.28243 63.6671 10.0705 63.5149 10.3549C63.3742 10.6093 63.1434 10.6748 62.826 10.5528C62.7513 10.5241 62.6198 10.465 62.4374 10.382L62.4764 10.0242C62.6378 10.0948 62.7768 10.1568 62.8963 10.2028C63.0456 10.2602 63.1617 10.2148 63.2443 10.0666C63.3385 9.8885 63.5908 9.26555 64.0073 8.20434L63.0702 7.84409C62.8795 8.02792 62.6811 8.18735 62.4675 8.31949L62.3623 7.95766C62.7465 7.69395 63.0862 7.32314 63.3739 6.84234L63.7076 7.02206C63.5899 7.21679 63.463 7.39085 63.3329 7.55083L64.4866 7.99432Z" fill="white"/>
<path d="M65.6727 10.9321C65.2393 11.1204 64.6573 11.1579 63.9305 11.0462L63.8671 10.6665C64.6281 10.7798 65.1927 10.7522 65.5589 10.5785L65.6577 10.5208L64.2315 9.90874L64.3734 9.57792L65.9798 10.2673C66.1626 10.0846 66.3198 9.8604 66.4512 9.59471L66.6437 9.14626L66.9818 9.29139L66.7894 9.73984C66.6616 10.0071 66.5155 10.236 66.3473 10.425L67.5015 10.9204L67.3596 11.2512L66.062 10.6943C66.031 10.7159 66 10.7374 65.9727 10.7605C66.3948 11.1767 66.7606 11.6123 67.0734 12.0599L66.7529 12.2793C66.4296 11.7749 66.0685 11.3283 65.6727 10.9321ZM65.1988 9.1051C65.414 9.3237 65.5977 9.55489 65.7499 9.79867L65.4515 9.99706C65.2978 9.72649 65.1156 9.49162 64.914 9.29194L65.1988 9.1051ZM65.7799 8.74508C65.9967 8.96001 66.1804 9.1912 66.3289 9.4334L66.0305 9.63179C65.8752 9.3649 65.6983 9.12793 65.4967 8.92824L65.7799 8.74508ZM68.1862 9.23369L67.8628 9.98723L67.5247 9.8421L67.7108 9.40835L65.3142 8.37982L65.128 8.81356L64.7899 8.66843L65.1132 7.91489L66.4917 8.50646C66.4954 8.38618 66.496 8.27326 66.4897 8.16611L66.8715 8.26032C66.8715 8.38217 66.863 8.51347 66.8445 8.6579L68.1862 9.23369Z" fill="white"/>
<path d="M68.7119 9.66617L69.239 9.9081C69.2506 9.71978 69.2536 9.5407 69.2426 9.37282L69.6236 9.47287C69.617 9.65028 69.6021 9.84587 69.5735 10.0616L70.0024 10.2585L69.8489 10.593L69.14 10.2676L68.9448 10.6929L69.5883 10.9883C69.1545 11.9335 68.8676 12.5104 68.7368 12.7188C68.6003 12.9203 68.3886 12.9595 68.0978 12.8261C68.0687 12.8127 68.0212 12.7821 67.9554 12.7431L68.0209 12.3991C68.0813 12.44 68.1362 12.474 68.1871 12.4973C68.3143 12.5557 68.419 12.529 68.5012 12.417C68.5761 12.3018 68.7822 11.8814 69.1215 11.1613L68.7943 11.0112C68.4038 11.8046 67.9973 12.3354 67.5749 12.6037L67.4202 12.2598C67.8055 12.0053 68.1818 11.4827 68.5459 10.6991L68.8128 10.1174L68.5584 10.0006L68.7119 9.66617ZM70.4292 10.7096C70.1891 10.9163 69.9511 11.08 69.7136 11.2042L69.6117 10.8318C69.9496 10.6612 70.3033 10.3702 70.6745 9.96401L70.9647 10.1852C70.8783 10.2776 70.7952 10.3627 70.7122 10.4478L71.9664 11.0235L71.8179 11.347L70.4292 10.7096ZM71.5054 11.6921C71.1867 12.3865 70.975 12.7998 70.8792 12.9319C70.7797 13.0623 70.6102 13.0769 70.3702 12.9668L70.3521 12.9585L70.3983 12.6276C70.4601 12.6559 70.513 12.6846 70.5602 12.7063C70.6002 12.7247 70.6423 12.7 70.6813 12.6342C70.7169 12.5758 70.826 12.3574 70.9995 11.9793L70.6782 11.9506L70.1342 13.1358L69.8143 12.9889L70.3066 11.9165L69.9816 11.8862L69.5461 12.835C69.4727 12.995 69.4888 13.1036 69.5979 13.1537L70.285 13.469C70.3613 13.504 70.4278 13.5126 70.4809 13.4929C70.5445 13.4693 70.632 13.3554 70.745 13.1476L70.9997 13.3789C70.8235 13.6766 70.6839 13.8369 70.5738 13.8657C70.4761 13.8868 70.3537 13.8659 70.201 13.7958L69.3612 13.4103C69.114 13.2969 69.0655 13.0766 69.2124 12.7566L69.6261 11.8551L69.3263 11.8275L69.4698 11.5148L69.7696 11.5424L69.9932 11.0553L70.2986 11.1954L70.1251 11.5735L70.4517 11.6002L70.7137 11.0295L71.0336 11.1763L70.8234 11.6343L71.5054 11.6921Z" fill="white"/>
<path d="M73.2095 11.7559L72.6447 11.4906L72.7808 11.201L73.9755 11.7623C73.9754 11.6871 73.9737 11.6156 73.9685 11.5513L74.3686 11.6685C74.3653 11.7509 74.3622 11.8423 74.352 11.9391L75.6046 12.5277L75.4686 12.8173L74.8929 12.5468L74.6859 12.7147L75.5367 13.1144L75.3972 13.4113L72.233 11.9247L72.3725 11.6279L73.1943 12.014L73.2095 11.7559ZM73.5527 12.1824L74.3275 12.5464L74.5345 12.3785L73.5679 11.9243L73.5527 12.1824ZM72.5381 12.2537L74.9493 13.3865L74.4186 14.516L72.0074 13.3832L72.5381 12.2537ZM74.2043 14.0972L74.2894 13.9162L72.5516 13.0997L72.4666 13.2808L74.2043 14.0972ZM72.6673 12.8536L74.405 13.67L74.4884 13.4926L72.7506 12.6762L72.6673 12.8536ZM71.8035 13.4598L72.1043 13.6851C71.8866 13.932 71.6551 14.1237 71.408 14.264L71.1979 13.9399C71.4346 13.8124 71.6329 13.6537 71.8035 13.4598ZM73.2504 15.187L72.367 14.772C72.0883 14.641 72.0102 14.4497 72.1259 14.2035L72.3436 13.7401L72.6912 13.9033L72.5075 14.2943C72.4649 14.3849 72.4971 14.4574 72.6094 14.5102L73.3298 14.8486C73.395 14.8792 73.4488 14.8869 73.4861 14.8734C73.5376 14.8579 73.6072 14.7756 73.6965 14.6232L73.973 14.8812C73.825 15.121 73.7012 15.2529 73.5977 15.2662C73.5085 15.2773 73.3916 15.2533 73.2504 15.187ZM73.2931 14.0049C73.3699 14.2178 73.4189 14.3955 73.4422 14.5435L73.0627 14.6082C73.0355 14.4496 72.9862 14.263 72.9131 14.0518L73.2931 14.0049ZM74.3869 14.6116C74.4755 14.9405 74.5306 15.2183 74.5539 15.4414L74.1744 15.5062C74.154 15.2579 74.1059 14.9746 74.0265 14.6545L74.3869 14.6116Z" fill="white"/>
<path d="M78.906 13.9817L77.9682 16.0116L77.6196 15.8505L78.4014 14.1584L76.8835 13.4571L76.1001 15.1529L75.7515 14.9918L76.691 12.9584L78.906 13.9817ZM77.3507 13.9241L77.6921 14.0818L77.3783 14.7609C77.2805 14.9536 77.1765 15.1215 77.063 15.2717L77.3717 15.4143L76.9757 16.2713C76.9137 16.4056 76.929 16.4964 77.0234 16.5401L77.5536 16.785C77.5971 16.8051 77.6491 16.8071 77.7005 16.7912C77.7572 16.7733 77.8567 16.6343 77.9954 16.3723L78.2755 16.6339C78.0728 16.9676 77.9264 17.1511 77.8345 17.188C77.735 17.2125 77.6219 17.1999 77.495 17.1501L76.7797 16.8196C76.5182 16.6988 76.4597 16.4823 76.6023 16.1736L76.9613 15.3966C76.7816 15.6043 76.5896 15.7624 76.3783 15.8763C75.9977 16.0706 75.5018 16.1235 74.8872 16.0422L74.8363 15.6662C75.4509 15.7474 75.9166 15.7026 76.2298 15.5301C76.5462 15.3414 76.8122 15.0325 77.037 14.6032L77.3507 13.9241Z" fill="white"/>
<path d="M80.1458 14.3548L80.1531 16.3981L78.6442 17.7758L78.409 17.5153L79.8015 16.2437L79.7949 14.3581L80.1458 14.3548ZM80.7721 14.6297L80.7795 16.673L79.2705 18.0507L79.0353 17.7902L80.4278 16.5187L80.4065 14.6265L80.7721 14.6297Z" fill="white"/>
</svg>
