<svg width="62" height="6" viewBox="0 0 62 6" fill="none" xmlns="http://www.w3.org/2000/svg">
<path d="M6.02078 0.691992L6.38078 0.847992L5.60478 2.55999L6.36478 4.27199L6.02078 4.42799L5.19278 2.55999L6.02078 0.691992ZM6.71678 0.691992L7.06078 0.847992L6.30078 2.55999L7.06078 4.27199L6.71678 4.42799L5.88878 2.55999L6.71678 0.691992ZM7.86478 1.87599H9.08478V1.70399H7.56878V1.35199H9.08478V1.15999C8.70478 1.17599 8.30878 1.19199 7.89278 1.20799L7.82478 0.875992C8.86078 0.847992 9.78478 0.795992 10.5928 0.715992L10.7168 1.05199C10.3408 1.08399 9.93278 1.11199 9.50078 1.13599V1.35199H11.0248V1.70399H9.50078V1.87599H10.7248V3.26799H9.50078V3.45599H10.8848V3.78399H9.50078V3.97999H11.0848V4.33599H7.51678V3.97999H9.08478V3.78399H7.71678V3.45599H9.08478V3.26799H7.86478V1.87599ZM10.3208 2.93999V2.72399H9.50078V2.93999H10.3208ZM9.08478 2.93999V2.72399H8.26878V2.93999H9.08478ZM8.26878 2.41199H9.08478V2.20399H8.26878V2.41199ZM9.50078 2.20399V2.41199H10.3208V2.20399H9.50078ZM14.8328 2.81599V4.43199H14.4248V4.25199H12.8328V4.43199H12.4248V2.81599H14.8328ZM12.8328 3.85999H14.4248V3.20799H12.8328V3.85999ZM14.4648 1.49999H12.2728V1.98799H14.4648V1.49999ZM12.2728 2.37199V2.53999C12.2688 3.27199 12.0928 3.90399 11.7488 4.43599L11.4208 4.13999C11.7088 3.72399 11.8568 3.19199 11.8608 2.53999V1.10799H13.1688C13.1168 0.975992 13.0608 0.851992 13.0048 0.739992L13.4408 0.667992C13.4928 0.799992 13.5448 0.947992 13.5968 1.10799H14.8808V2.37199H12.2728ZM17.0888 1.62399H17.5128V1.95599H18.6328V2.92799H19.0928V3.31599H17.7448C17.9608 3.63199 18.4248 3.88399 19.1328 4.07599L18.9008 4.45199C18.0608 4.16799 17.5368 3.78799 17.3208 3.31599H17.3128C17.2408 3.47199 17.1528 3.61199 17.0528 3.73599C16.7808 4.04399 16.3408 4.27999 15.7328 4.44799L15.5048 4.08399C16.1128 3.91599 16.5248 3.70399 16.7368 3.45599C16.7728 3.40799 16.8048 3.36399 16.8328 3.31599H15.5088V2.92799H15.9608V1.95599H17.0888V1.62399ZM16.3688 2.92799H17.0008C17.0488 2.76399 17.0768 2.58799 17.0888 2.40399V2.34399H16.3688V2.92799ZM17.4408 2.92799H18.2248V2.34399H17.5128V2.40399C17.5008 2.59599 17.4768 2.76799 17.4408 2.92799ZM15.5288 1.02399H16.4128V0.707992H16.8368V1.02399H17.7648V0.707992H18.1888V1.02399H19.0728V1.40799H18.1888V1.74399H17.7648V1.40799H16.8368V1.74399H16.4128V1.40799H15.5288V1.02399ZM20.3088 1.49199H22.2888V1.86799H21.5128V2.32399H22.1648V2.69199H21.5128V3.21599H21.8768C21.8128 3.06799 21.7408 2.93999 21.6608 2.82799L21.9928 2.71999C22.0808 2.84399 22.1608 2.97999 22.2248 3.12799L22.0288 3.21599H22.4048V3.59199H20.2008V3.21599H21.0888V2.69199H20.4368V2.32399H21.0888V1.86799H20.3088V1.49199ZM22.9968 0.855992V4.41199H22.5728V4.26399H20.0288V4.41199H19.6048V0.855992H22.9968ZM20.0288 3.87199H22.5728V1.24799H20.0288V3.87199ZM24.5448 1.08799C24.8208 1.08799 25.0488 1.16799 25.2288 1.32799C25.4048 1.48799 25.4928 1.69199 25.4928 1.94799C25.4928 2.19599 25.3968 2.41999 25.2128 2.62399C25.1008 2.74399 24.9008 2.89599 24.6208 3.08399C24.3288 3.27599 24.1528 3.44399 24.0888 3.58799H25.4968V3.99999H23.5048C23.5048 3.70799 23.5968 3.45599 23.7888 3.23999C23.8928 3.11999 24.1128 2.94399 24.4448 2.71599C24.6288 2.58799 24.7568 2.47999 24.8368 2.39599C24.9608 2.25599 25.0248 2.10399 25.0248 1.94399C25.0248 1.78799 24.9808 1.67199 24.9008 1.59599C24.8168 1.51999 24.6928 1.48399 24.5288 1.48399C24.3528 1.48399 24.2208 1.54399 24.1328 1.66399C24.0448 1.77599 23.9968 1.94799 23.9888 2.17199H23.5208C23.5248 1.85199 23.6168 1.59599 23.8008 1.39999C23.9888 1.19199 24.2368 1.08799 24.5448 1.08799ZM26.6992 1.49599C26.7872 1.49599 26.8592 1.52399 26.9232 1.58799C26.9832 1.64799 27.0152 1.72399 27.0152 1.81199C27.0152 1.89999 26.9832 1.97199 26.9232 2.03199C26.8592 2.09199 26.7872 2.12399 26.6992 2.12399C26.6112 2.12399 26.5352 2.09199 26.4752 2.03199C26.4152 1.97199 26.3872 1.89999 26.3872 1.81199C26.3872 1.72399 26.4152 1.64799 26.4752 1.58799C26.5352 1.52399 26.6112 1.49599 26.6992 1.49599ZM26.6992 2.95999C26.7872 2.95999 26.8592 2.98799 26.9232 3.05199C26.9832 3.11199 27.0152 3.18799 27.0152 3.27599C27.0152 3.36399 26.9832 3.43599 26.9232 3.49599C26.8592 3.55599 26.7872 3.58799 26.6992 3.58799C26.6112 3.58799 26.5352 3.55599 26.4752 3.49599C26.4152 3.43599 26.3872 3.36399 26.3872 3.27599C26.3872 3.18799 26.4152 3.11199 26.4752 3.05199C26.5352 2.98799 26.6112 2.95999 26.6992 2.95999ZM30.3872 0.767992C30.6432 0.959992 30.8592 1.15199 31.0352 1.34399L30.7512 1.63199C30.5952 1.44799 30.3792 1.24799 30.1032 1.03999L30.3872 0.767992ZM29.8552 1.90399H30.7792V3.56399C30.8952 3.45999 31.0192 3.34799 31.1512 3.22399L31.2672 3.66399C31.0032 3.90399 30.7232 4.11599 30.4272 4.30799L30.2672 3.93199C30.3352 3.87199 30.3712 3.79599 30.3712 3.70799V2.30399H29.8552V1.90399ZM31.2872 2.38399H33.2392V2.76399C33.1272 3.10799 32.9432 3.40799 32.6872 3.65999C32.9352 3.81999 33.2352 3.95999 33.5912 4.08399L33.3672 4.44399C32.9752 4.28399 32.6432 4.10799 32.3792 3.91199C32.0672 4.13199 31.6872 4.30799 31.2312 4.43999L30.9992 4.08799C31.4112 3.96799 31.7592 3.81599 32.0472 3.63199C31.7912 3.37599 31.6112 3.09599 31.5152 2.78399H31.2872V2.38399ZM31.9072 2.78399C31.9952 3.01199 32.1392 3.21999 32.3472 3.40399C32.5512 3.21999 32.7072 3.01599 32.8192 2.78399H31.9072ZM31.5592 0.835992H32.9992V1.66399C32.9992 1.75199 33.0472 1.79999 33.1472 1.79999H33.4912V2.17999H33.0352C32.7352 2.17999 32.5872 2.03999 32.5872 1.75999V1.22799H31.9712V1.33599C31.9712 1.75199 31.7552 2.07599 31.3312 2.29999L31.0512 1.97999C31.3872 1.83999 31.5592 1.63999 31.5592 1.37999V0.835992ZM35.1152 1.86799H36.1472V0.707992H36.5792V1.86799H37.5592V2.28399H36.5792V4.42799H36.1472V2.28399H35.1152V1.86799ZM34.4112 0.739992C34.6632 0.935992 34.8792 1.13199 35.0592 1.32399L34.7712 1.61599C34.6192 1.43199 34.3992 1.23599 34.1152 1.02799L34.4112 0.739992ZM33.8552 1.89599H34.8072V3.56799C34.9232 3.46799 35.0472 3.35599 35.1792 3.23199L35.2872 3.65999C35.0272 3.89999 34.7512 4.11599 34.4552 4.30799L34.2952 3.93199C34.3672 3.87199 34.4032 3.79999 34.4032 3.71599V2.29599H33.8552V1.89599ZM41.4032 0.943992V4.24799H40.9952V3.95999H40.1752V4.29599H39.7712V0.943992H41.4032ZM40.1752 3.56799H40.9952V1.33199H40.1752V3.56799ZM37.9672 1.77199H38.6232V1.32799C38.4472 1.35599 38.2672 1.37599 38.0912 1.38799L37.9552 1.01599C38.5792 0.963992 39.0792 0.867992 39.4472 0.727992L39.6432 1.07199C39.4392 1.14399 39.2312 1.20799 39.0232 1.25599V1.77199H39.6632V2.15999H39.0232V2.30399C39.2472 2.49199 39.4712 2.70799 39.6992 2.94799L39.4552 3.31199C39.2872 3.06399 39.1432 2.86399 39.0232 2.71199V4.37199H38.6232V2.81599C38.4632 3.13599 38.2672 3.42799 38.0312 3.69599L37.8512 3.23599C38.1992 2.92399 38.4552 2.57199 38.6232 2.17999V2.15999H37.9672V1.77199ZM42.9152 0.747992L43.3032 0.907992C43.0232 1.73999 42.6512 2.37599 42.1912 2.81999L41.8592 2.53199C42.3352 2.08399 42.6872 1.48799 42.9152 0.747992ZM44.4752 2.86799C44.7552 3.29599 44.9992 3.75599 45.2032 4.24399L44.8112 4.41999C44.7592 4.29199 44.7072 4.16799 44.6552 4.04799C43.9672 4.15199 43.1952 4.22799 42.3432 4.28399L42.2712 3.87599C42.5392 3.81599 42.9352 3.21199 43.4552 2.06399L43.8672 2.20799C43.5552 2.85199 43.2352 3.40399 42.9072 3.85999C43.4432 3.82399 43.9712 3.76799 44.4832 3.68799C44.3592 3.43599 44.2312 3.20399 44.0992 2.99599L44.4752 2.86799ZM44.4072 0.715992C44.6232 1.43599 45.0032 2.02399 45.5472 2.47999L45.2472 2.82799C44.6752 2.33599 44.2752 1.69999 44.0472 0.915992L44.4072 0.715992ZM46.0992 1.48399H46.7792V0.703992H47.1992V1.48399H48.1992V0.719992H48.6192V1.48399H49.3032V1.88399H48.6192V2.71599H49.5032V3.12399H45.8952V2.71599H46.7792V1.88399H46.0992V1.48399ZM47.1992 2.71599H48.1992V1.88399H47.1992V2.71599ZM47.0792 3.17199L47.3952 3.45199C47.0672 3.81999 46.6592 4.14399 46.1792 4.42399L45.8832 4.04399C46.3592 3.79599 46.7592 3.50399 47.0792 3.17199ZM48.3552 3.17999C48.8112 3.48399 49.1992 3.78799 49.5152 4.08799L49.1832 4.41999C48.9192 4.12799 48.5432 3.81199 48.0552 3.47199L48.3552 3.17999ZM50.4832 2.15599V2.70799H51.0072V2.15599H50.4832ZM51.0072 1.78399V1.22399H50.4832V1.78399H51.0072ZM50.4752 3.08399C50.4432 3.62399 50.3472 4.07199 50.1832 4.42799L49.8672 4.13999C50.0272 3.79599 50.1072 3.35999 50.1112 2.83199V0.847992H51.3872V3.97999C51.3872 4.25999 51.2592 4.40399 51.0032 4.40399H50.6832L50.5832 4.03999C50.6912 4.04799 50.7912 4.05599 50.8872 4.05599C50.9672 4.05599 51.0072 3.98399 51.0072 3.84399V3.08399H50.4752ZM52.0232 2.68799V4.07199C52.2152 3.95999 52.3792 3.82799 52.5192 3.67199C52.2952 3.37999 52.1392 3.05199 52.0552 2.68799H52.0232ZM52.0232 4.10399V4.41999H51.6312V0.847992H53.3432C53.3432 1.37599 53.3152 1.73199 53.2672 1.90799C53.2192 2.07599 53.0632 2.16399 52.8072 2.16399H52.4712L52.3592 1.80799C52.4232 1.80799 52.5112 1.81199 52.6192 1.81199C52.7032 1.81199 52.7632 1.80399 52.7992 1.79599C52.8392 1.78399 52.8672 1.75199 52.8912 1.69599C52.9112 1.63199 52.9272 1.47599 52.9352 1.22399H52.0232V2.31999H53.3712V2.66799C53.3032 3.04799 53.1872 3.37599 53.0272 3.64799C53.1872 3.79999 53.3672 3.93599 53.5712 4.05599L53.3672 4.41199C53.1432 4.27599 52.9512 4.13199 52.7912 3.97599C52.6312 4.15199 52.4392 4.29999 52.2232 4.41599L52.0232 4.10399ZM52.4112 2.68799C52.4872 2.92799 52.5992 3.14799 52.7512 3.34399C52.8592 3.15199 52.9432 2.93199 53.0032 2.68799H52.4112ZM55.0032 0.695992L55.4272 0.759992C55.3872 0.851992 55.3472 0.939992 55.3032 1.01999H57.0032V1.35599C56.7672 1.62799 56.4872 1.85999 56.1592 2.05199C56.5792 2.20399 57.0472 2.30399 57.5592 2.35199L57.3712 2.73999C56.7512 2.66799 56.1952 2.51999 55.6992 2.28799C55.2232 2.49999 54.6712 2.65599 54.0392 2.75199L53.8472 2.35999C54.3672 2.29599 54.8312 2.18799 55.2392 2.04399C55.0632 1.93599 54.8992 1.81999 54.7472 1.69599C54.6152 1.80399 54.4712 1.90399 54.3192 1.99999L54.0672 1.66799C54.5312 1.40399 54.8432 1.07999 55.0032 0.695992ZM55.6952 1.85199C55.9512 1.72399 56.1792 1.57999 56.3832 1.41199H55.0312L55.0232 1.41999C55.2312 1.58799 55.4552 1.73199 55.6952 1.85199ZM55.3912 2.51599H55.8032C55.8032 2.65199 55.7912 2.78399 55.7752 2.90399H57.1432C57.1352 3.61599 57.0752 4.03999 56.9632 4.17999C56.8512 4.31999 56.6552 4.39199 56.3752 4.39199C56.2352 4.39199 56.0672 4.38399 55.8672 4.36799L55.7632 3.99199C55.9752 4.00399 56.1472 4.01199 56.2832 4.01599C56.4712 4.01199 56.5872 3.97199 56.6352 3.89599C56.6872 3.81599 56.7192 3.61199 56.7272 3.27999H55.6792C55.6472 3.37199 55.6072 3.45999 55.5592 3.53999C55.3672 3.89599 54.8992 4.19199 54.1552 4.43199L53.8792 4.09199C54.5272 3.90399 54.9512 3.67599 55.1472 3.40799C55.1752 3.36399 55.1992 3.31999 55.2232 3.27999H54.1272V2.90399H55.3512C55.3752 2.77999 55.3872 2.65199 55.3912 2.51599ZM58.2832 0.691992L59.1112 2.55999L58.2832 4.42799L57.9392 4.27199L58.6992 2.55999L57.9392 0.847992L58.2832 0.691992ZM58.9792 0.691992L59.8072 2.55999L58.9792 4.42799L58.6352 4.27199L59.3952 2.55999L58.6192 0.847992L58.9792 0.691992Z" fill="white"/>
<g clip-path="url(#clip0_250_2790)">
<path d="M0 0.59997H4V4.59997H0V0.59997Z" fill="#012169"/>
<path d="M4 0.59997V1.09997L2.51562 2.59997L4 4.06091V4.59997H3.47656L1.98438 3.13122L0.53125 4.59997H0V4.06872L1.45312 2.60778L0 1.17809V0.59997H0.484375L1.98438 2.06872L3.4375 0.59997H4Z" fill="white"/>
<path d="M1.4375 3.13122L1.52344 3.39684L0.328125 4.59997H0V4.57653L1.4375 3.13122ZM2.40625 3.03747L2.82812 3.09997L4 4.24841V4.59997L2.40625 3.03747ZM4 0.59997L2.5 2.13122L2.46875 1.78747L3.64062 0.59997H4ZM0 0.607782L1.50781 2.08434L1.04688 2.02184L0 0.982782V0.607782Z" fill="#C8102E"/>
<path d="M1.375 0.59997V4.59997H2.625V0.59997H1.375ZM0 1.97497V3.22497H4V1.97497H0Z" fill="white"/>
<path d="M0 2.22497V2.97497H4V2.22497H0ZM1.625 0.59997V4.59997H2.375V0.59997H1.625Z" fill="#C8102E"/>
</g>
<defs>
<clipPath id="clip0_250_2790">
<rect y="0.59997" width="4" height="4" rx="2" fill="white"/>
</clipPath>
</defs>
</svg>
