<svg width="61" height="6" viewBox="0 0 61 6" fill="none" xmlns="http://www.w3.org/2000/svg">
<path d="M5.89969 0.692L6.25969 0.848L5.48369 2.56L6.24369 4.272L5.89969 4.428L5.07169 2.56L5.89969 0.692ZM6.59569 0.692L6.93969 0.848L6.17969 2.56L6.93969 4.272L6.59569 4.428L5.76769 2.56L6.59569 0.692ZM7.74369 1.876H8.96369V1.704H7.44769V1.352H8.96369V1.16C8.58369 1.176 8.18769 1.192 7.77169 1.208L7.70369 0.876C8.73969 0.848 9.66369 0.796 10.4717 0.716L10.5957 1.052C10.2197 1.084 9.81169 1.112 9.37969 1.136V1.352H10.9037V1.704H9.37969V1.876H10.6037V3.268H9.37969V3.456H10.7637V3.784H9.37969V3.98H10.9637V4.336H7.39569V3.98H8.96369V3.784H7.59569V3.456H8.96369V3.268H7.74369V1.876ZM10.1997 2.94V2.724H9.37969V2.94H10.1997ZM8.96369 2.94V2.724H8.14769V2.94H8.96369ZM8.14769 2.412H8.96369V2.204H8.14769V2.412ZM9.37969 2.204V2.412H10.1997V2.204H9.37969ZM14.7117 2.816V4.432H14.3037V4.252H12.7117V4.432H12.3037V2.816H14.7117ZM12.7117 3.86H14.3037V3.208H12.7117V3.86ZM14.3437 1.5H12.1517V1.988H14.3437V1.5ZM12.1517 2.372V2.54C12.1477 3.272 11.9717 3.904 11.6277 4.436L11.2997 4.14C11.5877 3.724 11.7357 3.192 11.7397 2.54V1.108H13.0477C12.9957 0.976 12.9397 0.852 12.8837 0.74L13.3197 0.668C13.3717 0.8 13.4237 0.948 13.4757 1.108H14.7597V2.372H12.1517ZM16.9677 1.624H17.3917V1.956H18.5117V2.928H18.9717V3.316H17.6237C17.8397 3.632 18.3037 3.884 19.0117 4.076L18.7797 4.452C17.9397 4.168 17.4157 3.788 17.1997 3.316H17.1917C17.1197 3.472 17.0317 3.612 16.9317 3.736C16.6597 4.044 16.2197 4.28 15.6117 4.448L15.3837 4.084C15.9917 3.916 16.4037 3.704 16.6157 3.456C16.6517 3.408 16.6837 3.364 16.7117 3.316H15.3877V2.928H15.8397V1.956H16.9677V1.624ZM16.2477 2.928H16.8797C16.9277 2.764 16.9557 2.588 16.9677 2.404V2.344H16.2477V2.928ZM17.3197 2.928H18.1037V2.344H17.3917V2.404C17.3797 2.596 17.3557 2.768 17.3197 2.928ZM15.4077 1.024H16.2917V0.708H16.7157V1.024H17.6437V0.708H18.0677V1.024H18.9517V1.408H18.0677V1.744H17.6437V1.408H16.7157V1.744H16.2917V1.408H15.4077V1.024ZM20.1877 1.492H22.1677V1.868H21.3917V2.324H22.0437V2.692H21.3917V3.216H21.7557C21.6917 3.068 21.6197 2.94 21.5397 2.828L21.8717 2.72C21.9597 2.844 22.0397 2.98 22.1037 3.128L21.9077 3.216H22.2837V3.592H20.0797V3.216H20.9677V2.692H20.3157V2.324H20.9677V1.868H20.1877V1.492ZM22.8757 0.856V4.412H22.4517V4.264H19.9077V4.412H19.4837V0.856H22.8757ZM19.9077 3.872H22.4517V1.248H19.9077V3.872ZM24.1077 1.144H24.4597V4H23.9917V1.708C23.8197 1.864 23.6037 1.98 23.3397 2.056V1.592C23.4677 1.56 23.6037 1.504 23.7477 1.424C23.8917 1.336 24.0117 1.244 24.1077 1.144ZM25.8203 1.496C25.9083 1.496 25.9803 1.524 26.0443 1.588C26.1043 1.648 26.1363 1.724 26.1363 1.812C26.1363 1.9 26.1043 1.972 26.0443 2.032C25.9803 2.092 25.9083 2.124 25.8203 2.124C25.7323 2.124 25.6563 2.092 25.5963 2.032C25.5363 1.972 25.5083 1.9 25.5083 1.812C25.5083 1.724 25.5363 1.648 25.5963 1.588C25.6563 1.524 25.7323 1.496 25.8203 1.496ZM25.8203 2.96C25.9083 2.96 25.9803 2.988 26.0443 3.052C26.1043 3.112 26.1363 3.188 26.1363 3.276C26.1363 3.364 26.1043 3.436 26.0443 3.496C25.9803 3.556 25.9083 3.588 25.8203 3.588C25.7323 3.588 25.6563 3.556 25.5963 3.496C25.5363 3.436 25.5083 3.364 25.5083 3.276C25.5083 3.188 25.5363 3.112 25.5963 3.052C25.6563 2.988 25.7323 2.96 25.8203 2.96ZM29.5083 0.768C29.7643 0.96 29.9803 1.152 30.1563 1.344L29.8723 1.632C29.7163 1.448 29.5003 1.248 29.2243 1.04L29.5083 0.768ZM28.9763 1.904H29.9003V3.564C30.0163 3.46 30.1403 3.348 30.2723 3.224L30.3883 3.664C30.1243 3.904 29.8443 4.116 29.5483 4.308L29.3883 3.932C29.4563 3.872 29.4923 3.796 29.4923 3.708V2.304H28.9763V1.904ZM30.4083 2.384H32.3603V2.764C32.2483 3.108 32.0643 3.408 31.8083 3.66C32.0563 3.82 32.3563 3.96 32.7123 4.084L32.4883 4.444C32.0963 4.284 31.7643 4.108 31.5003 3.912C31.1883 4.132 30.8083 4.308 30.3523 4.44L30.1203 4.088C30.5323 3.968 30.8803 3.816 31.1683 3.632C30.9123 3.376 30.7323 3.096 30.6363 2.784H30.4083V2.384ZM31.0283 2.784C31.1163 3.012 31.2603 3.22 31.4683 3.404C31.6723 3.22 31.8283 3.016 31.9403 2.784H31.0283ZM30.6803 0.836H32.1203V1.664C32.1203 1.752 32.1683 1.8 32.2683 1.8H32.6123V2.18H32.1563C31.8563 2.18 31.7083 2.04 31.7083 1.76V1.228H31.0923V1.336C31.0923 1.752 30.8763 2.076 30.4523 2.3L30.1723 1.98C30.5083 1.84 30.6803 1.64 30.6803 1.38V0.836ZM34.2363 1.868H35.2683V0.708H35.7003V1.868H36.6803V2.284H35.7003V4.428H35.2683V2.284H34.2363V1.868ZM33.5323 0.74C33.7843 0.936 34.0003 1.132 34.1803 1.324L33.8923 1.616C33.7403 1.432 33.5203 1.236 33.2363 1.028L33.5323 0.74ZM32.9763 1.896H33.9283V3.568C34.0443 3.468 34.1683 3.356 34.3003 3.232L34.4083 3.66C34.1483 3.9 33.8723 4.116 33.5763 4.308L33.4163 3.932C33.4883 3.872 33.5243 3.8 33.5243 3.716V2.296H32.9763V1.896ZM39.2563 2.288C39.2003 2.392 39.1363 2.492 39.0723 2.58L38.8243 2.268C39.0643 1.88 39.2243 1.36 39.3083 0.708L39.7163 0.78C39.6883 0.956 39.6563 1.124 39.6203 1.284H40.5883V1.68H40.3803C40.3523 2.288 40.2243 2.816 40.0003 3.26C40.1843 3.564 40.4163 3.828 40.7043 4.044L40.4923 4.412C40.2043 4.196 39.9683 3.932 39.7763 3.624C39.5483 3.936 39.2603 4.2 38.9163 4.412L38.6763 4.028C39.0483 3.828 39.3403 3.556 39.5563 3.22C39.4283 2.936 39.3283 2.624 39.2563 2.288ZM39.9923 1.68H39.5123C39.5123 1.684 39.5083 1.688 39.5083 1.696C39.5483 2.108 39.6323 2.476 39.7683 2.804C39.8963 2.476 39.9723 2.1 39.9923 1.68ZM37.2243 1.048H37.6963V0.748H38.0923V1.048H38.4843V1.372C38.5883 1.208 38.6843 1.04 38.7723 0.872L39.0963 1.04C38.9683 1.28 38.8363 1.504 38.6963 1.712H38.8923V2.096H38.4003C38.3243 2.184 38.2483 2.268 38.1683 2.348H38.7723V2.644C38.6443 2.8 38.4883 2.956 38.3083 3.108V3.208C38.5643 3.168 38.7883 3.12 38.9763 3.072V3.46C38.8083 3.504 38.5843 3.548 38.3083 3.588V3.948C38.3083 4.232 38.1643 4.376 37.8843 4.376H37.5243L37.4163 4.004C37.5483 4.02 37.6523 4.032 37.7283 4.032C37.8483 4.032 37.9083 3.968 37.9083 3.84V3.64C37.6643 3.668 37.3923 3.696 37.0883 3.724L37.0283 3.324C37.3483 3.308 37.6443 3.284 37.9083 3.26V3.028C38.0363 2.936 38.1643 2.832 38.2843 2.716H37.7643C37.5843 2.856 37.4003 2.98 37.2123 3.084L36.9523 2.792C37.0443 2.74 37.1323 2.688 37.2203 2.632V2.348H37.6123C37.7123 2.264 37.8083 2.18 37.8963 2.096H37.0403V1.712H37.6963V1.416H37.2243V1.048ZM38.2403 1.712C38.3163 1.616 38.3883 1.516 38.4563 1.416H38.0923V1.712H38.2403ZM41.0043 1.028H42.5683C42.5323 0.932 42.4923 0.848 42.4483 0.768L42.9363 0.688C42.9763 0.792 43.0123 0.904 43.0483 1.028H44.6443V1.42H43.8563C44.1683 1.668 44.4083 1.884 44.5843 2.068L44.2323 2.312C44.1483 2.216 44.0563 2.12 43.9523 2.016C43.2883 2.072 42.4323 2.12 41.3883 2.152L41.3003 1.796C41.3803 1.788 41.4483 1.768 41.5003 1.744C41.6203 1.66 41.7603 1.552 41.9243 1.42H41.0043V1.028ZM42.4563 1.42C42.2723 1.58 42.1083 1.704 41.9683 1.8C42.6003 1.776 43.1563 1.748 43.6323 1.72C43.5603 1.652 43.4843 1.588 43.4083 1.524L43.5723 1.42H42.4563ZM41.9803 3.224V3.436H43.6523V3.224H41.9803ZM43.6523 2.872V2.648H41.9803V2.872H43.6523ZM41.9803 3.788V4.42H41.5603V2.292H44.0803V4.008C44.0803 4.28 43.9323 4.416 43.6363 4.416H43.2283L43.1203 4.012L43.5043 4.032C43.6003 4.032 43.6523 3.992 43.6523 3.92V3.788H41.9803ZM45.6803 0.7L46.0923 0.732L46.0443 1.212H48.3683V1.612H46.0043L45.9483 2.144H48.1523C48.1523 3.272 48.0723 3.924 47.9203 4.104C47.7683 4.272 47.4403 4.36 46.9403 4.36C46.8083 4.36 46.6723 4.352 46.5323 4.34L46.4163 3.96C46.6243 3.98 46.7723 3.992 46.8523 3.992C47.2683 3.992 47.5203 3.924 47.6003 3.788C47.6883 3.644 47.7323 3.224 47.7323 2.532H45.4843L45.6803 0.7ZM45.0083 3.052H47.2603V3.452H45.0083V3.052ZM51.8563 0.68C52.0363 0.816 52.1883 0.956 52.3163 1.096L52.1323 1.284H52.6083V1.68H51.4323C51.4643 2.144 51.5123 2.504 51.5763 2.752C51.5883 2.808 51.6043 2.86 51.6203 2.916C51.7803 2.636 51.9123 2.312 52.0163 1.952L52.3963 2.116C52.2403 2.624 52.0403 3.056 51.7963 3.412C51.8323 3.492 51.8723 3.564 51.9123 3.624C52.0243 3.796 52.1123 3.884 52.1723 3.884C52.2123 3.884 52.2603 3.692 52.3123 3.308L52.6883 3.512C52.5843 4.076 52.4363 4.36 52.2363 4.36C52.0603 4.36 51.8763 4.24 51.6803 4.004C51.6243 3.932 51.5683 3.852 51.5203 3.764C51.2563 4.052 50.9523 4.272 50.6083 4.424L50.3683 4.072C50.7443 3.904 51.0643 3.66 51.3283 3.34C51.2723 3.2 51.2243 3.048 51.1803 2.884C51.0923 2.564 51.0363 2.16 51.0043 1.68H49.7563V2.236H50.7363C50.7243 2.98 50.6843 3.444 50.6163 3.628C50.5523 3.796 50.4123 3.88 50.1963 3.884C50.1003 3.884 49.9923 3.876 49.8723 3.864L49.7443 3.484C49.9043 3.496 50.0363 3.504 50.1483 3.504C50.2123 3.5 50.2563 3.46 50.2763 3.38C50.3003 3.288 50.3123 3.036 50.3203 2.628H49.7563C49.7363 3.372 49.5723 3.968 49.2643 4.42L48.9483 4.136C49.1963 3.772 49.3243 3.264 49.3363 2.616V1.284H50.9843C50.9763 1.1 50.9763 0.904 50.9763 0.704H51.4003C51.4003 0.908 51.4043 1.1 51.4123 1.284H51.9763C51.8763 1.172 51.7483 1.052 51.5923 0.932L51.8563 0.68ZM53.0483 2.22H53.8163V0.732H54.2363V2.22H56.6043V2.628H55.3483C55.5163 3.192 55.9523 3.636 56.6603 3.96L56.4123 4.356C55.6043 3.928 55.1123 3.352 54.9443 2.628H54.2363V3.896C54.5043 3.828 54.7723 3.748 55.0363 3.656L55.1443 4.048C54.7363 4.184 54.3043 4.3 53.8403 4.404L53.7083 4.02C53.7803 3.984 53.8163 3.924 53.8163 3.836V2.628H53.0483V2.22ZM55.9283 0.752L56.2083 1.036C55.8883 1.396 55.4123 1.716 54.7763 2L54.5283 1.668C55.1563 1.396 55.6243 1.092 55.9283 0.752ZM57.4043 0.692L58.2323 2.56L57.4043 4.428L57.0603 4.272L57.8203 2.56L57.0603 0.848L57.4043 0.692ZM58.1003 0.692L58.9283 2.56L58.1003 4.428L57.7563 4.272L58.5163 2.56L57.7403 0.848L58.1003 0.692Z" fill="white"/>
<g clip-path="url(#clip0_250_2797)">
<path d="M0 0.599976H4V4.59998H0V0.599976Z" fill="#012169"/>
<path d="M4 0.599976V1.09998L2.51562 2.59998L4 4.06091V4.59998H3.47656L1.98438 3.13123L0.53125 4.59998H0V4.06873L1.45312 2.60779L0 1.1781V0.599976H0.484375L1.98438 2.06873L3.4375 0.599976H4Z" fill="white"/>
<path d="M1.4375 3.13123L1.52344 3.39685L0.328125 4.59998H0V4.57654L1.4375 3.13123ZM2.40625 3.03748L2.82812 3.09998L4 4.24841V4.59998L2.40625 3.03748ZM4 0.599976L2.5 2.13123L2.46875 1.78748L3.64062 0.599976H4ZM0 0.607788L1.50781 2.08435L1.04688 2.02185L0 0.982788V0.607788Z" fill="#C8102E"/>
<path d="M1.375 0.599976V4.59998H2.625V0.599976H1.375ZM0 1.97498V3.22498H4V1.97498H0Z" fill="white"/>
<path d="M0 2.22498V2.97498H4V2.22498H0ZM1.625 0.599976V4.59998H2.375V0.599976H1.625Z" fill="#C8102E"/>
</g>
<defs>
<clipPath id="clip0_250_2797">
<rect y="0.599976" width="4" height="4" rx="2" fill="white"/>
</clipPath>
</defs>
</svg>
