<svg width="61" height="45" viewBox="0 0 61 45" fill="none" xmlns="http://www.w3.org/2000/svg">
<path d="M5.57036 31.7653L5.9621 31.7871L5.82637 33.6619L7.13178 35.0052L6.863 35.2706L5.43982 33.8044L5.57036 31.7653ZM6.22338 31.5245L6.6001 31.5519L6.47939 33.4211L7.78479 34.7644L7.51601 35.0298L6.09283 33.5636L6.22338 31.5245Z" fill="white"/>
<path d="M57.4511 12.2743L57.0587 12.2774L57.0751 10.3978L55.6871 9.14013L55.9385 8.85821L57.4519 10.231L57.4511 12.2743ZM56.8147 12.5561L56.4369 12.5527L56.4387 10.6796L55.0507 9.42192L55.3021 9.14L56.8155 10.5128L56.8147 12.5561Z" fill="white"/>
<path d="M7.23408 31.1967C7.54489 31.2729 7.8189 31.3648 8.05612 31.4723L7.90789 31.8486C7.6922 31.7406 7.41505 31.6414 7.07958 31.5584L7.23408 31.1967ZM7.19045 32.4504L8.04036 32.0879L8.69166 33.6147C8.75756 33.4736 8.82767 33.3219 8.90044 33.1561L9.17977 33.5153C9.0311 33.8396 8.85673 34.1445 8.6598 34.4372L8.3651 34.1541C8.40411 34.0723 8.4074 33.9882 8.37288 33.9073L7.82202 32.6159L7.34739 32.8183L7.19045 32.4504ZM8.69596 32.3301L10.4914 31.5642L10.6405 31.9137C10.6725 32.2741 10.6209 32.6222 10.4843 32.9544C10.7752 33.0043 11.1061 33.0154 11.4822 32.9898L11.4174 33.4088C10.9941 33.4154 10.6196 33.3838 10.2999 33.3071C10.0992 33.6319 9.81876 33.9428 9.45112 34.2432L9.09961 34.0104C9.4315 33.7384 9.69195 33.462 9.88467 33.1798C9.54875 33.0448 9.27333 32.8578 9.06261 32.6085L8.8529 32.698L8.69596 32.3301ZM9.42318 32.4547C9.59358 32.6299 9.80764 32.7647 10.0712 32.8524C10.1866 32.6031 10.2501 32.3542 10.2621 32.0969L9.42318 32.4547ZM8.33879 30.7995L9.66332 30.2345L9.98819 30.9961C10.0227 31.077 10.0857 31.1023 10.1777 31.0631L10.4941 30.9281L10.6432 31.2777L10.2238 31.4566C9.94781 31.5743 9.75675 31.5036 9.64689 31.246L9.43816 30.7567L8.87155 30.9984L8.91393 31.0977C9.07715 31.4804 9.00559 31.8631 8.70347 32.2355L8.32037 32.051C8.5745 31.7904 8.65424 31.539 8.55223 31.2998L8.33879 30.7995Z" fill="white"/>
<path d="M12.0092 30.294L12.9417 29.8518L12.4447 28.8037L12.8351 28.6186L13.3321 29.6667L14.2176 29.2468L14.3958 29.6227L13.5103 30.0426L14.4289 31.9799L14.0386 32.1649L13.12 30.2277L12.1875 30.6699L12.0092 30.294ZM10.8898 29.5764C11.2015 29.6455 11.4807 29.7301 11.7256 29.8264L11.5904 30.2137C11.3743 30.1125 11.0915 30.0297 10.7458 29.9634L10.8898 29.5764ZM10.8827 30.8591L11.7429 30.4513L12.4593 31.962C12.5213 31.822 12.5853 31.6676 12.6515 31.499L12.9324 31.8395C12.8003 32.1677 12.6435 32.4812 12.4583 32.7815L12.1526 32.5103C12.192 32.4252 12.1937 32.3447 12.1577 32.2688L11.5493 30.9858L11.0541 31.2206L10.8827 30.8591Z" fill="white"/>
<path d="M17.046 29.2466L16.403 29.5793L16.2174 29.2205L17.887 28.3564L18.0727 28.7152L17.4226 29.0517L17.7517 29.6875L18.5616 29.2684L18.7492 29.6307L16.7598 30.6603L16.5723 30.298L17.3751 29.8824L17.046 29.2466ZM16.8511 28.0953C16.709 28.4301 16.4884 28.7695 16.1889 29.1046L15.7928 28.9223C16.3022 28.3749 16.5756 27.8416 16.6184 27.315L15.4851 27.9015L15.3013 27.5463L16.8821 26.7281L17.0329 27.0194C17.0523 27.2571 17.0324 27.4971 16.9749 27.734C17.3295 27.7667 17.6469 27.8141 17.9251 27.8818L17.7931 28.2969C17.5396 28.2074 17.2256 28.1402 16.8511 28.0953ZM16.356 29.9235L16.5343 30.2681C16.2852 30.6222 15.9769 30.9664 15.6022 31.2954L15.3668 30.9624C15.7718 30.6222 16.1015 30.2759 16.356 29.9235ZM14.4533 27.805L14.8803 27.7597C14.932 28.2599 14.9415 28.6873 14.907 29.0384C15.0205 28.9617 15.1303 28.8868 15.2348 28.8102C15.2345 28.6618 15.2341 28.5043 15.2318 28.3344L15.639 28.2858C15.6306 28.9657 15.5913 29.4815 15.5229 29.8367C15.7013 29.6768 15.876 29.5008 16.0468 29.3088L16.2197 29.6427C15.9131 29.9815 15.6039 30.2632 15.2886 30.4894L15.0199 30.2051C15.0691 30.1436 15.1076 30.0786 15.1317 30.0121C15.1796 29.8522 15.2117 29.5924 15.2265 29.2379C15.0741 29.3438 14.9164 29.4569 14.7517 29.5737L14.4882 29.2822C14.5322 29.2279 14.558 29.156 14.5711 29.0682C14.5691 28.6639 14.5274 28.244 14.4533 27.805Z" fill="white"/>
<path d="M17.6692 26.1923C17.9992 26.2415 18.2908 26.3121 18.551 26.4003L18.4371 26.8032C18.2053 26.7083 17.9098 26.6306 17.5506 26.5703L17.6692 26.1923ZM18.0271 27.0371C18.3521 27.0936 18.6367 27.1682 18.8899 27.2603L18.7761 27.6631C18.5528 27.5589 18.2642 27.4774 17.9156 27.4112L18.0271 27.0371ZM18.9432 27.9455L19.349 27.8926C19.4293 28.3886 19.48 28.8643 19.4996 29.3254L19.0736 29.3667C19.0621 28.8873 19.0187 28.4165 18.9432 27.9455ZM20.6914 26.7201L21.051 26.519L21.8887 28.0166L21.5291 28.2177L20.6914 26.7201ZM18.4983 26.0769L19.3501 25.6004C19.254 25.535 19.1583 25.4786 19.0594 25.433L19.4153 25.1515C19.5134 25.2203 19.6174 25.2997 19.7237 25.3915L20.5755 24.915L20.7668 25.2571L20.4946 25.4094C20.5427 25.6758 20.514 25.944 20.4063 26.2104C20.6817 26.1618 20.9887 26.0634 21.322 25.9137L21.3744 26.3106C20.9321 26.503 20.5357 26.6056 20.1873 26.6217C19.9822 26.9106 19.6912 27.2017 19.316 27.4895L18.9843 27.2488C19.2925 27.0214 19.5421 26.8039 19.7276 26.5947C19.4422 26.5435 19.1917 26.4315 18.976 26.2589L18.6897 26.419L18.4983 26.0769ZM19.3181 26.0675C19.5061 26.1823 19.7273 26.2419 19.9818 26.2462C20.1109 26.0182 20.1655 25.8043 20.1524 25.6008L19.3181 26.0675ZM19.6609 27.3195L20.0135 27.1222L20.1697 27.4015C20.3447 27.739 20.4373 28.0356 20.4439 28.2931C20.4442 28.5313 20.3601 28.7662 20.1914 28.9889L19.8241 28.7911C19.9688 28.591 20.0335 28.4035 20.0237 28.2303C20.008 28.0465 19.941 27.8365 19.8171 27.5987L19.6609 27.3195Z" fill="white"/>
<path d="M21.8619 24.6669C21.9373 24.6216 22.0135 24.6085 22.1013 24.6303C22.1836 24.6509 22.2502 24.6995 22.2956 24.7749C22.3409 24.8503 22.3506 24.9285 22.3301 25.0109C22.3061 25.0953 22.2609 25.1598 22.1855 25.2051C22.1101 25.2505 22.0284 25.2622 21.9461 25.2417C21.8638 25.2212 21.8027 25.1739 21.7573 25.0985C21.712 25.0231 21.6968 24.9435 21.7173 24.8612C21.7358 24.7754 21.7865 24.7123 21.8619 24.6669ZM22.6162 25.9216C22.6916 25.8763 22.7678 25.8632 22.8556 25.8851C22.9379 25.9056 23.0045 25.9542 23.0499 26.0296C23.0952 26.1051 23.1049 26.1833 23.0844 26.2656C23.0604 26.35 23.0152 26.4145 22.9398 26.4599C22.8644 26.5052 22.7827 26.5169 22.7004 26.4964C22.6181 26.4759 22.557 26.4286 22.5116 26.3532C22.4663 26.2778 22.4511 26.1982 22.4716 26.1159C22.4901 26.0301 22.5408 25.967 22.6162 25.9216Z" fill="white"/>
<path d="M24.6568 22.1139C24.976 22.1367 25.2615 22.1812 25.5134 22.2473L25.4306 22.6432C25.1998 22.573 24.9099 22.5218 24.5653 22.4963L24.6568 22.1139ZM24.8245 23.357L25.6014 22.8568L26.5001 24.2524C26.5413 24.1022 26.5849 23.9409 26.6288 23.7652L26.9645 24.0723C26.8725 24.417 26.7519 24.7468 26.607 25.0685L26.2689 24.839C26.2936 24.7518 26.2827 24.6684 26.235 24.5944L25.4749 23.4139L25.0411 23.6933L24.8245 23.357ZM26.2884 22.9853L27.9295 21.9285L28.1353 22.248C28.2273 22.5978 28.2351 22.9497 28.1563 23.3002C28.4514 23.3004 28.7794 23.2557 29.1459 23.1672L29.1524 23.5912C28.7362 23.6689 28.3618 23.7006 28.0337 23.6788C27.8905 24.0327 27.6663 24.3864 27.3544 24.7442L26.9688 24.5739C27.2502 24.2499 27.4605 23.9337 27.603 23.6231C27.2492 23.5465 26.9462 23.4085 26.6966 23.1982L26.5049 23.3216L26.2884 22.9853ZM27.0262 22.9859C27.2236 23.13 27.4573 23.2269 27.7318 23.269C27.8037 23.0038 27.8244 22.7479 27.793 22.4922L27.0262 22.9859ZM25.679 21.5365L26.8897 20.7569L27.338 21.4531C27.3856 21.5271 27.4519 21.5414 27.536 21.4873L27.8252 21.301L28.031 21.6205L27.6476 21.8674C27.3954 22.0298 27.1951 21.9923 27.0435 21.7568L26.7555 21.3095L26.2376 21.643L26.2961 21.7339C26.5213 22.0836 26.5151 22.473 26.2799 22.8908L25.8712 22.7734C26.0779 22.4738 26.1143 22.2125 25.9735 21.9939L25.679 21.5365Z" fill="white"/>
<path d="M29.2337 20.424L30.0842 19.8394L29.4271 18.8834L29.7831 18.6387L30.4402 19.5947L31.2478 19.0395L31.4834 19.3823L30.6758 19.9375L31.8903 21.7043L31.5343 21.949L30.3198 20.1822L29.4694 20.7668L29.2337 20.424ZM28.0146 19.8932C28.3333 19.912 28.6223 19.9511 28.8794 20.0074L28.8075 20.4112C28.578 20.3456 28.2857 20.3087 27.9338 20.2982L28.0146 19.8932ZM28.2112 21.1608L28.9958 20.6215L29.9429 21.9994C29.9818 21.8513 30.0206 21.6887 30.0591 21.5118L30.3906 21.8033C30.3123 22.1484 30.2072 22.4827 30.072 22.8086L29.7272 22.5894C29.7525 22.4991 29.7414 22.4194 29.6938 22.3502L28.8894 21.18L28.4378 21.4904L28.2112 21.1608Z" fill="white"/>
<path d="M32.5814 17.5528L33.4758 16.8988L33.0366 16.2982L33.3756 16.0503L33.8148 16.6509L34.1377 16.4148L34.3761 16.7409L34.0533 16.977L35.2739 18.6463C35.4628 18.9047 35.4216 19.133 35.1504 19.3313L34.6693 19.6831L34.3542 19.408C34.5186 19.3076 34.671 19.2111 34.8099 19.1096C34.9326 19.0198 34.9538 18.9201 34.8735 18.8103L33.7142 17.2249L32.8198 17.8789L32.5814 17.5528ZM31.6527 18.5936C31.9831 18.6593 32.303 18.7375 32.6108 18.8197C32.5235 18.497 32.3777 18.1824 32.1814 17.88L31.329 18.5033L31.0905 18.1772L32.2367 17.339L32.4162 17.5844C32.7246 18.013 32.9263 18.4651 33.027 18.9415C33.2677 19.0133 33.4932 19.0912 33.7146 19.1771L33.6469 19.6131C33.4702 19.5341 33.2871 19.4599 33.0887 19.3919C33.115 19.7939 33.0732 20.211 32.9687 20.6441L32.5625 20.4952C32.6917 20.0687 32.7359 19.6549 32.6943 19.2591C32.3499 19.1541 31.9806 19.0625 31.5816 18.9776L31.6527 18.5936ZM33.2775 18.0101C33.673 18.1173 34.0021 18.2285 34.2559 18.3452L34.1281 18.7261C33.8607 18.6044 33.5381 18.4885 33.1561 18.3863L33.2775 18.0101Z" fill="white"/>
<path d="M36.0982 15.3077L36.4695 15.103L36.6298 15.3937L37.6106 14.853L38.0799 15.7043L38.4827 15.4822L38.67 15.822L37.4895 16.4728C37.8312 16.6452 38.3592 16.6419 39.0719 16.4683L39.0503 16.9096C38.1775 17.0664 37.5352 16.9865 37.1182 16.6774L37.1112 16.6813C37.1234 16.8527 37.1139 17.0178 37.0862 17.1746C36.9967 17.5757 36.7253 17.9948 36.2739 18.4354L35.8985 18.2267C36.3499 17.7861 36.6084 17.4015 36.6743 17.082C36.6827 17.0226 36.6895 16.9686 36.6908 16.913L35.5313 17.5522L35.344 17.2124L35.7398 16.9942L35.2706 16.1429L36.2585 15.5984L36.0982 15.3077ZM36.0971 16.7972L36.6506 16.4921C36.6135 16.3253 36.5531 16.1577 36.4747 15.9907L36.4458 15.9382L35.8152 16.2858L36.0971 16.7972ZM37.036 16.2797L37.7226 15.9012L37.4406 15.3898L36.8171 15.7335L36.8461 15.7861C36.9282 15.96 36.9902 16.1222 37.036 16.2797ZM34.4424 15.5353L35.2165 15.1085L35.064 14.8318L35.4353 14.6271L35.5879 14.9038L36.4006 14.4559L36.248 14.1791L36.6193 13.9744L36.7719 14.2512L37.5461 13.8244L37.7314 14.1607L36.9573 14.5875L37.1195 14.8817L36.7481 15.0864L36.5859 14.7922L35.7732 15.2401L35.9354 15.5344L35.5641 15.7391L35.4019 15.4448L34.6277 15.8716L34.4424 15.5353Z" fill="white"/>
<path d="M39.2952 13.6786L41.1775 13.0643L41.2942 13.4217L40.5565 13.6625L40.698 14.096L41.3178 13.8937L41.432 14.2436L40.8121 14.4458L40.9747 14.944L41.3207 14.831C41.214 14.7102 41.1058 14.6109 40.995 14.5292L41.2771 14.3235C41.3993 14.4141 41.5175 14.5186 41.6243 14.6394L41.4652 14.7839L41.8227 14.6672L41.9393 15.0247L39.8441 15.7085L39.7274 15.351L40.5716 15.0755L40.409 14.5774L39.7892 14.7797L39.675 14.4298L40.2949 14.2275L40.1534 13.794L39.4119 14.036L39.2952 13.6786ZM41.6533 12.24L42.7565 15.6206L42.3534 15.7521L42.3075 15.6114L39.8891 16.4007L39.935 16.5414L39.5319 16.6729L38.4287 13.2924L41.6533 12.24ZM39.7674 16.028L42.1859 15.2387L41.3718 12.7442L38.9534 13.5335L39.7674 16.028Z" fill="white"/>
<path d="M43.8603 12.2878L44.3985 15.0397L44.0059 15.1164L43.9675 14.9202L43.3865 15.0338L43.4472 15.3439L43.0546 15.4207L42.4942 12.555L42.871 12.4813C42.901 12.2594 42.9098 12.0335 42.8974 11.8036L43.3204 11.7779C43.3187 11.9984 43.2989 12.2101 43.2636 12.4045L43.8603 12.2878ZM43.3128 14.6569L43.8938 14.5433L43.7487 13.8014L43.1677 13.915L43.3128 14.6569ZM43.0963 13.5499L43.6773 13.4363L43.543 12.7493L42.962 12.8629L43.0963 13.5499ZM44.7613 13.102C45.0747 13.3708 45.3216 13.6119 45.5066 13.8284L45.2214 14.1206C45.0255 13.8899 44.7731 13.6418 44.4683 13.3753L44.7613 13.102ZM45.882 11.8924C46.1507 13.2664 46.2969 14.1181 46.3206 14.4477C46.3351 14.7302 46.1735 14.9044 45.8359 14.9705C45.7574 14.9858 45.6146 15.0056 45.4074 15.0298L45.2363 14.6761C45.4113 14.6541 45.5659 14.632 45.6955 14.6067C45.8368 14.579 45.9039 14.4844 45.8975 14.3267C45.8842 14.1336 45.7693 13.4836 45.5599 12.3711L44.6099 12.5569C44.5499 12.8132 44.4658 13.0497 44.3574 13.2666L44.0464 12.9891C44.2333 12.5694 44.3169 12.0803 44.306 11.524L44.7203 11.496C44.7225 11.7157 44.7106 11.9259 44.6886 12.1258L45.882 11.8924Z" fill="white"/>
<path d="M46.9811 12.7005C46.8884 12.8548 46.7873 13.0059 46.6819 13.1535L46.4968 12.7222C46.813 12.2393 47.0256 11.6866 47.1385 11.0638L47.5472 11.2067C47.4938 11.4696 47.4237 11.7261 47.3321 11.9687L47.6161 14.7302L47.1944 14.7736L46.9811 12.7005ZM49.0958 12.306L49.4977 12.2647L49.7278 14.5009L49.3259 14.5422L49.0958 12.306ZM48.1023 12.4203L48.5042 12.3789L48.5644 12.9639C48.6358 13.7366 48.4994 14.3257 48.1582 14.7227L47.8156 14.4804C48.1076 14.1528 48.2217 13.6586 48.1625 13.0052L48.1023 12.4203ZM48.4596 10.9681L48.8376 10.9292C49.1287 11.414 49.5884 11.8171 50.2166 12.1385L50.0182 12.5167C49.4451 12.2218 49.003 11.833 48.6875 11.3468C48.4481 11.9504 48.1159 12.435 47.6867 12.7968L47.4195 12.4664C47.8927 12.0639 48.2392 11.5618 48.4596 10.9681Z" fill="white"/>
<path d="M52.8461 10.6667L53.2634 10.712L53.2472 11.0165L54.1829 10.9924L54.1926 11.3683L53.2129 11.3935L53.1831 11.6343L53.9548 11.6145L54.0129 13.8737L54.3728 13.8645L54.3827 14.2484L51.7315 14.3165L51.7217 13.9327L52.1135 13.9226L52.0554 11.6633L52.7672 11.645L52.797 11.4042L51.8293 11.4291L51.8197 11.0532L52.8273 11.0273C52.8321 10.9031 52.8411 10.7828 52.8461 10.6667ZM52.5094 13.9124L53.617 13.8839L53.6111 13.652L52.5034 13.6805L52.5094 13.9124ZM52.495 13.3526L53.6026 13.3241L53.5969 13.1002L52.4892 13.1287L52.495 13.3526ZM52.4808 12.8008L53.5884 12.7723L53.5827 12.5484L52.4751 12.5768L52.4808 12.8008ZM52.4666 12.249L53.5743 12.2205L53.5686 12.0005L52.461 12.029L52.4666 12.249ZM51.1395 12.2991C51.0314 12.4539 50.9194 12.6089 50.7951 12.7561L50.6476 12.3117C50.996 11.8546 51.2503 11.3199 51.4067 10.7077L51.7871 10.874C51.7175 11.1238 51.6317 11.3661 51.5295 11.5968L51.6025 14.4319L51.1946 14.4424L51.1395 12.2991Z" fill="white"/>
<g clip-path="url(#clip0_250_2804)">
<path d="M0 34.6L3.61034 32.8779L5.33239 36.4883L1.72204 38.2103L0 34.6Z" fill="#012169"/>
<path d="M3.61034 32.8779L3.8256 33.3292L3.13159 35.3221L5.10031 36.0017L5.33239 36.4883L4.85994 36.7136L2.8808 36.0303L2.20154 37.9816L1.72204 38.2103L1.49334 37.7308L2.17595 35.7866L0.248889 35.1218L0 34.6L0.43719 34.3914L2.42338 35.0714L3.10264 33.1201L3.61034 32.8779Z" fill="white"/>
<path d="M2.3872 36.2658L2.57912 36.4685L2.01821 38.0691L1.72204 38.2103L1.71195 38.1892L2.3872 36.2658ZM3.22122 35.7641L3.6289 35.6389L5.18103 36.171L5.33239 36.4883L3.22122 35.7641ZM3.61034 32.8779L2.91568 34.9058L2.73949 34.609L3.28597 33.0326L3.61034 32.8779ZM0.00336337 34.607L1.99997 35.2906L1.55703 35.4326L0.164805 34.9455L0.00336337 34.607Z" fill="#C8102E"/>
<path d="M1.24105 34.008L2.9631 37.6184L4.09133 37.0802L2.36929 33.4699L1.24105 34.008ZM0.591953 35.841L1.13009 36.9693L4.74043 35.2472L4.20229 34.119L0.591953 35.841Z" fill="white"/>
<path d="M0.699581 36.0667L1.02246 36.7436L4.6328 35.0216L4.30992 34.3446L0.699581 36.0667ZM1.4667 33.9004L3.18875 37.5107L3.86568 37.1879L2.14364 33.5775L1.4667 33.9004Z" fill="#C8102E"/>
</g>
<defs>
<clipPath id="clip0_250_2804">
<rect y="34.6" width="4" height="4" rx="2" transform="rotate(-25.5 0 34.6)" fill="white"/>
</clipPath>
</defs>
</svg>
