<svg width="91" height="31" viewBox="0 0 91 31" fill="none" xmlns="http://www.w3.org/2000/svg">
<path d="M7.53091 7.64426L7.75749 7.96456L6.20507 9.02435L5.96516 10.882L5.59018 10.8366L5.85302 8.81033L7.53091 7.64426ZM8.12563 8.0058L8.33854 8.3178L6.7998 9.3859L6.55989 11.2436L6.18491 11.1982L6.44775 9.17188L8.12563 8.0058Z" fill="white"/>
<path d="M84.7285 23.3465L84.5021 23.0261L86.0549 21.967L86.2957 20.1094L86.6706 20.155L86.4069 22.1812L84.7285 23.3465ZM84.1339 22.9847L83.9212 22.6726L85.4604 21.6052L85.7011 19.7476L86.0761 19.7932L85.8123 21.8194L84.1339 22.9847Z" fill="white"/>
<path d="M9.56135 9.26786L10.4239 9.74148L10.5991 9.42242L10.9672 9.62458L10.792 9.94364L11.7247 10.4558L11.534 10.8029L10.6014 10.2908L10.4628 10.5432L11.2657 10.9841L10.6804 12.05L9.85996 11.5994C9.68173 11.8575 9.51328 12.0479 9.34758 12.1669C9.58316 12.5107 9.90634 12.8114 10.3155 13.0635L10.0353 13.366C9.58284 13.0764 9.23265 12.7335 8.98284 12.3408C8.69373 12.4102 8.33761 12.3607 7.91604 12.1976L7.94117 11.7779C8.26669 11.9247 8.54554 11.982 8.77421 11.9479C8.6654 11.7056 8.58567 11.4519 8.53852 11.1887L8.92491 11.1499C8.968 11.3789 9.03666 11.5946 9.13283 11.7934C9.25088 11.7031 9.37066 11.5681 9.49181 11.3973L8.73799 10.9833L9.32328 9.91747L10.0946 10.341L10.2333 10.0886L9.37075 9.61497L9.56135 9.26786ZM10.5159 11.5352L10.743 11.1215L10.2837 10.8693L10.0565 11.283L10.5159 11.5352ZM9.6884 11.0808L9.91558 10.6671L9.48783 10.4322L9.26065 10.8459L9.6884 11.0808ZM8.24051 10.0028C8.09125 10.0669 7.94233 10.122 7.7864 10.1733L7.8809 9.71866C8.43697 9.50379 8.94198 9.17417 9.39976 8.72278L9.65831 9.07467C9.42783 9.29493 9.18052 9.48769 8.90901 9.65804L7.6152 12.0142L7.24705 11.812L8.24051 10.0028Z" fill="white"/>
<path d="M12.1229 11.8925L11.8773 12.4135L12.6733 12.7887L12.9189 12.2677L12.1229 11.8925ZM11.6955 12.7523C11.4369 13.1788 11.1257 13.492 10.7651 13.6847L10.5985 13.2877C10.9552 13.0844 11.2463 12.7484 11.4752 12.2815L12.3194 10.4905L15.1235 11.8122L13.8359 14.5439C13.7045 14.8225 13.4933 14.8954 13.2075 14.7607L12.7914 14.5646L12.864 14.1478C13.0019 14.2305 13.1288 14.2991 13.2518 14.3571C13.3603 14.4082 13.4523 14.3632 13.5172 14.2257L13.7542 13.7227L12.8931 13.3168L12.4121 14.3372L12.0286 14.1564L12.5096 13.1361L11.6955 12.7523ZM13.9179 13.3754L14.1635 12.8544L13.3024 12.4485L13.0568 12.9695L13.9179 13.3754ZM14.3273 12.507L14.566 12.0005L13.7049 11.5946L13.4661 12.1011L14.3273 12.507ZM13.3214 11.4138L12.5254 11.0386L12.2866 11.5451L13.0826 11.9203L13.3214 11.4138Z" fill="white"/>
<path d="M15.8681 12.0543C16.0507 12.317 16.1954 12.5672 16.3022 12.8047L15.942 12.9889C15.8518 12.7652 15.7096 12.5074 15.513 12.2232L15.8681 12.0543ZM15.006 12.9655L15.8831 13.2559L15.3614 14.8318C15.5042 14.7695 15.6571 14.7022 15.8214 14.6259L15.7932 15.0801C15.4672 15.225 15.1347 15.3382 14.7934 15.4274L14.7597 15.0202C14.8431 14.9846 14.9012 14.9238 14.9288 14.8402L15.3701 13.5074L14.8802 13.3452L15.006 12.9655ZM16.2145 13.8712L18.0676 14.4848L17.9482 14.8455C17.7337 15.1369 17.4648 15.3638 17.1425 15.5226C17.3277 15.7524 17.5685 15.9796 17.8675 16.2092L17.5417 16.4806C17.2198 16.2055 16.96 15.9341 16.7709 15.665C16.4056 15.7758 15.9895 15.8235 15.5152 15.8055L15.4056 15.3984C15.8344 15.4139 16.2125 15.379 16.5438 15.2949C16.3812 14.9714 16.2983 14.649 16.3053 14.3226L16.0888 14.251L16.2145 13.8712ZM16.6774 14.4458C16.6893 14.6899 16.7606 14.9327 16.9002 15.1727C17.1517 15.0622 17.3639 14.9175 17.5432 14.7325L16.6774 14.4458ZM16.9593 12.4872L18.3263 12.9398L18.0661 13.7258C18.0384 13.8094 18.0689 13.87 18.1638 13.9014L18.4904 14.0096L18.371 14.3703L17.9381 14.227C17.6533 14.1327 17.5568 13.9533 17.6448 13.6875L17.812 13.1824L17.2272 12.9888L17.1933 13.0913C17.0625 13.4863 16.7556 13.7259 16.2827 13.8053L16.1175 13.4135C16.4804 13.3862 16.7066 13.2504 16.7883 13.0036L16.9593 12.4872Z" fill="white"/>
<path d="M19.9033 14.1497L20.9337 14.2082L20.9994 13.05L21.4307 13.0745L21.365 14.2326L22.3434 14.2882L22.3198 14.7035L21.3414 14.648L21.2199 16.7885L20.7886 16.764L20.9101 14.6235L19.8797 14.565L19.9033 14.1497ZM19.2644 12.9836C19.5049 13.1935 19.7094 13.4015 19.8782 13.6034L19.5741 13.8786C19.4328 13.6863 19.2243 13.4781 18.9525 13.2543L19.2644 12.9836ZM18.6438 14.1062L19.5942 14.1602L19.4995 15.8295C19.6209 15.7362 19.7511 15.6314 19.8899 15.5151L19.9735 15.9485C19.7003 16.1734 19.4125 16.3734 19.1061 16.5483L18.9677 16.1639C19.0429 16.1081 19.083 16.0382 19.0877 15.9543L19.1682 14.5366L18.6211 14.5056L18.6438 14.1062Z" fill="white"/>
<path d="M24.281 14.0355C24.1002 14.421 23.8989 14.7507 23.6772 15.0245L23.3742 14.667C23.6911 14.2884 23.9667 13.7581 24.201 13.0682L24.6258 13.1606C24.5711 13.3211 24.5164 13.4736 24.4616 13.622L26.0736 13.6087L26.077 14.0207L24.821 14.0311L24.8254 14.563L25.9294 14.5539L25.9327 14.9619L24.8288 14.971L24.8333 15.519L25.9372 15.5099L25.9406 15.9139L24.8366 15.923L24.844 16.815L24.42 16.8185L24.397 14.0346L24.281 14.0355ZM22.8868 14.7391C22.7798 14.8679 22.6689 14.9929 22.5499 15.1139L22.4062 14.667C22.8065 14.2197 23.1021 13.6932 23.2932 13.0916L23.6907 13.2724C23.5932 13.5732 23.4636 13.8623 23.3058 14.1356L23.328 16.8275L22.904 16.831L22.8868 14.7391Z" fill="white"/>
<path d="M27.1527 13.1407C27.393 13.364 27.5766 13.5654 27.7111 13.7406L27.3915 13.9765C27.2529 13.7974 27.0693 13.596 26.8453 13.3801L27.1527 13.1407ZM28.6614 14.7663C28.9442 15.0561 29.1617 15.3083 29.3178 15.5267L28.9594 15.7961C28.8024 15.5537 28.5924 15.2852 28.3334 14.9905L28.6614 14.7663ZM27.9368 13.0198L28.3485 13.0046L28.3707 13.6082C28.3711 13.7283 28.3713 13.8444 28.3675 13.9566L29.9944 13.8968C30.0376 15.072 30.0132 15.8254 29.921 16.149C29.8249 16.4728 29.639 16.6437 29.3672 16.6537C29.1594 16.6613 28.9832 16.6598 28.8387 16.6491L28.7119 16.2495C28.9367 16.2652 29.1451 16.2736 29.333 16.2667C29.4963 16.2447 29.5846 16.0333 29.5939 15.6327C29.6031 15.2321 29.599 14.7919 29.5816 14.3202L28.3425 14.3658C28.2929 14.8679 28.1924 15.2919 28.0369 15.6339C27.8181 16.1062 27.4435 16.4802 26.9132 16.7519L26.6637 16.3888C27.1893 16.0973 27.5366 15.7443 27.7095 15.3297C27.8115 15.0578 27.884 14.7429 27.9228 14.3812L26.7276 14.4252L26.7126 14.0174L27.9517 13.9719C27.9555 13.8557 27.9592 13.7394 27.9589 13.6234L27.9368 13.0198Z" fill="white"/>
<path d="M33.4297 13.6201C33.7183 13.7988 33.9672 13.9835 34.1681 14.1703L33.8898 14.4716C33.7172 14.2914 33.476 14.0984 33.1623 13.8968L33.4297 13.6201ZM32.3862 12.7957C32.423 12.8981 32.4644 13.0123 32.5023 13.1387L34.0247 13.0678L34.0433 13.4674L32.9844 13.5167L33.0318 14.5356L32.6163 14.5549L32.5689 13.536L32.0454 13.5604L32.0929 14.5793L31.6773 14.5986L31.6299 13.5797L30.567 13.6292L30.5484 13.2296L32.0748 13.1586C32.0302 13.0605 31.9859 12.9705 31.9381 12.8886L32.3862 12.7957ZM31.1889 13.7404L31.5088 13.9898C31.3113 14.2192 31.0685 14.4227 30.7726 14.6047L30.5013 14.281C30.7743 14.1241 31.006 13.9411 31.1889 13.7404ZM30.8934 14.7913L33.6824 14.6614L33.6971 14.9771C33.4673 15.2881 33.1875 15.5574 32.8578 15.785C33.2726 15.9219 33.7493 16.0118 34.2919 16.0546L34.1179 16.4471C33.4776 16.3688 32.9265 16.2303 32.4606 16.0277C31.9957 16.2776 31.4561 16.4709 30.8377 16.6038L30.6235 16.2174C31.1475 16.1209 31.6096 15.9833 32.0136 15.8003C31.7006 15.6146 31.4383 15.3986 31.2222 15.1444L30.9105 15.1589L30.8934 14.7913ZM31.6937 15.1224C31.8906 15.3095 32.1264 15.4707 32.4008 15.6021C32.6698 15.4454 32.9055 15.2622 33.1122 15.0564L31.6937 15.1224Z" fill="white"/>
<path d="M34.6046 12.974L35.3678 12.9393L35.3566 12.6915L35.7601 12.6732L35.7714 12.9209L36.8663 12.8712L36.855 12.6234L37.2586 12.6051L37.2699 12.8528L38.0251 12.8185L38.0427 13.2061L37.2875 13.2404L37.3144 13.8318L36.5751 13.8654L36.5853 14.0892L37.7641 14.0356L37.8113 15.0745L36.6325 15.1281L36.6432 15.3639L38.2376 15.2914L38.2552 15.679L36.6608 15.7515L36.687 16.3269L36.2714 16.3458L36.2453 15.7704L34.6349 15.8436L34.6173 15.456L36.2277 15.3828L36.2169 15.147L35.0262 15.2011L34.9789 14.1622L36.1697 14.1081L36.1595 13.8843L35.4123 13.9183L35.3854 13.3269L34.6222 13.3616L34.6046 12.974ZM35.789 13.3085L35.7999 13.5483L36.8948 13.4985L36.8839 13.2588L35.789 13.3085ZM37.387 14.7255L37.3732 14.4218L36.602 14.4568L36.6158 14.7605L37.387 14.7255ZM36.2002 14.7794L36.1864 14.4757L35.4032 14.5113L35.417 14.815L36.2002 14.7794Z" fill="white"/>
<path d="M39.9645 13.1472L40.0664 15.9493L39.6666 15.9639L39.6594 15.764L39.0678 15.7855L39.0792 16.1013L38.6795 16.1158L38.5734 13.1977L38.9572 13.1838C39.0214 12.9693 39.0654 12.7476 39.0891 12.5186L39.5108 12.5593C39.4747 12.7767 39.4222 12.9828 39.3569 13.1693L39.9645 13.1472ZM39.0538 15.4017L39.6454 15.3802L39.618 14.6247L39.0263 14.6462L39.0538 15.4017ZM39.0128 14.2745L39.6044 14.253L39.579 13.5534L38.9874 13.575L39.0128 14.2745ZM40.7273 14.0921C40.9949 14.4066 41.2011 14.6833 41.35 14.926L41.0227 15.1701C40.8652 14.9116 40.6547 14.6271 40.3953 14.3163L40.7273 14.0921ZM42.0231 13.0723C42.074 14.4714 42.0854 15.3356 42.0573 15.6648C42.0275 15.9461 41.8408 16.093 41.497 16.1055C41.417 16.1084 41.2728 16.1056 41.0644 16.0972L40.9507 15.721C41.127 15.7266 41.2832 15.729 41.4151 15.7242C41.559 15.7189 41.64 15.6359 41.6583 15.4792C41.6753 15.2864 41.6634 14.6264 41.6302 13.4949L40.6629 13.5301C40.5637 13.7738 40.4436 13.9943 40.3027 14.1916L40.0388 13.869C40.2889 13.4836 40.448 13.0135 40.524 12.4624L40.9376 12.4994C40.9055 12.7167 40.8609 12.9225 40.8079 13.1165L42.0231 13.0723Z" fill="white"/>
<path d="M43.8671 12.3873L44.291 12.3787L44.3 12.8146C44.2983 12.9266 44.2965 13.0387 44.2907 13.1428L45.8104 13.1117C45.8089 13.8239 45.7966 14.3963 45.7655 14.833C45.7344 15.2657 45.6686 15.5712 45.5762 15.7491C45.4836 15.915 45.3335 16.0061 45.1218 16.0264L44.5539 16.038L44.4337 15.6364C44.6018 15.641 44.758 15.6458 44.9099 15.6427C45.1139 15.6385 45.2432 15.5038 45.3019 15.2466C45.3604 14.9773 45.3927 14.4045 45.3948 13.5283L44.263 13.5515C44.2103 14.1047 44.0998 14.571 43.9355 14.9465C43.7056 15.4433 43.3255 15.8311 42.795 16.106L42.5637 15.7547C43.0857 15.456 43.4343 15.0887 43.6093 14.6491C43.7231 14.3427 43.7996 13.977 43.8391 13.5601L42.7353 13.5827L42.727 13.1748L43.8668 13.1515C43.8725 13.0434 43.8743 12.9353 43.876 12.8232L43.8671 12.3873Z" fill="white"/>
<path d="M46.9662 14.0072L49.8382 14.0142L49.8357 15.0622L48.5997 15.0592L48.5993 15.2152L49.9113 15.2184L49.9107 15.4864L48.5987 15.4832L48.5983 15.6512L50.1983 15.6551L50.1975 15.9671L46.5895 15.9583L46.5903 15.6463L48.1823 15.6502L48.1827 15.4822L46.8867 15.479L46.8873 15.211L48.1833 15.2142L48.1837 15.0582L46.9637 15.0552L46.9662 14.0072ZM49.4403 14.8212L49.4407 14.6492L48.6007 14.6472L48.6003 14.8192L49.4403 14.8212ZM48.1843 14.8182L48.1847 14.6462L47.3607 14.6442L47.3603 14.8162L48.1843 14.8182ZM47.3612 14.4202L48.1852 14.4222L48.1857 14.2542L47.3617 14.2522L47.3612 14.4202ZM48.6017 14.2552L48.6012 14.4232L49.4412 14.4252L49.4416 14.2572L48.6017 14.2552ZM47.0582 12.3834L49.7582 12.39L49.7557 13.418L47.0557 13.4114L47.0582 12.3834ZM49.3562 13.185L49.3566 13.021L47.4566 13.0164L47.4563 13.1804L49.3562 13.185ZM47.4572 12.7844L49.3572 12.789L49.3576 12.625L47.4576 12.6204L47.4572 12.7844ZM46.5953 13.5623L50.2033 13.5711L50.2026 13.8671L46.5946 13.8583L46.5953 13.5623Z" fill="white"/>
<path d="M52.003 12.7561C52.2789 12.7639 52.5046 12.8503 52.68 13.0152C52.8515 13.1801 52.9337 13.3865 52.9265 13.6424C52.9196 13.8903 52.8173 14.1115 52.6277 14.3103C52.5123 14.4271 52.3082 14.5734 52.023 14.7535C51.7257 14.9372 51.5451 15.1002 51.4771 15.2424L52.8845 15.2819L52.873 15.6937L50.8817 15.6378C50.8899 15.3459 50.989 15.0966 51.1869 14.8861C51.2943 14.7691 51.5191 14.5993 51.8574 14.3807C52.0449 14.2579 52.1759 14.1535 52.2582 14.0718C52.3861 13.9354 52.4543 13.7852 52.4588 13.6253C52.4632 13.4693 52.4225 13.3522 52.3446 13.2739C52.2628 13.1956 52.1399 13.1561 51.9759 13.1515C51.8 13.1466 51.6664 13.2029 51.575 13.3204C51.4839 13.4298 51.4311 13.6004 51.4168 13.8241L50.949 13.811C50.962 13.4912 51.0611 13.2379 51.2506 13.0472C51.4443 12.8445 51.6951 12.7475 52.003 12.7561Z" fill="white"/>
<path d="M54.8798 12.8728C55.2114 12.8907 55.4636 13.0406 55.6362 13.3304C55.7976 13.6035 55.8662 13.9638 55.8419 14.4111C55.8177 14.8585 55.7105 15.2092 55.5205 15.4633C55.3178 15.7287 55.0506 15.8544 54.7191 15.8364C54.3836 15.8182 54.1316 15.6643 53.9628 15.3788C53.8013 15.1056 53.7328 14.7454 53.757 14.2981C53.7813 13.8507 53.8884 13.5 54.0785 13.2459C54.2774 12.9763 54.5443 12.8546 54.8798 12.8728ZM54.8584 13.2682C54.6307 13.2558 54.4643 13.371 54.3585 13.6216C54.2853 13.7899 54.2406 14.0238 54.2243 14.3234C54.2083 14.619 54.2275 14.8563 54.2818 15.0356C54.3601 15.2922 54.5129 15.4286 54.7406 15.441C54.9642 15.4531 55.1309 15.334 55.2404 15.0875C55.3139 14.9153 55.3586 14.6813 55.3746 14.3858C55.3909 14.0862 55.3717 13.8488 55.3171 13.6736C55.2351 13.4128 55.0821 13.2803 54.8584 13.2682Z" fill="white"/>
<path d="M58.0398 13.0924C58.3148 13.1162 58.535 13.2155 58.7006 13.3904C58.8622 13.565 58.9323 13.7758 58.9102 14.0309C58.8889 14.2779 58.7739 14.4928 58.573 14.6802C58.4511 14.7901 58.2388 14.9243 57.9436 15.0875C57.6362 15.2537 57.4463 15.4059 57.3702 15.5438L58.7729 15.6651L58.7375 16.0756L56.7529 15.904C56.778 15.6131 56.8914 15.3699 57.1013 15.1713C57.2152 15.0607 57.4496 14.9043 57.8 14.7057C57.9943 14.5941 58.1311 14.4975 58.2181 14.4207C58.3537 14.2919 58.4305 14.146 58.4443 13.9866C58.4577 13.8311 58.4239 13.7118 58.3507 13.6292C58.2736 13.5462 58.1532 13.4997 57.9898 13.4855C57.8144 13.4704 57.6777 13.5188 57.5797 13.6308C57.4824 13.7348 57.4198 13.902 57.3925 14.1245L56.9263 14.0842C56.9578 13.7657 57.0715 13.5186 57.2717 13.3392C57.4769 13.1481 57.733 13.0659 58.0398 13.0924Z" fill="white"/>
<path d="M61.051 13.4075C61.3804 13.4486 61.6216 13.6156 61.7736 13.9167C61.9156 14.2005 61.9589 14.5646 61.9036 15.0092C61.8482 15.4537 61.7169 15.7961 61.5096 16.0364C61.2889 16.287 61.0136 16.3938 60.6842 16.3528C60.3507 16.3112 60.11 16.1402 59.9615 15.8436C59.8195 15.5598 59.7762 15.1957 59.8316 14.7511C59.8869 14.3065 60.0183 13.9642 60.2255 13.7239C60.4427 13.4688 60.7175 13.366 61.051 13.4075ZM61.002 13.8005C60.7758 13.7723 60.6017 13.8756 60.4787 14.1182C60.394 14.281 60.3331 14.5113 60.296 14.809C60.2594 15.1027 60.262 15.3408 60.3037 15.5234C60.3639 15.7848 60.5068 15.9316 60.7331 15.9598C60.9554 15.9875 61.13 15.8802 61.2564 15.642C61.3416 15.4753 61.4026 15.2451 61.4391 14.9513C61.4762 14.6536 61.4736 14.4155 61.4314 14.2369C61.3678 13.971 61.2243 13.8282 61.002 13.8005Z" fill="white"/>
<path d="M63.0159 15.3828L65.0067 15.7253L64.9429 16.0958L62.9522 15.7533L63.0159 15.3828Z" fill="white"/>
<path d="M67.3291 14.466C67.5994 14.5217 67.8066 14.6461 67.9506 14.8391C68.0907 15.0313 68.1357 15.2489 68.0841 15.4996C68.0341 15.7425 67.8948 15.9425 67.6735 16.1052C67.5396 16.2001 67.313 16.3087 67.0008 16.4363C66.6761 16.5655 66.4698 16.6945 66.3781 16.8226L67.7572 17.1067L67.6741 17.5102L65.723 17.1084C65.7819 16.8224 65.9229 16.5941 66.1545 16.4213C66.2806 16.3247 66.5315 16.1967 66.9027 16.0404C67.1087 15.9521 67.2559 15.8722 67.3512 15.806C67.5009 15.6939 67.5942 15.558 67.6265 15.4013C67.658 15.2485 67.6383 15.126 67.5753 15.0354C67.5083 14.944 67.3941 14.8837 67.2335 14.8507C67.0611 14.8152 66.9197 14.8473 66.8093 14.9471C66.7006 15.039 66.6188 15.1978 66.5658 15.4156L66.1074 15.3212C66.1759 15.0086 66.3177 14.7764 66.5374 14.6215C66.7635 14.4557 67.0274 14.4039 67.3291 14.466Z" fill="white"/>
<path d="M70.2676 15.1123C70.5909 15.1876 70.8133 15.379 70.9329 15.6944C71.0445 15.9914 71.0494 16.3581 70.9479 16.7944C70.8463 17.2307 70.6798 17.5575 70.4485 17.7747C70.2029 18.0009 69.9179 18.0783 69.5945 18.003C69.2673 17.9268 69.0458 17.7315 68.9292 17.421C68.8176 17.1239 68.8127 16.7572 68.9142 16.3209C69.0158 15.8846 69.1823 15.5578 69.4136 15.3406C69.6563 15.1096 69.9403 15.0361 70.2676 15.1123ZM70.1778 15.498C69.9557 15.4463 69.7718 15.5308 69.6241 15.7593C69.5228 15.9123 69.4381 16.1349 69.3701 16.427C69.3029 16.7153 69.2806 16.9524 69.303 17.1384C69.3355 17.4047 69.4623 17.5656 69.6843 17.6173C69.9025 17.6681 70.0874 17.5797 70.238 17.3561C70.3402 17.1992 70.4249 16.9766 70.492 16.6883C70.5601 16.3961 70.5824 16.159 70.5591 15.977C70.5237 15.7059 70.3959 15.5488 70.1778 15.498Z" fill="white"/>
<path d="M73.2686 15.8456C73.5361 15.9139 73.7372 16.0478 73.8721 16.2473C74.003 16.4458 74.0379 16.6653 73.9746 16.9133C73.9133 17.1536 73.7649 17.3469 73.5362 17.4991C73.398 17.5877 73.1666 17.6855 72.8488 17.7985C72.5184 17.9123 72.3063 18.0316 72.2087 18.1553L73.573 18.5034L73.4712 18.9026L71.541 18.4101C71.6132 18.1272 71.7646 17.9058 72.0041 17.7439C72.1345 17.6534 72.3912 17.5372 72.7693 17.3984C72.9792 17.3198 73.1299 17.2468 73.2282 17.1852C73.383 17.0802 73.4826 16.9488 73.5221 16.7937C73.5607 16.6426 73.5467 16.5193 73.488 16.4259C73.4254 16.3315 73.3141 16.2659 73.1552 16.2254C72.9847 16.1819 72.842 16.2074 72.727 16.3019C72.6141 16.3887 72.525 16.5435 72.4619 16.7585L72.0084 16.6428C72.0914 16.3338 72.2438 16.1085 72.4706 15.964C72.7042 15.809 72.9702 15.7695 73.2686 15.8456Z" fill="white"/>
<path d="M76.3479 16.7218L76.7606 16.835L76.2653 18.6403L76.6742 18.7525L76.5758 19.1112L76.1669 18.999L76.005 19.5892L75.5768 19.4718L75.7387 18.8816L74.4079 18.5165L74.5254 18.0883L76.3479 16.7218ZM76.1642 17.2853L74.8728 18.2583L75.8372 18.5228L76.1758 17.2884L76.1642 17.2853Z" fill="white"/>
<path d="M78.4903 16.8939L78.8816 17.0094L78.698 17.6309L79.4039 17.8394L79.2952 18.2076L78.5893 17.9992L78.4126 18.5976L78.9957 18.7698L78.5697 20.2123C78.8791 20.1535 79.1729 20.0484 79.4561 19.8943C79.4524 19.7514 79.4548 19.6019 79.4618 19.4372C79.4724 19.2317 79.4986 19.0018 79.5503 18.7418L79.0332 18.685L79.0833 18.3036L79.6246 18.3633C79.6944 18.0419 79.786 17.6894 79.8993 17.3058L80.2829 17.4191C80.178 17.7885 80.0932 18.118 80.0286 18.4075L81.054 18.5226L81.0039 18.9041L79.9455 18.7876C79.8961 19.0399 79.8629 19.2511 79.8537 19.4236C79.8464 19.5048 79.844 19.5834 79.8401 19.6531C80.0746 19.4805 80.3017 19.2764 80.5175 19.0399L80.7671 19.3388C80.4604 19.657 80.1543 19.9169 79.8486 20.1186C79.854 20.1994 79.8654 20.2737 79.8802 20.3365C79.9312 20.5309 79.9792 20.6368 80.0252 20.6504C80.079 20.6663 80.1875 20.5106 80.3458 20.1862L80.6148 20.4616C80.3649 20.9551 80.1459 21.174 79.9541 21.1174C79.8006 21.0721 79.6735 20.9094 79.5754 20.6343C79.5405 20.5406 79.5128 20.4365 79.4963 20.3232C79.1679 20.489 78.8422 20.5889 78.5156 20.6217L78.3895 20.2717L77.4497 19.9941L77.3726 20.255L76.989 20.1417L77.5226 18.3348L78.0213 18.4821L78.4903 16.8939ZM77.5573 19.6297L78.267 19.8392L78.5071 19.026L77.7974 18.8164L77.5573 19.6297ZM80.6872 17.6177C80.8109 17.8628 80.903 18.0735 80.9608 18.2449L80.6054 18.361C80.5521 18.1742 80.4661 17.957 80.3512 17.7104L80.6872 17.6177Z" fill="white"/>
<path d="M84.3043 20.9101C84.0794 20.6949 83.8912 20.4831 83.7421 20.2671C83.4787 20.3546 83.1897 20.4171 82.8763 20.4508L84.3043 20.9101ZM82.7942 20.458C82.7512 20.461 82.7082 20.464 82.669 20.4682L82.5907 20.2413L82.1854 21.5017L81.8503 21.3939L81.8956 21.253L81.233 21.0399L81.1877 21.1808L80.8297 21.0657L81.7801 18.1108L83.1357 18.5468L82.9239 19.2055C83.2119 19.0545 83.4966 18.8225 83.7754 18.5046L84.1444 18.7157C84.0806 18.7835 84.0219 18.8486 83.9631 18.9137L84.9417 19.2285L84.8438 19.5331C84.6389 19.7782 84.3867 19.9744 84.0872 20.1217C84.2653 20.3387 84.4839 20.5476 84.739 20.7473L84.4537 21.0464C84.4141 21.0126 84.3746 20.9789 84.3438 20.9438L83.8809 22.3832L83.4925 22.2583L83.5378 22.1174L82.7686 21.87L82.7233 22.0109L82.3349 21.8859L82.7942 20.458ZM82.8785 19.3464L82.6458 20.0699C82.972 20.0488 83.27 19.9976 83.531 19.9176C83.4483 19.7566 83.3809 19.6004 83.3337 19.4466C83.2219 19.5199 83.11 19.5805 82.9993 19.6374L82.8785 19.3464ZM83.8535 19.7903C84.0473 19.6971 84.2181 19.584 84.3648 19.4547L83.6337 19.2195C83.6274 19.2259 83.6224 19.2285 83.6211 19.2323C83.6687 19.4241 83.7478 19.6092 83.8535 19.7903ZM82.8874 21.5006L83.6566 21.748L83.8428 21.1692L83.0736 20.9218L82.8874 21.5006ZM82.0058 20.9103L82.2973 20.0041L82.1183 19.9465L81.8268 20.8528L82.0058 20.9103ZM82.4075 19.6613L82.6843 18.8008L82.5053 18.7432L82.2285 19.6038L82.4075 19.6613ZM82.1931 18.6428L82.0217 18.5877L81.7449 19.4482L81.9163 19.5034L82.1931 18.6428ZM81.6347 19.791L81.3432 20.6972L81.5146 20.7523L81.8061 19.8461L81.6347 19.791Z" fill="white"/>
<g clip-path="url(#clip0_250_2920)">
<path d="M2.20007 4.39997L5.73186 6.27786L3.85398 9.80965L0.322187 7.93176L2.20007 4.39997Z" fill="#012169"/>
<path d="M5.73186 6.27786L5.49713 6.71933L3.4823 7.34688L4.10705 9.33368L3.85398 9.80965L3.39181 9.56391L2.76382 7.56654L0.791253 8.18117L0.322187 7.93176L0.571594 7.4627L2.5405 6.85497L1.92866 4.91043L2.20007 4.39997L2.62775 4.62737L3.26264 6.62841L5.23521 6.01378L5.73186 6.27786Z" fill="white"/>
<path d="M2.28096 7.3098L2.23214 7.58468L0.611904 8.08581L0.322187 7.93176L0.33319 7.91107L2.28096 7.3098ZM3.18033 7.68182L3.52348 7.93506L4.01903 9.49924L3.85398 9.80965L3.18033 7.68182ZM5.73186 6.27786L3.68856 6.92566L3.82235 6.60748L5.41455 6.10914L5.73186 6.27786ZM2.19641 4.40687L2.83452 6.41847L2.45688 6.14689L2.02035 4.73797L2.19641 4.40687Z" fill="#C8102E"/>
<path d="M3.41413 5.04549L1.53624 8.57728L2.63992 9.16412L4.51781 5.63233L3.41413 5.04549ZM1.55455 5.61402L0.96771 6.71771L4.4995 8.59559L5.08634 7.49191L1.55455 5.61402Z" fill="white"/>
<path d="M1.43718 5.83476L1.08508 6.49697L4.61687 8.37486L4.96897 7.71265L1.43718 5.83476ZM3.63486 5.16286L1.75698 8.69465L2.41919 9.04676L4.29707 5.51497L3.63486 5.16286Z" fill="#C8102E"/>
</g>
<defs>
<clipPath id="clip0_250_2920">
<rect x="2.20007" y="4.39997" width="4" height="4" rx="2" transform="rotate(28 2.20007 4.39997)" fill="white"/>
</clipPath>
</defs>
</svg>
