<svg width="176" height="35" viewBox="0 0 176 35" fill="none" xmlns="http://www.w3.org/2000/svg">
<path d="M2.63799 1.33836L2.88018 1.46687L2.19007 2.70696L2.65398 4.04299L2.40585 4.13073L1.90306 2.6831L2.63799 1.33836ZM3.14923 1.38086L3.37945 1.50838L2.7013 2.74946L3.16521 4.08549L2.91709 4.17323L2.41429 2.7256L3.14923 1.38086Z" fill="white"/>
<path d="M4.48255 1.52062C4.58451 1.67904 4.68232 1.85219 4.77297 2.03983L4.58029 2.11805L5.1994 2.16644C5.3204 2.00438 5.432 1.80848 5.53398 1.58174L5.80629 1.67825C5.72506 1.8705 5.62752 2.04042 5.51942 2.19146L6.08769 2.23587L6.06618 2.51104L5.09116 2.43482L5.08391 2.52754C5.06671 2.67064 5.04147 2.80107 5.01095 2.92205L6.20132 3.0151L6.17981 3.29026L5.133 3.20844C5.25127 3.58179 5.60292 3.89514 6.18772 4.15149L5.99919 4.40758C5.39121 4.10127 5.02007 3.72922 4.87957 3.29395C4.81474 3.43031 4.73913 3.55078 4.65295 3.65238C4.42853 3.90566 4.08041 4.08608 3.60859 4.19364L3.47247 3.93324C3.94475 3.8197 4.27053 3.65559 4.4528 3.44114C4.51641 3.35885 4.57174 3.26688 4.61857 3.16823L3.59569 3.08828L3.6172 2.81311L4.71784 2.89914C4.75159 2.7754 4.77982 2.6452 4.79679 2.5051L4.80403 2.41238L3.82602 2.33594L3.84752 2.06078L4.48757 2.1108C4.40243 1.92962 4.30967 1.7689 4.21252 1.6259L4.48255 1.52062Z" fill="white"/>
<path d="M7.06776 1.80785L9.33274 1.97321L9.31242 2.25147L8.35796 2.18179L8.30466 2.91185L9.46857 2.99682L9.44781 3.28106L8.28391 3.19609L8.20942 4.21637C8.19413 4.42582 8.07557 4.52545 7.85715 4.5095L7.38141 4.47477L7.34167 4.19513C7.49361 4.21525 7.63978 4.23194 7.77741 4.24199C7.87316 4.24898 7.92431 4.20759 7.93042 4.12381L7.99967 3.17534L6.7849 3.08665L6.80565 2.80241L8.02042 2.89109L8.07372 2.16104L7.04745 2.08611L7.06776 1.80785Z" fill="white"/>
<path d="M9.81118 3.23992L9.75668 4.03605C10.0058 3.99898 10.2705 3.95395 10.5452 3.89457L10.6022 4.16008C10.2271 4.23664 9.84402 4.29763 9.4558 4.34623L9.35825 4.102C9.43274 4.06801 9.47255 4.0136 9.47767 3.93877L9.60203 2.12202C9.98025 2.08777 10.3268 2.03331 10.6418 1.95564L10.8028 2.1952C10.5305 2.26376 10.2201 2.31769 9.87141 2.35998L9.82982 2.96755L10.6559 3.0241L10.6372 3.29646L9.81118 3.23992ZM11.596 4.40251L11.3146 4.38325L11.2556 4.10257L11.5216 4.12679C11.5994 4.13211 11.6414 4.08988 11.6471 4.00608L11.7533 2.45571L11.1636 2.41535L11.0026 4.76784L10.7153 4.74818L10.8948 2.12631L12.059 2.206L11.9304 4.08561C11.915 4.31008 11.8025 4.41664 11.596 4.40251Z" fill="white"/>
<path d="M12.8122 3.07694L13.1043 2.21773L13.3857 2.2837L13.1948 2.82769L13.6379 2.85585C13.7088 2.63791 13.7686 2.40723 13.8201 2.16401L14.1082 2.21838C14.0573 2.45263 13.9983 2.67133 13.9343 2.87468L15.3055 2.96179L15.2882 3.23424L13.8451 3.14256C13.8089 3.23946 13.7701 3.33018 13.7344 3.4181L14.932 3.49418L14.9168 3.7337C14.8234 3.97426 14.6626 4.18649 14.4285 4.37002C14.648 4.51022 14.9161 4.64448 15.2296 4.77262L15.0657 5.03275C14.7118 4.878 14.4158 4.7119 14.1802 4.54062C13.9332 4.69026 13.6332 4.82151 13.2804 4.93436L13.1478 4.65539C13.454 4.56663 13.7191 4.46323 13.9399 4.348C13.7552 4.17995 13.6191 4.00296 13.5345 3.82023C13.2908 4.24964 12.9959 4.58562 12.6528 4.82836L12.5229 4.55557C12.9592 4.21656 13.2992 3.73915 13.5427 3.12335L12.8122 3.07694ZM13.751 3.67767C13.8386 3.86059 13.9838 4.03515 14.1869 4.19835C14.3852 4.05764 14.5334 3.90173 14.6282 3.7334L13.751 3.67767ZM14.6133 2.21741C14.81 2.38622 14.9736 2.55593 15.1042 2.72355L14.8877 2.9142C14.7778 2.75091 14.6204 2.57858 14.4097 2.39385L14.6133 2.21741Z" fill="white"/>
<path d="M18.152 2.41886L18.3852 2.54082L17.737 3.79779L18.2328 5.12232L17.9868 5.21599L17.4495 3.78081L18.152 2.41886Z" fill="white"/>
<path d="M19.8685 3.02006L18.865 2.96476L18.8801 2.69217L21.1776 2.81879L21.1626 3.09138L20.1561 3.03591L20.0557 4.85715L21.2509 4.92301L21.2357 5.1986L18.5548 5.05085L18.57 4.77526L19.7681 4.8413L19.8685 3.02006Z" fill="white"/>
<path d="M22.3223 2.69278L22.6069 2.70751L22.485 5.06236L22.8445 5.08097L22.9664 2.72613L23.251 2.74086L23.1291 5.09571L24.0039 5.141L23.9895 5.41963L21.3171 5.28127L21.3315 5.00264L22.2003 5.04762L22.3223 2.69278ZM23.7824 3.32712L24.0304 3.41206C23.8898 3.92147 23.7198 4.36327 23.52 4.74045L23.27 4.63738C23.4557 4.29853 23.6287 3.85989 23.7824 3.32712ZM21.7275 3.21472C21.8595 3.6241 21.9706 4.08946 22.0637 4.61098L21.7997 4.66339C21.7222 4.18775 21.6139 3.72553 21.4808 3.28005L21.7275 3.21472Z" fill="white"/>
<path d="M24.7927 2.84079C24.9774 2.99401 25.1291 3.14861 25.2539 3.2989L25.0494 3.48712C24.9424 3.34071 24.788 3.18297 24.5889 3.01703L24.7927 2.84079ZM24.3674 3.67598L25.0386 3.70885L24.9765 4.97633C25.0732 4.90298 25.1765 4.81793 25.2893 4.72133L25.3526 5.02479C25.149 5.19504 24.9343 5.34672 24.7087 5.47683L24.6134 5.21386C24.6634 5.17426 24.693 5.12164 24.6961 5.05872L24.7495 3.96803L24.354 3.94866L24.3674 3.67598ZM25.4196 4.08494L26.8729 4.15612L26.8601 4.4168C26.7601 4.67923 26.6052 4.89991 26.395 5.08185C26.5806 5.21709 26.8088 5.3424 27.0737 5.45149L26.9089 5.68972C26.6151 5.55518 26.3732 5.40517 26.1768 5.24537C25.9348 5.40172 25.6376 5.52233 25.291 5.60747L25.1439 5.35998C25.4661 5.28265 25.7385 5.17885 25.9613 5.04559C25.7672 4.83785 25.6371 4.61221 25.5769 4.36898L25.4061 4.36061L25.4196 4.08494ZM25.8436 4.38204C25.9036 4.5682 26.0123 4.73872 26.1728 4.89676C26.3418 4.75786 26.4757 4.59922 26.5717 4.4177L25.8436 4.38204ZM25.686 2.9386L26.7467 2.99055L26.7159 3.6198C26.7127 3.68572 26.7469 3.72344 26.8218 3.72711L27.0855 3.74002L27.0727 4.00071L26.7341 3.98412C26.5214 3.9737 26.4215 3.86669 26.4312 3.66893L26.452 3.24344L25.9546 3.21908L25.9502 3.30897C25.9349 3.6206 25.7642 3.85553 25.4413 4.01091L25.2632 3.78293C25.5205 3.68139 25.6571 3.5289 25.6671 3.32514L25.686 2.9386Z" fill="white"/>
<path d="M28.5443 3.85404L29.3294 3.89091L29.3707 3.01287L29.6643 3.02666L29.6231 3.9047L30.3663 3.93959L30.3531 4.22128L29.6099 4.18639L29.534 5.80161L29.2404 5.78782L29.3162 4.1726L28.5311 4.13573L28.5443 3.85404ZM28.0389 2.97737C28.2267 3.13335 28.3847 3.28793 28.5125 3.4441L28.3084 3.63273C28.1952 3.48626 28.0374 3.32869 27.8319 3.16287L28.0389 2.97737ZM27.6025 3.82784L28.2947 3.86034L28.2348 5.13694C28.3343 5.06353 28.4374 4.97827 28.547 4.8843L28.6082 5.1785C28.408 5.3493 28.1936 5.50141 27.9683 5.63198L27.8723 5.3722C27.9253 5.33263 27.9546 5.28296 27.9574 5.22302L28.0092 4.12024L27.5897 4.10054L27.6025 3.82784Z" fill="white"/>
<path d="M30.7639 3.18289L31.9716 3.23846L31.9595 3.50218L31.8157 3.49556L31.7435 5.0629C31.8043 5.04768 31.8652 5.02946 31.926 5.01423L31.9133 5.28994C31.8525 5.30517 31.7919 5.31739 31.7311 5.33262L31.7051 5.89902L31.4294 5.88633L31.452 5.39485C31.2095 5.44376 30.9553 5.48612 30.6923 5.52208L30.636 5.24619L30.8381 5.22546L30.9196 3.45434L30.7518 3.44662L30.7639 3.18289ZM31.11 5.18992C31.228 5.17132 31.3461 5.14973 31.4644 5.12514L31.4819 4.74454L31.1313 4.72841L31.11 5.18992ZM31.1431 4.47068L31.4938 4.48681L31.5107 4.1182L31.1601 4.10207L31.1431 4.47068ZM31.1719 3.84435L31.5226 3.86048L31.5399 3.48288L31.1893 3.46674L31.1719 3.84435ZM32.0832 3.29464L33.3838 3.35448L33.3164 4.81993L32.0158 4.76009L32.0832 3.29464ZM33.0499 4.54039L33.0927 3.61137L32.3495 3.57718L32.3067 4.50619L33.0499 4.54039ZM32.282 4.91349L32.5221 5.04766C32.3772 5.38937 32.2107 5.67902 32.0253 5.92276L31.7964 5.74105C31.981 5.51529 32.1409 5.23735 32.282 4.91349ZM33.0076 4.93786C33.1964 5.27389 33.3391 5.56576 33.4388 5.8136L33.1944 5.97053C33.0958 5.69872 32.9564 5.398 32.7795 5.06551L33.0076 4.93786Z" fill="white"/>
<path d="M34.3472 3.26967L34.6319 3.28281L34.5232 5.6383L34.8828 5.6549L34.9915 3.2994L35.2762 3.31254L35.1675 5.66804L36.0426 5.70842L36.0297 5.98712L33.3565 5.86376L33.3694 5.58505L34.2385 5.62516L34.3472 3.26967ZM35.8109 3.89581L36.0593 3.97935C35.9216 4.48955 35.754 4.93229 35.5564 5.31058L35.3058 5.20892C35.4897 4.86904 35.6601 4.42943 35.8109 3.89581ZM33.7553 3.79494C33.8896 4.20357 34.0033 4.6683 34.0994 5.18929L33.8357 5.24318C33.7555 4.76798 33.6446 4.30638 33.509 3.86166L33.7553 3.79494Z" fill="white"/>
<path d="M37.006 3.41064C37.1831 3.47613 37.3476 3.55303 37.4934 3.64406L37.3296 3.86753C37.1755 3.76109 37.0173 3.67848 36.855 3.6167L37.006 3.41064ZM37.9255 3.40032L38.2025 3.44953C38.1816 3.50861 38.1581 3.56155 38.1316 3.61435L39.3062 3.67022L39.2981 3.84103C39.2583 3.9833 39.2064 4.12799 39.1456 4.26926L38.8768 4.17538C38.9255 4.09661 38.9689 4.00557 39.0037 3.90511L38.5662 3.8843C38.5514 3.94367 38.5338 3.99689 38.5133 4.04998C38.662 4.27029 38.9547 4.43138 39.3943 4.53338L39.2806 4.77725C38.8622 4.67025 38.564 4.49989 38.3857 4.26916C38.3538 4.30969 38.3221 4.34422 38.2874 4.37862C38.1399 4.51276 37.8919 4.61209 37.5463 4.67974L37.4535 4.42004C37.7381 4.37351 37.9457 4.30229 38.0767 4.2004C38.1767 4.11806 38.251 4.00747 38.2965 3.87148L37.9699 3.85594C37.887 3.95712 37.7866 4.04845 37.6747 4.12722L37.5174 3.89749C37.7128 3.76862 37.8499 3.60095 37.9255 3.40032ZM39.0544 4.79653L39.0118 5.69252L38.7242 5.67883L38.7542 5.04655L37.3608 4.98027L37.3293 5.64252L37.0446 5.62898L37.0887 4.70303L39.0544 4.79653ZM37.9353 5.08869L38.2188 5.1262C38.1586 5.50777 38.0536 5.75807 37.9099 5.87437C37.7526 6.02606 37.3941 6.11113 36.8315 6.13242L36.7328 5.86944C37.2045 5.86785 37.5165 5.81061 37.6722 5.69487C37.8098 5.58128 37.8974 5.38122 37.9353 5.08869ZM37.3593 4.0011L37.5179 4.20386C37.3608 4.34956 37.1683 4.48156 36.9403 4.60287L36.7619 4.37513C36.9956 4.26011 37.1967 4.13752 37.3593 4.0011ZM38.2517 5.63534C38.6337 5.74961 38.9817 5.8833 39.2958 6.0364L39.1287 6.26572C38.7947 6.09065 38.4529 5.95125 38.0976 5.84425L38.2517 5.63534Z" fill="white"/>
<path d="M40.3215 4.82832L40.2485 6.28449L39.9698 6.27053L40.0392 4.88626C39.9399 5.1306 39.8206 5.3529 39.6844 5.55334L39.577 5.23857C39.788 4.98481 39.95 4.68955 40.06 4.35263L39.6914 4.33416L39.7051 4.0615L40.0796 4.08028L40.1077 3.51998L40.3864 3.53395L40.3583 4.09424L40.6609 4.10941L40.6472 4.38207L40.3446 4.3669L40.3379 4.50173C40.4511 4.63957 40.5609 4.78625 40.6729 4.94807C40.9174 4.8642 41.1326 4.76685 41.3184 4.65601C41.2156 4.54873 41.128 4.43921 41.0556 4.32444C40.9857 4.40204 40.91 4.47334 40.8345 4.54164L40.6657 4.31391C40.8787 4.13835 41.0653 3.89238 41.2256 3.57L41.4951 3.64659C41.4618 3.71101 41.4316 3.77557 41.3986 3.834L42.2106 3.8747L42.1996 4.09342C42.0863 4.31603 41.9323 4.51256 41.7345 4.68288C41.923 4.81848 42.1454 4.93476 42.3986 5.03757L42.2563 5.30077C41.9659 5.16006 41.7212 5.00962 41.5222 4.84345C41.3296 4.97197 41.1048 5.08085 40.854 5.17041L42.1214 5.23394L42.0639 6.3815L41.7883 6.36768L41.794 6.25382L41.0539 6.21673L41.0482 6.33058L40.7695 6.31662L40.8265 5.18104C40.7776 5.19662 40.7288 5.21219 40.6829 5.22792L40.6017 5.1097L40.5276 5.21112C40.4482 5.05695 40.3794 4.93035 40.3215 4.82832ZM41.0671 5.95306L41.8072 5.99015L41.8326 5.48379L41.0925 5.44669L41.0671 5.95306ZM41.5208 4.51296C41.6679 4.39418 41.7884 4.26805 41.8825 4.12859L41.2323 4.096C41.2227 4.10753 41.213 4.12206 41.2064 4.13375C41.2866 4.26994 41.3915 4.39534 41.5208 4.51296Z" fill="white"/>
<path d="M42.9629 4.2861C42.909 4.39436 42.8441 4.484 42.7743 4.55235L42.5526 4.37516C42.7047 4.22713 42.8061 4.01928 42.8598 3.74578L43.1242 3.80207C43.1047 3.88515 43.0855 3.96223 43.0638 4.03016L43.3365 4.04484L43.3555 3.69135L43.6371 3.70652L43.618 4.06001L44.1543 4.08888L44.1402 4.34951L43.604 4.32063L43.5867 4.64116L44.2098 4.67472L44.1955 4.94133L43.5724 4.90778L43.5588 5.15941L44.137 5.19055L44.0939 5.99039C44.0833 6.1881 43.9761 6.28147 43.7724 6.2705L43.6256 6.2626L43.5681 5.99211L43.6992 6.01119C43.7801 6.01555 43.824 5.98186 43.8275 5.91596L43.8532 5.43965L43.5446 5.42303L43.4887 6.46252L43.2071 6.44736L43.263 5.40787L42.9545 5.39125L42.9085 6.24501L42.6329 6.23017L42.6931 5.11279L43.2772 5.14425L43.2908 4.89261L42.5898 4.85486L42.6042 4.58825L43.3052 4.626L43.3224 4.30546L42.9629 4.2861ZM44.3865 4.01727L44.6621 4.03211L44.5633 5.86545L44.2877 5.85061L44.3865 4.01727ZM44.8322 6.50784L44.3858 6.4838L44.3376 6.20781C44.4807 6.22753 44.6152 6.24079 44.747 6.24788C44.8249 6.25208 44.8661 6.21224 44.8705 6.13135L44.9971 3.77976L45.2787 3.79493L45.1482 6.21841C45.1372 6.42212 45.0299 6.51849 44.8322 6.50784Z" fill="white"/>
<path d="M46.1255 5.48397L47.8984 5.58805L47.8861 5.79769C47.7225 5.9744 47.5306 6.11941 47.3073 6.23853C47.5562 6.3493 47.8455 6.43841 48.1725 6.49968L48.0353 6.73805C47.6408 6.64878 47.3055 6.52392 47.0291 6.36945C46.7214 6.49263 46.365 6.57388 45.9658 6.61656L45.8576 6.36078C46.1929 6.33238 46.4936 6.27791 46.7569 6.1942C46.5756 6.05734 46.4282 5.90744 46.3119 5.73833L46.1112 5.72655L46.1255 5.48397ZM46.6173 5.75627C46.7301 5.88309 46.8649 5.99318 47.0243 6.09269C47.2033 6.01305 47.3622 5.91719 47.5008 5.80813L46.6173 5.75627ZM46.0304 4.85031L46.0206 5.01802C45.9703 5.6702 45.8349 6.18515 45.608 6.56851L45.4036 6.36418C45.5847 6.04424 45.6986 5.58814 45.7391 5.0015L45.7964 4.02518L46.9314 4.09181C46.9024 4.02399 46.8701 3.95899 46.8373 3.90297L47.1426 3.87281C47.1715 3.94363 47.1999 4.02343 47.2249 4.10904L48.2312 4.16811L48.2154 4.43765L46.0621 4.31124L46.0459 4.58677L46.4951 4.61314L46.5069 4.41248L46.7824 4.42866L46.7707 4.62931L47.4744 4.67063L47.4864 4.46698L47.7619 4.48315L47.75 4.6868L48.1992 4.71317L48.1837 4.97672L47.7345 4.95035L47.7074 5.41155L46.4526 5.33789L46.4797 4.87668L46.0304 4.85031ZM46.7552 4.89286L46.742 5.11747L47.4458 5.15879L47.459 4.93417L46.7552 4.89286Z" fill="white"/>
<path d="M48.9165 3.98004L49.183 3.99667C49.0446 4.19242 48.9359 4.39304 48.8569 4.59853C48.751 4.85042 48.6928 5.1083 48.6766 5.36879C48.6605 5.62629 48.6862 5.8894 48.7598 6.1555C48.8127 6.36621 48.8957 6.57878 49.0085 6.79323L48.742 6.7766C48.6136 6.5702 48.5186 6.35987 48.4568 6.14561C48.3798 5.88531 48.3512 5.62202 48.368 5.35254C48.385 5.08007 48.4464 4.81939 48.5549 4.57367C48.6432 4.36276 48.7637 4.16588 48.9165 3.98004Z" fill="white"/>
<path d="M49.6572 4.93565L50.4984 4.99192C50.5291 4.89175 50.5627 4.79477 50.5934 4.6946L49.881 4.64694L49.8988 4.38054L50.6711 4.4322C50.7027 4.32005 50.7314 4.20472 50.763 4.09257L51.0547 4.13614C51.0264 4.24549 50.9982 4.35185 50.9734 4.45242L52.2246 4.53613L52.2068 4.80253L50.8987 4.71502C50.8678 4.81819 50.837 4.91836 50.8067 5.01254L52.3632 5.11667L52.345 5.38906L50.7136 5.27993C50.6697 5.39726 50.6294 5.50581 50.5864 5.60817L51.9723 5.70088L51.9559 5.94633C51.8046 6.14067 51.5785 6.32999 51.2773 6.51731C51.4349 6.58799 51.5864 6.66126 51.7316 6.73713L51.5596 6.97216C51.1276 6.7328 50.6808 6.53453 50.2219 6.38356L50.3863 6.17207C50.5923 6.23997 50.789 6.31026 50.9762 6.38893C51.2414 6.24431 51.4528 6.09609 51.6107 5.93827L50.1619 5.84135C50.2466 5.65459 50.3256 5.46143 50.4023 5.2591L49.639 5.20804L49.6572 4.93565Z" fill="white"/>
<path d="M53.337 4.32106L53.6212 4.34198L53.4482 6.69362L53.8072 6.72004L53.9802 4.36839L54.2644 4.3893L54.0914 6.74095L54.9651 6.80523L54.9446 7.08347L52.2758 6.88712L52.2963 6.60887L53.1639 6.67271L53.337 4.32106ZM54.783 4.98696L55.029 5.07726C54.8775 5.58351 54.6979 6.02151 54.4899 6.39426L54.2422 6.28579C54.4353 5.95105 54.6177 5.51626 54.783 4.98696ZM52.731 4.82997C52.8541 5.24212 52.955 5.70978 53.0368 6.2332L52.7717 6.27987C52.7045 5.80265 52.6064 5.3382 52.4829 4.88993L52.731 4.82997Z" fill="white"/>
<path d="M55.7653 7.22236L55.5112 7.20167L55.473 6.93068C55.5498 6.94897 55.6211 6.96079 55.6899 6.96639C55.7616 6.97223 55.8009 6.93329 55.8075 6.85256L55.8591 6.21866C55.748 6.25175 55.634 6.28461 55.5234 6.31173L55.4745 6.02481C55.6115 6.00587 55.7463 5.97771 55.8817 5.94058L55.9343 5.29471L55.5964 5.26721L55.6186 4.99511L55.9565 5.02261L55.9991 4.49934L56.2741 4.52174L56.2315 5.04501L56.5246 5.06886L56.5024 5.34096L56.2094 5.31711L56.1661 5.84935C56.2716 5.80978 56.3744 5.76698 56.4775 5.72119L56.4548 5.99927C56.3518 6.04506 56.2492 6.08487 56.1437 6.12444L56.0767 6.94672C56.0607 7.14406 55.9567 7.23794 55.7653 7.22236ZM56.6178 4.95907L57.3175 5.01603L57.3501 4.61535L57.6252 4.63775L57.5926 5.03842L58.2922 5.09538L58.2701 5.36748L57.5704 5.31052L57.5356 5.73811L58.1217 5.78582L58.1012 6.03699C57.9802 6.34017 57.7998 6.59638 57.5543 6.80214C57.7285 6.95477 57.9458 7.09587 58.2034 7.22219L58.0379 7.44349C57.7611 7.29453 57.5305 7.13129 57.3459 6.95974C57.1042 7.11766 56.8175 7.23879 56.4853 7.32612L56.37 7.07895C56.6768 7.00761 56.9409 6.9057 57.1599 6.76701C56.9456 6.5148 56.8113 6.242 56.7545 5.9424L56.599 5.92974L56.6206 5.66362L57.2605 5.71571L57.2953 5.28813L56.5956 5.23117L56.6178 4.95907ZM57.0206 5.96406C57.0733 6.20313 57.1881 6.42016 57.3676 6.61838C57.5616 6.45358 57.713 6.25822 57.8219 6.0293L57.0206 5.96406Z" fill="white"/>
<path d="M58.6231 5.40007L59.7586 5.50154L59.8202 4.81129L60.1011 4.83639L60.0394 5.52664L61.1779 5.62837L61.1536 5.90029L60.2751 5.82178C60.4247 6.30501 60.7103 6.7492 61.1319 7.15433L60.9193 7.37629C60.4652 6.89597 60.1624 6.37495 60.0138 5.81349L59.8547 7.5944L59.5738 7.5693L59.7324 5.79437C59.4609 6.3725 59.0552 6.83322 58.5158 7.17356L58.3831 6.90569C58.8602 6.62303 59.226 6.23705 59.4743 5.75022L58.5988 5.67199L58.6231 5.40007ZM60.5879 4.8829C60.7422 5.0774 60.8598 5.24453 60.9407 5.38429L60.6992 5.52535C60.6169 5.3674 60.4998 5.1943 60.3545 5.00059L60.5879 4.8829Z" fill="white"/>
<path d="M63.1903 5.13801C63.1647 5.40076 63.1341 5.62083 63.1041 5.80478C63.1996 6.61592 63.5703 7.26406 64.2102 7.74861L63.9979 7.97804C63.462 7.53983 63.1121 6.98717 62.9476 6.32603C62.6899 6.92781 62.2276 7.40109 61.5609 7.74587L61.4125 7.47515C62.2666 7.06428 62.7473 6.43305 62.8549 5.57847C62.8745 5.37842 62.8926 5.22345 62.9037 5.10999L63.1903 5.13801Z" fill="white"/>
<path d="M66.8378 6.58682L66.718 7.7175L66.4376 7.6878L66.5298 6.81667L65.0352 6.6584L64.9382 7.57428L64.6578 7.54458L64.7823 6.36915L66.8378 6.58682ZM65.0619 5.40926L66.7654 5.58965L66.681 6.3862L64.9775 6.20581L65.0619 5.40926ZM66.4325 6.1125L66.4644 5.81119L65.3098 5.68893L65.2779 5.99024L66.4325 6.1125ZM65.6483 6.88019L65.9318 6.93737C65.8427 7.38044 65.7186 7.66898 65.5596 7.80298C65.3908 7.97215 65.0139 8.05593 64.4324 8.04865L64.3495 7.77742C64.8324 7.80441 65.1611 7.74872 65.3326 7.61001C65.4824 7.47804 65.5865 7.23566 65.6483 6.88019ZM65.9289 7.5917C66.3057 7.73718 66.6444 7.89976 66.9511 8.08006L66.7711 8.29932C66.449 8.09325 66.1141 7.92204 65.7662 7.78866L65.9289 7.5917Z" fill="white"/>
<path d="M67.5611 5.56529L67.8264 5.59486C67.942 5.80394 68.0267 6.01865 68.0803 6.24196C68.1419 6.50238 68.1603 6.77007 68.1301 7.04139C68.1002 7.30973 68.0236 7.56381 67.9059 7.80727C67.8051 8.00734 67.6752 8.19812 67.5161 8.37962L67.2507 8.35005C67.3959 8.15795 67.5142 7.96285 67.6057 7.76477C67.7211 7.51501 67.7947 7.2606 67.8233 7.00419C67.8522 6.74479 67.8364 6.48041 67.7785 6.21437C67.7332 5.99802 67.6607 5.78166 67.5611 5.56529Z" fill="white"/>
<path d="M69.7041 7.30282L69.4478 7.27283L69.4788 7.00764L70.2685 7.10005L70.2374 7.36524L69.9812 7.33525L69.8954 8.06824C70.0177 8.05538 70.1404 8.03953 70.2604 8.02035L70.2294 8.28554C69.9618 8.32672 69.6774 8.35686 69.3765 8.37299L69.3397 8.09382C69.4304 8.09236 69.5212 8.09091 69.6124 8.08647L69.7041 7.30282ZM70.7176 8.70815C70.6103 8.6956 70.5214 8.60364 70.4561 8.43893C70.3827 8.24006 70.3431 7.98472 70.337 7.67591C70.3319 7.40952 70.3454 7.08791 70.3781 6.70511L69.4574 6.59736L69.4895 6.32323L70.4042 6.43029C70.4178 6.26273 70.4384 6.08693 70.4593 5.90815L70.7334 5.94023C70.7118 6.12497 70.6916 6.29779 70.6784 6.46237L71.2475 6.52897L71.2154 6.8031L70.6522 6.7372C70.6108 7.19448 70.5977 7.56446 70.6073 7.84348C70.6272 8.19013 70.6751 8.37395 70.7538 8.39827C70.8022 8.39789 70.8705 8.22767 70.9639 7.89426L71.1661 8.10217C71.0082 8.52167 70.8606 8.72489 70.7176 8.70815ZM70.9841 5.96654C71.0932 6.11825 71.1742 6.25158 71.2339 6.36126L71.0212 6.4753C70.9629 6.35371 70.8792 6.21706 70.7761 6.06604L70.9841 5.96654ZM69.0193 5.77285C69.1869 5.94047 69.3248 6.10461 69.4325 6.26824L69.2158 6.44223C69.1189 6.28893 68.9785 6.12147 68.7999 5.94351L69.0193 5.77285ZM68.5159 6.58987L69.1863 6.66833L69.0426 7.89596C69.1192 7.83544 69.1994 7.76932 69.2837 7.69461L69.3233 8.00129C69.1355 8.16054 68.9412 8.29789 68.7375 8.41299L68.6598 8.14716C68.7124 8.11103 68.7448 8.06649 68.7514 8.00988L68.8804 6.9074L68.4841 6.86102L68.5159 6.58987Z" fill="white"/>
<path d="M72.6556 6.2013L72.9354 6.23625L72.9027 6.49821L74.0368 6.63988L74.0038 6.90483L72.8696 6.76316L72.8302 7.0787L73.7768 7.19695L73.6507 8.20611L71.6205 7.95251L71.7466 6.94335L72.5503 7.04375L72.6556 6.2013ZM73.4007 7.90882L73.4609 7.42656L71.9933 7.24325L71.9331 7.7255L73.4007 7.90882ZM71.6023 8.05001L71.823 8.19548C71.6838 8.4381 71.5283 8.6424 71.3624 8.80912L71.1514 8.61044C71.3154 8.4586 71.4658 8.27179 71.6023 8.05001ZM72.2989 8.23376C72.3346 8.43172 72.3622 8.64679 72.3819 8.87601L72.088 8.9058C72.082 8.66319 72.0608 8.44588 72.0269 8.25723L72.2989 8.23376ZM72.9229 8.27241C72.984 8.48562 73.0312 8.71222 73.0674 8.95558L72.7793 8.98611C72.754 8.72899 72.7105 8.4968 72.6513 8.2929L72.9229 8.27241ZM73.5265 8.28128C73.6835 8.54881 73.8 8.77802 73.8785 8.97225L73.6229 9.1066C73.5433 8.89711 73.4309 8.65935 73.282 8.39889L73.5265 8.28128Z" fill="white"/>
<path d="M75.6676 7.05602L74.6713 6.92373L74.7073 6.65311L76.9883 6.95599L76.9523 7.22661L75.9531 7.09393L75.713 8.90206L76.8996 9.05962L76.8633 9.33322L74.2016 8.97979L74.2379 8.70619L75.4275 8.86415L75.6676 7.05602Z" fill="white"/>
<path d="M78.9762 7.70423C78.7994 7.97021 78.6103 8.19506 78.4117 8.37921L78.244 8.1072C78.5311 7.8537 78.798 7.48528 79.0413 7.00447L79.3177 7.10695C79.2586 7.22588 79.1973 7.33845 79.1369 7.44507L80.3608 7.61716L80.322 7.89344L79.3683 7.75936L79.3086 8.18418L80.1434 8.30156L80.105 8.57487L79.2702 8.4575L79.2088 8.8942L80.0495 9.01241L80.0115 9.28275L79.1708 9.16454L79.0764 9.83594L78.7912 9.79584L79.0832 7.71926L78.9762 7.70423ZM77.8942 8.05197C77.7969 8.14128 77.6906 8.22934 77.5817 8.31401L77.5293 7.99762C77.8824 7.70495 78.1634 7.34455 78.3716 6.9194L78.6214 7.08177C78.5124 7.29668 78.3843 7.4968 78.2371 7.6821L77.9564 9.67847L77.6712 9.63837L77.8942 8.05197Z" fill="white"/>
<path d="M82.1297 8.55057L82.0958 8.77907L81.6869 8.75482L81.6561 8.96255L81.395 8.92382L81.4227 8.73686C81.234 8.72101 81.0389 8.70724 80.8354 8.68918L80.8388 8.441C81.0567 8.46422 81.2628 8.48569 81.4575 8.50243L81.4856 8.3125L80.9663 8.23548L80.9409 7.99818C81.0206 7.93115 81.0999 7.84587 81.1819 7.74278L80.903 7.70141L80.94 7.45214L81.3376 7.51112C81.3702 7.45529 81.3997 7.39902 81.4323 7.34319L81.7046 7.42907C81.6802 7.47094 81.6588 7.51326 81.6344 7.55513L82.3199 7.6568L82.2829 7.90607L81.4817 7.78724C81.4133 7.88021 81.3398 7.96637 81.2677 8.04363L81.52 8.08104L81.5459 7.90595L81.8071 7.94468L81.7811 8.11977L82.2144 8.18403L82.1801 8.41549L81.7468 8.35124L81.7213 8.52335C81.8655 8.53261 82.0003 8.54351 82.1297 8.55057ZM82.598 8.48052C82.5268 8.71561 82.4124 8.91398 82.2605 9.07948L82.095 8.84567C82.2469 8.68017 82.3478 8.4707 82.3911 8.21934L82.4637 7.72969C82.8548 7.7513 83.1553 7.72914 83.3648 7.6662L83.518 7.90121C83.2873 7.96404 83.0101 7.99269 82.6902 7.98164L82.6524 8.23685L83.51 8.36405L83.4735 8.61035L83.1886 8.5681L83.0979 9.17942L82.8279 9.13936L82.9185 8.52805L82.598 8.48052ZM83.0704 9.24206L82.9005 10.3875L82.6157 10.3453L82.6311 10.2414L81.1888 10.0275L81.1734 10.1314L80.8885 10.0891L81.0584 8.94366L83.0704 9.24206ZM81.2245 9.78715L82.6667 10.001L82.6927 9.82596L81.2504 9.61206L81.2245 9.78715ZM81.2835 9.3895L82.7257 9.60339L82.7508 9.43424L81.3085 9.22035L81.2835 9.3895Z" fill="white"/>
<path d="M85.0284 8.14183L86.4637 8.43026L86.4088 8.70379L84.9735 8.41536L85.0284 8.14183ZM84.8071 8.86235L86.4425 9.19097L86.3875 9.4645L85.9287 9.3723L85.6781 10.6194C85.6402 10.8076 85.5154 10.8804 85.3066 10.8385L84.8801 10.7528L84.8733 10.4668C85.0063 10.5058 85.1374 10.5383 85.261 10.5631C85.3463 10.5802 85.3969 10.5567 85.4093 10.495L85.6463 9.31556L84.7522 9.13588L84.8071 8.86235ZM84.5574 7.89723L84.7896 8.0663C84.5658 8.35791 84.2432 8.59296 83.8147 8.77613L83.7855 8.47957C84.1116 8.33396 84.3677 8.14063 84.5574 7.89723ZM84.5603 8.59854L84.7896 8.76702C84.6783 8.90989 84.5481 9.03979 84.3991 9.15674L84.1072 10.6097L83.8336 10.5547L84.0706 9.3753C83.9464 9.4452 83.8169 9.51098 83.6763 9.57145L83.6495 9.27843C84.0321 9.11051 84.3376 8.88428 84.5603 8.59854Z" fill="white"/>
<path d="M86.8588 9.44942L87.0803 9.60513C86.8998 9.92866 86.71 10.1635 86.5072 10.3118L86.3442 10.0808C86.5397 9.93685 86.7108 9.72835 86.8588 9.44942ZM87.7137 8.56118L87.9936 8.62919L87.8618 9.17141L88.783 9.39527C88.7276 9.59791 88.6787 9.78669 88.6303 9.96018L88.8454 9.91365C88.9157 10.2086 88.9768 10.5291 89.0249 10.8773L88.7415 10.9381C88.706 10.6269 88.6561 10.3369 88.5961 10.0754C88.5321 10.2883 88.4737 10.4778 88.4223 10.6382C88.3167 10.946 88.2133 11.1555 88.115 11.2675C88.0182 11.3736 87.8948 11.4115 87.7433 11.3871L87.4022 11.3042L87.3916 11.0176C87.4893 11.0475 87.5819 11.0731 87.6693 11.0943C87.8122 11.129 87.9325 11.0533 88.0288 10.8729C88.125 10.6802 88.2597 10.2529 88.4351 9.59475L87.785 9.43677C87.6432 9.8932 87.4695 10.2523 87.2639 10.5142C87.035 10.7951 86.7248 10.979 86.3354 11.0697L86.2426 10.7909C86.6196 10.688 86.9037 10.51 87.0941 10.2599C87.2548 10.0304 87.3919 9.73332 87.5052 9.36876L86.8113 9.20016L86.8765 8.93197L87.582 9.1034L87.7137 8.56118Z" fill="white"/>
<path d="M91.3063 9.48872L91.5838 9.56575L91.4626 10.0022L92.1824 10.2021L92.1086 10.468L91.3888 10.2682L91.2564 10.7452L92.0542 10.9666L91.9804 11.2326L91.0409 10.9718C90.7686 11.3134 90.5446 11.5594 90.3661 11.7091C90.6937 11.7627 91.0232 11.7982 91.3531 11.8212C91.3212 11.6443 91.2833 11.4781 91.2422 11.3234L91.5322 11.3105C91.6225 11.6469 91.6877 11.9951 91.7234 12.3599L91.4312 12.4033C91.4209 12.2946 91.4098 12.1888 91.3963 12.0916C90.9423 12.0559 90.4556 11.9924 89.9352 11.904L89.9383 11.6464C89.9638 11.6442 89.9864 11.6411 90.0033 11.6364C90.1618 11.559 90.4084 11.3099 90.7432 10.8891L90.1043 10.7118L90.1782 10.4458L90.9789 10.6681L91.1113 10.1912L90.4493 10.0074L90.5231 9.74144L91.1851 9.92521L91.3063 9.48872ZM90.0453 9.16356C90.1902 9.35946 90.307 9.54443 90.3977 9.72219L90.1458 9.86708C90.0737 9.70072 89.9548 9.51205 89.7929 9.29898L90.0453 9.16356ZM89.7853 9.81992C89.9157 10.0118 90.0201 10.1965 90.1014 10.3747L89.8474 10.5159C89.7839 10.3519 89.6803 10.1644 89.5357 9.95614L89.7853 9.81992ZM89.8394 10.7129L90.0599 10.8831C89.8353 11.2099 89.6018 11.5125 89.3624 11.7917L89.1215 11.594C89.3799 11.3139 89.6204 11.0195 89.8394 10.7129Z" fill="white"/>
<path d="M92.9375 9.92339L93.1248 11.4444L92.1237 12.6046L91.9254 12.4316L92.8492 11.3607L92.6765 9.95703L92.9375 9.92339Z" fill="white"/>
<path d="M98.0336 11.7327L97.276 14.0763L97.0134 13.9914L97.0808 13.783L96.4613 13.5828L96.3829 13.8254L96.1231 13.7414L96.8918 11.3636L98.0336 11.7327ZM96.5444 13.3259L97.1638 13.5261L97.6888 11.9018L97.0694 11.7016L96.5444 13.3259ZM95.4076 11.5365L95.8843 11.6906L95.9951 11.348C95.8573 11.3256 95.7185 11.2965 95.5835 11.2655L95.5763 10.9951C96.027 11.103 96.404 11.146 96.7084 11.1309L96.764 11.398C96.6018 11.4023 96.4386 11.4 96.2734 11.3844L96.147 11.7755L96.6123 11.9259L96.5301 12.1799L96.0648 12.0295L96.0279 12.1437C96.1426 12.3353 96.2545 12.5449 96.3638 12.7725L96.1283 12.9549C96.0589 12.7307 95.9975 12.55 95.943 12.4063L95.5509 13.6195L95.2883 13.5346L95.662 12.3785C95.4703 12.5814 95.2508 12.7532 95.0092 12.8958L94.9881 12.5611C95.3132 12.414 95.5836 12.2113 95.7976 11.9589L95.8022 11.9446L95.3255 11.7906L95.4076 11.5365Z" fill="white"/>
<path d="M100.658 12.4007L100.851 12.5795L99.8952 13.6223L100.026 15.0306L99.7641 15.0564L99.6222 13.5305L100.658 12.4007Z" fill="white"/>
<path d="M102.371 13.5205L101.421 13.1929L101.51 12.9348L103.685 13.6849L103.596 13.9429L102.643 13.6144L102.048 15.3387L103.18 15.7289L103.09 15.9898L100.552 15.1146L100.642 14.8537L101.776 15.2448L102.371 13.5205Z" fill="white"/>
<path d="M104.986 13.9409L105.255 14.0348L104.478 16.2613L104.818 16.3798L105.595 14.1533L105.864 14.2471L105.087 16.4737L105.915 16.7621L105.823 17.0255L103.296 16.1445L103.388 15.881L104.209 16.1675L104.986 13.9409ZM106.21 14.9587L106.424 15.1097C106.146 15.5594 105.859 15.9359 105.562 16.242L105.351 16.0731C105.624 15.7998 105.913 15.4271 106.21 14.9587ZM104.268 14.2755C104.281 14.7054 104.257 15.1833 104.2 15.71L103.932 15.6864C103.991 15.2081 104.016 14.7341 104.013 14.2691L104.268 14.2755Z" fill="white"/>
<path d="M107.437 14.8188C107.571 15.018 107.672 15.2092 107.749 15.3886L107.5 15.5113C107.439 15.3406 107.335 15.1456 107.191 14.9301L107.437 14.8188ZM106.792 15.4995L107.427 15.7209L107.009 16.919C107.122 16.876 107.245 16.8237 107.381 16.763L107.356 17.0719C107.112 17.1776 106.864 17.2623 106.61 17.3233L106.593 17.0441C106.653 17.0203 106.696 16.9782 106.717 16.9187L107.076 15.8877L106.703 15.7572L106.792 15.4995ZM107.686 16.1894L109.06 16.6689L108.974 16.9153C108.804 17.1387 108.593 17.3066 108.34 17.4216C108.479 17.6038 108.663 17.7886 108.886 17.9682L108.66 18.15C108.417 17.9379 108.227 17.7255 108.084 17.5167C107.808 17.5982 107.488 17.6298 107.132 17.6134L107.061 17.3344C107.392 17.3514 107.682 17.3289 107.934 17.2641C107.806 17.0099 107.745 16.7567 107.757 16.5064L107.595 16.45L107.686 16.1894ZM108.009 16.5944C108.013 16.7899 108.07 16.9842 108.179 17.1812C108.38 17.0958 108.553 16.9815 108.697 16.8346L108.009 16.5944ZM108.266 15.1653L109.269 15.5153L109.061 16.1101C109.039 16.1724 109.061 16.2183 109.132 16.243L109.381 16.33L109.295 16.5764L108.975 16.4647C108.774 16.3945 108.709 16.2636 108.774 16.0766L108.914 15.6744L108.444 15.5103L108.415 15.5953C108.312 15.8899 108.082 16.0669 107.728 16.1246L107.621 15.8555C107.897 15.8309 108.071 15.7233 108.138 15.5307L108.266 15.1653Z" fill="white"/>
<path d="M110.412 16.7357L111.155 16.993L111.443 16.1625L111.721 16.2587L111.433 17.0893L112.136 17.3329L112.044 17.5993L111.341 17.3557L110.811 18.8836L110.533 18.7874L111.063 17.2595L110.32 17.0022L110.412 16.7357ZM110.175 15.7519C110.312 15.9546 110.419 16.1476 110.498 16.3335L110.249 16.4567C110.181 16.2842 110.075 16.0885 109.924 15.8713L110.175 15.7519ZM109.516 16.4443L110.171 16.6712L109.753 17.8788C109.869 17.8365 109.992 17.7839 110.124 17.7247L110.099 18.0242C109.859 18.1314 109.61 18.2167 109.357 18.2783L109.339 18.002C109.401 17.979 109.443 17.9396 109.462 17.8829L109.824 16.8398L109.427 16.7023L109.516 16.4443Z" fill="white"/>
<path d="M112.673 16.7L113.817 17.0907L113.732 17.3406L113.595 17.294L113.088 18.7788C113.151 18.7812 113.215 18.7807 113.277 18.7831L113.188 19.0443C113.125 19.0419 113.064 19.0367 113.001 19.0343L112.818 19.5709L112.557 19.4817L112.716 19.0161C112.469 18.9954 112.213 18.965 111.951 18.9261L111.974 18.6455L112.174 18.682L112.747 17.0041L112.588 16.9499L112.673 16.7ZM112.445 18.7238C112.563 18.7389 112.683 18.7512 112.803 18.7606L112.926 18.4001L112.594 18.2866L112.445 18.7238ZM112.677 18.0425L113.009 18.1559L113.129 17.8067L112.797 17.6933L112.677 18.0425ZM112.88 17.4491L113.212 17.5625L113.334 17.2048L113.002 17.0914L112.88 17.4491ZM113.908 17.1758L115.141 17.5966L114.667 18.9849L113.434 18.5641L113.908 17.1758ZM114.489 18.642L114.789 17.7619L114.085 17.5215L113.785 18.4016L114.489 18.642ZM113.647 18.7858L113.84 18.9817C113.606 19.2693 113.365 19.5009 113.119 19.6832L112.95 19.4448C113.19 19.2795 113.421 19.0573 113.647 18.7858ZM114.337 19.0119C114.424 19.3872 114.48 19.7074 114.507 19.9732L114.228 20.0556C114.209 19.767 114.159 19.4394 114.082 19.0707L114.337 19.0119Z" fill="white"/>
<path d="M116.175 17.8091L116.446 17.8996L115.697 20.1355L116.038 20.2498L116.787 18.0139L117.057 18.1044L116.309 20.3403L117.139 20.6185L117.051 20.8831L114.513 20.0333L114.602 19.7687L115.427 20.045L116.175 17.8091ZM117.412 18.8116L117.628 18.9599C117.356 19.413 117.074 19.7931 116.78 20.1029L116.567 19.9366C116.837 19.6599 117.121 19.2837 117.412 18.8116ZM115.463 18.1524C115.48 18.5822 115.462 19.0603 115.412 19.5877L115.144 19.5674C115.197 19.0884 115.216 18.6141 115.207 18.1492L115.463 18.1524Z" fill="white"/>
<path d="M118.323 18.5465C118.477 18.6565 118.615 18.7743 118.732 18.9007L118.514 19.0728C118.394 18.9293 118.263 18.8077 118.123 18.7052L118.323 18.5465ZM119.213 18.7801L119.467 18.901C119.431 18.9524 119.394 18.9972 119.355 19.0411L120.473 19.4062L120.42 19.5688C120.344 19.6954 120.255 19.8212 120.159 19.9413L119.925 19.7795C119.993 19.7165 120.059 19.6402 120.119 19.5526L119.702 19.4166C119.672 19.4699 119.641 19.5166 119.607 19.5623C119.692 19.8142 119.932 20.047 120.329 20.2619L120.155 20.4669C119.78 20.2529 119.537 20.0096 119.426 19.7399C119.385 19.7705 119.345 19.7954 119.303 19.8194C119.125 19.9096 118.859 19.9397 118.508 19.9134L118.488 19.6384C118.774 19.6689 118.993 19.6552 119.147 19.5917C119.265 19.5388 119.366 19.4518 119.446 19.3328L119.135 19.2312C119.028 19.3068 118.907 19.3683 118.778 19.4146L118.688 19.1514C118.91 19.0789 119.087 18.9536 119.213 18.7801ZM119.931 20.4256L119.653 21.2782L119.379 21.1888L119.576 20.5871L118.25 20.154L118.044 20.7842L117.773 20.6958L118.061 19.8146L119.931 20.4256ZM118.775 20.4108L119.038 20.5221C118.879 20.874 118.712 21.0876 118.542 21.1617C118.35 21.2662 117.982 21.2533 117.434 21.1247L117.409 20.845C117.864 20.9684 118.18 20.9959 118.361 20.9256C118.523 20.8525 118.661 20.6828 118.775 20.4108ZM118.508 19.2094L118.607 19.447C118.417 19.5458 118.196 19.6221 117.944 19.6787L117.832 19.4118C118.088 19.3628 118.315 19.2979 118.508 19.2094ZM118.935 21.0217C119.273 21.2331 119.573 21.4542 119.836 21.6851L119.614 21.8619C119.338 21.6046 119.045 21.3796 118.731 21.1823L118.935 21.0217Z" fill="white"/>
<path d="M121.318 20.8405L120.877 22.2304L120.611 22.1461L121.03 20.8248C120.872 21.0359 120.7 21.2207 120.517 21.3799L120.494 21.0482C120.762 20.8564 120.994 20.6119 121.186 20.314L120.834 20.2025L120.916 19.9423L121.274 20.0555L121.443 19.5207L121.709 19.605L121.54 20.1398L121.829 20.2313L121.746 20.4916L121.457 20.4L121.417 20.5287C121.491 20.6908 121.56 20.8606 121.627 21.0455C121.885 21.0265 122.118 20.987 122.326 20.9269C122.254 20.7971 122.197 20.6689 122.156 20.5395C122.068 20.5968 121.977 20.6465 121.887 20.6934L121.781 20.4303C122.032 20.3146 122.275 20.1241 122.512 19.853L122.753 19.9955C122.704 20.0493 122.659 20.1041 122.612 20.1522L123.387 20.3978L123.321 20.6066C123.155 20.7931 122.956 20.9441 122.721 21.0586C122.869 21.2376 123.055 21.4066 123.274 21.5703L123.069 21.7887C122.824 21.5789 122.626 21.3712 122.475 21.16C122.256 21.2354 122.011 21.2836 121.746 21.3066L122.956 21.6898L122.609 22.7852L122.346 22.7018L122.38 22.5931L121.674 22.3693L121.639 22.478L121.373 22.3938L121.717 21.3098C121.665 21.3125 121.614 21.3152 121.566 21.3187L121.517 21.1838L121.42 21.263C121.382 21.0938 121.348 20.9539 121.318 20.8405ZM121.753 22.1177L122.46 22.3415L122.613 21.8581L121.906 21.6343L121.753 22.1177ZM122.558 20.84C122.73 20.7624 122.879 20.671 123.005 20.56L122.385 20.3634C122.372 20.3721 122.359 20.3837 122.35 20.3933C122.393 20.5455 122.463 20.6934 122.558 20.84Z" fill="white"/>
<path d="M124.532 20.4666L124.787 20.5455C124.606 20.7031 124.453 20.8725 124.328 21.0536C124.166 21.2734 124.048 21.5103 123.971 21.7597C123.895 22.0061 123.858 22.2679 123.867 22.5438C123.868 22.7611 123.899 22.9872 123.958 23.2222L123.703 23.1433C123.627 22.9124 123.584 22.6856 123.574 22.4628C123.561 22.1917 123.595 21.9291 123.675 21.6712C123.756 21.4104 123.877 21.1715 124.04 20.9582C124.176 20.7741 124.339 20.6111 124.532 20.4666Z" fill="white"/>
<path d="M124.522 21.4192L125.329 21.6635C125.382 21.5728 125.436 21.4859 125.489 21.3952L124.805 21.1883L124.883 20.9328L125.624 21.157C125.68 21.0549 125.734 20.949 125.79 20.8468L126.064 20.955C126.012 21.0551 125.96 21.1524 125.914 21.2448L127.114 21.6082L127.036 21.8637L125.782 21.4839C125.728 21.5774 125.676 21.6681 125.625 21.753L127.118 22.205L127.039 22.4663L125.474 21.9926C125.405 22.097 125.341 22.1937 125.276 22.2837L126.606 22.6862L126.534 22.9216C126.343 23.0769 126.08 23.2104 125.745 23.3251C125.882 23.4295 126.013 23.535 126.138 23.6416L125.917 23.8318C125.55 23.5013 125.16 23.2075 124.746 22.9571L124.954 22.7881C125.14 22.9006 125.315 23.0134 125.48 23.1322C125.771 23.051 126.01 22.9542 126.2 22.836L124.81 22.4153C124.935 22.2524 125.055 22.082 125.175 21.9022L124.443 21.6805L124.522 21.4192Z" fill="white"/>
<path d="M128.466 21.7015L128.74 21.7812L128.08 24.0451L128.426 24.1457L129.085 21.8818L129.359 21.9615L128.699 24.2255L129.54 24.4704L129.462 24.7383L126.893 23.9899L126.971 23.722L127.806 23.9654L128.466 21.7015ZM129.741 22.6542L129.963 22.7938C129.709 23.2573 129.442 23.6482 129.161 23.9695L128.942 23.8117C129.2 23.5246 129.469 23.1374 129.741 22.6542ZM127.767 22.0729C127.802 22.5016 127.803 22.98 127.774 23.509L127.505 23.4994C127.539 23.0187 127.539 22.5439 127.512 22.0798L127.767 22.0729Z" fill="white"/>
<path d="M130.211 25.0298L129.965 24.9613L129.979 24.688C130.051 24.7205 130.119 24.7456 130.185 24.7642C130.255 24.7835 130.301 24.7528 130.322 24.6747L130.493 24.0621C130.378 24.0736 130.26 24.0842 130.146 24.0898L130.152 23.7989C130.291 23.8063 130.428 23.8042 130.568 23.7934L130.742 23.1693L130.416 23.0781L130.489 22.8152L130.816 22.9063L130.957 22.4006L131.223 22.4748L131.082 22.9805L131.365 23.0595L131.291 23.3224L131.008 23.2434L130.865 23.7578C130.976 23.739 131.085 23.7164 131.195 23.691L131.12 23.9598C131.01 23.9852 130.902 24.0048 130.791 24.0236L130.569 24.8183C130.516 25.009 130.396 25.0814 130.211 25.0298ZM131.477 22.9694L132.153 23.158L132.261 22.7708L132.527 22.845L132.419 23.2322L133.095 23.4209L133.022 23.6838L132.346 23.4952L132.231 23.9084L132.797 24.0664L132.729 24.3091C132.553 24.5839 132.327 24.8012 132.047 24.9566C132.189 25.1396 132.376 25.3193 132.605 25.4922L132.4 25.6781C132.157 25.4793 131.961 25.2753 131.812 25.0718C131.545 25.181 131.241 25.2456 130.898 25.2683L130.832 25.0037C131.146 24.9919 131.425 24.942 131.666 24.8473C131.504 24.559 131.424 24.2657 131.425 23.9608L131.275 23.9188L131.346 23.6617L131.965 23.8342L132.08 23.421L131.404 23.2323L131.477 22.9694ZM131.682 24.0325C131.688 24.2773 131.76 24.5121 131.899 24.7408C132.12 24.6158 132.306 24.4527 132.456 24.2486L131.682 24.0325Z" fill="white"/>
<path d="M133.139 23.7209L134.24 24.0153L134.419 23.3458L134.692 23.4186L134.513 24.0881L135.617 24.3832L135.546 24.6469L134.694 24.4192C134.759 24.9209 134.964 25.4074 135.31 25.8788L135.063 26.0611C134.698 25.5101 134.489 24.9449 134.438 24.3663L133.977 26.0937L133.704 26.0209L134.164 24.2993C133.798 24.8224 133.319 25.2069 132.73 25.4499L132.645 25.1633C133.163 24.9664 133.59 24.6488 133.918 24.2116L133.068 23.9847L133.139 23.7209ZM135.163 23.5477C135.282 23.7658 135.369 23.9506 135.425 24.1021L135.163 24.1998C135.109 24.0301 135.023 23.8395 134.913 23.6237L135.163 23.5477Z" fill="white"/>
<path d="M138.019 24.2975C137.954 24.5534 137.891 24.7664 137.833 24.9437C137.806 25.76 138.075 26.4565 138.634 27.0318L138.39 27.2267C137.926 26.7129 137.663 26.1138 137.6 25.4355C137.255 25.9916 136.727 26.39 136.016 26.6305L135.91 26.3406C136.816 26.0629 137.386 25.5111 137.621 24.6825C137.67 24.4877 137.712 24.3372 137.74 24.2267L138.019 24.2975Z" fill="white"/>
<path d="M141.578 26.2708L141.311 27.3762L141.037 27.3101L141.242 26.4585L139.781 26.1064L139.565 27.0018L139.291 26.9357L139.568 25.7866L141.578 26.2708ZM139.971 24.8715L141.636 25.2727L141.448 26.0514L139.783 25.6502L139.971 24.8715ZM141.238 25.7476L141.309 25.4531L140.18 25.1811L140.109 25.4757L141.238 25.7476ZM140.36 26.4064L140.634 26.5001C140.487 26.9277 140.327 27.1976 140.152 27.3097C139.962 27.4554 139.578 27.4892 139.002 27.4061L138.955 27.1263C139.43 27.2162 139.764 27.2038 139.952 27.0887C140.117 26.9774 140.252 26.7507 140.36 26.4064ZM140.545 27.1484C140.9 27.3418 141.215 27.5473 141.495 27.7661L141.288 27.9599C140.995 27.7136 140.686 27.5001 140.358 27.3225L140.545 27.1484Z" fill="white"/>
<path d="M142.117 25.2714L142.377 25.332C142.467 25.5533 142.526 25.7765 142.553 26.0045C142.583 26.2704 142.57 26.5384 142.508 26.8043C142.447 27.0672 142.341 27.3105 142.195 27.5384C142.071 27.7252 141.92 27.8994 141.741 28.0609L141.481 28.0003C141.647 27.8266 141.788 27.6468 141.902 27.4609C142.046 27.2264 142.149 26.9825 142.208 26.7312C142.267 26.477 142.282 26.2126 142.256 25.9416C142.237 25.7214 142.19 25.498 142.117 25.2714Z" fill="white"/>
<path d="M143.08 25.807L143.841 25.9783L143.904 25.7003L144.179 25.7622L144.116 26.0403L144.766 26.1865L144.734 26.33C144.872 26.2379 145.001 26.141 145.122 26.0392L145.292 26.2404C145.093 26.4139 144.878 26.5653 144.649 26.6951L145.284 26.8381L145.224 27.1015L144.267 26.8861C144.128 26.9439 143.987 26.9982 143.844 27.046L145.009 27.3082L144.953 27.557L143.498 27.2295L143.362 27.454L144.758 27.7683C144.641 28.191 144.537 28.4321 144.449 28.4983C144.361 28.5585 144.212 28.5679 144.001 28.5205C143.863 28.4895 143.742 28.453 143.64 28.4176L143.604 28.1543C143.75 28.1996 143.88 28.238 143.997 28.2644C144.14 28.2966 144.236 28.2937 144.284 28.2612C144.324 28.221 144.372 28.1151 144.428 27.9493L142.979 27.6231L143.205 27.2066C142.98 27.2482 142.749 27.2792 142.508 27.2957L142.453 27.0219C142.94 26.9901 143.383 26.9083 143.787 26.778L142.69 26.5309L142.749 26.2675L143.727 26.4876L143.784 26.233L143.023 26.0616L143.08 25.807ZM144.236 26.6022C144.36 26.544 144.481 26.4822 144.595 26.4155L144.059 26.2949L144.002 26.5495L144.236 26.6022Z" fill="white"/>
<path d="M147.022 27.8907L146.77 27.8373L146.825 27.5761L147.603 27.7407L147.547 28.0019L147.295 27.9485L147.142 28.6705C147.265 28.6689 147.389 28.6644 147.51 28.6563L147.455 28.9176C147.185 28.934 146.899 28.9378 146.597 28.9262L146.586 28.6449C146.677 28.6517 146.768 28.6586 146.859 28.6626L147.022 27.8907ZM147.902 29.3833C147.796 29.3609 147.716 29.2611 147.666 29.0911C147.612 28.8864 147.596 28.6285 147.618 28.3204C147.637 28.0547 147.68 27.7357 147.748 27.3575L146.841 27.1656L146.898 26.8955L147.799 27.0862C147.828 26.9206 147.865 26.7475 147.902 26.5714L148.172 26.6285C148.134 26.8105 148.098 26.9807 148.07 27.1434L148.63 27.262L148.573 27.532L148.018 27.4146C147.935 27.8662 147.888 28.2334 147.872 28.5121C147.86 28.8591 147.891 29.0466 147.967 29.078C148.015 29.0821 148.099 28.9189 148.222 28.5954L148.404 28.8211C148.209 29.2243 148.043 29.4131 147.902 29.3833ZM148.42 26.6777C148.514 26.8388 148.583 26.9791 148.632 27.0938L148.41 27.1878C148.363 27.0613 148.292 26.9176 148.203 26.7577L148.42 26.6777ZM146.481 26.3043C146.632 26.4866 146.755 26.6627 146.847 26.8355L146.615 26.9889C146.533 26.8273 146.408 26.6476 146.247 26.454L146.481 26.3043ZM145.904 27.0715L146.565 27.2113L146.309 28.4205C146.391 28.3673 146.477 28.3088 146.567 28.2422L146.579 28.5512C146.377 28.6925 146.171 28.8114 145.958 28.9073L145.905 28.6355C145.96 28.6043 145.997 28.563 146.008 28.5072L146.238 27.4212L145.848 27.3386L145.904 27.0715Z" fill="white"/>
<path d="M149.846 29.2019C149.557 29.4074 149.136 29.5254 148.586 29.5563L148.48 29.2875C149.056 29.2524 149.466 29.1445 149.708 28.9601L149.771 28.9024L148.63 28.675L148.683 28.4102L149.968 28.6664C150.074 28.5039 150.154 28.315 150.21 28.0996L150.281 27.7407L150.552 27.7946L150.48 28.1536C150.428 28.3695 150.356 28.5602 150.262 28.725L151.186 28.9091L151.134 29.1739L150.095 28.9669C150.076 28.9875 150.056 29.0081 150.04 29.0293C150.414 29.2691 150.75 29.5319 151.049 29.8117L150.848 30.0225C150.533 29.7026 150.198 29.4311 149.846 29.2019ZM149.215 27.935C149.407 28.0619 149.577 28.203 149.727 28.3582L149.539 28.5502C149.384 28.3755 149.214 28.2315 149.035 28.1163L149.215 27.935ZM149.585 27.5805C149.778 27.7046 149.948 27.8456 150.095 28.0003L149.907 28.1922C149.751 28.0205 149.585 27.8741 149.406 27.7589L149.585 27.5805ZM151.427 27.5651L151.306 28.1683L151.036 28.1143L151.105 27.7672L149.187 27.3849L149.117 27.7321L148.847 27.6781L148.967 27.075L150.07 27.2949C150.054 27.206 150.037 27.1231 150.016 27.0454L150.311 27.0552C150.33 27.1446 150.344 27.2423 150.353 27.3511L151.427 27.5651Z" fill="white"/>
<path d="M151.809 27.7785L152.237 27.8584C152.211 27.7193 152.18 27.5884 152.142 27.4683L152.437 27.4716C152.465 27.6019 152.49 27.7469 152.508 27.9091L152.856 27.974L152.805 28.2453L152.23 28.138L152.166 28.483L152.688 28.5805C152.545 29.3472 152.441 29.8193 152.384 29.9947C152.322 30.1662 152.175 30.2334 151.939 30.1893C151.915 30.1849 151.875 30.1713 151.82 30.1549L151.805 29.8927C151.856 29.9114 151.902 29.9262 151.944 29.9339C152.047 29.9531 152.118 29.9146 152.158 29.8182C152.191 29.7207 152.264 29.3773 152.38 28.7915L152.114 28.742C151.975 29.3904 151.776 29.8507 151.518 30.1229L151.343 29.9009C151.576 29.6455 151.755 29.1967 151.877 28.5602L151.965 28.0884L151.758 28.0498L151.809 27.7785ZM153.249 28.2244C153.112 28.4185 152.969 28.581 152.818 28.7147L152.676 28.4623C152.891 28.2766 153.095 28.0004 153.291 27.6372L153.543 27.7452C153.497 27.8282 153.452 27.9052 153.407 27.9823L154.424 28.1723L154.375 28.4348L153.249 28.2244ZM154.211 28.7428C154.106 29.3061 154.027 29.6454 153.982 29.759C153.933 29.872 153.812 29.9135 153.618 29.8772L153.603 29.8744L153.576 29.6253C153.626 29.6347 153.67 29.6459 153.708 29.653C153.741 29.6591 153.767 29.6335 153.783 29.5785C153.799 29.5295 153.838 29.3507 153.895 29.044L153.656 29.0818L153.477 30.0432L153.217 29.9947L153.38 29.1247L153.138 29.1619L152.994 29.9316C152.97 30.0614 153.001 30.1375 153.09 30.154L153.647 30.2581C153.709 30.2697 153.759 30.2637 153.794 30.2397C153.836 30.211 153.879 30.1122 153.923 29.9404L154.151 30.0622C154.077 30.3109 154.004 30.453 153.93 30.494C153.862 30.5272 153.77 30.5343 153.646 30.5111L152.964 30.3839C152.764 30.3465 152.688 30.195 152.737 29.9355L152.874 29.2042L152.65 29.2388L152.698 28.9852L152.921 28.9505L152.995 28.5554L153.242 28.6016L153.185 28.9083L153.428 28.8682L153.514 28.4052L153.774 28.4536L153.704 28.8252L154.211 28.7428Z" fill="white"/>
<path d="M155.073 29.0692L155.304 29.21C155.145 29.5447 154.971 29.7915 154.779 29.9529L154.601 29.7331C154.787 29.5766 154.944 29.3573 155.073 29.0692ZM155.867 28.1265L156.151 28.1759L156.055 28.7257L156.989 28.8883C156.947 29.0941 156.911 29.2857 156.874 29.462L157.086 29.4014C157.175 29.6911 157.257 30.0068 157.328 30.3511L157.05 30.4305C156.994 30.1223 156.925 29.8362 156.848 29.5792C156.798 29.7959 156.752 29.9889 156.711 30.1523C156.626 30.4664 156.537 30.6822 156.446 30.8005C156.357 30.9128 156.236 30.9587 156.083 30.9443L155.737 30.8841L155.708 30.5988C155.807 30.6222 155.901 30.6417 155.99 30.6571C156.135 30.6823 156.25 30.5988 156.334 30.4125C156.417 30.2138 156.524 29.7786 156.655 29.1103L155.996 28.9955C155.885 29.4603 155.735 29.8301 155.547 30.1049C155.337 30.4003 155.04 30.6044 154.657 30.7205L154.546 30.4484C154.916 30.3208 155.188 30.1245 155.361 29.8624C155.506 29.6228 155.623 29.3173 155.712 28.9461L155.009 28.8236L155.056 28.5517L155.772 28.6763L155.867 28.1265Z" fill="white"/>
<path d="M159.029 28.6591L159.314 28.7054L159.241 29.1525L159.978 29.2725L159.934 29.5449L159.196 29.4249L159.117 29.9135L159.934 30.0465L159.89 30.3189L158.927 30.1623C158.694 30.5316 158.498 30.8006 158.337 30.9689C158.669 30.9864 159 30.9856 159.331 30.9725C159.28 30.8001 159.224 30.6391 159.166 30.4898L159.453 30.4453C159.579 30.7699 159.682 31.1088 159.758 31.4676L159.472 31.5426C159.45 31.4357 159.427 31.3317 159.403 31.2366C158.948 31.2507 158.457 31.2407 157.93 31.2097L157.905 30.9533C157.93 30.9483 157.952 30.9427 157.969 30.9363C158.118 30.842 158.336 30.5674 158.622 30.1126L157.968 30.0061L158.012 29.7337L158.833 29.8672L158.912 29.3786L158.234 29.2682L158.278 28.9958L158.957 29.1062L159.029 28.6591ZM157.74 28.4736C157.906 28.6525 158.042 28.8236 158.152 28.9904L157.917 29.1619C157.827 29.0044 157.688 28.8299 157.504 28.6358L157.74 28.4736ZM157.554 29.1544C157.704 29.3309 157.828 29.5031 157.928 29.6714L157.691 29.8395C157.61 29.6834 157.487 29.5083 157.32 29.3171L157.554 29.1544ZM157.705 30.0362L157.943 30.1813C157.755 30.5307 157.556 30.8569 157.349 31.1606L157.088 30.9904C157.314 30.6838 157.521 30.3649 157.705 30.0362Z" fill="white"/>
<path d="M161.179 28.9748L161.585 30.4524L160.763 31.7458L160.542 31.6034L161.3 30.4097L160.926 29.046L161.179 28.9748Z" fill="white"/>
<path d="M164.651 30.0053L164.365 32.0735L164.094 32.0361L164.116 31.8816L163.646 31.8165L163.613 32.0572L163.342 32.0197L163.641 29.8653L163.923 29.9044C163.999 29.7514 164.063 29.5937 164.111 29.4246L164.388 29.5024C164.335 29.6617 164.27 29.8071 164.194 29.9419L164.651 30.0053ZM163.682 31.555L164.152 31.6201L164.233 31.0346L163.763 30.9696L163.682 31.555ZM163.798 30.717L164.268 30.7821L164.344 30.2353L163.874 30.1702L163.798 30.717ZM165.087 30.7926C165.25 31.0634 165.372 31.2954 165.45 31.4941L165.206 31.6207C165.12 31.4089 164.995 31.1706 164.839 30.9035L165.087 30.7926ZM166.184 30.2207C166.042 31.2459 165.94 31.8768 165.877 32.1104C165.817 32.3203 165.66 32.4075 165.407 32.3725C165.348 32.3643 165.242 32.3435 165.095 32.314L165.062 32.046C165.192 32.0701 165.304 32.0916 165.399 32.1048C165.518 32.1213 165.595 32.0683 165.63 31.946C165.668 31.7999 165.747 31.3019 165.87 30.4558L165.124 30.3525C165.016 30.5192 164.898 30.6695 164.765 30.8024L164.626 30.5561C164.862 30.298 165.047 29.9693 165.175 29.5691L165.449 29.6434C165.397 29.8057 165.334 29.9545 165.266 30.0935L166.184 30.2207Z" fill="white"/>
<path d="M166.804 29.8316C166.986 30.0151 167.136 30.1944 167.253 30.3665L167.029 30.5376C166.929 30.3736 166.782 30.1918 166.587 29.9915L166.804 29.8316ZM168.176 32.7157C168.013 32.6949 167.834 32.6692 167.644 32.642C167.451 32.6144 167.296 32.5765 167.175 32.5309C167.06 32.48 166.965 32.3954 166.889 32.2828C166.853 32.2269 166.821 32.1986 166.785 32.1941C166.722 32.1861 166.598 32.3064 166.412 32.555L166.229 32.3351C166.408 32.1129 166.561 31.9781 166.688 31.9338L166.795 31.0915L166.396 31.0408L166.43 30.779L167.093 30.8633L166.95 31.9883C166.964 32.0021 166.977 32.0188 166.989 32.0386C167.047 32.1276 167.111 32.1962 167.181 32.2444C167.265 32.2974 167.392 32.3408 167.567 32.3691C167.736 32.3936 167.935 32.4219 168.168 32.4514C168.313 32.47 168.463 32.4859 168.612 32.5019C168.761 32.5178 168.878 32.5266 168.959 32.5309L168.855 32.8019L168.176 32.7157ZM167.963 30.2783L167.389 30.2053L167.418 29.9702L169.052 30.1779L169.027 30.3773C168.835 30.5041 168.635 30.6057 168.425 30.6878C168.43 30.6945 168.436 30.6983 168.441 30.705L169.039 30.781L168.871 32.1024C168.849 32.278 168.739 32.3548 168.546 32.3302L168.317 32.3011L168.287 32.0584L168.497 32.0971C168.562 32.1055 168.602 32.0773 168.611 32.0118L168.63 31.86L168.201 31.8055L168.139 32.2936L167.88 32.2607L167.942 31.7726L167.523 31.7193L167.46 32.2133L167.192 32.1793L167.396 30.5722L168.081 30.6592C167.991 30.5813 167.89 30.4988 167.776 30.4178L167.963 30.2783ZM168.269 30.532C168.402 30.4854 168.527 30.4287 168.644 30.3649L167.978 30.2802C168.082 30.366 168.18 30.4481 168.269 30.532ZM167.578 31.2818L167.552 31.4901L167.971 31.5435L167.998 31.3352L167.578 31.2818ZM168.257 31.3681L168.23 31.5764L168.659 31.6309L168.685 31.4225L168.257 31.3681ZM168.715 31.1904L168.741 30.9821L168.313 30.9276L168.286 31.1359L168.715 31.1904ZM168.027 31.103L168.054 30.8947L167.634 30.8414L167.608 31.0497L168.027 31.103Z" fill="white"/>
<path d="M172.164 30.7487L171.895 33.0732L171.621 33.0415L171.641 32.8716L171.119 32.8113L171.099 32.9841L170.825 32.9524L171.094 30.6249L172.164 30.7487ZM171.15 32.546L171.671 32.6064L171.859 30.9822L171.338 30.9219L171.15 32.546ZM169.983 30.8558C169.898 30.9969 169.804 31.125 169.706 31.2405L169.477 31.054C169.7 30.7959 169.872 30.5108 169.99 30.1982L170.263 30.2902C170.22 30.4 170.172 30.5002 170.125 30.5974L170.939 30.6915L170.907 30.9627L170.502 30.9158C170.475 31.0999 170.446 31.2717 170.41 31.4276L170.874 31.4813L170.843 31.7525L170.339 31.6943C170.32 31.7585 170.297 31.8223 170.279 31.8805C170.439 32.0863 170.6 32.3133 170.765 32.5619L170.561 32.8041C170.407 32.5205 170.276 32.297 170.168 32.1335C170.006 32.4319 169.764 32.6727 169.435 32.8521L169.277 32.6042C169.613 32.4106 169.848 32.1539 169.985 31.8315C170.004 31.7763 170.026 31.7184 170.044 31.6602L169.457 31.5923L169.489 31.3211L170.117 31.3938C170.154 31.2379 170.183 31.0661 170.21 30.882L169.983 30.8558Z" fill="white"/>
<path d="M173.038 30.5273L173.511 31.9851L172.748 33.3142L172.52 33.1819L173.224 31.9552L172.788 30.6098L173.038 30.5273ZM173.548 30.5804L174.021 32.0383L173.258 33.3674L173.031 33.2351L173.734 32.0084L173.287 30.6617L173.548 30.5804Z" fill="white"/>
</svg>
