<svg width="127" height="15" viewBox="0 0 127 15" fill="none" xmlns="http://www.w3.org/2000/svg">
<path d="M2.85112 1.8094L3.07943 1.9612L2.27018 3.12705L2.59983 4.50237L2.34425 4.56517L1.98693 3.07495L2.85112 1.8094ZM3.35566 1.9022L3.57216 2.05183L2.77472 3.21985L3.10436 4.59517L2.84879 4.65797L2.49147 3.16775L3.35566 1.9022Z" fill="white"/>
<path d="M4.09936 3.40904L3.95943 4.19468C4.21108 4.18465 4.47909 4.16839 4.75858 4.13895L4.78665 4.40905C4.40549 4.44477 4.01809 4.46414 3.62688 4.47064L3.55621 4.21733C3.63393 4.19156 3.67937 4.14175 3.69252 4.06791L4.01183 2.27513C4.39154 2.28181 4.74192 2.26499 5.06349 2.22171L5.19777 2.47721C4.91965 2.51605 4.60524 2.53623 4.25401 2.54071L4.14723 3.14027L4.9624 3.28546L4.91453 3.55423L4.09936 3.40904ZM5.74853 4.75711L5.47089 4.70766L5.4425 4.42226L5.70431 4.47499C5.7811 4.48866 5.82739 4.4512 5.84212 4.3685L6.11461 2.83858L5.53277 2.73495L5.11929 5.05641L4.83576 5.00591L5.29657 2.41863L6.44549 2.62326L6.11513 4.47807C6.07568 4.69958 5.95232 4.79341 5.74853 4.75711Z" fill="white"/>
<path d="M6.91704 3.53777L7.29905 2.7146L7.5718 2.8102L7.32401 3.33074L7.76159 3.40597C7.85538 3.19684 7.93938 2.97385 8.01654 2.73751L8.29724 2.8223C8.2216 3.04977 8.13963 3.26093 8.05429 3.4563L9.40843 3.68912L9.36217 3.95817L7.93708 3.71315C7.89074 3.80564 7.84245 3.8917 7.79764 3.97531L8.98029 4.17865L8.93962 4.41518C8.82106 4.6444 8.63857 4.83829 8.38623 4.99581C8.58959 5.15862 8.84177 5.32069 9.13983 5.48152L8.9492 5.72271C8.61382 5.53111 8.33715 5.33438 8.12114 5.13896C7.85961 5.26141 7.5474 5.35994 7.18452 5.43452L7.08244 5.14301C7.3964 5.08741 7.671 5.01286 7.90278 4.92182C7.73703 4.73503 7.62062 4.54455 7.556 4.35384C7.26789 4.75482 6.93886 5.05745 6.57185 5.26222L6.47171 4.97713C6.94174 4.68657 7.33066 4.24813 7.63846 3.66181L6.91704 3.53777ZM7.78644 4.23518C7.85402 4.42639 7.97981 4.61544 8.16431 4.79936C8.3765 4.6806 8.54047 4.54137 8.65273 4.38412L7.78644 4.23518ZM8.79954 2.87517C8.97711 3.06399 9.12166 3.25018 9.23367 3.43077L8.99806 3.59725C8.90623 3.42317 8.76811 3.23505 8.57829 3.02891L8.79954 2.87517Z" fill="white"/>
<path d="M12.3859 3.46342L12.605 3.60915L11.8286 4.79127L12.1829 6.16046L11.9285 6.22784L11.5445 4.74426L12.3859 3.46342Z" fill="white"/>
<path d="M14.4656 3.77896C14.4974 3.88427 14.5274 4.00143 14.555 4.13341L15.6187 4.30255L15.5753 4.57512L13.4036 4.22978L13.3042 4.85493C13.1917 5.50532 13.0139 6.01169 12.7676 6.37653L12.564 6.12849C12.7699 5.82708 12.922 5.3865 13.0198 4.8097L13.1625 3.91198L14.2439 4.08394C14.2155 3.97614 14.1832 3.87379 14.1431 3.78235L14.4656 3.77896Z" fill="white"/>
<path d="M15.8416 4.37981L16.5711 4.49122C16.6392 4.38326 16.7052 4.26891 16.7717 4.1516L17.0439 4.25691C16.9865 4.35436 16.9326 4.44931 16.8766 4.53786L18.3534 4.7634L18.3118 5.03624L16.7074 4.79123C16.5443 5.02428 16.371 5.22542 16.1933 5.39554L16.8872 5.50152L16.9493 5.09523L17.231 5.13825L17.1689 5.54454L18.0853 5.68448L18.045 5.94842L17.1286 5.80848L16.9923 6.70113C16.962 6.89983 16.8428 6.98481 16.6352 6.95311L16.3268 6.906L16.3066 6.62069C16.3997 6.64705 16.4907 6.66702 16.5767 6.68015C16.6598 6.69283 16.7101 6.66107 16.721 6.5899L16.8469 5.76546L15.8564 5.61419L15.8296 5.35215C16.0229 5.19957 16.2149 4.99522 16.399 4.74413L15.7999 4.65264L15.8416 4.37981ZM16.2392 5.86991L16.4086 6.0718C16.179 6.30379 15.9064 6.49888 15.5973 6.655L15.4522 6.39309C15.7522 6.25682 16.0157 6.08159 16.2392 5.86991ZM17.5869 6.06662C17.8135 6.33186 18.0019 6.58825 18.1455 6.84081L17.9096 7.01419C17.7884 6.77415 17.6102 6.51022 17.3725 6.21899L17.5869 6.06662Z" fill="white"/>
<path d="M19.9407 4.64892L20.2168 4.68933L20.106 5.44626L19.8299 5.40586L19.9407 4.64892ZM19.0756 5.89881C18.9411 5.90641 18.8065 5.91401 18.6725 5.91864L18.594 5.64642C19.5114 5.63514 20.233 5.51034 20.7561 5.27158C20.6695 5.18006 20.5769 5.08768 20.4783 4.99443L20.6948 4.84116C20.9667 5.09623 21.1941 5.34478 21.3715 5.58298L21.1465 5.75319C21.0844 5.65921 21.0135 5.56393 20.9307 5.46692C20.64 5.60932 20.3027 5.71762 19.9156 5.79436L20.9664 5.94816L20.7304 7.55998L20.4544 7.51958L20.4709 7.40678L19.1618 7.21518L19.1445 7.33392L18.8714 7.29395L19.0756 5.89881ZM19.1983 6.96584L20.5074 7.15744L20.5365 6.95856L19.2274 6.76696L19.1983 6.96584ZM19.2605 6.54136L20.5695 6.73296L20.596 6.55189L19.287 6.36029L19.2605 6.54136ZM19.3196 6.13766L20.6286 6.32926L20.656 6.14225L19.3469 5.95066L19.3196 6.13766ZM19.4499 4.74991L19.6232 4.95415C19.4163 5.14521 19.1718 5.30347 18.8901 5.42597L18.7577 5.19132C19.0237 5.07259 19.2541 4.92743 19.4499 4.74991Z" fill="white"/>
<path d="M23.3008 6.97245L22.7482 6.89503L22.7865 6.6217L24.1799 6.81692L24.1416 7.09025L23.586 7.01241L23.5065 7.57987L24.1988 7.67685L24.1601 7.95316L22.4963 7.72006L22.535 7.44376L23.2213 7.53991L23.3008 6.97245ZM23.6631 6.18107C23.4242 6.32936 23.139 6.44086 22.807 6.51855L22.6612 6.26184C23.2201 6.14323 23.6293 5.9249 23.886 5.60644L22.9175 5.47074L22.9553 5.20038L24.2626 5.38353L24.2314 5.60635C24.1367 5.76274 24.0171 5.90349 23.8727 6.02565C24.0841 6.20369 24.2597 6.37674 24.4057 6.54563L24.1686 6.72446C24.0498 6.55635 23.8813 6.37522 23.6631 6.18107ZM22.563 7.11446L22.5263 7.3759C22.2203 7.48449 21.8858 7.5588 21.5168 7.59798L21.5164 7.31924C21.9088 7.28635 22.2578 7.21711 22.563 7.11446ZM22.337 4.98653L22.5924 5.13136C22.3999 5.4679 22.2165 5.73908 22.043 5.93895C22.1546 5.94247 22.2666 5.94301 22.3787 5.94356C22.4463 5.85004 22.5147 5.75057 22.5866 5.64855L22.8317 5.77984C22.5206 6.20579 22.2656 6.51238 22.0634 6.70215C22.2504 6.68594 22.4429 6.65233 22.6401 6.60725L22.6043 6.86276C22.2731 6.9345 21.9652 6.97012 21.6742 6.97176L21.6357 6.70585C21.6891 6.69213 21.7345 6.67122 21.7747 6.64353C21.8835 6.55881 22.0235 6.40272 22.2002 6.17908L21.7429 6.17862L21.7108 5.91057C21.7549 5.89857 21.7985 5.86833 21.8412 5.82282C22.0213 5.57541 22.1843 5.29835 22.337 4.98653Z" fill="white"/>
<path d="M24.8883 5.39094C25.0642 5.56898 25.2073 5.74261 25.3237 5.91264L25.0943 6.08762C24.995 5.92594 24.8526 5.74636 24.6673 5.54889L24.8883 5.39094ZM24.7228 6.05884C24.8923 6.23904 25.0295 6.41188 25.1399 6.58111L24.9105 6.75609C24.8205 6.59263 24.6871 6.41425 24.5077 6.21758L24.7228 6.05884ZM24.8876 7.01636L25.1297 7.15185C24.9517 7.48509 24.7646 7.79592 24.5688 8.08136L24.3168 7.92941C24.5287 7.63704 24.718 7.33256 24.8876 7.01636ZM26.488 7.06819L26.7645 7.10539L26.5945 8.36901L26.318 8.33181L26.488 7.06819ZM25.4492 5.69948L26.1925 5.79947C26.1621 5.71062 26.1279 5.62732 26.0895 5.55253L26.3962 5.54536C26.4266 5.63421 26.4529 5.73158 26.4809 5.83827L27.2094 5.93626L27.1734 6.20385L26.9385 6.17225C26.8433 6.36226 26.6986 6.51533 26.5048 6.6285C26.697 6.73003 26.934 6.81337 27.2098 6.87773L27.0748 7.11685C26.7232 7.0302 26.4366 6.90993 26.2178 6.7594C25.9639 6.84634 25.6584 6.88999 25.2944 6.89551L25.215 6.63056C25.5141 6.63448 25.7685 6.61119 25.9811 6.56108C25.8215 6.39734 25.7164 6.21067 25.663 6.00066L25.4132 5.96707L25.4492 5.69948ZM25.9276 6.03626C25.99 6.20207 26.1007 6.34711 26.2595 6.4714C26.4464 6.38756 26.5855 6.27611 26.6709 6.13625L25.9276 6.03626ZM25.5974 6.96049L25.8709 6.99729L25.8393 7.23217C25.7958 7.51086 25.7178 7.73042 25.6058 7.8879C25.4988 8.0309 25.3461 8.13143 25.1442 8.19206L25.0245 7.9338C25.2014 7.8789 25.328 7.79301 25.4039 7.6791C25.4805 7.55926 25.5327 7.39676 25.5658 7.19538L25.5974 6.96049Z" fill="white"/>
<path d="M30.184 6.23771L29.8683 8.68039L29.5946 8.645L29.6226 8.42781L28.977 8.34435L28.9443 8.59725L28.6736 8.56225L28.9939 6.08387L30.184 6.23771ZM29.0116 8.07658L29.6572 8.16004L29.8761 6.46712L29.2304 6.38366L29.0116 8.07658ZM27.5665 6.52552L28.0634 6.58975L28.1096 6.23272C27.97 6.23585 27.8282 6.23265 27.6898 6.22686L27.6333 5.96243C28.0961 5.98596 28.4746 5.95927 28.7711 5.88869L28.8746 6.14104C28.716 6.17498 28.5551 6.20259 28.3898 6.21752L28.3371 6.62513L28.8221 6.68782L28.7879 6.95262L28.3029 6.88993L28.2875 7.00894C28.4353 7.17626 28.5837 7.36182 28.7328 7.56562L28.5347 7.78805C28.4254 7.58033 28.3319 7.41398 28.2521 7.28266L28.0887 8.54714L27.8149 8.51176L27.9707 7.30678C27.8194 7.54132 27.6351 7.75041 27.4237 7.93484L27.3417 7.60964C27.6343 7.40547 27.8631 7.15674 28.0272 6.86942L28.0292 6.85455L27.5323 6.79032L27.5665 6.52552Z" fill="white"/>
<path d="M30.6929 7.31809C30.6029 7.40966 30.5099 7.50085 30.408 7.59094L30.3535 7.27578C30.6705 6.9646 30.9263 6.58534 31.1175 6.14358L31.3668 6.30164C31.2709 6.5134 31.1578 6.71698 31.0251 6.90903L30.7735 8.92741L30.4966 8.8929L30.6929 7.31809ZM31.2802 6.55991L32.1525 6.66865C32.1264 6.5626 32.094 6.4588 32.0552 6.35723L32.3354 6.31657C32.3812 6.45833 32.4136 6.58632 32.4323 6.70353L33.2361 6.80373L33.203 7.06867L31.2472 6.82486L31.2802 6.55991ZM31.4954 7.04023L32.9274 7.21873L32.8958 7.47177L31.4639 7.29327L31.4954 7.04023ZM31.4431 7.45998L32.875 7.63848L32.8431 7.8945L31.4112 7.716L31.4431 7.45998ZM32.8823 8.08984L32.7479 9.1675L32.474 9.13336L32.4933 8.97855L31.4812 8.85238L31.4619 9.00718L31.188 8.97304L31.3223 7.89538L32.8823 8.08984ZM31.5142 8.58743L32.5264 8.7136L32.5757 8.31767L31.5636 8.1915L31.5142 8.58743Z" fill="white"/>
<path d="M33.8934 6.72376L34.5516 6.80325C34.5963 6.73311 34.6321 6.66188 34.6623 6.58696L34.9525 6.66129C34.9267 6.72466 34.8924 6.78397 34.8554 6.83994L35.7995 6.95395L35.6179 8.45803L33.7118 8.22783L33.8934 6.72376ZM35.373 8.18369L35.3964 7.9901L34.0383 7.82608L34.0149 8.01968L35.373 8.18369ZM34.0656 7.59973L35.4237 7.76374L35.4464 7.5761L34.0883 7.41209L34.0656 7.59973ZM34.1152 7.18871L35.4734 7.35273L35.4964 7.16211L34.1383 6.9981L34.1152 7.18871ZM33.5301 8.38115L33.7916 8.46714C33.6867 8.73549 33.5626 8.96225 33.4131 9.14967L33.1931 8.969C33.3413 8.79349 33.4528 8.59544 33.5301 8.38115ZM34.9137 9.38528L34.1571 9.29392C33.9606 9.27018 33.8738 9.16301 33.8968 8.97239L33.9626 8.42735L34.2486 8.46188L34.1899 8.94735C34.1827 9.00692 34.2086 9.04328 34.2681 9.05047L34.8906 9.12565C34.9472 9.13248 34.9877 9.12226 35.0122 9.095C35.0492 9.06321 35.0827 8.96149 35.1128 8.78684L35.3734 8.90595C35.319 9.15623 35.256 9.30273 35.187 9.34879C35.122 9.38627 35.0328 9.39967 34.9137 9.38528ZM34.6617 8.39392C34.7896 8.56046 34.8874 8.7022 34.9511 8.82473L34.7217 8.94811C34.6534 8.81295 34.5597 8.66264 34.4377 8.49681L34.6617 8.39392ZM35.6072 8.57156C35.7579 8.82546 35.8671 9.04715 35.9415 9.2314L35.6991 9.36228C35.6208 9.15944 35.512 8.93477 35.3703 8.68195L35.6072 8.57156Z" fill="white"/>
<path d="M37.3625 6.90707L37.6129 7.0634C37.4829 7.2958 37.3244 7.51277 37.1379 7.71135L36.907 9.67481L36.6269 9.64186L36.819 8.00912C36.6821 8.11989 36.5366 8.22662 36.3829 8.32635L36.3282 8.02087C36.7715 7.71959 37.1171 7.34943 37.3625 6.90707ZM38.4566 9.80273L37.8995 9.73719C37.6611 9.70915 37.556 9.57595 37.584 9.3376L37.6821 8.50335C37.5682 8.54734 37.4513 8.59098 37.3318 8.6313L37.2352 8.34807C37.4045 8.29549 37.5682 8.23923 37.721 8.17263L37.8574 7.01362L38.1404 7.04692L38.0248 8.03014C38.3395 7.87082 38.6247 7.68084 38.8743 7.45948L39.0446 7.70607C38.7272 7.96476 38.3746 8.1891 37.9845 8.37278L37.8716 9.33216C37.8618 9.41559 37.9016 9.46256 37.9969 9.47377L38.4409 9.526C38.5094 9.53406 38.5628 9.51618 38.6009 9.47534C38.6359 9.43416 38.6754 9.2787 38.7136 9.00529L38.9656 9.12254C38.9044 9.46272 38.8412 9.66673 38.7791 9.73192C38.7141 9.79677 38.6056 9.82026 38.4566 9.80273Z" fill="white"/>
<path d="M40.9744 8.18275L40.9595 8.18103L40.9018 8.68172L40.6216 8.64942L40.6794 8.14873L40.6645 8.14701C40.4455 8.3694 40.084 8.54515 39.5773 8.67094L39.4459 8.39608C39.865 8.3236 40.1688 8.22878 40.3634 8.11231L39.6065 8.02503L39.637 7.75979L40.7099 7.88349L40.7319 7.69275C40.4746 7.67214 40.1967 7.64615 39.9047 7.61247L39.8498 7.35549C40.6127 7.44346 41.2579 7.47859 41.7914 7.46158L41.901 7.71581C41.6428 7.72832 41.3473 7.72445 41.0138 7.71015L40.9901 7.91579L42.0809 8.04155L42.0503 8.3068L41.2784 8.2178C41.4635 8.39316 41.7355 8.54834 42.1004 8.68402L41.9413 8.93747C41.4804 8.71823 41.1591 8.46677 40.9744 8.18275ZM39.4527 8.75623L40.2961 8.85347C40.359 8.77919 40.4216 8.70789 40.4779 8.63888L40.7425 8.75394L40.6269 8.89162L42.0247 9.05277L41.9941 9.31801L41.4666 9.25719C41.3416 9.42398 41.2145 9.5573 41.0823 9.65681C41.3181 9.75949 41.5614 9.87512 41.806 10.006L41.6034 10.2182C41.3396 10.07 41.0745 9.93374 40.8106 9.81272C40.4727 9.96703 40.0468 10.0206 39.5328 9.97342L39.4034 9.70784C39.8206 9.75595 40.1758 9.73953 40.4687 9.66156C40.2385 9.56254 40.007 9.47545 39.7747 9.39432C39.8772 9.29137 39.976 9.19405 40.0718 9.09638L39.4221 9.02147L39.4527 8.75623ZM40.4056 9.13487C40.3374 9.2025 40.2759 9.26486 40.2183 9.31863C40.4046 9.37936 40.5988 9.45007 40.7946 9.53304C40.937 9.44981 41.0607 9.34629 41.1626 9.22215L40.4056 9.13487Z" fill="white"/>
<path d="M44.7357 8.86635L44.6071 9.99606L44.3269 9.96417L44.426 9.09379L42.9326 8.92385L42.8285 9.83895L42.5483 9.80706L42.6819 8.63264L44.7357 8.86635ZM42.969 7.67496L44.6711 7.86865L44.5805 8.66451L42.8785 8.47083L42.969 7.67496ZM44.3341 8.38888L44.3683 8.08783L43.2148 7.95655L43.1805 8.25761L44.3341 8.38888ZM43.5439 9.15042L43.827 9.20981C43.7344 9.65218 43.6081 9.93974 43.448 10.0725C43.278 10.2403 42.9004 10.3212 42.319 10.3094L42.2382 10.0375C42.7209 10.0682 43.05 10.0151 43.2226 9.87776C43.3734 9.74697 43.4794 9.5054 43.5439 9.15042ZM43.819 9.8641C44.1946 10.0125 44.5321 10.1777 44.8374 10.3604L44.6556 10.5783C44.3351 10.3697 44.0016 10.1959 43.6548 10.0598L43.819 9.8641Z" fill="white"/>
<path d="M46.752 8.00759L46.9607 8.03117C47.2898 8.485 47.6823 8.85844 48.1443 9.15217L47.9583 9.40891C47.7898 9.29628 47.6373 9.1764 47.4951 9.0456L47.4699 9.26918L45.9883 9.10175L46.0149 8.86625C45.8411 8.96133 45.6561 9.04911 45.4598 9.12958L45.3388 8.83814C45.8901 8.63477 46.3621 8.35902 46.752 8.00759ZM46.0633 8.83851L47.4406 8.99415C47.2058 8.77439 47.0005 8.53382 46.8277 8.27276C46.6073 8.48637 46.3535 8.67506 46.0633 8.83851ZM45.4829 9.37975L47.8975 9.65262L47.8665 9.92688L46.4774 9.76989C46.3153 10.0022 46.136 10.1993 45.9392 10.3642C46.3712 10.3889 46.7866 10.3996 47.1915 10.397C47.1152 10.2707 47.0299 10.1433 46.9361 10.0119L47.1725 9.89676C47.4104 10.2225 47.5901 10.5025 47.7146 10.7369L47.4602 10.8773C47.4183 10.794 47.3737 10.7075 47.3262 10.6206C46.8561 10.6399 46.2684 10.6309 45.5661 10.5938L45.5162 10.3406C45.5868 10.3304 45.6375 10.309 45.671 10.2796C45.8532 10.11 46.0126 9.92871 46.1494 9.73283L45.4519 9.654L45.4829 9.37975Z" fill="white"/>
<path d="M49.2334 8.3058C49.3299 8.46765 49.4217 8.64406 49.5058 8.8347L49.3106 8.90625L49.9276 8.97591C50.0541 8.8181 50.1724 8.62616 50.2821 8.40306L50.551 8.50888C50.4632 8.69823 50.3598 8.86469 50.2466 9.01192L50.813 9.07586L50.7821 9.35012L49.8102 9.24041L49.7998 9.33282C49.7777 9.47524 49.748 9.60472 49.7133 9.72459L50.8998 9.85853L50.8688 10.1328L49.8254 10.015C49.9308 10.3922 50.2714 10.7175 50.8471 10.9938L50.6499 11.2432C50.0528 10.9162 49.6947 10.5316 49.5692 10.0917C49.4997 10.2258 49.42 10.3436 49.3304 10.4422C49.0974 10.6876 48.7433 10.8559 48.268 10.9472L48.141 10.6823C48.6169 10.585 48.9481 10.4322 49.1376 10.2242C49.204 10.1441 49.2625 10.0541 49.3127 9.95712L48.2932 9.84203L48.3241 9.56777L49.4212 9.69161C49.4591 9.5691 49.4918 9.43995 49.5136 9.30051L49.524 9.2081L48.5492 9.09805L48.5802 8.8238L49.2181 8.89581C49.1393 8.71181 49.0521 8.54799 48.9599 8.40173L49.2334 8.3058Z" fill="white"/>
<path d="M51.9126 8.69682L54.1693 8.95099L54.1381 9.22824L53.1871 9.12113L53.1052 9.84853L54.2648 9.97914L54.233 10.2623L53.0733 10.1317L52.9588 11.1483C52.9353 11.357 52.8129 11.4519 52.5953 11.4274L52.1213 11.374L52.0925 11.093C52.2436 11.1191 52.389 11.1415 52.5261 11.1569C52.6215 11.1677 52.6742 11.1283 52.6836 11.0449L52.7901 10.0998L51.5797 9.96353L51.6116 9.68032L52.822 9.81663L52.9039 9.08923L51.8814 8.97407L51.9126 8.69682Z" fill="white"/>
<path d="M56.0186 9.003C56.0564 9.10632 56.093 9.22158 56.1281 9.35176L57.1997 9.45991L57.172 9.73451L54.9841 9.5137L54.9205 10.1435C54.8453 10.7993 54.6967 11.3149 54.4716 11.6933L54.2542 11.4572C54.4426 11.1446 54.5693 10.696 54.634 10.1146L54.7252 9.21017L55.8147 9.32013C55.7802 9.21413 55.7421 9.11379 55.6968 9.02479L56.0186 9.003Z" fill="white"/>
<path d="M57.587 9.53962L58.3221 9.60459C58.3832 9.49254 58.4419 9.37424 58.5008 9.25296L58.7791 9.3408C58.728 9.4417 58.6802 9.53987 58.6299 9.6318L60.1181 9.76332L60.0938 10.0382L58.4771 9.89537C58.3292 10.1383 58.1689 10.35 58.0023 10.531L58.7016 10.5928L58.7378 10.1834L59.0217 10.2085L58.9855 10.6179L59.9089 10.6995L59.8854 10.9655L58.962 10.8839L58.8825 11.7834C58.8648 11.9836 58.7512 12.076 58.542 12.0575L58.2313 12.03L58.1931 11.7465C58.2876 11.767 58.3797 11.7811 58.4664 11.7888C58.5501 11.7962 58.5983 11.7613 58.6047 11.6896L58.6781 10.8588L57.68 10.7706L57.6367 10.5108C57.8199 10.3463 57.9986 10.1302 58.1663 9.8679L57.5627 9.81455L57.587 9.53962ZM58.0782 11.0015L58.2601 11.1923C58.0456 11.4384 57.786 11.6503 57.4874 11.8257L57.3259 11.5735C57.6167 11.4185 57.8685 11.227 58.0782 11.0015ZM59.4357 11.1125C59.6786 11.3628 59.8829 11.6068 60.0422 11.8497L59.8177 12.0377C59.6816 11.8058 59.4871 11.5537 59.2313 11.2781L59.4357 11.1125Z" fill="white"/>
<path d="M61.5523 9.5295L61.8305 9.5506L61.7726 10.3134L61.4944 10.2923L61.5523 9.5295ZM60.7762 10.8365C60.6425 10.8535 60.5089 10.8704 60.3754 10.8844L60.2783 10.6183C61.1926 10.5432 61.9038 10.3685 62.409 10.0939C62.3162 10.0086 62.2174 9.92293 62.1126 9.83676L62.3179 9.6688C62.6069 9.90434 62.8511 10.1365 63.0446 10.3617L62.832 10.5472C62.7635 10.4578 62.6861 10.3677 62.5967 10.2766C62.3167 10.4389 61.9878 10.5704 61.6069 10.6739L62.6658 10.7542L62.5426 12.3786L62.2644 12.3575L62.273 12.2438L60.9538 12.1437L60.9448 12.2634L60.6696 12.2425L60.7762 10.8365ZM60.9729 11.8925L62.2921 11.9925L62.3073 11.7921L60.9881 11.692L60.9729 11.8925ZM61.0053 11.4647L62.3246 11.5647L62.3384 11.3823L61.0192 11.2822L61.0053 11.4647ZM61.0362 11.0578L62.3554 11.1579L62.3697 10.9694L61.0505 10.8694L61.0362 11.0578ZM61.0697 9.66439L61.2567 9.85608C61.0637 10.0611 60.8308 10.236 60.5583 10.3778L60.4098 10.1529C60.6669 10.0159 60.8867 9.8551 61.0697 9.66439Z" fill="white"/>
<path d="M63.6397 10.8714C63.5461 10.9737 63.4467 11.0727 63.3385 11.1681L63.2647 10.8599C63.5915 10.5377 63.8438 10.1568 64.0191 9.7109L64.2807 9.85356C64.1917 10.0734 64.0794 10.2828 63.9467 10.4819L63.8211 12.4819L63.5397 12.4643L63.6397 10.8714ZM64.2628 10.0899L64.8377 10.126L64.9413 9.76878L65.2181 9.8132C65.1868 9.92847 65.1529 10.0376 65.1222 10.1438L65.9845 10.198L65.9672 10.4734L65.033 10.4148C64.9969 10.5117 64.9641 10.6028 64.9315 10.691L66.0723 10.7626L66.0552 11.035L64.8246 10.9578C64.7755 11.0689 64.73 11.1713 64.6819 11.2675L65.8736 11.3423L65.8581 11.5878C65.7264 11.7719 65.5317 11.9521 65.268 12.1309C65.3896 12.2046 65.5078 12.2842 65.6199 12.3664L65.4428 12.6018C65.0929 12.3333 64.7277 12.118 64.3533 11.9532L64.5201 11.7383C64.6956 11.8154 64.8646 11.9012 65.0274 11.9895C65.246 11.859 65.4227 11.7258 65.5546 11.5868L64.2971 11.5078C64.3866 11.3271 64.4707 11.137 64.5521 10.9407L64.0791 10.911L64.0962 10.6385L64.6561 10.6737C64.6888 10.5826 64.7216 10.4914 64.7516 10.3971L64.2456 10.3654L64.2628 10.0899Z" fill="white"/>
<path d="M67.4921 11.9568L67.4786 12.2295C67.1991 12.3538 66.8819 12.4523 66.5302 12.519L66.5113 12.2328C66.8808 12.1699 67.2098 12.078 67.4921 11.9568ZM67.0718 9.88456L67.3391 10.0059C67.1777 10.3554 67.0195 10.6389 66.8647 10.8535C66.9672 10.8466 67.0698 10.8366 67.1726 10.8237C67.2283 10.7303 67.2874 10.6281 67.3468 10.5199L67.5967 10.6284C67.3345 11.072 67.1172 11.3976 66.9418 11.6052C67.13 11.5635 67.3221 11.5069 67.518 11.4325L67.5051 11.6931C67.1748 11.812 66.8618 11.8866 66.5688 11.9202L66.5069 11.6528C66.559 11.6314 66.6023 11.6065 66.6399 11.5753C66.7376 11.481 66.8629 11.316 67.0157 11.0802C66.8767 11.0974 66.7319 11.1113 66.581 11.1249L66.522 10.8606C66.5678 10.8449 66.6117 10.808 66.6503 10.7558C66.8073 10.4963 66.9478 10.2058 67.0718 9.88456ZM67.616 11.2721L67.5655 11.0173C67.5898 11.0125 67.6112 11.0045 67.6235 10.9991C67.7166 10.9377 67.8419 10.7726 67.9961 10.5099L67.5316 10.487L67.5451 10.2143L68.2732 10.2503C68.242 10.1526 68.2075 10.0608 68.1697 9.97483L68.4627 9.94125C68.4969 10.0391 68.5307 10.1459 68.5609 10.2645L69.2171 10.2969L69.2036 10.5696L68.2927 10.5246C68.1682 10.7347 68.0582 10.8945 67.9624 11.0099C68.2063 10.9979 68.4504 10.9799 68.6919 10.9558C68.6361 10.8689 68.5802 10.7851 68.5243 10.7012L68.7467 10.577C68.9319 10.8415 69.0736 11.0738 69.172 11.2709L68.9427 11.4127C68.9101 11.342 68.8716 11.271 68.8332 11.1971C68.4588 11.2356 68.0521 11.2606 67.616 11.2721ZM67.8332 11.3759L68.1088 11.3896C68.075 11.7693 68.0133 12.0456 67.9267 12.2186C67.8306 12.4001 67.6788 12.5548 67.4682 12.6825L67.2996 12.4489C67.4727 12.3493 67.5989 12.2264 67.6782 12.0801C67.7542 11.9397 67.8049 11.7049 67.8332 11.3759ZM68.8669 12.7036L68.6751 12.6941C68.4624 12.6836 68.3623 12.5825 68.3716 12.3937L68.4221 11.372L68.6947 11.3855L68.6469 12.3533C68.6446 12.4012 68.6611 12.4321 68.6967 12.4398L68.8645 12.4481C68.9187 12.4448 68.9536 12.4075 68.9632 12.3359C68.9762 12.2554 68.9879 12.1388 68.9953 11.989L69.2367 12.088C69.2225 12.3757 69.19 12.5483 69.1448 12.6121C69.0999 12.67 69.0053 12.6984 68.8669 12.7036Z" fill="white"/>
<path d="M70.5538 10.5379L69.5495 10.5003L69.5596 10.2275L71.859 10.3134L71.8488 10.5862L70.8416 10.5486L70.7735 12.3713L71.9696 12.416L71.9593 12.6918L69.2762 12.5916L69.2865 12.3158L70.4857 12.3606L70.5538 10.5379Z" fill="white"/>
<path d="M72.3817 10.3737L73.0595 10.3911L73.0661 10.1301L73.357 10.1376L73.3504 10.3985L74.0701 10.4169L74.0768 10.156L74.3677 10.1634L74.361 10.4243L75.0388 10.4416L75.032 10.7085L74.3542 10.6912L74.3482 10.9281L74.0573 10.9207L74.0633 10.6838L73.3435 10.6654L73.3375 10.9023L73.0466 10.8949L73.0526 10.658L72.3749 10.6407L72.3817 10.3737ZM72.639 10.9925L74.6303 11.0434L74.6233 11.3163C73.7871 11.7451 73.2446 12.0733 72.9987 12.3011C72.9187 12.3771 72.8721 12.4389 72.8557 12.4925C72.8546 12.5375 72.878 12.5621 72.9319 12.5635L74.4045 12.6011C74.4854 12.6032 74.549 12.5838 74.5919 12.5459C74.6348 12.511 74.6753 12.3379 74.7132 12.0268L74.9744 12.1415C74.9325 12.4886 74.8702 12.697 74.7844 12.7669C74.7016 12.8338 74.5807 12.8667 74.4248 12.8627L72.9403 12.8248C72.6764 12.8181 72.5498 12.7218 72.5545 12.5359C72.5577 12.4099 72.6605 12.2625 72.8569 12.0934C73.1147 11.8689 73.5476 11.6069 74.1495 11.3042L72.632 11.2654L72.639 10.9925Z" fill="white"/>
<path d="M75.4425 10.4801L76.0875 10.4897C76.0498 10.3991 76.009 10.3175 75.9621 10.2418L76.2628 10.1983C76.3035 10.2859 76.341 10.3855 76.3784 10.494L76.9574 10.5026C77.0038 10.4073 77.0413 10.3059 77.0669 10.2012L77.3722 10.2448C77.3439 10.3374 77.3066 10.4238 77.2603 10.5071L77.8843 10.5164L77.8804 10.7744L76.8035 10.7584L76.8002 10.9864L77.718 11L77.7144 11.246L76.7965 11.2323L76.7931 11.4633L77.9689 11.4808L77.965 11.7448L75.3253 11.7055L75.3292 11.4415L76.5051 11.459L76.5085 11.228L75.5996 11.2145L75.6033 10.9686L76.5122 10.9821L76.5156 10.7541L75.4387 10.7381L75.4425 10.4801ZM76.5213 11.7803L76.8088 11.8146C76.799 11.8714 76.7861 11.9282 76.7703 11.982L77.8952 11.9987L77.8912 12.2687L76.9013 12.254C77.1018 12.491 77.4804 12.6557 78.0371 12.7479L77.8831 13.0157C77.243 12.8801 76.8265 12.6459 76.6305 12.31C76.5659 12.417 76.4895 12.5089 76.3983 12.5886C76.1977 12.7596 75.8507 12.8924 75.3512 12.987L75.2384 12.7063C75.6655 12.6377 75.976 12.5343 76.1672 12.3931C76.2279 12.346 76.2766 12.2987 76.3194 12.2453L75.3865 12.2315L75.3905 11.9615L76.4704 11.9776C76.4924 11.9119 76.5083 11.8461 76.5213 11.7803Z" fill="white"/>
<path d="M78.3152 10.9269L79.4552 10.9332L79.459 10.2402L79.741 10.2418L79.7372 10.9348L80.8802 10.9411L80.8787 11.2141L79.9967 11.2092C80.1861 11.6783 80.5078 12.0971 80.9617 12.4656L80.7684 12.7045C80.2759 12.2638 79.9306 11.7699 79.7356 11.2228L79.7257 13.0108L79.4437 13.0092L79.4536 11.2272C79.2313 11.826 78.8655 12.319 78.3564 12.7032L78.2018 12.4473C78.6536 12.1258 78.9859 11.7107 79.1927 11.2048L78.3137 11.1999L78.3152 10.9269ZM80.23 10.2475C80.4 10.4285 80.5312 10.5852 80.6234 10.7177L80.3945 10.8784C80.2994 10.7279 80.1683 10.5652 80.0073 10.3843L80.23 10.2475Z" fill="white"/>
<path d="M82.0081 10.3561L83.7121 10.3515L83.7149 11.3985L82.0109 11.4031L82.0081 10.3561ZM83.4292 11.1293L83.4278 10.6223L82.2938 10.6253L82.2952 11.1323L83.4292 11.1293ZM82.7195 11.6262L82.7231 12.9762L82.4471 12.9769L82.4467 12.8329L81.8917 12.8344L81.8921 12.9784L81.6131 12.9792L81.6095 11.6292L82.7195 11.6262ZM81.891 12.5674L82.446 12.5659L82.4442 11.8969L81.8892 11.8984L81.891 12.5674ZM84.1175 11.6225L84.1211 12.9725L83.8361 12.9732L83.8357 12.8292L83.2567 12.8308L83.2571 12.9748L82.9781 12.9755L82.9745 11.6255L84.1175 11.6225ZM83.256 12.5638L83.835 12.5622L83.8332 11.8932L83.2542 11.8948L83.256 12.5638Z" fill="white"/>
<path d="M86.2759 10.2426L86.5609 10.2401L86.5653 10.744L87.1503 10.7389L87.1626 12.1398L86.8866 12.1423L86.8855 12.0073L86.5765 12.01L86.5852 12.9969L86.3002 12.9995L86.2915 12.0125L85.9945 12.0151L85.9957 12.1501L85.7227 12.1525L85.7103 10.7516L86.2803 10.7465L86.2759 10.2426ZM85.9922 11.7541L86.2892 11.7515L86.2827 11.0165L85.9857 11.0192L85.9922 11.7541ZM86.5742 11.749L86.8832 11.7463L86.8767 11.0113L86.5677 11.014L86.5742 11.749ZM84.5759 10.7046L84.5166 10.4411C84.8793 10.4079 85.2027 10.342 85.4869 10.2465L85.5882 10.5096C85.4715 10.5437 85.3488 10.5748 85.22 10.6059L85.2238 11.0379L85.5868 11.0347L85.5892 11.3077L85.2262 11.3109L85.2273 11.4309C85.3724 11.5586 85.5177 11.6983 85.663 11.853L85.5062 12.0944C85.3997 11.9304 85.3085 11.7962 85.2296 11.6888L85.2413 13.0118L84.9653 13.0142L84.954 11.7333C84.8572 11.9891 84.7333 12.2242 84.5792 12.4386L84.4595 12.1397C84.6704 11.8948 84.824 11.6204 84.9203 11.3136L84.5123 11.3172L84.5099 11.0442L84.9479 11.0403L84.9445 10.6563C84.8246 10.6754 84.7018 10.6915 84.5759 10.7046Z" fill="white"/>
<path d="M89.8762 10.3673L89.9085 12.8301L89.6326 12.8337L89.6297 12.6147L88.9787 12.6232L88.9821 12.8782L88.7091 12.8818L88.6763 10.383L89.8762 10.3673ZM88.9752 12.3533L89.6261 12.3447L89.6037 10.6379L88.9528 10.6464L88.9752 12.3533ZM87.3256 11.0218L87.8265 11.0152L87.8218 10.6553C87.6841 10.6781 87.5433 10.6949 87.4055 10.7087L87.3121 10.4549C87.7736 10.4129 88.1446 10.333 88.4282 10.2213L88.5663 10.4565C88.414 10.5125 88.2586 10.5625 88.0971 10.6006L88.1025 11.0116L88.5915 11.0052L88.595 11.2722L88.106 11.2786L88.1076 11.3986C88.2775 11.5434 88.4507 11.7061 88.627 11.8868L88.4623 12.135C88.3248 11.9448 88.2088 11.7933 88.1112 11.6746L88.1279 12.9494L87.852 12.9531L87.836 11.7382C87.7193 11.9917 87.5664 12.2247 87.3832 12.4372L87.2561 12.1268C87.5169 11.8834 87.7083 11.6048 87.8302 11.2972L87.83 11.2822L87.3291 11.2888L87.3256 11.0218Z" fill="white"/>
<path d="M90.8201 12.9092L90.5652 12.9133L90.5009 12.6473C90.5791 12.6581 90.6512 12.6629 90.7201 12.6618C90.7921 12.6606 90.8275 12.6181 90.8262 12.5371L90.8159 11.9012C90.7086 11.9449 90.5983 11.9887 90.4909 12.0264L90.4144 11.7456C90.5489 11.7134 90.6803 11.6723 90.8115 11.6222L90.8011 10.9743L90.4621 10.9797L90.4577 10.7068L90.7967 10.7013L90.7883 10.1764L91.0642 10.172L91.0726 10.6969L91.3666 10.6922L91.371 10.9651L91.077 10.9699L91.0856 11.5038C91.1868 11.4542 91.285 11.4016 91.3831 11.346L91.3876 11.625C91.2895 11.6805 91.1912 11.7301 91.09 11.7798L91.1033 12.6046C91.1065 12.8026 91.0121 12.9061 90.8201 12.9092ZM91.4487 10.5738L92.1506 10.5626L92.1442 10.1606L92.4201 10.1562L92.4266 10.5581L93.1285 10.5469L93.1329 10.8198L92.431 10.8311L92.4379 11.26L93.0258 11.2506L93.0298 11.5026C92.9389 11.8161 92.7842 12.0886 92.5598 12.3172C92.748 12.4522 92.978 12.5715 93.2466 12.6722L93.1034 12.9086C92.8134 12.7872 92.5681 12.6471 92.3677 12.4943C92.1425 12.675 91.8689 12.8234 91.5468 12.9426L91.408 12.7078C91.7064 12.607 91.9594 12.4799 92.1638 12.3206C91.9261 12.0904 91.766 11.8319 91.6802 11.5392L91.5243 11.5417L91.52 11.2748L92.1619 11.2645L92.155 10.8355L91.4531 10.8468L91.4487 10.5738ZM91.9472 11.535C92.023 11.7678 92.1583 11.9726 92.3562 12.1525C92.5333 11.9696 92.6649 11.7605 92.7511 11.5221L91.9472 11.535Z" fill="white"/>
<path d="M93.464 10.3819L94.1419 10.3702L94.1374 10.1092L94.4283 10.1042L94.4329 10.3651L95.1528 10.3526L95.1482 10.0917L95.4392 10.0866L95.4437 10.3476L96.1216 10.3358L96.1263 10.6028L95.4484 10.6145L95.4525 10.8515L95.1615 10.8565L95.1574 10.6196L94.4375 10.6321L94.4416 10.869L94.1507 10.8741L94.1465 10.6371L93.4687 10.6489L93.464 10.3819ZM93.7476 10.9891L95.7393 10.9545L95.744 11.2275C94.927 11.6917 94.399 12.043 94.1631 12.2811C94.0865 12.3604 94.0426 12.4242 94.0285 12.4784C94.0293 12.5234 94.0537 12.547 94.1077 12.5461L95.5805 12.5205C95.6614 12.5191 95.7241 12.497 95.7654 12.4573C95.8068 12.4206 95.8397 12.246 95.8643 11.9335L96.1301 12.0369C96.1032 12.3854 96.0498 12.5964 95.9671 12.6698C95.8873 12.7402 95.768 12.7783 95.612 12.781L94.1272 12.8068C93.8632 12.8114 93.7327 12.7206 93.7294 12.5346C93.7272 12.4087 93.8236 12.257 94.0126 12.0797C94.2605 11.8443 94.6817 11.564 95.2701 11.2357L93.7523 11.2621L93.7476 10.9891Z" fill="white"/>
<path d="M97.9405 10.0728L98.2284 10.0678C98.2329 10.3258 98.2281 10.5689 98.214 10.7912C98.3827 11.5264 98.6629 12.1096 99.0544 12.5409L98.8546 12.7844C98.551 12.4056 98.315 11.9476 98.1437 11.4105L98.1217 11.5279C98.0227 12.0457 97.7751 12.473 97.379 12.816L97.1829 12.5853C97.5198 12.2854 97.7354 11.9186 97.8359 11.4848C97.9136 11.1204 97.9474 10.6488 97.9405 10.0728ZM96.6117 10.0989C96.8092 10.2425 96.9768 10.3866 97.1143 10.5342L96.9228 10.7356C96.8004 10.5967 96.6328 10.4495 96.4171 10.2973L96.6117 10.0989ZM96.2309 10.9756L96.9238 10.9636L96.9455 12.2174C97.0371 12.1378 97.1346 12.0461 97.2408 11.9422L97.3179 12.2349C97.129 12.4152 96.9278 12.5778 96.7113 12.7255L96.5989 12.4724C96.6491 12.4296 96.6753 12.3781 96.6742 12.3151L96.6555 11.2413L96.2356 11.2486L96.2309 10.9756Z" fill="white"/>
<path d="M99.686 10.8891L101.468 10.8602L101.472 11.1302L100.734 11.1421L100.742 11.5921L101.605 11.5781L101.61 11.848L100.746 11.862L100.755 12.414C100.959 12.4406 101.209 12.4516 101.509 12.4497C101.659 12.4473 101.814 12.4358 101.97 12.4213L101.921 12.7041L101.639 12.7087C101.009 12.7189 100.555 12.6692 100.283 12.5596C100.09 12.4727 99.9316 12.3433 99.8088 12.1713C99.6987 12.4131 99.561 12.6193 99.3958 12.79L99.2061 12.5651C99.4833 12.2665 99.6689 11.8675 99.7569 11.374L100.034 11.4175C100 11.5921 99.9581 11.7578 99.9096 11.9086C100.054 12.1403 100.234 12.2904 100.445 12.353L100.472 12.3585L100.452 11.1467L99.6904 11.159L99.686 10.8891ZM101.821 10.2694L101.832 10.9503L101.553 10.9548L101.547 10.5379L99.5908 10.5696L99.5978 11.0015L99.3188 11.006L99.3076 10.3101L100.435 10.2919C100.392 10.1965 100.342 10.1103 100.293 10.0331L100.598 9.98017C100.642 10.0725 100.686 10.1738 100.726 10.2871L101.821 10.2694Z" fill="white"/>
<path d="M103.46 10.4581L103.489 12.5459L103.216 12.5498L103.214 12.3938L102.74 12.4005L102.744 12.6434L102.471 12.6473L102.44 10.4725L102.725 10.4685C102.777 10.3057 102.816 10.1402 102.838 9.96584L103.124 10.0008C103.096 10.1662 103.053 10.3199 102.998 10.4646L103.46 10.4581ZM102.737 12.1365L103.21 12.1298L103.202 11.5389L102.728 11.5455L102.737 12.1365ZM102.725 11.2906L103.199 11.2839L103.191 10.732L102.717 10.7386L102.725 11.2906ZM104.01 11.1705C104.212 11.4137 104.367 11.6245 104.475 11.809L104.252 11.9711C104.136 11.7748 103.977 11.558 103.781 11.3177L104.01 11.1705ZM105.008 10.4394C105.022 11.4743 105.016 12.1134 104.99 12.3538C104.963 12.5702 104.82 12.6802 104.565 12.6838C104.505 12.6846 104.397 12.6802 104.247 12.6733L104.175 12.4133C104.307 12.4174 104.421 12.4218 104.517 12.4205C104.637 12.4188 104.705 12.3548 104.721 12.2286C104.737 12.0783 104.739 11.5743 104.733 10.7193L103.98 10.7299C103.898 10.911 103.805 11.0773 103.693 11.2289L103.519 11.0064C103.713 10.7156 103.846 10.3627 103.912 9.94773L104.194 9.97976C104.167 10.1482 104.127 10.3047 104.081 10.4524L105.008 10.4394Z" fill="white"/>
<path d="M106.293 12.044L106.296 12.311C106.033 12.4279 105.734 12.5213 105.399 12.5911L105.36 12.3185C105.716 12.2485 106.027 12.158 106.293 12.044ZM105.756 9.92289L106.018 10.022C105.896 10.3893 105.77 10.6878 105.644 10.9172C105.734 10.9042 105.827 10.8852 105.916 10.8661C105.963 10.7606 106.013 10.649 106.063 10.5315L106.313 10.6187C106.096 11.0951 105.917 11.4422 105.769 11.6598C105.937 11.622 106.11 11.575 106.284 11.5161L106.287 11.768C105.994 11.8673 105.712 11.9335 105.449 11.9695L105.377 11.7243C105.425 11.7027 105.464 11.6783 105.496 11.6479C105.579 11.545 105.682 11.3668 105.805 11.1134L105.395 11.19L105.323 10.9478C105.365 10.9293 105.404 10.8929 105.433 10.8446C105.556 10.5672 105.664 10.2599 105.756 9.92289ZM107.06 10.4003L106.643 10.405L106.652 11.1789L107.069 11.1742L107.06 10.4003ZM107.072 11.4322L106.655 11.4369L106.664 12.2408L107.081 12.2362L107.072 11.4322ZM107.339 12.2333L107.744 12.2287L107.735 11.4248L107.33 11.4293L107.339 12.2333ZM107.327 11.1713L107.732 11.1668L107.723 10.3928L107.318 10.3974L107.327 11.1713ZM107.747 12.4867L106.667 12.4988L106.669 12.6758L106.408 12.6787L106.379 10.1469L107.99 10.1288L108.019 12.6606L107.749 12.6637L107.747 12.4867Z" fill="white"/>
<path d="M109.603 9.99518L109.618 11.8821L109.342 11.8843L109.329 10.2704L108.543 10.2766L108.556 11.9176L108.28 11.9197L108.265 10.0058L109.603 9.99518ZM109.228 11.9542C109.428 12.1146 109.594 12.2753 109.73 12.4362L109.516 12.651C109.401 12.4959 109.237 12.3292 109.032 12.1508L109.228 11.9542ZM108.802 10.4515L109.078 10.4494L109.086 11.3883C109.077 11.7424 109.007 12.025 108.883 12.236C108.755 12.432 108.552 12.5866 108.271 12.6968L108.107 12.4431C108.376 12.339 108.561 12.2055 108.656 12.0488C108.751 11.88 108.8 11.6606 108.81 11.3905L108.802 10.4515ZM109.886 10.1519L110.162 10.1497L110.177 12.0037L109.901 12.0059L109.886 10.1519ZM110.479 12.6253L110.068 12.6286L110 12.3531C110.132 12.3611 110.258 12.3661 110.378 12.3651C110.465 12.3644 110.509 12.3191 110.509 12.2351L110.49 9.89513L110.772 9.89289L110.791 12.3048C110.793 12.5148 110.689 12.6236 110.479 12.6253Z" fill="white"/>
<path d="M111.466 9.85833L112.093 11.2568L111.478 12.6603L111.237 12.5533L111.805 11.2579L111.226 9.96731L111.466 9.85833Z" fill="white"/>
<path d="M115.43 10.3631L115.429 12.4511L115.156 12.451L115.156 12.295L114.682 12.295L114.682 12.538L114.409 12.5379L114.41 10.3629L114.695 10.363C114.749 10.201 114.791 10.036 114.815 9.86197L115.1 9.90101C115.07 10.066 115.025 10.219 114.968 10.363L115.43 10.3631ZM114.683 12.031L115.157 12.031L115.157 11.44L114.683 11.44L114.683 12.031ZM114.683 11.185L115.157 11.185L115.157 10.633L114.683 10.633L114.683 11.185ZM115.97 11.0831C116.168 11.3292 116.321 11.5422 116.426 11.7282L116.201 11.8872C116.087 11.6892 115.931 11.4701 115.739 11.2271L115.97 11.0831ZM116.978 10.3663C116.978 11.4013 116.963 12.0403 116.932 12.2803C116.902 12.4963 116.758 12.6043 116.503 12.6042C116.443 12.6042 116.335 12.5982 116.185 12.5892L116.116 12.3282C116.248 12.3342 116.362 12.3402 116.458 12.3402C116.578 12.3402 116.647 12.2772 116.666 12.1512C116.684 12.0012 116.693 11.4972 116.699 10.6422L115.946 10.6421C115.862 10.8221 115.766 10.9871 115.652 11.1371L115.481 10.9121C115.679 10.6241 115.817 10.2731 115.889 9.85913L116.171 9.89517C116.141 10.0632 116.099 10.2192 116.051 10.3662L116.978 10.3663Z" fill="white"/>
<path d="M117.593 9.89968C117.796 10.0596 117.966 10.2194 118.104 10.376L117.902 10.5731C117.783 10.4225 117.615 10.2598 117.397 10.0848L117.593 9.89968ZM119.306 12.5954C119.141 12.5946 118.961 12.5908 118.769 12.587C118.574 12.5831 118.415 12.5644 118.289 12.5338C118.169 12.4973 118.065 12.4248 117.975 12.3224C117.933 12.2712 117.897 12.2471 117.861 12.2469C117.798 12.2466 117.69 12.3811 117.536 12.6505L117.326 12.4545C117.478 12.2122 117.613 12.0598 117.734 12.0003L117.737 11.1513L117.335 11.1495L117.336 10.8855L118.005 10.8885L118 12.0225C118.015 12.0346 118.03 12.0497 118.045 12.0677C118.114 12.149 118.186 12.2094 118.26 12.2487C118.35 12.2911 118.482 12.3187 118.659 12.3255C118.83 12.3292 119.031 12.3331 119.265 12.3342C119.412 12.3348 119.562 12.3325 119.712 12.3302C119.862 12.3278 119.979 12.3224 120.06 12.3167L119.99 12.5984L119.306 12.5954ZM118.798 10.2021L118.219 10.1995L118.22 9.96248L119.867 9.96984L119.866 10.1708C119.691 10.3201 119.504 10.4452 119.306 10.5523C119.312 10.5584 119.318 10.5614 119.324 10.5674L119.927 10.5701L119.921 11.9021C119.92 12.0791 119.821 12.1687 119.626 12.1678L119.395 12.1668L119.336 11.9295L119.549 11.9424C119.615 11.9427 119.651 11.9099 119.651 11.8439L119.652 11.6909L119.22 11.689L119.218 12.181L118.957 12.1798L118.959 11.6878L118.536 11.6859L118.534 12.1839L118.264 12.1827L118.271 10.5627L118.961 10.5658C118.862 10.4994 118.752 10.4299 118.629 10.3633L118.798 10.2021ZM119.133 10.4166C119.259 10.3541 119.376 10.2826 119.485 10.2051L118.813 10.2021C118.926 10.2746 119.034 10.3441 119.133 10.4166ZM118.538 11.2449L118.537 11.4549L118.96 11.4568L118.961 11.2468L118.538 11.2449ZM119.222 11.248L119.221 11.458L119.653 11.4599L119.654 11.2499L119.222 11.248ZM119.655 11.0159L119.656 10.8059L119.224 10.804L119.223 11.014L119.655 11.0159ZM118.962 11.0128L118.963 10.8028L118.54 10.8009L118.539 11.0109L118.962 11.0128Z" fill="white"/>
<path d="M122.713 10.1972L122.692 12.5371L122.416 12.5347L122.418 12.3637L121.893 12.3591L121.891 12.5331L121.615 12.5307L121.636 10.1878L122.713 10.1972ZM121.895 12.0922L122.42 12.0967L122.434 10.4618L121.91 10.4572L121.895 12.0922ZM120.556 10.5354C120.485 10.6848 120.406 10.8221 120.321 10.9474L120.074 10.7862C120.268 10.5059 120.409 10.2041 120.492 9.88085L120.774 9.9433C120.743 10.057 120.706 10.1617 120.669 10.2634L121.488 10.2705L121.486 10.5435L121.078 10.54C121.07 10.7259 121.06 10.8998 121.04 11.0587L121.508 11.0627L121.506 11.3357L120.999 11.3313C120.986 11.3972 120.971 11.4631 120.958 11.523C121.14 11.7106 121.324 11.9192 121.514 12.1488L121.337 12.4113C121.154 12.1457 121 11.9373 120.875 11.7863C120.746 12.1001 120.531 12.3653 120.223 12.5786L120.039 12.349C120.353 12.1207 120.559 11.8405 120.661 11.5054C120.674 11.4485 120.689 11.3886 120.702 11.3287L120.111 11.3236L120.113 11.0506L120.746 11.0561C120.766 10.8973 120.776 10.7234 120.784 10.5374L120.556 10.5354Z" fill="white"/>
<path d="M123.784 9.894L124.386 11.3033L123.746 12.6957L123.508 12.5845L124.098 11.2994L123.543 9.99876L123.784 9.894ZM124.297 9.90093L124.899 11.3102L124.259 12.7027L124.021 12.5914L124.611 11.3063L124.044 10.0055L124.297 9.90093Z" fill="white"/>
</svg>
