<svg width="135" height="19" viewBox="0 0 135 19" fill="none" xmlns="http://www.w3.org/2000/svg">
<path d="M2.32934 7.43009L2.58988 7.51544L2.12123 8.855L2.80606 10.0924L2.57652 10.2212L1.83435 8.88041L2.32934 7.43009ZM2.84034 7.38483L3.08893 7.47124L2.63223 8.80975L3.31706 10.0472L3.08752 10.1759L2.34535 8.83515L2.84034 7.38483Z" fill="white"/>
<path d="M4.6301 7.19667C4.68744 7.29057 4.74593 7.39642 4.80588 7.51719L5.87784 7.41319L5.90449 7.6879L3.71577 7.90025L3.7769 8.53029C3.83167 9.18808 3.78711 9.72288 3.64051 10.138L3.38106 9.94915C3.50446 9.60563 3.54076 9.14095 3.49024 8.5581L3.40247 7.65335L4.49235 7.54761C4.43771 7.45043 4.38066 7.35952 4.3188 7.28112L4.6301 7.19667Z" fill="white"/>
<path d="M6.57546 7.38505L7.30936 7.3073C7.34775 7.18558 7.38252 7.05821 7.41698 6.92785L7.70703 6.96048C7.67633 7.06932 7.64829 7.17486 7.61664 7.27475L9.10232 7.11736L9.1314 7.39183L7.51743 7.5628C7.41899 7.82966 7.30248 8.06826 7.17386 8.27798L7.87195 8.20402L7.82866 7.79531L8.11207 7.76529L8.15537 8.174L9.07721 8.07634L9.10534 8.34186L8.18349 8.43951L8.27862 9.33749C8.2998 9.53737 8.20613 9.64987 7.99729 9.67199L7.68703 9.70486L7.59499 9.43404C7.69172 9.43586 7.78483 9.43203 7.87135 9.42287C7.95488 9.41402 7.99552 9.3705 7.98794 9.2989L7.90008 8.46954L6.90366 8.57509L6.81116 8.32847C6.95926 8.13177 7.09304 7.8853 7.20717 7.59567L6.60454 7.65951L6.57546 7.38505ZM7.33888 8.72508L7.55411 8.87725C7.39099 9.16001 7.17697 9.41799 6.91772 9.64758L6.71077 9.43118C6.96627 9.2231 7.17653 8.98664 7.33888 8.72508ZM8.69235 8.57265C8.9789 8.77157 9.22635 8.97162 9.42937 9.17938L9.24533 9.40704C9.06712 9.20569 8.82768 8.99575 8.52368 8.77454L8.69235 8.57265Z" fill="white"/>
<path d="M10.3992 6.62427L10.6764 6.59279L10.7627 7.35291L10.4855 7.38438L10.3992 6.62427ZM9.88216 8.05372C9.75405 8.09544 9.62594 8.13715 9.49749 8.17589L9.35213 7.93274C10.2361 7.68745 10.9019 7.38239 11.3467 7.0179C11.2395 6.95156 11.1264 6.88591 11.0073 6.82093L11.1774 6.61743C11.5055 6.79456 11.7888 6.97675 12.0212 7.16172L11.8471 7.38378C11.7631 7.30877 11.6702 7.23478 11.5653 7.16215C11.3207 7.3741 11.0223 7.56498 10.6676 7.7381L11.7228 7.6183L11.9066 9.2369L11.6293 9.26837L11.6165 9.1551L10.3019 9.30435L10.3155 9.42358L10.0412 9.45472L9.88216 8.05372ZM10.2735 9.05396L11.5881 8.90471L11.5654 8.70499L10.2508 8.85424L10.2735 9.05396ZM10.2251 8.62769L11.5397 8.47845L11.519 8.29662L10.2045 8.44586L10.2251 8.62769ZM10.1791 8.2223L11.4936 8.07305L11.4723 7.88526L10.1578 8.03451L10.1791 8.2223ZM9.95051 6.84731L10.1702 7.0005C10.019 7.23807 9.82308 7.45355 9.58202 7.64396L9.39405 7.45093C9.62088 7.26818 9.80659 7.06896 9.95051 6.84731Z" fill="white"/>
<path d="M13.6593 6.25549C13.6909 6.51759 13.7086 6.73907 13.7189 6.92517C13.9872 7.6966 14.489 8.24949 15.2184 8.58458L15.0606 8.85441C14.4427 8.54214 13.9818 8.07799 13.6786 7.4679C13.5568 8.11112 13.2075 8.67298 12.6309 9.15347L12.4276 8.92114C13.1729 8.3357 13.5061 7.61563 13.4268 6.75795C13.4027 6.55839 13.387 6.40315 13.3734 6.28997L13.6593 6.25549Z" fill="white"/>
<path d="M16.0777 7.63331L16.1674 8.34164C16.4051 8.26011 16.6404 8.16072 16.8739 8.04646L16.9734 8.30601C16.6993 8.43449 16.3476 8.5698 15.9236 8.70822L15.8152 8.44979C15.8591 8.41399 15.8802 8.36595 15.8727 8.30643L15.5943 6.11001L17.7669 5.83461L17.8853 6.76913L17.0758 6.87174C17.1039 6.99821 17.1365 7.11202 17.1679 7.2169L18.1144 7.09693L18.1491 7.37074L17.2652 7.48278C17.2902 7.53707 17.3148 7.58838 17.3417 7.63335C17.4607 7.83297 17.5752 7.97268 17.6855 8.05547C17.7921 8.13268 17.887 8.16601 17.9707 8.15842C17.9975 8.15502 18.0179 8.12522 18.0323 8.07198C18.0464 8.01577 18.0488 7.89149 18.0425 7.69875L18.3128 7.80358C18.3032 8.06184 18.2763 8.23157 18.2352 8.31239C18.197 8.39283 18.1394 8.43944 18.0683 8.45147C17.9251 8.4666 17.7706 8.41664 17.6018 8.30195C17.4297 8.18466 17.2709 8.00521 17.1224 7.76397C17.0765 7.68814 17.0358 7.6056 16.9973 7.51674L16.0777 7.63331ZM16.796 6.90721L15.9984 7.00831L16.0429 7.3595L16.8971 7.25123C16.859 7.14115 16.8264 7.02734 16.796 6.90721ZM17.5244 6.14052L15.9143 6.34462L15.9645 6.74045L17.5746 6.53636L17.5244 6.14052Z" fill="white"/>
<path d="M18.386 5.90908L19.665 5.74105L19.7013 6.01767L19.2701 6.07433L19.3451 6.64542L19.6574 6.60439L19.6808 6.78286C19.8277 6.4035 19.9027 5.96096 19.9084 5.45188L20.1893 5.44825C20.1851 5.6001 20.1741 5.74678 20.1593 5.88791L21.0338 5.77302L21.0702 6.04964L20.8739 6.07543C20.9126 6.55447 20.8553 6.97048 20.696 7.32424C20.9006 7.54548 21.1278 7.70927 21.3749 7.81601L21.2455 8.07506C20.9951 7.96575 20.7645 7.79937 20.5599 7.57813C20.3893 7.84563 20.153 8.07336 19.8568 8.26053L19.6538 8.05118C19.9742 7.86386 20.2157 7.62941 20.3732 7.35455C20.2299 7.16157 20.1012 6.94246 19.9843 6.6976C19.9405 6.8244 19.8903 6.949 19.833 7.06545L19.648 6.87795L19.3803 6.91312L19.4701 7.59724C19.6074 7.53685 19.7384 7.47425 19.8634 7.41244L19.8978 7.67419C19.5521 7.85274 19.1454 8.02721 18.678 8.20057L18.5666 7.95195C18.6246 7.93224 18.6791 7.90994 18.737 7.89023L18.5589 6.53388L18.8236 6.4991L18.9936 7.79299C19.0686 7.76498 19.1376 7.73776 19.2066 7.71053L18.9964 6.11028L18.4223 6.1857L18.386 5.90908ZM20.4976 7.08101C20.5989 6.79236 20.6322 6.47027 20.5972 6.11178L20.1154 6.17508C20.1042 6.22799 20.0959 6.28051 20.0844 6.33045C20.2067 6.61695 20.3426 6.86839 20.4976 7.08101Z" fill="white"/>
<path d="M22.2496 5.73395L22.5244 5.75154C22.5006 5.91214 22.467 6.06799 22.4207 6.21949L22.6419 7.86671L22.3624 7.90424L22.2063 6.74167C22.1559 6.83925 22.1016 6.93129 22.044 7.02075L21.9048 6.72768C22.0865 6.41269 22.2025 6.08231 22.2496 5.73395ZM22.5793 6.13767L23.4296 6.02349L23.3773 5.63398L23.6539 5.59685L23.7062 5.98636L23.9916 5.94803L24.0283 6.22158L23.7429 6.2599L23.891 7.363C23.9197 7.57708 23.8334 7.70067 23.6342 7.72742L23.2328 7.78131L23.1336 7.51615C23.2597 7.50831 23.3824 7.49788 23.5014 7.48191C23.5816 7.47113 23.6169 7.41797 23.6049 7.32877L23.4664 6.29703L22.616 6.41121L22.5793 6.13767ZM23.8366 5.1546L23.8718 5.41625L21.7429 5.7021L21.8363 6.39786C21.9114 7.04764 21.8653 7.58354 21.695 8.00596L21.4554 7.84441C21.5929 7.49299 21.6265 7.02233 21.5568 6.43539L21.4282 5.47798L22.5194 5.33146C22.4801 5.26409 22.4382 5.2001 22.3976 5.14502L22.6974 5.05633C22.7342 5.12707 22.7721 5.20673 22.8108 5.29233L23.8366 5.1546ZM22.9056 6.58421C23.1052 6.76324 23.26 6.92408 23.3721 7.06036L23.1806 7.2344C23.0609 7.08702 22.9027 6.92361 22.7095 6.74676L22.9056 6.58421Z" fill="white"/>
<path d="M24.7216 5.89733L24.9846 5.96165C24.9344 6.3287 24.8432 6.61653 24.7084 6.82852L24.4724 6.67276C24.602 6.46752 24.6854 6.21103 24.7216 5.89733ZM25.1942 4.75868L25.4796 4.72006L25.5544 5.27302L26.4939 5.1459C26.5161 5.3548 26.5393 5.54844 26.5574 5.72762L26.7408 5.60594C26.9137 5.855 27.0874 6.13121 27.259 6.43796L27.0173 6.59782C26.8708 6.32096 26.7187 6.06909 26.5676 5.84734C26.5855 6.06895 26.6001 6.26677 26.6108 6.43486C26.6245 6.75996 26.6045 6.99274 26.5538 7.1328C26.5024 7.26691 26.4012 7.3472 26.2512 7.37961L25.9034 7.42668L25.7891 7.16363C25.891 7.1559 25.9865 7.146 26.0757 7.13393C26.2213 7.11422 26.3058 6.99986 26.3298 6.79681C26.3492 6.58227 26.319 6.13529 26.2425 5.45842L25.5795 5.54814C25.6138 6.02485 25.5828 6.42259 25.4867 6.74136C25.376 7.08633 25.1541 7.37065 24.8245 7.59689L24.6365 7.37106C24.95 7.13791 25.1497 6.8687 25.236 6.5664C25.3021 6.29408 25.3215 5.96753 25.2941 5.58676L24.5866 5.6825L24.5496 5.40899L25.269 5.31164L25.1942 4.75868Z" fill="white"/>
<path d="M28.0665 4.38881L28.3421 4.45777C28.2144 5.10752 27.9988 5.62076 27.6948 5.99451L27.4458 5.83117C27.7576 5.4473 27.9653 4.96539 28.0665 4.38881ZM29.396 5.81467C29.6531 6.10706 29.8859 6.42089 30.0892 6.76289L29.8406 6.91734C29.7862 6.82777 29.7347 6.73781 29.6811 6.6542C29.1742 6.80093 28.6083 6.9374 27.9776 7.06441L27.8903 6.79764C28.0922 6.70093 28.3256 6.2065 28.5932 5.31398L28.8825 5.37202C28.7121 5.90643 28.5245 6.35839 28.3258 6.7271C28.744 6.64071 29.1484 6.54105 29.5329 6.42892C29.4084 6.24584 29.2834 6.08101 29.1548 5.93481L29.396 5.81467ZM29.1308 4.22179C29.3699 4.7406 29.7148 5.14532 30.171 5.4322L29.9999 5.69125C29.5193 5.38041 29.1556 4.94794 28.9083 4.39088L29.1308 4.22179Z" fill="white"/>
<path d="M32.8941 3.82852L32.9299 4.10219L30.8685 4.37187L30.9833 5.24939C31.0519 5.8667 30.9886 6.37723 30.7963 6.78058L30.5572 6.61822C30.7131 6.28318 30.7608 5.83823 30.7007 5.28636L30.5501 4.13517L32.8941 3.82852ZM31.0598 4.77042L32.9457 4.5237L32.9807 4.79142L32.2549 4.88637L32.4254 6.18927C32.4545 6.41237 32.3652 6.53903 32.157 6.56627L31.8417 6.60752L31.7412 6.34836C31.8409 6.34742 31.9369 6.34091 32.0261 6.32924C32.1124 6.31795 32.15 6.25857 32.1368 6.15743L31.9753 4.92295L31.0948 5.03814L31.0598 4.77042Z" fill="white"/>
<path d="M33.8608 4.44031L34.1317 4.40639L34.1843 4.82611L34.4939 4.78733L34.5255 5.04036L34.216 5.07913L34.2585 5.41848C34.3891 5.37491 34.5133 5.32911 34.6287 5.28443L34.6622 5.55234C34.5439 5.59739 34.4196 5.64319 34.2924 5.68936L34.3718 6.32341L34.1009 6.35734L34.0282 5.77687C33.8593 5.82826 33.6814 5.88077 33.4969 5.92807L33.4265 5.65571C33.6259 5.60654 33.8161 5.55552 33.9939 5.50301L33.9451 5.11306L33.4688 5.17271L33.3779 4.93012C33.4352 4.75968 33.4843 4.54794 33.5218 4.2923L33.2598 4.32511L33.2255 4.05124L33.5589 4.00949C33.5712 3.89004 33.5827 3.76464 33.5905 3.63366L33.8632 3.6388C33.8536 3.7549 33.8436 3.86802 33.8328 3.97519L34.3686 3.90808L34.4029 4.18194L33.7957 4.258C33.7585 4.49243 33.7154 4.70343 33.6633 4.89135L33.9134 4.86003L33.8608 4.44031ZM34.4877 3.89317L34.9372 3.83687C34.9457 3.71184 34.9513 3.58719 34.9564 3.45955L35.2366 3.45167C35.2307 3.57335 35.224 3.68908 35.22 3.80146L35.9106 3.71496L35.9449 3.98882L35.1977 4.0824C35.1888 4.18026 35.1795 4.27515 35.1699 4.36707L36.054 4.25634L36.0879 4.52722L35.1353 4.64652C35.1168 4.76374 35.0974 4.87501 35.08 4.97697L36.0087 4.86065L36.0378 5.09283C35.9664 5.29527 35.847 5.5007 35.6744 5.71582C35.7898 5.76789 35.8999 5.82665 36.0071 5.88579L35.8799 6.14965C35.5435 5.94991 35.2074 5.80152 34.8688 5.70485L34.9926 5.46258C35.143 5.50422 35.2885 5.55554 35.4288 5.61355C35.5664 5.45724 35.6739 5.30167 35.7483 5.14723L34.76 5.27101C34.7968 5.08197 34.8265 4.88475 34.8555 4.68157L34.5043 4.72556L34.4703 4.45468L34.8901 4.40211C34.899 4.30425 34.9082 4.20936 34.9179 4.11744L34.522 4.16703L34.4877 3.89317Z" fill="white"/>
<path d="M36.4613 4.2462L36.5945 3.34853L36.8831 3.36293L36.793 3.93235L37.2339 3.88051C37.2646 3.65338 37.282 3.41573 37.289 3.1672L37.5823 3.16899C37.5742 3.40857 37.5554 3.63431 37.5289 3.84584L38.8935 3.68545L38.9254 3.95658L37.4893 4.12538C37.471 4.22721 37.4491 4.32342 37.4298 4.41631L38.6216 4.27623L38.6496 4.51459C38.6009 4.76801 38.4808 5.00565 38.2834 5.22822C38.5246 5.32674 38.8124 5.41072 39.1438 5.48051L39.0293 5.76582C38.6534 5.6771 38.3323 5.56683 38.0698 5.44061C37.8537 5.63215 37.5822 5.81509 37.2553 5.98944L37.0748 5.7388C37.3601 5.59652 37.6023 5.44722 37.7988 5.29424C37.587 5.16207 37.4213 5.01238 37.3053 4.84779C37.1426 5.31397 36.9128 5.69742 36.6189 5.99779L36.4421 5.75275C36.8105 5.34093 37.0593 4.81026 37.1883 4.16075L36.4613 4.2462ZM37.4927 4.6687C37.6117 4.83293 37.7859 4.97859 38.0149 5.1027C38.1848 4.92868 38.3026 4.7487 38.3657 4.56609L37.4927 4.6687ZM38.079 3.07738C38.3028 3.20815 38.4941 3.34575 38.6527 3.4872L38.4739 3.71362C38.3365 3.5727 38.1508 3.43142 37.9103 3.2875L38.079 3.07738Z" fill="white"/>
<path d="M40.3736 2.82314L40.651 2.79322L40.733 3.55381L40.4556 3.58373L40.3736 2.82314ZM39.8485 4.24967C39.7202 4.29066 39.5919 4.33166 39.4632 4.36968L39.3192 4.12571C40.2045 3.88539 40.8721 3.58407 41.3188 3.22208C41.212 3.15515 41.0993 3.08886 40.9806 3.02321L41.1518 2.82067C41.4789 2.99963 41.7612 3.18342 41.9926 3.36969L41.8172 3.59076C41.7337 3.51529 41.6411 3.44078 41.5367 3.36756C41.2909 3.57813 40.9914 3.76733 40.6357 3.93846L41.6916 3.82458L41.8663 5.44419L41.5889 5.47411L41.5767 5.36077L40.2613 5.50263L40.2742 5.62194L39.9997 5.65154L39.8485 4.24967ZM40.2343 5.25208L41.5496 5.11022L41.5281 4.91038L40.2127 5.05224L40.2343 5.25208ZM40.1883 4.82556L41.5036 4.68369L41.484 4.50175L40.1686 4.64361L40.1883 4.82556ZM40.1445 4.41991L41.4599 4.27805L41.4396 4.09014L40.1242 4.232L40.1445 4.41991ZM39.9237 3.04366L40.1425 3.19808C39.99 3.4348 39.7928 3.64918 39.5507 3.83823L39.3638 3.64415C39.5917 3.46267 39.7785 3.2645 39.9237 3.04366Z" fill="white"/>
<path d="M42.0509 3.13345L43.2542 3.01668C43.1627 2.88089 43.0541 2.75579 42.9281 2.63841L43.2017 2.50637C43.3231 2.63927 43.4411 2.79962 43.5528 2.98771L44.6845 2.8779L44.7117 3.15858L44.2549 3.20291C44.1556 3.67069 43.9804 4.07048 43.7295 4.40527C44.0647 4.62894 44.4734 4.80328 44.9495 4.92588L44.8144 5.18011C44.3163 5.0476 43.8945 4.86248 43.5519 4.62445C43.2434 4.95579 42.8498 5.21703 42.371 5.40816L42.1944 5.17211C42.666 4.99976 43.044 4.76416 43.3341 4.46172C42.9738 4.16513 42.7062 3.79927 42.5349 3.3698L42.0781 3.41413L42.0509 3.13345ZM42.8067 3.34343C42.9677 3.69854 43.2021 4.00132 43.5124 4.24851C43.7285 3.95929 43.8793 3.61913 43.9622 3.23131L42.8067 3.34343Z" fill="white"/>
<path d="M46.0132 2.24948L46.2898 2.35266C46.2087 2.60634 46.0968 2.85058 45.9538 3.08239L46.1195 5.05243L45.8384 5.07607L45.7007 3.43785C45.5886 3.57372 45.4674 3.70735 45.3367 3.83575L45.2221 3.54734C45.5963 3.16363 45.8611 2.73192 46.0132 2.24948ZM47.6635 4.86837L47.1044 4.91539C46.8653 4.93551 46.7356 4.82599 46.7155 4.58683L46.6451 3.74979C46.5423 3.81564 46.4364 3.88174 46.3274 3.94511L46.1762 3.68687C46.3316 3.60155 46.4808 3.51373 46.6172 3.41796L46.5194 2.25507L46.8034 2.23118L46.8864 3.2177C47.163 2.99874 47.4045 2.75565 47.6048 2.48892L47.821 2.69653C47.5616 3.01338 47.2609 3.30361 46.9153 3.56148L46.9963 4.52408C47.0033 4.60779 47.0517 4.64587 47.1473 4.63782L47.5927 4.60036C47.6615 4.59457 47.7103 4.56638 47.7394 4.51878C47.7655 4.47142 47.7731 4.31122 47.756 4.03569L48.0264 4.10025C48.0343 4.4458 48.0131 4.65833 47.9653 4.7346C47.9145 4.81113 47.8129 4.8558 47.6635 4.86837Z" fill="white"/>
<path d="M50.7964 2.01627L50.8158 2.29158L48.742 2.43818L48.8044 3.32098C48.8362 3.94128 48.7427 4.44714 48.5267 4.83834L48.2977 4.66205C48.4732 4.33686 48.5473 3.89554 48.5201 3.34108L48.4383 2.18297L50.7964 2.01627ZM48.9093 2.84741L50.8065 2.71329L50.8256 2.98262L50.0954 3.03423L50.1881 4.34496C50.2039 4.5694 50.1072 4.69052 49.8978 4.70533L49.5805 4.72775L49.4957 4.46308C49.5953 4.46807 49.6915 4.46728 49.7812 4.46094C49.868 4.4548 49.9091 4.39776 49.9019 4.29602L49.8141 3.05412L48.9283 3.11674L48.9093 2.84741Z" fill="white"/>
<path d="M51.7557 1.86533C51.8781 2.00858 51.9983 2.16697 52.1134 2.34068L51.933 2.44415L52.553 2.4087C52.6511 2.23181 52.7353 2.02266 52.8058 1.78425L53.0886 1.84319C53.034 2.04464 52.9603 2.22615 52.8735 2.39037L53.4426 2.35783L53.4583 2.63338L52.4819 2.68921L52.4872 2.78206C52.4895 2.92617 52.482 3.05881 52.4681 3.18281L53.6601 3.11464L53.6759 3.39019L52.6276 3.45014C52.7951 3.80415 53.1858 4.06728 53.7998 4.24251L53.6475 4.52166C53.0037 4.30005 52.5859 3.98139 52.388 3.56901C52.3421 3.71286 52.2834 3.84243 52.2117 3.9547C52.0235 4.23591 51.7028 4.46158 51.2498 4.63173L51.0799 4.39204C51.5325 4.21591 51.8332 4.0094 51.985 3.77235C52.0369 3.68224 52.0793 3.58366 52.1125 3.4796L51.0881 3.53818L51.0724 3.26263L52.1746 3.19959C52.1913 3.07243 52.2018 2.93962 52.1997 2.7985L52.1944 2.70566L51.215 2.76166L51.1992 2.48612L51.8402 2.44946C51.7314 2.2814 51.6179 2.13464 51.5023 2.00603L51.7557 1.86533Z" fill="white"/>
<path d="M54.4412 1.80489L56.7102 1.70904L56.722 1.98779L55.7658 2.02818L55.7967 2.75953L56.9627 2.71028L56.9747 2.99503L55.8087 3.04428L55.8519 4.06637C55.8608 4.27618 55.7544 4.38877 55.5356 4.39801L55.059 4.41814L54.9874 4.14492C55.1407 4.14745 55.2878 4.14724 55.4257 4.14142C55.5216 4.13737 55.5677 4.09038 55.5641 4.00646L55.524 3.0563L54.3071 3.10771L54.295 2.82296L55.512 2.77156L55.4811 2.04021L54.453 2.08364L54.4412 1.80489Z" fill="white"/>
<path d="M59.6061 1.94569L59.6718 4.24575L59.3959 4.25364L59.3905 4.06471L58.9167 4.07826L58.9221 4.26718L58.6492 4.27498L58.5835 1.97492L59.6061 1.94569ZM58.9089 3.80537L59.3827 3.79183L59.338 2.22647L58.8642 2.24001L58.9089 3.80537ZM57.4561 1.59297L57.738 1.58492L57.7546 2.16668L58.3574 2.14945C58.3853 3.12705 58.3876 3.73023 58.3642 3.962C58.3407 4.19076 58.194 4.309 57.9301 4.31654C57.8821 4.31791 57.804 4.31414 57.6958 4.30823L57.6164 4.0494C57.7186 4.05548 57.8057 4.05899 57.8777 4.05693C58.0036 4.05333 58.0765 3.97922 58.0936 3.84068C58.1076 3.69922 58.1032 3.23115 58.0864 2.43331L57.7625 2.44257C57.7695 3.31572 57.5928 3.96003 57.2296 4.37858L57.0113 4.19574C57.3339 3.82638 57.4913 3.24264 57.4806 2.45062L57.0248 2.46365L57.0169 2.18776L57.4727 2.17473L57.4561 1.59297Z" fill="white"/>
<path d="M61.3525 1.92658L61.8624 1.91951L61.8565 1.49055L62.1325 1.48672L62.1384 1.91568L62.7774 1.90682L62.7898 2.80674L62.9938 2.80391L62.9977 3.08288L62.2417 3.09336C62.4269 3.46583 62.7071 3.76798 63.0884 3.99671L62.8995 4.22435C62.5178 3.95962 62.2282 3.6276 62.0366 3.23122C61.9019 3.68313 61.6455 4.01972 61.2646 4.24702L61.0874 4.01545C61.4448 3.82148 61.6805 3.51518 61.7948 3.09956L61.2488 3.10713L61.245 2.82815L61.8479 2.8198C61.8642 2.69356 61.8713 2.56145 61.8694 2.42346L61.8661 2.18648L61.3562 2.19355L61.3525 1.92658ZM62.1421 2.18266L62.1445 2.35664C62.1468 2.51862 62.1369 2.67178 62.1209 2.81601L62.5139 2.81056L62.5051 2.17762L62.1421 2.18266ZM60.3587 2.09337L60.5779 2.10533C60.5761 2.40538 60.547 2.69381 60.4938 2.96458L60.2619 2.90179C60.3214 2.64594 60.3536 2.37546 60.3587 2.09337ZM61.1676 2.00715C61.2512 2.19801 61.3263 2.41899 61.3928 2.66709L61.1626 2.72729C61.1115 2.50297 61.0425 2.28791 60.9586 2.07905L61.1676 2.00715ZM60.6656 1.51006L60.9446 1.50619L60.9827 4.25393L60.7037 4.25779L60.6656 1.51006Z" fill="white"/>
<path d="M63.0799 2.55358L63.3709 2.55334L63.3703 1.91434L63.0343 1.91462L63.0341 1.64462L64.0241 1.6438L64.0243 1.9138L63.6583 1.9141L63.6589 2.5531L63.9529 2.55286L63.9531 2.82886L63.6591 2.8291L63.6596 3.4591C63.7856 3.423 63.9085 3.3869 64.0285 3.3448L64.0287 3.6208C63.7348 3.71704 63.4199 3.8013 63.0839 3.86758L63.0177 3.59463C63.1377 3.57654 63.2547 3.55544 63.3717 3.53134L63.3711 2.82934L63.0801 2.82958L63.0799 2.55358ZM64.4176 2.19848C64.3697 2.31552 64.3157 2.42656 64.2588 2.52861L64.0247 2.3788C64.1685 2.12368 64.2733 1.8476 64.336 1.55354L64.5971 1.61033C64.5702 1.72135 64.5433 1.82637 64.5133 1.9284L64.7773 1.92818L64.777 1.46318L65.053 1.46295L65.0533 1.92795L65.6203 1.92748L65.6206 2.19748L65.0536 2.19795L65.0539 2.62095L65.7439 2.62038L65.7441 2.89038L65.2191 2.89081C65.3394 3.20871 65.5376 3.49355 65.8078 3.74533L65.625 3.97048C65.3668 3.68269 65.1745 3.36485 65.0542 3.01695L65.0552 4.24095L64.7792 4.24118L64.7782 3.01718C64.6286 3.4073 64.4008 3.73149 64.095 3.99274L63.9478 3.74987C64.2477 3.52162 64.4694 3.23643 64.6131 2.89132L64.0431 2.89179L64.0429 2.62179L64.7779 2.62118L64.7776 2.19818L64.4176 2.19848Z" fill="white"/>
<path d="M68.0887 1.97624L67.3607 1.93888L67.3745 1.66924L69.0853 1.75703L69.0714 2.02667L68.3673 1.99054L68.2669 3.94697L69.0729 3.98832L69.0589 4.26097L67.0995 4.16041L67.1135 3.88777L67.9883 3.93267L68.0887 1.97624ZM66.725 1.50673C66.9273 1.66131 67.0999 1.81135 67.2364 1.95954L67.0284 2.15013C66.9095 2.00885 66.7371 1.85581 66.5142 1.69118L66.725 1.50673ZM66.6103 2.21879C66.8127 2.37337 66.9789 2.52909 67.1153 2.68028L66.9075 2.86787C66.7887 2.7236 66.6193 2.57072 66.3996 2.40324L66.6103 2.21879ZM66.8896 3.04118L67.1363 3.14997C66.9728 3.52609 66.7956 3.87747 66.6046 4.20411L66.3469 4.07373C66.5534 3.73887 66.7333 3.39364 66.8896 3.04118Z" fill="white"/>
<path d="M69.8208 1.86148L72.0944 2.09951L72.0653 2.37699L69.7917 2.13896L69.8208 1.86148ZM69.9136 2.90581L71.7843 3.10167L71.7553 3.37916L69.8845 3.1833L69.9136 2.90581ZM69.3806 3.96306L72.0838 4.24608L72.0541 4.52953L69.3509 4.24652L69.3806 3.96306Z" fill="white"/>
<path d="M72.9105 3.56305L72.9075 3.58383C72.8909 3.67843 72.8721 3.76666 72.8513 3.84852L73.4957 3.94117L73.5371 3.65313L72.9105 3.56305ZM72.7738 4.09198C72.6739 4.34433 72.5312 4.55718 72.3465 4.7246L72.1579 4.49745C72.4084 4.27281 72.5652 3.96197 72.6284 3.56491L72.7227 2.90866C72.654 2.94424 72.5856 2.97684 72.5173 3.00945L72.3673 2.76664C72.7502 2.61255 73.0911 2.3706 73.3926 2.04419L73.6683 2.15051C73.6181 2.20392 73.571 2.25776 73.5243 2.30863L74.5933 2.46233L74.5634 2.67019C74.4348 2.76384 74.3083 2.84264 74.1835 2.90956L74.8932 3.0116L74.6451 4.73686C74.6178 4.9269 74.4943 5.00613 74.2775 4.97496L73.9033 4.92117L73.8726 4.65003C74.002 4.67773 74.1199 4.70075 74.2327 4.71697C74.3189 4.72935 74.3702 4.68824 74.383 4.59916L74.4219 4.32894L73.7359 4.23031L73.6476 4.84499L73.3714 4.80529L73.4598 4.19061L72.7738 4.09198ZM74.4578 4.0795L74.4992 3.79147L73.8132 3.69284L73.7718 3.98088L74.4578 4.0795ZM74.535 3.54203L74.5803 3.22727L73.8943 3.12864L73.8491 3.44341L74.535 3.54203ZM73.0105 2.74091L73.7856 2.85235C73.912 2.79476 74.0398 2.72827 74.1693 2.6499L73.2963 2.52437C73.2003 2.6015 73.1048 2.67566 73.0105 2.74091ZM73.6182 3.08894L72.9916 2.99885L72.9464 3.31361L73.5729 3.4037L73.6182 3.08894Z" fill="white"/>
<path d="M76.2785 3.30567L76.4844 3.39962C76.4057 3.67516 76.2994 3.9337 76.1711 4.17924L75.9576 4.05957C76.0892 3.82985 76.1944 3.57722 76.2785 3.30567ZM75.8416 2.47982C76.0107 2.66175 76.1503 2.83851 76.2573 3.00956L76.0281 3.1704C75.9348 3.00785 75.7987 2.82866 75.6174 2.62936L75.8416 2.47982ZM75.6538 3.16875C75.8101 3.35452 75.9392 3.53858 76.0423 3.71503L75.8101 3.87535C75.7267 3.70844 75.601 3.52194 75.4296 3.31829L75.6538 3.16875ZM75.711 4.11077L75.9427 4.24884C75.7786 4.57644 75.6069 4.87833 75.427 5.15746L75.1842 4.99612C75.374 4.71263 75.5506 4.41769 75.711 4.11077ZM77.3097 2.79198L77.5579 2.83549L77.114 5.36788L76.8658 5.32438L77.3097 2.79198ZM77.9581 2.81122L78.227 2.85835L77.7495 5.58282L77.4806 5.53569L77.9581 2.81122ZM76.6952 2.61422L76.9641 2.66135L76.8066 3.55965C76.6538 4.37958 76.3738 4.95183 75.9671 5.27345L75.7846 5.04652C76.1509 4.76353 76.4018 4.25318 76.5377 3.51252L76.6952 2.61422ZM77.6229 3.55958C77.6451 3.79799 77.6558 4.04962 77.6575 4.31794L77.479 4.36281C77.4815 4.07085 77.4753 3.81087 77.4609 3.57993L77.6229 3.55958ZM77.0171 3.4534C77.0304 3.69026 77.0347 3.9438 77.0276 4.21057L76.8491 4.25544C76.8604 3.96503 76.8636 3.70366 76.8552 3.47375L77.0171 3.4534Z" fill="white"/>
<path d="M81.1594 3.98763C81.0363 4.6055 80.9442 4.97565 80.8855 5.1016C80.8274 5.22462 80.6815 5.26592 80.4461 5.21905L80.4344 5.21671L80.4065 4.92667C80.4647 4.94133 80.5141 4.95424 80.5583 4.96302C80.6142 4.97416 80.6559 4.94882 80.6794 4.89232C80.7017 4.84171 80.7475 4.64281 80.819 4.29915L80.4389 4.33359L80.2239 5.41339L79.9532 5.35948L80.1518 4.36207L79.7712 4.39945L79.5567 5.47631C79.5403 5.55869 79.5792 5.60925 79.6734 5.628L80.4678 5.7862C80.5148 5.79557 80.5543 5.78201 80.586 5.74551C80.6207 5.70959 80.6641 5.58365 80.7204 5.36238L80.9629 5.49632C80.8784 5.79763 80.8033 5.97537 80.7327 6.0225C80.6657 6.06727 80.5774 6.08028 80.4686 6.0586L79.5359 5.87287C79.3152 5.82893 79.2286 5.69544 79.272 5.47772L79.4812 4.42734L79.2629 4.44812L79.3174 4.17449L79.5356 4.15372L79.6769 3.44464L79.9505 3.49913L79.8263 4.12288L80.2069 4.0855L80.3692 3.2705L80.6399 3.32441L80.494 4.05702L81.1594 3.98763ZM79.2121 4.88765L79.1564 5.16717C78.8576 5.23919 78.5452 5.28711 78.2158 5.31327L78.2014 5.01675C78.3238 5.01665 78.4473 5.01067 78.5685 5.00115L78.7636 4.02139L78.4518 3.95928L78.5057 3.6886L78.8175 3.7507L78.9652 3.00926L79.2388 3.06375L79.0912 3.80519L79.3736 3.86144L79.3197 4.13213L79.0373 4.07588L78.8609 4.96149C78.978 4.94198 79.0962 4.91658 79.2121 4.88765Z" fill="white"/>
<path d="M82.3176 4.27911C82.533 4.53151 82.7337 4.78074 82.9139 5.02551C83.1102 4.85628 83.2918 4.65623 83.4592 4.4224L83.682 4.61196C83.4972 4.86963 83.2995 5.08767 83.0889 5.26607C83.258 5.50536 83.4118 5.74441 83.5457 5.97607L83.2817 6.14596C83.1641 5.92398 83.022 5.68747 82.8542 5.44232C82.5506 5.65275 82.2201 5.78978 81.8641 5.85991L81.7576 5.57279C82.0928 5.51351 82.4019 5.39025 82.6828 5.19946C82.5032 4.95176 82.2979 4.6954 82.0727 4.43166L82.3176 4.27911ZM81.7297 3.66349L84.081 4.17359L84.0232 4.44038L81.9386 3.98816L81.517 5.93194L83.6924 6.40388L83.6345 6.67068L81.1923 6.14086L81.7297 3.66349Z" fill="white"/>
<path d="M84.2563 4.58987L85.4345 4.86078C85.3908 4.70296 85.3275 4.54988 85.2453 4.39862L85.5465 4.36015C85.6195 4.52469 85.6806 4.7142 85.7269 4.928L86.835 5.18278L86.7718 5.45761L86.3245 5.35476C86.0819 5.76689 85.789 6.09048 85.4449 6.32843C85.6918 6.64686 86.0242 6.94183 86.4368 7.20908L86.2281 7.40735C85.7977 7.1237 85.4563 6.81434 85.2069 6.47995C84.8093 6.69636 84.3532 6.81928 83.8385 6.8487L83.7458 6.56882C84.2477 6.55493 84.6809 6.45137 85.052 6.25657C84.8044 5.86101 84.6666 5.42917 84.6404 4.96755L84.1931 4.8647L84.2563 4.58987ZM84.9065 5.02872C84.9466 5.41657 85.0728 5.77805 85.2887 6.11089C85.5853 5.90513 85.8363 5.63038 86.0379 5.28888L84.9065 5.02872Z" fill="white"/>
<path d="M88.0693 4.95201L88.2996 5.13674C88.1431 5.35221 87.9602 5.54903 87.7517 5.72427L87.2912 7.64689L87.0169 7.5812L87.3999 5.98242C87.2509 6.07631 87.0939 6.16518 86.9295 6.24612L86.9112 5.93632C87.3868 5.68931 87.7736 5.36241 88.0693 4.95201ZM88.815 7.95635L88.2695 7.82567C88.0361 7.76977 87.9473 7.62512 88.0032 7.39172L88.1989 6.57483C88.0806 6.6051 87.9593 6.63468 87.8359 6.66064L87.7733 6.36802C87.9476 6.33573 88.1168 6.29913 88.2764 6.25099L88.5483 5.11609L88.8254 5.18247L88.5948 6.14524C88.9262 6.02408 89.2317 5.86898 89.5056 5.67854L89.6457 5.94347C89.3001 6.163 88.9235 6.34427 88.5145 6.48075L88.2895 7.42018C88.2699 7.50187 88.3039 7.55319 88.3972 7.57556L88.8319 7.67967C88.899 7.69575 88.9542 7.68429 88.9968 7.64821C89.0364 7.61144 89.0939 7.4617 89.164 7.19469L89.4005 7.34079C89.2997 7.67141 89.2129 7.86655 89.1436 7.92399C89.0714 7.98073 88.9609 7.99129 88.815 7.95635Z" fill="white"/>
<path d="M91.0406 6.93648L90.4988 6.80318L90.2258 7.91309C90.2086 7.98301 90.2371 8.03019 90.3158 8.04954L90.8227 8.17424C90.9101 8.19574 90.9711 8.18605 91.0023 8.14737C91.037 8.10649 91.0789 8.01174 91.1271 7.86604L91.3649 8.01721C91.2792 8.26492 91.2063 8.41072 91.1409 8.45026C91.0829 8.4854 90.981 8.48506 90.8412 8.45066L90.1333 8.27652C89.9497 8.23137 89.8809 8.12176 89.9239 7.94697L90.2643 6.56323L90.0901 6.66866L89.9821 6.40421C90.3212 6.21885 90.6485 5.98114 90.9632 5.69401L91.1671 5.74417C91.3575 6.07524 91.5335 6.4151 91.689 6.76231L91.4618 6.90724C91.293 6.51351 91.1492 6.20627 91.024 5.987C90.8173 6.17405 90.5953 6.34806 90.3522 6.5076L91.3718 6.75842L91.174 7.56245C91.1316 7.72195 91.0235 7.78494 90.8458 7.75359C90.7322 7.72564 90.6251 7.69621 90.5246 7.6653L90.5214 7.38955C90.6263 7.42772 90.7181 7.45648 90.7997 7.47654C90.8667 7.49303 90.9102 7.46667 90.926 7.40258L91.0406 6.93648ZM91.967 6.19737L92.2379 6.26401L91.7958 8.06143L91.5249 7.99478L91.967 6.19737ZM91.8791 8.72761L91.4392 8.6194L91.4403 8.33853C91.5802 8.3853 91.7157 8.42481 91.8438 8.45634C91.9137 8.47354 91.9595 8.43844 91.9802 8.35396L92.5406 6.07588L92.8174 6.14396L92.2398 8.49196C92.1896 8.69588 92.0684 8.77419 91.8791 8.72761Z" fill="white"/>
<path d="M93.5953 6.74579L93.1413 6.63252L93.1994 6.39965L94.1599 6.63928C94.149 6.58399 94.1373 6.5316 94.1242 6.48504L94.4356 6.51326C94.4451 6.57438 94.4561 6.64204 94.4626 6.7148L95.4698 6.96604L95.4117 7.1989L94.9489 7.08345L94.8209 7.23704L95.5049 7.40768L95.4454 7.64636L92.9013 7.01172L92.9609 6.77304L93.6216 6.93787L93.5953 6.74579ZM93.9098 7.00976L94.5327 7.16515L94.6607 7.01156L93.8835 6.81768L93.9098 7.00976ZM93.1736 7.20949L95.1122 7.6931L94.8856 8.60127L92.947 8.11766L93.1736 7.20949ZM94.6672 8.32416L94.7035 8.17862L93.3063 7.83008L93.27 7.97561L94.6672 8.32416ZM93.3557 7.63214L94.7529 7.98069L94.7884 7.83806L93.3913 7.48951L93.3557 7.63214ZM92.8081 8.20359L93.0621 8.3257C92.9378 8.53895 92.7952 8.71365 92.6338 8.8527L92.4321 8.64471C92.5878 8.51657 92.7107 8.37099 92.8081 8.20359ZM94.1234 9.2645L93.4132 9.08733C93.189 9.03141 93.1038 8.90194 93.1532 8.70401L93.2462 8.33143L93.5256 8.40114L93.4472 8.7155C93.429 8.78827 93.4632 8.837 93.5535 8.85951L94.1327 9.00401C94.1851 9.01709 94.2259 9.01488 94.2513 8.99959C94.287 8.98065 94.3262 8.91006 94.3698 8.78489L94.6107 8.93465C94.5366 9.1326 94.4646 9.2476 94.3904 9.27237C94.3264 9.2935 94.2369 9.29282 94.1234 9.2645ZM93.9833 8.38853C94.0706 8.53401 94.1326 8.65767 94.1712 8.76316L93.9013 8.86589C93.8583 8.75313 93.7949 8.62292 93.7105 8.47817L93.9833 8.38853ZM94.8762 8.67622C94.9891 8.90535 95.0699 9.10177 95.1195 9.26254L94.8496 9.36527C94.7986 9.18558 94.7221 8.98407 94.6172 8.76002L94.8762 8.67622Z" fill="white"/>
<path d="M97.3235 7.22325C97.3409 7.32658 97.3525 7.44082 97.3641 7.56742L98.3739 7.82041L98.3083 8.08231L97.8194 7.95983C97.7575 8.08349 97.6846 8.20133 97.6016 8.31043L98.2739 8.47884L98.2068 8.74657L96.1406 8.22894L96.0422 8.6218C95.9169 9.07285 95.7231 9.414 95.456 9.64088L95.2902 9.40142C95.5028 9.21962 95.6601 8.93739 95.7629 8.55181L95.9284 7.89122L96.5162 8.03849L96.5098 7.63176L95.9918 7.50199L96.0575 7.24008L97.0818 7.49671C97.068 7.3912 97.047 7.29005 97.0208 7.1969L97.3235 7.22325ZM96.7897 8.10702L97.3368 8.24409C97.4198 8.13499 97.4926 8.01715 97.5546 7.89349L96.7805 7.69956L96.7897 8.10702Z" fill="white"/>
<path d="M99.8161 7.90897L100.093 7.97791L99.5222 10.2659L99.8715 10.353L100.442 8.06501L100.718 8.13395L100.148 10.4219L100.998 10.6338L100.93 10.9045L98.334 10.2572L98.4015 9.98646L99.2456 10.1969L99.8161 7.90897ZM101.128 8.81109L101.355 8.94192C101.119 9.41501 100.868 9.81608 100.6 10.148L100.374 9.99903C100.621 9.70201 100.875 9.30457 101.128 8.81109ZM99.1324 8.3074C99.1836 8.73448 99.2035 9.2125 99.1951 9.7422L98.9259 9.7431C98.9409 9.26142 98.9231 8.78703 98.8777 8.3243L99.1324 8.3074Z" fill="white"/>
<path d="M101.976 9.4149L102.416 8.62085L102.681 8.73553L102.397 9.23721L102.828 9.34326C102.936 9.14129 103.036 8.92481 103.13 8.69453L103.404 8.79899C103.312 9.02053 103.215 9.22536 103.116 9.41419L104.451 9.74235L104.385 10.0075L102.981 9.66209C102.929 9.75106 102.874 9.83349 102.824 9.91372L103.989 10.2003L103.932 10.4334C103.797 10.6536 103.601 10.8341 103.338 10.9733C103.53 11.1502 103.77 11.3297 104.056 11.5112L103.849 11.7383C103.528 11.5234 103.266 11.3076 103.064 11.0974C102.794 11.201 102.476 11.2771 102.109 11.3258L102.027 11.0278C102.345 10.9946 102.624 10.9397 102.861 10.8653C102.709 10.6672 102.607 10.469 102.556 10.2742C102.24 10.6537 101.89 10.9323 101.51 11.1106L101.43 10.8191C101.919 10.5626 102.338 10.1528 102.687 9.58973L101.976 9.4149ZM102.794 10.1721C102.848 10.3677 102.96 10.5651 103.131 10.7617C103.351 10.6582 103.524 10.531 103.648 10.3821L102.794 10.1721ZM103.901 8.88732C104.065 9.08825 104.196 9.2842 104.295 9.47228L104.048 9.62165C103.969 9.4415 103.844 9.24407 103.669 9.02499L103.901 8.88732Z" fill="white"/>
<path d="M105.168 10.3578L105.57 10.4548L105.626 10.2214L105.139 10.1041L105.086 10.3257C105.044 10.5007 104.991 10.6671 104.936 10.8204L105.452 10.9447L105.511 10.6997L105.109 10.6028L105.168 10.3578ZM104.84 11.0628C104.708 11.3673 104.549 11.6343 104.361 11.8607L104.185 11.6054C104.457 11.2822 104.664 10.8351 104.806 10.2583L105.042 9.27833L107.273 9.81584L107.091 10.5741L106.685 10.4765L106.629 10.7098L107.066 10.8152L107.007 11.0602L106.57 10.9548L106.511 11.1998L107.048 11.3291L106.987 11.5799L106.695 11.5096L106.825 11.7166C106.707 11.8057 106.586 11.8722 106.465 11.9169C106.593 12.0373 106.747 12.1393 106.931 12.2236L106.736 12.4545C106.244 12.1909 105.942 11.8064 105.826 11.3003L105.465 11.2131L105.331 11.7673C105.517 11.7657 105.683 11.7533 105.828 11.7295L105.819 11.9959C105.563 12.0207 105.266 12.0232 104.929 12.0036L104.911 11.7432C105.007 11.7293 105.066 11.6786 105.088 11.5853L105.193 11.1478L104.84 11.0628ZM106.106 11.3677C106.15 11.4925 106.209 11.6055 106.283 11.7096C106.41 11.6693 106.535 11.6005 106.658 11.5005L106.106 11.3677ZM106.417 10.4118L105.892 10.2854L105.836 10.5187L106.361 10.6452L106.417 10.4118ZM105.718 11.0087L106.243 11.1351L106.302 10.8902L105.777 10.7637L105.718 11.0087ZM106.932 10.0021L105.261 9.59953L105.199 9.85618L106.87 10.2588L106.932 10.0021Z" fill="white"/>
<path d="M108.64 10.5458L108.164 12.5788L107.899 12.5166L107.934 12.3647L107.473 12.2567L107.417 12.4933L107.151 12.431L107.647 10.3133L107.925 10.3782C108.014 10.2328 108.093 10.0817 108.156 9.91779L108.424 10.0207C108.358 10.1745 108.279 10.3133 108.191 10.4405L108.64 10.5458ZM107.533 11.9996L107.994 12.1076L108.129 11.5322L107.668 11.4242L107.533 11.9996ZM107.726 11.1759L108.187 11.2839L108.313 10.7464L107.852 10.6384L107.726 11.1759ZM109.002 11.3699C109.139 11.6546 109.239 11.8968 109.299 12.1019L109.044 12.2054C108.978 11.9866 108.876 11.7378 108.744 11.4575L109.002 11.3699ZM110.147 10.9015C109.911 11.9093 109.751 12.5281 109.667 12.7549C109.588 12.9584 109.424 13.0307 109.175 12.9726C109.117 12.9589 109.013 12.9285 108.869 12.8855L108.861 12.6156C108.989 12.6516 109.098 12.6834 109.192 12.7053C109.309 12.7326 109.39 12.687 109.436 12.5684C109.488 12.4265 109.612 11.9378 109.812 11.1067L109.079 10.935C108.956 11.0912 108.825 11.2299 108.68 11.35L108.565 11.092C108.823 10.8567 109.038 10.5464 109.202 10.1597L109.469 10.259C109.401 10.4157 109.325 10.5581 109.244 10.6902L110.147 10.9015Z" fill="white"/>
<path d="M111.842 11.4225L111.811 11.56C111.797 11.6244 111.821 11.6668 111.886 11.6813L112.597 11.8417C112.649 11.8536 112.694 11.8482 112.729 11.8285C112.765 11.8029 112.808 11.708 112.858 11.5438L113.097 11.6838C113.017 11.9273 112.94 12.0667 112.868 12.0996C112.799 12.1333 112.705 12.1369 112.588 12.1105L111.743 11.9197C111.555 11.8775 111.484 11.7568 111.529 11.5578L111.709 10.7589L111.978 10.8196L111.897 11.1796C112.253 11.1859 112.603 11.1603 112.945 11.1022L113.048 11.356C112.617 11.4096 112.215 11.4328 111.842 11.4225ZM110.38 13.2576L110.075 13.189L110.074 12.9088C110.165 12.9417 110.255 12.968 110.339 12.9871C110.41 13.003 110.456 12.9735 110.473 12.9003L110.613 12.277C110.487 12.2916 110.359 12.2996 110.231 12.3077L110.227 12.0145C110.377 12.0175 110.526 12.0112 110.676 11.999L110.813 11.3903L110.442 11.3064L110.502 11.0401L110.873 11.1239L110.992 10.5972L111.259 10.6572L111.14 11.184L111.441 11.252L111.381 11.5183L111.08 11.4503L110.963 11.9654C111.085 11.9466 111.206 11.9248 111.324 11.8959L111.26 12.1798C111.141 12.2022 111.022 12.2246 110.901 12.2405L110.723 13.0306C110.68 13.2238 110.564 13.2992 110.38 13.2576ZM112.831 12.3589L112.513 13.7665L112.235 13.7038L112.264 13.575L111.43 13.3869L111.401 13.5157L111.126 13.4536L111.444 12.046L112.831 12.3589ZM111.486 13.1411L112.32 13.3292L112.382 13.0541L111.548 12.866L111.486 13.1411ZM111.603 12.6202L112.437 12.8083L112.498 12.539L111.664 12.3509L111.603 12.6202Z" fill="white"/>
<path d="M113.195 12.7612L114.964 13.142L114.996 12.9924L115.278 13.053L115.246 13.2026L115.879 13.339L115.821 13.6088L115.187 13.4724L115.066 14.0384C115.026 14.2232 114.903 14.2949 114.703 14.252L114.334 14.1724L114.328 13.8858C114.443 13.9228 114.556 13.9533 114.662 13.976C114.738 13.9924 114.786 13.969 114.799 13.9104L114.906 13.4118L113.137 13.031L113.195 12.7612ZM115.772 11.7416L115.611 12.4866L113.937 12.126L113.905 12.2756C113.888 12.3548 113.92 12.4047 114.005 12.423L115.539 12.7532C115.586 12.7604 115.622 12.7497 115.646 12.7242C115.666 12.7039 115.696 12.6367 115.733 12.5219L115.978 12.6638C115.932 12.7949 115.891 12.8843 115.858 12.9386C115.799 13.0242 115.704 13.0528 115.571 13.0303L113.841 12.6577C113.641 12.6148 113.561 12.5024 113.6 12.3235L113.816 11.3205L115.772 11.7416ZM113.991 11.8738L115.387 12.1744L115.439 11.9339L114.043 11.6333L113.991 11.8738ZM113.863 13.2241C114.021 13.4147 114.151 13.599 114.25 13.777L113.994 13.9397C113.914 13.772 113.789 13.5825 113.622 13.3747L113.863 13.2241Z" fill="white"/>
<path d="M117.125 12.3375L116.666 12.2443L116.714 12.0091L117.684 12.2064C117.671 12.1516 117.657 12.0998 117.642 12.0539L117.954 12.0684C117.966 12.1291 117.98 12.1962 117.99 12.2686L119.007 12.4755L118.959 12.7107L118.492 12.6156L118.371 12.7746L119.062 12.9152L119.013 13.1562L116.443 12.6336L116.492 12.3925L117.16 12.5283L117.125 12.3375ZM117.451 12.5875L118.08 12.7154L118.201 12.5564L117.416 12.3967L117.451 12.5875ZM116.724 12.8193L118.682 13.2175L118.495 14.1347L116.537 13.7365L116.724 12.8193ZM118.265 13.8674L118.295 13.7205L116.884 13.4334L116.854 13.5804L118.265 13.8674ZM116.924 13.2335L118.335 13.5205L118.365 13.3765L116.954 13.0895L116.924 13.2335ZM116.402 13.8284L116.661 13.9393C116.546 14.1578 116.412 14.3385 116.257 14.4845L116.046 14.2856C116.196 14.1507 116.312 13.9999 116.402 13.8284ZM117.763 14.8307L117.045 14.6848C116.819 14.6388 116.728 14.5131 116.769 14.3132L116.845 13.9369L117.128 13.9943L117.063 14.3118C117.048 14.3853 117.085 14.4325 117.176 14.4511L117.761 14.5701C117.814 14.5808 117.854 14.5768 117.879 14.5604C117.914 14.54 117.95 14.4677 117.988 14.3407L118.235 14.4798C118.17 14.6808 118.103 14.7989 118.03 14.8269C117.967 14.8508 117.877 14.854 117.763 14.8307ZM117.584 13.9617C117.678 14.1032 117.745 14.2241 117.789 14.3277L117.523 14.4422C117.476 14.3314 117.406 14.2041 117.316 14.0632L117.584 13.9617ZM118.489 14.21C118.612 14.434 118.701 14.6267 118.758 14.7851L118.493 14.8996C118.434 14.7223 118.349 14.5243 118.234 14.3051L118.489 14.21Z" fill="white"/>
<path d="M121.4 12.8815L121.086 14.5288L120.803 14.4748L121.065 13.1016L119.834 12.8666L119.571 14.2428L119.288 14.1888L119.603 12.5385L121.4 12.8815ZM120.258 13.1217L120.535 13.1745L120.43 13.7256C120.394 13.8836 120.349 14.0246 120.293 14.1546L120.544 14.2023L120.411 14.8978C120.39 15.0068 120.418 15.0701 120.495 15.0847L120.925 15.1668C120.96 15.1736 120.998 15.1656 121.033 15.1447C121.071 15.1214 121.118 15.0021 121.171 14.7863L121.423 14.9259C121.336 15.2055 121.262 15.3656 121.202 15.4091C121.134 15.445 121.05 15.4564 120.948 15.4432L120.368 15.3324C120.156 15.2919 120.074 15.145 120.122 14.8945L120.242 14.2639C120.149 14.4477 120.038 14.5975 119.905 14.7187C119.663 14.9292 119.312 15.0576 118.85 15.1099L118.744 14.8455C119.206 14.7932 119.537 14.6761 119.734 14.4937C119.93 14.299 120.067 14.0259 120.153 13.6727L120.258 13.1217Z" fill="white"/>
<path d="M123.285 13.6151L122.924 15.6716L122.655 15.6244L122.682 15.4707L122.215 15.3887L122.173 15.6281L121.904 15.5808L122.28 13.4386L122.561 13.4879C122.642 13.3377 122.712 13.1825 122.766 13.0153L123.04 13.103C122.982 13.2603 122.911 13.4032 122.83 13.5352L123.285 13.6151ZM122.261 15.1287L122.727 15.2107L122.83 14.6286L122.363 14.5466L122.261 15.1287ZM122.407 14.2955L122.874 14.3775L122.969 13.8338L122.502 13.7518L122.407 14.2955ZM123.692 14.4177C123.845 14.6942 123.958 14.9305 124.03 15.1318L123.781 15.2495C123.703 15.0348 123.587 14.7921 123.44 14.5195L123.692 14.4177ZM124.809 13.8859C124.63 14.9053 124.505 15.532 124.434 15.7632C124.367 15.9708 124.206 16.0522 123.955 16.0081C123.896 15.9977 123.791 15.9731 123.644 15.9383L123.622 15.6693C123.751 15.6981 123.862 15.7237 123.956 15.7403C124.075 15.7611 124.153 15.711 124.193 15.59C124.237 15.4453 124.333 14.9505 124.487 14.1094L123.745 13.9792C123.631 14.1419 123.508 14.2878 123.37 14.4158L123.24 14.1646C123.485 13.9152 123.682 13.5934 123.824 13.1981L124.096 13.2824C124.037 13.4426 123.969 13.589 123.896 13.7255L124.809 13.8859Z" fill="white"/>
<path d="M125.652 13.5525C125.829 13.7415 125.973 13.9254 126.085 14.1011L125.855 14.2651C125.76 14.0982 125.62 13.9118 125.431 13.7056L125.652 13.5525ZM126.934 16.4779C126.771 16.452 126.594 16.4208 126.405 16.3877C126.213 16.3541 126.059 16.3114 125.939 16.262C125.826 16.2076 125.734 16.12 125.661 16.0052C125.627 15.9482 125.595 15.9189 125.56 15.9132C125.498 15.9033 125.37 16.0197 125.176 16.2624L124.999 16.0368C125.186 15.8204 125.343 15.6905 125.471 15.65L125.604 14.8116L125.207 14.7485L125.249 14.4877L125.909 14.5927L125.731 15.7127C125.744 15.7269 125.757 15.744 125.769 15.7642C125.824 15.855 125.886 15.9255 125.954 15.9758C126.036 16.0314 126.162 16.0788 126.336 16.1125C126.505 16.1423 126.703 16.1768 126.934 16.2135C127.079 16.2366 127.228 16.2571 127.376 16.2777C127.525 16.2983 127.641 16.3107 127.722 16.3175L127.61 16.5852L126.934 16.4779ZM126.797 14.0351L126.225 13.9442L126.262 13.7101L127.889 13.9686L127.857 14.1671C127.662 14.2879 127.458 14.3832 127.246 14.4588C127.251 14.4656 127.256 14.4695 127.261 14.4764L127.857 14.571L127.648 15.8865C127.62 16.0613 127.508 16.1347 127.316 16.1041L127.087 16.0678L127.065 15.8244L127.274 15.8696C127.339 15.88 127.38 15.853 127.39 15.7879L127.414 15.6367L126.988 15.569L126.91 16.0549L126.653 16.0139L126.73 15.528L126.312 15.4616L126.234 15.9535L125.967 15.9111L126.221 14.3112L126.903 14.4194C126.815 14.3387 126.717 14.2532 126.605 14.1687L126.797 14.0351ZM127.095 14.2981C127.23 14.2557 127.356 14.2029 127.475 14.1428L126.812 14.0374C126.913 14.1264 127.009 14.2115 127.095 14.2981ZM126.381 15.0261L126.348 15.2335L126.766 15.2999L126.799 15.0925L126.381 15.0261ZM127.057 15.1334L127.024 15.3408L127.45 15.4086L127.483 15.2012L127.057 15.1334ZM127.52 14.9701L127.553 14.7627L127.126 14.6949L127.093 14.9023L127.52 14.9701ZM126.836 14.8614L126.869 14.654L126.451 14.5876L126.418 14.795L126.836 14.8614Z" fill="white"/>
<path d="M130.683 14.576L130.354 16.8929L130.081 16.8541L130.105 16.6848L129.585 16.6112L129.561 16.7835L129.288 16.7448L129.616 14.4249L130.683 14.576ZM129.623 16.3468L130.143 16.4205L130.372 14.8016L129.852 14.728L129.623 16.3468ZM128.5 14.6273C128.411 14.7661 128.314 14.8918 128.213 15.0048L127.989 14.8125C128.219 14.5602 128.398 14.2795 128.523 13.9701L128.794 14.0691C128.748 14.1777 128.698 14.2766 128.648 14.3726L129.459 14.4875L129.421 14.7578L129.017 14.7005C128.985 14.8839 128.951 15.0549 128.911 15.2098L129.375 15.2754L129.336 15.5457L128.834 15.4746C128.813 15.5383 128.789 15.6015 128.769 15.6592C128.924 15.8691 129.079 16.1001 129.237 16.3528L129.028 16.5898C128.881 16.3023 128.755 16.0755 128.652 15.9093C128.483 16.2035 128.234 16.438 127.901 16.6089L127.749 16.3571C128.09 16.1721 128.332 15.9215 128.477 15.6027C128.497 15.548 128.52 15.4907 128.54 15.4329L127.955 15.35L127.993 15.0797L128.62 15.1685C128.66 15.0136 128.694 14.8426 128.726 14.6593L128.5 14.6273Z" fill="white"/>
<path d="M131.55 14.3726L131.997 15.8383L131.211 17.1541L130.986 17.0179L131.711 15.8035L131.298 14.4508L131.55 14.3726ZM132.059 14.4345L132.506 15.9002L131.721 17.216L131.495 17.0798L132.22 15.8654L131.796 14.5113L132.059 14.4345Z" fill="white"/>
</svg>
