<svg width="135" height="18" viewBox="0 0 135 18" fill="none" xmlns="http://www.w3.org/2000/svg">
<path d="M2.12002 7.07108L2.38111 7.15475L1.92108 8.4973L2.61386 9.73028L2.38516 9.86051L1.63438 8.52456L2.12002 7.07108ZM2.63072 7.02254L2.87986 7.10734L2.43178 8.44876L3.12456 9.68174L2.89586 9.81197L2.14507 8.47601L2.63072 7.02254Z" fill="white"/>
<path d="M3.53671 8.2896L3.61887 9.08336C3.85801 9.00432 4.11113 8.91478 4.37167 8.80939L4.47314 9.06128C4.11661 9.20073 3.74957 9.32619 3.37534 9.44033L3.23754 9.21633C3.30514 9.17013 3.33508 9.10972 3.32736 9.03512L3.13985 7.2238C3.50668 7.12551 3.83883 7.01271 4.136 6.88242L4.33553 7.09098C4.07891 7.20501 3.78226 7.31112 3.44589 7.41229L3.5086 8.01805L4.3322 7.9328L4.36031 8.20435L3.53671 8.2896ZM5.4937 9.13057L5.2132 9.1596L5.10719 8.8931L5.37339 8.87158C5.45098 8.86355 5.48514 8.81477 5.47649 8.73122L5.31648 7.18548L4.72862 7.24633L4.97142 9.5918L4.68495 9.62145L4.41435 7.00742L5.57515 6.88726L5.76914 8.76124C5.7923 8.98505 5.6996 9.10925 5.4937 9.13057Z" fill="white"/>
<path d="M6.52824 7.60847L6.66587 6.71148L6.95444 6.72733L6.86144 7.29629L7.30266 7.24667C7.33449 7.01969 7.35306 6.78213 7.36135 6.53365L7.65455 6.53691C7.64526 6.77644 7.62535 7.00208 7.5978 7.21348L8.96319 7.05995L8.9937 7.33124L7.55675 7.49282C7.538 7.59455 7.5156 7.69066 7.49585 7.78345L8.68833 7.64936L8.71515 7.88785C8.66513 8.14103 8.54385 8.37806 8.34537 8.59963C8.58602 8.69936 8.87337 8.78479 9.20442 8.85625L9.08851 9.14098C8.71304 9.05037 8.39253 8.93848 8.13064 8.81095C7.91356 9.0014 7.64114 9.18298 7.31339 9.35568L7.13416 9.10413C7.42021 8.96329 7.66319 8.81521 7.86044 8.66322C7.64923 8.52998 7.48437 8.37946 7.3692 8.2143C7.20416 8.67965 6.97243 9.06194 6.67698 9.36083L6.5014 9.11491C6.87191 8.70494 7.12333 8.17553 7.25565 7.52668L6.52824 7.60847ZM7.55747 8.03614C7.67563 8.20097 7.84909 8.34751 8.07752 8.47277C8.24824 8.29961 8.36693 8.12022 8.43096 7.93792L7.55747 8.03614ZM8.15171 6.44779C8.37484 6.57969 8.56552 6.71825 8.7234 6.8605L8.54348 7.08601C8.4068 6.9444 8.22175 6.80219 7.98203 6.65707L8.15171 6.44779Z" fill="white"/>
<path d="M11.3715 6.05574L11.6227 6.13436L11.2079 7.48644L11.9309 8.70192L11.7055 8.83776L10.9219 7.52077L11.3715 6.05574Z" fill="white"/>
<path d="M13.4252 5.78059C13.4853 5.87275 13.5469 5.97681 13.6104 6.09575L14.6788 5.95992L14.7136 6.23372L12.5322 6.51105L12.612 7.139C12.6863 7.79486 12.6577 8.33075 12.5235 8.75002L12.2585 8.56899C12.3717 8.22195 12.3941 7.7564 12.3263 7.17532L12.2117 6.27357L13.2979 6.13548C13.2404 6.03997 13.1807 5.95079 13.1165 5.87427L13.4252 5.78059Z" fill="white"/>
<path d="M15.2092 5.93308L15.9407 5.83557C15.9758 5.71286 16.0071 5.58459 16.038 5.45335L16.3289 5.47814C16.3011 5.58777 16.2759 5.69403 16.247 5.79474L17.7279 5.59733L17.7643 5.87091L16.1556 6.08537C16.0644 6.35478 15.9543 6.59644 15.8314 6.80955L16.5273 6.71679L16.473 6.30939L16.7555 6.27173L16.8098 6.67913L17.7286 6.55664L17.7639 6.8213L16.845 6.94379L16.9644 7.83887C16.9909 8.03811 16.9003 8.15309 16.6922 8.18084L16.3829 8.22206L16.2836 7.95383C16.3803 7.95304 16.4733 7.9467 16.5595 7.93521C16.6428 7.92411 16.6823 7.8795 16.6727 7.80814L16.5625 6.98145L15.5693 7.11385L15.4702 6.8698C15.613 6.66918 15.74 6.4192 15.8463 6.12659L15.2456 6.20666L15.2092 5.93308ZM16.0084 7.25204L16.2277 7.39835C16.0723 7.6854 15.8653 7.94906 15.6123 8.18556L15.3996 7.97482C15.6494 7.75993 15.8532 7.51788 16.0084 7.25204ZM17.3573 7.06315C17.6491 7.25427 17.9019 7.44756 18.1104 7.64978L17.9326 7.88232C17.749 7.68585 17.504 7.48244 17.1942 7.26952L17.3573 7.06315Z" fill="white"/>
<path d="M19.2463 5.04061L19.5227 5.00249L19.6273 5.76032L19.3509 5.79844L19.2463 5.04061ZM18.7638 6.48206C18.6367 6.52685 18.5096 6.57163 18.3821 6.61344L18.231 6.37384C19.1088 6.10741 19.7671 5.78645 20.203 5.41138C20.0942 5.34764 19.9796 5.28472 19.859 5.22261L20.0242 5.0151C20.3564 5.18429 20.644 5.35963 20.8808 5.53897L20.7121 5.76514C20.6263 5.69217 20.5316 5.62044 20.425 5.55034C20.1856 5.76811 19.8919 5.96609 19.5414 6.14768L20.5934 6.00258L20.816 7.6163L20.5396 7.65442L20.524 7.54149L19.2134 7.72226L19.2298 7.84113L18.9564 7.87884L18.7638 6.48206ZM19.179 7.47262L20.4896 7.29186L20.4621 7.09274L19.1515 7.2735L19.179 7.47262ZM19.1204 7.04764L20.431 6.86688L20.406 6.68559L19.0954 6.86636L19.1204 7.04764ZM19.0646 6.64347L20.3752 6.4627L20.3494 6.27548L19.0388 6.45624L19.0646 6.64347ZM18.8031 5.27436L19.0264 5.42224C18.881 5.66337 18.6903 5.88349 18.4539 6.07963L18.2613 5.89117C18.4837 5.70302 18.6646 5.4994 18.8031 5.27436Z" fill="white"/>
<path d="M22.8878 6.37412L22.3352 6.45194L22.2967 6.17864L23.69 5.98243L23.7285 6.25573L23.173 6.33396L23.2529 6.90136L23.945 6.80389L23.9839 7.08016L22.3204 7.31444L22.2815 7.03817L22.9677 6.94153L22.8878 6.37412ZM23.018 5.51355C22.8293 5.72191 22.5858 5.90768 22.288 6.07383L22.0772 5.86721C22.5817 5.59923 22.915 5.27661 23.074 4.89975L22.1055 5.03614L22.0675 4.7658L23.3746 4.58172L23.406 4.80453C23.3581 4.98092 23.2818 5.14921 23.1767 5.3064C23.4289 5.41933 23.6455 5.53728 23.8323 5.65942L23.6537 5.89665C23.4931 5.76778 23.2813 5.64008 23.018 5.51355ZM22.2176 6.7139L22.2544 6.97532C21.9902 7.16402 21.689 7.32761 21.3451 7.46693L21.268 7.19907C21.6361 7.05937 21.9525 6.89666 22.2176 6.7139ZM21.4142 4.73056L21.6996 4.79944C21.6072 5.176 21.5056 5.48721 21.394 5.72712C21.5022 5.69976 21.61 5.66943 21.7178 5.63909C21.7571 5.53056 21.7955 5.41608 21.8365 5.29822L22.1083 5.35688C21.9266 5.85207 21.7659 6.21704 21.6237 6.45519C21.7991 6.38808 21.9749 6.30273 22.152 6.20508L22.188 6.46056C21.8894 6.62076 21.6032 6.73983 21.3239 6.82159L21.2136 6.57657C21.2612 6.54866 21.299 6.51607 21.3301 6.47837C21.4113 6.36695 21.5029 6.17833 21.6112 5.91465L21.1714 6.04021L21.0667 5.79138C21.1058 5.7677 21.1394 5.72662 21.1679 5.67109C21.2729 5.38365 21.3533 5.0724 21.4142 4.73056Z" fill="white"/>
<path d="M24.2909 4.37302C24.5085 4.49669 24.6933 4.625 24.8514 4.75709L24.6781 4.98773C24.5386 4.85904 24.353 4.7248 24.121 4.58499L24.2909 4.37302ZM24.3127 5.06077C24.5248 5.18826 24.7037 5.31741 24.8559 5.45035L24.6825 5.68098C24.5516 5.54806 24.3748 5.41255 24.1488 5.2719L24.3127 5.06077ZM24.7311 5.93771L25.0008 6.00245C24.9199 6.37149 24.8241 6.72141 24.713 7.04926L24.4293 6.97135C24.5539 6.63248 24.6535 6.28807 24.7311 5.93771ZM26.2855 5.55354L26.5618 5.51435L26.7409 6.77671L26.4646 6.8159L26.2855 5.55354ZM24.9145 4.51787L25.657 4.41252C25.6036 4.33525 25.5481 4.26434 25.4909 4.20277L25.7842 4.11269C25.8375 4.18995 25.8892 4.27655 25.9451 4.37164L26.6728 4.2684L26.7108 4.53572L26.4761 4.56901C26.436 4.77771 26.3383 4.96429 26.1824 5.12579C26.3949 5.17139 26.6457 5.18733 26.9287 5.17445L26.8635 5.44125C26.5016 5.4532 26.1932 5.41515 25.9417 5.32963C25.7209 5.48215 25.4386 5.60704 25.0898 5.71107L24.9415 5.47758C25.2305 5.40022 25.4691 5.30881 25.6601 5.20293C25.4621 5.08861 25.3103 4.93742 25.2019 4.74979L24.9524 4.78519L24.9145 4.51787ZM25.4662 4.71229C25.5713 4.85494 25.7172 4.96454 25.9038 5.04109C26.0609 4.90972 26.1645 4.76472 26.2088 4.60694L25.4662 4.71229ZM25.3991 5.69143L25.6724 5.65266L25.7057 5.88731C25.7393 6.16735 25.7238 6.39984 25.6587 6.58178C25.5945 6.74846 25.4747 6.88665 25.2969 6.99976L25.1117 6.78363C25.2671 6.68281 25.3656 6.5658 25.4077 6.43559C25.449 6.29945 25.4551 6.1289 25.4324 5.92608L25.3991 5.69143Z" fill="white"/>
<path d="M29.6704 3.76076L30.0136 6.19973L29.7403 6.23819L29.7098 6.02133L29.0652 6.11206L29.1007 6.36457L28.8304 6.40262L28.4821 3.928L29.6704 3.76076ZM29.0275 5.84469L29.6722 5.75396L29.4343 4.06362L28.7896 4.15435L29.0275 5.84469ZM27.2229 4.73234L27.719 4.66252L27.6688 4.30603C27.5351 4.34606 27.3976 4.38057 27.2626 4.41168L27.1379 4.17171C27.5904 4.07168 27.9483 3.94556 28.2155 3.7989L28.3822 4.01477C28.2382 4.08957 28.0904 4.15884 27.935 4.21707L27.9923 4.62406L28.4765 4.5559L28.5137 4.8203L28.0295 4.88845L28.0462 5.00728C28.2331 5.12943 28.4254 5.26899 28.6232 5.42595L28.4911 5.69297C28.3307 5.52165 28.1965 5.38603 28.0847 5.28058L28.2624 6.54314L27.9891 6.58161L27.8198 5.37846C27.736 5.64473 27.6138 5.89522 27.4588 6.12909L27.2936 5.83728C27.5215 5.56283 27.6762 5.26234 27.7583 4.94177L27.7562 4.92691L27.2601 4.99674L27.2229 4.73234Z" fill="white"/>
<path d="M30.4668 4.66745C30.4034 4.77912 30.3371 4.8912 30.2618 5.00449L30.128 4.714C30.3541 4.33167 30.5036 3.8993 30.5745 3.42323L30.8562 3.51172C30.818 3.74104 30.7612 3.96687 30.6824 4.18664L30.9592 6.20172L30.6828 6.23969L30.4668 4.66745ZM30.839 3.78358L31.7098 3.66395C31.6573 3.56821 31.5992 3.47626 31.5357 3.38809L31.7959 3.27664C31.8767 3.40181 31.941 3.51713 31.9892 3.62558L32.7917 3.51534L32.828 3.77986L30.8753 4.0481L30.839 3.78358ZM31.1707 4.19224L32.6003 3.99586L32.635 4.24849L31.2054 4.44487L31.1707 4.19224ZM31.2283 4.61131L32.6578 4.41492L32.6929 4.67052L31.2634 4.8669L31.2283 4.61131ZM32.7811 4.84919L32.9289 5.92509L32.6554 5.96265L32.6342 5.8081L31.6237 5.94691L31.6449 6.10146L31.3715 6.13902L31.2237 5.06313L32.7811 4.84919ZM31.5874 5.6824L32.5979 5.54358L32.5436 5.1483L31.5331 5.28711L31.5874 5.6824Z" fill="white"/>
<path d="M33.4096 3.27243L34.0669 3.18581C34.0928 3.10675 34.1098 3.02886 34.1204 2.94879L34.42 2.94865C34.4107 3.01644 34.3922 3.08242 34.3703 3.14583L35.3132 3.02158L35.5111 4.52359L33.6076 4.77445L33.4096 3.27243ZM35.2057 4.31873L35.1802 4.1254L33.824 4.30414L33.8494 4.49747L35.2057 4.31873ZM33.7942 4.0781L35.1504 3.89936L35.1258 3.71198L33.7695 3.89072L33.7942 4.0781ZM33.7401 3.66764L35.0964 3.48891L35.0713 3.29855L33.715 3.47729L33.7401 3.66764ZM33.4697 4.96812L33.7444 4.98638C33.7095 5.2724 33.6457 5.52288 33.5474 5.7416L33.2895 5.62127C33.3893 5.41445 33.4481 5.19488 33.4697 4.96812ZM35.0594 5.5968L34.304 5.69636C34.1077 5.72223 33.997 5.63999 33.9719 5.44963L33.9002 4.90534L34.1857 4.86771L34.2496 5.35252C34.2574 5.412 34.2915 5.4408 34.351 5.43296L34.9726 5.35104C35.0291 5.34359 35.0658 5.32363 35.0827 5.29114C35.1107 5.25114 35.1178 5.14429 35.1036 4.96763L35.3856 5.01822C35.3952 5.27417 35.3705 5.43174 35.3151 5.49351C35.2615 5.54596 35.1784 5.58112 35.0594 5.5968ZM34.569 4.69919C34.7343 4.8287 34.8642 4.9417 34.9564 5.04453L34.7648 5.22107C34.6651 5.10713 34.537 4.98481 34.3776 4.85452L34.569 4.69919ZM35.529 4.63622C35.738 4.8447 35.8989 5.03228 36.0168 5.19225L35.8145 5.37928C35.6883 5.20226 35.527 5.01169 35.3269 4.80204L35.529 4.63622Z" fill="white"/>
<path d="M36.7968 2.60008L37.0773 2.69225C37.0063 2.94894 36.9042 3.19741 36.7704 3.43469L37.0138 5.39665L36.7339 5.43137L36.5315 3.79988C36.4249 3.94006 36.3091 4.07838 36.1836 4.21185L36.0577 3.92819C36.4164 3.52999 36.6639 3.08816 36.7968 2.60008ZM38.5493 5.15173L37.9926 5.2208C37.7544 5.25035 37.6205 5.14603 37.591 4.90786L37.4876 4.07425C37.3874 4.14412 37.2843 4.21435 37.1778 4.28197L37.0165 4.02991C37.1684 3.93851 37.314 3.84488 37.4466 3.74379L37.3029 2.58566L37.5857 2.55057L37.7076 3.53304C37.9753 3.30333 38.207 3.05088 38.3967 2.77644L38.6209 2.97535C38.3742 3.30221 38.0852 3.60409 37.7501 3.87542L37.869 4.83407C37.8794 4.91743 37.9292 4.95357 38.0244 4.94175L38.468 4.88671C38.5365 4.87822 38.5842 4.84812 38.6114 4.7994C38.6356 4.75105 38.6369 4.59067 38.6089 4.31603L38.8816 4.36987C38.9032 4.71483 38.8903 4.92803 38.8456 5.00613C38.7979 5.0846 38.6982 5.13326 38.5493 5.15173Z" fill="white"/>
<path d="M40.5558 3.00447L40.5409 3.00617L40.5982 3.50691L40.318 3.53895L40.2608 3.03822L40.2459 3.03992C40.0831 3.30614 39.7708 3.55926 39.3058 3.79664L39.1155 3.55872C39.5072 3.39314 39.7817 3.23191 39.9448 3.07435L39.1878 3.16093L39.1574 2.89566L40.2304 2.77294L40.2086 2.58219C39.9533 2.62044 39.6768 2.65811 39.3847 2.69151L39.2729 2.45367C40.036 2.36641 40.6724 2.25437 41.1881 2.11688L41.3525 2.33965C41.1039 2.41035 40.8152 2.47356 40.4871 2.53524L40.5106 2.7409L41.6015 2.61614L41.6318 2.88141L40.8599 2.9697C41.0799 3.09853 41.38 3.18801 41.7662 3.23746L41.6687 3.52037C41.17 3.41131 40.8001 3.23924 40.5558 3.00447ZM39.2037 3.90795L40.0472 3.81148C40.0917 3.72487 40.1365 3.64124 40.1756 3.56127L40.4594 3.61337L40.3781 3.77365L41.776 3.61378L41.8063 3.87905L41.2788 3.93938C41.1949 4.13015 41.1013 4.28881 40.995 4.4157C41.248 4.46227 41.5112 4.51973 41.7791 4.59175L41.6299 4.84435C41.3394 4.75981 41.0502 4.68719 40.7658 4.62913C40.4717 4.85602 40.069 5.00474 39.5577 5.0753L39.3714 4.84598C39.7887 4.79825 40.1309 4.70174 40.3985 4.55942C40.1519 4.51515 39.9066 4.48281 39.662 4.45643C39.7385 4.33294 39.8127 4.21576 39.8838 4.09891L39.2341 4.17322L39.2037 3.90795ZM40.2177 4.06073C40.1666 4.14207 40.1208 4.21675 40.0769 4.28216C40.2721 4.29909 40.4773 4.32394 40.6868 4.36038C40.8066 4.24702 40.9036 4.11816 40.9747 3.97415L40.2177 4.06073Z" fill="white"/>
<path d="M44.2195 2.86414L44.3366 3.99509L44.0561 4.02413L43.9658 3.15279L42.4708 3.30757L42.5657 4.22368L42.2852 4.25272L42.1635 3.077L44.2195 2.86414ZM42.2382 2.08L43.9421 1.9036L44.0246 2.70034L42.3207 2.87675L42.2382 2.08ZM43.7247 2.48407L43.6935 2.18268L42.5387 2.30224L42.5699 2.60363L43.7247 2.48407ZM43.1165 3.39756L43.4058 3.39475C43.4104 3.84669 43.3487 4.15467 43.221 4.3187C43.0909 4.51916 42.7395 4.6792 42.1692 4.79253L42.0319 4.54435C42.5098 4.47074 42.8199 4.34816 42.959 4.17693C43.0781 4.01681 43.1297 3.75811 43.1165 3.39756ZM43.5385 4.0355C43.9372 4.09978 44.3023 4.18865 44.6397 4.3015L44.509 4.55331C44.1512 4.41844 43.7881 4.3203 43.4202 4.26188L43.5385 4.0355Z" fill="white"/>
<path d="M46.1631 1.59517L46.3722 1.57622C46.786 1.95443 47.2458 2.24112 47.7574 2.43575L47.627 2.7247C47.4393 2.64832 47.2658 2.56162 47.1001 2.46216L47.1204 2.68624L45.6355 2.82077L45.6141 2.58473C45.4631 2.71288 45.2995 2.83614 45.1235 2.95451L44.9462 2.69344C45.4452 2.38315 45.852 2.01796 46.1631 1.59517ZM45.656 2.54781L47.0363 2.42276C46.762 2.25482 46.5125 2.06054 46.2907 1.83965C46.1178 2.09328 45.9073 2.32924 45.656 2.54781ZM45.1965 3.1949L47.6166 2.97566L47.6415 3.25053L46.2492 3.37667C46.1372 3.63683 46.0013 3.86603 45.8418 4.06724C46.2699 4.00436 46.6789 3.93115 47.075 3.84708C46.9748 3.73867 46.8656 3.63108 46.7472 3.52132L46.9556 3.36086C47.2543 3.63202 47.4867 3.87002 47.6559 4.07459L47.435 4.26329C47.3772 4.19021 47.3161 4.11441 47.252 4.03889C46.7954 4.15255 46.2179 4.2621 45.5226 4.36726L45.4227 4.1293C45.4898 4.10515 45.5352 4.07393 45.5621 4.03836C45.7063 3.83551 45.8259 3.62587 45.9205 3.40644L45.2214 3.46978L45.1965 3.1949Z" fill="white"/>
<path d="M48.7229 1.39328C48.8481 1.53407 48.9715 1.69004 49.09 1.86143L48.9117 1.96846L49.5309 1.92069C49.6254 1.74189 49.7054 1.53111 49.7712 1.29134L50.0551 1.34465C50.0045 1.54714 49.9344 1.73008 49.8509 1.89599L50.4192 1.85214L50.4405 2.12732L49.4653 2.20256L49.4725 2.29529C49.4776 2.43932 49.4728 2.57209 49.4613 2.69634L50.6518 2.60448L50.673 2.87966L49.6261 2.96044C49.8006 3.31106 50.1964 3.56636 50.8138 3.72935L50.6671 4.01147C50.0191 3.80271 49.595 3.49242 49.3889 3.08406C49.3459 3.22879 49.2898 3.3595 49.2204 3.47318C49.0377 3.75807 48.7217 3.99008 48.2721 4.16919L48.0974 3.93293C48.5465 3.74783 48.843 3.53539 48.99 3.29537C49.0401 3.20424 49.0806 3.10484 49.1117 3.00014L48.0887 3.07907L48.0675 2.80389L49.1682 2.71896C49.1824 2.59148 49.1902 2.45849 49.1854 2.31744L49.1782 2.22472L48.2001 2.30019L48.1789 2.02501L48.819 1.97562C48.7069 1.80975 48.5904 1.66528 48.4724 1.53899L48.7229 1.39328Z" fill="white"/>
<path d="M50.9046 1.3142L53.171 1.16995L53.1888 1.44839L52.2337 1.50918L52.2802 2.2397L53.4448 2.16557L53.4629 2.45L52.2983 2.52412L52.3633 3.54506C52.3766 3.75463 52.2727 3.86947 52.0541 3.88338L51.5781 3.91367L51.5007 3.64204C51.6539 3.6413 51.801 3.63796 51.9387 3.62919C52.0345 3.62309 52.0796 3.57514 52.0743 3.4913L52.0139 2.54222L50.7983 2.61959L50.7802 2.33516L51.9958 2.2578L51.9493 1.52728L50.9223 1.59264L50.9046 1.3142Z" fill="white"/>
<path d="M54.3611 2.18395C54.2795 2.29606 54.1917 2.40545 54.0948 2.51229L53.9871 2.21418C54.2761 1.8577 54.4846 1.45108 54.6093 0.98847L54.8851 1.10119C54.8211 1.32957 54.7327 1.55013 54.6229 1.76272L54.7204 3.76435L54.4387 3.77806L54.3611 2.18395ZM54.8936 1.33806L55.4689 1.31004L55.5322 0.943535L55.8121 0.956935C55.7939 1.07496 55.7723 1.18715 55.7536 1.29618L56.6166 1.25417L56.63 1.52984L55.6951 1.57536C55.6699 1.6757 55.6475 1.7699 55.6249 1.86111L56.7665 1.80553L56.7798 2.0782L55.5483 2.13817C55.5119 2.25407 55.478 2.36085 55.4409 2.46177L56.6335 2.40371L56.6454 2.64941C56.5349 2.84702 56.3615 3.04769 56.1193 3.25472C56.2483 3.31451 56.3747 3.38045 56.4952 3.44967L56.3453 3.70326C55.9678 3.47535 55.5809 3.30196 55.1905 3.1798L55.3324 2.94762C55.5154 3.00479 55.6928 3.07124 55.8644 3.14098C56.0672 2.98694 56.228 2.83494 56.3437 2.68213L55.0852 2.7434C55.154 2.55383 55.2165 2.35556 55.2756 2.15144L54.8022 2.17449L54.7889 1.90182L55.3492 1.87453C55.3717 1.78033 55.3941 1.68613 55.4134 1.58907L54.907 1.61373L54.8936 1.33806Z" fill="white"/>
<path d="M57.8102 2.8876L57.8198 3.16044C57.5518 3.30791 57.2439 3.43276 56.8991 3.52889L56.8561 3.24522C57.2191 3.15146 57.5391 3.03218 57.8102 2.8876ZM57.2168 0.85813L57.4934 0.956509C57.362 1.31833 57.2283 1.61419 57.0921 1.8411C57.1937 1.82553 57.2951 1.80697 57.3964 1.78541C57.444 1.68769 57.4943 1.58086 57.5444 1.46804L57.8026 1.55506C57.5787 2.01918 57.3895 2.36201 57.2322 2.58365C57.4163 2.52617 57.6029 2.45359 57.7918 2.36293L57.801 2.62377C57.4819 2.77002 57.1762 2.87078 56.8871 2.92894L56.8029 2.66773C56.853 2.64196 56.894 2.6135 56.9289 2.57926C57.0183 2.47707 57.1293 2.30208 57.2617 2.05429C57.1246 2.08311 56.9814 2.10913 56.8323 2.13537L56.7512 1.87705C56.7955 1.85749 56.8361 1.81704 56.8702 1.76182C57.0048 1.48994 57.1203 1.18871 57.2168 0.85813ZM57.876 2.19488L57.8042 1.94524C57.828 1.9384 57.8487 1.92867 57.8604 1.92225C57.9481 1.85314 58.059 1.67815 58.1905 1.40338L57.7258 1.41966L57.7162 1.14683L58.4448 1.12131C58.4054 1.02663 58.3633 0.93805 58.3184 0.855572L58.6075 0.797416C58.6499 0.891992 58.6925 0.995562 58.7326 1.11123L59.3892 1.08823L59.3987 1.36107L58.4873 1.39299C58.3809 1.61285 58.2848 1.78132 58.199 1.90439C58.441 1.8719 58.6828 1.83341 58.9214 1.78904C58.8585 1.70719 58.7957 1.62834 58.7329 1.54949L58.9441 1.40701C59.1509 1.65492 59.3117 1.87443 59.4263 2.06253L59.2098 2.22321C59.1714 2.15551 59.127 2.08802 59.0825 2.01754C58.7128 2.08752 58.3096 2.14667 57.876 2.19488ZM58.1011 2.28005L58.3769 2.27039C58.3753 2.65168 58.3371 2.93219 58.2653 3.11181C58.1849 3.30074 58.0467 3.46768 57.8476 3.61274L57.6598 3.39418C57.824 3.28036 57.9394 3.14724 58.0061 2.99481C58.07 2.84849 58.1007 2.61027 58.1011 2.28005ZM59.2431 3.51584L59.0512 3.52256C58.8383 3.53001 58.73 3.43775 58.7234 3.24886L58.6876 2.22649L58.9604 2.21693L58.9944 3.18534C58.996 3.23331 59.0151 3.26266 59.0513 3.2674L59.2192 3.26152C59.2729 3.25363 59.3045 3.2135 59.308 3.14133C59.3142 3.06007 59.3161 2.94293 59.3108 2.79302L59.5597 2.87136C59.5698 3.15918 59.5519 3.33392 59.5122 3.40135C59.4724 3.46278 59.3806 3.49901 59.2431 3.51584Z" fill="white"/>
<path d="M61.2696 1.23276L60.2648 1.25315L60.2593 0.98021L62.5598 0.933513L62.5654 1.20646L61.5576 1.22691L61.5946 3.05054L62.7913 3.02625L62.7969 3.30219L60.1125 3.35668L60.1069 3.08074L61.3066 3.05638L61.2696 1.23276Z" fill="white"/>
<path d="M62.8203 0.969937L63.4983 0.965014L63.4964 0.704021L63.7874 0.701908L63.7893 0.962901L64.5093 0.957673L64.5074 0.69668L64.7984 0.694567L64.8002 0.95556L65.4782 0.950637L65.4802 1.21763L64.8022 1.22255L64.8039 1.45955L64.5129 1.46166L64.5112 1.22467L63.7912 1.22989L63.7929 1.46689L63.5019 1.469L63.5002 1.23201L62.8222 1.23693L62.8203 0.969937ZM63.0977 1.57994L65.0897 1.56547L65.0917 1.83847C64.27 2.29445 63.7385 2.64031 63.5002 2.87605C63.4227 2.95462 63.3782 3.01794 63.3636 3.07205C63.3639 3.11705 63.3881 3.14087 63.4421 3.14048L64.915 3.12978C64.996 3.1292 65.0589 3.10774 65.1006 3.06844C65.1423 3.03213 65.1771 2.85787 65.2048 2.54566L65.4696 2.65175C65.4391 2.99998 65.3836 3.21038 65.3002 3.28299C65.2197 3.35258 65.0999 3.38945 64.9439 3.39058L63.459 3.40136C63.195 3.40328 63.0653 3.31122 63.064 3.12522C63.063 2.99923 63.1609 2.84851 63.3517 2.67312C63.602 2.4403 64.026 2.16421 64.6177 1.84191L63.0997 1.85293L63.0977 1.57994Z" fill="white"/>
<path d="M66.3425 0.973816L66.9868 1.00273C66.9519 0.911069 66.9136 0.828268 66.869 0.751192L67.1708 0.716687C67.2089 0.805482 67.2434 0.906131 67.2775 1.01577L67.8559 1.04172C67.9052 0.947836 67.9457 0.847552 67.9744 0.743733L68.2784 0.79641C68.2472 0.888106 68.2074 0.973405 68.1586 1.0553L68.782 1.08327L68.7704 1.34101L67.6945 1.29274L67.6843 1.52051L68.6014 1.56166L68.5904 1.80741L67.6733 1.76626L67.6629 1.99703L68.8377 2.04974L68.8259 2.31348L66.1886 2.19515L66.2004 1.93141L67.3752 1.98412L67.3856 1.75335L66.4775 1.71261L66.4885 1.46686L67.3966 1.5076L67.4068 1.27983L66.3309 1.23156L66.3425 0.973816ZM67.3818 2.30574L67.6682 2.34862C67.6566 2.40516 67.6421 2.46156 67.6247 2.51484L68.7485 2.56526L68.7364 2.83499L67.7474 2.79062C67.9407 3.03353 68.3142 3.20944 68.8679 3.31837L68.706 3.58138C68.0703 3.42673 67.6609 3.18013 67.475 2.83845C67.4072 2.94352 67.3282 3.03307 67.2346 3.10995C67.029 3.2749 66.6782 3.3973 66.1761 3.47688L66.0717 3.19291C66.5007 3.13708 66.8142 3.04304 67.0095 2.90766C67.0715 2.86239 67.1216 2.81659 67.166 2.76453L66.234 2.72271L66.2461 2.45298L67.325 2.50139C67.3489 2.4364 67.3669 2.37114 67.3818 2.30574Z" fill="white"/>
<path d="M69.3871 1.53232L70.5217 1.64373L70.5894 0.954045L70.87 0.981603L70.8023 1.67129L71.9398 1.78298L71.9132 2.05468L71.0354 1.96849C71.1807 2.45301 71.4624 2.89968 71.8805 3.30849L71.6659 3.52857C71.2161 3.0443 70.9179 2.52064 70.7742 1.95791L70.5994 3.73735L70.3188 3.70979L70.4929 1.93632C70.2163 2.51205 69.8067 2.96921 69.2643 3.30481L69.134 3.03578C69.6135 2.75731 69.9827 2.37455 70.2352 1.88992L69.3604 1.80402L69.3871 1.53232ZM71.3564 1.03238C71.509 1.22823 71.6251 1.39638 71.7048 1.53683L71.462 1.67578C71.3811 1.51711 71.2656 1.34299 71.122 1.14802L71.3564 1.03238Z" fill="white"/>
<path d="M73.6427 1.28105C73.6713 1.38187 73.6952 1.49417 73.7205 1.61876L74.7519 1.76028L74.7152 2.02778L74.2158 1.95926C74.1678 2.08893 74.1082 2.21399 74.0376 2.33148L74.7242 2.42569L74.6866 2.69913L72.5764 2.40957L72.5213 2.81081C72.4458 3.27283 72.2904 3.63305 72.0496 3.88767L71.8587 3.66768C72.0502 3.46382 72.1758 3.16613 72.236 2.77165L72.3286 2.09698L72.929 2.17936L72.8784 1.77573L72.3493 1.70314L72.386 1.43565L73.4322 1.5792C73.4071 1.47582 73.3751 1.37757 73.339 1.28782L73.6427 1.28105ZM73.2084 2.2177L73.7671 2.29437C73.8377 2.17688 73.8973 2.05182 73.9454 1.92215L73.1548 1.81366L73.2084 2.2177Z" fill="white"/>
<path d="M76.2539 1.73412L76.5349 1.78152L76.1428 4.10668L76.4978 4.16655L76.8899 1.84139L77.171 1.88879L76.7788 4.21395L77.6426 4.35964L77.5962 4.63475L74.9575 4.18971L75.0039 3.9146L75.8618 4.05929L76.2539 1.73412ZM77.6313 2.53232L77.8679 2.64522C77.6696 3.13508 77.4498 3.55437 77.208 3.90604L76.9715 3.77489C77.195 3.45967 77.4173 3.04384 77.6313 2.53232ZM75.603 2.18414C75.687 2.60599 75.7438 3.08105 75.7763 3.60982L75.508 3.63149C75.4857 3.15009 75.4314 2.67848 75.3504 2.22064L75.603 2.18414Z" fill="white"/>
<path d="M79.0168 2.17042L79.2587 2.34223C79.1496 2.54425 79.025 2.73108 78.8816 2.9051L78.4938 4.92012L78.2109 4.86569L78.5148 3.28667C78.4079 3.38217 78.2961 3.47065 78.1791 3.55505L78.145 3.23993C78.4995 2.95376 78.7911 2.59745 79.0168 2.17042ZM79.3779 2.38961L80.8038 2.66403L80.6155 3.64208L80.0381 3.53095L79.9882 3.7902L80.8131 3.94895L80.7609 4.21997L80.1865 4.10941C80.2886 4.40403 80.453 4.67701 80.6825 4.92893L80.4528 5.13829C80.2306 4.83278 80.0668 4.47742 79.9596 4.06576L79.9361 4.06122L79.7263 5.15122L79.4494 5.09792L79.6592 4.00793L79.6326 4.00282C79.3694 4.3707 79.0789 4.64169 78.7613 4.8158L78.651 4.53183C78.9383 4.40384 79.1888 4.21374 79.4087 3.95973L78.8638 3.85485L78.9159 3.58382L79.7113 3.7369L79.7612 3.47766L79.1897 3.36767L79.3779 2.38961ZM80.3902 3.3207L80.4753 2.87881L79.6033 2.71099L79.5182 3.15288L80.3902 3.3207Z" fill="white"/>
<path d="M81.133 5.40313L80.8394 5.34141L80.8345 5.05836C80.9208 5.08568 81.0076 5.11007 81.0898 5.12735C81.1573 5.14154 81.2 5.11372 81.2148 5.04326L81.3456 4.42086C81.226 4.43557 81.1071 4.44735 80.9887 4.45619L80.9769 4.16248C81.1181 4.16151 81.2606 4.15467 81.4042 4.14196L81.5332 3.52837L81.1868 3.45554L81.243 3.18838L81.5894 3.26121L81.7011 2.72982L81.98 2.78845L81.8683 3.31984L82.1648 3.38217L82.1086 3.64933L81.8121 3.587L81.7035 4.1037C81.8185 4.08188 81.934 4.05713 82.0502 4.02944L81.9916 4.30834C81.876 4.3331 81.7604 4.35785 81.6461 4.37674L81.4789 5.17235C81.4381 5.36611 81.3209 5.44263 81.133 5.40313ZM83.5552 3.73882L82.5775 3.53331L82.4739 4.02653L83.4515 4.23204L83.5552 3.73882ZM82.4148 4.29307C82.2932 4.81318 82.0748 5.23938 81.758 5.56518L81.5861 5.33285C81.8583 5.05898 82.0462 4.67544 82.1541 4.17696L82.3571 3.21107L82.9825 3.34253C82.9648 3.22233 82.9453 3.11093 82.9181 3.00711L83.2245 3.02247C83.2404 3.13618 83.2539 3.26164 83.2643 3.40177L83.8808 3.53138L83.6654 4.55598L82.4148 4.29307Z" fill="white"/>
<path d="M86.617 3.97149L86.0806 6.37536L85.8112 6.31525L85.8589 6.10151L85.2235 5.95972L85.168 6.2086L84.9015 6.14914L85.4458 3.71013L86.617 3.97149ZM85.2823 5.6962L85.9177 5.83799L86.2895 4.17197L85.6541 4.03018L85.2823 5.6962ZM83.9842 4.02023L84.4732 4.12935L84.5516 3.77799C84.4123 3.76843 84.2714 3.75236 84.1341 3.73402L84.1018 3.46554C84.5606 3.53102 84.94 3.53885 85.2417 3.49551L85.3218 3.75623C85.1607 3.77561 84.998 3.78848 84.832 3.78833L84.7425 4.18946L85.2198 4.29597L85.1616 4.55656L84.6844 4.45005L84.6582 4.56717C84.7902 4.74723 84.9211 4.94552 85.0511 5.16202L84.8336 5.36552C84.7436 5.14873 84.6657 4.97457 84.5981 4.83655L84.3204 6.08094L84.0511 6.02082L84.3157 4.83499C84.1437 5.05481 83.9411 5.24628 83.7138 5.41073L83.6617 5.07943C83.9717 4.90269 84.2221 4.67579 84.4117 4.40458L84.415 4.38994L83.926 4.28082L83.9842 4.02023Z" fill="white"/>
<path d="M86.9432 4.84837L87.3726 4.04889L87.6393 4.16024L87.3615 4.66544L87.794 4.76608C87.8998 4.56278 87.9967 4.34507 88.0875 4.11363L88.3628 4.21465C88.274 4.43732 88.1798 4.64335 88.0833 4.8334L89.4215 5.14484L89.3596 5.41073L87.9513 5.08297C87.8996 5.1726 87.8464 5.2557 87.7968 5.33655L88.9655 5.60855L88.9111 5.84231C88.7794 6.06422 88.5859 6.24713 88.3248 6.38965C88.5183 6.56405 88.7606 6.74057 89.0488 6.91852L88.8444 7.14817C88.5208 6.93732 88.256 6.72479 88.0518 6.51709C87.7836 6.62408 87.4661 6.70421 87.0995 6.7575L87.0146 6.46053C87.3313 6.42334 87.6098 6.36494 87.8465 6.28758C87.6919 6.09144 87.5868 5.89449 87.5334 5.70034C87.2224 6.08382 86.8763 6.36673 86.498 6.54974L86.4146 6.25929C86.9008 5.99665 87.3146 5.58166 87.6561 5.01429L86.9432 4.84837ZM87.7704 5.59532C87.8267 5.79015 87.9413 5.98622 88.1147 6.18059C88.3335 6.07441 88.5053 5.94499 88.6265 5.79456L87.7704 5.59532ZM88.8611 4.29675C89.0274 4.49561 89.1608 4.68991 89.2621 4.87673L89.0172 5.02918C88.9357 4.85004 88.8088 4.65418 88.6313 4.43731L88.8611 4.29675Z" fill="white"/>
<path d="M90.3703 5.81132L90.773 5.90763L90.8288 5.67422L90.3415 5.55767L90.2885 5.77942C90.2466 5.95448 90.1945 6.12091 90.1393 6.27428L90.6557 6.3978L90.7144 6.15272L90.3117 6.05641L90.3703 5.81132ZM90.0443 6.51683C89.9128 6.8216 89.7532 7.08882 89.5664 7.31557L89.3898 7.06051C89.6616 6.73684 89.8673 6.28943 90.0084 5.71242L90.2429 4.73207L92.4749 5.26595L92.2935 6.02455L91.8879 5.92754L91.8321 6.16096L92.2698 6.26564L92.2111 6.51073L91.7735 6.40605L91.7149 6.65113L92.2517 6.77954L92.1917 7.03046L91.8999 6.96068L92.0294 7.16746C91.9124 7.2567 91.7916 7.32342 91.6698 7.36832C91.7983 7.48853 91.9529 7.59028 92.1364 7.67427L91.9423 7.90545C91.4499 7.64271 91.1469 7.25869 91.0305 6.75271L90.6687 6.66617L90.5361 7.22054C90.7216 7.21864 90.8881 7.20603 91.0326 7.182L91.0245 7.4484C90.7686 7.47357 90.4717 7.4766 90.1339 7.45749L90.116 7.19717C90.2119 7.1831 90.2703 7.13229 90.2926 7.03893L90.3973 6.60127L90.0443 6.51683ZM91.3106 6.81971C91.3548 6.94441 91.4141 7.05732 91.4879 7.16134C91.6149 7.12076 91.7393 7.05182 91.862 6.9516L91.3106 6.81971ZM91.6195 5.86334L91.0943 5.73772L91.0385 5.97114L91.5637 6.09676L91.6195 5.86334ZM90.9212 6.46131L91.4464 6.58693L91.5051 6.34184L90.9799 6.21622L90.9212 6.46131ZM92.1341 5.45279L90.4623 5.05291L90.4009 5.30967L92.0727 5.70955L92.1341 5.45279Z" fill="white"/>
<path d="M92.8762 5.47061L93.3689 5.59015L93.4177 5.38899L93.6859 5.45407L93.6371 5.65523L94.5788 5.88372L94.6276 5.68256L94.8958 5.74764L94.847 5.9488L95.3397 6.06835L95.2831 6.30158L94.7904 6.18203L94.569 7.09456L95.1054 7.22472L95.0474 7.46378L94.4906 7.32867C94.5981 7.5091 94.7717 7.67161 95.007 7.82132L94.8353 8.0328C94.6553 7.89653 94.5132 7.75708 94.4067 7.61084L94.3487 7.8499L93.7802 7.71196L93.7243 7.94228L94.701 8.17926L94.6387 8.43581L92.3968 7.89183L92.459 7.63527L93.4561 7.8772L93.512 7.64688L92.9376 7.50753L92.9942 7.27429C92.8398 7.35104 92.6619 7.40976 92.4629 7.45407L92.3766 7.18617C92.6616 7.15655 92.8852 7.08732 93.0533 6.97992L92.4965 6.84481L92.5545 6.60575L93.0909 6.73591L93.3123 5.82339L92.8196 5.70384L92.8762 5.47061ZM93.0087 7.26546L93.5714 7.40199L93.6209 7.19791L93.8891 7.26299L93.8396 7.46707L94.4023 7.6036C94.3185 7.49067 94.2566 7.37686 94.2166 7.26217L93.3244 7.04571C93.2333 7.12857 93.1291 7.20205 93.0087 7.26546ZM93.3591 6.80099L94.3008 7.02948L94.339 6.87204L93.3973 6.64356L93.3591 6.80099ZM93.4497 6.42782L94.3913 6.6563L94.4295 6.49887L93.4879 6.27039L93.4497 6.42782ZM93.5402 6.05465L94.4819 6.28313L94.5222 6.11695L93.5805 5.88847L93.5402 6.05465Z" fill="white"/>
<path d="M98.194 7.11922C98.0448 7.7313 97.9371 8.09721 97.8731 8.22056C97.8098 8.34099 97.6623 8.37606 97.4291 8.31924L97.4175 8.3164L97.4019 8.02544C97.4595 8.04256 97.5083 8.05755 97.5521 8.06821C97.6074 8.0817 97.6502 8.05817 97.6761 8.00271C97.7005 7.95309 97.7547 7.75631 97.8407 7.416L97.4595 7.43427L97.1988 8.50397L96.9307 8.43862L97.1715 7.45053L96.7896 7.47172L96.5296 8.5385C96.5097 8.62011 96.5464 8.67228 96.6397 8.69501L97.4267 8.8868C97.4733 8.89816 97.5133 8.88628 97.5465 8.85116C97.5827 8.81675 97.6314 8.69276 97.6971 8.47409L97.9337 8.6182C97.8365 8.91565 97.7539 9.09004 97.6814 9.13413C97.6125 9.17601 97.5238 9.18527 97.4159 9.15899L96.492 8.93382C96.2734 8.88055 96.1925 8.74351 96.2451 8.52782L96.4987 7.48727L96.2797 7.49876L96.3458 7.22769L96.5647 7.21621L96.7359 6.51376L97.007 6.57982L96.8564 7.19774L97.2383 7.17655L97.435 6.36918L97.7032 6.43453L97.5263 7.16029L98.194 7.11922ZM96.2103 7.93574L96.1428 8.21264C95.8412 8.27191 95.5271 8.30652 95.1968 8.31867L95.195 8.02181C95.3173 8.0269 95.441 8.02617 95.5625 8.02181L95.799 7.05122L95.49 6.97592L95.5554 6.70777L95.8644 6.78306L96.0434 6.04856L96.3144 6.11462L96.1354 6.84912L96.4152 6.91731L96.3499 7.18547L96.0701 7.11728L95.8563 7.9946C95.9741 7.98008 96.0933 7.95972 96.2103 7.93574Z" fill="white"/>
<path d="M100.402 7.11206L100.681 7.17994C100.621 7.43067 100.555 7.66471 100.485 7.87621C100.462 8.63019 100.586 9.26526 100.856 9.78142L100.601 9.96658C100.403 9.5234 100.291 9.02068 100.26 8.45771L100.21 8.56576C99.983 9.04178 99.6355 9.39276 99.1656 9.62456L99.0342 9.3519C99.4358 9.14678 99.7371 8.84633 99.9439 8.45195C100.111 8.11897 100.263 7.67113 100.402 7.11206ZM99.1093 6.80177C99.2641 6.99059 99.3898 7.17233 99.4857 7.34993L99.2495 7.49639C99.1661 7.33108 99.0411 7.14642 98.8709 6.94462L99.1093 6.80177ZM98.5194 7.55394L99.1929 7.71726L98.8973 8.93594C99.0061 8.88206 99.1235 8.81792 99.2525 8.74425L99.2532 9.04694C99.0249 9.1737 98.7892 9.28015 98.5424 9.36848L98.4975 9.09521C98.557 9.06641 98.5953 9.02321 98.6101 8.96198L98.8632 7.91824L98.455 7.81925L98.5194 7.55394Z" fill="white"/>
<path d="M102.095 8.39186L103.828 8.80633L103.765 9.06892L103.047 8.89728L102.943 9.33493L103.783 9.53589L103.72 9.79848L102.88 9.59753L102.751 10.1344C102.943 10.211 103.181 10.2835 103.473 10.3562C103.618 10.3911 103.772 10.4186 103.927 10.4432L103.809 10.705L103.534 10.6394C102.922 10.4928 102.494 10.332 102.258 10.1584C102.092 10.0262 101.971 9.86151 101.895 9.66437C101.728 9.87128 101.544 10.0369 101.341 10.1612L101.214 9.8962C101.556 9.67585 101.835 9.33536 102.043 8.87919L102.3 8.99006C102.225 9.15092 102.143 9.30093 102.058 9.43495C102.141 9.69533 102.277 9.8853 102.466 9.99833L102.491 10.0104L102.773 8.83169L102.032 8.65446L102.095 8.39186ZM104.317 8.3218L104.158 8.98412L103.887 8.91923L103.984 8.51367L102.082 8.05873L101.981 8.47888L101.71 8.41399L101.872 7.73708L102.969 7.99944C102.95 7.8963 102.924 7.80052 102.895 7.7135L103.204 7.73798C103.223 7.8382 103.24 7.94717 103.252 8.06712L104.317 8.3218Z" fill="white"/>
<path d="M105.588 8.83974L105.112 10.8728L104.846 10.8105L104.881 10.6586L104.42 10.5506L104.365 10.7872L104.099 10.725L104.594 8.60723L104.872 8.6722C104.961 8.52677 105.04 8.37569 105.103 8.21174L105.372 8.31468C105.305 8.4685 105.226 8.60721 105.138 8.73443L105.588 8.83974ZM104.48 10.2935L104.942 10.4016L105.076 9.82616L104.615 9.71811L104.48 10.2935ZM104.673 9.46982L105.134 9.57787L105.26 9.0404L104.799 8.93236L104.673 9.46982ZM105.949 9.66388C106.086 9.94854 106.186 10.1908 106.246 10.3958L105.991 10.4994C105.925 10.2806 105.823 10.0318 105.692 9.75143L105.949 9.66388ZM107.094 9.19553C106.858 10.2033 106.698 10.822 106.614 11.0489C106.536 11.2524 106.371 11.3247 106.123 11.2666C106.064 11.2529 105.96 11.2224 105.816 11.1795L105.809 10.9096C105.936 10.9455 106.045 10.9774 106.139 10.9993C106.256 11.0266 106.337 10.981 106.384 10.8624C106.435 10.7205 106.559 10.2318 106.76 9.40067L106.026 9.22902C105.904 9.38513 105.773 9.52391 105.627 9.64397L105.512 9.38591C105.771 9.15063 105.985 8.84033 106.149 8.45364L106.416 8.55297C106.348 8.70971 106.272 8.85203 106.192 8.98422L107.094 9.19553Z" fill="white"/>
<path d="M108.581 10.117L108.529 10.3422L108.124 10.2869L108.077 10.4917L107.82 10.4332L107.861 10.2489C107.674 10.2187 107.481 10.1901 107.279 10.1566L107.302 9.90936C107.517 9.94913 107.721 9.98623 107.914 10.0178L107.957 9.83053L107.445 9.71416L107.437 9.47561C107.522 9.41484 107.607 9.33586 107.697 9.23932L107.422 9.17682L107.478 8.93108L107.87 9.02019C107.907 8.96701 107.94 8.91315 107.977 8.85997L108.242 8.96636C108.215 9.00625 108.19 9.0468 108.163 9.08669L108.838 9.2403L108.782 9.48604L107.993 9.30649C107.917 9.39398 107.838 9.47429 107.76 9.54583L108.008 9.60235L108.048 9.42976L108.305 9.48828L108.266 9.66087L108.693 9.75796L108.641 9.98614L108.214 9.88905L108.175 10.0587C108.318 10.0789 108.452 10.1001 108.581 10.117ZM109.053 10.0828C108.964 10.3118 108.835 10.5009 108.671 10.6543L108.523 10.4086C108.688 10.2551 108.804 10.054 108.866 9.80664L108.976 9.32395C109.364 9.37529 109.666 9.37611 109.879 9.32931L110.014 9.57531C109.779 9.62038 109.501 9.62782 109.183 9.59243L109.126 9.84401L109.971 10.0362L109.916 10.279L109.635 10.2152L109.498 10.8178L109.232 10.7573L109.369 10.1546L109.053 10.0828ZM109.466 10.8782L109.209 12.0073L108.928 11.9435L108.952 11.8411L107.53 11.5179L107.507 11.6203L107.226 11.5565L107.482 10.4273L109.466 10.8782ZM107.584 11.281L109.005 11.6042L109.045 11.4316L107.623 11.1084L107.584 11.281ZM107.673 10.889L109.095 11.2122L109.132 11.0454L107.711 10.7222L107.673 10.889Z" fill="white"/>
<path d="M111.459 9.84279L112.89 10.1557L112.83 10.4283L111.4 10.1153L111.459 9.84279ZM111.226 10.5594L112.855 10.9159L112.796 11.1885L112.338 11.0885L112.067 12.3311C112.026 12.5186 111.9 12.5893 111.691 12.5438L111.267 12.4508L111.265 12.1648C111.397 12.206 111.527 12.2407 111.651 12.2677C111.736 12.2863 111.787 12.2637 111.8 12.2021L112.057 11.0269L111.166 10.832L111.226 10.5594ZM110.993 9.59018L111.222 9.76319C110.993 10.0509 110.667 10.2804 110.235 10.4563L110.211 10.1592C110.539 10.0192 110.799 9.8303 110.993 9.59018ZM110.984 10.2914L111.21 10.4638C111.096 10.6048 110.964 10.7324 110.813 10.8468L110.496 12.2946L110.224 12.2349L110.481 11.0597C110.355 11.1275 110.225 11.191 110.083 11.2491L110.061 10.9557C110.447 10.7943 110.756 10.5733 110.984 10.2914Z" fill="white"/>
<path d="M113.463 11.2053L113.689 11.3537C113.519 11.683 113.337 11.9239 113.139 12.0788L112.969 11.8532C113.16 11.703 113.324 11.489 113.463 11.2053ZM114.288 10.2896L114.57 10.3484L114.456 10.8946L115.384 11.0882C115.335 11.2926 115.292 11.4828 115.25 11.6578L115.463 11.6043C115.543 11.8968 115.615 12.2151 115.674 12.5615L115.393 12.6316C115.347 12.3217 115.288 12.0335 115.219 11.7741C115.162 11.9889 115.11 12.1803 115.064 12.3423C114.969 12.6534 114.872 12.8662 114.778 12.9813C114.684 13.0905 114.562 13.1325 114.41 13.113L114.066 13.0413L114.046 12.7552C114.145 12.7819 114.238 12.8044 114.326 12.8228C114.47 12.8528 114.588 12.7732 114.678 12.5898C114.768 12.394 114.889 11.9626 115.043 11.299L114.388 11.1624C114.261 11.6232 114.099 11.9878 113.902 12.2563C113.683 12.5445 113.379 12.7385 112.992 12.8418L112.891 12.5662C113.264 12.451 113.542 12.2639 113.724 12.0077C113.877 11.773 114.005 11.4716 114.106 11.1036L113.407 10.9578L113.463 10.6876L114.174 10.8358L114.288 10.2896Z" fill="white"/>
<path d="M117.92 11.025L118.202 11.0806L118.115 11.5251L118.848 11.6693L118.794 11.9401L118.062 11.7959L117.966 12.2816L118.778 12.4414L118.725 12.7122L117.768 12.5241C117.523 12.8855 117.319 13.148 117.152 13.3109C117.483 13.3392 117.814 13.3494 118.145 13.3471C118.099 13.1731 118.049 13.0103 117.996 12.8593L118.284 12.8242C118.4 13.1528 118.492 13.4949 118.555 13.8559L118.267 13.9216C118.249 13.814 118.229 13.7093 118.208 13.6135C117.753 13.6126 117.263 13.5865 116.737 13.5381L116.721 13.2811C116.746 13.2769 116.768 13.2721 116.785 13.2661C116.937 13.1768 117.164 12.9096 117.465 12.4644L116.815 12.3365L116.868 12.0656L117.683 12.226L117.779 11.7403L117.105 11.6077L117.158 11.3369L117.832 11.4695L117.92 11.025ZM116.637 10.7973C116.797 10.9815 116.928 11.157 117.032 11.3273L116.791 11.4911C116.707 11.3307 116.574 11.1517 116.396 10.9516L116.637 10.7973ZM116.428 11.4716C116.573 11.653 116.691 11.8291 116.786 12.0006L116.544 12.1608C116.468 12.0022 116.35 11.8231 116.19 11.6265L116.428 11.4716ZM116.551 12.3579L116.784 12.5107C116.585 12.8538 116.375 13.1733 116.158 13.4699L115.902 13.2913C116.138 12.9923 116.356 12.6803 116.551 12.3579Z" fill="white"/>
<path d="M119.368 11.2804L119.725 12.7707L118.861 14.0361L118.644 13.8864L119.442 12.7186L119.113 11.3432L119.368 11.2804Z" fill="white"/>
<path d="M123.113 12.4778L122.765 14.5366L122.496 14.4911L122.522 14.3372L122.055 14.2582L122.014 14.4978L121.745 14.4523L122.107 12.3078L122.388 12.3553C122.469 12.2045 122.538 12.0488 122.59 11.8813L122.865 11.9672C122.808 12.1249 122.738 12.2683 122.658 12.4008L123.113 12.4778ZM122.099 13.9979L122.566 14.0769L122.664 13.4942L122.197 13.4152L122.099 13.9979ZM122.24 13.1638L122.707 13.2428L122.799 12.6985L122.332 12.6195L122.24 13.1638ZM123.526 13.2777C123.68 13.5532 123.795 13.7888 123.868 13.9897L123.619 14.1089C123.54 13.8947 123.423 13.6528 123.274 13.3812L123.526 13.2777ZM124.639 12.7387C124.466 13.7592 124.345 14.3868 124.276 14.6184C124.21 14.8264 124.05 14.9089 123.799 14.8664C123.739 14.8564 123.634 14.8325 123.488 14.7986L123.463 14.5298C123.592 14.5577 123.704 14.5826 123.798 14.5986C123.917 14.6186 123.995 14.568 124.034 14.4467C124.077 14.3018 124.169 13.8064 124.318 12.9644L123.575 12.8389C123.463 13.0023 123.34 13.149 123.203 13.2779L123.072 13.0276C123.315 12.7766 123.51 12.4535 123.65 12.0573L123.922 12.1398C123.864 12.3005 123.797 12.4473 123.725 12.5842L124.639 12.7387Z" fill="white"/>
<path d="M125.48 12.4001C125.658 12.588 125.803 12.7709 125.916 12.9459L125.687 13.1114C125.591 12.9451 125.45 12.7596 125.259 12.5546L125.48 12.4001ZM126.781 15.3172C126.618 15.2923 126.44 15.2623 126.251 15.2304C126.058 15.1981 125.904 15.1563 125.784 15.1077C125.671 15.0541 125.578 14.9671 125.504 14.8527C125.47 14.7959 125.438 14.7668 125.403 14.7614C125.34 14.7519 125.213 14.8691 125.021 15.113L124.843 14.8886C125.028 14.6709 125.185 14.54 125.312 14.4988L125.44 13.6594L125.043 13.5989L125.082 13.3379L125.744 13.4386L125.573 14.5597C125.586 14.5738 125.599 14.5909 125.611 14.611C125.667 14.7014 125.729 14.7716 125.797 14.8214C125.88 14.8765 126.006 14.9231 126.18 14.9557C126.349 14.9844 126.547 15.0176 126.779 15.0528C126.924 15.0749 127.073 15.0946 127.221 15.1142C127.37 15.1338 127.487 15.1455 127.568 15.1517L127.457 15.4201L126.781 15.3172ZM126.628 12.8753L126.055 12.7881L126.091 12.5538L127.719 12.8018L127.689 13.0005C127.494 13.1226 127.291 13.2191 127.079 13.2961C127.084 13.3029 127.09 13.3068 127.095 13.3136L127.691 13.4044L127.491 14.7212C127.464 14.8962 127.353 14.9703 127.16 14.9409L126.931 14.9061L126.908 14.6628L127.117 14.7067C127.182 14.7167 127.222 14.6895 127.232 14.6242L127.255 14.473L126.828 14.4079L126.754 14.8943L126.496 14.855L126.57 14.3686L126.152 14.305L126.077 14.7973L125.81 14.7566L126.054 13.1551L126.736 13.259C126.648 13.1788 126.549 13.0939 126.437 13.0101L126.628 12.8753ZM126.928 13.1364C127.062 13.0931 127.188 13.0395 127.307 12.9787L126.642 12.8775C126.744 12.9659 126.841 13.0503 126.928 13.1364ZM126.218 13.869L126.187 14.0766L126.605 14.1403L126.637 13.9327L126.218 13.869ZM126.895 13.972L126.863 14.1796L127.29 14.2446L127.322 14.037L126.895 13.972ZM127.357 13.8057L127.389 13.5981L126.961 13.533L126.93 13.7406L127.357 13.8057ZM126.672 13.7013L126.703 13.4937L126.285 13.4301L126.254 13.6377L126.672 13.7013Z" fill="white"/>
<path d="M130.517 13.3909L130.203 15.7098L129.93 15.6728L129.953 15.5034L129.432 15.4331L129.409 15.6055L129.136 15.5686L129.449 13.2467L130.517 13.3909ZM129.468 15.1685L129.988 15.2388L130.207 13.6185L129.687 13.5482L129.468 15.1685ZM128.334 13.4562C128.246 13.5956 128.15 13.722 128.05 13.8356L127.824 13.6447C128.052 13.3909 128.23 13.1091 128.353 12.7989L128.625 12.8961C128.58 13.0051 128.53 13.1043 128.481 13.2006L129.292 13.3102L129.256 13.5808L128.852 13.5261C128.821 13.7097 128.788 13.8809 128.749 14.036L129.213 14.0987L129.177 14.3692L128.674 14.3014C128.653 14.3652 128.63 14.4286 128.61 14.4864C128.766 14.6952 128.923 14.9253 129.083 15.1769L128.875 15.4153C128.726 15.1287 128.599 14.9027 128.494 14.7372C128.327 15.0325 128.08 15.2685 127.748 15.4416L127.594 15.1908C127.934 15.0036 128.174 14.7515 128.317 14.4318C128.337 14.3769 128.36 14.3194 128.38 14.2616L127.794 14.1824L127.831 13.9119L128.458 13.9967C128.497 13.8415 128.529 13.6703 128.56 13.4868L128.334 13.4562Z" fill="white"/>
<path d="M131.382 13.182L131.839 14.6448L131.062 15.9657L130.836 15.8309L131.553 14.6119L131.132 13.2619L131.382 13.182ZM131.892 13.2407L132.349 14.7035L131.572 16.0243L131.345 15.8896L132.063 14.6706L131.629 13.3192L131.892 13.2407Z" fill="white"/>
</svg>
