<svg width="66" height="10" viewBox="0 0 66 10" fill="none" xmlns="http://www.w3.org/2000/svg">
<path d="M1.25954 0.613603L1.50063 0.744149L0.800075 1.97837L1.25269 3.31826L1.00383 3.40391L0.513277 1.95209L1.25954 0.613603ZM1.7704 0.660418L1.99954 0.78987L1.31093 2.02518L1.76355 3.36508L1.51469 3.45073L1.02414 1.9989L1.7704 0.660418ZM3.80652 0.828934C3.84528 0.931902 3.88295 1.04682 3.91925 1.17667L4.99176 1.27496L4.96657 1.54981L2.77675 1.34913L2.71898 1.97949C2.64979 2.63591 2.506 3.15295 2.28437 3.53331L2.06481 3.2993C2.25027 2.98491 2.37282 2.53522 2.43218 1.95321L2.51514 1.048L3.60557 1.14793C3.57006 1.04225 3.53102 0.942266 3.48492 0.853689L3.80652 0.828934ZM5.35837 1.35073L6.09329 1.41808C6.15476 1.30622 6.21378 1.18812 6.27308 1.06702L6.55114 1.15577C6.49974 1.2565 6.45159 1.35451 6.401 1.44628L7.88877 1.58262L7.86358 1.85747L6.24736 1.70936C6.09861 1.95179 5.93767 2.16299 5.7705 2.34348L6.46957 2.40755L6.50707 1.99826L6.79088 2.02427L6.75338 2.43356L7.67651 2.51815L7.65214 2.78404L6.72901 2.69944L6.6466 3.59867C6.62826 3.79884 6.51439 3.89083 6.30527 3.87166L5.99457 3.84319L5.95729 3.55961C6.0518 3.58032 6.14386 3.59478 6.2305 3.60272C6.31415 3.61038 6.36252 3.57565 6.36909 3.50395L6.4452 2.67343L5.44738 2.58199L5.40493 2.32203C5.58865 2.15812 5.76807 1.94259 5.93666 1.68088L5.33319 1.62558L5.35837 1.35073ZM5.84485 2.81423L6.02614 3.00558C5.81085 3.25095 5.5505 3.46208 5.25133 3.6365L5.09072 3.38379C5.382 3.22973 5.63446 3.03897 5.84485 2.81423ZM7.20198 2.92957C7.44408 3.18071 7.6476 3.4253 7.80605 3.66878L7.58102 3.85602C7.44566 3.6237 7.25191 3.37096 6.99707 3.09455L7.20198 2.92957ZM9.47972 1.38197L9.75756 1.40743L9.68774 2.16924L9.40991 2.14378L9.47972 1.38197ZM8.68324 2.67669C8.54933 2.69153 8.41542 2.70637 8.28178 2.71822L8.18881 2.45062C9.10417 2.3899 9.81807 2.22637 10.3275 1.95975C10.2361 1.87304 10.1386 1.78579 10.0352 1.69798L10.2431 1.53327C10.5284 1.7733 10.7689 2.00923 10.9588 2.23752L10.7433 2.41961C10.6763 2.32912 10.6003 2.2378 10.5124 2.14539C10.2298 2.30326 9.89886 2.42959 9.51637 2.52709L10.5739 2.62401L10.4253 4.24621L10.1474 4.22075L10.1578 4.10723L8.84037 3.98649L8.82942 4.10599L8.55457 4.0808L8.68324 2.67669ZM8.86336 3.73554L10.1808 3.85628L10.1992 3.65612L8.88171 3.53538L8.86336 3.73554ZM8.90251 3.30833L10.22 3.42907L10.2367 3.24683L8.91921 3.1261L8.90251 3.30833ZM8.93975 2.90204L10.2572 3.02277L10.2745 2.83456L8.957 2.71382L8.93975 2.90204ZM8.99508 1.50927L9.17909 1.70388C8.98284 1.90581 8.74723 2.07703 8.47254 2.21453L8.32767 1.98736C8.58688 1.85446 8.80916 1.69709 8.99508 1.50927ZM12.4584 2.14599L11.4576 2.05428L11.4825 1.78241L13.7739 1.9924L13.749 2.26426L12.7452 2.17227L12.5788 3.98866L13.7708 4.0979L13.7456 4.37275L11.0718 4.12772L11.097 3.85287L12.292 3.96238L12.4584 2.14599ZM14.2839 2.08131L14.9591 2.14319L14.9829 1.88328L15.2727 1.90983L15.2489 2.16974L15.9659 2.23545L15.9897 1.97554L16.2795 2.0021L16.2557 2.26201L16.9309 2.32388L16.9065 2.58977L16.2313 2.52789L16.2097 2.7639L15.9199 2.73735L15.9415 2.50134L15.2245 2.43563L15.2029 2.67164L14.9131 2.64508L14.9348 2.40907L14.2596 2.3472L14.2839 2.08131ZM14.5 2.71567L16.4836 2.89746L16.4587 3.16932C15.5961 3.54216 15.0331 3.834 14.7728 4.04512C14.688 4.11568 14.6374 4.17431 14.6176 4.22671C14.6134 4.27152 14.6352 4.29761 14.6889 4.30254L16.1558 4.43697C16.2364 4.44436 16.3011 4.42919 16.3465 4.39419C16.3916 4.36217 16.4433 4.19218 16.5017 3.88422L16.7547 4.01587C16.6901 4.3594 16.6142 4.56332 16.5239 4.62736C16.437 4.68868 16.3142 4.71358 16.1589 4.69934L14.68 4.56382C14.4172 4.53973 14.2972 4.43535 14.3141 4.25012C14.3256 4.12465 14.4379 3.98431 14.645 3.82856C14.917 3.62152 15.3662 3.38853 15.9867 3.12607L14.475 2.98754L14.5 2.71567ZM17.3762 2.39482L18.0185 2.45368C17.9879 2.3605 17.9535 2.276 17.9125 2.19694L18.2157 2.17651C18.2495 2.26698 18.2794 2.36913 18.3083 2.48024L18.8849 2.53308C18.9385 2.44158 18.9836 2.3433 19.0171 2.24092L19.3183 2.30769C19.2829 2.39783 19.2391 2.48119 19.1867 2.56073L19.808 2.61767L19.7845 2.8746L18.712 2.77631L18.6912 3.00336L19.6054 3.08714L19.5829 3.33211L18.6687 3.24833L18.6477 3.47837L19.8188 3.58569L19.7947 3.84859L17.1657 3.60767L17.1898 3.34477L18.3609 3.45209L18.3819 3.22205L17.4767 3.1391L17.4992 2.89412L18.4044 2.97708L18.4252 2.75003L17.3527 2.65174L17.3762 2.39482ZM18.3525 3.77366L18.6365 3.82982C18.6224 3.88576 18.6052 3.94143 18.5854 3.99384L19.7057 4.0965L19.681 4.36538L18.6952 4.27503C18.877 4.52667 19.2419 4.71978 19.7899 4.85435L19.6158 5.10953C18.988 4.92547 18.5906 4.66009 18.4208 4.31014C18.3482 4.41194 18.265 4.49771 18.168 4.57016C17.955 4.72536 17.5988 4.8313 17.0936 4.88743L17.0025 4.59891C17.4336 4.5631 17.7512 4.48375 17.9525 4.3576C18.0167 4.31528 18.0688 4.27186 18.1156 4.22192L17.1865 4.13677L17.2111 3.8679L18.2866 3.96646C18.3135 3.90265 18.3345 3.83829 18.3525 3.77366ZM20.267 3.06643L21.4023 3.17047L21.4655 2.48036L21.7463 2.50609L21.6831 3.1962L22.8213 3.30051L22.7964 3.57237L21.9181 3.49188C22.0666 3.97545 22.3512 4.42028 22.7719 4.82636L22.5588 5.04784C22.1058 4.56649 21.8041 4.04479 21.6568 3.483L21.4936 5.26354L21.2128 5.2378L21.3754 3.46324C21.1026 4.04075 20.6959 4.50056 20.1557 4.83967L20.0236 4.5715C20.5013 4.28992 20.868 3.90478 21.1174 3.41851L20.2421 3.33829L20.267 3.06643ZM22.233 2.55371C22.3869 2.74856 22.5041 2.91595 22.5846 3.05589L22.3428 3.19641C22.2609 3.03827 22.1442 2.8649 21.9993 2.67087L22.233 2.55371ZM23.2026 3.41377L24.3468 3.51863C24.3792 3.36194 24.4065 3.19573 24.4254 3.02273L24.4492 2.76282L24.736 2.7891L24.7182 2.98329C24.7001 3.18046 24.6709 3.36758 24.6306 3.54464L25.8435 3.65579L25.8183 3.93064L24.6771 3.82606C24.8276 4.48454 25.1858 5.01444 25.7453 5.41818L25.5479 5.63206C25.0066 5.22698 24.6485 4.69708 24.4795 4.04293C24.2196 4.70899 23.7703 5.17393 23.1345 5.43801L22.9742 5.18232C23.617 4.93996 24.0514 4.47366 24.2738 3.7891L23.1774 3.68862L23.2026 3.41377ZM26.2615 3.3356L26.5333 3.36051L26.3877 4.94985L26.1158 4.92494L26.2615 3.3356ZM26.8033 2.97856L27.0752 3.00347L26.9427 4.44941C26.8789 5.04609 26.6505 5.468 26.2608 5.70945L26.0657 5.50478C26.4159 5.29889 26.6177 4.9378 26.6708 4.4245L26.8033 2.97856ZM27.2215 3.11629L28.9064 3.2707L28.8818 3.53958L28.1797 3.47524L28.1491 3.80984L28.7824 3.86788L28.6494 5.31979C28.6318 5.51099 28.5364 5.59865 28.3691 5.58332L28.16 5.56416L28.1105 5.28246L28.3033 5.3152C28.3511 5.31958 28.3778 5.29189 28.383 5.23513L28.4862 4.10885L28.1247 4.07572L27.961 5.86224L27.6861 5.83705L27.8498 4.05054L27.4884 4.01741L27.3526 5.4992L27.0807 5.47429L27.2409 3.72661L27.8742 3.78465L27.9049 3.45005L27.1968 3.38517L27.2215 3.11629ZM30.1541 6.02706L29.7687 5.99175L29.7341 5.71142C29.8528 5.73134 29.9688 5.74799 30.0793 5.75812C30.163 5.76578 30.2084 5.73078 30.2155 5.65311L30.3228 4.48201L29.1786 4.37716L29.2043 4.09633L31.7676 4.33123L31.7418 4.61206L30.6126 4.50857L30.4987 5.75136C30.4801 5.95451 30.3632 6.04623 30.1541 6.02706ZM29.5822 4.70637L29.8573 4.79484C29.697 5.19589 29.4912 5.53552 29.2427 5.81401L29.0087 5.63892C29.2637 5.355 29.4549 5.04415 29.5822 4.70637ZM31.2376 4.82191C31.4112 5.16318 31.5532 5.51963 31.6665 5.89453L31.3959 5.98722C31.274 5.57538 31.133 5.20698 30.9727 4.88501L31.2376 4.82191ZM29.5482 3.36868L31.5707 3.55402L31.5455 3.82887L29.523 3.64352L29.5482 3.36868ZM32.2091 3.72098L32.8843 3.78285L32.9073 3.5319L33.1971 3.55846L33.1741 3.80941L33.8911 3.87512L33.9141 3.62417L34.2038 3.65072L34.1808 3.90167L34.856 3.96354L34.8322 4.22346L34.157 4.16158L34.1338 4.41552L33.844 4.38896L33.8672 4.13503L33.1502 4.06932L33.127 4.32326L32.8372 4.2967L32.8605 4.04276L32.1853 3.98089L32.2091 3.72098ZM32.5855 4.21639C32.7616 4.36509 32.9082 4.50806 33.0276 4.65156L32.8156 4.82795C32.7136 4.69207 32.5643 4.54584 32.371 4.38654L32.5855 4.21639ZM32.3507 4.70702C32.5242 4.85245 32.6707 4.99542 32.7904 5.13593L32.5814 5.3126C32.4791 5.17971 32.3298 5.03347 32.1393 4.87743L32.3507 4.70702ZM32.5895 5.38865L32.8208 5.52734C32.6854 5.78907 32.5179 6.03883 32.3183 6.27661L32.068 6.1151C32.2798 5.87542 32.4527 5.63219 32.5895 5.38865ZM34.2593 4.75539L33.4765 4.68366L33.3651 5.89957C33.3569 5.98919 33.4033 6.04164 33.5049 6.05095L34.0755 6.10324C34.204 6.11502 34.2841 6.09525 34.3159 6.04394C34.3542 5.9872 34.3891 5.86989 34.4235 5.69228L34.6874 5.80383C34.6301 6.09984 34.5689 6.27499 34.5007 6.32899C34.43 6.37674 34.3078 6.39566 34.1345 6.37978L33.3578 6.3086C33.1427 6.28889 33.0474 6.17773 33.0658 5.97757L33.2098 4.40616L34.5631 4.53018L34.4859 5.37265C34.4681 5.5337 34.3678 5.60886 34.1848 5.60112C34.0593 5.58962 33.9371 5.57541 33.8181 5.55848L33.7768 5.28658C33.8982 5.30975 34.0052 5.32558 34.0978 5.33407C34.1695 5.34064 34.2083 5.31106 34.2141 5.24832L34.2593 4.75539ZM36.3583 4.33619L35.3575 4.24448L35.3824 3.97262L37.6738 4.1826L37.6489 4.45446L36.6451 4.36248L36.4786 6.17887L37.6706 6.2881L37.6454 6.56295L34.9716 6.31792L34.9968 6.04307L36.1918 6.15258L36.3583 4.33619ZM39.4505 4.81538C39.2867 5.08959 39.1087 5.32331 38.9192 5.51683L38.7385 5.25324C39.013 4.98618 39.2618 4.60529 39.4817 4.1133L39.7627 4.20232C39.7094 4.32396 39.6536 4.43935 39.5984 4.54877L40.8292 4.66157L40.8038 4.9394L39.8448 4.85152L39.8057 5.27873L40.6451 5.35566L40.6199 5.63051L39.7805 5.55358L39.7402 5.99274L40.5857 6.07022L40.5608 6.34208L39.7153 6.2646L39.6534 6.93977L39.3666 6.91349L39.558 4.82524L39.4505 4.81538ZM38.3865 5.21496C38.2936 5.30887 38.1917 5.40195 38.087 5.49178L38.0194 5.1783C38.358 4.86891 38.6212 4.49537 38.8086 4.06066L39.066 4.21078C38.9675 4.43071 38.8492 4.63677 38.7111 4.82897L38.5272 6.83656L38.2404 6.81027L38.3865 5.21496ZM41.4275 5.20141L41.1556 5.1765L41.2126 4.5551L42.3418 4.65859C42.3077 4.57111 42.2697 4.49231 42.2255 4.41596L42.5471 4.3912C42.584 4.48195 42.617 4.58138 42.6495 4.68679L43.7758 4.79L43.7189 5.4114L43.447 5.38648L43.4352 5.51495L42.9811 5.47333C43.1858 5.67284 43.3576 5.86934 43.4968 6.05983L43.2682 6.25278C43.221 6.17615 43.1681 6.09599 43.1089 6.01827L42.5163 6.00915L42.4911 6.284L43.4202 6.36914L43.3964 6.62905L42.4673 6.54391L42.4394 6.84863L43.6015 6.95513L43.5771 7.22101L40.9661 6.98173L40.9904 6.71585L42.1526 6.82235L42.1805 6.51762L41.2574 6.43303L41.2812 6.17312L42.2043 6.25771L42.2279 6.00079C41.9579 5.9881 41.6817 5.97785 41.3998 5.96406L41.3595 5.71334C41.3839 5.70956 41.4057 5.70251 41.4214 5.69492C41.5274 5.65643 41.6698 5.54897 41.8519 5.36984L41.4157 5.32987L41.4275 5.20141ZM42.1745 5.39941C42.0402 5.54979 41.9242 5.66568 41.8204 5.74654C42.1862 5.765 42.5526 5.77749 42.9195 5.78401C42.8625 5.71552 42.8026 5.64676 42.7363 5.58044L42.8796 5.46402L42.1745 5.39941ZM43.4409 5.25638L43.4614 5.03232L41.4777 4.85053L41.4572 5.07459L43.4409 5.25638ZM45.8498 4.74207L46.1366 4.76836C46.1131 5.02528 46.082 5.26644 46.0438 5.48588C46.1318 6.23503 46.347 6.84522 46.6894 7.31643L46.4644 7.53682C46.2036 7.12731 46.0188 6.64644 45.9067 6.0939L45.8721 6.20823C45.7175 6.71222 45.425 7.11018 44.994 7.40809L44.8241 7.15755C45.1915 6.89599 45.4457 6.55476 45.5927 6.13442C45.7095 5.7806 45.7943 5.3154 45.8498 4.74207ZM44.5261 4.62378C44.7069 4.78796 44.8578 4.9494 44.9785 5.1111L44.7663 5.29048C44.6596 5.13911 44.509 4.97468 44.3111 4.7999L44.5261 4.62378ZM44.0524 5.45401L44.7425 5.51725L44.628 6.76602C44.7278 6.69683 44.8346 6.61624 44.9514 6.52452L44.9963 6.82387C44.789 6.98261 44.5713 7.12233 44.3401 7.24574L44.2558 6.98195C44.3104 6.94478 44.3419 6.89645 44.3477 6.83372L44.4457 5.7642L44.0275 5.72587L44.0524 5.45401ZM47.5293 5.74552L49.3038 5.90815L49.2792 6.17702L48.5443 6.10967L48.5032 6.55779L49.3636 6.63664L49.339 6.90551L48.4786 6.82667L48.4282 7.37636C48.6286 7.42485 48.8752 7.46252 49.1737 7.49288C49.3231 7.50657 49.4792 7.51184 49.6357 7.51413L49.5562 7.79002L49.2753 7.76429C48.648 7.7068 48.2021 7.60869 47.9436 7.47053C47.7606 7.36338 47.6173 7.2177 47.5137 7.03347C47.3783 7.26207 47.2192 7.45235 47.0366 7.60432L46.8722 7.3603C47.1798 7.09326 47.4072 6.71643 47.5477 6.23524L47.8181 6.30823C47.7664 6.47822 47.7065 6.63843 47.6421 6.78315C47.7611 7.02904 47.9234 7.19755 48.1265 7.28244L48.1529 7.29088L48.2635 6.08394L47.5046 6.0144L47.5293 5.74552ZM49.7187 5.35871L49.6566 6.03687L49.3787 6.01141L49.4168 5.59615L47.469 5.41765L47.4295 5.84785L47.1517 5.82239L47.2152 5.12929L48.3385 5.23223C48.3054 5.1328 48.2656 5.04178 48.2249 4.95973L48.534 4.93985C48.5673 5.0363 48.5999 5.1417 48.6283 5.25879L49.7187 5.35871ZM50.3485 6.21175L50.5904 6.33333C50.4592 6.67981 50.3059 6.93989 50.127 7.11631L49.9319 6.91165C50.1042 6.74066 50.2429 6.50935 50.3485 6.21175ZM51.0641 5.20786L51.3509 5.23414L51.3 5.78982L52.244 5.87633C52.2189 6.0849 52.1981 6.27882 52.1757 6.45752L52.3816 6.37999C52.4944 6.66146 52.6017 6.96954 52.7004 7.30694L52.429 7.4086C52.3482 7.10597 52.2564 6.82642 52.1588 6.57647C52.1266 6.79645 52.0965 6.99253 52.0693 7.15873C52.0098 7.47864 51.9382 7.70104 51.8575 7.82619C51.7773 7.94537 51.6607 8.00096 51.5072 7.99895L51.1577 7.96692L51.1052 7.68495C51.2062 7.70023 51.3016 7.71198 51.3912 7.7202C51.5376 7.73361 51.6455 7.64107 51.7143 7.44855C51.7813 7.24381 51.852 6.80141 51.929 6.12462L51.2628 6.06357C51.1894 6.53584 51.0702 6.91655 50.9051 7.20569C50.7199 7.51709 50.44 7.74449 50.0681 7.89116L49.9354 7.62897C50.2933 7.47196 50.5482 7.25432 50.6999 6.97902C50.8253 6.72842 50.9174 6.41451 50.976 6.03729L50.265 5.97213L50.2902 5.69728L51.0132 5.76353L51.0641 5.20786ZM54.6792 5.53614L54.966 5.56243L54.9247 6.01353L55.6686 6.0817L55.6434 6.35655L54.8995 6.28838L54.8543 6.78132L55.6789 6.85688L55.6537 7.13173L54.6827 7.04275C54.4758 7.42747 54.2993 7.70954 54.1503 7.88869C54.4822 7.88296 54.8128 7.85903 55.1415 7.82287C55.0786 7.65443 55.0116 7.49766 54.9435 7.35284L55.2266 7.28841C55.3755 7.60331 55.5018 7.93422 55.6021 8.28684L55.3222 8.3817C55.2927 8.27656 55.2629 8.17442 55.2323 8.08123C54.7792 8.12708 54.2889 8.15144 53.7612 8.1573L53.7182 7.90332C53.7429 7.89655 53.7646 7.8895 53.7804 7.88191C53.9225 7.77744 54.1207 7.48832 54.375 7.01455L53.7148 6.95405L53.74 6.6792L54.5675 6.75504L54.6127 6.2621L53.9286 6.19941L53.9538 5.92456L54.6379 5.98725L54.6792 5.53614ZM53.3805 5.44122C53.558 5.60812 53.7059 5.76929 53.8269 5.928L53.6049 6.11552C53.5042 5.9647 53.3536 5.80027 53.1563 5.61951L53.3805 5.44122ZM53.2417 6.13345C53.4043 6.29898 53.54 6.46204 53.6518 6.62291L53.427 6.80717C53.3353 6.65718 53.1999 6.49113 53.0205 6.31201L53.2417 6.13345ZM53.4543 7.00248L53.7016 7.13058C53.539 7.49225 53.3633 7.83163 53.1775 8.149L52.9052 7.99752C53.1094 7.67581 53.2935 7.34323 53.4543 7.00248ZM56.5578 5.68119L56.8237 5.70555C56.6796 5.8972 56.5651 6.09458 56.4802 6.29768C56.3671 6.54639 56.3014 6.80247 56.2776 7.06238C56.2541 7.3193 56.2721 7.58304 56.3379 7.85117C56.3847 8.06333 56.4614 8.27823 56.568 8.49586L56.3021 8.47149C56.1798 8.26145 56.0908 8.04845 56.0353 7.83248C55.966 7.57006 55.945 7.30604 55.9696 7.03717C55.9945 6.76531 56.0634 6.50651 56.1791 6.26405C56.2735 6.0558 56.3996 5.86251 56.5578 5.68119ZM58.1939 7.32234L57.937 7.2988L57.9614 7.03291L58.753 7.10546L58.7287 7.37135L58.4717 7.3478L58.4044 8.08272C58.5264 8.06679 58.6486 8.04786 58.7681 8.02568L58.7438 8.29156C58.4773 8.33944 58.1937 8.37672 57.8933 8.4004L57.8495 8.12225C57.9402 8.11851 58.0309 8.11477 58.1219 8.10805L58.1939 7.32234ZM59.2424 8.70178C59.1348 8.69192 59.0437 8.60223 58.9742 8.43921C58.8959 8.24224 58.8499 7.98798 58.836 7.67943C58.8242 7.41324 58.8296 7.09139 58.8527 6.7079L57.9296 6.6233L57.9548 6.34846L58.8719 6.4325C58.8813 6.26466 58.8975 6.0884 58.9139 5.90915L59.1887 5.93433C59.1718 6.11956 59.1559 6.29283 59.1468 6.45769L59.7174 6.50998L59.6922 6.78483L59.1276 6.73309C59.0976 7.19127 59.0938 7.56147 59.1105 7.84015C59.139 8.18619 59.1916 8.36875 59.2709 8.39108C59.3192 8.38949 59.3832 8.21761 59.4682 7.88196L59.6755 8.08473C59.5283 8.50806 59.3858 8.71492 59.2424 8.70178ZM59.4399 5.95434C59.5528 6.10327 59.6372 6.23451 59.6996 6.34266L59.4898 6.46201C59.4285 6.34192 59.3414 6.20741 59.2345 6.05904L59.4399 5.95434ZM57.4709 5.81005C57.6427 5.97341 57.7846 6.13403 57.8964 6.29491L57.6842 6.47428C57.5835 6.32347 57.4389 6.15958 57.2559 5.98617L57.4709 5.81005ZM56.9882 6.63946L57.6604 6.70106L57.5476 7.9319C57.6226 7.86949 57.7011 7.80137 57.7835 7.72456L57.8308 8.03016C57.6471 8.19407 57.4563 8.33626 57.2555 8.45644L57.1712 8.19264C57.2229 8.1552 57.2541 8.10986 57.2593 8.0531L57.3606 6.94773L56.9633 6.91132L56.9882 6.63946ZM61.1831 6.29485L62.641 6.42845L62.6156 6.70629L61.1577 6.57268L61.1831 6.29485ZM61.04 7.03487L62.7011 7.18709L62.6756 7.46493L62.2095 7.42222L62.0935 8.68891C62.0759 8.88011 61.9596 8.96585 61.7475 8.94642L61.3143 8.90672L61.2771 8.62313C61.4134 8.64768 61.5473 8.66597 61.6728 8.67747C61.7594 8.68541 61.8072 8.65665 61.813 8.59392L61.9228 7.39594L61.0146 7.31271L61.04 7.03487ZM60.6887 6.10192L60.9377 6.24524C60.7462 6.55908 60.4505 6.82721 60.044 7.05506L59.9834 6.76331C60.2921 6.58373 60.5261 6.36417 60.6887 6.10192ZM60.7664 6.79892L61.0124 6.94196C60.9169 7.0959 60.8014 7.23895 60.6658 7.37112L60.5305 8.84694L60.2527 8.82148L60.3625 7.6235C60.2464 7.70625 60.1247 7.78547 59.9913 7.86061L59.9334 7.57212C60.2958 7.36434 60.5755 7.10678 60.7664 6.79892ZM63.0676 6.27775L63.3335 6.30211C63.4531 6.50889 63.542 6.7219 63.6 6.94411C63.6666 7.20327 63.6903 7.47055 63.6654 7.74241C63.6408 8.01129 63.5691 8.26682 63.4563 8.51254C63.3594 8.71455 63.2332 8.90784 63.0778 9.09242L62.8119 9.06805C62.9532 8.87314 63.0677 8.67577 63.1553 8.47593C63.2658 8.22396 63.3344 7.96815 63.358 7.71123C63.3818 7.45132 63.3608 7.1873 63.2977 6.92244C63.2482 6.70702 63.1714 6.49212 63.0676 6.27775ZM64.3462 6.39492L64.8368 7.84675L64.0905 9.18523L63.8614 9.05578L64.55 7.82047L64.0974 6.48057L64.3462 6.39492ZM64.8571 6.44174L65.3477 7.89356L64.6014 9.23205L64.3722 9.1026L65.0609 7.86728L64.5963 6.52629L64.8571 6.44174Z" fill="white"/>
</svg>
