<svg width="141" height="11" viewBox="0 0 141 11" fill="none" xmlns="http://www.w3.org/2000/svg">
<path d="M3.24399 4.74433L3.57723 4.89461L2.76502 6.60367L3.49654 8.3417L3.17389 8.47967L2.38109 6.59646L3.24399 4.74433ZM3.92787 4.75716L4.24512 4.90714L3.4489 6.6165L4.18041 8.35453L3.85777 8.4925L3.06497 6.6093L3.92787 4.75716Z" fill="white"/>
<path d="M5.59268 4.83031C5.74125 5.03287 5.88549 5.25535 6.02139 5.4977L5.77132 5.61746L6.5992 5.63155C6.74705 5.40603 6.87966 5.13624 6.99695 4.82619L7.3672 4.93251C7.27472 5.19497 7.15872 5.42903 7.02713 5.63882L7.78702 5.65175L7.78077 6.0197L6.47695 5.99752L6.47485 6.1215C6.46358 6.31334 6.44059 6.48897 6.40981 6.65247L8.00157 6.67955L7.99532 7.0475L6.59552 7.02368C6.78326 7.51095 7.27672 7.8994 8.07584 8.19303L7.84575 8.54917C7.01173 8.19093 6.48756 7.72595 6.26518 7.15808C6.19 7.34483 6.09915 7.51131 5.99272 7.65352C5.71463 8.00884 5.266 8.27725 4.64683 8.45875L4.4445 8.12326C5.06382 7.93376 5.48404 7.68888 5.70918 7.38866C5.78714 7.27397 5.85331 7.14708 5.90762 7.01198L4.53982 6.98871L4.54607 6.62077L6.01786 6.6458C6.05271 6.47837 6.0797 6.30281 6.0909 6.11497L6.09301 5.99099L4.7852 5.96874L4.79146 5.60079L5.64733 5.61535C5.5193 5.38114 5.38279 5.17479 5.24187 4.99237L5.59268 4.83031Z" fill="white"/>
<path d="M8.96654 5.00302L11.9942 5.05L11.9884 5.42196L10.7126 5.40216L10.6974 6.37804L12.2532 6.40218L12.2473 6.78214L10.6915 6.75799L10.6704 8.12183C10.666 8.4018 10.5158 8.54348 10.2238 8.53895L9.5879 8.52908L9.51362 8.15989C9.71741 8.17505 9.91326 8.18609 10.0972 8.18895C10.2252 8.19093 10.2902 8.13193 10.2919 8.01995L10.3116 6.7521L8.68776 6.7269L8.69365 6.34695L10.3175 6.37214L10.3326 5.39626L8.96076 5.37497L8.96654 5.00302Z" fill="white"/>
<path d="M14.4372 5.82925L14.8531 5.83514L14.8571 5.55117L15.2171 5.55627L15.2131 5.84024L15.629 5.84614L15.6248 6.14611L15.2088 6.14021L15.2045 6.44418L15.6805 6.45093L15.676 6.7629L14.3682 6.74437L14.3726 6.4324L14.8446 6.43908L14.8489 6.13511L14.4329 6.12922L14.4372 5.82925ZM14.4771 6.96593L15.5529 6.98117L15.5377 8.05707L14.4618 8.04182L14.4771 6.96593ZM15.2221 7.74456L15.2286 7.28861L14.7966 7.28249L14.7901 7.73844L15.2221 7.74456ZM16.1675 5.10969L16.123 8.24938C16.1193 8.51335 15.9774 8.64735 15.7054 8.6435L15.3334 8.63823L15.2504 8.28902C15.3743 8.29877 15.4901 8.30842 15.5981 8.30995C15.7061 8.31148 15.7631 8.24428 15.7649 8.11629L15.8027 5.44856L14.2828 5.42702L14.2561 7.31084C14.2404 7.85867 14.1141 8.30092 13.8773 8.6376L13.601 8.37766C13.7889 8.1003 13.8858 7.75363 13.8998 7.32979L13.9317 5.07802L16.1675 5.10969ZM13.1452 4.96686C13.3864 5.1663 13.5916 5.36523 13.7568 5.56359L13.4931 5.82388C13.3438 5.63774 13.1386 5.43482 12.8736 5.22304L13.1452 4.96686ZM12.5849 6.11904L13.4808 6.13173L13.4582 7.72357C13.5312 7.6526 13.6122 7.58174 13.6934 7.50288L13.7841 7.8762C13.5772 8.08129 13.3586 8.26222 13.1243 8.42291L12.985 8.08491C13.0498 8.03382 13.0867 7.97033 13.0878 7.89034L13.1076 6.49048L12.5797 6.483L12.5849 6.11904Z" fill="white"/>
<path d="M16.4543 5.60979L17.0823 5.61788L17.0845 5.4459L16.3246 5.4361L16.3283 5.14812L17.0882 5.15792L17.0904 4.98994L17.4264 4.99427L17.4242 5.16225L18.1401 5.17148L18.1364 5.45946L17.4205 5.45023L17.4183 5.62221L18.0462 5.63031L18.0366 6.37425L17.4087 6.36615L17.4083 6.39415C17.6312 6.48103 17.8619 6.58401 18.0924 6.699L17.8967 6.9845C17.7066 6.83803 17.5401 6.71988 17.4052 6.63413L17.4004 7.0101L17.0644 7.00577L17.0694 6.6178C16.8511 6.791 16.6254 6.9281 16.3999 7.0372L16.2438 6.73517C16.5088 6.65858 16.7744 6.53399 17.0407 6.36141L16.4447 6.35373L16.4543 5.60979ZM17.7399 6.1184L17.7429 5.88242L17.415 5.87819L17.4119 6.11417L17.7399 6.1184ZM17.0759 6.10984L17.079 5.87386L16.751 5.86963L16.748 6.10561L17.0759 6.10984ZM18.6782 5.63446C18.6577 5.6742 18.6372 5.70994 18.6207 5.74973C18.7221 5.95505 18.8518 6.12874 19.014 6.27484C19.156 6.11666 19.2548 5.90591 19.3062 5.64255L18.6782 5.63446ZM18.7513 6.48347C18.617 6.34973 18.5068 6.2083 18.4207 6.05917C18.3679 6.1225 18.3151 6.18582 18.2623 6.24515L18.0459 5.96233C18.2893 5.70145 18.4534 5.38354 18.5464 5.00071L18.8858 5.04908C18.8606 5.14077 18.8355 5.22845 18.8103 5.31613L19.8542 5.32959L19.8501 5.64957L19.6381 5.64683C19.5737 5.99003 19.4541 6.26451 19.2834 6.47833C19.4659 6.59269 19.6728 6.68337 19.9039 6.75435L19.704 7.0518C19.4412 6.9604 19.2106 6.84542 19.0204 6.70696C18.8268 6.83247 18.5734 6.93722 18.2683 7.02129L18.1443 6.71166C18.3851 6.65076 18.59 6.5774 18.7513 6.48347ZM17.8788 7.4483L16.5069 7.43062L16.5111 7.10264L19.6948 7.14369L19.6906 7.47166L18.2547 7.45315L18.2514 7.70913L19.4433 7.72449L19.4392 8.04447L18.2473 8.0291L18.2439 8.28908L19.8718 8.31007L19.8675 8.64604L16.2918 8.59994L16.2961 8.26397L16.9041 8.27181L16.913 7.57586L17.265 7.5804L17.256 8.27634L17.868 8.28423L17.8788 7.4483Z" fill="white"/>
<path d="M24.1757 5.47193L24.1648 6.41587L23.7768 6.41141L23.7835 5.83545L21.1116 5.80472L21.105 6.38069L20.717 6.37622L20.7279 5.43229L22.2238 5.44949C22.1852 5.32904 22.1384 5.22049 22.0915 5.12395L22.5203 5.05687C22.567 5.17342 22.6095 5.30591 22.6518 5.45441L24.1757 5.47193ZM21.3072 6.191L23.5711 6.21703L23.5669 6.58101L21.303 6.55497L21.3072 6.191ZM20.6867 6.92791L24.1945 6.96825L24.1903 7.33222L23.0984 7.31967L23.0887 8.15561C23.0874 8.2756 23.1346 8.34015 23.2386 8.34135L23.7426 8.34714C23.7906 8.34769 23.8229 8.32006 23.8475 8.26834C23.8721 8.21262 23.8901 8.04482 23.9053 7.76498L24.264 7.88111C24.2273 8.28471 24.1766 8.52414 24.1077 8.59936C24.0429 8.67062 23.9424 8.70946 23.8064 8.7079L23.1145 8.69994C22.8385 8.69677 22.7043 8.53922 22.7078 8.23124L22.7184 7.3153L22.1184 7.3084L22.1183 7.3204C22.0978 7.71219 21.9821 8.02688 21.7794 8.26056C21.581 8.4743 21.259 8.64261 20.8137 8.75749L20.6016 8.41503C21.0308 8.31196 21.3244 8.17533 21.4863 8.00918C21.6364 7.83089 21.723 7.59987 21.7423 7.31607L21.7424 7.30408L20.6825 7.29189L20.6867 6.92791Z" fill="white"/>
<path d="M24.7766 5.41044L25.6005 5.4188C25.5456 5.31823 25.4825 5.22559 25.4153 5.1409L25.8401 5.07321C25.895 5.17777 25.9498 5.29433 26.0045 5.42289L26.8085 5.43104C26.8896 5.31586 26.9509 5.19647 26.9921 5.07689L27.3955 5.13298C27.3544 5.24057 27.2934 5.33996 27.2205 5.43522L28.0164 5.44329L28.0131 5.77127L26.5812 5.75676L26.5791 5.95675L27.8271 5.9694L27.8241 6.26538L26.5761 6.25273L26.5741 6.44872L28.0901 6.46409L28.0867 6.79207L27.4948 6.78607C27.4538 6.88566 27.4088 6.98121 27.3559 7.07268L28.1438 7.08067L28.1404 7.41665L24.6126 7.38088L24.616 7.0449L25.432 7.05317C25.385 6.94869 25.334 6.85217 25.2789 6.7636L24.6789 6.75752L24.6822 6.42954L26.1982 6.44491L26.2002 6.24892L24.9522 6.23626L24.9552 5.94028L26.2032 5.95293L26.2052 5.75294L24.7733 5.73842L24.7766 5.41044ZM26.9839 7.06891C27.0409 6.97348 27.0858 6.87793 27.1268 6.78234L26.5708 6.7767L26.5679 7.06469L26.9839 7.06891ZM25.6669 6.76754C25.71 6.85598 25.749 6.95238 25.7879 7.05678L26.1919 7.06088L26.1948 6.77289L25.6669 6.76754ZM27.7542 7.62875L27.7423 8.80468L27.3663 8.80087L27.3677 8.66888L25.3678 8.6486L25.3664 8.7806L24.9865 8.77674L24.9984 7.6008L27.7542 7.62875ZM25.3714 8.29662L27.3712 8.3169L27.3749 7.96092L25.375 7.94064L25.3714 8.29662Z" fill="white"/>
<path d="M30.0373 5.77775L28.6974 5.76603L28.7005 5.40204L31.7684 5.42888L31.7652 5.79286L30.4213 5.78111L30.4 8.21301L31.996 8.22698L31.9927 8.59496L28.4129 8.56364L28.4161 8.19566L30.016 8.20966L30.0373 5.77775Z" fill="white"/>
<path d="M33.7309 5.19602L34.1109 5.19877L34.0881 8.34268L34.5681 8.34616L34.5909 5.20224L34.9708 5.20499L34.9481 8.34891L36.1161 8.35736L36.1134 8.72935L32.5455 8.70353L32.5482 8.33154L33.7081 8.33994L33.7309 5.19602ZM35.7134 5.95438L36.0487 6.05281C35.8918 6.73969 35.6914 7.33826 35.4477 7.85251L35.1086 7.73005C35.3359 7.26768 35.5402 6.67315 35.7134 5.95438ZM32.9696 5.92653C33.1697 6.46399 33.3453 7.07728 33.5003 7.76642L33.1516 7.8519C33.0202 7.22293 32.8486 6.61367 32.6448 6.02818L32.9696 5.92653Z" fill="white"/>
<path d="M36.8664 5.24599C37.1213 5.43945 37.3322 5.63665 37.5071 5.82965L37.2456 6.09216C37.0946 5.9033 36.8798 5.70208 36.605 5.49251L36.8664 5.24599ZM36.3479 6.38306L37.2439 6.38816L37.2343 8.08013C37.3588 7.97684 37.4915 7.85759 37.6363 7.72241L37.738 8.123C37.4767 8.36152 37.1994 8.57594 36.9064 8.76228L36.7643 8.41746C36.8286 8.36183 36.8651 8.29003 36.8655 8.20604L36.8738 6.75006L36.3458 6.74705L36.3479 6.38306ZM37.7732 6.86718L39.7131 6.87822L39.7112 7.22621C39.5931 7.58155 39.3994 7.88445 39.1299 8.13892C39.385 8.30837 39.6961 8.46215 40.0554 8.59219L39.8495 8.91903C39.4504 8.75675 39.1195 8.57087 38.8486 8.36932C38.5354 8.59154 38.1463 8.76933 37.6896 8.90274L37.4794 8.58153C37.9041 8.45995 38.261 8.30598 38.5501 8.11562C38.2796 7.85008 38.0932 7.55701 37.9991 7.23647L37.7711 7.23517L37.7732 6.86718ZM38.3551 7.2385C38.4457 7.48302 38.6004 7.7039 38.8233 7.90517C39.0404 7.7104 39.2096 7.49136 39.327 7.24403L38.3551 7.2385ZM38.0619 5.3248L39.4779 5.33285L39.4731 6.17284C39.4726 6.26084 39.5204 6.30911 39.6204 6.30968L39.9724 6.31168L39.9704 6.65968L39.5184 6.65711C39.2344 6.65549 39.0952 6.5187 39.0967 6.2547L39.0999 5.68671L38.4359 5.68293L38.4352 5.80293C38.4329 6.21892 38.219 6.54171 37.7977 6.76732L37.5474 6.47389C37.8843 6.3238 38.0575 6.11278 38.059 5.84079L38.0619 5.3248Z" fill="white"/>
<path d="M41.6087 6.37878L42.6567 6.38298L42.6614 5.21099L43.0534 5.21256L43.0487 6.38455L44.0407 6.38853L44.0392 6.76452L43.0472 6.76055L43.0386 8.91653L42.6466 8.91496L42.6552 6.75898L41.6072 6.75478L41.6087 6.37878ZM40.8853 5.23987C41.1445 5.43691 41.3637 5.63379 41.5429 5.83451L41.2818 6.09747C41.1226 5.90883 40.9034 5.70795 40.6202 5.49881L40.8853 5.23987ZM40.3526 6.39775L41.2766 6.40145L41.2698 8.10544C41.3982 8.00195 41.5307 7.88248 41.6712 7.75104L41.7697 8.13944C41.5127 8.37841 41.2358 8.59331 40.9431 8.78013L40.8004 8.43956C40.8687 8.38383 40.9049 8.31598 40.9053 8.23598L40.9112 6.76399L40.3512 6.76175L40.3526 6.39775Z" fill="white"/>
<path d="M44.4905 5.35832L46.1025 5.36181L46.1017 5.71381L45.9097 5.7134L45.9052 7.80539C45.9852 7.78157 46.0653 7.75374 46.1453 7.72991L46.1445 8.09791C46.0645 8.12174 45.9844 8.14157 45.9044 8.16539L45.9027 8.92139L45.5347 8.92059L45.5362 8.26459C45.216 8.3439 44.8798 8.41517 44.5317 8.47842L44.4405 8.11422L44.7086 8.0748L44.7137 5.71081L44.4897 5.71032L44.4905 5.35832ZM45.0687 8.01158C45.2248 7.97992 45.3809 7.94426 45.5369 7.9046L45.538 7.3966L45.07 7.39558L45.0687 8.01158ZM45.0708 7.05158L45.5388 7.0526L45.5399 6.5606L45.0719 6.55959L45.0708 7.05158ZM45.0726 6.21559L45.5406 6.2166L45.5417 5.7126L45.0737 5.71159L45.0726 6.21559ZM46.2543 5.43014L47.9903 5.4339L47.9861 7.3899L46.2501 7.38614L46.2543 5.43014ZM47.6148 7.03309L47.6175 5.7931L46.6255 5.79095L46.6228 7.03094L47.6148 7.03309ZM46.6137 7.57493L46.9413 7.73964C46.7683 8.20326 46.5634 8.59882 46.3307 8.93432L46.0152 8.70563C46.2479 8.39414 46.4447 8.01456 46.6137 7.57493ZM47.5817 7.56502C47.8527 8.00161 48.0599 8.38206 48.2072 8.70638L47.8907 8.92969C47.7435 8.57338 47.5404 8.18093 47.2853 7.74838L47.5817 7.56502Z" fill="white"/>
<path d="M49.3519 5.26289L49.7319 5.263L49.731 8.407L50.211 8.40713L50.2119 5.26313L50.5919 5.26324L50.591 8.40724L51.759 8.40757L51.7589 8.77957L48.1909 8.77856L48.191 8.40656L49.351 8.40689L49.3519 5.26289ZM51.3397 6.00745L51.6756 6.10355C51.5234 6.7915 51.3273 7.39145 51.0871 7.90738L50.7471 7.78728C50.9713 7.32335 51.1714 6.7274 51.3397 6.00745ZM48.5957 5.99867C48.7995 6.53473 48.9793 7.14678 49.1391 7.83483L48.7911 7.92273C48.6553 7.29469 48.4795 6.68664 48.2716 6.10258L48.5957 5.99867Z" fill="white"/>
<path d="M52.7083 5.28701C52.9485 5.36254 53.1727 5.45411 53.3729 5.56572L53.1695 5.87412C52.9572 5.74253 52.741 5.64295 52.5209 5.57137L52.7083 5.28701ZM53.9322 5.21264L54.3043 5.25992C54.2805 5.33997 54.2526 5.41202 54.2207 5.48408L55.7887 5.48105L55.7892 5.70905C55.7455 5.90113 55.6859 6.09725 55.6143 6.28939L55.2501 6.18209C55.3099 6.07398 55.3616 5.94988 55.4014 5.8138L54.8174 5.81493C54.8015 5.89496 54.7817 5.967 54.7578 6.03904C54.9704 6.32263 55.3707 6.51786 55.9629 6.62471L55.8276 6.95698C55.2634 6.84207 54.855 6.63486 54.6024 6.33935C54.5625 6.39542 54.5226 6.4435 54.4787 6.49159C54.291 6.67995 53.9673 6.82858 53.5115 6.94146L53.3709 6.60173C53.7467 6.521 54.0185 6.41248 54.1862 6.26815C54.314 6.1519 54.4057 5.99973 54.4574 5.81563L54.0214 5.81647C53.9176 5.95667 53.7899 6.08492 53.6461 6.1972L53.4215 5.90163C53.6732 5.71714 53.8447 5.48481 53.9322 5.21264ZM55.5277 6.99756L55.53 8.19355L55.146 8.1943L55.1443 7.3503L53.2843 7.3539L53.2861 8.2379L52.9061 8.23863L52.9037 7.00263L55.5277 6.99756ZM54.0566 7.4604L54.4366 7.49167C54.3816 8.00378 54.2583 8.34402 54.0746 8.50837C53.875 8.72076 53.4033 8.85767 52.6554 8.92312L52.5067 8.57941C53.1347 8.54619 53.5465 8.44939 53.7461 8.28501C53.9218 8.12467 54.0253 7.85247 54.0566 7.4604ZM53.2178 6.05002L53.4423 6.30959C53.2427 6.51398 52.9951 6.70246 52.6994 6.87903L52.4469 6.58752C52.7505 6.41893 53.0102 6.24243 53.2178 6.05002ZM54.5139 8.16752C55.0302 8.29452 55.5025 8.44961 55.9308 8.63278L55.7234 8.94918C55.267 8.73806 54.8027 8.57496 54.3225 8.45589L54.5139 8.16752Z" fill="white"/>
<path d="M57.544 6.95087L57.5525 8.89485L57.1805 8.89649L57.1724 7.04851C57.0579 7.38101 56.9152 7.68564 56.7484 7.96238L56.5826 7.55111C56.8451 7.19795 57.0393 6.79309 57.1613 6.33655L56.6693 6.33871L56.6677 5.97472L57.1677 5.97252L57.1644 5.22453L57.5364 5.22289L57.5397 5.97088L57.9437 5.96911L57.9453 6.3331L57.5413 6.33488L57.5421 6.51488C57.7028 6.69017 57.8597 6.87749 58.0206 7.08478C58.34 6.95537 58.6194 6.81015 58.8587 6.64909C58.7141 6.51373 58.5895 6.37427 58.4848 6.22673C58.3973 6.33512 58.3017 6.43554 58.2062 6.53196L57.9649 6.24102C58.2358 5.99182 58.4663 5.65081 58.6563 5.20997L59.0207 5.29237C58.9811 5.38054 58.9455 5.4687 58.9058 5.54887L59.9898 5.54411L59.9911 5.83611C59.8564 6.1407 59.6656 6.41354 59.4147 6.65465C59.6754 6.8215 59.9801 6.96017 60.3246 7.07865L60.1542 7.4394C59.7574 7.27315 59.4206 7.09063 59.1437 6.88384C58.8965 7.06893 58.6052 7.23021 58.2778 7.36765L59.9698 7.36021L59.9765 8.8922L59.6085 8.89382L59.6079 8.74182L58.6199 8.74616L58.6206 8.89816L58.2486 8.8998L58.2419 7.38381C58.178 7.40809 58.1141 7.43237 58.0542 7.45664L57.9375 7.30515L57.8462 7.44555C57.7293 7.24606 57.6286 7.0825 57.544 6.95087ZM58.6183 8.39417L59.6063 8.38982L59.6034 7.71383L58.6154 7.71817L58.6183 8.39417ZM59.1178 6.44395C59.305 6.27513 59.4563 6.09846 59.5714 5.90595L58.7034 5.90977C58.6915 5.92582 58.6796 5.94587 58.6717 5.96191C58.7884 6.1374 58.9371 6.29674 59.1178 6.44395Z" fill="white"/>
<path d="M60.7616 6.0359C60.6986 6.18434 60.6195 6.3089 60.5321 6.40551L60.2226 6.18765C60.4132 5.97832 60.5312 5.6935 60.5806 5.32514L60.937 5.37867C60.9178 5.4908 60.8985 5.59494 60.8752 5.68711L61.2392 5.68458L61.2359 5.21259L61.6119 5.20998L61.6151 5.68196L62.3311 5.67699L62.3335 6.02498L61.6176 6.02996L61.6205 6.45795L62.4525 6.45217L62.455 6.80816L61.623 6.81394L61.6253 7.14993L62.3973 7.14457L62.4047 8.21254C62.4066 8.47653 62.2715 8.60948 61.9995 8.61137L61.8035 8.61273L61.705 8.2574L61.8811 8.27218C61.9891 8.27143 62.0448 8.22304 62.0442 8.13504L62.0398 7.49906L61.6278 7.50192L61.6374 8.88989L61.2614 8.8925L61.2518 7.50453L60.8398 7.50739L60.8477 8.64737L60.4797 8.64992L60.4694 7.15796L61.2494 7.15254L61.247 6.81655L60.311 6.82305L60.3086 6.46706L61.2445 6.46056L61.2416 6.03257L60.7616 6.0359ZM62.6343 5.56288L63.0023 5.56032L63.0193 8.00827L62.6514 8.01082L62.6343 5.56288ZM63.4291 8.84144L62.8332 8.84558L62.7466 8.48217C62.9387 8.49684 63.1188 8.50359 63.2948 8.50236C63.3988 8.50164 63.4504 8.44528 63.4496 8.33728L63.4278 5.19736L63.8038 5.19475L63.8263 8.43067C63.8282 8.70266 63.6931 8.83961 63.4291 8.84144Z" fill="white"/>
<path d="M65.2525 7.36598L67.6204 7.34229L67.6232 7.62228C67.4217 7.87231 67.1798 8.08274 66.8936 8.26161C67.2348 8.3862 67.6278 8.47828 68.0683 8.52987L67.9076 8.8595C67.3747 8.77682 66.9174 8.64139 66.5355 8.4612C66.1374 8.65319 65.6708 8.79387 65.1437 8.88715L64.9764 8.5568C65.4198 8.48836 65.8148 8.38841 66.1574 8.25297C65.9038 8.0875 65.6939 7.90159 65.5237 7.68728L65.2558 7.68996L65.2525 7.36598ZM65.9317 7.6832C66.0933 7.84159 66.2827 7.97571 66.5039 8.0935C66.7346 7.97119 66.9372 7.82915 67.1117 7.6714L65.9317 7.6832ZM65.0682 6.53178L65.0704 6.75577C65.0631 7.62789 64.9301 8.32525 64.6634 8.85595L64.3728 8.60284C64.5844 8.1607 64.6943 7.54357 64.6944 6.75953L64.6814 5.4556L66.1973 5.44043C66.1524 5.35288 66.1036 5.26936 66.0549 5.19785L66.4582 5.12981C66.5031 5.22136 66.5482 5.32492 66.5893 5.43651L67.9332 5.42307L67.9368 5.78305L65.061 5.81182L65.0646 6.1798L65.6646 6.1738L65.6619 5.90581L66.0299 5.90213L66.0326 6.17012L66.9726 6.16072L66.9698 5.88873L67.3378 5.88505L67.3405 6.15703L67.9405 6.15103L67.944 6.50302L67.3441 6.50902L67.3502 7.12499L65.6743 7.14175L65.6681 6.52578L65.0682 6.53178ZM66.0361 6.5221L66.0391 6.82209L66.9791 6.81268L66.9761 6.5127L66.0361 6.5221Z" fill="white"/>
<path d="M71.4912 5.06885L71.8472 5.06406C71.6829 5.33829 71.5586 5.61599 71.4744 5.89715C71.359 6.24273 71.3077 6.59145 71.3124 6.93942C71.317 7.28339 71.3777 7.6306 71.5023 7.97696C71.594 8.25175 71.7257 8.526 71.8974 8.79972L71.5415 8.80451C71.3499 8.54306 71.2023 8.27302 71.0985 7.99439C70.97 7.65609 70.9053 7.30893 70.9005 6.94896C70.8956 6.585 70.9508 6.23222 71.0703 5.89458C71.1664 5.60526 71.3067 5.33135 71.4912 5.06885Z" fill="white"/>
<path d="M72.1723 6.27244L73.2962 6.2529C73.3258 6.11637 73.3595 5.98376 73.3891 5.84723L72.4373 5.86378L72.4311 5.50783L73.4629 5.48989C73.4923 5.33736 73.5176 5.18089 73.5469 5.02836L73.9394 5.05354C73.914 5.202 73.8885 5.34647 73.8669 5.48287L75.5386 5.4538L75.5448 5.80974L73.7971 5.84013C73.7675 5.98067 73.7379 6.1172 73.7081 6.24574L75.7878 6.20958L75.7941 6.57352L73.6144 6.61142C73.5692 6.77223 73.5278 6.92098 73.4823 7.06179L75.334 7.02959L75.3397 7.35754C75.1604 7.6327 74.8812 7.9096 74.5021 8.19223C74.7194 8.26846 74.9289 8.34884 75.1304 8.43335L74.9281 8.76491C74.3273 8.49532 73.7115 8.28199 73.0848 8.13286L73.2796 7.83343C73.5609 7.90055 73.8301 7.97188 74.0876 8.05542C74.4238 7.83354 74.688 7.61291 74.8801 7.38554L72.9444 7.4192C73.0359 7.16157 73.1193 6.89608 73.1985 6.61866L72.1787 6.63639L72.1723 6.27244Z" fill="white"/>
<path d="M77.4031 5.02396L77.783 5.01552L77.8529 8.15874L78.3328 8.14807L78.2629 5.00485L78.6428 4.9964L78.7127 8.13963L79.8804 8.11367L79.8887 8.48557L76.3216 8.56488L76.3133 8.19297L77.473 8.16719L77.4031 5.02396ZM79.4072 5.72359L79.7452 5.8121C79.6085 6.50331 79.4259 7.10752 79.1975 7.62873L78.8549 7.51631C79.0685 7.04745 79.2552 6.44715 79.4072 5.72359ZM76.6637 5.77659C76.8795 6.30792 77.0731 6.91577 77.2483 7.60004L76.9024 7.69575C76.7525 7.07093 76.563 6.46699 76.3421 5.88776L76.6637 5.77659Z" fill="white"/>
<path d="M81.006 8.55737L80.6662 8.56699L80.5761 8.2134C80.6805 8.22645 80.7767 8.23173 80.8687 8.22912C80.9646 8.22641 81.011 8.16907 81.008 8.06112L80.984 7.21346C80.8416 7.27351 80.6953 7.33367 80.5527 7.38573L80.4461 7.0126C80.6249 6.96752 80.7993 6.91056 80.9735 6.8416L80.949 5.97795L80.4972 5.99074L80.4869 5.62689L80.9387 5.6141L80.9189 4.91438L81.2868 4.90396L81.3066 5.60368L81.6984 5.59259L81.7087 5.95645L81.3169 5.96754L81.337 6.67925C81.4711 6.61143 81.6012 6.53972 81.7311 6.46402L81.7416 6.83587C81.6117 6.91157 81.4816 6.97928 81.3474 7.0471L81.3785 8.14666C81.386 8.41056 81.2619 8.55013 81.006 8.55737ZM81.8059 5.43348L82.7416 5.407L82.7264 4.87121L83.0943 4.8608L83.1094 5.39659L84.045 5.3701L84.0553 5.73396L83.1197 5.76044L83.1359 6.33221L83.9196 6.31003L83.9291 6.64589C83.8129 7.06535 83.6112 7.4312 83.3158 7.73968C83.5689 7.91659 83.8774 8.07193 84.2372 8.2018L84.0502 8.51922C83.6616 8.36215 83.3323 8.1794 83.0625 7.97895C82.7653 8.22346 82.4029 8.42579 81.9753 8.58996L81.7865 8.27918C82.1827 8.13991 82.5179 7.96635 82.7879 7.75063C82.4672 7.44758 82.2494 7.1056 82.1304 6.71682L81.9225 6.7227L81.9124 6.36685L82.7681 6.34262L82.7519 5.77085L81.8162 5.79734L81.8059 5.43348ZM82.4862 6.70674C82.591 7.0159 82.7748 7.28681 83.0416 7.52336C83.2747 7.27666 83.4468 6.99568 83.5578 6.67641L82.4862 6.70674Z" fill="white"/>
<path d="M84.416 5.72759L85.935 5.67348L85.9021 4.75006L86.2779 4.73667L86.3108 5.66009L87.8338 5.60583L87.8468 5.9696L86.6715 6.01147C86.9496 6.62596 87.4011 7.16622 88.0261 7.63227L87.7816 7.96118C87.1013 7.40105 86.6142 6.76198 86.3245 6.04385L86.4093 8.42633L86.0336 8.43972L85.949 6.06523C85.6856 6.87512 85.2254 7.55193 84.5682 8.09167L84.3483 7.75929C84.9325 7.3062 85.3524 6.73489 85.6002 6.04964L84.4289 6.09136L84.416 5.72759ZM86.9296 4.71746C87.166 4.94919 87.3493 5.15079 87.4795 5.32226L87.1834 5.54895C87.0483 5.35363 86.8648 5.14404 86.6403 4.91188L86.9296 4.71746Z" fill="white"/>
<path d="M90.6325 4.58828C90.6462 4.94002 90.6458 5.23626 90.6394 5.48469C90.9127 6.53884 91.5199 7.32778 92.4531 7.85181L92.2142 8.19338C91.4268 7.7117 90.8644 7.04511 90.5273 6.20161C90.2959 7.04327 89.7712 7.75226 88.953 8.32858L88.7079 7.99788C89.7615 7.30029 90.282 6.3793 90.2693 5.23093C90.2588 4.96313 90.2547 4.75513 90.2488 4.60325L90.6325 4.58828Z" fill="white"/>
<path d="M95.911 5.79868L95.9742 7.31337L95.5985 7.32903L95.5498 6.16204L93.5476 6.24549L93.5987 7.47243L93.223 7.48809L93.1574 5.91345L95.911 5.79868ZM93.3386 4.59276L95.6206 4.49765L95.6651 5.56472L93.383 5.65984L93.3386 4.59276ZM95.2837 5.25233L95.2669 4.84868L93.7202 4.91315L93.7371 5.3168L95.2837 5.25233ZM94.3995 6.41817L94.7847 6.43814C94.7537 7.03996 94.6465 7.44477 94.463 7.65259C94.2735 7.90871 93.7927 8.09289 93.0244 8.19697L92.862 7.85544C93.5041 7.79665 93.9268 7.65893 94.1259 7.44245C94.2976 7.23912 94.3875 6.89908 94.3995 6.41817ZM94.9087 7.30173C95.4341 7.41995 95.9127 7.56815 96.3525 7.74599L96.1578 8.07038C95.6927 7.86156 95.2176 7.70121 94.7327 7.59331L94.9087 7.30173Z" fill="white"/>
<path d="M96.6745 4.30535L97.0301 4.28937C97.2256 4.54085 97.3817 4.80611 97.4985 5.08915C97.6335 5.41942 97.7132 5.76819 97.7295 6.13183C97.7457 6.49146 97.6974 6.84199 97.5928 7.18703C97.5015 7.47142 97.3698 7.74961 97.1978 8.0216L96.8422 8.03759C96.9936 7.7545 97.1091 7.47303 97.1886 7.19318C97.2889 6.84032 97.3332 6.48998 97.3178 6.14633C97.3022 5.79868 97.2266 5.45372 97.0953 5.11528C96.9908 4.83969 96.8505 4.56972 96.6745 4.30535Z" fill="white"/>
<path d="M102.321 6.0268L101.977 6.04362L101.96 5.68804L103.019 5.63622L103.036 5.99179L102.692 6.00861L102.741 6.99143C102.899 6.94765 103.056 6.89988 103.21 6.84831L103.228 7.20388C102.885 7.31678 102.517 7.41887 102.125 7.50614L102.015 7.14708C102.134 7.12523 102.253 7.10338 102.372 7.07754L102.321 6.0268ZM103.962 7.65249C103.818 7.65953 103.681 7.55811 103.559 7.35584C103.419 7.1104 103.311 6.78329 103.235 6.37852C103.17 6.02929 103.117 5.60336 103.076 5.09276L101.842 5.15318L101.824 4.78562L103.05 4.72559C103.031 4.50225 103.02 4.26653 103.008 4.02682L103.375 4.00883C103.388 4.25653 103.399 4.48825 103.418 4.7076L104.181 4.67025L104.199 5.03781L103.444 5.07477C103.49 5.68525 103.554 6.17471 103.628 6.53953C103.73 6.99107 103.833 7.22229 103.942 7.23699C104.006 7.22587 104.058 6.98702 104.108 6.52805L104.419 6.75709C104.304 7.34344 104.154 7.64311 103.962 7.65249ZM103.711 3.9884C103.888 4.16397 104.024 4.32152 104.126 4.45266L103.871 4.64935C103.768 4.50222 103.628 4.34088 103.459 4.16492L103.711 3.9884ZM101.084 4.16502C101.342 4.34866 101.559 4.53426 101.737 4.72581L101.49 5.0022C101.329 4.82186 101.107 4.63246 100.833 4.43762L101.084 4.16502ZM100.602 5.35004L101.501 5.30604L101.581 6.95207C101.669 6.85568 101.76 6.7511 101.854 6.63435L101.973 7.02898C101.761 7.27965 101.536 7.50293 101.293 7.69903L101.133 7.36648C101.194 7.30741 101.227 7.24173 101.223 7.16582L101.151 5.68759L100.62 5.7136L100.602 5.35004Z" fill="white"/>
<path d="M106.112 3.90358L106.488 3.88347L106.507 4.23496L108.029 4.15344L108.048 4.50893L106.526 4.59045L106.548 5.01385L107.819 4.94581L107.891 6.29987L105.167 6.44579L105.095 5.09173L106.173 5.03396L106.112 3.90358ZM107.493 5.9687L107.458 5.32162L105.489 5.42711L105.524 6.07418L107.493 5.9687ZM105.166 6.57803L105.49 6.7169C105.365 7.06811 105.209 7.37289 105.03 7.63081L104.707 7.41982C104.886 7.18188 105.039 6.90128 105.166 6.57803ZM106.124 6.65492C106.217 6.90628 106.304 7.18202 106.384 7.47817L106.005 7.58659C105.94 7.26961 105.861 6.98944 105.772 6.74986L106.124 6.65492ZM106.952 6.55849C107.082 6.8239 107.198 7.11013 107.302 7.42097L106.932 7.52896C106.838 7.1975 106.726 6.90307 106.6 6.64943L106.952 6.55849ZM107.746 6.42782C108.015 6.74187 108.222 7.0152 108.371 7.25157L108.067 7.48816C107.913 7.23203 107.71 6.94651 107.453 6.6398L107.746 6.42782Z" fill="white"/>
<path d="M109.891 5.1646L109.911 5.516L111.405 5.42833L111.384 5.07694L109.891 5.1646ZM111.424 5.75976L109.931 5.84743L109.951 6.19084L111.444 6.10317L111.424 5.75976ZM111.463 6.43061L109.97 6.51827L110.019 7.35284L109.664 7.3737L109.547 5.38113C109.353 5.6369 109.139 5.87387 108.895 6.09652L108.633 5.79137C109.075 5.39681 109.417 4.95197 109.653 4.46531L108.667 4.52321L108.645 4.15584L109.815 4.08716C109.867 3.93989 109.91 3.7891 109.949 3.64254L110.339 3.66372C110.307 3.80183 110.271 3.93619 110.231 4.06279L112.159 3.94957L112.181 4.31694L110.088 4.43976C110.032 4.57529 109.968 4.70729 109.899 4.83553L111.72 4.72864L111.847 6.88892C111.86 7.10854 111.739 7.22785 111.484 7.25084L111.036 7.27709L110.924 6.93907C111.073 6.94238 111.213 6.94216 111.345 6.93443C111.441 6.9288 111.49 6.88183 111.485 6.79398L111.463 6.43061Z" fill="white"/>
<path d="M113.756 3.45206C113.92 3.64191 114.082 3.85198 114.237 4.08252L113.998 4.22215L114.824 4.16913C114.953 3.93237 115.063 3.65274 115.155 3.3342L115.533 3.41018C115.462 3.67927 115.365 3.92196 115.251 4.14172L116.01 4.09305L116.033 4.4603L114.732 4.5438L114.74 4.66755C114.744 4.85966 114.735 5.03658 114.718 5.20204L116.307 5.10009L116.33 5.46734L114.933 5.55699C115.16 6.02745 115.683 6.37465 116.503 6.60258L116.303 6.97619C115.442 6.68669 114.882 6.26569 114.615 5.71771C114.555 5.90993 114.478 6.08322 114.383 6.23359C114.135 6.61027 113.709 6.91413 113.107 7.14519L112.878 6.82719C113.48 6.58815 113.879 6.31003 114.079 5.99256C114.148 5.87194 114.203 5.7401 114.246 5.60105L112.881 5.68865L112.858 5.32141L114.327 5.22714C114.348 5.05744 114.361 4.88026 114.356 4.69214L114.349 4.56839L113.043 4.65215L113.02 4.28491L113.874 4.23009C113.727 4.00702 113.575 3.81241 113.419 3.642L113.756 3.45206Z" fill="white"/>
<path d="M116.63 3.58344L118.346 3.46433L118.372 3.83544L117.793 3.8756L117.846 4.64176L118.265 4.61268L118.282 4.8521C118.508 4.35924 118.644 3.77642 118.694 3.09939L119.068 3.11752C119.05 3.31926 119.023 3.51357 118.992 3.70017L120.165 3.61874L120.191 3.98984L119.927 4.00812C119.94 4.6488 119.83 5.19776 119.589 5.65554C119.843 5.96668 120.132 6.20323 120.452 6.36546L120.259 6.69965C119.934 6.53371 119.641 6.29345 119.387 5.9823C119.138 6.32436 118.805 6.60811 118.395 6.833L118.142 6.53781C118.584 6.3147 118.925 6.02241 119.157 5.66949C118.982 5.40096 118.828 5.09885 118.693 4.76344C118.624 4.92859 118.547 5.09031 118.461 5.24061L118.23 4.97597L117.871 5.0009L117.935 5.91869C118.123 5.84953 118.302 5.77693 118.473 5.70488L118.498 6.05604C118.023 6.26541 117.468 6.46436 116.831 6.65688L116.704 6.31691C116.782 6.29541 116.857 6.2702 116.935 6.2487L116.809 4.42907L117.164 4.40442L117.285 6.14025C117.387 6.1091 117.481 6.07851 117.575 6.04792L117.426 3.90109L116.656 3.95455L116.63 3.58344ZM119.345 5.31562C119.503 4.93976 119.574 4.51384 119.556 4.03388L118.91 4.07876C118.891 4.14826 118.875 4.21748 118.856 4.28299C118.995 4.67427 119.156 5.02 119.345 5.31562Z" fill="white"/>
<path d="M120.648 4.13759L122.228 4.02011L122.21 3.78077L122.561 3.75466L122.339 3.63077C122.496 3.36242 122.599 3.08198 122.649 2.78544L123.022 2.83793C123.005 2.92747 122.984 3.0173 122.962 3.09916L124.106 3.01401L124.131 3.34909L123.453 3.39952C123.542 3.51725 123.615 3.62818 123.674 3.72804L123.353 3.88031C123.269 3.72609 123.173 3.57276 123.066 3.4283L122.851 3.44432C122.797 3.57671 122.737 3.69744 122.674 3.81447L122.595 3.77224L122.611 3.99163L124.19 3.87415L124.216 4.2172L122.636 4.33468L122.654 4.56604L123.962 4.46874L124.02 5.2426C124.036 5.46598 123.925 5.58657 123.685 5.60437L123.414 5.62455L123.294 5.29659L123.554 5.29725C123.614 5.2928 123.643 5.25453 123.639 5.19071L123.612 4.82771L122.678 4.89713L122.702 5.22024C123.153 5.56375 123.729 5.81371 124.439 5.9775L124.266 6.33937C123.683 6.1661 123.171 5.91538 122.729 5.57925L122.799 6.52463L122.416 6.55311L122.347 5.61969C121.976 6.02432 121.543 6.34934 121.056 6.59813L120.803 6.27598C121.402 6.01489 121.909 5.66828 122.319 5.24074L122.295 4.92561L121.426 4.99028L121.482 5.75218L121.111 5.77977L121.03 4.68679L122.271 4.59452L122.253 4.36316L120.674 4.48064L120.648 4.13759ZM121.172 3.56921C121.094 3.71535 121.012 3.85381 120.917 3.9812L120.575 3.80208C120.803 3.51643 120.957 3.21617 121.038 2.9013L121.407 2.95409C121.381 3.04821 121.352 3.13864 121.322 3.22108L122.276 3.15018L122.3 3.48526L121.714 3.52887C121.803 3.64659 121.883 3.75693 121.947 3.86048L121.613 4.00965C121.53 3.85543 121.43 3.7024 121.323 3.55794L121.172 3.56921Z" fill="white"/>
<path d="M126.014 3.22632L126.232 6.00173L125.87 6.0303L125.853 5.82294L125.223 5.87254L125.249 6.19554L124.886 6.22411L124.658 3.33305L125.037 3.30323C125.092 3.08225 125.13 2.85853 125.144 2.62473L125.527 2.64675C125.504 2.86921 125.461 3.07729 125.4 3.27466L126.014 3.22632ZM125.196 5.52163L125.826 5.47203L125.764 4.68646L125.134 4.73606L125.196 5.52163ZM125.107 4.39711L125.737 4.34751L125.679 3.61378L125.049 3.66338L125.107 4.39711ZM126.807 4.12685C127.096 4.43312 127.322 4.70024 127.481 4.93648L127.198 5.17138C127.026 4.92012 126.796 4.64534 126.515 4.34243L126.807 4.12685ZM128.072 3.06832C128.18 4.44407 128.227 5.29501 128.212 5.61716C128.195 5.90741 128.015 6.06604 127.676 6.09272C127.596 6.099 127.452 6.10232 127.252 6.10606L127.133 5.76635C127.309 5.76051 127.461 5.75656 127.589 5.74652C127.748 5.73396 127.833 5.643 127.844 5.47363C127.852 5.27237 127.811 4.6015 127.73 3.46438L126.729 3.54318C126.636 3.79123 126.526 4.02059 126.39 4.23191L126.139 3.95073C126.372 3.54719 126.519 3.06619 126.571 2.50836L126.95 2.52671C126.928 2.75315 126.888 2.96491 126.84 3.16533L128.072 3.06832Z" fill="white"/>
<path d="M128.896 2.3752C129.185 2.56415 129.43 2.75671 129.63 2.9489L129.385 3.23401C129.209 3.04783 128.968 2.85095 128.658 2.64371L128.896 2.3752ZM131.483 5.75822C131.264 5.77629 131.024 5.79201 130.769 5.80905C130.509 5.82641 130.296 5.8199 130.125 5.79383C129.962 5.75913 129.815 5.67495 129.684 5.54927C129.622 5.48609 129.572 5.45814 129.524 5.46209C129.44 5.46898 129.312 5.6602 129.138 6.03574L128.837 5.79961C129.01 5.46028 129.173 5.24219 129.326 5.14932L129.233 4.02114L128.699 4.06516L128.67 3.71435L129.559 3.6411L129.683 5.14799C129.704 5.16229 129.726 5.18058 129.748 5.20286C129.848 5.30294 129.95 5.37479 130.054 5.4184C130.178 5.46436 130.357 5.48578 130.593 5.47437C130.82 5.45964 131.088 5.44162 131.399 5.416C131.594 5.3999 131.793 5.37949 131.992 5.35908C132.191 5.33867 132.346 5.31789 132.453 5.30105L132.392 5.68333L131.483 5.75822ZM130.532 2.63781L129.762 2.70121L129.736 2.38628L131.925 2.20595L131.947 2.47304C131.732 2.69142 131.499 2.87921 131.247 3.04441C131.256 3.05172 131.264 3.05505 131.273 3.06237L132.074 2.99635L132.22 4.76635C132.239 5.00155 132.118 5.13199 131.859 5.15334L131.552 5.17863L131.446 4.87026L131.73 4.86289C131.818 4.85566 131.862 4.80787 131.855 4.72017L131.838 4.51686L131.264 4.56416L131.318 5.21794L130.971 5.24652L130.917 4.59273L130.355 4.63905L130.41 5.30081L130.051 5.33037L129.874 3.17766L130.791 3.10211C130.652 3.02525 130.497 2.94572 130.326 2.87148L130.532 2.63781ZM131.001 2.88407C131.162 2.78655 131.31 2.67807 131.444 2.56259L130.552 2.63617C130.711 2.71937 130.862 2.79923 131.001 2.88407ZM130.307 4.05303L130.33 4.33209L130.892 4.28577L130.869 4.00672L130.307 4.05303ZM131.216 3.97814L131.239 4.2572L131.813 4.2099L131.79 3.93084L131.216 3.97814ZM131.764 3.6199L131.741 3.34084L131.167 3.38814L131.19 3.6672L131.764 3.6199ZM130.844 3.69577L130.821 3.41672L130.258 3.46303L130.281 3.74209L130.844 3.69577Z" fill="white"/>
<path d="M135.954 2.13648L136.219 5.24519L135.852 5.27647L135.833 5.04929L135.135 5.10878L135.155 5.33994L134.789 5.37122L134.523 2.25852L135.954 2.13648ZM135.105 4.75407L135.803 4.69458L135.617 2.52247L134.92 2.58196L135.105 4.75407ZM133.133 2.85485C133.058 3.06194 132.97 3.25412 132.873 3.43103L132.524 3.24801C132.747 2.85161 132.896 2.43344 132.967 1.99382L133.348 2.04158C133.321 2.19643 133.285 2.34 133.249 2.47959L134.337 2.38678L134.368 2.74946L133.826 2.79569C133.839 3.04348 133.847 3.27566 133.841 3.48893L134.463 3.4359L134.494 3.79858L133.82 3.85603C133.812 3.94507 133.799 4.03446 133.79 4.11553C134.054 4.34189 134.325 4.59582 134.606 4.87696L134.405 5.2474C134.128 4.91775 133.897 4.66043 133.712 4.47543C133.581 4.90819 133.328 5.28704 132.946 5.60867L132.673 5.32685C133.061 4.98461 133.3 4.58685 133.394 4.12925C133.403 4.05217 133.417 3.97076 133.426 3.88969L132.641 3.95666L132.61 3.59398L133.451 3.52225C133.456 3.30897 133.449 3.07679 133.436 2.82901L133.133 2.85485Z" fill="white"/>
<path d="M136.822 1.63951L137.81 3.42813L137.148 5.36126L136.817 5.24574L137.428 3.46164L136.516 1.81089L136.822 1.63951ZM137.504 1.57982L138.492 3.36844L137.83 5.30157L137.498 5.18605L138.109 3.40195L137.182 1.7526L137.504 1.57982Z" fill="white"/>
</svg>
