<svg width="89" height="15" viewBox="0 0 89 15" fill="none" xmlns="http://www.w3.org/2000/svg">
<path d="M3.52501 4.65822L3.86401 4.79503L3.12094 6.53527L3.92153 8.24258L3.60467 8.39338L2.73703 6.54345L3.52501 4.65822ZM4.20886 4.64364L4.53185 4.78078L3.80479 6.52068L4.60537 8.228L4.28852 8.37879L3.42087 6.52887L4.20886 4.64364Z" fill="white"/>
<path d="M6.05366 4.5929C6.21857 4.78239 6.38083 4.9921 6.53642 5.2223L6.29718 5.36245L7.12336 5.3076C7.25194 5.07056 7.36164 4.79068 7.45272 4.47194L7.83053 4.54708C7.76021 4.81633 7.66409 5.05923 7.55042 5.27924L8.30875 5.22889L8.33313 5.59608L7.03199 5.68247L7.04021 5.8062C7.04495 5.99831 7.03665 6.17525 7.01958 6.34074L8.60808 6.23527L8.63246 6.60246L7.23554 6.69521C7.46317 7.16517 7.98725 7.51121 8.80803 7.73732L8.60838 8.11137C7.74743 7.82378 7.18639 7.40403 6.91753 6.85664C6.85815 7.04899 6.78147 7.22246 6.68724 7.37303C6.43969 7.75026 6.01495 8.05507 5.41302 8.28746L5.18348 7.96997C5.78488 7.7296 6.18327 7.45059 6.38265 7.13268C6.45079 7.0119 6.50617 6.87994 6.54905 6.7408L5.18406 6.83143L5.15967 6.46424L6.62844 6.36671C6.64924 6.19696 6.66153 6.01976 6.65705 5.83164L6.64884 5.70792L5.34371 5.79457L5.31933 5.42738L6.17345 5.37067C6.02637 5.14793 5.87316 4.95365 5.71755 4.78358L6.05366 4.5929Z" fill="white"/>
<path d="M9.14901 4.48579L12.1598 4.16296L12.1994 4.53284L10.9307 4.66888L11.0347 5.63931L12.5819 5.47342L12.6224 5.85126L11.0753 6.01715L11.2207 7.37337C11.2505 7.65178 11.1187 7.81074 10.8284 7.84187L10.196 7.90967L10.0772 7.5523C10.2814 7.54248 10.4771 7.52954 10.66 7.50992C10.7873 7.49628 10.8446 7.4298 10.8326 7.31843L10.6974 6.05766L9.08268 6.2308L9.04217 5.85297L10.6569 5.67983L10.5529 4.70939L9.18867 4.85567L9.14901 4.48579Z" fill="white"/>
<path d="M13.4294 3.99436L15.8542 3.65797L15.8918 4.16159L16.3593 4.09673L16.4082 4.44935L15.9169 4.51751L15.9545 5.02113L13.4306 5.37126L13.4287 4.86269L12.9374 4.93085L12.8885 4.57823L13.4274 4.50347L13.4294 3.99436ZM13.7795 5.00384L14.4807 4.90655L14.4822 4.68424L13.7849 4.78098L13.7795 5.00384ZM13.7918 4.48119L14.4811 4.38555L14.4792 4.16775L13.7977 4.26229L13.7918 4.48119ZM14.8279 4.11938L14.8298 4.33718L15.543 4.23824L15.5291 4.02209L14.8279 4.11938ZM15.5599 4.53473L14.8309 4.63587L14.8294 4.85818L15.5703 4.75539L15.5599 4.53473ZM16.0673 5.22353L16.2482 6.52705L15.8718 6.57927L15.7388 5.62045L13.8885 5.87714L14.0215 6.83596L13.6412 6.88872L13.4603 5.58521L16.0673 5.22353ZM15.1676 6.56793C15.7285 6.62338 16.2457 6.71315 16.7193 6.83726L16.5606 7.17829C16.0476 7.0314 15.5332 6.93315 15.013 6.88013L15.1676 6.56793ZM14.7181 5.94781L15.0955 5.9318C15.0939 6.32778 14.9703 6.65991 14.7254 6.93214C14.5089 7.17621 14.1001 7.40253 13.4985 7.60714L13.2996 7.27936C13.8179 7.11458 14.1801 6.93107 14.3862 6.72882C14.5964 6.52602 14.7055 6.26455 14.7181 5.94781Z" fill="white"/>
<path d="M17.2484 3.29767L17.5958 3.3976C17.499 3.81739 17.2894 4.21422 16.9708 4.58746L16.7946 4.2343C17.0175 3.94876 17.1716 3.63746 17.2484 3.29767ZM17.5192 4.13L17.8541 4.22781C17.8194 4.39512 17.7676 4.55697 17.7039 4.72066L18.0436 6.91047L17.6839 6.96627L17.4184 5.25474C17.3328 5.38136 17.242 5.50069 17.1467 5.61667L16.9796 5.27019C17.2498 4.92468 17.4297 4.54462 17.5192 4.13ZM18.4434 6.09555L18.3001 5.798C18.3693 5.7225 18.3935 5.61755 18.3727 5.48316L18.228 4.55031L17.9724 4.65069L17.8701 4.33058L18.1753 4.21038L18.0275 3.25777L18.3753 3.20381L18.5108 4.07737L18.896 3.92452L18.9949 4.24919L18.5636 4.4173L18.7438 5.5794C18.8696 5.50322 18.9909 5.42369 19.1115 5.34021L19.2438 5.61922C19.3491 5.14954 19.352 4.59453 19.2612 3.95691L19.211 3.63279L18.8078 3.69533L18.7557 3.35935L20.2577 3.12635C20.4895 4.62048 20.6132 5.54848 20.6316 5.90184C20.646 6.25581 20.4918 6.46189 20.1597 6.51339C20.0846 6.52504 19.953 6.53737 19.7699 6.55767L19.6391 6.26224C19.8024 6.245 19.9413 6.22749 20.0599 6.2091C20.2101 6.1858 20.2781 6.04978 20.2644 5.80498C20.2531 5.576 20.1512 4.81462 19.958 3.5169L19.5548 3.57944L19.6051 3.90357C19.7833 5.13075 19.63 6.07339 19.1452 6.73149L18.8317 6.53725C19.0266 6.28034 19.1622 5.98001 19.2411 5.62774C19.0275 5.79041 18.7607 5.94918 18.4434 6.09555Z" fill="white"/>
<path d="M20.7492 3.00778L21.6232 2.875L21.5884 2.64563L21.9522 2.59036L21.987 2.81973L22.9599 2.67193L22.925 2.44256L23.2888 2.38729L23.3237 2.61666L24.1977 2.48388L24.2469 2.80816L23.373 2.94094L23.4126 3.20194L23.0488 3.25721L23.0091 2.99621L22.0363 3.14401L22.0735 3.38919L21.7097 3.44447L21.6725 3.19928L20.7985 3.33206L20.7492 3.00778ZM21.19 3.4587C21.4647 3.56261 21.6999 3.67253 21.8961 3.79242L21.6787 4.09248C21.5034 3.9775 21.2671 3.85966 20.9702 3.74293L21.19 3.4587ZM21.1616 4.28431C21.4443 4.38703 21.6834 4.49635 21.883 4.61168L21.661 4.90838C21.4824 4.79796 21.2427 4.68468 20.9418 4.56855L21.1616 4.28431ZM21.5734 5.10377L21.9129 5.18165C21.8158 5.58077 21.6953 5.95917 21.5559 6.32019L21.1674 6.21333C21.3305 5.84869 21.4641 5.47641 21.5734 5.10377ZM23.9869 4.74519C23.7087 4.69844 23.4558 4.63167 23.2322 4.54427C23.0434 4.68624 22.8336 4.82331 22.6028 4.95547L23.9869 4.74519ZM23.5207 4.28601C23.8428 4.38272 24.2083 4.44453 24.6237 4.46234L24.4603 4.79869C24.3579 4.78998 24.2639 4.78403 24.1772 4.77291L24.3581 5.96326L24.0101 6.01613L23.9872 5.86585L22.8562 6.03768L22.8791 6.18796L22.531 6.24083L22.3556 5.08608C22.2801 5.12182 22.208 5.15301 22.1404 5.18755L21.8751 4.93251C22.2781 4.76205 22.6148 4.58143 22.8925 4.38549C22.7424 4.3031 22.6069 4.21039 22.49 4.10677C22.3663 4.251 22.2328 4.38456 22.0863 4.51201L21.8262 4.26427C22.2239 3.953 22.4743 3.60343 22.5744 3.22409L22.932 3.23449C22.9118 3.31443 22.891 3.39042 22.865 3.45911L23.9723 3.29088L24.012 3.55189C23.9102 3.81415 23.7449 4.05774 23.5207 4.28601ZM22.6699 3.85287C22.8181 3.97601 22.987 4.07578 23.1779 4.16007C23.3564 4.00348 23.4975 3.84044 23.5972 3.67154L22.6995 3.80792C22.6861 3.82614 22.6761 3.83981 22.6699 3.85287ZM22.807 5.7134L23.938 5.54157L23.8707 5.09865L22.7397 5.27048L22.807 5.7134Z" fill="white"/>
<path d="M26.8564 4.81728C26.5791 5.19995 26.0972 5.52838 25.4146 5.80207L25.1668 5.50738C25.8796 5.2177 26.3517 4.90667 26.5785 4.57084L26.6342 4.47089L25.095 4.66969L25.0488 4.31266L26.7824 4.08875C26.8469 3.83843 26.8681 3.56546 26.8461 3.26985L26.7836 2.78587L27.1485 2.73873L27.211 3.22271C27.237 3.51781 27.2277 3.78924 27.1791 4.03751L28.4248 3.87662L28.4709 4.23366L27.0705 4.41453C27.0548 4.44883 27.0391 4.48312 27.0273 4.51691C27.6024 4.66042 28.139 4.84924 28.6361 5.07543L28.4718 5.42738C27.9369 5.15768 27.3987 4.95696 26.8564 4.81728ZM25.5188 3.48565C25.8153 3.56431 26.0911 3.66986 26.3461 3.80227L26.1902 4.12491C25.9202 3.97023 25.6438 3.86072 25.3687 3.79139L25.5188 3.48565ZM25.8358 2.88005C26.1318 2.95475 26.4076 3.06029 26.6587 3.19322L26.5027 3.51586C26.2332 3.36514 25.9604 3.25115 25.6852 3.18182L25.8358 2.88005ZM28.156 2.07623L28.261 2.88947L27.896 2.93661L27.8356 2.4685L25.2491 2.80257L25.3095 3.27068L24.9445 3.31782L24.8395 2.50458L26.3272 2.31243C26.2692 2.20699 26.2122 2.10949 26.1523 2.02043L26.5289 1.90725C26.5909 2.01218 26.6504 2.12952 26.708 2.26325L28.156 2.07623Z" fill="white"/>
<path d="M31.9234 1.33312L32.2551 1.44764L31.6498 3.23357L32.5664 4.88156L32.2607 5.05386L31.2674 3.26824L31.9234 1.33312Z" fill="white"/>
<path d="M34.3221 1.20621L34.7137 1.18891L34.7442 1.88023L36.1669 1.81738L36.2521 3.7475L35.8725 3.76427L35.8624 3.53649L34.8195 3.58257L34.8786 4.92127L34.487 4.93857L34.4278 3.59987L33.3889 3.64578L33.3989 3.87355L33.0193 3.89033L32.934 1.96021L34.3526 1.89753L34.3221 1.20621ZM33.3724 3.27414L34.4114 3.22824L34.369 2.26917L33.3301 2.31508L33.3724 3.27414ZM34.803 3.21093L35.846 3.16485L35.8036 2.20579L34.7607 2.25187L34.803 3.21093Z" fill="white"/>
<path d="M37.7785 1.9131L39.7584 1.92723L39.756 2.27123L38.96 2.26555L38.9565 2.75753L39.6284 2.76233L39.6261 3.09832L38.9541 3.09352L38.9501 3.64951L39.3581 3.65242C39.2872 3.49191 39.2122 3.35537 39.1331 3.23481L39.4337 3.14095C39.5248 3.2696 39.6039 3.40617 39.6708 3.55865L39.4541 3.65311L39.8621 3.65602L39.8596 4.00001L37.6557 3.98428L37.6581 3.64029L38.5661 3.64677L38.5701 3.09078L37.8981 3.08599L37.9005 2.75L38.5725 2.75479L38.576 2.26281L37.776 2.2571L37.7785 1.9131ZM40.4549 1.29619L40.4297 4.8281L40.0457 4.82536L40.0468 4.67336L37.4549 4.65487L37.4538 4.80686L37.0698 4.80412L37.095 1.27221L40.4549 1.29619ZM37.4574 4.29887L40.0494 4.31737L40.0684 1.65344L37.4764 1.63494L37.4574 4.29887Z" fill="white"/>
<path d="M41.5285 2.02183C41.4567 2.16617 41.3701 2.28568 41.2771 2.37679L40.9814 2.14052C41.1843 1.94317 41.3194 1.66604 41.3912 1.30138L41.7436 1.37648C41.7176 1.48724 41.692 1.59001 41.6631 1.68058L42.0266 1.7002L42.052 1.22888L42.4275 1.24914L42.4021 1.72045L43.117 1.75903L43.0983 2.10653L42.3833 2.06795L42.3602 2.49533L43.191 2.54015L43.1719 2.89564L42.3411 2.85081L42.323 3.18632L43.0938 3.22792L43.0363 4.29437C43.0221 4.55798 42.8792 4.68246 42.6076 4.66781L42.4118 4.65725L42.3352 4.29659L42.51 4.32205C42.6179 4.32787 42.6764 4.28296 42.6811 4.19509L42.7154 3.56001L42.304 3.53781L42.2292 4.9238L41.8538 4.90354L41.9285 3.51755L41.5171 3.49535L41.4557 4.6337L41.0883 4.61387L41.1686 3.12404L41.9475 3.16606L41.9656 2.83055L41.031 2.78012L41.0501 2.42464L41.9848 2.47507L42.0078 2.04769L41.5285 2.02183ZM43.4266 1.66357L43.7941 1.6834L43.6622 4.12785L43.2947 4.10802L43.4266 1.66357ZM44.0205 4.9844L43.4254 4.95229L43.3611 4.58429C43.552 4.61061 43.7313 4.6283 43.9071 4.63778C44.0109 4.64338 44.0658 4.59027 44.0717 4.48242L44.2408 1.34698L44.6163 1.36724L44.4419 4.59854C44.4273 4.87015 44.2842 4.99862 44.0205 4.9844Z" fill="white"/>
<path d="M45.4053 1.42798C45.6497 1.66961 45.8582 1.90818 46.0231 2.13902L45.7337 2.37931C45.5919 2.15847 45.3918 1.9166 45.1252 1.653L45.4053 1.42798ZM47.3786 5.21727C47.1634 5.19892 46.9246 5.17455 46.6699 5.14882C46.4111 5.12276 46.2019 5.08084 46.0419 5.02705C45.8866 4.96564 45.7552 4.8581 45.6472 4.71239C45.5972 4.63988 45.5481 4.60358 45.5043 4.59985C45.4166 4.59237 45.2578 4.75949 45.0236 5.10485L44.7667 4.82201C44.9939 4.51218 45.1945 4.32455 45.3608 4.25842L45.4569 3.13051L44.9228 3.08499L44.9527 2.73426L45.8415 2.81002L45.7127 4.32054C45.7273 4.33784 45.7459 4.35549 45.7638 4.3811C45.8503 4.49686 45.9391 4.58472 46.0304 4.64469C46.1452 4.71068 46.3175 4.7615 46.5559 4.78985C46.7788 4.81286 47.0455 4.83961 47.3564 4.86611C47.5516 4.88275 47.7513 4.89576 47.9549 4.9091C48.1545 4.9221 48.3106 4.92737 48.4229 4.92892L48.2993 5.29574L47.3786 5.21727ZM46.6775 2.32728C46.6022 2.45735 46.5199 2.57479 46.4344 2.68392L46.1401 2.46213C46.3545 2.20742 46.5152 1.92404 46.6221 1.61199L46.9627 1.71328C46.9263 1.81054 46.8903 1.90382 46.8509 1.98878L47.2495 2.02276L47.2875 1.57637L47.6502 1.60729L47.6121 2.05367L48.3973 2.1206L48.3674 2.47132L47.5822 2.4044L47.5459 2.83085L48.5383 2.91544L48.5087 3.26219L46.0457 3.05224L46.0752 2.70549L47.1832 2.79994L47.2196 2.37348L46.6775 2.32728ZM46.3471 3.33084L48.1964 3.48848L48.0962 4.66421L46.2469 4.50658L46.3471 3.33084ZM47.763 4.28655L47.8042 3.8043L46.6802 3.7085L46.6391 4.19075L47.763 4.28655Z" fill="white"/>
<path d="M50.1899 2.22873C50.4602 2.259 50.6783 2.35991 50.8354 2.5385C50.9885 2.71665 51.0533 2.92918 51.0252 3.17961C50.9976 3.42607 50.8773 3.638 50.6717 3.82025C50.5475 3.92306 50.3358 4.0523 50.0322 4.2115C49.7034 4.37995 49.5005 4.53836 49.4235 4.68671L50.8427 4.84565L50.7999 5.22726L48.8442 5.00822C48.8758 4.72599 48.9948 4.48977 49.2097 4.29648C49.3268 4.18482 49.5606 4.03793 49.9075 3.85139C50.1135 3.7376 50.2606 3.64541 50.3495 3.57084C50.4927 3.44198 50.5777 3.29451 50.5964 3.12756C50.6142 2.96855 50.5838 2.8444 50.5053 2.7551C50.4267 2.66581 50.3 2.61136 50.133 2.59266C49.9541 2.57263 49.8123 2.61712 49.7071 2.73011C49.5983 2.83868 49.5315 3.00427 49.4977 3.23394L49.0644 3.18541C49.104 2.86784 49.2239 2.62367 49.4242 2.4529C49.6302 2.26667 49.8878 2.1949 50.1899 2.22873Z" fill="white"/>
<path d="M53.2512 2.59808C53.5843 2.64263 53.8234 2.81586 53.9681 3.12175C54.0996 3.40569 54.1362 3.76572 54.0774 4.2058C54.019 4.64192 53.8886 4.98364 53.6871 5.22303C53.4676 5.47617 53.1908 5.58443 52.8577 5.53988C52.5247 5.49534 52.2861 5.31814 52.1408 5.01622C52.0093 4.73228 51.9727 4.37225 52.0316 3.93217C52.091 3.48812 52.2209 3.15036 52.4219 2.91493C52.6419 2.65783 52.9182 2.55354 53.2512 2.59808ZM53.2024 2.96283C52.9685 2.93155 52.789 3.03667 52.6594 3.28165C52.5647 3.44655 52.5006 3.68416 52.4598 3.98944C52.4195 4.29075 52.4188 4.53684 52.4663 4.7248C52.5276 4.99127 52.6726 5.14384 52.9065 5.17513C53.1365 5.20589 53.3205 5.09733 53.4496 4.85631C53.5408 4.68692 53.6089 4.44984 53.6492 4.14853C53.69 3.84325 53.6867 3.59663 53.6426 3.41317C53.5819 3.14273 53.4324 2.99359 53.2024 2.96283Z" fill="white"/>
<path d="M56.348 3.03818C56.6168 3.0796 56.8306 3.18943 56.9802 3.37437C57.1258 3.5587 57.1817 3.77372 57.1433 4.02278C57.1056 4.26789 56.9766 4.47465 56.7637 4.64826C56.6353 4.74585 56.4184 4.86623 56.1085 5.01274C55.773 5.16746 55.5638 5.31734 55.4807 5.46239L56.8921 5.67984L56.8336 6.05936L54.8885 5.75968C54.9318 5.47899 55.0605 5.24789 55.2831 5.06365C55.4048 4.95693 55.6445 4.81983 55.9988 4.64778C56.2093 4.54261 56.3601 4.45657 56.452 4.38574C56.6004 4.26291 56.6914 4.11908 56.717 3.95304C56.7413 3.79491 56.7161 3.66961 56.6413 3.57714C56.5666 3.48467 56.4422 3.42504 56.2761 3.39945C56.0982 3.37204 55.9547 3.41063 55.8449 3.51918C55.7317 3.62316 55.6581 3.78585 55.6149 4.01392L55.1839 3.94753C55.2366 3.63187 55.3665 3.39286 55.5737 3.23051C55.7872 3.05296 56.0475 2.99189 56.348 3.03818Z" fill="white"/>
<path d="M58.2663 3.39477L59.9614 3.68659L59.8962 4.06502L58.5481 3.83292L58.3255 4.63072L58.3373 4.63276C58.4397 4.55702 58.5491 4.51092 58.6702 4.49118C58.7801 4.46546 58.9018 4.46611 59.0279 4.48783C59.292 4.5333 59.4939 4.65735 59.6296 4.8593C59.7653 5.06125 59.8113 5.3127 59.7591 5.61624C59.7089 5.90794 59.5578 6.12546 59.313 6.27409C59.0835 6.40504 58.8287 6.44643 58.5489 6.39824C58.2966 6.35481 58.092 6.24653 57.9344 6.07734C57.7591 5.89293 57.6847 5.665 57.7098 5.40144L58.1316 5.47405C58.1202 5.63445 58.1623 5.76751 58.2551 5.86467C58.3375 5.95192 58.4576 6.00911 58.6152 6.03626C58.7887 6.06612 58.944 6.03604 59.0806 5.94997C59.2179 5.85995 59.3014 5.72822 59.3327 5.54688C59.3666 5.34978 59.3418 5.18722 59.2583 5.0592C59.1748 4.93118 59.0424 4.85156 58.8532 4.81899C58.7271 4.79727 58.6172 4.79865 58.5145 4.82967C58.4038 4.85933 58.3161 4.92133 58.2432 5.01433L57.8411 4.9451L58.2663 3.39477Z" fill="white"/>
<path d="M61.7272 3.54072L62.1872 5.53155L61.021 7.20939L60.734 7.0075L61.8101 5.45897L61.3857 3.62165L61.7272 3.54072Z" fill="white"/>
<path d="M66.5567 5.20389L65.9782 7.92713L65.6222 7.85149L65.6654 7.64803L65.0472 7.51671L64.9799 7.83363L64.6238 7.758L65.2264 4.9213L65.5981 5.00026C65.7134 4.80393 65.8139 4.60037 65.8934 4.38008L66.2543 4.50991C66.1695 4.7168 66.0684 4.90388 65.9542 5.07589L66.5567 5.20389ZM65.1203 7.17239L65.7385 7.30371L65.9023 6.53291L65.2841 6.40159L65.1203 7.17239ZM65.3547 6.06901L65.9729 6.20033L66.1259 5.4804L65.5077 5.34907L65.3547 6.06901ZM67.0615 6.29255C67.2516 6.66825 67.3922 6.98844 67.4776 7.26011L67.1401 7.40515C67.0462 7.11533 66.9034 6.78648 66.7204 6.41636L67.0615 6.29255ZM68.5748 5.63669C68.2881 6.98656 68.0915 7.81581 67.9859 8.12052C67.8869 8.39392 67.6692 8.49488 67.3366 8.42423C67.2583 8.40761 67.1191 8.36986 66.926 8.31656L66.9083 7.95704C67.0788 8.00144 67.2258 8.04085 67.351 8.06745C67.5076 8.10069 67.615 8.03764 67.6734 7.8783C67.7384 7.68765 67.8898 7.03281 68.1345 5.91936L67.1524 5.71073C66.993 5.92222 66.8221 6.11082 66.6318 6.27487L66.4711 5.93404C66.8092 5.61328 67.0864 5.19373 67.295 4.67373L67.6528 4.79881C67.5672 5.00961 67.4692 5.20143 67.3658 5.37986L68.5748 5.63669Z" fill="white"/>
<path d="M70.3416 8.33515C69.9489 8.59813 69.3831 8.73937 68.648 8.75977L68.5176 8.39751C69.2866 8.37256 69.8371 8.24423 70.1662 8.00774L70.253 7.93324L68.7402 7.58675L68.8206 7.23584L70.5245 7.62609C70.6716 7.41358 70.7861 7.16485 70.8677 6.87989L70.9767 6.40421L71.3354 6.48637L71.2264 6.96205C71.1487 7.2479 71.0459 7.49931 70.9144 7.71539L72.1387 7.9958L72.0583 8.34672L70.6819 8.03148C70.6553 8.05821 70.6287 8.08493 70.6059 8.11255C71.0958 8.44634 71.5338 8.80929 71.9218 9.19361L71.6458 9.4669C71.2373 9.02864 70.802 8.65399 70.3416 8.33515ZM69.5478 6.62272C69.7988 6.7992 70.0209 6.99371 70.2144 7.20626L69.9563 7.45493C69.7566 7.21631 69.5353 7.0179 69.3012 6.85758L69.5478 6.62272ZM70.055 6.16437C70.3068 6.33695 70.529 6.53146 70.7185 6.74312L70.4605 6.99179C70.2598 6.75707 70.0433 6.55565 69.8092 6.39533L70.055 6.16437ZM72.5099 6.2137L72.3268 7.01301L71.9681 6.93085L72.0735 6.47076L69.5313 5.88851L69.426 6.34859L69.0672 6.26643L69.2503 5.46713L70.7125 5.80202C70.6946 5.68302 70.6749 5.57182 70.6495 5.46753L71.042 5.49177C71.0638 5.61166 71.079 5.74235 71.0868 5.88775L72.5099 6.2137Z" fill="white"/>
<path d="M73.0002 6.51373L73.5639 6.65023C73.5393 6.46317 73.5079 6.28683 73.465 6.12416L73.8581 6.14938C73.8856 6.32478 73.9083 6.51962 73.9216 6.73684L74.3803 6.84792L74.2937 7.20558L73.5356 7.02201L73.4255 7.47687L74.1136 7.64349C73.8688 8.65428 73.6978 9.27548 73.6093 9.5051C73.514 9.72894 73.3137 9.80804 73.0027 9.73273C72.9716 9.7252 72.9191 9.70424 72.8471 9.67858L72.8455 9.32836C72.9126 9.35697 72.9729 9.37981 73.0274 9.39299C73.1634 9.42594 73.2611 9.37962 73.3203 9.25403C73.3717 9.12655 73.4935 8.67452 73.6887 7.90276L73.3388 7.81804C73.1074 8.67156 72.8101 9.27041 72.4469 9.6146L72.2292 9.30673C72.5586 8.98317 72.8279 8.3981 73.0351 7.55931L73.1857 6.93729L72.9136 6.87139L73.0002 6.51373ZM74.8856 7.20896C74.6895 7.45781 74.4873 7.66401 74.278 7.83146L74.1066 7.48541C74.4056 7.25326 74.697 6.89991 74.9836 6.43016L75.3108 6.5917C75.2437 6.69891 75.1784 6.79835 75.1132 6.89779L76.4544 7.22257L76.3706 7.56857L74.8856 7.20896ZM76.1301 7.96715C75.9503 8.70969 75.8216 9.15595 75.7529 9.30393C75.6802 9.45096 75.5166 9.49777 75.26 9.43564L75.2406 9.43093L75.2226 9.09733C75.2887 9.11333 75.3461 9.13134 75.3966 9.14358C75.4394 9.15393 75.476 9.12165 75.5017 9.04966C75.5254 8.98546 75.5906 8.75019 75.6885 8.34588L75.3677 8.3793L75.0608 9.64667L74.7187 9.56383L74.9964 8.41697L74.6716 8.44945L74.4259 9.46413C74.3845 9.63519 74.4211 9.73872 74.5378 9.76696L75.2725 9.94489C75.3542 9.96466 75.4211 9.96028 75.4694 9.93082C75.5273 9.89546 75.5914 9.76693 75.6625 9.54132L75.9568 9.71959C75.8408 10.0455 75.7345 10.2296 75.632 10.2789C75.5402 10.3184 75.416 10.3212 75.2527 10.2817L74.3547 10.0642C74.0903 10.0002 74.0005 9.79325 74.0833 9.45114L74.3168 8.48701L74.0172 8.51736L74.0982 8.18302L74.3978 8.15267L74.5239 7.63172L74.8505 7.7108L74.7526 8.11512L75.0783 8.07875L75.2261 7.46839L75.5682 7.55123L75.4496 8.04107L76.1301 7.96715Z" fill="white"/>
<path d="M77.6843 7.66637L77.0792 7.51409L77.1573 7.20377L78.4374 7.52589C78.4229 7.45214 78.4075 7.38226 78.3901 7.32015L78.8053 7.35862C78.8178 7.44013 78.8322 7.53038 78.8408 7.62741L80.1829 7.96514L80.1049 8.27547L79.4881 8.12027L79.317 8.3247L80.2286 8.55409L80.1486 8.87217L76.7583 8.01905L76.8383 7.70096L77.7188 7.92254L77.6843 7.66637ZM78.1029 8.01918L78.933 8.22807L79.1041 8.02363L78.0683 7.76301L78.1029 8.01918ZM77.1207 8.28348L79.7041 8.93358L79.3996 10.1438L76.8161 9.49375L77.1207 8.28348ZM79.1091 9.77378L79.1579 9.57982L77.296 9.11129L77.2472 9.30524L79.1091 9.77378ZM77.3623 8.84751L79.2243 9.31605L79.2721 9.12597L77.4102 8.65743L77.3623 8.84751ZM76.6307 9.60794L76.969 9.77145C76.8027 10.0554 76.6121 10.288 76.3965 10.473L76.1282 10.1951C76.3361 10.0247 76.5003 9.83088 76.6307 9.60794ZM78.3815 11.0261L77.435 10.7879C77.1363 10.7127 77.0231 10.5399 77.0895 10.2761L77.2144 9.77959L77.5868 9.8733L77.4814 10.2922C77.457 10.3892 77.5025 10.4543 77.6227 10.4845L78.3947 10.6788C78.4645 10.6964 78.5188 10.6935 78.5528 10.6732C78.6004 10.6481 78.6529 10.554 78.7114 10.3873L79.0322 10.5876C78.9328 10.8513 78.8366 11.0045 78.7375 11.0373C78.6521 11.0653 78.5328 11.0642 78.3815 11.0261ZM78.1971 9.85774C78.3132 10.052 78.3954 10.217 78.4466 10.3578L78.0864 10.494C78.0294 10.3435 77.9453 10.1697 77.8331 9.97651L78.1971 9.85774ZM79.3868 10.2438C79.5367 10.5496 79.644 10.8117 79.7096 11.0262L79.3495 11.1624C79.282 10.9227 79.1805 10.6538 79.0413 10.3548L79.3868 10.2438Z" fill="white"/>
<path d="M83.6922 8.79282L83.1348 10.9582L82.7629 10.8625L83.2276 9.05735L81.6084 8.64052L81.1427 10.4495L80.7709 10.3538L81.3293 8.18454L83.6922 8.79282ZM82.152 9.01589L82.5161 9.10962L82.3297 9.83401C82.2681 10.0412 82.196 10.225 82.1114 10.3932L82.4406 10.478L82.2053 11.3922C82.1684 11.5355 82.1998 11.6221 82.3005 11.648L82.8661 11.7936C82.9126 11.8056 82.964 11.7982 83.0117 11.7733C83.0643 11.7455 83.1372 11.5908 83.2265 11.3081L83.5491 11.5151C83.4097 11.8799 83.2987 12.0867 83.2149 12.1395C83.1214 12.1815 83.0079 12.1895 82.8742 12.1633L82.111 11.9668C81.8321 11.8951 81.7356 11.6926 81.8203 11.3633L82.0337 10.5343C81.8943 10.7711 81.7339 10.9611 81.5466 11.1111C81.2071 11.3707 80.7288 11.5119 80.1096 11.5425L79.9919 11.1818C80.611 11.1511 81.0611 11.0233 81.3382 10.7973C81.6154 10.5547 81.8216 10.203 81.9655 9.74027L82.152 9.01589Z" fill="white"/>
<path d="M85.046 8.96159L85.3783 10.9777L84.1077 12.5778L83.8341 12.3581L85.0066 10.8812L84.7001 9.0206L85.046 8.96159ZM85.7081 9.13338L86.0404 11.1495L84.7698 12.7496L84.4962 12.5299L85.6687 11.053L85.3467 9.18837L85.7081 9.13338Z" fill="white"/>
</svg>
