<svg width="123" height="14" viewBox="0 0 123 14" fill="none" xmlns="http://www.w3.org/2000/svg">
<path d="M2.85765 1.55075L3.20126 1.6755L2.5201 3.44089L3.38046 5.11888L3.06913 5.28076L2.13671 3.46263L2.85765 1.55075ZM3.54055 1.51204L3.86819 1.63769L3.203 3.40217L4.06337 5.08016L3.75203 5.24205L2.81962 3.42391L3.54055 1.51204Z" fill="white"/>
<path d="M5.43215 1.45906C5.59356 1.65154 5.75194 1.86419 5.90328 2.09721L5.66151 2.23295L6.48856 2.19326C6.62147 1.95862 6.73628 1.6808 6.8332 1.36379L7.20956 1.44584C7.13432 1.71376 7.03376 1.95485 6.91607 2.17274L7.6752 2.13631L7.69284 2.50389L6.39033 2.5664L6.39628 2.69026C6.39749 2.88242 6.38595 3.05918 6.36584 3.22433L7.95601 3.14802L7.97366 3.51559L6.57526 3.5827C6.79424 4.05675 7.31188 4.41235 8.12838 4.65348L7.92189 5.02381C7.06637 4.72047 6.51312 4.2905 6.25435 3.73826C6.19145 3.9295 6.1116 4.10153 6.01462 4.25034C5.76019 4.62297 5.32993 4.91994 4.72385 5.14124L4.50017 4.8196C5.10588 4.5903 5.50932 4.31865 5.71449 4.00445C5.78484 3.88494 5.84263 3.75402 5.88806 3.61568L4.52163 3.68126L4.50399 3.31368L5.9743 3.24312C5.99821 3.07378 6.01374 2.89683 6.01272 2.70866L6.00678 2.58481L4.70028 2.64751L4.68264 2.27993L5.53766 2.2389C5.39469 2.01349 5.24507 1.81644 5.0926 1.64355L5.43215 1.45906Z" fill="white"/>
<path d="M8.76453 1.41943L11.7902 1.30174L11.8047 1.67345L10.5297 1.72305L10.5676 2.69832L12.1224 2.63783L12.1372 3.01755L10.5824 3.07803L10.6354 4.441C10.6463 4.72079 10.504 4.87043 10.2122 4.88178L9.57668 4.9065L9.48244 4.54189C9.68675 4.54595 9.88291 4.54633 10.0668 4.53917C10.1947 4.5342 10.2563 4.47176 10.2519 4.35984L10.2027 3.0928L8.57988 3.15592L8.56511 2.77621L10.1879 2.71309L10.1499 1.73782L8.77899 1.79115L8.76453 1.41943Z" fill="white"/>
<path d="M13.0439 2.90005L13.0758 3.96357C13.4015 3.88179 13.7468 3.78741 14.1035 3.67269L14.2139 4.01754C13.7262 4.1682 13.2259 4.29923 12.7171 4.4145L12.5557 4.10319C12.6501 4.04835 12.6958 3.97094 12.6928 3.87099L12.6202 1.44407C13.1176 1.34915 13.5703 1.23155 13.9781 1.08728L14.2231 1.38409C13.8707 1.51069 13.4659 1.62285 13.0088 1.72457L13.0331 2.53621L14.1366 2.50318L14.1475 2.86701L13.0439 2.90005ZM15.5642 4.20922L15.1884 4.22047L15.0734 3.85575L15.4295 3.85309C15.5335 3.84998 15.5837 3.78845 15.5803 3.6765L15.5183 1.60543L14.7307 1.62901L14.8247 4.7716L14.4409 4.78309L14.3361 1.28066L15.8914 1.2341L15.9665 3.74498C15.9755 4.04484 15.8401 4.20096 15.5642 4.20922Z" fill="white"/>
<path d="M16.6812 2.30601L16.9728 1.13167L17.3541 1.18774L17.1615 1.93191L17.7534 1.91957C17.8232 1.62205 17.8767 1.30887 17.9179 0.979936L18.3068 1.01984C18.2654 1.33677 18.2116 1.63395 18.1493 1.91131L19.9809 1.87311L19.9885 2.23703L18.0609 2.27724C18.0237 2.41004 17.9823 2.53493 17.9448 2.65574L19.5445 2.62238L19.5511 2.94231C19.454 3.27241 19.2642 3.57243 18.9738 3.84254C19.2812 4.00417 19.6524 4.15246 20.0833 4.2875L19.8948 4.65151C19.4073 4.48564 18.9953 4.29819 18.663 4.09708C18.3517 4.32362 17.9679 4.53166 17.5118 4.72122L17.3043 4.36547C17.7012 4.21316 18.0418 4.04602 18.3222 3.86813C18.0579 3.6656 17.8573 3.44574 17.7244 3.21246C17.4488 3.81033 17.0947 4.28982 16.6661 4.65083L16.4628 4.303C17.0045 3.80359 17.4026 3.13115 17.657 2.28566L16.6812 2.30601ZM17.996 2.99875C18.1329 3.23194 18.3454 3.44756 18.6335 3.64159C18.8812 3.43238 19.0606 3.20859 19.1677 2.97431L17.996 2.99875ZM18.9777 0.961834C19.258 1.16403 19.4944 1.37115 19.6867 1.57918L19.4205 1.8568C19.2562 1.65218 19.0277 1.4409 18.727 1.21912L18.9777 0.961834Z" fill="white"/>
<path d="M23.7923 0.87623L24.114 1.01643L23.3705 2.74936L24.1549 4.46418L23.8366 4.61197L22.9865 2.75392L23.7923 0.87623Z" fill="white"/>
<path d="M26.6361 0.836677C26.7005 0.968452 26.765 1.11623 26.8296 1.284L28.2656 1.27897L28.2669 1.64696L25.3349 1.65724L25.3379 2.50124C25.329 3.38128 25.2034 4.08572 24.9573 4.61859L24.6363 4.33571C24.8428 3.89498 24.9486 3.28261 24.9539 2.50259L24.9496 1.29059L26.4096 1.28547C26.3492 1.14969 26.2847 1.02191 26.2123 0.910163L26.6361 0.836677Z" fill="white"/>
<path d="M28.6895 1.33551L29.6735 1.33947C29.7421 1.18375 29.8068 1.02001 29.8715 0.852269L30.2511 0.937801C30.1946 1.07757 30.142 1.21336 30.0855 1.34114L32.0775 1.34917L32.076 1.71717L29.912 1.70844C29.7427 2.04776 29.5534 2.347 29.3524 2.60619L30.2884 2.60997L30.2906 2.06197L30.6706 2.0635L30.6684 2.6115L31.9044 2.61648L31.9029 2.97248L30.667 2.9675L30.6621 4.17149C30.661 4.43948 30.5205 4.57492 30.2405 4.57379L29.8245 4.57211L29.742 4.19977C29.8699 4.21629 29.9939 4.22479 30.1099 4.22526C30.2219 4.22571 30.2821 4.17395 30.2825 4.07795L30.287 2.96596L28.951 2.96057L28.8643 2.62022C29.0893 2.38113 29.3025 2.07398 29.496 1.70676L28.688 1.7035L28.6895 1.33551ZM29.5059 3.22281L29.769 3.45588C29.5116 3.80684 29.1903 4.11755 28.8132 4.38403L28.5705 4.06705C28.9395 3.82853 29.2526 3.5458 29.5059 3.22281ZM31.3219 3.21814C31.6727 3.52356 31.9715 3.82476 32.2103 4.12973L31.9332 4.40461C31.7263 4.11178 31.4396 3.79862 31.069 3.46112L31.3219 3.21814Z" fill="white"/>
<path d="M34.0337 0.908168L34.4057 0.912116L34.3948 1.93206L34.0229 1.92811L34.0337 0.908168ZM33.1145 2.71452C32.9381 2.74865 32.7617 2.78278 32.5854 2.81291L32.4331 2.46727C33.643 2.2881 34.5742 1.99397 35.2226 1.58482C35.0917 1.47943 34.9528 1.37395 34.8059 1.26838L35.0645 1.02711C35.4694 1.31543 35.8144 1.6031 36.0914 1.88606L35.8246 2.15124C35.7258 2.03819 35.615 1.92501 35.4882 1.81165C35.1296 2.05186 34.7034 2.25535 34.2056 2.42608L35.6215 2.4411L35.5985 4.61298L35.2265 4.60903L35.2281 4.45704L33.4642 4.43832L33.4625 4.59832L33.0945 4.59441L33.1145 2.71452ZM33.4678 4.10234L35.2317 4.12106L35.2345 3.85308L33.4706 3.83436L33.4678 4.10234ZM33.4738 3.53038L35.2377 3.54909L35.2403 3.30511L33.4764 3.28639L33.4738 3.53038ZM33.4796 2.98641L35.2435 3.00512L35.2462 2.75314L33.4823 2.73442L33.4796 2.98641ZM33.4033 1.12949L33.6688 1.36832C33.4297 1.6578 33.135 1.91069 32.7847 2.12298L32.5678 1.83667C32.8979 1.63216 33.1764 1.3991 33.4033 1.12949Z" fill="white"/>
<path d="M37.1689 1.55001C37.083 1.66862 36.9934 1.76717 36.9 1.84966L37.4759 1.85905C37.4936 1.75932 37.5072 1.65953 37.5169 1.55568L37.1689 1.55001ZM37.3663 2.20531L36.6224 2.19318L36.628 1.84523L36.808 1.84816L36.6239 1.60913C36.8105 1.44815 36.9783 1.21885 37.1192 0.917111L37.458 0.994643C37.4287 1.07418 37.3955 1.14564 37.3624 1.21711L38.4582 1.23498L38.4528 1.57093L37.8808 1.56161C37.8711 1.66946 37.8614 1.76932 37.8439 1.86505L38.5598 1.87672L38.5541 2.22467L37.7582 2.2117C37.7499 2.23156 37.7456 2.2515 37.7413 2.26743C38.0348 2.42423 38.2803 2.58026 38.4858 2.73563L38.2459 2.97175L39.7737 2.99665L39.746 4.69643L39.362 4.69017L39.3646 4.53419L37.4768 4.50342L37.4743 4.6594L37.0943 4.6532L37.1211 3.00942C37.0161 3.07172 36.9071 3.13395 36.7862 3.18798L36.5352 2.87585C36.9542 2.69866 37.2257 2.48305 37.358 2.22118L37.3663 2.20531ZM37.4823 4.16746L39.3701 4.19823L39.3744 3.93427L37.4866 3.9035L37.4823 4.16746ZM37.492 3.57554L39.3797 3.60631L39.3843 3.32635L37.4965 3.29558L37.492 3.57554ZM37.202 2.95473L38.1779 2.97064C38.0281 2.83218 37.8425 2.68913 37.6128 2.54137C37.5144 2.69179 37.3761 2.82955 37.202 2.95473ZM38.6941 1.24282L40.094 1.26564L40.0693 2.77744L38.6695 2.75462L38.6941 1.24282ZM39.7028 2.43942L39.7165 1.59553L39.0606 1.58484L39.0469 2.42873L39.7028 2.43942Z" fill="white"/>
<path d="M41.012 3.36406L41.0059 3.656L41.8298 3.67294L41.8358 3.38101L41.012 3.36406ZM41.8422 3.06907L41.8485 2.76114L41.0247 2.74419L41.0184 3.05212L41.8422 3.06907ZM40.9994 3.97193L40.9841 4.71977L40.6161 4.7122L40.6636 2.40469L42.2233 2.43677L42.1849 4.30038C42.1793 4.57632 42.0444 4.71358 41.7885 4.70831L41.4765 4.7019L41.3919 4.34408L41.6755 4.36592C41.7675 4.36781 41.8165 4.31681 41.8187 4.21283L41.8233 3.98888L40.9994 3.97193ZM43.5792 2.84475L42.9273 2.83134C42.6474 2.82558 42.5145 2.67081 42.5208 2.36688L42.5475 1.06715L42.9234 1.07489L42.9137 1.54679C43.327 1.49127 43.6642 1.4342 43.9256 1.36756L44.0427 1.70604C43.7132 1.77528 43.3358 1.83953 42.9066 1.89471L42.8983 2.29463C42.8957 2.4226 42.9423 2.49157 43.0383 2.49355L43.5142 2.50334C43.5782 2.50465 43.6226 2.48556 43.6514 2.44615C43.6844 2.39882 43.7112 2.26334 43.7238 2.03955L44.0773 2.16285C44.0385 2.49412 43.9784 2.69292 43.905 2.75943C43.8318 2.81794 43.7231 2.84771 43.5792 2.84475ZM42.8683 3.75432L42.8583 4.24222C42.8568 4.3142 42.9001 4.3511 42.996 4.35307L43.4799 4.36303C43.5439 4.36434 43.5923 4.34533 43.6211 4.30992C43.654 4.26259 43.6808 4.12711 43.6974 3.9034L44.0391 4.02245C44.0001 4.35772 43.944 4.55661 43.8707 4.61912C43.8015 4.67771 43.6929 4.70748 43.5449 4.70444L42.8811 4.69078C42.6091 4.68519 42.4757 4.55841 42.4806 4.31847L42.5085 2.96275L42.8844 2.97049L42.8754 3.41039C43.2521 3.37813 43.5895 3.31706 43.8872 3.23516L44.0042 3.57764C43.6503 3.66638 43.2691 3.72255 42.8683 3.75432ZM41.9582 1.31909C42.1877 1.63987 42.3619 1.91952 42.4851 2.1541L42.1686 2.37164C42.1303 2.29083 42.088 2.20594 42.0417 2.12097C41.6245 2.17641 41.1236 2.21411 40.5391 2.23409L40.4416 1.91602C40.5101 1.89343 40.5667 1.86258 40.6155 1.82358C40.8651 1.55666 41.0586 1.28858 41.1922 1.01927L41.5539 1.13473C41.3792 1.45921 41.1859 1.71529 40.9738 1.91097C41.2541 1.90073 41.5587 1.87499 41.8834 1.84166C41.8138 1.7282 41.7401 1.61466 41.6625 1.49704L41.9582 1.31909Z" fill="white"/>
<path d="M44.8624 1.93263C44.795 2.07907 44.7121 2.20115 44.6218 2.29505L44.3191 2.06784C44.5159 1.86443 44.6426 1.58334 44.7033 1.21667L45.0579 1.28106C45.0352 1.39256 45.0128 1.49605 44.9866 1.58746L45.3505 1.59606L45.3617 1.12419L45.7376 1.13306L45.7264 1.60493L46.4422 1.62183L46.434 1.96974L45.7182 1.95283L45.7081 2.38072L46.5399 2.40036L46.5315 2.75626L45.6997 2.73662L45.6918 3.07252L46.4635 3.09075L46.4383 4.15845C46.4321 4.42238 46.293 4.55113 46.0211 4.54471L45.8251 4.54008L45.7376 4.18191L45.9132 4.20206C46.0211 4.20461 46.0782 4.15795 46.0803 4.06997L46.0953 3.43415L45.6834 3.42442L45.6507 4.81204L45.2748 4.80316L45.3076 3.41555L44.8957 3.40582L44.8688 4.5455L44.5009 4.53682L44.5361 3.04523L45.3159 3.06365L45.3238 2.72774L44.3881 2.70564L44.3965 2.34974L45.3322 2.37184L45.3423 1.94396L44.8624 1.93263ZM46.7488 1.51704L47.1167 1.52573L47.0589 3.97305L46.691 3.96436L46.7488 1.51704ZM47.443 4.81835L46.8472 4.80428L46.7718 4.4384C46.9634 4.45893 47.1431 4.47118 47.3191 4.47533C47.4231 4.47779 47.4764 4.42303 47.4789 4.31506L47.553 1.17593L47.9289 1.18481L47.8526 4.41991C47.8461 4.69183 47.707 4.82459 47.443 4.81835Z" fill="white"/>
<path d="M48.8034 1.21077C49.0618 1.43741 49.2841 1.66313 49.4625 1.88374L49.1879 2.14084C49.0333 1.92884 48.819 1.69932 48.5372 1.45208L48.8034 1.21077ZM50.999 4.87576C50.7831 4.87027 50.5432 4.86017 50.2874 4.84966C50.0276 4.83906 49.8163 4.80968 49.6534 4.76552C49.4946 4.71347 49.3571 4.61394 49.2406 4.47494C49.1864 4.40553 49.1352 4.37222 49.0912 4.3711C49.0032 4.36887 48.8547 4.54515 48.6415 4.90385L48.3682 4.63682C48.5765 4.314 48.7656 4.11475 48.9276 4.03884L48.9564 2.9072L48.4205 2.89358L48.4295 2.5417L49.3212 2.56437L49.2827 4.07988C49.2983 4.09628 49.3178 4.11278 49.3372 4.13728C49.4305 4.24769 49.5244 4.3301 49.619 4.38452C49.7376 4.44356 49.9126 4.48402 50.1523 4.49811C50.3762 4.50781 50.644 4.51862 50.9559 4.52655C51.1518 4.53153 51.3518 4.53261 51.5559 4.5338C51.7559 4.53488 51.9121 4.53085 52.0242 4.5257L51.9227 4.89924L50.999 4.87576ZM50.127 2.03267C50.0595 2.167 49.9844 2.28913 49.9055 2.40316L49.5986 2.1993C49.7974 1.93227 49.9409 1.63982 50.029 1.32195L50.3751 1.40278C50.3445 1.50203 50.3141 1.59729 50.2799 1.68445L50.6797 1.69461L50.6911 1.24676L51.055 1.25601L51.0436 1.70386L51.8314 1.72389L51.8224 2.07578L51.0347 2.05575L51.0238 2.48361L52.0195 2.50893L52.0106 2.85681L49.5394 2.79399L49.5483 2.4461L50.6599 2.47436L50.6708 2.0465L50.127 2.03267ZM49.8569 3.05414L51.7123 3.10131L51.6823 4.28093L49.8269 4.23376L49.8569 3.05414ZM51.3273 3.92379L51.3396 3.43995L50.212 3.41128L50.1997 3.89512L51.3273 3.92379Z" fill="white"/>
<path d="M52.8255 2.58216L53.1718 1.42278L53.55 1.49664L53.3228 2.23098L53.9146 2.24638C53.9983 1.95246 54.0664 1.64213 54.1229 1.31549L54.5096 1.37357C54.4533 1.68821 54.3857 1.98255 54.3105 2.25669L56.1419 2.30436L56.1324 2.66824L54.2051 2.61807C54.1616 2.74898 54.1144 2.87179 54.0713 2.99071L55.6708 3.03235L55.6625 3.35224C55.55 3.67742 55.3463 3.96822 55.0436 4.22443C55.3431 4.40028 55.7069 4.56581 56.131 4.72089L55.9257 5.07567C55.4464 4.88714 55.0437 4.68059 54.7212 4.46412C54.3996 4.67582 54.0065 4.86566 53.542 5.03363L53.3514 4.66855C53.755 4.53501 54.1031 4.38401 54.3915 4.21946C54.137 4.00476 53.9469 3.77574 53.825 3.53649C53.5217 4.12079 53.1456 4.58316 52.7006 4.9237L52.5138 4.56672C53.0783 4.09325 53.5074 3.44019 53.8012 2.60755L52.8255 2.58216ZM54.1064 3.33574C54.2322 3.5751 54.4344 3.80043 54.7131 4.00776C54.9703 3.81038 55.16 3.59524 55.278 3.36624L54.1064 3.33574ZM55.1825 1.34707C55.453 1.56218 55.6794 1.78015 55.8618 1.99697L55.5828 2.2618C55.4283 2.0497 55.21 1.82795 54.92 1.59232L55.1825 1.34707Z" fill="white"/>
<path d="M57.458 2.9106L58.0099 2.92469L58.018 2.6048L57.3502 2.58774L57.3425 2.89164C57.3364 3.13156 57.3144 3.36308 57.2849 3.5784L57.9927 3.59647L58.0013 3.26058L57.4495 3.24649L57.458 2.9106ZM57.2282 3.92106C57.1411 4.35498 57.007 4.74768 56.8261 5.09518L56.5252 4.8114C56.79 4.314 56.9344 3.67348 56.9586 2.88184L56.9929 1.53828L60.0519 1.6164L60.0254 2.65606L59.4695 2.64187L59.4614 2.96176L60.0612 2.97708L60.0526 3.31297L59.4528 3.29765L59.4442 3.63354L60.18 3.65233L60.1712 3.99622L59.7713 3.98601L59.9974 4.21986C59.8696 4.36864 59.7305 4.48913 59.5841 4.58142C59.785 4.70259 60.0148 4.79249 60.2774 4.85121L60.0883 5.2065C59.3733 5.00018 58.8718 4.58324 58.5797 3.95558L58.0839 3.94291L58.0645 4.70267C58.3059 4.64881 58.5196 4.58625 58.7015 4.51487L58.7646 4.86459C58.4378 4.96828 58.0515 5.05445 57.6056 5.12309L57.5101 4.78854C57.6313 4.74362 57.6934 4.66118 57.6967 4.53322L57.712 3.93342L57.2282 3.92106ZM58.9636 3.96538C59.0558 4.11578 59.1645 4.2466 59.2896 4.36183C59.4439 4.27374 59.5871 4.14936 59.7193 3.98468L58.9636 3.96538ZM59.1017 2.63247L58.3819 2.61409L58.3737 2.93398L59.0935 2.95237L59.1017 2.63247ZM58.3566 3.60577L59.0763 3.62415L59.0849 3.28826L58.3652 3.26988L58.3566 3.60577ZM59.6592 1.95448L57.3679 1.89597L57.3589 2.24785L59.6502 2.30637L59.6592 1.95448Z" fill="white"/>
<path d="M60.6556 2.03988L61.1994 2.05302L61.2119 1.53717L61.5917 1.54635L61.5793 2.0622L62.0711 2.07408L62.0623 2.43798L61.5705 2.42609L61.5567 2.99793L62.1045 3.01116L62.0957 3.37506L61.5319 3.36144C61.5218 3.44922 61.5077 3.5329 61.4978 3.61269C61.7089 3.81784 61.9235 4.04309 62.1415 4.29643L61.9177 4.61512C61.7244 4.33437 61.5616 4.11837 61.4293 3.96313C61.2964 4.49608 61.0743 4.91084 60.7631 5.2074L60.4851 4.95262C60.8537 4.60142 61.0746 4.0706 61.152 3.35226L60.5682 3.33815L60.577 2.97426L61.1768 2.98875L61.1906 2.41692L60.6468 2.40378L60.6556 2.03988ZM63.9682 1.7238L63.9141 3.95915L63.5503 3.95036L63.5959 2.06291L62.6161 2.03924L62.5705 3.92669L62.2066 3.9179L62.2606 1.68255L63.9682 1.7238ZM63.7399 5.20731L63.3881 5.1988C63.1601 5.1933 63.0511 5.06663 63.0569 4.8267L63.0746 4.09491C63.0231 4.24171 62.9599 4.37222 62.8891 4.48654C62.6811 4.81362 62.3471 5.06162 61.8947 5.23475L61.7064 4.9141C62.1508 4.74079 62.4564 4.5121 62.6232 4.23205C62.7865 3.9319 62.8799 3.54205 62.9076 3.05857L62.9254 2.32279L63.2733 2.33119L63.2555 3.06698C63.2396 3.39469 63.1924 3.68964 63.1223 3.94402L63.4262 3.95136L63.4067 4.75912C63.405 4.82711 63.4362 4.86387 63.5041 4.86551L63.6881 4.86995C63.7361 4.87111 63.7685 4.85189 63.7935 4.81248C63.8187 4.76508 63.8419 4.6296 63.8595 4.39796L64.1809 4.50975C64.1486 4.85307 64.0957 5.05585 64.0301 5.12229C63.9647 5.18072 63.8679 5.2104 63.7399 5.20731Z" fill="white"/>
<path d="M66.6972 1.98929L67.0651 1.99741L67.0105 4.46881L66.6426 4.46069L66.6972 1.98929ZM67.3839 5.31326L66.8081 5.30054L66.7281 4.93469C66.9157 4.95484 67.0915 4.96672 67.2595 4.97043C67.3714 4.97291 67.4327 4.91824 67.435 4.81027L67.5044 1.67104L67.8803 1.67934L67.8088 4.91455C67.8028 5.18648 67.6599 5.31936 67.3839 5.31326ZM66.3339 2.49339L66.3858 2.86263L65.2543 3.00967C65.2663 3.18998 65.2867 3.35447 65.3154 3.50314C65.344 3.65581 65.3729 3.79649 65.4102 3.92134C65.6236 3.67799 65.8099 3.39404 65.9651 3.06939L66.2932 3.24868C66.0836 3.68415 65.8354 4.05076 65.5449 4.34442C65.5714 4.41302 65.598 4.47362 65.6288 4.53031C65.7596 4.76526 65.885 4.88406 65.9969 4.89053C66.0612 4.87995 66.1294 4.68941 66.2056 4.319L66.5209 4.53402C66.4564 4.73664 66.3886 4.90719 66.3136 5.04556C66.2219 5.21158 66.12 5.29735 66.008 5.29488C65.816 5.29064 65.631 5.15452 65.4487 4.89443C65.3827 4.80095 65.325 4.69965 65.2754 4.59053C65.031 4.78518 64.7635 4.93931 64.473 5.05292L64.2525 4.70797C64.5753 4.58706 64.867 4.42147 65.1239 4.20309C65.0751 4.05797 65.0304 3.90895 64.9939 3.7481C64.9463 3.547 64.9114 3.31818 64.8851 3.05753L64.3956 3.12274L64.3477 2.75359L64.8534 2.68474C64.8324 2.3642 64.8244 2.00393 64.8331 1.60803L65.217 1.61651C65.2087 1.99242 65.2092 2.33251 65.2265 2.63697L66.3339 2.49339ZM65.7493 1.60826C65.8894 1.7874 66.0251 1.98645 66.1523 2.20131L65.8289 2.3542C65.7058 2.13143 65.5741 1.93247 65.4341 1.75334L65.7493 1.60826Z" fill="white"/>
<path d="M69.1497 1.66484L69.5056 1.67197C69.3322 1.94055 69.1987 2.21393 69.1051 2.49211C68.9782 2.83364 68.9152 3.18045 68.9083 3.52838C68.9014 3.87231 68.9504 4.22136 69.0634 4.57169C69.1459 4.8494 69.2683 5.12791 69.4307 5.40722L69.0748 5.40009C68.8921 5.13238 68.7536 4.85755 68.6592 4.5756C68.5421 4.23318 68.4891 3.88405 68.4963 3.52412C68.5036 3.1602 68.5706 2.80947 68.7013 2.47602C68.8071 2.19008 68.9565 1.92102 69.1497 1.66484Z" fill="white"/>
<path d="M71.6536 2.11165C71.9256 2.11828 72.1516 2.19982 72.3237 2.36406C72.4917 2.5282 72.5747 2.73429 72.5686 2.98621C72.5625 3.23414 72.4611 3.45573 72.2722 3.65519C72.1574 3.76842 71.9578 3.9156 71.6692 4.10062C71.3563 4.29705 71.1679 4.47251 71.1042 4.62701L72.5317 4.66181L72.5224 5.0457L70.555 4.99773C70.5619 4.71381 70.6599 4.46813 70.8571 4.25687C70.9641 4.13545 71.1842 3.96876 71.5136 3.75273C71.7089 3.62145 71.8474 3.51679 71.9295 3.43477C72.0609 3.29393 72.1327 3.13963 72.1368 2.97168C72.1407 2.81173 72.0997 2.69069 72.0136 2.60857C71.9276 2.52645 71.7966 2.48325 71.6287 2.47915C71.4487 2.47476 71.3113 2.53143 71.2163 2.65315C71.1174 2.77078 71.0652 2.94156 71.0516 3.17329L70.6157 3.16266C70.6275 2.84286 70.7257 2.58918 70.9103 2.40162C71.0994 2.19817 71.3497 2.10424 71.6536 2.11165Z" fill="white"/>
<path d="M74.7912 2.20123C75.127 2.21324 75.3818 2.36244 75.5556 2.65283C75.714 2.92267 75.7854 3.27744 75.7695 3.72116C75.7538 4.16088 75.6571 4.51365 75.4798 4.77148C75.2859 5.04472 75.0209 5.17934 74.6852 5.16733C74.3494 5.15533 74.0947 5.00213 73.9208 4.71573C73.7623 4.4459 73.691 4.09112 73.7068 3.64741C73.7229 3.19969 73.8194 2.85092 73.9966 2.59709C74.1906 2.31984 74.4554 2.18922 74.7912 2.20123ZM74.7781 2.569C74.5422 2.56056 74.3737 2.68262 74.2685 2.93902C74.1903 3.11234 74.1496 3.35504 74.1386 3.66284C74.1277 3.96665 74.151 4.21164 74.2165 4.39409C74.3033 4.65336 74.4625 4.79114 74.6983 4.79957C74.9302 4.80786 75.1028 4.68195 75.2079 4.42954C75.2822 4.25209 75.3269 4.00953 75.3378 3.70572C75.3488 3.39792 75.3216 3.15279 75.2599 2.97447C75.1732 2.71121 75.0099 2.57729 74.7781 2.569Z" fill="white"/>
<path d="M77.5075 2.36521L77.8351 2.38022L77.7044 5.23323L77.2689 5.21327L77.3756 2.88371C77.1963 3.03967 76.971 3.14947 76.7038 3.21331L76.7236 2.78177C76.8529 2.75566 76.9873 2.70576 77.1349 2.63243C77.2827 2.55111 77.4068 2.4647 77.5075 2.36521Z" fill="white"/>
<path d="M79.0693 2.43816L80.7865 2.53591L80.7647 2.91929L79.3989 2.84154L79.2682 3.65944L79.2802 3.66012C79.3732 3.57327 79.4767 3.51506 79.5948 3.48171C79.7011 3.44369 79.8221 3.43055 79.9499 3.43782C80.2174 3.45305 80.4321 3.55341 80.5898 3.73867C80.7475 3.92394 80.8218 4.16855 80.8042 4.47605C80.7874 4.77157 80.662 5.00482 80.4356 5.18024C80.2224 5.33638 79.974 5.40638 79.6905 5.39024C79.4349 5.37569 79.2194 5.2913 79.0436 5.14107C78.8486 4.97772 78.7488 4.7597 78.7438 4.49499L79.1711 4.51931C79.178 4.67997 79.2349 4.8074 79.3382 4.89341C79.4299 4.97075 79.5557 5.01397 79.7154 5.02306C79.8911 5.03306 80.0421 4.98556 80.168 4.88456C80.2942 4.77956 80.3623 4.6392 80.3727 4.4555C80.3841 4.25582 80.341 4.09712 80.2436 3.97939C80.1461 3.86166 80.0055 3.79756 79.8138 3.78665C79.686 3.77938 79.5771 3.79321 79.4785 3.83568C79.3719 3.87769 79.2917 3.94925 79.2299 4.0499L78.8226 4.02671L79.0693 2.43816Z" fill="white"/>
<path d="M81.8372 4.24487L83.8521 4.38813L83.8272 4.73924L81.8123 4.59598L81.8372 4.24487Z" fill="white"/>
<path d="M85.8274 2.84001C86.0984 2.8632 86.3191 2.95836 86.4808 3.13278C86.6385 3.30687 86.7088 3.51763 86.6873 3.76871C86.6662 4.0158 86.5514 4.2308 86.3507 4.41837C86.2292 4.5244 86.021 4.65914 85.7216 4.82622C85.3974 5.00322 85.1987 5.16688 85.1256 5.31719L86.5484 5.43895L86.5157 5.82155L84.5548 5.65375C84.579 5.37079 84.6919 5.13153 84.9016 4.93269C85.0158 4.81801 85.2456 4.66505 85.5876 4.46949C85.7905 4.35036 85.9352 4.25435 86.022 4.17747C86.1619 4.04491 86.2429 3.89528 86.2572 3.72789C86.2709 3.56847 86.2373 3.44516 86.1564 3.35795C86.0755 3.27073 85.9474 3.21963 85.7801 3.2053C85.6007 3.18995 85.4601 3.23814 85.3578 3.35384C85.252 3.46522 85.1895 3.6325 85.1617 3.86298L84.7273 3.8258C84.7586 3.50731 84.8721 3.26009 85.0678 3.08413C85.2689 2.89258 85.5245 2.81409 85.8274 2.84001Z" fill="white"/>
<path d="M88.9395 3.12544C89.2738 3.15936 89.5183 3.32488 89.6727 3.62601C89.8132 3.90561 89.8613 4.2643 89.8165 4.70603C89.7721 5.14378 89.6525 5.48948 89.4588 5.73518C89.2474 5.99518 88.9742 6.1122 88.6399 6.07828C88.3057 6.04437 88.0615 5.87486 87.9067 5.57772C87.7662 5.29811 87.7182 4.93943 87.763 4.4977C87.8082 4.05198 87.9273 3.71026 88.1207 3.46855C88.3324 3.20457 88.6052 3.09153 88.9395 3.12544ZM88.9024 3.49156C88.6676 3.46774 88.4915 3.57853 88.3697 3.82752C88.2804 3.99535 88.2239 4.23487 88.1928 4.5413C88.1621 4.84375 88.1693 5.08973 88.2228 5.27608C88.2925 5.54046 88.4423 5.68834 88.6771 5.71216C88.9079 5.73558 89.0884 5.62121 89.2097 5.37621C89.2955 5.20399 89.356 4.96487 89.3867 4.66242C89.4178 4.356 89.4066 4.10961 89.3567 3.92764C89.2874 3.65928 89.1332 3.51498 88.9024 3.49156Z" fill="white"/>
<path d="M91.9534 3.44952C92.2236 3.48112 92.4412 3.58309 92.5974 3.76245C92.7497 3.94135 92.8134 4.15419 92.7841 4.40449C92.7553 4.65081 92.6339 4.86214 92.4275 5.04338C92.3027 5.14558 92.0904 5.27378 91.786 5.43149C91.4564 5.59833 91.2528 5.75573 91.175 5.90371L92.5934 6.0696L92.5488 6.451L90.5941 6.22237C90.6271 5.9403 90.7473 5.70466 90.9631 5.51243C91.0808 5.40135 91.3153 5.25561 91.6631 5.07077C91.8696 4.95799 92.0172 4.86652 92.1065 4.79239C92.2503 4.66423 92.336 4.51719 92.3555 4.35033C92.3741 4.19141 92.3443 4.06711 92.2662 3.97743C92.1881 3.88775 92.0616 3.83268 91.8948 3.81317C91.716 3.79226 91.5739 3.83605 91.4682 3.94852C91.3589 4.05656 91.2912 4.22182 91.2563 4.45132L90.8233 4.40066C90.8644 4.0833 90.9855 3.83972 91.1866 3.66993C91.3935 3.48471 91.6515 3.4142 91.9534 3.44952Z" fill="white"/>
<path d="M94.1725 3.7716L95.8777 3.99715L95.8273 4.37783L94.4711 4.19844L94.2798 5.00431L94.2917 5.00588C94.391 4.92622 94.4985 4.87588 94.6188 4.85144C94.7276 4.82146 94.8492 4.81737 94.9761 4.83415C95.2418 4.8693 95.4484 4.98539 95.5918 5.1819C95.7353 5.37841 95.7911 5.62787 95.7507 5.93322C95.7119 6.22666 95.5694 6.4499 95.3306 6.60795C95.1063 6.74775 94.8534 6.79903 94.5718 6.76179C94.318 6.72822 94.1094 6.62799 93.9453 6.46507C93.763 6.28763 93.6798 6.06277 93.6946 5.79843L94.1189 5.85456C94.1138 6.01527 94.161 6.14659 94.2575 6.24007C94.3433 6.32403 94.4654 6.37651 94.6241 6.39749C94.7985 6.42057 94.9526 6.38446 95.0857 6.29313C95.2194 6.19783 95.2977 6.06294 95.3219 5.88053C95.3481 5.68226 95.317 5.52079 95.2286 5.39612C95.1402 5.27144 95.0048 5.19705 94.8144 5.17187C94.6875 5.15508 94.5778 5.16075 94.4764 5.19574C94.367 5.22969 94.2817 5.29507 94.2125 5.39083L93.808 5.33733L94.1725 3.7716Z" fill="white"/>
<path d="M97.7552 4.62134C97.5479 4.87365 97.3081 5.07262 97.0307 5.22556L96.8244 4.87146C97.2641 4.6334 97.5879 4.27706 97.7964 3.79847L98.1736 3.92722C98.1141 4.05588 98.0563 4.17266 97.9912 4.28432L100.397 4.64121L100.343 5.00522L99.1282 4.82502L99.0472 5.37104L100.123 5.5307L100.071 5.88285L98.9949 5.72319L98.8811 6.49079L100.218 6.68919L100.164 7.05716L98.8265 6.85876L98.6997 7.71341L98.3238 7.65765L98.4506 6.803L96.6542 6.53651L96.7088 6.16854L97.33 6.26069L97.4961 5.14095L98.6713 5.31528L98.7523 4.76926L97.7552 4.62134ZM97.7099 6.31704L98.5052 6.43503L98.619 5.66743L97.8237 5.54944L97.7099 6.31704Z" fill="white"/>
<path d="M100.981 4.28695L101.333 4.34322C101.474 4.62904 101.573 4.92038 101.63 5.2212C101.695 5.57195 101.703 5.92964 101.645 6.28906C101.588 6.64453 101.47 6.97804 101.298 7.2948C101.151 7.55484 100.966 7.80066 100.742 8.03225L100.391 7.97598C100.596 7.72937 100.766 7.47707 100.901 7.21909C101.07 6.8938 101.185 6.55966 101.239 6.21998C101.294 5.87636 101.29 5.52325 101.23 5.16524C101.183 4.87422 101.1 4.58145 100.981 4.28695Z" fill="white"/>
<path d="M103.438 4.68208L103.942 6.66222L102.814 8.3655L102.522 8.17002L103.564 6.59802L103.099 4.77056L103.438 4.68208Z" fill="white"/>
<path d="M108.187 6.19967L107.698 8.9405L107.34 8.87665L107.376 8.67187L106.754 8.561L106.697 8.87998L106.339 8.81612L106.848 5.96109L107.222 6.02776C107.331 5.82774 107.424 5.62097 107.496 5.39818L107.861 5.51604C107.783 5.72561 107.689 5.91592 107.58 6.09161L108.187 6.19967ZM106.816 8.21446L107.438 8.32533L107.576 7.54955L106.954 7.43868L106.816 8.21446ZM107.014 7.10395L107.636 7.21482L107.765 6.49024L107.143 6.37937L107.014 7.10395ZM108.727 7.27109C108.929 7.64032 109.08 7.9557 109.175 8.22442L108.842 8.3805C108.739 8.09393 108.585 7.76997 108.39 7.40608L108.727 7.27109ZM110.218 6.56569C109.976 7.92429 109.807 8.75957 109.711 9.06759C109.621 9.34411 109.407 9.45219 109.072 9.39255C108.993 9.37851 108.853 9.34538 108.658 9.29848L108.629 8.93973C108.801 8.97848 108.949 9.01303 109.075 9.03548C109.232 9.06355 109.338 8.99699 109.391 8.83581C109.449 8.64312 109.579 7.98364 109.787 6.86272L108.799 6.6866C108.646 6.90323 108.482 7.09736 108.297 7.2676L108.125 6.93225C108.452 6.60052 108.716 6.17205 108.907 5.64545L109.269 5.75867C109.19 5.97218 109.098 6.16713 109.001 6.34886L110.218 6.56569Z" fill="white"/>
<path d="M111.071 6.08681C111.3 6.34421 111.486 6.59371 111.63 6.83138L111.319 7.04295C111.197 6.81747 111.016 6.56475 110.77 6.28408L111.071 6.08681ZM112.689 10.0256C112.473 9.98609 112.238 9.93905 111.987 9.88914C111.731 9.83851 111.527 9.77683 111.369 9.70731C111.22 9.63136 111.1 9.51177 111.006 9.35643C110.963 9.27948 110.922 9.23938 110.875 9.23076C110.792 9.21568 110.618 9.36689 110.353 9.6844L110.124 9.37834C110.379 9.09553 110.593 8.92717 110.764 8.8772L110.968 7.76361L110.44 7.66735L110.504 7.32107L111.381 7.48127L111.11 8.96868C111.126 8.98802 111.142 9.01128 111.158 9.03848C111.229 9.16125 111.309 9.25719 111.398 9.3263C111.506 9.40295 111.673 9.46997 111.903 9.52022C112.127 9.5651 112.39 9.61717 112.697 9.6732C112.89 9.7084 113.087 9.74039 113.285 9.77237C113.482 9.80435 113.637 9.8245 113.745 9.83603L113.587 10.1894L112.689 10.0256ZM112.581 6.76516L111.822 6.62651L111.879 6.31565L114.039 6.71003L113.991 6.97368C113.727 7.12876 113.452 7.24949 113.167 7.34374C113.173 7.35304 113.18 7.35841 113.187 7.36772L113.978 7.51211L113.659 9.25924C113.616 9.4914 113.465 9.58574 113.209 9.53905L112.906 9.48373L112.884 9.15851L113.161 9.22525C113.247 9.24105 113.303 9.20639 113.318 9.11982L113.355 8.91914L112.788 8.81569L112.671 9.46103L112.328 9.39853L112.446 8.75319L111.891 8.6519L111.772 9.30511L111.418 9.24045L111.806 7.11557L112.711 7.2808C112.597 7.17052 112.468 7.05344 112.322 6.93742L112.581 6.76516ZM112.971 7.125C113.151 7.07253 113.322 7.00611 113.482 6.92966L112.601 6.76875C112.733 6.89049 112.858 7.00685 112.971 7.125ZM111.997 8.07346L111.946 8.34891L112.501 8.4502L112.552 8.17475L111.997 8.07346ZM112.894 8.23725L112.844 8.5127L113.41 8.61614L113.461 8.3407L112.894 8.23725ZM113.517 8.03377L113.567 7.75832L113 7.65488L112.95 7.93032L113.517 8.03377ZM112.608 7.86783L112.658 7.59238L112.103 7.49109L112.053 7.76654L112.608 7.86783Z" fill="white"/>
<path d="M118.054 7.72336L117.491 10.7922L117.129 10.7259L117.171 10.5016L116.482 10.3754L116.44 10.6036L116.078 10.5372L116.642 7.46443L118.054 7.72336ZM116.546 10.0252L117.235 10.1514L117.628 8.00717L116.939 7.88095L116.546 10.0252ZM115.143 7.6737C115.017 7.85383 114.881 8.01606 114.741 8.16111L114.452 7.89272C114.772 7.56905 115.026 7.20484 115.21 6.7994L115.565 6.94589C115.499 7.08818 115.426 7.21723 115.354 7.34235L116.429 7.53925L116.363 7.89728L115.828 7.79919C115.775 8.04169 115.722 8.26772 115.66 8.47192L116.274 8.58443L116.208 8.94247L115.543 8.82057C115.511 8.90425 115.476 8.9872 115.446 9.063C115.641 9.35093 115.835 9.66713 116.032 10.0123L115.74 10.3167C115.56 9.92576 115.405 9.61677 115.276 9.38976C115.035 9.77258 114.692 10.0715 114.238 10.2813L114.049 9.93752C114.514 9.70957 114.849 9.38878 115.06 8.97193C115.089 8.90006 115.123 8.82497 115.154 8.74917L114.378 8.60708L114.444 8.24905L115.274 8.40123C115.336 8.19704 115.39 7.971 115.442 7.72851L115.143 7.6737Z" fill="white"/>
<path d="M119.134 7.4939L119.615 9.47961L118.467 11.17L118.178 10.9713L119.237 9.41114L118.793 7.57853L119.134 7.4939ZM119.807 7.61588L120.288 9.60159L119.141 11.292L118.851 11.0932L119.91 9.53311L119.45 7.69765L119.807 7.61588Z" fill="white"/>
</svg>
