<svg width="92" height="9" viewBox="0 0 92 9" fill="none" xmlns="http://www.w3.org/2000/svg">
<path d="M1.61164 1.69972C1.65992 1.83779 1.69929 2.00204 1.73275 2.19281L1.99816 2.22184C2.0867 2.0746 2.17025 1.91775 2.24285 1.75065L2.49251 1.8685C2.42252 2.01174 2.35118 2.13974 2.27551 2.25218L2.59759 2.28741L2.5679 2.55879L1.06785 2.39471L1.09753 2.12333L1.46733 2.16378C1.43429 2.02436 1.39464 1.89026 1.34506 1.76412L1.61164 1.69972ZM2.82154 1.316L3.85637 1.42919L3.83288 1.64391C3.70716 1.93798 3.57478 2.2102 3.43871 2.46089C3.62939 2.75939 3.71825 2.99545 3.70231 3.16875C3.68013 3.37154 3.62305 3.50714 3.53703 3.57619C3.44504 3.6446 3.27049 3.66776 3.01998 3.64036L2.96314 3.33235C3.06919 3.35602 3.15801 3.37177 3.23256 3.37993C3.2985 3.38412 3.34519 3.37112 3.36699 3.33729C3.38815 3.30942 3.4046 3.24181 3.419 3.13776C3.43461 2.96745 3.33978 2.73074 3.13751 2.42795C3.26039 2.21504 3.38517 1.95708 3.51453 1.65737L3.0672 1.60844L2.80657 3.99123L2.53221 3.96122L2.82154 1.316ZM1.24357 1.3124L1.7923 1.37242C1.77194 1.28268 1.75092 1.1989 1.72893 1.12406L2.02342 1.10799C2.0408 1.19741 2.0572 1.29577 2.06965 1.40276L2.66012 1.46735L2.63044 1.73873L1.21389 1.58379L1.24357 1.3124ZM2.4248 2.76344L2.29694 3.93247L2.01363 3.90148L2.03059 3.74641L1.36854 3.67399L1.35157 3.82907L1.07423 3.79873L1.2021 2.6297L2.4248 2.76344ZM1.39789 3.40559L2.05995 3.47801L2.11214 3.00085L1.45008 2.92844L1.39789 3.40559Z" fill="white"/>
<path d="M4.59556 2.27593L5.46109 2.36398L5.47657 2.21176L5.75712 2.2403L5.74164 2.39252L6.59523 2.47935L6.57003 2.72707L5.71644 2.64024L5.69336 2.86707L6.8872 2.98852L6.86231 3.23325L6.31016 3.17708L6.28647 3.40988L6.71029 3.453L6.68508 3.70072L6.26127 3.6576L6.21968 4.06649C6.20055 4.25452 6.08637 4.3394 5.88342 4.31876L5.46259 4.27595L5.42724 4.00096C5.56332 4.02686 5.69074 4.04887 5.81013 4.06102C5.8937 4.06952 5.93912 4.03795 5.9458 3.97229L5.98072 3.62906L4.3183 3.45995L4.3435 3.21222L6.00592 3.38134L6.0296 3.14854L4.19109 2.96151L4.21599 2.71677L5.41281 2.83853L5.43589 2.6117L4.57035 2.52365L4.59556 2.27593ZM4.85664 3.56296C4.99337 3.73066 5.0961 3.87681 5.16783 4.00171L4.93149 4.13145C4.8547 3.99699 4.74928 3.84755 4.61225 3.68284L4.85664 3.56296ZM4.78522 1.86401C4.70321 1.98835 4.61317 2.10282 4.51507 2.20743L4.28613 2.02733C4.48049 1.83602 4.62532 1.62761 4.72423 1.39643L4.98677 1.48345C4.9634 1.53535 4.93704 1.58695 4.91367 1.63885L5.62698 1.71142L5.603 1.9472L5.14337 1.90044C5.19992 1.99666 5.24545 2.08271 5.27934 2.16456L5.01295 2.23395C4.96838 2.1088 4.91158 1.98542 4.84491 1.87008L4.78522 1.86401ZM5.99788 1.97832C5.94041 2.06897 5.87788 2.15006 5.81297 2.22488L5.59505 2.05495C5.73832 1.89161 5.84997 1.71299 5.92434 1.5155L6.1842 1.59923C6.16083 1.65114 6.14044 1.70334 6.11737 1.75226L6.93216 1.83514L6.90818 2.07093L6.42766 2.02204C6.48719 2.11857 6.53211 2.21058 6.56302 2.29213L6.30887 2.35976C6.26132 2.2343 6.20421 2.1139 6.13815 1.99259L5.99788 1.97832Z" fill="white"/>
<path d="M7.73033 2.33763C7.7806 2.47498 7.82236 2.63865 7.85859 2.82891L8.1244 2.85408C8.21079 2.70556 8.29204 2.54752 8.36221 2.37938L8.61356 2.49358C8.54566 2.63782 8.47619 2.76685 8.40216 2.88038L8.72472 2.91092L8.69898 3.1827L7.1967 3.04046L7.22244 2.76868L7.59278 2.80374C7.55772 2.66482 7.51612 2.5313 7.46471 2.4059L7.73033 2.33763ZM8.93451 1.93635L9.97088 2.03448L9.95052 2.24952C9.82909 2.54539 9.70068 2.81951 9.56827 3.07215C9.76327 3.36785 9.85555 3.60259 9.84214 3.7761C9.82291 3.97919 9.76781 4.1156 9.6828 4.1859C9.59182 4.25564 9.41763 4.28133 9.16675 4.25758L9.10543 3.95043C9.21181 3.97256 9.30085 3.98702 9.37551 3.99409C9.4415 3.99732 9.488 3.98364 9.50931 3.9495C9.53006 3.92133 9.54552 3.85348 9.55841 3.74923C9.57154 3.57871 9.47328 3.3434 9.26662 3.04359C9.38639 2.82892 9.50741 2.56917 9.6324 2.26761L9.1844 2.22519L8.95846 4.61152L8.68369 4.58551L8.93451 1.93635ZM7.35666 1.95571L7.90621 2.00774C7.88454 1.9183 7.86231 1.83484 7.83923 1.76033L8.13346 1.73997C8.15214 1.82913 8.16997 1.92725 8.18396 2.03404L8.77532 2.09003L8.74959 2.36182L7.33093 2.2275L7.35666 1.95571ZM8.55887 3.38942L8.44802 4.56018L8.16429 4.53332L8.179 4.37801L7.51596 4.31523L7.50126 4.47054L7.2235 4.44424L7.33435 3.27347L8.55887 3.38942ZM7.54141 4.04643L8.20445 4.10921L8.24969 3.63135L7.58666 3.56857L7.54141 4.04643Z" fill="white"/>
<path d="M12.1382 4.88001L11.8931 4.8584L11.8448 4.58611L12.1043 4.61501C12.182 4.62186 12.2286 4.57176 12.2378 4.46716L12.4072 2.54562L11.2836 2.44655L11.3068 2.18357L12.7054 2.30688L12.5059 4.5691C12.4859 4.79622 12.3623 4.89977 12.1382 4.88001ZM10.2167 2.45488L10.4917 2.47912L10.292 4.74433L10.017 4.72009L10.2167 2.45488ZM10.7622 1.97292C10.8854 2.14642 10.9921 2.33652 11.0799 2.537L10.814 2.64909C10.7189 2.42988 10.6124 2.23679 10.4952 2.06382L10.7622 1.97292Z" fill="white"/>
<path d="M13.9647 2.29217C14.0661 2.45096 14.1633 2.62445 14.2533 2.8124L14.0603 2.88994L14.6793 2.94052C14.8008 2.77888 14.9131 2.58338 15.0159 2.357L15.2879 2.45447C15.206 2.64644 15.1078 2.81601 14.9992 2.96666L15.5673 3.01309L15.5448 3.28817L14.5701 3.20852L14.5625 3.30121C14.5448 3.44424 14.5191 3.57458 14.4882 3.69546L15.6782 3.79271L15.6557 4.06779L14.6092 3.98227C14.7262 4.35604 15.0767 4.67063 15.6606 4.92905L15.4712 5.18447C14.8643 4.87602 14.4944 4.50266 14.3555 4.06689C14.2902 4.20302 14.2141 4.32323 14.1276 4.42452C13.9023 4.67701 13.5535 4.8562 13.0813 4.96209L12.9461 4.70122C13.4188 4.58934 13.7452 4.42638 13.9282 4.21258C13.9921 4.13051 14.0477 4.03873 14.0949 3.94025L13.0723 3.85669L13.0948 3.58161L14.1951 3.67152C14.2293 3.54789 14.258 3.4178 14.2755 3.27775L14.283 3.18506L13.3053 3.10517L13.3278 2.83008L13.9677 2.88237C13.8832 2.70089 13.791 2.53984 13.6943 2.39649L13.9647 2.29217Z" fill="white"/>
<path d="M16.4554 2.58079L18.7199 2.75145L18.699 3.02966L17.7447 2.95775L17.6897 3.68768L18.8534 3.77538L18.832 4.05957L17.6683 3.97187L17.5914 4.99198C17.5756 5.20138 17.4568 5.30074 17.2384 5.28428L16.7628 5.24843L16.7237 4.9687C16.8756 4.98918 17.0217 5.00621 17.1593 5.01658C17.255 5.02379 17.3063 4.98253 17.3126 4.89876L17.3841 3.95045L16.1695 3.85892L16.1909 3.57473L17.4055 3.66626L17.4605 2.93633L16.4344 2.859L16.4554 2.58079Z" fill="white"/>
<path d="M20.6886 4.17143L20.6656 4.50364L21.1295 4.53572L21.1525 4.20351L20.6886 4.17143ZM20.6474 4.76701L20.6217 5.13813L21.0856 5.1702L21.1113 4.79909L20.6474 4.76701ZM20.6029 5.41048L20.5936 5.54515L20.3123 5.5257L20.4269 3.86766C20.3611 3.95031 20.2894 4.02956 20.2148 4.1086L20.1397 3.80269C20.3981 3.5018 20.5895 3.16921 20.7113 2.79873L20.9829 2.87164C20.9307 3.01839 20.8699 3.15853 20.8005 3.29206L21.2584 3.32372C21.2205 3.17675 21.1765 3.02937 21.1262 2.88756L21.4035 2.83457C21.4567 3.02168 21.4992 3.19001 21.5248 3.34214L21.9827 3.3738L21.9639 3.64615L21.476 3.61242L21.4522 3.9566L21.8802 3.98619L21.8618 4.25256L21.4338 4.22296L21.4108 4.55517L21.8388 4.58476L21.8206 4.84813L21.3926 4.81854L21.367 5.18966L21.8877 5.22566L21.8689 5.49801L20.6029 5.41048ZM21.1947 3.59297L20.7308 3.56089L20.707 3.90507L21.1709 3.93715L21.1947 3.59297ZM20.1792 3.97082L20.1591 4.26112C20.0726 4.29424 19.9834 4.32415 19.8971 4.35427L19.8408 5.16833C19.8273 5.36286 19.7188 5.45459 19.5182 5.44072L19.2489 5.4221L19.2051 5.14241C19.285 5.15997 19.3625 5.17134 19.4373 5.17651C19.5151 5.18189 19.5565 5.14867 19.5614 5.07684L19.6053 4.44235C19.4889 4.4734 19.3697 4.50124 19.2537 4.5263L19.2017 4.23402C19.3445 4.21381 19.4846 4.18742 19.6252 4.15504L19.6686 3.52654L19.3095 3.50171L19.3285 3.22636L19.6877 3.2512L19.7241 2.72445L20.0084 2.74411L19.972 3.27086L20.2503 3.2901L20.2313 3.56545L19.953 3.5462L19.9167 4.06995C20.006 4.04004 20.0925 4.00692 20.1792 3.97082Z" fill="white"/>
<path d="M22.4124 3.0956L23.5262 3.16587L23.509 3.43833L22.3952 3.36805L22.4124 3.0956ZM22.2506 3.897L23.583 3.98106L23.5656 4.25651L22.8919 4.21401C22.7583 4.61739 22.6465 4.91094 22.5566 5.09765C22.7569 5.0682 22.9612 5.02098 23.1666 4.95878C23.107 4.80773 23.0468 4.66566 22.986 4.53257L23.2329 4.43091C23.3548 4.6911 23.469 4.97786 23.5756 5.2882L23.3222 5.39846L23.2564 5.20192C22.9353 5.28988 22.5915 5.35536 22.222 5.39818L22.1702 5.12437C22.2005 5.12027 22.219 5.11242 22.2316 5.1042C22.3198 4.99253 22.447 4.69094 22.6165 4.19663L22.2332 4.17245L22.2506 3.897ZM24.0523 3.02171L24.3337 3.03947L24.2971 3.62031L24.9438 3.66112C24.8822 4.63718 24.8293 5.23804 24.788 5.46388C24.7407 5.68935 24.5808 5.79349 24.3084 5.7763C24.2605 5.77328 24.177 5.762 24.0576 5.74846L24.0076 5.4928C24.1148 5.50858 24.2073 5.52043 24.2851 5.52534C24.4168 5.53365 24.4962 5.46652 24.5293 5.32431C24.5561 5.18473 24.5947 4.71523 24.651 3.91919L24.2797 3.89577L24.278 3.92271C24.2146 4.78443 23.9684 5.40015 23.5361 5.77266L23.3354 5.57063C23.7199 5.24019 23.9413 4.68602 23.9966 3.90496L23.9983 3.87801L23.618 3.85402L23.6354 3.57857L24.0157 3.60256L24.0523 3.02171Z" fill="white"/>
<path d="M25.2602 3.57193L26.4672 3.64065C26.3975 3.49245 26.3094 3.35221 26.2029 3.21694L26.4934 3.12831C26.593 3.27821 26.6851 3.45473 26.7667 3.6577L27.9019 3.72232L27.8859 4.00387L27.4276 3.97778C27.2579 4.42486 27.0236 4.79314 26.7245 5.08561C27.0215 5.35793 27.3988 5.59275 27.8505 5.78674L27.6781 6.01731C27.2061 5.81015 26.8175 5.56267 26.5154 5.27503C26.1599 5.55528 25.731 5.75322 25.2286 5.86885L25.0901 5.60856C25.5825 5.51039 25.9921 5.33539 26.3251 5.0809C26.0144 4.73268 25.806 4.33018 25.7024 3.87957L25.2441 3.85348L25.2602 3.57193ZM25.975 3.89508C26.0798 4.27065 26.265 4.60572 26.5339 4.89747C26.7917 4.64471 26.9928 4.33164 27.1341 3.96107L25.975 3.89508Z" fill="white"/>
<path d="M29.1708 3.2772L29.4312 3.41643C29.317 3.65701 29.1734 3.88409 29.0006 4.09469L28.9015 6.06921L28.6198 6.05506L28.7023 4.41313C28.5731 4.53281 28.4351 4.64903 28.2884 4.75882L28.2134 4.45768C28.6355 4.12743 28.9556 3.73498 29.1708 3.2772ZM30.4562 6.0932L29.8959 6.06507C29.6562 6.05303 29.5424 5.92717 29.5544 5.68747L29.5966 4.84853C29.4858 4.90004 29.3721 4.9514 29.2556 4.99962L29.1403 4.72349C29.3057 4.6597 29.4652 4.59262 29.6133 4.51594L29.6718 3.35041L29.9564 3.3647L29.9068 4.35346C30.2102 4.17345 30.482 3.96481 30.7162 3.72726L30.9027 3.9619C30.6033 4.24124 30.2664 4.48866 29.8895 4.69802L29.841 5.66281C29.8368 5.7467 29.8797 5.79091 29.9755 5.79572L30.422 5.81814C30.4909 5.8216 30.543 5.80018 30.5782 5.75689C30.6105 5.71346 30.6394 5.55571 30.6592 5.28036L30.9185 5.38049C30.8803 5.724 30.8308 5.93178 30.7732 6.00098C30.7127 6.07003 30.606 6.10072 30.4562 6.0932Z" fill="white"/>
<path d="M31.1749 3.88847L32.3829 3.93977C32.311 3.79259 32.2208 3.65364 32.1124 3.51991L32.4016 3.4271C32.5034 3.57555 32.5981 3.75073 32.6826 3.95249L33.8186 4.00073L33.8066 4.28248L33.348 4.263C33.1848 4.71248 32.9558 5.0841 32.661 5.38086C32.9619 5.64887 33.3425 5.87822 33.7969 6.06567L33.6279 6.29871C33.153 6.09838 32.7609 5.85653 32.4546 5.57328C32.1032 5.85863 31.6772 6.06274 31.1765 6.18561L31.0343 5.92734C31.5252 5.82208 31.9323 5.64118 32.2616 5.38192C31.9459 5.03822 31.7316 4.63877 31.6216 4.18969L31.163 4.17022L31.1749 3.88847ZM31.8943 4.20128C32.0046 4.57529 32.1946 4.90765 32.4677 5.19549C32.7218 4.93904 32.9183 4.6231 33.0543 4.25053L31.8943 4.20128Z" fill="white"/>
<path d="M35.5242 3.56582L35.7918 3.64335C35.7573 3.78633 35.7201 3.91722 35.6803 4.03601L36.8227 4.07228C36.79 5.10376 36.7548 5.73896 36.7172 5.97789C36.6731 6.23462 36.5011 6.35822 36.1982 6.34861C36.1562 6.34728 36.0815 6.3389 35.9737 6.32948L35.9158 6.07251C36.0115 6.08455 36.0923 6.09312 36.1642 6.0954C36.3291 6.10064 36.4278 6.01673 36.4574 5.84358C36.4801 5.69423 36.508 5.19386 36.5411 4.33948L36.4062 4.3352C36.3248 4.81886 36.2256 5.2029 36.1026 5.48414C35.9546 5.7976 35.7387 6.07289 35.4609 6.3162L35.2911 6.08569C35.544 5.87161 35.7348 5.62854 35.8695 5.35668C35.9857 5.09924 36.0806 4.75708 36.1483 4.32701L35.9744 4.32149C35.8311 4.95926 35.5914 5.41989 35.2522 5.70327L35.0761 5.48457C35.3779 5.24202 35.5944 4.8527 35.7225 4.31349L35.5726 4.30873C35.4889 4.48617 35.3971 4.63633 35.2944 4.75313L35.0901 4.56955C35.2865 4.33867 35.4322 4.00412 35.5242 3.56582ZM34.4646 4.41763C34.436 4.5608 34.3987 4.69768 34.3584 4.83147L34.1117 4.7546C34.2118 4.43962 34.2733 4.1084 34.2964 3.76096L34.5477 3.78695C34.5378 3.9067 34.525 4.02635 34.5093 4.14291L34.6653 4.14786L34.6843 3.54816L34.9602 3.55692L34.9411 4.15662L35.16 4.16357L35.1513 4.43943L34.9324 4.43248L34.9123 5.06516C34.9853 5.03446 35.0553 5.00367 35.1223 4.97278L35.1137 5.24264C35.0437 5.27344 34.9737 5.30423 34.9038 5.33203L34.8724 6.32153L34.5965 6.31277L34.6244 5.43421C34.4818 5.48371 34.3363 5.52712 34.188 5.56743L34.1308 5.28948C34.2998 5.25883 34.4692 5.21918 34.6329 5.16735L34.6565 4.42372L34.4646 4.41763Z" fill="white"/>
<path d="M37.4707 4.08378L38.0764 4.103C37.9965 3.9714 37.9133 3.8517 37.8236 3.7468L38.0641 3.64038C38.1625 3.75456 38.2545 3.88054 38.3401 4.02133L38.1573 4.10557L38.763 4.1248C38.8637 3.97792 38.9497 3.82157 39.024 3.65585L39.2968 3.76356C39.2264 3.89939 39.1475 4.02295 39.0599 4.13423L39.6056 4.15155L39.5648 5.4379L38.6382 5.40849L38.6307 5.64537L39.8301 5.68345L39.8215 5.95331L38.6221 5.91523L38.6051 6.45196L38.3233 6.44302L38.3403 5.90629L37.1409 5.86821L37.1495 5.59835L38.3489 5.63642L38.3564 5.39954L37.4298 5.37013L37.4707 4.08378ZM39.2969 5.17727L39.3057 4.90141L38.655 4.88075L38.6462 5.15662L39.2969 5.17727ZM38.3644 5.14767L38.3731 4.87181L37.7225 4.85115L37.7137 5.12701L38.3644 5.14767ZM37.7301 4.61127L38.3807 4.63193L38.3893 4.36206L37.7386 4.34141L37.7301 4.61127ZM38.6712 4.37101L38.6626 4.64088L39.3133 4.66153L39.3218 4.39167L38.6712 4.37101Z" fill="white"/>
<path d="M40.829 3.71608L41.092 3.84749C41.0098 4.073 40.9069 4.28884 40.7804 4.49193L40.7162 6.51291L40.4344 6.50396L40.4853 4.89977C40.3918 5.00786 40.2954 5.11285 40.1932 5.21166L40.1099 4.90586C40.4268 4.56775 40.6674 4.17318 40.829 3.71608ZM41.0236 4.2055L41.7972 4.23006C41.7598 4.0848 41.719 3.95144 41.672 3.82388L41.9734 3.78543C42.0112 3.91869 42.0484 4.06995 42.0821 4.2391L42.8467 4.26338L42.838 4.53624L41.0149 4.47836L41.0236 4.2055ZM40.9121 6.11092L41.9316 6.14329C42.091 5.75215 42.2356 5.26449 42.3622 4.68021L42.6329 4.75784C42.5172 5.28243 42.3794 5.7463 42.2224 6.15252L42.8641 6.17289L42.8552 6.45175L40.9032 6.38978L40.9121 6.11092ZM41.4258 4.6775C41.5278 5.05893 41.6129 5.49685 41.6872 5.99146L41.4212 6.05205C41.3574 5.6028 41.2691 5.17078 41.1593 4.75308L41.4258 4.6775Z" fill="white"/>
<path d="M43.2177 4.2991L44.4261 4.33746C44.3527 4.19106 44.261 4.05308 44.1512 3.92053L44.4394 3.82462C44.5427 3.97198 44.6393 4.14613 44.7259 4.34698L45.8624 4.38305L45.8534 4.66491L45.3946 4.65035C45.2362 5.10155 45.0113 5.4756 44.7196 5.7755C45.0234 6.04027 45.4064 6.26554 45.8628 6.44811L45.6963 6.68294C45.2193 6.48771 44.8246 6.25007 44.5153 5.97011C44.167 6.25921 43.7431 6.46786 43.2438 6.59608L43.0989 6.33936C43.5886 6.22884 43.9937 6.0436 44.3202 5.78083C44.0009 5.44052 43.7824 5.04339 43.6675 4.59552L43.2087 4.58096L43.2177 4.2991ZM43.9404 4.60418C44.0546 4.97699 44.2482 5.3073 44.5243 5.59221C44.7757 5.33305 44.9689 5.01502 45.1008 4.64102L43.9404 4.60418Z" fill="white"/>
<path d="M47.0599 3.91099L47.3228 4.0454C47.213 4.28804 47.0737 4.51773 46.9048 4.73148L46.8421 6.70749L46.5602 6.69854L46.6124 5.05537C46.4855 5.1774 46.3496 5.29615 46.205 5.40862L46.1244 5.10891C46.5404 4.77094 46.8532 4.37266 47.0599 3.91099ZM48.397 6.70282L47.8363 6.68502C47.5964 6.67741 47.4803 6.55366 47.4879 6.31378L47.5146 5.4742C47.4048 5.52775 47.292 5.5812 47.1764 5.63155L47.056 5.35759C47.2202 5.29077 47.3785 5.22076 47.5251 5.14137L47.5621 3.97496L47.847 3.984L47.8156 4.9735C48.1156 4.78793 48.3835 4.57432 48.6133 4.33249L48.8041 4.56366C48.5099 4.84847 48.1777 5.10206 47.8046 5.31833L47.774 6.28384C47.7713 6.3678 47.815 6.41121 47.9109 6.41425L48.3577 6.42844C48.4267 6.43063 48.4784 6.40826 48.5128 6.36433C48.5442 6.3203 48.5703 6.16205 48.585 5.88638L48.8461 5.98171C48.8142 6.32587 48.7685 6.53453 48.7123 6.60478C48.653 6.67493 48.5469 6.70758 48.397 6.70282Z" fill="white"/>
<path d="M50.2657 5.2433L49.708 5.22559L49.6717 6.36802C49.6695 6.43998 49.7072 6.4802 49.7882 6.48277L50.3099 6.49933C50.3999 6.50219 50.4576 6.48001 50.48 6.4357C50.5055 6.38848 50.5267 6.2871 50.5436 6.13456L50.8076 6.23299C50.7753 6.4931 50.7343 6.65087 50.6786 6.70313C50.6291 6.74959 50.5294 6.77043 50.3855 6.76586L49.6568 6.74273C49.4679 6.73673 49.3778 6.64383 49.3836 6.46392L49.4288 5.03964L49.2803 5.179L49.1197 4.94278C49.4128 4.69096 49.6835 4.39039 49.9316 4.04409L50.1415 4.05075C50.3966 4.33499 50.6393 4.63084 50.8637 4.93812L50.6716 5.12712C50.4246 4.7771 50.2201 4.50648 50.052 4.31805C49.8887 4.54398 49.7078 4.76035 49.5031 4.96696L50.5526 5.00028L50.5263 5.82786C50.5181 5.99268 50.4254 6.07678 50.2451 6.08306C50.1281 6.07935 50.0173 6.07283 49.9125 6.0635L49.852 5.79445C49.9626 5.80996 50.0584 5.81901 50.1423 5.82167C50.2113 5.82386 50.2484 5.78902 50.2505 5.72305L50.2657 5.2433ZM51.0182 4.32771L51.297 4.33656L51.2383 6.18663L50.9594 6.17778L51.0182 4.32771ZM51.4583 6.82093L51.0055 6.80656L50.9482 6.5316C51.0947 6.54826 51.2355 6.55873 51.3674 6.56292C51.4394 6.5652 51.4768 6.52137 51.4795 6.43441L51.554 4.08959L51.8388 4.09863L51.7621 6.51542C51.7555 6.72531 51.6532 6.82712 51.4583 6.82093Z" fill="white"/>
<path d="M52.8457 4.52673L52.378 4.51188L52.3856 4.272L53.3751 4.30341C53.3527 4.25168 53.3303 4.20294 53.3076 4.1602L53.618 4.12203C53.6401 4.17976 53.6651 4.24359 53.6869 4.31331L54.7244 4.34625L54.7168 4.58613L54.24 4.57099L54.1474 4.74814L54.852 4.77051L54.8442 5.01639L52.2235 4.93319L52.2313 4.68732L52.912 4.70892L52.8457 4.52673ZM53.2088 4.71835L53.8505 4.73872L53.9432 4.56157L53.1426 4.53615L53.2088 4.71835ZM52.5314 5.06903L54.5284 5.13242L54.4987 6.06795L52.5017 6.00456L52.5314 5.06903ZM54.2267 5.84321L54.2314 5.69328L52.7921 5.64759L52.7874 5.79752L54.2267 5.84321ZM52.7986 5.4437L54.2379 5.48939L54.2426 5.34246L52.8033 5.29677L52.7986 5.4437ZM52.384 6.11788L52.6581 6.18361C52.5816 6.4183 52.4792 6.61915 52.3507 6.78916L52.1097 6.62843C52.2348 6.47032 52.3241 6.30207 52.384 6.11788ZM53.8937 6.87716L53.1621 6.85394C52.9312 6.84661 52.8206 6.73804 52.827 6.53415L52.8392 6.15034L53.1271 6.15948L53.1168 6.48332C53.1144 6.55828 53.1582 6.59869 53.2511 6.60164L53.8478 6.62058C53.9018 6.62229 53.9411 6.61154 53.9628 6.59121C53.9936 6.56518 54.0171 6.48788 54.0333 6.35633L54.3004 6.45186C54.2697 6.66099 54.2237 6.78859 54.1564 6.82847C54.0983 6.86265 54.0106 6.88088 53.8937 6.87716ZM53.5718 6.05053C53.6879 6.17428 53.7745 6.28208 53.8345 6.37704L53.5924 6.53443C53.5266 6.43329 53.4372 6.3194 53.324 6.19575L53.5718 6.05053ZM54.5053 6.1432C54.664 6.34334 54.7845 6.51825 54.8669 6.66494L54.6248 6.82234C54.537 6.65747 54.4197 6.47665 54.2698 6.2798L54.5053 6.1432Z" fill="white"/>
<path d="M56.6018 4.20492C56.6408 4.30221 56.6763 4.41139 56.7145 4.53266L57.755 4.56569L57.7464 4.83556L57.2426 4.81957C57.2084 4.95355 57.1622 5.08415 57.1042 5.20837L57.7969 5.23036L57.7881 5.50622L55.6592 5.43863L55.6464 5.84343C55.6195 6.31081 55.5026 6.68529 55.2896 6.96368L55.0768 6.76482C55.246 6.54208 55.3398 6.2329 55.3585 5.83429L55.3801 5.15364L55.9858 5.17286L55.8933 4.77673L55.3596 4.75979L55.3682 4.48992L56.4236 4.52343C56.3878 4.42324 56.3458 4.32886 56.3005 4.24338L56.6018 4.20492ZM56.2677 5.18181L56.8314 5.19971C56.8893 5.07548 56.9355 4.94488 56.9698 4.8109L56.1722 4.78558L56.2677 5.18181Z" fill="white"/>
<path d="M58.7084 4.4098L60.4115 4.46386L60.3783 5.51034L58.6751 5.45627L58.7084 4.4098ZM60.102 5.23143L60.1181 4.72469L58.9846 4.6887L58.9686 5.19545L60.102 5.23143ZM59.3756 5.70362L59.3328 7.05294L59.0569 7.04418L59.0615 6.90026L58.5068 6.88265L58.5022 7.02657L58.2234 7.01772L58.2662 5.6684L59.3756 5.70362ZM58.5153 6.61578L59.07 6.63339L59.0912 5.96473L58.5365 5.94712L58.5153 6.61578ZM60.7729 5.74798L60.7301 7.0973L60.4452 7.08826L60.4498 6.94433L59.8711 6.92596L59.8665 7.06989L59.5877 7.06103L59.6305 5.71171L60.7729 5.74798ZM59.8796 6.65909L60.4583 6.67746L60.4795 6.0088L59.9008 5.99043L59.8796 6.65909Z" fill="white"/>
<path d="M61.3812 4.55161L63.744 4.62662L63.7352 4.90248L63.2555 4.88725L63.2326 5.60688L63.8653 5.62697L63.8566 5.90283L63.2239 5.88275L63.1827 7.18109L62.8978 7.17205L62.939 5.8737L62.1354 5.84819C62.0959 6.14709 62.031 6.39415 61.9347 6.5922C61.8128 6.84045 61.6147 7.02926 61.3435 7.15572L61.1982 6.91099C61.4426 6.77768 61.6132 6.603 61.707 6.38987C61.7689 6.23576 61.8138 6.05109 61.8446 5.83896L61.1849 5.81802L61.1937 5.54216L61.8743 5.56376C61.8751 5.53978 61.8788 5.51588 61.8794 5.49789L61.9002 4.84422L61.3724 4.82747L61.3812 4.55161ZM62.188 4.85336L62.1673 5.50703C62.1665 5.53102 62.1628 5.55191 62.1622 5.5729L62.9478 5.59784L62.9706 4.8782L62.188 4.85336Z" fill="white"/>
<path d="M64.3451 5.45004L64.6098 4.582L64.8931 4.63902L64.7196 5.18879L65.1634 5.20287C65.2274 4.9828 65.2798 4.75034 65.3236 4.50561L65.6133 4.55082C65.5698 4.78656 65.5178 5.00702 65.4602 5.2123L66.8336 5.2559L66.8249 5.52876L65.3796 5.48288C65.3465 5.58087 65.3106 5.67278 65.2777 5.76178L66.4771 5.79986L66.4695 6.03974C66.3837 6.28314 66.2298 6.50036 66.0016 6.69122C66.2255 6.82439 66.4976 6.95009 66.815 7.06822L66.6595 7.33342C66.3009 7.18997 65.9997 7.03333 65.7588 6.86961C65.5167 7.027 65.2211 7.16769 64.872 7.29168L64.7306 7.01706C65.0339 6.91863 65.2956 6.80688 65.5126 6.6847C65.3226 6.52259 65.181 6.35001 65.0907 6.17005C64.8607 6.60698 64.5766 6.95214 64.2414 7.20563L64.1028 6.9371C64.5282 6.58442 64.8529 6.09647 65.0768 5.47326L64.3451 5.45004ZM65.3025 6.0207C65.3958 6.20075 65.5465 6.37062 65.7547 6.5273C65.9484 6.38038 66.0916 6.21984 66.1811 6.04859L65.3025 6.0207ZM66.1181 4.53383C66.32 4.69632 66.4889 4.86076 66.6248 5.02416L66.4144 5.22158C66.2994 5.06185 66.1367 4.8946 65.9202 4.71664L66.1181 4.53383Z" fill="white"/>
<path d="M69.5331 6.25723L69.4972 7.38766L69.2334 7.37929L69.2385 7.21737L68.0361 7.1792L68.0306 7.35311L67.7697 7.34483L67.7977 6.46327C67.6318 6.58407 67.4456 6.68321 67.2388 6.76669L67.103 6.50725C67.486 6.35433 67.7867 6.14776 68.0022 5.88447L67.2016 5.85905L67.21 5.59518L68.1755 5.62584C68.2298 5.52251 68.2752 5.41589 68.3087 5.3059L68.5865 5.34774C68.5533 5.44873 68.5173 5.54364 68.4783 5.63545L69.8606 5.67933L69.8522 5.9432L68.335 5.89503C68.2593 6.00969 68.1779 6.11516 68.0878 6.21135L69.5331 6.25723ZM68.044 6.93032L69.2464 6.96849L69.2613 6.50073L68.0589 6.46256L68.044 6.93032ZM67.2459 4.83995L67.9056 4.86089L67.9136 4.60901L68.1895 4.61777L68.1815 4.86964L68.9281 4.89335L68.9361 4.64147L69.2119 4.65023L69.204 4.9021L69.8606 4.92295L69.8522 5.18682L69.1956 5.16597L69.1877 5.41485L68.9118 5.40609L68.9197 5.15721L68.1731 5.13351L68.1648 5.39438L67.8889 5.38562L67.8972 5.12475L67.2376 5.10381L67.2459 4.83995Z" fill="white"/>
<path d="M70.4515 4.83959L72.6854 4.91051L72.6768 5.18037L71.7053 5.14953L71.6808 5.92314L72.8742 5.96102L72.8654 6.23689L71.672 6.199L71.6312 7.48535L71.3433 7.47621L71.3842 6.18986L70.1818 6.15169L70.1905 5.87583L71.3929 5.914L71.4175 5.14039L70.443 5.10945L70.4515 4.83959Z" fill="white"/>
<path d="M73.856 5.19372L73.3882 5.17887L73.3958 4.93899L74.3853 4.97041C74.363 4.91867 74.3405 4.86993 74.3179 4.82719L74.6282 4.78902C74.6504 4.84675 74.6754 4.91058 74.6972 4.98031L75.7347 5.01324L75.727 5.25312L75.2503 5.23798L75.1576 5.41513L75.8623 5.4375L75.8545 5.68338L73.2338 5.60018L73.2416 5.35431L73.9222 5.37592L73.856 5.19372ZM74.2191 5.38534L74.8608 5.40571L74.9534 5.22856L74.1528 5.20315L74.2191 5.38534ZM73.5416 5.73602L75.5386 5.79942L75.5089 6.73495L73.5119 6.67155L73.5416 5.73602ZM75.2369 6.5102L75.2417 6.36028L73.8024 6.31459L73.7976 6.46451L75.2369 6.5102ZM73.8089 6.11069L75.2481 6.15638L75.2528 6.00945L73.8135 5.96376L73.8089 6.11069ZM73.3943 6.78487L73.6683 6.8506C73.5918 7.08529 73.4894 7.28614 73.361 7.45615L73.1199 7.29542C73.245 7.13731 73.3344 6.96907 73.3943 6.78487ZM74.9039 7.54416L74.1723 7.52093C73.9414 7.5136 73.8308 7.40504 73.8373 7.20114L73.8495 6.81733L74.1373 6.82647L74.127 7.15031C74.1247 7.22527 74.1684 7.26568 74.2614 7.26863L74.8581 7.28757C74.912 7.28929 74.9514 7.27853 74.973 7.25821C75.0039 7.23217 75.0274 7.15488 75.0435 7.02332L75.3106 7.11885C75.28 7.32798 75.2339 7.45558 75.1666 7.49547C75.1085 7.52964 75.0209 7.54787 74.9039 7.54416ZM74.582 6.71753C74.6981 6.84127 74.7848 6.94908 74.8448 7.04403L74.6027 7.20142C74.5368 7.10029 74.4474 6.98639 74.3343 6.86274L74.582 6.71753ZM75.5155 6.81019C75.6743 7.01033 75.7948 7.18524 75.8772 7.33193L75.635 7.48933C75.5472 7.32446 75.4299 7.14364 75.2801 6.94679L75.5155 6.81019Z" fill="white"/>
<path d="M78.459 5.04587L78.4058 6.72203L78.1179 6.71289L78.1623 5.3156L76.9089 5.27581L76.8645 6.6761L76.5766 6.66696L76.6299 4.98781L78.459 5.04587ZM77.3682 5.46147L77.6501 5.47042L77.6323 6.03114C77.6212 6.19287 77.5985 6.33922 77.5641 6.4762L77.819 6.48429L77.7966 7.19194C77.793 7.30288 77.8302 7.36109 77.9082 7.36356L78.3459 7.37746C78.3819 7.3786 78.4184 7.36475 78.4492 7.33872C78.4832 7.30978 78.5111 7.18461 78.5302 6.9631L78.8002 7.06172C78.758 7.35152 78.7106 7.5211 78.6579 7.57346C78.5964 7.61953 78.5146 7.64395 78.4124 7.64671L77.8217 7.62796C77.6058 7.6211 77.502 7.48874 77.5101 7.23387L77.5305 6.59219C77.4672 6.78828 77.3809 6.95363 77.2684 7.09413C77.0625 7.33972 76.7356 7.52144 76.2874 7.64528L76.1421 7.40055C76.5903 7.2767 76.8987 7.10941 77.0645 6.89856C77.2277 6.67563 77.3209 6.38444 77.3504 6.02219L77.3682 5.46147Z" fill="white"/>
<path d="M80.2968 5.48834L80.2306 7.57529L79.9577 7.56663L79.9627 7.41071L79.4889 7.39567L79.4812 7.63855L79.2083 7.62988L79.2774 5.45598L79.5622 5.46502C79.6213 5.30482 79.6685 5.14123 79.6981 4.96808L79.9817 5.0161C79.9464 5.18007 79.8966 5.33157 79.8351 5.47368L80.2968 5.48834ZM79.4973 7.1318L79.9711 7.14684L79.9898 6.55614L79.516 6.5411L79.4973 7.1318ZM79.5241 6.28623L79.9979 6.30127L80.0154 5.74954L79.5417 5.7345L79.5241 6.28623ZM80.8137 6.22511C81.0038 6.47727 81.15 6.69502 81.249 6.88426L81.0191 7.03604C80.9114 6.83452 80.7625 6.61068 80.5783 6.36171L80.8137 6.22511ZM81.844 5.54046C81.8111 6.57494 81.7759 7.21314 81.7383 7.45207C81.7014 7.66701 81.5541 7.77038 81.2992 7.76229C81.2392 7.76039 81.1315 7.75097 80.9818 7.73721L80.9211 7.47415C81.0529 7.48434 81.1666 7.49395 81.2626 7.497C81.3825 7.50081 81.4535 7.44003 81.4755 7.31466C81.4982 7.16531 81.5232 6.66185 81.5564 5.80747L80.8037 5.78358C80.7141 5.96082 80.6129 6.12269 80.4942 6.269L80.3304 6.03868C80.5374 5.75711 80.6865 5.41067 80.7716 4.99916L81.0523 5.04409C81.017 5.21105 80.9701 5.36564 80.9174 5.51105L81.844 5.54046Z" fill="white"/>
<path d="M82.48 5.09233C82.6788 5.25772 82.8447 5.42207 82.9777 5.58237L82.7705 5.77389C82.6553 5.62016 82.4925 5.45291 82.2792 5.27205L82.48 5.09233ZM84.1188 7.83371C83.9539 7.82847 83.7741 7.81976 83.5823 7.81067C83.3875 7.80149 83.2291 7.77845 83.1041 7.74447C82.9853 7.70468 82.8827 7.62938 82.796 7.52458C82.7556 7.47227 82.7204 7.44714 82.6844 7.446C82.6214 7.444 82.5092 7.57551 82.3477 7.84052L82.144 7.63895C82.3016 7.40083 82.4414 7.25219 82.5633 7.19603L82.5902 6.34746L82.1884 6.3347L82.1968 6.07084L82.8654 6.09206L82.8295 7.22549C82.8441 7.23796 82.8586 7.25343 82.873 7.2719C82.9394 7.35505 83.0095 7.4173 83.0832 7.45866C83.1718 7.5035 83.3029 7.53467 83.4796 7.54628C83.6504 7.55471 83.8512 7.56408 84.0851 7.57151C84.232 7.57617 84.3821 7.57793 84.5321 7.5797C84.6821 7.58146 84.7992 7.57917 84.8804 7.57575L84.8025 7.85541L84.1188 7.83371ZM83.6759 5.42745L83.0972 5.40907L83.1048 5.17219L84.7509 5.22445L84.7445 5.42535C84.5659 5.56976 84.376 5.68979 84.1746 5.79145C84.1804 5.79764 84.1864 5.80083 84.1922 5.80702L84.7949 5.82615L84.7526 7.15748C84.747 7.33439 84.6452 7.4212 84.4503 7.41502L84.2194 7.40769L84.1669 7.1689L84.3794 7.18765C84.4454 7.18975 84.4824 7.15791 84.4845 7.09194L84.4894 6.93902L84.0576 6.92531L84.042 7.41706L83.7811 7.40878L83.7967 6.91703L83.3739 6.90361L83.3581 7.40136L83.0883 7.39279L83.1397 5.77361L83.8293 5.7955C83.7325 5.72639 83.6237 5.6539 83.5029 5.58403L83.6759 5.42745ZM84.005 5.651C84.1329 5.59203 84.2522 5.52378 84.3626 5.44924L83.6909 5.42792C83.8026 5.5035 83.9083 5.5759 84.005 5.651ZM83.3879 6.46283L83.3813 6.67272L83.8041 6.68615L83.8107 6.47625L83.3879 6.46283ZM84.0716 6.48453L84.0649 6.69443L84.4967 6.70813L84.5034 6.49824L84.0716 6.48453ZM84.5108 6.26436L84.5175 6.05446L84.0857 6.04076L84.079 6.25065L84.5108 6.26436ZM83.8182 6.24237L83.8248 6.03247L83.402 6.01905L83.3954 6.22895L83.8182 6.24237Z" fill="white"/>
<path d="M87.8359 5.52642L87.7616 7.86524L87.4858 7.85649L87.4912 7.68557L86.9665 7.66891L86.9609 7.84283L86.6851 7.83407L86.7594 5.49225L87.8359 5.52642ZM86.9749 7.40205L87.4997 7.41871L87.5515 5.78453L87.0268 5.76787L86.9749 7.40205ZM85.6716 5.81489C85.5979 5.96263 85.5156 6.09809 85.4276 6.22136L85.1838 6.05454C85.3846 5.77877 85.5322 5.4803 85.6234 5.15903L85.9034 5.22795C85.8698 5.34094 85.8305 5.44475 85.7912 5.54555L86.6098 5.57154L86.6012 5.8444L86.1934 5.83146C86.1815 6.01717 86.1669 6.1908 86.1439 6.34915L86.6117 6.364L86.603 6.63686L86.0963 6.62077C86.0822 6.68636 86.0651 6.75185 86.0512 6.81144C86.2282 7.00315 86.4075 7.21595 86.5922 7.44993L86.4099 7.70827C86.2324 7.43851 86.083 7.22666 85.9619 7.07274C85.8259 7.38358 85.6046 7.64369 85.2919 7.84987L85.1132 7.61608C85.4324 7.3951 85.6452 7.11971 85.7548 6.78702C85.7686 6.73043 85.7855 6.67094 85.7994 6.61135L85.2087 6.5926L85.2174 6.31974L85.8501 6.33982C85.8731 6.18147 85.8876 6.00785 85.8995 5.82213L85.6716 5.81489Z" fill="white"/>
<path d="M88.4995 5.2325L89.0757 6.6525L88.4106 8.03309L88.1742 7.91753L88.7879 6.64337L88.2562 5.33284L88.4995 5.2325ZM89.0123 5.24878L89.5885 6.66878L88.9233 8.04937L88.6869 7.93381L89.3006 6.65964L88.757 5.34873L89.0123 5.24878Z" fill="white"/>
</svg>
