<svg width="161" height="48" viewBox="0 0 161 48" fill="none" xmlns="http://www.w3.org/2000/svg">
<path d="M3.44283 42.0585L3.8016 41.9884L4.12733 43.8524L5.72923 44.8472L5.54579 45.1464L3.80994 44.0685L3.44283 42.0585ZM4.00818 41.6735L4.35372 41.6123L4.69268 43.4673L6.29457 44.4622L6.11114 44.7614L4.37529 43.6835L4.00818 41.6735Z" fill="white"/>
<path d="M5.51904 40.6763C5.75836 40.7526 6.0059 40.8476 6.25839 40.9636L6.12666 41.2076L6.80433 40.7318C6.79118 40.4625 6.73965 40.1663 6.65205 39.8466L7.01396 39.7147C7.09363 39.9813 7.13757 40.2389 7.15462 40.4859L7.77664 40.0492L7.98809 40.3504L6.92084 41.0997L6.99209 41.2012C7.09587 41.3629 7.18062 41.5184 7.25194 41.6688L8.5549 40.754L8.76635 41.0552L7.62053 41.8596C8.05905 42.1431 8.68661 42.1668 9.50552 41.934L9.52905 42.3574C8.6439 42.5585 7.94647 42.491 7.43253 42.1627C7.48162 42.3579 7.50613 42.546 7.50375 42.7236C7.48799 43.1745 7.28319 43.6555 6.88935 44.1666L6.52835 44.0144C6.91759 43.4968 7.11327 43.0515 7.11865 42.6763C7.1142 42.5377 7.09303 42.3961 7.05744 42.2549L5.93782 43.041L5.72637 42.7398L6.93111 41.894C6.86077 41.7381 6.77929 41.5803 6.67781 41.4218L6.60656 41.3203L5.53604 42.0719L5.32459 41.7707L6.02518 41.2788C5.78384 41.1648 5.55204 41.0783 5.33076 41.0137L5.51904 40.6763Z" fill="white"/>
<path d="M8.19595 38.9324L10.6589 37.1709L10.8753 37.4735L9.83741 38.2158L10.4052 39.0097L11.6708 38.1045L11.8919 38.4136L10.6262 39.3188L11.4197 40.4282C11.5825 40.656 11.5459 40.8592 11.3084 41.0291L10.7911 41.399L10.512 41.1462C10.6849 41.0373 10.8489 40.9298 10.9986 40.8228C11.1027 40.7483 11.1199 40.6623 11.0547 40.5712L10.3171 39.5398L8.99617 40.4845L8.77512 40.1754L10.0961 39.2307L9.52832 38.4368L8.41234 39.2349L8.19595 38.9324Z" fill="white"/>
<path d="M12.7084 37.7165L13.3302 38.5799C13.5543 38.3298 13.7876 38.0583 14.0189 37.7635L14.3034 37.9875C13.9837 38.3854 13.6425 38.774 13.2855 39.1544L12.9775 38.9868C13.025 38.8885 13.0195 38.7988 12.9611 38.7176L11.5421 36.7474C11.9011 36.3903 12.2104 36.0394 12.4675 35.6915L12.8367 35.8003C12.6156 36.1024 12.343 36.422 12.0211 36.7623L12.4957 37.4212L13.3915 36.776L13.6042 37.0714L12.7084 37.7165ZM15.5296 37.3903L15.2245 37.61L14.9251 37.3722L15.2186 37.1706C15.303 37.1099 15.3101 37.0308 15.2447 36.9399L14.0338 35.2585L13.3944 35.719L15.2317 38.2703L14.9201 38.4947L12.8724 35.6513L14.135 34.742L15.603 36.7804C15.7784 37.0238 15.7536 37.229 15.5296 37.3903Z" fill="white"/>
<path d="M15.4319 35.1524L15.008 34.019L15.3541 33.8496L15.6163 34.5722L16.0974 34.2272C15.9867 33.9424 15.8536 33.6538 15.7015 33.3593L16.0447 33.1722C16.1899 33.457 16.3136 33.7325 16.4192 33.9964L17.908 32.9288L18.1201 33.2246L16.5533 34.3482C16.5977 34.4787 16.6342 34.6052 16.6717 34.726L17.9719 33.7936L18.1584 34.0536C18.265 34.3808 18.2782 34.7355 18.1915 35.1226C18.5365 35.0819 18.9264 34.9943 19.3582 34.8619L19.4087 35.2686C18.9128 35.4077 18.467 35.4861 18.0792 35.5083C17.9507 35.8712 17.7519 36.2598 17.483 36.6742L17.1107 36.4982C17.3518 36.1481 17.5381 35.8176 17.6687 35.5123C17.3362 35.4948 17.0463 35.427 16.8048 35.3098C16.9157 35.9587 16.895 36.5544 16.7458 37.0945L16.3814 36.9227C16.5456 36.2044 16.4935 35.4247 16.225 34.5836L15.4319 35.1524ZM16.9079 34.9799C17.1527 35.0948 17.4499 35.1523 17.7973 35.1493C17.8832 34.8367 17.9045 34.5507 17.8603 34.2969L16.9079 34.9799ZM16.5652 32.7449C16.9107 32.753 17.2228 32.7901 17.4991 32.8528L17.4366 33.2324C17.1853 33.1566 16.8774 33.1116 16.504 33.0988L16.5652 32.7449Z" fill="white"/>
<path d="M19.4402 30.6518C19.5686 30.7227 19.7062 30.8067 19.8554 30.907L21.0285 30.0787L21.2407 30.3793L18.8456 32.0705L19.3324 32.7599C19.8302 33.4857 20.1317 34.1346 20.2359 34.7123L19.8107 34.6648C19.7269 34.1854 19.4621 33.6232 19.0187 32.9814L18.3197 31.9913L19.5123 31.1492C19.3849 31.0727 19.2587 31.0051 19.1353 30.9551L19.4402 30.6518Z" fill="white"/>
<path d="M21.328 29.9359L22.1386 29.3779C22.1061 29.2109 22.0659 29.0395 22.0233 28.8648L22.3839 28.7185C22.4172 28.8656 22.4515 29.0071 22.4779 29.1443L24.1188 28.0148L24.3274 28.3179L22.5449 29.545C22.5993 29.9203 22.6146 30.274 22.5973 30.6016L23.3682 30.0708L23.0575 29.6194L23.3705 29.404L23.6813 29.8554L24.6994 29.1545L24.9012 29.4478L23.8831 30.1486L24.5658 31.1403C24.7178 31.3611 24.6796 31.5525 24.4489 31.7113L24.1063 31.9471L23.8261 31.6883C23.9407 31.6289 24.0473 31.5652 24.1429 31.4995C24.2351 31.4359 24.2551 31.3591 24.2006 31.28L23.5701 30.3641L22.4696 31.1216L22.2044 30.8914C22.2528 30.5667 22.2528 30.1928 22.2023 29.7808L21.5367 30.239L21.328 29.9359ZM23.075 31.0205L23.4241 31.0619C23.4128 31.497 23.3261 31.9354 23.1684 32.3694L22.7882 32.2475C22.9552 31.8411 23.0512 31.4303 23.075 31.0205ZM24.5641 29.9809C25.0264 30.0317 25.4436 30.1087 25.8137 30.223L25.7428 30.6069C25.4059 30.4843 24.9918 30.3906 24.4949 30.3248L24.5641 29.9809Z" fill="white"/>
<path d="M25.7524 26.3679L26.0625 26.1624L26.626 27.0126L26.3159 27.2181L25.7524 26.3679ZM26.0055 28.3789C25.8787 28.5061 25.7519 28.6333 25.6228 28.7572L25.3028 28.5567C26.2036 27.7293 26.8092 26.9632 27.1161 26.2606C26.9486 26.2469 26.7745 26.2375 26.5937 26.2326L26.6723 25.8878C27.1692 25.8991 27.6162 25.9436 28.0043 26.0223L27.9323 26.3915C27.7871 26.3534 27.6318 26.3219 27.4633 26.2993C27.3013 26.6994 27.0628 27.107 26.7466 27.5277L27.9269 26.7454L29.1269 28.5558L28.8168 28.7614L28.7328 28.6347L27.2625 29.6092L27.3509 29.7426L27.0441 29.9459L26.0055 28.3789ZM27.0769 29.3292L28.5472 28.3546L28.3991 28.1312L26.9288 29.1058L27.0769 29.3292ZM26.7608 28.8524L28.2312 27.8778L28.0964 27.6744L26.626 28.649L26.7608 28.8524ZM26.4603 28.3989L27.9306 27.4244L27.7914 27.2143L26.3211 28.1889L26.4603 28.3989ZM25.3549 26.9049L25.7087 26.9536C25.6733 27.3274 25.5713 27.7021 25.4006 28.0744L25.0603 27.9592C25.2188 27.6046 25.3184 27.2554 25.3549 26.9049Z" fill="white"/>
<path d="M29.8422 24.8638L29.4669 25.101L29.2724 24.7933L30.0332 24.3124C29.879 24.1733 29.7232 24.0541 29.5704 23.9472L29.8709 23.6815C30.02 23.805 30.1797 23.9454 30.3577 24.1073L31.0712 23.6563L31.2657 23.964L30.1533 24.6671L30.29 24.8835C30.3542 24.985 30.4127 25.0852 30.4658 25.1841L31.4328 24.5729C31.9271 25.3772 32.2151 25.9003 32.2947 26.1386C32.3536 26.3664 32.2735 26.5542 32.0525 26.6987C31.9409 26.7692 31.8082 26.8436 31.6585 26.9288L31.3898 26.7058C31.5708 26.6104 31.7205 26.5252 31.8422 26.4483C31.9483 26.3765 31.9787 26.2674 31.9279 26.1197C31.8593 25.9737 31.6515 25.6224 31.3099 25.067L30.6269 25.4988C30.9612 26.2149 31.0633 26.8555 30.9364 27.4183L30.5528 27.358C30.7106 26.7093 30.5193 25.95 29.979 25.0802L29.8422 24.8638ZM30.324 26.6366L30.5184 26.9443C30.2989 27.3007 30.0184 27.6579 29.6691 28.0112L29.4255 27.7156C29.8005 27.3508 30.0989 26.9918 30.324 26.6366ZM28.2624 24.7077L28.6436 24.6371C28.7323 25.1442 28.7705 25.579 28.7584 25.9416C28.8716 25.8511 28.986 25.7551 29.1004 25.6592C29.0907 25.5091 29.0768 25.3523 29.062 25.1866L29.4178 25.1131C29.462 25.8044 29.4647 26.3327 29.427 26.6925C29.6105 26.4961 29.7866 26.2806 29.9499 26.0449L30.1359 26.3391C29.8534 26.7306 29.5591 27.0586 29.2552 27.3264L28.9826 27.0823C29.0251 27.0223 29.0532 26.9619 29.0702 26.8991C29.1113 26.717 29.1247 26.4388 29.116 26.0657L28.6537 26.4573L28.3845 26.211C28.4224 26.1587 28.4441 26.0882 28.4462 26.0017C28.4263 25.5884 28.3669 25.1575 28.2624 24.7077Z" fill="white"/>
<path d="M33.9247 24.5438L34.1147 24.8636C33.8444 25.1917 33.5116 25.5243 33.1252 25.8608L32.8885 25.5641C33.3044 25.2147 33.6509 24.8739 33.9247 24.5438ZM31.8553 22.4698L32.2397 22.4043C32.3176 22.9349 32.3465 23.383 32.3284 23.752C32.4544 23.6586 32.5783 23.5617 32.7002 23.4614C32.6948 23.2878 32.6881 23.0964 32.6787 22.8926L33.0384 22.8325C33.0613 23.5446 33.0473 24.0927 32.9941 24.4732C33.1856 24.2943 33.3669 24.0982 33.5435 23.8863L33.711 24.1683C33.415 24.5395 33.1132 24.8537 32.8013 25.1041L32.5301 24.8512C32.5757 24.7869 32.6054 24.7273 32.6242 24.665C32.6689 24.4896 32.6941 24.2187 32.7039 23.8593C32.5449 23.991 32.3803 24.1213 32.211 24.2591L31.9473 24.011C31.988 23.9542 32.0082 23.8864 32.0127 23.8C32.0036 23.3774 31.9499 22.9347 31.8553 22.4698ZM32.7537 22.1966L34.3563 21.2447L35.3532 22.9229L33.7507 23.8749L32.7537 22.1966ZM34.8482 22.8089L34.2169 21.7462L33.2574 22.3162L33.8887 23.3788L34.8482 22.8089ZM34.1377 23.845L34.5049 23.813C34.5768 24.31 34.5885 24.7683 34.5365 25.19L34.1395 25.156C34.2037 24.7549 34.2042 24.3173 34.1377 23.845ZM35.0834 23.2832C35.5537 23.511 35.9369 23.7253 36.2365 23.9242L36.0724 24.2823C35.755 24.0614 35.3712 23.8381 34.9167 23.6056L35.0834 23.2832Z" fill="white"/>
<path d="M35.8879 21.7677L36.1704 22.2789L36.6605 22.008L36.378 21.4969L35.8879 21.7677ZM36.2136 21.1993L35.9273 20.6811L35.4371 20.952L35.7235 21.4701L36.2136 21.1993ZM36.3297 22.5838C36.5683 23.0735 36.7029 23.5155 36.7316 23.9064L36.3538 23.8182C36.3255 23.4362 36.1808 23.0089 35.9231 22.5343L34.9732 20.8153L36.062 20.2136L37.5749 22.9514C37.7064 23.1895 37.6637 23.3685 37.4501 23.4865L37.17 23.6413L36.927 23.3917C37.0308 23.348 37.1222 23.3067 37.2063 23.2603C37.2798 23.2196 37.2835 23.1353 37.2157 23.0128L36.8269 22.3091L36.3297 22.5838ZM37.4861 21.4924L38.1768 22.7422C38.3047 22.5436 38.389 22.3324 38.4373 22.1138C38.0911 21.9669 37.7886 21.7502 37.5316 21.4672L37.4861 21.4924ZM38.1826 22.7527L38.3296 23.0188L38.018 23.191L36.3 20.0821L37.774 19.2676C38.0255 19.7227 38.1709 20.0354 38.212 20.2092C38.2513 20.3794 38.1589 20.5265 37.9348 20.6503L37.6407 20.8128L37.3984 20.5811C37.4544 20.5501 37.5334 20.5111 37.6314 20.4569C37.7049 20.4163 37.7571 20.3783 37.7863 20.3485C37.8155 20.3186 37.8261 20.2716 37.82 20.211C37.8081 20.1399 37.7409 19.9851 37.6183 19.7467L36.778 20.211L37.3236 21.1983L38.5069 20.5444L38.6617 20.8244C38.7883 21.2024 38.8458 21.5545 38.8322 21.8773C39.0512 21.9345 39.287 21.9642 39.5379 21.9718L39.5282 22.3428C39.2628 22.334 39.0142 22.2977 38.7879 22.2354C38.7333 22.4758 38.6353 22.7036 38.4973 22.917L38.1826 22.7527ZM37.8152 21.3105C38.011 21.4994 38.2301 21.6479 38.4762 21.7541C38.4806 21.514 38.447 21.263 38.3754 21.001L37.8152 21.3105Z" fill="white"/>
<path d="M39.0739 18.4316L39.4164 18.2579L40.2393 19.8813L39.8967 20.0549L39.6653 19.5982C39.5109 19.8245 39.3261 20.0527 39.1056 20.29L38.8198 20.0537C39.0939 19.7892 39.3214 19.5304 39.5007 19.2736L39.0739 18.4316ZM39.7793 18.5493L40.5036 18.1822L40.3065 17.7933L40.6454 17.6215L40.8426 18.0104L41.5633 17.6451L41.717 17.9484L40.9963 18.3137L41.226 18.7668L41.8468 18.4521L42.0005 18.7554L40.4271 19.5529L40.2733 19.2496L40.887 18.9386L40.6573 18.4855L39.9331 18.8526L39.7793 18.5493ZM38.5218 18.8818C38.7686 18.8733 39.0102 18.8899 39.2412 18.9387L39.2074 19.2877C38.9495 19.239 38.7061 19.2189 38.4772 19.2363L38.5218 18.8818ZM39.1236 20.6441L40.6043 19.8936C40.5235 19.8404 40.4373 19.7944 40.3495 19.7537L40.6074 19.4929C40.7276 19.5531 40.8461 19.6275 40.961 19.7128L42.3061 19.031L42.4616 19.3378L41.1808 19.987C41.3531 20.0881 41.536 20.1658 41.7295 20.2202C41.8535 20.0048 41.9418 19.7897 41.9996 19.5765L42.3454 19.6658C42.2821 19.8772 42.1849 20.0835 42.0625 20.2845C42.3436 20.317 42.6458 20.3028 42.9657 20.2438L42.9178 20.6358C42.1509 20.742 41.4703 20.5847 40.8794 20.1622C40.8109 20.3808 40.7048 20.605 40.5611 20.8348L40.7709 21.2487C40.9989 21.0614 41.2089 20.8742 41.3957 20.6853L41.6011 20.9579C41.3271 21.2134 40.9869 21.4979 40.5772 21.8132L40.363 21.5586C40.4376 21.4759 40.4551 21.3953 40.4189 21.324L40.3339 21.1563C40.1918 21.3359 40.0318 21.5157 39.8539 21.6956L39.5326 21.4952C40.0168 21.0704 40.3403 20.6822 40.51 20.327L39.2791 20.951L39.1236 20.6441Z" fill="white"/>
<path d="M43.8143 17.8897L43.1378 18.1992L43.7719 19.585C43.8118 19.6723 43.8807 19.698 43.979 19.653L44.6118 19.3635C44.721 19.3135 44.7768 19.2528 44.7773 19.1866C44.7797 19.1151 44.745 18.9814 44.6746 18.7893L45.0483 18.7503C45.164 19.08 45.2085 19.2928 45.173 19.3882C45.1415 19.473 45.0347 19.5571 44.8601 19.6369L43.9763 20.0414C43.7471 20.1462 43.5844 20.0887 43.4846 19.8704L42.694 18.1427L42.5993 18.3972L42.2675 18.2103C42.4683 17.7358 42.6133 17.2163 42.7042 16.6556L42.9589 16.5391C43.4321 16.7273 43.8974 16.9367 44.3475 17.1706L44.2302 17.5102C43.7276 17.2387 43.3229 17.0368 43.0104 16.9114C42.9494 17.2781 42.8616 17.6437 42.7397 18.0118L44.0128 17.4293L44.4721 18.4332C44.56 18.635 44.4992 18.7904 44.2876 18.9048C44.1457 18.9697 44.0095 19.0276 43.8789 19.0786L43.6471 18.7932C43.7883 18.7461 43.908 18.7001 44.0099 18.6535C44.0936 18.6153 44.1172 18.5516 44.0806 18.4716L43.8143 17.8897ZM44.17 16.3501L44.5083 16.1953L45.5351 18.4395L45.1969 18.5943L44.17 16.3501ZM46.174 19.0666L45.6247 19.3179L45.3933 19.0235C45.5781 18.9565 45.7524 18.8856 45.9125 18.8123C45.9998 18.7724 46.0184 18.6979 45.9702 18.5924L44.6687 15.748L45.0143 15.5899L46.3557 18.5216C46.4722 18.7762 46.4104 18.9584 46.174 19.0666Z" fill="white"/>
<path d="M46.5707 15.5049L45.9924 15.7393L45.8722 15.4427L47.0955 14.947C47.0403 14.896 46.9866 14.8487 46.9359 14.8088L47.2937 14.5947C47.3519 14.6531 47.4169 14.7175 47.4811 14.7907L48.7637 14.2709L48.8839 14.5675L48.2945 14.8064L48.2771 15.0724L49.1483 14.7193L49.2715 15.0233L46.0314 16.3363L45.9083 16.0324L46.7498 15.6913L46.5707 15.5049ZM47.1168 15.5426L47.9101 15.2211L47.9275 14.9551L46.9377 15.3562L47.1168 15.5426ZM46.4801 16.3358L48.9491 15.3352L49.4178 16.4919L46.9488 17.4924L46.4801 16.3358ZM48.9649 16.3647L48.8897 16.1793L47.1103 16.9004L47.1854 17.0858L48.9649 16.3647ZM47.0081 16.6483L48.7876 15.9272L48.714 15.7456L46.9345 16.4667L47.0081 16.6483ZM46.8665 17.6941L47.2361 17.6263C47.2696 17.9537 47.2531 18.2539 47.1882 18.5305L46.8076 18.4646C46.8748 18.2044 46.893 17.951 46.8665 17.6941ZM49.117 17.805L48.2124 18.1716C47.927 18.2872 47.7335 18.2146 47.6313 17.9625L47.439 17.488L47.7949 17.3438L47.9572 17.7441C47.9947 17.8368 48.0699 17.8625 48.1848 17.8159L48.9225 17.5169C48.9893 17.4899 49.0314 17.4555 49.0469 17.4191C49.0704 17.3707 49.0573 17.2638 49.006 17.0946L49.3832 17.0669C49.4588 17.3385 49.4715 17.5189 49.4109 17.6038C49.3585 17.6769 49.2615 17.7464 49.117 17.805ZM48.2783 16.9709C48.4867 17.0591 48.6505 17.1438 48.7749 17.2272L48.5646 17.5497C48.4298 17.462 48.2593 17.3714 48.0546 17.2817L48.2783 16.9709ZM49.4665 16.58C49.768 16.7384 50.0093 16.8866 50.189 17.021L49.9787 17.3435C49.7827 17.1899 49.542 17.0328 49.2531 16.8737L49.4665 16.58Z" fill="white"/>
<path d="M49.939 13.6562C50.2441 13.7527 50.509 13.8675 50.7386 13.9905L50.5806 14.3256C50.375 14.1985 50.1049 14.0812 49.7757 13.9763L49.939 13.6562ZM49.833 14.9014L50.6785 14.6049L51.2384 16.2016C51.321 16.0625 51.4058 15.9056 51.4967 15.7296L51.7272 16.0726C51.5613 16.3851 51.3723 16.6803 51.1589 16.9543L50.9092 16.6773C50.9511 16.6033 50.9612 16.5235 50.9334 16.4442L50.4517 15.0702L49.9534 15.2449L49.833 14.9014ZM51.3381 14.8781L53.1688 14.2362L53.2839 14.5646C53.2923 14.939 53.2117 15.2894 53.0434 15.6196C53.3406 15.6935 53.6853 15.7337 54.0674 15.7353L53.9834 16.1124C53.553 16.0937 53.1788 16.0299 52.856 15.9312C52.6357 16.2458 52.3291 16.544 51.9438 16.8233L51.6378 16.5914C51.9969 16.3341 52.2812 16.0691 52.4895 15.7926C52.1455 15.6335 51.8714 15.4202 51.675 15.1499L51.4598 15.2254L51.3381 14.8781ZM52.0109 15.0322C52.1785 15.232 52.3985 15.388 52.676 15.5026C52.815 15.2462 52.9008 14.983 52.9282 14.7106L52.0109 15.0322ZM51.0914 13.3284L52.4277 12.8599L52.7056 13.6526C52.7347 13.7357 52.7959 13.7651 52.8903 13.732L53.2224 13.6155L53.3376 13.9439L52.911 14.0935C52.643 14.1874 52.4659 14.1054 52.3786 13.8563L52.1906 13.3203L51.564 13.54L51.6037 13.6532C51.7414 14.0458 51.6485 14.4217 51.3276 14.7758L50.9932 14.5836C51.26 14.329 51.3522 14.072 51.2622 13.8154L51.0914 13.3284Z" fill="white"/>
<path d="M54.6983 13.2252L55.703 12.927L55.3695 11.8035L55.7453 11.6919L56.0788 12.8155L57.0298 12.5332L57.1368 12.8937L56.1858 13.1759L56.7993 15.2428L56.4235 15.3544L55.81 13.2875L54.8053 13.5857L54.6983 13.2252ZM53.6772 12.3433C53.9822 12.4573 54.2489 12.5826 54.4783 12.7231L54.3042 13.0501C54.0973 12.9154 53.8295 12.7863 53.4981 12.6677L53.6772 12.3433ZM53.5011 13.6056L54.3869 13.3427L54.8717 14.9763C54.9649 14.8402 55.0573 14.6876 55.1539 14.5212L55.3602 14.8647C55.1831 15.1676 54.9799 15.4532 54.7535 15.7165L54.5187 15.4316C54.568 15.3585 54.5831 15.2831 54.5604 15.2064L54.1415 13.7952L53.6047 13.9546L53.5011 13.6056Z" fill="white"/>
<path d="M60.5163 10.627L61.3486 14.0678L60.9792 14.1571L60.9454 14.0172L58.4261 14.6266L58.4599 14.7666L58.0906 14.8559L57.2582 11.4152L60.5163 10.627ZM58.347 14.3L60.8664 13.6906L60.2278 11.0507L57.7085 11.6602L58.347 14.3ZM58.2087 11.8396L59.8688 11.438L59.9478 11.7646L58.2877 12.1662L58.2087 11.8396ZM58.1479 12.558L60.2473 12.0502L60.3263 12.3767L59.7354 12.5197L59.9094 13.239C59.9282 13.3167 59.9687 13.3481 60.0387 13.3311L60.1436 13.3057C60.1903 13.2945 60.2225 13.2743 60.2479 13.2435C60.2821 13.2146 60.2763 13.0885 60.2382 12.8631L60.5659 12.8908C60.6024 13.1948 60.601 13.3762 60.5598 13.4438C60.5166 13.5036 60.4251 13.5504 60.286 13.5882L60.0022 13.6568C59.8934 13.6832 59.8081 13.6709 59.7386 13.6218C59.6604 13.5708 59.6134 13.4957 59.5899 13.3985L59.3971 12.6015L59.1017 12.673C59.1361 12.9857 59.1206 13.2446 59.0492 13.4429C58.9659 13.6771 58.7994 13.8902 58.5515 14.0736L58.309 13.8195C58.5129 13.6755 58.6529 13.5059 58.7223 13.3162C58.7758 13.1634 58.7927 12.9782 58.7712 12.7529L58.2269 12.8846L58.1479 12.558Z" fill="white"/>
<path d="M62.701 10.8322C63.0978 11.0277 63.475 11.2271 63.8247 11.4319C63.976 11.1212 64.0929 10.7805 64.1746 10.4059L64.5475 10.5205C64.4569 10.9335 64.3297 11.3048 64.1658 11.6343C64.4991 11.8382 64.8135 12.0499 65.0996 12.263L64.8658 12.6103C64.6048 12.4004 64.3061 12.1856 63.9713 11.9739C63.7105 12.3916 63.3779 12.7337 62.9789 13.0072L62.6971 12.7117C63.0763 12.4624 63.39 12.1485 63.6334 11.7668C63.2829 11.5581 62.8963 11.3524 62.4814 11.1481L62.701 10.8322ZM61.6565 10.3881L64.8051 9.77332L64.8748 10.1306L62.0835 10.6756L62.5917 13.2784L65.5047 12.7097L65.5745 13.0669L62.3042 13.7054L61.6565 10.3881Z" fill="white"/>
<path d="M65.96 9.38713L66.3105 9.32517C66.1924 9.62226 66.1144 9.91632 66.0765 10.2074C66.0182 10.567 66.0236 10.9194 66.0842 11.2621C66.1441 11.6009 66.2598 11.9338 66.4385 12.2556C66.5732 12.5121 66.7473 12.7616 66.9608 13.0041L66.6102 13.0661C66.3791 12.8389 66.19 12.5961 66.0428 12.3378C65.8615 12.0245 65.7418 11.6923 65.6792 11.3378C65.6158 10.9793 65.6136 10.6223 65.6773 10.2698C65.7256 9.9688 65.8201 9.67588 65.96 9.38713Z" fill="white"/>
<path d="M67.7623 9.25065L70.9772 8.73487L71.0361 9.10218L69.5985 9.33282L69.8228 10.7309L71.4105 10.4762L71.4682 10.8356L69.8805 11.0903L70.0997 12.4569L69.7206 12.5177L69.5013 11.1512L67.9452 11.4008L67.8876 11.0414L69.4437 10.7918L69.2194 9.39365L67.8212 9.61795L67.7623 9.25065ZM68.404 9.71487C68.5892 9.96062 68.7743 10.2307 68.9606 10.533L68.637 10.7632C68.4534 10.4523 68.2676 10.1783 68.0797 9.94109L68.404 9.71487ZM70.5341 9.35691L70.9037 9.46371C70.838 9.7862 70.7354 10.1065 70.6006 10.4279L70.2331 10.3086C70.3706 9.97867 70.4698 9.66296 70.5341 9.35691Z" fill="white"/>
<path d="M74.6207 10.071L74.8619 11.7538L74.4817 11.8083L74.4585 11.646L72.5104 11.9252L72.5336 12.0875L72.1535 12.142L71.9123 10.4592L74.6207 10.071ZM72.4587 11.5649L74.4068 11.2856L74.2922 10.4858L72.3441 10.765L72.4587 11.5649ZM71.6022 10.1279L71.4798 9.78171C71.7711 9.67127 72.1261 9.18801 72.5455 8.33589L72.9568 8.41433C72.6996 8.90377 72.4283 9.3225 72.1388 9.6711C72.8085 9.55086 73.4516 9.41423 74.0727 9.2646C73.9187 9.0927 73.7631 8.93721 73.6086 8.78964L73.9259 8.57849C74.3033 8.92847 74.6706 9.32032 75.0284 9.75799L74.6862 9.99291C74.5674 9.84023 74.4542 9.69887 74.3421 9.56542C73.5248 9.7553 72.6101 9.94297 71.6022 10.1279Z" fill="white"/>
<path d="M75.2629 7.94115L75.6159 7.89468C75.8323 8.12843 76.0105 8.37931 76.1512 8.65127C76.3141 8.96873 76.4235 9.30936 76.471 9.67025C76.518 10.0272 76.4999 10.3805 76.4254 10.7333C76.3588 11.0245 76.2515 11.3129 76.1036 11.5987L75.7506 11.6452C75.8772 11.3501 75.9681 11.0598 76.0232 10.7741C76.0928 10.414 76.1069 10.0611 76.062 9.72006C76.0166 9.37504 75.9116 9.03785 75.7517 8.71194C75.624 8.44634 75.461 8.18941 75.2629 7.94115Z" fill="white"/>
<path d="M77.6121 8.6983L78.0529 8.64485L77.9306 7.63624L78.3038 7.59098L78.4261 8.5996L78.8312 8.55049L78.8755 8.91581L78.4704 8.96492L78.6158 10.1641C78.7714 10.0848 78.9221 9.99807 79.0722 9.90734L79.1175 10.2806C78.75 10.5065 78.3553 10.7074 77.925 10.8805L77.7835 10.5108C77.9464 10.4589 78.1044 10.3994 78.2575 10.3325L78.0972 9.01018L77.6564 9.06362L77.6121 8.6983ZM78.8778 7.87194L79.7475 7.7665C79.6982 7.65965 79.6455 7.55725 79.5943 7.46676L79.9837 7.35508C80.0289 7.46241 80.0721 7.58611 80.1207 7.72124L81.0062 7.61388L81.0496 7.97126L78.9212 8.22932L78.8778 7.87194ZM78.903 8.97694L79.4907 8.90569C79.4015 8.73518 79.3019 8.57803 79.1873 8.43075L79.5134 8.26227C79.6299 8.42544 79.7388 8.62579 79.8441 8.86284L80.3484 8.80169C80.4187 8.58365 80.4796 8.35466 80.5306 8.11074L80.8865 8.18847C80.8391 8.39568 80.7779 8.58845 80.7098 8.75788L81.222 8.69577L81.2658 9.05713L78.9468 9.3383L78.903 8.97694ZM81.0905 9.37252L81.2778 10.9172L80.9165 10.961L80.8924 10.7625L79.7726 10.8982L79.7967 11.0968L79.4393 11.1401L79.252 9.59543L81.0905 9.37252ZM79.7297 10.5448L80.8495 10.4091L80.772 9.76974L79.6522 9.90551L79.7297 10.5448Z" fill="white"/>
<path d="M81.2592 7.54308L82.8416 7.36886C82.7909 7.27384 82.7332 7.18764 82.6763 7.1094L83.1101 6.99322C83.1653 7.09178 83.2173 7.19873 83.271 7.32158L84.8614 7.14648L84.9008 7.50431L84.0738 7.59537C84.4283 7.81791 84.7077 8.01652 84.9037 8.18811L84.6097 8.44181C84.5157 8.35558 84.4093 8.26669 84.2946 8.17469C83.6407 8.30302 82.7946 8.44044 81.7569 8.59091L81.6379 8.27805C81.7126 8.26178 81.7705 8.23931 81.8156 8.2102C81.9407 8.10387 82.0866 7.96708 82.2528 7.79586L81.2986 7.90092L81.2592 7.54308ZM82.73 7.74333C82.5535 7.93177 82.3939 8.09019 82.2502 8.21064C82.9076 8.11412 83.4806 8.01883 83.9701 7.93274C83.8827 7.86993 83.7918 7.81153 83.7004 7.74916L83.8591 7.61901L82.73 7.74333ZM82.4383 9.59034L82.465 9.83287L84.1707 9.64507L84.144 9.40254L82.4383 9.59034ZM84.109 9.08446L84.0806 8.82602L82.3749 9.01382L82.4033 9.27226L84.109 9.08446ZM82.5001 10.151L82.5701 10.7871L82.1924 10.8287L81.9617 8.73335L84.4308 8.46151L84.6177 10.1592C84.6466 10.4217 84.5179 10.5686 84.2396 10.5993L83.834 10.6439L83.6943 10.2891L84.0778 10.263C84.1812 10.2516 84.232 10.2017 84.2233 10.1222L84.2058 9.96315L82.5001 10.151Z" fill="white"/>
<path d="M89.0504 8.09078L88.2066 8.17508L88.2308 8.41787L89.1303 8.32801L89.1614 8.63846L88.2618 8.72833L88.2865 8.9751L89.3014 8.8737L89.3328 9.18813L88.3179 9.28953L88.3501 9.61193L87.9839 9.64851L87.9517 9.32612L87.0801 9.4132L87.0486 9.09876L87.9203 9.01168L87.8957 8.76491L87.1474 8.83967L87.1164 8.52921L87.8646 8.45445L87.8404 8.21166L87.1757 8.27807L87.1443 7.96363L87.809 7.89723L87.7843 7.65046L86.9246 7.73635L86.894 7.42987L87.7537 7.34398L87.7298 7.10517L87.0651 7.17158L87.0341 6.86112L87.6988 6.79472L87.6722 6.52804L88.0384 6.49146L88.065 6.75813L88.9088 6.67383L88.9637 7.2231L89.2025 7.19924L89.2331 7.50572L88.9943 7.52957L89.0504 8.09078ZM88.096 7.06859L88.1199 7.3074L88.6015 7.25929L88.5776 7.02047L88.096 7.06859ZM88.1505 7.61387L88.1751 7.86065L88.6568 7.81253L88.6321 7.56576L88.1505 7.61387ZM88.097 9.7739C88.5467 9.72896 89.0112 9.6705 89.4872 9.60686L89.4597 9.97542L88.2935 10.0919C87.5612 10.1651 87.0291 10.1097 86.6939 9.93416C86.6514 9.91028 86.6167 9.8856 86.5905 9.8641C86.4806 10.052 86.3484 10.2179 86.1944 10.366L85.9154 10.0682C86.0786 9.93132 86.2076 9.77372 86.3063 9.59502C86.1368 9.38684 85.9899 9.12414 85.8618 8.8073L86.1687 8.66007C86.2602 8.89212 86.3561 9.08755 86.46 9.24199C86.5424 8.98051 86.5774 8.68757 86.5695 8.36677L85.8531 8.43834L85.8244 8.15177C86.0115 7.85169 86.1771 7.53767 86.3292 7.20892L85.7362 7.26817L85.7004 6.90995L86.7153 6.80855L86.7463 7.11901C86.6006 7.47124 86.4545 7.77929 86.3045 8.04754L86.8816 7.98988L86.9043 8.21675C86.9392 8.7278 86.8835 9.17557 86.737 9.56003C86.7895 9.60302 86.8452 9.63766 86.9041 9.66393C87.1771 9.78137 87.5748 9.81803 88.097 9.7739Z" fill="white"/>
<path d="M90.0637 6.3635C90.3361 6.53134 90.5651 6.70717 90.7579 6.88231L90.5231 7.16894C90.3546 6.99559 90.1212 6.81614 89.8274 6.63419L90.0637 6.3635ZM89.6579 7.54546L90.5501 7.4637L90.7045 9.14864C90.8185 9.03376 90.939 8.90222 91.07 8.75365L91.2101 9.14249C90.973 9.40521 90.7179 9.64549 90.4443 9.85935L90.2695 9.52993C90.3281 9.46832 90.3574 9.39334 90.3497 9.30969L90.2169 7.85976L89.6911 7.90794L89.6579 7.54546ZM91.1233 7.88917L93.0552 7.71215L93.087 8.05869C93.004 8.42379 92.8405 8.74405 92.597 9.02343C92.8672 9.16737 93.1918 9.29027 93.562 9.38488L93.3888 9.73013C92.9758 9.6073 92.6284 9.45436 92.3393 9.28002C92.0491 9.53155 91.6791 9.7462 91.2374 9.92325L90.9971 9.62393C91.408 9.46175 91.7483 9.27392 92.0176 9.05644C91.7226 8.81836 91.5088 8.54474 91.384 8.23483L91.1569 8.25564L91.1233 7.88917ZM91.7385 8.20235C91.8524 8.43693 92.0278 8.64178 92.2691 8.82051C92.4663 8.60561 92.6135 8.3712 92.7064 8.11365L91.7385 8.20235ZM91.2613 6.32606L92.6714 6.19685L92.748 7.03335C92.756 7.12098 92.8082 7.1644 92.9078 7.15528L93.2583 7.12316L93.2901 7.4697L92.84 7.51095C92.5572 7.53686 92.4053 7.41421 92.3812 7.15131L92.3294 6.58568L91.6682 6.64627L91.6791 6.76577C91.7171 7.18003 91.5355 7.52202 91.1381 7.7874L90.8605 7.51961C91.1812 7.33759 91.3332 7.11078 91.3084 6.83991L91.2613 6.32606Z" fill="white"/>
<path d="M95.3069 8.75113C95.0132 9.12131 94.5174 9.42838 93.8235 9.67198L93.5889 9.36674C94.3136 9.10848 94.7988 8.81837 95.0401 8.49278L95.1001 8.39536L93.5536 8.52671L93.5232 8.168L95.2649 8.02006C95.3402 7.7728 95.3734 7.50102 95.3643 7.20473L95.323 6.71848L95.6896 6.68733L95.7309 7.17358C95.744 7.46954 95.7229 7.7403 95.6635 7.98621L96.915 7.87991L96.9454 8.23862L95.5385 8.35812C95.5213 8.3917 95.5041 8.42527 95.4908 8.45851C96.0591 8.62702 96.587 8.83911 97.0737 9.0868L96.8942 9.43123C96.3715 9.13842 95.8427 8.91437 95.3069 8.75113ZM94.0288 7.36232C94.3216 7.45386 94.5925 7.57136 94.8416 7.7148L94.6716 8.03031C94.4086 7.86397 94.1374 7.74249 93.8655 7.66121L94.0288 7.36232ZM94.372 6.77115C94.6645 6.85871 94.9354 6.9762 95.1804 7.11998L95.0105 7.43549C94.7478 7.27314 94.4802 7.14734 94.2084 7.06606L94.372 6.77115ZM96.7251 6.06948L96.7945 6.88654L96.4278 6.91769L96.3878 6.44738L93.7892 6.66811L93.8291 7.13841L93.4625 7.16956L93.3931 6.3525L94.8877 6.22555C94.8344 6.11767 94.7817 6.01777 94.7258 5.92618L95.1069 5.82957C95.1643 5.93711 95.2186 6.05694 95.2703 6.19305L96.7251 6.06948Z" fill="white"/>
<path d="M97.5331 6.18321L98.1113 6.13759C98.0297 5.96749 97.945 5.80966 97.8536 5.66841L98.2351 5.5701C98.3158 5.72825 98.398 5.90633 98.4782 6.10865L98.9487 6.07153L98.9777 6.43839L98.2001 6.49974L98.2369 6.96629L98.9427 6.9106C99.0245 7.94738 99.0552 8.59096 99.0425 8.83672C99.0215 9.07912 98.8558 9.21658 98.5368 9.24175C98.5049 9.24427 98.4484 9.24069 98.372 9.2387L98.2615 8.90636C98.3343 8.91266 98.3987 8.9156 98.4545 8.91119C98.5941 8.90018 98.6725 8.82579 98.6897 8.68801C98.6989 8.55085 98.6741 8.08336 98.6195 7.2892L98.2606 7.31751C98.3062 8.20066 98.2099 8.86228 97.9718 9.30237L97.6692 9.07748C97.8816 8.6675 97.9555 8.02771 97.8915 7.16607L97.8412 6.52805L97.5621 6.55007L97.5331 6.18321ZM99.5412 6.25751C99.4322 6.555 99.3042 6.81387 99.1574 7.03811L98.8869 6.76253C99.0989 6.44889 99.2658 6.02244 99.3921 5.48685L99.7533 5.5386C99.7229 5.66137 99.6918 5.77617 99.6607 5.89097L101.036 5.78244L101.064 6.13733L99.5412 6.25751ZM100.96 6.59097C101.02 7.3526 101.036 7.81674 101.017 7.97876C100.994 8.14109 100.853 8.23647 100.59 8.25724L100.57 8.25881L100.449 7.94735C100.517 7.942 100.577 7.94127 100.629 7.93718C100.673 7.93372 100.697 7.89164 100.699 7.81525C100.702 7.74683 100.691 7.50296 100.658 7.08825L100.363 7.21982L100.466 8.51978L100.115 8.54747L100.022 7.37112L99.7237 7.50301L99.8058 8.54378C99.8197 8.71923 99.8867 8.80623 100.006 8.79679L100.76 8.73733C100.844 8.73073 100.906 8.70575 100.943 8.66273C100.987 8.61111 101.008 8.46902 101.005 8.23249L101.34 8.31038C101.331 8.65614 101.288 8.86423 101.206 8.94293C101.131 9.00903 101.013 9.05037 100.846 9.06358L99.9248 9.13626C99.6536 9.15765 99.5039 8.9889 99.4762 8.63799L99.3982 7.64907L99.1229 7.77109L99.0959 7.42816L99.3711 7.30613L99.329 6.77179L99.6639 6.74537L99.6967 7.16008L99.9949 7.0242L99.9455 6.39815L100.296 6.37046L100.336 6.8729L100.96 6.59097Z" fill="white"/>
<path d="M101.371 5.909L103.05 5.78449C102.963 5.63454 102.864 5.49345 102.75 5.35754L103.099 5.19928C103.219 5.35485 103.333 5.53893 103.437 5.75581L104.917 5.64609L104.944 6.01308L102.87 6.16687L102.885 6.79551L104.528 6.67367C104.58 7.5322 104.584 8.07338 104.536 8.29751C104.472 8.62314 104.285 8.80148 103.97 8.83282C103.843 8.84229 103.686 8.84584 103.51 8.84689L103.373 8.51211C103.585 8.50442 103.765 8.49909 103.909 8.48844C104.076 8.46804 104.174 8.34038 104.204 8.09749C104.218 7.96009 104.205 7.61215 104.172 7.06107L102.867 7.15778C102.834 7.46908 102.76 7.7594 102.635 8.02534C102.465 8.38289 102.213 8.71844 101.883 9.03167L101.588 8.7888C101.985 8.40243 102.24 8.05462 102.353 7.7414C102.466 7.42818 102.517 7.08349 102.509 6.70704C102.501 6.48705 102.496 6.31493 102.495 6.19467L101.398 6.27599L101.371 5.909Z" fill="white"/>
<path d="M106.736 5.60553L107.086 5.68118C107.032 5.7612 106.981 5.83695 106.93 5.90471L108.645 5.78421L108.667 6.08746L108.012 6.13342C107.9 6.30171 107.777 6.44264 107.649 6.55591C107.986 6.61644 108.332 6.68839 108.687 6.77573L108.488 7.07844C108.091 6.96995 107.691 6.87372 107.293 6.79744C106.888 7.0184 106.352 7.15627 105.69 7.21476L105.461 6.9181C106.02 6.87886 106.46 6.80386 106.773 6.70164C106.518 6.65944 106.263 6.62523 106.012 6.59472C106.104 6.47998 106.192 6.36552 106.281 6.25505L105.475 6.31166L105.453 6.00841L106.515 5.93386C106.591 5.82423 106.664 5.71488 106.736 5.60553ZM107.223 6.48558C107.369 6.38715 107.493 6.27815 107.589 6.16313L106.696 6.2259L106.555 6.40015C106.773 6.42093 106.996 6.4494 107.223 6.48558ZM108.623 5.11617L108.665 5.71469L108.314 5.73935L108.294 5.45605L105.748 5.63485L105.768 5.91815L105.417 5.94282L105.375 5.34429L106.807 5.24368C106.753 5.15926 106.695 5.07911 106.634 5.00323L107.024 4.91164C107.079 5.00404 107.13 5.1047 107.186 5.21706L108.623 5.11617ZM105.423 7.40994L106.96 7.30205L106.939 7.01475L107.323 6.98785L107.343 7.27514L108.867 7.16809L108.89 7.49528L107.685 7.57992C107.985 7.79943 108.422 7.96524 108.99 8.06965L108.85 8.41233C108.188 8.23428 107.697 7.98405 107.369 7.65421L107.435 8.59589L107.052 8.62279L106.986 7.67313C106.739 8.03534 106.296 8.36313 105.652 8.66502L105.421 8.34442C106.015 8.11827 106.427 7.88878 106.659 7.65194L105.446 7.73714L105.423 7.40994Z" fill="white"/>
<path d="M109.717 4.72125L110.072 4.69715C109.923 4.9799 109.814 5.26393 109.745 5.54925C109.649 5.90058 109.616 6.25157 109.64 6.59878C109.663 6.94199 109.743 7.2854 109.886 7.62448C109.992 7.89389 110.139 8.16059 110.325 8.42459L109.97 8.44868C109.764 8.19801 109.602 7.93638 109.484 7.6638C109.337 7.33297 109.253 6.98983 109.229 6.63065C109.204 6.26749 109.241 5.91223 109.341 5.56861C109.422 5.2745 109.547 4.99338 109.717 4.72125Z" fill="white"/>
<path d="M112.159 4.95366C112.43 4.9357 112.663 4.99648 112.849 5.1445C113.031 5.29279 113.132 5.49054 113.149 5.74199C113.165 5.98945 113.084 6.2193 112.914 6.435C112.81 6.55815 112.625 6.72276 112.354 6.9331C112.06 7.15699 111.888 7.34875 111.839 7.50837L113.264 7.41406L113.289 7.79723L111.325 7.9272C111.307 7.64382 111.382 7.39028 111.559 7.16207C111.655 7.03148 111.859 6.84559 112.168 6.60068C112.35 6.45229 112.479 6.33555 112.553 6.24645C112.671 6.09431 112.729 5.93416 112.718 5.76653C112.707 5.60687 112.655 5.49004 112.562 5.41603C112.469 5.34202 112.335 5.31082 112.167 5.32192C111.988 5.3338 111.856 5.40265 111.772 5.53246C111.684 5.65854 111.648 5.83333 111.655 6.06535L111.22 6.09415C111.203 5.77458 111.278 5.51307 111.445 5.3096C111.615 5.0899 111.856 4.97374 112.159 4.95366Z" fill="white"/>
<path d="M115.585 4.72947C115.92 4.70785 116.189 4.83083 116.391 5.1024C116.575 5.35504 116.682 5.7009 116.71 6.14398C116.739 6.58307 116.678 6.94374 116.527 7.218C116.361 7.50926 116.111 7.6697 115.776 7.69132C115.441 7.71294 115.172 7.58597 114.97 7.31839C114.786 7.06575 114.679 6.71988 114.651 6.2768C114.622 5.82973 114.683 5.47306 114.834 5.20279C114.999 4.90753 115.25 4.75109 115.585 4.72947ZM115.609 5.09671C115.373 5.11189 115.218 5.25018 115.139 5.51582C115.078 5.69609 115.062 5.94164 115.082 6.249C115.101 6.55237 115.149 6.79381 115.232 6.9688C115.345 7.21809 115.517 7.33927 115.752 7.32408C115.984 7.30915 116.143 7.16661 116.222 6.90497C116.279 6.72096 116.299 6.47515 116.279 6.17178C116.259 5.86442 116.208 5.62324 116.129 5.45198C116.016 5.1987 115.84 5.08178 115.609 5.09671Z" fill="white"/>
<path d="M118.298 4.61168L118.626 4.59089L118.807 7.44115L118.372 7.46878L118.224 5.14147C118.063 5.31605 117.851 5.44975 117.592 5.54233L117.565 5.1112C117.69 5.07115 117.819 5.0069 117.957 4.91793C118.095 4.82098 118.209 4.72156 118.298 4.61168Z" fill="white"/>
<path d="M120.519 4.41519C120.866 4.39336 121.137 4.50056 121.337 4.74452C121.528 4.977 121.641 5.31056 121.669 5.74969C121.698 6.21278 121.625 6.59406 121.456 6.89328C121.278 7.19301 121.028 7.35703 120.701 7.3776C120.146 7.41247 119.818 7.17255 119.714 6.66208L120.137 6.63549C120.21 6.90743 120.395 7.03612 120.682 7.01805C120.878 7.00576 121.027 6.89617 121.135 6.69703C121.235 6.50636 121.281 6.27106 121.263 5.9956C121.262 5.97963 121.257 5.96391 121.256 5.94395L121.24 5.94496C121.168 6.07373 121.07 6.17207 120.954 6.24347C120.842 6.30664 120.712 6.34685 120.564 6.35614C120.285 6.3737 120.052 6.29618 119.873 6.12707C119.698 5.9617 119.604 5.73917 119.586 5.45972C119.568 5.17229 119.645 4.93497 119.826 4.73929C120.005 4.53962 120.235 4.433 120.519 4.41519ZM120.557 4.77348C120.382 4.78452 120.241 4.84944 120.145 4.97572C120.045 5.09827 120.002 5.24924 120.013 5.43288C120.025 5.61651 120.086 5.75697 120.2 5.85798C120.307 5.96349 120.451 6.0106 120.63 5.99931C120.806 5.98827 120.946 5.92335 121.043 5.80505C121.14 5.68675 121.182 5.53178 121.17 5.34815C121.159 5.16052 121.093 5.01632 120.983 4.91506C120.868 4.81005 120.725 4.76294 120.557 4.77348Z" fill="white"/>
<path d="M122.405 5.59519L126.397 5.34612L126.419 5.69744L122.427 5.94651L122.405 5.59519Z" fill="white"/>
<path d="M127.518 3.97776C127.79 3.96079 128.022 4.02242 128.208 4.17113C128.389 4.32008 128.49 4.5182 128.506 4.76971C128.521 5.01722 128.439 5.24677 128.268 5.46186C128.164 5.58462 127.978 5.74855 127.706 5.95789C127.412 6.18071 127.239 6.37184 127.189 6.53128L128.614 6.44219L128.638 6.82544L126.674 6.94822C126.656 6.66477 126.733 6.41151 126.911 6.18396C127.007 6.05371 127.212 5.86857 127.521 5.62479C127.704 5.47708 127.833 5.36081 127.908 5.27198C128.027 5.12027 128.085 4.96034 128.074 4.79266C128.064 4.63297 128.013 4.51595 127.92 4.4416C127.827 4.36724 127.693 4.33556 127.525 4.34604C127.346 4.35727 127.214 4.42563 127.13 4.55513C127.041 4.68089 127.004 4.85555 127.011 5.08759L126.576 5.11479C126.56 4.79517 126.635 4.53393 126.803 4.33107C126.974 4.112 127.215 3.99672 127.518 3.97776Z" fill="white"/>
<path d="M130.414 3.7962C130.749 3.77505 131.017 3.89841 131.219 4.17027C131.403 4.42317 131.509 4.76918 131.537 5.2123C131.565 5.65143 131.503 6.01201 131.352 6.28606C131.186 6.57709 130.936 6.73717 130.6 6.75832C130.265 6.77946 129.996 6.65211 129.795 6.38425C129.611 6.13135 129.505 5.78533 129.477 5.34221C129.449 4.8951 129.51 4.53851 129.662 4.26845C129.828 3.97344 130.078 3.81735 130.414 3.7962ZM130.437 4.16347C130.201 4.17833 130.046 4.31639 129.966 4.58192C129.905 4.7621 129.889 5.00763 129.908 5.31502C129.927 5.61842 129.975 5.85992 130.058 6.03503C130.17 6.28448 130.342 6.4059 130.577 6.39105C130.809 6.37644 130.968 6.23413 131.048 5.9726C131.104 5.78867 131.125 5.54289 131.106 5.23949C131.086 4.9321 131.035 4.69085 130.956 4.51948C130.844 4.26604 130.668 4.14887 130.437 4.16347Z" fill="white"/>
<path d="M133.371 3.60879C133.642 3.5914 133.874 3.65267 134.06 3.80109C134.242 3.94977 134.343 4.14772 134.359 4.39921C134.375 4.6467 134.294 4.87638 134.123 5.09172C134.019 5.21465 133.833 5.37887 133.562 5.58863C133.267 5.8119 133.095 6.0033 133.045 6.16281L134.47 6.07152L134.495 6.45474L132.531 6.58055C132.513 6.29713 132.589 6.04376 132.766 5.81592C132.862 5.68553 133.067 5.50007 133.376 5.25582C133.559 5.10782 133.688 4.99135 133.762 4.9024C133.881 4.75052 133.939 4.59049 133.928 4.42283C133.918 4.26316 133.866 4.14622 133.773 4.07201C133.68 3.9978 133.546 3.96632 133.378 3.97706C133.199 3.98856 133.067 4.05714 132.983 4.18676C132.895 4.31265 132.858 4.48737 132.865 4.71941L132.429 4.74728C132.413 4.42768 132.488 4.16632 132.656 3.96321C132.826 3.74387 133.067 3.62822 133.371 3.60879Z" fill="white"/>
<path d="M135.392 3.53518L137.109 3.42277L137.134 3.80595L135.769 3.89535L135.739 4.72308L135.751 4.7223C135.833 4.62474 135.928 4.55434 136.041 4.50685C136.142 4.45614 136.261 4.42835 136.388 4.41998C136.656 4.40247 136.881 4.4759 137.06 4.64054C137.239 4.80519 137.343 5.03892 137.363 5.34627C137.382 5.64163 137.286 5.88844 137.083 6.09015C136.89 6.27113 136.652 6.37089 136.369 6.38945C136.114 6.40618 135.889 6.34872 135.697 6.22104C135.483 6.0827 135.357 5.87847 135.32 5.61634L135.747 5.58837C135.774 5.74698 135.846 5.86653 135.959 5.93931C136.059 6.00488 136.189 6.03244 136.349 6.02198C136.525 6.01048 136.669 5.94492 136.781 5.82931C136.894 5.70971 136.944 5.5621 136.932 5.37849C136.919 5.17892 136.857 5.02665 136.746 4.92169C136.635 4.81672 136.487 4.77025 136.296 4.7828C136.168 4.79117 136.062 4.81818 135.969 4.87235C135.868 4.92705 135.798 5.00785 135.748 5.11529L135.341 5.14195L135.392 3.53518Z" fill="white"/>
<path d="M139.362 3.63422C139.213 3.92496 139.022 4.17052 138.783 4.37916L138.506 4.07724C138.885 3.75082 139.125 3.33358 139.227 2.82152L139.623 2.86679C139.592 3.00519 139.56 3.13162 139.521 3.25459L141.947 3.08978L141.972 3.45693L140.747 3.54015L140.784 4.09088L141.87 4.01715L141.894 4.37233L140.808 4.44607L140.861 5.22028L142.21 5.12866L142.235 5.4998L140.886 5.59143L140.945 6.45344L140.566 6.47919L140.507 5.61718L138.695 5.74025L138.67 5.3691L139.297 5.32654L139.22 4.19715L140.405 4.11664L140.368 3.56591L139.362 3.63422ZM139.68 5.30052L140.482 5.24603L140.429 4.47182L139.627 4.52631L139.68 5.30052Z" fill="white"/>
<path d="M142.236 2.62394L142.592 2.59894C142.793 2.84537 142.956 3.10659 143.08 3.38657C143.223 3.71332 143.312 4.05995 143.338 4.42305C143.363 4.78216 143.323 5.1338 143.228 5.48139C143.144 5.768 143.019 6.04944 142.854 6.32571L142.499 6.35071C142.643 6.06388 142.751 5.77957 142.824 5.49779C142.915 5.1425 142.95 4.79115 142.926 4.448C142.902 4.10086 142.818 3.75793 142.678 3.42293C142.566 3.15008 142.419 2.88375 142.236 2.62394Z" fill="white"/>
<path d="M145.959 3.0479L146.163 5.82438L145.8 5.85112L145.785 5.64368L145.155 5.6901L145.179 6.01322L144.816 6.03996L144.603 3.14779L144.982 3.11988C145.037 2.89918 145.077 2.67566 145.092 2.44193L145.475 2.46588C145.451 2.68823 145.406 2.89608 145.345 3.09315L145.959 3.0479ZM145.129 5.33905L145.759 5.29263L145.701 4.50676L145.071 4.55318L145.129 5.33905ZM145.046 4.2141L145.676 4.16768L145.622 3.43366L144.992 3.48008L145.046 4.2141ZM146.747 3.95242C147.035 4.26014 147.259 4.52839 147.417 4.76544L147.133 4.9989C146.962 4.74678 146.733 4.47085 146.454 4.16653L146.747 3.95242ZM148.018 2.90028C148.119 4.27656 148.162 5.12772 148.145 5.4498C148.126 5.73996 147.946 5.89767 147.606 5.92265C147.527 5.92852 147.382 5.93112 147.182 5.93384L147.065 5.59354C147.241 5.58859 147.393 5.58541 147.521 5.576C147.68 5.56425 147.766 5.47372 147.778 5.30441C147.787 5.10319 147.749 4.43212 147.674 3.29461L146.672 3.36836C146.578 3.61594 146.467 3.84475 146.33 4.05537L146.08 3.77293C146.316 3.37057 146.465 2.89032 146.52 2.33276L146.898 2.35301C146.875 2.57935 146.834 2.7909 146.785 2.99107L148.018 2.90028Z" fill="white"/>
<path d="M148.805 2.21424C149.093 2.40421 149.337 2.59763 149.537 2.79053L149.29 3.07477C149.115 2.88797 148.875 2.69024 148.565 2.4819L148.805 2.21424ZM151.38 5.6064C151.16 5.62369 150.921 5.63857 150.665 5.6547C150.406 5.67114 150.192 5.66388 150.022 5.6372C149.859 5.60192 149.711 5.51722 149.581 5.39107C149.52 5.32769 149.47 5.29956 149.422 5.30333C149.338 5.30993 149.209 5.50069 149.034 5.87561L148.734 5.63842C148.908 5.2997 149.071 5.08219 149.225 4.98986L149.136 3.86136L148.601 3.90348L148.574 3.55257L149.463 3.48247L149.582 4.9898C149.603 5.00418 149.624 5.02254 149.646 5.0449C149.746 5.14533 149.848 5.21754 149.952 5.26152C150.076 5.30792 150.254 5.32998 150.49 5.3194C150.718 5.30547 150.985 5.2884 151.296 5.26388C151.492 5.24848 151.691 5.22877 151.89 5.20907C152.089 5.18936 152.244 5.16913 152.351 5.15267L152.289 5.53473L151.38 5.6064ZM150.439 2.48265L149.67 2.54331L149.645 2.22829L151.834 2.05572L151.855 2.32289C151.639 2.5405 151.405 2.72747 151.154 2.89177C151.162 2.89912 151.17 2.90248 151.179 2.90982L151.981 2.84664L152.12 4.61715C152.139 4.85242 152.017 4.98242 151.757 5.00285L151.45 5.02706L151.346 4.71832L151.63 4.71195C151.718 4.70504 151.762 4.6574 151.755 4.56967L151.739 4.36631L151.165 4.41157L151.217 5.06554L150.87 5.09289L150.818 4.43892L150.256 4.48324L150.308 5.14519L149.949 5.17348L149.779 3.02016L150.697 2.94786C150.558 2.87051 150.403 2.79042 150.233 2.71558L150.439 2.48265ZM150.908 2.73056C151.069 2.63362 151.217 2.52566 151.352 2.41066L150.459 2.48107C150.618 2.56483 150.769 2.64523 150.908 2.73056ZM150.21 3.89706L150.232 4.17619L150.794 4.13187L150.772 3.85274L150.21 3.89706ZM151.119 3.82539L151.141 4.10452L151.715 4.05926L151.693 3.78012L151.119 3.82539ZM151.669 3.46909L151.647 3.18995L151.072 3.23522L151.094 3.51435L151.669 3.46909ZM150.747 3.5417L150.725 3.26257L150.163 3.30689L150.185 3.58602L150.747 3.5417Z" fill="white"/>
<path d="M155.836 1.99079L156.1 5.09954L155.734 5.13076L155.714 4.90358L155.017 4.96297L155.036 5.19414L154.67 5.22536L154.405 2.11262L155.836 1.99079ZM154.987 4.60826L155.684 4.54886L155.499 2.37673L154.802 2.43612L154.987 4.60826ZM153.014 2.70875C152.94 2.91583 152.852 3.10799 152.754 3.28489L152.405 3.10182C152.629 2.70546 152.778 2.2873 152.849 1.8477L153.23 1.89551C153.203 2.05035 153.167 2.19392 153.131 2.3335L154.219 2.24085L154.25 2.60354L153.708 2.64969C153.721 2.89748 153.729 3.12966 153.723 3.34293L154.344 3.28999L154.375 3.65268L153.702 3.71003C153.693 3.79907 153.681 3.88845 153.672 3.96952C153.936 4.19592 154.206 4.44989 154.487 4.73107L154.286 5.10148C154.009 4.7718 153.778 4.51444 153.594 4.32941C153.462 4.76215 153.209 5.14097 152.827 5.46254L152.554 5.18068C152.943 4.8385 153.182 4.44077 153.275 3.98319C153.285 3.90611 153.298 3.8247 153.307 3.74363L152.522 3.81049L152.491 3.4478L153.332 3.37619C153.338 3.16292 153.33 2.93074 153.317 2.68295L153.014 2.70875Z" fill="white"/>
<path d="M156.379 1.52137L157.376 3.30493L156.724 5.24141L156.392 5.12757L156.994 3.34039L156.074 1.6943L156.379 1.52137ZM157.06 1.45821L158.057 3.24178L157.405 5.17825L157.073 5.06441L157.675 3.27723L156.739 1.63262L157.06 1.45821Z" fill="white"/>
</svg>
