<svg width="158" height="30" viewBox="0 0 158 30" fill="none" xmlns="http://www.w3.org/2000/svg">
<path d="M3.73453 21.5823L4.076 21.7128L3.36538 23.4665L4.19752 25.1587L3.88352 25.3153L2.98168 23.4818L3.73453 21.5823ZM4.41799 21.555L4.74347 21.6861L4.04883 23.4392L4.88098 25.1314L4.56698 25.288L3.66514 23.4545L4.41799 21.555Z" fill="white"/>
<path d="M6.09375 21.5471C6.25088 21.7431 6.40453 21.9592 6.5507 22.1955L6.306 22.3259L7.13372 22.3044C7.27176 22.0728 7.39267 21.7975 7.49655 21.4827L7.87102 21.5731C7.78989 21.8393 7.68404 22.0781 7.56157 22.2933L8.32132 22.2736L8.33085 22.6415L7.02729 22.6753L7.0305 22.7993C7.02748 22.9914 7.01205 23.1679 6.98831 23.3325L8.57977 23.2913L8.58931 23.6592L7.18978 23.6954C7.39825 24.1742 7.90793 24.5411 8.71891 24.8002L8.50432 25.1659C7.65569 24.8437 7.11205 24.4017 6.86551 23.8439C6.79841 24.0337 6.71479 24.2039 6.61456 24.3506C6.35198 24.7175 5.91528 25.0049 5.30446 25.2128L5.08793 24.8863C5.69854 24.6704 6.10787 24.4077 6.31992 24.0981C6.39289 23.9802 6.45355 23.8506 6.50201 23.7133L5.13447 23.7487L5.12493 23.3808L6.59644 23.3427C6.62407 23.1739 6.64351 22.9974 6.64663 22.8092L6.64342 22.6852L5.33586 22.7191L5.32632 22.3513L6.18204 22.3291C6.04407 22.1006 5.89883 21.9003 5.75022 21.7241L6.09375 21.5471Z" fill="white"/>
<path d="M9.45406 21.5818L12.4818 21.5448L12.4864 21.9167L11.2105 21.9323L11.2224 22.9083L12.7783 22.8892L12.7829 23.2692L11.227 23.2882L11.2437 24.6521C11.2471 24.9321 11.1009 25.0779 10.8089 25.0815L10.173 25.0892L10.0885 24.7222C10.2926 24.7318 10.4887 24.7374 10.6727 24.7351C10.8007 24.7335 10.8639 24.6728 10.8626 24.5608L10.8471 23.2929L9.22319 23.3127L9.21855 22.9327L10.8424 22.9129L10.8305 21.937L9.4586 21.9537L9.45406 21.5818Z" fill="white"/>
<path d="M13.8427 23.1773L13.8424 24.2413C14.1704 24.1693 14.5184 24.0854 14.8785 23.9815L14.9784 24.3295C14.4863 24.4654 13.9823 24.5813 13.4703 24.6812L13.3184 24.3651C13.4144 24.3131 13.4624 24.2372 13.4624 24.1372L13.463 21.7092C13.963 21.6293 14.4191 21.5254 14.8311 21.3935L15.067 21.6976C14.711 21.8135 14.303 21.9134 13.8429 22.0013L13.8427 22.8133L14.9467 22.8135L14.9467 23.1775L13.8427 23.1773ZM16.3223 24.5619L15.9463 24.5618L15.8424 24.1937L16.1984 24.2018C16.3024 24.2019 16.3544 24.1419 16.3544 24.0299L16.355 21.9579L15.567 21.9577L15.5662 25.1017L15.1822 25.1016L15.183 21.5976L16.739 21.598L16.7384 24.11C16.7384 24.41 16.5983 24.5619 16.3223 24.5619Z" fill="white"/>
<path d="M17.4228 22.6934L17.7521 21.5291L18.1314 21.5974L17.9149 22.335L18.5069 22.3417C18.5863 22.0466 18.6498 21.7353 18.7016 21.4079L19.089 21.4603C19.0374 21.7757 18.974 22.071 18.9029 22.3462L20.7348 22.3671L20.7306 22.7311L18.8027 22.7091C18.7612 22.8406 18.7158 22.9641 18.6745 23.0837L20.2743 23.1019L20.2707 23.4219C20.163 23.7487 19.9636 24.0424 19.6646 24.303C19.9667 24.4745 20.3329 24.6347 20.7592 24.7836L20.5591 25.1413C20.0772 24.9598 19.6714 24.7592 19.3458 24.5474C19.0273 24.7638 18.6371 24.9594 18.175 25.1341L17.9792 24.7719C18.3808 24.6324 18.7266 24.4764 19.0125 24.3076C18.7549 24.0967 18.5615 23.8704 18.4362 23.633C18.1414 24.2217 17.7721 24.6895 17.3321 25.0365L17.1401 24.6823C17.6977 24.2006 18.1172 23.5414 18.3988 22.7045L17.4228 22.6934ZM18.7145 23.4282C18.8438 23.6656 19.0493 23.888 19.331 24.0912C19.5853 23.8901 19.7718 23.6722 19.8864 23.4415L18.7145 23.4282ZM19.7614 21.424C20.0351 21.6351 20.2646 21.8497 20.4502 22.0639L20.1751 22.3327C20.0175 22.1229 19.796 21.9044 19.5026 21.673L19.7614 21.424Z" fill="white"/>
<path d="M23.0747 21.4412C23.1359 21.5745 23.1967 21.7238 23.2571 21.8932L24.6928 21.9235L24.685 22.2915L21.7537 22.2294L21.7358 23.0732C21.7052 23.9528 21.5623 24.6539 21.3031 25.1805L20.9892 24.8898C21.2065 24.4543 21.3274 23.8447 21.3519 23.0651L21.3776 21.8534L22.8372 21.8843C22.7801 21.747 22.7189 21.6177 22.6492 21.5042L23.0747 21.4412Z" fill="white"/>
<path d="M25.4184 21.9977L26.4019 22.0271C26.4746 21.8732 26.5434 21.7112 26.6124 21.5452L26.9898 21.6405C26.9296 21.7788 26.8736 21.9132 26.8138 22.0394L28.8049 22.099L28.7939 22.4668L26.6308 22.4021C26.4527 22.737 26.2559 23.0312 26.0482 23.2851L26.9838 23.3131L27.0001 22.7653L27.38 22.7767L27.3636 23.3244L28.599 23.3614L28.5884 23.7172L27.353 23.6803L27.317 24.8837C27.309 25.1516 27.165 25.2834 26.8851 25.275L26.4693 25.2626L26.3964 24.8882C26.5239 24.908 26.6476 24.9197 26.7636 24.9232C26.8755 24.9266 26.937 24.8764 26.9399 24.7804L26.9731 23.6689L25.6377 23.629L25.5599 23.2865C25.791 23.0533 26.0121 22.7518 26.215 22.3897L25.4074 22.3655L25.4184 21.9977ZM26.1857 23.9055L26.4427 24.1453C26.1763 24.4895 25.8471 24.7918 25.4632 25.0484L25.2288 24.7253C25.6038 24.4964 25.9241 24.2218 26.1857 23.9055ZM28.0013 23.9478C28.344 24.2621 28.6349 24.571 28.8657 24.882L28.5816 25.1496C28.3824 24.8516 28.1039 24.5311 27.7421 24.1841L28.0013 23.9478Z" fill="white"/>
<path d="M31.0583 21.719L31.4301 21.7327L31.3924 22.752L31.0207 22.7383L31.0583 21.719ZM30.0919 23.5005C29.9147 23.53 29.7375 23.5595 29.5604 23.585L29.4172 23.2355C30.6315 23.0882 31.5701 22.8186 32.229 22.4267C32.1009 22.3179 31.9649 22.2088 31.8208 22.0994L32.0856 21.865C32.4829 22.1638 32.8201 22.4605 33.0896 22.7506L32.8159 23.0087C32.7201 22.8931 32.6123 22.777 32.4885 22.6604C32.1238 22.8911 31.6924 23.0833 31.1902 23.2409L32.6053 23.2931L32.5251 25.4637L32.1534 25.4499L32.159 25.298L30.3962 25.2329L30.3903 25.3928L30.0226 25.3793L30.0919 23.5005ZM30.4086 24.8972L32.1714 24.9623L32.1813 24.6944L30.4185 24.6294L30.4086 24.8972ZM30.4297 24.3256L32.1925 24.3906L32.2015 24.1468L30.4387 24.0817L30.4297 24.3256ZM30.4498 23.7819L32.2126 23.847L32.2219 23.5952L30.4591 23.5301L30.4498 23.7819ZM30.4223 21.9237L30.6814 22.1694C30.4348 22.4525 30.1336 22.6975 29.7778 22.9005L29.5685 22.6086C29.9039 22.4129 30.1884 22.1872 30.4223 21.9237Z" fill="white"/>
<path d="M33.076 22.8341L33.5196 22.8527L33.5622 21.8376L33.9378 21.8533L33.8953 22.8684L34.3029 22.8855L34.2875 23.2532L33.8798 23.2361L33.8292 24.4431C33.9956 24.39 34.1583 24.3287 34.3212 24.2635L34.3054 24.6392C33.9062 24.8026 33.4842 24.937 33.0316 25.0382L32.9518 24.6505C33.1209 24.6255 33.2865 24.5924 33.4484 24.5512L33.5042 23.2204L33.0606 23.2018L33.076 22.8341ZM34.4588 22.2235L35.334 22.2602C35.3027 22.1468 35.2673 22.0372 35.2313 21.9396L35.6337 21.8924C35.661 22.0057 35.6836 22.1347 35.7097 22.276L36.6009 22.3133L36.5858 22.673L34.4437 22.5832L34.4588 22.2235ZM34.3048 23.318L34.8963 23.3428C34.8359 23.1601 34.763 22.9889 34.6738 22.825L35.0228 22.7116C35.1114 22.8914 35.1864 23.1068 35.2519 23.3577L35.7595 23.379C35.8641 23.1752 35.9613 22.9591 36.0511 22.7267L36.3898 22.861C36.3094 23.0578 36.2178 23.2381 36.1232 23.3943L36.6387 23.4159L36.6235 23.7796L34.2895 23.6817L34.3048 23.318ZM36.3994 24.0624L36.3342 25.6171L35.9705 25.6018L35.9789 25.402L34.8519 25.3547L34.8435 25.5545L34.4838 25.5395L34.5491 23.9848L36.3994 24.0624ZM34.8668 24.999L35.9938 25.0463L36.0208 24.4029L34.8938 24.3556L34.8668 24.999Z" fill="white"/>
<path d="M37.1371 22.2965L38.7274 22.3688C38.692 22.2671 38.6482 22.173 38.6041 22.0869L39.0507 22.0391C39.09 22.145 39.1248 22.2587 39.159 22.3884L40.7573 22.4611L40.741 22.8207L39.9099 22.7829C40.2257 23.0575 40.4711 23.2969 40.6382 23.4967L40.3085 23.702C40.229 23.6022 40.1376 23.498 40.0384 23.3894C39.3726 23.4152 38.5155 23.4203 37.4669 23.4086L37.3977 23.0812C37.474 23.0766 37.5347 23.0634 37.5837 23.0416C37.7237 22.9558 37.889 22.8432 38.0797 22.6997L37.1207 22.6561L37.1371 22.2965ZM38.5592 22.7215C38.3558 22.8805 38.1736 23.0123 38.0131 23.1091C38.6775 23.1153 39.2583 23.1097 39.7553 23.1002C39.6786 23.0247 39.5978 22.9529 39.5172 22.8772L39.6941 22.7731L38.5592 22.7215ZM37.9858 24.5013L37.9748 24.7451L39.689 24.823L39.7001 24.5792L37.9858 24.5013ZM39.7146 24.2596L39.7264 23.9998L38.0122 23.9219L38.0004 24.1817L39.7146 24.2596ZM37.9602 25.0647L37.9312 25.7041L37.5516 25.6868L37.6473 23.581L40.1287 23.6938L40.0512 25.4C40.0392 25.6638 39.8893 25.7891 39.6096 25.7764L39.202 25.7578L39.1189 25.3857L39.5017 25.4191C39.6056 25.4238 39.6636 25.3824 39.6672 25.3025L39.6745 25.1427L37.9602 25.0647Z" fill="white"/>
<path d="M43.9495 23.232C43.9305 23.2952 43.9117 23.3544 43.8931 23.4096C43.9614 23.8293 44.0602 24.1983 44.1853 24.5166C44.3345 24.1552 44.4264 23.735 44.465 23.2563L43.9495 23.232ZM43.9953 24.896C43.8724 24.6139 43.7672 24.2966 43.6837 23.9443C43.613 24.0852 43.5427 24.218 43.4651 24.3345L43.2393 24.0275C43.4838 23.5985 43.6635 23.0143 43.7784 22.2749L44.147 22.3564C44.1143 22.539 44.0823 22.7097 44.0426 22.872L45.0575 22.9198L45.0403 23.2834L44.8086 23.2725C44.7539 23.9227 44.6079 24.4724 44.3705 24.9217C44.5546 25.2628 44.7742 25.5334 45.0372 25.73L44.8109 26.0277C44.5601 25.8276 44.348 25.5694 44.1707 25.2527C43.9692 25.5355 43.7217 25.7721 43.4326 25.9587L43.2517 25.6339C43.5568 25.448 43.8046 25.2034 43.9953 24.896ZM42.1366 24.0596L42.4901 24.1203C42.4631 24.1831 42.4403 24.2421 42.4133 24.3049L43.2284 24.3433L43.2139 24.651C43.1307 24.8873 42.9929 25.0931 42.8004 25.2682C42.9609 25.3479 43.1169 25.4353 43.265 25.5224L43.0473 25.8084C42.896 25.7052 42.7127 25.6005 42.4977 25.4902C42.2259 25.6496 41.8878 25.7698 41.4874 25.8551L41.3262 25.5351C41.6293 25.4773 41.8932 25.4017 42.1142 25.3C41.9536 25.2243 41.781 25.1481 41.6006 25.0675C41.7044 24.9042 41.7996 24.7526 41.8827 24.6043L41.4631 24.5845L41.4784 24.2609L42.0418 24.2874C42.0775 24.209 42.1092 24.1304 42.1366 24.0596ZM42.4596 25.108C42.642 24.9764 42.7774 24.8226 42.8736 24.651L42.2543 24.6218C42.193 24.731 42.128 24.8361 42.0592 24.937C42.1968 24.9915 42.3304 25.0459 42.4596 25.108ZM41.9454 22.2526C42.0262 22.4086 42.0945 22.572 42.1542 22.751L41.8766 22.8621C41.8058 22.6665 41.726 22.4906 41.641 22.3384L41.9454 22.2526ZM43.0923 22.3027L43.354 22.4431C43.2662 22.6072 43.1584 22.7703 43.0268 22.9283L42.7695 22.78C42.9053 22.6182 43.0129 22.4591 43.0923 22.3027ZM41.5498 22.9148L42.305 22.9503L42.3396 22.2152L42.6872 22.2315L42.6526 22.9667L43.3478 22.9995L43.3322 23.3311L42.637 23.2983L42.636 23.3183C42.8436 23.4162 43.0545 23.5303 43.2688 23.6565L43.0549 23.9467C42.8857 23.7986 42.7431 23.6798 42.623 23.594L42.6019 24.0415L42.2543 24.0251L42.2861 23.3499C42.1407 23.6314 41.9091 23.8727 41.5913 24.074L41.418 23.7575C41.7052 23.6108 41.9091 23.4483 42.0376 23.2701L41.5342 23.2464L41.5498 22.9148Z" fill="white"/>
<path d="M48.926 22.909L48.8823 23.844L48.4987 23.8261L48.5256 23.2507L45.8565 23.126L45.8296 23.7014L45.446 23.6835L45.4897 22.7485L47.0161 22.8198C46.9661 22.6893 46.9157 22.5669 46.8569 22.456L47.2957 22.4044C47.3457 22.5349 47.3951 22.6773 47.4396 22.8396L48.926 22.909ZM46.0836 23.493L48.2573 23.5946L48.2408 23.9462C47.9809 24.1102 47.693 24.273 47.3733 24.4302L47.3642 24.626L48.9065 24.6981L48.8893 25.0657L47.347 24.9936L47.3119 25.7448C47.3002 25.9965 47.1623 26.1182 46.8986 26.1059L46.4071 26.083L46.3313 25.735C46.471 25.7456 46.6226 25.7567 46.7864 25.7643C46.8823 25.7688 46.9331 25.7111 46.9385 25.5952L46.9674 24.9759L45.3292 24.8994L45.3464 24.5318L46.9846 24.6083L47.001 24.2567C47.2876 24.1219 47.5131 24.0083 47.6775 23.9199L46.0672 23.8447L46.0836 23.493Z" fill="white"/>
<path d="M50.6716 24.2051L49.9284 24.1721L49.8608 25.6946C49.8566 25.7905 49.9062 25.8448 50.0141 25.8496L50.7094 25.8804C50.8293 25.8857 50.9067 25.8571 50.9373 25.7984C50.9721 25.7359 51.0021 25.6011 51.0271 25.398L51.3775 25.5336C51.3301 25.8799 51.2727 26.0896 51.1976 26.1583C51.1308 26.2194 50.9976 26.2455 50.8057 26.237L49.8347 26.1939C49.5829 26.1828 49.4644 26.0574 49.475 25.8176L49.5592 23.9195L49.3589 24.1028L49.1487 23.7852C49.5438 23.4544 49.9097 23.0582 50.2463 22.6007L50.526 22.6131C50.8614 22.9963 51.18 23.3948 51.474 23.8082L51.2147 24.057C50.8913 23.5862 50.6231 23.222 50.4022 22.9679C50.1807 23.2664 49.9358 23.5518 49.6595 23.8239L51.0581 23.8859L51.0092 24.9888C50.9955 25.2084 50.8705 25.319 50.63 25.3243C50.4742 25.3174 50.3265 25.3069 50.187 25.2927L50.1108 24.9329C50.258 24.9555 50.3855 24.9691 50.4974 24.9741C50.5893 24.9782 50.6394 24.9324 50.6433 24.8444L50.6716 24.2051ZM51.6901 22.997L52.0618 23.0135L51.9524 25.4791L51.5808 25.4626L51.6901 22.997ZM52.2351 26.3284L51.6317 26.3017L51.5599 25.9341C51.755 25.9588 51.9425 25.9751 52.1183 25.9829C52.2142 25.9872 52.2648 25.9293 52.2699 25.8135L52.4085 22.6885L52.7881 22.7054L52.6453 25.9262C52.6329 26.2059 52.4948 26.3399 52.2351 26.3284Z" fill="white"/>
<path d="M54.3574 23.299L53.7339 23.2743L53.7466 22.9545L55.0655 23.0069C55.0363 22.9377 55.0068 22.8725 54.9771 22.8153L55.3913 22.7677C55.4203 22.8449 55.4529 22.9302 55.4812 23.0234L56.8641 23.0784L56.8514 23.3981L56.2159 23.3729L56.0905 23.6081L57.0298 23.6454L57.0167 23.9731L53.5235 23.8344L53.5365 23.5066L54.4438 23.5427L54.3574 23.299ZM54.8395 23.5584L55.6948 23.5924L55.8202 23.3571L54.7531 23.3148L54.8395 23.5584ZM53.9325 24.0187L56.5944 24.1245L56.5449 25.3715L53.883 25.2658L53.9325 24.0187ZM56.1846 25.069L56.1925 24.8691L54.274 24.7929L54.2661 24.9928L56.1846 25.069ZM54.2848 24.5211L56.2033 24.5973L56.2111 24.4015L54.2926 24.3253L54.2848 24.5211ZM53.7249 25.4156L54.0896 25.5061C53.9851 25.8182 53.8464 26.085 53.6733 26.3103L53.3537 26.0934C53.5221 25.8839 53.6431 25.6606 53.7249 25.4156ZM55.7297 26.444L54.7544 26.4052C54.4467 26.393 54.3003 26.2471 54.3111 25.9753L54.3315 25.4637L54.7152 25.479L54.698 25.9106C54.694 26.0105 54.7519 26.0649 54.8758 26.0698L55.6712 26.1014C55.7431 26.1042 55.7957 26.0903 55.8248 26.0635C55.8662 26.0291 55.8983 25.9263 55.9213 25.751L56.2764 25.8812C56.2333 26.1597 56.1705 26.3294 56.0804 26.3819C56.0025 26.4268 55.8855 26.4502 55.7297 26.444ZM55.3092 25.3384C55.4627 25.5046 55.5771 25.6493 55.6561 25.7765L55.3316 25.9838C55.2449 25.8483 55.1269 25.6955 54.9774 25.5294L55.3092 25.3384ZM56.5529 25.4719C56.7624 25.7404 56.9212 25.9749 57.0295 26.1714L56.705 26.3786C56.5897 26.1579 56.4352 25.9156 56.2375 25.6515L56.5529 25.4719Z" fill="white"/>
<path d="M57.9199 22.9125L58.2877 22.9248L58.2657 23.5844L59.0213 23.6096L59.0096 23.9614L58.254 23.9362L58.2322 24.5918L58.8438 24.6122L58.7931 26.1354C59.0899 25.9972 59.3601 25.814 59.608 25.5822C59.5647 25.4406 59.5297 25.2874 59.4952 25.1222C59.4542 24.9127 59.422 24.6755 59.4028 24.4107L58.8799 24.4893L58.8355 24.1397L59.3824 24.0618C59.3695 23.7292 59.3698 23.361 59.3832 22.9572L59.751 22.9695C59.7419 23.3614 59.7425 23.7056 59.7525 24.0061L60.79 23.8565L60.8304 24.2061L59.7648 24.3587C59.7798 24.6274 59.8045 24.8483 59.8388 25.0215L59.8901 25.2834C60.082 25.0496 60.2589 24.7834 60.4211 24.4806L60.7103 24.6904C60.4891 25.0832 60.2539 25.4156 60.0046 25.6914C60.0336 25.7804 60.0672 25.8536 60.101 25.9188C60.1991 26.0981 60.276 26.1927 60.332 26.1946C60.396 26.1967 60.4662 26.011 60.5425 25.6413L60.8448 25.8195C60.7267 26.3598 60.5697 26.6267 60.3779 26.6204C60.2179 26.615 60.058 26.4896 59.8981 26.2442C59.8369 26.1581 59.7842 26.0603 59.7396 25.9548C59.4551 26.2054 59.1569 26.3876 58.845 26.5013L58.6388 26.2023C58.6471 26.1945 58.6592 26.1909 58.6672 26.1912L57.6517 26.1574L57.6426 26.4332L57.2788 26.4211L57.3407 24.5622L57.8644 24.5796L57.9199 22.9125ZM57.6633 25.8096L58.4429 25.8355L58.4723 24.952L57.6927 24.9261L57.6633 25.8096ZM60.1921 23.0642C60.3772 23.2745 60.5232 23.4554 60.6221 23.6108L60.3359 23.7934C60.2335 23.6219 60.0918 23.4331 59.9146 23.2231L60.1921 23.0642Z" fill="white"/>
<path d="M64.7995 25.2435L64.7626 26.7591L64.3907 26.75L64.3944 26.598L63.5306 26.577L63.5269 26.7289L63.155 26.7199L63.1919 25.2083C63.1435 25.2231 63.0951 25.242 63.0546 25.261L62.9152 25.0695L62.8829 26.3931L62.559 26.3852L62.5628 26.2293L61.831 26.2114L61.8272 26.3674L61.4873 26.3591L61.5626 23.276L62.9581 23.31L62.9408 24.0218C63.1866 23.7878 63.4023 23.4729 63.588 23.0773L63.962 23.1625C63.9198 23.2535 63.8777 23.3405 63.8356 23.4235L64.8833 23.449L64.8762 23.7409C64.7408 24.0417 64.5504 24.3052 64.3047 24.5352C64.5367 24.701 64.8092 24.8476 65.1223 24.9713L64.95 25.3072C64.594 25.1385 64.2904 24.955 64.0393 24.7528C63.795 24.9269 63.5152 25.0762 63.2 25.2045L64.7995 25.2435ZM62.9382 24.1258L62.9187 24.9256C63.2418 24.8054 63.5213 24.6642 63.7573 24.5019C63.6207 24.3625 63.5042 24.2156 63.4118 24.0693C63.3211 24.1791 63.2306 24.277 63.1324 24.3666L62.9382 24.1258ZM63.5393 26.2211L64.4031 26.2422L64.4191 25.5863L63.5553 25.5653L63.5393 26.2211ZM62.5709 25.8974L62.5948 24.9177L62.3789 24.9124L62.355 25.8921L62.5709 25.8974ZM62.6029 24.5858L62.6259 23.646L62.4099 23.6408L62.387 24.5805L62.6029 24.5858ZM62.106 23.6334L61.8941 23.6282L61.8711 24.5679L62.0831 24.5731L62.106 23.6334ZM61.863 24.8998L61.8391 25.8795L62.0511 25.8847L62.075 24.905L61.863 24.8998ZM64.0103 24.3C64.1862 24.1442 64.3263 23.9756 64.4348 23.7942L63.627 23.7745C63.6188 23.7823 63.6145 23.7942 63.6103 23.8021C63.714 23.9807 63.846 24.1479 64.0103 24.3Z" fill="white"/>
<path d="M65.3119 23.8913L65.6075 23.9154C65.594 24.3153 65.5446 24.6986 65.4636 25.0576L65.1569 24.9653C65.2416 24.6264 65.2946 24.2671 65.3119 23.8913ZM66.4011 23.8105C66.4668 23.9754 66.5283 24.1563 66.5815 24.3571C66.6897 24.0545 66.7582 23.7315 66.779 23.3917L67.1263 23.4446C67.1163 23.5884 67.1023 23.7283 67.0844 23.864L67.5564 23.8706L67.5663 23.1547L67.9503 23.16L67.9403 23.876L68.7802 23.8877L68.7752 24.2516L67.9353 24.2399L67.9229 25.1278L68.7188 25.1389L68.7136 25.5109L67.9177 25.4998L67.9058 26.3557L68.8497 26.3689L68.8445 26.7368L66.4048 26.7028L66.4099 26.3349L67.5218 26.3504L67.5337 25.4945L66.6378 25.482L66.643 25.11L67.5389 25.1225L67.5513 24.2346L67.0073 24.227C66.9315 24.502 66.8279 24.7565 66.6886 24.9946L66.4121 24.7427C66.445 24.6792 66.4738 24.6196 66.4986 24.5639L66.326 24.6055C66.2735 24.3568 66.2088 24.1198 66.1239 23.8946L66.4011 23.8105ZM65.7426 23.1253L66.1225 23.1306L66.0715 26.7942L65.6915 26.7889L65.7426 23.1253Z" fill="white"/>
<path d="M72.8062 23.1972L72.9899 23.5334C72.6458 23.6531 72.2658 23.7248 71.8497 23.7524L71.8492 24.4004L73.0852 24.4015L73.0849 24.7655L72.7009 24.7651L72.699 26.8611L72.327 26.8608L72.3289 24.7648L71.8489 24.7644L71.8485 25.1684C71.8279 25.8724 71.6714 26.4323 71.379 26.852L71.1113 26.5638C71.3396 26.228 71.464 25.7641 71.4805 25.1681L71.482 23.4401C71.974 23.4325 72.4141 23.3489 72.8062 23.1972ZM69.466 23.4783L70.178 23.479C70.1301 23.3749 70.0741 23.2749 70.0142 23.1828L70.4063 23.1192C70.4542 23.2272 70.5061 23.3472 70.554 23.4793L71.294 23.4799L71.2937 23.8319L69.4657 23.8303L69.466 23.4783ZM69.4252 24.3863L69.8492 24.3867C69.7973 24.2466 69.7374 24.1146 69.6695 23.9945L70.0016 23.8708C70.0655 24.0149 70.1294 24.1869 70.1852 24.387L70.5652 24.3873C70.6293 24.2193 70.6855 24.0474 70.7336 23.8674L71.0735 23.9877C71.0254 24.1357 70.9693 24.2676 70.9092 24.3876L71.3172 24.3879L71.3169 24.7359L70.5769 24.7353L70.5766 25.0953L71.2486 25.0959L71.2483 25.4399L70.5763 25.4393L70.5753 26.5113C70.5751 26.7513 70.443 26.8712 70.179 26.871L69.971 26.8708L69.8873 26.5187C69.9473 26.5348 70.0033 26.5428 70.0553 26.5429C70.1513 26.5429 70.1993 26.503 70.1994 26.423L70.2003 25.439L69.4883 25.4384L69.4886 25.0944L70.2006 25.095L70.2009 24.735L69.4249 24.7343L69.4252 24.3863ZM69.7281 25.6146L70.0721 25.6869C69.9757 26.0908 69.8434 26.4427 69.6671 26.7425L69.3553 26.5422C69.5316 26.2544 69.6558 25.9425 69.7281 25.6146ZM70.9801 25.5877C71.0839 25.8437 71.1677 26.0758 71.2275 26.2839L70.9074 26.4036C70.8436 26.1555 70.7639 25.9115 70.6681 25.6714L70.9801 25.5877Z" fill="white"/>
<path d="M73.2106 24.9419L75.4304 24.912C75.7111 24.3722 75.9432 23.781 76.1306 23.1384L76.5084 23.2733C76.2933 23.9323 76.0646 24.4754 75.8303 24.9066L76.8583 24.8927L76.8632 25.2607L73.2155 25.3099L73.2106 24.9419ZM73.7779 23.4021C73.9786 23.7514 74.1678 24.1369 74.3495 24.5585L73.9919 24.7393C73.8181 24.3056 73.6288 23.9162 73.4242 23.5749L73.7779 23.4021ZM74.7386 23.1491C74.9356 23.5225 75.1212 23.9321 75.2992 24.3777L74.9496 24.5584C74.7714 24.1048 74.5819 23.6913 74.3809 23.326L74.7386 23.1491ZM74.2815 25.4515L74.6278 25.6149C74.362 26.0785 74.0474 26.4788 73.6799 26.8197L73.3609 26.6C73.7206 26.2751 74.0275 25.895 74.2815 25.4515ZM75.8211 25.4068C76.2269 25.8373 76.536 26.2092 76.7562 26.5263L76.4155 26.7709C76.1908 26.4219 75.8856 26.038 75.4999 25.6151L75.8211 25.4068Z" fill="white"/>
<path d="M78.8566 23.0131C78.9164 23.1393 78.9726 23.2817 79.0334 23.44L80.4207 23.3989L80.4314 23.7588L79.7597 23.7787C79.725 23.9598 79.6743 24.1373 79.6073 24.3074L80.5309 24.28L80.5418 24.6479L77.703 24.732L77.719 25.2717C77.7215 25.8959 77.5965 26.4038 77.3358 26.7917L77.0364 26.5445C77.2433 26.2342 77.3429 25.8151 77.3352 25.2831L77.3083 24.3755L78.1159 24.3516L77.9605 23.8319L77.2488 23.853L77.2381 23.4932L78.6455 23.4515C78.5896 23.3211 78.526 23.1989 78.4587 23.0889L78.8566 23.0131ZM78.4918 24.3404L79.2434 24.3182C79.3104 24.1481 79.3612 23.9705 79.3959 23.7894L78.3323 23.8209L78.4918 24.3404Z" fill="white"/>
<path d="M82.4955 22.9607L82.8749 22.9392L83.0529 26.0781L83.5322 26.051L83.3541 22.912L83.7335 22.8905L83.9115 26.0294L85.0777 25.9633L85.0987 26.3347L81.5365 26.5368L81.5154 26.1654L82.6735 26.0997L82.4955 22.9607ZM84.5224 23.5909L84.8633 23.6677C84.7505 24.3633 84.5888 24.9734 84.3784 25.5022L84.0322 25.4016C84.2295 24.9257 84.3955 24.3193 84.5224 23.5909ZM81.7824 23.7383C82.0164 24.2619 82.2308 24.8628 82.4295 25.5406L82.087 25.6482C81.9157 25.0289 81.7055 24.4318 81.4648 23.8605L81.7824 23.7383Z" fill="white"/>
<path d="M86.7785 25.3732L85.6609 25.4925L85.6239 25.1464L87.1751 24.9808L87.1581 24.8217L87.532 24.7818L87.549 24.9409L89.0763 24.7779L89.1132 25.1239L88.0234 25.2403C88.308 25.4191 88.7037 25.5458 89.2145 25.62L89.0871 25.9715C88.4317 25.8242 87.9486 25.5942 87.6376 25.2814L87.5859 25.287L87.6861 26.2256L87.3123 26.2655L87.212 25.3269L87.1603 25.3324C86.9446 25.6853 86.5257 26.0196 85.9068 26.3271L85.6736 26.0261C86.1975 25.8093 86.5682 25.5887 86.7785 25.3732ZM85.8466 23.8032C85.7764 23.8992 85.6982 23.9961 85.6161 24.0933L85.3668 23.8303C85.6686 23.4924 85.8805 23.1037 86.0034 22.6722L86.3659 22.7139C86.3403 22.8132 86.3107 22.9129 86.2763 23.0051L87.04 22.9236C86.9764 22.8177 86.9096 22.7202 86.8398 22.6312L87.2188 22.5263C87.2824 22.6322 87.3473 22.75 87.4138 22.8836L88.6667 22.7499L88.6998 23.0601L87.4668 23.1918L87.4885 23.3946L88.5624 23.28L88.593 23.5663L87.5191 23.681L87.5399 23.8759L88.6138 23.7612L88.6443 24.0476L87.5704 24.1622L87.5929 24.373L88.9015 24.2334L88.9351 24.5476L85.96 24.8652L85.8466 23.8032ZM87.223 24.4125L87.2005 24.2017L86.2539 24.3028L86.2764 24.5136L87.223 24.4125ZM87.17 23.9154L87.1492 23.7205L86.2025 23.8215L86.2233 24.0164L87.17 23.9154ZM87.1186 23.4341L87.0969 23.2313L86.1503 23.3323L86.172 23.5352L87.1186 23.4341Z" fill="white"/>
<path d="M90.9422 23.9726L90.1319 24.0979C90.1201 24.2049 90.1043 24.3126 90.0874 24.4124L91.0954 24.2566L91.3209 25.7152L90.9888 25.7666L90.9558 25.5531L90.4261 25.635L90.4603 25.8563L90.1283 25.9077L89.9682 24.872C89.9008 25.0645 89.8139 25.2358 89.7122 25.3892L89.4663 25.1074C89.6336 24.8549 89.7426 24.5385 89.7879 24.151L89.5152 24.1932L89.4657 23.873L89.8135 23.8192C89.8144 23.6936 89.8146 23.5641 89.8108 23.4351L89.3128 23.5121L89.2614 23.1801L89.7872 23.0988C89.7755 22.9711 89.7606 22.8479 89.745 22.7208L89.322 22.7862L89.2725 22.466L90.6758 22.2491L90.7834 22.9448L90.981 22.9143L91.0323 23.2463L90.8347 23.2769L90.9422 23.9726ZM90.0849 22.6683C90.1005 22.7954 90.1161 22.9225 90.1272 23.0463L90.4434 22.9974L90.3853 22.6218L90.0849 22.6683ZM90.1508 23.3826C90.1552 23.5155 90.1549 23.645 90.1535 23.7667L90.5528 23.705L90.4947 23.3294L90.1508 23.3826ZM90.3754 25.3069L90.9051 25.225L90.8159 24.6479L90.2862 24.7297L90.3754 25.3069ZM91.7831 23.0493L91.1071 23.1538L91.0515 22.7941L91.4586 22.7312C91.3353 22.5357 91.2072 22.3612 91.0781 22.2071L91.3712 22.008C91.5099 22.1728 91.6485 22.3618 91.7855 22.5673L91.5772 22.7128L91.9567 22.6542C92.0308 22.3999 92.0871 22.1362 92.1253 21.8591L92.496 21.9273C92.453 22.1727 92.4024 22.3951 92.3402 22.5949L92.7197 22.5363L92.7753 22.896L92.1507 22.9925L92.2252 23.4748L92.7668 23.3911L92.8206 23.739L92.279 23.8227L92.3542 24.3089L93.0657 24.1989L93.1219 24.5626L92.4104 24.6726L92.5466 25.5541L92.179 25.6109L92.0427 24.7294L91.3391 24.8382L91.2829 24.4745L91.9865 24.3657L91.9114 23.8795L91.3303 23.9693L91.2765 23.6214L91.8576 23.5316L91.7831 23.0493Z" fill="white"/>
<path d="M94.2701 21.7196L96.1845 21.3379L96.2572 21.7027L94.3429 22.0844L94.2701 21.7196ZM94.3676 22.7198L96.5487 22.2849L96.6214 22.6498L96.0095 22.7718L96.3411 24.435C96.3912 24.6861 96.275 24.8398 95.9965 24.8953L95.4277 25.0087L95.2725 24.6603C95.4561 24.64 95.6342 24.6127 95.799 24.5798C95.9127 24.5572 95.963 24.5023 95.9465 24.4199L95.6329 22.8469L94.4404 23.0846L94.3676 22.7198ZM93.565 21.6603L93.9375 21.7492C93.8117 22.2229 93.5353 22.6778 93.102 23.1231L92.914 22.7731C93.2405 22.4266 93.4565 22.0572 93.565 21.6603ZM93.9284 22.5219L94.2971 22.6115C94.2334 22.8445 94.1399 23.0711 94.0166 23.2915L94.403 25.2293L94.0382 25.3021L93.7246 23.7291C93.6076 23.8788 93.482 24.0262 93.3399 24.1728L93.1565 23.826C93.5412 23.423 93.8011 22.9878 93.9284 22.5219Z" fill="white"/>
<path d="M96.8816 21.214L98.3278 20.8636L98.4135 21.2174L96.9673 21.5678L96.8816 21.214ZM96.9921 22.2985L98.7221 21.8793L98.8087 22.237L97.934 22.4489C97.9231 23.0154 97.8968 23.4333 97.856 23.7066C98.0994 23.59 98.341 23.4492 98.5779 23.2889C98.4424 23.1201 98.3096 22.9629 98.1797 22.8174L98.454 22.5904C98.7119 22.8737 98.9706 23.1938 99.229 23.5468L98.9498 23.7873L98.7884 23.563C98.4141 23.8019 98.0022 24.0211 97.5486 24.2215L97.3744 23.8933C97.4114 23.8761 97.4319 23.8588 97.4446 23.8434C97.5129 23.6663 97.5558 23.232 97.5764 22.5356L97.0788 22.6561L96.9921 22.2985ZM98.9409 20.4722L99.3063 20.3837L99.489 21.1379L100.329 20.9344C100.636 22.2017 100.806 22.9878 100.842 23.2918C100.871 23.5976 100.709 23.7933 100.355 23.879C100.293 23.8941 100.182 23.9127 100.025 23.9426L99.8599 23.6368C100.003 23.6145 100.125 23.5931 100.226 23.5686C100.397 23.5272 100.472 23.4103 100.458 23.2162C100.437 23.0278 100.301 22.4147 100.058 21.3787L99.5757 21.4955L99.5842 21.5305C99.8438 22.6529 99.7733 23.5343 99.3699 24.1794L99.0346 24.0014C99.3938 23.4287 99.4568 22.6356 99.2187 21.619L99.2103 21.584L98.7165 21.7037L98.6299 21.346L99.1236 21.2264L98.9409 20.4722Z" fill="white"/>
<path d="M102.012 20.8684L103.021 20.5856L102.705 19.4571L103.082 19.3513L103.399 20.4799L104.354 20.2122L104.455 20.5743L103.5 20.8419L104.082 22.918L103.704 23.0237L103.123 20.9477L102.113 21.2305L102.012 20.8684ZM101.004 19.971C101.308 20.0896 101.572 20.2189 101.8 20.3629L101.621 20.6873C101.416 20.5495 101.15 20.4162 100.82 20.2926L101.004 19.971ZM100.809 21.2304L101.699 20.9811L102.159 22.6219C102.254 22.4872 102.348 22.3361 102.448 22.1712L102.649 22.5178C102.467 22.818 102.259 23.1004 102.029 23.3603L101.799 23.0717C101.849 22.9995 101.865 22.9243 101.844 22.8472L101.447 21.4298L100.907 21.5809L100.809 21.2304Z" fill="white"/>
<path d="M106.642 18.6443L106.993 18.5345L107.73 20.8941L107.379 21.0038L106.642 18.6443ZM108.353 21.5752L107.804 21.7469L107.611 21.4257C107.795 21.3849 107.966 21.3401 108.126 21.29C108.233 21.2566 108.274 21.1852 108.241 21.0822L107.305 18.085L107.664 17.9729L108.629 21.0617C108.71 21.3213 108.617 21.4929 108.353 21.5752ZM106.458 19.2379L106.625 19.5713L105.6 20.0718C105.669 20.2389 105.741 20.3883 105.815 20.52C105.891 20.6555 105.963 20.7796 106.039 20.886C106.163 20.5873 106.249 20.2587 106.293 19.9015L106.661 19.9667C106.601 20.4463 106.483 20.873 106.301 21.244C106.348 21.3006 106.393 21.3495 106.44 21.3934C106.639 21.5743 106.796 21.6468 106.904 21.6173C106.962 21.5867 106.965 21.3844 106.919 21.009L107.287 21.1121C107.29 21.3247 107.281 21.508 107.254 21.6631C107.22 21.8497 107.151 21.9635 107.044 21.9969C106.86 22.0542 106.642 21.9842 106.386 21.7959C106.293 21.7284 106.206 21.6508 106.124 21.5633C105.955 21.8257 105.751 22.0572 105.512 22.2576L105.193 22.001C105.46 21.7834 105.684 21.5334 105.857 21.2444C105.765 21.1225 105.675 20.9955 105.589 20.8547C105.48 20.6793 105.373 20.4736 105.265 20.235L104.822 20.4531L104.659 20.1185L105.116 19.8919C104.994 19.5948 104.871 19.2559 104.753 18.8779L105.12 18.7634C105.232 19.1223 105.341 19.4445 105.455 19.7275L106.458 19.2379ZM105.622 18.5857C105.812 18.7108 106.004 18.8561 106.193 19.0191L105.935 19.2672C105.747 19.0954 105.559 18.9489 105.369 18.8238L105.622 18.5857Z" fill="white"/>
<path d="M108.826 17.5416L109.164 17.4291C109.09 17.7403 109.056 18.0426 109.061 18.336C109.056 18.7003 109.112 19.0482 109.222 19.3784C109.331 19.7048 109.494 20.0173 109.718 20.3095C109.889 20.5436 110.097 20.7651 110.344 20.9739L110.006 21.0863C109.744 20.8952 109.522 20.6826 109.338 20.4486C109.113 20.1651 108.946 19.8539 108.833 19.5123C108.718 19.167 108.664 18.814 108.675 18.4561C108.679 18.1512 108.73 17.8477 108.826 17.5416Z" fill="white"/>
<path d="M111.018 17.2192C111.275 17.1303 111.515 17.1276 111.734 17.2212C111.949 17.3162 112.098 17.4802 112.181 17.7184C112.262 17.9528 112.244 18.1958 112.137 18.4488C112.069 18.595 111.934 18.8027 111.728 19.077C111.504 19.3705 111.389 19.6008 111.383 19.7678L112.732 19.301L112.858 19.6639L110.998 20.3073C110.905 20.0389 110.911 19.7744 111.022 19.5075C111.08 19.3563 111.228 19.1232 111.461 18.8055C111.598 18.6143 111.691 18.4677 111.739 18.3622C111.813 18.1843 111.826 18.0146 111.771 17.8558C111.719 17.7046 111.638 17.6056 111.529 17.5588C111.419 17.5119 111.282 17.5173 111.123 17.5722C110.953 17.631 110.844 17.7322 110.797 17.8795C110.746 18.0243 110.757 18.2025 110.825 18.4244L110.413 18.5669C110.312 18.2632 110.315 17.9912 110.423 17.7509C110.529 17.4942 110.73 17.3186 111.018 17.2192Z" fill="white"/>
<path d="M114 16.1712C114.316 16.0576 114.608 16.1015 114.878 16.3065C115.125 16.4982 115.323 16.8011 115.473 17.2189C115.622 17.633 115.663 17.9964 115.594 18.3017C115.516 18.6274 115.32 18.8508 115.004 18.9644C114.687 19.078 114.394 19.0304 114.126 18.8291C113.879 18.6375 113.681 18.3346 113.531 17.9167C113.379 17.4951 113.339 17.1354 113.409 16.8339C113.487 16.5045 113.684 16.2848 114 16.1712ZM114.125 16.5175C113.902 16.5973 113.791 16.7732 113.789 17.0504C113.781 17.2404 113.833 17.4808 113.937 17.7707C114.04 18.0568 114.153 18.2756 114.281 18.4206C114.458 18.6291 114.657 18.6979 114.879 18.6181C115.097 18.5397 115.211 18.3586 115.215 18.0853C115.218 17.8929 115.169 17.6511 115.066 17.365C114.962 17.0751 114.846 16.8576 114.722 16.715C114.544 16.5028 114.343 16.4391 114.125 16.5175Z" fill="white"/>
<path d="M116.76 15.1695C117.015 15.0755 117.255 15.0681 117.476 15.1575C117.693 15.2483 117.846 15.4094 117.933 15.6459C118.018 15.8786 118.005 16.122 117.903 16.377C117.838 16.5245 117.707 16.7349 117.506 17.0131C117.288 17.3109 117.177 17.5434 117.175 17.7105L118.515 17.2174L118.648 17.5778L116.801 18.2573C116.703 17.9908 116.703 17.7263 116.809 17.4573C116.864 17.305 117.007 17.069 117.234 16.7469C117.367 16.553 117.457 16.4046 117.503 16.2982C117.574 16.1188 117.584 15.949 117.526 15.7913C117.471 15.6411 117.388 15.5437 117.278 15.499C117.167 15.4543 117.03 15.4623 116.872 15.5204C116.703 15.5825 116.596 15.6858 116.553 15.8339C116.504 15.9797 116.518 16.1577 116.591 16.3782L116.182 16.5287C116.075 16.227 116.073 15.955 116.176 15.7126C116.276 15.4539 116.475 15.2744 116.76 15.1695Z" fill="white"/>
<path d="M119.134 14.3515L119.441 14.2371L120.437 16.9138L120.029 17.0659L119.215 14.8803C119.111 15.094 118.947 15.2832 118.726 15.4465L118.576 15.0416C118.684 14.967 118.789 14.8685 118.896 14.7433C119 14.6106 119.08 14.4825 119.134 14.3515Z" fill="white"/>
<path d="M120.558 15.1449L124.305 13.7439L124.428 14.0736L120.681 15.4746L120.558 15.1449Z" fill="white"/>
<path d="M125.187 12.0323C125.442 11.9376 125.683 11.9295 125.903 12.0182C126.12 12.1083 126.274 12.2689 126.362 12.5052C126.448 12.7377 126.436 12.9811 126.334 13.2364C126.27 13.3841 126.139 13.5948 125.939 13.8737C125.722 14.1721 125.612 14.4049 125.61 14.572L126.949 14.075L127.082 14.435L125.237 15.12C125.139 14.8538 125.138 14.5892 125.243 14.3199C125.298 14.1675 125.44 13.931 125.666 13.6083C125.799 13.4139 125.889 13.2654 125.934 13.1588C126.004 12.9792 126.014 12.8093 125.955 12.6518C125.899 12.5018 125.816 12.4046 125.706 12.3603C125.596 12.3159 125.458 12.3243 125.301 12.3828C125.132 12.4455 125.025 12.5491 124.982 12.6973C124.934 12.8432 124.949 13.0212 125.022 13.2415L124.613 13.3932C124.506 13.0919 124.503 12.8198 124.605 12.5772C124.705 12.3182 124.903 12.1381 125.187 12.0323Z" fill="white"/>
<path d="M128.081 10.9643C128.397 10.8491 128.689 10.8914 128.959 11.095C129.207 11.2854 129.407 11.5872 129.559 12.0043C129.71 12.4176 129.754 12.7808 129.686 13.0864C129.61 13.4125 129.415 13.637 129.099 13.7522C128.784 13.8675 128.49 13.8214 128.221 13.6215C127.973 13.4312 127.773 13.1294 127.621 12.7123C127.467 12.2915 127.425 11.932 127.494 11.6302C127.569 11.3003 127.765 11.0796 128.081 10.9643ZM128.207 11.31C127.986 11.391 127.875 11.5675 127.874 11.8446C127.867 12.0346 127.921 12.2748 128.026 12.5641C128.131 12.8497 128.245 13.0679 128.374 13.2123C128.552 13.4198 128.751 13.4875 128.973 13.4066C129.191 13.327 129.303 13.1454 129.306 12.872C129.308 12.6796 129.258 12.438 129.154 12.1525C129.048 11.8631 128.93 11.6463 128.806 11.5043C128.627 11.293 128.425 11.2304 128.207 11.31Z" fill="white"/>
<path d="M130.78 9.98655C131.036 9.89522 131.277 9.89026 131.496 9.98188C131.712 10.0748 131.863 10.2375 131.948 10.4748C132.031 10.7084 132.016 10.9517 131.911 11.2056C131.845 11.3525 131.711 11.5614 131.508 11.8377C131.286 12.1332 131.174 12.3646 131.169 12.5316L132.514 12.0522L132.643 12.4139L130.79 13.0747C130.694 12.8072 130.698 12.5427 130.806 12.2747C130.862 12.123 131.008 11.8885 131.238 11.5687C131.373 11.3761 131.465 11.2287 131.512 11.1227C131.584 10.9441 131.596 10.7743 131.54 10.6161C131.486 10.4654 131.404 10.3671 131.295 10.3213C131.185 10.2755 131.047 10.2822 130.889 10.3386C130.719 10.399 130.611 10.5012 130.566 10.6489C130.516 10.7941 130.529 10.9723 130.599 11.1935L130.188 11.3399C130.085 11.0371 130.085 10.7651 130.19 10.5238C130.294 10.2661 130.494 10.0886 130.78 9.98655Z" fill="white"/>
<path d="M132.719 9.35673L134.345 8.79586L134.47 9.15887L133.177 9.60496L133.366 10.4113L133.377 10.4074C133.43 10.2917 133.504 10.1986 133.601 10.123C133.685 10.0475 133.792 9.98943 133.913 9.9477C134.166 9.86031 134.403 9.87176 134.619 9.98335C134.835 10.095 134.996 10.2931 135.097 10.5843C135.193 10.8641 135.166 11.1275 135.023 11.3757C134.885 11.601 134.682 11.76 134.413 11.8526C134.171 11.9361 133.94 11.9398 133.72 11.8674C133.478 11.7902 133.303 11.6263 133.198 11.3833L133.602 11.2437C133.67 11.3898 133.77 11.4861 133.899 11.5265C134.013 11.5633 134.146 11.5556 134.297 11.5034C134.463 11.446 134.585 11.3448 134.663 11.2036C134.74 11.0586 134.75 10.9029 134.69 10.729C134.625 10.5399 134.525 10.4094 134.39 10.3374C134.255 10.2654 134.1 10.2595 133.919 10.3221C133.798 10.3638 133.702 10.4179 133.627 10.4946C133.545 10.5739 133.498 10.6705 133.479 10.7871L133.093 10.9201L132.719 9.35673Z" fill="white"/>
<path d="M136.461 8.45761C136.389 8.77601 136.263 9.06125 136.084 9.32219L135.741 9.09784C136.028 8.68818 136.158 8.2246 136.13 7.70331L136.525 7.64964C136.529 7.79133 136.53 7.92162 136.522 8.0506L138.833 7.29312L138.947 7.64281L137.78 8.02529L137.952 8.54983L138.986 8.21096L139.097 8.54925L138.063 8.88813L138.305 9.62553L139.59 9.20442L139.705 9.55792L138.421 9.97902L138.69 10.8L138.329 10.9184L138.06 10.0974L136.334 10.663L136.218 10.3095L136.815 10.1139L136.462 9.03821L137.591 8.66819L137.419 8.14365L136.461 8.45761ZM137.18 9.9943L137.944 9.74388L137.702 9.00648L136.938 9.2569L137.18 9.9943Z" fill="white"/>
<path d="M139.297 6.68377L139.637 6.57807C139.89 6.77171 140.108 6.98869 140.293 7.23283C140.507 7.51805 140.673 7.83517 140.781 8.18276C140.888 8.52652 140.93 8.87783 140.916 9.23813C140.9 9.53638 140.843 9.83887 140.746 10.1456L140.406 10.2513C140.481 9.93905 140.521 9.63749 140.527 9.34662C140.534 8.97987 140.488 8.62975 140.386 8.30126C140.283 7.96896 140.122 7.65446 139.909 7.36042C139.738 7.12036 139.534 6.89481 139.297 6.68377Z" fill="white"/>
<path d="M142.611 6.38871L143.395 9.06014L143.046 9.1626L142.987 8.96301L142.381 9.14092L142.472 9.45181L142.123 9.55428L141.306 6.77154L141.671 6.66458C141.679 6.43704 141.671 6.21018 141.636 5.97855L142.016 5.92148C142.039 6.14384 142.039 6.35648 142.02 6.56211L142.611 6.38871ZM142.282 8.80315L142.888 8.62525L142.666 7.86911L142.06 8.04701L142.282 8.80315ZM141.964 7.72076L142.571 7.54286L142.363 6.83662L141.757 7.01452L141.964 7.72076ZM143.572 7.10722C143.918 7.34764 144.194 7.56274 144.398 7.7613L144.17 8.04917C143.95 7.83864 143.668 7.61699 143.331 7.37816L143.572 7.10722ZM144.593 5.81155C144.981 7.13575 145.202 7.95893 145.254 8.27725C145.296 8.56486 145.153 8.75709 144.827 8.85279C144.75 8.87531 144.609 8.90817 144.414 8.95296L144.228 8.64492C144.399 8.60306 144.547 8.56795 144.67 8.53192C144.823 8.48688 144.888 8.38038 144.864 8.21241C144.831 8.01375 144.653 7.36554 144.34 6.26939L143.376 6.55201C143.336 6.81383 143.275 7.06096 143.186 7.29566L142.883 7.07197C143.028 6.62919 143.073 6.12832 143.009 5.57161L143.384 5.51183C143.408 5.73803 143.413 5.95339 143.407 6.15948L144.593 5.81155Z" fill="white"/>
<path d="M145.622 4.87624C145.94 5.01133 146.214 5.15772 146.446 5.31153L146.254 5.63547C146.048 5.48323 145.776 5.33195 145.435 5.18266L145.622 4.87624ZM148.765 7.74995C148.552 7.80641 148.319 7.86413 148.071 7.92597C147.819 7.98883 147.608 8.02004 147.435 8.02449C147.268 8.01916 147.108 7.9623 146.957 7.86165C146.886 7.8103 146.831 7.79169 146.785 7.80401C146.703 7.82557 146.61 8.03649 146.506 8.43679L146.168 8.25736C146.278 7.89288 146.4 7.64952 146.534 7.53114L146.244 6.43705L145.726 6.5746L145.635 6.23439L146.497 6.00548L146.885 7.46684C146.909 7.47717 146.933 7.49137 146.959 7.50943C147.075 7.5902 147.189 7.64289 147.299 7.66748C147.429 7.69081 147.608 7.68044 147.839 7.6276C148.06 7.57296 148.32 7.50805 148.622 7.42798C148.811 7.37768 149.003 7.32248 149.196 7.26729C149.388 7.2121 149.537 7.16433 149.639 7.12888L149.646 7.5159L148.765 7.74995ZM147.278 4.84631L146.532 5.04443L146.451 4.73901L148.573 4.17545L148.642 4.43447C148.469 4.68731 148.273 4.91333 148.054 5.12026C148.064 5.12594 148.073 5.12775 148.083 5.13343L148.86 4.9271L149.315 6.64362C149.376 6.87171 149.279 7.02157 149.028 7.08829L148.73 7.16734L148.572 6.88245L148.85 6.82503C148.936 6.80245 148.971 6.7476 148.948 6.66255L148.896 6.46538L148.339 6.6132L148.507 7.24723L148.171 7.33654L148.003 6.70251L147.458 6.84725L147.628 7.48901L147.28 7.5814L146.726 5.49374L147.615 5.25764C147.465 5.20646 147.298 5.15553 147.117 5.11256L147.278 4.84631ZM147.784 5.00583C147.925 4.88153 148.051 4.74871 148.163 4.61123L147.297 4.84118C147.469 4.89495 147.632 4.94692 147.784 5.00583ZM147.307 6.27895L147.378 6.54957L147.924 6.40483L147.852 6.1342L147.307 6.27895ZM148.188 6.0449L148.26 6.31552L148.817 6.1677L148.745 5.89707L148.188 6.0449ZM148.665 5.59552L148.593 5.3249L148.036 5.47272L148.108 5.74334L148.665 5.59552ZM147.772 5.83265L147.7 5.56203L147.155 5.70677L147.227 5.97739L147.772 5.83265Z" fill="white"/>
<path d="M152.429 3.52593L153.152 6.56104L152.794 6.6463L152.741 6.42451L152.06 6.58668L152.114 6.81237L151.756 6.89763L151.032 3.85863L152.429 3.52593ZM151.977 6.24037L152.658 6.07819L152.153 3.95751L151.472 4.11968L151.977 6.24037ZM149.745 4.65437C149.702 4.87025 149.643 5.07334 149.573 5.26271L149.201 5.1334C149.363 4.70832 149.449 4.27268 149.454 3.82741L149.838 3.81813C149.834 3.97526 149.82 4.12257 149.805 4.26599L150.867 4.01299L150.951 4.36709L150.422 4.49312C150.472 4.73623 150.514 4.9647 150.54 5.17649L151.147 5.03192L151.231 5.38602L150.574 5.54263C150.578 5.63195 150.579 5.72218 150.582 5.80371C150.877 5.98844 151.182 6.19947 151.502 6.43589L151.358 6.83206C151.035 6.5471 150.769 6.32679 150.559 6.17116C150.493 6.61865 150.299 7.03077 149.969 7.40546L149.657 7.16718C149.99 6.77118 150.168 6.3424 150.192 5.87601C150.19 5.79837 150.191 5.71591 150.188 5.63438L149.422 5.81694L149.337 5.46285L150.158 5.26731C150.133 5.05552 150.091 4.82705 150.041 4.58394L149.745 4.65437Z" fill="white"/>
<path d="M153.158 2.93144L154.35 4.59052L153.922 6.58841L153.579 6.51293L153.974 4.66909L152.874 3.13787L153.158 2.93144ZM153.827 2.7915L155.02 4.45058L154.591 6.44847L154.249 6.37299L154.644 4.52914L153.528 3.0012L153.827 2.7915Z" fill="white"/>
</svg>
