<svg width="57" height="11" viewBox="0 0 57 11" fill="none" xmlns="http://www.w3.org/2000/svg">
<path d="M3.5757 1.11053L3.88632 1.30328L2.85667 2.89086L3.35358 4.70991L3.01561 4.80431L2.47701 2.83329L3.5757 1.11053ZM4.25197 1.21308L4.54677 1.40342L3.53294 2.9934L4.02985 4.81246L3.69188 4.90686L3.15328 2.93584L4.25197 1.21308Z" fill="white"/>
<path d="M5.97788 1.50991C6.10001 1.72943 6.21535 1.96818 6.31994 2.22559L6.05688 2.31321L6.87653 2.4305C7.05137 2.2252 7.21661 1.97408 7.37168 1.68109L7.72577 1.83278C7.60125 2.08165 7.45695 2.29941 7.30021 2.49113L8.05255 2.5988L8.00041 2.96309L6.70957 2.77836L6.692 2.90111C6.65688 3.09004 6.61215 3.26143 6.5612 3.41981L8.13714 3.64534L8.08501 4.00962L6.69913 3.8113C6.82459 4.31818 7.26572 4.76518 8.02194 5.15625L7.7492 5.48089C6.96641 5.02136 6.50437 4.4946 6.35461 3.90342C6.2567 4.07933 6.14579 4.23317 6.02244 4.36098C5.70218 4.67882 5.22356 4.88914 4.58658 4.99194L4.42771 4.63382C5.06583 4.5231 5.51333 4.33257 5.77418 4.0628C5.86584 3.95874 5.94733 3.8411 6.01807 3.71384L4.66387 3.52004L4.716 3.15575L6.17315 3.36428C6.22863 3.20251 6.27732 3.03168 6.31187 2.84671L6.32944 2.72396L5.03463 2.53867L5.08676 2.17438L5.93413 2.29564C5.83632 2.04728 5.72664 1.82551 5.60959 1.62692L5.97788 1.50991Z" fill="white"/>
<path d="M9.14745 2.07661L12.1494 2.47291L12.1007 2.84172L10.8357 2.67471L10.708 3.64232L12.2506 3.84597L12.2008 4.2227L10.6582 4.01905L10.4797 5.37132C10.4431 5.64891 10.2775 5.7723 9.98799 5.73408L9.35746 5.65084L9.32631 5.27554C9.52699 5.31413 9.72025 5.34772 9.90267 5.3718C10.0296 5.38855 10.1009 5.33744 10.1155 5.22641L10.2815 3.96932L8.67145 3.75677L8.72119 3.38004L10.3312 3.59258L10.459 2.62498L9.09876 2.44541L9.14745 2.07661Z" fill="white"/>
<path d="M13.0329 4.05566C12.9136 4.17845 12.7903 4.30077 12.664 4.41467L12.5845 3.9984C13.0116 3.58991 13.3445 3.09368 13.5909 2.51067L13.9137 2.71011C13.7914 2.99367 13.6427 3.26202 13.4726 3.50767L13.1538 6.19282L12.7844 6.14896L13.0329 4.05566ZM14.1141 2.7178L16.1757 2.96254L16.0163 4.30511L15.2258 4.21127L15.1589 4.77531L16.0566 4.88188L16.0151 5.23143L15.1174 5.12486L15.0188 5.95503C15.144 5.98601 15.2936 6.01584 15.4634 6.04406C15.6859 6.07047 15.8929 6.09102 16.0845 6.10571L15.9745 6.45518L15.5932 6.40991C15.0217 6.33804 14.6355 6.23177 14.4422 6.09603C14.2404 5.96332 14.0824 5.76733 13.9757 5.51297C13.8281 5.80561 13.662 6.05174 13.4776 6.24737L13.2746 5.92117C13.5982 5.53664 13.8509 5.00271 14.0328 4.31938L14.3827 4.42537C14.3128 4.67487 14.2378 4.89959 14.1567 5.10748C14.1954 5.25708 14.2562 5.38918 14.3383 5.51171C14.4275 5.64314 14.5363 5.74467 14.6607 5.81584L14.8564 4.16742L13.9548 4.06037L14.1141 2.7178ZM15.6923 3.91218L15.7692 3.26473L14.4425 3.10723L14.3657 3.75468L15.6923 3.91218Z" fill="white"/>
<path d="M17.1358 2.97251C17.377 3.20657 17.5784 3.43651 17.7401 3.66234L17.4415 3.90491C17.3069 3.68992 17.1099 3.45641 16.8473 3.19601L17.1358 2.97251ZM19.0429 6.77291C18.8281 6.75068 18.5937 6.72242 18.3435 6.69251C18.0892 6.66219 17.8848 6.61692 17.7258 6.56026C17.5716 6.49605 17.4462 6.38656 17.3408 6.23894C17.2961 6.16595 17.2516 6.12918 17.2039 6.12424C17.1243 6.11601 16.9626 6.28024 16.7226 6.61734L16.4708 6.32991C16.7031 6.0282 16.9032 5.84381 17.0705 5.7807L17.187 4.6547L16.6499 4.59914L16.6861 4.24901L17.5773 4.3412L17.4214 5.84916C17.4356 5.86672 17.4539 5.88469 17.4713 5.91062C17.5477 6.0271 17.635 6.11656 17.7291 6.17857C17.8387 6.24621 18.0061 6.29971 18.2361 6.33154C18.4584 6.35857 18.7206 6.38971 19.027 6.4214C19.218 6.44116 19.4173 6.45776 19.6207 6.47477C19.82 6.49137 19.976 6.49947 20.0843 6.50262L19.9541 6.86716L19.0429 6.77291ZM17.9814 3.62296L18.4191 3.66824L18.4812 3.06744L18.8433 3.1049L18.7811 3.70569L19.3222 3.76167L19.384 3.16485L19.75 3.20272L19.6883 3.79953L20.1618 3.84851L20.1251 4.20262L19.6517 4.15364L19.5788 4.85788L20.1796 4.92003L20.1426 5.27812L19.5418 5.21597L19.4298 6.2982L19.0638 6.26033L19.1757 5.17811L18.5431 5.11267C18.3844 5.5587 18.1504 5.87632 17.833 6.06867L17.6374 5.74283C17.8767 5.60672 18.0566 5.38405 18.177 5.0748L17.6956 5.025L17.7327 4.66691L18.2857 4.72412C18.3156 4.59049 18.338 4.45206 18.3532 4.30484L18.3824 4.02235L17.9448 3.97707L17.9814 3.62296ZM18.7445 4.0598L18.7243 4.25476C18.7054 4.43778 18.6762 4.60366 18.6438 4.76116L19.2128 4.82002L19.2856 4.11578L18.7445 4.0598Z" fill="white"/>
<path d="M22.5345 3.40622C22.5868 3.54327 22.6378 3.69626 22.687 3.86917L24.1176 3.99361L24.0857 4.36022L21.1647 4.10616L21.0916 4.94699C21.0034 5.82264 20.8148 6.5129 20.5217 7.02141L20.2275 6.71075C20.4728 6.29043 20.6335 5.69009 20.709 4.91371L20.814 3.70627L22.2685 3.83278C22.2205 3.69209 22.1679 3.55903 22.1059 3.44121L22.5345 3.40622Z" fill="white"/>
<path d="M27.6678 6.02418L27.5639 7.53661L27.1808 7.51029L27.194 7.31874L25.2865 7.18766L25.2733 7.3792L24.8902 7.35288L24.9941 5.84045L27.6678 6.02418ZM25.3109 6.83249L27.2184 6.96357L27.26 6.35701L25.3525 6.22592L25.3109 6.83249ZM25.3729 4.58747C25.2246 4.76171 25.0577 4.91463 24.868 5.04994L24.6611 4.73502C25.0318 4.47582 25.2951 4.14509 25.4513 3.73884L25.8231 3.81251C25.7645 3.96485 25.6985 4.10866 25.6213 4.23968L26.2918 4.28575L26.3285 3.75101L26.7076 3.77706L26.6709 4.3118L27.9439 4.39928L27.9189 4.76242L26.6459 4.67494L26.6081 5.22565L28.1844 5.33397L28.1589 5.70509L24.5274 5.45554L24.5529 5.08442L26.229 5.19959L26.2668 4.64889L25.3729 4.58747Z" fill="white"/>
<path d="M29.6297 3.99217L30.0092 4.01136L29.8504 7.15135L30.3298 7.1756L30.4886 4.03561L30.8681 4.0548L30.7093 7.19479L31.8758 7.25378L31.8571 7.62531L28.2936 7.44509L28.3124 7.07357L29.4709 7.13216L29.6297 3.99217ZM31.5776 4.83563L31.9083 4.94848C31.7218 5.62793 31.4957 6.21726 31.23 6.72048L30.8965 6.58346C31.1436 6.13137 31.3735 5.54623 31.5776 4.83563ZM28.8375 4.68905C29.0142 5.23467 29.163 5.85498 29.2881 6.55018L28.9361 6.62049C28.832 5.98642 28.6869 5.37031 28.5087 4.77655L28.8375 4.68905Z" fill="white"/>
<path d="M32.5862 5.38964L32.9393 4.23231L33.317 4.30838L33.0856 5.04138L33.6773 5.06024C33.7627 4.76681 33.8326 4.45688 33.891 4.13058L34.2773 4.19092C34.2192 4.50523 34.1498 4.79916 34.0731 5.07286L35.9041 5.13123L35.8925 5.49504L33.9655 5.43361C33.9213 5.56427 33.8734 5.68681 33.8296 5.80547L35.4288 5.85645L35.4186 6.17629C35.3042 6.50081 35.0989 6.79041 34.7946 7.04485C35.0931 7.22245 35.4559 7.3901 35.8791 7.54766L35.6718 7.90123C35.1936 7.7099 34.7921 7.501 34.4709 7.28265C34.148 7.49247 33.7538 7.68001 33.2883 7.84526L33.0999 7.47907C33.5043 7.34789 33.8532 7.19893 34.1426 7.03607C33.8893 6.81989 33.7005 6.58976 33.5801 6.3498C33.2734 6.93232 32.8946 7.39249 32.4476 7.73042L32.2629 7.37235C32.8302 6.90218 33.2631 6.25165 33.5617 5.42074L32.5862 5.38964ZM33.8626 6.1507C33.987 6.39079 34.1879 6.6173 34.4654 6.82625C34.7238 6.63038 34.9147 6.41636 35.034 6.18804L33.8626 6.1507ZM34.9503 4.16835C35.2196 4.38504 35.4447 4.60432 35.6258 4.82221L35.3453 5.0854C35.192 4.87241 34.975 4.64938 34.6864 4.41207L34.9503 4.16835Z" fill="white"/>
<path d="M37.3113 5.72804L37.8632 5.73629L37.868 5.41632L37.2001 5.40634L37.1955 5.71031C37.1919 5.95028 37.1725 6.18201 37.1452 6.39763L37.8532 6.40821L37.8582 6.07225L37.3062 6.064L37.3113 5.72804ZM37.0921 6.74088C37.0096 7.17569 36.8797 7.56979 36.7024 7.91918L36.3986 7.63861C36.6581 7.13843 36.7957 6.49642 36.8115 5.70457L36.8316 4.36072L39.8913 4.40645L39.8758 5.44633L39.3198 5.43802L39.315 5.75799L39.915 5.76695L39.9099 6.10292L39.31 6.09395L39.305 6.42991L40.0409 6.44091L40.0358 6.78487L39.6358 6.7789L39.8644 7.01034C39.7381 7.16047 39.6003 7.28242 39.4549 7.37626C39.6571 7.49529 39.8878 7.58275 40.151 7.63869L39.9657 7.99596C39.2485 7.79722 38.7426 7.38562 38.4439 6.76108L37.948 6.75367L37.9366 7.51358C38.1775 7.45718 38.3905 7.39235 38.5716 7.31905L38.6384 7.66809C38.3128 7.77523 37.9274 7.86548 37.4822 7.93884L37.3832 7.60532C37.5039 7.55912 37.5652 7.47603 37.5671 7.34804L37.576 6.74811L37.0921 6.74088ZM38.8279 6.76682C38.9217 6.91624 39.0318 7.0459 39.1581 7.1598C39.3114 7.07008 39.4533 6.94419 39.5838 6.77812L38.8279 6.76682ZM38.9519 5.43252L38.2319 5.42176L38.2272 5.74173L38.9471 5.75249L38.9519 5.43252ZM38.2171 6.41365L38.937 6.42441L38.9421 6.08845L38.2221 6.07769L38.2171 6.41365ZM39.5021 4.74867L37.2104 4.71442L37.2051 5.06638L39.4969 5.10063L39.5021 4.74867Z" fill="white"/>
<path d="M42.1024 4.95842L42.0726 7.74226L41.7086 7.73836L41.7108 7.53037L41.0789 7.5236L41.0754 7.84758L40.7114 7.84368L40.7425 4.94384L41.1225 4.94792C41.1968 4.7327 41.2552 4.51331 41.2897 4.28167L41.6691 4.33774C41.6267 4.5573 41.5645 4.76065 41.4865 4.95182L42.1024 4.95842ZM41.0827 7.17162L41.7146 7.17839L41.7231 6.39044L41.0911 6.38366L41.0827 7.17162ZM41.0947 6.04368L41.7267 6.05046L41.7346 5.3145L41.1026 5.30772L41.0947 6.04368ZM42.8121 5.92609C43.0726 6.2569 43.2735 6.54307 43.4109 6.79256L43.1086 7.00133C42.9594 6.73571 42.7546 6.4415 42.5021 6.11477L42.8121 5.92609ZM44.1663 4.98455C44.1515 6.36447 44.1224 7.21621 44.0789 7.53576C44.0358 7.82332 43.8423 7.96525 43.5023 7.96161C43.4223 7.96075 43.2784 7.9512 43.0786 7.93706L42.9903 7.58809C43.1662 7.59798 43.3181 7.60761 43.4461 7.60898C43.6061 7.6107 43.699 7.52769 43.7248 7.35996C43.7509 7.16022 43.7701 6.48839 43.7904 5.34854L42.7864 5.33778C42.6718 5.57656 42.5415 5.79518 42.3874 5.99354L42.1626 5.69111C42.4307 5.30996 42.6197 4.84396 42.7216 4.29302L43.0971 4.34505C43.0547 4.56861 42.9964 4.776 42.9304 4.9713L44.1663 4.98455Z" fill="white"/>
<path d="M45.5083 4.87638L44.8844 4.86557L44.89 4.54562L46.2098 4.56848C46.1789 4.49994 46.1481 4.43539 46.117 4.37885L46.5301 4.32199C46.5608 4.39853 46.5953 4.48314 46.6257 4.57568L48.0095 4.59965L48.004 4.9196L47.3681 4.90859L47.2479 5.14654L48.1878 5.16282L48.1821 5.49077L44.6866 5.43023L44.6923 5.10228L45.6002 5.11801L45.5083 4.87638ZM45.9961 5.12486L46.852 5.13969L46.9721 4.90173L45.9043 4.88324L45.9961 5.12486ZM45.0996 5.60541L47.7632 5.65154L47.7416 6.89936L45.078 6.85323L45.0996 5.60541ZM47.3747 6.60496L47.3781 6.40499L45.4584 6.37174L45.455 6.57171L47.3747 6.60496ZM45.4631 6.09978L47.3829 6.13303L47.3862 5.93706L45.4665 5.90381L45.4631 6.09978ZM44.9234 7.00657L45.29 7.08893C45.1925 7.40329 45.0598 7.67303 44.8918 7.90216L44.5674 7.69251C44.7311 7.47931 44.8471 7.25329 44.9234 7.00657ZM46.9506 7.98982L45.9748 7.97292C45.6668 7.96759 45.5173 7.82498 45.522 7.55302L45.5308 7.04109L45.9148 7.04774L45.9073 7.47968C45.9056 7.57966 45.9647 7.6327 46.0887 7.63484L46.8845 7.64863C46.9565 7.64987 47.0088 7.63478 47.0373 7.60726C47.0779 7.57196 47.1077 7.46846 47.1267 7.29277L47.4847 7.41498C47.4478 7.69439 47.3889 7.86539 47.2999 7.91986C47.2231 7.96654 47.1066 7.99252 46.9506 7.98982ZM46.5055 6.89395C46.6627 7.0567 46.7803 7.19875 46.8621 7.32419L46.5424 7.53869C46.4527 7.40511 46.3313 7.25499 46.1781 7.09231L46.5055 6.89395ZM47.7519 6.99955C47.9674 7.26332 48.1314 7.49419 48.2441 7.68817L47.9243 7.90267C47.804 7.68455 47.6442 7.44575 47.4406 7.18619L47.7519 6.99955Z" fill="white"/>
<path d="M51.6512 4.67302L51.5476 6.90662L51.164 6.88882L51.2504 5.02682L49.5802 4.94933L49.4936 6.81533L49.11 6.79753L49.2138 4.55994L51.6512 4.67302ZM50.1889 5.20582L50.5645 5.22325L50.5298 5.97044C50.5118 6.18584 50.4788 6.38052 50.4303 6.56247L50.7699 6.57822L50.7262 7.52121C50.7193 7.66905 50.7678 7.74738 50.8716 7.7522L51.455 7.77926C51.503 7.78149 51.5518 7.76373 51.5935 7.72963C51.6393 7.69171 51.679 7.52537 51.7087 7.23043L52.0668 7.36717C52.0048 7.75272 51.9383 7.97788 51.8671 8.04665C51.7842 8.10687 51.6746 8.13783 51.5384 8.13952L50.7513 8.103C50.4636 8.08965 50.3277 7.91116 50.3434 7.57153L50.3831 6.71645C50.295 6.97664 50.1767 7.19539 50.024 7.38051C49.7447 7.70392 49.3053 7.93981 48.7054 8.09617L48.5164 7.76706C49.1163 7.6107 49.5308 7.39367 49.7559 7.11581C49.9778 6.82177 50.1078 6.43539 50.1543 5.95302L50.1889 5.20582Z" fill="white"/>
<path d="M53.2445 4.59984L53.8744 6.54362L52.8572 8.31571L52.5539 8.13931L53.4925 6.50381L52.9113 4.70989L53.2445 4.59984ZM53.9248 4.67075L54.5547 6.61453L53.5375 8.38662L53.2342 8.21022L54.1728 6.57472L53.5757 4.77914L53.9248 4.67075Z" fill="white"/>
</svg>
