<svg width="117" height="21" viewBox="0 0 117 21" fill="none" xmlns="http://www.w3.org/2000/svg">
<path d="M3.38017 14.9292L3.73248 15.0267L3.19136 16.8399L4.18023 18.4455L3.8825 18.6312L2.81085 16.8915L3.38017 14.9292ZM4.05796 14.8372L4.39442 14.9369L3.86915 16.7479L4.85802 18.3536L4.56028 18.5393L3.48864 16.7996L4.05796 14.8372Z" fill="white"/>
<path d="M5.96534 14.622C6.14292 14.7996 6.31924 14.9977 6.49033 15.2166L6.26132 15.3729L7.08176 15.2612C7.19369 15.0159 7.28384 14.7291 7.35274 14.4049L7.73482 14.4538C7.68323 14.7272 7.60408 14.9762 7.50585 15.2035L8.2589 15.101L8.30853 15.4657L7.01645 15.6415L7.03317 15.7644C7.05114 15.9557 7.05506 16.1328 7.04943 16.2991L8.62689 16.0844L8.67652 16.449L7.28931 16.6378C7.5488 17.091 8.09548 17.4001 8.92989 17.5691L8.75649 17.956C7.87777 17.7284 7.28913 17.3483 6.98319 16.8208C6.9372 17.0168 6.87266 17.1951 6.78903 17.3518C6.56807 17.7452 6.16535 18.0786 5.58087 18.3519L5.33 18.051C5.9134 17.7697 6.29161 17.4639 6.4686 17.133C6.52826 17.0078 6.57441 16.8724 6.6076 16.7306L5.25209 16.9151L5.20246 16.5505L6.66101 16.352C6.67006 16.1812 6.67011 16.0035 6.65268 15.8162L6.63596 15.6933L5.33991 15.8697L5.29027 15.5051L6.13845 15.3896C5.97637 15.1776 5.81014 14.9943 5.64318 14.8354L5.96534 14.622Z" fill="white"/>
<path d="M9.07655 14.3155L12.0772 13.9097L12.1271 14.2783L10.8626 14.4493L10.9934 15.4165L12.5354 15.208L12.5863 15.5846L11.0443 15.7931L11.2271 17.1448C11.2647 17.4223 11.1373 17.5848 10.8479 17.6239L10.2177 17.7092L10.0891 17.3552C10.2928 17.3398 10.4881 17.3214 10.6705 17.2968C10.7973 17.2796 10.8527 17.2116 10.8377 17.1006L10.6678 15.844L9.05841 16.0617L9.00749 15.6851L10.6168 15.4674L10.486 14.5003L9.12641 14.6841L9.07655 14.3155Z" fill="white"/>
<path d="M15.0211 15.236L15.0794 15.6762L15.6941 15.5947L15.6357 15.1546L15.0211 15.236ZM15.1257 16.0251L15.1908 16.5168L15.8054 16.4354L15.7403 15.9437L15.1257 16.0251ZM15.2386 16.8777L15.2623 17.0561L14.8895 17.1055L14.5985 14.9087C14.5344 15.0342 14.4619 15.1568 14.3854 15.2799L14.2059 14.9002C14.4635 14.4383 14.6251 13.9529 14.6858 13.4365L15.0601 13.4595C15.0309 13.6651 14.9887 13.8644 14.9335 14.0573L15.5402 13.9769C15.4516 13.795 15.355 13.6141 15.2515 13.4422L15.5997 13.2992C15.719 13.5296 15.8193 13.7382 15.8931 13.9302L16.4998 13.8498L16.5477 14.2106L15.9013 14.2963L15.9617 14.7523L16.5288 14.6771L16.5755 15.0301L16.0085 15.1052L16.0668 15.5453L16.6338 15.4702L16.6801 15.8192L16.113 15.8943L16.1782 16.386L16.8682 16.2946L16.916 16.6554L15.2386 16.8777ZM15.5286 14.3456L14.9139 14.4271L14.9743 14.8831L15.589 14.8017L15.5286 14.3456ZM14.3022 15.1093L14.3532 15.494C14.249 15.5602 14.1403 15.6231 14.0356 15.6854L14.1785 16.7639C14.2126 17.0217 14.0952 17.1704 13.8295 17.2056L13.4726 17.2529L13.341 16.8991C13.4502 16.9008 13.5543 16.895 13.6534 16.8819C13.7565 16.8683 13.8018 16.8138 13.7892 16.7187L13.6778 15.878C13.5339 15.9495 13.3856 16.0176 13.2407 16.0812L13.0951 15.7131C13.2762 15.6488 13.4523 15.577 13.6274 15.4973L13.517 14.6646L13.0412 14.7277L12.9928 14.3629L13.4687 14.2998L13.3762 13.6019L13.7529 13.552L13.8454 14.2499L14.2142 14.201L14.2625 14.5658L13.8937 14.6147L13.9857 15.3086C14.0944 15.2458 14.1986 15.1796 14.3022 15.1093Z" fill="white"/>
<path d="M17.2378 13.1324C17.526 13.3054 17.7745 13.4834 17.9833 13.6664L17.7479 13.9706C17.5678 13.792 17.3228 13.6095 17.0078 13.4157L17.2378 13.1324ZM19.9605 16.3984C19.7462 16.4257 19.5116 16.4516 19.2611 16.4795C19.0067 16.5079 18.7973 16.5104 18.6296 16.4914C18.4648 16.464 18.3177 16.386 18.1815 16.2662C18.1213 16.2054 18.0697 16.1797 18.022 16.1858C17.9427 16.1959 17.8226 16.3926 17.6657 16.7755L17.3551 16.553C17.5126 16.2063 17.6653 15.9812 17.8139 15.8816L17.6709 14.7587L17.1352 14.827L17.0907 14.4778L17.9795 14.3645L18.1711 15.8684C18.189 15.8822 18.2109 15.8956 18.2338 15.9168C18.3347 16.0128 18.44 16.0801 18.5458 16.119C18.668 16.1599 18.8431 16.1739 19.0743 16.1525C19.297 16.1281 19.5594 16.0987 19.8649 16.0598C20.0554 16.0355 20.2533 16.0063 20.4551 15.9765C20.653 15.9473 20.8067 15.9196 20.9129 15.898L20.8691 16.2827L19.9605 16.3984ZM18.2093 13.5731L18.6458 13.5175L18.5694 12.9184L18.9305 12.8723L19.0069 13.4715L19.5465 13.4027L19.4707 12.8076L19.8357 12.761L19.9116 13.3562L20.3837 13.2961L20.4287 13.6492L19.9565 13.7094L20.046 14.4117L20.6452 14.3353L20.6907 14.6925L20.0915 14.7688L20.2291 15.8481L19.864 15.8946L19.7265 14.8153L19.0956 14.8957C19.0426 15.3662 18.8872 15.7287 18.6219 15.9883L18.3573 15.7156C18.5593 15.5286 18.6837 15.2708 18.7305 14.9422L18.2504 15.0034L18.2049 14.6463L18.7565 14.576C18.7551 14.4391 18.7454 14.2992 18.7267 14.1524L18.6908 13.8707L18.2543 13.9263L18.2093 13.5731ZM19.0519 13.8246L19.0766 14.0191C19.0999 14.2016 19.1092 14.3698 19.1136 14.5305L19.681 14.4582L19.5915 13.7559L19.0519 13.8246Z" fill="white"/>
<path d="M20.9525 13.2687L22.5531 13.0772C22.427 12.8989 22.2785 12.7354 22.1072 12.5827L22.4679 12.3985C22.6337 12.5721 22.7958 12.7823 22.9502 13.0297L24.4555 12.8497L24.5002 13.223L23.8925 13.2957C23.7741 13.9222 23.5524 14.4603 23.228 14.9141C23.6815 15.2023 24.2315 15.4225 24.8698 15.5717L24.6973 15.9146C24.0293 15.7528 23.4615 15.5186 22.9977 15.2115C22.5964 15.6624 22.0795 16.0223 21.447 16.2914L21.2045 15.982C21.828 15.7382 22.3249 15.4129 22.7026 15.0011C22.2135 14.6165 21.8459 14.1367 21.6048 13.5693L20.9971 13.642L20.9525 13.2687ZM21.9662 13.5261C22.1915 13.9947 22.5129 14.3913 22.9339 14.7116C23.2133 14.3196 23.4043 13.8617 23.5033 13.3422L21.9662 13.5261Z" fill="white"/>
<path d="M25.9676 11.997L26.3397 12.1255C26.24 12.4663 26.0988 12.7955 25.9157 13.1092L26.2011 15.7297L25.8273 15.7704L25.59 13.5913C25.4452 13.776 25.288 13.9581 25.1179 14.1336L24.9558 13.7529C25.4419 13.2292 25.7807 12.6451 25.9676 11.997ZM28.2531 15.4338L27.5095 15.5148C27.1914 15.5494 27.015 15.4077 26.9804 15.0895L26.8591 13.9761C26.7242 14.0673 26.5853 14.1588 26.442 14.2469L26.232 13.9076C26.4364 13.7888 26.6323 13.6669 26.8111 13.5347L26.6426 11.9879L27.0204 11.9467L27.1633 13.259C27.5248 12.9581 27.8387 12.6261 28.0971 12.264L28.392 12.5337C28.0567 12.9645 27.6653 13.3612 27.2131 13.7163L27.3525 14.9967C27.3647 15.108 27.4304 15.1572 27.5576 15.1434L28.1501 15.0788C28.2416 15.0689 28.3057 15.0297 28.3429 14.9653C28.3762 14.9013 28.3811 14.6875 28.3492 14.3208L28.7117 14.398C28.7337 14.8584 28.7123 15.1424 28.6511 15.2456C28.5859 15.3492 28.452 15.4121 28.2531 15.4338Z" fill="white"/>
<path d="M30.3386 13.1901L29.598 13.2611L29.7435 14.7782C29.7526 14.8737 29.8094 14.9205 29.9169 14.9102L30.6097 14.8438C30.7291 14.8323 30.8017 14.7932 30.8239 14.7308C30.8496 14.664 30.8605 14.5264 30.857 14.3218L31.2228 14.4072C31.2242 14.7567 31.1966 14.9723 31.1319 15.0509C31.0743 15.1207 30.9459 15.1651 30.7548 15.1835L29.7872 15.2762C29.5364 15.3003 29.4015 15.1927 29.3786 14.9538L29.1972 13.0625L29.0244 13.2719L28.772 12.9867C29.1171 12.604 29.4242 12.1607 29.6937 11.6607L29.9724 11.6339C30.3579 11.9667 30.729 12.3168 31.0778 12.6852L30.8557 12.9677C30.4698 12.5466 30.1535 12.2233 29.8993 12.0026C29.7216 12.3291 29.5189 12.6458 29.2832 12.9538L30.6768 12.8201L30.7822 13.9191C30.7992 14.1385 30.6909 14.2654 30.4535 14.3042C30.2982 14.3191 30.1505 14.3292 30.0104 14.3346L29.8848 13.9891C30.0337 13.9909 30.1618 13.9866 30.2733 13.9759C30.3649 13.9671 30.4081 13.9148 30.3997 13.8272L30.3386 13.1901ZM31.1787 11.8518L31.549 11.8163L31.7846 14.273L31.4143 14.3085L31.1787 11.8518ZM32.1829 15.0747L31.5817 15.1323L31.4593 14.7784C31.656 14.7756 31.8439 14.7656 32.0191 14.7488C32.1146 14.7396 32.1567 14.6753 32.1456 14.5599L31.847 11.4461L32.2253 11.4099L32.533 14.6192C32.5598 14.8979 32.4417 15.0498 32.1829 15.0747Z" fill="white"/>
<path d="M33.5527 11.8262L32.9307 11.8767L32.9048 11.5578L34.2205 11.4509C34.1831 11.3857 34.146 11.3245 34.1096 11.2713L34.515 11.1741C34.5531 11.2473 34.5958 11.3281 34.6351 11.4172L36.0146 11.3052L36.0405 11.6241L35.4066 11.6756L35.3104 11.9242L36.2473 11.8481L36.2738 12.175L32.7893 12.4581L32.7628 12.1312L33.6678 12.0576L33.5527 11.8262ZM34.0625 12.0256L34.9157 11.9563L35.0119 11.7077L33.9474 11.7941L34.0625 12.0256ZM33.2176 12.5919L35.8728 12.3762L35.9739 13.6201L33.3186 13.8358L33.2176 12.5919ZM35.5798 13.3631L35.5636 13.1638L33.6499 13.3192L33.6661 13.5186L35.5798 13.3631ZM33.6278 13.0481L35.5415 12.8927L35.5257 12.6973L33.612 12.8528L33.6278 13.0481ZM33.1797 14.0036L33.5527 14.0495C33.4866 14.3719 33.381 14.6534 33.2363 14.8979L32.8929 14.7211C33.0349 14.4929 33.128 14.2566 33.1797 14.0036ZM35.2938 14.7829L34.321 14.862C34.014 14.8869 33.8512 14.7597 33.8291 14.4886L33.7877 13.9782L34.1704 13.9472L34.2054 14.3777C34.2135 14.4774 34.2775 14.5244 34.4011 14.5143L35.1945 14.4499C35.2663 14.4441 35.3168 14.4239 35.3424 14.3937C35.3794 14.3546 35.3989 14.2487 35.4006 14.072L35.7688 14.1584C35.7596 14.4401 35.7177 14.6161 35.6345 14.679C35.5626 14.733 35.4493 14.7703 35.2938 14.7829ZM34.7432 13.7361C34.9156 13.8826 35.0466 14.0124 35.1403 14.1292L34.8432 14.3741C34.7408 14.25 34.6052 14.1125 34.4368 13.9656L34.7432 13.7361ZM35.9939 13.7188C36.2342 13.9601 36.4202 14.1737 36.5513 14.3557L36.2542 14.6006C36.1131 14.3953 35.9305 14.1734 35.7025 13.9351L35.9939 13.7188Z" fill="white"/>
<path d="M40.219 11.0395L40.4344 14.3164L40.0672 14.3406L40.0481 14.0492L39.182 14.1061L39.2043 14.4454L38.841 14.4693L38.6225 11.1445L40.219 11.0395ZM39.1583 13.7469L40.0245 13.69L39.8752 11.4189L39.009 11.4758L39.1583 13.7469ZM36.8687 12.0895L37.5352 12.0457L37.5038 11.5668C37.322 11.6068 37.1357 11.6391 36.9532 11.6671L36.8111 11.3357C37.4226 11.2474 37.911 11.1151 38.2807 10.9465L38.4811 11.25C38.2822 11.3352 38.0789 11.4127 37.8665 11.4748L37.9025 12.0216L38.5531 11.9788L38.5764 12.334L37.9258 12.3768L37.9363 12.5365C38.1727 12.7174 38.4146 12.9219 38.6621 13.1502L38.4601 13.4922C38.2637 13.2485 38.0987 13.0549 37.9604 12.9037L38.072 14.6L37.7048 14.6242L37.5985 13.0077C37.4609 13.3534 37.2735 13.6744 37.0444 13.9701L36.8535 13.5657C37.1837 13.2233 37.419 12.8391 37.5599 12.4209L37.5586 12.401L36.892 12.4448L36.8687 12.0895Z" fill="white"/>
<path d="M41.2806 10.7989C41.546 10.9777 41.7677 11.1627 41.9532 11.3455L41.7069 11.6223C41.5456 11.4423 41.3197 11.2535 41.0335 11.0598L41.2806 10.7989ZM40.8271 11.9634L41.7219 11.918L41.8077 13.6078C41.9263 13.4976 42.0521 13.3711 42.189 13.228L42.3131 13.6222C42.0656 13.8751 41.8009 14.1048 41.5189 14.3073L41.3576 13.9711C41.4187 13.9119 41.451 13.8382 41.4467 13.7543L41.3729 12.3002L40.8455 12.3269L40.8271 11.9634ZM42.2774 12.3664L44.2149 12.268L44.2325 12.6155C44.1347 12.977 43.9584 13.2903 43.7037 13.5596C43.9679 13.7144 44.2872 13.8503 44.6533 13.9599L44.4662 14.2978C44.0586 14.1583 43.7177 13.9914 43.4359 13.8055C43.1356 14.045 42.7573 14.2445 42.3087 14.4034L42.0808 14.0946C42.498 13.9492 42.8456 13.7754 43.1235 13.569C42.8384 13.3191 42.6359 13.0371 42.5238 12.7223L42.2961 12.7339L42.2774 12.3664ZM42.8793 12.7043C42.9836 12.9433 43.1505 13.1551 43.3844 13.3435C43.5902 13.1368 43.7468 12.9085 43.8501 12.655L42.8793 12.7043ZM42.4787 10.8102L43.8929 10.7383L43.9355 11.5773C43.94 11.6651 43.9903 11.7107 44.0902 11.7056L44.4418 11.6877L44.4594 12.0353L44.008 12.0582C43.7244 12.0726 43.5776 11.9439 43.5642 11.6802L43.5354 11.113L42.8723 11.1466L42.8784 11.2665C42.8995 11.6819 42.7042 12.0163 42.2963 12.2653L42.0298 11.9864C42.3577 11.8176 42.5187 11.5971 42.5049 11.3255L42.4787 10.8102Z" fill="white"/>
<path d="M46.2227 11.678L47.27 11.6393L47.2267 10.4681L47.6184 10.4536L47.6617 11.6248L48.653 11.5881L48.6669 11.9639L47.6756 12.0005L47.7553 14.1551L47.3635 14.1695L47.2839 12.015L46.2366 12.0537L46.2227 11.678ZM45.4532 10.5697C45.7203 10.7559 45.9474 10.9437 46.1346 11.1369L45.8846 11.4103C45.7177 11.2283 45.4905 11.0366 45.199 10.8392L45.4532 10.5697ZM44.9684 11.7484L45.8918 11.7142L45.9548 13.4171C46.0788 13.3084 46.2063 13.1836 46.3413 13.0465L46.4556 13.4306C46.2086 13.6799 45.9408 13.9059 45.656 14.1046L45.4995 13.7701C45.5654 13.7117 45.5988 13.6424 45.5959 13.5624L45.5415 12.0914L44.9819 12.1121L44.9684 11.7484Z" fill="white"/>
<path d="M49.5242 11.8171L49.5388 12.4009L50.0987 12.3868L50.084 11.803L49.5242 11.8171ZM50.0754 11.4631L50.0606 10.8713L49.5007 10.8853L49.5156 11.4772L50.0754 11.4631ZM49.5395 12.745C49.5252 13.2895 49.4405 13.7438 49.2855 14.1038L48.9911 13.8511C49.1423 13.4992 49.2111 13.0533 49.2016 12.5134L49.1522 10.55L50.3958 10.5187L50.4744 13.6458C50.4812 13.9177 50.3607 14.0567 50.1168 14.0629L49.7969 14.0709L49.6965 13.7373C49.8087 13.7465 49.9089 13.752 50.0049 13.7496C50.0888 13.7475 50.131 13.6744 50.1275 13.5344L50.1073 12.7307L49.5395 12.745ZM51.069 12.3104L51.1049 13.7379C51.31 13.6208 51.4824 13.4724 51.6261 13.3007C51.3867 13.0106 51.2183 12.6788 51.121 12.3091L51.069 12.3104ZM51.1052 13.7499L51.1129 14.0538L50.757 14.0628L50.6677 10.5119L52.3512 10.4696C52.3643 10.9894 52.3489 11.3339 52.3053 11.5071C52.2615 11.6762 52.1116 11.764 51.8557 11.7705L51.5198 11.7789L51.4118 11.4615C51.4758 11.4599 51.5639 11.4617 51.6758 11.4589C51.7598 11.4568 51.8236 11.4472 51.8633 11.4342C51.903 11.4212 51.934 11.3844 51.9566 11.3278C51.9789 11.2592 51.9907 11.0909 51.992 10.8227L51.0323 10.8469L51.0606 11.9745L52.4122 11.9405L52.4202 12.2604C52.3581 12.6541 52.2466 12.993 52.0856 13.2732C52.2534 13.425 52.4489 13.5601 52.668 13.6827L52.4881 14.0073C52.2568 13.877 52.053 13.7301 51.881 13.5704C51.7216 13.7585 51.5295 13.9153 51.3086 14.0409L51.1052 13.7499ZM51.4449 12.3009C51.5314 12.5589 51.6573 12.7918 51.8266 12.9996C51.9413 12.7886 52.0274 12.5504 52.0847 12.2849L51.4449 12.3009Z" fill="white"/>
<path d="M54.1434 10.279L54.5321 10.3293C54.4936 10.4259 54.4509 10.5185 54.4042 10.6032L56.116 10.5779L56.1206 10.8858C55.8847 11.1654 55.5963 11.4097 55.2593 11.6147C55.6896 11.7683 56.1671 11.8693 56.6958 11.9094L56.5291 12.2679C55.9081 12.2051 55.3459 12.0614 54.8464 11.8328C54.3697 12.0559 53.8121 12.2202 53.1815 12.3255L53.0003 11.9722C53.5352 11.8962 54.0135 11.7771 54.4272 11.615C54.2335 11.5058 54.0557 11.3805 53.8897 11.2469C53.7554 11.3649 53.609 11.4751 53.4465 11.5775L53.21 11.277C53.674 11.0021 53.9851 10.6694 54.1434 10.279ZM54.8365 11.4329C55.1105 11.2928 55.3521 11.1292 55.5653 10.9421L54.1615 10.9629C54.1497 10.975 54.1418 10.9831 54.1379 10.9912C54.3484 11.1601 54.5826 11.3087 54.8365 11.4329ZM54.5581 12.0811L54.934 12.0755C54.9362 12.2195 54.9262 12.3557 54.9081 12.484L56.2879 12.4635C56.2903 13.1636 56.2365 13.5844 56.1265 13.7221C56.0166 13.8597 55.8177 13.9347 55.5377 13.9388C55.4017 13.9408 55.2336 13.9353 55.0415 13.9262L54.9404 13.5836C55.1485 13.5885 55.3166 13.594 55.4447 13.6001C55.6486 13.5931 55.7759 13.5472 55.8267 13.4665C55.8775 13.3817 55.9062 13.1613 55.913 12.8091L54.8291 12.8252C54.7946 12.9217 54.7559 13.0143 54.7092 13.099C54.5145 13.4619 54.051 13.7648 53.3145 14.0117L53.058 13.7075C53.7071 13.5059 54.1316 13.2676 54.3275 12.9886C54.3587 12.9362 54.3899 12.8837 54.4132 12.8313L53.2893 12.848L53.2843 12.508L54.5241 12.4897C54.5462 12.3613 54.5602 12.2251 54.5581 12.0811Z" fill="white"/>
<path d="M57.5552 10.2353L57.9314 10.2649L57.8825 10.7613L60.2384 10.7463L60.2408 11.1103L57.8488 11.1255L57.7964 11.6898L60.0123 11.6758C60.0194 12.7918 59.9435 13.4402 59.7926 13.6172C59.6417 13.7862 59.3182 13.8722 58.8183 13.8754C58.6903 13.8762 58.5542 13.8691 58.4142 13.862L58.312 13.5146C58.5161 13.5333 58.6602 13.5444 58.7402 13.5439C59.1641 13.5412 59.4197 13.4676 59.5028 13.327C59.5898 13.1745 59.6351 12.7462 59.6306 12.0342L57.3746 12.0485L57.5552 10.2353ZM56.8902 12.6076L59.1461 12.5933L59.1484 12.9573L56.8925 12.9716L56.8902 12.6076Z" fill="white"/>
<path d="M64.3317 10.4504L64.3288 13.9264L63.9568 13.926L63.957 13.698L62.761 13.697L62.7608 13.929L62.4008 13.9287L62.4037 10.4487L64.3317 10.4504ZM62.7613 13.341L63.9573 13.342L63.9578 12.73L62.7618 12.729L62.7613 13.341ZM62.7621 12.381L63.9581 12.3821L63.9586 11.7541L62.7626 11.753L62.7621 12.381ZM62.7629 11.405L63.9589 11.4061L63.9594 10.8061L62.7634 10.805L62.7629 11.405ZM61.7625 11.9362L61.7608 13.9202L61.3888 13.9199L61.3904 12.0519C61.2621 12.3798 61.1058 12.6836 60.9216 12.9555L60.7779 12.5793C61.0542 12.2196 61.2546 11.8118 61.383 11.3479L60.859 11.3474L60.8593 10.9834L61.3913 10.9839L61.3919 10.2359L61.7639 10.2362L61.7633 10.9842L62.2473 10.9846L62.247 11.3486L61.763 11.3482L61.7628 11.5242C61.9387 11.7043 62.1185 11.9045 62.2943 12.1206L62.0861 12.4285C61.9622 12.2324 61.8544 12.0683 61.7625 11.9362Z" fill="white"/>
<path d="M66.1191 10.2296C66.2785 10.4239 66.4345 10.6382 66.5834 10.8728L66.3401 11.006L67.1676 10.9752C67.303 10.742 67.4208 10.4654 67.5211 10.1495L67.8966 10.2356C67.8185 10.5027 67.7153 10.7427 67.5953 10.9593L68.3547 10.9311L68.3684 11.2988L67.0653 11.3473L67.0699 11.4712C67.0691 11.6633 67.0556 11.84 67.0337 12.0049L68.6246 11.9457L68.6383 12.3135L67.2393 12.3655C67.4531 12.8419 67.9669 13.203 68.7807 13.453L68.5703 13.8211C67.7181 13.5085 67.1695 13.0726 66.9167 12.5176C66.8517 12.7081 66.77 12.8793 66.6714 13.027C66.413 13.3969 65.9796 13.6892 65.3711 13.904L65.1509 13.5799C65.7591 13.3572 66.1654 13.0899 66.374 12.7779C66.4456 12.6592 66.5048 12.5289 66.5517 12.3911L65.1847 12.4419L65.171 12.0741L66.642 12.0194C66.6677 11.8504 66.6852 11.6736 66.6862 11.4854L66.6816 11.3615L65.3745 11.4101L65.3608 11.0424L66.2162 11.0106C66.0757 10.7836 65.9282 10.585 65.7776 10.4104L66.1191 10.2296Z" fill="white"/>
<path d="M70.7863 9.90193C70.8526 10.0249 70.9162 10.1642 70.9852 10.319L72.3685 10.2051L72.398 10.5639L71.7283 10.619C71.7032 10.8017 71.6619 10.9817 71.6039 11.1551L72.5248 11.0792L72.555 11.446L69.7246 11.6791L69.7689 12.2173C69.8042 12.8405 69.706 13.3543 69.4661 13.7553L69.1541 13.5241C69.3444 13.2034 69.4219 12.7796 69.3862 12.2488L69.3116 11.3438L70.1169 11.2775L69.9344 10.7668L69.2248 10.8252L69.1952 10.4664L70.5985 10.3509C70.5358 10.2236 70.4659 10.1049 70.3929 9.99855L70.7863 9.90193ZM70.4917 11.2467L71.2411 11.1849C71.2991 11.0116 71.3404 10.8316 71.3655 10.6489L70.3051 10.7362L70.4917 11.2467Z" fill="white"/>
<path d="M73.9798 9.67146L74.3571 9.62647L74.7293 12.7484L75.2059 12.6915L74.8337 9.56965L75.211 9.52466L75.5832 12.6466L76.743 12.5083L76.7871 12.8777L73.2442 13.3001L73.2001 12.9307L74.352 12.7933L73.9798 9.67146ZM76.0419 10.1749L76.3869 10.2304C76.3174 10.9316 76.1938 11.5506 76.0166 12.0913L75.6648 12.0124C75.8322 11.5252 75.9603 10.9097 76.0419 10.1749ZM73.3162 10.4918C73.5822 10.9999 73.8334 11.5862 74.0737 12.2505L73.7386 12.379C73.5292 11.7716 73.2825 11.1887 73.0068 10.6334L73.3162 10.4918Z" fill="white"/>
<path d="M78.9219 9.66613L79.4638 9.58492L79.3654 8.92825L79.7175 8.8755L79.8159 9.53217L80.3737 9.44859L80.6215 11.1021L80.0637 11.1857L80.1799 11.9611L80.4558 11.859C80.3937 11.7146 80.3328 11.5782 80.2691 11.4502L80.5443 11.3159C80.695 11.5927 80.8403 11.9147 80.9763 12.2826L80.6671 12.4058C80.6383 12.3211 80.606 12.241 80.5778 12.1603C80.2083 12.3127 79.8127 12.4529 79.3949 12.5802L79.2552 12.2412C79.4539 12.1912 79.6482 12.1378 79.8373 12.0771L79.7116 11.2385L79.1697 11.3197L78.9219 9.66613ZM80.2564 10.8252L80.1058 9.82039L79.8447 9.85951L79.9953 10.8643L80.2564 10.8252ZM79.6867 10.9105L79.5362 9.90575L79.2909 9.9425L79.4415 10.9473L79.6867 10.9105ZM76.8634 9.42451L78.7701 9.1388L78.8205 9.47505L76.9137 9.76075L76.8634 9.42451ZM77.1546 9.91071L78.6222 9.69081L78.7574 10.5927L77.2898 10.8126L77.1546 9.91071ZM78.3852 10.3492L78.3378 10.0327L77.5308 10.1537L77.5782 10.4701L78.3852 10.3492ZM77.7206 11.8523L77.8907 11.8268C77.8219 11.6915 77.7503 11.5647 77.672 11.447L77.8981 11.3363C77.9758 11.45 78.0486 11.5847 78.1158 11.7364L77.9223 11.8221L78.2072 11.7794C78.2467 11.6117 78.2806 11.4327 78.3014 11.2475L78.5676 11.2966C78.5432 11.458 78.5086 11.6048 78.4722 11.7397L78.6502 11.713L78.6929 11.9978L78.3646 12.047L78.4671 12.7314L78.1704 12.7758L78.0679 12.0915L77.7633 12.1371L77.7206 11.8523ZM78.9092 12.6853L78.6283 12.7274L78.4875 12.4088L78.7516 12.3894C78.8188 12.3794 78.8503 12.3463 78.8426 12.2949L78.6642 11.1042L77.5288 11.2743L77.7707 12.8883L77.4463 12.9369L77.1582 11.0144L78.9423 10.747L79.1776 12.3175C79.2096 12.5311 79.1188 12.6539 78.9092 12.6853Z" fill="white"/>
<path d="M82.3779 8.40769L82.6537 8.35968C83.2477 8.83285 83.8919 9.17546 84.5945 9.38612L84.4559 9.77971C84.2186 9.69921 83.9917 9.60877 83.7792 9.5077L83.8279 9.78749L81.7551 10.1482L81.705 9.86057C81.5327 10.0367 81.3464 10.2031 81.147 10.3637L80.8869 10.0354C81.5148 9.56075 82.0126 9.01531 82.3779 8.40769ZM81.7912 9.77249L83.6591 9.4474C83.2671 9.24767 82.9043 9.00629 82.5748 8.72259C82.367 9.09168 82.1071 9.44142 81.7912 9.77249ZM84.1496 10.1659L84.4342 11.8014L84.0717 11.8645L84.0346 11.6517L82.1903 11.9726L82.2274 12.1854L81.8648 12.2485L81.5802 10.6131L84.1496 10.1659ZM82.1286 11.618L83.9729 11.297L83.8481 10.5798L82.0038 10.9007L82.1286 11.618Z" fill="white"/>
<path d="M84.9673 9.2617L85.0566 8.05501L85.4418 8.04596L85.3776 8.81195L85.9589 8.69995C85.9775 8.39492 85.9774 8.0772 85.9625 7.74605L86.3526 7.71978C86.3652 8.03915 86.3623 8.34116 86.3478 8.62504L88.1467 8.27846L88.2155 8.63589L86.3224 9.00063C86.308 9.13781 86.2883 9.26789 86.2717 9.3933L87.8428 9.09061L87.9034 9.40483C87.8633 9.74658 87.7268 10.0743 87.4861 10.3895C87.8164 10.497 88.2073 10.5806 88.6548 10.641L88.5304 11.0316C88.0219 10.9503 87.5842 10.835 87.2227 10.6928C86.9541 10.9687 86.6109 11.2384 86.1933 11.5022L85.9288 11.1866C86.2943 10.9695 86.6018 10.7473 86.8482 10.5247C86.5535 10.3696 86.3187 10.1867 86.1483 9.97922C85.9775 10.615 85.7094 11.1473 85.3479 11.5755L85.0888 11.2669C85.5385 10.6833 85.8175 9.95334 85.9256 9.07706L84.9673 9.2617ZM86.38 9.72276C86.5543 9.92953 86.8001 10.1062 87.1168 10.2489C87.3257 10.0009 87.4648 9.75004 87.5308 9.50104L86.38 9.72276ZM87.0041 7.54944C87.3145 7.70147 87.5824 7.86575 87.8071 8.03836L87.5915 8.35691C87.395 8.18293 87.1342 8.01321 86.8004 7.84532L87.0041 7.54944Z" fill="white"/>
<path d="M89.4629 8.59363L90.0035 8.48185L89.9387 8.16848L89.2845 8.30375L89.3461 8.60145C89.3947 8.83648 89.426 9.06692 89.4462 9.2833L90.1395 9.13992L90.0715 8.81089L89.5309 8.92267L89.4629 8.59363ZM89.4689 9.62989C89.4827 10.0723 89.4415 10.4852 89.3443 10.8647L88.9868 10.6568C89.1316 10.1122 89.1265 9.45562 88.97 8.67922L88.6978 7.36306L91.6944 6.74339L91.9051 7.76184L91.3606 7.87444L91.4254 8.18781L92.0129 8.0663L92.081 8.39534L91.4934 8.51685L91.5615 8.84588L92.2822 8.69684L92.3519 9.03371L91.9602 9.11471L92.2335 9.29101C92.1429 9.46497 92.0348 9.61394 91.9132 9.73711C92.1365 9.8094 92.3807 9.84468 92.6498 9.84214L92.5464 10.2311C91.8032 10.1928 91.22 9.90088 90.7929 9.3561L90.3071 9.45655L90.461 10.2008C90.6839 10.0934 90.8778 9.98392 91.0386 9.87304L91.1796 10.1993C90.885 10.3745 90.5284 10.5463 90.1098 10.7146L89.9407 10.4105C90.0485 10.3392 90.0903 10.2448 90.0643 10.1194L89.9428 9.53188L89.4689 9.62989ZM91.1689 9.27834C91.2929 9.40383 91.4285 9.5065 91.5765 9.59026C91.7067 9.46938 91.8179 9.31568 91.9092 9.12524L91.1689 9.27834ZM91.0002 7.94896L90.2951 8.09477L90.3599 8.40814L91.065 8.26233L91.0002 7.94896ZM90.496 9.06621L91.2011 8.92041L91.133 8.59137L90.428 8.73717L90.496 9.06621ZM91.3889 7.16194L89.1444 7.62609L89.2156 7.9708L91.4602 7.50665L91.3889 7.16194Z" fill="white"/>
<path d="M93.8423 6.82222L94.4316 9.54312L94.0759 9.62018L94.0319 9.41689L93.4142 9.55069L93.4828 9.86735L93.127 9.94441L92.5131 7.11014L92.8845 7.0297C92.9091 6.80335 92.9173 6.57648 92.8994 6.34296L93.2818 6.31334C93.2893 6.53682 93.2738 6.7489 93.2402 6.95263L93.8423 6.82222ZM93.3397 9.20667L93.9573 9.07287L93.7905 8.30273L93.1728 8.43653L93.3397 9.20667ZM93.1009 8.10424L93.7185 7.97044L93.5627 7.25112L92.945 7.38492L93.1009 8.10424ZM94.7492 7.60803C95.0766 7.87271 95.3361 8.10708 95.5255 8.31982L95.2771 8.59053C95.0727 8.36469 94.8076 8.12335 94.4888 7.86089L94.7492 7.60803ZM95.8603 6.38917C96.1525 7.73789 96.3133 8.57481 96.342 8.89603C96.3638 9.18597 96.2067 9.36735 95.8744 9.43933C95.7962 9.45627 95.6538 9.47893 95.4558 9.50955L95.2922 9.18891C95.4659 9.15947 95.6161 9.13511 95.7412 9.10801C95.8976 9.07414 95.9697 8.97257 95.9576 8.80329C95.9387 8.60275 95.8082 7.94344 95.5747 6.82758L94.5934 7.04014C94.5348 7.29841 94.4562 7.54052 94.35 7.76817L94.0637 7.52323C94.2404 7.09205 94.3212 6.5957 94.2981 6.03589L94.6758 6.0032C94.6841 6.23059 94.6734 6.44573 94.6523 6.65084L95.8603 6.38917Z" fill="white"/>
<path d="M98.6517 8.06424C98.41 8.47034 97.9597 8.84087 97.3046 9.17496L97.0313 8.90381C97.715 8.55106 98.1571 8.19875 98.3528 7.84385L98.3992 7.73928L96.8841 8.076L96.806 7.72458L98.5124 7.34533C98.554 7.09022 98.5506 6.81646 98.502 6.52404L98.3961 6.04766L98.7553 5.96782L98.8612 6.44419C98.9137 6.73575 98.9289 7.00691 98.9029 7.25855L100.129 6.98605L100.207 7.33747L98.8287 7.64382C98.8161 7.6794 98.8035 7.71497 98.7949 7.74968C99.3806 7.84078 99.932 7.98046 100.447 8.16094L100.316 8.52625C99.7585 8.30587 99.2044 8.15446 98.6517 8.06424ZM97.1995 6.85858C97.5019 6.9102 97.7861 6.99046 98.0521 7.09935L97.9258 7.43473C97.6429 7.30501 97.3579 7.22085 97.0776 7.1766L97.1995 6.85858ZM97.4607 6.22687C97.7622 6.27459 98.0464 6.35484 98.3085 6.4646L98.1822 6.79998C97.9002 6.67417 97.6182 6.58524 97.3379 6.54099L97.4607 6.22687ZM99.699 5.21721L99.8769 6.01768L99.5176 6.09752L99.4152 5.63676L96.8693 6.20259L96.9717 6.66335L96.6125 6.74319L96.4346 5.94272L97.8989 5.61728C97.8316 5.5175 97.7661 5.42552 97.6984 5.34222L98.0633 5.19557C98.1345 5.29448 98.2043 5.40598 98.2737 5.53397L99.699 5.21721Z" fill="white"/>
<path d="M100.346 5.25602L100.912 5.12936C100.807 4.97246 100.701 4.82814 100.591 4.70118L100.955 4.5501C101.057 4.69529 101.163 4.86 101.271 5.04901L101.732 4.94594L101.812 5.30505L101.051 5.47538L101.153 5.93209L101.844 5.77748C102.071 6.79238 102.192 7.42521 102.214 7.67031C102.228 7.91325 102.083 8.07269 101.771 8.14257C101.739 8.14956 101.683 8.15398 101.607 8.16277L101.451 7.84932C101.524 7.8453 101.588 7.83913 101.643 7.82691C101.779 7.79633 101.846 7.71163 101.844 7.5728C101.834 7.43572 101.743 6.97639 101.577 6.19785L101.226 6.27647C101.396 7.14437 101.394 7.81296 101.22 8.28222L100.889 8.10222C101.041 7.6664 101.024 7.02257 100.839 6.17855L100.7 5.55399L100.426 5.61514L100.346 5.25602ZM102.344 5.04656C102.279 5.35643 102.188 5.63076 102.075 5.87346L101.768 5.63876C101.934 5.29837 102.039 4.85264 102.088 4.3046L102.453 4.30493C102.44 4.43077 102.426 4.5488 102.411 4.66683L103.758 4.36548L103.836 4.71289L102.344 5.04656ZM103.796 5.17674C103.963 5.92231 104.045 6.37948 104.048 6.5426C104.048 6.7066 103.922 6.82089 103.664 6.87854L103.645 6.88291L103.481 6.5916C103.548 6.57675 103.607 6.56755 103.658 6.55619C103.701 6.54659 103.719 6.50144 103.711 6.42552C103.704 6.35742 103.658 6.11756 103.567 5.7116L103.294 5.88338L103.579 7.15591L103.235 7.23277L102.978 6.08125L102.701 6.2539L102.929 7.27271C102.967 7.44446 103.046 7.52114 103.163 7.49493L103.901 7.32984C103.983 7.3115 104.041 7.27801 104.071 7.23024C104.107 7.17292 104.108 7.02931 104.072 6.79551L104.415 6.82537C104.455 7.16893 104.441 7.38111 104.371 7.47059C104.306 7.54661 104.196 7.60404 104.032 7.64073L103.13 7.8425C102.865 7.9019 102.693 7.75594 102.616 7.41244L102.399 6.44438L102.144 6.60398L102.069 6.26828L102.324 6.10868L102.207 5.58561L102.535 5.51224L102.626 5.9182L102.902 5.74165L102.765 5.1288L103.108 5.05194L103.218 5.54378L103.796 5.17674Z" fill="white"/>
<path d="M105.144 4.19214L104.535 4.3269L104.466 4.01445L105.754 3.72939C105.709 3.6699 105.663 3.61432 105.62 3.56655L106.009 3.41509C106.056 3.48239 106.11 3.55663 106.161 3.63955L107.512 3.34066L107.581 3.65311L106.96 3.79046L106.899 4.04985L107.817 3.84685L107.887 4.16711L104.474 4.92209L104.403 4.60183L105.29 4.40575L105.144 4.19214ZM105.676 4.32023L106.512 4.13537L106.573 3.87598L105.531 4.10662L105.676 4.32023ZM104.916 4.99629L107.517 4.42098L107.787 5.63954L105.186 6.21484L104.916 4.99629ZM107.362 5.43867L107.318 5.24339L105.444 5.65802L105.487 5.8533L107.362 5.43867ZM105.385 5.39244L107.26 4.9778L107.217 4.78643L105.343 5.20107L105.385 5.39244ZM105.071 6.39999L105.447 6.39472C105.425 6.72313 105.359 7.01636 105.249 7.2783L104.885 7.14995C104.994 6.90449 105.054 6.65768 105.071 6.39999ZM107.272 6.8842L106.319 7.09498C106.018 7.16149 105.839 7.05762 105.78 6.79204L105.67 6.29212L106.045 6.20919L106.138 6.631C106.16 6.72864 106.23 6.76645 106.351 6.73968L107.128 6.56777C107.198 6.55223 107.245 6.52537 107.267 6.49199C107.298 6.4482 107.303 6.34061 107.281 6.1653L107.657 6.20082C107.686 6.48113 107.669 6.66116 107.595 6.73484C107.531 6.79812 107.424 6.85051 107.272 6.8842ZM106.584 5.92208C106.774 6.04375 106.922 6.15453 107.031 6.25747L106.77 6.54052C106.651 6.4315 106.498 6.31377 106.311 6.19124L106.584 5.92208ZM107.82 5.73458C108.091 5.94094 108.304 6.12728 108.459 6.2897L108.198 6.57275C108.03 6.38862 107.819 6.19361 107.561 5.98857L107.82 5.73458Z" fill="white"/>
<path d="M110.839 2.54879L111.308 4.73496L110.933 4.81557L110.541 2.99311L108.907 3.34411L109.299 5.17049L108.923 5.2511L108.453 3.06102L110.839 2.54879ZM109.561 3.43688L109.928 3.35794L110.085 4.08927C110.123 4.30214 110.141 4.49881 110.14 4.68711L110.472 4.61573L110.671 5.5387C110.702 5.6834 110.769 5.74679 110.87 5.72496L111.441 5.60236C111.488 5.59228 111.531 5.56265 111.562 5.51905C111.597 5.47071 111.593 5.29974 111.547 5.00697L111.928 5.04788C111.966 5.43647 111.959 5.67115 111.908 5.75582C111.843 5.83519 111.745 5.89306 111.614 5.92943L110.843 6.09486C110.562 6.15532 110.385 6.01738 110.313 5.68495L110.134 4.84803C110.115 5.1221 110.056 5.36378 109.956 5.58173C109.768 5.96567 109.403 6.30581 108.863 6.60999L108.597 6.33995C109.137 6.03577 109.482 5.72022 109.629 5.39413C109.769 5.05324 109.796 4.64646 109.718 4.16821L109.561 3.43688Z" fill="white"/>
<path d="M112.148 2.09109L113.332 3.75605L112.894 5.7518L112.552 5.67462L112.956 3.83276L111.863 2.29611L112.148 2.09109ZM112.818 1.95446L114.003 3.61942L113.564 5.61517L113.222 5.53799L113.626 3.69612L112.518 2.16268L112.818 1.95446Z" fill="white"/>
</svg>
