<svg width="96" height="22" viewBox="0 0 96 22" fill="none" xmlns="http://www.w3.org/2000/svg">
<path d="M2.85878 15.5488L3.22031 15.4947L3.46276 17.3713L5.01879 18.4365L4.82222 18.7272L3.13606 17.5732L2.85878 15.5488ZM3.4407 15.1893L3.78862 15.1436L4.04468 17.0119L5.60071 18.0771L5.40414 18.3678L3.71799 17.2137L3.4407 15.1893Z" fill="white"/>
<path d="M5.20943 14.1797C5.44174 14.2753 5.68071 14.3901 5.9229 14.5263L5.77173 14.7588L6.48592 14.3398C6.49476 14.0703 6.46754 13.7709 6.40628 13.4451L6.77775 13.3431C6.83542 13.6154 6.85823 13.8756 6.85509 14.1232L7.51062 13.7387L7.69682 14.0561L6.57206 14.7159L6.6348 14.8229C6.72505 14.9925 6.79685 15.1545 6.85568 15.3101L8.22886 14.5046L8.41506 14.822L7.20749 15.5303C7.62144 15.8486 8.24499 15.9234 9.08015 15.7581L9.06909 16.182C8.1705 16.3103 7.4809 16.1862 6.99541 15.8171C7.02843 16.0157 7.03754 16.2051 7.02069 16.3819C6.96823 16.8301 6.72491 17.2928 6.29073 17.7701L5.94334 17.5889C6.37347 17.1048 6.60478 16.6769 6.64072 16.3034C6.64758 16.1649 6.63802 16.0221 6.61406 15.8785L5.4341 16.5706L5.2479 16.2532L6.51756 15.5084C6.46016 15.3473 6.39181 15.1834 6.30359 15.0172L6.24085 14.9102L5.11264 15.572L4.92644 15.2546L5.66477 14.8215C5.43353 14.6882 5.20956 14.5831 4.99427 14.5007L5.20943 14.1797Z" fill="white"/>
<path d="M8.01301 12.6804L10.676 11.2392L10.8531 11.5664L9.73089 12.1737L10.1954 13.0321L11.5639 12.2915L11.7447 12.6257L10.3763 13.3663L11.0255 14.5659C11.1588 14.8121 11.0971 15.0092 10.8403 15.1482L10.281 15.4509L10.0355 15.1653C10.2206 15.0788 10.3968 14.9925 10.5586 14.9049C10.6712 14.844 10.6989 14.7608 10.6456 14.6623L10.0421 13.5471L8.61383 14.3201L8.43297 13.9859L9.86123 13.2129L9.39669 12.3546L8.19006 13.0076L8.01301 12.6804Z" fill="white"/>
<path d="M12.6609 12.0671L13.1174 13.0282C13.3828 12.8224 13.6611 12.5973 13.9417 12.3489L14.1813 12.6203C13.7952 12.9543 13.3897 13.2752 12.9701 13.5852L12.6972 13.365C12.7616 13.2768 12.7724 13.1876 12.7295 13.0972L11.6879 10.904C12.1052 10.6173 12.4725 10.3277 12.7881 10.0317L13.1317 10.2051C12.8599 10.4626 12.5342 10.7279 12.1564 11.0048L12.5048 11.7383L13.502 11.2646L13.6582 11.5935L12.6609 12.0671ZM15.4948 12.2534L15.1552 12.4147L14.9034 12.1268L15.2284 11.9814C15.3223 11.9367 15.3436 11.8602 15.2955 11.7591L14.4067 9.8874L13.6949 10.2254L15.0436 13.0655L14.6967 13.2302L13.1936 10.065L14.5991 9.39748L15.6767 11.6666C15.8054 11.9376 15.7442 12.135 15.4948 12.2534Z" fill="white"/>
<path d="M15.7624 10.0761L15.6331 8.87303L16.0104 8.79478L16.0851 9.55982L16.6368 9.34502C16.6002 9.04162 16.5429 8.72911 16.4686 8.40604L16.8476 8.30999C16.9175 8.62187 16.969 8.91947 17.0058 9.20133L18.7129 8.5366L18.845 8.87579L17.0484 9.57536C17.059 9.71288 17.063 9.84439 17.0693 9.97073L18.5602 9.39017L18.6763 9.68836C18.6984 10.0317 18.6232 10.3787 18.4432 10.7321C18.7874 10.7783 19.1869 10.7902 19.638 10.7691L19.586 11.1757C19.0711 11.1873 18.6198 11.1527 18.2387 11.0779C18.024 11.3975 17.7351 11.7247 17.3717 12.0593L17.0547 11.7964C17.3752 11.5171 17.6377 11.2432 17.84 10.9799C17.5222 10.8804 17.2583 10.7428 17.0534 10.5693C16.9998 11.2254 16.8319 11.7974 16.5533 12.2836L16.2429 12.0267C16.5803 11.3716 16.7232 10.6034 16.6719 9.72195L15.7624 10.0761ZM17.2351 10.2753C17.4437 10.4473 17.7174 10.5769 18.0546 10.6602C18.2154 10.3787 18.307 10.1069 18.3272 9.85006L17.2351 10.2753ZM17.4578 8.02515C17.7905 8.11883 18.0836 8.2322 18.3357 8.36154L18.1809 8.7137C17.9564 8.57793 17.6692 8.45793 17.3107 8.35287L17.4578 8.02515Z" fill="white"/>
<path d="M22.1872 6.48426L22.5348 6.532L22.2889 8.4016L23.5088 9.83959L23.2425 10.0681L21.9206 8.51007L22.1872 6.48426Z" fill="white"/>
<path d="M23.2912 6.85228L23.9206 6.71604L23.7937 6.12962L24.1612 6.05008L24.2881 6.6365L25.8441 6.29971L25.7172 5.71329L26.0847 5.63375L26.2116 6.22017L26.841 6.08393L26.918 6.43969L26.2886 6.57593L26.8606 9.21873L26.4931 9.29828L26.4483 9.09107L24.8923 9.42786L24.938 9.63897L24.5705 9.71852L23.9976 7.07181L23.3682 7.20804L23.2912 6.85228ZM24.8153 9.0721L26.3713 8.73531L26.1792 7.84786L24.6232 8.18465L24.8153 9.0721ZM24.5488 7.84062L26.1047 7.50383L25.9211 6.65548L24.3651 6.99226L24.5488 7.84062Z" fill="white"/>
<path d="M30.5837 6.61541L29.4354 6.80615L29.752 8.71203L29.389 8.77233L29.0724 6.86645L27.9636 7.05063L27.9079 6.71522L29.0167 6.53104L28.9774 6.29429L27.4108 6.5545L27.3538 6.2112L28.9204 5.95099L28.8804 5.71029L27.7676 5.89512L27.7119 5.55972L28.8247 5.37488L28.7866 5.14602L29.1497 5.08572L29.1877 5.31458L30.336 5.12385L30.4316 5.69995L30.8657 5.62786L30.9227 5.97115L30.4887 6.04325L30.5837 6.61541ZM29.2434 5.64999L29.2834 5.89069L30.0647 5.76091L30.0247 5.52021L29.2434 5.64999ZM29.3404 6.23399L29.3797 6.47074L30.161 6.34096L30.1217 6.10421L29.3404 6.23399ZM30.3778 6.81587L30.7329 6.75688L31.0246 8.51282L30.6694 8.57181L30.3778 6.81587ZM28.6138 7.27917L28.9321 7.26685C28.968 7.72718 28.9323 8.14671 28.8256 8.52937L28.4856 8.48447C28.6035 8.12023 28.6465 7.71977 28.6138 7.27917ZM29.9719 7.03331C30.1374 7.37075 30.2931 7.74632 30.4428 8.15937L30.1271 8.2848C29.982 7.85071 29.8336 7.46988 29.6746 7.14757L29.9719 7.03331ZM27.9149 7.22092L28.2621 7.16324L28.3106 7.45524C28.4154 8.13525 28.3198 8.65799 28.0322 9.02608L27.7154 8.82732C27.9727 8.52102 28.0538 8.08179 27.9634 7.51292L27.9149 7.22092Z" fill="white"/>
<path d="M32.5911 4.54639L32.9594 4.4946L33.1015 5.50466L32.7331 5.55646L32.5911 4.54639ZM31.9527 6.47C31.7834 6.53016 31.6141 6.59031 31.4443 6.6465L31.2419 6.32757C32.4114 5.96926 33.2881 5.53902 33.8679 5.03741C33.7227 4.9528 33.5696 4.86931 33.4085 4.78692L33.6281 4.50966C34.0716 4.73409 34.4558 4.96687 34.772 5.20516L34.5479 5.50731C34.4333 5.41032 34.3068 5.31501 34.1644 5.22192C33.8459 5.5131 33.455 5.77811 32.9883 6.02145L34.3905 5.82431L34.6929 7.97516L34.3245 8.02695L34.3034 7.87643L32.5565 8.12202L32.5788 8.28046L32.2144 8.3317L31.9527 6.47ZM32.5098 7.78929L34.2566 7.5437L34.2193 7.27831L32.4724 7.5239L32.5098 7.78929ZM32.4301 7.22286L34.1769 6.97727L34.143 6.73565L32.3962 6.98124L32.4301 7.22286ZM32.3544 6.68416L34.1012 6.43857L34.0661 6.18902L32.3193 6.43461L32.3544 6.68416ZM32.0009 4.8596L32.2992 5.05599C32.1061 5.378 31.8526 5.67216 31.5381 5.93451L31.2807 5.68391C31.5765 5.43227 31.817 5.16014 32.0009 4.8596Z" fill="white"/>
<path d="M35.765 5.70631C35.6686 5.86409 35.5638 6.01894 35.4465 6.17137L35.2713 5.78678C35.617 5.28188 35.8502 4.71903 35.966 4.0908L36.3447 4.21087C36.2843 4.52127 36.1906 4.82392 36.0676 5.11828L36.4129 7.76788L36.04 7.81646L35.765 5.70631ZM36.3815 4.52474L37.1431 4.42549L37.1876 3.93159L37.5612 3.91922C37.5496 4.07805 37.533 4.22946 37.5199 4.37639L38.6622 4.22752L38.7098 4.59243L37.4723 4.75371C37.4497 4.88977 37.43 5.01738 37.4098 5.14103L38.921 4.94409L38.968 5.30504L37.3378 5.51748C37.3019 5.67544 37.2685 5.82099 37.23 5.95912L38.8087 5.75339L38.851 6.07864C38.7255 6.35317 38.5166 6.63856 38.217 6.9398C38.395 7.00535 38.57 7.07935 38.7376 7.15835L38.5658 7.51152C38.0395 7.24933 37.5067 7.0606 36.9747 6.94034L37.1382 6.6165C37.3875 6.67274 37.6305 6.74193 37.8661 6.81611C38.1189 6.58954 38.3162 6.3702 38.4535 6.15465L36.7876 6.37175C36.8587 6.11239 36.9203 5.84216 36.9769 5.56452L36.3502 5.64619L36.3031 5.28524L37.0449 5.18858C37.0646 5.06097 37.0842 4.93336 37.0994 4.80229L36.4291 4.88965L36.3815 4.52474Z" fill="white"/>
<path d="M40.7442 6.22823L40.7827 6.59019C40.4402 6.81166 40.0427 7.00681 39.5931 7.16727L39.5092 6.79405C39.983 6.63504 40.3973 6.44615 40.7442 6.22823ZM39.7631 3.58518L40.1403 3.68987C39.9998 4.18351 39.8499 4.58964 39.6903 4.90429C39.8238 4.874 39.9569 4.83972 40.0896 4.80147C40.1437 4.66699 40.2005 4.52016 40.2564 4.36538L40.6081 4.45669C40.3542 5.09513 40.1351 5.56897 39.9468 5.87863C40.1862 5.78477 40.4275 5.67061 40.6702 5.53216L40.707 5.8782C40.2965 6.10289 39.8995 6.2658 39.5204 6.37049L39.3837 6.03104C39.448 5.99203 39.4998 5.9503 39.5429 5.90147C39.6523 5.7571 39.7833 5.51387 39.9359 5.17181C39.7564 5.22309 39.5684 5.27124 39.3725 5.32024L39.2402 4.98435C39.2973 4.95414 39.3475 4.89651 39.3876 4.81983C39.5409 4.44552 39.6661 4.03397 39.7631 3.58518ZM40.7662 5.3007L40.6472 4.97547C40.6781 4.96413 40.7047 4.94923 40.7198 4.93959C40.8298 4.83939 40.9608 4.59616 41.1097 4.2183L40.4931 4.28388L40.4546 3.92192L41.4212 3.8191C41.3599 3.6969 41.2955 3.58307 41.228 3.47762L41.607 3.37294C41.6723 3.49472 41.7388 3.62843 41.803 3.77848L42.6741 3.68581L42.7126 4.04777L41.5034 4.17641C41.3828 4.47887 41.2708 4.71202 41.1684 4.88382C41.4872 4.81772 41.8051 4.74367 42.1183 4.66209C42.0269 4.55918 41.9359 4.46025 41.8449 4.36132L42.1123 4.15186C42.4107 4.46203 42.6453 4.73877 42.8156 4.9781L42.5428 5.21227C42.4854 5.12586 42.42 5.0403 42.3541 4.95076C41.8689 5.0788 41.3383 5.19559 40.7662 5.3007ZM41.0737 5.39269L41.4396 5.35376C41.4735 5.86103 41.4492 6.23771 41.3707 6.48339C41.2816 6.74227 41.1135 6.97736 40.8625 7.18911L40.5921 6.91618C40.7997 6.74929 40.9406 6.56133 41.0149 6.3523C41.086 6.15164 41.1043 5.83191 41.0737 5.39269ZM42.7093 6.92828L42.4547 6.95537C42.1723 6.98541 42.0196 6.87294 41.9929 6.62235L41.8486 5.266L42.2106 5.2275L42.3473 6.51225C42.354 6.57589 42.3821 6.61313 42.4307 6.616L42.6535 6.59231C42.7242 6.57674 42.7625 6.52037 42.7603 6.42407C42.7608 6.3154 42.7522 6.15943 42.7311 5.96055L43.0695 6.04121C43.1101 6.42305 43.1028 6.65714 43.0565 6.75057C43.0092 6.83604 42.8906 6.89291 42.7093 6.92828Z" fill="white"/>
<path d="M44.8005 3.76653L43.4645 3.8694L43.4365 3.50647L46.4955 3.27096L46.5234 3.63388L45.1834 3.73705L45.3701 6.16188L46.9614 6.03936L46.9896 6.40628L43.4202 6.68109L43.3919 6.31418L44.9872 6.19136L44.8005 3.76653Z" fill="white"/>
<path d="M47.4245 3.26423L48.3271 3.21361L48.3076 2.86615L48.695 2.84442L48.7144 3.19188L49.6729 3.13812L49.6535 2.79066L50.0408 2.76894L50.0603 3.11639L50.9629 3.06577L50.9828 3.42121L50.0803 3.47183L50.098 3.78734L49.7106 3.80906L49.6929 3.49356L48.7344 3.54732L48.7521 3.86282L48.3647 3.88455L48.347 3.56905L47.4444 3.61967L47.4245 3.26423ZM47.8336 4.05857L50.4854 3.90983L50.5058 4.27326C49.4411 4.93392 48.7558 5.42907 48.4538 5.7585C48.3558 5.86817 48.3006 5.95539 48.2846 6.0284C48.288 6.08831 48.3217 6.11846 48.3936 6.11443L50.3545 6.00445C50.4624 5.9984 50.5447 5.96574 50.5977 5.91068C50.6509 5.85962 50.6858 5.6253 50.7025 5.20771L51.062 5.33177C51.044 5.79751 50.9838 6.08133 50.8774 6.18345C50.7747 6.28135 50.6176 6.33824 50.41 6.34989L48.4331 6.46077C48.0816 6.48048 47.9029 6.3663 47.8891 6.11869C47.8796 5.95096 48.0002 5.74388 48.2428 5.49791C48.5611 5.17157 49.1078 4.77634 49.8748 4.30865L47.854 4.422L47.8336 4.05857Z" fill="white"/>
<path d="M51.3926 3.08612L52.2519 3.04975C52.1948 2.93206 52.1343 2.82652 52.0661 2.72932L52.4631 2.64846C52.5239 2.76199 52.5815 2.89167 52.6395 3.03334L53.4108 3.00069C53.4654 2.87027 53.5076 2.73236 53.5336 2.59113L53.9434 2.62583C53.9127 2.75124 53.8697 2.86916 53.8145 2.9836L54.6457 2.94841L54.6603 3.29211L53.2256 3.35284L53.2384 3.65657L54.4613 3.6048L54.4752 3.93251L53.2523 3.98427L53.2653 4.292L54.8319 4.22568L54.8468 4.57737L51.3299 4.72624L51.3151 4.37456L52.8817 4.30824L52.8686 4.00052L51.6577 4.05177L51.6438 3.72407L52.8548 3.67281L52.8419 3.36908L51.4072 3.42981L51.3926 3.08612ZM52.9277 4.73467L53.3131 4.7584C53.3043 4.83484 53.2915 4.91144 53.2746 4.98423L54.7733 4.92079L54.7885 5.28046L53.4697 5.33629C53.7546 5.63651 54.2711 5.82683 55.0192 5.90727L54.8346 6.2754C53.9723 6.14376 53.3999 5.86371 53.1134 5.43144C53.0355 5.57887 52.9409 5.70699 52.8255 5.81997C52.5716 6.06292 52.1198 6.26621 51.4621 6.43018L51.2905 6.06511C51.8538 5.94117 52.2593 5.77988 52.503 5.57739C52.5802 5.51006 52.6414 5.44341 52.6944 5.36911L51.4515 5.42172L51.4362 5.06205L52.875 5.00114C52.8992 4.91204 52.9155 4.82327 52.9277 4.73467Z" fill="white"/>
<path d="M55.4693 3.4581L56.9885 3.40843L56.9583 2.48493L57.3341 2.47264L57.3643 3.39614L58.8875 3.34634L58.8994 3.71015L57.724 3.74858C58.0003 4.36388 58.4502 4.90547 59.0738 5.37334L58.8284 5.70153C58.1497 5.13941 57.6645 4.49892 57.3769 3.77994L57.4548 6.16267L57.079 6.17495L57.0013 3.80022C56.7356 4.60934 56.2735 5.2848 55.6147 5.82262L55.3957 5.4896C55.9812 5.03822 56.4028 4.46814 56.6526 3.78361L55.4812 3.82191L55.4693 3.4581ZM57.9859 2.45533C58.2216 2.68775 58.4043 2.88989 58.534 3.06174L58.2372 3.28756C58.1028 3.09185 57.9198 2.88172 57.6961 2.6489L57.9859 2.45533Z" fill="white"/>
<path d="M59.971 2.36818L60.3353 2.52243C60.2512 2.8168 60.1427 3.09582 60.0058 3.3636L60.0795 6.09861L59.6956 6.10895L59.6379 3.96573C59.526 4.1208 59.406 4.26808 59.2778 4.41159L59.1429 4.01107C59.5223 3.53668 59.7997 2.98902 59.971 2.36818ZM60.5041 2.54989L62.4394 2.49776L62.4752 3.82528L61.6914 3.84639L61.7009 4.19826L62.8205 4.16811L62.8304 4.53598L62.0507 4.55698C62.2683 4.91125 62.5607 5.21948 62.9319 5.48159L62.6929 5.82014C62.3158 5.48618 62.0005 5.07051 61.7428 4.56527L61.7108 4.56613L61.7507 6.0456L61.3748 6.05572L61.335 4.57626L61.299 4.57722C61.0618 5.13181 60.7615 5.56806 60.3979 5.88596L60.1727 5.5479C60.5101 5.29873 60.7816 4.9793 60.9951 4.58541L60.2553 4.60533L60.2454 4.23747L61.325 4.20839L61.3156 3.85652L60.5399 3.87741L60.5041 2.54989ZM62.0895 3.47154L62.0733 2.87176L60.8898 2.90364L60.9059 3.50342L62.0895 3.47154Z" fill="white"/>
<path d="M63.799 5.95706L63.3991 5.96663L63.3063 5.60074C63.4265 5.60987 63.5467 5.615 63.6587 5.61232C63.7506 5.61012 63.7975 5.56098 63.7952 5.46501L63.7749 4.61725C63.6242 4.67287 63.4734 4.7245 63.3225 4.77212L63.2174 4.39453C63.4004 4.35013 63.5832 4.29775 63.7658 4.23736L63.7458 3.4016L63.2739 3.41289L63.2652 3.049L63.7371 3.0377L63.7198 2.31391L64.0997 2.30482L64.117 3.02861L64.5209 3.01895L64.5296 3.38284L64.1257 3.39251L64.1425 4.09631C64.2851 4.03288 64.4275 3.96545 64.5698 3.89403L64.5789 4.27392C64.4365 4.34135 64.2941 4.40877 64.1514 4.4682L64.1774 5.55189C64.1837 5.81582 64.0549 5.95094 63.799 5.95706ZM66.4343 3.05718L65.1027 3.08905L65.1188 3.76086L66.4504 3.72899L66.4343 3.05718ZM65.1235 4.12485C65.1245 4.83703 64.9713 5.45687 64.6597 5.97648L64.3656 5.72744C64.6352 5.28886 64.762 4.73367 64.7497 4.05377L64.7182 2.73815L65.57 2.71777C65.5103 2.56715 65.451 2.42853 65.384 2.3021L65.7863 2.22845C65.8418 2.37116 65.8976 2.52987 65.9539 2.70858L66.7936 2.68848L66.827 4.08408L65.1235 4.12485Z" fill="white"/>
<path d="M67.6296 3.64163L67.9686 3.76573C67.8478 4.24469 67.6843 4.61261 67.4744 4.8736L67.1847 4.63232C67.3868 4.37951 67.5352 4.05195 67.6296 3.64163ZM68.4241 2.20264L68.808 2.19365L68.8254 2.93744L70.0891 2.90785C70.0876 3.18796 70.0897 3.44799 70.0873 3.68811L70.3483 3.55396C70.5407 3.90956 70.7299 4.30124 70.912 4.73309L70.5681 4.90919C70.4149 4.52067 70.2505 4.16442 70.0831 3.84825C70.074 4.14455 70.0642 4.40885 70.0535 4.63316C70.0236 5.06598 69.9627 5.37149 69.8749 5.54959C69.7868 5.7197 69.6409 5.81114 69.4374 5.83191L68.9695 5.84287L68.8569 5.4774C68.993 5.48222 69.1211 5.48322 69.2411 5.48041C69.437 5.47582 69.5658 5.33677 69.6276 5.07125C69.685 4.78983 69.7111 4.19305 69.7098 3.28484L68.818 3.30572C68.7929 3.94248 68.6932 4.46496 68.5187 4.87315C68.3209 5.3139 67.9849 5.65786 67.5146 5.90894L67.2989 5.5819C67.7489 5.3193 68.0533 4.99208 68.2123 4.60425C68.3401 4.25316 68.4141 3.82332 68.4342 3.31471L67.4824 3.33699L67.4738 2.96909L68.4415 2.94643L68.4241 2.20264Z" fill="white"/>
<path d="M73.3601 2.08017L73.744 2.07054L73.7592 2.67435L74.7548 2.64938L74.7641 3.01727L73.7684 3.04224L73.7849 3.70203L74.8886 3.67435L74.8978 4.04223L73.5982 4.07483C73.3837 4.61638 73.1937 5.01727 73.0242 5.2776C73.4629 5.21858 73.8969 5.13567 74.3266 5.03687C74.2172 4.82355 74.1042 4.62632 73.9916 4.44508L74.3565 4.31589C74.6025 4.70985 74.821 5.1285 75.0084 5.57995L74.6525 5.74892C74.5971 5.61427 74.5418 5.48361 74.4868 5.36495C73.8939 5.49586 73.2484 5.60408 72.5505 5.69361L72.4542 5.36392C72.4859 5.35112 72.5136 5.33842 72.5333 5.32593C72.7053 5.16556 72.923 4.75197 73.1863 4.08516L72.3026 4.10732L72.2934 3.73944L73.401 3.71166L73.3845 3.05187L72.4688 3.07483L72.4596 2.70695L73.3753 2.68398L73.3601 2.08017ZM71.6255 2.15569C71.8864 2.34921 72.1073 2.53973 72.2921 2.73116L72.0271 3.01389C71.8705 2.82976 71.6455 2.63534 71.3562 2.42653L71.6255 2.15569ZM71.549 3.0939C71.7899 3.28792 71.9949 3.48284 72.1678 3.67857L71.8987 3.9574C71.7541 3.77297 71.549 3.57405 71.2837 3.36464L71.549 3.0939ZM71.9651 4.21182L72.3125 4.34315C72.1531 4.84731 71.973 5.32397 71.7762 5.77305L71.3921 5.61463C71.6127 5.15695 71.805 4.68798 71.9651 4.21182Z" fill="white"/>
<path d="M75.6244 1.98614L76.5055 3.82966L75.7314 5.72061L75.4074 5.58583L76.1217 3.84066L75.3086 2.13924L75.6244 1.98614Z" fill="white"/>
<path d="M80.6697 2.52241L80.7645 5.30479L80.4007 5.31719L80.3936 5.10931L79.762 5.13083L79.773 5.45464L79.4093 5.46704L79.3105 2.56872L79.6903 2.55578C79.7549 2.33745 79.8034 2.11567 79.8274 1.88272L80.209 1.92175C80.1765 2.14298 80.1235 2.34891 80.0541 2.54338L80.6697 2.52241ZM79.75 4.77904L80.3817 4.75751L80.3548 3.96997L79.7232 3.99149L79.75 4.77904ZM79.7116 3.65169L80.3432 3.63017L80.3182 2.8946L79.6865 2.91612L79.7116 3.65169ZM81.422 3.45734C81.697 3.77616 81.9106 4.05304 82.0589 4.29613L81.7663 4.51823C81.6054 4.25955 81.3876 3.97481 81.1207 3.65971L81.422 3.45734ZM82.7327 2.45612C82.7796 3.83532 82.7887 4.68751 82.7596 5.00869C82.7294 5.29788 82.5424 5.44834 82.2026 5.45991C82.1227 5.46264 81.9785 5.45955 81.7782 5.45436L81.6744 5.1097C81.8506 5.1117 82.0028 5.11452 82.1307 5.11016C82.2906 5.10471 82.3797 5.01763 82.3979 4.84891C82.4151 4.64821 82.4042 3.97619 82.3734 2.83658L81.37 2.87077C81.2662 3.11444 81.1458 3.33867 81.0007 3.54373L80.7626 3.25167C81.0134 2.8589 81.1813 2.38491 81.2585 1.82996L81.6359 1.86513C81.6035 2.09036 81.5547 2.30015 81.4974 2.49821L82.7327 2.45612Z" fill="white"/>
<path d="M83.6271 1.79832C83.9076 1.99891 84.1442 2.20131 84.3366 2.40153L84.0797 2.67637C83.9116 2.48315 83.6789 2.27659 83.3776 2.05685L83.6271 1.79832ZM86.0732 5.28425C85.8534 5.29334 85.6134 5.29926 85.3575 5.30583C85.0975 5.31258 84.8847 5.29736 84.7152 5.26433C84.5534 5.22298 84.4095 5.13285 84.284 5.00192C84.2252 4.93629 84.1759 4.9063 84.128 4.90829C84.0441 4.91176 83.9076 5.09755 83.7187 5.46567L83.4282 5.21746C83.6146 4.88547 83.786 4.67421 83.9426 4.58767L83.8958 3.45664L83.3603 3.47878L83.3457 3.12708L84.237 3.09023L84.2994 4.60094C84.3201 4.6161 84.3409 4.63526 84.3619 4.65841C84.4582 4.76252 84.5575 4.83848 84.6595 4.88631C84.7817 4.9373 84.9591 4.966 85.1952 4.96425C85.4232 4.95882 85.6911 4.95175 86.0029 4.93886C86.1987 4.93076 86.3983 4.9185 86.598 4.90625C86.7977 4.89399 86.9532 4.87955 87.0608 4.86709L86.9844 5.24657L86.0732 5.28425ZM85.2501 2.12756L84.4787 2.15945L84.4657 1.84372L86.6598 1.753L86.6709 2.02077C86.4473 2.23019 86.2065 2.40829 85.9487 2.56307C85.957 2.57073 85.9651 2.5744 85.9735 2.58206L86.7768 2.54885L86.8501 4.32333C86.8599 4.55913 86.733 4.68448 86.4732 4.69522L86.1655 4.70795L86.0725 4.39552L86.3569 4.39977C86.4448 4.39614 86.491 4.35019 86.4873 4.26227L86.4789 4.05844L85.9034 4.08224L85.9305 4.73768L85.5828 4.75205L85.5557 4.09661L84.9922 4.11991L85.0196 4.78335L84.6599 4.79822L84.5707 2.64006L85.4899 2.60206C85.3544 2.51958 85.2027 2.43378 85.0352 2.35263L85.2501 2.12756ZM85.7094 2.39281C85.8738 2.30194 86.0257 2.19958 86.1653 2.08972L85.2701 2.12673C85.4259 2.21637 85.5736 2.30234 85.7094 2.39281ZM84.9679 3.53242L84.9794 3.81218L85.543 3.78888L85.5314 3.50912L84.9679 3.53242ZM85.8791 3.49474L85.8907 3.7745L86.4662 3.75071L86.4546 3.47095L85.8791 3.49474ZM86.4417 3.15921L86.4301 2.87945L85.8546 2.90325L85.8662 3.18301L86.4417 3.15921ZM85.5185 3.19738L85.5069 2.91762L84.9434 2.94092L84.955 3.22068L85.5185 3.19738Z" fill="white"/>
<path d="M90.6151 1.83173L90.7711 4.94783L90.4036 4.96623L90.3922 4.73852L89.693 4.77352L89.7046 5.00523L89.3371 5.02364L89.1809 1.90355L90.6151 1.83173ZM89.6752 4.41797L90.3743 4.38296L90.2653 2.20569L89.5662 2.2407L89.6752 4.41797ZM87.7705 2.45077C87.6886 2.65512 87.5939 2.84409 87.4905 3.01748L87.1483 2.82235C87.3851 2.43402 87.5487 2.02132 87.635 1.58446L88.0145 1.64555C87.9821 1.79936 87.9412 1.94159 87.9001 2.07982L88.9907 2.02521L89.0089 2.38875L88.4656 2.41596C88.47 2.66405 88.4696 2.89636 88.4563 3.10929L89.0795 3.07809L89.0977 3.44163L88.4225 3.47544C88.4109 3.56413 88.3954 3.65302 88.3834 3.73372C88.6395 3.96921 88.901 4.23246 89.1719 4.52328L88.9578 4.88644C88.6925 4.54728 88.4709 4.28203 88.2931 4.09068C88.1463 4.51856 87.8805 4.88831 87.4874 5.19636L87.2245 4.90514C87.6246 4.57672 87.8775 4.18759 87.9869 3.73355C87.9991 3.65684 88.015 3.57594 88.027 3.49524L87.24 3.53465L87.2218 3.17111L88.0647 3.1289C88.0781 2.91596 88.0785 2.68365 88.0741 2.43556L87.7705 2.45077Z" fill="white"/>
<path d="M91.6509 1.35388L92.5911 3.16798L91.8784 5.08294L91.5503 4.9587L92.2079 3.19137L91.3403 1.5171L91.6509 1.35388ZM92.3336 1.31222L93.2739 3.12632L92.5612 5.04128L92.233 4.91704L92.8906 3.14971L92.007 1.47641L92.3336 1.31222Z" fill="white"/>
</svg>
