<svg width="182" height="28" viewBox="0 0 182 28" fill="none" xmlns="http://www.w3.org/2000/svg">
<path d="M4.64305 1.73297L4.89383 1.99894L3.49141 3.26929L3.50509 5.15495L3.15422 5.1595L3.13922 3.11627L4.64305 1.73297ZM5.27039 2.00555L5.5065 2.26515L4.11875 3.54188L4.13243 5.42753L3.78156 5.43208L3.76656 3.38885L5.27039 2.00555Z" fill="white"/>
<path d="M7.98363 3.15568C7.98991 3.30224 7.98984 3.46349 7.98182 3.64309L9.29961 4.21364L9.15339 4.55135L6.46276 3.38639L6.12742 4.16092C5.76676 4.9637 5.36958 5.55889 4.93062 5.94856L4.7498 5.5608C5.1155 5.23966 5.45777 4.72095 5.77503 4.00834L6.25658 2.89612L7.59639 3.47621C7.59537 3.32757 7.5875 3.18467 7.56592 3.05329L7.98363 3.15568Z" fill="white"/>
<path d="M9.66051 4.09574L12.9603 5.51485L12.8133 5.85659L11.7293 5.3904L11.5255 5.86442L12.4147 6.24685L11.3733 8.66841L11.0242 8.51829L11.0859 8.37498L8.8811 7.4268L8.81947 7.57011L8.47038 7.41998L9.51179 4.99842L10.379 5.37137L10.5829 4.89735L9.51355 4.43748L9.66051 4.09574ZM9.02174 7.09976L11.2265 8.04794L11.4525 7.52247L10.9601 7.31071C10.6955 7.19693 10.6254 7.00566 10.7407 6.73741L11.0378 6.04659L10.5822 5.85063L10.568 5.8837C10.3078 6.46848 9.92077 6.81149 9.41064 6.91432L9.24772 6.57429L9.02174 7.09976ZM10.9283 5.04589L10.7244 5.51992L11.1801 5.71587L11.3839 5.24185L10.9283 5.04589ZM9.25563 6.55592C9.68851 6.48083 10.0098 6.20969 10.2225 5.73516L10.2368 5.70208L9.71865 5.47926L9.25563 6.55592ZM11.3832 6.19514L11.1209 6.80512C11.0735 6.91536 11.096 6.99469 11.1989 7.03894L11.5884 7.20645L11.9234 6.42744L11.3832 6.19514Z" fill="white"/>
<path d="M14.0438 5.84687L14.3935 5.99559L12.9642 9.35629L12.6145 9.20757L13.1186 8.02231C12.8583 8.10286 12.5806 8.16299 12.2877 8.20792L12.3354 7.78918C12.6688 7.76147 12.9843 7.70439 13.2877 7.62477L14.0438 5.84687ZM13.4487 6.22406C13.4716 6.50762 13.4682 6.80176 13.4438 7.10436L13.0982 7.10952C13.1204 6.77121 13.1195 6.46658 13.0883 6.1925L13.4487 6.22406ZM14.1363 7.20328L14.9866 7.5649L15.4625 6.4459L15.8159 6.59618L15.34 7.71519L16.2197 8.08933L16.0757 8.42798L15.196 8.05383L14.5886 9.48204L15.3873 9.82174L15.2417 10.1641L13.3313 9.35159L13.4769 9.00927L14.2352 9.33175L14.8426 7.90355L13.9923 7.54193L14.1363 7.20328Z" fill="white"/>
<path d="M18.5119 9.44056C18.3567 9.58375 18.1975 9.69493 18.0417 9.77719L17.9458 9.44661C18.1804 9.3106 18.4253 9.08783 18.6873 8.77248L18.9504 8.95189C18.8912 9.0312 18.8315 9.10158 18.7717 9.17197L19.7533 9.58245L19.619 9.90351L19.0507 9.66586C18.9739 9.82884 18.898 9.97921 18.8231 10.117L19.6054 10.4441L19.465 10.7799L18.7417 10.4775C18.7491 10.9575 18.8997 11.3543 19.2002 11.6621L18.887 11.8823C18.6142 11.5601 18.4713 11.1448 18.4584 10.6365C18.1854 10.9472 17.8079 11.1449 17.326 11.2295L17.2209 10.8691C17.6514 10.7933 17.9877 10.6217 18.2311 10.3507L18.2841 10.2861L17.6309 10.013L17.7713 9.67715L18.4909 9.97807C18.5659 9.84032 18.6418 9.68996 18.7186 9.52698L18.5119 9.44056ZM16.9361 7.64132L17.4749 7.86662C17.477 7.68539 17.4692 7.51738 17.4494 7.35736L17.8262 7.44122C17.834 7.60923 17.8251 7.7963 17.807 8.00551L18.2425 8.1876L18.1036 8.51973L17.4172 8.2327L17.2305 8.67923L17.8984 8.95855C17.5003 9.91065 17.2349 10.4934 17.1054 10.6994C16.9833 10.9085 16.7731 10.955 16.4852 10.8346C16.4483 10.8192 16.385 10.784 16.3011 10.7359L16.3513 10.4187C16.4294 10.4601 16.4964 10.4968 16.5555 10.5214C16.681 10.5739 16.781 10.542 16.8556 10.4258C16.9302 10.3096 17.1234 9.87879 17.4357 9.14226L17.0925 8.99875C16.7262 9.81243 16.3203 10.3581 15.8836 10.6351L15.7173 10.2967C16.1152 10.0295 16.4891 9.48782 16.8375 8.67534L17.0814 8.09227L16.7972 7.97345L16.9361 7.64132ZM18.6422 8.61057C18.4401 8.80355 18.243 8.96391 18.0435 9.08858L17.9353 8.73552C18.2242 8.55281 18.5304 8.25597 18.8487 7.84714L19.1426 8.05675C19.0631 8.15357 18.9867 8.24301 18.9118 8.32876L20.1924 8.86425L20.0519 9.20007L18.6422 8.61057Z" fill="white"/>
<path d="M23.3242 10.1822L22.0984 13.1814L21.7429 13.0361L21.8277 12.8287L19.9912 12.0781L19.9064 12.2854L19.551 12.1401L20.7768 9.14099L21.5766 9.46789C21.7066 9.36116 21.8234 9.24467 21.921 9.1117L22.2589 9.31033C22.1674 9.4285 22.0619 9.52798 21.9469 9.61923L23.3242 10.1822ZM20.1274 11.7448L21.9639 12.4955L22.1758 11.9771L20.3393 11.2265L20.1274 11.7448ZM20.4724 10.9006L22.3089 11.6513L22.5072 11.1662L20.6707 10.4156L20.4724 10.9006ZM20.8039 10.0898L22.6404 10.8404L22.8311 10.3739L20.9946 9.62322L20.8039 10.0898Z" fill="white"/>
<path d="M24.7519 10.3194C24.9499 10.6128 25.1018 10.8922 25.2143 11.1517L24.8561 11.3069C24.7668 11.0651 24.6163 10.782 24.4071 10.4627L24.7519 10.3194ZM24.2947 11.1494C24.4756 11.4317 24.6155 11.6978 24.7131 11.9515L24.3535 12.1104C24.2753 11.873 24.1457 11.6024 23.9602 11.2882L24.2947 11.1494ZM24.3055 12.3624L24.5702 12.6176C24.2152 13.0149 23.852 13.3788 23.4781 13.7042L23.194 13.4112C23.5893 13.0857 23.9608 12.7337 24.3055 12.3624ZM26.7874 13.1673L26.1432 14.7966L25.7972 14.6598L25.8781 14.4552L24.7101 13.9934L24.6292 14.198L24.2833 14.0612L24.9274 12.4319L26.7874 13.1673ZM24.841 13.6623L26.009 14.1241L26.3135 13.3541L25.1454 12.8923L24.841 13.6623ZM26.9736 11.6409C27.0741 12.0505 27.1486 12.4929 27.1951 12.9629L26.8008 12.992C26.7906 12.8761 26.7828 12.7655 26.772 12.6623C26.1987 12.513 25.5703 12.3291 24.8935 12.1045L24.9604 11.7611C25.1923 11.7839 25.639 11.4917 26.3036 10.877L26.6099 11.1357C26.2087 11.4761 25.8354 11.7457 25.4848 11.9469C25.9043 12.0826 26.3185 12.1991 26.726 12.3C26.6924 12.0802 26.6522 11.8665 26.6061 11.6676L26.9736 11.6409Z" fill="white"/>
<path d="M28.8221 12.7157C29.0563 13.091 29.2718 13.4593 29.4611 13.8176C29.7534 13.6332 30.0322 13.4052 30.2991 13.1299L30.5556 13.4239C30.261 13.7272 29.9573 13.9757 29.6443 14.1694C29.8201 14.5183 29.9757 14.8639 30.1066 15.1958L29.7249 15.3677C29.6137 15.0518 29.473 14.7118 29.3 14.3554C28.8583 14.573 28.3953 14.6885 27.9121 14.7107L27.8283 14.3111C28.282 14.2991 28.714 14.1975 29.122 14.0014C28.9341 13.6393 28.7139 13.2607 28.469 12.8685L28.8221 12.7157ZM28.1684 11.7879L31.1683 12.9246L31.0393 13.265L28.3798 12.2572L27.4401 14.7372L30.2155 15.7888L30.0866 16.1292L26.9708 14.9486L28.1684 11.7879Z" fill="white"/>
<path d="M33.541 13.6319C33.4223 13.9633 33.3111 14.2379 33.2124 14.4659C33.0719 15.5458 33.3402 16.5045 34.0099 17.3394L33.6606 17.5669C33.1104 16.8258 32.8379 15.9973 32.8404 15.089C32.3112 15.7831 31.5595 16.2446 30.5852 16.4734L30.4815 16.075C31.7195 15.8218 32.5465 15.1621 32.9639 14.0922C33.0543 13.8399 33.1283 13.6454 33.1795 13.5024L33.541 13.6319Z" fill="white"/>
<path d="M35.4636 16.6559L35.1625 17.559C35.4952 17.5982 35.8354 17.6147 36.182 17.6122L36.1516 17.9815C35.7481 17.9777 35.2472 17.9372 34.6578 17.8587L34.6768 17.4856C34.7501 17.4679 34.8033 17.4224 34.8286 17.3465L35.7622 14.546L38.5323 15.4695L38.1351 16.661L37.1029 16.3169C37.0637 16.4852 37.0371 16.6407 37.0144 16.7849L38.2211 17.1872L38.1047 17.5363L36.9777 17.1606C36.9764 17.2403 36.9764 17.3162 36.9827 17.3858C37.0105 17.6944 37.0674 17.9284 37.1522 18.0916C37.2357 18.2459 37.3305 18.3408 37.4355 18.38C37.4697 18.3914 37.5114 18.3674 37.5595 18.3117C37.6088 18.2523 37.6834 18.1043 37.7872 17.869L38.0515 18.1511C37.8909 18.4559 37.7606 18.6444 37.6644 18.7178C37.5721 18.7924 37.476 18.8151 37.3836 18.7886C37.2027 18.7241 37.0459 18.5748 36.9093 18.3395C36.7702 18.0992 36.6829 17.7918 36.6437 17.4161C36.6323 17.2985 36.6311 17.1758 36.6361 17.0468L35.4636 16.6559ZM36.7462 16.198L35.7292 15.859L35.58 16.3067L36.669 16.6698C36.6868 16.5155 36.7133 16.3599 36.7462 16.198ZM38.0643 15.6972L36.0114 15.0128L35.8431 15.5174L37.896 16.2019L38.0643 15.6972Z" fill="white"/>
<path d="M39.0448 15.8557L40.6898 16.3581L40.5811 16.7139L40.0264 16.5445L39.8021 17.279L40.2038 17.4016L40.1337 17.6312C40.5214 17.2519 40.8568 16.7562 41.1449 16.1416L41.4878 16.2923C41.3988 16.4743 41.3045 16.6462 41.2086 16.8093L42.3333 17.1528L42.2247 17.5086L41.9722 17.4315C41.7546 18.0342 41.4554 18.5075 41.0667 18.8488C41.1928 19.2303 41.3781 19.5546 41.619 19.8205L41.3189 20.0635C41.0754 19.7925 40.8874 19.4632 40.7613 19.0818C40.4066 19.3122 39.994 19.458 39.5312 19.5216L39.4005 19.1555C39.8927 19.1051 40.3152 18.9539 40.6582 18.7073C40.5908 18.394 40.5557 18.057 40.5491 17.6953C40.4258 17.825 40.2961 17.9485 40.1622 18.0581L40.0412 17.7284L39.6969 17.6233L39.4282 18.5031C39.6282 18.5057 39.8217 18.502 40.0076 18.4961L39.9047 18.8327C39.3866 18.8585 38.7966 18.8456 38.1337 18.7979L38.1359 18.4347C38.217 18.4427 38.2956 18.4458 38.3768 18.4539L38.9095 16.7094L39.25 16.8134L38.7418 18.4775C38.8482 18.4849 38.9471 18.49 39.0459 18.4951L39.6745 16.437L38.9362 16.2115L39.0448 15.8557ZM40.9603 18.4441C41.2426 18.1497 41.4609 17.7772 41.6164 17.3228L40.9967 17.1336C40.9539 17.1916 40.9149 17.2508 40.8732 17.305C40.8635 17.7202 40.8896 18.1004 40.9603 18.4441Z" fill="white"/>
<path d="M44.0094 17.794L44.3376 17.9585C44.2248 18.1433 44.1026 18.3172 43.967 18.4792L43.3821 20.6166L43.0194 20.5173L43.4323 19.0088C43.3196 19.1023 43.2051 19.1871 43.0879 19.267L43.0693 18.8348C43.4562 18.5426 43.7705 18.1973 44.0094 17.794ZM44.2042 18.4611L45.3076 18.7631L45.446 18.2577L45.8048 18.3559L45.6664 18.8613L46.0368 18.9627L45.9397 19.3176L45.5693 19.2163L45.1775 20.6476C45.1015 20.9254 44.9313 21.0323 44.6728 20.9615L44.1519 20.819L44.1681 20.4419C44.3269 20.4978 44.483 20.5488 44.6373 20.591C44.7415 20.6195 44.8124 20.5726 44.8441 20.4568L45.2105 19.1181L44.1071 18.8161L44.2042 18.4611ZM46.2591 17.908L46.1662 18.2475L43.4038 17.4914L43.1567 18.3942C42.9111 19.2311 42.5758 19.8651 42.1471 20.2952L41.9369 19.9722C42.2884 19.6122 42.5745 19.0519 42.7941 18.295L43.1341 17.0527L44.55 17.4402C44.5367 17.337 44.5186 17.2367 44.4973 17.1479L44.9116 17.1949C44.9199 17.3009 44.925 17.4184 44.9281 17.5437L46.2591 17.908ZM44.3727 19.1791C44.5246 19.5027 44.631 19.7806 44.6978 20.0063L44.3722 20.1203C44.3019 19.8771 44.1927 19.5943 44.0474 19.2767L44.3727 19.1791Z" fill="white"/>
<path d="M46.8065 19.2242L47.1023 19.431C46.8628 19.863 46.6105 20.1767 46.3406 20.3752L46.1224 20.0677C46.3826 19.8751 46.61 19.5966 46.8065 19.2242ZM47.9434 18.037L48.3168 18.1267L48.1429 18.8501L49.3719 19.1455C49.2987 19.4159 49.234 19.6677 49.1702 19.8992L49.4568 19.8365C49.5516 20.2295 49.634 20.6566 49.6994 21.1207L49.3218 21.2027C49.2733 20.7879 49.2058 20.4015 49.125 20.0529C49.0403 20.337 48.963 20.5899 48.8951 20.804C48.7553 21.2147 48.6181 21.4944 48.4875 21.644C48.3588 21.7859 48.1944 21.8368 47.9923 21.8047L47.5372 21.6954L47.5221 21.3132C47.6525 21.3528 47.776 21.3866 47.8927 21.4146C48.0832 21.4604 48.2434 21.3591 48.3712 21.1183C48.4988 20.861 48.677 20.2908 48.9086 19.4126L48.0413 19.2042C47.8538 19.8132 47.6234 20.2927 47.3501 20.6425C47.046 21.0178 46.633 21.2641 46.1141 21.3862L45.9894 21.0148C46.4917 20.8763 46.8698 20.6381 47.1229 20.304C47.3365 19.9974 47.5182 19.6009 47.668 19.1144L46.7423 18.892L46.8283 18.5342L47.7695 18.7604L47.9434 18.037Z" fill="white"/>
<path d="M51.6236 18.9084L51.94 19.1167C51.4929 19.878 50.9952 20.4288 50.4479 20.7651L50.2067 20.4498C50.7682 20.1041 51.242 19.5893 51.6236 18.9084ZM52.6679 21.2887C52.8626 21.77 53.0173 22.2675 53.1223 22.7875L52.7413 22.8722C52.7123 22.7355 52.6873 22.5997 52.6567 22.4708C51.9541 22.432 51.1818 22.3542 50.3322 22.236L50.34 21.8619C50.6367 21.8292 51.1483 21.3099 51.8785 20.3048L52.217 20.5053C51.7669 21.1027 51.3317 21.5887 50.9191 21.9651C51.4834 22.0407 52.0362 22.0936 52.5694 22.122C52.4935 21.8367 52.4089 21.5742 52.3115 21.3335L52.6679 21.2887ZM53.0364 19.1674C53.1086 19.9256 53.3642 20.5869 53.8118 21.149L53.4823 21.3996C53.0146 20.7966 52.7475 20.092 52.6819 19.2821L53.0364 19.1674Z" fill="white"/>
<path d="M58.0723 20.2223L58.0095 20.5849L55.2781 20.1125L55.077 21.2753C54.9201 22.0884 54.6375 22.7134 54.233 23.1509L53.9928 22.8495C54.3239 22.4846 54.5607 21.9369 54.7026 21.2105L54.9664 19.6851L58.0723 20.2223ZM55.364 20.6957L57.8629 21.1279L57.8015 21.4826L56.8398 21.3163L56.5412 23.0427C56.4901 23.3383 56.3262 23.4642 56.0503 23.4165L55.6325 23.3442L55.6072 22.9745C55.7345 23.0127 55.8593 23.0424 55.9775 23.0629C56.0918 23.0827 56.1632 23.0219 56.1864 22.8879L56.4693 21.2522L55.3026 21.0504L55.364 20.6957Z" fill="white"/>
<path d="M58.707 21.2995L59.0673 21.3512L58.9871 21.9095L59.3989 21.9686L59.3506 22.3051L58.9388 22.246L58.874 22.6974C59.0573 22.6873 59.2332 22.6722 59.3973 22.6553L59.3461 23.0117C59.1781 23.028 59.0022 23.0431 58.8223 23.0577L58.7012 23.901L58.3409 23.8493L58.4517 23.0772C58.2164 23.0839 57.9692 23.0888 57.7152 23.0846L57.7206 22.7096C57.9944 22.7166 58.2568 22.7179 58.504 22.713L58.5785 22.1943L57.945 22.1033L57.9136 21.7594C58.0472 21.5603 58.1849 21.3053 58.3231 20.9898L57.9747 20.9397L58.027 20.5755L58.4704 20.6391C58.5282 20.4898 58.5872 20.3326 58.6433 20.1669L58.9923 20.2695C58.939 20.4155 58.8863 20.5574 58.8347 20.6914L59.5474 20.7938L59.4951 21.158L58.6874 21.0421C58.5571 21.3305 58.4273 21.5866 58.2942 21.81L58.6268 21.8577L58.707 21.2995ZM59.7058 20.8165L60.3036 20.9023C60.3586 20.7446 60.4096 20.5862 60.4612 20.4239L60.8243 20.5124C60.7739 20.6668 60.7246 20.8133 60.6798 20.9563L61.5984 21.0882L61.5461 21.4525L60.5523 21.3098C60.5063 21.4325 60.461 21.5513 60.4162 21.6661L61.5922 21.8349L61.5404 22.1952L60.2734 22.0133C60.2083 22.1575 60.1443 22.2938 60.0859 22.4188L61.3212 22.5962L61.2769 22.905C61.1138 23.1402 60.888 23.3624 60.5902 23.5782C60.7203 23.6858 60.8413 23.8002 60.9583 23.9139L60.7018 24.2085C60.3395 23.8332 59.9595 23.5241 59.5581 23.2805L59.8026 23.0126C59.9813 23.119 60.1504 23.2363 60.3104 23.3603C60.5424 23.2077 60.7354 23.0455 60.8855 22.873L59.5709 22.6843C59.6848 22.4541 59.7925 22.211 59.9013 21.9599L59.434 21.8928L59.4858 21.5325L60.0441 21.6127C60.09 21.4899 60.1353 21.3712 60.1801 21.2564L59.6535 21.1808L59.7058 20.8165Z" fill="white"/>
<path d="M62.3666 21.9859L62.8136 20.8615L63.1838 20.9683L62.8929 21.6798L63.481 21.7473C63.5903 21.4618 63.6854 21.1587 63.7705 20.8383L64.1505 20.9302C64.0668 21.2387 63.9735 21.5259 63.8745 21.7924L65.6946 22.001L65.6531 22.3626L63.7376 22.1431C63.6829 22.2696 63.625 22.3878 63.5716 22.5025L65.1612 22.6847L65.1248 23.0026C64.9841 23.3167 64.7556 23.5884 64.4315 23.817C64.7144 24.0185 65.0622 24.2154 65.471 24.4072L65.2353 24.7426C64.7745 24.5126 64.3915 24.2714 64.0893 24.0274C63.7503 24.21 63.3421 24.3645 62.8646 24.4909L62.7069 24.1105C63.1207 24.013 63.4806 23.8932 63.7824 23.7546C63.5478 23.5184 63.3785 23.2735 63.2783 23.0245C62.9247 23.5798 62.5093 24.0073 62.0361 24.3073L61.8814 23.9353C62.4854 23.5134 62.9704 22.9006 63.3363 22.097L62.3666 21.9859ZM63.5762 22.8493C63.6804 23.0988 63.862 23.341 64.1214 23.5721C64.395 23.3981 64.6028 23.2005 64.7405 22.9827L63.5762 22.8493ZM64.8231 20.963C65.0736 21.2011 65.28 21.4381 65.4426 21.6702L65.1414 21.9094C65.0061 21.6845 64.8082 21.4444 64.5401 21.1842L64.8231 20.963Z" fill="white"/>
<path d="M69.1497 21.8448L68.8581 25.0717L68.4757 25.0371L68.4958 24.814L66.5199 24.6354L66.4997 24.8585L66.1173 24.824L66.4089 21.5971L67.2694 21.6749C67.3624 21.5347 67.4398 21.3891 67.4941 21.2333L67.8754 21.324C67.8226 21.4638 67.751 21.5899 67.6678 21.7109L69.1497 21.8448ZM66.5523 24.2769L68.5282 24.4555L68.5786 23.8977L66.6027 23.7192L66.5523 24.2769ZM66.6344 23.3686L68.6103 23.5472L68.6575 23.0253L66.6815 22.8467L66.6344 23.3686ZM66.7132 22.4962L68.6892 22.6747L68.7345 22.1728L66.7586 21.9942L66.7132 22.4962Z" fill="white"/>
<path d="M70.4631 21.5418C70.7407 21.7612 70.9703 21.9814 71.1562 22.1945L70.862 22.4511C70.7035 22.2478 70.4742 22.0237 70.178 21.7829L70.4631 21.5418ZM70.2793 22.4714C70.5373 22.6855 70.7514 22.8966 70.9214 23.1086L70.6269 23.3692C70.4804 23.1667 70.2748 22.9482 70.0027 22.7051L70.2793 22.4714ZM70.6576 23.6239L70.9873 23.7867C70.7697 24.273 70.534 24.73 70.2765 25.1535L69.9168 24.9605C70.1948 24.5304 70.4419 24.0822 70.6576 23.6239ZM73.2668 23.6377L73.1474 25.3856L72.7762 25.3603L72.7912 25.1408L71.5382 25.0552L71.5232 25.2747L71.152 25.2493L71.2714 23.5014L73.2668 23.6377ZM71.5624 24.7L72.8155 24.7856L72.8719 23.9595L71.6188 23.874L71.5624 24.7ZM72.9811 22.1267C73.201 22.4865 73.4063 22.8854 73.5932 23.3192L73.2263 23.4665C73.1815 23.3592 73.1405 23.2562 73.0988 23.1611C72.5073 23.1929 71.8527 23.2083 71.1397 23.1997L71.0992 22.8522C71.3271 22.8036 71.6641 22.3896 72.1108 21.6022L72.4812 21.7558C72.2021 22.2018 71.9283 22.572 71.6553 22.8701C72.0962 22.8721 72.5262 22.8574 72.9451 22.8299C72.8464 22.6307 72.7432 22.4392 72.6389 22.2637L72.9811 22.1267Z" fill="white"/>
<path d="M75.2772 22.5937C75.6155 22.8788 75.9339 23.1629 76.2243 23.4456C76.4457 23.1802 76.6409 22.8774 76.8101 22.5334L77.1446 22.7341C76.9576 23.1134 76.745 23.4433 76.5069 23.7238C76.7815 24.0018 77.0359 24.2827 77.2626 24.5582L76.9524 24.8392C76.7493 24.5729 76.5108 24.2927 76.2366 24.0068C75.8832 24.3498 75.4783 24.6021 75.0253 24.772L74.8226 24.4175C75.2506 24.2665 75.6304 24.0369 75.9582 23.7248C75.668 23.4381 75.342 23.1456 74.9883 22.8478L75.2772 22.5937ZM74.3698 21.9121L77.5738 22.0705L77.5559 22.4341L74.7153 22.2936L74.5844 24.9424L77.5487 25.089L77.5308 25.4525L74.2028 25.288L74.3698 21.9121Z" fill="white"/>
<path d="M78.1687 22.5882L79.7798 22.6422C79.6823 22.4468 79.5604 22.2626 79.4142 22.0856L79.7987 21.9584C79.9362 22.1551 80.0645 22.3876 80.1796 22.6556L81.6947 22.7064L81.6821 23.0822L81.0705 23.0617C80.8582 23.6629 80.5573 24.1611 80.1677 24.5603C80.5721 24.914 81.0823 25.2153 81.6905 25.4598L81.4679 25.7725C80.8323 25.511 80.3066 25.1933 79.8949 24.8193C79.4298 25.2039 78.8642 25.4811 78.1981 25.6509L78.0055 25.3082C78.6587 25.162 79.1993 24.916 79.6352 24.5664C79.2102 24.1119 78.9198 23.5819 78.7678 22.9845L78.1561 22.964L78.1687 22.5882ZM79.1315 22.9967C79.283 23.494 79.5403 23.9349 79.9078 24.3154C80.2435 23.9705 80.5019 23.5469 80.6787 23.0485L79.1315 22.9967Z" fill="white"/>
<path d="M83.0205 22.0545L83.3724 22.2309C83.2287 22.5556 83.0453 22.8633 82.8224 23.1501L82.7597 25.7853L82.3838 25.7764L82.4359 23.585C82.268 23.749 82.0881 23.9088 81.8965 24.0603L81.7859 23.6615C82.3369 23.2065 82.7497 22.6722 83.0205 22.0545ZM84.8328 25.7626L84.085 25.7448C83.7651 25.7372 83.6089 25.5735 83.6166 25.2536L83.6432 24.1339C83.4974 24.2064 83.3477 24.2789 83.194 24.3472L83.0306 23.9833C83.2488 23.8924 83.4592 23.7974 83.6538 23.69L83.6908 22.1344L84.0707 22.1435L84.0393 23.4631C84.4374 23.2125 84.7923 22.9249 85.0961 22.6L85.3529 22.9062C84.9637 23.2891 84.5234 23.6307 84.0283 23.923L83.9977 25.2106C83.995 25.3226 84.0537 25.38 84.1816 25.383L84.7775 25.3972C84.8694 25.3994 84.9382 25.369 84.9836 25.3101C85.025 25.2511 85.0581 25.0398 85.0748 24.6721L85.424 24.7964C85.385 25.2556 85.3264 25.5343 85.2521 25.6286C85.1738 25.7227 85.0327 25.7674 84.8328 25.7626Z" fill="white"/>
<path d="M89.8305 22.3825L89.8228 22.7504L87.0514 22.6919L87.0265 23.8716C86.993 24.6991 86.807 25.3593 86.4726 25.8524L86.19 25.5904C86.4627 25.18 86.6149 24.6031 86.6466 23.8636L86.6792 22.316L89.8305 22.3825ZM87.2235 23.2557L89.7589 23.3092L89.7514 23.6691L88.7756 23.6485L88.7386 25.4001C88.7323 25.7 88.5891 25.8491 88.3092 25.8431L87.8853 25.8342L87.8049 25.4724C87.9365 25.4912 88.0643 25.5019 88.1843 25.5044C88.3003 25.5069 88.3618 25.4362 88.3646 25.3002L88.3997 23.6406L87.2159 23.6156L87.2235 23.2557Z" fill="white"/>
<path d="M90.3539 23.409L91.5137 23.4305L91.5175 23.2266L91.8934 23.2335L91.8896 23.4375L93.0335 23.4587L93.0273 23.7907L91.8835 23.7694L91.8779 24.0734L93.4776 24.1031L93.4715 24.431L92.7316 24.4173L92.7258 24.7292L93.2937 24.7398L93.2876 25.0717L92.7197 25.0612L92.7095 25.6091C92.7048 25.861 92.5625 25.9864 92.2905 25.9814L91.7266 25.9709L91.6493 25.6094C91.833 25.6288 92.0047 25.644 92.1647 25.647C92.2767 25.6491 92.3336 25.6021 92.3352 25.5141L92.3437 25.0542L90.1161 25.0129L90.1223 24.6809L92.3499 24.7223L92.3557 24.4103L89.8921 24.3646L89.8982 24.0367L91.5019 24.0664L91.5076 23.7625L90.3478 23.741L90.3539 23.409ZM90.8428 25.0904C91.043 25.2981 91.1956 25.481 91.3047 25.639L91.005 25.8375C90.8881 25.6673 90.7316 25.4804 90.5313 25.2766L90.8428 25.0904ZM90.5605 22.8407C90.4652 23.015 90.3582 23.177 90.2394 23.3269L89.9153 23.1128C90.1525 22.8372 90.3219 22.5443 90.4279 22.2262L90.7863 22.3128C90.761 22.3844 90.7317 22.4559 90.7063 22.5274L91.6622 22.5451L91.6563 22.8611L91.0404 22.8496C91.1262 22.9713 91.1961 23.0806 91.2502 23.1856L90.9039 23.3072C90.8309 23.1458 90.7418 22.9881 90.6405 22.8422L90.5605 22.8407ZM92.1844 22.8589C92.1181 22.9857 92.0439 23.1003 91.9659 23.2069L91.6576 23.0051C91.83 22.7723 91.9586 22.5226 92.0357 22.252L92.3902 22.3346C92.3649 22.4061 92.3435 22.4777 92.3183 22.5453L93.4101 22.5655L93.4042 22.8815L92.7603 22.8695C92.8501 22.9912 92.9199 23.1085 92.97 23.2135L92.6397 23.3314C92.5627 23.1699 92.4736 23.0163 92.3724 22.8623L92.1844 22.8589Z" fill="white"/>
<path d="M94.948 23.1555C95.0293 23.3328 95.1019 23.546 95.1701 23.7951L95.526 23.8006C95.6253 23.5941 95.7167 23.3755 95.7923 23.1447L96.1384 23.2701C96.0633 23.469 95.9845 23.6477 95.898 23.8064L96.3299 23.8132L96.3242 24.1771L94.3125 24.1457L94.3182 23.7818L94.8141 23.7895C94.7529 23.6085 94.6836 23.4354 94.6021 23.2741L94.948 23.1555ZM96.5065 22.4958L97.8943 22.5174L97.8898 22.8054C97.7595 23.2114 97.6176 23.5892 97.4681 23.9389C97.7583 24.3115 97.9056 24.6138 97.906 24.8459C97.9018 25.1178 97.8428 25.305 97.7372 25.4073C97.6236 25.5096 97.3948 25.562 97.0588 25.5567L96.9451 25.1549C97.0888 25.1732 97.2087 25.183 97.3086 25.1846C97.3967 25.182 97.4571 25.1589 97.4818 25.1113C97.5064 25.0717 97.5199 24.9799 97.526 24.84C97.5256 24.6119 97.3703 24.3095 97.0642 23.9326C97.2008 23.6347 97.3344 23.2768 97.4689 22.8628L96.869 22.8535L96.8191 26.0491L96.4511 26.0433L96.5065 22.4958ZM94.4113 22.6871L95.1472 22.6986C95.109 22.582 95.0707 22.4733 95.0322 22.3767L95.4211 22.3188C95.4553 22.4353 95.4893 22.5639 95.5191 22.7044L96.311 22.7167L96.3054 23.0807L94.4056 23.051L94.4113 22.6871ZM96.1597 24.4666L96.1352 26.0344L95.7553 26.0285L95.7585 25.8205L94.8706 25.8066L94.8674 26.0146L94.4954 26.0088L94.5199 24.441L96.1597 24.4666ZM94.8763 25.4467L95.7642 25.4605L95.7741 24.8206L94.8862 24.8067L94.8763 25.4467Z" fill="white"/>
<path d="M100.944 26.0813L100.616 26.077L100.525 25.7198L100.873 25.7323C100.977 25.7336 101.034 25.6624 101.036 25.5224L101.069 22.9506L99.5648 22.9313L99.5693 22.5793L101.441 22.6033L101.402 25.6311C101.398 25.9351 101.244 26.0851 100.944 26.0813ZM98.1472 23.0491L98.5151 23.0538L98.4762 26.0855L98.1082 26.0808L98.1472 23.0491ZM98.8242 22.3537C99.0054 22.572 99.1663 22.8141 99.303 23.0719L98.9607 23.2475C98.8123 22.9656 98.6514 22.7195 98.4782 22.5013L98.8242 22.3537Z" fill="white"/>
<path d="M103.02 22.4607C103.17 22.6622 103.316 22.8836 103.453 23.125L103.204 23.2466L104.032 23.2548C104.178 23.0282 104.309 22.7575 104.424 22.4466L104.795 22.5503C104.704 22.8134 104.59 23.0483 104.46 23.259L105.22 23.2666L105.216 23.6346L103.912 23.6216L103.911 23.7456C103.901 23.9375 103.879 24.1133 103.85 24.277L105.442 24.2928L105.438 24.6608L104.038 24.6469C104.229 25.1328 104.726 25.5178 105.527 25.8058L105.299 26.1635C104.463 25.8112 103.935 25.3499 103.709 24.7836C103.635 24.9709 103.545 25.138 103.44 25.281C103.164 25.6383 102.718 25.9098 102.1 26.0957L101.895 25.7617C102.513 25.5678 102.931 25.3199 103.154 25.0181C103.232 24.9029 103.297 24.7755 103.35 24.6401L101.982 24.6265L101.986 24.2585L103.458 24.2731C103.492 24.1055 103.517 23.9297 103.527 23.7418L103.528 23.6178L102.22 23.6048L102.224 23.2368L103.08 23.2453C102.95 23.012 102.812 22.8066 102.67 22.6252L103.02 22.4607Z" fill="white"/>
<path d="M106.388 22.6089L109.416 22.6298L109.413 23.0018L108.137 22.993L108.131 23.969L109.687 23.9797L109.684 24.3597L108.128 24.349L108.119 25.7129C108.117 25.9929 107.968 26.1359 107.676 26.1339L107.04 26.1295L106.962 25.761C107.166 25.7744 107.362 25.7837 107.546 25.785C107.674 25.7859 107.738 25.7263 107.739 25.6143L107.748 24.3464L106.124 24.3351L106.127 23.9551L107.751 23.9664L107.757 22.9904L106.385 22.9809L106.388 22.6089Z" fill="white"/>
<path d="M111.982 24.3459L111.98 24.7899L112.6 24.7924L112.602 24.3484L111.982 24.3459ZM111.979 25.1419L111.977 25.6379L112.597 25.6404L112.599 25.1444L111.979 25.1419ZM111.975 26.0019L111.975 26.1819L111.599 26.1804L111.607 23.9644C111.527 24.0801 111.439 24.1917 111.346 24.3033L111.22 23.9028C111.537 23.4801 111.763 23.021 111.893 22.5175L112.261 22.591C112.204 22.7908 112.135 22.9825 112.055 23.1662L112.667 23.1686C112.603 22.9764 112.532 22.7841 112.453 22.5998L112.817 22.5052C112.904 22.7496 112.975 22.9698 113.023 23.17L113.635 23.1725L113.633 23.5365L112.981 23.5339L112.979 23.9939L113.551 23.9962L113.55 24.3522L112.978 24.3499L112.976 24.7939L113.548 24.7962L113.547 25.1481L112.975 25.1459L112.973 25.6419L113.669 25.6446L113.667 26.0086L111.975 26.0019ZM112.605 23.5324L111.985 23.5299L111.983 23.9899L112.603 23.9924L112.605 23.5324ZM111.287 24.1231L111.285 24.5111C111.173 24.5627 111.057 24.6102 110.945 24.6577L110.94 25.7457C110.939 26.0057 110.803 26.1372 110.535 26.1361L110.175 26.1347L110.092 25.7663C110.2 25.7828 110.304 25.7912 110.404 25.7916C110.508 25.792 110.56 25.7442 110.561 25.6482L110.564 24.8002C110.412 24.8516 110.256 24.899 110.104 24.9424L110.009 24.558C110.197 24.5188 110.381 24.4715 110.566 24.4162L110.569 23.5762L110.089 23.5743L110.09 23.2063L110.57 23.2082L110.573 22.5042L110.953 22.5058L110.95 23.2098L111.322 23.2112L111.321 23.5792L110.949 23.5777L110.946 24.2777C111.062 24.2302 111.175 24.1787 111.287 24.1231Z" fill="white"/>
<path d="M114.46 22.7665L115.948 22.7681L115.948 23.1321L114.46 23.1305L114.46 22.7665ZM114.311 23.8463L116.091 23.8482L116.09 24.2162L115.19 24.2152C115.046 24.7631 114.921 25.163 114.817 25.4188C115.081 25.3631 115.349 25.2834 115.617 25.1837C115.526 24.9876 115.434 24.8035 115.342 24.6314L115.662 24.4758C115.846 24.812 116.021 25.1841 116.189 25.5883L115.861 25.756L115.757 25.4999C115.337 25.6434 114.885 25.7589 114.397 25.8464L114.305 25.4863C114.345 25.4783 114.369 25.4664 114.385 25.4544C114.493 25.2985 114.638 24.8867 114.822 24.2149L114.31 24.2143L114.311 23.8463ZM116.636 22.5328L117.012 22.5332L117.011 23.3092L117.875 23.3101C117.874 24.6141 117.853 25.4181 117.817 25.7221C117.773 26.026 117.568 26.1778 117.204 26.1774C117.14 26.1774 117.028 26.1692 116.868 26.1611L116.781 25.825C116.925 25.8371 117.049 25.8453 117.153 25.8454C117.329 25.8456 117.429 25.7497 117.461 25.5577C117.485 25.3697 117.498 24.7417 117.507 23.6777L117.011 23.6772L117.011 23.7132C116.998 24.8652 116.721 25.7049 116.176 26.2363L115.893 25.984C116.377 25.5125 116.626 24.7568 116.635 23.7128L116.635 23.6768L116.127 23.6763L116.127 23.3083L116.635 23.3088L116.636 22.5328Z" fill="white"/>
<path d="M119.787 24.3477L119.788 24.7357C119.572 24.808 119.344 24.8724 119.104 24.9367L119.105 25.7727C119.105 26.0287 118.97 26.1609 118.702 26.1613L118.254 26.162L118.169 25.7981C118.309 25.8139 118.441 25.8217 118.569 25.8215C118.669 25.8214 118.721 25.7733 118.721 25.6773L118.72 25.0253C118.48 25.0776 118.236 25.126 117.98 25.1664L117.928 24.7865C118.204 24.7421 118.468 24.6937 118.719 24.6413L118.718 23.9253L117.926 23.9265L117.926 23.5625L118.718 23.5613L118.717 23.1373C118.517 23.1776 118.313 23.2099 118.101 23.2422L118.021 22.8823C118.581 22.8215 119.077 22.7048 119.508 22.5281L119.641 22.8839C119.469 22.9442 119.289 23.0004 119.101 23.0527L119.102 23.5607L119.966 23.5595C119.941 23.2475 119.929 22.9035 119.928 22.5275L120.312 22.5269C120.313 22.9189 120.325 23.2629 120.35 23.5589L121.558 23.5571L121.558 23.9211L120.382 23.9228C120.407 24.1868 120.443 24.4067 120.491 24.5827C120.507 24.6587 120.528 24.7266 120.548 24.7906C120.719 24.5823 120.871 24.3461 120.999 24.0819L121.327 24.2534C121.147 24.6217 120.936 24.938 120.688 25.2024C120.736 25.3103 120.781 25.4023 120.829 25.4742C120.949 25.654 121.041 25.7459 121.105 25.7458C121.157 25.7457 121.209 25.5376 121.26 25.1215L121.596 25.297C121.497 25.8652 121.35 26.1534 121.158 26.1537C120.986 26.1539 120.806 26.0342 120.617 25.7985C120.541 25.7026 120.473 25.5947 120.413 25.4668C120.137 25.6992 119.829 25.8837 119.485 26.0162L119.273 25.6885C119.649 25.5519 119.977 25.3554 120.256 25.099C120.208 24.9671 120.168 24.8312 120.132 24.6872C120.075 24.4713 120.031 24.2154 119.998 23.9234L119.102 23.9247L119.103 24.5527C119.343 24.4884 119.571 24.42 119.787 24.3477ZM120.752 22.5623C121.037 22.7419 121.277 22.9215 121.477 23.1012L121.202 23.3736C121.033 23.1979 120.801 23.0102 120.497 22.8067L120.752 22.5623Z" fill="white"/>
<path d="M123.047 23.3C123.4 23.5666 123.733 23.8333 124.038 24.1001C124.245 23.8233 124.424 23.5106 124.574 23.158L124.919 23.3407C124.752 23.7293 124.558 24.0701 124.335 24.363C124.624 24.6258 124.893 24.8928 125.134 25.1558L124.839 25.453C124.622 25.1978 124.369 24.9308 124.08 24.66C123.745 25.0213 123.355 25.2948 122.911 25.4885L122.69 25.1454C123.109 24.9718 123.476 24.7223 123.787 24.3931C123.482 24.1223 123.141 23.8476 122.772 23.5691L123.047 23.3ZM122.104 22.6677L125.312 22.6551L125.314 23.0191L122.47 23.0303L122.48 25.6822L125.448 25.6706L125.449 26.0346L122.117 26.0477L122.104 22.6677Z" fill="white"/>
<path d="M126.284 22.7464L127.772 22.7373L127.775 23.1013L126.287 23.1104L126.284 22.7464ZM126.143 23.8273L127.923 23.8164L127.925 24.1844L127.025 24.1899C126.885 24.7388 126.763 25.1395 126.661 25.3962C126.924 25.3385 127.192 25.2569 127.459 25.1552C127.366 24.9598 127.273 24.7764 127.18 24.6049L127.499 24.447C127.685 24.7818 127.863 25.1528 128.034 25.5557L127.707 25.7257L127.601 25.4704C127.182 25.617 126.731 25.7357 126.243 25.8267L126.149 25.4673C126.189 25.459 126.213 25.4469 126.229 25.4348C126.336 25.2781 126.477 24.8653 126.657 24.1921L126.145 24.1953L126.143 23.8273ZM128.459 22.4971L128.835 22.4947L128.84 23.2707L129.704 23.2654C129.712 24.5694 129.697 25.3735 129.662 25.6777C129.62 25.982 129.417 26.1352 129.053 26.1375C128.989 26.1379 128.877 26.1306 128.717 26.1235L128.627 25.7881C128.771 25.7992 128.895 25.8064 128.999 25.8058C129.175 25.8047 129.275 25.7081 129.305 25.5159C129.328 25.3278 129.336 24.6997 129.338 23.6357L128.842 23.6387L128.842 23.6747C128.837 24.8268 128.566 25.6685 128.026 26.2038L127.74 25.9535C128.221 25.4786 128.465 24.7211 128.466 23.677L128.466 23.641L127.958 23.6441L127.956 23.2762L128.464 23.273L128.459 22.4971Z" fill="white"/>
<path d="M130.211 22.5058C130.492 22.6876 130.73 22.8658 130.923 23.0482L130.661 23.3143C130.492 23.1397 130.258 22.9495 129.961 22.7478L130.211 22.5058ZM130.139 23.4904C130.404 23.6684 130.626 23.8466 130.807 24.0252L130.545 24.2913C130.392 24.1205 130.17 23.9342 129.889 23.7324L130.139 23.4904ZM130.508 24.6196L130.845 24.7449C130.684 25.2302 130.504 25.6876 130.299 26.1133L129.95 25.956C130.167 25.5223 130.351 25.0768 130.508 24.6196ZM131.199 22.5581L133.155 22.5426L133.164 23.6706L131.208 23.686L131.199 22.5581ZM132.794 23.3975L132.793 23.2375L131.577 23.2471L131.578 23.4071L132.794 23.3975ZM131.575 22.9871L132.791 22.9775L132.79 22.8215L131.574 22.8311L131.575 22.9871ZM130.965 23.8359L133.397 23.8168L133.404 24.6647L130.972 24.6839L130.965 23.8359ZM133.058 24.3875L133.056 24.0955L132.676 24.0985L132.678 24.3905L133.058 24.3875ZM132.358 24.393L132.356 24.101L132.012 24.1037L132.014 24.3957L132.358 24.393ZM131.694 24.3982L131.692 24.1062L131.308 24.1093L131.31 24.4012L131.694 24.3982ZM131.22 25.166L131.004 25.1677L131.001 24.8477L133.285 24.8297L133.288 25.1097C133.113 25.3031 132.902 25.4687 132.66 25.6146C132.936 25.6925 133.249 25.754 133.597 25.7993L133.388 26.1169C132.955 26.0403 132.578 25.9393 132.257 25.8138C131.89 25.9687 131.471 26.08 130.992 26.1558L130.825 25.8251C131.193 25.7782 131.524 25.7076 131.824 25.6132C131.583 25.4831 131.381 25.3327 131.22 25.166ZM132.21 25.4662C132.41 25.3766 132.589 25.2712 132.748 25.1539L131.636 25.1627C131.797 25.2774 131.986 25.3799 132.21 25.4662Z" fill="white"/>
<path d="M135.935 22.3777C135.992 22.5052 136.046 22.6487 136.103 22.8082L137.491 22.7953L137.494 23.1553L136.822 23.1615C136.784 23.3419 136.73 23.5184 136.659 23.6871L137.583 23.6785L137.587 24.0465L134.747 24.0729L134.752 24.6128C134.742 25.237 134.606 25.7422 134.338 26.1248L134.044 25.8715C134.257 25.5655 134.365 25.1485 134.368 24.6164L134.359 23.7085L135.167 23.7009L135.023 23.1783L134.311 23.1849L134.307 22.8249L135.715 22.8118C135.662 22.6803 135.601 22.5569 135.536 22.4455L135.935 22.3777ZM135.543 23.6974L136.295 23.6905C136.366 23.5218 136.42 23.3453 136.458 23.1649L135.394 23.1748L135.543 23.6974Z" fill="white"/>
<path d="M139.446 22.4236L139.826 22.4198L139.858 25.5636L140.338 25.5587L140.306 22.4148L140.686 22.4109L140.718 25.5548L141.886 25.5428L141.89 25.9148L138.322 25.9514L138.318 25.5794L139.478 25.5675L139.446 22.4236ZM141.442 23.1472L141.779 23.2398C141.634 23.9293 141.444 24.5313 141.209 25.0497L140.868 24.9332C141.087 24.4669 141.281 23.8689 141.442 23.1472ZM138.698 23.1674C138.907 23.7012 139.093 24.3114 139.261 24.9977L138.913 25.0892C138.771 24.4627 138.589 23.8565 138.375 23.2747L138.698 23.1674Z" fill="white"/>
<path d="M142.303 23.6462L142.607 22.4749L142.987 22.5348L142.787 23.277L143.379 23.2706C143.452 22.9738 143.509 22.6612 143.553 22.3327L143.942 22.3766C143.897 22.693 143.84 22.9897 143.775 23.2664L145.607 23.2467L145.611 23.6107L143.683 23.6314C143.644 23.7638 143.602 23.8883 143.563 24.0087L145.163 23.9915L145.166 24.3115C145.066 24.6406 144.873 24.9387 144.58 25.2059C144.886 25.3706 145.255 25.5226 145.685 25.662L145.493 26.0241C145.007 25.8533 144.597 25.6617 144.267 25.4572C143.953 25.6806 143.567 25.8848 143.109 26.0697L142.905 25.7119C143.304 25.5636 143.646 25.3999 143.928 25.2249C143.666 25.0197 143.468 24.7978 143.337 24.5632C143.055 25.1582 142.696 25.6341 142.264 25.9907L142.064 25.6409C142.611 25.147 143.016 24.4786 143.279 23.6357L142.303 23.6462ZM143.611 24.3522C143.745 24.5868 143.956 24.8045 144.242 25.0015C144.492 24.7948 144.673 24.5728 144.783 24.3396L143.611 24.3522ZM144.613 22.3253C144.891 22.5304 145.126 22.7399 145.316 22.9498L145.047 23.2248C144.885 23.0185 144.658 22.8049 144.36 22.5801L144.613 22.3253Z" fill="white"/>
<path d="M146.796 23.8057L147.348 23.7998L147.345 23.4798L146.677 23.487L146.68 23.791C146.683 24.031 146.669 24.2631 146.648 24.4794L147.356 24.4718L147.352 24.1358L146.8 24.1417L146.796 23.8057ZM146.603 24.8239C146.532 25.2607 146.412 25.658 146.244 26.0118L145.933 25.7392C146.18 25.2325 146.301 24.5871 146.296 23.7951L146.282 22.4512L149.342 22.4182L149.353 23.4582L148.797 23.4642L148.8 23.7841L149.4 23.7777L149.404 24.1137L148.804 24.1201L148.808 24.4561L149.544 24.4482L149.547 24.7921L149.147 24.7965L149.382 25.0219C149.259 25.1753 149.125 25.3007 148.982 25.3983C149.187 25.5121 149.42 25.5936 149.684 25.6427L149.508 26.0046C148.786 25.8244 148.27 25.426 147.955 24.8093L147.459 24.8147L147.468 25.5746C147.707 25.512 147.918 25.4417 148.097 25.3638L148.173 25.711C147.85 25.8265 147.467 25.9266 147.024 26.0114L146.917 25.6806C147.036 25.6313 147.095 25.5466 147.094 25.4186L147.087 24.8187L146.603 24.8239ZM148.339 24.8052C148.437 24.9521 148.55 25.0789 148.679 25.1895C148.83 25.0959 148.969 24.9664 149.095 24.797L148.339 24.8052ZM148.429 23.4681L147.709 23.4759L147.712 23.7959L148.432 23.7881L148.429 23.4681ZM147.72 24.4678L148.44 24.4601L148.436 24.1241L147.716 24.1318L147.72 24.4678ZM148.961 22.7703L146.67 22.7951L146.673 23.147L148.965 23.1223L148.961 22.7703Z" fill="white"/>
<path d="M153.169 24.3861L153.185 25.894L152.833 25.8977L152.831 25.6817L151.227 25.6984L151.229 25.9304L150.881 25.9341L150.869 24.7581C150.655 24.9284 150.412 25.0709 150.142 25.1937L149.946 24.8558C150.448 24.6305 150.837 24.3384 151.109 23.9756L150.041 23.9867L150.037 23.6347L151.325 23.6213C151.392 23.4806 151.446 23.336 151.485 23.1876L151.857 23.2277C151.819 23.3641 151.776 23.4926 151.729 23.6171L153.573 23.5978L153.577 23.9498L151.553 23.9709C151.459 24.1279 151.356 24.273 151.241 24.4062L153.169 24.3861ZM151.223 25.3665L152.827 25.3497L152.821 24.7258L151.217 24.7425L151.223 25.3665ZM150.043 22.6266L150.923 22.6174L150.919 22.2815L151.287 22.2776L151.291 22.6136L152.287 22.6032L152.283 22.2672L152.651 22.2634L152.655 22.5994L153.531 22.5902L153.534 22.9422L152.658 22.9514L152.662 23.2833L152.294 23.2872L152.29 22.9552L151.294 22.9656L151.298 23.3136L150.93 23.3174L150.926 22.9694L150.046 22.9786L150.043 22.6266Z" fill="white"/>
<path d="M154.488 22.4445L157.468 22.4156L157.471 22.7755L156.175 22.7881L156.185 23.8201L157.777 23.8046L157.781 24.1726L156.189 24.1881L156.206 25.904L155.822 25.9077L155.805 24.1918L154.201 24.2074L154.197 23.8394L155.801 23.8238L155.791 22.7919L154.491 22.8045L154.488 22.4445Z" fill="white"/>
<path d="M158.943 22.7299L158.319 22.7354L158.316 22.4154L159.636 22.4039C159.604 22.3361 159.571 22.2724 159.539 22.2167L159.95 22.1491C159.983 22.2248 160.019 22.3085 160.052 22.4002L161.436 22.3882L161.439 22.7081L160.803 22.7137L160.689 22.9547L161.629 22.9465L161.632 23.2745L158.136 23.305L158.133 22.977L159.041 22.9691L158.943 22.7299ZM159.437 22.9656L160.293 22.9581L160.407 22.7171L159.339 22.7265L159.437 22.9656ZM158.554 23.4693L161.217 23.4461L161.228 24.6941L158.564 24.7173L158.554 23.4693ZM160.854 24.4093L160.852 24.2093L158.932 24.2261L158.934 24.4261L160.854 24.4093ZM158.93 23.9541L160.85 23.9373L160.848 23.7413L158.928 23.7581L158.93 23.9541ZM158.414 24.8746L158.782 24.9474C158.693 25.2642 158.568 25.5373 158.406 25.7707L158.076 25.5696C158.234 25.3522 158.344 25.1232 158.414 24.8746ZM160.466 25.8048L159.49 25.8133C159.182 25.816 159.029 25.6773 159.026 25.4053L159.022 24.8933L159.406 24.89L159.41 25.3219C159.411 25.4219 159.471 25.4734 159.595 25.4723L160.391 25.4654C160.463 25.4648 160.515 25.4483 160.543 25.4201C160.582 25.3837 160.609 25.2795 160.624 25.1033L160.985 25.2162C160.955 25.4965 160.901 25.669 160.813 25.7257C160.738 25.7744 160.622 25.8034 160.466 25.8048ZM159.993 24.7208C160.154 24.8794 160.275 25.0184 160.36 25.1416L160.046 25.3644C159.953 25.2332 159.828 25.0863 159.67 24.9277L159.993 24.7208ZM161.241 24.7939C161.463 25.052 161.633 25.2785 161.751 25.4695L161.437 25.6923C161.311 25.4774 161.145 25.2428 160.935 24.9886L161.241 24.7939Z" fill="white"/>
<path d="M165.173 22.2876L165.19 24.5235L164.806 24.5264L164.792 22.6624L163.12 22.6749L163.134 24.5428L162.75 24.5457L162.733 22.3058L165.173 22.2876ZM163.741 22.8983L164.117 22.8955L164.123 23.6434C164.117 23.8595 164.094 24.0557 164.055 24.24L164.395 24.2374L164.402 25.1814C164.404 25.3294 164.456 25.405 164.56 25.4042L165.144 25.3999C165.192 25.3995 165.24 25.3792 165.28 25.3429C165.323 25.3025 165.354 25.1343 165.368 24.8382L165.733 24.9555C165.692 25.3438 165.637 25.5722 165.57 25.6447C165.49 25.7093 165.383 25.7461 165.247 25.7551L164.459 25.761C164.171 25.7631 164.026 25.5922 164.023 25.2522L164.017 24.3962C163.943 24.6608 163.836 24.8856 163.694 25.0787C163.432 25.4166 163.006 25.6758 162.415 25.8642L162.209 25.5458C162.8 25.3573 163.202 25.1183 163.412 24.8288C163.618 24.5232 163.727 24.1304 163.747 23.6462L163.741 22.8983Z" fill="white"/>
<path d="M167.488 22.7843L167.505 25.5682L167.141 25.5704L167.14 25.3624L166.508 25.3663L166.509 25.6903L166.146 25.6925L166.128 22.7925L166.508 22.7902C166.579 22.5738 166.633 22.3535 166.664 22.1213L167.044 22.171C167.006 22.3912 166.947 22.5956 166.872 22.788L167.488 22.7843ZM166.505 25.0143L167.137 25.0105L167.133 24.2225L166.501 24.2263L166.505 25.0143ZM166.499 23.8863L167.131 23.8825L167.126 23.1465L166.494 23.1503L166.499 23.8863ZM168.214 23.7399C168.48 24.0663 168.685 24.3491 168.827 24.5962L168.528 24.81C168.375 24.547 168.165 24.2562 167.907 23.9338L168.214 23.7399ZM169.552 22.7758C169.56 24.1558 169.545 25.0079 169.507 25.3281C169.469 25.6164 169.278 25.7615 168.938 25.7636C168.858 25.7641 168.714 25.7569 168.514 25.7461L168.42 25.3987C168.596 25.4056 168.748 25.4127 168.876 25.412C169.036 25.411 169.127 25.3264 169.15 25.1583C169.173 24.9581 169.181 24.2861 169.182 23.1461L168.178 23.1521C168.068 23.3928 167.941 23.6136 167.79 23.8145L167.56 23.5159C167.822 23.1303 168.003 22.6612 168.096 22.1086L168.472 22.1543C168.434 22.3786 168.379 22.5869 168.316 22.7833L169.552 22.7758Z" fill="white"/>
<path d="M170.455 22.1472C170.728 22.358 170.957 22.569 171.142 22.7762L170.875 23.0414C170.714 22.8421 170.489 22.6271 170.196 22.3964L170.455 22.1472ZM172.771 25.721C172.551 25.7219 172.311 25.719 172.055 25.7161C171.795 25.7133 171.583 25.6902 171.415 25.651C171.254 25.6037 171.114 25.5083 170.993 25.3729C170.937 25.3051 170.889 25.2733 170.841 25.2735C170.757 25.2739 170.614 25.4546 170.411 25.8155L170.13 25.5567C170.329 25.2318 170.508 25.027 170.667 24.9463L170.662 23.8143L170.126 23.8167L170.125 23.4647L171.017 23.4607L171.024 24.9727C171.044 24.9886 171.064 25.0086 171.084 25.0325C171.176 25.1401 171.273 25.2196 171.373 25.2712C171.493 25.3266 171.669 25.3619 171.905 25.3688C172.133 25.3718 172.401 25.3746 172.713 25.3732C172.909 25.3723 173.109 25.3674 173.309 25.3626C173.509 25.3577 173.665 25.349 173.773 25.3405L173.683 25.7169L172.771 25.721ZM172.065 22.5361L171.293 22.5395L171.291 22.2235L173.487 22.2137L173.489 22.4817C173.257 22.6828 173.01 22.8519 172.747 22.997C172.755 23.005 172.763 23.009 172.771 23.0169L173.575 23.0134L173.583 24.7893C173.584 25.0253 173.452 25.1459 173.192 25.1471L172.884 25.1484L172.803 24.8328L173.087 24.8475C173.175 24.8472 173.223 24.8029 173.222 24.7149L173.222 24.5109L172.646 24.5135L172.648 25.1695L172.3 25.171L172.298 24.5151L171.734 24.5176L171.737 25.1816L171.377 25.1832L171.367 23.0232L172.287 23.0191C172.155 22.9317 172.006 22.8403 171.842 22.7531L172.065 22.5361ZM172.514 22.8181C172.682 22.7333 172.837 22.6366 172.981 22.532L172.085 22.536C172.237 22.6313 172.382 22.7227 172.514 22.8181ZM171.731 23.9296L171.732 24.2096L172.296 24.2071L172.295 23.9271L171.731 23.9296ZM172.643 23.9255L172.644 24.2055L173.22 24.2029L173.219 23.9229L172.643 23.9255ZM173.218 23.6109L173.216 23.331L172.64 23.3335L172.642 23.6135L173.218 23.6109ZM172.294 23.6151L172.292 23.3351L171.728 23.3376L171.73 23.6176L172.294 23.6151Z" fill="white"/>
<path d="M177.422 22.4736L177.43 25.5936L177.062 25.5947L177.062 25.3667L176.362 25.3686L176.363 25.6006L175.995 25.6017L175.986 22.4777L177.422 22.4736ZM176.361 25.0126L177.061 25.0107L177.055 22.8307L176.355 22.8327L176.361 25.0126ZM174.551 22.9577C174.46 23.158 174.356 23.3423 174.245 23.5106L173.912 23.2996C174.167 22.9228 174.35 22.5183 174.457 22.086L174.833 22.165C174.793 22.3171 174.746 22.4572 174.698 22.5933L175.79 22.5902L175.791 22.9542L175.247 22.9558C175.24 23.2038 175.228 23.4358 175.205 23.6479L175.829 23.6461L175.83 24.0101L175.154 24.0121C175.138 24.1001 175.119 24.1882 175.103 24.2682C175.347 24.5155 175.596 24.7908 175.853 25.0941L175.622 25.4467C175.373 25.0954 175.164 24.82 174.996 24.6205C174.829 25.041 174.546 25.3978 174.139 25.6869L173.89 25.3836C174.305 25.0745 174.576 24.6977 174.707 24.2493C174.722 24.1733 174.742 24.0932 174.758 24.0132L173.97 24.0154L173.969 23.6514L174.813 23.649C174.836 23.4369 174.848 23.2049 174.855 22.9569L174.551 22.9577Z" fill="white"/>
<path d="M178.352 22.0517L179.182 23.9188L178.356 25.7877L178.036 25.6441L178.798 23.9193L178.032 22.1961L178.352 22.0517ZM179.036 22.051L179.866 23.9181L179.04 25.787L178.72 25.6433L179.482 23.9185L178.7 22.1954L179.036 22.051Z" fill="white"/>
</svg>
