<svg width="86" height="13" viewBox="0 0 86 13" fill="none" xmlns="http://www.w3.org/2000/svg">
<path d="M3.68389 6.71775L4.01871 6.86447L3.22476 8.58208L3.97475 10.3122L3.65359 10.4536L2.84077 8.57897L3.68389 6.71775ZM4.36787 6.72329L4.68669 6.86988L3.90873 8.58763L4.65873 10.3178L4.33757 10.4592L3.52475 8.58452L4.36787 6.72329Z" fill="white"/>
<path d="M5.79095 8.52977L5.78841 9.59376C6.11658 9.52255 6.46478 9.43938 6.82503 9.33623L6.9242 9.68447C6.43188 9.8193 5.9276 9.9341 5.41537 10.0329L5.26412 9.71652C5.36024 9.66475 5.40842 9.58886 5.40866 9.48886L5.41444 7.06087C5.91463 6.98206 6.37088 6.87914 6.78319 6.74813L7.01847 7.05269C6.66219 7.16784 6.25396 7.26687 5.79375 7.35377L5.79181 8.16577L6.89581 8.1684L6.89494 8.5324L5.79095 8.52977ZM8.26764 9.91967L7.89164 9.91877L7.78852 9.55053L8.1445 9.55938C8.2485 9.55962 8.30064 9.49975 8.30091 9.38775L8.30584 7.31575L7.51785 7.31388L7.51036 10.4579L7.12636 10.457L7.13471 6.95296L8.6907 6.95667L8.68472 9.46866C8.684 9.76866 8.54364 9.92033 8.26764 9.91967Z" fill="white"/>
<path d="M9.27945 8.04859L9.59245 6.87978L9.97261 6.9428L9.76652 7.68334L10.3585 7.68181C10.4338 7.38562 10.493 7.07347 10.5401 6.74534L10.9282 6.79235C10.881 7.10847 10.8218 7.40462 10.7545 7.6808L12.5865 7.67609L12.5874 8.04009L10.6594 8.04504C10.6198 8.17714 10.5761 8.30126 10.5364 8.42136L12.1364 8.41725L12.1372 8.73725C12.0341 9.06551 11.8388 9.36202 11.5435 9.62678C11.8479 9.79399 12.2163 9.94905 12.6447 10.0919L12.4496 10.4524C11.9652 10.2777 11.5567 10.0827 11.2282 9.87559C10.9127 10.0964 10.5252 10.2974 10.0657 10.4786L9.86478 10.1191C10.2644 9.97406 10.608 9.81318 10.8915 9.64045C10.631 9.43312 10.4344 9.20962 10.3058 8.97395C10.0194 9.56669 9.65657 10.0396 9.22148 10.3927L9.02457 10.0413C9.57532 9.55183 9.98561 8.88678 10.2555 8.04608L9.27945 8.04859ZM10.5813 8.76525C10.7139 9.00091 10.9225 9.22037 11.207 9.41964C11.4585 9.21499 11.6419 8.99452 11.7533 8.76223L10.5813 8.76525ZM11.6001 6.74662C11.8766 6.95391 12.1092 7.16531 12.2977 7.37683L12.0264 7.64953C11.8659 7.44194 11.6413 7.22652 11.3448 6.99928L11.6001 6.74662Z" fill="white"/>
<path d="M14.1339 6.76199C14.2875 6.96081 14.4372 7.17967 14.579 7.41859L14.3319 7.54449L15.1599 7.53814C15.3022 7.30904 15.4281 7.03606 15.5377 6.72321L15.9104 6.82036C15.8245 7.08502 15.7143 7.32188 15.5879 7.53485L16.3479 7.52902L16.3507 7.89701L15.0468 7.90702L15.0477 8.03101C15.0412 8.22307 15.0225 8.39922 14.9958 8.56343L16.5877 8.55121L16.5906 8.9192L15.1906 8.92994C15.3903 9.41242 15.8932 9.78858 16.6993 10.0624L16.4781 10.4241C15.6355 10.0866 15.1 9.63466 14.8637 9.07245C14.7931 9.261 14.7064 9.42967 14.6035 9.57447C14.3343 9.93654 13.8924 10.2159 13.2779 10.4127L13.0674 10.0823C13.6818 9.87755 14.0959 9.62236 14.3135 9.31668C14.3887 9.2001 14.4517 9.07162 14.5026 8.93522L13.1347 8.94572L13.1318 8.57773L14.6038 8.56643C14.6345 8.39819 14.6572 8.22201 14.6637 8.03396L14.6628 7.90996L13.3548 7.92L13.352 7.55201L14.208 7.54544C14.0742 7.31446 13.9326 7.11154 13.7872 6.93265L14.1339 6.76199Z" fill="white"/>
<path d="M17.3 6.85158L20.3278 6.8118L20.3327 7.18377L19.0568 7.20054L19.0696 8.17645L20.6255 8.15601L20.6305 8.53598L19.0746 8.55642L19.0925 9.9203C19.0962 10.2003 18.9501 10.3462 18.6581 10.35L18.0222 10.3584L17.9374 9.99148C18.1415 10.0008 18.3376 10.0062 18.5216 10.0038C18.6496 10.0021 18.7128 9.94129 18.7113 9.8293L18.6946 8.56141L17.0708 8.58275L17.0658 8.20278L18.6896 8.18144L18.6768 7.20553L17.3049 7.22355L17.3 6.85158Z" fill="white"/>
<path d="M24.2927 8.29176L23.4449 8.30799L23.4495 8.55195L24.3534 8.53464L24.3593 8.84659L23.4555 8.86389L23.4602 9.11184L24.4801 9.09232L24.4861 9.40826L23.4663 9.42779L23.4725 9.75173L23.1046 9.75877L23.0984 9.43483L22.2225 9.4516L22.2165 9.13566L23.0923 9.11889L23.0876 8.87093L22.3357 8.88533L22.3297 8.57339L23.0816 8.55899L23.0769 8.31504L22.409 8.32782L22.403 8.01188L23.0709 7.99909L23.0661 7.75114L22.2023 7.76768L22.1964 7.45974L23.0602 7.4432L23.0556 7.20324L22.3878 7.21603L22.3818 6.90408L23.0497 6.8913L23.0445 6.62335L23.4125 6.6163L23.4176 6.88425L24.2654 6.86802L24.276 7.41992L24.516 7.41533L24.5219 7.72327L24.2819 7.72786L24.2927 8.29176ZM23.4236 7.1962L23.4282 7.43615L23.9121 7.42689L23.9075 7.18693L23.4236 7.1962ZM23.4341 7.7441L23.4388 7.99205L23.9227 7.98279L23.918 7.73483L23.4341 7.7441ZM23.2072 9.89283C23.6591 9.88418 24.1268 9.86322 24.6064 9.83804L24.5493 10.2032L23.3776 10.2256C22.6417 10.2397 22.1157 10.1418 21.7958 9.93986C21.7553 9.91263 21.7227 9.88525 21.6983 9.86171C21.5737 10.0401 21.4286 10.1949 21.2632 10.3301L21.009 10.0109C21.1827 9.88758 21.3239 9.74085 21.4367 9.57067C21.2844 9.34954 21.1591 9.07589 21.0569 8.74978L21.3746 8.62768C21.4472 8.86633 21.5271 9.06884 21.6182 9.23113C21.7214 8.97711 21.7798 8.68793 21.7977 8.36753L21.0778 8.38132L21.0723 8.09337C21.2829 7.80929 21.4732 7.50959 21.6512 7.19412L21.0553 7.20553L21.0484 6.8456L22.0682 6.82607L22.0742 7.13802C21.9007 7.4774 21.7303 7.77271 21.5592 8.02804L22.139 8.01694L22.1434 8.24489C22.1372 8.75711 22.0457 9.19894 21.8687 9.57039C21.9176 9.61747 21.9704 9.65646 22.027 9.68739C22.2897 9.82638 22.6831 9.89486 23.2072 9.89283Z" fill="white"/>
<path d="M25.559 6.6387C25.82 6.82392 26.037 7.01429 26.218 7.20161L25.965 7.47234C25.8082 7.28839 25.587 7.09413 25.3056 6.89344L25.559 6.6387ZM25.0771 7.79175L25.9728 7.76824L26.0172 9.45966C26.1384 9.35244 26.2672 9.22902 26.4076 9.08929L26.5221 9.48642C26.2685 9.73316 25.9982 9.95632 25.7112 10.1519L25.5583 9.81182C25.6208 9.75416 25.6549 9.68124 25.6527 9.59727L25.6145 8.14177L25.0867 8.15562L25.0771 7.79175ZM26.5171 8.23012L28.4564 8.17922L28.4656 8.5271C28.3589 8.88602 28.175 9.19495 27.9138 9.4579C28.1741 9.61912 28.49 9.76288 28.8532 9.88139L28.6579 10.2146C28.2538 10.0652 27.9171 9.88996 27.64 9.69716C27.334 9.92927 26.9508 10.1194 26.4985 10.2673L26.2782 9.95298C26.6988 9.8179 27.0506 9.65261 27.3335 9.45312C27.0546 9.19635 26.859 8.90938 26.7547 8.59201L26.5268 8.59799L26.5171 8.23012ZM27.1106 8.58267C27.2089 8.82417 27.3706 9.04 27.5998 9.23406C27.8106 9.03246 27.9728 8.80812 28.0822 8.55717L27.1106 8.58267ZM26.7565 6.6793L28.172 6.64215L28.1941 7.48186C28.1964 7.56983 28.2456 7.61656 28.3456 7.61393L28.6974 7.6047L28.7066 7.95258L28.2547 7.96444C27.9708 7.97189 27.8273 7.83961 27.8204 7.5757L27.8055 7.00789L27.1417 7.02531L27.1449 7.14527C27.1558 7.56113 26.9523 7.89058 26.5385 8.12952L26.2789 7.84423C26.6108 7.68347 26.7772 7.46703 26.77 7.19512L26.7565 6.6793Z" fill="white"/>
<path d="M31.0158 6.36653C31.0843 6.49625 31.1534 6.64196 31.2231 6.80765L32.6583 6.75821L32.6709 7.12599L29.7407 7.22695L29.7697 8.07045C29.788 8.95034 29.6843 9.65833 29.4548 10.1986L29.1252 9.92574C29.318 9.47884 29.4048 8.86348 29.386 8.08367L29.3442 6.87239L30.8034 6.82212C30.7387 6.68826 30.6703 6.56254 30.5945 6.45309L31.0158 6.36653Z" fill="white"/>
<path d="M32.9882 6.49424L36.5767 6.33487L36.5932 6.70651L35.4144 6.75886L35.4372 7.27435L36.4043 7.2314L36.5212 9.86481L36.1416 9.88167L36.1347 9.72582L33.7371 9.8323L33.744 9.98815L33.3644 10.005L33.2474 7.3716L34.1905 7.32972L34.1676 6.81423L33.0047 6.86587L32.9882 6.49424ZM33.7213 9.47665L36.1189 9.37017L36.0935 8.79873L35.5581 8.82252C35.2703 8.83529 35.1239 8.69365 35.111 8.40194L35.0776 7.65068L34.5821 7.67268L34.5837 7.70865C34.6041 8.34837 34.4051 8.82567 33.9906 9.14037L33.6959 8.90521L33.7213 9.47665ZM34.5432 6.79755L34.5661 7.31304L35.0616 7.29103L35.0387 6.77554L34.5432 6.79755ZM33.695 8.88523C34.052 8.62914 34.2231 8.24517 34.208 7.72533L34.2064 7.68936L33.643 7.71439L33.695 8.88523ZM35.4532 7.634L35.4827 8.29734C35.488 8.41722 35.5428 8.47885 35.6547 8.47388L36.0783 8.45507L36.0406 7.60791L35.4532 7.634Z" fill="white"/>
<path d="M38.5215 7.69046L37.7787 7.73296L37.8658 9.25447C37.8713 9.35032 37.9261 9.39926 38.034 9.39309L38.7288 9.35333C38.8486 9.34648 38.9227 9.31019 38.9472 9.24869C38.9755 9.18296 38.9917 9.04581 38.996 8.84123L39.3583 8.9407C39.3462 9.28996 39.3104 9.50435 39.2426 9.58035C39.1824 9.6479 39.0524 9.68739 38.8608 9.69836L37.8903 9.75389C37.6388 9.76828 37.5081 9.65556 37.4944 9.41595L37.3859 7.51906L37.2051 7.72171L36.9639 7.42701C37.3234 7.05787 37.6473 6.62666 37.9358 6.13738L38.2154 6.12139C38.5878 6.46868 38.9452 6.83285 39.2795 7.21438L39.0468 7.48812C38.6773 7.05252 38.3737 6.71732 38.1281 6.48697C37.938 6.80635 37.7233 7.11512 37.476 7.41374L38.8737 7.33376L38.9368 8.43595C38.9453 8.65582 38.8322 8.77849 38.5935 8.80817C38.4377 8.81709 38.2897 8.82155 38.1495 8.82156L38.0373 8.4714C38.186 8.47891 38.3142 8.47959 38.4261 8.47319C38.5179 8.46794 38.5631 8.41727 38.5581 8.32942L38.5215 7.69046ZM39.4124 6.38543L39.7838 6.36418L39.9248 8.82815L39.5534 8.8494L39.4124 6.38543ZM40.292 9.64451L39.689 9.67901L39.5804 9.32063C39.777 9.32541 39.9651 9.32266 40.1408 9.3126C40.2367 9.30712 40.2812 9.24447 40.2745 9.12866L40.0958 6.00577L40.4752 5.98406L40.6594 9.2028C40.6754 9.48234 40.5516 9.62965 40.292 9.64451Z" fill="white"/>
<path d="M41.757 6.42527L41.1347 6.4715L41.111 6.15238L42.4273 6.05459C42.3904 5.98915 42.3537 5.9277 42.3177 5.87422L42.7238 5.77987C42.7613 5.85329 42.8035 5.9344 42.8422 6.02377L44.2224 5.92124L44.2461 6.24036L43.6118 6.28748L43.5139 6.53541L44.4514 6.46578L44.4757 6.79288L40.9893 7.05187L40.965 6.72477L41.8705 6.6575L41.757 6.42527ZM42.2654 6.62817L43.119 6.56475L43.2169 6.31682L42.1519 6.39594L42.2654 6.62817ZM41.4166 7.18859L44.0733 6.99123L44.1657 8.2358L41.509 8.43316L41.4166 7.18859ZM43.7734 7.97615L43.7586 7.7767L41.8439 7.91894L41.8587 8.11839L43.7734 7.97615ZM41.8237 7.64769L43.7384 7.50545L43.7239 7.30999L41.8092 7.45223L41.8237 7.64769ZM41.369 8.59999L41.7416 8.64852C41.6733 8.97047 41.5658 9.2512 41.4194 9.49471L41.0772 9.31557C41.2208 9.08831 41.3156 8.85264 41.369 8.59999ZM43.4776 9.39396L42.5043 9.46627C42.1971 9.48908 42.0352 9.36073 42.015 9.08947L41.9771 8.57888L42.3601 8.55043L42.3921 8.98125C42.3995 9.08097 42.4632 9.12838 42.5868 9.1192L43.3806 9.06023C43.4524 9.0549 43.5031 9.03509 43.5289 9.00509C43.5662 8.96623 43.5864 8.86044 43.5893 8.68374L43.9569 8.77275C43.9457 9.05435 43.9026 9.23002 43.819 9.29239C43.7468 9.34589 43.6332 9.3824 43.4776 9.39396ZM42.9343 8.34332C43.1057 8.49103 43.2357 8.62176 43.3287 8.73919L43.0299 8.982C42.9283 8.85718 42.7937 8.71877 42.6263 8.57077L42.9343 8.34332ZM44.1851 8.33464C44.4237 8.57763 44.6082 8.79255 44.7381 8.97543L44.4392 9.21824C44.2996 9.01202 44.1185 8.78882 43.8922 8.54893L44.1851 8.33464Z" fill="white"/>
<path d="M46.6873 5.46909L47.0777 5.43445L47.1389 6.12374L48.5573 5.99791L48.728 7.92235L48.3495 7.95593L48.3294 7.72882L47.2895 7.82108L47.4079 9.15583L47.0174 9.19047L46.899 7.85571L45.8631 7.94761L45.8832 8.17472L45.5047 8.2083L45.334 6.28385L46.7484 6.15838L46.6873 5.46909ZM45.8302 7.57707L46.8661 7.48517L46.7813 6.52892L45.7454 6.62082L45.8302 7.57707ZM47.2566 7.45053L48.2965 7.35828L48.2117 6.40203L47.1718 6.49429L47.2566 7.45053Z" fill="white"/>
<path d="M51.5968 8.60435L50.7128 8.68941C50.4023 8.71929 50.2321 8.57895 50.2029 8.27635L49.9861 6.02276L50.3643 5.98636L50.5735 8.16032C50.5843 8.27181 50.6573 8.32103 50.7927 8.30801L51.4895 8.24096C51.5691 8.23329 51.621 8.18811 51.6496 8.10901C51.6809 8.01759 51.6875 7.75173 51.6605 7.30426L52.0304 7.38923C52.0529 7.95768 52.0254 8.29788 51.9485 8.4178C51.8785 8.525 51.76 8.58864 51.5968 8.60435ZM49.4228 6.4748L49.7924 6.51558C49.7531 7.23465 49.6568 7.86276 49.5072 8.39555L49.1611 8.2239C49.3089 7.67121 49.3934 7.08843 49.4228 6.4748ZM52.0881 6.10982C52.3703 6.62113 52.6318 7.16659 52.8652 7.75494L52.5338 7.94355C52.2798 7.30896 52.0129 6.74795 51.7336 6.2685L52.0881 6.10982ZM50.5622 5.11942C50.9513 5.48785 51.2557 5.81217 51.476 6.09639L51.1781 6.34204C50.9476 6.03471 50.6464 5.70204 50.2704 5.34441L50.5622 5.11942Z" fill="white"/>
<path d="M55.0335 7.60314C54.746 7.97818 54.2554 8.29348 53.5657 8.54863L53.3259 8.24736C54.0463 7.97703 54.5265 7.67886 54.7624 7.34929L54.8207 7.25088L53.2767 7.40803L53.2402 7.04988L54.9792 6.87288C55.0504 6.62439 55.079 6.3521 55.065 6.056L55.0156 5.57051L55.3817 5.53324L55.4311 6.01874C55.4491 6.31443 55.4325 6.58551 55.3772 6.83238L56.6267 6.70519L56.6632 7.06334L55.2584 7.20632C55.2418 7.24018 55.2251 7.27404 55.2125 7.3075C55.7835 7.46649 56.3148 7.66974 56.8056 7.90927L56.6319 8.25665C56.1044 7.9726 55.5719 7.75742 55.0335 7.60314ZM53.7323 6.23587C54.0266 6.32251 54.2995 6.43547 54.5509 6.57473L54.3862 6.89303C54.1205 6.73111 53.8472 6.61418 53.5741 6.53744L53.7323 6.23587ZM54.0656 5.63905C54.3595 5.72172 54.6323 5.83467 54.8797 5.97434L54.7151 6.29264C54.4498 6.1347 54.1801 6.01338 53.9069 5.93665L54.0656 5.63905ZM56.4066 4.89819L56.4897 5.71398L56.1235 5.75124L56.0758 5.28167L53.4812 5.54575L53.529 6.01533L53.1628 6.05259L53.0798 5.23681L54.5721 5.08492C54.517 4.97795 54.4627 4.87894 54.4052 4.78829L54.7847 4.68533C54.8438 4.7919 54.9002 4.9108 54.9541 5.04603L56.4066 4.89819Z" fill="white"/>
<path d="M56.907 5.02748L57.4837 4.96632C57.3975 4.79847 57.3086 4.64298 57.2135 4.50424L57.5922 4.3957C57.6771 4.55162 57.7641 4.72742 57.8497 4.92751L58.319 4.87774L58.3578 5.24369L57.5822 5.32594L57.6315 5.79133L58.3356 5.71667C58.4453 6.75087 58.4933 7.39339 58.4872 7.63941C58.4727 7.88229 58.3108 8.02415 57.9926 8.0579C57.9608 8.06127 57.9042 8.05922 57.8278 8.05928L57.7084 7.73004C57.7813 7.73438 57.8458 7.73558 57.9015 7.72968C58.0407 7.71491 58.117 7.63843 58.1305 7.50024C58.1361 7.36289 58.0987 6.89623 58.0227 6.10383L57.6647 6.14179C57.734 7.02339 57.6556 7.68737 57.4294 8.13371L57.1209 7.91704C57.3222 7.50149 57.3788 6.85994 57.2917 6.00034L57.2242 5.3639L56.9458 5.39343L56.907 5.02748ZM58.9163 5.04771C58.8154 5.34802 58.6944 5.61024 58.5536 5.83836L58.2758 5.57016C58.4793 5.25092 58.6347 4.82013 58.7465 4.28133L59.109 4.32335C59.0819 4.4469 59.0539 4.56249 59.0259 4.67808L60.3982 4.53256L60.4358 4.88657L58.9163 5.04771ZM60.3434 5.34286C60.4239 6.1026 60.453 6.56612 60.438 6.72861C60.4191 6.89151 60.2808 6.99065 60.0183 7.01849L59.9984 7.0206L59.8692 6.71251C59.9368 6.70533 59.9969 6.70298 60.0486 6.6975C60.0923 6.69286 60.116 6.65013 60.1159 6.57371C60.1167 6.50525 60.0989 6.26176 60.055 5.84808L59.7641 5.98754L59.9016 7.28427L59.5516 7.32139L59.4272 6.14797L59.1323 6.28784L59.2424 7.32602C59.2609 7.50104 59.3303 7.5862 59.4496 7.57355L60.2014 7.49383C60.2849 7.48497 60.3465 7.45833 60.382 7.41433C60.4247 7.36154 60.4418 7.21895 60.4328 6.98258L60.7699 7.05141C60.7704 7.39729 60.7322 7.60647 60.6523 7.68735C60.5791 7.75545 60.4631 7.79993 60.2961 7.81765L59.3772 7.91509C59.1067 7.94377 58.9525 7.77911 58.9154 7.42908L58.8108 6.44261L58.5389 6.572L58.5027 6.22992L58.7745 6.10053L58.718 5.56751L59.0521 5.53208L59.096 5.94576L59.3905 5.80191L59.3242 5.17741L59.6743 5.14029L59.7274 5.64148L60.3434 5.34286Z" fill="white"/>
<path d="M60.8514 4.63678L62.5254 4.45345C62.4329 4.30665 62.3293 4.16911 62.2102 4.03729L62.5537 3.86688C62.6789 4.01815 62.7992 4.19812 62.9111 4.41121L64.3863 4.24965L64.4263 4.61546L62.3587 4.84191L62.3953 5.46966L64.0335 5.29025C64.1152 6.14644 64.1382 6.68715 64.0985 6.91281C64.0459 7.24049 63.8649 7.42529 63.5517 7.46764C63.4244 7.48158 63.2685 7.49061 63.0922 7.49784L62.9434 7.16808C63.155 7.15295 63.3348 7.14131 63.478 7.12563C63.6441 7.09939 63.7384 6.96834 63.76 6.72454C63.769 6.58674 63.7431 6.2395 63.6909 5.68991L62.3907 5.83231C62.3686 6.14458 62.3041 6.43734 62.1888 6.70749C62.0314 7.07079 61.7915 7.41496 61.4729 7.73957L61.1698 7.50718C61.5525 7.10714 61.7952 6.75061 61.8972 6.43361C61.9993 6.11661 62.0379 5.77035 62.0168 5.39441C62.0008 5.17485 61.9901 5.003 61.9849 4.88284L60.8915 5.0026L60.8514 4.63678Z" fill="white"/>
<path d="M66.3703 4.1158L66.7233 4.17672C66.6722 4.25895 66.6246 4.33676 66.5761 4.40662L68.2853 4.21434L68.3193 4.51644L67.6674 4.58977C67.5621 4.76263 67.4457 4.90856 67.3221 5.02711C67.6615 5.07347 68.0101 5.13086 68.3684 5.20326L68.182 5.51404C67.7812 5.42227 67.3778 5.34287 66.9766 5.28334C66.5807 5.52109 66.0513 5.68127 65.3928 5.76742L65.1512 5.48063C65.7077 5.41803 66.144 5.32467 66.4531 5.2094C66.1959 5.17795 65.9397 5.15444 65.6879 5.13447C65.7752 5.01597 65.8585 4.89791 65.9423 4.78383L65.1394 4.87416L65.1054 4.57206L66.1627 4.45312C66.2346 4.34038 66.3024 4.22809 66.3703 4.1158ZM66.8936 4.97469C67.0348 4.87025 67.1548 4.75612 67.2461 4.63717L66.3557 4.73733L66.223 4.91729C66.4417 4.92892 66.6652 4.94805 66.8936 4.97469ZM68.2345 3.54785L68.3016 4.14409L67.9518 4.18344L67.92 3.90122L65.384 4.1865L65.4158 4.46872L65.066 4.50807L64.9989 3.91183L66.4259 3.7513C66.3684 3.66922 66.3073 3.59156 66.2427 3.51832L66.6291 3.41045C66.6875 3.50048 66.7429 3.59891 66.8035 3.70882L68.2345 3.54785ZM65.1342 5.97362L66.6646 5.80147L66.6324 5.51527L67.014 5.47235L67.0462 5.75854L68.5646 5.58773L68.6013 5.91368L67.4008 6.04871C67.7099 6.25546 68.1531 6.40284 68.7257 6.48333L68.5999 6.83159C67.9309 6.68143 67.4301 6.45197 67.0887 6.13616L67.1942 7.07424L66.8126 7.11717L66.7062 6.17114C66.4743 6.54339 66.0463 6.8894 65.4151 7.21802L65.1709 6.90738C65.7545 6.65657 66.1574 6.40998 66.3793 6.16363L65.1709 6.29957L65.1342 5.97362Z" fill="white"/>
<path d="M70.2569 3.68651L70.5752 6.45226L70.2135 6.49387L70.1898 6.28723L69.5619 6.35948L69.599 6.68135L69.2373 6.72296L68.9058 3.84197L69.2833 3.79853C69.3302 3.57572 69.3607 3.35076 69.3659 3.11662L69.7494 3.12484C69.7348 3.34797 69.6985 3.5575 69.645 3.75692L70.2569 3.68651ZM69.5217 6.00978L70.1495 5.93754L70.0595 5.15471L69.4316 5.22695L69.5217 6.00978ZM69.3927 4.88918L70.0206 4.81693L69.9365 4.08576L69.3086 4.158L69.3927 4.88918ZM71.0819 4.55791C71.3817 4.85359 71.6168 5.11241 71.7843 5.34278L71.5105 5.58768C71.3293 5.34279 71.0893 5.07648 70.7979 4.78386L71.0819 4.55791ZM72.3079 3.45455C72.4656 4.8255 72.5431 5.67421 72.54 5.99668C72.5331 6.28737 72.3589 6.45237 72.0211 6.49123C71.9416 6.50038 71.7976 6.50889 71.5976 6.51983L71.4664 6.18463C71.6422 6.17246 71.7941 6.16303 71.9213 6.1484C72.0802 6.13011 72.162 6.03614 72.1666 5.8665C72.1676 5.66507 72.1027 4.9961 71.9804 3.86266L70.9829 3.97743C70.8991 4.22866 70.7971 4.46185 70.669 4.67791L70.4082 4.40594C70.6265 3.99428 70.7558 3.50831 70.7881 2.94896L71.1671 2.95366C71.153 3.18077 71.1211 3.3938 71.08 3.59584L72.3079 3.45455Z" fill="white"/>
<path d="M73.1284 2.7309C73.4232 2.90973 73.6744 3.09369 73.8814 3.27881L73.646 3.57226C73.4638 3.39229 73.2161 3.20389 72.8991 3.00753L73.1284 2.7309ZM75.8307 6.02219C75.6122 6.04785 75.3733 6.07187 75.1186 6.09775C74.8599 6.1241 74.6466 6.12499 74.4751 6.10486C74.3106 6.07585 74.1603 5.99683 74.0253 5.87575C73.9617 5.81475 73.9103 5.78857 73.8626 5.79416C73.7792 5.80396 73.6572 5.99953 73.4966 6.38086L73.1882 6.15529C73.349 5.81018 73.504 5.58658 73.6536 5.48846L73.5215 4.36419L72.9892 4.4267L72.9481 4.0771L73.8341 3.97307L74.0104 5.47475C74.0321 5.48831 74.0543 5.50584 74.077 5.52734C74.181 5.62388 74.2856 5.69214 74.391 5.73212C74.5167 5.77374 74.6957 5.78897 74.931 5.76939C75.158 5.74677 75.4246 5.71949 75.7345 5.6831C75.9291 5.66024 76.1273 5.63294 76.3255 5.60564C76.5236 5.57834 76.6776 5.5522 76.784 5.53166L76.7364 5.91583L75.8307 6.02219ZM74.7716 2.93666L74.0049 3.02669L73.968 2.71285L76.149 2.45673L76.1803 2.7229C75.9732 2.9486 75.7465 3.14437 75.5011 3.31818C75.5099 3.32519 75.5183 3.32823 75.5272 3.33525L76.3257 3.24148L76.5329 5.00536C76.5604 5.23975 76.4433 5.37432 76.1851 5.40465L75.8792 5.44057L75.7629 5.13605L76.0468 5.11882C76.1342 5.10856 76.1767 5.05926 76.1665 4.97186L76.1427 4.76925L75.5706 4.83643L75.6471 5.48795L75.3015 5.52854L75.225 4.87702L74.6648 4.9428L74.7423 5.60227L74.3847 5.64425L74.1328 3.49899L75.0465 3.39169C74.9052 3.31969 74.7474 3.24558 74.5743 3.17731L74.7716 2.93666ZM75.2496 3.16647C75.4067 3.06345 75.5504 2.94991 75.6813 2.82982L74.7914 2.93432C74.9536 3.01194 75.1074 3.08652 75.2496 3.16647ZM74.5962 4.35881L74.6289 4.6369L75.1891 4.57112L75.1564 4.29303L74.5962 4.35881ZM75.502 4.25244L75.5347 4.53053L76.1068 4.46336L76.0741 4.18527L75.502 4.25244ZM76.0377 3.8754L76.0051 3.59731L75.433 3.66448L75.4656 3.94257L76.0377 3.8754ZM75.12 3.98316L75.0874 3.70507L74.5272 3.77085L74.5599 4.04894L75.12 3.98316Z" fill="white"/>
<path d="M80.3551 2.22832L80.7259 5.32621L80.3605 5.36994L80.3334 5.14356L79.6384 5.22675L79.666 5.45711L79.3006 5.50084L78.9293 2.39899L80.3551 2.22832ZM79.5961 4.87328L80.2911 4.79008L80.032 2.62553L79.337 2.70873L79.5961 4.87328ZM77.56 3.04228C77.4925 3.25179 77.4111 3.44685 77.3198 3.62697L76.965 3.45593C77.1745 3.05217 77.3092 2.62917 77.3651 2.18739L77.7479 2.22214C77.7263 2.37782 77.6952 2.52253 77.6637 2.66327L78.748 2.53349L78.7913 2.89491L78.2511 2.95956C78.2726 3.20675 78.2883 3.43853 78.2897 3.65188L78.9092 3.57772L78.9525 3.93914L78.2813 4.01948C78.2759 4.10876 78.2665 4.19852 78.2601 4.27985C78.5318 4.49709 78.8109 4.74166 79.1012 5.01308L78.9127 5.39016C78.6246 5.07013 78.3853 4.82081 78.1947 4.64219C78.0778 5.07918 77.8381 5.46641 77.4672 5.80086L77.1849 5.52849C77.5613 5.17323 77.7867 4.76757 77.8645 4.30706C77.8714 4.22969 77.8817 4.14788 77.8881 4.06655L77.1057 4.1602L77.0624 3.79878L77.9004 3.69847C77.8991 3.48512 77.8834 3.25334 77.8619 3.00615L77.56 3.04228Z" fill="white"/>
<path d="M81.1153 1.71304L82.1636 3.46694L81.568 5.42151L81.2329 5.31734L81.7824 3.51347L80.8151 1.89475L81.1153 1.71304ZM81.7943 1.63015L82.8425 3.38406L82.247 5.33862L81.9119 5.23446L82.4614 3.43059L81.4782 1.81381L81.7943 1.63015Z" fill="white"/>
</svg>
