<svg width="57" height="9" viewBox="0 0 57 9" fill="none" xmlns="http://www.w3.org/2000/svg">
<path d="M2.58813 2.36398L1.25409 2.23783L1.28836 1.87544L4.34273 2.16429L4.30846 2.52667L2.97043 2.40014L2.74146 4.82133L4.33038 4.97159L4.29573 5.33796L0.731631 5.00091L0.766277 4.63455L2.35917 4.78518L2.58813 2.36398Z" fill="white"/>
<path d="M6.05785 2.06555L6.43649 2.09773L6.1702 5.23043L6.64848 5.27109L6.91476 2.13838L7.2934 2.17057L7.02711 5.30327L8.19092 5.4022L8.15941 5.77286L4.60423 5.47067L4.63574 5.1L5.79157 5.19825L6.05785 2.06555ZM7.9757 2.97525L8.30236 3.09936C8.09263 3.77201 7.84652 4.35326 7.56368 4.84708L7.23507 4.69871C7.49756 4.25535 7.74732 3.67843 7.9757 2.97525ZM5.24223 2.73487C5.4001 3.28622 5.52762 3.91127 5.62878 4.61035L5.27457 4.66856C5.19225 4.0313 5.06838 3.41057 4.91059 2.81106L5.24223 2.73487Z" fill="white"/>
<path d="M9.31635 2.36543C9.55712 2.57622 9.75372 2.78766 9.91472 2.9924L9.63553 3.23602C9.49816 3.03708 9.29787 2.82134 9.03837 2.5931L9.31635 2.36543ZM8.71974 3.46352L9.61318 3.53117L9.48543 5.21834C9.61693 5.124 9.75761 5.01431 9.91147 4.88957L9.98497 5.29628C9.70759 5.51597 9.41607 5.71051 9.11071 5.87593L8.99309 5.52204C9.06114 5.47103 9.10247 5.40195 9.10881 5.31819L9.21875 3.86635L8.69225 3.82648L8.71974 3.46352ZM10.1077 4.04598L12.0422 4.19246L12.0159 4.53947C11.8734 4.88569 11.659 5.17433 11.3724 5.40936C11.615 5.59621 11.9146 5.77133 12.2639 5.92615L12.0357 6.23781C11.649 6.04807 11.3318 5.83952 11.0757 5.61956C10.7477 5.81936 10.3472 5.96955 9.8822 6.07074L9.69497 5.73564C10.1271 5.64401 10.4939 5.51533 10.7956 5.34563C10.5443 5.06184 10.3789 4.75648 10.3073 4.43015L10.0799 4.41293L10.1077 4.04598ZM10.6623 4.45703C10.7356 4.70728 10.8745 4.93843 11.0828 5.15477C11.313 4.97564 11.4971 4.76895 11.6315 4.53042L10.6623 4.45703ZM10.5035 2.52753L11.9155 2.63444L11.852 3.47205C11.8454 3.5598 11.8896 3.61128 11.9893 3.61883L12.3403 3.64541L12.3141 3.99242L11.8634 3.95829C11.5802 3.93685 11.4508 3.79066 11.4708 3.52742L11.5137 2.96104L10.8515 2.9109L10.8425 3.03056C10.8111 3.44537 10.5752 3.75244 10.1392 3.94808L9.90997 3.63789C10.2565 3.51169 10.444 3.31328 10.4645 3.04206L10.5035 2.52753Z" fill="white"/>
<path d="M14.1215 3.82766L15.1672 3.89778L15.2456 2.72841L15.6367 2.75464L15.5583 3.92401L16.5481 3.99038L16.5229 4.36554L15.5332 4.29917L15.3889 6.45034L14.9978 6.42411L15.142 4.27294L14.0964 4.20282L14.1215 3.82766ZM13.4712 2.64549C13.7175 2.85845 13.9239 3.06873 14.0901 3.28033L13.813 3.52634C13.666 3.32805 13.4598 3.11378 13.1904 2.88725L13.4712 2.64549ZM12.8668 3.76757L13.7887 3.82939L13.6747 5.52957C13.8093 5.43437 13.9491 5.32347 14.0976 5.20113L14.1714 5.59496C13.8999 5.81729 13.6101 6.01434 13.3062 6.18238L13.1852 5.83351C13.2568 5.78218 13.2973 5.71674 13.3027 5.63692L13.4011 4.16822L12.8424 4.13075L12.8668 3.76757Z" fill="white"/>
<path d="M16.841 4.12462L17.2261 2.97756L17.6016 3.06412L17.3499 3.79039L17.9408 3.82571C18.0343 3.53477 18.1128 3.22691 18.1803 2.90236L18.5648 2.97342C18.498 3.286 18.4204 3.57789 18.3361 3.84934L20.1648 3.95865L20.1431 4.322L18.2185 4.20696C18.1707 4.33634 18.1194 4.4575 18.0723 4.5749L19.6695 4.67036L19.6504 4.98979C19.527 5.311 19.3137 5.59478 19.0025 5.84065C19.2959 6.02649 19.6539 6.20417 20.0726 6.37345L19.8555 6.72111C19.3828 6.51655 18.9872 6.29655 18.6722 6.06935C18.3437 6.27011 17.9444 6.4466 17.4745 6.59883L17.2963 6.22754C17.7042 6.10766 18.0572 5.96847 18.3509 5.81372C18.1038 5.59058 17.9215 5.35529 17.8078 5.11207C17.485 5.68583 17.0935 6.13527 16.6373 6.46063L16.4626 6.09756C17.0427 5.64337 17.4936 5.00513 17.8153 4.18286L16.841 4.12462ZM18.0957 4.92091C18.2134 5.16436 18.4079 5.39638 18.6795 5.61297C18.9432 5.42437 19.14 5.21574 19.2656 4.99084L18.0957 4.92091ZM19.2382 2.9696C19.5013 3.1937 19.7202 3.41916 19.8952 3.642L19.6075 3.89729C19.4602 3.68011 19.2495 3.45113 18.9676 3.20588L19.2382 2.9696Z" fill="white"/>
<path d="M21.6614 4.61383L22.2127 4.64306L22.2296 4.32351L21.5625 4.28814L21.5464 4.59171C21.5337 4.83138 21.5055 5.0622 21.4701 5.27663L22.1771 5.31412L22.1949 4.97859L21.6436 4.94936L21.6614 4.61383ZM21.4039 5.61761C21.3049 6.04897 21.1602 6.43785 20.9698 6.78025L20.6768 6.48833C20.9551 5.99838 21.1171 5.36206 21.163 4.57138L21.2341 3.22927L24.2899 3.39129L24.2348 4.42983L23.6796 4.40039L23.6626 4.71994L24.2618 4.75171L24.244 5.08724L23.6448 5.05547L23.627 5.391L24.362 5.42997L24.3438 5.77349L23.9444 5.75231L24.164 5.99227C24.0321 6.13749 23.8897 6.25412 23.7408 6.34236C23.9384 6.469 24.1656 6.56516 24.4265 6.63107L24.2277 6.98103C23.5187 6.75517 23.0288 6.32463 22.754 5.68919L22.2587 5.66293L22.2185 6.42186C22.4613 6.37466 22.6766 6.31798 22.8604 6.25161L22.9139 6.60294C22.5844 6.69763 22.1959 6.77316 21.7482 6.82954L21.662 6.4925C21.7843 6.45092 21.8487 6.37021 21.8555 6.24239L21.8872 5.64323L21.4039 5.61761ZM23.1375 5.70953C23.2255 5.8624 23.3306 5.99615 23.4525 6.11477C23.6091 6.03095 23.7557 5.91054 23.8924 5.74955L23.1375 5.70953ZM23.3121 4.38091L22.5931 4.34278L22.5762 4.66233L23.2951 4.70046L23.3121 4.38091ZM22.5406 5.33339L23.2596 5.37151L23.2773 5.03599L22.5584 4.99786L22.5406 5.33339ZM23.888 3.71847L21.5992 3.59711L21.5805 3.94862L23.8693 4.06998L23.888 3.71847Z" fill="white"/>
<path d="M26.8715 4.21854L26.8633 4.40636C26.8595 4.49428 26.9014 4.54414 26.9893 4.54795L27.9604 4.59001C28.0324 4.59312 28.0892 4.57556 28.1307 4.54133C28.1726 4.4991 28.2064 4.36444 28.2323 4.13735L28.5791 4.26447C28.5324 4.60277 28.4636 4.80398 28.3769 4.86429C28.2943 4.92477 28.173 4.95154 28.0131 4.94462L26.8582 4.8946C26.6025 4.88352 26.4805 4.74211 26.4922 4.47036L26.5395 3.37939L26.9071 3.39531L26.8858 3.88685C27.3536 3.81102 27.807 3.69453 28.2422 3.53722L28.4371 3.84594C27.8851 4.01821 27.3632 4.14375 26.8715 4.21854ZM25.3869 6.97288L24.9713 6.95488L24.9031 6.58759C25.0303 6.60911 25.1538 6.62247 25.2697 6.62749C25.3657 6.63164 25.4199 6.58194 25.4242 6.48203L25.461 5.63083C25.2988 5.67986 25.1328 5.72071 24.9669 5.76157L24.8915 5.37795C25.089 5.34647 25.2831 5.30282 25.4775 5.25119L25.5135 4.41997L25.006 4.39799L25.0217 4.03433L25.5292 4.05631L25.5604 3.33698L25.9241 3.35273L25.8929 4.07206L26.3045 4.08989L26.2888 4.45355L25.8772 4.43572L25.8467 5.13906C26.0011 5.08569 26.1558 5.02833 26.3027 4.96263L26.286 5.35026C26.1353 5.4078 25.9847 5.46534 25.8304 5.51471L25.7837 6.59369C25.7723 6.85745 25.6387 6.98378 25.3869 6.97288ZM28.3899 5.21317L28.3066 7.13537L27.927 7.11893L27.9346 6.94309L26.7956 6.89376L26.788 7.0696L26.4124 7.05333L26.4956 5.13113L28.3899 5.21317ZM26.8102 6.55808L27.9491 6.60741L27.9654 6.23176L26.8265 6.18243L26.8102 6.55808ZM26.841 5.84675L27.9799 5.89607L27.9959 5.52842L26.8569 5.47909L26.841 5.84675Z" fill="white"/>
<path d="M28.989 5.65376L31.3998 5.73177L31.4064 5.52788L31.7902 5.54029L31.7836 5.74419L32.6471 5.77213L32.6352 6.13994L31.7717 6.112L31.7467 6.88359C31.7386 7.13546 31.5945 7.25887 31.3226 7.25007L30.8189 7.23377L30.743 6.85912C30.9024 6.88028 31.058 6.89332 31.202 6.89798C31.3059 6.90135 31.3633 6.85918 31.3659 6.77922L31.3879 6.09958L28.9771 6.02157L28.989 5.65376ZM32.1258 3.70219L32.0929 4.71766L29.8101 4.64379L29.8035 4.84768C29.8 4.95563 29.8542 5.01341 29.9701 5.01716L32.061 5.08482C32.1251 5.08289 32.1699 5.06032 32.1952 5.02112C32.2162 4.98978 32.2393 4.89448 32.2605 4.73508L32.6165 4.86266C32.5866 5.04579 32.5545 5.17282 32.5239 5.25187C32.4678 5.37812 32.3498 5.43834 32.1696 5.44051L29.8108 5.36419C29.539 5.35539 29.4071 5.22706 29.4149 4.98319L29.4592 3.6159L32.1258 3.70219ZM29.8213 4.29997L31.7243 4.36155L31.7349 4.03372L29.8319 3.97214L29.8213 4.29997ZM29.9751 6.10189C30.2283 6.31419 30.4416 6.5252 30.6149 6.73491L30.3179 7.00945C30.1723 6.80864 29.9633 6.58976 29.6947 6.35695L29.9751 6.10189Z" fill="white"/>
<path d="M33.7786 4.1537L33.1548 4.14042L33.1616 3.82049L34.4813 3.84859C34.4507 3.77993 34.4201 3.71526 34.3893 3.65859L34.8026 3.60338C34.833 3.68004 34.8672 3.76479 34.8972 3.85745L36.2809 3.88691L36.2741 4.20684L35.6382 4.1933L35.5171 4.43078L36.4569 4.45079L36.4499 4.77872L32.9547 4.70429L32.9617 4.37636L33.8695 4.39569L33.7786 4.1537ZM34.2654 4.40412L35.1212 4.42235L35.2423 4.18487L34.1745 4.16213L34.2654 4.40412ZM33.3671 4.88111L36.0305 4.93782L36.0039 6.18554L33.3405 6.12882L33.3671 4.88111ZM35.6381 5.88968L35.6424 5.68973L33.7228 5.64885L33.7185 5.84881L35.6381 5.88968ZM33.7286 5.37692L35.6481 5.41779L35.6523 5.22184L33.7328 5.18096L33.7286 5.37692ZM33.1852 6.28155L33.5515 6.36537C33.4528 6.67934 33.319 6.94855 33.1501 7.17701L32.8265 6.96607C32.9911 6.75353 33.1079 6.52796 33.1852 6.28155ZM35.2086 7.27285L34.2328 7.25207C33.9248 7.24552 33.7759 7.10231 33.7817 6.83037L33.7926 6.31849L34.1765 6.32667L34.1673 6.75857C34.1651 6.85855 34.224 6.91181 34.348 6.91445L35.1438 6.9314C35.2158 6.93293 35.2681 6.91804 35.2967 6.89064C35.3375 6.8555 35.3677 6.75212 35.3874 6.5765L35.7449 6.70014C35.7069 6.9794 35.6473 7.15016 35.5581 7.20428C35.4811 7.25065 35.3645 7.27617 35.2086 7.27285ZM34.7678 6.17522C34.9244 6.33859 35.0414 6.48111 35.1227 6.60687L34.8021 6.8201C34.7129 6.68617 34.5921 6.53556 34.4396 6.37228L34.7678 6.17522ZM36.0138 6.28577C36.2282 6.5504 36.3913 6.78192 36.5032 6.97635L36.1825 7.18957C36.0632 6.97098 35.9042 6.73154 35.7017 6.47117L36.0138 6.28577Z" fill="white"/>
<path d="M40.0266 3.8573L40.005 6.0932L39.621 6.08948L39.639 4.22557L37.9671 4.20939L37.949 6.0773L37.5651 6.07359L37.5867 3.83369L40.0266 3.8573ZM38.5849 4.44338L38.9609 4.44702L38.9536 5.19498C38.9435 5.41089 38.9176 5.60665 38.8759 5.79026L39.2158 5.79355L39.2067 6.7375C39.2053 6.8855 39.2565 6.96199 39.3605 6.963L39.9445 6.96865C39.9925 6.96912 40.0407 6.94958 40.081 6.91397C40.1254 6.8744 40.1591 6.70671 40.1779 6.41088L40.5407 6.5344C40.493 6.92196 40.4348 7.1494 40.3661 7.22074C40.2855 7.28397 40.1771 7.31892 40.0411 7.3256L39.2531 7.31798C38.9651 7.31519 38.8228 7.14181 38.8261 6.80182L38.8344 5.94586C38.7558 6.20911 38.6456 6.43206 38.4998 6.62266C38.2326 6.95609 37.8021 7.20793 37.2083 7.3862L37.0075 7.06424C37.6012 6.88598 38.0075 6.6539 38.2222 6.36796C38.4332 6.06599 38.549 5.67509 38.5776 5.19134L38.5849 4.44338Z" fill="white"/>
<path d="M42.4652 4.37449L42.4695 7.15849L42.1055 7.15906L42.1052 6.95106L41.4732 6.95204L41.4737 7.27604L41.1097 7.27661L41.1052 4.37661L41.4852 4.37602C41.5568 4.15991 41.6125 3.93982 41.6441 3.70777L42.0242 3.75918C41.9846 3.97924 41.9249 4.18334 41.8492 4.37545L42.4652 4.37449ZM41.4726 6.60004L42.1046 6.59906L42.1034 5.81106L41.4714 5.81204L41.4726 6.60004ZM41.4709 5.47205L42.1029 5.47106L42.1017 4.73506L41.4697 4.73605L41.4709 5.47205ZM43.1867 5.33337C43.4512 5.66096 43.6556 5.94464 43.796 6.19242L43.4963 6.40489C43.3439 6.14113 43.1355 5.84945 42.879 5.52585L43.1867 5.33337ZM44.5292 4.37528C44.5313 5.75528 44.5127 6.60731 44.4732 6.92737C44.4336 7.21543 44.2418 7.35973 43.9018 7.36026C43.8218 7.36039 43.6778 7.35261 43.4778 7.34092L43.3853 6.99306C43.5613 7.00079 43.7133 7.00855 43.8413 7.00835C44.0013 7.00811 44.0932 6.92396 44.1169 6.75592C44.1406 6.55589 44.1515 5.88387 44.1578 4.74386L43.1538 4.74542C43.0421 4.9856 42.9145 5.2058 42.7628 5.40603L42.5343 5.10639C42.7977 4.72198 42.981 4.25369 43.0761 3.70154L43.4522 3.74896C43.4126 3.97302 43.3569 4.18111 43.2932 4.3772L44.5292 4.37528Z" fill="white"/>
<path d="M45.244 3.74509C45.5186 3.95378 45.7491 4.16299 45.9356 4.36875L45.6708 4.63598C45.5084 4.43793 45.2818 4.22467 44.987 3.99623L45.244 3.74509ZM47.5873 7.30092C47.3673 7.30359 47.1273 7.3025 46.8713 7.30161C46.6112 7.30076 46.399 7.27934 46.2305 7.24138C46.0699 7.19532 45.9288 7.10103 45.8071 6.9665C45.7503 6.89918 45.7019 6.86777 45.6539 6.86835C45.5699 6.86937 45.4281 7.0511 45.2285 7.41355L44.9454 7.15697C45.1414 6.83056 45.3189 6.62439 45.478 6.54246L45.4642 5.41054L44.9283 5.41705L44.924 5.06507L45.8159 5.05425L45.8343 6.56614C45.8545 6.58189 45.8747 6.60165 45.895 6.6254C45.9883 6.73228 46.0853 6.81111 46.1859 6.86189C46.3066 6.91643 46.483 6.95029 46.7191 6.95543C46.9471 6.95666 47.2151 6.95741 47.5271 6.95363C47.7231 6.95125 47.923 6.94482 48.123 6.9384C48.3229 6.93197 48.4788 6.92208 48.5867 6.91277L48.4993 7.28986L47.5873 7.30092ZM46.8567 4.12155L46.0847 4.13092L46.0809 3.81494L48.2768 3.7883L48.28 4.05628C48.0504 4.25908 47.8045 4.43007 47.5423 4.57727C47.5504 4.58517 47.5584 4.58907 47.5665 4.59697L48.3705 4.58722L48.392 6.36309C48.3949 6.59907 48.2643 6.72066 48.0044 6.72382L47.6964 6.72756L47.6125 6.41255L47.8967 6.4251C47.9847 6.42403 48.0322 6.37946 48.0311 6.29146L48.0286 6.08748L47.4527 6.09447L47.4606 6.75042L47.1127 6.75464L47.1047 6.09869L46.5407 6.10553L46.5488 6.76948L46.1888 6.77385L46.1626 4.61401L47.0825 4.60285C46.9495 4.51645 46.8004 4.42626 46.6353 4.34025L46.8567 4.12155ZM47.3081 4.4001C47.4751 4.31406 47.6299 4.21618 47.7726 4.11044L46.8767 4.12131C47.0298 4.21546 47.175 4.3057 47.3081 4.4001ZM46.5336 5.51757L46.537 5.79755L47.101 5.79071L47.0976 5.51073L46.5336 5.51757ZM47.4455 5.50651L47.4489 5.78649L48.0249 5.7795L48.0215 5.49952L47.4455 5.50651ZM48.0177 5.18754L48.0143 4.90756L47.4384 4.91455L47.4418 5.19453L48.0177 5.18754ZM47.0938 5.19875L47.0904 4.91877L46.5264 4.92562L46.5298 5.2056L47.0938 5.19875Z" fill="white"/>
<path d="M52.2749 3.97732L52.3429 7.09658L51.975 7.1046L51.97 6.87665L51.2702 6.89191L51.2753 7.12385L50.9074 7.13187L50.8393 4.00861L52.2749 3.97732ZM51.2625 6.53599L51.9623 6.52074L51.9148 4.34125L51.2149 4.35651L51.2625 6.53599ZM49.414 4.5158C49.3264 4.71775 49.2264 4.90398 49.1181 5.07438L48.7815 4.86966C49.0293 4.48817 49.2044 4.08026 49.303 3.64601L49.6807 3.7178C49.644 3.87063 49.599 4.01164 49.554 4.14866L50.6458 4.12486L50.6537 4.48877L50.1098 4.50063C50.1072 4.74874 50.1003 4.98095 50.0809 5.19342L50.7048 5.17982L50.7127 5.54374L50.0369 5.55847C50.0228 5.6468 50.0047 5.73521 49.9904 5.81554C50.2398 6.05817 50.4938 6.32869 50.7563 6.62704L50.532 6.98402C50.2764 6.6375 50.0625 6.3661 49.8901 6.16981C49.7313 6.59337 49.4552 6.95548 49.0535 7.2523L48.799 6.95378C49.2082 6.63679 49.4719 6.25495 49.5941 5.80418C49.6084 5.72785 49.6267 5.64743 49.641 5.5671L48.8531 5.58427L48.8452 5.22036L49.689 5.20197C49.7084 4.98949 49.7153 4.75729 49.7179 4.50917L49.414 4.5158Z" fill="white"/>
<path d="M53.2742 3.53004L54.1589 5.37187L53.3884 7.2643L53.0641 7.13014L53.7751 5.3836L52.9588 3.68375L53.2742 3.53004ZM53.9579 3.50914L54.8426 5.35098L54.072 7.2434L53.7478 7.10924L54.4588 5.36271L53.6265 3.66334L53.9579 3.50914Z" fill="white"/>
</svg>
