<svg width="116" height="19" viewBox="0 0 116 19" fill="none" xmlns="http://www.w3.org/2000/svg">
<path d="M4.00082 1.20903L4.30404 1.41321L3.21603 2.96137L3.64489 4.79765L3.30364 4.87941L2.83877 2.88971L4.00082 1.20903ZM4.6728 1.33668L4.96031 1.53786L3.88801 3.08901L4.31688 4.92529L3.97563 5.00705L3.51076 3.01735L4.6728 1.33668Z" fill="white"/>
<path d="M6.49453 1.75806C6.60096 1.98561 6.69925 2.23187 6.78552 2.49599L6.51695 2.56492L7.32634 2.73946C7.51517 2.54694 7.69763 2.30804 7.87289 2.02666L8.21545 2.20283C8.07377 2.44235 7.91454 2.64943 7.74473 2.82969L8.48765 2.9899L8.41007 3.34963L7.13537 3.07474L7.10924 3.19596C7.06094 3.38195 7.00429 3.54978 6.94235 3.7042L8.49857 4.03979L8.421 4.39952L7.05246 4.1044C7.14202 4.61884 7.55068 5.0957 8.27759 5.5389L7.98274 5.84359C7.23413 5.33024 6.81021 4.77234 6.70232 4.17211C6.5923 4.34071 6.47087 4.48638 6.33885 4.60522C5.99707 4.8998 5.50487 5.076 4.86223 5.13383L4.72889 4.76544C5.37321 4.69979 5.83299 4.54115 6.11213 4.29036C6.21087 4.19298 6.30042 4.08135 6.37992 3.95937L5.04266 3.67099L5.12023 3.31126L6.55916 3.62156C6.62585 3.46408 6.68641 3.2971 6.73386 3.11501L6.76 2.99379L5.4814 2.71807L5.55897 2.35833L6.39574 2.53878C6.31561 2.28417 6.22176 2.05524 6.11894 1.84893L6.49453 1.75806Z" fill="white"/>
<path d="M9.6843 2.57639L12.6278 3.28658L12.5406 3.64821L11.3002 3.34893L11.0713 4.29771L12.5839 4.66265L12.4947 5.03205L10.9821 4.66711L10.6622 5.99306C10.5966 6.26525 10.4189 6.37052 10.1351 6.30203L9.51679 6.15286L9.52533 5.77637C9.72083 5.83588 9.90949 5.88963 10.0884 5.93278C10.2128 5.9628 10.2891 5.91949 10.3153 5.81061L10.6127 4.57798L9.03404 4.19708L9.12316 3.82768L10.7019 4.20858L10.9308 3.2598L9.59705 2.93801L9.6843 2.57639Z" fill="white"/>
<path d="M14.6374 5.56837L14.5241 5.99766L15.1236 6.15589L15.2369 5.72659L14.6374 5.56837ZM14.4343 6.33801L14.3077 6.81759L14.9072 6.97581L15.0337 6.49623L14.4343 6.33801ZM14.2148 7.16953L14.1689 7.34357L13.8053 7.24762L14.3708 5.10499C14.2639 5.19674 14.1502 5.28257 14.0327 5.36738L14.011 4.94796C14.4247 4.61864 14.7587 4.23104 15.0111 3.77639L15.3485 3.93992C15.2434 4.11901 15.1286 4.2873 15.0043 4.44479L15.596 4.60097C15.5832 4.399 15.5625 4.19498 15.5321 3.99666L15.9086 3.99673C15.9314 4.25511 15.9449 4.4862 15.9402 4.69182L16.532 4.84801L16.4391 5.19995L15.8087 5.03356L15.6913 5.47833L16.2443 5.62431L16.1535 5.96852L15.6004 5.82254L15.4871 6.25184L16.0402 6.39782L15.9504 6.73816L15.3973 6.59219L15.2707 7.07176L15.9437 7.24938L15.8508 7.60133L14.2148 7.16953ZM15.4451 4.93761L14.8457 4.77938L14.7283 5.22415L15.3277 5.38238L15.4451 4.93761ZM14.0206 5.17803L13.9216 5.55318C13.8 5.57488 13.6756 5.59169 13.5551 5.60952L13.2774 6.66149C13.2111 6.91288 13.0459 7.0058 12.7868 6.93741L12.4387 6.84554L12.4514 6.46829C12.5517 6.51132 12.6502 6.54559 12.7469 6.57111C12.8475 6.59765 12.91 6.56451 12.9345 6.47169L13.1509 5.65177C12.9907 5.66326 12.8276 5.66986 12.6694 5.67361L12.6746 5.27783C12.8665 5.28713 13.0567 5.28768 13.2489 5.28049L13.4633 4.4683L12.9992 4.3458L13.0931 3.98999L13.5572 4.11248L13.7368 3.4318L14.1043 3.52877L13.9246 4.20946L14.2843 4.3044L14.1904 4.66021L13.8307 4.56528L13.652 5.2421C13.7765 5.22529 13.898 5.20359 14.0206 5.17803Z" fill="white"/>
<path d="M17.5006 4.47657C17.6983 4.74837 17.8575 5.00932 17.9781 5.25943L17.6426 5.44747C17.5467 5.21266 17.3924 4.94894 17.1781 4.64753L17.5006 4.47657ZM18.7309 8.54675C18.5229 8.48817 18.2969 8.42032 18.0554 8.34813C17.8101 8.27485 17.6164 8.19534 17.4694 8.11237C17.3284 8.02277 17.2235 7.89349 17.1449 7.73004C17.1133 7.65049 17.0758 7.60667 17.0296 7.59365C16.9526 7.57196 16.7652 7.70616 16.4712 7.99735L16.2722 7.67116C16.5525 7.41354 16.7811 7.266 16.9568 7.23239L17.2638 6.14281L16.744 5.99636L16.8395 5.65755L17.7019 5.90054L17.2908 7.35973C17.3019 7.37947 17.3168 7.40029 17.3295 7.42882C17.3849 7.55664 17.4556 7.65967 17.5378 7.73684C17.6343 7.8222 17.79 7.9035 18.0112 7.97412C18.2257 8.03871 18.4787 8.11416 18.7752 8.19769C18.96 8.24976 19.1536 8.30015 19.351 8.35162C19.5446 8.40201 19.6969 8.43661 19.803 8.4582L19.6125 8.79516L18.7309 8.54675ZM18.2227 5.26183L18.6462 5.38115L18.81 4.79979L19.1603 4.8985L18.9965 5.47987L19.5201 5.6274L19.6829 5.04988L20.0371 5.14968L19.8744 5.72719L20.3325 5.85628L20.236 6.19894L19.7778 6.06985L19.5858 6.75132L20.1672 6.91512L20.0695 7.26163L19.4882 7.09783L19.1931 8.14506L18.8389 8.04526L19.134 6.99803L18.5218 6.82555C18.2892 7.23794 18.0045 7.51096 17.6589 7.64629L17.5219 7.29185C17.7809 7.19859 17.9961 7.0099 18.1676 6.72575L17.7017 6.59449L17.7994 6.24799L18.3345 6.39877C18.3868 6.2722 18.4325 6.13962 18.4726 5.99717L18.5496 5.72381L18.1261 5.60449L18.2227 5.26183ZM18.9 5.82252L18.8468 6.01118C18.7969 6.18828 18.7398 6.34673 18.681 6.4964L19.2316 6.65152L19.4236 5.97005L18.9 5.82252Z" fill="white"/>
<path d="M21.0884 6.12095L22.6361 6.57163C22.59 6.35821 22.5174 6.1496 22.4195 5.94196L22.8235 5.91379C22.9081 6.13839 22.9749 6.39532 23.0202 6.68346L24.4757 7.1073L24.3706 7.46831L23.783 7.2972C23.4287 7.82728 23.014 8.23562 22.5378 8.52607C22.8421 8.96882 23.262 9.38687 23.7908 9.77416L23.4978 10.0221C22.9466 9.61165 22.5158 9.17376 22.2094 8.70958C21.6636 8.96726 21.047 9.09601 20.3596 9.09583L20.2577 8.7162C20.9268 8.73606 21.5114 8.63132 22.0203 8.40038C21.7209 7.85491 21.5705 7.26954 21.5709 6.65306L20.9833 6.48196L21.0884 6.12095ZM21.9204 6.75482C21.9441 7.27417 22.0845 7.76499 22.3465 8.22456C22.7571 7.97334 23.1121 7.62678 23.4066 7.18761L21.9204 6.75482Z" fill="white"/>
<path d="M26.1837 6.89761L26.479 7.1579C26.2573 7.43521 26.0015 7.68603 25.7129 7.90653L24.9806 10.4388L24.6194 10.3343L25.2284 8.2286C25.0241 8.34442 24.8095 8.45307 24.5856 8.5507L24.5803 8.13695C25.2291 7.83739 25.7644 7.42593 26.1837 6.89761ZM26.991 10.9452L26.2725 10.7374C25.9651 10.6485 25.8558 10.4504 25.9447 10.143L26.2559 9.06705C26.0964 9.10006 25.9331 9.13195 25.7671 9.15889L25.7019 8.76528C25.9361 8.73306 26.1637 8.69478 26.3792 8.64053L26.8115 7.14578L27.1765 7.25135L26.8098 8.51939C27.2586 8.37852 27.6752 8.19085 28.0517 7.95415L28.222 8.31568C27.7481 8.58669 27.2353 8.80482 26.682 8.96128L26.3242 10.1986C26.2931 10.3062 26.3352 10.3766 26.4581 10.4122L27.0307 10.5778C27.1191 10.6033 27.1933 10.5915 27.2522 10.5461C27.3073 10.4995 27.3931 10.3037 27.503 9.95237L27.8089 10.1616C27.6542 10.5957 27.5265 10.8502 27.4307 10.9225C27.331 10.9936 27.1832 11.0008 26.991 10.9452Z" fill="white"/>
<path d="M29.8558 9.6489L29.1386 9.45133L28.7339 10.9206C28.7084 11.0132 28.7447 11.0771 28.8488 11.1058L29.5198 11.2906C29.6355 11.3225 29.7173 11.3118 29.7602 11.2614C29.8081 11.2082 29.8673 11.0834 29.9369 10.891L30.2483 11.1012C30.125 11.4283 30.0224 11.6199 29.9339 11.6702C29.8552 11.7149 29.7195 11.7107 29.5343 11.6597L28.5972 11.4016C28.3543 11.3347 28.2666 11.1861 28.3303 10.9547L28.8349 9.1229L28.5988 9.25702L28.4646 8.9006C28.9234 8.666 29.3683 8.3612 29.7983 7.99005L30.0682 8.0644C30.3099 8.51266 30.5318 8.9721 30.7264 9.44059L30.4183 9.6254C30.2077 9.09443 30.0274 8.67965 29.8685 8.3828C29.5862 8.62451 29.2839 8.84828 28.954 9.05198L30.3037 9.42374L30.0106 10.4881C29.9483 10.6991 29.8018 10.7791 29.5662 10.7308C29.4158 10.6894 29.2741 10.6462 29.1413 10.6013L29.1471 10.2337C29.2856 10.2884 29.4068 10.3301 29.5148 10.3599C29.6035 10.3843 29.6625 10.3508 29.6859 10.2659L29.8558 9.6489ZM31.1177 8.69783L31.4763 8.79661L30.821 11.176L30.4623 11.0772L31.1177 8.69783ZM30.9075 12.067L30.3252 11.9066L30.337 11.5323C30.5217 11.5997 30.7008 11.6574 30.8705 11.7041C30.9631 11.7296 31.0253 11.6845 31.0561 11.5727L31.8867 8.55697L32.2531 8.65788L31.397 11.7661C31.3226 12.0361 31.1582 12.136 30.9075 12.067Z" fill="white"/>
<path d="M33.2366 9.4588L32.6316 9.30636L32.7097 8.99606L33.9897 9.31853C33.9753 9.24477 33.9599 9.17489 33.9426 9.11277L34.3577 9.15136C34.3702 9.23287 34.3846 9.32312 34.3931 9.42015L35.7352 9.75826L35.657 10.0686L35.0403 9.91319L34.8692 10.1176L35.7807 10.3472L35.7006 10.6653L32.3105 9.81123L32.3906 9.49316L33.2711 9.71498L33.2366 9.4588ZM33.6551 9.81172L34.4852 10.0208L34.6563 9.81645L33.6206 9.55554L33.6551 9.81172ZM32.6728 10.0758L35.2561 10.7266L34.9512 11.9367L32.368 11.2859L32.6728 10.0758ZM34.6609 11.5666L34.7097 11.3727L32.8479 10.9036L32.7991 11.0976L34.6609 11.5666ZM32.9144 10.6399L34.7762 11.1089L34.8241 10.9188L32.9622 10.4498L32.9144 10.6399ZM32.1825 11.4001L32.5207 11.5637C32.3543 11.8476 32.1638 12.0801 31.9481 12.265L31.6798 11.9871C31.8878 11.8167 32.0521 11.623 32.1825 11.4001ZM33.9329 12.8187L32.9865 12.5803C32.6878 12.505 32.5746 12.3321 32.6411 12.0684L32.7662 11.5719L33.1385 11.6657L33.033 12.0846C33.0086 12.1816 33.0541 12.2467 33.1743 12.277L33.9462 12.4714C34.016 12.489 34.0703 12.4862 34.1043 12.4659C34.1519 12.4407 34.2045 12.3467 34.263 12.18L34.5837 12.3804C34.4843 12.6441 34.388 12.7972 34.289 12.83C34.2035 12.858 34.0842 12.8568 33.9329 12.8187ZM33.7488 11.6503C33.8649 11.8446 33.947 12.0096 33.9982 12.1504L33.638 12.2865C33.581 12.1361 33.497 11.9622 33.3848 11.769L33.7488 11.6503ZM34.9385 12.0367C35.0883 12.3425 35.1955 12.6047 35.2611 12.8192L34.9009 12.9553C34.8334 12.7156 34.732 12.4466 34.5929 12.1476L34.9385 12.0367Z" fill="white"/>
<path d="M39.7799 10.689L39.0726 13.8959L38.7132 13.8166L38.7761 13.5315L37.9285 13.3445L37.8552 13.6765L37.4998 13.5981L38.2175 10.3444L39.7799 10.689ZM38.006 12.993L38.8536 13.1799L39.3439 10.9574L38.4962 10.7704L38.006 12.993ZM36.2697 10.7626L36.922 10.9065L37.0254 10.4378C36.8397 10.4255 36.6518 10.4045 36.4686 10.3805L36.4247 10.0226C37.0366 10.1085 37.5425 10.1176 37.9446 10.0589L38.0523 10.4062C37.8375 10.4326 37.6206 10.4503 37.3994 10.4506L37.2813 10.9858L37.918 11.1262L37.8414 11.4739L37.2047 11.3334L37.1702 11.4897C37.3467 11.7293 37.522 11.9933 37.696 12.2815L37.4066 12.5536C37.286 12.2648 37.1815 12.0328 37.0909 11.849L36.7248 13.5091L36.3654 13.4299L36.7143 11.8479C36.4857 12.1415 36.2163 12.3975 35.9138 12.6175L35.8432 12.176C36.2559 11.9393 36.5891 11.6359 36.841 11.2737L36.8453 11.2542L36.193 11.1103L36.2697 10.7626Z" fill="white"/>
<path d="M40.6613 10.6817C40.8777 10.9174 41.0502 11.1489 41.1881 11.3699L40.8841 11.5818C40.7691 11.3691 40.5934 11.1329 40.3602 10.8778L40.6613 10.6817ZM39.949 11.7086L40.8298 11.8728L40.5198 13.5361C40.6607 13.4566 40.8125 13.3628 40.979 13.2555L41.0079 13.6678C40.7083 13.8561 40.3974 14.0178 40.0759 14.1491L39.9974 13.7846C40.0706 13.7413 40.1191 13.6771 40.1345 13.5945L40.4014 12.1632L39.8823 12.0664L39.949 11.7086ZM41.2656 12.4382L43.1727 12.7937L43.109 13.1358C42.9297 13.4645 42.6852 13.7282 42.3748 13.9308C42.5957 14.1428 42.8746 14.3494 43.205 14.5412L42.9444 14.8263C42.5805 14.5957 42.2878 14.354 42.0571 14.1075C41.7093 14.2705 41.2949 14.3764 40.8217 14.4265L40.6719 14.0731C41.1115 14.0289 41.49 13.9408 41.8083 13.8048C41.5893 13.4954 41.458 13.1739 41.4223 12.8417L41.1982 12.8L41.2656 12.4382ZM41.7723 12.907C41.818 13.1637 41.931 13.4086 42.1146 13.6462C42.3628 13.4931 42.5683 13.3077 42.7278 13.0851L41.7723 12.907ZM41.8238 10.9717L43.2158 11.2312L43.0619 12.0569C43.0458 12.1434 43.0841 12.1994 43.1825 12.2177L43.5285 12.2823L43.4647 12.6244L43.0204 12.5415C42.7412 12.4895 42.6285 12.3301 42.6769 12.0706L42.781 11.5122L42.1282 11.3905L42.1062 11.5085C42.03 11.9175 41.7622 12.1971 41.3075 12.3443L41.1133 12.011C41.4715 11.9232 41.6794 11.7463 41.7292 11.4789L41.8238 10.9717Z" fill="white"/>
<path d="M45.2122 12.6083L46.2484 12.765L46.4236 11.6062L46.8112 11.6647L46.636 12.8236L47.6169 12.9719L47.5607 13.3436L46.5798 13.1954L46.2575 15.3271L45.8699 15.2685L46.1922 13.1368L45.156 12.9801L45.2122 12.6083ZM44.6622 11.3763C44.8899 11.6089 45.0782 11.8356 45.2263 12.0603L44.9297 12.2825C44.7996 12.0727 44.612 11.842 44.3623 11.5939L44.6622 11.3763ZM43.9667 12.4443L44.8803 12.5824L44.6256 14.2673C44.7677 14.1836 44.9162 14.0847 45.0743 13.9751L45.1152 14.3737C44.8262 14.5727 44.521 14.745 44.2042 14.8873L44.1127 14.5296C44.1883 14.4844 44.234 14.4225 44.246 14.3434L44.466 12.8879L43.9123 12.8042L43.9667 12.4443Z" fill="white"/>
<path d="M48.2179 13.2998L48.1488 13.8797L48.7049 13.946L48.774 13.3661L48.2179 13.2998ZM48.8142 13.0285L48.8842 12.4406L48.3282 12.3744L48.2581 12.9622L48.8142 13.0285ZM48.1002 14.2204C48.008 14.7572 47.8592 15.1947 47.6542 15.5288L47.399 15.2365C47.5991 14.9099 47.731 14.4785 47.7989 13.9428L48.0313 11.9926L49.2665 12.1397L48.8964 15.2458C48.8643 15.5159 48.725 15.6362 48.4828 15.6074L48.165 15.5695L48.1134 15.225C48.2232 15.2501 48.3215 15.2699 48.4169 15.2813C48.5003 15.2912 48.5525 15.2249 48.5691 15.0859L48.6642 14.2876L48.1002 14.2204ZM49.6762 14.0093L49.5072 15.4273C49.727 15.3407 49.9188 15.2185 50.0857 15.0692C49.8903 14.7479 49.7712 14.3953 49.7278 14.0155L49.6762 14.0093ZM49.5058 15.4392L49.4699 15.7411L49.1164 15.699L49.5366 12.1719L51.2088 12.3712C51.1473 12.8875 51.0827 13.2263 51.0147 13.3914C50.9472 13.5525 50.7863 13.6179 50.5321 13.5876L50.1985 13.5479L50.137 13.2183C50.2006 13.2259 50.2875 13.2403 50.3987 13.2535C50.4821 13.2635 50.5466 13.2631 50.5877 13.2559C50.6289 13.2487 50.6649 13.2168 50.6954 13.164C50.7273 13.0993 50.763 12.9344 50.8027 12.6692L49.8494 12.5556L49.716 13.6757L51.0585 13.8357L51.0206 14.1534C50.9027 14.5341 50.7438 14.8536 50.5443 15.1078C50.6887 15.2821 50.8628 15.4438 51.0622 15.5965L50.8376 15.892C50.6273 15.73 50.4467 15.5554 50.2993 15.3726C50.1147 15.5359 49.9021 15.6637 49.6654 15.7563L49.5058 15.4392ZM50.0496 14.0538C50.0982 14.3215 50.1895 14.57 50.3272 14.7999C50.471 14.6076 50.5903 14.3841 50.6851 14.1295L50.0496 14.0538Z" fill="white"/>
<path d="M53.1314 12.3957L53.513 12.4854C53.4648 12.5775 53.4129 12.6653 53.3577 12.7448L55.0632 12.8945L55.0363 13.2013C54.773 13.4553 54.4612 13.6688 54.105 13.8383C54.5174 14.0351 54.9821 14.1843 55.5039 14.2783L55.3014 14.6179C54.6901 14.492 54.1455 14.2916 53.6721 14.0131C53.175 14.1863 52.6035 14.2928 51.9655 14.3332L51.8213 13.9631C52.3612 13.9423 52.8492 13.8727 53.2772 13.7536C53.0958 13.6253 52.9316 13.4824 52.7801 13.3326C52.6345 13.4362 52.4776 13.5309 52.3055 13.6161L52.101 13.293C52.5906 13.067 52.9341 12.7679 53.1314 12.3957ZM53.703 13.6143C53.9899 13.503 54.2469 13.3649 54.4782 13.2005L53.0796 13.0778C53.0666 13.0887 53.0579 13.0959 53.0532 13.1036C53.2454 13.2931 53.4632 13.4648 53.703 13.6143ZM53.3598 14.2307L53.7344 14.2636C53.7218 14.407 53.698 14.5414 53.6668 14.6672L55.0416 14.7879C54.9724 15.4845 54.8759 15.8976 54.7524 16.0233C54.629 16.149 54.4234 16.2032 54.1445 16.1787C54.009 16.1669 53.8424 16.1442 53.6522 16.1155L53.5866 15.7644C53.7931 15.7905 53.9598 15.8132 54.0866 15.8324C54.2901 15.8462 54.4215 15.8136 54.4803 15.7384C54.5394 15.6593 54.5906 15.4429 54.6333 15.0933L53.5534 14.9985C53.5092 15.091 53.4613 15.1792 53.4061 15.2587C53.1754 15.5998 52.6833 15.8537 51.9255 16.0241L51.7014 15.6953C52.3677 15.561 52.8144 15.3673 53.0377 15.1099C53.0742 15.0609 53.1106 15.0119 53.139 14.9622L52.0193 14.8639L52.0491 14.5252L53.2843 14.6336C53.3194 14.5082 53.3472 14.3741 53.3598 14.2307Z" fill="white"/>
<path d="M56.5558 12.6736L56.9291 12.7285L56.8468 13.2204L59.1984 13.3647L59.1761 13.728L56.7886 13.5815L56.6982 14.141L58.91 14.2767C58.8417 15.3906 58.7222 16.0325 58.5597 16.1989C58.3977 16.3573 58.0691 16.4213 57.5701 16.3906C57.4423 16.3828 57.307 16.3665 57.1678 16.3499L57.0893 15.9965C57.2917 16.0289 57.4347 16.0497 57.5145 16.0546C57.9377 16.0806 58.1977 16.0244 58.2901 15.8898C58.3872 15.7435 58.4613 15.3192 58.5049 14.6085L56.2532 14.4704L56.5558 12.6736ZM55.732 14.9955L57.9838 15.1336L57.9615 15.4969L55.7098 15.3588L55.732 14.9955Z" fill="white"/>
<path d="M63.1574 13.247L63.0091 16.7198L62.6375 16.704L62.6472 16.4762L61.4523 16.4252L61.4424 16.657L61.0827 16.6416L61.2312 13.1648L63.1574 13.247ZM61.4675 16.0695L62.6624 16.1205L62.6885 15.5091L61.4936 15.458L61.4675 16.0695ZM61.5084 15.1104L62.7033 15.1614L62.7301 14.5339L61.5352 14.4829L61.5084 15.1104ZM61.5501 14.1352L62.745 14.1863L62.7706 13.5868L61.5757 13.5358L61.5501 14.1352ZM60.5283 14.6241L60.4436 16.6063L60.072 16.5904L60.1517 14.7241C60.0098 15.0464 59.841 15.3434 59.6455 15.6073L59.5177 15.2255C59.8088 14.8777 60.026 14.4786 60.1737 14.0204L59.6502 13.9981L59.6657 13.6344L60.1972 13.6571L60.2291 12.9098L60.6008 12.9257L60.5689 13.673L61.0524 13.6936L61.0369 14.0573L60.5534 14.0366L60.5459 14.2125C60.714 14.3998 60.8853 14.6073 61.0519 14.8306L60.831 15.1295C60.7155 14.9284 60.6146 14.7599 60.5283 14.6241Z" fill="white"/>
<path d="M64.7945 13.0953C64.9417 13.2988 65.0845 13.5223 65.2187 13.7656L64.9679 13.8836L65.7956 13.9033C65.945 13.6788 66.0794 13.4099 66.1988 13.1007L66.5683 13.2095C66.4741 13.4713 66.3565 13.7046 66.2235 13.9135L66.9833 13.9316L66.9745 14.2995L65.6709 14.2684L65.668 14.3924C65.6554 14.5842 65.6312 14.7596 65.5993 14.9229L67.1909 14.9608L67.1821 15.3287L65.7825 15.2954C65.9669 15.7839 66.4578 16.1757 67.2549 16.4747L67.0224 16.8293C66.1908 16.4654 65.6698 15.9969 65.4513 15.4276C65.3748 15.6138 65.2829 15.7796 65.1755 15.9211C64.895 16.2746 64.4445 16.5399 63.8241 16.7172L63.6241 16.3804C64.2447 16.1951 64.6666 15.953 64.8937 15.6544C64.9725 15.5402 65.0395 15.4138 65.0947 15.279L63.7271 15.2465L63.7358 14.8786L65.2074 14.9136C65.2434 14.7464 65.2716 14.571 65.2841 14.3833L65.287 14.2593L63.9794 14.2282L63.9881 13.8603L64.8439 13.8807C64.7174 13.6456 64.5823 13.4383 64.4427 13.255L64.7945 13.0953Z" fill="white"/>
<path d="M69.8055 13.1109C69.8608 13.2392 69.9121 13.3835 69.9673 13.5437L71.3553 13.5507L71.3535 13.9106L70.6815 13.9073C70.6406 14.0871 70.5837 14.2628 70.5109 14.4305L71.4349 14.4351L71.4331 14.8031L68.5931 14.7889L68.5904 15.3289C68.5713 15.9528 68.4288 16.4561 68.1549 16.8347L67.8642 16.5773C68.0817 16.2744 68.1958 15.8589 68.2064 15.327L68.2109 14.419L69.0189 14.423L68.8815 13.8983L68.1695 13.8948L68.1713 13.5348L69.5793 13.5418C69.528 13.4095 69.4686 13.2852 69.4051 13.1729L69.8055 13.1109ZM69.3949 14.4249L70.1469 14.4286C70.2197 14.261 70.2766 14.0853 70.3175 13.9055L69.2535 13.9002L69.3949 14.4249Z" fill="white"/>
<path d="M72.7948 13.1872L73.1748 13.1827L73.2113 16.3265L73.6912 16.321L73.6547 13.1772L74.0347 13.1728L74.0712 16.3166L75.2391 16.303L75.2434 16.675L71.6757 16.7164L71.6714 16.3444L72.8313 16.3309L72.7948 13.1872ZM74.7913 13.908L75.1284 14.0001C74.9844 14.6898 74.7954 15.2921 74.5614 15.8108L74.22 15.6948C74.4386 15.2282 74.6317 14.6299 74.7913 13.908ZM72.0474 13.9319C72.2576 14.4655 72.4447 15.0753 72.6127 15.7614L72.2657 15.8535C72.1224 15.2271 71.9394 14.6212 71.7246 14.0396L72.0474 13.9319Z" fill="white"/>
<path d="M77.5655 13.7476L78.1133 13.7326L78.0951 13.0688L78.451 13.0591L78.4692 13.7228L79.033 13.7073L79.0789 15.3787L78.5151 15.3942L78.5367 16.1779L78.8229 16.11C78.7788 15.9591 78.7348 15.8163 78.6871 15.6816L78.9765 15.5816C79.0925 15.8745 79.1979 16.2117 79.2884 16.5934L78.9666 16.6783C78.9482 16.5907 78.9259 16.5073 78.9076 16.4238C78.5223 16.5304 78.1127 16.6217 77.6826 16.6975L77.5849 16.3441C77.7883 16.3185 77.9875 16.289 78.1826 16.2516L78.1593 15.404L77.6115 15.419L77.5655 13.7476ZM78.75 15.0596L78.7221 14.044L78.4582 14.0512L78.4861 15.0668L78.75 15.0596ZM78.1742 15.0754L78.1463 14.0598L77.8984 14.0666L77.9263 15.0822L78.1742 15.0754ZM75.5514 13.2588L77.4786 13.2058L77.488 13.5457L75.5607 13.5987L75.5514 13.2588ZM75.7817 13.7767L77.2651 13.7359L77.2902 14.6475L75.8067 14.6883L75.7817 13.7767ZM76.9502 14.3608L76.9414 14.0409L76.1257 14.0633L76.1345 14.3832L76.9502 14.3608ZM76.1086 15.7724L76.2806 15.7677C76.2286 15.6251 76.1729 15.4906 76.1094 15.3643L76.3472 15.2817C76.4106 15.404 76.4665 15.5465 76.5149 15.7052L76.3125 15.7668L76.6004 15.7589C76.66 15.5972 76.7153 15.4236 76.7583 15.2424L77.0166 15.3233C76.9729 15.4806 76.9208 15.6221 76.8683 15.7516L77.0483 15.7466L77.0562 16.0345L76.7243 16.0436L76.7433 16.7354L76.4434 16.7436L76.4244 16.0519L76.1165 16.0603L76.1086 15.7724ZM77.1877 16.7432L76.9038 16.751L76.8026 16.4176L77.0671 16.4303C77.135 16.4285 77.1702 16.3995 77.1688 16.3475L77.1357 15.144L75.9882 15.1755L76.033 16.8069L75.7051 16.8159L75.6517 14.8726L77.455 14.8231L77.4987 16.4105C77.5046 16.6264 77.3996 16.7373 77.1877 16.7432Z" fill="white"/>
<path d="M81.3664 12.9277L81.6461 12.916C82.1736 13.4622 82.7679 13.8856 83.4371 14.1857L83.2487 14.5579C83.0238 14.4473 82.8106 14.3282 82.613 14.2004L82.625 14.4841L80.5229 14.5727L80.5106 14.281C80.3168 14.4333 80.1105 14.5741 79.892 14.7074L79.6767 14.3481C80.3609 13.959 80.9253 13.4828 81.3664 12.9277ZM80.6074 14.2048L82.5018 14.125C82.139 13.8761 81.8106 13.5896 81.5207 13.2655C81.2668 13.6045 80.9637 13.9176 80.6074 14.2048ZM82.8948 14.9011L82.9647 16.5597L82.597 16.5752L82.5879 16.3594L80.7176 16.4382L80.7267 16.654L80.359 16.6695L80.2891 15.0109L82.8948 14.9011ZM80.7024 16.0785L82.5728 15.9997L82.5421 15.2723L80.6718 15.3511L80.7024 16.0785Z" fill="white"/>
<path d="M84.0482 14.1022L84.3002 12.9187L84.6831 12.9619L84.5157 13.7122L85.1068 13.68C85.1666 13.3803 85.2096 13.0655 85.2396 12.7353L85.6297 12.7622C85.5989 13.0803 85.5551 13.3791 85.5022 13.6584L87.3315 13.5588L87.3513 13.9222L85.4262 14.0271C85.3934 14.1611 85.3562 14.2873 85.3228 14.4093L86.9204 14.3223L86.9379 14.6418C86.8518 14.975 86.6722 15.2812 86.391 15.5609C86.7037 15.7121 87.0797 15.8479 87.5149 15.9684L87.3387 16.3385C86.8459 16.1891 86.4278 16.0156 86.089 15.8257C85.7854 16.0626 85.4089 16.2834 84.9594 16.4881L84.7401 16.1395C85.1316 15.974 85.4664 15.7955 85.7407 15.6083C85.4697 15.4148 85.2618 15.2018 85.1212 14.9731C84.8658 15.5799 84.528 16.071 84.1118 16.4462L83.897 16.1054C84.4216 15.588 84.7969 14.9026 85.0228 14.0491L84.0482 14.1022ZM85.3855 14.7504C85.5301 14.9789 85.7498 15.1872 86.0442 15.3715C86.2848 15.1541 86.4565 14.9244 86.5557 14.6866L85.3855 14.7504ZM86.2983 12.6817C86.5852 12.8743 86.8284 13.0734 87.0276 13.2749L86.7708 13.5613C86.5998 13.3623 86.3643 13.1588 86.0564 12.9472L86.2983 12.6817Z" fill="white"/>
<path d="M88.6414 14.05L89.1923 14.0146L89.1718 13.6953L88.5052 13.7381L88.5246 14.0415C88.54 14.281 88.539 14.5136 88.5289 14.7307L89.2354 14.6852L89.2138 14.3499L88.663 14.3853L88.6414 14.05ZM88.503 15.077C88.4551 15.517 88.3568 15.9201 88.2077 16.2824L87.8826 16.0268C88.1018 15.5076 88.1882 14.8568 88.1414 14.0661L88.0552 12.7249L91.1089 12.5287L91.1756 13.5665L90.6208 13.6022L90.6413 13.9215L91.2401 13.883L91.2616 14.2183L90.6629 14.2568L90.6844 14.5921L91.4189 14.5449L91.441 14.8882L91.0418 14.9139L91.2879 15.1265C91.1739 15.2862 91.0462 15.4186 90.9086 15.5237C91.1196 15.6263 91.3565 15.6953 91.6233 15.7303L91.4668 16.1011C90.7362 15.9596 90.1994 15.5893 89.8522 14.9903L89.3572 15.0221L89.406 15.7806C89.6416 15.7053 89.8489 15.6238 90.0236 15.5364L90.1178 15.8791C89.8016 16.0117 89.4246 16.1321 88.9866 16.2404L88.8615 15.9158C88.9782 15.8602 89.0327 15.7725 89.0245 15.6447L88.986 15.046L88.503 15.077ZM90.2354 14.9657C90.3407 15.1072 90.4607 15.2278 90.5956 15.3313C90.7414 15.2298 90.8729 15.0931 90.9899 14.9172L90.2354 14.9657ZM90.2535 13.6258L89.535 13.6719L89.5555 13.9913L90.2741 13.9451L90.2535 13.6258ZM89.5986 14.6619L90.3172 14.6157L90.2956 14.2804L89.5771 14.3266L89.5986 14.6619ZM90.7481 12.9006L88.4608 13.0476L88.4833 13.3988L90.7706 13.2518L90.7481 12.9006Z" fill="white"/>
<path d="M93.1503 12.9147L93.3484 15.6917L92.9853 15.7176L92.9705 15.5101L92.3401 15.5551L92.3631 15.8782L92.0001 15.9041L91.7937 13.0115L92.1728 12.9845C92.2292 12.7639 92.2694 12.5405 92.2848 12.3068L92.6676 12.3316C92.6433 12.5539 92.598 12.7616 92.5358 12.9586L93.1503 12.9147ZM92.315 15.204L92.9454 15.159L92.8894 14.373L92.259 14.418L92.315 15.204ZM92.2348 14.0788L92.8652 14.0339L92.8128 13.2997L92.1824 13.3447L92.2348 14.0788ZM93.9368 13.8211C94.2234 14.1295 94.4471 14.3982 94.6044 14.6356L94.3202 14.8685C94.1499 14.6159 93.9216 14.3395 93.6432 14.0345L93.9368 13.8211ZM95.2093 12.7719C95.3075 14.1484 95.3482 14.9997 95.3311 15.3217C95.3116 15.6118 95.1304 15.7691 94.7912 15.7933C94.7114 15.799 94.5672 15.8012 94.3669 15.8035L94.2504 15.4629C94.4265 15.4584 94.5787 15.4556 94.7063 15.4464C94.8659 15.4351 94.9517 15.3447 94.9637 15.1755C94.9734 14.9743 94.9376 14.3031 94.8645 13.1654L93.863 13.2368C93.7684 13.4842 93.6563 13.7128 93.519 13.9231L93.2702 13.64C93.5062 13.2382 93.6564 12.7583 93.7129 12.2009L94.0914 12.222C94.0674 12.4483 94.0264 12.6598 93.9765 12.8598L95.2093 12.7719Z" fill="white"/>
<path d="M97.5837 14.8394C97.2866 15.2068 96.7879 15.5092 96.0918 15.7463L95.86 15.4389C96.5871 15.1874 97.075 14.9019 97.3194 14.5786L97.3802 14.4817L95.8326 14.5986L95.8055 14.2396L97.5486 14.108C97.6262 13.8614 97.6619 13.59 97.6555 13.2936L97.6188 12.807L97.9857 12.7793L98.0225 13.2659C98.0328 13.5619 98.0091 13.8325 97.9474 14.0778L99.1999 13.9833L99.227 14.3422L97.819 14.4486C97.8014 14.482 97.7839 14.5154 97.7704 14.5485C98.3371 14.7223 98.8629 14.9393 99.3473 15.1916L99.1646 15.5343C98.6447 15.2366 98.1179 15.0076 97.5837 14.8394ZM96.3187 13.4387C96.6106 13.533 96.8804 13.653 97.1281 13.7988L96.9552 14.1127C96.6938 13.9439 96.4237 13.8199 96.1526 13.736L96.3187 13.4387ZM96.6674 12.8508C96.959 12.9411 97.2288 13.0611 97.4725 13.2071L97.2997 13.521C97.0385 13.3562 96.7721 13.2279 96.501 13.1441L96.6674 12.8508ZM99.0269 12.1711L99.0886 12.9888L98.7217 13.0165L98.6861 12.5459L96.0856 12.7423L96.1211 13.2129L95.7541 13.2406L95.6924 12.423L97.1881 12.31C97.1358 12.2016 97.0841 12.1012 97.029 12.0091L97.4111 11.9161C97.4674 12.0242 97.5206 12.1445 97.571 12.2811L99.0269 12.1711Z" fill="white"/>
<path d="M99.4886 12.3157L100.067 12.2713C99.9856 12.101 99.9012 11.943 99.8101 11.8016L100.192 11.7041C100.272 11.8624 100.354 12.0406 100.434 12.2431L100.904 12.207L100.933 12.5739L100.155 12.6336L100.191 13.1002L100.897 13.046C100.976 14.083 101.006 14.7266 100.992 14.9724C100.971 15.2147 100.805 15.3518 100.486 15.3763C100.454 15.3788 100.398 15.3751 100.321 15.3729L100.211 15.0404C100.284 15.0468 100.348 15.0499 100.404 15.0456C100.544 15.0349 100.622 14.9606 100.64 14.8229C100.649 14.6858 100.626 14.2182 100.573 13.4239L100.214 13.4515C100.257 14.3348 100.16 14.9962 99.9208 15.4358L99.6186 15.2102C99.8319 14.8007 99.9071 14.1611 99.8449 13.2993L99.7959 12.6612L99.5167 12.6826L99.4886 12.3157ZM101.496 12.3942C101.387 12.6914 101.258 12.95 101.111 13.174L100.841 12.8978C101.054 12.5846 101.222 12.1585 101.349 11.6232L101.71 11.6757C101.679 11.7984 101.648 11.9132 101.617 12.0279L102.993 11.9222L103.02 12.2772L101.496 12.3942ZM102.914 12.7306C102.973 13.4924 102.988 13.9565 102.969 14.1185C102.945 14.2808 102.804 14.3759 102.541 14.3961L102.521 14.3976L102.401 14.0859C102.468 14.0807 102.529 14.0801 102.58 14.0761C102.624 14.0727 102.649 14.0307 102.651 13.9543C102.654 13.8859 102.643 13.642 102.612 13.2272L102.317 13.3582L102.417 14.6584L102.066 14.6853L101.975 13.5088L101.676 13.6401L101.756 14.681C101.77 14.8565 101.837 14.9436 101.956 14.9344L102.71 14.8765C102.794 14.8701 102.856 14.8453 102.893 14.8023C102.937 14.7508 102.958 14.6087 102.956 14.3722L103.291 14.4508C103.282 14.7965 103.237 15.0045 103.155 15.0831C103.08 15.149 102.963 15.1901 102.795 15.203L101.874 15.2737C101.603 15.2946 101.453 15.1255 101.427 14.7745L101.351 13.7854L101.075 13.9069L101.049 13.5639L101.324 13.4424L101.283 12.908L101.618 12.8823L101.65 13.2971L101.949 13.1618L101.9 12.5357L102.251 12.5087L102.29 13.0112L102.914 12.7306Z" fill="white"/>
<path d="M104.619 11.9306L103.997 11.9772L103.973 11.6581L105.289 11.5594C105.252 11.494 105.216 11.4326 105.179 11.3791L105.586 11.2845C105.623 11.3579 105.665 11.439 105.704 11.5283L107.084 11.4248L107.108 11.7439L106.474 11.7915L106.376 12.0395L107.314 11.9692L107.338 12.2963L103.852 12.5577L103.827 12.2306L104.733 12.1627L104.619 11.9306ZM105.128 12.1331L105.981 12.0691L106.079 11.8211L105.014 11.901L105.128 12.1331ZM104.279 12.6941L106.936 12.4949L107.029 13.7394L104.373 13.9386L104.279 12.6941ZM106.637 13.48L106.622 13.2806L104.707 13.4242L104.722 13.6236L106.637 13.48ZM104.687 13.1529L106.601 13.0094L106.587 12.8139L104.672 12.9575L104.687 13.1529ZM104.233 14.1056L104.605 14.1538C104.537 14.4758 104.43 14.7566 104.284 15.0002L103.941 14.8213C104.085 14.594 104.179 14.3582 104.233 14.1056ZM106.342 14.8981L105.369 14.971C105.061 14.9941 104.899 14.8658 104.879 14.5946L104.841 14.084L105.224 14.0553L105.256 14.4861C105.263 14.5858 105.327 14.6332 105.451 14.6239L106.245 14.5644C106.316 14.559 106.367 14.5392 106.393 14.5092C106.43 14.4703 106.45 14.3645 106.453 14.1878L106.821 14.2765C106.81 14.5581 106.767 14.7338 106.683 14.7963C106.611 14.8498 106.497 14.8864 106.342 14.8981ZM105.798 13.8478C105.969 13.9954 106.099 14.126 106.192 14.2434L105.894 14.4864C105.792 14.3617 105.657 14.2233 105.49 14.0755L105.798 13.8478ZM107.049 13.8382C107.287 14.0811 107.472 14.2959 107.602 14.4787L107.303 14.7217C107.164 14.5155 106.982 14.2925 106.756 14.0527L107.049 13.8382Z" fill="white"/>
<path d="M110.678 11.0969L110.835 13.3273L110.452 13.3543L110.321 11.4949L108.653 11.6121L108.784 13.4755L108.401 13.5025L108.244 11.268L110.678 11.0969ZM109.288 11.7961L109.663 11.7697L109.715 12.5159C109.722 12.7319 109.712 12.9291 109.685 13.1155L110.024 13.0916L110.091 14.0333C110.101 14.1809 110.158 14.2531 110.262 14.2458L110.844 14.2048C110.892 14.2015 110.939 14.1782 110.976 14.1394C111.017 14.0965 111.037 13.9266 111.033 13.6302L111.404 13.7244C111.387 14.1145 111.348 14.3459 111.285 14.4225C111.209 14.4919 111.104 14.5354 110.969 14.5529L110.183 14.6082C109.896 14.6284 109.74 14.4669 109.716 14.1278L109.656 13.2739C109.599 13.5426 109.507 13.7736 109.377 13.9752C109.137 14.3289 108.728 14.6143 108.15 14.8394L107.924 14.5345C108.502 14.3094 108.888 14.0456 109.08 13.7435C109.266 13.4256 109.35 13.0267 109.34 12.5423L109.288 11.7961Z" fill="white"/>
<path d="M112.097 10.824L113.041 12.6363L112.331 14.5526L112.003 14.429L112.657 12.6604L111.787 10.9877L112.097 10.824ZM112.78 10.781L113.723 12.5934L113.014 14.5097L112.686 14.386L113.34 12.6175L112.453 10.9458L112.78 10.781Z" fill="white"/>
</svg>
