<svg width="121" height="21" viewBox="0 0 121 21" fill="none" xmlns="http://www.w3.org/2000/svg">
<path d="M4.04951 13.5919L4.37379 13.7606L3.46696 15.4214L4.09979 17.1977L3.76991 17.3174L3.08403 15.3927L4.04951 13.5919ZM4.73159 13.6431L5.03992 13.8106L4.14904 15.4726L4.78187 17.2489L4.45199 17.3686L3.76611 15.4439L4.73159 13.6431Z" fill="white"/>
<path d="M6.74678 13.8317C6.88448 14.0419 7.0168 14.2716 7.13974 14.5208L6.8837 14.6272L7.70969 14.6849C7.86922 14.4675 8.01586 14.2051 8.14932 13.9016L8.51345 14.0273C8.40728 14.2845 8.27911 14.5121 8.13665 14.7147L8.8948 14.7677L8.86917 15.1348L7.56834 15.0439L7.5597 15.1676C7.53834 15.3586 7.50613 15.5328 7.46677 15.6944L9.05491 15.8053L9.02927 16.1724L7.63267 16.0749C7.79448 16.5714 8.26679 16.9853 9.04933 17.3206L8.8008 17.6641C7.9868 17.2625 7.48786 16.7705 7.29572 16.1917C7.21079 16.3743 7.1113 16.5357 6.99753 16.6721C6.70111 17.0123 6.23896 17.2567 5.61108 17.4053L5.42671 17.0596C6.05515 16.903 6.48769 16.6806 6.72834 16.3927C6.81223 16.2823 6.88499 16.159 6.94634 16.027L5.58167 15.9317L5.6073 15.5646L7.07573 15.6671C7.11935 15.5018 7.15555 15.3279 7.17663 15.1409L7.18527 15.0172L5.88045 14.9261L5.90608 14.559L6.76 14.6186C6.64448 14.378 6.51904 14.1647 6.38793 13.9751L6.74678 13.8317Z" fill="white"/>
<path d="M9.83582 14.1618L12.8575 14.3576L12.8334 14.7288L11.5601 14.6463L11.497 15.6203L13.0497 15.7209L13.0251 16.1001L11.4724 15.9995L11.3842 17.3606C11.366 17.64 11.209 17.7741 10.9177 17.7553L10.283 17.7141L10.227 17.3417C10.4298 17.3669 10.6248 17.3875 10.8084 17.3994C10.9362 17.4077 11.0039 17.352 11.0112 17.2402L11.0932 15.9749L9.47258 15.8698L9.49716 15.4906L11.1178 15.5957L11.1809 14.6217L9.81176 14.533L9.83582 14.1618Z" fill="white"/>
<path d="M14.4707 17.045L14.4491 17.4044C14.0546 17.5691 13.6105 17.6908 13.1167 17.7734L13.0915 17.3912C13.6168 17.3185 14.0766 17.2018 14.4707 17.045ZM13.9509 14.281L14.3019 14.4423C14.0745 14.8935 13.8484 15.2566 13.6236 15.5317C13.7763 15.5248 13.9332 15.5142 14.0863 15.4993C14.1748 15.3603 14.2635 15.2174 14.3609 15.0629L14.6966 15.2112C14.312 15.8133 13.989 16.2548 13.732 16.532C13.9993 16.4839 14.2677 16.4198 14.5454 16.3322L14.5246 16.6796C14.0636 16.8163 13.6297 16.9025 13.227 16.9345L13.148 16.5812C13.2178 16.5533 13.2759 16.5207 13.3264 16.4796C13.466 16.3558 13.6431 16.142 13.8617 15.8385C13.6524 15.854 13.4431 15.8695 13.2258 15.8846L13.151 15.5274C13.2123 15.5071 13.2711 15.4625 13.3233 15.3935C13.5595 15.063 13.7658 14.6947 13.9509 14.281ZM16.543 14.6245L16.3632 17.6272L16.6827 17.6463L16.6607 18.0136L14.3289 17.874L14.3509 17.5067L14.6783 17.5263L14.858 14.5237L16.543 14.6245ZM15.0496 17.5485L15.9919 17.6049L16.0306 16.9581L15.0883 16.9017L15.0496 17.5485ZM15.1098 16.5423L16.0522 16.5987L16.0914 15.9439L15.149 15.8875L15.1098 16.5423ZM15.1703 15.5321L16.1126 15.5885L16.1499 14.9657L15.2076 14.9092L15.1703 15.5321Z" fill="white"/>
<path d="M18.5886 17.392L18.5683 17.7634C18.1611 17.8855 17.6995 17.9765 17.1912 18.041L17.1597 17.6627C17.6997 17.604 18.1773 17.5138 18.5886 17.392ZM18.024 14.5171L18.3798 14.6766C18.1492 15.1608 17.9237 15.5491 17.7033 15.8456C17.8599 15.8381 18.0168 15.8266 18.1739 15.8111C18.266 15.6639 18.367 15.5012 18.4727 15.3266L18.805 15.4769C18.4276 16.0813 18.1108 16.5288 17.8548 16.8153C18.1135 16.7733 18.3732 16.7113 18.6379 16.6336L18.62 16.9611C18.1676 17.1047 17.7419 17.1977 17.3434 17.2321L17.2589 16.871C17.3326 16.8429 17.3904 16.81 17.4407 16.7687C17.5755 16.6478 17.7472 16.4369 17.9555 16.1437C17.75 16.1646 17.5408 16.1813 17.3234 16.2015L17.2425 15.8486C17.3079 15.8241 17.3624 15.779 17.4143 15.7097C17.642 15.3535 17.8439 14.9559 18.024 14.5171ZM18.9225 14.7903L20.7837 14.8916L20.6776 16.8407L18.8164 16.7394L18.9225 14.7903ZM20.3215 16.4648L20.3887 15.2306L19.2743 15.17L19.2072 16.4042L20.3215 16.4648ZM19.1545 16.9301L19.4773 17.1079C19.2604 17.5608 19.015 17.948 18.7371 18.2694L18.4262 18.0201C18.7028 17.7227 18.9469 17.3594 19.1545 16.9301ZM20.2529 16.9899C20.5168 17.4409 20.7158 17.8323 20.8539 18.1643L20.5182 18.3703C20.3776 18.0102 20.183 17.611 19.9349 17.1648L20.2529 16.9899Z" fill="white"/>
<path d="M21.5974 14.9383L24.7457 15.092L24.7277 15.4595L24.0885 15.4283L24.0417 16.3872L24.8847 16.4283L24.8667 16.7959L24.0237 16.7547L23.9393 18.4847L23.5598 18.4662L23.6442 16.7362L22.5735 16.684C22.514 17.0815 22.4219 17.4095 22.289 17.6713C22.1208 17.9995 21.8525 18.2467 21.4881 18.4091L21.2999 18.0796C21.6287 17.9074 21.8602 17.6784 21.9901 17.3964C22.0761 17.1923 22.1401 16.9472 22.1859 16.6651L21.307 16.6222L21.3249 16.2546L22.2318 16.2989C22.2334 16.2669 22.239 16.2351 22.2401 16.2112L22.2826 15.3402L21.5795 15.3059L21.5974 14.9383ZM22.6662 15.3589L22.6237 16.2299C22.6221 16.2618 22.6167 16.2896 22.6154 16.3176L23.6621 16.3687L23.7089 15.4098L22.6662 15.3589Z" fill="white"/>
<path d="M25.9106 16.4261L26.4621 16.4498L26.4759 16.1301L25.8085 16.1014L25.7954 16.4051C25.7851 16.6449 25.7592 16.876 25.7259 17.0908L26.4333 17.1212L26.4477 16.7855L25.8962 16.7618L25.9106 16.4261ZM25.6632 17.4324C25.5685 17.8647 25.4276 18.255 25.2407 18.5993L24.9448 18.3104C25.2182 17.8176 25.3738 17.1797 25.4118 16.3886L25.4695 15.0459L28.5267 15.1773L28.482 16.2163L27.9265 16.1924L27.9128 16.5121L28.5122 16.5379L28.4978 16.8736L27.8983 16.8478L27.8839 17.1835L28.6192 17.2151L28.6045 17.5588L28.2048 17.5416L28.4268 17.7794C28.2964 17.9259 28.1552 18.044 28.0072 18.1337C28.2061 18.2583 28.4342 18.3522 28.6958 18.4155L28.5005 18.7675C27.7892 18.5487 27.295 18.1231 27.0139 17.4905L26.5184 17.4692L26.4858 18.2285C26.7281 18.1788 26.9428 18.12 27.1259 18.0518L27.1829 18.4025C26.8544 18.5005 26.4667 18.58 26.0196 18.6408L25.93 18.3047C26.0519 18.2619 26.1155 18.1805 26.121 18.0526L26.1467 17.4532L25.6632 17.4324ZM27.3976 17.5069C27.4871 17.6589 27.5935 17.7916 27.7166 17.909C27.8724 17.8236 28.0178 17.7018 28.1529 17.5394L27.3976 17.5069ZM27.5589 16.1766L26.8395 16.1457L26.8258 16.4654L27.5451 16.4963L27.5589 16.1766ZM26.7969 17.1368L27.5163 17.1677L27.5307 16.832L26.8114 16.8011L26.7969 17.1368ZM28.1281 15.5085L25.8382 15.41L25.8231 15.7617L28.113 15.8601L28.1281 15.5085Z" fill="white"/>
<path d="M30.1634 15.477C30.4352 15.4872 30.6602 15.5717 30.8301 15.7381C30.996 15.9044 31.0763 16.1116 31.0669 16.3634C31.0576 16.6112 30.9533 16.8315 30.7618 17.0285C30.6455 17.1402 30.444 17.2848 30.153 17.466C29.8376 17.6584 29.647 17.8314 29.5812 17.985L31.0082 18.0384L30.9938 18.4221L29.0272 18.3485C29.0378 18.0647 29.1391 17.8204 29.339 17.6117C29.4476 17.4917 29.6698 17.3279 30.002 17.1161C30.1989 16.9874 30.3389 16.8846 30.422 16.8036C30.5553 16.6645 30.629 16.5111 30.6353 16.3433C30.6413 16.1834 30.6018 16.0618 30.5169 15.9786C30.4319 15.8953 30.3015 15.8504 30.1336 15.8442C29.9538 15.8374 29.8156 15.8923 29.719 16.0128C29.6186 16.1291 29.5642 16.2992 29.5476 16.5307L29.1119 16.5144C29.1278 16.1948 29.2293 15.9424 29.4164 15.7573C29.608 15.5563 29.8596 15.4656 30.1634 15.477Z" fill="white"/>
<path d="M33.1785 15.5846C33.5143 15.5954 33.7696 15.7438 33.9444 16.0335C34.1038 16.3028 34.1764 16.6573 34.1621 17.1011C34.1479 17.5409 34.0525 17.894 33.876 18.1524C33.6831 18.4264 33.4186 18.5619 33.0828 18.5511C32.747 18.5402 32.4917 18.3879 32.3169 18.1021C32.1575 17.8329 32.0848 17.4783 32.0992 17.0346C32.1136 16.5868 32.2089 16.2377 32.3852 15.9832C32.5783 15.7053 32.8426 15.5738 33.1785 15.5846ZM33.1666 15.9524C32.9307 15.9448 32.7627 16.0675 32.6583 16.3242C32.5807 16.4978 32.5409 16.7407 32.5309 17.0485C32.5211 17.3523 32.5453 17.5972 32.6114 17.7795C32.6991 18.0384 32.8588 18.1757 33.0946 18.1833C33.3265 18.1907 33.4987 18.0642 33.6029 17.8115C33.6767 17.6337 33.7205 17.391 33.7303 17.0872C33.7402 16.7793 33.7121 16.5343 33.6498 16.3562C33.5623 16.0933 33.3985 15.9599 33.1666 15.9524Z" fill="white"/>
<path d="M36.3371 15.6801C36.609 15.6874 36.8349 15.7694 37.0066 15.9341C37.1742 16.0986 37.2568 16.3049 37.25 16.5568C37.2434 16.8047 37.1415 17.026 36.9521 17.2251C36.8371 17.338 36.6371 17.4848 36.3481 17.6691C36.0347 17.8648 35.846 18.0399 35.7818 18.1942L37.2093 18.2323L37.1991 18.6162L35.2318 18.5637C35.2394 18.2798 35.338 18.0343 35.5356 17.8235C35.6429 17.7023 35.8634 17.5361 36.1933 17.3209C36.3888 17.19 36.5277 17.0857 36.6099 17.0039C36.7417 16.8633 36.8138 16.7092 36.8183 16.5413C36.8226 16.3813 36.7818 16.2602 36.696 16.1779C36.6101 16.0955 36.4792 16.052 36.3113 16.0476C36.1314 16.0428 35.9938 16.0991 35.8985 16.2206C35.7994 16.338 35.7468 16.5087 35.7326 16.7404L35.2968 16.7287C35.3093 16.409 35.4081 16.1555 35.5931 15.9684C35.7826 15.7654 36.0332 15.672 36.3371 15.6801Z" fill="white"/>
<path d="M39.441 15.7558C39.7769 15.7628 40.0339 15.9081 40.212 16.1959C40.3746 16.4633 40.4513 16.8169 40.4421 17.2608C40.433 17.7007 40.3417 18.0549 40.1683 18.3154C39.9785 18.5915 39.7156 18.7301 39.3797 18.7232C39.0438 18.7163 38.7868 18.5669 38.6086 18.2832C38.4461 18.0158 38.3694 17.6621 38.3786 17.2182C38.3878 16.7703 38.479 16.4201 38.6524 16.1637C38.8422 15.8835 39.105 15.7489 39.441 15.7558ZM39.4334 16.1238C39.1974 16.1189 39.0308 16.2435 38.9295 16.5014C38.8538 16.6759 38.8168 16.9192 38.8105 17.2271C38.8042 17.5311 38.8311 17.7757 38.8994 17.9571C38.9901 18.2151 39.1513 18.3504 39.3873 18.3553C39.6192 18.3601 39.7899 18.2316 39.8912 17.9776C39.9629 17.7991 40.0039 17.5558 40.0102 17.2519C40.0166 16.944 39.9856 16.6993 39.9213 16.5219C39.8306 16.26 39.6653 16.1286 39.4334 16.1238Z" fill="white"/>
<path d="M41.9393 16.2202C41.7676 16.4979 41.5564 16.7271 41.3019 16.9156L41.0502 16.5922C41.4542 16.2977 41.7276 15.9013 41.8704 15.3992L42.2614 15.4765C42.2196 15.6119 42.1779 15.7354 42.1283 15.8547L44.5601 15.8876L44.5551 16.2555L43.3272 16.239L43.3197 16.7909L44.4076 16.8056L44.4028 17.1616L43.3149 17.1469L43.3044 17.9228L44.6563 17.9411L44.6513 18.313L43.2994 18.2948L43.2877 19.1587L42.9078 19.1536L42.9194 18.2896L41.1036 18.2651L41.1086 17.8931L41.7366 17.9016L41.7519 16.7697L42.9398 16.7858L42.9472 16.2338L41.9393 16.2202ZM42.1205 17.9068L42.9245 17.9177L42.935 17.1417L42.131 17.1309L42.1205 17.9068Z" fill="white"/>
<path d="M45.3049 16.7808L46.9089 16.7868L46.9096 16.5948L45.7496 16.5904L45.7528 15.7345L46.9128 15.7388L46.9137 15.4988L47.2897 15.5002L47.2888 15.7402L48.4568 15.7446L48.4536 16.6006L47.2856 16.5962L47.2849 16.7882L48.8889 16.7942L48.8877 17.1142L45.3037 17.1008L45.3049 16.7808ZM48.0907 16.3032L48.0917 16.0392L47.2877 16.0362L47.2867 16.3002L48.0907 16.3032ZM46.9107 16.2988L46.9117 16.0348L46.1157 16.0318L46.1147 16.2958L46.9107 16.2988ZM48.411 17.2965L48.4065 18.4844L48.0345 18.483L48.0377 17.6271L46.1858 17.6201L46.1824 18.5241L45.8144 18.5227L45.819 17.2867L48.411 17.2965ZM46.9532 17.779L47.321 17.8164C47.2632 18.3041 47.138 18.6277 46.9414 18.7829C46.7406 18.9862 46.2481 19.1163 45.4679 19.1734L45.3172 18.8288C45.9773 18.8033 46.4136 18.713 46.6222 18.5577C46.8108 18.4064 46.9198 18.1469 46.9532 17.779ZM47.4067 18.4327C47.9382 18.5627 48.4216 18.7205 48.8609 18.9062L48.6598 19.2214C48.1886 19.0076 47.7092 18.8378 47.2136 18.716L47.4067 18.4327Z" fill="white"/>
<path d="M49.7319 16.4603L50.0565 16.546C50.0115 16.9543 49.9183 17.347 49.7851 17.728L49.4443 17.6144C49.5856 17.2534 49.6788 16.8687 49.7319 16.4603ZM51.3659 15.6284L51.7339 15.6257L51.741 16.6057L51.9842 16.4959C52.1463 16.7908 52.2927 17.1137 52.4153 17.4688L52.1084 17.6271C51.998 17.2999 51.8759 17.0047 51.742 16.7417L51.7587 19.0376L51.3907 19.0403L51.3659 15.6284ZM52.4689 15.4924L52.8329 15.4897L52.8596 19.1656L52.4957 19.1683L52.4689 15.4924ZM50.8725 16.54C51.0346 16.8349 51.181 17.1618 51.3076 17.5209L51.0008 17.6791C50.8863 17.3319 50.756 17.0249 50.614 16.7539L50.6142 16.7699C50.6142 17.8739 50.368 18.6798 49.8798 19.1913L49.598 18.9454C50.0347 18.4902 50.2494 17.7646 50.2502 16.7726L50.2412 15.5406L50.6052 15.5379L50.6133 16.6579L50.8725 16.54Z" fill="white"/>
<path d="M54.9501 15.4254L55.3221 15.418L55.3423 16.4378L54.9704 16.4452L54.9501 15.4254ZM54.0864 17.2589C53.9111 17.2984 53.7359 17.3379 53.5605 17.3733L53.3977 17.0325C54.6017 16.8166 55.5235 16.4942 56.1591 16.0655C56.0251 15.9641 55.883 15.8629 55.733 15.7619L55.9841 15.5129C56.3976 15.7887 56.7512 16.0658 57.0367 16.3401L56.7781 16.6133C56.6759 16.5033 56.5617 16.3936 56.4315 16.2841C56.0804 16.5352 55.6606 16.7515 55.1682 16.9373L56.5839 16.9092L56.627 19.0808L56.2551 19.0882L56.2521 18.9362L54.4884 18.9712L54.4916 19.1312L54.1237 19.1385L54.0864 17.2589ZM54.4818 18.6353L56.2454 18.6003L56.2401 18.3323L54.4765 18.3674L54.4818 18.6353ZM54.4704 18.0634L56.2341 18.0284L56.2292 17.7845L54.4656 17.8195L54.4704 18.0634ZM54.4596 17.5195L56.2233 17.4845L56.2183 17.2326L54.4546 17.2676L54.4596 17.5195ZM54.3268 15.6658L54.5994 15.8964C54.3693 16.1931 54.0824 16.4548 53.7388 16.6777L53.5132 16.3981C53.837 16.1836 54.1082 15.9422 54.3268 15.6658Z" fill="white"/>
<path d="M58.8153 15.9778L57.476 16.0238L57.4636 15.66L60.5297 15.5547L60.5422 15.9185L59.199 15.9646L59.2825 18.3952L60.8775 18.3404L60.8902 18.7082L57.3123 18.831L57.2996 18.4632L58.8987 18.4084L58.8153 15.9778Z" fill="white"/>
<path d="M62.3831 15.2211L62.7626 15.2012L62.9268 18.3409L63.4062 18.3159L63.242 15.1762L63.6214 15.1563L63.7857 18.296L64.9521 18.235L64.9715 18.6065L61.4084 18.7929L61.389 18.4214L62.5474 18.3608L62.3831 15.2211ZM64.4073 15.8602L64.7478 15.9385C64.632 16.6335 64.4676 17.243 64.2549 17.7708L63.9091 17.6687C64.1085 17.1936 64.2771 16.588 64.4073 15.8602ZM61.6666 15.9956C61.8983 16.5202 62.1101 17.1219 62.3058 17.8006L61.9628 17.9067C61.7942 17.2867 61.5867 16.6887 61.3485 16.1164L61.6666 15.9956Z" fill="white"/>
<path d="M65.3839 15.0856C65.6533 15.2583 65.8791 15.4382 66.0688 15.6167L65.8289 15.8991C65.6635 15.7228 65.4333 15.5392 65.1428 15.3521L65.3839 15.0856ZM64.9571 16.2602L65.8506 16.1943L65.975 17.8817C66.091 17.7689 66.2139 17.6395 66.3475 17.4933L66.4806 17.8846C66.2389 18.143 65.9796 18.3787 65.7022 18.5877L65.5333 18.2552C65.593 18.1947 65.6236 18.1202 65.6174 18.0364L65.5104 16.5844L64.9838 16.6232L64.9571 16.2602ZM66.4162 16.6299L68.3509 16.4873L68.3765 16.8343C68.287 17.1979 68.1179 17.5152 67.8694 17.7902C68.1371 17.9389 68.4594 18.0676 68.8278 18.1688L68.6485 18.5109C68.2378 18.3807 67.8932 18.2216 67.6072 18.0422C67.3125 18.2885 66.9388 18.4965 66.4941 18.6657L66.2591 18.3621C66.6728 18.2073 67.0164 18.0255 67.2895 17.8129C66.9988 17.5696 66.7899 17.2922 66.6706 16.9801L66.4432 16.9969L66.4162 16.6299ZM67.0257 16.954C67.1353 17.1905 67.3071 17.3985 67.5452 17.5815C67.7462 17.3701 67.8976 17.1384 67.995 16.8825L67.0257 16.954ZM66.5819 15.0695L67.9941 14.9654L68.0558 15.8031C68.0623 15.8909 68.1137 15.9352 68.2134 15.9279L68.5645 15.902L68.5901 16.249L68.1393 16.2823C67.8561 16.3032 67.7064 16.1778 67.687 15.9145L67.6453 15.3481L66.9831 15.3969L66.9919 15.5166C67.0225 15.9314 66.8349 16.2701 66.4328 16.5284L66.16 16.2557C66.4839 16.0794 66.6398 15.8554 66.6199 15.5841L66.5819 15.0695Z" fill="white"/>
<path d="M70.3751 15.7918L71.4176 15.6844L71.2974 14.5186L71.6874 14.4784L71.8075 15.6442L72.7943 15.5425L72.8328 15.9165L71.8461 16.0182L72.0671 18.1629L71.6771 18.203L71.4561 16.0584L70.4136 16.1658L70.3751 15.7918ZM69.5345 14.7364C69.8132 14.9047 70.0521 15.0772 70.2517 15.2577L70.0201 15.5469C69.8417 15.3763 69.6024 15.1999 69.2985 15.0221L69.5345 14.7364ZM69.1282 15.9444L70.0473 15.8497L70.222 17.5447C70.3386 17.4282 70.4577 17.2953 70.5834 17.1496L70.7226 17.5253C70.4926 17.7903 70.2402 18.0335 69.969 18.2504L69.7909 17.927C69.8528 17.8643 69.8816 17.7929 69.8734 17.7134L69.7225 16.2491L69.1655 16.3065L69.1282 15.9444Z" fill="white"/>
<path d="M74.7791 14.078L75.1671 14.022L75.2658 14.7069L76.6753 14.5037L76.951 16.4159L76.5749 16.4701L76.5424 16.2445L75.5091 16.3935L75.7003 17.7198L75.3124 17.7757L75.1211 16.4494L74.0917 16.5979L74.1243 16.8235L73.7482 16.8778L73.4724 14.9656L74.8779 14.7629L74.7791 14.078ZM74.0386 16.2297L75.068 16.0812L74.931 15.1311L73.9016 15.2795L74.0386 16.2297ZM75.456 16.0253L76.4893 15.8763L76.3523 14.9261L75.3189 15.0751L75.456 16.0253Z" fill="white"/>
<path d="M80.0201 16.8383L79.1466 16.9979C78.8397 17.0539 78.6582 16.9285 78.6036 16.6295L78.1967 14.4023L78.5705 14.334L78.963 16.4825C78.9831 16.5927 79.0601 16.6355 79.1939 16.6111L79.8825 16.4853C79.9612 16.4709 80.0091 16.4215 80.0308 16.3403C80.0544 16.2465 80.0384 15.9811 79.9736 15.5375L80.3493 15.5908C80.4199 16.1553 80.4213 16.4967 80.3548 16.6226C80.2941 16.7354 80.1815 16.8088 80.0201 16.8383ZM77.6737 14.9004L78.0454 14.9098C78.0671 15.6296 78.0244 16.2636 77.9204 16.8071L77.561 16.6654C77.6615 16.1022 77.6964 15.5143 77.6737 14.9004ZM80.2985 14.3111C80.6231 14.7967 80.9298 15.3181 81.2122 15.8846L80.8979 16.1006C80.5911 15.4897 80.2776 14.9533 79.9588 14.4992L80.2985 14.3111ZM78.6943 13.4535C79.1132 13.7876 79.444 14.085 79.6875 14.3496L79.4115 14.6196C79.1558 14.3328 78.8275 14.0269 78.4226 13.7023L78.6943 13.4535Z" fill="white"/>
<path d="M83.2784 12.5697L83.6537 12.4884C83.7265 12.8247 83.7833 13.1439 83.8225 13.4382C84.2341 14.3559 84.7518 15.046 85.3758 15.5084L85.1777 15.8787C84.6823 15.4621 84.2548 14.9244 83.8914 14.2664L83.8931 14.4257C83.898 15.1286 83.685 15.7517 83.256 16.303L82.9397 16.0523C83.3025 15.5726 83.4893 15.037 83.5082 14.4435C83.5152 13.9468 83.437 13.3212 83.2784 12.5697ZM81.5474 12.9486C81.843 13.0852 82.0995 13.2302 82.3177 13.3875L82.1195 13.7006C81.9233 13.5507 81.666 13.4018 81.3444 13.2586L81.5474 12.9486ZM81.2768 14.1941L82.1799 13.9985L82.5337 15.6327C82.6329 15.5048 82.7365 15.3596 82.8485 15.1962L83.0253 15.559C82.825 15.8438 82.6041 16.1086 82.3593 16.358L82.1466 16.0562C82.2012 15.9871 82.222 15.913 82.2042 15.8309L81.9012 14.4313L81.3539 14.5498L81.2768 14.1941Z" fill="white"/>
<path d="M85.5769 13.2071L87.8844 12.6411L87.9702 12.9907L87.0146 13.2251L87.1575 13.8079L88.2763 13.5334L88.3621 13.883L87.2433 14.1575L87.4186 14.8723C87.6923 14.8463 88.0195 14.7867 88.409 14.6952C88.6032 14.6476 88.8024 14.5864 89.0006 14.5213L89.0202 14.9036L88.655 14.9932C87.8392 15.1933 87.2345 15.2634 86.8487 15.2016C86.5715 15.146 86.3275 15.0246 86.1168 14.8374C86.0455 15.1844 85.9277 15.4934 85.7635 15.7643L85.4502 15.5282C85.722 15.0579 85.8448 14.4841 85.8128 13.8165L86.1855 13.791C86.1941 14.0277 86.1883 14.2557 86.1699 14.4661C86.4268 14.7243 86.7046 14.8662 86.9975 14.885L87.0344 14.8842L86.6494 13.3147L85.6626 13.5568L85.5769 13.2071ZM88.1687 11.7682L88.385 12.6501L88.0237 12.7387L87.8912 12.1987L85.3584 12.8201L85.4956 13.3795L85.1343 13.4681L84.9132 12.5668L86.3739 12.2085C86.289 12.0975 86.1992 12.0001 86.1123 11.9144L86.4933 11.755C86.5772 11.8621 86.664 11.9808 86.7507 12.1161L88.1687 11.7682Z" fill="white"/>
<path d="M90.2019 10.8518L90.5724 10.7509L90.7206 11.2951L91.9441 10.962L92.5461 13.1735L92.1872 13.2712L92.1315 13.0666L91.267 13.302L91.5328 14.2785L91.1623 14.3794L90.8965 13.4029L90.0165 13.6425L90.0795 13.874L89.7206 13.9718L89.1112 11.7332L90.3501 11.3959L90.2019 10.8518ZM89.9219 13.2951L90.8019 13.0555L90.6664 12.5577L89.7864 12.7972L89.9219 13.2951ZM91.1724 12.9547L92.0369 12.7193L91.9014 12.2214L91.0369 12.4568L91.1724 12.9547ZM89.6971 12.4692L90.577 12.2296L90.4436 11.7394L89.5636 11.979L89.6971 12.4692ZM90.9476 12.1287L91.8121 11.8934L91.6786 11.4032L90.8141 11.6386L90.9476 12.1287Z" fill="white"/>
<path d="M94.2146 11.3277L94.3215 11.6882C94.2039 11.7982 94.0879 11.8993 93.9669 11.9978L94.292 13.0946C94.3671 13.3477 94.283 13.5145 94.0375 13.5872L93.6771 13.6941L93.4892 13.3701C93.605 13.3525 93.7108 13.3295 93.8105 13.2999C93.9026 13.2726 93.9376 13.208 93.9092 13.1121L93.6523 12.2454C93.5017 12.3568 93.35 12.4643 93.1972 12.568L92.9983 12.2348C93.1879 12.1286 93.3714 12.0158 93.5465 11.8887L93.3067 11.0796L92.7813 11.2353L92.6778 10.8863L93.2032 10.7306L93.0065 10.0671L93.3632 9.96137L93.5599 10.6248L93.9587 10.5066L94.0622 10.8556L93.6633 10.9738L93.8623 11.645C93.9822 11.5427 94.1009 11.4365 94.2146 11.3277ZM94.8171 11.5163L95.3219 13.219L94.9767 13.3213L93.9672 9.91584L95.7351 9.39173C95.8693 9.84427 95.9311 10.1514 95.9294 10.3146C95.9228 10.4751 95.791 10.5934 95.534 10.6696L95.2464 10.7549L95.0534 10.4699C95.111 10.4529 95.185 10.4351 95.277 10.4078C95.3652 10.3817 95.4331 10.3574 95.4769 10.3361C95.5118 10.3132 95.5384 10.2761 95.55 10.231C95.5598 10.1655 95.5365 10.0305 95.4839 9.825L94.4101 10.1433L94.7182 11.1826L96.1678 10.7529L96.261 11.0674C96.3168 11.4806 96.2941 11.8544 96.1919 12.1851C96.416 12.2939 96.6663 12.3782 96.9504 12.4359L96.7891 12.7924C96.5158 12.7149 96.2759 12.6233 96.0632 12.5111C95.9425 12.7513 95.7732 12.9684 95.563 13.16L95.2923 12.894C95.4829 12.7207 95.6299 12.5269 95.7332 12.3127C95.398 12.0825 95.1518 11.8009 94.9858 11.4662L94.8171 11.5163ZM95.3118 11.3696C95.439 11.6156 95.6207 11.8204 95.858 11.9879C95.9232 11.7432 95.9436 11.4744 95.9254 11.1877L95.3118 11.3696Z" fill="white"/>
<path d="M97.8576 9.2531L96.5808 9.65952L96.4704 9.31267L99.3938 8.38214L99.5042 8.729L98.2235 9.13663L98.9612 11.4541L100.482 10.97L100.594 11.3207L97.1822 12.4065L97.0706 12.0558L98.5953 11.5705L97.8576 9.2531Z" fill="white"/>
<path d="M101.832 8.2248C101.781 8.64754 101.691 9.02874 101.565 9.36711L101.202 9.14378C101.392 8.66974 101.489 8.07094 101.49 7.35246L101.881 7.30875C101.882 7.48583 101.876 7.65663 101.868 7.81984L103.429 7.29083L103.548 7.64314L102.332 8.05531L102.516 8.59704L103.58 8.23623L103.699 8.58476L102.634 8.94556L102.823 9.50245L103.895 9.13907L104.012 9.48381L102.94 9.84718L103.23 10.7033L102.866 10.8266L101.969 8.17858L101.832 8.2248ZM100.752 9.28772C100.69 9.45247 100.616 9.62108 100.537 9.78718L100.285 9.44186C100.53 8.88153 100.649 8.28389 100.642 7.65273L101.036 7.69627C101.036 8.01757 101.003 8.3327 100.939 8.64167L101.802 11.1874L101.438 11.3107L100.752 9.28772Z" fill="white"/>
<path d="M105.431 6.71421L106.372 9.33433L106.03 9.45738L105.96 9.26162L105.365 9.47526L105.474 9.78018L105.132 9.90323L104.151 7.17394L104.509 7.04549C104.504 6.81786 104.482 6.59188 104.434 6.36272L104.809 6.28321C104.846 6.50378 104.858 6.71605 104.852 6.92244L105.431 6.71421ZM105.246 9.14398L105.841 8.93034L105.574 8.18873L104.979 8.40236L105.246 9.14398ZM104.865 8.08238L105.459 7.86874L105.211 7.17607L104.616 7.3897L104.865 8.08238ZM106.434 7.37432C106.793 7.59377 107.081 7.7921 107.296 7.97817L107.086 8.2791C106.853 8.08202 106.559 7.87752 106.209 7.65913L106.434 7.37432ZM107.375 6.02028C107.842 7.31905 108.111 8.12765 108.181 8.44234C108.241 8.72691 108.109 8.92733 107.789 9.04226C107.714 9.06931 107.576 9.11045 107.383 9.16677L107.179 8.87035C107.347 8.81839 107.493 8.77453 107.614 8.73127C107.764 8.67718 107.822 8.56703 107.788 8.4008C107.743 8.20446 107.527 7.56796 107.15 6.49237L106.205 6.83175C106.18 7.09548 106.134 7.3458 106.059 7.58541L105.743 7.38014C105.861 6.9295 105.876 6.42685 105.78 5.8749L106.15 5.79297C106.188 6.01731 106.206 6.23199 106.212 6.43809L107.375 6.02028Z" fill="white"/>
<path d="M107.697 5.2354C108.027 5.33767 108.315 5.45549 108.561 5.5851L108.403 5.92674C108.183 5.79614 107.897 5.67317 107.542 5.55924L107.697 5.2354ZM111.115 7.77614C110.909 7.85384 110.683 7.93486 110.442 8.02153C110.198 8.10961 109.991 8.16203 109.82 8.18394C109.653 8.19554 109.488 8.15517 109.328 8.07032C109.251 8.02648 109.195 8.01349 109.15 8.03045C109.072 8.06011 109 8.27937 108.937 8.68822L108.583 8.54386C108.656 8.17011 108.752 7.91568 108.873 7.78433L108.474 6.72528L107.972 6.91458L107.848 6.58526L108.682 6.27023L109.216 7.68479C109.241 7.6927 109.267 7.70435 109.294 7.71974C109.418 7.78829 109.536 7.82923 109.648 7.84256C109.78 7.85257 109.957 7.82409 110.181 7.74823C110.396 7.67145 110.648 7.58054 110.94 7.47035C111.123 7.40113 111.309 7.32675 111.494 7.25237C111.68 7.178 111.823 7.11542 111.922 7.06979L111.968 7.45405L111.115 7.77614ZM109.342 5.03798L108.619 5.31063L108.508 5.01499L110.562 4.23943L110.657 4.49015C110.511 4.7592 110.338 5.00396 110.142 5.23192C110.152 5.23658 110.161 5.2375 110.171 5.24216L110.923 4.95821L111.551 6.61976C111.634 6.84055 111.553 6.99943 111.31 7.09126L111.022 7.20004L110.835 6.93265L111.106 6.84732C111.189 6.81624 111.218 6.75813 111.187 6.6758L111.115 6.48494L110.576 6.68837L110.808 7.3021L110.482 7.425L110.251 6.81127L109.723 7.01046L109.957 7.63167L109.621 7.75882L108.858 5.73801L109.718 5.41309C109.564 5.37738 109.393 5.34358 109.208 5.31917L109.342 5.03798ZM109.861 5.14546C109.989 5.00754 110.101 4.86263 110.199 4.71447L109.36 5.03092C109.536 5.06705 109.704 5.10226 109.861 5.14546ZM109.515 6.46036L109.614 6.72231L110.142 6.52312L110.043 6.26117L109.515 6.46036ZM110.368 6.13826L110.467 6.40022L111.006 6.19679L110.907 5.93483L110.368 6.13826ZM110.797 5.64294L110.698 5.38098L110.159 5.58441L110.258 5.84637L110.797 5.64294ZM109.933 5.96927L109.834 5.70732L109.306 5.9065L109.405 6.16846L109.933 5.96927Z" fill="white"/>
<path d="M114.445 3.00318L115.594 5.90401L115.252 6.0395L115.168 5.82752L114.517 6.08524L114.602 6.30095L114.26 6.43644L113.11 3.53188L114.445 3.00318ZM114.386 5.75425L115.037 5.49653L114.234 3.46966L113.583 3.72739L114.386 5.75425ZM111.95 4.50316C111.938 4.72298 111.909 4.93234 111.867 5.12978L111.48 5.05491C111.58 4.61107 111.602 4.1677 111.544 3.72628L111.923 3.66223C111.941 3.81828 111.948 3.96611 111.954 4.11023L112.969 3.70818L113.103 4.04661L112.597 4.2469C112.681 4.48043 112.755 4.70055 112.811 4.90649L113.391 4.67675L113.525 5.01518L112.897 5.26407C112.914 5.35178 112.928 5.44096 112.943 5.52123C113.261 5.66197 113.593 5.82728 113.943 6.01567L113.857 6.42836C113.497 6.19239 113.202 6.01236 112.972 5.88827C112.97 6.34062 112.837 6.77617 112.564 7.19416L112.221 7.00282C112.495 6.5633 112.609 6.11356 112.567 5.64843C112.554 5.57188 112.543 5.49014 112.529 5.40987L111.796 5.69999L111.662 5.36156L112.447 5.05082C112.391 4.84487 112.317 4.62475 112.233 4.39123L111.95 4.50316Z" fill="white"/>
<path d="M115.273 2.21325L116.754 3.62063L116.706 5.66335L116.355 5.65314L116.4 3.76795L115.033 2.46901L115.273 2.21325ZM115.905 1.95083L117.386 3.3582L117.338 5.40092L116.987 5.39071L117.031 3.50553L115.649 2.21272L115.905 1.95083Z" fill="white"/>
</svg>
