<svg width="91" height="25" viewBox="0 0 91 25" fill="none" xmlns="http://www.w3.org/2000/svg">
<path d="M3.62941 2.57387L3.97152 2.7027L3.26942 4.45987L4.10979 6.14796L3.79655 6.30613L2.88581 4.47704L3.62941 2.57387ZM4.31273 2.54327L4.63885 2.67281L3.95274 4.42927L4.7931 6.11736L4.47986 6.27553L3.56912 4.44645L4.31273 2.54327Z" fill="white"/>
<path d="M5.70969 4.2793L5.76126 5.34205C6.08538 5.25424 6.4289 5.15347 6.78344 5.03215L6.90019 5.37489C6.41536 5.53458 5.91757 5.67487 5.41102 5.79956L5.24388 5.4913C5.33725 5.43471 5.38151 5.35647 5.37666 5.25659L5.25899 2.83144C5.75453 2.72731 6.20495 2.60133 6.61007 2.44952L6.86053 2.74172C6.51057 2.87484 6.10789 2.99449 5.6527 3.10468L5.69205 3.91573L6.79475 3.86223L6.81239 4.2258L5.70969 4.2793ZM8.25385 5.54149L7.87829 5.55971L7.75658 5.19718L8.11255 5.18792C8.21643 5.18288 8.26546 5.12043 8.26003 5.00856L8.15961 2.939L7.37254 2.97718L7.52491 6.11749L7.14136 6.1361L6.97155 2.63622L8.52572 2.56081L8.64746 5.06986C8.662 5.3695 8.52953 5.52811 8.25385 5.54149Z" fill="white"/>
<path d="M9.16465 3.62208L9.4209 2.43954L9.80366 2.48415L9.63352 3.23376L10.2248 3.20368C10.2856 2.90421 10.3297 2.58956 10.361 2.25954L10.7509 2.28777C10.719 2.6058 10.6741 2.90447 10.6202 3.18357L12.4499 3.09049L12.4684 3.45402L10.5429 3.55197C10.5096 3.68583 10.472 3.81191 10.4381 3.93379L12.0361 3.8525L12.0523 4.17209C11.9651 4.50495 11.7844 4.81052 11.5022 5.08922C11.8143 5.24156 12.1898 5.37866 12.6246 5.50073L12.4471 5.87022C11.9548 5.71904 11.5374 5.54402 11.1992 5.35295C10.8948 5.58872 10.5175 5.80818 10.0672 6.01131L9.84916 5.66194C10.2413 5.4978 10.5768 5.32053 10.8517 5.13433C10.5814 4.93981 10.3743 4.72605 10.2345 4.49686C9.97692 5.10273 9.63737 5.59261 9.21981 5.96631L9.00618 5.62472C9.53268 5.10931 9.91041 4.42523 10.1394 3.5725L9.16465 3.62208ZM10.4995 4.27511C10.6434 4.5041 10.8623 4.71325 11.1561 4.89856C11.3974 4.68202 11.57 4.45296 11.67 4.21556L10.4995 4.27511ZM11.4198 2.20969C11.706 2.4034 11.9485 2.60334 12.147 2.80551L11.8892 3.09098C11.7188 2.89138 11.4841 2.68704 11.1769 2.47437L11.4198 2.20969Z" fill="white"/>
<path d="M14.0174 2.10411C14.1794 2.29607 14.3385 2.5082 14.4906 2.74071L14.2493 2.87725L15.0762 2.83484C15.2083 2.59976 15.3222 2.32156 15.4181 2.00423L15.7947 2.08505C15.7204 2.35321 15.6206 2.59463 15.5036 2.81291L16.2626 2.77398L16.2815 3.1415L14.9792 3.2083L14.9855 3.33213C14.9874 3.52429 14.9764 3.70108 14.9569 3.8663L16.5468 3.78475L16.5656 4.15227L15.1675 4.22398C15.388 4.69731 15.9068 5.0512 16.7241 5.28965L16.5188 5.66065C15.6623 5.36013 15.1077 4.93198 14.8471 4.3806C14.7848 4.57204 14.7055 4.74433 14.609 4.89347C14.3558 5.26693 13.9265 5.56531 13.3212 5.78861L13.0965 5.4677C13.7014 5.23641 14.104 4.96343 14.3081 4.64856C14.378 4.52882 14.4354 4.39771 14.4804 4.25923L13.1142 4.3293L13.0953 3.96179L14.5654 3.88638C14.5887 3.71696 14.6037 3.53997 14.602 3.3518L14.5957 3.22797L13.2894 3.29497L13.2706 2.92745L14.1254 2.8836C13.9817 2.65867 13.8315 2.46211 13.6784 2.28972L14.0174 2.10411Z" fill="white"/>
<path d="M17.1509 2.05954L20.1752 1.91121L20.1935 2.28276L18.919 2.34527L18.9668 3.3201L20.5209 3.24388L20.5395 3.62342L18.9854 3.69964L19.0522 5.06201C19.0659 5.34167 18.9252 5.49275 18.6335 5.50705L17.9983 5.53821L17.9004 5.17457C18.1047 5.17656 18.3009 5.17495 18.4846 5.16594C18.6125 5.15967 18.6735 5.0966 18.668 4.98474L18.6059 3.71826L16.9838 3.79781L16.9652 3.41827L18.5873 3.33872L18.5394 2.36389L17.1691 2.4311L17.1509 2.05954Z" fill="white"/>
<path d="M22.6087 1.66863L23.0004 1.65169L23.0216 2.14323L24.5522 2.07702L24.5681 2.44468L23.0375 2.51089L23.0602 3.0344L24.1232 2.98841L24.1377 3.3241C23.9446 3.76486 23.6528 4.14583 23.2665 4.47083C23.4504 4.55896 23.6502 4.6424 23.8655 4.71316C24.1577 4.80462 24.4614 4.88357 24.7842 4.94167L24.5789 5.28686C24.2273 5.20999 23.8948 5.11227 23.5773 4.99388C23.3534 4.90748 23.1451 4.81239 22.9524 4.70862C22.5208 5.00355 21.9948 5.24651 21.3786 5.44132L21.1441 5.11115C21.7219 4.95403 22.2135 4.74859 22.6151 4.499C22.4085 4.35179 22.2251 4.18356 22.0689 3.99814C21.9214 3.82836 21.8134 3.64485 21.7448 3.44763L21.4651 3.45973L21.4497 3.10407L22.6685 3.05134L22.6459 2.52783L21.1233 2.59369L21.1074 2.22604L22.63 2.16017L22.6087 1.66863ZM22.9261 4.28536C23.2669 4.01838 23.5298 3.71073 23.707 3.36275L22.1205 3.43138C22.2005 3.6161 22.3115 3.77545 22.4536 3.91344C22.5957 4.05142 22.7533 4.17673 22.9261 4.28536Z" fill="white"/>
<path d="M27.1422 1.51741L27.514 1.50487L27.5265 1.87666L28.314 1.85009L28.3258 2.19789L27.5382 2.22446L27.551 2.60424L28.4905 2.57255L28.5026 2.93235L26.2959 3.00679L26.2838 2.64699L27.1792 2.61679L27.1664 2.237L26.4149 2.26236L26.4031 1.91455L27.1547 1.8892L27.1422 1.51741ZM26.2462 3.43271L27.6694 3.3847L27.6601 3.10885L28.0399 3.09604L28.0492 3.37189L28.5209 3.35597L28.5329 3.71177L28.0612 3.72768L28.0949 4.72711C28.1038 4.99096 27.9765 5.13134 27.7126 5.14024L27.1849 5.15804L27.0886 4.79308C27.2569 4.79941 27.4131 4.80215 27.565 4.79702C27.6649 4.79365 27.7151 4.73993 27.7119 4.64398L27.6814 3.74049L26.2582 3.7885L26.2462 3.43271ZM25.4536 5.20844L25.1018 5.22031L25.0096 4.85921C25.1141 4.87169 25.2143 4.87632 25.3103 4.87308C25.4062 4.86985 25.4564 4.81612 25.4529 4.71218L25.4247 3.87666C25.2864 3.92935 25.1481 3.98204 25.0057 4.03087L24.8968 3.65033C25.0713 3.60442 25.2416 3.55064 25.4116 3.48888L25.3835 2.65335L24.9277 2.66873L24.9154 2.30493L25.3712 2.28956L25.3481 1.60595L25.7199 1.59341L25.743 2.27702L26.1268 2.26407L26.139 2.62786L25.7552 2.64081L25.7787 3.33641C25.9086 3.272 26.0344 3.20372 26.1602 3.13544L26.1732 3.52322C26.0475 3.5915 25.9176 3.65591 25.7915 3.7162L25.8279 4.79558C25.8368 5.05943 25.7095 5.19981 25.4536 5.20844ZM26.7503 3.89998C26.9461 4.12951 27.097 4.33253 27.2031 4.50906L26.9102 4.72706C26.7958 4.53881 26.6406 4.32792 26.4488 4.09826L26.7503 3.89998Z" fill="white"/>
<path d="M30.6575 2.04355L29.3178 2.06964L29.3107 1.70571L32.3781 1.64598L32.3852 2.00991L31.0415 2.03608L31.0888 4.46762L32.6845 4.43654L32.6917 4.80447L29.1124 4.87417L29.1052 4.50624L30.7049 4.47509L30.6575 2.04355Z" fill="white"/>
<path d="M34.2666 1.38478L34.6466 1.38429L34.6506 4.52829L35.1306 4.52768L35.1266 1.38369L35.5066 1.3832L35.5106 4.5272L36.6786 4.52572L36.6791 4.89772L33.1111 4.90224L33.1106 4.53024L34.2706 4.52877L34.2666 1.38478ZM36.2555 2.12625L36.5917 2.22183C36.4405 2.91002 36.2453 3.51027 36.006 4.02657L35.6658 3.907C35.8892 3.44272 36.0885 2.84647 36.2555 2.12625ZM33.5115 2.12173C33.7162 2.65748 33.897 3.26925 34.0579 3.95704L33.71 4.04548C33.5732 3.41766 33.3964 2.80988 33.1877 2.22614L33.5115 2.12173Z" fill="white"/>
<path d="M37.6254 1.42193C37.8775 1.61907 38.0855 1.81932 38.2575 2.01484L37.9923 2.27353C37.8441 2.08249 37.6322 1.87816 37.3604 1.66462L37.6254 1.42193ZM37.0905 2.55134L37.9863 2.56947L37.952 4.26112C38.0781 4.15965 38.2125 4.04235 38.3592 3.90929L38.4551 4.31131C38.1903 4.546 37.91 4.75637 37.6143 4.93843L37.4773 4.59159C37.5424 4.53689 37.5798 4.46564 37.5815 4.38165L37.611 2.92595L37.0831 2.91527L37.0905 2.55134ZM38.5085 3.05614L40.4481 3.09538L40.4411 3.44331C40.3179 3.79689 40.1198 4.09695 39.8467 4.34747C40.0992 4.52062 40.4081 4.6789 40.7654 4.81416L40.5548 5.13796C40.1582 4.9699 39.8299 4.77922 39.562 4.57376C39.2456 4.7914 38.854 4.96352 38.3954 5.09026L38.1899 4.76604C38.6163 4.65064 38.9754 4.50188 39.2672 4.31574C39.0006 4.04629 38.8185 3.75055 38.729 3.42867L38.5011 3.42406L38.5085 3.05614ZM39.085 3.43588C39.172 3.68169 39.3235 3.9048 39.5434 4.10929C39.7634 3.9177 39.9358 3.70114 40.0568 3.45554L39.085 3.43588ZM38.8197 1.51812L40.2354 1.54676L40.2184 2.38659C40.2166 2.47457 40.2637 2.52354 40.3636 2.52556L40.7156 2.53268L40.7085 2.88061L40.2566 2.87146C39.9727 2.86572 39.8355 2.72691 39.8408 2.46297L39.8523 1.89508L39.1884 1.88165L39.186 2.00163C39.1776 2.41754 38.9591 2.73719 38.5346 2.95664L38.2885 2.6596C38.6275 2.51443 38.8038 2.30596 38.8093 2.03401L38.8197 1.51812Z" fill="white"/>
<path d="M42.2392 2.65309L43.2862 2.69852L43.337 1.52762L43.7286 1.54461L43.6778 2.71551L44.6689 2.7585L44.6526 3.13415L43.6615 3.09115L43.5681 5.24513L43.1765 5.22814L43.2699 3.07416L42.2229 3.02874L42.2392 2.65309ZM41.5611 1.48661C41.8124 1.69369 42.0237 1.89904 42.1948 2.10666L41.9236 2.35914C41.7719 2.16438 41.5608 1.95504 41.2861 1.73492L41.5611 1.48661ZM40.9833 2.62263L41.9065 2.66268L41.8326 4.36508C41.965 4.26673 42.1021 4.15256 42.2476 4.02675L42.3307 4.41872C42.0646 4.6474 41.7795 4.85124 41.4796 5.0264L41.3505 4.68048C41.4208 4.62748 41.4597 4.5611 41.4632 4.48118L41.527 3.01056L40.9675 2.98629L40.9833 2.62263Z" fill="white"/>
<path d="M45.3184 2.91205L45.7127 1.76812L46.0875 1.85769L45.8299 2.58191L46.4206 2.62198C46.5164 2.3318 46.5974 2.02457 46.6675 1.70057L47.0513 1.77472C46.9821 2.08675 46.9022 2.37801 46.8157 2.64877L48.6435 2.77275L48.6188 3.13592L46.6952 3.00544C46.6464 3.13443 46.5941 3.25517 46.5461 3.37219L48.1424 3.48047L48.1208 3.79974C47.9948 4.11995 47.7792 4.402 47.466 4.64537C47.758 4.83355 48.1146 5.0141 48.5318 5.18673L48.3119 5.53265C47.8409 5.32429 47.4471 5.10113 47.134 4.87141C46.8038 5.06952 46.4032 5.24281 45.932 5.39126L45.7569 5.01855C46.1657 4.90195 46.5197 4.7656 46.8147 4.61321C46.5694 4.3881 46.389 4.15135 46.2773 3.90722C45.9499 4.47838 45.5547 4.92466 45.0959 5.24635L44.9242 4.88189C45.508 4.43237 45.9639 3.79777 46.2922 2.9781L45.3184 2.91205ZM46.5667 3.71838C46.6824 3.96277 46.8751 4.19634 47.1449 4.4151C47.4101 4.22863 47.6086 4.02158 47.736 3.79769L46.5667 3.71838ZM47.7248 1.7763C47.9861 2.0025 48.2032 2.22971 48.3764 2.45395L48.0866 2.70692C47.9411 2.48857 47.7322 2.25791 47.4523 2.0104L47.7248 1.7763Z" fill="white"/>
<path d="M50.0163 3.4646L50.566 3.51509L50.5953 3.19643L49.9301 3.13533L49.9022 3.43806C49.8803 3.67705 49.8431 3.90662 49.7995 4.11952L50.5045 4.18427L50.5353 3.84968L49.9856 3.79919L50.0163 3.4646ZM49.7202 4.45768C49.6047 4.88491 49.445 5.2679 49.2415 5.6027L48.96 5.29968C49.2571 4.82084 49.4434 4.19125 49.5199 3.40294L49.6428 2.06457L52.69 2.34445L52.5948 3.38009L52.0412 3.32924L52.0119 3.6479L52.6094 3.70277L52.5787 4.03737L51.9812 3.98249L51.9504 4.31708L52.6834 4.3844L52.6519 4.72695L52.2536 4.69037L52.4637 4.93863C52.3264 5.07865 52.1796 5.1897 52.0274 5.27212C52.2199 5.40629 52.4433 5.51116 52.7014 5.58709L52.4893 5.92912C51.7895 5.67605 51.3166 5.22692 51.0666 4.58134L50.5726 4.53598L50.5031 5.29279C50.7476 5.25499 50.9649 5.20667 51.1511 5.14745L51.191 5.50058C50.8581 5.58248 50.4669 5.64295 50.0175 5.68201L49.9443 5.34188C50.0682 5.30506 50.1356 5.2269 50.1473 5.09944L50.2022 4.50195L49.7202 4.45768ZM51.449 4.61647C51.531 4.77263 51.6308 4.91033 51.7481 5.03357C51.9078 4.95586 52.059 4.8412 52.2018 4.68561L51.449 4.61647ZM51.6747 3.29558L50.9577 3.22972L50.9285 3.54838L51.6454 3.61424L51.6747 3.29558ZM50.867 4.21757L51.584 4.28342L51.6147 3.94883L50.8977 3.88297L50.867 4.21757ZM52.2757 2.65587L49.9933 2.44623L49.9612 2.79676L52.2435 3.00639L52.2757 2.65587Z" fill="white"/>
<path d="M56.207 4.75663L56.0363 6.25494L55.6866 6.2151L55.711 6.00049L54.1173 5.81894L54.0911 6.04945L53.7453 6.01006L53.8784 4.84161C53.6448 4.98409 53.3865 5.09557 53.1027 5.18401L52.9504 4.82446C53.4761 4.66292 53.8981 4.42114 54.2131 4.0947L53.152 3.97381L53.1918 3.62407L54.4715 3.76986C54.555 3.63846 54.6269 3.50172 54.6834 3.3592L55.048 3.44502C54.9929 3.57562 54.9347 3.69782 54.8729 3.81559L56.7051 4.0243L56.6653 4.37404L54.6543 4.14495C54.5412 4.28908 54.4216 4.42039 54.2914 4.53841L56.207 4.75663ZM54.1549 5.48907L55.7486 5.67062L55.8192 5.05063L54.2255 4.86908L54.1549 5.48907ZM53.3218 2.62436L54.1962 2.72397L54.2342 2.39013L54.5998 2.43178L54.5618 2.76562L55.5514 2.87835L55.5894 2.54451L55.9551 2.58617L55.917 2.92001L56.7874 3.01916L56.7476 3.3689L55.8772 3.26974L55.8396 3.59961L55.474 3.55796L55.5116 3.22809L54.522 3.11536L54.4826 3.46112L54.1169 3.41947L54.1563 3.07371L53.282 2.9741L53.3218 2.62436Z" fill="white"/>
<path d="M57.9231 2.99683L60.8382 3.61538L60.7635 3.96754L59.4957 3.69853L59.2815 4.70806L60.8388 5.0385L60.7625 5.39849L59.2051 5.06804L58.849 6.74667L58.4733 6.66697L58.8295 4.98834L57.2604 4.6554L57.3368 4.29542L58.9059 4.62835L59.1201 3.61883L57.8484 3.34899L57.9231 2.99683Z" fill="white"/>
<path d="M61.7956 4.00306L63.4179 4.57435L63.2944 4.92523L62.7473 4.73259L62.4922 5.45699L62.8884 5.59649L62.8087 5.82286C63.212 5.46024 63.568 4.97918 63.8818 4.37721L64.218 4.54228C64.1214 4.72029 64.0199 4.88811 63.9173 5.04704L65.0265 5.43765L64.903 5.78853L64.6539 5.70084C64.4112 6.29388 64.0922 6.75407 63.6895 7.07874C63.7994 7.46518 63.9709 7.79699 64.2003 8.07284L63.8903 8.30293C63.6585 8.02198 63.4845 7.68506 63.3746 7.29863C63.0104 7.51389 62.5921 7.64221 62.127 7.68625L62.0118 7.31491C62.5057 7.28527 62.9343 7.15206 63.2874 6.92016C63.2332 6.60424 63.2124 6.26611 63.221 5.90444C63.0924 6.02879 62.9575 6.1467 62.8192 6.25064L62.7122 5.91612L62.3726 5.79655L62.0671 6.66432C62.2668 6.67527 62.4603 6.67979 62.6462 6.68165L62.5293 7.01367C62.0105 7.01759 61.4216 6.97985 60.7613 6.90421L60.7787 6.54143C60.8595 6.55291 60.9378 6.55928 61.0186 6.57076L61.6245 4.85032L61.9602 4.96856L61.3823 6.60978C61.4884 6.62168 61.5869 6.63093 61.6854 6.64018L62.4002 4.61036L61.672 4.35394L61.7956 4.00306ZM63.6003 6.66988C63.8947 6.38766 64.1285 6.02472 64.3031 5.57729L63.6919 5.36205C63.6466 5.41822 63.6052 5.47572 63.5613 5.52811C63.5341 5.9426 63.5441 6.32357 63.6003 6.66988Z" fill="white"/>
<path d="M65.3633 6.1772L66.8034 6.83694L66.9033 6.61875L67.2233 6.76536L67.0889 6.54978C67.3555 6.39035 67.5816 6.19471 67.7686 5.95923L68.0699 6.18524C68.0114 6.25525 67.9493 6.32359 67.8905 6.38466L68.9342 6.8628L68.7943 7.16827L68.176 6.88505C68.1971 7.0311 68.207 7.16322 68.211 7.27943L67.8558 7.25751C67.857 7.08207 67.8473 6.90162 67.8233 6.72344L67.6269 6.63348C67.5154 6.72319 67.4053 6.80033 67.2932 6.87216L67.2441 6.79687L67.1525 6.99688L68.5925 7.65662L68.4493 7.96937L67.0092 7.30962L66.9126 7.52054L68.1053 8.067L67.7821 8.77248C67.6888 8.97613 67.5331 9.02797 67.3149 8.92801L67.0676 8.81472L67.1203 8.46927L67.3483 8.59574C67.4029 8.62073 67.447 8.60133 67.4736 8.54315L67.6252 8.21222L66.7743 7.82237L66.6393 8.11693C66.8682 8.63537 67.2521 9.13241 67.7948 9.61867L67.4681 9.85175C67.0416 9.4188 66.7143 8.95205 66.4894 8.44422L66.0945 9.30608L65.7454 9.14614L66.1353 8.29519C65.615 8.47042 65.0788 8.54597 64.5323 8.52878L64.4667 8.12471C65.1167 8.18491 65.7286 8.12648 66.2936 7.94972L66.4252 7.66244L65.6324 7.29924L65.3142 7.99382L64.976 7.83888L65.4325 6.84247L66.5634 7.3606L66.6601 7.14968L65.22 6.48994L65.3633 6.1772ZM66.096 5.93208C65.9576 6.02271 65.819 6.1044 65.6745 6.17018L65.4613 5.8481C65.7983 5.70775 66.0783 5.51922 66.3011 5.28252L66.5987 5.50686C66.5313 5.57717 66.462 5.64218 66.3959 5.69992L67.265 6.0981L67.1251 6.40357L66.5905 6.15866C66.6116 6.30472 66.6287 6.44016 66.6347 6.56168L66.2703 6.53113C66.2715 6.35568 66.2581 6.17357 66.2341 5.99539L66.096 5.93208Z" fill="white"/>
<path d="M70.5315 7.84716L70.9226 8.05745L71.1101 7.70868L71.4342 7.88297L71.2467 8.23174L71.761 8.50833L71.9486 8.15956L72.2727 8.33385L72.0851 8.68262L72.4903 8.90048L72.3292 9.19993L71.9241 8.98207L71.7271 9.34845L72.2027 9.60421L72.0341 9.91775L69.9273 8.78485L70.096 8.47131L70.5645 8.72328L70.7615 8.35689L70.3705 8.14661L70.5315 7.84716ZM70.8886 8.89757L71.403 9.17416L71.6 8.80778L71.0856 8.53119L70.8886 8.89757ZM71.6914 10.006L70.7953 11.6723L70.4747 11.4999L70.5505 11.359L69.5676 10.8305L69.4937 10.9678L69.1731 10.7955L70.0673 9.13263L71.6914 10.006ZM69.7305 10.5275L70.7134 11.056L70.882 10.7425L69.8991 10.2139L69.7305 10.5275ZM70.0564 9.92154L71.0393 10.4501L71.2098 10.133L70.2269 9.60448L70.0564 9.92154ZM68.2084 10.2585L67.9054 10.0956L68.0036 9.74413C68.0876 9.80748 68.1684 9.85999 68.2529 9.90546C68.3339 9.94903 68.4027 9.92245 68.452 9.83085L68.8366 9.1157C68.6832 9.09682 68.5282 9.07252 68.3787 9.04659L68.4741 8.66645C68.6516 8.71647 68.8312 8.75403 69.0165 8.78102L69.4409 7.99188L69.0428 7.77781L69.2152 7.45722L69.6133 7.6713L69.9448 7.05479L70.2725 7.23097L69.9409 7.84748L70.2791 8.02935L70.1067 8.34994L69.7685 8.16807L69.4143 8.82686C69.5644 8.8349 69.7128 8.83753 69.8632 8.83663L69.687 9.16427C69.5366 9.16516 69.3901 9.15901 69.24 9.15097L68.736 10.0881C68.611 10.3206 68.4339 10.3797 68.2084 10.2585Z" fill="white"/>
<path d="M72.8665 9.24063L73.3643 9.53834C73.3962 9.35239 73.4186 9.17469 73.4259 9.00661L73.7938 9.1474C73.768 9.32305 73.7319 9.51587 73.6801 9.72723L74.0852 9.9695L73.8963 10.2853L73.2269 9.88496L72.9866 10.2866L73.5943 10.65C73.0604 11.5426 72.7127 12.085 72.56 12.278C72.4025 12.4634 72.1878 12.4795 71.9132 12.3152C71.8857 12.2988 71.8418 12.2632 71.7806 12.2173L71.8831 11.8824C71.9387 11.9297 71.9895 11.9694 72.0376 11.9981C72.1577 12.07 72.2647 12.0547 72.3586 11.9524C72.4455 11.8459 72.696 11.4505 73.1115 10.7714L72.8025 10.5866C72.3282 11.333 71.8665 11.8166 71.4175 12.0374L71.3011 11.6788C71.7117 11.4676 72.1425 10.9889 72.5894 10.2494L72.9179 9.70018L72.6776 9.55646L72.8665 9.24063ZM74.4604 10.4643C74.1993 10.6437 73.945 10.7805 73.6954 10.8783L73.6345 10.497C73.989 10.3641 74.3721 10.1132 74.7852 9.74968L75.0497 10.0011C74.9538 10.0835 74.862 10.1591 74.7702 10.2347L75.9545 10.943L75.7718 11.2486L74.4604 10.4643ZM75.4237 11.5578C75.0316 12.2134 74.7762 12.6014 74.6666 12.7223C74.5536 12.8411 74.3835 12.8372 74.1569 12.7017L74.1398 12.6915L74.2216 12.3675C74.28 12.4025 74.3294 12.4367 74.374 12.4634C74.4118 12.486 74.4564 12.466 74.5022 12.4049C74.544 12.3506 74.6761 12.1453 74.8896 11.7883L74.5733 11.725L73.904 12.8441L73.6019 12.6634L74.2076 11.6507L73.8878 11.5853L73.3519 12.4813C73.2616 12.6323 73.2659 12.7421 73.3689 12.8037L74.0177 13.1917C74.0898 13.2348 74.1549 13.2505 74.2098 13.2367C74.2756 13.2202 74.375 13.1164 74.5098 12.9221L74.7379 13.1797C74.5305 13.4565 74.3743 13.6008 74.2618 13.6174C74.1623 13.6278 74.0429 13.5937 73.8987 13.5074L73.1058 13.0332C72.8723 12.8935 72.848 12.6693 73.0287 12.3672L73.5379 11.5158L73.2428 11.4559L73.4194 11.1606L73.7144 11.2206L73.9895 10.7606L74.2779 10.9331L74.0644 11.2901L74.3862 11.352L74.7085 10.8131L75.0106 10.9938L74.7519 11.4263L75.4237 11.5578Z" fill="white"/>
<path d="M77.5495 12.2594L76.0427 14.6003L75.7366 14.4033L75.8492 14.2284L75.3177 13.8864L75.1424 14.1588L74.8363 13.9618L76.4059 11.5233L76.7254 11.7289C76.9028 11.5863 77.069 11.4316 77.2215 11.2538L77.5129 11.5032C77.3602 11.6666 77.1993 11.8056 77.0315 11.926L77.5495 12.2594ZM75.5082 13.5904L76.0397 13.9324L76.4662 13.2698L75.9347 12.9278L75.5082 13.5904ZM76.1188 12.6419L76.6502 12.9839L77.0485 12.3651L76.5171 12.023L76.1188 12.6419ZM77.6353 13.4563C77.6798 13.875 77.6976 14.2242 77.6811 14.5085L77.3141 14.5244C77.3292 14.2201 77.3123 13.862 77.2724 13.451L77.6353 13.4563ZM79.2829 13.3798C78.536 14.5402 78.058 15.2458 77.8512 15.4933C77.6617 15.7138 77.4223 15.7309 77.1364 15.5469C77.0691 15.5036 76.9524 15.419 76.7907 15.3006L76.9017 14.9582C77.0453 15.0602 77.1688 15.1492 77.2764 15.2185C77.411 15.3051 77.5338 15.2842 77.6449 15.1559C77.7733 15.0008 78.1471 14.4422 78.7709 13.4879L77.9266 12.9445C77.7026 13.0857 77.4759 13.2014 77.2398 13.2873L77.2105 12.9117C77.6403 12.7317 78.0483 12.4377 78.4278 12.0255L78.718 12.2694C78.5631 12.4361 78.4034 12.5807 78.2435 12.7109L79.2829 13.3798Z" fill="white"/>
<path d="M80.2915 13.3031C80.3982 13.6311 80.4684 13.9344 80.5044 14.2098L80.1346 14.2785C80.114 14.0232 80.0493 13.7188 79.9372 13.3631L80.2915 13.3031ZM80.1908 17.5605C80.0085 17.4373 79.8119 17.2996 79.602 17.153C79.3888 17.0041 79.2266 16.8656 79.1098 16.7384C79.0041 16.609 78.9418 16.4511 78.9185 16.2712C78.9102 16.1835 78.8883 16.1301 78.8486 16.1033C78.779 16.0562 78.5589 16.1248 78.1883 16.3089L78.1018 15.9367C78.4489 15.7802 78.7123 15.7119 78.8897 15.7352L79.5234 14.7972L79.0793 14.4971L79.2763 14.2055L80.0155 14.7049L79.169 15.9577C79.1766 15.9822 79.182 16.0099 79.1851 16.041C79.2009 16.182 79.2356 16.302 79.2894 16.4011C79.3575 16.5147 79.4831 16.643 79.6742 16.7818C79.8609 16.9128 80.0807 17.0661 80.3392 17.2408C80.5016 17.3505 80.6696 17.4592 80.8376 17.5678C81.0055 17.6765 81.1393 17.7572 81.2332 17.811L80.9465 18.0711L80.1908 17.5605ZM81.4022 14.5315L80.7625 14.0993L80.9394 13.8375L82.759 15.0669L82.609 15.2889C82.3048 15.3248 82.0052 15.3251 81.7059 15.2967C81.708 15.3078 81.7124 15.3156 81.7146 15.3267L82.3808 15.7768L81.3865 17.2484C81.2544 17.4439 81.0778 17.4695 80.8624 17.3239L80.6072 17.1515L80.7178 16.8448L80.9441 17.0171C81.0171 17.0664 81.0815 17.0568 81.1307 16.9839L81.2449 16.8148L80.7677 16.4924L80.4004 17.0359L80.1121 16.8411L80.4793 16.2975L80.012 15.9818L79.6403 16.532L79.342 16.3304L80.5512 14.5406L81.3135 15.0557C81.2534 14.9089 81.1823 14.7498 81.0957 14.5851L81.4022 14.5315ZM81.6144 15.0176C81.8006 15.0421 81.9836 15.0499 82.1612 15.0443L81.4188 14.5427C81.491 14.7073 81.5588 14.8642 81.6144 15.0176ZM80.3412 15.4946L80.1844 15.7266L80.6517 16.0423L80.8085 15.8103L80.3412 15.4946ZM81.0969 16.0051L80.9401 16.2371L81.4174 16.5596L81.5741 16.3276L81.0969 16.0051ZM81.7488 16.0691L81.9056 15.8371L81.4283 15.5146L81.2715 15.7466L81.7488 16.0691ZM80.9832 15.5518L81.1399 15.3198L80.6726 15.004L80.5158 15.236L80.9832 15.5518Z" fill="white"/>
<path d="M86.1139 17.7316L84.3291 20.2907L84.0273 20.0802L84.1577 19.8932L83.5835 19.4927L83.4508 19.683L83.149 19.4725L84.936 16.9101L86.1139 17.7316ZM83.7872 19.2007L84.3614 19.6012L85.6084 17.8131L85.0342 17.4126L83.7872 19.2007ZM83.4859 16.4791C83.296 16.5905 83.1055 16.682 82.9175 16.7557L82.7664 16.3919C83.1915 16.2299 83.5735 16.0038 83.9092 15.7112L84.1719 15.9919C84.0521 16.0937 83.9327 16.1811 83.8155 16.2652L84.7112 16.8899L84.503 17.1884L84.0568 16.8772C83.9083 17.0761 83.7658 17.2595 83.6248 17.4197L84.1366 17.7766L83.9284 18.0752L83.374 17.6885C83.3105 17.7515 83.2437 17.8123 83.1849 17.8687C83.2431 18.2117 83.2887 18.58 83.3247 18.9758L82.9331 19.1318C82.931 18.7012 82.9183 18.3558 82.8949 18.0957C82.5169 18.3441 82.0803 18.4736 81.5809 18.4764L81.5514 18.0852C82.0688 18.0706 82.5069 17.9178 82.8715 17.6258C82.9281 17.5726 82.9903 17.5184 83.0491 17.462L82.4028 17.0112L82.611 16.7126L83.3033 17.1954C83.4443 17.0353 83.5868 16.8519 83.7352 16.653L83.4859 16.4791Z" fill="white"/>
<path d="M86.954 17.812L86.5491 19.8147L84.7932 20.8597L84.6154 20.5571L86.2358 19.5926L86.6097 17.7444L86.954 17.812ZM87.512 18.2076L87.1071 20.2104L85.3512 21.2553L85.1734 20.9527L86.7938 19.9883L87.1546 18.1307L87.512 18.2076Z" fill="white"/>
</svg>
