<svg width="143" height="44" viewBox="0 0 143 44" fill="none" xmlns="http://www.w3.org/2000/svg">
<path d="M5.5072 2.04991L5.72051 2.34678L4.16206 3.42L3.92564 5.29082L3.57725 5.24881L3.83326 3.22163L5.5072 2.04991ZM6.09287 2.40325L6.29248 2.69185L4.74772 3.77334L4.5113 5.64416L4.16292 5.60215L4.41893 3.57497L6.09287 2.40325Z" fill="white"/>
<path d="M7.07057 3.11507C7.19602 3.43199 7.28987 3.72406 7.34445 3.99588L6.96771 4.07377C6.92478 3.82834 6.83646 3.53504 6.69935 3.19173L7.07057 3.11507ZM6.48362 3.90315C6.59649 4.20258 6.68113 4.47931 6.72652 4.73579L6.351 4.8192C6.32157 4.58236 6.23907 4.30226 6.11455 3.97644L6.48362 3.90315ZM6.19974 5.01216L6.42029 5.31375C6.00794 5.64872 5.59927 5.94811 5.18877 6.21313L4.95503 5.86521C5.39007 5.60633 5.80457 5.32013 6.19974 5.01216ZM7.62458 3.65261L9.79097 5.03151L9.59337 5.34196L9.34704 5.18517L7.9166 7.43255C7.7641 7.67214 7.57205 7.72059 7.34596 7.57669L6.78243 7.218L6.91039 6.86797C7.08402 6.99745 7.25182 7.11374 7.41717 7.21898C7.5049 7.27482 7.58651 7.2509 7.65095 7.14967L9.02984 4.98327L7.42698 3.96306L7.62458 3.65261ZM7.28274 4.48765L8.38956 5.19214L7.5605 6.49467L6.45368 5.79019L7.28274 4.48765ZM7.44826 6.01546L7.91004 5.28996L7.39713 4.96349L6.93535 5.68899L7.44826 6.01546Z" fill="white"/>
<path d="M11.2418 5.73811L11.5619 5.9502L9.54475 8.9946L9.22463 8.7825L9.57371 8.25565C9.23296 8.19782 8.88991 8.11449 8.54124 8.00343L8.67223 7.63917C9.02986 7.78016 9.39958 7.88117 9.78359 7.93888L10.4464 6.93853L9.59943 6.37736L9.80048 6.07392L10.6474 6.63509L11.2418 5.73811ZM10.9218 9.86379L10.4083 9.52355C10.1715 9.36669 10.1388 9.16265 10.3022 8.9159L12.052 6.27497L12.3688 6.48486L11.6552 7.5619C11.9949 7.64303 12.3456 7.67865 12.7072 7.66874L12.7205 8.04701C12.2478 8.02173 11.8283 7.95969 11.4541 7.86534L10.6522 9.07577C10.5969 9.15913 10.6049 9.22678 10.6782 9.27538L11.065 9.53167C11.1251 9.57143 11.1894 9.57569 11.2526 9.54556C11.3113 9.50767 11.4517 9.33198 11.6693 9.02517L11.902 9.3185C11.6235 9.69538 11.4267 9.90562 11.3181 9.95363C11.205 9.99389 11.0752 9.96541 10.9218 9.86379Z" fill="white"/>
<path d="M15.1113 8.3078L15.4188 8.51722L14.8446 9.36025L14.5371 9.15084L15.1113 8.3078ZM13.3452 9.30209C13.1795 9.23277 13.0137 9.16344 12.8503 9.09082L12.915 8.71868C14.0215 9.24002 14.9596 9.51117 15.726 9.52987C15.6755 9.36961 15.6183 9.20484 15.5546 9.03557L15.9035 8.97801C16.0808 9.44242 16.2086 9.87305 16.2824 10.2621L15.9133 10.335C15.8937 10.1861 15.8642 10.0305 15.8215 9.86587C15.3899 9.86713 14.9223 9.80036 14.4133 9.66661L15.5836 10.4637L14.3609 12.2589L14.0535 12.0495L14.1391 11.9238L12.6811 10.9308L12.591 11.0631L12.2869 10.8559L13.3452 9.30209ZM12.8702 10.6531L14.3282 11.6461L14.4791 11.4246L13.0211 10.4316L12.8702 10.6531ZM13.1922 10.1804L14.6502 11.1734L14.7876 10.9717L13.3296 9.9787L13.1922 10.1804ZM13.4985 9.73075L14.9564 10.7238L15.0983 10.5155L13.6403 9.52247L13.4985 9.73075ZM14.4639 8.14272L14.5526 8.48864C14.1932 8.59713 13.8077 8.64434 13.3985 8.62696L13.3765 8.26839C13.7647 8.28112 14.1257 8.24143 14.4639 8.14272Z" fill="white"/>
<path d="M18.5792 10.7085C18.379 10.998 18.2008 11.2347 18.0466 11.4296C17.6323 12.4367 17.6442 13.4322 18.0759 14.4115L17.6798 14.5412C17.3393 13.6833 17.2897 12.8126 17.5265 11.9356C16.8362 12.4698 15.9909 12.7217 14.9905 12.6914L14.9931 12.2798C16.2545 12.3545 17.2237 11.9304 17.9029 11.0044C18.0554 10.784 18.1769 10.6151 18.2634 10.4901L18.5792 10.7085Z" fill="white"/>
<path d="M19.7366 14.2079L19.1935 14.9897C19.5017 15.121 19.8235 15.2326 20.1568 15.3277L20.0237 15.6736C19.6376 15.5563 19.1683 15.3765 18.6248 15.1353L18.748 14.7826C18.8234 14.7863 18.8872 14.7575 18.9329 14.6918L20.6169 12.2673L23.0151 13.9331L22.2986 14.9647L21.405 14.344C21.3201 14.4944 21.2508 14.6362 21.1883 14.7682L22.233 15.4938L22.0231 15.7961L21.0474 15.1183C21.0237 15.1945 21.0024 15.2673 20.9889 15.3358C20.9287 15.6398 20.9174 15.8804 20.9528 16.0608C20.9895 16.2324 21.0538 16.3501 21.1435 16.4173C21.1731 16.4378 21.2199 16.4265 21.2817 16.3867C21.3458 16.3435 21.4591 16.2225 21.6248 16.0259L21.7991 16.371C21.5591 16.6183 21.3811 16.7625 21.2682 16.8058C21.1585 16.8514 21.0599 16.8462 20.9788 16.7948C20.8234 16.6819 20.7149 16.4946 20.65 16.2303C20.5841 15.9606 20.5869 15.641 20.655 15.2695C20.6772 15.1534 20.7105 15.0353 20.7517 14.913L19.7366 14.2079ZM21.0962 14.1295L20.2158 13.518L19.9465 13.9056L20.8894 14.5605C20.9498 14.4174 21.0191 14.2756 21.0962 14.1295ZM22.502 14.0199L20.7247 12.7853L20.4212 13.2223L22.1985 14.4568L22.502 14.0199Z" fill="white"/>
<path d="M23.3966 14.4479L24.8121 15.4249L24.6008 15.7311L24.1235 15.4016L23.6872 16.0337L24.0329 16.2722L23.8966 16.4698C24.3809 16.2257 24.8507 15.8549 25.3114 15.3564L25.5926 15.6039C25.4526 15.7503 25.3107 15.8856 25.1699 16.0121L26.1378 16.6801L25.9265 16.9862L25.7092 16.8363C25.3193 17.3448 24.8908 17.7052 24.417 17.9128C24.4216 18.3145 24.5001 18.6797 24.649 19.0061L24.2895 19.1468C24.1395 18.8148 24.06 18.4441 24.0554 18.0423C23.6475 18.1545 23.2101 18.1685 22.7498 18.089L22.7361 17.7004C23.2205 17.8014 23.669 17.7854 24.0705 17.6542C24.1012 17.3352 24.1698 17.0034 24.273 16.6567C24.1163 16.7429 23.9553 16.8213 23.7945 16.8853L23.779 16.5344L23.4827 16.33L22.9602 17.0871C23.15 17.1501 23.3355 17.2052 23.5144 17.2558L23.3145 17.5455C22.8129 17.4132 22.2545 17.2222 21.6371 16.9759L21.7492 16.6305C21.8242 16.6627 21.8981 16.6894 21.973 16.7217L23.0091 15.2206L23.3021 15.4228L22.3137 16.8548C22.4129 16.8941 22.5056 16.9289 22.5982 16.9637L23.8206 15.1926L23.1853 14.7541L23.3966 14.4479ZM24.4382 17.4948C24.7964 17.2998 25.1172 17.0109 25.403 16.625L24.8697 16.2569C24.8114 16.2992 24.7563 16.3438 24.7002 16.3829C24.5651 16.7757 24.4748 17.1459 24.4382 17.4948Z" fill="white"/>
<path d="M27.6608 17.9164L27.9184 18.178C27.752 18.3165 27.5802 18.4416 27.3996 18.5512L26.1562 20.3854L25.8449 20.1744L26.7225 18.8799C26.5857 18.9321 26.45 18.9754 26.3132 19.0132L26.4352 18.5981C26.8957 18.4463 27.3046 18.2209 27.6608 17.9164ZM27.6299 18.6107L28.5769 19.2526L28.8709 18.8189L29.1788 19.0276L28.8848 19.4613L29.2026 19.6768L28.9961 19.9814L28.6783 19.7659L27.8455 20.9943C27.6839 21.2327 27.4883 21.2789 27.2665 21.1285L26.8195 20.8255L26.9565 20.4737C27.0888 20.5779 27.2201 20.6766 27.3525 20.7664C27.4419 20.827 27.5242 20.8054 27.5915 20.7061L28.3704 19.5572L27.4234 18.9153L27.6299 18.6107ZM29.7534 18.7503L29.5559 19.0416L27.1853 17.4345L26.6601 18.2093C26.1575 18.9221 25.6356 19.414 25.091 19.6827L24.9963 19.3092C25.4451 19.0819 25.8967 18.6438 26.3488 17.9983L27.0716 16.9322L28.2867 17.7559C28.3074 17.654 28.3226 17.5532 28.3311 17.4623L28.7081 17.6405C28.6817 17.7435 28.6487 17.8564 28.6112 17.9759L29.7534 18.7503ZM27.5577 19.3445C27.5971 19.6999 27.6081 19.9973 27.5985 20.2324L27.2534 20.2353C27.2654 19.9824 27.2533 19.6794 27.2183 19.3319L27.5577 19.3445Z" fill="white"/>
<path d="M29.7087 20.0913L29.9166 20.3864C29.5443 20.7112 29.2004 20.9204 28.8791 21.0153L28.7785 20.6519C29.0887 20.5593 29.3973 20.3747 29.7087 20.0913ZM31.1816 19.3615L31.5022 19.5729L31.0927 20.194L32.148 20.8898C31.9872 21.1191 31.8407 21.334 31.7019 21.53L31.9928 21.5684C31.9483 21.9703 31.8806 22.3999 31.7842 22.8586L31.4012 22.8073C31.4967 22.4008 31.5646 22.0144 31.6072 21.6591C31.4309 21.8975 31.2722 22.1091 31.1356 22.2873C30.8644 22.6259 30.6403 22.8423 30.4666 22.9386C30.2973 23.0282 30.1253 23.0202 29.9462 22.9213L29.5555 22.6637L29.6712 22.2992C29.7803 22.3808 29.885 22.4546 29.9852 22.5206C30.1488 22.6285 30.3339 22.5876 30.536 22.4046C30.7435 22.2061 31.105 21.7305 31.6215 20.9834L30.8767 20.4925C30.4933 21.0014 30.1135 21.3739 29.7376 21.6099C29.3239 21.8595 28.8518 21.9506 28.3223 21.889L28.3314 21.4973C28.8508 21.5379 29.2874 21.4425 29.639 21.2144C29.9441 20.9987 30.2498 20.6876 30.5561 20.2811L29.7613 19.7571L29.9639 19.4499L30.7721 19.9827L31.1816 19.3615Z" fill="white"/>
<path d="M34.1998 21.3599L34.4221 21.6666C33.7346 22.2205 33.0743 22.5596 32.4434 22.6805L32.3293 22.3003C32.9767 22.1757 33.6021 21.8618 34.1998 21.3599ZM34.3345 23.9557C34.3464 24.4747 34.315 24.9948 34.2293 25.5183L33.8429 25.4628C33.8642 25.3247 33.8888 25.1887 33.9058 25.0574C33.2624 24.7725 32.5676 24.4266 31.8147 24.0154L31.9544 23.6682C32.2435 23.7426 32.9057 23.4379 33.9443 22.7561L34.1899 23.0635C33.5576 23.463 32.9786 23.7636 32.4595 23.9696C32.9606 24.24 33.4589 24.485 33.9476 24.7002C33.9775 24.4066 33.9912 24.1311 33.9853 23.8715L34.3345 23.9557ZM35.4297 22.1019C35.2289 22.8367 35.234 23.5457 35.4538 24.2298L35.057 24.3476C34.8329 23.6181 34.8323 22.8646 35.0575 22.0838L35.4297 22.1019Z" fill="white"/>
<path d="M39.8342 24.9528L39.6445 25.2681L37.2689 23.8396L36.6608 24.8509C36.2204 25.5522 35.7308 26.0326 35.1955 26.2941L35.0806 25.9263C35.5213 25.7059 35.9401 25.281 36.3352 24.655L37.1329 23.3284L39.8342 24.9528ZM37.138 24.4143L39.3114 25.7213L39.1258 26.0298L38.2894 25.5268L37.3865 27.0282C37.2319 27.2853 37.0336 27.3434 36.7937 27.1991L36.4303 26.9806L36.5404 26.6268C36.6453 26.7085 36.7509 26.7813 36.8537 26.8432C36.9531 26.903 37.0416 26.8722 37.1117 26.7556L37.9672 25.333L36.9525 24.7229L37.138 24.4143Z" fill="white"/>
<path d="M40.2443 26.3098L40.5613 26.4888L40.284 26.9799L40.6463 27.1844L40.4791 27.4805L40.1169 27.276L39.8927 27.6731C40.0672 27.7302 40.2366 27.78 40.3956 27.8238L40.2186 28.1373C40.0561 28.0915 39.8867 28.0418 39.7138 27.9901L39.2949 28.732L38.9779 28.5531L39.3614 27.8738C39.1397 27.7946 38.9076 27.7095 38.6724 27.6135L38.8135 27.2659C39.0661 27.3718 39.3102 27.4682 39.5423 27.5534L39.7999 27.0971L39.2426 26.7824L39.3381 26.4505C39.5349 26.3135 39.7557 26.1258 39.999 25.8819L39.6925 25.7089L39.8734 25.3884L40.2635 25.6087C40.3715 25.4905 40.4835 25.3654 40.5959 25.2314L40.8839 25.4536C40.7813 25.5703 40.6807 25.6834 40.584 25.7896L41.2109 26.1436L41.03 26.464L40.3194 26.0629C40.0934 26.2843 39.8795 26.476 39.6745 26.6358L39.9671 26.801L40.2443 26.3098ZM41.3503 26.2222L41.8762 26.5191C41.9847 26.3921 42.0897 26.263 42.1967 26.1305L42.503 26.3447C42.3999 26.4703 42.3008 26.5889 42.2072 26.706L43.0153 27.1622L42.8344 27.4826L41.9601 26.9891C41.8728 27.0868 41.7874 27.181 41.704 27.2717L42.7386 27.8557L42.5596 28.1727L41.445 27.5435C41.3319 27.6542 41.2228 27.758 41.1231 27.8532L42.2099 28.4668L42.0565 28.7385C41.8192 28.8985 41.5281 29.0235 41.1723 29.1167C41.2545 29.2641 41.3257 29.4145 41.3935 29.563L41.0476 29.7444C40.8461 29.2632 40.6043 28.8373 40.3186 28.4647L40.6437 28.3038C40.7716 28.4678 40.8866 28.6384 40.9907 28.812C41.2622 28.754 41.501 28.6729 41.7033 28.5667L40.5469 27.9138C40.7365 27.7406 40.9251 27.5531 41.1175 27.3586L40.7065 27.1266L40.8855 26.8096L41.3766 27.0869C41.4639 26.9892 41.5493 26.8949 41.6326 26.8042L41.1694 26.5427L41.3503 26.2222Z" fill="white"/>
<path d="M43.0859 28.1042L43.9072 27.2156L44.2142 27.4484L43.687 28.0078L44.2116 28.2821C44.4161 28.055 44.6139 27.8063 44.8084 27.5379L45.13 27.7603C44.941 28.018 44.7507 28.2525 44.5626 28.4656L46.186 29.3145L46.0173 29.6371L44.3088 28.7437C44.2122 28.8421 44.1158 28.9316 44.0247 29.0194L45.4426 29.7608L45.2943 30.0444C45.0501 30.2869 44.7393 30.4584 44.3546 30.5551C44.5462 30.8449 44.8 31.1536 45.1126 31.4796L44.7721 31.7078C44.4247 31.3275 44.154 30.9648 43.9597 30.6285C43.5777 30.677 43.1412 30.6745 42.6502 30.6208L42.6398 30.2091C43.061 30.2669 43.4399 30.2845 43.7713 30.2637C43.6373 29.9589 43.5674 29.6695 43.5633 29.4011C43.0338 29.7922 42.4925 30.0418 41.943 30.1517L41.9325 29.749C42.6478 29.5723 43.3205 29.1748 43.9508 28.5565L43.0859 28.1042ZM43.9043 29.3447C43.9119 29.615 43.9943 29.9063 44.1533 30.2151C44.4711 30.1511 44.7361 30.0414 44.9429 29.8877L43.9043 29.3447ZM45.7459 28.0326C45.8941 28.3449 46.0014 28.6402 46.0698 28.9152L45.7027 29.0302C45.6573 28.7717 45.5589 28.4765 45.4023 28.1373L45.7459 28.0326Z" fill="white"/>
<path d="M48.3124 29.3169L48.6482 29.4771L48.209 30.3977L47.8733 30.2375L48.3124 29.3169ZM46.7182 30.5685C46.5439 30.5252 46.3695 30.4819 46.1969 30.435L46.2042 30.0574C47.3772 30.4042 48.3457 30.5293 49.106 30.4312C49.0317 30.2805 48.9501 30.1263 48.8613 29.9687L49.1974 29.8587C49.4434 30.2907 49.6352 30.6969 49.7673 31.0701L49.4137 31.1984C49.3716 31.0542 49.3188 30.9049 49.2515 30.7487C48.8251 30.8157 48.3529 30.8208 47.8294 30.7661L49.1074 31.3758L48.1723 33.3362L47.8365 33.176L47.902 33.0388L46.3098 32.2793L46.241 32.4237L45.9088 32.2653L46.7182 30.5685ZM46.4545 31.9761L48.0466 32.7356L48.162 32.4937L46.5699 31.7342L46.4545 31.9761ZM46.7008 31.4598L48.2929 32.2193L48.398 31.9991L46.8058 31.2396L46.7008 31.4598ZM46.935 30.9688L48.5271 31.7283L48.6356 31.5009L47.0435 30.7414L46.935 30.9688ZM47.6475 29.2523L47.7877 29.5807C47.449 29.7426 47.0752 29.848 46.6681 29.8931L46.5919 29.5421C46.9775 29.4955 47.3282 29.4014 47.6475 29.2523Z" fill="white"/>
<path d="M50.1715 30.9265L51.6537 31.5603C51.6336 31.3428 51.5866 31.127 51.5145 30.9091L51.9189 30.9298C51.9758 31.1629 52.0113 31.426 52.0215 31.7175L53.4154 32.3135L53.2676 32.6592L52.7049 32.4186C52.2893 32.9022 51.8285 33.2576 51.3208 33.4887C51.5696 33.9648 51.9361 34.4304 52.4145 34.8785L52.0937 35.0894C51.5959 34.6156 51.221 34.129 50.9727 33.6313C50.3998 33.8214 49.7722 33.875 49.0899 33.7921L49.0344 33.4029C49.6963 33.5032 50.2892 33.4696 50.8222 33.3016C50.5906 32.724 50.5118 32.1248 50.5864 31.5129L50.0237 31.2723L50.1715 30.9265ZM50.9211 31.656C50.8821 32.1744 50.9624 32.6785 51.1671 33.1663C51.605 32.9663 51.9992 32.665 52.3445 32.2645L50.9211 31.656Z" fill="white"/>
<path d="M55.0707 32.2281L55.345 32.5104C55.1025 32.7697 54.8281 33 54.5233 33.1976L53.5976 35.6656L53.2455 35.5336L54.0154 33.4812C53.8028 33.5809 53.5804 33.6727 53.3496 33.7527L53.3763 33.3398C54.0463 33.0913 54.6119 32.7224 55.0707 32.2281ZM55.5628 36.3259L54.8625 36.0632C54.5629 35.9509 54.4693 35.7448 54.5817 35.4452L54.975 34.3966C54.8135 34.4172 54.6482 34.4363 54.4806 34.4504L54.446 34.0529C54.682 34.0389 54.9118 34.0183 55.131 33.9809L55.6774 32.524L56.0332 32.6575L55.5696 33.8934C56.028 33.7876 56.4578 33.6327 56.8515 33.4258L56.9933 33.7994C56.4999 34.033 55.9718 34.2108 55.4081 34.3241L54.9557 35.53C54.9164 35.6349 54.9529 35.7084 55.0727 35.7533L55.6308 35.9627C55.7169 35.995 55.7918 35.9889 55.8541 35.9482C55.9126 35.906 56.0133 35.7174 56.15 35.3756L56.4389 35.6079C56.2511 36.0287 56.1041 36.2726 56.0029 36.3372C55.898 36.4004 55.7501 36.3962 55.5628 36.3259Z" fill="white"/>
<path d="M61.0435 34.4706L60.9312 34.821L58.2913 33.9755L57.9314 35.0993C57.6636 35.8829 57.2972 36.4628 56.8362 36.8401L56.64 36.5085C57.0183 36.1928 57.3285 35.6832 57.5695 34.9833L58.0417 33.5091L61.0435 34.4706ZM58.2957 34.5649L60.7109 35.3385L60.6011 35.6813L59.6716 35.3836L59.1372 37.0521C59.0457 37.3378 58.866 37.4399 58.5993 37.3545L58.1955 37.2251L58.2215 36.8555C58.3424 36.911 58.4618 36.9576 58.5761 36.9942C58.6866 37.0296 58.7657 36.9793 58.8072 36.8498L59.3135 35.2689L58.1859 34.9078L58.2957 34.5649Z" fill="white"/>
<path d="M61.7688 35.7346L62.8905 36.0304L62.9425 35.8332L63.306 35.929L63.254 36.1263L64.3602 36.418L64.2756 36.739L63.1694 36.4473L63.0919 36.7413L64.639 37.1492L64.5553 37.4664L63.8398 37.2777L63.7602 37.5794L64.3095 37.7242L64.2248 38.0453L63.6756 37.9004L63.5358 38.4303C63.4716 38.674 63.3036 38.7621 63.0406 38.6927L62.4952 38.5489L62.5058 38.1794C62.6796 38.2418 62.8429 38.2972 62.9976 38.338C63.1059 38.3666 63.1723 38.3344 63.1947 38.2493L63.312 37.8046L61.1577 37.2364L61.2423 36.9154L63.3967 37.4835L63.4762 37.1818L61.0937 36.5536L61.1773 36.2364L62.7283 36.6454L62.8058 36.3514L61.6841 36.0557L61.7688 35.7346ZM61.8453 37.484C61.9905 37.7332 62.0955 37.9471 62.164 38.1265L61.8257 38.2482C61.7526 38.0552 61.6448 37.8365 61.4985 37.5911L61.8453 37.484ZM62.1042 35.2315C61.9703 35.3782 61.828 35.5103 61.677 35.6277L61.4129 35.3429C61.7086 35.1314 61.9427 34.887 62.121 34.603L62.4487 34.7722C62.4071 34.8357 62.3617 34.8982 62.3201 34.9617L63.2445 35.2054L63.1639 35.511L62.5683 35.3539C62.6228 35.4924 62.6649 35.6152 62.6925 35.73L62.3272 35.7661C62.2945 35.592 62.2454 35.4177 62.1815 35.2519L62.1042 35.2315ZM63.6775 35.634C63.583 35.7415 63.4838 35.8353 63.3828 35.9203L63.1311 35.6512C63.3537 35.4659 63.5379 35.2538 63.6768 35.0092L64.0017 35.1734C63.9601 35.2369 63.9224 35.3015 63.8819 35.3611L64.9378 35.6395L64.8572 35.9451L64.2345 35.7809C64.2929 35.9204 64.3329 36.0509 64.3567 36.1647L64.0079 36.201C63.9713 36.0259 63.9211 35.8554 63.8593 35.6819L63.6775 35.634Z" fill="white"/>
<path d="M65.7226 36.3935C65.7688 36.5829 65.7998 36.806 65.8196 37.0635L66.1681 37.1363C66.3046 36.9523 66.4357 36.755 66.5536 36.5426L66.8697 36.7312C66.7584 36.9123 66.6471 37.0729 66.5322 37.2124L66.9551 37.3007L66.8806 37.657L64.9112 37.2456L64.9856 36.8892L65.4711 36.9907C65.4453 36.8014 65.41 36.6183 65.3605 36.4445L65.7226 36.3935ZM67.3777 36.0405L68.7364 36.3244L68.6775 36.6063C68.4727 36.9803 68.2618 37.3245 68.0489 37.6396C68.2634 38.0603 68.3508 38.3851 68.3073 38.613C68.2516 38.8793 68.1584 39.0518 68.0353 39.1324C67.9044 39.2113 67.6698 39.2194 67.3409 39.1507L67.3052 38.7346C67.4429 38.7798 67.5587 38.8121 67.6566 38.8326C67.7436 38.8467 67.8072 38.8354 67.8405 38.7934C67.8722 38.7591 67.9028 38.6715 67.9353 38.5353C67.978 38.3113 67.8828 37.9849 67.6534 37.557C67.844 37.2903 68.0429 36.9641 68.2533 36.5831L67.666 36.4603L67.0123 39.5888L66.6521 39.5135L67.3777 36.0405ZM65.2841 35.832L66.0046 35.9825C65.9892 35.8607 65.9721 35.7468 65.9526 35.6447L66.3454 35.6614C66.357 35.7823 66.366 35.915 66.3687 36.0586L67.144 36.2205L67.0695 36.5768L65.2097 36.1883L65.2841 35.832ZM66.6643 37.9101L66.3436 39.445L65.9716 39.3673L66.0142 39.1637L65.145 38.9821L65.1024 39.1857L64.7383 39.1096L65.059 37.5747L66.6643 37.9101ZM65.2186 38.6297L66.0878 38.8113L66.2187 38.1848L65.3495 38.0032L65.2186 38.6297Z" fill="white"/>
<path d="M71.5448 40.3356L71.2206 40.2858L71.1797 39.9194L71.5225 39.9801C71.6253 39.9959 71.6916 39.9332 71.7128 39.7948L72.1029 37.2526L70.6163 37.0244L70.6697 36.6765L72.5201 36.9605L72.0608 39.9534C72.0147 40.2539 71.8414 40.3811 71.5448 40.3356ZM69.1961 36.9441L69.5598 36.9999L69.0999 39.9968L68.7362 39.941L69.1961 36.9441ZM69.9632 36.3496C70.1123 36.591 70.238 36.8531 70.3375 37.1273L69.9741 37.2537C69.8664 36.9539 69.7413 36.6878 69.6001 36.4476L69.9632 36.3496Z" fill="white"/>
<path d="M73.8513 36.9488C73.9824 37.1631 74.1076 37.3968 74.2229 37.6496L73.9637 37.7481L74.7875 37.8312C74.9536 37.6188 75.1083 37.361 75.251 37.0618L75.6111 37.1986C75.4971 37.4524 75.362 37.676 75.2134 37.8741L75.9695 37.9503L75.9326 38.3164L74.6352 38.1857L74.6228 38.3091C74.5955 38.4993 74.558 38.6724 74.5137 38.8328L76.0977 38.9924L76.0608 39.3585L74.6678 39.2182C74.8143 39.7194 75.2737 40.1476 76.0456 40.5068L75.7866 40.8425C74.9853 40.416 74.5017 39.909 74.3274 39.3246C74.237 39.5044 74.1326 39.6627 74.0146 39.7956C73.7079 40.1265 73.2385 40.3566 72.6063 40.4858L72.4327 40.1347C73.0656 39.9974 73.5048 39.7884 73.7542 39.508C73.8414 39.4002 73.9179 39.2793 73.9833 39.1492L72.6222 39.012L72.6591 38.6459L74.1237 38.7935C74.1724 38.6295 74.2139 38.4568 74.2407 38.2706L74.2531 38.1472L72.9517 38.016L72.9886 37.6499L73.8403 37.7357C73.7322 37.4916 73.6134 37.2746 73.4882 37.0811L73.8513 36.9488Z" fill="white"/>
<path d="M76.8797 37.3566L79.9042 37.5021L79.8864 37.8737L78.6118 37.8124L78.5649 38.7872L80.1191 38.862L80.1009 39.2416L78.5467 39.1668L78.4811 40.5292C78.4677 40.8089 78.3129 40.9456 78.0213 40.9316L77.386 40.901L77.3238 40.5296C77.527 40.5514 77.7224 40.5688 77.9061 40.5776C78.034 40.5838 78.1008 40.5269 78.1062 40.4151L78.1671 39.1485L76.545 39.0705L76.5632 38.6909L78.1854 38.769L78.2323 37.7941L76.8619 37.7282L76.8797 37.3566Z" fill="white"/>
<path d="M81.1793 37.4787C81.4597 37.6726 81.6999 37.8634 81.8962 38.0592L81.6262 38.3332C81.4542 38.1529 81.2179 37.958 80.9132 37.7486L81.1793 37.4787ZM81.1288 38.4601C81.389 38.6464 81.613 38.8296 81.7932 39.0177L81.5272 39.2956C81.3712 39.1149 81.1471 38.9278 80.8626 38.726L81.1288 38.4601ZM81.5086 39.54L81.8595 39.6684C81.7026 40.1759 81.5289 40.6518 81.3347 41.1002L80.9471 40.9407C81.1652 40.4838 81.351 40.0156 81.5086 39.54ZM81.9386 37.6181L84.506 37.5619L84.514 37.9298L84.2221 37.9362L84.2805 40.5996C84.2867 40.8835 84.1539 41.0304 83.8859 41.0363L83.2181 41.0509L83.1301 40.6888C83.3464 40.7 83.5506 40.7036 83.7465 40.6993C83.8505 40.697 83.9051 40.6318 83.9024 40.5118L83.8462 37.9444L81.9466 37.9861L81.9386 37.6181ZM82.118 38.5024L83.4297 38.4737L83.4635 40.0173L82.1518 40.0461L82.118 38.5024ZM83.1041 39.6811L83.0852 38.8213L82.4774 38.8346L82.4962 39.6944L83.1041 39.6811Z" fill="white"/>
<path d="M85.7552 37.2261L86.1369 37.1841L86.5357 40.8143L86.154 40.8562L86.085 40.228C85.7861 40.4017 85.4692 40.5572 85.1303 40.6951L84.9977 40.3314C85.3628 40.2108 85.7115 40.0518 86.0435 39.8503L85.9124 38.6575L84.9025 38.7684L84.8628 38.4066L85.8727 38.2956L85.7552 37.2261ZM88.15 40.6007L87.5377 40.668C87.2554 40.699 87.0996 40.5632 87.0673 40.269L86.7214 37.1199L87.0991 37.0784L87.2402 38.3627C87.5531 38.2076 87.8453 38.0105 88.1169 37.7714L88.3692 38.0536C87.9898 38.3367 87.6278 38.5576 87.2799 38.7245L87.4385 40.1679C87.4494 40.2673 87.4988 40.3141 87.5863 40.3045L88.0475 40.2539C88.1191 40.246 88.1713 40.2081 88.2005 40.1445C88.2213 40.0778 88.2168 39.853 88.1876 39.4779L88.5542 39.5544C88.5814 40.0222 88.5647 40.3097 88.512 40.4161C88.4509 40.5194 88.3329 40.5807 88.15 40.6007Z" fill="white"/>
<path d="M90.0152 36.6042L90.3805 36.5339L90.5733 37.5355L90.2081 37.6058L90.0152 36.6042ZM89.4748 38.5576C89.3087 38.6262 89.1427 38.6949 88.9759 38.7595L88.7577 38.4512C89.9076 38.0343 90.7614 37.5604 91.3152 37.0302C91.1659 36.953 91.0088 36.8773 90.8438 36.8032L91.049 36.5152C91.5034 36.7169 91.8988 36.93 92.2267 37.152L92.0181 37.4651C91.8987 37.374 91.7676 37.2852 91.6207 37.1994C91.3172 37.5063 90.9402 37.7908 90.4864 38.0573L91.8769 37.7897L92.2875 39.9225L91.9222 39.9928L91.8935 39.8436L90.1613 40.177L90.1915 40.3341L89.8302 40.4037L89.4748 38.5576ZM90.0978 39.8471L91.8299 39.5136L91.7793 39.2505L90.0471 39.5839L90.0978 39.8471ZM89.9896 39.2854L91.7218 38.9519L91.6757 38.7123L89.9435 39.0458L89.9896 39.2854ZM89.8868 38.7512L91.619 38.4177L91.5713 38.1703L89.8391 38.5038L89.8868 38.7512ZM89.4417 36.9468L89.7494 37.1279C89.5729 37.4593 89.3346 37.7658 89.0337 38.0437L88.7639 37.8064C89.0467 37.5402 89.2731 37.2563 89.4417 36.9468Z" fill="white"/>
<path d="M93.1139 37.5704C93.0395 37.7396 92.9563 37.9071 92.8604 38.0739L92.6354 37.7162C92.9104 37.1696 93.0663 36.5806 93.097 35.9425L93.4884 36.0109C93.47 36.3266 93.4177 36.639 93.3351 36.9472L94.0316 39.5268L93.6686 39.6248L93.1139 37.5704ZM93.5669 36.317L94.3083 36.1168L94.2864 35.6214L94.655 35.5592C94.6647 35.7181 94.6685 35.8704 94.6752 36.0177L95.7874 35.7175L95.8833 36.0727L94.6784 36.398C94.6742 36.5359 94.6718 36.665 94.6683 36.7902L96.1396 36.393L96.2345 36.7444L94.6473 37.1729C94.6329 37.3343 94.6192 37.483 94.5995 37.625L96.1365 37.2101L96.222 37.5267C96.1343 37.8156 95.9654 38.1263 95.7088 38.4649C95.8939 38.5061 96.0773 38.556 96.254 38.6119L96.1309 38.9849C95.5743 38.7954 95.021 38.6796 94.4777 38.6316L94.5964 38.2888C94.8511 38.3112 95.1011 38.3472 95.3445 38.3893C95.5648 38.1309 95.731 37.8872 95.8382 37.6552L94.2163 38.0931C94.2521 37.8266 94.277 37.5505 94.2959 37.2678L93.6858 37.4326L93.5909 37.0811L94.313 36.8862C94.3155 36.7571 94.3179 36.628 94.3154 36.4961L93.6628 36.6723L93.5669 36.317Z" fill="white"/>
<path d="M97.9536 37.3567L98.0706 37.7013C97.7851 37.9926 97.4401 38.2703 97.0367 38.5256L96.8729 38.1799C97.3002 37.9207 97.663 37.6454 97.9536 37.3567ZM96.416 34.9936L96.807 35.0129C96.7783 35.5253 96.7212 35.9545 96.6346 36.2965C96.7582 36.2376 96.8806 36.1749 97.0017 36.1085C97.0249 35.9654 97.048 35.8097 97.0686 35.6464L97.4317 35.6583C97.3242 36.3369 97.2145 36.8473 97.0988 37.1907C97.3118 37.0466 97.5221 36.8822 97.7285 36.6938L97.8404 37.0234C97.4892 37.3327 97.1377 37.5788 96.7909 37.7642L96.583 37.463C96.6371 37.4109 96.6785 37.3588 96.7098 37.3017C96.7848 37.1368 96.8592 36.8708 96.933 36.5035C96.7691 36.593 96.5963 36.6812 96.4159 36.7721L96.2131 36.4734C96.2622 36.4314 96.2985 36.3641 96.3208 36.2805C96.3881 35.8817 96.4199 35.4527 96.416 34.9936ZM97.7714 36.4469L97.5838 36.1558C97.6115 36.1379 97.6342 36.1176 97.6467 36.1048C97.7321 35.9829 97.8065 35.7169 97.8687 35.3155L97.2817 35.5149L97.1646 35.1702L98.085 34.8577C97.9984 34.7519 97.9106 34.655 97.8215 34.567L98.1683 34.3816C98.2587 34.4861 98.353 34.6019 98.4486 34.7342L99.2781 34.4525L99.3951 34.7972L98.2437 35.1882C98.1924 35.5098 98.1343 35.7618 98.0722 35.9519C98.3687 35.8174 98.6626 35.6754 98.9502 35.527C98.8384 35.4467 98.7279 35.3702 98.6174 35.2936L98.8323 35.0306C99.1916 35.2676 99.4812 35.4861 99.6999 35.6822L99.4852 35.9705C99.4102 35.8989 99.3276 35.8298 99.2437 35.7569C98.7984 35.9883 98.3064 36.2188 97.7714 36.4469ZM98.0915 36.4692L98.44 36.3508C98.5844 36.8383 98.6434 37.2111 98.6208 37.468C98.5907 37.7401 98.4784 38.0064 98.28 38.2681L97.9563 38.0612C98.1221 37.8528 98.2183 37.6385 98.2449 37.4183C98.2702 37.2069 98.2179 36.8909 98.0915 36.4692ZM100.024 37.6081L99.782 37.6904C99.5131 37.7818 99.3394 37.7056 99.2583 37.467L98.8197 36.1754L99.1644 36.0584L99.5799 37.2817C99.6004 37.3423 99.636 37.3725 99.684 37.3646L99.8961 37.2926C99.9618 37.2619 99.9867 37.1985 99.9634 37.105C99.94 36.9989 99.8974 36.8486 99.8331 36.6592L100.181 36.6636C100.304 37.0272 100.349 37.2572 100.324 37.3585C100.297 37.4523 100.193 37.5338 100.024 37.6081Z" fill="white"/>
<path d="M101.392 33.8869L100.151 34.3922L100.014 34.0551L102.855 32.8981L102.993 33.2352L101.748 33.7421L102.665 35.9945L104.143 35.3927L104.282 35.7335L100.966 37.0835L100.828 36.7427L102.309 36.1393L101.392 33.8869Z" fill="white"/>
<path d="M103.368 32.7425L104.186 32.3598L104.039 32.0445L104.391 31.8802L104.538 32.1955L105.408 31.789L105.26 31.4738L105.612 31.3095L105.759 31.6248L106.578 31.242L106.729 31.5646L105.91 31.9473L106.044 32.2336L105.692 32.3978L105.558 32.1116L104.689 32.518L104.823 32.8043L104.471 32.9686L104.337 32.6823L103.518 33.065L103.368 32.7425ZM104.043 33.3276L106.449 32.2031L106.603 32.5329C105.861 33.5422 105.409 34.2568 105.251 34.6749C105.201 34.8131 105.182 34.9146 105.194 34.9883C105.22 35.0427 105.262 35.0581 105.327 35.0277L107.107 34.1962C107.204 34.1504 107.269 34.0895 107.297 34.0187C107.328 33.9515 107.273 33.721 107.133 33.3272L107.513 33.3086C107.67 33.7476 107.719 34.0334 107.659 34.1678C107.6 34.2969 107.475 34.4081 107.287 34.4962L105.493 35.3345C105.174 35.4835 104.966 35.444 104.861 35.2193C104.789 35.0671 104.824 34.83 104.958 34.5115C105.132 34.0902 105.493 33.5199 106.031 32.8005L104.197 33.6574L104.043 33.3276Z" fill="white"/>
<path d="M108.82 33.8177L108.515 33.9771L108.279 33.6987C108.379 33.6647 108.467 33.6273 108.552 33.5828C108.634 33.5402 108.652 33.4719 108.604 33.3797L108.206 32.6176C108.104 32.734 107.999 32.8432 107.893 32.9525L107.645 32.6761C107.782 32.5591 107.914 32.4315 108.037 32.2951L107.635 31.5259L107.234 31.7353L107.066 31.4127L107.466 31.2033L107.142 30.583L107.468 30.4125L107.792 31.0328L108.14 30.8511L108.308 31.1737L107.961 31.3553L108.293 31.9898C108.384 31.8701 108.467 31.7451 108.551 31.6202L108.723 31.9498C108.638 32.0713 108.55 32.1891 108.46 32.3089L108.975 33.2943C109.095 33.5247 109.043 33.701 108.82 33.8177ZM109.112 31.6565C109.401 32.3311 109.53 32.9407 109.499 33.4852L109.131 33.3934C109.163 32.8436 108.991 32.1937 108.616 31.4419L108.008 30.2792L109.89 29.295L110.055 29.6105L108.492 30.4279L108.935 31.2751C108.946 31.2963 108.951 31.3159 108.963 31.3372L110.561 30.5013L110.724 30.8132L110.097 31.1413C110.193 31.2988 110.304 31.4345 110.434 31.552C110.517 31.4002 110.581 31.2219 110.621 31.0119L110.948 31.1115C110.892 31.3487 110.801 31.5633 110.675 31.7462C110.921 31.9153 111.213 32.0335 111.549 32.0972L111.438 32.4534C110.715 32.2715 110.173 31.8824 109.817 31.2877L109.601 31.4007L110.209 32.5634C110.328 32.4467 110.44 32.3248 110.549 32.2048L110.768 32.4423C110.586 32.6639 110.351 32.8954 110.065 33.1439L109.827 32.9121C109.897 32.8213 109.904 32.7228 109.852 32.6235L109.296 31.5601L109.112 31.6565ZM108.805 30.6476L110.088 29.9767L110.248 30.2815L108.965 30.9525L108.805 30.6476Z" fill="white"/>
<path d="M111.114 30.497L113.039 29.3921C113.022 28.7839 112.938 28.1544 112.789 27.5018L113.185 27.4361C113.317 28.1166 113.381 28.7024 113.386 29.1931L114.278 28.6814L114.461 29.0006L111.297 30.8162L111.114 30.497ZM110.861 28.8756C111.206 29.0833 111.559 29.3283 111.923 29.6085L111.698 29.9403C111.335 29.6457 110.981 29.3973 110.636 29.1985L110.861 28.8756ZM111.578 28.1876C111.932 28.4182 112.293 28.686 112.665 28.9889L112.447 29.3168C112.071 29.0069 111.704 28.7376 111.351 28.516L111.578 28.1876ZM112.297 30.422L112.679 30.3965C112.672 30.9308 112.592 31.4336 112.436 31.9101L112.051 31.8731C112.207 31.4144 112.291 30.933 112.297 30.422ZM113.621 29.6347C114.185 29.8138 114.636 29.9886 114.982 30.1587L114.804 30.538C114.438 30.3422 113.984 30.155 113.442 29.9729L113.621 29.6347Z" fill="white"/>
<path d="M116.548 28.6079C116.453 29.0709 116.15 29.5689 115.641 30.0998L115.294 29.9336C115.824 29.3757 116.125 28.8976 116.193 28.4981L116.203 28.3841L114.883 29.2002L114.693 28.894L116.18 27.9748C116.136 27.7202 116.042 27.4628 115.9 27.2026L115.644 26.7875L115.957 26.594L116.213 27.0091C116.359 27.2672 116.462 27.5183 116.52 27.7645L117.589 27.104L117.778 27.4102L116.577 28.1527C116.577 28.1904 116.577 28.2282 116.58 28.2638C117.163 28.1573 117.73 28.1079 118.276 28.1089L118.271 28.4973C117.673 28.4723 117.1 28.5114 116.548 28.6079ZM114.78 27.9467C115.083 27.8961 115.378 27.8784 115.665 27.8938L115.656 28.2521C115.346 28.2226 115.049 28.2368 114.77 28.2872L114.78 27.9467ZM114.819 27.2643C115.12 27.2102 115.414 27.1926 115.698 27.2101L115.689 27.5683C115.381 27.5422 115.086 27.5509 114.807 27.6013L114.819 27.2643ZM116.601 25.5749L117.032 26.2724L116.719 26.4659L116.471 26.0644L114.253 27.4358L114.501 27.8372L114.188 28.0307L113.757 27.3333L115.033 26.5445C114.936 26.4724 114.844 26.4071 114.753 26.3506L115.049 26.0922C115.149 26.1622 115.252 26.2445 115.359 26.3426L116.601 25.5749Z" fill="white"/>
<path d="M117.213 25.4019L117.697 25.0824C117.543 24.973 117.393 24.8758 117.244 24.7963L117.531 24.5258C117.678 24.6253 117.836 24.7414 118.004 24.8798L118.398 24.6198L118.6 24.927L117.949 25.3566L118.207 25.7472L118.798 25.3573C119.371 26.2253 119.709 26.7739 119.817 26.9952C119.915 27.2175 119.837 27.4179 119.57 27.5942C119.543 27.6118 119.492 27.636 119.424 27.6711L119.167 27.4336C119.233 27.404 119.291 27.3754 119.338 27.3446C119.455 27.2675 119.487 27.1644 119.436 27.0355C119.378 26.911 119.13 26.5137 118.698 25.8449L118.398 26.0432C118.864 26.7943 119.1 27.42 119.104 27.9203L118.731 27.8698C118.718 27.4082 118.474 26.8124 118.001 26.089L117.649 25.5548L117.415 25.709L117.213 25.4019ZM119.006 24.4962C119.055 24.8093 119.068 25.0978 119.048 25.3651L118.678 25.2546C118.712 24.8776 118.652 24.4235 118.503 23.8937L118.844 23.7644C118.877 23.8866 118.905 24.0021 118.934 24.1176L120.086 23.3576L120.282 23.6547L119.006 24.4962ZM120.409 24.1024C120.83 24.7401 121.069 25.1384 121.13 25.2896C121.188 25.4429 121.111 25.5946 120.891 25.74L120.874 25.751L120.618 25.5367C120.675 25.4993 120.727 25.4696 120.77 25.441C120.807 25.4167 120.808 25.3679 120.773 25.3001C120.742 25.2389 120.615 25.0308 120.386 24.6836L120.191 24.9412L120.909 26.0296L120.616 26.2235L119.966 25.2385L119.768 25.4983L120.343 26.3697C120.44 26.5166 120.541 26.5604 120.641 26.4943L121.272 26.0779C121.342 26.0317 121.384 25.9797 121.396 25.9243C121.409 25.8578 121.359 25.7233 121.242 25.5175L121.574 25.4237C121.733 25.7306 121.795 25.934 121.761 26.0425C121.728 26.1367 121.645 26.2295 121.505 26.322L120.734 26.8309C120.507 26.9807 120.294 26.9053 120.1 26.6115L119.554 25.7835L119.372 26.0234L119.182 25.7363L119.364 25.4964L119.069 25.049L119.35 24.864L119.579 25.2112L119.774 24.9481L119.428 24.4239L119.722 24.23L120 24.6507L120.409 24.1024Z" fill="white"/>
<path d="M119.858 24.4361C120.108 24.2624 120.363 24.2161 120.631 24.2928C120.876 24.3654 121.088 24.5298 121.271 24.7923C121.445 25.0418 121.523 25.2943 121.51 25.5476C121.495 25.8208 121.363 26.0443 121.12 26.2135C120.91 26.3598 120.671 26.3803 120.396 26.2793L121.023 27.1787L120.675 27.421L119.04 25.0742L119.365 24.8479L119.507 25.0514C119.508 24.8017 119.628 24.5962 119.858 24.4361ZM120.002 24.755C119.851 24.8601 119.774 25.0015 119.777 25.1801C119.778 25.3355 119.84 25.5017 119.961 25.6757L119.982 25.7052C120.107 25.8858 120.253 26.0037 120.423 26.0513C120.572 26.0982 120.714 26.0776 120.845 25.9861C121.016 25.8672 121.102 25.7246 121.106 25.5558C121.105 25.4005 121.044 25.2286 120.913 25.0415C120.783 24.8544 120.646 24.7352 120.508 24.6759C120.339 24.6083 120.173 24.6361 120.002 24.755ZM121.294 22.6854L120.782 23.0421L120.599 22.7795L121.682 22.0251C121.617 21.9876 121.554 21.9533 121.496 21.9257L121.797 21.6377C121.867 21.6817 121.944 21.7301 122.023 21.7873L123.159 20.9963L123.342 21.2588L122.82 21.6223L122.862 21.8856L123.633 21.3483L123.821 21.6175L120.952 23.6156L120.765 23.3465L121.51 22.8275L121.294 22.6854ZM121.835 22.6012L122.537 22.1119L122.495 21.8487L121.619 22.4591L121.835 22.6012ZM121.389 23.5157L123.575 21.9931L124.289 23.0171L122.103 24.5398L121.389 23.5157ZM123.819 22.9934L123.705 22.8293L122.129 23.9267L122.243 24.0908L123.819 22.9934ZM121.974 23.7035L123.549 22.6061L123.437 22.4453L121.862 23.5427L121.974 23.7035ZM122.067 24.7547L122.413 24.6067C122.518 24.9186 122.568 25.2149 122.566 25.499L122.18 25.5191C122.188 25.2504 122.15 24.9993 122.067 24.7547ZM124.286 24.3643L123.485 24.9221C123.233 25.0982 123.028 25.0702 122.872 24.847L122.58 24.4268L122.895 24.2074L123.142 24.5618C123.199 24.6439 123.278 24.6523 123.38 24.5814L124.033 24.1264C124.092 24.0853 124.125 24.0424 124.132 24.0035C124.145 23.9511 124.108 23.8497 124.021 23.6962L124.382 23.5856C124.516 23.8336 124.569 24.0068 124.528 24.103C124.493 24.1858 124.414 24.2751 124.286 24.3643ZM123.284 23.7367C123.506 23.7766 123.685 23.8228 123.825 23.8766L123.691 24.2377C123.54 24.182 123.354 24.1314 123.134 24.0893L123.284 23.7367ZM124.356 23.0923C124.685 23.1799 124.953 23.271 125.158 23.3622L125.024 23.7234C124.799 23.617 124.53 23.5171 124.213 23.4259L124.356 23.0923Z" fill="white"/>
<path d="M126.076 18.7936L127.392 20.6011L127.082 20.8272L125.984 19.3203L124.633 20.3046L125.732 21.8146L125.422 22.0407L124.103 20.2299L126.076 18.7936ZM125.268 20.1239L125.572 19.9026L126.012 20.5072C126.133 20.6866 126.229 20.8591 126.305 21.0314L126.58 20.8313L127.136 21.5944C127.223 21.714 127.31 21.7449 127.394 21.6837L127.866 21.3399C127.905 21.3116 127.932 21.2672 127.943 21.2146C127.955 21.1563 127.882 21.0017 127.72 20.753L128.085 20.6357C128.278 20.9753 128.367 21.1925 128.354 21.2908C128.327 21.3896 128.261 21.4823 128.156 21.5688L127.519 22.0327C127.286 22.2022 127.069 22.1479 126.868 21.8731L126.365 21.1811C126.459 21.4392 126.503 21.6839 126.5 21.9239C126.484 22.3509 126.289 22.8098 125.919 23.307L125.565 23.1684C125.936 22.6712 126.123 22.2426 126.125 21.885C126.114 21.5168 125.974 21.134 125.709 20.7286L125.268 20.1239Z" fill="white"/>
<path d="M128.102 17.9215L129.777 20.1449L129.487 20.364L129.361 20.1979L128.857 20.5782L129.052 20.8369L128.761 21.056L127.016 18.7399L127.319 18.5112C127.247 18.2954 127.159 18.086 127.045 17.8814L127.38 17.6943C127.48 17.8941 127.555 18.0931 127.61 18.2922L128.102 17.9215ZM128.645 20.2971L129.15 19.9167L128.675 19.2874L128.171 19.6677L128.645 20.2971ZM127.966 19.3962L128.471 19.0158L128.028 18.428L127.523 18.8084L127.966 19.3962ZM129.255 18.2549C129.663 18.358 129.997 18.462 130.258 18.5758L130.146 18.9257C129.866 18.8063 129.524 18.6983 129.124 18.5936L129.255 18.2549ZM129.753 16.6826C130.583 17.7847 131.08 18.4772 131.241 18.7568C131.382 19.0109 131.315 19.2415 131.044 19.4461C130.98 19.4942 130.86 19.5745 130.693 19.6853L130.41 19.4627C130.556 19.3632 130.682 19.2781 130.784 19.2011C130.912 19.1048 130.935 18.9823 130.853 18.8337C130.752 18.6595 130.357 18.1156 129.677 17.2003L128.875 17.8045C128.93 18.0636 128.96 18.3163 128.959 18.5675L128.597 18.4652C128.577 17.9996 128.442 17.5151 128.186 17.0165L128.516 16.8285C128.618 17.0315 128.699 17.2313 128.766 17.4264L129.753 16.6826Z" fill="white"/>
<path d="M130.183 15.5655C130.528 15.5664 130.838 15.5942 131.111 15.6459L131.061 16.0187C130.812 15.9587 130.503 15.9252 130.13 15.9208L130.183 15.5655ZM134.197 16.9889C134.023 17.1237 133.831 17.2676 133.626 17.4212C133.418 17.5774 133.236 17.6883 133.079 17.7596C132.923 17.8197 132.753 17.8296 132.575 17.7956C132.489 17.7762 132.432 17.7803 132.394 17.8097C132.327 17.8612 132.324 18.0917 132.383 18.5012L132.003 18.4672C131.962 18.0886 131.98 17.8171 132.057 17.6559L131.363 16.7612L130.94 17.0896L130.724 16.8114L131.429 16.2649L132.355 17.4599C132.381 17.4603 132.409 17.4638 132.44 17.4706C132.579 17.4995 132.703 17.504 132.814 17.4838C132.943 17.4545 133.105 17.3751 133.296 17.2369C133.479 17.1003 133.693 16.9393 133.94 16.7482C134.094 16.6281 134.25 16.5024 134.406 16.3767C134.561 16.251 134.68 16.1491 134.76 16.0766L134.918 16.4301L134.197 16.9889ZM131.697 14.8933L131.087 15.3662L130.893 15.1165L132.629 13.7711L132.793 13.9829C132.732 14.2831 132.639 14.5678 132.519 14.8434C132.53 14.8448 132.539 14.843 132.55 14.8445L133.185 14.3519L134.273 15.7555C134.418 15.942 134.387 16.1177 134.182 16.277L133.938 16.4657L133.681 16.265L133.916 16.1037C133.985 16.0497 133.996 15.9856 133.942 15.916L133.817 15.7548L133.362 16.1077L133.764 16.6261L133.489 16.8393L133.087 16.3209L132.641 16.6664L133.048 17.1912L132.764 17.4118L131.44 15.7047L132.167 15.141C132.009 15.1523 131.836 15.1703 131.652 15.2012L131.697 14.8933ZM132.225 14.8432C132.306 14.6739 132.371 14.5025 132.421 14.3321L131.713 14.881C131.892 14.8638 132.062 14.8482 132.225 14.8432ZM132.281 16.2017L132.453 16.423L132.898 16.0775L132.727 15.8562L132.281 16.2017ZM133.002 15.643L133.173 15.8643L133.629 15.5114L133.457 15.2901L133.002 15.643ZM133.266 15.0435L133.094 14.8222L132.639 15.1751L132.811 15.3964L133.266 15.0435ZM132.536 15.6096L132.364 15.3883L131.918 15.7338L132.09 15.9551L132.536 15.6096Z" fill="white"/>
<path d="M135.867 11.5622L137.801 14.0105L137.512 14.2386L137.371 14.0597L136.822 14.4936L136.966 14.6756L136.677 14.9038L134.74 12.4524L135.867 11.5622ZM136.601 14.2142L137.15 13.7803L135.799 12.0697L135.25 12.5036L136.601 14.2142ZM133.909 13.7161C133.96 13.93 133.993 14.1389 134.009 14.3401L133.617 14.3796C133.585 13.9258 133.479 13.4948 133.296 13.0888L133.64 12.9185C133.703 13.0626 133.752 13.2022 133.799 13.3387L134.656 12.6618L134.882 12.9474L134.455 13.2846C134.602 13.4842 134.737 13.6737 134.849 13.8549L135.339 13.4681L135.564 13.7537L135.034 14.1728C135.076 14.2517 135.115 14.3332 135.152 14.4059C135.497 14.4492 135.863 14.5121 136.252 14.5919L136.288 15.0119C135.875 14.8895 135.541 14.8018 135.285 14.749C135.414 15.1827 135.412 15.6381 135.27 16.117L134.887 16.0322C135.023 15.5327 135.003 15.069 134.829 14.6357C134.794 14.5661 134.76 14.4909 134.723 14.4182L134.105 14.9067L133.879 14.6211L134.542 14.0979C134.429 13.9167 134.295 13.7272 134.147 13.5276L133.909 13.7161Z" fill="white"/>
<path d="M136.448 10.5618L138.261 11.5046L138.78 13.4809L138.44 13.5681L137.961 11.7442L136.288 10.874L136.448 10.5618ZM136.982 10.1349L138.795 11.0777L139.314 13.054L138.974 13.1412L138.495 11.3173L136.81 10.4571L136.982 10.1349Z" fill="white"/>
</svg>
