<svg width="56" height="15" viewBox="0 0 56 15" fill="none" xmlns="http://www.w3.org/2000/svg">
<path d="M0.836783 10.3828L1.19378 10.4614L0.749869 12.3008L1.82273 13.8516L1.5353 14.0529L0.372641 12.3726L0.836783 10.3828ZM1.50872 10.2549L1.85 10.3365L1.42181 12.173L2.49467 13.7237L2.20724 13.925L1.04458 12.2448L1.50872 10.2549ZM2.57509 10.1456C2.88362 10.2905 3.1521 10.4389 3.37811 10.5994L3.15708 10.9143C2.95764 10.765 2.69234 10.6119 2.35725 10.4558L2.57509 10.1456ZM2.68759 11.1218C2.97497 11.2625 3.22624 11.4061 3.43504 11.5618L3.21869 11.8798C3.03497 11.7275 2.78295 11.58 2.469 11.428L2.68759 11.1218ZM3.24073 12.124L3.60802 12.1926C3.53722 12.7191 3.44471 13.2172 3.32732 13.6915L2.91868 13.5982C3.05815 13.1116 3.16394 12.6191 3.24073 12.124ZM3.34692 10.1575L5.86964 9.67735L5.93844 10.0389L5.65159 10.0935L6.14968 12.7105C6.20278 12.9895 6.0961 13.1564 5.83282 13.2065L5.1766 13.3314L5.02996 12.9887C5.24514 12.9641 5.44704 12.9338 5.63958 12.8971C5.74175 12.8777 5.7848 12.8044 5.76236 12.6865L5.28222 10.1638L3.41573 10.519L3.34692 10.1575ZM3.67013 10.9999L4.959 10.7546L5.24767 12.2714L3.95881 12.5167L3.67013 10.9999ZM4.83756 11.9993L4.67677 11.1544L4.07949 11.2681L4.24029 12.1129L4.83756 11.9993ZM7.25715 9.20154L7.63437 9.12974L8.31718 12.7173L7.93996 12.7891L7.82179 12.1683C7.53754 12.3649 7.23383 12.5449 6.90673 12.7089L6.74606 12.3567C7.10047 12.2078 7.43561 12.0219 7.75074 11.795L7.52638 10.6161L6.5283 10.8061L6.46024 10.4485L7.45832 10.2586L7.25715 9.20154ZM9.90974 12.3776L9.30461 12.4928C9.02562 12.5459 8.85966 12.4227 8.80432 12.1319L8.21201 9.0198L8.5853 8.94876L8.82687 10.218C9.12665 10.0388 9.40248 9.81932 9.65437 9.55965L9.92808 9.82108C9.57215 10.1331 9.22857 10.3818 8.89492 10.5756L9.1664 12.0019C9.1851 12.1002 9.23805 12.143 9.32449 12.1266L9.78031 12.0398C9.85104 12.0264 9.90007 11.9845 9.92422 11.9188C9.93976 11.8507 9.91753 11.6269 9.85901 11.2553L10.2304 11.3027C10.2943 11.7669 10.3003 12.0549 10.2561 12.1651C10.2033 12.2729 10.0905 12.3432 9.90974 12.3776ZM11.6544 8.34427L12.0198 8.27472L12.2106 9.27673L11.8451 9.34628L11.6544 8.34427ZM11.1098 10.2965C10.9436 10.3648 10.7775 10.4331 10.6106 10.4974L10.393 10.1886C11.5438 9.77417 12.3986 9.30202 12.9535 8.77295C12.8043 8.69546 12.6474 8.61947 12.4825 8.54498L12.6884 8.25741C13.1423 8.46012 13.5373 8.67405 13.8647 8.89676L13.6554 9.2094C13.5363 9.11807 13.4053 9.02898 13.2586 8.94289C12.9545 9.24915 12.5769 9.53275 12.1225 9.79839L13.5136 9.53364L13.9197 11.6673L13.5542 11.7369L13.5258 11.5876L11.7929 11.9174L11.8228 12.0746L11.4613 12.1434L11.1098 10.2965ZM11.7301 11.5873L13.463 11.2575L13.4129 10.9942L11.68 11.324L11.7301 11.5873ZM11.6231 11.0254L13.356 10.6956L13.3104 10.4559L11.5775 10.7857L11.6231 11.0254ZM11.5214 10.491L13.2543 10.1612L13.2072 9.91362L11.4743 10.2434L11.5214 10.491ZM11.0801 8.68567L11.3875 8.8674C11.2103 9.19837 10.9713 9.50445 10.6698 9.78171L10.4006 9.54385C10.6839 9.27819 10.9109 8.99475 11.0801 8.68567ZM15.7529 8.22792L14.4366 8.47846L14.3685 8.12088L17.3824 7.54726L17.4505 7.90484L16.1302 8.15613L16.5849 10.5452L18.1527 10.2468L18.2215 10.6084L14.7047 11.2777L14.6358 10.9162L16.2076 10.617L15.7529 8.22792ZM19.1397 6.96036L19.513 6.88931L20.1008 9.97787L20.5723 9.88813L19.9845 6.79957L20.3578 6.72852L20.9456 9.81708L22.093 9.5987L22.1626 9.96414L18.6575 10.6312L18.5879 10.2658L19.7275 10.0489L19.1397 6.96036ZM21.2317 7.31955L21.5797 7.35103C21.559 8.05532 21.4787 8.68139 21.3394 9.23316L20.9829 9.17884C21.1162 8.68115 21.2013 8.05826 21.2317 7.31955ZM18.5346 7.82473C18.8352 8.31314 19.1265 8.88069 19.4123 9.52664L19.0869 9.67816C18.8358 9.08666 18.5493 8.52229 18.2358 7.98747L18.5346 7.82473ZM22.3867 6.37087C22.6741 6.51162 22.919 6.66453 23.1278 6.82024L22.9217 7.12819C22.7373 6.97193 22.4877 6.81584 22.1776 6.66311L22.3867 6.37087ZM22.0969 7.5865L22.9771 7.41897L23.2934 9.08114C23.3958 8.95579 23.503 8.81322 23.6191 8.6527L23.796 9.0262C23.5855 9.31058 23.3547 9.57437 23.103 9.81365L22.8972 9.50264C22.9496 9.43566 22.9715 9.3582 22.9558 9.27568L22.6836 7.84536L22.1649 7.94408L22.0969 7.5865ZM23.5887 7.78711L25.4945 7.42439L25.5595 7.76626C25.5121 8.13767 25.3804 8.4722 25.165 8.7738C25.4479 8.89097 25.7828 8.98196 26.1604 9.04039L26.0213 9.40075C25.5984 9.31836 25.2379 9.19967 24.9333 9.05406C24.6687 9.33244 24.3212 9.58181 23.8986 9.80067L23.6305 9.52595C24.0239 9.32486 24.3444 9.10505 24.5914 8.86259C24.2749 8.6541 24.0356 8.4024 23.8815 8.10599L23.6575 8.14862L23.5887 7.78711ZM24.2312 8.03943C24.3672 8.26193 24.5616 8.44888 24.819 8.60347C24.9946 8.37055 25.1185 8.12301 25.1861 7.8577L24.2312 8.03943ZM23.5751 6.21799L24.9661 5.95324L25.1232 6.77843C25.1396 6.86488 25.1957 6.90305 25.294 6.88436L25.6398 6.81854L25.7048 7.16041L25.2608 7.24492C24.9818 7.29802 24.8188 7.19059 24.7695 6.93125L24.6633 6.37326L24.011 6.49741L24.0334 6.61529C24.1112 7.02396 23.9635 7.38188 23.5936 7.68439L23.2914 7.44465C23.5931 7.23251 23.7224 6.99209 23.6715 6.72489L23.5751 6.21799ZM27.2542 6.57235L28.2837 6.37641L28.0646 5.22508L28.4497 5.15179L28.6688 6.30312L29.6433 6.11765L29.7136 6.48702L28.7391 6.67249L29.1422 8.79047L28.7571 8.86376L28.354 6.74578L27.3245 6.94172L27.2542 6.57235ZM26.3266 5.5925C26.6187 5.73643 26.8715 5.88784 27.0857 6.05066L26.8796 6.35862C26.6873 6.20385 26.4338 6.04851 26.1159 5.89727L26.3266 5.5925ZM26.0248 6.83076L26.9325 6.658L27.2511 8.33196C27.3574 8.20586 27.4647 8.06329 27.5775 7.90745L27.7483 8.26991C27.5417 8.55354 27.3109 8.81733 27.0592 9.05661L26.8542 8.74953C26.9105 8.68181 26.9332 8.60827 26.9182 8.52968L26.643 7.08364L26.0929 7.18834L26.0248 6.83076ZM31.3395 4.58956L31.7246 4.51627L31.854 5.19607L33.2529 4.92982L33.6141 6.82776L33.2408 6.8988L33.1982 6.67482L32.1726 6.87002L32.4231 8.18639L32.038 8.25968L31.7875 6.94331L30.7658 7.13776L30.8085 7.36174L30.4352 7.43279L30.0739 5.53485L31.4689 5.26936L31.3395 4.58956ZM30.6963 6.77232L31.7179 6.57787L31.5385 5.6348L30.5168 5.82925L30.6963 6.77232ZM32.103 6.50458L33.1286 6.30938L32.9491 5.36631L31.9235 5.56151L32.103 6.50458ZM36.6488 7.21926L35.7765 7.38529C35.47 7.44363 35.2876 7.31954 35.2307 7.0209L34.8074 4.79683L35.1807 4.72578L35.5891 6.87127C35.61 6.98129 35.6873 7.02359 35.8209 6.99816L36.5085 6.86729C36.5871 6.85233 36.6347 6.80256 36.6558 6.72117C36.6787 6.62725 36.6607 6.36192 36.5927 5.91883L36.9688 5.9694C37.0435 6.53337 37.0474 6.87466 36.9819 7.00114C36.922 7.11433 36.8099 7.1886 36.6488 7.21926ZM34.2881 5.29877L34.6599 5.30538C34.6869 6.02501 34.6489 6.65932 34.5489 7.20361L34.1885 7.06454C34.2848 6.50059 34.3153 5.91251 34.2881 5.29877ZM36.9085 4.69011C37.2367 5.17328 37.5472 5.69237 37.8338 6.25674L37.5211 6.47506C37.2098 5.86652 36.8923 5.33246 36.5702 4.88072L36.9085 4.69011ZM35.298 3.84431C35.7193 4.17537 36.0523 4.47031 36.2978 4.73305L36.0238 5.00507C35.766 4.72025 35.4354 4.41671 35.0281 4.09519L35.298 3.84431ZM40.8353 4.39879L40.9924 5.22397L39.0787 5.58819L39.1183 5.79645L41.2167 5.39708L41.4164 6.44625L41.0431 6.5173L41.0161 6.37584L39.2911 6.70416L39.3173 6.84169L38.944 6.91274L38.5484 4.83405L40.8353 4.39879ZM39.2283 6.37408L40.9533 6.04576L40.8995 5.76284L39.1744 6.09116L39.2283 6.37408ZM39.0219 5.28955L40.5701 4.99489L40.5267 4.76698L38.9785 5.06164L39.0219 5.28955ZM41.2841 3.8044L41.4269 4.55492L41.0615 4.62448L40.9785 4.18831L38.33 4.69237L38.413 5.12854L38.0476 5.1981L37.9047 4.44757L39.4254 4.15814C39.3791 4.08553 39.3302 4.02154 39.2829 3.96539L39.6025 3.84756L39.5275 3.81705C39.6634 3.54688 39.7491 3.26997 39.7761 2.98388L40.1486 2.99441C40.1378 3.0657 40.1301 3.13231 40.1185 3.19967L41.2109 2.99176L41.2729 3.3179L40.6324 3.43981C40.7118 3.51429 40.7793 3.59101 40.8375 3.66138L40.5306 3.84601C40.4438 3.73224 40.3452 3.6207 40.2356 3.51534L40.0351 3.55348C39.993 3.69587 39.9416 3.83189 39.88 3.95762L39.6682 3.87171C39.7131 3.93645 39.7555 4.00981 39.8027 4.08634L41.2841 3.8044ZM38.3455 3.87507C38.286 4.03298 38.2171 4.18453 38.1381 4.32579L37.7731 4.18353C37.9546 3.89653 38.0649 3.59866 38.1092 3.29705L38.4818 3.30758C38.4709 3.37887 38.4561 3.4509 38.4445 3.51826L39.4347 3.3298L39.4968 3.65594L38.9074 3.76812C38.9968 3.8529 39.0776 3.93524 39.142 4.01664L38.8248 4.21138C38.7311 4.08263 38.6303 3.95931 38.5184 3.84216L38.3455 3.87507ZM42.9834 2.52817L44.9717 2.14974L45.3292 4.02803L44.5237 4.18134L44.5985 4.57429L45.4551 4.41125L45.5209 4.75704L44.6643 4.92008L44.7421 5.32874L45.7362 5.13953L45.8043 5.49711L43.427 5.94958L43.3589 5.59199L44.3727 5.39904L44.2949 4.99038L43.4344 5.15416L43.3686 4.80837L44.2291 4.64459L44.1543 4.25164L43.3409 4.40645L42.9834 2.52817ZM44.9088 3.76601L44.8236 3.31805L44.3756 3.40331L44.4609 3.85126L44.9088 3.76601ZM44.0915 3.92156L44.0062 3.47361L43.5504 3.56036L43.6357 4.00832L44.0915 3.92156ZM43.4891 3.23814L43.9449 3.15139L43.8597 2.70343L43.4038 2.79018L43.4891 3.23814ZM44.229 2.63313L44.3143 3.08109L44.7622 2.99583L44.677 2.54787L44.229 2.63313ZM41.8738 4.07898L42.2628 4.00494L42.1028 3.16403L41.6548 3.24929L41.5875 2.89564L42.8567 2.65407L42.9241 3.00773L42.48 3.09224L42.6401 3.93314L43.0369 3.85761L43.105 4.21519L42.7081 4.29072L42.8577 5.07661C42.9823 5.00403 43.103 4.9322 43.2183 4.85326L43.2871 5.21477C42.9525 5.42503 42.5906 5.62014 42.1967 5.7969L42.0383 5.45652C42.1981 5.3976 42.3525 5.33157 42.5022 5.26236L42.3309 4.36252L41.9419 4.43656L41.8738 4.07898ZM46.1611 3.24265L46.5158 3.3095C46.4751 3.80179 46.3742 4.19153 46.2099 4.4834L45.8845 4.29287C46.0425 4.01035 46.1352 3.6629 46.1611 3.24265ZM46.709 1.69288L47.0862 1.62108L47.2253 2.35196L48.467 2.11564C48.5115 2.39219 48.5562 2.64836 48.5932 2.88562L48.8286 2.71052C49.0767 3.02977 49.3275 3.38513 49.578 3.78128L49.2676 4.01139C49.0528 3.65322 48.8323 3.32874 48.6152 3.0443C48.6549 3.33807 48.6885 3.6004 48.7147 3.82345C48.7562 4.25531 48.7462 4.56666 48.6887 4.75676C48.6298 4.939 48.5008 5.05311 48.3034 5.10697L47.8437 5.19448L47.6727 4.85241C47.8078 4.83484 47.9343 4.81484 48.0522 4.7924C48.2447 4.75576 48.3489 4.59747 48.3664 4.32542C48.3769 4.03839 48.3048 3.44542 48.1547 2.54969L47.2784 2.71647C47.358 3.34873 47.3452 3.8805 47.24 4.31178C47.1172 4.77898 46.8421 5.17337 46.4193 5.49814L46.1529 5.21088C46.5538 4.87807 46.8004 4.50538 46.8937 4.09674C46.9622 3.72945 46.9647 3.29329 46.9012 2.78826L45.9659 2.96626L45.8971 2.60475L46.8481 2.42376L46.709 1.69288ZM51.4629 0.784023L51.8401 0.712227L51.953 1.30558L52.9315 1.11936L53.0003 1.48087L52.0218 1.66709L52.1452 2.31545L53.2298 2.10904L53.2986 2.47055L52.0215 2.7136C51.8977 3.28278 51.7753 3.70919 51.6503 3.99358C52.0735 3.86417 52.4884 3.71192 52.8963 3.5447C52.7537 3.35195 52.6103 3.17567 52.4698 3.01511L52.8088 2.82842C53.1155 3.17724 53.3991 3.55488 53.6572 3.96993L53.3335 4.19441C53.257 4.07054 53.1812 3.95059 53.1077 3.84242C52.5439 4.06781 51.9245 4.27935 51.2503 4.48095L51.1018 4.17126C51.131 4.15349 51.1563 4.13647 51.1737 4.12094C51.3174 3.93478 51.4651 3.49135 51.6168 2.79064L50.7483 2.95592L50.6795 2.59441L51.768 2.38724L51.6446 1.73888L50.7448 1.91015L50.6759 1.54864L51.5758 1.37737L51.4629 0.784023ZM49.7635 1.14004C50.0523 1.28865 50.3012 1.4408 50.5146 1.59969L50.299 1.92168C50.1146 1.76542 49.8611 1.61008 49.5417 1.45098L49.7635 1.14004ZM49.8402 2.07823C50.1095 2.23058 50.3433 2.38966 50.5458 2.55472L50.3255 2.87353C50.1528 2.71502 49.9182 2.55201 49.6224 2.38843L49.8402 2.07823ZM50.4323 3.11379L50.7964 3.18701C50.7209 3.71035 50.6205 4.20992 50.4992 4.68498L50.0945 4.59099C50.2379 4.10359 50.3516 3.60963 50.4323 3.11379ZM53.692 0.323118L54.8547 2.00337L54.3905 3.99324L54.0492 3.91161L54.4774 2.07516L53.4046 0.524408L53.692 0.323118ZM54.3639 0.195231L55.5266 1.87548L55.0625 3.86535L54.7212 3.78372L55.1494 1.94728L54.0608 0.399513L54.3639 0.195231Z" fill="white"/>
</svg>
