<svg width="61" height="10" viewBox="0 0 61 10" fill="none" xmlns="http://www.w3.org/2000/svg">
<path d="M3.11175 1.60419L3.45563 1.72818L2.77836 3.49506L3.64241 5.17115L3.33143 5.33372L2.39502 3.51764L3.11175 1.60419ZM3.79456 1.56397L4.12248 1.6889L3.46117 3.45484L4.32522 5.13093L4.01424 5.2935L3.07784 3.47742L3.79456 1.56397Z" fill="white"/>
<path d="M5.00701 1.58854C5.29254 1.77468 5.53793 1.95879 5.73956 2.14907L5.47713 2.43037C5.30025 2.25488 5.05866 2.06657 4.74837 1.86564L5.00701 1.58854ZM4.98346 2.5709C5.24862 2.75003 5.47763 2.92695 5.66289 3.11003L5.40465 3.39512C5.24375 3.21884 5.01455 3.03794 4.72462 2.84401L4.98346 2.5709ZM5.39272 3.64001L5.74701 3.75867C5.60408 4.27034 5.4436 4.75085 5.26176 5.20437L4.86994 5.05553C5.07536 4.59283 5.24822 4.11972 5.39272 3.64001ZM5.76979 1.70704L8.33466 1.58031L8.35282 1.94786L8.06117 1.96227L8.19264 4.62303C8.20666 4.90668 8.07793 5.05722 7.81026 5.07044L7.14307 5.10341L7.04521 4.7438C7.26173 4.74912 7.46588 4.74704 7.66164 4.73737C7.76551 4.73224 7.81829 4.66555 7.81236 4.5457L7.68563 1.98083L5.78795 2.07459L5.76979 1.70704ZM5.97341 2.58606L7.28382 2.52132L7.36001 4.06344L6.04961 4.12818L5.97341 2.58606ZM6.99147 3.73723L6.94902 2.87827L6.34177 2.90828L6.38421 3.76723L6.99147 3.73723Z" fill="white"/>
<path d="M8.66403 1.6811L10.2989 1.6204C10.3104 1.49989 10.3218 1.37538 10.3292 1.25102L10.7189 1.28859C10.711 1.40095 10.7029 1.50533 10.6906 1.60585L12.2456 1.54812L12.2588 1.90387L10.6439 1.96383C10.6242 2.08064 10.6044 2.19346 10.5844 2.30227L12.0754 2.24691L12.157 4.4454C12.1677 4.7332 12.0373 4.88614 11.7735 4.89594L11.3937 4.91004L11.2801 4.546L11.6362 4.54079C11.7361 4.53708 11.786 4.47919 11.7821 4.37526L11.7168 2.61647L9.27852 2.70701L9.36401 5.00942L8.99227 5.02322L8.89357 2.36505L10.1967 2.31667C10.2165 2.20386 10.2363 2.09104 10.2522 1.97838L8.67724 2.03685L8.66403 1.6811ZM10.0966 2.74868C10.1816 2.88162 10.2594 3.03484 10.334 3.21219L10.6977 3.19869C10.7719 3.03982 10.8378 2.87327 10.8955 2.70301L11.244 2.81815C11.1888 2.94829 11.1293 3.07058 11.0615 3.18518L11.4532 3.17063L11.4655 3.50241L10.7101 3.53046L10.7225 3.86623L11.5859 3.83417L11.5983 4.16594L10.7348 4.198L10.7608 4.89751L10.3931 4.91117L10.3671 4.21165L9.50769 4.24356L9.49537 3.91179L10.3548 3.87988L10.3423 3.54411L9.59883 3.57172L9.58651 3.23995L9.97024 3.2257C9.90968 3.10386 9.84142 2.99032 9.76146 2.88521L10.0966 2.74868Z" fill="white"/>
<path d="M14.2752 1.15385L14.6471 1.14549L14.67 2.16523L14.2981 2.17359L14.2752 1.15385ZM13.4162 2.98963C13.2411 3.02957 13.0659 3.06952 12.8907 3.10547L12.727 2.76506C13.9304 2.54596 14.8513 2.22117 15.4858 1.7908C15.3515 1.68979 15.2092 1.58896 15.0589 1.48832L15.3093 1.23862C15.7236 1.51338 16.0779 1.78948 16.3641 2.06312L16.1062 2.33699C16.0037 2.22726 15.8892 2.11781 15.7588 2.00871C15.4083 2.26066 14.9891 2.47814 14.4972 2.66524L15.9128 2.63341L15.9617 4.80486L15.5898 4.81322L15.5864 4.66126L13.8228 4.70092L13.8264 4.86088L13.4585 4.86915L13.4162 2.98963ZM13.8152 4.365L15.5788 4.32535L15.5728 4.05741L13.8092 4.09707L13.8152 4.365ZM13.8024 3.79315L15.5659 3.75349L15.5605 3.50955L13.7969 3.54921L13.8024 3.79315ZM13.7902 3.24929L15.5537 3.20963L15.548 2.95769L13.7845 2.99735L13.7902 3.24929ZM13.6525 1.39591L13.9257 1.62583C13.6963 1.92306 13.4101 2.18556 13.0671 2.40933L12.8408 2.13035C13.164 1.91503 13.4346 1.67288 13.6525 1.39591Z" fill="white"/>
<path d="M17.0528 2.67914C16.9378 2.82396 16.8148 2.96483 16.6797 3.10178L16.5529 2.69867C16.9576 2.2398 17.2579 1.70967 17.4496 1.1003L17.8108 1.26576C17.7129 1.56646 17.583 1.85538 17.4249 2.1325L17.4438 4.80444L17.0678 4.80709L17.0528 2.67914ZM17.809 1.58178L18.577 1.57636L18.6816 1.09161L19.0538 1.12499C19.0229 1.28121 18.988 1.42946 18.957 1.57368L20.109 1.56556L20.1116 1.93355L18.8636 1.94235C18.8245 2.07463 18.7894 2.19888 18.7543 2.31913L20.2782 2.30838L20.2808 2.67237L18.6368 2.68397C18.5819 2.83636 18.5309 2.97672 18.4758 3.10911L20.0678 3.09788L20.0701 3.42588C19.9119 3.683 19.6697 3.94071 19.3356 4.20308C19.5042 4.28989 19.6688 4.38473 19.8255 4.48363L19.6119 4.81314C19.1216 4.48859 18.6158 4.23616 18.1025 4.05177L18.3043 3.75034C18.545 3.83665 18.7777 3.93501 19.0024 4.03742C19.281 3.84345 19.5037 3.64988 19.6663 3.45273L17.9863 3.46458C18.0886 3.21585 18.1827 2.95518 18.2728 2.68654L17.6408 2.69099L17.6383 2.327L18.3863 2.32173C18.4214 2.19748 18.4565 2.07322 18.4876 1.945L17.8116 1.94977L17.809 1.58178Z" fill="white"/>
<path d="M22.148 3.81281L22.1447 4.17679C21.779 4.35747 21.3617 4.50568 20.8967 4.61345L20.8561 4.23306C21.3451 4.12951 21.7784 3.98945 22.148 3.81281ZM21.4769 1.07458L21.8396 1.22189C21.6433 1.69612 21.4477 2.08236 21.2531 2.3766C21.3892 2.36184 21.5254 2.34308 21.6616 2.32032C21.7307 2.19294 21.804 2.0536 21.8774 1.90627L22.2162 2.03736C21.8907 2.64242 21.6186 3.08796 21.396 3.37394C21.6446 3.3082 21.8974 3.2225 22.1544 3.11284L22.1512 3.46082C21.7176 3.63688 21.3045 3.75313 20.916 3.81359L20.8192 3.46069C20.8875 3.42931 20.9438 3.39383 20.9922 3.35026C21.1174 3.2194 21.2754 2.99283 21.4664 2.67055C21.2821 2.70088 21.0899 2.72713 20.8896 2.75331L20.7968 2.40445C20.857 2.38099 20.9135 2.32951 20.9621 2.25795C21.1574 1.90371 21.329 1.50925 21.4769 1.07458ZM22.2764 2.89394L22.1955 2.55719C22.2275 2.54948 22.2556 2.53774 22.2717 2.52988C22.3925 2.44298 22.5506 2.21641 22.7418 1.85814L22.1219 1.85249L22.1252 1.4885L23.0971 1.49736C23.0503 1.36892 22.9994 1.24846 22.9444 1.13595L23.333 1.07549C23.3838 1.20395 23.4345 1.34442 23.4811 1.50085L24.3571 1.50883L24.3538 1.87281L23.1378 1.86174C22.9832 2.14835 22.8452 2.3671 22.7238 2.526C23.048 2.49695 23.3724 2.4599 23.6928 2.41482C23.6138 2.30209 23.5348 2.19337 23.4558 2.08465L23.7454 1.90728C24.0063 2.24967 24.2076 2.55151 24.3492 2.80881L24.0514 3.01011C24.0042 2.91767 23.9491 2.82517 23.894 2.72866C23.3973 2.80014 22.8568 2.85522 22.2764 2.89394ZM22.5712 3.02063L22.9392 3.02398C22.9146 3.53178 22.8472 3.90318 22.7411 4.13822C22.6228 4.38516 22.4289 4.5994 22.1552 4.78091L21.9179 4.47874C22.1432 4.33679 22.3048 4.16625 22.4026 3.96713C22.4964 3.77598 22.5512 3.46047 22.5712 3.02063ZM24.0197 4.73389L23.7637 4.73156C23.4797 4.72897 23.3409 4.5997 23.3432 4.34771L23.3556 2.98377L23.7196 2.98709L23.7078 4.27903C23.7073 4.34303 23.7309 4.38325 23.7788 4.39168L24.0028 4.39372C24.0749 4.38638 24.1193 4.33478 24.1282 4.23886C24.1412 4.13097 24.1506 3.97505 24.1524 3.77506L24.4794 3.89404C24.4759 4.27803 24.4418 4.50973 24.385 4.59721C24.3282 4.6767 24.2038 4.71957 24.0197 4.73389Z" fill="white"/>
<path d="M26.4265 1.80673L25.0869 1.7744L25.0957 1.41051L28.1628 1.48452L28.154 1.84841L26.8104 1.81599L26.7517 4.24728L28.3473 4.28578L28.3384 4.65367L24.7594 4.56732L24.7683 4.19942L26.3679 4.23802L26.4265 1.80673Z" fill="white"/>
<path d="M28.8203 1.55801L29.7236 1.59341L29.7372 1.24568L30.1249 1.26087L30.1113 1.60861L31.0705 1.6462L31.0842 1.29846L31.4719 1.31366L31.4582 1.66139L32.3615 1.69679L32.3476 2.05252L31.4443 2.01712L31.4319 2.33287L31.0442 2.31768L31.0566 2.00192L30.0973 1.96433L30.085 2.28009L29.6973 2.2649L29.7096 1.94914L28.8063 1.91374L28.8203 1.55801ZM29.152 2.38764L31.806 2.49164L31.7917 2.85536C30.6691 3.41183 29.9398 3.8396 29.6078 4.13883C29.4998 4.23868 29.4366 4.32027 29.4138 4.39143C29.4114 4.45138 29.4421 4.48461 29.5141 4.48743L31.4766 4.56433C31.5845 4.56856 31.6695 4.54387 31.7275 4.49411C31.7854 4.44834 31.8424 4.21839 31.8987 3.80428L32.2448 3.96195C32.1826 4.42387 32.0957 4.70068 31.98 4.79222C31.8685 4.87992 31.7068 4.92162 31.4989 4.91348L29.5204 4.83595C29.1687 4.82216 29.0017 4.69152 29.0114 4.44371C29.018 4.27584 29.1577 4.08116 29.4226 3.85937C29.7704 3.56476 30.3522 3.22328 31.1602 2.83062L29.1378 2.75136L29.152 2.38764Z" fill="white"/>
<path d="M33.0218 1.76723L33.8805 1.81478C33.8352 1.69209 33.7852 1.58116 33.7269 1.47777L34.1298 1.43599C34.1793 1.55491 34.2239 1.68958 34.2679 1.83623L35.0387 1.87892C35.1057 1.75443 35.1611 1.62129 35.2008 1.48327L35.6053 1.55775C35.5625 1.67957 35.5082 1.79274 35.4421 1.90125L36.2728 1.94725L36.2538 2.29073L34.82 2.21133L34.8032 2.51487L36.0253 2.58254L36.0072 2.91004L34.785 2.84237L34.768 3.1499L36.3336 3.23659L36.3141 3.58805L32.7995 3.39343L32.819 3.04197L34.3846 3.12866L34.4016 2.82114L33.1915 2.75413L33.2096 2.42663L34.4197 2.49364L34.4366 2.1901L33.0028 2.11071L33.0218 1.76723ZM34.3889 3.55756L34.7701 3.61873C34.7539 3.69395 34.7337 3.76895 34.7098 3.83973L36.2075 3.92266L36.1876 4.28211L34.8696 4.20913C35.1239 4.53569 35.6194 4.77546 36.3561 4.92842L36.1365 5.27681C35.2911 5.06174 34.7488 4.72724 34.5057 4.26911C34.4139 4.40824 34.3072 4.52652 34.1814 4.62772C33.905 4.84477 33.4355 5.00306 32.765 5.10214L32.6298 4.72208C33.2025 4.65364 33.6218 4.53264 33.884 4.35487C33.9674 4.29539 34.0349 4.23502 34.0948 4.16623L32.8527 4.09745L32.8726 3.738L34.3104 3.81762C34.3432 3.7313 34.368 3.64454 34.3889 3.55756Z" fill="white"/>
<path d="M36.9103 2.52674L38.4264 2.63567L38.4926 1.71405L38.8677 1.74099L38.8015 2.66262L40.3215 2.77184L40.2955 3.1349L39.1225 3.05062C39.3331 3.69136 39.7241 4.27689 40.2956 4.80721L40.0173 5.10804C39.4009 4.47824 38.9851 3.79068 38.7739 3.04563L38.6031 5.4235L38.2281 5.39656L38.3983 3.02667C38.0498 3.80368 37.5197 4.4273 36.8085 4.89353L36.6254 4.5395C37.2548 4.15161 37.7335 3.62857 38.0532 2.9738L36.8842 2.88981L36.9103 2.52674ZM39.5177 1.79171C39.7279 2.04743 39.8886 2.26751 39.9996 2.45194L39.6809 2.6456C39.5676 2.43694 39.4075 2.20889 39.2093 1.95402L39.5177 1.79171Z" fill="white"/>
<path d="M41.8951 1.95215L42.2393 2.14726C42.1219 2.43001 41.982 2.6947 41.8153 2.94497L41.574 5.67031L41.1915 5.63644L41.3806 3.50079C41.2516 3.64197 41.1154 3.77447 40.9716 3.90229L40.8837 3.48892C41.3151 3.06131 41.6536 2.54916 41.8951 1.95215ZM42.4038 2.19395L44.3323 2.3647L44.2151 3.68753L43.4342 3.61838L43.4031 3.96901L44.5188 4.06779L44.4863 4.43435L43.7094 4.36556C43.8848 4.7425 44.1398 5.08232 44.4784 5.38536L44.2021 5.6942C43.8659 5.31908 43.6005 4.86992 43.4026 4.3384L43.3707 4.33557L43.2402 5.80981L42.8656 5.77664L42.9962 4.30241L42.9603 4.29924C42.6609 4.82287 42.3124 5.22169 41.9147 5.49568L41.7299 5.13397C42.0937 4.92524 42.4001 4.63915 42.6575 4.27242L41.9204 4.20716L41.9528 3.84059L43.0286 3.93584L43.0597 3.58522L42.2867 3.51677L42.4038 2.19395ZM43.8727 3.29178L43.9256 2.69412L42.7462 2.58969L42.6933 3.18736L43.8727 3.29178Z" fill="white"/>
<path d="M45.0511 5.94221L44.6532 5.901L44.6076 5.52631C44.7257 5.5506 44.8442 5.57092 44.9556 5.58246C45.0472 5.59194 45.0998 5.54914 45.1097 5.45365L45.1971 4.61016C45.0405 4.64623 44.8844 4.67831 44.7287 4.70642L44.6723 4.31855C44.8595 4.29772 45.0475 4.26893 45.2362 4.23219L45.3224 3.40064L44.8529 3.35201L44.8904 2.98994L45.3599 3.03857L45.4345 2.31842L45.8124 2.35757L45.7379 3.07772L46.1397 3.11934L46.1022 3.48141L45.7004 3.43978L45.6278 4.14004C45.7772 4.09519 45.9271 4.04637 46.0773 3.99357L46.0382 4.37154C45.8883 4.42037 45.7385 4.46919 45.5895 4.51006L45.4778 5.58829C45.4506 5.85089 45.3057 5.96858 45.0511 5.94221ZM48.0329 3.39988L46.708 3.26265L46.6387 3.93107L47.9636 4.0683L48.0329 3.39988ZM46.5973 4.29272C46.508 4.99929 46.2774 5.5947 45.9024 6.0706L45.6423 5.78629C45.9653 5.38543 46.1614 4.8508 46.2355 4.17483L46.3711 2.86583L47.2185 2.9536C47.1785 2.79664 47.1372 2.65162 47.0867 2.51771L47.4952 2.49567C47.5321 2.64426 47.5673 2.80877 47.6005 2.99317L48.436 3.07971L48.2922 4.46828L46.5973 4.29272Z" fill="white"/>
<path d="M49.3932 4.16599L49.7115 4.33632C49.5249 4.79365 49.3115 5.13508 49.0671 5.36411L48.814 5.08465C49.0495 4.86263 49.2423 4.55906 49.3932 4.16599ZM50.3814 2.85238L50.7627 2.89721L50.6759 3.63613L51.9312 3.78371C51.8906 4.06086 51.8563 4.31861 51.8203 4.55604L52.0974 4.45974C52.2381 4.83876 52.3707 5.25307 52.4906 5.70617L52.1254 5.83239C52.0281 5.42625 51.9152 5.0505 51.7937 4.71401C51.7432 5.00612 51.6965 5.26644 51.6545 5.48704C51.5643 5.91142 51.4613 6.2054 51.3493 6.36945C51.2384 6.52556 51.0811 6.59568 50.8766 6.58775L50.4118 6.53311L50.3515 6.15548C50.4856 6.17931 50.6123 6.19823 50.7315 6.21224C50.9261 6.23512 51.0731 6.11546 51.1715 5.86121C51.2677 5.5906 51.377 5.00334 51.5029 4.10389L50.617 3.99974C50.503 4.62672 50.3311 5.13009 50.1012 5.50984C49.8437 5.91857 49.4628 6.21211 48.962 6.39489L48.7942 6.04088C49.2765 5.84384 49.6238 5.56246 49.8355 5.2007C50.0112 4.87096 50.1446 4.45569 50.2356 3.95491L49.2902 3.84375L49.3331 3.47827L50.2945 3.59129L50.3814 2.85238Z" fill="white"/>
<path d="M55.1912 3.44029L55.5721 3.48939L55.4949 4.08843L56.4827 4.21576L56.4356 4.58074L55.4478 4.45341L55.3634 5.10799L56.4584 5.24913L56.4113 5.61411L55.122 5.44792C54.8273 5.95037 54.5784 6.31755 54.3711 6.54895C54.8136 6.5576 55.2552 6.54193 55.6949 6.50988C55.6194 6.28235 55.5379 6.07019 55.4543 5.87389L55.8346 5.80192C56.0175 6.22881 56.1696 6.67592 56.2859 7.15068L55.9084 7.26335C55.8742 7.12181 55.8395 6.98425 55.8032 6.85859C55.1973 6.89744 54.5429 6.90584 53.8394 6.88776L53.7946 6.54723C53.8278 6.53942 53.8571 6.5311 53.8785 6.52175C54.073 6.38954 54.3513 6.01403 54.7134 5.39524L53.8366 5.28223L53.8837 4.91725L54.9826 5.0589L55.067 4.40432L54.1585 4.28721L54.2055 3.92223L55.114 4.03934L55.1912 3.44029ZM53.4654 3.25009C53.6937 3.48118 53.8829 3.70319 54.0363 3.92059L53.7313 4.15955C53.6046 3.95366 53.412 3.72718 53.1579 3.47664L53.4654 3.25009ZM53.2465 4.16563C53.455 4.39416 53.6278 4.61808 53.7689 4.83792L53.4604 5.0724C53.3456 4.86805 53.1733 4.64015 52.943 4.39269L53.2465 4.16563ZM53.4871 5.33397L53.8104 5.5168C53.5759 5.99071 53.3251 6.43429 53.0621 6.84806L52.7067 6.63286C52.9946 6.21422 53.2562 5.78011 53.4871 5.33397Z" fill="white"/>
<path d="M57.3307 3.68467L57.8965 5.64803L56.8218 7.38586L56.5244 7.19962L57.5161 5.59574L56.994 3.78375L57.3307 3.68467ZM58.0083 3.77783L58.5742 5.74119L57.4995 7.47902L57.2021 7.29278L58.1937 5.68889L57.6558 3.87472L58.0083 3.77783Z" fill="white"/>
</svg>
