<svg width="61" height="11" viewBox="0 0 61 11" fill="none" xmlns="http://www.w3.org/2000/svg">
<path d="M3.70385 2.13348L4.01102 2.33168L2.95349 3.90082L3.41818 5.72837L3.07859 5.81678L2.5749 3.83656L3.70385 2.13348ZM4.37821 2.24795L4.66959 2.44348L3.62784 4.0153L4.09253 5.84284L3.75295 5.93126L3.24925 3.95103L4.37821 2.24795Z" fill="white"/>
<path d="M6.23006 2.58425C6.35061 2.80465 6.46423 3.04422 6.56696 3.30238L6.30327 3.3881L7.12205 3.5113C7.29837 3.30727 7.46542 3.05734 7.6226 2.76548L7.97558 2.91972C7.84927 3.16769 7.70341 3.38439 7.54528 3.57499L8.29682 3.68808L8.24207 4.05198L6.95258 3.85794L6.93413 3.98056C6.89765 4.16924 6.85169 4.3403 6.79959 4.49831L8.37387 4.7352L8.31911 5.0991L6.9347 4.89078C7.0565 5.39856 7.49439 5.84873 8.24777 6.24524L7.9727 6.56791C7.19324 6.10274 6.73501 5.57266 6.58952 4.98042C6.49035 5.15561 6.37833 5.30865 6.25406 5.43557C5.93152 5.75109 5.45139 5.95795 4.81368 6.05615L4.6574 5.6969C5.2963 5.59078 5.74517 5.40349 6.00795 5.13561C6.10037 5.03221 6.1827 4.91516 6.25436 4.78841L4.90159 4.58485L4.95634 4.22095L6.41196 4.43998C6.4686 4.27861 6.51852 4.10814 6.55441 3.92343L6.57286 3.80081L5.27942 3.60618L5.33418 3.24227L6.18065 3.36965C6.08464 3.12059 5.97655 2.89803 5.86094 2.6986L6.23006 2.58425Z" fill="white"/>
<path d="M9.2715 3.15191L12.2749 3.53677L12.2277 3.90575L10.962 3.74357L10.838 4.71166L12.3813 4.90942L12.333 5.28634L10.7897 5.08857L10.6163 6.44151C10.5807 6.71924 10.4156 6.84326 10.126 6.80615L9.49514 6.72531L9.46256 6.35013C9.66338 6.38796 9.85677 6.42081 10.0393 6.44419C10.1662 6.46046 10.2373 6.40908 10.2516 6.29799L10.4127 5.04028L8.80192 4.83386L8.85022 4.45695L10.461 4.66336L10.5851 3.69527L9.22422 3.52089L9.2715 3.15191Z" fill="white"/>
<path d="M13.195 5.11345C13.0777 5.23815 12.9564 5.36244 12.832 5.47836L12.7458 5.06343C13.1663 4.6481 13.491 4.14657 13.728 3.55966L14.054 3.75386C13.9363 4.03936 13.7919 4.31007 13.6258 4.55844L13.3504 7.24837L12.9803 7.21048L13.195 5.11345ZM14.2545 3.75832L16.3198 3.96977L16.182 5.31474L15.3902 5.23366L15.3323 5.79871L16.2316 5.89078L16.1958 6.24095L15.2965 6.14888L15.2113 6.98053C15.337 7.00948 15.487 7.0369 15.6573 7.06238C15.8801 7.0852 16.0875 7.1024 16.2793 7.114L16.175 7.4652L15.793 7.42609C15.2204 7.36344 14.8325 7.26342 14.637 7.13082C14.4332 7.00138 14.272 6.80796 14.1612 6.55535C14.0184 6.85034 13.8562 7.09912 13.675 7.2977L13.4668 6.97481C13.7842 6.58511 14.0282 6.04717 14.199 5.361L14.5506 5.46133C14.4848 5.71193 14.4134 5.93783 14.3357 6.147C14.3767 6.29596 14.4397 6.42705 14.5238 6.54825C14.615 6.67822 14.7254 6.77798 14.851 6.84714L15.0201 5.19577L14.1168 5.10329L14.2545 3.75832ZM15.8518 4.92709L15.9182 4.27848L14.5892 4.1424L14.5228 4.79101L15.8518 4.92709Z" fill="white"/>
<path d="M17.2472 3.95537C17.4951 4.1823 17.7032 4.40627 17.8713 4.62729L17.58 4.87846C17.4392 4.66749 17.2354 4.43982 16.9653 4.18719L17.2472 3.95537ZM19.2643 7.69854C19.0489 7.68259 18.8139 7.66117 18.5628 7.63857C18.3078 7.61568 18.1022 7.57639 17.9416 7.52439C17.7856 7.4647 17.657 7.35892 17.5474 7.21443C17.5006 7.14278 17.455 7.10732 17.4072 7.10378C17.3274 7.09787 17.1705 7.26675 16.9405 7.6107L16.6804 7.33074C16.9038 7.02239 17.0984 6.83224 17.2639 6.76427L17.3474 5.63536L16.8089 5.59549L16.8349 5.24445L17.7285 5.31061L17.6165 6.82247C17.6313 6.83961 17.6501 6.85704 17.6682 6.88245C17.748 6.99665 17.8378 7.08352 17.9337 7.14277C18.0453 7.20718 18.2142 7.25578 18.4449 7.28089C18.668 7.30142 18.931 7.3249 19.2382 7.34765C19.4296 7.36182 19.6294 7.3726 19.8331 7.38368C20.0329 7.39446 20.189 7.398 20.2973 7.39799L20.1778 7.76617L19.2643 7.69854ZM18.1114 4.58089L18.5502 4.61338L18.5948 4.01103L18.9578 4.03791L18.9132 4.64026L19.4557 4.68043L19.5 4.08207L19.867 4.10924L19.8227 4.7076L20.2974 4.74275L20.2711 5.09778L19.7964 5.06263L19.7441 5.7687L20.3465 5.8133L20.3199 6.17231L19.7176 6.12771L19.6372 7.21274L19.2702 7.18557L19.3506 6.10054L18.7163 6.05358C18.5706 6.50405 18.3461 6.82836 18.0343 7.02989L17.8294 6.70988C18.0646 6.56686 18.2379 6.33903 18.3493 6.0264L17.8666 5.99067L17.8932 5.63165L18.4477 5.6727C18.4737 5.53826 18.492 5.39923 18.5029 5.25163L18.5239 4.96841L18.0851 4.93592L18.1114 4.58089ZM18.8869 4.99529L18.8724 5.19075C18.8589 5.37425 18.8345 5.5409 18.8067 5.69929L19.3771 5.74152L19.4294 5.03546L18.8869 4.99529Z" fill="white"/>
<path d="M20.9641 4.43109L22.4507 4.49582L22.4348 4.85947L20.9482 4.79475L20.9641 4.43109ZM20.7692 5.50363L22.5476 5.58106L22.5315 5.94871L21.6324 5.90956C21.4647 6.45078 21.3234 6.84501 21.2084 7.09624C21.4746 7.05178 21.7458 6.98351 22.0179 6.89526C21.9345 6.69545 21.8506 6.50762 21.7662 6.33178L22.0926 6.18985C22.2619 6.53353 22.4215 6.91284 22.5718 7.32376L22.2368 7.47734L22.144 7.21705C21.7181 7.34265 21.2615 7.43888 20.7702 7.50557L20.6939 7.14191C20.7342 7.13565 20.7587 7.12471 20.7752 7.11342C20.8899 6.96226 21.0517 6.55692 21.2647 5.89355L20.7532 5.87128L20.7692 5.50363ZM23.1483 4.28997L23.5239 4.30632L23.4902 5.08159L24.3534 5.11917C24.2966 6.42194 24.2417 7.22431 24.1925 7.52645C24.1353 7.82825 23.9249 7.97123 23.5612 7.9554C23.4973 7.95262 23.3857 7.93975 23.2262 7.9248L23.1529 7.58529C23.2963 7.60354 23.4198 7.61693 23.5237 7.62145C23.6996 7.62911 23.8036 7.53755 23.844 7.34712C23.8761 7.16034 23.9154 6.53346 23.9697 5.47082L23.4742 5.44924L23.4726 5.48521C23.4105 6.63559 23.0982 7.46279 22.5316 7.97063L22.2588 7.70651C22.7629 7.25601 23.0435 6.51152 23.097 5.46885L23.0985 5.43289L22.591 5.41079L22.607 5.04314L23.1145 5.06523L23.1483 4.28997Z" fill="white"/>
<path d="M24.9425 4.37738C25.2203 4.56476 25.4541 4.7476 25.6438 4.93391L25.3767 5.1947C25.2108 5.01667 24.9811 4.82188 24.6876 4.61431L24.9425 4.37738ZM24.8506 5.36034C25.1124 5.54352 25.3302 5.72617 25.508 5.90834L25.2409 6.16912C25.091 5.9953 24.8732 5.80465 24.5957 5.59727L24.8506 5.36034ZM25.1969 6.49662L25.5313 6.62867C25.3615 7.11065 25.172 7.56439 24.9588 7.98584L24.6128 7.82164C24.838 7.39234 25.0314 6.95065 25.1969 6.49662ZM25.9297 4.44933L27.8856 4.47301L27.8719 5.60093L25.9161 5.57725L25.9297 4.44933ZM27.5073 5.32049L27.5092 5.1605L26.2933 5.14579L26.2914 5.30577L27.5073 5.32049ZM26.2965 4.88581L27.5124 4.90052L27.5143 4.74453L26.2984 4.72982L26.2965 4.88581ZM25.6703 5.72229L28.1021 5.75172L28.0919 6.59966L25.66 6.57023L25.6703 5.72229ZM27.7513 6.31552L27.7548 6.02354L27.3748 6.01894L27.3713 6.31092L27.7513 6.31552ZM27.0513 6.30705L27.0549 6.01507L26.7109 6.0109L26.7073 6.30288L27.0513 6.30705ZM26.3874 6.29901L26.3909 6.00703L26.0069 6.00238L26.0034 6.29436L26.3874 6.29901ZM25.8982 7.05714L25.6822 7.05453L25.686 6.73455L27.9699 6.7622L27.9665 7.04218C27.7882 7.23203 27.5742 7.39345 27.3285 7.53449C27.6035 7.61783 27.9147 7.6856 28.2621 7.73781L28.0463 8.05122C27.6153 7.96599 27.2406 7.85745 26.9221 7.72559C26.5523 7.87312 26.1311 7.97603 25.6502 8.04222L25.4902 7.70825C25.8588 7.66871 26.1916 7.60474 26.4926 7.51637C26.2543 7.38148 26.0561 7.22707 25.8982 7.05714ZM26.8824 7.37708C27.0834 7.29151 27.2647 7.18969 27.426 7.07564L26.3141 7.06218C26.4727 7.18011 26.6594 7.28637 26.8824 7.37708Z" fill="white"/>
<path d="M30.6014 4.29879C30.6593 4.42593 30.7135 4.56913 30.7719 4.72827L32.1597 4.70741L32.1652 5.06737L31.4932 5.07747C31.4559 5.25805 31.4026 5.43487 31.3331 5.60394L32.257 5.59005L32.2626 5.958L29.4229 6.0007L29.431 6.54064C29.4244 7.16481 29.292 7.67086 29.0257 8.0549L28.7299 7.80332C28.9413 7.49611 29.047 7.07847 29.047 6.54641L29.0334 5.63851L29.8413 5.62637L29.6934 5.10453L28.9815 5.11524L28.9761 4.75528L30.3839 4.73411C30.33 4.6029 30.2681 4.47982 30.2024 4.3688L30.6014 4.29879ZM30.2173 5.62071L30.9692 5.60941C31.0386 5.44035 31.092 5.26352 31.1293 5.08294L30.0654 5.09894L30.2173 5.62071Z" fill="white"/>
<path d="M33.9498 4.34239L34.3298 4.34038L34.3463 7.48434L34.8263 7.48181L34.8098 4.33785L35.1898 4.33585L35.2063 7.4798L36.3743 7.47364L36.3763 7.84564L32.8083 7.86446L32.8064 7.49246L33.9664 7.48634L33.9498 4.34239ZM35.9417 5.07589L36.2782 5.17012C36.1298 5.85891 35.937 6.45994 35.6997 6.97719L35.3591 6.85899C35.5806 6.39381 35.7775 5.79677 35.9417 5.07589ZM33.1977 5.08237C33.4045 5.61728 33.5877 6.22832 33.7513 6.91547L33.4038 7.0053C33.2645 6.37803 33.0853 5.77097 32.8742 5.18807L33.1977 5.08237Z" fill="white"/>
<path d="M36.9338 5.58203L37.2516 4.41452L37.6315 4.4791L37.4224 5.21878L38.0144 5.2197C38.0908 4.92381 38.1513 4.61191 38.1998 4.28398L38.5877 4.33258C38.5392 4.64851 38.4788 4.94441 38.4104 5.22031L40.2424 5.22314L40.2418 5.58714L38.3138 5.58416C38.2736 5.7161 38.2294 5.84003 38.1892 5.95997L39.7892 5.96244L39.7887 6.28244C39.6842 6.61028 39.4878 6.90598 39.1914 7.16952C39.4951 7.33799 39.8629 7.49456 40.2906 7.63922L40.0941 7.99892C39.6103 7.82217 39.2026 7.62554 38.875 7.41703C38.5586 7.63654 38.1703 7.83594 37.71 8.01523L37.5106 7.65492C37.9108 7.51154 38.2551 7.35207 38.5393 7.18051C38.2797 6.97211 38.084 6.74781 37.9564 6.51161C37.6675 7.10316 37.3027 7.5746 36.8662 7.92593L36.6707 7.57362C37.2235 7.08648 37.6365 6.42311 37.9098 5.58354L36.9338 5.58203ZM38.2327 6.30404C38.3643 6.54024 38.572 6.76056 38.8557 6.961C39.108 6.75739 39.2923 6.53767 39.4047 6.30585L38.2327 6.30404ZM39.2598 4.28962C39.5355 4.49805 39.7672 4.71041 39.9548 4.9227L39.6824 5.19428C39.5227 4.98603 39.2991 4.76968 39.0034 4.54123L39.2598 4.28962Z" fill="white"/>
<path d="M41.6406 5.80194L42.1926 5.80454L42.1941 5.48454L41.5261 5.48139L41.5247 5.78539C41.5236 6.02539 41.5065 6.25731 41.4815 6.47319L42.1894 6.47653L42.191 6.14054L41.639 6.13793L41.6406 5.80194ZM41.4318 6.81696C41.3538 7.2526 41.2279 7.64801 41.0542 7.99919L40.7476 7.72174C41.0019 7.21894 41.133 6.57555 41.1407 5.78358L41.147 4.43959L44.207 4.45403L44.2021 5.49402L43.6461 5.49139L43.6446 5.81139L44.2446 5.81422L44.243 6.15022L43.643 6.14739L43.6414 6.48338L44.3774 6.48686L44.3758 6.83085L43.9758 6.82896L44.2067 7.05806C44.082 7.20947 43.9454 7.33283 43.801 7.42815C44.0044 7.54511 44.236 7.6302 44.4998 7.68345L44.3181 8.04259C43.599 7.8512 43.0889 7.44479 42.7838 6.82334L42.2878 6.821L42.2842 7.58099C42.5245 7.52213 42.7368 7.45513 42.9172 7.37998L42.9875 7.72831C42.663 7.83878 42.2786 7.93297 41.8342 8.01087L41.7318 7.67839C41.852 7.63095 41.9124 7.54724 41.913 7.41924L41.9158 6.81925L41.4318 6.81696ZM43.1678 6.82515C43.2631 6.9736 43.3745 7.10213 43.502 7.21473C43.6544 7.12345 43.795 6.99611 43.9238 6.82872L43.1678 6.82515ZM43.2781 5.48966L42.5581 5.48626L42.5566 5.80626L43.2766 5.80965L43.2781 5.48966ZM42.5534 6.47825L43.2734 6.48165L43.275 6.14565L42.555 6.14225L42.5534 6.47825ZM43.8214 4.80021L41.5294 4.7894L41.5277 5.1414L43.8197 5.15221L43.8214 4.80021Z" fill="white"/>
<path d="M46.2717 4.99144L46.262 7.77543L45.898 7.77416L45.8988 7.56616L45.2668 7.56397L45.2656 7.88797L44.9016 7.8867L44.9117 4.98672L45.2917 4.98804C45.3645 4.77229 45.4212 4.55249 45.454 4.3206L45.8338 4.37392C45.7931 4.59378 45.7324 4.79757 45.6557 4.9893L46.2717 4.99144ZM45.268 7.21197L45.9 7.21417L45.9027 6.42617L45.2707 6.42398L45.268 7.21197ZM45.2719 6.08398L45.9039 6.08617L45.9065 5.35018L45.2745 5.34798L45.2719 6.08398ZM46.9884 5.95394C47.2512 6.28286 47.4542 6.56756 47.5934 6.81605L47.2926 7.027C47.1416 6.76248 46.9346 6.46976 46.6797 6.14487L46.9884 5.95394ZM48.3357 5.00262C48.3309 6.38261 48.3079 7.23453 48.2668 7.55439C48.2258 7.84225 48.0333 7.98558 47.6933 7.9844C47.6133 7.98412 47.4693 7.97562 47.2694 7.96293L47.1786 7.61461C47.3546 7.62322 47.5065 7.63175 47.6345 7.6322C47.7945 7.63275 47.8868 7.54907 47.9114 7.38116C47.9361 7.18124 47.9504 6.50929 47.9624 5.36932L46.9584 5.36583C46.8456 5.60544 46.7168 5.825 46.5641 6.02447L46.3372 5.72368C46.6025 5.3406 46.7881 4.87324 46.886 4.32157L47.2619 4.37088C47.2211 4.59474 47.1644 4.80254 47.0997 4.99832L48.3357 5.00262Z" fill="white"/>
<path d="M49.622 4.87867L48.998 4.88009L48.9973 4.56009L50.3173 4.55708C50.2852 4.48916 50.253 4.42523 50.2209 4.3693L50.6327 4.30436C50.6649 4.38029 50.7011 4.46421 50.7333 4.55613L52.1173 4.55298L52.118 4.87298L51.482 4.87443L51.3666 5.11469L52.3066 5.11255L52.3073 5.44055L48.8113 5.44851L48.8106 5.12052L49.7186 5.11845L49.622 4.87867ZM50.1146 5.11755L50.9706 5.1156L51.086 4.87533L50.018 4.87776L50.1146 5.11755ZM49.2277 5.61557L51.8917 5.6095L51.8946 6.8575L49.2306 6.86356L49.2277 5.61557ZM51.5219 6.57034L51.5214 6.37034L49.6015 6.37472L49.6019 6.57472L51.5219 6.57034ZM49.6008 6.10272L51.5208 6.09834L51.5204 5.90235L49.6004 5.90672L49.6008 6.10272ZM49.0789 7.01991L49.4471 7.09507C49.3558 7.41128 49.2284 7.68357 49.065 7.91594L48.7365 7.71269C48.896 7.49633 49.0075 7.26807 49.0789 7.01991ZM51.1251 7.96325L50.1491 7.96547C49.8411 7.96618 49.6888 7.82652 49.6881 7.55452L49.687 7.04252L50.071 7.04165L50.072 7.47365C50.0722 7.57365 50.1323 7.62551 50.2563 7.62523L51.0523 7.62342C51.1243 7.62325 51.1763 7.60713 51.2042 7.57907C51.2441 7.54298 51.2719 7.43892 51.2875 7.26288L51.6477 7.37806C51.6164 7.65813 51.5608 7.83026 51.4729 7.88646C51.397 7.93463 51.2811 7.9629 51.1251 7.96325ZM50.6586 6.87631C50.819 7.03595 50.9393 7.17567 51.0236 7.29948L50.7081 7.5202C50.6158 7.38841 50.4914 7.24069 50.3351 7.08105L50.6586 6.87631ZM51.9068 6.95747C52.1274 7.21697 52.2959 7.44458 52.4123 7.63632L52.0968 7.85704C51.9723 7.64132 51.8078 7.40569 51.5992 7.15017L51.9068 6.95747Z" fill="white"/>
<path d="M55.72 4.44284L55.7476 6.67867L55.3636 6.68341L55.3406 4.81955L53.6687 4.84019L53.6918 6.70805L53.3078 6.71279L53.2801 4.47296L55.72 4.44284ZM54.2915 5.06052L54.6674 5.05588L54.6767 5.80382C54.6713 6.0199 54.6498 6.21618 54.612 6.40066L54.952 6.39647L54.9637 7.34039C54.9655 7.48838 55.0184 7.56374 55.1224 7.56245L55.7064 7.55524C55.7544 7.55465 55.8021 7.53406 55.8417 7.49757C55.8852 7.45703 55.9151 7.28865 55.9274 6.99247L56.2929 7.10797C56.2537 7.49648 56.2005 7.72516 56.1334 7.79799C56.0542 7.86297 55.9467 7.9003 55.8108 7.90998L55.0228 7.91971C54.7348 7.92326 54.5887 7.75305 54.5845 7.41308L54.574 6.55715C54.5012 6.82206 54.396 7.04738 54.2544 7.24114C53.9946 7.58038 53.5697 7.84164 52.9801 8.03293L52.7721 7.71548C53.3618 7.52418 53.7629 7.28321 53.9713 6.99262C54.1755 6.68607 54.2827 6.29272 54.3007 5.80846L54.2915 5.06052Z" fill="white"/>
<path d="M57.0045 4.24586L57.8806 6.09179L57.1013 7.98061L56.7777 7.84495L57.4967 6.10174L56.6883 4.39811L57.0045 4.24586ZM57.6883 4.22815L58.5644 6.07407L57.785 7.96289L57.4614 7.82723L58.1805 6.08402L57.3561 4.3808L57.6883 4.22815Z" fill="white"/>
</svg>
