<svg width="99" height="32" viewBox="0 0 99 32" fill="none" xmlns="http://www.w3.org/2000/svg">
<path d="M4.47751 5.23023L4.59494 5.47798L3.30064 6.06009L2.87443 7.40862L2.62304 7.33074L3.08474 5.86948L4.47751 5.23023ZM4.86208 5.56975L4.97052 5.80956L3.68521 6.39962L3.259 7.74814L3.00761 7.67026L3.46931 6.20901L4.86208 5.56975Z" fill="white"/>
<path d="M5.44045 6.15654C5.50267 6.40449 5.54383 6.63086 5.55778 6.83832L5.27001 6.85932C5.26215 6.67261 5.22521 6.44587 5.15691 6.17716L5.44045 6.15654ZM4.92678 6.68501C4.98136 6.91872 5.01718 7.13278 5.02579 7.32794L4.73839 7.35316C4.73972 7.17417 4.70583 6.9578 4.64517 6.70333L4.92678 6.68501ZM4.60701 7.48181L4.74145 7.72768C4.40201 7.93634 4.06879 8.1189 3.73758 8.27574L3.59788 7.99413C3.94674 7.84427 4.28299 7.67208 4.60701 7.48181ZM5.79972 6.61053L7.27544 7.84815L7.09809 8.05963L6.93029 7.9189L5.6464 9.4498C5.50953 9.613 5.36198 9.63021 5.20797 9.50105L4.8241 9.17911L4.95355 8.93138C5.06997 9.04468 5.18334 9.14759 5.29597 9.24205C5.35574 9.29217 5.41876 9.28238 5.4766 9.21342L6.71422 7.73769L5.62236 6.82201L5.79972 6.61053ZM5.4637 7.19794L6.21765 7.83025L5.47354 8.71752L4.71958 8.08522L5.4637 7.19794ZM5.43705 8.3502L5.85151 7.85599L5.50212 7.56297L5.08765 8.05718L5.43705 8.3502Z" fill="white"/>
<path d="M7.32258 7.99941L8.27883 8.76825C8.34457 8.70563 8.4122 8.64067 8.47749 8.57383L8.67984 8.78656C8.62019 8.84639 8.5643 8.90154 8.50796 8.95247L9.41745 9.68371L9.25015 9.89179L8.30558 9.13236C8.23704 9.18888 8.17038 9.24307 8.1056 9.29491L8.97768 9.99608L7.94379 11.282C7.80844 11.4503 7.6594 11.4729 7.50509 11.3489L7.28298 11.1703L7.39747 10.9082L7.60179 11.0802C7.66024 11.1272 7.71695 11.1189 7.76583 11.0581L8.59294 10.0293L7.16675 8.88267L6.08398 10.2294L5.86655 10.0545L7.11661 8.49976L7.87881 9.11257C7.94547 9.05839 8.01213 9.0042 8.07646 8.94814L7.15527 8.2075L7.32258 7.99941ZM7.60987 9.30823C7.59271 9.42532 7.56149 9.55034 7.51664 9.6875L7.7294 9.85857C7.84947 9.80498 7.96863 9.74296 8.08499 9.67484L8.22591 9.91132C8.13068 9.95794 8.03688 9.998 7.94216 10.0296L8.17129 10.2138L8.01527 10.4079L7.57338 10.0526L7.41548 10.249L7.92049 10.6551L7.76447 10.8491L7.25945 10.4431L6.93049 10.8522L6.71539 10.6793L7.04435 10.2701L6.54168 9.86597L6.6977 9.67192L7.20038 10.0761L7.35828 9.87968L6.92341 9.53004L7.07943 9.33598L7.30388 9.51644C7.32942 9.41765 7.34653 9.31977 7.35286 9.22092L7.60987 9.30823Z" fill="white"/>
<path d="M10.6569 10.3186L10.8778 10.489L10.4105 11.0947L10.1896 10.9243L10.6569 10.3186ZM9.29046 10.9846C9.16945 10.9254 9.04845 10.8661 8.92928 10.8045L8.99424 10.5288C9.79953 10.9682 10.4899 11.2128 11.0629 11.2608C11.0321 11.1386 10.9966 11.0127 10.9564 10.8831L11.2202 10.8555C11.3324 11.2111 11.4089 11.5391 11.4469 11.8337L11.1674 11.8719C11.1593 11.7596 11.1441 11.6417 11.1194 11.5166C10.7962 11.4984 10.4491 11.4277 10.074 11.3049L10.9148 11.9536L9.91976 13.2434L9.69886 13.073L9.7685 12.9827L8.721 12.1746L8.6477 12.2696L8.42918 12.101L9.29046 10.9846ZM8.87494 11.9751L9.92243 12.7832L10.0452 12.6241L8.99771 11.8159L8.87494 11.9751ZM9.13698 11.6354L10.1845 12.4435L10.2963 12.2987L9.24877 11.4905L9.13698 11.6354ZM9.38621 11.3124L10.4337 12.1205L10.5491 11.9709L9.50165 11.1627L9.38621 11.3124ZM10.1795 10.1663L10.2305 10.4292C9.95659 10.4945 9.66592 10.5127 9.36032 10.4815L9.35978 10.2121C9.64985 10.2389 9.92186 10.2252 10.1795 10.1663Z" fill="white"/>
<path d="M13.2765 12.3152C13.1196 12.5275 12.9804 12.7007 12.8602 12.8431C12.5258 13.5883 12.5112 14.3348 12.8117 15.0791L12.5117 15.167C12.2767 14.5159 12.2601 13.862 12.4583 13.2101C11.9282 13.5943 11.2886 13.7632 10.5395 13.7168L10.5511 13.4084C11.4949 13.4941 12.2315 13.1991 12.7625 12.521C12.882 12.3593 12.9771 12.2357 13.0449 12.144L13.2765 12.3152Z" fill="white"/>
<path d="M14.103 14.9726L13.6914 15.556C13.9218 15.6561 14.1626 15.7416 14.4121 15.8147L14.3103 16.0734C14.0214 15.9834 13.6705 15.8459 13.2641 15.6621L13.3585 15.3982C13.415 15.4014 13.463 15.3802 13.4976 15.3311L14.7739 13.522L16.5634 14.7845L16.0204 15.5542L15.3536 15.0838C15.289 15.1962 15.2363 15.3021 15.1887 15.4008L15.9683 15.9507L15.8092 16.1762L15.0811 15.6626C15.063 15.7196 15.0466 15.7741 15.036 15.8254C14.9892 16.053 14.9795 16.2334 15.005 16.3689C15.0316 16.4978 15.0792 16.5865 15.1461 16.6373C15.1682 16.6529 15.2033 16.6447 15.2499 16.6151C15.2982 16.5831 15.3838 16.493 15.5092 16.3464L15.638 16.6062C15.4567 16.7904 15.3224 16.8975 15.2374 16.9294C15.155 16.963 15.081 16.9586 15.0205 16.9195C14.9045 16.834 14.8242 16.6929 14.777 16.4944C14.7291 16.2917 14.7329 16.0521 14.786 15.7738C14.8033 15.6869 14.829 15.5985 14.8605 15.507L14.103 14.9726ZM15.1232 14.9213L14.4662 14.4578L14.2621 14.747L14.9657 15.2434C15.0118 15.1364 15.0645 15.0304 15.1232 14.9213ZM16.178 14.8467L14.8519 13.9111L14.6219 14.2372L15.948 15.1728L16.178 14.8467Z" fill="white"/>
<path d="M16.8665 15.1827L17.9369 15.9026L17.7812 16.1341L17.4203 15.8914L17.0988 16.3693L17.3602 16.5451L17.2597 16.6945C17.6208 16.5071 17.9697 16.2248 18.3108 15.8467L18.5239 16.0298C18.4202 16.1409 18.315 16.2437 18.2106 16.3397L18.9424 16.832L18.7867 17.0635L18.6224 16.953C18.3346 17.3379 18.0165 17.612 17.663 17.772C17.6701 18.0732 17.7322 18.3464 17.8469 18.5898L17.5785 18.6985C17.4631 18.4509 17.4001 18.1736 17.393 17.8724C17.0881 17.9602 16.7603 17.9746 16.4143 17.9191L16.4006 17.6278C16.7647 17.6992 17.1009 17.6831 17.4009 17.5812C17.421 17.3416 17.4694 17.0922 17.5437 16.8313C17.427 16.8973 17.3069 16.9576 17.1869 17.007L17.1722 16.744L16.9481 16.5933L16.563 17.1659C16.706 17.2114 16.8456 17.2511 16.9802 17.2874L16.8329 17.5065C16.4555 17.4117 16.0351 17.2736 15.5699 17.0944L15.6508 16.8343C15.7073 16.8579 15.7629 16.8772 15.8194 16.9008L16.5829 15.7656L16.8045 15.9146L16.0761 16.9975C16.1509 17.0261 16.2207 17.0513 16.2905 17.0766L17.1913 15.7373L16.7108 15.4142L16.8665 15.1827ZM17.6751 17.4583C17.942 17.3088 18.18 17.0893 18.3909 16.7973L17.9876 16.526C17.9442 16.5583 17.9033 16.5923 17.8616 16.622C17.7639 16.9179 17.6995 17.1963 17.6751 17.4583Z" fill="white"/>
<path d="M19.8106 17.5381L20.009 17.7289C19.8871 17.8362 19.7608 17.9335 19.6277 18.0193L18.7328 19.4198L18.4952 19.268L19.1268 18.2795C19.0252 18.3215 18.9244 18.3567 18.8226 18.3878L18.9056 18.0741C19.2477 17.951 19.5497 17.7737 19.8106 17.5381ZM19.8016 18.0592L20.5246 18.5212L20.7362 18.19L20.9713 18.3402L20.7597 18.6714L21.0024 18.8265L20.8538 19.059L20.6111 18.904L20.0118 19.8419C19.8955 20.0239 19.7498 20.0625 19.5804 19.9543L19.2391 19.7362L19.3346 19.4697C19.436 19.5451 19.5364 19.6164 19.6375 19.681C19.7058 19.7246 19.767 19.7068 19.8155 19.631L20.376 18.7538L19.653 18.2918L19.8016 18.0592ZM21.3964 18.1206L21.2543 18.3431L19.4442 17.1865L19.0662 17.7781C18.704 18.3227 18.3227 18.7021 17.9199 18.9147L17.8413 18.6366C18.1732 18.457 18.5028 18.1194 18.8286 17.6262L19.3487 16.8122L20.2765 17.405C20.29 17.3282 20.2994 17.2523 20.3038 17.1839L20.5901 17.3099C20.5724 17.3876 20.55 17.4729 20.5243 17.5633L21.3964 18.1206ZM19.7623 18.6109C19.7991 18.8765 19.8134 19.0992 19.8111 19.2757L19.5524 19.2849C19.5562 19.0951 19.541 18.8682 19.5076 18.6083L19.7623 18.6109Z" fill="white"/>
<path d="M21.7209 19.3259L21.886 19.5405C21.6173 19.7956 21.3662 19.9632 21.1285 20.0444L21.0416 19.7753C21.2711 19.6961 21.4965 19.548 21.7209 19.3259ZM22.8016 18.7326L23.0485 18.8808L22.7612 19.3592L23.5739 19.8472C23.4607 20.0242 23.3577 20.1898 23.2599 20.341L23.4791 20.3607C23.4584 20.6632 23.4212 20.9873 23.3634 21.3341L23.0748 21.3077C23.1336 21.0001 23.1723 20.7084 23.193 20.4408C23.0684 20.625 22.9562 20.7885 22.8594 20.9264C22.6669 21.1887 22.5058 21.3579 22.3787 21.4356C22.2546 21.5081 22.1255 21.5075 21.9882 21.439L21.6872 21.2583L21.7625 20.9815C21.8468 21.0392 21.9276 21.0912 22.0047 21.1375C22.1308 21.2132 22.2681 21.1767 22.4138 21.0332C22.5631 20.8779 22.8189 20.5101 23.1824 19.934L22.6088 19.5896C22.3375 19.9831 22.0647 20.2742 21.7905 20.4629C21.4884 20.663 21.1374 20.7462 20.7387 20.7167L20.7332 20.4229C21.1237 20.437 21.4478 20.3517 21.7041 20.1696C21.9259 19.9984 22.1452 19.7556 22.3619 19.4414L21.7498 19.0738L21.8919 18.8372L22.5143 19.2109L22.8016 18.7326Z" fill="white"/>
<path d="M25.0024 20.0522L25.1809 20.2733C24.6876 20.7151 24.2064 20.9949 23.7386 21.1102L23.6382 20.8298C24.1183 20.7111 24.5744 20.4516 25.0024 20.0522ZM25.205 21.9912C25.2341 22.3795 25.231 22.7702 25.1873 23.1657L24.8958 23.1392C24.9063 23.0349 24.9194 22.9322 24.927 22.8331C24.4339 22.6449 23.9 22.413 23.32 22.1346L23.411 21.8691C23.6304 21.9135 24.1145 21.6593 24.8657 21.108L25.0617 21.3286C24.6038 21.6526 24.1818 21.9004 23.8011 22.075C24.187 22.258 24.5698 22.4219 24.9443 22.564C24.9552 22.3429 24.9547 22.136 24.9401 21.9418L25.205 21.9912ZM25.9526 20.5599C25.831 21.1181 25.8626 21.6489 26.054 22.1526L25.7614 22.2564C25.565 21.7188 25.535 21.1545 25.6731 20.5609L25.9526 20.5599Z" fill="white"/>
<path d="M29.3141 22.4673L29.1866 22.7121L27.3424 21.7523L26.9339 22.5374C26.6365 23.0827 26.2922 23.4649 25.9035 23.6853L25.8006 23.4153C26.1202 23.23 26.4142 22.8926 26.6811 22.4058L27.2171 21.3759L29.3141 22.4673ZM27.271 22.1886L28.9581 23.0667L28.8335 23.3062L28.1842 22.9682L27.5775 24.1338C27.4737 24.3334 27.3279 24.3861 27.1416 24.2891L26.8595 24.1423L26.9256 23.8723C27.0079 23.9287 27.0903 23.9783 27.1701 24.0199C27.2473 24.06 27.3122 24.0329 27.3593 23.9424L27.934 22.8381L27.1463 22.4281L27.271 22.1886Z" fill="white"/>
<path d="M30.2079 22.7993C30.2463 22.9838 30.2755 23.1805 30.2929 23.3881L30.085 23.3921L30.6456 23.6592C30.8167 23.5513 30.9911 23.4084 31.1676 23.2333L31.3872 23.421C31.2424 23.5713 31.0905 23.695 30.9354 23.7973L31.45 24.0424L31.3313 24.2916L30.4484 23.8709L30.4084 23.9549C30.341 24.0823 30.2707 24.195 30.1988 24.297L31.2767 24.8106L31.158 25.0598L30.2101 24.6081C30.1867 24.9991 30.4027 25.4177 30.8567 25.8666L30.5889 26.0381C30.1311 25.5342 29.918 25.0538 29.9429 24.5971C29.8335 24.7012 29.7197 24.7865 29.6028 24.8505C29.3025 25.0065 28.9129 25.0502 28.4339 24.9814L28.4001 24.6895C28.8817 24.7528 29.2447 24.7164 29.4917 24.5816C29.5806 24.5275 29.6652 24.4615 29.7443 24.3862L28.818 23.9449L28.9368 23.6957L29.9334 24.1706C30.0093 24.0672 30.0823 23.9557 30.1484 23.831L30.1884 23.7471L29.3027 23.3251L29.4215 23.076L30.001 23.3521C29.9865 23.1524 29.9575 22.9691 29.9181 22.8008L30.2079 22.7993Z" fill="white"/>
<path d="M32.3988 23.928L34.4885 24.8172L34.3792 25.0739L33.4986 24.6992L33.212 25.3728L34.2858 25.8297L34.1742 26.092L33.1004 25.635L32.6999 26.5763C32.6176 26.7696 32.4732 26.8255 32.2717 26.7397L31.8328 26.553L31.8856 26.2755C32.0229 26.3437 32.1558 26.4068 32.2828 26.4608C32.3711 26.4984 32.4329 26.4758 32.4658 26.3985L32.8382 25.5234L31.7174 25.0465L31.829 24.7843L32.9498 25.2612L33.2364 24.5876L32.2895 24.1847L32.3988 23.928Z" fill="white"/>
<path d="M35.2426 25.9045L35.4987 25.9991L35.3521 26.3959L35.6448 26.5041L35.5564 26.7433L35.2637 26.6351L35.1452 26.9559C35.2812 26.9774 35.4126 26.9939 35.5355 27.0074L35.4419 27.2607C35.3162 27.2462 35.1848 27.2296 35.0506 27.212L34.8291 27.8114L34.573 27.7167L34.7758 27.168C34.6022 27.1358 34.4201 27.1006 34.2345 27.0576L34.2974 26.7834C34.4971 26.8316 34.6894 26.8738 34.8714 26.9091L35.0076 26.5405L34.5574 26.3741L34.5885 26.1169C34.7178 25.992 34.8588 25.8267 35.0099 25.617L34.7622 25.5255L34.8579 25.2666L35.1731 25.3831C35.239 25.2827 35.3069 25.1767 35.3741 25.064L35.6139 25.1941C35.5519 25.2928 35.4909 25.3886 35.432 25.4787L35.9385 25.6659L35.8428 25.9248L35.2688 25.7127C35.1278 25.9037 34.9924 26.0711 34.8597 26.2139L35.096 26.3013L35.2426 25.9045ZM36.051 25.7075L36.476 25.8645C36.5411 25.7575 36.6034 25.6494 36.6668 25.5384L36.9192 25.6605C36.8579 25.7658 36.7987 25.8654 36.7433 25.9633L37.3962 26.2045L37.3005 26.4634L36.5942 26.2024C36.5412 26.2852 36.4893 26.3652 36.4384 26.4423L37.2741 26.7511L37.1795 27.0072L36.279 26.6745C36.2086 26.77 36.1402 26.8598 36.0777 26.9423L36.9557 27.2667L36.8746 27.4862C36.718 27.633 36.5174 27.7604 36.2651 27.8719C36.3436 27.9712 36.4143 28.0741 36.4822 28.176L36.2478 28.3516C36.0411 28.0194 35.8112 27.7329 35.5551 27.4912L35.7766 27.3331C35.8908 27.4393 35.9964 27.5519 36.0942 27.668C36.2884 27.5926 36.4554 27.504 36.5926 27.4012L35.6583 27.056C35.778 26.9051 35.8952 26.7437 36.0145 26.5767L35.6824 26.454L35.7771 26.1979L36.1739 26.3446C36.2268 26.2618 36.2788 26.1818 36.3296 26.1047L35.9554 25.9664L36.051 25.7075Z" fill="white"/>
<path d="M37.6288 26.9115L38.1129 26.1439L38.3712 26.2735L38.0589 26.7581L38.4833 26.8887C38.6031 26.6932 38.7149 26.4828 38.8216 26.2583L39.0892 26.3782C38.9851 26.5942 38.8768 26.7931 38.7672 26.976L40.0804 27.38L40.0002 27.6409L38.6181 27.2158C38.5603 27.3016 38.5014 27.3807 38.4463 27.4579L39.5933 27.8108L39.5227 28.0402C39.3758 28.2523 39.17 28.4213 38.8996 28.5453C39.0805 28.7328 39.3099 28.9257 39.585 29.1233L39.3651 29.3382C39.0569 29.1053 38.8077 28.8748 38.6184 28.6534C38.3434 28.7414 38.0212 28.7992 37.6517 28.8268L37.5877 28.5247C37.9062 28.5096 38.1881 28.4708 38.4296 28.4101C38.2891 28.2037 38.198 27.9999 38.1583 27.8025C37.8213 28.1634 37.4563 28.4215 37.0661 28.5776L37.0032 28.2821C37.5065 28.054 37.9483 27.6688 38.3285 27.1267L37.6288 26.9115ZM38.402 27.7142C38.4446 27.9125 38.5452 28.1161 38.7046 28.3221C38.9303 28.2314 39.1107 28.1143 39.2421 27.9727L38.402 27.7142ZM39.5806 26.4949C39.7326 26.7048 39.8521 26.908 39.9401 27.1014L39.6852 27.2364C39.6164 27.052 39.5034 26.8478 39.3415 26.6191L39.5806 26.4949Z" fill="white"/>
<path d="M41.572 27.0367L41.8433 27.1015L41.6656 27.8455L41.3943 27.7807L41.572 27.0367ZM40.5991 28.2046C40.4644 28.2002 40.3297 28.1958 40.1958 28.1885L40.1419 27.9104C41.0566 27.9808 41.7865 27.9207 42.3288 27.7294C42.2506 27.6305 42.1666 27.5303 42.0767 27.4286L42.306 27.2952C42.5541 27.5735 42.7585 27.8413 42.914 28.0943L42.6747 28.2438C42.6213 28.1447 42.5591 28.0435 42.4852 27.9395C42.183 28.0555 41.8375 28.1333 41.445 28.1753L42.478 28.422L42.0996 30.0064L41.8282 29.9416L41.8547 29.8307L40.5679 29.5234L40.54 29.6402L40.2715 29.5761L40.5991 28.2046ZM40.6264 29.2783L41.9132 29.5856L41.9599 29.3901L40.6731 29.0828L40.6264 29.2783ZM40.7261 28.8611L42.0129 29.1684L42.0554 28.9904L40.7686 28.6831L40.7261 28.8611ZM40.8208 28.4642L42.1076 28.7715L42.1515 28.5877L40.8647 28.2804L40.8208 28.4642ZM41.0741 27.0936L41.2285 27.3124C41.0055 27.4843 40.7479 27.6202 40.4564 27.7171L40.3454 27.4716C40.6209 27.3771 40.8633 27.253 41.0741 27.0936Z" fill="white"/>
<path d="M43.256 27.9382L44.4504 28.1262C44.3957 27.9718 44.3218 27.8235 44.2293 27.6784L44.5271 27.6189C44.6114 27.778 44.6856 27.9628 44.7467 28.1728L45.8699 28.3496L45.826 28.6281L45.3726 28.5568C45.1595 28.9849 44.8898 29.3281 44.5632 29.5895C44.8318 29.8899 45.1839 30.161 45.6142 30.3987L45.4198 30.6111C44.9707 30.3582 44.6086 30.0734 44.3364 29.7573C43.9549 30.0009 43.5084 30.1554 42.9971 30.2207L42.8851 29.948C43.3848 29.8991 43.8097 29.7655 44.1663 29.5453C43.8916 29.168 43.724 28.7468 43.6656 28.2882L43.2122 28.2168L43.256 27.9382ZM43.9353 28.3306C44.0024 28.7147 44.1536 29.0665 44.3922 29.3834C44.6737 29.1574 44.9049 28.8658 45.0822 28.5111L43.9353 28.3306Z" fill="white"/>
<path d="M46.905 27.9266L47.1633 28.0697C47.0455 28.3086 46.8986 28.5335 46.7227 28.7415L46.5943 30.7143L46.3129 30.696L46.4197 29.0555C46.2887 29.1732 46.149 29.2874 46.0007 29.395L45.9302 29.0928C46.3572 28.7688 46.683 28.3812 46.905 27.9266ZM48.1485 30.7614L47.5887 30.7249C47.3492 30.7094 47.2372 30.5818 47.2528 30.3423L47.3074 29.5041C47.1959 29.554 47.0815 29.6036 46.9642 29.6501L46.853 29.3723C47.0193 29.311 47.1799 29.2463 47.329 29.1718L47.4049 28.0073L47.6892 28.0258L47.6249 29.0137C47.931 28.8382 48.2059 28.6336 48.4436 28.3996L48.6265 28.637C48.323 28.9118 47.9826 29.1542 47.6025 29.358L47.5398 30.3219C47.5343 30.4057 47.5765 30.4506 47.6723 30.4568L48.1183 30.4858C48.1872 30.4903 48.2396 30.4697 48.2755 30.4269C48.3084 30.384 48.3396 30.2267 48.3636 29.9516L48.6214 30.0556C48.578 30.3985 48.5254 30.6055 48.4669 30.6739C48.4053 30.742 48.2982 30.7711 48.1485 30.7614Z" fill="white"/>
<path d="M51.9031 28.0634L51.9155 28.3392L49.8386 28.4325L49.8783 29.3166C49.8942 29.9375 49.7877 30.4408 49.5617 30.8263L49.3373 30.6442C49.5211 30.3236 49.6065 29.8843 49.5936 29.3294L49.5415 28.1695L51.9031 28.0634ZM49.9953 28.8458L51.8954 28.7605L51.9075 29.0302L51.1762 29.0631L51.2352 30.3757C51.2453 30.6005 51.1455 30.7191 50.9357 30.7285L50.6181 30.7428L50.54 30.476C50.6395 30.4836 50.7356 30.4853 50.8255 30.4812C50.9124 30.4773 50.955 30.4214 50.9504 30.3195L50.8945 29.0757L50.0074 29.1156L49.9953 28.8458Z" fill="white"/>
<path d="M52.453 28.7759L53.3171 28.6744L53.2992 28.5225L53.5793 28.4896L53.5971 28.6415L54.4493 28.5415L54.4783 28.7888L53.6262 28.8888L53.6528 29.1153L54.8446 28.9753L54.8733 29.2196L54.3221 29.2844L54.3493 29.5168L54.7724 29.4671L54.8015 29.7144L54.3784 29.7641L54.4263 30.1723C54.4484 30.36 54.3553 30.4676 54.1527 30.4914L53.7326 30.5407L53.6385 30.2799C53.777 30.2757 53.9061 30.2696 54.0253 30.2556C54.1087 30.2458 54.1463 30.2052 54.1386 30.1396L54.0983 29.797L52.4387 29.9919L52.4097 29.7446L54.0693 29.5497L54.042 29.3173L52.2066 29.5328L52.1779 29.2885L53.3727 29.1482L53.3461 28.9217L52.482 29.0232L52.453 28.7759ZM52.9866 29.9759C53.1564 30.11 53.2883 30.2304 53.3854 30.3368L53.1828 30.5147C53.0787 30.4 52.9434 30.277 52.774 30.1458L52.9866 29.9759ZM52.549 28.3327C52.4958 28.4718 52.4327 28.6031 52.3596 28.7265L52.0971 28.6002C52.2454 28.3714 52.3417 28.1365 52.3882 27.8894L52.6633 27.9175C52.6517 27.9733 52.6372 28.0293 52.6256 28.0851L53.3377 28.0014L53.3653 28.2368L52.9065 28.2907C52.9825 28.3724 53.0456 28.4465 53.0964 28.5191L52.8514 28.6445C52.7808 28.532 52.6986 28.4239 52.6085 28.3257L52.549 28.3327ZM53.7576 28.1817C53.7211 28.2826 53.6776 28.3753 53.6305 28.4624L53.3809 28.3437C53.4854 28.1532 53.5557 27.9547 53.5856 27.7458L53.8574 27.7712C53.8458 27.827 53.8372 27.8824 53.8253 27.9351L54.6387 27.8396L54.6663 28.075L54.1866 28.1313C54.2657 28.2126 54.3294 28.2928 54.3773 28.3657L54.1438 28.4867C54.0702 28.3745 53.9884 28.2694 53.8976 28.1652L53.7576 28.1817Z" fill="white"/>
<path d="M55.459 28.131C55.5459 28.2486 55.6321 28.3939 55.7205 28.5663L55.9826 28.5155C56.0236 28.3487 56.0571 28.1742 56.077 27.9931L56.3504 28.0318C56.3259 28.1894 56.2956 28.3327 56.2565 28.4625L56.5746 28.4009L56.6265 28.669L55.145 28.9557L55.0931 28.6877L55.4583 28.617C55.3855 28.4936 55.308 28.3772 55.2234 28.2714L55.459 28.131ZM56.5013 27.4068L57.5234 27.2089L57.5644 27.421C57.5313 27.7391 57.4853 28.0383 57.4294 28.318C57.6998 28.5468 57.8545 28.746 57.8905 28.9163C57.9293 29.1166 57.9148 29.263 57.8531 29.3544C57.7854 29.4469 57.6255 29.5207 57.3781 29.5685L57.2327 29.2911C57.3411 29.2824 57.4306 29.2712 57.5042 29.2569C57.5684 29.2414 57.6092 29.2152 57.62 29.1764C57.632 29.1436 57.6277 29.0741 57.6107 28.9704C57.5753 28.8031 57.4147 28.605 57.1319 28.3756C57.1864 28.1359 57.2293 27.8525 57.2643 27.528L56.8225 27.6135L57.278 29.9668L57.007 30.0193L56.5013 27.4068ZM54.9929 27.8698L55.5348 27.7649C55.4888 27.6852 55.444 27.6114 55.4008 27.5464L55.6774 27.444C55.7205 27.5243 55.7652 27.6134 55.8087 27.7119L56.3919 27.5991L56.4438 27.8671L55.0447 28.1379L54.9929 27.8698ZM56.5503 28.9068L56.7737 30.0614L56.4939 30.1155L56.4643 29.9624L55.8104 30.0889L55.8401 30.2421L55.5662 30.2951L55.3427 29.1405L56.5503 28.9068ZM55.7591 29.8238L56.413 29.6973L56.3218 29.226L55.6679 29.3526L55.7591 29.8238Z" fill="white"/>
<path d="M60.5306 29.1495L60.2931 29.2136L60.1541 28.9745L60.4077 28.9124C60.483 28.8921 60.5095 28.829 60.4821 28.7276L59.9802 26.8651L58.8911 27.1586L58.8224 26.9037L60.178 26.5383L60.7689 28.7311C60.8283 28.9513 60.7479 29.091 60.5306 29.1495ZM57.8922 27.5334L58.1587 27.4616L58.7504 29.6573L58.4839 29.7291L57.8922 27.5334ZM58.2385 26.8932C58.4139 27.0137 58.5795 27.1555 58.7309 27.3136L58.5198 27.5103C58.3551 27.3372 58.1887 27.1925 58.0191 27.0704L58.2385 26.8932Z" fill="white"/>
<path d="M60.7928 26.2617C61.0376 26.3353 61.2531 26.416 61.4384 26.5103L61.3089 26.7682C61.1446 26.6793 60.931 26.5948 60.6652 26.5157L60.7928 26.2617ZM60.9834 26.9736C61.212 27.0465 61.4142 27.1254 61.5862 27.2181L61.4606 27.4778C61.3075 27.3849 61.1044 27.3031 60.8548 27.2248L60.9834 26.9736ZM61.5037 27.6565L61.7837 27.6671C61.7889 28.0655 61.775 28.4452 61.7399 28.81L61.4265 28.7856C61.4766 28.4093 61.501 28.0323 61.5037 27.6565ZM61.3668 26.1858L63.1858 25.5529L63.2765 25.8136L63.0697 25.8855L63.7263 27.7726C63.7963 27.9737 63.7354 28.1092 63.5456 28.1753L63.0724 28.3399L62.926 28.1018C63.083 28.0599 63.2295 28.0153 63.3683 27.967C63.442 27.9414 63.4659 27.8822 63.4363 27.7972L62.8033 25.9782L61.4575 26.4465L61.3668 26.1858ZM61.699 26.7754L62.6283 26.452L63.0089 27.5457L62.0795 27.8691L61.699 26.7754ZM62.6748 27.3888L62.4628 26.7796L62.0321 26.9295L62.2441 27.5387L62.6748 27.3888Z" fill="white"/>
<path d="M63.4914 25.528L64.6207 25.0481C64.5965 24.9606 64.5712 24.8703 64.5431 24.7812L64.8262 24.7033C64.8507 24.7841 64.873 24.8594 64.8913 24.9331L65.9653 24.4767L66.0697 24.7224L64.9543 25.1964C64.9717 25.2835 64.988 25.3679 65.0031 25.4495L66.033 25.0118L66.6784 26.5304C66.7628 26.7292 66.7124 26.8712 66.5301 26.9487L66.2678 27.0601L66.0909 26.8355L66.339 26.7365C66.408 26.7072 66.4274 26.6533 66.3969 26.5815L65.8807 25.3667L64.1964 26.0824L64.8723 27.6728L64.6155 27.7819L63.8352 25.9458L64.7353 25.5633C64.719 25.4789 64.7027 25.3946 64.6837 25.3114L63.5959 25.7737L63.4914 25.528ZM64.7808 25.8928C64.8759 25.9632 64.9714 26.0497 65.0711 26.154L65.3224 26.0472C65.3318 25.9161 65.3334 25.7818 65.3283 25.647L65.6033 25.6345C65.5994 25.7404 65.5905 25.842 65.5736 25.9405L65.8442 25.8255L65.9416 26.0546L65.4198 26.2764L65.5183 26.5083L66.1147 26.2549L66.2121 26.4841L65.6157 26.7375L65.821 27.2207L65.567 27.3286L65.3617 26.8454L64.7681 27.0977L64.6707 26.8686L65.2643 26.6163L65.1657 26.3844L64.6522 26.6026L64.5548 26.3734L64.8199 26.2608C64.7448 26.1916 64.6666 26.1303 64.5825 26.0781L64.7808 25.8928Z" fill="white"/>
<path d="M66.9898 23.6844L67.2397 23.5602L67.58 24.2454L67.3301 24.3695L66.9898 23.6844ZM66.9912 25.2044C66.885 25.2874 66.7788 25.3703 66.6713 25.4505L66.4517 25.2715C67.199 24.7394 67.7209 24.2256 68.0147 23.7313C67.8913 23.7055 67.7626 23.6824 67.6285 23.6619L67.719 23.4126C68.0878 23.4672 68.4164 23.5418 68.6979 23.6365L68.6099 23.9046C68.5054 23.8627 68.3928 23.8249 68.2695 23.7924C68.1118 24.075 67.8964 24.3562 67.6219 24.6399L68.573 24.1675L69.2977 25.6264L69.0479 25.7505L68.9971 25.6484L67.8123 26.237L67.8657 26.3444L67.6185 26.4672L66.9912 25.2044ZM67.7002 26.0113L68.885 25.4227L68.7956 25.2427L67.6107 25.8313L67.7002 26.0113ZM67.5093 25.6271L68.6942 25.0385L68.6128 24.8746L67.4279 25.4632L67.5093 25.6271ZM67.3278 25.2617L68.5127 24.6731L68.4286 24.5038L67.2437 25.0924L67.3278 25.2617ZM66.6441 24.047L66.9028 24.1161C66.8417 24.391 66.731 24.6604 66.5693 24.9216L66.3268 24.8042C66.4777 24.5551 66.5844 24.3045 66.6441 24.047Z" fill="white"/>
<path d="M69.533 23.7114C69.5108 23.8483 69.4818 23.9855 69.4436 24.1246L69.213 23.9072C69.3099 23.4586 69.3123 23.0017 69.2146 22.5326L69.5116 22.5087C69.5577 22.7413 69.5784 22.978 69.5764 23.2173L70.5671 24.9593L70.322 25.0987L69.533 23.7114ZM69.6262 22.7162L70.1269 22.4314L70.0178 22.0758L70.2737 21.9614C70.3107 22.0749 70.3421 22.1848 70.3746 22.2905L71.1256 21.8634L71.2621 22.1033L70.4485 22.566C70.4713 22.6669 70.4938 22.7611 70.5149 22.8527L71.5084 22.2876L71.6434 22.5249L70.5716 23.1345C70.5915 23.2543 70.6095 23.3649 70.6219 23.4717L71.6598 22.8814L71.7814 23.0953C71.772 23.3215 71.7079 23.5789 71.5852 23.8729C71.7274 23.868 71.8699 23.8698 72.0086 23.8772L71.9894 24.1711C71.5497 24.1382 71.1262 24.1582 70.7227 24.2254L70.7445 23.9542C70.9335 23.9226 71.1219 23.9018 71.3065 23.8865C71.4178 23.6575 71.4927 23.4493 71.5269 23.2607L70.4317 23.8836C70.4075 23.6834 70.3737 23.4783 70.3343 23.2694L69.9223 23.5038L69.7873 23.2665L70.275 22.9891C70.2525 22.8949 70.2299 22.8008 70.2033 22.7054L69.7626 22.9561L69.6262 22.7162Z" fill="white"/>
<path d="M73.1024 22.6051L73.2486 22.8357C73.092 23.0984 72.8896 23.3618 72.6407 23.6191L72.4602 23.3961C72.7259 23.1317 72.9416 22.867 73.1024 22.6051ZM71.5641 21.1544L71.8525 21.0994C71.9221 21.478 71.9564 21.8009 71.9537 22.0654C72.0334 22.0007 72.1115 21.9334 72.188 21.8636C72.1796 21.7552 72.169 21.6376 72.1552 21.5149L72.4219 21.4594C72.4635 21.973 72.4737 22.3644 72.45 22.6352C72.5798 22.4925 72.7041 22.3356 72.8212 22.1618L72.961 22.3822C72.7597 22.6697 72.547 22.9112 72.3269 23.1076L72.1222 22.9249C72.1524 22.8773 72.1734 22.832 72.1861 22.7848C72.2116 22.6514 72.2189 22.4443 72.2078 22.1636C72.1041 22.2578 71.9937 22.3527 71.8783 22.4507L71.6777 22.2689C71.7061 22.2296 71.7207 22.1742 71.7221 22.1093C71.7007 21.8067 71.6481 21.4884 71.5641 21.1544ZM72.8088 21.9742L72.6207 21.7952C72.6377 21.7773 72.6506 21.7584 72.6576 21.7469C72.6982 21.643 72.7054 21.4359 72.6799 21.1324L72.2872 21.3814L72.141 21.1509L72.7566 20.7604C72.6748 20.6987 72.5936 20.6435 72.5132 20.5951L72.7332 20.3987C72.8176 20.4589 72.9067 20.5267 72.9998 20.6062L73.5546 20.2543L73.7008 20.4848L72.9307 20.9733C72.9501 21.2168 72.9523 21.4107 72.9406 21.5603C73.133 21.4099 73.3221 21.2544 73.5055 21.0954C73.4098 21.0566 73.3158 21.0204 73.2217 20.9841L73.3318 20.7544C73.6356 20.8637 73.8853 20.9718 74.0794 21.0761L73.9738 21.3242C73.9065 21.2852 73.8341 21.2494 73.76 21.2111C73.4764 21.4585 73.1585 21.7134 72.8088 21.9742ZM73.0461 21.9339L73.2792 21.7861C73.4706 22.1158 73.5795 22.3772 73.6084 22.5684C73.6346 22.7721 73.5997 22.986 73.5014 23.2118L73.2289 23.1182C73.3129 22.937 73.3451 22.7638 73.3256 22.5986C73.3067 22.44 73.2127 22.219 73.0461 21.9339ZM74.6562 22.4225L74.4941 22.5253C74.3142 22.6394 74.1741 22.6146 74.0729 22.455L73.525 21.5911L73.7555 21.4449L74.2745 22.2632C74.3002 22.3037 74.3315 22.3194 74.3651 22.3052L74.507 22.2152C74.5494 22.1812 74.5564 22.1306 74.5229 22.0666C74.4871 21.9934 74.4295 21.8913 74.3491 21.7647L74.6035 21.7064C74.7577 21.9496 74.8307 22.1094 74.8305 22.1876C74.8272 22.2608 74.7663 22.3385 74.6562 22.4225Z" fill="white"/>
<path d="M74.9195 19.5447L74.0945 20.1186L73.9386 19.8945L75.8276 18.5805L75.9835 18.8047L75.156 19.3803L76.1975 20.8776L77.1802 20.1941L77.3378 20.4207L75.1336 21.9539L74.976 21.7273L75.9611 21.0421L74.9195 19.5447Z" fill="white"/>
<path d="M76.289 18.3017L76.8308 17.8941L76.674 17.6855L76.9065 17.5106L77.0634 17.7192L77.6388 17.2864L77.4819 17.0778L77.7145 16.9029L77.8714 17.1115L78.4132 16.704L78.5737 16.9173L78.0319 17.3249L78.1743 17.5143L77.9418 17.6892L77.7993 17.4998L77.2239 17.9326L77.3663 18.122L77.1338 18.2969L76.9913 18.1075L76.4495 18.515L76.289 18.3017ZM76.875 18.6267L78.467 17.4293L78.6311 17.6475C78.2423 18.503 78.0211 19.0973 77.9699 19.4286C77.9545 19.5378 77.9564 19.6152 77.9769 19.6674C78.0039 19.7033 78.0375 19.7081 78.0807 19.6756L79.2579 18.7902C79.3226 18.7415 79.3603 18.6869 79.3704 18.6305C79.3824 18.5764 79.3065 18.4157 79.143 18.1484L79.4189 18.076C79.6017 18.3739 79.6824 18.576 79.6585 18.6841C79.6353 18.7879 79.561 18.8888 79.4363 18.9826L78.2495 19.8752C78.0385 20.0339 77.8796 20.0371 77.7678 19.8884C77.692 19.7877 77.681 19.6084 77.7298 19.3539C77.7924 19.0178 77.9687 18.5436 78.2523 17.9324L77.0391 18.8448L76.875 18.6267Z" fill="white"/>
<path d="M80.3665 18.3254L80.1652 18.4867L79.9514 18.3158C80.0198 18.2764 80.0797 18.2361 80.1359 18.1911C80.1898 18.1479 80.1935 18.095 80.1447 18.0341L79.7415 17.5307C79.6834 17.631 79.6216 17.7266 79.5599 17.8223L79.3372 17.6547C79.4215 17.5487 79.5001 17.4358 79.5708 17.3177L79.1638 16.8096L78.8992 17.0215L78.7285 16.8084L78.9931 16.5965L78.6649 16.1868L78.8803 16.0142L79.2085 16.4239L79.438 16.2401L79.6087 16.4532L79.3792 16.637L79.7149 17.0561C79.7645 16.9549 79.808 16.8509 79.8515 16.7468L80.026 16.9646C79.9806 17.0663 79.9333 17.1656 79.8837 17.2669L80.4051 17.9178C80.5271 18.07 80.514 18.2072 80.3665 18.3254ZM80.2694 16.6927C80.5799 17.1474 80.7629 17.5774 80.8184 17.9826L80.534 17.9683C80.4789 17.5588 80.258 17.1054 79.8735 16.6062L79.2583 15.8383L80.5016 14.8423L80.6685 15.0507L79.6359 15.8778L80.0842 16.4374C80.0954 16.4515 80.1025 16.4651 80.1137 16.4791L81.1697 15.6332L81.3348 15.8393L80.9203 16.1713C81.0136 16.2733 81.1154 16.3571 81.2274 16.425C81.2667 16.3013 81.2886 16.1607 81.2871 16.0005L81.5424 16.0266C81.5351 16.2093 81.4991 16.3803 81.4331 16.5331C81.6389 16.622 81.8708 16.6668 82.1271 16.6652L82.0963 16.9436C81.5383 16.9139 81.0832 16.7057 80.7354 16.3194L80.5925 16.4338L81.2077 17.2018C81.2789 17.0987 81.3439 16.9928 81.4066 16.8887L81.6021 17.032C81.5001 17.2213 81.3601 17.4257 81.186 17.6497L80.9769 17.5135C81.0153 17.4367 81.0064 17.3631 80.9538 17.2976L80.3912 16.5951L80.2694 16.6927ZM79.8984 15.9943L80.746 15.3154L80.9073 15.5167L80.0597 16.1957L79.8984 15.9943Z" fill="white"/>
<path d="M81.5181 15.6005L82.7902 14.5263C82.6959 14.0798 82.5489 13.6267 82.3515 13.1652L82.6347 13.0635C82.8238 13.5478 82.9499 13.9714 83.0194 14.3328L83.6085 13.8354L83.7866 14.0462L81.6961 15.8114L81.5181 15.6005ZM81.1137 14.4381C81.3964 14.545 81.6895 14.6783 81.9956 14.8361L81.8744 15.1111C81.5672 14.9426 81.2721 14.807 80.991 14.7066L81.1137 14.4381ZM81.55 13.8341C81.842 13.9567 82.1445 14.1057 82.4598 14.2792L82.3432 14.5503C82.024 14.3723 81.7173 14.2229 81.4269 14.1069L81.55 13.8341ZM82.3813 15.3859L82.6597 15.3158C82.7265 15.711 82.7347 16.0927 82.6841 16.4653L82.3946 16.4898C82.4484 16.1303 82.4452 15.7639 82.3813 15.3859ZM83.2522 14.627C83.6924 14.6833 84.0485 14.7517 84.3271 14.8306L84.2461 15.1345C83.9497 15.0393 83.5901 14.9621 83.1652 14.9007L83.2522 14.627Z" fill="white"/>
<path d="M84.2187 12.6937L84.8083 12.1739L84.227 11.5146L84.4475 11.3202L85.0288 11.9795L85.5869 11.4875L85.7734 11.699L85.2153 12.191L86.2847 13.4039L86.0641 13.5984L84.9948 12.3855L84.4052 12.9053L84.2187 12.6937ZM83.2457 12.4158C83.4892 12.3971 83.7102 12.3982 83.9106 12.4214L83.8953 12.6989C83.712 12.6725 83.4891 12.6691 83.2261 12.693L83.2457 12.4158ZM83.524 13.3302L84.0438 12.8719L84.889 13.8305C84.9094 13.7085 84.9242 13.5756 84.9375 13.4319L85.1862 13.6005C85.1612 13.8625 85.1131 14.1209 85.042 14.3715L84.7924 14.2517C84.8029 14.1864 84.7894 14.1303 84.7497 14.0853L84.0196 13.2572L83.7046 13.535L83.524 13.3302Z" fill="white"/>
<path d="M86.7051 9.63743L86.909 9.45139L88.1587 10.8209L87.9548 11.007L86.7051 9.63743ZM88.7985 11.0859L88.4794 11.3771L88.2466 11.2199C88.3588 11.1337 88.4604 11.0492 88.5535 10.9643C88.6155 10.9077 88.6204 10.8463 88.5658 10.7865L86.9785 9.04685L87.1868 8.85677L88.8227 10.6496C88.9602 10.8003 88.9514 10.9464 88.7985 11.0859ZM86.7689 10.099L86.9882 10.2726L86.4502 10.9381C86.5501 11.0297 86.6463 11.1085 86.7388 11.1743C86.8334 11.2423 86.9219 11.3037 87.0068 11.3522C86.9966 11.1096 86.9508 10.8591 86.8669 10.6025L87.1378 10.53C87.2495 10.8749 87.3045 11.2023 87.2989 11.5121C87.3488 11.5356 87.3946 11.5547 87.4406 11.5695C87.6333 11.6293 87.7628 11.6289 87.8269 11.5745C87.8563 11.5355 87.7947 11.3967 87.6443 11.1563L87.9267 11.1097C87.9966 11.2531 88.0481 11.3807 88.079 11.4947C88.1152 11.6322 88.1043 11.7316 88.0422 11.7882C87.9358 11.8852 87.765 11.9071 87.5314 11.8604C87.4472 11.8438 87.3634 11.8187 87.28 11.7852C87.2481 12.0173 87.1828 12.2394 87.0839 12.4515L86.7857 12.3784C86.8983 12.1457 86.9709 11.9048 86.9972 11.6533C86.8956 11.5998 86.7942 11.5421 86.6912 11.4737C86.5613 11.3891 86.4238 11.283 86.2747 11.1552L86.0427 11.444L85.8257 11.2684L86.0644 10.9693C85.8872 10.8062 85.6963 10.6148 85.4961 10.3954L85.7089 10.2013C85.8989 10.4096 86.0753 10.5939 86.2422 10.7502L86.7689 10.099ZM85.9935 9.92127C86.1622 9.94598 86.3389 9.9838 86.5192 10.0345L86.4228 10.2849C86.2407 10.2278 86.0662 10.1879 85.8975 10.1632L85.9935 9.92127Z" fill="white"/>
<path d="M88.4898 8.30483L89.9163 9.82957L89.7169 10.0161L89.6104 9.90216L89.2642 10.226L89.4303 10.4034L89.2309 10.59L87.745 9.00169L87.9531 8.80698C87.8818 8.65179 87.7998 8.5026 87.6984 8.35914L87.9332 8.19291C88.024 8.3339 88.0957 8.47637 88.1524 8.62047L88.4898 8.30483ZM89.0839 10.0332L89.43 9.70938L89.0262 9.27781L88.6801 9.60164L89.0839 10.0332ZM88.5059 9.41543L88.852 9.0916L88.4749 8.68851L88.1288 9.01234L88.5059 9.41543ZM89.376 8.46168C89.6887 8.50605 89.9459 8.55706 90.1497 8.62115L90.094 8.89097C89.8755 8.82427 89.6119 8.77093 89.3057 8.72465L89.376 8.46168ZM89.6223 7.24944C90.3294 8.00524 90.755 8.48211 90.897 8.67786C91.0227 8.85609 90.9913 9.03333 90.8051 9.20755C90.7613 9.24854 90.6783 9.31794 90.5626 9.41385L90.3339 9.2704C90.4344 9.1846 90.5218 9.11109 90.5919 9.04551C90.6795 8.96353 90.6869 8.87038 90.6139 8.76607C90.5246 8.64424 90.1868 8.27005 89.6071 7.6416L89.0572 8.15604C89.1188 8.34487 89.1615 8.53095 89.1807 8.71837L88.9021 8.67089C88.8499 8.32531 88.7109 7.97471 88.4807 7.6232L88.7112 7.45683C88.804 7.60001 88.8799 7.74262 88.9453 7.88276L89.6223 7.24944Z" fill="white"/>
<path d="M89.6932 6.53803C89.9506 6.51249 90.1841 6.50971 90.3916 6.52752L90.3826 6.80952C90.1922 6.78364 89.9588 6.78218 89.6803 6.8072L89.6932 6.53803ZM92.7961 7.29503C92.6766 7.40882 92.5442 7.53078 92.4031 7.66101C92.2598 7.79331 92.1322 7.88993 92.0203 7.95509C91.9086 8.01177 91.7829 8.03204 91.6474 8.02024C91.5818 8.01227 91.5392 8.01972 91.5131 8.04455C91.4675 8.08799 91.4824 8.26023 91.5577 8.56127L91.2712 8.56488C91.2122 8.28546 91.2045 8.08156 91.25 7.95536L90.6645 7.34053L90.3734 7.61776L90.1914 7.42657L90.6758 6.96522L91.4579 7.78644C91.477 7.78478 91.4982 7.7853 91.5215 7.78799C91.6273 7.79907 91.7208 7.79287 91.802 7.76939C91.8962 7.73774 92.0104 7.66626 92.1427 7.54855C92.2686 7.43279 92.4162 7.29635 92.5857 7.13499C92.6921 7.03361 92.7987 6.928 92.9053 6.82238C93.0118 6.71677 93.0924 6.63174 93.1469 6.57153L93.2914 6.82334L92.7961 7.29503ZM90.7714 5.92143L90.3521 6.32072L90.1886 6.14909L91.3814 5.0133L91.52 5.15886C91.4974 5.38748 91.4496 5.60699 91.3807 5.82174C91.3892 5.82195 91.3956 5.81999 91.4041 5.82019L91.8408 5.40436L92.7593 6.36896C92.8814 6.49714 92.8718 6.63059 92.7305 6.76506L92.5633 6.92436L92.3564 6.79411L92.5189 6.65591C92.5667 6.6104 92.57 6.56167 92.5245 6.51388L92.419 6.40308L92.1061 6.70099L92.4454 7.05729L92.2564 7.23728L91.9171 6.88098L91.6108 7.17269L91.9542 7.53333L91.7587 7.71952L90.6415 6.54636L91.1412 6.07052C91.024 6.091 90.896 6.11758 90.7614 6.15461L90.7714 5.92143ZM91.1616 5.84397C91.2094 5.71146 91.2445 5.57863 91.2689 5.44767L90.7822 5.91109C90.9145 5.88461 91.0402 5.8601 91.1616 5.84397ZM91.3067 6.85333L91.4515 7.0054L91.7578 6.7137L91.613 6.56162L91.3067 6.85333ZM91.802 6.38163L91.9468 6.53371L92.2597 6.23579L92.1149 6.08372L91.802 6.38163ZM91.9535 5.91426L91.8087 5.76218L91.4958 6.0601L91.6406 6.21217L91.9535 5.91426ZM91.4516 6.39216L91.3068 6.24008L91.0005 6.53179L91.1453 6.68387L91.4516 6.39216Z" fill="white"/>
<path d="M93.9018 2.87216L95.5248 4.55785L95.3259 4.74928L95.2073 4.62609L94.8291 4.99022L94.9498 5.11557L94.751 5.307L93.1259 3.61915L93.9018 2.87216ZM94.644 4.79788L95.0222 4.43375L93.8881 3.25593L93.51 3.62006L94.644 4.79788ZM92.5977 4.62331C92.652 4.77923 92.6916 4.93274 92.7184 5.08177L92.4288 5.13993C92.3715 4.80361 92.2608 4.48962 92.0944 4.20004L92.3392 4.04767C92.3966 4.15061 92.4435 4.25121 92.4883 4.34966L93.0783 3.78162L93.2677 3.97828L92.9737 4.26126C93.0984 4.39941 93.2126 4.531 93.3099 4.65803L93.6471 4.33343L93.8364 4.53009L93.4712 4.88174C93.5083 4.93761 93.5433 4.99556 93.5763 5.0471C93.8371 5.05417 94.1147 5.07428 94.4111 5.10536L94.4689 5.41622C94.1518 5.35505 93.8958 5.31413 93.701 5.29346C93.8287 5.60777 93.8605 5.94785 93.7898 6.31568L93.4977 6.28044C93.5623 5.89764 93.5136 5.553 93.3519 5.24229C93.321 5.19291 93.2902 5.13928 93.2572 5.08773L92.8315 5.49764L92.6421 5.30098L93.0981 4.86194C93.0008 4.73492 92.8866 4.60333 92.7619 4.46518L92.5977 4.62331Z" fill="white"/>
<path d="M94.1563 2.18737L95.5764 2.76342L96.1033 4.20246L95.8556 4.29156L95.3693 2.96353L94.0588 2.4318L94.1563 2.18737ZM94.5253 1.83092L95.9453 2.40697L96.4722 3.84601L96.2246 3.9351L95.7382 2.60708L94.4191 2.08368L94.5253 1.83092Z" fill="white"/>
</svg>
