<svg width="177" height="35" viewBox="0 0 177 35" fill="none" xmlns="http://www.w3.org/2000/svg">
<path d="M6.03766 15.0536L6.19871 15.3818L4.48369 16.1813L3.93989 17.9869L3.60332 17.8876L4.19239 15.9311L6.03766 15.0536ZM6.55653 15.4993L6.70544 15.8171L5.00255 16.627L4.45875 18.4326L4.12218 18.3333L4.71126 16.3768L6.55653 15.4993Z" fill="white"/>
<path d="M9.51505 17.7744L9.68302 18.0825L8.03258 18.9946L7.59968 20.83L7.25769 20.7514L7.7266 18.7626L9.51505 17.7744Z" fill="white"/>
<path d="M10.4502 18.5526C10.5549 18.855 10.6209 19.1361 10.6592 19.3937L10.296 19.4669C10.2753 19.226 10.2082 18.9394 10.096 18.6126L10.4502 18.5526ZM9.38784 19.2107L10.1303 19.7122L9.18322 21.1143C9.34419 21.0975 9.52075 21.072 9.7162 21.0399L9.57848 21.4296C9.22869 21.4829 8.87907 21.5074 8.53187 21.4997L8.6051 21.1341C8.68948 21.1235 8.75961 21.084 8.80663 21.0144L9.62163 19.8078L9.18409 19.5123L9.38784 19.2107ZM10.3047 20.4044L11.9123 21.4903L11.7175 21.7787C11.4221 22.0088 11.0929 22.1532 10.7275 22.2154C10.8456 22.4979 11.0191 22.7985 11.2457 23.106L10.8931 23.2637C10.6512 22.9072 10.4791 22.5689 10.3656 22.2509C9.98169 22.2619 9.55941 22.1938 9.10541 22.0513L9.10886 21.6674C9.52962 21.802 9.91194 21.872 10.2581 21.8741C10.1804 21.5031 10.1881 21.1559 10.2877 20.837L10.0987 20.7094L10.3047 20.4044ZM10.5827 21.0363C10.5223 21.29 10.5285 21.5596 10.6021 21.8507C10.8908 21.8092 11.1532 21.7209 11.3881 21.5803L10.5827 21.0363ZM11.401 19.2817L12.5744 20.0743L12.1042 20.7704C12.0549 20.8433 12.0679 20.91 12.1507 20.9659L12.4424 21.163L12.2476 21.4513L11.8731 21.1983C11.6377 21.0394 11.5978 20.8483 11.7456 20.6295L12.0635 20.1588L11.5133 19.7872L11.4461 19.8866C11.2133 20.2313 10.8563 20.3812 10.3806 20.335L10.3352 19.952C10.6987 20.0141 10.9599 19.9347 11.1122 19.7093L11.401 19.2817Z" fill="white"/>
<path d="M13.7881 22.052L14.6877 22.5898L15.289 21.5838L15.6255 21.785L15.0241 22.7909L15.8756 23.2999L15.6826 23.6226L14.8312 23.1136L13.7249 24.9642L13.3884 24.763L14.4947 22.9125L13.5952 22.3747L13.7881 22.052ZM13.7462 20.7034C13.8688 21.0051 13.957 21.2862 14.0089 21.5502L13.6503 21.6434C13.6094 21.3999 13.5232 21.1154 13.3862 20.7911L13.7462 20.7034ZM12.6978 21.4281L13.4909 21.9023L12.6165 23.3648C12.7797 23.3412 12.9546 23.306 13.1425 23.2645L13.0292 23.6489C12.6864 23.7235 12.3386 23.7673 11.9915 23.7788L12.0424 23.4131C12.1295 23.3999 12.1953 23.36 12.2363 23.2914L12.9917 22.0279L12.511 21.7406L12.6978 21.4281Z" fill="white"/>
<path d="M16.8154 22.5534C16.9673 22.8586 17.0857 23.1416 17.1631 23.4078L16.7944 23.5174C16.7308 23.2765 16.6178 22.9918 16.4521 22.6614L16.8154 22.5534ZM16.2975 23.3885C16.4354 23.6773 16.5433 23.9458 16.6103 24.1975L16.2432 24.3125C16.1938 24.079 16.0878 23.807 15.936 23.4929L16.2975 23.3885ZM16.1089 24.5176L16.3543 24.7994C15.9719 25.1682 15.5901 25.5012 15.2036 25.8001L14.9411 25.4733C15.3526 25.1784 15.7413 24.8581 16.1089 24.5176ZM17.4131 23.042L19.6888 24.2319L19.5183 24.558L19.2595 24.4227L18.0251 26.7834C17.8936 27.0351 17.7063 27.0997 17.4688 26.9755L16.8769 26.666L16.9746 26.3064C17.1586 26.4206 17.3357 26.5223 17.5094 26.6131C17.6015 26.6613 17.6808 26.6305 17.7364 26.5241L18.9263 24.2485L17.2426 23.3681L17.4131 23.042ZM17.1434 23.903L18.3061 24.5109L17.5907 25.8792L16.428 25.2713L17.1434 23.903ZM17.4381 25.4113L17.8366 24.6491L17.2978 24.3674L16.8993 25.1295L17.4381 25.4113Z" fill="white"/>
<path d="M19.7726 24.4076L21.2662 25.0752C21.3298 24.9722 21.395 24.8655 21.4566 24.7572L21.7896 24.963C21.7329 25.0604 21.6795 25.1504 21.6241 25.2352L23.0446 25.8701L22.8994 26.1952L21.424 25.5357C21.3548 25.6318 21.2872 25.7243 21.2212 25.8131L22.5833 26.4219L21.6855 28.4304C21.568 28.6933 21.3835 28.7729 21.1424 28.6652L20.7955 28.5101L20.8544 28.1334L21.1761 28.286C21.2674 28.3268 21.3378 28.2969 21.3802 28.2019L22.0984 26.5951L19.8708 25.5994L18.9306 27.7028L18.591 27.551L19.6765 25.1226L20.867 25.6547C20.9346 25.5623 21.0022 25.4698 21.0662 25.3757L19.6274 24.7326L19.7726 24.4076ZM20.5864 25.9981C20.604 26.1549 20.606 26.3267 20.5947 26.5188L20.927 26.6674C21.0637 26.5576 21.1963 26.4373 21.3233 26.31L21.5851 26.5672C21.4781 26.6596 21.3707 26.743 21.2593 26.8159L21.6172 26.9759L21.4817 27.279L20.7915 26.9705L20.6544 27.2772L21.4432 27.6298L21.3077 27.9329L20.5189 27.5803L20.2332 28.2194L19.8973 28.0692L20.1829 27.4301L19.3978 27.0792L19.5333 26.7761L20.3184 27.127L20.4555 26.8203L19.7763 26.5167L19.9118 26.2136L20.2623 26.3703C20.2618 26.2342 20.2507 26.1022 20.2254 25.9726L20.5864 25.9981Z" fill="white"/>
<path d="M25.9525 28.3966L25.1566 28.1038L25.0724 28.3328L25.9208 28.6449L25.8131 28.9377L24.9647 28.6256L24.879 28.8583L25.8363 29.2105L25.7272 29.5071L24.7699 29.1549L24.6581 29.459L24.3127 29.3319L24.4246 29.0278L23.6024 28.7254L23.7115 28.4288L24.5337 28.7313L24.6193 28.4985L23.9135 28.2389L24.0213 27.9461L24.727 28.2057L24.8113 27.9767L24.1844 27.7461L24.2935 27.4495L24.9204 27.6802L25.006 27.4474L24.1952 27.1491L24.3015 26.86L25.1124 27.1584L25.1952 26.9331L24.5683 26.7025L24.676 26.4097L25.303 26.6403L25.3955 26.3888L25.7409 26.5159L25.6483 26.7674L26.4442 27.0602L26.2536 27.5782L26.4788 27.6611L26.3725 27.9501L26.1472 27.8673L25.9525 28.3966ZM25.5406 27.0602L25.4577 27.2854L25.912 27.4525L25.9948 27.2273L25.5406 27.0602ZM25.3514 27.5745L25.2658 27.8072L25.72 27.9743L25.8056 27.7416L25.3514 27.5745ZM24.3596 29.4941C24.7838 29.6501 25.2271 29.8005 25.6831 29.9512L25.4974 30.2707L24.3975 29.866C23.7067 29.6119 23.2523 29.3296 23.0275 29.0253C22.9996 28.9852 22.9793 28.9479 22.965 28.9171C22.7841 29.0381 22.5928 29.1296 22.3895 29.1955L22.2686 28.8058C22.4752 28.7539 22.6601 28.6685 22.827 28.5509C22.7654 28.2896 22.7481 27.9891 22.7713 27.6481L23.1116 27.6498C23.0926 27.8985 23.0935 28.1162 23.1194 28.3005C23.3078 28.1013 23.4673 27.8531 23.6003 27.561L22.9246 27.3124L23.0241 27.0421C23.3234 26.854 23.6096 26.6438 23.89 26.4146L23.3307 26.2088L23.455 25.8709L24.4122 26.2231L24.3045 26.5159C24.0196 26.7691 23.7536 26.9824 23.5014 27.1581L24.0457 27.3584L23.967 27.5723C23.7752 28.0473 23.5294 28.4257 23.2297 28.7076C23.2581 28.7692 23.2931 28.8247 23.3346 28.8741C23.5289 29.099 23.8706 29.3056 24.3596 29.4941Z" fill="white"/>
<path d="M27.4353 27.1769C27.6288 27.4318 27.7788 27.6784 27.8953 27.9114L27.5728 28.0939C27.4783 27.8713 27.3255 27.6197 27.1172 27.3439L27.4353 27.1769ZM26.63 28.1324L27.4915 28.3785L27.0269 30.0054C27.1747 29.9395 27.3346 29.8603 27.5104 29.7691L27.5006 30.1823C27.1847 30.3417 26.86 30.4736 26.5276 30.5742L26.4836 30.2039C26.5605 30.1676 26.6149 30.1082 26.6379 30.0275L27.0377 28.6274L26.53 28.4824L26.63 28.1324ZM27.8724 28.9823L29.7378 29.515L29.6423 29.8496C29.433 30.1601 29.1649 30.3997 28.8369 30.5722C29.0369 30.8041 29.2952 31.0359 29.6062 31.2578L29.32 31.5172C28.9793 31.2535 28.7106 30.9854 28.5039 30.7184C28.1424 30.8481 27.7199 30.9147 27.2441 30.9202L27.1281 30.5543C27.5699 30.5515 27.955 30.4993 28.2847 30.3937C28.0956 30.0652 27.995 29.7328 27.9906 29.3987L27.7713 29.3361L27.8724 28.9823ZM28.3329 29.4965C28.3544 29.7564 28.4439 30.0107 28.6044 30.2646C28.8659 30.1354 29.0879 29.97 29.2675 29.7634L28.3329 29.4965ZM28.5656 27.5745L29.9272 27.9633L29.6965 28.771C29.6723 28.8557 29.7053 28.915 29.8015 28.9424L30.1399 29.0391L30.0444 29.3737L29.6098 29.2496C29.3367 29.1716 29.2394 29.0024 29.3119 28.7486L29.4679 28.2024L28.8294 28.0201L28.7964 28.1354C28.6822 28.5355 28.3894 28.7888 27.9229 28.8927L27.7608 28.5427C28.1256 28.4888 28.3492 28.3322 28.4239 28.0707L28.5656 27.5745Z" fill="white"/>
<path d="M32.434 28.3764L32.8186 28.4521L32.685 29.1311L34.0822 29.4059L33.7093 31.3016L33.3364 31.2282L33.3805 31.0045L32.3561 30.803L32.0974 32.1178L31.7128 32.0421L31.9715 30.7273L30.951 30.5266L30.907 30.7503L30.5342 30.6769L30.9071 28.7813L32.3004 29.0554L32.434 28.3764ZM31.0228 30.1616L32.0433 30.3623L32.2286 29.4204L31.2081 29.2196L31.0228 30.1616ZM32.4279 30.438L33.4523 30.6395L33.6376 29.6976L32.6132 29.4961L32.4279 30.438Z" fill="white"/>
<path d="M34.2784 30.3032L35.0539 30.3866L35.2142 28.8952L35.596 28.9362L35.4357 30.4276L37.8061 30.6824L37.7667 31.0483L36.502 30.9124C36.6027 31.5106 36.991 32.015 37.6709 32.426L37.4097 32.76C36.6481 32.2476 36.2249 31.6188 36.1361 30.873L35.3964 30.7935L35.2549 32.1099C35.537 32.0679 35.8204 32.0138 36.1051 31.9479L36.162 32.3161C35.7498 32.4086 35.3079 32.4777 34.8394 32.532L34.7617 32.1696C34.8292 32.1406 34.8709 32.0888 34.8795 32.0093L35.0146 30.7525L34.239 30.6691L34.2784 30.3032ZM37.312 29.1408L37.5387 29.4267C37.1821 29.7504 36.6746 30.0177 36.0075 30.2357L35.8133 29.909C36.4708 29.7061 36.969 29.4499 37.312 29.1408Z" fill="white"/>
<path d="M38.4125 29.2194L38.7805 29.2235L38.7759 29.6355L39.4679 29.6432L39.4724 29.2393L39.8404 29.2434L39.8359 29.6473L40.0438 29.6497L40.0399 30.0016L39.8319 29.9993L39.814 31.6032L40.042 31.6058L40.038 31.9577L38.1222 31.9363L38.1261 31.5844L38.3861 31.5873L38.404 29.9834L38.188 29.981L38.192 29.629L38.4079 29.6314L38.4125 29.2194ZM38.7541 31.5914L39.446 31.5991L39.4495 31.2871L38.7575 31.2794L38.7541 31.5914ZM39.4639 29.9952L38.772 29.9875L38.7685 30.3035L39.4604 30.3112L39.4639 29.9952ZM38.7613 30.9474L39.4532 30.9552L39.4567 30.6432L38.7647 30.6354L38.7613 30.9474ZM39.4615 31.9993C39.6232 32.2091 39.7531 32.3986 39.8473 32.5597C40.0752 32.2102 40.1961 31.7795 40.2059 31.2596L40.2272 29.3477L41.6431 29.3635L41.608 32.5073C41.6051 32.7633 41.4717 32.8898 41.2117 32.8869L40.7958 32.8823L40.6959 32.5091C40.8398 32.5187 40.9717 32.5282 41.0957 32.5296C41.1837 32.5306 41.2283 32.4751 41.2295 32.3671L41.2377 31.6391L40.5577 31.6315C40.4959 32.1549 40.331 32.5891 40.0631 32.9381L39.7939 32.6831L39.5642 32.8405C39.4664 32.6394 39.3328 32.4219 39.1675 32.184L39.4615 31.9993ZM38.5935 31.9976L38.8958 32.149C38.7487 32.4314 38.5739 32.6774 38.3796 32.8833L38.082 32.6639C38.2761 32.4781 38.4466 32.256 38.5935 31.9976ZM40.5925 30.6679L40.5856 31.2838L41.2416 31.2912L41.2485 30.6752L40.5925 30.6679ZM41.2523 30.3312L41.2591 29.7193L40.6032 29.7119L40.5963 30.3239L41.2523 30.3312Z" fill="white"/>
<path d="M42.133 29.7643L42.6767 29.7478L42.661 29.232L43.0409 29.2204L43.0566 29.7362L43.5483 29.7212L43.5594 30.085L43.0677 30.1L43.0851 30.6717L43.6328 30.6551L43.6439 31.0189L43.0802 31.0361C43.0748 31.1243 43.0654 31.2086 43.0598 31.2888C43.2818 31.4821 43.5084 31.6953 43.7399 31.9364L43.5339 32.2668C43.3255 31.997 43.1512 31.7903 43.0106 31.6425C42.907 32.1819 42.7079 32.6081 42.4133 32.9212L42.1218 32.682C42.4707 32.3112 42.6623 31.7691 42.7003 31.0476L42.1166 31.0654L42.1055 30.7016L42.7052 30.6833L42.6878 30.1116L42.1441 30.1281L42.133 29.7643ZM45.4234 29.2679L45.4915 31.5029L45.1277 31.5139L45.0702 29.6268L44.0906 29.6567L44.1481 31.5438L43.7843 31.5549L43.7162 29.3199L45.4234 29.2679ZM45.3857 32.7587L45.0339 32.7694C44.806 32.7763 44.6902 32.6558 44.6829 32.4159L44.6606 31.6842C44.6172 31.8336 44.5612 31.9674 44.4968 32.0854C44.307 32.4233 43.9869 32.6892 43.5447 32.8868L43.3392 32.5769C43.7734 32.3796 44.0661 32.1346 44.2173 31.8458C44.364 31.5372 44.436 31.1428 44.4373 30.6586L44.4149 29.9229L44.7627 29.9123L44.7851 30.648C44.7871 30.9761 44.7562 31.2731 44.7 31.531L45.0038 31.5217L45.0284 32.3293C45.0305 32.3973 45.0636 32.4323 45.1316 32.4302L45.3155 32.4246C45.3635 32.4232 45.3948 32.4022 45.4176 32.3615C45.4401 32.3128 45.456 32.1762 45.4609 31.944L45.7879 32.0381C45.7744 32.3826 45.7327 32.588 45.6708 32.6579C45.6086 32.7198 45.5136 32.7548 45.3857 32.7587Z" fill="white"/>
<path d="M48.2219 29.3165L48.5892 29.2938L48.7416 31.7611L48.3743 31.7838L48.2219 29.3165ZM49.1845 32.5714L48.6096 32.6069L48.4993 32.249C48.6879 32.2534 48.8641 32.2505 49.0317 32.2402C49.1435 32.2332 49.2 32.1737 49.1933 32.0659L48.9996 28.9318L49.3749 28.9086L49.5745 32.1385C49.5913 32.41 49.4599 32.5543 49.1845 32.5714ZM47.9021 29.8493L47.9847 30.2129L46.8695 30.4541C46.8965 30.6328 46.9306 30.795 46.9717 30.9407C47.013 31.0905 47.0536 31.2282 47.1011 31.3495C47.2934 31.0892 47.4553 30.7906 47.5828 30.4541L47.9248 30.6053C47.7523 31.0568 47.5357 31.4429 47.2708 31.7599C47.3029 31.826 47.3345 31.8842 47.3699 31.9381C47.52 32.1612 47.6549 32.2691 47.7669 32.2662C47.8301 32.2503 47.8821 32.0547 47.927 31.6792L48.2593 31.8671C48.212 32.0744 48.1587 32.25 48.0955 32.3942C48.018 32.5673 47.9236 32.6613 47.8118 32.6682C47.6202 32.6801 47.4244 32.5599 47.221 32.316C47.1474 32.2284 47.0814 32.1322 47.0228 32.0277C46.7956 32.2421 46.542 32.4181 46.2619 32.5556L46.0134 32.2303C46.3249 32.0828 46.6017 31.8934 46.8394 31.6543C46.7786 31.5137 46.7216 31.369 46.6718 31.2118C46.6076 31.0153 46.5536 30.7902 46.5056 30.5327L46.0232 30.6387L45.9446 30.2748L46.4427 30.1639C46.3951 29.8462 46.3569 29.4879 46.3325 29.0926L46.7157 29.069C46.7389 29.4442 46.7679 29.7831 46.8106 30.085L47.9021 29.8493ZM47.2455 29.0162C47.4001 29.183 47.5519 29.37 47.6967 29.5734L47.3872 29.7529C47.2459 29.5412 47.098 29.3539 46.9435 29.1871L47.2455 29.0162Z" fill="white"/>
<path d="M50.3502 28.7865L50.7049 28.7567C50.5603 29.0418 50.4558 29.3276 50.3916 29.6139C50.3008 29.9668 50.2741 30.3182 50.3033 30.665C50.3321 31.0078 50.417 31.3499 50.5657 31.6866C50.6765 31.9543 50.8272 32.2186 51.0177 32.4796L50.6629 32.5094C50.4535 32.2621 50.2872 32.0031 50.1641 31.7324C50.0121 31.404 49.9232 31.0622 49.8931 30.7035C49.8626 30.3408 49.8929 29.985 49.9883 29.6398C50.0639 29.3444 50.1846 29.0613 50.3502 28.7865Z" fill="white"/>
<path d="M53.0734 28.9377C53.344 28.9098 53.5786 28.9621 53.77 29.1033C53.9575 29.2448 54.0659 29.4387 54.0917 29.6894C54.1171 29.9361 54.0445 30.1688 53.8823 30.3905C53.7828 30.5174 53.6034 30.6886 53.3405 30.9087C53.055 31.1431 52.8904 31.341 52.8466 31.5023L54.2672 31.3562L54.3064 31.7382L52.3488 31.9396C52.3197 31.6571 52.3859 31.4009 52.5547 31.1664C52.6455 31.0324 52.8428 30.8392 53.1422 30.5833C53.3192 30.4283 53.4435 30.307 53.5145 30.2152C53.627 30.0589 53.6787 29.8968 53.6615 29.7296C53.6452 29.5705 53.5891 29.4556 53.4934 29.385C53.3977 29.3145 53.2623 29.2882 53.0951 29.3054C52.9161 29.3238 52.7869 29.3974 52.7081 29.5302C52.6249 29.6593 52.5948 29.8354 52.6105 30.067L52.1768 30.1116C52.1481 29.7928 52.2134 29.5288 52.3728 29.3194C52.5345 29.0936 52.771 28.9688 53.0734 28.9377Z" fill="white"/>
<path d="M55.9352 28.6225C56.2687 28.5814 56.5439 28.6886 56.7612 28.948C56.9602 29.1895 57.0865 29.5286 57.1408 29.9693C57.1945 30.406 57.1546 30.7696 57.0201 31.0522C56.8717 31.3525 56.6313 31.5272 56.2978 31.5683C55.9643 31.6093 55.6886 31.4981 55.4718 31.2427C55.2728 31.0012 55.1465 30.6621 55.0922 30.2214C55.0375 29.7768 55.0779 29.4172 55.2129 29.1386C55.3608 28.8342 55.6018 28.6635 55.9352 28.6225ZM55.9802 28.9877C55.746 29.0166 55.5988 29.1636 55.5353 29.4334C55.4853 29.6169 55.4834 29.863 55.521 30.1687C55.5581 30.4704 55.6197 30.7087 55.7131 30.8785C55.8397 31.1209 56.0186 31.2318 56.2528 31.203C56.4831 31.1747 56.6337 31.0231 56.6977 30.7573C56.7432 30.5704 56.7491 30.3238 56.712 30.0221C56.6744 29.7164 56.6089 29.4786 56.5199 29.3122C56.3928 29.0659 56.2105 28.9594 55.9802 28.9877Z" fill="white"/>
<path d="M58.8907 28.2387C59.16 28.2004 59.3964 28.2435 59.5932 28.3771C59.786 28.5113 59.9018 28.7009 59.9373 28.9504C59.9722 29.1959 59.9087 29.4312 59.7553 29.6591C59.6607 29.7897 59.4881 29.9678 59.234 30.1978C58.9577 30.4432 58.8009 30.6473 58.7635 30.8102L60.1773 30.6091L60.2313 30.9893L58.2829 31.2664C58.2429 30.9852 58.2991 30.7267 58.4588 30.4859C58.5443 30.3485 58.7339 30.1478 59.0231 29.8804C59.1941 29.7187 59.3135 29.5926 59.3809 29.4982C59.4873 29.3376 59.5327 29.1736 59.509 29.0072C59.4865 28.8488 59.4261 28.7362 59.3277 28.6694C59.2293 28.6026 59.093 28.5816 58.9266 28.6053C58.7484 28.6306 58.6222 28.7091 58.5486 28.8449C58.4705 28.9772 58.4472 29.1542 58.4719 29.3851L58.0403 29.4464C57.9992 29.1291 58.0542 28.8627 58.2054 28.6472C58.3582 28.4154 58.5897 28.2815 58.8907 28.2387Z" fill="white"/>
<path d="M61.8078 27.8046C62.0764 27.7615 62.3135 27.8004 62.5126 27.9306C62.7078 28.0613 62.827 28.2488 62.8669 28.4976C62.9061 28.7425 62.8468 28.9789 62.6974 29.2094C62.6052 29.3417 62.4358 29.5228 62.1857 29.7574C61.9139 30.0075 61.7607 30.2144 61.7262 30.3779L63.1362 30.1519L63.197 30.531L61.2538 30.8426C61.2088 30.5622 61.2604 30.3027 61.4158 30.0591C61.4989 29.9202 61.6849 29.7161 61.9693 29.4437C62.1374 29.279 62.2546 29.1508 62.3203 29.0552C62.4239 28.8928 62.4663 28.728 62.4397 28.5621C62.4144 28.4041 62.3519 28.2926 62.2524 28.2275C62.1528 28.1625 62.0161 28.1439 61.8503 28.1705C61.6725 28.199 61.5477 28.2797 61.4765 28.4167C61.4007 28.5504 61.3806 28.7278 61.4094 28.9582L60.9789 29.0272C60.9322 28.7106 60.9825 28.4433 61.1298 28.2252C61.2786 27.9907 61.5076 27.8527 61.8078 27.8046Z" fill="white"/>
<path d="M64.0557 28.7599L67.9917 28.047L68.0544 28.3934L64.1185 29.1063L64.0557 28.7599Z" fill="white"/>
<path d="M68.6304 26.593C68.8972 26.54 69.1356 26.5701 69.3394 26.6928C69.5393 26.8162 69.6654 26.9991 69.7145 27.2463C69.7628 27.4895 69.7123 27.728 69.5716 27.9639C69.4844 28.0995 69.3217 28.2868 69.0806 28.5304C68.8183 28.7906 68.6729 29.003 68.6444 29.1677L70.045 28.8894L70.1199 29.266L68.1896 29.6495C68.1343 29.371 68.1762 29.1098 68.3224 28.8605C68.4002 28.7186 68.5786 28.5078 68.8527 28.225C69.0145 28.0542 69.1269 27.9218 69.189 27.8238C69.2864 27.6576 69.3227 27.4913 69.29 27.3266C69.2588 27.1696 69.1923 27.0605 69.0904 26.9992C68.9885 26.9379 68.8512 26.9244 68.6864 26.9571C68.5099 26.9922 68.3882 27.0775 68.3221 27.2171C68.2513 27.3535 68.2378 27.5315 68.2751 27.7606L67.8475 27.8456C67.7891 27.531 67.8294 27.2619 67.9685 27.0386C68.1085 26.7987 68.3322 26.6523 68.6304 26.593Z" fill="white"/>
<path d="M71.514 26.0052C71.8426 25.9351 72.126 26.0177 72.3653 26.257C72.5847 26.4802 72.7403 26.8069 72.833 27.2411C72.9248 27.6714 72.917 28.0371 72.8078 28.3303C72.6863 28.6426 72.4621 28.8377 72.1335 28.9078C71.8049 28.978 71.5206 28.8914 71.2822 28.656C71.0628 28.4329 70.9071 28.1061 70.8145 27.6719C70.7209 27.2338 70.7296 26.872 70.8396 26.5827C70.9603 26.2665 71.1854 26.0753 71.514 26.0052ZM71.5908 26.3651C71.36 26.4144 71.2263 26.5738 71.1867 26.8481C71.153 27.0352 71.1726 27.2805 71.2369 27.5818C71.3004 27.8791 71.3826 28.111 71.4906 28.272C71.6379 28.5023 71.8259 28.5972 72.0567 28.5479C72.2836 28.4995 72.4203 28.3353 72.4608 28.0649C72.4897 27.8747 72.474 27.6286 72.4105 27.3313C72.3462 27.0301 72.2601 26.7989 72.1568 26.641C72.0087 26.4068 71.8177 26.3167 71.5908 26.3651Z" fill="white"/>
<path d="M74.4673 25.3602C74.7482 25.2964 74.9856 25.3122 75.1882 25.4097C75.3831 25.509 75.5114 25.6767 75.5655 25.9147C75.6346 26.2189 75.5255 26.4611 75.2443 26.6316C75.4197 26.6451 75.5622 26.6948 75.6711 26.7767C75.7886 26.8607 75.8665 26.9866 75.9037 27.1505C75.9622 27.4079 75.9203 27.6389 75.782 27.8426C75.632 28.049 75.4057 28.1906 75.1093 28.258C74.8246 28.3227 74.5776 28.3008 74.3732 28.1955C74.1409 28.076 73.9776 27.8629 73.8833 27.5561L74.3124 27.4587C74.3627 27.6441 74.454 27.7751 74.5941 27.85C74.7168 27.9205 74.86 27.9372 75.0239 27.9C75.2033 27.8592 75.3352 27.7718 75.4214 27.6456C75.4937 27.5307 75.5187 27.4061 75.4868 27.2657C75.4496 27.1018 75.3714 26.9924 75.2523 26.9375C75.141 26.8807 74.9917 26.8736 74.8083 26.9153L74.6055 26.9614L74.5328 26.6415L74.7318 26.5963C74.9034 26.5573 75.0233 26.4891 75.0922 26.3955C75.1612 26.3019 75.1832 26.182 75.1513 26.0416C75.1194 25.9012 75.0526 25.8056 74.9577 25.7492C74.8542 25.6907 74.7175 25.6848 74.5537 25.7221C74.3859 25.7602 74.2631 25.8332 74.1889 25.9403C74.1148 26.0474 74.0856 26.1894 74.109 26.3645L73.6916 26.4594C73.6521 26.1771 73.7047 25.9395 73.8526 25.7419C73.9888 25.5468 74.1943 25.4222 74.4673 25.3602Z" fill="white"/>
<path d="M76.5793 24.9346L78.2518 24.5333L78.3414 24.9067L77.0112 25.2259L77.1218 26.0468L77.1335 26.044C77.1976 25.934 77.2799 25.8484 77.3833 25.7824C77.4742 25.7154 77.5862 25.6679 77.7107 25.6381C77.9713 25.5755 78.2058 25.6098 78.4102 25.7417C78.6146 25.8736 78.7562 26.0865 78.8281 26.386C78.8971 26.6738 78.8442 26.9333 78.6781 27.1665C78.5189 27.3775 78.3012 27.5161 78.0251 27.5824C77.7761 27.6421 77.5454 27.6234 77.3338 27.5302C77.1 27.43 76.9416 27.25 76.8606 26.998L77.2767 26.8981C77.3296 27.05 77.4208 27.1556 77.5445 27.2082C77.6546 27.2558 77.7875 27.2609 77.9431 27.2236C78.1142 27.1825 78.2451 27.0935 78.3366 26.9605C78.4271 26.8236 78.4519 26.6696 78.4089 26.4907C78.3623 26.2962 78.2753 26.1566 78.148 26.072C78.0208 25.9873 77.8677 25.9665 77.681 26.0113C77.5565 26.0412 77.4562 26.0858 77.374 26.1549C77.2841 26.2258 77.2279 26.3175 77.1977 26.4317L76.801 26.5269L76.5793 24.9346Z" fill="white"/>
<path d="M79.905 24.5016C79.8108 24.8142 79.6661 25.0902 79.4689 25.3381L79.1422 25.0907C79.4564 24.7017 79.6181 24.2482 79.6263 23.7262L80.024 23.6999C80.0186 23.8415 80.0102 23.9716 79.9931 24.0997L82.3508 23.5032L82.4411 23.8599L81.2506 24.1611L81.386 24.6963L82.4408 24.4294L82.5281 24.7745L81.4733 25.0414L81.6637 25.7937L82.9744 25.4621L83.0656 25.8227L81.7549 26.1543L81.9668 26.9919L81.5984 27.0851L81.3865 26.2475L79.626 26.6929L79.5347 26.3323L80.1435 26.1783L79.8659 25.0809L81.0176 24.7895L80.8822 24.2543L79.905 24.5016ZM80.5158 26.0841L81.2953 25.8869L81.1049 25.1346L80.3255 25.3318L80.5158 26.0841Z" fill="white"/>
<path d="M82.7602 22.9372L83.1044 22.8464C83.3486 23.0509 83.5572 23.2772 83.7312 23.5292C83.9329 23.8235 84.0845 24.1475 84.1773 24.4995C84.2691 24.8476 84.296 25.2004 84.2666 25.5598C84.2375 25.857 84.1676 26.1568 84.057 26.4589L83.7127 26.5497C83.801 26.241 83.8544 25.9415 83.8729 25.6512C83.8964 25.2851 83.8657 24.9333 83.7779 24.6007C83.6892 24.2642 83.5425 23.943 83.3426 23.6399C83.1822 23.3926 82.9881 23.1584 82.7602 22.9372Z" fill="white"/>
<path d="M85.1416 22.3102L86.4329 23.8938L86.1269 25.914L85.7802 25.8595L86.0625 23.995L84.8709 22.5335L85.1416 22.3102Z" fill="white"/>
<path d="M91.9984 20.6752L92.898 23.8336L92.544 23.9344L92.4641 23.6536L91.6293 23.8913L91.7224 24.2183L91.3723 24.318L90.4596 21.1134L91.9984 20.6752ZM91.5306 23.5451L92.3654 23.3073L91.742 21.1184L90.9072 21.3561L91.5306 23.5451ZM88.9437 22.4061L89.5862 22.2231L89.4547 21.7615C89.2854 21.8388 89.1101 21.9095 88.9375 21.9753L88.729 21.6812C89.3083 21.4663 89.7579 21.2343 90.0839 20.9917L90.3436 21.2463C90.1671 21.3714 89.9846 21.49 89.79 21.5953L89.9401 22.1223L90.5672 21.9437L90.6647 22.2861L90.0376 22.4647L90.0814 22.6186C90.3506 22.7457 90.6301 22.8949 90.9201 23.066L90.7945 23.4428C90.5512 23.2459 90.3492 23.0913 90.1822 22.9725L90.6479 24.6075L90.294 24.7083L89.8502 23.1503C89.7884 23.5172 89.6727 23.8704 89.5109 24.2077L89.2392 23.8525C89.4901 23.4483 89.6394 23.0232 89.6892 22.5848L89.6837 22.5655L89.0412 22.7485L88.9437 22.4061Z" fill="white"/>
<path d="M95.4391 19.3874L95.7868 19.4351L95.5409 21.3047L96.7607 22.7427L96.4944 22.9712L95.1725 21.4132L95.4391 19.3874Z" fill="white"/>
<path d="M96.6936 19.1062C96.9942 19.2159 97.2539 19.3421 97.4779 19.475L97.3054 19.8029C97.1055 19.667 96.8409 19.538 96.5165 19.4188L96.6936 19.1062ZM96.5334 20.3456L97.3911 20.0863L97.8807 21.7059C97.9693 21.5705 98.0609 21.4174 98.1594 21.2455L98.3747 21.5983C98.1953 21.9033 97.9936 22.1899 97.7685 22.4544L97.5311 22.1668C97.5762 22.0946 97.5898 22.0153 97.5655 21.9349L97.1441 20.5412L96.6387 20.694L96.5334 20.3456ZM98.038 20.388L99.895 19.8266L99.9957 20.1597C99.9877 20.534 99.8919 20.8806 99.7095 21.2032C100.003 21.2899 100.346 21.3451 100.727 21.3635L100.627 21.7365C100.198 21.6991 99.8268 21.619 99.5086 21.5063C99.2747 21.811 98.9554 22.0955 98.5583 22.3577L98.2628 22.1127C98.6327 21.8713 98.9284 21.619 99.1485 21.3519C98.8117 21.1779 98.5473 20.9528 98.3628 20.6742L98.1445 20.7402L98.038 20.388ZM98.7035 20.5712C98.8622 20.7782 99.0752 20.9436 99.3475 21.0702C99.4975 20.8201 99.5947 20.5609 99.634 20.2899L98.7035 20.5712ZM97.8593 18.829L99.2147 18.4192L99.4578 19.2233C99.4832 19.3075 99.5431 19.3396 99.6388 19.3106L99.9757 19.2088L100.076 19.5419L99.6438 19.6727C99.3719 19.7549 99.1985 19.6652 99.1221 19.4125L98.9578 18.8688L98.3222 19.061L98.3569 19.1758C98.4773 19.574 98.3681 19.9455 98.0321 20.2853L97.7064 20.0787C97.984 19.836 98.0873 19.5833 98.0086 19.3229L97.8593 18.829Z" fill="white"/>
<path d="M101.502 18.8029L102.504 18.4941L102.158 17.3741L102.533 17.2586L102.878 18.3786L103.826 18.0862L103.937 18.4455L102.989 18.7379L103.624 20.7981L103.25 20.9136L102.614 18.8534L101.613 19.1622L101.502 18.8029ZM100.472 17.9319C100.778 18.0426 101.046 18.165 101.277 18.3031L101.106 18.632C100.898 18.4995 100.629 18.3732 100.296 18.2582L100.472 17.9319ZM100.309 19.196L101.192 18.9237L101.694 20.552C101.786 20.4149 101.877 20.2613 101.971 20.094L102.181 20.4353C102.007 20.74 101.807 21.0278 101.584 21.2935L101.346 21.011C101.394 20.9375 101.409 20.8619 101.385 20.7854L100.951 19.3788L100.416 19.5438L100.309 19.196Z" fill="white"/>
<path d="M104.651 16.6732C104.974 16.7816 105.257 16.8982 105.5 17.0317L105.317 17.3699C105.102 17.2445 104.821 17.1229 104.47 17.0064L104.651 16.6732ZM104.875 17.63C105.176 17.7367 105.442 17.8505 105.668 17.9811L105.489 18.3219C105.289 18.1917 105.022 18.0742 104.693 17.9593L104.875 17.63ZM105.539 18.562L105.912 18.5878C105.902 19.119 105.868 19.6244 105.805 20.1091L105.389 20.0634C105.471 19.564 105.52 19.0626 105.539 18.562ZM105.419 16.5963L107.869 15.8294L107.979 16.1806L107.701 16.2678L108.496 18.8102C108.581 19.0812 108.494 19.2593 108.239 19.3393L107.601 19.5388L107.416 19.2153C107.627 19.1661 107.824 19.1128 108.011 19.0543C108.11 19.0232 108.145 18.9454 108.109 18.8309L107.342 16.3801L105.529 16.9475L105.419 16.5963ZM105.837 17.396L107.089 17.0041L107.55 18.4777L106.298 18.8695L105.837 17.396ZM107.111 18.2545L106.854 17.4338L106.274 17.6153L106.531 18.4361L107.111 18.2545Z" fill="white"/>
<path d="M108.129 15.8687L109.689 15.3769C109.669 15.2577 109.647 15.1346 109.621 15.0127L110.006 14.9457C110.029 15.0561 110.049 15.1589 110.063 15.2591L111.547 14.7913L111.654 15.1309L110.113 15.6167C110.125 15.7345 110.136 15.8485 110.145 15.9588L111.568 15.5103L112.23 17.6085C112.316 17.8832 112.231 18.0652 111.979 18.1446L111.617 18.2588L111.411 17.9379L111.753 17.8385C111.848 17.8084 111.881 17.7394 111.85 17.6402L111.321 15.9616L108.993 16.6951L109.686 18.8925L109.331 19.0044L108.532 16.4674L109.775 16.0754C109.765 15.9614 109.754 15.8473 109.739 15.7345L108.236 16.2082L108.129 15.8687ZM109.793 16.5185C109.911 16.6241 110.026 16.7513 110.145 16.9025L110.492 16.7931C110.522 16.6203 110.541 16.4422 110.552 16.2627L110.918 16.2814C110.899 16.4215 110.874 16.5552 110.839 16.6837L111.213 16.5658L111.313 16.8825L110.592 17.1097L110.693 17.4302L111.517 17.1705L111.617 17.4871L110.793 17.7468L111.003 18.4145L110.652 18.5251L110.442 17.8575L109.622 18.116L109.522 17.7993L110.342 17.5408L110.241 17.2204L109.531 17.444L109.432 17.1274L109.798 17.0119C109.707 16.9105 109.611 16.8191 109.506 16.7389L109.793 16.5185Z" fill="white"/>
<path d="M115.338 15.0083L114.53 15.2635L114.603 15.4961L115.465 15.2241L115.559 15.5217L114.697 15.7937L114.772 16.0302L115.744 15.7233L115.839 16.0246L114.867 16.3315L114.964 16.6405L114.613 16.7513L114.516 16.4423L113.68 16.7059L113.585 16.4045L114.421 16.1409L114.346 15.9044L113.629 16.1307L113.535 15.8332L114.252 15.6069L114.179 15.3742L113.542 15.5752L113.447 15.2739L114.084 15.0728L114.009 14.8363L113.185 15.0963L113.092 14.8026L113.916 14.5426L113.844 14.3137L113.207 14.5148L113.113 14.2172L113.75 14.0162L113.669 13.7606L114.02 13.6499L114.101 13.9055L114.91 13.6503L115.076 14.1767L115.305 14.1045L115.397 14.3982L115.169 14.4704L115.338 15.0083ZM114.195 14.203L114.267 14.4319L114.729 14.2862L114.657 14.0574L114.195 14.203ZM114.36 14.7256L114.435 14.9621L114.896 14.8165L114.821 14.58L114.36 14.7256ZM114.749 16.8509C115.181 16.7149 115.623 16.5626 116.076 16.4029L116.125 16.7693L115.007 17.1219C114.305 17.3434 113.773 17.3981 113.409 17.2948C113.362 17.2802 113.323 17.2631 113.293 17.2474C113.224 17.4538 113.129 17.6433 113.008 17.8197L112.674 17.5854C112.806 17.418 112.9 17.2373 112.96 17.0422C112.752 16.8731 112.554 16.646 112.364 16.3621L112.634 16.1552C112.771 16.3636 112.905 16.5353 113.038 16.6652C113.065 16.3924 113.04 16.0985 112.966 15.7861L112.28 16.0027L112.193 15.7281C112.315 15.3961 112.413 15.0548 112.494 14.7019L111.926 14.8813L111.818 14.5379L112.79 14.231L112.884 14.5285C112.814 14.9031 112.734 15.2346 112.642 15.5278L113.195 15.3533L113.263 15.5707C113.402 16.0638 113.439 16.5135 113.374 16.9198C113.435 16.9512 113.496 16.9737 113.559 16.9873C113.851 17.0464 114.247 17.0009 114.749 16.8509Z" fill="white"/>
<path d="M115.703 13.1899C116.005 13.2964 116.266 13.4198 116.491 13.5503L116.323 13.8801C116.121 13.7462 115.855 13.6201 115.53 13.5044L115.703 13.1899ZM115.556 14.4309L116.411 14.1625L116.918 15.7768C117.005 15.6404 117.095 15.4864 117.192 15.3135L117.411 15.664C117.235 15.9708 117.036 16.2596 116.814 16.5264L116.573 16.2414C116.618 16.1688 116.63 16.0893 116.605 16.0091L116.169 14.62L115.665 14.7782L115.556 14.4309ZM117.061 14.4572L118.912 13.8761L119.017 14.2081C119.012 14.5825 118.92 14.9301 118.741 15.2546C119.036 15.3382 119.379 15.3897 119.761 15.404L119.665 15.7781C119.235 15.7452 118.863 15.6691 118.544 15.5598C118.313 15.867 117.997 16.155 117.603 16.4213L117.304 16.1795C117.672 15.9342 117.965 15.6787 118.182 15.4093C117.843 15.2389 117.577 15.0166 117.389 14.74L117.172 14.8083L117.061 14.4572ZM117.729 14.6334C117.89 14.8386 118.104 15.0018 118.378 15.1255C118.525 14.8738 118.62 14.6136 118.656 14.3422L117.729 14.6334ZM116.866 12.9003L118.217 12.4761L118.469 13.2775C118.495 13.3615 118.555 13.3929 118.651 13.3629L118.986 13.2575L119.091 13.5895L118.659 13.7249C118.388 13.81 118.214 13.7222 118.135 13.4703L117.965 12.9284L117.331 13.1273L117.367 13.2418C117.492 13.6387 117.387 14.0113 117.054 14.3547L116.726 14.1516C117.001 13.9059 117.102 13.6521 117.021 13.3926L116.866 12.9003Z" fill="white"/>
<path d="M120.821 11.7603L122.685 11.1822L122.795 11.5376L120.931 12.1156L120.821 11.7603ZM121.021 12.7451L123.146 12.0865L123.256 12.4418L122.66 12.6266L123.162 14.2465C123.238 14.491 123.138 14.6559 122.867 14.74L122.313 14.9118L122.123 14.5813C122.303 14.5421 122.477 14.4965 122.638 14.4467C122.749 14.4124 122.793 14.3526 122.768 14.2723L122.293 12.7403L121.132 13.1004L121.021 12.7451ZM120.113 11.7745L120.493 11.8243C120.417 12.3085 120.189 12.7895 119.804 13.2774L119.581 12.9488C119.87 12.5702 120.046 12.1805 120.113 11.7745ZM120.564 12.5937L120.94 12.6447C120.901 12.883 120.831 13.1181 120.732 13.3501L121.317 15.2374L120.961 15.3476L120.486 13.8155C120.386 13.9766 120.276 14.1363 120.15 14.2968L119.931 13.9708C120.272 13.5301 120.486 13.0703 120.564 12.5937Z" fill="white"/>
<path d="M123.578 10.9317L125.002 10.4992L125.108 10.8475L123.684 11.28L123.578 10.9317ZM123.751 12.0081L125.454 11.4908L125.561 11.8429L124.7 12.1044C124.721 12.6706 124.719 13.0894 124.693 13.3646C124.93 13.2343 125.163 13.0798 125.39 12.9063C125.245 12.7455 125.104 12.5961 124.966 12.4583L125.227 12.216C125.5 12.4841 125.777 12.7889 126.055 13.1266L125.79 13.3827L125.616 13.1679C125.256 13.4278 124.857 13.6701 124.416 13.8962L124.223 13.5784C124.259 13.5592 124.279 13.5407 124.291 13.5246C124.349 13.3439 124.367 12.9079 124.347 12.2114L123.858 12.3602L123.751 12.0081ZM125.592 10.0735L125.952 9.9642L126.177 10.7067L127.004 10.4556C127.383 11.7033 127.597 12.4784 127.651 12.7798C127.697 13.0835 127.546 13.2882 127.198 13.394C127.137 13.4126 127.027 13.4375 126.872 13.4763L126.69 13.1804C126.831 13.15 126.952 13.1216 127.052 13.0914C127.22 13.0403 127.288 12.9193 127.263 12.7263C127.231 12.5395 127.06 11.9351 126.759 10.9147L126.284 11.0588L126.295 11.0933C126.618 12.199 126.598 13.083 126.232 13.7501L125.887 13.5915C126.213 12.9993 126.23 12.2038 125.935 11.2025L125.924 11.1681L125.438 11.3157L125.331 10.9636L125.817 10.816L125.592 10.0735Z" fill="white"/>
<path d="M126.925 10.2391L128.54 9.76161C128.423 9.63356 128.297 9.51658 128.156 9.40798L128.464 9.17932C128.614 9.30597 128.764 9.46174 128.912 9.65159L130.335 9.23082L130.44 9.58372L128.445 10.1735L128.592 10.7848L130.173 10.3175C130.405 11.1456 130.524 11.6737 130.525 11.9028C130.531 12.2346 130.386 12.4486 130.085 12.5458C129.962 12.5821 129.81 12.6187 129.638 12.6571L129.433 12.359C129.639 12.3065 129.814 12.2632 129.952 12.2223C130.111 12.167 130.18 12.0213 130.158 11.7776C130.143 11.6404 130.055 11.3032 129.907 10.7716L128.652 11.1425C128.686 11.4537 128.674 11.7533 128.609 12.0396C128.518 12.4251 128.343 12.8064 128.087 13.1823L127.748 13.0074C128.054 12.5458 128.229 12.1519 128.273 11.8218C128.318 11.4917 128.294 11.1441 128.207 10.7779C128.152 10.5646 128.111 10.3974 128.084 10.2801L127.03 10.592L126.925 10.2391Z" fill="white"/>
<path d="M132.228 8.77755L132.586 8.77962C132.549 8.86913 132.515 8.95371 132.479 9.03059L134.133 8.55998L134.216 8.85238L133.585 9.03186C133.51 9.21969 133.419 9.38277 133.317 9.52001C133.659 9.50996 134.012 9.50927 134.378 9.52178L134.245 9.85899C133.834 9.83434 133.423 9.82233 133.018 9.82955C132.667 10.1291 132.171 10.3742 131.535 10.5674L131.25 10.3242C131.788 10.171 132.204 10.0072 132.489 9.84267C132.231 9.85391 131.974 9.87285 131.722 9.89454C131.789 9.7633 131.852 9.63315 131.916 9.50685L131.138 9.72793L131.055 9.43553L132.079 9.14441C132.131 9.02139 132.18 8.89947 132.228 8.77755ZM132.885 9.53874C133.007 9.41251 133.107 9.28021 133.178 9.14788L132.316 9.39303L132.214 9.59236C132.432 9.56789 132.656 9.55001 132.885 9.53874ZM133.973 7.9109L134.138 8.488L133.799 8.58432L133.721 8.31115L131.267 9.00941L131.344 9.28257L131.006 9.37888L130.842 8.80178L132.223 8.40887C132.153 8.33736 132.08 8.2708 132.004 8.20917L132.367 8.03926C132.44 8.11847 132.511 8.20646 132.588 8.3049L133.973 7.9109ZM131.314 10.8133L132.795 10.3919L132.717 10.1149L133.086 10.0098L133.165 10.2869L134.634 9.86878L134.724 10.1843L133.562 10.5148C133.901 10.6679 134.363 10.7404 134.941 10.7257L134.874 11.0899C134.189 11.0518 133.657 10.9077 133.269 10.6524L133.527 11.5603L133.158 11.6654L132.897 10.7497C132.73 11.155 132.364 11.5667 131.796 11.9946L131.504 11.7283C132.038 11.385 132.395 11.0755 132.573 10.7961L131.404 11.1288L131.314 10.8133Z" fill="white"/>
<path d="M135.103 7.26709L135.446 7.17301C135.356 7.47974 135.306 7.77975 135.295 8.07305C135.27 8.43654 135.308 8.78696 135.4 9.12259C135.491 9.45436 135.637 9.77519 135.844 10.0791C136.002 10.322 136.199 10.5544 136.434 10.7762L136.09 10.8703C135.839 10.6653 135.628 10.4411 135.458 10.1974C135.249 9.9023 135.099 9.58253 135.004 9.23533C134.907 8.88427 134.872 8.52893 134.903 8.1721C134.923 7.86792 134.99 7.56753 135.103 7.26709Z" fill="white"/>
<path d="M137.971 6.90251C138.234 6.83327 138.474 6.84873 138.685 6.95867C138.892 7.06961 139.029 7.2445 139.093 7.4882C139.156 7.72803 139.121 7.96908 138.995 8.2132C138.916 8.35389 138.765 8.55077 138.539 8.80874C138.293 9.08442 138.161 9.30532 138.143 9.47146L139.524 9.10797L139.621 9.47933L137.718 9.98026C137.646 9.70561 137.672 9.44237 137.803 9.18461C137.872 9.03822 138.037 8.81691 138.293 8.51781C138.444 8.33742 138.548 8.19836 138.604 8.09676C138.691 7.92493 138.717 7.75675 138.674 7.59429C138.634 7.43956 138.561 7.33471 138.455 7.27975C138.35 7.22478 138.212 7.2197 138.049 7.26246C137.875 7.30828 137.759 7.40092 137.702 7.54425C137.639 7.68473 137.637 7.86329 137.688 8.08968L137.266 8.20066C137.189 7.89018 137.213 7.6192 137.338 7.3877C137.463 7.13972 137.677 6.97989 137.971 6.90251Z" fill="white"/>
<path d="M140.787 6.17544C141.113 6.09408 141.399 6.16696 141.647 6.39795C141.874 6.61341 142.04 6.9346 142.148 7.36538C142.254 7.79229 142.259 8.15804 142.16 8.45486C142.049 8.77108 141.832 8.97375 141.506 9.05512C141.18 9.13648 140.893 9.05972 140.646 8.83261C140.419 8.61715 140.253 8.29596 140.145 7.86518C140.037 7.43051 140.033 7.06864 140.133 6.7757C140.243 6.4556 140.461 6.25681 140.787 6.17544ZM140.876 6.53249C140.647 6.58964 140.519 6.75354 140.489 7.02905C140.462 7.21725 140.49 7.46173 140.564 7.76057C140.638 8.05552 140.728 8.28451 140.842 8.44172C140.997 8.66685 141.188 8.75521 141.417 8.69807C141.642 8.64189 141.773 8.47314 141.804 8.20151C141.826 8.0104 141.802 7.76494 141.729 7.46999C141.654 7.17116 141.56 6.94314 141.451 6.78884C141.295 6.55982 141.101 6.47631 140.876 6.53249Z" fill="white"/>
<path d="M143.621 5.48299C143.886 5.42098 144.126 5.44299 144.333 5.55865C144.537 5.67522 144.67 5.85379 144.727 6.09915C144.784 6.34062 144.741 6.5806 144.609 6.82118C144.526 6.95966 144.37 7.15235 144.137 7.40404C143.884 7.67289 143.745 7.8901 143.723 8.05567L145.113 7.73009L145.201 8.10398L143.284 8.55268C143.22 8.27616 143.253 8.01371 143.39 7.75963C143.463 7.61518 143.634 7.39846 143.899 7.10649C144.055 6.9303 144.163 6.79414 144.221 6.69411C144.313 6.52472 144.344 6.35732 144.305 6.19375C144.269 6.03796 144.199 5.93115 144.095 5.87333C143.991 5.8155 143.853 5.80664 143.69 5.84495C143.514 5.88599 143.396 5.97541 143.334 6.11712C143.268 6.25585 143.261 6.43427 143.306 6.66198L142.881 6.76138C142.812 6.4489 142.844 6.17867 142.975 5.95069C143.107 5.70621 143.325 5.5523 143.621 5.48299Z" fill="white"/>
<path d="M146.899 4.73986C147.165 4.68267 147.404 4.70903 147.61 4.82845C147.811 4.94871 147.94 5.12964 147.993 5.37601C148.045 5.61846 147.999 5.85764 147.862 6.09577C147.777 6.23273 147.617 6.42254 147.38 6.66996C147.121 6.93416 146.979 7.14882 146.954 7.31395L148.35 7.0137L148.43 7.38912L146.506 7.80291C146.447 7.52526 146.484 7.26346 146.627 7.01192C146.702 6.86882 146.877 6.65525 147.147 6.36813C147.306 6.1948 147.416 6.06062 147.477 5.96168C147.572 5.79399 147.605 5.62717 147.57 5.46293C147.536 5.30651 147.468 5.19844 147.365 5.13873C147.262 5.07902 147.125 5.06767 146.961 5.103C146.785 5.14084 146.664 5.2281 146.601 5.36867C146.532 5.50617 146.521 5.68442 146.562 5.91291L146.136 6.00459C146.073 5.6909 146.109 5.42128 146.244 5.19572C146.38 4.95369 146.602 4.80378 146.899 4.73986Z" fill="white"/>
<path d="M148.691 5.66956L152.619 4.91705L152.685 5.26276L148.757 6.01527L148.691 5.66956Z" fill="white"/>
<path d="M153.855 3.40387C154.123 3.36018 154.36 3.39858 154.56 3.52824C154.755 3.65853 154.875 3.84575 154.915 4.09448C154.955 4.33926 154.896 4.57577 154.748 4.80668C154.656 4.93916 154.487 5.12066 154.237 5.35578C153.966 5.6066 153.813 5.81382 153.779 5.97743L155.189 5.74808L155.25 6.1271L153.308 6.44317C153.262 6.16286 153.313 5.9033 153.468 5.65927C153.551 5.52017 153.736 5.31572 154.02 5.04259C154.188 4.87752 154.305 4.74908 154.37 4.65332C154.473 4.49063 154.515 4.32573 154.488 4.15992C154.463 4.00199 154.4 3.89062 154.3 3.82579C154.201 3.76096 154.064 3.74268 153.898 3.76966C153.72 3.79857 153.596 3.87963 153.525 4.0168C153.449 4.15066 153.43 4.32814 153.459 4.55841L153.029 4.62843C152.981 4.31194 153.031 4.04449 153.178 3.82608C153.326 3.59122 153.555 3.45269 153.855 3.40387Z" fill="white"/>
<path d="M156.801 2.95544C157.134 2.91035 157.411 3.01418 157.631 3.27092C157.833 3.50999 157.964 3.84753 158.023 4.28751C158.082 4.72353 158.047 5.08758 157.916 5.37174C157.771 5.6739 157.533 5.85149 157.2 5.89659C156.867 5.94168 156.59 5.83388 156.37 5.58111C156.168 5.34204 156.038 5.0045 155.978 4.56452C155.918 4.12057 155.954 3.76048 156.085 3.48028C156.23 3.17416 156.469 3.00053 156.801 2.95544ZM156.851 3.32011C156.617 3.35178 156.472 3.50063 156.411 3.77117C156.364 3.95524 156.365 4.20132 156.406 4.50654C156.447 4.80779 156.511 5.04529 156.607 5.21399C156.736 5.45479 156.917 5.56359 157.15 5.53192C157.38 5.50078 157.529 5.34743 157.59 5.08086C157.633 4.89336 157.636 4.64674 157.595 4.34549C157.554 4.04028 157.485 3.80331 157.394 3.63803C157.264 3.39327 157.081 3.28897 156.851 3.32011Z" fill="white"/>
<path d="M159.743 2.59038C160.013 2.56188 160.248 2.61358 160.44 2.75427C160.628 2.89537 160.736 3.08903 160.763 3.33964C160.789 3.58628 160.717 3.8191 160.555 4.04125C160.456 4.16835 160.277 4.34004 160.015 4.56074C159.73 4.79588 159.566 4.99416 159.522 5.15559L160.942 5.006L160.983 5.38789L159.025 5.59404C158.996 5.3116 159.061 5.05533 159.229 4.82041C159.32 4.68619 159.517 4.49251 159.815 4.23581C159.992 4.08044 160.116 3.95879 160.187 3.86687C160.299 3.71026 160.35 3.54799 160.333 3.38092C160.316 3.2218 160.26 3.10707 160.164 3.03672C160.068 2.96638 159.932 2.94043 159.765 2.95803C159.586 2.97688 159.457 3.0508 159.379 3.18375C159.296 3.31315 159.266 3.48923 159.283 3.72079L158.849 3.76646C158.819 3.44781 158.884 3.18358 159.043 2.97378C159.204 2.74765 159.44 2.62222 159.743 2.59038Z" fill="white"/>
<path d="M161.688 2.4447L163.404 2.32079L163.431 2.70379L162.067 2.80235L162.042 3.63026L162.054 3.62939C162.135 3.53129 162.231 3.46025 162.343 3.412C162.444 3.36062 162.562 3.33203 162.69 3.32281C162.957 3.3035 163.183 3.37542 163.363 3.53886C163.543 3.7023 163.648 3.93533 163.671 4.24253C163.692 4.53776 163.598 4.78521 163.396 4.98828C163.204 5.17054 162.967 5.2719 162.684 5.29237C162.428 5.31081 162.204 5.25485 162.01 5.12847C161.796 4.99156 161.669 4.78818 161.63 4.52631L162.057 4.49547C162.084 4.6539 162.157 4.77297 162.27 4.84498C162.371 4.90988 162.502 4.93656 162.661 4.92503C162.837 4.91235 162.98 4.84584 163.092 4.72947C163.204 4.60912 163.253 4.46117 163.24 4.27765C163.226 4.07817 163.163 3.92632 163.051 3.8221C162.939 3.71789 162.791 3.67241 162.6 3.68624C162.472 3.69546 162.366 3.72319 162.274 3.77798C162.173 3.83335 162.103 3.91463 162.055 4.02239L161.648 4.05179L161.688 2.4447Z" fill="white"/>
<path d="M165.593 2.55512C165.433 2.83931 165.231 3.07653 164.984 3.27488L164.719 2.9615C165.112 2.65142 165.369 2.24472 165.493 1.73742L165.886 1.79942C165.85 1.9364 165.813 2.06137 165.768 2.18256L168.199 2.12064L168.209 2.48853L166.981 2.51979L166.995 3.07161L168.083 3.04391L168.092 3.39979L167.004 3.42749L167.024 4.20324L168.375 4.16882L168.385 4.5407L167.033 4.57512L167.055 5.43884L166.675 5.44851L166.653 4.58479L164.838 4.63102L164.829 4.25915L165.456 4.24316L165.428 3.11152L166.615 3.08128L166.601 2.52946L165.593 2.55512ZM165.84 4.23338L166.644 4.21291L166.624 3.43717L165.82 3.45763L165.84 4.23338ZM168.86 1.65968L169.216 1.65062C169.406 1.90585 169.557 2.1741 169.668 2.45935C169.797 2.79219 169.87 3.14245 169.879 3.50633C169.888 3.86621 169.833 4.21573 169.722 4.55867C169.625 4.84123 169.488 5.11681 169.311 5.38541L168.955 5.39447C169.112 5.11438 169.233 4.83522 169.318 4.55696C169.425 4.20612 169.476 3.85671 169.467 3.51282C169.458 3.16493 169.389 2.81857 169.265 2.47764C169.166 2.20007 169.031 1.92742 168.86 1.65968ZM173.098 1.55174L173.974 3.39806L173.193 5.28653L172.87 5.15072L173.59 3.40783L172.782 1.70384L173.098 1.55174ZM173.782 1.53433L174.657 3.38065L173.877 5.26912L173.554 5.13331L174.273 3.39042L173.45 1.68684L173.782 1.53433Z" fill="white"/>
</svg>
