<svg width="60" height="21" viewBox="0 0 60 21" fill="none" xmlns="http://www.w3.org/2000/svg">
<path d="M6.04163 2.57687L6.24375 2.88147L4.64644 3.89596L4.34057 5.75669L3.99399 5.70175L4.32525 3.6855L6.04163 2.57687ZM6.61375 2.95176L6.80248 3.24759L5.21855 4.27085L4.91269 6.13158L4.56611 6.07664L4.89737 4.06039L6.61375 2.95176Z" fill="white"/>
<path d="M8.1879 4.71444C8.09007 4.76718 7.99509 4.8076 7.90219 4.8446L9.60224 5.88282C9.41062 6.17356 9.23985 6.43016 9.09334 6.65472L9.36303 6.81941L9.17957 7.11982L8.89623 6.94679C8.75882 7.14877 8.64225 7.31662 8.54995 7.45241L8.80598 7.60877L8.63711 7.88529L8.35719 7.71433C8.29824 7.79551 8.25464 7.84387 8.23114 7.86702C8.1282 7.95882 8.0133 8.00114 7.88645 7.99397C7.75959 7.98681 7.60636 7.93073 7.42202 7.81815C7.32644 7.75977 7.21852 7.69856 7.09563 7.62351L7.18275 7.27364C7.31304 7.36727 7.43518 7.45123 7.54442 7.51795C7.62635 7.56798 7.70771 7.6036 7.7775 7.62747C7.85354 7.6411 7.93052 7.6225 8.00294 7.57299C8.0126 7.56483 8.02644 7.54985 8.04995 7.52671L6.43183 6.53852C6.65114 6.30219 6.86155 6.06511 7.05621 5.8231L6.74215 5.6313L6.92561 5.33089L7.27381 5.54353C7.4353 5.33282 7.5858 5.12476 7.72397 4.91386C7.62082 4.94461 7.52868 4.9727 7.4407 4.99397L7.38806 4.61968C7.73371 4.54486 8.09318 4.37069 8.46987 4.09923L8.75248 4.36556C8.67798 4.41848 8.60556 4.468 8.53522 4.51409L10.0612 5.44599L9.87771 5.7464L8.1879 4.71444ZM7.36345 6.01072C7.22489 6.18389 7.09126 6.34131 6.95914 6.48091L7.71699 6.94373C7.68338 6.76853 7.62112 6.57116 7.5234 6.34744L7.80724 6.28175L7.36345 6.01072ZM7.73747 6.95624L8.24271 7.26478C8.33293 7.1324 8.44949 6.96456 8.58899 6.75916L7.86527 6.31719C7.95218 6.52024 8.01519 6.7087 8.0543 6.88257L7.73747 6.95624ZM8.78269 6.465L9.11381 5.96886L7.92582 5.24336C7.80717 5.41462 7.69269 5.57905 7.58105 5.73116L8.24673 6.13769C8.20269 5.97956 8.1321 5.79585 8.03078 5.59336L8.35311 5.51837C8.45784 5.72293 8.53659 5.91632 8.58803 6.09303L8.2877 6.16271L8.78269 6.465ZM7.42794 3.55667C7.54729 3.82172 7.63042 4.06933 7.68282 4.29819L7.30892 4.38856C7.26942 4.17696 7.18629 3.92934 7.0603 3.6368L7.42794 3.55667ZM6.86672 4.35285C6.98399 4.62132 7.06503 4.87235 7.11326 5.10803L6.74486 5.19707C6.70536 4.98547 6.62432 4.73444 6.49699 4.4364L6.86672 4.35285ZM6.5288 5.54319L6.74202 5.82338C6.36022 6.1339 5.97803 6.40669 5.59128 6.64857L5.37218 6.33197C5.77675 6.0916 6.1616 5.82981 6.5288 5.54319Z" fill="white"/>
<path d="M10.3674 5.68986L11.7968 6.48556C11.8692 6.3885 11.9434 6.28793 12.0142 6.18542L12.328 6.41957C12.263 6.51159 12.2019 6.59663 12.1393 6.67622L13.4989 7.43301L13.3257 7.74407L11.9138 6.9581C11.8364 7.04778 11.7609 7.13397 11.6874 7.21666L12.9911 7.94232L11.921 9.86458C11.781 10.1162 11.5902 10.1794 11.3595 10.051L11.0275 9.86617L11.1191 9.49599L11.4262 9.67613C11.5136 9.72476 11.5863 9.70112 11.6369 9.61025L12.4929 8.07245L10.3609 6.88571L9.24032 8.89883L8.91529 8.7179L10.209 6.39372L11.3484 7.02795C11.4238 6.94176 11.4993 6.85557 11.5712 6.76744L10.1942 6.00092L10.3674 5.68986ZM11.0389 7.34549C11.0426 7.50323 11.0297 7.67456 11.0015 7.86491L11.3196 8.04195C11.4654 7.94455 11.608 7.83627 11.7457 7.72061L11.984 7.99976C11.8693 8.08242 11.755 8.15614 11.6376 8.21898L11.9801 8.40964L11.8187 8.69973L11.1581 8.33203L10.9947 8.62561L11.7496 9.04584L11.5881 9.33592L10.8332 8.9157L10.4928 9.52733L10.1712 9.34834L10.5117 8.73671L9.76025 8.31844L9.92172 8.02835L10.6732 8.44663L10.8366 8.15305L10.1865 7.79119L10.348 7.5011L10.6835 7.68787C10.6949 7.55229 10.6954 7.4198 10.6815 7.28847L11.0389 7.34549Z" fill="white"/>
<path d="M14.2982 8.34433L16.0735 9.22097L15.9212 9.52942L15.2075 9.17699L14.9897 9.61814L15.5922 9.91567L15.4434 10.2169L14.8409 9.91941L14.5947 10.4179L14.9606 10.5986C14.9668 10.4232 14.9589 10.2677 14.9403 10.1246L15.2518 10.1714C15.2776 10.3269 15.2891 10.4843 15.2828 10.6507L15.0466 10.6411L15.4125 10.8217L15.2602 11.1302L13.284 10.1544L13.4363 9.84592L14.2504 10.2479L14.4966 9.7494L13.894 9.45187L14.0428 9.1506L14.6453 9.44813L14.8632 9.00698L14.1459 8.65278L14.2982 8.34433ZM16.9756 8.95709L15.4118 12.124L15.0675 11.954L15.1348 11.8177L12.8107 10.6701L12.7434 10.8064L12.3991 10.6364L13.9629 7.46945L16.9756 8.95709ZM12.9683 10.3509L15.2924 11.4985L16.4719 9.10987L14.1478 7.96226L12.9683 10.3509Z" fill="white"/>
<path d="M18.1925 11.3225L18.4792 11.5272C18.1421 11.9923 17.7832 12.3656 17.4025 12.6469L17.1938 12.3407C17.576 12.0556 17.9119 11.7161 18.1925 11.3225ZM19.5835 11.854C19.5626 12.332 19.5123 12.8279 19.431 13.3454L19.0639 13.35C19.155 12.7888 19.2153 12.2797 19.2342 11.8269L19.5835 11.854ZM17.9885 13.2312L17.6241 13.076L17.6916 12.7135C17.7957 12.7752 17.8977 12.8317 18.0008 12.8756C18.0891 12.9132 18.1552 12.8805 18.1975 12.7811L18.84 11.2722L17.9567 10.8961L18.1009 10.5575L20.2023 11.4523L20.0582 11.7909L19.1859 11.4195L18.5058 13.0167C18.4024 13.2596 18.2277 13.333 17.9885 13.2312ZM18.7015 9.76983L20.387 10.4875L20.2444 10.8224L18.5589 10.1047L18.7015 9.76983ZM17.3496 9.11594L18.5273 9.6174L18.4097 9.89342C18.1646 10.1629 17.8947 10.4393 17.5986 10.7262C17.6658 11.1505 17.6545 11.4935 17.5611 11.7537C17.4891 11.923 17.399 12.0324 17.2977 12.0762C17.1555 12.1244 16.9585 12.097 16.703 11.9926L16.7404 11.6085C16.8093 11.6509 16.8651 11.6833 16.9129 11.7037C17.008 11.7355 17.0732 11.7459 17.1152 11.729C17.1556 11.7157 17.1944 11.6757 17.2226 11.6095C17.3276 11.3629 17.331 11.0383 17.2344 10.632C17.5568 10.3345 17.8266 10.0581 18.0477 9.80445L17.5471 9.59133L16.2935 12.5355L15.9549 12.3914L17.3496 9.11594Z" fill="white"/>
<path d="M21.2513 10.661C21.4281 10.9277 21.5621 11.1835 21.6635 11.4234L21.33 11.5849C21.2499 11.3568 21.1134 11.0959 20.9232 10.8074L21.2513 10.661ZM20.3867 11.5633L21.2308 11.8637L20.6634 13.4578C20.8151 13.4014 20.9797 13.3326 21.161 13.2528L21.1248 13.6645C20.7994 13.8034 20.4669 13.9143 20.1288 13.9935L20.1085 13.6212C20.1876 13.5899 20.2456 13.5341 20.2738 13.455L20.762 12.0833L20.2646 11.9062L20.3867 11.5633ZM21.5724 12.4906L23.4 13.1411L23.2833 13.469C23.0547 13.7655 22.7719 13.9875 22.4335 14.1388C22.6184 14.3829 22.8613 14.6307 23.1576 14.872L22.8554 15.1126C22.5322 14.8278 22.2811 14.5431 22.0919 14.2635C21.7229 14.3699 21.297 14.4093 20.8218 14.3846L20.7294 14.012C21.1704 14.0374 21.5581 14.0098 21.8938 13.9255C21.7261 13.5855 21.6469 13.2474 21.6638 12.9137L21.449 12.8373L21.5724 12.4906ZM21.9991 13.0331C22.004 13.2938 22.0772 13.5534 22.2212 13.8169C22.4904 13.7047 22.7224 13.5538 22.9149 13.359L21.9991 13.0331ZM22.3539 11.1299L23.6879 11.6047L23.4062 12.3961C23.3767 12.479 23.4058 12.5403 23.5001 12.5738L23.8317 12.6918L23.715 13.0197L23.2892 12.8681C23.0216 12.7729 22.9353 12.5978 23.0238 12.3491L23.2143 11.814L22.5887 11.5913L22.5485 11.7044C22.409 12.0963 22.1006 12.3305 21.6285 12.4044L21.489 12.0448C21.8565 12.0143 22.0897 11.8722 22.1809 11.616L22.3539 11.1299Z" fill="white"/>
<path d="M25.4565 13.2394L26.4636 13.5293L26.7879 12.4031L27.1646 12.5115L26.8403 13.6378L27.7936 13.9122L27.6896 14.2735L26.7363 13.9991L26.1398 16.0709L25.7631 15.9625L26.3596 13.8906L25.3525 13.6007L25.4565 13.2394ZM25.0712 11.9463C25.2668 12.2066 25.424 12.4558 25.5417 12.6978L25.2188 12.8796C25.117 12.6546 24.961 12.4016 24.7456 12.1231L25.0712 11.9463ZM24.2429 12.915L25.1308 13.1706L24.6594 14.8081C24.8112 14.7436 24.9713 14.6648 25.1423 14.5766L25.1311 14.9772C24.8187 15.137 24.4937 15.2682 24.1611 15.3681L24.1167 15.0015C24.1976 14.9665 24.251 14.9111 24.2731 14.8342L24.6803 13.4197L24.1422 13.2648L24.2429 12.915Z" fill="white"/>
<path d="M29.6323 16.3399L29.7583 15.7902L30.1209 15.8733L29.9467 16.6336C30.0208 16.6505 30.0862 16.6696 30.1408 16.6821C30.2538 16.708 30.3455 16.6839 30.418 16.6184C30.4913 16.5491 30.6011 16.2131 30.7387 15.6127L28.3214 15.0588L28.7269 13.2887L29.5145 13.4691C29.5977 13.3569 29.6701 13.238 29.7316 13.1126L30.0904 13.2482C30.0324 13.358 29.9675 13.4621 29.8927 13.5558L31.117 13.8363C30.95 14.4218 30.8198 14.7572 30.7246 14.8503C30.6294 14.9434 30.4844 14.9676 30.2894 14.9229L30.0555 14.8693L30.0201 14.5042C30.1509 14.5424 30.267 14.5731 30.3645 14.5954C30.419 14.6079 30.4595 14.5925 30.4927 14.555C30.522 14.5166 30.5743 14.3603 30.6503 14.0823L29.0244 13.7097L28.7725 14.8092L31.1859 15.3622C30.9646 16.2923 30.7868 16.8178 30.6436 16.941C30.5023 17.0563 30.303 17.0845 30.0534 17.0274L29.8156 16.9729L29.7994 16.7393L27.7485 16.2694L27.9531 15.3766L28.3118 15.4588L28.1858 16.0085L28.7317 16.1336L28.9014 15.3928L29.2601 15.475L29.0904 16.2158L29.6323 16.3399ZM29.4346 13.9432C29.6148 14.1241 29.7731 14.3286 29.9096 14.5568L29.6341 14.7563C29.4925 14.5146 29.3329 14.2975 29.1516 14.1041L29.4346 13.9432Z" fill="white"/>
<path d="M33.8014 13.952C33.8338 14.088 33.8594 14.2389 33.8861 14.4063L35.252 14.6528L35.188 15.0071L34.5267 14.8877C34.4554 15.0578 34.369 15.221 34.2683 15.3736L35.1776 15.5377L35.1123 15.8998L32.3174 15.3954L32.2215 15.9268C32.0949 16.5381 31.8677 17.0092 31.5325 17.3348L31.2906 17.0311C31.5572 16.7703 31.7413 16.3808 31.8436 15.8586L32.0049 14.9651L32.8001 15.1086L32.7553 14.568L32.0547 14.4416L32.1186 14.0873L33.5042 14.3374C33.4765 14.1983 33.4395 14.0656 33.3964 13.944L33.8014 13.952ZM33.1701 15.1754L33.9101 15.3089C34.0108 15.1564 34.0972 14.9931 34.1685 14.8231L33.1214 14.6341L33.1701 15.1754Z" fill="white"/>
<path d="M37.0641 14.5671L37.4404 14.62L37.0027 17.7334L37.478 17.8002L37.9157 14.6868L38.292 14.7397L37.8543 17.8531L39.0109 18.0157L38.9591 18.3841L35.4259 17.8874L35.4777 17.519L36.6264 17.6805L37.0641 14.5671ZM38.9291 15.5806L39.2485 15.7225C39.0022 16.3826 38.7246 16.9495 38.4151 17.427L38.0951 17.2609C38.3815 16.8326 38.6625 16.2702 38.9291 15.5806ZM36.213 15.1907C36.3403 15.7499 36.4334 16.381 36.4961 17.0845L36.1392 17.1232C36.0919 16.4824 36.0023 15.8558 35.8776 15.2486L36.213 15.1907Z" fill="white"/>
<path d="M39.774 16.2014L40.2163 15.0752L40.587 15.1805L40.299 15.8932L40.8874 15.9582C40.9955 15.6723 41.0893 15.3688 41.1731 15.048L41.5534 15.1383C41.471 15.4472 41.3789 15.7348 41.281 16.0017L43.102 16.2028L43.062 16.5646L41.1456 16.3529C41.0914 16.4797 41.0341 16.5981 40.9811 16.713L42.5715 16.8887L42.5363 17.2067C42.3969 17.5213 42.1696 17.794 41.8464 18.0239C42.1302 18.2243 42.4788 18.4198 42.8884 18.6099L42.6541 18.9462C42.1923 18.7181 41.8083 18.4785 41.5051 18.2358C41.1669 18.4197 40.7593 18.5759 40.2823 18.7044L40.123 18.3246C40.5364 18.2254 40.8959 18.1041 41.1971 17.9643C40.9615 17.729 40.7912 17.4849 40.6899 17.2362C40.3387 17.793 39.9251 18.2222 39.4531 18.5242L39.2969 18.1528C39.8991 17.7284 40.3815 17.1136 40.7441 16.3086L39.774 16.2014ZM40.9871 17.0598C41.0924 17.3088 41.275 17.5503 41.5353 17.7803C41.8082 17.6052 42.0152 17.4067 42.152 17.1884L40.9871 17.0598ZM42.2262 15.1684C42.4777 15.4054 42.685 15.6416 42.8486 15.873L42.5484 16.1135C42.4122 15.8892 42.2133 15.6499 41.9441 15.3908L42.2262 15.1684Z" fill="white"/>
<path d="M44.3615 16.8733L44.9132 16.8937L44.925 16.5739L44.2574 16.5492L44.2462 16.853C44.2373 17.0928 44.2128 17.3241 44.1808 17.539L44.8883 17.5652L44.9007 17.2294L44.3491 17.209L44.3615 16.8733ZM44.1201 17.881C44.028 18.3139 43.8895 18.705 43.7046 19.0504L43.407 18.7632C43.6774 18.2689 43.8292 17.6301 43.8625 16.8388L43.9122 15.4957L46.9701 15.6089L46.9316 16.6482L46.376 16.6276L46.3642 16.9474L46.9638 16.9696L46.9513 17.3053L46.3517 17.2831L46.3393 17.6189L47.0748 17.6461L47.0621 17.9899L46.6624 17.9751L46.8858 18.2115C46.7562 18.3588 46.6157 18.4777 46.4683 18.5683C46.6679 18.6918 46.8966 18.7843 47.1585 18.8461L46.9653 19.1992C46.2527 18.9846 45.756 18.562 45.4712 17.931L44.9755 17.9127L44.9474 18.6722C45.1895 18.6211 45.4038 18.561 45.5865 18.4917L45.6456 18.8421C45.3177 18.942 44.9304 19.0238 44.4837 19.0873L44.3921 18.7517C44.5138 18.7081 44.5768 18.6264 44.5816 18.4985L44.6038 17.8989L44.1201 17.881ZM45.8549 17.9452C45.9454 18.0967 46.0526 18.2287 46.1763 18.3454C46.3316 18.2591 46.4763 18.1363 46.6104 17.9732L45.8549 17.9452ZM46.0082 16.614L45.2887 16.5874L45.2769 16.9071L45.9964 16.9338L46.0082 16.614ZM45.2521 17.5787L45.9716 17.6053L45.984 17.2695L45.2645 17.2429L45.2521 17.5787ZM46.5735 15.9424L44.283 15.8577L44.27 16.2094L46.5605 16.2942L46.5735 15.9424Z" fill="white"/>
<path d="M47.4823 16.0252L48.0261 16.0073L48.009 15.4916L48.3888 15.4791L48.4058 15.9948L48.8976 15.9786L48.9096 16.3424L48.4178 16.3586L48.4367 16.9303L48.9844 16.9122L48.9964 17.276L48.4327 17.2946C48.4276 17.3828 48.4184 17.4672 48.413 17.5474C48.6355 17.7402 48.8627 17.9528 49.0947 18.1933L48.8895 18.5242C48.6805 18.2549 48.5056 18.0486 48.3647 17.9012C48.2624 18.4408 48.0644 18.8676 47.7706 19.1815L47.4786 18.943C47.8265 18.5713 48.0167 18.0287 48.0529 17.3071L47.4692 17.3264L47.4572 16.9626L48.0569 16.9428L48.0381 16.3711L47.4944 16.389L47.4823 16.0252ZM50.7715 15.5205L50.8452 17.7553L50.4814 17.7673L50.4192 15.8803L49.4397 15.9126L49.502 17.7996L49.1382 17.8116L49.0644 15.5768L50.7715 15.5205ZM50.7426 19.0114L50.3908 19.023C50.1629 19.0305 50.0469 18.9102 50.039 18.6704L50.0148 17.9388C49.9717 18.0883 49.9161 18.2222 49.852 18.3404C49.663 18.6788 49.3437 18.9455 48.902 19.1441L48.6957 18.8348C49.1294 18.6364 49.4214 18.3906 49.572 18.1015C49.7178 17.7925 49.7889 17.3979 49.7889 16.9137L49.7646 16.1781L50.1124 16.1666L50.1367 16.9022C50.1395 17.2303 50.1093 17.5274 50.0538 17.7854L50.3576 17.7754L50.3843 18.5829C50.3865 18.6509 50.4197 18.6858 50.4876 18.6836L50.6715 18.6775C50.7195 18.6759 50.7508 18.6549 50.7735 18.6141C50.7959 18.5654 50.8114 18.4288 50.8158 18.1965L51.143 18.2898C51.1304 18.6344 51.0891 18.8398 51.0274 18.9099C50.9654 18.972 50.8705 19.0071 50.7426 19.0114Z" fill="white"/>
<path d="M53.8468 15.4757L54.2134 15.4427L54.4346 17.9048L54.0681 17.9377L53.8468 15.4757ZM54.8998 18.7024L54.3261 18.7539L54.2059 18.3993C54.3946 18.3984 54.5706 18.3906 54.7379 18.3756C54.8495 18.3655 54.9042 18.3044 54.8946 18.1968L54.6136 15.0694L54.988 15.0358L55.2776 18.2588C55.302 18.5297 55.1747 18.6777 54.8998 18.7024ZM53.5421 16.0171L53.6348 16.3783L52.5267 16.6505C52.5587 16.8284 52.5973 16.9896 52.6424 17.1341C52.6879 17.2826 52.7323 17.4192 52.7832 17.5391C52.9682 17.2735 53.1217 16.9706 53.2398 16.6306L53.5858 16.7722C53.426 17.2284 53.2202 17.6203 52.9642 17.9446C52.9982 18.0098 53.0315 18.067 53.0683 18.1199C53.2246 18.3388 53.3624 18.4429 53.4743 18.4369C53.537 18.4192 53.5836 18.2222 53.618 17.8457L53.9553 18.0242C53.9138 18.2327 53.8655 18.4098 53.8063 18.5557C53.7337 18.7309 53.642 18.8274 53.5304 18.8375C53.3392 18.8547 53.1401 18.74 52.93 18.5019C52.854 18.4163 52.7853 18.3221 52.7238 18.2192C52.5027 18.4398 52.2541 18.6228 51.978 18.7681L51.7205 18.4499C52.0277 18.2938 52.2992 18.0967 52.5301 17.851C52.4654 17.7123 52.4044 17.5692 52.3502 17.4134C52.2805 17.2188 52.2203 16.9953 52.1652 16.7392L51.6859 16.8586L51.5972 16.4971L52.092 16.3723C52.0355 16.0561 51.9874 15.699 51.9519 15.3046L52.3344 15.2702C52.368 15.6447 52.4064 15.9826 52.4575 16.2832L53.5421 16.0171ZM52.8625 15.2027C53.0216 15.3651 53.1786 15.5478 53.329 15.7471L53.0246 15.9351C52.8775 15.7274 52.7245 15.5444 52.5653 15.382L52.8625 15.2027Z" fill="white"/>
<path d="M55.5188 14.9308L56.5869 16.6727L56.0136 18.6339L55.6773 18.5336L56.2063 16.7236L55.2207 15.1159L55.5188 14.9308ZM56.1968 14.8402L57.2649 16.5821L56.6915 18.5433L56.3553 18.443L56.8842 16.633L55.8828 15.0275L56.1968 14.8402Z" fill="white"/>
</svg>
