<svg width="97" height="37" viewBox="0 0 97 37" fill="none" xmlns="http://www.w3.org/2000/svg">
<path d="M4.93238 12.7912L5.038 13.0443L3.71769 13.5647L3.22837 14.8916L2.98093 14.802L3.51102 13.3641L4.93238 12.7912ZM5.30051 13.1485L5.39752 13.3932L4.08582 13.922L3.5965 15.2489L3.34906 15.1593L3.87915 13.7214L5.30051 13.1485Z" fill="white"/>
<path d="M6.44056 15.7319L6.11169 16.0816L6.38484 16.3385L6.71371 15.9889L6.44056 15.7319ZM6.88431 15.8075L7.20702 15.4644L6.93387 15.2075L6.61116 15.5506L6.88431 15.8075ZM5.93247 16.259C5.64752 16.5181 5.35316 16.6778 5.05376 16.7421L5.0285 16.4713C5.08324 16.4568 5.14003 16.4403 5.19464 16.4216L4.7576 16.0105L4.64455 16.1307L4.45662 15.9539L5.2973 15.0602L5.52019 15.2698L5.87784 14.8896L5.61343 14.6409L5.79225 14.4508L6.05666 14.6995L6.39581 14.3389L6.59248 14.5239L6.25333 14.8845L6.51774 15.1332L6.33892 15.3233L6.07451 15.0746L5.71686 15.4548L5.92883 15.6542L5.21558 16.4125C5.44841 16.3226 5.67068 16.1651 5.88676 15.9441L6.92271 14.8428L7.5739 15.4553L5.93776 17.1947C5.81032 17.3302 5.67668 17.3322 5.53901 17.2027L5.38168 17.0547L5.50407 16.8239C5.55035 16.8798 5.5965 16.9314 5.64458 16.9766C5.69265 17.0218 5.7497 17.0137 5.80931 16.9504L6.21218 16.5221L5.93247 16.259ZM5.8306 13.762C5.8759 13.9941 5.89922 14.2013 5.90082 14.3923L5.62312 14.4029C5.63053 14.2287 5.61119 14.0128 5.56536 13.7637L5.8306 13.762ZM5.30811 14.2343C5.3493 14.4707 5.36658 14.6888 5.36626 14.8862L5.08843 14.8925C5.09994 14.7139 5.08266 14.4958 5.04069 14.234L5.30811 14.2343ZM4.9408 14.9926L5.05422 15.231C4.70577 15.4263 4.36078 15.5961 4.02349 15.7401L3.91586 15.4823C4.26587 15.3379 4.60893 15.1746 4.9408 14.9926ZM4.92409 15.8335L5.18413 16.0781L5.58083 15.6564L5.32079 15.4118L4.92409 15.8335Z" fill="white"/>
<path d="M8.38982 16.088L8.60331 16.2813L6.76494 18.3117L6.55145 18.1184L6.86959 17.767C6.62343 17.6858 6.37844 17.5854 6.1324 17.4638L6.27053 17.2084C6.51984 17.3532 6.78262 17.4697 7.06088 17.5557L7.66494 16.8886L7.10008 16.3771L7.28331 16.1748L7.84818 16.6862L8.38982 16.088ZM7.68819 19.1112L7.34571 18.8011C7.18781 18.6581 7.18649 18.5032 7.33549 18.3386L8.93022 16.5773L9.14149 16.7686L8.49112 17.4869C8.73388 17.5853 8.9899 17.6511 9.25917 17.6845L9.22644 17.9665C8.87879 17.8945 8.57469 17.8013 8.30788 17.6892L7.57697 18.4965C7.52663 18.5521 7.52491 18.6032 7.57384 18.6475L7.83181 18.881C7.87184 18.9173 7.91908 18.9277 7.9693 18.9124C8.01708 18.891 8.14096 18.7765 8.33691 18.5735L8.47644 18.8172C8.22751 19.0653 8.05786 19.199 7.97194 19.2224C7.88359 19.2395 7.79048 19.2038 7.68819 19.1112Z" fill="white"/>
<path d="M11.0342 18.4182L11.2457 18.6002L10.7466 19.18L10.5351 18.998L11.0342 18.4182ZM9.63409 19.0101C9.51643 18.9444 9.39878 18.8788 9.28308 18.8109L9.36272 18.539C10.1433 19.0209 10.8195 19.3022 11.3892 19.3808C11.365 19.2571 11.3363 19.1295 11.3031 18.998L11.568 18.9845C11.6609 19.3456 11.7198 19.6773 11.7419 19.9735L11.4608 19.9966C11.4587 19.884 11.4498 19.7656 11.4319 19.6393C11.1101 19.6038 10.7674 19.5146 10.3993 19.3719L11.2042 20.0647L10.1415 21.2993L9.93002 21.1173L10.0044 21.0309L9.0017 20.1678L8.92341 20.2588L8.71423 20.0787L9.63409 19.0101ZM9.1661 19.9768L10.1688 20.8399L10.2999 20.6876L9.29723 19.8245L9.1661 19.9768ZM9.44597 19.6517L10.4487 20.5148L10.568 20.3761L9.56535 19.513L9.44597 19.6517ZM9.71214 19.3425L10.7148 20.2056L10.8381 20.0623L9.83544 19.1992L9.71214 19.3425ZM10.5657 18.2405L10.6025 18.5058C10.3255 18.5563 10.0343 18.559 9.7308 18.5115L9.7447 18.2424C10.0329 18.2846 10.3053 18.2855 10.5657 18.2405Z" fill="white"/>
<path d="M13.5491 20.5373C13.3829 20.7424 13.2362 20.9092 13.1097 21.0462C12.7425 21.7757 12.6948 22.5209 12.9618 23.2778L12.6582 23.3523C12.4524 22.6913 12.4649 22.0373 12.692 21.395C12.1453 21.7551 11.4988 21.8954 10.7524 21.8157L10.7778 21.5081C11.7168 21.6358 12.4658 21.3739 13.0265 20.72C13.153 20.5639 13.2536 20.4446 13.3254 20.356L13.5491 20.5373Z" fill="white"/>
<path d="M14.0125 23.0277L13.5825 23.5977C13.8095 23.7051 14.0475 23.7982 14.2944 23.8794L14.1845 24.1346C13.8986 24.0354 13.5522 23.8868 13.152 23.69L13.2548 23.4293C13.3111 23.4343 13.3598 23.4146 13.3959 23.3667L14.7296 21.5994L16.4777 22.9186L15.9103 23.6705L15.2589 23.179C15.1908 23.2892 15.1347 23.3934 15.084 23.4905L15.8455 24.0651L15.6792 24.2854L14.968 23.7487C14.9481 23.8051 14.9299 23.859 14.9177 23.91C14.8637 24.136 14.8482 24.316 14.8693 24.4523C14.8918 24.5819 14.9365 24.6721 15.0017 24.725C15.0233 24.7413 15.0587 24.7342 15.1062 24.7062C15.1555 24.6757 15.2439 24.5884 15.374 24.4459L15.4944 24.7097C15.3073 24.8879 15.1696 24.9907 15.0837 25.0199C15.0002 25.0508 14.9264 25.044 14.8671 25.0031C14.754 24.9139 14.6782 24.7703 14.6374 24.5704C14.596 24.3663 14.6075 24.1269 14.6695 23.8505C14.6896 23.7641 14.718 23.6766 14.7525 23.5861L14.0125 23.0277ZM15.0338 23.0091L14.392 22.5248L14.1788 22.8074L14.8661 23.326C14.9156 23.2206 14.9717 23.1164 15.0338 23.0091ZM16.0905 22.9684L14.795 21.9908L14.5547 22.3093L15.8502 23.2869L16.0905 22.9684Z" fill="white"/>
<path d="M16.9445 23.4535L18.0069 24.1852L17.8487 24.415L17.4904 24.1683L17.1637 24.6426L17.4231 24.8213L17.321 24.9695C17.6841 24.7861 18.0362 24.5077 18.3813 24.1335L18.5924 24.3189C18.4876 24.4288 18.3812 24.5304 18.2757 24.6253L19.0021 25.1256L18.8438 25.3554L18.6808 25.2431C18.3887 25.6248 18.0676 25.8954 17.7124 26.0514C17.7162 26.3527 17.7753 26.6266 17.8872 26.8712L17.6177 26.977C17.505 26.7282 17.4451 26.4501 17.4413 26.1489C17.1355 26.2333 16.8075 26.2441 16.4622 26.1848L16.4516 25.8934C16.8149 25.9688 17.1513 25.9564 17.4524 25.8578C17.4751 25.6185 17.5263 25.3696 17.6035 25.1095C17.486 25.1743 17.3653 25.2332 17.2447 25.2813L17.2329 25.0181L17.0106 24.865L16.6192 25.4333C16.7616 25.4803 16.9008 25.5216 17.035 25.5594L16.8853 25.7768C16.509 25.6779 16.0901 25.5351 15.6268 25.3508L15.7106 25.0916C15.7669 25.1158 15.8223 25.1358 15.8785 25.1599L16.6545 24.0333L16.8744 24.1847L16.1342 25.2595C16.2086 25.2889 16.2781 25.3149 16.3476 25.3409L17.2631 24.0117L16.7863 23.6833L16.9445 23.4535ZM17.728 25.7379C17.9965 25.5914 18.2369 25.3745 18.451 25.0848L18.0508 24.8092C18.007 24.841 17.9657 24.8744 17.9237 24.9038C17.8227 25.1985 17.7552 25.4762 17.728 25.7379Z" fill="white"/>
<path d="M20.015 25.907L20.2162 26.095C20.0958 26.204 19.971 26.3032 19.8391 26.3909L18.9647 27.8043L18.7249 27.6559L19.342 26.6584C19.2411 26.7018 19.1408 26.7385 19.0395 26.7711L19.1179 26.4562C19.4582 26.3281 19.7575 26.1464 20.015 25.907ZM20.0136 26.4283L20.7432 26.8797L20.95 26.5454L21.1872 26.6922L20.9805 27.0264L21.2254 27.178L21.0802 27.4127L20.8353 27.2612L20.2497 28.2077C20.1361 28.3914 19.9909 28.4321 19.82 28.3263L19.4756 28.1133L19.5672 27.8454C19.6696 27.9194 19.7711 27.9892 19.8731 28.0523C19.942 28.0949 20.003 28.0762 20.0503 27.9997L20.598 27.1144L19.8683 26.663L20.0136 26.4283ZM21.6091 26.4664L21.4703 26.6909L19.6436 25.5608L19.2742 26.1578C18.9199 26.7077 18.5442 27.0926 18.1446 27.311L18.0619 27.0341C18.3911 26.8497 18.7158 26.5073 19.0344 26.0095L19.5426 25.188L20.4789 25.7672C20.4913 25.6902 20.4995 25.6142 20.5031 25.5458L20.7911 25.6675C20.7746 25.7455 20.7534 25.8312 20.729 25.9219L21.6091 26.4664ZM19.9824 26.9804C20.023 27.2455 20.0406 27.468 20.0407 27.6445L19.7823 27.6574C19.7833 27.4676 19.7648 27.2409 19.7277 26.9816L19.9824 26.9804Z" fill="white"/>
<path d="M21.6115 27.4518L21.7853 27.6594C21.5274 27.9254 21.2834 28.1033 21.0493 28.1942L20.9514 27.9289C21.1774 27.8404 21.3965 27.6831 21.6115 27.4518ZM22.6668 26.8144L22.9196 26.9523L22.6523 27.4421L23.4845 27.8962C23.3787 28.0777 23.2826 28.2474 23.1912 28.4025L23.4109 28.4131C23.4028 28.7162 23.379 29.0416 23.3357 29.3904L23.0462 29.376C23.0922 29.0662 23.1188 28.7732 23.1284 28.505C23.0115 28.6941 22.9062 28.8622 22.8152 29.0039C22.6337 29.274 22.4797 29.4497 22.3559 29.5325C22.235 29.6101 22.1059 29.6149 21.9659 29.5521L21.6578 29.384L21.7215 29.1044C21.8081 29.1585 21.891 29.2071 21.97 29.2502C22.099 29.3206 22.2348 29.2785 22.3744 29.1291C22.5171 28.9677 22.7575 28.5897 23.0969 27.9991L22.5096 27.6787C22.2548 28.083 21.9943 28.3852 21.728 28.585C21.4344 28.7974 21.0873 28.895 20.6877 28.8821L20.67 28.5888C21.0607 28.5866 21.3811 28.488 21.6296 28.2956C21.8442 28.1153 22.0532 27.8637 22.2568 27.5407L21.63 27.1988L21.7622 26.9565L22.3995 27.3042L22.6668 26.8144Z" fill="white"/>
<path d="M25.1254 28.1181L25.32 28.3251C24.8614 28.8028 24.4026 29.1181 23.9448 29.2683L23.8236 28.9963C24.2934 28.8418 24.7286 28.5486 25.1254 28.1181ZM25.4734 30.0363C25.5318 30.4213 25.558 30.8112 25.5443 31.2088L25.2516 31.2044C25.2542 31.0996 25.2595 30.9961 25.2596 30.8968C24.7538 30.7463 24.2039 30.5553 23.6046 30.3213L23.6753 30.0497C23.8975 30.0775 24.361 29.7875 25.0686 29.1812L25.2806 29.3864C24.8484 29.7439 24.4463 30.0229 24.0799 30.2257C24.4784 30.379 24.8725 30.5137 25.2566 30.6271C25.2508 30.4058 25.2347 30.1996 25.2055 30.0071L25.4734 30.0363ZM26.1111 28.5528C26.0319 29.1185 26.1034 29.6454 26.3322 30.1333L26.0482 30.2589C25.8118 29.7376 25.7395 29.1771 25.8325 28.5748L26.1111 28.5528Z" fill="white"/>
<path d="M29.4615 30.0383L29.3613 30.2955L27.4242 29.5407L27.1029 30.3653C26.8662 30.9396 26.5653 31.3568 26.2027 31.618L26.0711 31.3607C26.3689 31.1418 26.6247 30.7746 26.8373 30.2619L27.2588 29.1801L29.4615 30.0383ZM27.4003 29.9822L29.1725 30.6727L29.0745 30.9243L28.3924 30.6585L27.9154 31.8829C27.8337 32.0925 27.6945 32.1606 27.4988 32.0844L27.2025 31.9689L27.239 31.6934C27.3269 31.7405 27.4142 31.7809 27.498 31.8136C27.5791 31.8452 27.6406 31.8112 27.6777 31.7162L28.1297 30.5561L27.3023 30.2337L27.4003 29.9822Z" fill="white"/>
<path d="M30.4962 30.2801C30.5602 30.4573 30.617 30.6478 30.6635 30.851L30.4582 30.8843L31.051 31.0695C31.2051 30.9385 31.3575 30.7724 31.5075 30.5741L31.7514 30.7289C31.6294 30.8982 31.4964 31.0421 31.3574 31.1652L31.9014 31.3352L31.8191 31.5987L30.8856 31.307L30.8579 31.3957C30.8092 31.5314 30.7555 31.6529 30.6988 31.7641L31.8384 32.1202L31.7561 32.3836L30.7539 32.0704C30.786 32.4608 31.0589 32.8446 31.5718 33.2249L31.3309 33.4325C30.8065 32.9984 30.5277 32.5529 30.4878 32.0973C30.3942 32.2158 30.2936 32.3163 30.187 32.3962C29.9117 32.593 29.5321 32.6913 29.0482 32.6909L28.9736 32.4068C29.4593 32.4014 29.8135 32.314 30.0389 32.1456C30.1193 32.0796 30.1938 32.0023 30.2614 31.9165L29.2821 31.6105L29.3644 31.3471L30.4182 31.6764C30.4787 31.5633 30.5352 31.4426 30.583 31.3098L30.6107 31.2211L29.6744 30.9285L29.7567 30.665L30.3695 30.8565C30.3269 30.6609 30.2723 30.4836 30.2095 30.3225L30.4962 30.2801Z" fill="white"/>
<path d="M32.7016 31.0409L34.9112 31.5657L34.8467 31.8371L33.9156 31.616L33.7465 32.3282L34.8819 32.5978L34.816 32.8751L33.6806 32.6055L33.4442 33.6008C33.3957 33.8051 33.2628 33.8845 33.0497 33.8339L32.5856 33.7237L32.591 33.4413C32.7378 33.4854 32.8794 33.5252 33.0137 33.5571C33.1071 33.5793 33.1642 33.5466 33.1836 33.4649L33.4033 32.5396L32.2183 32.2582L32.2842 31.9809L33.4692 32.2623L33.6383 31.5501L32.6372 31.3124L32.7016 31.0409Z" fill="white"/>
<path d="M35.6622 32.461L35.9314 32.5063L35.8611 32.9235L36.1688 32.9753L36.1264 33.2268L35.8187 33.1749L35.7619 33.5122C35.8995 33.508 36.0317 33.4998 36.155 33.4902L36.1102 33.7564C35.9839 33.7656 35.8517 33.7737 35.7166 33.7814L35.6104 34.4115L35.3412 34.3662L35.4384 33.7893C35.2618 33.79 35.0764 33.7891 34.886 33.7814L34.8969 33.5003C35.102 33.5105 35.2988 33.5163 35.4842 33.5171L35.5495 33.1296L35.0762 33.0498L35.0589 32.7914C35.1627 32.6446 35.2706 32.4559 35.38 32.2218L35.1196 32.1779L35.1655 31.9058L35.4968 31.9616C35.5429 31.8507 35.5899 31.7339 35.635 31.6107L35.8948 31.694C35.8522 31.8024 35.8101 31.9079 35.769 32.0074L36.3015 32.0971L36.2556 32.3693L35.6521 32.2676C35.5492 32.4815 35.4472 32.6712 35.3434 32.8363L35.5919 32.8781L35.6622 32.461ZM36.4198 32.1171L36.8665 32.1923C36.9106 32.075 36.9518 31.9572 36.9934 31.8365L37.264 31.9094C37.2234 32.0243 37.1837 32.1332 37.1476 32.2397L37.8339 32.3553L37.788 32.6275L37.0455 32.5024C37.0088 32.5936 36.9727 32.6818 36.937 32.767L37.8156 32.915L37.7703 33.1843L36.8236 33.0248C36.7722 33.1317 36.7217 33.2327 36.6756 33.3254L37.5986 33.4809L37.5598 33.7116C37.4332 33.885 37.2598 34.0474 37.0327 34.2039C37.1282 34.2869 37.2168 34.3749 37.3025 34.4623L37.1048 34.6785C36.84 34.3905 36.5608 34.1518 36.2642 33.9619L36.4524 33.7654C36.5845 33.8485 36.7091 33.9395 36.8268 34.0353C37.0036 33.9252 37.1512 33.8071 37.2669 33.6805L36.2847 33.5151C36.3743 33.3446 36.4594 33.1642 36.5456 32.9779L36.1965 32.9191L36.2418 32.6499L36.6589 32.7202C36.6956 32.629 36.7318 32.5408 36.7674 32.4555L36.374 32.3892L36.4198 32.1171Z" fill="white"/>
<path d="M38.2638 33.0126L38.5892 32.1655L38.8678 32.2424L38.6558 32.7785L39.0975 32.824C39.1769 32.609 39.2456 32.3808 39.3067 32.1398L39.5924 32.2054C39.5323 32.4375 39.4648 32.6537 39.3929 32.8544L40.7597 32.9952L40.7317 33.2667L39.2933 33.1186C39.2533 33.214 39.211 33.3031 39.1719 33.3896L40.3656 33.5125L40.341 33.7513C40.2382 33.988 40.0693 34.1938 39.8281 34.368C40.042 34.5167 40.3046 34.6613 40.6128 34.8016L40.439 35.0552C40.0914 34.8867 39.8021 34.7091 39.5733 34.5287C39.3207 34.6686 39.0158 34.788 38.6588 34.8869L38.5373 34.603C38.8468 34.5263 39.1157 34.4333 39.3408 34.3268C39.1628 34.1517 39.0338 33.9695 38.9564 33.7836C38.6961 34.2031 38.3882 34.5273 38.0359 34.7564L37.9167 34.4788C38.3661 34.1571 38.7244 33.6934 38.9919 33.0876L38.2638 33.0126ZM39.1783 33.6496C39.2587 33.8358 39.3969 34.0159 39.5935 34.187C39.7971 34.0541 39.9513 33.9041 40.0527 33.7397L39.1783 33.6496ZM40.0972 32.2243C40.2871 32.4006 40.4439 32.5766 40.5679 32.7492L40.344 32.9313C40.2406 32.7638 40.0901 32.5854 39.8868 32.3926L40.0972 32.2243Z" fill="white"/>
<path d="M42.2987 32.3797L42.5775 32.392L42.5438 33.1563L42.2651 33.144L42.2987 32.3797ZM41.5645 33.7107C41.4314 33.7319 41.2984 33.7531 41.1655 33.7713L41.0599 33.5084C41.9714 33.4043 42.6767 33.2071 43.173 32.9167C43.0775 32.8344 42.976 32.7519 42.8686 32.6691L43.0684 32.4947C43.3648 32.7209 43.6161 32.9452 43.8167 33.1642L43.6101 33.3563C43.5388 33.2691 43.4586 33.1815 43.3664 33.0934C43.0916 33.2644 42.7671 33.4063 42.3896 33.5218L43.4506 33.5685L43.379 35.1959L43.1002 35.1837L43.1053 35.0698L41.7835 35.0116L41.7783 35.1315L41.5025 35.1194L41.5645 33.7107ZM41.7946 34.7599L43.1163 34.818L43.1252 34.6172L41.8034 34.5591L41.7946 34.7599ZM41.8135 34.3313L43.1352 34.3894L43.1432 34.2066L41.8215 34.1485L41.8135 34.3313ZM41.8314 33.9237L43.1531 33.9818L43.1614 33.793L41.8397 33.7349L41.8314 33.9237ZM41.8207 32.5299L42.0137 32.7155C41.8272 32.9265 41.6 33.1087 41.3321 33.2591L41.1767 33.039C41.4293 32.894 41.6439 32.7263 41.8207 32.5299Z" fill="white"/>
<path d="M44.0672 32.9409L45.2762 32.9303C45.1969 32.787 45.0998 32.6529 44.9847 32.5249L45.2687 32.4174C45.378 32.5604 45.4815 32.7305 45.5762 32.9277L46.7131 32.9178L46.7156 33.1998L46.2566 33.2038C46.1166 33.6611 45.9069 34.0439 45.6276 34.3553C45.9418 34.6076 46.3336 34.8172 46.7971 34.9812L46.6402 35.2226C46.1556 35.0468 45.7517 34.8253 45.4314 34.5581C45.095 34.861 44.6799 35.0866 44.1862 35.2349L44.031 34.9842C44.5159 34.854 44.9132 34.6526 45.2288 34.3768C44.8959 34.0497 44.6615 33.6617 44.5287 33.2189L44.0697 33.2228L44.0672 32.9409ZM44.8017 33.2165C44.9309 33.5844 45.1377 33.9066 45.4251 34.1801C45.6657 33.911 45.8459 33.5854 45.9626 33.2064L44.8017 33.2165Z" fill="white"/>
<path d="M47.7765 32.3561L48.05 32.4671C47.9618 32.7184 47.843 32.9593 47.6934 33.187L47.8029 35.1609L47.5214 35.1766L47.4303 33.5351C47.3144 33.6677 47.1895 33.7978 47.0552 33.9225L46.9488 33.6309C47.3338 33.258 47.6107 32.834 47.7765 32.3561ZM49.3516 35.0209L48.7914 35.052C48.5518 35.0653 48.4253 34.9521 48.412 34.7125L48.3655 33.8738C48.2608 33.9367 48.1531 33.9997 48.0423 34.06L47.8985 33.7975C48.0563 33.7167 48.2079 33.6331 48.347 33.5413L48.2823 32.3761L48.5669 32.3603L48.6218 33.3488C48.9045 33.1378 49.1528 32.9016 49.3607 32.6407L49.5708 32.8544C49.3026 33.1638 48.9937 33.4453 48.6409 33.6932L48.6944 34.6578C48.6991 34.7416 48.7463 34.7811 48.8422 34.7757L49.2885 34.751C49.3574 34.7471 49.407 34.7204 49.4374 34.6736C49.4649 34.627 49.4771 34.4671 49.4678 34.1912L49.7362 34.2634C49.7343 34.609 49.707 34.8209 49.6571 34.8958C49.6042 34.9708 49.5013 35.0126 49.3516 35.0209Z" fill="white"/>
<path d="M52.6725 32.0904L52.7003 32.365L50.632 32.5749L50.7213 33.4554C50.7721 34.0744 50.6941 34.5829 50.4902 34.9805L50.2559 34.8113C50.4214 34.4809 50.4819 34.0375 50.4378 33.4842L50.3206 32.3291L52.6725 32.0904ZM50.8117 32.9788L52.704 32.7867L52.7312 33.0554L52.003 33.1293L52.1357 34.4366C52.1584 34.6604 52.0654 34.7844 51.8565 34.8056L51.5401 34.8378L51.4472 34.5758C51.5469 34.5777 51.643 34.574 51.7326 34.5649C51.8191 34.5561 51.8584 34.4979 51.8481 34.3964L51.7224 33.1578L50.8389 33.2474L50.8117 32.9788Z" fill="white"/>
<path d="M53.2601 32.7809L54.1193 32.6439L54.0952 32.4928L54.3737 32.4484L54.3978 32.5995L55.2451 32.4644L55.2843 32.7103L54.437 32.8454L54.4729 33.0706L55.6579 32.8816L55.6966 33.1245L55.1486 33.2119L55.1854 33.443L55.6061 33.3759L55.6453 33.6218L55.2246 33.6889L55.2894 34.0948C55.3191 34.2814 55.2305 34.3928 55.0291 34.4249L54.6114 34.4915L54.5066 34.2348C54.6448 34.2249 54.7736 34.2135 54.8921 34.1946C54.9751 34.1814 55.0109 34.1392 55.0005 34.074L54.9461 33.7333L53.296 33.9965L53.2568 33.7506L54.9069 33.4874L54.8701 33.2563L53.0451 33.5474L53.0064 33.3044L54.1944 33.115L54.1585 32.8898L53.2993 33.0268L53.2601 32.7809ZM53.8427 33.9579C54.0179 34.0849 54.1547 34.1998 54.2561 34.3021L54.061 34.4881C53.9523 34.3779 53.812 34.2605 53.6373 34.1365L53.8427 33.9579ZM53.3377 32.3341C53.2904 32.4754 53.2327 32.6091 53.1648 32.7354L52.8973 32.6201C53.036 32.3853 53.1225 32.1467 53.1588 31.8979L53.4349 31.9146C53.4256 31.9708 53.4134 32.0274 53.4041 32.0836L54.1122 31.9707L54.1495 32.2047L53.6932 32.2775C53.7726 32.3559 53.8387 32.4274 53.8924 32.4978L53.6528 32.6333C53.5776 32.5237 53.491 32.4191 53.397 32.3247L53.3377 32.3341ZM54.5391 32.1335C54.5068 32.2358 54.4672 32.3302 54.4237 32.4192L54.1695 32.3109C54.266 32.1162 54.3281 31.915 54.3493 31.705L54.6219 31.7192C54.6127 31.7754 54.6064 31.8311 54.5966 31.8843L55.4054 31.7553L55.4427 31.9894L54.9657 32.0654C55.048 32.1434 55.1151 32.2208 55.1659 32.2917L54.9376 32.4223C54.8594 32.3133 54.7733 32.2115 54.6784 32.1112L54.5391 32.1335Z" fill="white"/>
<path d="M56.2089 32.0301C56.2992 32.1451 56.3896 32.2878 56.483 32.4574L56.7436 32.399C56.7797 32.231 56.808 32.0556 56.8226 31.874L57.0969 31.9047C57.0771 32.0628 57.051 32.207 57.0158 32.3379L57.3319 32.267L57.3917 32.5334L55.9193 32.8637L55.8595 32.5973L56.2225 32.5159C56.1461 32.3946 56.0652 32.2806 55.9775 32.1773L56.2089 32.0301ZM57.2294 31.2754L58.2452 31.0475L58.2925 31.2583C58.2687 31.5772 58.2315 31.8777 58.1839 32.1589C58.461 32.3796 58.6215 32.5742 58.6625 32.7433C58.7071 32.9424 58.697 33.0892 58.638 33.1823C58.5731 33.2768 58.4154 33.3552 58.1695 33.4104L58.016 33.1374C58.124 33.1254 58.2132 33.1116 58.2864 33.0952C58.3501 33.0778 58.3901 33.0504 58.3998 33.0113C58.4107 32.9781 58.4044 32.9088 58.3844 32.8057C58.344 32.6395 58.1777 32.4462 57.8883 32.2252C57.9356 31.984 57.9702 31.6995 57.9956 31.3741L57.5565 31.4726L58.0812 33.8115L57.8119 33.8719L57.2294 31.2754ZM55.7352 31.7827L56.2738 31.6619C56.2255 31.5836 56.1785 31.5111 56.1335 31.4474L56.4069 31.3369C56.4523 31.4159 56.4997 31.5037 56.5461 31.6009L57.1257 31.4708L57.1854 31.7372L55.795 32.0491L55.7352 31.7827ZM57.3225 32.7733L57.5799 33.9208L57.3019 33.9832L57.2677 33.831L56.6179 33.9768L56.652 34.129L56.3798 34.19L56.1224 33.0426L57.3225 32.7733ZM56.5588 33.7133L57.2086 33.5675L57.1035 33.0992L56.4537 33.2449L56.5588 33.7133Z" fill="white"/>
<path d="M61.4588 32.8746L61.2229 32.9446L61.078 32.7091L61.3299 32.6406C61.4047 32.6184 61.4296 32.5547 61.3997 32.454L60.8513 30.6047L59.7698 30.9254L59.6948 30.6723L61.0408 30.2731L61.6865 32.4504C61.7513 32.6689 61.6745 32.8107 61.4588 32.8746ZM58.7807 31.3251L59.0453 31.2467L59.6918 33.4268L59.4272 33.5053L58.7807 31.3251ZM59.1109 30.6765C59.2892 30.7925 59.4583 30.9301 59.6136 31.0844L59.4075 31.2863C59.2385 31.1174 59.0685 30.9769 58.8959 30.8591L59.1109 30.6765Z" fill="white"/>
<path d="M63.7375 30.291L63.9067 30.7402L64.2576 30.608L64.0884 30.1588L63.7375 30.291ZM64.0007 29.9258L63.8347 29.485L63.4837 29.6172L63.6497 30.058L64.0007 29.9258ZM63.9871 30.9792C64.0943 31.3491 64.1082 31.6837 64.0342 31.9809L63.7798 31.8843C63.791 31.8288 63.8011 31.7705 63.8083 31.7133L63.2469 31.9248L63.305 32.0792L63.0636 32.1701L62.6311 31.0219L62.9175 30.914L62.7335 30.4255L62.3938 30.5534L62.3018 30.3092L62.6415 30.1812L62.467 29.718L62.7197 29.6229L62.8942 30.0861L63.2339 29.9581L63.3259 30.2024L62.9862 30.3303L63.1701 30.8188L63.4425 30.7163L63.8094 31.6905C63.8311 31.4419 63.7876 31.173 63.6843 30.8817L63.1514 29.4667L63.988 29.1516L64.8297 31.3864C64.8952 31.5604 64.8381 31.6813 64.6613 31.7479L64.4591 31.824L64.3057 31.6125C64.3763 31.5956 64.443 31.5769 64.5048 31.5536C64.5665 31.5303 64.5843 31.4755 64.5537 31.3941L64.3464 30.8439L63.9871 30.9792ZM61.7002 29.9716C61.9285 30.033 62.1249 30.1033 62.2971 30.186L62.1843 30.44C62.0311 30.3566 61.8288 30.279 61.585 30.2105L61.7002 29.9716ZM61.8943 30.6486C62.1247 30.7157 62.3281 30.7962 62.5052 30.8833L62.3886 31.1356C62.2333 31.0466 62.0299 30.9662 61.7763 30.8886L61.8943 30.6486ZM62.4135 31.3122L62.6775 31.3153C62.6995 31.7142 62.7 32.0987 62.6809 32.4649L62.4021 32.4481C62.4265 32.0702 62.4309 31.6903 62.4135 31.3122ZM63.1612 31.6974L63.4953 31.5715L63.2912 31.0297L62.9571 31.1555L63.1612 31.6974Z" fill="white"/>
<path d="M64.9764 28.6196L65.238 28.4992L66.3835 30.9872L66.1219 31.1076L65.9236 30.677C65.7523 30.8715 65.5637 31.0574 65.3553 31.236L65.1747 31.0087C65.4058 30.8362 65.6161 30.6403 65.8045 30.4182L65.4281 29.6007L64.7359 29.9193L64.6217 29.6713L65.3139 29.3527L64.9764 28.6196ZM67.4813 30.452L67.0616 30.6452C66.8682 30.7343 66.7251 30.6747 66.6323 30.473L65.6386 28.3148L65.8975 28.1956L66.3027 29.0758C66.4885 28.8911 66.6497 28.6815 66.7861 28.447L67.0325 28.5878C66.8299 28.8793 66.6247 29.1224 66.4169 29.3237L66.8723 30.3129C66.9037 30.3811 66.95 30.4027 67.0099 30.3751L67.326 30.2296C67.3751 30.207 67.4032 30.1676 67.4089 30.1154C67.4079 30.0631 67.3513 29.9042 67.2415 29.6443L67.5204 29.6116C67.6509 29.938 67.7072 30.1465 67.695 30.2347C67.6761 30.3227 67.6066 30.3943 67.4813 30.452Z" fill="white"/>
<path d="M67.8373 27.1921L68.0821 27.0582L68.4494 27.7292L68.2046 27.8632L67.8373 27.1921ZM67.8991 28.7109C67.7963 28.798 67.6935 28.8851 67.5892 28.9695L67.3627 28.7993C68.0883 28.238 68.5894 27.7039 68.8633 27.1983C68.739 27.1774 68.6094 27.1594 68.4746 27.1443L68.5552 26.8916C68.9259 26.9315 69.2571 26.993 69.5421 27.0764L69.4649 27.3478C69.3588 27.3101 69.2448 27.2767 69.1203 27.2492C68.9739 27.5379 68.7699 27.8274 68.5069 28.1218L69.4385 27.6119L70.2206 29.0409L69.9759 29.1748L69.9212 29.0748L68.7606 29.71L68.8182 29.8153L68.5761 29.9478L67.8991 28.7109ZM68.6396 29.489L69.8002 28.8538L69.7037 28.6774L68.5431 29.3126L68.6396 29.489ZM68.4336 29.1126L69.5942 28.4774L69.5063 28.3169L68.3458 28.9521L68.4336 29.1126ZM68.2378 28.7547L69.3983 28.1195L69.3076 27.9538L68.147 28.589L68.2378 28.7547ZM67.5063 27.5682L67.7676 27.627C67.7175 27.9041 67.6175 28.1777 67.4664 28.4451L67.2194 28.3375C67.3602 28.0825 67.4568 27.8279 67.5063 27.5682Z" fill="white"/>
<path d="M70.1573 27.2469C70.1419 27.3847 70.1198 27.5232 70.0886 27.664L69.8474 27.4584C69.9219 27.0055 69.9015 26.549 69.7807 26.0854L70.0761 26.0467C70.1336 26.2768 70.1661 26.5122 70.1761 26.7512L71.2523 28.4417L71.0144 28.5932L70.1573 27.2469ZM70.2008 26.2483L70.6867 25.9389L70.5601 25.5892L70.81 25.4622C70.8526 25.5738 70.8894 25.6819 70.9271 25.7859L71.656 25.3219L71.8042 25.5547L71.0146 26.0574C71.0425 26.157 71.0696 26.2499 71.0952 26.3404L72.0594 25.7265L72.206 25.9568L71.1659 26.619C71.1917 26.7377 71.2152 26.8472 71.2329 26.9533L72.2401 26.3121L72.3722 26.5196C72.3741 26.746 72.3229 27.0063 72.215 27.3061C72.3567 27.2941 72.4992 27.2888 72.6381 27.2892L72.6336 27.5837C72.1927 27.5728 71.7707 27.6138 71.3711 27.7011L71.3793 27.4291C71.5666 27.3881 71.7537 27.3579 71.9373 27.3335C72.0371 27.0993 72.1015 26.8876 72.1263 26.6975L71.0634 27.3742C71.0293 27.1754 70.9853 26.9722 70.9356 26.7656L70.5357 27.0202L70.3891 26.7899L70.8624 26.4886C70.8352 26.3956 70.808 26.3027 70.7767 26.2088L70.349 26.4811L70.2008 26.2483Z" fill="white"/>
<path d="M73.8168 25.8424L73.978 26.0627C73.8391 26.3353 73.6547 26.6115 73.4234 26.8848L73.2285 26.6743C73.476 26.3928 73.6737 26.1143 73.8168 25.8424ZM72.1855 24.4971L72.4696 24.423C72.5642 24.7961 72.6198 25.116 72.6347 25.3802C72.7099 25.3103 72.7834 25.238 72.8551 25.1632C72.8396 25.0556 72.8211 24.939 72.7992 24.8175L73.0616 24.7444C73.1372 25.2541 73.1734 25.644 73.1678 25.9157C73.2878 25.7647 73.4014 25.5999 73.5067 25.4187L73.6609 25.6293C73.4791 25.9296 73.2829 26.1847 73.0764 26.3953L72.86 26.2265C72.8869 26.177 72.9049 26.1305 72.9145 26.0826C72.9311 25.9478 72.9245 25.7407 72.8948 25.4613C72.7976 25.5622 72.6938 25.6641 72.5851 25.7697L72.3729 25.6015C72.3986 25.5604 72.4094 25.5042 72.4066 25.4393C72.3651 25.1388 72.2914 24.8247 72.1855 24.4971ZM73.4819 25.2324L73.2823 25.0662C73.2981 25.0472 73.3097 25.0275 73.3159 25.0156C73.3495 24.9092 73.343 24.7021 73.2973 24.401L72.922 24.6756L72.7608 24.4552L73.3491 24.0247C73.2634 23.9685 73.1788 23.9189 73.0953 23.8759L73.3018 23.6654C73.3899 23.7198 73.4834 23.7815 73.5816 23.8547L74.1118 23.4667L74.273 23.687L73.537 24.2256C73.5725 24.4672 73.5877 24.6606 73.5859 24.8106C73.7678 24.6477 73.9462 24.48 74.1186 24.3092C74.0206 24.2769 73.9244 24.2469 73.8281 24.217L73.9227 23.9805C74.2331 24.0694 74.4894 24.1606 74.69 24.2518L74.6012 24.5063C74.5314 24.4719 74.4567 24.441 74.3803 24.4077C74.1138 24.6734 73.8135 24.9489 73.4819 25.2324ZM73.716 25.1763L73.9387 25.0134C74.1516 25.3297 74.2776 25.5832 74.3192 25.7721C74.3588 25.9736 74.3383 26.1893 74.2552 26.4212L73.977 26.3459C74.0488 26.1595 74.0695 25.9846 74.039 25.821C74.0097 25.664 73.9012 25.4497 73.716 25.1763ZM75.355 25.5569L75.2001 25.6703C75.0282 25.7961 74.8868 25.7806 74.7751 25.6281L74.171 24.8025L74.3913 24.6413L74.9636 25.4233C74.9919 25.462 75.0242 25.4756 75.0568 25.4592L75.1923 25.36C75.2324 25.3232 75.236 25.2723 75.1983 25.2106C75.1577 25.1399 75.0935 25.042 75.0049 24.9209L75.2548 24.8459C75.4249 25.0783 75.5083 25.2329 75.5133 25.3109C75.5149 25.3842 75.4593 25.4657 75.355 25.5569Z" fill="white"/>
<path d="M75.2995 22.7456L74.5233 23.3839L74.3499 23.173L76.1271 21.7116L76.3005 21.9224L75.522 22.5627L76.6805 23.9715L77.605 23.2112L77.7803 23.4244L75.7065 25.1298L75.5312 24.9166L76.4581 24.1544L75.2995 22.7456Z" fill="white"/>
<path d="M76.6205 21.3461L77.1205 20.8882L76.9442 20.6957L77.1588 20.4992L77.3351 20.6917L77.8661 20.2054L77.6898 20.0129L77.9045 19.8164L78.0807 20.0089L78.5808 19.551L78.7611 19.7479L78.261 20.2058L78.4211 20.3806L78.2065 20.5771L78.0464 20.4023L77.5154 20.8886L77.6755 21.0634L77.4609 21.2599L77.3008 21.0851L76.8008 21.543L76.6205 21.3461ZM77.2351 21.6131L78.7042 20.2678L78.8886 20.4691C78.584 21.3582 78.4212 21.971 78.4022 22.3057C78.3974 22.4159 78.4067 22.4927 78.4321 22.5427C78.4625 22.5759 78.4964 22.5774 78.5362 22.5409L79.6226 21.5461C79.6823 21.4914 79.7146 21.4334 79.7192 21.3763C79.7259 21.3214 79.635 21.1687 79.4464 20.9184L79.714 20.8197C79.9247 21.0987 80.0245 21.292 80.0111 21.4019C79.998 21.5074 79.9338 21.615 79.8188 21.7204L78.7236 22.7233C78.5289 22.9015 78.3709 22.9201 78.2453 22.7829C78.1602 22.69 78.1319 22.5125 78.156 22.2545C78.1859 21.9139 78.3157 21.4249 78.539 20.7892L77.4195 21.8144L77.2351 21.6131Z" fill="white"/>
<path d="M80.7324 20.9182L80.5501 21.1008L80.3188 20.9545C80.3824 20.9078 80.4375 20.8611 80.4884 20.8102C80.5371 20.7614 80.535 20.7083 80.4798 20.6532L80.0235 20.1974C79.9769 20.3035 79.926 20.4053 79.8751 20.5072L79.6354 20.3652C79.7074 20.2506 79.7731 20.1297 79.8303 20.0045L79.3697 19.5444L79.1301 19.7843L78.937 19.5913L79.1766 19.3515L78.8051 18.9805L79.0002 18.7852L79.3716 19.1562L79.5794 18.9482L79.7725 19.1411L79.5648 19.3491L79.9447 19.7286C79.9828 19.6225 80.0146 19.5143 80.0463 19.4061L80.2437 19.6033C80.2099 19.7094 80.1739 19.8133 80.1357 19.9194L80.7258 20.5088C80.8638 20.6466 80.866 20.7845 80.7324 20.9182ZM80.4557 19.3062C80.8144 19.7239 81.0438 20.131 81.1437 20.5277L80.8595 20.5448C80.7595 20.1439 80.4899 19.7177 80.0526 19.264L79.3564 18.5686L80.4822 17.4415L80.6711 17.6302L79.7361 18.5663L80.2434 19.073C80.2562 19.0857 80.2647 19.0984 80.2774 19.1111L81.2336 18.1539L81.4203 18.3404L81.0451 18.7161C81.1491 18.8073 81.2594 18.8793 81.3783 18.9344C81.4036 18.8071 81.4099 18.665 81.3907 18.5059L81.6474 18.5036C81.6602 18.6861 81.6434 18.86 81.5947 19.0191C81.809 19.0848 82.0444 19.1037 82.299 19.0739L82.2992 19.3539C81.7413 19.3861 81.266 19.2294 80.8776 18.8838L80.7483 19.0133L81.4445 19.7087C81.5038 19.5983 81.5568 19.4859 81.6076 19.3755L81.8177 19.4963C81.7372 19.6958 81.6207 19.9143 81.4723 20.1562L81.2495 20.0439C81.2791 19.9633 81.2621 19.8912 81.2027 19.8318L80.5659 19.1958L80.4557 19.3062ZM80.0098 18.6531L80.7773 17.8847L80.9599 18.067L80.1924 18.8354L80.0098 18.6531Z" fill="white"/>
<path d="M81.6159 18.0391L82.7463 16.8167C82.5978 16.3851 82.3963 15.9536 82.1437 15.5197L82.4122 15.384C82.6594 15.8414 82.8365 16.2463 82.95 16.5964L83.4735 16.0303L83.6761 16.2177L81.8185 18.2265L81.6159 18.0391ZM81.0717 16.9352C81.3653 17.0065 81.6727 17.1028 81.9958 17.2218L81.9094 17.5096C81.5837 17.3801 81.2742 17.2818 80.9829 17.2168L81.0717 16.9352ZM81.4304 16.2822C81.7352 16.3679 82.0538 16.4786 82.388 16.612L82.3057 16.8954C81.967 16.758 81.6443 16.6474 81.3418 16.568L81.4304 16.2822ZM82.4462 17.72L82.7139 17.6161C82.8287 18.0002 82.8838 18.378 82.8794 18.7539L82.5951 18.8139C82.6043 18.4505 82.5561 18.0872 82.4462 17.72ZM83.2172 16.8598C83.6609 16.8616 84.0228 16.8856 84.309 16.9297L84.266 17.2413C83.9601 17.1832 83.5937 17.1508 83.1645 17.1421L83.2172 16.8598Z" fill="white"/>
<path d="M83.8035 14.9578L84.3191 14.3645L83.6555 13.788L83.8484 13.566L84.5119 14.1425L84.9999 13.5809L85.2127 13.7659L84.7248 14.3275L85.9454 15.3881L85.7525 15.61L84.5319 14.5494L84.0164 15.1428L83.8035 14.9578ZM82.8023 14.8111C83.0411 14.7604 83.2603 14.7322 83.4621 14.7287L83.4837 15.0058C83.2985 15.0039 83.0771 15.03 82.8196 15.0885L82.8023 14.8111ZM83.1993 15.6807L83.6538 15.1576L84.6185 15.9958C84.6226 15.8722 84.6196 15.7384 84.6137 15.5942L84.8826 15.7285C84.8925 15.9914 84.8791 16.254 84.8419 16.5117L84.5785 16.426C84.5803 16.36 84.5595 16.3061 84.5142 16.2668L83.6808 15.5427L83.4054 15.8597L83.1993 15.6807Z" fill="white"/>
<path d="M85.8984 11.5284L86.0737 11.3153L87.5054 12.4932L87.3301 12.7064L85.8984 11.5284ZM88.1764 12.6646L87.9019 12.9982L87.6492 12.8757C87.748 12.7744 87.8365 12.6763 87.9166 12.579C87.97 12.5141 87.9661 12.4527 87.9036 12.4012L86.085 10.905L86.2641 10.6872L88.1383 12.2292C88.2959 12.3588 88.3079 12.5047 88.1764 12.6646ZM86.0272 11.9763L86.2689 12.1169L85.831 12.8521C85.9429 12.9286 86.0493 12.9929 86.1503 13.0449C86.2535 13.0988 86.3499 13.147 86.4408 13.1829C86.3962 12.9442 86.3152 12.7027 86.1958 12.4607L86.4536 12.3504C86.6131 12.6759 86.7142 12.9922 86.7526 13.2996C86.8054 13.3158 86.8534 13.3282 86.9011 13.3363C87.1003 13.3681 87.2285 13.3492 87.2842 13.2863C87.3077 13.2435 87.227 13.1149 87.044 12.8983L87.3169 12.8121C87.4065 12.944 87.4756 13.0631 87.5224 13.1715C87.5777 13.3025 87.581 13.4023 87.5277 13.4672C87.4362 13.5784 87.2702 13.6244 87.0323 13.6113C86.9466 13.6068 86.8601 13.5939 86.7728 13.5726C86.7742 13.8069 86.7411 14.036 86.6734 14.26L86.3678 14.2301C86.4462 13.9837 86.4838 13.735 86.4741 13.4823C86.366 13.4438 86.2574 13.401 86.1456 13.348C86.005 13.2828 85.8539 13.1973 85.6881 13.092L85.4996 13.4108L85.2597 13.2679L85.4536 12.9379C85.2549 12.8016 85.0388 12.6393 84.8094 12.4506L84.9924 12.2282C85.2102 12.4074 85.4109 12.5648 85.5984 12.6957L86.0272 11.9763ZM85.2343 11.9106C85.4049 11.911 85.5851 11.9233 85.7708 11.9479L85.711 12.2095C85.5226 12.1788 85.3442 12.1642 85.1737 12.1637L85.2343 11.9106Z" fill="white"/>
<path d="M87.5268 9.87742L89.1658 11.171L88.9967 11.3853L88.8742 11.2887L88.5806 11.6608L88.7713 11.8113L88.6022 12.0256L86.8949 10.6781L87.0715 10.4544C86.9778 10.3116 86.8743 10.1764 86.7525 10.0498L86.9597 9.85022C87.0707 9.976 87.1629 10.1061 87.2406 10.2401L87.5268 9.87742ZM88.3733 11.4972L88.667 11.1251L88.2031 10.759L87.9094 11.131L88.3733 11.4972ZM87.7093 10.9731L88.0029 10.601L87.5696 10.259L87.276 10.6311L87.7093 10.9731ZM88.4266 9.89962C88.7423 9.89661 89.0043 9.90848 89.2154 9.9413L89.2008 10.2164C88.9747 10.1832 88.7062 10.17 88.3965 10.1702L88.4266 9.89962ZM88.4883 8.66417C89.3007 9.30541 89.793 9.71308 89.9628 9.88532C90.1137 10.0427 90.1093 10.2226 89.9513 10.4228C89.9141 10.4699 89.8425 10.551 89.7425 10.6631L89.4949 10.5556C89.5814 10.4557 89.6567 10.3699 89.7162 10.2946C89.7906 10.2004 89.7839 10.1072 89.6961 10.015C89.5895 9.90792 89.1995 9.5886 88.532 9.05417L88.0655 9.64524C88.1548 9.8227 88.2248 10.0003 88.2719 10.1827L87.9894 10.1775C87.886 9.84367 87.696 9.51788 87.4156 9.20487L87.6186 9.00582C87.7318 9.13345 87.8283 9.26307 87.9139 9.39182L88.4883 8.66417Z" fill="white"/>
<path d="M88.5235 7.85189C88.7737 7.78641 89.0039 7.74715 89.2117 7.73228L89.2469 8.01222C89.0548 8.01643 88.8241 8.05149 88.5528 8.11977L88.5235 7.85189ZM91.7066 8.11428C91.6064 8.24535 91.4947 8.38652 91.3757 8.53722C91.2548 8.6903 91.144 8.80568 91.0436 8.88755C90.9421 8.96101 90.8211 9.00069 90.6854 9.01023C90.6194 9.01261 90.5785 9.02663 90.5566 9.05523C90.5183 9.10528 90.56 9.27307 90.6815 9.55861L90.3991 9.60699C90.2972 9.34023 90.2576 9.14006 90.2828 9.00829L89.6084 8.4926L89.3642 8.81194L89.1545 8.65159L89.5609 8.12014L90.4617 8.80894C90.4803 8.80431 90.5014 8.80151 90.5248 8.80052C90.631 8.79491 90.7224 8.77416 90.799 8.73827C90.887 8.69229 90.9886 8.60383 91.1009 8.46686C91.2072 8.33285 91.3316 8.175 91.4738 7.98911C91.5631 7.87233 91.6518 7.75135 91.7405 7.63037C91.8292 7.50939 91.8955 7.4128 91.94 7.34481L92.1221 7.57091L91.7066 8.11428ZM89.492 7.07425L89.1403 7.5342L88.952 7.39025L89.9524 6.08189L90.1121 6.20398C90.1256 6.43331 90.1127 6.6576 90.0782 6.88049C90.0866 6.87937 90.0926 6.87643 90.1011 6.8753L90.4673 6.39629L91.5254 7.20535C91.6661 7.31287 91.6774 7.44618 91.559 7.60108L91.4187 7.78459L91.1939 7.68829L91.3329 7.52638C91.3729 7.47395 91.3686 7.42531 91.3162 7.38522L91.1946 7.29228L90.9322 7.63546L91.3231 7.93431L91.1645 8.14164L90.7737 7.8428L90.5168 8.17882L90.9124 8.48131L90.7484 8.6958L89.4615 7.7118L89.8806 7.16367C89.768 7.20222 89.6458 7.24849 89.5186 7.30611L89.492 7.07425ZM89.8653 6.93672C89.8918 6.79836 89.9056 6.66168 89.9093 6.52851L89.5011 7.06234C89.6275 7.01551 89.7479 6.97163 89.8653 6.93672ZM90.1664 7.91096L90.3333 8.03851L90.5902 7.70249L90.4234 7.57493L90.1664 7.91096ZM90.5819 7.36759L90.7487 7.49515L91.0111 7.15197L90.8443 7.02442L90.5819 7.36759ZM90.6584 6.88228L90.4916 6.75473L90.2292 7.0979L90.396 7.22546L90.6584 6.88228ZM90.2375 7.4328L90.0707 7.30524L89.8137 7.64127L89.9805 7.76882L90.2375 7.4328Z" fill="white"/>
<path d="M91.888 3.83987L93.7613 5.2421L93.5959 5.46305L93.4591 5.36058L93.1444 5.78088L93.2837 5.88515L93.1184 6.10611L91.2426 4.70209L91.888 3.83987ZM92.9307 5.62089L93.2453 5.20059L91.9364 4.22083L91.6218 4.64113L92.9307 5.62089ZM90.883 5.77823C90.9618 5.92336 91.0255 6.06849 91.0761 6.21125L90.7996 6.31531C90.6888 5.99261 90.529 5.70057 90.3181 5.44157L90.5351 5.25176C90.6084 5.34409 90.6709 5.43583 90.731 5.52577L91.2218 4.87011L91.4403 5.0337L91.1958 5.36033C91.3412 5.47659 91.4751 5.58807 91.5916 5.69776L91.872 5.32309L92.0906 5.48668L91.7868 5.89257C91.8324 5.94173 91.8763 5.99329 91.9171 6.03885C92.1757 6.0038 92.4528 5.97894 92.7504 5.96186L92.8575 6.25936C92.5347 6.25006 92.2755 6.25091 92.0799 6.26189C92.2566 6.55153 92.3427 6.88204 92.3322 7.25645L92.0383 7.26873C92.0403 6.88053 91.9368 6.54823 91.7271 6.26763C91.6887 6.22387 91.6496 6.1759 91.6088 6.13034L91.2546 6.60348L91.0361 6.43988L91.4154 5.93312C91.2989 5.82344 91.165 5.71196 91.0197 5.5957L90.883 5.77823Z" fill="white"/>
<path d="M91.9883 3.17472L93.4841 3.50781L94.2419 4.83982L94.0124 4.96866L93.313 3.73944L91.9325 3.43193L91.9883 3.17472ZM92.2931 2.76213L93.789 3.09522L94.5467 4.42722L94.3173 4.55607L93.6178 3.32685L92.2303 3.02898L92.2931 2.76213Z" fill="white"/>
</svg>
