<svg width="113" height="21" viewBox="0 0 113 21" fill="none" xmlns="http://www.w3.org/2000/svg">
<path d="M4.33324 2.16504L4.63787 2.36711L3.56059 3.92276L4.00215 5.75604L3.66147 5.84015L3.18285 3.85372L4.33324 2.16504ZM5.00609 2.28803L5.29498 2.48723L4.23344 4.04575L4.675 5.87903L4.33432 5.96314L3.8557 3.97671L5.00609 2.28803Z" fill="white"/>
<path d="M8.19621 4.39294L8.07196 5.02077L8.56244 5.11784L8.6867 4.49002L8.19621 4.39294ZM8.75115 4.16433L8.87308 3.54828L8.38259 3.45121L8.26067 4.06726L8.75115 4.16433ZM7.99495 5.34804C7.85631 5.84254 7.63666 6.23129 7.34384 6.51585L7.12361 6.22761C7.17527 6.17259 7.22771 6.11365 7.27623 6.05394L6.49145 5.89862L6.44874 6.11444L6.11128 6.04765L6.42891 4.44278L6.82914 4.52199L6.96427 3.83923L6.48948 3.74527L6.55704 3.40389L7.03183 3.49785L7.15997 2.85041L7.51312 2.9203L7.38498 3.56775L7.85977 3.66171L7.79221 4.00309L7.31742 3.90912L7.18229 4.59188L7.56291 4.66721L7.29344 6.0288C7.49294 5.76247 7.63269 5.42722 7.72052 5.02461L8.11192 3.04697L9.28124 3.27839L8.66308 6.40181C8.61493 6.64509 8.46529 6.74188 8.21809 6.69295L7.93557 6.63704L7.91055 6.28957C8.00239 6.31998 8.09109 6.34569 8.17742 6.36278C8.26374 6.37986 8.32248 6.33032 8.345 6.21653L8.49721 5.44745L7.99495 5.34804ZM6.11298 2.59835C6.32839 2.82855 6.50141 3.04628 6.63834 3.26095L6.33203 3.46945C6.21709 3.26729 6.04248 3.03701 5.81448 2.788L6.11298 2.59835ZM5.85671 3.50178C6.07056 3.73983 6.2444 3.97404 6.3837 4.19733L6.07424 4.40113C5.96086 4.19112 5.78702 3.95691 5.55429 3.69066L5.85671 3.50178ZM5.97819 4.61862L6.2751 4.80786C6.01952 5.27513 5.74975 5.71105 5.47051 6.11248L5.16649 5.89736C5.45983 5.4865 5.73197 5.0592 5.97819 4.61862ZM6.55435 5.58079L7.0213 5.6732L7.17118 4.91589L6.70423 4.82347L6.55435 5.58079Z" fill="white"/>
<path d="M9.64355 3.5674L11.2443 3.9054C11.2847 3.79129 11.326 3.67327 11.3633 3.55443L11.7322 3.68546C11.6973 3.79257 11.6641 3.89185 11.6278 3.98638L13.1502 4.30785L13.0767 4.65617L11.4955 4.32231C11.4481 4.43085 11.4015 4.53547 11.3557 4.63618L12.8155 4.94443L12.361 7.09696C12.3015 7.37875 12.1378 7.49546 11.8795 7.44092L11.5077 7.36241L11.4859 6.98169L11.8326 7.06307C11.9304 7.08373 11.9929 7.03968 12.0144 6.93792L12.378 5.21589L9.99061 4.71179L9.5146 6.96609L9.15063 6.88923L9.70018 4.28662L10.976 4.55602C11.0227 4.4514 11.0693 4.34677 11.112 4.24132L9.57 3.91572L9.64355 3.5674ZM10.7741 4.95082C10.8243 5.10042 10.8625 5.26793 10.8919 5.45809L11.248 5.53329C11.3585 5.39719 11.4628 5.2516 11.5602 5.10045L11.8703 5.29676C11.7852 5.4096 11.6977 5.51379 11.6042 5.6085L11.9877 5.68948L11.9191 6.01432L11.1794 5.85813L11.11 6.18688L11.9554 6.36538L11.8868 6.69022L11.0414 6.51172L10.8968 7.19662L10.5367 7.12059L10.6814 6.43569L9.83991 6.25802L9.9085 5.93318L10.7499 6.11085L10.8194 5.7821L10.0914 5.62839L10.16 5.30356L10.5357 5.38289C10.5065 5.25 10.4679 5.12328 10.4158 5.0019L10.7741 4.95082Z" fill="white"/>
<path d="M15.2809 4.42616L15.644 4.50704L15.4222 5.50264L15.0591 5.42176L15.2809 4.42616ZM14.0075 6.00303C13.8279 5.99991 13.6483 5.99678 13.4696 5.98975L13.3921 5.62006C14.6129 5.6953 15.5848 5.60034 16.3039 5.33432C16.1976 5.2041 16.0836 5.07215 15.9618 4.93846L16.2647 4.75596C16.6012 5.12187 16.8791 5.47474 17.0915 5.80893L16.7756 6.01311C16.7023 5.88205 16.6174 5.74838 16.5168 5.61123C16.1162 5.77199 15.6571 5.88282 15.1347 5.94677L16.5169 6.25464L16.0446 8.37468L15.6815 8.2938L15.7146 8.14544L13.9928 7.7619L13.958 7.91807L13.5988 7.83806L14.0075 6.00303ZM14.0658 7.43394L15.7876 7.81747L15.8459 7.55589L14.1241 7.17235L14.0658 7.43394ZM14.1902 6.87562L15.912 7.25916L15.965 7.021L14.2432 6.63746L14.1902 6.87562ZM14.3085 6.34464L16.0303 6.72817L16.0851 6.4822L14.3633 6.09866L14.3085 6.34464ZM14.6183 4.51216L14.8286 4.80079C14.5347 5.03449 14.1941 5.22088 13.8074 5.35605L13.6544 5.03101C14.0198 4.8993 14.3405 4.72895 14.6183 4.51216Z" fill="white"/>
<path d="M19.056 5.95047L17.7505 5.64799L17.8327 5.29338L20.8215 5.98593L20.7394 6.34054L19.4301 6.03715L18.8811 8.40638L20.4359 8.76665L20.3528 9.12515L16.8652 8.31703L16.9483 7.95852L18.507 8.3197L19.056 5.95047Z" fill="white"/>
<path d="M22.854 6.21177L23.2236 6.29975L22.4957 9.35832L22.9627 9.46945L23.6906 6.41088L24.0603 6.49886L23.3323 9.55743L24.4686 9.82786L24.3825 10.1897L20.9114 9.36366L20.9976 9.00177L22.126 9.27034L22.854 6.21177ZM24.6157 7.39583L24.9203 7.56701C24.6132 8.20112 24.2836 8.73944 23.9306 9.18586L23.6277 8.9904C23.953 8.59087 24.2856 8.05737 24.6157 7.39583ZM21.9481 6.75274C22.0225 7.3214 22.0559 7.95845 22.0522 8.6648L21.6933 8.66984C21.7064 8.02741 21.676 7.39519 21.6088 6.7789L21.9481 6.75274Z" fill="white"/>
<path d="M26.1157 7.01987C26.3196 7.26648 26.4798 7.50667 26.606 7.73454L26.2914 7.93032C26.1876 7.71196 26.0245 7.46694 25.8048 7.2001L26.1157 7.01987ZM25.351 8.0083L26.2221 8.21809L25.8259 9.86306C25.9708 9.79098 26.1272 9.70523 26.2991 9.60672L26.3065 10.02C25.9976 10.1924 25.6787 10.3378 25.3508 10.4522L25.2913 10.084C25.3666 10.0446 25.4185 9.983 25.4382 9.90133L25.7791 8.48581L25.2658 8.36218L25.351 8.0083ZM26.6278 8.80543L28.5139 9.25967L28.4324 9.598C28.2363 9.91694 27.9785 10.1675 27.658 10.3537C27.8675 10.5769 28.1352 10.7978 28.4553 11.0065L28.1801 11.2776C27.8287 11.0284 27.549 10.7718 27.3314 10.5137C26.9756 10.6584 26.5563 10.7425 26.0811 10.768L25.9499 10.4072C26.3912 10.386 26.7738 10.3176 27.0988 10.1984C26.8961 9.87807 26.7817 9.55017 26.7633 9.21658L26.5417 9.1632L26.6278 8.80543ZM27.1094 9.29994C27.1418 9.5587 27.2419 9.80911 27.4128 10.056C27.6687 9.91602 27.8836 9.74148 28.0544 9.52753L27.1094 9.29994ZM27.2616 7.36991L28.6382 7.70146L28.4415 8.51811C28.4209 8.60367 28.4564 8.66157 28.5536 8.68499L28.8958 8.76741L28.8143 9.10573L28.3749 8.9999C28.0988 8.9334 27.9945 8.7684 28.0563 8.51174L28.1893 7.95953L27.5438 7.80405L27.5157 7.92072C27.4183 8.32515 27.1363 8.59051 26.6746 8.71383L26.498 8.37094C26.8602 8.30184 27.0771 8.13601 27.1408 7.87157L27.2616 7.36991Z" fill="white"/>
<path d="M30.4181 9.19613L31.4371 9.44078L31.7107 8.30116L32.0919 8.39267L31.8183 9.53228L32.7829 9.76386L32.6951 10.1295L31.7305 9.8979L31.2272 11.9943L30.846 11.9028L31.3493 9.80639L30.3303 9.56174L30.4181 9.19613ZM29.9754 7.92157C30.1824 8.17285 30.3506 8.41479 30.4789 8.65129L30.1645 8.8473C30.0528 8.62714 29.8856 8.38131 29.658 8.11276L29.9754 7.92157ZM29.1912 8.92627L30.0896 9.14197L29.6918 10.7989C29.8406 10.7276 29.997 10.6418 30.1639 10.5461L30.1706 10.9467C29.8656 11.1203 29.5468 11.2659 29.219 11.3806L29.1583 11.0164C29.2375 10.9778 29.2884 10.9201 29.3071 10.8423L29.6507 9.41094L29.1062 9.28021L29.1912 8.92627Z" fill="white"/>
<path d="M34.8196 9.02906L35.2012 9.11894L35.0425 9.7925L36.4286 10.119L35.9856 11.9995L35.6157 11.9124L35.668 11.6905L34.6518 11.4511L34.3446 12.7554L33.963 12.6655L34.2702 11.3612L33.2579 11.1228L33.2057 11.3447L32.8358 11.2576L33.2788 9.37703L34.6609 9.70262L34.8196 9.02906ZM33.3432 10.7607L34.3555 10.9991L34.5757 10.0647L33.5634 9.82625L33.3432 10.7607ZM34.7371 11.089L35.7533 11.3284L35.9734 10.394L34.9572 10.1546L34.7371 11.089Z" fill="white"/>
<path d="M38.7638 13.6116L37.8978 13.4152C37.5935 13.3461 37.4759 13.1595 37.5431 12.863L38.0439 10.6551L38.4145 10.7392L37.9314 12.8691C37.9067 12.9783 37.9606 13.0479 38.0932 13.078L38.7759 13.2329C38.8539 13.2506 38.9174 13.2239 38.9693 13.1578C39.0278 13.0808 39.1174 12.8304 39.232 12.3971L39.5566 12.5937C39.3997 13.1406 39.2669 13.455 39.1563 13.5447C39.0562 13.6246 38.9238 13.6478 38.7638 13.6116ZM37.3673 10.9077L37.7055 11.0623C37.4427 11.7328 37.1543 12.299 36.8451 12.758L36.5703 12.4865C36.8839 12.008 37.147 11.4812 37.3673 10.9077ZM40.0126 11.3969C40.1203 11.971 40.1975 12.5709 40.2347 13.2028L39.8608 13.2779C39.8186 12.5957 39.7411 11.9793 39.6263 11.4365L40.0126 11.3969ZM38.8743 9.978C39.1282 10.4499 39.3156 10.8533 39.4356 11.1922L39.0757 11.3321C38.9532 10.968 38.7715 10.5576 38.5266 10.1001L38.8743 9.978Z" fill="white"/>
<path d="M44.2858 11.4197L43.5967 14.6305L43.2369 14.5533L43.2982 14.2678L42.4495 14.0857L42.3782 14.4181L42.0223 14.3417L42.7214 11.0839L44.2858 11.4197ZM42.525 13.7337L43.3737 13.9158L43.8513 11.6905L43.0026 11.5084L42.525 13.7337ZM40.776 11.5133L41.4292 11.6534L41.5299 11.1841C41.3441 11.1729 41.1561 11.153 40.9728 11.13L40.9268 10.7724C41.5392 10.8548 42.0451 10.8611 42.4469 10.8L42.5566 11.1467C42.342 11.1743 42.1252 11.1933 41.9039 11.1949L41.789 11.7307L42.4264 11.8675L42.3517 12.2155L41.7143 12.0787L41.6807 12.2352C41.8586 12.4738 42.0353 12.7368 42.211 13.024L41.9231 13.2977C41.8009 13.0096 41.695 12.7783 41.6035 12.595L41.2468 14.2571L40.8869 14.1799L41.2269 12.596C40.9999 12.8909 40.7319 13.1484 40.4307 13.3702L40.3576 12.929C40.769 12.69 41.1004 12.3847 41.3503 12.0211L41.3545 12.0015L40.7013 11.8614L40.776 11.5133Z" fill="white"/>
<path d="M47.2472 13.2259L47.1229 13.8537L47.6134 13.9508L47.7377 13.323L47.2472 13.2259ZM47.8022 12.9974L47.9242 12.3813L47.4337 12.2842L47.3117 12.9002L47.8022 12.9974ZM47.0459 14.181C46.9072 14.6755 46.6875 15.0642 46.3947 15.3488L46.1745 15.0605C46.2261 15.0055 46.2786 14.9465 46.3271 14.8868L45.5424 14.7314L45.4996 14.9473L45.1622 14.8804L45.4799 13.2756L45.8802 13.3548L46.0154 12.6721L45.5406 12.5781L45.6082 12.2367L46.0829 12.3307L46.2111 11.6833L46.5643 11.7532L46.4361 12.4006L46.9109 12.4947L46.8433 12.836L46.3685 12.742L46.2333 13.4248L46.6139 13.5001L46.3443 14.8617C46.5439 14.5954 46.6836 14.2601 46.7715 13.8575L47.1631 11.8799L48.3324 12.1115L47.7139 15.2348C47.6658 15.4781 47.5161 15.5749 47.2689 15.5259L46.9864 15.47L46.9614 15.1225C47.0533 15.1529 47.142 15.1787 47.2283 15.1957C47.3146 15.2128 47.3733 15.1633 47.3959 15.0495L47.5482 14.2804L47.0459 14.181ZM45.1642 11.4311C45.3796 11.6614 45.5526 11.8791 45.6895 12.0938L45.3831 12.3023C45.2682 12.1001 45.0936 11.8698 44.8657 11.6208L45.1642 11.4311ZM44.9078 12.3346C45.1217 12.5726 45.2955 12.8068 45.4348 13.0301L45.1253 13.2339C45.0119 13.0239 44.8381 12.7897 44.6054 12.5234L44.9078 12.3346ZM45.0292 13.4514L45.3261 13.6407C45.0705 14.1079 44.8007 14.5438 44.5214 14.9452L44.2174 14.7301C44.5108 14.3192 44.7829 13.892 45.0292 13.4514ZM45.6053 14.4136L46.0722 14.5061L46.2222 13.7488L45.7552 13.6563L45.6053 14.4136Z" fill="white"/>
<path d="M48.855 12.4284L50.4658 12.7146C50.5025 12.5993 50.54 12.48 50.5735 12.36L50.9464 12.4791C50.915 12.5873 50.885 12.6876 50.8517 12.7832L52.3837 13.0555L52.3214 13.406L50.7304 13.1232C50.6864 13.2332 50.6432 13.3393 50.6007 13.4414L52.0697 13.7025L51.6848 15.8686C51.6344 16.1521 51.4746 16.274 51.2146 16.2278L50.8405 16.1614L50.8064 15.7815L51.1555 15.8517C51.254 15.8692 51.315 15.8232 51.3332 15.7208L51.6411 13.9879L49.2388 13.561L48.8356 15.8295L48.4694 15.7644L48.9348 13.1454L50.2187 13.3736C50.2619 13.2675 50.3051 13.1614 50.3444 13.0546L48.7927 12.7789L48.855 12.4284ZM50.0296 13.7747C50.0845 13.9226 50.1281 14.0888 50.1636 14.2779L50.522 14.3416C50.628 14.202 50.7276 14.0531 50.82 13.8989L51.1363 14.0851C51.0549 14.2006 50.9709 14.3076 50.8804 14.4052L51.2663 14.4738L51.2082 14.8007L50.4639 14.6684L50.4051 14.9993L51.2558 15.1504L51.1977 15.4773L50.347 15.3261L50.2245 16.0153L49.8622 15.951L49.9847 15.2618L49.138 15.1113L49.196 14.7844L50.0428 14.9349L50.1016 14.6041L49.369 14.4739L49.4271 14.147L49.8052 14.2142C49.7718 14.0823 49.729 13.9569 49.6731 13.8373L50.0296 13.7747Z" fill="white"/>
<path d="M54.157 12.9872L54.5246 13.0442L54.3682 14.0521L54.0006 13.9951L54.157 12.9872ZM52.9892 14.6437C52.8098 14.6523 52.6303 14.6609 52.4515 14.6656L52.3501 14.3017C53.5733 14.2972 54.5369 14.139 55.237 13.8267C55.1225 13.7036 55.0001 13.5794 54.8698 13.454L55.1602 13.2521C55.5199 13.5953 55.8202 13.9293 56.054 14.2489L55.752 14.4732C55.6704 14.3472 55.5769 14.2194 55.4675 14.0891C55.0783 14.2756 54.6275 14.4162 54.1104 14.5141L55.5096 14.7311L55.1767 16.8775L54.8091 16.8204L54.8324 16.6702L53.0892 16.3998L53.0647 16.5579L52.701 16.5015L52.9892 14.6437ZM53.1407 16.0678L54.8839 16.3382L54.925 16.0734L53.1818 15.803L53.1407 16.0678ZM53.2284 15.5026L54.9716 15.773L55.009 15.5318L53.2658 15.2614L53.2284 15.5026ZM53.3118 14.965L55.0549 15.2354L55.0936 14.9864L53.3504 14.716L53.3118 14.965ZM53.5014 13.1162L53.7301 13.3905C53.4521 13.6429 53.1243 13.8511 52.7473 14.0112L52.5735 13.6968C52.9295 13.5416 53.2384 13.3507 53.5014 13.1162Z" fill="white"/>
<path d="M58.26 14.2358L56.9309 14.0649L56.9773 13.7039L60.0203 14.0952L59.9738 14.4562L58.6408 14.2848L58.3306 16.6969L59.9136 16.9005L59.8667 17.2655L56.3159 16.8089L56.3628 16.4439L57.9498 16.648L58.26 14.2358Z" fill="white"/>
<path d="M61.8044 14.0383L62.1825 14.0764L61.8671 17.2046L62.3447 17.2527L62.66 14.1246L63.0381 14.1627L62.7228 17.2908L63.8849 17.408L63.8476 17.7781L60.2976 17.4202L60.3349 17.0501L61.489 17.1665L61.8044 14.0383ZM63.7077 14.978L64.0324 15.1072C63.8122 15.7765 63.557 16.3538 63.2664 16.8431L62.9402 16.6896C63.2096 16.2504 63.4683 15.6775 63.7077 14.978ZM60.9784 14.6948C61.1276 15.2485 61.2453 15.8755 61.3355 16.5761L60.9804 16.6287C60.9081 15.9903 60.7939 15.3677 60.6456 14.7658L60.9784 14.6948Z" fill="white"/>
<path d="M64.7751 14.3537C65.0165 14.5637 65.2138 14.7745 65.3754 14.9787L65.097 15.2232C64.959 15.0248 64.758 14.8097 64.4978 14.5822L64.7751 14.3537ZM64.182 15.4537L65.0756 15.5185L64.9533 17.206C65.0845 17.1113 65.2248 17.0011 65.3783 16.8759L65.4531 17.2824C65.1764 17.503 64.8855 17.6984 64.5807 17.8648L64.4619 17.5113C64.5298 17.4601 64.5709 17.3909 64.577 17.3071L64.6823 15.8549L64.1556 15.8167L64.182 15.4537ZM65.5718 16.0317L67.5067 16.172L67.4816 16.5191C67.3401 16.8657 67.1267 17.1551 66.8408 17.391C67.084 17.5771 67.3842 17.7512 67.734 17.9049L67.5068 18.2173C67.1195 18.0288 66.8016 17.8213 66.5448 17.6022C66.2174 17.803 65.8174 17.9545 65.3528 18.0572L65.1645 17.7227C65.5963 17.6297 65.9627 17.4998 66.2638 17.3291C66.0116 17.0462 65.8452 16.7413 65.7726 16.4152L65.5452 16.3987L65.5718 16.0317ZM66.1277 16.441C66.2018 16.691 66.3415 16.9217 66.5504 17.1374C66.78 16.9575 66.9635 16.7502 67.0971 16.5112L66.1277 16.441ZM65.9627 14.512L67.375 14.6144L67.3143 15.4522C67.3079 15.5399 67.3523 15.5913 67.4521 15.5985L67.8031 15.624L67.778 15.9711L67.3272 15.9384C67.0439 15.9178 66.9141 15.7721 66.9332 15.5088L66.9743 14.9423L66.312 14.8942L66.3033 15.0139C66.2732 15.4288 66.0384 15.7367 65.603 15.9337L65.3728 15.6242C65.7189 15.4969 65.9057 15.2979 65.9254 15.0266L65.9627 14.512Z" fill="white"/>
<path d="M69.296 15.7573L70.343 15.8021L70.3931 14.6312L70.7848 14.6479L70.7347 15.8188L71.7258 15.8613L71.7097 16.2369L70.7186 16.1945L70.6264 18.3485L70.2348 18.3318L70.327 16.1777L69.2799 16.1329L69.296 15.7573ZM68.6172 14.5912C68.8686 14.7981 69.08 15.0034 69.2513 15.2109L68.9803 15.4635C68.8284 15.2688 68.6172 15.0596 68.3424 14.8397L68.6172 14.5912ZM68.0401 15.7276L68.9633 15.7671L68.8904 17.4695C69.0228 17.3711 69.1598 17.2568 69.3053 17.1309L69.3886 17.5229C69.1226 17.7517 68.8376 17.9557 68.5378 18.131L68.4085 17.7852C68.4788 17.7322 68.5177 17.6658 68.5211 17.5858L68.584 16.1152L68.0246 16.0912L68.0401 15.7276Z" fill="white"/>
<path d="M74.9731 15.2707L74.4371 15.2642L74.4248 16.2842L74.9608 16.2906L74.9731 15.2707ZM74.9564 16.6546L74.4164 16.6481C74.3667 17.4555 74.1275 18.0487 73.6909 18.4275L73.41 18.1721C73.7939 17.8487 74.0081 17.3392 74.0485 16.6436L73.6445 16.6388L73.6489 16.2748L74.0568 16.2797L74.0691 15.2598L73.7492 15.2559L73.7535 14.896L75.6774 14.9191L75.673 15.2791L75.337 15.2751L75.3248 16.295L75.7687 16.3004L75.7643 16.6643L75.3204 16.659L75.299 18.4308L74.935 18.4265L74.9564 16.6546ZM72.629 15.2664L72.189 15.2611L72.1934 14.8932L73.6013 14.9101L73.5969 15.2781L72.9889 15.2708C72.9295 15.5581 72.8541 15.8332 72.7551 16.088L73.471 16.0966L73.4482 17.9845L72.7683 17.9763L72.7648 18.2683L72.4128 18.264L72.4313 16.7282C72.3661 16.8314 72.3009 16.9306 72.2277 17.0257L72.0316 16.6993C72.3248 16.2748 72.5265 15.7972 72.629 15.2664ZM72.7723 17.6443L73.1043 17.6483L73.119 16.4284L72.787 16.4244L72.7723 17.6443Z" fill="white"/>
<path d="M78.4757 15.5426C78.8956 15.73 79.2845 15.9621 79.6342 16.239L79.4328 16.5632C79.0583 16.2508 78.6772 16.0066 78.2895 15.8305L78.4757 15.5426ZM77.6115 15.5443L77.8449 15.8036C77.5154 16.1224 77.1127 16.3868 76.629 16.6007L76.4621 16.2641C76.9303 16.0784 77.3135 15.8385 77.6115 15.5443ZM78.1024 14.7061C78.1526 14.8131 78.2031 14.9321 78.2498 15.0631L79.7135 15.0331L79.731 15.8849L79.351 15.8927L79.3408 15.3928L76.7733 15.4455L76.7835 15.9414L76.4036 15.9492L76.3862 15.1014L77.8419 15.0715C77.7917 14.9645 77.7416 14.8655 77.6838 14.7787L78.1024 14.7061ZM77.6012 16.2087L77.9811 16.2009L77.9881 16.5408L77.9829 16.681L79.0107 16.6599L79.0363 17.9076C79.0375 17.9636 79.0701 17.9949 79.1381 17.9935L79.4021 17.9881C79.4861 17.9864 79.5373 17.9493 79.552 17.885C79.5607 17.7248 79.5652 17.5567 79.5616 17.3767L79.9156 17.4735C79.8947 17.818 79.871 18.0305 79.8487 18.111C79.8038 18.2639 79.6614 18.3429 79.4135 18.3479L79.0895 18.3546C78.8096 18.3603 78.671 18.2352 78.6657 17.9792L78.6461 17.0234L77.9383 17.038C77.88 17.3192 77.7809 17.5573 77.6369 17.7563C77.4147 18.0409 77.0472 18.2645 76.5385 18.427L76.3279 18.1072C76.8206 17.9451 77.1566 17.7461 77.3359 17.5144C77.4291 17.3765 77.498 17.223 77.5463 17.046L76.5865 17.0657L76.5792 16.7098L77.603 16.6888L77.6081 16.5486L77.6012 16.2087Z" fill="white"/>
<path d="M83.7814 14.7634L83.8393 15.6294L83.5241 15.6505L83.5398 15.886L82.0152 15.988L81.9995 15.7526L81.6762 15.7742L81.6182 14.9081L82.4883 14.8499C82.4414 14.7488 82.3954 14.6597 82.3416 14.5751L82.7284 14.4851C82.7793 14.5859 82.827 14.699 82.8754 14.824L83.7814 14.7634ZM82.0364 15.6459L83.4692 15.55L83.4422 15.1469L82.0094 15.2428L82.0364 15.6459ZM81.7365 16.3755L83.9116 16.2299L83.9356 16.5891L83.3011 16.6316L83.3665 17.6094C83.3732 17.7092 83.4086 17.759 83.4724 17.7547L83.5962 17.7464C83.6281 17.7443 83.655 17.7264 83.6733 17.7011C83.6991 17.6673 83.7081 17.5024 83.7003 17.2062L84.0516 17.303C84.0442 17.6723 84.019 17.8945 83.9717 17.9658C83.9198 18.0294 83.8301 18.0675 83.6947 18.0806L83.3754 18.1019C83.2597 18.1097 83.1732 18.0754 83.1122 18.0033C83.043 17.9277 83.0047 17.8341 82.9972 17.7223L82.9259 16.6567L82.6346 16.6762C82.6293 17.0775 82.5855 17.3811 82.4948 17.5836C82.3832 17.8316 82.1815 18.0535 81.89 18.2495L81.6257 17.9544C81.872 17.8017 82.0446 17.6257 82.1438 17.4307C82.2212 17.2691 82.2611 17.0259 82.2634 16.7011L81.7605 16.7347L81.7365 16.3755ZM80.3083 14.8034L81.5136 14.7227L81.5334 15.0181C81.4526 15.3682 81.3532 15.7397 81.2349 16.1285C81.4787 16.477 81.6198 16.7882 81.6542 17.0626C81.6667 17.2501 81.6359 17.3885 81.5697 17.4771C81.4689 17.5881 81.2847 17.6525 81.0136 17.6747L80.864 17.2958C80.9449 17.3065 81.0172 17.3096 81.0731 17.3059C81.1604 17.292 81.2229 17.2678 81.2532 17.2417C81.279 17.2079 81.2918 17.159 81.287 17.0871C81.2691 16.8197 81.1293 16.5284 80.8714 16.2089C81.0004 15.7994 81.0998 15.4279 81.1662 15.1028L80.6993 15.134L80.9132 18.3309L80.546 18.3554L80.3083 14.8034Z" fill="white"/>
<path d="M86.5355 14.1565L86.9169 14.1116C86.9571 14.4532 86.9831 14.7764 86.9938 15.0732C87.3154 16.0261 87.7646 16.7627 88.3414 17.2828L88.1087 17.6324C87.6555 17.1702 87.2816 16.594 86.9829 15.9042L86.9694 16.0628C86.9068 16.763 86.635 17.3628 86.1551 17.8704L85.8644 17.5905C86.2714 17.1479 86.5088 16.6326 86.5845 16.0437C86.6391 15.5499 86.6213 14.9197 86.5355 14.1565ZM84.7761 14.3676C85.0573 14.5319 85.2987 14.7008 85.5008 14.8784L85.2735 15.171C85.0926 15.003 84.8507 14.8301 84.5443 14.6567L84.7761 14.3676ZM84.3874 15.5814L85.305 15.4734L85.5005 17.1339C85.6115 17.0161 85.7286 16.8815 85.8557 16.7296L85.9968 17.1077C85.7702 17.372 85.5248 17.6143 85.2573 17.8392L85.0745 17.5183C85.1355 17.4548 85.1633 17.383 85.1535 17.2996L84.9861 15.8774L84.4299 15.9429L84.3874 15.5814Z" fill="white"/>
<path d="M88.8158 14.9901L91.1582 14.5924L91.2185 14.9473L90.2484 15.112L90.3488 15.7035L91.4845 15.5107L91.5448 15.8656L90.4091 16.0584L90.5322 16.7841C90.8071 16.778 91.1378 16.7421 91.5328 16.6791C91.73 16.6456 91.933 16.599 92.1354 16.5484L92.1274 16.9311L91.7567 16.9941C90.9285 17.1347 90.3203 17.1608 89.94 17.0712C89.6675 16.9958 89.433 16.8571 89.2364 16.6551C89.1401 16.9961 89.0003 17.2957 88.8169 17.554L88.5215 17.2958C88.8266 16.8464 88.9906 16.283 89.007 15.6149L89.3806 15.6164C89.3721 15.8531 89.3497 16.0801 89.3162 16.2886C89.5537 16.5647 89.8206 16.7264 90.1113 16.7663L90.1482 16.7681L89.8777 15.1749L88.876 15.345L88.8158 14.9901ZM91.5049 13.7424L91.6568 14.6375L91.2901 14.6998L91.197 14.1517L88.6258 14.5882L88.7222 15.1561L88.3555 15.2183L88.2001 14.3034L89.6829 14.0517C89.6063 13.9348 89.5238 13.8312 89.4433 13.7394L89.8348 13.608C89.9108 13.7209 89.9887 13.8456 90.0655 13.9867L91.5049 13.7424Z" fill="white"/>
<path d="M95.0975 14.1781L95.2823 14.9975L93.382 15.426L93.4287 15.6329L95.5124 15.163L95.7473 16.2048L95.3766 16.2884L95.3449 16.1479L93.632 16.5342L93.6628 16.6708L93.2921 16.7544L92.8266 14.6902L95.0975 14.1781ZM93.558 16.2065L95.271 15.8202L95.2077 15.5392L93.4947 15.9255L93.558 16.2065ZM93.3152 15.1295L94.8526 14.7828L94.8015 14.5565L93.2641 14.9032L93.3152 15.1295ZM95.526 13.5689L95.6941 14.3142L95.3312 14.396L95.2335 13.9629L92.6036 14.556L92.7012 14.9891L92.3384 15.0709L92.1703 14.3257L93.6804 13.9851C93.6316 13.9141 93.5806 13.8518 93.5314 13.7973L93.8468 13.6687L93.7708 13.6408C93.8975 13.3662 93.9739 13.0865 93.9912 12.7997L94.3639 12.7977C94.3554 12.8693 94.35 12.9361 94.3407 13.0038L95.4254 12.7592L95.4985 13.0831L94.8624 13.2265C94.9442 13.2983 95.0143 13.3727 95.0748 13.441L94.7743 13.6359C94.6838 13.5251 94.5815 13.417 94.4683 13.3154L94.2693 13.3602C94.232 13.504 94.1852 13.6417 94.1279 13.7694L93.9133 13.6907C93.9604 13.7539 94.0053 13.8257 94.055 13.9006L95.526 13.5689ZM92.5915 13.7386C92.5373 13.8985 92.4736 14.0522 92.3994 14.1961L92.0298 14.0662C92.2015 13.7733 92.3017 13.4718 92.3359 13.1689L92.7086 13.1669C92.7001 13.2385 92.6877 13.311 92.6784 13.3787L93.6617 13.1569L93.7348 13.4808L93.1495 13.6128C93.2417 13.6945 93.3252 13.7741 93.3923 13.8533L93.0819 14.0586C92.9839 13.9331 92.8789 13.8132 92.7632 13.6999L92.5915 13.7386Z" fill="white"/>
<path d="M96.841 12.2411L98.7893 11.6931L99.307 13.5337L98.5177 13.7557L98.626 14.1408L99.4654 13.9047L99.5607 14.2435L98.7213 14.4796L98.8339 14.8801L99.8081 14.6061L99.9067 14.9565L97.5771 15.6117L97.4785 15.2613L98.472 14.9819L98.3593 14.5814L97.5161 14.8186L97.4208 14.4798L98.264 14.2426L98.1557 13.8575L97.3587 14.0817L96.841 12.2411ZM98.8657 13.3088L98.7422 12.8698L98.3032 12.9933L98.4267 13.4323L98.8657 13.3088ZM98.0647 13.5341L97.9413 13.0951L97.4946 13.2207L97.6181 13.6597L98.0647 13.5341ZM97.4058 12.905L97.8525 12.7794L97.729 12.3404L97.2823 12.466L97.4058 12.905ZM98.091 12.2386L98.2144 12.6775L98.6534 12.5541L98.5299 12.1151L98.091 12.2386ZM95.8688 13.8816L96.25 13.7744L96.0183 12.9504L95.5793 13.0738L95.4818 12.7273L96.7256 12.3775L96.823 12.724L96.3879 12.8464L96.6197 13.6704L97.0086 13.561L97.1072 13.9114L96.7183 14.0208L96.9349 14.791C97.0528 14.7079 97.1669 14.626 97.2749 14.5374L97.3746 14.8917C97.0593 15.1299 96.7155 15.3554 96.3383 15.5654L96.1512 15.2399C96.3053 15.1675 96.4534 15.0884 96.5966 15.0066L96.3486 14.1248L95.9674 14.232L95.8688 13.8816Z" fill="white"/>
<path d="M100.005 12.6748L100.366 12.692C100.394 13.1852 100.347 13.5851 100.225 13.8969L99.8765 13.7532C99.9939 13.4516 100.038 13.0946 100.005 12.6748ZM100.334 11.0642L100.697 10.9409L100.936 11.6456L102.133 11.2398C102.215 11.5076 102.295 11.7551 102.365 11.9849L102.574 11.779C102.863 12.0609 103.161 12.3781 103.464 12.7358L103.188 13.0067C102.926 12.6816 102.663 12.3908 102.408 12.139C102.488 12.4245 102.558 12.6797 102.615 12.897C102.715 13.3189 102.749 13.6287 102.718 13.8249C102.685 14.0135 102.573 14.1444 102.385 14.225L101.941 14.3753L101.725 14.0601C101.856 14.024 101.979 13.9867 102.092 13.9482C102.278 13.8853 102.359 13.7141 102.339 13.4423C102.31 13.1565 102.156 12.5792 101.884 11.7129L101.039 11.9992C101.205 12.6144 101.266 13.1428 101.222 13.5845C101.165 14.0642 100.947 14.4929 100.573 14.873L100.269 14.6253C100.62 14.2403 100.813 13.837 100.849 13.4194C100.866 13.0462 100.808 12.6139 100.675 12.1225L99.7737 12.4281L99.6556 12.0796L100.572 11.7688L100.334 11.0642Z" fill="white"/>
<path d="M104.97 9.368L105.326 9.2263L105.549 9.78767L106.475 9.42014L106.611 9.76217L105.685 10.1297L105.929 10.7431L106.955 10.3357L107.091 10.6778L105.882 11.1575C105.868 11.7398 105.828 12.1816 105.759 12.4845C106.151 12.2775 106.529 12.0497 106.898 11.8085C106.722 11.6462 106.548 11.5001 106.379 11.369L106.677 11.1216C107.044 11.4063 107.394 11.7236 107.726 12.0825L107.45 12.3641C107.352 12.2569 107.255 12.1534 107.162 12.061C106.651 12.3888 106.083 12.7134 105.459 13.0386L105.254 12.7625C105.28 12.7395 105.301 12.7181 105.315 12.6995C105.421 12.4896 105.483 12.0263 105.499 11.3095L104.678 11.6357L104.542 11.2937L105.572 10.8848L105.328 10.2714L104.477 10.6094L104.341 10.2674L105.192 9.92937L104.97 9.368ZM103.368 10.0383C103.68 10.1298 103.953 10.2322 104.192 10.348L104.041 10.7049C103.831 10.5862 103.552 10.4815 103.209 10.3855L103.368 10.0383ZM103.62 10.9452C103.913 11.044 104.173 11.1561 104.403 11.28L104.247 11.6346C104.047 11.5115 103.786 11.3957 103.465 11.2909L103.62 10.9452ZM104.397 11.8504L104.769 11.8536C104.793 12.3818 104.789 12.8913 104.759 13.3807L104.344 13.3648C104.393 12.8591 104.412 12.3526 104.397 11.8504Z" fill="white"/>
<path d="M107.064 8.47113L108.586 9.83352L108.6 11.8768L108.249 11.8771L108.236 9.9914L106.831 8.73396L107.064 8.47113ZM107.687 8.18991L109.21 9.5523L109.223 11.5955L108.872 11.5958L108.86 9.71018L107.44 8.45932L107.687 8.18991Z" fill="white"/>
</svg>
