<svg width="55" height="6" viewBox="0 0 55 6" fill="none" xmlns="http://www.w3.org/2000/svg">
<path d="M5.72 0.691969L6.08 0.847969L5.304 2.55997L6.064 4.27197L5.72 4.42797L4.892 2.55997L5.72 0.691969ZM6.416 0.691969L6.76 0.847969L6 2.55997L6.76 4.27197L6.416 4.42797L5.588 2.55997L6.416 0.691969ZM10.724 1.65597V2.37197H10.384V2.70797H8.604C8.58 2.78797 8.552 2.86797 8.524 2.93997H10.256V3.24797C10.092 3.46397 9.892 3.65197 9.66 3.81997C9.984 3.93197 10.332 4.00397 10.704 4.04397L10.52 4.41997C10.064 4.35597 9.644 4.23597 9.268 4.05997C8.924 4.23997 8.556 4.36397 8.164 4.43597L7.976 4.05997C8.308 4.01197 8.604 3.93997 8.86 3.83597C8.66 3.70797 8.476 3.56797 8.304 3.41197C8.072 3.82397 7.78 4.14797 7.42 4.38397L7.22 4.01997C7.66 3.70797 7.98 3.27197 8.176 2.70797H7.628V2.37197H7.284V1.65597H7.868C7.836 1.55197 7.8 1.45597 7.76 1.36397L8.168 1.30397C8.208 1.40797 8.244 1.52797 8.28 1.65597H8.808C8.772 1.53997 8.732 1.43197 8.688 1.33197L9.092 1.27197C9.136 1.38397 9.18 1.51197 9.22 1.65597H9.66C9.74 1.50797 9.816 1.35197 9.88 1.19197C9.216 1.24797 8.424 1.27997 7.504 1.27997L7.372 0.891969C8.564 0.891969 9.58 0.839969 10.412 0.739969L10.62 1.10397C10.412 1.13597 10.188 1.15997 9.948 1.18397L10.292 1.31197C10.236 1.43997 10.172 1.55197 10.104 1.65597H10.724ZM7.708 2.32397H8.284L8.332 2.08397L8.748 2.13597L8.708 2.32397H10.3V2.03197H7.708V2.32397ZM8.664 3.29197C8.84 3.42797 9.032 3.54397 9.24 3.64397C9.428 3.53197 9.592 3.41197 9.736 3.29197H8.664ZM13.976 2.44797C14.276 2.91197 14.536 3.41597 14.76 3.95197L14.372 4.12797C14.14 3.54397 13.88 3.02397 13.596 2.57597L13.976 2.44797ZM12.2 1.54797C12.036 1.87997 11.84 2.15597 11.616 2.37597L11.32 2.09997C11.684 1.69197 11.944 1.21197 12.096 0.667969L12.496 0.775969C12.456 0.903969 12.416 1.02797 12.372 1.14797H14.556V1.41997C14.5 1.69997 14.428 1.97597 14.34 2.25597L13.924 2.13997C13.996 1.96797 14.06 1.77197 14.112 1.54797H12.2ZM12.816 4.39997H12.308L12.216 3.99197C12.376 4.00797 12.528 4.01997 12.672 4.01997C12.768 4.01997 12.816 3.95997 12.816 3.84397V1.82397H13.24V3.95197C13.24 4.24797 13.096 4.39997 12.816 4.39997ZM12.072 2.43597L12.432 2.61197C12.192 3.17197 11.912 3.65597 11.584 4.06397L11.24 3.81197C11.56 3.42797 11.84 2.97197 12.072 2.43597ZM15.664 2.69597H18.336V3.10397H15.664V2.69597ZM15.212 3.82797H18.788V4.23597H15.212V3.82797ZM15.364 1.62797H17.356C17.508 1.33997 17.636 1.03197 17.748 0.703969L18.156 0.847969C18.044 1.13597 17.916 1.39597 17.776 1.62797H18.636V2.03197H15.364V1.62797ZM16.216 0.747969C16.352 0.943969 16.484 1.16397 16.612 1.40397L16.24 1.59197C16.112 1.34797 15.972 1.12797 15.824 0.935969L16.216 0.747969ZM19.688 0.767969C19.944 0.959969 20.16 1.15197 20.336 1.34397L20.052 1.63197C19.896 1.44797 19.68 1.24797 19.404 1.03997L19.688 0.767969ZM19.156 1.90397H20.08V3.56397C20.196 3.45997 20.32 3.34797 20.452 3.22397L20.568 3.66397C20.304 3.90397 20.024 4.11597 19.728 4.30797L19.568 3.93197C19.636 3.87197 19.672 3.79597 19.672 3.70797V2.30397H19.156V1.90397ZM20.588 2.38397H22.54V2.76397C22.428 3.10797 22.244 3.40797 21.988 3.65997C22.236 3.81997 22.536 3.95997 22.892 4.08397L22.668 4.44397C22.276 4.28397 21.944 4.10797 21.68 3.91197C21.368 4.13197 20.988 4.30797 20.532 4.43997L20.3 4.08797C20.712 3.96797 21.06 3.81597 21.348 3.63197C21.092 3.37597 20.912 3.09597 20.816 2.78397H20.588V2.38397ZM21.208 2.78397C21.296 3.01197 21.44 3.21997 21.648 3.40397C21.852 3.21997 22.008 3.01597 22.12 2.78397H21.208ZM20.86 0.835969H22.3V1.66397C22.3 1.75197 22.348 1.79997 22.448 1.79997H22.792V2.17997H22.336C22.036 2.17997 21.888 2.03997 21.888 1.75997V1.22797H21.272V1.33597C21.272 1.75197 21.056 2.07597 20.632 2.29997L20.352 1.97997C20.688 1.83997 20.86 1.63997 20.86 1.37997V0.835969ZM24.416 1.86797H25.448V0.707969H25.88V1.86797H26.86V2.28397H25.88V4.42797H25.448V2.28397H24.416V1.86797ZM23.712 0.739969C23.964 0.935969 24.18 1.13197 24.36 1.32397L24.072 1.61597C23.92 1.43197 23.7 1.23597 23.416 1.02797L23.712 0.739969ZM23.156 1.89597H24.108V3.56797C24.224 3.46797 24.348 3.35597 24.48 3.23197L24.588 3.65997C24.328 3.89997 24.052 4.11597 23.756 4.30797L23.596 3.93197C23.668 3.87197 23.704 3.79997 23.704 3.71597V2.29597H23.156V1.89597ZM27.784 2.15597V2.70797H28.308V2.15597H27.784ZM28.308 1.78397V1.22397H27.784V1.78397H28.308ZM27.776 3.08397C27.744 3.62397 27.648 4.07197 27.484 4.42797L27.168 4.13997C27.328 3.79597 27.408 3.35997 27.412 2.83197V0.847969H28.688V3.97997C28.688 4.25997 28.56 4.40397 28.304 4.40397H27.984L27.884 4.03997C27.992 4.04797 28.092 4.05597 28.188 4.05597C28.268 4.05597 28.308 3.98397 28.308 3.84397V3.08397H27.776ZM29.324 2.68797V4.07197C29.516 3.95997 29.68 3.82797 29.82 3.67197C29.596 3.37997 29.44 3.05197 29.356 2.68797H29.324ZM29.324 4.10397V4.41997H28.932V0.847969H30.644C30.644 1.37597 30.616 1.73197 30.568 1.90797C30.52 2.07597 30.364 2.16397 30.108 2.16397H29.772L29.66 1.80797C29.724 1.80797 29.812 1.81197 29.92 1.81197C30.004 1.81197 30.064 1.80397 30.1 1.79597C30.14 1.78397 30.168 1.75197 30.192 1.69597C30.212 1.63197 30.228 1.47597 30.236 1.22397H29.324V2.31997H30.672V2.66797C30.604 3.04797 30.488 3.37597 30.328 3.64797C30.488 3.79997 30.668 3.93597 30.872 4.05597L30.668 4.41197C30.444 4.27597 30.252 4.13197 30.092 3.97597C29.932 4.15197 29.74 4.29997 29.524 4.41597L29.324 4.10397ZM29.712 2.68797C29.788 2.92797 29.9 3.14797 30.052 3.34397C30.16 3.15197 30.244 2.93197 30.304 2.68797H29.712ZM32.304 0.695969L32.728 0.759969C32.688 0.851969 32.648 0.939969 32.604 1.01997H34.304V1.35597C34.068 1.62797 33.788 1.85997 33.46 2.05197C33.88 2.20397 34.348 2.30397 34.86 2.35197L34.672 2.73997C34.052 2.66797 33.496 2.51997 33 2.28797C32.524 2.49997 31.972 2.65597 31.34 2.75197L31.148 2.35997C31.668 2.29597 32.132 2.18797 32.54 2.04397C32.364 1.93597 32.2 1.81997 32.048 1.69597C31.916 1.80397 31.772 1.90397 31.62 1.99997L31.368 1.66797C31.832 1.40397 32.144 1.07997 32.304 0.695969ZM32.996 1.85197C33.252 1.72397 33.48 1.57997 33.684 1.41197H32.332L32.324 1.41997C32.532 1.58797 32.756 1.73197 32.996 1.85197ZM32.692 2.51597H33.104C33.104 2.65197 33.092 2.78397 33.076 2.90397H34.444C34.436 3.61597 34.376 4.03997 34.264 4.17997C34.152 4.31997 33.956 4.39197 33.676 4.39197C33.536 4.39197 33.368 4.38397 33.168 4.36797L33.064 3.99197C33.276 4.00397 33.448 4.01197 33.584 4.01597C33.772 4.01197 33.888 3.97197 33.936 3.89597C33.988 3.81597 34.02 3.61197 34.028 3.27997H32.98C32.948 3.37197 32.908 3.45997 32.86 3.53997C32.668 3.89597 32.2 4.19197 31.456 4.43197L31.18 4.09197C31.828 3.90397 32.252 3.67597 32.448 3.40797C32.476 3.36397 32.5 3.31997 32.524 3.27997H31.428V2.90397H32.652C32.676 2.77997 32.688 2.65197 32.692 2.51597ZM36.672 0.923969H38.64V1.33597H36.672V0.923969ZM36.576 1.91597H38.812V2.32797H38.196V4.00397C38.196 4.26797 38.048 4.39997 37.752 4.39997H37.172L37.08 3.99197C37.264 4.00797 37.44 4.01997 37.608 4.01997C37.716 4.01997 37.772 3.97997 37.772 3.89997V2.32797H36.576V1.91597ZM35.976 0.735969L36.356 0.915969C36.144 1.35197 35.78 1.74797 35.264 2.10397L35.136 1.68397C35.512 1.41597 35.792 1.09997 35.976 0.735969ZM36.164 1.65597L36.54 1.83197C36.436 2.03997 36.304 2.23997 36.144 2.43197V4.41597H35.732V2.84397C35.596 2.95597 35.448 3.06797 35.296 3.17597L35.168 2.76397C35.616 2.45197 35.948 2.07997 36.164 1.65597ZM40.356 0.739969H40.776V3.87197H41.216V0.739969H41.636V3.87197H42.788V4.27997H39.212V3.87197H40.356V0.739969ZM42.344 1.49597L42.712 1.59997C42.56 2.28397 42.368 2.88397 42.136 3.39597L41.76 3.26397C41.984 2.79997 42.176 2.20797 42.344 1.49597ZM39.64 1.48397C39.84 2.01597 40.02 2.62797 40.176 3.31597L39.796 3.40797C39.66 2.78397 39.492 2.18397 39.284 1.60397L39.64 1.48397ZM46.024 1.26397H45.528V2.24797H46.024V1.26397ZM46.024 2.65197H45.524C45.484 3.45197 45.248 4.04397 44.824 4.42797L44.508 4.14797C44.88 3.82797 45.084 3.33197 45.116 2.65197H44.728V2.24797H45.12V1.26397H44.816V0.871969H46.748V1.26397H46.428V2.24797H46.86V2.65197H46.428V4.40797H46.024V2.65197ZM43.68 1.28797H43.252V0.887969H44.676V1.28797H44.076C44.024 1.56797 43.952 1.82797 43.86 2.07597H44.568V3.99197H43.888V4.27597H43.504V2.79197C43.448 2.87997 43.388 2.96397 43.332 3.04397L43.112 2.68397C43.392 2.26797 43.584 1.80397 43.68 1.28797ZM43.888 3.62797H44.184V2.44397H43.888V3.62797ZM49.424 1.54397C49.84 1.73997 50.224 1.97597 50.568 2.25597L50.34 2.60397C49.976 2.29197 49.6 2.04397 49.216 1.85997L49.424 1.54397ZM48.54 1.52797L48.792 1.81997C48.452 2.13197 48.04 2.38797 47.556 2.59197L47.38 2.21597C47.852 2.03997 48.236 1.81197 48.54 1.52797ZM49.08 0.703969C49.128 0.807969 49.172 0.923969 49.216 1.05197H50.672V1.91997H50.256V1.43597H47.744V1.91597H47.328V1.05197H48.764C48.716 0.955969 48.668 0.863969 48.616 0.775969L49.08 0.703969ZM48.508 2.19997H48.928V2.55997C48.924 2.59997 48.92 2.63197 48.92 2.66397H49.948V3.90797C49.948 3.95997 49.976 3.98797 50.036 3.98797H50.288C50.368 3.98797 50.412 3.95997 50.428 3.90397C50.44 3.74397 50.448 3.57597 50.448 3.39997L50.832 3.51597C50.8 3.86797 50.772 4.08397 50.748 4.16397C50.7 4.30797 50.548 4.37997 50.292 4.37997H49.976C49.68 4.37997 49.536 4.24397 49.536 3.97597V3.05597H48.864C48.8 3.33197 48.692 3.56397 48.544 3.75597C48.316 4.03597 47.944 4.24797 47.432 4.39997L47.208 4.04397C47.704 3.89197 48.044 3.70797 48.22 3.48797C48.308 3.35997 48.38 3.21597 48.428 3.05597H47.492V2.66397H48.5L48.508 2.55997V2.19997ZM51.584 0.691969L52.412 2.55997L51.584 4.42797L51.24 4.27197L52 2.55997L51.24 0.847969L51.584 0.691969ZM52.28 0.691969L53.108 2.55997L52.28 4.42797L51.936 4.27197L52.696 2.55997L51.92 0.847969L52.28 0.691969Z" fill="white"/>
<g clip-path="url(#clip0_250_2717)">
<path fill-rule="evenodd" clip-rule="evenodd" d="M0 0.599915H4V4.59991H0V0.599915Z" fill="white"/>
<path fill-rule="evenodd" clip-rule="evenodd" d="M0 0.599915H1.33359V4.59991H0V0.599915Z" fill="#009A49"/>
<path fill-rule="evenodd" clip-rule="evenodd" d="M2.66641 0.599915H4.00001V4.59991H2.66641V0.599915Z" fill="#FF7900"/>
</g>
<defs>
<clipPath id="clip0_250_2717">
<rect y="0.599915" width="4" height="4" rx="2" fill="white"/>
</clipPath>
</defs>
</svg>
