<svg width="111" height="56" viewBox="0 0 111 56" fill="none" xmlns="http://www.w3.org/2000/svg">
<path d="M6.49574 50.1734L6.88165 50.2443L6.51162 52.0871L7.63804 53.5837L7.33807 53.8132L6.11023 52.18L6.49574 50.1734ZM7.17382 50.0165L7.54414 50.0909L7.1897 51.9302L8.31612 53.4268L8.01615 53.6563L6.78831 52.0231L7.17382 50.0165Z" fill="white"/>
<path d="M8.27847 49.8287C8.57371 49.9522 8.83017 50.0854 9.04785 50.2284L8.84306 50.5772C8.64674 50.4371 8.38832 50.2961 8.06977 50.162L8.27847 49.8287ZM8.04101 51.0605L8.93685 50.8341L9.34356 52.4435C9.43054 52.3142 9.52332 52.1753 9.62092 52.0227L9.84118 52.4209C9.64403 52.7182 9.4245 52.9924 9.18457 53.251L8.93732 52.9257C8.98855 52.8509 9.00483 52.7684 8.98327 52.6831L8.63929 51.3218L8.13901 51.4483L8.04101 51.0605ZM9.54697 51.175L11.4395 50.6967L11.5326 51.0652C11.5083 51.4261 11.4034 51.762 11.2169 52.0691C11.4966 52.1634 11.8217 52.2257 12.1973 52.2587L12.0683 52.6626C11.649 52.6035 11.284 52.5142 10.9801 52.3889C10.7315 52.6786 10.4062 52.9423 9.9964 53.182L9.68523 52.8976C10.0553 52.6803 10.3554 52.4477 10.5896 52.1987C10.2787 52.0133 10.0355 51.7859 9.86602 51.5069L9.64497 51.5628L9.54697 51.175ZM10.2461 51.4109C10.3873 51.6104 10.5778 51.7768 10.8246 51.9042C10.9773 51.6758 11.0785 51.4398 11.1303 51.1874L10.2461 51.4109ZM9.43141 49.6075L10.8275 49.2547L11.0304 50.0575C11.0519 50.1428 11.1102 50.1776 11.2072 50.1531L11.5407 50.0688L11.6338 50.4372L11.1917 50.5489C10.9009 50.6224 10.7231 50.523 10.6545 50.2515L10.5241 49.7357L9.9269 49.8866L9.95336 49.9913C10.0553 50.3947 9.92524 50.7617 9.56905 51.0828L9.21918 50.8411C9.51064 50.6231 9.6284 50.387 9.5647 50.1349L9.43141 49.6075Z" fill="white"/>
<path d="M13.0529 49.7288L14.0476 49.454L13.7386 48.3359L14.155 48.2208L14.464 49.3389L15.4086 49.0779L15.5194 49.4789L14.5748 49.7399L15.1458 51.8064L14.7294 51.9215L14.1584 49.8549L13.1637 50.1298L13.0529 49.7288ZM12.0739 48.8291C12.369 48.9509 12.6294 49.0823 12.854 49.2194L12.6542 49.5775C12.4587 49.4407 12.1944 49.3104 11.8653 49.1855L12.0739 48.8291ZM11.8458 50.0914L12.7635 49.8378L13.2088 51.4494C13.2939 51.3222 13.3836 51.1812 13.4778 51.0265L13.6959 51.4103C13.5093 51.7109 13.3008 51.9926 13.0666 52.2565L12.8122 51.9367C12.8656 51.8597 12.8812 51.7807 12.8588 51.6997L12.4806 50.331L11.9524 50.477L11.8458 50.0914Z" fill="white"/>
<path d="M17.0882 49.2712L17.9114 49.0224L17.7123 48.3638L18.1182 48.2411L18.3172 48.8997L19.1941 48.6347L19.3121 49.0253L18.4353 49.2903L18.7061 50.1862L19.7476 49.8715L19.8656 50.262L17.4572 50.9899L17.3392 50.5994L18.3002 50.3089L18.0294 49.4129L17.2062 49.6618L17.0882 49.2712ZM16.5338 49.8566C16.4605 49.9874 16.3823 50.1155 16.3001 50.2448L15.9429 49.9893C16.2641 49.5035 16.4861 48.9935 16.6061 48.4642L15.7139 48.7338L15.5959 48.3433L16.6795 48.0158C16.7013 47.8253 16.7105 47.6345 16.7108 47.4421L17.1394 47.3669C17.1421 47.5416 17.1348 47.711 17.1236 47.8815L18.9768 47.3214L19.0949 47.7119L17.0655 48.3253C17.008 48.6603 16.9178 48.9842 16.7951 49.2971L17.361 51.1694L16.9666 51.2886L16.5338 49.8566Z" fill="white"/>
<path d="M22.9083 46.4998L23.1329 47.1797L22.8101 47.2863L22.9154 47.6054L21.2253 48.1637C21.2276 48.2472 21.2261 48.3319 21.2221 48.409L22.8667 47.8658L22.9633 48.1583C22.8753 48.4148 22.7443 48.656 22.5767 48.8883C22.9195 48.8931 23.2725 48.8523 23.6383 48.7736L23.5815 49.1883C23.1285 49.2706 22.692 49.2884 22.2798 49.2392C22.0096 49.518 21.6991 49.7512 21.3494 49.9425L21.053 49.6444C21.3532 49.4947 21.6117 49.3335 21.8221 49.1544C21.5921 49.0956 21.3735 49.0204 21.1612 48.9262C21.0701 49.3902 20.8945 49.7894 20.6267 50.1264L20.3226 49.8435C20.6425 49.4093 20.8096 48.8949 20.8189 48.2979L20.2985 48.4698L20.1931 48.1507L19.8665 48.2586L19.6419 47.5788L20.1964 47.3956C20.1334 47.3069 20.0691 47.227 20.0023 47.1522L20.3709 46.9673C20.4415 47.0535 20.5133 47.1561 20.5877 47.2664L21.089 47.1008C21.0184 47.0019 20.9466 46.9119 20.8734 46.8307L21.2382 46.6471C21.3151 46.7396 21.3971 46.8474 21.4802 46.9715L21.898 46.8335C21.9276 46.6679 21.9508 46.4959 21.9614 46.3239C21.3485 46.5854 20.6065 46.8642 19.7329 47.1527L19.4858 46.8257C20.6177 46.4518 21.5661 46.0838 22.3248 45.7279L22.6364 46.0083C22.449 46.1039 22.2438 46.197 22.0234 46.295L22.3902 46.3087C22.3772 46.4478 22.3516 46.5742 22.3196 46.6943L22.9083 46.4998ZM20.254 48.0801L20.801 47.8994L20.7713 47.6565L21.1826 47.5754L21.2036 47.7664L22.7152 47.2671L22.6237 46.9898L20.1624 47.8028L20.254 48.0801ZM21.4654 48.6994C21.6752 48.7733 21.8939 48.8232 22.1227 48.853C22.2661 48.6876 22.3842 48.5223 22.4833 48.3631L21.4654 48.6994Z" fill="white"/>
<path d="M26.1349 46.1915C26.5741 46.5268 26.9891 46.9133 27.3811 47.342L27.0754 47.6388C26.6597 47.1676 26.2392 46.7661 25.8206 46.4404L26.1349 46.1915ZM24.1593 45.9447C24.1171 46.3126 24.0259 46.6386 23.8895 46.9213L23.5176 46.7616C23.7223 46.2546 23.8048 45.715 23.764 45.1516L24.1769 45.1181C24.1826 45.252 24.1868 45.3823 24.186 45.5101L26.2415 44.772L26.3334 45.028C26.3753 45.3104 26.4008 45.5945 26.4126 45.8878L25.9819 45.9192C25.9915 45.733 25.9855 45.5269 25.9588 45.2985L24.1593 45.9447ZM25.7029 48.4207L25.2248 48.5924L25.0003 48.2395C25.1563 48.2004 25.3034 48.1604 25.4389 48.1117C25.5293 48.0793 25.5542 48.0066 25.515 47.8974L24.8323 45.9962L25.2314 45.853L25.9505 47.8557C26.0506 48.1343 25.9664 48.3261 25.7029 48.4207ZM24.3389 46.8237L24.7372 46.8677C24.7006 47.4758 24.6006 48.026 24.4298 48.5208L24.0209 48.3999C24.1923 47.9303 24.3017 47.4066 24.3389 46.8237Z" fill="white"/>
<path d="M27.8759 45.8126L30.366 44.8436L30.514 45.2238L28.0239 46.1929L27.8759 45.8126ZM27.8652 47.0315L31.1977 45.7346L31.3457 46.1148L28.0132 47.4117L27.8652 47.0315ZM27.209 44.9261L29.0654 44.2037C29.1026 43.8802 29.1102 43.5468 29.0956 43.2005L29.528 43.1867C29.5281 43.4957 29.5031 43.7844 29.4568 44.0514L30.2582 43.7395L30.4048 44.116L27.3555 45.3026L27.209 44.9261ZM27.6838 43.7971C27.8817 43.9304 28.0845 44.0876 28.2908 44.2648L28.0123 44.5749C27.8045 44.3939 27.5943 44.2397 27.3867 44.1144L27.6838 43.7971Z" fill="white"/>
<path d="M31.4373 42.2681L31.8284 42.1043L33.2591 45.5208L32.8681 45.6846L32.5189 44.8508L31.4526 45.2973L31.2996 44.9321L32.3659 44.4855L32.1666 44.0096L31.27 44.385L31.1155 44.0161L32.0121 43.6406L31.8189 43.1794L30.8375 43.5904L30.6846 43.2252L31.666 42.8142L31.4373 42.2681ZM32.3006 41.9066L32.6917 41.7428L32.9204 42.2888L33.8981 41.8794L34.0511 42.2446L33.0734 42.6541L33.2665 43.1153L34.1631 42.7398L34.3176 43.1088L33.421 43.4842L33.6203 43.9602L34.6571 43.526L34.8101 43.8913L33.7733 44.3255L34.1225 45.1593L33.7314 45.3231L32.3006 41.9066Z" fill="white"/>
<path d="M34.4953 41.028C34.8074 41.0988 35.083 41.1859 35.322 41.2893L35.1804 41.6681C34.9628 41.5639 34.684 41.4695 34.3471 41.3923L34.4953 41.028ZM34.4735 42.2823L35.317 41.905L35.9947 43.4203C36.0581 43.278 36.1256 43.1252 36.1955 42.9581L36.481 43.3124C36.338 43.6393 36.169 43.9471 35.9771 44.2432L35.6776 43.9653C35.7152 43.8828 35.717 43.7987 35.6811 43.7184L35.1078 42.4367L34.6368 42.6474L34.4735 42.2823ZM35.9767 42.1358L37.7586 41.3388L37.9137 41.6857C37.9519 42.0454 37.9064 42.3944 37.7756 42.729C38.0673 42.7738 38.3984 42.7791 38.774 42.7469L38.7165 43.167C38.2933 43.181 37.9184 43.1559 37.5974 43.0848C37.4024 43.413 37.1273 43.7288 36.765 44.0355L36.4095 43.8089C36.7366 43.5311 36.9922 43.2503 37.18 42.9647C36.8418 42.8355 36.5631 42.6534 36.3481 42.4078L36.14 42.5009L35.9767 42.1358ZM36.706 42.2478C36.8794 42.42 37.0957 42.5511 37.3607 42.6341C37.4718 42.3828 37.531 42.1329 37.5385 41.8754L36.706 42.2478ZM35.5929 40.6116L36.9075 40.0237L37.2455 40.7795C37.2814 40.8599 37.3449 40.8841 37.4361 40.8433L37.7502 40.7028L37.9053 41.0497L37.4891 41.2359C37.2152 41.3584 37.0229 41.291 36.9086 41.0354L36.6914 40.5497L36.1291 40.8012L36.1732 40.8998C36.343 41.2796 36.2781 41.6635 35.9825 42.0411L35.5963 41.8633C35.8458 41.5983 35.9212 41.3455 35.8151 41.1082L35.5929 40.6116Z" fill="white"/>
<path d="M39.243 40.0764L40.1755 39.6344L39.6787 38.5862L40.0691 38.4012L40.5659 39.4494L41.4515 39.0297L41.6296 39.4056L40.7441 39.8253L41.6623 41.7628L41.2719 41.9478L40.3537 40.0103L39.4211 40.4523L39.243 40.0764ZM38.1237 39.3586C38.4354 39.4278 38.7145 39.5124 38.9594 39.6088L38.8242 39.996C38.608 39.8948 38.3253 39.8119 37.9796 39.7456L38.1237 39.3586ZM38.1164 40.6413L38.9766 40.2336L39.6927 41.7445C39.7547 41.6045 39.8188 41.4502 39.8849 41.2816L40.1658 41.6221C40.0337 41.9503 39.8768 42.2637 39.6915 42.564L39.3859 42.2927C39.4253 42.2077 39.427 42.1272 39.391 42.0513L38.7829 40.7681L38.2877 41.0028L38.1164 40.6413Z" fill="white"/>
<path d="M44.5867 36.5107L44.9809 37.302L44.6157 37.4839L44.3892 37.0292L42.0692 38.185L42.2957 38.6397L41.9305 38.8216L41.5363 38.0304L42.8575 37.3722C42.786 37.3095 42.7127 37.2522 42.643 37.202L43.0083 36.9395C43.0834 37.0094 43.162 37.0865 43.2477 37.1778L44.5867 36.5107ZM43.8546 39.3021L44.227 39.1166L44.5462 39.7574L45.2981 39.3829L45.0127 38.81L45.3815 38.6263L45.9023 39.6718L45.5335 39.8555L45.4693 39.7266L43.6219 40.6469L43.6843 40.7723L43.3191 40.9542L42.8268 39.966L43.192 39.7841L43.4507 40.3032L44.1739 39.9429L43.8546 39.3021ZM43.1504 37.6732C43.3631 37.7504 43.5348 37.8258 43.6706 37.9011L43.4895 38.2282C43.3483 38.1421 43.1731 38.0596 42.9621 37.977L43.1504 37.6732ZM43.9738 37.3345L44.3493 37.4066C44.2269 37.9055 44.008 38.39 43.6907 38.8564L44.2564 38.5746C44.3208 38.5425 44.362 38.4996 44.3764 38.4478C44.398 38.3923 44.3695 38.2724 44.2929 38.0827L44.7008 38.0225C44.8131 38.3285 44.8414 38.5289 44.7876 38.6183C44.7428 38.7077 44.6424 38.7934 44.4921 38.8683L43.6829 39.2714C43.5505 39.3374 43.4359 39.3498 43.3394 39.3174C43.1136 39.5818 42.861 39.8373 42.5762 40.0909L42.2725 39.8489C42.577 39.5811 42.8457 39.3131 43.0715 39.0398L42.7326 38.3595L43.0942 38.1793L43.3457 38.6842C43.6504 38.2463 43.8586 37.7941 43.9738 37.3345ZM44.5442 37.4927C44.916 37.6471 45.2199 37.7907 45.4505 37.9306L45.2568 38.2863C45.0173 38.1285 44.7224 37.976 44.372 37.8199L44.5442 37.4927ZM42.3157 38.3839L42.6736 38.295C42.725 38.6851 42.7101 39.05 42.6237 39.3969L42.2231 39.3551C42.3273 39.0172 42.3582 38.6935 42.3157 38.3839Z" fill="white"/>
<path d="M47.1094 38.0001L46.1543 38.4956L45.9793 38.1583L47.3498 37.4472L47.2835 37.3194L47.6528 37.1278L47.7191 37.2557L49.0683 36.5557L49.2433 36.893L48.3131 37.3756C48.6323 37.4263 49.0289 37.3918 49.5013 37.2774L49.5129 37.6905C48.8595 37.7861 48.3312 37.7493 47.9261 37.5764L47.8941 37.593L48.3251 38.4238L47.9559 38.6154L47.5248 37.7845L47.4929 37.8011C47.4167 38.2102 47.1515 38.6632 46.6975 39.1691L46.3364 38.9508C46.7263 38.5819 46.9845 38.2631 47.1094 38.0001ZM45.7115 36.8777C45.6844 36.9819 45.652 37.0843 45.616 37.1886L45.2539 37.0205C45.4069 36.6032 45.4631 36.1729 45.4189 35.7317L45.802 35.6276C45.816 35.724 45.821 35.8205 45.826 35.9171L46.4758 35.58C46.3817 35.5116 46.286 35.4486 46.1903 35.3946L46.5371 35.1336C46.6348 35.2091 46.7362 35.2916 46.8415 35.3903L47.9493 34.8155L48.1077 35.1209L47.0212 35.6846L47.1022 35.8408L48.0432 35.3526L48.1868 35.6296L47.2459 36.1177L47.3251 36.2704L48.266 35.7823L48.4097 36.0592L47.4688 36.5474L47.5535 36.7107L48.7075 36.112L48.8659 36.4174L46.1923 37.8044L45.7115 36.8777ZM47.1878 36.9004L47.1031 36.7371L46.29 37.1589L46.3747 37.3222L47.1878 36.9004ZM46.9594 36.4601L46.8802 36.3075L46.0671 36.7293L46.1463 36.882L46.9594 36.4601ZM46.7365 36.0305L46.6555 35.8743L45.8424 36.2961L45.9234 36.4523L46.7365 36.0305Z" fill="white"/>
<path d="M48.3937 34.365L50.0932 33.4545L50.267 33.7789L49.9426 33.9527L50.1712 34.3793L50.5731 34.164L50.7545 34.5025L50.3525 34.7178L50.7473 35.4547L50.3947 35.6436L49.9999 34.9067L49.6332 35.1032C49.776 35.4714 49.7835 35.7987 49.6664 36.0883L49.2575 35.9942C49.3536 35.7839 49.356 35.5512 49.2736 35.2958L48.8858 35.5036L48.7044 35.1652L49.1134 34.946L48.8848 34.5194L48.5675 34.6894L48.3937 34.365ZM49.241 34.3286L49.4695 34.7552L49.8186 34.5682L49.59 34.1416L49.241 34.3286ZM50.3671 33.4576L50.7161 33.2705L51.3622 34.4764L51.0131 34.6634L50.3671 33.4576ZM49.6112 36.4173L50.8065 35.777L50.6799 35.5407L51.0466 35.3443L51.1732 35.5805L52.3438 34.9534L52.5251 35.2919L51.3545 35.919L51.5113 36.2116L52.8758 35.4806L53.0553 35.8156L49.9314 37.4892L49.7519 37.1542L51.1446 36.4081L50.9879 36.1155L49.7926 36.7558L49.6112 36.4173ZM51.9636 34.8621L51.4911 35.1152L51.2249 34.8131C51.3841 34.746 51.5343 34.6791 51.6683 34.6073C51.7353 34.5715 51.7403 34.4962 51.6799 34.3833L50.8979 32.9236L51.254 32.7328L52.0832 34.2807C52.2268 34.5486 52.1857 34.7431 51.9636 34.8621Z" fill="white"/>
<path d="M53.1216 31.8889L54.8461 30.9408L55.0446 31.3018L53.3201 32.2499L53.1216 31.8889ZM53.5153 32.8044L55.4748 31.7272L55.6732 32.0883L55.1334 32.385L55.9409 33.8537C56.0681 34.0851 56.002 34.272 55.7426 34.4146L55.2343 34.6941L54.9571 34.3809C55.1261 34.3062 55.2861 34.232 55.4333 34.151C55.528 34.099 55.5578 34.037 55.5192 33.9669L54.7619 32.5893L53.7138 33.1655L53.5153 32.8044ZM52.4211 32.0595L52.8408 32.0341C52.8651 32.5183 52.7369 33.0407 52.4562 33.6013L52.1417 33.2949C52.3421 32.8789 52.4352 32.4671 52.4211 32.0595ZM53.0291 32.7751L53.4433 32.7482C53.4524 32.9806 53.4331 33.2194 53.3854 33.4647L54.3412 35.2033L53.9801 35.4018L53.2228 34.0243C53.1576 34.1879 53.0819 34.3574 53.0007 34.5252L52.69 34.2259C52.9323 33.7366 53.044 33.2507 53.0291 32.7751Z" fill="white"/>
<path d="M56.2048 29.9716L56.5712 29.7663L58.1023 32.4986L58.4861 32.2835L56.955 29.5512L57.3214 29.3459L58.8525 32.0781L59.8575 31.515L60.0569 31.8709L56.9373 33.6191L56.7379 33.2631L57.7359 32.7039L56.2048 29.9716ZM58.3086 29.6593L58.6805 29.5701C58.8823 30.2411 59.0081 30.8584 59.056 31.4185L58.6635 31.4871C58.632 30.9729 58.5101 30.3626 58.3086 29.6593ZM55.9439 30.9707C56.3784 31.337 56.8346 31.7829 57.307 32.3068L57.0205 32.5729C56.5968 32.095 56.157 31.6537 55.692 31.2494L55.9439 30.9707Z" fill="white"/>
<path d="M60.2192 27.6581L60.5948 27.4447L60.9327 28.0394L62.1673 27.3378L63.1318 29.0349L62.7666 29.2424L62.6579 29.0511L61.7885 29.5452L62.4486 30.7067L62.073 30.9202L61.4129 29.7586L60.547 30.2507L60.6557 30.442L60.2905 30.6495L59.3261 28.9524L60.5571 28.2528L60.2192 27.6581ZM60.3454 29.896L61.2113 29.4039L60.7587 28.6075L59.8928 29.0996L60.3454 29.896ZM61.5869 29.1905L62.4563 28.6964L62.0037 27.9L61.1343 28.3941L61.5869 29.1905Z" fill="white"/>
<path d="M63.7685 26.4022L65.1631 28.8348L64.816 29.0337L64.7166 28.8602L64.203 29.1546L64.3601 29.4288L64.0131 29.6277L62.5609 27.0945L62.894 26.9035C62.8511 26.6838 62.7868 26.467 62.7011 26.2533L63.0933 26.093C63.1626 26.3023 63.212 26.5091 63.241 26.7046L63.7685 26.4022ZM64.012 28.8215L64.5256 28.5271L64.1496 27.8712L63.636 28.1656L64.012 28.8215ZM63.451 27.8429L63.9646 27.5485L63.6165 26.9412L63.1029 27.2356L63.451 27.8429ZM64.8835 26.8834C65.2667 27.0371 65.578 27.1861 65.8228 27.3316L65.6467 27.7C65.387 27.5445 65.0683 27.3907 64.694 27.2364L64.8835 26.8834ZM65.5557 25.3777C66.252 26.5922 66.6643 27.3517 66.7927 27.6562C66.8973 27.919 66.8003 28.136 66.5019 28.307C66.4325 28.3468 66.3036 28.4115 66.1152 28.5011L65.8394 28.2211C65.9981 28.144 66.1374 28.0734 66.2519 28.0077C66.3769 27.9361 66.4099 27.8249 66.3532 27.6776C66.2785 27.4991 65.9607 26.9206 65.4046 25.9345L64.5648 26.416C64.5905 26.6779 64.5869 26.9289 64.554 27.1691L64.1702 27.0064C64.2123 26.5489 64.1342 26.0588 63.9449 25.5357L64.3282 25.3759C64.401 25.5832 64.4573 25.786 64.5007 25.9824L65.5557 25.3777Z" fill="white"/>
<path d="M66.6112 24.0405L67.0261 23.977C67.2163 24.834 67.2265 25.5708 67.0621 26.1886L66.629 26.1136C66.805 25.4841 66.7984 24.7919 66.6112 24.0405ZM69.0423 25.0495C69.5032 25.2712 69.9498 25.539 70.3766 25.8514L70.1319 26.2046C70.0213 26.1219 69.9127 26.0426 69.8061 25.9667C69.2709 26.4113 68.6492 26.8753 67.9487 27.3635L67.6762 27.0513C67.8747 26.8615 67.9016 26.1398 67.7536 24.8882L68.1807 24.7986C68.2464 25.5112 68.2576 26.1491 68.2125 26.709C68.6527 26.4012 69.0759 26.0804 69.4729 25.7474C69.2365 25.5957 69.007 25.4632 68.7865 25.3534L69.0423 25.0495ZM67.8721 23.2422C68.4291 23.747 69.0582 24.0541 69.7596 24.1634L69.6826 24.6163C68.9386 24.4907 68.2675 24.1528 67.6672 23.5994L67.8721 23.2422Z" fill="white"/>
<path d="M70.4343 23.6364L71.9992 22.6385L72.7132 23.7582L71.1483 24.7561L70.4343 23.6364ZM72.1781 23.663L71.8598 23.1638L70.966 23.7338L71.2844 24.2329L72.1781 23.663ZM73.6255 23.9687L73.1601 24.2655L72.8539 23.9863L73.3393 23.691C73.4135 23.6437 73.4119 23.5593 73.3388 23.4447L71.9666 21.293L69.7204 22.7254L69.5054 22.3881L72.1022 20.732L73.7519 23.3188C73.9239 23.5886 73.8818 23.8052 73.6255 23.9687ZM69.7402 23.1729L71.8953 21.7986L72.0996 22.119L69.9445 23.4933L69.7402 23.1729Z" fill="white"/>
<path d="M74.1206 20.0258L75.6765 22.3585L75.3437 22.5805L75.2328 22.4141L74.7403 22.7426L74.9156 23.0055L74.5828 23.2274L72.9626 20.7982L73.282 20.5851C73.2243 20.3688 73.1455 20.1569 73.0456 19.9495L73.426 19.763C73.5093 19.9671 73.5726 20.1701 73.6148 20.3632L74.1206 20.0258ZM74.5272 22.4231L75.0197 22.0946L74.6002 21.4657L74.1077 21.7942L74.5272 22.4231ZM73.9013 21.4847L74.3938 21.1562L74.0053 20.5739L73.5128 20.9024L73.9013 21.4847ZM75.2656 20.4305C75.6583 20.558 75.979 20.6855 76.2331 20.8141L76.0823 21.1935C75.8127 21.056 75.4843 20.9241 75.1004 20.7955L75.2656 20.4305ZM75.8344 18.8827C76.6112 20.0474 77.074 20.7773 77.2227 21.0724C77.3448 21.3275 77.2628 21.5505 76.9766 21.7414C76.91 21.7858 76.7858 21.859 76.6039 21.9611L76.3098 21.7005C76.4629 21.6128 76.5971 21.5329 76.7069 21.4597C76.8267 21.3797 76.8522 21.2666 76.7856 21.1235C76.6991 20.9504 76.3428 20.3947 75.7213 19.4485L74.916 19.9857C74.9594 20.2453 74.9727 20.496 74.9561 20.7378L74.5623 20.6015C74.5733 20.1422 74.4622 19.6585 74.238 19.1493L74.6096 18.964C74.6962 19.1659 74.7661 19.3644 74.8227 19.5575L75.8344 18.8827Z" fill="white"/>
<path d="M77.8558 17.8338C77.9219 18.2545 77.9398 18.6403 77.9095 18.9914L77.4583 18.8649C77.5087 18.3737 77.4401 17.7801 77.2477 17.0772L77.6514 16.9159C77.696 17.0795 77.736 17.2365 77.7738 17.3901L79.1017 16.4762L79.3353 16.8156L78.3006 17.5277L78.6023 17.9659L79.5117 17.34L79.743 17.6761L78.8336 18.302L79.1442 18.7535L80.0537 18.1276L80.2827 18.4604L79.3733 19.0863L79.879 19.8211L79.5297 20.0614L77.9514 17.7681L77.8558 17.8338ZM77.0948 19.1976C77.0784 19.3642 77.0565 19.5299 77.0257 19.6968L76.6564 19.4071C76.7374 18.8123 76.6875 18.2106 76.5088 17.6052L76.9393 17.5323C77.027 17.8361 77.0816 18.1482 77.104 18.4629L78.6301 20.6805L78.2809 20.9209L77.0948 19.1976Z" fill="white"/>
<path d="M80.6428 16.5706L80.9718 17.0434L81.6941 16.5409L81.3652 16.0681L80.6428 16.5706ZM81.1746 17.3701C81.4152 17.8069 81.5313 18.233 81.5183 18.6416L81.0911 18.5879C81.093 18.1773 80.9471 17.7574 80.6567 17.326L79.5259 15.7006L82.0707 13.9303L83.7954 16.4094C83.9713 16.6622 83.929 16.8816 83.6696 17.0621L83.292 17.3248L82.9671 17.0538C83.1075 16.9756 83.2303 16.8999 83.342 16.8223C83.4405 16.7537 83.4473 16.6515 83.3605 16.5267L83.043 16.0703L82.2615 16.614L82.9057 17.5399L82.5576 17.7821L81.9134 16.8561L81.1746 17.3701ZM82.8237 15.7551L82.4948 15.2823L81.7133 15.8259L82.0422 16.2988L82.8237 15.7551ZM82.2755 14.967L81.9557 14.5073L81.1742 15.051L81.494 15.5107L82.2755 14.967ZM80.8261 15.2931L80.1037 15.7957L80.4235 16.2554L81.1459 15.7528L80.8261 15.2931Z" fill="white"/>
<path d="M85.505 11.6974L87.3703 14.4245L87.0336 14.6549L86.871 14.4172L86.1942 14.8801L86.3838 15.1574L86.0504 15.3855L84.1579 12.6188L85.505 11.6974ZM85.9728 14.5566L86.6497 14.0936L85.3873 12.248L84.7105 12.711L85.9728 14.5566ZM83.1364 14.3207L83.6779 13.9504L83.4272 13.5839C83.2977 13.7064 83.1605 13.8245 83.022 13.9338L82.6997 13.7035C83.1854 13.3083 83.5439 12.9468 83.7686 12.6235L84.1246 12.7967C83.9968 12.9713 83.8613 13.1416 83.7167 13.2987L84.008 13.7246L84.5363 13.3632L84.7553 13.6835L84.2271 14.0448L84.3084 14.1637C84.5994 14.1924 84.9062 14.2442 85.2299 14.3136L85.234 14.7517C84.9554 14.6419 84.7236 14.5581 84.5387 14.5004L85.4759 15.8705L85.1458 16.0964L84.2673 14.8121C84.3159 15.1665 84.319 15.5182 84.2755 15.8726L83.8672 15.5946C83.9783 15.1406 83.9909 14.7055 83.9082 14.2871L83.8969 14.2706L83.3555 14.641L83.1364 14.3207Z" fill="white"/>
<path d="M86.7313 11.9964L87.754 11.3312L87.6602 11.187L86.3894 12.0137L86.1974 11.7186L87.4683 10.892L87.3636 10.731C87.0537 10.9516 86.7305 11.181 86.3905 11.4212L86.1525 11.18C87.0057 10.5916 87.7519 10.0442 88.3856 9.53659L88.6727 9.75064C88.375 9.98248 88.0482 10.2284 87.6992 10.4841L87.817 10.6652L89.0945 9.83418L89.2864 10.1293L88.0089 10.9602L88.1027 11.1044L89.1287 10.437L89.8877 11.6039L88.8617 12.2713L88.9642 12.4289L90.1244 11.6742L90.3032 11.9492L89.143 12.7038L89.2499 12.8681L90.5777 12.0044L90.7718 12.3029L87.7809 14.2483L87.5868 13.9499L88.9012 13.095L88.7943 12.9307L87.6476 13.6766L87.4687 13.4016L88.6155 12.6557L88.513 12.4981L87.4903 13.1633L86.7313 11.9964ZM89.3702 11.5492L89.2524 11.3682L88.5651 11.8153L88.6828 11.9963L89.3702 11.5492ZM88.3341 12.2232L88.2163 12.0421L87.5323 12.487L87.6501 12.6681L88.3341 12.2232ZM87.3622 12.2255L88.0462 11.7805L87.9328 11.6062L87.2488 12.0511L87.3622 12.2255ZM88.2815 11.3794L88.3949 11.5537L89.0823 11.1066L88.9689 10.9322L88.2815 11.3794Z" fill="white"/>
<path d="M89.3411 9.06894L92.407 7.24377L92.5993 7.56686L91.6232 8.14796L91.7582 8.37481L92.5316 7.91442L93.084 8.84242L91.6851 9.67521L91.6903 9.9654L93.457 8.91368L93.6534 9.24364L92.9419 9.66719C92.9789 9.87792 92.9604 10.0891 92.8938 10.3057C93.2741 10.2096 93.6661 10.1252 94.0787 10.0518L94.0312 10.4804C93.5803 10.544 93.1376 10.6214 92.7071 10.7194C92.4823 11.0767 92.0341 11.5204 91.358 12.0579L91.0316 11.8146C91.5213 11.4486 91.8853 11.1295 92.1325 10.8567C91.8297 10.9345 91.5365 11.0206 91.2473 11.1136C91.2575 10.9586 91.2662 10.8091 91.2715 10.6616L90.5016 11.12L90.3052 10.79L91.2813 10.2089C91.2775 10.1087 91.2793 10.01 91.2796 9.91666L90.4238 10.4261L89.8713 9.49815L90.6446 9.03776L90.5096 8.81092L89.5335 9.39202L89.3411 9.06894ZM92.4433 10.4249C92.5373 10.2386 92.5797 10.0597 92.5707 9.88818L91.684 10.4161C91.6782 10.508 91.6717 10.591 91.6701 10.6664C91.9166 10.5802 92.1762 10.5001 92.4433 10.4249ZM91.418 8.57738L91.2829 8.35053L90.8498 8.60835L90.9849 8.83519L91.418 8.57738ZM92.5603 8.74458L92.3679 8.4215L91.9383 8.67727L92.1306 9.00035L92.5603 8.74458ZM91.7904 9.20292L91.598 8.87984L91.165 9.13765L91.3573 9.46073L91.7904 9.20292ZM91.017 9.6633L90.8247 9.34022L90.3951 9.59599L90.5874 9.91907L91.017 9.6633Z" fill="white"/>
<path d="M93.1035 7.60856L93.3978 7.48068C93.5771 7.83833 93.7153 8.19506 93.8193 8.54713L93.4773 8.61876C93.3915 8.28419 93.2681 7.94684 93.1035 7.60856ZM94.0479 6.99818C94.1753 7.10285 94.3013 7.22186 94.4293 7.35336C94.3765 7.05566 94.2863 6.76413 94.1513 6.47354L94.5118 6.34248C94.5681 6.46654 94.6206 6.58352 94.6661 6.70423L95.0483 6.50292L94.7222 5.88357L95.0973 5.68599L95.4235 6.30535L96.1526 5.92138L96.3408 6.27884L95.6118 6.66281L96.0088 7.41665L96.706 7.04946L96.8961 7.41045L96.1989 7.77765L96.5773 8.4961L97.4019 8.0618L97.5901 8.41926L95.4206 9.56185L95.2324 9.20439L96.2021 8.69368L95.8237 7.97522L95.0416 8.38715L94.8515 8.02615L95.6336 7.61423L95.2366 6.86038L94.7836 7.09896C94.8466 7.37318 94.8756 7.64274 94.8704 7.90766L94.4658 7.80885C94.4628 7.75165 94.4616 7.698 94.4605 7.64435L94.3411 7.75243C94.1816 7.56971 94.0206 7.40134 93.8546 7.24918L95.191 9.78677L94.8194 9.98248L93.1046 6.72644L93.4762 6.53073L93.8359 7.21379L94.0479 6.99818Z" fill="white"/>
<path d="M99.1975 4.33854L98.7451 4.54195L99.1487 5.43939L99.6011 5.23598L99.1975 4.33854ZM99.7667 5.60445L99.3107 5.8095C99.6023 6.55553 99.6299 7.19225 99.4006 7.71635L98.9976 7.59057C99.2056 7.14616 99.1883 6.61013 98.9386 5.97682L98.5847 6.13594L98.4191 5.76748L98.7766 5.60672L98.373 4.70927L98.0958 4.83394L97.935 4.47642L99.6971 3.6841L99.8578 4.04162L99.566 4.17285L99.9695 5.0703L100.364 4.89314L100.529 5.2616L100.135 5.43877L100.855 7.04031L100.487 7.20599L99.7667 5.60445ZM97.0695 5.32171L96.6792 5.49723L96.5151 5.13241L97.8139 4.54843L97.9779 4.91324L97.4307 5.15931C97.4981 5.436 97.5391 5.70266 97.5569 5.96657L98.2026 5.67622L98.9883 7.42369L98.3682 7.70256L98.4846 7.96158L98.1344 8.11906L97.5258 6.76559C97.5108 6.86882 97.4906 6.97003 97.4723 7.06596L97.124 6.82785C97.2088 6.33361 97.1936 5.83169 97.0695 5.32171ZM98.2189 7.37058L98.4888 7.24919L98.0033 6.16933L97.7333 6.29072L98.2189 7.37058Z" fill="white"/>
<path d="M102.489 3.33065C102.947 3.36811 103.389 3.45426 103.81 3.59566L103.719 4.00155C103.268 3.83722 102.829 3.73702 102.405 3.69956L102.489 3.33065ZM101.655 3.62604L101.994 3.81097C101.785 4.22248 101.489 4.60684 101.108 4.96779L100.811 4.67752C101.191 4.347 101.47 3.9987 101.655 3.62604ZM101.872 2.6649C101.953 2.74543 102.035 2.8386 102.121 2.943L103.484 2.43179L103.789 3.24453L103.4 3.39059L103.23 2.93741L100.878 3.81937L101.046 4.26882L100.657 4.41488L100.353 3.60588L101.698 3.1017C101.619 3.02866 101.542 2.95937 101.462 2.89523L101.872 2.6649ZM101.861 4.26649L102.255 4.11903L102.381 4.45611C102.391 4.49497 102.399 4.52634 102.41 4.5563L103.373 4.19537L103.809 5.36017C103.828 5.40886 103.864 5.42525 103.92 5.40418L104.156 5.3157C104.231 5.28761 104.262 5.24595 104.257 5.1879C104.212 5.03387 104.161 4.87375 104.099 4.70896L104.499 4.68275C104.593 5.02358 104.643 5.23566 104.648 5.31899C104.654 5.47068 104.537 5.59146 104.297 5.68134L104.001 5.79229C103.724 5.89622 103.542 5.81943 103.447 5.5685L103.124 4.70707L102.495 4.94301C102.532 5.22391 102.512 5.47905 102.441 5.71079C102.326 6.05302 102.052 6.38213 101.626 6.70422L101.291 6.44953C101.703 6.13306 101.956 5.8414 102.044 5.57361C102.081 5.42287 102.098 5.26275 102.087 5.09609L101.211 5.42472L101.073 5.05767L102.017 4.70376L101.988 4.60358L101.861 4.26649Z" fill="white"/>
<path d="M104.498 1.71408L105.835 3.25952L105.587 5.28777L105.213 5.23884L105.44 3.37964L104.214 1.9636L104.498 1.71408ZM105.164 1.51116L106.5 3.0566L106.253 5.08485L105.878 5.03592L106.106 3.17672L104.865 1.76534L105.164 1.51116Z" fill="white"/>
<g clip-path="url(#clip0_250_2745)">
<path fill-rule="evenodd" clip-rule="evenodd" d="M0.245117 51.6L4.14213 50.6981L5.04397 54.5951L1.14696 55.497L0.245117 51.6Z" fill="white"/>
<path fill-rule="evenodd" clip-rule="evenodd" d="M0.245117 51.6L1.54437 51.2993L2.44622 55.1963L1.14696 55.497L0.245117 51.6Z" fill="#009A49"/>
<path fill-rule="evenodd" clip-rule="evenodd" d="M2.8429 50.9988L4.14215 50.6981L5.044 54.5951L3.74474 54.8958L2.8429 50.9988Z" fill="#FF7900"/>
</g>
<defs>
<clipPath id="clip0_250_2745">
<rect x="0.245117" y="51.6" width="4" height="4" rx="2" transform="rotate(-13.03 0.245117 51.6)" fill="white"/>
</clipPath>
</defs>
</svg>
