<svg width="50" height="20" viewBox="0 0 50 20" fill="none" xmlns="http://www.w3.org/2000/svg">
<path d="M5.80497 0.736064L6.16239 0.897887L5.3587 2.59706L6.09081 4.32118L5.74432 4.47157L4.94675 2.59038L5.80497 0.736064ZM6.50087 0.747362L6.8423 0.908926L6.05461 2.60836L6.78671 4.33247L6.44023 4.48287L5.64266 2.60167L6.50087 0.747362Z" fill="white"/>
<path d="M10.8822 1.93962L10.8396 2.65436L10.5002 2.63417L10.4803 2.96957L8.70342 2.86387C8.67471 2.9423 8.64201 3.0205 8.60979 3.09071L10.3387 3.19356L10.3204 3.50102C10.1439 3.7069 9.93309 3.88269 9.69152 4.03662C10.0083 4.16766 10.3514 4.2602 10.7204 4.32222L10.5144 4.68663C10.063 4.59566 9.65085 4.45093 9.28596 4.25292C8.93188 4.41217 8.55717 4.5141 8.16158 4.56269L7.99624 4.17619C8.33051 4.14799 8.63026 4.0937 8.89199 4.00508C8.69994 3.86543 8.52458 3.71475 8.36215 3.54881C8.10609 3.94631 7.79536 4.2524 7.42199 4.4666L7.24395 4.09137C7.7017 3.80605 8.04703 3.38982 8.27618 2.83845L7.72914 2.80591L7.7491 2.47051L7.4057 2.45008L7.44822 1.73534L8.03119 1.77002C8.00542 1.6643 7.97519 1.56634 7.94072 1.47212L8.35156 1.43646C8.38532 1.54265 8.41413 1.66458 8.44246 1.79449L8.96953 1.82584C8.94048 1.70791 8.90697 1.59772 8.86898 1.49529L9.27583 1.45938C9.31311 1.5738 9.34943 1.70419 9.38081 1.85031L9.82003 1.87644C9.90868 1.73345 9.99381 1.58224 10.0672 1.42632C9.40104 1.44279 8.60854 1.4277 7.69016 1.37307L7.58144 0.977915C8.77133 1.0487 9.78863 1.05712 10.6251 1.00671L10.8111 1.38242C10.6016 1.40201 10.3766 1.41267 10.1355 1.42237L10.4713 1.57057C10.4078 1.69502 10.3373 1.80302 10.2632 1.9028L10.8822 1.93962ZM7.83181 2.42734L8.40679 2.46155L8.46896 2.22482L8.88113 2.30143L8.83004 2.48672L10.4192 2.58126L10.4366 2.28978L7.84915 2.13586L7.83181 2.42734ZM8.72864 3.4504C8.89625 3.59661 9.08102 3.72381 9.28272 3.83599C9.47704 3.73535 9.64787 3.6253 9.79874 3.51406L8.72864 3.4504Z" fill="white"/>
<path d="M14.0815 3.09646C14.3239 3.59298 14.5218 4.12443 14.6802 4.68336L14.2739 4.81174C14.1134 4.2042 13.9174 3.65686 13.6889 3.17814L14.0815 3.09646ZM12.4258 1.99071C12.2233 2.30074 11.9957 2.55134 11.747 2.743L11.4861 2.43362C11.8963 2.07203 12.2117 1.62653 12.4276 1.10459L12.8119 1.25961C12.7569 1.38191 12.7023 1.50024 12.6443 1.61413L14.8127 1.87507L14.7802 2.14512C14.6911 2.41642 14.5867 2.68184 14.4658 2.94932L14.0667 2.78445C14.1587 2.62229 14.2457 2.43534 14.3241 2.21915L12.4258 1.99071ZM12.6966 4.89588L12.1922 4.83518L12.1496 4.41912C12.3066 4.45412 12.4561 4.48419 12.599 4.5014C12.6943 4.51287 12.7492 4.45903 12.763 4.34386L13.0044 2.33833L13.4253 2.38899L13.1711 4.50175C13.1357 4.79563 12.9746 4.92933 12.6966 4.89588ZM12.1926 2.85706L12.529 3.07481C12.2238 3.60212 11.888 4.0492 11.5136 4.41509L11.2021 4.12379C11.5657 3.78078 11.8982 3.3615 12.1926 2.85706Z" fill="white"/>
<path d="M15.6894 3.58346L18.3099 4.10564L18.2301 4.50577L15.6097 3.98359L15.6894 3.58346ZM15.0249 4.6053L18.5319 5.30414L18.4522 5.70427L14.9452 5.00543L15.0249 4.6053ZM15.6039 2.47742L17.5575 2.86671C17.7628 2.61397 17.9486 2.33692 18.1225 2.03713L18.4945 2.25809C18.3284 2.51865 18.152 2.74862 17.9694 2.94879L18.8128 3.11686L18.7338 3.51307L15.5249 2.87363L15.6039 2.47742ZM16.6114 1.78089C16.7065 1.99969 16.793 2.24125 16.8716 2.50163L16.47 2.61331C16.3922 2.349 16.2979 2.10588 16.1903 1.88866L16.6114 1.78089Z" fill="white"/>
<path d="M20.1713 2.57353C20.3663 2.82725 20.5228 3.07023 20.6407 3.30246L20.2898 3.50356C20.1889 3.28441 20.0346 3.03373 19.8247 2.75922L20.1713 2.57353ZM19.3536 3.52481L20.2437 3.77308L19.7976 5.37204C19.9373 5.30303 20.0868 5.22847 20.2473 5.14449L20.2408 5.59948C19.922 5.75972 19.5954 5.88869 19.2587 5.9941L19.2056 5.58893C19.2872 5.54941 19.3423 5.48588 19.3659 5.40111L19.7432 4.04874L19.2462 3.9101L19.3536 3.52481ZM20.604 4.37193L22.4842 4.89642L22.3821 5.26244C22.1818 5.5637 21.924 5.80323 21.6097 5.97718C21.8055 6.19793 22.0569 6.41339 22.3665 6.62848L22.054 6.91506C21.7194 6.65561 21.4469 6.39688 21.2453 6.13715C20.8856 6.26523 20.4723 6.33265 19.9976 6.33727L19.8687 5.93588C20.2978 5.93099 20.6739 5.87809 21.0007 5.77824C20.8229 5.46287 20.7248 5.1448 20.7161 4.81848L20.4965 4.75722L20.604 4.37193ZM21.0937 4.92381C21.1172 5.16707 21.2 5.40611 21.351 5.63923C21.5969 5.51681 21.802 5.36223 21.9722 5.16886L21.0937 4.92381ZM21.2819 2.95394L22.669 3.34086L22.4465 4.13841C22.4229 4.22317 22.4562 4.28231 22.5525 4.30918L22.8839 4.40161L22.7818 4.76763L22.3425 4.64511C22.0536 4.5645 21.9486 4.38988 22.0239 4.12018L22.1668 3.60774L21.5735 3.44223L21.5444 3.54625C21.4327 3.94696 21.1375 4.201 20.669 4.30284L20.4852 3.91937C20.8465 3.8748 21.0659 3.72837 21.1358 3.47793L21.2819 2.95394Z" fill="white"/>
<path d="M24.4452 4.98139L25.4274 5.29808L25.7834 4.19405L26.1946 4.32661L25.8386 5.43065L26.7713 5.73138L26.6437 6.1273L25.7109 5.82658L25.053 7.86713L24.6419 7.73457L25.2998 5.69401L24.3176 5.37732L24.4452 4.98139ZM24.1213 3.69178C24.301 3.95566 24.4465 4.20848 24.5589 4.44646L24.1952 4.63599C24.107 4.41422 23.9577 4.16017 23.7512 3.87506L24.1213 3.69178ZM23.2374 4.62139L24.1435 4.91353L23.6304 6.50486C23.7715 6.44528 23.9239 6.37673 24.0876 6.29922L24.059 6.73972C23.7379 6.88835 23.409 7.00923 23.0683 7.10114L23.0314 6.69418C23.1184 6.65917 23.1747 6.60169 23.2005 6.52174L23.6362 5.17025L23.1147 5.00209L23.2374 4.62139Z" fill="white"/>
<path d="M30.098 6.17288L29.6255 6.02202L29.3262 6.9594L29.7987 7.11026L30.098 6.17288ZM29.6758 7.49512L29.1995 7.34305C28.9181 8.09298 28.5132 8.58515 27.9925 8.822L27.7766 8.45915C28.2283 8.26746 28.5735 7.857 28.8108 7.21895L28.4412 7.10094L28.5641 6.71608L28.9375 6.83531L29.2368 5.89793L28.9472 5.80547L29.0664 5.43204L30.9069 6.01966L30.7877 6.39308L30.4828 6.29576L30.1835 7.23314L30.5951 7.36453L30.4722 7.74939L30.0607 7.618L29.5266 9.29081L29.1417 9.16793L29.6758 7.49512ZM27.8577 5.48281L27.45 5.35264L27.5717 4.97159L28.9282 5.4047L28.8065 5.78575L28.235 5.60326C28.1003 5.85418 27.9526 6.07996 27.7895 6.28823L28.464 6.50357L27.8812 8.32879L27.2334 8.12197L27.1471 8.39252L26.7813 8.27572L27.2326 6.86203C27.1525 6.92883 27.0698 6.9906 26.9921 7.04978L26.892 6.63992C27.2853 6.32879 27.6093 5.94517 27.8577 5.48281ZM27.3442 7.77522L27.6261 7.86525L27.9862 6.73734L27.7043 6.64731L27.3442 7.77522Z" fill="white"/>
<path d="M32.599 8.00522C32.7099 8.45251 32.776 8.82963 32.8033 9.14331L32.394 9.23519C32.3669 8.89998 32.3017 8.51024 32.1966 8.06968L32.599 8.00522ZM32.6169 10.4759L31.932 10.1957L31.9961 9.78547C32.2158 9.89267 32.4275 9.98791 32.6275 10.0697C32.7237 10.1091 32.79 10.0843 32.8264 9.99548L33.5776 8.15919L32.2411 7.61246L32.394 7.23853L33.7305 7.78527L34.0077 7.10777L34.4001 7.26831L34.123 7.94581L34.5894 8.13664L34.4365 8.51056L33.97 8.31973L33.1794 10.2523C33.0734 10.5114 32.8834 10.585 32.6169 10.4759ZM31.9314 6.26705C32.0904 6.54387 32.2162 6.80706 32.3101 7.05292L31.9329 7.21414C31.8619 6.98628 31.7325 6.72158 31.5484 6.42153L31.9314 6.26705ZM30.9791 7.12647L31.8602 7.48692L31.2151 9.06406C31.3855 9.01711 31.5695 8.95837 31.7706 8.88938L31.7076 9.33903C31.3539 9.45363 30.9923 9.53474 30.6212 9.58607L30.6155 9.17748C30.7048 9.14921 30.7654 9.0962 30.7972 9.01846L31.3349 7.70418L30.8277 7.49669L30.9791 7.12647Z" fill="white"/>
<path d="M36.8153 8.38822L37.0871 8.52452C37.2883 9.23853 37.6095 9.88292 38.056 10.4559L37.6692 10.7184C37.5157 10.5071 37.3836 10.2887 37.2658 10.0685L37.1367 10.326L35.3525 9.43105L35.4888 9.15932C35.233 9.19656 34.9664 9.21947 34.6927 9.22986L34.6754 8.76473C35.4553 8.77109 36.1674 8.64499 36.8153 8.38822ZM35.6355 9.13446L37.1908 9.91459C37.0071 9.54943 36.8716 9.17717 36.7826 8.79246C36.4282 8.94585 36.0471 9.06343 35.6355 9.13446ZM34.6082 9.51418L37.5115 10.9704L37.3286 11.3351L35.666 10.5012C35.3759 10.7047 35.077 10.8636 34.7728 10.9705C35.2698 11.184 35.7615 11.3814 36.246 11.5573C36.2069 11.3766 36.1624 11.1887 36.1126 10.9937L36.4937 10.9566C36.6433 11.4702 36.7393 11.9032 36.789 12.2503L36.3685 12.3124C36.3543 12.1889 36.3384 12.0601 36.3171 11.9331C35.7199 11.7409 34.9957 11.4627 34.1411 11.0967L34.2042 10.7211C34.3044 10.7445 34.3867 10.7411 34.4475 10.7179C34.7321 10.5966 34.9934 10.4502 35.2334 10.2842L34.4253 9.87887L34.6082 9.51418Z" fill="white"/>
<path d="M40.0285 12.3367C40.3012 11.9533 40.5344 11.6073 40.7329 11.306L40.9935 11.4953C40.8186 11.7548 40.658 11.981 40.5187 12.1779L40.6857 12.2727C40.8587 12.0489 41.0276 11.7998 41.187 11.5269L41.2719 11.3773L40.7501 11.0812L40.9317 10.7612L42.0276 11.383L41.846 11.7031L41.5711 11.5471L41.4862 11.6967C41.3248 11.9731 41.1613 12.2206 40.9884 12.4444L41.3502 12.6497L41.1626 12.9802L40.7452 12.7433C40.6843 12.81 40.6255 12.8732 40.5686 12.9329L40.7391 13.0296L40.212 13.9585C40.1982 13.9828 40.2022 14.0081 40.2261 14.0309L40.2713 14.0565C40.324 14.0772 40.3755 14.0513 40.4224 13.9767C40.4748 13.9006 40.5414 13.7913 40.6204 13.6521L40.8086 13.8877C40.6448 14.1765 40.5232 14.3421 40.4475 14.3864C40.3756 14.4239 40.2689 14.4093 40.1273 14.3428L40.0577 14.3033C39.8351 14.1769 39.7786 14.0253 39.8793 13.8479L40.2149 13.2564C39.8575 13.5458 39.482 13.7374 39.0899 13.8368L38.9597 13.4502C39.0648 13.4271 39.1684 13.3985 39.267 13.3625C39.2782 13.286 39.2914 13.2061 39.2991 13.1277C39.0079 13.1465 38.677 13.138 38.3082 13.0989L38.4004 12.7419C38.4788 12.7496 38.5318 12.7291 38.5615 12.677L39.0333 11.8455L38.7499 11.9882C38.7643 11.817 38.7772 11.6726 38.7838 11.5476L37.8757 13.1479L37.5487 12.9623L38.4015 11.4594C38.1907 11.6525 37.9794 11.8224 37.762 11.9704L37.8276 11.5063C38.1927 11.3087 38.5292 11.0398 38.8378 10.6906L38.8437 10.6801L38.5062 10.4886L38.6958 10.1547L39.0332 10.3462L39.3767 9.74082L39.7037 9.92639L39.3602 10.5317L39.5898 10.662L39.4003 10.996L39.1707 10.8657L39.0266 11.1197C39.0535 11.3235 39.073 11.5323 39.0866 11.7516L39.9611 10.2104L40.8378 10.7079L39.8448 12.4578L39.2812 12.138L38.9081 12.7955C39.0441 12.799 39.184 12.7956 39.3278 12.7853C39.3354 12.6746 39.3396 12.562 39.3437 12.4494L39.6706 12.4325C39.668 12.7208 39.6563 12.9763 39.6322 13.1972C39.9165 13.0366 40.1818 12.8284 40.4321 12.5657L40.0285 12.3367ZM39.6997 11.4004L39.451 11.8388L39.7084 11.9849L39.9572 11.5465L39.6997 11.4004ZM40.1269 11.2473L40.3619 10.8333L40.1044 10.6873L39.8695 11.1012L40.1269 11.2473Z" fill="white"/>
<path d="M44.354 14.2589L43.615 15.532L43.2587 15.3251L43.8069 14.3807L42.5477 13.6498L41.9995 14.5942L41.6432 14.3874L42.3821 13.1143L44.354 14.2589ZM42.8584 14.0706L43.2147 14.2775L43.0721 14.5231C43.0406 14.5695 43.0055 14.6139 42.9705 14.6583L43.2611 14.827L42.9478 15.3667C42.8956 15.4566 42.9125 15.5312 43.0059 15.5854L43.511 15.8786C43.5594 15.9067 43.606 15.906 43.6538 15.8875C43.7056 15.862 43.7932 15.751 43.9214 15.5618L44.1913 15.8619C43.9829 16.1571 43.8315 16.3144 43.7282 16.333C43.6303 16.3502 43.5174 16.3217 43.3859 16.2454L42.7113 15.8538C42.4553 15.7052 42.4037 15.4994 42.5543 15.24L42.7792 14.8525C42.6185 14.9859 42.4373 15.075 42.2376 15.1163C41.9077 15.1746 41.4725 15.1116 40.9231 14.9267L40.9022 14.4845C41.4477 14.6763 41.8495 14.7569 42.1008 14.7224C42.3567 14.672 42.5605 14.536 42.7158 14.3162L42.8584 14.0706ZM43.4138 12.062L43.7702 12.2688L43.1095 13.407L42.7532 13.2002L43.4138 12.062ZM42.6535 11.8103L43.0029 12.0131L42.4928 12.8918L42.1434 12.689L42.6535 11.8103ZM44.1912 13.2486C43.9749 13.3821 43.7595 13.4744 43.5468 13.5221L43.4201 13.1109C43.783 13.0117 44.1057 12.8382 44.3812 12.5866L44.673 12.8808L44.5307 13.0063L45.4682 13.5505L45.2774 13.8792L44.1912 13.2486ZM44.4859 13.466C44.6154 13.6891 44.7155 13.923 44.7952 14.1681L44.4217 14.2936C44.3541 14.0277 44.262 13.78 44.1386 13.5465L44.4859 13.466Z" fill="white"/>
<path d="M46.261 13.6776L46.0957 15.7142L44.4757 16.9594L44.2481 16.658L45.7338 15.5173L45.8843 13.6502L46.261 13.6776ZM46.8724 14.0102L46.7071 16.0468L45.0871 17.292L44.8595 16.9906L46.3452 15.8499L46.4817 13.9752L46.8724 14.0102Z" fill="white"/>
<g clip-path="url(#clip0_250_2751)">
<path fill-rule="evenodd" clip-rule="evenodd" d="M0 0.516937H4V4.51694H0V0.516937Z" fill="white"/>
<path fill-rule="evenodd" clip-rule="evenodd" d="M0 0.516937H1.33359V4.51694H0V0.516937Z" fill="#009A49"/>
<path fill-rule="evenodd" clip-rule="evenodd" d="M2.66638 0.516937H3.99998V4.51694H2.66638V0.516937Z" fill="#FF7900"/>
</g>
<defs>
<clipPath id="clip0_250_2751">
<rect y="0.516937" width="4" height="4" rx="2" fill="white"/>
</clipPath>
</defs>
</svg>
