<svg width="46" height="18" viewBox="0 0 46 18" fill="none" xmlns="http://www.w3.org/2000/svg">
<g clip-path="url(#clip0_516_245)">
<path fill-rule="evenodd" clip-rule="evenodd" d="M0 1.6H4V5.6H0V1.6Z" fill="white"/>
<path fill-rule="evenodd" clip-rule="evenodd" d="M0 1.6H1.33359V5.6H0V1.6Z" fill="#009A49"/>
<path fill-rule="evenodd" clip-rule="evenodd" d="M2.66638 1.6H3.99998V5.6H2.66638V1.6Z" fill="#FF7900"/>
</g>
<path d="M5.73791 1.76477L6.09095 1.93594L5.24284 3.61339L5.92935 5.35616L5.57902 5.49739L4.83122 3.59587L5.73791 1.76477ZM6.43328 1.79437L6.77034 1.96486L5.93821 3.64299L6.62472 5.38576L6.27439 5.52699L5.52659 3.62547L6.43328 1.79437Z" fill="white"/>
<path d="M10.8143 3.26328L10.724 3.97357L10.3868 3.93073L10.3444 4.26405L8.5786 4.03976C8.54471 4.1161 8.50686 4.19193 8.47001 4.25983L10.1882 4.47807L10.1494 4.78362C9.95948 4.97723 9.73739 5.13853 9.48607 5.27596C9.79337 5.42789 10.1295 5.54317 10.4935 5.62973L10.2636 5.97954C9.81931 5.85859 9.41777 5.68663 9.06695 5.46465C8.70301 5.59987 8.32232 5.67651 7.92437 5.69854L7.78525 5.30185C8.12065 5.29607 8.42336 5.26194 8.69043 5.19103C8.50815 5.03885 8.34326 4.87678 8.19228 4.70035C7.91022 5.07983 7.57972 5.36445 7.19285 5.55321L7.04031 5.16691C7.51612 4.91284 7.88851 4.52064 8.15401 3.98583L7.61038 3.91678L7.65272 3.58346L7.31146 3.54011L7.40168 2.82982L7.98103 2.9034C7.96239 2.7962 7.93877 2.69643 7.91068 2.60012L8.32299 2.59201C8.34957 2.70022 8.37016 2.8238 8.38974 2.95532L8.91354 3.02185C8.89244 2.90224 8.86637 2.79006 8.83532 2.68531L9.24366 2.6767C9.2732 2.79335 9.30072 2.92587 9.32225 3.07377L9.75874 3.12921C9.85676 2.99247 9.95181 2.84729 10.0355 2.69663C9.36969 2.66851 8.57997 2.60046 7.66731 2.48453L7.58525 2.08299C8.76775 2.23319 9.7822 2.30963 10.6202 2.31527L10.7806 2.70257C10.5703 2.70811 10.345 2.70369 10.1039 2.69726L10.4291 2.86759C10.3574 2.98751 10.2798 3.09055 10.1992 3.18516L10.8143 3.26328ZM7.73813 3.54592L8.30954 3.6185L8.3874 3.38646L8.79353 3.49046L8.73016 3.67193L10.3095 3.87253L10.3463 3.58286L7.77492 3.25625L7.73813 3.54592ZM8.56454 4.62667C8.722 4.78376 8.89785 4.92303 9.09159 5.04844C9.29221 4.96102 9.47002 4.86264 9.62799 4.76175L8.56454 4.62667Z" fill="white"/>
<path d="M13.9497 4.68629C14.1513 5.20075 14.3056 5.74644 14.4184 6.31632L14.0031 6.4115C13.8921 5.79299 13.7409 5.23162 13.5518 4.73603L13.9497 4.68629ZM12.3886 3.45054C12.1617 3.74322 11.9147 3.97464 11.6513 4.14561L11.4163 3.81618C11.8542 3.48886 12.2046 3.07028 12.462 2.56746L12.8324 2.75298C12.7677 2.87044 12.7038 2.98399 12.6368 3.09282L14.777 3.52788L14.7229 3.79443C14.6122 4.05766 14.4867 4.31379 14.3447 4.57065L13.9601 4.3741C14.0649 4.21989 14.1667 4.04057 14.2623 3.83142L12.3886 3.45054ZM12.4241 6.36809L11.9263 6.26689L11.9174 5.84874C12.071 5.8963 12.2176 5.93833 12.3587 5.96702C12.4528 5.98614 12.5117 5.93691 12.5349 5.82323L12.9373 3.84372L13.3528 3.92818L12.9288 6.01353C12.8699 6.3036 12.6985 6.42387 12.4241 6.36809ZM12.0862 4.29524L12.404 4.53943C12.0572 5.0404 11.6864 5.45892 11.2837 5.7934L10.9968 5.47793C11.3869 5.16537 11.7521 4.77429 12.0862 4.29524Z" fill="white"/>
<path d="M15.5308 5.30432L18.1129 5.99175L18.0079 6.38601L15.4258 5.69859L15.5308 5.30432ZM14.8028 6.28193L18.2584 7.20193L18.1535 7.5962L14.6978 6.6762L14.8028 6.28193ZM15.5157 4.19509L17.4406 4.70757C17.6616 4.46837 17.8645 4.20367 18.0571 3.91552L18.4144 4.15964C18.232 4.40913 18.0415 4.62745 17.8465 4.81563L18.6775 5.03688L18.5736 5.42728L15.4117 4.58549L15.5157 4.19509ZM16.5654 3.56391C16.6464 3.7883 16.7173 4.03485 16.7793 4.2997L16.3715 4.38567C16.3105 4.11695 16.2318 3.86834 16.1382 3.64473L16.5654 3.56391Z" fill="white"/>
<path d="M20.0905 5.32273L21.9806 5.91261L21.8686 6.27154L21.1278 6.04035L20.9919 6.47564L21.6143 6.66989L21.5047 7.02118L20.8823 6.82693L20.7262 7.32714L21.0737 7.43558C21.0567 7.27524 21.0261 7.1316 20.9831 7.00085L21.3322 6.99666C21.3792 7.14125 21.4151 7.29491 21.4321 7.45526L21.2188 7.48087L21.5777 7.59289L21.4657 7.95181L19.3618 7.29519L19.4738 6.93627L20.3214 7.20082L20.4776 6.70062L19.8552 6.50637L19.9648 6.15508L20.5872 6.34933L20.723 5.91403L19.9785 5.68165L20.0905 5.32273ZM22.8459 5.51642L21.7865 8.91094L21.3817 8.78463L21.4258 8.64335L18.9974 7.88544L18.9533 8.02671L18.5485 7.9004L19.6079 4.50587L22.8459 5.51642ZM19.1141 7.51124L21.5426 8.26915L22.3244 5.7643L19.8959 5.00639L19.1141 7.51124Z" fill="white"/>
<path d="M24.9975 8.40384C24.9469 8.40338 24.8976 8.39913 24.8483 8.39489C24.8415 8.5871 24.8056 8.77778 24.7418 8.9758C24.6352 9.28601 24.5184 9.47848 24.3961 9.56339C24.2472 9.66449 23.9956 9.6584 23.6475 9.53885L23.5302 9.49857L23.5174 9.10505L23.7141 9.17262C23.9184 9.24279 24.0574 9.25671 24.1286 9.22194C24.2138 9.17085 24.2946 9.04636 24.3635 8.84586C24.3739 8.81559 24.3792 8.78781 24.387 8.76511C23.8745 8.92741 23.2628 8.99647 22.5484 8.97098L22.4673 8.56672C23.2765 8.61204 23.9374 8.54723 24.4513 8.3685C24.4533 8.28883 24.4527 8.21672 24.447 8.14709C24.0068 8.28349 23.4674 8.33929 22.8315 8.30693L22.7504 7.90266C23.4165 7.95807 23.9608 7.92508 24.3818 7.80749C24.3671 7.7517 24.3461 7.70217 24.3288 7.65394C24.3212 7.65134 24.3124 7.65253 24.3111 7.65631C24.0287 7.69042 23.6327 7.69819 23.1319 7.67845L23.0445 7.28045C23.4121 7.33061 23.7713 7.344 24.1206 7.32442C24.2028 7.31884 24.2851 7.31327 24.3636 7.3064L23.5767 7.03611L23.7015 6.67294L25.941 7.44222L25.8163 7.80539L24.9878 7.52081C24.8851 7.54896 24.7874 7.57464 24.6873 7.59523C24.7543 7.74511 24.7997 7.89605 24.8236 8.04806C25.1852 8.06654 25.5435 8.03312 25.9036 7.94533L26.0774 8.30111C25.8429 8.35589 25.5984 8.39035 25.3491 8.40199C25.3763 8.88925 25.5329 9.33215 25.8241 9.7282L25.4311 9.96117C25.1457 9.48674 25.0024 8.96806 24.9975 8.40384ZM25.247 6.15068C25.2523 6.25826 25.2538 6.37717 25.2513 6.50744L26.6662 6.99344L26.4193 7.71222L26.0258 7.57708L26.148 7.22147L23.6701 6.37032L23.5479 6.72593L23.1583 6.59208L23.4052 5.87331L24.8503 6.3697C24.8437 6.26591 24.8344 6.16969 24.8188 6.07974L25.247 6.15068Z" fill="white"/>
<path d="M27.7909 7.13685C27.9632 7.40649 28.0981 7.6621 28.1955 7.90366L27.8284 8.07364C27.7469 7.84659 27.6149 7.58349 27.4295 7.29184L27.7909 7.13685ZM26.894 8.0138L27.7592 8.33816L27.1765 9.89252C27.3216 9.83586 27.477 9.77452 27.6441 9.70474L27.5983 10.1575C27.2668 10.2895 26.9302 10.3897 26.5857 10.4656L26.5679 10.0574C26.6526 10.0251 26.713 9.96654 26.7439 9.88414L27.2367 8.56948L26.7536 8.38835L26.894 8.0138ZM28.0663 8.96594L29.8941 9.65115L29.7607 10.007C29.5351 10.2898 29.2575 10.5061 28.9293 10.6522C29.1054 10.8891 29.3372 11.1255 29.627 11.3665L29.2909 11.625C28.98 11.3376 28.7309 11.0562 28.5525 10.78C28.1831 10.8765 27.7655 10.9079 27.2922 10.8714L27.1985 10.4604C27.6264 10.4927 28.0056 10.4725 28.3399 10.4013C28.19 10.0717 28.1198 9.74636 28.1394 9.42052L27.9259 9.34048L28.0663 8.96594ZM28.5065 9.55812C28.5088 9.80251 28.5707 10.0478 28.7008 10.2931C28.9564 10.1924 29.1741 10.0562 29.3604 9.87827L28.5065 9.55812ZM28.8644 7.61193L30.2128 8.11742L29.9221 8.89272C29.8912 8.97512 29.9193 9.03692 30.013 9.07202L30.3351 9.19278L30.2017 9.5486L29.7747 9.38853C29.4938 9.28322 29.4044 9.10017 29.5027 8.83799L29.6894 8.33984L29.1126 8.12361L29.0747 8.22474C28.9287 8.61426 28.6127 8.84182 28.137 8.90273L27.9872 8.5048C28.3509 8.49166 28.5822 8.36476 28.6735 8.12131L28.8644 7.61193Z" fill="white"/>
<path d="M31.8554 9.84885L32.8218 10.211L33.2289 9.12482L33.6334 9.27643L33.2263 10.3626L34.144 10.7066L33.998 11.0961L33.0803 10.7522L32.3279 12.7598L31.9233 12.6082L32.6758 10.6006L31.7094 10.2384L31.8554 9.84885ZM31.5921 8.54553C31.7593 8.8175 31.8927 9.07684 31.9939 9.3198L31.6217 9.49215C31.544 9.26651 31.4068 9.00577 31.2138 8.71133L31.5921 8.54553ZM30.6657 9.43287L31.5572 9.76698L30.9704 11.3326C31.1141 11.2797 31.2695 11.2183 31.4367 11.1486L31.3876 11.5872C31.0599 11.7207 30.7256 11.8261 30.3811 11.902L30.3632 11.4938C30.4517 11.4629 30.5107 11.4081 30.5401 11.3294L31.0385 9.99975L30.5254 9.80743L30.6657 9.43287Z" fill="white"/>
<path d="M34.6641 10.0253L36.3177 10.554L36.1934 10.9426L35.6524 10.7696L35.4294 11.4668L35.8142 11.5899L35.7484 11.7956C36.1272 11.4254 36.4578 10.9432 36.7452 10.3464L37.123 10.5176C37.0328 10.6945 36.9413 10.8626 36.8458 11.0168L37.9469 11.3689L37.8226 11.7575L37.5788 11.6796C37.3594 12.2604 37.0615 12.7194 36.6798 13.0593C36.7957 13.4324 36.9704 13.7528 37.2051 14.0168L36.8681 14.2828C36.632 14.0099 36.4547 13.6845 36.3388 13.3115C35.9835 13.5296 35.5779 13.6687 35.1181 13.7274L34.9791 13.3218C35.4681 13.2766 35.8863 13.1374 36.2313 12.8991C36.1707 12.6026 36.139 12.2817 36.1398 11.9376C36.0173 12.058 35.8934 12.1696 35.7682 12.2723L35.6529 11.9499L35.31 11.8402L35.0432 12.6746C35.2355 12.6773 35.424 12.6788 35.6011 12.6766L35.4842 13.0424C34.9619 13.0602 34.371 13.0434 33.7125 12.9882L33.7228 12.5883L33.9546 12.612L34.5052 10.8899L34.8748 11.0081L34.3521 12.6426C34.4471 12.6477 34.537 12.6555 34.6243 12.6582L35.2676 10.6466L34.5399 10.4139L34.6641 10.0253ZM36.568 12.6078C36.8352 12.3237 37.0435 11.9746 37.1939 11.5565L36.611 11.3701C36.5725 11.425 36.5352 11.4761 36.4991 11.5233C36.4862 11.9181 36.5096 12.2784 36.568 12.6078Z" fill="white"/>
<path d="M38.1153 12.0035L39.6605 12.3136L39.7046 12.0939L40.0771 12.1687L39.8827 11.9787C40.1017 11.7616 40.2721 11.5224 40.3993 11.2542L40.7742 11.4192C40.7349 11.4929 40.6957 11.5666 40.658 11.6325L41.7639 11.8544L41.6915 12.2152L41.0484 12.0861C41.0969 12.2101 41.1345 12.3278 41.1619 12.4353L40.7775 12.501C40.7383 12.3299 40.6898 12.1652 40.6326 12.0027L40.4444 11.965C40.3604 12.0787 40.2748 12.1798 40.183 12.2715L40.1148 12.2048L40.0762 12.397L41.6214 12.707L41.5475 13.0757L40.0022 12.7656L39.9629 12.9617L41.2493 13.2198L41.095 13.9885C41.0494 14.216 40.9011 14.3045 40.654 14.2549L40.4148 14.2069C40.6665 14.4166 40.9621 14.6105 41.2969 14.7919L41.0065 15.1212C40.4983 14.8071 40.0836 14.4342 39.7528 14.0089L39.5718 14.9109L39.1561 14.8275L39.3339 13.9411C38.8788 14.217 38.3876 14.4081 37.8651 14.5113L37.6951 14.0978C38.3368 14.0103 38.9088 13.8232 39.4158 13.5333L39.4756 13.2352L38.6598 13.0715L38.5119 13.8088L38.108 13.7278L38.3275 12.6336L39.5472 12.8783L39.5865 12.6822L38.0413 12.3722L38.1153 12.0035ZM39.8299 13.6245C39.9867 13.8192 40.1694 14.0068 40.3865 14.185L40.3577 13.8202L40.6087 13.8909C40.6597 13.9012 40.6935 13.8753 40.7045 13.8204L40.7698 13.4949L39.8913 13.3186L39.8299 13.6245ZM38.7933 11.6337C38.6842 11.7505 38.5688 11.8579 38.4471 11.9559L38.139 11.6615C38.4263 11.4499 38.6508 11.2053 38.8078 10.9308L39.1827 11.0958C39.1395 11.1687 39.0924 11.2409 39.0461 11.3091L39.956 11.4916L39.8836 11.8524L39.3424 11.7439C39.3909 11.8678 39.4324 11.9863 39.4629 12.0985L39.0667 12.1618C39.0276 11.9908 38.9799 11.8221 38.9227 11.6597L38.7933 11.6337Z" fill="white"/>
<path d="M42.2574 11.5838L42.9876 13.4922L42.0641 15.3148L41.7286 15.1412L42.5762 13.4709L41.9058 11.7218L42.2574 11.5838ZM42.9524 11.6199L43.6827 13.5282L42.7591 15.3508L42.4237 15.1773L43.2712 13.5069L42.5849 11.757L42.9524 11.6199Z" fill="white"/>
<defs>
<clipPath id="clip0_516_245">
<rect y="1.6" width="4" height="4" rx="2" fill="white"/>
</clipPath>
</defs>
</svg>
