<svg width="45" height="10" viewBox="0 0 45 10" fill="none" xmlns="http://www.w3.org/2000/svg">
<path d="M6.50071 3.77049L6.87012 3.89802L6.21174 5.66674L7.08468 7.3155L6.75223 7.49801L5.801 5.69891L6.50071 3.77049ZM7.19459 3.71613L7.54804 3.84492L6.90562 5.61238L7.77856 7.26115L7.44611 7.44366L6.49488 5.64456L7.19459 3.71613ZM10.749 4.64532L11.0977 4.82262C10.9283 5.34141 10.6737 5.78663 10.3382 6.16195C10.7681 6.41313 11.2617 6.59914 11.8151 6.72028L11.6035 7.08991C11.0091 6.95593 10.4857 6.74417 10.0375 6.45832C9.60605 6.83715 9.07297 7.13568 8.43373 7.34623L8.18963 6.99625C8.78608 6.8051 9.28542 6.54131 9.6882 6.21287C9.27742 5.88798 8.93384 5.48962 8.66118 5.01348L8.96382 4.80522C9.2346 5.25342 9.57656 5.62783 9.98999 5.93246C10.3342 5.56848 10.5899 5.13923 10.749 4.64532ZM8.05232 4.07021L8.89773 4.00398L8.87188 3.62086L9.28661 3.58837L9.31246 3.9715L10.2456 3.8984L10.2198 3.51527L10.6345 3.48279L10.6603 3.86591L11.5456 3.79657L11.5717 4.18369L10.6865 4.25303L10.7118 4.62818L10.297 4.66067L10.2717 4.28552L9.33858 4.35862L9.36417 4.73775L8.94944 4.77024L8.92385 4.3911L8.07844 4.45733L8.05232 4.07021ZM15.3878 5.12849L15.5009 6.80468L15.1021 6.83592L15.0881 6.62839L14.1031 6.70555L14.1171 6.91307L13.7223 6.944L13.6092 5.26781L15.3878 5.12849ZM14.0773 6.32242L15.0623 6.24526L15.0149 5.54286L14.0299 5.62001L14.0773 6.32242ZM14.1722 3.21369L14.551 3.18402C14.8221 3.6362 15.2156 4.00257 15.7274 4.27943L15.5121 4.65336C15.3785 4.57556 15.257 4.49681 15.1428 4.40947L15.1649 4.73672L13.7532 4.8473L13.7314 4.52404C13.6268 4.63655 13.5213 4.73709 13.4113 4.82996L13.2756 4.66005L13.3997 6.49986L13.0129 6.53016L13.0008 6.35057L12.6299 6.37962L12.6477 6.64302L12.2569 6.67364L12.053 3.65251L13.2015 3.56254L13.2583 4.40463C13.6409 4.07376 13.9469 3.67668 14.1722 3.21369ZM13.7949 4.45487L15.075 4.3546C14.8036 4.13514 14.574 3.88031 14.3855 3.58214C14.2156 3.91641 14.0186 4.20466 13.7949 4.45487ZM12.6035 5.98851L12.9744 5.95946L12.8406 3.97597L12.4697 4.00502L12.6035 5.98851ZM16.2905 3.05979C16.5717 3.24639 16.8127 3.43212 17.0142 3.62497L16.7316 3.95202C16.5626 3.76466 16.3284 3.56234 16.0257 3.35335L16.2905 3.05979ZM18.9138 6.46913C18.6865 6.48693 18.439 6.50231 18.1716 6.51925C17.9001 6.5365 17.6752 6.53005 17.501 6.50357C17.3263 6.46911 17.1766 6.38856 17.0478 6.26224C16.9874 6.19877 16.9294 6.17122 16.8815 6.17497C16.8018 6.18121 16.6746 6.37573 16.4963 6.76282L16.1698 6.49952C16.3471 6.15665 16.5166 5.93475 16.6702 5.83446L16.5969 4.74892L16.0625 4.79078L16.0351 4.38371L16.9642 4.31092L17.0671 5.83546C17.0841 5.85017 17.1009 5.86089 17.1179 5.87561C17.2206 5.97188 17.3257 6.04389 17.4249 6.08827C17.5523 6.13446 17.7382 6.15601 17.9859 6.14462C18.2255 6.12987 18.5089 6.11168 18.8319 6.08638C19.0153 6.07201 19.2025 6.05334 19.3936 6.03435C19.5845 6.01138 19.7315 5.99184 19.8307 5.97605L19.7593 6.4029L18.9138 6.46913ZM17.1342 3.14616L19.5388 2.9578L19.5652 3.34891L18.1615 3.45887L18.1782 3.7063C18.1839 3.79011 18.1853 3.87024 18.1867 3.95037L19.3591 3.85854C19.4 4.76205 19.4113 5.28673 19.3894 5.4369C19.3672 5.58307 19.3101 5.68784 19.2259 5.74659C19.1379 5.80965 18.9285 5.85414 18.5975 5.88007L18.5137 5.88663L18.3733 5.52852C18.4773 5.52439 18.5812 5.52026 18.6809 5.51245C18.8285 5.5009 18.9226 5.46945 18.9637 5.42611C18.9929 5.3837 19.0126 5.31797 19.0183 5.22524C19.0156 5.12516 19.006 4.80495 18.9859 4.26891L18.1803 4.33201C18.1355 5.03362 17.9437 5.57822 17.6091 5.96552L17.2754 5.71483C17.6593 5.28356 17.8233 4.62478 17.7715 3.73817L17.7548 3.49073L17.1606 3.53727L17.1342 3.14616ZM20.2783 2.74742C20.5595 2.93402 20.8005 3.11975 21.0019 3.31259L20.7193 3.63965C20.5503 3.45228 20.3162 3.24996 20.0135 3.04098L20.2783 2.74742ZM22.9016 6.15675C22.6743 6.17456 22.4268 6.18993 22.1594 6.20687C21.8879 6.22412 21.663 6.21767 21.4888 6.19119C21.3141 6.15674 21.1644 6.07619 21.0356 5.94987C20.9752 5.8864 20.9172 5.85884 20.8693 5.86259C20.7896 5.86884 20.6624 6.06335 20.4838 6.44645L20.1576 6.18715C20.3349 5.84427 20.5044 5.62238 20.6579 5.52208L20.5847 4.43655L20.0503 4.47841L20.0229 4.07133L20.952 3.99855L21.0549 5.52308C21.0719 5.5378 21.0887 5.54852 21.1057 5.56323C21.2084 5.6595 21.3135 5.73151 21.4127 5.7759C21.5401 5.82208 21.7259 5.84363 21.9737 5.83225C22.2133 5.8175 22.4967 5.79931 22.8197 5.77401C23.0031 5.75964 23.1903 5.74096 23.3814 5.72198C23.5723 5.699 23.7193 5.67946 23.8185 5.66367L23.747 6.09053L22.9016 6.15675ZM21.2063 3.48917L22.0437 3.42357C22.0473 3.23873 22.0466 3.05022 22.0376 2.85835L22.0188 2.57898L22.4335 2.5465L22.4462 2.73407C22.4618 2.96554 22.4644 3.18199 22.4545 3.39139L23.3996 3.31736L23.427 3.72443L22.4221 3.80315C22.4118 3.88821 22.3973 3.96959 22.3827 4.05097C22.7411 4.31177 23.163 4.68392 23.6527 5.16713L23.3698 5.49019C23.0406 5.12681 22.6803 4.77791 22.2852 4.44777C22.1266 4.94966 21.8609 5.34761 21.4878 5.64163L21.2094 5.3184C21.6444 4.99145 21.9077 4.49741 22.0074 3.83564L21.2337 3.89624L21.2063 3.48917ZM25.5309 2.8816L24.6297 2.95219L24.6967 3.94593L25.598 3.87534L25.5309 2.8816ZM26.0207 3.84223L26.9179 3.77194L26.8509 2.7782L25.9536 2.84849L26.0207 3.84223ZM27.2347 2.34693L27.3553 4.13487L24.7234 4.34104L24.791 5.34276C24.7999 5.47446 24.8762 5.53668 25.0278 5.52481L27.0855 5.36363C27.1806 5.34815 27.2372 5.29557 27.2632 5.20527C27.2868 5.13923 27.3007 4.92951 27.3049 4.57613L27.7163 4.67229C27.706 4.99406 27.6852 5.22036 27.6584 5.35887C27.61 5.59135 27.4745 5.72232 27.252 5.75179L24.8832 5.93734C24.5642 5.96233 24.399 5.83084 24.3796 5.54349L24.1801 2.58621L27.2347 2.34693ZM30.0563 1.9213L30.4588 1.94593L30.4494 2.16332L31.4344 2.08616L31.4589 2.44934L30.4181 2.53087C30.4067 2.59996 30.3994 2.66874 30.3917 2.73354L31.4006 2.6545L31.4712 3.70013L29.2978 3.87037L29.2273 2.82475L30.0009 2.76415L30.0233 2.56179L29.142 2.63083L29.1175 2.26765L30.0467 2.19487C30.0485 2.10245 30.0542 2.00972 30.0563 1.9213ZM29.2297 4.04823L31.5545 3.86611L31.5798 4.24126L29.255 4.42338L29.2297 4.04823ZM31.0891 3.38502L31.0649 3.02584L30.7897 3.04739L30.814 3.40657L31.0891 3.38502ZM30.4949 3.43156L30.4707 3.07238L30.2035 3.09331L30.2278 3.45249L30.4949 3.43156ZM29.9087 3.47748L29.8845 3.1183L29.6093 3.13985L29.6336 3.49904L29.9087 3.47748ZM28.6324 2.02883L29.0108 2.1717C28.8451 2.626 28.5367 3.04735 28.0864 3.4437L27.9316 3.05061C28.2563 2.75237 28.4897 2.40911 28.6324 2.02883ZM28.8013 3.04668L29.1715 3.18619C29.1004 3.38032 29.0048 3.56835 28.8848 3.75027L29.0195 5.74573L28.6127 5.77759L28.5077 4.22113C28.4065 4.32535 28.297 4.4262 28.1836 4.52736L28.0333 4.14194C28.3885 3.82124 28.6445 3.45615 28.8013 3.04668ZM31.4148 4.35048C31.5594 4.59191 31.6931 4.85024 31.8079 5.1261L31.4755 5.30861C31.3503 4.99746 31.2197 4.72684 31.0797 4.49308L31.4148 4.35048ZM29.2759 4.61431L29.6519 4.66109C29.6035 5.01392 29.524 5.32105 29.4096 5.58678L29.0561 5.39782C29.1676 5.14837 29.2381 4.88608 29.2759 4.61431ZM30.8634 5.56518L30.2333 5.61454C29.9661 5.63546 29.8249 5.5021 29.8055 5.21475L29.7602 4.54428L30.1391 4.5146L30.1789 5.10526C30.1854 5.20104 30.2365 5.24518 30.3322 5.23769L30.7668 5.20364C30.8147 5.19989 30.8455 5.18143 30.8636 5.15193C30.8853 5.11813 30.8991 5.02477 30.8966 4.8685L31.2673 4.95581C31.2582 5.23736 31.2217 5.40873 31.1574 5.46592C31.0928 5.51913 30.995 5.55487 30.8634 5.56518ZM30.5617 4.36114C30.7205 4.5172 30.8459 4.65181 30.938 4.76897L30.6492 5.00423C30.5523 4.87541 30.4301 4.72851 30.2752 4.57214L30.5617 4.36114ZM32.6082 3.26202L34.9969 3.0749L35.0987 4.58347L32.71 4.77058L32.6082 3.26202ZM34.6552 4.24911L34.6404 4.02961L33.0891 4.15112L33.1039 4.37062L34.6552 4.24911ZM33.0662 3.81189L34.6175 3.69038L34.6029 3.47487L33.0517 3.59638L33.0662 3.81189ZM35.4026 1.83952L35.4548 2.61375L35.1079 2.64093L35.1216 2.84447L32.4498 3.05376L32.4358 2.84623L32.0849 2.87372L32.0329 2.10347L33.4685 1.99102C33.4307 1.90572 33.3897 1.8327 33.345 1.76399L33.8261 1.64606C33.8684 1.73903 33.9113 1.83998 33.951 1.95322L35.4026 1.83952ZM32.4971 2.68496L35.0214 2.48723L35.0068 2.27172L32.4826 2.46945L32.4971 2.68496ZM32.2593 5.0426L35.5811 4.78239L35.6062 5.15354L32.2843 5.41375L32.2593 5.0426ZM35.9134 1.92387L37.5245 1.79768C37.4606 1.68232 37.3972 1.57495 37.3258 1.4682L37.7562 1.31012C37.8475 1.47548 37.9218 1.62613 37.9751 1.76238L39.5223 1.64118L39.5487 2.03229L35.9398 2.31499L35.9134 1.92387ZM36.4555 2.53136L39.0675 2.32675L39.0925 2.69791L36.4805 2.90251L36.4555 2.53136ZM36.4967 3.14197L39.1087 2.93736L39.134 3.31251L36.522 3.51712L36.4967 3.14197ZM39.2321 3.57765L39.3242 4.94254L38.9174 4.9744L38.9075 4.82674L36.9455 4.98043L36.9554 5.12809L36.5487 5.15996L36.4566 3.79506L39.2321 3.57765ZM36.9191 4.58932L38.8811 4.43563L38.8517 4.00062L36.8897 4.15431L36.9191 4.58932ZM40.2613 1.12592L41.2125 2.92502L40.5128 4.85345L40.1594 4.72466L40.8018 2.9572L39.9288 1.30843L40.2613 1.12592ZM40.9552 1.07157L41.9064 2.87067L41.2067 4.79909L40.8532 4.67031L41.4957 2.90284L40.6068 1.25533L40.9552 1.07157Z" fill="white"/>
<g clip-path="url(#clip0_4_51905)">
<path d="M0.45752 4.51043L4.41802 3.94972L4.60497 5.27015L0.64446 5.83086L0.45752 4.51043Z" fill="#FF9933"/>
<path d="M0.644409 5.83086L4.60491 5.27015L4.79175 6.5898L0.831241 7.15051L0.644409 5.83086Z" fill="white"/>
<path d="M0.831299 7.15051L4.7918 6.5898L4.97874 7.91022L1.01824 8.47094L0.831299 7.15051Z" fill="#128807"/>
<path d="M2.79295 6.73839C3.08459 6.69711 3.28754 6.42721 3.24625 6.13557C3.20496 5.84392 2.93507 5.64097 2.64342 5.68226C2.35178 5.72355 2.14883 5.99345 2.19012 6.28509C2.23141 6.57673 2.5013 6.77968 2.79295 6.73839Z" fill="#000088"/>
<path d="M2.78357 6.67239C3.03875 6.63626 3.21634 6.4001 3.18021 6.14491C3.14408 5.88972 2.90792 5.71214 2.65273 5.74827C2.39754 5.7844 2.21996 6.02056 2.25609 6.27574C2.29222 6.53093 2.52838 6.70852 2.78357 6.67239Z" fill="white"/>
<path d="M2.73125 6.30274C2.78229 6.29551 2.8178 6.24828 2.81058 6.19724C2.80335 6.14621 2.75612 6.11069 2.70508 6.11792C2.65405 6.12514 2.61853 6.17237 2.62575 6.22341C2.63298 6.27445 2.68021 6.30996 2.73125 6.30274Z" fill="#000088"/>
<path d="M3.18511 6.22995C3.19837 6.22982 3.20901 6.21898 3.20888 6.20572C3.20875 6.19247 3.1979 6.18183 3.18464 6.18196C3.17139 6.18209 3.16075 6.19293 3.16088 6.20619C3.16101 6.21944 3.17186 6.23008 3.18511 6.22995Z" fill="#000088"/>
<path d="M2.78362 6.67239L2.76021 6.39291L2.72568 6.26313L2.72853 6.39739L2.78362 6.67239Z" fill="#000088"/>
<path d="M3.1641 6.35013C3.17694 6.35343 3.19002 6.34571 3.19333 6.33287C3.19664 6.32003 3.18891 6.30695 3.17607 6.30364C3.16324 6.30034 3.15015 6.30806 3.14685 6.3209C3.14354 6.33373 3.15127 6.34682 3.1641 6.35013Z" fill="#000088"/>
<path d="M2.66185 6.67357L2.71157 6.39756L2.71181 6.26327L2.67981 6.39369L2.66185 6.67357Z" fill="#000088"/>
<path d="M3.11266 6.46077C3.12421 6.46729 3.13885 6.46321 3.14536 6.45167C3.15188 6.44012 3.1478 6.42549 3.13626 6.41897C3.12471 6.41245 3.11007 6.41653 3.10356 6.42807C3.09704 6.43962 3.10112 6.45426 3.11266 6.46077Z" fill="#000088"/>
<path d="M2.54374 6.64319L2.66321 6.38945L2.69819 6.2598L2.63353 6.37749L2.54374 6.64319Z" fill="#000088"/>
<path d="M3.03455 6.55435C3.04402 6.56363 3.05921 6.56348 3.06849 6.55402C3.07777 6.54455 3.07762 6.52936 3.06816 6.52008C3.0587 6.5108 3.0435 6.51094 3.03422 6.52041C3.02494 6.52987 3.02509 6.54507 3.03455 6.55435Z" fill="#000088"/>
<path d="M2.43784 6.58331L2.6189 6.36914L2.68625 6.25295L2.59333 6.3499L2.43784 6.58331Z" fill="#000088"/>
<path d="M2.93474 6.62448C2.94147 6.63589 2.95619 6.63968 2.9676 6.63295C2.97902 6.62621 2.98281 6.61149 2.97607 6.60008C2.96933 6.58866 2.95461 6.58487 2.9432 6.59161C2.93179 6.59835 2.928 6.61307 2.93474 6.62448Z" fill="#000088"/>
<path d="M2.35079 6.49801L2.58112 6.338L2.67625 6.2432L2.5614 6.3128L2.35079 6.49801Z" fill="#000088"/>
<path d="M2.82018 6.66639C2.82374 6.67916 2.83697 6.68663 2.84974 6.68307C2.86251 6.67952 2.86998 6.66629 2.86642 6.65352C2.86287 6.64075 2.84963 6.63328 2.83686 6.63683C2.8241 6.64039 2.81663 6.65362 2.82018 6.66639Z" fill="#000088"/>
<path d="M2.2888 6.3931L2.55269 6.29816L2.66911 6.23122L2.54016 6.26872L2.2888 6.3931Z" fill="#000088"/>
<path d="M2.69857 6.67722C2.6987 6.69047 2.70955 6.70111 2.72281 6.70099C2.73606 6.70086 2.7467 6.69001 2.74657 6.67675C2.74644 6.6635 2.73559 6.65286 2.72234 6.65299C2.70908 6.65312 2.69844 6.66397 2.69857 6.67722Z" fill="#000088"/>
<path d="M2.25608 6.27574L2.53555 6.25233L2.66533 6.2178L2.53107 6.22065L2.25608 6.27574Z" fill="#000088"/>
<path d="M2.57851 6.65623C2.57521 6.66907 2.58293 6.68215 2.59577 6.68546C2.6086 6.68876 2.62169 6.68104 2.625 6.6682C2.6283 6.65537 2.62058 6.64228 2.60774 6.63897C2.5949 6.63567 2.58182 6.64339 2.57851 6.65623Z" fill="#000088"/>
<path d="M2.255 6.15392L2.53101 6.20365L2.6653 6.20388L2.53488 6.17188L2.255 6.15392Z" fill="#000088"/>
<path d="M2.46776 6.60486C2.46125 6.6164 2.46532 6.63104 2.47687 6.63755C2.48841 6.64407 2.50305 6.63999 2.50957 6.62845C2.51608 6.61691 2.512 6.60227 2.50046 6.59575C2.48892 6.58924 2.47428 6.59331 2.46776 6.60486Z" fill="#000088"/>
<path d="M2.28531 6.03595L2.53905 6.15542L2.6687 6.1904L2.55101 6.12574L2.28531 6.03595Z" fill="#000088"/>
<path d="M2.3741 6.52659C2.36482 6.53606 2.36496 6.55125 2.37443 6.56053C2.38389 6.56981 2.39909 6.56966 2.40837 6.5602C2.41765 6.55074 2.4175 6.53554 2.40804 6.52626C2.39857 6.51698 2.38338 6.51713 2.3741 6.52659Z" fill="#000088"/>
<path d="M2.34509 5.92986L2.55926 6.11093L2.67544 6.17827L2.57849 6.08535L2.34509 5.92986Z" fill="#000088"/>
<path d="M2.30405 6.42678C2.29264 6.43352 2.28885 6.44823 2.29559 6.45964C2.30232 6.47106 2.31704 6.47485 2.32845 6.46811C2.33987 6.46137 2.34366 6.44666 2.33692 6.43524C2.33018 6.42383 2.31546 6.42004 2.30405 6.42678Z" fill="#000088"/>
<path d="M2.43047 5.84288L2.59048 6.07321L2.68528 6.16833L2.61568 6.05349L2.43047 5.84288Z" fill="#000088"/>
<path d="M2.2621 6.31221C2.24933 6.31577 2.24186 6.329 2.24542 6.34177C2.24897 6.35454 2.26221 6.36201 2.27498 6.35845C2.28774 6.3549 2.29521 6.34166 2.29166 6.32889C2.2881 6.31612 2.27487 6.30866 2.2621 6.31221Z" fill="#000088"/>
<path d="M2.5353 5.78094L2.63025 6.04484L2.69719 6.16125L2.65969 6.03231L2.5353 5.78094Z" fill="#000088"/>
<path d="M2.25129 6.1907C2.23804 6.19083 2.2274 6.20168 2.22753 6.21493C2.22765 6.22819 2.2385 6.23883 2.25176 6.2387C2.26501 6.23857 2.27565 6.22772 2.27552 6.21446C2.27539 6.20121 2.26454 6.19057 2.25129 6.1907Z" fill="#000088"/>
<path d="M2.65278 5.74827L2.67619 6.02774L2.71072 6.15752L2.70787 6.02326L2.65278 5.74827Z" fill="#000088"/>
<path d="M2.2723 6.07053C2.25946 6.06722 2.24638 6.07495 2.24307 6.08778C2.23977 6.10062 2.24749 6.1137 2.26033 6.11701C2.27316 6.12032 2.28625 6.11259 2.28955 6.09975C2.29286 6.08692 2.28513 6.07383 2.2723 6.07053Z" fill="#000088"/>
<path d="M2.77455 5.74708L2.72483 6.02309L2.7246 6.15738L2.75659 6.02696L2.77455 5.74708Z" fill="#000088"/>
<path d="M2.32374 5.95988C2.3122 5.95337 2.29756 5.95744 2.29104 5.96898C2.28453 5.98053 2.2886 5.99517 2.30014 6.00168C2.31169 6.0082 2.32633 6.00412 2.33284 5.99258C2.33936 5.98104 2.33528 5.9664 2.32374 5.95988Z" fill="#000088"/>
<path d="M2.89266 5.77746L2.77319 6.0312L2.73821 6.16086L2.80287 6.04316L2.89266 5.77746Z" fill="#000088"/>
<path d="M2.40185 5.8663C2.39239 5.85702 2.37719 5.85717 2.36791 5.86664C2.35863 5.8761 2.35878 5.89129 2.36824 5.90057C2.3777 5.90986 2.3929 5.90971 2.40218 5.90024C2.41146 5.89078 2.41131 5.87559 2.40185 5.8663Z" fill="#000088"/>
<path d="M2.99857 5.83734L2.8175 6.05152L2.75015 6.1677L2.84307 6.07075L2.99857 5.83734Z" fill="#000088"/>
<path d="M2.50167 5.79617C2.49493 5.78476 2.48021 5.78097 2.4688 5.78771C2.45738 5.79445 2.45359 5.80916 2.46033 5.82058C2.46707 5.83199 2.48179 5.83578 2.4932 5.82904C2.50461 5.8223 2.5084 5.80759 2.50167 5.79617Z" fill="#000088"/>
<path d="M3.08561 5.92265L2.85528 6.08266L2.76016 6.17745L2.875 6.10785L3.08561 5.92265Z" fill="#000088"/>
<path d="M2.61622 5.75426C2.61266 5.74149 2.59943 5.73402 2.58666 5.73758C2.57389 5.74114 2.56642 5.75437 2.56998 5.76714C2.57353 5.77991 2.58677 5.78738 2.59954 5.78382C2.61231 5.78027 2.61978 5.76703 2.61622 5.75426Z" fill="#000088"/>
<path d="M3.1476 6.02755L2.88371 6.1225L2.76729 6.18944L2.89624 6.15194L3.1476 6.02755Z" fill="#000088"/>
<path d="M2.73783 5.74343C2.7377 5.73018 2.72685 5.71954 2.71359 5.71967C2.70034 5.7198 2.6897 5.73065 2.68983 5.7439C2.68996 5.75716 2.70081 5.7678 2.71406 5.76767C2.72732 5.76754 2.73796 5.75669 2.73783 5.74343Z" fill="#000088"/>
<path d="M3.18032 6.14491L2.90085 6.16832L2.77107 6.20285L2.90533 6.2L3.18032 6.14491Z" fill="#000088"/>
<path d="M2.85789 5.76442C2.86119 5.75159 2.85347 5.7385 2.84063 5.7352C2.8278 5.73189 2.81471 5.73962 2.81141 5.75245C2.8081 5.76529 2.81583 5.77837 2.82866 5.78168C2.8415 5.78499 2.85458 5.77726 2.85789 5.76442Z" fill="#000088"/>
<path d="M3.1814 6.26673L2.90539 6.21701L2.7711 6.21677L2.90152 6.24877L3.1814 6.26673Z" fill="#000088"/>
<path d="M2.96864 5.8158C2.97515 5.80425 2.97108 5.78962 2.95953 5.7831C2.94799 5.77659 2.93335 5.78066 2.92684 5.7922C2.92032 5.80375 2.9244 5.81839 2.93594 5.8249C2.94748 5.83142 2.96212 5.82734 2.96864 5.8158Z" fill="#000088"/>
<path d="M3.15109 6.3847L2.89735 6.26524L2.7677 6.23026L2.88539 6.29492L3.15109 6.3847Z" fill="#000088"/>
<path d="M3.06231 5.89406C3.07159 5.8846 3.07144 5.8694 3.06197 5.86012C3.05251 5.85084 3.03732 5.85099 3.02803 5.86045C3.01875 5.86992 3.0189 5.88511 3.02837 5.89439C3.03783 5.90367 3.05302 5.90353 3.06231 5.89406Z" fill="#000088"/>
<path d="M3.09131 6.4908L2.87714 6.30973L2.76096 6.24238L2.85791 6.3353L3.09131 6.4908Z" fill="#000088"/>
<path d="M3.13235 5.99388C3.14376 5.98714 3.14755 5.97242 3.14082 5.96101C3.13408 5.9496 3.11936 5.94581 3.10795 5.95254C3.09653 5.95928 3.09274 5.974 3.09948 5.98541C3.10622 5.99683 3.12094 6.00062 3.13235 5.99388Z" fill="#000088"/>
<path d="M3.00593 6.57777L2.84592 6.34744L2.75112 6.25232L2.82072 6.36717L3.00593 6.57777Z" fill="#000088"/>
<path d="M3.1743 6.10844C3.18707 6.10489 3.19454 6.09166 3.19098 6.07889C3.18743 6.06612 3.1742 6.05865 3.16143 6.0622C3.14866 6.06576 3.14119 6.07899 3.14474 6.09176C3.1483 6.10453 3.16153 6.112 3.1743 6.10844Z" fill="#000088"/>
<path d="M2.9011 6.63971L2.80615 6.37581L2.73921 6.2594L2.77671 6.38835L2.9011 6.63971Z" fill="#000088"/>
</g>
<defs>
<clipPath id="clip0_4_51905">
<rect x="0.45752" y="4.51043" width="4" height="4" rx="2" transform="rotate(-8.05816 0.45752 4.51043)" fill="white"/>
</clipPath>
</defs>
</svg>
