<svg width="84" height="12" viewBox="0 0 84 12" fill="none" xmlns="http://www.w3.org/2000/svg">
<g clip-path="url(#clip0_4_54561)">
<path fill-rule="evenodd" clip-rule="evenodd" d="M0.300049 6.26314L4.29457 6.05379L4.50391 10.0483L0.509393 10.2577L0.300049 6.26314Z" fill="white"/>
<path fill-rule="evenodd" clip-rule="evenodd" d="M0.300049 6.26314L1.63181 6.19334L1.84116 10.1879L0.509393 10.2577L0.300049 6.26314Z" fill="#009246"/>
<path fill-rule="evenodd" clip-rule="evenodd" d="M2.96277 6.12359L4.29453 6.05379L4.50388 10.0483L3.17211 10.1181L2.96277 6.12359Z" fill="#CE2B37"/>
</g>
<path d="M5.92125 5.96071L6.29359 6.0844L5.67135 7.85808L6.57915 9.49651L6.25022 9.68219L5.26095 7.89436L5.92125 5.96071ZM6.61454 5.89942L6.97094 6.02452L6.36465 7.7968L7.27244 9.43522L6.94351 9.62091L5.95425 7.83307L6.61454 5.89942Z" fill="white"/>
<path d="M7.85714 5.87654C8.12592 6.05019 8.3548 6.22664 8.54378 6.40588L8.28058 6.71301C8.11211 6.54035 7.88268 6.35592 7.59282 6.1677L7.85714 5.87654ZM7.40576 7.04691L8.32751 6.98239L8.44342 8.63834C8.55188 8.52649 8.66776 8.40611 8.79077 8.27319L8.93722 8.70402C8.69062 8.96187 8.42611 9.1929 8.14424 9.4051L7.95837 9.04119C8.02202 8.97659 8.05262 8.89826 8.04648 8.81048L7.94843 7.4099L7.43369 7.44594L7.40576 7.04691ZM8.86779 7.42574L10.815 7.28944L10.8416 7.66851C10.7539 8.01949 10.5912 8.33161 10.3535 8.60087C10.612 8.74316 10.9211 8.86187 11.2849 8.96071L11.0866 9.33547C10.6843 9.20323 10.3409 9.05085 10.0638 8.87376C9.76794 9.11501 9.40116 9.31712 8.95549 9.48064L8.69948 9.1457C9.10209 8.99722 9.43863 8.82129 9.71308 8.61763C9.43983 8.38013 9.24071 8.11338 9.12316 7.80885L8.89572 7.82477L8.86779 7.42574ZM9.5142 7.78147C9.61791 8.00277 9.77608 8.20021 9.99642 8.36923C10.1871 8.17144 10.3285 7.95704 10.424 7.71779L9.5142 7.78147ZM9.03102 5.86253L10.4675 5.76197L10.5253 6.58795C10.5315 6.67574 10.5827 6.72027 10.6825 6.71329L11.0256 6.68926L11.0522 7.06834L10.5973 7.10018C10.298 7.12113 10.1406 6.9918 10.121 6.71249L10.0839 6.18179L9.46939 6.2248L9.47693 6.33254C9.50598 6.74752 9.31314 7.08582 8.90581 7.33888L8.60415 7.03921C8.92955 6.87609 9.08717 6.66457 9.06901 6.4052L9.03102 5.86253Z" fill="white"/>
<path d="M12.6828 6.66789L13.7135 6.61595L13.6551 5.45742L14.0865 5.43568L14.1449 6.59421L15.1237 6.54489L15.1446 6.96037L14.1659 7.00968L14.2737 9.15097L13.8423 9.17271L13.7344 7.03142L12.7037 7.08336L12.6828 6.66789ZM11.9229 5.57674C12.1844 5.75981 12.41 5.9447 12.5995 6.12739L12.3265 6.43352C12.1655 6.2574 11.9359 6.07272 11.6418 5.87927L11.9229 5.57674ZM11.4258 6.75926L12.3766 6.71135L12.4607 8.38123C12.5715 8.27552 12.6897 8.15742 12.8153 8.02694L12.9447 8.44896C12.6971 8.70174 12.4324 8.93136 12.1464 9.13801L11.9677 8.77054C12.0366 8.70699 12.0689 8.63327 12.0647 8.54938L11.9932 7.13117L11.4459 7.15875L11.4258 6.75926Z" fill="white"/>
<path d="M15.6233 5.6929L17.3584 5.63767L17.3714 6.04547L16.8037 6.06354L16.827 6.79517L17.2308 6.78231L17.2376 6.99821C17.4706 6.52255 17.6207 5.95749 17.6918 5.2989L18.1051 5.33377C18.0794 5.53069 18.0494 5.71974 18.011 5.89705L19.1664 5.86027L19.1794 6.26807L18.9235 6.27621C18.9113 6.89691 18.7841 7.42923 18.5383 7.87728C18.7723 8.18999 19.0442 8.43346 19.3538 8.6037L19.1252 8.96716C18.8114 8.78905 18.5354 8.5417 18.3013 8.22899C18.0395 8.55348 17.7038 8.8203 17.2903 9.02956L17.0235 8.69388C17.4691 8.48759 17.8167 8.2164 18.062 7.87643C17.9057 7.61727 17.7683 7.32549 17.6539 7.00096C17.5788 7.15543 17.4994 7.30203 17.4158 7.44076L17.1993 7.17552L16.8394 7.18697L16.8673 8.06252C17.0494 8.0007 17.2276 7.939 17.3937 7.87769L17.4059 8.26149C16.9198 8.45305 16.3573 8.63504 15.7183 8.80345L15.5941 8.42321L15.8205 8.36798L15.763 6.56089L16.1508 6.54855L16.2054 8.26368C16.2966 8.23677 16.3839 8.21398 16.4671 8.18732L16.3999 6.07639L15.6363 6.10069L15.6233 5.6929ZM18.2818 7.48924C18.4385 7.13207 18.5179 6.73335 18.5197 6.28906L17.908 6.30853C17.8901 6.37313 17.872 6.43374 17.8538 6.49035C17.9738 6.86672 18.1165 7.19835 18.2818 7.48924Z" fill="white"/>
<path d="M19.6339 6.40278L21.2096 6.3739L21.2055 6.14994L21.5855 6.14298L21.3548 5.99918C21.5221 5.74007 21.6371 5.46992 21.7038 5.18064L22.1054 5.2613C22.0829 5.34173 22.0603 5.42215 22.0377 5.49458L23.1655 5.47391L23.1722 5.84185L22.5163 5.85387C22.5904 5.96453 22.6523 6.07141 22.7021 6.17052L22.3408 6.31716C22.2659 6.15851 22.1831 6.008 22.0924 5.86164L21.9004 5.86516C21.8428 5.99424 21.7809 6.11139 21.7109 6.22069L21.63 6.17016L21.6336 6.36613L23.2093 6.33725L23.2162 6.71319L21.6404 6.74207L21.6441 6.94204L22.9559 6.91799L22.9703 7.70186C22.9745 7.93382 22.8487 8.05215 22.5967 8.05677L22.3527 8.06124C22.6435 8.21193 22.9739 8.3379 23.3399 8.44321L23.1269 8.82718C22.5632 8.62948 22.0781 8.35432 21.6637 8.00986L21.6805 8.9297L21.2566 8.93747L21.24 8.03362C20.8547 8.40075 20.416 8.69283 19.9278 8.90581L19.673 8.53842C20.281 8.31524 20.7995 8.00969 21.2324 7.61769L21.2268 7.31374L20.395 7.32899L20.4088 8.08086L19.9968 8.08841L19.9764 6.9726L21.2202 6.9498L21.2165 6.74984L19.6408 6.77872L19.6339 6.40278ZM21.6565 7.61792C21.8514 7.77438 22.0701 7.91839 22.3204 8.04583L22.214 7.69572L22.4743 7.71095C22.5263 7.71 22.5537 7.67749 22.5527 7.6215L22.5466 7.28956L21.6508 7.30597L21.6565 7.61792ZM20.2167 5.89602C20.1352 6.03353 20.0456 6.1632 19.9478 6.28501L19.5837 6.06364C19.8188 5.79529 19.9856 5.50819 20.08 5.2064L20.4816 5.28706C20.4551 5.36756 20.4245 5.44813 20.3939 5.52471L21.3218 5.5077L21.3285 5.87564L20.7766 5.88575C20.8506 5.99642 20.9166 6.10322 20.9705 6.20625L20.5971 6.35312C20.5222 6.19447 20.4394 6.03996 20.3487 5.8936L20.2167 5.89602Z" fill="white"/>
<path d="M24.1181 6.03127C24.056 6.17609 23.9815 6.29306 23.8988 6.39014L23.5557 6.15456C23.737 5.9482 23.8534 5.66267 23.9006 5.29803L24.2934 5.35695C24.2788 5.46115 24.26 5.5574 24.2372 5.6457L24.5571 5.64156L24.5511 5.1776L24.9671 5.17222L24.9731 5.63618L25.6731 5.62713L25.678 6.0111L24.9781 6.02015L24.9831 6.41212L25.7991 6.40157L25.8041 6.78954L24.9882 6.80009L24.9921 7.10406L25.76 7.09413L25.7739 8.16604C25.7774 8.43802 25.6352 8.57987 25.3513 8.58354L25.1593 8.58602L25.0503 8.1994L25.2185 8.21723C25.3225 8.21588 25.3779 8.17116 25.3768 8.08317L25.369 7.48322L24.9971 7.48803L25.0149 8.86392L24.5989 8.86929L24.5811 7.49341L24.2131 7.49817L24.2277 8.62607L23.8237 8.6313L23.8042 7.11942L24.5761 7.10944L24.5722 6.80547L23.6523 6.81736L23.6473 6.4294L24.5672 6.4175L24.5621 6.02553L24.1181 6.03127ZM25.9597 5.52342L26.3637 5.51819L26.3953 7.95799L25.9913 7.96321L25.9597 5.52342ZM26.7862 8.805L26.1903 8.81271L26.0932 8.41793C26.2854 8.43145 26.4655 8.43712 26.6374 8.4349C26.7334 8.43366 26.7808 8.38104 26.7794 8.27705L26.739 5.15331L27.155 5.14793L27.1968 8.37966C27.2004 8.65964 27.0622 8.80143 26.7862 8.805Z" fill="white"/>
<path d="M28.943 5.29825L31.2987 5.25949L31.3053 5.66344L30.5095 5.67653L30.5533 8.34017C30.5579 8.62014 30.4163 8.76649 30.1363 8.77109L29.6004 8.77991L29.5017 8.37348C29.6699 8.38671 29.8301 8.39608 29.9861 8.39351C30.0821 8.39193 30.1292 8.33915 30.1276 8.24316L30.0855 5.68351L28.9497 5.7022L28.943 5.29825ZM28.1364 5.1475C28.3916 5.33933 28.6108 5.53175 28.794 5.72076L28.5108 6.01746C28.3558 5.83599 28.1326 5.64363 27.8452 5.44034L28.1364 5.1475ZM27.5995 6.3125L28.5514 6.29683L28.5792 7.9846C28.7054 7.87851 28.8395 7.76029 28.9813 7.62594L29.1005 8.06004C28.8325 8.30448 28.544 8.52126 28.2391 8.7143L28.073 8.34098C28.144 8.2798 28.1788 8.20722 28.1774 8.12323L28.154 6.70343L27.6061 6.71244L27.5995 6.3125Z" fill="white"/>
<path d="M32.3251 5.82701C32.4131 5.82467 32.4858 5.85074 32.5515 5.91302C32.6131 5.9714 32.6471 6.04652 32.6494 6.13449C32.6518 6.22246 32.6217 6.29529 32.5633 6.35686C32.5009 6.41854 32.4298 6.45245 32.3418 6.45479C32.2539 6.45713 32.177 6.42717 32.1155 6.36879C32.0539 6.3104 32.024 6.23918 32.0216 6.15121C32.0193 6.06324 32.0453 5.98652 32.1036 5.92494C32.1619 5.85937 32.2371 5.82936 32.3251 5.82701ZM32.3641 7.29049C32.452 7.28815 32.5248 7.31423 32.5905 7.3765C32.652 7.43488 32.686 7.51 32.6884 7.59797C32.6907 7.68594 32.6607 7.75877 32.6023 7.82034C32.5399 7.88202 32.4688 7.91593 32.3808 7.91827C32.2928 7.92061 32.216 7.89065 32.1544 7.83227C32.0929 7.77389 32.0629 7.70266 32.0606 7.61469C32.0583 7.52672 32.0842 7.45 32.1426 7.38842C32.2009 7.32285 32.2761 7.29284 32.3641 7.29049Z" fill="white"/>
<path d="M35.9152 4.99574C36.1788 5.17725 36.4023 5.36038 36.5859 5.54512L36.3138 5.84435C36.1505 5.66679 35.9266 5.47568 35.6424 5.27899L35.9152 4.99574ZM35.4295 6.15229L36.3528 6.11499L36.4198 7.77364C36.5315 7.66504 36.6508 7.54813 36.7777 7.4189L36.9114 7.85386C36.6573 8.10432 36.3861 8.32745 36.0981 8.53124L35.923 8.16201C35.9886 8.09931 36.0215 8.02192 36.0179 7.93399L35.9612 6.53114L35.4457 6.55197L35.4295 6.15229ZM36.8797 6.5741L38.8301 6.4953L38.8455 6.87499C38.7474 7.22323 38.5757 7.53041 38.3301 7.79254C38.5843 7.9424 38.8897 8.07018 39.2505 8.17971L39.0412 8.54845C38.643 8.40441 38.3042 8.24195 38.0325 8.05677C37.7296 8.28919 37.3571 8.48038 36.9068 8.63068L36.6607 8.28833C37.0676 8.1518 37.4091 7.98588 37.6895 7.7904C37.4233 7.54494 37.2322 7.27244 37.1237 6.96457L36.8959 6.97377L36.8797 6.5741ZM37.5154 6.94874C37.6125 7.17301 37.7648 7.37502 37.98 7.55048C38.1764 7.35839 38.3241 7.14826 38.4266 6.91193L37.5154 6.94874ZM37.089 5.01638L38.5278 4.95825L38.5613 5.78558C38.5648 5.8735 38.6147 5.91953 38.7146 5.91549L39.0583 5.9016L39.0737 6.28129L38.6181 6.2997C38.3183 6.31181 38.1648 6.1779 38.1535 5.89813L38.132 5.36656L37.5165 5.39143L37.5209 5.49934C37.5376 5.915 37.3349 6.24746 36.9203 6.48839L36.6276 6.17995C36.9577 6.0265 37.1215 5.81972 37.111 5.55993L37.089 5.01638Z" fill="white"/>
<path d="M40.751 5.8808L41.7813 5.82292L41.7163 4.66475L42.1476 4.64052L42.2127 5.79869L43.1911 5.74373L43.2144 6.15907L42.236 6.21404L42.3562 8.35466L41.9249 8.37889L41.8047 6.23827L40.7743 6.29615L40.751 5.8808ZM39.9848 4.79406C40.2474 4.97562 40.4741 5.1592 40.6645 5.3408L40.3934 5.64849C40.2313 5.47331 40.0006 5.28996 39.7054 5.09821L39.9848 4.79406ZM39.4945 5.97943L40.445 5.92603L40.5388 7.5954C40.649 7.48905 40.7665 7.37027 40.8914 7.23907L41.0232 7.66033C40.7771 7.91454 40.5136 8.14568 40.2289 8.35398L40.048 7.98754C40.1165 7.9236 40.1484 7.8497 40.1437 7.76583L40.0641 6.34806L39.517 6.3788L39.4945 5.97943Z" fill="white"/>
<path d="M43.5629 4.88544L45.2939 4.7532L45.325 5.16001L44.7586 5.20328L44.8144 5.93316L45.2172 5.90238L45.2337 6.11775C45.4453 5.63222 45.5701 5.06105 45.6119 4.39995L46.0264 4.41642C46.0094 4.61429 45.9878 4.80449 45.9573 4.98333L47.11 4.89527L47.1411 5.30208L46.8858 5.32158C46.9011 5.94222 46.7978 6.47965 46.5721 6.93818C46.8198 7.24019 47.1022 7.47135 47.419 7.62766L47.2069 8.00091C46.8854 7.83692 46.5987 7.60208 46.351 7.30007C46.1038 7.63588 45.7803 7.91734 45.3765 8.14476L45.095 7.82126C45.5311 7.59539 45.8663 7.30903 46.0962 6.95849C45.9285 6.70653 45.7784 6.42114 45.6497 6.10202C45.5815 6.25967 45.5087 6.40965 45.4313 6.55196L45.2032 6.29659L44.8442 6.32402L44.911 7.19747C45.0902 7.12762 45.2654 7.05807 45.4286 6.98943L45.4579 7.37232C44.9807 7.58529 44.4269 7.79208 43.796 7.98871L43.6551 7.61435L43.8788 7.54912L43.741 5.74638L44.1279 5.71682L44.2586 7.42784C44.3485 7.3969 44.4348 7.37025 44.5167 7.33992L44.3558 5.23406L43.594 5.29226L43.5629 4.88544ZM46.2986 6.56192C46.4393 6.19815 46.5009 5.79629 46.483 5.35236L45.8728 5.39898C45.8577 5.46432 45.8423 5.52567 45.8267 5.58303C45.9633 5.9537 46.1205 6.27866 46.2986 6.56192Z" fill="white"/>
<path d="M47.4823 5.41787L49.0512 5.26834L49.0299 5.04535L49.4082 5.0093L49.1672 4.8836C49.3141 4.61244 49.4081 4.33426 49.4525 4.04073L49.859 4.09038C49.8427 4.1723 49.8264 4.25422 49.8094 4.32817L50.9323 4.22115L50.9672 4.58749L50.3142 4.64973C50.3965 4.75439 50.4664 4.85621 50.5237 4.95121L50.1746 5.12511C50.0878 4.97266 49.9937 4.82894 49.8921 4.68995L49.7009 4.70817C49.6534 4.84128 49.6006 4.96283 49.5392 5.07718L49.4546 5.033L49.4732 5.22812L51.0421 5.07859L51.0778 5.4529L49.5089 5.60242L49.5279 5.80152L50.834 5.67704L50.9084 6.45751C50.9304 6.68846 50.8139 6.81608 50.5631 6.83999L50.3202 6.86314C50.6217 6.99111 50.9607 7.0914 51.3337 7.16836L51.1508 7.56752C50.5736 7.41358 50.0688 7.17641 49.6292 6.8647L49.7165 7.78055L49.2944 7.82078L49.2086 6.92086C48.8526 7.31642 48.4375 7.64127 47.9671 7.89103L47.6849 7.54423C48.274 7.27513 48.7676 6.93075 49.1692 6.50673L49.1403 6.2041L48.3121 6.28304L48.3834 7.03165L47.9733 7.07074L47.8674 5.95977L49.1058 5.84175L49.0868 5.64265L47.5179 5.79217L47.4823 5.41787ZM49.592 6.47447C49.7983 6.61553 50.0274 6.74237 50.2868 6.85025L50.1539 6.50932L50.4146 6.50457C50.4664 6.49963 50.4912 6.46512 50.4859 6.40937L50.4544 6.07887L49.5624 6.16388L49.592 6.47447ZM48.0245 4.86794C47.9538 5.01129 47.8744 5.14745 47.7862 5.27639L47.4062 5.08358C47.6201 4.798 47.7644 4.49896 47.8354 4.19082L48.242 4.24048C48.2217 4.32277 48.1974 4.40545 48.1728 4.48414L49.0966 4.3961L49.1315 4.76244L48.582 4.81481C48.6643 4.91947 48.7383 5.02091 48.7999 5.11951L48.4389 5.29455C48.352 5.14211 48.2576 4.9944 48.1559 4.85542L48.0245 4.86794Z" fill="white"/>
<path d="M51.8885 5.48266C51.8072 5.62047 51.7211 5.75077 51.6309 5.88151L51.4424 5.45168C51.7499 4.95876 51.9611 4.39603 52.0681 3.76437L52.478 3.90401C52.4236 4.21189 52.3397 4.50695 52.2265 4.79317L52.5257 7.48863L52.1162 7.53407L51.8885 5.48266ZM52.4223 4.23618L53.5633 4.10956C53.4975 3.98808 53.4286 3.87499 53.3557 3.76234L53.7414 3.61088C53.8399 3.773 53.9171 3.92541 53.9728 4.06412L55.0422 3.94544L55.0854 4.33505L52.4655 4.62579L52.4223 4.23618ZM52.8467 4.79679L54.7749 4.58282L54.8159 4.95255L52.8877 5.16652L52.8467 4.79679ZM52.9089 5.35735L54.8371 5.14337L54.8786 5.51708L52.9504 5.73106L52.9089 5.35735ZM54.9903 5.72603L55.1526 7.18905L54.7511 7.23361L54.7291 7.03483L53.429 7.1791L53.4511 7.37788L53.0456 7.42288L52.8832 5.95986L54.9903 5.72603ZM53.3854 6.78551L54.6854 6.64125L54.6316 6.15622L53.3315 6.30049L53.3854 6.78551Z" fill="white"/>
<path d="M55.8608 3.3871L56.2699 3.33804L56.3547 4.04498L56.7717 3.99497L56.8198 4.39609L56.4028 4.4461L56.4313 4.6844C56.6359 4.84518 56.8469 5.02534 57.0642 5.22489L56.8723 5.60646C56.7253 5.42264 56.5981 5.2687 56.4866 5.1451L56.7095 7.00378L56.3004 7.05283L56.0932 5.32521C56.0173 5.63244 55.9196 5.92617 55.7991 6.19845L55.5661 5.76712C55.7819 5.3827 55.9244 4.95871 55.9897 4.49564L55.5529 4.54803L55.5048 4.1469L55.9456 4.09403L55.8608 3.3871ZM57.2531 5.05317L57.6404 5.09133C57.584 5.66211 57.4664 6.15965 57.2846 6.59237L56.8956 6.40537C57.0892 5.97122 57.2086 5.52181 57.2531 5.05317ZM58.8136 4.82978C59.0179 5.25649 59.21 5.71688 59.3822 6.21191L59.0214 6.4284C58.8356 5.88668 58.6499 5.41342 58.4595 5.00116L58.8136 4.82978ZM58.0744 6.79578L57.6733 6.84388L57.5397 6.46912C57.6648 6.47024 57.7809 6.46437 57.8921 6.45104C57.9834 6.44008 58.0244 6.37876 58.012 6.2755L57.8244 4.71072L56.903 4.82121L56.8554 4.42406L59.1191 4.15258L59.1668 4.54973L58.2374 4.66118L58.4375 6.32923C58.4708 6.60724 58.3485 6.76291 58.0744 6.79578ZM56.9476 3.44612L58.7983 3.22418L58.8455 3.61736L56.9947 3.8393L56.9476 3.44612Z" fill="white"/>
<path d="M60.2441 3.63603C60.3315 3.6256 60.4063 3.64486 60.4774 3.70082C60.5441 3.75328 60.5849 3.82495 60.5953 3.91233C60.6058 3.99971 60.5825 4.075 60.5301 4.14169C60.4736 4.20886 60.4059 4.24917 60.3185 4.2596C60.2312 4.27004 60.1519 4.24728 60.0852 4.19482C60.0185 4.14235 59.9822 4.07418 59.9718 3.9868C59.9613 3.89942 59.9801 3.82064 60.0326 3.75395C60.0846 3.68328 60.1567 3.64647 60.2441 3.63603ZM60.4177 5.0897C60.5051 5.07927 60.5799 5.09853 60.651 5.15449C60.7177 5.20695 60.7585 5.27862 60.7689 5.366C60.7794 5.45338 60.7561 5.52867 60.7037 5.59536C60.6472 5.66253 60.5795 5.70284 60.4922 5.71327C60.4048 5.72371 60.3255 5.70095 60.2588 5.64849C60.1921 5.59602 60.1558 5.52785 60.1454 5.44047C60.1349 5.35309 60.1537 5.27431 60.2062 5.20762C60.2582 5.13695 60.3303 5.10014 60.4177 5.0897Z" fill="white"/>
<path d="M64.5424 2.41694L64.9241 2.59671C64.7766 2.94269 64.6191 3.23343 64.4547 3.46054C64.2943 3.68722 64.0565 3.94243 63.7338 4.23102L63.4669 3.88586C63.6988 3.72384 63.9166 3.50701 64.112 3.23226C64.2685 3.00601 64.4122 2.73689 64.5424 2.41694ZM64.8531 4.27423L64.1373 4.3521L64.0936 3.95047L66.5113 3.68745C66.5517 4.20613 66.5728 4.62229 66.5676 4.94474C66.5625 5.26719 66.5227 5.49282 66.4411 5.63045C66.3626 5.75969 66.2228 5.8433 66.0213 5.87729L65.2578 5.96035L65.1019 5.56288C65.3374 5.54531 65.5609 5.52904 65.7677 5.50654C65.9626 5.48535 66.0807 5.388 66.127 5.22201C66.1725 5.04808 66.1773 4.68543 66.1335 4.13494L65.2746 4.22838C65.2272 4.64393 65.139 4.97944 65.0063 5.23932C64.8311 5.5521 64.5535 5.84786 64.173 6.12262L63.8649 5.80608C64.2021 5.57627 64.4495 5.3361 64.6074 5.08556C64.7249 4.87159 64.8081 4.60101 64.8531 4.27423ZM65.7819 2.23382C66.061 2.80296 66.5137 3.2285 67.1394 3.50646L66.893 3.86723C66.2378 3.54017 65.753 3.07789 65.4421 2.47599L65.7819 2.23382Z" fill="white"/>
<path d="M68.5185 3.69815L68.6919 5.63038L68.2816 5.66722L68.1178 3.84255C68.0283 4.18793 67.9044 4.50829 67.7506 4.80724L67.5302 4.36518C67.7739 3.9939 67.9417 3.58125 68.0295 3.12758L67.5196 3.17335L67.4834 2.77097L68.0173 2.72305L67.9511 1.98602L68.3615 1.94918L68.4277 2.68622L68.9217 2.64188L68.9578 3.04426L68.4638 3.0886L68.4781 3.24796C68.6778 3.41478 68.8746 3.5939 69.0728 3.78896L68.8758 4.144C68.7391 3.96349 68.6172 3.81379 68.5185 3.69815ZM70.6965 1.74362L70.9333 2.09987C70.5039 2.28299 70.0178 2.41498 69.4748 2.49584L69.5277 3.08547L71.1014 2.94422L71.1375 3.34661L70.5917 3.3956L70.7755 5.44336L70.3572 5.48091L70.1734 3.43314L69.5639 3.48785C69.6082 4.3393 69.4618 5.03518 69.1287 5.57511L68.8057 5.28684C69.0868 4.83991 69.2059 4.24288 69.163 3.49573L69.0446 2.17703C69.6726 2.10459 70.2222 1.9629 70.6965 1.74362Z" fill="white"/>
<path d="M73.0672 2.24347L71.7421 2.33063L71.7158 1.93149L74.7932 1.72907L74.8194 2.12821L73.4903 2.21564L73.6473 4.60248L75.2199 4.49904L75.2464 4.90217L71.6741 5.13714L71.6476 4.73401L73.2242 4.63031L73.0672 2.24347Z" fill="white"/>
<path d="M78.4229 1.42212L78.5218 3.86012L79.0493 3.83872L79.0651 4.2264L78.1578 4.2632C78.4782 4.3663 78.7754 4.48636 79.053 4.61922L78.8359 4.99232C78.4387 4.77224 78.0355 4.60444 77.6303 4.48476L77.7581 4.27941L76.715 4.32172L76.9178 4.48564C76.6191 4.72193 76.2474 4.93317 75.8027 5.12335L75.5333 4.798C75.8878 4.65552 76.1939 4.50299 76.4512 4.33242L75.484 4.37165L75.4683 3.98397L75.9958 3.96257L75.897 1.52457L78.4229 1.42212ZM76.4155 3.94555L78.1021 3.87714L78.0913 3.60936L76.4046 3.67777L76.4155 3.94555ZM76.3913 3.35004L78.078 3.28163L78.0669 3.00985L76.3803 3.07826L76.3913 3.35004ZM76.367 2.75053L78.0536 2.68212L78.0425 2.40635L76.3558 2.47476L76.367 2.75053ZM76.3427 2.15102L78.0293 2.08262L78.0191 1.83082L76.3325 1.89923L76.3427 2.15102Z" fill="white"/>
<path d="M79.7927 1.23632L80.6498 3.09115L79.8512 4.97186L79.5048 4.82126L80.2379 3.09759L79.4512 1.39768L79.7927 1.23632ZM80.4887 1.22544L81.3458 3.08027L80.5471 4.96098L80.2007 4.81038L80.9338 3.08671L80.1311 1.38705L80.4887 1.22544Z" fill="white"/>
<defs>
<clipPath id="clip0_4_54561">
<rect x="0.300049" y="6.26314" width="4" height="4" rx="2" transform="rotate(-3 0.300049 6.26314)" fill="white"/>
</clipPath>
</defs>
</svg>
