<svg width="59" height="13" viewBox="0 0 59 13" fill="none" xmlns="http://www.w3.org/2000/svg">
<path d="M4.79974 5.73069L5.19108 5.75875L5.02541 7.6311L6.30918 8.99509L6.03619 9.25615L4.63663 7.76745L4.79974 5.73069ZM5.45651 5.50034L5.83276 5.5337L5.68219 7.40075L6.96596 8.76474L6.69297 9.0258L5.2934 7.5371L5.45651 5.50034Z" fill="white"/>
<path d="M6.76655 5.08399L7.1534 4.95434L7.35932 5.56875L8.05717 5.33487L8.17919 5.69896L7.48134 5.93284L7.67963 6.5245L8.25612 6.33129L8.73405 7.75734C8.95377 7.53183 9.13424 7.27728 9.27797 6.98865C9.19304 6.87368 9.10935 6.74986 9.02058 6.61086C8.91151 6.43648 8.80113 6.23301 8.69449 5.99032L8.23826 6.24025L8.06062 5.89901L8.53833 5.63766C8.41134 5.33429 8.28429 4.99297 8.15719 4.6137L8.53645 4.4866C8.66227 4.84942 8.78169 5.16798 8.89471 5.44229L9.80085 4.94876L9.9785 5.29L9.04456 5.80128C9.14866 6.03638 9.24258 6.22849 9.33389 6.37508C9.37449 6.44584 9.4176 6.51155 9.45438 6.57094C9.54753 6.29504 9.61662 5.99767 9.65784 5.68011L10.0337 5.78196C9.96483 6.21846 9.86301 6.60696 9.72821 6.94744C9.77891 7.0106 9.83086 7.06491 9.879 7.10784C10.0323 7.23787 10.1323 7.29716 10.1778 7.28191C10.2309 7.26411 10.2306 7.07438 10.1744 6.71776L10.5527 6.78925C10.6307 7.33683 10.5768 7.64176 10.3872 7.70531C10.2355 7.75616 10.0381 7.69576 9.79999 7.52665C9.71768 7.46987 9.63535 7.40043 9.55679 7.31707C9.38276 7.64117 9.17322 7.90968 8.92438 8.12385L8.62045 7.90931L7.69125 8.22073L7.77768 8.47863L7.39842 8.60574L6.79973 6.81939L7.29278 6.65415L6.76655 5.08399ZM7.5705 7.86043L8.27214 7.62527L8.00267 6.82123L7.30102 7.05638L7.5705 7.86043ZM8.98159 4.41756C9.2234 4.54746 9.41966 4.6673 9.5653 4.77458L9.34063 5.07347C9.1899 4.95102 8.9949 4.82232 8.7594 4.68609L8.98159 4.41756Z" fill="white"/>
<path d="M13.8681 5.14162C13.5623 5.08346 13.2891 5.00818 13.0466 4.90805C12.8732 5.12485 12.6647 5.33457 12.4201 5.53333L13.8681 5.14162ZM12.3551 5.58407C12.3207 5.60996 12.2862 5.63585 12.2557 5.6607L12.0665 5.51296L12.4123 6.79102L12.0725 6.88294L12.0338 6.74008L11.362 6.92183L11.4006 7.0647L11.0377 7.16288L10.2271 4.16659L11.6017 3.79473L11.7824 4.46272C11.9419 4.17923 12.0545 3.82969 12.1154 3.41128L12.5399 3.38759C12.5233 3.47912 12.5094 3.56575 12.4955 3.65237L13.4879 3.38392L13.5714 3.69281C13.5329 4.00988 13.4281 4.31173 13.257 4.59835C13.5245 4.68345 13.8215 4.73984 14.1442 4.76856L14.0676 5.17466C14.0161 5.16789 13.9645 5.16112 13.9196 5.1484L14.3145 6.60793L13.9206 6.71448L13.882 6.57161L13.102 6.78261L13.1407 6.92548L12.7468 7.03202L12.3551 5.58407ZM11.8211 4.60558L12.0195 5.33921C12.2816 5.14399 12.5038 4.93886 12.6793 4.72978C12.5223 4.63964 12.3807 4.54533 12.2575 4.44194C12.2035 4.56426 12.1426 4.67605 12.0807 4.78398L11.8211 4.60558ZM12.8805 4.44742C12.9925 4.26382 13.0742 4.07595 13.1269 3.88766L12.3855 4.08822C12.3838 4.09699 12.381 4.10189 12.382 4.10575C12.5263 4.24077 12.6934 4.35302 12.8805 4.44742ZM13.0007 6.40808L13.7807 6.19707L13.6219 5.61017L12.8419 5.82117L13.0007 6.40808ZM11.9398 6.39257L11.6912 5.4736L11.5098 5.5227L11.7584 6.44166L11.9398 6.39257ZM11.5972 5.12609L11.3611 4.25346L11.1797 4.30256L11.4157 5.17519L11.5972 5.12609ZM10.8631 4.38821L10.6893 4.43522L10.9254 5.30785L11.0991 5.26084L10.8631 4.38821ZM11.0194 5.65536L11.268 6.57432L11.4417 6.52732L11.1931 5.60835L11.0194 5.65536Z" fill="white"/>
<path d="M14.6758 2.83471C14.9598 2.98215 15.2044 3.13615 15.4095 3.2967L15.1765 3.62736C14.9925 3.47142 14.7466 3.30953 14.4403 3.14959L14.6758 2.83471ZM14.3372 4.04255L15.2487 3.89109L15.5209 5.52864C15.6182 5.40703 15.7222 5.27622 15.8321 5.13226L16.0186 5.54729C15.7976 5.82732 15.5561 6.08235 15.2956 6.32027L15.0761 5.97559C15.1333 5.90525 15.1564 5.82438 15.142 5.73757L14.9118 4.35256L14.4028 4.43714L14.3372 4.04255ZM15.8286 4.28133L17.7541 3.96135L17.8164 4.33621C17.7623 4.69392 17.63 5.02002 17.4188 5.31058C17.6897 5.42776 18.0085 5.51669 18.3801 5.58066L18.2181 5.97251C17.8052 5.87893 17.4488 5.75973 17.1563 5.60966C16.8845 5.87782 16.5385 6.11373 16.1103 6.3187L15.8238 6.00949C16.2105 5.82358 16.5289 5.61659 16.7828 5.38787C16.4883 5.17729 16.2649 4.93059 16.119 4.63854L15.8941 4.67592L15.8286 4.28133ZM16.5057 4.57429C16.6299 4.78478 16.8061 4.96636 17.0414 5.11377C17.2125 4.89882 17.3329 4.67201 17.4054 4.42479L16.5057 4.57429ZM15.8431 2.70968L17.2636 2.47363L17.3994 3.29043C17.4138 3.37724 17.469 3.41673 17.5677 3.40033L17.907 3.34395L17.9693 3.71881L17.5195 3.79355C17.2235 3.84273 17.0546 3.72888 17.0087 3.45267L16.9215 2.92787L16.3138 3.02884L16.3315 3.13538C16.3997 3.54575 16.2397 3.90078 15.8582 4.19125L15.5295 3.92148C15.838 3.72829 15.9749 3.5028 15.9323 3.24632L15.8431 2.70968Z" fill="white"/>
<path d="M19.6221 3.25549L20.6503 3.16732L20.5512 2.01156L20.9816 1.97466L21.0807 3.13042L22.0571 3.0467L22.0927 3.46118L21.1163 3.5449L21.2994 5.68106L20.869 5.71797L20.6858 3.5818L19.6576 3.66997L19.6221 3.25549ZM18.8243 2.19175C19.0921 2.36551 19.3241 2.54234 19.5198 2.71826L19.2578 3.0338C19.0906 2.86345 18.8547 2.68697 18.554 2.50399L18.8243 2.19175ZM18.3691 3.39103L19.3176 3.3097L19.4604 4.97559C19.5675 4.86604 19.6814 4.74386 19.8024 4.60903L19.9465 5.02624C19.708 5.28758 19.4515 5.52637 19.1729 5.74295L18.9814 5.38199C19.048 5.31606 19.0777 5.24125 19.0706 5.15756L18.9492 3.74275L18.4032 3.78956L18.3691 3.39103Z" fill="white"/>
<path d="M23.2735 4.98892L24.9159 4.91834C25.12 4.35707 25.2908 3.6731 25.4283 2.86646L25.8489 2.96449C25.7276 3.68236 25.5671 4.32585 25.3675 4.89894L26.1308 4.86615L26.1483 5.27377L23.291 5.39654L23.2735 4.98892ZM23.7143 3.13628C23.8924 3.55302 24.053 4.03057 24.2045 4.57257L23.8133 4.69347C23.6879 4.1984 23.5394 3.72433 23.3598 3.27163L23.7143 3.13628ZM24.4651 2.81176C24.6199 3.24551 24.7652 3.73973 24.8973 4.29857L24.506 4.41548C24.3961 3.90773 24.2669 3.41682 24.1106 2.9471L24.4651 2.81176ZM24.4481 1.76352C24.5128 1.87284 24.5783 1.99815 24.6402 2.13561L26.0709 2.07414L26.0883 2.47777L23.175 2.60295L23.21 3.41819C23.2361 4.30589 23.1388 5.02273 22.922 5.56854L22.5528 5.26811C22.7339 4.82393 22.8117 4.21202 22.7864 3.43639L22.734 2.21752L24.1767 2.15553C24.1161 2.05004 24.0518 1.9527 23.984 1.86354L24.4481 1.76352Z" fill="white"/>
<path d="M27.3011 3.19192L27.2989 3.76792L28.1789 3.77137L28.1811 3.19537L27.3011 3.19192ZM27.2774 4.15184C27.2234 4.64763 27.0738 5.06305 26.8285 5.39009L26.5096 5.10084C26.747 4.76577 26.8686 4.33824 26.8787 3.81827L26.8864 1.83829L29.9864 1.85043L29.9746 4.87041C29.9734 5.1784 29.8128 5.33378 29.4968 5.33254L29.0368 5.33074L28.9264 4.9223C29.0863 4.93893 29.2303 4.94749 29.3663 4.94802C29.4863 4.94849 29.5506 4.86875 29.5512 4.71675L29.5533 4.16075L28.6014 4.15702L28.5969 5.28501L28.1729 5.28335L28.1774 4.15536L27.2774 4.15184ZM29.5548 3.77675L29.5571 3.20076L28.6051 3.19703L28.6029 3.77303L29.5548 3.77675ZM29.5586 2.81676L29.5608 2.25677L28.6088 2.25304L28.6066 2.81303L29.5586 2.81676ZM28.1848 2.25138L27.3048 2.24793L27.3026 2.80793L28.1826 2.81137L28.1848 2.25138Z" fill="white"/>
<path d="M33.3961 2.40374L32.9006 2.38271L32.8589 3.36582L33.3544 3.38685L33.3961 2.40374ZM33.3373 3.79049L32.8377 3.76929C32.7638 4.56687 32.503 5.14834 32.0631 5.51401L31.7592 5.22087C32.1444 4.91693 32.3693 4.43002 32.4301 3.75199L32.0424 3.73554L32.0596 3.3319L32.4512 3.34852L32.4929 2.36541L32.1892 2.35252L32.2058 1.96087L34.1361 2.04278L34.1195 2.43443L33.7998 2.42087L33.758 3.40398L34.1897 3.4223L34.1725 3.82593L33.7409 3.80762L33.6665 5.56204L33.2628 5.54491L33.3373 3.79049ZM31.0532 2.32833L30.6256 2.31019L30.6426 1.91055L32.0653 1.97092L32.0483 2.37056L31.4489 2.34512C31.385 2.62267 31.3021 2.87938 31.1996 3.12326L31.907 3.15327L31.8258 5.06755L31.1464 5.03872L31.1343 5.32247L30.7507 5.30618L30.8136 3.82352C30.7539 3.90907 30.6904 3.99045 30.6311 4.068L30.4265 3.699C30.7239 3.29524 30.9354 2.8398 31.0532 2.32833ZM31.1618 4.67505L31.4576 4.6876L31.5078 3.50466L31.212 3.49211L31.1618 4.67505Z" fill="white"/>
<path d="M36.911 2.92162C37.3104 3.1496 37.6747 3.41495 37.9957 3.72103L37.7412 4.05011C37.4027 3.71056 37.0473 3.43387 36.6789 3.22036L36.911 2.92162ZM36.031 2.83644L36.2593 3.14728C35.8959 3.43169 35.4651 3.65463 34.9666 3.8201L34.8206 3.43147C35.305 3.29298 35.7056 3.09575 36.031 2.83644ZM36.6338 2.05726C36.6735 2.1647 36.7083 2.28379 36.7422 2.41484L38.1937 2.52888L38.1257 3.39421L37.711 3.36163L37.7489 2.87911L35.2446 2.68238L35.207 3.1609L34.7923 3.12832L34.86 2.26697L36.2915 2.37944C36.2512 2.27998 36.2106 2.1845 36.1656 2.0927L36.6338 2.05726ZM35.9464 3.50386L36.3651 3.53676L36.3369 3.89565C36.3298 3.93522 36.3233 3.96681 36.3208 3.99871L37.3457 4.07922L37.2482 5.3194C37.2442 5.37124 37.2699 5.40135 37.3297 5.40605L37.5809 5.42578C37.6607 5.43205 37.7067 5.40758 37.7271 5.353C37.7516 5.19444 37.7727 5.02758 37.7865 4.85212L38.1602 4.99784C38.1007 5.34625 38.0559 5.55939 38.0257 5.63727C37.9666 5.77707 37.8094 5.83694 37.5542 5.81689L37.2392 5.79214C36.9441 5.76896 36.8112 5.6221 36.8322 5.35492L36.9042 4.43775L36.2343 4.38512C36.1489 4.65526 36.023 4.87809 35.8604 5.0579C35.6112 5.31919 35.2238 5.5014 34.7014 5.61283L34.506 5.24038C35.0124 5.1277 35.3657 4.97089 35.5584 4.76535C35.6562 4.64464 35.7392 4.50672 35.7996 4.35097L34.8665 4.27766L34.8972 3.88687L35.9021 3.96581L35.9182 3.86276L35.9464 3.50386Z" fill="white"/>
<path d="M40.0505 3.94257L40.0032 4.35587C39.8608 4.40399 39.7145 4.45166 39.5725 4.4958L39.4443 5.61649C39.4133 5.88673 39.2623 6.01035 39 5.98033L38.6225 5.93713L38.5726 5.5288C38.686 5.55789 38.792 5.58209 38.8953 5.59392C38.9827 5.60392 39.0359 5.56169 39.0468 5.46632L39.1446 4.61189C38.9704 4.65638 38.7931 4.69246 38.6203 4.72502L38.5638 4.30386C38.7755 4.2838 38.9845 4.25136 39.191 4.20654L39.2837 3.39583L38.7552 3.33534L38.8002 2.94191L39.3288 3.0024L39.4061 2.32681L39.8154 2.37366L39.7381 3.04925L40.1395 3.09519L40.0944 3.48862L39.6931 3.44268L39.6185 4.09443C39.7609 4.0463 39.9072 3.99864 40.0505 3.94257ZM40.5425 4.39343L40.3414 6.14996L39.948 6.10493L40.3546 2.55213L42.2224 2.76589C42.1678 3.24278 42.1032 3.5615 42.0333 3.71455C41.9604 3.85919 41.7888 3.91605 41.5186 3.88512L41.2166 3.85056L41.1458 3.48413C41.2054 3.49095 41.2804 3.50357 41.3718 3.51403C41.4632 3.52449 41.5313 3.52825 41.5799 3.52576C41.621 3.51838 41.6595 3.49863 41.6878 3.46162C41.7176 3.41269 41.7516 3.29177 41.7823 3.09397L40.7053 2.97072L40.5857 4.01589L42.0839 4.18736L42.043 4.54503C41.9374 4.93958 41.7746 5.27123 41.5551 5.53598C41.7162 5.71144 41.9105 5.87861 42.1379 6.0375L41.8228 6.32756C41.6127 6.15857 41.4353 5.98527 41.2865 5.8072C41.0824 5.97306 40.8505 6.09952 40.5904 6.19054L40.4336 5.80218C40.6684 5.72035 40.8706 5.60661 41.0399 5.46493C40.8289 5.12676 40.7122 4.7752 40.6935 4.41071L40.5425 4.39343ZM41.0591 4.45256C41.0816 4.71281 41.1621 4.95956 41.3005 5.1928C41.4473 5.00025 41.5656 4.77624 41.6512 4.52032L41.0591 4.45256Z" fill="white"/>
<path d="M45.5869 5.31882L45.3566 6.83746L44.9374 6.77389L44.9655 6.58802L43.1226 6.30856L43.0944 6.49444L42.6752 6.43087L42.9055 4.91223L45.5869 5.31882ZM43.1814 5.921L45.0243 6.20045L45.1089 5.64282L43.2659 5.36337L43.1814 5.921ZM43.405 3.72571C43.2436 3.88329 43.0608 4.02145 42.8646 4.14139L42.6686 3.77992C43.0592 3.5519 43.3447 3.24321 43.5285 2.85841L43.9326 2.96824C43.8663 3.11192 43.7899 3.24195 43.7062 3.36681L44.3232 3.46037L44.4012 2.94624L44.8164 3.00921L44.7384 3.52333L45.9842 3.71223L45.9242 4.10771L44.6785 3.91881L44.6011 4.42898L46.1514 4.66406L46.0902 5.06745L42.4755 4.51933L42.5367 4.11594L44.1859 4.36601L44.2632 3.85585L43.405 3.72571Z" fill="white"/>
<path d="M48.4334 4.22587L46.9923 3.94585L47.0702 3.54535L50.2114 4.15574L50.1336 4.55625L48.8457 4.30599L48.6511 5.30726L49.727 5.51632L49.6507 5.90898L48.5748 5.69992L48.3558 6.82684L49.8087 7.10915L49.7308 7.50965L46.193 6.8222L46.2708 6.42169L46.8441 6.53308L47.1966 4.71902L47.5971 4.79684L47.2446 6.61091L47.9435 6.74672L48.4334 4.22587Z" fill="white"/>
<path d="M50.7402 4.72881L52.279 5.10445C52.2255 4.90199 52.1458 4.70549 52.0448 4.51201L52.4889 4.46395C52.5842 4.68074 52.6593 4.92965 52.7142 5.21069L54.1831 5.56927L54.0844 5.9734L53.4976 5.83016C53.1688 6.36751 52.7782 6.78685 52.3249 7.09205C52.6474 7.5084 53.0803 7.89406 53.6178 8.25586L53.308 8.54668C52.7432 8.16175 52.2966 7.74803 51.9681 7.30552C51.439 7.58398 50.8335 7.73675 50.1565 7.76088L50.0261 7.35025C50.6829 7.34176 51.2565 7.21828 51.7441 6.97497C51.4288 6.44507 51.2578 5.88042 51.2322 5.27713L50.6415 5.13294L50.7402 4.72881ZM51.6208 5.37199C51.6681 5.86941 51.8269 6.33227 52.099 6.76927C52.4837 6.50907 52.8116 6.16091 53.078 5.72771L51.6208 5.37199Z" fill="white"/>
<path d="M55.3302 5.21196L55.573 7.24076L54.2329 8.78317L53.9499 8.53301L55.1792 7.11975L54.9556 5.26004L55.3302 5.21196ZM55.9955 5.41638L56.2383 7.44519L54.8982 8.9876L54.6152 8.73744L55.8445 7.32418L55.6056 5.45977L55.9955 5.41638Z" fill="white"/>
<g clip-path="url(#clip0_255_5160)">
<mask id="mask0_255_5160" style="mask-type:luminance" maskUnits="userSpaceOnUse" x="0" y="7" width="4" height="5">
<path d="M0.000335693 7H4V11.0002H0.000335693V7Z" fill="white"/>
</mask>
<g mask="url(#mask0_255_5160)">
<path fill-rule="evenodd" clip-rule="evenodd" d="M-1 7H5.00005V11.0002H-1V7Z" fill="white"/>
<path d="M2.00008 10.2437C2.68676 10.2437 3.24342 9.68708 3.24342 9.00041C3.24342 8.31373 2.68676 7.75707 2.00008 7.75707C1.31341 7.75707 0.756744 8.31373 0.756744 9.00041C0.756744 9.68708 1.31341 10.2437 2.00008 10.2437Z" fill="#BC002D"/>
</g>
</g>
<defs>
<clipPath id="clip0_255_5160">
<rect y="7" width="4" height="4" rx="2" fill="white"/>
</clipPath>
</defs>
</svg>
