<svg width="83" height="17" viewBox="0 0 83 17" fill="none" xmlns="http://www.w3.org/2000/svg">
<path d="M4.89172 7.78523L5.27987 7.84242L4.97494 9.69718L6.15334 11.1532L5.86163 11.3931L4.57707 9.80414L4.89172 7.78523ZM5.56385 7.60454L5.93656 7.66588L5.64708 9.51649L6.82547 10.9725L6.53377 11.2124L5.2492 9.62345L5.56385 7.60454Z" fill="white"/>
<path d="M9.44289 6.78124L10.2991 10.2367L9.89141 10.3378L9.82503 10.0699L8.11281 10.4941L8.18015 10.7659L7.77248 10.8669L6.91532 7.40751L9.44289 6.78124ZM8.01468 10.0981L9.72691 9.67384L9.46812 8.62942L7.7559 9.05367L8.01468 10.0981ZM7.65777 8.65764L9.37 8.23339L9.13334 7.27827L7.42112 7.70252L7.65777 8.65764Z" fill="white"/>
<path d="M10.5287 7.09763L12.012 6.76547L11.8634 6.10191L12.2771 6.00925L12.4257 6.67282L13.9051 6.34154L13.9934 6.73578L12.8185 6.99888C13.2046 7.51498 13.7563 7.92841 14.4735 8.23919L14.275 8.65255C13.5138 8.23685 12.929 7.71196 12.5166 7.07876L12.8269 8.46445L13.6193 8.28701L13.7076 8.68124L12.9152 8.85868L13.0848 9.61593L12.671 9.70858L12.5015 8.95134L11.7403 9.12178L11.652 8.72755L12.4132 8.5571L12.1029 7.17142C11.9975 8.01892 11.6803 8.76221 11.1442 9.40693L10.8205 9.07773C11.3307 8.53717 11.6516 7.92013 11.7919 7.22876L10.617 7.49186L10.5287 7.09763Z" fill="white"/>
<path d="M16.0636 6.86714L15.3808 7.00196L15.6652 8.44216C15.6853 8.54419 15.7464 8.58513 15.8563 8.56343L16.5077 8.43481C16.6215 8.41234 16.6859 8.367 16.6979 8.30349C16.7129 8.23528 16.7117 8.10506 16.6886 7.90574L17.0996 7.96324C17.1363 8.31477 17.1264 8.53282 17.0736 8.61663C17.0193 8.69259 16.896 8.74956 16.7077 8.78675L15.7462 8.97658C15.4872 9.02772 15.3329 8.92771 15.2833 8.67656L14.9254 6.86356L14.7962 7.05622L14.4918 6.77385C14.794 6.36353 15.0532 5.90055 15.2718 5.37628L15.5701 5.31739C15.9906 5.60946 16.3907 5.92188 16.7727 6.24602L16.5609 6.57733C16.139 6.19582 15.7969 5.90865 15.5322 5.72444C15.3933 6.05357 15.2294 6.37951 15.0309 6.69594L16.3926 6.42708L16.6088 7.52194C16.6482 7.74248 16.5498 7.88422 16.3136 7.94718C16.1566 7.97818 16.0098 7.999 15.8749 8.01749L15.6977 7.65699C15.846 7.64401 15.9731 7.62707 16.0751 7.60692C16.1615 7.58988 16.1961 7.53819 16.1806 7.4597L16.0636 6.86714ZM16.7732 5.42233L17.1735 5.3433L17.65 7.7567L17.2497 7.83574L16.7732 5.42233ZM18.0976 8.53678L17.5128 8.65223L17.342 8.28233C17.5334 8.26083 17.7155 8.23304 17.8842 8.19972C17.9784 8.18112 18.0139 8.11296 17.9922 8.00308L17.3901 4.95395L17.7983 4.87337L18.4205 8.02453C18.477 8.311 18.3683 8.48332 18.0976 8.53678Z" fill="white"/>
<path d="M19.222 5.17841L18.6186 5.28058L18.5598 4.93352L19.8377 4.71717C19.8 4.66269 19.7631 4.61215 19.7268 4.56555L20.1604 4.41911C20.204 4.48475 20.245 4.55896 20.2912 4.64038L21.6439 4.41135L21.7027 4.75841L21.0875 4.86258L21.0196 5.08502L21.9228 4.93211L21.9829 5.28706L18.5281 5.87199L18.468 5.51704L19.3396 5.36947L19.222 5.17841ZM19.7694 5.29669L20.5898 5.1578L20.6576 4.93536L19.6519 5.10563L19.7694 5.29669ZM18.9458 5.94325L21.6119 5.49186L21.8242 6.74602L20.6134 6.95101C20.7887 7.0755 20.9258 7.19023 21.024 7.29125L20.7216 7.58992C20.6135 7.4784 20.4711 7.35646 20.2945 7.22408L20.6016 6.95301L19.1582 7.1974L18.9458 5.94325ZM21.3699 6.5065L21.3405 6.33297L19.479 6.64814L19.5083 6.82167L21.3699 6.5065ZM19.4295 6.3563L21.2911 6.04113L21.2623 5.87154L19.4008 6.18671L19.4295 6.3563ZM19.0323 7.36476L19.4486 7.37947C19.4107 7.70639 19.3299 7.99594 19.2069 8.25207L18.8139 8.08736C18.9362 7.85163 19.0093 7.61207 19.0323 7.36476ZM21.2302 7.95818L20.2679 8.12111C19.9485 8.17519 19.7667 8.05992 19.7199 7.78385L19.6351 7.28298L20.0532 7.2122L20.1226 7.62236C20.1386 7.71702 20.2065 7.75827 20.3248 7.73824L21.0899 7.6087C21.157 7.59735 21.2016 7.57356 21.2239 7.53733C21.258 7.49911 21.2649 7.3965 21.2494 7.2328L21.6619 7.29684C21.6771 7.57826 21.646 7.75391 21.5685 7.82382C21.5016 7.88383 21.388 7.93147 21.2302 7.95818ZM21.8448 6.81961C22.1012 7.03991 22.3042 7.23272 22.4506 7.40266L22.1482 7.70133C21.9945 7.51234 21.7934 7.30703 21.5489 7.08473L21.8448 6.81961Z" fill="white"/>
<path d="M24.0637 3.79943C24.1364 3.91447 24.2073 4.0459 24.2765 4.19374L25.6431 4.00239L25.6981 4.39456L25.0405 4.48663C25.0242 4.65856 24.9948 4.82422 24.9536 4.99155L25.8489 4.8662L25.9049 5.2663L23.1082 5.65788L23.1803 6.17286C23.2516 6.79701 23.1828 7.31555 22.9661 7.7296L22.6138 7.49216C22.7748 7.17073 22.8252 6.7517 22.7604 6.23165L22.6323 5.31658L23.4285 5.20509L23.2301 4.74011L22.5329 4.83773L22.478 4.44556L23.8526 4.25309C23.7834 4.13354 23.7118 4.02642 23.638 3.93175L24.0637 3.79943ZM23.8365 5.14796L24.5535 5.04757C24.5987 4.87969 24.628 4.71402 24.6443 4.5421L23.6382 4.68298L23.8365 5.14796Z" fill="white"/>
<path d="M27.5209 3.43038L27.9384 3.38472L28.2789 6.49816L28.7163 6.45033L28.3758 3.33689L28.7933 3.29124L29.1338 6.40468L30.2789 6.27945L30.3233 6.68503L26.7685 7.07376L26.7241 6.66817L27.8614 6.54382L27.5209 3.43038ZM29.5793 3.9658L29.9564 4.02918C29.8797 4.72565 29.754 5.34296 29.5791 5.87715L29.191 5.7868C29.3632 5.3012 29.4897 4.69184 29.5793 3.9658ZM26.89 4.2478C27.1467 4.75491 27.3921 5.34371 27.622 6.01068L27.2542 6.14344C27.0512 5.53792 26.819 4.95974 26.5492 4.40579L26.89 4.2478Z" fill="white"/>
<path d="M31.9104 3.62757L32.1322 6.42278L31.7335 6.45443L31.7176 6.25506L31.1275 6.3019L31.1525 6.61691L30.7538 6.64855L30.5227 3.73771L30.9055 3.70732C30.9605 3.49029 30.995 3.26687 31.0088 3.03705L31.4319 3.05965C31.4052 3.27845 31.3615 3.48656 31.3043 3.67568L31.9104 3.62757ZM31.0971 5.9191L31.6873 5.87226L31.6275 5.11863L31.0373 5.16547L31.0971 5.9191ZM31.0079 4.79464L31.598 4.7478L31.5426 4.04999L30.9525 4.09683L31.0079 4.79464ZM32.713 4.53893C32.9938 4.84166 33.2117 5.10926 33.3709 5.34541L33.0543 5.60326C32.8858 5.3518 32.6634 5.07654 32.3908 4.77716L32.713 4.53893ZM33.9639 3.46459C34.0747 4.8602 34.1231 5.72307 34.1092 6.05321C34.0915 6.3355 33.9111 6.49025 33.5682 6.51747C33.4885 6.5238 33.3443 6.52721 33.1357 6.52772L33.0059 6.15682C33.1823 6.15486 33.3385 6.15049 33.47 6.14005C33.6136 6.12866 33.691 6.04226 33.7026 5.88485C33.7113 5.69156 33.6711 5.03267 33.5895 3.90359L32.6245 3.98018C32.5358 4.22797 32.4253 4.45342 32.293 4.65653L32.0155 4.34551C32.2489 3.9498 32.3877 3.47333 32.44 2.91945L32.8548 2.93869C32.832 3.15718 32.7963 3.36465 32.7517 3.5608L33.9639 3.46459Z" fill="white"/>
<path d="M37.7068 2.74219L37.8213 5.00729L37.3979 5.02871L37.3035 3.1631L36.2648 3.21563L36.3592 5.08125L35.9477 5.10206L35.8332 2.83695L37.7068 2.74219ZM37.7483 6.25658L37.3369 6.27739C37.0732 6.29072 36.9385 6.16136 36.9248 5.88971L36.8981 5.36238C36.8562 5.48465 36.8097 5.59514 36.7547 5.69405C36.5703 6.00777 36.2584 6.25584 35.8193 6.44226L35.5778 6.10202C36.0047 5.91221 36.2898 5.68953 36.4293 5.43816C36.5676 5.16282 36.6379 4.81082 36.6325 4.38656L36.5846 3.43976L36.9801 3.41976L37.028 4.36655C37.0325 4.61464 37.0156 4.83577 36.9778 5.03794L37.2974 5.02178L37.3356 5.77681C37.3396 5.85671 37.3736 5.89504 37.4375 5.89181L37.6532 5.8809C37.6972 5.87868 37.7281 5.85709 37.7461 5.81613C37.7676 5.76698 37.7772 5.63833 37.7742 5.4222L38.168 5.52645C38.1574 5.87142 38.12 6.08158 38.0553 6.14893C37.9864 6.21249 37.8842 6.24971 37.7483 6.25658ZM34.4493 4.22062L34.8608 4.19981L34.8195 3.38485L34.3521 3.40849L34.3321 3.013L35.6824 2.9447L35.7024 3.3402L35.243 3.36343L35.2842 4.17839L35.6877 4.15799L35.7079 4.55747L35.3044 4.57788L35.3422 5.32493C35.4952 5.26112 35.6482 5.19731 35.7967 5.12571L35.8169 5.5252C35.4255 5.7052 35.0049 5.86265 34.5552 5.99754L34.4351 5.6031C34.6013 5.56266 34.7672 5.51822 34.925 5.47019L34.881 4.5993L34.4695 4.62011L34.4493 4.22062Z" fill="white"/>
<path d="M39.3049 4.49109L39.2618 2.58758L39.6737 2.57824L39.7569 6.2493L39.345 6.25864L39.316 4.97897C39.0975 5.22398 38.8545 5.44955 38.5913 5.66357L38.4495 5.23067C38.7645 5.00747 39.047 4.76101 39.3049 4.49109ZM38.8229 2.99763C38.97 3.30638 39.1016 3.63948 39.2137 3.99703L38.8535 4.16924C38.7247 3.78006 38.5848 3.43514 38.434 3.13849L38.8229 2.99763ZM41.5065 2.5927C41.7117 2.8201 41.8722 3.01652 41.9839 3.18202L41.6613 3.4214C41.545 3.23199 41.3843 3.02758 41.1871 2.79999L41.5065 2.5927ZM41.0611 2.53878C41.0674 2.81471 41.0711 3.15471 41.0722 3.55479L42.0039 3.53366L42.0131 3.93756L41.1133 3.95796C41.3161 4.78557 41.6786 5.42152 42.2009 5.8698L41.9202 6.19624C41.4543 5.76269 41.1301 5.22991 40.9399 4.60206C40.7707 5.25806 40.4871 5.80863 40.097 6.24959L39.8059 5.94011C40.2888 5.35701 40.566 4.69856 40.6374 3.96875L39.8856 3.9858L39.8765 3.5819L40.6523 3.56431C40.6542 3.12015 40.6545 2.78006 40.6492 2.54812L41.0611 2.53878Z" fill="white"/>
<path d="M46.0555 2.73833L46.0446 6.04231L45.6366 6.04096L45.6375 5.75296L44.8175 5.75026L44.8164 6.08626L44.4124 6.08493L44.4235 2.73294L46.0555 2.73833ZM44.8188 5.35826L45.6388 5.36097L45.6462 3.12498L44.8262 3.12227L44.8188 5.35826ZM42.6167 3.55499L43.2727 3.55715L43.2742 3.11316C43.0981 3.14058 42.918 3.15998 42.742 3.1714L42.6072 2.79895C43.2314 2.74901 43.7317 2.65466 44.1002 2.51588L44.295 2.86052C44.0908 2.93185 43.8826 2.99516 43.6744 3.04248L43.6727 3.55847L44.3127 3.56058L44.3114 3.94858L43.6715 3.94647L43.671 4.09047C43.8944 4.27921 44.1176 4.49594 44.3449 4.7367L44.0997 5.09989C43.9325 4.85134 43.7891 4.65086 43.6696 4.49847L43.6642 6.15846L43.2642 6.15714L43.2693 4.60115C43.1082 4.92062 42.9113 5.21197 42.6744 5.47919L42.4959 5.0186C42.8449 4.70775 43.1021 4.3566 43.2714 3.96515L43.2715 3.94515L42.6155 3.94299L42.6167 3.55499Z" fill="white"/>
<path d="M46.5861 2.83897L48.3218 2.86844L48.3149 3.27638L47.747 3.26674L47.7345 3.99863L48.1385 4.00549L48.1348 4.22146C48.3907 3.75774 48.5682 3.20067 48.6713 2.54633L49.0825 2.60131C49.0471 2.79674 49.0079 2.9841 48.961 3.15933L50.1168 3.17896L50.1099 3.5869L49.8539 3.58255C49.8114 4.20192 49.6584 4.7274 49.391 5.16292C49.6095 5.48668 49.8692 5.74312 50.1701 5.92826L49.9241 6.28013C49.6194 6.08693 49.3557 5.82642 49.1372 5.50266C48.8599 5.814 48.5116 6.06412 48.0883 6.25296L47.8382 5.90467C48.2934 5.72037 48.6538 5.46645 48.9154 5.13884C48.7719 4.87237 48.6489 4.57424 48.5505 4.24452C48.4679 4.39514 48.3815 4.53769 48.2912 4.67218L48.0878 4.39669L47.7279 4.39058L47.713 5.26645C47.8979 5.21358 48.0789 5.16065 48.2478 5.10751L48.2413 5.49145C47.7464 5.65907 47.1757 5.81341 46.5292 5.95045L46.4238 5.56461L46.6525 5.52048L46.6832 3.71274L47.0712 3.71933L47.0421 5.43508C47.1344 5.41265 47.2228 5.39415 47.3072 5.37157L47.343 3.25988L46.5791 3.24691L46.5861 2.83897ZM49.1538 4.76284C49.3277 4.41374 49.4264 4.01936 49.45 3.57569L48.8381 3.5653C48.817 3.62896 48.796 3.68861 48.775 3.74426C48.8765 4.12604 49.0028 4.46423 49.1538 4.76284Z" fill="white"/>
<path d="M50.6334 3.74149L52.2088 3.78599L52.2151 3.56208L52.595 3.57281L52.3712 3.41843C52.5504 3.16739 52.6779 2.90288 52.758 2.61703L53.1554 2.71629C53.1291 2.79558 53.1029 2.87487 53.0768 2.94617L54.2044 2.97802L54.194 3.34587L53.5383 3.32735C53.6071 3.44134 53.664 3.55099 53.7092 3.6523L53.3413 3.78197C53.2739 3.62 53.1982 3.4658 53.1144 3.31538L52.9225 3.30995C52.8589 3.43621 52.7917 3.55035 52.7166 3.65628L52.6381 3.60204L52.6326 3.79796L54.208 3.84247L54.1974 4.21832L52.622 4.17381L52.6163 4.37373L53.9278 4.41078L53.9057 5.19447C53.8991 5.42638 53.7679 5.53872 53.516 5.5316L53.2721 5.52471C53.5556 5.68878 53.8797 5.82999 54.2404 5.95222L54.0098 6.32586C53.4559 6.10213 52.9841 5.80469 52.5862 5.44131L52.5602 6.36094L52.1364 6.34897L52.1619 5.44533C51.7599 5.79411 51.3081 6.06546 50.8105 6.25549L50.5731 5.87663C51.1908 5.682 51.723 5.40092 52.1737 5.02949L52.1822 4.72561L51.3506 4.70212L51.3293 5.45382L50.9175 5.44219L50.949 4.32663L52.1925 4.36176L52.1982 4.16184L50.6228 4.11734L50.6334 3.74149ZM52.5973 5.04946C52.7847 5.21482 52.9964 5.36886 53.2406 5.50781L53.1506 5.15313L53.4099 5.18046C53.4619 5.18193 53.4908 5.15073 53.4923 5.09476L53.5017 4.76289L52.6061 4.73759L52.5973 5.04946ZM51.2392 3.2624C51.1514 3.39597 51.0558 3.52133 50.9524 3.63845L50.599 3.40038C50.8464 3.14326 51.0263 2.86423 51.1348 2.56717L51.5321 2.66644C51.5019 2.74561 51.4676 2.82468 51.4335 2.89974L52.3611 2.92595L52.3507 3.2938L51.799 3.27821C51.8678 3.3922 51.9287 3.50197 51.9777 3.60739L51.5979 3.73672C51.5305 3.57475 51.4549 3.41655 51.3711 3.26613L51.2392 3.2624Z" fill="white"/>
<path d="M55.111 4.37104C55.0101 4.49108 54.9054 4.60696 54.7967 4.72268L54.6748 4.26942C55.0605 3.83658 55.3494 3.32378 55.5497 2.72335L55.9221 2.91849C55.8226 3.20272 55.6954 3.47782 55.5489 3.73614L55.4399 6.44595L55.0282 6.42938L55.111 4.37104ZM56.0996 2.8856L58.1899 2.96973L58.1344 4.34862L57.351 4.31709L57.3293 4.85665L58.2166 4.89236L58.2012 5.27605L57.3139 5.24034L57.2819 6.0357C57.4011 6.05651 57.5447 6.07029 57.7042 6.08472C57.9121 6.09309 58.128 6.09778 58.3442 6.09847L58.2523 6.49109L57.8806 6.47613C57.2893 6.44833 56.892 6.37229 56.6847 6.25185C56.481 6.13957 56.3156 5.97278 56.1887 5.7435C56.0691 6.03092 55.927 6.2774 55.7666 6.48312L55.5124 6.13661C55.8009 5.73189 56.0069 5.18774 56.1307 4.50016L56.5236 4.58403C56.4734 4.83821 56.4159 5.07209 56.3509 5.29366C56.4016 5.4278 56.4687 5.5506 56.5563 5.66221C56.648 5.76999 56.7569 5.85043 56.8745 5.91121L56.9394 4.30052L56.0441 4.26448L56.0996 2.8856ZM57.7462 3.94868L57.7708 3.33718L56.4918 3.2857L56.4672 3.8972L57.7462 3.94868Z" fill="white"/>
<path d="M59.1229 2.92125C59.3756 3.14284 59.5884 3.36232 59.7612 3.57971L59.4461 3.85953C59.3048 3.65182 59.0964 3.42455 58.821 3.17773L59.1229 2.92125ZM61.2064 6.6399C60.9907 6.62854 60.7552 6.61214 60.5038 6.5949C60.2483 6.57745 60.0419 6.54255 59.8762 6.49378C59.7189 6.43744 59.588 6.33841 59.4793 6.19651C59.4309 6.12587 59.3847 6.09139 59.3367 6.08886C59.2608 6.08487 59.1158 6.25348 58.8971 6.60247L58.6045 6.30267C58.821 5.99363 59.0075 5.79916 59.1719 5.71969L59.2295 4.62521L58.7023 4.59745L58.7224 4.21398L59.6372 4.26213L59.5571 5.78402L59.5949 5.82607C59.6773 5.93455 59.765 6.01928 59.8541 6.07604C59.9668 6.14206 60.1369 6.18305 60.3682 6.20323C60.5956 6.21921 60.863 6.23729 61.1666 6.25327C61.3664 6.26379 61.5663 6.2703 61.774 6.28124C61.9781 6.28397 62.1343 6.28418 62.2426 6.28187L62.1211 6.68804L61.2064 6.6399ZM59.9845 3.52336L60.4079 3.54565L60.4392 2.95047L60.8427 2.97171L60.8113 3.56688L61.3146 3.59338L61.3455 3.00619L61.753 3.02763L61.7221 3.61482L62.1814 3.639L62.161 4.02646L61.7017 4.00228L61.6662 4.67735L62.2533 4.70826L62.2327 5.09971L61.6455 5.06881L61.5896 6.13134L61.1822 6.10989L61.2381 5.04736L60.6389 5.01583C60.5033 5.46131 60.286 5.78634 59.9828 5.99069L59.7486 5.6459C59.9643 5.50504 60.1239 5.28913 60.2275 4.99417L59.7681 4.96999L59.7887 4.57853L60.328 4.60692C60.3507 4.47994 60.3656 4.34854 60.3732 4.20474L60.3875 3.93311L59.9641 3.91083L59.9845 3.52336ZM60.7909 3.95435L60.7817 4.1301C60.7724 4.30586 60.7516 4.473 60.7274 4.62794L61.2587 4.6559L61.2942 3.98084L60.7909 3.95435Z" fill="white"/>
<path d="M62.8331 4.39407L63.2304 3.22964L63.6411 3.32481L63.394 4.03412L63.9448 4.07036C64.0358 3.78372 64.1159 3.48032 64.1808 3.1639L64.6045 3.2439C64.5363 3.54808 64.4615 3.83178 64.3758 4.09873L66.1919 4.21824L66.1659 4.61338L64.246 4.48705C64.1983 4.60416 64.155 4.71355 64.1117 4.82295L65.6923 4.92696L65.6692 5.2782C65.5529 5.58322 65.3424 5.85799 65.0417 6.10278C65.3303 6.28612 65.6758 6.45718 66.0779 6.61994L65.8364 7.0009C65.373 6.79402 64.9862 6.58016 64.6763 6.35533C64.3508 6.55038 63.9587 6.721 63.5001 6.8672L63.3064 6.4616C63.7027 6.34738 64.044 6.21751 64.3262 6.07173C64.0958 5.85614 63.9259 5.6365 63.8126 5.40857C63.4914 5.96468 63.1057 6.4043 62.6558 6.72345L62.4617 6.32184C63.0321 5.87833 63.4777 5.25826 63.803 4.45789L62.8331 4.39407ZM64.1309 5.20103C64.2482 5.42922 64.4344 5.64591 64.6892 5.8551C64.9373 5.67901 65.1226 5.48275 65.2445 5.27431L64.1309 5.20103ZM65.2787 3.23214C65.5367 3.45356 65.7548 3.67236 65.9247 3.89199L65.6097 4.17191C65.4674 3.9581 65.2581 3.72786 64.9774 3.48491L65.2787 3.23214Z" fill="white"/>
<path d="M67.3882 4.88244L67.9225 4.92509L67.9455 4.63801L67.3194 4.58804L67.2978 4.85917C67.2787 5.09841 67.2486 5.32473 67.2072 5.54213L67.8691 5.59496L67.8933 5.29193L67.359 5.24928L67.3882 4.88244ZM67.1254 5.9128C67.0153 6.33738 66.8608 6.71428 66.6653 7.0518L66.3506 6.72171C66.6336 6.24271 66.8085 5.61062 66.8751 4.82543L66.9818 3.48968L70.068 3.73604L69.983 4.80066L69.4327 4.75673L69.4098 5.04382L69.9959 5.09061L69.9667 5.45744L69.3805 5.41065L69.3563 5.71369L70.082 5.77162L70.0521 6.14643L69.6534 6.1146L69.8662 6.36432C69.7434 6.49497 69.6145 6.60105 69.4756 6.68225C69.6588 6.8012 69.872 6.89447 70.1114 6.96173L69.8845 7.34088C69.1897 7.09682 68.7112 6.65734 68.4532 6.01879L67.9787 5.98091L67.9217 6.69464C68.1581 6.64931 68.3665 6.60174 68.5477 6.54397L68.5972 6.92914C68.2573 7.01436 67.855 7.07855 67.394 7.12201L67.3114 6.75025C67.4428 6.71259 67.5182 6.6223 67.529 6.48673L67.572 5.94845L67.1254 5.9128ZM68.8719 6.05221C68.9527 6.1951 69.0472 6.31901 69.1588 6.42824C69.2971 6.35501 69.4299 6.24924 69.5617 6.10728L68.8719 6.05221ZM69.026 4.72427L68.3482 4.67016L68.3253 4.95724L69.0031 5.01135L69.026 4.72427ZM68.2718 5.62711L68.9496 5.68122L68.9738 5.37819L68.296 5.32408L68.2718 5.62711ZM69.6191 4.08142L67.3742 3.90222L67.3487 4.2212L69.5936 4.4004L69.6191 4.08142Z" fill="white"/>
<path d="M74.0937 5.69339L73.2535 5.61336L73.233 5.82839L74.117 5.91259L74.0848 6.25106L73.2008 6.16686L73.1803 6.38189L74.1798 6.47709L74.1468 6.82352L73.1473 6.72832L73.1196 7.019L72.7135 6.98032L72.7411 6.68963L71.885 6.60809L71.918 6.26166L72.7741 6.3432L72.7946 6.12817L72.0619 6.05839L72.0942 5.71992L72.8269 5.78971L72.8473 5.57468L72.1983 5.51286L72.2309 5.17041L72.88 5.23223L72.9008 5.01322L72.0566 4.93281L72.0885 4.59833L72.9327 4.67873L72.9524 4.47167L72.3033 4.40985L72.336 4.0674L72.985 4.12922L73.0093 3.87437L73.4155 3.91306L73.3912 4.16791L74.2314 4.24793L74.179 4.79745L74.406 4.81907L74.3742 5.15355L74.1472 5.13193L74.0937 5.69339ZM73.3586 4.51036L73.3388 4.71742L73.7808 4.75952L73.8006 4.55246L73.3586 4.51036ZM73.307 5.05191L73.2861 5.27091L73.7281 5.31301L73.749 5.09401L73.307 5.05191ZM72.8088 7.11798C73.2628 7.16122 73.7334 7.19801 74.2207 7.22835L74.1115 7.61574L72.9528 7.50537C72.2121 7.43483 71.6967 7.27725 71.4019 7.04022L71.3283 6.96893C71.1929 7.12479 71.0355 7.25847 70.8561 7.36996L70.6151 6.9894C70.7934 6.88985 70.9496 6.76812 71.0763 6.61946C70.9534 6.39078 70.8598 6.10862 70.7953 5.773L71.1582 5.67497C71.2007 5.90403 71.2542 6.10199 71.319 6.26487C71.4366 6.04302 71.5217 5.78192 71.5741 5.48554L70.8653 5.41803L70.8952 5.10346C71.1281 4.85241 71.3461 4.58789 71.5502 4.30195L70.9768 4.24733L71.0139 3.8571L72.0493 3.95571L72.017 4.29418C71.8151 4.60041 71.6209 4.8672 71.4305 5.09417L71.988 5.14727L71.9645 5.39415C71.9004 5.89835 71.7595 6.3229 71.5502 6.66459C71.5898 6.71256 71.6342 6.75295 71.6793 6.78538C71.9205 6.953 72.2959 7.06109 72.8088 7.11798Z" fill="white"/>
<path d="M77.017 4.27249C77.2198 4.62104 77.3752 4.92408 77.4755 5.18073L77.1243 5.37108C77.0174 5.10161 76.8659 4.79902 76.6778 4.46417L77.017 4.27249ZM77.8987 4.59593L78.283 4.72318C78.0532 5.63135 77.7072 6.35354 77.2535 6.88665C77.5137 7.26171 77.8259 7.56609 78.1899 7.80377L77.9032 8.13813C77.5375 7.88013 77.2265 7.56382 76.9664 7.18877C76.6085 7.51119 76.2039 7.74791 75.7524 7.89894L75.5656 7.51594C76.0127 7.36845 76.401 7.13393 76.7341 6.81681C76.4258 6.25932 76.2063 5.59096 76.0708 4.81925L76.4472 4.65585C76.5522 5.37588 76.7412 5.99255 77.0186 6.50233C77.4069 6.01426 77.6989 5.37865 77.8987 4.59593ZM75.3928 4.1482C75.6176 4.37041 75.8071 4.58467 75.9608 4.79495L75.6423 5.05333C75.512 4.84968 75.3234 4.62747 75.0721 4.39024L75.3928 4.1482ZM74.701 5.23036L75.6432 5.33515L75.4654 6.93329L75.8131 6.66608L75.8797 7.11621C75.6116 7.31982 75.3298 7.50178 75.0347 7.65812L74.9176 7.26276C74.9954 7.21507 75.0427 7.1519 75.0524 7.06444L75.2054 5.68892L74.6568 5.62791L74.701 5.23036Z" fill="white"/>
<path d="M79.1859 4.52585L79.7695 6.48401L78.7105 8.23149L78.3892 8.03299L79.3608 6.43159L78.8248 4.63681L79.1859 4.52585ZM79.8762 4.6144L80.4598 6.57256L79.4009 8.32004L79.0795 8.12154L80.0512 6.52014L79.4993 4.72333L79.8762 4.6144Z" fill="white"/>
<g clip-path="url(#clip0_255_5175)">
<mask id="mask0_255_5175" style="mask-type:luminance" maskUnits="userSpaceOnUse" x="0" y="9" width="4" height="5">
<path d="M0.000335693 9H4V13.0002H0.000335693V9Z" fill="white"/>
</mask>
<g mask="url(#mask0_255_5175)">
<path fill-rule="evenodd" clip-rule="evenodd" d="M-1 9H5.00005V13.0002H-1V9Z" fill="white"/>
<path d="M2.00008 12.2437C2.68676 12.2437 3.24342 11.6871 3.24342 11.0004C3.24342 10.3137 2.68676 9.75707 2.00008 9.75707C1.31341 9.75707 0.756744 10.3137 0.756744 11.0004C0.756744 11.6871 1.31341 12.2437 2.00008 12.2437Z" fill="#BC002D"/>
</g>
</g>
<defs>
<clipPath id="clip0_255_5175">
<rect y="9" width="4" height="4" rx="2" fill="white"/>
</clipPath>
</defs>
</svg>
