<svg width="48" height="10" viewBox="0 0 48 10" fill="none" xmlns="http://www.w3.org/2000/svg">
<path d="M5.78567 2.46045L6.16251 2.56967L5.60923 4.36606L6.57962 5.96821L6.25811 6.16645L5.20054 4.41815L5.78567 2.46045ZM6.47608 2.37243L6.83705 2.48368L6.29964 4.27804L7.27003 5.88019L6.94852 6.07844L5.89095 4.33014L6.47608 2.37243Z" fill="white"/>
<path d="M10.3849 2.06294L10.792 5.59958L10.3748 5.64761L10.3432 5.37342L8.59077 5.57517L8.62279 5.85333L8.20555 5.90136L7.79794 2.36075L10.3849 2.06294ZM8.54411 5.16985L10.2965 4.9681L10.1735 3.89916L8.42105 4.10091L8.54411 5.16985ZM8.37439 3.69558L10.1268 3.49384L10.0143 2.5163L8.26185 2.71804L8.37439 3.69558Z" fill="white"/>
<path d="M11.4486 2.51077L12.961 2.35843L12.8928 1.68186L13.3147 1.63936L13.3828 2.31594L14.8912 2.16401L14.9317 2.56598L13.7337 2.68664C14.0553 3.24522 14.5536 3.72168 15.2285 4.11603L14.982 4.50268C14.276 3.9989 13.7581 3.40782 13.4245 2.72985L13.5668 4.1427L14.3747 4.06132L14.4152 4.46329L13.6073 4.54466L13.6851 5.31676L13.2632 5.35925L13.1855 4.58716L12.4094 4.66533L12.3689 4.26336L13.145 4.18519L13.0027 2.77234C12.7967 3.60115 12.3928 4.30116 11.7835 4.87712L11.5014 4.51155C12.0726 4.03591 12.465 3.46169 12.687 2.79207L11.4891 2.91273L11.4486 2.51077Z" fill="white"/>
<path d="M18.6272 1.17923L18.8617 1.53697C18.5322 1.67684 18.1631 1.77585 17.7546 1.83401L17.8061 2.45186L19.0139 2.35114L19.0468 2.74577L18.6801 2.77636L18.8533 4.85315L18.4427 4.88738L18.2695 2.81059L17.839 2.84649L17.8706 3.22518C17.9095 3.93239 17.8009 4.50741 17.5451 4.9542L17.2199 4.66423C17.4155 4.31476 17.5009 3.84605 17.468 3.25875L17.3237 1.52876C17.8173 1.47957 18.2492 1.36328 18.6272 1.17923ZM15.322 1.73582L16.0116 1.67831C15.9554 1.58265 15.896 1.49529 15.8332 1.41623L16.2577 1.30858C16.3142 1.40823 16.3677 1.52018 16.4262 1.64374L17.1516 1.58324L17.1835 1.96592L15.3539 2.11849L15.322 1.73582ZM15.3576 2.644L15.7642 2.6101C15.7054 2.48254 15.6393 2.36363 15.5662 2.25733L15.9213 2.08724C15.993 2.22575 16.0628 2.38852 16.1349 2.57918L16.4857 2.54993C16.5318 2.38151 16.5697 2.20977 16.5989 2.03073L16.9806 2.13135C16.9441 2.27087 16.9065 2.39843 16.8644 2.51835L17.251 2.48611L17.2826 2.8648L16.5611 2.92496L16.588 3.24784L17.2417 3.19333L17.2733 3.57201L16.6196 3.62653L16.7067 4.6709C16.7273 4.91804 16.5981 5.05325 16.323 5.07619L16.1158 5.09347L15.9922 4.71844C16.0533 4.7294 16.1101 4.73671 16.1579 4.73272C16.2456 4.72541 16.2901 4.68156 16.2838 4.60582L16.205 3.6611L15.5114 3.71894L15.4799 3.34025L16.1735 3.28241L16.1465 2.95953L15.3892 3.02269L15.3576 2.644ZM15.7476 3.85578L16.129 3.90426C16.0712 4.31849 15.9729 4.67991 15.8304 4.99284L15.4653 4.80252C15.6128 4.50122 15.7068 4.18431 15.7476 3.85578ZM17.0372 3.72416C17.1534 3.96333 17.2521 4.18389 17.3252 4.38652L16.9857 4.5513C16.9053 4.30914 16.8093 4.0723 16.702 3.84443L17.0372 3.72416Z" fill="white"/>
<path d="M19.9183 1.11386C20.1854 1.29011 20.4125 1.46877 20.5997 1.64983L20.3336 1.9544C20.1668 1.78012 19.9392 1.59347 19.6511 1.40246L19.9183 1.11386ZM19.4556 2.27981L20.3779 2.22422L20.4778 3.88121C20.5873 3.77042 20.7044 3.65116 20.8287 3.51944L20.9709 3.95167C20.7218 4.20712 20.4551 4.43558 20.1712 4.64504L19.9889 4.27935C20.0531 4.21537 20.0845 4.13734 20.0792 4.0495L19.9947 2.64804L19.4796 2.67909L19.4556 2.27981ZM20.9139 2.67278L22.8623 2.55534L22.8852 2.93465C22.7941 3.28476 22.6285 3.59529 22.3881 3.86224C22.6453 4.00703 22.9532 4.12872 23.316 4.23108L23.114 4.6039C22.7131 4.46778 22.3711 4.31207 22.0958 4.13231C21.7976 4.37069 21.4289 4.56923 20.9817 4.72843L20.7289 4.39102C21.1329 4.24645 21.4712 4.07379 21.7476 3.8728C21.4766 3.63266 21.2801 3.364 21.1655 3.05834L20.9379 3.07206L20.9139 2.67278ZM21.5568 3.03476C21.6584 3.25705 21.8146 3.45601 22.0333 3.62716C22.2259 3.43122 22.3693 3.2182 22.4672 2.97988L21.5568 3.03476ZM21.0922 1.11122L22.5296 1.02458L22.5794 1.85108C22.5847 1.93892 22.6355 1.98395 22.7354 1.97793L23.0787 1.95723L23.1016 2.33654L22.6464 2.36398C22.347 2.38203 22.1908 2.25119 22.174 1.9717L22.142 1.44066L21.5271 1.47772L21.5336 1.58553C21.5586 2.00077 21.3625 2.33718 20.9527 2.58629L20.654 2.28372C20.981 2.12375 21.1406 1.91377 21.125 1.65424L21.0922 1.11122Z" fill="white"/>
<path d="M24.7513 1.96595L25.7829 1.93712L25.7505 0.777572L26.1823 0.765502L26.2148 1.92505L27.1944 1.89767L27.206 2.31351L26.2264 2.34089L26.2863 4.48405L25.8545 4.49612L25.7946 2.35296L24.763 2.38179L24.7513 1.96595ZM24.0161 0.858062C24.2735 1.04695 24.4949 1.23683 24.6802 1.42373L24.4004 1.72366C24.2433 1.54398 24.018 1.3542 23.7283 1.15422L24.0161 0.858062ZM23.4926 2.02915L24.4442 2.00255L24.4909 3.67389C24.6041 3.57069 24.7249 3.45527 24.8534 3.32763L24.9733 3.75245C24.7201 3.99962 24.4503 4.22325 24.1598 4.42344L23.9893 4.05206C24.0596 3.99007 24.0936 3.91709 24.0912 3.83312L24.0516 2.41368L23.5038 2.42899L23.4926 2.02915Z" fill="white"/>
<path d="M27.8211 1.04581L29.5555 1.11845L29.5385 1.5261L28.971 1.50233L28.9403 2.23369L29.344 2.25059L29.3349 2.4664C29.6023 2.00919 29.7936 1.45671 29.913 0.805137L30.3226 0.870336C30.2824 1.06483 30.2386 1.25115 30.1873 1.42516L31.3422 1.47354L31.3252 1.88118L31.0694 1.87047C31.0115 2.48858 30.8455 3.01009 30.5673 3.43883C30.7777 3.76792 31.031 4.03075 31.3272 4.22331L31.0725 4.56896C30.7726 4.36823 30.5156 4.10124 30.3051 3.77215C30.0202 4.07649 29.6657 4.31787 29.2379 4.49612L28.9965 4.14171C29.4562 3.96879 29.8227 3.72392 30.0924 3.40292C29.9556 3.13296 29.8401 2.83186 29.7499 2.4998C29.6636 2.64832 29.5737 2.78868 29.48 2.92087L29.2836 2.64041L28.9239 2.62534L28.8873 3.50057C29.0735 3.45232 29.2556 3.40391 29.4258 3.35499L29.4098 3.73865C28.9108 3.89391 28.3365 4.03399 27.6868 4.15491L27.591 3.76656L27.8208 3.72814L27.8965 1.92173L28.2841 1.93797L28.2123 3.65246C28.3052 3.63233 28.394 3.61603 28.4789 3.59557L28.5673 1.48542L27.804 1.45345L27.8211 1.04581ZM30.3401 3.03296C30.5227 2.6883 30.6312 2.2965 30.6658 1.85356L30.0543 1.82795C30.0316 1.89105 30.0091 1.95016 29.9868 2.00528C30.0788 2.38947 30.1966 2.73069 30.3401 3.03296Z" fill="white"/>
<path d="M31.8291 2.07429L33.3946 2.25628L33.4204 2.03378L33.7979 2.07766L33.5885 1.90432C33.7889 1.66989 33.9391 1.41754 34.0438 1.13978L34.431 1.27338C34.3979 1.35008 34.3648 1.42677 34.3327 1.49552L35.4531 1.62577L35.4106 1.99131L34.759 1.91556C34.8176 2.03512 34.8647 2.14933 34.9009 2.2542L34.5231 2.35123C34.4701 2.18399 34.4082 2.02377 34.3379 1.8666L34.1472 1.84443C34.0728 1.96464 33.9958 2.07248 33.9118 2.17144L33.8384 2.11055L33.8157 2.30524L35.3812 2.48723L35.3378 2.86071L33.7723 2.67872L33.7492 2.87739L35.0524 3.02889L34.9619 3.80764C34.9351 4.03809 34.7946 4.13853 34.5443 4.10943L34.3019 4.08126C34.57 4.26947 34.8805 4.43846 35.2291 4.59175L34.9667 4.9438C34.4345 4.67253 33.9905 4.335 33.6259 3.93824L33.5196 4.85209L33.0985 4.80313L33.2029 3.90517C32.7719 4.2175 32.2981 4.44833 31.7858 4.59415L31.5825 4.196C32.2148 4.05609 32.7695 3.82258 33.2509 3.49196L33.286 3.18999L32.4596 3.09391L32.3727 3.84088L31.9635 3.79331L32.0924 2.68477L33.328 2.82842L33.3511 2.62976L31.7857 2.44777L31.8291 2.07429ZM33.6712 3.54886C33.8434 3.72996 34.0409 3.90192 34.272 4.06167L34.2133 3.70048L34.4692 3.75037C34.5209 3.75637 34.5524 3.72782 34.5588 3.67219L34.5972 3.34242L33.7072 3.23895L33.6712 3.54886ZM32.4744 1.64997C32.3753 1.77536 32.2691 1.89188 32.1559 1.99953L31.8247 1.73148C32.0935 1.49696 32.2972 1.23472 32.4312 0.948279L32.8183 1.08188C32.7813 1.15811 32.7402 1.23388 32.6997 1.30568L33.6215 1.41284L33.579 1.77838L33.0307 1.71463C33.0893 1.8342 33.1404 1.94887 33.18 2.05818L32.7904 2.15382C32.7373 1.98658 32.6759 1.82238 32.6055 1.66521L32.4744 1.64997Z" fill="white"/>
<path d="M38.7279 2.44393L38.2392 2.35912L38.071 3.32862L38.5596 3.41344L38.7279 2.44393ZM38.4906 3.81149L37.9979 3.72599C37.8217 4.50736 37.488 5.05029 37.0045 5.35613L36.7411 5.02622C37.1623 4.77454 37.4481 4.32073 37.5959 3.65622L37.2137 3.58987L37.2827 3.19182L37.669 3.25885L37.8372 2.28935L37.5377 2.23736L37.6047 1.85114L39.5083 2.18151L39.4412 2.56774L39.126 2.51302L38.9577 3.48252L39.3833 3.5564L39.3143 3.95444L38.8886 3.88057L38.5883 5.61071L38.1903 5.54162L38.4906 3.81149ZM36.4143 2.06675L35.9926 1.99356L36.061 1.59945L37.4641 1.84296L37.3957 2.23707L36.8045 2.13447C36.7054 2.40145 36.59 2.64531 36.4569 2.87393L37.1545 2.99499L36.8269 4.88277L36.1569 4.76649L36.1083 5.04631L35.73 4.98065L35.9837 3.5185C35.9135 3.59563 35.84 3.66813 35.7712 3.73738L35.616 3.34506C35.963 2.98307 36.2315 2.55874 36.4143 2.06675ZM36.2191 4.40785L36.5108 4.45847L36.7132 3.29191L36.4216 3.24129L36.2191 4.40785Z" fill="white"/>
<path d="M42.1535 3.6424C42.4825 3.9637 42.7682 4.31232 43.0017 4.68945L42.6724 4.94372C42.4305 4.52982 42.1563 4.17247 41.8536 3.87298L42.1535 3.6424ZM41.3234 3.33812L41.466 3.69648C41.0426 3.8801 40.5696 3.98725 40.0455 4.0217L40.0021 3.60882C40.5057 3.5969 40.9432 3.50705 41.3234 3.33812ZM42.1032 2.73609C42.1145 2.85007 42.1182 2.97408 42.1179 3.10943L43.4938 3.5857L43.2099 4.40595L42.8167 4.26987L42.9751 3.8125L40.6013 2.9908L40.4442 3.44439L40.0511 3.30831L40.3338 2.49184L41.6908 2.96157C41.6768 2.85516 41.6615 2.75251 41.6412 2.65235L42.1032 2.73609ZM41.0733 3.96268L41.4702 4.10007L41.3525 4.44026C41.3356 4.47675 41.3213 4.50568 41.3109 4.53592L42.2823 4.87219L41.8754 6.04775C41.8584 6.09689 41.8757 6.13251 41.9324 6.15214L42.1705 6.23457C42.2461 6.26074 42.2969 6.24867 42.3303 6.20099C42.394 6.05372 42.4565 5.89757 42.5141 5.73126L42.839 5.96649C42.6936 6.28865 42.5965 6.48361 42.5476 6.55136C42.4552 6.67174 42.288 6.69005 42.0461 6.60631L41.7475 6.50295C41.4677 6.40612 41.3761 6.2305 41.4638 5.97724L41.7648 5.10786L41.1297 4.88804C40.979 5.12792 40.801 5.31183 40.5984 5.44485C40.2913 5.63487 39.8704 5.71352 39.3369 5.68968L39.2416 5.27999C39.7601 5.2986 40.1416 5.23594 40.3798 5.08561C40.5049 4.99344 40.62 4.88091 40.7177 4.74542L39.8332 4.43924L39.9614 4.06881L40.914 4.39854L40.9556 4.30287L41.0733 3.96268Z" fill="white"/>
<path d="M44.4661 3.54131L44.6375 5.57739L43.2441 7.07178L42.97 6.81184L44.2482 5.44263L44.09 3.5762L44.4661 3.54131ZM45.1238 3.76898L45.2953 5.80506L43.9018 7.29945L43.6277 7.03951L44.9059 5.67029L44.7326 3.79864L45.1238 3.76898Z" fill="white"/>
<g clip-path="url(#clip0_255_5352)">
<mask id="mask0_255_5352" style="mask-type:luminance" maskUnits="userSpaceOnUse" x="0" y="3" width="5" height="5">
<path d="M0.200317 3H4.19998V7.00022H0.200317V3Z" fill="white"/>
</mask>
<g mask="url(#mask0_255_5352)">
<path fill-rule="evenodd" clip-rule="evenodd" d="M-0.800049 3H5.2V7.00022H-0.800049V3Z" fill="white"/>
<path d="M2.2 6.24374C2.88668 6.24374 3.44334 5.68708 3.44334 5.0004C3.44334 4.31373 2.88668 3.75706 2.2 3.75706C1.51333 3.75706 0.956665 4.31373 0.956665 5.0004C0.956665 5.68708 1.51333 6.24374 2.2 6.24374Z" fill="#BC002D"/>
</g>
</g>
<defs>
<clipPath id="clip0_255_5352">
<rect x="0.199951" y="3" width="4" height="4" rx="2" fill="white"/>
</clipPath>
</defs>
</svg>
