<svg width="56" height="9" viewBox="0 0 56 9" fill="none" xmlns="http://www.w3.org/2000/svg">
<path d="M5.74433 2.92105L6.11752 3.04216L5.5076 4.82011L6.42675 6.4522L6.09912 6.64017L5.09747 4.85924L5.74433 2.92105ZM6.43719 2.85495L6.79445 2.97758L6.20046 4.75402L7.1196 6.38611L6.79197 6.57407L5.79032 4.79314L6.43719 2.85495Z" fill="white"/>
<path d="M10.4745 2.73437L10.6928 6.28767L10.2736 6.31342L10.2566 6.03794L8.49595 6.14611L8.51312 6.42558L8.09391 6.45133L7.87537 2.89404L10.4745 2.73437ZM8.47093 5.73887L10.2316 5.63071L10.1656 4.55673L8.40495 4.6649L8.47093 5.73887ZM8.37994 4.25767L10.1406 4.1495L10.0803 3.16735L8.3196 3.27552L8.37994 4.25767Z" fill="white"/>
<path d="M11.4542 3.24742L12.9731 3.19048L12.9477 2.51095L13.3714 2.49507L13.3968 3.17459L14.9118 3.11779L14.9269 3.52151L13.7238 3.56662C14.0096 4.14432 14.4769 4.65116 15.1257 5.08716L14.8554 5.45755C14.1824 4.91038 13.7028 4.28791 13.4124 3.5903L13.4656 5.0093L14.277 4.97888L14.2922 5.3826L13.4808 5.41302L13.5098 6.18847L13.0861 6.20436L13.0571 5.4289L12.2776 5.45813L12.2625 5.05441L13.0419 5.02519L12.9887 3.60619C12.731 4.42041 12.2839 5.09363 11.6396 5.63015L11.3811 5.24757C11.9811 4.80878 12.4088 4.26037 12.6725 3.60603L11.4693 3.65114L11.4542 3.24742Z" fill="white"/>
<path d="M15.8871 2.4571C16.1474 2.64331 16.3676 2.83042 16.5479 3.01842L16.2704 3.31272C16.1103 3.13227 15.8899 2.93716 15.6093 2.73541L15.8871 2.4571ZM15.3808 3.60475L16.3045 3.58402L16.3418 5.2436C16.4554 5.13703 16.5769 5.02227 16.7061 4.89534L16.8319 5.33263C16.5734 5.57849 16.2982 5.79672 16.0066 5.99532L15.8382 5.623C15.9048 5.56149 15.9391 5.4847 15.9371 5.39672L15.9056 3.99308L15.3897 4.00465L15.3808 3.60475ZM16.8232 4.0525L18.7747 4.0087L18.7832 4.38861C18.679 4.73503 18.5017 5.03909 18.2515 5.29677C18.503 5.45116 18.806 5.58439 19.1647 5.70038L18.9489 6.06531C18.5534 5.91415 18.2175 5.74564 17.9492 5.55561C17.6422 5.78256 17.2662 5.96704 16.8133 6.10924L16.5735 5.76254C16.9827 5.63332 17.3272 5.47355 17.611 5.28313C17.3493 5.03294 17.1631 4.75705 17.0601 4.44729L16.8321 4.4524L16.8232 4.0525ZM17.452 4.43849C17.5451 4.66446 17.6937 4.86917 17.9058 5.04846C18.1056 4.85993 18.257 4.65248 18.3638 4.41803L17.452 4.43849ZM17.0604 2.49879L18.5 2.46648L18.5186 3.29427C18.5206 3.38225 18.5696 3.42916 18.6696 3.42691L19.0135 3.41919L19.022 3.7991L18.5662 3.80933C18.2662 3.81606 18.1151 3.67942 18.1088 3.39949L18.0969 2.86762L17.4811 2.88144L17.4835 2.98942C17.4928 3.40531 17.2841 3.73408 16.8653 3.96754L16.5782 3.6539C16.9109 3.50639 17.0784 3.30259 17.0726 3.04265L17.0604 2.49879Z" fill="white"/>
<path d="M20.7515 3.46251L21.7835 3.45077L21.7703 2.29084L22.2022 2.28593L22.2154 3.44585L23.1954 3.4347L23.2001 3.85067L22.2202 3.86182L22.2446 6.00568L21.8126 6.0106L21.7882 3.86674L20.7563 3.87849L20.7515 3.46251ZM20.0347 2.3426C20.289 2.53572 20.5072 2.72925 20.6894 2.91919L20.4047 3.21445C20.2506 3.03219 20.0284 2.8387 19.742 2.63395L20.0347 2.3426ZM19.4919 3.50485L20.4439 3.49402L20.4629 5.16591C20.5778 5.0646 20.7005 4.95119 20.8311 4.8257L20.9439 5.25244C20.6867 5.49538 20.4132 5.71451 20.1194 5.90987L19.9551 5.53571C20.0264 5.4749 20.0616 5.40249 20.0606 5.3185L20.0445 3.89859L19.4965 3.90483L19.4919 3.50485Z" fill="white"/>
<path d="M23.7094 2.60114L25.4454 2.59479L25.4469 3.00278L24.8789 3.00486L24.8816 3.73686L25.2856 3.73538L25.2863 3.95138C25.5326 3.48247 25.6986 2.92186 25.7882 2.26553L26.2003 2.31202C26.1691 2.50813 26.1338 2.69626 26.0904 2.87242L27.2464 2.86819L27.2479 3.27619L26.9919 3.27712C26.9622 3.89724 26.8201 4.42576 26.5617 4.86671C26.7869 5.18589 27.0518 5.43692 27.3565 5.61581L27.1178 5.97268C26.8091 5.78581 26.5401 5.53079 26.315 5.21162C26.0441 5.52861 25.7011 5.78587 25.2818 5.98341L25.0245 5.64035C25.4758 5.44669 25.8309 5.18539 26.0857 4.85246C25.9367 4.589 25.8076 4.29347 25.7024 3.96585C25.623 4.11815 25.5395 4.26245 25.452 4.39877L25.243 4.12754L24.883 4.12886L24.8862 5.00485C25.07 4.94818 25.2498 4.89152 25.4176 4.8349L25.419 5.2189C24.9276 5.3967 24.3602 5.56278 23.7168 5.71314L23.6034 5.32955L23.8312 5.28072L23.8246 3.47273L24.2126 3.47131L24.2189 5.1873C24.3108 5.16296 24.3987 5.14264 24.4826 5.11833L24.4749 3.00634L23.7109 3.00914L23.7094 2.60114ZM26.3163 4.47161C26.483 4.11899 26.5735 3.72266 26.5879 3.2786L25.9759 3.28085C25.9561 3.34492 25.9363 3.40499 25.9166 3.46107C26.0259 3.84067 26.1592 4.17618 26.3163 4.47161Z" fill="white"/>
<path d="M27.5146 3.42099L29.0906 3.41821L29.0902 3.19421L29.4702 3.19354L29.242 3.04594C29.4135 2.78964 29.533 2.52143 29.6045 2.2333L30.0047 2.3206C29.9808 2.40064 29.957 2.48068 29.9331 2.55272L31.0611 2.55073L31.0617 2.91873L30.4057 2.91989C30.4779 3.03176 30.5381 3.13966 30.5863 3.23957L30.2226 3.38021C30.1503 3.22034 30.07 3.06848 29.9817 2.92064L29.7897 2.92098C29.73 3.04908 29.6662 3.1652 29.5944 3.27332L29.5143 3.22146L29.5146 3.41746L31.0906 3.41468L31.0913 3.79068L29.5153 3.79346L29.5156 3.99346L30.8276 3.99115L30.829 4.77515C30.8294 5.00715 30.7016 5.12337 30.4496 5.12382L30.2056 5.12425C30.4939 5.27974 30.8221 5.41116 31.1863 5.52252L30.967 5.9029C30.4066 5.69589 29.9261 5.41274 29.5175 5.06146L29.5191 5.98146L29.0951 5.98221L29.0936 5.07821C28.7022 5.4389 28.2587 5.72368 27.7671 5.92855L27.5184 5.55699C28.13 5.34391 28.6535 5.04699 29.0928 4.66221L29.0923 4.35821L28.2603 4.35968L28.2616 5.11168L27.8496 5.11241L27.8476 3.99641L29.0916 3.99421L29.0913 3.79421L27.5153 3.79699L27.5146 3.42099ZM29.5168 4.66946C29.7091 4.82912 29.9254 4.97674 30.1736 5.1083L30.073 4.75648L30.333 4.77602C30.385 4.77593 30.413 4.74388 30.4129 4.68788L30.4123 4.35588L29.5163 4.35746L29.5168 4.66946ZM28.1057 2.92395C28.022 3.0601 27.9302 3.18826 27.8304 3.30844L27.47 3.08107C27.7096 2.81665 27.8811 2.53235 27.9805 2.23217L28.3807 2.31946C28.3528 2.39951 28.321 2.47957 28.2891 2.55563L29.2171 2.55399L29.2177 2.92199L28.6657 2.92296C28.7379 3.03483 28.8021 3.14272 28.8543 3.24663L28.4786 3.38729C28.4063 3.22742 28.326 3.07156 28.2377 2.92372L28.1057 2.92395Z" fill="white"/>
<path d="M34.6272 2.27268L34.8328 2.62373C34.4732 2.7174 34.0616 2.79131 33.5978 2.84146L33.6003 3.38145L34.8243 3.37578L34.8262 3.78377L33.6022 3.78945L33.6046 4.31744L35.1286 4.31037L35.1305 4.71437L33.6065 4.72144L33.6102 5.51343C33.6115 5.78543 33.4641 5.92211 33.1761 5.92345L32.5561 5.92632L32.4582 5.52277C32.6583 5.53784 32.8463 5.54497 33.0303 5.54412C33.1343 5.54364 33.1901 5.49938 33.1897 5.41538L33.1865 4.72339L31.5185 4.73112L31.5167 4.32713L33.1847 4.31939L33.1822 3.7914L31.8462 3.79759L31.8443 3.3896L33.1803 3.3834L33.178 2.87941C32.7781 2.90526 32.3502 2.92325 31.8902 2.92538L31.7564 2.55C32.8884 2.54474 33.844 2.45231 34.6272 2.27268Z" fill="white"/>
<path d="M35.6284 3.79209L36.0684 3.78678L36.0512 2.36289L37.2911 2.34793L37.3083 3.77183L37.6522 3.76768L37.6351 2.34378L38.879 2.32878L38.8962 3.75267L39.2921 3.7479L39.297 4.15187L38.901 4.15664L38.9167 5.45255C38.9199 5.72453 38.7736 5.86231 38.4816 5.86583L38.1376 5.86998L38.0249 5.47931C38.141 5.48591 38.2491 5.4926 38.3491 5.4914C38.4531 5.49014 38.5084 5.42947 38.5069 5.30948L38.4931 4.16157L38.0531 4.16687L38.054 4.23887C38.0543 4.93091 37.9371 5.49237 37.7023 5.92723L37.395 5.65492C37.5706 5.29277 37.6571 4.8317 37.6583 4.27164L37.6571 4.17165L37.3131 4.1758L37.3287 5.4677C37.332 5.73968 37.2057 5.88122 36.9537 5.88426L36.5977 5.88855L36.481 5.49793C36.6051 5.50443 36.7212 5.51103 36.8252 5.50978C36.8972 5.50891 36.9325 5.44848 36.9311 5.33249L36.9172 4.18057L36.4812 4.18583L36.482 4.24983C36.4824 4.94587 36.3452 5.51557 36.0705 5.95092L35.7591 5.67065C35.9707 5.30807 36.0731 4.8468 36.0744 4.28675L36.0732 4.19075L35.6333 4.19606L35.6284 3.79209ZM38.4882 3.75759L38.4755 2.70967L38.0356 2.71498L38.0482 3.7629L38.4882 3.75759ZM36.9123 3.7766L36.8997 2.72868L36.4637 2.73394L36.4763 3.78186L36.9123 3.7766Z" fill="white"/>
<path d="M40.8753 2.5371C41.1513 2.5311 41.3809 2.60612 41.5644 2.76217C41.7438 2.91831 41.8362 3.12034 41.8418 3.37628C41.8472 3.62422 41.7561 3.85026 41.5766 4.05821C41.4672 4.18062 41.2705 4.33693 40.9947 4.53097C40.7069 4.72928 40.5346 4.90106 40.4738 5.04642L41.8815 5.01581L41.8904 5.42771L39.8989 5.47102C39.8925 5.17909 39.979 4.92515 40.1663 4.70503C40.2677 4.58279 40.4838 4.40205 40.8107 4.16689C40.9919 4.03492 41.1175 3.92416 41.1957 3.83844C41.3166 3.69578 41.3773 3.54242 41.3738 3.38246C41.3704 3.2265 41.3239 3.11148 41.2423 3.03724C41.1566 2.96308 41.0319 2.92979 40.8679 2.93335C40.692 2.93718 40.5613 3.00003 40.4759 3.12192C40.3904 3.23581 40.3461 3.40881 40.343 3.63293L39.8751 3.6431C39.8722 3.32309 39.9586 3.06515 40.1383 2.8652C40.3217 2.65316 40.5674 2.54379 40.8753 2.5371Z" fill="white"/>
<path d="M43.6821 2.46234C44.0139 2.45158 44.2782 2.57908 44.4752 2.85284C44.6597 3.111 44.7591 3.46396 44.7737 3.91172C44.7882 4.35949 44.7118 4.71815 44.5444 4.98772C44.3655 5.26967 44.1101 5.41802 43.7783 5.42878C43.4425 5.43967 43.1781 5.30818 42.9852 5.03829C42.8008 4.78013 42.7013 4.42717 42.6868 3.9794C42.6722 3.53164 42.7487 3.17297 42.916 2.90341C43.0908 2.61759 43.3463 2.47323 43.6821 2.46234ZM43.695 2.85814C43.4671 2.86553 43.3112 2.99465 43.2275 3.25349C43.1691 3.42748 43.1448 3.66439 43.1545 3.96423C43.1641 4.26008 43.2037 4.49492 43.2734 4.66875C43.3735 4.91764 43.5376 5.04038 43.7655 5.03299C43.9894 5.02573 44.1451 4.89261 44.2329 4.63763C44.2912 4.45965 44.3155 4.22274 44.3059 3.92689C44.2962 3.62705 44.2566 3.39221 44.187 3.22238C44.0828 2.96962 43.9188 2.85087 43.695 2.85814Z" fill="white"/>
<path d="M46.8066 2.34139C47.1382 2.32609 47.4042 2.44997 47.6049 2.72102C47.7929 2.97663 47.8972 3.3282 47.9178 3.77572C47.9385 4.22325 47.867 4.58292 47.7033 4.85475C47.5282 5.13912 47.2749 5.29094 46.9433 5.30624C46.6076 5.32171 46.3415 5.19384 46.145 4.92661C45.957 4.67099 45.8527 4.31942 45.832 3.8719C45.8114 3.42438 45.8829 3.0647 46.0466 2.79287C46.2175 2.50469 46.4709 2.35686 46.8066 2.34139ZM46.8248 2.73697C46.5971 2.74747 46.4429 2.87871 46.3628 3.13867C46.3068 3.31344 46.2857 3.55066 46.2995 3.85034C46.3132 4.14603 46.356 4.3803 46.4281 4.55317C46.5316 4.80066 46.6973 4.92116 46.9251 4.91066C47.1488 4.90034 47.3027 4.76511 47.387 4.50895C47.4429 4.33019 47.464 4.09297 47.4503 3.79728C47.4365 3.4976 47.3937 3.26332 47.3218 3.09445C47.2141 2.84315 47.0486 2.72665 46.8248 2.73697Z" fill="white"/>
<path d="M48.6764 2.30611L50.6047 2.18714L50.6279 2.56242L49.7825 5.0993L49.2874 5.12984L50.1597 2.6394L48.7025 2.72931L48.6764 2.30611Z" fill="white"/>
<path d="M51.8605 1.6499L52.8426 3.44166L52.1746 5.37267L51.8187 5.24615L52.4321 3.4763L51.5308 1.83427L51.8605 1.6499ZM52.554 1.59138L53.5361 3.38314L52.8681 5.31415L52.5122 5.18762L53.1256 3.41778L52.2084 1.77709L52.554 1.59138Z" fill="white"/>
<g clip-path="url(#clip0_255_5191)">
<mask id="mask0_255_5191" style="mask-type:luminance" maskUnits="userSpaceOnUse" x="0" y="3" width="4" height="5">
<path d="M0.00034523 3H4V7.00022H0.00034523V3Z" fill="white"/>
</mask>
<g mask="url(#mask0_255_5191)">
<path fill-rule="evenodd" clip-rule="evenodd" d="M-1 3H5.00005V7.00022H-1V3Z" fill="white"/>
<path d="M2.00007 6.24374C2.68675 6.24374 3.24341 5.68708 3.24341 5.00041C3.24341 4.31373 2.68675 3.75707 2.00007 3.75707C1.31339 3.75707 0.756733 4.31373 0.756733 5.00041C0.756733 5.68708 1.31339 6.24374 2.00007 6.24374Z" fill="#BC002D"/>
</g>
</g>
<defs>
<clipPath id="clip0_255_5191">
<rect y="3" width="4" height="4" rx="2" fill="white"/>
</clipPath>
</defs>
</svg>
