<svg width="54" height="41" viewBox="0 0 54 41" fill="none" xmlns="http://www.w3.org/2000/svg">
<path d="M4.69161 26.4694L5.08364 26.4535L5.12844 28.3326L6.55672 29.5445L6.31465 29.8344L4.75735 28.5116L4.69161 26.4694ZM5.31851 26.167L5.69612 26.1581L5.75533 28.0303L7.18361 29.2421L6.94154 29.5321L5.38424 28.2093L5.31851 26.167Z" fill="white"/>
<path d="M8.92978 24.5687L10.4911 27.768L10.1137 27.9522L9.99261 27.7042L8.40731 28.4778L8.53011 28.7294L8.15266 28.9137L6.58958 25.7107L8.92978 24.5687ZM8.22837 28.1111L9.81367 27.3375L9.34176 26.3705L7.75646 27.1442L8.22837 28.1111ZM7.57753 26.7775L9.16282 26.0038L8.73127 25.1195L7.14597 25.8932L7.57753 26.7775Z" fill="white"/>
<path d="M10.042 24.6517L11.4114 23.992L11.1163 23.3794L11.4983 23.1954L11.7934 23.808L13.1592 23.1502L13.3345 23.5142L12.2498 24.0366C12.7428 24.4518 13.3738 24.7295 14.1428 24.8697L14.0432 25.3172C13.2076 25.0849 12.519 24.7061 11.9739 24.1828L12.5901 25.4622L13.3217 25.1098L13.497 25.4738L12.7655 25.8261L13.1022 26.5253L12.7202 26.7093L12.3835 26.0101L11.6807 26.3486L11.5054 25.9846L12.2081 25.6462L11.5919 24.3668C11.6814 25.2162 11.5408 26.012 11.1647 26.7614L10.7748 26.5141C11.1493 25.872 11.322 25.1983 11.302 24.4932L10.2173 25.0156L10.042 24.6517Z" fill="white"/>
<path d="M13.6101 22.2325C13.9233 22.2984 14.2001 22.3813 14.4408 22.481L14.305 22.862C14.0859 22.7611 13.8056 22.671 13.4676 22.599L13.6101 22.2325ZM13.6077 23.4869L14.4452 23.0967L15.1463 24.6014C15.2076 24.4581 15.2726 24.3042 15.3399 24.1361L15.6309 24.4859C15.493 24.8149 15.3287 25.1254 15.1415 25.4244L14.8377 25.1512C14.874 25.0681 14.8745 24.984 14.8373 24.9042L14.2443 23.6316L13.7766 23.8495L13.6077 23.4869ZM15.1084 23.3172L16.8778 22.4928L17.0383 22.8372C17.082 23.1963 17.042 23.546 16.9164 23.8825C17.2087 23.9228 17.5398 23.923 17.9148 23.8851L17.8638 24.306C17.441 24.3265 17.0657 24.3072 16.7436 24.241C16.5537 24.5722 16.2836 24.8922 15.926 25.2045L15.5671 24.9834C15.8898 24.7006 16.1411 24.4159 16.3244 24.1275C15.9842 24.0035 15.7028 23.8258 15.484 23.5835L15.2774 23.6798L15.1084 23.3172ZM15.8394 23.4179C16.0154 23.5874 16.2338 23.7151 16.5 23.7941C16.6072 23.5411 16.6625 23.2903 16.666 23.0327L15.8394 23.4179ZM14.7012 21.7992L16.0064 21.191L16.3561 21.9415C16.3933 22.0213 16.4571 22.0445 16.5477 22.0023L16.8595 21.857L17.02 22.2014L16.6067 22.394C16.3348 22.5207 16.1415 22.4563 16.0232 22.2025L15.7985 21.7203L15.2402 21.9805L15.2858 22.0784C15.4615 22.4555 15.4026 22.8404 15.1128 23.2225L14.7239 23.0507C14.9693 22.7819 15.0407 22.5279 14.9309 22.2923L14.7012 21.7992Z" fill="white"/>
<path d="M18.4097 21.2371L19.3536 20.8199L18.8847 19.7589L19.2798 19.5843L19.7488 20.6453L20.6451 20.2491L20.8133 20.6296L19.9169 21.0258L20.7837 22.9868L20.3885 23.1614L19.5218 21.2004L18.5779 21.6176L18.4097 21.2371ZM17.3098 20.49C17.6195 20.5674 17.8963 20.6593 18.1386 20.7622L17.9932 21.1457C17.7798 21.0389 17.4993 20.9485 17.1555 20.8731L17.3098 20.49ZM17.2686 21.7721L18.1393 21.3872L18.8152 22.9165C18.8809 22.7782 18.9491 22.6256 19.0197 22.4588L19.2915 22.8066C19.1507 23.1313 18.9856 23.4404 18.7924 23.7357L18.4941 23.4564C18.5357 23.3725 18.5395 23.292 18.5056 23.2152L17.9315 21.9164L17.4303 22.138L17.2686 21.7721Z" fill="white"/>
<path d="M20.7413 19.3013L22.3464 18.6399L22.5018 19.0171L21.9767 19.2335L22.2556 19.9103L22.6291 19.7564L22.7114 19.9561C22.7624 19.4289 22.7043 18.8471 22.5394 18.2056L22.9387 18.093C22.9837 18.2864 23.0221 18.4739 23.0485 18.6534L24.1173 18.213L24.2727 18.5902L24.036 18.6877C24.2427 19.2731 24.3107 19.8162 24.238 20.3221C24.567 20.5326 24.9071 20.665 25.2568 20.7156L25.1705 21.1362C24.8141 21.0797 24.4688 20.9451 24.1397 20.7346C24.0087 21.1304 23.7881 21.4982 23.4745 21.8394L23.1067 21.6189C23.4515 21.2691 23.6816 20.8931 23.7918 20.4886C23.5544 20.3009 23.3232 20.076 23.1021 19.8124C23.0861 19.9834 23.0633 20.1485 23.0337 20.3078L22.7378 20.1356L22.4049 20.2727L22.7387 21.0827C22.8875 20.9608 23.0326 20.8404 23.1665 20.7246L23.3129 21.0797C22.925 21.4299 22.4624 21.7979 21.9233 22.1801L21.6735 21.8678L21.866 21.7365L21.1771 20.0649L21.5358 19.917L22.1897 21.5036C22.2656 21.4464 22.3393 21.3943 22.4078 21.3402L21.6031 19.3875L20.8968 19.6786L20.7413 19.3013ZM23.8615 20.0489C23.8827 19.6594 23.8169 19.2582 23.6625 18.8416L23.0967 19.0748C23.1026 19.1416 23.1069 19.2047 23.1098 19.2641C23.3544 19.5743 23.6045 19.8347 23.8615 20.0489Z" fill="white"/>
<path d="M24.8528 18.5132L26.3271 17.9565L26.248 17.7469L26.6035 17.6127L26.3379 17.5547C26.4084 17.2545 26.4259 16.9614 26.3916 16.6665L26.7968 16.6075C26.8027 16.6908 26.8085 16.7742 26.8115 16.85L27.8667 16.4515L27.9967 16.7958L27.383 17.0275C27.49 17.1069 27.5842 17.1867 27.6645 17.2633L27.3734 17.5229C27.2495 17.3986 27.121 17.2847 26.9864 17.1773L26.8067 17.2451C26.7958 17.3861 26.7769 17.5172 26.7477 17.6437L26.6545 17.6233L26.7238 17.8067L28.1981 17.2499L28.331 17.6016L26.8566 18.1584L26.9273 18.3455L28.1547 17.882L28.4317 18.6154C28.5136 18.8325 28.4348 18.9862 28.1991 19.0753L27.9708 19.1615C28.2954 19.2056 28.6489 19.2133 29.029 19.1894L28.9574 19.6227C28.36 19.6259 27.8106 19.5298 27.3046 19.3446L27.6296 20.2053L27.233 20.3551L26.9136 19.5094C26.6741 19.9847 26.359 20.4072 25.9708 20.7719L25.6074 20.5115C26.105 20.097 26.4907 19.6349 26.7666 19.1202L26.6592 18.8358L25.8809 19.1298L26.1465 19.8333L25.7611 19.9788L25.3668 18.9348L26.5306 18.4953L26.46 18.3082L24.9856 18.865L24.8528 18.5132ZM27.1661 18.9779C27.4022 19.0598 27.6566 19.1219 27.9352 19.1578L27.7173 18.8638L27.9676 18.7907C28.0163 18.7723 28.0312 18.7325 28.0114 18.6801L27.8941 18.3695L27.0559 18.686L27.1661 18.9779ZM25.2313 17.8401C25.2008 17.997 25.16 18.1492 25.1088 18.2968L24.6915 18.2107C24.8227 17.879 24.8833 17.5525 24.8709 17.2365L25.2762 17.1775C25.2782 17.2623 25.2766 17.3484 25.2735 17.4308L26.1416 17.103L26.2716 17.4472L25.7552 17.6422C25.8622 17.7216 25.9602 17.8 26.0456 17.8789L25.7433 18.1427C25.6194 18.0185 25.4894 17.9008 25.3548 17.7935L25.2313 17.8401Z" fill="white"/>
<path d="M31.3068 14.93L31.6175 15.1926C31.3096 15.4006 30.9461 15.6073 30.5254 15.809L30.7076 16.3174L31.8598 15.9046L31.9974 16.2887L30.8452 16.7015L31.0232 17.1985L32.4579 16.6846L32.5942 17.0649L31.1595 17.5789L31.4266 18.3245C31.5183 18.5805 31.4249 18.7585 31.1537 18.8556L30.5701 19.0647L30.3434 18.7168C30.5371 18.6644 30.7168 18.6085 30.89 18.5464C30.9879 18.5114 31.0258 18.4511 30.9975 18.372L30.7641 17.7205L29.1938 18.2831L29.0576 17.9027L30.6278 17.3402L30.4498 16.8431L29.192 17.2937L29.0544 16.9096L30.3122 16.459L30.1422 15.9846C29.7737 16.1421 29.3762 16.3015 28.9431 16.4566L28.6921 16.1471C29.7577 15.7654 30.6281 15.3601 31.3068 14.93Z" fill="white"/>
<path d="M32.5448 16.106L32.9621 15.9664L32.5104 14.616L33.6864 14.2226L34.1381 15.5731L34.4643 15.464L34.0126 14.1135L35.1924 13.7189L35.6441 15.0694L36.0196 14.9438L36.1478 15.3269L35.7722 15.4525L36.1833 16.6816C36.2696 16.9395 36.1724 17.1155 35.8955 17.2081L35.5692 17.3172L35.3425 16.9797C35.455 16.9505 35.56 16.9238 35.6548 16.8921C35.7534 16.8591 35.7875 16.7845 35.7494 16.6707L35.3853 15.5819L34.968 15.7215L34.9908 15.7898C35.2028 16.4486 35.2628 17.019 35.1722 17.5048L34.7964 17.3395C34.8529 16.941 34.7942 16.4756 34.6242 15.942L34.5925 15.8471L34.2662 15.9562L34.6761 17.1815C34.7623 17.4395 34.6854 17.6128 34.4464 17.6928L34.1088 17.8057L33.8782 17.4695C33.9983 17.4377 34.1109 17.4085 34.2095 17.3755C34.2778 17.3527 34.2929 17.2844 34.2561 17.1744L33.8907 16.0819L33.4772 16.2202L33.4975 16.2809C33.7107 16.9434 33.7543 17.5278 33.6258 18.0263L33.2436 17.8547C33.3343 17.4447 33.2908 16.9742 33.1207 16.4406L33.0903 16.3496L32.673 16.4891L32.5448 16.106ZM35.2571 15.1988L34.9247 14.2049L34.5074 14.3445L34.8399 15.3384L35.2571 15.1988ZM33.7625 15.6987L33.4301 14.7048L33.0166 14.8431L33.349 15.837L33.7625 15.6987Z" fill="white"/>
<path d="M37.2579 13.3291C37.5215 13.2474 37.763 13.2564 37.9823 13.356C38.1977 13.4567 38.3421 13.6256 38.4179 13.8701C38.4912 14.107 38.4658 14.3494 38.3504 14.5987C38.2789 14.7465 38.1328 14.9508 37.921 15.2132C37.6988 15.483 37.5804 15.6956 37.5619 15.8521L38.9069 15.4355L39.0287 15.8291L37.1259 16.4184C37.0395 16.1395 37.0529 15.8715 37.1724 15.6084C37.2362 15.463 37.3943 15.2298 37.644 14.9138C37.7819 14.7371 37.8722 14.596 37.9238 14.4921C38.0008 14.3217 38.017 14.1576 37.9696 14.0048C37.9235 13.8557 37.8471 13.7579 37.7482 13.709C37.6455 13.6613 37.5164 13.6636 37.3598 13.7121C37.1916 13.7641 37.0833 13.8605 37.0347 14.0012C36.9838 14.1342 36.9888 14.3127 37.0475 14.529L36.6004 14.6675C36.5096 14.3606 36.5217 14.0889 36.6395 13.8472C36.7575 13.5929 36.9637 13.4202 37.2579 13.3291Z" fill="white"/>
<path d="M40.2443 12.4401C40.5636 12.3492 40.8509 12.4088 41.1084 12.6266C41.35 12.8323 41.5321 13.1506 41.6548 13.5815C41.7775 14.0123 41.7903 14.3788 41.6933 14.6809C41.5881 14.9979 41.3764 15.2037 41.0571 15.2946C40.7339 15.3866 40.4455 15.3232 40.193 15.1081C39.9514 14.9024 39.7693 14.5841 39.6466 14.1533C39.5239 13.7224 39.5111 13.3559 39.608 13.0538C39.7083 12.7341 39.9211 12.5321 40.2443 12.4401ZM40.3527 12.821C40.1335 12.8834 40.0135 13.0465 39.9951 13.3179C39.9807 13.5008 40.0146 13.7366 40.0967 14.0251C40.1778 14.3098 40.2732 14.528 40.3829 14.6797C40.5404 14.8969 40.7294 14.9762 40.9486 14.9138C41.1641 14.8524 41.2829 14.6855 41.3062 14.4168C41.3196 14.2301 41.2857 13.9943 41.2047 13.7096C41.1225 13.4211 41.0271 13.2029 40.9184 13.055C40.756 12.8351 40.5682 12.7596 40.3527 12.821Z" fill="white"/>
<path d="M43.1219 11.6578C43.4434 11.5749 43.7291 11.6417 43.981 11.8659C44.2174 12.0776 44.3914 12.4004 44.5033 12.8342C44.6151 13.268 44.6188 13.6347 44.5142 13.9343C44.4011 14.2485 44.1842 14.4489 43.8628 14.5318C43.5374 14.6157 43.2507 14.545 43.0036 14.3237C42.7673 14.112 42.5932 13.7892 42.4814 13.3554C42.3695 12.9216 42.3659 12.5549 42.4704 12.2553C42.5787 11.9382 42.7965 11.7416 43.1219 11.6578ZM43.2207 12.0412C43 12.0981 42.876 12.2581 42.8508 12.529C42.8317 12.7115 42.8597 12.9481 42.9346 13.2386C43.0084 13.5252 43.0983 13.7457 43.2042 13.9002C43.3562 14.1212 43.5431 14.2053 43.7639 14.1483C43.9808 14.0924 44.1038 13.9285 44.1339 13.6606C44.1519 13.4741 44.124 13.2376 44.0501 12.951C43.9752 12.6605 43.8853 12.44 43.7804 12.2894C43.6235 12.0654 43.4376 11.9853 43.2207 12.0412Z" fill="white"/>
<path d="M46.0302 10.9487C46.3266 10.8812 46.5823 10.9049 46.7981 11.0239C46.9861 11.1288 47.108 11.2856 47.156 11.4962C47.188 11.6366 47.1844 11.7646 47.1442 11.8763C47.0971 11.9937 47.0144 12.0987 46.8903 12.1845L46.8921 12.1923C47.0288 12.198 47.1597 12.2502 47.2808 12.3498C47.4164 12.4584 47.5056 12.5981 47.5448 12.7697C47.6016 13.0193 47.5534 13.2395 47.4095 13.4364C47.2609 13.6303 47.0213 13.7669 46.6898 13.8425C46.3544 13.9189 46.0792 13.8996 45.8652 13.7884C45.6463 13.6742 45.5113 13.4957 45.4544 13.2461C45.4153 13.0745 45.4313 12.9109 45.5103 12.7534C45.5763 12.6112 45.6677 12.5083 45.7923 12.443L45.7905 12.4352C45.6377 12.4126 45.5176 12.3538 45.4282 12.2675C45.3436 12.1842 45.2848 12.0704 45.2528 11.93C45.2048 11.7194 45.2428 11.5261 45.3707 11.3493C45.5098 11.1494 45.7299 11.0172 46.0302 10.9487ZM46.1129 11.3114C45.9491 11.3488 45.8262 11.4219 45.7492 11.5338C45.6812 11.6314 45.6596 11.7347 45.6854 11.8478C45.7147 11.9765 45.7729 12.0699 45.86 12.128C45.9663 12.1982 46.1134 12.2139 46.3084 12.1694C46.4995 12.1258 46.6293 12.047 46.6946 11.9378C46.7479 11.8477 46.7599 11.7383 46.7306 11.6096C46.7048 11.4965 46.6406 11.4127 46.537 11.3542C46.4151 11.2876 46.2767 11.2741 46.1129 11.3114ZM46.3858 12.5087C46.1908 12.5532 46.0532 12.6337 45.9732 12.7504C45.8922 12.8633 45.873 12.9948 45.9068 13.143C45.9388 13.2834 46.0152 13.385 46.1401 13.4468C46.2611 13.5094 46.4151 13.5195 46.6062 13.4759C46.7934 13.4332 46.931 13.3526 47.0206 13.242C47.0985 13.1339 47.1244 13.0132 47.0924 12.8728C47.0586 12.7246 46.9803 12.6152 46.8672 12.5508C46.7396 12.4773 46.5808 12.4643 46.3858 12.5087Z" fill="white"/>
<path d="M48.0518 10.0912L49.2122 11.7729L48.7455 13.7622L48.3785 13.6728L48.8074 11.8494L47.7427 10.3083L48.0518 10.0912ZM48.7357 9.96192L49.8961 11.6437L49.4294 13.6329L49.0624 13.5435L49.4913 11.7202L48.4109 10.182L48.7357 9.96192Z" fill="white"/>
<g clip-path="url(#clip0_255_5199)">
<mask id="mask0_255_5199" style="mask-type:luminance" maskUnits="userSpaceOnUse" x="0" y="28" width="4" height="5">
<path d="M0.000350952 28H4.00001V32.0002H0.000350952V28Z" fill="white"/>
</mask>
<g mask="url(#mask0_255_5199)">
<path fill-rule="evenodd" clip-rule="evenodd" d="M-1 28H5.00005V32.0002H-1V28Z" fill="white"/>
<path d="M2.00007 31.2437C2.68674 31.2437 3.2434 30.6871 3.2434 30.0004C3.2434 29.3137 2.68674 28.7571 2.00007 28.7571C1.31339 28.7571 0.756729 29.3137 0.756729 30.0004C0.756729 30.6871 1.31339 31.2437 2.00007 31.2437Z" fill="#BC002D"/>
</g>
</g>
<defs>
<clipPath id="clip0_255_5199">
<rect y="28" width="4" height="4" rx="2" fill="white"/>
</clipPath>
</defs>
</svg>
