<svg width="67" height="14" viewBox="0 0 67 14" fill="none" xmlns="http://www.w3.org/2000/svg">
<path d="M6.43026 4.87628L6.76692 5.07776L5.77494 6.67434L6.30592 8.47062L5.94456 8.58057L5.36644 6.62078L6.43026 4.87628ZM7.12035 4.96676L7.44115 5.16616L6.46503 6.76483L6.99602 8.5611L6.63465 8.67106L6.05653 6.71127L7.12035 4.96676Z" fill="white"/>
<path d="M9.15337 5.61201C9.42745 5.64456 9.64442 5.75089 9.8043 5.931C9.9602 6.11064 10.0235 6.32359 9.99334 6.57781C9.96409 6.82408 9.84235 7.03519 9.63557 7.21607C9.5102 7.32202 9.29367 7.44938 8.99346 7.60304C8.68085 7.75927 8.48627 7.90534 8.40573 8.04079L9.80391 8.20683L9.75532 8.61596L7.77722 8.38104C7.81165 8.09108 7.93273 7.85169 8.14886 7.65984C8.26629 7.55294 8.50551 7.40411 8.86208 7.21686C9.05989 7.11145 9.19974 7.0193 9.28908 6.94532C9.42873 6.82092 9.51021 6.67753 9.52908 6.51864C9.54747 6.36373 9.51746 6.24335 9.44698 6.15845C9.37253 6.07307 9.25364 6.0227 9.09079 6.00336C8.91601 5.9826 8.77786 6.02662 8.67632 6.1354C8.57573 6.23624 8.50778 6.40138 8.47342 6.62288L8.00868 6.56769C8.05039 6.25039 8.17194 6.00703 8.37777 5.83409C8.58899 5.64972 8.84752 5.57569 9.15337 5.61201Z" fill="white"/>
<path d="M11.947 5.92602C12.2772 5.96082 12.5215 6.12332 12.6791 6.42148C12.8265 6.70248 12.8767 7.06574 12.8297 7.51127C12.7828 7.9568 12.6579 8.30162 12.4552 8.54572C12.2393 8.80049 11.9661 8.91247 11.6359 8.87767C11.3018 8.84245 11.0579 8.67597 10.9038 8.38221C10.7565 8.10121 10.7063 7.73795 10.7532 7.29242C10.8002 6.84688 10.925 6.50207 11.1277 6.25797C11.34 5.9988 11.6129 5.8908 11.947 5.92602ZM11.9055 6.31984C11.6788 6.29594 11.5067 6.40249 11.3883 6.64743C11.3066 6.81178 11.2501 7.04312 11.2186 7.34147C11.1876 7.63584 11.1947 7.87389 11.2399 8.05563C11.305 8.31589 11.4507 8.45995 11.6774 8.48385C11.9002 8.50733 12.0727 8.39681 12.1946 8.15626C12.2767 7.98793 12.3333 7.75659 12.3643 7.46222C12.3957 7.16387 12.3887 6.92582 12.343 6.74806C12.2744 6.4834 12.1283 6.34332 11.9055 6.31984Z" fill="white"/>
<path d="M14.6254 6.24612L14.9759 6.27818L14.7158 9.12231L14.2497 9.07968L14.4585 6.79721C14.273 6.93689 14.0473 7.03273 13.7775 7.08437L13.8198 6.6223C13.9502 6.60209 14.0907 6.55871 14.2414 6.49216C14.3928 6.41764 14.5207 6.33696 14.6254 6.24612Z" fill="white"/>
<path d="M17.206 6.46013L17.6327 6.49262L17.4906 8.35922L17.9134 8.3914L17.8852 8.76233L17.4624 8.73014L17.4159 9.34038L16.9732 9.30667L17.0197 8.69644L15.6437 8.59169L15.6774 8.14897L17.206 6.46013ZM17.1331 7.0483L16.0508 8.2496L17.0479 8.32551L17.1451 7.04921L17.1331 7.0483Z" fill="white"/>
<path d="M19.3311 6.98338C19.1487 7.25419 18.9248 7.47476 18.6631 7.65329L18.4022 7.28311C18.8131 7.00827 19.1015 6.62685 19.2635 6.13467L19.6907 6.23719C19.6481 6.36313 19.6018 6.48087 19.552 6.59041L21.9607 6.7168L21.9396 7.12024L20.7252 7.05652L20.6982 7.57182L21.7727 7.6282L21.7522 8.01966L20.6776 7.96328L20.6389 8.70226L21.973 8.77227L21.9517 9.1797L20.6175 9.1097L20.5729 9.96053L20.1534 9.93852L20.1981 9.08769L18.4005 8.99337L18.4219 8.58593L19.0371 8.61821L19.0964 7.48777L20.2788 7.54981L20.3058 7.03452L19.3311 6.98338ZM19.4565 8.64022L20.2195 8.68025L20.2582 7.94127L19.4953 7.90124L19.4565 8.64022Z" fill="white"/>
<path d="M23.3728 8.5548L25.7561 8.61146L25.7488 8.91937C25.5474 9.14665 25.3107 9.34108 25.0347 9.50656C25.3597 9.63432 25.7376 9.72733 26.1642 9.79349L25.9755 10.1571C25.4497 10.0566 24.9971 9.90978 24.6255 9.7169C24.2213 9.89134 23.7542 10.0163 23.2282 10.0918L23.0571 9.71562C23.4863 9.66981 23.8724 9.58696 24.2153 9.47108C23.9871 9.30561 23.7955 9.121 23.6403 8.91726L23.3644 8.9107L23.3728 8.5548ZM24.0961 8.92809C24.2408 9.07157 24.4098 9.19962 24.6073 9.30835C24.8178 9.20532 25.0087 9.08583 25.1798 8.95386L24.0961 8.92809ZM23.2442 7.73951L23.2397 7.92746C23.2028 8.80683 23.046 9.5113 22.7613 10.0407L22.4522 9.74926C22.6706 9.31432 22.7972 8.70116 22.8238 7.91757L22.8547 6.61794L24.3583 6.65368C24.3202 6.57275 24.278 6.49573 24.2317 6.42261L24.6773 6.36118C24.7152 6.45011 24.7568 6.55112 24.7941 6.66404L26.1298 6.69579L26.1205 7.08768L23.2613 7.01971L23.2533 7.35562L23.8211 7.36912L23.827 7.12119L24.2349 7.13088L24.229 7.37881L25.1168 7.39992L25.1227 7.14799L25.5266 7.15759L25.5206 7.40952L26.1125 7.42359L26.1033 7.80748L25.5115 7.79341L25.4969 8.40924L23.7974 8.36884L23.812 7.75301L23.2442 7.73951ZM24.2199 7.76271L24.2134 8.03463L25.1012 8.05573L25.1076 7.78381L24.2199 7.76271Z" fill="white"/>
<path d="M29.6683 6.5492L29.6758 10.1092L29.2558 10.1101L29.2552 9.83408L27.4912 9.8378L27.4918 10.1178L27.0718 10.1187L27.0643 6.55469L29.6683 6.5492ZM27.4904 9.4298L29.2544 9.42608L29.2521 8.35008L27.4881 8.3538L27.4904 9.4298ZM27.4872 7.9458L29.2512 7.94208L29.2492 6.95809L27.4852 6.9618L27.4872 7.9458Z" fill="white"/>
<path d="M30.4227 7.10709L31.9423 7.07191L31.9266 6.39209L32.3505 6.38228L32.3662 7.0621L33.8818 7.02701L33.8912 7.4309L32.6875 7.45877C32.965 8.0405 33.425 8.55399 34.0675 8.99924L33.7919 9.36572C33.1269 8.80896 32.6562 8.17969 32.3758 7.47799L32.4087 8.8976L33.2205 8.87881L33.2298 9.2827L32.4181 9.3015L32.436 10.0773L32.0121 10.0871L31.9942 9.31131L31.2144 9.32936L31.205 8.92547L31.9848 8.90742L31.952 7.4878C31.6826 8.29825 31.226 8.965 30.574 9.49223L30.321 9.10598C30.9272 8.67584 31.3628 8.13361 31.6358 7.48312L30.4321 7.51098L30.4227 7.10709Z" fill="white"/>
<path d="M34.8181 6.35745C35.0815 6.5392 35.3049 6.72253 35.4883 6.90744L35.2159 7.20642C35.0528 7.02872 34.829 6.83739 34.5451 6.64044L34.8181 6.35745ZM34.3313 7.51355L35.2546 7.4771L35.3201 9.13581C35.4319 9.02732 35.5514 8.91051 35.6784 8.7814L35.8117 9.21648C35.5573 9.46671 35.2859 9.68959 34.9977 9.89312L34.823 9.52372C34.8886 9.46109 34.9216 9.38373 34.9181 9.29579L34.8627 7.89289L34.3471 7.91324L34.3313 7.51355ZM35.7811 7.93669L37.7316 7.85969L37.7466 8.2394C37.6483 8.58755 37.4763 8.89457 37.2304 9.15647C37.4845 9.30657 37.7898 9.43462 38.1504 9.54448L37.9408 9.91304C37.5428 9.76863 37.2041 9.60586 36.9326 9.42043C36.6295 9.65256 36.2567 9.84342 35.8063 9.9933L35.5606 9.65073C35.9675 9.51457 36.3093 9.34896 36.5898 9.15374C36.3239 8.90804 36.133 8.63536 36.0247 8.32739L35.7969 8.33638L35.7811 7.93669ZM36.4164 8.31192C36.5134 8.53627 36.6655 8.73843 36.8806 8.91408C37.0771 8.72218 37.225 8.51219 37.3277 8.27595L36.4164 8.31192ZM35.9919 6.37917L37.4308 6.32236L37.4634 7.14972C37.4669 7.23765 37.5167 7.28372 37.6167 7.27978L37.9604 7.26621L37.9754 7.64591L37.5197 7.6639C37.22 7.67573 37.0666 7.54168 37.0555 7.2619L37.0345 6.73031L36.419 6.75461L36.4233 6.86253C36.4397 7.2782 36.2366 7.61047 35.8218 7.85102L35.5294 7.54232C35.8596 7.38917 36.0236 7.18254 36.0133 6.92274L35.9919 6.37917Z" fill="white"/>
<path d="M39.7303 7.24564L40.761 7.19297L40.7018 6.03449L41.1332 6.01244L41.1924 7.17093L42.1711 7.12092L42.1924 7.53638L41.2136 7.58639L41.323 9.72759L40.8916 9.74964L40.7822 7.60843L39.7515 7.6611L39.7303 7.24564ZM38.9697 6.15503C39.2313 6.33792 39.4571 6.52264 39.6466 6.7052L39.3739 7.01152C39.2127 6.83552 38.983 6.651 38.6887 6.45776L38.9697 6.15503ZM38.4734 7.3379L39.4241 7.28932L39.5095 8.95914C39.6202 8.85335 39.7383 8.73517 39.8638 8.60459L39.9935 9.02653C39.7461 9.27948 39.4815 9.50928 39.1957 9.71614L39.0167 9.34879C39.0855 9.2852 39.1178 9.21145 39.1135 9.12756L39.0411 7.70941L38.4938 7.73738L38.4734 7.3379Z" fill="white"/>
<path d="M43.1053 9.57562L42.762 9.59671L42.6504 9.21484C42.7552 9.22443 42.8515 9.22653 42.9433 9.22089C43.0311 9.21549 43.0719 9.16089 43.0657 9.06108L43.0159 8.25061C42.8834 8.31085 42.7466 8.36734 42.6138 8.42359L42.4897 8.03447C42.6589 7.984 42.8274 7.92155 42.9914 7.85136L42.9399 7.01294L42.5008 7.03992L42.4765 6.64466L42.9156 6.61769L42.8735 5.93098L43.2807 5.90597L43.3229 6.59267L43.6982 6.56962L43.7224 6.96488L43.3472 6.98793L43.3884 7.65866C43.5122 7.58694 43.636 7.51521 43.7594 7.4355L43.7844 7.84273C43.6605 7.91446 43.5367 7.98618 43.4126 8.05392L43.4791 9.13588C43.496 9.41136 43.3689 9.55944 43.1053 9.57562ZM44.2785 7.73223C44.2633 8.46254 44.1321 9.06771 43.8854 9.55176L43.5528 9.29166C43.8036 8.80737 43.9113 8.14752 43.876 7.31211L43.7951 5.9946L45.9311 5.8634L45.9551 6.25466L44.2144 6.36158L44.275 7.34772L46.0516 7.23859L46.0752 7.62187L45.3805 7.66454C45.4027 7.83149 45.4445 7.98923 45.5097 8.13751C45.6396 8.03335 45.7637 7.90149 45.8777 7.73419L46.1616 7.98526C46.0169 8.17448 45.8538 8.32476 45.6686 8.44034C45.824 8.68727 46.0376 8.90258 46.3059 9.0945L46.0323 9.40385C45.4505 8.93464 45.1187 8.3619 45.0371 7.68563L44.8335 7.69814L44.9107 8.95577C45.0555 8.89879 45.1963 8.84205 45.3326 8.77757L45.4458 9.11927C45.1931 9.247 44.8796 9.36244 44.5097 9.47333L44.3726 9.1331C44.4812 9.07433 44.5317 8.98306 44.5239 8.8553L44.4542 7.72144L44.2785 7.73223ZM44.3927 6.6552L45.838 6.56643L45.8611 6.94172L44.4158 7.03049L44.3927 6.6552Z" fill="white"/>
<path d="M46.4298 7.47202L48.6434 7.30373C48.882 6.74804 49.077 6.14753 49.2205 5.50279L49.6472 5.62681C49.4763 6.28165 49.2893 6.8294 49.0821 7.27037L50.0833 7.19426L50.1139 7.5971L46.4604 7.87485L46.4298 7.47202ZM46.9285 5.90571C47.1466 6.24214 47.3595 6.61507 47.5671 7.02451L47.1911 7.24966C46.9909 6.83164 46.7777 6.45472 46.5522 6.12687L46.9285 5.90571ZM47.8718 5.59731C48.0875 5.95398 48.2982 6.35115 48.5037 6.78483L48.1316 7.00968C47.9296 6.56772 47.7146 6.16687 47.4912 5.81479L47.8718 5.59731ZM47.5231 7.92243L47.9123 8.08139C47.6799 8.56038 47.3908 8.9795 47.0494 9.34243L46.6836 9.12153C47.0186 8.77914 47.3012 8.38057 47.5231 7.92243ZM49.089 7.78332C49.5206 8.18376 49.852 8.53164 50.0916 8.83435L49.7327 9.12639C49.487 8.79607 49.1584 8.43193 48.7508 8.02968L49.089 7.78332Z" fill="white"/>
<path d="M51.8711 5.25045L52.1737 5.22181C52.7231 5.72025 53.3373 6.09605 54.0198 6.34485L53.8312 6.77252C53.589 6.67491 53.3611 6.55987 53.1444 6.43574L53.1716 6.72245L51.1845 6.91054L51.1558 6.60789C50.9587 6.77521 50.7449 6.93607 50.5184 7.0901L50.257 6.70502C50.9214 6.29659 51.4581 5.81186 51.8711 5.25045ZM51.267 6.50898L52.9992 6.34501C52.6497 6.13301 52.3374 5.88936 52.0578 5.61046C51.8388 5.92851 51.5781 6.23042 51.267 6.50898ZM50.5977 7.3759L53.8312 7.06984L53.8697 7.47602L52.018 7.65129C51.8801 7.97774 51.711 8.27098 51.5099 8.52305C52.0444 8.44031 52.5659 8.34675 53.07 8.23877C52.941 8.10634 52.8036 7.97069 52.6578 7.8318L52.9612 7.59818C53.3605 7.95413 53.6717 8.27022 53.8979 8.53809L53.5744 8.8138C53.4969 8.71667 53.4151 8.61593 53.3296 8.51956C52.7214 8.67355 51.96 8.82196 51.0414 8.96516L50.8956 8.61333C50.9929 8.58002 51.0608 8.53341 51.1001 8.48148C51.277 8.22768 51.4209 7.96495 51.5361 7.6969L50.6361 7.78209L50.5977 7.3759Z" fill="white"/>
<path d="M55.2213 5.73052C55.0872 6.02826 54.9038 6.28347 54.676 6.50363L54.3563 6.18284C54.715 5.84254 54.9348 5.4179 55.0113 4.90542L55.4497 4.93433C55.429 5.06566 55.4033 5.18952 55.3727 5.3059L57.7681 5.02368L57.8154 5.4249L56.6077 5.56718L56.6681 6.07964L57.7367 5.95374L57.7826 6.34305L56.714 6.46895L56.8006 7.20386L58.1274 7.04754L58.1751 7.45274L56.8483 7.60906L56.948 8.45521L56.5309 8.50435L56.4312 7.6582L54.6436 7.86881L54.5958 7.46362L55.2076 7.39154L55.0751 6.26732L56.251 6.12878L56.1906 5.61633L55.2213 5.73052ZM55.6247 7.3424L56.3835 7.25301L56.2969 6.51809L55.5381 6.60748L55.6247 7.3424Z" fill="white"/>
<path d="M59.782 5.89834L59.8417 6.31003C59.7163 6.39289 59.5869 6.47632 59.4609 6.55523L59.6229 7.67154C59.6619 7.94073 59.5474 8.0988 59.2861 8.1367L58.9101 8.19125L58.7577 7.80917C58.8747 7.80835 58.9834 7.80472 59.0863 7.7898C59.1734 7.77716 59.214 7.72277 59.2002 7.62776L59.0767 6.77667C58.9197 6.86412 58.7575 6.94424 58.5987 7.01981L58.4366 6.62701C58.6362 6.55361 58.83 6.4689 59.0182 6.3729L58.901 5.56535L58.3745 5.64172L58.3177 5.24982L58.8442 5.17345L58.7466 4.50049L59.1543 4.44135L59.2519 5.11431L59.6517 5.05631L59.7086 5.44821L59.3088 5.5062L59.4029 6.15541C59.5283 6.07255 59.6577 5.98912 59.782 5.89834ZM60.3726 6.20876L60.6264 7.95845L60.2345 8.0153L59.7212 4.47633L61.5817 4.20645C61.6506 4.68148 61.6694 5.00615 61.6409 5.17195C61.6073 5.33042 61.4559 5.42917 61.1868 5.46822L60.8859 5.51186L60.724 5.17563C60.7833 5.16701 60.8591 5.16006 60.9502 5.14685C61.0412 5.13365 61.1079 5.11993 61.1543 5.10512C61.1922 5.0875 61.2243 5.05858 61.2424 5.01555C61.2586 4.96065 61.2606 4.83506 61.2398 4.63598L60.1671 4.79159L60.3181 5.8327L61.8105 5.61622L61.8621 5.97249C61.8608 6.38092 61.788 6.74312 61.6433 7.05512C61.8438 7.18367 62.0743 7.29574 62.3347 7.39135L62.1041 7.75219C61.8578 7.64241 61.642 7.52012 61.4528 7.38589C61.2977 7.59836 61.1058 7.77979 60.8775 7.93415L60.6268 7.59867C60.833 7.45963 60.9995 7.29805 61.127 7.11789C60.8367 6.84472 60.6341 6.5346 60.5231 6.18694L60.3726 6.20876ZM60.8873 6.13411C60.9755 6.38 61.1162 6.59805 61.3095 6.78827C61.4024 6.56462 61.4596 6.31786 61.4771 6.04856L60.8873 6.13411Z" fill="white"/>
<path d="M62.3082 3.93655L63.4483 5.63218L62.9576 7.61567L62.5918 7.52184L63.0426 5.7038L61.9966 4.14997L62.3082 3.93655ZM62.9936 3.81556L64.1337 5.51119L63.643 7.49468L63.2772 7.40086L63.728 5.58281L62.6662 4.03177L62.9936 3.81556Z" fill="white"/>
<g clip-path="url(#clip0_255_5247)">
<mask id="mask0_255_5247" style="mask-type:luminance" maskUnits="userSpaceOnUse" x="0" y="4" width="5" height="5">
<path d="M0.400269 4H4.39993V8.00022H0.400269V4Z" fill="white"/>
</mask>
<g mask="url(#mask0_255_5247)">
<path fill-rule="evenodd" clip-rule="evenodd" d="M-0.600098 4H5.39996V8.00022H-0.600098V4Z" fill="white"/>
<path d="M2.39995 7.24374C3.08663 7.24374 3.64329 6.68708 3.64329 6.0004C3.64329 5.31373 3.08663 4.75706 2.39995 4.75706C1.71328 4.75706 1.15662 5.31373 1.15662 6.0004C1.15662 6.68708 1.71328 7.24374 2.39995 7.24374Z" fill="#BC002D"/>
</g>
</g>
<defs>
<clipPath id="clip0_255_5247">
<rect x="0.399902" y="4" width="4" height="4" rx="2" fill="white"/>
</clipPath>
</defs>
</svg>
