<svg width="66" height="22" viewBox="0 0 66 22" fill="none" xmlns="http://www.w3.org/2000/svg">
<path d="M4.96427 13.1794L5.35662 13.1792L5.32625 15.0586L6.70493 16.3266L6.45146 16.6066L4.9483 15.2226L4.96427 13.1794ZM5.60275 12.9023L5.98042 12.9085L5.96473 14.7815L7.34341 16.0495L7.08994 16.3296L5.58678 14.9455L5.60275 12.9023Z" fill="white"/>
<path d="M7.74797 12.4988C8.00624 12.4015 8.2478 12.3959 8.47266 12.4822C8.69378 12.5699 8.84806 12.7297 8.93833 12.9693C9.02578 13.2014 9.01493 13.4448 8.91469 13.7006C8.8522 13.8524 8.71864 14.0651 8.52292 14.3398C8.31738 14.6224 8.21193 14.8417 8.20281 14.999L9.52037 14.5025L9.66565 14.8881L7.80161 15.5905C7.69864 15.3172 7.69587 15.049 7.79937 14.7792C7.85438 14.6302 7.99818 14.3879 8.22846 14.0575C8.35551 13.8728 8.4372 13.7266 8.48244 13.6198C8.54911 13.4451 8.5554 13.2803 8.49898 13.1306C8.44397 12.9846 8.36189 12.8916 8.26023 12.8486C8.15483 12.8071 8.0261 12.8172 7.87263 12.875C7.70794 12.9371 7.60558 13.0398 7.56554 13.1831C7.52269 13.3189 7.53842 13.4968 7.60993 13.7092L7.17199 13.8743C7.06289 13.5734 7.05871 13.3014 7.16178 13.0531C7.26436 12.7922 7.45975 12.6074 7.74797 12.4988Z" fill="white"/>
<path d="M10.7093 11.4499C11.0244 11.3451 11.314 11.3922 11.5808 11.5986C11.8311 11.7935 12.0269 12.1036 12.1682 12.5287C12.3096 12.9538 12.3384 13.3194 12.2546 13.6255C12.1633 13.9467 11.9608 14.1616 11.6457 14.2663C11.3269 14.3723 11.036 14.3215 10.7743 14.1176C10.524 13.9226 10.3282 13.6126 10.1869 13.1875C10.0455 12.7623 10.0167 12.3968 10.1004 12.0907C10.1867 11.767 10.3905 11.5559 10.7093 11.4499ZM10.8343 11.8257C10.6179 11.8976 10.5052 12.0657 10.4987 12.3377C10.4922 12.5211 10.5363 12.7551 10.631 13.0398C10.7243 13.3207 10.8292 13.5345 10.9454 13.6814C11.1122 13.8915 11.3044 13.9625 11.5208 13.8905C11.7333 13.8199 11.8448 13.6479 11.8564 13.3785C11.8616 13.1913 11.8175 12.9572 11.7241 12.6764C11.6295 12.3917 11.5246 12.1778 11.4097 12.0348C11.2378 11.8222 11.0468 11.755 10.8343 11.8257Z" fill="white"/>
<path d="M13.0662 10.7624L13.4032 10.6608L14.2272 13.3954L13.7791 13.5304L13.1178 11.3359C12.9981 11.5349 12.8248 11.7083 12.5939 11.8572L12.4601 11.4129C12.5734 11.3453 12.6875 11.2525 12.8023 11.1344C12.9147 11.0085 13.0031 10.8858 13.0662 10.7624Z" fill="white"/>
<path d="M14.663 10.2928L16.3423 9.83693L16.4502 10.2345L15.1338 10.5919L15.262 11.3695L15.2736 11.3663C15.3355 11.2583 15.4152 11.1704 15.5167 11.1014C15.6066 11.0355 15.7133 10.9858 15.8368 10.9523C16.0955 10.8821 16.3308 10.9094 16.5391 11.0352C16.7473 11.1611 16.8962 11.3735 16.9769 11.6707C17.0544 11.9564 17.0092 12.2173 16.8423 12.4575C16.6856 12.6741 16.4721 12.8191 16.198 12.8935C15.9471 12.9616 15.7121 12.9508 15.4978 12.8639C15.2562 12.7678 15.0926 12.5926 15.0041 12.3431L15.448 12.2225C15.5082 12.3679 15.5965 12.4641 15.7168 12.5102C15.8185 12.5489 15.9476 12.5511 16.0981 12.5103C16.2603 12.4663 16.3856 12.3783 16.4703 12.2476C16.5512 12.1179 16.5724 11.967 16.5263 11.7972C16.476 11.6119 16.386 11.4788 16.265 11.3998C16.143 11.3168 15.9904 11.3044 15.8129 11.3526C15.6932 11.3851 15.5942 11.4327 15.5208 11.4982C15.4369 11.5707 15.3824 11.6601 15.3546 11.7713L14.9338 11.8855L14.663 10.2928Z" fill="white"/>
<path d="M17.9858 9.80531C17.8863 10.1163 17.7331 10.3907 17.5318 10.6353L17.1777 10.3529C17.4954 9.9741 17.6656 9.52725 17.6834 9.00939L18.1223 8.98833C18.1166 9.12118 18.1051 9.24715 18.0879 9.36625L20.4358 8.81387L20.5283 9.20713L19.3447 9.48561L19.4628 9.9879L20.5102 9.74148L20.6 10.1231L19.5526 10.3695L19.7221 11.0898L21.0226 10.7839L21.116 11.181L19.8155 11.487L20.0106 12.3163L19.6018 12.4125L19.4067 11.5832L17.6545 11.9954L17.5611 11.5982L18.1607 11.4571L17.9014 10.3552L19.054 10.0841L18.9358 9.5818L17.9858 9.80531ZM18.5695 11.361L19.3132 11.186L19.1438 10.4657L18.4001 10.6406L18.5695 11.361Z" fill="white"/>
<path d="M22.3876 10.2359L24.7261 9.77203L24.786 10.0741C24.6389 10.3398 24.4502 10.5812 24.2169 10.8028C24.562 10.8567 24.951 10.8651 25.3818 10.8368L25.2768 11.2328C24.7418 11.2492 24.268 11.2045 23.8634 11.0972C23.5068 11.3555 23.0782 11.5792 22.5813 11.7675L22.3324 11.4376C22.7413 11.2994 23.1001 11.1344 23.4094 10.9466C23.1507 10.8348 22.9235 10.6964 22.7276 10.5314L22.4569 10.5851L22.3876 10.2359ZM23.1749 10.4427C23.3473 10.5512 23.5401 10.6393 23.7566 10.7024C23.9396 10.556 24.0998 10.3978 24.2382 10.2317L23.1749 10.4427ZM22.0845 9.46819L22.121 9.6526C22.2766 10.5189 22.277 11.2406 22.1145 11.8193L21.7493 11.6022C21.8677 11.1301 21.8577 10.5041 21.713 9.73354L21.46 8.45838L22.9353 8.16575C22.8805 8.09506 22.8226 8.02908 22.7615 7.96779L23.183 7.81078C23.2393 7.88932 23.3019 7.97884 23.363 8.08092L24.6734 7.82098L24.7497 8.20549L21.9444 8.76195L22.0097 9.09153L22.5669 8.98101L22.5186 8.73775L22.9188 8.65837L22.9671 8.90163L23.8381 8.72886L23.7891 8.48167L24.1854 8.40307L24.2344 8.65025L24.8151 8.53507L24.8898 8.91173L24.3091 9.02691L24.429 9.63114L22.7615 9.9619L22.6416 9.35768L22.0845 9.46819ZM23.0418 9.27829L23.0947 9.54509L23.9658 9.37232L23.9128 9.10552L23.0418 9.27829Z" fill="white"/>
<path d="M28.1491 7.08239L28.7407 10.5929L28.3265 10.6627L28.2807 10.3905L26.5412 10.6837L26.5877 10.9598L26.1735 11.0296L25.5813 7.51511L28.1491 7.08239ZM26.4734 10.2813L28.2129 9.9882L28.034 8.92716L26.2946 9.22029L26.4734 10.2813ZM26.2268 8.81796L27.9662 8.52483L27.8027 7.55451L26.0633 7.84765L26.2268 8.81796Z" fill="white"/>
<path d="M29.2575 7.47563L30.7622 7.26004L30.6657 6.58691L31.0854 6.52677L31.1819 7.1999L32.6825 6.98488L32.7398 7.38479L31.548 7.55556C31.8927 8.10017 32.4105 8.55534 33.1014 8.92105L32.8713 9.31769C32.1448 8.84395 31.6026 8.27509 31.2409 7.61169L31.4423 9.01734L32.2461 8.90217L32.3034 9.30208L31.4996 9.41725L31.6096 10.1854L31.1899 10.2455L31.0799 9.47739L30.3077 9.58802L30.2504 9.18811L31.0226 9.07748L30.8212 7.67183C30.6501 8.50855 30.2759 9.22487 29.6912 9.82587L29.3941 9.47244C29.9449 8.97328 30.3129 8.38311 30.5066 7.70477L29.3148 7.87554L29.2575 7.47563Z" fill="white"/>
<path d="M33.5242 6.23547C33.8018 6.39466 34.0397 6.55875 34.2379 6.72774L33.9913 7.04837C33.8139 6.88487 33.575 6.71284 33.2756 6.54022L33.5242 6.23547ZM33.1353 7.42809L34.0524 7.31489L34.2558 8.96238C34.3581 8.84495 34.4675 8.71861 34.5833 8.57937L34.7523 9.00184C34.5197 9.27238 34.2678 9.51708 33.9976 9.7439L33.7927 9.39034C33.8528 9.32246 33.8793 9.24262 33.8685 9.15528L33.6965 7.76186L33.1844 7.82508L33.1353 7.42809ZM34.6154 7.72903L36.5527 7.48988L36.5992 7.86702C36.5302 8.22215 36.3843 8.54243 36.1612 8.8239C36.4269 8.95231 36.7418 9.0545 37.1103 9.13395L36.9321 9.51868C36.5234 9.40791 36.1724 9.27391 35.8863 9.11174C35.6037 9.3683 35.2481 9.58953 34.8117 9.77641L34.5383 9.45548C34.9325 9.28591 35.2593 9.09242 35.5225 8.87452C35.2371 8.65181 35.0242 8.39597 34.8907 8.09809L34.6644 8.12602L34.6154 7.72903ZM35.2797 8.05006C35.395 8.26556 35.5634 8.45435 35.7923 8.61148C35.9723 8.40388 36.1021 8.1823 36.1848 7.93833L35.2797 8.05006ZM34.6957 6.15937L36.1248 5.98295L36.2263 6.80471C36.237 6.89205 36.2906 6.9338 36.3898 6.92155L36.7312 6.87941L36.7778 7.25655L36.3252 7.31241C36.0275 7.34917 35.8634 7.22835 35.8291 6.95046L35.7639 6.42247L35.1526 6.49794L35.1658 6.60513C35.2168 7.01799 35.0421 7.36602 34.6487 7.64028L34.3316 7.35699C34.648 7.17688 34.7942 6.95731 34.7623 6.69927L34.6957 6.15937Z" fill="white"/>
<path d="M38.389 6.76519L39.415 6.65385L39.2899 5.50062L39.7194 5.45402L39.8445 6.60725L40.8188 6.50152L40.8637 6.9151L39.8894 7.02082L40.1207 9.15231L39.6912 9.19891L39.4599 7.06743L38.4339 7.17876L38.389 6.76519ZM37.5675 5.71972C37.8391 5.88739 38.075 6.05894 38.2747 6.23041L38.0199 6.55177C37.8489 6.38524 37.609 6.21412 37.3043 6.03797L37.5675 5.71972ZM37.1394 6.92896L38.0859 6.82625L38.2662 8.48849C38.3708 8.37656 38.482 8.25184 38.5998 8.11432L38.7534 8.52817C38.5208 8.79482 38.2697 9.03934 37.9961 9.26215L37.7965 8.90561C37.8616 8.83819 37.8896 8.76273 37.8806 8.67922L37.7274 7.2675L37.1826 7.32662L37.1394 6.92896Z" fill="white"/>
<path d="M41.8948 8.911L41.5525 8.94493L41.4266 8.56751C41.5317 8.57317 41.628 8.57166 41.7196 8.56259C41.8072 8.5539 41.8458 8.49782 41.836 8.39831L41.7559 7.59027C41.6257 7.65543 41.4911 7.717 41.3605 7.77818L41.2219 7.39398C41.3891 7.33721 41.5551 7.2685 41.7164 7.19222L41.6335 6.35631L41.1957 6.39972L41.1566 6.00565L41.5945 5.96224L41.5266 5.2776L41.9326 5.23735L42.0005 5.922L42.3747 5.88491L42.4137 6.27898L42.0396 6.31607L42.1058 6.98479C42.2269 6.90848 42.348 6.83216 42.4682 6.74789L42.5085 7.1539C42.3874 7.23021 42.2664 7.30653 42.1449 7.37886L42.2518 8.45757C42.2791 8.73223 42.1575 8.88496 41.8948 8.911ZM42.9982 7.02497C43.0103 7.75533 42.9019 8.365 42.6734 8.85794L42.3313 8.61048C42.5638 8.11714 42.6467 7.45372 42.5802 6.62022L42.45 5.30666L44.5795 5.09556L44.6182 5.48565L42.8827 5.65768L42.9802 6.64087L44.7515 6.46528L44.7894 6.84741L44.0968 6.91607C44.1253 7.08206 44.1729 7.23813 44.2436 7.38386C44.3695 7.27491 44.4886 7.1385 44.5962 6.96705L44.8894 7.2073C44.7519 7.40181 44.5945 7.5581 44.4137 7.68053C44.5783 7.92147 44.7998 8.12863 45.0751 8.31036L44.8133 8.62974C44.2143 8.18265 43.8613 7.62274 43.7544 6.95L43.5514 6.97012L43.6757 8.22398C43.8183 8.16161 43.9568 8.09964 44.0906 8.0301L44.2165 8.36733C43.9688 8.50443 43.6599 8.63153 43.2944 8.75619L43.1446 8.42133C43.2509 8.35854 43.298 8.26544 43.2854 8.13807L43.1733 7.00761L42.9982 7.02497ZM43.0719 5.94442L44.5129 5.80159L44.55 6.17575L43.109 6.31859L43.0719 5.94442Z" fill="white"/>
<path d="M45.2002 6.68072L47.41 6.46804C47.6374 5.90768 47.8203 5.30338 47.9509 4.65589L48.3799 4.77132C48.2222 5.42945 48.0463 5.98085 47.848 6.42589L48.8474 6.3297L48.8861 6.73185L45.2389 7.08287L45.2002 6.68072ZM45.6674 5.10472C45.8922 5.43671 46.1125 5.80529 46.3283 6.21048L45.9569 6.44314C45.7483 6.02922 45.5276 5.65665 45.2956 5.33339L45.6674 5.10472ZM46.6043 4.77745C46.8271 5.12973 47.0457 5.52259 47.2599 5.95205L46.8924 6.18432C46.6815 5.74651 46.4585 5.35005 46.2282 5.00252L46.6043 4.77745ZM46.3023 7.10911L46.6946 7.26022C46.4719 7.74378 46.1913 8.16862 45.8572 8.53833L45.487 8.32481C45.8151 7.97577 46.0897 7.57161 46.3023 7.10911ZM47.8652 6.9386C48.3047 7.33029 48.643 7.67146 48.8886 7.96929L48.5357 8.26848C48.2833 7.94316 47.9475 7.58569 47.5319 7.19169L47.8652 6.9386Z" fill="white"/>
<path d="M50.7311 4.3616L51.0335 4.33086C51.5864 4.82548 52.2031 5.19702 52.8873 5.44107L52.7017 5.87004C52.4588 5.77412 52.2301 5.66066 52.0126 5.53803L52.0417 5.82455L50.056 6.02641L50.0252 5.72397C49.8293 5.89265 49.6166 6.05499 49.3912 6.21058L49.1271 5.82733C49.7887 5.4143 50.322 4.92586 50.7311 4.3616ZM50.1357 5.62428L51.8668 5.44832C51.5158 5.23874 51.2018 4.99726 50.9203 4.7203C50.7035 5.03986 50.4449 5.34357 50.1357 5.62428ZM49.4725 6.49583L52.7038 6.16735L52.7451 6.57326L50.8946 6.76137C50.759 7.08876 50.5919 7.38316 50.3925 7.63663C50.9265 7.55018 51.4474 7.45301 51.9507 7.34154C51.8207 7.21001 51.6824 7.07531 51.5357 6.93743L51.8374 6.70171C52.2392 7.05489 52.5525 7.36881 52.7806 7.63511L52.4591 7.91305C52.3809 7.81646 52.2984 7.7163 52.2122 7.62052C51.6051 7.77873 50.8448 7.93241 49.9272 8.08197L49.779 7.73116C49.876 7.69717 49.9436 7.6501 49.9825 7.59789C50.1576 7.34288 50.2997 7.07916 50.4131 6.81031L49.5137 6.90173L49.4725 6.49583Z" fill="white"/>
<path d="M54.1265 4.81904C53.9916 5.1164 53.8075 5.37111 53.5791 5.59064L53.2602 5.26897C53.6198 4.92966 53.8408 4.50563 53.9188 3.99337L54.3571 4.02348C54.336 4.15476 54.3099 4.27854 54.279 4.39484L56.6752 4.11924L56.7214 4.5206L55.5133 4.65954L55.5723 5.17216L56.6413 5.04922L56.686 5.43865L55.6171 5.56159L55.7016 6.29674L57.0289 6.1441L57.0755 6.54942L55.7483 6.70207L55.8456 7.54849L55.4284 7.59648L55.331 6.75006L53.5428 6.95573L53.4962 6.5504L54.1081 6.48002L53.9788 5.35543L55.1551 5.22015L55.0961 4.70753L54.1265 4.81904ZM54.5254 6.43203L55.2844 6.34473L55.1998 5.60958L54.4408 5.69687L54.5254 6.43203Z" fill="white"/>
<path d="M58.6638 5.06503L58.7056 5.47893C58.5767 5.55625 58.4438 5.63397 58.3145 5.70731L58.4277 6.82962C58.455 7.10025 58.3337 7.25319 58.071 7.27967L57.6929 7.3178L57.5573 6.92945C57.6743 6.93373 57.783 6.93483 57.8864 6.9244C57.974 6.91557 58.0169 6.863 58.0073 6.76748L57.921 5.91182C57.7603 5.99235 57.5948 6.06532 57.4328 6.13392L57.288 5.73443C57.4906 5.66978 57.6879 5.5936 57.8801 5.50588L57.7982 4.69399L57.2689 4.74737L57.2292 4.35336L57.7585 4.29999L57.6903 3.62342L58.1002 3.58209L58.1684 4.25866L58.5704 4.21813L58.6101 4.61213L58.2082 4.65266L58.274 5.30535C58.4029 5.22803 58.5357 5.15031 58.6638 5.06503ZM59.2404 5.40087L59.4178 7.15995L59.0238 7.19968L58.665 3.64172L60.5356 3.45312C60.5837 3.93069 60.5884 4.25587 60.5527 4.42028C60.5122 4.57713 60.3567 4.6692 60.086 4.69649L59.7836 4.72699L59.6364 4.38402C59.6961 4.378 59.7721 4.37435 59.8637 4.36512C59.9552 4.35589 60.0225 4.34509 60.0694 4.33232C60.108 4.31636 60.1414 4.28887 60.1613 4.24667C60.1799 4.19252 60.1874 4.06714 60.1753 3.86735L59.0968 3.9761L59.2023 5.02279L60.7027 4.8715L60.7388 5.22969C60.7196 5.63767 60.6312 5.99635 60.473 6.30176C60.6678 6.43892 60.8931 6.56092 61.1492 6.66778L60.9031 7.01823C60.6618 6.89783 60.4515 6.76626 60.2683 6.62392C60.1041 6.82943 59.9044 7.00234 59.6697 7.14661L59.4338 6.80053C59.6459 6.67061 59.8193 6.51643 59.9544 6.34199C59.6764 6.05644 59.4875 5.73779 59.3917 5.38563L59.2404 5.40087ZM59.7578 5.34871C59.8352 5.5982 59.9664 5.82217 60.1512 6.02063C60.2537 5.80124 60.3216 5.5572 60.3508 5.28891L59.7578 5.34871Z" fill="white"/>
<path d="M61.4255 3.21663L62.4175 5.00292L61.7602 6.9376L61.4036 6.81305L62.0072 5.03984L61.0968 3.40283L61.4255 3.21663ZM62.1187 3.15426L63.1107 4.94055L62.4534 6.87523L62.0968 6.75069L62.7004 4.97747L61.7741 3.34189L62.1187 3.15426Z" fill="white"/>
<g clip-path="url(#clip0_255_5255)">
<mask id="mask0_255_5255" style="mask-type:luminance" maskUnits="userSpaceOnUse" x="0" y="14" width="5" height="5">
<path d="M0.200317 14.4H4.19998V18.4002H0.200317V14.4Z" fill="white"/>
</mask>
<g mask="url(#mask0_255_5255)">
<path fill-rule="evenodd" clip-rule="evenodd" d="M-0.800049 14.4H5.2V18.4002H-0.800049V14.4Z" fill="white"/>
<path d="M2.2 17.6437C2.88668 17.6437 3.44334 17.0871 3.44334 16.4004C3.44334 15.7137 2.88668 15.1571 2.2 15.1571C1.51333 15.1571 0.956665 15.7137 0.956665 16.4004C0.956665 17.0871 1.51333 17.6437 2.2 17.6437Z" fill="#BC002D"/>
</g>
</g>
<defs>
<clipPath id="clip0_255_5255">
<rect x="0.199951" y="14.4" width="4" height="4" rx="2" fill="white"/>
</clipPath>
</defs>
</svg>
