<svg width="36" height="8" viewBox="0 0 36 8" fill="none" xmlns="http://www.w3.org/2000/svg">
<path d="M3.25916 2.52437C3.607 2.51384 3.87783 2.62966 4.07609 2.87969C4.26569 3.11798 4.3767 3.45466 4.40136 3.89397C4.42737 4.35724 4.35249 4.73555 4.18072 5.02879C4.00095 5.32227 3.74937 5.4779 3.42152 5.48782C2.86577 5.50465 2.53934 5.25449 2.43845 4.74148L2.86226 4.72866C2.9337 5.00253 3.11747 5.13698 3.40534 5.12827C3.60125 5.12234 3.75157 5.01778 3.86075 4.82245C3.96239 4.63535 4.00936 4.4019 3.99389 4.12633C3.99299 4.11036 3.98809 4.0945 3.98697 4.07453L3.97098 4.07502C3.89797 4.20124 3.79917 4.29625 3.68281 4.36378C3.57001 4.4232 3.43986 4.45914 3.29193 4.46362C3.01206 4.47209 2.779 4.38713 2.60099 4.2125C2.4272 4.04174 2.33446 3.81652 2.31876 3.53696C2.30262 3.24941 2.38158 3.01499 2.56318 2.82547C2.74455 2.63196 2.97529 2.53296 3.25916 2.52437ZM3.29533 2.88332C3.11941 2.88864 2.97861 2.94891 2.88138 3.07187C2.77994 3.19096 2.73626 3.3403 2.74657 3.52401C2.75688 3.70772 2.81693 3.84992 2.93093 3.95448C3.03717 4.06328 3.18024 4.11495 3.36016 4.10951C3.53608 4.10418 3.67687 4.04392 3.77455 3.92894C3.87222 3.81397 3.91568 3.66064 3.90537 3.47693C3.89483 3.28922 3.83056 3.14315 3.72055 3.03847C3.60632 2.92991 3.46325 2.87824 3.29533 2.88332Z" fill="white"/>
<path d="M5.86948 2.44074C6.21728 2.42914 6.48879 2.5441 6.6885 2.79348C6.87947 3.03114 6.99242 3.36742 7.01959 3.80658C7.04824 4.2697 6.97552 4.64818 6.80541 4.9419C6.6273 5.23589 6.37659 5.39227 6.04877 5.40321C5.49308 5.42175 5.16519 5.17265 5.06137 4.66003L5.48513 4.6459C5.55815 4.9195 5.74269 5.05337 6.03053 5.04376C6.22642 5.03723 6.37616 4.93222 6.48424 4.73658C6.58481 4.5492 6.63045 4.31564 6.61341 4.04017C6.61242 4.0242 6.60743 4.00836 6.6062 3.9884L6.59021 3.98893C6.51791 4.11537 6.41965 4.21066 6.30367 4.27854C6.19119 4.3383 6.06124 4.37464 5.91332 4.37957C5.63348 4.38891 5.39992 4.30469 5.2209 4.13063C5.04612 3.96044 4.95209 3.73554 4.9348 3.45607C4.91701 3.16862 4.99463 2.934 5.17516 2.74395C5.35545 2.5499 5.58563 2.45021 5.86948 2.44074ZM5.9077 2.79952C5.7318 2.80539 5.59133 2.86608 5.4948 2.98932C5.39403 3.1087 5.3512 3.25815 5.36256 3.4418C5.37392 3.62545 5.43479 3.76744 5.54939 3.87163C5.65626 3.98009 5.79964 4.03131 5.97954 4.02531C6.15544 4.01944 6.2959 3.95875 6.39293 3.84349C6.48995 3.72824 6.53254 3.5748 6.52117 3.39115C6.50956 3.20351 6.44445 3.05766 6.33384 2.95333C6.21899 2.84514 6.07561 2.79392 5.9077 2.79952Z" fill="white"/>
<path d="M7.66341 2.43544L9.58215 2.36604L9.60571 2.71725L8.76198 5.25222L8.29828 5.26899L9.16895 2.77706L7.68991 2.83056L7.66341 2.43544Z" fill="white"/>
<path d="M10.9754 2.67272C10.828 2.95859 10.6371 3.19817 10.3993 3.39959L10.1201 3.09052C10.4979 2.77556 10.7365 2.36607 10.8357 1.85805L11.2326 1.91442C11.2026 2.05163 11.1717 2.17688 11.1324 2.29845L13.5626 2.20264L13.5894 2.56966L12.3623 2.61804L12.4026 3.16857L13.4898 3.1257L13.5157 3.48075L12.4286 3.52362L12.4852 4.29755L13.8361 4.24429L13.8632 4.6153L12.5123 4.66856L12.5753 5.53026L12.1956 5.54523L12.1326 4.68353L10.318 4.75508L10.2909 4.38407L10.9184 4.35933L10.8358 3.23034L12.0229 3.18354L11.9826 2.63301L10.9754 2.67272ZM11.3021 4.3442L12.1055 4.31252L12.0489 3.53859L11.2455 3.57026L11.3021 4.3442Z" fill="white"/>
<path d="M16.0656 1.66826L16.4371 1.70037C16.4124 1.79345 16.3794 1.88289 16.3458 1.96435L17.4528 1.91697L17.4784 2.23996C17.3815 2.48416 17.2224 2.70302 16.9969 2.89272C17.2157 2.97138 17.4651 3.03272 17.7456 3.08073L17.6259 3.44194C17.243 3.36631 16.9141 3.26436 16.6473 3.13574C16.3829 3.29109 16.0644 3.42075 15.696 3.52854L15.5253 3.19577C15.8159 3.11931 16.0654 3.02861 16.2816 2.92334C16.1371 2.82149 16.0201 2.71047 15.9263 2.59045C15.8594 2.65733 15.7926 2.72421 15.7171 2.78345L15.4791 2.51357C15.7811 2.27659 15.9794 1.99603 16.0656 1.66826ZM16.1465 2.33297C16.2627 2.48403 16.4214 2.61328 16.6227 2.72469C16.8124 2.58854 16.9611 2.44214 17.0644 2.27768L16.1572 2.31651C16.1495 2.32084 16.1458 2.32499 16.1465 2.33297ZM14.7588 1.72419L15.1152 1.86898C15.0467 2.16798 14.9533 2.45605 14.8303 2.72538L15.0443 5.42091L14.6806 5.43647L14.5122 3.31514C14.4117 3.46348 14.3069 3.608 14.1978 3.74871L14.0558 3.37469C14.3947 2.89606 14.6317 2.34578 14.7588 1.72419ZM15.0762 2.43879L15.4239 2.42391L15.603 4.68081L15.2554 4.69569L15.0762 2.43879ZM16.7596 3.33898L17.045 3.49882C16.903 3.62893 16.7593 3.7391 16.6058 3.82569C16.452 3.90829 16.2348 4.00161 15.9547 4.10962L15.7511 3.81826C15.9594 3.76533 16.1545 3.69697 16.34 3.60901C16.4902 3.53056 16.6314 3.4405 16.7596 3.33898ZM17.171 3.62145L17.434 3.80225C17.1407 4.1989 16.6873 4.49837 16.0695 4.69686L15.896 4.3802C16.476 4.21134 16.9009 3.95709 17.171 3.62145ZM15.9739 5.41312L15.7869 5.07704C16.2369 4.93775 16.5935 4.78246 16.8529 4.61531C17.12 4.44384 17.3437 4.23022 17.5312 3.96613L17.8148 4.15404C17.6528 4.43704 17.404 4.68775 17.0605 4.90651C16.7167 5.12127 16.3534 5.29286 15.9739 5.41312Z" fill="white"/>
<path d="M19.4892 1.72861L21.8268 1.62128L21.858 1.98795L21.0508 2.02501L21.2793 4.7073C21.3023 4.97832 21.178 5.12007 20.9063 5.13255L20.3749 5.15695L20.2594 4.79014C20.4286 4.79838 20.5934 4.80281 20.7453 4.79584C20.8492 4.79107 20.8963 4.73289 20.8875 4.62926L20.6672 2.04263L19.5205 2.09528L19.4892 1.72861ZM18.6475 1.59521C18.9202 1.78275 19.1566 1.96795 19.353 2.15498L19.1157 2.42996C18.9403 2.25396 18.7035 2.06477 18.4018 1.86656L18.6475 1.59521ZM18.2148 2.77941L19.1379 2.73703L19.2838 4.45083C19.4102 4.33299 19.5475 4.20265 19.6874 4.05619L19.8213 4.45016C19.5739 4.70158 19.3042 4.92603 19.0161 5.12331L18.8434 4.79114C18.9066 4.73222 18.9368 4.66282 18.93 4.58311L18.8051 3.11641L18.2457 3.1421L18.2148 2.77941Z" fill="white"/>
<path d="M22.9939 1.40869L23.3654 1.3906L23.4579 2.41444L23.6496 2.4051L23.6831 2.77559L22.7842 2.81936L22.7978 2.97074C22.8079 3.08229 22.8136 3.19005 22.819 3.29382L23.5861 3.25647L23.744 5.00536L23.3724 5.02345L23.2472 3.63709L22.8317 3.65732C22.8363 4.24128 22.7687 4.69272 22.637 5.01124L22.327 4.77825C22.461 4.3956 22.4957 3.80172 22.4263 2.98883L22.2939 1.52279L22.6655 1.50471L22.7507 2.44886L23.0863 2.43253L22.9939 1.40869ZM24.2351 2.80074L24.2653 3.13538C24.3184 3.90104 24.238 4.52116 24.0233 4.98776L23.7388 4.72552C23.9047 4.34132 23.9615 3.81439 23.9178 3.1523L23.7782 1.60659C24.4124 1.56371 24.9721 1.45243 25.4612 1.26857L25.6755 1.59825C25.2243 1.75626 24.7201 1.86083 24.1549 1.91235L24.2028 2.4422L25.661 2.3712L25.6902 2.69389C25.6497 3.22403 25.5306 3.68198 25.324 4.06016C25.5293 4.29024 25.766 4.46678 26.0375 4.5856L25.8796 4.9254C25.583 4.79579 25.3296 4.61206 25.1163 4.38237C24.9294 4.62354 24.6993 4.83081 24.4257 5.00018L24.2157 4.6743C24.4813 4.50531 24.6958 4.30281 24.8674 4.07038C24.6316 3.72574 24.453 3.3023 24.327 2.79626L24.2351 2.80074ZM24.6666 2.77973C24.7716 3.14274 24.9046 3.46037 25.0729 3.72427C25.2112 3.43344 25.2983 3.1091 25.3298 2.74744L24.6666 2.77973Z" fill="white"/>
<path d="M26.4965 1.16469L26.852 1.14643C27.0604 1.39582 27.23 1.65921 27.3612 1.94057C27.5129 2.2689 27.6102 2.61603 27.6447 2.97839C27.6789 3.33677 27.648 3.68649 27.5604 4.03111C27.4831 4.31518 27.365 4.59334 27.2063 4.86559L26.8508 4.88385C26.9884 4.60069 27.0901 4.31936 27.1558 4.03989C27.2386 3.68751 27.2655 3.338 27.2329 2.99555C27.1999 2.64912 27.107 2.30576 26.9585 1.96926C26.8401 1.69524 26.6861 1.42705 26.4965 1.16469Z" fill="white"/>
<path d="M30.557 0.954975L31.5691 2.76932L30.9276 4.67255L30.5938 4.54643L31.1856 2.78993L30.2517 1.11544L30.557 0.954975ZM31.24 0.91826L32.2521 2.7326L31.6106 4.63583L31.2768 4.50972L31.8687 2.75321L30.9188 1.07959L31.24 0.91826Z" fill="white"/>
</svg>
