<svg width="70" height="5" viewBox="0 0 70 5" fill="none" xmlns="http://www.w3.org/2000/svg">
<path d="M1.756 0.692L2.092 0.836L1.312 2.56L2.076 4.284L1.756 4.428L0.928 2.56L1.756 0.692ZM2.44 0.692L2.76 0.836L1.996 2.56L2.76 4.284L2.44 4.428L1.612 2.56L2.44 0.692ZM4.288 0.736C4.44 0.936 4.588 1.156 4.728 1.396L4.48 1.52H5.308C5.452 1.292 5.58 1.02 5.692 0.708L6.064 0.808C5.976 1.072 5.864 1.308 5.736 1.52H6.496V1.888H5.192V2.012C5.184 2.204 5.164 2.38 5.136 2.544H6.728V2.912H5.328C5.524 3.396 6.024 3.776 6.828 4.056L6.604 4.416C5.764 4.072 5.232 3.616 5 3.052C4.928 3.24 4.84 3.408 4.736 3.552C4.464 3.912 4.02 4.188 3.404 4.38L3.196 4.048C3.812 3.848 4.228 3.596 4.448 3.292C4.524 3.176 4.588 3.048 4.64 2.912H3.272V2.544H4.744C4.776 2.376 4.8 2.2 4.808 2.012V1.888H3.5V1.52H4.356C4.224 1.288 4.084 1.084 3.94 0.904L4.288 0.736ZM7.472 0.852H10.5V1.224H9.224V2.2H10.78V2.58H9.224V3.944C9.224 4.224 9.076 4.368 8.784 4.368H8.148L8.068 4C8.272 4.012 8.468 4.02 8.652 4.02C8.78 4.02 8.844 3.96 8.844 3.848V2.58H7.22V2.2H8.844V1.224H7.472V0.852ZM11.58 2.312C11.476 2.448 11.368 2.584 11.256 2.712L11.128 2.308C11.504 1.852 11.776 1.32 11.952 0.712L12.296 0.872C12.208 1.168 12.092 1.452 11.952 1.716V4.42H11.58V2.312ZM12.496 0.856H14.572V2.208H13.776V2.776H14.68V3.128H13.776V3.964C13.904 3.98 14.056 3.992 14.228 4C14.452 4 14.66 3.996 14.852 3.988L14.784 4.348H14.4C13.824 4.344 13.428 4.284 13.22 4.172C13.004 4.064 12.824 3.888 12.688 3.648C12.576 3.956 12.44 4.22 12.28 4.436L12.04 4.136C12.316 3.716 12.504 3.156 12.604 2.456L12.964 2.52C12.924 2.776 12.876 3.008 12.82 3.224C12.876 3.368 12.952 3.492 13.048 3.604C13.152 3.724 13.272 3.812 13.404 3.868V2.208H12.496V0.856ZM14.204 1.856V1.204H12.868V1.856H14.204ZM15.548 0.76C15.812 0.968 16.036 1.176 16.22 1.384L15.948 1.656C15.792 1.456 15.572 1.244 15.284 1.012L15.548 0.76ZM17.836 4.344C17.62 4.344 17.384 4.34 17.132 4.336C16.876 4.332 16.668 4.308 16.504 4.268C16.344 4.22 16.208 4.124 16.088 3.988C16.036 3.92 15.988 3.888 15.94 3.888C15.86 3.888 15.716 4.068 15.512 4.428L15.232 4.168C15.432 3.844 15.612 3.64 15.772 3.56V2.428H15.232V2.076H16.128V3.592C16.144 3.608 16.164 3.624 16.184 3.648C16.272 3.756 16.368 3.836 16.468 3.888C16.584 3.944 16.756 3.98 16.988 3.988C17.212 3.992 17.476 3.996 17.784 3.996C17.976 3.996 18.176 3.992 18.38 3.988C18.58 3.984 18.736 3.976 18.844 3.968L18.752 4.344H17.836ZM16.456 1.32H16.896V0.716H17.26V1.32H17.804V0.72H18.172V1.32H18.648V1.676H18.172V2.384H18.776V2.744H18.172V3.832H17.804V2.744H17.168C17.056 3.204 16.856 3.544 16.56 3.768L16.332 3.464C16.556 3.304 16.712 3.064 16.8 2.744H16.316V2.384H16.872C16.888 2.248 16.896 2.108 16.896 1.96V1.676H16.456V1.32ZM17.26 1.676V1.872C17.26 2.056 17.248 2.224 17.232 2.384H17.804V1.676H17.26ZM21.164 0.668C21.228 0.8 21.292 0.948 21.356 1.116H22.792V1.484H19.86V2.328C19.848 3.208 19.72 3.912 19.472 4.444L19.152 4.16C19.36 3.72 19.468 3.108 19.476 2.328V1.116H20.936C20.876 0.98 20.812 0.852 20.74 0.74L21.164 0.668ZM26.352 2.892V4.408H25.968V4.216H24.056V4.408H23.672V2.892H26.352ZM24.056 3.86H25.968V3.252H24.056V3.86ZM23.964 1.616C23.828 1.8 23.672 1.964 23.492 2.112L23.264 1.812C23.616 1.528 23.856 1.18 23.984 0.764L24.36 0.812C24.312 0.968 24.256 1.116 24.188 1.252H24.86V0.716H25.24V1.252H26.516V1.616H25.24V2.168H26.82V2.54H23.18V2.168H24.86V1.616H23.964ZM28.376 0.752H28.756V3.896H29.236V0.752H29.616V3.896H30.784V4.268H27.216V3.896H28.376V0.752ZM30.364 1.496L30.7 1.592C30.548 2.28 30.352 2.88 30.112 3.396L29.772 3.276C29.996 2.812 30.196 2.216 30.364 1.496ZM27.62 1.488C27.824 2.024 28.004 2.636 28.164 3.324L27.816 3.412C27.68 2.784 27.504 2.176 27.296 1.592L27.62 1.488ZM31.752 1.292H31.476V0.928H34.372V1.276C34.148 2.024 33.792 2.66 33.296 3.18C33.48 3.336 33.68 3.476 33.892 3.604C34.188 3.772 34.5 3.92 34.828 4.04L34.604 4.388C34.244 4.244 33.908 4.072 33.588 3.872C33.38 3.744 33.192 3.6 33.02 3.448C32.588 3.828 32.076 4.14 31.484 4.38L31.256 4.024C31.836 3.8 32.328 3.516 32.732 3.172L32.724 3.164C32.468 2.9 32.252 2.592 32.076 2.248C31.92 1.952 31.812 1.632 31.752 1.292ZM33.012 2.912C33.452 2.456 33.768 1.916 33.96 1.292H32.124C32.196 1.636 32.312 1.94 32.468 2.196C32.628 2.468 32.808 2.704 33.012 2.912ZM35.808 0.684L36.18 0.716C36.136 0.98 36.092 1.224 36.048 1.452H36.716V1.66C36.688 2.284 36.564 2.828 36.348 3.292C36.572 3.464 36.752 3.62 36.888 3.756L36.628 4.056C36.5 3.924 36.344 3.78 36.168 3.628C35.972 3.94 35.728 4.212 35.436 4.436L35.176 4.116C35.46 3.912 35.692 3.668 35.872 3.384C35.688 3.236 35.488 3.084 35.272 2.924C35.392 2.58 35.496 2.212 35.592 1.816H35.208V1.452H35.672C35.72 1.204 35.768 0.948 35.808 0.684ZM36.044 3.064C36.212 2.696 36.312 2.28 36.344 1.816H35.972C35.88 2.208 35.784 2.54 35.688 2.808C35.816 2.896 35.936 2.984 36.044 3.064ZM36.812 2.368H37.68V1.908C37.88 1.728 38.076 1.512 38.26 1.264H36.924V0.896H38.696V1.264C38.508 1.532 38.296 1.784 38.06 2.024V2.368H38.84V2.736H38.06V3.924C38.06 4.22 37.944 4.368 37.72 4.368H37.128L37.028 4.008C37.192 4.008 37.372 4.012 37.564 4.012C37.64 4.012 37.68 3.944 37.68 3.808V2.736H36.812V2.368ZM39.752 1.292H39.476V0.928H42.372V1.276C42.148 2.024 41.792 2.66 41.296 3.18C41.48 3.336 41.68 3.476 41.892 3.604C42.188 3.772 42.5 3.92 42.828 4.04L42.604 4.388C42.244 4.244 41.908 4.072 41.588 3.872C41.38 3.744 41.192 3.6 41.02 3.448C40.588 3.828 40.076 4.14 39.484 4.38L39.256 4.024C39.836 3.8 40.328 3.516 40.732 3.172L40.724 3.164C40.468 2.9 40.252 2.592 40.076 2.248C39.92 1.952 39.812 1.632 39.752 1.292ZM41.012 2.912C41.452 2.456 41.768 1.916 41.96 1.292H40.124C40.196 1.636 40.312 1.94 40.468 2.196C40.628 2.468 40.808 2.704 41.012 2.912ZM44.596 1.3H45.276V0.728H45.644V1.3H46.496V2.5H46.768V2.872H45.76C46 3.372 46.368 3.78 46.872 4.092L46.616 4.392C46.112 4.032 45.732 3.584 45.484 3.052C45.296 3.652 44.948 4.096 44.436 4.392L44.204 4.08C44.684 3.828 45.004 3.424 45.164 2.872H44.436V2.5H45.24C45.264 2.332 45.276 2.156 45.276 1.972V1.656H44.596V1.3ZM45.644 1.656V1.888C45.644 2.104 45.628 2.308 45.604 2.5H46.128V1.656H45.644ZM43.268 1.504L43.56 1.524C43.552 1.924 43.508 2.308 43.432 2.668L43.124 2.58C43.208 2.24 43.256 1.88 43.268 1.504ZM44.348 1.404C44.456 1.66 44.552 1.956 44.636 2.288L44.328 2.364C44.264 2.064 44.176 1.776 44.068 1.496L44.348 1.404ZM43.688 0.732H44.06V4.396H43.688V0.732ZM47.412 2.004L47.728 0.836L48.108 0.9L47.9 1.64H48.492C48.568 1.344 48.628 1.032 48.676 0.704L49.064 0.752C49.016 1.068 48.956 1.364 48.888 1.64H50.72V2.004H48.792C48.752 2.136 48.708 2.26 48.668 2.38H50.268V2.7C50.164 3.028 49.968 3.324 49.672 3.588C49.976 3.756 50.344 3.912 50.772 4.056L50.576 4.416C50.092 4.24 49.684 4.044 49.356 3.836C49.04 4.056 48.652 4.256 48.192 4.436L47.992 4.076C48.392 3.932 48.736 3.772 49.02 3.6C48.76 3.392 48.564 3.168 48.436 2.932C48.148 3.524 47.784 3.996 47.348 4.348L47.152 3.996C47.704 3.508 48.116 2.844 48.388 2.004H47.412ZM48.712 2.724C48.844 2.96 49.052 3.18 49.336 3.38C49.588 3.176 49.772 2.956 49.884 2.724H48.712ZM49.736 0.708C50.012 0.916 50.244 1.128 50.432 1.34L50.16 1.612C50 1.404 49.776 1.188 49.48 0.96L49.736 0.708ZM52.008 2.212H52.56V1.892H51.892V2.196C51.892 2.436 51.876 2.668 51.852 2.884H52.56V2.548H52.008V2.212ZM51.804 3.228C51.728 3.664 51.604 4.06 51.432 4.412L51.124 4.136C51.376 3.632 51.504 2.988 51.508 2.196V0.852H54.568V1.892H54.012V2.212H54.612V2.548H54.012V2.884H54.748V3.228H54.348L54.58 3.456C54.456 3.608 54.32 3.732 54.176 3.828C54.38 3.944 54.612 4.028 54.876 4.08L54.696 4.44C53.976 4.252 53.464 3.848 53.156 3.228H52.66V3.988C52.9 3.928 53.112 3.86 53.292 3.784L53.364 4.132C53.04 4.244 52.656 4.34 52.212 4.42L52.108 4.088C52.228 4.04 52.288 3.956 52.288 3.828V3.228H51.804ZM53.54 3.228C53.636 3.376 53.748 3.504 53.876 3.616C54.028 3.524 54.168 3.396 54.296 3.228H53.54ZM53.644 1.892H52.924V2.212H53.644V1.892ZM52.924 2.884H53.644V2.548H52.924V2.884ZM54.184 1.2H51.892V1.552H54.184V1.2ZM56.652 1.38V4.164H56.288V3.956H55.656V4.28H55.292V1.38H55.672C55.744 1.164 55.8 0.944 55.832 0.712L56.212 0.764C56.172 0.984 56.112 1.188 56.036 1.38H56.652ZM55.656 3.604H56.288V2.816H55.656V3.604ZM55.656 2.476H56.288V1.74H55.656V2.476ZM57.372 2.34C57.636 2.668 57.84 2.952 57.98 3.2L57.68 3.412C57.528 3.148 57.32 2.856 57.064 2.532L57.372 2.34ZM58.716 1.384C58.716 2.764 58.696 3.616 58.656 3.936C58.616 4.224 58.424 4.368 58.084 4.368C58.004 4.368 57.86 4.36 57.66 4.348L57.568 4C57.744 4.008 57.896 4.016 58.024 4.016C58.184 4.016 58.276 3.932 58.3 3.764C58.324 3.564 58.336 2.892 58.344 1.752H57.34C57.228 1.992 57.1 2.212 56.948 2.412L56.72 2.112C56.984 1.728 57.168 1.26 57.264 0.708L57.64 0.756C57.6 0.98 57.544 1.188 57.48 1.384H58.716ZM60.064 1.26H59.44V0.94H60.76C60.728 0.872 60.696 0.808 60.664 0.752L61.076 0.688C61.108 0.764 61.144 0.848 61.176 0.94H62.56V1.26H61.924L61.808 1.5H62.748V1.828H59.252V1.5H60.16L60.064 1.26ZM60.556 1.5H61.412L61.528 1.26H60.46L60.556 1.5ZM59.668 1.996H62.332V3.244H59.668V1.996ZM61.96 2.956V2.756H60.04V2.956H61.96ZM60.04 2.484H61.96V2.288H60.04V2.484ZM59.516 3.4L59.884 3.476C59.792 3.792 59.664 4.064 59.5 4.296L59.172 4.092C59.332 3.876 59.444 3.648 59.516 3.4ZM61.56 4.348H60.584C60.276 4.348 60.124 4.208 60.124 3.936V3.424H60.508V3.856C60.508 3.956 60.568 4.008 60.692 4.008H61.488C61.56 4.008 61.612 3.992 61.64 3.964C61.68 3.928 61.708 3.824 61.724 3.648L62.084 3.764C62.052 4.044 61.996 4.216 61.908 4.272C61.832 4.32 61.716 4.348 61.56 4.348ZM61.096 3.26C61.256 3.42 61.376 3.56 61.46 3.684L61.144 3.904C61.052 3.772 60.928 3.624 60.772 3.464L61.096 3.26ZM62.344 3.344C62.564 3.604 62.732 3.832 62.848 4.024L62.532 4.244C62.408 4.028 62.244 3.792 62.036 3.536L62.344 3.344ZM66.188 0.868V3.104H65.804V1.24H64.132V3.108H63.748V0.868H66.188ZM64.752 1.468H65.128V2.216C65.12 2.432 65.096 2.628 65.056 2.812H65.396V3.756C65.396 3.904 65.448 3.98 65.552 3.98H66.136C66.184 3.98 66.232 3.96 66.272 3.924C66.316 3.884 66.348 3.716 66.364 3.42L66.728 3.54C66.684 3.928 66.628 4.156 66.56 4.228C66.48 4.292 66.372 4.328 66.236 4.336H65.448C65.16 4.336 65.016 4.164 65.016 3.824V2.968C64.94 3.232 64.832 3.456 64.688 3.648C64.424 3.984 63.996 4.24 63.404 4.424L63.2 4.104C63.792 3.92 64.196 3.684 64.408 3.396C64.616 3.092 64.728 2.7 64.752 2.216V1.468ZM67.56 0.692L68.388 2.56L67.56 4.428L67.24 4.284L68.004 2.56L67.24 0.836L67.56 0.692ZM68.244 0.692L69.072 2.56L68.244 4.428L67.924 4.284L68.688 2.56L67.908 0.836L68.244 0.692Z" fill="white"/>
</svg>
