<svg width="104" height="27" viewBox="0 0 104 27" fill="none" xmlns="http://www.w3.org/2000/svg">
<path d="M4.80743 4.39923L5.05676 4.66656L3.64747 5.92928L3.65091 7.81497L3.30001 7.81762L3.29611 5.77434L4.80743 4.39923ZM5.43328 4.67521L5.66798 4.93609L4.27332 6.20526L4.27676 8.09096L3.92586 8.0936L3.92196 6.05032L5.43328 4.67521Z" fill="white"/>
<path d="M7.05268 5.41299C7.11523 5.65628 7.16633 5.91646 7.20231 6.19197L6.92563 6.21009L7.68884 6.53118C7.90998 6.37686 8.13345 6.17578 8.35767 5.93163L8.66178 6.16806C8.47829 6.37728 8.28354 6.55138 8.08335 6.69715L8.78387 6.99187L8.64117 7.33108L7.43921 6.8254L7.39112 6.9397C7.30929 7.11357 7.22261 7.26804 7.1332 7.40835L8.60062 8.02571L8.45792 8.36491L7.16747 7.82201C7.16044 8.34414 7.47396 8.8883 8.10646 9.45817L7.76039 9.70314C7.11952 9.06031 6.80598 8.43369 6.81085 7.82386C6.67158 7.96923 6.52531 8.08996 6.37361 8.18236C5.98329 8.40871 5.46701 8.49093 4.82475 8.42903L4.76178 8.04235C5.40713 8.09688 5.8883 8.02592 6.20897 7.83102C6.32401 7.75357 6.43264 7.6604 6.53331 7.55521L5.27236 7.02472L5.41506 6.68551L6.77188 7.25634C6.86652 7.11389 6.95689 6.96097 7.03717 6.79079L7.08526 6.67649L5.87961 6.16926L6.02232 5.83006L6.81133 6.16201C6.77963 5.89697 6.72969 5.65465 6.66676 5.43289L7.05268 5.41299Z" fill="white"/>
<path d="M9.80218 6.69039L12.6098 7.82436L12.4705 8.16929L11.2874 7.69143L10.9219 8.59641L12.3646 9.17912L12.2223 9.53147L10.7796 8.94876L10.2688 10.2135C10.1639 10.4731 9.97274 10.5512 9.70199 10.4419L9.11227 10.2037L9.17591 9.83251C9.36057 9.92003 9.53931 10.0009 9.70992 10.0698C9.8286 10.1177 9.91042 10.086 9.95236 9.98218L10.4272 8.80645L8.92139 8.19827L9.0637 7.84593L10.5695 8.4541L10.935 7.54913L9.66287 7.03532L9.80218 6.69039Z" fill="white"/>
<path d="M16.4314 9.77681L15.3238 12.6379L14.9806 12.505L15.0716 12.27L14.4822 12.0418L14.3912 12.2768L14.0518 12.1454L15.1594 9.28434L16.4314 9.77681ZM14.6136 11.7024L15.203 11.9306L15.9568 9.98339L15.3675 9.75521L14.6136 11.7024ZM13.9711 8.23234L14.3217 8.3681L14.0416 9.09175L14.7913 9.38203C14.3205 10.5981 14.0116 11.3406 13.8631 11.6134C13.7161 11.8825 13.4747 11.952 13.1464 11.8249C13.0867 11.8018 12.9926 11.7568 12.8627 11.6936L12.8988 11.3344C13.0213 11.3947 13.1266 11.4441 13.2161 11.4787C13.3728 11.5394 13.5007 11.486 13.5932 11.3245C13.6835 11.1578 13.92 10.5802 14.3116 9.5909L13.9087 9.43493C13.4661 10.5118 12.916 11.2124 12.2533 11.5392L12.0795 11.2017C12.6668 10.9143 13.1619 10.2782 13.5581 9.29918L12.9911 9.07967L13.124 8.73649L13.6909 8.956L13.9711 8.23234Z" fill="white"/>
<path d="M18.282 10.4855L18.9197 10.7216L19.1184 10.1852L19.4635 10.313L19.2648 10.8494L20.0638 11.1453L19.6471 12.2706L19.9021 12.3651L19.773 12.7139L18.8277 12.3639C18.8791 12.9161 19.0825 13.4265 19.4468 13.8941L19.1026 14.0866C18.7549 13.5739 18.5542 13.0219 18.5064 12.4368C18.1217 12.9342 17.6412 13.2297 17.0582 13.3295L16.949 12.9564C17.4867 12.8867 17.927 12.619 18.2688 12.1569L17.5861 11.9041L17.7153 11.5553L18.4692 11.8345C18.5501 11.6852 18.6225 11.5244 18.6864 11.3518L18.7961 11.0555L18.1584 10.8193L18.282 10.4855ZM19.1412 11.1833L19.0606 11.4008C18.9856 11.6034 18.8998 11.7891 18.8106 11.9609L19.302 12.1428L19.5951 11.3514L19.1412 11.1833ZM16.9658 10.2156L17.2327 10.3358C17.0863 10.7081 16.9117 11.0529 16.7154 11.3641L16.4571 11.1747C16.654 10.885 16.824 10.5641 16.9658 10.2156ZM18.0134 10.4969C18.0257 10.7745 18.013 11.0854 17.9764 11.4259L17.6612 11.3902C17.7054 11.0867 17.7229 10.786 17.7188 10.4859L18.0134 10.4969ZM17.6278 9.63752L17.9766 9.76671L16.7042 13.2027L16.3554 13.0735L17.6278 9.63752Z" fill="white"/>
<path d="M20.107 14.4313L19.7751 14.3141L19.8184 13.9392C19.9124 13.9851 20.0078 14.0272 20.0984 14.0592C20.1851 14.0898 20.2464 14.0605 20.277 13.9738L20.5619 13.1666C20.4163 13.1703 20.2683 13.169 20.1203 13.1677L20.1614 12.775C20.3369 12.7945 20.5126 12.8014 20.691 12.8007L20.9652 12.0237L20.539 11.8732L20.6602 11.53L21.0864 11.6804L21.3274 10.9977L21.6895 11.1255L21.4485 11.8082L21.7993 11.932L21.6782 12.2753L21.3274 12.1515L21.1064 12.7776C21.2204 12.767 21.332 12.7512 21.445 12.7317L21.3158 13.0976C21.2004 13.112 21.0888 13.1277 20.9786 13.1397L20.6058 14.1959C20.5206 14.4373 20.3522 14.5178 20.107 14.4313ZM22.2595 11.4454L23.9569 12.0445L23.4763 13.4062L21.7789 12.8071L22.2595 11.4454ZM23.228 12.9919L23.3185 12.7354L22.3189 12.3827L22.2284 12.6391L23.228 12.9919ZM22.4148 12.1111L23.4144 12.4639L23.5036 12.2111L22.504 11.8584L22.4148 12.1111ZM21.4645 12.9167L23.6334 13.6822L23.5202 14.0028L22.6149 13.6833L22.4925 14.0303L23.2355 14.2926L23.1237 14.6094L22.3806 14.3472L22.2395 14.747C22.3738 14.8114 22.532 14.8799 22.7206 14.9465C22.9242 15.0184 23.1004 15.0721 23.2491 15.1076L23.0285 15.42C22.8814 15.368 22.7507 15.3177 22.6314 15.2713C22.131 15.0905 21.8038 14.9241 21.6509 14.7683C21.5428 14.6538 21.4647 14.4905 21.4203 14.2797C21.2604 14.4566 21.0793 14.609 20.8772 14.737L20.6906 14.4124C21.082 14.1688 21.3646 13.8486 21.5413 13.4444L21.8448 13.5939C21.7893 13.727 21.7252 13.8486 21.6549 13.9638C21.6908 14.2225 21.7685 14.4111 21.8943 14.5234L21.9242 14.5467L22.2717 13.5622L21.3513 13.2373L21.4645 12.9167Z" fill="white"/>
<path d="M26.0957 12.6465L26.1723 12.997C25.9193 13.0219 25.6726 13.0278 25.4285 13.0135L25.1361 13.8858L26.0691 14.1985L26.5293 12.8256L26.8896 12.9464L26.4294 14.3193L27.2752 14.6028L27.1582 14.9517L26.3125 14.6682L25.7303 16.4052L25.37 16.2845L25.9522 14.5475L25.0116 14.2322C24.6941 15.0033 24.1886 15.4793 23.4888 15.6666L23.2958 15.3362C23.9197 15.1867 24.3732 14.7776 24.6475 14.1102L23.7638 13.814L23.8808 13.4651L24.772 13.7638L25.0339 12.9825C24.7911 12.9517 24.5458 12.9033 24.3043 12.8434L24.2998 12.4791C25.0092 12.6409 25.6074 12.6938 26.0957 12.6465Z" fill="white"/>
<path d="M28.2194 14.0243L29.7572 14.5078C29.7155 14.2934 29.6474 14.0833 29.554 13.8737L29.9585 13.8541C30.0383 14.0804 30.0996 14.3387 30.1387 14.6278L31.585 15.0824L31.4722 15.4411L30.8884 15.2576C30.5228 15.78 30.0996 16.1795 29.6173 16.4597C29.9122 16.9088 30.3231 17.3357 30.8435 17.7342L30.5453 17.9758C30.0029 17.5537 29.5816 17.1068 29.2851 16.6362C28.7339 16.8822 28.1147 16.9978 27.4275 16.9831L27.3337 16.6013C28.0023 16.6354 28.5889 16.5431 29.1026 16.3231C28.8148 15.7713 28.677 15.1829 28.6904 14.5666L28.1066 14.383L28.2194 14.0243ZM29.0377 14.6757C29.0504 15.1955 29.1803 15.6892 29.4324 16.1542C29.8483 15.9118 30.2106 15.5728 30.5144 15.14L29.0377 14.6757Z" fill="white"/>
<path d="M33.0072 14.7948L33.3016 15.0562C33.0788 15.3327 32.8222 15.5826 32.5327 15.8021L31.7914 18.3317L31.4305 18.2259L32.047 16.1224C31.8424 16.2375 31.6274 16.3454 31.4031 16.4422L31.3993 16.0284C32.0492 15.7312 32.586 15.3216 33.0072 14.7948ZM33.8 18.8453L33.0822 18.6349C32.7751 18.5449 32.6666 18.3464 32.7566 18.0393L33.0716 16.9645C32.912 16.997 32.7486 17.0283 32.5825 17.0546L32.5187 16.6608C32.7529 16.6294 32.9807 16.5919 33.1964 16.5384L33.6341 15.0453L33.9987 15.1521L33.6275 16.4188C34.0768 16.2796 34.494 16.0934 34.8714 15.8581L35.0404 16.2202C34.5655 16.4895 34.0519 16.7058 33.4981 16.8603L33.1358 18.0963C33.1043 18.2038 33.1462 18.2744 33.269 18.3104L33.8409 18.478C33.9292 18.5039 34.0035 18.4923 34.0626 18.4471C34.1178 18.4008 34.2043 18.2052 34.3155 17.8543L34.6207 18.0646C34.4644 18.4982 34.3358 18.7522 34.2397 18.8241C34.1398 18.8949 33.9919 18.9016 33.8 18.8453Z" fill="white"/>
<path d="M36.8634 17.595L36.1448 17.4025L35.7504 18.8746C35.7256 18.9674 35.7623 19.031 35.8667 19.059L36.539 19.2391C36.6549 19.2701 36.7366 19.2589 36.7791 19.2082C36.8266 19.1546 36.885 19.0295 36.9532 18.8366L37.266 19.0446C37.1451 19.3725 37.0439 19.5648 36.9557 19.6157C36.8773 19.661 36.7415 19.6578 36.5561 19.6081L35.6172 19.3566C35.3737 19.2913 35.285 19.1433 35.3471 18.9115L35.8388 17.0762L35.6036 17.212L35.467 16.8565C35.9241 16.6187 36.3668 16.3108 36.7942 15.9367L37.0647 16.0091C37.3094 16.4557 37.5346 16.9135 37.7325 17.3806L37.4257 17.5676C37.2114 17.0381 37.0281 16.6246 36.8672 16.3289C36.5866 16.5726 36.2859 16.7985 35.9574 17.0045L37.3097 17.3668L37.024 18.4331C36.9632 18.6446 36.8173 18.7256 36.5813 18.679C36.4307 18.6386 36.2887 18.5964 36.1556 18.5525L36.1588 18.1848C36.2976 18.2386 36.4192 18.2794 36.5274 18.3084C36.6163 18.3322 36.675 18.2983 36.6978 18.2132L36.8634 17.595ZM38.1186 16.6351L38.4779 16.7314L37.8393 19.1153L37.4799 19.0191L38.1186 16.6351ZM37.932 20.0057L37.3486 19.8494L37.3578 19.475C37.543 19.5412 37.7225 19.5976 37.8925 19.6431C37.9852 19.6679 38.0471 19.6224 38.0772 19.5103L38.8866 16.4889L39.2536 16.5872L38.4194 19.7014C38.3469 19.9719 38.1832 20.0729 37.932 20.0057Z" fill="white"/>
<path d="M40.2115 17.3692L39.6048 17.2232L39.6796 16.9121L40.963 17.2208C40.9478 17.1472 40.9317 17.0775 40.9137 17.0156L41.3292 17.0497C41.3425 17.1311 41.3579 17.2212 41.3675 17.3181L42.7131 17.6418L42.6383 17.9529L42.0199 17.8042L41.851 18.0104L42.7649 18.2302L42.6882 18.5491L39.2892 17.7315L39.3659 17.4126L40.2487 17.625L40.2115 17.3692ZM40.6337 17.7176L41.466 17.9178L41.6349 17.7116L40.5965 17.4618L40.6337 17.7176ZM39.6543 17.9921L42.2445 18.6152L41.9526 19.8286L39.3625 19.2055L39.6543 17.9921ZM41.6583 19.4616L41.705 19.2671L39.8383 18.8181L39.7915 19.0125L41.6583 19.4616ZM39.9019 18.5536L41.7686 19.0026L41.8145 18.8121L39.9477 18.363L39.9019 18.5536ZM39.1782 19.3217L39.5182 19.4816C39.3549 19.7673 39.1668 20.0018 38.9531 20.1891L38.6819 19.914C38.888 19.7414 39.0502 19.5459 39.1782 19.3217ZM40.9438 20.7214L39.9949 20.4931C39.6954 20.4211 39.5804 20.2494 39.644 19.985L39.7637 19.4872L40.1371 19.577L40.036 19.997C40.0127 20.0942 40.0588 20.1588 40.1794 20.1878L40.9533 20.374C41.0233 20.3908 41.0776 20.3874 41.1114 20.3668C41.1587 20.3411 41.2102 20.2465 41.267 20.0792L41.5898 20.2761C41.4933 20.5409 41.3986 20.695 41.2999 20.7289C41.2148 20.7578 41.0955 20.7579 40.9438 20.7214ZM40.7471 19.5551C40.8653 19.748 40.9492 19.9122 41.0019 20.0524L40.6432 20.1924C40.5846 20.0426 40.4987 19.8697 40.3844 19.6776L40.7471 19.5551ZM41.9409 19.9286C42.094 20.2328 42.204 20.4938 42.2719 20.7076L41.9132 20.8476C41.8431 20.6086 41.7389 20.3408 41.5965 20.0432L41.9409 19.9286Z" fill="white"/>
<path d="M46.7854 18.5284L46.1176 21.7438L45.7573 21.669L45.8166 21.3831L44.9668 21.2066L44.8976 21.5395L44.5412 21.4655L45.2188 18.2031L46.7854 18.5284ZM45.04 20.8541L45.8898 21.0306L46.3527 18.8021L45.5028 18.6256L45.04 20.8541ZM43.2763 18.6453L43.9303 18.7811L44.0279 18.3112C43.8421 18.3012 43.6539 18.2825 43.4705 18.2608L43.4222 17.9035C44.0351 17.9817 44.541 17.9847 44.9424 17.921L45.0544 18.267C44.84 18.296 44.6233 18.3163 44.4021 18.3194L44.2906 18.856L44.929 18.9886L44.8566 19.3371L44.2182 19.2045L44.1857 19.3612C44.3652 19.5986 44.5437 19.8604 44.7212 20.1465L44.4352 20.4221C44.311 20.1348 44.2037 19.9042 44.1109 19.7215L43.7652 21.386L43.4049 21.3112L43.7343 19.725C43.5093 20.0214 43.243 20.2807 42.9433 20.5044L42.8673 20.0638C43.277 19.822 43.6064 19.5146 43.8539 19.1493L43.8579 19.1297L43.2039 18.9939L43.2763 18.6453Z" fill="white"/>
<path d="M47.6753 18.5126C47.8957 18.7447 48.0719 18.9733 48.2134 19.192L47.9129 19.4089C47.7945 19.1981 47.6149 18.9649 47.3776 18.7137L47.6753 18.5126ZM46.9801 19.551L47.8635 19.7007L47.5808 21.3689C47.7204 21.2871 47.8706 21.1909 48.0353 21.0808L48.071 21.4926C47.7745 21.6858 47.4663 21.8526 47.147 21.9892L47.0625 21.626C47.135 21.5815 47.1825 21.5165 47.1965 21.4337L47.4398 19.9981L46.9192 19.9099L46.9801 19.551ZM48.3085 20.2589L50.2212 20.5831L50.163 20.9262C49.9892 21.2578 49.7491 21.5254 49.4421 21.7331C49.6664 21.9415 49.9486 22.1435 50.2822 22.3298L50.0263 22.6191C49.6586 22.3945 49.362 22.1577 49.1273 21.915C48.7822 22.0837 48.3696 22.1964 47.8973 22.2543L47.7417 21.9034C48.1805 21.8519 48.5576 21.7576 48.8736 21.6164C48.6495 21.3107 48.5129 20.9914 48.4718 20.6599L48.247 20.6218L48.3085 20.2589ZM48.8228 20.7193C48.8727 20.9753 48.9897 21.2182 49.1772 21.4529C49.4229 21.2957 49.6253 21.1069 49.7811 20.8817L48.8228 20.7193ZM48.8425 18.7834L50.2386 19.02L50.0982 19.8482C50.0835 19.935 50.1228 19.9903 50.2214 20.007L50.5685 20.0658L50.5103 20.4089L50.0647 20.3334C49.7847 20.286 49.6694 20.1285 49.7135 19.8682L49.8084 19.3082L49.1537 19.1972L49.1337 19.3155C49.0642 19.7257 48.801 20.0097 48.3488 20.1643L48.1492 19.8343C48.5058 19.7406 48.7108 19.5603 48.7563 19.2922L48.8425 18.7834Z" fill="white"/>
<path d="M52.2019 20.3442L53.2422 20.4713L53.3844 19.308L53.7735 19.3555L53.6313 20.5189L54.616 20.6392L54.5704 21.0125L53.5857 20.8921L53.3241 23.0322L52.935 22.9846L53.1966 20.8446L52.1563 20.7174L52.2019 20.3442ZM51.6171 19.1283C51.8514 19.3543 52.046 19.5756 52.2004 19.796L51.9103 20.0265C51.7743 19.8204 51.5802 19.5952 51.3235 19.3543L51.6171 19.1283ZM50.9523 20.2156L51.8695 20.3277L51.6627 22.0191C51.8024 21.9314 51.948 21.8283 52.103 21.7143L52.1552 22.1116C51.8719 22.3187 51.5718 22.4997 51.2591 22.6508L51.1574 22.2959C51.2317 22.2485 51.2757 22.1854 51.2854 22.106L51.464 20.6449L50.9081 20.5769L50.9523 20.2156Z" fill="white"/>
<path d="M55.5323 20.967L55.4959 21.5498L56.0548 21.5848L56.0912 21.0019L55.5323 20.967ZM56.1125 20.6626L56.1494 20.0717L55.5905 20.0368L55.5536 20.6276L56.1125 20.6626ZM55.4664 21.8927C55.4045 22.4339 55.2805 22.879 55.0946 23.224L54.8234 22.9466C55.0048 22.6092 55.1123 22.1711 55.15 21.6324L55.2726 19.6722L56.5142 19.7499L56.319 22.8718C56.302 23.1433 56.1697 23.2713 55.9262 23.256L55.6068 23.236L55.536 22.895C55.647 22.9139 55.7463 22.9282 55.8421 22.9341C55.926 22.9394 55.9744 22.8703 55.9831 22.7306L56.0333 21.9281L55.4664 21.8927ZM57.0281 21.5936L56.939 23.0188C57.1536 22.92 57.3382 22.7873 57.4964 22.6288C57.2834 22.3189 57.1446 21.9736 57.08 21.5968L57.0281 21.5936ZM56.9382 23.0308L56.9193 23.3342L56.564 23.3119L56.7857 19.7669L58.4664 19.872C58.4339 20.391 58.3885 20.7328 58.3299 20.9015C58.2715 21.0662 58.1145 21.1405 57.859 21.1245L57.5237 21.1035L57.4439 20.7779C57.5077 20.7819 57.5953 20.7914 57.7071 20.7984C57.7909 20.8036 57.8553 20.7997 57.896 20.7902C57.9366 20.7807 57.9708 20.7468 57.9983 20.6924C58.0265 20.626 58.0529 20.4593 58.0776 20.1923L57.1195 20.1324L57.0491 21.2582L58.3985 21.3426L58.3785 21.662C58.2822 22.0487 58.1414 22.3766 57.9565 22.6416C58.1105 22.8075 58.2934 22.9592 58.5009 23.1004L58.2933 23.4081C58.0743 23.2581 57.8841 23.0939 57.7267 22.9198C57.5515 23.0932 57.3464 23.2326 57.1154 23.3384L56.9382 23.0308ZM57.4034 21.617C57.467 21.8815 57.572 22.1246 57.7225 22.3464C57.8552 22.1463 57.9618 21.9165 58.0422 21.657L57.4034 21.617Z" fill="white"/>
<path d="M60.0459 19.736L60.4335 19.7943C60.393 19.8901 60.3484 19.9818 60.2999 20.0655L62.0119 20.0757L62.0101 20.3837C61.7684 20.6582 61.475 20.8965 61.1338 21.0945C61.5609 21.257 62.0362 21.3678 62.5639 21.419L62.3898 21.7739C61.7703 21.6983 61.2112 21.5429 60.7166 21.304C60.2353 21.5172 59.6744 21.6698 59.0418 21.7621L58.868 21.4051C59.4044 21.3402 59.885 21.2311 60.3019 21.0775C60.1106 20.9644 59.9354 20.8354 59.7722 20.6984C59.6355 20.8136 59.4868 20.9207 59.3223 21.0197L59.0921 20.7144C59.5616 20.4491 59.8796 20.123 60.0459 19.736ZM60.715 20.904C60.9918 20.7696 61.2367 20.6111 61.4538 20.4284L60.0498 20.42C60.0378 20.432 60.0297 20.4399 60.0257 20.4479C60.2326 20.6211 60.4637 20.7745 60.715 20.904ZM60.4232 21.5463L60.7991 21.5485C60.7983 21.6925 60.7855 21.8284 60.7647 21.9563L62.1447 21.9645C62.1326 22.6644 62.0701 23.0841 61.9573 23.2194C61.8445 23.3547 61.644 23.4255 61.364 23.4239C61.228 23.4231 61.0601 23.4141 60.8682 23.4009L60.7742 23.0564C60.9822 23.0656 61.1501 23.0746 61.2781 23.0834C61.4821 23.0806 61.6103 23.0373 61.6628 22.9576C61.7153 22.874 61.7486 22.6542 61.7627 22.3022L60.6787 22.2958C60.6421 22.3916 60.6016 22.4833 60.5531 22.5671C60.351 22.9259 59.8812 23.2191 59.1398 23.4507L58.8897 23.1412C59.5428 22.9531 59.9722 22.7236 60.1738 22.4488C60.2061 22.397 60.2384 22.3452 60.2627 22.2933L59.1387 22.2867L59.1408 21.9467L60.3807 21.954C60.4055 21.8262 60.4223 21.6903 60.4232 21.5463Z" fill="white"/>
<path d="M64.6773 19.648C64.7379 19.7739 64.7951 19.9159 64.8569 20.0737L66.244 20.023L66.2572 20.3827L65.5856 20.4073C65.5522 20.5887 65.5027 20.7666 65.4369 20.9371L66.3603 20.9033L66.3737 21.2711L63.5356 21.3749L63.5554 21.9146C63.5622 22.5387 63.4407 23.0475 63.1828 23.4372L62.8817 23.1921C63.0864 22.8804 63.1831 22.4605 63.1716 21.9286L63.1384 21.0212L63.9459 20.9917L63.7868 20.4731L63.0753 20.4992L63.0621 20.1394L64.4692 20.0879C64.4124 19.9579 64.3479 19.8362 64.2799 19.7266L64.6773 19.648ZM64.3217 20.9779L65.0731 20.9504C65.139 20.7799 65.1885 20.602 65.2219 20.4206L64.1586 20.4595L64.3217 20.9779Z" fill="white"/>
<path d="M68.1027 19.5523L68.4818 19.525L68.7076 22.6609L69.1864 22.6264L68.9605 19.4905L69.3395 19.4632L69.5654 22.5991L70.7304 22.5152L70.7571 22.8862L67.1983 23.1426L67.1716 22.7715L68.3286 22.6882L68.1027 19.5523ZM70.1391 20.1516L70.4811 20.2232C70.3789 20.9203 70.2265 21.5329 70.0242 22.0648L69.6765 21.9695C69.8665 21.4906 70.0232 20.8818 70.1391 20.1516ZM67.4016 20.3407C67.6436 20.8607 67.8671 21.4582 68.0761 22.1329L67.7353 22.2457C67.5545 21.6291 67.3353 21.0353 67.0859 20.4677L67.4016 20.3407Z" fill="white"/>
<path d="M71.141 20.5772L71.3381 19.3834L71.7226 19.4089L71.5899 20.1661L72.1789 20.1066C72.2248 19.8045 72.2532 19.488 72.268 19.1569L72.6589 19.1657C72.6429 19.4849 72.6129 19.7854 72.5729 20.0668L74.3957 19.8829L74.4322 20.245L72.514 20.4387C72.4874 20.574 72.4561 20.7018 72.4284 20.8252L74.0203 20.6645L74.0524 20.9829C73.9819 21.3197 73.8166 21.6339 73.5486 21.9263C73.868 22.0629 74.2498 22.1811 74.6901 22.2814L74.5312 22.6593C74.032 22.5328 73.6064 22.3788 73.2591 22.2047C72.9668 22.4554 72.6009 22.6933 72.1613 22.9186L71.9261 22.5805C72.3096 22.3971 72.6358 22.2033 72.9011 22.0037C72.6215 21.8228 72.404 21.6197 72.253 21.3977C72.0259 22.0156 71.7111 22.5218 71.3127 22.9158L71.0823 22.5853C71.5825 22.0443 71.9258 21.3423 72.112 20.4792L71.141 20.5772ZM72.5067 21.163C72.6617 21.3846 72.8908 21.5826 73.1934 21.7531C73.4237 21.5248 73.5846 21.2874 73.6728 21.0453L72.5067 21.163ZM73.3231 19.0544C73.6186 19.2336 73.8707 19.4213 74.079 19.6133L73.8357 19.9112C73.6556 19.7204 73.4111 19.528 73.0937 19.3308L73.3231 19.0544Z" fill="white"/>
<path d="M75.6528 20.3073L76.2005 20.2384L76.1605 19.9209L75.4977 20.0043L75.5357 20.3059C75.5657 20.5441 75.5788 20.7763 75.5819 20.9936L76.2844 20.9051L76.2424 20.5718L75.6948 20.6407L75.6528 20.3073ZM75.5773 21.3409C75.5563 21.7829 75.4827 22.1913 75.356 22.562L75.016 22.3267C75.2031 21.7951 75.2496 21.1402 75.1547 20.3539L74.9869 19.0204L78.0229 18.6383L78.1528 19.6702L77.6012 19.7396L77.6411 20.0571L78.2364 19.9822L78.2784 20.3155L77.6831 20.3905L77.725 20.7238L78.4553 20.6319L78.4982 20.9732L78.1014 21.0232L78.36 21.2204C78.256 21.3867 78.1365 21.5267 78.0056 21.64C78.2225 21.7296 78.4632 21.784 78.7316 21.8026L78.598 22.1822C77.8601 22.0856 77.3017 21.7487 76.9187 21.172L76.4266 21.234L76.5215 21.988C76.7521 21.8985 76.9539 21.8046 77.123 21.7067L77.2379 22.043C76.9305 22.1946 76.5615 22.3378 76.1309 22.4726L75.9863 22.1562C76.0993 22.0936 76.1484 22.0027 76.1324 21.8757L76.0575 21.2804L75.5773 21.3409ZM77.2997 21.1241C77.4134 21.2589 77.5405 21.3719 77.6815 21.4671C77.8208 21.3568 77.9437 21.2123 78.0498 21.0297L77.2997 21.1241ZM77.236 19.7855L76.5217 19.8755L76.5616 20.193L77.276 20.103L77.236 19.7855ZM76.6455 20.8597L77.3599 20.7698L77.3179 20.4364L76.6036 20.5263L76.6455 20.8597ZM77.6854 19.0315L75.4113 19.3177L75.4553 19.667L77.7293 19.3808L77.6854 19.0315Z" fill="white"/>
<path d="M78.941 19.374L80.2427 19.1809L80.2867 19.4776C80.2271 20.3842 79.9261 21.1082 79.3877 21.6491L79.1045 21.3757C79.5625 20.9195 79.8342 20.3252 79.9248 19.6001L78.995 19.738L78.941 19.374ZM81.9166 18.5524L82.2547 18.7327C82.0092 19.1493 81.739 19.5088 81.4528 19.8141C81.829 20.2516 82.28 20.5932 82.8058 20.8387L82.6194 21.2181C81.9015 20.7949 81.3495 20.2904 80.9679 19.7081L81.2086 21.3304C81.2497 21.6073 81.1403 21.7692 80.8831 21.8073L80.3608 21.8848L80.2231 21.5292C80.3917 21.5203 80.5511 21.5048 80.7015 21.4825C80.7925 21.469 80.8311 21.4026 80.8147 21.2918L80.3504 18.162L80.7302 18.1057L80.8517 18.9247C80.9661 19.1504 81.0979 19.3573 81.2398 19.5505C81.4978 19.2454 81.7234 18.9127 81.9166 18.5524Z" fill="white"/>
<path d="M82.7761 17.9575L85.987 17.4179L86.0487 17.7848L84.6128 18.0261L84.8475 19.4225L86.4332 19.156L86.4936 19.515L84.9078 19.7815L85.1372 21.1463L84.7585 21.21L84.5291 19.8451L82.9749 20.1063L82.9146 19.7473L84.4688 19.4862L84.2341 18.0897L82.8377 18.3244L82.7761 17.9575ZM83.4211 18.417C83.6082 18.6614 83.7953 18.9301 83.9838 19.231L83.6619 19.4636C83.476 19.1541 83.2882 18.8814 83.0985 18.6456L83.4211 18.417ZM85.5486 18.0433L85.919 18.1473C85.8556 18.4703 85.7554 18.7913 85.623 19.1137L85.2546 18.9972C85.3896 18.6662 85.4865 18.3498 85.5486 18.0433Z" fill="white"/>
<path d="M87.9307 17.579L88.4399 20.3161L88.082 20.3826L88.044 20.1781L87.4226 20.2937L87.4819 20.6123L87.124 20.6788L86.5937 17.8277L86.9673 17.7582C86.9985 17.5327 87.0134 17.3062 87.0024 17.0722L87.3855 17.0539C87.3864 17.2775 87.3647 17.489 87.3251 17.6917L87.9307 17.579ZM87.3583 19.9477L87.9796 19.8321L87.8355 19.0574L87.2141 19.1729L87.3583 19.9477ZM87.152 18.8387L87.7733 18.7231L87.6387 17.9995L87.0174 18.1151L87.152 18.8387ZM88.8142 18.3911C89.1337 18.6653 89.3862 18.9072 89.5692 19.1254L89.313 19.3887C89.1153 19.157 88.8574 18.9079 88.5465 18.6362L88.8142 18.3911ZM89.9606 17.2055C90.213 18.5622 90.3492 19.4035 90.3684 19.7254C90.3817 20.0158 90.2193 20.1925 89.885 20.2547C89.8064 20.2693 89.6634 20.2878 89.4645 20.3126L89.3104 19.9873C89.4849 19.963 89.6358 19.943 89.7617 19.9196C89.919 19.8904 89.9941 19.791 89.9869 19.6214C89.974 19.4204 89.8628 18.7575 89.6622 17.6353L88.6752 17.8189C88.6089 18.0753 88.5233 18.315 88.4105 18.5395L88.1314 18.2862C88.3208 17.8604 88.4161 17.3667 88.4095 16.8064L88.7879 16.7848C88.7896 17.0124 88.7726 17.2271 88.7455 17.4315L89.9606 17.2055Z" fill="white"/>
<path d="M91.1933 16.8341L90.5818 16.9583L90.5181 16.6447L91.8117 16.382C91.7669 16.3218 91.7228 16.2654 91.6803 16.2169L92.0713 16.0722C92.1178 16.1403 92.1698 16.2155 92.2194 16.2993L93.5758 16.0239L93.6394 16.3375L93.0161 16.464L92.9502 16.7223L93.8714 16.5353L93.9367 16.8567L90.5106 17.5523L90.4453 17.2309L91.3352 17.0502L91.1933 16.8341ZM91.7233 16.9714L92.5621 16.8011L92.6281 16.5428L91.5814 16.7553L91.7233 16.9714ZM90.9517 17.6342L93.5624 17.1041L93.8108 18.3272L91.2 18.8573L90.9517 17.6342ZM93.3889 18.119L93.3491 17.923L91.4675 18.305L91.5073 18.501L93.3889 18.119ZM91.4134 18.0384L93.295 17.6564L93.256 17.4643L91.3744 17.8463L91.4134 18.0384ZM91.0821 19.0404L91.4579 19.0416C91.4306 19.3696 91.3593 19.6617 91.2447 19.9216L90.8827 19.787C90.9965 19.5435 91.0609 19.2977 91.0821 19.0404ZM93.2739 19.5627L92.3174 19.7569C92.0155 19.8182 91.8387 19.7112 91.7846 19.4447L91.6827 18.9429L92.059 18.8665L92.145 19.2899C92.1649 19.3879 92.234 19.4269 92.3556 19.4022L93.1357 19.2438C93.2062 19.2295 93.254 19.2035 93.2759 19.1705C93.3079 19.1272 93.3146 19.0197 93.2953 18.8441L93.6712 18.8861C93.6955 19.1669 93.6749 19.3466 93.5998 19.419C93.5349 19.4812 93.4267 19.5317 93.2739 19.5627ZM92.6027 18.5888C92.7913 18.7138 92.9367 18.8271 93.0437 18.9319L92.7778 19.2104C92.6614 19.0993 92.5104 18.9789 92.3257 18.8532L92.6027 18.5888ZM93.8424 18.4228C94.1097 18.6338 94.3198 18.8238 94.4716 18.9889L94.2057 19.2674C94.0412 19.0804 93.8336 18.8817 93.5788 18.6722L93.8424 18.4228Z" fill="white"/>
<path d="M97.2766 15.1454L97.757 17.3292L97.382 17.4117L96.9815 15.5912L95.3486 15.9505L95.7499 17.7748L95.3749 17.8574L94.8936 15.6697L97.2766 15.1454ZM96.0031 16.0399L96.3703 15.9591L96.531 16.6897C96.5696 16.9023 96.5883 17.0989 96.5887 17.2872L96.9208 17.2142L97.1236 18.1361C97.1554 18.2807 97.2226 18.3437 97.3241 18.3214L97.8945 18.1959C97.9414 18.1856 97.9839 18.1557 98.0153 18.112C98.0497 18.0634 98.0448 17.8925 97.9968 17.6L98.3781 17.639C98.4185 18.0273 98.4128 18.2621 98.3619 18.347C98.2975 18.4267 98.1997 18.485 98.0686 18.5221L97.299 18.6914C97.0178 18.7533 96.8402 18.6162 96.7671 18.2842L96.5832 17.4482C96.5657 17.7223 96.5084 17.9643 96.409 18.1828C96.2233 18.5676 95.8603 18.9096 95.3217 19.2165L95.0537 18.9478C95.5923 18.6409 95.9362 18.3236 96.0814 17.9968C96.2192 17.6552 96.2443 17.2483 96.1638 16.7705L96.0031 16.0399Z" fill="white"/>
<path d="M98.4118 14.7086L99.6476 16.3358L99.2719 18.3442L98.9273 18.2777L99.2739 16.4242L98.1335 14.9224L98.4118 14.7086ZM99.0774 14.5511L100.313 16.1783L99.9375 18.1867L99.5929 18.1203L99.9395 16.2667L98.7836 14.7686L99.0774 14.5511Z" fill="white"/>
</svg>
