<svg width="28" height="19" viewBox="0 0 28 19" fill="none" xmlns="http://www.w3.org/2000/svg">
<path d="M2.81671 12.816L3.1819 12.7994L3.22974 14.6911L4.66776 15.9109L4.4423 16.1798L2.884 14.8581L2.81671 12.816ZM3.43257 12.5184L3.78335 12.5088L3.8456 14.3934L5.28362 15.6133L5.05816 15.8822L3.49985 14.5605L3.43257 12.5184Z" fill="white"/>
<path d="M5.19322 11.6801C5.41951 11.7892 5.65133 11.9179 5.88511 12.068L5.72056 12.2912L6.4581 11.9149C6.48275 11.6463 6.47315 11.3459 6.43112 11.0171L6.80793 10.9371C6.84952 11.2122 6.85701 11.4733 6.83935 11.7204L7.51632 11.375L7.68357 11.7028L6.52202 12.2954L6.57838 12.4058C6.65851 12.5805 6.72069 12.7464 6.77028 12.9052L8.18836 12.1816L8.35561 12.5094L7.10855 13.1457C7.50311 13.4878 8.12119 13.599 8.96461 13.483L8.9287 13.9055C8.02412 13.9808 7.34299 13.8164 6.88001 13.4195C6.90132 13.6197 6.89929 13.8093 6.87209 13.9849C6.79342 14.4291 6.52336 14.8768 6.06191 15.3278L5.72575 15.1266C6.18356 14.6685 6.43958 14.2549 6.49739 13.8841C6.51237 13.7463 6.5112 13.6032 6.49571 13.4584L5.27716 14.0801L5.10991 13.7523L6.4211 13.0833C6.37325 12.9191 6.31464 12.7515 6.23633 12.5804L6.17997 12.4699L5.01486 13.0644L4.84761 12.7366L5.6101 12.3475C5.38708 12.2009 5.16966 12.0828 4.95959 11.9879L5.19322 11.6801Z" fill="white"/>
<path d="M8.07945 10.3291L10.7633 8.92709L10.9356 9.25681L9.80458 9.84762L10.2565 10.7127L11.6356 9.99224L11.8116 10.3291L10.4324 11.0495L11.064 12.2585C11.1936 12.5067 11.1291 12.7028 10.8703 12.838L10.3066 13.1325L10.0653 12.8434C10.2517 12.7596 10.4291 12.6759 10.5922 12.5907C10.7056 12.5314 10.7346 12.4486 10.6827 12.3493L10.0956 11.2255L8.65618 11.9774L8.48024 11.6406L9.91967 10.8886L9.46776 10.0236L8.25169 10.6588L8.07945 10.3291Z" fill="white"/>
<path d="M12.6714 9.77695L13.1647 10.7197C13.4219 10.5039 13.6913 10.2681 13.9621 10.0091L14.212 10.2711C13.8391 10.6197 13.4463 10.9561 13.039 11.282L12.7578 11.0725C12.8188 10.9819 12.8261 10.8923 12.7797 10.8037L11.6542 8.65237C12.0601 8.3497 12.416 8.04616 12.7198 7.73821L13.0699 7.89817C12.8082 8.16599 12.4931 8.44373 12.1263 8.73495L12.5027 9.45443L13.4809 8.94265L13.6496 9.26517L12.6714 9.77695ZM15.5104 9.85361L15.1773 10.0279L14.9145 9.75005L15.2337 9.59211C15.3258 9.5439 15.3441 9.46663 15.2922 9.36739L14.3317 7.53147L13.6334 7.89677L15.0909 10.6825L14.7507 10.8606L13.1263 7.75579L14.505 7.03448L15.6695 9.26027C15.8086 9.52609 15.755 9.72567 15.5104 9.85361Z" fill="white"/>
<path d="M15.573 7.70818L15.3198 6.52498L15.687 6.40809L15.8405 7.16129L16.3669 6.89053C16.2991 6.59254 16.2098 6.28765 16.1025 5.97401L16.4694 5.83924C16.5713 6.1422 16.6533 6.43287 16.7191 6.70941L18.3482 5.87152L18.5147 6.19522L16.8002 7.07702C16.825 7.2127 16.8426 7.34309 16.8619 7.4681L18.2847 6.73631L18.4311 7.02088C18.4886 7.36013 18.4497 7.713 18.3072 8.08315C18.6544 8.09351 19.053 8.06393 19.4995 7.99623L19.4898 8.40602C18.9789 8.47087 18.5264 8.48318 18.1396 8.44822C17.9592 8.78839 17.7057 9.1437 17.3789 9.51416L17.0364 9.2855C17.3263 8.97449 17.559 8.67487 17.7329 8.39203C17.4066 8.32597 17.1298 8.21642 16.908 8.06509C16.9227 8.72326 16.8149 9.30949 16.5881 9.82192L16.2528 9.59854C16.5205 8.91211 16.5832 8.13319 16.4409 7.26179L15.573 7.70818ZM17.0583 7.75389C17.2837 7.90338 17.5693 8.00389 17.9133 8.05186C18.0441 7.75519 18.1071 7.47539 18.1006 7.21786L17.0583 7.75389ZM17.0469 5.49276C17.3875 5.5515 17.6908 5.63391 17.9549 5.73646L17.8374 6.10274C17.6 5.99095 17.302 5.90132 16.9345 5.83394L17.0469 5.49276Z" fill="white"/>
<path d="M20.6318 3.67198L20.9968 3.65159L21.0645 5.54262L22.5153 6.74724L22.2927 7.01849L20.7206 5.71333L20.6318 3.67198ZM21.2445 3.3679L21.5951 3.35462L21.6772 5.23854L23.128 6.44316L22.9054 6.71441L21.3332 5.40925L21.2445 3.3679Z" fill="white"/>
<path d="M24.1792 2.64367L23.2992 3.05657L23.1463 2.73066L25.214 1.76044L25.3669 2.08635L24.516 2.48565L25.6255 4.85027L26.5996 4.3932L26.7542 4.72272L24.386 5.83397L24.2314 5.50445L25.2887 5.00829L24.1792 2.64367ZM22.2802 2.94707C22.6153 3.00194 22.9124 3.07019 23.1661 3.15882L23.0409 3.51359C22.8124 3.422 22.5135 3.35013 22.1481 3.29629L22.2802 2.94707ZM22.5922 3.85671C22.9272 3.91158 23.2205 3.99047 23.4759 4.08272L23.349 4.43386C23.1188 4.33865 22.8236 4.26509 22.46 4.20593L22.5922 3.85671ZM23.4367 4.64899L23.7953 4.62214C23.8389 5.16721 23.8509 5.6918 23.8312 6.19592L23.4463 6.20422C23.479 5.68074 23.474 5.16169 23.4367 4.64899Z" fill="white"/>
</svg>
