<svg width="102" height="50" viewBox="0 0 102 50" fill="none" xmlns="http://www.w3.org/2000/svg">
<path d="M5.0957 1.72089L5.35107 1.98246L3.97095 3.27701L4.01742 5.16214L3.66668 5.17279L3.61615 3.13013L5.0957 1.72089ZM5.72768 1.98252L5.96827 2.23797L4.60293 3.53864L4.64941 5.42377L4.29866 5.43442L4.24814 3.39176L5.72768 1.98252Z" fill="white"/>
<path d="M7.5863 2.79686C7.65085 3.03963 7.7041 3.29937 7.74235 3.57458L7.46583 3.59499L8.23166 3.90976C8.45153 3.75363 8.67332 3.55071 8.89553 3.30471L9.20158 3.53863C9.01982 3.74935 8.82651 3.92505 8.62753 4.07248L9.33047 4.3614L9.19057 4.70177L7.98447 4.20603L7.93733 4.32072C7.85694 4.49527 7.77153 4.65045 7.68329 4.79149L9.15576 5.39672L9.01586 5.73709L7.72097 5.20485C7.71825 5.72703 8.03625 6.26858 8.67344 6.83321L8.3294 7.08102C7.68324 6.44351 7.36454 5.8195 7.36437 5.20965C7.22631 5.35616 7.08105 5.47809 6.93011 5.57174C6.54168 5.80131 6.02609 5.88779 5.38334 5.83119L5.31718 5.44505C5.96296 5.49425 6.44353 5.41931 6.76258 5.22178C6.87697 5.14338 6.98483 5.04932 7.08463 4.9433L5.81934 4.42323L5.95924 4.08286L7.32072 4.64247C7.41418 4.49925 7.50329 4.34558 7.58216 4.17474L7.6293 4.06005L6.41951 3.56279L6.55941 3.22242L7.35114 3.54785C7.31725 3.28308 7.26532 3.04118 7.20056 2.81995L7.5863 2.79686Z" fill="white"/>
<path d="M10.2982 4.03622L13.1047 5.17314L12.965 5.51792L11.7824 5.03882L11.4159 5.94341L12.8581 6.52764L12.7154 6.87984L11.2732 6.29561L10.7611 7.55982C10.656 7.81933 10.4647 7.89722 10.1941 7.78759L9.60463 7.54879L9.66865 7.17768C9.85322 7.26539 10.0319 7.3464 10.2024 7.41549C10.3211 7.46355 10.4029 7.43197 10.4449 7.32816L10.921 6.15293L9.41586 5.54317L9.55854 5.19098L11.0637 5.80074L11.4302 4.89615L10.1586 4.381L10.2982 4.03622Z" fill="white"/>
<path d="M14.2364 6.6816L14.5749 6.81545L14.3675 7.33994L14.7543 7.49291L14.6293 7.80909L14.2424 7.65611L14.0748 8.08016C14.2554 8.11288 14.43 8.13893 14.5935 8.16057L14.4612 8.49534C14.2939 8.47223 14.1193 8.44618 13.9409 8.41866L13.6276 9.21096L13.2891 9.07711L13.5759 8.35176C13.3455 8.30365 13.1039 8.25112 12.8578 8.18821L12.9499 7.82463C13.2146 7.89489 13.4696 7.95702 13.7113 8.00955L13.9039 7.52226L13.3088 7.28692L13.3579 6.94504C13.5341 6.78242 13.7271 6.56625 13.9347 6.29134L13.6074 6.1619L13.7427 5.81969L14.1593 5.98443C14.2502 5.8526 14.344 5.71333 14.437 5.56514L14.7526 5.74588C14.667 5.87546 14.5828 6.00133 14.5016 6.11975L15.1711 6.38451L15.0358 6.72673L14.277 6.42667C14.0833 6.67701 13.8978 6.89612 13.7165 7.08253L14.029 7.20608L14.2364 6.6816ZM15.3199 6.44335L15.8816 6.66546C15.9716 6.52471 16.058 6.3825 16.1458 6.23657L16.4785 6.40684C16.3936 6.54533 16.3117 6.67639 16.235 6.80519L17.0979 7.14644L16.9626 7.48866L16.029 7.11946C15.9558 7.2282 15.8842 7.33321 15.814 7.43451L16.9188 7.87137L16.785 8.20986L15.5946 7.73917C15.4978 7.86434 15.404 7.98207 15.3182 8.09012L16.4788 8.54904L16.364 8.83918C16.1509 9.03017 15.8797 9.19391 15.54 9.3349C15.6416 9.46968 15.7327 9.60897 15.8202 9.74678L15.5024 9.97384C15.237 9.52476 14.9391 9.13597 14.605 8.806L14.905 8.60204C15.0542 8.74704 15.1914 8.90025 15.3183 9.05797C15.5794 8.96335 15.8048 8.8503 15.9907 8.71735L14.7557 8.22901C14.9199 8.03152 15.0809 7.81993 15.245 7.60091L14.8061 7.42734L14.9399 7.08885L15.4644 7.29624C15.5375 7.18751 15.6091 7.08249 15.6793 6.9812L15.1846 6.78557L15.3199 6.44335Z" fill="white"/>
<path d="M17.2914 8.07232L18.0041 7.09448L18.3361 7.2901L17.8773 7.90683L18.4301 8.11847C18.6069 7.86921 18.7745 7.59928 18.9366 7.31011L19.2818 7.49365C19.124 7.77161 18.9622 8.02659 18.8 8.26004L20.5109 8.91498L20.3808 9.25493L18.5802 8.56567C18.4956 8.67465 18.4102 8.77472 18.33 8.87249L19.8242 9.44449L19.7098 9.74334C19.4954 10.0125 19.2066 10.2189 18.8358 10.3596C19.0596 10.6252 19.3475 10.9024 19.6957 11.1899L19.384 11.456C18.9949 11.1186 18.6839 10.7897 18.452 10.4782C18.0782 10.5707 17.6444 10.6188 17.1504 10.6224L17.0923 10.2147C17.5174 10.2233 17.8958 10.1968 18.2226 10.1377C18.0541 9.8505 17.9511 9.57123 17.916 9.30507C17.4353 9.75499 16.9267 10.0657 16.3936 10.2385L16.3364 9.83972C17.0264 9.58131 17.6486 9.10849 18.2029 8.42124L17.2914 8.07232ZM18.2481 9.20949C18.287 9.47708 18.4026 9.7569 18.5963 10.0452C18.9046 9.94479 19.1551 9.8051 19.3426 9.62848L18.2481 9.20949ZM19.9251 7.6928C20.1085 7.98572 20.2494 8.26665 20.3492 8.53185L19.9979 8.68864C19.9229 8.43718 19.7909 8.15538 19.596 7.83662L19.9251 7.6928Z" fill="white"/>
<path d="M22.7955 8.7707L23.1448 8.89872L22.7937 9.85642L22.4445 9.7284L22.7955 8.7707ZM21.3255 10.166C21.1479 10.1393 20.9702 10.1125 20.794 10.082L20.7659 9.7053C21.9662 9.94076 22.9421 9.9747 23.6899 9.80574C23.6018 9.66267 23.5061 9.51684 23.4029 9.36826L23.7273 9.22727C24.0126 9.63433 24.2416 10.0207 24.4082 10.38L24.0681 10.5408C24.0127 10.4012 23.9461 10.2575 23.8645 10.1083C23.4462 10.2149 22.9766 10.2642 22.4503 10.2588L23.7798 10.7461L23.0323 12.7854L22.683 12.6574L22.7353 12.5147L21.0791 11.9076L21.024 12.0578L20.6785 11.9312L21.3255 10.166ZM21.1947 11.5921L22.851 12.1992L22.9432 11.9476L21.2869 11.3405L21.1947 11.5921ZM21.3916 11.0551L23.0478 11.6622L23.1318 11.4331L21.4755 10.826L21.3916 11.0551ZM21.5788 10.5443L23.235 11.1514L23.3218 10.9148L21.6655 10.3077L21.5788 10.5443ZM22.1274 8.76865L22.2978 9.08247C21.9757 9.27541 21.6135 9.41528 21.2124 9.49832L21.1036 9.15596C21.4831 9.07354 21.8235 8.94695 22.1274 8.76865Z" fill="white"/>
<path d="M24.9156 10.2392L26.4384 10.768C26.4032 10.5525 26.3413 10.3405 26.2541 10.1282L26.659 10.1206C26.7321 10.3492 26.7858 10.6092 26.8163 10.8992L28.2484 11.3965L28.1251 11.7517L27.5469 11.551C27.1661 12.0624 26.7312 12.4491 26.2408 12.7149C26.5223 13.1726 26.9204 13.6115 27.4288 14.0251L27.1235 14.2579C26.5939 13.8199 26.186 13.3607 25.9035 12.8815C25.3453 13.1111 24.723 13.2083 24.0365 13.1732L23.954 12.7889C24.6213 12.8427 25.2105 12.7679 25.7304 12.5631C25.4591 12.0031 25.3387 11.4108 25.3704 10.7952L24.7923 10.5944L24.9156 10.2392ZM25.7143 10.9146C25.7116 11.4345 25.8268 11.9318 26.0651 12.4041C26.4879 12.1741 26.8602 11.846 27.1766 11.4224L25.7143 10.9146Z" fill="white"/>
<path d="M29.7506 11.176L30.037 11.446C29.806 11.7157 29.542 11.9578 29.2461 12.1685L28.4291 14.6747L28.0716 14.5581L28.751 12.4741C28.543 12.583 28.3249 12.6844 28.0978 12.7744L28.1064 12.3607C28.7649 12.0831 29.3138 11.6899 29.7506 11.176ZM30.4214 15.2484L29.7102 15.0166C29.406 14.9174 29.3035 14.7157 29.4026 14.4115L29.7498 13.3466C29.5893 13.3742 29.425 13.4006 29.2582 13.422L29.2063 13.0264C29.4414 13.0021 29.6701 12.9715 29.8874 12.9245L30.3697 11.4451L30.7309 11.5629L30.3218 12.8179C30.7751 12.6922 31.1977 12.5186 31.582 12.2947L31.7401 12.6618C31.2573 12.9167 30.7374 13.1174 30.1792 13.2552L29.78 14.4798C29.7453 14.5863 29.785 14.6581 29.9067 14.6978L30.4734 14.8825C30.5608 14.911 30.6354 14.9017 30.6958 14.8583C30.7525 14.8136 30.8448 14.6208 30.9665 14.2734L31.2652 14.4927C31.096 14.9214 30.9597 15.1715 30.8615 15.2405C30.7595 15.3082 30.6115 15.3104 30.4214 15.2484Z" fill="white"/>
<path d="M35.8553 13.2667L35.749 13.619L33.0952 12.8181L32.7543 13.9478C32.4997 14.7359 32.1432 15.3218 31.6886 15.7069L31.4868 15.3786C31.8597 15.0566 32.1613 14.5418 32.3905 13.838L32.8377 12.356L35.8553 13.2667ZM33.1095 13.4074L35.5374 14.1401L35.4334 14.4847L34.499 14.2028L33.9928 15.88C33.9061 16.1672 33.7282 16.2723 33.4601 16.1914L33.0542 16.0689L33.074 15.6988C33.1957 15.7523 33.316 15.7969 33.4308 15.8316C33.5419 15.8651 33.6201 15.8135 33.6594 15.6833L34.139 14.0941L33.0055 13.752L33.1095 13.4074Z" fill="white"/>
<path d="M36.3735 14.4717L37.4915 14.7809L37.5459 14.5842L37.9083 14.6845L37.8539 14.8811L38.9565 15.186L38.868 15.506L37.7654 15.2011L37.6844 15.4941L39.2265 15.9205L39.1391 16.2367L38.4259 16.0394L38.3427 16.3401L38.8901 16.4915L38.8016 16.8115L38.2542 16.6601L38.1081 17.1883C38.041 17.4312 37.8719 17.5172 37.6097 17.4447L37.0662 17.2944L37.0811 16.925C37.2542 16.9895 37.4168 17.0469 37.571 17.0896C37.679 17.1194 37.7457 17.0881 37.7692 17.0033L37.8918 16.5599L35.7444 15.966L35.8329 15.6461L37.9803 16.2399L38.0635 15.9392L35.6886 15.2824L35.776 14.9663L37.322 15.3938L37.403 15.1008L36.285 14.7917L36.3735 14.4717ZM36.429 16.2218C36.5713 16.4728 36.6736 16.6878 36.74 16.8681L36.4003 16.9858C36.3295 16.7919 36.2243 16.5719 36.081 16.3247L36.429 16.2218ZM36.7149 13.9726C36.5793 14.1177 36.4353 14.2481 36.283 14.3636L36.0223 14.0757C36.3206 13.8677 36.5575 13.6261 36.7392 13.3444L37.0648 13.5174C37.0225 13.5804 36.9763 13.6424 36.934 13.7054L37.8554 13.9602L37.7712 14.2647L37.1775 14.1005C37.2303 14.2397 37.2709 14.3629 37.2972 14.4781L36.9315 14.5098C36.9009 14.3353 36.8538 14.1604 36.792 13.9939L36.7149 13.9726ZM38.2833 14.3939C38.1875 14.5002 38.0872 14.5928 37.9852 14.6767L37.7367 14.4046C37.9615 14.2219 38.1482 14.0121 38.2901 13.7691L38.613 13.9373C38.5706 14.0003 38.5322 14.0643 38.4909 14.1235L39.5434 14.4145L39.4592 14.7191L38.8385 14.5474C38.8952 14.6876 38.9336 14.8186 38.956 14.9327L38.6068 14.9648C38.5724 14.7893 38.5242 14.6182 38.4645 14.444L38.2833 14.3939Z" fill="white"/>
<path d="M40.4944 15.2439C40.5332 15.435 40.5555 15.6592 40.5652 15.9172L40.9106 16.0035C41.0541 15.825 41.1929 15.6329 41.319 15.4253L41.6275 15.6262C41.5091 15.8027 41.3917 15.9589 41.2714 16.0938L41.6906 16.1985L41.6023 16.5517L39.6503 16.0637L39.7386 15.7106L40.2198 15.8309C40.2014 15.6407 40.1732 15.4564 40.1305 15.2808L40.4944 15.2439ZM42.162 14.9558L43.5086 15.2924L43.4387 15.5718C43.2195 15.9375 42.9954 16.2732 42.7703 16.5798C42.9682 17.0086 43.0429 17.3365 42.9906 17.5625C42.9246 17.8264 42.8247 17.9952 42.6986 18.0709C42.5647 18.1446 42.3299 18.1437 42.0039 18.0622L41.9845 17.645C42.1203 17.6955 42.2348 17.7323 42.3318 17.7566C42.4182 17.774 42.4822 17.7653 42.5171 17.7246C42.5501 17.6916 42.5841 17.6052 42.6219 17.4704C42.6733 17.2482 42.5909 16.9184 42.3784 16.4818C42.5792 16.2228 42.7907 15.9046 43.0158 15.532L42.4337 15.3865L41.6586 18.4871L41.3016 18.3979L42.162 14.9558ZM40.0782 14.6657L40.7922 14.8442C40.7815 14.722 40.7689 14.6075 40.7534 14.5047L41.1453 14.5367C41.1521 14.658 41.156 14.7909 41.1531 14.9344L41.9214 15.1265L41.8332 15.4797L39.9899 15.0189L40.0782 14.6657ZM41.3762 16.7961L40.996 18.3173L40.6273 18.2252L40.6777 18.0234L39.8163 17.808L39.7658 18.0098L39.4049 17.9196L39.7852 16.3984L41.3762 16.7961ZM39.9036 17.4588L40.7651 17.6741L40.9203 17.0532L40.0588 16.8379L39.9036 17.4588Z" fill="white"/>
<path d="M45.983 19.4631L45.6629 19.3916L45.6468 19.0232L45.9847 19.1069C46.0862 19.1296 46.1565 19.0715 46.1871 18.9349L46.7478 16.4248L45.28 16.0969L45.3568 15.7533L47.1837 16.1615L46.5235 19.1166C46.4573 19.4133 46.2758 19.5285 45.983 19.4631ZM43.8684 15.9209L44.2276 16.0011L43.5665 18.9601L43.2074 18.8799L43.8684 15.9209ZM44.6739 15.3794C44.8063 15.6304 44.9141 15.9003 44.9949 16.1807L44.6238 16.2822C44.5365 15.9758 44.4297 15.702 44.305 15.4528L44.6739 15.3794Z" fill="white"/>
<path d="M49.8491 17.1082L48.8953 16.921L48.9647 16.5677L51.2059 17.0078L51.1365 17.361L50.2142 17.1799L49.7109 19.743L50.7668 19.9503L50.6966 20.3075L48.1296 19.8035L48.1998 19.4463L49.3459 19.6713L49.8491 17.1082ZM48.1382 16.2302C48.376 16.4725 48.5753 16.7032 48.7275 16.9247L48.4168 17.1368C48.2866 16.9278 48.0881 16.6932 47.8252 16.4337L48.1382 16.2302ZM47.852 17.1482C48.0898 17.3906 48.2797 17.6276 48.4311 17.853L48.1212 18.0612C47.9918 17.8483 47.7972 17.6144 47.5389 17.3517L47.852 17.1482ZM48.0647 18.2865L48.3697 18.4769C48.0827 18.9423 47.7822 19.3724 47.4682 19.7673L47.1529 19.5465C47.4888 19.1436 47.7916 18.7221 48.0647 18.2865Z" fill="white"/>
<path d="M51.7013 17.0232L55.2425 17.6253L55.1801 17.9921L54.0168 17.7943L53.9303 18.303L54.8846 18.4652L54.4427 21.0639L54.0681 21.0002L54.0942 20.8464L51.7282 20.4441L51.7021 20.5979L51.3274 20.5342L51.7693 17.9355L52.7 18.0937L52.7865 17.585L51.6389 17.3899L51.7013 17.0232ZM51.7879 20.0931L54.1539 20.4955L54.2498 19.9316L53.7214 19.8417C53.4375 19.7934 53.3243 19.6241 53.3732 19.3362L53.4993 18.5948L53.0103 18.5117L53.0043 18.5472C52.8891 19.1768 52.5937 19.6013 52.1222 19.8213L51.8838 19.5292L51.7879 20.0931ZM53.1571 17.6481L53.0706 18.1568L53.5596 18.2399L53.6461 17.7312L53.1571 17.6481ZM51.8871 19.5095C52.2901 19.3346 52.5385 18.9954 52.6336 18.4841L52.6396 18.4486L52.0836 18.3541L51.8871 19.5095ZM53.87 18.6579L53.7586 19.3125C53.7385 19.4308 53.7791 19.5026 53.8895 19.5213L54.3075 19.5924L54.4496 18.7564L53.87 18.6579Z" fill="white"/>
<path d="M57.3941 17.9495L57.7551 18.0394L57.5085 19.0292L57.1476 18.9393L57.3941 17.9495ZM56.0819 19.4942C55.9024 19.4865 55.7229 19.4789 55.5444 19.4675L55.4762 19.0959C56.6947 19.2016 57.6687 19.1309 58.3942 18.8829C58.2912 18.7501 58.1805 18.6153 58.062 18.4786L58.3694 18.3037C58.6967 18.6779 58.9657 19.0376 59.1697 19.377L58.8488 19.5733C58.7788 19.4404 58.6972 19.3047 58.6001 19.165C58.1957 19.3158 57.734 19.4151 57.2101 19.466L58.5841 19.8083L58.0592 21.9159L57.6982 21.8259L57.7349 21.6785L56.0232 21.2521L55.9846 21.4074L55.6275 21.3184L56.0819 19.4942ZM56.1044 20.9261L57.8161 21.3524L57.8809 21.0924L56.1692 20.666L56.1044 20.9261ZM56.2427 20.371L57.9544 20.7974L58.0134 20.5606L56.3017 20.1343L56.2427 20.371ZM56.3742 19.8431L58.0859 20.2695L58.1468 20.025L56.4351 19.5986L56.3742 19.8431ZM56.7296 18.019L56.9326 18.3128C56.6331 18.5391 56.2878 18.7169 55.8979 18.8424L55.7531 18.5136C56.1217 18.3911 56.4465 18.2288 56.7296 18.019Z" fill="white"/>
<path d="M59.8482 20.2431C59.6921 20.3422 59.5297 20.435 59.3572 20.5201L59.3695 20.0977C59.9023 19.7968 60.3598 19.3944 60.7406 18.8815L61.0276 19.1562C60.8366 19.4082 60.6191 19.6386 60.379 19.8486L59.521 22.3791L59.1649 22.2584L59.8482 20.2431ZM60.9224 19.4542L61.6497 19.7008L61.9074 19.2771L62.2481 19.4306C62.1677 19.5681 62.0861 19.6967 62.0096 19.8228L63.1006 20.1927L62.9824 20.5412L61.8005 20.1405C61.7202 20.2527 61.6463 20.3585 61.5737 20.4606L63.017 20.95L62.9001 21.2947L61.3432 20.7668C61.2413 20.8928 61.1471 21.0087 61.0517 21.1157L62.5594 21.6269L62.4541 21.9375C62.2204 22.1286 61.9071 22.2927 61.5054 22.431C61.6363 22.5683 61.7608 22.7119 61.8764 22.8567L61.5665 23.098C61.2097 22.6306 60.8146 22.2264 60.39 21.8839L60.6796 21.6653C60.8786 21.8257 61.0662 21.9949 61.2449 22.1653C61.5718 22.0734 61.8456 21.9635 62.0638 21.8305L60.4728 21.2911C60.6509 21.0896 60.8253 20.8742 60.9985 20.6499L60.3999 20.447L60.5168 20.1023L61.2252 20.3425C61.2991 20.2366 61.373 20.1307 61.4444 20.0198L60.8042 19.8027L60.9224 19.4542Z" fill="white"/>
<path d="M64.119 23.0199L63.9769 23.355C63.5699 23.3823 63.1276 23.3598 62.6567 23.2818L62.7645 22.9147C63.256 23.0058 63.7099 23.0419 64.119 23.0199ZM64.5448 20.233L64.8237 20.5076C64.4611 20.8709 64.1329 21.1532 63.8406 21.3507C63.972 21.3891 64.105 21.4238 64.2396 21.4548C64.3522 21.3635 64.4731 21.2627 64.5972 21.1545L64.8602 21.4051C64.3283 21.8399 63.9066 22.1478 63.5916 22.327C63.8465 22.3612 64.1129 22.3786 64.3923 22.3754L64.2564 22.6958C63.7884 22.6929 63.3623 22.6425 62.9801 22.5499L63.0254 22.1868C63.1005 22.1839 63.1661 22.1726 63.2275 22.1509C63.3932 22.0778 63.6258 21.9288 63.9254 21.7039C63.7435 21.6615 63.5558 21.6123 63.3608 21.56L63.4083 21.2021C63.4729 21.2035 63.5447 21.1775 63.617 21.1299C63.9328 20.8771 64.242 20.5781 64.5448 20.233ZM64.5886 22.2197L64.6425 21.8776C64.6751 21.8827 64.7055 21.8826 64.7234 21.8815C64.8682 21.8473 65.1009 21.6983 65.4145 21.4403L64.8437 21.1982L64.9858 20.8631L65.8807 21.2426C65.8864 21.106 65.8854 20.9753 65.8776 20.8503L66.2598 20.9428C66.2577 21.081 66.2509 21.2302 66.2342 21.3925L67.0407 21.7345L66.8986 22.0697L65.7791 21.5949C65.5267 21.8007 65.3156 21.9502 65.1426 22.0506C65.4534 22.1476 65.7673 22.2373 66.0807 22.3181C66.0507 22.1837 66.0193 22.053 65.9878 21.9224L66.3232 21.8691C66.4335 22.2852 66.5042 22.641 66.5368 22.9329L66.1847 23.0052C66.1764 22.9017 66.1607 22.7952 66.1467 22.6849C65.6604 22.5613 65.1398 22.4057 64.5886 22.2197ZM64.8127 22.4495L65.1515 22.5931C64.9348 23.053 64.7306 23.3705 64.5428 23.5472C64.3391 23.7302 64.078 23.8541 63.7558 23.9173L63.652 23.5474C63.9144 23.5023 64.1289 23.4064 64.2953 23.2598C64.455 23.1189 64.6262 22.8483 64.8127 22.4495ZM65.4969 24.5861L65.2612 24.4862C64.9997 24.3753 64.9208 24.2028 65.0192 23.9708L65.5517 22.715L65.8868 22.8572L65.3824 24.0466C65.3574 24.1055 65.3639 24.1517 65.405 24.1778L65.6112 24.2653C65.6806 24.286 65.7414 24.2553 65.7862 24.1701C65.8395 24.0753 65.9077 23.9348 65.9858 23.7507L66.2425 23.9856C66.0926 24.3391 65.9725 24.5402 65.8866 24.5993C65.8038 24.6511 65.6725 24.6432 65.4969 24.5861Z" fill="white"/>
<path d="M68.7698 22.8617L67.5715 22.2621L67.7344 21.9366L70.4781 23.3095L70.3152 23.635L69.1132 23.0336L68.0249 25.2085L69.4522 25.9227L69.2876 26.2518L66.086 24.6497L66.2507 24.3206L67.6815 25.0366L68.7698 22.8617Z" fill="white"/>
<path d="M71.0998 23.6942L71.8849 24.1424L72.0574 23.8401L72.3943 24.0325L72.2218 24.3347L73.0555 24.8106L73.2281 24.5084L73.565 24.7008L73.3925 25.003L74.1776 25.4512L74.0011 25.7603L73.216 25.3122L73.0594 25.5866L72.7224 25.3943L72.879 25.1198L72.0453 24.6439L71.8887 24.9183L71.5517 24.726L71.7084 24.4515L70.9233 24.0034L71.0998 23.6942ZM71.0114 24.5833L73.318 25.9001L73.1375 26.2162C71.8848 26.1919 71.0403 26.2349 70.6078 26.3473C70.4659 26.386 70.3721 26.4292 70.3191 26.4818C70.2893 26.5339 70.3012 26.5776 70.3638 26.6133L72.0694 27.587C72.1632 27.6405 72.2501 27.6578 72.3245 27.6404C72.3969 27.6265 72.5536 27.4488 72.7946 27.1074L73.0289 27.407C72.7606 27.7881 72.5558 27.9936 72.411 28.0214C72.2716 28.0478 72.1088 28.0102 71.9282 27.907L70.2086 26.9254C69.9029 26.7509 69.815 26.558 69.938 26.3426C70.0213 26.1967 70.235 26.0884 70.5724 26.0139C71.0169 25.913 71.6906 25.8784 72.5887 25.9029L70.8309 24.8994L71.0114 24.5833Z" fill="white"/>
<path d="M73.2534 28.7677L72.963 28.5833L73.0863 28.2399C73.1655 28.3091 73.2422 28.3673 73.3233 28.4188C73.401 28.4681 73.4694 28.4499 73.5251 28.3621L73.986 27.6361C73.8344 27.6062 73.6871 27.5695 73.5398 27.5329L73.6551 27.1796C73.8251 27.2402 74.0016 27.2906 74.1811 27.3288L74.6463 26.596L74.2647 26.3537L74.4598 26.0464L74.8414 26.2887L75.2166 25.6977L75.5273 25.8949L75.1521 26.4859L75.483 26.696L75.2879 27.0033L74.957 26.7932L74.5733 27.3977C74.7224 27.4165 74.8724 27.4265 75.0224 27.4365L74.8231 27.7505C74.6752 27.7372 74.5294 27.7205 74.3803 27.7016L73.7843 28.6404C73.645 28.8599 73.4662 28.9027 73.2534 28.7677ZM75.2712 27.9402C74.8316 28.5282 74.3682 28.9447 73.8809 29.1898L73.7762 28.8248C74.269 28.5785 74.7455 28.104 75.2092 27.4034L75.9124 26.2958L77.7056 27.4341L77.5148 27.7347L76.0255 26.7893L75.5132 27.5964C75.5003 27.6166 75.4862 27.6314 75.4733 27.6516L76.9963 28.6185L76.8077 28.9157L76.21 28.5362C76.1215 28.698 76.0597 28.8625 76.0224 29.0331C76.1955 29.0292 76.3823 28.9962 76.5837 28.9251L76.6611 29.2585C76.4274 29.3281 76.1961 29.3566 75.9749 29.3393C75.9516 29.6372 75.9952 29.9492 76.1079 30.2718L75.7435 30.3532C75.5399 29.6365 75.6061 28.9725 75.9432 28.3669L75.7372 28.2361L75.034 29.3437C75.1948 29.389 75.3565 29.4253 75.5149 29.4595L75.4186 29.7679C75.1357 29.721 74.8174 29.6327 74.4596 29.5097L74.5411 29.1872C74.6547 29.2024 74.7436 29.1594 74.8036 29.0648L75.4468 28.0517L75.2712 27.9402ZM75.9919 27.1706L77.2144 27.9467L77.03 28.2371L75.8075 27.4611L75.9919 27.1706Z" fill="white"/>
<path d="M77.361 29.169L79.1868 30.4319C79.7286 30.1549 80.2605 29.8079 80.7857 29.393L81.0153 29.7221C80.4579 30.1342 79.9566 30.444 79.5158 30.6595L80.3612 31.2443L80.1519 31.5469L77.1517 29.4716L77.361 29.169ZM78.7162 28.2436C78.6771 28.6445 78.6077 29.0683 78.5112 29.5171L78.115 29.4571C78.2249 29.0029 78.2966 28.5759 78.3278 28.1792L78.7162 28.2436ZM79.6455 28.5946C79.5895 29.013 79.5032 29.4543 79.3897 29.9206L79.0001 29.8651C79.1181 29.3922 79.2034 28.9454 79.2516 28.5312L79.6455 28.5946ZM77.938 30.2052L78.1253 30.5391C77.6399 30.7627 77.1515 30.9063 76.6544 30.971L76.522 30.607C77.0034 30.5509 77.4739 30.4192 77.938 30.2052ZM79.2182 31.0616C79.2991 31.6477 79.3352 32.1299 79.3308 32.5159L78.9114 32.5176C78.9307 32.103 78.9047 31.6132 78.8357 31.045L79.2182 31.0616Z" fill="white"/>
<path d="M81.9461 31.6536L82.7889 32.2765L83.4855 31.3339L83.8007 31.5669L83.1042 32.5094L83.9019 33.099L83.6785 33.4014L82.8807 32.8118L81.5993 34.5457L81.284 34.3127L82.5654 32.5788L81.7226 31.956L81.9461 31.6536ZM82.0358 30.3073C82.1284 30.6195 82.1889 30.9079 82.2147 31.1757L81.8487 31.2335C81.8318 30.9872 81.7738 30.6956 81.669 30.3595L82.0358 30.3073ZM80.9218 30.9264L81.6648 31.4756L80.6521 32.8459C80.8168 32.8384 80.9943 32.8203 81.1853 32.7974L81.0351 33.1688C80.6866 33.2097 80.3363 33.2194 79.9897 33.197L80.076 32.838C80.164 32.8334 80.2333 32.8001 80.2809 32.7357L81.1558 31.5519L80.7054 31.2191L80.9218 30.9264Z" fill="white"/>
<path d="M86.5261 34.0979L86.8165 34.324L85.2974 36.2743L85.0071 36.0481L86.5261 34.0979ZM85.093 37.1747L84.6386 36.8207L84.7928 36.4795C84.9313 36.6076 85.0652 36.7221 85.1978 36.8253C85.2861 36.8942 85.3679 36.8868 85.4343 36.8016L87.3637 34.3244L87.6604 34.5555L85.6719 37.1084C85.5048 37.323 85.3107 37.3443 85.093 37.1747ZM85.9338 34.2855L85.755 34.6127L84.7594 34.0553C84.6614 34.2071 84.5796 34.3513 84.5139 34.4877C84.4457 34.6273 84.3849 34.7574 84.3403 34.8798C84.6568 34.8119 84.9758 34.6953 85.2941 34.5275L85.4503 34.8672C85.0222 35.0914 84.6042 35.2374 84.1958 35.2996C84.1761 35.3705 84.1614 35.435 84.1522 35.4989C84.1169 35.7655 84.1466 35.9356 84.2325 36.0076C84.2904 36.0375 84.4589 35.9253 84.7411 35.6736L84.8657 36.0343C84.6931 36.1584 84.5369 36.2548 84.394 36.321C84.2214 36.3995 84.0884 36.4074 84.0001 36.3386C83.8486 36.2206 83.7814 36.001 83.7904 35.6835C83.7932 35.5691 83.8074 35.4534 83.8327 35.3362C83.5205 35.3465 83.2139 35.3105 82.9129 35.2282L82.942 34.8199C83.2731 34.9155 83.606 34.9568 83.9424 34.9349C83.9899 34.7894 84.043 34.6431 84.1097 34.4923C84.1916 34.3026 84.3002 34.0981 84.4347 33.8733L84.003 33.6334L84.1849 33.3087L84.6317 33.5553C84.8063 33.2856 85.0148 32.9918 85.2582 32.6793L85.5611 32.9153C85.3301 33.2119 85.1275 33.4851 84.9596 33.7397L85.9338 34.2855ZM85.9931 33.2264C85.9986 33.4538 85.9886 33.6944 85.9625 33.9428L85.6117 33.8724C85.6459 33.6202 85.659 33.382 85.6536 33.1546L85.9931 33.2264Z" fill="white"/>
<path d="M88.833 36.3321L87.0797 38.4946L86.7969 38.2653L86.9279 38.1038L86.437 37.7057L86.233 37.9574L85.9502 37.7282L87.7766 35.4756L88.0718 35.7149C88.2638 35.5924 88.4458 35.4568 88.6168 35.2968L88.8792 35.5765C88.7096 35.7222 88.5345 35.8429 88.3545 35.9441L88.833 36.3321ZM86.6587 37.4323L87.1496 37.8303L87.6459 37.2183L87.155 36.8202L86.6587 37.4323ZM87.3691 36.5561L87.86 36.9542L88.3236 36.3825L87.8327 35.9844L87.3691 36.5561ZM88.7877 37.5312C88.7862 37.9523 88.7658 38.3013 88.7183 38.5822L88.3518 38.5579C88.4 38.2571 88.4223 37.8993 88.4275 37.4864L88.7877 37.5312ZM90.4337 37.6351C89.5646 38.707 89.0125 39.3562 88.7799 39.5796C88.5674 39.7781 88.3276 39.769 88.0635 39.5549C88.0014 39.5045 87.8946 39.4076 87.7468 39.2723L87.8945 38.9441C88.0261 39.0611 88.1392 39.1631 88.2386 39.2437C88.3629 39.3445 88.4872 39.3372 88.6117 39.2218C88.7563 39.0815 89.1888 38.5671 89.913 37.6867L89.1332 37.0543C88.895 37.1702 88.657 37.2605 88.413 37.3201L88.4248 36.9435C88.8717 36.8115 89.3094 36.5638 89.7316 36.1955L89.9935 36.4696C89.8213 36.6184 89.6468 36.7447 89.4737 36.8567L90.4337 37.6351Z" fill="white"/>
<path d="M91.5463 37.7459C91.6194 38.0829 91.6586 38.3918 91.6666 38.6694L91.2917 38.7004C91.297 38.4443 91.2634 38.135 91.1878 37.7697L91.5463 37.7459ZM91.016 41.9713C90.8471 41.8303 90.6654 41.6735 90.4714 41.5064C90.2744 41.3368 90.127 41.1825 90.0236 41.0442C89.9315 40.9048 89.8855 40.7414 89.8805 40.5601C89.8811 40.472 89.8647 40.4167 89.8279 40.3859C89.7634 40.3321 89.5375 40.378 89.1502 40.5238L89.1018 40.1447C89.463 40.0241 89.7319 39.9828 89.906 40.0239L90.6312 39.1547L90.2197 38.8113L90.4452 38.5411L91.1301 39.1126L90.1614 40.2735C90.1665 40.2986 90.169 40.3267 90.169 40.358C90.1704 40.4998 90.1929 40.6228 90.2364 40.7268C90.2926 40.8466 90.4047 40.9871 90.5808 41.1444C90.7533 41.2935 90.9565 41.4683 91.196 41.6682C91.3465 41.7938 91.5026 41.9189 91.6587 42.0439C91.8149 42.169 91.9398 42.2628 92.0278 42.3258L91.7163 42.5556L91.016 41.9713ZM92.5272 39.0802L91.9345 38.5856L92.137 38.3429L93.8231 39.7499L93.6514 39.9557C93.3451 39.9606 93.047 39.9307 92.7521 39.8721C92.7531 39.8834 92.7567 39.8916 92.7577 39.9028L93.375 40.418L92.2371 41.7816C92.0859 41.9628 91.9077 41.9703 91.7081 41.8038L91.4716 41.6064L91.6126 41.3125L91.8204 41.5068C91.888 41.5632 91.953 41.5601 92.0094 41.4926L92.1401 41.3359L91.6979 40.9669L91.2776 41.4706L91.0104 41.2476L91.4307 40.7439L90.9976 40.3826L90.5722 40.8924L90.2958 40.6618L91.6797 39.0033L92.3861 39.5928C92.3411 39.4406 92.2864 39.2752 92.2169 39.1025L92.5272 39.0802ZM92.6893 39.5853C92.8721 39.6284 93.0534 39.6546 93.2306 39.6671L92.5426 39.093C92.5978 39.2641 92.6494 39.427 92.6893 39.5853ZM91.3744 39.9311L91.195 40.1461L91.628 40.5075L91.8074 40.2925L91.3744 39.9311ZM92.0746 40.5154L91.8952 40.7304L92.3375 41.0995L92.5168 40.8845L92.0746 40.5154ZM92.7167 40.6449L92.8961 40.4299L92.4539 40.0609L92.2745 40.2759L92.7167 40.6449ZM92.0073 40.0529L92.1867 39.8379L91.7536 39.4766L91.5743 39.6916L92.0073 40.0529Z" fill="white"/>
<path d="M96.8804 42.7002L94.8604 45.078L94.5799 44.8398L94.7275 44.666L94.194 44.2128L94.0438 44.3896L93.7634 44.1513L95.786 41.7705L96.8804 42.7002ZM94.4245 43.9415L94.958 44.3947L96.3694 42.7333L95.836 42.2801L94.4245 43.9415ZM94.3834 41.2035C94.1838 41.2964 93.9854 41.3693 93.7913 41.4248L93.6755 41.0483C94.1141 40.9275 94.5159 40.7387 94.8779 40.4794L95.1126 40.7838C94.9837 40.8738 94.8565 40.9494 94.7319 41.022L95.5641 41.729L95.3284 42.0064L94.9138 41.6542C94.7472 41.838 94.5878 42.007 94.4323 42.1531L94.9078 42.5571L94.6722 42.8345L94.157 42.3968C94.0878 42.4535 94.0156 42.5076 93.9516 42.5582C93.977 42.9052 93.9873 43.2761 93.9856 43.6736L93.5809 43.7916C93.6198 43.3628 93.6399 43.0178 93.6414 42.7566C93.2414 42.9679 92.7945 43.0553 92.2971 43.0107L92.3049 42.6184C92.8214 42.653 93.2721 42.5426 93.6628 42.2866C93.7242 42.239 93.7912 42.191 93.8552 42.1404L93.2546 41.6302L93.4903 41.3528L94.1335 41.8993C94.2891 41.7532 94.4484 41.5842 94.6151 41.4004L94.3834 41.2035Z" fill="white"/>
<path d="M97.6601 42.8156L97.0747 44.7733L95.231 45.6542L95.0815 45.3367L96.7829 44.5236L97.3234 42.717L97.6601 42.8156ZM98.1798 43.2604L97.5943 45.218L95.7507 46.0989L95.6012 45.7814L97.3026 44.9683L97.8309 43.1513L98.1798 43.2604Z" fill="white"/>
</svg>
