<svg width="114" height="37" viewBox="0 0 114 37" fill="none" xmlns="http://www.w3.org/2000/svg">
<path d="M5.82969 3.52416L6.02088 3.83573L4.38864 4.793L4.01704 6.64172L3.67263 6.57454L4.07511 4.57128L5.82969 3.52416ZM6.38816 3.91908L6.56629 4.22141L4.94711 5.18792L4.57552 7.03664L4.2311 6.96946L4.63358 4.96621L6.38816 3.91908Z" fill="white"/>
<path d="M8.07519 5.17667C8.08233 5.42777 8.07456 5.69281 8.04865 5.96945L7.77483 5.92587L8.44801 6.40795C8.69783 6.30643 8.96027 6.15981 9.23298 5.97136L9.4772 6.26925C9.25195 6.43265 9.02348 6.55931 8.79598 6.65715L9.41388 7.09965L9.19962 7.39884L8.13944 6.63961L8.06724 6.74042C7.94895 6.89187 7.83021 7.02331 7.71196 7.14035L9.0063 8.06726L8.79204 8.36645L7.6538 7.55133C7.53136 8.05895 7.71662 8.65901 8.20727 9.35477L7.81554 9.51704C7.33289 8.74829 7.16586 8.0678 7.30562 7.47418C7.13762 7.58511 6.96826 7.67046 6.79987 7.72698C6.36912 7.8613 5.84744 7.82719 5.23483 7.62463L5.25902 7.2336C5.87629 7.42965 6.36123 7.46698 6.71709 7.34791C6.84642 7.29785 6.97298 7.23105 7.09444 7.15075L5.98223 6.35426L6.19649 6.05507L7.39326 6.91211C7.51709 6.79416 7.63908 6.66504 7.75504 6.51685L7.82724 6.41603L6.7638 5.65447L6.97806 5.35528L7.67401 5.85367C7.70177 5.58819 7.70672 5.34082 7.69445 5.11064L8.07519 5.17667Z" fill="white"/>
<path d="M10.5405 7.08753L12.997 8.85795L12.7795 9.15974L11.7443 8.41368L11.1737 9.20547L12.436 10.1152L12.2138 10.4235L10.9515 9.51375L10.154 10.6203C9.99029 10.8475 9.78603 10.8778 9.54914 10.707L9.03318 10.3352L9.18345 9.98985C9.34193 10.1189 9.49626 10.2399 9.64553 10.3475C9.74937 10.4224 9.83637 10.4111 9.90186 10.3203L10.6432 9.29157L9.32575 8.34204L9.54793 8.03376L10.8654 8.98329L11.4361 8.1915L10.323 7.38932L10.5405 7.08753Z" fill="white"/>
<path d="M13.0519 10.9202L12.4302 11.7836C12.7384 11.9169 13.0699 12.052 13.4228 12.178L13.3006 12.5188C12.8219 12.3417 12.3451 12.1414 11.8712 11.9233L11.9325 11.5781C12.0407 11.592 12.1241 11.5583 12.1825 11.4772L13.6012 9.5068C14.0538 9.73403 14.4846 9.91608 14.8961 10.0497L14.91 10.4343C14.5533 10.3204 14.1637 10.1632 13.739 9.96581L13.2646 10.6248L14.1605 11.2698L13.9478 11.5652L13.0519 10.9202ZM14.2558 13.4924L13.9506 13.2727L14.0813 12.9133L14.3655 13.1278C14.4499 13.1886 14.5271 13.1703 14.5926 13.0794L15.8033 11.3979L15.1638 10.9375L13.3267 13.4889L13.0151 13.2645L15.0625 10.4209L16.3253 11.3301L14.8575 13.3687C14.6822 13.6121 14.4797 13.6537 14.2558 13.4924Z" fill="white"/>
<path d="M16.2528 12.6239L17.1879 11.856L17.4602 12.1286L16.8614 12.6106L17.3436 12.9541C17.5772 12.7571 17.8071 12.5379 18.0365 12.2986L18.3247 12.5628C18.1022 12.7923 17.8816 12.9986 17.6661 13.1839L19.1581 14.2469L18.9469 14.5434L17.3767 13.4246C17.2675 13.5089 17.1597 13.5844 17.0575 13.6589L18.3606 14.5873L18.1749 14.848C17.8999 15.0547 17.5685 15.1821 17.1742 15.2253C17.3243 15.5385 17.5335 15.8791 17.7985 16.2448L17.43 16.4242C17.1379 16 16.9194 15.6037 16.7729 15.2439C16.3879 15.2397 15.9559 15.1775 15.4768 15.0572L15.5228 14.6479C15.9321 14.7627 16.3051 14.832 16.6362 14.8568C16.5452 14.5365 16.5155 14.2403 16.5482 13.9738C15.9702 14.2889 15.3998 14.4621 14.8405 14.4957L14.8851 14.0953C15.6178 14.0182 16.3387 13.7165 17.0476 13.1902L16.2528 12.6239ZM16.8937 13.9646C16.8643 14.2334 16.906 14.5333 17.0213 14.861C17.3449 14.841 17.6224 14.7686 17.8482 14.6447L16.8937 13.9646ZM18.8975 12.9169C19.0016 13.2465 19.0675 13.5538 19.0976 13.8355L18.7183 13.8992C18.7087 13.6369 18.6516 13.3311 18.5428 12.9736L18.8975 12.9169Z" fill="white"/>
<path d="M22.6672 15.543L22.8475 15.8441L21.2352 16.822L20.8767 18.6733L20.5318 18.6086L20.9201 16.6025L22.6672 15.543Z" fill="white"/>
<path d="M24.8093 17.7307L24.0021 17.1892L24.2026 16.8902L26.0994 18.1626L25.8988 18.4616L25.1182 17.9379L23.6631 20.1071L24.5566 20.7065L24.3538 21.0088L22.1814 19.5514L22.3842 19.2491L23.3541 19.8998L24.8093 17.7307ZM23.571 16.2594C23.6965 16.5748 23.7911 16.8646 23.8458 17.1277L23.4773 17.2032C23.4381 16.9601 23.3457 16.667 23.2036 16.326L23.571 16.2594ZM22.952 16.9954C23.0776 17.3108 23.1611 17.6028 23.2135 17.8692L22.8472 17.9414C22.8102 17.695 22.7212 17.4041 22.5846 17.062L22.952 16.9954ZM22.708 18.1274L22.9157 18.4208C22.4711 18.7391 22.0276 19.0196 21.5854 19.2624L21.38 18.9367C21.8455 18.6951 22.2878 18.4235 22.708 18.1274Z" fill="white"/>
<path d="M26.5611 18.3806L29.5944 20.3046L29.3951 20.6187L28.3987 19.9867L28.1223 20.4224L28.9397 20.9409L27.5278 23.1669L27.2069 22.9634L27.2905 22.8316L25.2638 21.5461L25.1802 21.6779L24.8593 21.4743L26.2712 19.2483L27.0684 19.754L27.3448 19.3182L26.3618 18.6948L26.5611 18.3806ZM25.4545 21.2455L27.4812 22.531L27.7875 22.048L27.3349 21.7609C27.0917 21.6066 27.0528 21.4066 27.2092 21.1601L27.6119 20.525L27.1931 20.2594L27.1738 20.2898C26.8242 20.8259 26.3878 21.1033 25.8678 21.124L25.7608 20.7625L25.4545 21.2455ZM27.6623 19.5196L27.3859 19.9554L27.8048 20.221L28.0811 19.7853L27.6623 19.5196ZM25.7715 20.7456C26.2109 20.74 26.571 20.5232 26.8563 20.0884L26.8756 20.058L26.3993 19.7559L25.7715 20.7456ZM27.9295 20.7264L27.5738 21.2871C27.5095 21.3885 27.5192 21.4704 27.6137 21.5304L27.9718 21.7575L28.426 21.0414L27.9295 20.7264Z" fill="white"/>
<path d="M31.4021 21.2027L31.723 21.3909L31.2069 22.2707L30.886 22.0825L31.4021 21.2027ZM29.707 22.3138C29.537 22.2558 29.367 22.1978 29.199 22.1363L29.2384 21.7607C30.3776 22.2062 31.3318 22.4135 32.0978 22.3805C32.0366 22.224 31.9684 22.0635 31.8934 21.8989L32.2376 21.8179C32.4459 22.2693 32.6024 22.6903 32.7022 23.0735L32.3389 23.1711C32.3093 23.0239 32.2694 22.8707 32.2156 22.7093C31.7851 22.7397 31.3142 22.7046 30.7973 22.6054L32.0187 23.3218L30.9198 25.1953L30.5989 25.0071L30.6758 24.876L29.1542 23.9836L29.0733 24.1216L28.7559 23.9354L29.707 22.3138ZM29.3242 23.6937L30.8458 24.5862L30.9814 24.355L29.4598 23.4626L29.3242 23.6937ZM29.6136 23.2004L31.1352 24.0928L31.2587 23.8823L29.7371 22.9899L29.6136 23.2004ZM29.8889 22.7311L31.4104 23.6236L31.5379 23.4062L30.0163 22.5137L29.8889 22.7311ZM30.745 21.0816L30.8568 21.4208C30.5055 21.5532 30.1241 21.6263 29.7147 21.6366L29.6686 21.2803C30.0567 21.2668 30.4142 21.2029 30.745 21.0816Z" fill="white"/>
<path d="M35.1232 24.3632C35.0791 24.4123 35.0368 24.4578 34.9964 24.4998C34.8793 24.9085 34.8112 25.2844 34.7887 25.6256C35.0777 25.3624 35.34 25.0216 35.579 24.605L35.1232 24.3632ZM34.4549 25.8878C34.4641 25.5803 34.5043 25.2484 34.579 24.8941C34.455 24.9913 34.3347 25.0815 34.2149 25.1538L34.1415 24.7798C34.5456 24.4961 34.9573 24.0443 35.3766 23.4245L35.6752 23.6554C35.5678 23.8067 35.466 23.9474 35.3609 24.0773L36.2584 24.5533L36.0879 24.8749L35.8829 24.7662C35.5562 25.331 35.1897 25.7659 34.7833 26.0711C34.8044 26.4581 34.8876 26.7965 35.0416 27.0865L34.71 27.2592C34.5684 26.9713 34.4868 26.6473 34.4615 26.2852C34.1585 26.4551 33.8339 26.5636 33.4928 26.6091L33.4677 26.2381C33.8229 26.2001 34.1513 26.0845 34.4549 25.8878ZM33.1304 24.3386L33.4243 24.5443C33.3731 24.5896 33.3273 24.6332 33.2761 24.6785L33.997 25.0609L33.8527 25.333C33.6766 25.5112 33.4642 25.6386 33.2154 25.7149C33.3266 25.8553 33.4305 26.001 33.5272 26.1429L33.2083 26.3088C33.1155 26.1509 32.9944 25.978 32.8469 25.7866C32.5331 25.8148 32.1761 25.7794 31.7775 25.6857L31.7682 25.3276C32.067 25.4046 32.3379 25.4487 32.5812 25.4509C32.4682 25.314 32.3446 25.1715 32.2157 25.0216C32.3793 24.9182 32.5301 24.8216 32.6685 24.723L32.2974 24.5262L32.4492 24.2399L32.9475 24.5042C33.0133 24.4485 33.0755 24.391 33.1304 24.3386ZM32.9755 25.4246C33.1966 25.3834 33.3846 25.302 33.5448 25.1878L32.9971 24.8973C32.8952 24.97 32.7915 25.0373 32.6863 25.0992C32.7875 25.2072 32.8851 25.3133 32.9755 25.4246ZM33.7281 22.6227C33.7347 22.7982 33.7268 22.9751 33.7044 23.1625L33.406 23.1446C33.4253 22.9375 33.4282 22.7443 33.4163 22.5704L33.7281 22.6227ZM34.7442 23.157L34.921 23.3957C34.7716 23.5066 34.6045 23.6082 34.4181 23.695L34.2486 23.4511C34.4404 23.3627 34.6056 23.2646 34.7442 23.157ZM33.0879 23.0528L33.7558 23.4071L34.1007 22.7569L34.4081 22.9199L34.0632 23.5701L34.6781 23.8962L34.5225 24.1895L33.9077 23.8634L33.8983 23.8811C34.0444 24.0582 34.1865 24.2513 34.3265 24.4568L34.0092 24.6281C33.9193 24.422 33.841 24.2537 33.769 24.1249L33.5591 24.5207L33.2516 24.3576L33.5684 23.7604C33.3168 23.953 33.0044 24.0725 32.6311 24.119L32.6093 23.7589C32.9317 23.7487 33.1854 23.6886 33.3776 23.5823L32.9324 23.3461L33.0879 23.0528Z" fill="white"/>
<path d="M39.7374 25.9828L39.3407 26.8305L38.9929 26.6678L39.237 26.1461L36.817 25.0134L36.5728 25.5351L36.225 25.3723L36.6218 24.5246L38.0057 25.1723C38.0093 25.0326 38.0094 24.9002 37.9972 24.7752L38.4226 24.8949C38.4191 25.0345 38.4105 25.1851 38.3897 25.352L39.7374 25.9828ZM36.8871 25.4393L38.8579 26.3617L38.7087 26.6805C38.4058 26.7331 38.0776 26.7738 37.7221 26.7973L37.639 26.9748L39.0375 27.6293L38.8815 27.9626L37.483 27.3081L37.1643 27.9892C37.0574 28.2174 36.8836 28.2774 36.6445 28.1655L36.1989 27.9569L36.2614 27.6064C36.3865 27.6694 36.5225 27.7374 36.671 27.8069C36.758 27.8476 36.8269 27.8136 36.8761 27.7086L37.1389 27.147L35.6535 26.4518L35.8095 26.1185L37.2949 26.8137L37.4441 26.4949C37.7604 26.4796 38.0122 26.4605 38.1979 26.4414L36.7379 25.7581L36.8871 25.4393Z" fill="white"/>
<path d="M40.1634 26.4526L41.6604 27.0506C41.6351 26.8337 41.583 26.619 41.5056 26.4029L41.9104 26.4139C41.9729 26.6456 42.0147 26.9078 42.0319 27.1989L43.4397 27.7612L43.3003 28.1104L42.7319 27.8834C42.3281 28.3768 41.8759 28.7432 41.3739 28.9864C41.6342 29.4564 42.0117 29.9131 42.5007 30.3496L42.1851 30.5681C41.6761 30.1063 41.2896 29.6289 41.0294 29.1373C40.4612 29.3412 39.8351 29.4098 39.151 29.3433L39.0862 28.9556C39.7502 29.0399 40.3422 28.9921 40.871 28.8113C40.6256 28.2395 40.5324 27.6424 40.5923 27.0288L40.024 26.8018L40.1634 26.4526ZM40.9303 27.1638C40.9038 27.683 40.9962 28.1851 41.2126 28.6678C41.6455 28.4574 42.0324 28.1467 42.3679 27.738L40.9303 27.1638Z" fill="white"/>
<path d="M45.0339 27.5865L45.3188 27.8581C45.0864 28.1265 44.8211 28.3672 44.5241 28.5762L43.6935 31.078L43.3367 30.9595L44.0273 28.8792C43.8187 28.9869 43.6 29.0871 43.3725 29.1759L43.3833 28.7623C44.0433 28.4883 44.5943 28.098 45.0339 27.5865ZM45.6827 31.6625L44.9728 31.4268C44.6691 31.326 44.5676 31.1237 44.6685 30.82L45.0213 29.7571C44.8607 29.7838 44.6963 29.8093 44.5294 29.8298L44.4796 29.4339C44.7148 29.4109 44.9437 29.3815 45.1612 29.3357L45.6515 27.8589L46.0121 27.9787L45.5962 29.2314C46.0502 29.1082 46.4737 28.9369 46.8593 28.7151L47.0153 29.083C46.5311 29.3353 46.0102 29.5332 45.4513 29.668L45.0455 30.8904C45.0102 30.9967 45.0495 31.0687 45.171 31.1091L45.7366 31.2969C45.8239 31.3258 45.8985 31.3169 45.9592 31.2738C46.0161 31.2295 46.1095 31.0371 46.233 30.6904L46.5305 30.9114C46.359 31.3391 46.2214 31.5885 46.1229 31.6569C46.0205 31.7241 45.8725 31.7255 45.6827 31.6625Z" fill="white"/>
<path d="M48.497 30.3688L47.7783 30.1762L47.3838 31.6483C47.359 31.741 47.3957 31.8047 47.5001 31.8327L48.1723 32.0128C48.2882 32.0439 48.3699 32.0327 48.4125 31.9819C48.46 31.9284 48.5184 31.8033 48.5866 31.6104L48.8994 31.8184C48.7784 32.1463 48.6772 32.3386 48.589 32.3895C48.5106 32.4348 48.3749 32.4315 48.1894 32.3818L47.2505 32.1302C47.0071 32.065 46.9184 31.917 46.9805 31.6852L47.4724 29.8499L47.2372 29.9857L47.1006 29.6302C47.5577 29.3924 48.0005 29.0845 48.4279 28.7104L48.6983 28.7829C48.9431 29.2295 49.1682 29.6874 49.3661 30.1545L49.0592 30.3414C48.845 29.8119 48.6618 29.3984 48.5008 29.1027C48.2202 29.3463 47.9195 29.5722 47.591 29.7782L48.9433 30.1406L48.6575 31.2069C48.5967 31.4184 48.4507 31.4994 48.2148 31.4527C48.0641 31.4123 47.9222 31.3702 47.789 31.3262L47.7923 30.9585C47.9311 31.0123 48.0527 31.0531 48.1609 31.0821C48.2497 31.106 48.3085 31.072 48.3313 30.987L48.497 30.3688ZM49.7522 29.409L50.1115 29.5053L49.4726 31.8892L49.1133 31.7929L49.7522 29.409ZM49.5653 32.7796L48.9819 32.6232L48.9911 32.2488C49.1763 32.315 49.3558 32.3714 49.5258 32.417C49.6186 32.4418 49.6805 32.3963 49.7105 32.2842L50.5202 29.2629L50.8873 29.3612L50.0527 32.4753C49.9802 32.7458 49.8165 32.8469 49.5653 32.7796Z" fill="white"/>
<path d="M51.8259 30.1111L51.2151 29.9835L51.2805 29.6703L52.5726 29.9401C52.5552 29.867 52.537 29.7978 52.5171 29.7365L52.9335 29.758C52.9493 29.839 52.9673 29.9286 52.9799 30.0252L54.3346 30.3081L54.2692 30.6214L53.6466 30.4913L53.484 30.7026L54.4042 30.8947L54.3371 31.2158L50.9149 30.5011L50.982 30.18L51.8708 30.3656L51.8259 30.1111ZM52.2585 30.4466L53.0964 30.6216L53.259 30.4104L52.2136 30.192L52.2585 30.4466ZM51.2878 30.7506L53.8955 31.2952L53.6404 32.5168L51.0327 31.9722L51.2878 30.7506ZM53.3351 32.1589L53.376 31.9631L51.4966 31.5706L51.4557 31.7663L53.3351 32.1589ZM51.5522 31.3043L53.4316 31.6968L53.4717 31.505L51.5923 31.1125L51.5522 31.3043ZM50.852 32.0938L51.1967 32.2435C51.042 32.534 50.8611 32.7741 50.6531 32.9676L50.3738 32.7009C50.5746 32.5222 50.7308 32.3219 50.852 32.0938ZM52.659 33.4397L51.7036 33.2402C51.4021 33.1772 51.282 33.0091 51.3376 32.7428L51.4422 32.2416L51.8181 32.3201L51.7298 32.743C51.7094 32.8409 51.7575 32.9041 51.8788 32.9294L52.658 33.0922C52.7285 33.1069 52.7827 33.1018 52.8158 33.0802C52.8623 33.0531 52.911 32.957 52.9626 32.788L53.2913 32.9752C53.2028 33.2427 53.1128 33.3996 53.0152 33.4364C52.931 33.4679 52.8117 33.4716 52.659 33.4397ZM52.4272 32.2798C52.5511 32.4691 52.64 32.6307 52.6969 32.7693L52.3426 32.92C52.2795 32.772 52.1884 32.6018 52.0684 32.4133L52.4272 32.2798ZM53.6317 32.6172C53.7939 32.9167 53.9117 33.1742 53.986 33.3859L53.6317 33.5366C53.5545 33.2998 53.4422 33.0353 53.291 32.7422L53.6317 32.6172Z" fill="white"/>
<path d="M55.5345 30.3602C55.7585 30.5887 55.9384 30.8145 56.0833 31.031L55.7863 31.2526C55.6645 31.0437 55.4813 30.8133 55.24 30.5659L55.5345 30.3602ZM54.8558 31.4095L55.7415 31.5452L55.4853 33.2177C55.6237 33.1336 55.7723 33.035 55.9352 32.9224L55.9775 33.3335C55.6841 33.5314 55.3786 33.7031 55.0615 33.8447L54.9713 33.4829C55.043 33.4372 55.0895 33.3715 55.1022 33.2885L55.3226 31.8493L54.8007 31.7693L54.8558 31.4095ZM56.1953 32.0962L58.1129 32.3899L58.0603 32.7339C57.8917 33.0682 57.6559 33.3397 57.3522 33.5521C57.5798 33.757 57.8652 33.9544 58.2017 34.1355L57.9504 34.4288C57.5792 34.2101 57.2789 33.9779 57.0403 33.7391C56.698 33.9133 56.2872 34.0324 55.8159 34.0978L55.6548 33.7494C56.0927 33.6911 56.4682 33.5907 56.7819 33.4446C56.553 33.1424 56.4114 32.8253 56.365 32.4945L56.1396 32.46L56.1953 32.0962ZM56.7169 32.5484C56.7709 32.8035 56.8918 33.0446 57.0829 33.2762C57.3261 33.1151 57.5254 32.9231 57.6777 32.6955L56.7169 32.5484ZM56.7058 30.6124L58.1055 30.8268L57.9783 31.6571C57.965 31.7441 58.0052 31.7988 58.104 31.8139L58.452 31.8672L58.3993 32.2112L57.9525 32.1428C57.6718 32.0998 57.554 31.9441 57.5939 31.6832L57.6799 31.1217L57.0236 31.0212L57.0054 31.1398C56.9424 31.551 56.6838 31.8392 56.2342 32.001L56.0293 31.6742C56.3844 31.5748 56.5865 31.3913 56.6277 31.1224L56.7058 30.6124Z" fill="white"/>
<path d="M59.9332 32.0928L60.9754 32.2028L61.0984 31.0373L61.4883 31.0784L61.3653 32.2439L62.3518 32.3481L62.3123 32.722L61.3258 32.6179L61.0995 34.762L60.7096 34.7208L60.936 32.5767L59.8937 32.4667L59.9332 32.0928ZM59.3285 30.8866C59.5665 31.1089 59.7647 31.3269 59.9227 31.5447L59.6364 31.7799C59.497 31.5761 59.2992 31.3542 59.0386 31.1175L59.3285 30.8866ZM58.6816 31.9848L59.6005 32.0818L59.4217 33.7764C59.5599 33.6864 59.7037 33.5809 59.8568 33.4643L59.9155 33.8607C59.6358 34.0725 59.3386 34.2583 59.0285 34.4146L58.921 34.0614C58.9945 34.0129 59.0374 33.949 59.0458 33.8695L59.2003 32.4056L58.6434 32.3468L58.6816 31.9848Z" fill="white"/>
<path d="M63.422 32.0149L62.978 32.0132L62.9794 31.6452L64.2393 31.6499L64.238 32.0179L63.806 32.0163L63.7997 33.7043C63.9559 33.6529 64.1041 33.5974 64.2483 33.542L64.2469 33.922C63.8943 34.0647 63.4898 34.1991 63.0334 34.3214L62.9228 33.945C63.0909 33.9057 63.2551 33.8623 63.4152 33.8189L63.422 32.0149ZM64.3682 31.4304L66.6082 31.4388L66.6068 31.8068L65.6748 31.8033C65.6543 31.9232 65.6299 32.0351 65.6055 32.143L66.4455 32.1462L66.4383 34.0822L66.0703 34.0808L66.0762 32.4968L64.8802 32.4923L64.8743 34.0763L64.5103 34.075L64.5175 32.139L65.2295 32.1416C65.2619 32.0298 65.2864 31.9178 65.3028 31.8019L64.3668 31.7984L64.3682 31.4304ZM65.8424 34.0559C66.1615 34.2891 66.4246 34.5181 66.6398 34.7429L66.3668 35.0139C66.1836 34.7932 65.9245 34.5562 65.5895 34.299L65.8424 34.0559ZM65.2755 32.6938L65.6554 32.6952L65.6528 33.3952C65.6312 33.8271 65.5099 34.1787 65.2929 34.4419C65.08 34.6811 64.7353 34.8638 64.2548 34.998L64.048 34.6732C64.5125 34.547 64.8331 34.3882 65.0018 34.1968C65.1626 33.9894 65.2556 33.7217 65.2728 33.3938L65.2755 32.6938Z" fill="white"/>
<path d="M69.628 31.0105L70.1349 34.4979L69.7549 34.5531L69.721 34.3196L67.726 34.6096L67.7611 34.851L67.3771 34.9069L66.869 31.4116L69.628 31.0105ZM67.673 34.2454L69.668 33.9554L69.5725 33.2983L67.5775 33.5883L67.673 34.2454ZM67.528 33.2479L69.523 32.9579L69.4344 32.3483L67.4394 32.6383L67.528 33.2479ZM67.3888 32.29L69.3838 31.9999L69.3009 31.4299L67.3059 31.72L67.3888 32.29Z" fill="white"/>
<path d="M71.7892 31.9092L71.8904 32.2713C71.7893 32.3702 71.6872 32.4652 71.5811 32.5613L71.887 33.6553C71.9592 33.9134 71.8687 34.08 71.6145 34.1511L71.3024 34.2383L71.1224 33.9065C71.2181 33.8922 71.3089 33.8752 71.3936 33.8515C71.4861 33.8256 71.5183 33.7626 71.4914 33.6663L71.2576 32.8304C71.1302 32.9242 71.0027 33.0179 70.8703 33.109L70.6837 32.7832C70.8491 32.6913 71.0073 32.5888 71.1585 32.476L70.9291 31.6554L70.4591 31.7869L70.3611 31.4363L70.8311 31.3049L70.6436 30.6346L71.0134 30.5312L71.2009 31.2015L71.5899 31.0927L71.688 31.4432L71.2989 31.552L71.4831 32.2108C71.5891 32.1147 71.693 32.0108 71.7892 31.9092ZM71.7918 30.9532L72.5045 30.7539L72.3397 30.1645L72.7056 30.0622L72.8705 30.6515L73.6448 30.435L73.7439 30.7894L72.9696 31.0059L73.0859 31.422C73.1107 31.5106 73.1277 31.6013 73.1448 31.6921L74.1002 31.425L74.1993 31.7794L73.3595 32.0142C73.708 32.4733 74.1336 32.807 74.6324 33.0164L74.4666 33.3743C73.9631 33.133 73.5332 32.7839 73.1791 32.3346C73.1453 32.8674 72.9567 33.3812 72.6133 33.8759L72.2614 33.7168C72.628 33.2156 72.8117 32.699 72.8125 32.1672L72.0613 32.3772L71.9622 32.0228L72.7788 31.7944C72.7607 31.6998 72.7436 31.6091 72.7199 31.5243L72.6036 31.1083L71.8909 31.3076L71.7918 30.9532Z" fill="white"/>
<path d="M76.0359 28.8765L76.3817 28.7392L76.519 29.0849L77.2513 28.7941L77.3798 29.1175L76.6474 29.4083L76.7877 29.7615L77.6613 29.4146L77.7942 29.7492L75.7421 30.5641L75.6092 30.2295L76.4419 29.8988L76.3017 29.5456L75.6028 29.8232L75.4743 29.4998L76.1732 29.2222L76.0359 28.8765ZM75.8391 30.9818L77.1625 30.4562L77.0607 30.1997L77.4138 30.0594L77.5157 30.3159L77.9544 30.1417L78.0858 30.4726L77.6471 30.6468L78.0162 31.5762C78.1136 31.8216 78.0412 31.9967 77.7958 32.0941L77.3051 32.289L77.0912 31.978C77.2517 31.9271 77.3997 31.877 77.541 31.8209C77.6339 31.784 77.663 31.7165 77.6276 31.6272L77.2939 30.7871L75.9705 31.3127L75.8391 30.9818ZM75.6924 32.9208L75.3653 33.0508L75.1566 32.742C75.2591 32.7185 75.355 32.689 75.4442 32.6536C75.5335 32.6181 75.5626 32.5506 75.5242 32.454L75.2157 31.677C75.1033 31.7733 74.9909 31.8695 74.8733 31.9636L74.6423 31.6421C74.7911 31.54 74.9333 31.4319 75.0724 31.3164L74.7639 30.5394L74.3401 30.7077L74.2057 30.3694L74.6295 30.2011L74.3771 29.5654L74.7228 29.4281L74.9753 30.0638L75.3322 29.9221L75.4665 30.2604L75.1096 30.4021L75.3665 31.049C75.467 30.9445 75.5624 30.8377 75.6577 30.731L75.8009 31.0916C75.7056 31.1984 75.6051 31.3028 75.5068 31.4021L75.9054 32.4059C76.0028 32.6512 75.9303 32.8263 75.6924 32.9208ZM76.4713 31.2515C76.7331 31.4014 76.9437 31.5416 77.1031 31.672L76.901 31.976C76.7298 31.8375 76.5125 31.6913 76.2544 31.5399L76.4713 31.2515Z" fill="white"/>
<path d="M80.1958 30.149C80.0587 30.6012 79.7105 31.069 79.1547 31.5506L78.8243 31.353C79.4034 30.8465 79.748 30.3983 79.8527 30.0068L79.8727 29.8942L78.4828 30.5848L78.3226 30.2624L79.888 29.4846C79.8672 29.2269 79.7981 28.962 79.6807 28.6898L79.4636 28.2528L79.7931 28.089L80.0103 28.526C80.1312 28.7965 80.2111 29.0561 80.2462 29.3066L81.371 28.7477L81.5312 29.0701L80.2667 29.6984C80.263 29.7359 80.2594 29.7735 80.2593 29.8093C80.8497 29.7571 81.4186 29.7603 81.9623 29.8118L81.9219 30.1981C81.3282 30.1179 80.754 30.1039 80.1958 30.149ZM78.4967 29.3272C78.8026 29.3047 79.0978 29.3144 79.3821 29.3563L79.34 29.7122C79.0343 29.6541 78.7374 29.6409 78.4547 29.6652L78.4967 29.3272ZM78.5985 28.6513C78.9027 28.6252 79.1979 28.6349 79.4786 28.6785L79.4366 29.0344C79.1326 28.98 78.8375 28.9614 78.5548 28.9857L78.5985 28.6513ZM80.529 27.1338L80.8938 27.8682L80.5643 28.0319L80.3542 27.6092L78.0187 28.7697L78.2287 29.1924L77.8991 29.3561L77.5342 28.6218L78.8776 27.9543C78.7883 27.8736 78.7027 27.8001 78.6169 27.7354L78.9359 27.5055C79.0288 27.5844 79.1233 27.6759 79.2215 27.7835L80.529 27.1338Z" fill="white"/>
<path d="M81.0687 27.0516L81.5683 26.7569C81.4203 26.6399 81.275 26.5352 81.1309 26.4484L81.4305 26.1927C81.5724 26.2994 81.7245 26.4233 81.8853 26.57L82.2918 26.3302L82.4788 26.6471L81.8069 27.0434L82.0447 27.4465L82.6545 27.0868C83.1829 27.9826 83.4928 28.5475 83.5892 28.7739C83.6767 29.0009 83.5881 29.1972 83.3125 29.3597C83.2849 29.376 83.2326 29.3975 83.1631 29.4293L82.918 29.1791C82.9861 29.1528 83.0453 29.1272 83.0935 29.0988C83.2141 29.0276 83.2519 28.9264 83.207 28.795C83.1551 28.6677 82.9277 28.2585 82.5302 27.5688L82.2201 27.7517C82.6485 28.5253 82.8523 29.1621 82.8314 29.6621L82.4608 29.5927C82.4718 29.1311 82.2575 28.5238 81.822 27.7776L81.4969 27.2263L81.2557 27.3686L81.0687 27.0516ZM82.9058 26.2374C82.9384 26.5525 82.9369 26.8413 82.9034 27.1072L82.5394 26.9783C82.5923 26.6034 82.5553 26.1469 82.4337 25.6102L82.781 25.4983C82.8075 25.622 82.83 25.7387 82.8524 25.8555L84.0411 25.1544L84.2219 25.4611L82.9058 26.2374ZM84.3269 25.9146C84.7151 26.5727 84.9336 26.9825 84.9873 27.1366C85.0376 27.2927 84.9528 27.4402 84.7254 27.5744L84.7081 27.5845L84.4629 27.3577C84.5214 27.3231 84.5752 27.2961 84.6199 27.2697C84.6578 27.2473 84.6616 27.1986 84.6299 27.1291C84.6023 27.0665 84.4852 26.8522 84.2739 26.4939L84.0669 26.7414L84.7294 27.8646L84.4262 28.0434L83.8267 27.027L83.6163 27.2765L84.1467 28.1758C84.2361 28.3274 84.3345 28.3761 84.4378 28.3151L85.089 27.9311C85.1614 27.8884 85.2063 27.8387 85.2205 27.7839C85.2374 27.7181 85.1939 27.5813 85.0877 27.3699L85.4231 27.2928C85.5669 27.6074 85.6188 27.8136 85.5796 27.9204C85.5412 28.0127 85.4541 28.1012 85.3094 28.1866L84.5135 28.656C84.2792 28.7942 84.0706 28.7082 83.8918 28.405L83.3878 27.5506L83.194 27.781L83.0192 27.4847L83.2131 27.2543L82.9407 26.7926L83.2301 26.6219L83.4415 26.9802L83.6499 26.7273L83.3308 26.1864L83.634 26.0075L83.8901 26.4416L84.3269 25.9146Z" fill="white"/>
<path d="M86.4181 24.7892L86.5902 25.0446L86.1658 25.3883L86.3222 25.6206L86.0302 25.8172L85.8894 25.6082C85.6894 25.7622 85.4849 25.924 85.2682 26.0892L85.0485 25.8417C85.284 25.6687 85.5062 25.5046 85.7129 25.3461L85.5699 25.1337L84.9893 25.5247L84.7509 25.3139C84.7691 25.1763 84.7706 25.021 84.7587 24.8457L84.4468 25.0558L84.2592 24.7771L84.7037 24.4777C84.6856 24.3934 84.6641 24.3114 84.646 24.2272L84.9914 24.067C85.005 24.1301 85.0219 24.1911 85.0355 24.2542L85.8019 23.7381L85.9896 24.0168L85.0938 24.6201C85.1101 24.7731 85.1152 24.9239 85.1136 25.0649L85.3957 24.8749L85.2638 24.6792L85.5558 24.4826L85.6876 24.6783L86.172 24.3521L86.3463 24.6109L85.8619 24.9371L85.9915 25.1295C86.1418 25.009 86.2844 24.8985 86.4181 24.7892ZM86.8163 24.2992C86.9575 24.5947 87.0232 24.8928 87.0224 25.1924L86.6493 25.1109C86.6501 24.8114 86.5611 24.5145 86.3778 24.228L86.0091 23.6806C86.4136 23.3503 86.6896 23.0583 86.8393 22.808L87.2014 22.9017C87.0307 23.171 86.7835 23.4484 86.4586 23.7251L86.6508 24.0104L87.6096 23.3647L87.7951 23.64L87.4766 23.8545L87.9368 24.538L87.6349 24.7413L87.1747 24.0579L86.8163 24.2992ZM87.9661 24.6244L88.8285 25.9051L88.51 26.1196L88.4318 26.0034L86.8194 27.0893L86.8976 27.2054L86.5791 27.4199L85.7166 26.1393L87.9661 24.6244ZM86.6384 26.8206L88.2509 25.7347L88.119 25.539L86.5066 26.6248L86.6384 26.8206ZM86.339 26.376L87.9515 25.2901L87.8241 25.101L86.2117 26.1869L86.339 26.376Z" fill="white"/>
<path d="M88.5971 21.7848L90.1593 20.6145L90.3823 20.9122L88.8201 22.0826L88.5971 21.7848ZM89.1166 22.6451L90.8965 21.3117L91.1196 21.6094L90.6202 21.9835L91.637 23.3409C91.7905 23.5457 91.752 23.7345 91.5247 23.9048L91.0605 24.2525L90.7703 24.0052C90.9271 23.9077 91.076 23.8062 91.2104 23.7054C91.3033 23.6359 91.3249 23.5647 91.2745 23.4975L90.3128 22.2137L89.3396 22.9428L89.1166 22.6451ZM87.9353 22.0357L88.3098 21.9551C88.4007 22.4367 88.3476 22.9663 88.1489 23.555L87.8282 23.3204C87.9733 22.8669 88.0087 22.4405 87.9353 22.0357ZM88.635 22.6561L89.0062 22.5779C89.0493 22.8155 89.0628 23.0603 89.0466 23.3123L90.2314 24.8937L89.9337 25.1167L88.972 23.833C88.9311 24.0186 88.8814 24.2058 88.8165 24.3994L88.5014 24.1656C88.6745 23.6361 88.7211 23.1313 88.635 22.6561Z" fill="white"/>
<path d="M91.7073 20.9289L92.0507 20.8176C92.2509 21.2692 92.3491 21.6597 92.3447 21.9946L91.9678 21.9833C91.9711 21.6596 91.886 21.3102 91.7073 20.9289ZM91.4456 19.3061L91.7423 19.0624L92.2147 19.6372L93.1913 18.8348C93.3629 19.0562 93.5248 19.2597 93.671 19.4502L93.7937 19.1837C94.1644 19.3451 94.5549 19.5368 94.9646 19.7645L94.8023 20.1152C94.4422 19.9037 94.0932 19.7246 93.7664 19.5789C93.9419 19.8178 94.0972 20.0319 94.227 20.2151C94.4703 20.5743 94.6108 20.8524 94.6514 21.0468C94.687 21.235 94.6285 21.3969 94.481 21.5388L94.1194 21.8359L93.8055 21.6176C93.9156 21.5374 94.0171 21.4592 94.1098 21.3831C94.2612 21.2586 94.2769 21.0698 94.1618 20.8226C94.0335 20.5656 93.6861 20.0797 93.1251 19.3655L92.4359 19.9317C92.8087 20.4485 93.0523 20.9214 93.1666 21.3504C93.2827 21.8193 93.2302 22.2973 93.0147 22.7849L92.6433 22.6604C92.8356 22.1762 92.8736 21.7309 92.7596 21.3276C92.6438 20.9723 92.437 20.5883 92.1392 20.1755L91.4036 20.7798L91.17 20.4955L91.9179 19.881L91.4456 19.3061Z" fill="white"/>
<path d="M94.9939 16.2775L95.281 16.0225L95.6821 16.4741L96.4268 15.8127L96.6712 16.0879L95.9265 16.7493L96.3647 17.2427L97.1902 16.5097L97.4346 16.7848L96.4625 17.6481C96.648 18.2002 96.7614 18.6291 96.7998 18.9374C97.0969 18.6093 97.3751 18.266 97.6397 17.9133C97.4185 17.8209 97.2049 17.7431 97.002 17.6772L97.1975 17.3431C97.6395 17.4855 98.0766 17.6644 98.511 17.8885L98.3481 18.2472C98.2189 18.18 98.0923 18.1158 97.9738 18.0606C97.6052 18.5431 97.1817 19.0422 96.7061 19.5609L96.4199 19.3711C96.4359 19.3408 96.4488 19.3133 96.4558 19.291C96.4838 19.0575 96.3834 18.601 96.1545 17.9216L95.4935 18.5086L95.2491 18.2335L96.0776 17.4977L95.6393 17.0042L94.9544 17.6125L94.7101 17.3373L95.395 16.7291L94.9939 16.2775ZM93.7171 17.4541C94.0414 17.4337 94.333 17.4368 94.5977 17.4638L94.5776 17.8508C94.3392 17.8112 94.0419 17.8077 93.6861 17.8348L93.7171 17.4541ZM94.2639 18.2204C94.5732 18.2132 94.8555 18.23 95.1139 18.268L95.0882 18.6546C94.8587 18.607 94.5737 18.5873 94.2358 18.5984L94.2639 18.2204ZM95.303 18.8062L95.6532 18.6824C95.8566 19.1705 96.0265 19.6509 96.1658 20.121L95.7701 20.2477C95.6434 19.7557 95.4878 19.2733 95.303 18.8062Z" fill="white"/>
<path d="M96.6834 14.7012L98.5713 15.4826L99.2603 17.4062L98.9293 17.5227L98.2933 15.7475L96.551 15.0262L96.6834 14.7012Z" fill="white"/>
<path d="M100.803 11.6525L102.786 13.6056L102.531 13.865L102.383 13.719L101.94 14.1694L102.17 14.3967L101.915 14.6561L99.8484 12.6216L100.115 12.3508C100.012 12.148 99.8941 11.9537 99.7512 11.7682L100.055 11.5339C100.184 11.7167 100.287 11.9026 100.37 12.0914L100.803 11.6525ZM101.689 13.9225L102.132 13.4721L101.57 12.9193L101.127 13.3697L101.689 13.9225ZM100.885 13.1311L101.328 12.6808L100.804 12.1644L100.36 12.6148L100.885 13.1311ZM101.992 11.8129C102.411 11.8548 102.756 11.9087 103.031 11.9829L102.972 12.3454C102.677 12.2685 102.323 12.2119 101.913 12.167L101.992 11.8129ZM102.253 10.1844C103.237 11.1526 103.83 11.7645 104.03 12.0175C104.207 12.2481 104.175 12.4859 103.936 12.7282C103.88 12.7852 103.774 12.8822 103.625 13.0163L103.312 12.8378C103.441 12.7179 103.554 12.6152 103.644 12.524C103.756 12.41 103.76 12.2855 103.658 12.1506C103.532 11.9931 103.061 11.5131 102.255 10.7077L101.55 11.4232C101.643 11.6713 101.71 11.9169 101.746 12.1655L101.372 12.1175C101.283 11.66 101.079 11.2006 100.753 10.7449L101.051 10.5106C101.183 10.6963 101.291 10.8821 101.386 11.0652L102.253 10.1844Z" fill="white"/>
<path d="M102.222 9.30978C102.563 9.25503 102.873 9.23249 103.151 9.23944L103.161 9.61548C102.906 9.5964 102.595 9.61329 102.227 9.66906L102.222 9.30978ZM106.413 10.0669C106.263 10.228 106.097 10.401 105.919 10.5857C105.739 10.7733 105.577 10.9122 105.434 11.008C105.289 11.0924 105.124 11.1295 104.942 11.1248C104.855 11.1195 104.798 11.1328 104.766 11.168C104.709 11.2295 104.742 11.4575 104.867 11.8521L104.486 11.88C104.385 11.5129 104.358 11.2421 104.408 11.0705L103.58 10.2995L103.215 10.6919L102.957 10.4521L103.564 9.79905L104.671 10.8289C104.697 10.8252 104.725 10.8241 104.756 10.8258C104.898 10.832 105.022 10.8162 105.128 10.7784C105.251 10.7287 105.397 10.6244 105.564 10.457C105.722 10.2928 105.907 10.0993 106.12 9.87089C106.253 9.72739 106.387 9.57823 106.52 9.42907C106.653 9.27991 106.754 9.16024 106.821 9.07572L107.034 9.39918L106.413 10.0669ZM103.607 8.40217L103.081 8.96741L102.85 8.75217L104.346 7.14432L104.542 7.32686C104.53 7.63295 104.485 7.92896 104.41 8.22033C104.421 8.21993 104.43 8.21679 104.441 8.21638L104.989 7.62772L106.289 8.83739C106.462 8.99813 106.46 9.17651 106.283 9.36688L106.073 9.59239L105.787 9.43573L105.992 9.23869C106.052 9.17426 106.053 9.10914 105.988 9.0492L105.839 8.91026L105.447 9.33199L105.927 9.7788L105.69 10.0336L105.21 9.58678L104.825 9.99973L105.312 10.452L105.066 10.7156L103.485 9.24435L104.112 8.57075C103.957 8.60746 103.789 8.65316 103.613 8.7133L103.607 8.40217ZM104.12 8.2676C104.173 8.08738 104.209 7.90777 104.231 7.7315L103.621 8.38753C103.795 8.34162 103.96 8.29885 104.12 8.2676ZM104.395 9.59923L104.6 9.78994L104.984 9.377L104.779 9.18628L104.395 9.59923ZM105.016 8.93149L105.221 9.1222L105.613 8.70047L105.408 8.50976L105.016 8.93149ZM105.18 8.29725L104.975 8.10653L104.583 8.52826L104.788 8.71898L105.18 8.29725ZM104.551 8.97377L104.346 8.78306L103.961 9.196L104.166 9.38672L104.551 8.97377Z" fill="white"/>
<path d="M107.165 4.37607L109.505 6.43985L109.261 6.71584L109.09 6.56503L108.627 7.09001L108.801 7.24347L108.558 7.51946L106.215 5.45304L107.165 4.37607ZM108.36 6.85453L108.823 6.32955L107.188 4.88755L106.725 5.41253L108.36 6.85453ZM105.622 6.84486C105.711 7.04615 105.78 7.24585 105.832 7.44098L105.454 7.54974C105.341 7.10903 105.16 6.7038 104.907 6.33705L105.216 6.10798C105.303 6.23852 105.377 6.36713 105.447 6.49309L106.169 5.67411L106.442 5.91489L106.082 6.32287C106.263 6.49292 106.429 6.65538 106.572 6.81361L106.985 6.34563L107.258 6.5864L106.811 7.09338C106.866 7.16359 106.919 7.2368 106.968 7.30172C107.316 7.28277 107.687 7.27934 108.084 7.28843L108.195 7.69526C107.767 7.64842 107.422 7.62185 107.161 7.61555C107.365 8.01936 107.444 8.46784 107.39 8.96433L106.998 8.94924C107.042 8.43352 106.94 7.98081 106.692 7.58548C106.645 7.52321 106.598 7.45529 106.549 7.39037L106.028 7.98135L105.755 7.74058L106.313 7.1076C106.17 6.94937 106.004 6.78691 105.823 6.61686L105.622 6.84486Z" fill="white"/>
<path d="M107.523 3.31115L109.488 3.87417L110.39 5.70762L110.074 5.86074L109.241 4.16876L107.429 3.64901L107.523 3.31115ZM107.962 2.78641L109.926 3.34944L110.828 5.18288L110.513 5.336L109.68 3.64403L107.857 3.13655L107.962 2.78641Z" fill="white"/>
</svg>
