<svg width="107" height="25" viewBox="0 0 107 25" fill="none" xmlns="http://www.w3.org/2000/svg">
<path d="M5.33222 7.82862L5.59383 8.08395L4.24538 9.41145L4.33737 11.2949L3.98698 11.314L3.88714 9.27318L5.33222 7.82862ZM5.97034 8.07491L6.21702 8.32448L4.8835 9.65774L4.97549 11.5412L4.6251 11.5603L4.52526 9.51947L5.97034 8.07491Z" fill="white"/>
<path d="M7.63136 8.73358C7.70619 8.97338 7.77044 9.23063 7.82037 9.50395L7.54497 9.53611L8.3235 9.81802C8.53652 9.65267 8.74948 9.4405 8.96102 9.18527L9.27675 9.40595C9.10412 9.62421 8.91846 9.80798 8.72593 9.96374L9.44052 10.2225L9.31523 10.5685L8.08914 10.1245L8.04692 10.2411C7.97403 10.4189 7.8953 10.5776 7.81314 10.7223L9.31002 11.2643L9.18473 11.6103L7.86837 11.1337C7.88788 11.6555 8.22863 12.183 8.88926 12.72L8.55608 12.9822C7.88338 12.3728 7.53842 11.7629 7.5123 11.1536C7.3806 11.3059 7.24066 11.4339 7.09384 11.5339C6.71552 11.7798 6.20408 11.8881 5.55951 11.8589L5.47697 11.4759C6.12427 11.4976 6.60121 11.4023 6.91157 11.1913C7.02252 11.1082 7.12628 11.0096 7.22148 10.8994L5.93521 10.4337L6.0605 10.0876L7.44456 10.5888C7.53184 10.4417 7.61433 10.2844 7.68586 10.1104L7.72808 9.9938L6.49822 9.54846L6.62352 9.20245L7.42837 9.49389C7.38325 9.23081 7.32107 8.99133 7.24696 8.77306L7.63136 8.73358Z" fill="white"/>
<path d="M10.4349 9.86567L13.2997 10.8461L13.1793 11.1981L11.972 10.7849L11.656 11.7083L13.1282 12.2121L13.0052 12.5717L11.533 12.0679L11.0913 13.3584C11.0007 13.6233 10.814 13.7116 10.5378 13.6171L9.93602 13.4111L9.97948 13.0371C10.1686 13.1145 10.3515 13.1855 10.5255 13.2451C10.6466 13.2865 10.7266 13.2505 10.7629 13.1445L11.1735 11.9448L9.63694 11.419L9.75998 11.0595L11.2965 11.5853L11.6125 10.6619L10.3144 10.2176L10.4349 9.86567Z" fill="white"/>
<path d="M14.2298 11.2415L17.2297 12.2087L17.1168 12.559L16.5077 12.3626L16.2131 13.2763L17.0164 13.5352L16.9034 13.8855L16.1002 13.6265L15.5687 15.2749L15.207 15.1583L15.7385 13.5099L14.7182 13.181C14.5574 13.5494 14.3832 13.842 14.1867 14.0603C13.939 14.3334 13.6155 14.5024 13.2215 14.5644L13.1255 14.1973C13.4878 14.1165 13.7708 13.9556 13.9696 13.7171C14.1057 13.5425 14.2313 13.3224 14.3489 13.0619L13.5114 12.7919L13.6243 12.4416L14.4885 12.7202C14.4983 12.6898 14.5119 12.6606 14.5193 12.6377L14.7869 11.8078L14.1168 11.5918L14.2298 11.2415ZM15.1524 11.9256L14.8848 12.7555C14.875 12.786 14.8626 12.8114 14.854 12.8381L15.8514 13.1597L16.146 12.246L15.1524 11.9256Z" fill="white"/>
<path d="M18.2431 13.8615L18.7714 14.0212L18.8641 13.7149L18.2246 13.5216L18.1367 13.8126C18.0672 14.0423 17.9847 14.2597 17.8992 14.4595L18.5769 14.6645L18.6742 14.3429L18.1458 14.1831L18.2431 13.8615ZM17.7537 14.7749C17.5548 15.1703 17.3215 15.5134 17.0549 15.8006L16.84 15.4472C17.2271 15.0378 17.536 14.4584 17.7691 13.7014L18.1581 12.415L21.0871 13.3007L20.7861 14.2961L20.2539 14.1352L20.1613 14.4415L20.7356 14.6152L20.6383 14.9368L20.064 14.7631L19.9668 15.0848L20.6713 15.2978L20.5717 15.6271L20.1888 15.5113L20.3449 15.7967C20.1822 15.9063 20.0161 15.9856 19.8505 16.0358C20.0122 16.2059 20.21 16.3534 20.4476 16.4796L20.1711 16.7721C19.5363 16.3838 19.1632 15.8489 19.0478 15.1663L18.5731 15.0227L18.3531 15.7502C18.6002 15.7622 18.8228 15.7585 19.0171 15.7378L18.9853 16.0918C18.6427 16.1052 18.2474 16.0859 17.7992 16.034L17.7958 15.6861C17.9245 15.6749 18.0063 15.6119 18.0433 15.4893L18.217 14.915L17.7537 14.7749ZM19.4154 15.2774C19.4645 15.4469 19.5346 15.6018 19.6247 15.7461C19.7968 15.702 19.9679 15.62 20.139 15.4962L19.4154 15.2774ZM19.9016 14.0287L19.2125 13.8203L19.1198 14.1266L19.809 14.335L19.9016 14.0287ZM18.9253 14.7698L19.6145 14.9782L19.7118 14.6566L19.0226 14.4482L18.9253 14.7698ZM20.6188 13.5226L18.4249 12.8592L18.3231 13.1961L20.5169 13.8596L20.6188 13.5226Z" fill="white"/>
<path d="M23.0306 14.3886L21.7408 14.0254L21.8395 13.675L24.7925 14.5068L24.6939 14.8571L23.4002 14.4928L22.7408 16.8337L24.2771 17.2664L24.1773 17.6206L20.7314 16.65L20.8312 16.2958L22.3712 16.7296L23.0306 14.3886Z" fill="white"/>
<path d="M26.5816 14.7255L26.9494 14.8209L26.16 17.8642L26.6246 17.9847L27.414 14.9414L27.7818 15.0369L26.9924 18.0801L28.123 18.3734L28.0296 18.7335L24.5759 17.8376L24.6693 17.4775L25.7921 17.7688L26.5816 14.7255ZM28.3191 15.9448L28.6202 16.1221C28.3003 16.7499 27.96 17.2815 27.5981 17.7207L27.2991 17.5192C27.6324 17.1263 27.9757 16.5996 28.3191 15.9448ZM25.665 15.2481C25.7279 15.8182 25.7484 16.4557 25.7306 17.1619L25.3716 17.1597C25.3977 16.5177 25.38 15.8849 25.3253 15.2674L25.665 15.2481Z" fill="white"/>
<path d="M29.612 15.5289C29.8172 15.7745 29.9786 16.0139 30.1059 16.2411L29.7923 16.4385C29.6875 16.2206 29.5231 15.9765 29.3021 15.7107L29.612 15.5289ZM28.8524 16.5212L29.7245 16.7266L29.3367 18.3735C29.4812 18.3007 29.6372 18.2142 29.8085 18.1148L29.8181 18.528C29.51 18.702 29.1918 18.849 28.8645 18.9651L28.8032 18.5972C28.8783 18.5574 28.9299 18.4956 28.9491 18.4138L29.2829 16.9966L28.7689 16.8755L28.8524 16.5212ZM30.1332 17.3119L32.0216 17.7565L31.9418 18.0953C31.7473 18.4152 31.4907 18.6671 31.1712 18.8549C31.3819 19.0771 31.6507 19.2965 31.9718 19.5036L31.698 19.7762C31.3454 19.5287 31.0644 19.2735 30.8455 19.0165C30.4904 19.163 30.0715 19.2493 29.5965 19.2772L29.4635 18.9171C29.9046 18.8936 30.2869 18.8233 30.6112 18.7024C30.407 18.3831 30.2909 18.0558 30.2708 17.7223L30.0489 17.6701L30.1332 17.3119ZM30.6173 17.8039C30.6509 18.0625 30.7524 18.3124 30.9246 18.5584C31.1797 18.4172 31.3937 18.2415 31.5634 18.0267L30.6173 17.8039ZM30.7597 15.8732L32.138 16.1977L31.9454 17.0154C31.9253 17.101 31.961 17.1587 32.0583 17.1817L32.401 17.2623L32.3212 17.6011L31.8812 17.4975C31.6048 17.4324 31.4997 17.2679 31.5602 17.0109L31.6904 16.4581L31.0441 16.3059L31.0166 16.4227C30.9212 16.8276 30.6406 17.0944 30.1795 17.22L30.0012 16.878C30.363 16.8071 30.5791 16.6402 30.6414 16.3754L30.7597 15.8732Z" fill="white"/>
<path d="M33.9852 17.663L35.0111 17.8769L35.2504 16.7296L35.6341 16.8096L35.3949 17.9569L36.366 18.1594L36.2892 18.5275L35.3181 18.325L34.878 20.4356L34.4943 20.3556L34.9344 18.245L33.9084 18.0311L33.9852 17.663ZM33.5044 16.4023C33.7189 16.6473 33.8943 16.884 34.0297 17.1166L33.7213 17.3219C33.603 17.1052 33.4285 16.8645 33.1929 16.603L33.5044 16.4023ZM32.7507 17.4301L33.6553 17.6187L33.3075 19.2869C33.454 19.2112 33.6077 19.1206 33.7717 19.02L33.7904 19.4202C33.4908 19.6029 33.1765 19.758 32.8523 19.8825L32.7807 19.5203C32.8587 19.4793 32.9079 19.4201 32.9242 19.3418L33.2246 17.9008L32.6764 17.7865L32.7507 17.4301Z" fill="white"/>
<path d="M38.1298 18.9245L37.3973 18.7942L37.1304 20.2946C37.1136 20.3892 37.1557 20.4495 37.262 20.4684L37.9473 20.5902C38.0654 20.6113 38.1458 20.5931 38.1839 20.5389C38.2266 20.4815 38.2741 20.3518 38.3255 20.1537L38.655 20.3342C38.5626 20.6712 38.4782 20.8716 38.3947 20.9298C38.3205 20.9816 38.1849 20.99 37.9959 20.9564L37.0389 20.7862C36.7908 20.7421 36.6897 20.6022 36.7318 20.3659L37.0645 18.4953L36.8418 18.6507L36.6752 18.3082C37.1103 18.0322 37.525 17.6875 37.9188 17.2781L38.1945 17.3271C38.4766 17.7511 38.7402 18.188 38.9773 18.6364L38.6876 18.849C38.4288 18.3398 38.2108 17.9435 38.0251 17.6626C37.7664 17.9295 37.4861 18.1803 37.1765 18.4137L38.5549 18.6588L38.3615 19.7457C38.3191 19.9616 38.1806 20.0548 37.9415 20.0286C37.7879 20.0012 37.6429 19.9714 37.5065 19.939L37.4782 19.5724C37.6212 19.6141 37.7458 19.6444 37.856 19.664C37.9466 19.6801 38.0023 19.6412 38.0177 19.5546L38.1298 18.9245ZM39.2981 17.8606L39.6643 17.9257L39.2322 20.3556L38.8659 20.2905L39.2981 17.8606ZM39.4009 21.2347L38.8062 21.129L38.7833 20.7552C38.9735 20.8053 39.1572 20.8461 39.3304 20.8769C39.425 20.8937 39.4827 20.843 39.503 20.7288L40.0508 17.6491L40.4249 17.7157L39.8604 20.8899C39.8113 21.1655 39.6569 21.2803 39.4009 21.2347Z" fill="white"/>
<path d="M43.8927 18.2455L44.0268 18.6043C43.6692 18.674 43.2828 18.6909 42.8671 18.6592L42.7744 19.3005L43.9978 19.4772L43.9457 19.8374L43.5657 19.7825L43.2661 21.857L42.8979 21.8039L43.1975 19.7294L42.7224 19.6608L42.6647 20.0606C42.5443 20.7545 42.3098 21.2865 41.9608 21.6605L41.7367 21.3371C42.0104 21.0371 42.1994 20.5956 42.3005 20.008L42.5474 18.2978C43.0355 18.3602 43.483 18.3399 43.8927 18.2455ZM40.5464 18.0492L41.2511 18.151C41.2184 18.0412 41.1773 17.9342 41.1311 17.8346L41.5282 17.8273C41.5603 17.941 41.5946 18.0672 41.6232 18.2047L42.3556 18.3105L42.3053 18.6589L40.4961 18.3976L40.5464 18.0492ZM40.377 18.9422L40.7967 19.0028C40.7652 18.8568 40.7247 18.7176 40.6746 18.5891L41.0209 18.5138C41.0636 18.6655 41.1024 18.8449 41.1292 19.0508L41.5053 19.1051C41.5927 18.948 41.6727 18.7858 41.7459 18.6145L42.0653 18.7818C41.9966 18.9215 41.9223 19.0441 41.8458 19.1543L42.2496 19.2126L42.1999 19.557L41.4675 19.4513L41.416 19.8076L42.0811 19.9036L42.032 20.2441L41.3669 20.148L41.2137 21.209C41.1794 21.4466 41.0316 21.5465 40.7703 21.5088L40.5644 21.479L40.5316 21.1186C40.5887 21.143 40.643 21.159 40.6944 21.1664C40.7894 21.1801 40.8427 21.1474 40.8541 21.0682L40.9947 20.0943L40.29 19.9926L40.3392 19.6521L41.0439 19.7538L41.0953 19.3975L40.3273 19.2866L40.377 18.9422ZM40.5024 20.201L40.8326 20.3215C40.6798 20.7076 40.4989 21.0371 40.2818 21.3089L40.0016 21.0664C40.217 20.8065 40.3843 20.5154 40.5024 20.201ZM41.7456 20.3523C41.8119 20.6205 41.8619 20.8621 41.8916 21.0766L41.5577 21.1496C41.5298 20.895 41.4855 20.6421 41.4248 20.3908L41.7456 20.3523Z" fill="white"/>
<path d="M45.4281 20.871L44.9308 20.8193L44.9523 20.6124C44.7465 20.7358 44.5307 20.838 44.2968 20.9223L44.123 20.5825C44.5219 20.4591 44.8625 20.2773 45.1492 20.0336L44.3217 19.9476L44.3572 19.6055L45.4593 19.72C45.5469 19.6125 45.6269 19.5002 45.6994 19.383L44.6133 19.2701L44.648 18.9359L45.2249 18.9959C45.1577 18.7919 45.08 18.6109 45.0002 18.4497L45.3376 18.3762C45.4237 18.5541 45.497 18.7387 45.5571 18.9339L45.3403 19.0079L45.8694 19.0629C45.9586 18.8631 46.0326 18.6536 46.0924 18.4266L46.4615 18.5132C46.3993 18.7239 46.3309 18.9179 46.2514 19.1026L46.9556 19.1758L46.7905 19.0621C46.9303 18.9158 47.0484 18.7471 47.1495 18.5485L47.4522 18.6926C47.348 18.8828 47.2299 19.0515 47.0988 19.1907L47.6558 19.2486L47.6211 19.5828L46.0933 19.424C46.0248 19.5415 45.9527 19.6547 45.877 19.7635L47.8027 19.9636L47.7671 20.3058L46.9833 20.2243C47.1539 20.4793 47.4383 20.722 47.8322 20.956L47.5537 21.2367C47.3668 21.1007 47.2041 20.9631 47.0658 20.824C47.0207 21.1411 46.974 21.3976 46.9286 21.602C46.8728 21.8295 46.8005 21.9828 46.7154 22.0665C46.6307 22.1462 46.506 22.1855 46.346 22.1769L45.7094 22.1107L45.6468 21.7463C45.8449 21.7749 46.0271 21.8019 46.1982 21.8197C46.3493 21.8354 46.4506 21.7896 46.5091 21.6911C46.5684 21.5847 46.6282 21.3577 46.6814 21.0013L45.7822 20.9078C45.6733 21.182 45.5423 21.3976 45.3936 21.551C45.201 21.7401 44.9274 21.8967 44.5722 22.0247L44.3646 21.7015C44.6806 21.6016 44.9222 21.4819 45.0975 21.3433C45.2301 21.2284 45.339 21.0708 45.4281 20.871ZM45.6107 20.0816C45.4665 20.2315 45.3075 20.3678 45.1423 20.4874L46.9247 20.6726C46.7808 20.5089 46.6692 20.3445 46.5894 20.1834L45.6107 20.0816Z" fill="white"/>
<path d="M48.526 19.0479L50.2434 19.1411L50.2233 19.5125L49.6441 19.4811L49.6026 20.248L50.0219 20.2707L50.0089 20.5104C50.2943 20.0492 50.5011 19.4875 50.6333 18.8217L51.0024 18.8858C50.9596 19.0838 50.9093 19.2733 50.8554 19.4547L52.0296 19.5184L52.0095 19.8898L51.7459 19.8755C51.6793 20.5128 51.5022 21.044 51.2068 21.4687C51.4207 21.8087 51.6784 22.0791 51.976 22.2795L51.743 22.5873C51.4416 22.3827 51.1801 22.1082 50.9662 21.7681C50.6771 22.0769 50.3115 22.3174 49.8775 22.4902L49.6628 22.1661C50.1285 21.999 50.5025 21.7509 50.7763 21.4293C50.6357 21.1412 50.5208 20.8226 50.4276 20.473C50.339 20.6284 50.2427 20.7794 50.139 20.918L49.9425 20.627L49.5831 20.6075L49.5332 21.5261C49.728 21.4806 49.915 21.4306 50.0939 21.3803L50.0749 21.7317C49.5781 21.8811 49.0022 22.0101 48.3472 22.1227L48.2622 21.7696C48.3429 21.758 48.4199 21.7421 48.5006 21.7305L48.5994 19.9092L48.9549 19.9284L48.8607 21.6659C48.9658 21.6475 49.063 21.6288 49.1601 21.61L49.2767 19.4612L48.5058 19.4194L48.526 19.0479ZM51.0064 21.1013C51.2098 20.7478 51.3324 20.3338 51.3744 19.8554L50.7274 19.8203C50.6997 19.8869 50.6761 19.9537 50.6486 20.0163C50.7388 20.4218 50.8553 20.7846 51.0064 21.1013Z" fill="white"/>
<path d="M52.3116 20.0871L53.8956 20.0788L53.8943 19.8388L54.2463 19.8369L54.0336 19.698C54.2082 19.4411 54.3308 19.1684 54.4012 18.8761L54.7696 18.9541C54.7461 19.0422 54.7186 19.1304 54.691 19.2105L55.839 19.2045L55.8408 19.5405L55.1608 19.5441C55.2414 19.6676 55.306 19.7833 55.3586 19.887L55.0273 20.0168C54.9544 19.8572 54.8696 19.6976 54.7728 19.5461L54.5568 19.5473C54.4935 19.6756 54.4261 19.792 54.3547 19.9043L54.2784 19.8567L54.2796 20.0767L55.8635 20.0684L55.8654 20.4123L54.2814 20.4207L54.2826 20.6527L55.5946 20.6458L55.5987 21.4218C55.5999 21.6458 55.4805 21.7584 55.2405 21.7597L54.9685 21.7611L54.8707 21.4256L55.1308 21.4442C55.1908 21.4439 55.2226 21.4078 55.2223 21.3438L55.2204 20.9798L54.2844 20.9847L54.2861 21.3087C54.7121 21.6825 55.2696 21.9715 55.9667 22.1838L55.7686 22.5329C55.1994 22.3199 54.7059 22.0345 54.288 21.6687L54.293 22.6167L53.909 22.6187L53.9041 21.6827C53.506 22.0608 53.0516 22.3553 52.5487 22.5699L52.3189 22.2311C52.9338 22.0119 53.4641 21.7011 53.902 21.3027L53.9004 20.9867L53.0284 20.9914L53.0324 21.7553L52.6604 21.7573L52.6546 20.6613L53.8986 20.6548L53.8974 20.4228L52.3134 20.4311L52.3116 20.0871ZM52.8728 19.5562C52.7855 19.6966 52.6942 19.8291 52.5909 19.9497L52.2618 19.7474C52.5084 19.4781 52.6829 19.1892 52.7852 18.8806L53.1496 18.9587C53.1181 19.0509 53.0826 19.139 53.047 19.2192L54.003 19.2142L54.0048 19.5502L53.4168 19.5533C53.4974 19.6769 53.5701 19.7925 53.6266 19.9002L53.2833 20.026C53.2104 19.8664 53.1216 19.7068 53.0248 19.5554L52.8728 19.5562Z" fill="white"/>
<path d="M58.113 20.5876L58.149 21.0302L58.7669 20.9799L58.7309 20.5373L58.113 20.5876ZM58.1775 21.381L58.2178 21.8754L58.8357 21.8251L58.7955 21.3307L58.1775 21.381ZM58.2473 22.2382L58.2619 22.4176L57.8871 22.4481L57.7074 20.2394C57.6371 20.3615 57.5584 20.4802 57.4758 20.5993L57.3158 20.211C57.5964 19.7628 57.7823 19.2862 57.869 18.7734L58.2417 18.8153C58.2021 19.0192 58.1499 19.2161 58.085 19.406L58.695 19.3564C58.6157 19.1702 58.5283 18.9847 58.4337 18.8077L58.7887 18.6825C58.8962 18.9186 58.9858 19.132 59.0499 19.3275L59.6598 19.2778L59.6894 19.6406L59.0395 19.6935L59.0768 20.152L59.6469 20.1056L59.6758 20.4604L59.1057 20.5068L59.1417 20.9494L59.7118 20.903L59.7404 21.2538L59.1703 21.3002L59.2105 21.7946L59.9042 21.7381L59.9337 22.1009L58.2473 22.2382ZM58.6647 19.724L58.0468 19.7743L58.0841 20.2328L58.7021 20.1825L58.6647 19.724ZM57.4014 20.4248L57.4329 20.8115C57.3255 20.8724 57.2138 20.9297 57.106 20.9866L57.1943 22.071C57.2153 22.3302 57.0905 22.4728 56.8234 22.4945L56.4646 22.5237L56.351 22.1637C56.4599 22.1709 56.5643 22.1704 56.6639 22.1623C56.7676 22.1539 56.8155 22.1018 56.8077 22.0062L56.7389 21.161C56.5917 21.2251 56.4401 21.2856 56.2921 21.3418L56.1653 20.9668C56.3495 20.9117 56.529 20.849 56.7078 20.7782L56.6397 19.941L56.1613 19.9799L56.1314 19.6131L56.6098 19.5742L56.5527 18.8725L56.9315 18.8417L56.9886 19.5434L57.3593 19.5132L57.3892 19.88L57.0184 19.9102L57.0752 20.6079C57.1869 20.5506 57.2943 20.4897 57.4014 20.4248Z" fill="white"/>
<path d="M62.1223 18.2268C62.2045 18.3483 62.2891 18.4855 62.3766 18.6426L63.7977 18.4364L63.8506 18.8006L60.9489 19.2216L61.0701 20.0569C61.1846 20.9295 61.159 21.6445 60.99 22.2066L60.6325 21.9715C60.7752 21.5062 60.7942 20.8851 60.6901 20.112L60.5161 18.9126L61.9609 18.7029C61.882 18.5769 61.8003 18.4595 61.713 18.359L62.1223 18.2268Z" fill="white"/>
<path d="M64.3956 18.7052L64.4275 18.8661L65.2122 18.7106L65.1803 18.5497L64.3956 18.7052ZM65.1337 18.3143L65.1034 18.1613L64.3186 18.3168L64.3489 18.4698L65.1337 18.3143ZM64.7035 19.8268L67.1794 19.3361L67.4126 20.5132L64.9368 21.0039L64.7035 19.8268ZM67.0153 20.2984L66.9787 20.1139L65.1856 20.4693L65.2222 20.6537L67.0153 20.2984ZM65.1343 20.2103L66.9274 19.855L66.894 19.6863L65.1009 20.0416L65.1343 20.2103ZM64.4617 21.2611L67.9617 20.5675L68.0239 20.8814L64.5239 21.575L64.4617 21.2611ZM65.5472 17.8082L67.1481 17.491L67.2072 17.7892L66.7285 17.8841C66.7314 18.0221 66.7241 18.15 66.7082 18.2755L67.3634 18.1456L67.421 18.436L66.8324 18.5526L66.9009 18.8979C66.9078 18.9332 66.9314 18.9489 66.9784 18.9396L67.1668 18.9023C67.2021 18.8953 67.2319 18.8812 67.2531 18.8648C67.2775 18.8436 67.2808 18.7573 67.2646 18.6138L67.5563 18.6457C67.574 18.8787 67.5659 19.023 67.5266 19.0716C67.4865 19.1162 67.404 19.1529 67.2871 19.1802L66.9379 19.2494C66.8476 19.2673 66.7716 19.2538 66.7152 19.2161C66.6572 19.1705 66.6204 19.1084 66.6049 19.0299L66.566 18.8338C66.4361 19.1246 66.2403 19.3509 65.9702 19.5105L65.7439 19.274C65.992 19.1269 66.1681 18.9248 66.2753 18.663L65.6671 18.7835C65.7083 18.5389 65.7361 18.3295 65.7459 18.1522L66.0628 18.1261C66.0548 18.2296 66.0452 18.3253 66.0294 18.41L66.3668 18.3431C66.3906 18.2161 66.4018 18.0874 66.4028 17.9486L65.6063 18.1064L65.5472 17.8082ZM64.478 19.1211L64.5433 19.4507C64.7435 19.3703 64.9398 19.2906 65.1345 19.2031C65.0938 19.1622 65.0499 19.1261 65.0107 19.093L65.1176 18.9944L64.478 19.1211ZM65.2981 18.9586C65.4688 19.1001 65.6083 19.2275 65.7171 19.3445L65.5049 19.5701C65.4618 19.5174 65.4149 19.4656 65.3647 19.4184C65.0719 19.5662 64.7147 19.7185 64.2947 19.8833L64.1532 19.6014C64.2089 19.5741 64.2372 19.5522 64.2326 19.5286L63.9542 18.1239L65.3667 17.844L65.5767 18.9034L65.2981 18.9586Z" fill="white"/>
<path d="M68.2894 17.1804C68.5844 17.3043 68.8377 17.4428 69.0552 17.5862L68.8672 17.9056C68.674 17.7602 68.4159 17.6188 68.0975 17.4842L68.2894 17.1804ZM68.0702 18.4107L68.9393 18.1927L69.3511 19.8338C69.446 19.7027 69.5449 19.5542 69.6514 19.3872L69.8497 19.7499C69.6559 20.046 69.4408 20.3227 69.2033 20.5761L68.9799 20.2775C69.0283 20.2076 69.0457 20.129 69.0253 20.0475L68.6709 18.6353L68.1588 18.7638L68.0702 18.4107ZM69.5711 18.5249L71.4528 18.0527L71.5375 18.3902C71.5116 18.7638 71.3994 19.1053 71.2017 19.4189C71.4909 19.5195 71.8306 19.591 72.2109 19.6275L72.0928 19.9953C71.6659 19.9375 71.2991 19.8398 70.9866 19.712C70.7385 20.0052 70.406 20.2743 69.9968 20.5172L69.7133 20.2584C70.0944 20.0349 70.4017 19.797 70.6343 19.5406C70.3062 19.3508 70.0528 19.1133 69.8818 18.8263L69.6607 18.8818L69.5711 18.5249ZM70.2271 18.7397C70.3757 18.9539 70.5806 19.1293 70.8465 19.2688C71.0083 19.0261 71.1177 18.7719 71.1699 18.5031L70.2271 18.7397ZM69.4669 16.9591L70.8403 16.6145L71.0448 17.4293C71.0662 17.5146 71.1244 17.5495 71.2214 17.5251L71.5628 17.4395L71.6475 17.777L71.2091 17.887C70.9337 17.9561 70.7648 17.8583 70.7005 17.6022L70.5623 17.0513L69.9183 17.2129L69.9475 17.3293C70.0487 17.7328 69.9219 18.0987 69.5701 18.422L69.2546 18.2001C69.5435 17.9709 69.6587 17.7234 69.5925 17.4596L69.4669 16.9591Z" fill="white"/>
<path d="M73.2435 17.0106L74.2472 16.7091L73.91 15.5867L74.2854 15.4739L74.6226 16.5963L75.5727 16.3109L75.6809 16.671L74.7308 16.9564L75.3512 19.0212L74.9758 19.134L74.3554 17.0692L73.3517 17.3707L73.2435 17.0106ZM72.2194 16.1322C72.5248 16.2451 72.7919 16.3695 73.0219 16.5092L72.8488 16.8369C72.6415 16.7029 72.3733 16.5746 72.0414 16.4571L72.2194 16.1322ZM72.0476 17.395L72.9325 17.1292L73.4228 18.7611C73.5154 18.6247 73.6073 18.4718 73.7034 18.3051L73.9108 18.6479C73.7347 18.9514 73.5326 19.2377 73.307 19.5017L73.0713 19.2175C73.1203 19.1444 73.1352 19.0689 73.1122 18.9923L72.6886 17.5825L72.1523 17.7436L72.0476 17.395Z" fill="white"/>
<path d="M76.8162 16.2815L76.9387 16.637C76.8436 16.7416 76.7472 16.8425 76.647 16.9447L77.017 18.0188C77.1043 18.2722 77.0238 18.4438 76.7742 18.5297L76.4679 18.6353L76.2686 18.3147C76.3633 18.2948 76.4528 18.2724 76.536 18.2437C76.6268 18.2124 76.6553 18.1476 76.6227 18.0531L76.34 17.2324C76.2183 17.3336 76.0966 17.4347 75.9698 17.5334L75.7643 17.2192C75.9239 17.1177 76.0758 17.0061 76.2201 16.8845L75.9426 16.079L75.4812 16.2379L75.3626 15.8938L75.824 15.7348L75.5973 15.0768L75.9604 14.9517L76.1871 15.6097L76.5691 15.4781L76.6876 15.8223L76.3057 15.9539L76.5284 16.6006C76.6286 16.4984 76.7262 16.3886 76.8162 16.2815ZM76.7624 15.3269L77.462 15.0859L77.2627 14.5073L77.6219 14.3835L77.8213 14.9621L78.5814 14.7003L78.7013 15.0482L77.9411 15.3101L78.0818 15.7185C78.1118 15.8055 78.1342 15.8951 78.1566 15.9847L79.0945 15.6616L79.2144 16.0095L78.3899 16.2935C78.765 16.7312 79.2095 17.0392 79.7198 17.2188L79.5755 17.5858C79.0586 17.3747 78.6088 17.0516 78.2288 16.624C78.2266 17.1579 78.0686 17.6819 77.755 18.1961L77.3944 18.058C77.7307 17.536 77.8835 17.0095 77.8529 16.4785L77.1154 16.7326L76.9956 16.3847L77.7973 16.1084C77.7736 16.0151 77.7512 15.9255 77.7226 15.8423L77.5819 15.4338L76.8822 15.6749L76.7624 15.3269Z" fill="white"/>
<path d="M82.4533 14.4663L82.8836 15.5737L82.5256 15.7128L82.2185 14.9223L80.4997 15.5901L80.8213 16.4179L80.4633 16.5569L80.0186 15.4123L82.4533 14.4663ZM80.4104 14.3331L79.84 14.5548L79.7806 14.4019C79.6509 14.521 79.5131 14.6303 79.3635 14.7313L79.0409 14.5305C79.4963 14.2334 79.8176 13.8897 80.002 13.4919L80.3556 13.5734C80.2644 13.7805 80.1496 13.971 80.0172 14.1383L81.6241 13.514C81.363 13.4824 81.1176 13.4362 80.8954 13.3723L81.0744 13.071C81.4538 13.1639 81.9318 13.2013 82.5121 13.1819L82.4416 13.5526C82.2707 13.5546 82.1111 13.5523 81.9574 13.5433C82.0548 13.8273 82.0995 14.0417 82.0862 14.1841C82.0683 14.337 81.9467 14.4658 81.7236 14.5653C81.5223 14.6435 81.3307 14.7137 81.154 14.778L80.9621 14.505C81.1991 14.4301 81.4219 14.3521 81.6233 14.2739C81.7053 14.242 81.743 14.1844 81.729 14.1041C81.7135 14.02 81.689 13.9351 81.6557 13.8493L80.7758 14.1912C80.7674 14.6665 80.4176 15.1028 79.7199 15.494L79.4566 15.2358C80.0293 14.9318 80.3465 14.6326 80.4104 14.3331ZM81.8812 15.8988C82.4123 15.8298 82.9102 15.808 83.3772 15.8282L83.2984 16.2107C82.7937 16.1708 82.2989 16.1785 81.8066 16.2367L81.8812 15.8988ZM81.2203 15.4346L81.5898 15.3254C81.7201 15.8154 81.7285 16.1684 81.6164 16.3879C81.5067 16.6579 81.116 16.9556 80.4405 17.2824L80.1743 17.0168C80.7495 16.7633 81.0988 16.5246 81.2235 16.3045C81.3296 16.0916 81.3295 15.8041 81.2203 15.4346Z" fill="white"/>
<path d="M84.5595 12.3448L83.3295 12.8765L83.185 12.5424L86.0012 11.3249L86.1456 11.6591L84.9119 12.1924L85.877 14.4247L87.342 13.7914L87.488 14.1292L84.2019 15.5498L84.0559 15.212L85.5245 14.5771L84.5595 12.3448Z" fill="white"/>
<path d="M88.2084 10.9871C88.2057 11.4129 88.1591 11.8019 88.0723 12.1524L87.6864 11.9717C87.8213 11.4792 87.8496 10.8733 87.7694 10.1593L88.1526 10.0715C88.1736 10.2473 88.1875 10.4176 88.1981 10.5807L89.6887 9.87794L89.8474 10.2144L88.686 10.762L88.9299 11.2793L89.9466 10.8L90.1035 11.1329L89.0868 11.6122L89.3376 12.1441L90.3615 11.6613L90.5167 11.9906L89.4928 12.4733L89.8783 13.291L89.531 13.4547L88.3386 10.9257L88.2084 10.9871ZM87.2561 12.1658C87.2128 12.3365 87.1586 12.5124 87.0991 12.6864L86.8093 12.372C86.9893 11.7874 87.0391 11.1802 86.9605 10.5539L87.3578 10.5524C87.3933 10.8717 87.3967 11.1885 87.368 11.5027L88.5143 13.9341L88.1669 14.0978L87.2561 12.1658Z" fill="white"/>
<path d="M91.362 9.17739L92.6279 11.6569L92.3037 11.8225L92.2091 11.6372L91.6462 11.9246L91.7936 12.2131L91.4694 12.3787L90.1507 9.79578L90.4892 9.623C90.4551 9.39788 90.4049 9.17647 90.3279 8.95529L90.69 8.82882C90.7544 9.04295 90.7938 9.25192 90.8134 9.45749L91.362 9.17739ZM91.4862 11.6111L92.0491 11.3237L91.6908 10.6219L91.1279 10.9092L91.4862 11.6111ZM90.9733 10.6064L91.5362 10.319L91.2015 9.66353L90.6386 9.9509L90.9733 10.6064ZM92.4398 9.70503C92.8241 9.87712 93.1349 10.0373 93.3723 10.1945L93.2015 10.5198C92.9461 10.3537 92.6281 10.1882 92.2528 10.0161L92.4398 9.70503ZM93.2021 8.24245C93.8296 9.47155 94.1992 10.2395 94.3091 10.5427C94.4044 10.8174 94.2989 11.0329 93.9961 11.1875C93.9248 11.2239 93.7929 11.2822 93.6093 11.3625L93.3692 11.0944C93.5295 11.0215 93.6686 10.9595 93.7826 10.9013C93.9251 10.8285 93.9688 10.7119 93.9138 10.5513C93.8442 10.3623 93.5494 9.75833 93.0381 8.73936L92.1439 9.19588C92.1533 9.46056 92.1393 9.7147 92.0949 9.96195L91.7554 9.79842C91.8159 9.33638 91.767 8.83589 91.6015 8.3006L91.9582 8.17239C92.0245 8.39008 92.0692 8.6008 92.1013 8.80446L93.2021 8.24245Z" fill="white"/>
<path d="M93.722 7.2584C94.0625 7.31324 94.3644 7.38927 94.6258 7.48298L94.518 7.8434C94.2815 7.74515 93.9812 7.66369 93.6136 7.60094L93.722 7.2584ZM97.4635 9.29219C97.2707 9.39812 97.0584 9.51017 96.8321 9.62993C96.6023 9.75161 96.405 9.83265 96.2384 9.87848C96.0751 9.91344 95.9062 9.89671 95.7355 9.83529C95.6537 9.80266 95.5962 9.79772 95.5542 9.82083C95.4805 9.86128 95.441 10.0884 95.4355 10.5021L95.0649 10.4091C95.0842 10.0288 95.1438 9.76333 95.2455 9.61617L94.7004 8.62403L94.2307 8.8821L94.0612 8.57359L94.843 8.14411L95.571 9.4693C95.5962 9.4737 95.6234 9.4816 95.6525 9.493C95.7851 9.54336 95.9077 9.56726 96.0204 9.56468C96.1526 9.55599 96.3242 9.5028 96.5348 9.39618C96.7366 9.28991 96.9734 9.16437 97.2469 9.01415C97.4187 8.91978 97.592 8.81998 97.7654 8.72017C97.9388 8.62037 98.0716 8.53825 98.1624 8.47924L98.2628 8.85308L97.4635 9.29219ZM95.322 6.83125L94.6454 7.20295L94.4933 6.92599L96.418 5.86865L96.547 6.10354C96.44 6.39054 96.3035 6.65719 96.1414 6.91051C96.1523 6.91367 96.1612 6.91332 96.1721 6.91648L96.8768 6.52937L97.7319 8.08595C97.8455 8.2928 97.7876 8.46153 97.5597 8.58671L97.2898 8.73501L97.0675 8.49657L97.3241 8.37385C97.4013 8.33148 97.4221 8.2698 97.3798 8.19268L97.2815 8.01388L96.7767 8.29122L97.0926 8.86617L96.7876 9.03373L96.4717 8.45877L95.9774 8.73033L96.2971 9.3123L95.9816 9.48563L94.9416 7.59249L95.7479 7.14952C95.5898 7.13595 95.4158 7.12658 95.2297 7.12841L95.322 6.83125ZM95.8514 6.86445C95.9582 6.70994 96.0487 6.55069 96.1249 6.3902L95.3396 6.82162C95.519 6.83257 95.6895 6.84387 95.8514 6.86445ZM95.6943 8.21497L95.8291 8.46038L96.3234 8.18882L96.1886 7.94342L95.6943 8.21497ZM96.4936 7.77586L96.6284 8.02127L97.1332 7.74393L96.9984 7.49852L96.4936 7.77586ZM96.8482 7.22507L96.7134 6.97966L96.2086 7.257L96.3434 7.50241L96.8482 7.22507ZM96.0384 7.66996L95.9035 7.42456L95.4092 7.69611L95.544 7.94152L96.0384 7.66996Z" fill="white"/>
<path d="M99.9434 4.13056L101.521 6.8224L101.203 7.00846L101.088 6.81175L100.484 7.16567L100.601 7.36583L100.284 7.55189L98.7044 4.85661L99.9434 4.13056ZM100.304 6.85852L100.908 6.5046L99.8059 4.62377L99.2019 4.97769L100.304 6.85852ZM97.7062 5.99333C97.7279 6.21239 97.7312 6.42373 97.7195 6.6253L97.3259 6.61025C97.3567 6.15642 97.3111 5.71483 97.1859 5.28751L97.5508 5.16642C97.5931 5.31779 97.6225 5.46284 97.6498 5.60445L98.592 5.05233L98.776 5.36638L98.3067 5.64143C98.4251 5.85944 98.5321 6.06567 98.6186 6.26071L99.1569 5.94521L99.341 6.25926L98.7577 6.60105C98.7884 6.68506 98.8157 6.7711 98.8423 6.84821C99.1782 6.93881 99.5317 7.05154 99.9063 7.18439L99.8841 7.60538C99.4922 7.42708 99.1732 7.29412 98.9271 7.20651C98.9945 7.65381 98.9295 8.10455 98.7231 8.55931L98.3554 8.42242C98.5586 7.94635 98.6032 7.48443 98.4905 7.03117C98.4659 6.95751 98.4427 6.87838 98.4161 6.80127L97.7362 7.19968L97.5522 6.88563L98.2804 6.4589C98.1939 6.26386 98.0869 6.05763 97.9684 5.83962L97.7062 5.99333Z" fill="white"/>
<path d="M100.583 3.25054L102.274 4.39691L102.561 6.42L102.213 6.46725L101.948 4.60021L100.387 3.54212L100.583 3.25054ZM101.163 2.88842L102.854 4.03478L103.141 6.05787L102.793 6.10512L102.529 4.23808L100.954 3.18847L101.163 2.88842Z" fill="white"/>
</svg>
