<svg width="56" height="8" viewBox="0 0 56 8" fill="none" xmlns="http://www.w3.org/2000/svg">
<path d="M6.64861 0.881371L7.00542 1.04548L6.19561 2.7396L6.9214 4.46844L6.57439 4.61663L5.78371 2.73029L6.64861 0.881371ZM7.34443 0.8971L7.68525 1.06084L6.89143 2.75533L7.61723 4.48417L7.27021 4.63236L6.47954 2.74602L7.34443 0.8971ZM9.70608 1.64266L8.37842 1.61265L8.38637 1.21273L11.4696 1.28242L11.4616 1.68235L10.13 1.65224L10.0825 4.04377L11.658 4.07939L11.65 4.48331L8.07094 4.4024L8.07896 3.99848L9.65856 4.03419L9.70608 1.64266ZM13.282 1.07933L13.7019 1.08882L13.6396 4.22021L14.0795 4.23015L14.1417 1.09877L14.5616 1.10826L14.4994 4.23964L15.6511 4.26568L15.643 4.6736L12.0679 4.59278L12.076 4.18486L13.2197 4.21071L13.282 1.07933ZM15.2544 1.88011L15.6203 1.99241C15.4547 2.67284 15.2509 3.26838 15.0087 3.77504L14.6355 3.63456C14.8686 3.17572 15.0723 2.58817 15.2544 1.88011ZM12.5514 1.807C12.7407 2.34342 12.9085 2.95937 13.0508 3.65076L12.6691 3.73415C12.5455 3.1072 12.3895 2.50352 12.1931 1.91894L12.5514 1.807ZM16.6126 1.18263C16.8647 1.38038 17.0768 1.57722 17.2489 1.77316L16.9593 2.05468C16.807 1.8672 16.595 1.66235 16.3232 1.44816L16.6126 1.18263ZM16.0581 2.30638L16.9819 2.32726L16.9489 3.98694C17.0669 3.88558 17.1931 3.7764 17.3276 3.65541L17.4348 4.09795C17.1661 4.33193 16.882 4.53756 16.5822 4.72283L16.4297 4.34329C16.4989 4.28484 16.5364 4.20967 16.5382 4.12169L16.566 2.71796L16.0502 2.7063L16.0581 2.30638ZM17.4802 2.81865L19.4317 2.86276L19.4242 3.24269C19.3054 3.58409 19.1155 3.87987 18.8545 4.12604C19.0993 4.29161 19.3964 4.43836 19.7499 4.57038L19.5188 4.92525C19.13 4.75642 18.8016 4.57295 18.5416 4.37103C18.2253 4.58393 17.8419 4.75131 17.3834 4.87298L17.1584 4.5158C17.5727 4.40514 17.9237 4.26103 18.2152 4.08358C17.9644 3.82184 17.79 3.53783 17.7002 3.22372L17.4723 3.21857L17.4802 2.81865ZM18.0921 3.23258C18.1756 3.46253 18.3154 3.67374 18.5197 3.8624C18.7273 3.68305 18.8873 3.48262 19.0039 3.25319L18.0921 3.23258ZM17.7829 1.2771L19.2225 1.30965L19.2061 2.13748C19.2043 2.22546 19.2514 2.27454 19.3513 2.2768L19.6953 2.28457L19.6877 2.6645L19.2318 2.65419C18.9319 2.64741 18.7867 2.5041 18.7923 2.22415L18.8029 1.69226L18.187 1.67834L18.1849 1.78631C18.1766 2.20223 17.9542 2.52129 17.5259 2.73566L17.2523 2.4094C17.591 2.27702 17.7669 2.08094 17.7721 1.82099L17.7829 1.2771ZM21.3175 2.38926L22.3492 2.41259L22.3723 1.25281L22.8042 1.26258L22.7811 2.42235L23.7609 2.4445L23.7526 2.86041L22.7729 2.83827L22.7303 4.98184L22.2984 4.97208L22.341 2.8285L21.3092 2.80518L21.3175 2.38926ZM20.6361 1.24558C20.8841 1.44723 21.0962 1.64807 21.2723 1.8441L20.9786 2.12954C20.8303 1.94214 20.6142 1.74121 20.3344 1.52683L20.6361 1.24558ZM20.0573 2.38878L21.009 2.4103L20.9758 4.08197C21.0938 3.98461 21.22 3.87543 21.3544 3.75444L21.4539 4.1848C21.1891 4.41887 20.9089 4.62859 20.6092 4.81387L20.4567 4.43432C20.5299 4.37596 20.5673 4.30479 20.569 4.22081L20.5972 2.80109L20.0493 2.7887L20.0573 2.38878ZM24.4508 2.95622C24.3524 3.07802 24.25 3.19574 24.1437 3.31337L24.0126 2.86229C24.3894 2.4227 24.6678 1.90486 24.8558 1.30095L25.2321 1.48951C25.1384 1.77546 25.0169 2.05278 24.8757 2.31366L24.8218 5.02512L24.4099 5.01581L24.4508 2.95622ZM25.4089 1.45349L27.5003 1.50077L27.4729 2.8805L26.6891 2.86278L26.6784 3.40267L27.5662 3.42274L27.5585 3.80667L26.6708 3.7866L26.655 4.58244C26.7746 4.60115 26.9184 4.6124 27.0782 4.62402C27.2862 4.62872 27.5022 4.6296 27.7183 4.62648L27.6344 5.02069L27.2625 5.01228C26.6708 4.9949 26.2721 4.92587 26.0623 4.8091C25.8565 4.70042 25.6877 4.53657 25.5562 4.30954C25.4424 4.59904 25.3054 4.84801 25.1492 5.05653L24.888 4.71454C25.1682 4.30477 25.3631 3.75704 25.4728 3.06734L25.8674 3.14428C25.8223 3.39932 25.7696 3.63419 25.7092 3.85688C25.7626 3.99012 25.8321 4.11173 25.922 4.22178C26.0159 4.32793 26.1264 4.40645 26.2452 4.46515L26.2772 2.85347L25.3815 2.83322L25.4089 1.45349ZM27.0767 2.48744L27.0888 1.87556L25.8091 1.84664L25.797 2.45852L27.0767 2.48744ZM28.4819 1.43094C28.7417 1.64486 28.9615 1.85788 29.1414 2.07L28.8355 2.35916C28.6876 2.15577 28.4719 1.93484 28.1886 1.69637L28.4819 1.43094ZM30.6857 5.08566C30.4698 5.08078 30.2339 5.07145 29.9821 5.06175C29.7262 5.05197 29.5188 5.02327 29.3516 4.97948C29.1926 4.92788 29.0584 4.83282 28.9452 4.69423C28.8945 4.62506 28.8472 4.59199 28.7992 4.5909C28.7232 4.58918 28.5838 4.76208 28.3767 5.11748L28.0744 4.82658C28.2807 4.51116 28.4607 4.31118 28.6224 4.22681L28.6442 3.13103L28.1163 3.1191L28.1239 2.73517L29.0397 2.75587L29.0094 4.27957L29.0486 4.32047C29.1345 4.42644 29.2249 4.5085 29.3159 4.56257C29.4306 4.62518 29.602 4.66106 29.8337 4.6743C30.0616 4.68345 30.3295 4.69351 30.6334 4.70038C30.8333 4.7049 31.0334 4.70542 31.2413 4.71012C31.4454 4.70673 31.6015 4.70226 31.7097 4.6967L31.6015 5.10636L30.6857 5.08566ZM29.3626 2.00698L29.7865 2.01657L29.7984 1.42068L30.2023 1.42981L30.1904 2.0257L30.6943 2.03709L30.706 1.4492L31.1139 1.45842L31.1022 2.04631L31.5621 2.0567L31.5544 2.44463L31.0945 2.43423L31.0811 3.1101L31.6689 3.12339L31.6611 3.51531L31.0733 3.50202L31.0521 4.56581L30.6442 4.55659L30.6654 3.4928L30.0655 3.47924C29.9446 3.92862 29.738 4.26003 29.4417 4.47339L29.1963 4.13576C29.4073 3.98849 29.5597 3.76788 29.6536 3.46993L29.1938 3.45953L29.2015 3.06761L29.7414 3.07981C29.7599 2.9522 29.7706 2.82041 29.7734 2.67644L29.7788 2.40449L29.3549 2.39491L29.3626 2.00698ZM30.1827 2.41362L30.1792 2.58959C30.1757 2.76555 30.1604 2.93325 30.1413 3.08885L30.6732 3.10088L30.6866 2.42501L30.1827 2.41362ZM34.1849 1.53585L34.6088 1.54543L34.5971 2.13731L35.5808 2.15955L35.5728 2.56347L34.589 2.54123L34.5767 3.16111L35.6644 3.1857L35.6563 3.59362L34.3607 3.56433C34.1346 4.07135 33.9311 4.44684 33.7582 4.691C34.175 4.65241 34.5923 4.59382 35.0058 4.51915C34.91 4.30893 34.8137 4.11871 34.7133 3.94039L35.1199 3.81355C35.3439 4.21872 35.5394 4.64724 35.7063 5.10713L35.3069 5.27415C35.2576 5.137 35.2082 5.00785 35.1626 4.88679C34.5643 4.99329 33.9187 5.07072 33.2215 5.12298L33.1367 4.75697C33.177 4.74588 33.2052 4.73451 33.2254 4.72297C33.3964 4.57479 33.6281 4.18793 33.9128 3.55421L33.049 3.53468L33.0571 3.12676L34.1528 3.15153L34.1652 2.53165L33.2614 2.51122L33.2694 2.1073L34.1732 2.12773L34.1849 1.53585ZM32.4809 1.52133C32.7329 1.72708 32.9449 1.92792 33.121 2.12795L32.8191 2.4212C32.6709 2.22981 32.4549 2.02487 32.1753 1.8025L32.4809 1.52133ZM32.3623 2.45489C32.5943 2.66018 32.7903 2.86466 32.9543 3.06842L32.6485 3.35758C32.5121 3.17046 32.3162 2.96198 32.0607 2.73614L32.3623 2.45489ZM32.6997 3.5948L33.0766 3.75936C32.8947 4.25537 32.6933 4.72294 32.4766 5.15815L32.0604 4.9647C32.3052 4.52212 32.5184 4.06282 32.6997 3.5948ZM36.1263 2.09186L36.6861 2.10452C36.6255 1.9351 36.5606 1.7776 36.4836 1.62782L36.9129 1.56551C36.9737 1.72692 37.0341 1.90833 37.094 2.11374L37.5579 2.12422L37.55 2.52415L36.7782 2.5067L36.7695 2.94261L37.4773 2.95861C37.4564 4.01041 37.4235 4.65783 37.3866 4.90505C37.3418 5.1481 37.1514 5.26783 36.8195 5.26033C36.7875 5.2596 36.7356 5.25043 36.6679 5.23689L36.5793 4.8628C36.6511 4.87642 36.7109 4.88578 36.7629 4.88695C36.9028 4.89012 36.9882 4.82403 37.0147 4.6966C37.0372 4.56907 37.0583 4.11343 37.0818 3.33377L36.7579 3.32645C36.7165 4.20173 36.5556 4.84626 36.2794 5.26012L35.9729 4.97712C36.2206 4.59462 36.3529 3.97746 36.3739 3.12172L36.3863 2.49784L36.1183 2.49178L36.1263 2.09186ZM38.1325 2.40128C38.049 2.57544 37.958 2.72942 37.8631 2.87131L38.219 2.87936L38.2112 3.27128L38.4811 3.18135L38.4934 2.56148L38.8773 2.57015L38.8677 3.05406L39.5081 2.84048C39.4926 3.61632 39.4673 4.08387 39.4321 4.24712C39.3888 4.41018 39.2312 4.49064 38.9593 4.48449L38.9553 4.4844L38.8543 4.13003C38.9223 4.13156 38.9822 4.13692 39.0382 4.13819C39.0702 4.13891 39.091 4.09937 39.1004 4.02756C39.1097 3.96376 39.1181 3.73989 39.1259 3.34797L38.8601 3.43398L38.8343 4.73373L38.4504 4.72505L38.4735 3.56128L38.2037 3.6512L38.1837 4.65501C38.1801 4.83897 38.2343 4.93222 38.3502 4.93484L39.086 4.95147C39.166 4.95328 39.2225 4.93055 39.2633 4.89146C39.3081 4.84846 39.3388 4.71312 39.3593 4.48953L39.7169 4.60964C39.674 4.95676 39.6099 5.16336 39.5206 5.22936C39.4394 5.28754 39.3148 5.31673 39.1469 5.31294L38.2271 5.29215C37.9432 5.28573 37.8069 5.0946 37.8144 4.71867L37.8332 3.77086L37.5594 3.8607L37.5669 3.48477L37.8407 3.39494L37.8507 2.89104C37.793 2.97775 37.7313 3.06038 37.6739 3.1311L37.4125 2.79711C37.6462 2.51432 37.8541 2.11492 38.0364 1.59891L38.4266 1.69575C38.3844 1.80682 38.3462 1.91399 38.3042 2.01706L39.6598 2.04771L39.6521 2.43563L38.1325 2.40128ZM41.5871 1.90323L43.5546 1.9477L43.5464 2.35962L41.5789 2.31515L41.5871 1.90323ZM41.4714 2.89286L43.7068 2.94339L43.6986 3.35531L43.0828 3.34139L43.0495 5.01706C43.0443 5.28101 42.8937 5.40964 42.5977 5.40295L42.0179 5.38984L41.934 4.97984C42.1177 5 42.2934 5.01597 42.4613 5.01977C42.5693 5.02221 42.6261 4.98348 42.6277 4.9035L42.6589 3.33181L41.4632 3.30478L41.4714 2.89286ZM40.895 1.69953L41.2713 1.88809C41.0507 2.31921 40.6789 2.70691 40.156 3.05117L40.0364 2.62836C40.4176 2.36891 40.7038 2.0593 40.895 1.69953ZM41.0647 2.6236L41.4371 2.80806C41.329 3.01367 41.193 3.21065 41.0293 3.399L40.9898 5.38261L40.5779 5.37329L40.6092 3.8016C40.471 3.91051 40.3208 4.01914 40.1667 4.12369L40.0469 3.70887C40.501 3.40706 40.8403 3.04264 41.0647 2.6236ZM45.2905 4.5876L45.2827 4.97952C44.9278 5.11954 44.5295 5.23056 44.0799 5.30842L44.0319 4.90723C44.5135 4.8301 44.9317 4.72352 45.2905 4.5876ZM44.6427 1.74825L45.0196 1.9088C44.8503 2.37709 44.6786 2.76131 44.5047 3.05746C44.609 3.04381 44.7173 3.03025 44.8217 3.01261C44.8884 2.87408 44.9553 2.72756 45.0264 2.57312L45.3876 2.71732C45.0916 3.31879 44.8428 3.76127 44.641 4.04879C44.8579 4.00968 45.075 3.95457 45.3004 3.88765L45.2931 4.25557C44.8946 4.3746 44.517 4.45008 44.1643 4.48612L44.0714 4.12393C44.1401 4.09347 44.2008 4.05884 44.2496 4.01593C44.3561 3.89431 44.4884 3.67724 44.6507 3.36083C44.4821 3.38903 44.3096 3.41314 44.129 3.44106L44.0361 3.08287C44.1007 3.05632 44.1536 3.00951 44.2029 2.94261C44.3702 2.57829 44.5141 2.18145 44.6427 1.74825ZM46.3647 2.47134L45.8488 2.45968L45.8291 3.45549L46.3449 3.46715L46.3647 2.47134ZM46.3375 3.84307L45.8216 3.83141L45.801 4.86721L46.3169 4.87887L46.3375 3.84307ZM46.6928 4.88737L47.1927 4.89867L47.2132 3.86287L46.7134 3.85157L46.6928 4.88737ZM46.7208 3.47564L47.2207 3.48694L47.2405 2.49114L46.7406 2.47984L46.7208 3.47564ZM47.1851 5.27859L45.7935 5.24713L45.789 5.47109L45.4091 5.4625L45.4766 2.06717L47.64 2.11608L47.5726 5.51141L47.1807 5.50255L47.1851 5.27859ZM50.0786 2.01116L50.0282 4.54666L49.6203 4.53744L49.6627 2.40186L48.655 2.37908L48.6118 4.55065L48.2079 4.54152L48.259 1.97003L50.0786 2.01116ZM49.5147 4.61907C49.7624 4.83672 49.9742 5.04957 50.146 5.2615L49.8238 5.5703C49.6799 5.36299 49.4763 5.13834 49.213 4.90033L49.5147 4.61907ZM48.9584 2.614L49.3623 2.62313L49.3376 3.86688C49.3122 4.33843 49.2087 4.71618 49.0311 4.99224C48.854 5.2483 48.574 5.44602 48.1953 5.5815L47.9668 5.20024C48.3294 5.0724 48.5768 4.90595 48.7087 4.70888C48.8371 4.48773 48.9108 4.20532 48.9337 3.85775L48.9584 2.614ZM50.418 2.24289L50.8219 2.25202L50.7731 4.71153L50.3692 4.7024L50.418 2.24289ZM51.132 5.57186L50.5802 5.55939L50.4922 5.1533C50.6679 5.17327 50.8357 5.18507 50.9916 5.18859C51.1036 5.19113 51.1607 5.1364 51.1628 5.02842L51.2245 1.92504L51.6404 1.93444L51.5766 5.1458C51.5709 5.43375 51.42 5.57837 51.132 5.57186ZM52.5009 1.91788L53.2916 3.80422L52.4267 5.65314L52.0859 5.4894L52.8797 3.79491L52.1539 2.06607L52.5009 1.91788ZM53.1967 1.93361L53.9874 3.81995L53.1225 5.66887L52.7817 5.50513L53.5755 3.81064L52.8337 2.08144L53.1967 1.93361Z" fill="white"/>
<g clip-path="url(#clip0_4_53475)">
<path d="M4.75398 2.6895C4.77885 1.58521 3.9038 0.669847 2.79951 0.64498C1.69522 0.620113 0.77986 1.49516 0.754993 2.59945C0.730126 3.70374 1.60517 4.6191 2.70946 4.64397C3.81375 4.66883 4.72911 3.79379 4.75398 2.6895Z" fill="white"/>
<path d="M3.44696 2.66002C3.43815 3.05118 3.11392 3.36115 2.72276 3.35234C2.33159 3.34353 2.02163 3.01929 2.03044 2.62812C2.03925 2.23696 2.36349 1.927 2.75465 1.93581C3.14582 1.94461 3.45577 2.26886 3.44696 2.66002Z" fill="#485CC2"/>
<path fill-rule="evenodd" clip-rule="evenodd" d="M2.12734 2.28582C2.08942 2.41473 2.07445 2.68107 2.30626 2.76833C2.54224 2.85715 2.69879 2.71804 2.74757 2.63738C2.80312 2.56557 2.96077 2.4397 3.14704 2.51069C3.33332 2.58169 3.37699 2.72808 3.37554 2.79241L3.37171 2.9625C3.41764 2.87136 3.44449 2.76884 3.44694 2.66002C3.45574 2.26886 3.1458 1.94461 2.75463 1.93581C2.48843 1.92981 2.25323 2.07144 2.12734 2.28582Z" fill="#D74B4B"/>
<path fill-rule="evenodd" clip-rule="evenodd" d="M1.26737 2.05469L1.69124 1.47746L1.78102 1.54339L1.35715 2.12062L1.26737 2.05469ZM1.42494 2.15367L1.84881 1.57644L1.9386 1.64237L1.51473 2.2196L1.42494 2.15367ZM1.99228 1.67255L1.56841 2.24978L1.65819 2.31571L2.08206 1.73848L1.99228 1.67255Z" fill="#333333"/>
<path fill-rule="evenodd" clip-rule="evenodd" d="M4.26661 2.12223L4.09441 1.86413L4.00109 1.92494L4.17396 2.18405L4.26661 2.12223ZM3.86916 1.52651L4.0326 1.77147L3.93926 1.83228L3.77651 1.58833L3.86916 1.52651ZM4.10475 2.21401L3.7073 1.61829L3.61463 1.68011L4.01209 2.27584L4.10475 2.21401ZM3.70102 2.12046L3.86445 2.36539L3.9571 2.30357L3.79437 2.05965L3.70102 2.12046ZM3.73254 1.96698L3.63921 2.0278L3.46698 1.76967L3.55964 1.70785L3.73254 1.96698Z" fill="#333333"/>
<path fill-rule="evenodd" clip-rule="evenodd" d="M4.05794 3.4844L4.24158 3.23432L4.15181 3.16838L3.96744 3.41944L4.05794 3.4844ZM3.99201 3.57419L3.81771 3.81154L3.72794 3.74562L3.9015 3.50923L3.99201 3.57419ZM3.67649 3.21062L3.85077 2.97329L3.94054 3.03922L3.767 3.27558L3.67649 3.21062ZM3.70106 3.36537L3.61056 3.30041L3.42689 3.55052L3.51668 3.61644L3.70106 3.36537ZM4.08402 3.13533L3.90715 3.37617L3.81666 3.31122L3.99423 3.06941L4.08402 3.13533ZM3.66015 3.71257L3.84123 3.46596L3.75072 3.40101L3.57036 3.64663L3.66015 3.71257Z" fill="#333333"/>
<path fill-rule="evenodd" clip-rule="evenodd" d="M1.24234 3.16678L1.6398 3.76249L1.73246 3.70068L1.335 3.10495L1.24234 3.16678ZM1.55185 2.98543L1.94931 3.58115L2.04197 3.51934L1.64451 2.92361L1.55185 2.98543ZM1.40421 3.07498L1.57004 3.32355L1.66337 3.26273L1.49687 3.01317L1.40421 3.07498ZM1.80167 3.67072L1.63187 3.41621L1.7252 3.3554L1.89432 3.60889L1.80167 3.67072Z" fill="#333333"/>
</g>
<defs>
<clipPath id="clip0_4_53475">
<rect width="4" height="4" fill="white" transform="translate(0.800018 0.599955) rotate(1.29)"/>
</clipPath>
</defs>
</svg>
