<svg width="56" height="12" viewBox="0 0 56 12" fill="none" xmlns="http://www.w3.org/2000/svg">
<path d="M5.73855 6.59994L6.10283 6.74566L5.37575 8.479L6.18404 10.1687L5.84461 10.3344L4.96391 8.49069L5.73855 6.59994ZM6.43427 6.58018L6.78256 6.72635L6.07146 8.45924L6.87976 10.149L6.54033 10.3147L5.65963 8.47094L6.43427 6.58018Z" fill="white"/>
<path d="M8.77385 7.18347L7.44697 7.2379L7.43057 6.83823L10.512 6.71184L10.5284 7.1115L9.19749 7.16609L9.29553 9.55609L10.8702 9.4915L10.8868 9.89516L7.30977 10.0419L7.29321 9.63822L8.87188 9.57346L8.77385 7.18347Z" fill="white"/>
<path d="M12.2073 6.38221L12.6267 6.35956L12.7956 9.487L13.235 9.46327L13.066 6.33582L13.4854 6.31317L13.6544 9.44061L14.8047 9.37848L14.8267 9.78589L11.2559 9.97876L11.2339 9.57135L12.3762 9.50965L12.2073 6.38221ZM14.2332 7.02989L14.6062 7.11389C14.4914 7.80509 14.332 8.41457 14.128 8.93834L13.7454 8.82681C13.944 8.3514 14.1038 7.74991 14.2332 7.02989ZM11.5325 7.16374C11.7609 7.68418 11.9736 8.28558 12.1665 8.96417L11.792 9.07653C11.6226 8.46077 11.4224 7.87071 11.1835 7.30277L11.5325 7.16374Z" fill="white"/>
<path d="M15.5731 6.21904C15.8418 6.3927 16.0707 6.56915 16.2597 6.74839L15.9965 7.05552C15.828 6.88286 15.5986 6.69842 15.3087 6.5102L15.5731 6.21904ZM15.1217 7.3894L16.0434 7.3249L16.1593 8.98085C16.2678 8.86901 16.3836 8.74862 16.5067 8.61571L16.6531 9.04654C16.4065 9.30438 16.142 9.53541 15.8601 9.74761L15.6742 9.38369C15.7379 9.31909 15.7685 9.24077 15.7623 9.15298L15.6643 7.75241L15.1496 7.78843L15.1217 7.3894ZM16.5837 7.76827L18.5309 7.632L18.5574 8.01107C18.4697 8.36205 18.3071 8.67416 18.0693 8.94342C18.3279 9.08572 18.6369 9.20443 19.0007 9.30328L18.8024 9.67804C18.4002 9.54579 18.0567 9.3934 17.7797 9.21631C17.4838 9.45755 17.117 9.65965 16.6713 9.82316L16.4153 9.48821C16.818 9.33975 17.1545 9.16382 17.4289 8.96017C17.1557 8.72266 16.9566 8.45591 16.839 8.15137L16.6116 8.16729L16.5837 7.76827ZM17.2301 8.12401C17.3338 8.34531 17.492 8.54275 17.7123 8.71178C17.903 8.51399 18.0443 8.2996 18.1399 8.06034L17.2301 8.12401ZM16.747 6.20505L18.1834 6.10453L18.2412 6.93051C18.2474 7.01829 18.2986 7.06283 18.3984 7.05585L18.7415 7.03183L18.7681 7.4109L18.3132 7.44274C18.0139 7.46368 17.8565 7.33435 17.8369 7.05504L17.7998 6.52433L17.1853 6.56734L17.1929 6.67507C17.2219 7.09006 17.029 7.42835 16.6217 7.6814L16.3201 7.38173C16.6455 7.21861 16.8031 7.00709 16.7849 6.74773L16.747 6.20505Z" fill="white"/>
<path d="M20.3606 6.95952L21.3884 6.86582L21.2831 5.71061L21.7133 5.67138L21.8186 6.82659L22.7946 6.73761L22.8323 7.15189L21.8564 7.24087L22.051 9.37602L21.6208 9.41524L21.4262 7.2801L20.3984 7.3738L20.3606 6.95952ZM19.5571 5.9001C19.8259 6.07241 20.0588 6.24799 20.2555 6.42285L19.9952 6.7398C19.8271 6.57036 19.5902 6.39514 19.2885 6.21379L19.5571 5.9001ZM19.1084 7.10181L20.0565 7.01537L20.2083 8.68046C20.3147 8.57034 20.428 8.44755 20.5482 8.31207L20.6946 8.7285C20.4575 8.99112 20.2023 9.23128 19.9249 9.44937L19.7314 9.08945C19.7977 9.02316 19.827 8.94819 19.8194 8.86453L19.6904 7.4504L19.1447 7.50016L19.1084 7.10181Z" fill="white"/>
<path d="M23.4537 7.16495C23.3735 7.29972 23.2889 7.431 23.2003 7.56278L23.0067 7.13516C23.3174 6.64568 23.5196 6.09294 23.6203 5.46804L24.0194 5.60042C23.9671 5.89699 23.8861 6.18904 23.7832 6.46763L24.1135 9.15945L23.7046 9.20962L23.4537 7.16495ZM24.1892 5.53928L26.2656 5.28453L26.4337 6.65426L25.6555 6.74973L25.7213 7.28571L26.6027 7.17757L26.6494 7.55871L25.768 7.66685L25.865 8.45693C25.986 8.4582 26.1299 8.4486 26.2897 8.43706C26.4962 8.41173 26.7101 8.38145 26.9235 8.34721L26.8963 8.74952L26.5271 8.79482C25.939 8.86294 25.5346 8.8521 25.3106 8.76675C25.0915 8.68885 24.9013 8.55099 24.739 8.34522C24.6674 8.6482 24.567 8.91439 24.442 9.14333L24.1351 8.84246C24.3544 8.39644 24.4698 7.82614 24.4808 7.1276L24.8821 7.14687C24.8736 7.40583 24.8547 7.64592 24.8264 7.87507C24.8981 7.99927 24.9841 8.10961 25.0886 8.2056C25.1965 8.29714 25.317 8.35893 25.4429 8.3999L25.2466 6.7999L24.3573 6.90901L24.1892 5.53928ZM25.9859 6.32231L25.9114 5.71487L24.6409 5.87074L24.7155 6.47819L25.9859 6.32231Z" fill="white"/>
<path d="M27.2089 5.05199C27.4998 5.22037 27.7511 5.39444 27.9628 5.57419L27.7079 5.90981C27.529 5.73343 27.2805 5.55088 26.9625 5.36215L27.2089 5.05199ZM29.9739 8.29608C29.7601 8.32677 29.5259 8.35634 29.2759 8.38818C29.0219 8.42059 28.8126 8.42639 28.6406 8.41066C28.4754 8.38588 28.3277 8.31413 28.1936 8.19599C28.1324 8.13607 28.0804 8.11121 28.0329 8.11803C27.9576 8.12883 27.848 8.32237 27.7012 8.70713L27.356 8.46977C27.5085 8.1246 27.6537 7.89766 27.7996 7.78782L27.6439 6.70294L27.1212 6.77795L27.0667 6.39785L27.9734 6.26771L28.1899 7.77626L28.2352 7.81017C28.3371 7.90061 28.4395 7.96673 28.538 8.00513C28.6613 8.04804 28.8361 8.05528 29.0669 8.03024C29.2931 8.00181 29.559 7.96769 29.8599 7.9245C30.0579 7.89609 30.2553 7.86372 30.4612 7.83416C30.662 7.79726 30.8153 7.76718 30.921 7.74392L30.8806 8.16595L29.9739 8.29608ZM28.1709 5.47562L28.5906 5.41539L28.5059 4.82543L28.9058 4.76804L28.9905 5.35799L29.4894 5.28639L29.4058 4.70435L29.8097 4.64639L29.8932 5.22842L30.3486 5.16307L30.4037 5.54714L29.9483 5.61249L30.0444 6.28163L30.6264 6.19809L30.6821 6.58612L30.1001 6.66965L30.2512 7.72286L29.8474 7.78083L29.6962 6.72762L29.1023 6.81286C29.0557 7.27619 28.9054 7.63719 28.6476 7.89645L28.351 7.60362C28.5353 7.42361 28.65 7.18085 28.6945 6.87139L28.2391 6.93675L28.1835 6.54872L28.718 6.472C28.7156 6.34303 28.7048 6.21123 28.6843 6.06869L28.6457 5.79945L28.226 5.85969L28.1709 5.47562ZM29.0456 5.74206L29.0706 5.91627C29.0956 6.09048 29.1076 6.25849 29.1139 6.41518L29.6405 6.3396L29.5445 5.67045L29.0456 5.74206Z" fill="white"/>
<path d="M32.787 4.20982L33.2062 4.14647L33.2946 4.73182L34.2676 4.58479L34.328 4.98425L33.355 5.13128L33.4477 5.74432L34.5234 5.58175L34.5844 5.98517L33.303 6.17882C33.1659 6.71735 33.0289 7.12237 32.8998 7.39269C33.304 7.28307 33.7051 7.15367 34.1 7.00905C33.97 6.81833 33.843 6.64738 33.7139 6.4889L34.093 6.29406C34.3822 6.6549 34.6473 7.04366 34.8894 7.46825L34.5242 7.70144C34.4524 7.57474 34.3819 7.45594 34.3165 7.34446C33.7451 7.55217 33.1221 7.73937 32.4441 7.9106L32.2987 7.56443C32.3365 7.54659 32.3624 7.53054 32.3804 7.51569C32.5238 7.34029 32.6867 6.91922 32.86 6.24576L32.0057 6.37486L31.9447 5.97144L33.0284 5.80768L32.9358 5.19464L32.0419 5.32972L31.9816 4.93025L32.8754 4.79517L32.787 4.20982ZM31.1057 4.48816C31.3887 4.64767 31.6315 4.80919 31.8388 4.9761L31.591 5.31696C31.4126 5.15378 31.1652 4.9889 30.8521 4.81776L31.1057 4.48816ZM31.1466 5.4286C31.4099 5.59109 31.6375 5.75896 31.8335 5.93161L31.5811 6.26912C31.4152 6.1081 31.187 5.93627 30.897 5.75759L31.1466 5.4286ZM31.6717 6.4941L32.0708 6.59157C31.9754 7.11165 31.8561 7.60704 31.7162 8.07318L31.2734 7.95401C31.4398 7.47577 31.5722 6.9865 31.6717 6.4941Z" fill="white"/>
<path d="M34.8534 4.41384L35.4067 4.3273C35.3175 4.17121 35.2262 4.02759 35.1243 3.89373L35.536 3.75645C35.624 3.90464 35.715 4.07259 35.8098 4.26425L36.2682 4.19254L36.33 4.58774L35.5673 4.70704L35.6347 5.1378L36.3341 5.02839C36.4967 6.06775 36.5771 6.71106 36.5838 6.96102C36.582 7.20827 36.4154 7.35984 36.0874 7.41114C36.0558 7.41609 36.0032 7.41622 35.9341 7.41487L35.7818 7.06218C35.8548 7.06291 35.9153 7.06154 35.9667 7.0535C36.105 7.03187 36.1775 6.9517 36.1814 6.82153C36.1814 6.69198 36.1228 6.2396 36.0101 5.46774L35.69 5.51781C35.8017 6.38699 35.7556 7.05008 35.5557 7.50645L35.2048 7.28198C35.382 6.86155 35.4047 6.23046 35.2764 5.38412L35.18 4.76762L34.9152 4.80903L34.8534 4.41384ZM36.882 4.36374C36.8302 4.54999 36.7673 4.71771 36.6987 4.8742L37.0504 4.81919L37.111 5.20648L37.3609 5.07021L37.2651 4.45766L37.6445 4.39832L37.7193 4.87651L38.3124 4.55296C38.4324 5.31964 38.4889 5.78449 38.4826 5.95146C38.4684 6.11967 38.3273 6.22677 38.0586 6.26881L38.0546 6.26943L37.8935 5.93834C37.9607 5.92784 38.0206 5.92252 38.0759 5.91386C38.1075 5.90892 38.1211 5.86631 38.1179 5.79393C38.1159 5.72947 38.0852 5.50754 38.0246 5.12025L37.778 5.25194L37.9789 6.53632L37.5995 6.59567L37.4197 5.44565L37.1697 5.58191L37.3249 6.57385C37.3533 6.75564 37.4229 6.83788 37.5375 6.81996L38.2646 6.70622C38.3437 6.69385 38.3953 6.66149 38.4286 6.61579C38.4653 6.56552 38.4719 6.42682 38.4531 6.20304L38.8261 6.25806C38.8443 6.60744 38.8172 6.82222 38.7408 6.903C38.671 6.97464 38.5534 7.02542 38.3874 7.05138L37.4785 7.19356C37.1979 7.23745 37.0305 7.07334 36.9724 6.70186L36.8259 5.76524L36.572 5.90212L36.5139 5.53064L36.7678 5.39376L36.6899 4.89582C36.6482 4.99141 36.6019 5.08368 36.5577 5.16346L36.2422 4.88082C36.423 4.56105 36.5582 4.13099 36.6477 3.59066L37.0486 3.61702C37.0264 3.73386 37.0075 3.84612 36.9841 3.95506L38.3238 3.7455L38.3838 4.12884L36.882 4.36374Z" fill="white"/>
<path d="M40.2008 3.2549L42.144 2.94322L42.2092 3.35002L40.2661 3.6617L40.2008 3.2549ZM40.2631 4.24959L42.4709 3.89546L42.5362 4.30226L41.9279 4.39982L42.1934 6.05467C42.2352 6.31533 42.1099 6.46911 41.8177 6.51599L41.245 6.60784L41.0895 6.21956C41.2738 6.20622 41.4494 6.1902 41.6153 6.16359C41.722 6.14648 41.7709 6.09812 41.7582 6.01913L41.5093 4.46697L40.3284 4.65639L40.2631 4.24959ZM39.4838 3.1795L39.8875 3.29705C39.7472 3.76112 39.4506 4.20977 38.9975 4.643L38.8046 4.24858C39.1334 3.92441 39.3598 3.56805 39.4838 3.1795ZM39.8151 4.05812L40.2143 4.17235C40.1445 4.39419 40.0459 4.61258 39.9183 4.82749L40.2325 6.78645L39.8257 6.8517L39.5767 5.29954C39.4602 5.43167 39.3318 5.5657 39.1988 5.69641L39.0072 5.30988C39.4001 4.93086 39.669 4.51098 39.8151 4.05812Z" fill="white"/>
<path d="M44.269 5.23112L44.3323 5.61798C44.0088 5.82088 43.6374 6.00325 43.2095 6.16244L43.0896 5.77673C43.5491 5.61238 43.9409 5.43072 44.269 5.23112ZM43.1182 2.55787L43.5177 2.64651C43.4361 3.13815 43.3369 3.54755 43.2195 3.87074C43.3196 3.83815 43.4236 3.80492 43.523 3.76839C43.5635 3.61989 43.6028 3.4635 43.6447 3.29857L44.0259 3.374C43.8438 4.01988 43.6793 4.50076 43.533 4.82058C43.7391 4.74228 43.9426 4.64818 44.152 4.54096L44.2114 4.90413C43.8413 5.09439 43.4838 5.23801 43.1435 5.33827L42.9867 4.99915C43.0486 4.95659 43.102 4.91137 43.1423 4.8602C43.2249 4.72103 43.3157 4.48325 43.418 4.14225C43.2573 4.20096 43.0921 4.25637 42.9197 4.31702L42.7635 3.98184C42.8221 3.94387 42.8657 3.8881 42.9021 3.81325C43.0005 3.42424 43.0702 3.00753 43.1182 2.55787ZM44.9419 2.95256L44.4326 3.03588L44.5935 4.01881L45.1027 3.93549L44.9419 2.95256ZM45.1634 4.30655L44.6542 4.38988L44.8215 5.41228L45.3307 5.32896L45.1634 4.30655ZM45.7018 5.26824L46.1952 5.1875L46.0279 4.16509L45.5345 4.24584L45.7018 5.26824ZM45.4738 3.87477L45.9672 3.79403L45.8064 2.8111L45.3129 2.89184L45.4738 3.87477ZM46.2566 5.56251L44.8828 5.78729L44.919 6.00835L44.544 6.06972L43.9956 2.71829L46.1312 2.36884L46.6796 5.72027L46.2927 5.78357L46.2566 5.56251Z" fill="white"/>
<path d="M48.6024 1.79603L49.019 4.29757L48.6166 4.3646L48.2657 2.25762L47.2714 2.42321L47.6282 4.5657L47.2297 4.63207L46.8072 2.09501L48.6024 1.79603ZM48.5278 4.46454C48.8112 4.63226 49.0584 4.80195 49.2662 4.97821L49.0064 5.34183C48.8269 5.16492 48.5856 4.98208 48.2831 4.79725L48.5278 4.46454ZM47.6126 2.59751L48.0112 2.53114L48.2155 3.75824C48.2773 4.22646 48.245 4.61707 48.1213 4.92152C47.9944 5.20624 47.7556 5.45281 47.4084 5.65662L47.1139 5.3245C47.4466 5.13121 47.659 4.92146 47.7525 4.70315C47.838 4.46183 47.8584 4.17051 47.817 3.82461L47.6126 2.59751ZM48.9786 1.96047L49.3771 1.8941L49.7812 4.32068L49.3827 4.38705L48.9786 1.96047ZM50.292 5.09934L49.7475 5.19002L49.5865 4.80728C49.7627 4.79415 49.9297 4.77444 50.0836 4.74881C50.1941 4.73042 50.2401 4.66598 50.2224 4.55944L49.7125 1.49761L50.1228 1.42927L50.6505 4.59764C50.6978 4.88172 50.5761 5.05203 50.292 5.09934Z" fill="white"/>
<path d="M50.9529 1.25307L52.0814 2.95645L51.5772 4.93655L51.2119 4.84022L51.6752 3.0253L50.6398 1.46436L50.9529 1.25307ZM51.6391 1.13677L52.7676 2.84015L52.2634 4.82025L51.8982 4.72392L52.3614 2.909L51.3102 1.35074L51.6391 1.13677Z" fill="white"/>
<g clip-path="url(#clip0_253_4631)">
<path d="M4.03429 8.52989C4.01502 7.42549 3.1041 6.54582 1.99969 6.5651C0.895294 6.58438 0.0156274 7.4953 0.0349048 8.5997C0.0541822 9.7041 0.965103 10.5838 2.0695 10.5645C3.17391 10.5452 4.05357 9.63429 4.03429 8.52989Z" fill="white"/>
<path d="M2.72712 8.55266C2.73395 8.94387 2.42237 9.26654 2.03116 9.27336C1.63996 9.28019 1.31729 8.96859 1.31046 8.57739C1.30363 8.18619 1.61523 7.86352 2.00643 7.85669C2.39764 7.84986 2.72029 8.16146 2.72712 8.55266Z" fill="#485CC2"/>
<path fill-rule="evenodd" clip-rule="evenodd" d="M1.39363 8.23149C1.36089 8.36181 1.35658 8.62854 1.59169 8.70646C1.83102 8.78578 1.98189 8.64053 2.02741 8.55799C2.08004 8.48401 2.23255 8.35194 2.4215 8.41544C2.61047 8.47893 2.65995 8.62346 2.66107 8.6878L2.66404 8.85791C2.70629 8.765 2.72902 8.66149 2.72712 8.55266C2.7203 8.16146 2.39764 7.84986 2.00644 7.85669C1.74021 7.86134 1.51086 8.01225 1.39363 8.23149Z" fill="#D74B4B"/>
<path fill-rule="evenodd" clip-rule="evenodd" d="M0.525115 8.0349L0.925583 7.4412L1.01793 7.50349L0.61746 8.09719L0.525115 8.0349ZM0.686516 8.12751L1.08698 7.5338L1.17933 7.59609L0.77886 8.1898L0.686516 8.12751ZM1.23418 7.6241L0.833708 8.21781L0.926052 8.2801L1.32652 7.68639L1.23418 7.6241Z" fill="#333333"/>
<path fill-rule="evenodd" clip-rule="evenodd" d="M3.52467 7.98255L3.34229 7.73154L3.25147 7.79603L3.43456 8.04802L3.52467 7.98255ZM3.10372 7.40318L3.27682 7.64142L3.18599 7.70591L3.01362 7.46866L3.10372 7.40318ZM3.3666 8.08073L2.94566 7.50136L2.85554 7.56684L3.27648 8.1462L3.3666 8.08073ZM2.95946 8.00338L3.13254 8.24159L3.22265 8.17611L3.0503 7.93889L2.95946 8.00338ZM2.98482 7.84877L2.89399 7.91326L2.71158 7.66222L2.80171 7.59675L2.98482 7.84877Z" fill="#333333"/>
<path fill-rule="evenodd" clip-rule="evenodd" d="M3.37058 9.35197L3.54408 9.09475L3.45175 9.03245L3.27756 9.29068L3.37058 9.35197ZM3.3083 9.44432L3.14362 9.68845L3.05128 9.62616L3.21526 9.38303L3.3083 9.44432ZM2.97849 9.09365L3.14316 8.84954L3.23549 8.91184L3.07153 9.15494L2.97849 9.09365ZM3.00923 9.24729L2.91621 9.18601L2.74268 9.44326L2.83503 9.50554L3.00923 9.24729ZM3.38269 9.00214L3.21559 9.24986L3.12257 9.18857L3.29034 8.93985L3.38269 9.00214ZM2.98222 9.59585L3.15331 9.34221L3.06027 9.28092L2.88987 9.53355L2.98222 9.59585Z" fill="#333333"/>
<path fill-rule="evenodd" clip-rule="evenodd" d="M0.544532 9.14711L0.965475 9.72646L1.05559 9.661L0.634646 9.08162L0.544532 9.14711ZM0.846553 8.95354L1.2675 9.5329L1.35761 9.46743L0.936667 8.88806L0.846553 8.95354ZM0.702602 9.04892L0.878237 9.29065L0.969062 9.22616L0.792718 8.98345L0.702602 9.04892ZM1.12355 9.62829L0.943715 9.38077L1.03454 9.31628L1.21366 9.56281L1.12355 9.62829Z" fill="#333333"/>
</g>
<defs>
<clipPath id="clip0_253_4631">
<rect width="4" height="4" fill="white" transform="translate(0 6.60001) rotate(-1)"/>
</clipPath>
</defs>
</svg>
