<svg width="69" height="16" viewBox="0 0 69 16" fill="none" xmlns="http://www.w3.org/2000/svg">
<path d="M6.1135 10.2751L6.48534 10.4002L5.85606 12.1714L6.75735 13.8135L6.42768 13.9978L5.44552 12.2061L6.1135 10.2751ZM6.80703 10.2165L7.16293 10.3431L6.5496 12.1129L7.45088 13.7549L7.12122 13.9393L6.13906 12.1476L6.80703 10.2165Z" fill="white"/>
<path d="M9.17663 10.6884L7.85485 10.8168L7.81619 10.4186L10.8858 10.1206L10.9244 10.5187L9.59865 10.6474L9.82983 13.0282L11.3985 12.8759L11.4375 13.278L7.87426 13.624L7.83521 13.2219L9.40781 13.0692L9.17663 10.6884Z" fill="white"/>
<path d="M12.56 9.69686L12.9775 9.65085L13.3206 12.764L13.758 12.7158L13.4149 9.60265L13.8323 9.55664L14.1754 12.6698L15.3205 12.5436L15.3652 12.9491L11.8107 13.3409L11.766 12.9353L12.9031 12.81L12.56 9.69686ZM14.6189 10.2305L14.9961 10.2936C14.9199 10.9901 14.7948 11.6075 14.6203 12.1419L14.2321 12.0519C14.4039 11.5661 14.5299 10.9566 14.6189 10.2305ZM11.9298 10.5148C12.1869 11.0217 12.4329 11.6103 12.6633 12.2771L12.2957 12.4101C12.0921 11.8048 11.8594 11.2268 11.5891 10.6731L11.9298 10.5148Z" fill="white"/>
<path d="M15.9115 9.34624C16.1895 9.50464 16.4279 9.66805 16.6265 9.83648L16.3809 10.1578C16.2031 9.99481 15.9637 9.82346 15.6638 9.65169L15.9115 9.34624ZM15.526 10.54L16.4428 10.4242L16.6508 12.0711C16.7529 11.9533 16.8619 11.8267 16.9773 11.6871L17.1475 12.1091C16.9157 12.3803 16.6644 12.6257 16.3948 12.8533L16.189 12.5003C16.2489 12.4323 16.2751 12.3524 16.2641 12.2651L16.0881 10.8721L15.5762 10.9368L15.526 10.54ZM17.0069 10.8367L18.9435 10.592L18.9911 10.969C18.9231 11.3244 18.7782 11.6451 18.5558 11.9272C18.8219 12.0548 19.1371 12.1561 19.5058 12.2345L19.3287 12.6197C18.9197 12.5101 18.5683 12.3771 18.2818 12.2158C17.9999 12.4731 17.6449 12.6954 17.2091 12.8835L16.9348 12.5634C17.3285 12.3927 17.6547 12.1982 17.9173 11.9796C17.6313 11.7577 17.4176 11.5025 17.2833 11.205L17.057 11.2335L17.0069 10.8367ZM17.6722 11.1558C17.788 11.371 17.957 11.5593 18.1864 11.7158C18.3657 11.5077 18.4949 11.2857 18.577 11.0415L17.6722 11.1558ZM17.0827 9.26681L18.5114 9.08632L18.6152 9.90779C18.6262 9.9951 18.6798 10.0367 18.779 10.0242L19.1203 9.98105L19.168 10.3581L18.7156 10.4152C18.4179 10.4528 18.2535 10.3325 18.2185 10.0547L18.1518 9.52687L17.5406 9.60408L17.5542 9.71123C17.6063 10.1239 17.4326 10.4725 17.04 10.7478L16.7221 10.4655C17.0379 10.2845 17.1835 10.0645 17.1509 9.80652L17.0827 9.26681Z" fill="white"/>
<path d="M20.7329 9.81852L21.7538 9.66764L21.5842 8.52011L22.0116 8.45695L22.1812 9.60448L23.1506 9.4612L23.2115 9.87274L22.242 10.016L22.5554 12.137L22.1281 12.2001L21.8146 10.0792L20.7937 10.23L20.7329 9.81852ZM19.8715 8.80557C20.1495 8.96262 20.3918 9.12493 20.598 9.28855L20.3557 9.61952C20.1785 9.45972 19.9322 9.29799 19.6208 9.13375L19.8715 8.80557ZM19.4905 10.0304L20.4323 9.89125L20.6767 11.5453C20.7769 11.4294 20.8832 11.3005 20.9956 11.1585L21.165 11.5661C20.9429 11.8416 20.7015 12.0956 20.4367 12.3288L20.2235 11.9802C20.2859 11.9103 20.311 11.8339 20.2987 11.7508L20.0911 10.346L19.549 10.4261L19.4905 10.0304Z" fill="white"/>
<path d="M23.8326 9.85112C23.7601 9.99015 23.6829 10.1259 23.6017 10.2625L23.3847 9.8463C23.6676 9.34025 23.8386 8.7771 23.9043 8.14755L24.3101 8.25747C24.2745 8.5565 24.2099 8.85261 24.1227 9.1365L24.6026 11.8057L24.1971 11.8786L23.8326 9.85112ZM24.4763 8.18696L26.5353 7.81679L26.7795 9.17501L26.0078 9.31374L26.1034 9.84522L26.9774 9.68809L27.0453 10.066L26.1713 10.2232L26.3122 11.0066C26.4331 11.0011 26.5763 10.9835 26.7352 10.9631C26.9399 10.9263 27.1518 10.8841 27.3629 10.838L27.3582 11.2412L26.9921 11.307C26.4087 11.4078 26.0044 11.4196 25.7759 11.3469C25.5528 11.2813 25.3552 11.1543 25.1817 10.9579C25.1271 11.2644 25.0418 11.5357 24.9297 11.7713L24.6065 11.488C24.8005 11.0305 24.884 10.4546 24.856 9.75654L25.2578 9.75339C25.2637 10.0124 25.2582 10.2532 25.2428 10.4836C25.3212 10.6036 25.4133 10.7089 25.523 10.799C25.6359 10.8843 25.7596 10.9393 25.8876 10.9732L25.6023 9.38664L24.7205 9.54518L24.4763 8.18696ZM26.3139 8.86856L26.2056 8.26621L24.9458 8.49271L25.0541 9.09505L26.3139 8.86856Z" fill="white"/>
<path d="M27.4051 7.5401C27.7094 7.68289 27.9747 7.83474 28.201 7.99565L27.9759 8.35192C27.7825 8.19155 27.5193 8.031 27.1862 7.87027L27.4051 7.5401ZM30.4384 10.5348C30.228 10.5838 29.9972 10.6333 29.7509 10.6865C29.5006 10.7406 29.2926 10.7644 29.1199 10.7634C28.9532 10.7529 28.7999 10.6941 28.6561 10.588C28.59 10.5335 28.536 10.5132 28.4893 10.5241C28.4153 10.5413 28.3227 10.7435 28.2094 11.1395L27.8451 10.9326C27.9674 10.5756 28.0926 10.3371 28.2285 10.2151L27.9802 9.14761L27.466 9.26722L27.379 8.89321L28.2712 8.6857L28.6164 10.1701L28.6644 10.2C28.7737 10.2813 28.8814 10.3384 28.9828 10.3682C29.1094 10.4004 29.2842 10.3926 29.5119 10.3478C29.7349 10.3001 29.9969 10.2433 30.293 10.1744C30.4878 10.1291 30.6817 10.0799 30.8842 10.0328C31.0811 9.97877 31.2313 9.93564 31.3346 9.90338L31.3306 10.3273L30.4384 10.5348ZM28.3999 7.87958L28.8129 7.78353L28.6779 7.20303L29.0714 7.11151L29.2064 7.69201L29.6973 7.57784L29.5641 7.00513L29.9615 6.9127L30.0947 7.48542L30.5427 7.38121L30.6306 7.75912L30.1826 7.86333L30.3357 8.52176L30.9084 8.38856L30.9972 8.77036L30.4245 8.90357L30.6655 9.93991L30.2681 10.0323L30.0271 8.99599L29.4427 9.13191C29.436 9.59753 29.3173 9.9701 29.0827 10.2505L28.7621 9.98425C28.9302 9.78908 29.0237 9.53738 29.0414 9.22524L28.5934 9.32945L28.5046 8.94764L29.0305 8.82531C29.0171 8.69701 28.995 8.56663 28.9624 8.42638L28.9008 8.16145L28.4878 8.2575L28.3999 7.87958ZM29.2943 8.06993L29.3341 8.24135C29.374 8.41278 29.4004 8.57913 29.4201 8.7347L29.9383 8.61418L29.7852 7.95576L29.2943 8.06993Z" fill="white"/>
<path d="M32.9629 6.16016L33.3735 6.05445L33.5211 6.62776L34.474 6.38243L34.5747 6.77367L33.6218 7.019L33.7764 7.61942L34.83 7.34817L34.9317 7.74328L33.6767 8.06639C33.5951 8.61608 33.5001 9.03295 33.3992 9.315C33.7901 9.1648 34.176 8.99523 34.5541 8.81117C34.4054 8.63467 34.2616 8.47753 34.117 8.33302L34.4744 8.10059C34.7988 8.43012 35.102 8.78987 35.3862 9.18759L35.0466 9.45676C34.9623 9.33802 34.88 9.22703 34.8036 9.12279C34.2564 9.38759 33.6556 9.63724 32.9986 9.87662L32.8187 9.54705C32.8545 9.52545 32.8786 9.50685 32.895 9.49024C33.0198 9.30116 33.139 8.86569 33.2428 8.17809L32.4061 8.39349L32.3044 7.99838L33.3658 7.72513L33.2112 7.12471L32.3357 7.35009L32.235 6.95885L33.1105 6.73347L32.9629 6.16016ZM31.3187 6.60823C31.6164 6.73809 31.8745 6.87405 32.0977 7.01899L31.8858 7.38331C31.6917 7.23914 31.4288 7.10031 31.0999 6.96193L31.3187 6.60823ZM31.4552 7.53961C31.7336 7.67445 31.9771 7.81828 32.1897 7.97008L31.973 8.33152C31.7915 8.18824 31.547 8.04054 31.2403 7.89231L31.4552 7.53961ZM32.086 8.54611L32.4929 8.60244C32.451 9.12954 32.3828 9.6345 32.291 10.1125L31.8384 10.039C31.9553 9.54629 32.0371 9.04609 32.086 8.54611Z" fill="white"/>
<path d="M37.2035 8.06328C36.972 8.47513 36.5385 8.85709 35.9038 9.21302L35.5943 8.93006C36.2636 8.54854 36.6886 8.18122 36.8615 7.83014C36.8719 7.80674 36.8784 7.78436 36.8899 7.76484L35.4308 8.14591L35.3318 7.76664L37.0037 7.32997C37.0379 7.08124 37.0254 6.81165 36.9671 6.52509L36.8418 6.04519L37.2327 5.94309L37.358 6.423C37.4163 6.70956 37.4404 6.97611 37.4294 7.21878L38.633 6.90441L38.7321 7.28369L37.3659 7.64051L37.3473 7.71153C37.9321 7.78204 38.4824 7.89462 38.9953 8.05417L38.8629 8.46499C38.3029 8.26809 37.7514 8.13514 37.2035 8.06328ZM35.7096 6.88658C36.0089 6.92419 36.2948 6.99008 36.5597 7.08626L36.4346 7.46206C36.1481 7.34671 35.8679 7.27106 35.5862 7.23715L35.7096 6.88658ZM35.9639 6.24553C36.2544 6.28129 36.5315 6.34532 36.7964 6.4415L36.6714 6.81731C36.3888 6.70094 36.1134 6.62816 35.8405 6.59609L35.9639 6.24553ZM38.1517 5.1408L38.365 5.9574L37.9703 6.06051L37.854 5.61544L35.3694 6.26438L35.4856 6.70945L35.0909 6.81255L34.8776 5.99594L36.3211 5.61891C36.2562 5.5284 36.1942 5.44949 36.1294 5.37546L36.5253 5.19764C36.5952 5.29102 36.6642 5.39702 36.7353 5.51075L38.1517 5.1408Z" fill="white"/>
<path d="M38.8902 5.14048L39.4336 5.00481C39.3308 4.85732 39.227 4.72244 39.1135 4.59823L39.5113 4.42469C39.6122 4.56442 39.7179 4.72355 39.8294 4.90597L40.2796 4.79356L40.3765 5.18164L39.6275 5.36867L39.7331 5.79168L40.42 5.62016C40.6749 6.64082 40.8125 7.27436 40.8415 7.52273C40.8618 7.76915 40.7094 7.935 40.3873 8.01543C40.3563 8.02318 40.3039 8.02802 40.235 8.03285L40.0518 7.69519C40.1245 7.68939 40.1847 7.68262 40.2351 7.67002C40.371 7.6361 40.436 7.54978 40.4283 7.41978C40.4166 7.29074 40.3178 6.84542 40.1366 6.08672L39.8223 6.16521C40.0112 7.02093 40.0246 7.68548 39.8663 8.1579L39.4968 7.96571C39.6356 7.53112 39.6018 6.90052 39.3983 6.06905L39.2472 5.46364L38.9871 5.52856L38.8902 5.14048ZM40.9063 4.90918C40.8713 5.09932 40.8237 5.27199 40.7693 5.43399L41.1147 5.34774L41.2097 5.72807L41.4464 5.57L41.2962 4.96847L41.6688 4.87544L41.7861 5.34502L42.3479 4.96973C42.5359 5.72262 42.6337 6.18055 42.6424 6.34742C42.6433 6.51622 42.5123 6.63551 42.2484 6.70141L42.2446 6.70238L42.0545 6.38703C42.1205 6.37056 42.1797 6.3599 42.234 6.34633C42.265 6.33858 42.2747 6.29493 42.2651 6.22313C42.2573 6.1591 42.2069 5.94081 42.112 5.56048L41.8781 5.7137L42.1931 6.97498L41.8205 7.068L41.5385 5.93868L41.3018 6.09675L41.545 7.07084C41.5896 7.24936 41.6662 7.32505 41.7787 7.29695L42.4928 7.11864C42.5704 7.09926 42.6189 7.06241 42.6481 7.01391C42.6801 6.96056 42.6743 6.82183 42.6356 6.60062L43.012 6.62207C43.0613 6.96843 43.0535 7.18477 42.9846 7.27206C42.9215 7.34965 42.809 7.41074 42.646 7.45144L41.7534 7.67432C41.4779 7.74313 41.2965 7.59465 41.2054 7.22985L40.9757 6.31009L40.7351 6.46912L40.644 6.10432L40.8846 5.94529L40.7625 5.4563C40.7295 5.55525 40.6917 5.65128 40.6548 5.7347L40.3153 5.4814C40.4667 5.14674 40.5629 4.70633 40.6038 4.16015L41.0054 4.15056C40.9938 4.26891 40.985 4.38242 40.9714 4.49301L42.287 4.1645L42.381 4.54094L40.9063 4.90918Z" fill="white"/>
<path d="M44.2716 4.25642C44.5828 4.30928 44.8768 4.39472 45.1496 4.51364L45.018 4.87545C44.7221 4.74532 44.4281 4.65987 44.1343 4.6113L44.2716 4.25642ZM44.2401 5.89956C44.5188 5.93515 44.7923 5.98422 45.0567 6.04763C45.2434 5.82102 45.4292 5.55363 45.613 5.24156L43.4903 5.72004L43.4041 5.33764L46.038 4.74393L46.1154 5.08731C45.9417 5.4627 45.7267 5.81868 45.4657 6.15225C45.6537 6.20418 45.8387 6.26088 46.0177 6.32716L45.8744 6.72848C45.278 6.50208 44.6827 6.35333 44.0925 6.28137L44.2401 5.89956ZM44.2181 3.34591L44.4912 3.28434C45.0929 3.69815 45.7472 3.98121 46.4471 4.13918L46.3259 4.54782C45.6234 4.37814 44.9974 4.09282 44.44 3.69362C44.145 4.27676 43.7062 4.82259 43.1238 5.33111L42.8382 5.01005C43.432 4.51538 43.8893 3.96125 44.2181 3.34591Z" fill="white"/>
<path d="M46.8536 2.70837L48.0117 4.39174L47.5422 6.38036L47.1753 6.29044L47.6068 4.46768L46.5442 2.9251L46.8536 2.70837ZM47.5376 2.58008L48.6958 4.26345L48.2263 6.25207L47.8594 6.16215L48.2908 4.3394L47.2126 2.79976L47.5376 2.58008Z" fill="white"/>
<path d="M51.4064 1.91297L51.7823 1.85729C51.6565 2.15493 51.5704 2.44671 51.5237 2.73262C51.4554 3.09049 51.451 3.44294 51.502 3.78718C51.5524 4.12747 51.6588 4.46351 51.8285 4.79017C51.9554 5.04634 52.1225 5.30061 52.3297 5.55297L51.9538 5.60865C51.7252 5.37563 51.5429 5.12767 51.399 4.86593C51.2271 4.55172 51.1161 4.21231 51.0634 3.8562C51.0095 3.49217 51.0178 3.13913 51.0913 2.78859C51.152 2.48846 51.2545 2.1983 51.4064 1.91297Z" fill="white"/>
<path d="M53.624 2.07831L53.9737 2.03829L54.2984 4.87577L53.8335 4.92898L53.5729 2.65184C53.4197 2.82639 53.2183 2.9662 52.9647 3.07172L52.9119 2.61073C53.0354 2.56438 53.1642 2.49328 53.2982 2.39743C53.4312 2.29363 53.54 2.18858 53.624 2.07831Z" fill="white"/>
<path d="M56.0883 1.79994C56.4196 1.7785 56.6878 1.89742 56.8935 2.1647C57.0862 2.41678 57.197 2.76635 57.2259 3.21342C57.2549 3.66048 57.19 4.02142 57.0314 4.29624C56.8617 4.5838 56.6112 4.7403 56.2799 4.76174C55.9446 4.78344 55.6761 4.66052 55.4747 4.39698C55.282 4.1449 55.1712 3.79532 55.1423 3.34826C55.1134 2.90119 55.1782 2.54025 55.3368 2.26544C55.5023 1.97414 55.753 1.82163 56.0883 1.79994ZM56.1138 2.19511C55.8863 2.20983 55.7347 2.34391 55.6594 2.60531C55.6066 2.78109 55.5899 3.01866 55.6093 3.31804C55.6284 3.61342 55.6756 3.84686 55.7508 4.01836C55.8589 4.26389 56.0268 4.38129 56.2544 4.36657C56.4779 4.3521 56.6293 4.21404 56.7088 3.95636C56.7613 3.7766 56.778 3.53902 56.7589 3.24364C56.7395 2.94427 56.6924 2.71083 56.6174 2.54332C56.505 2.29405 56.3374 2.18064 56.1138 2.19511Z" fill="white"/>
<path d="M59.0783 2.808L59.0621 3.39978L60.6415 3.44304L60.6577 2.85127L59.0783 2.808ZM60.6684 2.46341L60.6837 1.90362L59.1043 1.86035L59.089 2.42014L60.6684 2.46341ZM59.0275 3.78697C58.9577 4.28925 58.7942 4.70893 58.537 5.04201L58.2251 4.74136C58.4825 4.40028 58.6187 3.95584 58.6416 3.41226L58.6954 1.449L61.1185 1.51538L61.0326 4.65021C61.0254 4.91411 60.8858 5.04233 60.6139 5.03489L60.1021 5.02086L60.0013 4.60995C60.1769 4.62677 60.3407 4.63925 60.4886 4.64331C60.5686 4.6455 60.6101 4.59061 60.6129 4.48665L60.6309 3.8309L59.0275 3.78697Z" fill="white"/>
<path d="M63.6003 1.48331L64.0018 1.55585L63.8219 2.55172L63.9951 2.58302L63.9218 2.98845L63.0558 2.83199L63.0331 2.95795C63.0139 3.06423 62.9915 3.16586 62.9697 3.26355L63.7216 3.39939L63.462 4.83613C63.7217 4.50097 63.9165 4.00775 64.0489 3.36505L64.3227 1.84958C64.9507 1.95086 65.5246 1.96919 66.049 1.90135L66.1797 2.30298C65.7068 2.35574 65.1887 2.34343 64.6334 2.26748L64.5452 2.75557L65.974 3.01374L65.9107 3.36407C65.7317 3.86014 65.4992 4.26932 65.2062 4.58627C65.3381 4.84587 65.5194 5.05747 65.7453 5.2243L65.4745 5.55339C65.2324 5.36332 65.0376 5.13707 64.8945 4.8714C64.6486 5.06272 64.379 5.20506 64.0764 5.30485L63.9504 4.89999C64.2404 4.802 64.4975 4.66147 64.717 4.48163C64.5867 4.10039 64.5283 3.65896 64.5463 3.15413L64.4755 3.14133L64.4228 3.43261C64.2684 4.19734 64.0197 4.7865 63.6813 5.19688L63.4598 4.84794L63.4058 5.1471L63.0043 5.07455L63.2497 3.71654L62.8796 3.64969C62.73 4.20798 62.5441 4.62963 62.3311 4.90821L62.0692 4.58043C62.2921 4.24674 62.4801 3.67911 62.6277 2.88469L62.8901 1.43221L63.2955 1.50547L63.1291 2.42655L63.4204 2.47918L63.6003 1.48331ZM64.9163 3.22098C64.9181 3.57088 64.9593 3.88317 65.039 4.16178C65.2369 3.92114 65.3926 3.64442 65.5107 3.32837L64.9163 3.22098ZM66.6355 1.9626L67.0094 2.03016C67.1482 2.31945 67.2455 2.61343 67.2966 2.91533C67.3549 3.26731 67.356 3.62115 67.2906 3.98328C67.2266 4.33755 67.101 4.67256 66.9232 4.98187C66.7711 5.23891 66.5771 5.48027 66.3451 5.70663L65.9712 5.63907C66.1824 5.39269 66.3574 5.14385 66.4963 4.89254C66.6723 4.57071 66.7932 4.23892 66.8544 3.9004C66.9163 3.55795 66.9191 3.20482 66.8661 2.84568C66.8247 2.55772 66.7478 2.26336 66.6355 1.9626Z" fill="white"/>
<g clip-path="url(#clip0_253_4622)">
<path d="M4.63439 12.4207C4.61511 11.3163 3.70419 10.4367 2.59979 10.4559C1.49539 10.4752 0.615725 11.3861 0.635002 12.4905C0.65428 13.5949 1.5652 14.4746 2.6696 14.4553C3.774 14.4361 4.65367 13.5251 4.63439 12.4207Z" fill="white"/>
<path d="M3.32722 12.4435C3.33405 12.8347 3.02247 13.1574 2.63126 13.1642C2.24005 13.171 1.91739 12.8594 1.91056 12.4682C1.90373 12.077 2.21532 11.7544 2.60653 11.7475C2.99774 11.7407 3.32039 12.0523 3.32722 12.4435Z" fill="#485CC2"/>
<path fill-rule="evenodd" clip-rule="evenodd" d="M1.99373 12.1223C1.96099 12.2526 1.95667 12.5194 2.19179 12.5973C2.43112 12.6766 2.58199 12.5314 2.62751 12.4488C2.68014 12.3748 2.83264 12.2428 3.0216 12.3063C3.21057 12.3698 3.26005 12.5143 3.26117 12.5786L3.26414 12.7487C3.30639 12.6558 3.32912 12.5523 3.32722 12.4435C3.32039 12.0523 2.99774 11.7407 2.60653 11.7475C2.34031 11.7522 2.11096 11.9031 1.99373 12.1223Z" fill="#D74B4B"/>
<path fill-rule="evenodd" clip-rule="evenodd" d="M1.12521 11.9257L1.52568 11.332L1.61803 11.3943L1.21756 11.988L1.12521 11.9257ZM1.28661 12.0183L1.68708 11.4246L1.77943 11.4869L1.37896 12.0806L1.28661 12.0183ZM1.83427 11.5149L1.43381 12.1086L1.52615 12.1709L1.92662 11.5772L1.83427 11.5149Z" fill="#333333"/>
<path fill-rule="evenodd" clip-rule="evenodd" d="M4.12476 11.8734L3.94239 11.6224L3.85157 11.6869L4.03466 11.9389L4.12476 11.8734ZM3.70382 11.294L3.87692 11.5323L3.78608 11.5967L3.61372 11.3595L3.70382 11.294ZM3.9667 11.9716L3.54576 11.3922L3.45564 11.4577L3.87658 12.037L3.9667 11.9716ZM3.55956 11.8942L3.73264 12.1324L3.82275 12.0669L3.6504 11.8297L3.55956 11.8942ZM3.58491 11.7396L3.49409 11.8041L3.31168 11.5531L3.4018 11.4876L3.58491 11.7396Z" fill="#333333"/>
<path fill-rule="evenodd" clip-rule="evenodd" d="M3.97068 13.2428L4.14418 12.9856L4.05184 12.9233L3.87766 13.1815L3.97068 13.2428ZM3.90839 13.3352L3.74371 13.5793L3.65138 13.517L3.81536 13.2739L3.90839 13.3352ZM3.57859 12.9845L3.74326 12.7404L3.83559 12.8027L3.67162 13.0458L3.57859 12.9845ZM3.60933 13.1381L3.51631 13.0768L3.34277 13.3341L3.43512 13.3964L3.60933 13.1381ZM3.98279 12.893L3.81569 13.1407L3.72267 13.0794L3.89044 12.8307L3.98279 12.893ZM3.58232 13.4867L3.75341 13.233L3.66037 13.1718L3.48997 13.4244L3.58232 13.4867Z" fill="#333333"/>
<path fill-rule="evenodd" clip-rule="evenodd" d="M1.14463 13.0379L1.56557 13.6173L1.65569 13.5518L1.23474 12.9725L1.14463 13.0379ZM1.44665 12.8444L1.86759 13.4237L1.95771 13.3583L1.53676 12.7789L1.44665 12.8444ZM1.3027 12.9398L1.47834 13.1815L1.56916 13.117L1.39282 12.8743L1.3027 12.9398ZM1.72365 13.5191L1.54381 13.2716L1.63464 13.2071L1.81376 13.4536L1.72365 13.5191Z" fill="#333333"/>
</g>
<defs>
<clipPath id="clip0_253_4622">
<rect width="4" height="4" fill="white" transform="translate(0.600098 10.4908) rotate(-1)"/>
</clipPath>
</defs>
</svg>
