<svg width="40" height="9" viewBox="0 0 40 9" fill="none" xmlns="http://www.w3.org/2000/svg">
<path d="M5.76165 3.01181L6.13165 3.14232L5.47696 4.90428L6.35454 6.55909L6.02226 6.73871L5.06597 4.93302L5.76165 3.01181ZM6.45595 2.96326L6.80999 3.09488L6.17127 4.85573L7.04884 6.51054L6.71656 6.69016L5.76027 4.88447L6.45595 2.96326ZM8.87443 3.48783L7.54967 3.58047L7.52177 3.18144L10.5983 2.96632L10.6262 3.36534L9.2974 3.45826L9.46426 5.84443L11.0364 5.73449L11.0646 6.13751L7.49332 6.38724L7.46514 5.98422L9.04129 5.87401L8.87443 3.48783ZM12.3848 2.59679L12.8038 2.56749L13.0223 5.69186L13.4612 5.66117L13.2427 2.5368L13.6617 2.5075L13.8802 5.63187L15.0294 5.55151L15.0578 5.95852L11.4906 6.20797L11.4621 5.80096L12.6033 5.72116L12.3848 2.59679ZM14.4207 3.21227L14.7951 3.29035C14.6912 3.98329 14.5415 4.59522 14.3458 5.12215L13.9615 5.0167C14.1526 4.53821 14.3028 3.93426 14.4207 3.21227ZM11.7225 3.38892C11.9591 3.90568 12.1813 4.50363 12.385 5.17907L12.0123 5.29735C11.8331 4.68436 11.6237 4.09754 11.3757 3.53346L11.7225 3.38892ZM15.7107 2.39229C15.9794 2.56597 16.2083 2.74243 16.3973 2.92169L16.134 3.2288C15.9656 3.05613 15.7362 2.87168 15.4463 2.68344L15.7107 2.39229ZM15.2592 3.56264L16.181 3.49818L16.2968 5.15414C16.4052 5.0423 16.5211 4.92192 16.6441 4.78902L16.7905 5.21985C16.5439 5.47768 16.2794 5.7087 15.9975 5.92088L15.8117 5.55696C15.8753 5.49236 15.9059 5.41403 15.8998 5.32625L15.8019 3.92567L15.2871 3.96166L15.2592 3.56264ZM16.7212 3.94158L18.6684 3.80541L18.695 4.18449C18.6072 4.53546 18.4446 4.84756 18.2068 5.11681C18.4654 5.25912 18.7744 5.37785 19.1382 5.47672L18.9398 5.85146C18.5376 5.7192 18.1942 5.56679 17.9171 5.38968C17.6212 5.63091 17.2544 5.83299 16.8088 5.99647L16.5528 5.66152C16.9554 5.51307 17.2919 5.33716 17.5664 5.13352C17.2932 4.896 17.0941 4.62924 16.9765 4.3247L16.7491 4.3406L16.7212 3.94158ZM17.3676 4.29735C17.4713 4.51866 17.6294 4.71611 17.8498 4.88515C18.0404 4.68737 18.1818 4.47298 18.2774 4.23373L17.3676 4.29735ZM16.8846 2.37837L18.321 2.27792L18.3788 3.10391C18.3849 3.19169 18.4362 3.23623 18.5359 3.22925L18.8791 3.20526L18.9056 3.58433L18.4507 3.61614C18.1514 3.63707 17.994 3.50773 17.9745 3.22841L17.9374 2.69771L17.3229 2.74068L17.3304 2.84842C17.3594 3.2634 17.1666 3.60168 16.7592 3.85471L16.4576 3.55502C16.783 3.39193 16.9406 3.18041 16.9225 2.92105L16.8846 2.37837ZM20.5039 3.1598L21.5334 3.08782L21.4524 1.93064L21.8834 1.90051L21.9643 3.05768L22.9419 2.98932L22.9709 3.40431L21.9933 3.47267L22.1429 5.61145L21.7119 5.64158L21.5624 3.5028L20.5329 3.57479L20.5039 3.1598ZM19.7229 2.08366C19.988 2.26161 20.2171 2.44206 20.4101 2.62104L20.1431 2.93242C19.9787 2.75947 19.7455 2.57929 19.4477 2.39161L19.7229 2.08366ZM19.2489 3.27563L20.1986 3.20922L20.3152 4.87715C20.424 4.7693 20.5398 4.64892 20.6629 4.51602L20.8005 4.93544C20.5578 5.19299 20.2976 5.42772 20.0157 5.6399L19.8299 5.27598C19.8975 5.2111 19.9284 5.13677 19.9225 5.05297L19.8235 3.63643L19.2768 3.67466L19.2489 3.27563ZM23.6748 3.43528C23.5877 3.56568 23.4963 3.69236 23.4009 3.81932L23.23 3.38218C23.5659 2.9096 23.7967 2.36818 23.9298 1.74939L24.3215 1.90244C24.2538 2.19588 24.1576 2.48329 24.0403 2.75613L24.2295 5.46152L23.8185 5.49026L23.6748 3.43528ZM24.4943 1.85026L26.5812 1.70433L26.6774 3.08097L25.8953 3.13566L25.933 3.67434L26.8188 3.6124L26.8456 3.99546L25.9598 4.05741L26.0153 4.85147C26.1361 4.85906 26.2803 4.85699 26.4405 4.85381C26.648 4.8393 26.8632 4.82025 27.0781 4.7972L27.0299 5.19754L26.6588 5.22348C26.068 5.26079 25.6648 5.22884 25.4455 5.1319C25.2307 5.04266 25.048 4.89505 24.8967 4.68108C24.8093 4.97991 24.6952 5.2405 24.5584 5.46259L24.2676 5.1461C24.5099 4.71214 24.655 4.14865 24.7025 3.45164L25.1022 3.49185C25.0802 3.75001 25.0488 3.98879 25.0085 4.21615C25.0736 4.34392 25.1538 4.45861 25.2531 4.55993C25.3561 4.65698 25.4732 4.72498 25.5968 4.77247L25.4843 3.1644L24.5905 3.2269L24.4943 1.85026ZM26.2476 2.72609L26.2049 2.11558L24.928 2.20486L24.9707 2.81537L26.2476 2.72609ZM27.5524 1.54419C27.8302 1.73327 28.0682 1.92514 28.2662 2.1198L27.9876 2.436C27.822 2.24709 27.5875 2.04697 27.284 1.83562L27.5524 1.54419ZM30.0742 4.98065C29.8587 4.99572 29.623 5.00819 29.3714 5.02178C29.1157 5.03564 28.9065 5.02621 28.7362 4.99803C28.5732 4.96131 28.4311 4.87902 28.3059 4.75144C28.2493 4.68723 28.1992 4.65866 28.1513 4.66201C28.0755 4.66731 27.9521 4.85237 27.7777 5.22544L27.4506 4.96362C27.6278 4.63045 27.7892 4.41467 27.9426 4.31572L27.8662 3.22239L27.3395 3.25922L27.3127 2.87616L28.2264 2.81226L28.3328 4.33255L28.3755 4.36966C28.4705 4.46727 28.5678 4.54065 28.6633 4.58611C28.7832 4.63787 28.957 4.6578 29.189 4.64959C29.4167 4.63768 29.6843 4.62298 29.9876 4.60177C30.1871 4.58782 30.3863 4.56988 30.5938 4.55537C30.7968 4.53316 30.9518 4.51429 31.059 4.49878L30.988 4.91675L30.0742 4.98065ZM28.481 2.03662L28.9039 2.00704L28.8624 1.41249L29.2654 1.38431L29.3069 1.97886L29.8097 1.9437L29.7687 1.35713L30.1757 1.32867L30.2167 1.91524L30.6756 1.88315L30.7027 2.27021L30.2438 2.30229L30.2909 2.97665L30.8775 2.93563L30.9049 3.32668L30.3183 3.36769L30.3925 4.4291L29.9855 4.45756L29.9113 3.39615L29.3127 3.43801C29.2325 3.89672 29.0565 4.24585 28.7805 4.48569L28.506 4.17207C28.7029 4.00593 28.8349 3.77215 28.9017 3.46675L28.4429 3.49884L28.4155 3.10779L28.9542 3.07012C28.9612 2.94132 28.96 2.80908 28.95 2.66543L28.931 2.39409L28.508 2.42367L28.481 2.03662ZM29.334 2.36591L29.3463 2.54148C29.3586 2.71705 29.3583 2.88548 29.3532 3.04222L29.8839 3.00511L29.8368 2.33076L29.334 2.36591ZM33.2408 1.12236L33.6638 1.09278L33.705 1.68334L34.6866 1.6147L34.7148 2.01772L33.7332 2.08636L33.7765 2.70485L34.8618 2.62895L34.8903 3.03596L33.5974 3.12636C33.4177 3.65218 33.2487 4.04493 33.0984 4.30404C33.51 4.22714 33.9203 4.13029 34.3254 4.01775C34.2111 3.81724 34.0983 3.63667 33.9822 3.46835L34.3758 3.3045C34.6351 3.68735 34.8682 4.09608 35.0756 4.53869L34.6928 4.74189C34.6314 4.60985 34.5706 4.48579 34.5144 4.36943C33.9282 4.53071 33.2922 4.66741 32.6026 4.78379L32.4855 4.4271C32.5245 4.41234 32.5516 4.39841 32.5707 4.38505C32.7277 4.2217 32.9238 3.81503 33.1505 3.15761L32.2886 3.21788L32.2602 2.81088L33.3535 2.73442L33.3103 2.11593L32.4085 2.17899L32.3803 1.77598L33.2821 1.71292L33.2408 1.12236ZM31.5426 1.26517C31.8119 1.44682 32.0411 1.62728 32.2343 1.81024L31.96 2.13016C31.7952 1.95322 31.5618 1.76906 31.2634 1.57339L31.5426 1.26517ZM31.5081 2.20586C31.7575 2.38891 31.971 2.57447 32.1525 2.76227L31.8739 3.07847C31.7214 2.90469 31.5077 2.71514 31.233 2.51381L31.5081 2.20586ZM31.9462 3.30999L32.3362 3.43911C32.1995 3.94989 32.0409 4.43413 31.8641 4.88757L31.4323 4.73331C31.6364 4.26994 31.8076 3.79284 31.9462 3.30999ZM35.5529 0.928603L36.5092 2.73429L35.8135 4.6555L35.4595 4.52388L36.0982 2.76303L35.2206 1.10822L35.5529 0.928603ZM36.2472 0.880053L37.2035 2.68574L36.5078 4.60695L36.1538 4.47533L36.7925 2.71448L35.899 1.06079L36.2472 0.880053Z" fill="white"/>
<g clip-path="url(#clip0_253_4595)">
<path d="M4.03429 4.92989C4.01502 3.82548 3.1041 2.94582 1.99969 2.9651C0.895294 2.98437 0.0156274 3.89529 0.0349048 4.99969C0.0541822 6.1041 0.965103 6.98376 2.0695 6.96448C3.17391 6.94521 4.05357 6.03429 4.03429 4.92989Z" fill="white"/>
<path d="M2.72712 4.95265C2.73395 5.34386 2.42237 5.66653 2.03116 5.67336C1.63996 5.68019 1.31729 5.36859 1.31046 4.97738C1.30363 4.58618 1.61523 4.26351 2.00643 4.25668C2.39764 4.24985 2.72029 4.56145 2.72712 4.95265Z" fill="#485CC2"/>
<path fill-rule="evenodd" clip-rule="evenodd" d="M1.39363 4.63148C1.36089 4.7618 1.35658 5.02853 1.59169 5.10646C1.83102 5.18578 1.98189 5.04052 2.02741 4.95798C2.08004 4.884 2.23255 4.75194 2.4215 4.81543C2.61047 4.87893 2.65995 5.02345 2.66107 5.08779L2.66404 5.2579C2.70629 5.165 2.72902 5.06149 2.72712 4.95265C2.7203 4.56145 2.39764 4.24985 2.00644 4.25668C1.74021 4.26133 1.51086 4.41224 1.39363 4.63148Z" fill="#D74B4B"/>
<path fill-rule="evenodd" clip-rule="evenodd" d="M0.525115 4.4349L0.925583 3.84119L1.01793 3.90348L0.61746 4.49719L0.525115 4.4349ZM0.686516 4.5275L1.08698 3.9338L1.17933 3.99609L0.77886 4.58979L0.686516 4.5275ZM1.23418 4.0241L0.833708 4.6178L0.926052 4.68009L1.32652 4.08639L1.23418 4.0241Z" fill="#333333"/>
<path fill-rule="evenodd" clip-rule="evenodd" d="M3.52467 4.38254L3.34229 4.13153L3.25147 4.19602L3.43456 4.44802L3.52467 4.38254ZM3.10372 3.80318L3.27682 4.04141L3.18599 4.10591L3.01362 3.86865L3.10372 3.80318ZM3.3666 4.48072L2.94566 3.90136L2.85554 3.96683L3.27648 4.5462L3.3666 4.48072ZM2.95946 4.40338L3.13254 4.64158L3.22265 4.57611L3.0503 4.33888L2.95946 4.40338ZM2.98482 4.24876L2.89399 4.31326L2.71158 4.06221L2.80171 3.99674L2.98482 4.24876Z" fill="#333333"/>
<path fill-rule="evenodd" clip-rule="evenodd" d="M3.37058 5.75196L3.54408 5.49474L3.45175 5.43245L3.27756 5.69068L3.37058 5.75196ZM3.3083 5.84431L3.14362 6.08844L3.05128 6.02616L3.21526 5.78303L3.3083 5.84431ZM2.97849 5.49365L3.14316 5.24954L3.23549 5.31184L3.07153 5.55493L2.97849 5.49365ZM3.00923 5.64728L2.91621 5.586L2.74268 5.84325L2.83503 5.90553L3.00923 5.64728ZM3.38269 5.40213L3.21559 5.64985L3.12257 5.58856L3.29034 5.33985L3.38269 5.40213ZM2.98222 5.99584L3.15331 5.7422L3.06027 5.68092L2.88987 5.93354L2.98222 5.99584Z" fill="#333333"/>
<path fill-rule="evenodd" clip-rule="evenodd" d="M0.544532 5.5471L0.965475 6.12646L1.05559 6.06099L0.634646 5.48162L0.544532 5.5471ZM0.846553 5.35353L1.2675 5.93289L1.35761 5.86742L0.936667 5.28805L0.846553 5.35353ZM0.702602 5.44891L0.878237 5.69065L0.969062 5.62615L0.792718 5.38344L0.702602 5.44891ZM1.12355 6.02828L0.943715 5.78077L1.03454 5.71627L1.21366 5.9628L1.12355 6.02828Z" fill="#333333"/>
</g>
<defs>
<clipPath id="clip0_253_4595">
<rect width="4" height="4" fill="white" transform="translate(0 3) rotate(-1)"/>
</clipPath>
</defs>
</svg>
