<svg width="37" height="14" viewBox="0 0 37 14" fill="none" xmlns="http://www.w3.org/2000/svg">
<path d="M6.48504 3.92979L6.86472 4.02865L6.36088 5.83952L7.37481 7.41448L7.05885 7.62147L5.95377 5.9028L6.48504 3.92979ZM7.17278 3.82289L7.53666 3.92421L7.04862 5.73262L8.06255 7.30758L7.74659 7.51457L6.64151 5.7959L7.17278 3.82289Z" fill="white"/>
<path d="M8.48741 3.72523C8.76247 3.88876 8.99776 4.05657 9.19328 4.22865L8.94169 4.54536C8.76692 4.37909 8.53077 4.20333 8.23412 4.02603L8.48741 3.72523ZM8.07991 4.91159L8.99861 4.81281L9.17608 6.4633C9.28029 6.34749 9.39161 6.22288 9.5096 6.08547L9.67197 6.51055C9.43514 6.7774 9.17941 7.01812 8.90563 7.24066L8.70635 6.88392C8.76755 6.817 8.79522 6.73758 8.78581 6.65009L8.63571 5.25413L8.12267 5.3093L8.07991 4.91159ZM9.55502 5.23575L11.4958 5.02707L11.5365 5.40489C11.4619 5.75889 11.311 6.07684 11.0834 6.35477C11.3471 6.48734 11.6603 6.59446 12.0276 6.6797L11.8433 7.06158C11.4365 6.9444 11.0876 6.8049 10.8041 6.63825C10.5174 6.89035 10.1584 7.10596 9.71914 7.28595L9.45084 6.96077C9.84765 6.79742 10.1774 6.60908 10.4441 6.39535C10.1622 6.16818 9.95328 5.90903 9.82447 5.60908L9.59778 5.63346L9.55502 5.23575ZM10.2142 5.56718C10.3261 5.78446 10.4915 5.97587 10.718 6.13658C10.9011 5.93183 11.0344 5.71232 11.121 5.46968L10.2142 5.56718ZM9.65997 3.66754L11.0917 3.5136L11.1802 4.33685C11.1896 4.42435 11.2425 4.46694 11.3419 4.45625L11.684 4.41948L11.7246 4.7973L11.2712 4.84605C10.9729 4.87812 10.8108 4.75474 10.7809 4.47635L10.724 3.9474L10.1115 4.01325L10.1231 4.12063C10.1675 4.53425 9.98741 4.87948 9.58978 5.14753L9.27718 4.85929C9.59629 4.68418 9.74592 4.46693 9.71812 4.20842L9.65997 3.66754Z" fill="white"/>
<path d="M13.3756 4.38266L14.4063 4.33158L14.3489 3.173L14.7803 3.15161L14.8378 4.31019L15.8166 4.26168L15.8372 4.67718L14.8584 4.72568L14.9645 6.86705L14.533 6.88844L14.4269 4.74707L13.3962 4.79815L13.3756 4.38266ZM12.6166 3.29089C12.878 3.47417 13.1034 3.65924 13.2927 3.8421L13.0195 4.14799C12.8586 3.97174 12.6292 3.78687 12.3352 3.59318L12.6166 3.29089ZM12.1185 4.47299L13.0693 4.42587L13.1521 6.09582C13.263 5.9902 13.3813 5.8722 13.507 5.74182L13.6361 6.16395C13.3882 6.41652 13.1233 6.64592 12.8371 6.85234L12.6587 6.48472C12.7277 6.42123 12.7601 6.34753 12.7559 6.26363L12.6856 4.84538L12.1383 4.8725L12.1185 4.47299Z" fill="white"/>
<path d="M17.9716 3.11886C18.0786 3.32159 18.185 3.5483 18.2867 3.80291L19.5143 3.83347L19.5064 4.14937C19.0331 5.00186 18.3649 5.64543 17.5058 6.08019C17.6621 6.22812 17.8521 6.31288 18.0756 6.33445C18.2634 6.34712 18.5312 6.35779 18.8791 6.36645C19.091 6.37172 19.3832 6.36699 19.7595 6.36035L19.6453 6.76964L18.9335 6.75192C18.5776 6.74306 18.3218 6.73269 18.1699 6.72491C17.7303 6.70597 17.4054 6.57784 17.1874 6.33234C17.1017 6.23818 17.0348 6.19251 16.9789 6.19111C16.9029 6.18922 16.7539 6.38957 16.5278 6.79207L16.2016 6.55189C16.4871 6.01482 16.7497 5.75327 16.9976 5.75944C17.0496 5.76074 17.0974 5.76993 17.1448 5.79512C17.1567 5.79941 17.1686 5.80371 17.1764 5.81191C17.9543 5.42314 18.5596 4.89404 18.9923 4.2286L16.5131 4.1669L16.5232 3.75902L17.8228 3.79137C17.7241 3.57685 17.6131 3.37402 17.4858 3.18679L17.9716 3.11886Z" fill="white"/>
<path d="M22.8084 3.6825L24.174 3.88163L24.129 4.19036C23.9513 4.57678 23.7665 4.9298 23.5743 5.24942C23.8067 5.67945 23.9064 6.02142 23.8746 6.2674C23.8388 6.5128 23.7625 6.6755 23.6463 6.75153C23.5217 6.83036 23.2965 6.85007 22.964 6.80159L22.9058 6.36867C23.05 6.40586 23.171 6.43563 23.2739 6.45063C23.3457 6.45706 23.3921 6.44362 23.4165 6.41484C23.437 6.38549 23.4587 6.31993 23.4788 6.20968C23.5106 5.9637 23.4024 5.62454 23.1508 5.18766C23.3202 4.91323 23.4937 4.5828 23.6792 4.19754L23.1528 4.12078L22.6945 7.26354L22.2947 7.20525L22.8084 3.6825ZM20.8472 3.68756L21.3696 3.76374L21.4297 3.3521L21.8334 3.41097L21.7734 3.82262L22.1494 3.87745L22.1055 4.17827C22.2236 4.03379 22.3276 3.87514 22.4203 3.71079L22.7461 3.91595C22.5874 4.20003 22.4057 4.44841 22.2042 4.66561L22.5328 4.71352L22.4785 5.08558L21.8492 4.99381C21.7443 5.07553 21.636 5.15272 21.5204 5.22479L22.2804 5.33561L22.0131 7.16822L21.6213 7.11108L21.6409 6.97651L20.9641 6.87781L20.9439 7.01634L20.548 6.95863L20.7477 5.58911C20.6543 5.61995 20.5609 5.65079 20.468 5.67768L20.2965 5.32928C20.6622 5.23304 20.9936 5.09541 21.2871 4.91185L20.4994 4.79699L20.5537 4.42493L21.2582 4.52767L21.316 4.13185L20.7935 4.05566L20.8472 3.68756ZM21.7134 4.59404C21.8348 4.48239 21.9489 4.36562 22.0561 4.23978L21.7197 4.19072L21.662 4.58654L21.7134 4.59404ZM21.0639 6.19305L21.0172 6.51366L21.694 6.61236L21.7407 6.29175L21.0639 6.19305ZM21.7915 5.94343L21.8377 5.62678L21.1609 5.52808L21.1147 5.84474L21.7915 5.94343Z" fill="white"/>
<path d="M27.5724 5.6665L27.0475 8.1394L26.6406 8.05302L26.6696 7.91608L24.7837 7.51573L24.7546 7.65268L24.3476 7.5663L24.8726 5.0934L25.933 5.31849C25.9733 5.22482 26.0097 5.13032 26.0414 5.03891L24.5349 4.71913L24.618 4.32785L25.5375 4.52304C25.5093 4.3862 25.4747 4.26027 25.4314 4.13659L25.8629 4.06871C25.9113 4.22618 25.946 4.40939 25.9718 4.61523L26.7466 4.77969C26.8589 4.63588 26.965 4.48258 27.0658 4.31588L27.4381 4.5462C27.359 4.66844 27.2785 4.77811 27.2005 4.87604L28.1161 5.07039L28.033 5.46168L26.4757 5.1311C26.4393 5.2256 26.3989 5.31927 26.3555 5.40819L27.5724 5.6665ZM24.8617 7.14793L26.7477 7.54827L26.8125 7.24307L24.9265 6.84273L24.8617 7.14793ZM25.0013 6.49058L26.8872 6.89092L26.9504 6.59354L25.0644 6.1932L25.0013 6.49058ZM25.1391 5.84105L27.0251 6.24139L27.0874 5.94793L25.2014 5.54759L25.1391 5.84105Z" fill="white"/>
<path d="M30.9408 7.05237C31.1203 7.57494 31.2513 8.12671 31.3397 8.70086L30.9207 8.7783C30.8361 8.15562 30.7089 7.58833 30.5411 7.08514L30.9408 7.05237ZM29.4336 5.75134C29.1945 6.03411 28.9379 6.25482 28.6675 6.41443L28.4466 6.0753C28.8981 5.76691 29.266 5.3636 29.5445 4.87218L29.9067 5.07329C29.8371 5.1879 29.7684 5.29863 29.6968 5.40451L31.8166 5.9302L31.7512 6.1942C31.6294 6.45249 31.4931 6.70305 31.3403 6.95363L30.9644 6.74091C31.0757 6.5913 31.185 6.41647 31.2894 6.21157L29.4336 5.75134ZM29.345 8.66777L28.852 8.54549L28.8609 8.12734C29.0123 8.18138 29.157 8.22962 29.2967 8.26428C29.3899 8.28738 29.4509 8.2407 29.4789 8.12811L29.9651 6.1675L30.3766 6.26956L29.8644 8.335C29.7931 8.62229 29.6168 8.73516 29.345 8.66777ZM29.0956 6.58243L29.4027 6.83991C29.035 7.32567 28.6467 7.72804 28.2301 8.0451L27.9569 7.71771C28.3599 7.42202 28.7414 7.04682 29.0956 6.58243Z" fill="white"/>
<path d="M33.068 5.78775L33.3762 7.80767L32.0865 9.39252L31.7956 9.15163L32.9786 7.69943L32.6951 5.8479L33.068 5.78775ZM33.7395 5.9706L34.0477 7.99052L32.758 9.57537L32.4671 9.33448L33.6502 7.88228L33.3512 6.02655L33.7395 5.9706Z" fill="white"/>
<g clip-path="url(#clip0_253_4657)">
<path d="M5.18139 5.95616C4.89551 4.88923 3.79883 4.25607 2.7319 4.54195C1.66497 4.82783 1.0318 5.92451 1.31769 6.99144C1.60357 8.05837 2.70024 8.69154 3.76718 8.40565C4.83411 8.11977 5.46727 7.0231 5.18139 5.95616Z" fill="white"/>
<path d="M3.91855 6.29449C4.01982 6.67242 3.79555 7.06089 3.41762 7.16215C3.03968 7.26342 2.65122 7.03914 2.54995 6.6612C2.44869 6.28328 2.67296 5.89481 3.0509 5.79354C3.42883 5.69228 3.81729 5.91656 3.91855 6.29449Z" fill="#485CC2"/>
<path fill-rule="evenodd" clip-rule="evenodd" d="M2.54697 6.30546C2.54673 6.43983 2.60707 6.69968 2.85405 6.71841C3.10547 6.73747 3.21671 6.56003 3.24091 6.46893C3.27408 6.38442 3.39011 6.21938 3.58881 6.23528C3.78753 6.25117 3.8705 6.37944 3.88715 6.44159L3.93119 6.60593C3.94971 6.50557 3.94672 6.39963 3.91855 6.29449C3.81728 5.91656 3.42883 5.69227 3.0509 5.79354C2.7937 5.86246 2.60768 6.06437 2.54697 6.30546Z" fill="#D74B4B"/>
<path fill-rule="evenodd" clip-rule="evenodd" d="M1.6567 6.32482L1.90164 5.65188L2.00631 5.68997L1.76137 6.36292L1.6567 6.32482ZM1.83571 6.37563L2.08065 5.70268L2.18532 5.74078L1.94038 6.41373L1.83571 6.37563ZM2.24531 5.75469L2.00037 6.42764L2.10504 6.46574L2.34998 5.79279L2.24531 5.75469Z" fill="#333333"/>
<path fill-rule="evenodd" clip-rule="evenodd" d="M4.55449 5.54837L4.3168 5.34893L4.24428 5.43348L4.4829 5.6337L4.55449 5.54837ZM4.00589 5.08805L4.23148 5.27733L4.15894 5.36188L3.9343 5.17338L4.00589 5.08805ZM4.42487 5.68187L3.87628 5.22155L3.80467 5.30688L4.35327 5.7672L4.42487 5.68187ZM4.01111 5.70532L4.23668 5.89458L4.30827 5.80925L4.08365 5.62076L4.01111 5.70532ZM3.99831 5.54916L3.92579 5.63372L3.68806 5.43426L3.75967 5.34893L3.99831 5.54916Z" fill="#333333"/>
<path fill-rule="evenodd" clip-rule="evenodd" d="M4.73627 6.91439L4.84239 6.62284L4.73773 6.58473L4.63119 6.87743L4.73627 6.91439ZM4.69818 7.01906L4.59745 7.29578L4.49279 7.25769L4.59308 6.98211L4.69818 7.01906ZM4.29334 6.7586L4.39405 6.48191L4.49872 6.52002L4.39843 6.79556L4.29334 6.7586ZM4.36033 6.90024L4.25525 6.86328L4.1491 7.15487L4.25378 7.19296L4.36033 6.90024ZM4.66339 6.57202L4.56118 6.85281L4.4561 6.81584L4.55871 6.53393L4.66339 6.57202ZM4.41845 7.24498L4.52309 6.95748L4.41799 6.92052L4.31377 7.20687L4.41845 7.24498Z" fill="#333333"/>
<path fill-rule="evenodd" clip-rule="evenodd" d="M1.9446 7.39929L2.4932 7.85961L2.5648 7.77428L2.01619 7.31396L1.9446 7.39929ZM2.19082 7.13841L2.73942 7.59872L2.81102 7.5134L2.26242 7.05307L2.19082 7.13841ZM2.07422 7.26578L2.30312 7.45785L2.37564 7.3733L2.14582 7.18046L2.07422 7.26578ZM2.62282 7.72611L2.38845 7.52945L2.46098 7.4449L2.69442 7.64077L2.62282 7.72611Z" fill="#333333"/>
</g>
<defs>
<clipPath id="clip0_253_4657">
<rect width="4" height="4" fill="white" transform="translate(0.800049 5.05959) rotate(-15)"/>
</clipPath>
</defs>
</svg>
