<svg width="67" height="20" viewBox="0 0 67 20" fill="none" xmlns="http://www.w3.org/2000/svg">
<path d="M5.4823 8.66419L5.86775 8.7374L5.48631 10.5779L6.60343 12.0815L6.30204 12.3091L5.08435 10.6683L5.4823 8.66419ZM6.16134 8.51147L6.53118 8.58819L6.16535 10.4252L7.28247 11.9288L6.98108 12.1564L5.76339 10.5156L6.16134 8.51147Z" fill="white"/>
<path d="M8.64217 8.70194L7.3407 8.96607L7.26115 8.57406L10.2835 7.96067L10.3631 8.35267L9.0577 8.6176L9.53346 10.9618L11.078 10.6484L11.1583 11.0443L7.64985 11.7563L7.5695 11.3604L9.11793 11.0461L8.64217 8.70194Z" fill="white"/>
<path d="M12.0855 7.37257L12.4987 7.29706L13.0618 10.378L13.4947 10.2989L12.9315 7.21794L13.3447 7.14243L13.9078 10.2234L15.041 10.0163L15.1144 10.4176L11.5967 11.0606L11.5233 10.6592L12.6487 10.4535L12.0855 7.37257ZM14.1771 7.75881L14.5578 7.79495C14.5312 8.49513 14.4502 9.11987 14.3141 9.66524L13.9205 9.603C14.0574 9.10629 14.1398 8.48941 14.1771 7.75881ZM11.515 8.23319C11.8074 8.72056 12.0945 9.29022 12.3716 9.93896L12.0144 10.0978C11.7684 9.5084 11.4953 8.94839 11.1864 8.41524L11.515 8.23319Z" fill="white"/>
<path d="M15.4024 6.80787C15.6858 6.9565 15.9297 7.11153 16.1341 7.27295L15.8997 7.60262C15.7164 7.44591 15.4712 7.28298 15.1655 7.12174L15.4024 6.80787ZM15.0587 8.01427L15.9708 7.86665L16.236 9.50533C16.3339 9.38414 16.4384 9.25377 16.5489 9.11027L16.7337 9.52609C16.5115 9.80518 16.2689 10.0592 16.0074 10.296L15.7894 9.9504C15.8469 9.88031 15.8703 9.79953 15.8563 9.71266L15.632 8.3267L15.1226 8.40913L15.0587 8.01427ZM16.549 8.25933L18.4759 7.9475L18.5366 8.32262C18.481 8.68009 18.3473 9.00563 18.1349 9.29529C18.4052 9.41362 18.7238 9.50389 19.095 9.56943L18.9314 9.96059C18.5189 9.86527 18.163 9.74457 17.8711 9.59326C17.5982 9.86028 17.2512 10.0947 16.8222 10.2979L16.5369 9.98746C16.9245 9.80318 17.2437 9.59754 17.4986 9.36989C17.205 9.15808 16.9826 8.91043 16.838 8.61777L16.6129 8.6542L16.549 8.25933ZM17.2249 8.55515C17.3482 8.76616 17.5236 8.94849 17.7583 9.0969C17.9303 8.88267 18.0517 8.65637 18.1252 8.40945L17.2249 8.55515ZM16.5702 6.68776L17.9917 6.45772L18.124 7.27508C18.138 7.36195 18.1931 7.40167 18.2918 7.38569L18.6314 7.33074L18.6921 7.70586L18.242 7.77871C17.9458 7.82663 17.7773 7.71207 17.7326 7.43567L17.6476 6.9105L17.0395 7.00891L17.0568 7.11552C17.1232 7.52618 16.9618 7.88053 16.579 8.16938L16.2515 7.89823C16.5608 7.70635 16.6986 7.48144 16.6571 7.22478L16.5702 6.68776Z" fill="white"/>
<path d="M20.2328 7.17032L21.255 7.0285L21.0956 5.87951L21.5235 5.82014L21.6829 6.96914L22.6536 6.83447L22.7108 7.24652L21.7401 7.38119L22.0347 9.50485L21.6068 9.56422L21.3122 7.44056L20.2899 7.58237L20.2328 7.17032ZM19.3805 6.14976C19.657 6.30927 19.8979 6.47373 20.1026 6.63917L19.8574 6.96798C19.6816 6.80661 19.4367 6.6427 19.1268 6.4757L19.3805 6.14976ZM18.9886 7.3712L19.9315 7.24038L20.1613 8.89651C20.2625 8.78152 20.3699 8.65355 20.4836 8.51258L20.6494 8.92168C20.4248 9.19513 20.1811 9.44701 19.9143 9.67787L19.7042 9.32742C19.7673 9.25809 19.793 9.18183 19.7815 9.09863L19.5863 7.6921L19.0435 7.7674L18.9886 7.3712Z" fill="white"/>
<path d="M23.4967 7.23142C23.4151 7.36531 23.329 7.49567 23.239 7.62647L23.0501 7.19678C23.3661 6.7107 23.5743 6.16019 23.6817 5.53642L24.0794 5.67312C24.0239 5.96911 23.9397 6.26026 23.8338 6.53772L24.1348 9.23296L23.7254 9.27869L23.4967 7.23142ZM24.2498 5.61384L26.3289 5.38163L26.4821 6.7531L25.7029 6.84012L25.7629 7.37679L26.6454 7.27822L26.688 7.65985L25.8055 7.75841L25.8938 8.54949C26.0149 8.55208 26.1589 8.54404 26.3188 8.53423C26.5255 8.51115 26.7397 8.4832 26.9535 8.45127L26.9219 8.85326L26.5522 8.89455C25.9634 8.95628 25.5592 8.94105 25.3361 8.85328C25.1178 8.77301 24.9292 8.63309 24.7691 8.42557C24.6942 8.72775 24.591 8.99285 24.4635 9.22041L24.1598 8.91623C24.384 8.47261 24.5056 7.9036 24.5242 7.20522L24.9253 7.22884C24.9139 7.4877 24.8924 7.72757 24.8616 7.9564C24.9319 8.08137 25.0168 8.19264 25.1202 8.28976C25.2272 8.38246 25.3469 8.44556 25.4724 8.48789L25.2935 6.88585L24.403 6.98531L24.2498 5.61384ZM26.0379 6.41632L25.97 5.8081L24.6979 5.95018L24.7659 6.55839L26.0379 6.41632Z" fill="white"/>
<path d="M27.318 5.19304C27.5977 5.37942 27.8375 5.56899 28.0374 5.76172L27.7619 6.0806C27.5945 5.8933 27.358 5.69545 27.0525 5.48704L27.318 5.19304ZM29.8729 8.60498C29.6576 8.62213 29.4221 8.63688 29.1705 8.6529C28.915 8.66923 28.7058 8.66182 28.5351 8.63528C28.3718 8.60014 28.2289 8.51922 28.1025 8.39286C28.0453 8.3292 27.9949 8.30111 27.947 8.30493C27.8713 8.31096 27.7497 8.4972 27.5789 8.87194L27.2493 8.61329C27.4233 8.27842 27.5825 8.06109 27.735 7.96067L27.648 6.86813L27.1217 6.91004L27.0912 6.52725L28.0043 6.45454L28.1253 7.97373L28.1684 8.01043C28.2643 8.10711 28.3624 8.17956 28.4582 8.22409C28.5786 8.27469 28.7526 8.29294 28.9845 8.28249C29.2121 8.26838 29.4796 8.25109 29.7826 8.22696C29.982 8.21108 30.1811 8.19122 30.3884 8.17471C30.5911 8.15054 30.746 8.13018 30.853 8.11363L30.7861 8.53227L29.8729 8.60498ZM28.2513 5.67647L28.674 5.64281L28.6267 5.04869L29.0294 5.01662L29.0767 5.61074L29.5791 5.57073L29.5325 4.98459L29.9392 4.9522L29.9859 5.53834L30.4444 5.50183L30.4752 5.8886L30.0167 5.92512L30.0703 6.59898L30.6565 6.55231L30.6876 6.94307L30.1014 6.98975L30.1859 8.05039L29.7792 8.08278L29.6947 7.02214L29.0966 7.06977C29.0209 7.52923 28.8482 7.88005 28.5745 8.12254L28.297 7.81159C28.4923 7.64356 28.622 7.40851 28.6859 7.10247L28.2274 7.13899L28.1963 6.74823L28.7345 6.70536C28.7403 6.57649 28.7378 6.44428 28.7264 6.30073L28.7048 6.02959L28.2821 6.06325L28.2513 5.67647ZM29.1075 5.99752L29.1215 6.17296C29.1355 6.34841 29.1369 6.51683 29.1333 6.67361L29.6636 6.63137L29.6099 5.95751L29.1075 5.99752Z" fill="white"/>
<path d="M32.9932 4.80008L33.4169 4.78324L33.4404 5.37477L34.4236 5.33569L34.4397 5.73937L33.4564 5.77846L33.4811 6.39797L34.5682 6.35475L34.5844 6.76243L33.2894 6.81391C33.0939 7.33408 32.9132 7.72157 32.7552 7.97605C33.1689 7.91156 33.5819 7.82709 33.9903 7.72679C33.8821 7.52293 33.7747 7.33905 33.6638 7.16732L34.0621 7.01538C34.3098 7.40584 34.5304 7.82141 34.7244 8.27006L34.3357 8.46165C34.2784 8.32782 34.2213 8.20199 34.1686 8.08399C33.5778 8.22757 32.938 8.34508 32.2452 8.44067L32.1388 8.08061C32.1783 8.06703 32.2058 8.05393 32.2253 8.04114C32.3872 7.88259 32.5954 7.482 32.8418 6.8317L31.9785 6.86602L31.9623 6.45834L33.0574 6.41481L33.0328 5.7953L32.1295 5.83121L32.1134 5.42753L33.0167 5.39162L32.9932 4.80008ZM31.2915 4.89175C31.5553 5.08143 31.7789 5.26869 31.9665 5.45739L31.6827 5.76891C31.5233 5.58709 31.2955 5.39599 31.0032 5.19144L31.2915 4.89175ZM31.2288 5.83099C31.4725 6.02145 31.6803 6.21335 31.8561 6.40652L31.5681 6.7142C31.4209 6.53591 31.213 6.34002 30.9444 6.13052L31.2288 5.83099ZM31.6335 6.94779L32.0193 7.08858C31.8673 7.59501 31.6942 8.07427 31.5039 8.52218L31.0769 8.35501C31.2949 7.89799 31.4803 7.42625 31.6335 6.94779Z" fill="white"/>
<path d="M36.9608 7.65926C36.6278 7.99438 36.1081 8.24673 35.4014 8.4203L35.1786 8.06497C35.9255 7.87599 36.4331 7.63546 36.6935 7.34328C36.7098 7.32352 36.7221 7.3037 36.7383 7.28793L35.2305 7.26565L35.2363 6.87369L36.9641 6.89923C37.0635 6.66867 37.1234 6.40553 37.1437 6.1138L37.151 5.61785L37.555 5.62382L37.5477 6.11977C37.5273 6.4115 37.4794 6.67482 37.404 6.90573L38.6479 6.92411L38.6421 7.31607L37.2302 7.2952L37.1933 7.35867C37.7381 7.58274 38.2383 7.83816 38.6901 8.12887L38.4527 8.4894C37.9657 8.15017 37.4697 7.87481 36.9608 7.65926ZM35.8354 6.12646C36.1137 6.24259 36.3716 6.38242 36.6013 6.54583L36.3804 6.8746C36.1351 6.68696 35.8853 6.53925 35.6228 6.43136L35.8354 6.12646ZM36.2515 5.57655C36.5219 5.68856 36.7719 5.82427 37.0015 5.98768L36.7807 6.31645C36.5394 6.12887 36.2935 5.98522 36.039 5.88145L36.2515 5.57655ZM38.6549 5.09602L38.6424 5.93992L38.2345 5.9339L38.2413 5.47395L35.6735 5.436L35.6668 5.89595L35.2588 5.88992L35.2713 5.04601L36.7631 5.06806C36.7246 4.96348 36.686 4.8709 36.6433 4.78226L37.0723 4.71659C37.1147 4.82523 37.153 4.94581 37.1911 5.07438L38.6549 5.09602Z" fill="white"/>
<path d="M39.3232 5.30015L39.8808 5.35205C39.8327 5.17884 39.7794 5.01721 39.7135 4.86243L40.1463 4.83041C40.1952 4.99565 40.2423 5.18081 40.2871 5.38986L40.7491 5.43286L40.712 5.83114L39.9433 5.75959L39.9029 6.19372L40.6079 6.25933C40.5104 7.3068 40.4304 7.95016 40.3756 8.19413C40.3131 8.43337 40.1144 8.53941 39.7839 8.50865C39.752 8.50568 39.701 8.4929 39.6344 8.47465L39.5733 8.09535C39.6438 8.11397 39.7028 8.1275 39.7546 8.13232C39.894 8.14529 39.984 8.08537 40.0197 7.96014C40.0515 7.83455 40.1057 7.38162 40.186 6.60572L39.8634 6.57569C39.7583 7.4457 39.5509 8.07719 39.2451 8.47055L38.96 8.16682C39.2349 7.80273 39.4119 7.19652 39.4952 6.34458L39.553 5.72326L39.2862 5.69843L39.3232 5.30015ZM41.3021 5.74948C41.2061 5.9173 41.1041 6.06448 40.9991 6.19933L41.3536 6.23232L41.3173 6.62264L41.593 6.55189L41.6505 5.93456L42.0328 5.97014L41.988 6.45206L42.6423 6.28398C42.5704 7.05664 42.5111 7.52115 42.4641 7.68148C42.409 7.84106 42.2459 7.91024 41.9751 7.88504L41.9711 7.88467L41.8962 7.52417C41.9639 7.53047 42.0233 7.54002 42.079 7.54521C42.1109 7.54817 42.1345 7.5102 42.1492 7.43925C42.1631 7.37627 42.1878 7.1536 42.2241 6.76329L41.9527 6.83043L41.8323 8.12483L41.4499 8.08924L41.5578 6.93025L41.282 7.001L41.189 8.00068C41.1719 8.18389 41.2192 8.28068 41.3347 8.29143L42.0675 8.35964C42.1472 8.36706 42.2051 8.34835 42.2487 8.31223C42.2966 8.2725 42.3371 8.13968 42.3737 7.91812L42.7218 8.063C42.6537 8.40617 42.5747 8.60772 42.4808 8.66727C42.3956 8.71959 42.2691 8.73997 42.1019 8.7244L41.1858 8.63913C40.903 8.61281 40.7811 8.41265 40.8159 8.03827L40.9038 7.09435L40.624 7.16473L40.6589 6.79034L40.9386 6.71996L40.9853 6.21813C40.9214 6.30057 40.8539 6.37864 40.7914 6.44514L40.555 6.09372C40.8087 5.82809 41.0453 5.44436 41.2647 4.94254L41.6469 5.06649C41.5967 5.1743 41.5508 5.2785 41.5014 5.37834L42.8515 5.50401L42.8156 5.89034L41.3021 5.74948Z" fill="white"/>
<path d="M44.9093 6.35002C45.1792 6.51369 45.4211 6.70132 45.6311 6.91229L45.3755 7.20026C45.1483 6.9704 44.9064 6.78277 44.651 6.62947L44.9093 6.35002ZM44.2754 7.86629C44.5214 8.00192 44.7576 8.14818 44.9801 8.30444C45.2372 8.16244 45.5083 7.98217 45.7941 7.75965L43.6442 7.42345L43.7048 7.03616L46.3724 7.45332L46.318 7.8011C46.0183 8.08622 45.6874 8.33812 45.322 8.55223C45.4777 8.6697 45.6288 8.7905 45.7708 8.91797L45.49 9.23842C45.0187 8.80845 44.52 8.4511 43.9976 8.16698L44.2754 7.86629ZM45.1945 5.48369L45.4712 5.52695C45.8784 6.13315 46.3826 6.6371 46.9752 7.04152L46.7123 7.37692C46.1215 6.96064 45.6443 6.46497 45.2729 5.88866C44.784 6.32234 44.1753 6.66843 43.4466 6.92695L43.2991 6.52333C44.0333 6.28185 44.6624 5.9349 45.1945 5.48369Z" fill="white"/>
<path d="M47.8888 5.8737L48.3356 7.86753L47.1583 9.5376L46.8515 9.31736L47.9315 7.78698L47.5209 5.95943L47.8888 5.8737ZM48.5713 6.00977L49.0181 8.0036L47.8409 9.67367L47.5341 9.45343L48.6141 7.92305L48.1878 6.09238L48.5713 6.00977Z" fill="white"/>
<path d="M52.4736 6.82923L52.8443 6.91265C52.6198 7.14503 52.4344 7.3862 52.2879 7.63615C52.0953 7.94541 51.9643 8.27263 51.8879 8.61214C51.8124 8.94774 51.7906 9.29955 51.8313 9.6654C51.8574 9.95009 51.9217 10.2475 52.0241 10.5575L51.6534 10.4741C51.524 10.1744 51.4433 9.87739 51.4033 9.58139C51.3561 9.22636 51.3748 8.86978 51.4538 8.51856C51.5346 8.15954 51.6696 7.8332 51.8643 7.53262C52.029 7.27448 52.2292 7.04073 52.4736 6.82923Z" fill="white"/>
<path d="M54.0284 7.65102L55.7191 8.06226L55.6217 8.46258L54.2963 8.14021L54.0333 8.88309L54.045 8.88593C54.1513 8.82122 54.2636 8.78267 54.3857 8.77122C54.4962 8.75693 54.6137 8.76491 54.738 8.79516C54.9985 8.8585 55.1914 8.99601 55.3131 9.20673C55.4347 9.41745 55.4626 9.67533 55.3898 9.97461C55.3198 10.2622 55.1543 10.469 54.8922 10.5987C54.6504 10.7128 54.3934 10.7367 54.1175 10.6696C53.8648 10.6081 53.6642 10.4852 53.5185 10.3057C53.3532 10.105 53.2945 9.87252 53.3375 9.61127L53.7845 9.71999C53.767 9.8763 53.7979 10.0032 53.881 10.1016C53.9514 10.1846 54.0634 10.2489 54.2149 10.2858C54.3782 10.3255 54.5304 10.309 54.6677 10.2353C54.8011 10.1608 54.8925 10.0389 54.9341 9.86788C54.9794 9.68132 54.9648 9.52134 54.8971 9.39371C54.8303 9.26219 54.7027 9.17763 54.5239 9.13415C54.4034 9.10484 54.2937 9.09875 54.1978 9.1207C54.0893 9.14371 53.9984 9.19571 53.9204 9.27964L53.4967 9.17659L54.0284 7.65102Z" fill="white"/>
<path d="M57.1264 9.50627L56.9754 10.0787L58.503 10.4818L58.6541 9.90944L57.1264 9.50627ZM58.7531 9.53428L58.896 8.99282L57.3683 8.58965L57.2254 9.13111L58.7531 9.53428ZM56.8531 10.4477C56.6704 10.9207 56.4152 11.2919 56.0887 11.5574L55.8538 11.1934C56.1824 10.9202 56.4166 10.5187 56.5631 9.9947L57.0643 8.09572L59.408 8.71425L58.6078 11.7464C58.5405 12.0017 58.3753 12.0946 58.1123 12.0252L57.6172 11.8946L57.6131 11.4715C57.7802 11.528 57.9367 11.5776 58.0798 11.6154C58.1571 11.6358 58.2101 11.5918 58.2367 11.4913L58.404 10.857L56.8531 10.4477Z" fill="white"/>
<path d="M61.2684 9.13683L61.6608 9.24859L61.3836 10.2219L61.5529 10.2701L61.44 10.6663L60.5937 10.4253L60.5586 10.5484C60.529 10.6522 60.4967 10.7512 60.4654 10.8462L61.2002 11.0555L60.8003 12.4597C61.0918 12.1518 61.3342 11.6801 61.5293 11.0536L61.9512 9.57253C62.5661 9.73521 63.1354 9.81002 63.664 9.79421L63.7544 10.2068C63.2786 10.2126 62.7643 10.1493 62.2191 10.019L62.0833 10.496L63.4797 10.8938L63.3822 11.2362C63.1551 11.7122 62.8835 12.0965 62.5606 12.383C62.6663 12.6543 62.8259 12.8828 63.0342 13.071L62.7323 13.3718C62.5101 13.1588 62.3385 12.9145 62.2224 12.636C61.9588 12.8021 61.6764 12.9172 61.3655 12.9867L61.28 12.5714C61.5783 12.5025 61.848 12.388 62.0841 12.2306C61.992 11.8384 61.9774 11.3934 62.0451 10.8928L61.9759 10.873L61.8948 11.1577C61.6657 11.9035 61.3601 12.4653 60.983 12.8403L60.797 12.4712L60.7137 12.7636L60.3213 12.6518L60.6993 11.3246L60.3377 11.2216C60.1338 11.7624 59.9072 12.1637 59.6678 12.4199L59.4395 12.0679C59.6942 11.7579 59.9372 11.2115 60.1624 10.4355L60.5667 9.01597L60.9629 9.12883L60.7065 10.029L60.9912 10.1101L61.2684 9.13683ZM62.4067 10.9958C62.3741 11.3441 62.3842 11.659 62.4361 11.9441C62.6568 11.7241 62.839 11.4641 62.9876 11.1612L62.4067 10.9958Z" fill="white"/>
<path d="M64.6535 10.0438L65.0176 10.1525C65.1233 10.4554 65.1873 10.7584 65.2046 11.0641C65.2234 11.4204 65.1852 11.7722 65.0799 12.1248C64.9769 12.4697 64.8148 12.7887 64.6037 13.0763C64.4239 13.3149 64.2043 13.5332 63.9486 13.7323L63.5845 13.6236C63.8218 13.4022 64.0234 13.1744 64.1894 12.9401C64.4001 12.6398 64.5572 12.3235 64.6556 11.9939C64.7552 11.6605 64.7972 11.3099 64.7845 10.947C64.7753 10.6563 64.7316 10.3552 64.6535 10.0438Z" fill="white"/>
<g clip-path="url(#clip0_253_4666)">
<path d="M4.38134 10.9319C4.09546 9.86492 2.99878 9.23176 1.93185 9.51764C0.864919 9.80352 0.231754 10.9002 0.517638 11.9671C0.803522 13.0341 1.9002 13.6672 2.96713 13.3813C4.03406 13.0955 4.66722 11.9988 4.38134 10.9319Z" fill="white"/>
<path d="M3.1185 11.2702C3.21977 11.6481 2.9955 12.0366 2.61757 12.1378C2.23963 12.2391 1.85117 12.0148 1.7499 11.6369C1.64864 11.259 1.87292 10.8705 2.25085 10.7692C2.62878 10.668 3.01724 10.8922 3.1185 11.2702Z" fill="#485CC2"/>
<path fill-rule="evenodd" clip-rule="evenodd" d="M1.74692 11.2811C1.74668 11.4155 1.80702 11.6754 2.054 11.6941C2.30542 11.7132 2.41667 11.5357 2.44086 11.4446C2.47403 11.3601 2.59006 11.1951 2.78876 11.211C2.98748 11.2269 3.07045 11.3551 3.08711 11.4173L3.13114 11.5816C3.14966 11.4813 3.14667 11.3753 3.1185 11.2702C3.01724 10.8922 2.62878 10.668 2.25085 10.7692C1.99366 10.8381 1.80763 11.0401 1.74692 11.2811Z" fill="#D74B4B"/>
<path fill-rule="evenodd" clip-rule="evenodd" d="M0.856648 11.3005L1.10159 10.6276L1.20626 10.6657L0.961319 11.3386L0.856648 11.3005ZM1.03566 11.3513L1.2806 10.6784L1.38527 10.7165L1.14033 11.3894L1.03566 11.3513ZM1.44527 10.7304L1.20032 11.4033L1.30499 11.4414L1.54994 10.7685L1.44527 10.7304Z" fill="#333333"/>
<path fill-rule="evenodd" clip-rule="evenodd" d="M3.75444 10.5241L3.51676 10.3246L3.44424 10.4092L3.68285 10.6094L3.75444 10.5241ZM3.20584 10.0637L3.43143 10.253L3.3589 10.3376L3.13425 10.1491L3.20584 10.0637ZM3.62483 10.6576L3.07623 10.1972L3.00462 10.2826L3.55322 10.7429L3.62483 10.6576ZM3.21106 10.681L3.43663 10.8703L3.50822 10.7849L3.2836 10.5965L3.21106 10.681ZM3.19826 10.5249L3.12574 10.6094L2.88802 10.4099L2.95962 10.3246L3.19826 10.5249Z" fill="#333333"/>
<path fill-rule="evenodd" clip-rule="evenodd" d="M3.93622 11.8901L4.04234 11.5985L3.93768 11.5604L3.83114 11.8531L3.93622 11.8901ZM3.89813 11.9948L3.7974 12.2715L3.69274 12.2334L3.79303 11.9578L3.89813 11.9948ZM3.49329 11.7343L3.59401 11.4576L3.69867 11.4957L3.59838 11.7713L3.49329 11.7343ZM3.56028 11.8759L3.4552 11.839L3.34905 12.1306L3.45373 12.1686L3.56028 11.8759ZM3.86334 11.5477L3.76113 11.8285L3.65605 11.7915L3.75866 11.5096L3.86334 11.5477ZM3.6184 12.2207L3.72304 11.9332L3.61794 11.8962L3.51372 12.1826L3.6184 12.2207Z" fill="#333333"/>
<path fill-rule="evenodd" clip-rule="evenodd" d="M1.14455 12.375L1.69315 12.8353L1.76475 12.75L1.21615 12.2896L1.14455 12.375ZM1.39077 12.1141L1.93937 12.5744L2.01097 12.4891L1.46237 12.0288L1.39077 12.1141ZM1.27417 12.2415L1.50307 12.4335L1.5756 12.349L1.34577 12.1561L1.27417 12.2415ZM1.82278 12.7018L1.58841 12.5051L1.66093 12.4206L1.89437 12.6165L1.82278 12.7018Z" fill="#333333"/>
</g>
<defs>
<clipPath id="clip0_253_4666">
<rect width="4" height="4" fill="white" transform="translate(0 10.0353) rotate(-15)"/>
</clipPath>
</defs>
</svg>
