<svg width="79" height="14" viewBox="0 0 79 14" fill="none" xmlns="http://www.w3.org/2000/svg">
<path d="M6.68014 6.07771L7.00389 6.29935L5.91637 7.83245L6.3368 9.65777L5.9694 9.74548L5.51189 7.75407L6.68014 6.07771ZM7.36343 6.21012L7.67147 6.42871L6.59966 7.96486L7.02009 9.79018L6.65269 9.87789L6.19518 7.88648L7.36343 6.21012Z" fill="white"/>
<path d="M10.2377 6.60694L10.6545 6.65861L10.6063 7.04763L11.293 7.13278L11.2462 7.50989L10.5595 7.42475L10.5167 7.7701L11.3781 7.8769L11.3299 8.26592L9.18627 8.00015L9.2345 7.61113L10.0999 7.71843L10.1427 7.37307L9.49565 7.29285L9.54241 6.91573L10.1895 6.99596L10.2377 6.60694ZM9.23029 8.36031L10.4291 8.50894L10.4557 8.29458L10.8606 8.34478L10.834 8.55914L11.2469 8.61033L11.1986 8.99935L10.7858 8.94816L10.6622 9.94454C10.6278 10.2224 10.4796 10.3451 10.2255 10.3136L9.72138 10.2511L9.68625 9.85174C9.83909 9.88681 9.98846 9.91743 10.1314 9.93514C10.2108 9.94499 10.2569 9.8983 10.2696 9.79509L10.3809 8.89796L9.18206 8.74933L9.23029 8.36031ZM9.52354 8.8884C9.69397 9.13928 9.8207 9.35249 9.91118 9.53299L9.55315 9.72238C9.46514 9.52203 9.33988 9.29691 9.1769 9.05099L9.52354 8.8884ZM8.17668 7.56059C8.1213 7.7472 8.055 7.92438 7.98124 8.09662L7.63281 7.94862C7.80357 7.54658 7.92569 7.11432 7.99866 6.65581L8.36835 6.72986C8.34171 6.87972 8.31507 7.02959 8.28147 7.17052L8.47995 7.19513L8.57691 6.41312L8.97784 6.46283L8.88088 7.24484L9.17861 7.28175L9.12939 7.67871L8.83167 7.6418L8.73127 8.4516C8.84783 8.42172 8.95645 8.39085 9.06557 8.35601L9.01734 8.74503C8.90474 8.77541 8.79215 8.80578 8.68402 8.83268L8.52308 10.1307L8.12215 10.081L8.26537 8.92588C8.05058 8.96777 7.83629 9.00569 7.61901 9.03518L7.56948 8.62195C7.82101 8.60879 8.06607 8.58275 8.31311 8.54083L8.43074 7.59209L8.17668 7.56059Z" fill="white"/>
<path d="M12.1567 6.85824C12.3797 7.08804 12.5668 7.31508 12.7141 7.53905L12.4091 7.8004C12.2809 7.58994 12.0984 7.35523 11.8613 7.10027L12.1567 6.85824ZM14.2011 10.6304C13.9738 10.6129 13.7268 10.5898 13.4599 10.5653C13.189 10.5404 12.9675 10.4993 12.7951 10.4459C12.6313 10.3851 12.4948 10.2823 12.3856 10.1375C12.335 10.0654 12.2856 10.0295 12.2377 10.0258C12.1739 10.0209 12.0368 10.1869 11.8336 10.5323L11.5637 10.2347C11.7591 9.9368 11.93 9.74937 12.0767 9.66839L12.1621 8.55968L11.7154 8.52527L11.7449 8.14241L12.5824 8.20691L12.466 9.71844L12.5102 9.76998C12.6019 9.88135 12.6955 9.96879 12.7872 10.028C12.9022 10.097 13.0832 10.1431 13.3259 10.1698C13.5649 10.1922 13.8477 10.218 14.1708 10.2429C14.3702 10.2582 14.5699 10.2696 14.7773 10.2856C14.9813 10.2933 15.1374 10.2973 15.2457 10.2976L15.1144 10.7007L14.2011 10.6304ZM12.9807 7.15038L13.3436 7.17833C13.3749 7.08445 13.4023 6.99027 13.4216 6.89548L13.8281 6.98295C13.802 7.06118 13.7719 7.1391 13.7385 7.20874L14.1692 7.24191L14.1032 8.09937C14.2781 7.80794 14.4149 7.43735 14.5098 6.98731L14.8831 7.08827C14.8377 7.2613 14.7889 7.42604 14.7373 7.57452L15.4233 7.62735L15.3935 8.0142L15.238 8.00222C15.1895 8.42374 15.0968 8.79372 14.9679 9.11276C15.0749 9.33765 15.1762 9.58615 15.2755 9.85859L14.9835 10.1089C14.9157 9.89506 14.843 9.69288 14.7691 9.50666C14.6046 9.7668 14.4079 9.97631 14.1784 10.1432L13.9972 9.78822C14.2386 9.62227 14.4328 9.3925 14.5804 9.09095C14.4826 8.90288 14.3795 8.73045 14.2715 8.56969L14.4977 8.34238C14.578 8.44485 14.6575 8.55929 14.736 8.6857C14.8008 8.47003 14.8471 8.23289 14.879 7.97458L14.5759 7.95124C14.4578 8.18285 14.3265 8.37734 14.178 8.5344L14.0807 8.39051L14.0792 8.41045L13.6206 8.37513L13.6721 8.53957L14.1906 8.5795L14.1638 8.92647L13.418 8.86903L13.3827 9.01475L14.0528 9.06635C14.0159 9.54494 13.9616 9.83362 13.8898 9.9324C13.818 10.0312 13.7023 10.0744 13.5425 10.0661L13.3191 10.0489L13.2416 9.70194L13.4729 9.71976C13.537 9.72068 13.5827 9.70013 13.6057 9.66178C13.625 9.61914 13.641 9.51606 13.6573 9.35684L13.2904 9.32859C13.2701 9.38319 13.2465 9.42951 13.2272 9.47216C13.133 9.65346 13.0004 9.81175 12.8332 9.95132L12.6212 9.63009C12.7495 9.52764 12.8471 9.40678 12.9176 9.2718C12.9747 9.15584 13.0217 9.01503 13.0591 8.84139L12.7361 8.81651L12.7628 8.46954L13.2812 8.50947L13.2297 8.34502L12.8907 8.31892L12.9807 7.15038ZM13.7534 8.10854L13.7669 7.93306L13.2724 7.89497L13.2589 8.07045L13.7534 8.10854ZM13.2933 7.62378L13.7878 7.66186L13.801 7.49037L13.3065 7.45228L13.2933 7.62378Z" fill="white"/>
<path d="M16.1786 7.16547C16.4262 7.36826 16.6337 7.56935 16.8013 7.76871L16.5053 8.04428C16.3573 7.85376 16.1501 7.64468 15.8832 7.42504L16.1786 7.16547ZM15.5984 8.27762L16.5216 8.31723L16.4504 9.9757C16.5708 9.87677 16.6995 9.77019 16.8367 9.65196L16.9337 10.0965C16.6596 10.325 16.3708 10.5248 16.0669 10.7039L15.9231 10.3214C15.9936 10.2644 16.0329 10.19 16.0366 10.1021L16.0968 8.69937L15.5813 8.67725L15.5984 8.27762ZM17.0085 8.81856L18.9587 8.90223L18.9425 9.28188C18.8158 9.62076 18.6191 9.9126 18.3526 10.1534C18.5935 10.3239 18.8872 10.4766 19.2376 10.6158L18.9983 10.9658C18.6135 10.7892 18.2894 10.5991 18.034 10.392C17.7129 10.5984 17.3257 10.7579 16.8645 10.8703L16.6478 10.5086C17.0645 10.4064 17.4187 10.2695 17.7143 10.098C17.4696 9.83125 17.3017 9.54379 17.2192 9.22796L16.9914 9.21819L17.0085 8.81856ZM17.6108 9.24477C17.689 9.47633 17.8239 9.69031 18.0238 9.88306C18.2355 9.70797 18.4001 9.51085 18.522 9.28386L17.6108 9.24477ZM17.3466 7.28364L18.7853 7.34537L18.7498 8.1726C18.7461 8.26052 18.792 8.31054 18.8919 8.31482L19.2355 8.32957L19.2193 8.70922L18.7637 8.68967C18.464 8.67681 18.3221 8.5306 18.3341 8.25086L18.3569 7.71934L17.7415 7.69294L17.7368 7.80084C17.719 8.21646 17.4893 8.5309 17.0561 8.73652L16.7901 8.40482C17.1318 8.27935 17.3122 8.0869 17.3233 7.82714L17.3466 7.28364Z" fill="white"/>
<path d="M20.8366 8.42698L21.8684 8.4426L21.886 7.28274L22.3179 7.28927L22.3004 8.44914L23.2803 8.46397L23.274 8.87993L22.2941 8.86509L22.2616 11.0088L21.8297 11.0023L21.8621 8.85856L20.8303 8.84294L20.8366 8.42698ZM20.1497 7.28846C20.3987 7.48825 20.6117 7.6875 20.7888 7.8822L20.4964 8.16981C20.3472 7.98353 20.1302 7.78422 19.8494 7.57194L20.1497 7.28846ZM19.5763 8.43591L20.5282 8.45032L20.5029 10.1221C20.6204 10.0239 20.746 9.91378 20.8799 9.7918L20.9814 10.2214C20.7178 10.4574 20.4386 10.6692 20.1397 10.8567L19.9854 10.4783C20.0583 10.4194 20.0954 10.348 20.0967 10.264L20.1182 8.84416L19.5702 8.83586L19.5763 8.43591Z" fill="white"/>
<path d="M23.6927 7.85576L24.0927 7.85216L24.1119 9.98807L23.7119 9.99167L23.6927 7.85576ZM24.3558 7.30977L24.7558 7.30617L24.7732 9.24209C24.7685 10.0502 24.5258 10.6404 24.0411 11.0168L23.7307 10.7435C24.1598 10.4277 24.3714 9.92974 24.3732 9.24569L24.3558 7.30977ZM24.9488 7.42444L27.2128 7.40407L27.2163 7.79605L26.2883 7.8044L26.2921 8.22038L27.132 8.21283L27.1496 10.1607C27.1519 10.4247 27.0332 10.5618 26.8012 10.5639L26.5212 10.5664L26.4096 10.1674L26.6658 10.1851C26.7217 10.1846 26.7494 10.1443 26.7487 10.0723L26.7356 8.60841L26.2956 8.61237L26.317 10.9883L25.917 10.9919L25.8956 8.61597L25.4516 8.61996L25.4693 10.5879L25.0693 10.5915L25.0481 8.23158L25.8921 8.22398L25.8883 7.808L24.9524 7.81642L24.9488 7.42444Z" fill="white"/>
<path d="M28.1159 9.93735C28.2956 10.0517 28.4599 10.1866 28.6168 10.3378C28.7489 10.4657 28.8774 10.6057 28.9942 10.7581L28.7217 10.9988C28.6089 10.8503 28.4885 10.71 28.3562 10.5781C28.2075 10.4307 28.0512 10.2956 27.8791 10.1689L28.1159 9.93735Z" fill="white"/>
<path d="M33.477 8.89592L33.4991 9.29531L34.0822 9.26298L34.0601 8.86359L33.477 8.89592ZM33.5206 9.68271L33.5458 10.138L34.1289 10.1057L34.1037 9.65038L33.5206 9.68271ZM33.568 10.5374L33.5779 10.7171L33.1666 10.7399L33.0463 8.57126C32.9722 8.67953 32.8981 8.7878 32.8238 8.89207L32.7488 8.69592L32.7718 9.11129C32.6666 9.16519 32.5615 9.2191 32.4561 9.26901L32.5147 10.3274C32.5298 10.599 32.3938 10.7467 32.1142 10.7622L31.7547 10.7821L31.6405 10.3839C31.7492 10.3939 31.8537 10.4001 31.9496 10.3948C32.0454 10.3895 32.0947 10.3387 32.0894 10.2428L32.0453 9.44802C31.9042 9.50392 31.7591 9.56003 31.6135 9.60817L31.4862 9.19057C31.668 9.14444 31.8452 9.09055 32.0219 9.02467L31.9771 8.21791L31.5099 8.24381L31.4875 7.84043L31.9548 7.81453L31.9165 7.12359L32.3358 7.10034L32.3741 7.79128L32.7296 7.77157L32.7519 8.17495L32.3965 8.19466L32.4328 8.84965C32.542 8.79552 32.6432 8.74184 32.7441 8.68416L32.6598 8.46449C32.9483 8.03186 33.1385 7.56061 33.2387 7.05429L33.6505 7.11158C33.6052 7.30639 33.5515 7.49365 33.4855 7.67758L34.0447 7.64658C33.9746 7.46618 33.8965 7.28623 33.8069 7.11493L34.2043 6.98473C34.3012 7.21572 34.3811 7.42762 34.4401 7.62466L35.0352 7.59167L35.0573 7.99105L34.4263 8.02604L34.4497 8.44939L35.0009 8.41883L35.0226 8.81023L34.4714 8.84079L34.4936 9.24017L35.0447 9.20962L35.0662 9.59702L34.5151 9.62758L34.5403 10.0829L35.2153 10.0455L35.2374 10.4448L33.568 10.5374ZM34.0149 8.04884L33.4318 8.08117L33.4553 8.50452L34.0384 8.47219L34.0149 8.04884Z" fill="white"/>
<path d="M35.3466 7.19524L36.1953 7.01343L36.145 6.77875L36.5596 6.68994L36.6099 6.92462L37.5173 6.73024L37.467 6.49556L37.8816 6.40675L37.9319 6.64143L38.7807 6.45961L38.8603 6.83119L38.0115 7.013L38.0635 7.2555L37.6489 7.34431L37.5969 7.10181L36.6895 7.29619L36.7314 7.49175L37.1423 7.48144C37.1323 7.54905 37.1222 7.61666 37.1113 7.68035L38.9379 7.28908L39.0175 7.66065L37.0071 8.0913C36.9316 8.312 36.8389 8.52823 36.7193 8.73384L37.0703 10.3727L36.6753 10.4573L36.4064 9.20176C36.2938 9.34452 36.1725 9.48503 36.0457 9.61856L35.7194 9.33665C36.0831 8.97238 36.3533 8.59133 36.5299 8.19352L35.6694 8.37784L35.5898 8.00627L36.6733 7.77419C36.6925 7.69234 36.7088 7.61523 36.725 7.53813L36.326 7.62359L36.2749 7.385L35.4262 7.56681L35.3466 7.19524ZM37.9932 8.72275C38.0667 8.64565 38.1751 8.54061 38.3184 8.40764L37.192 8.64894L37.1132 8.28128L38.8303 7.91347L38.8923 8.2029C38.7579 8.35851 38.6034 8.53478 38.4257 8.73647L38.4391 8.79905L39.2409 8.6273L39.323 9.0106L38.5212 9.18236L38.6217 9.65171C38.6737 9.89421 38.5784 10.0414 38.3398 10.0925L37.8587 10.1956L37.6568 9.82569C37.844 9.80196 37.9912 9.78269 38.1007 9.75923C38.1711 9.74415 38.2018 9.69666 38.1868 9.62626L38.1105 9.27033L37.0897 9.48901L37.0076 9.1057L38.0284 8.88703L37.9932 8.72275Z" fill="white"/>
<path d="M39.2973 6.06369C39.6039 6.15517 39.873 6.26049 40.1046 6.37967L39.9379 6.7482C39.7278 6.6296 39.456 6.51676 39.125 6.4172L39.2973 6.06369ZM39.1915 7.31363L40.0584 6.99367L40.6332 8.55098C40.706 8.41324 40.7835 8.26524 40.8644 8.1032L41.1256 8.47581C40.961 8.79238 40.7718 9.08822 40.5606 9.37084L40.2803 9.0735C40.3233 8.99367 40.3307 8.9099 40.3003 8.82735L39.8141 7.51021L39.33 7.68888L39.1915 7.31363ZM40.7011 7.26807L42.5324 6.59215L42.664 6.94864C42.678 7.31015 42.6093 7.6553 42.4564 7.98035C42.7444 8.04458 43.0744 8.07204 43.4513 8.0651L43.3658 8.48039C42.9426 8.46603 42.5702 8.41587 42.2547 8.32342C42.0382 8.63784 41.7426 8.93454 41.3605 9.21627L41.021 8.96638C41.366 8.71114 41.6398 8.44804 41.8463 8.1757C41.5175 8.02418 41.2516 7.82383 41.0535 7.56438L40.8397 7.64333L40.7011 7.26807ZM41.4213 7.42864C41.5828 7.61206 41.7899 7.75733 42.0488 7.85792C42.1764 7.61467 42.2521 7.36927 42.2769 7.11284L41.4213 7.42864ZM40.4203 5.72165L41.7712 5.22303L42.0579 5.9998C42.0884 6.08236 42.15 6.11077 42.2439 6.07614L42.5666 5.95702L42.6982 6.31351L42.2704 6.47141C41.9889 6.57529 41.8016 6.4952 41.7046 6.23253L41.5204 5.73344L40.9425 5.94674L40.9799 6.04806C41.124 6.43832 41.0335 6.81707 40.7133 7.17403L40.3399 6.97079C40.6066 6.7231 40.6987 6.47591 40.6087 6.232L40.4203 5.72165Z" fill="white"/>
<path d="M43.9577 5.39408L44.9017 4.97705L44.4329 3.91598L44.8281 3.74141L45.2968 4.80247L46.1933 4.40645L46.3614 4.78697L45.465 5.18299L46.3314 7.14414L45.9362 7.31871L45.0698 5.35757L44.1258 5.7746L43.9577 5.39408ZM42.8579 4.64678C43.1676 4.72423 43.4444 4.81622 43.6867 4.91911L43.5412 5.30259C43.3278 5.1957 43.0474 5.10532 42.7035 5.02983L42.8579 4.64678ZM42.8165 5.92887L43.6873 5.54416L44.363 7.07356C44.4287 6.93521 44.4968 6.78265 44.5675 6.61589L44.8392 6.96374C44.6984 7.28834 44.5332 7.59745 44.34 7.89269L44.0417 7.61342C44.0833 7.52944 44.0872 7.44903 44.0532 7.37219L43.4794 6.0733L42.9781 6.29475L42.8165 5.92887Z" fill="white"/>
<path d="M46.4553 3.59815L46.8284 3.45382L47.5991 5.44591L47.2261 5.59025L46.4553 3.59815ZM46.8835 2.85349L47.2565 2.70916L47.9551 4.51473C48.2355 5.27262 48.2164 5.9105 47.8955 6.43352L47.5086 6.28726C47.7989 5.84039 47.8214 5.29987 47.5821 4.65907L46.8835 2.85349ZM47.4789 2.7518L49.5904 1.93486L49.7318 2.30045L48.8663 2.63531L49.0165 3.02328L49.7999 2.72018L50.5028 4.53694C50.598 4.78316 50.5352 4.95329 50.3188 5.03701L50.0577 5.13804L49.8126 4.80396L50.0586 4.73024C50.1108 4.71003 50.1225 4.66262 50.0965 4.59547L49.5683 3.23011L49.1579 3.38887L50.0153 5.6048L49.6422 5.74913L48.7849 3.53321L48.3708 3.69342L49.0809 5.52883L48.7078 5.67317L47.8563 3.47216L48.6434 3.16762L48.4933 2.77964L47.6204 3.11739L47.4789 2.7518Z" fill="white"/>
<path d="M50.8691 2.31453C50.8365 2.4687 50.7864 2.59798 50.7242 2.70937L50.3417 2.54543C50.4792 2.30759 50.5374 2.00482 50.5124 1.63797L50.9092 1.61894C50.9152 1.72399 50.9156 1.82205 50.9105 1.91312L51.2234 1.84649L51.1268 1.39266L51.5337 1.30603L51.6303 1.75986L52.315 1.61409L52.3949 1.98968L51.7103 2.13544L51.7919 2.51885L52.59 2.34893L52.6708 2.72842L51.8727 2.89834L51.936 3.19568L52.6872 3.03575L52.9104 4.08425C52.9671 4.35029 52.8554 4.51721 52.5776 4.57635L52.3898 4.61633L52.2073 4.25849L52.3758 4.24307C52.4775 4.22141 52.5231 4.16671 52.5048 4.08064L52.3798 3.4938L52.016 3.57126L52.3025 4.9171L51.8956 5.00372L51.6091 3.65789L51.2492 3.73452L51.4841 4.83779L51.0889 4.92192L50.7741 3.44306L51.5291 3.28231L51.4658 2.98497L50.566 3.17655L50.4852 2.79705L51.385 2.60548L51.3034 2.22207L50.8691 2.31453ZM52.5758 1.45631L52.971 1.37219L53.4791 3.7587L53.0839 3.84282L52.5758 1.45631ZM54.0282 4.51289L53.4452 4.637L53.2728 4.26884C53.4639 4.24451 53.6416 4.21485 53.8099 4.17903C53.9038 4.15904 53.9399 4.09818 53.9182 3.99646L53.2677 0.940947L53.6746 0.854321L54.3476 4.01547C54.4059 4.28933 54.2981 4.45542 54.0282 4.51289Z" fill="white"/>
<path d="M55.4635 2.92678L57.8471 2.97203L57.8412 3.27998C57.6408 3.50821 57.4051 3.70377 57.1299 3.87058C57.4555 3.99679 57.8339 4.08798 58.2607 4.1521L58.0738 4.51662C57.5475 4.41861 57.0942 4.27398 56.7218 4.08287C56.3183 4.25925 55.8518 4.38641 55.3263 4.46445L55.1534 4.0891C55.5824 4.04123 55.968 3.95654 56.3103 3.83902C56.0814 3.67464 55.8889 3.49095 55.7327 3.28795L55.4567 3.28271L55.4635 2.92678ZM56.1886 3.29661C56.3339 3.43939 56.5035 3.56664 56.7015 3.67441C56.9115 3.57038 57.1018 3.44997 57.2724 3.31719L56.1886 3.29661ZM55.3309 2.11211L55.3274 2.30008C55.2947 3.17962 55.1412 3.88483 54.8591 4.41557L54.5486 4.12563C54.7649 3.68965 54.8886 3.07589 54.9114 2.29218L54.9361 0.992418L56.4398 1.02097C56.4014 0.940223 56.3588 0.863401 56.3122 0.790503L56.7575 0.726945C56.7958 0.815688 56.8379 0.916505 56.8758 1.02924L58.2115 1.05461L58.2041 1.44654L55.3446 1.39224L55.3382 1.72818L55.9061 1.73897L55.9108 1.49101L56.3187 1.49876L56.314 1.74671L57.2019 1.76357L57.2067 1.51161L57.6106 1.51928L57.6058 1.77124L58.1977 1.78247L58.1904 2.16641L57.5985 2.15517L57.5868 2.77106L55.8871 2.73879L55.8988 2.1229L55.3309 2.11211ZM56.3068 2.13064L56.3016 2.40259L57.1894 2.41945L57.1946 2.1475L56.3068 2.13064Z" fill="white"/>
<path d="M59.5382 1.05063C59.7575 1.30538 59.9367 1.55638 60.0774 1.79579L59.7262 2.0288C59.6115 1.80261 59.4369 1.54845 59.1988 1.26555L59.5382 1.05063ZM61.0805 5.02798C60.8685 4.98658 60.6376 4.93742 60.3911 4.88519C60.1406 4.8322 59.941 4.76878 59.7838 4.69732C59.636 4.61954 59.5201 4.50318 59.4324 4.34746C59.3944 4.27076 59.3534 4.23015 59.3063 4.22095C59.2317 4.20638 59.0637 4.35698 58.7984 4.67197L58.5513 4.33027C58.8089 4.05454 59.0208 3.88806 59.1947 3.83236L59.4048 2.75668L58.8866 2.65548L58.9602 2.2786L59.8592 2.45417L59.5671 3.94991L59.5987 3.99684C59.6651 4.11578 59.74 4.21193 59.8204 4.2806C59.9227 4.36172 60.0854 4.42609 60.3116 4.47841C60.5346 4.52604 60.7968 4.58133 61.0952 4.6396C61.2915 4.67794 61.4885 4.71234 61.6927 4.75221C61.8944 4.78346 62.0491 4.80551 62.1605 4.81913L61.9795 5.20355L61.0805 5.02798ZM60.5526 1.40768L62.4056 1.76956L62.332 2.14644L60.479 1.78456L60.5526 1.40768ZM60.1289 2.24192L62.5197 2.70884L62.4438 3.09749L61.2425 2.86289C60.9854 3.261 60.746 3.56881 60.5242 3.78633C60.9471 3.81187 61.3088 3.81729 61.6139 3.79943C61.5714 3.59959 61.5195 3.40606 61.4622 3.21961L61.8173 3.17486C61.9509 3.5759 62.0518 4.01946 62.1184 4.51337L61.7356 4.53236C61.7194 4.40692 61.7055 4.2901 61.6869 4.17643C61.2415 4.20356 60.6742 4.18651 59.9813 4.12454L59.949 3.74736C60.1152 3.73091 60.4103 3.40951 60.8342 2.78315L60.0529 2.63058L60.1289 2.24192Z" fill="white"/>
<path d="M64.6567 2.4072L66.5358 2.99193L66.4134 3.38532L64.5343 2.8006L64.6567 2.4072ZM64.2703 3.32588L66.4053 3.99023L66.2829 4.38363L65.6947 4.2006L65.1967 5.80092C65.1183 6.053 64.9378 6.13506 64.6551 6.04712L64.1013 5.87479L64.1347 5.45788C64.3056 5.52783 64.4701 5.59158 64.6305 5.64149C64.7337 5.67358 64.799 5.65203 64.8228 5.57564L65.2899 4.07463L64.1479 3.71928L64.2703 3.32588ZM64.048 2.0209L64.3573 2.30568C64.0254 2.659 63.5601 2.92897 62.9617 3.11558L62.9642 2.67651C63.4029 2.53233 63.7641 2.31379 64.048 2.0209ZM63.9541 2.95521L64.2609 3.23498C64.0998 3.40269 63.9143 3.55444 63.7045 3.69023L63.115 5.58463L62.7216 5.46222L63.1887 3.96121C63.0255 4.02774 62.8509 4.09071 62.6737 4.14868L62.6739 3.71725C63.1944 3.55245 63.6219 3.29589 63.9541 2.95521Z" fill="white"/>
<path d="M68.8541 4.73636L68.7835 4.8799C68.7446 4.95885 68.7593 5.01958 68.831 5.05492L69.6923 5.479C69.7533 5.50904 69.8088 5.51407 69.8588 5.49409C69.9123 5.47587 69.9904 5.37164 70.1002 5.18493L70.3899 5.46581C70.2074 5.75493 70.0634 5.91144 69.9598 5.93175C69.8598 5.95383 69.738 5.92953 69.5909 5.85708L68.5502 5.34465C68.3097 5.22626 68.2549 5.03876 68.3822 4.78038L68.861 3.80789L69.2235 3.98635L69.0149 4.4098C69.4665 4.52512 69.9177 4.59571 70.3651 4.62876L70.4283 5.02551C69.8555 4.95744 69.3308 4.86404 68.8541 4.73636ZM66.3685 6.65132L65.9953 6.46755L66.0877 6.07164C66.1955 6.14254 66.3032 6.20449 66.4037 6.25397C66.4862 6.29461 66.5505 6.27275 66.5929 6.18663L66.9498 5.46174C66.7869 5.43948 66.6257 5.41363 66.4664 5.38419L66.5586 4.96145C66.7485 5.01038 66.942 5.05213 67.1354 5.08494L67.4888 4.36723L67.0474 4.14989L67.2223 3.79462L67.6637 4.01197L67.9765 3.37679L68.3389 3.55526L68.0261 4.19043L68.385 4.36713L68.2101 4.7224L67.8512 4.5457L67.5597 5.13781C67.7172 5.15295 67.8746 5.15914 68.0303 5.15998L67.843 5.54037C67.6855 5.53418 67.5298 5.52439 67.3759 5.51102L66.9076 6.46199C66.7875 6.70601 66.6054 6.76794 66.3685 6.65132ZM69.8454 6.23656L68.9849 7.98418L68.6081 7.79865L68.6823 7.64793L67.7026 7.16554L67.6284 7.31626L67.2588 7.13425L68.1193 5.38663L69.8454 6.23656ZM67.8652 6.83539L68.8448 7.31778L68.9968 7.00917L68.0171 6.52677L67.8652 6.83539ZM68.1797 6.19663L69.1594 6.67902L69.3078 6.37758L68.3281 5.89519L68.1797 6.19663Z" fill="white"/>
<path d="M73.7156 6.71771L74.061 6.95658L71.9499 10.0098L71.6044 9.77092L73.7156 6.71771ZM71.0857 6.59655L70.6809 6.97803L71.9443 7.8516C71.5576 8.41091 71.2742 8.76449 71.0962 8.92347C70.9182 9.08245 70.6338 9.03657 70.2385 8.79242C70.1332 8.71962 70.0325 8.64024 69.9318 8.56087L70.0669 8.18258C70.1653 8.26525 70.2661 8.34462 70.3746 8.4197C70.6082 8.58122 70.7795 8.62185 70.8862 8.54488C70.9841 8.46665 71.1507 8.26088 71.3827 7.92529L70.0996 7.03807L71.0189 6.08834L72.0981 6.83452L72.3892 6.41339L71.2147 5.60124L71.4285 5.29197L72.942 6.33844L72.2208 7.3814L71.0857 6.59655Z" fill="white"/>
<path d="M75.0895 7.73939L74.517 9.70083L72.6792 10.5939L72.517 10.2528L74.2022 9.43503L74.726 7.63665L75.0895 7.73939ZM75.6213 8.18841L75.0488 10.1499L73.211 11.0429L73.0488 10.7018L74.734 9.88405L75.2456 8.07535L75.6213 8.18841Z" fill="white"/>
<g clip-path="url(#clip0_253_4648)">
<path d="M4.95736 7.58589C5.26182 6.52411 4.64789 5.41656 3.58611 5.1121C2.52433 4.80764 1.41678 5.42156 1.11231 6.48334C0.807854 7.54512 1.42178 8.65268 2.48356 8.95714C3.54534 9.2616 4.6529 8.64767 4.95736 7.58589Z" fill="white"/>
<path d="M3.70065 7.22549C3.59281 7.6016 3.2005 7.81907 2.82439 7.71122C2.44828 7.60338 2.23081 7.21105 2.33866 6.83494C2.44651 6.45884 2.83883 6.24137 3.21494 6.34922C3.59105 6.45707 3.8085 6.84939 3.70065 7.22549Z" fill="#485CC2"/>
<path fill-rule="evenodd" clip-rule="evenodd" d="M2.51932 6.52847C2.44991 6.64352 2.3678 6.89734 2.56986 7.0406C2.77554 7.18643 2.96229 7.09163 3.02995 7.026C3.10191 6.97065 3.28636 6.88894 3.4485 7.0049C3.61065 7.12087 3.61571 7.27355 3.59797 7.33541L3.55108 7.49895C3.61864 7.42246 3.67064 7.33012 3.70065 7.22548C3.80849 6.84938 3.59104 6.45706 3.21493 6.34922C2.95898 6.27582 2.69553 6.35309 2.51932 6.52847Z" fill="#D74B4B"/>
<path fill-rule="evenodd" clip-rule="evenodd" d="M1.74623 6.08655L2.30278 5.63587L2.37288 5.72244L1.81633 6.17312L1.74623 6.08655ZM1.87351 6.2223L2.43006 5.77162L2.50016 5.85819L1.9436 6.30886L1.87351 6.2223ZM2.54442 5.90101L1.98787 6.35169L2.05796 6.43826L2.61451 5.98758L2.54442 5.90101Z" fill="#333333"/>
<path fill-rule="evenodd" clip-rule="evenodd" d="M4.63002 6.91347L4.529 6.6201L4.42329 6.65523L4.52471 6.94974L4.63002 6.91347ZM4.39686 6.23635L4.49275 6.51478L4.38702 6.5499L4.29155 6.27262L4.39686 6.23635ZM4.45016 6.96115L4.217 6.28402L4.11168 6.32029L4.34483 6.99741L4.45016 6.96115ZM4.08342 6.76814L4.1793 7.04654L4.28461 7.01027L4.18915 6.73302L4.08342 6.76814ZM4.15287 6.6277L4.04716 6.66282L3.94612 6.36941L4.05145 6.33315L4.15287 6.6277Z" fill="#333333"/>
<path fill-rule="evenodd" clip-rule="evenodd" d="M4.08229 8.178L4.32342 7.98275L4.25333 7.89617L4.01126 8.09219L4.08229 8.178ZM3.99573 8.2481L3.76687 8.43341L3.69678 8.34686L3.92468 8.16229L3.99573 8.2481ZM3.78287 7.81634L4.01171 7.63103L4.08179 7.71761L3.85392 7.90214L3.78287 7.81634ZM3.76734 7.97225L3.69631 7.88644L3.45514 8.08172L3.52525 8.16828L3.76734 7.97225ZM4.19616 7.84699L3.96393 8.03503L3.8929 7.94923L4.12605 7.76043L4.19616 7.84699ZM3.63961 8.29768L3.87737 8.10514L3.80632 8.01933L3.56951 8.2111L3.63961 8.29768Z" fill="#333333"/>
<path fill-rule="evenodd" clip-rule="evenodd" d="M1.43963 7.15584L1.6728 7.83295L1.77811 7.79669L1.54496 7.11956L1.43963 7.15584ZM1.78505 7.05903L2.01821 7.73614L2.12353 7.69988L1.89037 7.02275L1.78505 7.05903ZM1.6195 7.10815L1.71679 7.39068L1.8225 7.35555L1.72482 7.07189L1.6195 7.10815ZM1.85266 7.78528L1.75306 7.496L1.85877 7.46088L1.95799 7.74901L1.85266 7.78528Z" fill="#333333"/>
</g>
<defs>
<clipPath id="clip0_253_4648">
<rect width="4" height="4" fill="white" transform="translate(1.66359 4.56082) rotate(16)"/>
</clipPath>
</defs>
</svg>
