<svg width="56" height="19" viewBox="0 0 56 19" fill="none" xmlns="http://www.w3.org/2000/svg">
<path d="M5.54328 6.27683L5.92794 6.35411L5.52706 8.19052L6.62823 9.70577L6.32445 9.93025L5.12417 8.27667L5.54328 6.27683ZM6.22389 6.1313L6.59291 6.21193L6.20767 8.045L7.30884 9.56024L7.00506 9.78472L5.80478 8.13114L6.22389 6.1313Z" fill="white"/>
<path d="M8.60121 6.32506L7.30249 6.60239L7.21895 6.21121L10.235 5.56717L10.3185 5.95835L9.01586 6.23651L9.51538 8.57577L11.0566 8.24665L11.141 8.64175L7.63994 9.38937L7.55557 8.99427L9.10073 8.66432L8.60121 6.32506Z" fill="white"/>
<path d="M12.116 4.94263L12.5289 4.86594L13.1008 7.94527L13.5334 7.86493L12.9615 4.78559L13.3745 4.70889L13.9464 7.78823L15.079 7.57786L15.1535 7.979L11.6376 8.63201L11.5631 8.23087L12.6879 8.02197L12.116 4.94263ZM14.2086 5.32289L14.5894 5.35794C14.5649 6.0582 14.4857 6.68317 14.3511 7.22893L13.9573 7.16781C14.0928 6.67071 14.1734 6.0536 14.2086 5.32289ZM11.5479 5.80487C11.8417 6.2914 12.1304 6.86024 12.4094 7.50819L12.0526 7.66803C11.8049 7.07936 11.5302 6.52013 11.2198 5.98786L11.5479 5.80487Z" fill="white"/>
<path d="M15.5103 4.37566C15.7876 4.53539 16.0252 4.69996 16.223 4.86934L15.9758 5.18948C15.7988 5.02562 15.5602 4.85312 15.2612 4.67991L15.5103 4.37566ZM15.1191 5.5675L16.0364 5.45612L16.2365 7.10401C16.3391 6.98679 16.4487 6.86065 16.5648 6.72165L16.733 7.14445C16.4999 7.41453 16.2475 7.65874 15.9768 7.88502L15.7726 7.53105C15.8329 7.46329 15.8594 7.3835 15.8488 7.29614L15.6796 5.90238L15.1673 5.96459L15.1191 5.5675ZM16.5985 5.87138L18.5363 5.63607L18.5821 6.0133C18.5124 6.36829 18.3659 6.68828 18.1422 6.9693C18.4076 7.09824 18.7223 7.20106 19.0907 7.28124L18.9117 7.66561C18.5033 7.55404 18.1525 7.41934 17.8668 7.2566C17.5836 7.5126 17.2276 7.73313 16.7908 7.91913L16.5181 7.59767C16.9126 7.42888 17.2397 7.23604 17.5035 7.01866C17.2185 6.79539 17.006 6.53913 16.8731 6.24097L16.6468 6.26846L16.5985 5.87138ZM17.2622 6.19372C17.3771 6.40945 17.5451 6.59857 17.7738 6.75616C17.9541 6.54891 18.0844 6.32759 18.1676 6.08378L17.2622 6.19372ZM16.682 4.30188L18.1115 4.12829L18.2113 4.95025C18.2219 5.03761 18.2753 5.07947 18.3746 5.06742L18.7161 5.02595L18.7619 5.40318L18.3092 5.45815C18.0114 5.49431 17.8476 5.37317 17.8138 5.09521L17.7497 4.56709L17.1382 4.64135L17.1512 4.74856C17.2014 5.16153 17.026 5.50921 16.6321 5.78269L16.3156 5.49877C16.6322 5.31929 16.7789 5.10001 16.7475 4.84191L16.682 4.30188Z" fill="white"/>
<path d="M20.4597 5.00676L21.4911 4.97107L21.451 3.81177L21.8827 3.79683L21.9228 4.95613L22.9023 4.92225L22.9166 5.338L21.9372 5.37189L22.0114 7.5146L21.5796 7.52954L21.5055 5.38682L20.4741 5.42251L20.4597 5.00676ZM19.7171 3.90377C19.9758 4.09094 20.1984 4.27936 20.3849 4.46502L20.1072 4.7668C19.9489 4.58817 19.7223 4.39989 19.4313 4.20184L19.7171 3.90377ZM19.2014 5.07831L20.1529 5.04539L20.2107 6.71639C20.3232 6.61244 20.4432 6.49622 20.5708 6.36773L20.6936 6.79174C20.442 7.04058 20.1737 7.266 19.8845 7.46812L19.7116 7.09788C19.7815 7.03542 19.815 6.96222 19.812 6.87827L19.7629 5.45912L19.2153 5.47807L19.2014 5.07831Z" fill="white"/>
<path d="M23.6745 5.44391C23.573 5.56345 23.4677 5.67881 23.3584 5.794L23.2388 5.34013C23.6266 4.9092 23.918 4.39783 24.1213 3.79839L24.4927 3.99536C24.3918 4.2791 24.2633 4.55358 24.1155 4.81117L23.9931 7.5204L23.5815 7.50181L23.6745 5.44391ZM24.6704 3.96335L26.7602 4.05777L26.698 5.43637L25.9148 5.40098L25.8904 5.94043L26.7775 5.98051L26.7601 6.36412L25.873 6.32404L25.8371 7.11923C25.9563 7.14063 26.0998 7.15512 26.2592 7.17033C26.467 7.17972 26.683 7.18547 26.8991 7.18723L26.8053 7.5794L26.4337 7.56261C25.8425 7.53189 25.4456 7.4539 25.2389 7.33244C25.0358 7.21916 24.8712 7.05156 24.7454 6.82165C24.6244 7.10848 24.4811 7.35426 24.3197 7.55918L24.0672 7.21143C24.3577 6.80813 24.5664 6.265 24.6935 5.57804L25.086 5.66384C25.0345 5.91778 24.9759 6.15137 24.9099 6.37261C24.9599 6.50701 25.0264 6.63013 25.1134 6.74218C25.2046 6.8504 25.3131 6.93138 25.4304 6.99274L25.5032 5.38238L24.6081 5.34194L24.6704 3.96335ZM26.3117 5.03452L26.3393 4.42315L25.0606 4.36537L25.033 4.97675L26.3117 5.03452Z" fill="white"/>
<path d="M27.8805 4.06026C28.1214 4.2946 28.3225 4.52477 28.4839 4.75078L28.1547 5.01397C28.0244 4.79924 27.828 4.56153 27.5657 4.30083L27.8805 4.06026ZM29.7692 7.88147C29.5544 7.859 29.3201 7.83047 29.0699 7.80028C28.8157 7.76967 28.6113 7.72416 28.4484 7.66691C28.2942 7.60252 28.1685 7.49687 28.0673 7.34955C28.0227 7.27651 27.9783 7.23969 27.9305 7.23469C27.8549 7.22679 27.7014 7.38768 27.465 7.72493L27.1882 7.41043C27.4204 7.11297 27.6167 6.92838 27.785 6.85751L27.899 5.76745L27.3738 5.71253L27.4138 5.33061L28.3248 5.4259L28.1663 6.94163L28.2019 6.98557C28.2786 7.09816 28.3618 7.1873 28.4479 7.24859C28.557 7.32033 28.7247 7.37005 28.9547 7.40214C29.181 7.42983 29.4471 7.46169 29.7495 7.49331C29.9484 7.51412 30.1477 7.53094 30.3546 7.55258C30.5583 7.56584 30.7143 7.57411 30.8226 7.57739L30.6802 7.97676L29.7692 7.88147ZM28.7098 4.70604L29.1315 4.75014L29.1935 4.15738L29.5953 4.1994L29.5333 4.79217L30.0346 4.8446L30.0957 4.25979L30.5015 4.30223L30.4403 4.88704L30.8978 4.93489L30.8575 5.32078L30.4 5.27293L30.3297 5.94527L30.9145 6.00643L30.8737 6.3963L30.2889 6.33514L30.1782 7.39337L29.7724 7.35092L29.8831 6.2927L29.2864 6.23028C29.1279 6.66818 28.8941 6.98155 28.5808 7.16998L28.3647 6.81357C28.5874 6.68403 28.7579 6.47664 28.8766 6.18742L28.4191 6.13957L28.4599 5.7497L28.9969 5.80587C29.0262 5.68023 29.0478 5.54978 29.0628 5.40656L29.0911 5.13604L28.6694 5.09193L28.7098 4.70604ZM29.4929 5.17806L29.4746 5.35311C29.4563 5.52815 29.4269 5.69399 29.3948 5.84748L29.9239 5.90282L29.9942 5.23049L29.4929 5.17806Z" fill="white"/>
<path d="M33.611 4.79564L34.0284 4.87026L33.9242 5.45302L34.8928 5.62618L34.8217 6.02387L33.8531 5.85071L33.744 6.46104L34.815 6.6525L34.7432 7.05413L33.4674 6.82607C33.1647 7.29207 32.9049 7.63165 32.6959 7.84621C33.1138 7.87217 33.5353 7.87844 33.9556 7.86825C33.8938 7.6459 33.8285 7.44323 33.757 7.25168L34.1787 7.18889C34.3367 7.62348 34.4629 8.07676 34.5559 8.55662L34.1351 8.66018C34.1078 8.51715 34.0792 8.382 34.053 8.25543C33.4452 8.26867 32.7951 8.24591 32.098 8.19037L32.0715 7.81586C32.113 7.81109 32.1426 7.8042 32.1644 7.79591C32.3566 7.67584 32.646 7.32938 33.0264 6.74723L32.1759 6.59519L32.2477 6.19356L33.3266 6.38643L33.4357 5.7761L32.5458 5.61702L32.6169 5.21932L33.5068 5.37841L33.611 4.79564ZM31.9293 4.51941C32.1461 4.76134 32.3243 4.99229 32.467 5.21691L32.1228 5.46014C32.0063 5.24832 31.8249 5.01273 31.5833 4.75012L31.9293 4.51941ZM31.6662 5.4232C31.8633 5.66161 32.025 5.89369 32.1552 6.12013L31.8078 6.35872C31.7023 6.15295 31.5414 5.91694 31.3241 5.65462L31.6662 5.4232ZM31.8214 6.60089L32.168 6.82133C31.9107 7.28326 31.6386 7.7141 31.3564 8.11063L30.9754 7.8556C31.2865 7.45612 31.569 7.03526 31.8214 6.60089Z" fill="white"/>
<path d="M35.5901 5.6911L36.1359 5.81626C36.1111 5.6382 36.0797 5.47095 36.0348 5.30881L36.468 5.33429C36.4946 5.50455 36.5168 5.6943 36.5336 5.90744L36.9858 6.01114L36.8964 6.40102L36.144 6.22849L36.0465 6.65346L36.7366 6.81169C36.5015 7.83708 36.3372 8.46422 36.2506 8.6988C36.1571 8.92769 35.9461 9.00653 35.6225 8.93233C35.5913 8.92518 35.5424 8.90576 35.4788 8.87887L35.4684 8.49482C35.5359 8.52261 35.5926 8.54382 35.6433 8.55544C35.7797 8.58673 35.8768 8.53922 35.9288 8.41982C35.9769 8.29953 36.0905 7.85775 36.2726 7.09926L35.9568 7.02685C35.7376 7.87533 35.4486 8.47387 35.0935 8.82335L34.8511 8.4846C35.1717 8.16005 35.4272 7.58255 35.6224 6.7491L35.7619 6.14088L35.5007 6.08098L35.5901 5.6911ZM37.4922 6.39809C37.3749 6.55175 37.2542 6.68414 37.1324 6.80394L37.4794 6.8835L37.3918 7.26559L37.6744 7.23191L37.813 6.62759L38.1873 6.71341L38.0791 7.18517L38.75 7.10508C38.5766 7.86145 38.4564 8.31403 38.3885 8.46673C38.3129 8.61765 38.1421 8.66466 37.8769 8.60387L37.873 8.60297L37.8464 8.23574C37.9127 8.25094 37.9703 8.26825 38.0249 8.28076C38.0561 8.28791 38.0845 8.2534 38.1084 8.185C38.1305 8.12441 38.1845 7.90697 38.2721 7.52489L37.9942 7.55556L37.7037 8.82268L37.3294 8.73686L37.5895 7.6023L37.3068 7.63597L37.0824 8.61458C37.0413 8.79393 37.0753 8.89611 37.1884 8.92204L37.9058 9.08653C37.9838 9.10441 38.0437 9.09353 38.0916 9.06348C38.1444 9.03043 38.2021 8.90412 38.2677 8.68937L38.5936 8.87899C38.4807 9.21014 38.3757 9.39947 38.2748 9.44608C38.1834 9.48669 38.0554 9.49016 37.8916 9.45262L36.9949 9.24701C36.7181 9.18354 36.6236 8.969 36.7077 8.60251L36.9195 7.67849L36.633 7.71128L36.717 7.34479L37.0036 7.312L37.1162 6.82075C37.042 6.89401 36.9647 6.96248 36.894 7.02014L36.7061 6.64054C36.9927 6.41078 37.2779 6.0617 37.5618 5.59329L37.9242 5.76667C37.8602 5.8669 37.801 5.96412 37.7387 6.05655L39.0604 6.3596L38.9737 6.73779L37.4922 6.39809Z" fill="white"/>
<path d="M41.0235 6.66107L42.9318 7.14197L42.8311 7.54148L40.9228 7.06058L41.0235 6.66107ZM40.688 7.59954L42.8562 8.14593L42.7555 8.54544L42.1582 8.39491L41.7486 10.0201C41.6841 10.2761 41.5083 10.3679 41.2213 10.2956L40.6589 10.1539L40.6694 9.73576C40.8439 9.79624 41.0116 9.85088 41.1745 9.89193C41.2793 9.91832 41.3433 9.89322 41.3629 9.81565L41.747 8.2913L40.5873 7.99905L40.688 7.59954ZM40.3945 6.30869L40.719 6.57609C40.4069 6.94707 39.9571 7.24212 39.3698 7.46123L39.3483 7.02269C39.7784 6.85469 40.1271 6.61669 40.3945 6.30869ZM40.352 7.24674L40.6736 7.50928C40.5219 7.68557 40.345 7.84725 40.143 7.99433L39.6581 9.91818L39.2586 9.8175L39.6428 8.29316C39.4835 8.36853 39.3126 8.44097 39.1389 8.50855L39.1154 8.07777C39.6261 7.8847 40.0389 7.6051 40.352 7.24674Z" fill="white"/>
<path d="M44.0753 10.1188L43.9793 10.4989C43.6017 10.5562 43.1884 10.5756 42.7325 10.5512L42.7762 10.1497C43.2631 10.1819 43.6948 10.1713 44.0753 10.1188ZM44.0842 7.20843L44.4154 7.44885C44.1447 7.8673 43.8907 8.20333 43.6543 8.45306C43.7591 8.46301 43.8677 8.47394 43.9735 8.48002C44.0698 8.35995 44.1681 8.23213 44.2722 8.09753L44.5918 8.31852C44.1676 8.83847 43.8252 9.21406 43.5637 9.44918C43.7839 9.45941 44.008 9.45413 44.2428 9.43917L44.1527 9.79597C43.7374 9.8231 43.3523 9.81247 43.0002 9.76894L42.9914 9.39541C43.0652 9.38104 43.1322 9.36083 43.1895 9.32992C43.3207 9.23516 43.4986 9.0532 43.7283 8.78115C43.5575 8.77103 43.3839 8.75606 43.2016 8.74301L43.1918 8.37336C43.2607 8.36189 43.3229 8.32808 43.386 8.27391C43.6313 7.95629 43.8611 7.60177 44.0842 7.20843ZM45.5999 8.2967L45.0996 8.17034L44.8557 9.13602L45.356 9.26237L45.5999 8.2967ZM45.2639 9.62693L44.7636 9.50057L44.5099 10.505L45.0102 10.6314L45.2639 9.62693ZM45.3748 10.7235L45.8595 10.8459L46.1132 9.84143L45.6285 9.719L45.3748 10.7235ZM45.7205 9.35444L46.2053 9.47688L46.4492 8.5112L45.9644 8.38877L45.7205 9.35444ZM45.7665 11.2143L44.4169 10.8735L44.362 11.0906L43.9936 10.9976L44.8252 7.70498L46.9233 8.23488L46.0917 11.5275L45.7116 11.4315L45.7665 11.2143Z" fill="white"/>
<path d="M49.294 8.63619L48.7162 11.1055L48.3189 11.0125L48.8056 8.93271L47.8241 8.70305L47.3292 10.8179L46.9359 10.7259L47.5219 8.22152L49.294 8.63619ZM48.1985 11.0706C48.3956 11.3345 48.5585 11.5862 48.6825 11.8288L48.3028 12.0645C48.2052 11.8322 48.0528 11.5706 47.8447 11.2836L48.1985 11.0706ZM48.0721 8.99523L48.4654 9.08727L48.182 10.2986C48.0589 10.7545 47.8788 11.1026 47.6475 11.3361C47.4208 11.55 47.1056 11.6858 46.7067 11.7403L46.5626 11.3205C46.9441 11.2701 47.2209 11.1582 47.3911 10.9926C47.5628 10.8027 47.6938 10.5417 47.7886 10.2065L48.0721 8.99523ZM49.5779 8.93268L49.9713 9.02472L49.4108 11.42L49.0174 11.328L49.5779 8.93268ZM49.5828 12.3353L49.0453 12.2095L49.0439 11.7943C49.2116 11.8499 49.3734 11.896 49.5253 11.9316C49.6343 11.9571 49.7016 11.9153 49.7262 11.8101L50.4334 8.78778L50.8385 8.88257L50.1067 12.0101C50.041 12.2905 49.8632 12.4009 49.5828 12.3353Z" fill="white"/>
<path d="M51.4901 8.9888L51.9384 10.9823L50.7625 12.6533L50.4555 12.4332L51.5343 10.9021L51.1223 9.07482L51.4901 8.9888ZM52.1728 9.12435L52.6211 11.1178L51.4452 12.7888L51.1381 12.5688L52.217 11.0376L51.7893 9.20725L52.1728 9.12435Z" fill="white"/>
<g clip-path="url(#clip0_253_4729)">
<path d="M4.38134 8.69658C4.09546 7.62965 2.99878 6.99648 1.93185 7.28237C0.864919 7.56825 0.231754 8.66492 0.517638 9.73185C0.803522 10.7988 1.9002 11.432 2.96713 11.1461C4.03406 10.8602 4.66722 9.76351 4.38134 8.69658Z" fill="white"/>
<path d="M3.11849 9.0349C3.21975 9.41284 2.99549 9.8013 2.61755 9.90257C2.23962 10.0038 1.85115 9.77955 1.74989 9.40162C1.64862 9.02369 1.8729 8.63522 2.25084 8.53396C2.62877 8.43269 3.01722 8.65697 3.11849 9.0349Z" fill="#485CC2"/>
<path fill-rule="evenodd" clip-rule="evenodd" d="M1.74692 9.04587C1.74668 9.18024 1.80702 9.44009 2.054 9.45883C2.30542 9.47789 2.41667 9.30045 2.44086 9.20935C2.47403 9.12483 2.59006 8.9598 2.78876 8.97569C2.98748 8.99159 3.07045 9.11985 3.08711 9.18201L3.13114 9.34634C3.14966 9.24598 3.14667 9.14004 3.1185 9.0349C3.01724 8.65697 2.62878 8.43269 2.25085 8.53396C1.99366 8.60287 1.80763 8.80478 1.74692 9.04587Z" fill="#D74B4B"/>
<path fill-rule="evenodd" clip-rule="evenodd" d="M0.856663 9.06524L1.10161 8.39229L1.20628 8.43039L0.961334 9.10334L0.856663 9.06524ZM1.03567 9.11605L1.28061 8.4431L1.38529 8.4812L1.14034 9.15414L1.03567 9.11605ZM1.44528 8.49511L1.20034 9.16806L1.30501 9.20616L1.54995 8.53321L1.44528 8.49511Z" fill="#333333"/>
<path fill-rule="evenodd" clip-rule="evenodd" d="M3.75444 8.28878L3.51676 8.08935L3.44424 8.1739L3.68285 8.37411L3.75444 8.28878ZM3.20584 7.82846L3.43143 8.01774L3.3589 8.1023L3.13425 7.91379L3.20584 7.82846ZM3.62483 8.42229L3.07623 7.96196L3.00462 8.0473L3.55322 8.50762L3.62483 8.42229ZM3.21106 8.44573L3.43663 8.63499L3.50822 8.54966L3.2836 8.36118L3.21106 8.44573ZM3.19826 8.28958L3.12574 8.37413L2.88802 8.17467L2.95962 8.08934L3.19826 8.28958Z" fill="#333333"/>
<path fill-rule="evenodd" clip-rule="evenodd" d="M3.9362 9.6548L4.04233 9.36325L3.93766 9.32514L3.83112 9.61784L3.9362 9.6548ZM3.89811 9.75948L3.79738 10.0362L3.69273 9.9981L3.79302 9.72252L3.89811 9.75948ZM3.49327 9.49902L3.59399 9.22232L3.69865 9.26043L3.59837 9.53598L3.49327 9.49902ZM3.56026 9.64065L3.45518 9.60369L3.34904 9.89528L3.45371 9.93337L3.56026 9.64065ZM3.86332 9.31243L3.76111 9.59322L3.65603 9.55626L3.75865 9.27434L3.86332 9.31243ZM3.61839 9.98539L3.72303 9.6979L3.61793 9.66094L3.51371 9.94729L3.61839 9.98539Z" fill="#333333"/>
<path fill-rule="evenodd" clip-rule="evenodd" d="M1.14455 10.1397L1.69315 10.6L1.76475 10.5147L1.21615 10.0544L1.14455 10.1397ZM1.39077 9.87882L1.93937 10.3391L2.01097 10.2538L1.46237 9.79349L1.39077 9.87882ZM1.27417 10.0062L1.50307 10.1983L1.5756 10.1137L1.34577 9.92087L1.27417 10.0062ZM1.82278 10.4665L1.58841 10.2699L1.66093 10.1853L1.89437 10.3812L1.82278 10.4665Z" fill="#333333"/>
</g>
<defs>
<clipPath id="clip0_253_4729">
<rect width="4" height="4" fill="white" transform="translate(0 7.8) rotate(-15)"/>
</clipPath>
</defs>
</svg>
