<svg width="69" height="13" viewBox="0 0 69 13" fill="none" xmlns="http://www.w3.org/2000/svg">
<path d="M6.44201 5.05101L6.82874 5.1172L6.48082 6.96438L7.62509 8.44734L7.32789 8.68046L6.08057 7.06207L6.44201 5.05101ZM7.11816 4.88598L7.48934 4.95596L7.15697 6.79934L8.30124 8.28231L8.00404 8.51543L6.75672 6.89704L7.11816 4.88598Z" fill="white"/>
<path d="M9.67248 5.0373L8.37249 5.30865L8.29076 4.91709L11.3097 4.28695L11.3914 4.67851L10.0875 4.95067L10.5763 7.29221L12.119 6.97019L12.2016 7.36567L8.6971 8.09715L8.61455 7.70167L10.1612 7.37884L9.67248 5.0373Z" fill="white"/>
<path d="M13.0722 3.71543L13.4859 3.6433L14.0238 6.72878L14.4572 6.65323L13.9194 3.56775L14.3332 3.49563L14.871 6.58111L16.0059 6.38329L16.0759 6.78523L12.5531 7.39929L12.483 6.99735L13.61 6.8009L13.0722 3.71543ZM15.1605 4.11882L15.5409 4.15808C15.5086 4.85803 15.4225 5.48208 15.2818 6.02632L14.8887 5.96084C15.0297 5.46527 15.1172 4.84909 15.1605 4.11882ZM12.4946 4.57133C12.783 5.06108 13.0654 5.63308 13.3372 6.28407L12.9786 6.43996C12.7375 5.84858 12.469 5.28634 12.1645 4.75068L12.4946 4.57133Z" fill="white"/>
<path d="M16.346 3.19379C16.6262 3.34823 16.8669 3.50824 17.0679 3.67383L16.8269 3.99861C16.6467 3.83815 16.405 3.67022 16.1027 3.50273L16.346 3.19379ZM15.9775 4.39286L16.8925 4.26405L17.1239 5.90784C17.2243 5.78868 17.3315 5.66049 17.4449 5.5193L17.6211 5.93883C17.3931 6.21329 17.1454 6.46226 16.8791 6.69365L16.6682 6.34362C16.7272 6.27473 16.7523 6.19445 16.74 6.10731L16.5443 4.71702L16.0333 4.78896L15.9775 4.39286ZM17.4625 4.66854L19.3954 4.39641L19.4484 4.7727C19.3854 5.12896 19.245 5.45168 19.0267 5.73691C19.2946 5.86077 19.6112 5.95758 19.981 6.03074L19.8093 6.41845C19.3989 6.31466 19.0456 6.18667 18.7568 6.02939C18.4785 6.29073 18.1268 6.51799 17.6936 6.71227L17.4148 6.39605C17.8061 6.21979 18.1295 6.02076 18.389 5.7984C18.0998 5.58059 17.8826 5.32842 17.744 5.03285L17.5182 5.06464L17.4625 4.66854ZM18.1322 4.9782C18.2511 5.19171 18.4227 5.3776 18.6543 5.53081C18.8307 5.32016 18.9567 5.09641 19.0353 4.85106L18.1322 4.9782ZM17.516 3.09774L18.9419 2.89699L19.0574 3.7169C19.0696 3.80404 19.1239 3.84488 19.2229 3.83094L19.5635 3.78299L19.6165 4.15927L19.165 4.22285C18.8679 4.26467 18.7018 4.14667 18.6628 3.8694L18.5886 3.3426L17.9786 3.42847L17.9937 3.53542C18.0517 3.94736 17.883 4.29831 17.4943 4.57923L17.1724 4.30139C17.4856 4.11591 17.6281 3.89389 17.5918 3.63643L17.516 3.09774Z" fill="white"/>
<path d="M21.2906 3.65527L22.3167 3.54517L22.1929 2.39179L22.6224 2.3457L22.7462 3.49908L23.7206 3.39453L23.765 3.80815L22.7906 3.91271L23.0193 6.04447L22.5898 6.09056L22.361 3.95879L21.3349 4.06889L21.2906 3.65527ZM20.4702 2.60881C20.7417 2.77681 20.9774 2.94865 21.1768 3.12035L20.9216 3.44141C20.7509 3.27467 20.5112 3.10326 20.2066 2.92675L20.4702 2.60881ZM20.0407 3.81753L20.9873 3.71597L21.1657 5.37843C21.2704 5.26662 21.3817 5.14203 21.4997 5.00466L21.6528 5.41869C21.4198 5.68506 21.1685 5.92927 20.8946 6.15176L20.6954 5.79497C20.7606 5.72763 20.7887 5.6522 20.7798 5.56868L20.6283 4.15679L20.0834 4.21525L20.0407 3.81753Z" fill="white"/>
<path d="M24.6958 2.14358L25.109 2.14481L25.0969 2.62705L27.4144 2.45396L27.4442 2.85285L25.0868 3.02892L25.0706 3.56361L27.2684 3.39946C27.3524 4.52433 27.3212 5.18048 27.1831 5.3713C27.044 5.55015 26.7235 5.66234 26.2248 5.69958C26.0932 5.70941 25.957 5.71156 25.8165 5.71002L25.6725 5.33971C25.8814 5.34417 26.0299 5.34511 26.1097 5.33915C26.5245 5.30817 26.7708 5.22159 26.8404 5.08001C26.9174 4.92985 26.93 4.50774 26.8785 3.81767L24.6367 3.98509L24.6958 2.14358ZM24.2008 4.5391L26.4465 4.37138L26.4763 4.77026L24.2306 4.93799L24.2008 4.5391Z" fill="white"/>
<path d="M30.5252 2.98891L30.5815 4.29971L29.1708 4.36024L29.1972 4.97567C29.2015 5.07558 29.2597 5.12513 29.3795 5.11999L31.1939 5.04213C31.2735 5.03071 31.324 4.99651 31.3494 4.93537C31.3675 4.89055 31.3855 4.74965 31.3995 4.51684L31.8008 4.63174C31.7832 4.87272 31.7584 5.04193 31.7267 5.14339C31.678 5.31363 31.5539 5.40704 31.3464 5.42395L29.2203 5.51517C28.9406 5.52718 28.7954 5.40929 28.7848 5.16152L28.7028 3.25128C28.6267 3.34263 28.5543 3.42981 28.4778 3.51316L28.167 3.17418C28.4977 2.85571 28.7747 2.40742 29.0065 1.83696L29.4342 1.9147C29.391 2.02865 29.3437 2.13878 29.3002 2.24474L31.4662 2.1518C31.5118 3.21482 31.516 3.87125 31.4866 4.12074C31.4573 4.37022 31.295 4.50531 30.9992 4.518C30.9513 4.52006 30.863 4.51584 30.7426 4.50899L30.6268 4.14162C30.7392 4.14881 30.8354 4.15268 30.9153 4.14925C31.0113 4.14514 31.0645 4.0788 31.075 3.95023C31.0931 3.81333 31.0854 3.35323 31.0596 2.56561L29.0974 2.64981C29.0156 2.79745 28.9334 2.9331 28.8468 3.06093L30.5252 2.98891ZM29.1547 3.98458L30.1458 3.94206L30.1217 3.38257L29.1307 3.4251L29.1547 3.98458Z" fill="white"/>
<path d="M33.0854 1.73301L33.5094 1.72795L33.5312 3.55982L33.1073 3.56488L33.1014 3.07692C32.8749 3.20363 32.6163 3.32273 32.3217 3.43425L32.1532 3.06024C32.5079 2.952 32.8224 2.82423 33.0967 2.67695L33.0854 1.73301ZM33.6823 2.14192L34.4783 2.13241L34.4732 1.70844L34.8932 1.70343L34.8982 2.1274L35.6902 2.11794L35.6946 2.48992L34.9027 2.49937L34.9083 2.97134L35.5883 2.96322L35.5927 3.33519L33.8208 3.35635L33.8164 2.98438L34.4883 2.97635L34.4827 2.50439L33.6868 2.51389L33.6823 2.14192ZM32.4233 1.89293C32.6484 1.99025 32.8539 2.1078 33.0396 2.2496L32.8394 2.57601C32.6296 2.4225 32.4202 2.305 32.2071 2.21953L32.4233 1.89293ZM32.1692 3.7321L33.8091 3.71251C33.7602 3.63709 33.7073 3.56572 33.6505 3.49839L34.033 3.36582C34.1142 3.46885 34.1836 3.58403 34.249 3.70726L35.7449 3.6894L35.7494 4.06537L35.2375 4.07149L35.5043 4.30432C35.3621 4.45803 35.1957 4.59602 35.0092 4.71826C35.2429 4.86348 35.5083 4.97632 35.8053 5.06078L35.5656 5.42366C34.8387 5.18433 34.3015 4.74671 33.9539 4.11481C33.7998 4.27667 33.6135 4.4229 33.3991 4.55747L33.4042 4.98544C33.6795 4.92215 33.9386 4.84705 34.1857 4.76409L34.254 5.1313C33.8953 5.23959 33.4565 5.34484 32.9457 5.44695L32.8535 5.09202C32.9649 5.04669 33.0241 4.97798 33.0231 4.88998L33.0216 4.76199C32.8227 4.85637 32.6117 4.9429 32.3806 5.02166L32.1604 4.67227C32.7586 4.51311 33.2083 4.31973 33.5136 4.09207L32.1737 4.10807L32.1692 3.7321ZM34.3375 4.08223C34.4434 4.24098 34.5691 4.37949 34.7105 4.49781C34.893 4.37162 35.0513 4.22972 35.1855 4.07211L34.3375 4.08223Z" fill="white"/>
<path d="M36.5194 3.35575C36.4213 3.47803 36.3191 3.59624 36.213 3.71438L36.081 3.26397C36.4569 2.82256 36.7341 2.30338 36.9208 1.69859L37.2976 1.88528C37.2045 2.17168 37.0836 2.44958 36.9429 2.71114L36.8949 5.42271L36.483 5.41542L36.5194 3.35575ZM37.4742 1.8484L39.5659 1.88541L39.5415 3.2652L38.7576 3.25133L38.7481 3.79124L39.6359 3.80695L39.6291 4.19089L38.7413 4.17518L38.7272 4.97106C38.8469 4.98918 38.9907 4.99973 39.1506 5.01056C39.3585 5.01424 39.5746 5.01406 39.7907 5.00988L39.7077 5.40447L39.3357 5.39789C38.7439 5.38342 38.345 5.31635 38.135 5.20062C37.9289 5.09295 37.7598 4.92994 37.6278 4.70357C37.5146 4.99361 37.3782 5.24323 37.2224 5.45251L36.9604 5.11182C37.2397 4.7007 37.4335 4.15204 37.5417 3.46185L37.9364 3.53684C37.8919 3.7921 37.8398 4.02721 37.7798 4.25018C37.8335 4.38315 37.9033 4.50441 37.9934 4.61402C38.0875 4.7197 38.1982 4.79767 38.3172 4.85579L38.3457 3.24404L37.4498 3.22819L37.4742 1.8484ZM39.1444 2.87411L39.1552 2.26221L37.8754 2.23956L37.8646 2.85147L39.1444 2.87411Z" fill="white"/>
<path d="M40.7091 1.82911C40.962 2.05048 41.1749 2.26978 41.3479 2.48701L41.033 2.76711C40.8916 2.55952 40.683 2.33243 40.4074 2.08586L40.7091 1.82911ZM42.7957 5.54593C42.58 5.53477 42.3445 5.51858 42.0931 5.50156C41.8376 5.48433 41.6312 5.44961 41.4654 5.40098C41.3081 5.34477 41.1771 5.24587 41.0683 5.10405C41.0199 5.03346 40.9736 4.99902 40.9256 4.99654C40.8497 4.99261 40.7048 5.16134 40.4865 5.51052L40.1936 5.21098C40.4098 4.90175 40.5962 4.70712 40.7605 4.62751L40.8171 3.53297L40.2898 3.50568L40.3097 3.12219L41.2245 3.16954L41.1457 4.6915L41.1836 4.73352C41.2661 4.84193 41.3538 4.92657 41.443 4.98326C41.5558 5.04918 41.7259 5.09002 41.9571 5.11001C42.1846 5.12579 42.4521 5.14363 42.7557 5.15935C42.9554 5.16968 43.1553 5.17603 43.3631 5.18678C43.5672 5.18933 43.7234 5.18941 43.8317 5.187L43.7105 5.59328L42.7957 5.54593ZM41.5711 2.43047L41.9946 2.45239L42.0254 1.85718L42.4288 1.87807L42.398 2.47327L42.9014 2.49932L42.9317 1.91211L43.3392 1.9332L43.3088 2.52041L43.7682 2.54419L43.7481 2.93167L43.2888 2.90789L43.2538 3.58299L43.841 3.61338L43.8208 4.00486L43.2335 3.97446L43.1786 5.03704L42.7711 5.01595L42.8261 3.95337L42.2269 3.92236C42.0917 4.36797 41.8746 4.69318 41.5716 4.89779L41.3371 4.55321C41.5527 4.41217 41.7121 4.19612 41.8154 3.90106L41.3561 3.87729L41.3763 3.48581L41.9156 3.51372C41.9382 3.38672 41.953 3.25531 41.9605 3.1115L41.9745 2.83987L41.5511 2.81795L41.5711 2.43047ZM42.378 2.86075L42.3689 3.03652C42.3598 3.21228 42.3391 3.37944 42.3151 3.5344L42.8464 3.5619L42.8813 2.8868L42.378 2.86075Z" fill="white"/>
<path d="M46.4961 2.19975L46.9182 2.24026L46.8616 2.82955L47.8411 2.92356L47.8025 3.32572L46.823 3.2317L46.7638 3.84887L47.8468 3.95282L47.8078 4.35895L46.5178 4.23513C46.2538 4.72415 46.0224 5.08368 45.8315 5.3145C46.2502 5.30646 46.6708 5.27852 47.0889 5.23427C47.0092 5.01766 46.9277 4.82097 46.8409 4.63584L47.2561 4.53906C47.4488 4.9594 47.6114 5.40095 47.743 5.87168L47.332 6.00904C47.2932 5.86869 47.2537 5.73631 47.2174 5.61227C46.6126 5.67478 45.9628 5.70483 45.2635 5.70602L45.2067 5.3349C45.2476 5.32677 45.2767 5.3175 45.2977 5.30747C45.4795 5.17222 45.7399 4.80341 46.0718 4.19233L45.2118 4.10978L45.2507 3.70364L46.3417 3.80836L46.401 3.19119L45.5011 3.10482L45.5397 2.70267L46.4396 2.78904L46.4961 2.19975ZM44.7976 2.06084C45.0333 2.28438 45.2296 2.50012 45.3901 2.71242L45.0668 2.98277C44.9334 2.78111 44.7335 2.561 44.4715 2.31886L44.7976 2.06084ZM44.6087 2.983C44.8245 3.20463 45.0044 3.42283 45.1526 3.63796L44.8257 3.90395C44.7039 3.70741 44.5243 3.48524 44.2865 3.2414L44.6087 2.983ZM44.8589 4.14422L45.2222 4.33581C45.0032 4.81709 44.767 5.26859 44.5179 5.6867L44.1174 5.46342C44.3951 5.04001 44.6425 4.59763 44.8589 4.14422Z" fill="white"/>
<path d="M48.6219 2.93146L49.1755 3.01564C49.1375 2.83992 49.0937 2.67547 49.0369 2.51713L49.4708 2.51028C49.51 2.67809 49.5463 2.86566 49.5789 3.07696L50.0376 3.14671L49.9775 3.54217L49.2142 3.42612L49.1487 3.85717L49.8487 3.96359C49.6905 5.00364 49.5733 5.64127 49.5044 5.88164C49.4282 6.11686 49.2237 6.21119 48.8955 6.16128C48.8638 6.15647 48.8136 6.14075 48.7482 6.11866L48.7092 5.73646C48.7786 5.75915 48.8367 5.77607 48.8881 5.78389C49.0265 5.80493 49.1198 5.75033 49.1628 5.6274C49.2018 5.50386 49.2822 5.05484 49.4073 4.28491L49.087 4.2362C48.9316 5.09864 48.6879 5.71703 48.3598 6.09198L48.0928 5.77221C48.3884 5.4247 48.6003 4.82978 48.7329 3.98411L48.8267 3.3672L48.5617 3.32691L48.6219 2.93146ZM50.5713 3.4949C50.4658 3.65687 50.3553 3.79787 50.2427 3.92641L50.5947 3.97992L50.5358 4.36747L50.8151 4.31284L50.9083 3.69989L51.288 3.75761L51.2152 4.23611L51.8783 4.1063C51.7616 4.87348 51.6755 5.33376 51.6192 5.49109C51.555 5.64721 51.3881 5.70681 51.1192 5.66592L51.1153 5.66532L51.0614 5.30109C51.1286 5.31131 51.1873 5.32428 51.2427 5.3327C51.2743 5.33751 51.3001 5.30097 51.3189 5.23099C51.3364 5.16892 51.374 4.94807 51.4329 4.56052L51.1581 4.61179L50.9627 5.89702L50.5831 5.8393L50.758 4.68852L50.4786 4.74315L50.3277 5.73574C50.3001 5.91765 50.3416 6.01702 50.4563 6.03446L51.1839 6.14509C51.263 6.15712 51.322 6.14181 51.3675 6.10828C51.4176 6.07139 51.4658 5.94114 51.5153 5.72209L51.8543 5.88694C51.7664 6.22557 51.6759 6.42219 51.5786 6.47619C51.4905 6.52348 51.3631 6.53648 51.197 6.51122L50.2875 6.37293C50.0067 6.33024 49.8966 6.12333 49.9531 5.7516L50.0956 4.81438L49.8122 4.8684L49.8688 4.49667L50.1521 4.44265L50.2279 3.94437C50.1593 4.02296 50.0873 4.09698 50.0211 4.15975L49.8055 3.79519C50.0742 3.54473 50.3326 3.17539 50.5809 2.68715L50.9552 2.83308C50.8988 2.93779 50.847 3.03915 50.7918 3.13596L52.1324 3.33979L52.0741 3.72338L50.5713 3.4949Z" fill="white"/>
<path d="M54.0408 3.53713L55.9655 3.94791L55.8795 4.35083L53.9548 3.94005L54.0408 3.53713ZM53.7399 4.48724L55.9266 4.95396L55.8406 5.35689L55.2382 5.22831L54.8884 6.86739C54.8333 7.12558 54.661 7.22378 54.3715 7.16199L53.8043 7.04093L53.7994 6.62271C53.9761 6.67677 54.1457 6.72524 54.31 6.76031C54.4156 6.78285 54.4787 6.75542 54.4954 6.67718L54.8235 5.13981L53.6539 4.89017L53.7399 4.48724ZM53.3994 3.20799L53.7334 3.46335C53.4351 3.84549 52.9965 4.15679 52.4175 4.39725L52.38 3.95978C52.8037 3.77616 53.1435 3.52557 53.3994 3.20799ZM53.3912 4.14697L53.7222 4.39758C53.5771 4.57929 53.4062 4.74733 53.2097 4.9017L52.7956 6.842L52.3926 6.75601L52.7208 5.21863C52.5644 5.29978 52.3963 5.37842 52.2251 5.45231L52.1859 5.02267C52.6891 4.81105 53.0915 4.51655 53.3912 4.14697Z" fill="white"/>
<path d="M57.1762 6.95029L57.0721 7.32823C56.6935 7.37747 56.2798 7.38804 55.8246 7.35395L55.8768 6.95343C56.3629 6.99602 56.7948 6.99462 57.1762 6.95029ZM57.2472 4.04073L57.5732 4.28816C57.2936 4.70075 57.0325 5.03129 56.7909 5.27592C56.8954 5.2881 57.0038 5.30135 57.1094 5.30968C57.2082 5.19169 57.3092 5.06599 57.4162 4.93364L57.731 5.16139C57.2958 5.67218 56.9455 6.04039 56.679 6.26988C56.8989 6.2848 57.1231 6.2843 57.3582 6.27435L57.2605 6.62915C56.8447 6.64742 56.4599 6.62859 56.1089 6.57757L56.108 6.20394C56.1821 6.19114 56.2495 6.17236 56.3074 6.14268C56.4406 6.05074 56.6224 5.87261 56.8578 5.60551C56.6873 5.59176 56.5141 5.57309 56.332 5.55616L56.3301 5.18639C56.3993 5.17638 56.4621 5.14391 56.5265 5.09109C56.7784 4.77877 57.0157 4.42923 57.2472 4.04073ZM58.7393 5.16105L58.2418 5.02407L57.9774 5.98433L58.4749 6.12131L58.7393 5.16105ZM58.3751 6.48382L57.8776 6.34684L57.6025 7.34566L58.1 7.48265L58.3751 6.48382ZM58.4625 7.58247L58.9446 7.7152L59.2196 6.71638L58.7376 6.58364L58.4625 7.58247ZM58.8374 6.22113L59.3195 6.35387L59.5839 5.39361L59.1018 5.26087L58.8374 6.22113ZM58.8437 8.08157L57.5017 7.71203L57.4422 7.92799L57.0758 7.82711L57.9774 4.55297L60.0637 5.12745L59.1622 8.4016L58.7843 8.29753L58.8437 8.08157Z" fill="white"/>
<path d="M62.5464 5.75718L61.7588 8.16778L61.3709 8.04107L62.0343 6.01069L61.0762 5.69764L60.4016 7.76224L60.0176 7.63677L60.8164 5.19195L62.5464 5.75718ZM61.246 8.08862C61.4197 8.3684 61.5604 8.63319 61.6631 8.88557L61.2646 9.0878C61.1873 8.84793 61.0579 8.57421 60.8752 8.27045L61.246 8.08862ZM61.2981 6.01002L61.6821 6.13549L61.2958 7.31797C61.134 7.76167 60.9247 8.09306 60.6743 8.3058C60.43 8.49953 60.1043 8.60772 59.7022 8.62783L59.5946 8.19713C59.9791 8.17966 60.2644 8.09194 60.4482 7.94158C60.6357 7.76717 60.7885 7.51833 60.9118 7.19251L61.2981 6.01002ZM62.8038 6.07694L63.1878 6.20241L62.4238 8.54076L62.0398 8.41529L62.8038 6.07694ZM62.5166 9.46741L61.9919 9.29597L62.0261 8.88214C62.1885 8.95201 62.3457 9.01178 62.494 9.06023C62.6004 9.09502 62.671 9.05918 62.7046 8.95652L63.6686 6.006L64.064 6.1352L63.0665 9.18837C62.977 9.46213 62.7904 9.55685 62.5166 9.46741Z" fill="white"/>
<path d="M64.8515 6.37676L64.9941 8.41506L63.5796 9.88961L63.3093 9.62582L64.6067 8.2748L64.4749 6.40633L64.8515 6.37676ZM65.5059 6.6137L65.6485 8.652L64.2341 10.1265L63.9637 9.86276L65.2612 8.51174L65.1143 6.63783L65.5059 6.6137Z" fill="white"/>
<g clip-path="url(#clip0_253_4518)">
<path d="M5.05721 7.58337C4.75275 6.52159 3.64519 5.90766 2.58341 6.21212C1.52163 6.51658 0.907703 7.62414 1.21216 8.68592C1.51662 9.7477 2.62418 10.3616 3.68596 10.0572C4.74774 9.7527 5.36167 8.64515 5.05721 7.58337Z" fill="white"/>
<path d="M3.80043 7.94368C3.90828 8.31979 3.69082 8.71211 3.31471 8.81995C2.93861 8.9278 2.54628 8.71033 2.43844 8.33422C2.33059 7.95812 2.54806 7.5658 2.92417 7.45795C3.30028 7.3501 3.69258 7.56757 3.80043 7.94368Z" fill="#485CC2"/>
<path fill-rule="evenodd" clip-rule="evenodd" d="M2.42929 7.97859C2.43139 8.11294 2.49626 8.3717 2.74353 8.38612C2.99524 8.40079 3.10337 8.22143 3.12598 8.12993C3.15767 8.04484 3.27079 7.87781 3.46974 7.89024C3.66871 7.90266 3.75391 8.02945 3.77164 8.09131L3.81854 8.25485C3.83531 8.15418 3.83047 8.04831 3.80047 7.94368C3.69262 7.56758 3.30031 7.3501 2.9242 7.45795C2.66825 7.53135 2.48578 7.73648 2.42929 7.97859Z" fill="#D74B4B"/>
<path fill-rule="evenodd" clip-rule="evenodd" d="M1.5395 8.01349L1.77266 7.33636L1.87798 7.37263L1.64482 8.04975L1.5395 8.01349ZM1.71937 8.06116L1.95253 7.38404L2.05785 7.42031L1.82469 8.09743L1.71937 8.06116ZM2.11808 7.43317L1.88492 8.11029L1.99024 8.14656L2.2234 7.46943L2.11808 7.43317Z" fill="#333333"/>
<path fill-rule="evenodd" clip-rule="evenodd" d="M4.42326 7.18657L4.18213 6.99132L4.1111 7.07712L4.35317 7.27314L4.42326 7.18657ZM3.86671 6.7359L4.09557 6.92121L4.02452 7.00702L3.79662 6.82246L3.86671 6.7359ZM4.296 7.32232L3.73945 6.87164L3.66934 6.95821L4.22589 7.40889L4.296 7.32232ZM3.8827 7.35299L4.11154 7.53827L4.18163 7.45171L3.95376 7.26718L3.8827 7.35299ZM3.86718 7.19708L3.79614 7.28288L3.55498 7.0876L3.62508 7.00104L3.86718 7.19708Z" fill="#333333"/>
<path fill-rule="evenodd" clip-rule="evenodd" d="M4.62886 8.54921L4.72987 8.25586L4.62456 8.21958L4.52315 8.51409L4.62886 8.54921ZM4.5926 8.65454L4.49671 8.93297L4.39141 8.89671L4.48687 8.61942L4.5926 8.65454ZM4.18327 8.40118L4.27915 8.12277L4.38446 8.15905L4.289 8.4363L4.18327 8.40118ZM4.25273 8.54163L4.14702 8.50651L4.04598 8.79991L4.1513 8.83616L4.25273 8.54163ZM4.55001 8.20817L4.45272 8.4907L4.34701 8.45557L4.44469 8.17191L4.55001 8.20817ZM4.31686 8.8853L4.41646 8.59602L4.31074 8.5609L4.21153 8.84903L4.31686 8.8853Z" fill="#333333"/>
<path fill-rule="evenodd" clip-rule="evenodd" d="M1.84612 9.08277L2.40267 9.53344L2.47277 9.44688L1.91621 8.99619L1.84612 9.08277ZM2.08775 8.81763L2.6443 9.2683L2.7144 9.18174L2.15784 8.73105L2.08775 8.81763ZM1.97339 8.94701L2.20561 9.13506L2.27664 9.04925L2.04349 8.86045L1.97339 8.94701ZM2.52994 9.3977L2.29218 9.20516L2.36322 9.11935L2.60004 9.31112L2.52994 9.3977Z" fill="#333333"/>
</g>
<defs>
<clipPath id="clip0_253_4518">
<rect width="4" height="4" fill="white" transform="translate(0.660889 6.76339) rotate(-16)"/>
</clipPath>
</defs>
</svg>
