<svg width="64" height="10" viewBox="0 0 64 10" fill="none" xmlns="http://www.w3.org/2000/svg">
<g clip-path="url(#clip0_253_4575)">
<path d="M4.65101 6.41791C4.25517 5.38671 3.09832 4.87164 2.06711 5.26749C1.03591 5.66333 0.520845 6.82018 0.916687 7.85138C1.31253 8.88259 2.46938 9.39765 3.50058 9.00181C4.53179 8.60597 5.04685 7.44912 4.65101 6.41791Z" fill="white"/>
<path d="M3.43041 6.88638C3.57063 7.25166 3.3882 7.66144 3.02292 7.80166C2.65764 7.94187 2.24786 7.75943 2.10764 7.39415C1.96743 7.02887 2.14987 6.61909 2.51515 6.47887C2.88043 6.33866 3.2902 6.52111 3.43041 6.88638Z" fill="#485CC2"/>
<path fill-rule="evenodd" clip-rule="evenodd" d="M2.06753 7.04066C2.08134 7.17432 2.16851 7.42644 2.4161 7.41926C2.66813 7.41193 2.76022 7.22384 2.77476 7.13071C2.79892 7.04319 2.89705 6.86693 3.09633 6.86197C3.29562 6.857 3.39154 6.97589 3.41461 7.03596L3.47558 7.1948C3.4835 7.09305 3.46946 6.988 3.43045 6.88638C3.29024 6.52111 2.88047 6.33866 2.51519 6.47888C2.26661 6.5743 2.1027 6.79455 2.06753 7.04066Z" fill="#D74B4B"/>
<path fill-rule="evenodd" clip-rule="evenodd" d="M1.1841 7.15298L1.35736 6.45812L1.46544 6.48506L1.29218 7.17993L1.1841 7.15298ZM1.36744 7.1848L1.5407 6.48993L1.64878 6.51688L1.47552 7.21175L1.36744 7.1848ZM1.7099 6.52445L1.53664 7.21931L1.64472 7.24626L1.81798 6.5514L1.7099 6.52445Z" fill="#333333"/>
<path fill-rule="evenodd" clip-rule="evenodd" d="M3.98496 6.07788L3.72774 5.90438L3.66445 5.99605L3.92269 6.17022L3.98496 6.07788ZM3.39125 5.67742L3.6354 5.84209L3.57209 5.93376L3.32898 5.76977L3.39125 5.67742ZM3.87002 6.2242L3.27631 5.82374L3.21401 5.91609L3.80772 6.31655L3.87002 6.2242ZM3.46097 6.29077L3.70509 6.45541L3.76736 6.36307L3.52427 6.19909L3.46097 6.29077ZM3.43192 6.13681L3.36863 6.22847L3.11136 6.05496L3.17365 5.96261L3.43192 6.13681Z" fill="#333333"/>
<path fill-rule="evenodd" clip-rule="evenodd" d="M4.30847 7.41741L4.38354 7.11637L4.27547 7.08941L4.2001 7.39164L4.30847 7.41741ZM4.28153 7.5255L4.21028 7.81123L4.10221 7.78428L4.17315 7.49973L4.28153 7.5255ZM3.85168 7.30878L3.92293 7.02307L4.031 7.05003L3.96007 7.33455L3.85168 7.30878ZM3.93311 7.44264L3.82475 7.41686L3.74966 7.71795L3.85774 7.74489L3.93311 7.44264ZM4.20021 7.08454L4.12791 7.37447L4.01954 7.3487L4.09212 7.0576L4.20021 7.08454ZM4.02695 7.77941L4.10097 7.48255L3.99258 7.45678L3.91886 7.75246L4.02695 7.77941Z" fill="#333333"/>
<path fill-rule="evenodd" clip-rule="evenodd" d="M1.5828 8.19147L2.17651 8.59192L2.2388 8.49958L1.64508 8.09912L1.5828 8.19147ZM1.8004 7.90628L2.39411 8.30673L2.4564 8.21439L1.86269 7.81393L1.8004 7.90628ZM1.69775 8.04514L1.94548 8.21223L2.00877 8.12056L1.76005 7.9528L1.69775 8.04514ZM2.29147 8.4456L2.03783 8.27452L2.10112 8.18285L2.35376 8.35325L2.29147 8.4456Z" fill="#333333"/>
</g>
<path d="M5.80645 4.07177L6.19304 4.13875L5.8413 5.98521L6.98251 7.47053L6.68483 7.70304L5.44085 6.08208L5.80645 4.07177ZM6.48294 3.90813L6.85398 3.97888L6.51779 5.82157L7.659 7.3069L7.36132 7.5394L6.11734 5.91844L6.48294 3.90813Z" fill="white"/>
<path d="M8.93223 4.05487L7.63633 4.34508L7.54892 3.95474L10.5584 3.28081L10.6458 3.67114L9.34599 3.96222L9.86871 6.2964L11.4066 5.952L11.4949 6.34624L8.00143 7.12857L7.91314 6.73433L9.45495 6.38906L8.93223 4.05487Z" fill="white"/>
<path d="M12.3884 2.65684L12.8007 2.57647L13.4 5.65059L13.8319 5.5664L13.2325 2.49227L13.6448 2.41191L14.2441 5.48603L15.3748 5.26559L15.4529 5.66605L11.943 6.35033L11.8649 5.94987L12.9878 5.73096L12.3884 2.65684ZM14.4844 3.01846L14.8655 3.05012C14.8472 3.75057 14.7735 4.37622 14.6438 4.92315L14.2495 4.86554C14.3805 4.36725 14.4557 3.74945 14.4844 3.01846ZM11.828 3.5241C12.1261 4.008 12.4199 4.57424 12.7047 5.21968L12.3493 5.38269C12.0964 4.79625 11.8167 4.23948 11.5016 3.71L11.828 3.5241Z" fill="white"/>
<path d="M15.7511 2.05412C16.0337 2.20422 16.2768 2.36051 16.4804 2.52298L16.2444 2.85144C16.0618 2.69377 15.8174 2.52958 15.5126 2.36676L15.7511 2.05412ZM15.4012 3.25872L16.3141 3.11583L16.5708 4.75587C16.6693 4.63518 16.7745 4.50535 16.8857 4.36243L17.0684 4.7792C16.8447 5.05714 16.6008 5.30989 16.3381 5.54535L16.1218 5.19862C16.1798 5.12882 16.2036 5.04817 16.19 4.96123L15.9728 3.57412L15.463 3.65391L15.4012 3.25872ZM16.8902 3.5115L18.8187 3.20965L18.8775 3.58508C18.82 3.94226 18.6846 4.2671 18.4707 4.55566C18.7404 4.67538 19.0585 4.76731 19.4294 4.83477L19.2637 5.22507C18.8517 5.12762 18.4965 5.00507 18.2053 4.85226C17.9311 5.11786 17.5829 5.3505 17.1528 5.55143L16.8692 5.23954C17.2577 5.05727 17.578 4.85329 17.834 4.62697C17.5415 4.41363 17.3204 4.16484 17.1773 3.87143L16.9521 3.90669L16.8902 3.5115ZM17.5646 3.81082C17.6868 4.02246 17.8612 4.20569 18.0952 4.35532C18.2683 4.14198 18.3908 3.91631 18.4656 3.66978L17.5646 3.81082ZM16.9195 1.94006L18.3422 1.71738L18.4703 2.53542C18.4839 2.62236 18.5387 2.66236 18.6375 2.6469L18.9774 2.5937L19.0361 2.96913L18.5856 3.03965C18.2892 3.08604 18.1214 2.97061 18.0781 2.69398L17.9958 2.16838L17.3872 2.26364L17.4039 2.37034C17.4682 2.78133 17.3049 3.13484 16.9207 3.42171L16.5946 3.14886C16.9049 2.95858 17.0439 2.73439 17.0037 2.47752L16.9195 1.94006Z" fill="white"/>
<path d="M20.5901 2.47014L21.6158 2.35578L21.4872 1.20293L21.9165 1.15505L22.0451 2.30791L23.0191 2.19931L23.0652 2.61275L22.0912 2.72135L22.3288 4.85214L21.8994 4.90001L21.6619 2.76922L20.6362 2.88358L20.5901 2.47014ZM19.7654 1.4271C20.0376 1.59397 20.274 1.76483 20.4742 1.9357L20.2203 2.25781C20.0488 2.09179 19.8085 1.92138 19.5032 1.74613L19.7654 1.4271ZM19.341 2.63759L20.2871 2.5321L20.4724 4.1938C20.5766 4.08156 20.6874 3.95651 20.8049 3.81865L20.9596 4.23204C20.7278 4.49938 20.4775 4.74463 20.2046 4.96825L20.0039 4.6123C20.0688 4.54469 20.0966 4.46914 20.0873 4.38566L19.9299 2.9744L19.3853 3.03513L19.341 2.63759Z" fill="white"/>
<path d="M23.9978 0.956828L24.411 0.963006L24.3931 1.44507L26.7125 1.29976L26.7375 1.69898L24.3782 1.84679L24.3555 2.38125L26.5552 2.24345C26.6258 3.36924 26.5867 4.02496 26.4462 4.21412C26.305 4.39129 25.9832 4.49963 25.4842 4.53089C25.3524 4.53914 25.2162 4.53966 25.0757 4.53644L24.9362 4.16443C25.145 4.17139 25.2935 4.17411 25.3733 4.16911C25.7885 4.1431 26.0358 4.05948 26.1071 3.91874C26.1859 3.76952 26.2036 3.34759 26.1603 2.65695L23.9167 2.7975L23.9978 0.956828ZM23.4742 3.34624L25.7218 3.20544L25.7468 3.60466L23.4992 3.74546L23.4742 3.34624Z" fill="white"/>
<path d="M29.8664 1.91497L29.8841 3.22685L28.4722 3.24588L28.4805 3.86182C28.4819 3.96181 28.5386 4.01305 28.6586 4.01143L30.4744 3.98696C30.5543 3.97788 30.6059 3.94518 30.633 3.88481C30.6525 3.84055 30.6746 3.70024 30.6954 3.46793L31.0932 3.59458C31.0684 3.83494 31.0387 4.00336 31.004 4.10383C30.9503 4.27257 30.8235 4.36229 30.6156 4.37309L28.4878 4.40177C28.2078 4.40555 28.0662 4.28344 28.0628 4.03547L28.0371 2.12364C27.9583 2.21271 27.8834 2.29773 27.8045 2.3788L27.5038 2.03082C27.8436 1.72221 28.1337 1.28226 28.3822 0.718861L28.8074 0.809137C28.7609 0.921774 28.7104 1.03047 28.6638 1.1351L30.8316 1.10588C30.846 2.16979 30.8308 2.82605 30.7941 3.07457C30.7575 3.32308 30.5912 3.45334 30.2953 3.45733C30.2473 3.45797 30.1592 3.45116 30.039 3.44078L29.934 3.07016C30.0462 3.08065 30.1423 3.08735 30.2222 3.08628C30.3182 3.08498 30.3734 3.02023 30.3876 2.89203C30.4098 2.75572 30.4156 2.2956 30.413 1.50756L28.4492 1.53403C28.3631 1.6792 28.2769 1.81238 28.1866 1.93761L29.8664 1.91497ZM28.4672 2.86991L29.4591 2.85654L29.4515 2.29659L28.4596 2.30996L28.4672 2.86991Z" fill="white"/>
<path d="M32.4545 0.740393L32.8784 0.745419L32.8567 2.57729L32.4328 2.57226L32.4385 2.0843C32.2091 2.20559 31.9477 2.3185 31.6505 2.42298L31.4909 2.04506C31.8481 1.94529 32.1656 1.82504 32.4433 1.68433L32.4545 0.740393ZM33.0415 1.16338L33.8374 1.17282L33.8425 0.748846L34.2624 0.753824L34.2574 1.17779L35.0494 1.18718L35.0449 1.55916L34.253 1.54977L34.2474 2.02174L34.9274 2.0298L34.9229 2.40177L33.1511 2.38077L33.1555 2.00879L33.8274 2.01676L33.833 1.54479L33.0371 1.53535L33.0415 1.16338ZM31.7887 0.884511C32.0115 0.98716 32.2141 1.10957 32.3964 1.25574L32.1885 1.5773C31.9824 1.41884 31.7758 1.29639 31.5649 1.20588L31.7887 0.884511ZM31.491 2.71711L33.1309 2.73655C33.0838 2.65999 33.0326 2.58738 32.9774 2.51872L33.3629 2.39528C33.4417 2.50022 33.5083 2.61702 33.5708 2.74177L35.0667 2.7595L35.0623 3.13547L34.5503 3.1294L34.8115 3.36852C34.6657 3.5188 34.4961 3.6528 34.3067 3.77056C34.5369 3.9213 34.7995 4.04042 35.0945 4.13192L34.8462 4.48901C34.1252 4.23244 33.5985 3.78217 33.2661 3.14218C33.1082 3.30032 32.9185 3.44208 32.7009 3.57151L32.6959 3.99948C32.9725 3.94276 33.2334 3.87385 33.4823 3.79679L33.5419 4.16552C33.1807 4.26525 32.7396 4.36003 32.2265 4.44995L32.1427 4.09293C32.2552 4.05026 32.316 3.98298 32.3171 3.89499L32.3186 3.76699C32.1175 3.85662 31.9045 3.9381 31.6716 4.01134L31.4598 3.65681C32.0616 3.51193 32.5158 3.3293 32.8264 3.10897L31.4865 3.09308L31.491 2.71711ZM33.6504 3.11874C33.7525 3.27996 33.8748 3.42142 34.0134 3.54307C34.1988 3.42126 34.3605 3.28316 34.4983 3.12879L33.6504 3.11874Z" fill="white"/>
<path d="M35.8596 2.43728C35.7596 2.55807 35.6557 2.67474 35.5478 2.79127L35.4226 2.33893C35.805 1.90321 36.09 1.38825 36.2858 0.786332L36.6597 0.978662C36.5623 1.26363 36.4373 1.53969 36.2927 1.7991L36.204 4.50965L35.7922 4.49618L35.8596 2.43728ZM36.8369 0.944439L38.9278 1.01285L38.8827 2.39211L38.0991 2.36647L38.0814 2.90619L38.969 2.93522L38.9564 3.31902L38.0689 3.28998L38.0429 4.08555C38.1623 4.10547 38.3059 4.11818 38.4656 4.1314C38.6735 4.1382 38.8895 4.14127 39.1056 4.14034L39.0167 4.53364L38.6449 4.52148C38.0534 4.49812 37.6555 4.42507 37.4473 4.3062C37.2428 4.19545 37.0762 4.02991 36.9476 3.80158C36.8301 4.0899 36.6899 4.33745 36.531 4.54436L36.2742 4.19978C36.5596 3.79289 36.7616 3.24721 36.8802 2.55872L37.2737 2.63963C37.2254 2.89418 37.1697 3.12849 37.1064 3.35054C37.158 3.4843 37.2261 3.60659 37.3145 3.71754C37.4071 3.82462 37.5165 3.90425 37.6346 3.96414L37.6873 2.353L36.7918 2.3237L36.8369 0.944439ZM38.4915 1.99511L38.5115 1.38343L37.2322 1.34158L37.2121 1.95325L38.4915 1.99511Z" fill="white"/>
<path d="M40.076 0.972356C40.3272 1.19556 40.5386 1.4164 40.71 1.63489L40.3931 1.91269C40.2531 1.70407 40.0462 1.47548 39.7724 1.2269L40.076 0.972356ZM42.1355 4.70427C41.9199 4.69153 41.6846 4.67363 41.4332 4.65478C41.1779 4.63569 40.9717 4.59947 40.8063 4.54964C40.6494 4.49229 40.5191 4.39243 40.4113 4.24983C40.3634 4.17888 40.3174 4.14411 40.2695 4.14128C40.1936 4.1368 40.0475 4.30447 39.8266 4.65205L39.5359 4.35039C39.7544 4.04274 39.9421 3.84947 40.107 3.77105L40.1716 2.67696L39.6446 2.64583L39.6672 2.2625L40.5816 2.3165L40.4918 3.83785L40.5293 3.88014C40.611 3.98915 40.6982 4.07443 40.7869 4.13177C40.8992 4.1985 41.069 4.24059 41.3001 4.26225C41.5275 4.27968 41.7948 4.29948 42.0983 4.3174C42.2979 4.32919 42.4978 4.33699 42.7055 4.34925C42.9096 4.35329 43.0658 4.3545 43.1741 4.35288L43.0499 4.75827L42.1355 4.70427ZM40.9336 1.57998L41.3569 1.60497L41.392 1.01001L41.7953 1.03383L41.7602 1.62879L42.2633 1.6585L42.298 1.07153L42.7053 1.09558L42.6706 1.68256L43.1298 1.70968L43.1069 2.097L42.6477 2.06988L42.6079 2.74471L43.1949 2.77937L43.1717 3.17069L42.5848 3.13602L42.522 4.19817L42.1148 4.17412L42.1775 3.11197L41.5785 3.0766C41.4401 3.52121 41.2206 3.84483 40.9161 4.04724L40.6842 3.70096C40.9008 3.56148 41.0617 3.3466 41.1672 3.05231L40.708 3.02519L40.7311 2.63387L41.2702 2.66571C41.2937 2.53887 41.3095 2.40757 41.318 2.26383L41.334 1.9923L40.9108 1.9673L40.9336 1.57998ZM41.7373 2.01612L41.7269 2.19181C41.7166 2.3675 41.6947 2.5345 41.6695 2.68929L42.2006 2.72065L42.2404 2.04583L41.7373 2.01612Z" fill="white"/>
<path d="M45.8806 1.35834L46.3029 1.39572L46.2507 1.98541L47.2309 2.07217L47.1953 2.4746L46.2151 2.38784L46.1604 3.00543L47.2442 3.10135L47.2082 3.50776L45.9173 3.3935C45.657 3.88446 45.4282 4.2457 45.239 4.47792C45.6576 4.46679 46.078 4.43573 46.4958 4.38838C46.4145 4.17238 46.3315 3.97629 46.2434 3.79181L46.6578 3.69196C46.8537 4.11085 47.0195 4.55119 47.1546 5.02093L46.7446 5.16133C46.7048 5.02127 46.6643 4.88919 46.6271 4.76542C46.0228 4.83241 45.3732 4.86727 44.6739 4.87364L44.6144 4.50295C44.6553 4.49452 44.6842 4.48504 44.7052 4.47485C44.886 4.33825 45.1436 3.96753 45.471 3.354L44.6104 3.27782L44.6463 2.87141L45.7381 2.96804L45.7927 2.35046L44.8923 2.27076L44.9279 1.86833L45.8284 1.94803L45.8806 1.35834ZM44.1811 1.23201C44.4184 1.4538 44.6163 1.66808 44.7783 1.87919L44.457 2.15192C44.3222 1.95125 44.1207 1.73263 43.8569 1.49243L44.1811 1.23201ZM43.9989 2.15554C44.2164 2.37557 44.398 2.59243 44.5477 2.80646L44.2228 3.07486C44.0995 2.87923 43.9183 2.65839 43.6787 2.41633L43.9989 2.15554ZM44.2577 3.31488L44.6225 3.50377C44.4071 3.98666 44.1742 4.43989 43.9282 4.85984L43.5261 4.63953C43.8007 4.21408 44.0448 3.76987 44.2577 3.31488Z" fill="white"/>
<path d="M47.7734 2.04636L48.3296 2.11152C48.2855 1.93721 48.2362 1.77436 48.1739 1.61806L48.6074 1.59634C48.6523 1.7627 48.695 1.94893 48.7348 2.15899L49.1956 2.21297L49.1491 2.61026L48.3823 2.52044L48.3316 2.95347L49.0348 3.03585C48.9124 4.0807 48.8171 4.72198 48.7565 4.96457C48.6884 5.20226 48.4872 5.30354 48.1575 5.26491C48.1257 5.26119 48.075 5.2472 48.0089 5.22737L47.9568 4.84672C48.0269 4.86702 48.0856 4.88194 48.1372 4.88799C48.2763 4.90428 48.3676 4.84652 48.4063 4.72218C48.4411 4.59738 48.5061 4.14587 48.6048 3.3721L48.283 3.3344C48.1572 4.20166 47.9348 4.82804 47.6198 5.214L47.342 4.90358C47.6255 4.54614 47.8168 3.94431 47.9204 3.09459L47.993 2.47483L47.7268 2.44365L47.7734 2.04636ZM49.741 2.54266C49.641 2.70816 49.5355 2.85286 49.4274 2.98518L49.7809 3.0266L49.7353 3.41594L50.0127 3.35177L50.0848 2.73598L50.4662 2.78066L50.4099 3.26137L51.0681 3.10892C50.9778 3.87965 50.9075 4.34261 50.8566 4.50177C50.7978 4.66 50.6331 4.72528 50.3629 4.69364L50.359 4.69317L50.2927 4.331C50.3602 4.33891 50.4193 4.34986 50.4749 4.35638C50.5067 4.3601 50.5312 4.3227 50.5476 4.25212C50.563 4.18948 50.593 3.96747 50.6386 3.57813L50.3657 3.63879L50.2144 4.92996L49.833 4.88529L49.9685 3.72919L49.6911 3.79336L49.5743 4.79054C49.5529 4.97329 49.5978 5.07118 49.713 5.08468L50.444 5.17031C50.5235 5.17962 50.5819 5.1623 50.6263 5.12722C50.6751 5.08864 50.7187 4.95682 50.7607 4.7362L51.1052 4.88933C51.029 5.23078 50.9452 5.43038 50.8499 5.48768C50.7634 5.53797 50.6365 5.55532 50.4697 5.53578L49.5559 5.42873C49.2739 5.39569 49.1567 5.19268 49.2004 4.81923L49.3107 3.87767L49.0294 3.94137L49.0732 3.56793L49.3545 3.50422L49.4131 3.00365C49.3473 3.08453 49.2779 3.16098 49.2139 3.22598L48.9859 2.86902C49.2458 2.60951 49.4915 2.23152 49.7228 1.73507L50.1019 1.86808C50.0492 1.97466 50.0008 2.07774 49.949 2.17638L51.2958 2.33415L51.2507 2.71951L49.741 2.54266Z" fill="white"/>
<path d="M53.2441 2.41488L55.1927 2.69073L55.1349 3.09866L53.1864 2.82281L53.2441 2.41488ZM53.01 3.38363L55.2239 3.69704L55.1662 4.10498L54.5563 4.01863L54.3214 5.67809C54.2844 5.93948 54.1193 6.04943 53.8262 6.00794L53.252 5.92665L53.2181 5.50978C53.398 5.55141 53.5706 5.58796 53.7369 5.61151C53.8439 5.62665 53.9049 5.59489 53.9161 5.51568L54.1365 3.9592L52.9523 3.79156L53.01 3.38363ZM52.5813 2.13118L52.9324 2.36266C52.6613 2.76464 52.2454 3.10571 51.6846 3.38587L51.6168 2.95208C52.0266 2.73943 52.3481 2.46579 52.5813 2.13118ZM52.6385 3.06845L52.9861 3.29541C52.854 3.48678 52.6953 3.66631 52.51 3.83398L52.2319 5.7984L51.8239 5.74065L52.0443 4.18417C51.8939 4.276 51.7317 4.36615 51.566 4.45178L51.4971 4.0259C51.9844 3.77978 52.3652 3.45798 52.6385 3.06845Z" fill="white"/>
<path d="M57.2414 3.74561C57.5108 3.91018 57.7521 4.09862 57.9613 4.31029L57.7048 4.5974C57.4784 4.36678 57.2371 4.17835 56.9822 4.0242L57.2414 3.74561ZM56.6025 5.25975C56.848 5.39621 57.0838 5.54325 57.3058 5.70025C57.5633 5.55912 57.835 5.37975 58.1215 5.15819L55.9728 4.81481L56.0346 4.42773L58.7008 4.85379L58.6453 5.20138C58.3447 5.48551 58.0129 5.7363 57.6468 5.94918C57.8021 6.06717 57.9528 6.18848 58.0944 6.31643L57.8125 6.63594C57.3427 6.2044 56.8451 5.84538 56.3237 5.55951L56.6025 5.25975ZM57.5296 2.88024L57.8061 2.92442C58.2113 3.53198 58.7138 4.03761 59.3051 4.44401L59.041 4.77852C58.4516 4.36028 57.9761 3.86301 57.6066 3.28547C57.1163 3.71751 56.5063 4.06157 55.7768 4.31765L55.6307 3.91354C56.3656 3.67452 56.996 3.32967 57.5296 2.88024Z" fill="white"/>
<path d="M60.2471 3.2665L60.7474 5.24759L59.6155 6.94873L59.3028 6.73682L60.3413 5.17794L59.8816 3.3621L60.2471 3.2665ZM60.933 3.38416L61.4333 5.36525L60.3015 7.06639L59.9888 6.85448L61.0273 5.2956L60.5519 3.47705L60.933 3.38416Z" fill="white"/>
<defs>
<clipPath id="clip0_253_4575">
<rect width="4" height="4" fill="white" transform="translate(0.199951 5.98422) rotate(-21)"/>
</clipPath>
</defs>
</svg>
