<svg width="52" height="10" viewBox="0 0 52 10" fill="none" xmlns="http://www.w3.org/2000/svg">
<path d="M5.40338 2.65196L5.77946 2.76376L5.21391 4.55631L6.17332 6.16507L5.85046 6.36111L4.80487 4.60562L5.40338 2.65196ZM6.09438 2.56867L6.45458 2.68238L5.90491 4.47303L6.86432 6.08178L6.54146 6.27782L5.49587 4.52233L6.09438 2.56867Z" fill="white"/>
<path d="M8.63283 3.0078L7.31048 3.13015L7.27363 2.73185L10.3445 2.44772L10.3814 2.84602L9.05503 2.96874L9.27541 5.35057L10.8447 5.20537L10.8819 5.60765L7.31715 5.93748L7.27993 5.5352L8.85321 5.38963L8.63283 3.0078Z" fill="white"/>
<path d="M12.2457 2.06953L12.6649 2.0437L12.8575 5.16978L13.2967 5.14272L13.1041 2.01665L13.5233 1.99082L13.7159 5.11689L14.8657 5.04605L14.8908 5.45328L11.3216 5.67318L11.2965 5.26595L12.4383 5.1956L12.2457 2.06953ZM14.2765 2.70185L14.6502 2.78303C14.5405 3.47508 14.3858 4.08575 14.1857 4.61105L13.8023 4.50242C13.9973 4.02552 14.1526 3.42284 14.2765 2.70185ZM11.5768 2.85615C11.8092 3.37485 12.0265 3.97462 12.2245 4.65173L11.8509 4.76692C11.6768 4.15246 11.4722 3.56393 11.2289 2.99782L11.5768 2.85615Z" fill="white"/>
<path d="M15.563 1.91303C15.8253 2.09635 16.0476 2.281 16.2299 2.46699L15.9557 2.76435C15.7936 2.58568 15.5711 2.39303 15.2882 2.1944L15.563 1.91303ZM15.0693 3.06623L15.9928 3.03526L16.0485 4.69432C16.1609 4.58649 16.2811 4.4704 16.4089 4.34205L16.5395 4.77791C16.2837 5.02662 16.011 5.24789 15.7216 5.4497L15.5491 5.07928C15.615 5.01703 15.6485 4.93987 15.6455 4.85192L15.5985 3.44871L15.0827 3.466L15.0693 3.06623ZM16.5166 3.49796L18.4675 3.43253L18.4803 3.81232C18.3799 4.15988 18.206 4.46588 17.9586 4.72632C18.2118 4.87791 18.5164 5.00778 18.8763 5.11978L18.6645 5.48708C18.2674 5.34031 17.9297 5.17554 17.6592 4.9885C17.3548 5.21883 16.9809 5.40747 16.5296 5.55468L16.2859 5.21066C16.6936 5.07691 17.0364 4.91333 17.318 4.71978C17.0536 4.47251 16.8643 4.1987 16.7579 3.89009L16.53 3.89773L16.5166 3.49796ZM17.1497 3.87695C17.2453 4.10188 17.3962 4.30493 17.6102 4.48186C17.8079 4.29112 17.957 4.08201 18.0612 3.84638L17.1497 3.87695ZM16.7366 1.94171L18.1758 1.89344L18.2035 2.72098C18.2065 2.80893 18.2561 2.85529 18.356 2.85194L18.6998 2.84041L18.7125 3.2202L18.2568 3.23548C17.957 3.24554 17.8044 3.11058 17.795 2.83074L17.7771 2.29903L17.1615 2.31968L17.1651 2.42762C17.1791 2.84339 16.974 3.17445 16.5578 3.41253L16.2672 3.1021C16.5983 2.95091 16.7635 2.74526 16.7548 2.48541L16.7366 1.94171Z" fill="white"/>
<path d="M20.3386 2.88612L21.3705 2.87434L21.3573 1.71441L21.7893 1.70948L21.8025 2.8694L22.7824 2.85822L22.7872 3.27419L21.8073 3.28538L21.8317 5.42924L21.3998 5.43417L21.3753 3.29031L20.3434 3.30209L20.3386 2.88612ZM19.6218 1.76623C19.876 1.95934 20.0942 2.15286 20.2764 2.34279L19.9917 2.63806C19.8377 2.45581 19.6154 2.26233 19.3291 2.05759L19.6218 1.76623ZM19.079 2.9285L20.0309 2.91763L20.05 4.58952C20.1649 4.48821 20.2876 4.3748 20.4182 4.2493L20.531 4.67604C20.2738 4.91899 20.0003 5.13813 19.7065 5.33349L19.5422 4.95935C19.6135 4.89853 19.6487 4.82612 19.6477 4.74213L19.6315 3.32222L19.0836 3.32848L19.079 2.9285Z" fill="white"/>
<path d="M23.7709 1.69311L24.1828 1.72665L24.133 2.20647L26.457 2.21519L26.4555 2.61519L24.0915 2.60632L24.0335 3.1381L26.2375 3.14637C26.2333 4.27436 26.1508 4.92606 25.9982 5.10549C25.8455 5.27292 25.5172 5.35968 25.0172 5.35781C24.8852 5.35731 24.7492 5.3488 24.6093 5.33628L24.4947 4.95584C24.7026 4.97663 24.8506 4.98918 24.9306 4.98948C25.3466 4.99104 25.5988 4.92399 25.6793 4.78829C25.7679 4.64462 25.8135 4.22479 25.8161 3.53279L23.5681 3.52436L23.7709 1.69311ZM23.0901 4.04257L25.3421 4.05102L25.3406 4.45102L23.0886 4.44256L23.0901 4.04257Z" fill="white"/>
<path d="M29.6097 2.94532L29.5863 4.25711L28.1745 4.2319L28.1635 4.8478C28.1617 4.94778 28.2168 5.00077 28.3368 5.00292L30.1525 5.03534C30.2326 5.02877 30.2852 4.9977 30.3142 4.93821C30.335 4.89458 30.3615 4.75503 30.3897 4.52349L30.7832 4.66254C30.751 4.902 30.716 5.0694 30.6782 5.16875C30.6192 5.33572 30.4896 5.42142 30.2815 5.42571L28.1539 5.38771C27.8739 5.38271 27.7361 5.25623 27.7406 5.00827L27.7747 3.09658C27.6932 3.18314 27.6157 3.26577 27.5342 3.34432L27.2446 2.9871C27.594 2.68929 27.8977 2.25864 28.1636 1.7033L28.5859 1.80685C28.5359 1.91798 28.482 2.02503 28.4321 2.12816L30.5998 2.16687C30.5808 3.2307 30.5451 3.88617 30.5006 4.13341C30.4562 4.38066 30.286 4.50564 29.99 4.50035C29.942 4.4995 29.8542 4.48993 29.7344 4.47579L29.6411 4.10206C29.7528 4.11606 29.8487 4.12577 29.9287 4.1272C30.0246 4.12891 30.0818 4.06592 30.1001 3.93823C30.1265 3.80268 30.1467 3.34297 30.1688 2.55523L28.2051 2.52017C28.1145 2.66258 28.0242 2.79298 27.93 2.91532L29.6097 2.94532ZM28.1812 3.85596L29.1731 3.87367L29.1831 3.31376L28.1912 3.29605L28.1812 3.85596Z" fill="white"/>
<path d="M32.2611 1.83342L32.6848 1.84983L32.6139 3.68046L32.1902 3.66404L32.2091 3.17641C31.9764 3.29149 31.7121 3.39733 31.4122 3.49379L31.2629 3.11172C31.6226 3.02159 31.9432 2.90991 32.2246 2.77671L32.2611 1.83342ZM32.8366 2.27203L33.632 2.30285L33.6484 1.87917L34.0681 1.89543L34.0516 2.31911L34.8431 2.34978L34.8286 2.7215L34.0372 2.69083L34.019 3.16248L34.6985 3.18881L34.6841 3.56053L32.9134 3.49192L32.9278 3.12019L33.5993 3.14621L33.6176 2.67457L32.8222 2.64375L32.8366 2.27203ZM31.5917 1.95959C31.8117 2.06819 32.0109 2.196 32.1892 2.34702L31.9728 2.66287C31.771 2.49894 31.5678 2.37097 31.3593 2.27483L31.5917 1.95959ZM31.2448 3.78353L32.8836 3.84703C32.8386 3.76923 32.7894 3.69527 32.7361 3.62515L33.1248 3.51212C33.2007 3.61914 33.2641 3.73768 33.3233 3.86407L34.8182 3.92199L34.8036 4.29771L34.292 4.27788L34.5466 4.52393C34.3969 4.67024 34.2237 4.79963 34.0312 4.91226C34.2573 5.06914 34.5166 5.19527 34.809 5.29467L34.5512 5.64495C33.8374 5.3691 33.323 4.90484 33.0079 4.25615C32.8458 4.40999 32.6523 4.5466 32.4314 4.67014L32.4148 5.09782C32.6929 5.04855 32.9555 4.98667 33.2064 4.91633L33.2562 5.28653C32.8924 5.37652 32.4489 5.45941 31.9335 5.53551L31.8594 5.17637C31.973 5.13674 32.0356 5.07111 32.039 4.98318L32.0439 4.85527C31.8405 4.93946 31.6254 5.01519 31.3907 5.08215L31.1885 4.72205C31.7939 4.5934 32.2528 4.42304 32.5693 4.21113L31.2303 4.15925L31.2448 3.78353ZM33.3927 4.24304C33.4904 4.40694 33.6089 4.55164 33.7441 4.67697C33.9328 4.56019 34.0981 4.42649 34.24 4.27587L33.3927 4.24304Z" fill="white"/>
<path d="M35.7085 3.63072C35.6043 3.74795 35.4964 3.86091 35.3845 3.9736L35.2752 3.51716C35.6726 3.09507 35.9754 2.59039 36.1921 1.99568L36.5591 2.20095C36.4518 2.48235 36.3171 2.75386 36.1636 3.00806L35.9803 5.71386L35.5692 5.68601L35.7085 3.63072ZM36.7374 2.17294L38.8246 2.31438L38.7313 3.69122L37.9491 3.63822L37.9126 4.17698L38.7985 4.23702L38.7726 4.62014L37.8866 4.5601L37.8328 5.35428C37.9514 5.37836 38.0946 5.39607 38.2537 5.41487C38.4612 5.42893 38.677 5.43955 38.893 5.44617L38.7904 5.83612L38.4193 5.81097C37.8289 5.76696 37.4339 5.68006 37.2299 5.55398C37.0294 5.43616 36.8686 5.26489 36.7481 5.03221C36.6206 5.31624 36.4719 5.55874 36.3059 5.75998L36.0612 5.40663C36.3607 5.00997 36.5816 4.47167 36.7242 3.78775L37.1147 3.88236C37.0575 4.13507 36.9936 4.36729 36.9226 4.58699C36.9695 4.72247 37.0333 4.84707 37.1178 4.96104C37.2065 5.07129 37.3131 5.15469 37.429 5.21867L37.538 3.61036L36.6441 3.54979L36.7374 2.17294ZM38.3542 3.28079L38.3956 2.67019L37.1185 2.58365L37.0771 3.19425L38.3542 3.28079Z" fill="white"/>
<path d="M39.8816 2.31292C40.1232 2.54656 40.325 2.77616 40.487 3.00171L40.1586 3.26583C40.0276 3.05148 39.8306 2.81433 39.5676 2.55439L39.8816 2.31292ZM41.7813 6.1287C41.5664 6.10684 41.332 6.07899 41.0817 6.04951C40.8274 6.01963 40.6229 5.97471 40.4598 5.91792C40.3055 5.85398 40.1795 5.74869 40.0779 5.60165C40.033 5.52874 39.9885 5.49205 39.9407 5.48719C39.8651 5.4795 39.712 5.64084 39.4766 5.97876L39.1989 5.66505C39.4303 5.36693 39.626 5.18178 39.7941 5.11042L39.905 4.02005L39.3797 3.96663L39.4186 3.5846L40.3299 3.67727L40.1757 5.19345L40.2114 5.23729C40.2884 5.34966 40.3719 5.43856 40.4581 5.4996C40.5675 5.57103 40.7354 5.62027 40.9654 5.6517C41.1918 5.67875 41.458 5.70984 41.7604 5.7406C41.9594 5.76083 42.1588 5.77709 42.3657 5.79813C42.5695 5.81081 42.7255 5.81864 42.8338 5.8216L42.6926 6.22137L41.7813 6.1287ZM40.7128 2.95631L41.1346 2.99921L41.1949 2.40627L41.5968 2.44714L41.5365 3.04008L42.0379 3.09108L42.0974 2.50609L42.5033 2.54737L42.4438 3.13235L42.9015 3.17889L42.8622 3.5649L42.4046 3.51836L42.3362 4.19089L42.9212 4.25038L42.8815 4.64037L42.2965 4.58088L42.1889 5.63942L41.783 5.59814L41.8906 4.5396L41.2937 4.4789C41.1365 4.91725 40.9036 5.23129 40.5908 5.42062L40.3737 5.06483C40.596 4.93465 40.7659 4.72677 40.8838 4.43722L40.4262 4.39068L40.4658 4.00069L41.0031 4.05532C41.0319 3.9296 41.0532 3.79908 41.0678 3.65582L41.0953 3.38522L40.6735 3.34232L40.7128 2.95631ZM41.4973 3.42609L41.4795 3.60119C41.4616 3.77629 41.4327 3.94221 41.401 4.09579L41.9303 4.14962L41.9987 3.47708L41.4973 3.42609Z" fill="white"/>
<path d="M45.5148 2.93479L45.935 2.99128L45.8561 3.578L46.8313 3.70912L46.7775 4.10952L45.8023 3.9784L45.7197 4.59287L46.798 4.73784L46.7436 5.14221L45.4592 4.96952C45.1769 5.44817 44.932 5.79867 44.7324 6.02207C45.1511 6.02993 45.5725 6.01797 45.992 5.98961C45.9206 5.77014 45.8465 5.57049 45.7669 5.38221L46.1854 5.30125C46.3621 5.7286 46.5077 6.176 46.6214 6.65138L46.2055 6.77305C46.1721 6.63133 46.1376 6.49755 46.106 6.37222C45.4993 6.41173 44.8488 6.4171 44.15 6.39176L44.1073 6.01875C44.1485 6.01218 44.1779 6.00402 44.1993 5.99479C44.3861 5.86653 44.6603 5.50788 45.0152 4.90983L44.1589 4.7947L44.2132 4.39034L45.2994 4.53638L45.3821 3.9219L44.4861 3.80145L44.54 3.40105L45.4359 3.52151L45.5148 2.93479ZM43.8228 2.73152C44.0498 2.96385 44.2378 3.18688 44.3901 3.40512L44.0567 3.663C43.9311 3.45643 43.7398 3.22889 43.4871 2.97698L43.8228 2.73152ZM43.5989 3.64585C43.8062 3.87551 43.9778 4.10038 44.1176 4.32098L43.7808 4.57437C43.6666 4.37335 43.4956 4.14452 43.2672 3.89184L43.5989 3.64585ZM43.8049 4.81572L44.1607 5.02097C43.9236 5.49359 43.6705 5.9358 43.4057 6.34416L43.0139 6.10584C43.3075 5.69328 43.5715 5.2606 43.8049 4.81572Z" fill="white"/>
<path d="M47.8875 3.23916L48.4073 5.21524L47.2922 6.92742L46.9774 6.71859L48.0005 5.14958L47.5231 3.33835L47.8875 3.23916ZM48.5746 3.35007L49.0944 5.32615L47.9793 7.03833L47.6645 6.8295L48.6876 5.2605L48.1944 3.44671L48.5746 3.35007Z" fill="white"/>
<g clip-path="url(#clip0_253_4461)">
<path d="M4.12977 4.99514C4.05272 3.89326 3.09701 3.06247 1.99513 3.13952C0.893249 3.21658 0.0624621 4.17229 0.139513 5.27417C0.216564 6.37604 1.17228 7.20683 2.27415 7.12978C3.37603 7.05273 4.20682 6.09702 4.12977 4.99514Z" fill="white"/>
<path d="M2.82564 5.08629C2.85293 5.4766 2.55866 5.81514 2.16835 5.84243C1.77804 5.86972 1.4395 5.57544 1.41221 5.18512C1.38492 4.79482 1.6792 4.45628 2.06951 4.42899C2.45983 4.4017 2.79835 4.69598 2.82564 5.08629Z" fill="#485CC2"/>
<path fill-rule="evenodd" clip-rule="evenodd" d="M1.47708 4.83535C1.45121 4.9672 1.46086 5.23379 1.69973 5.29931C1.94289 5.36599 2.08595 5.21304 2.12708 5.12823C2.17577 5.0516 2.32115 4.91173 2.51317 4.96525C2.7052 5.01877 2.76218 5.16051 2.76667 5.2247L2.77854 5.39442C2.81587 5.29943 2.83315 5.19487 2.82556 5.08629C2.79826 4.69598 2.45975 4.4017 2.06943 4.42899C1.80381 4.44756 1.58268 4.61027 1.47708 4.83535Z" fill="#D74B4B"/>
<path fill-rule="evenodd" clip-rule="evenodd" d="M0.599515 4.68448L0.968361 4.07064L1.06384 4.12801L0.694992 4.74186L0.599515 4.68448ZM0.765541 4.76851L1.13439 4.15467L1.22987 4.21204L0.861019 4.82589L0.765541 4.76851ZM1.2861 4.23714L0.917257 4.85099L1.01273 4.90836L1.38158 4.29451L1.2861 4.23714Z" fill="#333333"/>
<path fill-rule="evenodd" clip-rule="evenodd" d="M3.59217 4.47522L3.39691 4.23409L3.30959 4.30325L3.50562 4.54532L3.59217 4.47522ZM3.14148 3.91868L3.32682 4.14752L3.23948 4.21669L3.05493 3.98878L3.14148 3.91868ZM3.43946 4.58154L2.98878 4.02499L2.90221 4.0951L3.35289 4.65164L3.43946 4.58154ZM3.02883 4.5256L3.21414 4.75442L3.3007 4.68432L3.11617 4.45644L3.02883 4.5256ZM3.04606 4.36987L2.95874 4.43903L2.76344 4.19788L2.85001 4.12778L3.04606 4.36987Z" fill="#333333"/>
<path fill-rule="evenodd" clip-rule="evenodd" d="M3.50999 5.85083L3.66979 5.58488L3.57432 5.5275L3.41389 5.79449L3.50999 5.85083ZM3.45263 5.94631L3.30095 6.19872L3.20548 6.14136L3.35651 5.88998L3.45263 5.94631ZM3.10492 5.61339L3.25658 5.36099L3.35205 5.41837L3.20103 5.66972L3.10492 5.61339ZM3.14366 5.7652L3.04756 5.70887L2.88772 5.97485L2.98321 6.03221L3.14366 5.7652ZM3.50378 5.50084L3.34987 5.75697L3.25377 5.70063L3.40829 5.44348L3.50378 5.50084ZM3.13493 6.1147L3.2925 5.85245L3.19639 5.79612L3.03945 6.05732L3.13493 6.1147Z" fill="#333333"/>
<path fill-rule="evenodd" clip-rule="evenodd" d="M0.677136 5.79415L1.12782 6.35068L1.21439 6.28059L0.7637 5.72404L0.677136 5.79415ZM0.968613 5.58504L1.4193 6.14157L1.50587 6.07148L1.05518 5.51493L0.968613 5.58504ZM0.829851 5.68782L1.0179 5.92004L1.10522 5.85088L0.916418 5.61773L0.829851 5.68782ZM1.28054 6.24437L1.088 6.00661L1.17533 5.93745L1.36711 6.17426L1.28054 6.24437Z" fill="#333333"/>
</g>
<defs>
<clipPath id="clip0_253_4461">
<rect width="4" height="4" fill="white" transform="translate(0 3.27904) rotate(-4)"/>
</clipPath>
</defs>
</svg>
