<svg width="39" height="6" viewBox="0 0 39 6" fill="none" xmlns="http://www.w3.org/2000/svg">
<path d="M5.72 0.692L6.08 0.848L5.304 2.56L6.064 4.272L5.72 4.428L4.892 2.56L5.72 0.692ZM6.416 0.692L6.76 0.848L6 2.56L6.76 4.272L6.416 4.428L5.588 2.56L6.416 0.692ZM8.792 1.384H7.464V0.984H10.548V1.384H9.216V3.776H10.792V4.18H7.212V3.776H8.792V1.384ZM12.356 0.74H12.776V3.872H13.216V0.74H13.636V3.872H14.788V4.28H11.212V3.872H12.356V0.74ZM14.344 1.496L14.712 1.6C14.56 2.284 14.368 2.884 14.136 3.396L13.76 3.264C13.984 2.8 14.176 2.208 14.344 1.496ZM11.64 1.484C11.84 2.016 12.02 2.628 12.176 3.316L11.796 3.408C11.66 2.784 11.492 2.184 11.284 1.604L11.64 1.484ZM15.688 0.768C15.944 0.96 16.16 1.152 16.336 1.344L16.052 1.632C15.896 1.448 15.68 1.248 15.404 1.04L15.688 0.768ZM15.156 1.904H16.08V3.564C16.196 3.46 16.32 3.348 16.452 3.224L16.568 3.664C16.304 3.904 16.024 4.116 15.728 4.308L15.568 3.932C15.636 3.872 15.672 3.796 15.672 3.708V2.304H15.156V1.904ZM16.588 2.384H18.54V2.764C18.428 3.108 18.244 3.408 17.988 3.66C18.236 3.82 18.536 3.96 18.892 4.084L18.668 4.444C18.276 4.284 17.944 4.108 17.68 3.912C17.368 4.132 16.988 4.308 16.532 4.44L16.3 4.088C16.712 3.968 17.06 3.816 17.348 3.632C17.092 3.376 16.912 3.096 16.816 2.784H16.588V2.384ZM17.208 2.784C17.296 3.012 17.44 3.22 17.648 3.404C17.852 3.22 18.008 3.016 18.12 2.784H17.208ZM16.86 0.836H18.3V1.664C18.3 1.752 18.348 1.8 18.448 1.8H18.792V2.18H18.336C18.036 2.18 17.888 2.04 17.888 1.76V1.228H17.272V1.336C17.272 1.752 17.056 2.076 16.632 2.3L16.352 1.98C16.688 1.84 16.86 1.64 16.86 1.38V0.836ZM20.416 1.868H21.448V0.708H21.88V1.868H22.86V2.284H21.88V4.428H21.448V2.284H20.416V1.868ZM19.712 0.74C19.964 0.936 20.18 1.132 20.36 1.324L20.072 1.616C19.92 1.432 19.7 1.236 19.416 1.028L19.712 0.74ZM19.156 1.896H20.108V3.568C20.224 3.468 20.348 3.356 20.48 3.232L20.588 3.66C20.328 3.9 20.052 4.116 19.756 4.308L19.596 3.932C19.668 3.872 19.704 3.8 19.704 3.716V2.296H19.156V1.896ZM23.56 2.364C23.464 2.488 23.364 2.608 23.26 2.728L23.12 2.28C23.488 1.832 23.756 1.308 23.932 0.7L24.312 0.88C24.224 1.168 24.108 1.448 23.972 1.712V4.424H23.56V2.364ZM24.488 0.84H26.58V2.22H25.796V2.76H26.684V3.144H25.796V3.94C25.916 3.956 26.06 3.964 26.22 3.972C26.428 3.972 26.644 3.968 26.86 3.96L26.784 4.356H26.412C25.82 4.352 25.42 4.292 25.208 4.18C25 4.076 24.828 3.916 24.692 3.692C24.584 3.984 24.452 4.236 24.3 4.448L24.032 4.112C24.304 3.696 24.488 3.144 24.584 2.452L24.98 2.52C24.94 2.776 24.892 3.012 24.836 3.236C24.892 3.368 24.964 3.488 25.056 3.596C25.152 3.7 25.264 3.776 25.384 3.832V2.22H24.488V0.84ZM26.176 1.836V1.224H24.896V1.836H26.176ZM27.56 0.748C27.824 0.956 28.048 1.164 28.232 1.372L27.932 1.668C27.78 1.468 27.56 1.252 27.272 1.02L27.56 0.748ZM29.836 4.352C29.62 4.352 29.384 4.348 29.132 4.344C28.876 4.34 28.668 4.316 28.5 4.276C28.34 4.228 28.204 4.136 28.088 4C28.036 3.932 27.988 3.9 27.94 3.9C27.864 3.9 27.728 4.076 27.528 4.436L27.22 4.152C27.42 3.832 27.596 3.628 27.756 3.54V2.444H27.228V2.06H28.144V3.584L28.184 3.624C28.272 3.728 28.364 3.808 28.456 3.86C28.572 3.92 28.744 3.952 28.976 3.96C29.204 3.964 29.472 3.968 29.776 3.968C29.976 3.968 30.176 3.964 30.384 3.964C30.588 3.956 30.744 3.948 30.852 3.94L30.752 4.352H29.836ZM28.452 1.304H28.876V0.708H29.28V1.304H29.784V0.716H30.192V1.304H30.652V1.692H30.192V2.368H30.78V2.76H30.192V3.824H29.784V2.76H29.184C29.072 3.212 28.872 3.548 28.58 3.768L28.328 3.436C28.536 3.284 28.684 3.06 28.772 2.76H28.312V2.368H28.852C28.868 2.24 28.876 2.108 28.876 1.964V1.692H28.452V1.304ZM29.28 1.692V1.868C29.28 2.044 29.268 2.212 29.252 2.368H29.784V1.692H29.28ZM33.264 0.724H33.688V1.316H34.672V1.72H33.688V2.34H34.776V2.748H33.48C33.264 3.26 33.068 3.64 32.9 3.888C33.316 3.84 33.732 3.772 34.144 3.688C34.044 3.48 33.944 3.292 33.84 3.116L34.244 2.98C34.476 3.38 34.68 3.804 34.856 4.26L34.46 4.436C34.408 4.3 34.356 4.172 34.308 4.052C33.712 4.172 33.068 4.264 32.372 4.332L32.28 3.968C32.32 3.956 32.348 3.944 32.368 3.932C32.536 3.78 32.76 3.388 33.032 2.748H32.168V2.34H33.264V1.72H32.36V1.316H33.264V0.724ZM31.56 0.748C31.816 0.948 32.032 1.144 32.212 1.34L31.916 1.64C31.764 1.452 31.544 1.252 31.26 1.036L31.56 0.748ZM31.46 1.684C31.696 1.884 31.896 2.084 32.064 2.284L31.764 2.58C31.624 2.396 31.424 2.192 31.164 1.972L31.46 1.684ZM31.82 2.816L32.2 2.972C32.028 3.472 31.836 3.944 31.628 4.384L31.208 4.2C31.444 3.752 31.648 3.288 31.82 2.816ZM35.584 0.692L36.412 2.56L35.584 4.428L35.24 4.272L36 2.56L35.24 0.848L35.584 0.692ZM36.28 0.692L37.108 2.56L36.28 4.428L35.936 4.272L36.696 2.56L35.92 0.848L36.28 0.692Z" fill="white"/>
<g clip-path="url(#clip0_254_4765)">
<path d="M4 2.49594C4 1.39137 3.10457 0.495941 2 0.495941C0.89543 0.495941 0 1.39137 0 2.49594C0 3.60051 0.89543 4.49594 2 4.49594C3.10457 4.49594 4 3.60051 4 2.49594Z" fill="white"/>
<path d="M2.69264 2.49589C2.69264 2.88716 2.37547 3.20434 1.9842 3.20434C1.59294 3.20434 1.27576 2.88716 1.27576 2.49589C1.27576 2.10463 1.59294 1.78745 1.9842 1.78745C2.37547 1.78745 2.69264 2.10463 2.69264 2.49589Z" fill="#485CC2"/>
<path fill-rule="evenodd" clip-rule="evenodd" d="M1.36494 2.1515C1.32993 2.28122 1.32096 2.54784 1.55468 2.62986C1.79259 2.71334 1.94598 2.57074 1.99293 2.48901C2.04684 2.41596 2.20163 2.28657 2.38944 2.35336C2.57728 2.42014 2.62423 2.56551 2.62423 2.62986V2.79999C2.66809 2.70784 2.69263 2.60474 2.69263 2.49589C2.69263 2.10463 2.37546 1.78745 1.98419 1.78745C1.71793 1.78745 1.48598 1.93434 1.36494 2.1515Z" fill="#D74B4B"/>
<path fill-rule="evenodd" clip-rule="evenodd" d="M0.5 1.93978L0.910768 1.35316L1.00201 1.41705L0.591243 2.00368L0.5 1.93978ZM0.65976 2.03519L1.07053 1.44857L1.16177 1.51246L0.751003 2.09908L0.65976 2.03519ZM1.21612 1.54142L0.805353 2.12805L0.896597 2.19194L1.30736 1.60532L1.21612 1.54142Z" fill="#333333"/>
<path fill-rule="evenodd" clip-rule="evenodd" d="M3.49999 1.93978L3.32203 1.68563L3.23009 1.74853L3.40876 2.00368L3.49999 1.93978ZM3.08923 1.35316L3.25814 1.59438L3.16619 1.65728L2.99799 1.41705L3.08923 1.35316ZM3.34024 2.03519L2.92948 1.44857L2.83823 1.51246L3.24899 2.09908L3.34024 2.03519ZM2.93451 1.95075L3.10341 2.19194L3.19464 2.12805L3.02646 1.88785L2.93451 1.95075ZM2.96256 1.7966L2.87063 1.8595L2.69263 1.60531L2.78388 1.54142L2.96256 1.7966Z" fill="#333333"/>
<path fill-rule="evenodd" clip-rule="evenodd" d="M3.32203 3.30631L3.49999 3.05216L3.40876 2.98826L3.23009 3.24341L3.32203 3.30631ZM3.25814 3.39756L3.08923 3.63877L2.99799 3.57489L3.16619 3.33466L3.25814 3.39756ZM2.93451 3.04119L3.10341 2.79999L3.19464 2.86389L3.02646 3.10409L2.93451 3.04119ZM2.96256 3.19534L2.87063 3.13244L2.69263 3.38662L2.78388 3.45051L2.96256 3.19534ZM3.34024 2.95674L3.16884 3.20151L3.07691 3.13861L3.24899 2.89286L3.34024 2.95674ZM2.92948 3.54337L3.10496 3.29276L3.01301 3.22986L2.83823 3.47947L2.92948 3.54337Z" fill="#333333"/>
<path fill-rule="evenodd" clip-rule="evenodd" d="M0.5 3.05216L0.910768 3.63877L1.00201 3.57489L0.591243 2.98826L0.5 3.05216ZM0.805353 2.86389L1.21612 3.45051L1.30736 3.38662L0.896597 2.79999L0.805353 2.86389ZM0.65976 2.95674L0.83115 3.20151L0.923087 3.13861L0.751005 2.89286L0.65976 2.95674ZM1.07053 3.54337L0.895045 3.29276L0.986982 3.22986L1.16177 3.47947L1.07053 3.54337Z" fill="#333333"/>
</g>
<defs>
<clipPath id="clip0_254_4765">
<rect width="4" height="4" fill="white" transform="translate(0 0.495941)"/>
</clipPath>
</defs>
</svg>
