<svg width="71" height="12" viewBox="0 0 71 12" fill="none" xmlns="http://www.w3.org/2000/svg">
<path d="M6.22987 6.12562L6.61571 6.19681L6.24389 8.03933L7.36885 9.53699L7.06866 9.76624L5.8424 8.13183L6.22987 6.12562ZM6.90811 5.96936L7.27835 6.04414L6.92212 7.88307L8.04708 9.38073L7.74689 9.60998L6.52063 7.97557L6.90811 5.96936Z" fill="white"/>
<path d="M9.35433 6.15119L8.05478 6.42458L7.97243 6.03315L10.9904 5.39825L11.0727 5.78968L9.76925 6.0639L10.2617 8.40466L11.8039 8.08021L11.8871 8.47555L8.38379 9.21257L8.30062 8.81722L9.84678 8.49195L9.35433 6.15119Z" fill="white"/>
<path d="M12.8122 4.79017L13.2246 4.71098L13.8152 7.78679L14.2473 7.70383L13.6567 4.62801L14.0692 4.54882L14.6598 7.62463L15.7911 7.40741L15.868 7.80809L12.3562 8.48238L12.2792 8.0817L13.4027 7.86599L12.8122 4.79017ZM14.907 5.15775L15.2881 5.1905C15.2678 5.89089 15.1923 6.51633 15.061 7.06289L14.6669 7.00416C14.7994 6.50624 14.8763 5.88866 14.907 5.15775ZM12.2493 5.65584C12.546 6.14058 12.8382 6.70766 13.1211 7.3539L12.7653 7.51591C12.5141 6.92874 12.2359 6.37119 11.9223 5.84081L12.2493 5.65584Z" fill="white"/>
<path d="M15.989 4.21864C16.274 4.36405 16.5197 4.5163 16.7259 4.67539L16.4953 5.0077C16.3102 4.85308 16.0631 4.69294 15.7556 4.53519L15.989 4.21864ZM15.659 5.42886L16.5694 5.27091L16.8532 6.90647C16.9497 6.78417 17.0527 6.65263 17.1616 6.50789L17.3511 6.92158C17.132 7.20318 16.8924 7.45992 16.6335 7.6997L16.4116 7.35658C16.4684 7.28584 16.4908 7.20481 16.4758 7.1181L16.2358 5.73477L15.7274 5.82298L15.659 5.42886ZM17.152 5.657L19.0752 5.32331L19.1402 5.69772C19.0887 6.0558 18.9586 6.38284 18.7495 6.67489C19.0212 6.79014 19.3407 6.8768 19.7127 6.93811L19.5535 7.33111C19.1399 7.24047 18.7827 7.12382 18.4891 6.97583C18.2193 7.24593 17.875 7.4843 17.4483 7.69231L17.1595 7.38515C17.5449 7.19649 17.8618 6.98724 18.1141 6.75671C17.8181 6.54824 17.5929 6.30313 17.445 6.01214L17.2204 6.05111L17.152 5.657ZM17.8312 5.94513C17.9569 6.15473 18.1343 6.33505 18.3707 6.48078C18.5403 6.26462 18.6591 6.03695 18.7298 5.78922L17.8312 5.94513ZM17.1553 4.08529L18.5741 3.83913L18.7157 4.65494C18.7307 4.74164 18.7862 4.78073 18.8848 4.76364L19.2237 4.70483L19.2887 5.07924L18.8394 5.15719C18.5438 5.20847 18.374 5.09583 18.3262 4.81995L18.2352 4.29579L17.6283 4.40109L17.6468 4.5075C17.7179 4.91738 17.5604 5.27353 17.181 5.56672L16.8504 5.29929C17.1575 5.10391 17.2928 4.87746 17.2483 4.62128L17.1553 4.08529Z" fill="white"/>
<path d="M20.9353 4.50442L21.9555 4.34864L21.7804 3.20193L22.2074 3.13673L22.3825 4.28344L23.3513 4.13551L23.4141 4.54675L22.4453 4.69467L22.7689 6.81411L22.3419 6.87931L22.0182 4.75988L20.9981 4.91565L20.9353 4.50442ZM20.0691 3.4956C20.3478 3.65132 20.5909 3.81247 20.7978 3.9751L20.5572 4.30723C20.3791 4.14828 20.1321 3.98773 19.8199 3.82498L20.0691 3.4956ZM19.6939 4.72228L20.635 4.57859L20.8874 6.23143C20.987 6.11506 21.0927 5.98563 21.2044 5.84313L21.3758 6.24992C21.155 6.52642 20.9148 6.7816 20.6511 7.01608L20.4362 6.66854C20.4983 6.59836 20.5231 6.52175 20.5104 6.43871L20.296 5.03498L19.7543 5.1177L19.6939 4.72228Z" fill="white"/>
<path d="M24.1243 4.52946C24.045 4.66474 23.9612 4.79656 23.8735 4.9289L23.6772 4.50254C23.9848 4.01107 24.1834 3.45704 24.28 2.8315L24.68 2.96132C24.6296 3.25822 24.5504 3.55078 24.4494 3.83003L24.797 6.51967L24.3884 6.57247L24.1243 4.52946ZM24.8494 2.89909L26.9241 2.63098L27.101 3.9996L26.3235 4.10008L26.3927 4.63562L27.2733 4.52181L27.3225 4.90265L26.4419 5.01646L26.5439 5.80589C26.6649 5.80638 26.8088 5.79586 26.9685 5.78329C27.1748 5.75663 27.3885 5.72498 27.6017 5.68936L27.5771 6.09184L27.2081 6.13951C26.6205 6.21142 26.2161 6.20318 25.9915 6.11927C25.7719 6.04279 25.5808 5.90615 25.4172 5.70143C25.3475 6.00486 25.2489 6.2717 25.1253 6.50143L24.8165 6.20255C25.0329 5.75512 25.1447 5.18409 25.1512 4.48549L25.5526 4.50218C25.5458 4.7612 25.5284 5.0014 25.5016 5.23073C25.574 5.35447 25.6608 5.46425 25.7659 5.55957C25.8744 5.65041 25.9953 5.71143 26.1214 5.75158L25.9148 4.15288L25.0262 4.26771L24.8494 2.89909ZM26.6511 3.67054L26.5727 3.06359L25.3032 3.22763L25.3817 3.83459L26.6511 3.67054Z" fill="white"/>
<path d="M27.864 2.42746C28.1477 2.60765 28.3916 2.79189 28.5957 2.98019L28.3272 3.30505C28.1557 3.12147 27.915 2.92887 27.605 2.72723L27.864 2.42746ZM30.4933 5.78241C30.2784 5.80429 30.0432 5.82421 29.7921 5.84576C29.537 5.8677 29.3276 5.86489 29.1564 5.84211C28.9924 5.81057 28.8478 5.73281 28.7186 5.60926C28.66 5.54688 28.609 5.5199 28.5612 5.52476C28.4856 5.53246 28.3682 5.72133 28.2056 6.09974L27.8705 5.84839C28.037 5.50978 28.1915 5.289 28.3417 5.18525L28.2307 4.09489L27.7054 4.14836L27.6665 3.76634L28.5778 3.67356L28.7322 5.18973L28.776 5.22547C28.8741 5.32002 28.9737 5.39029 29.0705 5.43271C29.192 5.48065 29.3664 5.49507 29.598 5.47953C29.8252 5.46042 30.0922 5.43725 30.3947 5.40647C30.5937 5.38621 30.7922 5.36197 30.9992 5.34091C31.2013 5.31229 31.3557 5.28853 31.4623 5.26963L31.4046 5.68964L30.4933 5.78241ZM28.8077 2.89026L29.2295 2.84732L29.1691 2.25438L29.5711 2.21346L29.6314 2.8064L30.1328 2.75535L30.0733 2.17038L30.4792 2.12905L30.5387 2.71403L30.9964 2.66744L31.0357 3.05345L30.578 3.10004L30.6465 3.77256L31.2315 3.71301L31.2712 4.10299L30.6862 4.16254L30.794 5.22107L30.3881 5.2624L30.2803 4.20387L29.6834 4.26463C29.6177 4.72565 29.4528 5.08018 29.1846 5.32862L28.9002 5.02385C29.0918 4.85157 29.2163 4.61373 29.2735 4.30636L28.8159 4.35295L28.7762 3.96297L29.3134 3.90827C29.3163 3.77931 29.3109 3.64718 29.2963 3.50392L29.2688 3.23332L28.847 3.27626L28.8077 2.89026ZM29.6707 3.1924L29.6885 3.3675C29.7064 3.54259 29.7114 3.71094 29.7113 3.86776L30.2406 3.81388L30.1721 3.14136L29.6707 3.1924Z" fill="white"/>
<path d="M33.7692 1.87906L34.1922 1.85067L34.2319 2.44134L35.2137 2.37545L35.2407 2.77854L34.2589 2.84443L34.3004 3.46304L35.386 3.39019L35.4133 3.79727L34.1202 3.88406C33.939 4.40937 33.7689 4.80164 33.6179 5.06033C34.0297 4.98459 34.4402 4.88888 34.8457 4.77748C34.732 4.57665 34.6196 4.39576 34.5041 4.22712L34.8981 4.06438C35.1563 4.44794 35.3883 4.85733 35.5944 5.30052L35.2111 5.50264C35.1501 5.37043 35.0896 5.2462 35.0337 5.12968C34.4471 5.28932 33.8107 5.42424 33.1208 5.53869L33.0046 5.18167C33.0437 5.16702 33.0709 5.15317 33.09 5.13986C33.2475 4.97695 33.4447 4.57083 33.6732 3.91405L32.8112 3.97191L32.7839 3.56483L33.8774 3.49144L33.8359 2.87283L32.9339 2.93336L32.9069 2.53027L33.8088 2.46973L33.7692 1.87906ZM32.0706 2.01711C32.3394 2.19952 32.5681 2.38062 32.7608 2.56412L32.4856 2.88327C32.3213 2.70587 32.0884 2.52105 31.7906 2.32455L32.0706 2.01711ZM32.0335 2.95771C32.2824 3.14145 32.4953 3.32761 32.6763 3.51591L32.3968 3.83134C32.2448 3.65713 32.0316 3.46698 31.7575 3.26488L32.0335 2.95771ZM32.4685 4.06306L32.8581 4.19326C32.72 4.70366 32.56 5.18746 32.3819 5.6404L31.9506 5.48493C32.156 5.02214 32.3285 4.54552 32.4685 4.06306Z" fill="white"/>
<path d="M35.7974 2.26032L36.3573 2.24725C36.2894 2.08079 36.2177 1.92642 36.1343 1.78032L36.5605 1.69835C36.6282 1.85681 36.6964 2.03527 36.7651 2.23772L37.229 2.22689L37.2384 2.62678L36.4666 2.6448L36.4767 3.08068L37.1846 3.06415C37.2091 4.11587 37.2043 4.76416 37.1781 5.01284C37.1438 5.2577 36.9587 5.38606 36.6268 5.39381C36.5948 5.39456 36.5426 5.38777 36.4744 5.37737L36.3697 5.00771C36.442 5.01802 36.5021 5.02462 36.5541 5.02341C36.6941 5.02014 36.7765 4.9502 36.7975 4.82167C36.8145 4.69324 36.8158 4.23708 36.8056 3.45711L36.4817 3.46467C36.4782 4.34099 36.3453 4.99227 36.0872 5.41842L35.7689 5.14978C35.9997 4.75628 36.1052 4.13364 36.0892 3.27778L36.0747 2.65395L35.8068 2.66021L35.7974 2.26032ZM37.815 2.47727C37.7392 2.65509 37.6548 2.81311 37.5662 2.95921L37.9221 2.9509L37.9313 3.3428L38.197 3.24056L38.1825 2.62073L38.5664 2.61177L38.5777 3.09564L39.2082 2.85285C39.2263 3.62864 39.2212 4.09688 39.1931 4.26159C39.1569 4.42648 39.0029 4.51409 38.731 4.52045L38.727 4.52054L38.6108 4.17116C38.6788 4.16957 38.7389 4.17217 38.7948 4.17086C38.8268 4.17011 38.8459 4.12966 38.8522 4.05749C38.8587 3.99332 38.8575 3.76929 38.8483 3.37739L38.5865 3.47553L38.6169 4.77518L38.233 4.78414L38.2058 3.62046L37.9401 3.72269L37.9636 4.72642C37.9679 4.91037 38.026 5.00104 38.142 4.99833L38.8778 4.98114C38.9578 4.97928 39.0132 4.95397 39.0522 4.91305C39.0952 4.86804 39.12 4.73142 39.1308 4.50711L39.4933 4.61067C39.4654 4.95942 39.4103 5.16876 39.3239 5.2388C39.2453 5.30065 39.1221 5.33554 38.9542 5.33946L38.0344 5.36094C37.7505 5.36757 37.6061 5.18289 37.5974 4.80699L37.5752 3.85925L37.3055 3.96157L37.2968 3.58568L37.5664 3.48335L37.5547 2.97949C37.5008 3.06877 37.4427 3.15415 37.3884 3.22744L37.1128 2.90578C37.3341 2.61254 37.5246 2.20398 37.6844 1.68011L38.0783 1.75893C38.041 1.87183 38.0075 1.98064 37.9699 2.08555L39.3256 2.05389L39.3346 2.44179L37.815 2.47727Z" fill="white"/>
<path d="M41.5773 1.91916L43.5439 1.99372L43.5283 2.40542L41.5617 2.33086L41.5773 1.91916ZM41.4438 2.90681L43.6782 2.99152L43.6626 3.40323L43.047 3.37989L42.9835 5.05469C42.9735 5.3185 42.8206 5.4448 42.5249 5.43358L41.9453 5.41161L41.8688 5.00042C42.0521 5.02337 42.2275 5.04203 42.3954 5.0484C42.5033 5.05249 42.5608 5.01464 42.5638 4.9347L42.6233 3.36383L41.4282 3.31852L41.4438 2.90681ZM40.8889 1.70493L41.2619 1.89919C41.0335 2.32685 40.6547 2.70878 40.1256 3.04497L40.0136 2.62042C40.3995 2.36686 40.6913 2.0617 40.8889 1.70493ZM41.042 2.63139L41.411 2.82151C41.2992 3.02542 41.1597 3.22027 40.9926 3.40607L40.9174 5.38865L40.5057 5.37304L40.5653 3.80217C40.4251 3.90894 40.273 4.01525 40.117 4.11741L40.0047 3.70086C40.4642 3.40606 40.81 3.0469 41.042 2.63139Z" fill="white"/>
<path d="M45.1308 4.72627L45.0972 5.11683C44.7339 5.23418 44.3291 5.31988 43.8752 5.36924L43.8536 4.96591C44.3394 4.91929 44.7638 4.83929 45.1308 4.72627ZM44.6709 1.8524L45.0365 2.03635C44.8367 2.49293 44.6401 2.86549 44.4471 3.15002C44.5521 3.14297 44.661 3.13627 44.7664 3.12523C44.8421 2.99122 44.9185 2.84924 44.9996 2.69962L45.3507 2.86626C45.0157 3.44774 44.7383 3.87357 44.518 4.14774C44.737 4.12237 44.9573 4.08107 45.1867 4.02849L45.1552 4.39514C44.7497 4.4888 44.3679 4.54034 44.0134 4.55407L43.9446 4.18684C44.0151 4.16077 44.0779 4.13004 44.1295 4.0903C44.2437 3.97565 44.3901 3.7674 44.5729 3.46192C44.4027 3.47943 44.229 3.49262 44.0469 3.50911L43.9777 3.14586C44.0439 3.12344 44.0998 3.08006 44.1534 3.01641C44.3443 2.66345 44.514 2.27654 44.6709 1.8524ZM46.342 2.68237L45.8279 2.63824L45.7427 3.63059L46.2568 3.67472L46.342 2.68237ZM46.2247 4.04934L45.7106 4.00521L45.622 5.03742L46.1361 5.08155L46.2247 4.04934ZM46.5107 5.11371L47.0089 5.15647L47.0975 4.12426L46.5993 4.0815L46.5107 5.11371ZM46.6315 3.70688L47.1296 3.74964L47.2148 2.75729L46.7166 2.71453L46.6315 3.70688ZM46.9764 5.53508L45.5895 5.41602L45.5703 5.6392L45.1917 5.6067L45.4821 2.22315L47.6382 2.40822L47.3478 5.79178L46.9572 5.75826L46.9764 5.53508Z" fill="white"/>
<path d="M50.2065 2.54545L49.9066 5.06365L49.5014 5.01538L49.7541 2.89438L48.7532 2.77514L48.4962 4.93189L48.0951 4.8841L48.3993 2.33016L50.2065 2.54545ZM49.3882 5.08649C49.6134 5.32681 49.8033 5.5589 49.9534 5.78626L49.6023 6.06266C49.4794 5.84259 49.2989 5.59953 49.0602 5.33746L49.3882 5.08649ZM49.032 3.03798L49.4332 3.08577L49.286 4.32103C49.2143 4.78782 49.0741 5.1538 48.8701 5.41149C48.6686 5.64932 48.3704 5.81924 47.98 5.91775L47.7901 5.51647C48.1637 5.42401 48.4263 5.28208 48.5771 5.09863C48.7267 4.89087 48.8278 4.61691 48.8849 4.27324L49.032 3.03798ZM50.5216 2.80857L50.9228 2.85636L50.6318 5.29909L50.2306 5.2513L50.5216 2.80857ZM50.9044 6.18958L50.3563 6.12429L50.3087 5.71177C50.4816 5.74847 50.6475 5.77629 50.8024 5.79474C50.9136 5.80799 50.9758 5.75901 50.9886 5.65177L51.3558 2.56956L51.7688 2.61877L51.3889 5.80822C51.3548 6.0942 51.1904 6.22365 50.9044 6.18958Z" fill="white"/>
<path d="M52.5724 2.69245L53.1327 4.6574L52.0531 6.39219L51.7341 6.18989L52.7247 4.60014L52.21 2.79912L52.5724 2.69245ZM53.2616 2.78918L53.8219 4.75413L52.7424 6.48892L52.4234 6.28662L53.4139 4.69687L52.8834 2.89363L53.2616 2.78918Z" fill="white"/>
<path d="M57.1839 3.35738L57.5597 3.41391C57.3525 3.66185 57.1849 3.91573 57.0568 4.17557C56.8869 4.49789 56.7798 4.83369 56.728 5.17781C56.6769 5.51799 56.6805 5.87044 56.7474 6.23242C56.7939 6.51449 56.8794 6.80646 57.0039 7.10834L56.6281 7.05181C56.4775 6.76218 56.3756 6.47178 56.3144 6.17943C56.2418 5.82872 56.2348 5.47171 56.2884 5.11572C56.3431 4.75181 56.4542 4.41661 56.6268 4.1028C56.7725 3.83347 56.9554 3.58592 57.1839 3.35738Z" fill="white"/>
<path d="M59.3611 4.09113C59.6457 4.13525 59.8685 4.23859 60.0209 4.4039C60.1695 4.56859 60.227 4.77181 60.189 5.01688C60.1412 5.3252 59.9513 5.50624 59.6231 5.56061C59.7811 5.63773 59.8999 5.73305 59.9709 5.8493C60.0493 5.97073 60.0753 6.11643 60.0495 6.28245C60.0091 6.54333 59.8851 6.74269 59.6775 6.88052C59.4614 7.02108 59.1989 7.06945 58.8906 7.02166C58.5981 6.97632 58.3726 6.86445 58.218 6.68667C58.0461 6.49002 57.9734 6.22779 57.9987 5.90789L58.4691 5.9808C58.4488 6.16386 58.4821 6.31473 58.5774 6.43071C58.6622 6.53694 58.7853 6.6046 58.9473 6.62972C59.1252 6.65729 59.2755 6.62796 59.3936 6.54507C59.4986 6.46825 59.5632 6.36492 59.584 6.23053C59.6091 6.06846 59.5761 5.94191 59.4929 5.8521C59.4103 5.75834 59.2774 5.70132 59.0956 5.67314L58.898 5.6425L58.9519 5.29466L59.1495 5.32529C59.3155 5.35103 59.4475 5.33506 59.5455 5.27739C59.6396 5.2191 59.6996 5.11912 59.721 4.98077C59.7425 4.84242 59.7189 4.73352 59.6548 4.65073C59.5828 4.56671 59.4658 4.51214 59.3037 4.48702C59.1377 4.46129 59.0051 4.48121 58.9013 4.55013C58.7936 4.61843 58.7186 4.73634 58.6765 4.90386L58.2219 4.8334C58.2897 4.55248 58.4268 4.34705 58.6411 4.21835C58.8435 4.08781 59.0844 4.04824 59.3611 4.09113Z" fill="white"/>
<path d="M62.0465 5.63202L61.955 6.21689L63.5159 6.4613L63.6075 5.87642L62.0465 5.63202ZM63.6675 5.49309L63.7542 4.93983L62.1932 4.69543L62.1065 5.24869L63.6675 5.49309ZM61.8712 6.59651C61.7379 7.08578 61.5222 7.48116 61.2246 7.77871L60.9536 7.44072C61.2524 7.13527 61.4442 6.71185 61.5363 6.17563L61.8401 4.23527L64.2349 4.61023L63.7498 7.70849C63.709 7.96931 63.5542 8.07868 63.2855 8.03661L62.7796 7.95741L62.7321 7.537C62.9041 7.57608 63.0649 7.60935 63.2111 7.63224C63.2902 7.64462 63.3384 7.59548 63.3544 7.49273L63.4559 6.84463L61.8712 6.59651Z" fill="white"/>
<path d="M66.006 4.79536L66.4094 4.85639L66.258 5.857L66.432 5.88333L66.3704 6.29069L65.5003 6.15906L65.4811 6.28562C65.465 6.39241 65.4455 6.49464 65.4266 6.59292L66.182 6.7072L65.9636 8.15077C66.2136 7.80832 66.3942 7.30972 66.5082 6.6635L66.7385 5.14082C67.3692 5.22409 67.9433 5.226 68.4656 5.14318L68.6077 5.54091C68.1365 5.60718 67.6183 5.60969 67.061 5.54966L66.9868 6.04008L68.4225 6.25727L68.3692 6.60926C68.2044 7.11025 67.9838 7.52592 67.6999 7.85112C67.8392 8.10684 68.0265 8.31317 68.2571 8.47347L67.9958 8.81017C67.7484 8.6271 67.5471 8.40651 67.3966 8.14505C67.1562 8.34333 66.8908 8.49331 66.5912 8.60172L66.4536 8.20063C66.7408 8.09439 66.9937 7.94656 67.208 7.76051C67.0668 7.38315 66.9958 6.94358 66.9994 6.43844L66.9282 6.42767L66.8839 6.72034C66.7514 7.48917 66.5196 8.08521 66.1932 8.5051L65.9618 8.16264L65.9163 8.46322L65.5129 8.40219L65.7193 7.03771L65.3475 6.98147C65.2139 7.54381 65.0401 7.97062 64.8353 8.25517L64.5641 7.93501C64.7773 7.59508 64.949 7.02231 65.0738 6.224L65.2945 4.7646L65.7019 4.82623L65.5619 5.7517L65.8546 5.79597L66.006 4.79536ZM67.3711 6.49468C67.383 6.84438 67.433 7.15537 67.5207 7.43159C67.7116 7.18538 67.8593 6.90431 67.9683 6.58502L67.3711 6.49468Z" fill="white"/>
<path d="M69.3629 5.22708L69.7391 5.28065C69.8886 5.56455 69.9967 5.85469 70.0591 6.15448C70.1306 6.50404 70.1449 6.85758 70.093 7.22191C70.0423 7.57832 69.9293 7.91778 69.7631 8.23351C69.6207 8.49606 69.4358 8.74448 69.2125 8.97935L68.8363 8.92579C69.0381 8.6717 69.2037 8.41649 69.3332 8.16018C69.4971 7.832 69.6055 7.49593 69.654 7.15537C69.703 6.81084 69.6927 6.45786 69.6263 6.10094C69.5742 5.81473 69.4863 5.52344 69.3629 5.22708Z" fill="white"/>
<g clip-path="url(#clip0_254_4747)">
<path d="M4.98144 8.69658C4.69555 7.62965 3.59888 6.99648 2.53195 7.28237C1.46502 7.56825 0.831852 8.66492 1.11774 9.73185C1.40362 10.7988 2.50029 11.432 3.56722 11.1461C4.63416 10.8602 5.26732 9.76351 4.98144 8.69658Z" fill="white"/>
<path d="M3.71858 9.0349C3.81985 9.41284 3.59559 9.8013 3.21765 9.90257C2.83972 10.0038 2.45125 9.77955 2.34998 9.40162C2.24872 9.02369 2.473 8.63522 2.85093 8.53396C3.22887 8.43269 3.61732 8.65697 3.71858 9.0349Z" fill="#485CC2"/>
<path fill-rule="evenodd" clip-rule="evenodd" d="M2.34702 9.04587C2.34678 9.18024 2.40712 9.44009 2.6541 9.45883C2.90551 9.47789 3.01676 9.30045 3.04096 9.20935C3.07413 9.12483 3.19015 8.9598 3.38886 8.97569C3.58757 8.99159 3.67055 9.11985 3.6872 9.18201L3.73124 9.34634C3.74976 9.24598 3.74677 9.14004 3.7186 9.0349C3.61733 8.65697 3.22888 8.43269 2.85095 8.53396C2.59375 8.60287 2.40772 8.80478 2.34702 9.04587Z" fill="#D74B4B"/>
<path fill-rule="evenodd" clip-rule="evenodd" d="M1.45676 9.06524L1.7017 8.39229L1.80637 8.43039L1.56143 9.10334L1.45676 9.06524ZM1.63577 9.11605L1.88071 8.4431L1.98538 8.4812L1.74044 9.15414L1.63577 9.11605ZM2.04538 8.49511L1.80044 9.16806L1.90511 9.20616L2.15005 8.53321L2.04538 8.49511Z" fill="#333333"/>
<path fill-rule="evenodd" clip-rule="evenodd" d="M4.35454 8.28878L4.11685 8.08935L4.04433 8.1739L4.28295 8.37411L4.35454 8.28878ZM3.80594 7.82846L4.03153 8.01774L3.95899 8.1023L3.73435 7.91379L3.80594 7.82846ZM4.22492 8.42229L3.67632 7.96196L3.60472 8.0473L4.15332 8.50762L4.22492 8.42229ZM3.81116 8.44573L4.03673 8.63499L4.10832 8.54966L3.8837 8.36118L3.81116 8.44573ZM3.79836 8.28958L3.72584 8.37413L3.48811 8.17467L3.55972 8.08934L3.79836 8.28958Z" fill="#333333"/>
<path fill-rule="evenodd" clip-rule="evenodd" d="M4.5363 9.6548L4.64242 9.36325L4.53776 9.32514L4.43122 9.61784L4.5363 9.6548ZM4.49821 9.75948L4.39748 10.0362L4.29282 9.9981L4.39311 9.72252L4.49821 9.75948ZM4.09337 9.49902L4.19409 9.22232L4.29875 9.26043L4.19847 9.53598L4.09337 9.49902ZM4.16036 9.64065L4.05528 9.60369L3.94913 9.89528L4.05381 9.93337L4.16036 9.64065ZM4.46342 9.31243L4.36121 9.59322L4.25613 9.55626L4.35875 9.27434L4.46342 9.31243ZM4.21848 9.98539L4.32312 9.6979L4.21803 9.66094L4.1138 9.94729L4.21848 9.98539Z" fill="#333333"/>
<path fill-rule="evenodd" clip-rule="evenodd" d="M1.74465 10.1397L2.29325 10.6L2.36485 10.5147L1.81624 10.0544L1.74465 10.1397ZM1.99087 9.87882L2.53947 10.3391L2.61107 10.2538L2.06247 9.79349L1.99087 9.87882ZM1.87427 10.0062L2.10317 10.1983L2.17569 10.1137L1.94587 9.92087L1.87427 10.0062ZM2.42287 10.4665L2.1885 10.2699L2.26103 10.1853L2.49447 10.3812L2.42287 10.4665Z" fill="#333333"/>
</g>
<defs>
<clipPath id="clip0_254_4747">
<rect width="4" height="4" fill="white" transform="translate(0.600098 7.8) rotate(-15)"/>
</clipPath>
</defs>
</svg>
