<svg width="52" height="14" viewBox="0 0 52 14" fill="none" xmlns="http://www.w3.org/2000/svg">
<path d="M5.87975 5.0048L6.26246 5.09122L5.81791 6.91756L6.88264 8.45863L6.5736 8.6758L5.41308 6.99407L5.87975 5.0048ZM6.56364 4.87553L6.93063 4.96493L6.5018 6.7883L7.56653 8.32937L7.25749 8.54654L6.09697 6.86481L6.56364 4.87553Z" fill="white"/>
<path d="M9.09217 5.1586L7.78053 5.36644L7.71793 4.97137L10.7639 4.48872L10.8265 4.88379L9.51094 5.09225L9.8853 7.45477L11.4419 7.20813L11.5051 7.60715L7.96922 8.16742L7.90599 7.7684L9.46652 7.52113L9.09217 5.1586Z" fill="white"/>
<path d="M12.5639 3.9947L12.9804 3.94049L13.3846 7.0463L13.8209 6.98951L13.4167 3.8837L13.8332 3.8295L14.2374 6.9353L15.3798 6.78662L15.4324 7.19121L11.8863 7.65274L11.8337 7.24815L12.9681 7.1005L12.5639 3.9947ZM14.6328 4.4878L15.0112 4.54343C14.9487 5.24133 14.8358 5.86109 14.6718 6.39875L14.2819 6.31638C14.4441 5.82735 14.5581 5.21553 14.6328 4.4878ZM11.9499 4.82488C12.2169 5.32662 12.4744 5.91027 12.7179 6.57238L12.3529 6.71266C12.1375 6.11143 11.8935 5.53813 11.6124 4.98983L11.9499 4.82488Z" fill="white"/>
<path d="M15.9156 3.60637C16.1895 3.77191 16.4235 3.94145 16.6178 4.11496L16.3639 4.42982C16.1903 4.26227 15.9555 4.08478 15.6601 3.9053L15.9156 3.60637ZM15.4994 4.78971L16.4188 4.69767L16.5842 6.34942C16.6892 6.23438 16.8014 6.11059 16.9204 5.97406L17.0797 6.40032C16.8409 6.66542 16.5834 6.90425 16.308 7.12478L16.1114 6.76659C16.173 6.70011 16.2013 6.6209 16.1925 6.53334L16.0527 5.13632L15.5392 5.18772L15.4994 4.78971ZM16.9721 5.12469L18.9144 4.93026L18.9522 5.30837C18.8751 5.66182 18.7219 5.97865 18.4922 6.2549C18.7549 6.3894 19.0674 6.49883 19.434 6.58675L19.2469 6.96727C18.8409 6.84711 18.4931 6.70505 18.2109 6.53632C17.9223 6.78631 17.5617 6.99928 17.1212 7.17604L16.8553 6.8489C17.2533 6.68846 17.5844 6.50256 17.8526 6.29078C17.5724 6.06156 17.3654 5.80088 17.2388 5.49999L17.0119 5.5227L16.9721 5.12469ZM17.6289 5.46095C17.7391 5.67905 17.9031 5.87167 18.1284 6.03404C18.3131 5.83063 18.448 5.61211 18.5363 5.37011L17.6289 5.46095ZM17.0886 3.55729L18.5214 3.41387L18.6039 4.23775C18.6126 4.32531 18.6652 4.36829 18.7647 4.35833L19.107 4.32407L19.1448 4.70218L18.6911 4.7476C18.3926 4.77748 18.2314 4.65292 18.2035 4.37431L18.1505 3.84495L17.5376 3.90631L17.5483 4.01377C17.5897 4.4277 17.4071 4.77161 17.0075 5.03672L16.697 4.7462C17.0174 4.57343 17.1686 4.3573 17.1427 4.09859L17.0886 3.55729Z" fill="white"/>
<path d="M20.8169 4.26889L21.8466 4.20109L21.7704 3.0436L22.2015 3.01521L22.2777 4.17271L23.2556 4.10832L23.2829 4.52342L22.305 4.58781L22.4459 6.72718L22.0148 6.75556L21.874 4.61619L20.8442 4.68399L20.8169 4.26889ZM20.0403 3.18958C20.3046 3.3686 20.533 3.54999 20.7252 3.72975L20.457 4.04004C20.2933 3.86642 20.0609 3.6853 19.7638 3.49641L20.0403 3.18958ZM19.5614 4.37962L20.5114 4.31707L20.6212 5.98546C20.7304 5.87805 20.8468 5.75815 20.9703 5.62574L21.1062 6.04572C20.8626 6.30228 20.6013 6.53595 20.3186 6.74698L20.1342 6.38231C20.2021 6.31771 20.2333 6.2435 20.2278 6.15968L20.1345 4.74275L19.5877 4.77875L19.5614 4.37962Z" fill="white"/>
<path d="M23.9846 4.57687C23.8918 4.70329 23.795 4.82582 23.6941 4.94845L23.5426 4.50419C23.899 4.04689 24.1535 3.51619 24.3138 2.90387L24.6983 3.07406C24.6177 3.36422 24.5089 3.6471 24.3798 3.91451L24.4494 6.62562L24.0375 6.63619L23.9846 4.57687ZM24.8732 3.02955L26.9645 2.97585L26.9999 4.3554L26.2162 4.37552L26.2301 4.91534L27.1178 4.89255L27.1276 5.27642L26.2399 5.29922L26.2604 6.09495C26.3807 6.10787 26.5249 6.11217 26.685 6.11606C26.893 6.11072 27.1088 6.10118 27.3245 6.08764L27.2587 6.48546L26.8868 6.49501C26.2949 6.5062 25.8935 6.45649 25.6787 6.34997C25.4681 6.25134 25.2921 6.09581 25.1503 5.87537C25.0499 6.17005 24.9244 6.42536 24.7779 6.64119L24.5013 6.31218C24.7626 5.88933 24.9323 5.33279 25.0106 4.63856L25.4082 4.69637C25.3748 4.95331 25.3328 5.19047 25.2826 5.41583C25.342 5.54635 25.417 5.66446 25.5118 5.77006C25.6104 5.87156 25.7243 5.94466 25.8457 5.99757L25.8043 4.3861L24.9086 4.4091L24.8732 3.02955ZM26.5862 3.98189L26.5705 3.3701L25.2909 3.40295L25.3066 4.01475L26.5862 3.98189Z" fill="white"/>
<path d="M27.9058 2.87978C28.1649 3.09385 28.3841 3.30699 28.5632 3.5192L28.2564 3.80816C28.1091 3.60469 27.8941 3.38364 27.6116 3.14502L27.9058 2.87978ZM30.0976 6.5356C29.8817 6.53059 29.6458 6.52112 29.394 6.51128C29.1382 6.50134 28.9308 6.47252 28.7637 6.42863C28.6049 6.37693 28.4711 6.2818 28.3583 6.14315C28.3079 6.07396 28.2606 6.04086 28.2126 6.03974C28.1366 6.03798 27.9966 6.21078 27.7883 6.56604L27.487 6.27497C27.6943 5.9597 27.875 5.75984 28.037 5.67557L28.0624 4.57987L27.5346 4.56762L27.5435 4.18372L28.4592 4.20497L28.4239 5.72856L28.463 5.76948C28.5485 5.87549 28.6386 5.9576 28.7294 6.01172C28.844 6.0744 29.0152 6.11038 29.2469 6.12376C29.4748 6.13305 29.7426 6.14326 30.0465 6.15032C30.2465 6.15496 30.4465 6.1556 30.6545 6.16042C30.8586 6.15716 31.0148 6.15278 31.1229 6.14728L31.0134 6.55685L30.0976 6.5356ZM28.7847 3.45632L29.2086 3.46616L29.2224 2.87032L29.6263 2.87969L29.6125 3.47553L30.1163 3.48722L30.13 2.89938L30.5379 2.90884L30.5242 3.49668L30.9841 3.50735L30.9751 3.89525L30.5152 3.88458L30.4996 4.5604L31.0874 4.57404L31.0783 4.96593L30.4905 4.95229L30.4658 6.01601L30.0579 6.00654L30.0826 4.94283L29.4827 4.92891C29.3603 5.37819 29.1525 5.70946 28.8555 5.92263L28.6113 5.58487C28.8227 5.43774 28.9759 5.21723 29.0708 4.91935L28.611 4.90868L28.6201 4.51679L29.1599 4.52931C29.1789 4.40172 29.1899 4.26994 29.1933 4.12598L29.1996 3.85405L28.7757 3.84422L28.7847 3.45632ZM29.6035 3.86342L29.5994 4.03938C29.5953 4.21533 29.5794 4.383 29.5598 4.53859L30.0917 4.55093L30.1073 3.87511L29.6035 3.86342Z" fill="white"/>
<path d="M33.9934 3.17251L34.4153 3.21499L34.356 3.80401L35.335 3.9026L35.2945 4.30457L34.3155 4.20598L34.2534 4.82286L35.3359 4.93187L35.295 5.33781L34.0056 5.20797C33.7393 5.69575 33.5063 6.0542 33.3143 6.28412C33.733 6.27804 34.1537 6.25206 34.572 6.20976C34.4934 5.99279 34.4127 5.79572 34.3269 5.61018L34.7425 5.51534C34.9332 5.93658 35.0937 6.37888 35.2231 6.85022L34.8115 6.98566C34.7734 6.84513 34.7345 6.71257 34.6987 6.58836C34.0937 6.64804 33.4437 6.67506 32.7444 6.67298L32.6894 6.3016C32.7304 6.29367 32.7594 6.28453 32.7805 6.2746C32.9629 6.14019 33.2251 5.77261 33.5598 5.16308L32.7002 5.07651L32.741 4.67057L33.8315 4.78038L33.8936 4.1635L32.9942 4.07292L33.0347 3.67096L33.9341 3.76153L33.9934 3.17251ZM32.2956 3.02566C32.5303 3.2503 32.7255 3.46696 32.885 3.68001L32.5604 3.94884C32.428 3.74656 32.2292 3.52552 31.9682 3.28216L32.2956 3.02566ZM32.1023 3.94693C32.3171 4.16957 32.496 4.3886 32.6432 4.60443L32.315 4.86888C32.1942 4.67178 32.0156 4.44877 31.779 4.20383L32.1023 3.94693ZM32.3471 5.10931L32.7095 5.30259C32.4883 5.78284 32.25 6.23323 31.999 6.65018L31.5995 6.42503C31.8792 6.00292 32.1287 5.5617 32.3471 5.10931Z" fill="white"/>
<path d="M37.2942 6.52733C36.9205 6.81633 36.3723 6.99898 35.6491 7.07924L35.4744 6.69797C36.2395 6.60766 36.7741 6.43515 37.0702 6.17928C37.0889 6.1618 37.1037 6.14375 37.1218 6.13023L35.6296 5.91217L35.6863 5.52429L37.3962 5.77416C37.5247 5.55848 37.6183 5.30536 37.6764 5.01874L37.7481 4.52795L38.1478 4.58637L38.0761 5.07716C38.0181 5.36378 37.9363 5.61864 37.8315 5.83779L39.0625 6.01768L39.0058 6.40556L37.6086 6.20137L37.5638 6.2595C38.0748 6.55247 38.5376 6.87074 38.9477 7.2177L38.6655 7.54432C38.2267 7.14467 37.7707 6.80718 37.2942 6.52733ZM36.3775 4.86126C36.6383 5.01257 36.8759 5.18474 37.0824 5.37661L36.8206 5.67388C36.6018 5.45595 36.3733 5.27703 36.1271 5.13594L36.3775 4.86126ZM36.8616 4.3701C37.1151 4.5163 37.3454 4.68335 37.5518 4.87522L37.2901 5.17249C37.0752 4.95514 36.8501 4.78075 36.6112 4.64479L36.8616 4.3701ZM39.307 4.206L39.185 5.04113L38.7813 4.98213L38.8478 4.52696L36.3068 4.15562L36.2403 4.61078L35.8365 4.55179L35.9586 3.71666L37.4349 3.93241C37.4104 3.82371 37.3841 3.7269 37.3533 3.63346L37.7872 3.62411C37.8151 3.73733 37.8373 3.86186 37.8584 3.9943L39.307 4.206Z" fill="white"/>
<path d="M39.8286 4.47982L40.3805 4.57492C40.346 4.3985 40.3054 4.23321 40.2517 4.07378L40.6858 4.07551C40.7217 4.24405 40.7542 4.43231 40.7826 4.64421L41.2398 4.72301L41.1719 5.1172L40.4111 4.9861L40.3371 5.41576L41.0348 5.536C40.8561 6.57272 40.7264 7.20791 40.6527 7.44687C40.5719 7.68054 40.3655 7.77081 40.0384 7.71442C40.0068 7.70899 39.9569 7.69228 39.892 7.6689L39.8605 7.286C39.9295 7.31006 39.9872 7.32813 40.0385 7.33696C40.1764 7.36074 40.2708 7.30799 40.3162 7.18592C40.3576 7.06318 40.4469 6.61584 40.5872 5.84853L40.2679 5.79351C40.0955 6.65271 39.8396 7.26616 39.5042 7.63454L39.2436 7.30957C39.546 6.96796 39.7695 6.37735 39.9188 5.53446L40.0248 4.91953L39.7607 4.87401L39.8286 4.47982ZM41.7666 5.08168C41.6579 5.24153 41.5446 5.38032 41.4295 5.50661L41.7803 5.56707L41.7138 5.95337L41.9942 5.90428L42.0995 5.29329L42.4779 5.3585L42.3957 5.83547L43.0612 5.71879C42.9294 6.48352 42.8342 6.942 42.7748 7.09819C42.7075 7.25301 42.5395 7.3093 42.2715 7.2631L42.2675 7.26243L42.2209 6.8972C42.2879 6.90875 42.3463 6.92288 42.4015 6.93239C42.433 6.93782 42.4595 6.9018 42.4797 6.8322C42.4984 6.77049 42.5404 6.55042 42.607 6.16412L42.3312 6.20995L42.1104 7.49106L41.732 7.42585L41.9297 6.27876L41.6492 6.32785L41.4787 7.31727C41.4475 7.4986 41.4871 7.59877 41.6014 7.61847L42.3267 7.74346C42.4055 7.75705 42.4648 7.74291 42.511 7.71028C42.5618 7.67439 42.6125 7.54512 42.6663 7.32709L43.0021 7.4986C42.9075 7.83543 42.813 8.03022 42.7148 8.08229C42.6257 8.12783 42.4981 8.13831 42.3326 8.10978L41.4259 7.95354C41.146 7.90531 41.04 7.69626 41.1039 7.32573L41.2649 6.3915L40.9805 6.43991L41.0444 6.06937L41.3287 6.02096L41.4143 5.52428C41.3442 5.60149 41.2708 5.67408 41.2034 5.73553L40.995 5.36678C41.2686 5.12168 41.5343 4.75751 41.7921 4.27428L42.1634 4.42757C42.105 4.53115 42.0512 4.63147 41.9941 4.72716L43.3304 4.95745L43.2645 5.33981L41.7666 5.08168Z" fill="white"/>
<path d="M45.3071 5.87433C45.5715 6.0468 45.8071 6.24229 46.01 6.46006L45.7451 6.73946C45.5255 6.50224 45.2899 6.30674 45.0397 6.14512L45.3071 5.87433ZM44.6236 7.3689C44.865 7.51256 45.0963 7.66652 45.3136 7.83002C45.5751 7.69657 45.852 7.52531 46.145 7.31233L44.0074 6.90553L44.0807 6.52044L46.7331 7.02521L46.6672 7.371C46.3584 7.6461 46.0194 7.88697 45.647 8.08893C45.7988 8.21146 45.9459 8.33718 46.0836 8.46926L45.7924 8.78028C45.3355 8.33503 44.8488 7.96145 44.3361 7.66028L44.6236 7.3689ZM45.6207 5.01786L45.8958 5.07021C46.2828 5.68949 46.7702 6.20976 47.3492 6.63348L47.0753 6.96003C46.4985 6.52453 46.038 6.01342 45.6857 5.42519C45.1828 5.84254 44.563 6.1684 43.8262 6.40279L43.6921 5.99453C44.4338 5.77736 45.074 5.4513 45.6207 5.01786Z" fill="white"/>
<path d="M48.3876 5.49641L48.8261 7.49208L47.6419 9.15724L47.336 8.93572L48.4224 7.40985L48.0194 5.58061L48.3876 5.49641ZM49.0696 5.63532L49.5081 7.631L48.3239 9.29616L48.018 9.07464L49.1044 7.54877L48.6857 5.71633L49.0696 5.63532Z" fill="white"/>
<g clip-path="url(#clip0_254_4756)">
<path d="M4.48144 7.29658C4.19555 6.22964 3.09888 5.59648 2.03195 5.88236C0.965017 6.16825 0.331852 7.26492 0.617736 8.33185C0.903619 9.39878 2.00029 10.0319 3.06722 9.74607C4.13416 9.46018 4.76732 8.36351 4.48144 7.29658Z" fill="white"/>
<path d="M3.21858 7.6349C3.31985 8.01284 3.09559 8.4013 2.71765 8.50257C2.33972 8.60383 1.95125 8.37955 1.84998 8.00162C1.74872 7.62369 1.973 7.23522 2.35093 7.13395C2.72887 7.03269 3.11732 7.25697 3.21858 7.6349Z" fill="#485CC2"/>
<path fill-rule="evenodd" clip-rule="evenodd" d="M1.84702 7.64587C1.84678 7.78024 1.90712 8.04009 2.1541 8.05882C2.40551 8.07789 2.51676 7.90045 2.54096 7.80935C2.57413 7.72483 2.69015 7.5598 2.88886 7.57569C3.08757 7.59159 3.17055 7.71985 3.1872 7.782L3.23124 7.94634C3.24976 7.84598 3.24677 7.74004 3.2186 7.6349C3.11733 7.25697 2.72888 7.03269 2.35095 7.13395C2.09375 7.20287 1.90772 7.40478 1.84702 7.64587Z" fill="#D74B4B"/>
<path fill-rule="evenodd" clip-rule="evenodd" d="M0.956761 7.66524L1.2017 6.99229L1.30637 7.03039L1.06143 7.70334L0.956761 7.66524ZM1.13577 7.71604L1.38071 7.04309L1.48538 7.08119L1.24044 7.75414L1.13577 7.71604ZM1.54538 7.0951L1.30044 7.76805L1.40511 7.80616L1.65005 7.1332L1.54538 7.0951Z" fill="#333333"/>
<path fill-rule="evenodd" clip-rule="evenodd" d="M3.85454 6.88878L3.61685 6.68935L3.54433 6.7739L3.78295 6.97411L3.85454 6.88878ZM3.30594 6.42846L3.53153 6.61774L3.45899 6.7023L3.23435 6.51379L3.30594 6.42846ZM3.72492 7.02228L3.17632 6.56196L3.10472 6.6473L3.65332 7.10762L3.72492 7.02228ZM3.31116 7.04573L3.53673 7.23499L3.60832 7.14966L3.3837 6.96118L3.31116 7.04573ZM3.29836 6.88958L3.22584 6.97413L2.98811 6.77467L3.05972 6.68934L3.29836 6.88958Z" fill="#333333"/>
<path fill-rule="evenodd" clip-rule="evenodd" d="M4.0363 8.2548L4.14242 7.96325L4.03776 7.92514L3.93122 8.21784L4.0363 8.2548ZM3.99821 8.35948L3.89748 8.63619L3.79282 8.5981L3.89311 8.32252L3.99821 8.35948ZM3.59337 8.09902L3.69409 7.82232L3.79875 7.86043L3.69847 8.13597L3.59337 8.09902ZM3.66036 8.24065L3.55528 8.20369L3.44913 8.49528L3.55381 8.53337L3.66036 8.24065ZM3.96342 7.91243L3.86121 8.19322L3.75613 8.15626L3.85875 7.87434L3.96342 7.91243ZM3.71848 8.58539L3.82312 8.29789L3.71803 8.26094L3.6138 8.54728L3.71848 8.58539Z" fill="#333333"/>
<path fill-rule="evenodd" clip-rule="evenodd" d="M1.24465 8.73971L1.79325 9.20002L1.86485 9.1147L1.31624 8.65437L1.24465 8.73971ZM1.49087 8.47882L2.03947 8.93914L2.11107 8.85381L1.56247 8.39349L1.49087 8.47882ZM1.37427 8.60619L1.60317 8.79826L1.67569 8.71371L1.44587 8.52087L1.37427 8.60619ZM1.92287 9.06652L1.6885 8.86986L1.76103 8.78531L1.99447 8.98118L1.92287 9.06652Z" fill="#333333"/>
</g>
<defs>
<clipPath id="clip0_254_4756">
<rect width="4" height="4" fill="white" transform="translate(0.100098 6.4) rotate(-15)"/>
</clipPath>
</defs>
</svg>
