<svg width="53" height="7" viewBox="0 0 53 7" fill="none" xmlns="http://www.w3.org/2000/svg">
<path d="M6.11127 0.700606L6.46999 0.85763L5.67992 2.56735L6.42584 4.28147L6.08056 4.43648L5.26792 2.56618L6.11127 0.700606ZM6.80727 0.702595L7.14999 0.859573L6.37592 2.56934L7.12184 4.28346L6.77656 4.43847L5.96392 2.56817L6.80727 0.702595ZM9.17757 1.40136L7.84958 1.39757L7.85286 0.99758L10.9369 1.00639L10.9336 1.40638L9.60157 1.40257L9.58191 3.79449L11.1579 3.799L11.1546 4.20298L7.57459 4.19275L7.57792 3.78877L9.15791 3.79328L9.17757 1.40136ZM12.7469 0.767569L13.1668 0.768769L13.1411 3.90066L13.5811 3.90192L13.6068 0.770027L14.0268 0.771227L14.0011 3.90312L15.1531 3.90641L15.1497 4.3144L11.5738 4.30418L11.5771 3.89619L12.7211 3.89946L12.7469 0.767569ZM14.7286 1.52922L15.0958 1.63427C14.9382 2.31782 14.7412 2.91725 14.505 3.42857L14.1301 3.2955C14.3579 2.83215 14.5548 2.24072 14.7286 1.52922ZM12.0247 1.5095C12.2204 2.04205 12.3953 2.65455 12.5457 3.34297L12.1649 3.43388C12.0341 2.80951 11.871 2.20905 11.6678 1.62848L12.0247 1.5095ZM16.0786 0.80509C16.333 0.997816 16.5474 1.19043 16.7219 1.38292L16.4355 1.6701C16.281 1.48566 16.0667 1.28505 15.7924 1.07627L16.0786 0.80509ZM15.5373 1.93953L16.4613 1.94217L16.4476 3.60212C16.5645 3.49845 16.6894 3.38681 16.8224 3.26319L16.9348 3.70351C16.6688 3.94275 16.3871 4.15394 16.0895 4.34509L15.9326 3.96864C16.0011 3.90884 16.0377 3.83294 16.0384 3.74495L16.05 2.34099L15.534 2.33952L15.5373 1.93953ZM16.9653 2.42361L18.9173 2.42919L18.9142 2.80917C18.7994 3.15284 18.6129 3.45231 18.3548 3.70357C18.6015 3.86427 18.9004 4.00512 19.2553 4.13014L19.0284 4.48948C18.6377 4.32837 18.3071 4.15143 18.0448 3.95468C17.7309 4.17378 17.3495 4.34869 16.8924 4.47938L16.6633 4.12673C17.0763 4.00791 17.4255 3.85691 17.7151 3.67374C17.4612 3.41702 17.2835 3.13651 17.19 2.82425L16.962 2.82359L16.9653 2.42361ZM17.582 2.82537C17.6682 3.05361 17.8104 3.26201 18.0169 3.4466C18.2224 3.26319 18.3801 3.05964 18.494 2.82797L17.582 2.82537ZM17.25 0.876438L18.69 0.880553L18.6832 1.70852C18.6825 1.79652 18.7301 1.84466 18.8301 1.84494L19.1741 1.84593L19.171 2.22591L18.715 2.22461C18.415 2.22375 18.2681 2.08333 18.2704 1.80334L18.2748 1.27136L17.6588 1.2696L17.6579 1.3776C17.6545 1.79358 17.4358 2.11696 17.01 2.33974L16.7326 2.01895C17.0698 1.87991 17.2434 1.68041 17.2456 1.42042L17.25 0.876438ZM20.7975 1.91857L21.8295 1.92151L21.8391 0.761554L22.2711 0.762788L22.2615 1.92275L23.2415 1.92555L23.2381 2.34154L22.2581 2.33874L22.2405 4.48266L21.8085 4.48143L21.8261 2.3375L20.7941 2.33455L20.7975 1.91857ZM20.1028 0.788591C20.3532 0.985305 20.5676 1.18192 20.746 1.37442L20.4556 1.66559C20.3051 1.48116 20.0867 1.28454 19.8045 1.07574L20.1028 0.788591ZM19.5373 1.94296L20.4893 1.94568L20.4756 3.61763C20.5924 3.51796 20.7173 3.40632 20.8503 3.2827L20.9548 3.711C20.6928 3.95025 20.4151 4.16545 20.1175 4.3566L19.9606 3.98015C20.0331 3.92036 20.0697 3.84847 20.0704 3.76447L20.082 2.34452L19.534 2.34295L19.5373 1.94296ZM23.9375 2.42353C23.8404 2.54726 23.7395 2.66697 23.6345 2.78666L23.4981 2.33828C23.8698 1.89135 24.1421 1.36813 24.3231 0.760653L24.7017 0.941733C24.6113 1.22947 24.493 1.50913 24.3548 1.77273L24.3325 4.48464L23.9205 4.48346L23.9375 2.42353ZM24.878 0.902237L26.97 0.908216L26.9586 2.28817L26.1746 2.28593L26.1702 2.82591L27.0582 2.82845L27.055 3.21244L26.167 3.2099L26.1605 4.00587C26.2804 4.02221 26.4243 4.03062 26.5842 4.03908C26.7922 4.03968 27.0083 4.03629 27.2243 4.02891L27.1451 4.42468L26.7731 4.42362C26.1811 4.41793 25.7816 4.35678 25.5705 4.24418C25.3634 4.13959 25.1927 3.97911 25.0585 3.75472C24.9481 4.04641 24.8141 4.29802 24.6603 4.50958L24.3951 4.17282C24.6705 3.75761 24.859 3.20616 24.9607 2.51446L25.3562 2.58359C25.3141 2.83946 25.2641 3.07532 25.2063 3.29915C25.2612 3.43131 25.3322 3.55151 25.4233 3.65977C25.5185 3.76404 25.6298 3.84036 25.7494 3.8967L25.7626 2.28475L24.8666 2.28219L24.878 0.902237ZM26.5578 1.90303L26.5628 1.29105L25.2828 1.28739L25.2778 1.89937L26.5578 1.90303ZM27.9507 0.819019C28.213 1.02777 28.4353 1.2364 28.6176 1.44492L28.3152 1.74005C28.1648 1.53962 27.9466 1.323 27.6605 1.09019L27.9507 0.819019ZM30.1971 4.4294C29.9811 4.42879 29.7451 4.42411 29.4932 4.41939C29.2372 4.41466 29.0294 4.39007 28.8617 4.34959C28.7021 4.30113 28.5669 4.20875 28.452 4.07242C28.4005 4.00427 28.3528 3.97214 28.3048 3.972C28.2288 3.97178 28.0914 4.14739 27.8884 4.5068L27.5827 4.22193C27.7854 3.90252 27.963 3.69903 28.1238 3.61149L28.1328 2.51552L27.6048 2.51401L27.6079 2.13003L28.5239 2.13264L28.5114 3.65659L28.5511 3.69671C28.6382 3.80095 28.7296 3.88121 28.8211 3.93348C28.9366 3.9938 29.1084 4.0263 29.3403 4.03496C29.5683 4.03961 29.8362 4.04438 30.1402 4.04524C30.3402 4.04582 30.5403 4.04239 30.7483 4.04298C30.9523 4.03556 31.1084 4.02801 31.2165 4.02032L31.1131 4.43202L30.1971 4.4294ZM28.8381 1.37755L29.2621 1.37876L29.267 0.782782L29.671 0.783936L29.6661 1.37992L30.1701 1.38136L30.175 0.793376L30.583 0.794542L30.5781 1.38252L31.0381 1.38384L31.035 1.77182L30.575 1.77051L30.5694 2.44649L31.1574 2.44817L31.1542 2.84015L30.5662 2.83847L30.5574 3.90244L30.1494 3.90127L30.1582 2.83731L29.5582 2.83559C29.4425 3.28726 29.2397 3.62267 28.9459 3.84183L28.6966 3.50912C28.9059 3.35772 29.0557 3.13415 29.1462 2.83442L28.6862 2.8331L28.6894 2.44111L29.2294 2.44266C29.2465 2.31471 29.2555 2.18273 29.2567 2.03874L29.259 1.76675L28.835 1.76554L28.8381 1.37755ZM29.663 1.7679L29.6615 1.9439C29.6601 2.11989 29.6467 2.28785 29.6294 2.4438L30.1614 2.44532L30.167 1.76934L29.663 1.7679ZM33.6549 0.811321L34.0789 0.812533L34.074 1.40451L35.058 1.40733L35.0547 1.81131L34.0707 1.8085L34.0656 2.42848L35.1536 2.43159L35.1503 2.83957L33.8543 2.83587C33.6341 3.34724 33.4349 3.72666 33.2649 3.97417C33.6813 3.92736 34.0978 3.86056 34.5105 3.77774C34.4122 3.56946 34.3138 3.38118 34.2112 3.20489L34.6163 3.07005C34.8451 3.4707 35.0456 3.89526 35.2178 4.35175L34.8204 4.52661C34.7695 4.39047 34.7186 4.26233 34.6715 4.14219C34.0746 4.26049 33.4298 4.35064 32.7332 4.41665L32.6442 4.0524C32.6843 4.04051 32.7124 4.0286 32.7325 4.01665C32.9018 3.86514 33.129 3.47379 33.4063 2.83459L32.5423 2.83212L32.5456 2.42413L33.6416 2.42727L33.6467 1.80729L32.7427 1.8047L32.746 1.40072L33.65 1.4033L33.6549 0.811321ZM31.9507 0.830451C32.2051 1.03118 32.4194 1.22779 32.5978 1.42429L32.2994 1.72344C32.1489 1.53501 31.9306 1.33439 31.6483 1.11758L31.9507 0.830451ZM31.843 1.76613C32.0774 1.9668 32.2757 2.16737 32.4421 2.36784L32.1396 2.66297C32.0012 2.47858 31.8028 2.27401 31.5446 2.05328L31.843 1.76613ZM32.1937 2.89912L32.5724 3.0562C32.3963 3.5557 32.2004 4.02713 31.9888 4.46652L31.5703 4.28133C31.81 3.83402 32.0178 3.37062 32.1937 2.89912ZM35.9752 0.785953L36.7878 2.65626L35.9444 4.52183L35.6017 4.36485L36.3758 2.65508L35.6299 0.940964L35.9752 0.785953ZM36.6711 0.787942L37.4838 2.65825L36.6404 4.52382L36.2977 4.36684L37.0718 2.65707L36.3099 0.942908L36.6711 0.787942ZM40.1791 0.797967L40.5591 0.799053C40.3889 1.07456 40.2586 1.35019 40.1683 1.62593C40.0455 1.96957 39.9866 2.3174 39.9838 2.66539C39.981 3.00938 40.0341 3.35753 40.1512 3.70586C40.237 3.9781 40.3627 4.25446 40.5284 4.53493L40.1484 4.53384C39.9586 4.2693 39.8168 3.9969 39.7151 3.71661C39.5939 3.38027 39.5368 3.02811 39.5397 2.66812C39.5428 2.30013 39.6056 1.95232 39.7324 1.61668C39.8388 1.32899 39.985 1.05741 40.1791 0.797967ZM41.6474 1.25416L41.9994 1.25516L41.976 4.11107L41.508 4.10973L41.5268 1.81781C41.3535 1.97331 41.1366 2.08869 40.872 2.16393L40.8758 1.69995C41.004 1.66832 41.1405 1.61271 41.2851 1.53312C41.4299 1.44553 41.5506 1.35388 41.6474 1.25416ZM43.6674 2.31192L43.6625 2.9039L45.2425 2.90842L45.2474 2.31644L43.6674 2.31192ZM45.2506 1.92845L45.2552 1.36847L43.6752 1.36395L43.6706 1.92393L45.2506 1.92845ZM43.6354 3.29182C43.5752 3.79564 43.4197 4.21919 43.1689 4.55847L42.8513 4.26557C43.1022 3.91829 43.2299 3.47066 43.2424 2.9267L43.2585 0.962766L45.6825 0.969693L45.6567 4.10559C45.6545 4.36958 45.5175 4.50119 45.2455 4.50041L44.7335 4.49894L44.6248 4.09064C44.8007 4.10314 44.9646 4.11161 45.1126 4.11203C45.1926 4.11226 45.2331 4.05638 45.234 3.95238L45.2394 3.2964L43.6354 3.29182ZM47.4552 0.88676L47.8632 0.887926L47.8549 1.89989L48.0309 1.9004L48.0275 2.31238L47.1475 2.30987L47.1464 2.43786C47.1456 2.54586 47.1407 2.64984 47.1359 2.74983L47.8999 2.75201L47.8879 4.21196C48.087 3.83654 48.1952 3.31685 48.2166 2.66092L48.2293 1.12097C48.8654 1.11079 49.4341 1.02841 49.9394 0.86986L50.1363 1.24242C49.6792 1.37711 49.1666 1.45565 48.6064 1.47804L48.6023 1.97403L50.0543 1.97818L50.0514 2.33417C49.9591 2.8539 49.7994 3.29744 49.5644 3.66076C49.7385 3.89326 49.9531 4.06987 50.2041 4.19458L49.993 4.56598C49.7222 4.4212 49.4917 4.23255 49.3057 3.99602C49.0958 4.22741 48.8542 4.41472 48.573 4.56592L48.3801 4.18937C48.6493 4.04214 48.8788 3.8588 49.0646 3.64333C48.8715 3.29078 48.739 2.86641 48.6711 2.36622L48.5991 2.36601L48.5966 2.662C48.5742 3.44193 48.4291 4.06551 48.1653 4.52875L47.8878 4.22396L47.8853 4.52795L47.4773 4.52679L47.4886 3.14683L47.1126 3.14576C47.0599 3.7216 46.9482 4.16928 46.7856 4.48081L46.4719 4.20392C46.6349 3.83639 46.7238 3.24465 46.7344 2.43668L46.7466 0.960734L47.1586 0.961912L47.1509 1.89788L47.4469 1.89873L47.4552 0.88676ZM49.0471 2.36729C49.1082 2.71147 49.2018 3.01173 49.3276 3.27209C49.4819 3.00053 49.5883 2.70084 49.6511 2.36902L49.0471 2.36729ZM50.5277 0.827542L50.9077 0.828628C51.0936 1.08916 51.2394 1.36157 51.341 1.64986C51.4582 1.98619 51.5194 2.33436 51.5164 2.70235C51.5134 3.06234 51.4465 3.41414 51.3237 3.74979C51.2174 4.02948 51.0672 4.30105 50.877 4.5645L50.497 4.56342C50.6633 4.28389 50.7936 4.00827 50.8878 3.73654C51.0067 3.38888 51.0696 3.04107 51.0724 2.69708C51.0753 2.34909 51.0181 2.00093 50.9049 1.65661C50.8152 1.38036 50.6895 1.104 50.5277 0.827542Z" fill="white"/>
<g clip-path="url(#clip0_254_4792)">
<path d="M4 2.60001C4 1.49544 3.10457 0.600006 2 0.600006C0.89543 0.600006 0 1.49544 0 2.60001C0 3.70457 0.89543 4.60001 2 4.60001C3.10457 4.60001 4 3.70457 4 2.60001Z" fill="white"/>
<path d="M2.69264 2.59996C2.69264 2.99122 2.37547 3.30841 1.9842 3.30841C1.59294 3.30841 1.27576 2.99122 1.27576 2.59996C1.27576 2.2087 1.59294 1.89151 1.9842 1.89151C2.37547 1.89151 2.69264 2.2087 2.69264 2.59996Z" fill="#485CC2"/>
<path fill-rule="evenodd" clip-rule="evenodd" d="M1.36494 2.25556C1.32993 2.38529 1.32096 2.65191 1.55468 2.73392C1.79259 2.81741 1.94598 2.67481 1.99293 2.59307C2.04684 2.52002 2.20163 2.39064 2.38944 2.45742C2.57728 2.52421 2.62423 2.66957 2.62423 2.73392V2.90406C2.66809 2.81191 2.69263 2.70881 2.69263 2.59996C2.69263 2.2087 2.37546 1.89151 1.98419 1.89151C1.71793 1.89151 1.48598 2.0384 1.36494 2.25556Z" fill="#D74B4B"/>
<path fill-rule="evenodd" clip-rule="evenodd" d="M0.5 2.04385L0.910768 1.45723L1.00201 1.52112L0.591243 2.10774L0.5 2.04385ZM0.65976 2.13926L1.07053 1.55263L1.16177 1.61652L0.751003 2.20315L0.65976 2.13926ZM1.21612 1.64549L0.805353 2.23211L0.896597 2.29601L1.30736 1.70938L1.21612 1.64549Z" fill="#333333"/>
<path fill-rule="evenodd" clip-rule="evenodd" d="M3.49999 2.04385L3.32203 1.78969L3.23009 1.85259L3.40876 2.10774L3.49999 2.04385ZM3.08923 1.45723L3.25814 1.69844L3.16619 1.76134L2.99799 1.52112L3.08923 1.45723ZM3.34024 2.13926L2.92948 1.55263L2.83823 1.61652L3.24899 2.20315L3.34024 2.13926ZM2.93451 2.05482L3.10341 2.296L3.19464 2.23211L3.02646 1.99192L2.93451 2.05482ZM2.96256 1.90067L2.87063 1.96357L2.69263 1.70938L2.78388 1.64549L2.96256 1.90067Z" fill="#333333"/>
<path fill-rule="evenodd" clip-rule="evenodd" d="M3.32203 3.41037L3.49999 3.15622L3.40876 3.09232L3.23009 3.34747L3.32203 3.41037ZM3.25814 3.50162L3.08923 3.74284L2.99799 3.67896L3.16619 3.43872L3.25814 3.50162ZM2.93451 3.14526L3.10341 2.90406L3.19464 2.96796L3.02646 3.20816L2.93451 3.14526ZM2.96256 3.29941L2.87063 3.23651L2.69263 3.49069L2.78388 3.55457L2.96256 3.29941ZM3.34024 3.06081L3.16884 3.30557L3.07691 3.24267L3.24899 2.99692L3.34024 3.06081ZM2.92948 3.64744L3.10496 3.39682L3.01301 3.33392L2.83823 3.58354L2.92948 3.64744Z" fill="#333333"/>
<path fill-rule="evenodd" clip-rule="evenodd" d="M0.5 3.15622L0.910768 3.74284L1.00201 3.67896L0.591243 3.09232L0.5 3.15622ZM0.805353 2.96796L1.21612 3.55457L1.30736 3.49069L0.896597 2.90406L0.805353 2.96796ZM0.65976 3.06081L0.83115 3.30557L0.923087 3.24267L0.751005 2.99692L0.65976 3.06081ZM1.07053 3.64744L0.895045 3.39682L0.986982 3.33392L1.16177 3.58354L1.07053 3.64744Z" fill="#333333"/>
</g>
<defs>
<clipPath id="clip0_254_4792">
<rect width="4" height="4" fill="white" transform="translate(0 0.600006)"/>
</clipPath>
</defs>
</svg>
