<svg width="52" height="16" viewBox="0 0 52 16" fill="none" xmlns="http://www.w3.org/2000/svg">
<path d="M5.37018 9.89304L5.76175 9.91766L5.61257 11.7914L6.90829 13.144L6.63762 13.4075L5.225 11.9312L5.37018 9.89304ZM6.0249 9.65692L6.40142 9.68697L6.26729 11.5553L7.56302 12.9079L7.29234 13.1714L5.87972 11.695L6.0249 9.65692Z" fill="white"/>
<path d="M8.6386 9.60031L7.35925 9.95646L7.25198 9.57112L10.223 8.74402L10.3303 9.12937L9.04707 9.4866L9.68858 11.791L11.2068 11.3683L11.3152 11.7575L7.86634 12.7176L7.75799 12.3284L9.28011 11.9047L8.6386 9.60031Z" fill="white"/>
<path d="M12.1022 8.06133L12.5127 7.97288L13.1723 11.0346L13.6024 10.942L12.9429 7.88022L13.3535 7.79177L14.013 10.8535L15.1392 10.6109L15.2251 11.0098L11.7293 11.7629L11.6434 11.364L12.7617 11.1231L12.1022 8.06133ZM14.2048 8.38172L14.5864 8.40589C14.5819 9.10656 14.5205 9.73354 14.4016 10.2829L14.0062 10.2331C14.1275 9.73229 14.1905 9.11314 14.2048 8.38172ZM11.5589 8.93943C11.8664 9.41738 12.1713 9.97775 12.4687 10.6175L12.1166 10.7874C11.8522 10.2061 11.5616 9.65489 11.2361 9.1317L11.5589 8.93943Z" fill="white"/>
<path d="M15.3448 7.4248C15.6293 7.57133 15.8743 7.72454 16.0799 7.88444L15.848 8.21584C15.6635 8.06049 15.4171 7.89939 15.1102 7.74043L15.3448 7.4248ZM15.0101 8.63372L15.9211 8.47934L16.1985 10.116C16.2954 9.99408 16.399 9.86294 16.5084 9.71863L16.6963 10.1331C16.4761 10.4138 16.2355 10.6696 15.9757 10.9084L15.7551 10.5644C15.8122 10.4939 15.835 10.4129 15.8202 10.3261L15.5857 8.94189L15.0769 9.0281L15.0101 8.63372ZM16.5022 8.86771L18.4267 8.54156L18.4902 8.91622C18.4373 9.2741 18.306 9.60063 18.0957 9.89186C18.3669 10.0082 18.6861 10.0961 19.0578 10.1589L18.8971 10.5512C18.4839 10.459 18.1271 10.3409 17.8341 10.1918C17.5633 10.4608 17.218 10.6978 16.7905 10.9042L16.5029 10.5959C16.8891 10.4087 17.2068 10.2007 17.46 9.97118C17.1648 9.76156 16.9406 9.51557 16.7938 9.22399L16.569 9.26209L16.5022 8.86771ZM17.1803 9.1585C17.3051 9.36859 17.4819 9.5496 17.7177 9.69626C17.8881 9.48077 18.0078 9.25357 18.0795 9.00612L17.1803 9.1585ZM16.5117 7.29603L17.9314 7.05542L18.0698 7.87178C18.0845 7.95855 18.1398 7.99785 18.2384 7.98114L18.5776 7.92367L18.6411 8.29833L18.1915 8.37452C17.8957 8.42464 17.7264 8.31134 17.6796 8.03527L17.5907 7.51075L16.9834 7.61368L17.0014 7.72016C17.0709 8.13031 16.9121 8.48585 16.5315 8.77754L16.202 8.50882C16.5099 8.31465 16.646 8.08872 16.6026 7.83238L16.5117 7.29603Z" fill="white"/>
<path d="M20.3004 7.75204L21.323 7.61294L21.1667 6.46352L21.5947 6.40529L21.7511 7.55471L22.7221 7.42262L22.7782 7.83482L21.8071 7.96691L22.0961 10.0913L21.6681 10.1496L21.3791 8.02514L20.3565 8.16424L20.3004 7.75204ZM19.4508 6.72922C19.7269 6.88947 19.9674 7.05456 20.1716 7.22055L19.9256 7.5487C19.7502 7.38687 19.5058 7.22231 19.1963 7.05449L19.4508 6.72922ZM19.0557 7.94961L19.999 7.8213L20.2244 9.47804C20.3258 9.36332 20.4336 9.23562 20.5477 9.09496L20.7124 9.5045C20.4871 9.77736 20.2428 10.0286 19.9753 10.2587L19.7661 9.90773C19.8294 9.83857 19.8553 9.76238 19.844 9.67914L19.6526 8.2721L19.1096 8.34596L19.0557 7.94961Z" fill="white"/>
<path d="M23.4802 7.8348C23.399 7.96899 23.3134 8.09967 23.2239 8.2308L23.0334 7.80182C23.3476 7.31457 23.5537 6.76329 23.6588 6.13911L24.057 6.27434C24.0026 6.57053 23.9195 6.86199 23.8147 7.13985L24.1257 9.83395L23.7164 9.8812L23.4802 7.8348ZM24.2272 6.21442L26.3054 5.97447L26.4637 7.34537L25.6849 7.43529L25.7468 7.97172L26.629 7.86987L26.673 8.25134L25.7909 8.35319L25.8822 9.14394C26.0032 9.14607 26.1472 9.1375 26.307 9.12709C26.5137 9.10324 26.7278 9.07449 26.9414 9.04177L26.9114 9.44387L26.5418 9.48654C25.9533 9.55046 25.549 9.53674 25.3256 9.44979C25.107 9.37034 24.9178 9.23112 24.757 9.0242C24.6832 9.32666 24.581 9.59213 24.4543 9.82017L24.1495 9.51713C24.372 9.07267 24.4915 8.50321 24.5075 7.80477L24.9087 7.8269C24.8983 8.0858 24.8777 8.32575 24.8478 8.55469C24.9185 8.6794 25.0038 8.79035 25.1076 8.88708C25.2149 8.97938 25.3349 9.04204 25.4605 9.0839L25.2756 7.48254L24.3855 7.58531L24.2272 6.21442ZM26.0183 7.01024L25.9481 6.40228L24.6766 6.54909L24.7468 7.15705L26.0183 7.01024Z" fill="white"/>
<path d="M27.3152 5.77407C27.5999 5.95266 27.8449 6.13552 28.0501 6.32267L27.7834 6.64904C27.6109 6.46643 27.3691 6.27518 27.0579 6.07529L27.3152 5.77407ZM29.9634 9.11415C29.7486 9.13724 29.5135 9.15849 29.2626 9.18144C29.0076 9.20483 28.7982 9.2032 28.6269 9.18138C28.4627 9.15076 28.3177 9.07383 28.1878 8.951C28.1288 8.88895 28.0777 8.86226 28.0299 8.8674C27.9544 8.87552 27.838 9.06505 27.6776 9.44436L27.341 9.19491C27.5056 8.85537 27.6588 8.63372 27.8085 8.52912L27.6914 7.4394L27.1664 7.49584L27.1253 7.11404L28.0361 7.01613L28.199 8.5314L28.243 8.5669C28.3417 8.66089 28.4417 8.7306 28.5387 8.77247C28.6605 8.81973 28.8349 8.83316 29.0664 8.81632C29.2935 8.79592 29.5604 8.77126 29.8627 8.73876C30.0615 8.71739 30.26 8.69203 30.4668 8.6698C30.6688 8.64004 30.823 8.61541 30.9295 8.59591L30.8741 9.01624L29.9634 9.11415ZM28.2615 6.23154L28.6831 6.18622L28.6194 5.59364L29.0211 5.55045L29.0848 6.14304L29.5859 6.08917L29.523 5.50454L29.9287 5.46093L29.9916 6.04556L30.4489 5.99639L30.4904 6.38217L30.033 6.43134L30.1053 7.10346L30.6899 7.04062L30.7318 7.43037L30.1472 7.49322L30.2609 8.55112L29.8553 8.59473L29.7415 7.53683L29.145 7.60096C29.0819 8.06234 28.919 8.41779 28.6522 8.66774L28.3661 8.36458C28.5567 8.19122 28.6799 7.95268 28.7353 7.645L28.278 7.69416L28.2361 7.30441L28.773 7.24669C28.7752 7.11771 28.769 6.98562 28.7536 6.84244L28.7246 6.572L28.303 6.61732L28.2615 6.23154ZM29.1263 6.52882L29.1451 6.70381C29.1639 6.8788 29.1699 7.04712 29.1707 7.20394L29.6996 7.14707L29.6274 6.47495L29.1263 6.52882Z" fill="white"/>
<path d="M32.943 5.13594L33.3643 5.08793L33.4313 5.67612L34.409 5.56469L34.4547 5.96609L33.4771 6.07752L33.5473 6.69353L34.6283 6.57033L34.6745 6.9757L33.3868 7.12246C33.2302 7.65563 33.0785 8.05538 32.9396 8.32081C33.3475 8.22601 33.7531 8.11134 34.153 7.98122C34.0301 7.78588 33.9094 7.61042 33.7862 7.44733L34.1722 7.26645C34.448 7.63761 34.6987 8.03578 34.9252 8.46892L34.5517 8.68863C34.4846 8.55939 34.4184 8.4381 34.3571 8.32431C33.7786 8.51103 33.1491 8.67536 32.4653 8.82174L32.3327 8.4705C32.3711 8.45405 32.3975 8.43896 32.416 8.42477C32.5657 8.25472 32.7439 7.83988 32.9417 7.17319L32.0832 7.27103L32.037 6.86566L33.126 6.74155L33.0558 6.12553L32.1576 6.2279L32.1118 5.8265L33.01 5.72413L32.943 5.13594ZM31.2527 5.35275C31.5297 5.52247 31.7665 5.69275 31.9675 5.86711L31.7074 6.1987C31.5351 6.02912 31.2939 5.85532 30.9872 5.67287L31.2527 5.35275ZM31.2593 6.29405C31.5164 6.46604 31.7378 6.6421 31.9274 6.82179L31.6628 7.14986C31.5029 6.9829 31.2811 6.80286 30.9978 6.61372L31.2593 6.29405ZM31.7452 7.378L32.1404 7.48997C32.0261 8.00623 31.8888 8.49694 31.732 8.95766L31.2938 8.8224C31.4776 8.35056 31.6277 7.86644 31.7452 7.378Z" fill="white"/>
<path d="M37.0182 7.55989C36.7402 7.94183 36.2649 8.27044 35.593 8.54968L35.3186 8.23245C36.028 7.93185 36.493 7.61678 36.7058 7.28834C36.7189 7.26632 36.728 7.24486 36.7417 7.22681L35.2481 7.43457L35.194 7.0463L36.9056 6.80824C36.9687 6.56522 36.9878 6.29603 36.9634 6.00461L36.8951 5.51334L37.2952 5.45768L37.3635 5.94895C37.3879 6.24037 37.3807 6.50791 37.3414 6.74762L38.5735 6.57623L38.6275 6.96449L37.229 7.15903L37.2021 7.22737C37.7747 7.36582 38.308 7.54202 38.7988 7.76048L38.6192 8.15298C38.0861 7.89192 37.554 7.69537 37.0182 7.55989ZM35.6723 6.2165C35.965 6.28886 36.2413 6.38774 36.4931 6.51426L36.3249 6.87285C36.0539 6.72477 35.7845 6.61686 35.5087 6.55022L35.6723 6.2165ZM35.9998 5.6096C36.2841 5.67909 36.5519 5.77512 36.8037 5.90163L36.6355 6.26022C36.3685 6.11159 36.1035 6.00709 35.8362 5.94332L35.9998 5.6096ZM38.3019 4.76842L38.4181 5.60437L38.014 5.66058L37.9506 5.20497L35.4071 5.55876L35.4705 6.01438L35.0664 6.07059L34.9501 5.23463L36.4279 5.02908C36.3739 4.93158 36.3217 4.84597 36.266 4.76487L36.68 4.63459C36.7384 4.7355 36.7946 4.84885 36.8518 4.97011L38.3019 4.76842Z" fill="white"/>
<path d="M38.78 4.89565L39.3299 4.78981C39.2353 4.63693 39.1391 4.49659 39.0325 4.36638L39.4392 4.21479C39.5323 4.35981 39.6292 4.52447 39.7306 4.71269L40.1862 4.625L40.2618 5.01779L39.5037 5.1637L39.5861 5.59184L40.2814 5.45802C40.4802 6.49106 40.583 7.13116 40.5985 7.38074C40.6053 7.62791 40.4441 7.7852 40.1181 7.84795C40.0867 7.854 40.0341 7.85597 39.9651 7.85704L39.8005 7.50989C39.8735 7.50806 39.9339 7.50458 39.985 7.49475C40.1224 7.46829 40.1921 7.38564 40.1914 7.25541C40.1869 7.12594 40.1125 6.67589 39.9729 5.90844L39.6548 5.96967C39.7968 6.83442 39.7739 7.49871 39.5901 7.9618L39.2316 7.74974C39.3939 7.32337 39.3946 6.69187 39.2367 5.85054L39.1188 5.23778L38.8556 5.28844L38.78 4.89565ZM40.8056 4.77462C40.7603 4.96256 40.7034 5.13238 40.6403 5.29118L40.9899 5.22389L41.064 5.60883L41.309 5.46391L41.1918 4.85508L41.5689 4.7825L41.6604 5.25778L42.2418 4.91368C42.3885 5.6757 42.4612 6.13829 42.4608 6.30538C42.4525 6.47398 42.3152 6.58595 42.0481 6.63736L42.0442 6.63812L41.8716 6.31287C41.9384 6.30002 41.998 6.29261 42.053 6.28203C42.0844 6.27598 42.0965 6.23292 42.0908 6.1607C42.0865 6.09635 42.0481 5.87563 41.974 5.49069L41.7322 5.63093L41.9779 6.9075L41.6008 6.98008L41.3808 5.83706L41.1358 5.98198L41.3255 6.96788C41.3603 7.14857 41.4327 7.22832 41.5466 7.2064L42.2693 7.06729C42.3479 7.05217 42.3984 7.01802 42.4301 6.97118C42.465 6.91966 42.4668 6.78082 42.4401 6.55783L42.8148 6.59977C42.8452 6.94831 42.8256 7.1639 42.7521 7.2473C42.6848 7.32134 42.5691 7.3762 42.4042 7.40795L41.5007 7.58184C41.2219 7.63551 41.0488 7.47736 40.9778 7.10814L40.7986 6.17722L40.5497 6.3229L40.4786 5.95368L40.7275 5.808L40.6323 5.31308C40.5939 5.41008 40.5509 5.50391 40.5095 5.5852L40.1843 5.31376C40.3538 4.98786 40.4738 4.55334 40.5445 4.0102L40.946 4.02253C40.9279 4.14007 40.913 4.25293 40.8933 4.36261L42.2249 4.10633L42.2982 4.48733L40.8056 4.77462Z" fill="white"/>
<path d="M44.1287 4.1423C44.4426 4.17567 44.7414 4.24265 45.0211 4.34435L44.9122 4.71365C44.6088 4.60219 44.3101 4.53522 44.0137 4.50504L44.1287 4.1423ZM44.1996 5.7842C44.4799 5.80238 44.7559 5.83432 45.0238 5.88115C45.1961 5.64335 45.3648 5.36491 45.5289 5.042L43.4401 5.65173L43.3302 5.27543L45.9221 4.51887L46.0207 4.85677C45.8707 5.24224 45.6783 5.61092 45.4385 5.9601C45.6294 6.00022 45.8176 6.0453 46.0003 6.1003L45.8823 6.50976C45.273 6.32093 44.6696 6.20954 44.076 6.17447L44.1996 5.7842ZM44.0186 3.23688L44.2874 3.15842C44.9137 3.53397 45.5843 3.77575 46.2926 3.88983L46.1972 4.30521C45.4855 4.17961 44.8429 3.93382 44.2617 3.57011C44.0036 4.17049 43.5997 4.74257 43.0501 5.28637L42.745 4.98372C43.3068 4.45304 43.7288 3.8715 44.0186 3.23688Z" fill="white"/>
<path d="M46.5062 2.42366L47.9106 3.90778L47.7542 5.94507L47.3778 5.91293L47.5223 4.04541L46.2341 2.6856L46.5062 2.42366ZM47.1622 2.19117L48.5666 3.6753L48.4102 5.71258L48.0338 5.68045L48.1783 3.81292L46.875 2.45846L47.1622 2.19117Z" fill="white"/>
<g clip-path="url(#clip0_254_4827)">
<path d="M4.34738 12.2489C4.09891 11.1727 3.025 10.5016 1.94874 10.7501C0.87248 10.9986 0.201428 12.0725 0.449902 13.1487C0.698376 14.225 1.77228 14.896 2.84854 14.6476C3.9248 14.3991 4.59586 13.3252 4.34738 12.2489Z" fill="white"/>
<path d="M3.0735 12.543C3.16151 12.9242 2.92383 13.3046 2.54259 13.3926C2.16135 13.4807 1.78095 13.2429 1.69293 12.8617C1.60492 12.4805 1.84262 12.1001 2.22386 12.0121C2.6051 11.924 2.98548 12.1617 3.0735 12.543Z" fill="#485CC2"/>
<path fill-rule="evenodd" clip-rule="evenodd" d="M1.7024 12.5061C1.69747 12.6404 1.74871 12.9022 1.99488 12.9295C2.24548 12.9573 2.36285 12.7839 2.39021 12.6937C2.42631 12.6104 2.54803 12.4495 2.74605 12.4723C2.94409 12.4951 3.02254 12.6262 3.03702 12.6889L3.07529 12.8547C3.0973 12.755 3.09801 12.649 3.07353 12.543C2.98551 12.1617 2.60513 11.924 2.22389 12.0121C1.96444 12.072 1.77148 12.2673 1.7024 12.5061Z" fill="#D74B4B"/>
<path fill-rule="evenodd" clip-rule="evenodd" d="M0.811954 12.4944L1.08023 11.8304L1.18351 11.8721L0.915231 12.5361L0.811954 12.4944ZM0.989081 12.5514L1.25736 11.8874L1.36064 11.9291L1.09236 12.5931L0.989081 12.5514ZM1.42011 11.9451L1.15183 12.6091L1.25511 12.6508L1.52339 11.9868L1.42011 11.9451Z" fill="#333333"/>
<path fill-rule="evenodd" clip-rule="evenodd" d="M3.7351 11.8195L3.50452 11.6119L3.4291 11.6939L3.66058 11.9023L3.7351 11.8195ZM3.2029 11.3403L3.42175 11.5374L3.34631 11.6193L3.12838 11.4231L3.2029 11.3403ZM3.60091 11.9484L3.06871 11.4692L2.99417 11.552L3.52637 12.0312L3.60091 11.9484ZM3.18658 11.9574L3.40541 12.1544L3.47993 12.0716L3.26202 11.8754L3.18658 11.9574ZM3.17923 11.8009L3.10381 11.8829L2.87319 11.6752L2.94773 11.5924L3.17923 11.8009Z" fill="#333333"/>
<path fill-rule="evenodd" clip-rule="evenodd" d="M3.86907 13.191L3.98531 12.9034L3.88204 12.8616L3.76535 13.1504L3.86907 13.191ZM3.82735 13.2943L3.71703 13.5674L3.61376 13.5256L3.72361 13.2537L3.82735 13.2943ZM3.43185 13.0199L3.54216 12.7469L3.64543 12.7886L3.53559 13.0605L3.43185 13.0199ZM3.49386 13.1638L3.39013 13.1232L3.27387 13.4109L3.37715 13.4526L3.49386 13.1638ZM3.80819 12.8463L3.69624 13.1234L3.59251 13.0828L3.7049 12.8046L3.80819 12.8463ZM3.53991 13.5103L3.65452 13.2267L3.55078 13.1861L3.43663 13.4686L3.53991 13.5103Z" fill="#333333"/>
<path fill-rule="evenodd" clip-rule="evenodd" d="M1.06222 13.5782L1.59442 14.0574L1.66895 13.9746L1.13675 13.4954L1.06222 13.5782ZM1.31739 13.3261L1.84959 13.8053L1.92413 13.7225L1.39192 13.2433L1.31739 13.3261ZM1.19642 13.4493L1.41848 13.6493L1.49391 13.5673L1.27096 13.3665L1.19642 13.4493ZM1.72863 13.9285L1.50126 13.7238L1.57669 13.6418L1.80316 13.8457L1.72863 13.9285Z" fill="#333333"/>
</g>
<defs>
<clipPath id="clip0_254_4827">
<rect width="4" height="4" fill="white" transform="translate(0 11.2) rotate(-13)"/>
</clipPath>
</defs>
</svg>
