<svg width="56" height="32" viewBox="0 0 56 32" fill="none" xmlns="http://www.w3.org/2000/svg">
<path d="M4.73893 18.2497L5.11415 18.135L5.6335 19.9415L7.32217 20.752L7.16144 21.0938L5.31985 20.2087L4.73893 18.2497ZM5.26879 17.7984L5.63182 17.6941L6.16335 19.4902L7.85202 20.3007L7.69129 20.6425L5.8497 19.7574L5.26879 17.7984Z" fill="white"/>
<path d="M7.79785 16.8948L6.67942 17.6108L6.46375 17.2739L9.06107 15.6111L9.27674 15.948L8.15494 16.6662L9.44464 18.6807L10.7719 17.8309L10.9898 18.1712L7.97471 20.1014L7.75689 19.7612L9.08755 18.9093L7.79785 16.8948Z" fill="white"/>
<path d="M10.8066 14.4107L11.1834 14.225L12.5679 17.0344L12.9625 16.8399L11.578 14.0305L11.9548 13.8448L13.3393 16.6542L14.3726 16.145L14.553 16.5109L11.3453 18.0917L11.165 17.7258L12.1911 17.22L10.8066 14.4107ZM12.924 14.21L13.3001 14.1406C13.4661 14.8213 13.5591 15.4444 13.5774 16.0062L13.1817 16.054C13.1775 15.5388 13.0881 14.9229 12.924 14.21ZM10.4933 15.3945C10.9078 15.7833 11.3398 16.2527 11.7839 16.8009L11.4837 17.0514C11.0859 16.5518 10.6699 16.0879 10.227 15.6596L10.4933 15.3945Z" fill="white"/>
<path d="M14.0288 12.939C14.3367 13.0261 14.6073 13.1275 14.8406 13.2434L14.6792 13.6143C14.4675 13.4987 14.194 13.3898 13.8616 13.2949L14.0288 12.939ZM13.941 14.1903L14.8032 13.858L15.4002 15.4069C15.4711 15.2681 15.5465 15.119 15.625 14.9558L15.8915 15.3247C15.7315 15.6436 15.5465 15.9421 15.3394 16.2277L15.0549 15.9344C15.0967 15.854 15.103 15.7701 15.0713 15.688L14.5663 14.378L14.0849 14.5636L13.941 14.1903ZM15.4498 14.1231L17.2712 13.421L17.4078 13.7756C17.4271 14.1369 17.3633 14.483 17.2151 14.8102C17.504 14.8703 17.8343 14.893 18.2111 14.8806L18.1315 15.2971C17.7082 15.2888 17.3351 15.244 17.0183 15.1561C16.8063 15.4736 16.5151 15.7745 16.1371 16.0617L15.794 15.8167C16.1352 15.5565 16.4053 15.2895 16.6078 15.0143C16.2769 14.8675 16.0082 14.6709 15.8064 14.4144L15.5937 14.4964L15.4498 14.1231ZM16.1722 14.2734C16.3363 14.4544 16.5455 14.5967 16.8057 14.6936C16.9299 14.4485 17.0021 14.2021 17.0231 13.9453L16.1722 14.2734ZM15.1468 12.5809L16.4904 12.063L16.7883 12.8355C16.8199 12.9177 16.882 12.9452 16.9753 12.9092L17.2962 12.7855L17.4329 13.14L17.0074 13.3041C16.7275 13.412 16.5391 13.3346 16.4384 13.0733L16.247 12.5769L15.6722 12.7985L15.7111 12.8992C15.8607 13.2874 15.7757 13.6674 15.4606 14.0289L15.0843 13.8311C15.3474 13.5796 15.436 13.3311 15.3425 13.0885L15.1468 12.5809Z" fill="white"/>
<path d="M18.8185 12.382L19.8061 12.0826L19.4696 10.9725L19.8831 10.8472L20.2196 11.9573L21.1574 11.673L21.2781 12.0711L20.3402 12.3554L20.9622 14.4072L20.5487 14.5325L19.9268 12.4807L18.9392 12.7801L18.8185 12.382ZM17.8176 11.5067C18.1156 11.6212 18.3791 11.7461 18.6071 11.8776L18.4162 12.2406C18.2174 12.1086 17.95 11.9848 17.6178 11.8682L17.8176 11.5067ZM17.6208 12.7743L18.5319 12.4981L19.0169 14.0982C19.0989 13.9689 19.1851 13.8257 19.2754 13.6688L19.5029 14.047C19.3237 14.3521 19.1223 14.6389 18.8947 14.9085L18.6325 14.5951C18.684 14.5168 18.6976 14.4374 18.6732 14.357L18.2613 12.9981L17.7368 13.1571L17.6208 12.7743Z" fill="white"/>
<path d="M22.0885 11.95C22.0232 12.0926 21.953 12.2322 21.879 12.3727L21.6409 11.9682C21.8976 11.4483 22.0395 10.8771 22.0729 10.245L22.4838 10.334C22.4635 10.6345 22.4141 10.9335 22.3416 11.2215L22.9576 13.8626L22.5564 13.9562L22.0885 11.95ZM22.6461 10.2551L24.6834 9.77998L24.9969 11.1239L24.2334 11.302L24.356 11.8279L25.2208 11.6262L25.308 12.0002L24.4432 12.2018L24.624 12.977C24.7445 12.9654 24.8866 12.9404 25.0442 12.9119C25.2468 12.8647 25.4562 12.8117 25.6647 12.7549L25.6807 13.1578L25.3184 13.2423C24.7409 13.3728 24.3378 13.4052 24.1059 13.3443C23.8797 13.2903 23.6758 13.1735 23.4925 12.9862C23.4537 13.2951 23.3823 13.5705 23.2825 13.8115L22.9452 13.5452C23.1156 13.0783 23.1694 12.4989 23.1057 11.8032L23.5068 11.7795C23.526 12.0379 23.5329 12.2786 23.5292 12.5095C23.6137 12.6253 23.7111 12.7258 23.8252 12.8101C23.9423 12.8896 24.0687 12.9381 24.1982 12.9654L23.8321 11.3955L22.9595 11.599L22.6461 10.2551ZM24.5162 10.8417L24.3772 10.2457L23.1307 10.5364L23.2697 11.1324L24.5162 10.8417Z" fill="white"/>
<path d="M25.7177 9.47885C26.0133 9.63877 26.2695 9.80552 26.4863 9.97909L26.2412 10.3219C26.0573 10.1508 25.8037 9.97546 25.4803 9.79598L25.7177 9.47885ZM28.575 12.6418C28.3622 12.6787 28.129 12.715 27.88 12.754C27.6271 12.7938 27.418 12.8056 27.2457 12.7948C27.0798 12.7748 26.9301 12.7074 26.7926 12.5931C26.7298 12.535 26.677 12.5117 26.6297 12.5198C26.5548 12.5328 26.4509 12.7294 26.3152 13.1183L25.9633 12.891C26.1058 12.5415 26.2444 12.3105 26.387 12.1965L26.2001 11.1166L25.6798 11.2066L25.6143 10.8282L26.5169 10.672L26.7768 12.1737L26.8231 12.2063C26.9275 12.2937 27.0318 12.3569 27.1314 12.3924C27.2559 12.4318 27.4308 12.434 27.6608 12.4023C27.8861 12.3673 28.1509 12.3256 28.4504 12.2737C28.6475 12.2396 28.8439 12.2015 29.0488 12.1661C29.2485 12.1234 29.4008 12.0889 29.5059 12.0626L29.4776 12.4856L28.575 12.6418ZM26.6915 9.87456L27.1093 9.80224L27.0076 9.21498L27.4057 9.14607L27.5073 9.73334L28.0039 9.64738L27.9037 9.06799L28.3057 8.99841L28.406 9.57779L28.8592 9.49933L28.9254 9.88165L28.4721 9.9601L28.5874 10.6262L29.1668 10.5259L29.2337 10.9122L28.6543 11.0125L28.8358 12.0609L28.4338 12.1305L28.2523 11.082L27.6611 11.1844C27.6278 11.6489 27.488 12.014 27.2378 12.2806L26.9329 11.9965C27.1119 11.8112 27.2196 11.5653 27.2551 11.2546L26.8018 11.3331L26.735 10.9468L27.2671 10.8547C27.261 10.7259 27.2464 10.5945 27.2218 10.4526L27.1754 10.1846L26.7576 10.2569L26.6915 9.87456ZM27.5735 10.1157L27.6035 10.2891C27.6335 10.4625 27.6504 10.6301 27.6612 10.7865L28.1854 10.6958L28.0701 10.0297L27.5735 10.1157Z" fill="white"/>
<path d="M31.5655 8.57474L31.9866 8.52587L32.0549 9.11392L33.0323 9.00051L33.0789 9.40181L32.1014 9.51523L32.1729 10.1311L33.2536 10.0057L33.3007 10.411L32.0133 10.5604C31.8577 11.0938 31.7069 11.4939 31.5686 11.7596C31.9763 11.664 32.3816 11.5485 32.7812 11.4176C32.6579 11.2225 32.5369 11.0472 32.4133 10.8844L32.7989 10.7027C33.0755 11.0733 33.327 11.471 33.5544 11.9037L33.1813 12.1241C33.114 11.995 33.0476 11.8739 32.9861 11.7602C32.4079 11.9481 31.7788 12.1137 31.0953 12.2615L30.9619 11.9105C31.0003 11.894 31.0267 11.8789 31.0452 11.8646C31.1945 11.6943 31.3719 11.2791 31.5683 10.612L30.71 10.7116L30.663 10.3063L31.7517 10.18L31.6803 9.5641L30.7823 9.66829L30.7357 9.26699L31.6337 9.16279L31.5655 8.57474ZM29.8756 8.79498C30.1529 8.96414 30.3901 9.13394 30.5915 9.30788L30.332 9.64C30.1594 9.47077 29.9178 9.29746 29.6108 9.11564L29.8756 8.79498ZM29.8841 9.73627C30.1416 9.90773 30.3633 10.0833 30.5533 10.2627L30.2894 10.5913C30.1291 10.4246 29.9069 10.245 29.6233 10.0565L29.8841 9.73627ZM30.3722 10.8192L30.7676 10.9304C30.6544 11.4469 30.5181 11.9379 30.3622 12.3989L29.9238 12.2645C30.1066 11.7923 30.2557 11.3079 30.3722 10.8192Z" fill="white"/>
<path d="M33.9256 8.304L34.8669 10.1176L34.1553 12.0329L33.8023 11.8984L34.4557 10.1429L33.5918 8.48086L33.9256 8.304ZM34.6203 8.26122L35.5616 10.0748L34.85 11.9902L34.497 11.8556L35.1503 10.1001L34.2706 8.43905L34.6203 8.26122Z" fill="white"/>
<path d="M38.5339 8.06274L38.9137 8.04961C38.7553 8.33125 38.6369 8.61151 38.5585 8.89038C38.4504 9.23832 38.4065 9.58805 38.4185 9.93584C38.4304 10.2796 38.4984 10.6255 38.6303 10.9691C38.7277 11.2379 38.8651 11.5094 39.0427 11.7834L38.6629 11.7965C38.4619 11.5393 38.3086 11.2724 38.195 10.9962C38.0595 10.6647 37.9873 10.315 37.9749 9.95517C37.9622 9.58739 38.0101 9.23752 38.1225 8.89744C38.2165 8.60602 38.351 8.32921 38.5339 8.06274Z" fill="white"/>
<path d="M40.5775 8.46359L40.9295 8.45785L40.9761 11.3135L40.5081 11.3211L40.4707 9.02941C40.3013 9.1882 40.0872 9.30771 39.8245 9.38801L39.8169 8.92407C39.9444 8.88999 40.0795 8.83177 40.2221 8.74943C40.3647 8.65909 40.4832 8.56515 40.5775 8.46359Z" fill="white"/>
<path d="M43.0506 8.39542C43.3266 8.39719 43.5541 8.47865 43.733 8.63981C43.908 8.80093 43.9947 9.00549 43.993 9.26149C43.9915 9.50948 43.894 9.73286 43.7087 9.93568C43.5959 10.055 43.395 10.2057 43.1138 10.3919C42.8206 10.582 42.6435 10.7489 42.5786 10.8924L43.9865 10.9015L43.9839 11.3135L41.9919 11.3007C41.9938 11.0087 42.0874 10.7573 42.2808 10.5425C42.3856 10.4232 42.6067 10.2486 42.9401 10.0227C43.125 9.89593 43.2536 9.78875 43.3342 9.70527C43.4591 9.56607 43.5241 9.41448 43.5251 9.25448C43.5261 9.09849 43.4828 8.98221 43.4033 8.90569C43.3198 8.82916 43.196 8.79236 43.032 8.79131C42.856 8.79018 42.7237 8.84933 42.6349 8.96877C42.5462 9.0802 42.4971 9.25189 42.4876 9.47583L42.0197 9.47283C42.0257 9.15286 42.1193 8.89746 42.3046 8.70264C42.4939 8.49585 42.7426 8.39344 43.0506 8.39542Z" fill="white"/>
<path d="M45.8025 9.55186L45.7801 10.1434L47.359 10.2031L47.3814 9.61152L45.8025 9.55186ZM47.396 9.2238L47.4172 8.6642L45.8383 8.60453L45.8172 9.16413L47.396 9.2238ZM45.7415 10.5303C45.6665 11.0318 45.4986 11.4497 45.2379 11.7801L44.9292 11.4762C45.1902 11.1379 45.331 10.6949 45.3595 10.1516L45.4337 8.18896L47.856 8.2805L47.7375 11.4143C47.7276 11.6781 47.5867 11.8048 47.3149 11.7946L46.8033 11.7752L46.7067 11.3633C46.8822 11.3819 47.0457 11.3961 47.1936 11.4017C47.2736 11.4047 47.3157 11.3503 47.3196 11.2464L47.3444 10.5908L45.7415 10.5303Z" fill="white"/>
<path d="M49.7787 8.30396L50.1856 8.3336L50.1121 9.34293L50.2876 9.35572L50.2577 9.76663L49.38 9.7027L49.3707 9.83036C49.3628 9.93808 49.3513 10.0415 49.34 10.141L50.102 10.1965L49.996 11.6526C50.2188 11.2918 50.3603 10.7808 50.4239 10.1277L50.5358 8.59172C51.1709 8.62596 51.7435 8.58344 52.2578 8.46048L52.4303 8.84602C51.9656 8.94854 51.4491 8.99113 50.8889 8.97439L50.8529 9.46908L52.301 9.57456L52.2752 9.92962C52.1496 10.4419 51.9618 10.8733 51.7039 11.2195C51.8626 11.4637 52.0653 11.6549 52.3076 11.7969L52.0731 12.1528C51.8123 11.9894 51.5946 11.7851 51.4242 11.536C51.1999 11.7523 50.9469 11.9224 50.6566 12.0536L50.4884 11.6644C50.7665 11.5363 51.0072 11.3693 51.2064 11.1673C51.0365 10.8019 50.9317 10.3692 50.8962 9.86527L50.8244 9.86004L50.8029 10.1553C50.7303 10.932 50.5453 11.5442 50.2523 11.9881L49.9951 11.6646L49.973 11.9678L49.5661 11.9381L49.6663 10.5618L49.2913 10.5345C49.2016 11.1054 49.0614 11.5444 48.8791 11.844L48.584 11.5457C48.7703 11.1903 48.8971 10.606 48.9598 9.80043L49.067 8.32833L49.4779 8.35826L49.4099 9.29179L49.7051 9.31329L49.7787 8.30396ZM51.2712 9.89259C51.31 10.2403 51.384 10.5465 51.4928 10.8151C51.6641 10.5549 51.7896 10.2632 51.8736 9.93647L51.2712 9.89259Z" fill="white"/>
<path d="M53.2383 8.51189L53.6166 8.54871C53.7785 8.8257 53.8994 9.11076 53.975 9.40749C54.0619 9.75353 54.0919 10.1061 54.0562 10.4724C54.0213 10.8307 53.9235 11.1748 53.7715 11.4976C53.6409 11.7662 53.4672 12.0226 53.2545 12.2671L52.8763 12.2303C53.0667 11.9675 53.2208 11.7052 53.3387 11.4434C53.4879 11.1083 53.5814 10.7677 53.6147 10.4254C53.6484 10.079 53.6224 9.72682 53.5403 9.3732C53.4755 9.08958 53.3748 8.80248 53.2383 8.51189Z" fill="white"/>
<g clip-path="url(#clip0_254_4801)">
<path d="M4.44396 20.8989C3.84237 19.9726 2.60371 19.7093 1.67734 20.3109C0.750971 20.9125 0.487686 22.1511 1.08928 23.0775C1.69087 24.0038 2.92953 24.2671 3.8559 23.6655C4.78227 23.064 5.04555 21.8253 4.44396 20.8989Z" fill="white"/>
<path d="M3.34746 21.6109C3.56055 21.9391 3.46731 22.3778 3.13916 22.5909C2.81102 22.804 2.37226 22.7108 2.15916 22.3826C1.94606 22.0545 2.03932 21.6157 2.36747 21.4026C2.69561 21.1895 3.13436 21.2828 3.34746 21.6109Z" fill="#485CC2"/>
<path fill-rule="evenodd" clip-rule="evenodd" d="M2.04642 22.0452C2.08771 22.1731 2.2254 22.4016 2.46608 22.343C2.71108 22.2835 2.76205 22.0804 2.75691 21.9862C2.76234 21.8956 2.82169 21.7028 3.01558 21.6565C3.20948 21.6102 3.32803 21.7066 3.36308 21.7605L3.45574 21.9032C3.44234 21.802 3.40676 21.7022 3.34748 21.6109C3.13438 21.2828 2.69563 21.1895 2.36749 21.4026C2.14418 21.5476 2.02965 21.7972 2.04642 22.0452Z" fill="#D74B4B"/>
<path fill-rule="evenodd" clip-rule="evenodd" d="M1.20573 22.3387L1.23073 21.623L1.34205 21.6269L1.31705 22.3426L1.20573 22.3387ZM1.39168 22.3317L1.41668 21.616L1.528 21.6199L1.503 22.3356L1.39168 22.3317ZM1.58936 21.6146L1.56435 22.3303L1.67568 22.3342L1.70068 21.6185L1.58936 21.6146Z" fill="#333333"/>
<path fill-rule="evenodd" clip-rule="evenodd" d="M3.72171 20.7048L3.43403 20.5886L3.39119 20.6914L3.67999 20.8081L3.72171 20.7048ZM3.05771 20.4365L3.33076 20.5468L3.2879 20.6497L3.016 20.5398L3.05771 20.4365ZM3.63969 20.8718L2.9757 20.6036L2.93397 20.7068L3.59796 20.9751L3.63969 20.8718ZM3.25343 21.022L3.52644 21.1323L3.56816 21.029L3.29629 20.9192L3.25343 21.022ZM3.193 20.8774L3.15015 20.9803L2.86243 20.864L2.90416 20.7607L3.193 20.8774Z" fill="#333333"/>
<path fill-rule="evenodd" clip-rule="evenodd" d="M4.31674 21.9478L4.32758 21.6377L4.21626 21.6338L4.20538 21.9451L4.31674 21.9478ZM4.31286 22.0591L4.30257 22.3534L4.19127 22.3495L4.20149 22.0565L4.31286 22.0591ZM3.84735 21.9365L3.85763 21.6422L3.96895 21.6461L3.95872 21.9392L3.84735 21.9365ZM3.95483 22.0505L3.84347 22.0478L3.83263 22.358L3.94395 22.3618L3.95483 22.0505ZM4.14163 21.6447L4.13119 21.9433L4.01983 21.9407L4.03031 21.6408L4.14163 21.6447ZM4.11664 22.3604L4.12731 22.0547L4.01594 22.052L4.00531 22.3565L4.11664 22.3604Z" fill="#333333"/>
<path fill-rule="evenodd" clip-rule="evenodd" d="M1.81153 23.2716L2.47553 23.5399L2.51726 23.4366L1.85325 23.1684L1.81153 23.2716ZM1.96509 22.9474L2.62908 23.2157L2.67081 23.1124L2.00681 22.8442L1.96509 22.9474ZM1.89355 23.1046L2.1706 23.2165L2.21345 23.1137L1.93528 23.0013L1.89355 23.1046ZM2.55756 23.3729L2.27389 23.2583L2.31673 23.1554L2.59928 23.2696L2.55756 23.3729Z" fill="#333333"/>
</g>
<defs>
<clipPath id="clip0_254_4801">
<rect width="4" height="4" fill="white" transform="translate(0 21.4001) rotate(-33)"/>
</clipPath>
</defs>
</svg>
