<svg width="56" height="27" viewBox="0 0 56 27" fill="none" xmlns="http://www.w3.org/2000/svg">
<path d="M6.47135 9.68559L6.80375 9.89403L5.77877 11.4696L6.27226 13.2766L5.90869 13.379L5.37146 11.4076L6.47135 9.68559ZM7.15941 9.79041L7.476 9.99644L6.46683 11.5745L6.96032 13.3814L6.59675 13.4838L6.05953 11.5124L7.15941 9.79041Z" fill="white"/>
<path d="M8.97574 10.1521L9.33012 10.377C8.91012 11.1478 8.43348 11.7097 7.90347 12.0672L7.62643 11.726C8.17289 11.3673 8.62289 10.8414 8.97574 10.1521ZM10.1446 12.5105C10.3461 12.9805 10.5067 13.4759 10.623 13.9918L10.2064 14.0972C10.1774 13.9621 10.1477 13.831 10.1173 13.7038C9.42164 13.6869 8.64816 13.628 7.79935 13.5354L7.79918 13.1211C8.07352 13.1085 8.56824 12.5823 9.2794 11.5418L9.6602 11.755C9.24127 12.3352 8.83041 12.8234 8.42832 13.2156C8.96244 13.2731 9.49216 13.3095 10.0103 13.3194C9.93184 13.0498 9.846 12.7991 9.75206 12.5713L10.1446 12.5105ZM10.4507 10.3793C10.5386 11.1258 10.8109 11.7708 11.2676 12.3142L10.9118 12.6049C10.4338 12.0212 10.1501 11.3255 10.0615 10.5138L10.4507 10.3793Z" fill="white"/>
<path d="M12.1527 11.4702L12.8204 11.5991L12.9683 10.8333L13.3807 10.9129L13.2328 11.6788L14.2146 11.8684L14.3595 11.1183L14.7719 11.1979L14.627 11.9481L15.2986 12.0778L15.2227 12.4705L14.5511 12.3408L14.3934 13.1577L15.2613 13.3253L15.1839 13.7259L11.6414 13.0417L11.7188 12.6411L12.5867 12.8088L12.7445 11.9919L12.0769 11.8629L12.1527 11.4702ZM12.9991 12.8884L13.981 13.0781L14.1388 12.2612L13.1569 12.0715L12.9991 12.8884ZM12.7948 13.3134L13.052 13.6482C12.6602 13.9474 12.1981 14.1881 11.6737 14.372L11.4552 13.9428C11.9696 13.7895 12.4177 13.5787 12.7948 13.3134ZM14.0462 13.5632C14.4362 13.9482 14.7596 14.3202 15.0129 14.6747L14.624 14.9377C14.4202 14.601 14.1109 14.2194 13.6962 13.793L14.0462 13.5632Z" fill="white"/>
<path d="M16.3943 11.5672C16.6093 11.8042 16.785 12.0336 16.9215 12.2555L16.5881 12.4845C16.4697 12.2743 16.2955 12.037 16.0639 11.7805L16.3943 11.5672ZM15.6568 12.5818L16.564 12.7569L16.2496 14.3868C16.3832 14.3067 16.5261 14.2202 16.6792 14.1234L16.7098 14.5774C16.4051 14.7631 16.09 14.9182 15.763 15.0507L15.6771 14.6512C15.7553 14.6051 15.805 14.5373 15.8217 14.4509L16.0876 13.0723L15.581 12.9746L15.6568 12.5818ZM16.9719 13.3244L18.8886 13.6942L18.8166 14.0673C18.6414 14.3839 18.4039 14.6436 18.1048 14.8425C18.318 15.0466 18.5861 15.2409 18.9121 15.4301L18.624 15.7411C18.2694 15.5098 17.9768 15.2741 17.7547 15.0316C17.4066 15.1885 17.0002 15.2893 16.5274 15.3326L16.3663 14.943C16.7936 14.9032 17.1641 14.8199 17.4817 14.6938C17.2789 14.3939 17.1552 14.0849 17.12 13.7604L16.8961 13.7172L16.9719 13.3244ZM17.5049 13.8346C17.5481 14.0752 17.6501 14.3067 17.8195 14.5267C18.0546 14.3847 18.2465 14.214 18.4004 14.0074L17.5049 13.8346ZM17.5322 11.856L18.9461 12.1287L18.7893 12.9418C18.7726 13.0282 18.8107 13.0844 18.9088 13.1033L19.2466 13.1685L19.1746 13.5416L18.7269 13.4552C18.4323 13.3984 18.3135 13.2329 18.3666 12.958L18.4673 12.4356L17.8625 12.3189L17.842 12.425C17.7632 12.8334 17.4898 13.1106 17.031 13.2503L16.8167 12.883C17.1731 12.8092 17.3799 12.6454 17.4292 12.3901L17.5322 11.856Z" fill="white"/>
<path d="M20.8739 13.5247L21.8918 13.6945L22.0827 12.5503L22.5088 12.6214L22.3179 13.7656L23.2846 13.9268L23.2161 14.3372L22.2495 14.1759L21.8967 16.2907L21.4706 16.2196L21.8234 14.1049L20.8055 13.9351L20.8739 13.5247ZM20.3651 12.2963C20.5814 12.5311 20.7622 12.7599 20.9082 12.9789L20.576 13.2196C20.4564 13.0131 20.2716 12.7835 20.0257 12.5316L20.3651 12.2963ZM19.6265 13.345L20.5655 13.5017L20.2904 15.1509C20.4213 15.0713 20.562 14.9813 20.7126 14.8807L20.7487 15.3206C20.4528 15.5146 20.145 15.6822 19.8214 15.8229L19.7255 15.4257C19.8064 15.3783 19.8537 15.3132 19.8675 15.2304L20.1012 13.8297L19.5606 13.7396L19.6265 13.345Z" fill="white"/>
<path d="M23.8424 14.5038C23.7324 14.6157 23.619 14.7231 23.5016 14.8301L23.4153 14.3687C23.8334 13.9671 24.1611 13.4782 24.4074 12.8951L24.7636 13.1185C24.6423 13.3942 24.4942 13.6586 24.3281 13.9048L24.0094 16.598L23.6002 16.5496L23.8424 14.5038ZM24.943 13.0995L27.0205 13.3454L26.8583 14.7158L26.0798 14.6236L26.0163 15.1599L26.8982 15.2643L26.853 15.6456L25.9712 15.5412L25.8776 16.3317C25.9949 16.3617 26.137 16.3866 26.2949 16.4133C26.5015 16.4378 26.7164 16.4592 26.9319 16.4766L26.8099 16.861L26.4405 16.8172C25.853 16.7437 25.4629 16.6371 25.2655 16.5009C25.0712 16.3732 24.9191 16.1941 24.8104 15.9557C24.6688 16.233 24.5081 16.4677 24.3323 16.6604L24.1056 16.2952C24.4246 15.914 24.6722 15.3875 24.8489 14.7116L25.2342 14.8257C25.1644 15.0752 25.089 15.3039 25.007 15.5198C25.0471 15.6574 25.1045 15.7851 25.1832 15.9031C25.2663 16.0177 25.3686 16.1063 25.4812 16.176L25.6706 14.5752L24.7808 14.4699L24.943 13.0995ZM26.5023 14.287L26.5742 13.6792L25.3031 13.5288L25.2312 14.1365L26.5023 14.287Z" fill="white"/>
<path d="M27.9143 13.3308C28.1651 13.5546 28.3759 13.7759 28.5468 13.9948L28.2292 14.2719C28.0898 14.0629 27.8834 13.8339 27.6102 13.5846L27.9143 13.3308ZM29.965 17.0676C29.7494 17.0543 29.5141 17.0359 29.2628 17.0164C29.0076 16.9967 28.8014 16.96 28.6362 16.9098C28.4795 16.8521 28.3493 16.7519 28.2419 16.6091C28.1942 16.538 28.1482 16.5031 28.1003 16.5002C28.0245 16.4955 27.8779 16.6628 27.6562 17.0099L27.3662 16.7076C27.5855 16.4004 27.7736 16.2076 27.9387 16.1296L28.006 15.0356L27.4789 15.0033L27.5025 14.62L28.4168 14.6761L28.3233 16.1973L28.3608 16.2397C28.4422 16.3489 28.5292 16.4344 28.6178 16.4919C28.7299 16.5589 28.8996 16.6014 29.1307 16.6236C29.358 16.6416 29.6253 16.662 29.9287 16.6806C30.1283 16.6929 30.3282 16.7012 30.5358 16.7139C30.7399 16.7185 30.8961 16.72 31.0044 16.7187L30.8793 17.1238L29.965 17.0676ZM28.7705 13.9405L29.1938 13.9665L29.2303 13.3716L29.6335 13.3964L29.597 13.9912L30.1 14.0221L30.1361 13.4352L30.5433 13.4603L30.5073 14.0472L30.9664 14.0754L30.9426 14.4626L30.4835 14.4344L30.442 15.1092L31.0289 15.1452L31.0049 15.5365L30.418 15.5004L30.3527 16.5624L29.9455 16.5374L30.0108 15.4754L29.4119 15.4386C29.2724 15.8829 29.0522 16.206 28.7472 16.4077L28.516 16.0608C28.733 15.9219 28.8944 15.7074 29.0007 15.4133L28.5415 15.3851L28.5656 14.9939L29.1045 15.027C29.1284 14.9002 29.1444 14.7689 29.1533 14.6252L29.17 14.3537L28.7468 14.3277L28.7705 13.9405ZM29.5732 14.3785L29.5624 14.5542C29.5516 14.7298 29.5293 14.8968 29.5038 15.0515L30.0348 15.0841L30.0762 14.4094L29.5732 14.3785Z" fill="white"/>
<path d="M33.3626 13.532L33.7866 13.5364L33.7805 14.1284L34.7644 14.1385L34.7602 14.5425L33.7763 14.5324L33.7699 15.1523L34.8578 15.1636L34.8536 15.5715L33.5577 15.5582C33.3364 16.0679 33.1365 16.4459 32.966 16.6921C33.3824 16.6484 33.7991 16.5847 34.212 16.505C34.1141 16.2959 34.0161 16.1069 33.9139 15.9299L34.3193 15.798C34.5471 16.2004 34.7467 16.6265 34.918 17.0843L34.5202 17.2562C34.4696 17.1197 34.4189 16.9911 34.3722 16.8706C33.775 16.9845 33.1301 17.0698 32.4334 17.1306L32.3452 16.7657C32.3853 16.7541 32.4134 16.7424 32.4335 16.7306C32.6031 16.5804 32.8311 16.1907 33.1097 15.5535L32.2458 15.5446L32.25 15.1366L33.3459 15.1479L33.3523 14.528L32.4484 14.5186L32.4525 14.1147L33.3565 14.124L33.3626 13.532ZM31.6584 13.5384C31.9124 13.7411 32.1263 13.9393 32.3043 14.1371L32.0052 14.4341C31.8552 14.2445 31.6372 14.0422 31.3555 13.8233L31.6584 13.5384ZM31.5488 14.4734C31.7827 14.6758 31.9806 14.8778 32.1466 15.0796L31.8435 15.3724C31.7054 15.187 31.5075 14.981 31.2498 14.7583L31.5488 14.4734ZM31.8971 15.609L32.2755 15.7689C32.0983 16.2671 31.9014 16.7371 31.6889 17.1749L31.2708 16.9866C31.5114 16.5411 31.7202 16.0792 31.8971 15.609Z" fill="white"/>
<path d="M35.3075 14.0542L35.8672 14.036C35.7978 13.8701 35.7247 13.7164 35.64 13.5711L36.0654 13.4852C36.1346 13.643 36.2044 13.8209 36.275 14.0227L36.7388 14.0076L36.7518 14.4074L35.9802 14.4325L35.9944 14.8683L36.702 14.8452C36.7363 15.8967 36.7374 16.545 36.7135 16.7939C36.6814 17.039 36.4976 17.1691 36.1657 17.1799C36.1337 17.1809 36.0815 17.1746 36.0132 17.1649L35.9051 16.7962C35.9775 16.8058 36.0377 16.8119 36.0897 16.8102C36.2296 16.8056 36.3113 16.7349 36.3311 16.6062C36.347 16.4776 36.3441 16.0215 36.3267 15.2416L36.0029 15.2522C36.0074 16.1285 35.8806 16.781 35.6264 17.2095L35.3056 16.9438C35.5328 16.5482 35.6326 15.9246 35.6087 15.0689L35.5884 14.4453L35.3205 14.454L35.3075 14.0542ZM37.327 14.2525C37.2528 14.4311 37.1699 14.5898 37.0827 14.7368L37.4385 14.7252L37.4513 15.117L37.716 15.0123L37.6958 14.3926L38.0796 14.3801L38.0954 14.8639L38.7236 14.6153C38.7489 15.3909 38.7481 15.8591 38.7215 16.0241C38.6868 16.1893 38.5336 16.2783 38.2618 16.2872L38.2578 16.2873L38.1384 15.939C38.2063 15.9368 38.2664 15.9389 38.3224 15.937C38.3544 15.936 38.3731 15.8954 38.3787 15.8231C38.3846 15.7589 38.3814 15.5349 38.3686 15.1431L38.1077 15.2437L38.15 16.543L37.7662 16.5555L37.7284 15.3921L37.4636 15.4968L37.4963 16.5002C37.5023 16.6841 37.5613 16.7743 37.6772 16.7705L38.4128 16.7465C38.4928 16.7439 38.548 16.7181 38.5866 16.6768C38.6292 16.6314 38.6527 16.4946 38.6614 16.2702L39.0249 16.3704C39.0002 16.7194 38.947 16.9292 38.8613 17.0001C38.7833 17.0626 38.6604 17.0986 38.4925 17.1041L37.573 17.1341C37.2891 17.1433 37.1431 16.96 37.1308 16.5842L37.1 15.6367L36.8313 15.7415L36.819 15.3657L37.0877 15.2609L37.0713 14.7571C37.0182 14.8469 36.961 14.9328 36.9074 15.0066L36.6288 14.6875C36.8473 14.3922 37.0341 13.9819 37.1891 13.4566L37.5837 13.5318C37.5474 13.6451 37.5149 13.7542 37.4783 13.8594L38.8336 13.8153L38.8462 14.2031L37.327 14.2525Z" fill="white"/>
<path d="M40.8971 13.5448L42.8638 13.473L42.8788 13.8847L40.9121 13.9565L40.8971 13.5448ZM40.8373 14.5396L43.0719 14.4581L43.0869 14.8698L42.4713 14.8923L42.5324 16.5671C42.542 16.831 42.399 16.9683 42.1032 16.9791L41.5235 17.0002L41.4167 16.5959C41.6012 16.6051 41.7775 16.6107 41.9454 16.6046C42.0533 16.6006 42.1078 16.5586 42.1049 16.4787L42.0476 14.9077L40.8524 14.9513L40.8373 14.5396ZM40.1947 13.3823L40.581 13.5483C40.3851 13.9918 40.0357 14.4008 39.5331 14.7754L39.3898 14.3603C39.7558 14.0788 40.0241 13.7528 40.1947 13.3823ZM40.4161 14.2948L40.7983 14.457C40.702 14.6686 40.5773 14.8733 40.4244 15.071L40.4968 17.0537L40.0851 17.0687L40.0277 15.4978C39.8959 15.6147 39.7521 15.732 39.6041 15.8455L39.4612 15.4384C39.8975 15.1103 40.2157 14.7264 40.4161 14.2948Z" fill="white"/>
<path d="M44.7294 15.9995L44.7467 16.3911C44.4016 16.5546 44.0113 16.692 43.5677 16.7998L43.494 16.4026C43.9697 16.2935 44.3801 16.1592 44.7294 15.9995ZM43.901 13.2095L44.2874 13.3445C44.1484 13.8231 44.0018 14.218 43.8472 14.5252C43.9504 14.5046 44.0576 14.4838 44.1606 14.4592C44.2184 14.3165 44.2757 14.1658 44.3368 14.007L44.7064 14.1267C44.4496 14.7467 44.2297 15.2049 44.0468 15.5053C44.2607 15.4518 44.4738 15.3822 44.6944 15.3004L44.7107 15.668C44.3207 15.8134 43.9488 15.914 43.5991 15.9736L43.4833 15.6183C43.5498 15.5834 43.6081 15.5447 43.6542 15.4987C43.7526 15.3702 43.8707 15.1447 44.0124 14.8181C43.8459 14.8575 43.6754 14.8931 43.497 14.9331L43.3813 14.5818C43.444 14.551 43.4938 14.5008 43.5387 14.4307C43.6823 14.056 43.8004 13.6504 43.901 13.2095ZM45.6656 13.8159L45.1501 13.8388L45.1942 14.8338L45.7097 14.811L45.6656 13.8159ZM45.7264 15.1866L45.2109 15.2094L45.2567 16.2444L45.7722 16.2216L45.7264 15.1866ZM46.1479 16.2049L46.6474 16.1828L46.6015 15.1478L46.102 15.1699L46.1479 16.2049ZM46.0853 14.7943L46.5849 14.7722L46.5407 13.7771L46.0412 13.7993L46.0853 14.7943ZM46.6642 16.5624L45.2736 16.624L45.2835 16.8478L44.9039 16.8647L44.7535 13.472L46.9154 13.3762L47.0657 16.7688L46.6741 16.7862L46.6642 16.5624Z" fill="white"/>
<path d="M49.3375 13.0695L49.5012 15.6002L49.094 15.6266L48.9561 13.495L47.9502 13.5601L48.0904 15.7275L47.6873 15.7536L47.5213 13.187L49.3375 13.0695ZM48.9956 15.7171C49.2608 15.9124 49.4898 16.106 49.6788 16.3022L49.3839 16.638C49.223 16.4439 49.0013 16.2378 48.7188 16.0236L48.9956 15.7171ZM48.2723 13.7677L48.6755 13.7416L48.7558 14.9831C48.7703 15.4551 48.699 15.8405 48.5454 16.131C48.3906 16.4016 48.1283 16.623 47.7624 16.7909L47.5026 16.4309C47.8531 16.272 48.0855 16.0846 48.2003 15.8768C48.3096 15.6452 48.3591 15.3574 48.3526 15.0091L48.2723 13.7677ZM49.6952 13.2708L50.0984 13.2448L50.2571 15.6996L49.854 15.7257L49.6952 13.2708ZM50.6874 16.5256L50.1365 16.5612L50.0146 16.1643C50.1913 16.1689 50.3595 16.166 50.5151 16.1559C50.6269 16.1487 50.6792 16.0892 50.6722 15.9814L50.4719 12.8839L50.887 12.8571L51.0943 16.0624C51.1129 16.3498 50.9748 16.507 50.6874 16.5256Z" fill="white"/>
<path d="M51.5694 12.7657L52.5751 14.5444L51.9326 16.4841L51.575 16.3622L52.165 14.5845L51.2422 12.9544L51.5694 12.7657ZM52.2621 12.6981L53.2678 14.4768L52.6253 16.4164L52.2677 16.2946L52.8577 14.5168L51.919 12.8883L52.2621 12.6981Z" fill="white"/>
<g clip-path="url(#clip0_254_4854)">
<path d="M4.49909 10.5879C4.44128 9.48485 3.50022 8.63751 2.39716 8.69532C1.29411 8.75313 0.446766 9.6942 0.504574 10.7973C0.562383 11.9003 1.50345 12.7476 2.6065 12.6898C3.70956 12.632 4.5569 11.691 4.49909 10.5879Z" fill="white"/>
<path d="M3.19347 10.6563C3.21395 11.047 2.91382 11.3804 2.52308 11.4008C2.13235 11.4213 1.79901 11.1212 1.77853 10.7304C1.75806 10.3397 2.0582 10.0064 2.44893 9.98589C2.83966 9.96541 3.17299 10.2656 3.19347 10.6563Z" fill="#485CC2"/>
<path fill-rule="evenodd" clip-rule="evenodd" d="M1.84967 10.3818C1.82149 10.5132 1.82649 10.7799 2.06418 10.8496C2.30614 10.9205 2.45185 10.7701 2.49446 10.686C2.54448 10.6103 2.69228 10.4729 2.88333 10.5298C3.0744 10.5867 3.12889 10.7294 3.13226 10.7936L3.14117 10.9635C3.18015 10.8692 3.19925 10.765 3.19356 10.6563C3.17308 10.2656 2.83975 9.96541 2.44902 9.98589C2.18312 9.99982 1.95917 10.1586 1.84967 10.3818Z" fill="#D74B4B"/>
<path fill-rule="evenodd" clip-rule="evenodd" d="M0.974793 10.2157L1.3543 9.60837L1.44876 9.6674L1.06926 10.2747L0.974793 10.2157ZM1.13933 10.3026L1.51883 9.69528L1.61329 9.75431L1.23379 10.3616L1.13933 10.3026ZM1.66908 9.78039L1.28958 10.3877L1.38404 10.4467L1.76355 9.83942L1.66908 9.78039Z" fill="#333333"/>
<path fill-rule="evenodd" clip-rule="evenodd" d="M3.97063 10.0587L3.7796 9.81419L3.69109 9.88182L3.88286 10.1273L3.97063 10.0587ZM3.52972 9.49437L3.71103 9.72641L3.6225 9.79404L3.44196 9.56294L3.52972 9.49437ZM3.81609 10.1623L3.37519 9.598L3.2874 9.66658L3.72831 10.2309L3.81609 10.1623ZM3.40649 10.0992L3.58779 10.3313L3.67555 10.2627L3.49503 10.0316L3.40649 10.0992ZM3.42644 9.94383L3.33792 10.0115L3.14686 9.76693L3.23464 9.69835L3.42644 9.94383Z" fill="#333333"/>
<path fill-rule="evenodd" clip-rule="evenodd" d="M3.86451 11.4327L4.02893 11.1695L3.93448 11.1105L3.76941 11.3746L3.86451 11.4327ZM3.80549 11.5271L3.64943 11.7768L3.55498 11.7178L3.71037 11.4691L3.80549 11.5271ZM3.46365 11.1882L3.61969 10.9385L3.71415 10.9975L3.55876 11.2462L3.46365 11.1882ZM3.49973 11.3406L3.40463 11.2826L3.24017 11.5458L3.33464 11.6048L3.49973 11.3406ZM3.86441 11.0826L3.70605 11.336L3.61095 11.278L3.76994 11.0236L3.86441 11.0826ZM3.4849 11.6899L3.64703 11.4305L3.55191 11.3725L3.39043 11.6309L3.4849 11.6899Z" fill="#333333"/>
<path fill-rule="evenodd" clip-rule="evenodd" d="M1.03297 11.3265L1.47388 11.8909L1.56166 11.8223L1.12075 11.258L1.03297 11.3265ZM1.32805 11.1226L1.76896 11.6869L1.85674 11.6183L1.41583 11.054L1.32805 11.1226ZM1.18752 11.2229L1.37149 11.4584L1.46 11.3907L1.2753 11.1543L1.18752 11.2229ZM1.62843 11.7872L1.44007 11.5461L1.52859 11.4785L1.7162 11.7186L1.62843 11.7872Z" fill="#333333"/>
</g>
<defs>
<clipPath id="clip0_254_4854">
<rect width="4" height="4" fill="white" transform="translate(0.399902 8.8) rotate(-3)"/>
</clipPath>
</defs>
</svg>
