<svg width="66" height="24" viewBox="0 0 66 24" fill="none" xmlns="http://www.w3.org/2000/svg">
<path d="M6.81035 9.68002L7.09908 9.94567L5.80354 11.3075L5.95866 13.1742L5.5825 13.2085L5.41442 11.1721L6.81035 9.68002ZM7.46769 9.90876L7.74131 10.1692L6.46087 11.5363L6.616 13.403L6.23984 13.4372L6.07176 11.4009L7.46769 9.90876Z" fill="white"/>
<path d="M9.52229 11.3216L8.25807 10.915L8.38054 10.5342L11.3164 11.4784L11.194 11.8592L9.92592 11.4514L9.19353 13.7285L10.6938 14.2111L10.5701 14.5957L7.16208 13.4995L7.28578 13.1149L8.7899 13.5987L9.52229 11.3216Z" fill="white"/>
<path d="M13.0501 11.7203L13.4559 11.8285L12.6487 14.8547L13.0738 14.9681L13.8811 11.9419L14.2869 12.0502L13.4796 15.0764L14.5927 15.3733L14.4875 15.7675L11.0323 14.8458L11.1375 14.4516L12.2428 14.7465L13.0501 11.7203ZM14.7761 12.9631L15.1048 13.1585C14.7817 13.7802 14.4415 14.3104 14.0854 14.7453L13.7561 14.5209C14.0921 14.1303 14.4302 13.6078 14.7761 12.9631ZM12.1665 12.2546C12.2227 12.8202 12.2388 13.4579 12.2122 14.1628L11.8214 14.1538C11.8508 13.5158 11.8431 12.8928 11.7916 12.2788L12.1665 12.2546Z" fill="white"/>
<path d="M16.107 12.5261C16.3237 12.7615 16.5012 12.9896 16.6393 13.2104L16.3076 13.4419C16.1877 13.2326 16.0117 12.9966 15.7782 12.7418L16.107 12.5261ZM15.377 13.5462L16.2856 13.7145L15.9833 15.3467C16.1163 15.2656 16.2586 15.178 16.411 15.0801L16.4449 15.5339C16.1417 15.7218 15.8277 15.8793 15.5017 16.0142L15.4129 15.6153C15.4907 15.5687 15.5399 15.5006 15.5559 15.414L15.8116 14.0335L15.3042 13.9395L15.377 13.5462ZM16.6977 14.2789L18.617 14.6344L18.5479 15.008C18.3751 15.3259 18.1395 15.5874 17.8419 15.7885C18.0567 15.991 18.3262 16.1833 18.6536 16.37L18.3678 16.6832C18.0115 16.4545 17.7171 16.221 17.4932 15.9802C17.1464 16.1398 16.7407 16.2436 16.2683 16.2904L16.1042 15.902C16.5312 15.859 16.901 15.773 17.2177 15.6445C17.0126 15.3461 16.8866 15.038 16.849 14.7138L16.6248 14.6723L16.6977 14.2789ZM17.2345 14.7852C17.2795 15.0254 17.3832 15.2561 17.5542 15.4749C17.7883 15.3311 17.9789 15.1589 18.1312 14.9512L17.2345 14.7852ZM17.247 12.8064L18.6629 13.0686L18.5122 13.8827C18.4961 13.9692 18.5346 14.0252 18.6329 14.0434L18.9712 14.106L18.902 14.4797L18.4536 14.3966C18.1586 14.342 18.0386 14.1774 18.0896 13.9021L18.1864 13.379L17.5807 13.2668L17.5611 13.373C17.4853 13.7821 17.2139 14.0613 16.7562 14.2044L16.5392 13.8387C16.8951 13.7622 17.1006 13.5969 17.1479 13.3413L17.247 12.8064Z" fill="white"/>
<path d="M20.3336 14.3057L21.3622 14.3898L21.4567 13.2336L21.8872 13.2688L21.7927 14.425L22.7695 14.5048L22.7356 14.9194L21.7588 14.8396L21.5842 16.9765L21.1536 16.9413L21.3283 14.8044L20.2997 14.7203L20.3336 14.3057ZM19.7238 13.1241C19.959 13.34 20.1583 13.5529 20.3221 13.7589L20.0113 14.0265C19.8748 13.8307 19.6715 13.6175 19.4053 13.387L19.7238 13.1241ZM19.0755 14.231L20.0243 14.3085L19.8881 15.975C20.0119 15.8847 20.1446 15.7832 20.2863 15.6704L20.359 16.1058C20.0804 16.3238 19.7877 16.5166 19.477 16.6838L19.3482 16.296C19.4248 16.2421 19.4666 16.1733 19.4734 16.0896L19.5891 14.6743L19.0429 14.6296L19.0755 14.231Z" fill="white"/>
<path d="M23.4339 15C23.3346 15.1214 23.2314 15.2386 23.1242 15.3558L22.9963 14.9042C23.3761 14.4662 23.6581 13.9496 23.8503 13.3465L24.2253 13.5366C24.1297 13.8222 24.0062 14.099 23.8632 14.3592L23.7906 17.0703L23.3787 17.0592L23.4339 15ZM24.4024 13.5014L26.4936 13.5574L26.4567 14.9369L25.6729 14.9159L25.6585 15.4557L26.5462 15.4795L26.5359 15.8633L25.6482 15.8396L25.6269 16.6353C25.7464 16.6545 25.8901 16.6663 26.0499 16.6786C26.2578 16.6842 26.4738 16.686 26.69 16.6838L26.6034 17.0776L26.2315 17.0676C25.6398 17.0478 25.2416 16.9771 25.0327 16.8595C24.8275 16.7499 24.6599 16.5854 24.5299 16.3578C24.4141 16.6468 24.2754 16.8952 24.1178 17.103L23.8589 16.76C24.1419 16.3514 24.3407 15.8045 24.4552 15.1154L24.8492 15.1939C24.8024 15.4488 24.748 15.6834 24.6861 15.9058C24.7385 16.0393 24.8073 16.1612 24.8964 16.2716C24.9895 16.3781 25.0995 16.4571 25.2179 16.5163L25.2611 14.9049L24.3654 14.8809L24.4024 13.5014ZM26.0631 14.5422L26.0795 13.9304L24.7999 13.8962L24.7835 14.5079L26.0631 14.5422Z" fill="white"/>
<path d="M27.439 13.4748C27.7039 13.6817 27.9288 13.8888 28.1136 14.096L27.8149 14.3933C27.662 14.1939 27.4411 13.9788 27.1522 13.7481L27.439 13.4748ZM29.7302 17.0692C29.5142 17.0701 29.2782 17.0671 29.0261 17.0642C28.7701 17.0613 28.562 17.0381 28.3939 16.9989C28.2337 16.9515 28.0973 16.8601 27.9807 16.7246C27.9284 16.6568 27.8803 16.625 27.8323 16.6252C27.7563 16.6255 27.621 16.8021 27.4225 17.1629L27.1133 16.8802C27.312 16.5594 27.4871 16.3547 27.6468 16.266L27.6421 15.17L27.1142 15.1722L27.1125 14.7882L28.0285 14.7844L28.0349 16.3084L28.0751 16.3482C28.1636 16.4518 28.2559 16.5314 28.3481 16.583C28.4644 16.6426 28.6365 16.6738 28.8685 16.6808C29.0965 16.6839 29.3646 16.6868 29.6686 16.6855C29.8686 16.6846 30.0685 16.6798 30.2765 16.6789C30.4805 16.6701 30.6365 16.6614 30.7444 16.6529L30.6462 17.0654L29.7302 17.0692ZM28.3333 14.0271L28.7573 14.0253L28.7548 13.4293L29.1588 13.4276L29.1613 14.0236L29.6653 14.0215L29.6628 13.4335L30.0708 13.4318L30.0733 14.0197L30.5333 14.0178L30.535 14.4058L30.075 14.4077L30.0778 15.0837L30.6658 15.0813L30.6675 15.4733L30.0795 15.4757L30.0839 16.5397L29.6759 16.5414L29.6715 15.4775L29.0715 15.48C28.9614 15.9324 28.7628 16.2693 28.4717 16.4905L28.2183 16.1596C28.4257 16.0067 28.5727 15.7821 28.6595 15.4817L28.1995 15.4837L28.1978 15.0917L28.7378 15.0894C28.7533 14.9613 28.7607 14.8293 28.7601 14.6853L28.759 14.4133L28.335 14.4151L28.3333 14.0271ZM29.163 14.4116L29.1637 14.5876C29.1644 14.7636 29.1532 14.9316 29.1378 15.0877L29.6698 15.0855L29.667 14.4095L29.163 14.4116Z" fill="white"/>
<path d="M33.1239 13.3661L33.5477 13.3528L33.5663 13.9445L34.5498 13.9136L34.5625 14.3174L33.579 14.3483L33.5985 14.968L34.686 14.9338L34.6988 15.3416L33.4034 15.3823C33.2036 15.9009 33.0197 16.2868 32.8596 16.54C33.2739 16.4789 33.6875 16.3979 34.0967 16.301C33.9902 16.0962 33.8843 15.9115 33.7748 15.7388L34.1744 15.5902C34.4188 15.9827 34.6361 16.4001 34.8263 16.8503L34.436 17.0387C34.3798 16.9044 34.3238 16.7781 34.272 16.6596C33.6801 16.7983 33.0393 16.9105 32.3458 17.0004L32.2424 16.6395C32.282 16.6262 32.3096 16.6133 32.3292 16.6007C32.4924 16.4435 32.7039 16.0446 32.9557 15.3964L32.0921 15.4236L32.0793 15.0158L33.1747 14.9813L33.1552 14.3616L32.2517 14.3901L32.239 13.9863L33.1425 13.9578L33.1239 13.3661ZM31.4215 13.4437C31.6837 13.6355 31.9057 13.8246 32.0918 14.0149L31.8054 14.3241C31.6475 14.1409 31.4214 13.9479 31.1307 13.741L31.4215 13.4437ZM31.351 14.3824C31.5932 14.5748 31.7993 14.7685 31.9735 14.9631L31.683 15.2684C31.5373 15.0889 31.331 14.8912 31.0642 14.6795L31.351 14.3824ZM31.7464 15.5025L32.1311 15.6465C31.9749 16.1516 31.7979 16.6294 31.6038 17.0758L31.1782 16.905C31.4 16.4498 31.5893 15.9797 31.7464 15.5025Z" fill="white"/>
<path d="M36.9764 16.1094C36.6679 16.4672 36.1672 16.7556 35.4746 16.9786L35.2273 16.6399C35.959 16.3987 36.4483 16.1229 36.6874 15.813C36.7022 15.7922 36.7131 15.7715 36.7282 15.7547L35.2225 15.8389L35.2006 15.4476L36.9259 15.351C37.0088 15.114 37.05 14.8473 37.0496 14.5548L37.0219 14.0596L37.4253 14.037L37.453 14.5323C37.4533 14.8247 37.4242 15.0907 37.3652 15.3264L38.6073 15.2569L38.6292 15.6483L37.2194 15.7272L37.187 15.7931C37.7463 15.9781 38.2633 16.1976 38.7345 16.4557L38.5232 16.8321C38.0134 16.5281 37.4992 16.2884 36.9764 16.1094ZM35.7455 14.6599C36.0313 14.7561 36.2985 14.8773 36.5391 15.0241L36.342 15.3677C36.0841 15.1978 35.8244 15.0681 35.555 14.979L35.7455 14.6599ZM36.1218 14.0819C36.3994 14.1746 36.6584 14.2923 36.8989 14.4391L36.7018 14.7826C36.4479 14.6125 36.1925 14.4866 35.9313 14.4011L36.1218 14.0819ZM38.4852 13.4329L38.5323 14.2755L38.125 14.2983L38.0993 13.8391L35.5353 13.9826L35.561 14.4418L35.1536 14.4646L35.1065 13.622L36.5961 13.5386C36.5504 13.437 36.5053 13.3474 36.4565 13.262L36.8798 13.1662C36.9297 13.2715 36.9764 13.3891 37.0235 13.5147L38.4852 13.4329Z" fill="white"/>
<path d="M38.838 13.6004L39.3963 13.5566C39.3194 13.3941 39.2394 13.2439 39.148 13.1026L39.5691 12.9974C39.6454 13.1519 39.7233 13.3263 39.8031 13.5247L40.2656 13.4884L40.2969 13.8872L39.5273 13.9475L39.5614 14.3822L40.2672 14.3268C40.3495 15.3756 40.3803 16.0232 40.3678 16.2729C40.347 16.5193 40.1693 16.6576 39.8383 16.6836C39.8064 16.6861 39.7539 16.6822 39.6852 16.6756L39.5604 16.3122C39.6331 16.3185 39.6935 16.3218 39.7454 16.3178C39.8849 16.3068 39.9634 16.2324 39.9773 16.103C39.9872 15.9738 39.9635 15.5182 39.9105 14.74L39.5875 14.7653C39.6321 15.6405 39.5352 16.2981 39.3009 16.7378L38.9682 16.4871C39.1772 16.0815 39.2483 15.454 39.1853 14.6003L39.1365 13.9782L38.8693 13.9992L38.838 13.6004ZM40.8645 13.7062C40.7985 13.8879 40.723 14.0503 40.6425 14.2011L40.9975 14.1732L41.0281 14.564L41.2878 14.4474L41.2393 13.8293L41.6221 13.7992L41.66 14.2817L42.2762 14.0047C42.3369 14.7783 42.3576 15.2461 42.3385 15.4121C42.3114 15.5788 42.1625 15.6747 41.8913 15.696L41.8873 15.6963L41.7521 15.3538C41.8199 15.3485 41.88 15.3478 41.9359 15.3434C41.9678 15.3409 41.9846 15.2995 41.9869 15.2271C41.9899 15.1626 41.9764 14.939 41.9457 14.5482L41.6897 14.6606L41.7914 15.9566L41.4086 15.9866L41.3175 14.8262L41.0578 14.9429L41.1364 15.9438C41.1508 16.1272 41.2138 16.2146 41.3295 16.2055L42.0632 16.1479C42.143 16.1417 42.1969 16.1134 42.2336 16.0703C42.2741 16.023 42.2913 15.8853 42.2898 15.6607L42.6574 15.7442C42.6488 16.0939 42.6052 16.306 42.5228 16.3807C42.4478 16.4467 42.3266 16.4884 42.1591 16.5015L41.242 16.5735C40.9588 16.5957 40.8046 16.4192 40.7751 16.0444L40.701 15.0993L40.4373 15.2162L40.4079 14.8414L40.6716 14.7244L40.6321 14.222C40.5832 14.3141 40.53 14.4025 40.4798 14.4787L40.1869 14.1726C40.3917 13.8677 40.5595 13.4493 40.6903 12.9174L41.088 12.9745C41.0568 13.0893 41.0294 13.1998 40.9977 13.3066L42.3495 13.2005L42.3799 13.5873L40.8645 13.7062Z" fill="white"/>
<path d="M44.5376 13.5273C44.8402 13.6174 45.1217 13.7377 45.3782 13.8887L45.2038 14.232C44.9258 14.0671 44.6443 13.9467 44.3585 13.863L44.5376 13.5273ZM44.308 15.1547C44.5803 15.2236 44.8458 15.3054 45.1007 15.4002C45.3134 15.1978 45.5301 14.9548 45.7503 14.6673L43.5853 14.8859L43.5459 14.4959L46.2323 14.2246L46.2676 14.5748C46.0499 14.9265 45.7935 15.2539 45.4941 15.5535C45.6744 15.6277 45.8512 15.7064 46.0209 15.7938L45.8302 16.1749C45.2655 15.8781 44.6926 15.6586 44.1153 15.5158L44.308 15.1547ZM44.5944 12.617L44.873 12.5889C45.4204 13.0723 46.0357 13.4323 46.7113 13.6737L46.5418 14.0647C45.8649 13.8114 45.2779 13.4526 44.7727 12.989C44.4095 13.5322 43.9081 14.0211 43.2685 14.4556L43.0237 14.1024C43.6729 13.683 44.1938 13.1882 44.5944 12.617Z" fill="white"/>
<path d="M47.2471 12.2813L48.296 14.0349L47.7012 15.9896L47.3408 15.8766L47.8871 14.0849L46.9247 12.478L47.2471 12.2813ZM47.938 12.1968L48.9869 13.9503L48.392 15.9051L48.0316 15.792L48.5779 14.0003L47.5996 12.3954L47.938 12.1968Z" fill="white"/>
<path d="M51.5121 11.7372L51.8885 11.6852C51.7598 11.9816 51.6708 12.2725 51.6213 12.5579C51.5495 12.9151 51.5416 13.2675 51.5891 13.6122C51.6362 13.953 51.7392 14.2901 51.9057 14.6184C52.03 14.8758 52.1946 15.1317 52.3993 15.3861L52.0228 15.4381C51.7965 15.2028 51.6167 14.9531 51.4754 14.6899C51.3066 14.374 51.1991 14.0335 51.1499 13.6769C51.0995 13.3124 51.1114 12.9594 51.1883 12.6096C51.252 12.3101 51.3574 12.021 51.5121 11.7372Z" fill="white"/>
<path d="M53.6505 11.8864L53.9987 11.8345L54.4202 14.6592L53.9573 14.7283L53.619 12.4614C53.4719 12.6411 53.2754 12.7877 53.0255 12.9018L52.957 12.4429C53.0789 12.3923 53.2052 12.3169 53.3358 12.2165C53.4652 12.1082 53.5703 11.9995 53.6505 11.8864Z" fill="white"/>
<path d="M56.0107 12.5852L56.1076 13.1692L57.6663 12.9105L57.5694 12.3265L56.0107 12.5852ZM57.5058 11.9437L57.4142 11.3913L55.8555 11.65L55.9472 12.2024L57.5058 11.9437ZM56.1475 13.5559C56.1747 14.0622 56.0942 14.5054 55.9052 14.8814L55.5417 14.6457C55.7294 14.2618 55.7784 13.7996 55.6972 13.2616L55.3757 11.3241L57.7669 10.9273L58.2804 14.0209C58.3236 14.2814 58.211 14.4339 57.9427 14.4784L57.4376 14.5622L57.2603 14.1781C57.4359 14.1611 57.599 14.1421 57.745 14.1179C57.8239 14.1048 57.8542 14.043 57.8372 13.9404L57.7298 13.2933L56.1475 13.5559Z" fill="white"/>
<path d="M59.3306 10.5579L59.7315 10.4822L59.9193 11.4766L60.0923 11.444L60.1687 11.8488L59.304 12.0121L59.3277 12.1379C59.3478 12.244 59.3632 12.3469 59.3778 12.4459L60.1285 12.3042L60.3994 13.7388C60.5222 13.333 60.528 12.8027 60.422 12.1551L60.1362 10.6419C60.7589 10.5121 61.3015 10.3241 61.767 10.0734L62.0326 10.4018C61.6097 10.6201 61.1215 10.7937 60.5757 10.9212L60.6677 11.4086L62.0945 11.1392L62.1605 11.489C62.1706 12.0163 62.0996 12.4815 61.9392 12.8822C62.1552 13.0776 62.4001 13.2104 62.6707 13.2855L62.5354 13.6896C62.2414 13.5986 61.9785 13.4569 61.75 13.2599C61.5887 13.5265 61.3877 13.7557 61.1408 13.9571L60.8784 13.624C61.1143 13.4288 61.3042 13.2057 61.4449 12.9593C61.187 12.6498 60.9747 12.2584 60.8112 11.7804L60.7404 11.7938L60.7954 12.0846C60.9244 12.8541 60.9026 13.4932 60.7332 13.9974L60.4016 13.7506L60.458 14.0493L60.0571 14.125L59.8011 12.769L59.4316 12.8388C59.4913 13.4137 59.4683 13.8739 59.369 14.2102L59.0073 13.9976C59.0962 13.6063 59.0689 13.009 58.9229 12.2143L58.649 10.7639L59.0539 10.6875L59.2275 11.6072L59.5184 11.5523L59.3306 10.5579ZM61.1807 11.7106C61.3074 12.0368 61.4574 12.3138 61.6314 12.5455C61.7303 12.25 61.7768 11.9359 61.7742 11.5986L61.1807 11.7106Z" fill="white"/>
<path d="M62.7798 9.81901L63.1518 9.74166C63.3888 9.95795 63.5891 10.1941 63.7495 10.4549C63.9354 10.7595 64.0689 11.0872 64.1438 11.4475C64.2171 11.7999 64.2261 12.1576 64.177 12.511C64.1322 12.8063 64.0426 13.1027 63.9123 13.3994L63.5402 13.4768C63.6438 13.1693 63.713 12.873 63.7477 12.588C63.7904 12.2236 63.7783 11.8707 63.7083 11.5339C63.6375 11.1932 63.5079 10.8647 63.3243 10.5515C63.178 10.3 62.9965 10.0559 62.7798 9.81901Z" fill="white"/>
<g clip-path="url(#clip0_255_4917)">
<path d="M4.43318 10.7933C4.7928 9.74893 4.23767 8.61076 3.19328 8.25115C2.14889 7.89154 1.01072 8.44666 0.65111 9.49105C0.291497 10.5354 0.84662 11.6736 1.89101 12.0332C2.9354 12.3928 4.07357 11.8377 4.43318 10.7933Z" fill="white"/>
<path d="M3.19705 10.3676C3.06967 10.7376 2.66652 10.9342 2.29657 10.8068C1.92662 10.6795 1.72998 10.2763 1.85737 9.90635C1.98475 9.5364 2.38791 9.33977 2.75786 9.46715C3.12781 9.59454 3.32443 9.9977 3.19705 10.3676Z" fill="#485CC2"/>
<path fill-rule="evenodd" clip-rule="evenodd" d="M2.05388 9.60975C1.97854 9.72102 1.88326 9.97019 2.07754 10.1238C2.27531 10.2802 2.46676 10.1953 2.53777 10.1333C2.61253 10.0818 2.801 10.0099 2.95684 10.1342C3.1127 10.2585 3.10976 10.4112 3.08881 10.472L3.03342 10.6329C3.1049 10.5601 3.16167 10.4706 3.1971 10.3676C3.32449 9.99769 3.12786 9.59453 2.75791 9.46715C2.50615 9.38046 2.23902 9.44383 2.05388 9.60975Z" fill="#D74B4B"/>
<path fill-rule="evenodd" clip-rule="evenodd" d="M1.30499 9.12797L1.88436 8.70704L1.94983 8.79716L1.37046 9.21809L1.30499 9.12797ZM1.42498 9.2702L2.00436 8.84927L2.06983 8.93938L1.49045 9.36031L1.42498 9.2702ZM2.11179 8.98446L1.53241 9.40539L1.59788 9.49551L2.17726 9.07458L2.11179 8.98446Z" fill="#333333"/>
<path fill-rule="evenodd" clip-rule="evenodd" d="M4.14149 10.1047L4.05596 9.80643L3.94856 9.83597L4.03442 10.1354L4.14149 10.1047ZM3.94408 9.41629L4.02527 9.69936L3.91785 9.72889L3.83702 9.447L3.94408 9.41629ZM3.95938 10.1429L3.76198 9.45449L3.6549 9.48519L3.8523 10.1736L3.95938 10.1429ZM3.60324 9.93095L3.68442 10.214L3.79148 10.1833L3.71066 9.90141L3.60324 9.93095ZM3.67995 9.79433L3.57255 9.82387L3.487 9.52558L3.59408 9.49488L3.67995 9.79433Z" fill="#333333"/>
<path fill-rule="evenodd" clip-rule="evenodd" d="M3.52829 11.3388L3.77931 11.1565L3.71385 11.0663L3.46184 11.2494L3.52829 11.3388ZM3.43818 11.4043L3.19993 11.5774L3.13447 11.4873L3.37172 11.3149L3.43818 11.4043ZM3.2482 10.962L3.48643 10.7889L3.55188 10.879L3.31466 11.0514L3.2482 10.962ZM3.22454 11.1169L3.15809 11.0275L2.90703 11.2098L2.97251 11.3L3.22454 11.1169ZM3.65932 11.0142L3.41757 11.1899L3.35113 11.1004L3.59384 10.9241L3.65932 11.0142ZM3.07995 11.4352L3.32746 11.2553L3.261 11.1659L3.01447 11.345L3.07995 11.4352Z" fill="#333333"/>
<path fill-rule="evenodd" clip-rule="evenodd" d="M0.942805 10.1797L1.14021 10.8681L1.24728 10.8374L1.04988 10.149L0.942805 10.1797ZM1.29282 10.1012L1.49022 10.7895L1.59729 10.7588L1.39989 10.0704L1.29282 10.1012ZM1.12493 10.1415L1.20729 10.4288L1.3147 10.3992L1.232 10.1108L1.12493 10.1415ZM1.32233 10.8299L1.238 10.5359L1.3454 10.5063L1.4294 10.7992L1.32233 10.8299Z" fill="#333333"/>
</g>
<defs>
<clipPath id="clip0_255_4917">
<rect width="4" height="4" fill="white" transform="translate(1.30225 7.60001) rotate(19)"/>
</clipPath>
</defs>
</svg>
