<svg width="70" height="22" viewBox="0 0 70 22" fill="none" xmlns="http://www.w3.org/2000/svg">
<path d="M6.80187 2.3779L7.12472 2.60085L6.03099 4.12953L6.44402 5.95654L6.07627 6.04276L5.62684 4.04952L6.80187 2.3779ZM7.48462 2.51308L7.79177 2.73292L6.71374 4.26471L7.12676 6.09172L6.75902 6.17794L6.30958 4.18469L7.48462 2.51308Z" fill="white"/>
<path d="M9.86929 3.83769L8.5906 3.47918L8.69858 3.09403L11.6681 3.92659L11.5601 4.31174L10.2775 3.95215L9.6318 6.25534L11.1493 6.6808L11.0402 7.0698L7.59314 6.10333L7.70221 5.71433L9.22354 6.14087L9.86929 3.83769Z" fill="white"/>
<path d="M13.6195 4.32887L14.0147 4.47095L12.9552 7.4183L13.3693 7.56715L14.4288 4.6198L14.824 4.76188L13.7645 7.70923L14.8486 8.09893L14.7106 8.48288L11.3454 7.27316L11.4834 6.88922L12.56 7.27622L13.6195 4.32887ZM15.2345 5.71282L15.5456 5.93517C15.1712 6.52743 14.7876 7.0271 14.396 7.43043L14.0869 7.17902C14.4546 6.81815 14.8356 6.32601 15.2345 5.71282ZM12.694 4.78679C12.7022 5.35509 12.6646 5.9919 12.5787 6.69211L12.1899 6.65013C12.273 6.01692 12.3179 5.39546 12.3184 4.77929L12.694 4.78679Z" fill="white"/>
<path d="M16.8603 5.5754C17.0203 5.85254 17.1435 6.11395 17.2299 6.35966L16.8556 6.51294C16.7844 6.28245 16.6644 6.01367 16.4923 5.71397L16.8603 5.5754ZM15.9248 6.41108L16.7745 6.77407L16.1224 8.30061C16.2699 8.25054 16.4279 8.19626 16.598 8.13409L16.5319 8.58428C16.1948 8.70128 15.854 8.78624 15.5064 8.84652L15.507 8.43789C15.5931 8.40943 15.656 8.35368 15.6906 8.27276L16.2422 6.98163L15.7676 6.77892L15.9248 6.41108ZM17.0531 7.41504L18.8482 8.18188L18.6989 8.53133C18.4607 8.80367 18.1737 9.00727 17.8393 9.13844C18.0045 9.38301 18.2254 9.6296 18.504 9.88349L18.1566 10.1265C17.859 9.82542 17.6228 9.53314 17.457 9.24919C17.0837 9.32893 16.6651 9.3415 16.1939 9.28375L16.1188 8.86891C16.5449 8.92041 16.9246 8.91734 17.2617 8.86127C17.1269 8.52529 17.0713 8.19708 17.1056 7.87246L16.8959 7.78289L17.0531 7.41504ZM17.4661 8.02645C17.4575 8.27069 17.5082 8.51854 17.6272 8.76946C17.8871 8.68039 18.1106 8.55407 18.3048 8.38472L17.4661 8.02645ZM17.9113 6.09835L19.2356 6.66405L18.9103 7.42548C18.8757 7.5064 18.901 7.5694 18.993 7.60869L19.3093 7.74383L19.16 8.09328L18.7407 7.91414C18.4648 7.79628 18.3837 7.6094 18.4937 7.35191L18.7027 6.86268L18.1362 6.62069L18.0938 6.72C17.9304 7.10256 17.6045 7.31566 17.1265 7.35508L16.9948 6.95081C17.3588 6.95406 17.5955 6.83771 17.6976 6.59862L17.9113 6.09835Z" fill="white"/>
<path d="M20.7009 8.47544L21.634 8.91618L22.1294 7.86729L22.52 8.05178L22.0246 9.10068L22.9108 9.51921L22.7331 9.89536L21.847 9.47683L20.9313 11.4155L20.5407 11.231L21.4564 9.29234L20.5232 8.8516L20.7009 8.47544ZM20.546 7.15483C20.6902 7.43968 20.8018 7.70915 20.8826 7.95963L20.4974 8.10067C20.4386 7.86938 20.3234 7.5982 20.1554 7.28883L20.546 7.15483ZM19.5496 7.96265L20.4104 8.36923L19.6963 9.88108C19.8439 9.8402 20.0039 9.79188 20.1762 9.73613L20.0911 10.1693C19.7535 10.2752 19.4117 10.3527 19.062 10.3999L19.0779 9.99155C19.1687 9.96805 19.232 9.91832 19.2678 9.84236L19.8743 8.55838L19.3788 8.32434L19.5496 7.96265Z" fill="white"/>
<path d="M23.3626 10.2987C23.2221 10.3683 23.0797 10.4325 22.9337 10.495L23.0036 10.0308C23.5304 9.78873 24.0005 9.43457 24.4245 8.96464L24.6876 9.29263C24.4826 9.5132 24.2559 9.71434 24.0182 9.89234L22.8328 12.3316L22.4623 12.1515L23.3626 10.2987ZM24.8634 9.33358L26.745 10.2479L26.1418 11.4891L25.4367 11.1465L25.2007 11.6322L25.9994 12.0203L25.8315 12.3657L25.0328 11.9775L24.6849 12.6935C24.7859 12.7603 24.9119 12.8305 25.0523 12.9076C25.2394 12.9985 25.4354 13.0893 25.6332 13.1765L25.3917 13.4995L25.0571 13.3369C24.5264 13.0745 24.1929 12.8457 24.0512 12.6523C23.9095 12.4679 23.8248 12.2488 23.8004 11.9879C23.5756 12.2033 23.3467 12.3723 23.1173 12.4965L23.0232 12.0772C23.4496 11.8219 23.8564 11.4058 24.2452 10.8254L24.5716 11.0596C24.4238 11.2724 24.2774 11.4637 24.1292 11.6407C24.1218 11.7839 24.1342 11.9233 24.1697 12.0606C24.2106 12.1961 24.2781 12.3135 24.3616 12.4163L25.0661 10.9664L24.2602 10.5748L24.8634 9.33358ZM25.9463 10.9672L26.2138 10.4167L25.0625 9.85728L24.795 10.4077L25.9463 10.9672Z" fill="white"/>
<path d="M27.6949 10.6071C27.8476 10.9065 27.964 11.1892 28.0441 11.4551L27.6477 11.5984C27.5934 11.3531 27.484 11.0649 27.3195 10.7336L27.6949 10.6071ZM28.2539 14.8328C28.0577 14.7424 27.845 14.64 27.6178 14.531C27.387 14.4202 27.2081 14.3114 27.0723 14.2047C26.947 14.0942 26.862 13.9537 26.8136 13.7816C26.7948 13.6981 26.7646 13.649 26.721 13.6289C26.652 13.5971 26.4548 13.7 26.1225 13.9433L25.9616 13.5565C26.2772 13.3495 26.5224 13.2379 26.7045 13.2249L27.1632 12.2295L26.6836 12.0086L26.8443 11.6598L27.6762 12.0431L27.0385 13.4273L27.0581 13.4803C27.0945 13.6116 27.1446 13.7228 27.2064 13.8085C27.2866 13.9115 27.4295 14.0126 27.6368 14.1169C27.8422 14.216 28.084 14.3317 28.3601 14.4589C28.5417 14.5426 28.725 14.6227 28.9139 14.7097C29.1026 14.7878 29.2476 14.8459 29.349 14.8838L29.0858 15.2161L28.2539 14.8328ZM28.2723 11.4854L28.6574 11.6628L28.9068 11.1215L29.2738 11.2905L29.0244 11.8319L29.4821 12.0428L29.7282 11.5087L30.0987 11.6795L29.8527 12.2135L30.2705 12.406L30.1081 12.7584L29.6903 12.5659L29.4074 13.1799L29.9415 13.4259L29.7774 13.7819L29.2434 13.5359L28.7981 14.5022L28.4276 14.3315L28.8728 13.3651L28.3279 13.1141C28.037 13.4777 27.7148 13.6992 27.3575 13.7768L27.2676 13.3698C27.5201 13.3188 27.7482 13.1773 27.9537 12.9417L27.5359 12.7492L27.6999 12.3931L28.1904 12.6191C28.2585 12.5096 28.321 12.393 28.3812 12.2622L28.4951 12.0152L28.11 11.8378L28.2723 11.4854ZM28.862 12.1842L28.7883 12.3441C28.7147 12.5039 28.6335 12.6515 28.5537 12.7865L29.0369 13.0091L29.3197 12.3952L28.862 12.1842Z" fill="white"/>
<path d="M32.7224 12.7883L33.1161 12.9457L32.8964 13.4954L33.8101 13.8606L33.6601 14.2357L32.7464 13.8705L32.5163 14.4462L33.5266 14.8501L33.3751 15.2289L32.1717 14.7479C31.7811 15.1431 31.4581 15.4233 31.21 15.5912C31.6141 15.701 32.0256 15.7923 32.4394 15.8672C32.4237 15.6369 32.4007 15.4252 32.3694 15.2232L32.795 15.2469C32.862 15.7044 32.8941 16.1738 32.8882 16.6626L32.4552 16.679C32.4574 16.5335 32.4566 16.3953 32.4566 16.2661C31.8586 16.1563 31.2265 16.0027 30.5549 15.8075L30.6046 15.4354C30.6462 15.4391 30.6767 15.4383 30.6997 15.4346C30.9121 15.3558 31.2656 15.0749 31.7557 14.5816L30.9534 14.2609L31.1049 13.8821L32.1226 14.2889L32.3527 13.7131L31.5133 13.3776L31.6632 13.0025L32.5026 13.338L32.7224 12.7883ZM31.1312 12.1781C31.2947 12.4589 31.4225 12.721 31.5169 12.9698L31.1307 13.1385C31.0593 12.9076 30.9292 12.6402 30.7457 12.3342L31.1312 12.1781ZM30.6909 13.0102C30.8358 13.2835 30.9473 13.5434 31.0291 13.7915L30.6406 13.955C30.5789 13.7322 30.4689 13.4685 30.3092 13.1677L30.6909 13.0102ZM30.605 14.1949L30.9 14.4808C30.5547 14.8813 30.2012 15.2483 29.8448 15.5797L29.5231 15.2529C29.9085 14.9245 30.2701 14.5694 30.605 14.1949Z" fill="white"/>
<path d="M34.2089 13.9361L34.7438 14.1019C34.7324 13.9225 34.7136 13.7533 34.681 13.5883L35.1111 13.6462C35.1249 13.818 35.1327 14.0089 35.1335 14.2227L35.5767 14.36L35.4583 14.7421L34.7209 14.5136L34.5918 14.93L35.2681 15.1396C34.9567 16.1445 34.7458 16.7575 34.6418 16.9849C34.5313 17.2061 34.3151 17.2689 33.9979 17.1707C33.9674 17.1612 33.9201 17.1381 33.8587 17.1066L33.8771 16.7228C33.9423 16.7556 33.9973 16.781 34.0469 16.7964C34.1807 16.8378 34.281 16.7977 34.3418 16.6826C34.3988 16.5662 34.5453 16.1342 34.7838 15.3915L34.4743 15.2956C34.1921 16.1253 33.8589 16.7004 33.4786 17.0223L33.2623 16.6663C33.6064 16.3667 33.9045 15.81 34.1617 14.9936L34.3464 14.3975L34.0905 14.3182L34.2089 13.9361ZM36.0525 14.7839C35.924 14.9283 35.7938 15.0513 35.6633 15.1616L36.0033 15.267L35.8873 15.6414L36.1717 15.629L36.3552 15.0368L36.722 15.1505L36.5788 15.6128L37.2537 15.5833C37.024 16.3245 36.8702 16.7668 36.7911 16.914C36.7044 17.0588 36.5305 17.0928 36.2707 17.0123L36.2668 17.0111L36.2679 16.6429C36.3328 16.6631 36.389 16.6846 36.4425 16.7012C36.473 16.7107 36.504 16.6784 36.5329 16.612C36.5595 16.5532 36.6296 16.3405 36.7457 15.966L36.4663 15.9758L36.0814 17.2175L35.7147 17.1038L36.0592 15.992L35.7748 16.0044L35.4776 16.9634C35.4231 17.1391 35.4494 17.2436 35.5602 17.2779L36.2632 17.4958C36.3396 17.5195 36.4002 17.5131 36.4503 17.4867C36.5053 17.4577 36.5723 17.3361 36.6539 17.1269L36.9646 17.3404C36.8272 17.6622 36.7084 17.8431 36.6042 17.882C36.51 17.9156 36.3821 17.9095 36.2216 17.8598L35.3428 17.5874C35.0716 17.5034 34.9935 17.2824 35.1048 16.9232L35.3854 16.0177L35.0972 16.0289L35.2085 15.6697L35.4967 15.6585L35.6459 15.1771C35.5664 15.2446 35.4842 15.3071 35.4094 15.3593L35.2505 14.9666C35.5535 14.759 35.8641 14.4324 36.1824 13.9866L36.5308 14.1867C36.4594 14.2818 36.393 14.3743 36.324 14.4618L37.6193 14.8632L37.5044 15.2338L36.0525 14.7839Z" fill="white"/>
<path d="M39.5398 15.0936L41.469 15.4825L41.3876 15.8864L39.4584 15.4974L39.5398 15.0936ZM39.2496 16.047L41.4415 16.4889L41.3601 16.8928L40.7563 16.771L40.4251 18.414C40.3729 18.6728 40.2017 18.7729 39.9116 18.7144L39.343 18.5998L39.3334 18.1817C39.5106 18.2337 39.6808 18.2803 39.8455 18.3135C39.9514 18.3348 40.0142 18.3067 40.03 18.2282L40.3406 16.6872L39.1682 16.4509L39.2496 16.047ZM38.8947 14.7717L39.2316 15.0233C38.9376 15.4088 38.5025 15.725 37.9264 15.972L37.8839 15.535C38.3054 15.3466 38.6424 15.0922 38.8947 14.7717ZM38.8972 15.7107L39.231 15.9576C39.0879 16.1409 38.919 16.3109 38.7242 16.4675L38.3321 18.4123L37.9282 18.3309L38.2389 16.7899C38.0834 16.8728 37.9162 16.9534 37.7459 17.0292L37.7018 16.6C38.2026 16.3827 38.6016 16.0837 38.8972 15.7107Z" fill="white"/>
<path d="M42.6339 18.2456L42.59 18.6351C42.2237 18.7429 41.8168 18.8179 41.3617 18.8552L41.3508 18.4515C41.8376 18.4177 42.264 18.3489 42.6339 18.2456ZM42.2499 15.3606L42.6105 15.5541C42.3988 16.0053 42.1924 16.3725 41.9919 16.6519C42.0971 16.6476 42.2062 16.6438 42.3118 16.6355C42.391 16.5035 42.4712 16.3636 42.5562 16.2162L42.9027 16.392C42.5525 16.9645 42.264 17.3828 42.0365 17.6511C42.2561 17.6315 42.4775 17.596 42.7081 17.5495L42.667 17.9152C42.2592 17.9982 41.8761 18.0396 41.5214 18.044L41.4623 17.6751C41.5334 17.6509 41.5971 17.6218 41.6497 17.5835C41.7669 17.4719 41.9187 17.2675 42.1095 16.967C41.9389 16.98 41.7649 16.9886 41.5824 17.0003L41.5229 16.6353C41.5896 16.6147 41.6466 16.5728 41.7019 16.5106C41.902 16.1628 42.0819 15.7805 42.2499 15.3606ZM43.8986 16.2343L43.3858 16.1767L43.2745 17.1664L43.7872 17.2241L43.8986 16.2343ZM43.7452 17.5977L43.2325 17.5401L43.1167 18.5696L43.6294 18.6273L43.7452 17.5977ZM44.0031 18.6693L44.4999 18.7252L44.6157 17.6956L44.1189 17.6398L44.0031 18.6693ZM44.1609 17.2661L44.6578 17.322L44.7691 16.3322L44.2722 16.2764L44.1609 17.2661ZM44.4575 19.1028L43.0742 18.9472L43.0492 19.1698L42.6715 19.1273L43.0511 15.7526L45.2015 15.9945L44.822 19.3692L44.4324 19.3254L44.4575 19.1028Z" fill="white"/>
<path d="M47.5018 15.9484L47.3912 18.482L46.9836 18.4642L47.0767 16.3302L46.0697 16.2863L45.975 18.4562L45.5714 18.4386L45.6835 15.869L47.5018 15.9484ZM46.8761 18.5436C47.1186 18.7663 47.3253 18.9836 47.4921 19.199L47.1626 19.501C47.0236 19.2907 46.8254 19.0618 46.5678 18.8184L46.8761 18.5436ZM46.3675 16.5275L46.7711 16.5451L46.7168 17.7879C46.6803 18.2587 46.5678 18.6342 46.3838 18.9064C46.2006 19.1587 45.916 19.3505 45.534 19.4779L45.3147 19.092C45.6802 18.9718 45.9315 18.8106 46.0681 18.6164C46.2018 18.398 46.2821 18.1173 46.3132 17.7703L46.3675 16.5275ZM47.8357 16.1871L48.2393 16.2048L48.1321 18.6624L47.7285 18.6448L47.8357 16.1871ZM48.4706 19.53L47.9191 19.5059L47.8408 19.0981C48.0159 19.1218 48.1834 19.1371 48.3393 19.1439C48.4512 19.1488 48.5096 19.0953 48.5143 18.9874L48.6496 15.8863L49.0652 15.9045L48.9252 19.1134C48.9126 19.4012 48.7583 19.5426 48.4706 19.53Z" fill="white"/>
<path d="M49.953 15.8737L50.7946 17.7356L49.9803 19.6096L49.6351 19.4561L50.3826 17.7386L49.6102 16.0322L49.953 15.8737ZM50.649 15.8686L51.4906 17.7305L50.6762 19.6045L50.3311 19.451L51.0786 17.7335L50.2902 16.0272L50.649 15.8686Z" fill="white"/>
<path d="M54.2591 15.8027L54.6389 15.79C54.4802 16.0715 54.3615 16.3516 54.2827 16.6304C54.1743 16.9782 54.1299 17.3279 54.1415 17.6757C54.153 18.0195 54.2206 18.3654 54.3521 18.7092C54.4492 18.9781 54.5863 19.2497 54.7636 19.524L54.3838 19.5366C54.1831 19.2792 54.0301 19.0122 53.9168 18.7358C53.7816 18.4041 53.7099 18.0543 53.6979 17.6945C53.6856 17.3267 53.734 16.9769 53.8467 16.6369C53.941 16.3456 54.0759 16.069 54.2591 15.8027Z" fill="white"/>
<path d="M56.7908 16.0922C57.0784 16.0778 57.3175 16.1339 57.5003 16.265C57.679 16.3962 57.7765 16.5836 57.7889 16.8313C57.8045 17.1429 57.655 17.3586 57.3446 17.4783C57.515 17.5218 57.6506 17.5911 57.7437 17.6906C57.845 17.7937 57.8999 17.9311 57.9083 18.0989C57.9215 18.3626 57.8403 18.5829 57.665 18.7599C57.4818 18.9412 57.2345 19.0417 56.9229 19.0573C56.6272 19.072 56.3838 19.0081 56.1964 18.8653C55.9883 18.7075 55.864 18.4654 55.8241 18.147L56.2995 18.1232C56.3167 18.3066 56.3798 18.4476 56.4966 18.5419C56.6011 18.6288 56.7353 18.6701 56.8991 18.662C57.0789 18.653 57.2201 18.5939 57.319 18.4888C57.4063 18.3923 57.4487 18.2781 57.4419 18.1422C57.4337 17.9784 57.3758 17.8612 57.2761 17.7901C57.1762 17.715 57.0346 17.686 56.8508 17.6952L56.6511 17.7051L56.6335 17.3536L56.8333 17.3436C57.001 17.3352 57.1271 17.2929 57.2114 17.2166C57.2917 17.1405 57.3302 17.0304 57.3233 16.8906C57.3163 16.7508 57.2711 16.6489 57.1916 16.5808C57.1042 16.5131 56.9785 16.4833 56.8147 16.4915C56.6469 16.4998 56.5211 16.5462 56.4334 16.6347C56.3417 16.7234 56.2922 16.854 56.2848 17.0266L55.8253 17.0495C55.8349 16.7607 55.9276 16.5318 56.1114 16.3624C56.2832 16.1936 56.5111 16.1061 56.7908 16.0922Z" fill="white"/>
<path d="M59.5294 17.0491L59.5667 17.6399L61.1436 17.5401L61.1062 16.9493L59.5294 17.0491ZM61.0817 16.5621L61.0463 16.0032L59.4695 16.103L59.5048 16.6619L61.0817 16.5621ZM59.5673 18.0287C59.5433 18.5352 59.4183 18.9679 59.1923 19.3229L58.8545 19.0517C59.08 18.6888 59.1755 18.2338 59.1491 17.6904L59.025 15.7303L61.4442 15.5772L61.6423 18.7069C61.659 18.9704 61.5316 19.1107 61.2601 19.1279L60.7491 19.1603L60.6116 18.7602C60.788 18.761 60.9522 18.7586 61.0999 18.7493C61.1797 18.7442 61.2161 18.6858 61.2095 18.582L61.1681 17.9273L59.5673 18.0287Z" fill="white"/>
<path d="M63.1379 15.3745L63.545 15.3474L63.6123 16.3571L63.7879 16.3454L63.8153 16.7565L62.9372 16.815L62.9457 16.9427C62.9529 17.0505 62.9558 17.1545 62.9585 17.2546L63.7208 17.2038L63.8178 18.6605C63.9884 18.2723 64.0576 17.7466 64.03 17.091L63.9276 15.5544C64.5614 15.5001 65.1226 15.3786 65.6148 15.1854L65.8391 15.5433C65.3932 15.7093 64.8876 15.8232 64.3304 15.8843L64.3634 16.3792L65.8122 16.2827L65.8359 16.6379C65.7826 17.1626 65.6565 17.616 65.4492 17.9946C65.6402 18.2144 65.8674 18.3757 66.1271 18.4827L65.9443 18.8677C65.6633 18.7421 65.4194 18.5699 65.2161 18.3469C65.024 18.5922 64.797 18.7958 64.5277 18.966L64.3072 18.6039C64.5647 18.4384 64.78 18.2397 64.9492 18.0119C64.7303 17.6737 64.5664 17.2597 64.4613 16.7656L64.3895 16.7704L64.4091 17.0657C64.445 17.8451 64.3468 18.477 64.1182 18.9572L63.8186 18.6725L63.8388 18.9758L63.4317 19.003L63.34 17.626L62.9648 17.651C62.9552 18.2289 62.8773 18.6831 62.7384 19.0051L62.4047 18.7507C62.5399 18.3729 62.5844 17.7766 62.5346 16.9701L62.4365 15.4974L62.8476 15.47L62.9098 16.4039L63.2052 16.3842L63.1379 15.3745ZM64.8365 16.7406C64.9232 17.0796 65.0389 17.3725 65.1839 17.6234C65.3175 17.3419 65.4013 17.0357 65.4391 16.7004L64.8365 16.7406Z" fill="white"/>
<path d="M66.753 15.07L67.1323 15.047C67.3356 15.2952 67.4998 15.5578 67.621 15.839C67.761 16.1671 67.8459 16.5106 67.8681 16.8779C67.8899 17.2373 67.8472 17.5925 67.7477 17.9351C67.6608 18.2209 67.5295 18.5013 67.3578 18.7762L66.9785 18.7991C67.1253 18.5098 67.2364 18.2265 67.3118 17.9495C67.4066 17.5951 67.4455 17.2441 67.4247 16.9007C67.4037 16.5534 67.3228 16.2096 67.1862 15.8733C67.0778 15.6033 66.9333 15.3356 66.753 15.07Z" fill="white"/>
<g clip-path="url(#clip0_255_4908)">
<path d="M4.49251 3.54374C4.85212 2.49935 4.297 1.36118 3.25261 1.00157C2.20822 0.641957 1.07005 1.19708 0.710436 2.24147C0.350824 3.28586 0.905946 4.42403 1.95034 4.78364C2.99473 5.14326 4.1329 4.58813 4.49251 3.54374Z" fill="white"/>
<path d="M3.25638 3.11806C3.12899 3.48801 2.72584 3.68465 2.35589 3.55727C1.98594 3.42988 1.78931 3.02672 1.91669 2.65677C2.04407 2.28682 2.44724 2.09019 2.81719 2.21757C3.18714 2.34495 3.38376 2.74812 3.25638 3.11806Z" fill="#485CC2"/>
<path fill-rule="evenodd" clip-rule="evenodd" d="M2.1132 2.36017C2.03787 2.47144 1.94258 2.72061 2.13686 2.87424C2.33464 3.03064 2.52609 2.94574 2.59709 2.88375C2.67185 2.83223 2.86033 2.76029 3.01617 2.88458C3.17203 3.00888 3.16909 3.16161 3.14814 3.22246L3.09275 3.38332C3.16423 3.31047 3.22099 3.22098 3.25643 3.11806C3.38381 2.74811 3.18719 2.34495 2.81724 2.21757C2.56548 2.13088 2.29834 2.19425 2.1132 2.36017Z" fill="#D74B4B"/>
<path fill-rule="evenodd" clip-rule="evenodd" d="M1.36431 1.87839L1.94369 1.45746L2.00916 1.54758L1.42978 1.96851L1.36431 1.87839ZM1.48431 2.02061L2.06368 1.59969L2.12915 1.6898L1.54978 2.11073L1.48431 2.02061ZM2.17111 1.73488L1.59174 2.15581L1.65721 2.24593L2.23658 1.825L2.17111 1.73488Z" fill="#333333"/>
<path fill-rule="evenodd" clip-rule="evenodd" d="M4.20081 2.85511L4.11529 2.55686L4.00788 2.5864L4.09375 2.88581L4.20081 2.85511ZM4.00341 2.16671L4.08459 2.44978L3.97717 2.47932L3.89635 2.19742L4.00341 2.16671ZM4.0187 2.89331L3.8213 2.20491L3.71422 2.23561L3.91162 2.92401L4.0187 2.89331ZM3.66257 2.68137L3.74374 2.96441L3.85081 2.9337L3.76999 2.65183L3.66257 2.68137ZM3.73927 2.54475L3.63187 2.5743L3.54632 2.27601L3.6534 2.2453L3.73927 2.54475Z" fill="#333333"/>
<path fill-rule="evenodd" clip-rule="evenodd" d="M3.58762 4.08924L3.83863 3.90687L3.77317 3.81675L3.52117 3.99983L3.58762 4.08924ZM3.49751 4.15472L3.25926 4.3278L3.1938 4.23769L3.43104 4.06531L3.49751 4.15472ZM3.30753 3.7124L3.54575 3.53933L3.61121 3.62945L3.37399 3.80181L3.30753 3.7124ZM3.28386 3.86729L3.21742 3.77788L2.96636 3.96027L3.03184 4.05038L3.28386 3.86729ZM3.71865 3.76465L3.4769 3.94028L3.41045 3.85087L3.65317 3.67454L3.71865 3.76465ZM3.13927 4.18559L3.38679 4.00576L3.32033 3.91635L3.0738 4.09546L3.13927 4.18559Z" fill="#333333"/>
<path fill-rule="evenodd" clip-rule="evenodd" d="M1.00213 2.93016L1.19954 3.61855L1.30661 3.58786L1.10921 2.89945L1.00213 2.93016ZM1.35214 2.85157L1.54955 3.53996L1.65662 3.50926L1.45922 2.82085L1.35214 2.85157ZM1.18425 2.89196L1.26662 3.17919L1.37402 3.14965L1.29132 2.86126L1.18425 2.89196ZM1.38165 3.58036L1.29732 3.28627L1.40473 3.25673L1.48873 3.54965L1.38165 3.58036Z" fill="#333333"/>
</g>
<defs>
<clipPath id="clip0_255_4908">
<rect width="4" height="4" fill="white" transform="translate(1.36157 0.350433) rotate(19)"/>
</clipPath>
</defs>
</svg>
