<svg width="93" height="17" viewBox="0 0 93 17" fill="none" xmlns="http://www.w3.org/2000/svg">
<path d="M5.9022 4.45798L6.25722 4.625L5.42881 6.31226L6.13566 8.04688L5.78701 8.1922L5.017 6.29956L5.9022 4.45798ZM6.59787 4.47944L6.9369 4.64597L6.12447 6.33372L6.83133 8.06834L6.48268 8.21366L5.71267 6.32102L6.59787 4.47944Z" fill="white"/>
<path d="M8.95596 6.02854L7.65442 5.94844L7.67777 5.56916L10.6921 5.75466L10.6292 6.77673L9.32363 6.69638L9.30545 6.99183L10.7547 7.08102C10.7242 7.57608 10.6689 7.88927 10.5927 8.02084C10.5125 8.15216 10.3526 8.21045 10.1046 8.2032C9.93687 8.19288 9.76943 8.17857 9.60998 8.16475L9.5305 7.76311C9.72165 7.78288 9.89682 7.80168 10.0605 7.81175C10.1683 7.81839 10.2344 7.78639 10.2628 7.716C10.2832 7.64512 10.3015 7.54205 10.3096 7.4103L9.28358 7.34715L9.22142 8.35724L8.81419 8.33218L8.87046 7.41791C8.56685 7.72785 8.09027 7.98305 7.44073 8.18353L7.23251 7.79C7.80202 7.65272 8.21281 7.48965 8.46513 7.29678L7.44307 7.23388L7.70583 6.22011L8.9395 6.29603L8.95596 6.02854ZM8.9164 6.67132L8.05004 6.61801L7.96 6.90902L8.89822 6.96676L8.9164 6.67132ZM9.34673 6.32109L10.2251 6.37515L10.2415 6.10766L9.36319 6.0536L9.34673 6.32109ZM8.01 5.18484C7.9183 5.30744 7.8191 5.42156 7.70842 5.52696L7.35911 5.27703C7.61315 5.05622 7.79631 4.81502 7.91259 4.55366L8.31042 4.66631C8.28278 4.72473 8.25538 4.77915 8.22799 4.83357L9.19815 4.89327L9.17579 5.25658L8.65678 5.22464C8.71924 5.31665 8.77022 5.39994 8.81322 5.48274L8.42933 5.59938C8.36557 5.46321 8.29359 5.33053 8.20962 5.19712L8.01 5.18484ZM9.716 5.26979C9.6278 5.40062 9.5361 5.52322 9.43291 5.6371L9.08759 5.38741C9.31393 5.16089 9.47713 4.91846 9.58143 4.65637L9.97128 4.76853C9.95211 4.81944 9.92896 4.87012 9.90605 4.9168L11.0199 4.98535L10.9976 5.34866L10.3827 5.31082C10.449 5.40707 10.5034 5.49859 10.5462 5.58538L10.1703 5.70251C10.103 5.55811 10.0235 5.41696 9.93559 5.28331L9.716 5.26979Z" fill="white"/>
<path d="M11.2658 6.38762L14.8872 6.71204L14.8501 7.12638L11.2286 6.80196L11.2658 6.38762Z" fill="white"/>
<path d="M17.09 6.30983C16.9244 6.66945 16.736 6.94597 16.5209 7.13894L16.2026 6.85726C16.5608 6.50339 16.8248 5.98586 16.9952 5.3007L17.4009 5.41518C17.3523 5.59485 17.3007 5.76612 17.2468 5.92104L18.8923 6.10777L18.8612 6.38201C18.7398 6.70639 18.5951 7.0241 18.4225 7.33864L18.0262 7.17693C18.1618 6.97493 18.2856 6.73536 18.3976 6.45822L17.09 6.30983ZM17.3668 6.56668L17.7722 6.61269C17.7487 6.81936 17.7147 7.01276 17.6741 7.19333C17.82 7.89425 18.1689 8.47329 18.7121 8.93749L18.4017 9.22433C17.9773 8.81385 17.6692 8.33607 17.481 7.79539L17.4171 7.93306C17.2049 8.38401 16.7786 8.73418 16.1393 8.97564L15.903 8.61066C16.4534 8.40743 16.8309 8.13223 17.0362 7.77712C17.1915 7.47269 17.302 7.06656 17.3668 6.56668ZM15.7159 5.32863C15.9744 5.67599 16.1698 5.97594 16.3017 6.23245L15.9501 6.42201C15.808 6.14825 15.6095 5.8399 15.3581 5.50139L15.7159 5.32863ZM15.8549 7.08349L16.2048 7.2641C15.9349 7.79707 15.6493 8.29202 15.3399 8.74804L14.9742 8.52941C15.3009 8.06327 15.5971 7.5816 15.8549 7.08349Z" fill="white"/>
<path d="M20.4721 5.77915L20.8359 5.98842C20.4497 6.77677 19.9979 7.35878 19.4839 7.73895L19.1923 7.41009C19.7227 7.02804 20.1495 6.48307 20.4721 5.77915ZM21.7421 8.08461C21.9639 8.54549 22.1457 9.0334 22.2843 9.54385L21.8727 9.66718C21.8379 9.53349 21.8025 9.40377 21.7666 9.27801C21.0709 9.29133 20.2956 9.26593 19.4436 9.21027L19.4254 8.79636C19.699 8.77185 20.1704 8.22469 20.8358 7.15437L21.2254 7.35091C20.8321 7.94868 20.4428 8.4542 20.0581 8.8635C20.5942 8.89775 21.125 8.91114 21.643 8.89864C21.553 8.63261 21.4564 8.38589 21.3526 8.16244L21.7421 8.08461ZM21.9555 5.94214C22.0757 6.68417 22.3757 7.31673 22.8556 7.83982L22.5127 8.1457C22.0098 7.58326 21.6963 6.9005 21.5725 6.09345L21.9555 5.94214Z" fill="white"/>
<path d="M23.6677 6.9496L24.3409 7.04545L24.4508 6.27324L24.8666 6.33245L24.7567 7.10466L25.7467 7.24562L25.8544 6.48925L26.2702 6.54845L26.1625 7.30482L26.8397 7.40124L26.7833 7.79725L26.1061 7.70083L25.9888 8.52452L26.864 8.64913L26.8065 9.05306L23.2345 8.54447L23.292 8.14054L24.1672 8.26515L24.2845 7.44146L23.6113 7.34561L23.6677 6.9496ZM24.583 8.32436L25.573 8.46532L25.6903 7.64163L24.7003 7.50066L24.583 8.32436ZM24.3999 8.75889L24.6733 9.08064C24.2967 9.39873 23.8471 9.66198 23.3324 9.87152L23.093 9.45359C23.5992 9.27517 24.0363 9.04247 24.3999 8.75889ZM25.6621 8.94668C26.0707 9.31192 26.4119 9.66758 26.6825 10.0091L26.307 10.291C26.0868 9.96471 25.7591 9.59887 25.3239 9.19347L25.6621 8.94668Z" fill="white"/>
<path d="M27.8153 6.82069C28.0412 7.04732 28.2275 7.26823 28.3743 7.48341L28.052 7.72786C27.9239 7.52344 27.7387 7.29462 27.4953 7.0493L27.8153 6.82069ZM27.1263 7.86897L28.0409 8.00106L27.8035 9.64401C27.9332 9.55767 28.072 9.46454 28.2203 9.36069L28.2722 9.81275C27.9766 10.0125 27.6692 10.1823 27.3488 10.3301L27.2442 9.93504C27.3201 9.88538 27.3666 9.81531 27.3792 9.72821L27.5799 8.33863L27.0692 8.26486L27.1263 7.86897ZM28.475 8.54876L30.407 8.82781L30.3526 9.20391C30.1926 9.52836 29.9676 9.79898 29.6782 10.0118C29.9008 10.2056 30.1777 10.3871 30.5123 10.5607L30.2392 10.885C29.8741 10.6706 29.5706 10.4489 29.3374 10.2172C28.9971 10.3903 28.5959 10.5102 28.1257 10.5756L27.9464 10.1941C28.3713 10.1342 28.7375 10.0335 29.0488 9.89259C28.832 9.60262 28.6939 9.29976 28.6435 8.97724L28.4178 8.94465L28.475 8.54876ZM29.0315 9.03328C29.086 9.27152 29.1988 9.49797 29.3783 9.70982C29.6065 9.55687 29.7901 9.37727 29.9341 9.16366L29.0315 9.03328ZM28.9655 7.05554L30.3907 7.2614L30.2724 8.0809C30.2598 8.16799 30.3004 8.22236 30.3994 8.23666L30.7399 8.28584L30.6855 8.66193L30.2342 8.59674C29.9373 8.55386 29.8108 8.39414 29.8509 8.11701L29.9269 7.59048L29.3173 7.50241L29.3018 7.60931C29.2423 8.02103 28.9822 8.31083 28.5306 8.47191L28.2992 8.11517C28.6518 8.02464 28.8506 7.85128 28.8878 7.59395L28.9655 7.05554Z" fill="white"/>
<path d="M32.3469 8.58087L33.3693 8.72164L33.5275 7.57248L33.9555 7.63141L33.7972 8.78057L34.7681 8.91425L34.7113 9.32636L33.7405 9.19268L33.448 11.3166L33.0201 11.2577L33.3125 9.13375L32.2902 8.99298L32.3469 8.58087ZM31.8034 7.36738C32.0263 7.59592 32.2135 7.81955 32.3657 8.03431L32.0405 8.2843C31.915 8.08128 31.7238 7.8571 31.4709 7.61231L31.8034 7.36738ZM31.0949 8.43673L32.038 8.56659L31.8099 10.223C31.9385 10.1397 32.0766 10.0457 32.2243 9.94085L32.2729 10.3796C31.9826 10.5819 31.6797 10.7582 31.3603 10.908L31.253 10.5137C31.3326 10.4641 31.378 10.3977 31.3895 10.3145L31.5832 8.90774L31.0403 8.83299L31.0949 8.43673Z" fill="white"/>
<path d="M36.9765 9.89984L36.9279 10.2969L37.5076 10.3677L37.5561 9.97067L36.9765 9.89984ZM36.8809 10.682L36.8256 11.1347L37.4053 11.2055L37.4606 10.7529L36.8809 10.682ZM36.777 11.5317L36.7552 11.7104L36.3463 11.6604L36.6097 9.50443C36.5177 9.59796 36.4257 9.69149 36.3341 9.78105L36.2949 9.57476L36.2444 9.98769C36.1314 10.0222 36.0183 10.0568 35.9058 10.0874L35.7772 11.1395C35.7442 11.4095 35.5843 11.531 35.3064 11.4971L34.949 11.4534L34.9067 11.0412C35.012 11.0702 35.1138 11.0947 35.2091 11.1064C35.3044 11.118 35.3618 11.0767 35.3734 10.9814L35.47 10.1913C35.3212 10.2214 35.1685 10.2511 35.0167 10.2729L34.9649 9.8394C35.1519 9.82598 35.336 9.80414 35.5214 9.77039L35.6194 8.96835L35.1549 8.91159L35.2039 8.51057L35.6684 8.56734L35.7524 7.88045L36.1693 7.93139L36.0853 8.61828L36.4387 8.66146L36.3897 9.06248L36.0363 9.0193L35.9568 9.67046C36.0737 9.6364 36.1828 9.60136 36.2923 9.56236L36.248 9.33128C36.6082 8.9562 36.8784 8.5258 37.0661 8.04501L37.4614 8.17391C37.3825 8.3577 37.2967 8.53258 37.1994 8.70203L37.7553 8.76996C37.718 8.58004 37.6728 8.38915 37.6148 8.20475L38.0289 8.14655C38.0837 8.391 38.1249 8.61365 38.1483 8.81799L38.7399 8.89029L38.6914 9.28733L38.0641 9.21067L38.0127 9.63154L38.5606 9.6985L38.513 10.0876L37.9651 10.0206L37.9166 10.4177L38.4645 10.4847L38.4174 10.8698L37.8695 10.8028L37.8142 11.2555L38.4852 11.3375L38.4367 11.7345L36.777 11.5317ZM37.6551 9.1607L37.0754 9.08986L37.024 9.51073L37.6037 9.58157L37.6551 9.1607Z" fill="white"/>
<path d="M41.1155 8.44365C41.1665 8.57736 41.212 8.72659 41.2519 8.89135L42.6728 9.03273L42.6328 9.43475L39.7312 9.14604L39.6496 9.966C39.5505 10.8405 39.3531 11.5323 39.0616 12.038L38.7386 11.6883C38.9804 11.2782 39.1437 10.6875 39.2277 9.92402L39.3492 8.70205L40.7901 8.84541C40.7471 8.7125 40.6989 8.59113 40.6419 8.47692L41.1155 8.44365Z" fill="white"/>
<path d="M44.1717 11.5105L44.1434 11.9135C43.7891 12.049 43.3888 12.1532 42.9431 12.2181L42.9164 11.7992C43.394 11.7365 43.8097 11.6414 44.1717 11.5105ZM43.6589 8.70765L44.0316 8.8822C43.8303 9.34925 43.6353 9.72851 43.4424 10.0197C43.5592 10.0119 43.6766 9.99607 43.7901 9.97997C43.8634 9.84879 43.9376 9.70564 44.0164 9.55479L44.3934 9.72562C44.0509 10.3191 43.7679 10.7523 43.5445 11.0213C43.7719 10.9812 44.0006 10.921 44.2305 10.845L44.2045 11.216C43.7951 11.3357 43.409 11.4088 43.0505 11.4317L42.9728 11.0533C43.0469 11.0265 43.1133 10.995 43.1642 10.9545C43.273 10.8338 43.4158 10.6273 43.5972 10.3273C43.428 10.3395 43.2502 10.3591 43.0724 10.3787L42.9975 10.0165C43.0633 9.99309 43.1186 9.94885 43.1712 9.88438C43.3486 9.52793 43.5123 9.13845 43.6589 8.70765ZM46.6346 9.32969L46.5769 10.1517L46.2297 10.1273L46.2121 10.3787L44.7317 10.2747L44.7494 10.0233L44.4022 9.99891L44.46 9.17694L45.2979 9.2358C45.255 9.10447 45.2073 8.98483 45.1587 8.87716L45.5907 8.83533C45.6336 8.96666 45.6756 9.10996 45.7129 9.26495L46.6346 9.32969ZM44.8062 9.89898L46.1868 9.99595L46.209 9.68073L44.8284 9.58375L44.8062 9.89898ZM44.573 11.2219L44.9504 11.3286C44.8181 11.7283 44.6495 12.0733 44.4369 12.3591L44.1018 12.107C44.3135 11.8332 44.4704 11.5395 44.573 11.2219ZM46.1992 11.304C46.3335 11.6182 46.4465 11.951 46.5375 12.3102L46.1589 12.448C46.0664 12.0526 45.9549 11.6999 45.832 11.3945L46.1992 11.304ZM45.1724 12.507L44.8212 12.4824L44.7609 12.0852C44.8636 12.1084 44.9625 12.1274 45.0582 12.1341C45.142 12.14 45.1907 12.0753 45.1996 11.9476L45.2641 11.0298L44.3783 10.9676L44.4058 10.5766L46.4926 10.7232L46.4652 11.1142L45.6631 11.0579L45.5914 12.0794C45.5701 12.3826 45.4277 12.525 45.1724 12.507Z" fill="white"/>
<path d="M48.779 9.01599L49.0828 9.02718C49.5618 9.60519 50.1211 10.0701 50.7649 10.414L50.5222 10.8093C50.3144 10.6896 50.1191 10.5583 49.9401 10.4197L49.93 10.6955L47.8114 10.6175L47.8217 10.3377C47.625 10.4625 47.4164 10.5829 47.1961 10.6949L46.9873 10.2789C47.6999 9.94892 48.2959 9.52656 48.779 9.01599ZM47.9981 10.2201L49.7689 10.2853C49.4504 10.0214 49.1651 9.72668 48.9169 9.40133C48.6536 9.70384 48.3473 9.97676 47.9981 10.2201ZM50.1754 11.0968L50.1135 12.7756L49.7098 12.7608L49.7173 12.5569L47.8866 12.4895L47.8791 12.6934L47.4753 12.6785L47.5371 10.9996L50.1754 11.0968ZM47.9011 12.0938L49.7319 12.1612L49.7572 11.4736L47.9264 11.4062L47.9011 12.0938Z" fill="white"/>
<path d="M52.0836 10.2599L53.1156 10.2621L53.118 9.10208L53.55 9.10299L53.5476 10.263L54.5276 10.2651L54.5267 10.6811L53.5467 10.679L53.5422 12.823L53.1102 12.8221L53.1147 10.6781L52.0827 10.6759L52.0836 10.2599ZM51.3819 9.13042C51.6335 9.32695 51.8491 9.5234 52.0287 9.71578L51.7401 10.0072C51.5885 9.82285 51.3689 9.62639 51.0853 9.41779L51.3819 9.13042ZM50.8235 10.2852L51.7755 10.2872L51.772 11.9592C51.8882 11.8595 52.0124 11.7478 52.1447 11.624L52.2518 12.0523C51.9913 12.2917 51.7148 12.5071 51.4184 12.6985L51.2592 12.3222C51.3313 12.2623 51.3675 12.1904 51.3677 12.1064L51.3707 10.6864L50.8227 10.6852L50.8235 10.2852Z" fill="white"/>
<path d="M57.4063 9.36472L57.81 9.34697L57.9181 11.8046L57.5145 11.8223L57.4063 9.36472ZM58.3314 12.6432L57.7559 12.6686L57.6426 12.2772C57.8311 12.2849 58.0073 12.2851 58.1711 12.2779C58.279 12.2732 58.3327 12.2188 58.3281 12.1149L58.1908 8.99388L58.6064 8.9756L58.7485 12.2045C58.7608 12.4842 58.6191 12.6306 58.3314 12.6432ZM57.0966 9.87883L57.1822 10.2755L56.0748 10.4963C56.098 10.6595 56.1287 10.8103 56.1626 10.9449C56.1969 11.0876 56.2349 11.222 56.2761 11.3403C56.4654 11.0918 56.6211 10.8086 56.751 10.4866L57.1229 10.6584C56.9463 11.1026 56.7227 11.4808 56.4563 11.7968C56.4828 11.8517 56.5089 11.8986 56.5348 11.9415C56.6767 12.1635 56.8017 12.2741 56.9097 12.2734C56.9691 12.2587 57.021 12.0723 57.0691 11.7098L57.431 11.9261C57.376 12.1327 57.3196 12.3074 57.2538 12.4504C57.1693 12.6223 57.0691 12.7108 56.9532 12.7159C56.7614 12.7243 56.5638 12.6009 56.3647 12.3534C56.2971 12.2723 56.2371 12.1828 56.1806 12.0812C55.9532 12.2834 55.7003 12.4507 55.4259 12.5829L55.1614 12.2142C55.4717 12.0764 55.7438 11.8922 55.9821 11.6656C55.9282 11.5318 55.8739 11.39 55.8271 11.236C55.7665 11.0424 55.7167 10.8204 55.6738 10.574L55.2015 10.6669L55.1239 10.2699L55.6121 10.1724C55.5701 9.85391 55.5384 9.49896 55.5212 9.10734L55.9448 9.0887C55.961 9.45635 55.9837 9.79167 56.0209 10.0903L57.0966 9.87883ZM56.4752 9.04134C56.6268 9.21084 56.7711 9.39668 56.9123 9.60267L56.5686 9.79797C56.4352 9.58763 56.2945 9.39362 56.1429 9.22412L56.4752 9.04134Z" fill="white"/>
<path d="M59.7434 8.7249L60.1197 8.67203C59.9917 8.96872 59.9033 9.25984 59.8546 9.5454C59.7836 9.90275 59.7766 10.2552 59.825 10.5998C59.8729 10.9404 59.9768 11.2773 60.144 11.6052C60.269 11.8623 60.4342 12.1178 60.6395 12.3717L60.2632 12.4246C60.0363 12.1898 59.8559 11.9405 59.7139 11.6777C59.5444 11.3622 59.436 11.022 59.3859 10.6655C59.3347 10.3011 59.3457 9.94813 59.4217 9.59814C59.4847 9.29848 59.5894 9.00909 59.7434 8.7249Z" fill="white"/>
<path d="M62.1784 8.72995C62.4501 8.68127 62.6886 8.71981 62.894 8.84555C63.0955 8.972 63.2181 9.15728 63.2632 9.40927C63.307 9.65338 63.252 9.8908 63.1068 10.1241C63.0178 10.2619 62.8477 10.4468 62.6053 10.6813C62.3517 10.9217 62.2081 11.1182 62.1705 11.2712L63.5564 11.0229L63.6291 11.4284L61.6683 11.7797C61.6168 11.4923 61.6629 11.228 61.8138 10.9816C61.895 10.8451 62.0805 10.6331 62.3671 10.3501C62.5256 10.1916 62.6326 10.0627 62.6965 9.96595C62.7939 9.80627 62.8301 9.64537 62.8019 9.48787C62.7743 9.33432 62.7106 9.2279 62.6184 9.1672C62.5223 9.10721 62.3939 9.09364 62.2325 9.12257C62.0593 9.15361 61.9399 9.23595 61.8745 9.36959C61.8076 9.49536 61.7907 9.67313 61.8223 9.89502L61.3616 9.97757C61.3091 9.66188 61.3546 9.39367 61.5011 9.16829C61.6495 8.93039 61.8752 8.78428 62.1784 8.72995Z" fill="white"/>
<path d="M65.0082 8.1797C65.3333 8.11233 65.6155 8.19274 65.8564 8.42877C66.0823 8.65156 66.2407 8.98229 66.3316 9.42097C66.4225 9.85965 66.4086 10.2261 66.2899 10.5203C66.1618 10.8287 65.9356 11.0186 65.6105 11.086C65.2815 11.1541 64.9985 11.0698 64.7623 10.8369C64.5364 10.6141 64.378 10.2834 64.2871 9.84468C64.1962 9.40601 64.2101 9.03956 64.3289 8.74533C64.4522 8.43382 64.6792 8.24789 65.0082 8.1797ZM65.0886 8.56747C64.8653 8.61373 64.7338 8.76762 64.6957 9.03696C64.6679 9.21837 64.6845 9.45596 64.7453 9.74971C64.8054 10.0396 64.8846 10.2642 64.983 10.4235C65.1242 10.6516 65.3069 10.7445 65.5301 10.6982C65.7495 10.6527 65.8802 10.4949 65.923 10.2287C65.95 10.0434 65.9334 9.80578 65.8734 9.51594C65.8125 9.22218 65.7333 8.99759 65.6357 8.84215C65.4897 8.61096 65.3079 8.52201 65.0886 8.56747Z" fill="white"/>
<path d="M67.4813 7.70348L67.8249 7.62684L68.4468 10.4143L67.99 10.5162L67.4909 8.27921C67.357 8.46892 67.1715 8.62917 66.9303 8.76083L66.8293 8.30796C66.9473 8.24886 67.0678 8.16459 67.1909 8.05515C67.3123 7.93791 67.4094 7.82199 67.4813 7.70348Z" fill="white"/>
<path d="M69.7288 7.13062C70.0248 7.06107 70.2806 7.08312 70.4972 7.20067C70.6859 7.30425 70.8089 7.46026 70.8583 7.67053C70.8913 7.81071 70.8885 7.93874 70.849 8.05073C70.8028 8.16844 70.7207 8.27401 70.5973 8.36056L70.5991 8.36834C70.7358 8.37319 70.867 8.42453 70.9889 8.52327C71.1251 8.63096 71.2153 8.77001 71.2556 8.94134C71.3142 9.19055 71.2674 9.4111 71.1249 9.60895C70.9776 9.80383 70.7389 9.94211 70.4079 10.0199C70.073 10.0986 69.7977 10.0811 69.5829 9.97136C69.3633 9.85862 69.227 9.68108 69.1685 9.43187C69.1282 9.26054 69.1431 9.09678 69.221 8.93876C69.2861 8.79608 69.3768 8.69258 69.501 8.62642L69.4992 8.61863C69.3462 8.59706 69.2257 8.53909 69.1357 8.4534C69.0505 8.3707 68.991 8.25731 68.9581 8.11713C68.9087 7.90686 68.9454 7.71333 69.0721 7.53563C69.2098 7.33479 69.429 7.20109 69.7288 7.13062ZM69.8139 7.49276C69.6504 7.53119 69.5281 7.60514 69.4518 7.71758C69.3844 7.81559 69.3635 7.91911 69.3901 8.03204C69.4203 8.16053 69.4791 8.25354 69.5666 8.31105C69.6733 8.38048 69.8206 8.39517 70.0153 8.34941C70.2061 8.30457 70.3353 8.2249 70.3999 8.1152C70.4526 8.02475 70.4638 7.91527 70.4336 7.78677C70.4071 7.67385 70.3423 7.59046 70.2383 7.53272C70.116 7.46695 69.9775 7.45432 69.8139 7.49276ZM70.0949 8.68818C69.9002 8.73394 69.7632 8.81544 69.6839 8.93269C69.6037 9.04605 69.5854 9.17774 69.6202 9.32571C69.6531 9.46589 69.7303 9.56691 69.8555 9.62787C69.9769 9.68974 70.131 9.69871 70.3218 9.65387C70.5088 9.60994 70.6457 9.52844 70.7346 9.41715C70.8119 9.3086 70.8368 9.18768 70.8039 9.0475C70.7691 8.89953 70.6901 8.79071 70.5765 8.72701C70.4485 8.65438 70.2896 8.64242 70.0949 8.68818Z" fill="white"/>
<path d="M72.0887 8.30433L74.0502 7.8218L74.14 8.18691L72.1785 8.66944L72.0887 8.30433Z" fill="white"/>
<path d="M75.6924 5.66656C75.9599 5.59857 76.2006 5.61995 76.4145 5.73068C76.6245 5.84239 76.76 6.01843 76.8231 6.26654C76.8842 6.5069 76.8463 6.74765 76.7182 6.99068C76.6392 7.13458 76.4828 7.33116 76.2578 7.58234C76.0221 7.84035 75.8929 8.04652 75.8663 8.20185L77.2309 7.85502L77.3324 8.25433L75.4018 8.74501C75.3299 8.46201 75.3569 8.19511 75.4898 7.93847C75.5611 7.79655 75.7309 7.57178 75.9965 7.26903C76.1433 7.09965 76.2408 6.96345 76.2976 6.86233C76.3833 6.6961 76.4079 6.53302 76.3685 6.37795C76.3301 6.22675 76.2589 6.12517 76.1626 6.07121C76.0625 6.01825 75.9334 6.0139 75.7745 6.0543C75.6039 6.09765 75.4907 6.18832 75.435 6.3263C75.3773 6.45652 75.3732 6.63505 75.4206 6.85412L74.967 6.9694C74.8921 6.65827 74.9182 6.3875 75.0482 6.15221C75.1792 5.90431 75.3939 5.74243 75.6924 5.66656Z" fill="white"/>
<path d="M78.3781 4.97609C78.6995 4.89261 78.9853 4.95886 79.2377 5.18259C79.4744 5.39385 79.6491 5.71629 79.7617 6.14989C79.8744 6.5835 79.8787 6.95019 79.7748 7.24996C79.6622 7.56437 79.4458 7.76525 79.1244 7.84873C78.7992 7.93322 78.5124 7.86309 78.2649 7.64223C78.0282 7.43097 77.8535 7.10854 77.7408 6.67493C77.6282 6.24132 77.6238 5.87463 77.7278 5.57486C77.8355 5.25759 78.0529 5.06058 78.3781 4.97609ZM78.4777 5.35937C78.257 5.4167 78.1333 5.57695 78.1087 5.84786C78.09 6.03042 78.1183 6.26689 78.1938 6.55725C78.2682 6.84374 78.3585 7.06411 78.4647 7.21836C78.6171 7.43913 78.8042 7.52278 79.0249 7.46545C79.2417 7.40913 79.3643 7.24501 79.3939 6.97696C79.4116 6.79053 79.3832 6.55406 79.3088 6.26757C79.2333 5.97721 79.143 5.75684 79.0378 5.60646C78.8805 5.38283 78.6945 5.30304 78.4777 5.35937Z" fill="white"/>
<path d="M81.3321 4.20279C81.599 4.13244 81.8398 4.1517 82.0547 4.26054C82.2656 4.3704 82.4027 4.54523 82.468 4.79278C82.5312 5.03259 82.4954 5.27366 82.3695 5.51782C82.2918 5.6624 82.1371 5.86035 81.9143 6.11351C81.6809 6.37358 81.5535 6.58089 81.5283 6.73645L82.8898 6.3776L82.9948 6.776L81.0686 7.28368C80.9942 7.00132 81.0189 6.7342 81.1495 6.4764C81.2195 6.33385 81.3874 6.1076 81.6503 5.80251C81.7956 5.63185 81.8919 5.49479 81.9478 5.39317C82.032 5.22619 82.0552 5.0629 82.0144 4.90819C81.9746 4.75734 81.9025 4.65638 81.8058 4.60328C81.7052 4.5512 81.5761 4.54799 81.4175 4.58979C81.2474 4.63464 81.135 4.7263 81.0805 4.86477C81.0239 4.9955 81.0214 5.17405 81.0707 5.39269L80.6182 5.51197C80.5405 5.20152 80.5642 4.93052 80.6922 4.6941C80.821 4.44505 81.0343 4.28128 81.3321 4.20279Z" fill="white"/>
<path d="M84.2545 3.42991C84.5213 3.35923 84.7622 3.37818 84.9772 3.48676C85.1883 3.59635 85.3256 3.77102 85.3912 4.01848C85.4547 4.25821 85.4192 4.49933 85.2936 4.74364C85.2161 4.88832 85.0617 5.08647 84.8391 5.3399C84.606 5.60027 84.4789 5.80774 84.4539 5.96332L85.815 5.60278L85.9205 6.00104L83.9949 6.51113C83.9201 6.22887 83.9445 5.96171 84.0748 5.70375C84.1446 5.56112 84.3122 5.33465 84.5748 5.02924C84.7198 4.85839 84.8159 4.72121 84.8717 4.61953C84.9558 4.45244 84.9787 4.28912 84.9377 4.13446C84.8978 3.98366 84.8256 3.88279 84.7288 3.82981C84.6281 3.77786 84.499 3.77481 84.3405 3.8168C84.1704 3.86187 84.0581 3.95367 84.0038 4.09221C83.9474 4.22301 83.945 4.40156 83.9947 4.62014L83.5423 4.73998C83.4642 4.42963 83.4876 4.15861 83.6152 3.92202C83.7437 3.67282 83.9568 3.50878 84.2545 3.42991Z" fill="white"/>
<path d="M86.0772 2.53788L86.4447 2.44115C86.6926 2.64472 86.905 2.87008 87.0789 3.12212C87.2805 3.4165 87.431 3.73674 87.5247 4.09262C87.6163 4.44076 87.644 4.79746 87.6135 5.15293C87.5842 5.45018 87.5103 5.7509 87.3957 6.05406L87.0282 6.1508C87.1156 5.83827 87.1691 5.53878 87.1888 5.25232C87.2124 4.88626 87.1818 4.53445 87.0943 4.20178C87.0057 3.86525 86.8591 3.54399 86.6593 3.24085C86.5001 2.99736 86.306 2.76304 86.0772 2.53788Z" fill="white"/>
<path d="M88.1384 1.99285L89.4008 3.59952L89.0581 5.61387L88.6863 5.54736L89.0014 3.70095L87.8434 2.22874L88.1384 1.99285ZM88.8129 1.82151L90.0753 3.42818L89.7327 5.44253L89.3609 5.37601L89.676 3.5296L88.5024 2.06133L88.8129 1.82151Z" fill="white"/>
<g clip-path="url(#clip0_255_4935)">
<path d="M4.38013 6.19813C4.38013 5.09356 3.4847 4.19813 2.38013 4.19813C1.27556 4.19813 0.380127 5.09356 0.380127 6.19813C0.380127 7.3027 1.27556 8.19813 2.38013 8.19813C3.4847 8.19813 4.38013 7.3027 4.38013 6.19813Z" fill="white"/>
<path d="M3.07276 6.19808C3.07276 6.58935 2.7556 6.90653 2.36433 6.90653C1.97306 6.90653 1.65588 6.58935 1.65588 6.19808C1.65588 5.80682 1.97306 5.48964 2.36433 5.48964C2.7556 5.48964 3.07276 5.80682 3.07276 6.19808Z" fill="#485CC2"/>
<path fill-rule="evenodd" clip-rule="evenodd" d="M1.74507 5.85369C1.71006 5.98341 1.70109 6.25003 1.93481 6.33205C2.17272 6.41553 2.3261 6.27293 2.37305 6.1912C2.42697 6.11815 2.58175 5.98876 2.76957 6.05555C2.9574 6.12233 3.00435 6.2677 3.00435 6.33205V6.50218C3.04822 6.41003 3.07275 6.30693 3.07275 6.19808C3.07275 5.80682 2.75559 5.48964 2.36432 5.48964C2.09805 5.48964 1.8661 5.63653 1.74507 5.85369Z" fill="#D74B4B"/>
<path fill-rule="evenodd" clip-rule="evenodd" d="M0.880127 5.64197L1.2909 5.05534L1.38214 5.11924L0.97137 5.70586L0.880127 5.64197ZM1.03989 5.73737L1.45066 5.15075L1.5419 5.21464L1.13113 5.80127L1.03989 5.73737ZM1.59625 5.24361L1.18548 5.83023L1.27672 5.89412L1.68749 5.3075L1.59625 5.24361Z" fill="#333333"/>
<path fill-rule="evenodd" clip-rule="evenodd" d="M3.88012 5.64197L3.70215 5.38782L3.61022 5.45072L3.78889 5.70587L3.88012 5.64197ZM3.46935 5.05535L3.63827 5.29657L3.54632 5.35947L3.37812 5.11924L3.46935 5.05535ZM3.72037 5.73738L3.3096 5.15076L3.21835 5.21465L3.62912 5.80127L3.72037 5.73738ZM3.31464 5.65294L3.48354 5.89413L3.57477 5.83024L3.40659 5.59004L3.31464 5.65294ZM3.34269 5.49879L3.25075 5.56169L3.07275 5.3075L3.164 5.24361L3.34269 5.49879Z" fill="#333333"/>
<path fill-rule="evenodd" clip-rule="evenodd" d="M3.70215 7.00849L3.88012 6.75434L3.78889 6.69044L3.61022 6.94559L3.70215 7.00849ZM3.63827 7.09974L3.46935 7.34096L3.37812 7.27707L3.54632 7.03684L3.63827 7.09974ZM3.31464 6.74337L3.48354 6.50217L3.57477 6.56607L3.40659 6.80627L3.31464 6.74337ZM3.34269 6.89752L3.25075 6.83462L3.07275 7.08881L3.164 7.15269L3.34269 6.89752ZM3.72037 6.65892L3.54897 6.90369L3.45704 6.84079L3.62912 6.59504L3.72037 6.65892ZM3.3096 7.24556L3.48509 6.99494L3.39314 6.93204L3.21835 7.18166L3.3096 7.24556Z" fill="#333333"/>
<path fill-rule="evenodd" clip-rule="evenodd" d="M0.880127 6.75434L1.2909 7.34096L1.38214 7.27707L0.97137 6.69044L0.880127 6.75434ZM1.18548 6.56607L1.59625 7.15269L1.68749 7.08881L1.27672 6.50217L1.18548 6.56607ZM1.03989 6.65892L1.21128 6.90369L1.30321 6.84079L1.13113 6.59504L1.03989 6.65892ZM1.45066 7.24556L1.27517 6.99494L1.36711 6.93204L1.5419 7.18166L1.45066 7.24556Z" fill="#333333"/>
</g>
<defs>
<clipPath id="clip0_255_4935">
<rect width="4" height="4" fill="white" transform="translate(0.380127 4.19813)"/>
</clipPath>
</defs>
</svg>
