<svg width="80" height="27" viewBox="0 0 80 27" fill="none" xmlns="http://www.w3.org/2000/svg">
<path d="M6.19371 15.212L6.54239 15.3919L5.65286 17.0477L6.29584 18.807L5.94212 18.9395L5.24179 17.02L6.19371 15.212ZM6.88813 15.2589L7.22085 15.4377L6.34728 17.0946L6.99026 18.8539L6.63654 18.9864L5.93621 17.0669L6.88813 15.2589Z" fill="white"/>
<path d="M9.87867 15.512L10.2973 15.546L10.2655 15.9367L10.9553 15.9928L10.9245 16.3715L10.2348 16.3155L10.2066 16.6624L11.0717 16.7326L11.04 17.1233L8.8871 16.9484L8.91884 16.5577L9.78797 16.6283L9.81615 16.2815L9.16629 16.2287L9.19706 15.8499L9.84692 15.9027L9.87867 15.512ZM8.9463 17.3064L10.1503 17.4042L10.1678 17.1889L10.5745 17.222L10.557 17.4373L10.9716 17.471L10.9399 17.8617L10.5253 17.828L10.444 18.8287C10.4213 19.1078 10.2784 19.2366 10.0232 19.2159L9.51689 19.1748L9.46491 18.7772C9.6191 18.8058 9.76963 18.8301 9.91316 18.8417C9.99289 18.8482 10.037 18.7996 10.0454 18.696L10.1186 17.7949L8.91456 17.6971L8.9463 17.3064ZM9.26162 17.8216C9.4425 18.0651 9.57813 18.2727 9.67616 18.4493L9.32646 18.6536C9.23005 18.4572 9.0954 18.2375 8.92216 17.9987L9.26162 17.8216ZM7.85983 16.552C7.81239 16.7407 7.75363 16.9206 7.68723 17.0958L7.33284 16.9626C7.48646 16.5537 7.59019 16.1167 7.64371 15.6555L8.0162 15.7139C7.99592 15.8647 7.97564 16.0156 7.94803 16.1578L8.14738 16.174L8.21118 15.3886L8.61386 15.4213L8.55005 16.2067L8.84906 16.231L8.81667 16.6297L8.51766 16.6054L8.45159 17.4187C8.56678 17.3839 8.674 17.3485 8.78155 17.3091L8.7498 17.6998C8.6386 17.7349 8.52739 17.77 8.42049 17.8015L8.31458 19.1052L7.9119 19.0725L8.00616 17.9123C7.79333 17.9632 7.58083 18.0102 7.365 18.0488L7.29804 17.638C7.54879 17.6143 7.79253 17.5779 8.03758 17.5256L8.11499 16.5727L7.85983 16.552Z" fill="white"/>
<path d="M11.8595 15.7185C12.0799 15.9508 12.2644 16.18 12.409 16.4056L12.1011 16.6635C11.9753 16.4516 11.7955 16.2148 11.5613 15.9571L11.8595 15.7185ZM13.8606 19.5138C13.6335 19.4937 13.3868 19.4678 13.1202 19.4402C12.8496 19.4122 12.6286 19.3685 12.4568 19.3132C12.2937 19.2505 12.1583 19.1462 12.0508 19.0002C12.001 18.9275 11.9521 18.891 11.9042 18.8868C11.8405 18.8811 11.7014 19.0455 11.4944 19.3886L11.2279 19.0879C11.4267 18.7923 11.5997 18.6068 11.7473 18.5275L11.8454 17.4199L11.3991 17.3804L11.433 16.9979L12.2697 17.0719L12.136 18.582L12.1796 18.6341C12.27 18.7465 12.3626 18.835 12.4536 18.8953C12.5679 18.9656 12.7483 19.0137 12.9907 19.0432C13.2294 19.0684 13.5119 19.0974 13.8347 19.126C14.0339 19.1436 14.2335 19.1573 14.4407 19.1756C14.6446 19.1856 14.8007 19.1914 14.9089 19.193L14.773 19.5945L13.8606 19.5138ZM12.6801 16.02L13.0427 16.0521C13.075 15.9586 13.1034 15.8648 13.1239 15.7702L13.5293 15.8623C13.5023 15.9402 13.4714 16.0178 13.4371 16.0871L13.8674 16.1252L13.7916 16.9818C13.9698 16.6924 14.1109 16.3234 14.2109 15.8745L14.5831 15.9797C14.5357 16.1522 14.485 16.3164 14.4317 16.4643L15.1171 16.5249L15.0828 16.9114L14.9274 16.8977C14.8741 17.3186 14.7772 17.6875 14.6447 18.005C14.7491 18.2311 14.8475 18.4808 14.9438 18.7543L14.6488 19.0013C14.5835 18.7867 14.5131 18.5837 14.4414 18.3966C14.2739 18.6549 14.0749 18.8621 13.8435 19.0264L13.6663 18.6693C13.9096 18.5062 14.1065 18.2786 14.2575 17.9788C14.1618 17.7896 14.0607 17.616 13.9546 17.454L14.1833 17.2293C14.2625 17.3327 14.3406 17.448 14.4177 17.5753C14.4849 17.3604 14.534 17.1238 14.5688 16.8659L14.266 16.8391C14.1453 17.0693 14.0117 17.2623 13.8614 17.4177L13.7658 17.2727L13.7641 17.2926L13.3059 17.252L13.3555 17.417L13.8735 17.4629L13.8428 17.8096L13.0977 17.7436L13.0608 17.8889L13.7301 17.9482C13.6878 18.4263 13.6302 18.7143 13.5573 18.8123C13.4843 18.9102 13.3682 18.9521 13.2084 18.942L12.9853 18.9223L12.9117 18.5744L13.1428 18.5949C13.2069 18.5965 13.2529 18.5765 13.2763 18.5384C13.2961 18.496 13.3133 18.3931 13.3314 18.2341L12.9648 18.2016C12.9439 18.256 12.9198 18.3021 12.8999 18.3445C12.8037 18.5247 12.6693 18.6815 12.5005 18.8191L12.2923 18.4955C12.4217 18.3945 12.5206 18.2748 12.5927 18.1406C12.6511 18.0253 12.6997 17.885 12.7391 17.7118L12.4164 17.6833L12.4471 17.3366L12.965 17.3825L12.9154 17.2175L12.5767 17.1875L12.6801 16.02ZM13.4418 16.987L13.4573 16.8117L12.9632 16.7679L12.9477 16.9432L13.4418 16.987ZM12.9872 16.497L13.4813 16.5407L13.4965 16.3694L13.0024 16.3257L12.9872 16.497Z" fill="white"/>
<path d="M16.2015 16.1257C16.4395 16.3396 16.6377 16.5499 16.796 16.7567L16.4877 17.0185C16.3486 16.8214 16.1511 16.6031 15.8946 16.3715L16.2015 16.1257ZM15.5712 17.2102L16.4915 17.2919L16.3448 18.9454C16.4695 18.8521 16.6029 18.7515 16.7454 18.6396L16.822 19.0881C16.5378 19.3039 16.2402 19.4903 15.9284 19.6554L15.8022 19.2667C15.8753 19.2129 15.9178 19.1404 15.9256 19.0528L16.0498 17.6543L15.5358 17.6086L15.5712 17.2102ZM16.9551 17.8149L18.8995 17.9875L18.8659 18.366C18.7239 18.6988 18.5141 18.9813 18.2368 19.2097C18.4697 19.391 18.7561 19.557 19.0998 19.712L18.8448 20.0508C18.4685 19.8567 18.1534 19.6521 17.9077 19.4335C17.5775 19.625 17.1834 19.7668 16.7175 19.8579L16.5176 19.4868C16.9386 19.4037 17.2986 19.2831 17.6018 19.1252C17.3694 18.8476 17.2149 18.5528 17.1468 18.2335L16.9197 18.2134L16.9551 17.8149ZM17.5373 18.2682C17.6048 18.5031 17.7299 18.723 17.9208 18.9247C18.1402 18.7594 18.3137 18.57 18.4457 18.3488L17.5373 18.2682ZM17.3629 16.297L18.7973 16.4244L18.7241 17.2491C18.7163 17.3368 18.7598 17.3888 18.8595 17.3977L19.2021 17.4281L19.1685 17.8066L18.7143 17.7663C18.4155 17.7398 18.2804 17.5872 18.3052 17.3083L18.3522 16.7784L17.7386 16.7239L17.7291 16.8315C17.6923 17.2459 17.4485 17.5495 17.0064 17.7351L16.7557 17.3916C17.1028 17.2819 17.2918 17.0979 17.3148 16.8389L17.3629 16.297Z" fill="white"/>
<path d="M20.7358 17.6255L21.7644 17.7096L21.8589 16.5534L22.2895 16.5887L22.1949 17.7448L23.1717 17.8247L23.1378 18.2393L22.161 18.1594L21.9863 20.2963L21.5557 20.2611L21.7305 18.1242L20.7019 18.0401L20.7358 17.6255ZM20.1261 16.4438C20.3613 16.6597 20.5606 16.8727 20.7243 17.0787L20.4135 17.3462C20.277 17.1505 20.0737 16.9372 19.8076 16.7067L20.1261 16.4438ZM19.4777 17.5506L20.4266 17.6283L20.2903 19.2947C20.414 19.2045 20.5467 19.103 20.6884 18.9901L20.7612 19.4255C20.4825 19.6435 20.1898 19.8363 19.8791 20.0035L19.7503 19.6157C19.8269 19.5618 19.8687 19.493 19.8755 19.4093L19.9913 17.994L19.4451 17.9493L19.4777 17.5506Z" fill="white"/>
<path d="M23.6774 17.2547L24.0765 17.2814L23.9335 19.4127L23.5343 19.3859L23.6774 17.2547ZM24.3801 16.7606L24.7792 16.7874L24.6495 18.719C24.5834 19.5244 24.2966 20.0945 23.7848 20.433L23.496 20.137C23.9479 19.8546 24.1966 19.3742 24.2504 18.6923L24.3801 16.7606ZM24.9627 16.92L27.2216 17.0716L27.1954 17.4627L26.2694 17.4006L26.2416 17.8156L27.0797 17.8719L26.9492 19.8155C26.9316 20.0789 26.8027 20.2066 26.5712 20.1911L26.2919 20.1723L26.2109 19.766L26.465 19.8031C26.5209 19.8068 26.5515 19.7688 26.5563 19.6969L26.6543 18.2362L26.2153 18.2068L26.0562 20.5774L25.6571 20.5506L25.8162 18.18L25.3732 18.1502L25.2414 20.1138L24.8423 20.087L25.0004 17.7323L25.8425 17.7889L25.8703 17.3738L24.9364 17.3111L24.9627 16.92Z" fill="white"/>
<path d="M27.7735 19.6608C27.9438 19.7887 28.0973 19.9358 28.2421 20.0985C28.364 20.2361 28.4814 20.3856 28.5862 20.5465L28.296 20.7656C28.195 20.6089 28.0856 20.4598 27.9639 20.3181C27.8269 20.1597 27.6814 20.013 27.5196 19.8735L27.7735 19.6608Z" fill="white"/>
<path d="M33.3684 19.0262L33.3628 19.4262L33.9467 19.4345L33.9524 19.0345L33.3684 19.0262ZM33.3572 19.8141L33.3508 20.2701L33.9347 20.2784L33.9412 19.8224L33.3572 19.8141ZM33.3451 20.67L33.3425 20.85L32.9305 20.8442L32.9614 18.6724C32.88 18.7752 32.7985 18.8781 32.7171 18.9769L32.6559 18.7761L32.65 19.192C32.5413 19.2385 32.4327 19.2849 32.3241 19.3274L32.309 20.3873C32.3051 20.6593 32.1591 20.7972 31.8792 20.7932L31.5192 20.7881L31.433 20.3828C31.5407 20.4004 31.6445 20.4138 31.7405 20.4152C31.8365 20.4166 31.8892 20.3693 31.8906 20.2733L31.9019 19.4774C31.7572 19.5234 31.6085 19.5692 31.46 19.6071L31.362 19.1817C31.5465 19.1483 31.7271 19.1069 31.9079 19.0534L31.9194 18.2455L31.4514 18.2389L31.4572 17.8349L31.9251 17.8416L31.935 17.1496L32.3549 17.1556L32.3451 17.8475L32.7011 17.8526L32.6953 18.2566L32.3393 18.2515L32.33 18.9074C32.4427 18.861 32.5474 18.8145 32.6521 18.764L32.5833 18.539C32.9012 18.1275 33.1237 17.6706 33.2588 17.1725L33.6656 17.2583C33.6069 17.4494 33.5403 17.6325 33.4617 17.8114L34.0217 17.8194C33.9643 17.6345 33.8989 17.4496 33.8214 17.2725L34.2269 17.1702C34.3075 17.4074 34.3725 17.6243 34.4176 17.825L35.0136 17.8335L35.0079 18.2334L34.3759 18.2245L34.3699 18.6484L34.9219 18.6563L34.9163 19.0482L34.3643 19.0404L34.3587 19.4403L34.9106 19.4482L34.9051 19.8361L34.3531 19.8283L34.3467 20.2842L35.0226 20.2939L35.0169 20.6938L33.3451 20.67ZM33.964 18.2186L33.38 18.2103L33.374 18.6343L33.958 18.6426L33.964 18.2186Z" fill="white"/>
<path d="M35.3059 17.4371L36.1736 17.4159L36.1677 17.1759L36.5916 17.1656L36.5975 17.4055L37.5252 17.3828L37.5193 17.1429L37.9432 17.1325L37.9491 17.3725L38.8168 17.3513L38.8261 17.7311L37.9584 17.7524L37.9644 18.0003L37.5406 18.0106L37.5345 17.7627L36.6068 17.7854L36.6117 17.9853L37.0174 18.0514C36.995 18.116 36.9725 18.1806 36.95 18.2411L38.8175 18.1955L38.8267 18.5754L36.7714 18.6256C36.6563 18.8285 36.525 19.0238 36.3694 19.2036L36.4103 20.8791L36.0064 20.889L35.9751 19.6054C35.8379 19.7248 35.6927 19.8404 35.5433 19.948L35.275 19.6105C35.7 19.32 36.0362 18.9957 36.2835 18.6376L35.4038 18.6591L35.3945 18.2792L36.5021 18.2521C36.5363 18.1752 36.5665 18.1025 36.5967 18.0297L36.1889 18.0397L36.1829 17.7958L35.3152 17.817L35.3059 17.4371ZM37.6232 19.429C37.7098 19.3669 37.8358 19.2838 38.0013 19.1797L36.8496 19.2079L36.8404 18.832L38.5959 18.7891L38.6031 19.085C38.4422 19.213 38.2577 19.3575 38.0457 19.5228L38.0472 19.5867L38.867 19.5667L38.8766 19.9586L38.0568 19.9786L38.0685 20.4585C38.0746 20.7064 37.9537 20.8334 37.7097 20.8394L37.2179 20.8514L37.0881 20.4504C37.2764 20.4618 37.4246 20.4702 37.5366 20.4675C37.6086 20.4657 37.6476 20.4248 37.6458 20.3528L37.6369 19.9889L36.5932 20.0144L36.5837 19.6225L37.6274 19.597L37.6232 19.429Z" fill="white"/>
<path d="M39.809 17.1069C40.0778 17.2805 40.3068 17.4569 40.4958 17.6361L40.2327 17.9433C40.0642 17.7707 39.8347 17.5863 39.5448 17.3982L39.809 17.1069ZM39.358 18.2774L40.2797 18.2126L40.3961 19.8686C40.5046 19.7567 40.6204 19.6363 40.7434 19.5033L40.8899 19.9341C40.6434 20.192 40.379 20.4231 40.0972 20.6354L39.9112 20.2716C39.9748 20.2069 40.0054 20.1286 39.9992 20.0408L39.9008 18.6403L39.386 18.6765L39.358 18.2774ZM40.8201 18.6558L42.7673 18.5189L42.794 18.898C42.7064 19.249 42.5439 19.5612 42.3062 19.8305C42.5648 19.9727 42.8739 20.0913 43.2377 20.1901L43.0395 20.5649C42.6372 20.4328 42.2937 20.2805 42.0166 20.1035C41.7208 20.3448 41.3541 20.5471 40.9085 20.7107L40.6523 20.3758C41.0549 20.2272 41.3914 20.0512 41.6658 19.8475C41.3925 19.6101 41.1933 19.3434 41.0756 19.0389L40.8482 19.0549L40.8201 18.6558ZM41.4667 19.0114C41.5704 19.2326 41.7287 19.43 41.9491 19.599C42.1396 19.4011 42.281 19.1867 42.3764 18.9474L41.4667 19.0114ZM40.9829 17.0926L42.4194 16.9916L42.4774 17.8176C42.4836 17.9053 42.5348 17.9498 42.6346 17.9428L42.9777 17.9187L43.0044 18.2978L42.5495 18.3298C42.2503 18.3508 42.0928 18.2215 42.0732 17.9422L42.0359 17.4115L41.4214 17.4547L41.4289 17.5625C41.4581 17.9774 41.2654 18.3158 40.8581 18.569L40.5564 18.2694C40.8817 18.1062 41.0393 17.8946 41.021 17.6352L40.9829 17.0926Z" fill="white"/>
<path d="M44.5592 17.8168L45.5843 17.6981L45.4508 16.5458L45.88 16.4961L46.0134 17.6484L46.9869 17.5356L47.0348 17.9488L46.0613 18.0616L46.308 20.1914L45.8789 20.2411L45.6322 18.1113L44.607 18.2301L44.5592 17.8168ZM43.73 16.7773C44.0029 16.943 44.24 17.1129 44.4409 17.2829L44.1885 17.6061C44.0163 17.4408 43.7752 17.2714 43.4692 17.0975L43.73 16.7773ZM43.3108 17.9896L44.2564 17.8801L44.4488 19.541C44.5526 19.4283 44.6628 19.3028 44.7797 19.1644L44.9362 19.5771C44.7056 19.8455 44.4563 20.0918 44.1843 20.3166L43.9821 19.9615C44.0467 19.8936 44.0742 19.8179 44.0646 19.7345L43.9012 18.3239L43.3568 18.387L43.3108 17.9896Z" fill="white"/>
<path d="M47.1219 16.9048L47.5164 16.8389L47.8683 18.9457L47.4738 19.0116L47.1219 16.9048ZM47.6918 16.2621L48.0864 16.1962L48.4053 18.1058C48.5265 18.9047 48.3788 19.5255 47.9587 19.9728L47.6095 19.7513C47.9842 19.3724 48.1155 18.8476 48.0107 18.1717L47.6918 16.2621ZM48.2955 16.283L50.5286 15.91L50.5932 16.2967L49.6778 16.4495L49.7464 16.8599L50.5749 16.7215L50.8958 18.6429C50.9393 18.9033 50.8433 19.0572 50.6145 19.0954L50.3383 19.1415L50.1659 18.7648L50.4217 18.7423C50.4769 18.7331 50.4979 18.689 50.4861 18.618L50.2449 17.174L49.8109 17.2465L50.2023 19.59L49.8078 19.6559L49.4164 17.3124L48.9785 17.3855L49.3026 19.3266L48.9081 19.3925L48.5194 17.0648L49.3518 16.9257L49.2833 16.5154L48.3601 16.6696L48.2955 16.283Z" fill="white"/>
<path d="M51.4452 16.4698C51.4142 16.6243 51.3653 16.7541 51.3043 16.8661L50.9201 16.7061C51.0552 16.4668 51.1103 16.1635 51.0816 15.7969L51.4782 15.7738C51.4852 15.8788 51.4867 15.9769 51.4824 16.068L51.7947 15.9982L51.6935 15.5454L52.0995 15.4546L52.2007 15.9074L52.8838 15.7547L52.9676 16.1294L52.2845 16.2822L52.37 16.6647L53.1664 16.4867L53.251 16.8653L52.4547 17.0434L52.521 17.34L53.2705 17.1725L53.5044 18.2187C53.5637 18.4841 53.4538 18.6521 53.1766 18.7141L52.9892 18.756L52.8031 18.4L52.9714 18.3829C53.0729 18.3602 53.1179 18.3051 53.0987 18.2192L52.9678 17.6336L52.6048 17.7148L52.905 19.0576L52.499 19.1484L52.1988 17.8056L51.8397 17.8859L52.0858 18.9867L51.6915 19.0748L51.3616 17.5992L52.115 17.4308L52.0487 17.1341L51.1509 17.3349L51.0662 16.9562L51.964 16.7555L51.8785 16.3729L51.4452 16.4698ZM53.1431 15.5943L53.5373 15.5061L54.0697 17.8873L53.6755 17.9755L53.1431 15.5943ZM54.6265 18.6359L54.0448 18.7659L53.8686 18.3995C54.0595 18.3733 54.2369 18.3418 54.4048 18.3043C54.4985 18.2833 54.5339 18.2221 54.5113 18.1206L53.8296 15.0719L54.2356 14.9811L54.9408 18.1352C55.0019 18.4085 54.8958 18.5757 54.6265 18.6359Z" fill="white"/>
<path d="M56.1324 16.7303L58.4272 16.0841L58.5107 16.3806C58.3849 16.657 58.2158 16.9124 58.0006 17.1517C58.3489 17.1783 58.7374 17.1561 59.1646 17.094L59.091 17.497C58.559 17.5555 58.0832 17.5482 57.6714 17.473C57.3362 17.7585 56.9265 18.0152 56.4459 18.2419L56.1718 17.9327C56.5686 17.7627 56.9133 17.5701 57.207 17.3586C56.9403 17.2674 56.7028 17.1473 56.4946 16.9982L56.2289 17.073L56.1324 16.7303ZM56.9335 16.8746C57.1139 16.9692 57.3131 17.0419 57.5338 17.0878C57.7048 16.9275 57.8521 16.7572 57.977 16.5807L56.9335 16.8746ZM55.7699 15.9888L55.8208 16.1698C56.044 17.0212 56.1011 17.7406 55.9846 18.3303L55.6035 18.1426C55.6844 17.6627 55.6252 17.0394 55.4204 16.2826L55.068 15.0312L56.5157 14.6235C56.4555 14.5574 56.3926 14.4962 56.3269 14.4399L56.7347 14.2502C56.7971 14.3241 56.8665 14.4084 56.9354 14.5054L58.2214 14.1432L58.3276 14.5205L55.5747 15.2958L55.6658 15.6192L56.2125 15.4652L56.1453 15.2265L56.538 15.1159L56.6052 15.3547L57.46 15.1139L57.3917 14.8714L57.7806 14.7619L57.8489 15.0044L58.4187 14.844L58.5228 15.2136L57.953 15.3741L58.1199 15.967L56.4836 16.4278L56.3166 15.8349L55.7699 15.9888ZM56.7093 15.7243L56.7831 15.9861L57.6378 15.7454L57.5641 15.4836L56.7093 15.7243Z" fill="white"/>
<path d="M58.7487 13.7219C59.0647 13.8364 59.344 13.9672 59.584 14.1069L59.3922 14.4821C59.1813 14.3413 58.9046 14.2054 58.5582 14.0756L58.7487 13.7219ZM62.0433 16.4318C61.8382 16.4997 61.6129 16.5701 61.3724 16.6455C61.1281 16.7221 60.9231 16.7647 60.7511 16.7795C60.5841 16.7842 60.4261 16.7396 60.2732 16.647C60.2025 16.5988 60.1468 16.5835 60.1013 16.5985C60.0291 16.6224 59.9566 16.8361 59.8798 17.2407L59.4969 17.0641C59.5862 16.6974 59.6892 16.4484 59.8135 16.3146L59.469 15.2741L58.9678 15.4401L58.8471 15.0755L59.7167 14.7877L60.1956 16.2345L60.2462 16.2599C60.3624 16.3309 60.4749 16.378 60.5786 16.3984C60.7075 16.4189 60.8809 16.3952 61.1036 16.3299C61.3213 16.2621 61.577 16.1817 61.8656 16.0861C62.0555 16.0233 62.2441 15.9566 62.4416 15.8913C62.6327 15.8195 62.7783 15.7629 62.8821 15.7201L62.9129 16.1439L62.0433 16.4318ZM59.8078 13.5356L61.6002 12.9423L61.7209 13.3068L59.9285 13.9001L59.8078 13.5356ZM59.8476 14.4704L62.1602 13.7049L62.2847 14.0808L61.1227 14.4655C61.0939 14.9385 61.0362 15.3242 60.9495 15.6225C61.3306 15.4374 61.6485 15.2647 61.9056 15.0996C61.7706 14.9462 61.6305 14.803 61.4891 14.6686L61.7767 14.4555C62.0898 14.7395 62.3952 15.0766 62.6954 15.4744L62.3712 15.6786C62.2955 15.5773 62.2261 15.4822 62.1542 15.3923C61.7793 15.6344 61.2766 15.8977 60.6423 16.1835L60.4291 15.8706C60.5659 15.7748 60.6655 15.35 60.7278 14.5962L59.9721 14.8464L59.8476 14.4704Z" fill="white"/>
<path d="M63.5844 12.2512L65.4317 11.5726L65.5737 11.9593L63.7264 12.6379L63.5844 12.2512ZM63.8363 13.2154L65.9352 12.4444L66.0772 12.8311L65.499 13.0435L66.0769 14.6168C66.168 14.8646 66.0746 15.0395 65.7967 15.1416L65.2523 15.3416L65.0252 14.9903C65.2035 14.9419 65.3728 14.8925 65.5305 14.8345C65.6319 14.7973 65.6707 14.7404 65.6431 14.6653L65.101 13.1898L63.9784 13.6022L63.8363 13.2154ZM62.8662 12.3147L63.285 12.3526C63.2363 12.835 63.0312 13.3322 62.6696 13.8443L62.4046 13.4942C62.6652 13.113 62.819 12.7198 62.8662 12.3147ZM63.3599 13.1134L63.7735 13.149C63.7476 13.3801 63.6927 13.6133 63.6087 13.8487L64.2928 15.7111L63.9061 15.8531L63.3641 14.3775C63.275 14.5296 63.1747 14.6857 63.0693 14.8395L62.8071 14.4969C63.12 14.0496 63.3034 13.5859 63.3599 13.1134Z" fill="white"/>
<path d="M67.8625 11.3223L67.92 11.4716C67.9517 11.5537 68.0062 11.5841 68.0809 11.5553L68.9767 11.2101C69.0401 11.1856 69.0814 11.1483 69.1007 11.098C69.1236 11.0463 69.1 10.9182 69.0372 10.7109L69.4401 10.6885C69.5288 11.0187 69.5462 11.2307 69.4908 11.3206C69.4392 11.4091 69.3387 11.4821 69.1857 11.5411L68.1033 11.9582C67.8532 12.0546 67.6782 11.9677 67.5747 11.6989L67.1849 10.6875L67.5618 10.5422L67.7316 10.9826C68.1225 10.729 68.4805 10.4454 68.8082 10.139L69.1427 10.3616C68.7041 10.7364 68.2796 11.0586 67.8625 11.3223ZM67.5837 14.4476L67.1955 14.5972L66.9673 14.2607C67.0925 14.2296 67.2111 14.1925 67.3156 14.1522C67.4014 14.1192 67.4289 14.0571 67.3944 13.9675L67.1039 13.2136C66.977 13.3182 66.8487 13.4191 66.719 13.5162L66.4709 13.1617C66.6356 13.0554 66.7975 12.9415 66.9528 12.8217L66.6651 12.0752L66.2061 12.2521L66.0636 11.8826L66.5227 11.7057L66.2681 11.0451L66.6451 10.8998L66.8997 11.5604L67.2729 11.4166L67.4154 11.7861L67.0421 11.9299L67.2795 12.5458C67.3974 12.4403 67.5088 12.3288 67.6149 12.215L67.7674 12.6106C67.6561 12.7221 67.5433 12.8299 67.4291 12.9339L67.8102 13.923C67.908 14.1768 67.8301 14.3526 67.5837 14.4476ZM69.6372 11.6114L70.3377 13.4291L69.9458 13.5801L69.8854 13.4234L68.8664 13.8161L68.9268 13.9728L68.5424 14.121L67.8419 12.3033L69.6372 11.6114ZM68.7341 13.4727L69.753 13.08L69.6293 12.759L68.6104 13.1517L68.7341 13.4727ZM68.478 12.8083L69.497 12.4156L69.3762 12.1021L68.3572 12.4948L68.478 12.8083Z" fill="white"/>
<path d="M72.1457 8.75185L72.5375 8.60062L73.874 12.0637L73.4822 12.2149L72.1457 8.75185ZM70.566 10.8579L70.6536 11.4071L72.0866 10.8541C72.3315 11.4885 72.4644 11.9217 72.4957 12.1583C72.5269 12.3949 72.329 12.6042 71.9048 12.7937C71.7854 12.8397 71.6631 12.8784 71.5408 12.917L71.3041 12.5925C71.4278 12.5576 71.5501 12.5189 71.6732 12.4714C71.9382 12.3692 72.0681 12.2504 72.0645 12.1189C72.0549 11.994 71.9785 11.7405 71.8316 11.3598L70.3762 11.9215L70.1082 10.6272L71.3323 10.1548L71.1479 9.67716L69.8157 10.1913L69.6803 9.84054L71.3969 9.17803L71.8534 10.361L70.566 10.8579Z" fill="white"/>
<path d="M73.6154 8.16587L75.0437 9.62706L74.9203 11.6666L74.5434 11.6406L74.6577 9.77095L73.3476 8.43219L73.6154 8.16587ZM74.2676 7.92279L75.6959 9.38398L75.5724 11.4235L75.1956 11.3975L75.3098 9.52787L73.9848 8.1947L74.2676 7.92279Z" fill="white"/>
<g clip-path="url(#clip0_255_4926)">
<path d="M4.35074 16.6817C4.42779 15.5798 3.59701 14.6241 2.49513 14.5471C1.39325 14.47 0.437538 15.3008 0.360487 16.4027C0.283436 17.5046 1.11422 18.4603 2.2161 18.5373C3.31798 18.6144 4.27369 17.7836 4.35074 16.6817Z" fill="white"/>
<path d="M3.0465 16.5905C3.01921 16.9808 2.68069 17.2751 2.29038 17.2478C1.90007 17.2205 1.60578 16.8819 1.63308 16.4916C1.66037 16.1013 1.9989 15.807 2.38922 15.8343C2.77953 15.8616 3.0738 16.2001 3.0465 16.5905Z" fill="#485CC2"/>
<path fill-rule="evenodd" clip-rule="evenodd" d="M1.74612 16.1543C1.70214 16.2813 1.6746 16.5466 1.90202 16.6447C2.13354 16.7446 2.29649 16.613 2.34903 16.5348C2.40791 16.4657 2.57134 16.3474 2.75404 16.4271C2.93676 16.5068 2.97346 16.6551 2.96897 16.7193L2.9571 16.889C3.00729 16.8002 3.03895 16.699 3.04655 16.5905C3.07384 16.2001 2.77957 15.8616 2.38926 15.8343C2.12364 15.8157 1.88201 15.9461 1.74612 16.1543Z" fill="#D74B4B"/>
<path fill-rule="evenodd" clip-rule="evenodd" d="M0.898044 15.8827L1.34873 15.3262L1.4353 15.3963L0.984608 15.9528L0.898044 15.8827ZM1.05076 15.9891L1.50145 15.4325L1.58801 15.5026L1.13732 16.0592L1.05076 15.9891ZM1.64021 15.5353L1.18952 16.0919L1.27608 16.162L1.72677 15.6054L1.64021 15.5353Z" fill="#333333"/>
<path fill-rule="evenodd" clip-rule="evenodd" d="M3.8907 16.092L3.7309 15.8261L3.6348 15.8824L3.79523 16.1494L3.8907 16.092ZM3.52185 15.4782L3.67353 15.7306L3.57742 15.7869L3.42639 15.5355L3.52185 15.4782ZM3.72468 16.1761L3.35584 15.5622L3.26035 15.6196L3.6292 16.2334L3.72468 16.1761ZM3.32583 16.0635L3.47749 16.3159L3.57296 16.2585L3.42194 16.0072L3.32583 16.0635ZM3.36456 15.9117L3.26847 15.968L3.10863 15.702L3.20412 15.6447L3.36456 15.9117Z" fill="#333333"/>
<path fill-rule="evenodd" clip-rule="evenodd" d="M3.61794 17.4428L3.8132 17.2017L3.72665 17.1316L3.53062 17.3736L3.61794 17.4428ZM3.54785 17.5294L3.36251 17.7582L3.27596 17.6881L3.46051 17.4602L3.54785 17.5294ZM3.24986 17.1513L3.43517 16.9225L3.52173 16.9926L3.3372 17.2205L3.24986 17.1513ZM3.26709 17.307L3.17977 17.2379L2.98447 17.479L3.07104 17.5491L3.26709 17.307ZM3.6605 17.0954L3.47244 17.3276L3.38512 17.2584L3.57392 17.0253L3.6605 17.0954ZM3.20981 17.6519L3.40235 17.4141L3.31501 17.345L3.12324 17.5818L3.20981 17.6519Z" fill="#333333"/>
<path fill-rule="evenodd" clip-rule="evenodd" d="M0.820422 16.9924L1.18927 17.6063L1.28475 17.5489L0.915901 16.935L0.820422 16.9924ZM1.13816 16.8259L1.50701 17.4397L1.60249 17.3824L1.23364 16.7685L1.13816 16.8259ZM0.986449 16.9084L1.14035 17.1645L1.23645 17.1082L1.08193 16.851L0.986449 16.9084ZM1.3553 17.5222L1.19772 17.26L1.29382 17.2036L1.45078 17.4649L1.3553 17.5222Z" fill="#333333"/>
</g>
<defs>
<clipPath id="clip0_255_4926">
<rect width="4" height="4" fill="white" transform="translate(0.5 14.4075) rotate(4)"/>
</clipPath>
</defs>
</svg>
