<svg width="51" height="15" viewBox="0 0 51 15" fill="none" xmlns="http://www.w3.org/2000/svg">
<path d="M4.64535 8.28375L5.03129 8.21317L5.3386 10.0675L6.92241 11.0676L6.72329 11.3886L4.99621 10.2967L4.64535 8.28375ZM5.22376 7.89664L5.59641 7.83496L5.91701 9.68042L7.50082 10.6805L7.3017 11.0015L5.57462 9.90958L5.22376 7.89664Z" fill="white"/>
<path d="M6.98891 6.88278L7.40517 6.8292C7.57485 7.69049 7.56741 8.42726 7.3883 9.04098L6.95715 8.95565C7.14817 8.33051 7.15809 7.6384 6.98891 6.88278ZM9.39518 7.94948C9.85064 8.18217 10.2907 8.4605 10.7099 8.78299L10.4569 9.13029C10.3483 9.04495 10.2416 8.96309 10.1369 8.8847C9.59116 9.31634 8.95858 9.76535 8.24662 10.2367L7.98168 9.91816C8.1846 9.7331 8.22876 9.01221 8.11068 7.75747L8.53984 7.67809C8.58846 8.39203 8.58449 9.03007 8.52595 9.58872C8.97346 9.29153 9.40411 8.98095 9.80896 8.65747C9.57627 8.50019 9.35003 8.36227 9.13223 8.24716L9.39518 7.94948ZM8.26845 6.11476C8.81321 6.63273 9.43487 6.95472 10.1334 7.08074L10.0456 7.53173C9.30488 7.38835 8.64204 7.0346 8.05511 6.46702L8.26845 6.11476Z" fill="white"/>
<path d="M10.2535 5.9076L10.8739 5.62907L10.5544 4.9175L10.9375 4.74547L11.257 5.45703L12.1693 5.04742L11.8563 4.35045L12.2395 4.17842L12.5524 4.87538L13.1764 4.59521L13.3403 4.96011L12.7163 5.24029L13.0571 5.99929L13.8635 5.63719L14.0306 6.00939L10.7392 7.48727L10.5721 7.11507L11.3785 6.75297L11.0377 5.99397L10.4174 6.27251L10.2535 5.9076ZM11.7617 6.58093L12.6739 6.17132L12.3331 5.41232L11.4209 5.82193L11.7617 6.58093ZM11.839 7.04608L12.2419 7.17207C12.0934 7.64214 11.854 8.10483 11.5308 8.55688L11.1051 8.33146C11.4377 7.91025 11.683 7.48002 11.839 7.04608ZM13.0063 6.53071C13.5468 6.62126 14.0253 6.73966 14.4364 6.8839L14.2696 7.32276C13.9091 7.16452 13.4367 7.03026 12.8522 6.91998L13.0063 6.53071Z" fill="white"/>
<path d="M14.0656 3.50098C14.3682 3.6051 14.6327 3.7215 14.8592 3.85019L14.6773 4.21148C14.4724 4.08427 14.2054 3.96025 13.8789 3.84704L14.0656 3.50098ZM13.9081 4.74545L14.7875 4.46174L15.2972 6.04156C15.3757 5.90696 15.4593 5.7623 15.5468 5.60376L15.7923 5.98689C15.6148 6.29635 15.4134 6.58409 15.1906 6.8577L14.9229 6.54899C14.9692 6.47101 14.9801 6.38762 14.9531 6.30387L14.522 4.96769L14.0309 5.12613L13.9081 4.74545ZM15.4183 4.76258L17.276 4.16323L17.3927 4.52487C17.3918 4.88664 17.3088 5.22865 17.1425 5.54708C17.4276 5.6232 17.7561 5.66433 18.133 5.67303L18.0304 6.08442C17.6082 6.05251 17.2382 5.98695 16.9268 5.88148C16.6974 6.18665 16.3898 6.47082 15.9963 6.73646L15.6675 6.4727C16.0227 6.23199 16.3072 5.98048 16.5248 5.71694C16.2026 5.55191 15.9453 5.3407 15.7581 5.07325L15.5412 5.14326L15.4183 4.76258ZM16.1312 4.95289C16.285 5.14285 16.4859 5.29659 16.7403 5.40784C16.878 5.17009 16.9638 4.92805 16.9991 4.67286L16.1312 4.95289ZM15.2019 3.20584L16.5723 2.76369L16.8266 3.5517C16.8536 3.63545 16.914 3.66639 17.0092 3.63568L17.3366 3.53006L17.4532 3.89171L17.0193 4.03172C16.7338 4.12383 16.5499 4.03604 16.4639 3.76956L16.3006 3.26326L15.7144 3.4524L15.7475 3.55518C15.8752 3.95109 15.7692 4.32576 15.4344 4.66913L15.0697 4.45056C15.3465 4.21415 15.4488 3.971 15.3689 3.72356L15.2019 3.20584Z" fill="white"/>
<path d="M19.096 3.19578L20.1049 2.97877L19.861 1.84471L20.2833 1.75387L20.5273 2.88793L21.4853 2.68186L21.5728 3.08856L20.6147 3.29463L21.0656 5.3907L20.6432 5.48154L20.1924 3.38547L19.1835 3.60248L19.096 3.19578ZM18.1705 2.24103C18.4581 2.37966 18.7105 2.52586 18.9268 2.67572L18.7067 3.02175C18.5194 2.87383 18.2631 2.72847 17.9417 2.58484L18.1705 2.24103ZM17.87 3.4881L18.8008 3.28792L19.1523 4.92254C19.2447 4.80038 19.3424 4.66481 19.4454 4.51583L19.641 4.91155C19.4372 5.20085 19.2128 5.47006 18.9638 5.72001L18.7283 5.38606C18.7861 5.31226 18.8062 5.2343 18.7885 5.15218L18.4899 3.76393L17.9542 3.87916L17.87 3.4881Z" fill="white"/>
<path d="M22.3261 3.05977C22.2482 3.19587 22.1658 3.32857 22.0795 3.46182L21.8788 3.03753C22.1811 2.54287 22.374 1.9868 22.4641 1.36028L22.8653 1.48591C22.8181 1.78332 22.742 2.07669 22.6439 2.35699L23.0195 5.04284L22.6115 5.09991L22.3261 3.05977ZM23.0341 1.42192L25.1059 1.13214L25.2971 2.49884L24.5206 2.60743L24.5954 3.14223L25.4749 3.01923L25.5281 3.39952L24.6486 3.52253L24.7589 4.31085C24.88 4.31008 25.0237 4.29805 25.1832 4.28381C25.3892 4.255 25.6026 4.22112 25.8154 4.18328L25.795 4.58599L25.4266 4.63752C24.8397 4.71556 24.4353 4.71154 24.2098 4.62999C23.9894 4.5558 23.7969 4.42117 23.6312 4.21817C23.5647 4.52231 23.4689 4.79017 23.3477 5.02118L23.0357 4.72554C23.2475 4.27587 23.3532 3.70371 23.3525 3.00508L23.7541 3.01757C23.7499 3.27664 23.7351 3.51702 23.7106 3.74662C23.7844 3.86959 23.8723 3.97846 23.9784 4.07267C24.0879 4.16237 24.2093 4.22213 24.3359 4.26096L24.1126 2.6645L23.2253 2.78861L23.0341 1.42192ZM24.8438 2.1745L24.759 1.5684L23.4914 1.7457L23.5761 2.3518L24.8438 2.1745Z" fill="white"/>
<path d="M26.3778 0.876839C26.6494 1.07475 26.8811 1.27417 27.0728 1.4751L26.7842 1.78218C26.6248 1.58805 26.3968 1.38048 26.1002 1.15949L26.3778 0.876839ZM28.7879 4.3926C28.572 4.40073 28.336 4.40562 28.0841 4.41111C27.8281 4.41675 27.6193 4.4006 27.45 4.36695C27.2883 4.32501 27.1489 4.23819 27.0279 4.10666C26.9733 4.04066 26.9242 4.01049 26.8762 4.0123C26.8002 4.01516 26.671 4.19616 26.4847 4.56343L26.1662 4.29123C26.354 3.96392 26.5222 3.75344 26.6788 3.65948L26.6375 2.56426L26.1099 2.58414L26.0954 2.20041L27.0108 2.16592L27.0682 3.68884L27.1096 3.72731C27.2015 3.82792 27.2964 3.9044 27.3903 3.9529C27.5085 4.00849 27.6816 4.03399 27.9137 4.03325C28.1417 4.02867 28.4097 4.02258 28.7135 4.01113C28.9133 4.0036 29.113 3.99208 29.3209 3.98424C29.5244 3.96857 29.68 3.9547 29.7876 3.94264L29.7032 4.35812L28.7879 4.3926ZM27.2901 1.39886L27.7138 1.3829L27.6914 0.787324L28.0951 0.772115L28.1175 1.36769L28.6212 1.34872L28.599 0.761135L29.0067 0.745775L29.0289 1.33336L29.4885 1.31604L29.5031 1.70377L29.0435 1.72108L29.0689 2.3966L29.6565 2.37447L29.6713 2.76619L29.0837 2.78833L29.1237 3.85157L28.716 3.86693L28.676 2.80369L28.0764 2.82627C27.9815 3.28217 27.7943 3.62546 27.5108 3.8563L27.2465 3.53402C27.4486 3.3743 27.588 3.14489 27.6647 2.84178L27.205 2.8591L27.1903 2.46738L27.7299 2.44705C27.741 2.31854 27.7441 2.18633 27.7386 2.04243L27.7284 1.77063L27.3047 1.78659L27.2901 1.39886ZM28.1321 1.75542L28.1387 1.93129C28.1454 2.10717 28.1397 2.2755 28.1296 2.43199L28.6612 2.41196L28.6358 1.73644L28.1321 1.75542Z" fill="white"/>
<path d="M32.227 0.940574L32.6493 0.978941L32.5957 1.56851L33.5757 1.65755L33.5391 2.05989L32.5592 1.97085L32.5031 2.58831L33.5866 2.68676L33.5497 3.09309L32.259 2.97582C31.9976 3.46617 31.768 3.82688 31.5782 4.05866C31.9969 4.0485 32.4173 4.01842 32.8352 3.97204C32.7545 3.75585 32.6719 3.55957 32.5842 3.37488L32.9989 3.276C33.1937 3.69535 33.3585 4.13607 33.4925 4.60612L33.0822 4.74557C33.0428 4.60542 33.0026 4.47324 32.9656 4.34939C32.3612 4.41497 31.7115 4.44832 31.0122 4.45306L30.9535 4.08223C30.9945 4.07389 31.0234 4.06448 31.0444 4.05434C31.2255 3.91816 31.484 3.54804 31.8128 2.93528L30.9524 2.8571L30.9893 2.45077L32.0808 2.54994L32.1369 1.93249L31.2366 1.85069L31.2732 1.44834L32.1735 1.53015L32.227 0.940574ZM30.5279 0.810284C30.7647 1.03263 30.9621 1.24737 31.1236 1.45885L30.8017 1.73084C30.6673 1.52986 30.4663 1.31077 30.203 1.06996L30.5279 0.810284ZM30.3436 1.73339C30.5605 1.95393 30.7416 2.17121 30.8908 2.38559L30.5652 2.65323C30.4425 2.45731 30.2618 2.23605 30.0227 1.99343L30.3436 1.73339ZM30.5997 2.89333L30.964 3.08307C30.7474 3.56546 30.5135 4.01815 30.2666 4.43752L29.8649 4.21627C30.1405 3.79146 30.3857 3.34783 30.5997 2.89333Z" fill="white"/>
<path d="M35.6299 4.3638C35.2451 4.63786 34.6902 4.7988 33.9644 4.85055L33.8048 4.4627C34.5729 4.40256 35.1138 4.25122 35.4197 4.0072C35.4391 3.99047 35.4546 3.97301 35.4733 3.96022L33.9909 3.68361L34.0628 3.29826L35.7614 3.61522C35.8984 3.40477 36.0018 3.15552 36.0711 2.87141L36.1621 2.38382L36.5593 2.45793L36.4683 2.94551C36.399 3.22962 36.3073 3.48107 36.194 3.69593L37.4169 3.92411L37.345 4.30946L35.9569 4.05046L35.9098 4.10677C36.4089 4.41963 36.8588 4.75587 37.255 5.11869L36.9602 5.43396C36.5374 5.01735 36.0951 4.66218 35.6299 4.3638ZM34.7795 2.66294C35.0342 2.8244 35.2648 3.00579 35.4635 3.20563L35.1903 3.49237C34.9802 3.26601 34.7589 3.07822 34.5185 2.92756L34.7795 2.66294ZM35.2825 2.19121C35.5301 2.34727 35.7536 2.52326 35.9523 2.7231L35.6791 3.00985C35.473 2.78421 35.2549 2.6011 35.0216 2.45584L35.2825 2.19121ZM37.7325 2.12346L37.5777 2.95314L37.1766 2.8783L37.261 2.42611L34.7366 1.95507L34.6522 2.40726L34.2511 2.33242L34.4059 1.50274L35.8726 1.77642C35.8524 1.66684 35.8299 1.56907 35.8028 1.47449L36.2368 1.48222C36.2602 1.59646 36.2775 1.72176 36.2934 1.85492L37.7325 2.12346Z" fill="white"/>
<path d="M38.3034 2.43935L38.8453 2.58056C38.8257 2.40185 38.7992 2.23375 38.7591 2.07036L39.1915 2.10861C39.213 2.27957 39.2296 2.4699 39.2401 2.68344L39.6891 2.80044L39.5882 3.18752L38.8412 2.99285L38.7312 3.41476L39.4164 3.59329C39.1511 4.6113 38.9683 5.23331 38.8748 5.46523C38.7746 5.69126 38.5614 5.76385 38.2401 5.68013C38.2092 5.67206 38.1609 5.65121 38.0981 5.62245L38.099 5.23826C38.1656 5.26803 38.2217 5.2909 38.272 5.30401C38.4075 5.33932 38.5059 5.29469 38.5614 5.17688C38.613 5.05806 38.7396 4.61982 38.9441 3.86704L38.6305 3.78535C38.3864 4.62699 38.0798 5.21673 37.7146 5.55558L37.4822 5.20983C37.8123 4.89488 38.0848 4.32517 38.3045 3.49784L38.4618 2.89401L38.2025 2.82643L38.3034 2.43935ZM40.1838 3.20216C40.062 3.3523 39.9375 3.48107 39.8122 3.59722L40.1566 3.68699L40.0578 4.06632L40.3413 4.041L40.4977 3.44104L40.8693 3.53786L40.7472 4.00622L41.4202 3.94596C41.2245 4.69689 41.091 5.14573 41.0187 5.29636C40.9386 5.44498 40.7665 5.48693 40.5033 5.41834L40.4994 5.41733L40.4837 5.04947C40.5495 5.06662 40.6065 5.08562 40.6607 5.09974C40.6917 5.10781 40.7211 5.07414 40.747 5.00649C40.7709 4.94657 40.8312 4.73082 40.9301 4.35149L40.6514 4.37394L40.3236 5.63194L39.952 5.53511L40.2455 4.40872L39.962 4.43404L39.7088 5.4056C39.6624 5.58365 39.6934 5.6868 39.8057 5.71605L40.5179 5.90164C40.5953 5.92181 40.6555 5.91271 40.7043 5.88409C40.758 5.8526 40.8194 5.72806 40.8914 5.51533L41.2115 5.71449C41.0889 6.04217 40.9784 6.22831 40.8761 6.27193C40.7835 6.30982 40.6555 6.30951 40.4929 6.26715L39.6026 6.03517C39.3278 5.96356 39.2397 5.74633 39.3346 5.38248L39.5736 4.46511L39.2862 4.48942L39.381 4.12557L39.6684 4.10126L39.7955 3.61355C39.7191 3.68458 39.6399 3.75074 39.5675 3.80629L39.3909 3.42131C39.6841 3.20011 39.9796 2.8596 40.2771 2.39977L40.6343 2.58377C40.5673 2.68207 40.5052 2.7775 40.4403 2.86805L41.7525 3.20998L41.6547 3.58544L40.1838 3.20216Z" fill="white"/>
<path d="M43.5553 4.33227C43.7966 4.53577 44.0066 4.75861 44.1813 4.99954L43.8842 5.24446C43.6954 4.98218 43.4854 4.75934 43.2569 4.56834L43.5553 4.33227ZM42.6942 5.73207C42.9163 5.90417 43.127 6.08525 43.3226 6.27408C43.5986 6.17361 43.8943 6.0375 44.2111 5.86193L42.1393 5.19683L42.2591 4.82359L44.8299 5.64886L44.7223 5.98401C44.3821 6.21929 44.0162 6.4169 43.622 6.57182C43.7576 6.71199 43.8882 6.85475 44.0088 7.00267L43.6817 7.27576C43.2827 6.77799 42.8453 6.3477 42.3732 5.98611L42.6942 5.73207ZM43.9713 3.52058L44.2379 3.60616C44.5463 4.26811 44.9664 4.84407 45.4892 5.33539L45.1775 5.62602C44.6583 5.12326 44.2637 4.55967 43.986 3.9328C43.4359 4.28552 42.7808 4.53316 42.0209 4.6757L41.9378 4.25412C42.7004 4.12926 43.3757 3.88393 43.9713 3.52058Z" fill="white"/>
<path d="M46.7196 4.37439L46.8432 6.41394L45.415 7.87518L45.1471 7.60888L46.4571 6.27006L46.3428 4.40044L46.7196 4.37439ZM47.3718 4.61745L47.4954 6.65699L46.0671 8.11824L45.7993 7.85193L47.1093 6.51312L46.98 4.63791L47.3718 4.61745Z" fill="white"/>
<g clip-path="url(#clip0_255_4963)">
<path d="M4.56498 11.5729C4.29776 10.5012 3.2123 9.84894 2.14054 10.1162C1.06878 10.3834 0.416575 11.4688 0.683795 12.5406C0.951014 13.6124 2.03647 14.2646 3.10823 13.9973C4.17999 13.7301 4.8322 12.6447 4.56498 11.5729Z" fill="white"/>
<path d="M3.29642 11.8891C3.39108 12.2688 3.16007 12.6533 2.78042 12.7479C2.40078 12.8426 2.01629 12.6116 1.92163 12.2319C1.82698 11.8523 2.058 11.4678 2.43765 11.3731C2.81729 11.2785 3.20177 11.5095 3.29642 11.8891Z" fill="#485CC2"/>
<path fill-rule="evenodd" clip-rule="evenodd" d="M1.92487 11.8762C1.92229 12.0105 1.97808 12.2714 2.2247 12.2944C2.47574 12.3179 2.59007 12.1424 2.61585 12.0517C2.6505 11.9678 2.76938 11.8048 2.96778 11.8242C3.16619 11.8436 3.24691 11.9732 3.26248 12.0357L3.30364 12.2008C3.32391 12.1007 3.32277 11.9948 3.29643 11.8891C3.20178 11.5095 2.8173 11.2785 2.43766 11.3731C2.1793 11.4375 1.98978 11.6362 1.92487 11.8762Z" fill="#D74B4B"/>
<path fill-rule="evenodd" clip-rule="evenodd" d="M1.03437 11.88L1.29102 11.2114L1.39501 11.2514L1.13836 11.9199L1.03437 11.88ZM1.21247 11.9339L1.46912 11.2654L1.57311 11.3053L1.31646 11.9738L1.21247 11.9339ZM1.63285 11.3202L1.3762 11.9888L1.48019 12.0287L1.73684 11.3602L1.63285 11.3202Z" fill="#333333"/>
<path fill-rule="evenodd" clip-rule="evenodd" d="M3.94532 11.1542L3.71115 10.9507L3.63717 11.034L3.87225 11.2383L3.94532 11.1542ZM3.40484 10.6844L3.62709 10.8776L3.55309 10.9609L3.33177 10.7685L3.40484 10.6844ZM3.8134 11.2855L3.27292 10.8156L3.19983 10.8997L3.74031 11.3695L3.8134 11.2855ZM3.39929 11.3017L3.62152 11.4949L3.69459 11.4108L3.47329 11.2184L3.39929 11.3017ZM3.38921 11.1453L3.31523 11.2286L3.08102 11.025L3.1541 10.941L3.38921 11.1453Z" fill="#333333"/>
<path fill-rule="evenodd" clip-rule="evenodd" d="M4.10319 12.5232L4.21438 12.2336L4.1104 12.1936L3.99877 12.4844L4.10319 12.5232ZM4.06328 12.6272L3.95773 12.9021L3.85376 12.8622L3.95884 12.5884L4.06328 12.6272ZM3.66304 12.3597L3.76858 12.0848L3.87256 12.1248L3.76748 12.3985L3.66304 12.3597ZM3.72755 12.5025L3.62313 12.4637L3.51191 12.7534L3.61591 12.7933L3.72755 12.5025ZM4.0363 12.1796L3.9292 12.4586L3.82478 12.4198L3.9323 12.1397L4.0363 12.1796ZM3.77965 12.8482L3.88929 12.5626L3.78486 12.5238L3.67565 12.8083L3.77965 12.8482Z" fill="#333333"/>
<path fill-rule="evenodd" clip-rule="evenodd" d="M1.30356 12.9593L1.84404 13.4292L1.91712 13.3451L1.37663 12.8753L1.30356 12.9593ZM1.5543 12.7028L2.09478 13.1726L2.16786 13.0885L1.62737 12.6187L1.5543 12.7028ZM1.43549 12.8281L1.661 13.0241L1.73499 12.9409L1.50857 12.744L1.43549 12.8281ZM1.97598 13.2979L1.74508 13.0972L1.81906 13.0139L2.04905 13.2139L1.97598 13.2979Z" fill="#333333"/>
</g>
<defs>
<clipPath id="clip0_255_4963">
<rect width="4" height="4" fill="white" transform="translate(0.199951 10.6) rotate(-14)"/>
</clipPath>
</defs>
</svg>
