<svg width="55" height="24" viewBox="0 0 55 24" fill="none" xmlns="http://www.w3.org/2000/svg">
<path d="M6.71692 2.05841L6.95593 2.36955L5.44644 3.48962L5.27983 5.3553L4.90336 5.3247L5.08624 3.28962L6.71692 2.05841ZM7.32542 2.39627L7.55044 2.69964L6.05493 3.82748L5.88833 5.69316L5.51185 5.66256L5.69473 3.62748L7.32542 2.39627Z" fill="white"/>
<path d="M9.00815 3.88086L7.78153 3.37197L7.93481 3.0025L10.7834 4.1843L10.6301 4.55377L9.39979 4.04334L8.48317 6.25274L9.93886 6.85667L9.78405 7.22983L6.47733 5.85796L6.63214 5.4848L8.09153 6.09027L9.00815 3.88086Z" fill="white"/>
<path d="M12.341 4.46817L12.7389 4.60244L11.7377 7.57007L12.1546 7.71074L13.1559 4.7431L13.5538 4.87737L12.5525 7.84501L13.6441 8.2133L13.5136 8.59989L10.1253 7.45666L10.2557 7.07007L11.3397 7.4358L12.341 4.46817ZM13.983 5.82004L14.2984 6.03623C13.9357 6.63574 13.562 7.14288 13.1785 7.55384L12.8644 7.30856C13.225 6.94052 13.5962 6.44097 13.983 5.82004ZM11.4247 4.94422C11.4441 5.51224 11.419 6.14967 11.3469 6.85144L10.9574 6.81712C11.0281 6.18239 11.0607 5.56017 11.049 4.94411L11.4247 4.94422Z" fill="white"/>
<path d="M15.5424 5.53935C15.7349 5.79501 15.8889 6.03954 16.0045 6.27294L15.6516 6.47052C15.553 6.25038 15.4011 5.99816 15.1939 5.72157L15.5424 5.53935ZM14.7153 6.48242L15.6028 6.73957L15.1408 8.33399C15.2812 8.26638 15.4314 8.19331 15.5927 8.11095L15.5817 8.56585C15.2613 8.7229 14.9334 8.84859 14.5956 8.95063L14.5466 8.54496C14.6286 8.50625 14.6843 8.44327 14.7088 8.35875L15.0996 7.01022L14.604 6.86661L14.7153 6.48242ZM15.9571 7.34198L17.832 7.88523L17.7262 8.25022C17.5229 8.54946 17.2627 8.7864 16.9467 8.9572C17.1404 9.1799 17.3896 9.39786 17.697 9.61604L17.3816 9.89947C17.0497 9.6367 16.7798 9.37526 16.5807 9.11353C16.2198 9.238 15.8059 9.30129 15.3311 9.30117L15.2063 8.89851C15.6354 8.89792 16.0119 8.84877 16.3398 8.75219C16.1651 8.43506 16.0702 8.11603 16.0648 7.78963L15.8458 7.72618L15.9571 7.34198ZM16.4413 7.89873C16.4624 8.14221 16.5428 8.38207 16.6914 8.61669C16.9385 8.49673 17.1451 8.34421 17.3173 8.15254L16.4413 7.89873ZM16.6492 5.93084L18.0323 6.3316L17.8019 7.12689C17.7774 7.21141 17.8101 7.27087 17.9062 7.2987L18.2366 7.39444L18.1308 7.75943L17.6928 7.63252C17.4047 7.54903 17.3015 7.37337 17.3794 7.10443L17.5275 6.59345L16.9358 6.42201L16.9058 6.52575C16.79 6.92531 16.4924 7.1764 16.0228 7.27355L15.8429 6.88827C16.2046 6.84731 16.4254 6.70308 16.4978 6.45335L16.6492 5.93084Z" fill="white"/>
<path d="M19.7588 7.86458L20.7569 8.12675L21.0516 7.0048L21.4694 7.11455L21.1748 8.23649L22.1226 8.48545L22.0169 8.8878L21.0691 8.63885L20.5244 10.7125L20.1066 10.6028L20.6512 8.5291L19.6531 8.26694L19.7588 7.86458ZM19.3644 6.59475C19.5584 6.84834 19.7175 7.09278 19.8428 7.3242L19.4901 7.53346C19.3898 7.31689 19.2268 7.07143 19.005 6.79811L19.3644 6.59475ZM18.533 7.57158L19.4538 7.81342L19.029 9.43057C19.1666 9.36332 19.315 9.2865 19.4742 9.2001L19.4699 9.64149C19.1575 9.80757 18.8356 9.94637 18.5006 10.0569L18.4414 9.65257C18.5262 9.61283 18.5793 9.55233 18.6007 9.47109L18.9614 8.09767L18.4314 7.95846L18.533 7.57158Z" fill="white"/>
<path d="M22.583 9.1092C22.4598 9.20623 22.3337 9.29841 22.2037 9.38962L22.1765 8.92105C22.6421 8.57562 23.0292 8.13221 23.3473 7.58501L23.6723 7.85176C23.5171 8.10984 23.3367 8.35337 23.1408 8.57652L22.4834 11.2076L22.0837 11.1078L22.583 9.1092ZM23.8528 7.85562L25.8824 8.36275L25.5479 9.70159L24.7872 9.51153L24.6563 10.0354L25.5178 10.2507L25.4248 10.6232L24.5632 10.408L24.3703 11.1802C24.4828 11.2248 24.6206 11.2675 24.7739 11.3141C24.9757 11.3645 25.1862 11.413 25.3977 11.4576L25.228 11.8233L24.8671 11.7332C24.2937 11.5858 23.9202 11.4306 23.7416 11.2705C23.5651 11.1192 23.437 10.9223 23.3593 10.672C23.1838 10.9291 22.9946 11.1416 22.7958 11.3104L22.6172 10.9195C22.9819 10.5818 23.2943 10.0909 23.5551 9.44281L23.9229 9.60478C23.822 9.84344 23.7182 10.0608 23.6096 10.2645C23.6319 10.4062 23.6727 10.54 23.7357 10.6671C23.8037 10.7913 23.8939 10.8922 23.9968 10.9756L24.3875 9.41166L23.5183 9.19446L23.8528 7.85562ZM25.249 9.23111L25.3973 8.63736L24.1555 8.32707L24.0072 8.92082L25.249 9.23111Z" fill="white"/>
<path d="M26.7739 8.48654C26.9797 8.75221 27.1468 9.0082 27.275 9.25452L26.9124 9.46919C26.8132 9.23837 26.652 8.97558 26.4286 8.68082L26.7739 8.48654ZM28.1108 12.534C27.9012 12.4817 27.6732 12.4208 27.4296 12.356C27.1822 12.2902 26.9862 12.2166 26.8328 12.1371C26.6892 12.0519 26.5795 11.9297 26.4998 11.7697C26.4658 11.6911 26.427 11.6485 26.3804 11.6369C26.3066 11.6185 26.1321 11.7564 25.851 12.0573L25.6208 11.7073C25.8923 11.4452 26.1124 11.2898 26.2889 11.2431L26.5539 10.1796L26.0416 10.0519L26.1345 9.67932L27.0233 9.90082L26.6547 11.3796L26.6839 11.4281C26.7441 11.5503 26.8141 11.6501 26.8907 11.7228C26.9888 11.8091 27.148 11.8818 27.3711 11.9456C27.5914 12.0046 27.8505 12.0733 28.1455 12.1468C28.3395 12.1952 28.5345 12.2397 28.7364 12.29C28.9363 12.3316 29.0896 12.3615 29.1963 12.3799L28.9996 12.7555L28.1108 12.534ZM27.505 9.24174L27.9164 9.34427L28.0605 8.76596L28.4525 8.86365L28.3084 9.44197L28.7974 9.56384L28.9396 8.99329L29.3355 9.09196L29.1933 9.6625L29.6397 9.77374L29.5458 10.1502L29.0995 10.039L28.936 10.6949L29.5066 10.8371L29.4118 11.2175L28.8412 11.0753L28.5839 12.1077L28.188 12.0091L28.4453 10.9766L27.8631 10.8315C27.6452 11.243 27.3698 11.5207 27.0333 11.6636L26.8691 11.2805C27.1077 11.1833 27.3054 11.0017 27.4634 10.7319L27.017 10.6207L27.1118 10.2403L27.6358 10.3709C27.6823 10.2506 27.7219 10.1244 27.7568 9.98468L27.8225 9.72076L27.4111 9.61822L27.505 9.24174ZM28.2146 9.81845L28.172 9.98923C28.1294 10.16 28.0772 10.3201 28.0239 10.4676L28.5401 10.5963L28.7036 9.94033L28.2146 9.81845Z" fill="white"/>
<path d="M32.3451 9.87173L32.7553 9.97899L32.6056 10.5517L33.5576 10.8007L33.4554 11.1915L32.5034 10.9426L32.3465 11.5424L33.3991 11.8177L33.2959 12.2124L32.0421 11.8845C31.7036 12.3253 31.4178 12.6433 31.1926 12.8407C31.6072 12.8995 32.0269 12.939 32.4467 12.9619C32.4026 12.7354 32.3534 12.5282 32.2973 12.3316L32.7226 12.3023C32.8458 12.7479 32.9359 13.2098 32.9909 13.6954L32.5632 13.7655C32.5473 13.6208 32.5294 13.4838 32.5133 13.3556C31.9063 13.3209 31.26 13.247 30.5694 13.1367L30.5725 12.7613C30.6142 12.7598 30.6444 12.7553 30.6667 12.7487C30.8677 12.6442 31.1836 12.3216 31.6087 11.7712L30.7728 11.5527L30.876 11.1579L31.9363 11.4352L32.0932 10.8353L31.2186 10.6067L31.3208 10.2158L32.1954 10.4445L32.3451 9.87173ZM30.6905 9.4639C30.8875 9.72216 31.0469 9.96642 31.1715 10.2016L30.8092 10.4169C30.7097 10.1966 30.5475 9.94746 30.3274 9.66665L30.6905 9.4639ZM30.3569 10.3442C30.5347 10.5974 30.6776 10.8414 30.7895 11.0774L30.4244 11.2879C30.3355 11.0745 30.1936 10.8265 29.9977 10.5479L30.3569 10.3442ZM30.4189 11.5304L30.7471 11.7775C30.4542 12.2177 30.149 12.6258 29.8365 12.9988L29.4767 12.7146C29.8183 12.3409 30.1331 11.9436 30.4189 11.5304Z" fill="white"/>
<path d="M34.3031 10.9142L34.8409 11.0706C34.8263 10.8914 34.8046 10.7226 34.7691 10.5582L35.2002 10.6086C35.217 10.7801 35.2281 10.9708 35.2326 11.1846L35.6782 11.3141L35.5665 11.6982L34.8252 11.4826L34.7034 11.9013L35.3832 12.099C35.0894 13.1092 34.8893 13.7258 34.7893 13.955C34.6827 14.1781 34.4676 14.2447 34.1488 14.1519C34.1181 14.143 34.0704 14.1208 34.0084 14.0903L34.0201 13.7063C34.0859 13.7379 34.1413 13.7624 34.1912 13.7769C34.3257 13.816 34.4253 13.7741 34.4841 13.6579C34.539 13.5406 34.6779 13.1061 34.9034 12.3594L34.5923 12.2689C34.3246 13.1033 34.0016 13.6842 33.6269 14.0127L33.4044 13.6605C33.7432 13.355 34.0316 12.7932 34.2745 11.9723L34.4488 11.3732L34.1914 11.2983L34.3031 10.9142ZM36.1614 11.7296C36.0354 11.8763 35.9073 12.0015 35.7788 12.1141L36.1206 12.2135L36.0111 12.5899L36.2953 12.5726L36.4684 11.9772L36.8371 12.0845L36.702 12.5492L37.3763 12.5079C37.1596 13.253 37.0136 13.6979 36.937 13.8465C36.8528 13.9928 36.6796 14.0299 36.4184 13.9539L36.4146 13.9528L36.4092 13.5846C36.4745 13.6036 36.531 13.6242 36.5847 13.6399C36.6155 13.6488 36.6458 13.616 36.6736 13.5491C36.6992 13.4899 36.7656 13.2759 36.875 12.8995L36.5959 12.9141L36.2328 14.1624L35.8641 14.0551L36.1892 12.9374L35.905 12.9548L35.6246 13.9188C35.5732 14.0955 35.6013 14.1995 35.7127 14.2319L36.4194 14.4374C36.4962 14.4598 36.5567 14.4524 36.6063 14.4251C36.6608 14.3952 36.7257 14.2724 36.8036 14.0618L37.118 14.2699C36.9862 14.594 36.8705 14.7769 36.7671 14.8176C36.6735 14.8529 36.5455 14.849 36.3842 14.8021L35.5008 14.5452C35.2281 14.4658 35.1461 14.2462 35.2511 13.8852L35.5159 12.9749L35.2279 12.9911L35.3329 12.6301L35.6209 12.6139L35.7617 12.1299C35.6833 12.1988 35.6022 12.2627 35.5284 12.3162L35.3626 11.9264C35.662 11.7135 35.9669 11.3814 36.2772 10.9302L36.6291 11.1241C36.5594 11.2205 36.4946 11.3142 36.4272 11.4029L37.7292 11.7816L37.6209 12.1541L36.1614 11.7296Z" fill="white"/>
<path d="M39.6083 12.2058L41.4691 12.8464L41.335 13.236L39.4742 12.5954L39.6083 12.2058ZM39.1947 13.1126L41.3089 13.8404L41.1748 14.2299L40.5923 14.0294L40.0468 15.6142C39.9609 15.8638 39.778 15.9404 39.4981 15.8441L38.9497 15.6553L38.9955 15.2396C39.1643 15.3146 39.3268 15.3832 39.4856 15.4379C39.5877 15.473 39.6537 15.4535 39.6797 15.3778L40.1914 13.8914L39.0606 13.5021L39.1947 13.1126ZM39.0114 11.8015L39.3121 12.0954C38.9698 12.4387 38.4967 12.6946 37.8929 12.8633L37.9086 12.4245C38.3513 12.2935 38.719 12.0858 39.0114 11.8015ZM38.8897 12.7326L39.188 13.0214C39.0219 13.1842 38.832 13.3304 38.6182 13.4598L37.9724 15.3358L37.5829 15.2017L38.0946 13.7153C37.9295 13.7769 37.7531 13.8347 37.5742 13.8873L37.5873 13.4561C38.1125 13.3069 38.5475 13.0632 38.8897 12.7326Z" fill="white"/>
<path d="M42.2092 15.9554L42.0496 16.3135C41.6679 16.3054 41.2573 16.2538 40.8123 16.1519L40.9239 15.7637C41.3982 15.8787 41.8254 15.9421 42.2092 15.9554ZM42.7154 13.0894L43.0007 13.3828C42.6624 13.7489 42.3547 14.0365 42.0792 14.2422C42.1807 14.2699 42.2858 14.2992 42.389 14.3233C42.5044 14.2215 42.6231 14.1123 42.7487 13.9975L43.0258 14.2699C42.519 14.7097 42.1174 15.0212 41.8196 15.2082C42.0348 15.2559 42.2565 15.289 42.4904 15.3144L42.3406 15.6505C41.9268 15.6063 41.5492 15.53 41.2097 15.4269L41.2649 15.0574C41.34 15.0558 41.4095 15.0474 41.4713 15.0267C41.6167 14.9558 41.8232 14.8069 42.0959 14.5781C41.9294 14.5389 41.7609 14.4945 41.5835 14.4505L41.637 14.0846C41.7069 14.0851 41.7739 14.0624 41.8454 14.0198C42.1413 13.7488 42.4284 13.4388 42.7154 13.0894ZM44.0228 14.4207L43.5514 14.2107L43.1461 15.1204L43.6174 15.3304L44.0228 14.4207ZM43.4644 15.6739L42.9931 15.4639L42.5714 16.4102L43.0427 16.6202L43.4644 15.6739ZM43.3862 16.7732L43.8429 16.9767L44.2646 16.0304L43.8078 15.8269L43.3862 16.7732ZM43.9609 15.4835L44.4176 15.687L44.8229 14.7772L44.3662 14.5737L43.9609 15.4835ZM43.6883 17.3238L42.4168 16.7573L42.3256 16.9619L41.9785 16.8073L43.3606 13.7052L45.3373 14.586L43.9552 17.688L43.5971 17.5285L43.6883 17.3238Z" fill="white"/>
<path d="M47.714 15.672L46.5352 17.9174L46.1739 17.7277L47.1668 15.8365L46.2743 15.368L45.2647 17.2911L44.907 17.1033L46.1026 14.826L47.714 15.672ZM46.0428 17.7538C46.1674 18.0586 46.2619 18.3432 46.3211 18.6092L45.8944 18.742C45.8582 18.4926 45.7763 18.2012 45.6468 17.8712L46.0428 17.7538ZM46.4411 15.713L46.7988 15.9008L46.2205 17.0022C45.9869 17.4127 45.7253 17.7045 45.4429 17.8725C45.1697 18.0227 44.8305 18.0751 44.4307 18.0278L44.3965 17.5852C44.7785 17.6321 45.0744 17.5932 45.2807 17.4757C45.4947 17.335 45.6869 17.1151 45.8628 16.8144L46.4411 15.713ZM47.9145 16.0303L48.2722 16.2181L47.1286 18.3961L46.7709 18.2083L47.9145 16.0303ZM47.0655 19.3253L46.5768 19.0687L46.6796 18.6664C46.828 18.7623 46.973 18.8475 47.1111 18.92C47.2103 18.9721 47.2859 18.9485 47.3361 18.8529L48.779 16.1046L49.1473 16.298L47.6542 19.1419C47.5203 19.3969 47.3205 19.4591 47.0655 19.3253Z" fill="white"/>
<path d="M49.9769 16.7104L49.7916 18.7452L48.1594 19.9745L47.9347 19.6708L49.4316 18.5448L49.6005 16.6793L49.9769 16.7104ZM50.585 17.049L50.3997 19.0838L48.7675 20.3131L48.5428 20.0094L50.0397 18.8834L50.1946 17.0101L50.585 17.049Z" fill="white"/>
<g clip-path="url(#clip0_255_5061)">
<path d="M4.36499 2.90843C4.63221 1.83667 3.98 0.751216 2.90824 0.483996C1.83648 0.216777 0.751027 0.868985 0.483808 1.94074C0.216588 3.0125 0.868796 4.09796 1.94055 4.36518C3.01231 4.6324 4.09777 3.98019 4.36499 2.90843Z" fill="white"/>
<path d="M3.09647 2.5921C3.00182 2.97174 2.61734 3.20278 2.23769 3.10812C1.85805 3.01346 1.62702 2.62897 1.72168 2.24933C1.81633 1.86969 2.20082 1.63866 2.58047 1.73332C2.96011 1.82797 3.19113 2.21246 3.09647 2.5921Z" fill="#485CC2"/>
<path fill-rule="evenodd" clip-rule="evenodd" d="M1.89155 1.93674C1.8262 2.05415 1.753 2.31067 1.95993 2.4468C2.17058 2.58536 2.3539 2.4841 2.41923 2.41615C2.48922 2.35831 2.67071 2.27022 2.83679 2.38046C3.00288 2.4907 3.01327 2.6431 2.9977 2.70554L2.95655 2.87062C3.0214 2.79182 3.07015 2.69772 3.09648 2.5921C3.19114 2.21246 2.96012 1.82798 2.58048 1.73332C2.32212 1.6689 2.06153 1.75531 1.89155 1.93674Z" fill="#D74B4B"/>
<path fill-rule="evenodd" clip-rule="evenodd" d="M1.10344 1.52206L1.64393 1.05224L1.717 1.13631L1.17652 1.60613L1.10344 1.52206ZM1.23538 1.65329L1.77586 1.18346L1.84894 1.26753L1.30845 1.73735L1.23538 1.65329ZM1.89467 1.30878L1.35418 1.77861L1.42726 1.86268L1.96774 1.39285L1.89467 1.30878Z" fill="#333333"/>
<path fill-rule="evenodd" clip-rule="evenodd" d="M4.01439 2.24783L3.9032 1.95817L3.79878 1.99696L3.91041 2.28775L4.01439 2.24783ZM3.75774 1.57926L3.86329 1.85418L3.75885 1.89297L3.65376 1.61918L3.75774 1.57926ZM3.83631 2.30176L3.57966 1.63319L3.47566 1.6731L3.73231 2.34168L3.83631 2.30176ZM3.46305 2.12167L3.56859 2.39655L3.67257 2.35663L3.56749 2.08288L3.46305 2.12167ZM3.52756 1.97889L3.42314 2.01768L3.31192 1.72798L3.41592 1.68806L3.52756 1.97889Z" fill="#333333"/>
<path fill-rule="evenodd" clip-rule="evenodd" d="M3.51116 3.53071L3.74533 3.32716L3.67226 3.24309L3.43718 3.44744L3.51116 3.53071ZM3.4271 3.6038L3.20485 3.79698L3.13178 3.71293L3.3531 3.52052L3.4271 3.6038ZM3.1993 3.17972L3.42153 2.98655L3.49459 3.07062L3.2733 3.263L3.1993 3.17972ZM3.18922 3.33608L3.11524 3.25281L2.88103 3.45638L2.95411 3.54044L3.18922 3.33608ZM3.61341 3.19594L3.38788 3.39197L3.3139 3.30869L3.54032 3.11187L3.61341 3.19594ZM3.07292 3.66577L3.30382 3.46505L3.22982 3.38177L2.99984 3.58169L3.07292 3.66577Z" fill="#333333"/>
<path fill-rule="evenodd" clip-rule="evenodd" d="M0.834381 2.6014L1.09103 3.26996L1.19502 3.23005L0.938373 2.56147L0.834381 2.6014ZM1.17621 2.49259L1.43286 3.16116L1.53685 3.12125L1.2802 2.45267L1.17621 2.49259ZM1.01248 2.54746L1.11956 2.82642L1.22399 2.78763L1.11647 2.50755L1.01248 2.54746ZM1.26913 3.21604L1.15949 2.93042L1.26391 2.89163L1.37312 3.17612L1.26913 3.21604Z" fill="#333333"/>
</g>
<defs>
<clipPath id="clip0_255_5061">
<rect width="4" height="4" fill="white" transform="translate(0.967651 0.000152588) rotate(14)"/>
</clipPath>
</defs>
</svg>
