<svg width="87" height="32" viewBox="0 0 87 32" fill="none" xmlns="http://www.w3.org/2000/svg">
<path d="M7.07615 4.00069L7.30329 4.3206L5.75273 5.38309L5.51606 7.24119L5.141 7.19645L5.40031 5.16968L7.07615 4.00069ZM7.67151 4.3612L7.88496 4.67282L6.34809 5.7436L6.11142 7.6017L5.73635 7.55696L5.99566 5.53019L7.67151 4.3612Z" fill="white"/>
<path d="M9.22543 5.65218C9.46936 5.78132 9.63343 5.9587 9.71764 6.18433C9.79832 6.40809 9.78065 6.62955 9.66086 6.8558C9.54482 7.07498 9.35517 7.22803 9.0971 7.32222C8.94197 7.37587 8.69409 7.41663 8.35867 7.45176C8.01077 7.48482 7.77662 7.55095 7.65268 7.64827L8.89704 8.30707L8.70426 8.67119L6.94377 7.73913C7.0804 7.48107 7.27962 7.3014 7.55037 7.20034C7.69843 7.14295 7.97522 7.09034 8.37531 7.04418C8.59782 7.01715 8.76148 6.9816 8.87148 6.94479C9.04658 6.87908 9.17426 6.77469 9.24912 6.63329C9.32212 6.49542 9.33751 6.37231 9.30237 6.26771C9.26369 6.16124 9.17094 6.0714 9.026 5.99467C8.87046 5.91232 8.72573 5.90358 8.5918 5.96846C8.46163 6.02627 8.33873 6.15582 8.22685 6.35004L7.81324 6.13106C7.9665 5.85013 8.16759 5.66693 8.42192 5.5798C8.68539 5.48394 8.95323 5.50806 9.22543 5.65218Z" fill="white"/>
<path d="M11.802 6.92751C12.1036 7.06643 12.2828 7.29874 12.3364 7.63171C12.3858 7.94513 12.3168 8.30529 12.1293 8.71219C11.9419 9.11909 11.713 9.40561 11.4427 9.57175C11.1565 9.74377 10.8617 9.76214 10.5602 9.62322C10.255 9.48264 10.0774 9.24669 10.0258 8.91903C9.97641 8.60561 10.0454 8.24545 10.2329 7.83855C10.4203 7.43165 10.6492 7.14513 10.9195 6.97899C11.2038 6.80166 11.4969 6.78693 11.802 6.92751ZM11.6363 7.28718C11.4293 7.19179 11.2321 7.23746 11.0414 7.43148C10.9113 7.56093 10.7835 7.76189 10.658 8.03436C10.5341 8.30321 10.4644 8.53095 10.4489 8.71758C10.427 8.98495 10.5188 9.16816 10.7259 9.26355C10.9293 9.35728 11.1282 9.30797 11.3208 9.11925C11.4526 8.98618 11.5804 8.78522 11.7043 8.51637C11.8298 8.2439 11.8995 8.01616 11.9133 7.83316C11.9332 7.56048 11.8398 7.38091 11.6363 7.28718Z" fill="white"/>
<path d="M14.4069 8.03764C14.6639 8.13815 14.8471 8.29569 14.9565 8.51025C15.0622 8.72336 15.0698 8.9454 14.9766 9.18382C14.8863 9.41479 14.7153 9.58845 14.4696 9.71143C14.3216 9.78241 14.08 9.85114 13.7508 9.92426C13.4089 9.99674 13.1838 10.0891 13.0718 10.1999L14.3831 10.7127L14.233 11.0964L12.3778 10.371C12.4842 10.099 12.6616 9.89781 12.9191 9.76656C13.0597 9.69267 13.3286 9.60888 13.7209 9.51744C13.9389 9.46523 14.0974 9.41126 14.2025 9.36216C14.369 9.27693 14.4839 9.15868 14.5422 9.00966C14.599 8.86438 14.6003 8.74032 14.5534 8.6404C14.5029 8.53903 14.4005 8.46035 14.2478 8.40062C14.0838 8.33653 13.9391 8.34434 13.8134 8.42405C13.6907 8.49632 13.5833 8.63902 13.4943 8.84473L13.0584 8.6743C13.1787 8.37773 13.3576 8.17281 13.6003 8.05728C13.8512 7.93202 14.12 7.92548 14.4069 8.03764Z" fill="white"/>
<path d="M17.058 8.98105C17.3744 9.08184 17.5808 9.29035 17.6749 9.61421C17.7625 9.91918 17.7382 10.2851 17.6022 10.712C17.4662 11.1388 17.2743 11.4513 17.0265 11.6494C16.7636 11.8553 16.4733 11.9098 16.157 11.809C15.8369 11.707 15.6316 11.4946 15.5401 11.1758C15.4526 10.8708 15.4768 10.5049 15.6128 10.0781C15.7488 9.65121 15.9407 9.33873 16.1886 9.14062C16.4489 8.92969 16.7379 8.87904 17.058 8.98105ZM16.9378 9.35836C16.7206 9.28914 16.5305 9.35872 16.3651 9.5747C16.2519 9.71916 16.1498 9.93431 16.0587 10.2201C15.9688 10.5022 15.9277 10.7368 15.9352 10.9239C15.9464 11.1919 16.06 11.3624 16.2772 11.4317C16.4906 11.4997 16.682 11.4263 16.8499 11.2153C16.9643 11.0671 17.0665 10.8519 17.1563 10.5699C17.2474 10.284 17.2886 10.0495 17.2798 9.86614C17.266 9.59308 17.1512 9.42636 16.9378 9.35836Z" fill="white"/>
<path d="M18.6304 9.45422L19.1719 9.58025L19.2472 9.25689L19.6445 9.34937L19.5693 9.67273L20.1186 9.80058L20.0334 10.1668L19.4841 10.0389L19.4297 10.2727L19.9439 10.3924L19.5976 11.8806L19.0794 11.76L19.0214 12.0094L19.6291 12.1508L19.5448 12.5131L18.937 12.3717L18.8038 12.9444L18.4064 12.8519L18.5397 12.2792L17.9748 12.1477L18.0591 11.7854L18.624 11.9169L18.682 11.6675L18.2067 11.5569L18.5531 10.0687L19.0323 10.1802L19.0867 9.94646L18.5451 9.82043L18.6304 9.45422ZM19.3054 11.4594L19.3634 11.2101L18.7167 11.0596L18.6587 11.3089L19.3054 11.4594ZM18.7911 10.7401L19.4378 10.8906L19.4958 10.6413L18.8491 10.4908L18.7911 10.7401ZM20.1357 9.95651L20.7785 10.1061L20.8873 9.63861L21.2847 9.73109L21.1759 10.1986L21.9746 10.3845L21.8839 10.7741L21.0852 10.5882L21.0073 10.9232L21.654 11.0737L21.566 11.4516L20.9193 11.3011L20.8232 11.7141L21.6803 11.9136C21.5323 12.4787 21.4148 12.8251 21.3198 12.9509C21.2139 13.1233 21.0627 13.1908 20.8601 13.1437C20.7978 13.1292 20.7295 13.1051 20.6495 13.0782L20.6139 12.6839C20.7272 12.7267 20.8228 12.7571 20.9007 12.7753C20.96 12.785 21.0117 12.7395 21.0517 12.6379C21.0839 12.5879 21.131 12.4387 21.195 12.199L20.7352 12.092L20.4478 13.327L20.0504 13.2345L20.3379 11.9995L19.734 11.859L19.822 11.4811L20.4258 11.6216L20.5219 11.2086L19.9999 11.0872L20.0878 10.7093L20.6099 10.8307L20.6879 10.4957L20.045 10.3461L20.1357 9.95651Z" fill="white"/>
<path d="M23.0886 10.8549L25.0503 11.1238L24.9992 11.4963L24.2304 11.3909L24.1685 11.8427L24.8145 11.9313L24.7645 12.2958L24.1185 12.2073L24.0474 12.7264L24.408 12.7759C24.3647 12.6206 24.3107 12.484 24.2467 12.3621L24.5903 12.3002C24.6606 12.435 24.7214 12.5806 24.7647 12.736L24.5586 12.7965L24.9311 12.8476L24.88 13.2201L22.6965 12.9208L22.7475 12.5483L23.6273 12.6689L23.6984 12.1497L23.0525 12.0612L23.1025 11.6966L23.7484 11.7851L23.8104 11.3334L23.0376 11.2274L23.0886 10.8549ZM25.8381 10.5898L25.3552 14.1129L24.9351 14.0553L24.9552 13.9087L22.4348 13.5632L22.4147 13.7098L21.9946 13.6522L22.4775 10.1292L25.8381 10.5898ZM22.488 13.1748L25.0085 13.5203L25.3648 10.9206L22.8444 10.5751L22.488 13.1748Z" fill="white"/>
<path d="M26.6389 10.5589C26.8847 10.7638 27.0906 10.9666 27.2565 11.1674L26.9581 11.4404C26.8118 11.2487 26.6063 11.0379 26.3413 10.816L26.6389 10.5589ZM26.0494 11.6662L26.9722 11.7135L26.8872 13.3713C27.0083 13.2734 27.1379 13.1679 27.2761 13.0508L27.3694 13.4962C27.0935 13.7224 26.803 13.9197 26.4975 14.0963L26.357 13.7126C26.428 13.6562 26.4678 13.5821 26.4723 13.4943L26.5442 12.0921L26.0289 12.0657L26.0494 11.6662ZM27.4549 12.2189L29.4044 12.3189L29.3849 12.6984C29.2554 13.0362 29.0563 13.3264 28.7878 13.5649C29.0272 13.7374 29.3197 13.8926 29.6689 14.0347L29.4267 14.3827C29.0434 14.2028 28.7209 14.0101 28.4673 13.8008C28.1444 14.0046 27.7559 14.1609 27.2937 14.2693L27.08 13.9059C27.4977 13.8072 27.853 13.6732 28.15 13.5042C27.9075 13.2354 27.742 12.9466 27.6621 12.6301L27.4344 12.6184L27.4549 12.2189ZM28.0536 12.6501C28.1298 12.8823 28.263 13.0974 28.4613 13.2918C28.6745 13.1185 28.8407 12.9228 28.9644 12.6968L28.0536 12.6501ZM27.8058 10.6869L29.244 10.7606L29.2016 11.5875C29.197 11.6754 29.2425 11.7258 29.3424 11.7309L29.6859 11.7485L29.6665 12.128L29.2111 12.1047C28.9115 12.0893 28.7708 11.9419 28.7852 11.6623L28.8124 11.131L28.1972 11.0994L28.1917 11.2073C28.1704 11.6228 27.9381 11.9353 27.5032 12.1373L27.2399 11.8033C27.5827 11.6807 27.7647 11.4898 27.778 11.2301L27.8058 10.6869Z" fill="white"/>
<path d="M31.1499 11.798L32.1818 11.7821L32.1639 10.6222L32.5958 10.6155L32.6137 11.7754L33.5936 11.7603L33.6 12.1762L32.6202 12.1914L32.6533 14.3351L32.2213 14.3418L32.1882 12.198L31.1563 12.214L31.1499 11.798ZM30.4286 10.681C30.6836 10.8731 30.9026 11.0658 31.0855 11.255L30.802 11.5514C30.6472 11.3697 30.4242 11.1772 30.137 10.9736L30.4286 10.681ZM29.8905 11.8455L30.8424 11.8308L30.8682 13.5026C30.9827 13.4008 31.1049 13.2869 31.235 13.1609L31.3496 13.5872C31.0933 13.8311 30.8207 14.0514 30.5277 14.2479L30.3619 13.8745C30.433 13.8133 30.4678 13.7408 30.4665 13.6568L30.4446 12.237L29.8967 12.2454L29.8905 11.8455Z" fill="white"/>
<path d="M35.4221 13.2109L35.4422 13.6064C35.088 13.8086 34.6842 13.9813 34.2265 14.1166L34.1535 13.7038C34.6394 13.571 35.0635 13.4053 35.4221 13.2109ZM34.5652 10.5309L34.9726 10.6664C34.8124 11.1391 34.6437 11.5242 34.4669 11.8295C34.5862 11.8114 34.7052 11.7894 34.824 11.7633C34.8815 11.6323 34.9463 11.4888 35.0147 11.3371L35.3935 11.4621C35.1117 12.0651 34.8741 12.5138 34.6808 12.8079C34.9132 12.7321 35.1485 12.632 35.3867 12.5118L35.4061 12.8953C34.976 13.1014 34.5706 13.2421 34.1862 13.3217L34.0548 12.9438C34.1291 12.908 34.191 12.8648 34.2365 12.8145C34.3423 12.6889 34.4754 12.4699 34.6357 12.1574C34.4612 12.1903 34.2788 12.2276 34.0965 12.2648L33.9732 11.8866C34.0357 11.8554 34.093 11.8004 34.1448 11.7177C34.3108 11.3568 34.4509 10.9612 34.5652 10.5309ZM35.4892 12.3224L35.3827 11.9593C35.418 11.9455 35.4454 11.9321 35.4609 11.9233C35.5683 11.8297 35.7054 11.6105 35.868 11.2618L35.2727 11.292L35.2527 10.8965L36.2114 10.8479C36.1614 10.7302 36.1076 10.6168 36.0464 10.5158L36.4662 10.4224C36.5202 10.5398 36.5752 10.6772 36.6309 10.8266L37.4978 10.7826L37.5178 11.1781L36.3034 11.2397C36.1734 11.5187 36.0561 11.7329 35.9519 11.8904C36.2541 11.847 36.5517 11.7918 36.8449 11.7289L36.614 11.4402L36.9234 11.2243C37.2003 11.5507 37.415 11.8362 37.5676 12.0807L37.2556 12.3249C37.2032 12.2394 37.1466 12.1502 37.0862 12.0651C36.5985 12.1619 36.0662 12.249 35.4892 12.3224ZM35.7781 12.4118L36.1856 12.3912C36.1876 12.9037 36.1465 13.2783 36.0546 13.5192C35.9515 13.7768 35.7709 14.0062 35.5085 14.2038L35.2239 13.8818C35.4403 13.7266 35.5876 13.5509 35.6697 13.3545C35.7481 13.1623 35.7842 12.8481 35.7781 12.4118ZM37.3427 14.0427L37.0991 14.055C36.7994 14.0702 36.6449 13.9459 36.6318 13.6862L36.5627 12.324L36.9582 12.3039L37.023 13.5823C37.026 13.6422 37.0478 13.6771 37.0924 13.6869L37.3041 13.6761C37.3716 13.6647 37.4047 13.607 37.4077 13.5067C37.4102 13.3984 37.4107 13.2502 37.4014 13.0664L37.7634 13.1762C37.7828 13.5597 37.7626 13.7931 37.7112 13.8838C37.6593 13.9665 37.5337 14.0169 37.3427 14.0427Z" fill="white"/>
<path d="M39.1936 11.4734L40.2251 11.4403L40.1878 10.2809L40.6196 10.267L40.6568 11.4264L41.6363 11.395L41.6497 11.8107L40.6702 11.8422L40.739 13.9851L40.3072 13.9989L40.2384 11.856L39.2069 11.8892L39.1936 11.4734ZM38.4538 10.3686C38.7119 10.5564 38.9341 10.7453 39.1202 10.9315L38.8417 11.2325C38.6839 11.0535 38.4577 10.8647 38.1672 10.6659L38.4538 10.3686ZM37.9351 11.5418L38.8867 11.5112L38.9403 13.1824C39.053 13.0787 39.1734 12.9628 39.3013 12.8346L39.423 13.2589C39.1708 13.5072 38.9019 13.7319 38.6122 13.9333L38.4403 13.5626C38.5103 13.5004 38.544 13.4272 38.5413 13.3433L38.4957 11.924L37.948 11.9416L37.9351 11.5418Z" fill="white"/>
<path d="M44.6152 11.2784C44.598 11.334 44.5848 11.3857 44.5676 11.4414C44.6468 11.8392 44.7471 12.1895 44.8724 12.4923C45.0002 12.1431 45.0771 11.7407 45.1031 11.2891L44.6152 11.2784ZM44.671 12.916C44.5489 12.6492 44.4435 12.3508 44.3547 12.0208C44.2918 12.1514 44.2251 12.274 44.1586 12.3846L43.9059 12.0549C44.1355 11.6199 44.2965 11.0353 44.3887 10.3011L44.795 10.3821C44.7671 10.5575 44.7395 10.721 44.7081 10.8763L45.7078 10.8984L45.6989 11.3023L45.479 11.2974C45.4408 11.9408 45.3127 12.4861 45.0907 12.9373C45.2756 13.2614 45.4979 13.5184 45.7579 13.7042L45.5185 14.039C45.2746 13.8496 45.0599 13.6048 44.8785 13.3047C44.6844 13.5805 44.4471 13.8153 44.1709 14.0052L43.9627 13.6485C44.2549 13.4629 44.4923 13.2201 44.671 12.916ZM42.7961 12.1224L43.1869 12.179C43.1616 12.2385 43.1403 12.298 43.1191 12.3536L43.9229 12.3713L43.9155 12.7073C43.8424 12.9377 43.7178 13.143 43.538 13.3151C43.6924 13.3865 43.8428 13.4618 43.989 13.5451L43.7578 13.8681C43.6079 13.7727 43.426 13.6727 43.2123 13.5679C42.9446 13.7301 42.6138 13.8548 42.2156 13.95L42.0313 13.5979C42.3207 13.5403 42.5705 13.4617 42.7845 13.3705C42.6261 13.2989 42.4556 13.2272 42.2812 13.1553C42.3807 12.9974 42.4681 12.8433 42.5434 12.697L42.1475 12.6882L42.1553 12.3323L42.7112 12.3446C42.7409 12.2652 42.7705 12.1939 42.7961 12.1224ZM43.1655 13.1508C43.3323 13.0265 43.4595 12.8812 43.5471 12.7191L42.9553 12.7061C42.901 12.8089 42.8428 12.9076 42.7847 13.0024C42.9118 13.0452 43.0387 13.096 43.1655 13.1508ZM42.5918 10.3215C42.6725 10.4713 42.745 10.6329 42.8052 10.8063L42.5063 10.9317C42.4306 10.738 42.3503 10.5682 42.2656 10.4183L42.5918 10.3215ZM43.7156 10.3423L44.0045 10.4887C43.9208 10.6549 43.8172 10.8166 43.6897 10.9739L43.401 10.8194C43.5326 10.6583 43.6401 10.5006 43.7156 10.3423ZM42.1931 10.9848L42.9369 11.0012L42.9529 10.2774L43.3368 10.2859L43.3208 11.0097L44.0006 11.0247L43.9926 11.3886L43.3128 11.3736L43.3126 11.3816C43.5187 11.4702 43.7285 11.5709 43.9421 11.6836L43.7189 12.0068C43.5538 11.8711 43.4162 11.764 43.3059 11.6856L43.2966 12.1055L42.9127 12.097L42.9266 11.4691C42.7846 11.7381 42.5714 11.9694 42.2789 12.171L42.0784 11.8305C42.3416 11.6883 42.5371 11.5325 42.6609 11.3592L42.185 11.3487L42.1931 10.9848Z" fill="white"/>
<path d="M46.4229 14.0373L46.0837 14.0143L46.0223 13.6173C46.121 13.64 46.216 13.6584 46.3078 13.6646C46.3916 13.6703 46.439 13.6214 46.4458 13.5216L46.5003 12.7155C46.3613 12.7542 46.2264 12.7932 46.0877 12.8279L46.0078 12.4095C46.1821 12.3812 46.3569 12.345 46.5283 12.3004L46.5823 11.5022L46.1513 11.4731L46.1786 11.07L46.6096 11.0992L46.6573 10.3928L47.0644 10.4203L47.0166 11.1267L47.3559 11.1496L47.3286 11.5527L46.9894 11.5298L46.9465 12.1643C47.0617 12.12 47.173 12.0754 47.2805 12.0265L47.253 12.4336C47.1375 12.4819 47.0262 12.5265 46.9189 12.5714L46.8458 13.6529C46.8275 13.9243 46.6863 14.0551 46.4229 14.0373ZM47.8003 12.4025C47.7074 13.0657 47.5161 13.6421 47.2301 14.1359L46.9225 13.8225C47.2162 13.3332 47.3922 12.6876 47.4501 11.8897L47.5398 10.5647L49.7268 10.7126L49.6552 11.7702L48.9369 11.7216L48.9115 12.0967L49.7177 12.1513L49.692 12.5304L48.8859 12.4759L48.86 12.859L49.4905 12.9016L49.3977 14.2745L49.0146 14.2486L49.0256 14.085L48.1277 14.0243L48.1166 14.1879L47.7335 14.162L47.8263 12.7891L48.4529 12.8315L48.4788 12.4484L47.8003 12.4025ZM48.5298 11.6941L47.8713 11.6495L47.8532 11.9169C47.8508 11.9529 47.8444 11.9885 47.842 12.0244L48.5044 12.0692L48.5298 11.6941ZM48.1525 13.6571L49.0504 13.7178L49.0826 13.2429L48.1846 13.1822L48.1525 13.6571ZM49.294 11.0642L47.9172 10.9711L47.8961 11.2824L49.273 11.3755L49.294 11.0642Z" fill="white"/>
<path d="M53.4295 11.0005L53.8066 11.0476C53.6057 11.3007 53.4444 11.5587 53.3229 11.8216C53.1611 12.1481 53.0624 12.4864 53.0192 12.8318C52.9766 13.1731 52.989 13.5254 53.0649 13.8856C53.1185 14.1664 53.2112 14.4561 53.3432 14.7548L52.9661 14.7077C52.8084 14.4219 52.6992 14.1341 52.6307 13.8434C52.5494 13.4946 52.5335 13.1379 52.5782 12.7807C52.6238 12.4155 52.7265 12.0776 52.8912 11.7596C53.0301 11.4867 53.2068 11.2347 53.4295 11.0005Z" fill="white"/>
<path d="M54.4306 11.4261L55.0785 11.5515L55.1287 11.2923L55.5293 11.3698L55.4791 11.629L56.7083 11.8669L56.7585 11.6077L57.159 11.6852L57.1089 11.9444L57.7569 12.0697L57.6908 12.4114L57.0428 12.286L56.8103 13.4877L57.5171 13.6245L57.4488 13.978L56.7301 13.8389C56.8758 14.0545 57.1076 14.246 57.4248 14.4174L57.1876 14.7382C56.9465 14.5734 56.7517 14.4012 56.6038 14.2178L56.5423 14.5359L55.7922 14.3908L55.7397 14.6618L57.0396 14.9133L56.9667 15.2903L53.9388 14.7044L54.0118 14.3274L55.3392 14.5842L55.3916 14.3133L54.6337 14.1666L54.6944 13.8524C54.4943 13.9604 54.2697 14.0473 54.016 14.1164L53.8747 13.7305C54.2352 13.678 54.5178 13.586 54.7233 13.4506L54.0046 13.3116L54.073 12.9581L54.7799 13.0949L55.0124 11.8932L54.3645 11.7678L54.4306 11.4261ZM54.7546 13.8152L55.4615 13.952L55.5117 13.6928L55.9122 13.7703L55.8621 14.0295L56.5611 14.1647C56.4567 14.0305 56.3774 13.8929 56.3217 13.7599L55.1317 13.5296C55.0218 13.6347 54.8976 13.7288 54.7546 13.8152ZM55.1805 13.1724L56.4097 13.4102L56.4454 13.2257L55.2162 12.9878L55.1805 13.1724ZM55.277 12.6736L56.5062 12.9115L56.5427 12.723L55.3135 12.4851L55.277 12.6736ZM55.3743 12.171L56.6035 12.4088L56.6422 12.2085L55.413 11.9707L55.3743 12.171Z" fill="white"/>
<path d="M58.8049 12.1745L61.7398 12.9822L61.6315 13.3756L60.4129 13.0402L60.1666 13.9349L61.6514 14.3435L61.541 14.7446L60.0562 14.336L59.6996 15.6318C59.6232 15.9095 59.4374 16.0119 59.1443 15.9312L58.5272 15.7614L58.5496 15.3485C58.742 15.4181 58.9289 15.4778 59.1063 15.5266C59.222 15.5584 59.2947 15.5204 59.3233 15.4162L59.6513 14.2245L58.1009 13.7979L58.2113 13.3968L59.7617 13.8235L60.0079 12.9287L58.6967 12.5679L58.8049 12.1745Z" fill="white"/>
<path d="M63.6641 13.8974C63.9245 13.9891 64.113 14.1402 64.2296 14.3509C64.3425 14.5603 64.3578 14.7819 64.2728 15.0234C64.1904 15.2573 64.0255 15.4367 63.7842 15.5681C63.6387 15.6441 63.3996 15.721 63.073 15.8054C62.7339 15.8896 62.5121 15.9896 62.4039 16.1042L63.732 16.5717L63.5952 16.9603L61.7162 16.2989C61.8132 16.0234 61.9836 15.8163 62.2364 15.6763C62.3744 15.5976 62.6403 15.5047 63.0292 15.3999C63.2453 15.3402 63.4019 15.2808 63.5052 15.2282C63.6687 15.1373 63.7795 15.0152 63.8326 14.8642C63.8844 14.7171 63.8815 14.5931 63.8312 14.4948C63.7772 14.3952 63.6722 14.3201 63.5175 14.2656C63.3515 14.2072 63.2071 14.22 63.0842 14.3039C62.964 14.3804 62.8616 14.5267 62.7797 14.7353L62.3383 14.5799C62.4483 14.2794 62.6201 14.0685 62.8587 13.9447C63.1051 13.8109 63.3736 13.7952 63.6641 13.8974Z" fill="white"/>
<path d="M66.6061 15.0343C66.912 15.1634 67.0986 15.3899 67.1629 15.721C67.2223 16.0326 67.1649 16.3948 66.9906 16.8075C66.8163 17.2202 66.5967 17.514 66.3319 17.6887C66.0513 17.8698 65.7573 17.8976 65.4515 17.7685C65.1419 17.6378 64.9569 17.4076 64.8948 17.0818C64.8353 16.7701 64.8928 16.4079 65.0671 15.9952C65.2413 15.5825 65.4609 15.2888 65.7257 15.1141C66.0042 14.9277 66.2966 14.9036 66.6061 15.0343ZM66.4521 15.3991C66.242 15.3104 66.0464 15.3624 65.8621 15.5624C65.7362 15.696 65.6149 15.9009 65.4982 16.1773C65.383 16.45 65.3207 16.6798 65.3112 16.8669C65.2979 17.1348 65.3955 17.315 65.6055 17.4037C65.8119 17.4908 66.0091 17.4351 66.1956 17.2403C66.323 17.1031 66.4443 16.8981 66.5594 16.6255C66.6761 16.3491 66.7385 16.1192 66.7464 15.9359C66.7576 15.6627 66.6584 15.4862 66.4521 15.3991Z" fill="white"/>
<path d="M68.9042 16.1301L69.2217 16.282L67.989 18.8583L67.5669 18.6563L68.5561 16.5888C68.3337 16.6553 68.0887 16.6667 67.8178 16.6213L68.0181 16.2027C68.1473 16.2291 68.2942 16.2373 68.4586 16.2273C68.6265 16.2101 68.7745 16.1789 68.9042 16.1301Z" fill="white"/>
<path d="M71.2501 17.2578C71.5567 17.4225 71.7341 17.6586 71.7769 17.9677C71.8216 18.2732 71.7418 18.6163 71.5336 19.0039C71.314 19.4126 71.0461 19.7001 70.7406 19.8629C70.4317 20.0239 70.131 20.0258 69.842 19.8706C69.3452 19.6037 69.1898 19.2251 69.376 18.7348L69.7777 18.9506C69.7021 19.2097 69.7841 19.4036 70.0273 19.5342C70.1929 19.6232 70.3722 19.6105 70.5615 19.5033C70.7399 19.3994 70.8934 19.2321 71.0183 18.9995L71.0353 18.9678L71.0177 18.9583C70.8888 19.0208 70.7591 19.051 70.6304 19.0454C70.5071 19.0382 70.3811 19.0023 70.2542 18.9342C70.0076 18.8017 69.8503 18.6127 69.7893 18.3711C69.7246 18.1366 69.7621 17.8979 69.8946 17.6512C70.0309 17.3975 70.2271 17.235 70.4833 17.1638C70.7414 17.089 70.9964 17.1216 71.2501 17.2578ZM71.0806 17.6072C70.9326 17.5277 70.7863 17.5127 70.6417 17.5621C70.497 17.6116 70.3866 17.7157 70.3033 17.8708C70.22 18.0258 70.1961 18.1719 70.2385 18.3127C70.2738 18.4497 70.3671 18.5634 70.5222 18.6467C70.6737 18.7281 70.82 18.7431 70.9573 18.6989C71.093 18.6491 71.2069 18.5469 71.294 18.3848C71.3811 18.2227 71.4015 18.0748 71.3591 17.9339C71.3167 17.7931 71.2215 17.6829 71.0806 17.6072Z" fill="white"/>
<path d="M74.631 19.907C74.5882 19.9464 74.5508 19.9845 74.5079 20.0239C74.3762 20.4076 74.2866 20.7608 74.2426 21.0856C74.5287 20.848 74.7976 20.539 75.0472 20.1618L74.631 19.907ZM73.8554 21.3504C73.884 21.0584 73.943 20.7475 74.0324 20.4176C73.9123 20.4988 73.793 20.5712 73.6799 20.6333L73.6273 20.2212C74.0447 19.9608 74.4779 19.5366 74.927 18.9485L75.2374 19.223C75.125 19.3605 75.0189 19.4879 74.9136 19.6063L75.7665 20.1284L75.5556 20.473L75.3679 20.3581C75.0112 20.8948 74.6262 21.3017 74.2073 21.5799C74.204 21.9531 74.2669 22.287 74.3981 22.5784L74.0227 22.7472C73.9072 22.4608 73.8449 22.1413 73.8391 21.7907C73.5326 21.9313 73.2094 22.0149 72.8751 22.04L72.8746 21.6271C73.2205 21.6137 73.5479 21.5233 73.8554 21.3504ZM72.6343 19.7212L72.9436 19.9668C72.8918 20.0055 72.8434 20.0462 72.7971 20.0835L73.4828 20.5033L73.3074 20.7898C73.1283 20.9522 72.9173 21.067 72.6753 21.1252C72.7729 21.2646 72.8649 21.4054 72.9494 21.5509L72.5871 21.7137C72.5055 21.5559 72.3987 21.3779 72.2667 21.1799C71.9538 21.1853 71.6051 21.1266 71.2131 21.0086L71.231 20.6116C71.5101 20.7073 71.7654 20.7652 71.9964 20.794C71.8954 20.6524 71.7842 20.5046 71.6696 20.3548C71.835 20.2684 71.9881 20.1792 72.1268 20.0906L71.7891 19.8838L71.9749 19.5802L72.4491 19.8705C72.5148 19.8169 72.5762 19.7701 72.6343 19.7212ZM72.4361 20.7958C72.6428 20.7723 72.8258 20.7108 72.9831 20.6148L72.4782 20.3057C72.3795 20.3672 72.2796 20.4233 72.1817 20.4759C72.27 20.5769 72.3541 20.6846 72.4361 20.7958ZM73.3639 18.062C73.3582 18.2321 73.3395 18.4083 73.3043 18.5884L72.9829 18.5464C73.015 18.3409 73.031 18.1537 73.0332 17.9816L73.3639 18.062ZM74.3246 18.6454L74.5006 18.9173C74.3446 19.0188 74.1737 19.1065 73.9844 19.1782L73.8126 18.8995C74.0074 18.8265 74.1797 18.7443 74.3246 18.6454ZM72.6855 18.4347L73.3201 18.8231L73.6981 18.2056L74.0256 18.4061L73.6476 19.0236L74.2275 19.3786L74.0375 19.6891L73.4575 19.3341L73.4534 19.3409C73.5869 19.5211 73.7176 19.7137 73.8454 19.9186L73.49 20.0855C73.4156 19.8852 73.3505 19.7235 73.2946 19.6002L73.0754 19.9584L72.7479 19.7579L73.0757 19.2223C72.8177 19.3833 72.5171 19.4759 72.1629 19.503L72.1609 19.1078C72.4599 19.1173 72.7072 19.0811 72.9015 18.9937L72.4955 18.7451L72.6855 18.4347Z" fill="white"/>
<path d="M74.8347 23.2345L74.5549 23.0413L74.7052 22.6688C74.7784 22.7387 74.8506 22.8032 74.9263 22.8554C74.9954 22.9031 75.0612 22.8853 75.118 22.803L75.577 22.1381C75.4378 22.1003 75.3019 22.0649 75.165 22.0238L75.3102 21.6234C75.4745 21.6882 75.6433 21.7464 75.8134 21.7958L76.2678 21.1374L75.9123 20.892L76.1419 20.5595L76.4974 20.8049L76.8996 20.2223L77.2354 20.4541L76.8331 21.0367L77.1129 21.2299L76.8834 21.5624L76.6036 21.3692L76.2423 21.8926C76.364 21.9134 76.4824 21.932 76.5998 21.945L76.368 22.2807C76.244 22.2632 76.1256 22.2446 76.0105 22.2283L75.3947 23.1204C75.2401 23.3443 75.052 23.3845 74.8347 23.2345ZM76.8543 22.5338C76.4353 23.0563 75.9762 23.4538 75.4779 23.732L75.3739 23.3054C75.8765 23.035 76.3578 22.5702 76.8156 21.9141L77.57 20.8212L79.3739 22.0665L78.7717 22.9388L78.1792 22.5298L77.9656 22.8392L78.6305 23.2983L78.4147 23.611L77.7497 23.152L77.5316 23.468L78.0517 23.827L77.2699 24.9594L76.9539 24.7412L77.0471 24.6063L76.3064 24.095L76.2133 24.2299L75.8973 24.0118L76.679 22.8794L77.1958 23.2362L77.414 22.9202L76.8543 22.5338ZM77.8434 22.298L77.3003 21.9231L77.148 22.1436C77.1276 22.1732 77.1038 22.2006 77.0834 22.2302L77.6298 22.6074L77.8434 22.298ZM76.5155 23.7921L77.2562 24.3034L77.5266 23.9117L76.7859 23.4004L76.5155 23.7921ZM78.8223 22.1474L77.6866 21.3634L77.5094 21.6202L78.645 22.4042L78.8223 22.1474Z" fill="white"/>
<path d="M79.9866 22.3299L80.2895 22.5594C80.2823 22.8802 80.2359 23.1863 80.1449 23.4787C80.0376 23.819 79.8784 24.135 79.6561 24.4283C79.4387 24.7152 79.1751 24.9571 78.8765 25.1524C78.6245 25.3127 78.3423 25.4401 78.033 25.537L77.7301 25.3075C78.03 25.1834 78.2987 25.0407 78.5363 24.8795C78.8389 24.6722 79.0969 24.4311 79.3047 24.1569C79.5149 23.8795 79.6772 23.566 79.7926 23.2217C79.8859 22.9462 79.9506 22.6489 79.9866 22.3299Z" fill="white"/>
<path d="M83.367 24.9171L82.8293 26.8884L81.0077 27.8139L80.8395 27.4757L82.5099 26.6282L83.0018 24.8208L83.367 24.9171ZM83.9067 25.3566L83.369 27.3279L81.5473 28.2534L81.3791 27.9152L83.0496 27.0677L83.529 25.2503L83.9067 25.3566Z" fill="white"/>
<g clip-path="url(#clip0_255_5017)">
<path d="M4.59867 4.67448C5.16756 3.72768 4.86121 2.49896 3.91441 1.93007C2.96761 1.36117 1.73889 1.66753 1.17 2.61433C0.601102 3.56113 0.907455 4.78984 1.85426 5.35874C2.80106 5.92763 4.02977 5.62128 4.59867 4.67448Z" fill="white"/>
<path d="M3.47805 4.00109C3.27653 4.33647 2.8413 4.445 2.50592 4.24348C2.17054 4.04197 2.06203 3.60673 2.26354 3.27135C2.46506 2.93597 2.90029 2.82745 3.23568 3.02897C3.57106 3.23049 3.67956 3.66572 3.47805 4.00109Z" fill="#485CC2"/>
<path fill-rule="evenodd" clip-rule="evenodd" d="M2.51743 3.02208C2.42061 3.11525 2.27561 3.33917 2.4337 3.52984C2.59463 3.72393 2.79955 3.6807 2.88189 3.63482C2.96573 3.59998 3.16504 3.56879 3.29164 3.72277C3.41825 3.87675 3.38362 4.02554 3.35048 4.0807L3.26285 4.22653C3.34791 4.17014 3.42204 4.0944 3.47811 4.00109C3.67962 3.66572 3.57112 3.23049 3.23573 3.02897C3.0075 2.89183 2.73303 2.89828 2.51743 3.02208Z" fill="#D74B4B"/>
<path fill-rule="evenodd" clip-rule="evenodd" d="M1.885 2.39512L2.53923 2.10385L2.58454 2.20561L1.9303 2.49688L1.885 2.39512ZM1.9728 2.55918L2.62703 2.26791L2.67234 2.36967L2.01811 2.66094L1.9728 2.55918ZM2.70401 2.42249L2.04978 2.71376L2.09508 2.81553L2.74931 2.52425L2.70401 2.42249Z" fill="#333333"/>
<path fill-rule="evenodd" clip-rule="evenodd" d="M4.45657 3.94024L4.43492 3.63073L4.32372 3.63729L4.34546 3.94802L4.45657 3.94024ZM4.4066 3.22585L4.42716 3.51961L4.31594 3.52617L4.29549 3.23362L4.4066 3.22585ZM4.27049 3.93974L4.22053 3.22535L4.10941 3.23312L4.15937 3.94751L4.27049 3.93974ZM3.9662 3.6584L3.98676 3.95213L4.09787 3.94435L4.07742 3.65184L3.9662 3.6584ZM4.06964 3.54071L3.95844 3.54728L3.93678 3.23772L4.0479 3.22995L4.06964 3.54071Z" fill="#333333"/>
<path fill-rule="evenodd" clip-rule="evenodd" d="M3.60014 5.01992L3.88358 4.89373L3.83829 4.79197L3.55373 4.91865L3.60014 5.01992ZM3.49838 5.06523L3.22936 5.185L3.18406 5.08325L3.45196 4.96396L3.49838 5.06523ZM3.40452 4.59308L3.67352 4.47333L3.71881 4.57509L3.45094 4.69436L3.40452 4.59308ZM3.34917 4.73966L3.30276 4.6384L3.01927 4.7646L3.06459 4.86636L3.34917 4.73966ZM3.79579 4.72967L3.52281 4.85119L3.47641 4.74993L3.75048 4.62791L3.79579 4.72967ZM3.14156 5.02095L3.42106 4.89651L3.37464 4.79523L3.09626 4.91918L3.14156 5.02095Z" fill="#333333"/>
<path fill-rule="evenodd" clip-rule="evenodd" d="M1.31214 3.34862L1.36211 4.06301L1.47322 4.05524L1.42326 3.34084L1.31214 3.34862ZM1.67084 3.34451L1.72081 4.0589L1.83192 4.05114L1.78197 3.33673L1.67084 3.34451ZM1.49823 3.34911L1.51907 3.64719L1.63027 3.64063L1.60934 3.34135L1.49823 3.34911ZM1.54819 4.06352L1.52684 3.75832L1.63804 3.75175L1.65931 4.05574L1.54819 4.06352Z" fill="#333333"/>
</g>
<defs>
<clipPath id="clip0_255_5017">
<rect width="4" height="4" fill="white" transform="translate(2.20007 0.899994) rotate(31)"/>
</clipPath>
</defs>
</svg>
