<svg width="86" height="26" viewBox="0 0 86 26" fill="none" xmlns="http://www.w3.org/2000/svg">
<path d="M7.01386 3.3854L7.24078 3.70547L5.68948 4.76689L5.45153 6.62483L5.0765 6.57983L5.33721 4.55324L7.01386 3.3854ZM7.60896 3.74632L7.8222 4.05809L6.28459 5.12781L6.04664 6.98575L5.67161 6.94075L5.93232 4.91416L7.60896 3.74632Z" fill="white"/>
<path d="M9.17192 5.53379L9.80721 5.95093L10.1453 5.43601L10.4964 5.66653L10.1583 6.18145L10.8137 6.61176L9.87181 8.04618L9.2198 7.61807L8.81144 8.23999C8.95167 8.30336 9.08741 8.35899 9.20758 8.40918C9.25423 8.25797 9.29534 8.10791 9.33425 7.96119L9.67878 8.04865C9.60251 8.40531 9.48986 8.7955 9.3353 9.22039L8.96277 9.09541C9.00637 8.98527 9.04778 8.87848 9.0848 8.77837C8.71551 8.64117 8.1734 8.38092 7.45846 7.99762L7.63549 7.61141C7.92513 7.78246 8.19243 7.92925 8.43516 8.05513L8.87206 7.38975L8.23007 6.96822L9.17192 5.53379ZM9.74486 7.50345L10.2652 6.71101L9.94419 6.50025L9.42387 7.29269L9.74486 7.50345ZM9.08951 7.07315L9.60983 6.2807L9.30221 6.07872L8.78189 6.87117L9.08951 7.07315ZM9.23155 4.85995L9.40275 5.22598C9.13288 5.34546 8.88497 5.43152 8.66341 5.47744C8.65483 5.51966 8.6474 5.56742 8.63882 5.60964C8.5613 5.94634 8.36232 6.36599 8.04523 6.87078C7.68517 7.41914 7.40315 7.7029 7.19476 7.72877C7.07499 7.73627 6.94823 7.6961 6.81783 7.61048C6.69412 7.52925 6.59935 7.46224 6.53132 7.41279L6.64063 7.0204C6.74553 7.10842 6.8426 7.18651 6.94291 7.25237C7.02984 7.30945 7.09651 7.32452 7.14741 7.3053C7.26363 7.26677 7.45734 7.04463 7.72518 6.63671C7.78007 6.55312 7.82722 6.47402 7.86998 6.40161C7.58225 6.50458 7.29087 6.56209 6.99585 6.57414L6.99177 6.15037C7.40447 6.14859 7.77893 6.07385 8.11736 5.92282C8.17299 5.78708 8.2165 5.66252 8.24234 5.55029C8.24338 5.5414 8.24558 5.53806 8.24558 5.53806C8.06813 5.54596 7.87291 5.55176 7.66097 5.54659L7.67685 5.12157C7.87008 5.14795 8.07313 5.15208 8.28267 5.13175C8.28346 4.9265 8.25539 4.72145 8.19849 4.51661L8.61098 4.48598C8.65232 4.68539 8.67693 4.87382 8.68264 5.05462C8.85759 5.0068 9.04352 4.94226 9.23155 4.85995Z" fill="white"/>
<path d="M11.4744 7.01858L12.6752 7.849C12.7315 7.6691 12.7777 7.4968 12.8128 7.32652L13.2597 7.53829C13.2056 7.7149 13.1369 7.90568 13.0601 8.11519L14.261 8.94561L14.0312 9.2779L11.2446 7.35087L11.4744 7.01858ZM9.94283 8.99416L11.5549 10.109C12.0382 9.81096 12.5667 9.39832 13.1483 8.86676L13.4452 9.21799C12.9357 9.68754 12.4375 10.0774 11.953 10.3843L12.9531 11.0759L12.7234 11.4082L9.71304 9.32645L9.94283 8.99416ZM11.9454 8.02521C11.7967 8.54972 11.585 9.12308 11.3192 9.74657L10.8837 9.5816C11.1263 9.01985 11.3345 8.45863 11.4994 7.89667L11.9454 8.02521Z" fill="white"/>
<path d="M15.2317 10.787L14.9935 11.1281C14.8454 11.1028 14.694 11.0751 14.5481 11.0465L13.9024 11.9714C13.7467 12.1944 13.5551 12.2313 13.3386 12.0802L13.027 11.8627L13.1773 11.4798C13.2632 11.5593 13.3449 11.631 13.4302 11.6905C13.5023 11.7409 13.5692 11.729 13.6241 11.6503L14.1164 10.9451C13.942 10.9014 13.7689 10.8489 13.6014 10.7953L13.752 10.398C13.9477 10.481 14.147 10.5518 14.3499 10.6106L14.817 9.94146L14.3808 9.63694L14.6075 9.31223L15.0437 9.61676L15.433 9.05919L15.7708 9.29503L15.3815 9.8526L15.7128 10.0839L15.4861 10.4086L15.1549 10.1773L14.7794 10.7152C14.9275 10.7406 15.0789 10.7682 15.2317 10.787ZM15.4501 11.4176L14.438 12.8673L14.1133 12.6406L16.1603 9.70841L17.7018 10.7846C17.4271 11.1781 17.2186 11.4278 17.0844 11.5292C16.9515 11.6218 16.7735 11.5902 16.5505 11.4345L16.3012 11.2605L16.4131 10.9045C16.4623 10.9388 16.5224 10.9856 16.5978 11.0383C16.6732 11.0909 16.7313 11.1266 16.7752 11.1475C16.8149 11.1606 16.8582 11.1615 16.9007 11.1424C16.9502 11.1135 17.0376 11.0233 17.1586 10.8639L16.2698 10.2434L15.6676 11.106L16.9041 11.9692L16.698 12.2644C16.4175 12.5613 16.1167 12.7757 15.7977 12.9042C15.856 13.1352 15.9474 13.3746 16.0719 13.6225L15.6568 13.7279C15.5523 13.4793 15.4786 13.2425 15.4324 13.0151C15.1739 13.0639 14.9098 13.0649 14.6378 13.0214L14.6844 12.6051C14.9299 12.6448 15.1619 12.6409 15.3781 12.5967C15.3534 12.1989 15.4178 11.8341 15.5747 11.5046L15.4501 11.4176ZM15.8764 11.7152C15.7725 11.9549 15.726 12.2102 15.7368 12.4812C15.9576 12.3817 16.1681 12.2408 16.3651 12.0564L15.8764 11.7152Z" fill="white"/>
<path d="M19.65 14.5499L18.7988 15.8285L18.4459 15.5935L18.55 15.437L16.9984 14.4041L16.8942 14.5606L16.5413 14.3256L17.3925 13.047L19.65 14.5499ZM17.2157 14.0778L18.7673 15.1107L19.0798 14.6412L17.5282 13.6083L17.2157 14.0778ZM18.3471 12.1833C18.1342 12.2578 17.9101 12.3056 17.6816 12.3313L17.6569 11.9208C18.1073 11.8795 18.4966 11.7206 18.8259 11.4497L19.1456 11.7202C19.0247 11.8223 18.9005 11.9078 18.7719 11.9855L19.2913 12.3313L19.5795 11.8985L19.9291 12.1312L19.6409 12.5641L20.6898 13.2623L20.4681 13.5953L19.4193 12.897L19.1333 13.3266L20.4385 14.1955L20.2124 14.5351L17.1691 12.5091L17.3952 12.1695L18.7837 13.0938L19.0696 12.6643L18.3471 12.1833Z" fill="white"/>
<path d="M21.0116 13.7478L21.4831 14.027L21.8581 13.3937L22.216 13.6056L21.8411 14.2389L22.2266 14.4672L22.0207 14.8148L21.6352 14.5866L21.5598 14.7139C21.6237 14.9516 21.6807 15.2085 21.7297 15.4792L21.3322 15.6716C21.3377 15.4424 21.3428 15.2455 21.3418 15.0822L20.3392 16.7757L19.9812 16.5637L20.9044 15.0045C20.6306 15.2236 20.3449 15.4077 20.0473 15.557L20.1248 15.0729C20.541 14.9195 20.9182 14.6827 21.2601 14.3645L20.8057 14.0955L21.0116 13.7478ZM20.6417 16.6573C20.9016 16.5323 21.1319 16.3711 21.3215 16.1765C21.4824 16.0068 21.6797 15.7285 21.9099 15.3396L22.6864 14.0282L23.8979 14.7455L22.3512 17.358C22.3329 17.3889 22.333 17.4123 22.3571 17.4265L22.4604 17.4877C22.4879 17.504 22.5126 17.5093 22.5345 17.5037C22.5565 17.4981 22.5756 17.4815 22.5967 17.4615C22.639 17.4214 22.7702 17.2156 22.9862 16.8507L23.2555 17.1496C23.1006 17.4112 22.9721 17.6047 22.8809 17.7274C22.7897 17.85 22.7023 17.9191 22.6146 17.9416C22.5331 17.9537 22.4293 17.9248 22.3088 17.8535L22.154 17.7618C21.8889 17.6049 21.8274 17.4104 21.9619 17.1833L23.3334 14.8668L22.8446 14.5774L22.2679 15.5515C22.0376 15.9405 21.811 16.2525 21.586 16.4912C21.3645 16.7319 21.0954 16.9352 20.7828 17.0941L20.6417 16.6573Z" fill="white"/>
<path d="M24.7387 16.0485C24.6183 16.1501 24.4993 16.2214 24.3819 16.2711L24.1806 15.9069C24.4351 15.8035 24.667 15.6003 24.8726 15.2954L25.1974 15.524C25.1376 15.6106 25.0778 15.6883 25.0178 15.757L25.3057 15.8966L25.5081 15.479L25.8825 15.6605L25.6801 16.078L26.31 16.3833L26.1425 16.7289L25.5126 16.4236L25.3416 16.7763L26.0759 17.1322L25.9067 17.4814L25.1724 17.1255L25.0398 17.399L25.7309 17.734L25.2634 18.6986C25.1447 18.9434 24.9541 19.0066 24.6985 18.8827L24.5257 18.799L24.6014 18.4045L24.7438 18.4957C24.8374 18.5411 24.907 18.5259 24.9454 18.4467L25.2071 17.9068L24.8723 17.7446L24.2722 18.9828L23.8978 18.8013L24.498 17.5631L24.1668 17.4026L23.6748 18.4177L23.3113 18.2415L23.9708 16.8809L24.6655 17.2176L24.7981 16.944L23.9702 16.5428L24.1394 16.1936L24.9673 16.5949L25.1383 16.2421L24.7387 16.0485ZM26.6128 16.4189L26.9763 16.5951L25.9121 18.7908L25.5486 18.6146L26.6128 16.4189ZM25.8825 19.7233L25.3461 19.4633L25.4361 19.0668C25.6019 19.165 25.7603 19.2507 25.9151 19.3257C26.0015 19.3676 26.0674 19.3417 26.1127 19.2481L27.4753 16.4369L27.8496 16.6184L26.44 19.5268C26.3179 19.7787 26.1308 19.8436 25.8825 19.7233Z" fill="white"/>
<path d="M28.6195 17.7445C28.7022 17.7745 28.7603 17.8254 28.7986 17.9075C28.8345 17.9843 28.8386 18.0667 28.8085 18.1494C28.7785 18.2321 28.7238 18.2889 28.6469 18.3247C28.5663 18.3593 28.4877 18.3648 28.4049 18.3347C28.3222 18.3046 28.2617 18.2486 28.2258 18.1717C28.19 18.0948 28.1882 18.0176 28.2183 17.9349C28.2484 17.8522 28.3006 17.7903 28.3775 17.7544C28.4558 17.7148 28.5368 17.7144 28.6195 17.7445ZM28.1194 19.1204C28.2021 19.1505 28.2602 19.2014 28.2985 19.2834C28.3344 19.3603 28.3385 19.4426 28.3084 19.5253C28.2783 19.608 28.2237 19.6648 28.1468 19.7007C28.0661 19.7352 27.9875 19.7407 27.9048 19.7106C27.8221 19.6806 27.7616 19.6245 27.7257 19.5476C27.6898 19.4708 27.6881 19.3935 27.7182 19.3108C27.7482 19.2281 27.8005 19.1662 27.8774 19.1303C27.9557 19.0907 28.0367 19.0903 28.1194 19.1204Z" fill="white"/>
<path d="M31.6237 18.3497L32.1632 18.4839L32.2433 18.1618L32.6393 18.2602L32.5592 18.5824L33.1065 18.7185L33.0157 19.0834L32.4684 18.9473L32.4105 19.1802L32.9229 19.3076L32.5541 20.7905L32.0378 20.6621L31.976 20.9105L32.5816 21.0611L32.4918 21.4221L31.8862 21.2715L31.7443 21.8421L31.3484 21.7436L31.4903 21.173L30.9274 21.033L31.0172 20.672L31.5801 20.812L31.6419 20.5636L31.1683 20.4458L31.5371 18.963L32.0145 19.0817L32.0725 18.8488L31.5329 18.7146L31.6237 18.3497ZM32.2683 20.3649L32.3301 20.1165L31.6858 19.9562L31.624 20.2047L32.2683 20.3649ZM31.7649 19.6379L32.4093 19.7982L32.4711 19.5497L31.8267 19.3895L31.7649 19.6379ZM33.1212 18.8747L33.7617 19.034L33.8776 18.5682L34.2735 18.6667L34.1576 19.1325L34.9534 19.3304L34.8569 19.7186L34.0611 19.5207L33.9781 19.8545L34.6224 20.0147L34.5288 20.3913L33.8844 20.231L33.7821 20.6425L34.6361 20.8549C34.4796 21.4177 34.3568 21.7623 34.26 21.8866C34.1515 22.0575 33.9993 22.1227 33.7974 22.0724C33.7353 22.057 33.6674 22.0319 33.5878 22.0038L33.5582 21.609C33.6708 21.6535 33.7659 21.6854 33.8435 21.7047C33.9027 21.7153 33.9551 21.6706 33.9967 21.5697C34.0296 21.5202 34.0789 21.3717 34.1465 21.1329L33.6885 21.019L33.3824 22.2495L32.9865 22.151L33.2925 20.9205L32.6908 20.7709L32.7845 20.3944L33.3862 20.544L33.4885 20.1325L32.9683 20.0032L33.062 19.6266L33.5821 19.756L33.6652 19.4222L33.0247 19.2629L33.1212 18.8747Z" fill="white"/>
<path d="M36.0323 19.8036L37.9908 20.0943L37.9356 20.4662L37.168 20.3523L37.1011 20.8033L37.746 20.8991L37.692 21.2631L37.0471 21.1674L36.9701 21.6857L37.3302 21.7391C37.2886 21.5833 37.2362 21.4461 37.1735 21.3236L37.5177 21.2655C37.5866 21.4011 37.6457 21.5474 37.6873 21.7032L37.4805 21.7614L37.8525 21.8166L37.7972 22.1886L35.6171 21.865L35.6723 21.4931L36.5507 21.6234L36.6277 21.1051L35.9827 21.0094L36.0367 20.6454L36.6817 20.7411L36.7486 20.29L35.9771 20.1755L36.0323 19.8036ZM38.7845 19.5691L38.2624 23.0866L37.843 23.0244L37.8648 22.878L35.3483 22.5044L35.3266 22.6508L34.9072 22.5886L35.4293 19.0711L38.7845 19.5691ZM35.4059 22.1167L37.9223 22.4902L38.3076 19.8946L35.7911 19.5211L35.4059 22.1167Z" fill="white"/>
<path d="M39.7228 19.5605C39.9638 19.771 40.1649 19.9785 40.3262 20.183L40.0215 20.4491C39.8796 20.254 39.6791 20.0385 39.4193 19.8106L39.7228 19.5605ZM39.1078 20.6538L40.0292 20.7225L39.9059 22.3779C40.0293 22.2828 40.1613 22.1803 40.3021 22.0665L40.3851 22.5139C40.104 22.7336 39.809 22.9242 39.4995 23.0936L39.3679 22.7068C39.4402 22.652 39.4818 22.5789 39.4883 22.4911L39.5926 21.091L39.0781 21.0527L39.1078 20.6538ZM40.5002 21.2389L42.4468 21.384L42.4185 21.7629C42.2813 22.0976 42.0755 22.3831 41.8015 22.6154C42.0369 22.7934 42.3256 22.9553 42.6714 23.1054L42.4213 23.4478C42.0423 23.2591 41.7243 23.0589 41.4756 22.8438C41.1481 23.04 40.7561 23.1873 40.2915 23.285L40.0863 22.9168C40.5061 22.8277 40.8644 22.702 41.1653 22.5399C40.929 22.2656 40.7703 21.973 40.6978 21.6547L40.4704 21.6378L40.5002 21.2389ZM41.0887 21.6839C41.1595 21.9178 41.2877 22.1359 41.4814 22.3348C41.6985 22.1665 41.8693 21.9747 41.9982 21.7516L41.0887 21.6839ZM40.8865 19.7154L42.3225 19.8224L42.2609 20.6481C42.2544 20.7359 42.2987 20.7873 42.3984 20.7947L42.7415 20.8203L42.7132 21.1993L42.2585 21.1654C41.9593 21.1431 41.8221 20.9925 41.8429 20.7132L41.8825 20.1827L41.2682 20.1369L41.2602 20.2446C41.2292 20.6595 40.9898 20.9665 40.5503 21.1584L40.2948 20.8185C40.6403 20.7038 40.8267 20.5172 40.846 20.2579L40.8865 19.7154Z" fill="white"/>
<path d="M44.3258 20.9282L45.3576 20.9486L45.3805 19.7888L45.8125 19.7974L45.7895 20.9572L46.7693 20.9765L46.7611 21.3924L45.7813 21.3731L45.7389 23.5167L45.307 23.5081L45.3494 21.3645L44.3176 21.3441L44.3258 20.9282ZM43.6443 19.7865C43.8923 19.9875 44.1044 20.1877 44.2806 20.3832L43.9869 20.6695C43.8385 20.4825 43.6225 20.2822 43.3426 20.0686L43.6443 19.7865ZM43.0655 20.9313L44.0173 20.9501L43.9843 22.6218C44.1022 22.5241 44.2284 22.4146 44.3628 22.2932L44.4624 22.7233C44.1977 22.9581 43.9175 23.1686 43.6177 23.3547L43.4652 22.9756C43.5384 22.917 43.5758 22.8458 43.5774 22.7618L43.6055 21.3421L43.0576 21.3312L43.0655 20.9313Z" fill="white"/>
<path d="M48.286 21.3306L48.2971 21.7464C48.1629 21.8141 48.0247 21.8818 47.8903 21.9454L47.9206 23.073C47.9279 23.3449 47.7957 23.4885 47.5318 23.4956L47.1519 23.5058L47.0452 23.1085C47.1616 23.1214 47.2699 23.1305 47.3739 23.1277C47.4618 23.1253 47.5085 23.0761 47.5059 22.9801L47.4829 22.1204C47.3166 22.1889 47.1462 22.2495 46.9797 22.306L46.8646 21.8969C47.0714 21.8474 47.2738 21.7859 47.4719 21.7126L47.45 20.8969L46.9182 20.9111L46.9076 20.5153L47.4394 20.501L47.4211 19.8213L47.833 19.8102L47.8512 20.4899L48.2551 20.4791L48.2657 20.875L47.8619 20.8858L47.8795 21.5416C48.0137 21.4739 48.1519 21.4062 48.286 21.3306ZM48.8363 21.708L48.8837 23.4753L48.4879 23.4859L48.3919 19.9112L50.2712 19.8608C50.2841 20.3406 50.2648 20.6652 50.2171 20.8266C50.1652 20.98 50.0033 21.0604 49.7314 21.0677L49.4275 21.0759L49.306 20.723C49.366 20.7214 49.4421 20.7233 49.534 20.7209C49.626 20.7184 49.6939 20.7126 49.7416 20.7033C49.7813 20.6902 49.8167 20.6653 49.8396 20.6246C49.8622 20.572 49.8788 20.4475 49.8815 20.2474L48.7978 20.2765L48.8261 21.3281L50.3335 21.2876L50.3432 21.6475C50.2941 22.053 50.1794 22.4042 49.9992 22.6971C50.1834 22.8482 50.3992 22.9865 50.6466 23.1119L50.3754 23.4433C50.1436 23.3054 49.9436 23.1588 49.7714 23.0033C49.5925 23.1962 49.3806 23.3539 49.136 23.4805L48.9262 23.118C49.1472 23.0041 49.3315 22.8631 49.4791 22.6991C49.2228 22.3938 49.0579 22.0621 48.9882 21.7039L48.8363 21.708ZM49.3561 21.694C49.4149 21.9485 49.5292 22.1815 49.699 22.393C49.8173 22.1818 49.903 21.9434 49.9519 21.678L49.3561 21.694Z" fill="white"/>
<path d="M54.1325 21.6492L54.2402 23.1814L53.8173 23.2112L53.8041 23.0236L51.9447 23.1544L51.9579 23.342L51.5349 23.3717L51.4271 21.8395L54.1325 21.6492ZM51.9172 22.7634L53.7766 22.6326L53.737 22.07L51.8776 22.2008L51.9172 22.7634ZM51.6548 20.5724C51.5318 20.7615 51.3837 20.9363 51.2185 21.0963L50.9481 20.7865C51.2793 20.4785 51.4903 20.1148 51.5853 19.6991L52.0037 19.7178C51.9705 19.8725 51.9244 20.0161 51.8701 20.1563L52.4926 20.1125L52.4561 19.5938L52.8751 19.5643L52.9116 20.083L54.1684 19.9946L54.1965 20.3936L52.9396 20.482L52.9758 20.9968L54.54 20.8867L54.5686 21.2937L50.9216 21.5503L50.893 21.1433L52.5569 21.0262L52.5207 20.5115L51.6548 20.5724Z" fill="white"/>
<path d="M56.0903 19.6546C56.3648 19.6254 56.6 19.6809 56.7959 19.8209C56.9878 19.9614 57.0969 20.155 57.1239 20.4096C57.1501 20.6562 57.0784 20.8891 56.9169 21.1114C56.8183 21.2425 56.6354 21.4148 56.3769 21.6314C56.1068 21.8532 55.9496 22.0388 55.9011 22.1888L57.3012 22.04L57.3448 22.4497L55.364 22.6602C55.3331 22.3698 55.3979 22.1095 55.566 21.8744C55.6568 21.7441 55.8569 21.5459 56.163 21.284C56.3324 21.1373 56.4483 21.0164 56.519 20.9244C56.6275 20.7721 56.675 20.6142 56.6581 20.4551C56.6416 20.2999 56.5856 20.1892 56.498 20.1221C56.4065 20.0554 56.2794 20.0327 56.1163 20.0501C55.9413 20.0687 55.8163 20.1423 55.7415 20.2709C55.6659 20.3916 55.6363 20.5677 55.652 20.7913L55.1866 20.8408C55.1568 20.5221 55.2212 20.2578 55.3835 20.0435C55.5484 19.8168 55.7841 19.6871 56.0903 19.6546Z" fill="white"/>
<path d="M59.0529 19.2949C59.3818 19.2498 59.6579 19.3492 59.8822 19.601C60.0925 19.8387 60.228 20.1794 60.2889 20.6233C60.3498 21.0671 60.311 21.4318 60.1725 21.7172C60.0237 22.0162 59.7852 22.1902 59.4562 22.2354C59.1233 22.281 58.8467 22.1776 58.6269 21.9292C58.4167 21.6916 58.2811 21.3508 58.2203 20.907C58.1594 20.4631 58.1982 20.0985 58.3367 19.813C58.4809 19.5106 58.72 19.3405 59.0529 19.2949ZM59.1067 19.6872C58.8808 19.7182 58.7392 19.8628 58.6828 20.1289C58.6428 20.308 58.6432 20.5462 58.6839 20.8434C58.7241 21.1366 58.7879 21.3661 58.8752 21.5318C59.0006 21.7689 59.1765 21.874 59.4024 21.843C59.6243 21.8126 59.7655 21.664 59.8263 21.4013C59.8658 21.2183 59.8655 20.9801 59.8252 20.6868C59.7845 20.3896 59.7207 20.1602 59.6339 19.9985C59.504 19.7579 59.3287 19.6568 59.1067 19.6872Z" fill="white"/>
<path d="M61.5126 18.9833L61.86 18.9269L62.3175 21.7461L61.8556 21.821L61.4884 19.5586C61.3436 19.7402 61.149 19.8893 60.9006 20.0066L60.8263 19.5486C60.9475 19.4965 61.0728 19.4194 61.2021 19.3174C61.3301 19.2074 61.4339 19.0974 61.5126 18.9833Z" fill="white"/>
<path d="M63.9435 18.4991C64.2422 18.4426 64.4969 18.4759 64.7081 18.6029C64.8921 18.7146 65.0081 18.8759 65.0482 19.0881C65.075 19.2296 65.0666 19.3574 65.0223 19.4675C64.9709 19.5831 64.8843 19.685 64.7571 19.766L64.7586 19.7739C64.895 19.7847 65.0238 19.8418 65.1412 19.9458C65.2726 20.0593 65.3566 20.2022 65.3893 20.3751C65.4369 20.6267 65.3805 20.845 65.2294 21.0364C65.0737 21.2246 64.8291 21.3523 64.4951 21.4154C64.1571 21.4794 63.8828 21.4498 63.673 21.3307C63.4585 21.2084 63.3302 21.0251 63.2827 20.7736C63.25 20.6006 63.2721 20.4377 63.3568 20.2832C63.4281 20.1435 63.5233 20.0441 63.6503 19.9835L63.6488 19.9756C63.4969 19.9474 63.3791 19.8841 63.2929 19.7946C63.2115 19.7082 63.157 19.5923 63.1302 19.4508C63.0901 19.2386 63.1352 19.0469 63.2696 18.8749C63.416 18.6803 63.6409 18.5564 63.9435 18.4991ZM64.0127 18.8647C63.8476 18.8959 63.7221 18.9644 63.641 19.0734C63.5694 19.1683 63.544 19.2708 63.5655 19.3848C63.5901 19.5145 63.6448 19.61 63.7296 19.6713C63.8332 19.7453 63.9797 19.7665 64.1762 19.7293C64.3688 19.6929 64.5013 19.619 64.5707 19.5122C64.6273 19.4242 64.6434 19.3153 64.6189 19.1856C64.5973 19.0716 64.5362 18.9855 64.4349 18.9232C64.3156 18.8521 64.1777 18.8334 64.0127 18.8647ZM64.2409 20.0713C64.0443 20.1084 63.9039 20.1838 63.8196 20.2975C63.7345 20.4072 63.7103 20.538 63.7386 20.6873C63.7653 20.8288 63.838 20.9331 63.9605 20.9995C64.079 21.0667 64.2326 21.0824 64.4252 21.046C64.6138 21.0103 64.7543 20.9349 64.848 20.8276C64.9299 20.7226 64.9602 20.6029 64.9334 20.4614C64.9052 20.312 64.831 20.1998 64.7203 20.1312C64.5956 20.053 64.4374 20.0341 64.2409 20.0713Z" fill="white"/>
<path d="M65.9997 19.8185L67.9722 19.3832L68.0533 19.7503L66.0807 20.1857L65.9997 19.8185Z" fill="white"/>
<path d="M69.6892 17.2225C69.9565 17.1539 70.1973 17.1746 70.4114 17.2848C70.6217 17.396 70.7577 17.5717 70.8213 17.8197C70.883 18.0599 70.8458 18.3007 70.7183 18.5441C70.6397 18.6882 70.4838 18.8852 70.2593 19.1369C70.0243 19.3955 69.8956 19.602 69.8694 19.7574L71.2332 19.4072L71.3356 19.8062L69.4062 20.3017C69.3336 20.0189 69.36 19.7519 69.4923 19.4949C69.5632 19.3528 69.7325 19.1277 69.9973 18.8242C70.1437 18.6545 70.2408 18.518 70.2974 18.4168C70.3827 18.2503 70.4069 18.0872 70.3671 17.9322C70.3283 17.7811 70.2568 17.6797 70.1604 17.626C70.0601 17.5733 69.9311 17.5693 69.7722 17.6101C69.6018 17.6538 69.4888 17.7448 69.4334 17.8829C69.3761 18.0133 69.3724 18.1918 69.4203 18.4108L68.967 18.5272C68.8913 18.2162 68.9167 17.9454 69.0462 17.7098C69.1766 17.4616 69.3909 17.2991 69.6892 17.2225Z" fill="white"/>
<path d="M72.3217 16.4996C72.6402 16.4058 72.9281 16.4629 73.1875 16.6784C73.4308 16.882 73.6158 17.1987 73.7423 17.6284C73.8688 18.0582 73.8849 18.4246 73.7906 18.7275C73.6881 19.0454 73.4782 19.2531 73.1598 19.3468C72.8374 19.4417 72.5485 19.3808 72.294 19.168C72.0507 18.9644 71.8657 18.6477 71.7392 18.218C71.6127 17.7882 71.5966 17.4218 71.6909 17.1189C71.7884 16.7983 71.9994 16.5944 72.3217 16.4996ZM72.4336 16.8795C72.2148 16.9438 72.0964 17.108 72.0804 17.3795C72.0675 17.5626 72.1035 17.798 72.1882 18.0858C72.2718 18.3698 72.3691 18.5871 72.4802 18.7379C72.6396 18.9537 72.8292 19.0313 73.0479 18.9669C73.2628 18.9037 73.3802 18.7357 73.4011 18.4669C73.4128 18.28 73.3769 18.0445 73.2933 17.7606C73.2086 17.4728 73.1113 17.2554 73.0013 17.1085C72.8369 16.89 72.6484 16.8162 72.4336 16.8795Z" fill="white"/>
<path d="M75.278 15.5671C75.5394 15.4785 75.781 15.4811 76.0028 15.5749C76.2208 15.6699 76.3697 15.8349 76.4518 16.0773C76.5314 16.3122 76.5124 16.5552 76.4036 16.8075C76.3361 16.9571 76.1954 17.1652 75.9906 17.4331C75.7757 17.7087 75.6629 17.9243 75.6485 18.0812L76.982 17.6293L77.1142 18.0195L75.2276 18.6589C75.1339 18.3823 75.1402 18.1141 75.2527 17.8479C75.3127 17.7009 75.4645 17.4636 75.7058 17.1411C75.839 16.9608 75.9255 16.8174 75.9743 16.7122C76.0468 16.5398 76.0587 16.3753 76.0073 16.2238C75.9572 16.076 75.8783 15.9803 75.7782 15.934C75.6742 15.889 75.5452 15.8947 75.3899 15.9473C75.2232 16.0038 75.1175 16.103 75.0726 16.2449C75.0252 16.3792 75.035 16.5575 75.0993 16.7722L74.6561 16.9224C74.5571 16.6181 74.5621 16.3461 74.6735 16.1014C74.7848 15.8441 74.9863 15.666 75.278 15.5671Z" fill="white"/>
<path d="M77.9284 14.6053C78.2378 14.4848 78.5294 14.5172 78.8062 14.7099C79.066 14.8921 79.2772 15.1919 79.4398 15.6093C79.6023 16.0268 79.6495 16.3905 79.5813 16.7003C79.5063 17.0257 79.3148 17.2505 79.0054 17.371C78.6923 17.4929 78.3992 17.4568 78.1276 17.2664C77.8678 17.0843 77.6566 16.7845 77.4941 16.367C77.3315 15.9495 77.2843 15.5859 77.3525 15.276C77.4224 14.9483 77.6153 14.7272 77.9284 14.6053ZM78.0721 14.9743C77.8597 15.057 77.7556 15.2307 77.7627 15.5026C77.7655 15.6861 77.8213 15.9176 77.9302 16.1972C78.0376 16.473 78.153 16.6813 78.2765 16.8221C78.4537 17.0235 78.6493 17.0847 78.8617 17.002C79.0705 16.9207 79.1731 16.7434 79.1711 16.4737C79.1669 16.2865 79.1111 16.055 79.0037 15.7791C78.8948 15.4996 78.7793 15.2913 78.6573 15.1542C78.4749 14.9505 78.2808 14.893 78.0721 14.9743Z" fill="white"/>
<path d="M79.6942 13.4772L81.232 14.8226L81.2679 16.8655L80.8902 16.869L80.8584 14.9961L79.4479 13.7636L79.6942 13.4772ZM80.3254 13.184L81.8633 14.5294L81.8992 16.5724L81.5215 16.5758L81.4896 14.7029L80.0647 13.4771L80.3254 13.184Z" fill="white"/>
<g clip-path="url(#clip0_255_5097)">
<path d="M4.73226 3.81577C5.31759 2.87904 5.03273 1.64517 4.096 1.05984C3.15927 0.474506 1.9254 0.759368 1.34006 1.6961C0.754732 2.63282 1.03959 3.8667 1.97632 4.45203C2.91305 5.03736 4.14692 4.7525 4.73226 3.81577Z" fill="white"/>
<path d="M3.62353 3.12293C3.41619 3.45474 2.97913 3.55566 2.64732 3.34832C2.31551 3.14098 2.21461 2.70391 2.42195 2.3721C2.62928 2.04029 3.06635 1.93938 3.39816 2.14672C3.72997 2.35406 3.83086 2.79112 3.62353 3.12293Z" fill="#485CC2"/>
<path fill-rule="evenodd" clip-rule="evenodd" d="M2.68018 2.1273C2.58175 2.21876 2.43286 2.44012 2.5876 2.63352C2.74512 2.83039 2.95076 2.79074 3.03389 2.74631C3.11832 2.71293 3.31815 2.68523 3.44204 2.84139C3.56594 2.99756 3.52872 3.14572 3.49462 3.20029L3.40447 3.34458C3.4905 3.28967 3.56594 3.21524 3.62362 3.12293C3.83096 2.79112 3.73007 2.35407 3.39825 2.14673C3.17245 2.00563 2.8979 2.00728 2.68018 2.1273Z" fill="#D74B4B"/>
<path fill-rule="evenodd" clip-rule="evenodd" d="M2.05877 1.48941L2.71798 1.20959L2.7615 1.31213L2.10229 1.59194L2.05877 1.48941ZM2.14369 1.65497L2.80291 1.37516L2.84643 1.4777L2.18721 1.75751L2.14369 1.65497ZM2.87717 1.53106L2.21796 1.81087L2.26148 1.91341L2.92069 1.6336L2.87717 1.53106Z" fill="#333333"/>
<path fill-rule="evenodd" clip-rule="evenodd" d="M4.60295 3.07917L4.58671 2.76932L4.47541 2.77395L4.49172 3.085L4.60295 3.07917ZM4.56546 2.36401L4.58089 2.65809L4.46958 2.6627L4.45423 2.36985L4.56546 2.36401ZM4.41692 3.07542L4.37943 2.36026L4.26819 2.36609L4.30567 3.08125L4.41692 3.07542ZM4.11758 2.78881L4.13301 3.08285L4.24423 3.07701L4.22889 2.78419L4.11758 2.78881ZM4.22305 2.67295L4.11176 2.67757L4.09551 2.36768L4.20675 2.36185L4.22305 2.67295Z" fill="#333333"/>
<path fill-rule="evenodd" clip-rule="evenodd" d="M3.72786 4.14373L4.01346 4.02251L3.96995 3.91997L3.68322 4.04167L3.72786 4.14373ZM3.62533 4.18726L3.35425 4.30232L3.31073 4.19979L3.58068 4.0852L3.62533 4.18726ZM3.53971 3.71355L3.81077 3.5985L3.85427 3.70104L3.58436 3.81562L3.53971 3.71355ZM3.48182 3.85914L3.43718 3.75708L3.15153 3.87831L3.19507 3.98085L3.48182 3.85914ZM3.92855 3.85694L3.65349 3.97368L3.60885 3.87162L3.88502 3.75441L3.92855 3.85694ZM3.26933 4.13676L3.55095 4.01721L3.50631 3.91515L3.22581 4.03421L3.26933 4.13676Z" fill="#333333"/>
<path fill-rule="evenodd" clip-rule="evenodd" d="M1.46928 2.43275L1.50677 3.14791L1.618 3.14208L1.58052 2.42691L1.46928 2.43275ZM1.828 2.43491L1.86549 3.15006L1.97672 3.14423L1.93924 2.42907L1.828 2.43491ZM1.65532 2.43649L1.67096 2.73489L1.78226 2.73027L1.76656 2.43067L1.65532 2.43649ZM1.69281 3.15166L1.6768 2.84613L1.78809 2.84151L1.80405 3.14582L1.69281 3.15166Z" fill="#333333"/>
</g>
<defs>
<clipPath id="clip0_255_5097">
<rect width="4" height="4" fill="white" transform="translate(2.3999) rotate(32)"/>
</clipPath>
</defs>
</svg>
