<svg width="117" height="19" viewBox="0 0 117 19" fill="none" xmlns="http://www.w3.org/2000/svg">
<path d="M7.12905 8.44344L7.42914 8.69619L6.19447 10.1135L6.4312 11.9716L6.0569 12.0223L5.7998 9.99525L7.12905 8.44344ZM7.79577 8.64318L8.08053 8.89134L6.86119 10.3132L7.09792 12.1713L6.72362 12.222L6.46652 10.195L7.79577 8.64318Z" fill="white"/>
<path d="M9.75398 11.3248L9.64948 11.7192L10.0168 11.8165L10.1213 11.4221L9.75398 11.3248ZM9.53124 12.0561C9.39264 12.3918 9.20651 12.657 8.97673 12.8527L8.75254 12.5119C8.99415 12.3028 9.16913 12.0016 9.28136 11.6092L9.5928 10.4338C9.55367 10.4565 9.5117 10.4744 9.47359 10.4932L9.30502 10.1299C9.64283 9.97943 9.97043 9.72691 10.2878 9.37238L10.6548 9.56478C10.6075 9.61845 10.566 9.66541 10.5208 9.71135L11.414 9.948L11.3392 10.2303C11.2077 10.3361 11.0803 10.4265 10.957 10.5014L11.537 10.6551L10.9131 13.0098C10.8608 13.207 10.7182 13.2768 10.4901 13.2164L10.231 13.1477L10.2306 12.7587C10.3126 12.7928 10.3918 12.8221 10.4691 12.8425C10.5232 12.8569 10.5585 12.8331 10.5728 12.779L10.6835 12.3614L10.293 12.2579L10.0758 13.0777L9.70844 12.9803L9.92563 12.1606L9.53124 12.0561ZM10.5239 10.3867C10.6315 10.3241 10.7394 10.2451 10.8531 10.1594L10.2306 9.99447C10.1295 10.0794 10.0304 10.1566 9.93233 10.2299L10.5239 10.3867ZM10.7747 12.0173L10.8792 11.6229L10.4886 11.5194L10.3841 11.9138L10.7747 12.0173ZM10.9714 11.2749L11.0687 10.9076L10.6782 10.8041L10.5808 11.1714L10.9714 11.2749ZM10.3108 10.7068L9.9435 10.6095L9.84618 10.9768L10.2135 11.0741L10.3108 10.7068ZM8.36438 9.05724L9.69061 9.40863L9.58817 9.79529L9.03911 9.64982C8.921 9.90819 8.79255 10.1431 8.6517 10.3624L9.31288 10.5375L8.81602 12.4128L8.1819 12.2448L8.11531 12.4962L7.73639 12.3958L8.09392 11.0463C8.02806 11.1075 7.96709 11.1658 7.90225 11.2231L7.76962 10.7866C8.12954 10.4433 8.42159 10.0283 8.64472 9.54532L8.26193 9.4439L8.36438 9.05724ZM8.27922 11.8775L8.54989 11.9492L8.85108 10.8124L8.58042 10.7407L8.27922 11.8775Z" fill="white"/>
<path d="M12.9935 10.0234L13.3381 10.2944C13.1894 10.5519 13.0161 10.7915 12.8181 11.0132L12.2109 13.6891L11.7974 13.5953L12.2612 11.5513C12.1258 11.66 11.9826 11.767 11.8372 11.8652L11.8038 11.3982C12.2783 11.0424 12.6777 10.5834 12.9935 10.0234ZM13.4758 10.338L15.3794 10.77L15.0803 12.0884L14.3274 11.9176L14.2575 12.2258L15.3341 12.4701L15.2438 12.868L14.5221 12.7042C14.6372 13.083 14.836 13.4358 15.1218 13.7672L14.776 14.062C14.504 13.6517 14.3092 13.1727 14.1945 12.6298L14.1672 12.6236L13.8423 14.0552L13.4366 13.9632L13.7615 12.5316L13.7303 12.5245C13.3758 13.0019 12.9855 13.3481 12.5672 13.5649L12.4203 13.146C12.7915 12.9923 13.1183 12.763 13.4065 12.451L12.7239 12.2961L12.8142 11.8982L13.8518 12.1337L13.9217 11.8255L13.1767 11.6565L13.4758 10.338ZM14.7709 11.6081L14.893 11.0698L13.7852 10.8184L13.6631 11.3567L14.7709 11.6081Z" fill="white"/>
<path d="M16.7586 11.6771L18.7047 12.0419L18.6354 12.4115L17.8727 12.2685L17.7887 12.7167L18.4295 12.8368L18.3617 13.1985L17.7209 13.0784L17.6243 13.5934L17.9821 13.6605C17.9465 13.5032 17.8993 13.3641 17.8413 13.2393L18.1875 13.1943C18.2511 13.3324 18.3047 13.4808 18.3404 13.6381L18.1315 13.6885L18.5011 13.7578L18.4318 14.1273L16.2655 13.7212L16.3348 13.3517L17.2076 13.5153L17.3041 13.0003L16.6633 12.8801L16.7311 12.5184L17.3719 12.6386L17.4559 12.1904L16.6893 12.0467L16.7586 11.6771ZM19.5177 11.5472L18.8626 15.0424L18.4458 14.9642L18.4731 14.8188L15.9726 14.3501L15.9454 14.4955L15.5286 14.4174L16.1838 10.9223L19.5177 11.5472ZM16.0449 13.9648L18.5453 14.4335L19.0288 11.8544L16.5283 11.3857L16.0449 13.9648Z" fill="white"/>
<path d="M21.2275 13.5295L21.591 13.6685C21.382 14.2035 21.1287 14.6552 20.8353 15.024L20.5313 14.7564C20.8254 14.3836 21.0563 13.9731 21.2275 13.5295ZM22.7477 13.695C22.8485 14.1589 22.9209 14.6509 22.9688 15.1716L22.5806 15.2796C22.5313 14.7142 22.4613 14.2064 22.3694 13.7641L22.7477 13.695ZM21.5343 15.4354L21.1387 15.3765L21.1093 14.9758C21.2257 15.0093 21.3387 15.0382 21.4494 15.0547C21.5365 15.0677 21.5876 15.0227 21.603 14.9198L21.839 13.3333L20.9053 13.1944L20.9641 12.7987L23.2352 13.1366L23.1763 13.5323L22.2505 13.3945L21.9991 15.0839C21.9585 15.3569 21.8034 15.4754 21.5343 15.4354ZM21.3428 11.8845L23.1707 12.1565L23.1124 12.5482L21.2845 12.2762L21.3428 11.8845ZM19.8579 11.5908L21.1556 11.7839L21.1073 12.1083C20.9392 12.423 20.7523 12.7551 20.5426 13.104C20.7094 13.505 20.785 13.8397 20.7648 14.1117C20.7365 14.3016 20.6769 14.4302 20.5894 14.5021C20.4599 14.584 20.2584 14.6066 19.9809 14.5693L19.9098 14.1503C19.995 14.1751 20.0651 14.1936 20.1205 14.2019C20.2087 14.2069 20.2664 14.1993 20.2977 14.1797C20.3289 14.1601 20.3518 14.115 20.3612 14.0517C20.4006 13.7866 20.3221 13.4716 20.1297 13.1073C20.362 12.7415 20.5529 12.41 20.6983 12.1121L20.2037 12.0386L19.7346 15.1919L19.331 15.1318L19.8579 11.5908Z" fill="white"/>
<path d="M26.373 15.9672L25.6415 15.8861C25.3592 15.8548 25.2346 15.7082 25.2633 15.4498L25.3197 14.9409L24.95 14.8999C24.8175 15.1508 24.6727 15.332 24.5225 15.4521C24.3114 15.6139 23.9183 15.7111 23.3471 15.7444L23.2234 15.3362C23.6938 15.3401 24.0264 15.2804 24.2163 15.1646C24.3197 15.1037 24.4155 15.0016 24.5126 14.8514L23.8328 14.776L23.9567 13.6588L26.5289 13.9441L26.405 15.0612L25.7371 14.9872L25.6904 15.4086C25.6825 15.4802 25.7183 15.5203 25.8017 15.5296L26.3345 15.5887C26.3862 15.5944 26.4286 15.575 26.4568 15.5379C26.49 15.4932 26.5253 15.3563 26.5583 15.1306L26.9303 15.2966C26.8593 15.6469 26.7802 15.8514 26.7016 15.9071C26.627 15.9632 26.5161 15.9831 26.373 15.9672ZM24.4031 12.7545L23.7948 12.6871L23.8336 12.3372L25.1734 12.4858C25.1433 12.3939 25.1049 12.3052 25.0656 12.2243L25.5307 12.2035C25.5559 12.3028 25.5802 12.4102 25.6067 12.5339L26.9108 12.6785L26.872 13.0283L26.2875 12.9635L26.1047 13.3054L27.043 13.4095L27.0033 13.7673L23.5286 13.382L23.5683 13.0242L24.4986 13.1273L24.4031 12.7545ZM24.9319 13.1754L25.6714 13.2574L25.8542 12.9155L24.8364 12.8026L24.9319 13.1754ZM26.0432 14.6589L26.0882 14.2534L24.319 14.0572L24.274 14.4627L26.0432 14.6589Z" fill="white"/>
<path d="M30.5512 15.4985L29.3944 15.4116L29.3678 15.7666C29.3426 16.1017 29.1662 16.2609 28.8391 16.2363L28.2886 16.195L28.2309 15.7895C28.3972 15.818 28.5598 15.8423 28.7194 15.8543C28.8709 15.8657 28.9527 15.7916 28.9644 15.636L28.9836 15.3807L27.9625 15.304L27.9921 14.9091L29.0133 14.9858L29.0387 14.6468L27.535 14.5338L27.5638 14.1509L29.0675 14.2639L29.0921 13.9368L28.1388 13.8652L28.1562 13.6338C28.0673 13.6953 27.9787 13.7529 27.8908 13.8024L27.6586 13.4761C28.0561 13.2573 28.4129 12.9391 28.7297 12.5137L29.1376 12.6366C29.0795 12.7164 29.0216 12.7923 28.9638 12.8682L30.4237 12.9779L30.4003 13.289C30.2425 13.4135 30.0902 13.5184 29.9392 13.6073L30.689 13.6637L30.6351 14.3817L31.1177 14.4179L31.089 14.8009L30.6063 14.7646L30.5512 15.4985ZM29.3488 13.563C29.491 13.4854 29.6378 13.4002 29.7892 13.3073L28.6444 13.2213C28.5489 13.3184 28.45 13.4072 28.3476 13.4878L29.3488 13.563ZM29.5029 13.9677L29.4784 14.2948L30.2243 14.3508L30.2488 14.0237L29.5029 13.9677ZM29.4496 14.6777L29.4241 15.0167L30.17 15.0728L30.1955 14.7337L29.4496 14.6777Z" fill="white"/>
<path d="M32.9359 12.8229L33.3595 12.8418L33.34 13.2774C33.331 13.3891 33.3221 13.5008 33.3094 13.6044L34.8279 13.6721C34.7802 14.3827 34.7307 14.953 34.6714 15.3868C34.6122 15.8166 34.5267 16.1171 34.4229 16.2886C34.3197 16.4482 34.164 16.5293 33.9514 16.5359L33.384 16.5106L33.2901 16.102C33.4576 16.1175 33.6131 16.1324 33.7649 16.1392C33.9687 16.1483 34.1065 16.0223 34.1818 15.7694C34.2577 15.5045 34.3271 14.935 34.3862 14.0608L33.2553 14.0103C33.1668 14.5589 33.0262 15.0171 32.8378 15.3811C32.5761 15.8619 32.1716 16.2243 31.6243 16.4641L31.4164 16.0985C31.9567 15.8343 32.3284 15.4905 32.5317 15.0631C32.6651 14.7648 32.7652 14.4049 32.8317 13.9915L31.7288 13.9423L31.747 13.5347L32.8858 13.5855C32.8987 13.4779 32.9075 13.3702 32.9164 13.2585L32.9359 12.8229Z" fill="white"/>
<path d="M36.3302 13.7204C36.4182 13.7221 36.4897 13.7514 36.5525 13.8166C36.6113 13.8777 36.6419 13.9543 36.6402 14.0423C36.6386 14.1303 36.6052 14.2017 36.5441 14.2605C36.479 14.3193 36.4064 14.3499 36.3184 14.3483C36.2304 14.3466 36.155 14.3132 36.0962 14.2521C36.0373 14.191 36.0107 14.1184 36.0123 14.0305C36.014 13.9425 36.0434 13.867 36.1046 13.8082C36.1657 13.7453 36.2423 13.7187 36.3302 13.7204ZM36.3026 15.1841C36.3906 15.1858 36.4621 15.2151 36.5249 15.2803C36.5837 15.3415 36.6143 15.4181 36.6126 15.506C36.611 15.594 36.5776 15.6654 36.5165 15.7243C36.4514 15.783 36.3788 15.8137 36.2908 15.812C36.2028 15.8104 36.1274 15.7769 36.0686 15.7158C36.0097 15.6547 35.9831 15.5822 35.9847 15.4942C35.9864 15.4062 36.0158 15.3307 36.0769 15.2719C36.1381 15.209 36.2147 15.1825 36.3026 15.1841Z" fill="white"/>
<path d="M41.119 13.6616L39.791 13.6631L39.7906 13.2631L42.8745 13.2596L42.875 13.6596L41.543 13.6611L41.5457 16.0531L43.1217 16.0514L43.1222 16.4554L39.5422 16.4594L39.5417 16.0554L41.1217 16.0536L41.119 13.6616Z" fill="white"/>
<path d="M44.6804 12.9922L45.1003 12.9856L45.1497 16.1172L45.5896 16.1103L45.5403 12.9787L45.9602 12.9721L46.0096 16.1037L47.1614 16.0855L47.1678 16.4935L43.5923 16.5498L43.5859 16.1419L44.7297 16.1238L44.6804 12.9922ZM46.68 13.7168L47.0496 13.815C46.9084 14.5013 46.7259 15.1043 46.502 15.6199L46.124 15.4938C46.3406 15.0263 46.5233 14.4314 46.68 13.7168ZM43.9762 13.7474C44.1845 14.2762 44.3742 14.8853 44.541 15.5708L44.1625 15.6687C44.0167 15.047 43.8392 14.4497 43.6221 13.873L43.9762 13.7474Z" fill="white"/>
<path d="M47.7883 12.9649C48.0491 13.1504 48.2699 13.3368 48.4507 13.5243L48.1741 13.8194C48.0135 13.6394 47.7925 13.445 47.5113 13.244L47.7883 12.9649ZM47.2853 14.114L48.209 14.0906L48.251 15.7501C48.3644 15.6432 48.4855 15.5281 48.6143 15.4008L48.7414 15.8377C48.4836 16.0843 48.209 16.3033 47.918 16.5028L47.7485 16.1309C47.815 16.0692 47.849 15.9923 47.8468 15.9044L47.8112 14.5008L47.2954 14.5139L47.2853 14.114ZM48.729 14.5576L50.6803 14.5081L50.69 14.888C50.5867 15.2347 50.4104 15.5393 50.1608 15.7977C50.4128 15.9514 50.7163 16.0837 51.0753 16.1986L50.8605 16.5642C50.4646 16.4142 50.1282 16.2467 49.8593 16.0574C49.553 16.2853 49.1776 16.4708 48.7251 16.6143L48.4842 16.2683C48.8931 16.1379 49.2371 15.9772 49.5203 15.7859C49.2579 15.5365 49.0709 15.2611 48.967 14.9517L48.7391 14.9575L48.729 14.5576ZM49.3589 14.9417C49.4526 15.1674 49.6019 15.3717 49.8145 15.5504C50.0137 15.3613 50.1645 15.1534 50.2706 14.9186L49.3589 14.9417ZM48.9616 13.0032L50.4012 12.9667L50.4222 13.7944C50.4244 13.8824 50.4736 13.9292 50.5736 13.9266L50.9175 13.9179L50.9271 14.2978L50.4712 14.3093C50.1713 14.317 50.0198 14.1807 50.0127 13.9008L49.9992 13.369L49.3834 13.3846L49.3862 13.4926C49.3967 13.9084 49.189 14.2378 48.7708 14.4725L48.4828 14.1597C48.8151 14.0112 48.982 13.8069 48.9754 13.547L48.9616 13.0032Z" fill="white"/>
<path d="M52.6603 13.9322L53.6918 13.9L53.6556 12.7406L54.0873 12.7271L54.1236 13.8865L55.1031 13.856L55.1161 14.2717L54.1365 14.3023L54.2035 16.4453L53.7717 16.4588L53.7048 14.3158L52.6733 14.348L52.6603 13.9322ZM51.9214 12.8268C52.1794 13.0148 52.4014 13.204 52.5873 13.3903L52.3086 13.6911C52.1509 13.5119 51.9249 13.3229 51.6345 13.1239L51.9214 12.8268ZM51.4018 13.9996L52.3533 13.9698L52.4055 15.641C52.5183 15.5375 52.6388 15.4216 52.7668 15.2936L52.8881 15.718C52.6357 15.966 52.3666 16.1905 52.0768 16.3917L51.9051 16.0208C51.9752 15.9586 52.0089 15.8855 52.0063 15.8016L51.962 14.3823L51.4142 14.3994L51.4018 13.9996Z" fill="white"/>
<path d="M55.8658 14.106L56.7453 14.0763L56.8932 13.2389L55.6299 13.2815L55.6163 12.8777L58.9064 12.7667L58.92 13.1705L57.3129 13.2247L57.1651 14.0622L58.4843 14.0177L58.542 15.7287L59.1577 15.7079L59.1714 16.1157L55.5814 16.2368L55.5677 15.829L56.4432 15.7995L56.675 14.4829L55.8794 14.5097L55.8658 14.106ZM56.863 15.7853L58.1182 15.743L58.0742 14.4357L57.0947 14.4688L56.863 15.7853Z" fill="white"/>
<path d="M60.2289 13.3096C60.078 13.5991 59.8803 13.8435 59.6403 14.0502L59.3394 13.7117C59.7169 13.3925 59.9606 12.9811 60.0664 12.4738L60.5024 12.5277C60.4742 12.6576 60.4414 12.7798 60.4042 12.8943L62.8119 12.7494L62.8361 13.1527L61.6223 13.2257L61.6533 13.7408L62.7274 13.6762L62.7509 14.0675L61.6769 14.1321L61.7213 14.8707L63.0549 14.7905L63.0794 15.1978L61.7458 15.278L61.797 16.1285L61.3777 16.1537L61.3266 15.3032L59.5298 15.4113L59.5053 15.0041L60.1202 14.9671L60.0522 13.8371L61.2341 13.766L61.2031 13.2509L60.2289 13.3096ZM60.5394 14.9419L61.3021 14.896L61.2576 14.1573L60.495 14.2032L60.5394 14.9419Z" fill="white"/>
<path d="M63.81 13.5836L64.0294 12.373L64.4496 12.4059L64.311 13.1441L64.861 13.0978C64.9083 12.8008 64.9423 12.4889 64.9593 12.1663L65.3902 12.1823C65.3681 12.4932 65.3365 12.7849 65.2915 13.0616L67.1051 12.9092L67.1383 13.3038L65.221 13.465C65.1912 13.5879 65.1648 13.7025 65.1383 13.8171L66.7167 13.6844L66.7462 14.0352C66.6767 14.3541 66.5095 14.6572 66.2486 14.9441C66.5613 15.0824 66.9284 15.2 67.3504 15.301L67.1683 15.7137C66.6792 15.5782 66.2649 15.4244 65.9249 15.2483C65.6321 15.4896 65.2699 15.7168 64.8382 15.9297L64.5861 15.5575C64.961 15.3855 65.2791 15.2062 65.5364 15.02C65.2765 14.8411 65.0758 14.6493 64.9298 14.4408C64.695 15.0386 64.3792 15.5308 63.9818 15.9134L63.7301 15.5452C64.228 15.0216 64.5763 14.3421 64.7786 13.5022L63.81 13.5836ZM65.2136 14.1881C65.3636 14.3963 65.58 14.5828 65.8631 14.7517C66.0822 14.5406 66.2362 14.3189 66.3257 14.0946L65.2136 14.1881ZM66.0551 12.0702C66.3433 12.2507 66.5915 12.4345 66.7923 12.6264L66.5225 12.9501C66.3499 12.7599 66.1086 12.5634 65.7949 12.365L66.0551 12.0702Z" fill="white"/>
<path d="M68.2307 13.3703L68.7638 13.3145L68.7338 13.0281L68.1092 13.0935L68.1375 13.364C68.1625 13.6027 68.1743 13.8307 68.1734 14.052L68.8338 13.9828L68.8021 13.6805L68.269 13.7363L68.2307 13.3703ZM68.1608 14.4314C68.1302 14.8689 68.0473 15.2678 67.9169 15.6353L67.5471 15.3684C67.7377 14.8457 67.7939 14.1923 67.7158 13.4082L67.5763 12.0755L70.6554 11.753L70.7667 12.8152L70.2177 12.8727L70.2477 13.1591L70.8325 13.0979L70.8708 13.4639L70.286 13.5251L70.3177 13.8274L71.0417 13.7516L71.0809 14.1256L70.683 14.1672L70.9379 14.3738C70.8411 14.5247 70.7339 14.6526 70.6122 14.7578C70.8139 14.8413 71.0407 14.8939 71.2883 14.9163L71.1347 15.3305C70.4069 15.2177 69.8561 14.8732 69.4856 14.2926L69.0122 14.3422L69.0867 15.0543C69.3108 14.9665 69.507 14.8816 69.6746 14.7917L69.7937 15.1613C69.4752 15.3072 69.0914 15.444 68.6462 15.571L68.4969 15.2207C68.6192 15.1596 68.6768 15.057 68.6626 14.9218L68.6064 14.3847L68.1608 14.4314ZM69.9033 14.2489C70.009 14.3746 70.1245 14.4791 70.2542 14.5661C70.3768 14.4688 70.488 14.3405 70.5915 14.1768L69.9033 14.2489ZM69.8119 12.9152L69.1356 12.986L69.1656 13.2724L69.8419 13.2016L69.8119 12.9152ZM69.2356 13.9408L69.9119 13.8699L69.8802 13.5676L69.2039 13.6384L69.2356 13.9408ZM70.2773 12.1747L68.0375 12.4092L68.0709 12.7275L70.3106 12.4929L70.2773 12.1747Z" fill="white"/>
<path d="M71.2891 12.0821L71.821 12.0159L71.7592 11.5197L72.172 11.4683L72.2338 11.9645L72.7101 11.9052L72.7595 12.3021L72.2832 12.3614L72.3495 12.8933L72.8814 12.8271L72.9308 13.224L72.379 13.2927L72.3834 13.522C72.6215 13.6858 72.8625 13.8734 73.1065 14.0849L72.9203 14.4669C72.6976 14.2326 72.5136 14.0499 72.3683 13.9189C72.3145 14.4576 72.159 14.8922 71.9023 15.2265L71.5586 14.9911C71.8605 14.5988 71.9976 14.0497 71.9662 13.3441L71.4026 13.4143L71.3532 13.0174L71.9366 12.9447L71.8704 12.4128L71.3385 12.4791L71.2891 12.0821ZM74.5476 11.2854L74.8264 13.5241L74.4255 13.574L74.1942 11.7164L73.2614 11.8325L73.4927 13.6902L73.0918 13.7401L72.813 11.5014L74.5476 11.2854ZM74.8223 14.7863L74.4651 14.8308C74.2309 14.8599 74.1 14.7472 74.0693 14.5011L73.9902 13.866C73.9609 13.9866 73.9266 14.0997 73.8829 14.2019C73.7255 14.556 73.4316 14.8506 73.0093 15.0846L72.7519 14.7659C73.1658 14.529 73.4349 14.2617 73.5516 13.969C73.6659 13.6565 73.7052 13.2606 73.6628 12.7903L73.5704 12.048L73.9474 12.001L74.0399 12.7433C74.0725 13.0698 74.0684 13.3605 74.036 13.6185L74.3377 13.5809L74.436 14.3708C74.4434 14.4304 74.4752 14.4587 74.5387 14.4507L74.7094 14.4295C74.7491 14.4246 74.7744 14.4012 74.7893 14.3591C74.8072 14.3085 74.8067 14.1755 74.787 13.9522L75.1586 14.0229C75.1738 14.3717 75.1518 14.584 75.0967 14.6594C75.0406 14.7268 74.9493 14.7705 74.8223 14.7863Z" fill="white"/>
<path d="M77.4386 11.097L77.8385 11.0394L78.189 13.4743L77.7891 13.5319L77.4386 11.097ZM78.6831 14.268L78.113 14.3501L77.9615 13.9718C78.1499 13.9609 78.3252 13.9437 78.4876 13.9204C78.5944 13.905 78.6425 13.8455 78.6277 13.7426L78.1825 10.6504L78.5943 10.5912L79.0548 13.7902C79.0947 14.0673 78.9681 14.227 78.6831 14.268ZM77.1812 11.6392L77.3055 12.0254L76.2254 12.3547C76.2646 12.5147 76.31 12.6618 76.3571 12.7924C76.4053 12.9309 76.4564 13.061 76.5091 13.1746C76.6729 12.9086 76.7998 12.6115 76.8973 12.2782L77.2844 12.4124C77.1525 12.8719 76.9674 13.2703 76.7336 13.6111C76.7653 13.6631 76.7959 13.7072 76.8259 13.7473C76.9891 13.9542 77.1244 14.0519 77.2319 14.0405C77.2895 14.0201 77.3227 13.8294 77.3348 13.4639L77.7162 13.6434C77.6819 13.8545 77.6431 14.0338 77.5918 14.1827C77.5247 14.3621 77.4337 14.46 77.3189 14.4765C77.1288 14.5039 76.92 14.4006 76.6974 14.174C76.6221 14.1 76.5536 14.0169 76.4873 13.9214C76.2811 14.145 76.0459 14.3365 75.7859 14.4952L75.4863 14.1544C75.7814 13.9866 76.034 13.7765 76.2487 13.5273C76.1818 13.3996 76.1138 13.2639 76.052 13.1152C75.9726 12.9286 75.9011 12.7126 75.8341 12.4716L75.3732 12.6107L75.2568 12.2234L75.733 12.078C75.6596 11.7653 75.5931 11.4152 75.5372 11.0272L75.9569 10.9668C76.0093 11.331 76.0651 11.6625 76.1316 11.956L77.1812 11.6392ZM76.4801 10.8672C76.6477 11.0209 76.8096 11.1916 76.9705 11.3826L76.6477 11.6109C76.4942 11.4148 76.3351 11.2356 76.1675 11.082L76.4801 10.8672Z" fill="white"/>
<path d="M82.1005 9.9887L82.4755 9.92739C82.3542 10.2269 82.2724 10.5199 82.2301 10.8065C82.1672 11.1654 82.168 11.5178 82.2242 11.8613C82.2797 12.2008 82.3911 12.5352 82.5657 12.8593C82.6964 13.1135 82.8672 13.3652 83.0782 13.6145L82.7032 13.6758C82.4711 13.4462 82.2851 13.201 82.1373 12.9414C81.9607 12.6298 81.8447 12.2921 81.7867 11.9368C81.7273 11.5737 81.7304 11.2205 81.7985 10.8689C81.8547 10.5679 81.9529 10.2763 82.1005 9.9887Z" fill="white"/>
<path d="M83.9922 10.1144L84.3387 10.0524L84.841 12.8639L84.3803 12.9462L83.9772 10.69C83.8353 10.8738 83.6431 11.026 83.3965 11.1472L83.3149 10.6904C83.4353 10.6364 83.5594 10.5574 83.687 10.4533C83.8133 10.3414 83.9153 10.2297 83.9922 10.1144Z" fill="white"/>
<path d="M86.3445 9.62179C86.6863 9.55622 86.9728 9.6275 87.201 9.84032C87.4284 10.0492 87.5829 10.3658 87.6658 10.7979C87.7532 11.2536 87.7266 11.6456 87.5923 11.9646C87.4541 12.2844 87.2219 12.4756 86.8998 12.5374C86.3459 12.6437 85.9866 12.4479 85.8218 11.95L86.2697 11.8641C86.3744 12.1128 86.5603 12.2115 86.8314 12.1595C87.016 12.1241 87.1472 12.0012 87.2265 11.7986C87.2994 11.6054 87.3129 11.3788 87.2632 11.1195L87.2564 11.0842L87.2367 11.0879C87.1761 11.2177 87.0945 11.323 86.9911 11.3998C86.8909 11.472 86.7705 11.5236 86.6291 11.5507C86.3541 11.6035 86.1128 11.5561 85.9132 11.407C85.715 11.2659 85.5935 11.057 85.5407 10.782C85.4864 10.4992 85.5363 10.2493 85.6902 10.0324C85.8433 9.81163 86.0617 9.67606 86.3445 9.62179ZM86.4333 9.99983C86.2683 10.0315 86.1453 10.1121 86.0643 10.2417C85.9832 10.3713 85.9632 10.5218 85.9964 10.6946C86.0296 10.8674 86.1031 10.9959 86.2248 11.0784C86.3387 11.1625 86.4828 11.1919 86.6557 11.1587C86.8246 11.1263 86.9476 11.0457 87.0262 10.9247C87.1001 10.8005 87.1241 10.6493 87.0894 10.4686C87.0547 10.2879 86.9773 10.1602 86.8555 10.0777C86.7338 9.99512 86.5905 9.96968 86.4333 9.99983Z" fill="white"/>
<path d="M89.2011 9.05177C89.5418 8.98082 89.8295 9.04758 90.061 9.25678C90.2917 9.46206 90.4511 9.77616 90.5408 10.2069C90.6354 10.6612 90.6149 11.0536 90.4857 11.3747C90.3525 11.6966 90.1234 11.8914 89.8023 11.9583C89.2501 12.0732 88.8878 11.8831 88.7152 11.3879L89.1616 11.2949C89.2703 11.542 89.4577 11.6378 89.7279 11.5815C89.912 11.5432 90.0412 11.4182 90.1173 11.2144C90.1871 11.0201 90.1971 10.7933 90.1433 10.5348L90.1359 10.4996L90.1163 10.5037C90.0578 10.6344 89.9778 10.7409 89.8757 10.8194C89.7766 10.8931 89.657 10.9466 89.516 10.976C89.2419 11.0331 88.9999 10.9895 88.798 10.8436C88.5976 10.7055 88.4728 10.4986 88.4157 10.2245C88.357 9.94257 88.4029 9.69195 88.5533 9.47267C88.703 9.24948 88.9192 9.11048 89.2011 9.05177ZM89.2959 9.42836C89.1314 9.46261 89.0097 9.54516 88.9307 9.67601C88.8517 9.80686 88.8341 9.95762 88.87 10.1299C88.9059 10.3022 88.9814 10.4295 89.1044 10.5101C89.2196 10.5924 89.3642 10.6195 89.5365 10.5836C89.7048 10.5485 89.8266 10.466 89.9033 10.3438C89.9752 10.2185 89.9968 10.0669 89.9593 9.88674C89.9218 9.70661 89.8423 9.58015 89.7193 9.49954C89.5963 9.41892 89.4525 9.39574 89.2959 9.42836Z" fill="white"/>
<path d="M92.0047 8.44558C92.2856 8.38218 92.5308 8.39656 92.7333 8.49439C92.9319 8.59309 93.06 8.76101 93.1146 9.00293C93.1833 9.30728 93.073 9.54539 92.7876 9.7164C92.963 9.73015 93.1085 9.77523 93.2172 9.8573C93.3346 9.94152 93.4123 10.0675 93.4492 10.2314C93.5073 10.4889 93.4652 10.7199 93.3226 10.9243C93.1732 11.1343 92.9468 11.2756 92.6424 11.3443C92.3537 11.4095 92.1028 11.3881 91.8938 11.2795C91.6617 11.1596 91.4979 10.9424 91.404 10.6355L91.8684 10.5307C91.9167 10.7085 92.003 10.8366 92.1342 10.9095C92.252 10.9772 92.3914 10.995 92.5514 10.9589C92.7269 10.9193 92.856 10.8368 92.9354 10.7164C93.0049 10.6064 93.0271 10.4866 92.9971 10.3539C92.961 10.194 92.8839 10.0883 92.7735 10.0353C92.6622 9.97843 92.5178 9.97413 92.3383 10.0146L92.1432 10.0587L92.0657 9.71529L92.2608 9.67127C92.4247 9.63429 92.5416 9.571 92.6116 9.48139C92.6777 9.39267 92.6968 9.27763 92.666 9.14106C92.6352 9.0045 92.5733 8.91185 92.4833 8.85835C92.3855 8.80661 92.2566 8.79878 92.0967 8.83488C91.9328 8.87187 91.8167 8.93906 91.7455 9.04125C91.6703 9.14432 91.6439 9.28151 91.6661 9.45281L91.2174 9.55407C91.1774 9.26785 91.2296 9.02645 91.3816 8.82811C91.522 8.63242 91.7316 8.50721 92.0047 8.44558Z" fill="white"/>
<path d="M94.2873 9.65458L96.249 9.17301L96.3387 9.53817L94.3769 10.0197L94.2873 9.65458Z" fill="white"/>
<path d="M97.6177 7.13061L97.9579 7.04044L98.6896 9.80114L98.2372 9.92103L97.65 7.70551C97.5238 7.90037 97.3447 8.06783 97.109 8.20892L96.9901 7.76041C97.1056 7.69668 97.2227 7.60771 97.3414 7.49349C97.4581 7.37154 97.5505 7.25187 97.6177 7.13061Z" fill="white"/>
<path d="M99.6695 6.50872C100.004 6.41323 100.296 6.45892 100.542 6.65075C100.787 6.83874 100.969 7.14044 101.089 7.56355C101.217 8.00973 101.225 8.40259 101.119 8.73222C101.01 9.06295 100.796 9.27387 100.48 9.36388C99.9377 9.51865 99.5625 9.35535 99.3544 8.87398L99.7929 8.74884C99.9192 8.98734 100.113 9.06926 100.379 8.99352C100.559 8.94193 100.679 8.80791 100.74 8.59914C100.796 8.40026 100.789 8.17333 100.717 7.91947L100.707 7.88485L100.688 7.89034C100.639 8.02494 100.567 8.137 100.471 8.22269C100.377 8.30342 100.262 8.36547 100.123 8.40499C99.854 8.48183 99.6095 8.45593 99.3975 8.3251C99.1876 8.20196 99.0481 8.00466 98.9713 7.73541C98.8923 7.45847 98.9198 7.20518 99.0539 6.97556C99.187 6.74209 99.3925 6.58776 99.6695 6.50872ZM99.7913 6.87744C99.6298 6.92354 99.5144 7.01471 99.4451 7.15095C99.3758 7.28719 99.3692 7.43884 99.4175 7.60808C99.4658 7.77732 99.5503 7.89878 99.6789 7.97024C99.7997 8.04391 99.9459 8.06044 100.115 8.01214C100.281 7.96494 100.396 7.87377 100.464 7.74632C100.526 7.61612 100.537 7.46338 100.486 7.28644C100.436 7.1095 100.347 6.98915 100.219 6.91768C100.09 6.84621 99.9452 6.83353 99.7913 6.87744Z" fill="white"/>
<path d="M102.481 5.6695C102.813 5.56486 103.106 5.60253 103.357 5.78754C103.607 5.96873 103.797 6.26532 103.93 6.68496C104.069 7.12748 104.088 7.51997 103.991 7.85237C103.891 8.18598 103.683 8.4027 103.37 8.50134C102.832 8.67094 102.452 8.51799 102.231 8.04251L102.666 7.90539C102.799 8.14033 102.995 8.2169 103.258 8.13391C103.437 8.07737 103.554 7.94011 103.609 7.72974C103.659 7.52941 103.646 7.30276 103.567 7.05097L103.556 7.01664L103.537 7.02266C103.492 7.15855 103.423 7.27254 103.329 7.36083C103.238 7.44411 103.124 7.5093 102.987 7.5526C102.72 7.6368 102.475 7.61762 102.259 7.49266C102.046 7.37532 101.901 7.18193 101.817 6.91489C101.73 6.64022 101.751 6.38627 101.879 6.15305C102.005 5.91602 102.206 5.75611 102.481 5.6695ZM102.613 6.03473C102.453 6.08525 102.34 6.17956 102.274 6.31765C102.209 6.45574 102.206 6.60751 102.259 6.77536C102.312 6.94321 102.4 7.0623 102.531 7.13021C102.654 7.20053 102.8 7.21304 102.968 7.16012C103.132 7.1084 103.245 7.01409 103.309 6.88484C103.368 6.75297 103.374 6.6 103.319 6.42451C103.264 6.24903 103.172 6.13114 103.041 6.06323C102.911 5.99532 102.766 5.98662 102.613 6.03473Z" fill="white"/>
<path d="M104.545 5.06106L106.366 4.41601L106.492 4.77043L106.377 7.442L105.91 7.6076L106.063 4.97327L104.687 5.46073L104.545 5.06106Z" fill="white"/>
<path d="M106.839 3.77879L107.191 3.6334C107.464 3.80168 107.705 3.99635 107.911 4.22264C108.15 4.48716 108.343 4.78419 108.483 5.12419C108.621 5.4568 108.697 5.8065 108.714 6.16284C108.725 6.46133 108.693 6.76926 108.62 7.0851L108.269 7.2305C108.313 6.90906 108.326 6.60508 108.307 6.31858C108.281 5.95268 108.203 5.6082 108.072 5.29038C107.938 4.96886 107.75 4.6703 107.511 4.39686C107.32 4.17706 107.097 3.97104 106.839 3.77879Z" fill="white"/>
<path d="M110.57 2.21075L112.176 3.47366L112.319 5.51193L111.942 5.53515L111.812 3.66656L110.339 2.50966L110.57 2.21075ZM111.185 1.88487L112.791 3.14778L112.934 5.18605L112.557 5.20928L112.427 3.34068L110.94 2.19127L111.185 1.88487Z" fill="white"/>
<g clip-path="url(#clip0_4_53682)">
<path d="M4.40571 9.56392C4.72275 8.50583 4.12201 7.39106 3.06392 7.07402C2.00582 6.75698 0.891059 7.35772 0.574019 8.41581C0.256979 9.47391 0.85772 10.5887 1.91581 10.9057C2.9739 11.2228 4.08867 10.622 4.40571 9.56392Z" fill="white"/>
<path d="M3.15331 9.18862C3.04101 9.56343 2.64614 9.77623 2.27134 9.66393C1.89654 9.55162 1.68374 9.15675 1.79605 8.78194C1.90835 8.40715 2.30322 8.19435 2.67803 8.30665C3.05283 8.41896 3.26561 8.81383 3.15331 9.18862Z" fill="#485CC2"/>
<path fill-rule="evenodd" clip-rule="evenodd" d="M1.98037 8.47764C1.9096 8.59186 1.82448 8.84468 2.02482 8.99033C2.22876 9.13859 2.41662 9.04602 2.48506 8.9812C2.55767 8.9267 2.74308 8.84718 2.90382 8.96507C3.06459 9.08295 3.06784 9.23568 3.04937 9.29732L3.00053 9.46029C3.069 9.38461 3.1221 9.29289 3.15334 9.18862C3.26564 8.81383 3.05286 8.41896 2.67806 8.30665C2.42299 8.23023 2.15864 8.30436 1.98037 8.47764Z" fill="#D74B4B"/>
<path fill-rule="evenodd" clip-rule="evenodd" d="M1.21261 8.02657L1.77447 7.58253L1.84353 7.66992L1.28167 8.11396L1.21261 8.02657ZM1.33826 8.16382L1.90012 7.71978L1.96918 7.80717L1.40732 8.25121L1.33826 8.16382ZM2.01293 7.85052L1.45107 8.29456L1.52014 8.38195L2.082 7.93791L2.01293 7.85052Z" fill="#333333"/>
<path fill-rule="evenodd" clip-rule="evenodd" d="M4.08634 8.88765L3.98881 8.59311L3.88269 8.62697L3.98061 8.92267L4.08634 8.88765ZM3.86124 8.20781L3.95381 8.48736L3.84767 8.52122L3.7555 8.24283L3.86124 8.20781ZM3.90593 8.93319L3.68082 8.25335L3.57507 8.28836L3.80018 8.9682L3.90593 8.93319ZM3.5415 8.73585L3.63407 9.01537L3.7398 8.98035L3.64764 8.70199L3.5415 8.73585ZM3.61262 8.59624L3.5065 8.6301L3.40895 8.33552L3.5147 8.30051L3.61262 8.59624Z" fill="#333333"/>
<path fill-rule="evenodd" clip-rule="evenodd" d="M3.52363 10.1456L3.76706 9.95322L3.698 9.86582L3.45362 10.059L3.52363 10.1456ZM3.43624 10.2147L3.2052 10.3973L3.13614 10.3099L3.36622 10.128L3.43624 10.2147ZM3.22851 9.7804L3.45954 9.59783L3.52859 9.68523L3.29854 9.86705L3.22851 9.7804ZM3.21114 9.93612L3.14113 9.84948L2.89766 10.0419L2.96674 10.1293L3.21114 9.93612ZM3.64142 9.81596L3.40697 10.0012L3.33696 9.9146L3.57234 9.72858L3.64142 9.81596ZM3.07955 10.26L3.31959 10.0703L3.24956 9.98366L3.01048 10.1726L3.07955 10.26Z" fill="#333333"/>
<path fill-rule="evenodd" clip-rule="evenodd" d="M0.89332 9.09214L1.11843 9.77197L1.22417 9.73697L0.999065 9.05712L0.89332 9.09214ZM1.23986 8.99944L1.46497 9.67927L1.57071 9.64427L1.34561 8.96442L1.23986 8.99944ZM1.07374 9.04659L1.16767 9.33025L1.27379 9.29639L1.17949 9.01159L1.07374 9.04659ZM1.29885 9.72644L1.20268 9.436L1.30881 9.40214L1.4046 9.69142L1.29885 9.72644Z" fill="#333333"/>
</g>
<defs>
<clipPath id="clip0_4_53682">
<rect width="4" height="4" fill="white" transform="translate(1.14807 6.49997) rotate(16.68)"/>
</clipPath>
</defs>
</svg>
