<svg width="53" height="13" viewBox="0 0 53 13" fill="none" xmlns="http://www.w3.org/2000/svg">
<path d="M6.3698 4.69889L6.74097 4.82605L6.10218 6.59384L6.99463 8.24068L6.66398 8.42329L5.69146 6.62628L6.3698 4.69889ZM7.06364 4.64408L7.41886 4.77251L6.79602 6.53904L7.68846 8.18588L7.35782 8.36848L6.3853 6.57148L7.06364 4.64408Z" fill="white"/>
<path d="M9.39242 5.07647L8.07417 5.23711L8.02579 4.84005L11.0871 4.467L11.1355 4.86406L9.81331 5.02519L10.1027 7.39962L11.6671 7.20898L11.7159 7.61002L8.16223 8.04306L8.11337 7.64203L9.68176 7.45091L9.39242 5.07647Z" fill="white"/>
<path d="M12.8671 3.96204L13.2825 3.90009L13.7445 6.99782L14.1797 6.93292L13.7177 3.83518L14.1331 3.77323L14.5951 6.87097L15.7345 6.70104L15.7946 7.10457L12.2578 7.63206L12.1976 7.22853L13.3291 7.05978L12.8671 3.96204ZM14.9448 4.41652L15.3242 4.4651C15.2747 5.16404 15.1733 5.7858 15.0194 6.32642L14.628 6.25133C14.7811 5.75936 14.8837 5.14552 14.9448 4.41652ZM12.2686 4.80352C12.5449 5.3002 12.8132 5.87895 13.069 6.53641L12.7067 6.68346C12.4802 6.08635 12.2255 5.51769 11.9342 4.97472L12.2686 4.80352Z" fill="white"/>
<path d="M16.0697 3.50101C16.3522 3.6512 16.5953 3.80755 16.7988 3.97009L16.5627 4.29847C16.3801 4.14076 16.1358 3.97649 15.831 3.81359L16.0697 3.50101ZM15.7194 4.70551L16.6323 4.56289L16.8885 6.203C16.9871 6.08234 17.0923 5.95254 17.2036 5.80965L17.3861 6.22647C17.1623 6.50435 16.9184 6.75703 16.6556 6.99241L16.4395 6.64562C16.4974 6.57584 16.5212 6.49519 16.5076 6.40825L16.2909 5.02107L15.7811 5.10072L15.7194 4.70551ZM17.2083 4.95873L19.1369 4.65743L19.1956 5.03288C19.138 5.39004 19.0025 5.71485 18.7885 6.00334C19.0582 6.12314 19.3762 6.21516 19.7471 6.28272L19.5813 6.67299C19.1694 6.57541 18.8142 6.45276 18.5231 6.29986C18.2488 6.56538 17.9005 6.79793 17.4703 6.99873L17.1868 6.68676C17.5753 6.5046 17.8957 6.30071 18.1518 6.07446C17.8594 5.86104 17.6383 5.61218 17.4953 5.31874L17.2701 5.35393L17.2083 4.95873ZM17.8826 5.25823C18.0048 5.46992 18.1791 5.6532 18.413 5.80289C18.5862 5.58961 18.7088 5.36397 18.7837 5.11746L17.8826 5.25823ZM17.2381 3.38729L18.6609 3.16503L18.7887 3.9831C18.8022 4.07005 18.8571 4.11006 18.9559 4.09463L19.2958 4.04153L19.3544 4.41698L18.9039 4.48736C18.6075 4.53367 18.4396 4.41819 18.3964 4.14155L18.3143 3.61592L17.7057 3.711L17.7223 3.81771C17.7866 4.22872 17.6232 4.58218 17.2388 4.86894L16.9128 4.596C17.2231 4.40581 17.3622 4.18166 17.3221 3.92477L17.2381 3.38729Z" fill="white"/>
<path d="M20.9659 3.86759L21.9887 3.72998L21.834 2.58034L22.2622 2.52273L22.4169 3.67237L23.3881 3.54168L23.4436 3.95397L22.4723 4.08465L22.7582 6.2095L22.3301 6.26711L22.0442 4.14226L21.0214 4.27988L20.9659 3.86759ZM20.1178 2.84355C20.3937 3.00419 20.6339 3.16964 20.8379 3.33592L20.5914 3.66372C20.4162 3.50163 20.172 3.33672 19.8628 3.16845L20.1178 2.84355ZM19.7209 4.06337L20.6644 3.93642L20.8874 5.59348C20.989 5.47891 21.097 5.35137 21.2113 5.21088L21.3754 5.62065C21.1497 5.89318 20.905 6.14406 20.6372 6.37382L20.4285 6.02251C20.4918 5.95344 20.5179 5.87729 20.5067 5.79404L20.3174 4.38672L19.7743 4.4598L19.7209 4.06337Z" fill="white"/>
<path d="M24.3999 2.27002L24.8131 2.27659L24.7947 2.75863L27.1143 2.6155L27.139 3.01474L24.7794 3.16034L24.7563 3.69478L26.9561 3.55903C27.0256 4.68489 26.9859 5.34058 26.8453 5.5296C26.7039 5.70664 26.382 5.81468 25.8829 5.84547C25.7512 5.8536 25.6149 5.85399 25.4745 5.85064L25.3353 5.4785C25.5441 5.48566 25.6926 5.48852 25.7724 5.48359C26.1876 5.45797 26.435 5.37458 26.5064 5.23391C26.5854 5.08476 26.6035 4.66285 26.5608 3.97216L24.3171 4.11062L24.3999 2.27002ZM23.874 4.65895L26.1218 4.52025L26.1464 4.91949L23.8987 5.05819L23.874 4.65895Z" fill="white"/>
<path d="M30.3261 3.47302L30.2259 4.78119L28.818 4.67333L28.7709 5.28753C28.7633 5.38724 28.8152 5.44337 28.9348 5.45253L30.7455 5.59125C30.8259 5.58938 30.8802 5.56145 30.9127 5.50376C30.936 5.46142 30.9706 5.32366 31.0122 5.09417L31.397 5.25604C31.3508 5.4932 31.306 5.65826 31.2625 5.75522C31.1938 5.91845 31.0595 5.99642 30.8515 5.9885L28.7297 5.82596C28.4505 5.80457 28.3204 5.67024 28.3393 5.42296L28.4854 3.51655C28.3989 3.59818 28.3167 3.67613 28.2308 3.74978L27.9626 3.3762C28.3288 3.09937 28.6572 2.68725 28.9552 2.14844L29.3707 2.27655C29.3143 2.38455 29.2542 2.48827 29.1984 2.5883L31.36 2.7539C31.2788 3.81479 31.2047 4.46704 31.1459 4.71126C31.0871 4.95548 30.9098 5.07028 30.6146 5.04767C30.5668 5.044 30.4796 5.0293 30.3609 5.00817L30.2896 4.62962C30.4004 4.65014 30.4955 4.66545 30.5753 4.67156C30.671 4.67889 30.7317 4.61936 30.7574 4.49295C30.7917 4.35918 30.8388 3.90144 30.907 3.11636L28.9488 2.96634C28.85 3.10319 28.7522 3.22809 28.651 3.3447L30.3261 3.47302ZM28.8467 4.29843L29.8358 4.37421L29.8786 3.81584L28.8895 3.74007L28.8467 4.29843Z" fill="white"/>
<path d="M33.1324 2.60777L33.5515 2.67234L33.2725 4.48297L32.8534 4.4184L32.9278 3.93609C32.6835 4.02392 32.4089 4.09898 32.0999 4.16064L31.9951 3.76405C32.3628 3.71548 32.694 3.64105 32.9887 3.54076L33.1324 2.60777ZM33.6542 3.10907L34.4409 3.23029L34.5055 2.81124L34.9206 2.8752L34.856 3.29425L35.6388 3.41486L35.5821 3.78252L34.7993 3.66191L34.7275 4.12841L35.3995 4.23196L35.3429 4.59962L33.5915 4.32977L33.6482 3.96211L34.3124 4.06445L34.3842 3.59795L33.5975 3.47673L33.6542 3.10907ZM32.453 2.65688C32.6592 2.78982 32.8425 2.93949 33.0025 3.10983L32.7515 3.39898C32.5697 3.21313 32.3824 3.06285 32.1863 2.94359L32.453 2.65688ZM31.9006 4.42943L33.5215 4.67918C33.4857 4.59676 33.4452 4.51768 33.4002 4.44194L33.7992 4.37391C33.8625 4.48888 33.912 4.61389 33.9564 4.74619L35.4349 4.97401L35.3777 5.34562L34.8717 5.26765L35.0966 5.5411C34.9312 5.6694 34.7444 5.77823 34.5403 5.8682C34.7471 6.04981 34.9903 6.20466 35.2695 6.33671L34.9735 6.65535C34.2957 6.29999 33.8375 5.78015 33.5984 5.09979C33.4198 5.23417 33.2121 5.34786 32.9785 5.44542L32.9133 5.86843C33.1952 5.85116 33.4632 5.8196 33.7205 5.7783L33.7277 6.15175C33.356 6.19971 32.9059 6.23154 32.3853 6.24845L32.3525 5.8832C32.4699 5.85677 32.5396 5.7987 32.553 5.71173L32.5725 5.58522C32.3608 5.64569 32.1385 5.69643 31.8976 5.73621L31.7377 5.35542C32.3539 5.29657 32.8292 5.17959 33.1678 5.00511L31.8434 4.80104L31.9006 4.42943ZM33.9821 5.13059C34.0606 5.30457 34.1618 5.46182 34.2819 5.60174C34.4826 5.5072 34.6621 5.3932 34.8203 5.25973L33.9821 5.13059Z" fill="white"/>
<path d="M36.2718 4.79075C36.1526 4.89271 36.0304 4.98994 35.9042 5.08636L35.858 4.61928C36.3092 4.2552 36.6778 3.79642 36.9735 3.23674L37.3091 3.49005C37.1645 3.75422 36.9941 4.00489 36.8074 4.23583L36.2575 6.89149L35.8541 6.80796L36.2718 4.79075ZM37.4895 3.48657L39.5381 3.91075L39.2583 5.26208L38.4905 5.10312L38.3811 5.6319L39.2506 5.81195L39.1727 6.18798L38.3032 6.00792L38.1418 6.78739C38.2561 6.82739 38.3954 6.86442 38.5505 6.90469C38.7542 6.94687 38.9665 6.98675 39.1796 7.02271L39.0249 7.39508L38.6606 7.31965C38.0818 7.1957 37.7022 7.05584 37.5173 6.90318C37.3348 6.75916 37.1988 6.56761 37.111 6.32069C36.946 6.58472 36.7657 6.80473 36.5739 6.9815L36.3796 6.59814C36.7303 6.24593 37.0224 5.74271 37.2567 5.08455L37.6307 5.23143C37.5396 5.474 37.4447 5.69537 37.3445 5.90336C37.3726 6.04397 37.4187 6.17608 37.4869 6.30049C37.5598 6.42179 37.6541 6.51892 37.7603 6.59809L38.0871 5.01958L37.2097 4.8379L37.4895 3.48657ZM38.9405 4.80414L39.0646 4.20485L37.8112 3.94532L37.6871 4.54461L38.9405 4.80414Z" fill="white"/>
<path d="M40.6374 4.07069C40.8428 4.3367 41.0095 4.59298 41.1373 4.83951L40.7743 5.05357C40.6755 4.82259 40.5147 4.55953 40.2919 4.26439L40.6374 4.07069ZM41.9676 8.12034C41.7581 8.06776 41.5301 8.00643 41.2867 7.9412C41.0394 7.875 40.8435 7.80108 40.6903 7.72139C40.5468 7.63588 40.4373 7.51354 40.3579 7.35339C40.324 7.27478 40.2852 7.23206 40.2386 7.22037C40.1649 7.20187 39.9902 7.33946 39.7086 7.63994L39.479 7.28951C39.7508 7.02782 39.9712 6.87281 40.1478 6.82641L40.4146 5.76338L39.9025 5.63484L39.996 5.26239L40.8845 5.48539L40.5134 6.96354L40.5425 7.01207C40.6025 7.13437 40.6723 7.23436 40.7489 7.30719C40.8468 7.39363 41.0058 7.46654 41.2289 7.53077C41.449 7.59016 41.708 7.65928 42.0029 7.73329C42.1968 7.78198 42.3918 7.82679 42.5935 7.87743C42.7933 7.91933 42.9466 7.94955 43.0533 7.96808L42.856 8.34334L41.9676 8.12034ZM41.3672 4.82712L41.7785 4.93034L41.9236 4.35227L42.3154 4.45062L42.1703 5.02869L42.6592 5.15139L42.8023 4.58108L43.198 4.6804L43.0549 5.25071L43.501 5.3627L43.4066 5.73902L42.9604 5.62704L42.7959 6.2827L43.3662 6.42585L43.2707 6.80605L42.7004 6.66291L42.4414 7.6949L42.0457 7.59557L42.3047 6.56358L41.7228 6.41751C41.5041 6.82865 41.2283 7.10585 40.8915 7.24815L40.7279 6.86479C40.9667 6.768 41.1648 6.58677 41.3231 6.31721L40.877 6.20523L40.9724 5.82502L41.4962 5.95648C41.5428 5.83623 41.5827 5.71015 41.6178 5.57048L41.684 5.30666L41.2728 5.20344L41.3672 4.82712ZM42.0759 5.40502L42.033 5.57572C41.9902 5.74643 41.9376 5.90645 41.8841 6.05386L42.4001 6.18337L42.5647 5.52771L42.0759 5.40502Z" fill="white"/>
<path d="M46.2978 5.56197L46.7045 5.68169L46.5373 6.2496L47.4813 6.52745L47.3672 6.91501L46.4233 6.63716L46.2482 7.23193L47.2919 7.53915L47.1767 7.93054L45.9335 7.5646C45.5817 7.99477 45.2864 8.30396 45.0552 8.49443C45.4678 8.56585 45.8861 8.61808 46.305 8.65384C46.2678 8.42606 46.225 8.21748 46.1749 8.01927L46.6009 8.00288C46.7105 8.45212 46.7864 8.91646 46.8265 9.4036L46.3969 9.46063C46.3855 9.31548 46.3717 9.178 46.3596 9.04933C45.7539 8.99616 45.1102 8.90257 44.4233 8.77128L44.4378 8.39611C44.4796 8.39589 44.5098 8.39229 44.5324 8.38642C44.7365 8.28805 45.062 7.97525 45.5037 7.4381L44.6748 7.19413L44.7901 6.80273L45.8415 7.11221L46.0165 6.51744L45.1493 6.26218L45.2634 5.87462L46.1306 6.12988L46.2978 5.56197ZM44.6563 5.10384C44.8454 5.36799 44.9973 5.617 45.1146 5.85585L44.746 6.06006C44.6532 5.83679 44.4987 5.58281 44.2872 5.29541L44.6563 5.10384ZM44.2961 5.97351C44.466 6.23201 44.6014 6.48035 44.7061 6.71965L44.3347 6.91889C44.2524 6.70285 44.1181 6.45068 43.9308 6.16621L44.2961 5.97351ZM44.3218 7.1611L44.6423 7.41805C44.3361 7.84914 44.0186 8.24772 43.6949 8.61108L43.3439 8.31597C43.6968 7.95284 44.0235 7.56533 44.3218 7.1611Z" fill="white"/>
<path d="M48.5829 6.22523L48.7525 8.26147L47.3576 9.75459L47.0838 9.4944L48.3633 8.12634L48.2068 6.25978L48.5829 6.22523ZM49.2404 6.4535L49.41 8.48973L48.0151 9.98285L47.7413 9.72266L49.0208 8.35461L48.8492 6.4828L49.2404 6.4535Z" fill="white"/>
<g clip-path="url(#clip0_4_53822)">
<path d="M4.45414 6.70075C4.05068 5.6725 2.89006 5.16601 1.86181 5.56947C0.83356 5.97293 0.327069 7.13356 0.730529 8.16181C1.13399 9.19006 2.29462 9.69655 3.32287 9.29309C4.35111 8.88963 4.8576 7.729 4.45414 6.70075Z" fill="white"/>
<path d="M3.23705 7.17824C3.37996 7.54247 3.20057 7.95359 2.83634 8.0965C2.47211 8.23942 2.06099 8.06001 1.91807 7.69577C1.77516 7.33155 1.95457 6.92043 2.3188 6.77751C2.68303 6.6346 3.09414 6.81401 3.23705 7.17824Z" fill="#485CC2"/>
<path fill-rule="evenodd" clip-rule="evenodd" d="M1.87529 7.3426C1.89008 7.47615 1.97912 7.72762 2.22665 7.7186C2.47861 7.70941 2.56931 7.52064 2.58316 7.42741C2.60667 7.33971 2.7035 7.16273 2.90274 7.1563C3.10198 7.14986 3.19879 7.26803 3.22229 7.32793L3.28444 7.48631C3.29161 7.3845 3.27679 7.27957 3.23703 7.17824C3.09412 6.81401 2.68301 6.6346 2.31878 6.77751C2.07091 6.87477 1.90864 7.09623 1.87529 7.3426Z" fill="#D74B4B"/>
<path fill-rule="evenodd" clip-rule="evenodd" d="M0.992837 7.46145L1.16095 6.76532L1.26923 6.79147L1.10111 7.4876L0.992837 7.46145ZM1.17641 7.49191L1.34452 6.79578L1.4528 6.82193L1.28468 7.51806L1.17641 7.49191ZM1.51397 6.82904L1.34586 7.52517L1.45413 7.55132L1.62225 6.85519L1.51397 6.82904Z" fill="#333333"/>
<path fill-rule="evenodd" clip-rule="evenodd" d="M3.78556 6.36566L3.52705 6.19406L3.46445 6.2862L3.72396 6.45846L3.78556 6.36566ZM3.1889 5.9696L3.43425 6.13246L3.37163 6.2246L3.12731 6.0624L3.1889 5.9696ZM3.67169 6.51282L3.07504 6.11677L3.01343 6.20958L3.61008 6.60563L3.67169 6.51282ZM3.26315 6.58242L3.50848 6.74524L3.57007 6.65244L3.32577 6.49028L3.26315 6.58242ZM3.23296 6.42867L3.17035 6.52081L2.9118 6.3492L2.97341 6.25639L3.23296 6.42867Z" fill="#333333"/>
<path fill-rule="evenodd" clip-rule="evenodd" d="M4.11899 7.70276L4.19183 7.40117L4.08356 7.37501L4.01044 7.67779L4.11899 7.70276ZM4.09286 7.81104L4.02372 8.09729L3.91546 8.07114L3.98428 7.78607L4.09286 7.81104ZM3.66142 7.59751L3.73054 7.31128L3.83881 7.33744L3.76999 7.62248L3.66142 7.59751ZM3.74383 7.73076L3.63528 7.70579L3.56242 8.00742L3.6707 8.03356L3.74383 7.73076ZM4.00827 7.37069L3.93812 7.66115L3.82956 7.63618L3.89999 7.34455L4.00827 7.37069ZM3.84016 8.06683L3.91198 7.76943L3.80341 7.74447L3.73188 8.04068L3.84016 8.06683Z" fill="#333333"/>
<path fill-rule="evenodd" clip-rule="evenodd" d="M1.39911 8.49696L1.99577 8.89301L2.05738 8.80021L1.46071 8.40415L1.39911 8.49696ZM1.6146 8.21017L2.21126 8.60621L2.27286 8.51342L1.6762 8.11735L1.6146 8.21017ZM1.51298 8.34978L1.76194 8.51503L1.82454 8.4229L1.57459 8.25698L1.51298 8.34978ZM2.10965 8.74584L1.85475 8.57664L1.91735 8.4845L2.17125 8.65303L2.10965 8.74584Z" fill="#333333"/>
</g>
<defs>
<clipPath id="clip0_4_53822">
<rect width="4" height="4" fill="white" transform="translate(0 6.3) rotate(-21.4239)"/>
</clipPath>
</defs>
</svg>
