<svg width="74" height="17" viewBox="0 0 74 17" fill="none" xmlns="http://www.w3.org/2000/svg">
<path d="M5.47865 4.56743L5.86875 4.60935L5.63683 6.47465L6.87146 7.88327L6.5894 8.1345L5.24346 6.59714L5.47865 4.56743ZM6.14317 4.36051L6.518 4.40718L6.30136 6.26772L7.53599 7.67635L7.25393 7.92757L5.90799 6.39021L6.14317 4.36051Z" fill="white"/>
<path d="M8.72461 4.37395L7.43809 4.70326L7.3389 4.31576L10.3266 3.551L10.4258 3.9385L9.13537 4.26881L9.72853 6.5861L11.2553 6.19529L11.3555 6.58667L7.8873 7.47442L7.78712 7.08304L9.31777 6.69124L8.72461 4.37395Z" fill="white"/>
<path d="M12.212 2.90295L12.6244 2.82361L13.2161 5.89921L13.6482 5.81608L13.0565 2.74048L13.4689 2.66114L14.0606 5.73674L15.1919 5.5191L15.269 5.91975L11.7574 6.59533L11.6803 6.19468L12.8037 5.97855L12.212 2.90295ZM14.307 3.26977L14.688 3.30237C14.668 4.00277 14.5928 4.62824 14.4617 5.17485L14.0675 5.11626C14.1998 4.6183 14.2765 4.00068 14.307 3.26977ZM11.6494 3.76882C11.9463 4.25346 12.2387 4.82043 12.5219 5.46657L12.1661 5.6287C11.9147 5.04163 11.6363 4.48418 11.3225 3.95392L11.6494 3.76882Z" fill="white"/>
<path d="M15.6439 2.31935C15.9223 2.47708 16.161 2.63992 16.3601 2.80787L16.1152 3.12978C15.937 2.96721 15.6972 2.79644 15.3969 2.6254L15.6439 2.31935ZM15.2613 3.514L16.1777 3.39598L16.3898 5.04238C16.4915 4.92442 16.6002 4.7975 16.7153 4.65765L16.8865 5.07923C16.6554 5.35099 16.4047 5.59701 16.1357 5.82525L15.929 5.47276C15.9887 5.40457 16.0147 5.32459 16.0035 5.23731L15.8242 3.84481L15.3124 3.91072L15.2613 3.514ZM16.7429 3.80716L18.6789 3.55784L18.7274 3.93473C18.6603 4.29022 18.5161 4.61126 18.2944 4.89389C18.5608 5.02091 18.8762 5.12144 19.2452 5.19896L19.069 5.58462C18.6597 5.476 18.308 5.34384 18.0211 5.18317C17.7398 5.44122 17.3854 5.66431 16.95 5.85347L16.6749 5.53399C17.0682 5.36235 17.3939 5.16715 17.6561 4.94787C17.3695 4.72666 17.1552 4.47195 17.0201 4.17476L16.794 4.20388L16.7429 3.80716ZM17.4089 4.12469C17.5253 4.33959 17.6947 4.52749 17.9245 4.68342C18.1033 4.47487 18.232 4.25261 18.3134 4.00821L17.4089 4.12469ZM16.8149 2.2371L18.2432 2.05317L18.3489 2.87439C18.3602 2.96167 18.4139 3.00315 18.5131 2.99037L18.8543 2.94644L18.9028 3.32332L18.4505 3.38157C18.153 3.41988 17.9883 3.29993 17.9525 3.02223L17.8846 2.49459L17.2736 2.57326L17.2874 2.68038C17.3406 3.09297 17.1677 3.44191 16.7758 3.71823L16.4572 3.43661C16.7726 3.25484 16.9176 3.03451 16.8844 2.77664L16.8149 2.2371Z" fill="white"/>
<path d="M20.4918 2.88433L21.521 2.80857L21.4359 1.6517L21.8667 1.61998L21.9519 2.77685L22.9292 2.70491L22.9598 3.11979L21.9824 3.19173L22.1398 5.32995L21.709 5.36166L21.5516 3.22345L20.5224 3.29921L20.4918 2.88433ZM19.7069 1.81105C19.9726 1.98803 20.2024 2.16764 20.396 2.34591L20.1302 2.65826C19.9651 2.48592 19.7314 2.3066 19.4328 2.12001L19.7069 1.81105ZM19.2373 3.00475L20.1867 2.93486L20.3094 4.60235C20.4178 4.49411 20.5332 4.37331 20.6558 4.23995L20.7949 4.65887C20.5532 4.91731 20.2938 5.15299 20.0127 5.3662L19.8256 5.00296C19.893 4.93783 19.9236 4.86339 19.9174 4.77961L19.8132 3.36344L19.2666 3.40367L19.2373 3.00475Z" fill="white"/>
<path d="M26.8111 1.65677L26.9126 4.95921L26.5048 4.97175L26.4959 4.68388L25.6763 4.70907L25.6866 5.04491L25.2828 5.05732L25.1799 1.7069L26.8111 1.65677ZM25.6643 4.31725L26.4839 4.29207L26.4152 2.05712L25.5956 2.08231L25.6643 4.31725ZM23.4021 2.58992L24.0578 2.56977L24.0442 2.12598C23.8691 2.15937 23.6898 2.18489 23.5143 2.20229L23.3669 1.83465C23.989 1.7635 24.4858 1.65219 24.8494 1.50095L25.0558 1.83877C24.8542 1.917 24.6482 1.98736 24.4418 2.04173L24.4576 2.55748L25.0973 2.53783L25.1093 2.92564L24.4696 2.9453L24.474 3.08923C24.7036 3.27026 24.9342 3.47928 25.1694 3.71217L24.9367 4.08349C24.7612 3.84077 24.6111 3.64528 24.4865 3.49704L24.5375 5.15626L24.1377 5.16854L24.0899 3.61328C23.9398 3.93804 23.7529 4.23592 23.5252 4.51105L23.3312 4.05679C23.6694 3.73425 23.9145 3.37455 24.0704 2.97758L24.0697 2.95759L23.4141 2.97774L23.4021 2.58992Z" fill="white"/>
<path d="M29.5234 2.59567L29.5281 3.90766L28.1161 3.91264L28.1182 4.52864C28.1186 4.62864 28.1748 4.68044 28.2948 4.68002L30.1108 4.67361C30.1907 4.66533 30.2426 4.63315 30.2704 4.57305C30.2903 4.52898 30.3138 4.3889 30.3369 4.15681L30.7334 4.28741C30.7063 4.52751 30.6749 4.69562 30.6392 4.79575C30.5838 4.96395 30.4561 5.0524 30.2481 5.06113L28.1202 5.06864C27.8402 5.06962 27.6997 4.94612 27.6988 4.69812L27.6921 2.78613C27.6124 2.87441 27.5367 2.95868 27.457 3.03896L27.1597 2.68801C27.5027 2.3828 27.7971 1.94576 28.0512 1.38486L28.4755 1.47936C28.4279 1.59153 28.3763 1.69971 28.3286 1.80388L30.4966 1.79623C30.5004 2.86023 30.4787 3.51631 30.4396 3.76445C30.4004 4.01259 30.2329 4.14118 29.9369 4.14222C29.8889 4.14239 29.8009 4.1347 29.6808 4.12313L29.5795 3.75148C29.6916 3.76309 29.7876 3.77075 29.8676 3.77046C29.9636 3.77013 30.0194 3.70593 30.0349 3.57787C30.0584 3.44179 30.0688 2.98175 30.074 2.19373L28.11 2.20065C28.0225 2.34496 27.935 2.47727 27.8434 2.6016L29.5234 2.59567ZM28.1147 3.53665L29.1067 3.53315L29.1048 2.97315L28.1128 2.97665L28.1147 3.53665Z" fill="white"/>
<path d="M32.236 1.43251L32.6599 1.44193L32.6192 3.27348L32.1953 3.26406L32.2062 2.77618C31.9755 2.89508 31.713 3.00528 31.4146 3.10668L31.259 2.72712C31.6172 2.63106 31.9359 2.51411 32.2151 2.37628L32.236 1.43251ZM32.8186 1.86156L33.6144 1.87925L33.6239 1.45535L34.0438 1.46469L34.0343 1.88858L34.8261 1.90618L34.8179 2.27809L34.0261 2.26049L34.0156 2.73237L34.6954 2.74748L34.6872 3.11939L32.9156 3.08002L32.9239 2.70811L33.5957 2.72304L33.6062 2.25116L32.8104 2.23347L32.8186 1.86156ZM31.5688 1.56972C31.7905 1.67467 31.9918 1.79918 32.1726 1.94723L31.9614 2.26662C31.7569 2.10603 31.5517 1.98144 31.3417 1.88875L31.5688 1.56972ZM31.2521 3.39914L32.8917 3.43557C32.8454 3.35853 32.795 3.28539 32.7405 3.21616L33.1273 3.09673C33.2049 3.20248 33.2703 3.31996 33.3316 3.44535L34.8272 3.47859L34.8189 3.8545L34.307 3.84312L34.5657 4.08493C34.4183 4.23369 34.2473 4.36592 34.0567 4.48172C34.2854 4.63484 34.5467 4.75667 34.8407 4.85123L34.5888 5.20572C33.8705 4.94169 33.3485 4.48598 33.0227 3.84259C32.8632 3.99908 32.672 4.13887 32.4531 4.26604L32.4436 4.69393C32.7209 4.64008 32.9824 4.57387 33.2321 4.4994L33.2879 4.86873C32.9257 4.96471 32.4836 5.05491 31.9696 5.13951L31.8895 4.78164C32.0025 4.74014 32.064 4.67349 32.0659 4.58551L32.0688 4.45754C31.8668 4.54508 31.653 4.62435 31.4193 4.69517L31.2112 4.33846C31.8144 4.19983 32.2705 4.02192 32.5834 3.80482L31.2437 3.77504L31.2521 3.39914ZM33.4072 3.82312C33.5076 3.9854 33.6285 4.12812 33.7658 4.2512C33.9525 4.13132 34.1156 3.99491 34.255 3.84197L33.4072 3.82312Z" fill="white"/>
<path d="M35.5148 3.16274C35.4125 3.28166 35.3065 3.39638 35.1965 3.5109L35.0796 3.05632C35.4701 2.62775 35.7646 2.11816 35.9715 1.51997L36.3418 1.71919C36.2391 2.00231 36.1089 2.276 35.9596 2.53269L35.8207 5.24113L35.4093 5.22004L35.5148 3.16274ZM36.5196 1.68825L38.6088 1.79537L38.5382 3.17356L37.7552 3.13342L37.7276 3.67271L38.6144 3.71818L38.5947 4.10167L37.7079 4.05621L37.6671 4.85116C37.7862 4.87329 37.9296 4.88865 38.0889 4.90483C38.2967 4.91548 38.5126 4.92254 38.7287 4.92562L38.6325 5.3172L38.261 5.29816C37.67 5.26385 37.2736 5.18345 37.0676 5.06074C36.8652 4.94623 36.7016 4.77763 36.5773 4.54696C36.4545 4.83305 36.3097 5.07796 36.1471 5.2819L35.8966 4.93261C36.1896 4.53109 36.4016 3.98923 36.5329 3.30306L36.9249 3.39124C36.8719 3.64486 36.8118 3.87809 36.7444 4.09893C36.7936 4.23362 36.8594 4.35715 36.9457 4.46972C37.0363 4.5785 37.1442 4.66014 37.2612 4.72221L37.3437 3.11232L36.4489 3.06644L36.5196 1.68825ZM38.1544 2.76938L38.1857 2.15818L36.9074 2.09264L36.876 2.70384L38.1544 2.76938Z" fill="white"/>
<path d="M40.0177 1.79782C40.2627 2.02795 40.4678 2.25461 40.6331 2.47779L40.3085 2.74664C40.1744 2.5342 39.974 2.29992 39.7072 2.0438L40.0177 1.79782ZM41.9724 5.58576C41.7572 5.56701 41.5224 5.54255 41.2717 5.51669C41.017 5.49049 40.8119 5.44852 40.648 5.39409C40.4928 5.33239 40.3653 5.22893 40.2615 5.08338C40.2156 5.01112 40.1706 4.97508 40.1227 4.97091C40.047 4.96431 39.8963 5.12785 39.6658 5.46913L39.3836 5.15947C39.6106 4.85804 39.8037 4.67008 39.9707 4.5963L40.0658 3.50444L39.5398 3.45861L39.5731 3.07606L40.4857 3.15556L40.3534 4.67381L40.3898 4.71713C40.4684 4.82837 40.5531 4.91606 40.6403 4.97585C40.7506 5.04569 40.9192 5.09249 41.1496 5.1206C41.3764 5.14437 41.6431 5.17162 41.9459 5.198C42.1452 5.21536 42.3448 5.22873 42.552 5.24679C42.7559 5.25652 42.912 5.26209 43.0203 5.2635L42.8849 5.66526L41.9724 5.58576ZM40.8581 2.42914L41.2805 2.46594L41.3323 1.87219L41.7347 1.90726L41.683 2.50101L42.1851 2.54475L42.2361 1.95897L42.6426 1.99438L42.5916 2.58016L43.0498 2.62008L43.0161 3.00662L42.5579 2.9667L42.4992 3.64014L43.085 3.69118L43.051 4.0817L42.4652 4.03067L42.3728 5.09065L41.9664 5.05524L42.0587 3.99526L41.461 3.94318C41.3102 4.38375 41.0818 4.70113 40.7718 4.89496L40.5496 4.54234C40.77 4.40896 40.9368 4.19865 41.0506 3.90742L40.5923 3.8675L40.6263 3.47698L41.1643 3.52384C41.1913 3.39772 41.2107 3.26691 41.2232 3.12345L41.2469 2.85248L40.8245 2.81568L40.8581 2.42914ZM41.6493 2.88754L41.6341 3.06288C41.6188 3.23821 41.5922 3.40454 41.5628 3.55856L42.0928 3.60473L42.1514 2.93128L41.6493 2.88754Z" fill="white"/>
<path d="M45.7425 2.36058L46.1631 2.41406L46.0884 3.00134L47.0646 3.12546L47.0136 3.52623L46.0375 3.40211L45.9592 4.01716L47.0386 4.1544L46.9871 4.55914L45.7014 4.39566C45.4226 4.87632 45.1802 5.22856 44.9823 5.45339C45.401 5.45825 45.8223 5.44327 46.2416 5.41191C46.1686 5.19296 46.0931 4.99384 46.0121 4.80613L46.4301 4.72218C46.6098 5.14825 46.7587 5.59459 46.8757 6.06915L46.4607 6.19379C46.4263 6.05232 46.3908 5.91878 46.3583 5.79369C45.752 5.83755 45.1015 5.84758 44.4025 5.82724L44.3571 5.45454C44.3983 5.44768 44.4276 5.43931 44.449 5.42993C44.6348 5.30034 44.9065 4.93972 45.257 4.33915L44.3999 4.23016L44.4514 3.82542L45.5386 3.96367L45.6168 3.34862L44.7201 3.23459L44.771 2.83382L45.6678 2.94785L45.7425 2.36058ZM44.0491 2.16944C44.2778 2.40014 44.4673 2.62182 44.6212 2.83896L44.2897 3.09922C44.1626 2.89355 43.9696 2.6674 43.7151 2.4173L44.0491 2.16944ZM43.8318 3.08535C44.0407 3.31352 44.2139 3.53715 44.3553 3.75675L44.0203 4.01254C43.9047 3.81235 43.732 3.58475 43.5018 3.33371L43.8318 3.08535ZM44.0461 4.25372L44.4034 4.45641C44.1697 4.93072 43.9197 5.37473 43.6579 5.78498L43.2644 5.54947C43.5551 5.13481 43.816 4.70025 44.0461 4.25372Z" fill="white"/>
<path d="M47.5471 3.10932L48.0989 3.20482C48.0645 3.02837 48.0241 2.86306 47.9705 2.70358L48.4045 2.70563C48.4403 2.8742 48.4726 3.06248 48.5009 3.2744L48.9581 3.35354L48.8899 3.74768L48.1292 3.61602L48.0549 4.04563L48.7525 4.16637C48.5731 5.20296 48.4429 5.83806 48.369 6.07697C48.288 6.31057 48.0816 6.40069 47.7545 6.34408C47.7229 6.33862 47.6731 6.32187 47.6081 6.29845L47.577 5.91552C47.6459 5.93963 47.7036 5.95774 47.7549 5.96661C47.8928 5.99049 47.9872 5.93781 48.0326 5.81578C48.0742 5.69306 48.1638 5.24579 48.3047 4.47858L47.9854 4.42332C47.8124 5.2824 47.556 5.89567 47.2203 6.26381L46.96 5.93864C47.2626 5.59726 47.4866 5.0068 47.6365 4.16403L47.7429 3.54917L47.4789 3.50346L47.5471 3.10932ZM49.4846 3.71258C49.3758 3.87236 49.2624 4.01107 49.1472 4.13727L49.498 4.19798L49.4312 4.58424L49.7116 4.53535L49.8173 3.92443L50.1957 3.98992L50.1132 4.46683L50.7787 4.35063C50.6464 5.11526 50.5508 5.57368 50.4913 5.72982C50.4239 5.8846 50.2559 5.94076 49.9879 5.89437L49.9839 5.89369L49.9376 5.52843C50.0046 5.54003 50.063 5.5542 50.1182 5.56375C50.1497 5.56921 50.1762 5.5332 50.1964 5.46362C50.2152 5.40193 50.2573 5.18189 50.3242 4.79563L50.0484 4.84126L49.8267 6.12222L49.4483 6.05673L49.6468 4.90978L49.3664 4.95867L49.1951 5.94796C49.1638 6.12927 49.2032 6.22947 49.3175 6.24925L50.0428 6.37477C50.1216 6.38841 50.1809 6.37432 50.2271 6.34172C50.278 6.30587 50.3287 6.17664 50.3827 5.95865L50.7183 6.1304C50.6235 6.46717 50.5289 6.66189 50.4306 6.71388C50.3416 6.75936 50.2139 6.76974 50.0484 6.74109L49.1418 6.5842C48.862 6.53576 48.7561 6.32664 48.8202 5.95615L48.9819 5.02204L48.6975 5.07024L48.7617 4.69975L49.046 4.65154L49.132 4.15493C49.0618 4.23209 48.9884 4.30463 48.9209 4.36602L48.7128 3.99712C48.9865 3.75222 49.2525 3.38825 49.5107 2.9052L49.8819 3.05876C49.8234 3.1623 49.7695 3.26258 49.7124 3.35823L51.0485 3.58949L50.9823 3.9718L49.4846 3.71258Z" fill="white"/>
<path d="M53.2576 3.87391L55.1764 4.31142L55.0848 4.71311L53.166 4.2756L53.2576 3.87391ZM52.9435 4.81974L55.1235 5.31684L55.0319 5.71853L54.4314 5.58158L54.0588 7.21564C54.0001 7.47303 53.8264 7.56883 53.5378 7.50302L52.9723 7.37408L52.9733 6.95583C53.1492 7.01234 53.3181 7.06317 53.4819 7.10052C53.5872 7.12453 53.6507 7.09798 53.6685 7.01998L54.018 5.48732L52.8519 5.22143L52.9435 4.81974ZM52.6208 3.53588L52.9513 3.79586C52.6477 4.17381 52.2048 4.47898 51.6225 4.71136L51.5911 4.27341C52.0173 4.09571 52.3605 3.84986 52.6208 3.53588ZM52.5996 4.47465L52.9271 4.72984C52.7794 4.90951 52.6063 5.07516 52.4076 5.22679L51.9665 7.16114L51.5648 7.06954L51.9143 5.53688C51.7568 5.61584 51.5876 5.69214 51.4154 5.76364L51.3822 5.3335C51.8884 5.1289 52.2947 4.84002 52.5996 4.47465Z" fill="white"/>
<path d="M56.9756 5.55611C57.2233 5.75179 57.4403 5.96778 57.6227 6.203L57.3336 6.4573C57.1364 6.2012 56.9194 5.98521 56.6849 5.80162L56.9756 5.55611ZM56.1598 6.98277C56.3872 7.14767 56.6036 7.32191 56.8052 7.50438C57.0778 7.39512 57.369 7.24961 57.6801 7.06399L55.588 6.46557L55.6958 6.08868L58.2917 6.83121L58.1949 7.16964C57.8624 7.41569 57.503 7.62492 57.1139 7.79238C57.254 7.92814 57.3891 8.06664 57.5144 8.21063L57.1961 8.49404C56.7815 8.00931 56.3305 7.59325 55.8471 7.24695L56.1598 6.98277ZM57.3654 4.73151L57.6346 4.80852C57.9641 5.46026 58.4024 6.02247 58.9407 6.4968L58.6384 6.79725C58.1034 6.31138 57.6909 5.76072 57.3933 5.14306C56.8547 5.51322 56.208 5.7817 55.453 5.9485L55.3564 5.5298C56.1147 5.38058 56.7818 5.11375 57.3654 4.73151Z" fill="white"/>
<path d="M60.1332 5.50064L60.3077 7.53645L58.9165 9.03296L58.642 8.77343L59.9182 7.40228L59.7571 5.5361L60.1332 5.50064ZM60.7912 5.7273L60.9658 7.76312L59.5745 9.25963L59.3001 9.0001L60.5762 7.62895L60.4001 5.75756L60.7912 5.7273Z" fill="white"/>
<path d="M64.4438 7.04089L64.799 7.17589C64.5439 7.3742 64.3262 7.58673 64.1459 7.81346C63.9116 8.09239 63.7356 8.3978 63.6119 8.7231C63.4897 9.04466 63.4185 9.38985 63.407 9.75778C63.3926 10.0433 63.4142 10.3468 63.4718 10.6682L63.1166 10.5332C63.0309 10.2182 62.9929 9.91279 62.9952 9.61411C62.9986 9.25597 63.0676 8.90562 63.1955 8.5691C63.3262 8.22511 63.5059 7.92112 63.7412 7.65109C63.9407 7.41882 64.172 7.21572 64.4438 7.04089Z" fill="white"/>
<path d="M65.6717 7.99833L67.4664 8.71352L67.3272 9.06281L65.4802 10.9964L65.0195 10.8128L66.871 8.93267L65.5147 8.39221L65.6717 7.99833Z" fill="white"/>
<path d="M68.1289 11.4078C68.2106 11.4406 68.267 11.4933 68.3027 11.5765C68.336 11.6545 68.3375 11.737 68.3048 11.8187C68.2721 11.9004 68.2156 11.9553 68.1361 11.9924C68.0558 12.0206 67.9771 12.0235 67.8954 11.9908C67.8137 11.9581 67.7551 11.9001 67.7239 11.8273C67.6883 11.7441 67.6891 11.6669 67.7218 11.5852C67.7545 11.5035 67.8088 11.4433 67.8905 11.4114C67.9663 11.3729 68.0472 11.3751 68.1289 11.4078Z" fill="white"/>
<path d="M70.779 10.0344L71.1071 10.162L70.0721 12.8239L69.6359 12.6543L70.4665 10.5181C70.2497 10.6011 70.0063 10.631 69.7327 10.6061L69.9009 10.1737C70.0318 10.1902 70.1788 10.1873 70.342 10.1649C70.5081 10.1351 70.6533 10.0929 70.779 10.0344Z" fill="white"/>
<path d="M72.1942 10.0925L72.5513 10.2226C72.639 10.5312 72.685 10.8374 72.6841 11.1436C72.6819 11.5004 72.6229 11.8493 72.497 12.1951C72.3738 12.5333 72.1932 12.8422 71.9655 13.1168C71.7719 13.3443 71.5398 13.5493 71.2728 13.733L70.9157 13.6029C71.1657 13.396 71.3804 13.1804 71.5599 12.9564C71.788 12.6691 71.9635 12.3626 72.0812 12.0394C72.2003 11.7124 72.263 11.3649 72.2717 11.0019C72.2797 10.7111 72.2539 10.408 72.1942 10.0925Z" fill="white"/>
<g clip-path="url(#clip0_253_4577)">
<path d="M4.49782 7.40028C4.16947 6.34565 3.04833 5.75688 1.9937 6.08523C0.939058 6.41358 0.350288 7.53471 0.67864 8.58935C1.00699 9.64399 2.12812 10.2328 3.18276 9.9044C4.2374 9.57605 4.82617 8.45492 4.49782 7.40028Z" fill="white"/>
<path d="M3.24958 7.78887C3.36589 8.16245 3.15735 8.55958 2.78377 8.67589C2.41019 8.7922 2.01306 8.58364 1.89675 8.21006C1.78044 7.83649 1.989 7.43936 2.36258 7.32305C2.73616 7.20674 3.13327 7.4153 3.24958 7.78887Z" fill="#485CC2"/>
<path fill-rule="evenodd" clip-rule="evenodd" d="M1.87955 7.85472C1.88468 7.98899 1.95538 8.24622 2.20291 8.25506C2.45488 8.26404 2.55894 8.08229 2.57947 7.9903C2.60924 7.90452 2.71856 7.73497 2.91774 7.74291C3.11694 7.75083 3.20498 7.87567 3.2241 7.93711L3.27468 8.09956C3.28917 7.99853 3.28195 7.8928 3.24959 7.78887C3.13328 7.4153 2.73616 7.20674 2.36258 7.32305C2.10835 7.4022 1.93055 7.6114 1.87955 7.85472Z" fill="#D74B4B"/>
<path fill-rule="evenodd" clip-rule="evenodd" d="M0.990668 7.9097L1.20848 7.22749L1.31459 7.26137L1.09678 7.94358L0.990668 7.9097ZM1.17157 7.9533L1.38938 7.27109L1.49549 7.30497L1.27768 7.98718L1.17157 7.9533ZM1.556 7.31647L1.33818 7.99868L1.44429 8.03256L1.66211 7.35035L1.556 7.31647Z" fill="#333333"/>
<path fill-rule="evenodd" clip-rule="evenodd" d="M3.85504 7.0179L3.60957 6.82814L3.54049 6.91552L3.78693 7.10603L3.85504 7.0179ZM3.28846 6.5799L3.52145 6.76L3.45235 6.84739L3.22035 6.66803L3.28846 6.5799ZM3.73088 7.15648L3.16429 6.71849L3.09616 6.80661L3.66274 7.24461L3.73088 7.15648ZM3.31838 7.19647L3.55134 7.37655L3.61946 7.28842L3.38748 7.10908L3.31838 7.19647ZM3.29934 7.04095L3.23026 7.12834L2.98475 6.93855L3.05288 6.85043L3.29934 7.04095Z" fill="#333333"/>
<path fill-rule="evenodd" clip-rule="evenodd" d="M4.09142 8.37555L4.1858 8.07999L4.07969 8.0461L3.98495 8.34282L4.09142 8.37555ZM4.05755 8.48167L3.96798 8.76219L3.86188 8.72832L3.95106 8.44894L4.05755 8.48167ZM3.64262 8.23762L3.73218 7.95711L3.83828 7.991L3.74911 8.27034L3.64262 8.23762ZM3.71522 8.37646L3.60875 8.34373L3.51435 8.63934L3.62047 8.67321L3.71522 8.37646ZM4.0049 8.03637L3.91401 8.32103L3.80754 8.2883L3.89879 8.0025L4.0049 8.03637ZM3.78709 8.71859L3.88014 8.42714L3.77365 8.39442L3.68097 8.68471L3.78709 8.71859Z" fill="#333333"/>
<path fill-rule="evenodd" clip-rule="evenodd" d="M1.32142 8.97179L1.888 9.40978L1.95613 9.32166L1.38954 8.88365L1.32142 8.97179ZM1.557 8.70126L2.12359 9.13925L2.19171 9.05113L1.62513 8.61313L1.557 8.70126ZM1.44559 8.83319L1.682 9.01595L1.75108 8.92856L1.51372 8.74508L1.44559 8.83319ZM2.01218 9.2712L1.77013 9.08408L1.83921 8.99669L2.08031 9.18307L2.01218 9.2712Z" fill="#333333"/>
</g>
<defs>
<clipPath id="clip0_253_4577">
<rect width="4" height="4" fill="white" transform="translate(0.0841064 6.67976) rotate(-17.2935)"/>
</clipPath>
</defs>
</svg>
