<svg width="77" height="7" viewBox="0 0 77 7" fill="none" xmlns="http://www.w3.org/2000/svg">
<path d="M6.02601 0.696599L6.3862 0.853166L5.61228 2.56394L6.37436 4.27714L6.03055 4.4326L5.20028 2.56329L6.02601 0.696599ZM6.72201 0.697696L7.0662 0.854238L6.30828 2.56504L7.07036 4.27824L6.72655 4.43369L5.89628 2.56439L6.72201 0.697696ZM9.09885 1.39344L7.77085 1.39135L7.77037 0.991347L10.8544 0.996207L10.8548 1.39621L9.52285 1.39411L9.52576 3.78611L11.1018 3.78859L11.1022 4.19259L7.52225 4.18695L7.52176 3.78295L9.10176 3.78544L9.09885 1.39344ZM12.6621 0.755056L13.0821 0.755717L13.0859 3.88772L13.5259 3.88841L13.5221 0.756411L13.9421 0.757073L13.9459 3.88907L15.0979 3.89089L15.0984 4.29889L11.5224 4.29325L11.5219 3.88525L12.6659 3.88705L12.6621 0.755056ZM14.651 1.51419L15.0191 1.61877C14.8679 2.30253 14.6767 2.90222 14.4453 3.41386L14.0691 3.28127C14.2926 2.81762 14.4838 2.22592 14.651 1.51419ZM11.947 1.49793C12.1476 2.03024 12.3284 2.64253 12.4852 3.33077L12.1053 3.42217C11.9685 2.79796 11.7998 2.19769 11.5911 1.61737L11.947 1.49793ZM15.9941 0.788306C16.2503 0.980709 16.4666 1.17305 16.6428 1.36533L16.3591 1.65288C16.2029 1.46863 15.9867 1.26829 15.7104 1.05986L15.9941 0.788306ZM15.4635 1.92347L16.3875 1.92492L16.3895 3.58492C16.5054 3.4811 16.6292 3.3693 16.7611 3.24551L16.8776 3.68569C16.6139 3.92527 16.3342 4.13683 16.0384 4.32837L15.8779 3.95211C15.9459 3.89222 15.9818 3.81628 15.9817 3.72828L15.98 2.32428L15.464 2.32347L15.4635 1.92347ZM16.8961 2.40572L18.8481 2.4088L18.8485 2.7888C18.7369 3.13262 18.5533 3.43233 18.2976 3.68393C18.5458 3.84432 18.846 3.98479 19.2021 4.10935L18.9786 4.469C18.5864 4.30838 18.2542 4.13186 17.9899 3.93544C17.6782 4.15495 17.2984 4.33035 16.8426 4.46163L16.6101 4.10927C17.022 3.98992 17.3698 3.83847 17.6576 3.65492C17.4013 3.39852 17.2209 3.11823 17.1245 2.80608L16.8965 2.80572L16.8961 2.40572ZM17.5165 2.8067C17.6048 3.03484 17.7491 3.24307 17.9573 3.42739C18.1611 3.24371 18.3168 3.03996 18.4285 2.80814L17.5165 2.8067ZM17.1662 0.858153L18.6062 0.860422L18.6072 1.68842C18.6073 1.77642 18.6553 1.8245 18.7553 1.82465L19.0993 1.8252L19.0998 2.2052L18.6438 2.20448C18.3438 2.204 18.1956 2.06377 18.1953 1.78377L18.1947 1.25177L17.5787 1.2508L17.5788 1.3588C17.5793 1.7748 17.3637 2.09846 16.94 2.32179L16.6596 2.00135C16.9954 1.86188 17.1672 1.66215 17.1668 1.40215L17.1662 0.858153ZM20.7234 1.89576L21.7554 1.89738L21.754 0.737382L22.186 0.738063L22.1874 1.89806L23.1674 1.89961L23.1679 2.31561L22.1879 2.31406L22.1905 4.45806L21.7585 4.45738L21.7559 2.31338L20.7239 2.31176L20.7234 1.89576ZM20.0181 0.766647C20.2703 0.963044 20.4865 1.15938 20.6668 1.35167L20.3791 1.64321C20.2269 1.45897 20.0067 1.26263 19.7224 1.05418L20.0181 0.766647ZM19.4635 1.92177L20.4155 1.92327L20.4175 3.59527C20.5334 3.49545 20.6572 3.38365 20.7891 3.25986L20.8976 3.68803C20.6379 3.92762 20.3622 4.14318 20.0664 4.33471L19.9059 3.95846C19.9779 3.89858 20.0138 3.82663 20.0137 3.74263L20.0119 2.32263L19.4639 2.32177L19.4635 1.92177ZM27.0103 0.981664L27.0143 4.28566L26.6063 4.28502L26.606 3.99702L25.786 3.99573L25.7864 4.33173L25.3824 4.33109L25.3783 0.979092L27.0103 0.981664ZM25.7855 3.60373L26.6055 3.60502L26.6028 1.36902L25.7828 1.36773L25.7855 3.60373ZM23.5753 1.80425L24.2313 1.80528L24.2308 1.36128C24.0548 1.38901 23.8748 1.40872 23.6988 1.42044L23.5624 1.04823C24.1863 0.997214 24.6862 0.902002 25.054 0.762582L25.2505 1.10689C25.0465 1.17857 24.8386 1.24224 24.6307 1.28991L24.6313 1.80591L25.2713 1.80692L25.2718 2.19492L24.6318 2.19391L24.632 2.33791C24.8562 2.52627 25.0804 2.74262 25.3087 2.98298L25.0652 3.34659C24.8969 3.09833 24.7526 2.8981 24.6324 2.74591L24.6345 4.40591L24.2345 4.40528L24.2326 2.84928C24.073 3.16903 23.8773 3.46072 23.6416 3.72835L23.4611 3.26807C23.8087 2.95661 24.0643 2.60502 24.2318 2.21328L24.2318 2.19328L23.5758 2.19225L23.5753 1.80425ZM29.8874 1.9382L29.889 3.25019L28.477 3.24797L28.4778 3.86397C28.4779 3.96397 28.534 4.01606 28.654 4.01625L30.47 4.01911C30.55 4.01123 30.6019 3.97932 30.6299 3.91936C30.6498 3.87539 30.6736 3.73543 30.6973 3.50347L31.0935 3.63609C31.0658 3.87605 31.034 4.044 30.9981 4.14394C30.9423 4.31185 30.8144 4.39965 30.6064 4.40732L28.4785 4.40397C28.1985 4.40353 28.0583 4.27931 28.058 4.03131L28.0557 2.11931C27.9758 2.20718 27.8999 2.29106 27.82 2.37094L27.5236 2.01847C27.8672 1.71501 28.1627 1.27948 28.418 0.719883L28.8421 0.816551C28.7942 0.928475 28.7424 1.03639 28.6945 1.14032L30.8625 1.14373C30.8638 2.20773 30.8406 2.86369 30.8009 3.11163C30.7612 3.35957 30.5933 3.4873 30.2973 3.48684C30.2493 3.48676 30.1613 3.47862 30.0413 3.46643L29.9409 3.09428C30.0529 3.10645 30.1489 3.1146 30.2289 3.11473C30.3249 3.11488 30.3808 3.05097 30.3966 2.923C30.4205 2.78703 30.4319 2.32705 30.439 1.53907L28.475 1.53597C28.3871 1.67983 28.2993 1.81169 28.2075 1.93555L29.8874 1.9382ZM28.4766 2.87197L29.4686 2.87353L29.4679 2.31353L28.4759 2.31197L28.4766 2.87197ZM32.458 0.762249L32.882 0.762917L32.8842 2.59492L32.4602 2.59425L32.4596 2.10625C32.2318 2.22989 31.9719 2.34548 31.6761 2.45301L31.5116 2.07675C31.8675 1.97332 32.1833 1.84981 32.4592 1.70625L32.458 0.762249ZM33.0505 1.17918L33.8465 1.18044L33.846 0.756436L34.266 0.757098L34.2665 1.1811L35.0585 1.18235L35.059 1.55435L34.267 1.5531L34.2675 2.0251L34.9475 2.02617L34.948 2.39817L33.176 2.39538L33.1755 2.02338L33.8475 2.02443L33.847 1.55244L33.051 1.55118L33.0505 1.17918ZM31.7942 0.913202C32.0183 1.01356 32.2225 1.13388 32.4066 1.27817L32.203 1.60184C31.9948 1.44552 31.7867 1.32519 31.5746 1.23686L31.7942 0.913202ZM31.5204 2.74877L33.1604 2.75135C33.1123 2.67527 33.0602 2.60319 33.0042 2.5351L33.388 2.40771C33.4681 2.51184 33.5363 2.62794 33.6004 2.75204L35.0964 2.7544L35.0969 3.1304L34.5849 3.12959L34.8492 3.36601C34.7054 3.51778 34.5375 3.65352 34.3497 3.77322C34.5818 3.92159 34.846 4.038 35.1421 4.12647L34.8985 4.48608C34.1742 4.23694 33.6417 3.79211 33.3009 3.15557C33.1451 3.31532 32.9573 3.45903 32.7414 3.59069L32.742 4.01869C33.0179 3.95912 33.2778 3.88753 33.5257 3.80792L33.5902 4.17602C33.2303 4.27946 32.7904 4.37876 32.2785 4.47396L32.1901 4.11782C32.302 4.07399 32.362 4.00609 32.3618 3.91809L32.3617 3.79009C32.1618 3.88177 31.9499 3.96544 31.718 4.04107L31.5016 3.68873C32.1014 3.53768 32.5532 3.35039 32.8609 3.12688L31.5209 3.12477L31.5204 2.74877ZM33.6849 3.12818C33.7891 3.28834 33.9132 3.42854 34.0534 3.54876C34.2372 3.42505 34.3971 3.2853 34.5329 3.12951L33.6849 3.12818ZM35.868 2.41562C35.7722 2.53947 35.6723 2.65931 35.5685 2.77914L35.4279 2.33092C35.7954 1.8835 36.0627 1.35993 36.238 0.752205L36.6182 0.932804C36.5306 1.22066 36.4149 1.50048 36.2792 1.76427L36.2825 4.47627L35.8705 4.47562L35.868 2.41562ZM36.7942 0.893081L38.8862 0.896377L38.8878 2.27638L38.1038 2.27514L38.1045 2.81514L38.9925 2.81654L38.993 3.20054L38.105 3.19914L38.1059 3.99514C38.2259 4.01133 38.37 4.01956 38.53 4.02781C38.738 4.02814 38.954 4.02448 39.1699 4.01682L39.0944 4.4127L38.7224 4.41211C38.1304 4.40718 37.7304 4.34655 37.5182 4.23421C37.3101 4.12989 37.1379 3.96961 37.0016 3.7454C36.894 4.03723 36.7623 4.28902 36.6105 4.50078L36.3421 4.16436C36.6136 3.74879 36.797 3.19708 36.8921 2.50523L37.2882 2.57386C37.2485 2.82979 37.2008 3.06572 37.1451 3.28963C37.2012 3.42172 37.2734 3.54183 37.3655 3.64997C37.4616 3.75413 37.5737 3.8303 37.6938 3.88649L37.6918 2.27449L36.7958 2.27308L36.7942 0.893081ZM38.4834 1.89174L38.4826 1.27974L37.2026 1.27772L37.2034 1.88972L38.4834 1.89174ZM39.866 0.805922C40.1303 1.01434 40.3545 1.22269 40.5388 1.43098L40.2392 1.72651C40.0869 1.52627 39.8667 1.30992 39.5784 1.07747L39.866 0.805922ZM42.1464 4.41351C41.9304 4.41317 41.6944 4.40879 41.4424 4.4044C41.1864 4.39999 40.9784 4.37567 40.8103 4.3354C40.6503 4.28715 40.5142 4.19493 40.398 4.05875C40.3459 3.99067 40.2979 3.95859 40.2499 3.95852C40.1739 3.9584 40.0381 4.13418 39.8385 4.49387L39.5302 4.20938C39.7298 3.8897 39.9055 3.68598 40.0654 3.59823L40.0641 2.50223L39.5361 2.5014L39.5356 2.1174L40.4516 2.11884L40.4535 3.64284L40.4935 3.6829C40.5817 3.78704 40.6738 3.86719 40.7658 3.91933C40.8819 3.97951 41.0539 4.01179 41.2859 4.02015C41.5139 4.02451 41.782 4.02893 42.086 4.02941C42.286 4.02973 42.4859 4.02604 42.6939 4.02637C42.8979 4.01869 43.0539 4.01094 43.1619 4.00311L43.0624 4.41495L42.1464 4.41351ZM40.7587 1.36333L41.1827 1.36399L41.182 0.767995L41.586 0.768632L41.5867 1.36463L42.0907 1.36543L42.09 0.777426L42.498 0.778069L42.4987 1.36607L42.9587 1.36679L42.9592 1.75479L42.4992 1.75407L42.5 2.43007L43.088 2.43099L43.0885 2.82299L42.5005 2.82207L42.5018 3.88607L42.0938 3.88542L42.0925 2.82142L41.4925 2.82048C41.381 3.2723 41.1814 3.60799 40.8897 3.82753L40.6373 3.49513C40.8451 3.34346 40.9929 3.11969 41.0805 2.81983L40.6205 2.81911L40.62 2.42711L41.16 2.42796C41.1759 2.29998 41.1837 2.16799 41.1835 2.02399L41.1832 1.75199L40.7592 1.75133L40.7587 1.36333ZM41.5872 1.75263L41.5874 1.92863C41.5876 2.10463 41.5758 2.27261 41.56 2.42859L42.092 2.42943L42.0912 1.75343L41.5872 1.75263ZM45.57 0.790909L45.994 0.791578L45.9947 1.38358L46.9787 1.38513L46.9792 1.78913L45.9952 1.78758L45.996 2.40758L47.084 2.40929L47.0845 2.81729L45.7885 2.81525C45.5731 3.32691 45.3776 3.7066 45.2099 3.95433C45.6258 3.90699 46.0417 3.83965 46.4536 3.75629C46.3534 3.54814 46.2531 3.35998 46.1489 3.18382L46.5527 3.04845C46.7852 3.44882 46.9897 3.87314 47.1663 4.32942L46.7705 4.50479C46.7184 4.36871 46.6662 4.24063 46.6181 4.12055C46.0222 4.23961 45.3783 4.3306 44.6824 4.3975L44.59 4.03336C44.6299 4.02142 44.6579 4.00946 44.6779 3.9975C44.8457 3.84576 45.0692 3.45411 45.3405 2.81454L44.4765 2.81318L44.476 2.40518L45.572 2.40691L45.5712 1.78691L44.6672 1.78548L44.6667 1.38148L45.5707 1.38291L45.57 0.790909ZM43.866 0.812225C44.1223 1.01263 44.3385 1.20897 44.5188 1.40525L44.2231 1.70478C44.0709 1.51655 43.8507 1.3162 43.5664 1.09975L43.866 0.812225ZM43.7672 1.74807C44.0034 1.94844 44.2037 2.14875 44.3719 2.34902L44.0723 2.64454C43.932 2.46032 43.7318 2.25601 43.4715 2.0356L43.7672 1.74807ZM44.1286 2.88063L44.5087 3.03723C44.3373 3.53696 44.1459 4.00866 43.9385 4.44833L43.5182 4.26367C43.7537 3.81604 43.9571 3.35236 44.1286 2.88063ZM47.5226 1.30599L48.0826 1.30687C48.0184 1.13877 47.9502 0.98266 47.8701 0.834534L48.298 0.763208C48.3622 0.923309 48.4264 1.10341 48.4906 1.30751L48.9546 1.30824L48.9551 1.70824L48.1831 1.70702L48.1836 2.14302L48.8916 2.14414C48.8929 3.19614 48.8737 3.84411 48.842 4.09206C48.8023 4.33599 48.6145 4.4597 48.2825 4.45917C48.2505 4.45912 48.1984 4.45104 48.1304 4.43893L48.034 4.06678C48.106 4.0789 48.166 4.08699 48.218 4.08707C48.358 4.08729 48.4419 4.01943 48.4658 3.89146C48.4856 3.7635 48.4971 3.30752 48.5041 2.52753L48.1801 2.52702C48.1572 3.40298 48.01 4.05075 47.7425 4.47032L47.4301 4.19383C47.6697 3.80621 47.7889 3.1864 47.7919 2.33041L47.7911 1.70641L47.5231 1.70598L47.5226 1.30599ZM49.5349 1.57316C49.4552 1.74903 49.3674 1.90489 49.2755 2.04875L49.6315 2.04931L49.632 2.44131L49.8999 2.34573L49.8991 1.72573L50.2831 1.72633L50.2837 2.21033L50.9194 1.98334C50.9204 2.75934 50.905 3.22731 50.8732 3.39126C50.8334 3.5552 50.6775 3.63895 50.4055 3.63852L50.4015 3.63852L50.293 3.28635C50.361 3.28645 50.421 3.29055 50.477 3.29064C50.509 3.29069 50.529 3.25072 50.5369 3.17873C50.5448 3.11474 50.5485 2.89075 50.5481 2.49875L50.2842 2.59033L50.2858 3.89033L49.9018 3.88973L49.9003 2.72573L49.6325 2.82131L49.6337 3.82531C49.6339 4.00931 49.69 4.10139 49.806 4.10158L50.542 4.10274C50.622 4.10286 50.678 4.07895 50.7179 4.03901C50.7619 3.99508 50.7897 3.85913 50.8054 3.63515L51.1656 3.74772C51.13 4.09566 51.0703 4.30357 50.9823 4.37143C50.9024 4.4313 50.7785 4.46311 50.6105 4.46284L49.6905 4.46139C49.4065 4.46095 49.2662 4.27273 49.2658 3.89673L49.2646 2.94873L48.9927 3.0443L48.9923 2.6683L49.2642 2.57273L49.2635 2.06873C49.2077 2.15664 49.1478 2.24054 49.0918 2.31246L48.8234 1.98403C49.0511 1.69639 49.2506 1.29271 49.422 0.772979L49.8141 0.861597C49.7742 0.973534 49.7383 1.08148 49.6985 1.18541L51.0545 1.18755L51.0549 1.57555L49.5349 1.57316ZM52.9782 1.00258L54.9462 1.00568L54.9467 1.41768L52.9787 1.41458L52.9782 1.00258ZM52.8834 1.99443L55.1194 1.99795L55.1199 2.40995L54.5039 2.40898L54.506 4.08498C54.5063 4.34898 54.3585 4.48075 54.0625 4.48028L53.4825 4.47937L53.39 4.07122C53.574 4.08751 53.75 4.09979 53.918 4.10006C54.026 4.10023 54.082 4.06031 54.0819 3.98031L54.0799 2.40831L52.8839 2.40643L52.8834 1.99443ZM52.282 0.813486L52.6622 0.994085C52.4508 1.42975 52.0872 1.82518 51.5717 2.18036L51.4432 1.76016C51.8188 1.49275 52.0985 1.1772 52.282 0.813486ZM52.4711 1.73378L52.8473 1.91037C52.7436 2.11821 52.6118 2.318 52.4521 2.50975L52.4545 4.49375L52.0425 4.4931L52.0406 2.9211C51.9047 3.03289 51.7568 3.14465 51.605 3.25241L51.4765 2.84021C51.9241 2.52892 52.2556 2.15744 52.4711 1.73378ZM57.0191 1.73295C57.3113 1.85341 57.5794 2.00183 57.8197 2.17821L57.6121 2.50188C57.3518 2.30947 57.0836 2.16105 56.8075 2.04861L57.0191 1.73295ZM56.6291 3.32833C56.8932 3.42475 57.1493 3.53315 57.3935 3.65353C57.6252 3.4739 57.865 3.25428 58.1126 2.99067L55.9366 2.98724L55.9362 2.59524L58.6362 2.59949L58.6366 2.95149C58.385 3.2791 58.0974 3.57864 57.7697 3.84613C57.9418 3.9384 58.1099 4.03466 58.27 4.13891L58.0425 4.49855C57.51 4.14572 56.9617 3.86885 56.4015 3.66797L56.6291 3.32833ZM57.166 0.833182L57.446 0.833623C57.9427 1.3704 58.5192 1.79131 59.1676 2.10033L58.96 2.472C58.3116 2.15098 57.7631 1.73412 57.3065 1.2214C56.8911 1.72475 56.3436 2.15988 55.6641 2.52681L55.4556 2.15048C56.1432 1.79957 56.7107 1.36046 57.166 0.833182ZM59.89 0.781474L60.7202 2.65078L59.8945 4.51747L59.5503 4.36093L60.3082 2.65013L59.5461 0.936932L59.89 0.781474ZM60.586 0.782571L61.4162 2.65187L60.5905 4.51857L60.2463 4.36203L61.0042 2.65123L60.2261 0.938003L60.586 0.782571ZM64.0939 0.788098L64.4739 0.788697C64.3063 1.06443 64.1786 1.34023 64.091 1.61609C63.9714 1.9599 63.9158 2.30781 63.9162 2.65581C63.9166 2.99981 63.9731 3.3479 64.0935 3.69609C64.1818 3.96823 64.3101 4.24443 64.4785 4.52469L64.0985 4.5241C63.9062 4.25979 63.7618 3.98757 63.6575 3.7074C63.5331 3.37121 63.4727 3.01911 63.4722 2.65911C63.4718 2.29111 63.5314 1.94321 63.6549 1.6074C63.7586 1.31957 63.9023 1.0478 64.0939 0.788098ZM65.5665 1.24242L65.9185 1.24297L65.922 4.09897L65.454 4.09823L65.4512 1.80623C65.2794 1.96196 65.0635 2.07762 64.7996 2.15321L64.7991 1.68921C64.927 1.65741 65.063 1.60162 65.2069 1.52185C65.3508 1.43408 65.4706 1.34227 65.5665 1.24242ZM67.5231 1.1895C67.7991 1.18994 68.0272 1.27029 68.2074 1.43058C68.3836 1.59086 68.4718 1.79499 68.4721 2.05099C68.4724 2.29899 68.3767 2.52284 68.1929 2.72655C68.0811 2.84638 67.8813 2.99806 67.6015 3.18562C67.3097 3.37716 67.1339 3.54488 67.0701 3.68878L68.4781 3.691L68.4786 4.103L66.4866 4.09986C66.4863 3.80786 66.578 3.55601 66.7697 3.34031C66.8736 3.22047 67.0933 3.04482 67.4251 2.81734C67.6089 2.68963 67.7368 2.58183 67.8167 2.49796C67.9405 2.35816 68.0043 2.20626 68.0041 2.04626C68.0039 1.89026 67.9598 1.77419 67.8797 1.69806C67.7956 1.62193 67.6716 1.58573 67.5076 1.58548C67.3316 1.5852 67.1996 1.64499 67.1118 1.76485C67.0239 1.87671 66.9761 2.04864 66.9684 2.27262L66.5004 2.27189C66.504 1.95189 66.5957 1.69604 66.7795 1.50033C66.9672 1.29262 67.2151 1.18902 67.5231 1.1895ZM69.2283 3.50018C69.3163 3.50032 69.3884 3.52843 69.4524 3.59253C69.5125 3.65263 69.5446 3.72868 69.5447 3.81668C69.5448 3.90468 69.5129 3.97663 69.453 4.04053C69.389 4.09643 69.3171 4.12832 69.2291 4.12818C69.1411 4.12804 69.065 4.09592 69.009 4.03983C68.9449 3.97573 68.9168 3.90369 68.9167 3.81569C68.9166 3.72769 68.9445 3.65173 69.0084 3.59184C69.0644 3.52792 69.1403 3.50004 69.2283 3.50018ZM71.0231 1.19502C71.2991 1.19545 71.5272 1.27581 71.7074 1.43609C71.8836 1.59637 71.9718 1.80051 71.9721 2.05651C71.9724 2.30451 71.8767 2.52836 71.6929 2.73207C71.5811 2.85189 71.3813 3.00358 71.1015 3.19113C70.8097 3.38267 70.6339 3.5504 70.5701 3.6943L71.9781 3.69651L71.9786 4.10851L69.9866 4.10538C69.9863 3.81338 70.078 3.56152 70.2697 3.34582C70.3735 3.22599 70.5933 3.05033 70.9251 2.82286C71.1089 2.69515 71.2368 2.58735 71.3167 2.50347C71.4405 2.36367 71.5043 2.21177 71.5041 2.05177C71.5039 1.89577 71.4598 1.7797 71.3797 1.70358C71.2956 1.62744 71.1716 1.59125 71.0076 1.59099C70.8316 1.59071 70.6996 1.6505 70.6118 1.77037C70.5239 1.88223 70.4761 2.05415 70.4684 2.27814L70.0004 2.2774C70.004 1.95741 70.0957 1.70155 70.2795 1.50584C70.4672 1.29814 70.7151 1.19453 71.0231 1.19502ZM73.4055 1.19877C73.6935 1.19922 73.9296 1.2676 74.1058 1.40787C74.2779 1.54814 74.3662 1.74028 74.3665 1.98828C74.3668 2.30028 74.2071 2.50803 73.8912 2.61153C74.0593 2.6638 74.1914 2.74 74.2795 2.84414C74.3756 2.95229 74.4238 3.09237 74.424 3.26037C74.4243 3.52437 74.3326 3.74022 74.1488 3.90793C73.957 4.07963 73.7051 4.16723 73.3931 4.16674C73.0971 4.16628 72.857 4.0899 72.6768 3.93761C72.4766 3.7693 72.3643 3.52112 72.3399 3.20109L72.8159 3.20184C72.8242 3.38585 72.8803 3.52994 72.9925 3.63011C73.0926 3.72227 73.2246 3.77048 73.3886 3.77074C73.5686 3.77102 73.7126 3.71925 73.8165 3.61941C73.9083 3.52756 73.9562 3.41563 73.956 3.27963C73.9558 3.11563 73.9037 2.99555 73.8076 2.9194C73.7115 2.83925 73.5715 2.80303 73.3875 2.80274L73.1875 2.80242L73.187 2.45042L73.387 2.45074C73.555 2.451 73.683 2.4152 73.7709 2.34334C73.8548 2.27148 73.8987 2.16354 73.8985 2.02354C73.8983 1.88354 73.8582 1.77948 73.7821 1.70736C73.698 1.63523 73.574 1.59903 73.41 1.59878C73.242 1.59851 73.114 1.63831 73.0221 1.72216C72.9263 1.80601 72.8704 1.93392 72.8546 2.1059L72.3946 2.10517C72.4183 1.81721 72.522 1.59338 72.7138 1.43368C72.8936 1.27396 73.1255 1.19833 73.4055 1.19877ZM74.7395 0.804873L75.1195 0.805472C75.3078 1.06577 75.4561 1.338 75.5605 1.62616C75.6809 1.96235 75.7453 2.31045 75.7457 2.67845C75.7462 3.03845 75.6826 3.39035 75.563 3.72616C75.4594 4.006 75.3117 4.27777 75.124 4.54147L74.744 4.54087C74.9077 4.26113 75.0353 3.98533 75.127 3.71348C75.2426 3.36566 75.3022 3.01775 75.3017 2.67375C75.3013 2.32575 75.2409 1.97766 75.1245 1.63348C75.0321 1.35733 74.9038 1.08113 74.7395 0.804873Z" fill="white"/>
<g clip-path="url(#clip0_4_53654)">
<path d="M4 2.6C4 1.49543 3.10457 0.6 2 0.6C0.89543 0.6 0 1.49543 0 2.6C0 3.70457 0.89543 4.6 2 4.6C3.10457 4.6 4 3.70457 4 2.6Z" fill="white"/>
<path d="M2.69264 2.59995C2.69264 2.99122 2.37547 3.3084 1.9842 3.3084C1.59294 3.3084 1.27576 2.99122 1.27576 2.59995C1.27576 2.20869 1.59294 1.89151 1.9842 1.89151C2.37547 1.89151 2.69264 2.20869 2.69264 2.59995Z" fill="#485CC2"/>
<path fill-rule="evenodd" clip-rule="evenodd" d="M1.36494 2.25556C1.32993 2.38528 1.32096 2.6519 1.55468 2.73392C1.79259 2.8174 1.94598 2.6748 1.99293 2.59307C2.04684 2.52002 2.20163 2.39063 2.38944 2.45742C2.57728 2.5242 2.62423 2.66957 2.62423 2.73392V2.90405C2.66809 2.8119 2.69263 2.7088 2.69263 2.59995C2.69263 2.20869 2.37546 1.89151 1.98419 1.89151C1.71793 1.89151 1.48598 2.0384 1.36494 2.25556Z" fill="#D74B4B"/>
<path fill-rule="evenodd" clip-rule="evenodd" d="M0.5 2.04384L0.910768 1.45722L1.00201 1.52111L0.591243 2.10773L0.5 2.04384ZM0.65976 2.13925L1.07053 1.55262L1.16177 1.61652L0.751003 2.20314L0.65976 2.13925ZM1.21612 1.64548L0.805353 2.2321L0.896597 2.296L1.30736 1.70937L1.21612 1.64548Z" fill="#333333"/>
<path fill-rule="evenodd" clip-rule="evenodd" d="M3.49999 2.04385L3.32203 1.78969L3.23009 1.85259L3.40876 2.10774L3.49999 2.04385ZM3.08923 1.45722L3.25814 1.69844L3.16619 1.76134L2.99799 1.52111L3.08923 1.45722ZM3.34024 2.13925L2.92948 1.55263L2.83823 1.61652L3.24899 2.20314L3.34024 2.13925ZM2.93451 2.05481L3.10341 2.296L3.19464 2.23211L3.02646 1.99191L2.93451 2.05481ZM2.96256 1.90066L2.87063 1.96356L2.69263 1.70938L2.78388 1.64549L2.96256 1.90066Z" fill="#333333"/>
<path fill-rule="evenodd" clip-rule="evenodd" d="M3.32203 3.41037L3.49999 3.15622L3.40876 3.09232L3.23009 3.34747L3.32203 3.41037ZM3.25814 3.50162L3.08923 3.74283L2.99799 3.67895L3.16619 3.43872L3.25814 3.50162ZM2.93451 3.14525L3.10341 2.90405L3.19464 2.96795L3.02646 3.20815L2.93451 3.14525ZM2.96256 3.2994L2.87063 3.2365L2.69263 3.49068L2.78388 3.55457L2.96256 3.2994ZM3.34024 3.0608L3.16884 3.30557L3.07691 3.24267L3.24899 2.99692L3.34024 3.0608ZM2.92948 3.64743L3.10496 3.39682L3.01301 3.33392L2.83823 3.58353L2.92948 3.64743Z" fill="#333333"/>
<path fill-rule="evenodd" clip-rule="evenodd" d="M0.5 3.15622L0.910768 3.74283L1.00201 3.67895L0.591243 3.09232L0.5 3.15622ZM0.805353 2.96795L1.21612 3.55457L1.30736 3.49068L0.896597 2.90405L0.805353 2.96795ZM0.65976 3.0608L0.83115 3.30557L0.923087 3.24267L0.751005 2.99692L0.65976 3.0608ZM1.07053 3.64743L0.895045 3.39682L0.986982 3.33392L1.16177 3.58353L1.07053 3.64743Z" fill="#333333"/>
</g>
<defs>
<clipPath id="clip0_4_53654">
<rect width="4" height="4" fill="white" transform="translate(0 0.6)"/>
</clipPath>
</defs>
</svg>
