<svg width="65" height="17" viewBox="0 0 65 17" fill="none" xmlns="http://www.w3.org/2000/svg">
<path d="M6.64029 9.39735L6.99029 9.57465L6.11303 11.237L6.76901 12.9915L6.41627 13.1266L5.70177 11.2123L6.64029 9.39735ZM7.33504 9.43908L7.66906 9.61543L6.80778 11.2788L7.46375 13.0333L7.11102 13.1684L6.39652 11.2541L7.33504 9.43908Z" fill="white"/>
<path d="M9.59833 10.9659L8.29552 10.9102L8.31176 10.5305L11.329 10.6596L11.2852 11.6827L9.97843 11.6268L9.96577 11.9225L11.4164 11.9846C11.3952 12.4801 11.3458 12.7943 11.272 12.9273C11.1943 13.0601 11.0355 13.1213 10.7874 13.1187C10.6195 13.1115 10.4519 13.1004 10.2922 13.0895L10.2052 12.6894C10.3967 12.7056 10.5722 12.7212 10.736 12.7282C10.8439 12.7328 10.9094 12.6995 10.9365 12.6286C10.9555 12.5574 10.972 12.454 10.9776 12.3221L9.95056 12.2782L9.9073 13.2893L9.49967 13.2718L9.53883 12.3566C9.24107 12.6722 8.76935 12.9363 8.12367 13.1489L7.90812 12.7593C8.47496 12.6114 8.88263 12.4407 9.13131 12.2431L8.10824 12.1994L8.352 11.1808L9.58687 11.2337L9.59833 10.9659ZM9.5708 11.6093L8.70359 11.5722L8.61901 11.8649L9.55815 11.9051L9.5708 11.6093ZM9.9945 11.2511L10.8737 11.2887L10.8852 11.021L10.006 10.9834L9.9945 11.2511ZM8.63675 10.1401C8.54736 10.2644 8.45031 10.3803 8.34162 10.4878L7.9877 10.2444C8.23756 10.0189 8.41618 9.7743 8.52755 9.51082L8.92742 9.61601C8.90087 9.67493 8.8745 9.72985 8.84813 9.78477L9.81924 9.82632L9.80368 10.19L9.28416 10.1678C9.34833 10.2586 9.40086 10.3409 9.4454 10.4229L9.06376 10.5467C8.99747 10.4117 8.92301 10.2804 8.83657 10.1486L8.63675 10.1401ZM10.344 10.1931C10.2583 10.3255 10.1689 10.4498 10.0679 10.5656L9.71794 10.3224C9.94001 10.0917 10.0986 9.84628 10.198 9.58229L10.5899 9.68714C10.5717 9.73841 10.5495 9.7895 10.5274 9.8366L11.6424 9.88431L11.6269 10.248L11.0114 10.2216C11.0794 10.3166 11.1356 10.4071 11.18 10.4931L10.8063 10.6172C10.7364 10.4741 10.6543 10.3345 10.5638 10.2025L10.344 10.1931Z" fill="white"/>
<path d="M12.3828 10.0753L15.2538 10.15L15.2431 10.5619L12.3721 10.4872L12.3828 10.0753ZM11.9454 12.5808L15.5562 12.6748L15.5453 13.0946L11.9345 13.0007L11.9454 12.5808Z" fill="white"/>
<path d="M17.6 10.747C17.473 11.122 17.3146 11.4168 17.1209 11.6312L16.7749 11.3844C17.094 10.995 17.3023 10.4526 17.3999 9.75339L17.8154 9.82472C17.7859 10.0085 17.7525 10.1842 17.7152 10.3439L19.3712 10.3572L19.369 10.6332C19.2823 10.9685 19.1716 11.2996 19.033 11.6305L18.6219 11.5112C18.7356 11.2961 18.8337 11.0449 18.916 10.7576L17.6 10.747ZM17.9022 10.9734L18.3102 10.9767C18.3085 11.1847 18.295 11.3806 18.2735 11.5644C18.492 12.2462 18.8997 12.7855 19.4885 13.1902L19.21 13.508C18.7448 13.1443 18.3884 12.7014 18.1445 12.1834L18.0954 12.327C17.9316 12.7977 17.5444 13.1907 16.934 13.4978L16.6607 13.1596C17.1868 12.8998 17.5333 12.5865 17.7003 12.2119C17.8228 11.8928 17.8902 11.4774 17.9022 10.9734ZM16.1306 9.91523C16.4241 10.2336 16.6499 10.5114 16.8079 10.7527L16.4781 10.978C16.3082 10.7207 16.0785 10.4348 15.7929 10.1245L16.1306 9.91523ZM16.4528 11.6459L16.8196 11.7888C16.6072 12.3471 16.375 12.8693 16.1151 13.3552L15.7285 13.1761C16.0045 12.6783 16.2486 12.1683 16.4528 11.6459Z" fill="white"/>
<path d="M21.5396 10.4441L20.2117 10.4629L20.2061 10.063L23.2898 10.0194L23.2954 10.4193L21.9636 10.4382L21.9974 12.8299L23.5732 12.8076L23.5789 13.2116L19.9993 13.2622L19.9936 12.8582L21.5734 12.8359L21.5396 10.4441Z" fill="white"/>
<path d="M24.9706 9.71961L25.3903 9.70232L25.5192 12.8317L25.9588 12.8136L25.8299 9.68421L26.2495 9.66692L26.3785 12.7963L27.5295 12.7489L27.5463 13.1565L23.9733 13.3037L23.9565 12.896L25.0995 12.849L24.9706 9.71961ZM26.9881 10.3931L27.36 10.4819C27.2363 11.1716 27.0692 11.779 26.8584 12.3001L26.4773 12.1837C26.682 11.7109 26.8495 11.1115 26.9881 10.3931ZM24.2859 10.4924C24.5076 11.0158 24.7126 11.6198 24.8968 12.3008L24.5209 12.4084C24.3593 11.7905 24.1668 11.1979 23.9351 10.627L24.2859 10.4924Z" fill="white"/>
<path d="M28.2463 9.59383C28.5165 9.76535 28.7468 9.93998 28.9372 10.1177L28.6764 10.4269C28.5066 10.2556 28.2757 10.073 27.9843 9.88708L28.2463 9.59383ZM27.8043 10.7677L28.7255 10.6959L28.8545 12.3509C28.962 12.2382 29.077 12.1169 29.1989 11.983L29.3488 12.4127C29.1042 12.6725 28.8416 12.9056 28.5614 13.12L28.3726 12.7576C28.4358 12.6925 28.4657 12.6139 28.4589 12.5262L28.3498 11.1264L27.8353 11.1665L27.8043 10.7677ZM29.2692 11.135L31.2153 10.9833L31.2449 11.3621C31.1599 11.7138 30.9998 12.0272 30.7642 12.2983C31.0239 12.4385 31.3338 12.5548 31.6984 12.6508L31.5031 13.0271C31.0998 12.898 30.7551 12.7484 30.4767 12.5735C30.1827 12.8171 29.8176 13.0221 29.3732 13.1891L29.1145 12.8562C29.516 12.7046 29.8511 12.526 30.1239 12.3201C29.8488 12.0848 29.6476 11.8196 29.5276 11.5161L29.3003 11.5338L29.2692 11.135ZM29.9184 11.4856C30.0239 11.7061 30.1836 11.9022 30.4053 12.0695C30.5944 11.8702 30.7341 11.6547 30.8277 11.4147L29.9184 11.4856ZM29.4201 9.57052L30.8557 9.4586L30.9201 10.2841C30.9269 10.3718 30.9785 10.416 31.0782 10.4082L31.4212 10.3814L31.4507 10.7603L30.9961 10.7957C30.697 10.8191 30.5386 10.691 30.5168 10.4118L30.4754 9.88144L29.8613 9.92932L29.8697 10.037C29.902 10.4517 29.7119 10.7915 29.3066 11.0478L29.0025 10.7505C29.3266 10.5849 29.4826 10.3721 29.4624 10.1129L29.4201 9.57052Z" fill="white"/>
<path d="M32.9802 10.2629L34.0033 10.1275L33.8512 8.97754L34.2795 8.92089L34.4316 10.0709L35.4031 9.94235L35.4577 10.3548L34.4861 10.4833L34.7673 12.6088L34.339 12.6654L34.0579 10.5399L33.0348 10.6753L32.9802 10.2629ZM32.1344 9.23693C32.4099 9.39819 32.6497 9.56417 32.8534 9.7309L32.6061 10.0582C32.4313 9.89567 32.1875 9.73022 31.8787 9.56126L32.1344 9.23693ZM31.7348 10.4559L32.6786 10.331L32.8978 11.9886C32.9997 11.8742 33.1079 11.7469 33.2225 11.6067L33.3857 12.0168C33.1595 12.2889 32.9142 12.5392 32.6459 12.7683L32.438 12.4166C32.5015 12.3476 32.5277 12.2715 32.5167 12.1883L32.3305 10.7805L31.7872 10.8524L31.7348 10.4559Z" fill="white"/>
<path d="M36.0993 10.3009C36.0328 10.443 35.9616 10.582 35.8864 10.7219L35.6516 10.3155C35.9124 9.79767 36.0589 9.22765 36.0973 8.59585L36.5075 8.68812C36.4848 8.98841 36.433 9.28703 36.3583 9.57444L36.9531 12.2204L36.5511 12.3108L36.0993 10.3009ZM36.6704 8.61049L38.7115 8.15165L39.0142 9.49805L38.2493 9.67001L38.3677 10.1969L39.2341 10.0021L39.3183 10.3767L38.4519 10.5715L38.6265 11.3481C38.7471 11.3374 38.8893 11.3136 39.0472 11.2864C39.2501 11.2407 39.46 11.1895 39.669 11.1343L39.6817 11.5373L39.3187 11.6189C38.7403 11.7448 38.3369 11.774 38.1055 11.7112C37.8797 11.6554 37.6768 11.537 37.495 11.3483C37.4537 11.6569 37.3802 11.9317 37.2784 12.1719L36.9432 11.9028C37.1173 11.4373 37.1758 10.8584 37.1177 10.1622L37.5189 10.1417C37.536 10.4002 37.541 10.641 37.5355 10.8718C37.6191 10.9883 37.7156 11.0896 37.8291 11.1748C37.9455 11.2552 38.0715 11.3048 38.2009 11.3331L37.8473 9.76037L36.9731 9.95689L36.6704 8.61049ZM38.5358 9.21201L38.4016 8.61491L37.1527 8.89566L37.2869 9.49275L38.5358 9.21201Z" fill="white"/>
<path d="M39.6606 7.81083C39.9695 7.94319 40.2398 8.08593 40.4715 8.23906L40.2586 8.60277C40.0599 8.44907 39.7914 8.29756 39.453 8.14824L39.6606 7.81083ZM42.7939 10.7007C42.5853 10.7568 42.3563 10.8141 42.1119 10.8757C41.8637 10.9383 41.6566 10.9691 41.4839 10.974C41.317 10.9692 41.1617 10.9156 41.0144 10.8144C40.9466 10.7622 40.8919 10.7438 40.8455 10.7562C40.7721 10.7759 40.6865 10.9812 40.5868 11.3808L40.2156 11.1864C40.3257 10.8255 40.4427 10.5828 40.5744 10.4563L40.29 9.39786L39.7801 9.53488L39.6804 9.16403L40.5651 8.92632L40.9605 10.3981L41.0096 10.4264C41.1215 10.504 41.2311 10.5573 41.3335 10.5837C41.4611 10.6115 41.6355 10.5978 41.8616 10.5453C42.0828 10.49 42.3427 10.4243 42.6363 10.3454C42.8294 10.2935 43.0215 10.2378 43.2224 10.1838C43.4174 10.1231 43.5659 10.0749 43.6682 10.0392L43.6785 10.463L42.7939 10.7007ZM40.6663 8.11629L41.0758 8.00626L40.9211 7.43068L41.3113 7.32584L41.4659 7.90142L41.9527 7.77063L41.8001 7.20277L42.1941 7.09689L42.3467 7.66475L42.7909 7.54538L42.8916 7.92008L42.4474 8.03946L42.6228 8.6923L43.1907 8.53971L43.2924 8.91828L42.7245 9.07087L43.0007 10.0984L42.6066 10.2043L42.3305 9.17675L41.7511 9.33245C41.7602 9.79803 41.6543 10.1744 41.4294 10.4627L41.0998 10.2074C41.2613 10.0067 41.3461 9.75193 41.3532 9.43937L40.909 9.55874L40.8072 9.18017L41.3287 9.04004C41.311 8.91227 41.2844 8.78272 41.2471 8.64365L41.1765 8.38097L40.767 8.491L40.6663 8.11629ZM41.5666 8.27613L41.6123 8.4461C41.658 8.61607 41.69 8.78143 41.715 8.93624L42.2288 8.79818L42.0534 8.14534L41.5666 8.27613Z" fill="white"/>
<path d="M44.939 9.16319L45.0523 9.55096C44.767 9.80104 44.4278 10.0377 44.0324 10.2533L43.8619 9.86972C44.288 9.64516 44.6449 9.41167 44.939 9.16319ZM43.4851 6.71265L43.8952 6.74698C43.8686 7.25483 43.8173 7.67822 43.7375 8.01827C43.8444 7.97037 43.949 7.91479 44.0498 7.86033C44.073 7.71184 44.0929 7.55183 44.1144 7.38301L44.5273 7.41238C44.4121 8.0878 44.297 8.59235 44.1809 8.92218C44.3802 8.80558 44.5739 8.66979 44.7631 8.51865L44.8674 8.87571C44.525 9.12998 44.1883 9.33257 43.8601 9.47852L43.6559 9.15063C43.7161 9.09972 43.7674 9.04721 43.8011 8.99151C43.8612 8.8406 43.9235 8.59736 43.9895 8.253C43.835 8.32317 43.675 8.40326 43.5151 8.48335L43.3192 8.1697C43.3728 8.12487 43.4092 8.06421 43.4362 7.98548C43.4789 7.58961 43.4972 7.16752 43.4851 6.71265ZM46.4917 6.26311L46.7229 7.05402L46.3889 7.15165L46.4596 7.39353L45.0352 7.80985L44.9645 7.56797L44.6304 7.6656L44.3993 6.87469L45.2055 6.63904C45.1197 6.53076 45.0334 6.43513 44.9505 6.35102L45.3411 6.16184C45.4269 6.27011 45.5161 6.3899 45.6048 6.52233L46.4917 6.26311ZM44.9746 7.43165L46.3031 7.04338L46.2144 6.74007L44.886 7.12834L44.9746 7.43165ZM45.2151 8.75327L45.6061 8.72233C45.6207 9.14312 45.5824 9.52522 45.4822 9.86704L45.0804 9.74695C45.1839 9.41665 45.2292 9.0867 45.2151 8.75327ZM46.7687 8.26583C47.0037 8.51386 47.2252 8.78669 47.4353 9.09202L47.128 9.35267C46.904 9.01392 46.677 8.72188 46.4557 8.47817L46.7687 8.26583ZM46.2233 9.75046L45.8854 9.84921L45.691 9.49764C45.7953 9.48382 45.8947 9.46729 45.9868 9.44035C46.0674 9.41679 46.0906 9.33918 46.0547 9.21632L45.7966 8.33326L44.9442 8.58238L44.8343 8.20613L46.8423 7.61923L46.9522 7.99549L46.1805 8.22104L46.4678 9.20392C46.5531 9.49571 46.469 9.67864 46.2233 9.75046Z" fill="white"/>
<path d="M48.4898 5.22767L48.7803 5.13805C49.4232 5.52576 50.1045 5.78022 50.8257 5.89261L50.7269 6.34587C50.4913 6.30135 50.2636 6.24182 50.0489 6.16993L50.1303 6.43366L48.1045 7.05865L48.0219 6.79109C47.8774 6.97383 47.7202 7.15628 47.5492 7.33462L47.2148 7.01079C47.7788 6.46425 48.2021 5.869 48.4898 5.22767ZM48.1497 6.62189L49.843 6.0995C49.4553 5.9554 49.0887 5.77128 48.7471 5.54597C48.5983 5.9184 48.3992 6.27704 48.1497 6.62189ZM50.4943 6.73159L50.9895 8.33693L50.6035 8.45603L50.5434 8.2611L48.7928 8.80118L48.8529 8.99611L48.4669 9.11521L47.9716 7.50987L50.4943 6.73159ZM48.676 8.42278L50.4266 7.8827L50.2238 7.22527L48.4732 7.76535L48.676 8.42278Z" fill="white"/>
<path d="M50.7492 5.08543L51.2597 4.92204L51.1073 4.44584L51.5035 4.31903L51.6559 4.79524L52.1131 4.64892L52.235 5.02988L51.7779 5.1762L51.9412 5.68669L52.4517 5.5233L52.5737 5.90427L52.0441 6.07375L52.0908 6.29822C52.355 6.41524 52.6266 6.55511 52.9055 6.71785L52.793 7.12763C52.5309 6.93853 52.3163 6.79301 52.1493 6.69107C52.196 7.23052 52.1235 7.68632 51.933 8.06227L51.5517 7.89451C51.7758 7.45318 51.8092 6.88812 51.6479 6.20056L51.107 6.3737L50.985 5.99274L51.545 5.8135L51.3817 5.30301L50.8712 5.46639L50.7492 5.08543ZM53.8044 3.70022L54.4921 5.84885L54.1073 5.972L53.5367 4.18909L52.6414 4.47563L53.212 6.25854L52.8273 6.38169L52.1396 4.23305L53.8044 3.70022ZM54.7213 7.09004L54.3785 7.19977C54.1537 7.27171 54.0042 7.18517 53.9286 6.94897L53.7335 6.33943C53.727 6.46332 53.7142 6.58081 53.6901 6.68931C53.6008 7.06648 53.3665 7.41028 52.9947 7.71827L52.6829 7.45268C53.0458 7.14331 53.2608 6.8309 53.3215 6.5217C53.376 6.19346 53.3415 5.7971 53.2129 5.34268L52.9849 4.63028L53.3468 4.51445L53.5748 5.22685C53.6672 5.54168 53.7169 5.82817 53.7327 6.08768L54.0223 5.99501L54.2649 6.75313C54.2832 6.81028 54.3196 6.83222 54.3806 6.81271L54.5444 6.76028C54.5825 6.74809 54.6031 6.7205 54.6099 6.67631C54.6181 6.62328 54.5931 6.49268 54.5325 6.27691L54.9107 6.27765C54.9901 6.61762 55.0078 6.83035 54.9676 6.91463C54.9249 6.99128 54.8432 7.05102 54.7213 7.09004Z" fill="white"/>
<path d="M56.7367 2.96533L57.1204 2.83885L57.8905 5.17519L57.5068 5.30167L56.7367 2.96533ZM58.5156 5.87045L57.9685 6.05078L57.7534 5.70474C57.937 5.66108 58.1066 5.61358 58.2624 5.56223C58.3649 5.52842 58.4019 5.46151 58.3693 5.36273L57.3913 2.39577L57.7864 2.26553L58.7982 5.33507C58.8859 5.601 58.7891 5.78029 58.5156 5.87045ZM56.5779 3.54413L56.7677 3.90273L55.7617 4.41546C55.8282 4.56621 55.8986 4.70306 55.9677 4.82345C56.0394 4.95145 56.1124 5.0706 56.1841 5.17329C56.299 4.88275 56.3721 4.56803 56.4099 4.22283L56.8145 4.28743C56.7648 4.76287 56.6521 5.18751 56.4814 5.56388C56.5217 5.60955 56.5595 5.64763 56.5961 5.6819C56.7928 5.85712 56.9431 5.92972 57.0469 5.89971C57.1002 5.86953 57.0995 5.67599 57.0476 5.31405L57.4546 5.42419C57.4576 5.63797 57.4507 5.82136 57.4261 5.97687C57.3914 6.16522 57.3189 6.27756 57.2087 6.31387C57.0264 6.37398 56.8027 6.30873 56.544 6.12445C56.4569 6.06471 56.3749 5.99486 56.293 5.91237C56.129 6.1686 55.9309 6.39815 55.7025 6.59978L55.348 6.31652C55.6093 6.09983 55.8214 5.84882 55.9893 5.56603C55.9011 5.4519 55.8105 5.33016 55.7236 5.19453C55.6129 5.02466 55.5048 4.82444 55.3968 4.59892L54.9672 4.81632L54.785 4.45521L55.2285 4.22901C55.1017 3.93386 54.9751 3.60076 54.8524 3.22847L55.255 3.09573C55.3702 3.44523 55.483 3.76184 55.5997 4.03924L56.5779 3.54413ZM55.7528 2.90639C55.9446 3.02846 56.1339 3.16823 56.3257 3.32825L56.0477 3.6094C55.8623 3.44308 55.6743 3.29445 55.4825 3.17238L55.7528 2.90639Z" fill="white"/>
<path d="M58.6459 1.93954L60.028 3.44448L59.8411 5.4792L59.4653 5.44145L59.6376 3.57629L58.3699 2.19739L58.6459 1.93954ZM59.3053 1.71688L60.6874 3.22182L60.5005 5.25654L60.1247 5.21879L60.2971 3.35363L59.0142 1.97985L59.3053 1.71688Z" fill="white"/>
<g clip-path="url(#clip0_4_53617)">
<path d="M4.69001 11.1266C4.84059 10.0324 4.07559 9.02322 2.98133 8.87264C1.88707 8.72207 0.877933 9.48707 0.727357 10.5813C0.57678 11.6756 1.34178 12.6847 2.43604 12.8353C3.5303 12.9859 4.53944 12.2209 4.69001 11.1266Z" fill="white"/>
<path d="M3.39485 10.9483C3.34151 11.336 2.98406 11.6069 2.59645 11.5536C2.20883 11.5003 1.93785 11.1428 1.99119 10.7552C2.04453 10.3676 2.40199 10.0966 2.7896 10.1499C3.17722 10.2033 3.44818 10.5607 3.39485 10.9483Z" fill="#485CC2"/>
<path fill-rule="evenodd" clip-rule="evenodd" d="M2.12654 10.4262C2.07417 10.5499 2.02894 10.8128 2.2493 10.9259C2.47361 11.0411 2.645 10.9207 2.70265 10.8461C2.76603 10.7811 2.937 10.674 3.11396 10.7658C3.29094 10.8576 3.31763 11.008 3.30886 11.0717L3.28567 11.2403C3.34169 11.155 3.38005 11.0562 3.39488 10.9483C3.44822 10.5607 3.17725 10.2033 2.78964 10.1499C2.52586 10.1136 2.27605 10.2275 2.12654 10.4262Z" fill="#D74B4B"/>
<path fill-rule="evenodd" clip-rule="evenodd" d="M1.29851 10.0985L1.78541 9.57337L1.86709 9.64911L1.38019 10.1743L1.29851 10.0985ZM1.44377 10.2148L1.93068 9.68967L2.01236 9.7654L1.52545 10.2906L1.44377 10.2148ZM2.06225 9.8015L1.57535 10.3267L1.65703 10.4024L2.14393 9.87724L2.06225 9.8015Z" fill="#333333"/>
<path fill-rule="evenodd" clip-rule="evenodd" d="M4.27052 10.5075L4.12886 10.2314L4.02921 10.2812L4.17143 10.5583L4.27052 10.5075ZM3.94356 9.87035L4.07801 10.1323L3.97835 10.1821L3.84447 9.92121L3.94356 9.87035ZM4.09925 10.5802L3.77229 9.94309L3.67318 9.99394L4.00015 10.6311L4.09925 10.5802ZM3.70882 10.4413L3.84326 10.7032L3.94236 10.6524L3.80849 10.3915L3.70882 10.4413ZM3.75762 10.2924L3.65797 10.3422L3.51629 10.0661L3.61539 10.0152L3.75762 10.2924Z" fill="#333333"/>
<path fill-rule="evenodd" clip-rule="evenodd" d="M3.9079 11.837L4.11885 11.6095L4.03718 11.5337L3.8254 11.7622L3.9079 11.837ZM3.83217 11.9187L3.63195 12.1346L3.55027 12.0589L3.74965 11.8438L3.83217 11.9187ZM3.56014 11.5215L3.76034 11.3056L3.84201 11.3813L3.64266 11.5964L3.56014 11.5215ZM3.56691 11.6781L3.48441 11.6032L3.27342 11.8308L3.35511 11.9065L3.56691 11.6781ZM3.9736 11.4932L3.77043 11.7123L3.68793 11.6374L3.89191 11.4174L3.9736 11.4932ZM3.48669 12.0183L3.6947 11.794L3.61219 11.7191L3.40501 11.9426L3.48669 12.0183Z" fill="#333333"/>
<path fill-rule="evenodd" clip-rule="evenodd" d="M1.14684 11.2005L1.4738 11.8377L1.5729 11.7868L1.24594 11.1496L1.14684 11.2005ZM1.47501 11.0556L1.80197 11.6928L1.90107 11.6419L1.57411 11.0048L1.47501 11.0556ZM1.31811 11.1278L1.45454 11.3936L1.55419 11.3438L1.41722 11.0769L1.31811 11.1278ZM1.64508 11.7649L1.5054 11.4927L1.60505 11.4429L1.74418 11.7141L1.64508 11.7649Z" fill="#333333"/>
</g>
<defs>
<clipPath id="clip0_4_53617">
<rect width="4" height="4" fill="white" transform="translate(1 8.6) rotate(7.83505)"/>
</clipPath>
</defs>
</svg>
