<svg width="66" height="24" viewBox="0 0 66 24" fill="none" xmlns="http://www.w3.org/2000/svg">
<path d="M5.33336 11.6133L5.7247 11.6414L5.55882 13.5138L6.84243 14.8779L6.56942 15.1389L5.17002 13.6501L5.33336 11.6133ZM5.99017 11.3831L6.36641 11.4165L6.21562 13.2835L7.49923 14.6476L7.22622 14.9087L5.82682 13.4198L5.99017 11.3831Z" fill="white"/>
<path d="M8.41976 11.318L7.15475 11.7222L7.03302 11.3411L9.97073 10.4026L10.0925 10.7836L8.82365 11.189L9.5516 13.4675L11.0528 12.9879L11.1758 13.3727L7.76561 14.4622L7.64266 14.0774L9.14771 13.5965L8.41976 11.318Z" fill="white"/>
<path d="M11.7105 9.62672L12.1137 9.50918L12.9903 12.516L13.4127 12.3929L12.5361 9.38603L12.9394 9.26848L13.8159 12.2753L14.9219 11.9529L15.0361 12.3446L11.603 13.3454L11.4888 12.9537L12.5871 12.6336L11.7105 9.62672ZM13.8307 9.79612L14.2131 9.79297C14.2586 10.4922 14.2422 11.1219 14.1627 11.6784L13.7648 11.6569C13.85 11.1488 13.8686 10.5267 13.8307 9.79612ZM11.2314 10.5414C11.5723 10.9961 11.9163 11.5333 12.2587 12.1502L11.9196 12.3448C11.6144 11.7838 11.2852 11.2548 10.9232 10.7562L11.2314 10.5414Z" fill="white"/>
<path d="M14.8596 8.75275C15.1561 8.87308 15.4139 9.00361 15.6331 9.14436L15.432 9.49528C15.2342 9.35717 14.9743 9.2189 14.6544 9.0882L14.8596 8.75275ZM14.635 9.98688L15.5284 9.75114L15.952 11.3562C16.0376 11.226 16.1289 11.0861 16.2249 10.9325L16.4493 11.3284C16.2553 11.6278 16.0387 11.9042 15.8014 12.1654L15.5508 11.8427C15.6012 11.7673 15.6167 11.6846 15.5942 11.5995L15.236 10.242L14.7371 10.3736L14.635 9.98688ZM16.1421 10.0856L18.0295 9.58762L18.1265 9.95504C18.1059 10.3162 18.0046 10.6533 17.8213 10.9622C18.1019 11.0537 18.4277 11.1125 18.8036 11.1416L18.6788 11.5468C18.259 11.4921 17.8931 11.4066 17.5878 11.2845C17.3423 11.5768 17.0197 11.8439 16.6125 12.0879L16.2984 11.8067C16.6661 11.5856 16.9638 11.3498 17.1954 11.0984C16.8825 10.9162 16.637 10.6914 16.4646 10.4142L16.2442 10.4724L16.1421 10.0856ZM16.8436 10.3142C16.9869 10.5122 17.1792 10.6766 17.4273 10.8014C17.5776 10.5715 17.6764 10.3344 17.7255 10.0815L16.8436 10.3142ZM16.0102 8.51948L17.4025 8.15208L17.6137 8.95268C17.6362 9.03777 17.6949 9.07193 17.7915 9.04642L18.1242 8.95865L18.2211 9.32608L17.7802 9.44242C17.4901 9.51896 17.3113 9.42135 17.2399 9.15062L17.1041 8.63622L16.5085 8.79339L16.5361 8.89781C16.6422 9.30005 16.516 9.66843 16.1632 9.9932L15.8108 9.75523C16.1 9.53413 16.2153 9.29687 16.1489 9.04547L16.0102 8.51948Z" fill="white"/>
<path d="M19.8198 8.62104L20.8248 8.38621L20.5608 7.25664L20.9815 7.15834L21.2454 8.28791L22.1997 8.06492L22.2944 8.47L21.3401 8.693L21.828 10.7808L21.4073 10.8791L20.9194 8.7913L19.9145 9.02612L19.8198 8.62104ZM18.8776 7.68282C19.1676 7.81634 19.4226 7.95804 19.6415 8.10405L19.4275 8.45392C19.2376 8.30934 18.9788 8.16854 18.6549 8.03062L18.8776 7.68282ZM18.5993 8.93501L19.5263 8.71839L19.9067 10.3465C19.9969 10.2228 20.0922 10.0855 20.1925 9.93469L20.3951 10.3269C20.1965 10.6198 19.9769 10.8929 19.7324 11.1472L19.491 10.8175C19.5475 10.7427 19.5661 10.6644 19.547 10.5826L19.2239 9.19982L18.6903 9.32452L18.5993 8.93501Z" fill="white"/>
<path d="M22.9851 8.40451C22.9154 8.54498 22.841 8.68232 22.7627 8.82045L22.5372 8.40878C22.8098 7.8971 22.9694 7.33059 23.0223 6.69984L23.4303 6.80151C23.4007 7.1012 23.3421 7.39855 23.2607 7.68416L23.7946 10.3431L23.3907 10.4242L22.9851 8.40451ZM23.595 6.72764L25.646 6.31579L25.9177 7.66879L25.149 7.82313L25.2553 8.35256L26.126 8.17775L26.2016 8.55423L25.3309 8.72905L25.4876 9.50947C25.6084 9.50153 25.7512 9.48103 25.9096 9.45737C26.1136 9.41643 26.3246 9.36998 26.5348 9.31961L26.5382 9.72283L26.1735 9.79606C25.5923 9.90868 25.1883 9.92861 24.9584 9.86053C24.734 9.79952 24.5339 9.67651 24.3564 9.48367C24.308 9.79122 24.2282 10.0643 24.1209 10.302L23.792 10.0254C23.9768 9.56397 24.0485 8.98655 24.0064 8.2892L24.4081 8.27791C24.4192 8.53677 24.4186 8.7776 24.4078 9.00824C24.4887 9.12664 24.5829 9.23011 24.6944 9.31789C24.809 9.40095 24.9338 9.45342 25.0624 9.4847L24.7451 7.90424L23.8666 8.08064L23.595 6.72764ZM25.446 7.37184L25.3255 6.77181L24.0706 7.02381L24.191 7.62383L25.446 7.37184Z" fill="white"/>
<path d="M26.5977 6.04555C26.8919 6.20817 27.1465 6.37725 27.3617 6.55279L27.1135 6.89337C26.9312 6.72055 26.6792 6.54293 26.3575 6.3605L26.5977 6.04555ZM29.4261 9.23453C29.2129 9.26942 28.9794 9.3036 28.73 9.34036C28.4767 9.37777 28.2676 9.38769 28.0953 9.37535C27.9297 9.35383 27.7806 9.28501 27.6442 9.16954C27.5819 9.11083 27.5293 9.08701 27.4819 9.09476C27.4069 9.10704 27.3012 9.3027 27.1619 9.69028L26.8121 9.45976C26.9578 9.11166 27.0985 8.88191 27.2422 8.76921L27.0651 7.68761L26.5441 7.77291L26.482 7.39395L27.386 7.24597L27.6322 8.74996L27.6782 8.78297C27.7818 8.87139 27.8855 8.93547 27.9847 8.97193C28.1089 9.0124 28.2838 9.01619 28.514 8.98661C28.7397 8.95372 29.0048 8.91438 29.3048 8.86527C29.5022 8.83296 29.6989 8.7967 29.9042 8.7631C30.1042 8.72225 30.2569 8.68915 30.3622 8.66381L30.33 9.08655L29.4261 9.23453ZM27.5678 6.45015L27.9863 6.38165L27.89 5.79348L28.2887 5.72821L28.385 6.31638L28.8823 6.23496L28.7874 5.65469L29.19 5.58878L29.285 6.16905L29.7389 6.09474L29.8016 6.47764L29.3477 6.55196L29.4569 7.21908L30.0372 7.12409L30.1005 7.51094L29.5202 7.60593L29.6921 8.65595L29.2894 8.72186L29.1176 7.67184L28.5254 7.76877C28.4879 8.23292 28.3448 8.59682 28.0922 8.8611L27.7899 8.57417C27.9706 8.39057 28.0805 8.1456 28.1189 7.83533L27.6649 7.90964L27.6016 7.52279L28.1345 7.43555C28.1296 7.30665 28.1162 7.17509 28.0929 7.03298L28.049 6.76455L27.6305 6.83305L27.5678 6.45015ZM28.4476 6.69929L28.4761 6.87298C28.5045 7.04666 28.5198 7.2144 28.5292 7.37093L29.0542 7.28499L28.945 6.61787L28.4476 6.69929Z" fill="white"/>
<path d="M32.348 5.17272L32.769 5.12225L32.8395 5.71004L33.8165 5.5929L33.8646 5.99403L32.8876 6.11117L32.9614 6.72676L34.0416 6.59724L34.0902 7.00234L32.8034 7.15662C32.6499 7.69069 32.5005 8.09132 32.3632 8.35755C32.7706 8.26037 33.1755 8.14334 33.5746 8.01089C33.4505 7.81627 33.3289 7.64151 33.2047 7.47915L33.5896 7.29602C33.8676 7.66556 34.1206 8.06226 34.3496 8.49407L33.9774 8.71595C33.9096 8.58711 33.8427 8.46621 33.7807 8.35278C33.2033 8.54287 32.5748 8.71088 31.8918 8.86125L31.7572 8.51079C31.7955 8.49411 31.8218 8.47887 31.8403 8.46457C31.989 8.29365 32.1647 7.87778 32.3586 7.20995L31.5007 7.3128L31.4522 6.9077L32.5404 6.77723L32.4666 6.16164L31.569 6.26925L31.5209 5.86812L32.4185 5.76051L32.348 5.17272ZM30.659 5.3994C30.937 5.5675 31.1748 5.73639 31.3768 5.90957L31.1186 6.24267C30.9453 6.07411 30.7031 5.90172 30.3954 5.72106L30.659 5.3994ZM30.6711 6.34064C30.9292 6.51113 31.1516 6.6859 31.3422 6.86448L31.0796 7.19408C30.9187 7.02806 30.6958 6.84932 30.4115 6.66183L30.6711 6.34064ZM31.1633 7.42174L31.5592 7.5314C31.4479 8.04832 31.3135 8.53982 31.1593 9.00145L30.7204 8.86875C30.9014 8.39584 31.0487 7.91086 31.1633 7.42174Z" fill="white"/>
<path d="M36.3932 7.7153C36.0888 8.07658 35.5914 8.37068 34.9014 8.6016L34.6503 8.26572C35.3791 8.01615 35.8653 7.73483 36.1008 7.42229C36.1155 7.40126 36.1261 7.3805 36.141 7.36346L34.6364 7.46484L34.61 7.07373L36.3341 6.95755C36.4143 6.71962 36.4524 6.45246 36.4488 6.16004L36.4154 5.66516L36.8185 5.638L36.8518 6.13288C36.8555 6.42529 36.8294 6.69166 36.7731 6.92797L38.0143 6.84434L38.0407 7.23545L36.6319 7.33038L36.6002 7.39665C37.1615 7.57532 37.6811 7.78888 38.1551 8.04158L37.9481 8.42035C37.4349 8.12218 36.918 7.8884 36.3932 7.7153ZM35.1459 6.27991C35.4328 6.37283 35.7013 6.49104 35.9436 6.63508L35.7504 6.98085C35.4906 6.81394 35.2294 6.68721 34.959 6.60119L35.1459 6.27991ZM35.5156 5.69773C35.7942 5.7872 36.0545 5.90196 36.2967 6.046L36.1036 6.39177C35.8477 6.22459 35.5909 6.10158 35.3287 6.01902L35.5156 5.69773ZM37.8715 5.02182L37.9282 5.86391L37.5211 5.89134L37.4902 5.43238L34.928 5.60503L34.9589 6.06399L34.5519 6.09142L34.4951 5.24933L35.9837 5.14902C35.9368 5.04794 35.8907 4.95884 35.8409 4.874L36.2631 4.77338C36.3143 4.87818 36.3622 4.99522 36.4108 5.12024L37.8715 5.02182Z" fill="white"/>
<path d="M38.6327 5.16802L39.1927 5.16761C39.1286 4.99965 39.0605 4.8437 38.9804 4.69576L39.4083 4.62345C39.4725 4.7834 39.5366 4.96335 39.6007 5.16731L40.0647 5.16696L40.065 5.56696L39.293 5.56753L39.2934 6.00353L40.0014 6.00301C40.0021 7.05501 39.9826 7.70303 39.9508 7.95105C39.911 8.19508 39.7231 8.31922 39.3911 8.31946C39.3591 8.31949 39.3071 8.31152 39.2391 8.29957L39.1428 7.92765C39.2148 7.93959 39.2748 7.94755 39.3268 7.94751C39.4668 7.94741 39.5507 7.87934 39.5747 7.75133C39.5946 7.62331 39.6062 7.1673 39.6136 6.3873L39.2896 6.38754C39.2663 7.26355 39.1188 7.91166 38.8511 8.33186L38.5389 8.05609C38.7786 7.66791 38.8981 7.04783 38.9015 6.19182L38.901 5.56782L38.633 5.56802L38.6327 5.16802ZM40.6449 5.43054C40.5651 5.60659 40.4772 5.76266 40.3853 5.90673L40.7413 5.90646L40.7416 6.29846L41.0095 6.20227L41.0091 5.58227L41.3931 5.58198L41.3934 6.06598L42.0292 5.83751C42.0298 6.61351 42.0142 7.08153 41.9823 7.24555C41.9424 7.40958 41.7865 7.49369 41.5145 7.49389L41.5105 7.4939L41.4022 7.14198C41.4702 7.14193 41.5302 7.14588 41.5862 7.14584C41.6182 7.14582 41.6382 7.1058 41.6461 7.0338C41.6541 6.96979 41.6579 6.74579 41.6576 6.35379L41.3937 6.44598L41.3946 7.74598L41.0106 7.74627L41.0098 6.58227L40.7419 6.67846L40.7426 7.68246C40.7427 7.86646 40.7988 7.95842 40.9148 7.95834L41.6508 7.95779C41.7308 7.95774 41.7868 7.93369 41.8268 7.89366C41.8707 7.84963 41.8986 7.71361 41.9145 7.4896L42.2745 7.60133C42.2388 7.94936 42.179 8.1574 42.091 8.22547C42.011 8.28553 41.8871 8.31762 41.7191 8.31774L40.7991 8.31842C40.5151 8.31863 40.3749 8.13074 40.3747 7.75474L40.374 6.80674L40.102 6.90294L40.1017 6.52694L40.3737 6.43074L40.3733 5.92674C40.3174 6.01478 40.2574 6.09882 40.2015 6.17086L39.9332 5.84306C40.161 5.55489 40.3607 5.15075 40.5323 4.63062L40.9244 4.71833C40.8845 4.83036 40.8486 4.93839 40.8087 5.04241L42.1647 5.04141L42.1649 5.42941L40.6449 5.43054Z" fill="white"/>
<path d="M44.3349 5.72018C44.6155 5.86489 44.8698 6.03542 45.0937 6.23144L44.8586 6.53632C44.6161 6.32264 44.3618 6.1521 44.0965 6.01675L44.3349 5.72018ZM43.8069 7.27648C44.0616 7.39487 44.3074 7.52452 44.5401 7.66509C44.7868 7.50574 45.0449 7.30723 45.3147 7.06558L43.1468 6.87814L43.1805 6.4876L45.8705 6.72017L45.8402 7.07086C45.5609 7.37594 45.2481 7.65001 44.8982 7.88876C45.0616 7.99524 45.2208 8.10535 45.3712 8.22275L45.113 8.56177C44.6133 8.16525 44.0911 7.84307 43.5505 7.59558L43.8069 7.27648ZM44.5599 4.83628L44.8389 4.8604C45.2868 5.43713 45.8245 5.90518 46.4436 6.26786L46.2043 6.62056C45.5863 6.24593 45.0762 5.78427 44.666 5.23489C44.2081 5.70119 43.6246 6.08836 42.9154 6.39642L42.7406 6.0039C43.4563 5.71247 44.0601 5.32303 44.5599 4.83628Z" fill="white"/>
<path d="M47.6427 5.12245L48.0717 7.12017L46.8797 8.77972L46.5748 8.55675L47.6684 7.03603L47.2741 5.20491L47.6427 5.12245ZM48.324 5.26458L48.7531 7.2623L47.5611 8.92185L47.2562 8.69889L48.3498 7.17817L47.9397 5.34377L48.324 5.26458Z" fill="white"/>
<path d="M50.5243 5.72629L50.8963 5.80389C50.6754 6.03976 50.4938 6.28381 50.3513 6.53602C50.1635 6.84827 50.0377 7.1775 49.9666 7.51816C49.8963 7.85492 49.8801 8.20702 49.9265 8.57219C49.9571 8.85643 50.026 9.15275 50.1333 9.46116L49.7613 9.38356C49.6273 9.08591 49.5419 8.79024 49.4972 8.4949C49.4445 8.14066 49.4576 7.78382 49.5311 7.43141C49.6063 7.07117 49.7361 6.74275 49.9261 6.43915C50.0867 6.17846 50.2832 5.9416 50.5243 5.72629ZM52.5582 6.61231L52.9772 6.69971L52.5949 8.53227L53.01 8.61885L52.934 8.98301L52.5189 8.89643L52.3939 9.49553L51.9593 9.40486L52.0843 8.80576L50.7334 8.52394L50.824 8.0893L52.5582 6.61231ZM52.4099 7.18612L51.1813 8.23738L52.1602 8.4416L52.4216 7.18857L52.4099 7.18612ZM54.5385 8.10008L54.4177 8.6796L55.9644 9.00226L56.0853 8.42273L54.5385 8.10008ZM56.1645 8.04291L56.2788 7.49471L54.7321 7.17205L54.6178 7.72025L56.1645 8.04291ZM54.3149 9.05452C54.1572 9.53647 53.9218 9.92049 53.6096 10.2027L53.356 9.85149C53.6698 9.56147 53.8827 9.14823 54.0016 8.61733L54.4027 6.69471L56.7756 7.18972L56.1352 10.2596C56.0813 10.5181 55.9212 10.6195 55.6549 10.564L55.1537 10.4594L55.1274 10.0371C55.2972 10.0848 55.4561 10.1262 55.601 10.1564C55.6793 10.1727 55.7299 10.1261 55.7512 10.0243L55.8851 9.38208L54.3149 9.05452ZM58.5282 7.46544L58.9276 7.54876L58.721 8.53944L58.8933 8.57538L58.8091 8.97869L57.9477 8.79899L57.9215 8.92429C57.8995 9.03001 57.8743 9.13101 57.85 9.22808L58.5979 9.3841L58.2997 10.8133C58.5684 10.4853 58.7764 9.99748 58.926 9.35857L59.2405 7.85102C59.8655 7.96915 60.4387 8.00292 60.9648 7.94921L61.0846 8.35422C60.6104 8.39423 60.0929 8.36799 59.5398 8.27712L59.4385 8.76267L60.8599 9.05919L60.7872 9.40768C60.5949 9.89875 60.3515 10.3015 60.05 10.6105C60.1749 10.8735 60.3505 11.0899 60.5718 11.2628L60.2922 11.5845C60.0554 11.388 59.8667 11.1566 59.7308 10.8871C59.4798 11.0718 59.2065 11.2068 58.9013 11.2984L58.7863 10.8903C59.0788 10.8002 59.3396 10.6666 59.5638 10.4927C59.4439 10.1081 59.3973 9.66528 59.4289 9.16111L59.3584 9.14641L59.298 9.43617C59.123 10.1965 58.8586 10.7787 58.5093 11.1799L58.2973 10.8251L58.2352 11.1227L57.8358 11.0394L58.1176 9.68844L57.7495 9.61165C57.5849 10.1657 57.3877 10.5822 57.1674 10.855L56.9144 10.5203C57.1462 10.1927 57.3493 9.63031 57.5182 8.84016L57.8196 7.39526L58.2229 7.47939L58.0318 8.39567L58.3216 8.45612L58.5282 7.46544ZM59.797 9.2379C59.7894 9.58772 59.8221 9.901 59.8943 10.1817C60.0987 9.94643 60.2617 9.67399 60.3883 9.36124L59.797 9.2379ZM61.7021 8.05807L62.0741 8.13567C62.205 8.42859 62.2944 8.72508 62.3373 9.02825C62.3862 9.38167 62.3778 9.73541 62.3026 10.0957C62.2291 10.4481 62.0946 10.7796 61.9085 11.084C61.7495 11.3369 61.5491 11.5729 61.3111 11.7929L60.9391 11.7153C61.1569 11.4747 61.3385 11.2307 61.4841 10.9832C61.6688 10.6662 61.7986 10.3378 61.8688 10.0011C61.9399 9.6604 61.9522 9.30748 61.9089 8.94704C61.8752 8.65807 61.8063 8.36175 61.7021 8.05807Z" fill="white"/>
<g clip-path="url(#clip0_253_4586)">
<path d="M4.43321 14.1888C4.0736 13.1444 2.93543 12.5893 1.89104 12.9489C0.846646 13.3085 0.291524 14.4466 0.651136 15.491C1.01075 16.5354 2.14892 17.0906 3.19331 16.7309C4.2377 16.3713 4.79282 15.2332 4.43321 14.1888Z" fill="white"/>
<path d="M3.19704 14.6144C3.32443 14.9843 3.1278 15.3875 2.75785 15.5149C2.3879 15.6422 1.98474 15.4456 1.85735 15.0756C1.72997 14.7057 1.92661 14.3025 2.29656 14.1752C2.66651 14.0478 3.06966 14.2444 3.19704 14.6144Z" fill="#485CC2"/>
<path fill-rule="evenodd" clip-rule="evenodd" d="M1.82956 14.721C1.83869 14.855 1.91701 15.11 2.16469 15.1115C2.41683 15.113 2.51543 14.9282 2.53321 14.8356C2.56041 14.749 2.66463 14.5763 2.86396 14.5783C3.0633 14.5803 3.15502 14.7024 3.17597 14.7633L3.23136 14.9242C3.24284 14.8227 3.23247 14.7173 3.19703 14.6144C3.06965 14.2444 2.6665 14.0478 2.29655 14.1752C2.04479 14.2618 1.8733 14.4762 1.82956 14.721Z" fill="#D74B4B"/>
<path fill-rule="evenodd" clip-rule="evenodd" d="M0.942817 14.8024L1.14022 14.114L1.24729 14.1447L1.04989 14.8331L0.942817 14.8024ZM1.12493 14.8406L1.32234 14.1522L1.42941 14.1829L1.23201 14.8713L1.12493 14.8406ZM1.49023 14.1926L1.29283 14.881L1.3999 14.9117L1.5973 14.2233L1.49023 14.1926Z" fill="#333333"/>
<path fill-rule="evenodd" clip-rule="evenodd" d="M3.77938 13.8257L3.52836 13.6433L3.46192 13.7327L3.71392 13.9158L3.77938 13.8257ZM3.2 13.4048L3.43825 13.5778L3.37179 13.6673L3.13454 13.4949L3.2 13.4048ZM3.65939 13.9679L3.08002 13.547L3.01454 13.6371L3.59392 14.058L3.65939 13.9679ZM3.24827 14.0202L3.48649 14.1932L3.55196 14.1031L3.31474 13.9308L3.24827 14.0202ZM3.22461 13.8653L3.15816 13.9547L2.90711 13.7723L2.97258 13.6822L3.22461 13.8653Z" fill="#333333"/>
<path fill-rule="evenodd" clip-rule="evenodd" d="M4.05603 15.1757L4.14156 14.8775L4.03449 14.8467L3.94863 15.1462L4.05603 15.1757ZM4.02534 15.2828L3.94416 15.5659L3.83709 15.5352L3.91792 15.2532L4.02534 15.2828ZM3.60331 15.0512L3.68448 14.7681L3.79155 14.7989L3.71073 15.0807L3.60331 15.0512ZM3.68002 15.1878L3.57262 15.1583L3.48707 15.4566L3.59415 15.4873L3.68002 15.1878ZM3.95945 14.8393L3.87707 15.1265L3.76967 15.0969L3.85237 14.8086L3.95945 14.8393ZM3.76205 15.5277L3.84638 15.2336L3.73896 15.204L3.65497 15.4969L3.76205 15.5277Z" fill="#333333"/>
<path fill-rule="evenodd" clip-rule="evenodd" d="M1.305 15.8542L1.88437 16.2751L1.94985 16.185L1.37047 15.764L1.305 15.8542ZM1.53242 15.5767L2.11179 15.9977L2.17727 15.9076L1.59789 15.4866L1.53242 15.5767ZM1.42499 15.7119L1.66673 15.8876L1.73318 15.7982L1.49046 15.6218L1.42499 15.7119ZM2.00437 16.1329L1.75685 15.953L1.8233 15.8636L2.06984 16.0428L2.00437 16.1329Z" fill="#333333"/>
</g>
<defs>
<clipPath id="clip0_253_4586">
<rect width="4" height="4" fill="white" transform="translate(0 13.6) rotate(-19)"/>
</clipPath>
</defs>
</svg>
