<svg width="64" height="32" viewBox="0 0 64 32" fill="none" xmlns="http://www.w3.org/2000/svg">
<path d="M6.22695 3.23512L6.60204 3.3502L6.02082 5.13774L6.96611 6.75483L6.64155 6.94804L5.61137 5.18346L6.22695 3.23512ZM6.91865 3.15788L7.27784 3.27474L6.71252 5.06051L7.65782 6.67759L7.33325 6.8708L6.30307 5.10623L6.91865 3.15788Z" fill="white"/>
<path d="M9.24928 3.64381L7.92556 3.75039L7.89346 3.35168L10.9675 3.10419L10.9996 3.5029L9.67191 3.60979L9.86387 5.99407L11.4348 5.8676L11.4672 6.2703L7.89875 6.55759L7.86633 6.15489L9.44123 6.0281L9.24928 3.64381Z" fill="white"/>
<path d="M12.8268 2.75726L13.2465 2.74005L13.3748 5.86942L13.8145 5.85139L13.6861 2.72202L14.1058 2.70481L14.2341 5.83418L15.3851 5.78697L15.4019 6.19463L11.8289 6.34117L11.8121 5.93352L12.9552 5.88663L12.8268 2.75726ZM14.8441 3.43116L15.2161 3.51999C15.0923 4.20965 14.925 4.81701 14.7142 5.33809L14.3331 5.22161C14.5379 4.74882 14.7055 4.14945 14.8441 3.43116ZM12.1419 3.52998C12.3636 4.05334 12.5685 4.65745 12.7526 5.33848L12.3766 5.44597C12.2152 4.82807 12.0227 4.23546 11.7911 3.66447L12.1419 3.52998Z" fill="white"/>
<path d="M16.2591 2.67164C16.513 2.86632 16.727 3.06059 16.901 3.25444L16.614 3.53943C16.4599 3.35379 16.246 3.15152 15.9722 2.94063L16.2591 2.67164ZM15.7151 3.80196L16.6391 3.81171L16.6216 5.47161C16.7387 5.36884 16.8638 5.25816 16.9971 5.13555L17.1085 5.57675C16.842 5.81396 16.5598 6.02299 16.2618 6.21186L16.1057 5.83419C16.1744 5.77491 16.2112 5.6993 16.2121 5.6113L16.2269 4.20738L15.7109 4.20194L15.7151 3.80196ZM17.142 4.29704L19.0939 4.31762L19.0899 4.6976C18.9743 5.0404 18.7871 5.33844 18.5285 5.58773C18.7748 5.75033 19.0733 5.89349 19.4279 6.02124L19.2002 6.37885C18.8099 6.21473 18.4797 6.03524 18.2178 5.83646C17.9035 6.05316 17.5217 6.22515 17.0643 6.35233L16.836 5.9979C17.2493 5.88225 17.5989 5.73393 17.8888 5.55298C17.6355 5.29429 17.4585 5.01241 17.3658 4.69942L17.1378 4.69701L17.142 4.29704ZM17.7577 4.70355C17.8433 4.93247 17.9851 5.14197 18.1912 5.32816C18.3971 5.14632 18.5553 4.94397 18.6697 4.71317L17.7577 4.70355ZM17.4303 2.75199L18.8702 2.76717L18.8615 3.59513C18.8606 3.68312 18.9081 3.73163 19.0081 3.73268L19.352 3.73631L19.348 4.11629L18.8921 4.11148C18.5921 4.10832 18.4456 3.96676 18.4485 3.68678L18.4541 3.15481L17.8381 3.14831L17.837 3.25631C17.8326 3.67228 17.6132 3.99399 17.1869 4.2135L16.9103 3.89057C17.2477 3.75412 17.4218 3.55594 17.4246 3.29596L17.4303 2.75199Z" fill="white"/>
<path d="M21.1512 3.91705L22.1796 4.00295L22.2761 2.84698L22.7066 2.88293L22.6101 4.03891L23.5867 4.12048L23.5521 4.53504L22.5755 4.45347L22.397 6.59003L21.9665 6.55407L22.145 4.41751L21.1165 4.33161L21.1512 3.91705ZM20.5435 2.73437C20.7783 2.95067 20.9773 3.16396 21.1406 3.37028L20.8293 3.6373C20.6932 3.44128 20.4903 3.22765 20.2246 2.99673L20.5435 2.73437ZM19.8932 3.84008L20.8419 3.91932L20.7027 5.58552C20.8267 5.49552 20.9596 5.39423 21.1014 5.28165L21.1734 5.71715C20.8943 5.93468 20.6013 6.12696 20.2904 6.29365L20.1622 5.90564C20.239 5.85184 20.2808 5.78309 20.2878 5.69938L20.406 4.28431L19.8599 4.23869L19.8932 3.84008Z" fill="white"/>
<path d="M24.4944 4.74748C24.3759 4.85022 24.2543 4.94824 24.1288 5.04548L24.0795 4.57871C24.5283 4.2117 24.894 3.75054 25.186 3.18895L25.5232 3.44007C25.3804 3.70518 25.2117 3.95695 25.0265 4.18909L24.4938 6.84828L24.0899 6.76737L24.4944 4.74748ZM25.7037 3.43541L27.7549 3.84627L27.4839 5.19939L26.7152 5.04542L26.6091 5.5749L27.4798 5.7493L27.4044 6.12582L26.5337 5.95143L26.3774 6.73192C26.4919 6.77118 26.6315 6.8073 26.7868 6.84657C26.9908 6.88742 27.2034 6.92592 27.4167 6.9605L27.2644 7.33386L26.8997 7.2608C26.32 7.14061 25.9396 7.00323 25.7537 6.85177C25.5702 6.70895 25.4329 6.51828 25.3436 6.27194C25.1803 6.53704 25.0014 6.75821 24.8107 6.93623L24.6139 6.55414C24.9623 6.19966 25.2512 5.69455 25.4812 5.03488L25.8561 5.17932C25.7666 5.42248 25.6732 5.64446 25.5743 5.8531C25.6033 5.99353 25.6503 6.12533 25.7193 6.24929C25.793 6.37012 25.8879 6.46664 25.9946 6.54511L26.3112 4.96451L25.4326 4.78854L25.7037 3.43541ZM27.1632 4.74353L27.2834 4.14345L26.0283 3.89206L25.9081 4.49215L27.1632 4.74353Z" fill="white"/>
<path d="M29.0293 4.10633C29.2125 4.38812 29.3578 4.65706 29.4652 4.91314L29.086 5.09708C29.0064 4.85884 28.8674 4.58362 28.6692 4.27139L29.0293 4.10633ZM30.0268 8.25048C29.8223 8.18109 29.6001 8.10148 29.3627 8.01674C29.1216 7.9307 28.9323 7.84115 28.7861 7.7493C28.65 7.65244 28.5508 7.52163 28.4846 7.35557C28.4572 7.27447 28.422 7.22875 28.3766 7.21333C28.3046 7.18891 28.1193 7.31189 27.8142 7.58855L27.6138 7.22066C27.906 6.98187 28.1382 6.84523 28.318 6.8133L28.6701 5.7754L28.1701 5.60577L28.2934 5.24213L29.1609 5.5364L28.6713 6.97962L28.6963 7.03035C28.7462 7.1571 28.8076 7.26242 28.8781 7.34122C28.9686 7.4353 29.1212 7.52087 29.3384 7.60297C29.553 7.68001 29.8055 7.7699 30.0934 7.86756C30.2828 7.93181 30.4735 7.99228 30.6704 8.0591C30.8662 8.11706 31.0165 8.1596 31.1213 8.18672L30.8943 8.54476L30.0268 8.25048ZM29.6954 4.91943L30.0969 5.05564L30.2884 4.49124L30.671 4.62103L30.4795 5.18543L30.9568 5.34735L31.1457 4.79052L31.5321 4.92159L31.3432 5.47843L31.7788 5.62621L31.6541 5.99364L31.2185 5.84586L31.0014 6.48602L31.5582 6.67493L31.4323 7.04615L30.8754 6.85724L30.5336 7.86484L30.1472 7.73376L30.4891 6.72617L29.9209 6.53341C29.6696 6.92547 29.3722 7.1794 29.025 7.29393L28.8931 6.89857C29.1389 6.82145 29.351 6.65687 29.5307 6.40105L29.0951 6.25327L29.221 5.88205L29.7324 6.05553C29.7887 5.93946 29.8386 5.81702 29.8849 5.68066L29.9723 5.42308L29.5708 5.28686L29.6954 4.91943ZM30.3549 5.55287L30.2983 5.71954C30.2418 5.88621 30.1765 6.04144 30.1112 6.18404L30.615 6.35495L30.8322 5.71478L30.3549 5.55287Z" fill="white"/>
<path d="M34.6075 6.25231L34.992 6.43106L34.7424 6.96788L35.6347 7.38273L35.4644 7.74907L34.5721 7.33422L34.3107 7.89642L35.2973 8.35512L35.1253 8.72509L33.9501 8.1787C33.5383 8.55191 33.2004 8.81385 32.9435 8.9679C33.341 9.09976 33.7469 9.21349 34.1559 9.31102C34.1529 9.08025 34.1415 8.86761 34.1214 8.66417L34.545 8.71117C34.5868 9.1717 34.593 9.64218 34.5603 10.1299L34.1271 10.1225C34.1372 9.97727 34.1441 9.83928 34.1511 9.71023C33.5601 9.56777 32.9373 9.37968 32.2775 9.14791L32.3476 8.77906C32.3889 8.78504 32.4194 8.78596 32.4426 8.78351C32.659 8.71651 33.0274 8.45549 33.5438 7.98982L32.7604 7.62556L32.9324 7.25559L33.9262 7.71767L34.1876 7.15546L33.3679 6.77434L33.5382 6.408L34.3579 6.78912L34.6075 6.25231ZM33.0522 5.55566C33.2001 5.84495 33.3133 6.11375 33.3939 6.36736L32.999 6.5146C32.9404 6.28005 32.8253 6.00594 32.6588 5.69034L33.0522 5.55566ZM32.567 6.36225C32.6966 6.64311 32.7937 6.90878 32.8617 7.16097L32.4649 7.3029C32.4155 7.07702 32.3201 6.80772 32.1771 6.49861L32.567 6.36225ZM32.4161 7.54051L32.695 7.84217C32.3282 8.22305 31.9551 8.5701 31.581 8.8814L31.2777 8.53748C31.6806 8.23073 32.0612 7.89599 32.4161 7.54051Z" fill="white"/>
<path d="M36.5761 10.5739C36.1218 10.7037 35.545 10.6701 34.8436 10.4766L34.8227 10.0577C35.5667 10.2575 36.1272 10.2954 36.497 10.1676C36.5209 10.1583 36.5413 10.147 36.5632 10.1412L35.2582 9.38546L35.4546 9.04623L36.95 9.9122C37.1493 9.75954 37.3301 9.55915 37.4903 9.31448L37.7388 8.88526L38.0885 9.08772L37.8399 9.51694C37.6797 9.76161 37.5093 9.96802 37.3308 10.1327L38.4073 10.7561L38.2108 11.0953L36.9889 10.3877L36.9257 10.4251C37.2917 10.8866 37.6035 11.3538 37.8558 11.8281L37.4727 12.0268C37.2133 11.493 36.9149 11.0105 36.5761 10.5739ZM36.3423 8.68668C36.5285 8.92392 36.6854 9.17191 36.8059 9.42663L36.4526 9.60569C36.3302 9.32218 36.1843 9.07128 36.008 8.84898L36.3423 8.68668ZM36.974 8.41C37.1553 8.63977 37.3072 8.88029 37.4278 9.13501L37.0745 9.31407C36.9556 9.03256 36.8111 8.78713 36.6397 8.5723L36.974 8.41ZM39.3061 9.1642L38.8831 9.89457L38.53 9.69011L38.7605 9.29204L36.5383 8.00512L36.3078 8.40319L35.9547 8.19872L36.3777 7.46835L37.6688 8.21605C37.6863 8.106 37.6978 8.00634 37.7038 7.90814L38.1103 8.06032C38.0942 8.17583 38.0687 8.29972 38.0392 8.43053L39.3061 9.1642Z" fill="white"/>
<path d="M39.7752 9.67748L40.2363 9.99531C40.2789 9.82066 40.3115 9.65363 40.3296 9.48637L40.7228 9.67C40.6847 9.83806 40.6353 10.0226 40.5722 10.2269L40.9542 10.4902L40.7272 10.8195L40.0916 10.3814L39.8441 10.7404L40.427 11.1422C39.83 12.0084 39.4457 12.5305 39.2786 12.7166C39.1072 12.8947 38.8821 12.8901 38.6087 12.7017C38.5824 12.6836 38.5441 12.6475 38.4949 12.599L38.627 12.2382C38.6795 12.289 38.7243 12.3296 38.7672 12.3591C38.8824 12.4386 38.9902 12.4303 39.0826 12.3385C39.1717 12.2445 39.4404 11.8758 39.8896 11.2382L39.6229 11.0543C39.106 11.7619 38.6163 12.2114 38.1573 12.4051L38.0571 12.0008C38.4749 11.8176 38.9256 11.3752 39.4147 10.6727L39.7688 10.1589L39.5482 10.0068L39.7752 9.67748ZM41.2819 11.0367C41.1162 11.1363 40.9552 11.2148 40.7977 11.2811L41.0908 11.4831L40.8683 11.8059L41.1435 11.879L41.4953 11.3685L41.8115 11.5864L41.5368 11.9849L42.1899 12.1582C41.7494 12.7971 41.4707 13.1733 41.3512 13.2902C41.2252 13.4025 41.0491 13.3831 40.8252 13.2288L40.8219 13.2265L40.9327 12.8754C40.9887 12.914 41.0358 12.9513 41.0819 12.9831C41.1083 13.0013 41.1475 12.9797 41.1949 12.9249C41.2378 12.8768 41.3682 12.6946 41.5907 12.3719L41.3211 12.2978L40.5833 13.3681L40.2672 13.1502L40.9278 12.1918L40.6527 12.1188L40.0828 12.9454C39.9784 13.0969 39.9723 13.2044 40.0678 13.2703L40.6738 13.688C40.7397 13.7334 40.7994 13.7454 40.855 13.7352C40.9162 13.7239 41.0165 13.6278 41.1568 13.4525L41.3896 13.749C41.1624 14.0151 40.995 14.1523 40.884 14.1583C40.784 14.1623 40.6638 14.1183 40.5255 14.023L39.768 13.5008C39.5342 13.3396 39.5256 13.1054 39.739 12.7958L40.277 12.0153L39.9986 11.94L40.212 11.6304L40.4904 11.7057L40.7765 11.2908C40.6804 11.3314 40.5833 11.3665 40.4964 11.394L40.4619 10.9719C40.813 10.8642 41.207 10.645 41.6437 10.3145L41.9165 10.6094C41.82 10.679 41.7291 10.7474 41.6371 10.8104L42.7536 11.58L42.5334 11.8994L41.2819 11.0367Z" fill="white"/>
<path d="M44.1587 13.3581C44.3115 13.6344 44.4279 13.9175 44.505 14.205L44.1401 14.3276C44.0574 14.0152 43.9409 13.732 43.7957 13.472L44.1587 13.3581ZM42.8544 14.3579C43.0003 14.5979 43.1324 14.8424 43.2477 15.0886C43.5413 15.0934 43.8661 15.0719 44.2248 15.0211L42.5273 13.6597L42.7726 13.3539L44.8788 15.0432L44.6586 15.3178C44.2568 15.416 43.8444 15.4698 43.4209 15.4737C43.4975 15.653 43.5685 15.833 43.6282 16.0143L43.2251 16.1525C43.0303 15.545 42.7755 14.9868 42.4638 14.4805L42.8544 14.3579ZM44.8373 12.7486L45.0557 12.9238C45.1073 13.6523 45.2939 14.3403 45.6067 14.986L45.2116 15.146C44.9064 14.491 44.7391 13.8236 44.7038 13.1389C44.0639 13.2718 43.3636 13.269 42.6029 13.1307L42.6759 12.7072C43.4328 12.8631 44.1512 12.8752 44.8373 12.7486Z" fill="white"/>
<path d="M47.1018 14.5503L46.4349 16.4816L44.5559 17.2845L44.4105 16.9359L46.1333 16.2009L46.7438 14.43L47.1018 14.5503ZM47.6112 15.0246L46.9442 16.9559L45.0653 17.7588L44.9198 17.4102L46.6427 16.6752L47.2414 14.8934L47.6112 15.0246Z" fill="white"/>
<path d="M49.317 16.7198L49.5951 16.9787C49.284 17.0662 49.0023 17.181 48.7498 17.323C48.4275 17.493 48.1494 17.7096 47.9123 17.9642C47.6778 18.216 47.4817 18.5088 47.3324 18.8453C47.2114 19.1043 47.117 19.3936 47.0492 19.713L46.771 19.454C46.8104 19.13 46.8904 18.8328 47.0051 18.557C47.1433 18.2266 47.3393 17.9281 47.5846 17.6646C47.8354 17.3953 48.1164 17.1815 48.4361 17.0201C48.7085 16.8802 48.9993 16.7792 49.317 16.7198ZM50.4698 18.3344C50.6718 18.5224 50.7842 18.7364 50.8069 18.9761C50.8267 19.2131 50.752 19.4224 50.5776 19.6098C50.4086 19.7913 50.1857 19.8898 49.912 19.9137C49.7483 19.9252 49.4983 19.9002 49.1653 19.8469C48.8207 19.7885 48.5774 19.7915 48.4325 19.8533L49.4629 20.8127L49.1822 21.1143L47.7243 19.7568C47.9233 19.5431 48.1624 19.4214 48.4501 19.3941C48.608 19.3772 48.8889 19.3983 49.2872 19.4577C49.5091 19.4894 49.6764 19.4976 49.7922 19.4906C49.9784 19.4726 50.1288 19.405 50.2378 19.2879C50.3441 19.1738 50.391 19.0589 50.3842 18.9487C50.3745 18.8359 50.3083 18.725 50.1883 18.6133C50.0595 18.4933 49.922 18.4473 49.7758 18.4751C49.6351 18.4971 49.4827 18.5903 49.3242 18.7488L48.9817 18.4299C49.2027 18.1984 49.4445 18.0737 49.7127 18.0557C49.9921 18.0316 50.2444 18.1245 50.4698 18.3344ZM51.5228 20.8287L51.1194 21.262L52.2757 22.3387L52.6791 21.9054L51.5228 20.8287ZM52.9435 21.6215L53.3252 21.2116L52.1688 20.1349L51.7872 20.5448L52.9435 21.6215ZM50.8374 21.5296C50.453 21.8603 50.0528 22.067 49.6396 22.1469L49.6044 21.7151C50.023 21.6294 50.4191 21.386 50.7956 20.9934L52.134 19.556L53.9081 21.2078L51.771 23.5029C51.5911 23.6962 51.4016 23.7001 51.2026 23.5147L50.8278 23.1658L51.0239 22.7909C51.1445 22.9196 51.2591 23.0372 51.3674 23.1381C51.426 23.1926 51.4934 23.1789 51.5643 23.1028L52.0113 22.6227L50.8374 21.5296ZM55.2649 22.351L55.5635 22.629L54.8738 23.3696L55.0026 23.4896L54.7219 23.7911L54.0779 23.1914L53.9906 23.2851C53.917 23.3641 53.8432 23.4375 53.7722 23.508L54.3313 24.0286L53.3364 25.0971C53.736 24.9555 54.1665 24.6458 54.6253 24.1766L55.6747 23.0496C56.1483 23.4742 56.6213 23.7998 57.0992 24.0261L56.992 24.4347C56.5656 24.2235 56.1364 23.9331 55.7102 23.5691L55.3722 23.9321L56.4349 24.9215L56.1923 25.1821C55.7735 25.5027 55.3568 25.7213 54.9389 25.8296C54.9096 26.1193 54.9478 26.3953 55.0477 26.6578L54.642 26.7883C54.5411 26.4976 54.4994 26.2019 54.5226 25.9011C54.2123 25.9291 53.9085 25.9032 53.6 25.8236L53.7128 25.4149C54.0098 25.4892 54.3021 25.5099 54.5839 25.4772C54.6803 25.086 54.8697 24.683 55.1578 24.268L55.1051 24.219L54.9034 24.4356C54.3601 24.9955 53.8324 25.3568 53.326 25.5192L53.3282 25.1059L53.121 25.3284L52.8224 25.0504L53.7628 24.0404L53.4877 23.7842C53.06 24.173 52.6757 24.4273 52.346 24.5466L52.3028 24.1293C52.6707 23.969 53.1356 23.593 53.6891 23.0043L54.6949 21.9241L54.9965 22.2049L54.3586 22.8899L54.5752 23.0916L55.2649 22.351ZM55.433 24.5242C55.2454 24.8196 55.1112 25.1046 55.0277 25.3821C55.3243 25.2866 55.6048 25.1379 55.875 24.9358L55.433 24.5242ZM57.6737 24.5009L57.9518 24.7599C57.9122 25.0783 57.8351 25.3782 57.715 25.6599C57.5738 25.9875 57.3835 26.2858 57.1328 26.5552C56.8874 26.8186 56.6007 27.0326 56.2839 27.1968C56.017 27.3308 55.7233 27.429 55.4058 27.4941L55.1277 27.2352C55.4386 27.142 55.7203 27.0272 55.973 26.8909C56.2951 26.7152 56.5761 26.5014 56.8105 26.2497C57.0477 25.995 57.2409 25.6994 57.3904 25.3686C57.5112 25.1039 57.6056 24.8147 57.6737 24.5009Z" fill="white"/>
<g clip-path="url(#clip0_4_52480)">
<path d="M4.5648 5.37368C4.29778 4.30188 3.21244 3.64947 2.14063 3.9165C1.06882 4.18353 0.416421 5.26887 0.683449 6.34068C0.950478 7.41249 2.03582 8.06489 3.10762 7.79786C4.17943 7.53083 4.83183 6.44549 4.5648 5.37368Z" fill="white"/>
<path d="M3.29618 5.68969C3.39077 6.06935 3.15969 6.4538 2.78003 6.54839C2.40037 6.64298 2.01591 6.41188 1.92133 6.03222C1.82674 5.65256 2.05783 5.26811 2.43749 5.17353C2.81716 5.07894 3.20159 5.31004 3.29618 5.68969Z" fill="#485CC2"/>
<path fill-rule="evenodd" clip-rule="evenodd" d="M1.92463 5.67648C1.92202 5.81082 1.97777 6.0717 2.22438 6.09478C2.47542 6.11827 2.58978 5.94282 2.61558 5.85216C2.65024 5.76825 2.76915 5.60528 2.96754 5.62468C3.16595 5.64407 3.24665 5.77378 3.2622 5.83622L3.30333 6.00131C3.32362 5.90128 3.3225 5.79531 3.29619 5.68969C3.2016 5.31004 2.81716 5.07894 2.4375 5.17353C2.17913 5.23789 1.98957 5.4365 1.92463 5.67648Z" fill="#D74B4B"/>
<path fill-rule="evenodd" clip-rule="evenodd" d="M1.03415 5.68014L1.29092 5.01162L1.3949 5.05156L1.13813 5.72008L1.03415 5.68014ZM1.21224 5.7341L1.469 5.06557L1.57299 5.10551L1.31622 5.77404L1.21224 5.7341ZM1.63273 5.12048L1.37596 5.789L1.47994 5.82895L1.73671 5.16042L1.63273 5.12048Z" fill="#333333"/>
<path fill-rule="evenodd" clip-rule="evenodd" d="M3.94519 4.9549L3.71106 4.7513L3.63706 4.83456L3.87211 5.03895L3.94519 4.9549ZM3.40479 4.48498L3.62702 4.67821L3.553 4.76147L3.33171 4.56903L3.40479 4.48498ZM3.81325 5.0861L3.27285 4.61617L3.19975 4.70023L3.74015 5.17015L3.81325 5.0861ZM3.39913 5.10225L3.62133 5.29545L3.69441 5.2114L3.47315 5.01898L3.39913 5.10225ZM3.38909 4.94589L3.31509 5.02915L3.08092 4.82553L3.15401 4.74148L3.38909 4.94589Z" fill="#333333"/>
<path fill-rule="evenodd" clip-rule="evenodd" d="M4.10282 6.32391L4.21407 6.03427L4.1101 5.99433L3.99841 6.2851L4.10282 6.32391ZM4.06289 6.4279L3.9573 6.70279L3.85333 6.66286L3.95847 6.38909L4.06289 6.4279ZM3.66271 6.16034L3.76829 5.88546L3.87226 5.92541L3.76714 6.19914L3.66271 6.16034ZM3.72719 6.30314L3.62278 6.26433L3.51151 6.554L3.6155 6.59393L3.72719 6.30314ZM4.03599 5.98031L3.92885 6.25925L3.82444 6.22044L3.932 5.94038L4.03599 5.98031ZM3.77923 6.64884L3.88892 6.36324L3.78449 6.32443L3.67524 6.6089L3.77923 6.64884Z" fill="#333333"/>
<path fill-rule="evenodd" clip-rule="evenodd" d="M1.30309 6.75952L1.84349 7.22944L1.91658 7.14539L1.37618 6.67546L1.30309 6.75952ZM1.55387 6.50302L2.09427 6.97294L2.16736 6.88889L1.62696 6.41896L1.55387 6.50302ZM1.43504 6.62831L1.66052 6.82439L1.73452 6.74113L1.50814 6.54427L1.43504 6.62831ZM1.97545 7.09824L1.74458 6.89748L1.81858 6.81422L2.04854 7.01418L1.97545 7.09824Z" fill="#333333"/>
</g>
<defs>
<clipPath id="clip0_4_52480">
<rect width="4" height="4" fill="white" transform="translate(0.199951 4.4) rotate(-13.9898)"/>
</clipPath>
</defs>
</svg>
