<svg width="141" height="44" viewBox="0 0 141 44" fill="none" xmlns="http://www.w3.org/2000/svg">
<path d="M5.98262 19.3597L6.20239 19.6518L4.66788 20.759L4.47258 22.6346L4.12336 22.6002L4.33481 20.5679L5.98262 19.3597ZM6.5759 19.7001L6.7818 19.9843L5.26116 21.0994L5.06587 22.975L4.71664 22.9406L4.92809 20.9083L6.5759 19.7001Z" fill="white"/>
<path d="M7.99022 20.5262C8.02886 20.7744 8.05446 21.0383 8.06352 21.316L7.78639 21.3072L8.51482 21.7009C8.74991 21.5688 8.99184 21.3903 9.2387 21.1691L9.51843 21.4339C9.31549 21.6244 9.10476 21.7787 8.89136 21.9044L9.55997 22.2657L9.385 22.5895L8.23781 21.9695L8.17886 22.0786C8.08054 22.2437 7.97926 22.389 7.87666 22.52L9.27722 23.2769L9.10226 23.6006L7.87061 22.935C7.81293 23.454 8.07213 24.026 8.64633 24.6546L8.27811 24.8648C7.70267 24.1628 7.45144 23.5087 7.51549 22.9022C7.36276 23.0334 7.20547 23.1393 7.04552 23.2166C6.63507 23.404 6.11324 23.4357 5.48003 23.3117L5.45489 22.9208C6.0919 23.0377 6.57768 23.0138 6.91576 22.8509C7.03777 22.785 7.15493 22.7028 7.26534 22.6079L6.06184 21.9575L6.23681 21.6338L7.5318 22.3336C7.63982 22.201 7.74461 22.0576 7.84103 21.896L7.89999 21.7869L6.74928 21.165L6.92424 20.8413L7.6773 21.2483C7.67148 20.9814 7.6453 20.7354 7.6042 20.5086L7.99022 20.5262Z" fill="white"/>
<path d="M10.6434 22.0836L13.3376 23.4657L13.1678 23.7967L12.0324 23.2143L11.587 24.0827L12.9714 24.7929L12.798 25.131L11.4135 24.4208L10.7909 25.6344C10.6631 25.8836 10.4657 25.9441 10.2059 25.8108L9.64003 25.5206L9.73682 25.1566C9.91285 25.2604 10.0836 25.357 10.2473 25.441C10.3612 25.4994 10.4455 25.4752 10.4966 25.3756L11.0754 24.2473L9.63044 23.5061L9.80389 23.168L11.2489 23.9092L11.6943 23.0408L10.4736 22.4146L10.6434 22.0836Z" fill="white"/>
<path d="M13.8549 25.5565L13.3892 26.5132C13.7156 26.592 14.0653 26.6688 14.4345 26.7328L14.3721 27.0895C13.8702 26.9965 13.3663 26.8802 12.8621 26.746L12.8638 26.3954C12.9728 26.3906 13.0493 26.3433 13.093 26.2534L14.1557 24.0703C14.6403 24.2172 15.0958 24.3232 15.524 24.3849L15.6031 24.7615C15.2323 24.71 14.8217 24.6213 14.3696 24.4991L14.0142 25.2292L15.0068 25.7124L14.8475 26.0397L13.8549 25.5565ZM15.479 27.8863L15.1409 27.7218L15.2085 27.3454L15.5251 27.5084C15.6186 27.5539 15.6916 27.5227 15.7406 27.422L16.6474 25.559L15.9389 25.2141L14.5629 28.041L14.2176 27.8729L15.7512 24.7224L17.1503 25.4034L16.0509 27.662C15.9196 27.9317 15.7272 28.0071 15.479 27.8863Z" fill="white"/>
<path d="M17.3388 26.7013L18.115 25.7731L18.4333 25.9904L17.9344 26.5752L18.4719 26.8232C18.6649 26.5862 18.8501 26.3281 19.0311 26.0504L19.3633 26.2565C19.1874 26.5233 19.0089 26.7669 18.8315 26.9891L20.495 27.7565L20.3425 28.0871L18.5918 27.2794C18.5002 27.3825 18.4083 27.4766 18.3217 27.5688L19.7746 28.2391L19.6405 28.5297C19.4087 28.784 19.1067 28.9706 18.7273 29.0863C18.933 29.3662 19.2018 29.6621 19.5301 29.9721L19.2013 30.2169C18.8355 29.8543 18.5472 29.5054 18.3365 29.1791C17.9574 29.2465 17.5213 29.2656 17.0282 29.2363L16.9974 28.8256C17.4209 28.8625 17.8003 28.8613 18.1303 28.8241C17.9813 28.5263 17.8972 28.2408 17.8798 27.9729C17.3703 28.3898 16.8421 28.6659 16.2987 28.8028L16.2682 28.4011C16.9738 28.1892 17.6261 27.7589 18.225 27.1101L17.3388 26.7013ZM18.2176 27.8996C18.2386 28.1692 18.3353 28.4561 18.5094 28.7567C18.8236 28.677 19.0829 28.5544 19.2818 28.3906L18.2176 27.8996ZM19.9919 26.498C20.1554 26.8025 20.2773 27.0922 20.3592 27.3635L19.9982 27.4965C19.9401 27.2406 19.8272 26.9507 19.6539 26.6196L19.9919 26.498Z" fill="white"/>
<path d="M24.1079 28.3049L24.3436 28.5648L22.9542 29.8396L22.9653 31.7253L22.6144 31.7294L22.6022 29.6861L24.1079 28.3049Z" fill="white"/>
<path d="M25.9228 29.2391L27.9065 30.0525L27.7684 30.3893C27.4477 30.5388 27.1035 30.6614 26.732 30.7555L26.2312 31.9768C26.1189 32.2507 25.9258 32.3315 25.652 32.2192L25.2005 32.034L25.2408 31.6615C25.3636 31.7205 25.4953 31.7788 25.6397 31.838C25.7729 31.8926 25.8705 31.8549 25.9221 31.729L26.4517 30.4374C26.7315 30.3878 27.0196 30.3071 27.3058 30.1996L25.7847 29.5759L25.9228 29.2391ZM25.0769 28.7928C25.2459 29.087 25.3795 29.3622 25.4745 29.626L25.1129 29.7804C25.0408 29.5346 24.9192 29.2513 24.7407 28.9274L25.0769 28.7928ZM25.9377 33.0194C25.7268 32.9329 25.4988 32.8351 25.2524 32.7298C25.0022 32.6229 24.8041 32.5157 24.6638 32.4149C24.5229 32.3053 24.4224 32.1603 24.363 31.9889C24.3369 31.9048 24.2973 31.8539 24.2529 31.8357C24.1751 31.8038 23.9684 31.9179 23.6348 32.1832L23.4744 31.8364C23.7891 31.6066 24.0382 31.484 24.2182 31.467L24.6446 30.427L24.1412 30.2206L24.2809 29.8801L25.121 30.2246L24.5443 31.631C24.5567 31.6534 24.5677 31.6795 24.5771 31.7093C24.6301 31.8434 24.6923 31.9554 24.7688 32.043C24.8623 32.1418 25.0241 32.2427 25.2505 32.3442C25.4674 32.4375 25.7249 32.5474 26.0247 32.6703C26.1912 32.7386 26.363 32.8047 26.5406 32.8775C26.7176 32.9415 26.8539 32.9887 26.9531 33.0208L26.7223 33.3411L25.9377 33.0194Z" fill="white"/>
<path d="M31.4725 31.7428L31.1734 32.5235L30.8111 32.3846L30.9785 31.9476L28.5058 31.0002L28.3398 31.4335L27.9775 31.2947L28.2752 30.5177L29.717 31.0702C29.7176 30.9119 29.7102 30.7635 29.6948 30.6248L30.0987 30.711C30.1009 30.8618 30.0974 31.0275 30.0867 31.2118L31.4725 31.7428ZM27.8999 31.4748L31.1122 32.7056L30.9805 33.0492L29.6097 32.524L29.0988 33.8575C28.9972 34.1227 28.8149 34.2071 28.5609 34.1098L28.0081 33.898L28.0628 33.5205C28.2326 33.6027 28.3978 33.6746 28.5622 33.7376C28.663 33.7762 28.7368 33.7402 28.7783 33.6319L29.2548 32.3881L27.7682 31.8185L27.8999 31.4748Z" fill="white"/>
<path d="M33.626 32.0598L33.9767 32.1839L33.6364 33.1455L33.2857 33.0214L33.626 32.0598ZM32.1717 33.4715C31.9938 33.4467 31.8159 33.4219 31.6393 33.3933L31.607 33.017C32.8098 33.239 33.7861 33.2621 34.532 33.0848C34.4422 32.9427 34.345 32.798 34.2401 32.6505L34.5629 32.5059C34.8527 32.9098 35.086 33.2936 35.2566 33.651L34.9183 33.8156C34.8614 33.6766 34.7932 33.5337 34.7099 33.3854C34.2929 33.4966 33.8238 33.5512 33.2975 33.5517L34.6323 34.0241L33.9076 36.0716L33.557 35.9475L33.6077 35.8042L31.9447 35.2157L31.8914 35.3665L31.5445 35.2437L32.1717 33.4715ZM32.0569 34.8989L33.7198 35.4875L33.8092 35.2348L32.1463 34.6463L32.0569 34.8989ZM32.2477 34.3597L33.9106 34.9483L33.992 34.7183L32.3291 34.1297L32.2477 34.3597ZM32.4292 33.8469L34.0921 34.4354L34.1762 34.1979L32.5133 33.6093L32.4292 33.8469ZM32.958 32.0652L33.1319 32.3771C32.812 32.5736 32.4513 32.7175 32.0511 32.805L31.9385 32.4639C32.3171 32.3773 32.656 32.2469 32.958 32.0652Z" fill="white"/>
<path d="M35.9339 33.7553C35.8275 33.8764 35.7131 33.9697 35.5999 34.0339L35.3746 33.7297C35.6214 33.591 35.823 33.3578 35.9859 33.0237L36.3073 33.1866C36.2538 33.287 36.2027 33.3798 36.1515 33.4599L36.4978 33.5721L36.6432 33.123L37.0009 33.2389L36.8555 33.6879L37.5367 33.9085L37.4295 34.2396L36.7483 34.019L36.6164 34.4262L37.408 34.6825L37.2983 35.0212L36.5068 34.7649L36.4033 35.0845L37.1377 35.3224L36.8087 36.3384C36.7273 36.5896 36.5573 36.6733 36.2985 36.5895L36.1121 36.5291L36.1304 36.1608L36.2929 36.2303C36.3957 36.2635 36.4637 36.2351 36.4908 36.1514L36.6868 35.5463L36.2948 35.4194L35.8672 36.7399L35.5095 36.6241L35.9371 35.3036L35.5451 35.1766L35.1939 36.2612L34.8438 36.1478L35.3035 34.7284L36.0455 34.9687L36.1491 34.649L35.2586 34.3607L35.3683 34.022L36.2587 34.3103L36.3906 33.9032L35.9339 33.7553ZM37.8604 33.8956L38.2105 34.009L37.4563 36.3379L37.1062 36.2245L37.8604 33.8956ZM37.5831 37.2577L37.0161 37.0741L37.0483 36.7019C37.2261 36.7763 37.3949 36.8394 37.5623 36.8936C37.6612 36.9256 37.728 36.8884 37.7612 36.7856L38.7286 33.7984L39.0863 33.9142L38.0894 36.9928C38.0056 37.2516 37.8343 37.3391 37.5831 37.2577Z" fill="white"/>
<path d="M39.8181 34.1451C40.0101 34.4301 40.1676 34.705 40.2839 34.9639L39.9528 35.1424C39.8573 34.898 39.7086 34.6215 39.4992 34.3105L39.8181 34.1451ZM41.0067 38.2487C40.7993 38.1884 40.57 38.1174 40.3253 38.0421C40.0768 37.9656 39.8799 37.8833 39.7336 37.799C39.5934 37.7082 39.4858 37.5769 39.4086 37.4128C39.3739 37.3319 39.3329 37.2866 39.2906 37.2743C39.2061 37.2497 39.0176 37.3823 38.72 37.6748L38.5238 37.3469C38.8075 37.0879 39.0412 36.9434 39.2171 36.9113L39.5335 35.8244L39.0188 35.6747L39.1172 35.3367L39.9737 35.5859L39.55 37.0415C39.5609 37.0614 39.5756 37.0823 39.5881 37.111C39.6501 37.2415 39.7199 37.3451 39.7976 37.4219C39.8972 37.5092 40.0561 37.5929 40.2843 37.6677C40.4982 37.7341 40.7544 37.8129 41.054 37.9001C41.2422 37.9548 41.4354 38.0069 41.6324 38.06C41.8255 38.1121 41.9775 38.148 42.0873 38.1716L41.8939 38.5069L41.0067 38.2487ZM40.8884 35.2773C40.7889 35.39 40.6851 35.4889 40.5797 35.579L40.3349 35.3037C40.5953 35.0962 40.8086 34.85 40.9748 34.5651L41.2889 34.7314C41.234 34.8196 41.1803 34.904 41.125 34.9795L41.5091 35.0913L41.6343 34.6612L41.9837 34.7629L41.8586 35.193L42.6152 35.4132L42.5168 35.7512L41.7602 35.531L41.6406 35.942L42.5969 36.2203L42.4997 36.5544L40.1261 35.8636L40.2234 35.5295L41.2911 35.8402L41.4107 35.4293L40.8884 35.2773ZM40.3668 36.1961L42.1489 36.7148L41.8191 37.8478L40.0371 37.3291L40.3668 36.1961ZM41.5669 37.4119L41.7021 36.9472L40.6191 36.632L40.4838 37.0967L41.5669 37.4119Z" fill="white"/>
<path d="M44.4583 35.4703L44.8265 35.5642L44.0491 38.6106L44.5142 38.7293L45.2916 35.6829L45.6598 35.7769L44.8824 38.8233L46.0141 39.1121L45.9221 39.4725L42.4649 38.5902L42.5569 38.2298L43.6809 38.5166L44.4583 35.4703ZM46.2006 36.6828L46.5024 36.8589C46.185 37.4879 45.8468 38.0208 45.4866 38.4614L45.1868 38.2611C45.5186 37.8669 45.8598 37.3389 46.2006 36.6828ZM43.5438 35.9965C43.6089 36.5663 43.632 37.2038 43.6169 37.91L43.258 37.9092C43.2815 37.2671 43.2613 36.6344 43.2042 36.0171L43.5438 35.9965Z" fill="white"/>
<path d="M47.6666 36.2969C47.8763 36.5386 48.0422 36.7749 48.1737 36.9998L47.8639 37.203C47.755 36.9871 47.586 36.746 47.3601 36.4845L47.6666 36.2969ZM46.9256 37.3032L47.8014 37.4923L47.4444 39.1462C47.5875 39.0707 47.7419 38.9813 47.9113 38.8787L47.9286 39.2916C47.6238 39.4714 47.3084 39.6243 46.9833 39.7464L46.9152 39.3798C46.9895 39.3385 47.0399 39.2758 47.0576 39.1937L47.3649 37.7704L46.8488 37.659L46.9256 37.3032ZM48.221 38.0698L50.1173 38.4792L50.0439 38.8194C49.8554 39.1429 49.6035 39.3995 49.2875 39.5932C49.5023 39.8114 49.7752 40.0258 50.1001 40.2269L49.8315 40.5045C49.4743 40.2637 49.1886 40.0138 48.9649 39.7609C48.6127 39.914 48.1954 40.0081 47.721 40.0448L47.5813 39.6873C48.0219 39.6555 48.4028 39.5782 48.7248 39.4512C48.5147 39.1358 48.3925 38.8107 48.3662 38.4777L48.1433 38.4295L48.221 38.0698ZM48.7142 38.5528C48.7526 38.8107 48.8587 39.0587 49.0354 39.3014C49.2879 39.1554 49.4986 38.9758 49.6643 38.7579L48.7142 38.5528ZM48.8205 36.6197L50.2046 36.9185L50.0273 37.7396C50.0088 37.8256 50.0456 37.8826 50.1433 37.9037L50.4874 37.978L50.414 38.3182L49.9721 38.2228C49.6945 38.1629 49.5864 38.0004 49.6421 37.7423L49.7619 37.1871L49.1129 37.047L49.0876 37.1643C48.9998 37.5709 48.7242 37.8429 48.2655 37.9771L48.0808 37.6385C48.4413 37.5609 48.6542 37.3899 48.7116 37.1241L48.8205 36.6197Z" fill="white"/>
<path d="M52.1165 38.3333L53.1492 38.5115L53.3485 37.3565L53.7348 37.4232L53.5355 38.5781L54.5131 38.7467L54.4492 39.1173L53.4716 38.9486L53.1052 41.0733L52.7189 41.0066L53.0853 38.882L52.0526 38.7039L52.1165 38.3333ZM51.5922 37.0901C51.8151 37.3275 51.9986 37.558 52.142 37.7857L51.8409 38.0017C51.7152 37.7892 51.5323 37.5547 51.2878 37.3015L51.5922 37.0901ZM50.8747 38.1435L51.7853 38.3006L51.4956 39.9798C51.6394 39.899 51.7899 39.8032 51.9503 39.6969L51.9829 40.0963C51.6898 40.2893 51.3811 40.4552 51.0614 40.5909L50.9773 40.2313C51.0538 40.1877 51.1009 40.1268 51.1145 40.048L51.3647 38.5974L50.8128 38.5022L50.8747 38.1435Z" fill="white"/>
<path d="M55.2559 40.0338L55.2199 40.3236L56.0376 40.4253L56.0736 40.1355L55.2559 40.0338ZM56.1121 39.8259L56.1502 39.5203L55.3325 39.4186L55.2944 39.7242L56.1121 39.8259ZM55.1809 40.6372L55.0885 41.3794L54.7233 41.334L55.0083 39.0437L56.5563 39.2363L56.3262 41.086C56.2921 41.3599 56.1439 41.4825 55.8898 41.4509L55.5802 41.4124L55.5329 41.0478L55.8127 41.0987C55.904 41.1101 55.9581 41.0644 55.9709 40.9612L55.9986 40.7389L55.1809 40.6372ZM57.863 39.7817L57.216 39.7013C56.9381 39.6667 56.8219 39.4991 56.8595 39.1974L57.0199 37.9073L57.3931 37.9537L57.3348 38.4221C57.7515 38.4095 58.0929 38.3875 58.3598 38.3481L58.4413 38.6969C58.1065 38.7318 57.7245 38.7568 57.2918 38.7675L57.2425 39.1644C57.2266 39.2914 57.2659 39.3648 57.3612 39.3767L57.8335 39.4355C57.897 39.4434 57.9432 39.4289 57.9759 39.3927C58.0136 39.349 58.0542 39.217 58.0898 38.9957L58.4287 39.1548C58.356 39.4803 58.2757 39.6719 58.1959 39.7305C58.117 39.7811 58.0059 39.7995 57.863 39.7817ZM57.0622 40.6132L57.002 41.0975C56.9931 41.169 57.0323 41.2101 57.1276 41.222L57.6078 41.2817C57.6714 41.2896 57.7215 41.2757 57.7537 41.2434C57.7914 41.1998 57.832 41.0678 57.8715 40.847L58.1991 41.0006C58.1258 41.33 58.0496 41.5221 57.9702 41.5767C57.8953 41.6279 57.7842 41.6463 57.6373 41.628L56.9784 41.546C56.7085 41.5125 56.5888 41.3726 56.6185 41.1344L56.7859 39.7888L57.159 39.8352L57.1047 40.2719C57.4827 40.2786 57.8246 40.2526 58.1292 40.2018L58.2102 40.5545C57.8491 40.6063 57.4641 40.6229 57.0622 40.6132ZM56.4078 38.0972C56.603 38.4399 56.7476 38.736 56.8459 38.9821L56.5087 39.1658C56.4788 39.0815 56.4456 38.9927 56.4083 38.9034C55.9876 38.9156 55.4855 38.9015 54.902 38.8611L54.8378 38.5347C54.9082 38.5193 54.9678 38.4945 55.0203 38.4607C55.296 38.2209 55.5162 37.9742 55.6768 37.7201L56.0247 37.8722C55.8175 38.1769 55.5988 38.4117 55.3677 38.5845C55.6475 38.6032 55.9532 38.609 56.2796 38.6093C56.222 38.4893 56.1604 38.3687 56.0953 38.2438L56.4078 38.0972Z" fill="white"/>
<path d="M60.202 38.2206L60.5851 38.2478L60.5551 38.6707C60.5426 38.7901 60.5305 38.9055 60.5143 39.0207L62.0345 39.1283C61.9688 39.8295 61.9047 40.3943 61.834 40.8264C61.7639 41.2505 61.6749 41.545 61.5669 41.7098C61.4596 41.8666 61.3018 41.9436 61.0892 41.9446L60.5345 41.9053L60.4568 41.5309C60.6238 41.5507 60.7791 41.5658 60.9268 41.5762C61.1382 41.5912 61.2872 41.4694 61.3694 41.2146C61.4568 40.9441 61.5422 40.3607 61.6254 39.4683L60.4564 39.3855C60.3532 39.9356 60.2045 40.3942 60.0063 40.7571C59.7322 41.231 59.3183 41.5826 58.765 41.8081L58.5841 41.4745C59.1311 41.2245 59.512 40.8865 59.7349 40.4572C59.8806 40.1548 59.9949 39.7859 60.0733 39.3584L58.9521 39.279L58.9781 38.9119L60.1312 38.9936C60.1477 38.8744 60.1599 38.759 60.1721 38.6436L60.202 38.2206Z" fill="white"/>
<path d="M62.8971 42.0349L62.5452 42.0311L62.4651 41.6622C62.569 41.6753 62.6729 41.6845 62.7689 41.6855C62.8609 41.6865 62.9094 41.639 62.9104 41.547L62.9195 40.691C62.783 40.7416 62.6425 40.7881 62.502 40.8346L62.4141 40.4496C62.5865 40.4115 62.7551 40.3613 62.9237 40.3031L62.9325 39.4791L62.4806 39.4743L62.4845 39.1103L62.9364 39.1151L62.9442 38.3912L63.3282 38.3953L63.3204 39.1193L63.6924 39.1232L63.6885 39.4872L63.3165 39.4832L63.3094 40.1472C63.4139 40.1003 63.5145 40.0494 63.615 39.9945L63.6109 40.3824C63.5063 40.4333 63.4058 40.4842 63.3053 40.5312L63.2933 41.6511C63.2905 41.9071 63.1571 42.0377 62.8971 42.0349ZM63.9709 38.5142L65.7708 38.5335L65.7554 39.9774L63.9555 39.9581L63.9709 38.5142ZM65.3867 39.6654L65.3896 39.3935L64.3297 39.3821L64.3267 39.6541L65.3867 39.6654ZM64.3327 39.0941L65.3927 39.1055L65.3956 38.8375L64.3356 38.8261L64.3327 39.0941ZM63.6932 40.1633L65.9931 40.188L65.9895 40.5279L65.0295 40.5177L65.0256 40.8856L65.8135 40.8941L65.8099 41.2301L65.022 41.2216L65.0174 41.6456C65.1652 41.6632 65.3371 41.677 65.5371 41.6792C65.7531 41.6815 65.9372 41.6755 66.0893 41.6611L65.9814 42.0279C65.8254 42.0263 65.6854 42.0208 65.5575 42.0154C65.0256 42.0057 64.6621 41.9538 64.4671 41.8557C64.3279 41.7822 64.2013 41.6528 64.0913 41.4677C63.9969 41.6867 63.8747 41.8894 63.7247 42.0758L63.4434 41.8287C63.7352 41.4718 63.8995 41.0776 63.9362 40.6379L64.2717 40.6815C64.2622 40.8254 64.2407 40.9612 64.2113 41.0929C64.3288 41.3262 64.4632 41.4796 64.6185 41.5453L64.6543 41.5577L64.6655 40.5138L63.6896 40.5033L63.6932 40.1633Z" fill="white"/>
<path d="M68.3074 38.3076L68.5098 38.6038C68.2846 38.7218 68.0582 38.8198 67.8265 38.8981L67.8827 39.8164L68.8649 39.7563L68.7765 38.311L69.1558 38.2878L69.2442 39.7331L70.1345 39.6786L70.157 40.0459L69.2667 40.1004L69.3785 41.929L68.9992 41.9522L68.8874 40.1236L67.8972 40.1842C67.8921 41.018 67.6021 41.6489 67.0237 42.0851L66.7208 41.8511C67.243 41.4785 67.51 40.9292 67.5139 40.2076L66.5837 40.2645L66.5612 39.8972L67.4994 39.8398L67.4491 39.0174C67.2125 39.0799 66.9669 39.127 66.7206 39.1621L66.5798 38.8261C67.2981 38.71 67.8724 38.5346 68.3074 38.3076Z" fill="white"/>
<path d="M70.2596 39.3659L71.3745 39.223C71.3889 39.084 71.4079 38.9485 71.4223 38.8096L70.478 38.9306L70.4328 38.5775L71.4564 38.4463C71.4688 38.2914 71.4768 38.1331 71.4892 37.9783L71.8821 37.9602C71.8731 38.1106 71.8637 38.257 71.8571 38.3949L73.5156 38.1824L73.5608 38.5355L71.827 38.7577C71.8131 38.9006 71.7986 39.0396 71.7831 39.1706L73.8463 38.9062L73.8925 39.2673L71.7302 39.5444C71.703 39.7092 71.6781 39.8616 71.6483 40.0065L73.4853 39.7711L73.527 40.0965C73.379 40.3897 73.1319 40.6956 72.7861 41.0181C73.0105 41.07 73.2275 41.1269 73.4371 41.1888L73.2725 41.5405C72.6457 41.3386 72.0102 41.1942 71.3709 41.1148L71.5317 40.7958C71.8186 40.8316 72.094 40.8729 72.3592 40.9277C72.6689 40.6702 72.9073 40.4219 73.0732 40.1748L71.153 40.4209C71.2156 40.1547 71.2694 39.8817 71.3176 39.5973L70.3059 39.7269L70.2596 39.3659Z" fill="white"/>
<path d="M74.5548 38.332L74.1185 38.4143L74.0502 38.0527L75.2883 37.819L75.3566 38.1806L74.9321 38.2608L75.2452 39.9195C75.3888 39.8394 75.5238 39.757 75.655 39.6752L75.7254 40.0486C75.4063 40.2554 75.0345 40.464 74.6094 40.6704L74.4296 40.3217C74.5873 40.2513 74.7403 40.1776 74.8893 40.1047L74.5548 38.332ZM75.3733 37.5791L77.5745 37.1637L77.6427 37.5253L76.7269 37.6981C76.7295 37.8198 76.7267 37.9343 76.7231 38.0448L77.5485 37.8891L77.9076 39.7915L77.546 39.8597L77.2522 38.3032L76.077 38.525L76.3707 40.0815L76.0131 40.149L75.654 38.2466L76.3536 38.1146C76.3643 37.9986 76.3671 37.8841 76.3613 37.7671L75.4416 37.9407L75.3733 37.5791ZM77.3175 39.8784C77.675 40.047 77.9767 40.2221 78.2305 40.4022L78.0136 40.7199C77.792 40.5379 77.4928 40.3542 77.1151 40.1649L77.3175 39.8784ZM76.5032 38.6481L76.8766 38.5776L77.0064 39.2655C77.0669 39.6937 77.0143 40.0618 76.851 40.3613C76.6872 40.6365 76.3832 40.8811 75.9368 41.1038L75.6723 40.8239C76.1045 40.6121 76.3893 40.3955 76.5188 40.1757C76.6374 39.9416 76.6781 39.6612 76.633 39.336L76.5032 38.6481Z" fill="white"/>
<path d="M79.2731 36.8492L81.1684 36.3821L81.2574 36.7433L79.3621 37.2104L79.2731 36.8492ZM79.4153 37.8441L81.5747 37.3119L81.6637 37.6731L81.0579 37.8224L81.4637 39.4691C81.525 39.7177 81.4158 39.8764 81.1401 39.9444L80.5769 40.0832L80.4063 39.7421C80.5888 39.7136 80.7655 39.6783 80.9286 39.6381C81.0412 39.6103 81.089 39.5533 81.0689 39.4717L80.685 37.9143L79.5043 38.2053L79.4153 37.8441ZM78.566 36.8217L78.9421 36.8937C78.8377 37.3726 78.582 37.8394 78.1691 38.3037L77.9655 37.9625C78.2762 37.6017 78.4754 37.223 78.566 36.8217ZM78.9677 37.6661L79.34 37.7391C79.2868 37.9747 79.2036 38.2053 79.0903 38.431L79.5632 40.3495L79.202 40.4386L78.8181 38.8812C78.708 39.036 78.5891 39.1889 78.4538 39.3417L78.2551 39.0035C78.6212 38.5836 78.8614 38.1372 78.9677 37.6661Z" fill="white"/>
<path d="M81.7368 36.2634L83.1615 35.8339L83.2665 36.1824L81.8419 36.6119L81.7368 36.2634ZM81.9069 37.3402L83.6111 36.8263L83.7174 37.1786L82.8557 37.4385C82.876 38.0047 82.8728 38.4235 82.8471 38.6986C83.0837 38.5688 83.3172 38.4148 83.5449 38.2417C83.4003 38.0806 83.2591 37.931 83.1213 37.7929L83.3827 37.5511C83.6558 37.8197 83.9317 38.125 84.2092 38.4633L83.9437 38.7189L83.7702 38.5038C83.4096 38.7629 83.0104 39.0045 82.5686 39.2296L82.3766 38.9115C82.4125 38.8923 82.4321 38.8739 82.4439 38.8578C82.5023 38.6772 82.5212 38.2412 82.5034 37.5447L82.0132 37.6925L81.9069 37.3402ZM83.752 35.4093L84.112 35.3007L84.3361 36.0437L85.1633 35.7942C85.5397 37.0427 85.7527 37.8183 85.806 38.1197C85.8516 38.4235 85.7002 38.6279 85.3517 38.733C85.2904 38.7515 85.1809 38.7761 85.0254 38.8147L84.8441 38.5184C84.9855 38.4883 85.1065 38.4602 85.2061 38.4301C85.3746 38.3793 85.4426 38.2585 85.4178 38.0655C85.3865 37.8785 85.2167 37.2738 84.9172 36.2528L84.4423 36.396L84.4527 36.4305C84.7738 37.5369 84.752 38.4208 84.3848 39.0872L84.0401 38.9279C84.3673 38.3363 84.3864 37.5409 84.0927 36.539L84.0823 36.5046L83.5959 36.6512L83.4897 36.2989L83.9761 36.1522L83.752 35.4093Z" fill="white"/>
<path d="M87.233 35.4862L88.2198 35.1334L87.8252 34.0298L88.1943 33.8978L88.5889 35.0014L89.523 34.6674L89.6496 35.0215L88.7155 35.3555L89.4414 37.3856L89.0723 37.5176L88.3464 35.4874L87.3596 35.8403L87.233 35.4862ZM86.165 34.6616C86.4758 34.7587 86.749 34.8692 86.9858 34.9969L86.8299 35.333C86.6159 35.2098 86.3414 35.0956 86.004 34.9953L86.165 34.6616ZM86.0584 35.9317L86.9285 35.6206L87.5021 37.2251C87.5877 37.0841 87.6716 36.9267 87.7589 36.7552L87.9837 37.0869C87.8235 37.3991 87.6363 37.6954 87.4247 37.9707L87.1746 37.6991C87.2198 37.6235 87.2308 37.5473 87.2038 37.472L86.7083 36.0859L86.1809 36.2744L86.0584 35.9317Z" fill="white"/>
<path d="M91.5674 32.9529L91.9081 32.814L92.8413 35.103L92.5005 35.242L91.5674 32.9529ZM93.5199 35.7292L92.9865 35.9467L92.7676 35.6428C92.9478 35.5867 93.1137 35.5276 93.2693 35.4642C93.373 35.4219 93.4075 35.3474 93.3667 35.2474L92.1813 32.3397L92.5295 32.1978L93.7511 35.1944C93.8538 35.4462 93.7755 35.625 93.5199 35.7292ZM91.4347 33.5599L91.6292 33.878L90.6496 34.4631C90.7323 34.6237 90.8165 34.7665 90.902 34.8915C90.989 35.0202 91.0715 35.1377 91.1553 35.2375C91.2543 34.9293 91.3123 34.5946 91.3255 34.235L91.6979 34.269C91.6788 34.7519 91.5969 35.187 91.4472 35.572C91.4988 35.6244 91.5474 35.6694 91.5982 35.7092C91.8117 35.8727 91.974 35.9318 92.0792 35.8932C92.1339 35.8579 92.1207 35.656 92.0433 35.2858L92.4181 35.3576C92.4396 35.5692 92.4452 35.7526 92.4314 35.9095C92.4133 36.0982 92.354 36.2175 92.2502 36.2598C92.0724 36.3322 91.8485 36.281 91.5778 36.1149C91.4801 36.0554 91.3868 35.9854 91.2979 35.905C91.1511 36.1808 90.9671 36.4287 90.7457 36.6485L90.4062 36.4197C90.6542 36.1804 90.856 35.9124 91.0047 35.6099C90.9022 35.4961 90.8019 35.3772 90.7045 35.2441C90.5808 35.0786 90.4577 34.8825 90.3299 34.6539L89.9067 34.9085L89.7159 34.5888L90.1525 34.3245C90.0057 34.0387 89.855 33.7114 89.7055 33.3447L90.0611 33.1997C90.2031 33.5479 90.3388 33.8598 90.4758 34.1322L91.4347 33.5599ZM90.5462 32.9804C90.746 33.089 90.9496 33.2177 91.1519 33.3641L90.916 33.6331C90.7144 33.4777 90.5144 33.3475 90.3147 33.2389L90.5462 32.9804Z" fill="white"/>
<path d="M93.2464 31.8283L93.5718 31.6841C93.5284 32.0009 93.5232 32.3051 93.5561 32.5967C93.5858 32.9598 93.6755 33.3007 93.8165 33.6188C93.9558 33.9334 94.148 34.2289 94.3987 34.4984C94.5909 34.7151 94.8198 34.9156 95.0852 35.0999L94.7597 35.2441C94.4808 35.0789 94.239 34.8885 94.0342 34.673C93.7831 34.4124 93.5873 34.1185 93.4414 33.7894C93.294 33.4566 93.2063 33.1105 93.1835 32.753C93.1583 32.4492 93.1798 32.1422 93.2464 31.8283Z" fill="white"/>
<path d="M95.7821 31.1104C96.0279 30.9939 96.2664 30.9648 96.494 31.034C96.718 31.1049 96.8849 31.2515 96.9929 31.4792C97.0992 31.7033 97.1084 31.9468 97.0296 32.2099C96.9781 32.3628 96.8661 32.5841 96.6918 32.8792C96.5009 33.1955 96.4118 33.437 96.4244 33.6037L97.7147 32.9918L97.8792 33.3388L96.101 34.182C95.9793 33.9254 95.9562 33.6619 96.0371 33.3845C96.078 33.2279 96.1994 32.9799 96.3962 32.6387C96.5114 32.4335 96.588 32.2777 96.6243 32.1675C96.6782 31.9826 96.6728 31.8125 96.6008 31.6607C96.5323 31.5161 96.4411 31.4265 96.3273 31.392C96.2135 31.3574 96.0771 31.3778 95.9253 31.4498C95.7627 31.5269 95.6655 31.6394 95.6355 31.7909C95.6002 31.9404 95.6305 32.1164 95.7227 32.3294L95.3288 32.5163C95.1953 32.2254 95.1687 31.9547 95.2491 31.7041C95.3262 31.4373 95.5074 31.2407 95.7821 31.1104Z" fill="white"/>
<path d="M98.145 29.9627C98.4446 29.8107 98.7398 29.8178 99.0324 29.9878C99.3017 30.1472 99.5359 30.4231 99.7369 30.819C99.936 31.2114 100.022 31.5668 99.9919 31.8783C99.9546 32.2112 99.7879 32.4573 99.4883 32.6094C99.1886 32.7614 98.8916 32.7507 98.6008 32.5843C98.3315 32.4249 98.0973 32.149 97.8964 31.7531C97.6936 31.3536 97.6092 31.0017 97.6413 30.6938C97.6769 30.3573 97.8454 30.1148 98.145 29.9627ZM98.3115 30.2909C98.1011 30.3977 98.0128 30.5861 98.0449 30.8614C98.0603 31.0509 98.1422 31.283 98.2816 31.5576C98.4192 31.8287 98.5581 32.0318 98.7038 32.1597C98.9053 32.3445 99.1113 32.388 99.3217 32.2812C99.5286 32.1762 99.6187 31.9825 99.5884 31.7108C99.5676 31.5195 99.4892 31.2856 99.3517 31.0145C99.2123 30.7399 99.0697 30.5386 98.9294 30.4124C98.7262 30.224 98.5184 30.1859 98.3115 30.2909Z" fill="white"/>
<path d="M100.944 28.5057C101.183 28.3759 101.42 28.334 101.651 28.3907C101.879 28.4492 102.053 28.5866 102.173 28.8081C102.292 29.026 102.314 29.2687 102.25 29.5357C102.207 29.6911 102.107 29.9182 101.949 30.2224C101.775 30.5486 101.7 30.7946 101.721 30.9603L102.976 30.2792L103.16 30.6167L101.43 31.5554C101.294 31.3058 101.257 31.044 101.323 30.7625C101.355 30.6039 101.463 30.3497 101.641 29.9983C101.745 29.7872 101.813 29.6274 101.843 29.5154C101.887 29.3278 101.872 29.1583 101.792 29.0106C101.716 28.87 101.62 28.7855 101.504 28.7572C101.389 28.7288 101.253 28.7566 101.106 28.8368C100.948 28.9226 100.857 29.0402 100.835 29.1931C100.808 29.3444 100.848 29.5184 100.951 29.7261L100.568 29.9341C100.419 29.651 100.378 29.3821 100.444 29.1275C100.507 28.8569 100.677 28.6507 100.944 28.5057Z" fill="white"/>
<path d="M103.575 27.0444C103.866 26.8765 104.161 26.8679 104.462 27.022C104.74 27.1667 104.988 27.4297 105.21 27.8143C105.43 28.1954 105.535 28.5458 105.521 28.8584C105.502 29.1929 105.349 29.4475 105.058 29.6154C104.767 29.7833 104.469 29.7884 104.17 29.6378C103.893 29.493 103.644 29.2301 103.422 28.8455C103.198 28.4574 103.095 28.1105 103.111 27.8014C103.128 27.4634 103.284 27.2122 103.575 27.0444ZM103.759 27.3631C103.554 27.4811 103.476 27.6739 103.523 27.9471C103.548 28.1355 103.643 28.3628 103.796 28.6296C103.948 28.893 104.098 29.0884 104.25 29.2083C104.461 29.3821 104.669 29.4145 104.874 29.2966C105.075 29.1807 105.154 28.9824 105.11 28.7127C105.079 28.5228 104.988 28.2935 104.836 28.0301C104.682 27.7633 104.529 27.5699 104.382 27.4514C104.169 27.2742 103.96 27.2472 103.759 27.3631Z" fill="white"/>
<path d="M106.177 27.5014L107.902 26.4499L108.085 26.7504L106.36 27.802L106.177 27.5014Z" fill="white"/>
<path d="M108.649 23.9725C108.878 23.8256 109.111 23.7664 109.345 23.8061C109.576 23.8478 109.761 23.972 109.897 24.1841C110.031 24.3928 110.071 24.6332 110.026 24.9043C109.994 25.0624 109.911 25.2962 109.776 25.6111C109.627 25.9491 109.569 26.2 109.603 26.3637L110.805 25.5926L111.012 25.9158L109.356 26.9785C109.203 26.7395 109.146 26.4811 109.191 26.1956C109.212 26.0351 109.301 25.7737 109.452 25.4102C109.54 25.192 109.597 25.0277 109.619 24.9138C109.649 24.7234 109.622 24.5554 109.531 24.414C109.444 24.2794 109.343 24.2021 109.225 24.1823C109.108 24.1625 108.975 24.2001 108.834 24.2908C108.682 24.388 108.6 24.512 108.59 24.666C108.574 24.8189 108.626 24.9896 108.745 25.1891L108.378 25.4246C108.209 25.1531 108.148 24.8879 108.196 24.6291C108.238 24.3547 108.393 24.1366 108.649 23.9725Z" fill="white"/>
<path d="M110.968 22.4585C111.247 22.271 111.541 22.2421 111.852 22.3751C112.139 22.5004 112.405 22.7456 112.653 23.114C112.898 23.4791 113.027 23.8214 113.035 24.1342C113.039 24.4693 112.903 24.7338 112.624 24.9214C112.346 25.1089 112.05 25.1345 111.741 25.0048C111.454 24.8795 111.188 24.6343 110.94 24.2658C110.69 23.8941 110.563 23.5551 110.558 23.2456C110.552 22.9073 110.689 22.646 110.968 22.4585ZM111.174 22.7639C110.978 22.8956 110.913 23.0933 110.978 23.3626C111.017 23.5489 111.127 23.7692 111.298 24.0248C111.468 24.277 111.631 24.4616 111.791 24.5708C112.014 24.7297 112.223 24.7477 112.419 24.616C112.612 24.4865 112.677 24.2832 112.614 24.0172C112.57 23.8299 112.464 23.6074 112.294 23.3551C112.122 23.0995 111.956 22.9171 111.802 22.809C111.577 22.6469 111.366 22.6344 111.174 22.7639Z" fill="white"/>
<path d="M113.592 20.661C113.814 20.5043 114.044 20.4351 114.28 20.4644C114.513 20.4961 114.703 20.6121 114.848 20.8181C114.991 21.0208 115.041 21.2592 115.008 21.5319C114.984 21.6913 114.911 21.9284 114.79 22.249C114.655 22.5932 114.609 22.8463 114.65 23.0084L115.817 22.1856L116.038 22.4995L114.429 23.6334C114.266 23.4013 114.198 23.1456 114.231 22.8584C114.244 22.6971 114.322 22.4321 114.457 22.0623C114.536 21.8405 114.585 21.6739 114.602 21.5592C114.624 21.3677 114.589 21.201 114.492 21.0637C114.4 20.933 114.295 20.8602 114.177 20.8455C114.059 20.8309 113.928 20.8742 113.791 20.971C113.644 21.0747 113.567 21.2021 113.563 21.3565C113.554 21.5099 113.614 21.6781 113.741 21.8723L113.385 22.1236C113.204 21.8597 113.131 21.5975 113.168 21.3368C113.198 21.0608 113.343 20.8362 113.592 20.661Z" fill="white"/>
<path d="M116.027 18.9144C116.246 18.7531 116.474 18.6791 116.711 18.7036C116.944 18.7305 117.136 18.8426 117.286 19.0455C117.433 19.2452 117.488 19.4825 117.461 19.7559C117.44 19.9157 117.372 20.1543 117.257 20.4773C117.13 20.8242 117.088 21.0782 117.133 21.2394L118.283 20.3927L118.51 20.702L116.926 21.8688C116.757 21.6401 116.684 21.3859 116.711 21.0981C116.721 20.9366 116.793 20.67 116.921 20.2975C116.995 20.0742 117.04 19.9066 117.055 19.7915C117.073 19.5996 117.035 19.4337 116.935 19.2984C116.841 19.1696 116.734 19.099 116.616 19.0868C116.497 19.0746 116.367 19.1206 116.232 19.2202C116.087 19.3269 116.013 19.4559 116.013 19.6103C116.006 19.7639 116.07 19.9308 116.201 20.1224L115.85 20.3809C115.663 20.1208 115.586 19.8601 115.617 19.5988C115.642 19.3222 115.782 19.0946 116.027 18.9144Z" fill="white"/>
<path d="M118.303 17.7391C118.341 18.0634 118.318 18.3742 118.236 18.6801L117.838 18.5831C117.971 18.1012 117.939 17.6208 117.739 17.1387L118.093 16.9563C118.145 17.0884 118.189 17.211 118.224 17.3354L120.15 15.8501L120.375 16.1415L119.402 16.8914L119.739 17.3285L120.601 16.6641L120.818 16.946L119.957 17.6104L120.431 18.2249L121.501 17.3992L121.728 17.6938L120.658 18.5195L121.185 19.2036L120.885 19.4357L120.357 18.7515L118.919 19.8606L118.692 19.5661L119.189 19.1825L118.498 18.2862L119.438 17.5606L119.101 17.1235L118.303 17.7391ZM119.493 18.948L120.13 18.457L119.656 17.8425L119.019 18.3335L119.493 18.948Z" fill="white"/>
<path d="M120.301 15.1584L120.579 14.9355C120.885 15.0231 121.168 15.1451 121.429 15.3046C121.733 15.4915 122.003 15.7259 122.231 16.0097C122.456 16.2905 122.624 16.6019 122.744 16.9422C122.838 17.2256 122.896 17.5279 122.917 17.8489L122.64 18.0718C122.595 17.7539 122.522 17.4586 122.421 17.1857C122.294 16.8417 122.123 16.5328 121.907 16.2645C121.689 15.9932 121.425 15.7593 121.119 15.5637C120.872 15.4029 120.599 15.2678 120.301 15.1584Z" fill="white"/>
<path d="M122.327 13.5285L124.16 14.4313L124.722 16.3958L124.385 16.4904L123.866 14.6775L122.174 13.8442L122.327 13.5285Z" fill="white"/>
<path d="M126.402 10.9759L128.238 13.069L127.964 13.309L127.827 13.1526L127.352 13.5693L127.565 13.8129L127.292 14.0529L125.379 11.8726L125.665 11.622C125.577 11.4122 125.474 11.2098 125.345 11.0143L125.665 10.8029C125.78 10.9946 125.869 11.1876 125.939 11.382L126.402 10.9759ZM127.12 13.3047L127.595 12.8879L127.075 12.2955L126.6 12.7122L127.12 13.3047ZM126.376 12.4566L126.851 12.0399L126.366 11.4865L125.89 11.9032L126.376 12.4566ZM127.576 11.2229C127.991 11.2954 128.332 11.3744 128.6 11.4686L128.515 11.8258C128.226 11.7275 127.877 11.6451 127.471 11.5703L127.576 11.2229ZM127.956 9.61797C128.866 10.6555 129.413 11.3092 129.594 11.5762C129.754 11.8191 129.704 12.054 129.449 12.2781C129.389 12.3309 129.275 12.4198 129.117 12.5427L128.818 12.3417C128.956 12.2317 129.075 12.1375 129.172 12.0531C129.292 11.9476 129.306 11.8238 129.213 11.6816C129.099 11.5154 128.665 11.0023 127.919 10.1399L127.164 10.8019C127.239 11.0562 127.287 11.306 127.305 11.5566L126.936 11.4814C126.881 11.0186 126.711 10.5454 126.419 10.0671L126.733 9.85528C126.851 10.0501 126.946 10.2434 127.027 10.4329L127.956 9.61797Z" fill="white"/>
<path d="M128.182 8.57548C128.525 8.54685 128.837 8.54807 129.113 8.57618L129.095 8.95194C128.842 8.91343 128.531 8.90657 128.159 8.93406L128.182 8.57548ZM132.302 9.65006C132.141 9.79924 131.962 9.95904 131.771 10.1297C131.577 10.303 131.405 10.4292 131.254 10.5137C131.104 10.5869 130.936 10.6113 130.756 10.5927C130.668 10.5807 130.612 10.5897 130.576 10.6223C130.514 10.6792 130.531 10.9092 130.625 11.3121L130.243 11.3108C130.17 10.9371 130.164 10.6651 130.227 10.4978L129.46 9.66581L129.066 10.0293L128.827 9.77055L129.483 9.1657L130.508 10.277C130.534 10.2752 130.562 10.2763 130.593 10.2804C130.734 10.2974 130.858 10.2911 130.967 10.2615C131.093 10.2213 131.247 10.1284 131.426 9.97427C131.596 9.82261 131.796 9.64382 132.025 9.43226C132.169 9.29935 132.314 9.16079 132.458 9.02224C132.602 8.88368 132.711 8.77202 132.785 8.69291L132.973 9.03164L132.302 9.65006ZM129.632 7.77617L129.065 8.29965L128.85 8.0674L130.464 6.57832L130.646 6.77529C130.611 7.07961 130.543 7.37125 130.447 7.6561C130.458 7.65656 130.466 7.65407 130.478 7.65453L131.069 7.10935L132.273 8.41468C132.433 8.58813 132.417 8.76584 132.226 8.94214L132 9.15099L131.727 8.97298L131.946 8.79217C132.011 8.73249 132.017 8.66761 131.957 8.60293L131.819 8.45299L131.395 8.84357L131.84 9.32572L131.584 9.56169L131.139 9.07954L130.725 9.46198L131.175 9.95001L130.911 10.1941L129.446 8.60656L130.122 7.98272C129.965 8.00755 129.794 8.04029 129.614 8.08682L129.632 7.77617ZM130.154 7.68112C130.221 7.50546 130.27 7.32912 130.305 7.15504L129.647 7.76261C129.824 7.7301 129.992 7.70007 130.154 7.68112ZM130.326 9.02981L130.516 9.23561L130.931 8.85317L130.741 8.64737L130.326 9.02981ZM130.996 8.4114L131.186 8.61719L131.61 8.22662L131.42 8.02082L130.996 8.4114ZM131.208 7.79151L131.018 7.58571L130.595 7.97629L130.785 8.18208L131.208 7.79151ZM130.529 8.41806L130.339 8.21226L129.925 8.5947L130.115 8.8005L130.529 8.41806Z" fill="white"/>
<path d="M133.711 3.81819L135.887 6.05415L135.624 6.3108L135.465 6.1474L134.963 6.63561L135.125 6.80187L134.861 7.05852L132.682 4.8197L133.711 3.81819ZM134.715 6.38048L135.216 5.89228L133.696 4.32997L133.194 4.81818L134.715 6.38048ZM131.985 6.16234C132.059 6.36983 132.113 6.57423 132.149 6.77274L131.764 6.85236C131.685 6.40435 131.535 5.9865 131.311 5.60158L131.636 5.39668C131.714 5.53351 131.777 5.66732 131.837 5.79826L132.62 5.03666L132.874 5.29753L132.484 5.67693C132.651 5.86024 132.804 6.03487 132.935 6.20354L133.382 5.76834L133.636 6.0292L133.152 6.50067C133.202 6.57489 133.249 6.6519 133.293 6.7204C133.641 6.72795 134.011 6.75279 134.406 6.7921L134.486 7.20617C134.063 7.12687 133.721 7.07414 133.461 7.04798C133.634 7.46614 133.678 7.91934 133.587 8.41029L133.197 8.36539C133.28 7.85453 133.213 7.39537 132.995 6.98225C132.954 6.91662 132.912 6.84534 132.868 6.77685L132.303 7.32642L132.049 7.06556L132.654 6.47693C132.524 6.30826 132.37 6.13363 132.203 5.95032L131.985 6.16234Z" fill="white"/>
<path d="M133.903 3.03095L135.82 3.73707L136.585 5.63195L136.258 5.76141L135.553 4.01272L133.783 3.36091L133.903 3.03095ZM134.379 2.53994L136.296 3.24606L137.061 5.14094L136.735 5.2704L136.029 3.52172L134.248 2.88139L134.379 2.53994Z" fill="white"/>
</svg>
