<svg width="56" height="7" viewBox="0 0 56 7" fill="none" xmlns="http://www.w3.org/2000/svg">
<path d="M5.84566 1.13497L6.20515 1.28993L5.42358 3.00417L6.178 4.71396L5.83349 4.87096L5.01158 3.00537L5.84566 1.13497ZM6.54166 1.13296L6.88515 1.28796L6.11958 3.00215L6.87399 4.71194L6.52949 4.86894L5.70758 3.00335L6.54166 1.13296ZM8.79689 1.35841L10.7649 1.3527L10.7635 1.7647L8.79555 1.77041L8.79689 1.35841ZM8.69766 2.35068L10.9337 2.34419L10.9323 2.75619L10.3163 2.75798L10.3109 4.43397C10.31 4.69797 10.1616 4.8304 9.86556 4.83126L9.28557 4.83294L9.1949 4.42521C9.37884 4.44067 9.5548 4.45216 9.7228 4.45168C9.8308 4.45136 9.88693 4.4112 9.88719 4.3312L9.89232 2.75921L8.69632 2.76268L8.69766 2.35068ZM8.10151 1.17243L8.48092 1.35133C8.2675 1.78794 7.90221 2.18499 7.38506 2.54249L7.25842 2.12286C7.6353 1.85377 7.91633 1.53696 8.10151 1.17243ZM8.28651 2.09188L8.66194 2.26679C8.55726 2.47509 8.42461 2.67547 8.26398 2.86793L8.25752 4.85192L7.84552 4.85312L7.85064 3.28113C7.71428 3.39352 7.56591 3.50595 7.41356 3.61439L7.28691 3.20276C7.73592 2.88946 8.06913 2.5165 8.28651 2.09188ZM11.4568 1.37869L12.9608 1.37433L12.9595 1.77033L11.4555 1.77469L11.4568 1.37869ZM11.3053 2.45511L13.1013 2.4499L13.0999 2.8579L12.204 2.8605C12.0703 3.38088 11.953 3.76522 11.8522 4.0215C12.1044 3.96477 12.3526 3.88805 12.5969 3.79935C12.5095 3.6076 12.4221 3.43186 12.3346 3.26412L12.6832 3.09511C12.8581 3.42259 13.0329 3.78608 13.1996 4.18559C13.4691 3.72082 13.6071 3.10443 13.6176 2.34441L13.6177 2.31241L13.1257 2.31383L13.127 1.91384L13.619 1.91241L13.6215 1.14441L14.0375 1.14321L14.035 1.9112L14.895 1.90871C14.8907 3.2287 14.8681 4.04475 14.831 4.35686C14.7821 4.65299 14.5736 4.8016 14.2056 4.80266C14.1416 4.80285 14.0336 4.79516 13.8737 4.78363L13.7789 4.41991C13.9188 4.4275 14.0388 4.43515 14.1428 4.43485C14.3108 4.43437 14.4071 4.34609 14.4397 4.17C14.4642 3.98993 14.4783 3.36989 14.4897 2.30988L14.0337 2.3112L14.0336 2.3432C14.0179 3.49123 13.7391 4.33203 13.1934 4.8656L12.8783 4.59052C12.9947 4.47818 13.0951 4.34989 13.1835 4.20964L12.839 4.38664C12.8073 4.29873 12.7755 4.21882 12.7438 4.14292C12.3233 4.28813 11.8709 4.40144 11.3907 4.49084L11.2959 4.09912C11.336 4.087 11.364 4.07492 11.38 4.06287C11.4845 3.91057 11.6258 3.51017 11.8 2.86167L11.304 2.86311L11.3053 2.45511ZM16.9154 1.79485L15.5874 1.7987L15.5887 1.3987L18.6727 1.38975L18.6714 1.78975L17.3394 1.79362L17.3316 4.1856L18.9076 4.18103L18.9062 4.58503L15.3263 4.59542L15.3276 4.19142L16.9076 4.18683L16.9154 1.79485ZM21.1145 2.04266C20.9292 2.42719 20.7242 2.75578 20.4993 3.02843L20.2005 2.6693C20.5217 2.29238 20.8034 1.76357 21.0457 1.07487L21.4693 1.16964C21.4128 1.3298 21.3563 1.48197 21.2998 1.63013L22.9118 1.62545L22.9105 2.03745L21.6545 2.04109L21.6528 2.57309L22.7568 2.56989L22.7554 2.97789L21.6514 2.98109L21.6496 3.52909L22.7536 3.52588L22.7523 3.92988L21.6483 3.93308L21.6454 4.82508L21.2214 4.82631L21.2305 2.04232L21.1145 2.04266ZM19.7122 2.73872C19.6038 2.86703 19.4914 2.99136 19.371 3.1117L19.2325 2.66411C19.6379 2.21894 19.9396 1.69407 20.1376 1.09351L20.533 1.27636C20.432 1.57665 20.2991 1.86503 20.1382 2.13749L20.1294 4.82948L19.7054 4.83071L19.7122 2.73872ZM23.3422 2.1242L23.7782 2.12293L23.7815 1.12294L24.1975 1.12173L24.1942 2.12172L24.6222 2.12048L24.6209 2.52848L24.1929 2.52972L24.1891 3.69371C24.3533 3.62924 24.5135 3.56478 24.6737 3.49231L24.6723 3.91631C24.2638 4.09349 23.8313 4.24274 23.3749 4.36407L23.2723 3.94037C23.4404 3.90788 23.6085 3.8714 23.7726 3.82692L23.7769 2.53093L23.3409 2.53219L23.3422 2.1242ZM25.1743 2.08288L24.6903 2.08428L24.6916 1.68029L25.6316 1.67756C25.5682 1.48575 25.5008 1.30594 25.4254 1.13817L25.8776 1.06485C25.945 1.24466 26.0084 1.44847 26.0716 1.67628L26.9156 1.67383L26.9143 2.07783L25.5863 2.08168L25.5856 2.30568C25.5852 2.42168 25.5808 2.53369 25.5725 2.64572L26.7565 2.64228C26.7373 3.61432 26.6953 4.22244 26.6305 4.46262C26.5499 4.66285 26.3776 4.76335 26.1055 4.76814C25.9695 4.76853 25.8096 4.761 25.6296 4.74952L25.5108 4.38987C25.7267 4.40124 25.9107 4.40871 26.0587 4.40828C26.1787 4.40393 26.2549 4.34371 26.2913 4.22761C26.3158 4.08354 26.3291 3.68751 26.3392 3.03949L25.5312 3.04183C25.4247 3.80613 25.1588 4.39089 24.7335 4.79612L24.4064 4.50907C24.9039 4.05164 25.1623 3.3149 25.1736 2.30688L25.1743 2.08288ZM28.9096 1.07206L29.3415 1.0708L29.3393 1.7548L30.7593 1.75068L30.753 3.70267L30.333 3.70389L30.3337 3.48389L29.3337 3.48679L29.3293 4.82278L28.8973 4.82404L28.9017 3.48804L27.9057 3.49093L27.905 3.71093L27.485 3.71215L27.4913 1.76016L28.9073 1.75605L28.9096 1.07206ZM27.907 3.08294L28.903 3.08005L28.906 2.16405L27.91 2.16694L27.907 3.08294ZM29.335 3.07879L30.335 3.07589L30.338 2.1599L29.338 2.1628L29.335 3.07879ZM32.7914 1.72878L32.7822 4.53277L32.3822 4.53393L32.3829 4.33393L31.7909 4.33565L31.7898 4.65165L31.3898 4.65281L31.3994 1.73282L31.7834 1.73171C31.8561 1.5195 31.9088 1.29935 31.9415 1.07126L32.3613 1.12604C32.3166 1.34217 32.256 1.54634 32.1834 1.73055L32.7914 1.72878ZM31.7921 3.95165L32.3841 3.94993L32.3866 3.19394L31.7946 3.19566L31.7921 3.95165ZM31.7958 2.82366L32.3878 2.82194L32.3901 2.12194L31.7981 2.12366L31.7958 2.82366ZM33.5162 2.69867C33.7711 3.02192 33.9662 3.30535 34.1054 3.55295L33.7686 3.78592C33.6215 3.52235 33.4225 3.23093 33.1755 2.91165L33.5162 2.69867ZM34.8513 1.72281C34.8468 3.1228 34.824 3.98685 34.7829 4.31497C34.742 4.59508 34.5495 4.73564 34.2055 4.73664C34.1255 4.73687 33.9816 4.72929 33.7736 4.71389L33.6749 4.33418C33.8508 4.34567 34.0068 4.35322 34.1388 4.35284C34.2828 4.35242 34.367 4.27218 34.3916 4.11611C34.4162 3.92404 34.4303 3.26401 34.442 2.13199L33.474 2.1348C33.3652 2.37511 33.2365 2.59148 33.0879 2.78391L32.837 2.45264C33.1022 2.07588 33.2797 1.61137 33.3775 1.06309L33.7893 1.1139C33.7486 1.33001 33.696 1.53416 33.6354 1.72634L34.8513 1.72281ZM35.8133 1.12403C36.0687 1.31528 36.284 1.50665 36.4594 1.69814L36.1745 1.98697C36.0191 1.80342 35.8037 1.60405 35.5284 1.39685L35.8133 1.12403ZM35.2776 2.26156L36.2016 2.25888L36.1962 3.91887C36.3125 3.81454 36.4369 3.70218 36.5693 3.5778L36.6838 4.01746C36.4191 4.25822 36.1384 4.47103 35.8418 4.66389L35.683 4.28836C35.7512 4.22816 35.7874 4.15206 35.7877 4.06406L35.7923 2.66006L35.2763 2.66156L35.2776 2.26156ZM36.708 2.73741L38.66 2.73174L38.6588 3.11174C38.5457 3.45606 38.3607 3.7566 38.1039 4.00934C38.3513 4.16862 38.6509 4.30775 39.0065 4.43071L38.7813 4.79136C38.3898 4.6325 38.0584 4.45746 37.795 4.26223C37.4823 4.48313 37.1017 4.66024 36.6453 4.79356L36.4145 4.44223C36.8269 4.32104 37.1753 4.16803 37.4639 3.98319C37.2088 3.72794 37.0297 3.44846 36.9347 3.13674L36.7067 3.1374L36.708 2.73741ZM37.3267 3.13561C37.414 3.36335 37.5573 3.57093 37.7647 3.75433C37.9693 3.56973 38.126 3.36528 38.2387 3.13296L37.3267 3.13561ZM36.9851 1.18863L38.4251 1.18445L38.4224 2.01244C38.4221 2.10044 38.4699 2.1483 38.5699 2.14801L38.9139 2.14701L38.9127 2.52701L38.4567 2.52834C38.1567 2.52921 38.0091 2.38964 38.01 2.10964L38.0118 1.57764L37.3958 1.57943L37.3954 1.68743C37.3941 2.10342 37.177 2.42805 36.7523 2.65328L36.4733 2.33409C36.8098 2.19312 36.9824 1.99262 36.9833 1.73262L36.9851 1.18863ZM40.5377 2.2103L41.5697 2.20731L41.5735 1.04731L42.0055 1.04606L42.0017 2.20605L42.9817 2.20321L42.9803 2.61921L42.0003 2.62205L41.9933 4.76604L41.5613 4.76729L41.5683 2.62331L40.5363 2.6263L40.5377 2.2103ZM39.8374 1.08435C40.0887 1.27962 40.3041 1.47499 40.4835 1.66647L40.1945 1.9593C40.0431 1.77574 39.8237 1.58038 39.5404 1.37321L39.8374 1.08435ZM39.2776 2.24196L40.2296 2.2392L40.2241 3.91119C40.3405 3.81085 40.4648 3.69849 40.5972 3.57411L40.7038 4.00179C40.4431 4.24255 40.1664 4.45935 39.8697 4.6522L39.711 4.27667C39.7832 4.21646 39.8194 4.14436 39.8197 4.06036L39.8243 2.64037L39.2763 2.64196L39.2776 2.24196ZM43.3804 1.37007L45.1164 1.36503L45.115 1.77303L44.547 1.77468L44.5447 2.50667L44.9487 2.5055L44.948 2.7215C45.1975 2.25278 45.3673 1.6923 45.4614 1.03603L45.8733 1.08284C45.8406 1.27893 45.804 1.46703 45.7595 1.64316L46.9155 1.63981L46.9141 2.0478L46.6581 2.04855C46.6241 2.66864 46.4784 3.19705 46.217 3.6378C46.4399 3.95715 46.7031 4.20838 47.0065 4.3875L46.7653 4.7442C46.458 4.55709 46.1908 4.30187 45.9678 3.98252C45.6948 4.29931 45.35 4.55631 44.9293 4.75352L44.6745 4.41027C45.1271 4.21696 45.4839 3.95593 45.741 3.62318C45.5939 3.35962 45.4668 3.06399 45.3639 2.73629C45.2834 2.88852 45.1989 3.03277 45.1105 3.16902L44.9034 2.89763L44.5434 2.89867L44.5405 3.77467C44.7247 3.71813 44.9049 3.66161 45.0731 3.60512L45.0718 3.98912C44.5793 4.16655 44.0107 4.33219 43.3662 4.48206L43.2555 4.09839L43.4836 4.04973L43.4895 2.24174L43.8775 2.24061L43.8719 3.9566C43.964 3.93234 44.0521 3.91208 44.1362 3.88784L44.143 1.77585L43.3791 1.77806L43.3804 1.37007ZM45.9742 3.24251C46.1434 2.89003 46.2367 2.49376 46.2541 2.04972L45.6421 2.05149C45.6219 2.11555 45.6017 2.17561 45.5815 2.23167C45.6883 2.61135 45.8192 2.94697 45.9742 3.24251ZM47.3337 2.19058L48.9096 2.18601L48.9104 1.96201L49.2904 1.96091L49.0629 1.81357C49.2357 1.55708 49.3566 1.28873 49.4295 1.00052L49.8292 1.08736C49.805 1.16743 49.7807 1.2475 49.7565 1.31957L50.8845 1.3163L50.8833 1.68429L50.2273 1.6862C50.2989 1.79799 50.3585 1.90581 50.4062 2.00567L50.0418 2.14673C49.9703 1.98694 49.8908 1.83517 49.8033 1.68743L49.6113 1.68798C49.5508 1.81616 49.4865 1.93234 49.4141 2.04055L49.3343 1.98878L49.3336 2.18478L50.9096 2.18021L50.9084 2.55621L49.3324 2.56078L49.3318 2.76078L50.6438 2.75697L50.6412 3.54097C50.6405 3.77297 50.5121 3.88934 50.2601 3.89007L50.0161 3.89078C50.3036 4.04594 50.6311 4.17699 50.9948 4.28793L50.7735 4.66857C50.2142 4.46219 49.7351 4.17959 49.3283 3.82877L49.3253 4.74877L48.9013 4.75L48.9042 3.846C48.5111 4.20714 48.0661 4.49243 47.5735 4.69785L47.3267 4.32657C47.9394 4.1128 48.4643 3.81528 48.9056 3.43001L48.9066 3.12601L48.0746 3.12842L48.0721 3.88042L47.6601 3.88161L47.6638 2.76562L48.9078 2.76201L48.9084 2.56201L47.3324 2.56658L47.3337 2.19058ZM49.3296 3.43678C49.521 3.59622 49.7366 3.74359 49.9841 3.87487L49.8853 3.52316L50.1452 3.54241C50.1972 3.54226 50.2253 3.51018 50.2255 3.45418L50.2266 3.12218L49.3306 3.12478L49.3296 3.43678ZM47.9273 1.69287C47.8428 1.82911 47.7504 1.95738 47.65 2.07767L47.2908 1.85071C47.5316 1.58602 47.7045 1.30152 47.8055 1.00123L48.2052 1.08807C48.177 1.16815 48.1447 1.24825 48.1125 1.32434L49.0405 1.32165L49.0393 1.68964L48.4873 1.69124C48.5589 1.80304 48.6225 1.91085 48.6742 2.0147L48.2978 2.15579C48.2263 1.996 48.1468 1.84023 48.0593 1.69249L47.9273 1.69287ZM51.7095 1.00191L52.5314 2.86749L51.6973 4.73789L51.3538 4.58288L52.1194 2.86869L51.365 1.1589L51.7095 1.00191ZM52.4055 0.999887L53.2274 2.86547L52.3933 4.73587L52.0498 4.58087L52.8154 2.86667L52.045 1.15693L52.4055 0.999887Z" fill="white"/>
<g clip-path="url(#clip0_250_2711)">
<path d="M0 3.31178H4V5.31178H0V3.31178Z" fill="#00A1DE"/>
<path d="M0 1.31178H4V3.31178H0V1.31178Z" fill="#ED2939"/>
<path d="M0 2.64537H4V3.97818H0V2.64537Z" fill="white"/>
</g>
<defs>
<clipPath id="clip0_250_2711">
<rect y="1.31178" width="4" height="4" rx="2" fill="white"/>
</clipPath>
</defs>
</svg>
