<svg width="100" height="13" viewBox="0 0 100 13" fill="none" xmlns="http://www.w3.org/2000/svg">
<path d="M6.00543 5.46193L6.38441 5.56347L5.86775 7.37073L6.8705 8.95283L6.55308 9.15757L5.4602 7.43112L6.00543 5.46193ZM6.69392 5.3599L7.05707 5.46379L6.55623 7.26871L7.55898 8.85081L7.24156 9.05555L6.14868 7.3291L6.69392 5.3599Z" fill="white"/>
<path d="M8.06977 5.61913L8.53306 5.55292L8.93713 8.38019L8.47384 8.4464L8.06977 5.61913Z" fill="white"/>
<path d="M10.7634 5.1827C11.0962 5.13664 11.3856 5.18541 11.6237 5.33014C11.8528 5.46803 12.0074 5.68084 12.0905 5.96008L11.6388 6.02261C11.5655 5.84296 11.4597 5.72031 11.3168 5.65124C11.178 5.58162 11.0101 5.56449 10.8119 5.59191C10.5148 5.63304 10.3066 5.76281 10.1846 5.98969C10.0711 6.19115 10.0388 6.45405 10.0838 6.77895C10.1299 7.11178 10.2329 7.36 10.3923 7.51965C10.5652 7.68955 10.8087 7.7568 11.1178 7.71402C11.3199 7.68605 11.4791 7.6115 11.5928 7.49886C11.7127 7.37323 11.7853 7.19762 11.8111 6.97598L12.2628 6.91346C12.2455 7.25506 12.1346 7.5329 11.9266 7.75148C11.7328 7.95598 11.4833 8.07935 11.1782 8.12158C10.7067 8.18684 10.3333 8.08509 10.0629 7.82369C9.82569 7.59808 9.67947 7.27104 9.62024 6.84312C9.5621 6.42313 9.61741 6.06415 9.79121 5.77358C9.98726 5.43954 10.3117 5.24523 10.7634 5.1827Z" fill="white"/>
<path d="M12.6739 4.97637L14.9936 4.66887L15.0462 5.0654L14.1183 5.1884L14.441 7.6231L13.9771 7.6846L13.6544 5.2499L12.7265 5.3729L12.6739 4.97637Z" fill="white"/>
<path d="M16.0161 4.157C16.294 4.31566 16.5322 4.4793 16.7307 4.64791L16.4848 4.969C16.3071 4.80584 16.0679 4.63427 15.7682 4.46222L16.0161 4.157ZM15.6296 5.35036L16.5464 5.23541L16.7529 6.88251C16.8551 6.76489 16.9642 6.63833 17.0797 6.49887L17.2496 6.92102C17.0175 7.192 16.766 7.43719 16.4962 7.66452L16.2907 7.31135C16.3507 7.24336 16.3769 7.16347 16.366 7.07615L16.1913 5.68306L15.6793 5.74725L15.6296 5.35036ZM17.1102 5.64848L19.047 5.40563L19.0943 5.78268C19.0259 6.13794 18.8807 6.4585 18.658 6.74039C18.924 6.8683 19.2391 6.96989 19.6078 7.04864L19.4303 7.43371C19.0214 7.32372 18.6701 7.19039 18.3838 7.02875C18.1016 7.28586 17.7464 7.50777 17.3104 7.69547L17.0364 7.37507C17.4303 7.20475 17.7567 7.01063 18.0195 6.79223C17.7337 6.57007 17.5202 6.31464 17.3862 6.01701L17.1599 6.04537L17.1102 5.64848ZM17.7751 5.96824C17.8908 6.18352 18.0596 6.37199 18.2888 6.52868C18.4684 6.32073 18.5978 6.09891 18.68 5.85478L17.7751 5.96824ZM17.1875 4.07867L18.6163 3.89952L18.7193 4.72109C18.7302 4.8084 18.7838 4.85006 18.8831 4.83762L19.2244 4.79482L19.2717 5.17187L18.8192 5.2286C18.5215 5.26592 18.3573 5.14542 18.3224 4.8676L18.2563 4.33973L17.645 4.41636L17.6585 4.52353C17.7102 4.93629 17.5362 5.28465 17.1434 5.55966L16.8257 5.27698C17.1417 5.09626 17.2875 4.87642 17.2551 4.61844L17.1875 4.07867Z" fill="white"/>
<path d="M20.8134 4.67575L21.8385 4.55629L21.7042 3.40409L22.1333 3.35408L22.2675 4.50628L23.241 4.39284L23.2891 4.80605L22.3157 4.91949L22.5639 7.04907L22.1348 7.09908L21.8866 4.96949L20.8615 5.08896L20.8134 4.67575ZM19.9835 3.63683C20.2565 3.80234 20.4938 3.97202 20.6948 4.14189L20.4425 4.46527C20.2703 4.3001 20.029 4.13088 19.7229 3.95716L19.9835 3.63683ZM19.5651 4.84942L20.5107 4.73922L20.7042 6.39998C20.8079 6.28722 20.9181 6.16162 21.0349 6.02317L21.1917 6.4358C20.9612 6.70428 20.7121 6.95078 20.4403 7.17575L20.2378 6.8208C20.3024 6.75287 20.3298 6.67718 20.3201 6.59375L20.1557 5.18329L19.6114 5.24673L19.5651 4.84942Z" fill="white"/>
<path d="M24.4382 3.88836C24.5257 3.87904 24.6003 3.89925 24.6707 3.95612C24.7367 4.00942 24.7766 4.08161 24.7859 4.16911C24.7952 4.25662 24.771 4.3316 24.7177 4.39762C24.6604 4.46406 24.5922 4.5035 24.5047 4.51282C24.4172 4.52215 24.3383 4.49837 24.2722 4.44507C24.2062 4.39176 24.1708 4.32313 24.1614 4.23562C24.1521 4.14812 24.1719 4.06958 24.2252 4.00356C24.2781 3.93357 24.3507 3.89768 24.4382 3.88836ZM24.5933 5.34412C24.6808 5.3348 24.7553 5.35502 24.8258 5.41188C24.8918 5.46519 24.9316 5.53737 24.941 5.62488C24.9503 5.71238 24.9261 5.78737 24.8728 5.85338C24.8155 5.91982 24.7473 5.95927 24.6598 5.96859C24.5723 5.97791 24.4933 5.95414 24.4273 5.90083C24.3613 5.84752 24.3258 5.7789 24.3165 5.69139C24.3072 5.60388 24.327 5.52535 24.3803 5.45933C24.4332 5.38933 24.5058 5.35344 24.5933 5.34412Z" fill="white"/>
<path d="M27.9632 4.81675C27.8679 4.95445 27.7642 5.08892 27.6522 5.22018L27.4761 4.80706C27.7706 4.44138 27.9754 4.01997 28.0909 3.54683L28.474 3.68702C28.4331 3.84764 28.3799 4.00542 28.3183 4.15998L28.5334 6.40972L28.1193 6.44931L27.9632 4.81675ZM28.5302 3.77005L30.9671 3.5371L31.004 3.92333L30.7133 3.95112L30.8793 5.68721C30.9078 5.98585 30.7789 6.15086 30.5002 6.1775L29.8671 6.23803L29.739 5.86452C29.9476 5.86066 30.1438 5.85395 30.331 5.83606C30.4385 5.82578 30.4877 5.75276 30.4752 5.62136L30.3191 3.98881L28.5671 4.15629L28.5302 3.77005ZM28.7242 4.45469L30.0064 4.33212L30.1198 5.51872L28.8376 5.64128L28.7242 4.45469ZM29.7112 5.19613L29.6663 4.72627L29.1288 4.77766L29.1737 5.24752L29.7112 5.19613ZM27.4252 3.05596L28.2415 2.97793L28.2148 2.6992L28.617 2.66075L28.6437 2.93948L29.675 2.84089L29.6483 2.56217L30.0505 2.52372L30.0771 2.80245L30.8934 2.72442L30.9292 3.09871L30.1129 3.17674L30.1426 3.48733L29.7404 3.52577L29.7107 3.21519L28.6794 3.31378L28.7042 3.5726L28.302 3.61104L28.2773 3.35222L27.461 3.43025L27.4252 3.05596Z" fill="white"/>
<path d="M32.0965 4.33678L34.7595 4.11727L34.793 4.52389L32.13 4.7434L32.0965 4.33678ZM31.739 5.50208L35.3029 5.20831L35.3364 5.61493L31.7725 5.9087L31.739 5.50208ZM31.7098 3.29703L33.695 3.13339C33.8229 2.83387 33.9251 2.5164 34.0098 2.18031L34.4283 2.2903C34.3403 2.58653 34.2341 2.85616 34.1136 3.09888L34.9707 3.02823L35.0039 3.43087L31.743 3.69967L31.7098 3.29703ZM32.4866 2.35001C32.6382 2.53418 32.7879 2.74259 32.9351 2.97126L32.5799 3.18919C32.4322 2.95653 32.2746 2.74877 32.1114 2.56958L32.4866 2.35001Z" fill="white"/>
<path d="M35.9227 2.47568L36.3896 2.44231L36.5932 5.29103L36.1264 5.32441L35.9227 2.47568Z" fill="white"/>
<path d="M38.7637 2.22899C39.0991 2.2086 39.3839 2.27944 39.6102 2.44201C39.828 2.59707 39.9659 2.82112 40.0273 3.10591L39.5721 3.13359C39.5128 2.94885 39.4167 2.81844 39.2796 2.73862C39.1465 2.65855 38.9804 2.62858 38.7807 2.64072C38.4813 2.65893 38.2638 2.77234 38.1247 2.98918C37.9961 3.18134 37.9438 3.441 37.9637 3.76839C37.9841 4.10377 38.0677 4.35917 38.2144 4.53058C38.3738 4.71324 38.6114 4.79898 38.9229 4.78004C39.1265 4.76766 39.291 4.70555 39.4129 4.60196C39.5421 4.48591 39.628 4.31638 39.6708 4.09738L40.126 4.0697C40.0825 4.40897 39.9505 4.67747 39.7264 4.87945C39.5175 5.06848 39.2593 5.17234 38.9519 5.19104C38.4767 5.21993 38.1122 5.08982 37.8626 4.80845C37.6435 4.5653 37.5228 4.228 37.4965 3.7968C37.4708 3.37358 37.5535 3.01991 37.7491 2.74353C37.9702 2.42552 38.3086 2.25667 38.7637 2.22899Z" fill="white"/>
<path d="M40.5684 2.17798L42.9059 2.07014L42.9244 2.46971L41.9894 2.51285L42.1026 4.96624L41.6351 4.98781L41.5219 2.53442L40.5869 2.57756L40.5684 2.17798Z" fill="white"/>
<path d="M45.1236 1.77733L47.091 1.72848L47.1012 2.14035L45.1338 2.1892L45.1236 1.77733ZM45.0523 2.7714L47.2876 2.71591L47.2978 3.12778L46.682 3.14307L46.7236 4.81855C46.7301 5.08247 46.5855 5.2181 46.2896 5.22545L45.7097 5.23985L45.6076 4.83426C45.792 4.84568 45.9682 4.85331 46.1362 4.84914C46.2441 4.84646 46.2991 4.80508 46.2971 4.72511L46.2581 3.15359L45.0625 3.18328L45.0523 2.7714ZM44.4232 1.60666L44.8075 1.77717C44.6064 2.2183 44.2523 2.62321 43.7453 2.99191L43.607 2.57522C43.9762 2.29797 44.2483 1.97511 44.4232 1.60666ZM44.6339 2.52171L45.0142 2.68832C44.9154 2.89884 44.7884 3.10206 44.6332 3.29797L44.6825 5.28136L44.2706 5.29158L44.2316 3.72007C44.0984 3.83541 43.9532 3.95105 43.8039 4.06279L43.6658 3.65409C44.1059 3.33107 44.4285 2.95094 44.6339 2.52171Z" fill="white"/>
<path d="M48.7685 1.53865L49.1885 1.54145L49.1677 4.67338L49.6077 4.6763L49.6285 1.54437L50.0485 1.54717L50.0277 4.6791L51.1796 4.68677L51.1769 5.09476L47.601 5.07096L47.6037 4.66297L48.7477 4.67058L48.7685 1.53865ZM50.7515 2.30786L51.1187 2.41431C50.9622 3.09728 50.7662 3.69599 50.5308 4.20644L50.1557 4.07194C50.3828 3.60944 50.5787 3.01873 50.7515 2.30786ZM48.0476 2.27787C48.244 2.81119 48.42 3.42437 48.5714 4.1134L48.1908 4.20286C48.0589 3.57797 47.8949 2.97687 47.6908 2.3955L48.0476 2.27787Z" fill="white"/>
<path d="M52.4375 1.61661C52.6864 1.8178 52.8952 2.01754 53.0641 2.21582L52.7698 2.49329C52.6206 2.30373 52.4121 2.096 52.1438 1.87809L52.4375 1.61661ZM51.8645 2.73248L52.7879 2.76613L52.7275 4.42503C52.8472 4.32532 52.9752 4.21791 53.1116 4.0988L53.2115 4.54273C52.9389 4.77296 52.6514 4.97462 52.3486 5.15572L52.2024 4.77414C52.2725 4.71666 52.3113 4.64202 52.3145 4.55408L52.3656 3.15101L51.85 3.13222L51.8645 2.73248ZM53.2781 3.26431L55.2288 3.33538L55.215 3.71513C55.0905 4.05483 54.8957 4.34793 54.6307 4.59044C54.8727 4.75936 55.1674 4.91019 55.5187 5.04707L55.2817 5.39868C54.8958 5.22451 54.5704 5.03654 54.3137 4.83106C53.9939 5.03955 53.6078 5.2016 53.1473 5.31691L52.9282 4.95669C53.3443 4.85177 53.6976 4.71254 53.9921 4.53915C53.7456 4.274 53.576 3.98763 53.4914 3.67234L53.2635 3.66404L53.2781 3.26431ZM53.8831 3.68662C53.9628 3.91767 54.0991 4.13078 54.3003 4.32223C54.5108 4.14578 54.6741 3.94759 54.7945 3.71983L53.8831 3.68662ZM53.6063 1.72724L55.0453 1.77967L55.0152 2.60712C55.012 2.69506 55.0582 2.74478 55.1581 2.74842L55.5019 2.76095L55.4881 3.1407L55.0324 3.12409C54.7326 3.11317 54.5898 2.96787 54.6 2.68806L54.6193 2.15641L54.0037 2.13398L53.9998 2.24191C53.9847 2.65763 53.757 2.97355 53.3251 3.18197L53.057 2.85198C53.3978 2.72431 53.577 2.53071 53.5865 2.27088L53.6063 1.72724Z" fill="white"/>
<path d="M57.0113 2.9146L58.0416 2.97522L58.1097 1.81723L58.541 1.8426L58.4728 3.0006L59.4511 3.05817L59.4267 3.47345L58.4484 3.41588L58.3224 5.55618L57.8912 5.5308L58.0171 3.39051L56.9869 3.32988L57.0113 2.9146ZM56.3748 1.74719C56.6149 1.95766 56.819 2.16601 56.9874 2.36825L56.6827 2.64283C56.5418 2.45022 56.3337 2.24163 56.0624 2.01731L56.3748 1.74719ZM55.7519 2.86853L56.7022 2.92446L56.604 4.59357C56.7257 4.50056 56.856 4.39604 56.9951 4.28L57.0778 4.71361C56.8041 4.93792 56.5159 5.13734 56.2091 5.31162L56.0715 4.92687C56.1469 4.8712 56.1871 4.80144 56.192 4.71758L56.2754 3.30003L55.7284 3.26784L55.7519 2.86853Z" fill="white"/>
<path d="M60.05 2.07781L61.2424 2.17056L61.2182 2.48162C61.1001 2.81347 60.9645 3.16401 60.8118 3.52926C60.9664 3.91441 61.0412 4.2412 61.0361 4.51362C61.0212 4.70504 60.9745 4.84183 60.9001 4.9203C60.7804 5.0153 60.589 5.05257 60.3254 5.03608L60.2521 4.7415L60.1798 5.6707L59.773 5.63906L60.05 2.07781ZM60.262 4.61389C60.3331 4.62745 60.3963 4.64039 60.4442 4.64411C60.5166 4.64172 60.5694 4.63379 60.5952 4.61172C60.6209 4.58965 60.6363 4.54672 60.6413 4.48291C60.6621 4.21572 60.5856 3.90886 60.412 3.56235C60.5786 3.17411 60.7139 2.82755 60.8185 2.51472L60.4276 2.48432L60.262 4.61389ZM61.3574 3.68404C61.2637 3.80514 61.1667 3.91795 61.0657 4.03046L60.9636 3.58921C61.302 3.15816 61.5669 2.64114 61.7622 2.03848L62.1388 2.25232C62.0468 2.50596 61.9396 2.75037 61.8173 2.98158L61.5992 5.78512L61.1964 5.75379L61.3574 3.68404ZM61.9587 2.91636L62.8241 2.98367L62.8865 2.1821L63.3012 2.21436L63.2389 3.01594L63.5459 3.03982L63.5143 3.44659L63.2072 3.42271L63.0518 5.42067C63.0286 5.71977 62.8852 5.86107 62.626 5.84091L62.1833 5.80648L62.1186 5.40024C62.2529 5.42674 62.3839 5.44495 62.5115 5.45488C62.5913 5.46108 62.6358 5.40436 62.6451 5.28472L62.7925 3.39045L61.9271 3.32313L61.9587 2.91636ZM62.2468 3.70106C62.368 3.99936 62.4834 4.32128 62.5923 4.67479L62.2277 4.82296C62.1314 4.4624 62.0206 4.13282 61.8994 3.83452L62.2468 3.70106Z" fill="white"/>
<path d="M67.2711 3.11601L66.9843 6.19066L66.5781 6.15276L66.6007 5.90982L66.0233 5.85595L66.0006 6.09889L65.6023 6.06174L65.8891 2.98709L67.2711 3.11601ZM66.0604 5.45768L66.6379 5.51155L66.8281 3.4724L66.2506 3.41853L66.0604 5.45768ZM64.4501 2.3065L64.8643 2.34513L64.7934 3.10583L65.5859 3.17976C65.4626 4.50202 65.3665 5.31662 65.2977 5.62356C65.2308 5.91058 65.0179 6.03936 64.6674 6.00667C64.6037 6.00073 64.4969 5.98273 64.355 5.95342L64.2867 5.56541C64.4207 5.59397 64.5354 5.61271 64.635 5.622C64.7863 5.63611 64.8861 5.55704 64.9296 5.39237C64.9662 5.215 65.0357 4.5988 65.1418 3.5481L64.7555 3.51207C64.6238 4.66482 64.2822 5.48464 63.7378 5.98022L63.4492 5.67208C63.9275 5.23863 64.2248 4.50708 64.3413 3.47343L63.7518 3.41845L63.7897 3.01221L64.3792 3.06719L64.4501 2.3065Z" fill="white"/>
<path d="M69.9669 2.81924L70.3746 2.9191L70.3184 3.21883L71.2491 3.31822L71.2092 3.69209L70.2348 3.58803L70.1735 3.82285L70.9411 3.90483L70.7011 6.15205L71.0591 6.19028L71.0183 6.57211L68.3813 6.29051L68.4221 5.90868L68.8119 5.9503L69.0519 3.70308L69.7598 3.77868L69.8211 3.54386L68.8586 3.44107L68.8985 3.0672L69.9008 3.17423C69.9219 3.05178 69.9466 2.93374 69.9669 2.81924ZM69.2056 5.99235L70.3074 6.11L70.332 5.87931L69.2303 5.76166L69.2056 5.99235ZM69.2651 5.43552L70.3668 5.55317L70.3906 5.33043L69.2889 5.21278L69.2651 5.43552ZM69.3237 4.88664L70.4255 5.00429L70.4492 4.78156L69.3475 4.6639L69.3237 4.88664ZM69.3823 4.33776L70.4841 4.45541L70.5074 4.23665L69.4057 4.119L69.3823 4.33776ZM68.0601 4.21265C67.9326 4.3519 67.8012 4.49073 67.6586 4.62032L67.5709 4.16041C67.9765 3.75317 68.299 3.25661 68.5346 2.67031L68.8898 2.88524C68.7879 3.12377 68.6709 3.35265 68.5393 3.56789L68.2382 6.38786L67.8325 6.34453L68.0601 4.21265Z" fill="white"/>
<path d="M73.4656 3.89083L73.1337 6.67511L72.7365 6.62776L72.7602 6.42916L72.1723 6.35908L72.1349 6.67286L71.7377 6.62551L72.0834 3.72604L72.4647 3.7715C72.5613 3.56951 72.639 3.35722 72.6977 3.13461L73.1082 3.23993C73.0389 3.44921 72.9552 3.64467 72.8619 3.81885L73.4656 3.89083ZM72.2178 5.97778L72.8056 6.04786L72.8951 5.29718L72.3073 5.2271L72.2178 5.97778ZM72.3513 4.85771L72.9392 4.9278L73.022 4.23272L72.4342 4.16264L72.3513 4.85771ZM74.0734 4.94217C74.2893 5.2942 74.4503 5.59941 74.5599 5.86223L74.1988 6.05283C74.0831 5.77316 73.9191 5.45954 73.7107 5.11243L74.0734 4.94217ZM75.5111 4.13469C75.3454 5.52485 75.2233 6.3804 75.1447 6.70136C75.0719 6.97466 74.8646 7.09094 74.5231 7.05022C74.4436 7.04075 74.3016 7.01576 74.0969 6.97525L74.0426 6.58608C74.216 6.61883 74.3699 6.64524 74.501 6.66087C74.644 6.67792 74.7369 6.60842 74.7792 6.45636C74.8257 6.26855 74.9158 5.61461 75.0577 4.49152L74.0965 4.37693C73.9609 4.60246 73.8082 4.80179 73.6385 4.97491L73.4276 4.61542C73.7342 4.27331 73.9639 3.83341 74.1241 3.30063L74.5271 3.40104C74.4618 3.61078 74.386 3.80719 74.3037 3.99074L75.5111 4.13469Z" fill="white"/>
<path d="M77.7463 4.46249L78.0739 4.64211C77.8674 4.99045 77.6167 5.24431 77.3217 5.4037L77.0577 5.10728C77.3511 4.95979 77.5808 4.74353 77.7463 4.46249ZM78.5898 4.55171C78.8225 4.8723 79.0004 5.14947 79.1194 5.38271L78.7563 5.56957C78.6404 5.31253 78.476 5.025 78.2597 4.7025L78.5898 4.55171ZM75.9012 7.2443L75.5522 7.19904L75.5124 6.79053C75.6134 6.81977 75.7111 6.84453 75.8063 6.85688C75.8935 6.86819 75.9473 6.82676 75.9597 6.73156L76.0682 5.89457C75.9272 5.92468 75.7901 5.95531 75.6495 5.98145L75.5965 5.55105C75.7717 5.53747 75.9484 5.51199 76.1222 5.47806L76.223 4.70057L75.7986 4.64553L75.8495 4.25281L76.274 4.30786L76.3655 3.60177L76.7781 3.65527L76.6865 4.36135L76.9959 4.40148L76.945 4.79419L76.6356 4.75407L76.5553 5.37288C76.6607 5.33814 76.766 5.3034 76.8758 5.26521L76.8223 5.67775C76.713 5.71198 76.6077 5.74672 76.5023 5.78146L76.3588 6.8882C76.3238 7.15794 76.171 7.27928 75.9012 7.2443ZM79.3579 4.10276L79.2545 4.90008L78.8658 4.84967L78.9208 4.42523L77.5325 4.24518L77.4754 4.6855L77.0866 4.63508L77.1921 3.82189L79.3579 4.10276ZM77.4846 6.01372L76.8658 5.93347L76.9147 5.55662L77.8429 5.677L77.8928 5.29222L78.2855 5.34314L78.2356 5.72792L79.1718 5.84932L79.1229 6.22617L78.4922 6.14438C78.6107 6.47436 78.8286 6.78496 79.1458 7.07617L78.8408 7.37543C78.5132 6.978 78.3018 6.5553 78.1987 6.10631L78.1868 6.10477L78.0036 7.51694L77.6109 7.46602L77.794 6.05384L77.7782 6.05178C77.525 6.51104 77.1636 6.87156 76.702 7.13438L76.5376 6.75407C76.9398 6.57632 77.254 6.33068 77.4846 6.01372Z" fill="white"/>
<path d="M80.2444 4.36775L81.5319 4.5473L81.5689 4.28187L81.9889 4.34043L81.9519 4.60587L83.2394 4.78542L83.1875 5.15782L81.8999 4.97826L81.8657 5.22388L83.3632 5.43272L83.2527 6.22505L82.8486 6.1687L82.9094 5.73292L81.5545 5.54397L81.6979 5.64475C81.4698 5.77449 81.2366 5.88331 81.001 5.9797C81.2794 6.01045 81.5143 6.03512 81.7016 6.05317C81.8495 5.97687 81.998 5.89661 82.155 5.8135L82.4523 6.08517C82.0243 6.31627 81.5593 6.49375 81.054 6.61309C81.4682 6.6547 81.8706 6.69466 82.2701 6.72614C82.2098 6.63696 82.1495 6.54778 82.0887 6.46256L82.4118 6.3178C82.6505 6.63379 82.8301 6.90925 82.9514 7.14021L82.612 7.31501C82.5647 7.21957 82.5135 7.12357 82.4583 7.02702C82.1748 7.00364 81.9032 6.98192 81.6435 6.96186L81.5501 7.63138C81.5159 7.877 81.3675 7.98554 81.106 7.94908L80.7455 7.8988L80.7153 7.50688C80.8201 7.53764 80.9214 7.56389 81.0205 7.5777C81.0957 7.5882 81.1409 7.55411 81.1519 7.47488L81.2287 6.92421C80.806 6.88545 80.4156 6.84715 80.0574 6.80932L80.0255 6.42928C80.1433 6.45378 80.2616 6.47431 80.3765 6.49034C80.6315 6.45724 80.9039 6.38619 81.1983 6.27377C80.9753 6.25075 80.7246 6.22387 80.4541 6.19422L80.4169 5.88209C80.474 5.87794 80.5328 5.8619 80.6006 5.83905C80.8237 5.74496 81.0411 5.63393 81.2494 5.50143L80.3026 5.36939L80.2424 5.80121L79.8383 5.74486L79.9482 4.95648L81.4457 5.16532L81.48 4.9197L80.1925 4.74014L80.2444 4.36775ZM82.009 7.15014C82.4006 7.35418 82.7481 7.58439 83.0561 7.83736L82.8048 8.13348C82.4729 7.84892 82.1259 7.61475 81.7644 7.42701L82.009 7.15014ZM80.6988 6.95935L80.8984 7.26585C80.5568 7.4565 80.1494 7.59758 79.6847 7.68624L79.5646 7.30198C80.0175 7.23994 80.3927 7.12668 80.6988 6.95935Z" fill="white"/>
<path d="M83.7733 5.38587L84.0863 5.45652C84.0198 5.85103 83.9206 6.22047 83.7966 6.56603L83.4783 6.42181C83.6067 6.10117 83.7063 5.75605 83.7733 5.38587ZM84.8959 5.45113C84.9369 5.61087 84.9683 5.78131 84.9939 5.96303C85.1271 5.69163 85.2265 5.40308 85.2892 5.08888L85.6575 5.19602C85.6296 5.32938 85.603 5.45483 85.5684 5.5791L85.9957 5.64242L86.0983 4.94999L86.5177 5.01214L86.4151 5.70458L87.2302 5.82537L87.171 6.22501L86.3559 6.10421L86.231 6.94701L87.0105 7.06252L86.9507 7.46612L86.1712 7.3506L86.0522 8.15383L86.9741 8.29045L86.9149 8.69009L84.4894 8.33065L84.5486 7.93101L85.6328 8.09168L85.7518 7.28845L84.8773 7.15886L84.9371 6.75527L85.8116 6.88486L85.9365 6.04206L85.43 5.96701C85.3189 6.22551 85.1831 6.46013 85.0224 6.67086L84.7543 6.35211C84.7856 6.30419 84.8164 6.26022 84.8472 6.21626L84.687 6.23296C84.6662 5.9913 84.6357 5.76034 84.5916 5.53949L84.1712 8.3765L83.7557 8.31494L84.2952 4.67469L84.7107 4.73626L84.5975 5.49992L84.8959 5.45113Z" fill="white"/>
<path d="M90.7658 6.20591L90.2758 6.1291L90.1234 7.10123L90.6134 7.17804L90.7658 6.20591ZM90.5508 7.57716L90.0569 7.49973C89.8935 8.28389 89.5686 8.8322 89.0903 9.14591L88.8215 8.82035C89.2385 8.56182 89.5169 8.10339 89.6538 7.43655L89.2705 7.37647L89.333 6.97734L89.7203 7.03804L89.8727 6.06591L89.5723 6.01884L89.6331 5.63157L91.5417 5.93075L91.481 6.31803L91.1649 6.26847L91.0125 7.2406L91.4393 7.3075L91.3767 7.70663L90.95 7.63973L90.678 9.37454L90.2789 9.31198L90.5508 7.57716ZM88.4463 5.86663L88.0235 5.80035L88.0854 5.40517L89.4923 5.62569L89.4303 6.02087L88.8376 5.92795C88.7428 6.19652 88.6314 6.44223 88.5021 6.673L89.2016 6.78264L88.9049 8.67552L88.2331 8.57022L88.1891 8.85079L87.8097 8.79133L88.0396 7.32523C87.9706 7.4035 87.8983 7.47719 87.8306 7.54755L87.669 7.15783C88.01 6.79021 88.2716 6.36154 88.4463 5.86663ZM88.2895 8.21061L88.5819 8.25645L88.7652 7.08673L88.4728 7.04089L88.2895 8.21061Z" fill="white"/>
<path d="M93.8745 6.9938C94.2532 7.2547 94.5939 7.54987 94.8879 7.88197L94.6064 8.18837C94.2979 7.82145 93.9671 7.51573 93.618 7.27187L93.8745 6.9938ZM93.0049 6.8346L93.2061 7.16361C92.82 7.41632 92.372 7.60209 91.8613 7.72486L91.7486 7.32529C92.2429 7.2282 92.6588 7.06551 93.0049 6.8346ZM93.6714 6.10912C93.7019 6.21953 93.7265 6.34113 93.7491 6.47457L95.1858 6.71079L95.045 7.56729L94.6345 7.4998L94.713 7.02221L92.2343 6.61468L92.1565 7.08832L91.746 7.02083L91.8861 6.16827L93.3031 6.40124C93.2713 6.29873 93.2389 6.20016 93.2019 6.10489L93.6714 6.10912ZM92.8643 7.4925L93.2787 7.56064L93.2203 7.91587C93.2099 7.95469 93.2007 7.98562 93.1955 8.0172L94.2099 8.18398L94.0081 9.41149C93.9996 9.46281 94.0227 9.49498 94.0819 9.50471L94.3306 9.5456C94.4095 9.55857 94.4575 9.53808 94.4824 9.48542C94.5202 9.32949 94.5553 9.16501 94.5839 8.99134L94.944 9.1681C94.8553 9.51025 94.7926 9.71885 94.7559 9.79389C94.6852 9.9282 94.5236 9.97458 94.2709 9.93305L93.9591 9.88178C93.6671 9.83376 93.547 9.6762 93.5905 9.41175L93.7398 8.50394L93.0767 8.39492C92.9687 8.65688 92.8245 8.86828 92.6473 9.03373C92.3769 9.27303 91.9755 9.42187 91.4456 9.48879L91.2823 9.10117C91.7964 9.03165 92.1618 8.90525 92.3711 8.71671C92.4787 8.60469 92.5731 8.47428 92.6464 8.32418L91.7228 8.17233L91.7864 7.78552L92.7811 7.94906L92.8059 7.84773L92.8643 7.4925Z" fill="white"/>
<path d="M96.2571 6.52626L96.7561 8.50767L95.6232 10.2081L95.3106 9.99599L96.3501 8.43776L95.8916 6.62163L96.2571 6.52626ZM96.943 6.64435L97.442 8.62576L96.3091 10.3262L95.9965 10.1141L97.036 8.55585L96.5617 6.73701L96.943 6.64435Z" fill="white"/>
<g clip-path="url(#clip0_4_54468)">
<path d="M0 6.69456L3.93923 5.99997L4.63382 9.9392L0.694593 10.6338L0 6.69456Z" fill="#21468B"/>
<path d="M0 6.69456L3.93923 5.99997L4.40225 8.62587L0.463017 9.32046L0 6.69456Z" fill="white"/>
<path d="M0 6.69456L3.93923 5.99997L4.17081 7.3133L0.231576 8.00789L0 6.69456Z" fill="#AE1C28"/>
</g>
<defs>
<clipPath id="clip0_4_54468">
<rect y="6.69456" width="4" height="4" rx="2" transform="rotate(-10 0 6.69456)" fill="white"/>
</clipPath>
</defs>
</svg>
