<svg width="47" height="6" viewBox="0 0 47 6" fill="none" xmlns="http://www.w3.org/2000/svg">
<path d="M5.72 0.692L6.08 0.848L5.304 2.56L6.064 4.272L5.72 4.428L4.892 2.56L5.72 0.692ZM6.416 0.692L6.76 0.848L6 2.56L6.76 4.272L6.416 4.428L5.588 2.56L6.416 0.692ZM7.688 0.768C7.944 0.96 8.16 1.152 8.336 1.344L8.052 1.632C7.896 1.448 7.68 1.248 7.404 1.04L7.688 0.768ZM7.156 1.904H8.08V3.564C8.196 3.46 8.32 3.348 8.452 3.224L8.568 3.664C8.304 3.904 8.024 4.116 7.728 4.308L7.568 3.932C7.636 3.872 7.672 3.796 7.672 3.708V2.304H7.156V1.904ZM8.588 2.384H10.54V2.764C10.428 3.108 10.244 3.408 9.988 3.66C10.236 3.82 10.536 3.96 10.892 4.084L10.668 4.444C10.276 4.284 9.944 4.108 9.68 3.912C9.368 4.132 8.988 4.308 8.532 4.44L8.3 4.088C8.712 3.968 9.06 3.816 9.348 3.632C9.092 3.376 8.912 3.096 8.816 2.784H8.588V2.384ZM9.208 2.784C9.296 3.012 9.44 3.22 9.648 3.404C9.852 3.22 10.008 3.016 10.12 2.784H9.208ZM8.86 0.836H10.3V1.664C10.3 1.752 10.348 1.8 10.448 1.8H10.792V2.18H10.336C10.036 2.18 9.888 2.04 9.888 1.76V1.228H9.272V1.336C9.272 1.752 9.056 2.076 8.632 2.3L8.352 1.98C8.688 1.84 8.86 1.64 8.86 1.38V0.836ZM12.416 1.868H13.448V0.708H13.88V1.868H14.86V2.284H13.88V4.428H13.448V2.284H12.416V1.868ZM11.712 0.74C11.964 0.936 12.18 1.132 12.36 1.324L12.072 1.616C11.92 1.432 11.7 1.236 11.416 1.028L11.712 0.74ZM11.156 1.896H12.108V3.568C12.224 3.468 12.348 3.356 12.48 3.232L12.588 3.66C12.328 3.9 12.052 4.116 11.756 4.308L11.596 3.932C11.668 3.872 11.704 3.8 11.704 3.716V2.296H11.156V1.896ZM17.224 3.916H18.864V4.308H16.816V0.86H18.812V1.252H17.224V3.916ZM17.532 1.628C17.708 1.84 17.872 2.052 18.028 2.26C18.132 1.988 18.216 1.7 18.28 1.392L18.64 1.456C18.552 1.888 18.436 2.28 18.288 2.624C18.464 2.88 18.628 3.14 18.78 3.396L18.488 3.684C18.376 3.464 18.244 3.24 18.096 3.016C17.94 3.296 17.76 3.54 17.552 3.752L17.292 3.432C17.512 3.204 17.7 2.944 17.852 2.652C17.676 2.4 17.476 2.144 17.26 1.884L17.532 1.628ZM16.16 1.24H15.204V0.856H16.58L16.396 2.504H16.68C16.68 3.456 16.636 4.004 16.548 4.148C16.46 4.292 16.268 4.368 15.976 4.368C15.88 4.368 15.784 4.36 15.68 4.352L15.568 3.984C15.72 4.004 15.828 4.016 15.892 4.016C16.08 4.016 16.192 3.96 16.232 3.856C16.268 3.744 16.288 3.416 16.288 2.88H15.22L15.408 1.448L15.796 1.468L15.648 2.504H15.996L16.16 1.24ZM16.136 3.12V3.5C15.848 3.588 15.524 3.66 15.16 3.712L15.104 3.316C15.496 3.268 15.84 3.2 16.136 3.12ZM19.332 0.952H20.836V1.348H19.332V0.952ZM19.184 2.028H20.98V2.436H20.084C19.952 2.956 19.836 3.34 19.736 3.596C19.988 3.54 20.236 3.464 20.48 3.376C20.392 3.184 20.304 3.008 20.216 2.84L20.564 2.672C20.74 3 20.916 3.364 21.084 3.764C21.352 3.3 21.488 2.684 21.496 1.924V1.892H21.004V1.492H21.496V0.724H21.912V1.492H22.772C22.772 2.812 22.752 3.628 22.716 3.94C22.668 4.236 22.46 4.384 22.092 4.384C22.028 4.384 21.92 4.376 21.76 4.364L21.664 4C21.804 4.008 21.924 4.016 22.028 4.016C22.196 4.016 22.292 3.928 22.324 3.752C22.348 3.572 22.36 2.952 22.368 1.892H21.912V1.924C21.9 3.072 21.624 3.912 21.08 4.444L20.764 4.168C20.88 4.056 20.98 3.928 21.068 3.788L20.724 3.964C20.692 3.876 20.66 3.796 20.628 3.72C20.208 3.864 19.756 3.976 19.276 4.064L19.18 3.672C19.22 3.66 19.248 3.648 19.264 3.636C19.368 3.484 19.508 3.084 19.68 2.436H19.184V2.028ZM24.668 1.364V4.168H24.268V3.968H23.676V4.284H23.276V1.364H23.66C23.732 1.152 23.784 0.932 23.816 0.704L24.236 0.76C24.192 0.976 24.132 1.18 24.06 1.364H24.668ZM23.676 3.584H24.268V2.828H23.676V3.584ZM23.676 2.456H24.268V1.756H23.676V2.456ZM25.396 2.336C25.652 2.66 25.848 2.944 25.988 3.192L25.652 3.424C25.504 3.16 25.304 2.868 25.056 2.548L25.396 2.336ZM26.728 1.364C26.728 2.764 26.708 3.628 26.668 3.956C26.628 4.236 26.436 4.376 26.092 4.376C26.012 4.376 25.868 4.368 25.66 4.352L25.56 3.972C25.736 3.984 25.892 3.992 26.024 3.992C26.168 3.992 26.252 3.912 26.276 3.756C26.3 3.564 26.312 2.904 26.32 1.772H25.352C25.244 2.012 25.116 2.228 24.968 2.42L24.716 2.088C24.98 1.712 25.156 1.248 25.252 0.7L25.664 0.752C25.624 0.968 25.572 1.172 25.512 1.364H26.728ZM28.636 2.348H27.94V3.816C27.94 3.92 27.992 3.972 28.104 3.972H28.768C28.884 3.972 28.956 3.94 28.98 3.88C29.008 3.816 29.032 3.688 29.048 3.488L29.44 3.624C29.408 3.976 29.356 4.188 29.288 4.26C29.22 4.324 29.088 4.356 28.896 4.356H27.916C27.652 4.356 27.52 4.228 27.52 3.972V2.124L27.356 2.288L27.112 1.952C27.488 1.608 27.832 1.204 28.148 0.732H28.452C28.808 1.1 29.14 1.484 29.452 1.876L29.18 2.16C28.84 1.704 28.56 1.356 28.336 1.124C28.136 1.42 27.912 1.708 27.656 1.98H29.044V3.096C29.04 3.32 28.916 3.44 28.672 3.456C28.512 3.456 28.364 3.448 28.228 3.44L28.124 3.052C28.272 3.068 28.4 3.076 28.504 3.076C28.592 3.076 28.636 3.032 28.636 2.952V2.348ZM29.612 1.068H30.02V3.528H29.612V1.068ZM30.308 4.38H29.712L29.616 3.984C29.808 4 29.992 4.008 30.164 4.008C30.26 4.008 30.308 3.948 30.308 3.836V0.728H30.724V3.94C30.724 4.232 30.584 4.38 30.308 4.38ZM34.568 0.74L34.772 1.116C34.432 1.228 34.056 1.296 33.644 1.32V1.94H34.856V2.336H34.488V4.42H34.076V2.336H33.644V2.716C33.624 3.424 33.468 3.988 33.176 4.412L32.876 4.096C33.1 3.764 33.224 3.304 33.24 2.716V0.98C33.736 0.972 34.176 0.892 34.568 0.74ZM31.228 1.02H31.92C31.872 0.92 31.82 0.828 31.764 0.744L32.196 0.672C32.244 0.776 32.288 0.892 32.336 1.02H33.064V1.404H31.228V1.02ZM31.188 1.928H31.596C31.548 1.796 31.492 1.672 31.428 1.56L31.796 1.42C31.856 1.564 31.912 1.732 31.968 1.928H32.32C32.38 1.764 32.432 1.596 32.476 1.42L32.848 1.552C32.8 1.688 32.752 1.812 32.7 1.928H33.088V2.308H32.364V2.632H33.02V3.012H32.364V4.06C32.364 4.308 32.224 4.432 31.948 4.432H31.74L31.648 4.048C31.708 4.064 31.764 4.076 31.812 4.076C31.9 4.076 31.948 4.036 31.948 3.96V3.012H31.252V2.632H31.948V2.308H31.188V1.928ZM31.476 3.168L31.852 3.248C31.76 3.656 31.632 4.008 31.464 4.308L31.116 4.088C31.288 3.8 31.408 3.492 31.476 3.168ZM32.772 3.144C32.868 3.392 32.948 3.62 33.004 3.828L32.652 3.964C32.592 3.716 32.516 3.472 32.428 3.236L32.772 3.144ZM36.416 1.868H37.448V0.708H37.88V1.868H38.86V2.284H37.88V4.428H37.448V2.284H36.416V1.868ZM35.712 0.74C35.964 0.936 36.18 1.132 36.36 1.324L36.072 1.616C35.92 1.432 35.7 1.236 35.416 1.028L35.712 0.74ZM35.156 1.896H36.108V3.568C36.224 3.468 36.348 3.356 36.48 3.232L36.588 3.66C36.328 3.9 36.052 4.116 35.756 4.308L35.596 3.932C35.668 3.872 35.704 3.8 35.704 3.716V2.296H35.156V1.896ZM41.508 1.064H41.912V3.524H41.508V1.064ZM42.288 4.38H41.712L41.616 3.984C41.804 4 41.98 4.008 42.144 4.008C42.252 4.008 42.308 3.956 42.308 3.852V0.728H42.724V3.96C42.724 4.24 42.576 4.38 42.288 4.38ZM41.176 1.564L41.244 1.964L40.128 2.136C40.144 2.3 40.168 2.452 40.196 2.588C40.224 2.732 40.256 2.868 40.292 2.988C40.492 2.748 40.66 2.472 40.804 2.156L41.168 2.344C40.972 2.78 40.732 3.148 40.452 3.452C40.476 3.508 40.5 3.556 40.524 3.6C40.656 3.828 40.776 3.944 40.884 3.948C40.944 3.936 41.004 3.752 41.068 3.392L41.42 3.624C41.356 3.828 41.292 4 41.22 4.14C41.128 4.308 41.024 4.392 40.908 4.392C40.716 4.392 40.524 4.26 40.336 4.004C40.272 3.92 40.216 3.828 40.164 3.724C39.928 3.916 39.668 4.072 39.388 4.192L39.14 3.812C39.456 3.688 39.736 3.516 39.984 3.3C39.936 3.164 39.888 3.02 39.848 2.864C39.796 2.668 39.756 2.444 39.724 2.196L39.248 2.268L39.188 1.868L39.68 1.792C39.652 1.472 39.636 1.116 39.636 0.724H40.06C40.06 1.092 40.068 1.428 40.092 1.728L41.176 1.564ZM40.592 0.7C40.736 0.876 40.872 1.068 41.004 1.28L40.652 1.46C40.528 1.244 40.396 1.044 40.252 0.868L40.592 0.7ZM43.584 0.692L44.412 2.56L43.584 4.428L43.24 4.272L44 2.56L43.24 0.848L43.584 0.692ZM44.28 0.692L45.108 2.56L44.28 4.428L43.936 4.272L44.696 2.56L43.92 0.848L44.28 0.692Z" fill="white"/>
<g clip-path="url(#clip0_249_939)">
<path d="M0 0.600068H4V4.60007H0V0.600068Z" fill="#ED2939"/>
<path d="M1 0.600068H2V4.60007H1V0.600068Z" fill="white"/>
<path d="M0 2.10007H4V3.10007H0V2.10007Z" fill="white"/>
<path d="M1.25 0.600068H1.75V4.60007H1.25V0.600068Z" fill="#002664"/>
<path d="M0 2.35007H4V2.85007H0V2.35007Z" fill="#002664"/>
</g>
<defs>
<clipPath id="clip0_249_939">
<rect y="0.600068" width="4" height="4" rx="2" fill="white"/>
</clipPath>
</defs>
</svg>
