<svg width="95" height="22" viewBox="0 0 95 22" fill="none" xmlns="http://www.w3.org/2000/svg">
<path d="M5.30018 6.39921L5.54416 6.67144L4.11007 7.90593L4.07608 9.79133L3.7252 9.787L3.76186 7.74405L5.30018 6.39921ZM5.92043 6.68756L6.1499 6.95304L4.73032 8.19428L4.69633 10.0797L4.34544 10.0754L4.38211 8.0324L5.92043 6.68756Z" fill="white"/>
<path d="M9.48744 8.72869L9.15733 9.49676L8.80086 9.34355L8.98566 8.91358L6.55284 7.86798L6.36962 8.29427L6.01315 8.14106L6.34168 7.37667L7.76021 7.98635C7.7672 7.82826 7.76578 7.67962 7.75594 7.54042L8.15606 7.64273C8.15223 7.79347 8.14208 7.9589 8.12403 8.14271L9.48744 8.72869ZM5.92841 8.31798L9.08887 9.67632L8.94356 10.0144L7.59485 9.43475L7.03098 10.7467C6.91884 11.0076 6.73335 11.0846 6.48346 10.9772L5.93956 10.7435L6.00928 10.3685C6.17568 10.4575 6.3379 10.5359 6.4996 10.6054C6.59882 10.648 6.67396 10.615 6.71977 10.5085L7.24573 9.2847L5.7831 8.65607L5.92841 8.31798Z" fill="white"/>
<path d="M10.0167 8.63875L13.2274 9.90676L13.1069 10.2118L11.6671 9.64321C11.6227 9.6902 11.5784 9.73719 11.5355 9.78046L12.6479 10.2198L12.0616 11.7042L10.5325 11.1003C10.4555 11.143 10.3762 11.1805 10.3035 11.212L11.8809 11.835L11.7884 12.0694C11.5661 12.1966 11.3184 12.2794 11.0415 12.3163C11.3633 12.5251 11.7266 12.7159 12.1374 12.8953L11.9373 13.1732C11.3843 12.9291 10.9144 12.6489 10.5223 12.3349C10.0045 12.3067 9.41186 12.163 8.74964 11.9014L8.74294 11.559C9.25263 11.7603 9.7078 11.8928 10.1107 11.9616C9.93311 11.7796 9.78226 11.5953 9.65217 11.402C9.46212 11.4259 9.26826 11.4267 9.07577 11.4023L8.98438 11.0566C9.40578 11.1112 9.79038 11.0739 10.1419 10.946L9.66197 10.7565L10.2482 9.27208L11.1709 9.63646C11.219 9.59094 11.2633 9.54395 11.2988 9.49775L9.8962 8.94382L10.0167 8.63875ZM10.6309 12.0165C10.8953 12.022 11.1337 11.9957 11.3399 11.9309L10.0229 11.4108C10.1887 11.6225 10.3931 11.8237 10.6309 12.0165ZM11.8296 11.3115L11.8928 11.1516L10.1628 10.4683L10.0997 10.6283L11.8296 11.3115ZM10.2583 10.2265L11.9883 10.9097L12.0515 10.7498L10.3215 10.0665L10.2583 10.2265ZM10.417 9.82472L12.147 10.5079L12.2117 10.3442L10.4817 9.66102L10.417 9.82472Z" fill="white"/>
<path d="M14.2107 11.2963L15.7163 11.8376L15.2156 13.2303L13.71 12.689L14.2107 11.2963ZM14.9838 12.8111L15.2693 12.0169L14.4337 11.7165L14.1481 12.5107L14.9838 12.8111ZM16.7994 11.296L15.6519 14.488L15.3056 14.3635L15.3529 14.2318L12.9589 13.3711L12.9116 13.5029L12.5653 13.3784L13.7128 10.1864L16.7994 11.296ZM13.0726 13.055L15.4666 13.9156L16.3394 11.4877L13.9454 10.6271L13.0726 13.055Z" fill="white"/>
<path d="M19.0219 13.4707C18.8792 13.6265 18.73 13.7507 18.5816 13.8457L18.4583 13.5244C18.6806 13.3691 18.9059 13.1265 19.1403 12.7902L19.4176 12.9468C19.3653 13.0308 19.3117 13.106 19.2581 13.1812L20.2708 13.5075L20.1641 13.8387L19.5777 13.6498C19.5149 13.8187 19.452 13.9749 19.3889 14.1185L20.196 14.3786L20.0844 14.725L19.3382 14.4846C19.386 14.9622 19.5695 15.345 19.8948 15.6263L19.6013 15.8721C19.3023 15.5741 19.125 15.1723 19.0693 14.6669C18.8234 14.9995 18.464 15.2283 17.9908 15.3532L17.8558 15.0029C18.2784 14.8911 18.599 14.6918 18.8187 14.4012L18.8661 14.3324L18.1922 14.1153L18.3038 13.7688L19.0463 14.0081C19.1093 13.8645 19.1723 13.7083 19.2351 13.5394L19.0219 13.4707ZM17.3001 11.8106L17.8559 11.9897C17.8427 11.809 17.8208 11.6422 17.7876 11.4844L18.1701 11.5362C18.192 11.703 18.199 11.8901 18.1986 12.1001L18.6478 12.2449L18.5374 12.5875L17.8293 12.3594L17.6808 12.82L18.3699 13.0421C18.0534 14.0243 17.8381 14.6274 17.7264 14.8435C17.6223 15.0622 17.4168 15.1262 17.1198 15.0305C17.0818 15.0182 17.0157 14.9885 16.928 14.9477L16.9513 14.6274C17.0327 14.662 17.1025 14.6929 17.1635 14.7126C17.2929 14.7543 17.3899 14.7141 17.4545 14.592C17.519 14.4699 17.6752 14.0243 17.9244 13.2641L17.5703 13.15C17.2739 13.9917 16.9153 14.5696 16.5036 14.8824L16.3093 14.5592C16.6833 14.2595 17.0102 13.6882 17.289 12.8493L17.4828 12.2477L17.1896 12.1533L17.3001 11.8106ZM19.0818 12.6327C18.8967 12.842 18.7138 13.0184 18.5254 13.1594L18.3879 12.8167C18.6603 12.6103 18.9405 12.2888 19.2233 11.8546L19.5338 12.0387C19.4627 12.1418 19.3941 12.2374 19.3267 12.3292L20.6478 12.7549L20.5362 13.1013L19.0818 12.6327Z" fill="white"/>
<path d="M23.8982 13.724L23.0108 16.8401L22.6415 16.7349L22.7029 16.5195L20.7947 15.9761L20.7334 16.1916L20.364 16.0864L21.2514 12.9703L22.0824 13.2069C22.1999 13.0865 22.3031 12.9578 22.3853 12.8149L22.7432 12.975C22.6653 13.1026 22.5714 13.2131 22.4671 13.3165L23.8982 13.724ZM20.8933 15.6299L22.8014 16.1733L22.9548 15.6347L21.0467 15.0913L20.8933 15.6299ZM21.1431 14.7528L23.0512 15.2961L23.1947 14.7922L21.2866 14.2488L21.1431 14.7528ZM21.383 13.9102L23.2912 14.4536L23.4292 13.9689L21.5211 13.4255L21.383 13.9102Z" fill="white"/>
<path d="M25.0818 13.6234C25.3181 13.8869 25.5068 14.1429 25.6537 14.3846L25.3202 14.5874C25.1986 14.3601 25.0108 14.1002 24.7598 13.8126L25.0818 13.6234ZM24.7425 14.5083C24.9603 14.7631 25.1354 15.0076 25.2667 15.2455L24.9323 15.4521C24.8223 15.2277 24.6569 14.9773 24.4302 14.6915L24.7425 14.5083ZM24.9192 15.7083L25.2163 15.9249C24.9191 16.367 24.6091 16.7773 24.2833 17.1507L23.9617 16.8994C24.3088 16.5229 24.6286 16.1233 24.9192 15.7083ZM27.4879 16.1659L27.0728 17.868L26.7114 17.7799L26.7635 17.5661L25.5433 17.2686L25.4912 17.4823L25.1298 17.3942L25.5448 15.6921L27.4879 16.1659ZM25.6276 16.9227L26.8479 17.2203L27.044 16.4159L25.8238 16.1183L25.6276 16.9227ZM27.4635 14.6283C27.619 15.0204 27.7535 15.4484 27.8638 15.9076L27.4772 15.9904C27.4513 15.877 27.4284 15.7685 27.4035 15.6677C26.8152 15.5984 26.1676 15.5022 25.4663 15.3724L25.4857 15.023C25.7185 15.0139 26.121 14.6633 26.6952 13.9634L27.034 14.1778C26.6831 14.5698 26.3503 14.888 26.0306 15.1353C26.4647 15.2123 26.8909 15.271 27.3083 15.3151C27.245 15.1021 27.1759 14.8958 27.103 14.7051L27.4635 14.6283Z" fill="white"/>
<path d="M29.6958 15.462C29.9888 15.7936 30.2621 16.1212 30.5079 16.4434C30.7658 16.2133 31.0032 15.9424 31.221 15.6269L31.5225 15.8745C31.282 16.2222 31.0234 16.5174 30.7467 16.7601C30.9776 17.0752 31.1882 17.3904 31.3721 17.6961L31.024 17.9287C30.8621 17.6354 30.6672 17.3234 30.4379 17.0004C30.0381 17.2879 29.6005 17.4782 29.1276 17.5799L28.979 17.1996C29.4244 17.1128 29.8338 16.9414 30.2038 16.6806C29.9587 16.3545 29.6791 16.0175 29.3728 15.671L29.6958 15.462ZM28.898 14.6548L32.0443 15.2809L31.9733 15.6379L29.184 15.0829L28.6664 17.6839L31.5774 18.2631L31.5063 18.6201L28.2384 17.9698L28.898 14.6548Z" fill="white"/>
<path d="M33.9608 16.088L32.636 15.8869L32.6906 15.527L35.7239 15.9875L35.6692 16.3474L34.3404 16.1457L33.9755 18.5501L35.5534 18.7896L35.4981 19.1535L31.9587 18.6162L32.0139 18.2524L33.5958 18.4925L33.9608 16.088Z" fill="white"/>
<path d="M37.4732 15.9408L37.8514 15.9786L37.5392 19.107L38.0168 19.1547L38.329 16.0262L38.7071 16.0639L38.3949 19.1924L39.5572 19.3084L39.5202 19.6785L35.9699 19.3243L36.0068 18.9541L37.1611 19.0693L37.4732 15.9408ZM39.3775 16.8785L39.7023 17.0074C39.4828 17.6769 39.2282 18.2545 38.9381 18.7441L38.6117 18.591C38.8807 18.1515 39.1389 17.5783 39.3775 16.8785ZM36.6479 16.5981C36.7977 17.1517 36.916 17.7786 37.0069 18.4791L36.6519 18.5321C36.5789 17.8937 36.4642 17.2712 36.3152 16.6694L36.6479 16.5981Z" fill="white"/>
<path d="M40.6645 16.2585C40.9122 16.4611 41.1157 16.6659 41.2835 16.8651L41.0126 17.1179C40.8686 16.9237 40.6613 16.7147 40.3943 16.4953L40.6645 16.2585ZM40.1049 17.3759L41.0001 17.4136L40.9288 19.1041C41.0571 19.0055 41.194 18.8911 41.3436 18.7613L41.4307 19.1654C41.1608 19.3942 40.8759 19.5984 40.5763 19.7739L40.4469 19.4241C40.5132 19.3709 40.5522 19.3004 40.5557 19.2165L40.6171 17.7618L40.0896 17.7396L40.1049 17.3759ZM41.5116 17.9116L43.4499 17.9934L43.4352 18.3411C43.3043 18.6919 43.0997 18.9875 42.8211 19.232C43.0698 19.4106 43.3751 19.5757 43.7294 19.7187L43.5118 20.0378C43.1189 19.8611 42.7949 19.6633 42.5316 19.452C42.2104 19.6627 41.8152 19.8261 41.3538 19.9428L41.1555 19.6142C41.5844 19.5081 41.9466 19.3673 42.2425 19.1876C41.9818 18.9124 41.8063 18.6127 41.7239 18.2889L41.4961 18.2793L41.5116 17.9116ZM42.0796 18.3039C42.1612 18.5516 42.3078 18.778 42.5232 18.9872C42.7472 18.8005 42.9243 18.5878 43.0507 18.3449L42.0796 18.3039ZM41.8564 16.3808L43.2711 16.4405L43.2357 17.2797C43.232 17.3677 43.278 17.4176 43.3779 17.4219L43.7296 17.4367L43.7149 17.7844L43.2633 17.7653C42.9796 17.7534 42.8454 17.6116 42.8565 17.3478L42.8805 16.7803L42.2171 16.7523L42.212 16.8722C42.1945 17.2879 41.969 17.6026 41.5398 17.8127L41.3003 17.5104C41.6424 17.3727 41.8232 17.1681 41.8347 16.8964L41.8564 16.3808Z" fill="white"/>
<path d="M45.3269 17.4811L46.3746 17.4581L46.3489 16.2863L46.7408 16.2777L46.7665 17.4494L47.7583 17.4276L47.7665 17.8036L46.7748 17.8254L46.8222 19.9808L46.4303 19.9895L46.3829 17.834L45.3351 17.857L45.3269 17.4811ZM44.5741 16.3614C44.8383 16.5516 45.0626 16.7427 45.2469 16.9387L44.9928 17.2084C44.8287 17.0239 44.6044 16.8288 44.3159 16.6271L44.5741 16.3614ZM44.0717 17.5327L44.9955 17.5124L45.0329 19.216C45.1586 19.1092 45.2879 18.9863 45.425 18.8513L45.5335 19.237C45.2828 19.4825 45.0117 19.7046 44.7239 19.8989L44.5724 19.5622C44.6392 19.5047 44.6737 19.4359 44.6719 19.3559L44.6396 17.8843L44.0797 17.8966L44.0717 17.5327Z" fill="white"/>
<path d="M49.5286 16.0993L49.9194 16.0685L49.9738 16.7583L51.3933 16.6464L51.5452 18.5724L51.1664 18.6023L51.1485 18.375L50.1077 18.4571L50.2131 19.7929L49.8223 19.8237L49.7169 18.4879L48.6801 18.5697L48.6981 18.7969L48.3192 18.8268L48.1674 16.9008L49.583 16.7892L49.5286 16.0993ZM48.6509 18.1988L49.6877 18.117L49.6122 17.16L48.5754 17.2418L48.6509 18.1988ZM50.0785 18.0862L51.1192 18.0042L51.0438 17.0471L50.003 17.1292L50.0785 18.0862Z" fill="white"/>
<path d="M54.6207 19.1793L53.7393 19.2874C53.4296 19.3254 53.2558 19.1896 53.2188 18.8879L52.9431 16.6407L53.3203 16.5944L53.5862 18.7622C53.5999 18.8734 53.6742 18.9207 53.8092 18.9041L54.504 18.8188C54.5834 18.8091 54.6341 18.7626 54.6605 18.6828C54.6895 18.5906 54.6891 18.3246 54.6505 17.878L55.0224 17.9533C55.0598 18.5209 55.0412 18.8617 54.9675 18.9836C54.9002 19.0926 54.7835 19.1593 54.6207 19.1793ZM52.3918 17.1073L52.7624 17.1384C52.7419 17.8583 52.662 18.4887 52.5264 19.0252L52.176 18.8627C52.3092 18.3063 52.3785 17.7215 52.3918 17.1073ZM55.0467 16.6728C55.3422 17.1765 55.6178 17.715 55.8665 18.297L55.5401 18.4943C55.2697 17.8665 54.9881 17.3127 54.6965 16.8407L55.0467 16.6728ZM53.4954 15.7226C53.894 16.0808 54.2068 16.397 54.4344 16.6754L54.1431 16.9287C53.9046 16.6275 53.5948 16.3028 53.2096 15.9552L53.4954 15.7226Z" fill="white"/>
<path d="M58.1528 15.0783L58.5314 15.0144C58.5886 15.3536 58.6307 15.675 58.6563 15.9709C59.0252 16.9066 59.5106 17.6197 60.1127 18.1104L59.8977 18.4712C59.422 18.0322 59.0198 17.4754 58.687 16.8014L58.6814 16.9605C58.6539 17.6629 58.4125 18.2756 57.9585 18.8066L57.6541 18.5415C58.0385 18.0791 58.2499 17.5526 58.296 16.9607C58.3259 16.4648 58.2766 15.8362 58.1528 15.0783ZM56.4061 15.3771C56.6951 15.5271 56.9447 15.6837 57.1554 15.851L56.943 16.1546C56.7539 15.9958 56.5037 15.8352 56.1891 15.6774L56.4061 15.3771ZM56.0785 16.6088L56.9896 16.455L57.2679 18.1037C57.3728 17.9805 57.483 17.8402 57.6024 17.6822L57.7623 18.0527C57.5491 18.328 57.3162 18.5823 57.0602 18.8202L56.8617 18.509C56.9194 18.4424 56.9436 18.3694 56.9296 18.2865L56.6913 16.8745L56.1391 16.9677L56.0785 16.6088Z" fill="white"/>
<path d="M60.4538 15.8063L62.7768 15.3076L62.8524 15.6596L61.8903 15.8661L62.0162 16.4528L63.1426 16.211L63.2181 16.563L62.0918 16.8047L62.2462 17.5243C62.5206 17.5064 62.8494 17.4562 63.2413 17.3762C63.4369 17.3342 63.6377 17.2788 63.8377 17.2196L63.8462 17.6023L63.4786 17.6812C62.6573 17.8575 62.0508 17.9099 61.6669 17.8369C61.3915 17.7733 61.1512 17.6449 60.946 17.4516C60.8646 17.7964 60.7378 18.1018 60.5658 18.3678L60.2596 18.1226C60.5449 17.6604 60.6844 17.0905 60.6719 16.4222L61.0451 16.4076C61.0469 16.6445 61.0344 16.8722 61.0099 17.082C61.2592 17.3476 61.5327 17.4975 61.825 17.5248L61.8618 17.525L61.5227 15.945L60.5293 16.1583L60.4538 15.8063ZM63.0864 14.4434L63.2769 15.3312L62.9132 15.4093L62.7965 14.8656L60.2466 15.413L60.3675 15.9762L60.0038 16.0542L59.809 15.1469L61.2795 14.8313C61.1979 14.7179 61.111 14.6179 61.0266 14.5296L61.4121 14.3814C61.4928 14.4909 61.5761 14.6121 61.6589 14.7498L63.0864 14.4434Z" fill="white"/>
<path d="M66.601 14.775L66.8145 15.5874L64.9305 16.0824L64.9843 16.2875L67.0502 15.7447L67.3216 16.7776L66.9541 16.8742L66.9175 16.7349L65.2191 17.1811L65.2547 17.3165L64.8872 17.4131L64.3495 15.3666L66.601 14.775ZM65.1338 16.8562L66.8321 16.4099L66.7589 16.1314L65.0606 16.5776L65.1338 16.8562ZM64.8532 15.7884L66.3775 15.3879L66.3185 15.1635L64.7942 15.564L64.8532 15.7884ZM67.0079 14.1511L67.202 14.89L66.8422 14.9846L66.7294 14.5551L64.1219 15.2403L64.2347 15.6697L63.8749 15.7642L63.6808 15.0253L65.178 14.6319C65.1267 14.5627 65.0736 14.5022 65.0225 14.4494L65.3332 14.3099L65.2563 14.2846C65.3733 14.0057 65.4397 13.7236 65.447 13.4363L65.8193 13.4212C65.8134 13.493 65.8103 13.56 65.8034 13.628L66.8789 13.3454L66.9633 13.6665L66.3327 13.8322C66.4169 13.9011 66.4896 13.973 66.5525 14.0392L66.259 14.2445C66.1646 14.1369 66.0585 14.0325 65.9419 13.9349L65.7446 13.9867C65.7124 14.1317 65.6704 14.2709 65.6176 14.4006L65.4004 14.3295C65.4497 14.391 65.4971 14.4612 65.5494 14.5343L67.0079 14.1511ZM64.0811 14.4238C64.0326 14.5855 63.9743 14.7414 63.9052 14.8878L63.5312 14.771C63.6926 14.4721 63.7821 14.1674 63.8056 13.8634L64.178 13.8483C64.1721 13.9202 64.1623 13.9931 64.1553 14.0611L65.1302 13.8049L65.2146 14.126L64.6343 14.2785C64.7294 14.3569 64.8156 14.4335 64.8854 14.5103L64.5824 14.7264C64.4801 14.6044 64.371 14.4883 64.2513 14.3791L64.0811 14.4238Z" fill="white"/>
<path d="M68.7691 12.6394L70.6993 12.0306L71.2745 13.854L70.4925 14.1007L70.6128 14.4821L71.4444 14.2198L71.5503 14.5555L70.7187 14.8178L70.8438 15.2146L71.8089 14.9102L71.9184 15.2573L69.6105 15.9852L69.501 15.6381L70.4852 15.3277L70.3601 14.9309L69.5246 15.1944L69.4188 14.8587L70.2542 14.5952L70.1339 14.2138L69.3442 14.4628L68.7691 12.6394ZM70.8263 13.6431L70.6891 13.2082L70.2542 13.3453L70.3914 13.7802L70.8263 13.6431ZM70.0328 13.8933L69.8956 13.4585L69.4531 13.598L69.5903 14.0329L70.0328 13.8933ZM69.3545 13.2852L69.797 13.1456L69.6598 12.7108L69.2173 12.8503L69.3545 13.2852ZM70.0184 12.5977L70.1555 13.0325L70.5904 12.8954L70.4533 12.4605L70.0184 12.5977ZM67.8488 14.3096L68.2265 14.1904L67.969 13.3741L67.5341 13.5112L67.4258 13.1679L68.658 12.7793L68.7663 13.1226L68.3352 13.2586L68.5927 14.0749L68.978 13.9534L69.0875 14.3005L68.7022 14.4221L68.9429 15.185C69.0581 15.0983 69.1696 15.0128 69.2748 14.9209L69.3855 15.2719C69.0779 15.5199 68.7413 15.7561 68.3708 15.9778L68.1736 15.6583C68.3254 15.5811 68.471 15.4974 68.6115 15.4111L68.336 14.5376L67.9583 14.6567L67.8488 14.3096Z" fill="white"/>
<path d="M71.4323 11.5897L71.768 11.4711C71.7002 11.7835 71.6716 12.0864 71.6819 12.3797C71.6834 12.744 71.7467 13.0908 71.8627 13.4189C71.9773 13.7432 72.1461 14.0526 72.3753 14.3407C72.5502 14.5716 72.7629 14.7892 73.0133 14.9934L72.6777 15.1121C72.4124 14.9258 72.186 14.7174 71.9984 14.4867C71.7681 14.2075 71.5956 13.8994 71.4756 13.56C71.3542 13.2168 71.2935 12.8649 71.2984 12.5068C71.2966 12.202 71.3417 11.8975 71.4323 11.5897Z" fill="white"/>
<path d="M75.0816 11.7758L75.1951 12.0621L74.7071 12.3072L74.8102 12.5675L74.483 12.6972L74.3902 12.4629C74.1618 12.5706 73.9274 12.685 73.6805 12.8001L73.5187 12.5114C73.7858 12.3926 74.0379 12.2798 74.2737 12.1691L74.1794 11.9311L73.5287 12.189L73.3408 11.9322C73.388 11.8016 73.4227 11.6502 73.4485 11.4764L73.0989 11.615L72.9751 11.3026L73.4734 11.1051C73.4737 11.019 73.4703 10.9343 73.4705 10.8481L73.8422 10.7654C73.842 10.83 73.8455 10.8931 73.8453 10.9578L74.7043 10.6173L74.8281 10.9297L73.8241 11.3276C73.8072 11.4806 73.78 11.629 73.7484 11.7663L74.0645 11.6411L73.9775 11.4217L74.3047 11.292L74.3917 11.5114L74.9346 11.2962L75.0496 11.5863L74.5067 11.8014L74.5921 12.0171C74.7647 11.9315 74.9276 11.854 75.0816 11.7758ZM75.5754 11.3822C75.6501 11.7011 75.6506 12.0064 75.5858 12.2988L75.2387 12.1395C75.3035 11.8471 75.28 11.538 75.1622 11.2189L74.919 10.6054C75.3847 10.3692 75.7167 10.1429 75.9165 9.93039L76.2502 10.0993C76.0259 10.3259 75.7251 10.5441 75.3486 10.7449L75.4754 11.0647L76.55 10.6388L76.6724 10.9474L76.3154 11.0889L76.619 11.855L76.2806 11.9891L75.977 11.223L75.5754 11.3822ZM76.6291 11.9456L77.1979 13.381L76.8409 13.5225L76.7894 13.3923L74.9821 14.1086L75.0337 14.2387L74.6767 14.3802L74.1078 12.9448L76.6291 11.9456ZM74.8627 13.8073L76.67 13.0911L76.583 12.8717L74.7758 13.5879L74.8627 13.8073ZM74.6653 13.3091L76.4725 12.5928L76.3885 12.3809L74.5813 13.0971L74.6653 13.3091Z" fill="white"/>
<path d="M77.7851 9.34259L79.5631 8.53704L79.7166 8.87589L77.9386 9.68144L77.7851 9.34259ZM78.1067 10.2947L80.1325 9.37694L80.286 9.71578L79.7176 9.9733L80.4175 11.5181C80.5231 11.7513 80.4448 11.9273 80.1861 12.0445L79.6578 12.2839L79.4278 11.9797C79.602 11.9184 79.7692 11.8514 79.9223 11.782C80.0279 11.7342 80.0644 11.6693 80.0297 11.5928L79.3678 10.1318L78.2602 10.6336L78.1067 10.2947ZM77.0848 9.44468L77.4678 9.44681C77.4526 9.93673 77.2865 10.4424 76.9654 10.9743L76.7029 10.676C76.9424 10.2645 77.0691 9.85582 77.0848 9.44468ZM77.6341 10.2015L78.0134 10.2052C78.0042 10.4466 77.9645 10.6885 77.8943 10.9311L78.7098 12.731L78.371 12.8845L77.709 11.4234C77.629 11.5958 77.5401 11.7678 77.4349 11.9428L77.1777 11.6466C77.4611 11.1669 77.6156 10.6841 77.6341 10.2015Z" fill="white"/>
<path d="M79.97 8.05134L80.2884 7.8921C80.5693 8.04234 80.8198 8.2212 81.0416 8.43226C81.2992 8.6791 81.5139 8.96529 81.6767 9.29085C81.8377 9.61283 81.9362 9.9527 81.9809 10.3105C82.0132 10.6074 82.006 10.9151 81.9595 11.2335L81.6411 11.3928C81.6644 11.0725 81.6554 10.7684 81.6142 10.4804C81.5623 10.1173 81.4603 9.77923 81.3064 9.47156C81.1508 9.16031 80.9415 8.87591 80.6838 8.62013C80.4763 8.41085 80.2384 8.22125 79.97 8.05134Z" fill="white"/>
<path d="M82.7826 8.27537L83.1406 8.22929C83.2541 8.71004 83.2786 9.11189 83.2125 9.44026L82.8442 9.35963C82.9071 9.04212 82.8878 8.68304 82.7826 8.27537ZM82.8246 6.63213L83.1612 6.44725L83.5194 7.09934L84.6272 6.49077C84.755 6.74004 84.8767 6.96984 84.9852 7.18405L85.155 6.94475C85.4896 7.17169 85.838 7.43211 86.1987 7.73144L85.9746 8.04623C85.6596 7.77199 85.3496 7.53157 85.0553 7.32813C85.1837 7.59527 85.2968 7.83436 85.3906 8.03839C85.5636 8.43629 85.6503 8.73547 85.6544 8.93402C85.6547 9.12557 85.5673 9.27395 85.3963 9.38619L84.9861 9.61152L84.7177 9.33905C84.8408 9.28058 84.9549 9.22246 85.0601 9.16469C85.2319 9.07032 85.2821 8.88757 85.2146 8.62344C85.1359 8.34722 84.884 7.80558 84.4643 7.00012L83.6825 7.42959C83.9537 8.00628 84.1059 8.51596 84.1391 8.95865C84.1667 9.44093 84.027 9.90104 83.7253 10.3406L83.3832 10.1497C83.6615 9.70931 83.7809 9.27863 83.7433 8.86118C83.6949 8.49069 83.5625 8.07512 83.346 7.61447L82.5116 8.07282L82.3344 7.75028L83.1828 7.28422L82.8246 6.63213Z" fill="white"/>
<path d="M86.9589 4.22193L87.285 4.01922L87.6039 4.53221L88.4498 4.00643L88.6441 4.31898L87.7981 4.84475L88.1466 5.4053L89.0842 4.82251L89.2785 5.13506L88.1743 5.82132C88.2637 6.39691 88.3028 6.83881 88.2885 7.14914C88.6369 6.87611 88.9691 6.5848 89.2896 6.28201C89.0872 6.15346 88.8899 6.04061 88.7011 5.94135L88.9503 5.64517C89.3619 5.86031 89.7624 6.11062 90.1526 6.405L89.9313 6.73093C89.8153 6.64287 89.7015 6.55821 89.594 6.48374C89.149 6.89688 88.6472 7.31709 88.0907 7.74777L87.8407 7.51225C87.8615 7.48516 87.879 7.46019 87.8896 7.43944C87.9568 7.21404 87.935 6.74716 87.8244 6.03881L87.0736 6.50546L86.8794 6.19291L87.8204 5.60801L87.472 5.04746L86.694 5.53101L86.4998 5.21846L87.2777 4.73492L86.9589 4.22193ZM85.5014 5.16552C85.8244 5.20025 86.1113 5.25269 86.3676 5.32413L86.2823 5.70213C86.054 5.6227 85.7616 5.56897 85.4063 5.53544L85.5014 5.16552ZM85.9106 6.01327C86.2166 6.05855 86.492 6.12284 86.7403 6.20401L86.6494 6.58072C86.4313 6.49496 86.1538 6.42727 85.8189 6.38107L85.9106 6.01327ZM86.8355 6.76647L87.2016 6.70378C87.3195 7.21924 87.4056 7.72147 87.4633 8.20837L87.0519 8.26628C87.0103 7.75992 86.9386 7.25815 86.8355 6.76647Z" fill="white"/>
<path d="M88.668 3.0932L90.4194 4.14575L90.8156 6.15024L90.471 6.21636L90.1051 4.36649L88.489 3.39498L88.668 3.0932ZM89.2277 2.70001L90.9791 3.75256L91.3753 5.75704L91.0307 5.82316L90.6648 3.9733L89.0356 3.01099L89.2277 2.70001Z" fill="white"/>
</svg>
