<svg width="130" height="70" viewBox="0 0 130 70" fill="none" xmlns="http://www.w3.org/2000/svg">
<path d="M4.39349 2.29149L4.54598 2.51934L3.35102 3.28494L3.12714 4.68138L2.86704 4.64121L3.1095 3.12805L4.39349 2.29149ZM4.82368 2.57096L4.96611 2.79227L3.78121 3.56441L3.55733 4.96085L3.29724 4.92067L3.5397 3.40751L4.82368 2.57096Z" fill="white"/>
<path d="M5.35351 3.14204L6.24347 3.71046L6.33552 3.56635L6.57823 3.72137L6.48619 3.86549L7.38121 4.43714L7.25525 4.63435L6.36023 4.06269L6.2811 4.18658L7.08005 4.69687L6.95893 4.88649L6.15999 4.3762L6.07602 4.50767L7.07723 5.14715L6.94965 5.34689L4.70452 3.91291L4.8321 3.71317L5.8333 4.35265L5.91727 4.22118L5.12339 3.71412L5.2445 3.5245L6.03839 4.03156L6.11751 3.90767L5.22755 3.33925L5.35351 3.14204ZM5.54999 6.32888L5.27441 6.15286L5.3519 5.90334L5.60677 6.08393C5.67504 6.12753 5.73143 6.11727 5.77341 6.05153L5.82832 5.96557L4.61473 5.19045L4.35959 5.58992L4.12446 5.43974L4.91411 4.2034L6.59796 5.27888L5.97625 6.25228C5.87128 6.41662 5.72697 6.44192 5.54999 6.32888ZM4.72939 5.01094L5.94297 5.78606L6.03179 5.64701L4.8182 4.87188L4.72939 5.01094ZM4.93447 4.68984L6.14805 5.46497L6.23848 5.32338L5.0249 4.54826L4.93447 4.68984Z" fill="white"/>
<path d="M8.56573 5.54493C8.49189 5.5836 8.42029 5.61305 8.35028 5.63996L9.61582 6.43397C9.46948 6.65027 9.33909 6.84116 9.22719 7.00824L9.42794 7.13419L9.28764 7.35782L9.07671 7.22549C8.97183 7.37572 8.8829 7.50054 8.81244 7.60155L9.00304 7.72112L8.87389 7.92697L8.66551 7.79623C8.62057 7.85657 8.58743 7.89244 8.5696 7.90959C8.49157 7.9775 8.40502 8.0082 8.30995 8.00167C8.21488 7.99515 8.10047 7.9517 7.96325 7.86561C7.89209 7.82096 7.81172 7.77408 7.72023 7.71668L7.78874 7.45509C7.8856 7.52649 7.97644 7.59056 8.05776 7.64158C8.11875 7.67985 8.17944 7.7073 8.23156 7.72583C8.28846 7.73674 8.34636 7.72349 8.40112 7.68701C8.40845 7.68098 8.41896 7.66987 8.4368 7.65273L7.23225 6.89699C7.39886 6.72174 7.5588 6.54585 7.70698 6.36611L7.47319 6.21943L7.6135 5.9958L7.8727 6.15843C7.99572 6.00187 8.11047 5.8472 8.216 5.69029C8.13837 5.71242 8.06901 5.73265 8.00284 5.7478L7.96675 5.46662C8.22665 5.41365 8.49781 5.28628 8.78276 5.08612L8.99229 5.28841C8.93594 5.32742 8.88118 5.3639 8.82802 5.39783L9.96395 6.11053L9.82365 6.33415L8.56573 5.54493ZM7.9357 6.50961C7.83022 6.63822 7.72857 6.75506 7.62822 6.85856L8.19238 7.21251C8.16876 7.08082 8.12386 6.93224 8.0526 6.76357L8.26606 6.71688L7.9357 6.50961ZM8.20763 7.22208L8.58373 7.45805C8.65259 7.35959 8.74153 7.23477 8.848 7.08199L8.30926 6.74398C8.37259 6.89705 8.41814 7.03896 8.4459 7.1697L8.20763 7.22208ZM8.99593 6.86315L9.24874 6.49407L8.36439 5.93922C8.27386 6.06658 8.18652 6.18886 8.10142 6.30192L8.59696 6.61283C8.56536 6.49384 8.51409 6.35542 8.43994 6.20266L8.68235 6.14933C8.75904 6.3037 8.81634 6.44944 8.85332 6.58243L8.62745 6.63196L8.99593 6.86315ZM8.00629 4.66978C8.0934 4.86964 8.15349 5.05609 8.19072 5.22819L7.9095 5.29258C7.88179 5.13353 7.82169 4.94708 7.72985 4.72655L8.00629 4.66978ZM7.57819 5.2618C7.6637 5.46419 7.72221 5.65318 7.75625 5.83037L7.47916 5.89381C7.45145 5.73476 7.39295 5.54577 7.30016 5.3211L7.57819 5.2618ZM7.31399 6.15142L7.47135 6.36348C7.18221 6.59289 6.89312 6.79401 6.60089 6.9719L6.43944 6.73249C6.74502 6.55589 7.03601 6.36305 7.31399 6.15142Z" fill="white"/>
<path d="M11.3192 6.69037L11.5568 6.83666L11.1557 7.48807L10.9181 7.34179L11.3192 6.69037ZM10.0303 7.49624C9.90379 7.45002 9.77723 7.4038 9.65225 7.35503L9.68789 7.07399C10.5349 7.4264 11.2471 7.59717 11.822 7.58474C11.7785 7.46642 11.73 7.34494 11.6764 7.22033L11.9359 7.16516C12.0847 7.50698 12.1953 7.8252 12.264 8.11413L11.99 8.18147C11.9702 8.07062 11.9427 7.95505 11.905 7.83318C11.5817 7.84902 11.2291 7.81513 10.8432 7.73249L11.7475 8.28931L10.8934 9.67644L10.6558 9.53016L10.7156 9.43308L9.589 8.73942L9.52609 8.8416L9.29107 8.69689L10.0303 7.49624ZM9.72113 8.52483L10.8477 9.2185L10.9531 9.04734L9.82652 8.35368L9.72113 8.52483ZM9.94606 8.15953L11.0726 8.8532L11.1686 8.69737L10.042 8.0037L9.94606 8.15953ZM10.16 7.81211L11.2865 8.50577L11.3856 8.34483L10.2591 7.65117L10.16 7.81211ZM10.8285 6.58903L10.9069 6.84514C10.6413 6.93882 10.3542 6.98749 10.047 6.98859L10.0182 6.7207C10.3094 6.71685 10.5785 6.67466 10.8285 6.58903Z" fill="white"/>
<path d="M14.0404 8.36492C13.9039 8.59093 13.7815 8.77633 13.6751 8.92936C13.4116 9.70245 13.4667 10.4471 13.8352 11.1601L13.5447 11.2756C13.2501 10.6492 13.1726 9.9997 13.3092 9.33225C12.8172 9.76412 12.1961 9.9919 11.4459 10.0156L11.4287 9.70736C12.3765 9.70479 13.0823 9.34244 13.5478 8.61774C13.6517 8.44567 13.7349 8.31367 13.7938 8.21608L14.0404 8.36492Z" fill="white"/>
<path d="M15.1848 10.9886L14.8219 11.6034C15.0596 11.6846 15.3066 11.7502 15.5611 11.8029L15.4807 12.069C15.1854 12.0027 14.8245 11.8941 14.4046 11.7438L14.4772 11.4731C14.5338 11.4717 14.58 11.4467 14.6105 11.395L15.736 9.48843L17.6219 10.6017L17.143 11.4129L16.4403 10.9981C16.3851 11.1153 16.3411 11.2252 16.3017 11.3274L17.1232 11.8123L16.9829 12.05L16.2156 11.5971C16.2022 11.6553 16.1902 11.711 16.1839 11.763C16.1557 11.9937 16.1606 12.1742 16.197 12.3072C16.2339 12.4335 16.2886 12.518 16.3594 12.5633C16.3826 12.577 16.417 12.566 16.461 12.5328C16.5066 12.4969 16.5846 12.4002 16.6977 12.244L16.8471 12.4924C16.6813 12.6907 16.5561 12.8084 16.4741 12.847C16.3946 12.8872 16.3205 12.8888 16.257 12.8547C16.1345 12.779 16.043 12.6448 15.9799 12.4508C15.9157 12.2526 15.9001 12.0135 15.9305 11.7318C15.9407 11.6438 15.9591 11.5536 15.9831 11.4598L15.1848 10.9886ZM16.1975 10.8548L15.5051 10.446L15.3251 10.7509L16.0666 11.1886C16.1039 11.0782 16.1479 10.9683 16.1975 10.8548ZM17.2428 10.695L15.8452 9.86993L15.6424 10.2135L17.04 11.0386L17.2428 10.695Z" fill="white"/>
<path d="M17.8691 10.9253L18.9862 11.5705L18.8467 11.8121L18.47 11.5945L18.1819 12.0933L18.4547 12.2509L18.3647 12.4067C18.7121 12.1951 19.0409 11.8897 19.3553 11.4892L19.5804 11.6573C19.4846 11.7752 19.3866 11.8849 19.289 11.9879L20.0528 12.429L19.9133 12.6706L19.7418 12.5716C19.481 12.9753 19.1823 13.2705 18.8406 13.4542C18.8682 13.7542 18.9489 14.0225 19.0799 14.2576L18.8196 14.3844C18.6874 14.1452 18.6057 13.8728 18.5781 13.5728C18.2799 13.6812 17.9538 13.718 17.6049 13.6863L17.5712 13.3966C17.9394 13.443 18.2737 13.4039 18.566 13.2818C18.5697 13.0414 18.601 12.7892 18.6573 12.5238C18.5454 12.5977 18.4297 12.666 18.3133 12.7235L18.2807 12.4622L18.0469 12.3271L17.7018 12.9246C17.8475 12.9603 17.9895 12.9903 18.1263 13.0174L17.9943 13.246C17.6113 13.1773 17.1824 13.0681 16.706 12.9212L16.769 12.6561C16.827 12.6758 16.8838 12.6913 16.9418 12.7109L17.626 11.5263L17.8572 11.6598L17.2045 12.7899C17.2811 12.8133 17.3524 12.8337 17.4238 12.8541L18.231 11.4565L17.7296 11.1669L17.8691 10.9253ZM18.8312 13.1405C19.0873 12.9731 19.3098 12.7378 19.5002 12.4321L19.0794 12.189C19.0383 12.2242 18.9998 12.2608 18.9602 12.2934C18.8829 12.5952 18.8377 12.8774 18.8312 13.1405Z" fill="white"/>
<path d="M21.268 13.2588L21.4767 13.4384C21.361 13.5522 21.2403 13.6564 21.1121 13.7495L20.2963 15.1975L20.0506 15.059L20.6264 14.0371C20.5273 14.0846 20.4286 14.1254 20.3287 14.1621L20.3941 13.8442C20.7289 13.7023 21.0206 13.5085 21.268 13.2588ZM21.2879 13.7797L22.0354 14.2008L22.2283 13.8584L22.4714 13.9954L22.2785 14.3378L22.5294 14.4792L22.3939 14.7196L22.143 14.5782L21.5967 15.5479C21.4907 15.7361 21.3473 15.7828 21.1722 15.6841L20.8193 15.4853L20.8999 15.2139C21.0053 15.2836 21.1095 15.3492 21.2141 15.4081C21.2846 15.4479 21.3448 15.4267 21.389 15.3482L21.9 14.4413L21.1524 14.0201L21.2879 13.7797ZM22.8837 13.7525L22.7541 13.9825L20.8827 12.9281L20.5381 13.5397C20.2067 14.1036 19.847 14.5036 19.4566 14.7382L19.3627 14.4649C19.6841 14.2672 19.9945 13.9118 20.2925 13.4013L20.7666 12.5597L21.7259 13.1001C21.7351 13.0227 21.7402 12.9464 21.7409 12.8779L22.0337 12.9878C22.0204 13.0664 22.0027 13.1528 21.982 13.2445L22.8837 13.7525ZM21.2794 14.3327C21.3308 14.5958 21.3575 14.8174 21.3649 14.9938L21.1071 15.0173C21.1004 14.8276 21.0726 14.6019 21.0249 14.3443L21.2794 14.3327Z" fill="white"/>
<path d="M22.777 14.6711L22.9501 14.8792C22.6913 15.1443 22.4467 15.3214 22.2122 15.4116L22.1152 15.1459C22.3415 15.0581 22.5612 14.9016 22.777 14.6711ZM23.8343 14.0371L24.0867 14.1759L23.8178 14.6648L24.6484 15.1217C24.542 15.3028 24.4454 15.4722 24.3534 15.627L24.5732 15.6383C24.564 15.9414 24.5391 16.2667 24.4946 16.6154L24.2052 16.6C24.2522 16.2904 24.2798 15.9974 24.2903 15.7293C24.1728 15.918 24.0669 16.0857 23.9754 16.2272C23.793 16.4966 23.6385 16.6718 23.5144 16.7542C23.3932 16.8314 23.2641 16.8357 23.1243 16.7725L22.8167 16.6034L22.8814 16.3239C22.9679 16.3784 23.0505 16.4272 23.1294 16.4706C23.2582 16.5414 23.3941 16.4998 23.5342 16.3509C23.6775 16.19 23.9192 15.8128 24.2605 15.2233L23.6743 14.9009C23.4181 15.3044 23.1566 15.6057 22.8896 15.8047C22.5954 16.016 22.2479 16.1125 21.8483 16.0982L21.8316 15.8048C22.2224 15.804 22.5431 15.7065 22.7922 15.5148C23.0074 15.3353 23.2173 15.0844 23.4219 14.7621L22.7963 14.418L22.9293 14.1762L23.5654 14.5261L23.8343 14.0371Z" fill="white"/>
<path d="M26.3715 15.4428L26.5548 15.6599C26.0712 16.1123 25.5961 16.4024 25.1309 16.5278L25.0245 16.2497C25.5019 16.1207 25.9522 15.8513 26.3715 15.4428ZM26.616 17.3769C26.6536 17.7645 26.6589 18.1552 26.6238 18.5515L26.3317 18.5313C26.34 18.4269 26.3509 18.3238 26.3563 18.2247C25.8593 18.0472 25.3204 17.8269 24.7346 17.561L24.8198 17.2936C25.0402 17.3333 25.5186 17.0687 26.2577 16.5013L26.4584 16.7176C26.0076 17.0514 25.5911 17.3083 25.2143 17.4911C25.6041 17.6656 25.9903 17.8213 26.3678 17.9552C26.3739 17.7339 26.3689 17.5271 26.3501 17.3333L26.616 17.3769ZM27.3325 15.9297C27.223 16.4904 27.2661 17.0204 27.4683 17.5199L27.1781 17.63C26.97 17.0968 26.9279 16.5332 27.0531 15.9368L27.3325 15.9297Z" fill="white"/>
<path d="M30.6387 17.7785L30.5114 18.0234L28.6667 17.0645L28.2585 17.8497C27.9615 18.3952 27.6173 18.7775 27.2287 18.9982L27.1256 18.7282C27.4452 18.5427 27.739 18.2052 28.0057 17.7183L28.5412 16.6881L30.6387 17.7785ZM28.5955 17.5008L30.2831 18.3781L30.1585 18.6176L29.509 18.28L28.903 19.4459C28.7992 19.6455 28.6534 19.6982 28.4671 19.6014L28.185 19.4547L28.2509 19.1847C28.3332 19.241 28.4157 19.2906 28.4955 19.3321C28.5727 19.3722 28.6375 19.3451 28.6846 19.2546L29.2588 18.1499L28.4709 17.7403L28.5955 17.5008Z" fill="white"/>
<path d="M31.0753 18.8199L31.3191 18.9428L31.1287 19.3205L31.4072 19.461L31.2924 19.6887L31.0138 19.5482L30.8599 19.8536C30.9926 19.8902 31.1213 19.9215 31.2419 19.9488L31.1203 20.1899C30.997 20.1613 30.8683 20.13 30.7369 20.0973L30.4492 20.6679L30.2055 20.545L30.4689 20.0226C30.3 19.9711 30.1231 19.9155 29.9435 19.8518L30.037 19.5865C30.23 19.6569 30.4162 19.7206 30.5931 19.7762L30.7701 19.4253L30.3415 19.2092L30.4014 18.9571C30.544 18.8476 30.7028 18.6992 30.8765 18.5079L30.6408 18.3891L30.765 18.1426L31.0651 18.2939C31.1418 18.2016 31.2213 18.1039 31.3008 17.9996L31.5244 18.1559C31.4516 18.2469 31.3802 18.3352 31.3115 18.4182L31.7937 18.6613L31.6694 18.9078L31.1229 18.6322C30.9614 18.8061 30.8079 18.9572 30.6599 19.0841L30.8849 19.1976L31.0753 18.8199ZM31.9008 18.7153L32.3053 18.9193C32.3821 18.8203 32.4562 18.7199 32.5317 18.6169L32.7687 18.7666C32.6959 18.8643 32.6258 18.9566 32.5598 19.0476L33.1812 19.361L33.057 19.6074L32.3846 19.2684C32.3226 19.3447 32.262 19.4182 32.2027 19.4892L32.9983 19.8903L32.8754 20.1341L32.0182 19.7019C31.9374 19.7888 31.8593 19.8704 31.788 19.9453L32.6237 20.3667L32.5184 20.5756C32.3462 20.7038 32.1325 20.8078 31.8693 20.89C31.936 20.9976 31.9947 21.1078 32.0506 21.2167L31.7979 21.3648C31.6301 21.0113 31.4339 20.7007 31.2067 20.4316L31.4446 20.2996C31.5462 20.418 31.6384 20.5418 31.7225 20.6682C31.9239 20.6152 32.0999 20.546 32.2478 20.4593L31.3584 20.0109C31.4944 19.8745 31.6291 19.7274 31.7664 19.5749L31.4503 19.4155L31.5732 19.1717L31.9509 19.3622C32.0129 19.2859 32.0735 19.2123 32.1328 19.1414L31.7765 18.9618L31.9008 18.7153Z" fill="white"/>
<path d="M33.2871 20.0782L33.8844 19.395L34.1195 19.5632L33.7358 19.9935L34.1347 20.1883C34.2834 20.0138 34.4265 19.8233 34.5668 19.6181L34.8125 19.7781C34.6761 19.9753 34.5383 20.155 34.4016 20.3186L35.6363 20.9215L35.5165 21.1669L34.2171 20.5324C34.1467 20.6082 34.0763 20.6772 34.0098 20.745L35.0881 21.2715L34.9828 21.4872C34.8048 21.674 34.5753 21.809 34.2889 21.8895C34.4385 22.1028 34.6352 22.329 34.8762 22.5669L34.6257 22.745C34.3574 22.4671 34.1469 22.2008 33.9943 21.9526C33.709 21.9969 33.3817 22.004 33.0124 21.9739L32.9961 21.6655C33.3131 21.7001 33.5975 21.7055 33.8456 21.683C33.7388 21.4573 33.6804 21.2418 33.6718 21.0406C33.2829 21.3448 32.8822 21.5431 32.4726 21.6369L32.4563 21.3351C32.9889 21.1879 33.4851 20.876 33.9449 20.3994L33.2871 20.0782ZM33.9263 20.9913C33.9376 21.1938 34.0053 21.4105 34.1309 21.6387C34.3679 21.5842 34.5643 21.4965 34.7161 21.377L33.9263 20.9913ZM35.2798 19.9696C35.3974 20.2006 35.484 20.4198 35.5409 20.6246L35.2681 20.7184C35.2287 20.5255 35.1488 20.3063 35.0244 20.0552L35.2798 19.9696Z" fill="white"/>
<path d="M37.5681 21.0692L37.8205 21.1881L37.4946 21.8802L37.2422 21.7613L37.5681 21.0692ZM36.3771 22.0139C36.2462 21.982 36.1153 21.9502 35.9856 21.9157L35.9897 21.6325C36.8707 21.8882 37.5975 21.9784 38.1674 21.9019C38.1111 21.7892 38.0493 21.6739 37.9821 21.556L38.2338 21.4722C38.4199 21.7953 38.5653 22.0992 38.6658 22.3787L38.401 22.4762C38.369 22.3682 38.3288 22.2564 38.2777 22.1395C37.9582 22.1913 37.604 22.197 37.2112 22.1579L38.172 22.6104L37.478 24.0842L37.2256 23.9653L37.2742 23.8622L36.0773 23.2985L36.0261 23.4071L35.7764 23.2895L36.3771 22.0139ZM36.1846 23.0705L37.3815 23.6342L37.4672 23.4523L36.2702 22.8887L36.1846 23.0705ZM36.3674 22.6824L37.5643 23.246L37.6423 23.0805L36.4453 22.5168L36.3674 22.6824ZM36.5412 22.3133L37.7381 22.8769L37.8187 22.7059L36.6217 22.1423L36.5412 22.3133ZM37.0691 21.0233L37.1755 21.269C36.9221 21.3917 36.6422 21.4722 36.337 21.5075L36.2785 21.2445C36.5675 21.2082 36.8302 21.1362 37.0691 21.0233Z" fill="white"/>
<path d="M38.8884 22.2312L39.9891 22.7312C39.9777 22.5679 39.9461 22.4053 39.8957 22.2407L40.1986 22.2629C40.2373 22.4387 40.2595 22.6366 40.2622 22.8553L41.2974 23.3256L41.1808 23.5824L40.7629 23.3925C40.4432 23.7481 40.0916 24.0069 39.7071 24.1716C39.8857 24.5328 40.1526 24.888 40.5038 25.2321L40.2597 25.3848C39.8944 25.0212 39.6215 24.65 39.4437 24.2727C39.0109 24.4056 38.5395 24.4352 38.0292 24.3616L37.9942 24.0689C38.4888 24.1552 38.9339 24.1399 39.3364 24.0229C39.1724 23.586 39.1234 23.1354 39.1896 22.6778L38.7717 22.4879L38.8884 22.2312ZM39.4382 22.7907C39.4003 23.1788 39.452 23.5581 39.5973 23.9273C39.929 23.7847 40.2296 23.5654 40.4952 23.2709L39.4382 22.7907Z" fill="white"/>
<path d="M42.7558 23.4111L42.9501 23.6334C42.7583 23.8181 42.5437 23.9798 42.3076 24.1157L41.5171 25.9278L41.2587 25.8151L41.916 24.3082C41.7529 24.3745 41.5827 24.4345 41.4067 24.4853L41.443 24.1771C41.9545 24.0173 42.3926 23.7633 42.7558 23.4111ZM42.9631 26.4997L42.4489 26.2754C42.2289 26.1794 42.1669 26.0214 42.2629 25.8015L42.5987 25.0315C42.477 25.0406 42.3524 25.0485 42.2263 25.0524L42.2161 24.7533C42.3933 24.7521 42.5663 24.7457 42.7319 24.7263L43.1985 23.6567L43.4598 23.7706L43.0639 24.678C43.4113 24.6169 43.7393 24.5177 44.0424 24.3783L44.1339 24.6637C43.7551 24.8192 43.3526 24.9316 42.9259 24.9943L42.5397 25.8797C42.5061 25.9567 42.5305 26.0132 42.6185 26.0515L43.0282 26.2303C43.0915 26.2579 43.1478 26.2563 43.1961 26.2282C43.2416 26.199 43.3244 26.0616 43.4402 25.811L43.6474 25.9964C43.4902 26.3042 43.3705 26.4811 43.2922 26.5255C43.2112 26.5687 43.1006 26.5597 42.9631 26.4997Z" fill="white"/>
<path d="M46.8104 25.1963L46.8403 25.482C46.5675 25.4653 46.2838 25.405 45.9879 25.3037L45.8001 25.752L46.655 26.1103L46.5495 26.3621L46.2839 26.2507L45.6763 27.7006L45.419 27.5927L46.0266 26.1429L45.6946 26.0038L45.5775 26.2832C45.3595 26.7644 45.0893 27.1065 44.7656 27.3124L44.6637 27.0355C44.9188 26.8691 45.1391 26.5841 45.3229 26.1765L45.8238 24.9812C46.1665 25.1183 46.4952 25.1878 46.8104 25.1963ZM44.4178 24.4245L44.9103 24.6309C44.9072 24.545 44.8975 24.4596 44.8826 24.3786L45.1723 24.448C45.1742 24.5366 45.1754 24.6347 45.1703 24.7399L45.6822 24.9544L45.5802 25.1979L44.3157 24.668L44.4178 24.4245ZM44.1269 25.041L44.4202 25.1639C44.4248 25.052 44.4215 24.9433 44.4093 24.8406L44.6749 24.851C44.6774 24.9692 44.6718 25.1067 44.6526 25.2613L44.9154 25.3714C45.0084 25.2738 45.097 25.1711 45.1824 25.0605L45.3828 25.242C45.3067 25.3305 45.2297 25.4056 45.1534 25.4712L45.4356 25.5894L45.3347 25.8302L44.8228 25.6156L44.7185 25.8647L45.1833 26.0595L45.0836 26.2974L44.6188 26.1026L44.308 26.8441C44.2384 27.0101 44.1123 27.0549 43.9297 26.9783L43.7858 26.918L43.8298 26.6502C43.8666 26.6787 43.9031 26.7004 43.939 26.7155C44.0054 26.7433 44.0502 26.7296 44.0734 26.6742L44.3587 25.9936L43.8662 25.7872L43.9659 25.5493L44.4584 25.7557L44.5628 25.5066L44.026 25.2817L44.1269 25.041ZM43.9812 25.9785L44.1982 26.128C44.0147 26.3797 43.8214 26.5849 43.6127 26.7414L43.4548 26.5126C43.6601 26.3644 43.8363 26.1845 43.9812 25.9785ZM44.8553 26.3221C44.853 26.5293 44.8439 26.7141 44.8251 26.8754L44.5689 26.8657C44.5966 26.6756 44.612 26.4836 44.6151 26.2897L44.8553 26.3221Z" fill="white"/>
<path d="M47.7214 26.5451L47.5599 26.4804L47.6525 26.2493L49.045 26.8069L48.9524 27.0381L48.7602 26.9611L48.3643 27.9498C48.444 27.9688 48.5197 27.9894 48.5927 28.0089L48.5057 28.2262C48.4288 28.2083 48.3531 28.1877 48.2762 28.1698L48.1312 28.5319L47.8862 28.4337L48.0189 28.1023C47.7019 28.0142 47.3638 27.9143 47.0068 27.7972L47.0726 27.5521L47.2887 27.6257L47.7214 26.5451ZM48.5151 26.863L47.9609 26.641L47.8806 26.8416L48.4349 27.0635L48.5151 26.863ZM47.5349 27.7049C47.7366 27.7663 47.9287 27.8271 48.1081 27.8795L48.185 27.6873L47.6308 27.4654L47.5349 27.7049ZM47.7156 27.2537L48.2698 27.4757L48.3501 27.2752L47.7959 27.0532L47.7156 27.2537ZM48.4364 28.7866L48.2777 28.723L48.3101 28.4484L48.4778 28.522C48.5446 28.5487 48.602 28.5103 48.6421 28.41L49.3626 26.6109L48.3154 26.1916L48.4135 25.9465L49.7169 26.4685L48.8694 28.5851C48.7835 28.7995 48.6369 28.8669 48.4364 28.7866ZM47.2665 25.8976L47.5227 26.0002L46.6774 28.1113L46.4212 28.0087L47.2665 25.8976ZM47.9418 25.5993C48.0042 25.7826 48.0509 25.9726 48.0781 26.1709L47.7895 26.1975C47.764 25.9869 47.7195 25.7914 47.6572 25.6081L47.9418 25.5993Z" fill="white"/>
<path d="M51.8356 28.2493L52.119 27.5065L52.3881 27.6092L52.0064 28.6098L51.1515 28.2837L50.7825 29.2507L51.5085 29.5277L51.7919 28.7849L52.0581 28.8865L51.6261 30.0189L51.3598 29.9173L51.4112 29.7827L49.6846 29.124L49.6332 29.2585L49.367 29.157L49.799 28.0246L50.0653 28.1262L49.7819 28.8689L50.5078 29.1459L50.8768 28.1789L50.0219 27.8527L50.4036 26.8521L50.6727 26.9547L50.3893 27.6975L50.9751 27.921L51.3398 26.9652L51.6145 27.07L51.2498 28.0258L51.8356 28.2493Z" fill="white"/>
<path d="M53.3277 27.7527L53.5899 27.8481L53.3264 28.5726L53.4618 28.6218L53.3664 28.8841L52.7321 28.6534L52.6931 28.7605C52.6644 28.8395 52.6339 28.9146 52.6044 28.9868L53.1458 29.1837L52.6957 30.4214L52.4335 30.326L52.7903 29.3449L52.497 29.2383C52.3135 29.6376 52.1226 29.9257 51.9298 30.1046L51.7904 29.856C52.0052 29.634 52.2189 29.2393 52.4309 28.6652L52.8082 27.6276L53.0704 27.723L52.8274 28.3912L53.0642 28.4773L53.3277 27.7527ZM53.7394 29.0612L53.6532 29.298C53.4451 29.8352 53.1914 30.2345 52.8941 30.4903L52.7815 30.2292C53.0189 30.0154 53.2265 29.6727 53.408 29.2088L53.8057 28.1149C54.2571 28.2694 54.679 28.3558 55.0752 28.3722L55.1178 28.659C54.7559 28.6359 54.3745 28.5611 53.968 28.4324L53.8316 28.8074L54.8607 29.1816L54.7777 29.41C54.5803 29.7596 54.3517 30.0372 54.0882 30.235C54.1564 30.4514 54.2633 30.6403 54.4127 30.7999L54.1951 30.9858C54.0318 30.8115 53.9157 30.6128 53.8419 30.3945C53.6358 30.5047 53.4108 30.5793 53.1678 30.6154L53.1271 30.3324C53.3644 30.2943 53.5771 30.2184 53.7699 30.1097C53.7173 29.8065 53.7294 29.4661 53.8042 29.0847L53.7394 29.0612ZM54.0439 29.1719C54.0003 29.4497 53.9905 29.7047 54.0223 29.9334C54.2107 29.7752 54.3745 29.5794 54.5119 29.3421L54.0439 29.1719Z" fill="white"/>
<path d="M57.9993 29.4794L57.9095 29.7404L55.9437 29.0637L55.6556 29.9005C55.4421 30.4838 55.1581 30.9127 54.8062 31.1882L54.6645 30.9363C54.9533 30.7057 55.1941 30.3286 55.3861 29.8077L55.764 28.71L57.9993 29.4794ZM55.9375 29.5057L57.7359 30.1248L57.648 30.3801L56.9559 30.1419L56.5282 31.3843C56.4549 31.5971 56.3185 31.6707 56.12 31.6023L55.8193 31.4988L55.8448 31.222C55.9345 31.2656 56.0233 31.3025 56.1084 31.3318C56.1906 31.3601 56.2508 31.3237 56.284 31.2273L56.6892 30.0501L55.8496 29.761L55.9375 29.5057Z" fill="white"/>
<path d="M58.4217 30.4243L59.2492 30.693L59.2965 30.5474L59.5647 30.6345L59.5174 30.78L60.3335 31.045L60.2566 31.2818L59.4405 31.0169L59.3701 31.2337L60.5115 31.6043L60.4355 31.8383L59.9077 31.6669L59.8354 31.8894L60.2406 32.021L60.1637 32.2578L59.7585 32.1263L59.6316 32.5172C59.5732 32.6969 59.4437 32.7558 59.2497 32.6928L58.8474 32.5622L58.8708 32.286C58.9984 32.34 59.1183 32.3884 59.2324 32.4254C59.3123 32.4514 59.3634 32.4301 59.3837 32.3673L59.4903 32.0392L57.9009 31.5232L57.9778 31.2864L59.5672 31.8024L59.6394 31.5798L57.8817 31.0091L57.9577 30.7752L59.1019 31.1466L59.1723 30.9298L58.3448 30.6611L58.4217 30.4243ZM58.4054 31.7374C58.5037 31.9302 58.5733 32.0947 58.6171 32.232L58.3587 32.3089C58.312 32.1613 58.2405 31.993 58.1413 31.8031L58.4054 31.7374ZM58.694 30.0617C58.5876 30.1659 58.4755 30.2588 58.3575 30.3404L58.1717 30.116C58.4021 29.97 58.5876 29.7968 58.733 29.5917L58.9713 29.7322C58.9375 29.778 58.9009 29.8229 58.8671 29.8687L59.549 30.0901L59.4759 30.3155L59.0364 30.1728C59.0714 30.2788 59.0978 30.3725 59.1136 30.4597L58.8386 30.4713C58.8214 30.3396 58.7919 30.207 58.7511 30.0802L58.694 30.0617ZM59.8553 30.4292C59.78 30.5057 59.7018 30.5718 59.6225 30.6312L59.4454 30.4191C59.6199 30.2897 59.7667 30.1387 59.881 29.9613L60.1174 30.098C60.0836 30.1438 60.0526 30.1905 60.0198 30.2334L60.7987 30.4863L60.7256 30.7118L60.2662 30.5626C60.304 30.6695 60.3285 30.7689 60.3415 30.8552L60.0788 30.8677C60.0588 30.735 60.0284 30.6053 59.9894 30.4728L59.8553 30.4292Z" fill="white"/>
<path d="M61.4561 31.1359C61.4779 31.2806 61.486 31.4493 61.4834 31.6429L61.7388 31.7208C61.8532 31.5926 61.9644 31.454 62.0668 31.3033L62.2903 31.4655C62.1949 31.5933 62.101 31.7058 62.0057 31.8022L62.3156 31.8967L62.236 32.1578L60.7926 31.7177L60.8722 31.4566L61.228 31.5651C61.2215 31.4219 61.2075 31.2828 61.1822 31.1496L61.4561 31.1359ZM62.7163 30.9838L63.712 31.2874L63.649 31.494C63.4708 31.7596 63.2901 32.0025 63.1098 32.2235C63.2417 32.5523 63.2851 32.8007 63.2372 32.968C63.1777 33.1632 63.0964 33.2858 62.9991 33.3376C62.896 33.3877 62.7202 33.3781 62.4791 33.3046L62.4805 32.9913C62.5803 33.0343 62.6647 33.0663 62.7364 33.0882C62.8004 33.1046 62.8487 33.1005 62.8764 33.0713C62.9024 33.0478 62.9311 32.9845 62.9646 32.8849C63.0116 32.7205 62.9624 32.4702 62.82 32.1351C62.9803 31.9488 63.1509 31.7185 63.3337 31.4481L62.9033 31.3168L62.2042 33.6096L61.9402 33.5291L62.7163 30.9838ZM61.1665 30.6869L61.6945 30.8479C61.6912 30.7559 61.6861 30.6697 61.6784 30.5921L61.9707 30.6311C61.9712 30.7221 61.969 30.8218 61.9613 30.9293L62.5295 31.1025L62.4499 31.3637L61.0869 30.9481L61.1665 30.6869ZM62.0573 32.3323L61.7144 33.4571L61.4417 33.374L61.4872 33.2248L60.8502 33.0306L60.8047 33.1798L60.5378 33.0984L60.8808 31.9735L62.0573 32.3323ZM60.9289 32.7723L61.566 32.9665L61.706 32.5074L61.0689 32.3132L60.9289 32.7723Z" fill="white"/>
<path d="M65.4284 34.5306L65.1918 34.4632L65.1957 34.1867L65.4451 34.264C65.5201 34.2853 65.5753 34.2449 65.6041 34.1439L66.1328 32.2888L65.048 31.9797L65.1203 31.7258L66.4706 32.1106L65.8481 34.2946C65.7856 34.5139 65.6448 34.5923 65.4284 34.5306ZM63.9987 31.7867L64.2641 31.8623L63.6409 34.0492L63.3754 33.9736L63.9987 31.7867ZM64.6252 31.4162C64.7135 31.6098 64.7825 31.8166 64.8308 32.0301L64.5486 32.09C64.4965 31.8568 64.4284 31.6471 64.3459 31.4551L64.6252 31.4162Z" fill="white"/>
<path d="M67.6425 32.3044C67.7143 32.4786 67.7793 32.6666 67.8347 32.8674L67.6311 32.9097L68.2314 33.0687C68.3796 32.9311 68.5246 32.7585 68.6658 32.5538L68.9162 32.6978C68.8017 32.8723 68.6752 33.0219 68.5417 33.151L69.0927 33.2969L69.022 33.5637L68.0766 33.3133L68.0528 33.4032C68.0101 33.5408 67.9618 33.6646 67.91 33.7781L69.0642 34.0839L68.9935 34.3507L67.9785 34.0818C68.0276 34.4703 68.3171 34.8418 68.8462 35.1993L68.6147 35.4172C68.0718 35.0065 67.7737 34.5737 67.7138 34.1203C67.6255 34.2427 67.5294 34.3476 67.4264 34.432C67.16 34.6408 66.7851 34.7556 66.3017 34.7765L66.2146 34.4958C66.6996 34.4692 67.0496 34.3664 67.2675 34.1882C67.3449 34.1187 67.4159 34.0382 67.4797 33.9496L66.4879 33.6868L66.5586 33.42L67.6258 33.7028C67.6813 33.5871 67.7325 33.4642 67.7744 33.3294L67.7982 33.2395L66.8499 32.9883L66.9206 32.7215L67.5412 32.8859C67.4901 32.6923 67.4278 32.5175 67.3579 32.3594L67.6425 32.3044Z" fill="white"/>
<path d="M69.8677 32.981L72.0735 33.521L72.0072 33.792L71.0777 33.5644L70.9036 34.2754L72.0371 34.5529L71.9694 34.8297L70.8358 34.5522L70.5926 35.5459C70.5426 35.7499 70.4091 35.8284 70.1964 35.7763L69.7331 35.6629L69.7405 35.3805C69.8869 35.4257 70.0283 35.4664 70.1623 35.4993C70.2556 35.5221 70.3129 35.4898 70.3329 35.4082L70.559 34.4845L69.3759 34.1949L69.4437 33.918L70.6268 34.2077L70.8008 33.4966L69.8013 33.252L69.8677 32.981Z" fill="white"/>
<path d="M73.386 33.8241L75.1779 34.2241L75.0721 34.5878L75.4176 34.6649L75.3594 34.9255L74.9963 34.8444L74.8906 35.2081L73.0255 34.7918L73.1576 34.434L72.7945 34.3529L72.8527 34.0923L73.2509 34.1812L73.386 33.8241ZM73.367 34.6252L73.8852 34.7409L73.9446 34.5851L73.4293 34.47L73.367 34.6252ZM73.5128 34.2612L74.0222 34.3749L74.078 34.2214L73.5744 34.109L73.5128 34.2612ZM74.3357 34.2789L74.2799 34.4324L74.8069 34.5501L74.8539 34.3946L74.3357 34.2789ZM74.741 34.7628L74.2022 34.6426L74.1429 34.7984L74.6904 34.9206L74.741 34.7628ZM74.9168 35.38L74.7017 36.3432L74.4236 36.2812L74.5817 35.5726L73.2144 35.2674L73.0562 35.9759L72.7751 35.9132L72.9902 34.9499L74.9168 35.38ZM73.9318 36.0884C74.3113 36.2745 74.6512 36.4734 74.9513 36.6848L74.7504 36.8828C74.4284 36.645 74.0928 36.4409 73.7412 36.2672L73.9318 36.0884ZM73.7787 35.5347L74.048 35.6225C73.943 35.9003 73.7691 36.1012 73.5255 36.2282C73.3094 36.3429 72.9628 36.3946 72.4864 36.3805L72.4327 36.098C72.84 36.1182 73.1427 36.0844 73.3406 35.9964C73.5415 35.909 73.6867 35.754 73.7787 35.5347Z" fill="white"/>
<path d="M76.1552 34.319L76.3737 34.4796C76.1964 34.7497 75.9457 34.9744 75.6246 35.1541L75.5924 34.8598C75.8235 34.7169 76.0128 34.538 76.1552 34.319ZM76.1293 34.9749L76.3395 35.1308C76.2715 35.2395 76.193 35.3399 76.1056 35.4384L75.7751 37.0672L75.5075 37.013L75.7659 35.7399C75.6727 35.8067 75.5778 35.867 75.4806 35.9238L75.4532 35.6366C75.7331 35.4639 75.9585 35.2433 76.1293 34.9749ZM76.2683 36.598L76.2448 36.3514C76.3132 36.3163 76.3575 36.2487 76.3778 36.1488L76.5186 35.4549L76.3127 35.459L76.324 35.2073L76.5699 35.2021L76.7137 34.4935L76.9724 34.546L76.8406 35.1958L77.1512 35.1884L77.1364 35.4425L76.7892 35.4486L76.6138 36.313C76.7221 36.2921 76.8281 36.2677 76.9347 36.2404L76.9552 36.471C77.1514 36.168 77.2978 35.7783 77.3998 35.3062L77.4487 35.0651L77.1488 35.0042L77.1995 34.7543L78.3167 34.9811C78.0912 36.0924 77.9369 36.7774 77.8579 37.0308C77.776 37.2835 77.6139 37.3884 77.367 37.3383C77.3111 37.3269 77.2153 37.3014 77.0812 37.268L77.066 37.0262C77.1854 37.0565 77.2877 37.0803 77.3759 37.0982C77.4876 37.1209 77.5708 37.0429 77.6248 36.8671C77.6765 36.7031 77.8028 36.141 78.0044 35.1779L77.7045 35.117L77.6556 35.3581C77.4618 36.2677 77.1088 36.891 76.5965 37.2278L76.4265 37.0097C76.6305 36.8796 76.8039 36.7036 76.9511 36.4763C76.7585 36.5352 76.5295 36.5775 76.2683 36.598Z" fill="white"/>
<path d="M78.6582 35.0201L79.3104 35.1392L79.3417 34.968L79.6132 35.0176L79.5819 35.1888L80.3079 35.3214L80.3392 35.1502L80.6107 35.1998L80.5794 35.3709L81.2317 35.49L81.1875 35.732L80.5353 35.6129L80.4997 35.8077L80.2282 35.7581L80.2637 35.5634L79.5377 35.4308L79.5043 35.6138L79.2328 35.5642L79.2662 35.3812L78.614 35.2621L78.6582 35.0201ZM78.8607 35.4474C79.0302 35.5882 79.1702 35.7235 79.2801 35.8564L79.0527 36.0162C78.9565 35.8919 78.8176 35.7506 78.6355 35.5954L78.8607 35.4474ZM78.6392 36.026C78.8146 36.1679 78.9575 36.3037 79.0709 36.4342L78.8411 36.5905C78.7414 36.4686 78.599 36.3298 78.414 36.174L78.6392 36.026ZM78.7312 36.7077L78.953 36.8458C78.7868 37.1051 78.6089 37.3441 78.422 37.5661L78.1726 37.3955C78.3772 37.1767 78.5628 36.9453 78.7312 36.7077ZM80.5304 37.0423C80.3445 36.9413 80.1815 36.8322 80.0442 36.7157C79.8756 36.7703 79.6934 36.8163 79.4975 36.8537L80.5304 37.0423ZM80.3118 36.6029C80.5167 36.7501 80.7607 36.8831 81.051 36.9971L80.8531 37.1958C80.7825 37.1646 80.7173 37.1375 80.6586 37.1084L80.4964 37.9967L80.2367 37.9493L80.2572 37.8372L79.4131 37.683L79.3926 37.7952L79.1329 37.7478L79.2903 36.886C79.228 36.8929 79.1693 36.8974 79.1129 36.9055L78.987 36.6598C79.3144 36.6373 79.5972 36.5913 79.842 36.5202C79.7557 36.4251 79.6822 36.3263 79.6246 36.2243C79.5017 36.2964 79.3744 36.3585 79.2394 36.4132L79.1154 36.174C79.4734 36.0503 79.7362 35.8635 79.8998 35.6189L80.1509 35.7135C80.1171 35.7653 80.0838 35.8141 80.0486 35.8565L80.8749 36.0074L80.8394 36.2022C80.7032 36.3633 80.5265 36.4957 80.3118 36.6029ZM79.8142 36.0881C79.8892 36.2116 79.9846 36.3236 80.0994 36.4299C80.2642 36.3624 80.4041 36.2812 80.516 36.1858L79.8461 36.0635C79.8321 36.0731 79.8217 36.0804 79.8142 36.0881ZM79.4573 37.441L80.3014 37.5952L80.3617 37.2646L79.5177 37.1105L79.4573 37.441Z" fill="white"/>
<path d="M82.8009 37.7802C82.516 37.9909 82.097 38.1165 81.547 38.1574L81.4366 37.8905C82.0119 37.845 82.4198 37.7297 82.6582 37.541L82.7206 37.4822L81.5751 37.2754L81.6231 37.0097L82.9133 37.2426C83.0161 37.0783 83.0931 36.8879 83.1444 36.6716L83.2094 36.3114L83.481 36.3605L83.416 36.7207C83.3677 36.9375 83.2995 37.1295 83.2085 37.2959L84.1355 37.4633L84.0875 37.729L83.0454 37.5408C83.0263 37.5618 83.0073 37.5828 82.9912 37.6042C83.3699 37.8372 83.7107 38.0939 84.0148 38.3683L83.8175 38.5826C83.4962 38.2685 83.157 38.003 82.8009 37.7802ZM82.1466 36.525C82.3407 36.6484 82.514 36.7864 82.6663 36.9389L82.4816 37.1342C82.3237 36.9624 82.151 36.8215 81.97 36.7095L82.1466 36.525ZM82.5105 36.1639C82.7052 36.2844 82.8784 36.4224 83.0278 36.5743L82.8432 36.7696C82.6847 36.6008 82.5154 36.4574 82.3345 36.3455L82.5105 36.1639ZM84.3515 36.1152L84.2422 36.7205L83.9706 36.6714L84.0335 36.323L82.1086 35.9755L82.0457 36.3238L81.7741 36.2748L81.8834 35.6696L82.9905 35.8695C82.9729 35.781 82.9543 35.6983 82.9317 35.6211L83.2266 35.6256C83.2471 35.7146 83.263 35.812 83.2739 35.9207L84.3515 36.1152Z" fill="white"/>
<path d="M86.0608 36.2871L86.3436 36.3675L86.2017 36.8667L87.2289 37.1588L86.8326 38.5526L86.5585 38.4746L86.6053 38.3101L85.8521 38.096L85.5773 39.0627L85.2945 38.9823L85.5693 38.0156L84.8191 37.8022L84.7723 37.9667L84.4982 37.8888L84.8945 36.495L85.9189 36.7863L86.0608 36.2871ZM84.8954 37.5339L85.6456 37.7472L85.8426 37.0547L85.0923 36.8413L84.8954 37.5339ZM85.9284 37.8276L86.6816 38.0418L86.8785 37.3492L86.1254 37.1351L85.9284 37.8276Z" fill="white"/>
<path d="M88.1854 37.579L89.5779 38.0947L89.4883 38.3366L88.9285 38.1293L88.8004 38.4753L89.273 38.6504L89.1855 38.8867L88.7129 38.7117L88.568 39.1027L88.855 39.209C88.846 39.0777 88.828 38.9622 88.803 38.857L89.039 38.8676C89.0704 38.9816 89.0912 39.0981 89.0994 39.2227L88.9225 39.234L89.2095 39.3402L89.1199 39.5822L87.5698 39.0082L87.6593 38.7662L88.298 39.0027L88.4428 38.6117L87.9701 38.4366L88.0576 38.2003L88.5303 38.3753L88.6584 38.0293L88.0958 37.8209L88.1854 37.579ZM90.2303 37.8276L89.3104 40.3117L89.0403 40.2117L89.0799 40.1048L87.2569 39.4298L87.2173 39.5367L86.9472 39.4367L87.8671 36.9525L90.2303 37.8276ZM87.3496 39.1794L89.1726 39.8544L89.8664 37.9808L88.0434 37.3057L87.3496 39.1794Z" fill="white"/>
<path d="M90.3795 39.0402C90.2563 39.1038 90.1287 39.1622 89.9942 39.2142L90.0317 38.8994C90.4499 38.7105 90.8186 38.4406 91.1375 38.083L91.3335 38.3075C91.1739 38.4829 90.996 38.6404 90.8025 38.7812L89.9917 40.6138L89.7338 40.4997L90.3795 39.0402ZM91.2349 38.523L91.7616 38.7561L91.9826 38.4569L92.2268 38.5944C92.1575 38.6917 92.0879 38.7823 92.0223 38.8714L92.8124 39.2209L92.7007 39.4733L91.8447 39.0946C91.7773 39.173 91.7149 39.2472 91.6538 39.3185L92.6991 39.781L92.5887 40.0306L91.4611 39.5318C91.3766 39.619 91.2984 39.6993 91.22 39.7728L92.3119 40.2559L92.2124 40.4809C92.0249 40.6079 91.7799 40.7094 91.4706 40.7858C91.5591 40.8972 91.6424 41.0128 91.7191 41.1287L91.4714 41.2881C91.2362 40.9151 90.9682 40.5866 90.6741 40.3023L90.905 40.1584C91.043 40.2916 91.1717 40.4306 91.2938 40.5699C91.5441 40.5231 91.756 40.4594 91.928 40.3747L90.7757 39.865C90.9223 39.7264 91.067 39.5772 91.2114 39.4213L90.778 39.2296L90.8884 38.9799L91.4014 39.2069C91.4638 39.1328 91.5261 39.0586 91.5869 38.9805L91.1232 38.7754L91.2349 38.523Z" fill="white"/>
<path d="M93.3562 41.3553L93.2327 41.5988C92.9268 41.5985 92.597 41.5591 92.2486 41.4767L92.348 41.2075C92.7111 41.3008 93.0489 41.3509 93.3562 41.3553ZM93.8169 39.2916L94.0116 39.5114C93.7217 39.7647 93.4617 39.9592 93.2329 40.0921C93.3293 40.1275 93.4271 40.1602 93.5262 40.1903C93.6151 40.1277 93.7107 40.0585 93.8091 39.9839L93.9931 40.1848C93.5729 40.483 93.2417 40.6919 92.9969 40.8099C93.1859 40.8485 93.3843 40.8751 93.5935 40.887L93.4755 41.1198C93.1255 41.0937 92.8092 41.0343 92.5279 40.9456L92.5804 40.6762C92.6367 40.6778 92.6864 40.6727 92.7334 40.6596C92.8611 40.6133 93.0428 40.5137 93.2784 40.3607C93.1445 40.3197 93.0065 40.2733 92.8632 40.2242L92.917 39.9589C92.9653 39.9632 93.0204 39.9474 93.0769 39.9155C93.3261 39.7424 93.5727 39.5345 93.8169 39.2916ZM93.7484 40.7805L93.8061 40.5273C93.8302 40.5328 93.853 40.5342 93.8665 40.5343C93.9766 40.5161 94.1582 40.4165 94.4061 40.2394L93.9913 40.0292L94.1147 39.7857L94.765 40.1152C94.7763 40.0133 94.7822 39.9154 94.7827 39.8215L95.0639 39.9103C95.0553 40.0135 95.0426 40.1248 95.0219 40.2454L95.6079 40.5425L95.4845 40.786L94.671 40.3737C94.4716 40.5148 94.3061 40.6159 94.1715 40.6822C94.3991 40.7707 94.6295 40.8538 94.8598 40.9302C94.8443 40.8281 94.8274 40.7287 94.8105 40.6293L95.0642 40.6066C95.1255 40.9236 95.1602 41.1934 95.1698 41.4135L94.9026 41.4496C94.9017 41.3718 94.8954 41.2913 94.8905 41.208C94.5329 41.0907 94.1513 40.9477 93.7484 40.7805ZM93.9044 40.9638L94.1505 41.0886C93.9649 41.4217 93.796 41.6488 93.6464 41.7714C93.4847 41.898 93.283 41.9774 93.0386 42.0083L92.9798 41.7262C93.1785 41.7058 93.3438 41.645 93.4759 41.5438C93.6025 41.4465 93.7445 41.2528 93.9044 40.9638ZM94.3073 42.5975L94.136 42.5107C93.9461 42.4144 93.8958 42.2813 93.9812 42.1127L94.4437 41.2002L94.6873 41.3237L94.2492 42.188C94.2275 42.2308 94.23 42.2657 94.2594 42.2873L94.4092 42.3633C94.4601 42.3823 94.5072 42.3625 94.5451 42.3009C94.5897 42.2328 94.648 42.1311 94.7158 41.9973L94.8959 42.1861C94.7657 42.443 94.6656 42.5874 94.5983 42.6273C94.5337 42.6618 94.4358 42.6492 94.3073 42.5975Z" fill="white"/>
<path d="M97.0708 41.5664L96.1957 41.0722L96.33 40.8345L98.3335 41.9661L98.1992 42.2038L97.3215 41.7081L96.4245 43.2962L97.4667 43.8849L97.3309 44.1252L94.9931 42.8047L95.1289 42.5644L96.1737 43.1546L97.0708 41.5664Z" fill="white"/>
<path d="M98.7374 42.2472L99.315 42.6022L99.4517 42.3798L99.6996 42.5322L99.5629 42.7545L100.176 43.1315L100.313 42.9091L100.561 43.0615L100.424 43.2839L101.002 43.6388L100.862 43.8663L100.285 43.5113L100.16 43.7133L99.9125 43.5609L100.037 43.359L99.4232 42.982L99.2991 43.1839L99.0511 43.0316L99.1752 42.8297L98.5976 42.4747L98.7374 42.2472ZM98.6495 42.9116L100.347 43.9545L100.204 44.1871C99.2653 44.1385 98.6313 44.1503 98.3043 44.2241C98.197 44.2497 98.1256 44.2798 98.0846 44.3179C98.061 44.3563 98.0689 44.3893 98.1149 44.4176L99.3699 45.1888C99.4389 45.2312 99.5036 45.2463 99.5598 45.235C99.6144 45.2264 99.7362 45.097 99.9251 44.8468L100.093 45.0771C99.8832 45.3563 99.7247 45.5054 99.6154 45.5227C99.5103 45.5391 99.3892 45.507 99.2563 45.4253L97.9911 44.6478C97.7661 44.5096 97.7049 44.3628 97.8023 44.2043C97.8683 44.097 98.0312 44.021 98.2858 43.9733C98.6215 43.9084 99.1274 43.8989 99.7999 43.9389L98.5066 43.1442L98.6495 42.9116Z" fill="white"/>
<path d="M100.209 46.0819L99.9938 45.9398L100.091 45.6839C100.149 45.7369 100.206 45.7815 100.266 45.8212C100.324 45.8592 100.375 45.8465 100.418 45.7814L100.773 45.243C100.66 45.2186 100.55 45.1891 100.44 45.1597L100.531 44.8964C100.658 44.944 100.79 44.9842 100.924 45.0152L101.282 44.4718L100.999 44.2851L101.15 44.0572L101.433 44.2439L101.722 43.8057L101.952 43.9578L101.663 44.3959L101.909 44.5579L101.758 44.7857L101.513 44.6238L101.217 45.072C101.329 45.0881 101.441 45.0976 101.553 45.107L101.4 45.3399C101.289 45.328 101.18 45.3135 101.068 45.2974L100.609 45.9935C100.502 46.1562 100.367 46.186 100.209 46.0819ZM101.733 45.4881C101.396 45.9232 101.043 46.2294 100.674 46.4067L100.6 46.1316C100.973 45.9535 101.337 45.604 101.694 45.0847L102.236 44.2635L103.565 45.1408L103.418 45.3637L102.314 44.635L101.919 45.2335C101.909 45.2485 101.899 45.2594 101.889 45.2744L103.018 46.0196L102.872 46.2399L102.429 45.9475C102.361 46.0676 102.312 46.1901 102.282 46.3176C102.412 46.317 102.552 46.2947 102.704 46.244L102.758 46.4951C102.582 46.5442 102.408 46.5625 102.242 46.5466C102.221 46.7697 102.25 47.0042 102.33 47.2476L102.055 47.3038C101.912 46.7636 101.971 46.2666 102.231 45.8169L102.079 45.7161L101.537 46.5374C101.657 46.5735 101.778 46.6029 101.896 46.6306L101.82 46.8606C101.608 46.8217 101.371 46.7512 101.104 46.6543L101.169 46.4135C101.254 46.4264 101.321 46.3953 101.368 46.3252L101.863 45.574L101.733 45.4881ZM102.284 44.9206L103.19 45.5187L103.048 45.734L102.142 45.1359L102.284 44.9206Z" fill="white"/>
<path d="M103.209 46.3818L104.572 47.3379C104.98 47.1329 105.38 46.8752 105.776 46.5667L105.947 46.8146C105.527 47.1209 105.149 47.3508 104.817 47.5102L105.449 47.953L105.29 48.179L103.05 46.6077L103.209 46.3818ZM104.23 45.6944C104.198 45.9949 104.144 46.3124 104.07 46.6486L103.773 46.6016C103.858 46.2615 103.913 45.9416 103.939 45.6442L104.23 45.6944ZM104.925 45.9622C104.881 46.2758 104.814 46.6063 104.727 46.9554L104.435 46.9119C104.525 46.5578 104.592 46.2232 104.63 45.9128L104.925 45.9622ZM103.636 47.1618L103.775 47.4131C103.41 47.5784 103.043 47.6837 102.67 47.7298L102.572 47.4561C102.934 47.4164 103.287 47.32 103.636 47.1618ZM104.592 47.8103C104.65 48.2503 104.675 48.6121 104.67 48.9016L104.355 48.9008C104.372 48.5899 104.354 48.2225 104.305 47.796L104.592 47.8103Z" fill="white"/>
<path d="M106.692 48.2991L107.324 48.7665L107.846 48.0599L108.083 48.2347L107.56 48.9414L108.158 49.3839L107.99 49.6106L107.392 49.1681L106.431 50.4681L106.194 50.2932L107.156 48.9933L106.524 48.5258L106.692 48.2991ZM106.76 47.2894C106.829 47.5236 106.874 47.7399 106.893 47.9408L106.619 47.984C106.606 47.7992 106.563 47.5805 106.484 47.3284L106.76 47.2894ZM105.924 47.7533L106.481 48.1655L105.721 49.1929C105.844 49.1873 105.978 49.1738 106.121 49.1567L106.008 49.4352C105.747 49.4657 105.484 49.4729 105.224 49.456L105.289 49.1867C105.355 49.1833 105.407 49.1584 105.443 49.1101L106.099 48.2226L105.761 47.9728L105.924 47.7533Z" fill="white"/>
<path d="M110.099 50.1054L110.317 50.2745L109.181 51.7399L108.963 51.5708L110.099 50.1054ZM109.03 52.4155L108.688 52.1509L108.803 51.8947C108.907 51.9905 109.008 52.0761 109.108 52.1533C109.174 52.2048 109.235 52.1992 109.285 52.1351L110.728 50.2738L110.951 50.4466L109.464 52.3648C109.339 52.5261 109.193 52.5423 109.03 52.4155ZM109.655 50.2472L109.522 50.4929L108.774 50.0766C108.701 50.1906 108.64 50.2989 108.591 50.4013C108.54 50.5061 108.494 50.6038 108.461 50.6957C108.698 50.6442 108.937 50.5562 109.176 50.4298L109.294 50.6843C108.973 50.8532 108.66 50.9635 108.354 51.0108C108.339 51.064 108.328 51.1124 108.321 51.1603C108.295 51.3603 108.318 51.4879 108.382 51.5417C108.426 51.564 108.552 51.4796 108.763 51.2904L108.857 51.5607C108.728 51.654 108.611 51.7266 108.504 51.7765C108.375 51.8357 108.275 51.8419 108.209 51.7904C108.095 51.7022 108.044 51.5376 108.05 51.2994C108.052 51.2137 108.062 51.1268 108.081 51.0389C107.847 51.0472 107.617 51.0207 107.391 50.9595L107.412 50.6532C107.661 50.7244 107.911 50.7547 108.163 50.7378C108.198 50.6285 108.238 50.5187 108.288 50.4055C108.349 50.263 108.43 50.1095 108.53 49.9407L108.206 49.7615L108.342 49.5176L108.677 49.7018C108.808 49.4992 108.964 49.2785 109.146 49.0437L109.373 49.2202C109.201 49.4431 109.049 49.6483 108.924 49.8395L109.655 50.2472ZM109.698 49.4528C109.702 49.6233 109.695 49.8038 109.676 49.9901L109.413 49.9379C109.438 49.7487 109.448 49.57 109.443 49.3995L109.698 49.4528Z" fill="white"/>
<path d="M111.104 53.3515C110.753 53.3991 110.325 53.3075 109.823 53.0788L109.855 52.7917C110.381 53.0286 110.794 53.1238 111.094 53.0731L111.177 53.0516L110.272 52.3191L110.442 52.1093L111.461 52.9343C111.63 52.8397 111.79 52.7099 111.939 52.5449L112.169 52.2605L112.383 52.4341L112.153 52.7186C112.006 52.8855 111.854 53.0209 111.694 53.123L112.426 53.7158L112.256 53.9257L111.433 53.2593C111.407 53.2685 111.38 53.2777 111.356 53.2888C111.575 53.6752 111.751 54.0642 111.885 54.451L111.609 54.5441C111.479 54.1141 111.309 53.7181 111.104 53.3515ZM111.134 51.9362C111.245 52.1379 111.331 52.3422 111.391 52.5492L111.135 52.6315C111.079 52.4049 110.996 52.1983 110.891 52.013L111.134 51.9362ZM111.627 51.7948C111.74 51.9942 111.825 52.1985 111.883 52.4036L111.627 52.4859C111.57 52.2616 111.49 52.0545 111.385 51.8693L111.627 51.7948ZM113.264 52.638L112.877 53.116L112.663 52.9423L112.886 52.6672L111.365 51.4363L111.143 51.7114L110.928 51.5377L111.315 51.0597L112.19 51.7677C112.217 51.6816 112.24 51.6003 112.258 51.5216L112.514 51.6675C112.489 51.7554 112.456 51.8484 112.413 51.9489L113.264 52.638Z" fill="white"/>
<path d="M113.538 53.0375L113.87 53.3177C113.916 53.1838 113.954 53.055 113.98 52.9314L114.235 53.0798C114.195 53.2067 114.145 53.3451 114.082 53.4954L114.352 53.7233L114.175 53.9345L113.727 53.5578L113.501 53.8263L113.907 54.1683C113.405 54.765 113.083 55.1249 112.946 55.2494C112.808 55.3678 112.647 55.354 112.463 55.1994C112.445 55.184 112.416 55.1523 112.377 55.111L112.493 54.8754C112.528 54.917 112.561 54.9525 112.593 54.9796C112.674 55.0472 112.755 55.0488 112.836 54.9842C112.913 54.9159 113.146 54.6531 113.535 54.2002L113.329 54.0264C112.888 54.522 112.488 54.8247 112.129 54.9343L112.086 54.6548C112.416 54.5477 112.792 54.245 113.212 53.7512L113.521 53.3839L113.36 53.2487L113.538 53.0375ZM114.571 54.1347C114.356 54.2362 114.151 54.307 113.955 54.3494L113.956 54.0598C114.234 54.0039 114.548 53.8641 114.897 53.6446L115.063 53.8624C114.982 53.912 114.905 53.9569 114.828 54.0019L115.62 54.6684L115.448 54.8726L114.571 54.1347ZM115.153 55.0598C114.784 55.4982 114.548 55.7547 114.453 55.8311C114.355 55.9055 114.229 55.8822 114.078 55.7547L114.066 55.7451L114.166 55.5151C114.205 55.5479 114.237 55.5792 114.267 55.6043C114.292 55.6256 114.328 55.6161 114.369 55.5764C114.407 55.5412 114.529 55.4051 114.73 55.1664L114.503 55.0816L113.873 55.8298L113.672 55.6598L114.241 54.9827L114.013 54.8959L113.508 55.495C113.423 55.596 113.413 55.6777 113.482 55.7357L113.916 56.1008C113.964 56.1414 114.011 56.1608 114.053 56.1572C114.104 56.1528 114.19 56.0879 114.313 55.9602L114.451 56.1783C114.264 56.3583 114.131 56.4464 114.046 56.4452C113.971 56.441 113.886 56.4014 113.79 56.3203L113.26 55.874C113.104 55.7427 113.113 55.5737 113.283 55.3717L113.762 54.8025L113.551 54.7227L113.717 54.5253L113.928 54.6051L114.187 54.2976L114.38 54.4598L114.179 54.6985L114.409 54.783L114.713 54.4227L114.915 54.5927L114.671 54.8819L115.153 55.0598Z" fill="white"/>
<path d="M116.199 55.3002L115.846 54.9927L116.003 54.8118L116.75 55.4622C116.765 55.408 116.779 55.356 116.788 55.3086L117.053 55.4754C117.033 55.5341 117.012 55.5994 116.985 55.6671L117.768 56.3491L117.61 56.53L117.25 56.2166L117.066 56.2952L117.598 56.7583L117.436 56.9438L115.46 55.2213L115.621 55.0358L116.135 55.4832L116.199 55.3002ZM116.359 55.6783L116.843 56.1001L117.026 56.0215L116.423 55.4953L116.359 55.6783ZM115.612 55.5212L117.118 56.8338L116.503 57.5395L114.997 56.2269L115.612 55.5212ZM116.435 57.1934L116.534 57.0803L115.448 56.1343L115.349 56.2474L116.435 57.1934ZM115.582 55.9805L116.668 56.9265L116.764 56.8157L115.679 55.8696L115.582 55.9805ZM114.834 56.2402L115.005 56.4645C114.797 56.5979 114.591 56.6886 114.384 56.739L114.299 56.462C114.496 56.4187 114.671 56.345 114.834 56.2402ZM115.523 57.7834L114.971 57.3025C114.797 57.1507 114.78 56.9967 114.914 56.8429L115.166 56.5534L115.383 56.7426L115.171 56.9869C115.121 57.0434 115.13 57.1024 115.2 57.1635L115.65 57.5557C115.691 57.5911 115.728 57.6077 115.757 57.6057C115.798 57.605 115.865 57.56 115.961 57.4684L116.107 57.7114C115.951 57.8539 115.835 57.9236 115.757 57.9119C115.691 57.9016 115.611 57.8603 115.523 57.7834ZM115.797 56.9396C115.808 57.1089 115.807 57.2472 115.794 57.3587L115.507 57.3274C115.52 57.2074 115.522 57.0626 115.513 56.8953L115.797 56.9396ZM116.461 57.602C116.457 57.8574 116.44 58.0691 116.411 58.2348L116.124 58.2035C116.16 58.0203 116.184 57.806 116.192 57.5588L116.461 57.602Z" fill="white"/>
<path d="M119.944 58.2288L118.821 59.4742L118.607 59.2813L119.543 58.2431L118.612 57.4033L117.674 58.4436L117.46 58.2507L118.585 57.0032L119.944 58.2288ZM118.843 57.8417L119.052 58.0306L118.677 58.4471C118.564 58.5634 118.452 58.6605 118.337 58.7429L118.526 58.9137L118.052 59.4394C117.978 59.5219 117.969 59.5903 118.027 59.6426L118.352 59.9359C118.379 59.96 118.415 59.973 118.456 59.973C118.5 59.9729 118.603 59.8954 118.76 59.7386L118.903 59.9882C118.683 60.1822 118.537 60.2811 118.463 60.287C118.387 60.2825 118.308 60.2483 118.229 60.1844L117.79 59.7886C117.629 59.6439 117.636 59.4758 117.806 59.2864L118.236 58.8097C118.061 58.9186 117.889 58.9891 117.712 59.0237C117.396 59.0782 117.029 59.0058 116.607 58.8109L116.654 58.5302C117.077 58.7251 117.42 58.7966 117.683 58.7427C117.951 58.6778 118.211 58.5158 118.467 58.2583L118.843 57.8417Z" fill="white"/>
<path d="M121.07 59.7886L119.647 61.3164L119.447 61.1303L119.554 61.0162L119.207 60.6931L119.041 60.8709L118.841 60.6848L120.324 59.0934L120.532 59.2876C120.682 59.2059 120.826 59.1138 120.962 59.0028L121.144 59.2256C121.009 59.3259 120.872 59.4072 120.732 59.4737L121.07 59.7886ZM119.387 60.4999L119.734 60.823L120.136 60.3906L119.79 60.0675L119.387 60.4999ZM119.963 59.8809L120.31 60.204L120.686 59.8001L120.34 59.477L119.963 59.8809ZM120.975 60.6835C120.952 60.9985 120.919 61.2586 120.869 61.4663L120.596 61.4293C120.647 61.2067 120.682 60.9401 120.707 60.6314L120.975 60.6835ZM122.201 60.846C121.495 61.6033 121.049 62.0606 120.863 62.2158C120.694 62.3534 120.515 62.3342 120.329 62.1604C120.285 62.1195 120.21 62.0415 120.106 61.9327L120.234 61.6947C120.326 61.789 120.405 61.8711 120.476 61.9366C120.563 62.0184 120.657 62.0193 120.756 61.9394C120.871 61.8419 121.221 61.4793 121.809 60.8577L121.258 60.3445C121.073 60.4189 120.891 60.4742 120.705 60.5063L120.733 60.2251C121.075 60.1493 121.415 59.9865 121.75 59.7327L121.931 59.9513C121.795 60.0537 121.658 60.1393 121.523 60.2141L122.201 60.846Z" fill="white"/>
<path d="M122.97 60.9313C123.007 61.1873 123.02 61.4205 123.011 61.6286L122.729 61.632C122.747 61.4407 122.738 61.2075 122.701 60.9303L122.97 60.9313ZM122.351 64.0646C122.232 63.9502 122.104 63.8233 121.968 63.688C121.829 63.5507 121.727 63.4276 121.657 63.3186C121.595 63.2095 121.57 63.0848 121.575 62.9489C121.581 62.883 121.571 62.8408 121.545 62.8158C121.5 62.7722 121.328 62.7946 121.031 62.8832L121.015 62.5971C121.291 62.5259 121.495 62.5092 121.623 62.5491L122.211 61.9371L121.921 61.6585L122.104 61.4682L122.587 61.9318L121.801 62.7493C121.803 62.7683 121.804 62.7895 121.802 62.8129C121.796 62.9191 121.806 63.0123 121.833 63.0924C121.869 63.185 121.945 63.296 122.069 63.423C122.19 63.5437 122.333 63.6851 122.501 63.8473C122.607 63.9492 122.717 64.051 122.828 64.1528C122.938 64.2546 123.026 64.3314 123.089 64.3832L122.844 64.5386L122.351 64.0646ZM123.634 61.9813L123.216 61.58L123.381 61.4092L124.568 62.5507L124.428 62.6956C124.199 62.6831 123.978 62.645 123.76 62.5856C123.76 62.5941 123.762 62.6004 123.763 62.6089L124.197 63.0268L123.274 63.987C123.151 64.1146 123.018 64.1109 122.877 63.9757L122.711 63.8156L122.832 63.6032L122.977 63.7595C123.024 63.8052 123.073 63.8064 123.119 63.7588L123.225 63.6485L122.914 63.3491L122.573 63.7038L122.384 63.5229L122.725 63.1682L122.421 62.875L122.075 63.234L121.881 63.0469L123.004 61.8791L123.501 62.3573C123.475 62.2411 123.443 62.1145 123.4 61.9816L123.634 61.9813ZM123.728 62.3677C123.863 62.4096 123.997 62.4388 124.129 62.4574L123.644 61.9917C123.677 62.1226 123.707 62.2472 123.728 62.3677ZM122.726 62.5571L122.581 62.7085L122.886 63.0017L123.031 62.8503L122.726 62.5571ZM123.219 63.0312L123.074 63.1826L123.385 63.482L123.531 63.3306L123.219 63.0312ZM123.693 63.1619L123.838 63.0106L123.527 62.7111L123.381 62.8625L123.693 63.1619ZM123.193 62.6816L123.339 62.5302L123.034 62.2371L122.888 62.3884L123.193 62.6816Z" fill="white"/>
<path d="M126.662 64.91L125.013 66.5699L124.817 66.3754L124.937 66.2541L124.565 65.8841L124.442 66.0075L124.247 65.8129L125.898 64.1509L126.662 64.91ZM124.753 65.6947L125.126 66.0647L126.278 64.9049L125.906 64.5348L124.753 65.6947ZM124.882 63.645C124.728 63.7028 124.575 63.7457 124.427 63.7759L124.362 63.4876C124.697 63.4229 125.009 63.3052 125.294 63.1325L125.452 63.3738C125.351 63.4335 125.251 63.4826 125.154 63.5296L125.735 64.1069L125.542 64.3005L125.253 64.013C125.117 64.1407 124.988 64.2578 124.864 64.3579L125.195 64.6877L125.003 64.8814L124.643 64.524C124.588 64.5624 124.531 64.5986 124.48 64.6327C124.479 64.8937 124.465 65.1716 124.441 65.4687L124.131 65.5333C124.185 65.2149 124.221 64.9581 124.237 64.7629C123.925 64.8976 123.586 64.9368 123.217 64.8744L123.246 64.5815C123.63 64.6376 123.973 64.5813 124.28 64.4128C124.329 64.3808 124.382 64.3488 124.433 64.3147L124.014 63.8981L124.206 63.7045L124.655 64.1506C124.78 64.0505 124.909 63.9334 125.044 63.8057L124.882 63.645Z" fill="white"/>
<path d="M127.342 65.1501L126.768 66.5713L125.33 67.1008L125.241 66.8534L126.568 66.3645L127.097 65.053L127.342 65.1501ZM127.699 65.5184L127.125 66.9395L125.687 67.4691L125.598 67.2216L126.925 66.7328L127.446 65.4127L127.699 65.5184Z" fill="white"/>
</svg>
