<svg width="111" height="28" viewBox="0 0 111 28" fill="none" xmlns="http://www.w3.org/2000/svg">
<path d="M6.19051 17.6486L6.579 17.7034L6.28543 19.56L7.47272 21.0088L7.18249 21.2505L5.88822 19.6694L6.19051 17.6486ZM6.86152 17.4638L7.2346 17.5229L6.95645 19.3752L8.14374 20.824L7.85351 21.0657L6.55924 19.4846L6.86152 17.4638Z" fill="white"/>
<path d="M7.84575 17.557L9.43399 17.1994C9.42324 17.0788 9.40859 16.9591 9.39872 16.8424L9.82554 16.8078L9.85544 17.1045L11.35 16.768L11.4361 17.1504L9.87521 17.5019C9.87464 17.6086 9.87797 17.7145 9.87652 17.8173L11.3204 17.4922L11.8036 19.6385C11.8704 19.935 11.7672 20.1141 11.494 20.1756L11.1311 20.2573L10.937 19.8869L11.2753 19.823C11.3689 19.802 11.4034 19.7368 11.3806 19.6353L11.0045 17.9651L8.67877 18.4888L9.18223 20.7248L8.78029 20.8153L8.19072 18.1969L9.45897 17.9113C9.45954 17.8046 9.45621 17.6987 9.45376 17.5968L7.93186 17.9394L7.84575 17.557ZM9.47758 18.3581C9.58072 18.4702 9.68435 18.6027 9.78544 18.7603L10.1171 18.6857C10.1627 18.5237 10.1947 18.3566 10.2164 18.1795L10.6131 18.2296C10.5857 18.3629 10.5517 18.4853 10.5113 18.5969L10.8664 18.517L10.9463 18.8721L10.2283 19.0337L10.2951 19.3303L11.1146 19.1458L11.1945 19.5009L10.375 19.6854L10.5262 20.3566L10.1281 20.4462L9.97701 19.775L9.16143 19.9587L9.08147 19.6036L9.89706 19.4199L9.83028 19.1234L9.12396 19.2824L9.04401 18.9273L9.39521 18.8482C9.3151 18.7473 9.23284 18.6552 9.14454 18.5725L9.47758 18.3581Z" fill="white"/>
<path d="M12.5288 17.0515C12.6389 17.2061 12.7476 17.3974 12.8582 17.621L13.1807 17.5612C13.2347 17.3478 13.2747 17.1248 13.3 16.8882L13.6977 16.9487C13.6698 17.1492 13.6296 17.3275 13.5818 17.4869L13.983 17.4125L14.0559 17.8058L12.0737 18.1733L12.0008 17.78L12.4688 17.6932C12.3831 17.5382 12.2864 17.3894 12.1839 17.2538L12.5288 17.0515ZM13.8887 16.0916L15.2809 15.8335L15.3378 16.1403C15.2902 16.564 15.2258 16.9624 15.1469 17.3269C15.5036 17.6269 15.703 17.891 15.7493 18.1184C15.8003 18.3937 15.781 18.5966 15.6984 18.7218C15.608 18.8484 15.394 18.945 15.0597 19.007L14.8497 18.5984C15.006 18.5857 15.138 18.5734 15.2442 18.5538C15.3064 18.5382 15.3452 18.5065 15.3608 18.4589C15.3693 18.4167 15.3611 18.3287 15.3402 18.1942C15.2947 17.9708 15.0835 17.7089 14.7103 17.4079C14.7862 17.0928 14.8479 16.7233 14.8986 16.2949L14.3559 16.3955L14.9362 19.5262L14.539 19.5998L13.8887 16.0916ZM11.8765 16.6924L12.5765 16.5626C12.5207 16.4591 12.4671 16.3673 12.411 16.2841L12.8187 16.1353C12.8706 16.2396 12.9254 16.3597 12.9816 16.4875L13.7486 16.3454L13.8215 16.7387L11.9494 17.0857L11.8765 16.6924ZM13.9585 18.0924L14.248 19.6538L13.8389 19.7296L13.8032 19.5369L12.9812 19.6893L13.0169 19.882L12.6158 19.9563L12.3263 18.3949L13.9585 18.0924ZM12.909 19.2999L13.731 19.1475L13.6217 18.5576L12.7997 18.7099L12.909 19.2999Z" fill="white"/>
<path d="M16.745 15.4745L17.1641 15.4101L17.7261 19.0713L17.307 19.1356L17.1698 18.242L16.0272 18.4174L15.9671 18.026L17.1097 17.8506L17.0315 17.3406L16.0707 17.4881L16.01 17.0927L16.9708 16.9452L16.8949 16.451L15.8432 16.6125L15.7831 16.221L16.8348 16.0596L16.745 15.4745ZM17.6702 15.3325L18.0893 15.2681L18.1791 15.8533L19.2268 15.6924L19.2869 16.0839L18.2392 16.2447L18.315 16.7389L19.2758 16.5914L19.3365 16.9868L18.3757 17.1343L18.454 17.6443L19.565 17.4738L19.6251 17.8652L18.5141 18.0357L18.6512 18.9292L18.2321 18.9936L17.6702 15.3325Z" fill="white"/>
<path d="M20.8811 15.932L21.2052 15.9756C21.2132 16.3576 21.1796 16.7288 21.1127 17.0921L20.7648 17.0192C20.8417 16.6708 20.8808 16.311 20.8811 15.932ZM20.0224 15.0408C20.3094 15.2061 20.5567 15.3763 20.7605 15.5521L20.5109 15.874C20.332 15.7032 20.0881 15.5284 19.7748 15.3463L20.0224 15.0408ZM20.0542 15.9924C20.3263 16.1676 20.5628 16.3473 20.7635 16.5315L20.5105 16.8579C20.3425 16.6776 20.1051 16.4899 19.8066 16.2979L20.0542 15.9924ZM20.4704 17.1775L20.8535 17.2741C20.7735 17.756 20.674 18.2121 20.5586 18.638L20.1476 18.5126C20.2778 18.0768 20.3868 17.6316 20.4704 17.1775ZM21.9888 14.8724L22.3539 14.8262L22.7856 18.2349L22.4205 18.2812L21.9888 14.8724ZM22.8145 14.6429L23.2113 14.5926L23.6757 18.2593L23.2789 18.3096L22.8145 14.6429ZM21.1359 14.8877L21.5328 14.8374L21.6861 16.0478C21.8144 17.1564 21.6828 17.9956 21.2957 18.5688L20.9426 18.3272C21.2911 17.8315 21.4064 17.0871 21.2892 16.098L21.1359 14.8877ZM22.7135 15.7241C22.8356 16.0191 22.9482 16.3355 23.052 16.6771L22.824 16.8189C22.7162 16.4455 22.6095 16.1123 22.5004 15.8237L22.7135 15.7241ZM21.904 15.8266C22.0141 16.1231 22.1154 16.445 22.2112 16.7877L21.9832 16.9294C21.8868 16.5505 21.788 16.2163 21.6908 15.9262L21.904 15.8266Z" fill="white"/>
<path d="M24.2555 15.7736L24.4508 14.5588L24.8716 14.5834L24.7476 15.3242L25.2967 15.2671C25.3381 14.9692 25.3659 14.6566 25.3765 14.3338L25.8076 14.3412C25.7917 14.6525 25.7658 14.9448 25.7264 15.2224L27.5366 15.034L27.5776 15.4279L25.6639 15.627C25.6365 15.7505 25.6123 15.8656 25.5881 15.9807L27.1636 15.8168L27.2 16.1669C27.1369 16.4872 26.9757 16.7935 26.7205 17.0855C27.0359 17.2175 27.4053 17.3279 27.8292 17.4205L27.6553 17.8367C27.1637 17.711 26.7464 17.5654 26.403 17.396C26.115 17.6431 25.7573 17.8774 25.33 18.0988L25.0706 17.7317C25.442 17.5523 25.7565 17.3668 26.01 17.1755C25.7467 17.0018 25.5421 16.814 25.392 16.6084C25.1692 17.2107 24.8631 17.7091 24.4734 18.0995L24.2145 17.7363C24.7019 17.203 25.0366 16.5167 25.2223 15.673L24.2555 15.7736ZM25.6708 16.3502C25.8249 16.5553 26.0449 16.7375 26.3313 16.9008C26.5462 16.6854 26.6957 16.4607 26.7808 16.2347L25.6708 16.3502ZM26.4702 14.216C26.7618 14.3907 27.0137 14.5696 27.2183 14.7574L26.9549 15.0865C26.7786 14.8997 26.5335 14.7081 26.2159 14.5159L26.4702 14.216Z" fill="white"/>
<path d="M28.8357 15.492L29.3697 15.4461L29.3451 15.1592L28.7194 15.213L28.7426 15.484C28.7632 15.7231 28.7707 15.9513 28.7657 16.1725L29.4272 16.1157L29.4012 15.8128L28.8672 15.8587L28.8357 15.492ZM28.746 16.5516C28.7073 16.9885 28.617 17.3857 28.4797 17.7508L28.1149 17.477C28.3152 16.9579 28.3837 16.3057 28.3202 15.5202L28.2055 14.1852L31.2901 13.9202L31.3816 14.9842L30.8316 15.0315L30.8562 15.3184L31.4421 15.2681L31.4736 15.6348L30.8877 15.6851L30.9138 15.988L31.6391 15.9257L31.6713 16.3003L31.2727 16.3345L31.5237 16.5458C31.4241 16.6949 31.3145 16.8207 31.1909 16.9237C31.3911 17.0109 31.6168 17.0678 31.864 17.0947L31.7026 17.506C30.9771 17.3797 30.4327 17.0249 30.0732 16.4376L29.5989 16.4783L29.6602 17.1917C29.8859 17.1081 30.0836 17.0268 30.2528 16.94L30.365 17.3118C30.0439 17.4518 29.6575 17.5813 29.21 17.7001L29.0673 17.347C29.1907 17.2882 29.2503 17.1868 29.2386 17.0513L29.1924 16.5132L28.746 16.5516ZM30.4916 16.4016C30.5949 16.5292 30.7085 16.6359 30.8366 16.7253C30.9609 16.6303 31.0745 16.5041 31.1811 16.3424L30.4916 16.4016ZM30.4251 15.0664L29.7476 15.1246L29.7722 15.4116L30.4497 15.3534L30.4251 15.0664ZM29.8297 16.0811L30.5073 16.0229L30.4812 15.72L29.8037 15.7782L29.8297 16.0811ZM30.9042 14.3347L28.6605 14.5275L28.6879 14.8463L30.9316 14.6535L30.9042 14.3347Z" fill="white"/>
<path d="M32.2035 14.4947L32.8819 14.4467L32.8268 13.6686L33.2458 13.639L33.3008 14.4171L34.2983 14.3465L34.2444 13.5844L34.6634 13.5548L34.7173 14.3169L35.3996 14.2686L35.4278 14.6676L34.7455 14.7159L34.8042 15.5458L35.686 15.4834L35.7148 15.8904L32.1158 16.145L32.087 15.738L32.9688 15.6756L32.9101 14.8457L32.2318 14.8937L32.2035 14.4947ZM33.3877 15.646L34.3852 15.5754L34.3265 14.7455L33.329 14.8161L33.3877 15.646ZM33.3002 16.1093L33.6352 16.3663C33.334 16.7565 32.9498 17.1085 32.4908 17.4217L32.1687 17.0635C32.626 16.7826 33.0044 16.4631 33.3002 16.1093ZM34.5736 16.0273C35.0499 16.2983 35.4584 16.5742 35.7948 16.8511L35.487 17.2057C35.2031 16.9331 34.8057 16.6444 34.2949 16.3397L34.5736 16.0273Z" fill="white"/>
<path d="M39.2809 16.9625L38.7618 16.9927L38.6216 16.5802L39.1219 16.571C39.2017 16.5664 39.2424 16.5079 39.2359 16.3961L39.0851 13.8085L36.6173 13.9523L36.8018 17.1189L36.3825 17.1434L36.1743 13.5694L39.4807 13.3768L39.6608 16.4675C39.6789 16.779 39.5525 16.9466 39.2809 16.9625ZM36.8569 14.2829L38.8855 14.1647L38.9081 14.5521L36.8795 14.6703L36.8569 14.2829ZM37.0985 14.9901L38.7317 14.8949L38.8111 16.2566L37.1778 16.3518L37.0985 14.9901ZM38.3861 15.9087L38.35 15.2898L37.5234 15.3379L37.5595 15.9569L38.3861 15.9087Z" fill="white"/>
<path d="M40.1907 14.9379C40.0973 15.0747 39.9996 15.2076 39.894 15.3409L39.7459 14.9316C40.1057 14.4255 40.3657 13.8441 40.5176 13.18L40.9017 13.3375C40.8214 13.6618 40.7083 13.9716 40.5707 14.2707L40.699 16.9035L40.2875 16.9236L40.1907 14.9379ZM40.8128 13.8143L41.7996 13.7663L41.7689 13.135L42.1804 13.115L42.2112 13.7462L43.2539 13.6954L43.2734 14.095L42.5383 14.1308C42.7436 14.7295 43.0697 15.2582 43.5126 15.7172L43.2577 16.0741C42.7905 15.5282 42.448 14.9081 42.2341 14.2177L42.3036 15.644L42.8549 15.6171L42.8744 16.0167L42.3231 16.0435L42.361 16.8226L41.9495 16.8426L41.9116 16.0636L41.3762 16.0896L41.3567 15.6901L41.8921 15.664L41.8228 14.2417C41.6614 15.0385 41.3653 15.7017 40.9427 16.2349L40.7095 15.8858C41.0878 15.4309 41.3524 14.8613 41.5075 14.181L40.8323 14.2139L40.8128 13.8143Z" fill="white"/>
<path d="M45.3764 13.6495L44.0495 13.7039L44.0331 13.3042L47.1145 13.1778L47.1309 13.5775L45.8 13.6321L45.8981 16.0221L47.4728 15.9575L47.4893 16.3611L43.9123 16.5079L43.8958 16.1042L45.4744 16.0395L45.3764 13.6495Z" fill="white"/>
<path d="M49.227 12.8557L49.6468 12.8409L49.7578 15.9709L50.1975 15.9553L50.0865 12.8253L50.5062 12.8104L50.6172 15.9404L51.7685 15.8996L51.783 16.3073L48.2092 16.4341L48.1947 16.0263L49.338 15.9858L49.227 12.8557ZM51.2406 13.5408L51.612 13.6317C51.4844 14.3207 51.3137 14.9271 51.1 15.447L50.7196 15.3284C50.927 14.8567 51.0979 14.2583 51.2406 13.5408ZM48.5378 13.6247C48.7566 14.1492 48.9581 14.7545 49.1384 15.4365L48.7619 15.5419C48.6039 14.9231 48.4147 14.3295 48.1863 13.7572L48.5378 13.6247Z" fill="white"/>
<path d="M53.0187 12.6614L53.4165 12.8326C53.2951 13.1607 53.1292 13.4743 52.9228 13.7731L53.0086 16.4117L52.5929 16.4253L52.5229 14.2744C52.3721 14.4354 52.2091 14.5928 52.038 14.7464L51.8879 14.3151C52.4048 13.842 52.783 13.2894 53.0187 12.6614ZM55.0612 16.2729L54.3176 16.2971C53.9818 16.3081 53.8084 16.1456 53.7976 15.8138L53.7624 14.7304C53.6288 14.8067 53.4911 14.8793 53.3534 14.9518L53.1526 14.5621C53.3614 14.4592 53.558 14.3528 53.7465 14.2426L53.6966 12.7074L54.1124 12.6939L54.154 13.9732C54.5255 13.705 54.8519 13.4062 55.1334 13.0769L55.436 13.3992C55.0649 13.8035 54.6444 14.1614 54.1704 14.477L54.2115 15.7403C54.215 15.8482 54.2768 15.9023 54.4007 15.8982L54.9764 15.8795C55.0643 15.8766 55.1273 15.8426 55.1654 15.7853C55.2034 15.724 55.2207 15.5154 55.2171 15.1593L55.6052 15.2787C55.5922 15.7394 55.5493 16.0209 55.4764 16.1194C55.4035 16.2138 55.2651 16.2663 55.0612 16.2729Z" fill="white"/>
<path d="M56.5211 12.6048L56.9289 12.5917L56.9497 13.2394L57.6853 13.2159L57.6976 13.5997L56.9619 13.6232L56.9819 14.2469L57.5896 14.2274L57.6377 15.7307C57.913 15.5778 58.159 15.3858 58.3795 15.1506C58.3312 15.0161 58.2866 14.8735 58.2415 14.7148C58.1872 14.5165 58.1399 14.2899 58.1074 14.0268L57.5987 14.1351L57.5265 13.7572L58.0592 13.6441C58.0247 13.3171 58.0011 12.9536 57.9883 12.5538L58.388 12.541C58.4043 12.9247 58.4272 13.2641 58.4567 13.5594L59.4664 13.3469L59.5385 13.7248L58.4971 13.9463C58.5292 14.2014 58.564 14.4124 58.6094 14.579C58.6279 14.6584 58.6503 14.7338 58.6685 14.8012C58.837 14.5637 58.9886 14.2987 59.1193 14.0064L59.4501 14.2119C59.2587 14.6102 59.0496 14.9531 58.8226 15.2405C58.8531 15.3156 58.8872 15.3825 58.921 15.4375C59.0305 15.606 59.1092 15.6916 59.1572 15.69C59.2132 15.6882 59.2674 15.5064 59.316 15.1487L59.6578 15.3258C59.5753 15.8727 59.436 16.1493 59.2361 16.1557C59.0762 16.1609 58.9045 16.0463 58.725 15.8159C58.6625 15.7379 58.6036 15.6477 58.5523 15.5453C58.2925 15.8058 58.0146 16.0027 57.7147 16.1364L57.4853 15.8436L56.5058 15.875L56.5145 16.1468L56.1147 16.1596L56.0544 14.2766L56.5741 14.2599L56.5211 12.6048ZM56.4936 15.4952L57.2332 15.4715L57.2061 14.6239L56.4665 14.6476L56.4936 15.4952ZM58.8343 12.6028C59.0286 12.7967 59.1821 12.9678 59.2908 13.1124L58.9897 13.3342C58.8805 13.1736 58.7307 12.9943 58.5443 12.7962L58.8343 12.6028Z" fill="white"/>
<path d="M63.4679 14.4999C63.1833 14.3736 62.9345 14.2381 62.7211 14.0854C62.5029 14.257 62.2522 14.4137 61.9688 14.5516L63.4679 14.4999ZM61.8939 14.5862C61.8545 14.6035 61.815 14.6209 61.7796 14.6381L61.6291 14.4512L61.6747 15.7744L61.3229 15.7866L61.3178 15.6386L60.6222 15.6626L60.6273 15.8105L60.2515 15.8235L60.1446 12.7213L61.5678 12.6723L61.5916 13.3639C61.8115 13.1241 62.0008 12.8094 62.1553 12.4159L62.5741 12.4895C62.537 12.5748 62.5038 12.656 62.4705 12.7372L63.4979 12.7018L63.509 13.0216C63.3992 13.3216 63.2284 13.5916 62.9966 13.8317C63.2377 13.9755 63.514 14.0981 63.8217 14.1995L63.6546 14.5775C63.606 14.5592 63.5573 14.5408 63.5165 14.5182L63.5686 16.0293L63.1609 16.0434L63.1558 15.8955L62.3482 15.9233L62.3533 16.0712L61.9456 16.0853L61.8939 14.5862ZM61.5967 13.5118L61.6229 14.2713C61.9226 14.1409 62.1856 13.9918 62.4041 13.8282C62.2718 13.7046 62.1554 13.5806 62.0589 13.4518C61.9786 13.5587 61.8938 13.6536 61.8089 13.7446L61.5967 13.5118ZM62.6644 13.599C62.8152 13.4458 62.9376 13.2814 63.0317 13.1101L62.2642 13.1366C62.2605 13.1447 62.2566 13.1488 62.2567 13.1528C62.3665 13.3171 62.5036 13.4645 62.6644 13.599ZM62.3349 15.5355L63.1424 15.5077L63.1214 14.9001L62.3139 14.9279L62.3349 15.5355ZM61.3054 15.2789L61.2726 14.3274L61.0847 14.3339L61.1175 15.2853L61.3054 15.2789ZM61.2602 13.9676L61.2291 13.0642L61.0412 13.0707L61.0723 13.9741L61.2602 13.9676ZM60.7134 13.082L60.5335 13.0882L60.5646 13.9916L60.7445 13.9854L60.7134 13.082ZM60.577 14.3514L60.6098 15.3028L60.7897 15.2966L60.7569 14.3452L60.577 14.3514Z" fill="white"/>
<path d="M67.4545 12.4296L67.5876 15.7309L67.18 15.7473L67.1684 15.4596L66.349 15.4926L66.3626 15.8283L65.9589 15.8446L65.8239 12.4953L67.4545 12.4296ZM66.3332 15.1009L67.1526 15.0679L67.0625 12.8337L66.2432 12.8667L66.3332 15.1009ZM64.0547 13.3953L64.7101 13.3689L64.6923 12.9253C64.5175 12.9603 64.3385 12.9876 64.1631 13.0066L64.0122 12.6404C64.6336 12.5633 65.1294 12.4473 65.4914 12.2925L65.7011 12.6284C65.5002 12.7085 65.2949 12.7809 65.089 12.8372L65.1098 13.3528L65.7493 13.327L65.7649 13.7147L65.1255 13.7405L65.1313 13.8843C65.3626 14.0632 65.5952 14.27 65.8326 14.5006L65.6035 14.8741C65.4257 14.6331 65.2737 14.4391 65.1477 14.292L65.2146 15.9507L64.8149 15.9668L64.7522 14.412C64.6052 14.7382 64.4211 15.0379 64.1961 15.3152L63.9977 14.8628C64.3329 14.537 64.5745 14.175 64.7266 13.7766L64.7258 13.7566L64.0703 13.783L64.0547 13.3953Z" fill="white"/>
<path d="M67.915 12.2991L69.2333 12.2324L69.2741 13.0394C69.5887 12.7672 69.7927 12.4444 69.8942 12.0748L70.2977 12.1345C70.2778 12.2156 70.2538 12.297 70.2255 12.3705L71.1443 12.324L71.1595 12.6236C71.0552 12.9373 70.8934 13.2218 70.6778 13.473C70.935 13.6483 71.2341 13.7813 71.5709 13.8684L71.3526 14.2239C71.3078 14.2102 71.2673 14.2002 71.2265 14.1862L71.3033 15.7043L70.9038 15.7245L70.8965 15.5807L70.0776 15.6221L70.0849 15.7659L69.6894 15.7859L69.613 14.2759C69.5661 14.2983 69.5271 14.3203 69.488 14.3383L69.2191 14.0114C69.5598 13.858 69.8515 13.6871 70.0901 13.4948C69.976 13.3764 69.8735 13.2494 69.7863 13.1096C69.6953 13.2103 69.6038 13.3031 69.504 13.3882L69.2783 13.1233L69.3028 13.6067L68.9273 13.6257L68.9537 14.149L69.3093 14.131L69.3291 14.5225L68.9735 14.5405L69.0028 15.1198C69.1522 15.0641 69.2974 15.0047 69.4346 14.9457L69.4558 15.3652C69.044 15.5382 68.5679 15.7065 68.0273 15.866L67.891 15.4684C67.9501 15.4494 68.0095 15.4343 68.0648 15.4195L67.9951 14.0413L68.3626 14.0227L68.4279 15.313L68.621 15.2512L68.5398 13.6453L67.9845 13.6734L67.915 12.2991ZM70.015 12.8017C70.119 12.9566 70.2343 13.099 70.369 13.2283C70.513 13.0649 70.6325 12.8946 70.7195 12.714L70.0484 12.7479L70.015 12.8017ZM71.1858 14.1723C70.8841 14.0674 70.6169 13.9327 70.3919 13.7599C70.1847 13.9385 69.9407 14.1031 69.6677 14.2491L71.1858 14.1723ZM68.8879 13.2432L68.8572 12.6359L68.3339 12.6624L68.3646 13.2696L68.8879 13.2432ZM70.0586 15.2466L70.8775 15.2052L70.8452 14.566L70.0263 14.6074L70.0586 15.2466Z" fill="white"/>
<path d="M73.3706 14.7119L73.397 15.103C73.0159 15.2771 72.5809 15.4267 72.0883 15.5522L72.0089 15.1486C72.5298 15.0253 72.9852 14.8823 73.3706 14.7119ZM72.3844 11.92L72.7942 12.0527C72.6422 12.532 72.4845 12.9275 72.3168 13.2355L72.6967 13.1618C72.7514 13.0218 72.8138 12.8773 72.8754 12.7208L73.2563 12.8394C72.9856 13.463 72.7481 13.9241 72.552 14.2259C72.792 14.1576 73.0348 14.0731 73.2803 13.9683L73.3054 14.3395C72.8803 14.5165 72.476 14.644 72.0921 14.718L71.959 14.3502C72.0287 14.3134 72.0899 14.2692 72.1385 14.2178C72.2422 14.0905 72.3713 13.8653 72.5225 13.5504L71.9609 13.6645L71.8355 13.2921C71.8975 13.2598 71.9499 13.2042 71.9969 13.1288C72.1522 12.7575 72.2815 12.3559 72.3844 11.92ZM75.1687 12.4257L75.2545 12.8047L74.2779 13.007C74.2918 13.1544 74.3092 13.2935 74.3341 13.4241L75.3293 13.2006L75.4195 13.5874L74.4086 13.816C74.4105 13.8439 74.4164 13.8716 74.4263 13.899C74.4703 14.0764 74.521 14.2334 74.5786 14.3738C74.7389 14.1946 74.8816 13.9926 75.0073 13.7756L75.3536 13.9767C75.1772 14.2733 74.9861 14.5307 74.7803 14.7491C74.8988 14.9015 75.0003 14.9788 75.0881 14.9729C75.1759 14.9669 75.2356 14.7825 75.2672 14.4196L75.638 14.6271C75.5528 15.146 75.3984 15.413 75.1669 15.4286C74.9591 15.4386 74.7592 15.3278 74.5635 15.1005C74.5374 15.0702 74.5116 15.0439 74.4937 15.017C74.2278 15.2354 73.9385 15.4033 73.6296 15.5203L73.3636 15.2015C73.7072 15.0661 74.012 14.8891 74.2776 14.6668C74.1947 14.508 74.1268 14.3322 74.0699 14.1435C74.0446 14.0651 74.0232 13.9863 74.0059 13.9073L73.3424 14.0563L73.2561 13.6693L73.9233 13.516C73.8982 13.3814 73.8805 13.2382 73.8629 13.0951L73.3529 13.2017L73.2672 12.8226L73.8285 12.7045L73.7708 11.8505L74.1899 11.8222L74.2438 12.6204L75.1687 12.4257ZM74.6358 11.7761C74.8355 11.943 74.9937 12.0887 75.106 12.2094L74.7941 12.459C74.6804 12.3183 74.5257 12.1644 74.334 11.9969L74.6358 11.7761Z" fill="white"/>
<path d="M77.2458 12.1303L77.6206 12.1445C77.6018 12.2024 77.583 12.2604 77.5598 12.3147L78.5756 12.2224L78.6006 12.4973C78.522 12.6932 78.3858 12.8743 78.2 13.0398C78.4524 13.1213 78.7309 13.1803 79.0398 13.2205L78.8529 13.5508C78.4817 13.4881 78.1561 13.3972 77.8762 13.278C77.5912 13.4565 77.2359 13.6133 76.8064 13.7487L76.5971 13.4344C76.9622 13.341 77.2696 13.2327 77.5231 13.1053C77.4044 13.0357 77.2932 12.9615 77.1976 12.8818C77.0987 12.9872 76.9872 13.0857 76.8669 13.1769L76.6124 12.8948C76.9376 12.6725 77.1513 12.4161 77.2458 12.1303ZM77.8505 12.9068C77.9932 12.7975 78.1069 12.6787 78.1881 12.5548L77.3953 12.6269C77.3917 12.6312 77.3881 12.6355 77.3885 12.6395C77.5261 12.7395 77.6789 12.83 77.8505 12.9068ZM77.1874 14.0515C77.7175 14.0957 78.2311 14.1776 78.7283 14.3011L78.6236 14.652C78.1133 14.5177 77.5908 14.4245 77.0519 14.3731L77.1874 14.0515ZM77.5372 13.4815C77.8682 13.5438 78.1728 13.6246 78.4513 13.7278L78.2868 14.04C77.9863 13.9147 77.685 13.8256 77.3786 13.7691L77.5372 13.4815ZM79.3361 11.5308L79.6586 15.0802L79.2522 15.1171L79.2403 14.9856L76.6908 15.2172L76.7027 15.3487L76.2964 15.3856L75.974 11.8362L79.3361 11.5308ZM76.6575 14.8507L79.207 14.6191L78.9631 11.9342L76.4136 12.1658L76.6575 14.8507Z" fill="white"/>
<path d="M81.2509 11.5617C81.5253 11.5317 81.7606 11.5865 81.957 11.726C82.1493 11.8659 82.2589 12.0592 82.2867 12.3137C82.3137 12.5602 82.2426 12.7933 82.0818 13.0161C81.9835 13.1475 81.8012 13.3204 81.5433 13.5377C81.2739 13.7602 81.1172 13.9464 81.0692 14.0965L82.4689 13.9435L82.5136 14.3531L80.5334 14.5695C80.5017 14.2792 80.5658 14.0187 80.7332 13.7831C80.8235 13.6525 81.0231 13.4537 81.3284 13.191C81.4974 13.0437 81.6129 12.9225 81.6833 12.8303C81.7913 12.6776 81.8384 12.5196 81.8211 12.3605C81.8041 12.2054 81.7478 12.0949 81.66 12.0281C81.5682 11.9616 81.4411 11.9393 81.278 11.9571C81.1031 11.9762 80.9784 12.0502 80.9039 12.1791C80.8286 12.3 80.7996 12.4762 80.816 12.6997L80.3507 12.7505C80.32 12.432 80.3836 12.1675 80.5452 11.9527C80.7095 11.7255 80.9448 11.5952 81.2509 11.5617Z" fill="white"/>
<path d="M84.2564 11.212C84.5859 11.1714 84.8606 11.2745 85.0815 11.5294C85.2885 11.7699 85.4194 12.1124 85.4742 12.5571C85.5291 13.0017 85.4853 13.3658 85.3429 13.6493C85.1901 13.9463 84.9492 14.1171 84.6197 14.1577C84.2863 14.1988 84.0111 14.0917 83.7947 13.8403C83.5877 13.5998 83.4568 13.2573 83.4019 12.8127C83.3471 12.368 83.3908 12.0039 83.5332 11.7204C83.6815 11.42 83.9229 11.2532 84.2564 11.212ZM84.3049 11.605C84.0786 11.633 83.935 11.7756 83.875 12.0409C83.8325 12.2195 83.8297 12.4576 83.8664 12.7554C83.9026 13.0491 83.9633 13.2795 84.0483 13.4463C84.1705 13.6851 84.345 13.7926 84.5712 13.7647C84.7936 13.7373 84.9367 13.5906 85.0011 13.3288C85.0431 13.1463 85.046 12.9081 85.0097 12.6144C84.973 12.3166 84.9124 12.0863 84.8278 11.9234C84.7012 11.6811 84.5272 11.5776 84.3049 11.605Z" fill="white"/>
<path d="M86.8303 10.9379L87.1793 10.8915L87.5558 13.7226L87.0919 13.7843L86.7897 11.5123C86.6398 11.6896 86.441 11.8331 86.1893 11.9432L86.1281 11.4833C86.2508 11.4347 86.3782 11.3612 86.5104 11.2629C86.6415 11.1567 86.7484 11.0497 86.8303 10.9379Z" fill="white"/>
<path d="M88.24 10.7478L89.9631 10.5061L90.0204 10.9141L88.6696 11.1036L88.6993 11.8911L88.7112 11.8894C88.7861 11.7901 88.8763 11.7128 88.9856 11.6571C89.083 11.603 89.1951 11.5671 89.3219 11.5493C89.5873 11.512 89.8174 11.5686 90.0082 11.7196C90.199 11.8705 90.3201 12.0999 90.3629 12.4049C90.404 12.6981 90.3264 12.9513 90.1307 13.1686C89.9481 13.3639 89.7181 13.481 89.4369 13.5204C89.1794 13.5565 88.9476 13.5164 88.7459 13.4033C88.5182 13.2777 88.3779 13.0833 88.3214 12.8247L88.7769 12.7608C88.8184 12.9125 88.8939 13.019 89.0075 13.0798C89.1035 13.131 89.2313 13.1494 89.3858 13.1277C89.5522 13.1044 89.6876 13.0329 89.788 12.9137C89.8845 12.7952 89.9244 12.6482 89.9 12.4739C89.8733 12.2838 89.8007 12.1405 89.6906 12.0469C89.58 11.9493 89.4301 11.9178 89.2479 11.9434C89.1251 11.9606 89.0209 11.9954 88.9399 12.0512C88.8476 12.1127 88.7823 12.1945 88.7407 12.3013L88.309 12.3619L88.24 10.7478Z" fill="white"/>
<path d="M91.3112 11.9614L93.3101 11.6701L93.3644 12.0422L91.3655 12.3335L91.3112 11.9614Z" fill="white"/>
<path d="M95.0066 9.71499C95.2797 9.67502 95.5169 9.72115 95.7182 9.8534C95.9155 9.98622 96.0321 10.1753 96.0692 10.4286C96.1051 10.674 96.0425 10.9096 95.89 11.1381C95.7966 11.273 95.6207 11.4524 95.3709 11.6789C95.1098 11.9112 94.9599 12.1029 94.9175 12.2547L96.3106 12.0508L96.3703 12.4584L94.3993 12.7469C94.357 12.458 94.4115 12.1953 94.5702 11.9538C94.6558 11.82 94.848 11.614 95.1434 11.3403C95.307 11.187 95.418 11.0616 95.485 10.9669C95.5874 10.8104 95.6287 10.6508 95.6055 10.4924C95.5829 10.3381 95.5226 10.2297 95.4324 10.1661C95.3383 10.103 95.2104 10.0854 95.0481 10.1091C94.874 10.1346 94.7521 10.2131 94.6824 10.3446C94.6115 10.4681 94.5889 10.6453 94.6135 10.8681L94.1504 10.9359C94.108 10.6187 94.162 10.352 94.3156 10.1314C94.4715 9.89841 94.7019 9.75959 95.0066 9.71499Z" fill="white"/>
<path d="M97.985 9.28428C98.3137 9.23769 98.5902 9.33587 98.8157 9.58672C99.027 9.82342 99.1641 10.1636 99.2269 10.6071C99.2898 11.0507 99.2526 11.4155 99.1154 11.7016C98.9679 12.0012 98.7302 12.1763 98.4014 12.2229C98.0688 12.2701 97.7917 12.1679 97.5708 11.9205C97.3595 11.6838 97.2224 11.3436 97.1596 10.9001C97.0967 10.4565 97.1339 10.0917 97.2711 9.8056C97.414 9.50255 97.6523 9.33142 97.985 9.28428ZM98.0406 9.67636C97.8148 9.70835 97.6738 9.85357 97.6186 10.1199C97.5794 10.2992 97.5808 10.5374 97.6229 10.8344C97.6645 11.1275 97.7293 11.3567 97.8173 11.5219C97.9438 11.7585 98.1201 11.8628 98.3459 11.8308C98.5677 11.7994 98.7081 11.6502 98.7678 11.3872C98.8065 11.204 98.8051 10.9659 98.7635 10.6728C98.7214 10.3757 98.6566 10.1466 98.5692 9.98525C98.4382 9.74525 98.2624 9.64493 98.0406 9.67636Z" fill="white"/>
<path d="M101.012 8.86871C101.568 8.79566 101.915 9.01222 102.054 9.51839L101.602 9.57787C101.512 9.32343 101.328 9.21447 101.059 9.24995C100.868 9.275 100.729 9.38604 100.643 9.58704C100.555 9.77615 100.532 10.0011 100.566 10.2628L100.571 10.2985L100.591 10.2959C100.655 10.1665 100.743 10.0701 100.855 9.99897C100.958 9.92884 101.082 9.88834 101.225 9.86956C101.502 9.83304 101.736 9.89107 101.926 10.0476C102.116 10.2042 102.23 10.4232 102.266 10.7008C102.304 10.9864 102.235 11.2334 102.069 11.4409C101.903 11.6483 101.677 11.7748 101.396 11.8119C101.047 11.8578 100.764 11.7658 100.549 11.54C100.334 11.3181 100.203 10.9925 100.146 10.5602C100.085 10.0962 100.131 9.71091 100.288 9.39981C100.44 9.08922 100.683 8.91202 101.012 8.86871ZM101.175 10.2594C101.001 10.2823 100.873 10.3516 100.792 10.4712C100.706 10.5874 100.678 10.7404 100.702 10.9228C100.725 11.1013 100.796 11.2372 100.912 11.3268C101.029 11.4163 101.167 11.4507 101.329 11.4293C101.496 11.4074 101.619 11.3346 101.708 11.21C101.796 11.0854 101.829 10.9359 101.806 10.7614C101.783 10.5869 101.713 10.4548 101.605 10.3642C101.487 10.2707 101.346 10.2369 101.175 10.2594Z" fill="white"/>
<path d="M104.001 8.49663C104.287 8.4634 104.529 8.50372 104.72 8.62247C104.907 8.7417 105.017 8.92226 105.045 9.1686C105.081 9.47852 104.946 9.70359 104.644 9.84336C104.817 9.87563 104.957 9.93589 105.057 10.029C105.164 10.1252 105.228 10.2588 105.248 10.4256C105.278 10.6879 105.212 10.9131 105.048 11.1012C104.877 11.2942 104.637 11.4107 104.327 11.4467C104.033 11.4808 103.786 11.433 103.59 11.3028C103.372 11.159 103.232 10.9256 103.171 10.6105L103.644 10.5555C103.673 10.7374 103.745 10.874 103.868 10.9604C103.978 11.0402 104.115 11.0727 104.278 11.0538C104.456 11.033 104.594 10.9647 104.685 10.8534C104.766 10.7514 104.801 10.6346 104.785 10.4995C104.766 10.3366 104.701 10.2234 104.597 10.159C104.492 10.0906 104.349 10.071 104.166 10.0922L103.967 10.1153L103.927 9.76565L104.125 9.74257C104.292 9.72319 104.415 9.67266 104.494 9.59099C104.569 9.50978 104.601 9.39742 104.585 9.25836C104.568 9.11929 104.517 9.0206 104.433 8.95785C104.341 8.89603 104.214 8.87457 104.051 8.89349C103.884 8.91288 103.762 8.96738 103.68 9.06143C103.594 9.15595 103.553 9.28955 103.557 9.46225L103.1 9.51532C103.091 9.22648 103.168 8.99197 103.341 8.81089C103.501 8.63119 103.723 8.52893 104.001 8.49663Z" fill="white"/>
<path d="M106.14 7.85602L107.136 9.64032L106.483 11.5763L106.126 11.4525L106.726 9.67806L105.812 8.04288L106.14 7.85602ZM106.833 7.79226L107.829 9.57655L107.176 11.5126L106.819 11.3887L107.419 9.6143L106.489 7.98059L106.833 7.79226Z" fill="white"/>
<path d="M88.4308 5.03683L89.629 6.69186L89.2075 8.69119L88.8386 8.61012L89.226 6.77752L88.1267 5.26094L88.4308 5.03683ZM89.1115 4.89212L90.3098 6.54715L89.8883 8.54648L89.5194 8.46541L89.9068 6.63281L88.7918 5.11956L89.1115 4.89212Z" fill="white"/>
<path d="M3.74747 22.5842C4.78542 22.2064 5.3206 21.0588 4.94281 20.0208C4.56503 18.9828 3.41734 18.4477 2.37939 18.8255C1.34143 19.2032 0.806255 20.3509 1.18404 21.3889C1.56183 22.4268 2.70951 22.962 3.74747 22.5842Z" fill="#007846"/>
<path d="M3.76491 20.6983L3.765 20.6983L3.40909 19.7204C3.3593 19.5836 3.42108 19.4097 3.55744 19.36C3.69423 19.3102 3.85338 19.4038 3.90317 19.5406L4.13489 19.4562C4.11204 19.3933 4.07701 19.3355 4.03179 19.286C3.98658 19.2366 3.93207 19.1966 3.87138 19.1683C3.81069 19.14 3.74502 19.1239 3.6781 19.1209C3.61119 19.118 3.54436 19.1283 3.48142 19.1512C3.41849 19.1741 3.36068 19.2092 3.31131 19.2544C3.26194 19.2997 3.22198 19.3542 3.1937 19.4149C3.16542 19.4757 3.14938 19.5413 3.14651 19.6083C3.14363 19.6752 3.15397 19.742 3.17693 19.8049L3.54916 20.8276C3.57768 20.9061 3.62506 20.9764 3.68714 21.0322C3.74922 21.0881 3.82408 21.1278 3.90514 21.148C3.90785 21.1133 3.90314 21.0784 3.89132 21.0456L3.76491 20.6983Z" fill="#FFDC14"/>
<path d="M4.15646 20.9101L4.169 20.9446C4.1908 21.0049 4.2017 21.0686 4.20117 21.1327C4.20161 21.1325 4.20206 21.1324 4.20251 21.1323C4.32954 21.086 4.433 20.9912 4.49013 20.8687C4.54726 20.7462 4.55338 20.606 4.50715 20.4789L4.27543 20.5633C4.32127 20.6892 4.27203 20.8474 4.15646 20.9101Z" fill="#FFDC14"/>
<path d="M2.03476 21.35L1.80304 21.4343C1.87248 21.6251 2.05331 21.7461 2.25979 21.7638L2.26351 21.536C2.15919 21.516 2.0709 21.4493 2.03476 21.35Z" fill="#FFDC14"/>
<path d="M1.70668 20.3586C1.64904 20.2002 1.74507 20.0197 1.92112 19.9556C2.09718 19.8915 2.28682 19.9681 2.34446 20.1265L2.57618 20.0421C2.47661 19.7686 2.14932 19.636 1.84511 19.7467C1.54089 19.8575 1.37538 20.1694 1.47495 20.443C1.50459 20.5138 1.54852 20.5777 1.60398 20.6307C1.65945 20.6838 1.72526 20.7248 1.7973 20.7513C2.03383 20.8426 2.28895 20.8172 2.50186 20.9161C2.59018 20.9587 2.64732 21.0244 2.67254 21.1178C2.71629 21.238 2.67077 21.3707 2.56898 21.4556L2.56473 21.714C2.84847 21.5938 2.99999 21.2965 2.90426 21.0335C2.87467 20.9624 2.83139 20.8978 2.77689 20.8433C2.50025 20.533 1.8108 20.74 1.70668 20.3586Z" fill="#FFDC14"/>
<path d="M2.55358 20.1344L2.32185 20.2188L2.31544 20.612C2.39314 20.6235 2.46992 20.6405 2.54518 20.663L2.54819 20.4794L2.93339 20.9242L2.89592 20.9378C2.91197 20.9646 2.92632 20.9923 2.93889 21.0209C2.94896 21.0492 2.95648 21.0784 2.96137 21.108L3.06133 21.0716L3.74409 21.8586L3.97582 21.7743L2.55358 20.1344Z" fill="#FFDC14"/>
<path d="M2.63741 21.129L2.637 21.1274C2.62939 21.0983 2.61706 21.0705 2.60052 21.0453L2.53857 21.0679L2.53998 20.9818C2.5232 20.9693 2.50524 20.9585 2.48636 20.9495C2.43016 20.9244 2.37128 20.9058 2.31086 20.894L2.28646 22.3892L2.51818 22.3048L2.53534 21.2631L2.65177 21.2207C2.65305 21.19 2.64836 21.1593 2.63795 21.1304L2.63741 21.129Z" fill="#FFDC14"/>
<path d="M3.04279 21.1175L3.29216 21.8027L3.56164 21.7046L3.05004 21.1149L3.04279 21.1175Z" fill="#FFDC14"/>
<path d="M3.58685 20.1014L3.58676 20.1014L3.92585 21.033C3.93862 21.0681 3.94437 21.1054 3.94274 21.1427C3.94112 21.18 3.93216 21.2166 3.91639 21.2504C3.90061 21.2842 3.87832 21.3146 3.85079 21.3398C3.82327 21.3651 3.79104 21.3846 3.75596 21.3974L3.7116 21.4135L3.8662 21.5918C3.98277 21.5394 4.0752 21.4449 4.12493 21.3271C4.17465 21.2094 4.17799 21.0773 4.13427 20.9572L3.77084 19.9586C3.74325 19.8828 3.69789 19.8146 3.63857 19.7599C3.57925 19.7051 3.50768 19.6654 3.42985 19.644C3.43162 19.6658 3.43624 19.6872 3.44361 19.7078L3.58685 20.1014Z" fill="#FFDC14"/>
<path d="M3.11017 19.6601L2.58228 19.8522L2.74477 20.2987L3.19696 20.8201L2.89001 19.9768L3.16393 19.8771L3.14226 19.8175C3.12385 19.7669 3.11304 19.7139 3.11017 19.6601Z" fill="#FFDC14"/>
</svg>
