<svg width="116" height="74" viewBox="0 0 116 74" fill="none" xmlns="http://www.w3.org/2000/svg">
<path d="M4.3267 2.44068L4.45828 2.68121L3.19984 3.33727L2.8524 4.70821L2.59692 4.64501L2.97327 3.15948L4.3267 2.44068ZM4.73028 2.75738L4.85241 2.9905L3.60342 3.65397L3.25598 5.0249L3.0005 4.9617L3.37685 3.47617L4.73028 2.75738Z" fill="white"/>
<path d="M7.18992 4.95227L5.60182 6.95121L5.37632 6.77206L5.4715 6.65226L3.94939 5.44299L3.85422 5.56279L3.62872 5.38363L5.21683 3.3847L7.18992 4.95227ZM4.10802 5.24333L5.63012 6.4526L6.80394 4.97513L6.39992 4.65415L5.7281 5.49976C5.69451 5.54204 5.7059 5.58558 5.76228 5.63037L6.01831 5.83378L5.85782 6.03578L5.53602 5.78012C5.38099 5.65695 5.35946 5.5249 5.47143 5.38397L6.18617 4.48433L5.8902 4.24919L5.50764 4.73072C5.23795 5.06054 4.91185 5.19611 4.52981 5.14164L4.47778 4.85508C4.80736 4.91769 5.07783 4.81838 5.29154 4.55904L5.6741 4.07751L5.28183 3.76586L4.10802 5.24333Z" fill="white"/>
<path d="M8.43295 5.90215L8.65526 6.08048L7.14789 7.95961L6.92558 7.78127L8.43295 5.90215ZM9.20774 6.36982L9.43005 6.54815L7.71243 8.68937L7.49012 8.51104L9.20774 6.36982ZM7.80551 5.26038L8.02782 5.43872L7.29572 6.35137C6.83677 6.91392 6.37534 7.22066 5.90955 7.27393L5.86074 6.98479C6.2656 6.94034 6.66889 6.66773 7.07341 6.17303L7.80551 5.26038Z" fill="white"/>
<path d="M10.8294 7.64955L11.0465 7.82486L10.5658 8.41998L10.3487 8.24467L10.8294 7.64955ZM9.4485 8.28496C9.32885 8.22303 9.2092 8.16109 9.09143 8.09682L9.16252 7.8226C9.95782 8.27985 10.6425 8.53981 11.2143 8.60059C11.1863 8.4777 11.1536 8.35105 11.1163 8.22062L11.3806 8.1989C11.4849 8.55687 11.5541 8.88657 11.5855 9.18189L11.3051 9.21384C11.2996 9.10137 11.287 8.98324 11.2651 8.85758C10.9424 8.83217 10.597 8.75371 10.2247 8.62266L11.0508 9.28996L10.0273 10.5572L9.81023 10.3819L9.88186 10.2932L8.85265 9.46192L8.77725 9.55528L8.56254 9.38185L9.4485 8.28496ZM9.01099 9.26588L10.0402 10.0972L10.1665 9.94082L9.13729 9.10952L9.01099 9.26588ZM9.28055 8.93215L10.3098 9.76345L10.4247 9.62109L9.39554 8.78979L9.28055 8.93215ZM9.53692 8.61475L10.5661 9.44605L10.6849 9.29902L9.65567 8.46772L9.53692 8.61475ZM10.3556 7.48663L10.4007 7.75062C10.1254 7.80977 9.8344 7.82152 9.52956 7.78355L9.53504 7.51418C9.82444 7.54739 10.0967 7.53976 10.3556 7.48663Z" fill="white"/>
<path d="M13.5464 9.86355C13.3803 10.0687 13.2335 10.2355 13.1071 10.3725C12.7401 11.1021 12.6924 11.8473 12.9596 12.6042L12.656 12.6787C12.4501 12.0177 12.4625 11.3638 12.6894 10.7214C12.1428 11.0816 11.4963 11.222 10.75 11.1425L10.7753 10.8348C11.7144 10.9624 12.4633 10.7003 13.0239 10.0464C13.1504 9.89019 13.2509 9.77086 13.3226 9.68228L13.5464 9.86355Z" fill="white"/>
<path d="M14.0921 12.4441L13.6434 12.9995C13.8668 13.1144 14.1015 13.2154 14.3456 13.3047L14.2272 13.5562C13.9448 13.4475 13.6035 13.2874 13.2101 13.0775L13.3214 12.8203C13.3776 12.8271 13.4269 12.8091 13.4646 12.7625L14.8562 11.0405L16.5595 12.417L15.9675 13.1496L15.3328 12.6367C15.261 12.7446 15.2015 12.8469 15.1476 12.9422L15.8896 13.5419L15.7161 13.7565L15.0231 13.1965C15.0013 13.2522 14.9814 13.3055 14.9675 13.356C14.906 13.5801 14.8845 13.7595 14.9012 13.8964C14.9192 14.0267 14.961 14.1183 15.0244 14.1734C15.0454 14.1904 15.081 14.1844 15.1294 14.158C15.1797 14.1292 15.271 14.0448 15.4057 13.9068L15.5173 14.1744C15.3244 14.3464 15.1833 14.4445 15.0965 14.4708C15.012 14.499 14.9385 14.4897 14.8806 14.4468C14.7705 14.3539 14.6996 14.2079 14.6654 14.0067C14.6308 13.8013 14.6503 13.5625 14.7214 13.2883C14.7443 13.2026 14.7757 13.1161 14.8131 13.0268L14.0921 12.4441ZM15.1135 12.4595L14.4881 11.9541L14.2656 12.2295L14.9353 12.7707C14.9883 12.6669 15.0478 12.5646 15.1135 12.4595ZM16.171 12.4539L14.9086 11.4338L14.6578 11.7441L15.9202 12.7643L16.171 12.4539Z" fill="white"/>
<path d="M16.7509 12.7693L17.7574 13.5761L17.5829 13.7938L17.2435 13.5217L16.8833 13.9711L17.1291 14.1682L17.0165 14.3086C17.3919 14.152 17.7632 13.8998 18.1346 13.5516L18.3317 13.7518C18.2191 13.8539 18.1057 13.9475 17.9936 14.0345L18.6818 14.5861L18.5073 14.8038L18.3528 14.68C18.0339 15.0395 17.694 15.2861 17.3284 15.416C17.3103 15.7168 17.3494 15.9942 17.4433 16.2463L17.1668 16.3323C17.0724 16.0759 17.0329 15.7943 17.051 15.4935C16.7398 15.5555 16.4119 15.5426 16.0718 15.4584L16.0824 15.167C16.4393 15.2685 16.7757 15.2806 17.0831 15.204C17.1231 14.967 17.1922 14.7225 17.2881 14.4686C17.1662 14.5247 17.0415 14.5747 16.9178 14.614L16.9251 14.3507L16.7144 14.1818L16.2829 14.7202C16.4215 14.7775 16.5573 14.8287 16.6884 14.8761L16.5233 15.0821C16.1552 14.9562 15.7477 14.7834 15.2991 14.5661L15.4015 14.3136C15.4558 14.3418 15.5097 14.3657 15.564 14.3939L16.4196 13.3265L16.6279 13.4935L15.8117 14.5117C15.8838 14.5465 15.9513 14.5775 16.0187 14.6085L17.0282 13.3491L16.5764 12.987L16.7509 12.7693ZM17.3666 15.1045C17.6451 14.9778 17.9006 14.7789 18.1351 14.5055L17.7559 14.2015C17.71 14.2301 17.6664 14.2605 17.6223 14.2867C17.5002 14.5733 17.4128 14.8454 17.3666 15.1045Z" fill="white"/>
<path d="M19.7996 15.6286L19.9782 15.8382C19.8463 15.9328 19.711 16.0172 19.5701 16.0895L18.5413 17.3948L18.3198 17.2202L19.0459 16.299C18.9407 16.3307 18.8369 16.3558 18.7325 16.3767L18.846 16.0727C19.1987 15.9839 19.5167 15.8373 19.7996 15.6286ZM19.7391 16.1463L20.413 16.6774L20.6563 16.3687L20.8754 16.5414L20.6321 16.8501L20.8583 17.0284L20.6875 17.2451L20.4613 17.0669L19.7724 17.941C19.6387 18.1107 19.4898 18.1347 19.332 18.0103L19.0139 17.7596L19.1353 17.5039C19.2286 17.5889 19.3215 17.6698 19.4158 17.744C19.4794 17.7942 19.5421 17.7825 19.5978 17.7118L20.2422 16.8942L19.5683 16.3631L19.7391 16.1463ZM21.3202 16.3648L21.1567 16.5722L19.4697 15.2426L19.0352 15.794C18.6209 16.3002 18.2041 16.6401 17.7822 16.8119L17.7314 16.5274C18.0794 16.3814 18.4408 16.078 18.8137 15.6194L19.4116 14.8607L20.2764 15.5422C20.2974 15.4671 20.3142 15.3925 20.3254 15.3249L20.5978 15.4785C20.5726 15.5541 20.5418 15.6368 20.5073 15.7242L21.3202 16.3648ZM19.6457 16.6914C19.656 16.9594 19.6483 17.1824 19.6285 17.3578L19.3702 17.3414C19.3927 17.1529 19.4 16.9256 19.3924 16.6638L19.6457 16.6914Z" fill="white"/>
<path d="M21.3257 17.4523L21.4652 17.6843C21.1693 17.9072 20.9007 18.0451 20.6552 18.0987L20.5996 17.8214C20.8366 17.7689 21.0774 17.6475 21.3257 17.4523ZM22.4669 16.9859L22.6953 17.1614L22.3554 17.6039L23.1073 18.1813C22.9746 18.3442 22.8534 18.4971 22.739 18.6362L22.9545 18.6806C22.8995 18.9788 22.8257 19.2966 22.7288 19.6345L22.4451 19.5755C22.5385 19.2765 22.6102 18.9911 22.6612 18.7277C22.5164 18.8964 22.3863 19.0462 22.2745 19.1721C22.0533 19.4108 21.874 19.5605 21.7389 19.6232C21.6074 19.6811 21.4792 19.6658 21.3505 19.5821L21.0722 19.3683L21.1784 19.1019C21.2557 19.1688 21.33 19.2297 21.4013 19.2845C21.5179 19.374 21.6586 19.3534 21.8196 19.2275C21.9856 19.0902 22.2817 18.7539 22.7084 18.223L22.1778 17.8155C21.8635 18.1755 21.5593 18.4337 21.2653 18.5899C20.9424 18.7542 20.5843 18.7969 20.1915 18.7222L20.2194 18.4297C20.6058 18.4882 20.9376 18.4403 21.2129 18.2887C21.4528 18.1438 21.6983 17.9276 21.9494 17.6401L21.3831 17.2052L21.5512 16.9863L22.127 17.4285L22.4669 16.9859Z" fill="white"/>
<path d="M24.594 18.6263L24.7435 18.8679C24.199 19.2448 23.6866 19.4624 23.2082 19.5185L23.1435 19.2279C23.6346 19.1699 24.1195 18.9692 24.594 18.6263ZM24.5533 20.5754C24.5339 20.9643 24.482 21.3516 24.3894 21.7385L24.1034 21.6759C24.1269 21.5738 24.1527 21.4735 24.1725 21.3761C23.7068 21.1279 23.2059 20.8313 22.6651 20.4828L22.7885 20.2307C23.0007 20.3021 23.5127 20.1102 24.3267 19.6569L24.4937 19.9001C23.999 20.1645 23.5494 20.3578 23.1499 20.4836C23.51 20.7132 23.8694 20.9236 24.2233 21.1113C24.2616 20.8932 24.2869 20.6879 24.2966 20.4934L24.5533 20.5754ZM25.4735 19.2484C25.2833 19.7871 25.2484 20.3177 25.3756 20.8414L25.0723 20.9079C24.9444 20.35 24.9851 19.7864 25.1961 19.2146L25.4735 19.2484Z" fill="white"/>
<path d="M28.4683 21.5197L28.3091 21.7452L26.6109 20.5458L26.1004 21.2687C25.7323 21.769 25.3397 22.1013 24.9248 22.2674L24.8592 21.986C25.2009 21.8454 25.5376 21.5506 25.8676 21.1042L26.5374 20.1559L28.4683 21.5197ZM26.4814 20.9685L28.0349 22.0657L27.8792 22.2863L27.2813 21.864L26.5232 22.9373C26.3934 23.121 26.2419 23.1536 26.0703 23.0324L25.8106 22.849L25.9125 22.5904C25.9864 22.6573 26.0613 22.7176 26.1349 22.7695C26.2059 22.8197 26.2738 22.8015 26.3327 22.7182L27.0509 21.7013L26.3256 21.189L26.4814 20.9685Z" fill="white"/>
<path d="M28.6882 22.551L28.9155 22.7022L28.6812 23.0544L28.941 23.2272L28.7998 23.4395L28.54 23.2668L28.3506 23.5515C28.478 23.6038 28.602 23.6503 28.7185 23.6917L28.569 23.9166C28.45 23.8734 28.3259 23.827 28.1994 23.7788L27.8455 24.3109L27.6182 24.1597L27.9422 23.6726C27.7807 23.6012 27.6117 23.5249 27.4411 23.4402L27.5656 23.1879C27.7487 23.2809 27.9261 23.3664 28.0951 23.4428L28.3127 23.1156L27.913 22.8497L28.0026 22.6067C28.1573 22.515 28.3327 22.3867 28.5281 22.2176L28.3082 22.0714L28.4611 21.8415L28.7409 22.0276C28.8281 21.9452 28.9187 21.8577 29.0102 21.7636L29.2134 21.9456C29.1303 22.0272 29.0488 22.1063 28.9707 22.1805L29.4203 22.4795L29.2675 22.7093L28.7579 22.3704C28.5766 22.5237 28.4062 22.6553 28.2441 22.7637L28.4539 22.9032L28.6882 22.551ZM29.5202 22.546L29.8974 22.7968C29.9855 22.7077 30.0711 22.6169 30.1584 22.5237L30.3757 22.7006C30.2918 22.7889 30.2112 22.8722 30.1347 22.9547L30.7142 23.3401L30.5614 23.5699L29.9344 23.1529C29.8638 23.2212 29.7948 23.287 29.7274 23.3503L30.4693 23.8438L30.3181 24.0711L29.5188 23.5394C29.4282 23.6161 29.3409 23.6877 29.2611 23.7536L30.0405 24.2719L29.9109 24.4668C29.7246 24.5735 29.5 24.6511 29.2288 24.7013C29.2822 24.8161 29.3273 24.9325 29.3698 25.0473L29.1012 25.1641C28.9768 24.7931 28.8192 24.4613 28.6259 24.1669L28.8779 24.0643C28.9645 24.194 29.0412 24.3279 29.1096 24.4635C29.3159 24.435 29.4989 24.3873 29.6561 24.3189L28.8268 23.7673C28.9781 23.6482 29.1294 23.5182 29.284 23.3833L28.9892 23.1872L29.1404 22.9599L29.4926 23.1942C29.5633 23.1259 29.6323 23.0601 29.6996 22.9968L29.3674 22.7758L29.5202 22.546Z" fill="white"/>
<path d="M30.8646 24.1445L31.526 23.5231L31.7434 23.7135L31.3194 24.1041L31.6974 24.3371C31.8624 24.178 32.0235 24.0024 32.1832 23.8119L32.412 23.9952C32.257 24.1781 32.1022 24.3435 31.9502 24.4929L33.1199 25.2139L32.9766 25.4463L31.7457 24.6876C31.6682 24.7561 31.5913 24.818 31.5185 24.8788L32.5401 25.5085L32.4142 25.7128C32.2187 25.8813 31.9771 25.9931 31.6842 26.0452C31.8122 26.2721 31.9857 26.5165 32.2023 26.7769L31.9355 26.9296C31.6958 26.6268 31.5124 26.3411 31.3848 26.0792C31.0965 26.0953 30.7701 26.0703 30.4055 26.0042L30.4195 25.6957C30.7316 25.7611 31.0142 25.7943 31.2632 25.7963C31.179 25.5612 31.142 25.341 31.1532 25.14C30.7363 25.4046 30.3182 25.5627 29.9013 25.6159L29.9147 25.314C30.4592 25.2197 30.9835 24.9579 31.4877 24.5286L30.8646 24.1445ZM31.4112 25.1158C31.4027 25.3184 31.4489 25.5407 31.5515 25.7802C31.7927 25.7491 31.9967 25.681 32.1595 25.577L31.4112 25.1158ZM32.8584 24.2316C32.9527 24.473 33.0174 24.6997 33.054 24.909L32.7733 24.9756C32.753 24.7798 32.695 24.5538 32.5958 24.2917L32.8584 24.2316Z" fill="white"/>
<path d="M33.5806 25.2501L34.6338 25.8437C34.6365 25.68 34.6192 25.5152 34.5832 25.3469L34.8831 25.3954C34.9064 25.5738 34.9113 25.7729 34.8951 25.991L35.8856 26.5493L35.7471 26.795L35.3473 26.5696C34.9979 26.8961 34.6253 27.1235 34.2279 27.2542C34.3745 27.6295 34.6096 28.0066 34.9296 28.3798L34.6733 28.5108C34.3409 28.1168 34.1012 27.7234 33.9567 27.332C33.5141 27.4269 33.0418 27.4156 32.5399 27.2979L32.5304 27.0033C33.0156 27.1322 33.4604 27.1556 33.8715 27.0739C33.746 26.6244 33.7363 26.1712 33.842 25.7211L33.4421 25.4957L33.5806 25.2501ZM34.0798 25.8552C34.0084 26.2385 34.027 26.6209 34.1397 27.0013C34.4825 26.888 34.801 26.6956 35.0912 26.4253L34.0798 25.8552Z" fill="white"/>
<path d="M37.1985 26.6567L37.3793 26.8901C37.1768 27.0631 36.9531 27.2118 36.7094 27.3335L35.8128 29.0955L35.5615 28.9677L36.307 27.5024C36.1403 27.5589 35.9668 27.6087 35.7881 27.649L35.8426 27.3435C36.3627 27.2144 36.8151 26.9868 37.1985 26.6567ZM37.2223 29.7521L36.7223 29.4977C36.5084 29.3889 36.4559 29.2275 36.5647 29.0136L36.9457 28.265C36.8236 28.2668 36.6988 28.2673 36.5727 28.2637L36.5802 27.9645C36.7572 27.9738 36.9302 27.9777 37.0967 27.9682L37.6259 26.9281L37.8799 27.0573L37.431 27.9397C37.7814 27.8992 38.1147 27.8197 38.4255 27.6985L38.4999 27.9888C38.1126 28.1216 37.7041 28.2099 37.2745 28.2472L36.8364 29.1081C36.7983 29.183 36.8194 29.2408 36.905 29.2844L37.3033 29.4871C37.3648 29.5184 37.4212 29.5201 37.471 29.495C37.5181 29.4684 37.609 29.3363 37.7395 29.093L37.9353 29.2903C37.7601 29.5882 37.6302 29.7577 37.5494 29.7974C37.4659 29.8357 37.356 29.8202 37.2223 29.7521Z" fill="white"/>
<path d="M41.282 28.7562L41.1675 29.0073L39.276 28.1443L38.9087 28.9494C38.64 29.5094 38.3159 29.9089 37.9391 30.1492L37.8223 29.8849C38.132 29.6832 38.4081 29.3311 38.6494 28.8311L39.1313 27.7749L41.282 28.7562ZM39.2272 28.5837L40.9576 29.3732L40.8455 29.6189L40.1796 29.315L39.6341 30.5104C39.5407 30.7151 39.3979 30.7753 39.2068 30.6881L38.9175 30.5561L38.9696 30.2831C39.0546 30.3351 39.1395 30.3804 39.2214 30.4177C39.3005 30.4539 39.3639 30.4234 39.4062 30.3306L39.923 29.1979L39.1152 28.8293L39.2272 28.5837Z" fill="white"/>
<path d="M41.5598 29.702L42.3663 30.0284L42.4237 29.8866L42.6851 29.9923L42.6277 30.1342L43.423 30.456L43.3296 30.6868L42.5343 30.365L42.4488 30.5763L43.5611 31.0265L43.4689 31.2545L42.9544 31.0463L42.8666 31.2632L43.2615 31.423L43.1681 31.6538L42.7732 31.4941L42.619 31.875C42.5481 32.0502 42.4148 32.0998 42.2257 32.0233L41.8336 31.8647L41.8765 31.5907C41.9999 31.6536 42.1161 31.7104 42.2273 31.7554C42.3052 31.7869 42.3576 31.7693 42.3824 31.7081L42.5118 31.3883L40.9628 30.7615L41.0562 30.5307L42.6052 31.1575L42.693 30.9405L40.9799 30.2473L41.0722 30.0193L42.1873 30.4706L42.2729 30.2592L41.4664 29.9329L41.5598 29.702ZM41.4509 31.0108C41.5354 31.21 41.5932 31.379 41.6272 31.519L41.364 31.5775C41.3278 31.427 41.2684 31.254 41.1828 31.0576L41.4509 31.0108ZM41.857 29.3595C41.7435 29.456 41.6251 29.5408 41.5017 29.6138L41.3321 29.3769C41.5722 29.2475 41.7695 29.0879 41.929 28.8935L42.1568 29.0504C42.1199 29.0937 42.0802 29.1359 42.0432 29.1792L42.7079 29.4482L42.619 29.6678L42.1907 29.4945C42.2181 29.6027 42.2378 29.6981 42.2475 29.7861L41.9723 29.7783C41.9645 29.6457 41.9444 29.5114 41.9126 29.382L41.857 29.3595ZM42.9894 29.808C42.9089 29.879 42.8262 29.9394 42.743 29.9931L42.5812 29.7691C42.7644 29.6523 42.9215 29.512 43.0481 29.3431L43.2742 29.4961C43.2373 29.5394 43.2031 29.5838 43.1673 29.6244L43.9265 29.9316L43.8376 30.1513L43.3899 29.9701C43.4201 30.0794 43.4375 30.1803 43.4444 30.2672L43.1815 30.2612C43.1709 30.1274 43.1497 29.9959 43.1201 29.8609L42.9894 29.808Z" fill="white"/>
<path d="M44.6577 30.6547C44.6729 30.8002 44.6735 30.9691 44.6621 31.1625L44.9138 31.2518C45.0338 31.1289 45.1512 30.9954 45.2603 30.8495L45.4761 31.0217C45.3751 31.145 45.2762 31.2531 45.1767 31.3451L45.482 31.4535L45.3907 31.7108L43.9686 31.206L44.06 30.9487L44.4105 31.0731C44.4104 30.9299 44.4027 30.7902 44.3835 30.6561L44.6577 30.6547ZM45.9235 30.5597L46.9045 30.9079L46.8322 31.1115C46.6422 31.3688 46.4507 31.6032 46.2606 31.8159C46.3775 32.1502 46.4097 32.4004 46.3543 32.5654C46.2861 32.7576 46.1993 32.8765 46.0997 32.9239C45.9945 32.9693 45.8193 32.9516 45.5818 32.8673L45.5973 32.5545C45.6951 32.602 45.7779 32.6377 45.8486 32.6628C45.9118 32.6821 45.9602 32.6802 45.9892 32.6523C46.0162 32.63 46.0478 32.568 46.0857 32.47C46.1401 32.3079 46.1023 32.0557 45.9751 31.7145C46.1437 31.5356 46.3245 31.3133 46.5193 31.0514L46.0952 30.9008L45.2934 33.1597L45.0333 33.0674L45.9235 30.5597ZM44.3887 30.1931L44.9089 30.3778C44.9097 30.2858 44.9085 30.1994 44.9043 30.1215L45.1946 30.1736C45.191 30.2646 45.1843 30.3641 45.1718 30.4711L45.7316 30.6698L45.6402 30.9271L44.2973 30.4504L44.3887 30.1931ZM45.2043 31.877L44.8109 32.9853L44.5423 32.8899L44.5945 32.7429L43.9669 32.5201L43.9147 32.6671L43.6518 32.5738L44.0452 31.4655L45.2043 31.877ZM44.0572 32.2657L44.6848 32.4885L44.8454 32.0361L44.2178 31.8133L44.0572 32.2657Z" fill="white"/>
<path d="M48.5677 34.199L48.3327 34.1261L48.3431 33.8498L48.5906 33.9329C48.6651 33.956 48.7212 33.9169 48.7524 33.8166L49.3244 31.9744L48.2471 31.6399L48.3254 31.3878L49.6662 31.8041L48.9928 33.9729C48.9252 34.1907 48.7825 34.2658 48.5677 34.199ZM47.2026 31.4224L47.4662 31.5042L46.7919 33.6759L46.5283 33.5941L47.2026 31.4224ZM47.8377 31.0667C47.9214 31.2623 47.9855 31.4707 48.0289 31.6852L47.7453 31.7385C47.6987 31.5042 47.6355 31.2929 47.5575 31.0991L47.8377 31.0667Z" fill="white"/>
<path d="M50.7815 31.9902C50.8523 32.1648 50.9162 32.3531 50.9704 32.5543L50.7666 32.5954L51.3659 32.7579C51.5149 32.6211 51.661 32.4494 51.8033 32.2455L52.0529 32.3909C51.9374 32.5648 51.81 32.7136 51.6757 32.8419L52.2259 32.9911L52.1536 33.2575L51.2097 33.0015L51.1854 33.0913C51.1419 33.2287 51.0929 33.3522 51.0404 33.4654L52.1928 33.7779L52.1205 34.0443L51.1071 33.7694C51.154 34.1583 51.4413 34.5315 51.9684 34.892L51.7355 35.1086C51.195 34.6947 50.8995 34.2602 50.8422 33.8064C50.7532 33.9284 50.6565 34.0327 50.553 34.1165C50.2854 34.3237 49.9099 34.4363 49.4263 34.4544L49.3409 34.1732C49.826 34.1494 50.1766 34.0486 50.3956 33.8718C50.4733 33.8027 50.5448 33.7226 50.6091 33.6344L49.6189 33.3658L49.6911 33.0995L50.7567 33.3884C50.8128 33.2731 50.8647 33.1504 50.9074 33.0159L50.9318 32.9261L49.985 32.6694L50.0572 32.403L50.6768 32.571C50.6268 32.3772 50.5655 32.202 50.4966 32.0435L50.7815 31.9902Z" fill="white"/>
<path d="M52.8598 32.6375L55.0697 33.1608L55.0054 33.4323L54.0741 33.2118L53.9055 33.9241L55.041 34.193L54.9754 34.4703L53.8398 34.2014L53.604 35.1969C53.5556 35.4012 53.4227 35.4807 53.2096 35.4302L52.7455 35.3203L52.7507 35.0379C52.8975 35.0819 53.0391 35.1217 53.1734 35.1535C53.2668 35.1756 53.3239 35.1429 53.3433 35.0611L53.5624 34.1357L52.3772 33.855L52.4429 33.5777L53.6281 33.8584L53.7968 33.1461L52.7955 32.909L52.8598 32.6375Z" fill="white"/>
<path d="M56.7754 34.8295L56.7085 35.1557L57.164 35.2491L57.2309 34.9229L56.7754 34.8295ZM56.6554 35.4143L56.5807 35.7787L57.0362 35.8722L57.111 35.5077L56.6554 35.4143ZM56.5259 36.0462L56.4987 36.1784L56.2225 36.1217L56.5564 34.4936C56.4802 34.5668 56.3986 34.6358 56.3142 34.7043L56.2804 34.3911C56.5764 34.1272 56.8103 33.823 56.9803 33.472L57.2399 33.5803C57.1686 33.7188 57.0897 33.8496 57.0032 33.9728L57.4528 34.065C57.4347 33.9143 57.4108 33.7624 57.3797 33.6151L57.6616 33.5995C57.6895 33.792 57.7092 33.9645 57.7144 34.1186L58.164 34.2109L58.1092 34.4783L57.6301 34.3801L57.5608 34.718L57.9811 34.8042L57.9274 35.0658L57.5072 34.9796L57.4403 35.3058L57.8605 35.392L57.8075 35.6506L57.3872 35.5644L57.3125 35.9288L57.8238 36.0337L57.769 36.3011L56.5259 36.0462ZM57.3539 34.3234L56.8984 34.23L56.829 34.5679L57.2846 34.6614L57.3539 34.3234ZM56.2972 34.563L56.2387 34.848C56.1486 34.8694 56.0561 34.8871 55.9666 34.9055L55.8027 35.7049C55.7635 35.8959 55.6437 35.9724 55.4468 35.932L55.1823 35.8778L55.176 35.5947C55.253 35.6228 55.3282 35.6443 55.4016 35.6594C55.478 35.6751 55.5235 35.6476 55.538 35.5771L55.6657 34.9541C55.5462 34.9694 55.4244 34.9811 55.3061 34.9905L55.2934 34.694C55.4376 34.6929 55.58 34.6854 55.7236 34.6719L55.8502 34.0548L55.4975 33.9825L55.553 33.7121L55.9056 33.7844L56.0117 33.2672L56.2909 33.3244L56.1848 33.8417L56.4581 33.8977L56.4027 34.1681L56.1294 34.1121L56.0239 34.6263C56.1163 34.6086 56.2065 34.5872 56.2972 34.563Z" fill="white"/>
<path d="M58.6128 33.9855L59.7115 34.1808L59.6638 34.4496L58.565 34.2543L58.6128 33.9855ZM58.3617 34.7636L59.6761 34.9972L59.6278 35.269L58.9632 35.1508C58.7849 35.5366 58.6409 35.8157 58.5305 35.9911C58.7328 35.9844 58.9412 35.9605 59.1522 35.9218C59.11 35.765 59.0662 35.617 59.0208 35.478L59.2776 35.4048C59.3694 35.677 59.4505 35.9748 59.5215 36.2952L59.2573 36.3762L59.2141 36.1735C58.885 36.2247 58.536 36.251 58.1641 36.252L58.1435 35.9741C58.1741 35.9734 58.1934 35.9677 58.2067 35.9609C58.307 35.8599 58.4674 35.5746 58.6915 35.1025L58.3134 35.0353L58.3617 34.7636ZM60.2506 34.0969L60.5282 34.1462L60.4263 34.7192L61.0643 34.8327C60.8932 35.7956 60.7728 36.3866 60.7064 36.6064C60.634 36.8251 60.4634 36.9106 60.1946 36.8628C60.1473 36.8544 60.0657 36.8338 59.9486 36.8069L59.9277 36.5472C60.0325 36.575 60.123 36.5971 60.1998 36.6108C60.3297 36.6339 60.4162 36.5761 60.465 36.4386C60.5074 36.3029 60.5987 35.8407 60.7443 35.0561L60.378 34.991L60.3733 35.0176C60.2132 35.8667 59.8991 36.4507 59.4276 36.7721L59.251 36.5488C59.6703 36.2638 59.9527 35.7381 60.0957 34.9682L60.1004 34.9416L59.7253 34.8749L59.7736 34.6032L60.1487 34.6699L60.2506 34.0969Z" fill="white"/>
<path d="M61.2679 34.759L62.4628 34.9434C62.4077 34.7892 62.3334 34.6411 62.2404 34.4962L62.5381 34.4359C62.6228 34.5947 62.6976 34.7793 62.7593 34.9891L63.883 35.1625L63.84 35.4412L63.3863 35.3712C63.1745 35.7999 62.9059 36.144 62.58 36.4064C62.8495 36.706 63.2024 36.976 63.6334 37.2124L63.4397 37.4254C62.9898 37.1738 62.6268 36.8902 62.3537 36.5748C61.9729 36.8196 61.5269 36.9754 61.0157 37.0422L60.903 36.7698C61.4025 36.7194 61.827 36.5846 62.183 36.3633C61.9071 35.9868 61.7383 35.5662 61.6786 35.1077L61.2249 35.0377L61.2679 34.759ZM61.9484 35.1493C62.0166 35.5332 62.1688 35.8845 62.4084 36.2008C62.6893 35.974 62.9195 35.6817 63.0958 35.3264L61.9484 35.1493Z" fill="white"/>
<path d="M65.2177 34.8321L65.4658 34.9921C65.3323 35.2226 65.1707 35.4372 64.9813 35.6329L64.721 37.5927L64.4415 37.5556L64.6579 35.9259C64.5194 36.0346 64.3723 36.1392 64.2171 36.2366L64.167 35.9303C64.6147 35.6357 64.9658 35.2707 65.2177 34.8321ZM66.2686 37.7438L65.7125 37.6699C65.4746 37.6383 65.3714 37.5036 65.403 37.2657L65.5136 36.433C65.399 36.4752 65.2815 36.5171 65.1614 36.5557L65.069 36.271C65.2391 36.221 65.4036 36.1672 65.5574 36.1029L65.711 34.946L65.9936 34.9835L65.8632 35.9649C66.1803 35.8103 66.4683 35.6246 66.7211 35.407L66.8878 35.6561C66.5666 35.91 66.2107 36.1291 65.8178 36.3069L65.6907 37.2645C65.6796 37.3478 65.7187 37.3953 65.8138 37.408L66.257 37.4668C66.3254 37.4759 66.3791 37.4588 66.4177 37.4186C66.4534 37.3779 66.4951 37.223 66.5374 36.9502L66.7876 37.0712C66.7214 37.4105 66.6551 37.6135 66.5921 37.6778C66.5261 37.7416 66.4173 37.7635 66.2686 37.7438Z" fill="white"/>
<path d="M67.5706 35.6264L68.7495 35.8946C68.7054 35.7369 68.6418 35.5839 68.5592 35.4329L68.8604 35.3937C68.9338 35.5581 68.9953 35.7474 69.042 35.9611L70.1507 36.2134L70.0882 36.4883L69.6406 36.3865C69.399 36.7992 69.1068 37.1235 68.7633 37.3622C69.0109 37.6801 69.344 37.9743 69.7572 38.2406L69.5489 38.4393C69.1179 38.1567 68.7758 37.8481 68.5256 37.5143C68.1285 37.7316 67.6727 37.8556 67.1581 37.8862L67.0648 37.6065C67.5666 37.5914 67.9996 37.4869 68.3702 37.2912C68.1217 36.8963 67.9829 36.4647 67.9557 36.0032L67.5081 35.9013L67.5706 35.6264ZM68.2218 36.0637C68.2629 36.4515 68.3899 36.8127 68.6066 37.145C68.9027 36.9386 69.1531 36.6633 69.3539 36.3213L68.2218 36.0637Z" fill="white"/>
<path d="M72.0884 36.3497L72.3185 36.5069C72.2411 36.6319 72.1649 36.7447 72.0901 36.8451L73.1642 37.236C72.8113 38.2058 72.5798 38.7983 72.4695 39.0136C72.3475 39.2437 72.1455 39.3075 71.8607 39.2039C71.8213 39.1895 71.7528 39.1583 71.6534 39.1157L71.6786 38.8535C71.7657 38.8948 71.8398 38.9281 71.9074 38.9527C72.0625 39.0091 72.1824 38.9602 72.2645 38.8049C72.3327 38.6701 72.5153 38.2034 72.8133 37.402L72.6864 37.3558C72.4582 37.79 72.2441 38.1239 72.0395 38.3527C71.8011 38.6044 71.5102 38.7986 71.1703 38.9431L71.0809 38.6711C71.388 38.5466 71.6451 38.3752 71.8579 38.1589C72.0486 37.9506 72.2455 37.6551 72.4439 37.2676L72.2804 37.2081C71.9453 37.7694 71.5739 38.1322 71.1632 38.2957L71.0641 38.0329C71.4265 37.8966 71.7536 37.5943 72.0436 37.1219L71.9027 37.0707C71.7678 37.2131 71.6337 37.3272 71.4997 37.4061L71.3629 37.168C71.6215 37.0099 71.8643 36.7375 72.0884 36.3497ZM70.816 36.8285C70.7442 36.9556 70.666 37.074 70.586 37.1886L70.3756 37.0386C70.5689 36.7705 70.7307 36.475 70.8609 36.1521L71.0916 36.2552C71.0449 36.3659 70.9954 36.4756 70.9442 36.5814L71.0908 36.6348L71.2959 36.0709L71.5553 36.1653L71.3501 36.7292L71.5559 36.804L71.4616 37.0634L71.2558 36.9885L71.0393 37.5834C71.1183 37.577 71.1944 37.5696 71.2677 37.5611L71.1754 37.8148C71.0992 37.8223 71.0231 37.8297 70.948 37.8343L70.6095 38.7646L70.3502 38.6702L70.6507 37.8442C70.4997 37.8468 70.348 37.8426 70.1945 37.8346L70.2268 37.5527C70.397 37.5763 70.5703 37.5915 70.742 37.5933L70.9964 36.8941L70.816 36.8285Z" fill="white"/>
<path d="M73.9237 37.5632L74.4664 37.8329C74.4486 37.68 74.4228 37.5365 74.3849 37.4038L74.6479 37.4072C74.6898 37.552 74.721 37.7049 74.7402 37.8685L74.5389 37.869L75.0816 38.1387C75.2343 38.0471 75.3776 37.9408 75.5142 37.821L75.7173 38.0325C75.5968 38.1267 75.4735 38.2062 75.3476 38.2709L75.8365 38.5139L75.2636 39.6664L74.4335 39.2538L74.328 39.466L75.4026 40.0001L75.2824 40.2419L74.2079 39.7078L73.9688 40.1887L73.7163 40.0632L73.9553 39.5823L72.8808 39.0482L73.0009 38.8064L74.0755 39.3405L74.181 39.1283L73.3509 38.7157L73.9237 37.5632ZM75.1287 39.3179L75.2515 39.0707L74.6685 38.781L74.5457 39.0281L75.1287 39.3179ZM74.2932 38.9026L74.416 38.6555L73.8331 38.3657L73.7102 38.6129L74.2932 38.9026ZM73.9399 38.1508L74.5228 38.4405L74.643 38.1988L74.0601 37.909L73.9399 38.1508ZM74.8955 38.3243L74.7754 38.5661L75.3583 38.8558L75.4785 38.614L74.8955 38.3243Z" fill="white"/>
<path d="M77.1106 38.6965L77.2732 38.9415C77.0896 39.0961 76.8928 39.232 76.682 39.345L75.6196 41.0655L75.3797 40.9173L76.2229 39.5517C76.088 39.5988 75.9522 39.6419 75.8143 39.6767L75.8944 39.37C76.3376 39.2347 76.7428 39.0124 77.1106 38.6965ZM77.0355 39.2178L77.6941 39.6245C77.734 39.4799 77.7651 39.3439 77.7879 39.2099L78.0684 39.3267C78.0348 39.4611 77.9917 39.6108 77.9366 39.7742L78.5875 40.1761L78.4441 40.4084L76.8921 39.4501L77.0355 39.2178ZM75.9897 40.8145L76.8576 41.3504C77.1907 41.0907 77.559 40.7398 77.9598 40.2962L78.1558 40.4984C77.7942 40.8956 77.4436 41.2292 77.1052 41.5033L77.6514 41.8406L77.5049 42.0779L75.8431 41.0519L75.9897 40.8145ZM77.1492 39.8275C77.0476 40.209 76.9033 40.6311 76.7214 41.097L76.4605 41.017C76.629 40.5957 76.7676 40.1771 76.8804 39.7602L77.1492 39.8275Z" fill="white"/>
<path d="M78.9445 40.4411L79.9224 41.1519C79.944 40.9896 79.9457 40.824 79.9294 40.6526L80.2216 40.7352C80.2243 40.9152 80.2063 41.1135 80.1651 41.3283L81.0848 41.9969L80.919 42.225L80.5477 41.9551C80.1631 42.2393 79.7668 42.4222 79.357 42.5063C79.4595 42.8961 79.6497 43.2977 79.9246 43.7052L79.6549 43.8058C79.37 43.3762 79.1771 42.9579 79.0787 42.5525C78.6281 42.5958 78.1602 42.5302 77.6752 42.3557L77.6996 42.0619C78.1668 42.2457 78.6059 42.3201 79.0237 42.2863C78.9508 41.8253 78.9933 41.3741 79.15 40.9391L78.7787 40.6692L78.9445 40.4411ZM79.3708 41.0996C79.2557 41.4721 79.2303 41.8542 79.2985 42.245C79.6521 42.1719 79.9906 42.0174 80.3099 41.7822L79.3708 41.0996Z" fill="white"/>
<path d="M82.4848 42.467L82.6112 42.7338C82.3762 42.8592 82.1257 42.9562 81.8615 43.0226L80.6067 44.5504L80.3888 44.3714L81.4323 43.101C81.2572 43.1203 81.0772 43.1315 80.8939 43.1324L81.0129 42.8458C81.5486 42.8316 82.0394 42.7068 82.4848 42.467ZM81.8419 45.495L81.4083 45.1389C81.2229 44.9866 81.2063 44.8177 81.3586 44.6322L81.8918 43.9831C81.7722 43.9586 81.6502 43.9322 81.5278 43.9016L81.5995 43.611C81.7704 43.6582 81.9386 43.6993 82.1031 43.7258L82.8438 42.8239L83.0641 43.0048L82.4357 43.7699C82.7867 43.8058 83.1293 43.7999 83.4589 43.7484L83.4691 44.0479C83.0622 44.0942 82.6443 44.0926 82.2168 44.0365L81.6036 44.783C81.5503 44.8479 81.5584 44.9089 81.6326 44.9698L81.978 45.2535C82.0314 45.2973 82.086 45.3111 82.1401 45.2973C82.1918 45.2816 82.309 45.172 82.4888 44.9626L82.6376 45.1974C82.4024 45.4506 82.2389 45.5882 82.1515 45.6095C82.0618 45.629 81.9578 45.5902 81.8419 45.495Z" fill="white"/>
<path d="M84.2144 45.5523L83.7984 45.1803L83.0365 46.0323C82.9885 46.086 82.9916 46.141 83.052 46.195L83.4411 46.543C83.5082 46.603 83.5666 46.6231 83.6123 46.6036C83.6622 46.5838 83.7436 46.5197 83.8545 46.4137L83.9936 46.6588C83.8017 46.8373 83.6689 46.9318 83.5926 46.9361C83.5248 46.9399 83.435 46.8918 83.3277 46.7958L82.7843 46.3098C82.6434 46.1838 82.6341 46.0548 82.7541 45.9206L83.704 44.8584L83.5007 44.8697L83.5294 44.5855C83.9158 44.581 84.3164 44.5246 84.729 44.4187L84.8856 44.5587C84.8984 44.9405 84.8942 45.3231 84.8687 45.7027L84.6 45.7241C84.6357 45.2972 84.6529 44.9584 84.6452 44.706C84.3749 44.7742 84.0972 44.8237 83.8077 44.8505L84.5903 45.5504L84.0384 46.1676C83.9262 46.2886 83.8011 46.2935 83.6589 46.1824C83.5717 46.1044 83.4909 46.0282 83.4167 45.9537L83.5432 45.7087C83.618 45.7916 83.6855 45.8601 83.7481 45.9161C83.7996 45.9621 83.8504 45.9593 83.8944 45.9101L84.2144 45.5523ZM85.3793 45.3343L85.5872 45.5203L84.3533 46.9L84.1454 46.714L85.3793 45.3343ZM84.1143 47.5274L83.7766 47.2254L83.9094 46.9779C84.011 47.0849 84.1121 47.1833 84.2105 47.2713C84.2641 47.3193 84.321 47.3098 84.379 47.2449L85.9428 45.4962L86.1553 45.6862L84.5434 47.4886C84.4034 47.6451 84.2596 47.6574 84.1143 47.5274Z" fill="white"/>
<path d="M86.6027 46.6502L86.2627 46.3286L86.4276 46.1542L87.1468 46.8346C87.1644 46.781 87.18 46.7297 87.1914 46.6826L87.4489 46.8601C87.4271 46.918 87.4034 46.9823 87.3735 47.049L88.1275 47.7623L87.9626 47.9366L87.6161 47.6088L87.4292 47.6798L87.9413 48.1643L87.7723 48.343L85.8675 46.5411L86.0365 46.3624L86.5313 46.8304L86.6027 46.6502ZM86.747 47.0345L87.2134 47.4757L87.4003 47.4047L86.8184 46.8543L86.747 47.0345ZM86.0076 46.8471L87.459 48.2201L86.8158 48.9001L85.3643 47.527L86.0076 46.8471ZM86.7615 48.5514L86.8646 48.4425L85.8185 47.4529L85.7154 47.5619L86.7615 48.5514ZM85.9587 47.3047L87.0048 48.2943L87.1058 48.1875L86.0597 47.1979L85.9587 47.3047ZM85.2011 47.5337L85.3624 47.7648C85.1494 47.8895 84.9395 47.9718 84.7306 48.0136L84.657 47.7334C84.8555 47.6982 85.0341 47.6317 85.2011 47.5337ZM85.8262 49.1037L85.2944 48.6007C85.1266 48.4419 85.1159 48.2873 85.2561 48.1391L85.52 47.8601L85.7292 48.0581L85.5066 48.2934C85.455 48.3479 85.4609 48.4072 85.5285 48.4711L85.9622 48.8813C86.0014 48.9185 86.038 48.9365 86.0677 48.9357C86.108 48.9367 86.1769 48.8945 86.2763 48.8068L86.4127 49.0556C86.2509 49.1917 86.1317 49.2565 86.0549 49.2417C85.9888 49.2286 85.9112 49.1841 85.8262 49.1037ZM86.1341 48.2718C86.1388 48.4414 86.1321 48.5795 86.1139 48.6904L85.8283 48.6474C85.8463 48.528 85.855 48.3835 85.8524 48.2159L86.1341 48.2718ZM86.7708 48.9608C86.7566 49.2158 86.7307 49.4266 86.6949 49.591L86.4093 49.548C86.4531 49.3664 86.4854 49.1533 86.504 48.9066L86.7708 48.9608Z" fill="white"/>
<path d="M89.6675 48.983C89.6303 49.0809 89.5826 49.1854 89.5287 49.3005L90.2725 50.0288L90.0836 50.2217L89.7235 49.8691C89.6076 49.9446 89.4852 50.0095 89.3585 50.0618L89.8537 50.5466L89.6606 50.7438L88.1386 49.2537L87.8553 49.543C87.5193 49.8691 87.1798 50.0657 86.8347 50.1266L86.8125 49.8362C87.0878 49.7866 87.3661 49.6225 87.6495 49.3416L88.126 48.855L88.559 49.2789L88.7589 48.9247L88.3773 48.5511L88.5662 48.3581L89.3208 49.0969C89.3621 48.9989 89.3951 48.901 89.4195 48.8074L89.6675 48.983ZM88.7605 49.4762L89.1634 49.8708C89.2902 49.8185 89.4125 49.7536 89.5284 49.6781L88.9582 49.1199L88.7605 49.4762Z" fill="white"/>
<path d="M91.0235 50.5125L92.2326 51.7132L91.4948 52.4561L90.2857 51.2554L91.0235 50.5125ZM91.4828 52.0637L91.8401 51.704L91.0355 50.9049L90.6782 51.2646L91.4828 52.0637ZM90.6295 51.9139L89.6782 52.8718L89.4824 52.6773L89.5839 52.5751L89.1901 52.1841L89.0886 52.2862L88.8906 52.0896L89.8419 51.1318L90.6295 51.9139ZM89.3782 51.9946L89.772 52.3857L90.2434 51.911L89.8496 51.5199L89.3782 51.9946ZM91.6215 52.899L90.6702 53.8569L90.4679 53.6561L90.5694 53.5539L90.1586 53.1459L90.0571 53.2481L89.8592 53.0515L90.8105 52.0936L91.6215 52.899ZM90.3467 52.9565L90.7576 53.3645L91.229 52.8898L90.8182 52.4818L90.3467 52.9565Z" fill="white"/>
<path d="M92.8978 52.4566L94.5773 54.1203L94.383 54.3164L94.042 53.9786L93.5353 54.4901L93.985 54.9356L93.7908 55.1317L93.3411 54.6862L92.4269 55.6091L92.2244 55.4085L93.1386 54.4856L92.5674 53.9198C92.335 54.1118 92.1192 54.2486 91.9138 54.3281C91.6555 54.4269 91.3819 54.4303 91.0972 54.3383L91.1574 54.0601C91.4271 54.1289 91.671 54.1171 91.8848 54.0249C92.0351 53.9542 92.1937 53.8495 92.3607 53.715L91.8918 53.2505L92.086 53.0545L92.5698 53.5337C92.5867 53.5167 92.6057 53.5017 92.6184 53.4889L93.0786 53.0243L92.7035 52.6527L92.8978 52.4566ZM93.2832 53.227L92.823 53.6916C92.8061 53.7087 92.7892 53.7215 92.7744 53.7364L93.3328 54.2895L93.8395 53.778L93.2832 53.227Z" fill="white"/>
<path d="M94.3456 55.0228L95.1266 54.5606L95.2973 54.7938L94.7983 55.0826L95.1164 55.3924C95.3121 55.2731 95.5076 55.1368 95.705 54.9857L95.8884 55.2145C95.6972 55.3592 95.5101 55.4869 95.3291 55.5996L96.3135 56.5582L96.123 56.7538L95.0871 55.7449C94.9965 55.7949 94.908 55.8385 94.8237 55.8821L95.6834 56.7193L95.516 56.8912C95.2885 57.013 95.0283 57.0695 94.7311 57.0565C94.8065 57.3058 94.9226 57.5822 95.0772 57.8835L94.7836 57.9744C94.6156 57.6266 94.4989 57.3078 94.4315 57.0244C94.1466 56.9772 93.8335 56.8817 93.4921 56.7377L93.5731 56.4396C93.8633 56.5715 94.1319 56.6656 94.3745 56.7218C94.3436 56.474 94.3555 56.251 94.4102 56.0573C93.9457 56.2246 93.5032 56.2878 93.0847 56.2488L93.1636 55.9571C93.7155 55.9837 94.2843 55.8425 94.87 55.5335L94.3456 55.0228ZM94.6674 56.0899C94.6148 56.2858 94.6114 56.5128 94.6594 56.7689C94.9015 56.7912 95.1155 56.7692 95.2971 56.7032L94.6674 56.0899ZM96.2725 55.5425C96.3119 55.7987 96.3256 56.034 96.3157 56.2463L96.0273 56.2501C96.0501 56.0546 96.0428 55.8214 96.003 55.544L96.2725 55.5425Z" fill="white"/>
<path d="M96.4913 58.7813C96.1375 58.802 95.718 58.6781 95.235 58.4118L95.2885 58.128C95.7951 58.4043 96.1998 58.5307 96.5025 58.503L96.5869 58.4878L95.7407 57.6886L95.9261 57.4923L96.8792 58.3925C97.0551 58.3111 97.2237 58.1938 97.3848 58.0407L97.6362 57.7746L97.8368 57.9641L97.5855 58.2302C97.4265 58.3854 97.2645 58.5089 97.0973 58.5985L97.7821 59.2454L97.5967 59.4416L96.8268 58.7144C96.7994 58.7216 96.772 58.7287 96.7468 58.7379C96.9366 59.14 97.0817 59.5412 97.1864 59.9372L96.904 60.0089C96.8066 59.5703 96.6677 59.1625 96.4913 58.7813ZM96.6294 57.3725C96.7245 57.582 96.7942 57.7922 96.8384 58.0032L96.577 58.0658C96.5386 57.8356 96.471 57.6232 96.3806 57.4305L96.6294 57.3725ZM97.1315 57.269C97.2287 57.4764 97.2983 57.6866 97.3404 57.8955L97.079 57.9581C97.0386 57.7301 96.9752 57.5176 96.8848 57.3249L97.1315 57.269ZM98.6997 58.2345L98.2774 58.6816L98.0768 58.4921L98.3199 58.2347L96.8979 56.8916L96.6549 57.1489L96.4542 56.9594L96.8765 56.5123L97.6944 57.2848C97.728 57.2011 97.7576 57.1217 97.7809 57.0447L98.0254 57.2096C97.9939 57.2954 97.954 57.3857 97.9037 57.4826L98.6997 58.2345Z" fill="white"/>
<path d="M98.9056 58.6152L99.2283 58.907C99.279 58.7749 99.3214 58.6474 99.3514 58.5249L99.6014 58.6822C99.5567 58.8077 99.502 58.9442 99.433 59.0921L99.6955 59.3296L99.5104 59.5343L99.0765 59.1419L98.8411 59.4022L99.2349 59.7584C98.7117 60.3369 98.3766 60.6851 98.2361 60.8047C98.0931 60.9181 97.9328 60.8985 97.7548 60.7375C97.737 60.7214 97.7099 60.6888 97.6716 60.6461L97.796 60.4148C97.83 60.4576 97.8615 60.4943 97.8927 60.5225C97.9706 60.5929 98.0515 60.5973 98.1355 60.5358C98.215 60.4702 98.4571 60.2159 98.862 59.7771L98.6618 59.596C98.2037 60.0757 97.7934 60.3639 97.4308 60.4607L97.3976 60.1799C97.7305 60.0846 98.1174 59.7954 98.5543 59.3168L98.8763 58.9608L98.7205 58.8199L98.9056 58.6152ZM99.8992 59.7484C99.6809 59.8422 99.4738 59.9057 99.276 59.9411L99.2869 59.6517C99.5671 59.6058 99.8856 59.4772 100.243 59.2702L100.4 59.4938C100.318 59.5404 100.239 59.5826 100.161 59.6248L100.928 60.319L100.749 60.5171L99.8992 59.7484ZM100.448 60.6936C100.064 61.1186 99.8191 61.3666 99.7208 61.4395C99.6203 61.5104 99.4957 61.4827 99.3488 61.3499L99.3377 61.3398L99.4453 61.1135C99.4831 61.1478 99.5145 61.1802 99.5434 61.2063C99.5679 61.2285 99.6036 61.2203 99.6463 61.182C99.6849 61.1482 99.8121 61.0165 100.021 60.7851L99.798 60.6923L99.142 61.4176L98.9462 61.2406L99.5398 60.5842L99.3141 60.4893L98.7889 61.07C98.7004 61.168 98.6875 61.2493 98.7542 61.3097L99.1748 61.69C99.2215 61.7322 99.2671 61.7533 99.3095 61.7512C99.3604 61.7486 99.4486 61.6869 99.5762 61.5636L99.7064 61.7865C99.5133 61.9597 99.3773 62.043 99.2921 62.0388C99.2174 62.0319 99.1346 61.9894 99.0411 61.9049L98.5271 61.44C98.3758 61.3032 98.3907 61.1347 98.5678 60.9388L99.0668 60.387L98.8585 60.2998L99.0316 60.1084L99.2399 60.1957L99.5095 59.8975L99.6964 60.0665L99.4872 60.298L99.7148 60.3906L100.031 60.0413L100.227 60.2183L99.973 60.4987L100.448 60.6936Z" fill="white"/>
<path d="M101.664 61.0921L101.309 60.7879L101.465 60.6055L102.217 61.2489C102.232 61.1945 102.245 61.1424 102.254 61.0949L102.52 61.2592C102.501 61.3181 102.481 61.3836 102.454 61.4516L103.243 62.1261L103.087 62.3085L102.725 61.9986L102.542 62.0789L103.077 62.537L102.918 62.724L100.925 61.0201L101.084 60.8331L101.602 61.2757L101.664 61.0921ZM101.828 61.4687L102.316 61.8859L102.499 61.8056L101.89 61.2851L101.828 61.4687ZM101.08 61.3186L102.599 62.617L101.99 63.3284L100.472 62.0301L101.08 61.3186ZM101.919 62.9829L102.016 62.8689L100.922 61.9332L100.824 62.0472L101.919 62.9829ZM101.054 61.7781L102.149 62.7139L102.244 62.6021L101.15 61.6664L101.054 61.7781ZM100.309 62.0449L100.482 62.2676C100.275 62.4029 100.07 62.4956 99.8632 62.5479L99.7756 62.2717C99.9721 62.2266 100.147 62.1512 100.309 62.0449ZM101.012 63.5815L100.456 63.1058C100.28 62.9557 100.262 62.8018 100.394 62.6468L100.644 62.3549L100.863 62.5421L100.652 62.7883C100.603 62.8453 100.612 62.9042 100.683 62.9647L101.137 63.3526C101.178 63.3877 101.215 63.4039 101.245 63.4016C101.285 63.4006 101.352 63.3549 101.447 63.2624L101.595 63.504C101.441 63.648 101.325 63.7188 101.248 63.7078C101.181 63.6981 101.101 63.6575 101.012 63.5815ZM101.278 62.7352C101.291 62.9043 101.291 63.0426 101.279 63.1543L100.991 63.1257C101.003 63.0056 101.005 62.8608 100.994 62.6935L101.278 62.7352ZM101.948 63.3913C101.947 63.6467 101.932 63.8586 101.904 64.0246L101.617 63.996C101.652 63.8124 101.673 63.5979 101.679 63.3506L101.948 63.3913Z" fill="white"/>
<path d="M105.269 63.6959L104.22 65.0045L103.995 64.8244L104.869 63.7335L103.891 62.9493L103.015 64.0425L102.79 63.8624L103.841 62.5515L105.269 63.6959ZM104.147 63.3735L104.367 63.5499L104.016 63.9876C103.91 64.1103 103.804 64.2137 103.694 64.3027L103.893 64.4621L103.451 65.0146C103.381 65.1012 103.376 65.1701 103.437 65.2189L103.779 65.4928C103.807 65.5153 103.844 65.5261 103.884 65.5238C103.929 65.521 104.026 65.4377 104.175 65.272L104.331 65.5129C104.124 65.7194 103.984 65.8265 103.91 65.8368C103.834 65.8367 103.753 65.8071 103.67 65.748L103.209 65.3784C103.04 65.2433 103.037 65.0751 103.196 64.8761L103.598 64.3752C103.429 64.494 103.261 64.5745 103.087 64.6193C102.775 64.6921 102.404 64.6412 101.971 64.4712L102.002 64.1882C102.435 64.3582 102.782 64.4096 103.041 64.3405C103.306 64.2601 103.555 64.0833 103.796 63.8113L104.147 63.3735Z" fill="white"/>
<path d="M106.689 65.2629L105.447 66.9419L105.228 66.7796L105.321 66.6542L104.939 66.3724L104.795 66.5678L104.575 66.4055L105.868 64.6565L106.098 64.826C106.237 64.7278 106.369 64.6201 106.492 64.4944L106.698 64.6952C106.576 64.8101 106.449 64.9063 106.317 64.9883L106.689 65.2629ZM105.096 66.1601L105.478 66.4419L105.829 65.9666L105.448 65.6849L105.096 66.1601ZM105.599 65.4798L105.98 65.7616L106.309 65.3177L105.927 65.0359L105.599 65.4798ZM106.695 66.1629C106.708 66.4784 106.704 66.7406 106.678 66.9526L106.403 66.9467C106.429 66.7197 106.433 66.4509 106.423 66.1414L106.695 66.1629ZM107.932 66.1856C107.316 67.0178 106.924 67.5227 106.758 67.6979C106.605 67.8537 106.425 67.855 106.22 67.7034C106.172 67.6677 106.089 67.5987 105.973 67.5023L106.073 67.2514C106.176 67.3347 106.264 67.4073 106.341 67.4644C106.437 67.5357 106.53 67.526 106.62 67.4354C106.723 67.3255 107.03 66.9256 107.543 66.2416L106.938 65.794C106.763 65.8888 106.588 65.9644 106.407 66.0173L106.403 65.7347C106.734 65.6208 107.053 65.4206 107.357 65.1305L107.563 65.3271C107.439 65.4443 107.312 65.5448 107.186 65.6345L107.932 66.1856Z" fill="white"/>
<path d="M108.448 65.9774C108.527 66.2236 108.579 66.4513 108.605 66.6579L108.328 66.7085C108.313 66.517 108.265 66.2885 108.182 66.0215L108.448 65.9774ZM108.362 69.1701C108.225 69.0773 108.078 68.9736 107.921 68.8631C107.762 68.7509 107.64 68.6466 107.553 68.5509C107.474 68.4536 107.428 68.335 107.411 68.2C107.405 68.1342 107.388 68.0942 107.359 68.0739C107.306 68.0385 107.141 68.0893 106.863 68.2264L106.799 67.9471C107.06 67.8306 107.257 67.78 107.39 67.7979L107.868 67.096L107.536 66.8699L107.684 66.6516L108.237 67.028L107.599 67.9655C107.605 67.9839 107.609 68.0047 107.611 68.028C107.623 68.1338 107.648 68.2239 107.688 68.2984C107.739 68.3837 107.833 68.4803 107.976 68.5848C108.116 68.6835 108.28 68.7991 108.474 68.9307C108.595 69.0134 108.721 69.0953 108.847 69.1773C108.972 69.2592 109.072 69.32 109.143 69.3606L108.927 69.555L108.362 69.1701ZM109.278 66.9014L108.799 66.5757L108.932 66.3798L110.294 67.3063L110.181 67.4725C109.953 67.4986 109.728 67.4982 109.504 67.4761C109.505 67.4844 109.508 67.4902 109.51 67.4986L110.009 67.8378L109.259 68.939C109.16 69.0854 109.027 69.1041 108.866 68.9944L108.675 68.8644L108.759 68.6347L108.928 68.7645C108.983 68.8016 109.031 68.7946 109.068 68.74L109.154 68.6135L108.797 68.3705L108.52 68.7772L108.304 68.6304L108.581 68.2237L108.231 67.9857L107.951 68.3974L107.728 68.2455L108.639 66.9062L109.21 67.2944C109.165 67.1841 109.112 67.0646 109.048 66.9408L109.278 66.9014ZM109.436 67.2666C109.575 67.2854 109.713 67.2917 109.846 67.2879L109.29 66.9099C109.344 67.0335 109.394 67.1513 109.436 67.2666ZM108.48 67.6211L108.361 67.7947L108.711 68.0327L108.829 67.8591L108.48 67.6211ZM109.045 68.0059L108.927 68.1795L109.284 68.4225L109.402 68.2489L109.045 68.0059ZM109.534 68.0555L109.652 67.8819L109.295 67.6388L109.177 67.8124L109.534 68.0555ZM108.961 67.6656L109.079 67.492L108.729 67.254L108.611 67.4276L108.961 67.6656Z" fill="white"/>
<path d="M112.88 69.1633L111.654 71.156L111.419 71.0113L111.508 70.8657L111.061 70.5904L110.97 70.7386L110.735 70.5939L111.963 68.5987L112.88 69.1633ZM111.201 70.3631L111.648 70.6383L112.505 69.2459L112.058 68.9707L111.201 70.3631ZM110.859 68.3381C110.721 68.4297 110.583 68.5063 110.445 68.5696L110.316 68.3036C110.628 68.1641 110.904 67.9784 111.143 67.745L111.352 67.9439C111.266 68.0253 111.181 68.0958 111.096 68.1638L111.794 68.5931L111.651 68.8256L111.303 68.6117C111.201 68.767 111.102 68.9104 111.003 69.0364L111.402 69.2817L111.259 69.5142L110.827 69.2484C110.782 69.2984 110.735 69.3467 110.693 69.3915C110.751 69.6458 110.801 69.9196 110.845 70.2144L110.559 70.348C110.539 70.0257 110.514 69.7677 110.486 69.5739C110.213 69.7761 109.892 69.8918 109.518 69.9153L109.479 69.6236C109.866 69.5905 110.188 69.4573 110.448 69.223C110.488 69.1808 110.532 69.1376 110.574 69.0928L110.071 68.7829L110.214 68.5505L110.753 68.8823C110.852 68.7563 110.95 68.6129 111.053 68.4576L110.859 68.3381Z" fill="white"/>
<path d="M113.477 69.1467L113.342 70.6732L112.121 71.5986L111.963 71.3879L113.09 70.5338L113.215 69.125L113.477 69.1467ZM113.926 69.395L113.791 70.9215L112.57 71.8469L112.412 71.6362L113.539 70.7821L113.653 69.3675L113.926 69.395Z" fill="white"/>
</svg>
