<svg width="134" height="31" viewBox="0 0 134 31" fill="none" xmlns="http://www.w3.org/2000/svg">
<path d="M5.47796 5.71778L5.66224 6.03349L4.00927 6.95452L3.59699 8.7946L3.25414 8.71983L3.70071 6.72595L5.47796 5.71778ZM6.02759 6.12493L6.19901 6.43111L4.5589 7.36166L4.14661 9.20174L3.80376 9.12698L4.25034 7.13309L6.02759 6.12493Z" fill="white"/>
<path d="M7.34985 7.12548C7.35931 7.3765 7.354 7.6416 7.33065 7.91846L7.05643 7.87742L7.73404 8.35326C7.98292 8.24942 8.24398 8.10039 8.51494 7.90942L8.76191 8.20504C8.53818 8.37052 8.31089 8.49929 8.08431 8.59922L8.70627 9.03598L8.49479 9.33715L7.42763 8.58776L7.35637 8.68924C7.23948 8.84177 7.12197 8.97431 7.00481 9.09243L8.30766 10.0073L8.09618 10.3085L6.95045 9.50393C6.83271 10.0127 7.02352 10.611 7.52058 11.3022L7.13038 11.4681C6.64063 10.7038 6.46731 10.0249 6.60157 9.43001C6.43461 9.54249 6.26604 9.6294 6.09818 9.68748C5.66869 9.82578 5.14672 9.79649 4.53226 9.59962L4.55283 9.20838C5.17189 9.39871 5.65715 9.43155 6.0119 9.30919C6.14076 9.25794 6.2667 9.18997 6.38741 9.10855L5.26787 8.32238L5.47935 8.02122L6.684 8.86716C6.80674 8.74806 6.92752 8.61782 7.04211 8.46856L7.11337 8.36708L6.04294 7.61539L6.25442 7.31423L6.95495 7.80616C6.98025 7.54044 6.98291 7.29304 6.96851 7.06297L7.34985 7.12548Z" fill="white"/>
<path d="M10.018 9.12501L12.5479 10.7889L12.3435 11.0997L11.2774 10.3985L10.7411 11.214L12.0411 12.069L11.8323 12.3865L10.5323 11.5315L9.78277 12.6711C9.62892 12.905 9.42613 12.944 9.18217 12.7836L8.65079 12.4341L8.78616 12.0827C8.95001 12.2048 9.10937 12.3192 9.2631 12.4203C9.37005 12.4906 9.45649 12.4757 9.51803 12.3821L10.2148 11.3227L8.85793 10.4303L9.06673 10.1128L10.4236 11.0052L10.9599 10.1897L9.81358 9.43582L10.018 9.12501Z" fill="white"/>
<path d="M12.7352 12.8455L12.1808 13.7536C12.4982 13.8631 12.839 13.9728 13.2005 14.0716L13.1045 14.4207C12.6137 14.2804 12.1231 14.1168 11.634 13.9353L11.6689 13.5864C11.778 13.592 11.8585 13.5522 11.9106 13.4668L13.1759 11.3946C13.6444 11.5869 14.0877 11.7357 14.5082 11.8378L14.5512 12.2202C14.1869 12.1337 13.7865 12.0064 13.3481 11.8418L12.9249 12.5348L13.8672 13.1102L13.6775 13.4208L12.7352 12.8455ZM14.1307 15.3191L13.8098 15.1232L13.9128 14.7549L14.2124 14.9472C14.3012 15.0014 14.3768 14.9773 14.4352 14.8817L15.515 13.1133L14.8424 12.7027L13.204 15.386L12.8763 15.1859L14.7023 12.1953L16.0303 13.0062L14.7213 15.1501C14.5649 15.4062 14.3662 15.4629 14.1307 15.3191Z" fill="white"/>
<path d="M15.9132 14.2047L16.7606 13.341L17.0606 13.5828L16.517 14.1262L17.0332 14.4161C17.2443 14.1952 17.4494 13.9525 17.6519 13.69L17.9667 13.9219C17.7701 14.1739 17.5729 14.4026 17.3784 14.61L18.9759 15.5069L18.7976 15.8243L17.1165 14.8804C17.017 14.9759 16.9179 15.0625 16.8243 15.1475L18.2194 15.9309L18.0628 16.2099C17.8115 16.445 17.4957 16.6071 17.1083 16.6924C17.2911 16.9877 17.5356 17.3039 17.8383 17.639L17.4912 17.8569C17.1553 17.4665 16.8955 17.0959 16.7114 16.7539C16.3281 16.791 15.8919 16.7754 15.4026 16.7072L15.4045 16.2954C15.8238 16.3656 16.2021 16.3945 16.5339 16.3836C16.4091 16.075 16.3478 15.7837 16.3518 15.5152C15.8108 15.8904 15.2623 16.1238 14.7098 16.2172L14.7112 15.8143C15.4315 15.6591 16.1158 15.2818 16.7643 14.6826L15.9132 14.2047ZM16.6943 15.469C16.6938 15.7394 16.7675 16.0331 16.9172 16.3465C17.2368 16.292 17.5049 16.1903 17.7162 16.0428L16.6943 15.469ZM18.5742 14.2125C18.713 14.529 18.8115 14.8274 18.8716 15.1043L18.5013 15.2083C18.4636 14.9486 18.374 14.6506 18.2276 14.3069L18.5742 14.2125Z" fill="white"/>
<path d="M22.5591 16.2839L22.7789 16.5574L21.3158 17.747L21.2143 19.63L20.8638 19.6131L20.9736 17.5728L22.5591 16.2839Z" fill="white"/>
<path d="M26.3841 18.3398L24.9762 21.439L24.6266 21.2801L24.711 21.0944L22.3511 20.0223L22.2667 20.2081L21.9171 20.0492L23.325 16.9501L26.3841 18.3398ZM22.4917 19.7128L24.8516 20.7849L25.8923 18.4942L25.2659 18.2096L24.6703 19.5206C24.6405 19.5862 24.6693 19.6388 24.7567 19.6785L25.1537 19.8589L25.0114 20.1721L24.5124 19.9454C24.2721 19.8362 24.2015 19.6724 24.3008 19.4539L24.9345 18.059L24.4756 17.8506L24.1364 18.5972C23.8942 19.111 23.5162 19.3918 23.0044 19.4449L22.8445 19.091C23.291 19.0654 23.6088 18.8495 23.8014 18.4449L24.1405 17.6984L23.5324 17.4221L22.4917 19.7128Z" fill="white"/>
<path d="M28.4122 19.1158L28.7651 19.2567L27.5737 22.2396L27.2208 22.0986L28.4122 19.1158ZM29.5823 19.4108L29.9352 19.5518L28.5775 22.9507L28.2246 22.8097L29.5823 19.4108ZM27.3624 18.5413L27.7153 18.6823L27.1366 20.131C26.7701 21.027 26.301 21.5977 25.7277 21.8468L25.553 21.497C26.052 21.2829 26.4603 20.7783 26.7837 19.9901L27.3624 18.5413Z" fill="white"/>
<path d="M32.0325 20.2728L32.3842 20.3943L32.0511 21.3584L31.6995 21.2369L32.0325 20.2728ZM30.589 21.6955C30.4109 21.672 30.2327 21.6486 30.0559 21.6214L30.0208 21.2453C31.2253 21.4582 32.2017 21.4739 32.9462 21.2909C32.8554 21.1495 32.757 21.0055 32.6511 20.8589L32.9727 20.7118C33.2657 21.1135 33.5019 21.4955 33.6751 21.8516L33.3381 22.0187C33.2801 21.8802 33.2108 21.7378 33.1264 21.5901C32.7102 21.7045 32.2416 21.7627 31.7153 21.7671L33.0537 22.2294L32.3446 24.2824L31.993 24.161L32.0426 24.0173L30.3753 23.4414L30.323 23.5926L29.9752 23.4725L30.589 21.6955ZM30.485 23.1238L32.1523 23.6997L32.2398 23.4464L30.5724 22.8705L30.485 23.1238ZM30.6717 22.5831L32.339 23.159L32.4187 22.9284L30.7514 22.3525L30.6717 22.5831ZM30.8493 22.0689L32.5166 22.6449L32.5989 22.4067L30.9316 21.8307L30.8493 22.0689ZM31.3645 20.2833L31.5408 20.5939C31.2224 20.7928 30.8628 20.9395 30.4633 21.03L30.3481 20.6897C30.7261 20.6002 31.064 20.4673 31.3645 20.2833Z" fill="white"/>
<path d="M35.4043 22.0493L34.1189 21.6706L34.2218 21.3214L37.1647 22.1886L37.0618 22.5378L35.7726 22.1579L35.0852 24.4907L36.6161 24.9418L36.512 25.2948L33.078 24.2829L33.1821 23.9299L34.7168 24.3822L35.4043 22.0493Z" fill="white"/>
<path d="M39.0596 22.423L39.4288 22.5132L38.6827 25.5674L39.149 25.6813L39.8951 22.6271L40.2642 22.7172L39.5182 25.7714L40.6528 26.0486L40.5646 26.41L37.0985 25.5633L37.1867 25.202L38.3136 25.4772L39.0596 22.423ZM40.8143 23.6175L41.1179 23.7905C40.807 24.4227 40.4742 24.9591 40.1187 25.4034L39.8168 25.2062C40.1446 24.8086 40.4803 24.277 40.8143 23.6175ZM38.1506 22.9586C38.2216 23.5277 38.2512 24.1649 38.2434 24.8712L37.8844 24.8741C37.9013 24.2318 37.8746 23.5994 37.8112 22.9827L38.1506 22.9586Z" fill="white"/>
<path d="M42.181 23.1868C42.3948 23.4248 42.5647 23.6583 42.7001 23.8808L42.3937 24.0893C42.2812 23.8753 42.1081 23.6372 41.8778 23.3795L42.181 23.1868ZM41.4573 24.2056L42.3362 24.3796L42.0075 26.0394C42.1494 25.9615 42.3022 25.8694 42.4698 25.764L42.4941 26.1765C42.1925 26.3615 41.8798 26.5197 41.5568 26.6474L41.4824 26.282C41.556 26.2395 41.6053 26.1759 41.6217 26.0935L41.9045 24.6652L41.3866 24.5626L41.4573 24.2056ZM42.7656 24.9499L44.6687 25.3268L44.601 25.6682C44.4181 25.9949 44.1707 26.2558 43.8581 26.4548C44.0765 26.6694 44.3531 26.8791 44.6813 27.0746L44.4175 27.3567C44.0562 27.122 43.7663 26.877 43.5383 26.628C43.1888 26.7871 42.7732 26.8883 42.2994 26.9331L42.1536 26.5781C42.5937 26.5388 42.9732 26.4549 43.293 26.3225C43.0775 26.0107 42.9498 25.6878 42.9178 25.3552L42.6941 25.3109L42.7656 24.9499ZM43.267 25.4244C43.3098 25.6816 43.4201 25.9277 43.601 26.1674C43.851 26.0171 44.0585 25.8339 44.2205 25.6132L43.267 25.4244ZM43.3402 23.4897L44.7293 23.7648L44.5661 24.5888C44.549 24.6751 44.5867 24.7316 44.6848 24.751L45.0301 24.8194L44.9625 25.1607L44.5191 25.0729C44.2405 25.0178 44.1296 24.8571 44.1809 24.5982L44.2913 24.041L43.6399 23.912L43.6166 24.0297C43.5358 24.4378 43.2649 24.7144 42.8086 24.8565L42.6181 24.5211C42.9772 24.4373 43.1872 24.2627 43.24 23.9959L43.3402 23.4897Z" fill="white"/>
<path d="M46.4848 25.1145L47.5203 25.2761L47.7011 24.1182L48.0884 24.1786L47.9076 25.3366L48.8877 25.4896L48.8297 25.8611L47.8496 25.7081L47.517 27.8383L47.1297 27.7778L47.4623 25.6476L46.4268 25.486L46.4848 25.1145ZM45.9408 23.8798C46.1674 24.1135 46.3546 24.3411 46.5016 24.5665L46.2039 24.7872C46.0749 24.5768 45.8883 24.3453 45.6398 24.0959L45.9408 23.8798ZM45.2402 24.9444L46.1531 25.087L45.8902 26.7706C46.0328 26.6876 46.1817 26.5894 46.3404 26.4805L46.3793 26.8793C46.0894 27.077 45.7834 27.2478 45.4659 27.3885L45.376 27.0304C45.4518 26.9855 45.4979 26.9239 45.5102 26.8449L45.7373 25.3905L45.184 25.3041L45.2402 24.9444Z" fill="white"/>
<path d="M49.4479 28.0602L49.1102 28.0207L49.0721 27.6578C49.1736 27.6858 49.268 27.7049 49.3594 27.7156C49.4547 27.7268 49.5089 27.6767 49.5214 27.5695L49.62 26.7272C49.4704 26.7661 49.3169 26.8045 49.1683 26.8355L49.1167 26.4508C49.3001 26.432 49.481 26.4008 49.6632 26.3577L49.7636 25.4996L49.3147 25.4471L49.357 25.0855L49.8059 25.138L49.8872 24.4428L50.2528 24.4855L50.1714 25.1808L50.5608 25.2264L50.5185 25.5879L50.1291 25.5423L50.0464 26.2495C50.1889 26.2018 50.3279 26.1496 50.4674 26.0934L50.4241 26.4629C50.2847 26.519 50.1461 26.5673 50.0036 26.615L49.8758 27.7076C49.8451 27.9698 49.7022 28.09 49.4479 28.0602ZM50.6901 25.0844L51.6198 25.1932L51.6821 24.6608L52.0476 24.7036L51.9853 25.236L52.915 25.3447L52.8727 25.7063L51.943 25.5975L51.8765 26.1656L52.6552 26.2567L52.6162 26.5904C52.4407 26.9888 52.1883 27.3217 51.8515 27.5843C52.0764 27.7959 52.3593 27.9941 52.6966 28.1745L52.4657 28.4616C52.1038 28.2502 51.8043 28.0218 51.5663 27.7845C51.2369 27.9836 50.8491 28.1315 50.4024 28.2323L50.2603 27.8975C50.6725 27.8169 51.0292 27.6935 51.3275 27.519C51.0539 27.1729 50.8878 26.803 50.826 26.4011L50.6194 26.377L50.6608 26.0234L51.511 26.1229L51.5775 25.5547L50.6478 25.446L50.6901 25.0844ZM51.1796 26.4425C51.2387 26.7636 51.3815 27.0581 51.6113 27.3307C51.8776 27.1202 52.0885 26.867 52.2444 26.5671L51.1796 26.4425Z" fill="white"/>
<path d="M53.3959 25.7609L54.9108 25.8852L54.9864 24.9643L55.3612 24.9951L55.2856 25.916L56.8045 26.0407L56.7747 26.4035L55.6026 26.3072C55.8067 26.9501 56.1918 27.5396 56.7578 28.0757L56.4765 28.3737C55.8665 27.7376 55.4577 27.0459 55.2542 26.2987L55.0591 28.6747L54.6844 28.6439L54.8788 26.2759C54.5223 27.0493 53.9859 27.6675 53.27 28.1265L53.0905 27.7706C53.7238 27.3891 54.2078 26.871 54.5342 26.2195L53.3662 26.1236L53.3959 25.7609ZM56.0107 25.0524C56.2183 25.3103 56.3767 25.532 56.4858 25.7175L56.1652 25.9079C56.054 25.6981 55.8962 25.4684 55.7006 25.2116L56.0107 25.0524Z" fill="white"/>
<path d="M59.3885 25.263C59.3767 25.6148 59.3549 25.9103 59.3306 26.1576C59.5271 27.2287 60.0758 28.0595 60.9686 28.6495L60.7057 28.9729C59.9552 28.4357 59.4424 27.7302 59.167 26.8646C58.8755 27.6873 58.3009 28.3566 57.4433 28.8723L57.2227 28.5248C58.3239 27.9051 58.9096 27.0241 58.9798 25.8778C58.9887 25.6099 58.9996 25.4022 59.0047 25.2503L59.3885 25.263Z" fill="white"/>
<path d="M64.2988 26.4935L64.412 28.0053L64.0371 28.0333L63.9498 26.8686L61.9514 27.0182L62.0431 28.2428L61.6682 28.2709L61.5505 26.6993L64.2988 26.4935ZM61.6879 25.3733L63.9655 25.2028L64.0453 26.2678L61.7676 26.4383L61.6879 25.3733ZM63.6538 25.9682L63.6236 25.5653L62.08 25.6809L62.1101 26.0838L63.6538 25.9682ZM62.8086 27.1626L63.1942 27.1698C63.1832 27.7724 63.0894 28.1805 62.9129 28.3943C62.7319 28.6565 62.2575 28.8565 61.4931 28.9859L61.3195 28.65C61.9593 28.57 62.3772 28.4183 62.5691 28.1954C62.7339 27.9865 62.8125 27.6437 62.8086 27.1626ZM63.3468 28.0289C63.8758 28.1296 64.359 28.2619 64.8044 28.4251L64.6206 28.7558C64.1489 28.5625 63.6687 28.4179 63.1805 28.3261L63.3468 28.0289Z" fill="white"/>
<path d="M64.9792 25.1244L66.5714 24.873L66.6263 25.2207L66.4367 25.2506L66.7629 27.317C66.8382 27.2808 66.9129 27.2407 66.9881 27.2045L67.0455 27.568C66.9702 27.6042 66.8943 27.6364 66.8191 27.6726L66.937 28.4194L66.5735 28.4768L66.4712 27.8288C66.1675 27.9577 65.8469 28.0812 65.5131 28.1987L65.3655 27.8535L65.624 27.7722L65.2553 25.4371L65.0341 25.4721L64.9792 25.1244ZM65.9696 27.6529C66.1187 27.5969 66.2672 27.537 66.415 27.4732L66.3358 26.9714L65.8735 27.0444L65.9696 27.6529ZM65.8199 26.7046L66.2822 26.6316L66.2054 26.1456L65.7432 26.2186L65.8199 26.7046ZM65.6895 25.8788L66.1518 25.8058L66.0732 25.308L65.6109 25.381L65.6895 25.8788ZM66.7322 24.9165L68.447 24.6457L68.752 26.5778L67.0372 26.8485L66.7322 24.9165ZM68.329 26.2842L68.1356 25.0593L67.1558 25.214L67.3491 26.4389L68.329 26.2842ZM67.4261 26.9775L67.7756 27.0883C67.6781 27.5734 67.5384 27.9964 67.3616 28.3645L67.0139 28.1886C67.1944 27.8442 67.3288 27.4383 67.4261 26.9775ZM68.3804 26.8146C68.717 27.2029 68.9817 27.5458 69.1785 27.8428L68.9013 28.1133C68.6996 27.7847 68.4369 27.4294 68.1167 27.0426L68.3804 26.8146Z" fill="white"/>
<path d="M68.8343 25.4491L69.3736 25.3315L69.2713 24.8625C69.1271 24.9145 68.9781 24.9633 68.8252 25.013L68.6751 24.6814C69.1511 24.5367 69.564 24.3648 69.9136 24.1657L70.1193 24.4893C69.9615 24.5729 69.7941 24.6503 69.6142 24.7264L69.7292 25.254L70.1591 25.1602L70.2367 25.5159L69.8068 25.6096L69.8443 25.7816C70.0581 25.8987 70.2793 26.0306 70.5087 26.1812L70.3658 26.5399C70.1886 26.3656 70.0395 26.2262 69.9184 26.1216L70.2857 27.806L69.93 27.8836L69.5713 26.2382C69.5195 26.6016 69.4305 26.9444 69.2956 27.2645L69.0411 26.886C69.2465 26.5137 69.3652 26.1194 69.4042 25.6974L68.9118 25.8048L68.8343 25.4491ZM71.6214 27.5107L71.2501 27.5916L71.0905 27.2539C71.2073 27.2448 71.3184 27.2288 71.42 27.2066C71.506 27.1879 71.5418 27.1268 71.5214 27.033L71.0979 25.0907L71.473 25.0089L71.917 27.045C71.9724 27.2991 71.8715 27.4561 71.6214 27.5107ZM70.6778 25.7554L71.0332 25.7516C71.0362 26.2914 70.9818 26.774 70.8604 27.1935L70.4956 27.0602C70.6209 26.6398 70.6817 26.2049 70.6778 25.7554ZM72.0927 25.4101C72.355 25.7868 72.6046 26.1991 72.8319 26.6408L72.5212 26.8682C72.2759 26.3813 72.0316 25.9556 71.7844 25.5919L72.0927 25.4101ZM70.8299 24.838C70.7716 25.0963 70.6895 25.3394 70.5757 25.5689L70.2813 25.326C70.4659 24.9337 70.5492 24.4897 70.5335 23.9855L70.9063 23.9493C70.9117 24.1241 70.9036 24.2937 70.8891 24.4525L72.1554 24.1764L72.2073 24.4148C72.2206 24.6821 72.2191 24.9567 72.205 25.23L71.8224 25.2029C71.8491 25.0251 71.8599 24.8304 71.8616 24.613L70.8299 24.838Z" fill="white"/>
<path d="M74.1755 23.1204L74.5464 23.0211L74.6922 23.566L75.9171 23.2383L76.5094 25.4525L76.15 25.5486L76.0952 25.3438L75.2297 25.5753L75.4912 26.553L75.1202 26.6522L74.8587 25.6746L73.9777 25.9102L74.0397 26.1421L73.6804 26.2382L73.0808 23.997L74.3212 23.6652L74.1755 23.1204ZM73.8847 25.5625L74.7657 25.3268L74.6323 24.8283L73.7513 25.064L73.8847 25.5625ZM75.1366 25.2276L76.0022 24.996L75.8689 24.4976L75.0033 24.7291L75.1366 25.2276ZM73.6635 24.7356L74.5445 24.4999L74.4132 24.0091L73.5322 24.2448L73.6635 24.7356ZM74.9154 24.4006L75.781 24.1691L75.6497 23.6784L74.7842 23.9099L74.9154 24.4006Z" fill="white"/>
<path d="M78.1088 23.6134L78.2185 23.9731C78.1018 24.0839 77.9865 24.186 77.8663 24.2854L78.2001 25.3796C78.2772 25.6321 78.1944 25.7996 77.9496 25.8743L77.5899 25.984L77.3995 25.6615C77.5152 25.643 77.6208 25.6191 77.7203 25.5888C77.8121 25.5607 77.8467 25.4958 77.8175 25.4002L77.5537 24.5355C77.404 24.6481 77.2532 24.7568 77.1012 24.8618L76.8997 24.5301C77.0884 24.4224 77.271 24.3081 77.4451 24.1797L77.1989 23.3724L76.6747 23.5324L76.5685 23.1842L77.0926 23.0243L76.8907 22.3624L77.2465 22.2539L77.4485 22.9157L77.8464 22.7943L77.9526 23.1425L77.5547 23.2639L77.7589 23.9334C77.878 23.8302 77.9959 23.7231 78.1088 23.6134ZM78.7127 23.7972L79.2309 25.4959L78.8866 25.601L77.8501 22.2035L79.6139 21.6655C79.7516 22.1169 79.8159 22.4235 79.8155 22.5867C79.8101 22.7473 79.6792 22.8667 79.4229 22.9449L79.1359 23.0324L78.9408 22.749C78.9981 22.7315 79.072 22.7132 79.1638 22.6852C79.2518 22.6583 79.3195 22.6335 79.3631 22.6118C79.3979 22.5887 79.4241 22.5514 79.4354 22.5061C79.4447 22.4406 79.4203 22.3058 79.3661 22.1007L78.2948 22.4275L78.6111 23.4643L80.0573 23.0231L80.153 23.3369C80.2121 23.7496 80.1923 24.1236 80.0927 24.4551C80.3177 24.5621 80.5687 24.6445 80.8532 24.6999L80.6948 25.0577C80.4209 24.9823 80.1802 24.8926 79.9667 24.7821C79.8479 25.0233 79.6803 25.2417 79.4716 25.435L79.1988 25.1712C79.388 24.9963 79.5334 24.8014 79.6351 24.5864C79.298 24.3588 79.0496 24.0791 78.881 23.7458L78.7127 23.7972ZM79.2062 23.6466C79.3353 23.8916 79.5187 24.095 79.7574 24.2605C79.8206 24.0154 79.8389 23.7464 79.8184 23.4599L79.2062 23.6466Z" fill="white"/>
<path d="M81.3783 21.1051L83.4568 20.409L83.5699 20.7465L82.7013 21.0374L83.1535 22.3877L84.1359 22.0587L84.2502 22.4001L83.2679 22.7291L83.7099 24.049L83.361 24.1659L82.9189 22.846L81.9517 23.1699L81.8374 22.8285L82.8046 22.5046L82.3524 21.1543L81.4914 21.4427L81.3783 21.1051ZM83.225 21.0266L83.5677 21.0046C83.6138 21.3941 83.6219 21.7457 83.592 22.0595L83.253 22.0549C83.2766 21.7728 83.2673 21.43 83.225 21.0266ZM81.8949 21.4889C82.0939 21.7302 82.2916 22.0183 82.4957 22.3507L82.2139 22.5295C82.0326 22.2274 81.8336 21.9481 81.6207 21.6904L81.8949 21.4889ZM80.5298 21.2543C80.8385 21.3576 81.1094 21.4736 81.3436 21.6061L81.1809 21.939C80.9695 21.8115 80.6973 21.6917 80.362 21.5847L80.5298 21.2543ZM80.3861 22.5257L81.2623 22.2323L81.7971 23.8291C81.8677 23.7 81.9421 23.557 82.0216 23.4038L82.2473 23.7501C82.0946 24.0501 81.9154 24.3337 81.7159 24.5945L81.4701 24.314C81.513 24.2406 81.5256 24.1647 81.5002 24.0889L81.0327 22.6931L80.5017 22.8709L80.3861 22.5257Z" fill="white"/>
<path d="M85.1694 21.9578L85.2949 22.3079L86.0518 22.0366L85.9263 21.6864L85.1694 21.9578ZM86.1692 22.3642L85.4124 22.6355L85.4853 22.8389L85.1351 22.9644L84.4615 21.0855L85.5685 20.6886L85.4511 20.361L85.8051 20.2342L85.9225 20.5617L87.0408 20.1608L87.7103 22.0285L87.3601 22.154L87.2913 21.962L86.5232 22.2373L86.7904 22.9829L86.4365 23.1097L86.1692 22.3642ZM86.4057 21.9097L87.1739 21.6344L87.0483 21.2842L86.2802 21.5596L86.4057 21.9097ZM86.9363 20.9717L86.8094 20.6177L86.0413 20.8931L86.1682 21.247L86.9363 20.9717ZM85.6873 21.02L84.9305 21.2913L85.0574 21.6452L85.8142 21.3739L85.6873 21.02ZM87.0405 19.2473L87.2956 19.959L86.9492 20.0832L86.8115 19.6991L84.2963 20.6008L84.4407 21.0037L84.0943 21.1279L83.8324 20.3974L85.2407 19.8926C85.1771 19.8219 85.1162 19.7587 85.0529 19.7007L85.4116 19.5041C85.4728 19.5799 85.5418 19.6657 85.6097 19.7603L87.0405 19.2473Z" fill="white"/>
<path d="M87.667 19.0171L88.2994 18.7782L88.2019 18.52L88.5461 18.39L88.6437 18.6482L89.8523 18.1916L89.7547 17.9334L90.099 17.8033L90.1965 18.0615L90.8289 17.8226L90.942 18.122L90.3096 18.3609L90.7521 19.5321L91.4406 19.272L91.5565 19.5788L90.8418 19.8488C91.0959 19.9666 91.4092 20.015 91.7809 20.0029L91.7509 20.3648C91.4503 20.3501 91.1889 20.3035 90.9616 20.2226L91.0776 20.5294L90.3479 20.8051L90.4596 21.1007L91.7131 20.6271L91.8375 20.9564L88.96 22.0435L88.8356 21.7142L90.1153 21.2307L90.0036 20.9351L89.2665 21.2136L89.1534 20.9143C89.0411 21.1149 88.8894 21.3133 88.7036 21.5118L88.4071 21.2817C88.6986 21.0347 88.8928 20.7904 88.9971 20.5457L88.2824 20.8157L88.1665 20.5089L88.855 20.2488L88.4125 19.0776L87.7801 19.3165L87.667 19.0171ZM89.1627 20.8936L89.8849 20.6208L89.7859 20.3589L90.1302 20.2288L90.2292 20.4907L90.9513 20.2179C90.7742 20.1565 90.6205 20.0778 90.4901 19.9817L89.3451 20.4143C89.3071 20.574 89.2475 20.7333 89.1627 20.8936ZM89.1992 20.1187L90.4078 19.6621L90.3315 19.4601L89.1229 19.9167L89.1992 20.1187ZM89.0183 19.6398L90.2269 19.1832L90.1506 18.9811L88.9419 19.4377L89.0183 19.6398ZM88.8373 19.1608L90.046 18.7042L89.9654 18.4909L88.7567 18.9475L88.8373 19.1608Z" fill="white"/>
<path d="M91.435 18.0526L92.861 17.4927L92.6082 16.8486L92.9656 16.7083L93.2185 17.3524L94.6408 16.7941L94.7738 17.1329L93.6307 17.5816C94.0957 18.0437 94.7175 18.3797 95.4932 18.5823L95.371 18.9826C94.5387 18.6905 93.8663 18.2583 93.3552 17.6898L93.3515 17.6912L93.8894 19.0615L94.6564 18.7604L94.7894 19.0992L94.0224 19.4003L94.3103 20.1338L93.9529 20.2741L93.6649 19.5406L92.9277 19.83L92.7947 19.4912L93.5319 19.2018L92.994 17.8316L92.9903 17.833C93.0175 18.6904 92.8059 19.4868 92.3629 20.2193L92.028 19.9683C92.4614 19.3427 92.6893 18.6645 92.7148 17.9412L91.568 18.3914L91.435 18.0526Z" fill="white"/>
<path d="M95.9474 17.7666L97.1824 17.2676L97.058 16.9598L97.414 16.8159L97.5384 17.1237L98.74 16.6382L98.8749 16.9719L97.6733 17.4575L97.979 18.2141C98.0809 18.4662 98.0036 18.6485 97.744 18.7534L97.336 18.9183L97.1181 18.6137C97.2538 18.5761 97.3792 18.5341 97.4942 18.4876C97.598 18.4457 97.629 18.3728 97.587 18.2689L97.3173 17.6014L96.0823 18.1004L95.9474 17.7666ZM96.7409 18.0327L97.0726 18.1489C96.9491 18.5051 96.7638 18.8475 96.5132 19.1774L96.1619 18.9699C96.4193 18.6675 96.6113 18.3526 96.7409 18.0327ZM99.233 18.0611C98.8879 17.9115 98.5242 17.791 98.1406 17.6958L98.2784 17.3855C98.5742 17.4343 98.9408 17.5407 99.3855 17.7018L99.233 18.0611ZM96.0217 15.4414L96.3928 15.3777C96.3746 15.4714 96.3549 15.5613 96.3351 15.6513L97.737 15.0848L97.8464 15.3555C97.7435 15.6775 97.5916 15.9848 97.3891 16.2737C97.8347 16.2662 98.3254 16.1887 98.8664 16.0435L98.8336 16.4321C98.2021 16.5881 97.6318 16.6502 97.1214 16.6149C96.7737 17.0142 96.3189 17.3835 95.7608 17.7212L95.4777 17.4689C95.9647 17.1902 96.3692 16.8887 96.6964 16.5666C96.4734 16.5273 96.2697 16.4716 96.0748 16.395C95.9848 16.578 95.8829 16.753 95.7691 16.9197L95.4335 16.7404C95.7144 16.368 95.9105 15.9351 96.0217 15.4414ZM96.2015 16.0893C96.4365 16.1798 96.6922 16.2361 96.9738 16.2604C97.1528 16.0413 97.302 15.8128 97.4141 15.5777L96.2125 16.0632L96.2015 16.0893Z" fill="white"/>
<path d="M99.1807 14.1623L99.5723 14.1783C99.6003 14.5085 99.5926 14.8362 99.5514 15.156L100.567 17.619L100.223 17.7607L99.4179 15.8082C99.3692 15.984 99.3101 16.1555 99.2458 16.3248L98.9771 15.9985C99.1701 15.4171 99.2379 14.805 99.1807 14.1623ZM99.9117 14.1725L100.274 14.0751C100.313 14.2537 100.345 14.4264 100.366 14.5911L100.809 14.4082L100.504 13.6685L100.856 13.5237L101.161 14.2633L101.978 13.9264L102.12 14.2703L101.302 14.6072L101.63 15.4023L102.584 15.009L102.725 15.3492L101.77 15.7426L102.251 16.9074L101.899 17.0523L101.419 15.8874L100.369 16.3204L100.229 15.9801L101.279 15.5472L100.951 14.7521L100.393 14.9823C100.396 15.2534 100.372 15.5099 100.318 15.7571L99.9724 15.5579C100.051 15.1404 100.033 14.6763 99.9117 14.1725Z" fill="white"/>
<path d="M102.928 12.6156L103.256 12.4786C103.206 12.7943 103.194 13.0984 103.221 13.3907C103.242 13.7543 103.324 14.0971 103.458 14.4183C103.591 14.7358 103.776 15.0355 104.021 15.3105C104.208 15.5314 104.433 15.7369 104.694 15.927L104.365 16.064C104.09 15.8926 103.853 15.697 103.653 15.477C103.407 15.2109 103.218 14.9128 103.079 14.5805C102.939 14.2446 102.859 13.8966 102.845 13.5387C102.826 13.2344 102.854 12.928 102.928 12.6156Z" fill="white"/>
<path d="M106.427 13.2982L106.11 13.4313L105.972 13.1031L106.95 12.6928L107.088 13.021L106.77 13.1542L107.151 14.0615C107.285 13.9663 107.417 13.8675 107.544 13.7666L107.682 14.0948C107.398 14.318 107.087 14.5395 106.749 14.7555L106.523 14.4554C106.627 14.3942 106.732 14.333 106.835 14.2681L106.427 13.2982ZM108.525 14.2655C108.393 14.3212 108.229 14.2727 108.045 14.1243C107.83 13.9415 107.616 13.671 107.407 13.3165C107.226 13.0105 107.031 12.6282 106.818 12.1623L105.679 12.6408L105.536 12.3015L106.668 11.8261C106.574 11.6227 106.483 11.4051 106.39 11.1838L106.729 11.0413C106.825 11.27 106.915 11.4839 107.008 11.6837L107.712 11.3879L107.855 11.7272L107.157 12.0199C107.409 12.578 107.636 13.0161 107.831 13.3338C108.081 13.7233 108.257 13.9053 108.364 13.8819C108.42 13.8497 108.388 13.6074 108.278 13.159L108.649 13.2679C108.741 13.8584 108.702 14.1911 108.525 14.2655ZM107.038 10.9076C107.264 11.0122 107.445 11.1139 107.586 11.2021L107.414 11.474C107.267 11.371 107.08 11.2672 106.861 11.1595L107.038 10.9076ZM104.629 11.9707C104.934 12.0554 105.202 12.1556 105.434 12.275L105.296 12.619C105.083 12.5045 104.81 12.4022 104.487 12.3126L104.629 11.9707ZM104.58 13.2493L105.41 12.9009L106.048 14.4204C106.097 14.3 106.147 14.1706 106.196 14.0286L106.443 14.3587C106.33 14.6667 106.194 14.9536 106.033 15.2208L105.768 14.963C105.806 14.8866 105.814 14.8137 105.785 14.7436L105.212 13.379L104.721 13.5849L104.58 13.2493Z" fill="white"/>
<path d="M109.029 10.3286L110.828 9.57016L110.972 9.91293L109.174 10.6714L109.029 10.3286ZM109.325 11.2889L111.375 10.4248L111.519 10.7675L110.944 11.01L111.603 12.5727C111.703 12.8086 111.62 12.9825 111.358 13.0928L110.824 13.3182L110.602 13.0081C110.778 12.9513 110.946 12.8888 111.101 12.8235C111.208 12.7784 111.246 12.7146 111.214 12.6372L110.59 11.1592L109.47 11.6317L109.325 11.2889ZM108.326 10.4122L108.709 10.4245C108.681 10.9138 108.502 11.4149 108.167 11.9382L107.912 11.6331C108.162 11.228 108.3 10.8228 108.326 10.4122ZM108.855 11.1832L109.235 11.197C109.219 11.438 109.173 11.6788 109.096 11.9194L109.864 13.7402L109.521 13.8847L108.898 12.4067C108.814 12.5769 108.72 12.7466 108.611 12.9187L108.361 12.6158C108.657 12.1438 108.824 11.6652 108.855 11.1832Z" fill="white"/>
<path d="M111.266 9.11162L111.594 8.97329C111.865 9.14137 112.103 9.33604 112.311 9.56099C112.552 9.82396 112.748 10.1234 112.889 10.4588C113.029 10.7905 113.105 11.1361 113.127 11.496C113.14 11.7944 113.113 12.101 113.046 12.4157L112.718 12.554C112.762 12.236 112.773 11.932 112.75 11.6419C112.722 11.2762 112.642 10.9322 112.508 10.6152C112.373 10.2946 112.182 9.99724 111.942 9.72535C111.748 9.5031 111.523 9.29852 111.266 9.11162Z" fill="white"/>
<path d="M113.597 8.12835L115.085 9.52935L115.046 11.5723L114.695 11.5636L114.731 9.6782L113.358 8.38513L113.597 8.12835Z" fill="white"/>
<path d="M118.739 6.71713L119.811 9.28675L119.475 9.42682L119.395 9.23484L118.811 9.47804L118.936 9.77709L118.6 9.91716L117.484 7.24047L117.835 7.09424C117.818 6.86717 117.785 6.64256 117.726 6.41611L118.096 6.31788C118.144 6.53633 118.167 6.74771 118.171 6.95417L118.739 6.71713ZM118.676 9.15314L119.259 8.90994L118.956 8.18262L118.373 8.42582L118.676 9.15314ZM118.242 8.112L118.825 7.8688L118.542 7.18948L117.959 7.43268L118.242 8.112ZM119.773 7.32614C120.143 7.52729 120.441 7.71092 120.666 7.88595L120.47 8.19707C120.228 8.01189 119.924 7.82242 119.563 7.62188L119.773 7.32614ZM120.646 5.92657C121.177 7.20031 121.486 7.99439 121.573 8.30515C121.647 8.58636 121.525 8.79316 121.211 8.92399C121.137 8.95478 121.001 9.0028 120.812 9.06869L120.593 8.78289C120.759 8.72255 120.902 8.67144 121.02 8.62219C121.168 8.56062 121.22 8.44768 121.178 8.28338C121.123 8.08955 120.876 7.46468 120.444 6.40938L119.518 6.79573C119.507 7.06035 119.473 7.31267 119.41 7.55576L119.084 7.36659C119.18 6.91057 119.17 6.40781 119.046 5.86137L119.411 5.76099C119.46 5.98313 119.489 6.19666 119.505 6.4022L120.646 5.92657Z" fill="white"/>
<path d="M121.065 5.07742C121.398 5.16997 121.689 5.27926 121.938 5.40159L121.791 5.74771C121.567 5.62364 121.278 5.50913 120.919 5.4057L121.065 5.07742ZM124.556 7.51658C124.353 7.6003 124.129 7.68793 123.891 7.78164C123.649 7.87688 123.444 7.93536 123.273 7.9623C123.107 7.97879 122.941 7.94329 122.778 7.86318C122.701 7.82161 122.644 7.81028 122.6 7.82854C122.522 7.86051 122.457 8.08176 122.406 8.49231L122.048 8.35841C122.11 7.98268 122.198 7.72554 122.316 7.59067L121.885 6.54383L121.389 6.74779L121.255 6.42227L122.08 6.08284L122.656 7.4811C122.68 7.48828 122.706 7.49917 122.734 7.51375C122.86 7.57862 122.979 7.61607 123.092 7.6261C123.224 7.63223 123.4 7.59855 123.622 7.51614C123.834 7.43308 124.083 7.3348 124.372 7.21607C124.553 7.14149 124.737 7.06169 124.92 6.98188C125.104 6.90208 125.245 6.83532 125.342 6.78682L125.4 7.16954L124.556 7.51658ZM122.703 4.83174L121.989 5.12551L121.869 4.83328L123.9 3.99764L124.002 4.24548C123.863 4.51872 123.698 4.76845 123.509 5.00208C123.519 5.00643 123.528 5.00709 123.538 5.01144L124.282 4.7055L124.958 6.34789C125.047 6.56613 124.971 6.72733 124.731 6.82627L124.446 6.94347L124.252 6.68169L124.52 6.58842C124.602 6.55493 124.629 6.49597 124.596 6.41459L124.518 6.22594L123.986 6.44512L124.235 7.05177L123.913 7.1842L123.664 6.57755L123.142 6.79216L123.395 7.40621L123.062 7.5432L122.24 5.5457L123.091 5.19561C122.935 5.16446 122.763 5.1357 122.578 5.11673L122.703 4.83174ZM123.226 4.9239C123.349 4.78229 123.457 4.63415 123.55 4.48318L122.722 4.82413C122.899 4.85507 123.067 4.88535 123.226 4.9239ZM122.918 6.2484L123.025 6.50734L123.547 6.29272L123.44 6.03378L122.918 6.2484ZM123.762 5.90136L123.868 6.1603L124.401 5.94111L124.294 5.68218L123.762 5.90136ZM124.176 5.39365L124.069 5.13471L123.537 5.3539L123.643 5.61283L124.176 5.39365ZM123.321 5.74525L123.215 5.48632L122.693 5.70094L122.8 5.95987L123.321 5.74525Z" fill="white"/>
<path d="M127.731 2.73865L128.9 5.63142L128.559 5.76929L128.474 5.55789L127.825 5.82014L127.911 6.03525L127.57 6.17312L126.4 3.27664L127.731 2.73865ZM127.691 5.49007L128.34 5.22782L127.523 3.20659L126.874 3.46884L127.691 5.49007ZM125.247 4.25596C125.236 4.47586 125.209 4.68542 125.168 4.88315L124.781 4.81097C124.877 4.36644 124.897 3.92293 124.835 3.48193L125.213 3.41524C125.233 3.57116 125.241 3.71894 125.248 3.86302L126.26 3.45391L126.397 3.7914L125.892 3.99521C125.978 4.22814 126.053 4.44774 126.111 4.65329L126.689 4.41951L126.826 4.757L126.199 5.01026C126.217 5.09785 126.231 5.18693 126.246 5.2671C126.566 5.40562 126.899 5.56861 127.25 5.75456L127.167 6.16784C126.805 5.93439 126.509 5.75642 126.278 5.63392C126.28 6.08628 126.15 6.52275 125.879 6.94263L125.536 6.75368C125.806 6.31226 125.917 5.86174 125.872 5.39692C125.858 5.32046 125.847 5.23879 125.832 5.15862L125.101 5.45384L124.965 5.11635L125.747 4.80015C125.69 4.5946 125.614 4.375 125.529 4.14207L125.247 4.25596Z" fill="white"/>
<path d="M128.292 2.06188L129.748 3.49548L129.664 5.53702L129.313 5.52055L129.391 3.63645L128.047 2.3133L128.292 2.06188ZM128.928 1.81077L130.384 3.24437L130.3 5.28591L129.949 5.26944L130.027 3.38534L128.669 2.06807L128.928 1.81077Z" fill="white"/>
</svg>
