<svg width="92" height="18" viewBox="0 0 92 18" fill="none" xmlns="http://www.w3.org/2000/svg">
<path d="M3.81175 1.606L4.11098 1.81599L2.99328 3.34286L3.38661 5.18708L3.04385 5.26223L2.61748 3.26393L3.81175 1.606ZM4.48115 1.7466L4.76472 1.9533L3.66268 3.48345L4.05601 5.32767L3.71324 5.40283L3.28688 3.40452L4.48115 1.7466Z" fill="white"/>
<path d="M7.90202 3.13538L8.27547 3.20564L7.73631 6.07137L7.36287 6.00111L7.4065 5.76917L4.98105 5.31285L4.93816 5.54085L4.56471 5.47059L5.10682 2.58915L5.48027 2.65941L5.04836 4.95513L6.07435 5.14816L6.6246 2.22347L7.00198 2.29447L6.45173 5.21916L7.4738 5.41145L7.90202 3.13538Z" fill="white"/>
<path d="M9.10549 3.11135L10.0765 3.27042C10.1689 3.12747 10.2585 2.97597 10.3489 2.82053L10.7103 2.96485C10.6324 3.09396 10.5591 3.21976 10.4831 3.33703L12.4489 3.65906L12.3894 4.02222L10.2539 3.67238C10.0331 3.98075 9.79911 4.24641 9.55971 4.47066L10.4834 4.62197L10.572 4.08118L10.947 4.14261L10.8584 4.6834L12.0781 4.88322L12.0206 5.23454L10.8008 5.03472L10.6062 6.22288C10.5629 6.48736 10.4027 6.59894 10.1264 6.55367L9.71589 6.48642L9.69314 6.10573C9.81686 6.14222 9.93794 6.17016 10.0524 6.18891C10.1629 6.20702 10.2306 6.1654 10.2461 6.07066L10.4258 4.97329L9.10742 4.75731L9.07554 4.40756C9.3354 4.20692 9.5944 3.93725 9.84337 3.60513L9.04599 3.4745L9.10549 3.11135ZM9.61407 5.10377L9.8371 5.3754C9.52756 5.68139 9.16133 5.93755 8.74695 6.14124L8.55724 5.78995C8.9592 5.6126 9.31301 5.38277 9.61407 5.10377ZM11.4081 5.38551C11.7064 5.74242 11.9539 6.08697 12.1416 6.42577L11.8246 6.65352C11.6666 6.33174 11.4328 5.97728 11.12 5.58556L11.4081 5.38551Z" fill="white"/>
<path d="M14.3491 3.46661L14.7175 3.51793L14.5768 4.52818L14.2084 4.47686L14.3491 3.46661ZM13.2072 5.14109C13.0279 5.15246 12.8486 5.16384 12.6699 5.17125L12.5628 4.80902C13.7858 4.78551 14.7468 4.61244 15.4421 4.28926C15.3257 4.16804 15.2014 4.04572 15.0691 3.9223L15.3563 3.71595C15.7213 4.05352 16.0268 4.38281 16.2654 4.69876L15.967 4.92778C15.8834 4.80305 15.7879 4.67667 15.6766 4.54809C15.2903 4.74064 14.8417 4.88816 14.3262 4.99405L15.7286 5.1894L15.429 7.34063L15.0605 7.28931L15.0815 7.13876L13.3344 6.89541L13.3123 7.05388L12.9478 7.00311L13.2072 5.14109ZM13.3807 6.56262L15.1279 6.80598L15.1648 6.54054L13.4177 6.29719L13.3807 6.56262ZM13.4596 5.99609L15.2068 6.23944L15.2404 5.99778L13.4933 5.75442L13.4596 5.99609ZM13.5347 5.45729L15.2818 5.70065L15.3166 5.45106L13.5695 5.2077L13.5347 5.45729ZM13.6957 3.6058L13.9285 3.87651C13.6545 4.13316 13.33 4.34643 12.9555 4.51236L12.7768 4.20072C13.1304 4.03996 13.4363 3.84429 13.6957 3.6058Z" fill="white"/>
<path d="M17.0398 5.42229C16.9084 5.55235 16.7695 5.67754 16.619 5.7974L16.5412 5.38203C16.9978 4.97475 17.3592 4.48424 17.6223 3.9021L17.9611 4.10948C17.8281 4.39634 17.6646 4.66769 17.4746 4.92397L17.1744 7.57906L16.8008 7.53683L17.0398 5.42229ZM17.9217 4.42303L18.6848 4.5093L18.8465 4.04049L19.2121 4.11805C19.1628 4.26947 19.1104 4.41249 19.0624 4.55198L20.2071 4.68139L20.1658 5.04706L18.9257 4.90687C18.8711 5.03354 18.8214 5.15271 18.7721 5.26791L20.2865 5.4391L20.2456 5.8008L18.612 5.61612C18.5393 5.76087 18.4719 5.89415 18.4014 6.01902L19.9833 6.19785L19.9465 6.52377C19.7588 6.76018 19.4875 6.98715 19.1245 7.20776C19.2815 7.31408 19.4337 7.42789 19.5775 7.54478L19.326 7.84644C18.8779 7.4657 18.4059 7.15471 17.9182 6.91038L18.1546 6.6352C18.3832 6.7496 18.6025 6.87503 18.8134 7.00353C19.1132 6.8442 19.3574 6.67858 19.5424 6.50224L17.873 6.31352C18.0042 6.07878 18.1288 5.83121 18.2503 5.57524L17.6223 5.50424L17.6632 5.14255L18.4065 5.22657C18.4562 5.1074 18.5059 4.98823 18.552 4.86463L17.8803 4.7887L17.9217 4.42303Z" fill="white"/>
<path d="M21.8836 7.08107L21.8521 7.44371C21.4736 7.59556 21.046 7.71105 20.574 7.78253L20.563 7.40015C21.0586 7.33472 21.5014 7.2286 21.8836 7.08107ZM21.4263 4.29914L21.7764 4.47406C21.544 4.93169 21.3192 5.30164 21.1024 5.57995C21.2392 5.57576 21.3765 5.56759 21.514 5.55543C21.5928 5.43378 21.6767 5.30053 21.7612 5.1593L22.0888 5.31621C21.7175 5.89428 21.4118 6.31744 21.1677 6.58535C21.4207 6.53904 21.6793 6.47315 21.9441 6.38369L21.914 6.73039C21.468 6.87238 21.0472 6.95633 20.6551 6.98656L20.5859 6.62723C20.6564 6.60123 20.7153 6.5702 20.767 6.53052C20.9019 6.40973 21.077 6.19606 21.2923 5.88952C21.1062 5.9055 20.9125 5.9168 20.7109 5.92741L20.6453 5.57242C20.7071 5.55369 20.7674 5.50673 20.8215 5.43915C21.0435 5.10107 21.2451 4.72107 21.4263 4.29914ZM22.0826 6.17488L22.028 5.83288C22.0605 5.82767 22.0895 5.81814 22.1061 5.81155C22.2333 5.73425 22.4084 5.52058 22.6268 5.17818L22.0091 5.1246L22.0406 4.76196L23.0089 4.84596C22.9722 4.71429 22.9307 4.59024 22.8846 4.47382L23.2767 4.44359C23.3174 4.57561 23.3571 4.71958 23.3915 4.87914L24.2642 4.95484L24.2328 5.31748L23.0213 5.2124C22.845 5.48619 22.6905 5.69361 22.5571 5.84264C22.8827 5.83876 23.2089 5.82691 23.5318 5.80674C23.4618 5.68825 23.3915 5.57374 23.3211 5.45923L23.6236 5.30479C23.8572 5.66633 24.0345 5.98284 24.1559 6.25033L23.8433 6.42798C23.8035 6.33218 23.7556 6.23568 23.7081 6.1352C23.2074 6.16806 22.6642 6.18117 22.0826 6.17488ZM22.3668 6.324L22.7334 6.3558C22.6696 6.86017 22.5737 7.22525 22.4497 7.45138C22.3127 7.68843 22.1027 7.88703 21.8158 8.04683L21.6027 7.72721C21.8383 7.60311 22.0125 7.44558 22.1255 7.25462C22.2337 7.07129 22.3128 6.76097 22.3668 6.324ZM23.6784 8.14415L23.4234 8.12203C23.1404 8.09749 23.012 7.95787 23.0338 7.70681L23.1517 6.34791L23.5143 6.37937L23.4026 7.66653C23.3971 7.7303 23.4176 7.77222 23.4647 7.78434L23.6879 7.8037C23.7603 7.80195 23.8086 7.75394 23.8249 7.65899C23.8462 7.55244 23.8676 7.39771 23.8849 7.19846L24.2017 7.34237C24.1685 7.72493 24.1165 7.9533 24.0531 8.03613C23.9904 8.11099 23.8631 8.14411 23.6784 8.14415Z" fill="white"/>
<path d="M26.1361 5.32961L24.7987 5.24658L24.8212 4.88328L27.8833 5.07338L27.8608 5.43668L26.5194 5.3534L26.3687 7.78073L27.9616 7.87962L27.9388 8.24692L24.3657 8.02509L24.3885 7.6578L25.9854 7.75694L26.1361 5.32961Z" fill="white"/>
<path d="M28.7299 5.17504L29.6332 5.20965L29.6465 4.86191L30.0343 4.87676L30.0209 5.22451L30.9802 5.26127L30.9936 4.91352L31.3813 4.92838L31.3679 5.27612L32.2713 5.31073L32.2577 5.66647L31.3543 5.63186L31.3422 5.94763L30.9545 5.93277L30.9666 5.617L30.0073 5.58025L29.9952 5.89602L29.6075 5.88116L29.6196 5.56539L28.7162 5.53078L28.7299 5.17504ZM29.0624 6.00438L31.7164 6.10607L31.7025 6.46981C30.5803 7.02725 29.8514 7.45565 29.5197 7.75517C29.4118 7.85511 29.3486 7.93675 29.3259 8.00794C29.3236 8.06789 29.3543 8.10109 29.4263 8.10385L31.3888 8.17905C31.4967 8.18318 31.5817 8.15842 31.6397 8.1086C31.6975 8.06278 31.7543 7.83279 31.8102 7.41863L32.1565 7.576C32.0947 8.03797 32.0081 8.31486 31.8925 8.4065C31.781 8.4943 31.6193 8.53614 31.4115 8.52817L29.4329 8.45236C29.0812 8.43888 28.914 8.30839 28.9235 8.06057C28.93 7.89269 29.0695 7.69789 29.3342 7.47587C29.6818 7.18096 30.2633 6.83897 31.0709 6.44561L29.0484 6.36811L29.0624 6.00438Z" fill="white"/>
<path d="M32.6556 5.36034L33.5155 5.37643C33.4657 5.25548 33.4118 5.14645 33.3496 5.04527L33.7508 4.98877C33.8046 5.1058 33.8541 5.23875 33.9034 5.3837L34.6753 5.39814C34.7377 5.27129 34.7882 5.13621 34.8228 4.99684L35.2298 5.05646C35.1914 5.17977 35.1413 5.29485 35.0792 5.40571L35.9111 5.42128L35.9046 5.76522L34.4689 5.73834L34.4632 6.04229L35.687 6.0652L35.6808 6.39314L34.457 6.37023L34.4513 6.67818L36.019 6.70752L36.0124 7.05946L32.493 6.99358L32.4996 6.64164L34.0673 6.67099L34.0731 6.36304L32.8613 6.34036L32.8675 6.01242L34.0792 6.0351L34.0849 5.73115L32.6492 5.70428L32.6556 5.36034ZM34.0873 7.09944L34.4705 7.14662C34.4571 7.22238 34.4397 7.29807 34.4183 7.36968L35.9181 7.39775L35.9113 7.75769L34.5916 7.73299C34.8577 8.05002 35.3616 8.27149 36.1034 8.3974L35.8967 8.75359C35.044 8.5696 34.4898 8.25517 34.2301 7.80624C34.1434 7.94864 34.0411 8.07074 33.9191 8.17648C33.6508 8.4035 33.1875 8.57886 32.521 8.70241L32.372 8.32755C32.9418 8.2382 33.3564 8.10194 33.612 7.91469C33.6932 7.85219 33.7584 7.7894 33.8157 7.71846L32.5719 7.69518L32.5786 7.33524L34.0184 7.36219C34.048 7.27473 34.0697 7.18712 34.0873 7.09944Z" fill="white"/>
<path d="M36.5978 5.96903L38.1178 5.97297L38.1202 5.04897L38.4962 5.04995L38.4938 5.97395L40.0178 5.9779L40.0169 6.3419L38.8409 6.33885C39.0952 6.96351 39.5258 7.52063 40.1325 8.0102L39.8757 8.32954C39.2172 7.74383 38.7549 7.08663 38.4928 6.35794L38.4866 8.74194L38.1106 8.74096L38.1168 6.36497C37.8227 7.16421 37.337 7.82295 36.6597 8.3372L36.4526 7.99666C37.0537 7.56622 37.4951 7.01136 37.7689 6.33607L36.5969 6.33303L36.5978 5.96903ZM39.1482 5.05564C39.3756 5.29623 39.551 5.50469 39.6746 5.68101L39.37 5.89622C39.2425 5.69589 39.0671 5.47943 38.8517 5.23887L39.1482 5.05564Z" fill="white"/>
<path d="M41.3652 5.02052L41.7266 5.18132C41.6372 5.47413 41.5236 5.75114 41.382 6.01641L41.4062 8.7523L41.0223 8.75571L41.0033 6.61179C40.8886 6.76481 40.7659 6.90991 40.6351 7.05107L40.5076 6.64819C40.8954 6.18073 41.1826 5.63816 41.3652 5.02052ZM41.8949 5.21183L43.8308 5.19466L43.8426 6.52261L43.0586 6.52956L43.0617 6.88155L44.1817 6.87162L44.1849 7.2396L43.405 7.24652C43.6162 7.60466 43.903 7.91813 44.2693 8.18689L44.0243 8.52108C43.6533 8.18036 43.3455 7.75907 43.097 7.24925L43.065 7.24953L43.0781 8.72948L42.7021 8.73281L42.689 7.25287L42.653 7.25319C42.4059 7.8034 42.0977 8.23415 41.7284 8.54544L41.5094 8.20337C41.8512 7.96033 42.1285 7.64586 42.349 7.25588L41.609 7.26245L41.6058 6.89446L42.6857 6.88488L42.6826 6.5329L41.9066 6.53978L41.8949 5.21183ZM43.4634 6.16196L43.458 5.56198L42.2741 5.57248L42.2794 6.17246L43.4634 6.16196Z" fill="white"/>
<path d="M45.0266 8.67084L44.6267 8.67698L44.537 8.31031C44.6572 8.32047 44.7773 8.32663 44.8893 8.32491C44.9813 8.3235 45.0286 8.27477 45.0271 8.17878L45.0141 7.33088C44.8629 7.3852 44.7116 7.43553 44.5603 7.48185L44.4585 7.10337C44.6419 7.06055 44.8251 7.00974 45.0083 6.95092L44.9954 6.11502L44.5235 6.12226L44.5179 5.7583L44.9898 5.75106L44.9787 5.02715L45.3587 5.02132L45.3698 5.74524L45.7738 5.73904L45.7793 6.103L45.3754 6.10919L45.3862 6.81311C45.5292 6.75091 45.6722 6.68471 45.8152 6.61451L45.821 6.99446C45.678 7.06066 45.535 7.12687 45.3919 7.18507L45.4085 8.26894C45.4126 8.53291 45.2826 8.66692 45.0266 8.67084ZM47.6868 5.79371L46.355 5.81414L46.3653 6.48606L47.6971 6.46563L47.6868 5.79371ZM46.3669 6.85008C46.3618 7.56224 46.2033 8.18074 45.8871 8.69765L45.5953 8.4461C45.8686 8.00985 46.0001 7.45577 45.9937 6.77579L45.9735 5.45994L46.8254 5.44688C46.7671 5.29575 46.7089 5.15663 46.643 5.02963L47.0459 4.95944C47.1002 5.10262 47.1546 5.26181 47.2094 5.44099L48.0493 5.42811L48.0707 6.82394L46.3669 6.85008Z" fill="white"/>
<path d="M48.766 6.38708L49.1043 6.51323C48.9806 6.99145 48.8149 7.35838 48.6034 7.61809L48.3151 7.37505C48.5188 7.12348 48.6691 6.79683 48.766 6.38708ZM49.5693 4.95293L49.9532 4.94627L49.9661 5.69016L51.2299 5.66822C51.2268 5.94832 51.2273 6.20835 51.2235 6.44845L51.4852 6.31589C51.6754 6.67265 51.8623 7.06546 52.0418 7.49841L51.6968 7.67243C51.546 7.28298 51.3838 6.92575 51.2183 6.60857C51.2074 6.9048 51.196 7.16904 51.1839 7.39328C51.1514 7.82591 51.0886 8.13105 50.9997 8.30862C50.9106 8.47819 50.7642 8.56874 50.5605 8.58828L50.0926 8.5964L49.9822 8.23026C50.1183 8.2359 50.2464 8.23768 50.3664 8.23559C50.5623 8.23219 50.6919 8.09392 50.7554 7.82878C50.8145 7.54772 50.8441 6.95111 50.8484 6.0429L49.9565 6.05838C49.9276 6.69498 49.8246 7.21684 49.6476 7.62397C49.4472 8.06352 49.1091 8.40543 48.6373 8.65366L48.4236 8.32532C48.8752 8.06544 49.1816 7.74008 49.3429 7.35322C49.4728 7.00291 49.5494 6.57352 49.5726 6.06504L48.6207 6.08156L48.6143 5.71361L49.5822 5.69682L49.5693 4.95293Z" fill="white"/>
<path d="M54.4737 4.86667L54.8576 4.86073L54.867 5.46466L55.8629 5.44925L55.8686 5.81721L54.8727 5.83261L54.8829 6.49253L55.9868 6.47546L55.9924 6.84342L54.6926 6.86352C54.4729 7.40298 54.2791 7.80203 54.107 8.06072C54.5462 8.00592 54.9811 7.92719 55.4117 7.83252C55.3043 7.61815 55.1933 7.41984 55.0824 7.23754L55.4485 7.11186C55.6907 7.50816 55.9052 7.9289 56.0883 8.38212L55.7308 8.54767C55.6767 8.41249 55.6226 8.28131 55.5688 8.16213C54.9747 8.28733 54.3282 8.38934 53.6293 8.47215L53.5362 8.14155C53.568 8.12906 53.5958 8.11663 53.6157 8.10432C53.7892 7.94562 54.0109 7.53414 54.2807 6.86989L53.3968 6.88356L53.3911 6.5156L54.4989 6.49847L54.4887 5.83855L53.5728 5.85271L53.5671 5.48476L54.483 5.47059L54.4737 4.86667ZM52.7384 4.92551C52.9975 5.12152 53.2165 5.31416 53.3995 5.50735L53.1318 5.78753C52.9769 5.6019 52.7538 5.40533 52.4665 5.19374L52.7384 4.92551ZM52.6529 5.86294C52.8919 6.05927 53.095 6.25615 53.2661 6.45353L52.9943 6.72977C52.8514 6.54395 52.6483 6.34307 52.385 6.13112L52.6529 5.86294ZM53.0583 6.98481L53.4044 7.11947C53.2402 7.62207 53.0555 8.09698 52.8544 8.54415L52.4718 8.38204C52.6968 7.92651 52.8936 7.45941 53.0583 6.98481Z" fill="white"/>
<path d="M56.9253 4.79621L57.2813 4.79196C57.1165 5.06595 56.9918 5.34346 56.9072 5.62449C56.7913 5.9699 56.7395 6.31854 56.7436 6.66652C56.7477 7.01049 56.8079 7.3578 56.932 7.70434C57.0233 7.97927 57.1546 8.25372 57.3259 8.52769L56.9699 8.53195C56.7788 8.27021 56.6315 7.99995 56.5282 7.72116C56.4002 7.38267 56.336 7.03541 56.3317 6.67544C56.3274 6.31146 56.3832 5.95877 56.5031 5.62131C56.5997 5.33214 56.7404 5.05844 56.9253 4.79621Z" fill="white"/>
<path d="M59.5619 5.16484C59.8339 5.16275 60.0625 5.237 60.2397 5.39564C60.4129 5.55432 60.5025 5.75764 60.5044 6.00963C60.5063 6.25762 60.412 6.48235 60.2296 6.68776C60.1185 6.80462 59.9237 6.95812 59.6411 7.15229C59.3347 7.35865 59.1521 7.54006 59.0933 7.69651L60.5213 7.68555L60.5242 8.06954L58.5563 8.08465C58.5541 7.80066 58.6442 7.55196 58.8345 7.33449C58.9376 7.2097 59.1522 7.03604 59.4745 6.80956C59.6655 6.67209 59.8006 6.56305 59.88 6.47844C60.0069 6.33346 60.0737 6.17694 60.0724 6.00895C60.0712 5.84895 60.0262 5.72929 59.9376 5.64997C59.849 5.57065 59.7167 5.53166 59.5487 5.53295C59.3687 5.53434 59.2332 5.59538 59.1421 5.72008C59.0471 5.84081 59.0004 6.01318 58.9942 6.24523L58.5582 6.24858C58.5597 5.92856 58.6498 5.67186 58.8283 5.47848C59.0107 5.26908 59.2579 5.16718 59.5619 5.16484Z" fill="white"/>
<path d="M62.7964 5.16345C63.1321 5.17725 63.3862 5.32781 63.5583 5.61912C63.7154 5.8898 63.7848 6.24495 63.7666 6.68857C63.7485 7.1282 63.65 7.48045 63.4713 7.73733C63.276 8.00954 63.0103 8.14275 62.6745 8.12895C62.3388 8.11515 62.085 7.9606 61.9126 7.67328C61.7556 7.40261 61.6861 7.04745 61.7043 6.60383C61.7227 6.15621 61.8211 5.80795 61.9997 5.55507C62.1952 5.27886 62.4607 5.14966 62.7964 5.16345ZM62.7813 5.53114C62.5455 5.52145 62.3764 5.64261 62.2698 5.89845C62.1906 6.07135 62.1486 6.31383 62.136 6.62157C62.1235 6.92531 62.1455 7.17042 62.21 7.35322C62.2954 7.61295 62.4539 7.75157 62.6897 7.76126C62.9215 7.77079 63.0947 7.64579 63.2012 7.39395C63.2765 7.2169 63.3225 6.97458 63.335 6.67084C63.3476 6.3631 63.3217 6.11782 63.2609 5.93918C63.1757 5.67546 63.0131 5.54067 62.7813 5.53114Z" fill="white"/>
<path d="M65.6731 5.43746L65.9987 5.4771L65.6535 8.31217L65.2207 8.25948L65.5025 5.94457C65.312 6.08658 65.0791 6.17911 64.8078 6.22265L64.8601 5.79382C64.991 5.77752 65.1288 5.73789 65.2814 5.67587C65.435 5.60592 65.5652 5.5291 65.6731 5.43746Z" fill="white"/>
<path d="M68.3011 5.84587L68.694 5.92119L68.3385 7.77542L68.7627 7.85677L68.6972 8.19854L68.2729 8.11719L68.1562 8.7261L67.7476 8.64777L67.8644 8.03886L66.4973 7.77674L66.5749 7.37211L68.3011 5.84587ZM68.1697 6.38272L66.9124 7.502L67.9299 7.69708L68.1815 6.38498L68.1697 6.38272Z" fill="white"/>
<path d="M70.7906 6.75475C70.5556 6.98145 70.2944 7.1514 70.0012 7.27129L69.8372 6.89574C70.3014 6.71004 70.6642 6.39346 70.9265 5.94215L71.2863 6.11357C71.2123 6.2345 71.1415 6.34384 71.0639 6.44724L73.4123 7.07946L73.3167 7.43481L72.1309 7.11558L71.9874 7.6486L73.038 7.93144L72.9454 8.2752L71.8948 7.99236L71.6931 8.74168L72.9986 9.09315L72.9019 9.45236L71.5964 9.10089L71.3718 9.93518L71.0049 9.8364L71.2295 9.0021L69.4759 8.53002L69.5726 8.1708L70.179 8.33406L70.4733 7.24098L71.6204 7.54981L71.7639 7.01679L70.7906 6.75475ZM70.5498 8.43389L71.3262 8.64289L71.5279 7.89357L70.7515 7.68456L70.5498 8.43389Z" fill="white"/>
<path d="M76.1512 7.50697L76.4863 7.66641C76.4274 7.74401 76.3622 7.81532 76.2994 7.87903L77.3531 8.22166L77.2529 8.52978C77.0684 8.72214 76.8354 8.86933 76.5515 8.96629C76.7259 9.11554 76.9357 9.25946 77.1796 9.40187L76.9288 9.69465C76.5997 9.49089 76.3312 9.28162 76.1311 9.06932C75.8241 9.12092 75.4763 9.12981 75.0903 9.10103L75.0585 8.73316C75.3597 8.76383 75.6279 8.76691 75.8706 8.74489C75.7747 8.60013 75.7079 8.45641 75.6663 8.31252C75.5781 8.35112 75.4898 8.38971 75.3964 8.41823L75.2776 8.08516C75.6512 7.97109 75.9445 7.78045 76.1512 7.50697ZM75.9712 8.15089C76.0219 8.3314 76.1206 8.5065 76.2661 8.67999C76.4959 8.62011 76.6913 8.53645 76.8511 8.42016L75.9876 8.13938C75.9788 8.14071 75.9737 8.14328 75.9712 8.15089ZM74.9073 7.1025L75.185 7.36103C75.0059 7.61407 74.8078 7.84828 74.5892 8.05482L73.7531 10.6263L73.4069 10.5137L74.0649 8.49003C73.9139 8.59234 73.7603 8.6896 73.6041 8.78183L73.6151 8.38582C74.1162 8.06083 74.5494 7.63388 74.9073 7.1025ZM74.9294 7.87522L75.2604 7.98283L74.5603 10.1359L74.2293 10.0283L74.9294 7.87522ZM76.1581 9.29681L76.3635 9.54449C76.1806 9.61541 76.0039 9.66731 75.827 9.69392C75.6514 9.71672 75.4124 9.72733 75.1088 9.72957L75.0304 9.38861C75.2456 9.41232 75.4544 9.41711 75.6617 9.4004C75.8323 9.38017 75.999 9.34605 76.1581 9.29681ZM76.4343 9.70209L76.6107 9.96137C76.1839 10.2264 75.6446 10.3454 74.9904 10.3136L74.9499 9.9597C75.5574 10.0058 76.0526 9.91868 76.4343 9.70209ZM74.6257 10.9437L74.5799 10.5671C75.0545 10.5952 75.4477 10.5759 75.7546 10.5116C76.0704 10.446 76.3617 10.3262 76.6387 10.1471L76.8317 10.4202C76.5714 10.6258 76.2423 10.7711 75.8368 10.8538C75.4326 10.9327 75.0268 10.9648 74.6257 10.9437Z" fill="white"/>
<path d="M79.3023 8.79456L81.515 9.55601L81.3952 9.90398L80.6312 9.64105L79.7552 12.1865C79.6667 12.4437 79.4938 12.5281 79.2366 12.4396L78.7336 12.2665L78.7752 11.8874C78.9289 11.9572 79.08 12.0219 79.2238 12.0713C79.3221 12.1052 79.3895 12.0691 79.4233 11.9708L80.2681 9.5161L79.1826 9.14253L79.3023 8.79456ZM78.5754 8.36248C78.7523 8.6349 78.8966 8.89182 79.003 9.13573L78.6713 9.30076C78.5798 9.0747 78.4369 8.814 78.2373 8.52112L78.5754 8.36248ZM77.6935 9.29002L78.5673 9.59069L78.0076 11.2171C78.1726 11.1554 78.3529 11.0863 78.5422 11.0034L78.5066 11.4142C78.1751 11.5539 77.8338 11.6607 77.4864 11.7357L77.4609 11.3674C77.5434 11.3365 77.5996 11.284 77.6256 11.2083L78.1046 9.81643L77.5751 9.6342L77.6935 9.29002Z" fill="white"/>
<path d="M82.6379 9.77183L82.9914 9.8876L82.6715 10.8646L82.8539 10.9243L82.7382 11.2778L81.8829 10.9977L81.8355 11.1422C81.8007 11.2486 81.7633 11.35 81.7271 11.4476L82.457 11.6866L81.9105 13.3554L81.557 13.2397L81.9902 11.9168L81.5948 11.7873C81.3675 12.3274 81.1254 12.7195 80.8762 12.9662L80.6797 12.6409C80.9564 12.3359 81.2243 11.8007 81.482 11.0264L81.9401 9.62752L82.2937 9.74329L81.9986 10.6442L82.3179 10.7488L82.6379 9.77183ZM83.2428 11.4978L83.1382 11.8171C82.884 12.542 82.563 13.0851 82.1778 13.4388L82.0166 13.0956C82.3237 12.8005 82.5856 12.3349 82.8075 11.7088L83.2905 10.2339C83.8986 10.4204 84.4646 10.5173 84.9933 10.5221L85.0624 10.9025C84.5791 10.8874 84.0676 10.8041 83.5204 10.6501L83.3548 11.1557L84.7423 11.61L84.6415 11.918C84.3935 12.3923 84.1008 12.7721 83.7582 13.0471C83.8584 13.3325 84.0089 13.5796 84.2149 13.786L83.9329 14.043C83.7079 13.8177 83.5446 13.558 83.4368 13.2702C83.1669 13.4259 82.8703 13.535 82.548 13.5937L82.4815 13.2183C82.7962 13.1572 83.0764 13.0469 83.3286 12.8938C83.2455 12.492 83.2469 12.0379 83.3302 11.5264L83.2428 11.4978ZM83.6533 11.6322C83.6072 12.0044 83.6052 12.3446 83.6574 12.648C83.9017 12.4291 84.1115 12.1611 84.2843 11.8389L83.6533 11.6322Z" fill="white"/>
<path d="M85.5806 10.6424L85.9222 10.7426C86.0256 11.0438 86.0873 11.3454 86.1061 11.651C86.1267 12.0072 86.0891 12.363 85.9867 12.7123C85.8854 13.0577 85.7261 13.3737 85.5153 13.6662C85.3367 13.9056 85.122 14.1261 84.8712 14.3277L84.5295 14.2275C84.7646 14.0088 84.965 13.78 85.131 13.541C85.3402 13.2397 85.4957 12.9226 85.5924 12.5925C85.6903 12.2586 85.7307 11.9078 85.7161 11.545C85.7066 11.2504 85.6614 10.9496 85.5806 10.6424Z" fill="white"/>
<path d="M87.7491 11.2828L88.112 13.2936L86.8657 14.9129L86.5889 14.6973L87.7388 13.2028L87.4042 11.3471L87.7491 11.2828ZM88.4137 11.4446L88.7766 13.4554L87.5303 15.0746L87.2535 14.859L88.4034 13.3646L88.0532 11.505L88.4137 11.4446Z" fill="white"/>
</svg>
