<svg width="55" height="20" viewBox="0 0 55 20" fill="none" xmlns="http://www.w3.org/2000/svg">
<path d="M1.12394 8.26804L2.68427 7.5443L2.84584 7.89265L1.60484 8.46827L1.87536 9.25112L1.88625 9.24607C1.92737 9.12559 1.99115 9.02545 2.07955 8.94035C2.15538 8.85668 2.25583 8.78804 2.37195 8.73418C2.61507 8.62141 2.85167 8.60867 3.07813 8.69764C3.30459 8.78661 3.48541 8.9673 3.61501 9.24671C3.73956 9.51523 3.73894 9.78008 3.6221 10.0415C3.50773 10.2798 3.32173 10.4586 3.06409 10.5781C2.83186 10.6858 2.60199 10.7131 2.37616 10.6635C2.12714 10.6115 1.93633 10.4663 1.8071 10.2352L2.19537 10.0551C2.27721 10.1935 2.38744 10.2791 2.51908 10.3062C2.63646 10.3311 2.76773 10.3099 2.91287 10.2426C3.07254 10.1685 3.18323 10.0555 3.24665 9.90701C3.30838 9.75491 3.30222 9.59903 3.2248 9.43211C3.14064 9.25068 3.02783 9.13104 2.88635 9.0732C2.74488 9.01536 2.59069 9.02515 2.41651 9.10594C2.30039 9.1598 2.21084 9.22339 2.14395 9.30733C2.0698 9.39463 2.03283 9.49555 2.02579 9.61346L1.65567 9.78514L1.12394 8.26804Z" fill="white"/>
<path d="M4.07389 6.41853L5.55379 7.8274L5.50377 9.87007L5.15303 9.85951L5.19903 7.97437L3.83337 6.67404L4.07389 6.41853Z" fill="white"/>
<path d="M10.5593 4.71137L10.9183 4.58676L11.8745 7.34153L11.5155 7.46613L11.4381 7.24318L9.10655 8.05247L9.18262 8.27165L8.82364 8.39625L7.86219 5.62637L8.22118 5.50176L8.98719 7.7086L9.97346 7.36626L8.99759 4.55481L9.36036 4.42889L10.3362 7.24034L11.3187 6.89931L10.5593 4.71137Z" fill="white"/>
<path d="M11.4228 4.16538L12.3731 3.90982C12.3982 3.74151 12.4174 3.56651 12.4356 3.38766L12.8244 3.37008C12.8067 3.51982 12.7918 3.66466 12.7709 3.80281L14.6946 3.28545L14.7902 3.64082L12.7004 4.20286C12.6265 4.57482 12.5229 4.91335 12.3972 5.21638L13.3011 4.97328L13.1588 4.44408L13.5258 4.34539L13.6681 4.87458L14.8617 4.55357L14.9541 4.89735L13.7605 5.21837L14.0732 6.38105C14.1429 6.63985 14.043 6.80755 13.7726 6.88027L13.3709 6.98831L13.1931 6.6509C13.3209 6.6331 13.4427 6.60862 13.5547 6.57849C13.6629 6.54941 13.7073 6.48361 13.6824 6.3909L13.3936 5.31706L12.1034 5.66405L11.9301 5.35857C12.0841 5.06863 12.2089 4.71614 12.2987 4.3109L11.5184 4.52075L11.4228 4.16538ZM12.7079 5.77072L13.0231 5.92619C12.8673 6.3326 12.6393 6.71701 12.3458 7.07346L12.0281 6.83168C12.3211 6.50434 12.5487 6.14905 12.7079 5.77072ZM14.4584 5.28748C14.8773 5.48963 15.2449 5.70142 15.5557 5.93265L15.3608 6.27086C15.0841 6.04291 14.725 5.81641 14.2785 5.58856L14.4584 5.28748Z" fill="white"/>
<path d="M16.8032 2.39344L17.1695 2.32889L17.3465 3.33342L16.9801 3.39797L16.8032 2.39344ZM16.2319 4.33805C16.0648 4.40404 15.8977 4.47003 15.7299 4.53208L15.5166 4.22036C16.673 3.82168 17.5342 3.36128 18.0962 2.83986C17.9482 2.76034 17.7923 2.68221 17.6285 2.60546L17.8382 2.32075C18.2893 2.52965 18.6813 2.74896 19.0057 2.97614L18.7922 3.28588C18.6743 3.19293 18.5445 3.10206 18.399 3.01396C18.0908 3.31603 17.7093 3.59444 17.2513 3.85383L18.6459 3.60815L19.0227 5.74721L18.6563 5.81175L18.63 5.66205L16.8927 5.96811L16.9205 6.12568L16.5581 6.18953L16.2319 4.33805ZM16.8344 5.63721L18.5717 5.33115L18.5252 5.06722L16.7879 5.37327L16.8344 5.63721ZM16.7352 5.07388L18.4724 4.76783L18.4301 4.52753L16.6929 4.83358L16.7352 5.07388ZM16.6408 4.53813L18.3781 4.23208L18.3343 3.9839L16.5971 4.28995L16.6408 4.53813ZM16.2242 2.72694L16.5291 2.91286C16.3474 3.24138 16.1042 3.54416 15.799 3.81726L15.533 3.57574C15.82 3.31398 16.0508 3.03368 16.2242 2.72694Z" fill="white"/>
<path d="M21.138 2.05424L23.0855 1.92217L23.1107 2.29332L21.1631 2.42539L21.138 2.05424ZM21.1059 3.05872L23.3248 2.90824L23.3499 3.27939L22.7274 3.32161L22.8421 5.01372C22.8594 5.26914 22.7244 5.40658 22.4411 5.4258L21.8624 5.46504L21.7534 5.09958C21.9381 5.10309 22.1182 5.0989 22.2858 5.08753C22.4016 5.07968 22.4585 5.03172 22.4528 4.94791L22.3442 3.34759L21.131 3.42986L21.1059 3.05872ZM20.4463 1.9047L20.8043 2.04079C20.6186 2.49439 20.2859 2.90985 19.7989 3.29569L19.6575 2.92441C20.0259 2.62279 20.2876 2.28431 20.4463 1.9047ZM20.6958 2.80588L21.0499 2.94224C20.9567 3.16505 20.8348 3.37779 20.6842 3.58044L20.8179 5.55191L20.4467 5.57708L20.3382 3.97676C20.2029 4.11022 20.0594 4.24023 19.8996 4.36733L19.7625 3.99977C20.1958 3.64965 20.5095 3.25151 20.6958 2.80588Z" fill="white"/>
<path d="M24.3079 1.91835L25.792 2.02637L25.7655 2.38941L24.2815 2.28139L24.3079 1.91835ZM24.0819 2.98476L25.8572 3.11397L25.8305 3.481L24.9328 3.41567C24.7494 3.95177 24.5967 4.34171 24.4744 4.58949C24.7418 4.5528 25.0149 4.49247 25.2894 4.41218C25.2119 4.21002 25.1335 4.01983 25.0542 3.84161L25.3847 3.70925C25.5439 4.05772 25.6924 4.44151 25.8306 4.85664L25.4913 5.00039L25.4061 4.73751C24.9768 4.85065 24.5176 4.93353 24.0245 4.98587L23.9588 4.62014C23.9993 4.61506 24.0241 4.60484 24.041 4.59403C24.16 4.44628 24.3335 4.04582 24.5658 3.38895L24.0552 3.35179L24.0819 2.98476ZM26.4953 1.84094L26.8703 1.86823L26.814 2.64218L27.6757 2.70491C27.581 4.00547 27.5027 4.80589 27.4447 5.10648C27.3788 5.40648 27.1643 5.54327 26.8012 5.51685C26.7374 5.5122 26.6263 5.49609 26.4673 5.4765L26.4039 5.135C26.5467 5.15742 26.6698 5.1744 26.7735 5.18195C26.949 5.19472 27.0557 5.10624 27.1016 4.91707C27.1392 4.7313 27.1967 4.10583 27.2819 3.04522L26.7872 3.00921L26.7846 3.04512C26.689 4.19321 26.3528 5.01096 25.7716 5.50206L25.5066 5.23011C26.0236 4.79449 26.3259 4.05849 26.4096 3.01782L26.4122 2.98192L25.9056 2.94504L25.9323 2.57801L26.439 2.61489L26.4953 1.84094Z" fill="white"/>
<path d="M30.3154 3.38217C30.4081 3.62111 30.4909 3.84955 30.5668 4.0723C30.7101 3.84261 30.8383 3.58895 30.9585 3.317L31.2655 3.44526C31.0971 3.83745 30.9104 4.18436 30.7054 4.48601C30.8125 4.82268 30.8977 5.12968 30.9601 5.41089L30.6258 5.54317C30.576 5.31412 30.5163 5.07458 30.4458 4.82844C30.2483 5.06203 30.0336 5.26295 29.8076 5.42429L29.6462 5.09152C29.8933 4.91039 30.1211 4.68789 30.3258 4.42312C30.231 4.12212 30.1263 3.81064 30.0078 3.48776L30.3154 3.38217ZM30.7066 6.29658L30.3948 6.22468L30.383 5.84842L30.667 5.93441C30.78 5.96048 30.8537 5.9077 30.8825 5.78297L31.473 3.22216L30.1322 2.913L29.4123 6.03508L29.0654 5.95509L29.8643 2.49001L31.899 2.95915L31.2114 5.94091C31.1431 6.23714 30.9716 6.3577 30.7066 6.29658ZM29.1192 5.08082L29.0392 5.42772C28.6473 5.48925 28.2111 5.51182 27.7344 5.49631L27.7694 5.13083C28.2725 5.15653 28.7195 5.14056 29.1192 5.08082ZM29.0785 2.17745L29.3948 2.38996C29.1155 2.81814 28.8529 3.15577 28.611 3.40376C28.7393 3.41693 28.8715 3.431 29.0008 3.44027C29.0994 3.31523 29.2037 3.18329 29.3185 3.04146L29.6249 3.24348C29.1636 3.80211 28.7934 4.19703 28.5173 4.43304C28.756 4.4306 28.9982 4.41256 29.2519 4.38074L29.1791 4.69645C28.7494 4.76159 28.3519 4.77665 27.9894 4.74643L27.9636 4.39566C28.0352 4.38755 28.0979 4.36505 28.1554 4.32907C28.3029 4.22351 28.5059 4.0199 28.7625 3.72603C28.5799 3.71677 28.3904 3.70182 28.197 3.68596L28.1798 3.33308C28.2437 3.32318 28.3052 3.28809 28.3672 3.23261C28.6187 2.92526 28.8558 2.57354 29.0785 2.17745Z" fill="white"/>
<path d="M32.6521 3.18377L35.9834 4.43906L35.8635 4.75722L34.7893 4.35242L34.6863 4.62567L35.536 4.94584L35.1622 5.93776L33.6276 5.35948C33.5362 5.4319 33.4551 5.49965 33.3791 5.56508L35.333 6.30132L35.2089 6.63071L34.4266 6.33593C34.2784 6.50236 34.0951 6.62567 33.8703 6.71192C34.185 6.95446 34.5038 7.21995 34.8245 7.50323L34.4937 7.71198C34.1604 7.39403 33.8163 7.09339 33.4651 6.81147C33.0456 6.85855 32.4142 6.78733 31.5722 6.59404L31.556 6.22885C32.1802 6.38714 32.6806 6.47736 33.0523 6.48918C32.7965 6.29449 32.5365 6.11102 32.2737 5.93504C32.4011 5.84629 32.5286 5.75755 32.6486 5.66598L31.784 5.34017L31.9081 5.01077L32.9749 5.41275C33.0611 5.34266 33.146 5.27632 33.2271 5.20856L32.2801 4.85172L32.6538 3.8598L33.5035 4.17997L33.6065 3.90673L32.5322 3.50193L32.6521 3.18377ZM33.527 6.45436C33.7453 6.40835 33.9219 6.3253 34.056 6.1963L33.0566 5.81971L32.8288 5.98181C33.0599 6.12871 33.2918 6.28451 33.527 6.45436ZM34.3457 4.49732L34.4487 4.22407L33.9471 4.03508L33.8441 4.30832L34.3457 4.49732ZM34.9359 5.50622L35.0811 5.12068L34.5721 4.92886L34.4268 5.3144L34.9359 5.50622ZM34.0862 5.18605L34.2314 4.80051L33.7299 4.61151L33.5846 4.99705L34.0862 5.18605ZM33.244 4.8687L33.3893 4.48316L32.8802 4.29134L32.7349 4.67688L33.244 4.8687Z" fill="white"/>
<path d="M36.9527 4.71106L36.8592 6.7522L35.2841 8.05372L35.0621 7.78196L36.5157 6.58069L36.6021 4.69697L36.9527 4.71106ZM37.5647 5.01655L37.4712 7.0577L35.8961 8.35922L35.6741 8.08745L37.1276 6.88619L37.1998 4.99532L37.5647 5.01655Z" fill="white"/>
<path d="M41.3004 7.79752L39.8866 10.1958L39.5731 10.011L39.6787 9.83178L39.1343 9.51083L38.9697 9.78995L38.6562 9.6051L40.1289 7.10687L40.4562 7.29985C40.6279 7.15034 40.7879 6.98926 40.9333 6.80565L41.2342 7.04342C41.088 7.21263 40.9328 7.35789 40.7698 7.4847L41.3004 7.79752ZM39.313 9.2076L39.8575 9.52855L40.2576 8.84972L39.7132 8.52877L39.313 9.2076ZM39.8858 8.23588L40.4303 8.55683L40.8041 7.9228L40.2596 7.60185L39.8858 8.23588ZM41.4332 8.99016C41.494 9.40679 41.5255 9.75504 41.5202 10.0398L41.1541 10.0701C41.1572 9.76544 41.1263 9.40826 41.0703 8.99915L41.4332 8.99016ZM43.0765 8.84913C42.3757 10.0379 41.9257 10.7617 41.7288 11.0171C41.5481 11.2449 41.3095 11.2714 41.0166 11.0988C40.9477 11.0581 40.8277 10.9781 40.6615 10.8662L40.759 10.5197C40.9066 10.616 41.0335 10.7001 41.1437 10.7651C41.2816 10.8463 41.4035 10.8207 41.5095 10.6881C41.6317 10.528 41.9833 9.95523 42.5691 8.97724L41.7042 8.46737C41.4858 8.61725 41.2639 8.74176 41.0314 8.83686L40.9873 8.46264C41.4097 8.26591 41.8059 7.95619 42.1689 7.52942L42.4684 7.76171C42.3202 7.93436 42.1664 8.08511 42.0117 8.22145L43.0765 8.84913Z" fill="white"/>
<path d="M44.159 8.79964C44.2737 9.12488 44.3513 9.42638 44.394 9.70078L44.0259 9.77851C43.9991 9.52379 43.927 9.22108 43.8063 8.86821L44.159 8.79964ZM44.1623 13.0582C43.9771 12.9395 43.7771 12.8067 43.5637 12.6652C43.347 12.5216 43.1814 12.387 43.0615 12.2627C42.9527 12.136 42.8866 11.9796 42.8589 11.8004C42.8484 11.7129 42.8253 11.6601 42.7849 11.6342C42.7141 11.5889 42.4958 11.6628 42.1298 11.8558L42.0343 11.4859C42.3775 11.3209 42.6391 11.2463 42.817 11.2652L43.4276 10.312L42.9763 10.0229L43.1662 9.7265L43.9173 10.2077L43.1016 11.4808C43.1098 11.5051 43.1159 11.5327 43.1198 11.5637C43.139 11.7043 43.1767 11.8234 43.2328 11.9212C43.3037 12.033 43.4324 12.1583 43.6268 12.2923C43.8167 12.4187 44.0402 12.5666 44.3029 12.7349C44.4679 12.8407 44.6385 12.9452 44.8091 13.0497C44.9796 13.1542 45.1153 13.2316 45.2105 13.2832L44.9303 13.5501L44.1623 13.0582ZM45.2994 10.0005L44.6493 9.58405L44.8198 9.31797L46.6689 10.5026L46.5243 10.7282C46.2211 10.7715 45.9216 10.7792 45.6216 10.758C45.6241 10.7691 45.6286 10.7767 45.6311 10.7878L46.308 11.2215L45.35 12.7169C45.2227 12.9157 45.0468 12.9455 44.8279 12.8052L44.5686 12.6391L44.6717 12.3299L44.9022 12.4965C44.9763 12.544 45.0404 12.5329 45.0879 12.4588L45.1979 12.287L44.7129 11.9763L44.359 12.5286L44.066 12.3409L44.4199 11.7885L43.945 11.4843L43.5868 12.0434L43.2837 11.8492L44.4488 10.0304L45.2235 10.5267C45.1598 10.3814 45.0848 10.2241 44.9942 10.0615L45.2994 10.0005ZM45.5234 10.4813C45.7102 10.5012 45.8933 10.5045 46.0706 10.4946L45.3162 10.0113C45.3924 10.1741 45.464 10.3293 45.5234 10.4813ZM44.2622 10.9892L44.1111 11.225L44.586 11.5292L44.7371 11.2934L44.2622 10.9892ZM45.0301 11.4812L44.8791 11.7169L45.3641 12.0276L45.5151 11.7919L45.0301 11.4812ZM45.6834 11.5292L45.8345 11.2934L45.3494 10.9827L45.1984 11.2184L45.6834 11.5292ZM44.9054 11.0307L45.0564 10.795L44.5815 10.4907L44.4305 10.7265L44.9054 11.0307Z" fill="white"/>
<path d="M49.9115 12.9476L48.2079 15.5614L47.8996 15.3604L48.0241 15.1694L47.4376 14.7872L47.311 14.9816L47.0027 14.7806L48.7085 12.1635L49.9115 12.9476ZM47.632 14.489L48.2185 14.8712L49.4089 13.0449L48.8224 12.6627L47.632 14.489ZM47.2456 11.7781C47.0593 11.8954 46.8717 11.9928 46.6862 12.0724L46.5238 11.7135C46.9436 11.5383 47.3183 11.3003 47.6447 10.9974L47.916 11.2697C47.7995 11.3752 47.6828 11.4663 47.5684 11.554L48.4832 12.1503L48.2844 12.4552L47.8287 12.1582C47.6866 12.3616 47.5498 12.5494 47.4139 12.7139L47.9367 13.0546L47.7379 13.3595L47.1716 12.9904C47.1102 13.0554 47.0454 13.1182 46.9883 13.1765C47.0573 13.5175 47.1143 13.8841 47.1628 14.2786L46.7762 14.4468C46.7607 14.0165 46.7371 13.6717 46.7056 13.4124C46.3355 13.6725 45.9032 13.8157 45.4041 13.8342L45.3624 13.4441C45.879 13.4132 46.3122 13.2467 46.6674 12.9435C46.7223 12.8886 46.7828 12.8325 46.8399 12.7742L46.1797 12.3439L46.3785 12.0389L47.0856 12.4998C47.2214 12.3353 47.3582 12.1475 47.5003 11.9441L47.2456 11.7781Z" fill="white"/>
<path d="M50.7984 13.024L50.5111 15.047L48.8193 16.1927L48.6242 15.9011L50.1854 14.8435L50.4507 12.9766L50.7984 13.024ZM51.3785 13.3863L51.0913 15.4093L49.3995 16.5551L49.2044 16.2634L50.7656 15.2059L51.0172 13.3304L51.3785 13.3863Z" fill="white"/>
</svg>
