<svg width="81" height="21" viewBox="0 0 81 21" fill="none" xmlns="http://www.w3.org/2000/svg">
<path d="M3.08427 10.4057L3.4496 10.3926L3.47945 12.2846L4.9058 13.5181L4.67779 13.7848L3.13213 12.4484L3.08427 10.4057ZM3.70293 10.114L4.05379 10.1077L4.09811 11.9929L5.52446 13.2263L5.29645 13.4931L3.75079 12.1567L3.70293 10.114Z" fill="white"/>
<path d="M5.42552 9.39042C5.64444 9.51362 5.86762 9.65678 6.09141 9.82146L5.91303 10.0337L6.67296 9.70498C6.7146 9.43854 6.72408 9.13808 6.70299 8.80726L7.08412 8.75134C7.10817 9.02857 7.09908 9.28964 7.06578 9.53504L7.76331 9.23328L7.90942 9.57103L6.71261 10.0888L6.76185 10.2026C6.83074 10.382 6.88226 10.5515 6.92168 10.7131L8.38281 10.081L8.52893 10.4187L7.24401 10.9746C7.61607 11.341 8.22585 11.4912 9.07494 11.429L9.01229 11.8483C8.10475 11.8661 7.43543 11.6589 6.99856 11.2333C7.00713 11.4345 6.99307 11.6236 6.95479 11.7971C6.84809 12.2355 6.55017 12.6651 6.06104 13.0859L5.73832 12.8637C6.22427 12.4356 6.50602 12.0391 6.58723 11.6728C6.61093 11.5361 6.61884 11.3932 6.61257 11.2478L5.35702 11.7909L5.21091 11.4532L6.56191 10.8687C6.52457 10.7018 6.47672 10.5308 6.40941 10.3551L6.36018 10.2413L5.1597 10.7606L5.01359 10.4228L5.79922 10.083C5.58596 9.92245 5.37647 9.79081 5.17283 9.68278L5.42552 9.39042Z" fill="white"/>
<path d="M8.64861 8.14533L11.4784 7.06771L11.6108 7.41535L10.4183 7.86946L10.7656 8.78156L12.2198 8.2278L12.355 8.58292L10.9009 9.13668L11.3863 10.4114C11.486 10.673 11.3989 10.8603 11.126 10.9642L10.5316 11.1906L10.3259 10.8751C10.5208 10.8137 10.7068 10.7515 10.8788 10.686C10.9984 10.6404 11.0369 10.5616 10.997 10.4569L10.5458 9.27192L9.02808 9.84988L8.89284 9.49476L10.4105 8.9168L10.0632 8.0047L8.781 8.49298L8.64861 8.14533Z" fill="white"/>
<path d="M15.5698 6.17752L16.5052 9.09945L16.1547 9.21165L16.0779 8.97165L15.476 9.16434L15.5528 9.40434L15.2061 9.51532L14.2707 6.5934L15.5698 6.17752ZM15.365 8.81767L15.9669 8.62498L15.3303 6.63639L14.7284 6.82908L15.365 8.81767ZM12.6853 6.52136L13.0434 6.40672L13.28 7.14577L14.0457 6.90064C14.4433 8.14255 14.6694 8.91437 14.7252 9.2199C14.7798 9.52162 14.6356 9.72736 14.3004 9.83468C14.2394 9.85419 14.138 9.87828 13.9972 9.91076L13.7996 9.6086C13.9328 9.57856 14.0457 9.55081 14.1371 9.52154C14.2971 9.47032 14.3631 9.3484 14.3337 9.16463C14.2992 8.97826 14.1204 8.38031 13.8036 7.36453L13.3922 7.49625C13.7242 8.61214 13.7364 9.50285 13.426 10.1734L13.0787 10.02C13.3552 9.42746 13.3408 8.62149 13.0341 7.61089L12.455 7.79626L12.3428 7.44578L12.9219 7.26041L12.6853 6.52136Z" fill="white"/>
<path d="M17.6133 5.64897L18.273 5.48395L18.1341 4.92905L18.4911 4.83974L18.63 5.39464L19.4565 5.18788L19.7477 6.35201L20.0116 6.286L20.1018 6.64688L19.124 6.8915C19.4781 7.31831 19.9342 7.62481 20.4988 7.80517L20.3233 8.15833C19.747 7.9314 19.2696 7.58901 18.8999 7.1331C18.8631 7.76079 18.6333 8.27597 18.2084 8.68737L17.9076 8.441C18.3121 8.08005 18.5245 7.61046 18.5458 7.03614L17.8396 7.21281L17.7493 6.85193L18.5292 6.65681C18.5118 6.48801 18.4807 6.31436 18.436 6.13586L18.3594 5.82931L17.6997 5.99433L17.6133 5.64897ZM18.7163 5.74L18.7727 5.96507C18.8251 6.17461 18.8591 6.37639 18.8824 6.56848L19.3907 6.44132L19.1859 5.62255L18.7163 5.74ZM16.3745 6.16915L16.6626 6.11769C16.7519 6.50767 16.8024 6.89087 16.8161 7.25855L16.4959 7.24793C16.4949 6.89771 16.4541 6.53682 16.3745 6.16915ZM17.3979 5.81005C17.5648 6.03218 17.7298 6.29604 17.8919 6.59773L17.6115 6.7462C17.4766 6.4707 17.3214 6.21267 17.1486 5.96725L17.3979 5.81005ZM16.5946 5.3183L16.9555 5.22803L17.8446 8.7825L17.4838 8.87277L16.5946 5.3183Z" fill="white"/>
<path d="M22.1608 5.0443L21.7238 5.12295L21.6593 4.76471L22.5451 4.60529C22.4546 4.41837 22.355 4.24932 22.2537 4.0928L22.6321 3.95966C22.7238 4.13013 22.8189 4.32027 22.923 4.53727L23.7537 4.38776L23.8182 4.74601L22.523 4.97912L22.5683 5.23107C22.5896 5.34917 22.6062 5.46405 22.6182 5.57569L23.7441 5.37305C23.8995 6.30425 23.9696 6.8972 23.9538 7.14797C23.9226 7.38118 23.7778 7.5251 23.5187 7.5758C23.3888 7.59919 23.2378 7.61824 23.0671 7.64083L22.902 7.33321C23.1056 7.31282 23.2763 7.29023 23.418 7.26472C23.5433 7.23811 23.6125 7.14843 23.621 6.99246C23.6123 6.83145 23.5518 6.42777 23.4442 5.78467L22.649 5.92779C22.6895 6.71711 22.5431 7.34903 22.2138 7.82285L21.8811 7.62262C22.2713 7.08094 22.3797 6.30548 22.2061 5.29626L22.1608 5.0443ZM21.9404 6.86819L22.0049 7.22643C21.6674 7.47413 21.2731 7.69954 20.8166 7.8955L20.702 7.53001C21.1868 7.33302 21.5983 7.11265 21.9404 6.86819ZM20.7557 4.30551L21.1355 4.38347C21.0269 4.88666 20.8988 5.30395 20.7512 5.63534C20.8901 5.59409 21.0322 5.54819 21.1743 5.50229C21.2218 5.35962 21.2679 5.20908 21.3164 5.04996L21.6737 5.11571C21.4547 5.7729 21.2585 6.26342 21.0883 6.5826C21.3322 6.46962 21.5764 6.33625 21.8164 6.17926L21.878 6.52175C21.469 6.77827 21.073 6.97147 20.6906 7.10532L20.5298 6.7766C20.5918 6.73699 20.6406 6.69164 20.68 6.63984C20.7865 6.48654 20.9036 6.23381 21.0359 5.88486L20.4603 6.07381L20.3034 5.74438C20.3582 5.71013 20.4048 5.65297 20.4393 5.57361C20.5763 5.18316 20.6833 4.76154 20.7557 4.30551Z" fill="white"/>
<path d="M25.8914 6.37235L25.9338 6.74193C25.5528 6.93057 25.113 7.09777 24.6228 7.2466L24.5283 6.87897C25.0508 6.73047 25.5065 6.56145 25.8914 6.37235ZM24.8525 3.63289L25.2301 3.7305C25.0839 4.24651 24.9268 4.66715 24.7593 4.99639C24.9124 4.96272 25.0651 4.92508 25.2174 4.88346C25.2835 4.72288 25.3558 4.54549 25.4306 4.35572L25.7835 4.44812C25.5128 5.10725 25.2756 5.6015 25.0713 5.9269C25.3193 5.84209 25.5649 5.73742 25.8128 5.61639L25.8501 5.94225C25.4282 6.15975 25.0241 6.32285 24.6371 6.42361L24.4932 6.08178C24.5611 6.04178 24.6126 5.99963 24.6553 5.95045C24.7679 5.8087 24.9018 5.5719 25.0579 5.24801C24.8589 5.30304 24.6554 5.35456 24.4445 5.41096L24.3055 5.07662C24.3658 5.04151 24.412 4.9879 24.4515 4.9109C24.6162 4.5216 24.7486 4.09574 24.8525 3.63289ZM25.7841 3.75151L27.636 3.53913L27.8584 5.47841L26.0065 5.6908L25.7841 3.75151ZM27.4443 5.16757L27.3034 3.93962L26.1947 4.06678L26.3355 5.29473L27.4443 5.16757ZM26.3718 5.82203L26.7199 5.94316C26.582 6.42601 26.4051 6.84893 26.185 7.21237L25.8367 7.0188C26.0595 6.6792 26.2392 6.28013 26.3718 5.82203ZM27.4647 5.69669C27.8005 6.09704 28.0623 6.4495 28.2543 6.75361L27.9579 7.01307C27.7588 6.68159 27.5 6.32073 27.1806 5.92254L27.4647 5.69669Z" fill="white"/>
<path d="M28.9281 4.6539L28.9634 5.23683L29.5224 5.20299L29.4871 4.62006L28.9281 4.6539ZM29.4666 4.28068L29.4308 3.68976L28.8718 3.7236L28.9076 4.31452L29.4666 4.28068ZM28.9762 5.58068C28.9811 6.12538 28.9126 6.58236 28.7704 6.94761L28.4672 6.70549C28.6059 6.34846 28.659 5.90044 28.6303 5.36118L28.5116 3.40077L29.7534 3.32561L29.9424 6.44789C29.9588 6.71939 29.8433 6.86264 29.5997 6.87738L29.2803 6.89672L29.1681 6.56689C29.2807 6.5721 29.381 6.57404 29.4768 6.56824C29.5606 6.56317 29.6002 6.48864 29.5918 6.3489L29.5432 5.54636L28.9762 5.58068ZM30.4895 5.09236L30.5758 6.51775C30.7766 6.39339 30.9436 6.23901 31.0812 6.06238C30.8317 5.78094 30.6517 5.45522 30.5414 5.08922L30.4895 5.09236ZM30.5765 6.52973L30.5948 6.83317L30.2395 6.85468L30.0249 3.30917L31.7058 3.20742C31.7372 3.72647 31.7341 4.07129 31.6965 4.24588C31.6588 4.41647 31.5121 4.5095 31.2566 4.52497L30.9212 4.54527L30.8021 4.2319C30.8659 4.22803 30.954 4.22671 31.0658 4.21994C31.1497 4.21486 31.2131 4.20301 31.2523 4.18862C31.2915 4.17422 31.3212 4.13635 31.3418 4.07901C31.3616 4.00968 31.3675 3.84102 31.3593 3.57303L30.401 3.63103L30.4692 4.75697L31.8187 4.67528L31.838 4.9947C31.7899 5.39033 31.6904 5.73297 31.5394 6.01861C31.7125 6.16442 31.9126 6.29256 32.1359 6.40728L31.9676 6.73805C31.7318 6.61608 31.523 6.47644 31.3454 6.32289C31.1928 6.51646 31.0063 6.68003 30.79 6.81334L30.5765 6.52973ZM30.8648 5.06964C30.9603 5.32433 31.0944 5.55265 31.2709 5.75435C31.3781 5.53948 31.4557 5.29835 31.5036 5.03097L30.8648 5.06964Z" fill="white"/>
<path d="M33.3979 3.01989L33.7818 3.01288L33.815 4.83258L33.4311 4.83958L33.4218 4.32767C33.1842 4.46402 32.9184 4.58889 32.6165 4.70642L32.4624 4.36917C32.8243 4.25055 33.1419 4.11674 33.4151 3.96373L33.3979 3.01989ZM33.9815 3.43331L34.7934 3.4185L34.7855 2.98257L35.1654 2.97564L35.1733 3.41157L35.9812 3.39683L35.9874 3.73678L35.1795 3.75151L35.1888 4.25943L35.8847 4.24673L35.8909 4.58668L34.1272 4.61885L34.121 4.27891L34.8089 4.26636L34.7996 3.75844L33.9877 3.77325L33.9815 3.43331ZM32.7048 3.18456C32.9306 3.28445 33.1409 3.40464 33.3275 3.54926L33.145 3.84864C32.9341 3.69246 32.7238 3.56827 32.5102 3.48415L32.7048 3.18456ZM32.4785 5.03299L34.1382 5.00271C34.0887 4.9196 34.0312 4.84064 33.9698 4.76574L34.3157 4.64342C34.3976 4.74994 34.4718 4.86861 34.5381 4.99542L36.0459 4.96791L36.0521 5.31186L34.6164 5.33805C34.7274 5.50405 34.8582 5.65369 35.0086 5.78697C35.2141 5.6472 35.3873 5.49201 35.5323 5.32534L35.8046 5.55641C35.6555 5.71916 35.4781 5.86242 35.2804 5.99005C35.5192 6.14172 35.7974 6.26066 36.111 6.34695L35.8971 6.67891C35.1606 6.44031 34.6165 6.00216 34.2688 5.36439C34.1118 5.53128 33.9186 5.68683 33.6892 5.83104L33.6977 6.29496C33.9845 6.22572 34.2551 6.14877 34.5055 6.06019L34.5717 6.39504C34.2136 6.50559 33.7835 6.61345 33.2773 6.7187L33.1954 6.39614C33.2987 6.35425 33.3495 6.28931 33.3481 6.20933L33.3446 6.02136C33.1384 6.12113 32.9161 6.21321 32.6776 6.29757L32.4757 5.9772C33.0967 5.80584 33.5569 5.59741 33.8645 5.35176L32.4847 5.37693L32.4785 5.03299Z" fill="white"/>
<path d="M38.3624 2.94423C38.4168 3.07291 38.467 3.21755 38.521 3.37823L39.9089 3.39545L39.9044 3.75542L39.2325 3.74708C39.1902 3.92657 39.1321 4.10186 39.058 4.26896L39.9819 4.28042L39.9773 4.64839L37.1376 4.61316L37.1309 5.15312C37.1071 5.77688 36.9609 6.2791 36.6842 6.6557L36.3954 6.39609C36.6151 6.0948 36.7323 5.68022 36.7469 5.14836L36.7582 4.24043L37.5661 4.25045L37.4326 3.72476L36.7207 3.71592L36.7251 3.35595L38.133 3.37342C38.0827 3.24078 38.0242 3.11605 37.9616 3.00326L38.3624 2.94423ZM37.9421 4.25512L38.694 4.26444C38.7681 4.09735 38.8263 3.92206 38.8685 3.74257L37.8046 3.72937L37.9421 4.25512Z" fill="white"/>
<path d="M41.8134 3.10027L42.1931 3.11578L42.0647 6.25716L42.5443 6.27675L42.6727 3.13538L43.0524 3.15089L42.924 6.29227L44.091 6.33995L44.0759 6.71164L40.5108 6.56598L40.526 6.19429L41.685 6.24165L41.8134 3.10027ZM43.7694 3.9248L44.1012 4.03444C43.9212 4.71566 43.7009 5.30716 43.44 5.81293L43.1052 5.67915C43.348 5.22468 43.5721 4.63734 43.7694 3.9248ZM41.028 3.80479C41.2099 4.34867 41.3648 4.96751 41.4966 5.66147L41.1453 5.73519C41.035 5.10216 40.884 4.48748 40.7 3.89548L41.028 3.80479Z" fill="white"/>
<path d="M46.5483 3.32525C46.5758 3.42793 46.6026 3.53857 46.6283 3.66118L48.1788 3.79222L48.1491 4.14297L44.6058 3.8435L44.6354 3.49275L46.2178 3.62648C46.1897 3.53178 46.1569 3.44471 46.1198 3.36129L46.5483 3.32525ZM47.2488 7.10166L46.918 7.0737L46.8589 6.72749L47.1645 6.76937C47.3119 6.78184 47.3924 6.73244 47.4011 6.62881L47.4864 5.6204L45.0152 5.41155L44.8882 6.91419L44.5295 6.88387L44.6841 5.05439L47.8727 5.32389L47.7531 6.73884C47.7306 7.00589 47.5597 7.12793 47.2488 7.10166ZM45.2157 4.08372L47.5155 4.27809L47.4454 5.10713L45.1456 4.91276L45.2157 4.08372ZM47.107 4.7895L47.1286 4.53441L45.5542 4.40135L45.5326 4.65644L47.107 4.7895ZM45.4255 5.63891L47.0477 5.77601L46.977 6.61303L45.3547 6.47592L45.4255 5.63891ZM46.6657 6.30573L46.6893 6.02672L45.7407 5.94655L45.7171 6.22555L46.6657 6.30573Z" fill="white"/>
<path d="M49.3809 4.86064L49.3406 5.16197C49.2022 6.04742 48.9374 6.73038 48.5413 7.21822L48.3167 6.90572C48.6298 6.49557 48.8512 5.89561 48.9798 5.11376L49.1483 3.85296C50.2124 3.98303 51.1711 4.02638 52.0244 3.98299L52.1657 4.3449C51.3548 4.37375 50.4521 4.33386 49.4667 4.21835L49.4275 4.51174L50.6725 4.67808C50.7026 4.57315 50.7283 4.47165 50.7539 4.37016L51.1242 4.46806C51.1041 4.55819 51.0806 4.64382 51.057 4.72946L52.2703 4.89155L52.2236 5.24045L50.9509 5.07041C50.9139 5.16635 50.8814 5.25886 50.8449 5.35084L51.848 5.48485L51.6631 6.86856L51.3023 6.82035L51.4406 5.78555L49.9617 5.58796L49.8229 6.62673L49.4621 6.57853L49.6475 5.19086L50.4643 5.29998C50.5013 5.20404 50.5338 5.11154 50.5664 5.01903L49.3809 4.86064ZM50.8345 6.63679C51.25 6.84968 51.617 7.09243 51.9442 7.36213L51.6946 7.6597C51.3484 7.35114 50.9869 7.09702 50.6066 6.89286L50.8345 6.63679ZM50.5831 5.80012L50.9447 5.87264C50.8346 6.33413 50.6436 6.67585 50.365 6.88883C50.0858 7.10577 49.6787 7.25315 49.1482 7.32755L48.9926 6.95163C49.4673 6.90207 49.8289 6.793 50.074 6.61993C50.3196 6.4429 50.4891 6.17095 50.5831 5.80012Z" fill="white"/>
<path d="M53.0276 5.83743L55.8275 6.35848L55.6373 7.38093L54.4143 7.15333L54.3821 7.32636L55.6837 7.56859L55.6391 7.80847L54.3374 7.56624L54.303 7.75107L55.8918 8.04672L55.8391 8.32986L52.2998 7.67123L52.3525 7.38809L53.9334 7.68228L53.9678 7.49745L52.6818 7.25815L52.7265 7.01827L54.0124 7.25757L54.0446 7.08454L52.8373 6.85988L53.0276 5.83743ZM55.3243 7.09484L55.3595 6.90608L54.4904 6.74435L54.4552 6.93311L55.3243 7.09484ZM54.0856 6.86432L54.1207 6.67556L53.2674 6.51676L53.2322 6.70552L54.0856 6.86432ZM53.3054 6.31227L54.1588 6.47108L54.1939 6.28232L53.3406 6.12351L53.3054 6.31227ZM54.5636 6.35111L54.5284 6.53987L55.3975 6.7016L55.4326 6.51284L54.5636 6.35111ZM53.4105 4.26087L56.0413 4.75045L55.8555 5.74931L53.2246 5.25973L53.4105 4.26087ZM55.5371 5.47036L55.5708 5.28946L53.6557 4.93307L53.622 5.11397L55.5371 5.47036ZM53.6952 4.72072L55.6103 5.07711L55.6432 4.90015L53.7281 4.54375L53.6952 4.72072ZM52.7338 5.33927L56.273 5.9979L56.2233 6.26531L52.684 5.60668L52.7338 5.33927Z" fill="white"/>
<path d="M56.9534 6.18903L57.5343 5.12761L57.8887 5.27888L57.5131 5.94953L58.0886 6.08826C58.2318 5.81831 58.3633 5.52906 58.4868 5.22144L58.8528 5.35903C58.732 5.65498 58.6044 5.92868 58.4736 6.18106L60.2546 6.61037L60.1693 6.96423L58.2949 6.51242C58.2251 6.63137 58.1533 6.74161 58.0863 6.8489L59.6417 7.22384L59.5667 7.53493C59.3888 7.82943 59.1289 8.07125 58.7792 8.25854C59.0354 8.4931 59.3566 8.73099 59.7389 8.97128L59.464 9.27532C59.0348 8.9908 58.684 8.70465 58.4139 8.42558C58.0552 8.5654 57.6311 8.66891 57.1417 8.7361L57.0317 8.33926C57.4543 8.293 57.8262 8.21807 58.1426 8.11741C57.9386 7.85428 57.8005 7.59058 57.7314 7.33116C57.3127 7.83918 56.8482 8.21274 56.3419 8.45277L56.2338 8.06464C56.8848 7.71958 57.4409 7.17062 57.9022 6.41775L56.9534 6.18903ZM58.0484 7.19363C58.1215 7.45399 58.2721 7.71661 58.5013 7.97759C58.7941 7.83832 59.0246 7.66757 59.1878 7.46827L58.0484 7.19363ZM59.5164 5.47373C59.7359 5.74062 59.9118 6.00108 60.0449 6.25123L59.7167 6.45192C59.6099 6.21221 59.4428 5.94974 59.2084 5.65872L59.5164 5.47373Z" fill="white"/>
<path d="M61.2604 7.48971L61.7898 7.64611L61.8804 7.33922L61.2398 7.14996L61.1537 7.44151C61.0857 7.67167 61.0046 7.88963 60.9204 8.08998L61.5994 8.29057L61.6946 7.96834L61.1652 7.81195L61.2604 7.48971ZM60.7769 8.40629C60.5805 8.80289 60.3494 9.14753 60.0847 9.43638L59.8675 9.08442C60.252 8.67247 60.5572 8.09112 60.7854 7.33271L61.1662 6.04378L64.1008 6.91074L63.8062 7.90813L63.273 7.7506L63.1823 8.05749L63.7577 8.22748L63.6625 8.54971L63.0871 8.37972L62.9919 8.70195L63.6977 8.91048L63.6003 9.24038L63.2167 9.12705L63.3746 9.41144C63.2126 9.52208 63.047 9.60247 62.8817 9.65374C63.0445 9.82278 63.2432 9.96907 63.4816 10.0937L63.207 10.388C62.5698 10.0037 62.1932 9.47119 62.0735 8.78934L61.5978 8.64881L61.3825 9.37767C61.6297 9.38812 61.8523 9.38297 62.0464 9.36109L62.0169 9.71523C61.6744 9.73084 61.2789 9.71411 60.8305 9.66504L60.8248 9.31718C60.9535 9.30514 61.0348 9.24158 61.0711 9.11883L61.2411 8.54341L60.7769 8.40629ZM62.4418 8.89813C62.4919 9.06727 62.5631 9.22175 62.6541 9.36543C62.8259 9.32026 62.9964 9.23717 63.1668 9.11232L62.4418 8.89813ZM62.92 7.64634L62.2295 7.44235L62.1389 7.74924L62.8294 7.95323L62.92 7.64634ZM61.9485 8.3937L62.639 8.59769L62.7342 8.27546L62.0437 8.07147L61.9485 8.3937ZM63.634 7.13569L61.4359 6.48632L61.3361 6.82389L63.5342 7.47326L63.634 7.13569Z" fill="white"/>
<path d="M65.9943 8.10409L65.0764 10.7324L64.7328 10.6124L64.8014 10.416L64.2047 10.2077L64.0979 10.5136L63.7542 10.3936L64.7103 7.6557L65.0691 7.78099C65.2083 7.6008 65.3337 7.41157 65.4404 7.20309L65.782 7.37746C65.6717 7.57197 65.5478 7.74479 65.4127 7.901L65.9943 8.10409ZM64.3208 9.87536L64.9174 10.0837L65.1772 9.33979L64.5806 9.13142L64.3208 9.87536ZM64.6927 8.81043L65.2893 9.0188L65.532 8.32395L64.9353 8.11558L64.6927 8.81043ZM66.3575 9.24779C66.4986 9.64449 66.5976 9.97987 66.648 10.2602L66.2949 10.3614C66.2384 10.062 66.1383 9.71779 66.0035 9.32751L66.3575 9.24779ZM67.9416 8.78835C67.4866 10.0912 67.1868 10.889 67.0436 11.1779C66.9109 11.4366 66.6821 11.5092 66.3611 11.3971C66.2856 11.3708 66.1523 11.3157 65.9674 11.2385L65.9953 10.8796C66.1588 10.9452 66.2997 11.0028 66.4205 11.045C66.5716 11.0978 66.6861 11.0488 66.7642 10.8981C66.8528 10.7172 67.0857 10.0867 67.4691 9.01313L66.5212 8.68212C66.3363 8.87177 66.143 9.03727 65.9335 9.17597L65.8172 8.81758C66.193 8.54209 66.521 8.16092 66.7936 7.67143L67.1328 7.84071C67.0212 8.039 66.8997 8.21691 66.7747 8.38085L67.9416 8.78835Z" fill="white"/>
<path d="M69.2787 9.17222L68.6991 8.94101L68.8177 8.64379L70.0437 9.13289C70.0392 9.05787 70.0332 8.98657 70.0242 8.9227L70.4306 9.01592C70.4322 9.09836 70.4345 9.18972 70.4301 9.28703L71.7156 9.79985L71.5971 10.0971L71.0063 9.86141L70.8097 10.0413L71.6827 10.3896L71.5612 10.6943L68.3141 9.39892L68.4356 9.09427L69.279 9.43071L69.2787 9.17222ZM69.6468 9.57744L70.4418 9.89462L70.6385 9.71468L69.6465 9.31895L69.6468 9.57744ZM68.6382 9.70911L71.1126 10.6962L70.6502 11.8554L68.1758 10.8683L68.6382 9.70911ZM70.4113 11.45L70.4855 11.2643L68.7021 10.5528L68.628 10.7386L70.4113 11.45ZM68.8029 10.3002L70.5862 11.0116L70.6589 10.8296L68.8755 10.1182L68.8029 10.3002ZM67.9768 10.9568L68.2904 11.1638C68.0879 11.4232 67.8682 11.6284 67.6299 11.7831L67.4009 11.4721C67.6295 11.3308 67.818 11.1605 67.9768 10.9568ZM69.524 12.5947L68.6175 12.2331C68.3314 12.119 68.2421 11.9326 68.3429 11.68L68.5326 11.2044L68.8893 11.3467L68.7292 11.748C68.6922 11.8408 68.7286 11.9114 68.8438 11.9573L69.5831 12.2523C69.65 12.2789 69.7042 12.2833 69.7406 12.2677C69.7911 12.2491 69.8557 12.1629 69.9357 12.0053L70.2271 12.2465C70.0937 12.4947 69.9779 12.6337 69.8754 12.6531C69.7871 12.6695 69.6689 12.6525 69.524 12.5947ZM69.4962 11.4123C69.5855 11.6201 69.6451 11.7946 69.6772 11.9409L69.3022 12.0282C69.2656 11.8715 69.2053 11.6881 69.1197 11.4817L69.4962 11.4123ZM70.6242 11.9527C70.7322 12.2757 70.8038 12.5497 70.8404 12.771L70.4654 12.8583C70.4302 12.6117 70.3654 12.3318 70.267 12.0169L70.6242 11.9527Z" fill="white"/>
<path d="M75.1528 11.2225L74.2474 13.267L73.8963 13.1115L74.6511 11.4072L73.1223 10.7301L72.3659 12.4381L72.0148 12.2826L72.9218 10.2345L75.1528 11.2225ZM73.5969 11.1896L73.9406 11.3419L73.6378 12.0258C73.543 12.2201 73.4417 12.3896 73.3306 12.5416L73.6415 12.6793L73.2592 13.5424C73.1993 13.6778 73.216 13.7683 73.3111 13.8104L73.8451 14.0469C73.889 14.0663 73.941 14.0675 73.9921 14.0508C74.0486 14.032 74.1459 13.8914 74.2804 13.6272L74.5646 13.8843C74.3672 14.2213 74.2237 14.4071 74.1324 14.4454C74.0333 14.4715 73.92 14.4607 73.7924 14.4129L73.0719 14.0938C72.8086 13.9772 72.7465 13.7616 72.8842 13.4507L73.2308 12.6681C73.0544 12.8787 72.865 13.0398 72.6556 13.157C72.2781 13.3573 71.7831 13.4181 71.1673 13.3466L71.1104 12.9714C71.7262 13.0429 72.1911 12.9907 72.5016 12.8132C72.8149 12.6195 73.076 12.3064 73.294 11.8736L73.5969 11.1896Z" fill="white"/>
<path d="M76.6524 11.7174L76.5912 13.7598L75.0368 15.086L74.8105 14.8178L76.2449 13.5937L76.3016 11.7089L76.6524 11.7174ZM77.2692 12.0132L77.2079 14.0556L75.6535 15.3818L75.4273 15.1136L76.8617 13.8895L76.9039 11.9978L77.2692 12.0132Z" fill="white"/>
</svg>
