<svg width="119" height="33" viewBox="0 0 119 33" fill="none" xmlns="http://www.w3.org/2000/svg">
<path d="M2.93754 26.143L3.28595 26.0324L3.82245 27.847L5.52749 28.6524L5.37943 28.9706L3.53183 28.098L2.93754 26.143ZM3.45521 25.696L3.79152 25.5958L4.34012 27.3999L6.04517 28.2053L5.8971 28.5235L4.0495 27.6509L3.45521 25.696Z" fill="white"/>
<path d="M4.87326 24.5436C5.11847 24.5982 5.37355 24.6706 5.63543 24.7634L5.52615 25.0182L6.15834 24.4835C6.12105 24.2165 6.04312 23.9261 5.92715 23.6156L6.27576 23.4517C6.37906 23.7101 6.44595 23.9626 6.48513 24.2071L7.0654 23.7163L7.30305 23.9973L6.30743 24.8394L6.38751 24.9341C6.50539 25.0859 6.60378 25.2331 6.68831 25.3764L7.90382 24.3483L8.14148 24.6293L7.07256 25.5334C7.53477 25.7764 8.16192 25.7436 8.95661 25.4382L9.01807 25.8577C8.15456 26.1375 7.45389 26.1329 6.91253 25.8521C6.97897 26.0422 7.02027 26.2273 7.03386 26.4044C7.05867 26.8549 6.89791 27.3524 6.55157 27.8968L6.17836 27.7776C6.51953 27.2271 6.67441 26.766 6.64606 26.3919C6.62918 26.2542 6.59538 26.1152 6.54726 25.9777L5.50277 26.8612L5.26512 26.5802L6.38901 25.6296C6.30495 25.4807 6.20962 25.3308 6.09432 25.1821L6.01424 25.0874L5.01556 25.9321L4.77791 25.6511L5.43148 25.0983C5.18087 25.0064 4.94224 24.9411 4.71605 24.8966L4.87326 24.5436Z" fill="white"/>
<path d="M7.33302 22.6201L9.67673 20.7029L9.91227 20.9908L8.92463 21.7987L9.5426 22.5542L10.747 21.569L10.9876 21.8631L9.7832 22.8483L10.6468 23.9041C10.8241 24.1208 10.8008 24.326 10.5747 24.5108L10.0825 24.9135L9.78754 24.6794C9.95304 24.5595 10.1098 24.4416 10.2522 24.3251C10.3513 24.244 10.3629 24.1571 10.2919 24.0704L9.48908 23.0889L8.23208 24.1172L7.99148 23.8231L9.24847 22.7948L8.6305 22.0394L7.56856 22.9081L7.33302 22.6201Z" fill="white"/>
<path d="M11.8177 21.0911L12.4717 21.9303C12.6862 21.6719 12.909 21.3917 13.129 21.0884L13.4218 21.3014C13.1174 21.7111 12.7911 22.1124 12.4487 22.506L12.1346 22.3502C12.1784 22.2502 12.1695 22.1607 12.108 22.0819L10.6156 20.1667C10.9608 19.7963 11.2565 19.434 11.5003 19.0766L11.8734 19.1713C11.6639 19.4816 11.4035 19.8113 11.0948 20.1635L11.5939 20.804L12.4647 20.1253L12.6885 20.4124L11.8177 21.0911ZM14.6245 20.6583L14.328 20.8894L14.0197 20.6631L14.3054 20.4505C14.3875 20.3866 14.3916 20.3073 14.3228 20.219L13.0491 18.5847L12.4276 19.069L14.3602 21.5489L14.0573 21.785L11.9034 19.0211L13.1307 18.0647L14.6748 20.046C14.8592 20.2827 14.8422 20.4886 14.6245 20.6583Z" fill="white"/>
<path d="M14.4507 18.4341L14.0162 17.3048L14.3607 17.1321L14.6297 17.8522L15.1075 17.5026C14.9941 17.2189 14.8583 16.9316 14.7034 16.6385L15.0449 16.4482C15.1927 16.7316 15.3191 17.0059 15.4271 17.2689L16.9058 16.1873L17.1207 16.4811L15.5646 17.6193C15.6102 17.7495 15.6479 17.8755 15.6865 17.996L16.9778 17.0514L17.1668 17.3097C17.2765 17.6358 17.293 17.9904 17.21 18.3783C17.5545 18.3344 17.9437 18.243 18.3741 18.1066L18.4285 18.5129C17.9339 18.6566 17.4889 18.7392 17.1013 18.765C16.9762 19.1291 16.7811 19.5196 16.5161 19.9365L16.1421 19.764C16.38 19.4116 16.5631 19.0794 16.6908 18.7729C16.3582 18.7585 16.0677 18.6934 15.8251 18.5785C15.9421 19.2264 15.927 19.8222 15.7829 20.3637L15.4169 20.1953C15.5743 19.4756 15.5149 18.6964 15.2385 17.8578L14.4507 18.4341ZM15.9251 18.2477C16.1709 18.3602 16.4687 18.415 16.816 18.4088C16.8989 18.0953 16.9176 17.8091 16.871 17.5558L15.9251 18.2477ZM15.5613 16.016C15.9069 16.0209 16.2193 16.055 16.4962 16.1152L16.4373 16.4953C16.1853 16.4219 15.877 16.3798 15.5035 16.3705L15.5613 16.016Z" fill="white"/>
<path d="M19.441 13.3122L19.7868 13.2523L20.1189 15.1086L21.7171 16.1093L21.5326 16.4078L19.8007 15.3235L19.441 13.3122Z" fill="white"/>
<path d="M23.1823 11.8232L23.5063 11.6246L25.0306 14.1104L24.7067 14.309L24.5833 14.1079L22.4794 15.398L22.6007 15.5958L22.2767 15.7945L20.744 13.295L21.0679 13.0963L22.2891 15.0877L23.1791 14.542L21.6234 12.005L21.9507 11.8042L23.5065 14.3412L24.393 13.7976L23.1823 11.8232Z" fill="white"/>
<path d="M24.0344 11.0352L24.8982 10.5639C24.8831 10.3944 24.8608 10.2198 24.8365 10.0417L25.2103 9.9334C25.2282 10.0831 25.2477 10.2274 25.2598 10.3666L27.0085 9.41255L27.1848 9.73559L25.2851 10.772C25.3004 11.1509 25.2791 11.5043 25.228 11.8284L26.0497 11.3801L25.7873 10.899L26.1208 10.717L26.3833 11.1981L27.4683 10.6061L27.6388 10.9186L26.5538 11.5106L27.1304 12.5675C27.2588 12.8028 27.201 12.9892 26.9552 13.1233L26.5901 13.3226L26.3381 13.0362C26.4582 12.989 26.5709 12.9366 26.6727 12.8811C26.771 12.8274 26.7988 12.753 26.7528 12.6688L26.2202 11.6926L25.0474 12.3325L24.8073 12.0761C24.889 11.7582 24.9276 11.3863 24.9199 10.9713L24.2106 11.3582L24.0344 11.0352ZM25.66 12.2944L26.0029 12.3716C25.9467 12.8032 25.8153 13.2304 25.6135 13.6457L25.248 13.4852C25.4561 13.0983 25.594 12.6995 25.66 12.2944ZM27.2484 11.4141C27.703 11.5124 28.1101 11.6321 28.4664 11.784L28.3563 12.1585C28.0338 12.0018 27.6316 11.8658 27.1441 11.749L27.2484 11.4141Z" fill="white"/>
<path d="M28.7925 8.03021L29.1286 7.87084L29.5656 8.79249L29.2295 8.95186L28.7925 8.03021ZM28.7573 10.0567C28.6137 10.1646 28.4701 10.2725 28.3247 10.3769L28.0364 10.1329C29.0457 9.44185 29.754 8.76959 30.1577 8.1178C29.9938 8.08038 29.8228 8.04639 29.6445 8.01582L29.7713 7.68567C30.2616 7.7675 30.6977 7.87503 31.0707 8.00807L30.9469 8.36333C30.8086 8.30497 30.6594 8.25176 30.4958 8.20539C30.2786 8.57838 29.9846 8.94797 29.6119 9.3195L30.8913 8.71286L31.8218 10.6754L31.4857 10.8348L31.4206 10.6975L29.8267 11.4532L29.8952 11.5978L29.5627 11.7554L28.7573 10.0567ZM29.6827 11.1496L31.2766 10.3939L31.1618 10.1517L29.5679 10.9074L29.6827 11.1496ZM29.4377 10.6327L31.0316 9.87702L30.9271 9.65654L29.3331 10.4123L29.4377 10.6327ZM29.2046 10.1412L30.7985 9.38547L30.6906 9.15777L29.0967 9.91349L29.2046 10.1412ZM28.3227 8.50527L28.666 8.6037C28.5779 8.96865 28.4237 9.32506 28.2018 9.66933L27.8813 9.50696C28.0886 9.17849 28.2369 8.84701 28.3227 8.50527Z" fill="white"/>
<path d="M34.3668 6.25363L35.5132 9.09938L35.1719 9.23689L35.0777 9.00315L34.4915 9.23931L34.5857 9.47306L34.248 9.60908L33.1016 6.76334L34.3668 6.25363ZM34.3555 8.90168L34.9417 8.66552L34.1614 6.72878L33.5752 6.96495L34.3555 8.90168ZM31.5151 6.80737L31.8639 6.66686L32.1538 7.38664L32.8996 7.0862C33.3869 8.29574 33.6688 9.04897 33.7467 9.3496C33.8232 9.64652 33.6945 9.86225 33.368 9.99379C33.3087 10.0177 33.2092 10.0491 33.0712 10.0918L32.8521 9.80491C32.9827 9.76522 33.0933 9.72929 33.1823 9.69342C33.3382 9.63064 33.3951 9.50423 33.3523 9.32309C33.3043 9.13974 33.0822 8.55646 32.692 7.56655L32.2913 7.72799C32.7041 8.81663 32.7813 9.70406 32.5208 10.3955L32.1632 10.2679C32.3956 9.65674 32.3224 8.85397 31.9426 7.86849L31.3786 8.09569L31.2411 7.75435L31.8051 7.52715L31.5151 6.80737Z" fill="white"/>
<path d="M36.462 5.54448L37.1082 5.33271L36.9301 4.78916L37.2798 4.67456L37.4579 5.21811L38.2675 4.95278L38.6412 6.09311L38.8997 6.0084L39.0156 6.3619L38.0577 6.67581C38.4415 7.07621 38.9182 7.34932 39.4943 7.48885L39.3445 7.85365C38.7534 7.66851 38.2528 7.36113 37.8515 6.93282C37.8597 7.56153 37.6672 8.09182 37.2729 8.53255L36.9552 8.30831C37.3329 7.91936 37.5112 7.4358 37.4913 6.86142L36.7995 7.08814L36.6837 6.73463L37.4477 6.48425C37.4182 6.31713 37.3748 6.14615 37.3175 5.9713L37.2191 5.67101L36.5729 5.88278L36.462 5.54448ZM37.5688 5.55641L37.641 5.77687C37.7083 5.98213 37.7566 6.18097 37.7936 6.3709L38.2915 6.20771L38.0287 5.40568L37.5688 5.55641ZM35.2636 6.1519L35.5473 6.07997C35.6643 6.46257 35.742 6.84118 35.7819 7.20695L35.4618 7.21924C35.4358 6.86999 35.3693 6.51294 35.2636 6.1519ZM36.2587 5.72054C36.4411 5.93018 36.6245 6.18156 36.8077 6.47089L36.5387 6.63903C36.3844 6.37388 36.2111 6.12761 36.0213 5.89516L36.2587 5.72054ZM35.4223 5.28749L35.7758 5.17165L36.9168 8.65344L36.5633 8.76929L35.4223 5.28749Z" fill="white"/>
<path d="M40.6661 4.36485L39.3677 4.69601L39.2777 4.3433L42.2506 3.5851L42.3405 3.93781L41.0382 4.26995L41.6392 6.62652L43.1857 6.23209L43.2767 6.58868L39.8077 7.47341L39.7168 7.11683L41.2672 6.72142L40.6661 4.36485Z" fill="white"/>
<path d="M44.0722 2.95963L44.4458 2.89026L45.0197 5.98144L45.4916 5.89382L44.9177 2.80264L45.2913 2.73328L45.8653 5.82445L47.0136 5.61125L47.0815 5.977L43.5735 6.6283L43.5056 6.26255L44.6461 6.0508L44.0722 2.95963ZM46.1626 3.32824L46.5105 3.36129C46.4866 4.06548 46.4034 4.69117 46.2617 5.24231L45.9055 5.18639C46.041 4.6893 46.1288 4.06681 46.1626 3.32824ZM43.4632 3.82126C43.7616 4.31102 44.0503 4.87988 44.3332 5.52711L44.0071 5.67716C43.7588 5.08453 43.4748 4.51888 43.1637 3.98266L43.4632 3.82126Z" fill="white"/>
<path d="M47.3325 2.42211C47.6096 2.58222 47.8435 2.75155 48.0411 2.9212L47.8144 3.21431C47.6411 3.04577 47.4028 2.87295 47.104 2.69934L47.3325 2.42211ZM46.9601 3.61502L47.8497 3.5082L48.0514 5.18813C48.1621 5.07009 48.2789 4.93521 48.4057 4.78301L48.5566 5.16776C48.3271 5.43705 48.0788 5.68441 47.8113 5.90588L47.6273 5.5815C47.6842 5.51827 47.7113 5.44249 47.7013 5.35909L47.5277 3.91348L47.0035 3.97643L46.9601 3.61502ZM48.4347 3.91738L50.3608 3.68609L50.4023 4.03161C50.3296 4.3989 50.1752 4.72362 49.9396 5.00974C50.2138 5.14603 50.5417 5.25974 50.9144 5.34391L50.751 5.69389C50.3348 5.58272 49.9832 5.43962 49.6893 5.27347C49.4062 5.53307 49.0424 5.75805 48.6059 5.94744L48.3573 5.655C48.7635 5.48133 49.0983 5.284 49.3614 5.05904C49.0598 4.82935 48.8384 4.56184 48.7049 4.25557L48.4785 4.28275L48.4347 3.91738ZM49.0584 4.21313C49.1788 4.44442 49.3599 4.64425 49.6062 4.81612C49.7973 4.59577 49.9378 4.35731 50.0234 4.09724L49.0584 4.21313ZM48.5286 2.35101L49.9345 2.18219L50.0346 3.0162C50.0451 3.10357 50.0985 3.14551 50.1978 3.13358L50.5473 3.09162L50.5888 3.43714L50.14 3.49102C49.858 3.52488 49.7028 3.40654 49.6713 3.14443L49.6036 2.58048L48.9443 2.65964L48.9587 2.77879C49.0083 3.19182 48.8364 3.53878 48.4466 3.81523L48.1616 3.55536C48.477 3.36438 48.6225 3.13339 48.5901 2.86333L48.5286 2.35101Z" fill="white"/>
<path d="M52.5084 3.01652L53.5548 2.95922L53.4908 1.78897L53.8822 1.76754L53.9463 2.93779L54.9368 2.88355L54.9573 3.25899L53.9668 3.31322L54.0847 5.466L53.6933 5.48743L53.5754 3.33466L52.529 3.39196L52.5084 3.01652ZM51.7194 1.92202C51.9897 2.10351 52.2201 2.28719 52.4108 2.47705L52.1656 2.75487C51.9956 2.5759 51.7649 2.38823 51.47 2.19607L51.7194 1.92202ZM51.2556 3.10916L52.1782 3.05864L52.2714 4.76009C52.3935 4.64924 52.5187 4.52221 52.6513 4.38275L52.7724 4.7647C52.5299 5.01834 52.2661 5.24911 51.9848 5.45279L51.8225 5.12117C51.8873 5.06154 51.9195 4.99167 51.9151 4.91179L51.8347 3.44199L51.2755 3.47261L51.2556 3.10916Z" fill="white"/>
<path d="M57.2527 1.6519C57.3088 1.77985 57.3609 1.92381 57.417 2.08377L58.805 2.08272L58.8053 2.44272L58.1333 2.44323C58.0934 2.62326 58.0376 2.7993 57.9657 2.96736L58.8897 2.96666L58.89 3.33466L56.05 3.3368L56.0504 3.8768C56.0349 4.50082 55.8952 5.00492 55.6235 5.38513L55.3313 5.12935C55.5471 4.82518 55.6588 4.4091 55.6664 3.87709L55.6657 2.96909L56.4737 2.96848L56.3333 2.44459L55.6213 2.44513L55.621 2.08513L57.029 2.08406C56.9769 1.9521 56.9168 1.82815 56.8528 1.7162L57.2527 1.6519ZM56.8497 2.9682L57.6017 2.96763C57.6736 2.79958 57.7294 2.62354 57.7693 2.44351L56.7053 2.44431L56.8497 2.9682Z" fill="white"/>
<path d="M60.599 1.79771L60.9785 1.81687L60.82 4.95687L61.2994 4.98107L61.4579 1.84107L61.8375 1.86023L61.6789 5.00023L62.8455 5.05911L62.8267 5.43064L59.2632 5.25076L59.282 4.87923L60.4405 4.93771L60.599 1.79771ZM62.547 2.64099L62.8777 2.75381C62.6912 3.43327 62.4652 4.02263 62.1995 4.52587L61.866 4.38888C62.1131 3.93676 62.3429 3.35161 62.547 2.64099ZM59.8069 2.49466C59.9836 3.04026 60.1325 3.66056 60.2576 4.35575L59.9056 4.4261C59.8015 3.79204 59.6563 3.17594 59.4781 2.58219L59.8069 2.49466Z" fill="white"/>
<path d="M65.5624 2.09995C65.5883 2.20303 65.6134 2.31406 65.6373 2.43704L67.1857 2.5913L67.1508 2.94157L63.6123 2.58903L63.6472 2.23876L65.2274 2.3962C65.2007 2.30108 65.1692 2.21353 65.1333 2.12956L65.5624 2.09995ZM66.2062 5.88643L65.8758 5.85351L65.8219 5.50646L66.1268 5.55292C66.2741 5.56759 66.3553 5.5194 66.3656 5.41592L66.4659 4.4089L63.9981 4.16304L63.8486 5.66361L63.4904 5.62792L63.6724 3.80096L66.8567 4.11821L66.7159 5.53121C66.6893 5.79789 66.5166 5.91736 66.2062 5.88643ZM64.2186 2.83836L66.5152 3.06717L66.4327 3.89508L64.1361 3.66626L64.2186 2.83836ZM66.099 3.57241L66.1244 3.31767L64.5522 3.16103L64.5268 3.41577L66.099 3.57241ZM64.405 4.39652L66.025 4.55792L65.9417 5.39378L64.3217 5.23238L64.405 4.39652ZM65.6351 5.08185L65.6629 4.80323L64.7156 4.70885L64.6878 4.98747L65.6351 5.08185Z" fill="white"/>
<path d="M68.0714 3.6379L68.0287 3.93888C67.8828 4.82316 67.6124 5.5039 67.2123 5.98844L66.9903 5.67409C67.3068 5.26655 67.5331 4.66844 67.6683 3.88769L67.8472 2.62833C68.9102 2.76722 69.8685 2.81851 70.7221 2.7822L70.8604 3.14526C70.0493 3.16739 69.1469 3.12002 68.1626 2.99634L68.1209 3.2894L69.3644 3.46605C69.3955 3.36137 69.422 3.26009 69.4485 3.15882L69.818 3.25978C69.7971 3.34974 69.7728 3.43518 69.7486 3.52062L70.9604 3.69276L70.9109 4.04127L69.6397 3.86068C69.6019 3.95631 69.5685 4.04855 69.5313 4.14022L70.5332 4.28255L70.3369 5.66467L69.9765 5.61348L70.1233 4.57985L68.6462 4.37001L68.4988 5.4076L68.1384 5.3564L68.3353 3.97032L69.1511 4.08621C69.1889 3.99058 69.2222 3.89835 69.2555 3.80611L68.0714 3.6379ZM69.5102 5.42604C69.9239 5.64237 70.289 5.88815 70.6139 6.16056L70.3618 6.45604C70.0182 6.14462 69.6588 5.88752 69.2802 5.68021L69.5102 5.42604ZM69.2658 4.58732L69.6267 4.66283C69.5128 5.12339 69.3191 5.46352 69.0386 5.67418C68.7577 5.88879 68.3494 6.0328 67.8182 6.1028L67.6658 5.7256C68.1409 5.67997 68.5034 5.57391 68.7499 5.40288C68.997 5.22788 69.1688 4.95735 69.2658 4.58732Z" fill="white"/>
<path d="M71.7977 4.65182L74.6006 5.15671L74.4162 6.18023L73.1919 5.9597L73.1607 6.13291L74.4637 6.36763L74.4205 6.60776L73.1175 6.37305L73.0841 6.55807L74.6745 6.84455L74.6235 7.12799L71.0805 6.48979L71.1316 6.20635L72.7141 6.49141L72.7474 6.30639L71.4601 6.07451L71.5034 5.83438L72.7907 6.06626L72.8219 5.89304L71.6133 5.67535L71.7977 4.65182ZM74.1016 5.89596L74.1357 5.707L73.2657 5.55029L73.2316 5.73925L74.1016 5.89596ZM72.8616 5.67259L72.8956 5.48363L72.0414 5.32976L72.0073 5.51871L72.8616 5.67259ZM72.0782 5.12505L72.9325 5.27893L72.9665 5.08997L72.1123 4.93609L72.0782 5.12505ZM73.3366 5.15662L73.3025 5.34558L74.1725 5.5023L74.2066 5.31334L73.3366 5.15662ZM72.1715 3.07308L74.8051 3.54747L74.625 4.54738L71.9914 4.07299L72.1715 3.07308ZM74.305 4.27027L74.3377 4.08919L72.4205 3.74385L72.3879 3.92494L74.305 4.27027ZM72.4588 3.53127L74.376 3.87661L74.4079 3.69946L72.4907 3.35412L72.4588 3.53127ZM71.501 4.15536L75.044 4.79356L74.9958 5.06125L71.4528 4.42305L71.501 4.15536Z" fill="white"/>
<path d="M75.5975 4.94579L76.1472 3.86788L76.5059 4.00875L76.15 4.69007L76.7293 4.81196C76.8646 4.53795 76.9876 4.24499 77.1021 3.9339L77.4719 4.06076C77.3598 4.3601 77.2402 4.63741 77.1168 4.89349L78.9096 5.27069L78.8346 5.62689L76.9479 5.22993C76.8816 5.35086 76.813 5.46315 76.7492 5.57234L78.3149 5.90177L78.249 6.21491C78.0797 6.51447 77.827 6.76378 77.4829 6.96118C77.7458 7.18817 78.0738 7.41659 78.463 7.64563L78.1971 7.95756C77.7597 7.68568 77.4008 7.40988 77.1226 7.1388C76.7681 7.28902 76.3473 7.40485 75.86 7.48628L75.7385 7.09282C76.1595 7.03426 76.5291 6.94852 76.8424 6.83868C76.6308 6.5816 76.4852 6.32204 76.4085 6.06475C76.0048 6.58476 75.5514 6.97171 75.0523 7.22639L74.9329 6.84158C75.5736 6.47769 76.1135 5.91275 76.5526 5.14675L75.5975 4.94579ZM76.7214 5.91803C76.802 6.17615 76.9602 6.43426 77.197 6.68845C77.4856 6.54071 77.7109 6.36331 77.8683 6.15934L76.7214 5.91803ZM78.1385 4.15606C78.3658 4.41643 78.5492 4.67165 78.6895 4.91782L78.3673 5.12799C78.2536 4.8915 78.0789 4.63401 77.8361 4.34995L78.1385 4.15606Z" fill="white"/>
<path d="M80.1244 6.13569L80.6619 6.26147L80.7348 5.94989L80.0844 5.79768L80.0151 6.09368C79.9604 6.32737 79.892 6.54962 79.8194 6.75447L80.5088 6.91579L80.5854 6.58863L80.0479 6.46285L80.1244 6.13569ZM79.6943 7.07848C79.5209 7.48569 79.31 7.84302 79.0623 8.14657L78.8253 7.80765C79.1855 7.37433 79.4569 6.77644 79.6412 6.00618L79.9475 4.69754L82.927 5.39478L82.69 6.40742L82.1486 6.28074L82.0757 6.59232L82.6599 6.72903L82.5834 7.05619L81.9992 6.91948L81.9226 7.24664L82.6392 7.41434L82.5609 7.74929L82.1714 7.65815L82.3453 7.93302C82.1899 8.05276 82.0293 8.14251 81.8672 8.20318C82.0394 8.36261 82.2461 8.49726 82.4914 8.60805L82.2341 8.91756C81.5758 8.57045 81.1694 8.06042 81.0107 7.38654L80.5278 7.27353L80.3546 8.01353C80.602 8.0098 80.8239 7.99189 81.0165 7.95891L81.0073 8.31416C80.6663 8.34939 80.2705 8.35536 79.82 8.33209L79.7943 7.98513C79.9221 7.96573 79.9997 7.89761 80.0289 7.77298L80.1656 7.18876L79.6943 7.07848ZM81.3846 7.47404C81.4444 7.64002 81.5243 7.79018 81.6234 7.9284C81.7923 7.87345 81.9578 7.78072 82.1207 7.6463L81.3846 7.47404ZM81.7903 6.19688L81.0893 6.03283L81.0163 6.34441L81.7174 6.50847L81.7903 6.19688ZM80.8632 6.99873L81.5643 7.16279L81.6408 6.83563L80.9398 6.67157L80.8632 6.99873ZM82.4738 5.64613L80.2421 5.12388L80.1619 5.46662L82.3936 5.98887L82.4738 5.64613Z" fill="white"/>
<path d="M85.1487 6.67511L85.103 6.85748C85.0817 6.94285 85.1127 7.0001 85.1981 7.02147L86.141 7.25749C86.2108 7.27497 86.27 7.26917 86.3175 7.24396C86.367 7.21099 86.4272 7.08586 86.4981 6.86856L86.8124 7.06269C86.6988 7.38474 86.591 7.56806 86.494 7.60975C86.4009 7.65241 86.2767 7.65432 86.1215 7.61546L85.0001 7.33476C84.7517 7.2726 84.6606 7.10959 84.7266 6.84573L84.9918 5.78641L85.3488 5.87577L85.2293 6.35305C85.7027 6.37259 86.1703 6.34944 86.6283 6.28264L86.7572 6.62416C86.1819 6.6822 85.6454 6.70048 85.1487 6.67511ZM83.1417 9.07562L82.7382 8.97461L82.7451 8.60111C82.8654 8.64771 82.9837 8.68558 83.0962 8.71375C83.1894 8.73706 83.2524 8.69924 83.2767 8.60223L83.4836 7.77573C83.3148 7.79121 83.144 7.79795 82.9733 7.80469L82.9763 7.41372C83.1762 7.42251 83.375 7.41869 83.5759 7.40711L83.7779 6.60001L83.2851 6.47665L83.3735 6.12355L83.8663 6.2469L84.0411 5.54845L84.3942 5.63684L84.2194 6.33529L84.6191 6.43533L84.5307 6.78844L84.131 6.68839L83.9601 7.37132C84.1221 7.35003 84.2851 7.32485 84.4422 7.28997L84.348 7.66636C84.1889 7.69251 84.0298 7.71866 83.8688 7.73607L83.6065 8.78375C83.5424 9.03985 83.3862 9.13682 83.1417 9.07562ZM86.4367 7.95414L85.9695 9.82055L85.6008 9.72828L85.6436 9.55755L84.5377 9.28073L84.495 9.45147L84.1302 9.36017L84.5974 7.49375L86.4367 7.95414ZM84.6193 8.95479L85.7252 9.23161L85.8165 8.86686L84.7106 8.59004L84.6193 8.95479ZM84.7922 8.2641L85.8981 8.54091L85.9874 8.18393L84.8815 7.90711L84.7922 8.2641Z" fill="white"/>
<path d="M86.9493 8.51472L89.2834 9.12257L89.3349 8.92515L89.7065 9.02193L89.655 9.21934L90.4912 9.43708L90.3984 9.7932L89.5623 9.57547L89.3678 10.3225C89.3042 10.5664 89.1365 10.655 88.8733 10.5865L88.3856 10.4594L88.3941 10.0773C88.5449 10.1331 88.6939 10.1801 88.8332 10.2164C88.9339 10.2426 88.9992 10.2142 89.0193 10.1367L89.1907 9.47869L86.8566 8.87084L86.9493 8.51472ZM90.4393 7.30313L90.1832 8.28634L87.9729 7.71074L87.9215 7.90816C87.8943 8.01267 87.9344 8.08098 88.0466 8.11021L90.0711 8.63742C90.1341 8.64968 90.1827 8.63754 90.216 8.60488C90.2434 8.57895 90.287 8.49109 90.3428 8.34029L90.6619 8.54327C90.5923 8.71528 90.533 8.83209 90.4857 8.90245C90.4031 9.01322 90.2748 9.04592 90.0985 9.0083L87.8147 8.41355C87.5515 8.345 87.4511 8.19073 87.5126 7.95461L87.8574 6.63076L90.4393 7.30313ZM88.0596 7.37784L89.9022 7.85767L89.9848 7.54026L88.1423 7.06043L88.0596 7.37784ZM87.8122 9.1693C88.0124 9.43224 88.1739 9.6851 88.2966 9.92788L87.9464 10.1301C87.8487 9.90215 87.6931 9.64256 87.4824 9.35624L87.8122 9.1693Z" fill="white"/>
<path d="M92.1053 8.16452L91.5021 8.00494L91.5839 7.69558L92.86 8.03316C92.8465 7.95924 92.8319 7.88919 92.8153 7.82686L93.2299 7.87036C93.2414 7.95201 93.2548 8.04243 93.2622 8.13955L94.6001 8.4935L94.5183 8.80286L93.9035 8.64021L93.7299 8.84256L94.6387 9.08296L94.5548 9.40005L91.175 8.50597L91.2589 8.18888L92.1367 8.4211L92.1053 8.16452ZM92.5196 8.52237L93.3471 8.74128L93.5206 8.53893L92.4881 8.2658L92.5196 8.52237ZM91.5342 8.77478L94.1097 9.45607L93.7905 10.6626L91.2151 9.98127L91.5342 8.77478ZM93.5045 10.289L93.5557 10.0957L91.6995 9.60464L91.6484 9.79799L93.5045 10.289ZM91.7691 9.34168L93.6252 9.83271L93.6754 9.64323L91.8192 9.1522L91.7691 9.34168ZM91.0282 10.0932L91.3646 10.2608C91.1948 10.5428 91.0015 10.773 90.7836 10.9553L90.5187 10.6742C90.7286 10.5063 90.8952 10.3146 91.0282 10.0932ZM92.7618 11.5324L91.8183 11.2828C91.5205 11.2041 91.4094 11.0298 91.4789 10.7669L91.6099 10.2719L91.9811 10.3701L91.8706 10.7877C91.8451 10.8844 91.8898 10.95 92.0096 10.9817L92.7792 11.1853C92.8488 11.2037 92.9031 11.2016 92.9374 11.1817C92.9852 11.1571 93.0389 11.0637 93.0994 10.8976L93.4178 11.1019C93.3152 11.3644 93.2171 11.5163 93.1177 11.5479C93.0319 11.5749 92.9126 11.5723 92.7618 11.5324ZM92.5915 10.3619C92.7053 10.5575 92.7855 10.7236 92.835 10.8649L92.4732 10.9968C92.418 10.8457 92.336 10.6709 92.2261 10.4763L92.5915 10.3619ZM93.7765 10.7623C93.9227 11.0699 94.0268 11.3333 94.0899 11.5486L93.7281 11.6805C93.6635 11.4399 93.5653 11.1698 93.4297 10.8692L93.7765 10.7623Z" fill="white"/>
<path d="M98.0185 9.32238L97.4484 11.4845L97.0771 11.3865L97.5524 9.58416L95.9356 9.15782L95.4593 10.9641L95.088 10.8662L95.6592 8.7002L98.0185 9.32238ZM96.477 9.53638L96.8406 9.63225L96.6498 10.3555C96.587 10.5623 96.5138 10.7458 96.4282 10.9135L96.757 11.0002L96.5163 11.913C96.4786 12.0561 96.5095 12.1428 96.61 12.1693L97.1747 12.3182C97.2211 12.3305 97.2726 12.3234 97.3205 12.2988C97.3732 12.2713 97.447 12.117 97.538 11.8349L97.8593 12.0437C97.7179 12.4077 97.6056 12.6139 97.5215 12.6662C97.4278 12.7076 97.3142 12.7149 97.1806 12.688L96.4187 12.487C96.1402 12.4136 96.0448 12.2106 96.1315 11.8818L96.3498 11.0541C96.209 11.29 96.0474 11.4791 95.8592 11.628C95.5183 11.8856 95.0392 12.024 94.4198 12.0509L94.3041 11.6895C94.9235 11.6625 95.3743 11.5374 95.6527 11.3129C95.9314 11.072 96.1396 10.7215 96.2863 10.2597L96.477 9.53638Z" fill="white"/>
<path d="M99.5811 9.55065L99.9151 11.5665L98.6458 13.1677L98.372 12.9481L99.5433 11.4703L99.2353 9.60995L99.5811 9.55065Z" fill="white"/>
<path d="M104.277 11.463L103.602 14.1638L103.248 14.0755L103.299 13.8737L102.686 13.7203L102.607 14.0347L102.254 13.9463L102.958 11.133L103.326 11.2252C103.449 11.0331 103.556 10.8333 103.644 10.616L104 10.7586C103.907 10.9624 103.8 11.1457 103.679 11.3135L104.277 11.463ZM102.771 13.3789L103.384 13.5322L103.575 12.7678L102.962 12.6144L102.771 13.3789ZM103.045 12.2846L103.658 12.4379L103.837 11.7239L103.223 11.5706L103.045 12.2846ZM104.743 12.569C104.919 12.9513 105.048 13.2763 105.124 13.5509L104.781 13.6837C104.698 13.3907 104.567 13.057 104.397 12.6805L104.743 12.569ZM106.278 11.9677C105.944 13.3065 105.717 14.1282 105.601 14.4289C105.492 14.6986 105.271 14.7917 104.941 14.7092C104.864 14.6898 104.726 14.6471 104.535 14.5869L104.53 14.227C104.699 14.2774 104.844 14.3221 104.968 14.3531C105.124 14.392 105.233 14.3328 105.297 14.1756C105.369 13.9874 105.544 13.3384 105.828 12.2345L104.854 11.9908C104.687 12.1965 104.51 12.3788 104.314 12.536L104.165 12.1896C104.515 11.8812 104.807 11.4718 105.034 10.9596L105.387 11.0974C105.294 11.305 105.189 11.4932 105.079 11.6678L106.278 11.9677Z" fill="white"/>
<path d="M107.122 11.5318C107.337 11.8012 107.509 12.0604 107.64 12.3055L107.318 12.4999C107.209 12.2682 107.041 12.006 106.811 11.7125L107.122 11.5318ZM108.525 15.5525C108.311 15.5013 108.079 15.4416 107.831 15.3781C107.579 15.3138 107.378 15.2411 107.224 15.1631C107.08 15.0792 106.966 14.9533 106.881 14.7931C106.842 14.7139 106.803 14.6717 106.756 14.6605C106.674 14.6409 106.492 14.7825 106.21 15.0852L105.998 14.7672C106.268 14.4986 106.491 14.3421 106.665 14.3015L106.928 13.2005L106.407 13.0758L106.489 12.7335L107.356 12.941L107.005 14.4115C107.02 14.4317 107.035 14.4558 107.049 14.4838C107.114 14.6103 107.188 14.7104 107.273 14.7842C107.377 14.8666 107.54 14.9426 107.768 15.0052C107.988 15.0622 108.248 15.1284 108.552 15.201C108.742 15.2466 108.938 15.2892 109.133 15.3318C109.329 15.3745 109.482 15.403 109.589 15.4203L109.412 15.7646L108.525 15.5525ZM108.594 12.2909L107.843 12.1114L107.916 11.804L110.052 12.3148L109.99 12.5755C109.718 12.716 109.437 12.8217 109.147 12.9004C109.153 12.91 109.16 12.9158 109.166 12.9254L109.948 13.1124L109.535 14.8397C109.48 15.0692 109.323 15.1552 109.07 15.0948L108.771 15.0231L108.767 14.6972L109.039 14.7788C109.125 14.7993 109.182 14.7676 109.202 14.6821L109.25 14.4837L108.689 14.3497L108.537 14.9877L108.198 14.9067L108.351 14.2687L107.802 14.1375L107.648 14.7833L107.298 14.6996L107.8 12.5988L108.695 12.8128C108.587 12.6965 108.465 12.5726 108.326 12.4489L108.594 12.2909ZM108.963 12.6714C109.146 12.6287 109.32 12.5717 109.484 12.504L108.613 12.2956C108.739 12.4243 108.857 12.5473 108.963 12.6714ZM107.939 13.5657L107.874 13.838L108.423 13.9692L108.488 13.6969L107.939 13.5657ZM108.826 13.7778L108.761 14.0501L109.321 14.1841L109.386 13.9118L108.826 13.7778ZM109.459 13.6083L109.524 13.336L108.964 13.202L108.899 13.4744L109.459 13.6083ZM108.56 13.3934L108.625 13.1211L108.077 12.9899L108.012 13.2622L108.56 13.3934Z" fill="white"/>
<path d="M113.769 13.4413L113.08 16.4842L112.721 16.4029L112.772 16.1806L112.089 16.026L112.038 16.2522L111.679 16.1709L112.369 13.1241L113.769 13.4413ZM112.167 15.6788L112.85 15.8334L113.332 13.7072L112.649 13.5526L112.167 15.6788ZM110.863 13.2712C110.729 13.4459 110.587 13.6024 110.441 13.7415L110.164 13.4614C110.496 13.1512 110.765 12.7979 110.966 12.4004L111.315 12.5615C111.242 12.7009 111.165 12.8268 111.088 12.9488L112.153 13.19L112.072 13.5451L111.542 13.4249C111.479 13.665 111.416 13.8886 111.346 14.0901L111.955 14.2279L111.874 14.5829L111.215 14.4336C111.18 14.5159 111.141 14.5973 111.108 14.6718C111.291 14.9676 111.472 15.2915 111.654 15.6446L111.35 15.9366C111.186 15.5385 111.044 15.2234 110.925 14.9912C110.668 15.3638 110.312 15.6482 109.851 15.839L109.676 15.4877C110.15 15.2792 110.498 14.9726 110.726 14.5648C110.758 14.4942 110.795 14.4206 110.829 14.3461L110.06 14.1721L110.141 13.8171L110.964 14.0035C111.034 13.802 111.097 13.5784 111.16 13.3383L110.863 13.2712Z" fill="white"/>
<path d="M114.711 13.2186L115.133 15.2177L113.936 16.8734L113.653 16.6662L114.758 15.1381L114.368 13.2931L114.711 13.2186ZM115.38 13.3604L115.802 15.3595L114.605 17.0152L114.322 16.808L115.427 15.2798L115.021 13.4316L115.38 13.3604Z" fill="white"/>
</svg>
