<svg width="77" height="28" viewBox="0 0 77 28" fill="none" xmlns="http://www.w3.org/2000/svg">
<path d="M3.11065 7.03595L3.47367 7.07896L3.21355 8.95324L4.43428 10.3905L4.16813 10.6192L2.84525 9.06193L3.11065 7.03595ZM3.76668 6.84235L4.11435 6.88988L3.86957 8.75963L5.09031 10.1969L4.82416 10.4256L3.50128 8.86832L3.76668 6.84235Z" fill="white"/>
<path d="M5.59181 6.3642C5.79261 6.51513 5.99502 6.6864 6.1952 6.87909L5.99044 7.06606L6.78702 6.84013C6.86335 6.58149 6.91227 6.28488 6.93489 5.95416L7.32006 5.94886C7.30743 6.22686 7.26408 6.48446 7.19878 6.72334L7.92994 6.51597L8.03036 6.87L6.77584 7.22582L6.80967 7.34511C6.85437 7.53201 6.88315 7.70679 6.90096 7.8722L8.43255 7.43781L8.53296 7.79184L7.18609 8.17385C7.50671 8.586 8.09143 8.81515 8.94132 8.86515L8.82405 9.27261C7.92206 9.17086 7.28582 8.87733 6.90873 8.39803C6.89076 8.59855 6.85194 8.78418 6.79118 8.9511C6.62773 9.37165 6.27589 9.75833 5.73565 10.1111L5.44496 9.84848C5.98301 9.48799 6.31446 9.13204 6.44317 8.77955C6.48463 8.64721 6.51128 8.50661 6.52419 8.36158L5.2081 8.73485L5.10769 8.38081L6.52383 7.97916C6.50878 7.80881 6.48385 7.63294 6.44024 7.44989L6.40641 7.33059L5.14804 7.6875L5.04763 7.33346L5.87115 7.09989C5.68085 6.91271 5.4905 6.75465 5.30285 6.62078L5.59181 6.3642Z" fill="white"/>
<path d="M8.66634 5.61721L11.5888 4.82465L11.6861 5.18368L10.4546 5.51767L10.7101 6.45964L12.2118 6.05237L12.3113 6.41912L10.8096 6.82639L11.1666 8.14284C11.2399 8.41308 11.1347 8.5908 10.8529 8.66723L10.2391 8.8337L10.0655 8.49946C10.2656 8.45765 10.4568 8.41407 10.6344 8.36591C10.7579 8.33241 10.804 8.25775 10.7747 8.14965L10.4428 6.92586L8.87542 7.35093L8.77596 6.98418L10.3433 6.5591L10.0879 5.61713L8.76371 5.97624L8.66634 5.61721Z" fill="white"/>
<path d="M15.7592 4.19667L16.5175 7.16948L16.1609 7.26044L16.0987 7.01626L15.4863 7.17247L15.5486 7.41665L15.1958 7.50662L14.4375 4.53381L15.7592 4.19667ZM15.3963 6.81976L16.0087 6.66355L15.4926 4.64034L14.8802 4.79655L15.3963 6.81976ZM12.8593 4.36672L13.2236 4.27378L13.4154 5.02571L14.1945 4.82699C14.5168 6.09053 14.6961 6.87453 14.7335 7.18286C14.7699 7.48731 14.6136 7.68403 14.2726 7.77103C14.2105 7.78685 14.1078 7.8048 13.9653 7.82877L13.7863 7.51529C13.921 7.4933 14.0354 7.47238 14.1284 7.44866C14.2912 7.40713 14.3644 7.2894 14.346 7.10418C14.3228 6.91608 14.1802 6.30848 13.925 5.27551L13.5064 5.38229C13.7708 6.51611 13.7295 7.40594 13.3794 8.05664L13.042 7.88265C13.3535 7.3078 13.3875 6.50241 13.142 5.47522L12.5529 5.6255L12.4619 5.26892L13.0511 5.11864L12.8593 4.36672Z" fill="white"/>
<path d="M17.6369 3.76658L18.2994 3.61337L18.1706 3.05608L18.5291 2.97316L18.658 3.53045L19.4881 3.33848L19.7585 4.50762L20.0235 4.44634L20.1073 4.80877L19.1252 5.03589C19.4717 5.46896 19.9222 5.78355 20.4835 5.97397L20.3017 6.32393C19.7295 6.08675 19.2583 5.73589 18.8969 5.27345C18.8489 5.90038 18.6099 6.41137 18.1777 6.81513L17.8814 6.56342C18.2923 6.20975 18.513 5.74404 18.5445 5.17018L17.8352 5.33421L17.7514 4.97178L18.5348 4.79062C18.5203 4.62153 18.4923 4.44736 18.4509 4.26809L18.3797 3.96021L17.7171 4.11343L17.6369 3.76658ZM18.7382 3.8773L18.7905 4.10333C18.8391 4.31378 18.8695 4.51614 18.8894 4.70861L19.3999 4.59054L19.2098 3.76824L18.7382 3.8773ZM16.389 4.26456L16.678 4.21825C16.7604 4.60977 16.804 4.99381 16.8111 5.36168L16.4912 5.34534C16.4964 4.99515 16.4621 4.63359 16.389 4.26456ZM17.4187 3.92379C17.5816 4.14887 17.7419 4.41563 17.8985 4.72017L17.6156 4.86361C17.4856 4.58574 17.335 4.32498 17.1667 4.07651L17.4187 3.92379ZM16.6243 3.41778L16.9867 3.33396L17.8123 6.90374L17.4499 6.98756L16.6243 3.41778Z" fill="white"/>
<path d="M20.7974 4.08641C20.7202 4.23923 20.639 4.39278 20.5525 4.53921L20.3523 4.16567C20.638 3.64826 20.8074 3.07529 20.8685 2.44528L21.2361 2.53923C21.2041 2.84637 21.1423 3.14687 21.0533 3.43213L21.551 6.08994L21.1853 6.1584L20.7974 4.08641ZM21.4297 2.4867L23.4703 2.10462L23.7191 3.43352L22.9367 3.58002L23.0412 4.13832L23.9298 3.97194L23.9946 4.31793L23.106 4.48431L23.2599 5.30603C23.3887 5.2982 23.5403 5.28202 23.7108 5.25822C23.931 5.217 24.1347 5.17478 24.3219 5.13158L24.3214 5.49795L23.9439 5.56862C23.377 5.6707 22.9767 5.68461 22.7517 5.6128C22.5195 5.5464 22.3102 5.40654 22.1323 5.19567C22.0789 5.51902 21.9938 5.80354 21.8763 6.0453L21.5852 5.79459C21.7792 5.33097 21.8609 4.74594 21.8304 4.03949L22.196 4.03614C22.2038 4.29513 22.1993 4.532 22.184 4.75462C22.2656 4.88585 22.3631 4.99374 22.4781 5.08616C22.6024 5.18497 22.7365 5.24938 22.8766 5.28013L22.5711 3.64849L21.6786 3.8156L21.4297 2.4867ZM23.2926 3.15527L23.1726 2.5144L21.8594 2.76029L21.9794 3.40115L23.2926 3.15527Z" fill="white"/>
<path d="M24.7121 1.81364C24.989 2.00417 25.2259 2.19729 25.423 2.39298L25.1691 2.68196C25.0005 2.49245 24.7673 2.29508 24.4649 2.08214L24.7121 1.81364ZM27.2266 5.24256C27.011 5.25649 26.7752 5.26773 26.5235 5.27999C26.2678 5.29252 26.0587 5.28199 25.8924 5.25265C25.7297 5.21507 25.5878 5.12805 25.4592 5.00007C25.403 4.93557 25.353 4.90673 25.3051 4.90983C25.2253 4.91499 25.0932 5.10391 24.9128 5.47632L24.6166 5.23492C24.7953 4.8987 24.9618 4.68351 25.1163 4.59335L25.0433 3.46371L24.5044 3.49855L24.4817 3.14728L25.3758 3.08948L25.4736 4.60232C25.4906 4.61725 25.5116 4.63193 25.5331 4.65459C25.6279 4.75669 25.7288 4.83032 25.832 4.87576C25.9514 4.92416 26.1253 4.94899 26.3574 4.94201C26.5812 4.93155 26.8449 4.91851 27.1522 4.89864C27.3438 4.88625 27.5431 4.86935 27.7465 4.8522C27.9458 4.8353 28.1009 4.81726 28.2082 4.80231L28.1407 5.18346L27.2266 5.24256ZM25.6543 2.31389L26.0934 2.2855L26.0545 1.68276L26.4177 1.65928L26.4567 2.26202L26.9995 2.22692L26.9608 1.62817L27.3281 1.60443L27.3668 2.20318L27.8418 2.17247L27.8647 2.52773L27.3897 2.55844L27.4354 3.26496L28.0382 3.22599L28.0614 3.58524L27.4586 3.62421L27.5288 4.70994L27.1616 4.73369L27.0914 3.64795L26.4567 3.68899C26.3746 4.15525 26.197 4.50745 25.9161 4.75008L25.6689 4.46142C25.8821 4.2873 26.0223 4.03774 26.0895 3.71273L25.6065 3.74395L25.5833 3.3847L26.1381 3.34883C26.1453 3.21208 26.1443 3.07186 26.1347 2.92417L26.1164 2.64076L25.6773 2.66915L25.6543 2.31389ZM26.4796 2.61728L26.4923 2.81287C26.5041 2.99648 26.503 3.16491 26.4974 3.32561L27.0682 3.2887L27.0225 2.58218L26.4796 2.61728Z" fill="white"/>
<path d="M29.0277 3.0063L28.9952 3.5894L29.5543 3.62055L29.5868 3.03745L29.0277 3.0063ZM29.6057 2.69798L29.6386 2.10689L29.0795 2.07575L29.0466 2.66683L29.6057 2.69798ZM28.9681 3.93242C28.9099 4.47402 28.7889 4.91999 28.6053 5.26631L28.3322 4.9907C28.5113 4.65214 28.6159 4.21327 28.6499 3.67433L28.7592 1.71337L30.0012 1.78256L29.8273 4.90571C29.8122 5.17729 29.6808 5.30619 29.4372 5.29262L29.1177 5.27482L29.0445 4.93422C29.1556 4.95243 29.255 4.96598 29.3509 4.97132C29.4348 4.97599 29.4827 4.90655 29.4905 4.76677L29.5352 3.96401L28.9681 3.93242ZM30.5277 3.62268L30.4483 5.04847C30.6622 4.94822 30.8459 4.81423 31.0031 4.65472C30.7879 4.34627 30.6468 4.00189 30.5796 3.62558L30.5277 3.62268ZM30.4476 5.06046L30.4307 5.36398L30.0753 5.34419L30.2728 1.79768L31.9542 1.89134C31.9253 2.41053 31.8822 2.75267 31.8247 2.92173C31.7674 3.0868 31.611 3.16222 31.3554 3.14798L31.0199 3.12929L30.9379 2.80423C31.0018 2.80779 31.0894 2.81668 31.2012 2.8229C31.2851 2.82758 31.3495 2.82315 31.3901 2.81339C31.4307 2.80363 31.4646 2.76947 31.4917 2.71489C31.5194 2.64833 31.5448 2.48148 31.5677 2.21434L30.6091 2.16095L30.5464 3.2872L31.8963 3.3624L31.8785 3.6819C31.7848 4.06929 31.6463 4.3981 31.4632 4.66433C31.6183 4.8292 31.8022 4.97967 32.0108 5.11948L31.8053 5.42853C31.5852 5.28006 31.3939 5.11717 31.2353 4.94408C31.0613 5.11868 30.8572 5.25954 30.6269 5.3669L30.4476 5.06046ZM30.9031 3.6436C30.9686 3.90764 31.0752 4.14995 31.2272 4.37074C31.3586 4.16974 31.4636 3.93922 31.5421 3.67919L30.9031 3.6436Z" fill="white"/>
<path d="M33.9896 1.99786L34.3638 2.11484C34.3091 2.20326 34.251 2.28709 34.1902 2.36239L35.8805 2.63461L35.8315 2.93869C35.5506 3.17302 35.2242 3.36353 34.8567 3.50693C35.2538 3.73295 35.7066 3.91526 36.2203 4.04661L35.9938 4.37073C35.3932 4.20106 34.8645 3.96195 34.4123 3.65008C33.9041 3.78701 33.3264 3.85198 32.6872 3.84627L32.57 3.46681C33.11 3.4849 33.6017 3.45065 34.0372 3.36278C33.8655 3.22168 33.7121 3.06732 33.5718 2.90698C33.4191 2.99988 33.2558 3.08297 33.078 3.15562L32.8972 2.8186C33.4019 2.62842 33.766 2.35484 33.9896 1.99786ZM34.472 3.25454C34.7661 3.16415 35.0324 3.04499 35.2749 2.89767L33.8888 2.67442C33.875 2.68436 33.8659 2.69099 33.8606 2.69825C34.0386 2.90114 34.2435 3.08809 34.472 3.25454ZM34.0852 3.84455L34.4564 3.90433C34.4335 4.0465 34.4001 4.17886 34.36 4.30206L35.7224 4.52149C35.6032 5.21131 35.4772 5.61643 35.345 5.73289C35.2128 5.84935 35.0039 5.88863 34.7274 5.84411C34.5932 5.82248 34.4286 5.78787 34.2409 5.74549L34.2009 5.3906C34.4049 5.43158 34.5695 5.46619 34.6946 5.49444C34.8967 5.52293 35.03 5.49984 35.0941 5.42913C35.1588 5.35446 35.2254 5.14235 35.2932 4.79674L34.223 4.62437C34.1722 4.71343 34.1181 4.7979 34.0573 4.8732C33.8026 5.19681 33.2935 5.41463 32.5254 5.52996L32.3256 5.18581C32.9998 5.09993 33.4592 4.93894 33.7006 4.69825C33.7404 4.652 33.7803 4.60575 33.8123 4.55823L32.7026 4.3795L32.7566 4.04383L33.9809 4.241C34.0249 4.11844 34.0623 3.98672 34.0852 3.84455Z" fill="white"/>
<path d="M37.2051 2.73031L39.0594 3.19619L38.9776 3.52207L38.6129 3.43045L38.4872 3.9309L38.9372 4.04396L38.8514 4.38535L38.4014 4.27229L38.1948 5.09473L37.8379 5.00506L38.0445 4.18262L37.61 4.07346C37.467 4.44583 37.2542 4.7017 36.9649 4.83525L36.747 4.52067C36.9693 4.42391 37.1383 4.24366 37.2492 3.98282L36.8108 3.87268L36.8966 3.53129L37.3583 3.64728L37.484 3.14683L37.1232 3.05619L37.2051 2.73031ZM37.8409 3.2365L37.7152 3.73694L38.1303 3.84123L38.256 3.34078L37.8409 3.2365ZM39.2862 3.3769L39.6393 3.4656L39.305 4.79624L38.9519 4.70755L39.2862 3.3769ZM36.7202 5.07071L38.0508 5.40501L38.122 5.12181L38.4867 5.21343L38.4155 5.49663L39.719 5.82411L39.6342 6.16162L38.3307 5.83414L38.2401 6.19493L39.7569 6.57601L39.6721 6.91352L36.2427 6.05194L36.3275 5.71443L37.8754 6.10331L37.966 5.74252L36.6354 5.40822L36.7202 5.07071ZM39.5108 5.47073L38.991 5.34013L38.9953 4.97827C39.1582 5.0357 39.3153 5.08342 39.4666 5.12143C39.5442 5.14092 39.6025 5.08957 39.6327 4.96931L40.042 3.33994L40.3951 3.42864L39.9643 5.14335C39.8951 5.41879 39.7436 5.52921 39.5108 5.47073Z" fill="white"/>
<path d="M41.3234 4.52282C41.2163 4.6434 41.1016 4.73618 40.988 4.79986L40.7642 4.4946C41.0116 4.35704 41.2144 4.12479 41.3788 3.79149L41.6995 3.95597C41.6454 4.0561 41.5939 4.14864 41.5424 4.22852L41.8881 4.34231L42.0357 3.89397L42.3928 4.01151L42.2453 4.45985L42.9254 4.68367L42.8166 5.01423L42.1365 4.79041L42.0027 5.19696L42.793 5.45705L42.6817 5.7952L41.8914 5.53512L41.7864 5.85428L42.5197 6.09561L42.1858 7.11009C42.1033 7.36086 41.9329 7.44373 41.6745 7.3587L41.4883 7.29743L41.5084 6.92926L41.6706 6.99948C41.7732 7.03324 41.8414 7.00515 41.8689 6.92156L42.0677 6.31743L41.6764 6.18864L41.2425 7.50708L40.8853 7.38954L41.3192 6.0711L40.9278 5.94231L40.5715 7.02518L40.2219 6.91014L40.6883 5.49291L41.4292 5.73674L41.5343 5.41758L40.6452 5.12499L40.7565 4.78683L41.6456 5.07942L41.7793 4.67287L41.3234 4.52282ZM43.2492 4.67232L43.5987 4.78736L42.8335 7.11267L42.4839 6.99763L43.2492 4.67232ZM42.9559 8.03307L42.3898 7.84676L42.4238 7.47474C42.6012 7.54996 42.7696 7.61382 42.9368 7.66884C43.0356 7.70135 43.1025 7.66442 43.1363 7.56183L44.1178 4.57919L44.475 4.69673L43.4634 7.77056C43.3784 8.02892 43.2067 8.11559 42.9559 8.03307Z" fill="white"/>
<path d="M45.3265 5.01977C45.4907 5.32163 45.6215 5.61021 45.7128 5.87885L45.3664 6.02539C45.2944 5.77304 45.1725 5.48369 44.9933 5.15438L45.3265 5.01977ZM46.1224 9.21728C45.9216 9.13761 45.7 9.04537 45.4635 8.94723C45.2233 8.84762 45.0351 8.74711 44.8974 8.64944C44.7664 8.54581 44.6717 8.40494 44.6103 8.23427C44.5834 8.15041 44.5468 8.10149 44.5059 8.08526C44.4241 8.0528 44.2239 8.167 43.9 8.43009L43.7357 8.08515C44.0425 7.85404 44.2888 7.73229 44.467 7.71695L44.8846 6.66476L44.3864 6.46706L44.5162 6.13988L45.3453 6.46889L44.7861 7.878C44.7951 7.89877 44.8078 7.92102 44.8175 7.9507C44.8669 8.0865 44.9267 8.19627 44.9967 8.28001C45.0876 8.37632 45.2379 8.4747 45.458 8.57066C45.6648 8.65699 45.9124 8.75956 46.2024 8.87464C46.3846 8.94693 46.5719 9.01698 46.763 9.08851C46.9504 9.15856 47.0984 9.20866 47.2054 9.24253L46.9812 9.55809L46.1224 9.21728ZM46.2851 6.24793C46.1754 6.35073 46.0627 6.43943 45.9493 6.51922L45.7316 6.22196C46.0104 6.03996 46.246 5.81499 46.4384 5.54706L46.7353 5.74234C46.6724 5.82496 46.6109 5.90387 46.5487 5.97386L46.9205 6.12139L47.0858 5.70498L47.4241 5.83924L47.2589 6.25565L47.9913 6.5463L47.8615 6.87348L47.129 6.58283L46.9712 6.98066L47.8969 7.34802L47.7686 7.67149L45.4709 6.75971L45.5992 6.43625L46.6328 6.8464L46.7907 6.44858L46.2851 6.24793ZM45.6791 7.11345L47.4042 7.79802L46.969 8.89482L45.2439 8.21025L45.6791 7.11345ZM46.759 8.4371L46.9375 7.98722L45.8891 7.57117L45.7106 8.02104L46.759 8.4371Z" fill="white"/>
<path d="M48.3231 7.58998L49.0952 6.65842L49.4144 6.87434L48.9181 7.4613L49.4567 7.70696C49.6487 7.46919 49.8328 7.21021 50.0125 6.9317L50.3456 7.13638C50.1708 7.40397 49.9934 7.64839 49.817 7.87129L51.4839 8.63149L51.3328 8.96268L49.5786 8.16263C49.4875 8.26613 49.396 8.36069 49.3098 8.45328L50.7655 9.11721L50.6327 9.40836C50.402 9.66363 50.1009 9.85161 49.722 9.96898C49.9289 10.248 50.199 10.5426 50.5286 10.8512L50.2009 11.0975C49.8336 10.7365 49.5437 10.3888 49.3316 10.0635C48.9528 10.1325 48.5168 10.1535 48.0235 10.1264L47.991 9.71585C48.4147 9.75082 48.794 9.74799 49.1238 9.70935C48.9736 9.41221 48.8882 9.12707 48.8696 8.85924C48.362 9.27835 47.8349 9.55675 47.2922 9.69609L47.2599 9.29449C47.9646 9.07955 48.615 8.64638 49.2111 7.99499L48.3231 7.58998ZM49.2071 8.78452C49.2292 9.05402 49.3272 9.34049 49.5026 9.64031C49.8165 9.55927 50.0752 9.43546 50.2734 9.27085L49.2071 8.78452ZM50.9753 7.3752C51.1401 7.67898 51.2632 7.96814 51.3463 8.23903L50.986 8.37364C50.9267 8.118 50.8125 7.82852 50.6378 7.49825L50.9753 7.3752Z" fill="white"/>
<path d="M52.6018 9.82408L53.0931 10.0756L53.2389 9.79075L52.6443 9.48637L52.5058 9.75698C52.3964 9.97062 52.2765 10.1698 52.1567 10.3512L52.7869 10.6738L52.94 10.3747L52.4487 10.1232L52.6018 9.82408ZM51.9572 10.6355C51.6909 10.989 51.4001 11.285 51.0866 11.52L50.9382 11.1339C51.3922 10.8001 51.7995 10.2852 52.164 9.58201L52.7764 8.38564L55.5003 9.77994L55.0264 10.7057L54.5315 10.4524L54.3856 10.7372L54.9197 11.0106L54.7666 11.3097L54.2325 11.0363L54.0794 11.3354L54.7346 11.6708L54.5779 11.977L54.2218 11.7947L54.3244 12.1034C54.1448 12.1822 53.9672 12.2306 53.7953 12.2504C53.924 12.4466 54.0923 12.6271 54.3036 12.7937L53.9793 13.0321C53.4241 12.5367 53.1524 11.9438 53.1607 11.2516L52.7192 11.0256L52.3729 11.7021C52.6139 11.758 52.8336 11.7941 53.0284 11.8085L52.934 12.151C52.5945 12.1031 52.209 12.0136 51.7773 11.8825L51.836 11.5396C51.9647 11.5515 52.0564 11.5041 52.1147 11.3902L52.3881 10.8561L51.9572 10.6355ZM53.5025 11.4265C53.5206 11.602 53.5619 11.767 53.6248 11.925C53.8021 11.9124 53.985 11.8622 54.1755 11.771L53.5025 11.4265ZM54.2039 10.2847L53.563 9.95661L53.4172 10.2415L54.0581 10.5695L54.2039 10.2847ZM53.111 10.8396L53.7519 11.1677L53.905 10.8686L53.2641 10.5406L53.111 10.8396ZM54.9999 9.91474L52.9596 8.87038L52.7992 9.18372L54.8395 10.2281L54.9999 9.91474Z" fill="white"/>
<path d="M57.126 11.2772L55.7639 13.7052L55.4465 13.5271L55.5482 13.3457L54.997 13.0365L54.8385 13.3191L54.5211 13.141L55.9399 10.6118L56.2713 10.7977C56.4397 10.6446 56.5962 10.4801 56.7376 10.2934L57.0436 10.5247C56.9011 10.697 56.749 10.8455 56.5887 10.9758L57.126 11.2772ZM55.1692 12.7295L55.7204 13.0387L56.106 12.3515L55.5548 12.0423L55.1692 12.7295ZM55.7211 11.7458L56.2723 12.055L56.6324 11.4131L56.0812 11.1039L55.7211 11.7458ZM57.2843 12.4667C57.354 12.8819 57.393 13.2294 57.3938 13.5142L57.0284 13.5523C57.025 13.2477 56.9865 12.8913 56.9217 12.4835L57.2843 12.4667ZM58.9241 12.2905C58.249 13.494 57.8147 14.2273 57.6233 14.4868C57.4475 14.7184 57.2096 14.7501 56.913 14.5837C56.8433 14.5446 56.7216 14.4672 56.553 14.3589L56.643 14.0103C56.7926 14.1034 56.9213 14.1848 57.0329 14.2474C57.1725 14.3257 57.2938 14.2974 57.3969 14.1626C57.5157 14 57.8549 13.4197 58.4197 12.4294L57.544 11.9382C57.3289 12.0927 57.1097 12.222 56.8792 12.322L56.8272 11.9489C57.2453 11.7431 57.6347 11.425 57.9885 10.9905L58.293 11.2163C58.1485 11.3921 57.9979 11.5461 57.8462 11.6858L58.9241 12.2905Z" fill="white"/>
<path d="M59.7976 15.4265C59.3423 15.5528 58.7607 15.5092 58.0564 15.2976L58.0464 14.9128C58.7843 15.1306 59.3473 15.1817 59.734 15.0606L59.8399 15.0171L58.5125 14.213L58.699 13.9051L60.194 14.8108C60.4005 14.6553 60.5873 14.4551 60.7543 14.2102L61.0072 13.7928L61.3219 13.9835L61.0691 14.4009C60.9054 14.6478 60.7289 14.8542 60.5362 15.0181L61.6104 15.6689L61.4239 15.9768L60.2162 15.2451C60.1825 15.2621 60.1488 15.2791 60.1186 15.2982C60.4788 15.769 60.7806 16.2512 61.0282 16.7379L60.6804 16.9107C60.4302 16.3663 60.1346 15.8738 59.7976 15.4265ZM59.582 13.5514C59.7648 13.7978 59.9147 14.0523 60.0315 14.3148L59.7084 14.4698C59.5937 14.1805 59.446 13.9227 59.2741 13.6969L59.582 13.5514ZM60.2075 13.2756C60.3923 13.5185 60.5422 13.773 60.6556 14.0335L60.3325 14.1885C60.2158 13.9026 60.0735 13.6434 59.9016 13.4176L60.2075 13.2756ZM62.5226 14.0936L62.0978 14.7949L61.783 14.6042L62.0276 14.2005L59.797 12.8492L59.5524 13.2529L59.2377 13.0622L59.6626 12.3609L60.9455 13.1381C60.9659 13.0195 60.9822 12.9078 60.9908 12.8008L61.3559 12.9471C61.3389 13.0678 61.3123 13.1966 61.2739 13.3371L62.5226 14.0936Z" fill="white"/>
<path d="M62.9261 14.5567L63.4131 14.8717C63.4516 14.687 63.4802 14.5102 63.4934 14.3425L63.8562 14.4961C63.8242 14.6708 63.7813 14.8622 63.7221 15.0716L64.1184 15.328L63.9185 15.6369L63.2636 15.2133L63.0094 15.6063L63.6039 15.9908C63.0391 16.864 62.6725 17.3939 62.5131 17.5814C62.3492 17.7612 62.134 17.7697 61.8653 17.5959C61.8385 17.5785 61.7958 17.5414 61.7363 17.4934L61.8505 17.1623C61.9044 17.2115 61.9538 17.253 62.0008 17.2834C62.1184 17.3594 62.2258 17.3479 62.3232 17.249C62.4139 17.1456 62.6781 16.7592 63.1172 16.0952L62.8149 15.8996C62.3146 16.6289 61.8362 17.0959 61.3797 17.3009L61.276 16.9384C61.6937 16.7418 62.1411 16.2784 62.6137 15.5552L62.9613 15.0178L62.7262 14.8657L62.9261 14.5567ZM64.476 15.8356C64.2088 16.0057 63.9498 16.1336 63.697 16.2225L63.6495 15.8393C64.0084 15.7189 64.4001 15.4816 64.8258 15.1329L65.0813 15.3934C64.9825 15.4724 64.8881 15.5447 64.7937 15.6171L65.9524 16.3666L65.759 16.6655L64.476 15.8356ZM65.4003 16.9623C64.9854 17.6038 64.7166 17.9825 64.6028 18.0995C64.4857 18.2142 64.3158 18.2044 64.0941 18.061L64.0773 18.0501L64.1705 17.7293C64.2276 17.7663 64.2758 17.8022 64.3195 17.8304C64.3564 17.8543 64.4017 17.836 64.4497 17.7765C64.4933 17.7237 64.6326 17.5232 64.8585 17.1739L64.5446 17.0995L63.8363 18.1944L63.5408 18.0032L64.1817 17.0124L63.8644 16.9358L63.2974 17.8124C63.2018 17.9602 63.2022 18.07 63.303 18.1352L63.9377 18.5458C64.0083 18.5914 64.0729 18.6094 64.1282 18.5975C64.1946 18.5833 64.2975 18.4831 64.4391 18.2937L64.658 18.5591C64.4409 18.8284 64.2798 18.9671 64.1668 18.9798C64.067 18.9867 63.9489 18.9484 63.8078 18.8572L63.032 18.3553C62.8036 18.2076 62.7872 17.9826 62.9783 17.687L63.5171 16.8541L63.2243 16.7838L63.4112 16.495L63.704 16.5652L63.9951 16.1152L64.2772 16.2977L64.0512 16.647L64.3707 16.7202L64.7118 16.1929L65.0073 16.3841L64.7336 16.8073L65.4003 16.9623Z" fill="white"/>
<path d="M66.9384 17.1927L66.4235 16.8403L66.6042 16.5762L67.6935 17.3217C67.7055 17.2475 67.7153 17.1766 67.7205 17.1124L68.0966 17.2922C68.0801 17.373 68.0624 17.4627 68.0368 17.5567L69.179 18.3383L68.9983 18.6024L68.4734 18.2432L68.2421 18.3757L69.0179 18.9066L68.8326 19.1773L65.9476 17.2029L66.1328 16.9322L66.8821 17.445L66.9384 17.1927ZM67.2089 17.6687L67.9153 18.1521L68.1466 18.0195L67.2652 17.4164L67.2089 17.6687ZM66.196 17.5765L68.3945 19.081L67.6896 20.1109L65.4912 18.6064L66.196 17.5765ZM67.5453 19.6631L67.6582 19.4981L66.0738 18.4138L65.9608 18.5788L67.5453 19.6631ZM66.2274 18.1893L67.8119 19.2736L67.9225 19.1119L66.3381 18.0275L66.2274 18.1893ZM65.2776 18.6493L65.5384 18.9198C65.284 19.1287 65.0247 19.2808 64.7584 19.3797L64.6029 19.0261C64.8569 18.9382 65.0781 18.8133 65.2776 18.6493ZM66.429 20.586L65.6236 20.0348C65.3694 19.8608 65.323 19.6595 65.4767 19.435L65.7658 19.0125L66.0827 19.2293L65.8387 19.5858C65.7823 19.6684 65.8024 19.7452 65.9047 19.8152L66.5616 20.2647C66.6211 20.3054 66.673 20.3216 66.7119 20.3143C66.7653 20.3072 66.8471 20.2371 66.9597 20.1009L67.1913 20.4C67.0067 20.613 66.8634 20.7233 66.7591 20.7198C66.6693 20.7165 66.5578 20.6741 66.429 20.586ZM66.6606 19.4261C66.7023 19.6485 66.7222 19.8318 66.7215 19.9816L66.3365 19.9846C66.3351 19.8238 66.3164 19.6316 66.278 19.4114L66.6606 19.4261ZM67.6431 20.2002C67.6778 20.539 67.6876 20.8221 67.6749 21.046L67.2899 21.0491C67.3096 20.8008 67.3075 20.5135 67.2804 20.1847L67.6431 20.2002Z" fill="white"/>
<path d="M72.2479 20.4428L70.9418 22.2576L70.6301 22.0333L71.719 20.5204L70.3619 19.5437L69.2707 21.0598L68.959 20.8355L70.2675 19.0174L72.2479 20.4428ZM70.7319 20.0909L71.0371 20.3106L70.6002 20.9177C70.4675 21.0883 70.3335 21.2334 70.1936 21.3593L70.4695 21.558L69.9181 22.3241C69.8316 22.4443 69.8294 22.5363 69.9138 22.5971L70.3878 22.9382C70.4268 22.9663 70.4774 22.9781 70.5309 22.9722C70.59 22.9655 70.7141 22.8478 70.9 22.6169L71.1253 22.9269C70.863 23.2161 70.6843 23.3685 70.5871 23.3872C70.4848 23.3924 70.3761 23.3585 70.261 23.2856L69.6215 22.8253C69.3877 22.657 69.3713 22.4333 69.5699 22.1573L70.07 21.4626C69.8541 21.6325 69.6355 21.7512 69.4065 21.8229C68.996 21.9414 68.499 21.8991 67.9111 21.7027L67.9324 21.3238C68.5204 21.5203 68.9862 21.5647 69.3265 21.4548C69.6729 21.3296 69.9928 21.0768 70.295 20.698L70.7319 20.0909Z" fill="white"/>
<path d="M73.5771 21.1995L73.1151 23.1898L71.3301 24.1842L71.1611 23.8767L72.8083 22.9589L73.2348 21.1221L73.5771 21.1995ZM74.1236 21.6109L73.6616 23.6012L71.8766 24.5956L71.7075 24.2881L73.3548 23.3703L73.7685 21.5238L74.1236 21.6109Z" fill="white"/>
</svg>
