<svg width="47" height="6" viewBox="0 0 47 6" fill="none" xmlns="http://www.w3.org/2000/svg">
<path d="M5.72 0.692L6.08 0.848L5.304 2.56L6.064 4.272L5.72 4.428L4.892 2.56L5.72 0.692ZM6.416 0.692L6.76 0.848L6 2.56L6.76 4.272L6.416 4.428L5.588 2.56L6.416 0.692ZM7.688 0.768C7.944 0.96 8.16 1.152 8.336 1.344L8.052 1.632C7.896 1.448 7.68 1.248 7.404 1.04L7.688 0.768ZM7.156 1.904H8.08V3.564C8.196 3.46 8.32 3.348 8.452 3.224L8.568 3.664C8.304 3.904 8.024 4.116 7.728 4.308L7.568 3.932C7.636 3.872 7.672 3.796 7.672 3.708V2.304H7.156V1.904ZM8.588 2.384H10.54V2.764C10.428 3.108 10.244 3.408 9.988 3.66C10.236 3.82 10.536 3.96 10.892 4.084L10.668 4.444C10.276 4.284 9.944 4.108 9.68 3.912C9.368 4.132 8.988 4.308 8.532 4.44L8.3 4.088C8.712 3.968 9.06 3.816 9.348 3.632C9.092 3.376 8.912 3.096 8.816 2.784H8.588V2.384ZM9.208 2.784C9.296 3.012 9.44 3.22 9.648 3.404C9.852 3.22 10.008 3.016 10.12 2.784H9.208ZM8.86 0.836H10.3V1.664C10.3 1.752 10.348 1.8 10.448 1.8H10.792V2.18H10.336C10.036 2.18 9.888 2.04 9.888 1.76V1.228H9.272V1.336C9.272 1.752 9.056 2.076 8.632 2.3L8.352 1.98C8.688 1.84 8.86 1.64 8.86 1.38V0.836ZM12.416 1.868H13.448V0.708H13.88V1.868H14.86V2.284H13.88V4.428H13.448V2.284H12.416V1.868ZM11.712 0.74C11.964 0.936 12.18 1.132 12.36 1.324L12.072 1.616C11.92 1.432 11.7 1.236 11.416 1.028L11.712 0.74ZM11.156 1.896H12.108V3.568C12.224 3.468 12.348 3.356 12.48 3.232L12.588 3.66C12.328 3.9 12.052 4.116 11.756 4.308L11.596 3.932C11.668 3.872 11.704 3.8 11.704 3.716V2.296H11.156V1.896ZM15.92 2.652C15.872 3.328 15.712 3.92 15.444 4.428L15.116 4.132C15.384 3.64 15.52 3.004 15.524 2.228V0.84H18.58V1.908H17.488V2.272H18.736V2.652H17.488V3.028H18.468V4.428H18.072V4.264H16.56V4.428H16.16V3.028H17.084V2.652H15.92ZM17.084 1.908H15.936V2.272H17.084V1.908ZM16.56 3.888H18.072V3.404H16.56V3.888ZM18.164 1.22H15.936V1.532H18.164V1.22ZM20.276 1.356H21.316C21.252 1.172 21.184 0.996 21.108 0.824L21.52 0.712C21.608 0.952 21.676 1.164 21.728 1.356H22.74V1.764H21.736V2.576H22.632V2.972H21.736V3.884H22.832V4.292H20.22V3.884H21.312V2.972H20.4V2.576H21.312V1.764H20.276V1.356ZM20 0.68L20.392 0.864C20.292 1.172 20.16 1.464 20 1.744V4.424H19.588V2.344C19.48 2.472 19.368 2.6 19.248 2.728L19.108 2.28C19.508 1.828 19.808 1.296 20 0.68ZM26.156 1.992C26.472 2.392 26.716 2.744 26.892 3.04L26.54 3.284C26.372 2.972 26.148 2.624 25.868 2.244V4.412H25.46V2.472C25.252 2.784 25.004 3.072 24.72 3.328L24.464 2.996C25.012 2.516 25.4 1.94 25.624 1.268H24.652V0.868H26.724V1.268H26.024C25.976 1.42 25.924 1.564 25.868 1.708V2.172L26.156 1.992ZM23.256 2.128H23.656V1.384H23.196V0.984H24.532V1.384H24.064V2.128H24.476V2.524H24.064V3.312C24.224 3.26 24.384 3.204 24.544 3.144V3.544C24.136 3.696 23.7 3.824 23.24 3.928L23.136 3.528C23.312 3.5 23.484 3.464 23.656 3.424V2.524H23.256V2.128ZM28.48 0.984H29.32C29.288 0.9 29.252 0.82 29.22 0.748L29.664 0.676C29.696 0.768 29.724 0.872 29.752 0.984H30.676V1.328H30.28C30.248 1.44 30.208 1.544 30.164 1.648H30.792V1.996H28.36V1.648H28.924C28.888 1.536 28.848 1.428 28.808 1.328H28.48V0.984ZM29.764 1.648C29.82 1.544 29.864 1.436 29.896 1.328H29.22C29.252 1.428 29.288 1.536 29.32 1.648H29.764ZM28.576 2.152H30.552V3.496H30.072V3.9C30.072 3.972 30.096 4.012 30.144 4.012H30.396C30.428 4.012 30.452 3.992 30.472 3.96C30.492 3.924 30.504 3.812 30.512 3.62L30.888 3.736C30.86 4.044 30.816 4.228 30.752 4.284C30.688 4.34 30.592 4.368 30.464 4.368H30.036C29.788 4.368 29.664 4.24 29.664 3.984V3.496H29.344C29.292 3.72 29.196 3.908 29.052 4.052C28.884 4.212 28.604 4.336 28.208 4.432L28.052 4.056C28.368 4 28.596 3.916 28.736 3.808C28.836 3.728 28.908 3.624 28.952 3.496H28.576V2.152ZM30.168 3.16V2.964H28.956V3.16H30.168ZM28.956 2.68H30.168V2.48H28.956V2.68ZM28.384 3.072V3.496C28.032 3.672 27.656 3.82 27.256 3.944L27.144 3.484C27.272 3.46 27.4 3.428 27.528 3.392V2.052H27.156V1.648H27.528V0.732H27.948V1.648H28.248V2.052H27.948V3.256C28.092 3.2 28.24 3.14 28.384 3.072ZM32.668 1.364V4.168H32.268V3.968H31.676V4.284H31.276V1.364H31.66C31.732 1.152 31.784 0.932 31.816 0.704L32.236 0.76C32.192 0.976 32.132 1.18 32.06 1.364H32.668ZM31.676 3.584H32.268V2.828H31.676V3.584ZM31.676 2.456H32.268V1.756H31.676V2.456ZM33.396 2.336C33.652 2.66 33.848 2.944 33.988 3.192L33.652 3.424C33.504 3.16 33.304 2.868 33.056 2.548L33.396 2.336ZM34.728 1.364C34.728 2.764 34.708 3.628 34.668 3.956C34.628 4.236 34.436 4.376 34.092 4.376C34.012 4.376 33.868 4.368 33.66 4.352L33.56 3.972C33.736 3.984 33.892 3.992 34.024 3.992C34.168 3.992 34.252 3.912 34.276 3.756C34.3 3.564 34.312 2.904 34.32 1.772H33.352C33.244 2.012 33.116 2.228 32.968 2.42L32.716 2.088C32.98 1.712 33.156 1.248 33.252 0.7L33.664 0.752C33.624 0.968 33.572 1.172 33.512 1.364H34.728ZM35.256 1.036H36.992V1.444H36.424V2.176H36.828V2.392C37.076 1.924 37.244 1.364 37.336 0.708L37.748 0.756C37.716 0.952 37.68 1.14 37.636 1.316H38.792V1.724H38.536C38.504 2.344 38.36 2.872 38.1 3.312C38.324 3.632 38.588 3.884 38.892 4.064L38.652 4.42C38.344 4.232 38.076 3.976 37.852 3.656C37.58 3.972 37.236 4.228 36.816 4.424L36.56 4.08C37.012 3.888 37.368 3.628 37.624 3.296C37.476 3.032 37.348 2.736 37.244 2.408C37.164 2.56 37.08 2.704 36.992 2.84L36.784 2.568H36.424V3.444C36.608 3.388 36.788 3.332 36.956 3.276V3.66C36.464 3.836 35.896 4 35.252 4.148L35.14 3.764L35.368 3.716V1.908H35.756V3.624C35.848 3.6 35.936 3.58 36.02 3.556V1.444H35.256V1.036ZM37.856 2.916C38.024 2.564 38.116 2.168 38.132 1.724H37.52C37.5 1.788 37.48 1.848 37.46 1.904C37.568 2.284 37.7 2.62 37.856 2.916ZM39.212 1.868H40.788V1.644H41.168L40.94 1.496C41.112 1.24 41.232 0.972 41.304 0.684L41.704 0.772C41.68 0.852 41.656 0.932 41.632 1.004H42.76V1.372H42.104C42.176 1.484 42.236 1.592 42.284 1.692L41.92 1.832C41.848 1.672 41.768 1.52 41.68 1.372H41.488C41.428 1.5 41.364 1.616 41.292 1.724L41.212 1.672V1.868H42.788V2.244H41.212V2.444H42.524V3.228C42.524 3.46 42.396 3.576 42.144 3.576H41.9C42.188 3.732 42.516 3.864 42.88 3.976L42.66 4.356C42.1 4.148 41.62 3.864 41.212 3.512V4.432H40.788V3.528C40.396 3.888 39.952 4.172 39.46 4.376L39.212 4.004C39.824 3.792 40.348 3.496 40.788 3.112V2.808H39.956V3.56H39.544V2.444H40.788V2.244H39.212V1.868ZM41.212 3.12C41.404 3.28 41.62 3.428 41.868 3.56L41.768 3.208L42.028 3.228C42.08 3.228 42.108 3.196 42.108 3.14V2.808H41.212V3.12ZM39.804 1.372C39.72 1.508 39.628 1.636 39.528 1.756L39.168 1.528C39.408 1.264 39.58 0.98 39.68 0.68L40.08 0.768C40.052 0.848 40.02 0.928 39.988 1.004H40.916V1.372H40.364C40.436 1.484 40.5 1.592 40.552 1.696L40.176 1.836C40.104 1.676 40.024 1.52 39.936 1.372H39.804ZM43.584 0.692L44.412 2.56L43.584 4.428L43.24 4.272L44 2.56L43.24 0.848L43.584 0.692ZM44.28 0.692L45.108 2.56L44.28 4.428L43.936 4.272L44.696 2.56L43.92 0.848L44.28 0.692Z" fill="white"/>
<g clip-path="url(#clip0_249_918)">
<path d="M0 0.600098H4V4.6001H0V0.600098Z" fill="#005293"/>
<path d="M1.04688 0.600098V2.2001H0V3.0001H1.04688V4.6001H1.84687V3.0001H4V2.2001H1.84687V0.600098H1.04688Z" fill="#FECB00"/>
</g>
<defs>
<clipPath id="clip0_249_918">
<rect y="0.600098" width="4" height="4" rx="2" fill="white"/>
</clipPath>
</defs>
</svg>
