<svg width="35" height="6" viewBox="0 0 35 6" fill="none" xmlns="http://www.w3.org/2000/svg">
<path d="M5.72 0.691969L6.08 0.847969L5.304 2.55997L6.064 4.27197L5.72 4.42797L4.892 2.55997L5.72 0.691969ZM6.416 0.691969L6.76 0.847969L6 2.55997L6.76 4.27197L6.416 4.42797L5.588 2.55997L6.416 0.691969ZM7.264 2.15997H7.656V1.32797H7.216V0.947969H8.46V1.32797H8.056V2.15997H8.412V2.54397H8.056V3.39597C8.196 3.34397 8.336 3.28797 8.472 3.22797V3.63197C8.1 3.78797 7.704 3.91997 7.288 4.03197L7.188 3.63197C7.344 3.59997 7.5 3.56397 7.656 3.52397V2.54397H7.264V2.15997ZM10.252 1.44397V0.879969H10.648V1.80797H8.656V0.879969H9.056V1.44397H9.444V0.723969H9.852V1.44397H10.252ZM8.528 2.03597H10.804V2.41997H9.804C9.78 2.51597 9.756 2.60797 9.724 2.69597H10.724V4.05597C10.724 4.28397 10.624 4.39997 10.424 4.39997H10.244L10.144 4.03197L10.304 4.04397C10.336 4.04397 10.356 4.01997 10.356 3.97597V3.06397H10.112V4.32797H9.768V3.06397H9.556V4.33197H9.212V3.06397H8.98V4.39997H8.604V2.69597H9.316C9.348 2.60397 9.372 2.51197 9.392 2.41997H8.528V2.03597ZM14.492 1.19197V3.05597H14.832V3.45597H11.156V3.05597H11.512V1.19197H12.368V0.703969H12.764V1.19197H13.244V0.703969H13.64V1.19197H14.492ZM11.912 3.05597H12.368V2.48397H11.912V3.05597ZM12.764 3.05597H13.244V2.48397H12.764V3.05597ZM13.64 3.05597H14.092V2.48397H13.64V3.05597ZM11.912 2.10397H12.368V1.57597H11.912V2.10397ZM12.764 1.57597V2.10397H13.244V1.57597H12.764ZM13.64 1.57597V2.10397H14.092V1.57597H13.64ZM13.572 3.47597C14.02 3.64797 14.424 3.85597 14.792 4.09997L14.568 4.45197C14.176 4.17197 13.772 3.95197 13.36 3.79197L13.572 3.47597ZM12.404 3.47597L12.664 3.77597C12.316 4.04797 11.896 4.27597 11.4 4.45997L11.22 4.07197C11.7 3.91997 12.096 3.71997 12.404 3.47597ZM16.636 2.34797H15.94V3.81597C15.94 3.91997 15.992 3.97197 16.104 3.97197H16.768C16.884 3.97197 16.956 3.93997 16.98 3.87997C17.008 3.81597 17.032 3.68797 17.048 3.48797L17.44 3.62397C17.408 3.97597 17.356 4.18797 17.288 4.25997C17.22 4.32397 17.088 4.35597 16.896 4.35597H15.916C15.652 4.35597 15.52 4.22797 15.52 3.97197V2.12397L15.356 2.28797L15.112 1.95197C15.488 1.60797 15.832 1.20397 16.148 0.731969H16.452C16.808 1.09997 17.14 1.48397 17.452 1.87597L17.18 2.15997C16.84 1.70397 16.56 1.35597 16.336 1.12397C16.136 1.41997 15.912 1.70797 15.656 1.97997H17.044V3.09597C17.04 3.31997 16.916 3.43997 16.672 3.45597C16.512 3.45597 16.364 3.44797 16.228 3.43997L16.124 3.05197C16.272 3.06797 16.4 3.07597 16.504 3.07597C16.592 3.07597 16.636 3.03197 16.636 2.95197V2.34797ZM17.612 1.06797H18.02V3.52797H17.612V1.06797ZM18.308 4.37997H17.712L17.616 3.98397C17.808 3.99997 17.992 4.00797 18.164 4.00797C18.26 4.00797 18.308 3.94797 18.308 3.83597V0.727969H18.724V3.93997C18.724 4.23197 18.584 4.37997 18.308 4.37997ZM22.568 0.739969L22.772 1.11597C22.432 1.22797 22.056 1.29597 21.644 1.31997V1.93997H22.856V2.33597H22.488V4.41997H22.076V2.33597H21.644V2.71597C21.624 3.42397 21.468 3.98797 21.176 4.41197L20.876 4.09597C21.1 3.76397 21.224 3.30397 21.24 2.71597V0.979969C21.736 0.971969 22.176 0.891969 22.568 0.739969ZM19.228 1.01997H19.92C19.872 0.919969 19.82 0.827969 19.764 0.743969L20.196 0.671969C20.244 0.775969 20.288 0.891969 20.336 1.01997H21.064V1.40397H19.228V1.01997ZM19.188 1.92797H19.596C19.548 1.79597 19.492 1.67197 19.428 1.55997L19.796 1.41997C19.856 1.56397 19.912 1.73197 19.968 1.92797H20.32C20.38 1.76397 20.432 1.59597 20.476 1.41997L20.848 1.55197C20.8 1.68797 20.752 1.81197 20.7 1.92797H21.088V2.30797H20.364V2.63197H21.02V3.01197H20.364V4.05997C20.364 4.30797 20.224 4.43197 19.948 4.43197H19.74L19.648 4.04797C19.708 4.06397 19.764 4.07597 19.812 4.07597C19.9 4.07597 19.948 4.03597 19.948 3.95997V3.01197H19.252V2.63197H19.948V2.30797H19.188V1.92797ZM19.476 3.16797L19.852 3.24797C19.76 3.65597 19.632 4.00797 19.464 4.30797L19.116 4.08797C19.288 3.79997 19.408 3.49197 19.476 3.16797ZM20.772 3.14397C20.868 3.39197 20.948 3.61997 21.004 3.82797L20.652 3.96397C20.592 3.71597 20.516 3.47197 20.428 3.23597L20.772 3.14397ZM23.792 0.731969H24.2V1.37997H24.936V1.76397H24.2V2.38797H24.808V3.89197C25.088 3.74797 25.34 3.56397 25.568 3.33597C25.524 3.19997 25.484 3.05597 25.444 2.89597C25.396 2.69597 25.356 2.46797 25.332 2.20397L24.82 2.29597L24.76 1.91597L25.296 1.81997C25.272 1.49197 25.26 1.12797 25.26 0.727969H25.66C25.664 1.11197 25.676 1.45197 25.696 1.74797L26.712 1.56797L26.772 1.94797L25.724 2.13597C25.748 2.39197 25.776 2.60397 25.816 2.77197C25.832 2.85197 25.852 2.92797 25.868 2.99597C26.044 2.76397 26.204 2.50397 26.344 2.21597L26.668 2.43197C26.464 2.82397 26.244 3.15997 26.008 3.43997C26.036 3.51597 26.068 3.58397 26.1 3.63997C26.204 3.81197 26.28 3.89997 26.328 3.89997C26.384 3.89997 26.444 3.71997 26.504 3.36397L26.84 3.55197C26.74 4.09597 26.592 4.36797 26.392 4.36797C26.232 4.36797 26.064 4.24797 25.892 4.01197C25.832 3.93197 25.776 3.83997 25.728 3.73597C25.46 3.98797 25.176 4.17597 24.872 4.29997L24.652 3.99997H23.672V4.27197H23.272V2.38797H23.792V0.731969ZM23.672 3.61997H24.412V2.77197H23.672V3.61997ZM26.104 0.803969C26.292 1.00397 26.44 1.17997 26.544 1.32797L26.236 1.53997C26.132 1.37597 25.988 1.19197 25.808 0.987969L26.104 0.803969ZM30.52 2.85597C30.24 2.71997 29.996 2.57597 29.788 2.41597C29.564 2.57997 29.308 2.72797 29.02 2.85597H30.52ZM28.944 2.88797C28.904 2.90397 28.864 2.91997 28.828 2.93597L28.684 2.74397V4.06797H28.332V3.91997H27.636V4.06797H27.26V0.963969H28.684V1.65597C28.912 1.42397 29.112 1.11597 29.28 0.727969L29.696 0.815969C29.656 0.899969 29.62 0.979969 29.584 1.05997H30.612V1.37997C30.492 1.67597 30.312 1.93997 30.072 2.17197C30.308 2.32397 30.58 2.45597 30.884 2.56797L30.704 2.93997C30.656 2.91997 30.608 2.89997 30.568 2.87597V4.38797H30.16V4.23997H29.352V4.38797H28.944V2.88797ZM28.684 1.80397V2.56397C28.988 2.44397 29.256 2.30397 29.48 2.14797C29.352 2.01997 29.24 1.89197 29.148 1.75997C29.064 1.86397 28.976 1.95597 28.888 2.04397L28.684 1.80397ZM29.748 1.92797C29.904 1.77997 30.032 1.61997 30.132 1.45197H29.364C29.36 1.45997 29.356 1.46397 29.356 1.46797C29.46 1.63597 29.592 1.78797 29.748 1.92797ZM29.352 3.85197H30.16V3.24397H29.352V3.85197ZM28.332 3.55997V2.60797H28.144V3.55997H28.332ZM28.332 2.24797V1.34397H28.144V2.24797H28.332ZM27.816 1.34397H27.636V2.24797H27.816V1.34397ZM27.636 2.60797V3.55997H27.816V2.60797H27.636ZM31.584 0.691969L32.412 2.55997L31.584 4.42797L31.24 4.27197L32 2.55997L31.24 0.847969L31.584 0.691969ZM32.28 0.691969L33.108 2.55997L32.28 4.42797L31.936 4.27197L32.696 2.55997L31.92 0.847969L32.28 0.691969Z" fill="white"/>
<g clip-path="url(#clip0_249_925)">
<path d="M0 0.999969H4V4.99997H0V0.999969Z" fill="#005293"/>
<path d="M1.04688 0.999969V2.59997H0V3.39997H1.04688V4.99997H1.84687V3.39997H4V2.59997H1.84687V0.999969H1.04688Z" fill="#FECB00"/>
</g>
<defs>
<clipPath id="clip0_249_925">
<rect y="0.999969" width="4" height="4" rx="2" fill="white"/>
</clipPath>
</defs>
</svg>
