<svg width="94" height="7" viewBox="0 0 94 7" fill="none" xmlns="http://www.w3.org/2000/svg">
<path d="M1.93548 0.760816L2.26648 0.913172L1.42816 2.61659L2.13335 4.35878L1.80856 4.49466L1.04428 2.60694L1.93548 0.760816ZM2.61926 0.777995L2.93427 0.929948L2.11194 2.63377L2.81713 4.37596L2.49234 4.51184L1.72806 2.62412L2.61926 0.777995ZM4.46519 0.868381C4.61034 1.07208 4.75082 1.29567 4.88263 1.53905L4.63049 1.65675L5.45823 1.67755C5.60993 1.45329 5.74713 1.18466 5.86969 0.875658L6.23818 0.984943C6.14124 1.24658 6.02126 1.47963 5.88609 1.68829L6.64585 1.70738L6.63335 2.07517L5.32976 2.04242L5.32555 2.16635C5.31103 2.35804 5.28506 2.53343 5.2515 2.69663L6.84299 2.73662L6.83049 3.1044L5.43093 3.06924C5.61043 3.55789 6.09736 3.95023 6.8916 4.25026L6.65544 4.60442C5.82739 4.23952 5.31105 3.77043 5.09828 3.20093C5.01992 3.38701 4.92624 3.5527 4.81738 3.69401C4.53323 4.04697 4.08 4.31166 3.45767 4.48808L3.26101 4.15104C3.88361 3.96663 4.30804 3.72522 4.5383 3.42692C4.61822 3.3129 4.68655 3.18658 4.74315 3.05197L3.37558 3.01761L3.38808 2.64982L4.85962 2.68679C4.89732 2.51969 4.92729 2.34439 4.94167 2.1567L4.94589 2.03278L3.6383 1.99993L3.6508 1.63214L4.50653 1.65364C4.38245 1.41845 4.24943 1.21106 4.11159 1.02754L4.46519 0.868381ZM7.64424 1.06428L10.6713 1.14033L10.6586 1.51211L9.38305 1.48006L9.34989 2.4555L10.9054 2.49458L10.8925 2.87436L9.33698 2.83528L9.29065 4.19849C9.28113 4.47833 9.12829 4.61853 8.83638 4.6112L8.20058 4.59523L8.13311 4.22543C8.33664 4.24255 8.5323 4.25546 8.71624 4.26009C8.8442 4.2633 8.91022 4.20494 8.91403 4.09301L8.9571 2.82574L7.33362 2.78495L7.34653 2.40517L8.97001 2.44596L9.00317 1.47052L7.6316 1.43606L7.64424 1.06428ZM11.5439 2.31456L11.8994 1.15518L12.2771 1.22868L12.0441 1.96303L12.6359 1.9779C12.7219 1.68398 12.7925 1.37367 12.8516 1.04706L13.2379 1.10478C13.1792 1.41939 13.1091 1.71371 13.0318 1.98784L14.8632 2.03385L14.8508 2.39764L12.9234 2.34922C12.879 2.48014 12.8308 2.60297 12.7867 2.72189L14.3862 2.76207L14.3753 3.08189C14.2602 3.40709 14.0542 3.698 13.7493 3.95441C14.0475 4.12995 14.4101 4.2951 14.8331 4.44977L14.6249 4.80464C14.1471 4.61658 13.7458 4.41045 13.425 4.19433C13.1016 4.40627 12.707 4.59641 12.241 4.76475L12.0533 4.39994C12.4581 4.26606 12.8074 4.1148 13.0971 3.95003C12.8443 3.73562 12.656 3.50683 12.536 3.26775C12.228 3.85217 11.8481 4.31476 11.4003 4.6556L11.2163 4.29889C11.7847 3.82503 12.2191 3.17176 12.5196 2.33908L11.5439 2.31456ZM12.819 3.0668C12.9429 3.30598 13.1434 3.53107 13.4205 3.73809C13.6794 3.54054 13.8708 3.32529 13.9906 3.09623L12.819 3.0668ZM13.9112 1.07768C14.18 1.29249 14.4047 1.51019 14.5855 1.72679L14.3043 1.99181C14.1514 1.77991 13.9348 1.55841 13.6467 1.3231L13.9112 1.07768ZM17.2135 2.23694L17.5814 2.24618L17.5658 2.70592L18.6695 2.73364L18.6233 4.09286C18.6139 4.3687 18.4692 4.5051 18.1893 4.49807L17.8254 4.48893L17.7454 4.13482L18.0808 4.15525C18.1968 4.15817 18.2587 4.10371 18.2622 3.99977L18.2936 3.0763L17.5538 3.05771L17.4922 4.87267L17.1243 4.86342L17.186 3.04847L16.4382 3.02969L16.3887 4.48485L16.0249 4.4757L16.0754 2.98856C15.8892 3.16794 15.6874 3.33491 15.4701 3.4895L15.237 3.16355C15.7207 2.82761 16.114 2.44138 16.4089 2.00867L15.4132 1.98365L15.4258 1.61187L16.6294 1.64211C16.7151 1.47621 16.7888 1.31002 16.8505 1.14352L17.2327 1.20114C17.1753 1.35974 17.1142 1.51024 17.0453 1.65255L18.9287 1.69987L18.9161 2.07166L16.8527 2.01982C16.7088 2.25227 16.5492 2.47232 16.3742 2.67598L17.1979 2.69668L17.2135 2.23694ZM22.533 1.27828L22.848 1.43023L22.0257 3.13405L22.7309 4.87624L22.4061 5.01212L21.6418 3.1244L22.533 1.27828ZM24.7873 1.36292L25.1792 1.37276L25.1383 2.57607L26.6178 2.61324L26.6053 2.98103L25.1258 2.94386L25.0712 4.55093L26.8586 4.59583L26.8461 4.96362L23.2632 4.87361L23.2757 4.50582L24.6793 4.54108L24.7873 1.36292ZM28.9004 2.10243C28.8412 2.19696 28.7783 2.27941 28.7156 2.35785L30.707 2.40788C30.6832 2.75538 30.6607 3.0629 30.6436 3.33055L30.9595 3.33848L30.9476 3.69028L30.6157 3.68194C30.5954 3.9255 30.5765 4.12908 30.5629 4.29278L30.8628 4.30032L30.8518 4.62413L30.5239 4.61589C30.5125 4.71564 30.4983 4.7793 30.4892 4.81108C30.4448 4.942 30.3655 5.03603 30.2515 5.09319C30.1375 5.15034 29.9765 5.1783 29.7606 5.17288C29.6486 5.17006 29.5245 5.17095 29.3805 5.16733L29.2843 4.82082C29.4438 4.83683 29.5915 4.84854 29.7194 4.85176C29.8154 4.85417 29.9038 4.84438 29.9763 4.8302C30.0492 4.80402 30.1071 4.74946 30.1458 4.67041C30.1502 4.65852 30.1549 4.63863 30.164 4.60685L28.2686 4.55924C28.3433 4.24503 28.4099 3.93461 28.4603 3.62779L28.0925 3.61855L28.1044 3.26676L28.5123 3.277C28.5493 3.01386 28.5779 2.75851 28.5945 2.50685C28.5198 2.585 28.4534 2.65535 28.3872 2.71771L28.1572 2.41985C28.4214 2.18242 28.6488 1.85204 28.8433 1.4288L29.2204 1.5183C29.1816 1.60135 29.1429 1.6804 29.1043 1.75545L30.8917 1.80036L30.8798 2.15215L28.9004 2.10243ZM28.8202 3.63684C28.7848 3.85601 28.7458 4.05908 28.6995 4.24597L29.5872 4.26827C29.4717 4.13333 29.3204 3.9935 29.1252 3.84855L29.3401 3.64989L28.8202 3.63684ZM29.6112 4.26888L30.203 4.28374C30.2164 4.12404 30.2354 3.92046 30.2558 3.6729L29.408 3.6516C29.5836 3.78405 29.7312 3.91579 29.8509 4.04683L29.6112 4.26888ZM30.2797 3.3214L30.324 2.72635L28.9324 2.69139C28.9134 2.89897 28.8946 3.09855 28.8722 3.28604L29.6519 3.30563C29.5358 3.19068 29.3839 3.06683 29.196 2.94208L29.4398 2.71614C29.6317 2.841 29.7954 2.96914 29.9272 3.09649L29.6999 3.30684L30.2797 3.3214ZM27.6689 1.47932C27.9033 1.64926 28.0975 1.82218 28.2557 1.9942L27.9746 2.25922C27.8361 2.09569 27.6418 1.92277 27.3882 1.73234L27.6689 1.47932ZM27.5719 2.44916C27.8061 2.62309 28.0002 2.80001 28.1582 2.98003L27.8812 3.24114C27.7427 3.07762 27.5486 2.90069 27.291 2.70617L27.5719 2.44916ZM27.8633 3.64881L28.1869 3.78497C28.0071 4.24458 27.8085 4.67171 27.5907 5.07435L27.2441 4.9096C27.4782 4.49937 27.6846 4.08043 27.8633 3.64881ZM31.3707 1.95643L32.9462 1.99601C32.8911 1.85058 32.8317 1.71306 32.7678 1.59142L33.1779 1.5377C33.2331 1.67913 33.2838 1.83644 33.3341 2.00575L34.9376 2.04604L34.9252 2.40983L33.3337 2.36984L33.3189 2.80559L34.6185 2.83824L34.5681 4.32138C34.5594 4.57724 34.4189 4.70574 34.155 4.69911L33.7511 4.68897L33.6674 4.32677L34.0466 4.3563C34.1426 4.35871 34.1922 4.31194 34.1952 4.22399L34.2302 3.19259L33.3065 3.16938L33.2353 5.26417L32.8514 5.25453L32.9226 3.15974L32.0469 3.13774L31.9947 4.67285L31.6229 4.66351L31.6874 2.76461L32.935 2.79595L32.9498 2.3602L31.3583 2.32022L31.3707 1.95643ZM35.7384 3.21047C35.6176 3.35148 35.4889 3.48828 35.3483 3.62079L35.2381 3.21391C35.6614 2.76842 35.9833 2.24836 36.1999 1.64563L36.554 1.82257C36.4439 2.11989 36.3021 2.40441 36.1328 2.67623L36.042 5.34669L35.6661 5.33724L35.7384 3.21047ZM36.5393 2.13829L37.3071 2.15758L37.4315 1.67657L37.8021 1.72189C37.7648 1.877 37.7238 2.02401 37.6869 2.16712L38.8386 2.19605L38.8261 2.56384L37.5785 2.5325C37.534 2.66342 37.4938 2.78644 37.4537 2.90547L38.9772 2.94374L38.9649 3.30753L37.3214 3.26624C37.2603 3.41675 37.2035 3.55536 37.143 3.68588L38.7345 3.72586L38.7234 4.05367C38.5548 4.30551 38.3021 4.55523 37.9574 4.80664C38.1224 4.89881 38.2831 4.99888 38.4356 5.10274L38.2085 5.42512C37.7318 5.08505 37.2367 4.81654 36.7312 4.61579L36.9454 4.32109C37.1823 4.41507 37.4108 4.52084 37.6312 4.6304C37.9177 4.44555 38.1481 4.25928 38.3187 4.06751L36.6392 4.02532C36.7516 3.78008 36.8564 3.52264 36.9575 3.2571L36.3257 3.24123L36.3381 2.87744L37.0858 2.89623C37.126 2.7732 37.1662 2.65018 37.2026 2.52305L36.5268 2.50608L36.5393 2.13829ZM40.602 4.47697L40.5897 4.84076C40.2195 5.01552 39.7985 5.15698 39.3308 5.25726L39.2998 4.87638C39.7913 4.78069 40.228 4.64763 40.602 4.47697ZM39.9991 1.72907L40.3581 1.88213C40.1499 2.35303 39.9448 2.73599 39.7428 3.02699C39.8793 3.01442 40.016 2.99785 40.1527 2.97728C40.2251 2.85106 40.3018 2.71295 40.3788 2.56684L40.7143 2.7033C40.3738 3.30292 40.0907 3.74393 39.8609 4.02624C40.1112 3.9645 40.3661 3.88288 40.6258 3.77738L40.614 4.12518C40.176 4.29422 39.7601 4.40381 39.37 4.45803L39.282 4.10372C39.3511 4.07344 39.4083 4.03887 39.4578 3.9961C39.5862 3.86729 39.7499 3.64334 39.9488 3.32425C39.7638 3.35161 39.5709 3.37477 39.37 3.39773L39.2859 3.04752C39.3467 3.02504 39.4044 2.97448 39.4549 2.90373C39.6589 2.55275 39.8403 2.1612 39.9991 1.72907ZM40.7532 3.56052L40.6807 3.2226C40.7129 3.21541 40.7413 3.20412 40.7576 3.19653C40.8806 3.11159 41.0443 2.88764 41.2444 2.53257L40.6246 2.517L40.637 2.15321L41.6087 2.17762C41.5651 2.04849 41.5171 1.92725 41.465 1.81391L41.855 1.75969C41.9027 1.88892 41.9499 2.03015 41.9926 2.18727L42.8683 2.20927L42.8559 2.57306L41.6403 2.54252C41.4786 2.82653 41.3351 3.04299 41.2097 3.19988C41.5347 3.17604 41.86 3.1442 42.1815 3.10426C42.1053 2.99032 42.029 2.88037 41.9527 2.77043L42.2468 2.59776C42.4991 2.9442 42.6929 3.24915 42.8281 3.50862L42.5253 3.70506C42.4804 3.61191 42.4276 3.51856 42.3749 3.42121C41.8764 3.48471 41.3346 3.53111 40.7532 3.56052ZM41.0449 3.69188L41.4128 3.70112C41.3756 4.20833 41.299 4.57851 41.187 4.81176C41.0626 5.0567 40.8633 5.26775 40.5851 5.44482L40.3554 5.13896C40.5842 5.00067 40.75 4.83279 40.8528 4.63532C40.9513 4.44574 41.014 4.13122 41.0449 3.69188ZM42.4507 5.42767L42.1948 5.42124C41.9109 5.41411 41.7753 5.28266 41.7838 5.03081L41.8302 3.6676L42.1941 3.67674L42.1502 4.96799C42.148 5.03195 42.1706 5.07253 42.2184 5.08174L42.4423 5.08736C42.5145 5.08117 42.5603 5.03031 42.5715 4.93457C42.5872 4.82693 42.6005 4.67122 42.6073 4.47134L42.9313 4.59551C42.9182 4.97928 42.8783 5.21035 42.8194 5.29689C42.7607 5.37544 42.6352 5.4163 42.4507 5.42767ZM44.9551 2.51376L43.6155 2.48011L43.6279 2.11632L46.6949 2.19337L46.6825 2.55716L45.3389 2.5234L45.2563 4.954L46.8518 4.99408L46.8393 5.36187L43.2605 5.27196L43.273 4.90417L44.8724 4.94436L44.9551 2.51376ZM47.3808 2.26661L48.2845 2.28932L48.2963 1.94152L48.6842 1.95126L48.6724 2.29906L49.6321 2.32317L49.6439 1.97537L50.0318 1.98512L50.0199 2.33292L50.9237 2.35562L50.9116 2.71142L50.0078 2.68871L49.9971 3.00453L49.6092 2.99478L49.62 2.67897L48.6603 2.65486L48.6495 2.97067L48.2617 2.96093L48.2724 2.64511L47.3687 2.62241L47.3808 2.26661ZM47.7169 3.09129L50.3721 3.15799L50.3597 3.52178C49.2397 4.09381 48.5124 4.53166 48.1819 4.83545C48.0744 4.93677 48.0116 5.01922 47.9892 5.09067C47.9871 5.15064 48.018 5.18343 48.09 5.18523L50.0534 5.23456C50.1613 5.23727 50.2463 5.2114 50.304 5.16083C50.3616 5.11427 50.4175 4.88361 50.4716 4.46885L50.8186 4.62161C50.7589 5.08424 50.6734 5.36217 50.5581 5.4553C50.4471 5.54453 50.2855 5.58849 50.0775 5.58326L48.0982 5.53353C47.7463 5.52469 47.5785 5.39645 47.587 5.14859C47.5927 4.98069 47.7314 4.78412 47.9952 4.55868C48.3416 4.2593 48.9218 3.90977 49.7279 3.50591L47.7046 3.45508L47.7169 3.09129ZM51.5221 2.41067L52.3818 2.43226C52.3339 2.31103 52.2816 2.20168 52.221 2.10013L52.6231 2.04622C52.6751 2.16356 52.7226 2.29679 52.7697 2.44201L53.5415 2.4614C53.6058 2.33498 53.6584 2.20026 53.6951 2.06115L54.1013 2.12336C54.0611 2.24639 54.0091 2.36112 53.9453 2.47154L54.7771 2.49244L54.7654 2.83624L53.3298 2.80018L53.3195 3.104L54.5431 3.13474L54.532 3.46255L53.3084 3.43181L53.2979 3.73963L54.8654 3.77901L54.8535 4.13081L51.3346 4.04241L51.3465 3.69061L52.914 3.72999L52.9245 3.42217L51.7129 3.39173L51.724 3.06392L52.9356 3.09436L52.946 2.79053L51.5104 2.75447L51.5221 2.41067ZM52.9275 4.15845L53.31 4.20807C53.2954 4.28372 53.2768 4.35928 53.2544 4.43073L54.7539 4.4684L54.7417 4.8282L53.4221 4.79504C53.6834 5.1137 54.1841 5.33833 54.924 5.46895L54.7119 5.82372C53.8618 5.63432 53.3123 5.31643 53.0595 4.86596C52.9707 5.00776 52.8665 5.12918 52.7428 5.23411C52.471 5.45934 52.0049 5.63168 51.3365 5.75093L51.1932 5.37522C51.7644 5.28955 52.1812 5.15598 52.4396 4.97042C52.5218 4.90846 52.5879 4.84611 52.6464 4.77556L51.4028 4.74431L51.415 4.38452L52.8545 4.42069C52.8855 4.33344 52.9085 4.24599 52.9275 4.15845ZM55.4225 3.0488L56.942 3.08698L56.9734 2.16351L57.3493 2.17295L57.3179 3.09642L58.8414 3.1347L58.8291 3.49849L57.6534 3.46895C57.8882 4.09902 58.3011 4.66555 58.8924 5.16854L58.6256 5.48192C57.9856 4.88168 57.5441 4.21441 57.3049 3.4802L57.2239 5.86282L56.848 5.85338L56.9287 3.47875C56.6096 4.27096 56.1034 4.91842 55.4101 5.41714L55.2137 5.07212C55.8282 4.65544 56.2869 4.11081 56.5818 3.44203L55.4102 3.41259L55.4225 3.0488ZM58.001 2.19333C58.2207 2.43891 58.3896 2.65121 58.5076 2.83023L58.1964 3.03847C58.0752 2.83537 57.9066 2.61507 57.6988 2.36979L58.001 2.19333ZM60.1492 2.21929L60.5036 2.39224C60.4017 2.68176 60.2763 2.95468 60.1234 3.21491L60.0305 5.94934L59.6466 5.93969L59.7194 3.79693C59.5983 3.94593 59.4694 4.08673 59.3327 4.22333L59.2225 3.81645C59.6301 3.36257 59.9404 2.83021 60.1492 2.21929ZM60.6704 2.42844L62.6058 2.47706L62.5607 3.80429L61.7769 3.7846L61.765 4.1364L62.8846 4.16453L62.8721 4.53231L62.0924 4.51272C62.2881 4.87774 62.5613 5.20069 62.9159 5.48168L62.6567 5.80726C62.3005 5.45421 62.011 5.02282 61.7845 4.50499L61.7525 4.50419L61.7022 5.98333L61.3263 5.97389L61.3766 4.49474L61.3406 4.49384C61.0701 5.03519 60.7436 5.45511 60.3613 5.75359L60.157 5.40436C60.5091 5.17314 60.7996 4.86835 61.0367 4.4862L60.2969 4.46762L60.3094 4.09983L61.3891 4.12696L61.4011 3.77516L60.6253 3.75567L60.6704 2.42844ZM62.1972 3.43106L62.2176 2.8314L61.0339 2.80167L61.0136 3.40132L62.1972 3.43106ZM63.7068 5.99768L63.3069 5.98764L63.2354 5.61774C63.355 5.63275 63.4747 5.64375 63.5867 5.64657C63.6786 5.64888 63.7282 5.60211 63.7315 5.50617L63.7603 4.65866C63.6066 4.70681 63.453 4.75096 63.2996 4.79112L63.2165 4.40893C63.4018 4.37357 63.5874 4.33022 63.7732 4.27888L63.8016 3.44336L63.3298 3.4315L63.3421 3.06771L63.814 3.07957L63.8386 2.35599L64.2185 2.36553L64.1939 3.08911L64.5977 3.09926L64.5854 3.46305L64.1815 3.4529L64.1576 4.1565C64.3036 4.10015 64.4497 4.0398 64.596 3.97546L64.5831 4.35524C64.4369 4.41558 64.2908 4.47593 64.145 4.52828L64.1081 5.61166C64.0992 5.8755 63.9627 6.00411 63.7068 5.99768ZM66.5063 3.23123L65.1747 3.19778L65.1519 3.86939L66.4835 3.90284L66.5063 3.23123ZM65.1355 4.23308C65.0953 4.94426 64.9065 5.55569 64.5652 6.05926L64.286 5.79617C64.5805 5.37145 64.7392 4.82329 64.7663 4.14378L64.8111 2.82854L65.6628 2.84994C65.612 2.69662 65.5607 2.55529 65.5011 2.42576L65.9072 2.37194C65.9543 2.51717 66.0008 2.67838 66.0467 2.85958L66.8864 2.88068L66.839 4.27587L65.1355 4.23308ZM67.4115 2.97389L67.9553 2.98756L67.9729 2.47185L68.3528 2.4814L68.3352 2.9971L68.8271 3.00945L68.8147 3.37324L68.3229 3.36089L68.3034 3.93256L68.8513 3.94632L68.8389 4.31011L68.2751 4.29595C68.2641 4.38369 68.2492 4.46735 68.2385 4.5471C68.4477 4.75241 68.6601 4.97781 68.8756 5.23129L68.6487 5.54968C68.4581 5.26881 68.2974 5.05272 68.1666 4.89739C68.0284 5.43006 67.8022 5.8445 67.488 6.14069L67.2125 5.8857C67.5846 5.53495 67.8107 5.00448 67.8952 4.2864L67.3114 4.27174L67.3237 3.90795L67.9235 3.92301L67.943 3.35135L67.3992 3.33768L67.4115 2.97389ZM70.7279 2.6611L70.652 4.89581L70.2881 4.88667L70.3522 2.99976L69.3725 2.97515L69.3084 4.86206L68.9445 4.85291L69.0205 2.6182L70.7279 2.6611ZM70.4655 6.14347L70.1136 6.13463C69.8857 6.1289 69.7779 6.00216 69.7861 5.7623L69.8109 5.03072C69.7579 5.17743 69.6935 5.30785 69.6215 5.42207C69.4103 5.74886 69.0737 5.99647 68.6196 6.16912L68.4344 5.84838C68.8805 5.67553 69.1884 5.4472 69.358 5.16739C69.5243 4.86748 69.6216 4.47782 69.6541 3.9945L69.6791 3.25892L70.0269 3.26766L70.0019 4.00324C69.9828 4.33085 69.9328 4.62567 69.8601 4.87992L70.164 4.88755L70.1365 5.69508C70.1342 5.76305 70.165 5.79983 70.233 5.80154L70.4169 5.80616C70.4649 5.80736 70.4976 5.78818 70.5229 5.7488C70.5485 5.70143 70.5732 5.56602 70.593 5.33445L70.9134 5.44653C70.8777 5.78973 70.8228 5.9924 70.7565 6.05876C70.6905 6.11711 70.5934 6.14668 70.4655 6.14347ZM71.9332 3.70366L74.3084 3.76333L74.2962 4.12312L73.3125 4.09841L73.2921 4.69806L74.4437 4.727L74.4315 5.08679L73.2799 5.05786L73.2549 5.79343C73.5254 5.84024 73.8566 5.86857 74.2564 5.88261C74.4563 5.88763 74.6647 5.88086 74.8731 5.8701L74.7884 6.24407L74.4125 6.23463C73.5728 6.21353 72.9715 6.12241 72.6168 5.96145C72.365 5.83509 72.163 5.65397 72.011 5.41809C71.8481 5.73408 71.6509 6.0012 71.4194 6.21945L71.1818 5.9094C71.571 5.52707 71.8449 5.0058 71.9951 4.35339L72.3608 4.4266C72.305 4.65726 72.2375 4.87563 72.1627 5.0738C72.3401 5.39034 72.5691 5.60015 72.846 5.69513L72.8817 5.70403L72.9366 4.08897L71.9209 4.06345L71.9332 3.70366ZM74.8188 2.99594L74.7879 3.90341L74.416 3.89407L74.4349 3.33839L71.8277 3.27289L71.8082 3.84856L71.4363 3.83922L71.4678 2.91175L72.9713 2.94952C72.9197 2.82019 72.8597 2.70265 72.7992 2.5971L73.2093 2.54339C73.261 2.66872 73.3124 2.80605 73.3592 2.95927L74.8188 2.99594ZM75.7962 2.61638L76.5605 4.5041L75.6693 6.35022L75.3542 6.19827L76.1766 4.49445L75.4714 2.75226L75.7962 2.61638ZM80.7832 3.42986L80.6886 6.21225L80.3248 6.20311L80.3318 5.99523L79.7 5.97936L79.689 6.30317L79.3251 6.29403L79.4236 3.3957L79.8035 3.40524C79.8828 3.19118 79.9463 2.97271 79.9862 2.74165L80.3643 2.80316C80.3168 3.02203 80.2499 3.22441 80.1674 3.41439L80.7832 3.42986ZM79.712 5.62756L80.3438 5.64343L80.3706 4.85589L79.7387 4.84001L79.712 5.62756ZM79.7503 4.50021L80.3821 4.51608L80.4071 3.78051L79.7753 3.76463L79.7503 4.50021ZM81.4704 4.40738C81.7232 4.74183 81.9174 5.03078 82.049 5.28216L81.7419 5.4865C81.5989 5.21884 81.4009 4.92178 81.156 4.59154L81.4704 4.40738ZM82.8464 3.48569C82.7996 4.86489 82.7506 5.7159 82.6998 6.03471C82.65 6.32154 82.4532 6.46063 82.1133 6.4521C82.0333 6.45009 81.8896 6.43847 81.6901 6.42146L81.6099 6.07135C81.7856 6.08376 81.9373 6.09558 82.0652 6.09879C82.2252 6.10281 82.32 6.02117 82.3497 5.85387C82.3805 5.65459 82.4153 4.98328 82.462 3.84414L81.4584 3.81892C81.3382 4.05597 81.2028 4.27263 81.0441 4.46869L80.8263 4.16314C81.1033 3.78599 81.3031 3.32288 81.4179 2.77361L81.7921 2.83103C81.7445 3.0539 81.6815 3.26037 81.6108 3.45465L82.8464 3.48569ZM83.6914 2.88274C83.9561 3.10145 84.1768 3.31906 84.3537 3.53156L84.0768 3.78868C83.9236 3.58477 83.7071 3.36327 83.423 3.12407L83.6914 2.88274ZM85.8689 6.52244C85.649 6.51691 85.4092 6.50689 85.1534 6.49646C84.8936 6.48593 84.6825 6.45662 84.5159 6.41243C84.3576 6.36044 84.2209 6.26098 84.1055 6.12204C84.0519 6.05267 84.005 6.01949 83.957 6.01828C83.873 6.01617 83.7229 6.19245 83.5068 6.54712L83.2357 6.28024C83.4466 5.96145 83.6335 5.76209 83.7962 5.68615L83.8346 4.55481L83.2988 4.54134L83.3108 4.18955L84.2025 4.21195L84.1511 5.72308C84.1706 5.73957 84.1899 5.76006 84.2091 5.78455C84.2974 5.8948 84.3906 5.97716 84.4888 6.03164C84.6069 6.09062 84.7816 6.13102 85.0173 6.14495C85.245 6.15467 85.5128 6.1654 85.8247 6.17323C86.0207 6.17816 86.2207 6.17918 86.4208 6.18021C86.6209 6.18123 86.7771 6.17715 86.8853 6.17187L86.7806 6.54534L85.8689 6.52244ZM85.2854 3.3189L84.5137 3.29951L84.5244 2.98369L86.7197 3.03885L86.7106 3.30669C86.4719 3.50075 86.2182 3.66242 85.9494 3.79971C85.9572 3.80791 85.965 3.81211 85.9727 3.8203L86.7765 3.84049L86.7162 5.61547C86.7081 5.85133 86.5721 5.96795 86.3122 5.96142L86.0043 5.95368L85.935 5.63586L86.2184 5.65898C86.3064 5.66119 86.3559 5.61842 86.3589 5.53047L86.3658 5.32659L85.79 5.31212L85.7677 5.96774L85.4198 5.959L85.4421 5.30338L84.8783 5.28922L84.8557 5.95284L84.4958 5.94379L84.5692 3.78504L85.4889 3.80815C85.3599 3.71688 85.2151 3.62122 85.0541 3.52915L85.2854 3.3189ZM85.7236 3.61399C85.8944 3.53426 86.0536 3.44223 86.2011 3.34191L85.3054 3.3194C85.4541 3.41916 85.5949 3.51473 85.7236 3.61399ZM84.8982 4.70156L84.8887 4.9814L85.4525 4.99556L85.4621 4.71572L84.8982 4.70156ZM85.8099 4.72446L85.8004 5.0043L86.3762 5.01877L86.3858 4.73893L85.8099 4.72446ZM86.3964 4.42711L86.4059 4.14727L85.8301 4.1328L85.8205 4.41264L86.3964 4.42711ZM85.4727 4.4039L85.4822 4.12406L84.9183 4.1099L84.9088 4.38974L85.4727 4.4039ZM90.8292 3.41416L90.7232 6.53236L90.3553 6.52312L90.363 6.29525L89.6632 6.27767L89.6554 6.50954L89.2875 6.50029L89.3936 3.3781L90.8292 3.41416ZM89.6753 5.92187L90.3751 5.93946L90.4492 3.76071L89.7494 3.74313L89.6753 5.92187ZM87.9419 3.81776C87.8431 4.01533 87.7329 4.19661 87.6152 4.3617L87.2905 4.14149C87.5592 3.77213 87.7569 3.37299 87.8795 2.94395L88.2527 3.03335C88.2076 3.18425 88.1548 3.32297 88.1022 3.45768L89.1939 3.48511L89.1815 3.8489L88.6377 3.83524C88.6213 4.08289 88.6014 4.31446 88.5702 4.52573L89.194 4.5414L89.1816 4.90519L88.5058 4.88822C88.4868 4.97576 88.4639 5.06321 88.4451 5.14276C88.6806 5.39675 88.9192 5.67882 89.1648 5.98907L88.9209 6.33504C88.6849 5.97702 88.4864 5.69595 88.3252 5.49185C88.143 5.90739 87.847 6.25605 87.4293 6.53363L87.1918 6.22358C87.6181 5.92621 87.9028 5.55726 88.05 5.11283C88.0685 5.03727 88.0912 4.95782 88.11 4.87827L87.3222 4.85848L87.3346 4.49469L88.1783 4.51589C88.2095 4.30461 88.2294 4.07305 88.2458 3.82539L87.9419 3.81776ZM91.7112 3.0162L92.4754 4.90392L91.5842 6.75005L91.2692 6.59809L92.0916 4.89428L91.3864 3.15208L91.7112 3.0162ZM92.3949 3.03338L93.1592 4.9211L92.268 6.76722L91.953 6.61527L92.7753 4.91145L92.0542 3.16886L92.3949 3.03338Z" fill="white"/>
</svg>
