<svg width="148" height="34" viewBox="0 0 148 34" fill="none" xmlns="http://www.w3.org/2000/svg">
<path d="M3.38994 1.41964L3.70962 1.59695L2.75892 3.23303L3.34428 5.02558L3.01133 5.1364L2.3769 3.19411L3.38994 1.41964ZM4.07042 1.48896L4.37418 1.66464L3.4394 3.30234L4.02476 5.09489L3.69181 5.20572L3.05738 3.26343L4.07042 1.48896Z" fill="white"/>
<path d="M5.88122 1.83631C5.9917 2.06191 6.09438 2.30637 6.18535 2.56891L5.91806 2.64263L6.73045 2.80267C6.9158 2.60681 7.09396 2.36467 7.26416 2.08021L7.60981 2.25022C7.47245 2.49223 7.31694 2.70214 7.15038 2.8854L7.89605 3.0323L7.82492 3.39336L6.54551 3.14131L6.52154 3.26297C6.47658 3.44981 6.42294 3.61862 6.36377 3.77412L7.92575 4.08183L7.85462 4.44289L6.48102 4.17229C6.57977 4.68505 6.9969 5.15452 7.73162 5.58464L7.44226 5.89456C6.68459 5.39469 6.25076 4.84446 6.13215 4.24625C6.02517 4.41679 5.90635 4.56461 5.77648 4.6858C5.44003 4.98643 4.95105 5.17141 4.30956 5.24073L4.16965 4.87478C4.81269 4.79762 5.26956 4.63078 5.54417 4.37503C5.64115 4.27591 5.72869 4.16269 5.80599 4.03931L4.46379 3.7749L4.53492 3.41383L5.97916 3.69835C6.04303 3.5397 6.1006 3.37166 6.14478 3.18875L6.16875 3.06709L4.88542 2.81427L4.95654 2.45321L5.7964 2.61867C5.71173 2.36553 5.6138 2.13831 5.50731 1.93387L5.88122 1.83631Z" fill="white"/>
<path d="M9.28951 2.67254L12.2089 3.47614L12.1102 3.8348L10.88 3.49617L10.6209 4.43717L12.1211 4.85011L12.0203 5.21649L10.5201 4.80354L10.1581 6.11863C10.0838 6.38859 9.90288 6.48815 9.62135 6.41065L9.00816 6.24187L9.02869 5.86583C9.22219 5.93154 9.40904 5.99127 9.58644 6.0401C9.70985 6.07407 9.78748 6.03321 9.8172 5.92522L10.1537 4.70269L8.58795 4.2717L8.6888 3.90533L10.2546 4.33632L10.5136 3.39532L9.19078 3.0312L9.28951 2.67254Z" fill="white"/>
<path d="M12.8287 5.38432L12.4915 6.39348C12.8254 6.42913 13.1821 6.45975 13.5565 6.47519L13.541 6.83694C13.0313 6.81002 12.5165 6.76032 11.9992 6.69291L11.9552 6.34503C12.0627 6.32614 12.1323 6.26926 12.164 6.17442L12.9334 3.87156C13.433 3.95413 13.8985 4 14.3311 4.00537L14.4586 4.36849C14.0842 4.36569 13.6655 4.33124 13.2013 4.26893L12.944 5.03908L13.9911 5.38894L13.8757 5.73418L12.8287 5.38432ZM14.7422 7.4829L14.3856 7.36375L14.4036 6.98176L14.7387 7.10216C14.8374 7.13512 14.9057 7.09469 14.9412 6.98846L15.5978 5.02325L14.8504 4.77354L13.8541 7.75549L13.4899 7.6338L14.6003 4.3104L16.0761 4.8035L15.28 7.18603C15.185 7.47057 15.004 7.57037 14.7422 7.4829Z" fill="white"/>
<path d="M16.5103 6.11783L17.2226 5.13977L17.5547 5.33529L17.0961 5.95217L17.649 6.16364C17.8257 5.91432 17.9932 5.64434 18.1552 5.35513L18.5005 5.53856C18.3428 5.81657 18.181 6.0716 18.0189 6.3051L19.73 6.95953L19.6 7.29951L17.7992 6.61079C17.7147 6.71979 17.6293 6.81989 17.5491 6.91769L19.0435 7.48924L18.9292 7.78813C18.7149 8.05733 18.4261 8.26379 18.0553 8.40463C18.2792 8.67014 18.5672 8.94731 18.9155 9.2347L18.6039 9.50093C18.2147 9.16365 17.9036 8.83483 17.6716 8.52339C17.2978 8.61599 16.864 8.66419 16.37 8.668L16.3118 8.26031C16.7369 8.26869 17.1153 8.24214 17.442 8.18293C17.2735 7.89578 17.1704 7.61655 17.1352 7.35039C16.6547 7.80045 16.1461 8.11128 15.6132 8.28431L15.5558 7.88552C16.2457 7.6269 16.8677 7.15389 17.4219 6.46647L16.5103 6.11783ZM17.4673 7.25471C17.5063 7.52229 17.622 7.80208 17.8158 8.09033C18.124 7.98981 18.3745 7.85005 18.562 7.67337L17.4673 7.25471ZM19.1439 5.73752C19.3274 6.03039 19.4683 6.31127 19.5682 6.57644L19.217 6.73333C19.1418 6.4819 19.0098 6.20014 18.8147 5.88144L19.1439 5.73752Z" fill="white"/>
<path d="M23.774 7.6196L24.0129 7.87655L22.6395 9.16863L22.6741 11.054L22.3233 11.0625L22.2856 9.01953L23.774 7.6196Z" fill="white"/>
<path d="M25.606 8.45995L25.9636 8.62054L25.4703 9.71887L26.8204 10.3252L26.6697 10.6609L25.3196 10.0546L24.6608 11.5214L26.2919 12.2539L26.1411 12.5896L22.8717 11.1214L23.0224 10.7857L24.3032 11.3609L25.606 8.45995Z" fill="white"/>
<path d="M29.337 10.8708C29.2455 10.9338 29.1554 10.9842 29.067 11.031L30.869 11.88C30.7099 12.1897 30.5677 12.4632 30.4463 12.7023L30.7321 12.837L30.5821 13.1554L30.2818 13.0139C30.1669 13.2295 30.0691 13.4089 29.992 13.5539L30.2634 13.6817L30.1253 13.9748L29.8286 13.835C29.7787 13.9221 29.7406 13.9749 29.7197 14.0004C29.6272 14.1028 29.5176 14.1572 29.3907 14.1638C29.2638 14.1703 29.1054 14.1311 28.91 14.039C28.8087 13.9913 28.6948 13.942 28.5646 13.8807L28.6135 13.5234C28.7531 13.6025 28.8836 13.6728 28.9994 13.7274C29.0862 13.7683 29.1709 13.7949 29.2429 13.8111C29.32 13.8165 29.3945 13.7897 29.4611 13.7327C29.4699 13.7235 29.482 13.7071 29.5029 13.6816L27.7877 12.8735C27.9803 12.6149 28.1639 12.3566 28.3314 12.095L27.9985 11.9381L28.1485 11.6197L28.5176 11.7936C28.6555 11.5667 28.7827 11.3437 28.8973 11.1191C28.7981 11.1608 28.7095 11.1986 28.6243 11.2293L28.5317 10.8628C28.8672 10.7512 29.2058 10.5393 29.5511 10.2288L29.8607 10.4632C29.7924 10.5238 29.7257 10.5808 29.6608 10.6343L31.2782 11.3963L31.1282 11.7147L29.337 10.8708ZM28.6571 12.2484C28.538 12.4355 28.4221 12.6064 28.3058 12.7594L29.1091 13.1379C29.0568 12.9673 28.9736 12.7778 28.8524 12.5659L29.1275 12.47L28.6571 12.2484ZM29.1308 13.1481L29.6663 13.4004C29.7417 13.2591 29.8395 13.0797 29.9561 12.8605L29.189 12.499C29.2973 12.6915 29.3802 12.8721 29.4378 13.0408L29.1308 13.1481ZM30.117 12.5471L30.3927 12.0182L29.1335 11.4249C29.034 11.608 28.9379 11.7838 28.8433 11.947L29.5489 12.2795C29.4881 12.127 29.3981 11.952 29.2755 11.7616L29.5879 11.6523C29.7141 11.8444 29.8132 12.0282 29.8834 12.1983L29.5923 12.2999L30.117 12.5471ZM28.4568 9.8017C28.604 10.0523 28.7133 10.2896 28.7901 10.5114L28.4281 10.6416C28.366 10.4355 28.2567 10.1982 28.0999 9.92097L28.4568 9.8017ZM27.9846 10.6537C28.1301 10.908 28.2377 11.1488 28.3111 11.3779L27.9544 11.5061C27.8923 11.3 27.7847 11.0592 27.626 10.7766L27.9846 10.6537ZM27.7769 11.8735L28.0191 12.1291C27.6729 12.479 27.3224 12.7913 26.9639 13.0735L26.712 12.7823C27.0883 12.4998 27.4427 12.1981 27.7769 11.8735Z" fill="white"/>
<path d="M31.5991 11.7105L33.0167 12.399C33.0257 12.2432 33.0275 12.0929 33.0188 11.9553L33.4137 12.076C33.4065 12.2281 33.3888 12.3929 33.3657 12.5685L34.8086 13.2692L34.6496 13.5966L33.2175 12.9012L33.0271 13.2934L34.1965 13.8612L33.5482 15.1962C33.4364 15.4264 33.2564 15.4858 33.0189 15.3704L32.6555 15.194L32.7264 14.8282L33.0595 15.0122C33.1458 15.0541 33.21 15.0319 33.2484 14.9528L33.6992 14.0244L32.8681 13.6208L31.9524 15.5062L31.607 15.3385L32.5226 13.453L31.7346 13.0704L31.0637 14.4521L30.729 14.2896L31.559 12.5804L32.6816 13.1256L32.8721 12.7334L31.44 12.038L31.5991 11.7105Z" fill="white"/>
<path d="M36.3992 13.8849L35.0722 16.571L34.7423 16.408L34.8521 16.1856L34.4218 15.973L34.2694 16.2815L33.9359 16.1167L35.3054 13.3445L36.3992 13.8849ZM34.5777 15.6575L35.008 15.87L35.3925 15.0918L34.9621 14.8792L34.5777 15.6575ZM35.1198 14.5601L35.5501 14.7726L35.9169 14.0303L35.4865 13.8177L35.1198 14.5601ZM36.4021 15.2337C36.4561 15.6752 36.4811 16.049 36.4719 16.3567L36.0911 16.414C36.0967 16.0866 36.077 15.7021 36.032 15.2694L36.4021 15.2337ZM36.2237 17.5636L35.5889 17.2501L35.6766 16.8829C35.8793 16.9964 36.073 17.101 36.263 17.1949C36.3491 17.2375 36.4152 17.2121 36.4612 17.1188L37.3825 15.254L36.1883 14.664L36.3495 14.3377L37.5437 14.9276L37.8413 14.3251L38.1892 14.497L37.8916 15.0995L38.2932 15.2979L38.132 15.6243L37.7303 15.4258L36.7666 17.3768C36.6461 17.6206 36.4639 17.6823 36.2237 17.5636Z" fill="white"/>
<path d="M40.3445 15.5361L40.6885 15.7068L40.2012 16.6885L41.466 17.3163L40.511 19.2403C40.383 19.4983 40.1971 19.5668 39.9571 19.4477L39.6525 19.2965L39.7247 18.917L40.006 19.0701C40.0992 19.1163 40.1689 19.0928 40.2151 18.9997L40.9709 17.4769L38.7782 16.3886L37.7858 18.3879L37.4526 18.2225L38.6068 15.8972L39.8572 16.5178L40.3445 15.5361ZM39.0248 16.9353L40.3864 17.611L39.8369 18.7182L38.4753 18.0424L39.0248 16.9353ZM39.6655 18.2446L39.9038 17.7645L39.1944 17.4124L38.9561 17.8925L39.6655 18.2446ZM41.4143 16.1787L41.6673 16.4427C41.439 16.6509 41.1962 16.8162 40.9407 16.935L40.7449 16.6458C40.9789 16.5342 41.2038 16.3779 41.4143 16.1787ZM39.5048 15.2935C39.5431 15.5402 39.5564 15.7924 39.5446 16.05L39.1796 16.0386C39.1895 15.7488 39.1744 15.4823 39.1343 15.2391L39.5048 15.2935Z" fill="white"/>
<path d="M44.3309 17.5181L44.6753 17.6877L44.2034 18.6458L44.9641 19.0205L44.0238 20.9295C43.8912 21.1986 43.6949 21.2713 43.4365 21.1441L43.0382 20.9479L43.1111 20.5736L43.4826 20.7699C43.5867 20.8212 43.667 20.7939 43.72 20.6862L43.8508 20.4207L42.6774 19.8427L42.3063 20.5963L41.9618 20.4266L43.1054 18.1049L43.8589 18.4761L44.3309 17.5181ZM42.9815 19.2255L42.8206 19.5521L43.994 20.13L44.1548 19.8035L42.9815 19.2255ZM44.298 19.5129L44.4606 19.1827L43.2873 18.6048L43.1246 18.9349L44.298 19.5129ZM43.6479 17.2842C43.6869 17.5308 43.7135 17.7936 43.7277 18.0726L43.3932 18.0728C43.3808 17.7903 43.3488 17.5293 43.2973 17.2809L43.6479 17.2842ZM45.2644 18.076L45.4753 18.3449C45.2652 18.5179 45.0228 18.666 44.7553 18.7928L44.5622 18.5238C44.8334 18.3898 45.0668 18.2418 45.2644 18.076ZM42.1144 18.7226L42.3593 18.9859C41.9608 19.3604 41.5532 19.6991 41.1453 20.0021L40.8985 19.7066C41.326 19.4 41.7319 19.0738 42.1144 18.7226ZM42.7325 16.7619C42.8917 17.0633 43.0132 17.3416 43.0971 17.6059L42.7329 17.7297C42.6652 17.4868 42.5455 17.2049 42.3718 16.8786L42.7325 16.7619ZM42.2184 17.5521C42.3633 17.8464 42.4722 18.123 42.5417 18.3802L42.1811 18.5058C42.1189 18.27 42.0117 17.9898 41.8577 17.6687L42.2184 17.5521Z" fill="white"/>
<path d="M46.4189 19.6009L46.2834 19.7532L46.7122 19.9598C46.7544 19.9091 46.793 19.8567 46.8297 19.7989L46.4189 19.6009ZM47.1612 19.9586C47.1281 20.0182 47.0931 20.0723 47.0545 20.1248L47.5446 20.361L47.6297 20.1844L47.1612 19.9586ZM47.9612 20.3441L47.8761 20.5207L48.8274 20.9792C48.692 21.2602 48.578 21.4229 48.4839 21.4708C48.3881 21.5223 48.2356 21.4977 48.0249 21.4005C47.9672 21.3728 47.9113 21.3414 47.859 21.3117L47.9106 21.048C47.972 21.0864 48.0351 21.1213 48.0964 21.1508C48.1901 21.196 48.2547 21.2093 48.2885 21.1945C48.3204 21.1744 48.3503 21.14 48.3781 21.0823L47.7511 20.7802L47.5705 21.1549L47.239 20.9952L47.4196 20.6204L46.8394 20.3408C46.7509 20.4047 46.6586 20.458 46.5625 20.4916C46.4414 20.5309 46.3003 20.5473 46.1358 20.5479L48.1933 21.5394L47.7106 22.5412L47.3718 22.3779L47.7087 21.6789L46.0511 20.8801L45.7143 21.5791L45.3791 21.4176L45.8133 20.5168C45.7308 20.5037 45.6447 20.4888 45.5567 20.4687L45.5123 20.1186C45.9144 20.2148 46.2081 20.2319 46.3968 20.1719C46.4182 20.1645 46.436 20.1553 46.4466 20.1515L45.7908 19.8355L46.2682 19.2042L46.9601 19.5376L47.0452 19.361L46.2452 18.9755L46.3789 18.698L47.1789 19.0835L47.2553 18.925L47.5868 19.0847L47.5104 19.2433L47.9752 19.4673L48.0517 19.3088L48.3832 19.4685L48.3068 19.6271L49.0707 19.9952L48.7251 20.7123L47.9612 20.3441ZM47.3767 19.5208L47.2916 19.6973L47.7564 19.9213L47.8415 19.7448L47.3767 19.5208ZM48.173 19.9045L48.088 20.0811L48.5348 20.2964L48.6199 20.1199L48.173 19.9045ZM46.7976 22.0124C47.2103 22.3445 47.573 22.6791 47.8803 23.0182L47.5557 23.2125C47.2354 22.8361 46.8834 22.4978 46.4996 22.1885L46.7976 22.0124ZM46.6564 21.2827L46.9794 21.4784C46.7329 21.8702 46.4928 22.092 46.2575 22.1473C45.994 22.2334 45.5132 22.1438 44.8186 21.8713L44.8293 21.499C45.4072 21.7464 45.8184 21.8513 46.0611 21.8084C46.2822 21.7551 46.4782 21.5787 46.6564 21.2827Z" fill="white"/>
<path d="M50.0665 20.4325L52.1266 21.3906L51.5379 22.6564L49.4778 21.6983L50.0665 20.4325ZM51.3451 22.1697L51.6302 21.5568L50.2592 20.9192L49.9742 21.5321L51.3451 22.1697ZM50.2072 22.3684L49.4482 24.0005L49.1145 23.8454L49.1955 23.6713L48.5245 23.3592L48.4435 23.5333L48.1062 23.3764L48.8653 21.7443L50.2072 22.3684ZM48.6746 23.0364L49.3456 23.3485L49.7217 22.5397L49.0508 22.2276L48.6746 23.0364ZM51.8974 23.1545L51.1383 24.7866L50.7938 24.6263L50.8747 24.4523L50.1747 24.1267L50.0938 24.3008L49.7565 24.1439L50.5155 22.5118L51.8974 23.1545ZM50.3249 23.8039L51.0249 24.1295L51.401 23.3206L50.701 22.9951L50.3249 23.8039Z" fill="white"/>
<path d="M55.0968 22.5211C55.0967 22.6608 55.0865 22.8136 55.0736 22.9826L56.3448 23.5399L56.2002 23.8696L55.5848 23.5998C55.4759 23.7486 55.3539 23.8873 55.2205 24.0123L56.0668 24.3833L55.919 24.7203L53.318 23.58L53.1012 24.0746C52.836 24.6397 52.5054 25.045 52.1037 25.2839L51.9391 24.9322C52.259 24.7405 52.5286 24.4044 52.7495 23.9204L53.1141 23.0888L53.8541 23.4132L53.9363 22.8771L53.2842 22.5912L53.4287 22.2615L54.7182 22.8268C54.7236 22.6851 54.7184 22.5474 54.7048 22.4191L55.0968 22.5211ZM54.1984 23.5642L54.8872 23.8661C55.0206 23.7412 55.1425 23.6025 55.2514 23.4537L54.2769 23.0265L54.1984 23.5642Z" fill="white"/>
<path d="M57.7838 23.755L58.136 23.8975L56.9574 26.8122L57.4024 26.9921L58.581 24.0774L58.9333 24.2199L57.7547 27.1346L58.8375 27.5724L58.698 27.9173L55.3902 26.5797L55.5297 26.2348L56.6051 26.6697L57.7838 23.755ZM59.3479 25.19L59.6234 25.405C59.2245 25.9858 58.8179 26.4686 58.4019 26.857L58.1317 26.6183C58.5133 26.2721 58.9222 25.7945 59.3479 25.19ZM56.807 24.1539C56.7952 24.7273 56.7326 25.3621 56.623 26.0599L56.2674 26.0111C56.3767 25.3779 56.4415 24.7482 56.4676 24.1289L56.807 24.1539Z" fill="white"/>
<path d="M62.2546 25.417C62.2549 25.5233 62.2526 25.6371 62.2463 25.7622L63.7121 26.2843L63.5939 26.6159L60.2441 25.4228L60.3622 25.0912L61.8581 25.624C61.8551 25.5253 61.8456 25.4327 61.831 25.3426L62.2546 25.417ZM61.9689 29.2472L61.6561 29.1358L61.6873 28.786L61.9721 28.9044C62.1115 28.9541 62.2019 28.9268 62.2368 28.8288L62.5763 27.8755L60.2401 27.0434L59.7341 28.464L59.395 28.3432L60.011 26.6136L63.0255 27.6873L62.5491 29.025C62.4591 29.2775 62.2628 29.3519 61.9689 29.2472ZM60.7726 25.8106L62.9468 26.585L62.6677 27.3688L60.4934 26.5944L60.7726 25.8106ZM62.4214 26.9753L62.5073 26.7342L61.0189 26.204L60.933 26.4452L62.4214 26.9753ZM60.5789 27.3679L62.1125 27.9141L61.8306 28.7054L60.297 28.1592L60.5789 27.3679ZM61.6081 28.3289L61.702 28.0651L60.8052 27.7457L60.7113 28.0095L61.6081 28.3289Z" fill="white"/>
<path d="M64.5216 27.5035L64.4364 27.7953C64.1662 28.6498 63.8015 29.2851 63.3365 29.7077L63.1615 29.365C63.5328 29.0066 63.842 28.4469 64.087 27.6933L64.4435 26.4723C65.4759 26.7612 66.4171 26.9484 67.2672 27.0341L67.3524 27.4131C66.5463 27.3195 65.6599 27.1441 64.7032 26.8815L64.6203 27.1656L65.8259 27.5176C65.8716 27.4184 65.9122 27.3219 65.9529 27.2254L66.3042 27.378C66.2708 27.4641 66.2346 27.5452 66.1984 27.6263L67.3734 27.9693L67.2747 28.3072L66.0422 27.9474C65.9911 28.0367 65.945 28.1232 65.8951 28.2086L66.8665 28.4922L66.4753 29.8323L66.1259 29.7303L66.4185 28.7281L64.9862 28.31L64.6926 29.316L64.3431 29.214L64.7355 27.8701L65.5264 28.101C65.5775 28.0118 65.6236 27.9252 65.6697 27.8387L64.5216 27.5035ZM65.6911 29.4783C66.0697 29.7514 66.3961 30.0467 66.6789 30.3626L66.3873 30.6191C66.0915 30.262 65.7724 29.9563 65.4272 29.6972L65.6911 29.4783ZM65.5686 28.6134L65.9151 28.7395C65.7368 29.1792 65.4965 29.4882 65.189 29.6568C64.8803 29.8292 64.4556 29.9136 63.9199 29.9072L63.8228 29.5122C64.2996 29.5347 64.6735 29.4813 64.9418 29.3471C65.2113 29.2091 65.4198 28.9658 65.5686 28.6134Z" fill="white"/>
<path d="M67.851 28.9199L70.6399 29.4972L70.4291 30.5156L69.2109 30.2634L69.1753 30.4358L70.4718 30.7041L70.4223 30.9431L69.1258 30.6747L69.0877 30.8588L70.6702 31.1864L70.6118 31.4684L67.0865 30.7387L67.1449 30.4567L68.7195 30.7826L68.7576 30.5985L67.4768 30.3334L67.5262 30.0944L68.8071 30.3596L68.8427 30.1872L67.6402 29.9383L67.851 28.9199ZM70.122 30.2233L70.1609 30.0352L69.2953 29.8561L69.2563 30.0441L70.122 30.2233ZM68.8881 29.9679L68.9271 29.7798L68.0771 29.6039L68.0382 29.7919L68.8881 29.9679ZM68.1192 29.4002L68.9692 29.5762L69.0081 29.3881L68.1582 29.2122L68.1192 29.4002ZM69.3763 29.4644L69.3374 29.6524L70.2031 29.8316L70.242 29.6435L69.3763 29.4644ZM68.2656 27.3514L70.886 27.8938L70.6801 28.8887L68.0596 28.3463L68.2656 27.3514ZM70.3674 28.6034L70.4047 28.4232L68.4972 28.0283L68.4599 28.2085L70.3674 28.6034ZM68.5409 27.8168L70.4485 28.2117L70.485 28.0354L68.5774 27.6406L68.5409 27.8168ZM67.5673 28.4159L71.0926 29.1456L71.0374 29.412L67.5122 28.6823L67.5673 28.4159Z" fill="white"/>
<path d="M71.6425 29.2752L72.0616 28.1401L72.4343 28.2378L72.1611 28.9562L72.7507 29.0091C72.8528 28.7211 72.9405 28.4157 73.0176 28.0933L73.3997 28.1757C73.3237 28.4862 73.2375 28.7757 73.1451 29.0445L74.9698 29.2081L74.9373 29.5706L73.017 29.3985C72.9654 29.5264 72.9105 29.6459 72.8599 29.7619L74.4535 29.9048L74.425 30.2235C74.2921 30.5409 74.0704 30.8182 73.7521 31.0547C74.0398 31.2492 74.3924 31.4374 74.8059 31.6191L74.5785 31.9601C74.1121 31.7416 73.7233 31.51 73.4152 31.2735C73.0808 31.4644 72.6765 31.629 72.2022 31.7672L72.0352 31.3907C72.4464 31.283 72.8034 31.1544 73.1016 31.0084C72.8612 30.778 72.686 30.5374 72.5796 30.291C72.2399 30.8549 71.8352 31.2925 71.3695 31.6041L71.2057 31.236C71.7991 30.7993 72.2687 30.1747 72.6146 29.3624L71.6425 29.2752ZM72.873 30.1084C72.9834 30.3553 73.171 30.593 73.436 30.8175C73.7052 30.6369 73.9081 30.4342 74.0404 30.2131L72.873 30.1084ZM74.073 28.1919C74.3293 28.4237 74.5414 28.6556 74.7098 28.8836L74.4146 29.1302C74.2738 28.9087 74.07 28.6736 73.7955 28.4201L74.073 28.1919Z" fill="white"/>
<path d="M76.1417 29.7653L76.6937 29.7586L76.6898 29.4386L76.0218 29.4467L76.0255 29.7507C76.0284 29.9907 76.0152 30.2228 75.9939 30.4391L76.7018 30.4305L76.6977 30.0946L76.1458 30.1013L76.1417 29.7653ZM75.95 30.7837C75.8793 31.2206 75.7602 31.618 75.5924 31.9721L75.2811 31.6999C75.527 31.1928 75.6472 30.5473 75.6415 29.7553L75.6252 28.4114L78.685 28.3743L78.6976 29.4142L78.1417 29.421L78.1456 29.741L78.7455 29.7337L78.7496 30.0697L78.1496 30.0769L78.1537 30.4129L78.8897 30.404L78.8938 30.748L78.4939 30.7528L78.7286 30.978C78.6065 31.1315 78.472 31.2571 78.3291 31.3549C78.5345 31.4684 78.7675 31.5495 79.0322 31.5983L78.8565 31.9605C78.1343 31.7812 77.6174 31.3835 77.3019 30.7673L76.806 30.7733L76.8152 31.5332C77.0545 31.4703 77.2656 31.3998 77.4447 31.3216L77.5209 31.6687C77.1983 31.7846 76.8155 31.8853 76.3725 31.9706L76.2645 31.6399C76.3839 31.5905 76.4428 31.5058 76.4413 31.3778L76.434 30.7778L75.95 30.7837ZM77.6859 30.7626C77.7837 30.9094 77.8972 31.0361 78.0266 31.1465C78.1775 31.0527 78.3159 30.923 78.4419 30.7534L77.6859 30.7626ZM77.7737 29.4255L77.0537 29.4342L77.0576 29.7542L77.7776 29.7454L77.7737 29.4255ZM77.0658 30.4261L77.7857 30.4174L77.7817 30.0814L77.0617 30.0901L77.0658 30.4261ZM78.3053 28.727L76.0134 28.7548L76.0177 29.1067L78.3095 29.0789L78.3053 28.727Z" fill="white"/>
<path d="M80.6173 28.3359L82.5626 28.1752L82.5933 28.5459L80.6479 28.7067L80.6173 28.3359ZM80.5999 29.3408L82.8164 29.1577L82.847 29.5284L82.2251 29.5798L82.3648 31.27C82.3858 31.5251 82.2529 31.6646 81.9698 31.6879L81.3918 31.7357L81.2775 31.3719C81.4621 31.3727 81.6422 31.3658 81.8096 31.352C81.9252 31.3424 81.9814 31.2937 81.9745 31.2099L81.8424 29.6114L80.6306 29.7115L80.5999 29.3408ZM79.9234 28.1966L80.2834 28.3274C80.1044 28.7837 79.7779 29.204 79.2966 29.5969L79.1497 29.2278C79.5137 28.9208 79.7703 28.5785 79.9234 28.1966ZM80.1862 29.094L80.5422 29.2251C80.4524 29.4493 80.3336 29.6638 80.186 29.8686L80.3487 31.8379L79.9779 31.8686L79.8459 30.27C79.7126 30.4054 79.571 30.5375 79.4131 30.667L79.2705 30.3015C79.6986 29.945 80.0065 29.5423 80.1862 29.094Z" fill="white"/>
<path d="M83.2224 28.1282L84.695 27.9147L84.7473 28.2749L83.2747 28.4884L83.2224 28.1282ZM83.2309 29.2183L84.9925 28.9628L85.0453 29.327L84.1546 29.4562C84.0908 30.0192 84.0254 30.4328 83.9592 30.7011C84.2125 30.6078 84.4662 30.4902 84.7171 30.3527C84.5979 30.172 84.4805 30.0031 84.3648 29.8461L84.6591 29.6458C84.8894 29.9519 85.1169 30.2948 85.3412 30.6705L85.0407 30.8838L84.901 30.6454C84.506 30.8482 84.0753 31.0278 83.605 31.1849L83.4623 30.8419C83.5007 30.8282 83.5228 30.8129 83.5369 30.7987C83.6214 30.6288 83.7048 30.2004 83.7904 29.509L83.2837 29.5824L83.2309 29.2183ZM85.3421 27.5824L85.7142 27.5285L85.8255 28.2964L86.6806 28.1725C86.8677 29.463 86.9633 30.2615 86.9712 30.5675C86.9713 30.8747 86.7912 31.0544 86.431 31.1066C86.3677 31.1158 86.2557 31.124 86.0962 31.139L85.9609 30.8191C86.1051 30.8103 86.229 30.8004 86.3319 30.7855C86.5061 30.7603 86.5913 30.6509 86.5954 30.4563C86.5922 30.2668 86.5139 29.6436 86.3692 28.5895L85.8783 28.6606L85.8835 28.6962C86.0369 29.8381 85.8843 30.709 85.4223 31.3135L85.105 31.1049C85.5163 30.5683 85.6533 29.7845 85.5114 28.7502L85.5062 28.7146L85.0035 28.7875L84.9507 28.4233L85.4534 28.3504L85.3421 27.5824Z" fill="white"/>
<path d="M88.1792 28.2746L89.2074 28.0719L88.9808 26.922L89.3654 26.8462L89.592 27.9961L90.5653 27.8043L90.638 28.1732L89.6647 28.365L90.0816 30.4803L89.697 30.5561L89.2801 28.4408L88.2519 28.6435L88.1792 28.2746ZM87.2453 27.3008C87.5382 27.4428 87.792 27.5926 88.0073 27.754L87.8032 28.0633C87.6099 27.9098 87.3554 27.7561 87.0365 27.6069L87.2453 27.3008ZM86.9515 28.541L87.8581 28.3623L88.1876 30.0341C88.2931 29.9073 88.3994 29.7641 88.5112 29.6075L88.6843 29.9688C88.4796 30.2538 88.2506 30.5191 88.0004 30.76L87.7934 30.4543C87.8493 30.3862 87.8715 30.3125 87.856 30.234L87.5713 28.7898L87.0219 28.8981L86.9515 28.541Z" fill="white"/>
<path d="M92.9392 26.3956L93.2969 26.3091L93.878 28.7118L93.5204 28.7984L92.9392 26.3956ZM94.4556 29.4322L93.8957 29.5677L93.7246 29.2346C93.9111 29.2059 94.0841 29.1723 94.2474 29.1328C94.3562 29.1065 94.4014 29.0379 94.376 28.933L93.6378 25.881L94.0032 25.7926L94.764 28.9379C94.828 29.2023 94.7239 29.3674 94.4556 29.4322ZM92.7174 26.976L92.8623 27.3196L91.8063 27.752C91.8642 27.9232 91.9261 28.0769 91.992 28.2133C92.0588 28.3535 92.1228 28.482 92.1908 28.5932C92.3347 28.3032 92.442 27.981 92.5087 27.6274L92.8718 27.7165C92.7809 28.1912 92.6351 28.6092 92.4296 28.9675C92.4728 29.0271 92.5141 29.0788 92.5583 29.1257C92.7451 29.3192 92.8968 29.4019 93.0066 29.3794C93.0659 29.3527 93.083 29.1511 93.0617 28.7735L93.4216 28.9004C93.4112 29.1128 93.3895 29.295 93.3524 29.4481C93.3063 29.632 93.2298 29.7411 93.121 29.7674C92.9344 29.8125 92.7206 29.7284 92.4777 29.5238C92.39 29.4504 92.3081 29.3673 92.2322 29.2745C92.0459 29.5254 91.827 29.7429 91.5752 29.9273L91.2737 29.6504C91.5546 29.4508 91.7941 29.2159 91.9864 28.9389C91.902 28.8112 91.8206 28.6786 91.7441 28.5325C91.6465 28.3503 91.554 28.1381 91.4618 27.8929L91.0053 28.0815L90.8644 27.737L91.3355 27.5408C91.233 27.2363 91.1328 26.8902 91.0397 26.5053L91.413 26.415C91.5014 26.7805 91.5891 27.109 91.6839 27.3989L92.7174 26.976ZM91.9253 26.2705C92.1067 26.4077 92.2888 26.5653 92.467 26.7403L92.1936 26.9711C92.0174 26.7873 91.8392 26.6288 91.6578 26.4916L91.9253 26.2705Z" fill="white"/>
<path d="M95.2689 25.4055L95.6124 25.3122C95.5216 25.6187 95.4704 25.9186 95.4588 26.2119C95.4331 26.5753 95.4703 26.9259 95.5615 27.2617C95.6516 27.5937 95.7969 27.9148 96.0039 28.2192C96.1611 28.4625 96.357 28.6953 96.5914 28.9177L96.2479 29.011C95.9973 28.8055 95.787 28.5807 95.6171 28.3367C95.4084 28.0411 95.2593 27.7209 95.1649 27.3735C95.0695 27.0222 95.0352 26.6668 95.0668 26.3101C95.0879 26.0059 95.1556 25.7057 95.2689 25.4055Z" fill="white"/>
<path d="M97.5856 25.1695C97.8467 25.0934 98.0869 25.1026 98.3006 25.207C98.5105 25.3125 98.6521 25.4837 98.7225 25.7257C98.7919 25.9638 98.7624 26.2057 98.6428 26.453C98.5677 26.5957 98.4221 26.7965 98.2031 27.0603C97.9645 27.3423 97.8382 27.5665 97.8242 27.7331L99.1952 27.3337L99.3026 27.7023L97.4131 28.2528C97.3337 27.9802 97.3527 27.7163 97.4766 27.4552C97.5418 27.3071 97.701 27.0815 97.9494 26.7759C98.0957 26.5916 98.1961 26.4498 98.2494 26.3468C98.332 26.1728 98.3537 26.004 98.3067 25.8427C98.2619 25.6891 98.1861 25.5862 98.0792 25.534C97.9724 25.4818 97.8345 25.4803 97.6732 25.5273C97.5003 25.5776 97.3866 25.6733 97.3329 25.8181C97.2743 25.9601 97.2763 26.1387 97.3336 26.3637L96.915 26.4856C96.8293 26.1773 96.846 25.9058 96.9651 25.6711C97.0836 25.4199 97.2937 25.2545 97.5856 25.1695Z" fill="white"/>
<path d="M100.465 24.3057C100.786 24.2056 101.076 24.2617 101.336 24.4779C101.575 24.6798 101.761 24.9907 101.893 25.4145C102.024 25.8345 102.05 26.1994 101.968 26.5015C101.876 26.8236 101.671 27.0386 101.35 27.1387C101.03 27.2389 100.739 27.179 100.479 26.9666C100.24 26.7647 100.055 26.4537 99.9228 26.0299C99.7892 25.6023 99.7645 25.2413 99.8473 24.943C99.9383 24.6171 100.145 24.4059 100.465 24.3057ZM100.575 24.657C100.35 24.7274 100.231 24.8984 100.217 25.1752C100.201 25.3647 100.243 25.6071 100.335 25.9011C100.426 26.1913 100.529 26.4147 100.651 26.565C100.819 26.7807 101.015 26.8578 101.241 26.7875C101.462 26.7183 101.583 26.5422 101.598 26.2692C101.61 26.0772 101.571 25.8335 101.481 25.5433C101.389 25.2494 101.282 25.0272 101.164 24.8795C100.995 24.6599 100.797 24.5878 100.575 24.657Z" fill="white"/>
<path d="M103.141 23.4525C103.399 23.3675 103.639 23.3685 103.857 23.4655C104.07 23.5638 104.217 23.7301 104.296 23.9695C104.373 24.2051 104.352 24.4479 104.241 24.6992C104.171 24.8443 104.032 25.0499 103.822 25.321C103.593 25.611 103.475 25.8395 103.467 26.0064L104.823 25.5605L104.943 25.9252L103.074 26.5399C102.985 26.2701 102.995 26.0057 103.11 25.7406C103.17 25.5903 103.321 25.3594 103.559 25.0455C103.699 24.8563 103.795 24.7112 103.844 24.6064C103.921 24.4297 103.937 24.2602 103.884 24.1006C103.834 23.9486 103.755 23.8484 103.646 23.7999C103.538 23.7514 103.4 23.7546 103.24 23.807C103.069 23.8633 102.959 23.9627 102.91 24.1093C102.857 24.2532 102.865 24.4316 102.93 24.6545L102.515 24.7907C102.419 24.4854 102.427 24.2135 102.538 23.9749C102.648 23.7198 102.852 23.5474 103.141 23.4525Z" fill="white"/>
<path d="M105.839 22.5522C106.096 22.4642 106.336 22.4623 106.555 22.5568C106.769 22.6525 106.918 22.8171 107 23.0555C107.08 23.2902 107.062 23.5332 106.954 23.7858C106.885 23.9318 106.749 24.139 106.543 24.4126C106.317 24.7053 106.201 24.9351 106.195 25.1021L107.546 24.6401L107.67 25.0034L105.808 25.6402C105.716 25.3715 105.723 25.1071 105.835 24.8405C105.893 24.6896 106.042 24.4569 106.276 24.1401C106.414 23.9493 106.507 23.8031 106.556 23.6978C106.63 23.5201 106.644 23.3505 106.59 23.1915C106.538 23.0401 106.458 22.9408 106.349 22.8936C106.239 22.8464 106.102 22.8512 105.943 22.9056C105.772 22.9639 105.663 23.0646 105.616 23.2117C105.564 23.3563 105.574 23.5346 105.642 23.7567L105.229 23.8978C105.13 23.5937 105.134 23.3217 105.242 23.0818C105.349 22.8255 105.551 22.6506 105.839 22.5522Z" fill="white"/>
<path d="M108.545 23.4199L110.45 22.748L110.567 23.08L108.662 23.7519L108.545 23.4199Z" fill="white"/>
<path d="M111.79 20.4639C112.046 20.3718 112.286 20.3662 112.506 20.4572C112.722 20.5495 112.874 20.7117 112.959 20.9489C113.043 21.1822 113.028 21.4255 112.924 21.6797C112.858 21.8268 112.725 22.0361 112.523 22.3129C112.302 22.6091 112.19 22.8408 112.186 23.0079L113.53 22.5246L113.66 22.886L111.808 23.552C111.712 23.2847 111.714 23.0202 111.822 22.752C111.878 22.6001 112.023 22.3652 112.252 22.0447C112.387 21.8518 112.478 21.7041 112.525 21.598C112.597 21.4192 112.608 21.2494 112.551 21.0913C112.497 20.9407 112.415 20.8427 112.305 20.7972C112.195 20.7517 112.057 20.7587 111.899 20.8156C111.73 20.8765 111.622 20.979 111.578 21.1268C111.528 21.2722 111.541 21.4503 111.612 21.6713L111.202 21.8189C111.097 21.5164 111.097 21.2444 111.201 21.0028C111.304 20.7448 111.504 20.5668 111.79 20.4639Z" fill="white"/>
<path d="M114.265 19.5699C114.581 19.4551 114.873 19.4979 115.143 19.7019C115.391 19.8927 115.59 20.1948 115.742 20.6121C115.892 21.0256 115.935 21.3889 115.867 21.6944C115.79 22.0204 115.595 22.2446 115.279 22.3593C114.963 22.4741 114.67 22.4276 114.401 22.2273C114.153 22.0366 113.954 21.7344 113.802 21.3172C113.649 20.8961 113.608 20.5366 113.677 20.2348C113.753 19.9051 113.949 19.6847 114.265 19.5699ZM114.391 19.9158C114.169 19.9964 114.059 20.1727 114.057 20.4499C114.05 20.6399 114.103 20.8801 114.208 21.1696C114.312 21.4553 114.425 21.6737 114.555 21.8183C114.732 22.0261 114.931 22.0941 115.153 22.0135C115.371 21.9342 115.484 21.7528 115.487 21.4794C115.489 21.287 115.44 21.0454 115.336 20.7597C115.231 20.4702 115.114 20.2532 114.99 20.111C114.81 19.8994 114.609 19.8365 114.391 19.9158Z" fill="white"/>
<path d="M117.251 18.4825C117.506 18.3893 117.746 18.3825 117.966 18.4725C118.183 18.5639 118.335 18.7253 118.422 18.9621C118.507 19.1951 118.493 19.4384 118.39 19.6931C118.325 19.8405 118.193 20.0504 117.992 20.3281C117.773 20.6253 117.661 20.8575 117.658 21.0246L119 20.5352L119.132 20.8959L117.283 21.5704C117.185 21.3036 117.187 21.0391 117.293 20.7704C117.348 20.6183 117.492 20.3827 117.72 20.0612C117.854 19.8676 117.945 19.7195 117.991 19.6132C118.062 19.4341 118.072 19.2642 118.015 19.1064C117.96 18.9561 117.877 18.8584 117.767 18.8134C117.657 18.7684 117.519 18.7761 117.362 18.8337C117.193 18.8954 117.085 18.9983 117.041 19.1464C116.992 19.292 117.006 19.47 117.078 19.6907L116.669 19.8401C116.563 19.5382 116.561 19.2661 116.665 19.0241C116.766 18.7656 116.965 18.5867 117.251 18.4825Z" fill="white"/>
<path d="M119.463 17.735L121.079 17.1475L121.21 17.5084L119.925 17.9757L120.127 18.7788L120.138 18.7747C120.19 18.6582 120.262 18.5639 120.357 18.4867C120.44 18.4098 120.546 18.35 120.666 18.3063C120.918 18.2148 121.155 18.2223 121.373 18.3304C121.591 18.4384 121.756 18.6339 121.861 18.9234C121.962 19.2016 121.939 19.4654 121.8 19.7159C121.665 19.9435 121.465 20.1057 121.198 20.2027C120.957 20.2902 120.726 20.2976 120.505 20.2289C120.262 20.1557 120.084 19.9947 119.975 19.7534L120.377 19.6072C120.447 19.7522 120.549 19.8468 120.678 19.8851C120.793 19.92 120.926 19.9101 121.076 19.8555C121.241 19.7954 121.361 19.6922 121.437 19.5497C121.512 19.4035 121.519 19.2476 121.456 19.0747C121.388 18.8867 121.286 18.7579 121.15 18.6881C121.014 18.6184 120.859 18.6149 120.679 18.6805C120.558 18.7242 120.464 18.7799 120.39 18.8578C120.309 18.9384 120.263 19.0358 120.246 19.1527L119.863 19.292L119.463 17.735Z" fill="white"/>
<path d="M122.732 16.9312C122.669 17.2515 122.551 17.5402 122.379 17.806L122.03 17.5913C122.305 17.1738 122.422 16.7068 122.38 16.1865L122.773 16.1218C122.782 16.2633 122.786 16.3936 122.781 16.5227L125.07 15.7012L125.195 16.0475L124.039 16.4624L124.225 16.9819L125.249 16.6144L125.369 16.9495L124.345 17.317L124.608 18.0474L125.88 17.5907L126.006 17.9408L124.733 18.3975L125.025 19.2107L124.667 19.3391L124.376 18.5259L122.666 19.1393L122.541 18.7892L123.132 18.577L122.749 17.5116L123.868 17.1103L123.681 16.5907L122.732 16.9312ZM123.493 18.4473L124.25 18.1757L123.988 17.4454L123.231 17.7169L123.493 18.4473Z" fill="white"/>
<path d="M125.728 14.9978L126.063 14.8796C126.323 15.0637 126.55 15.2725 126.743 15.5096C126.968 15.7867 127.145 16.0975 127.266 16.4408C127.386 16.7804 127.441 17.1299 127.441 17.4905C127.435 17.7891 127.39 18.0935 127.304 18.4036L126.968 18.5218C127.031 18.207 127.06 17.9042 127.055 17.6133C127.049 17.2465 126.99 16.8983 126.876 16.5738C126.761 16.2456 126.588 15.9373 126.365 15.6513C126.185 15.4177 125.973 15.1999 125.728 14.9978Z" fill="white"/>
<path d="M128.016 14.1928L129.406 15.6907L129.229 17.7264L128.88 17.6941L129.043 15.8154L127.76 14.4329L128.016 14.1928Z" fill="white"/>
<path d="M132.737 13.3175L133.607 15.962L133.261 16.0758L133.196 15.8782L132.596 16.0757L132.697 16.3835L132.351 16.4973L131.445 13.7426L131.806 13.6238C131.807 13.3961 131.791 13.1696 131.749 12.9392L132.126 12.8699C132.157 13.0914 132.164 13.3039 132.152 13.51L132.737 13.3175ZM132.486 15.7414L133.086 15.5438L132.84 14.7953L132.24 14.9928L132.486 15.7414ZM132.133 14.6699L132.734 14.4724L132.504 13.7732L131.903 13.9708L132.133 14.6699ZM133.721 14.0044C134.074 14.2334 134.357 14.4394 134.567 14.6313L134.348 14.9264C134.122 14.7231 133.833 14.5108 133.488 14.283L133.721 14.0044ZM134.699 12.6762C135.13 13.9871 135.377 14.8026 135.439 15.1191C135.491 15.4052 135.354 15.602 135.031 15.7082C134.955 15.7332 134.816 15.7707 134.622 15.8218L134.426 15.52C134.596 15.4725 134.742 15.4326 134.864 15.3926C135.016 15.3426 135.077 15.2341 135.047 15.067C135.008 14.8695 134.809 14.2274 134.46 13.142L133.507 13.4558C133.475 13.7188 133.422 13.9678 133.341 14.2053L133.03 13.9916C133.161 13.5443 133.19 13.0422 133.108 12.4879L133.48 12.416C133.512 12.6412 133.524 12.8563 133.525 13.0625L134.699 12.6762Z" fill="white"/>
<path d="M135.521 11.7572C135.844 11.879 136.124 12.0139 136.362 12.1581L136.184 12.4896C135.972 12.346 135.694 12.2061 135.346 12.0711L135.521 11.7572ZM138.78 14.4984C138.57 14.5636 138.34 14.6309 138.094 14.703C137.845 14.7762 137.635 14.8162 137.463 14.8278C137.296 14.8293 137.133 14.7791 136.979 14.6848C136.905 14.6365 136.85 14.6201 136.804 14.6344C136.723 14.6593 136.639 14.8739 136.551 15.2782L136.207 15.1128C136.302 14.7441 136.413 14.4959 136.542 14.3721L136.207 13.291L135.695 13.4498L135.59 13.1137L136.442 12.8493L136.891 14.2933C136.914 14.3027 136.939 14.3158 136.966 14.3328C137.085 14.4087 137.201 14.4567 137.312 14.4767C137.443 14.4946 137.622 14.4768 137.85 14.4145C138.068 14.3507 138.326 14.2751 138.624 14.1827C138.811 14.1246 139.001 14.0615 139.19 13.9984C139.38 13.9353 139.527 13.8814 139.628 13.8417L139.651 14.2281L138.78 14.4984ZM137.174 11.6588L136.437 11.8876L136.343 11.5858L138.441 10.9349L138.52 11.1909C138.358 11.4506 138.171 11.6846 137.961 11.9004C137.971 11.9057 137.98 11.9071 137.99 11.9124L138.758 11.6741L139.284 13.3703C139.354 13.5957 139.264 13.7494 139.016 13.8264L138.721 13.9177L138.551 13.6397L138.827 13.5708C138.911 13.5447 138.944 13.4884 138.918 13.4044L138.858 13.2095L138.308 13.3803L138.502 14.0068L138.17 14.1099L137.975 13.4834L137.437 13.6506L137.633 14.2848L137.29 14.3915L136.649 12.3285L137.528 12.0558C137.376 12.0109 137.207 11.9669 137.024 11.9315L137.174 11.6588ZM137.686 11.7972C137.822 11.6672 137.943 11.5293 138.049 11.3873L137.193 11.6529C137.367 11.6995 137.532 11.7447 137.686 11.7972ZM137.262 13.089L137.345 13.3564L137.884 13.1893L137.801 12.9218L137.262 13.089ZM138.133 12.8187L138.216 13.0861L138.766 12.9154L138.683 12.648L138.133 12.8187ZM138.591 12.35L138.508 12.0826L137.958 12.2533L138.041 12.5207L138.591 12.35ZM137.708 12.6239L137.625 12.3564L137.087 12.5236L137.17 12.791L137.708 12.6239Z" fill="white"/>
<path d="M142.367 10.0709L143.235 13.0679L142.881 13.1702L142.818 12.9512L142.145 13.1458L142.21 13.3686L141.856 13.4709L140.988 10.4701L142.367 10.0709ZM142.046 12.8038L142.719 12.6092L142.113 10.5151L141.44 10.7097L142.046 12.8038ZM139.741 11.3265C139.708 11.5442 139.659 11.7499 139.598 11.9424L139.221 11.831C139.362 11.3987 139.426 10.9594 139.41 10.5144L139.793 10.4868C139.797 10.6439 139.79 10.7917 139.782 10.9357L140.831 10.6321L140.932 10.9818L140.409 11.133C140.471 11.3735 140.524 11.5997 140.56 11.81L141.159 11.6365L141.26 11.9862L140.611 12.1741C140.62 12.2631 140.625 12.3532 140.632 12.4344C140.935 12.6048 141.25 12.801 141.581 13.0219L141.456 13.4245C141.12 13.1553 140.843 12.948 140.626 12.8026C140.581 13.2527 140.408 13.6737 140.096 14.0637L139.773 13.8407C140.087 13.4291 140.244 12.9924 140.246 12.5253C140.24 12.4479 140.237 12.3655 140.23 12.2842L139.473 12.5032L139.372 12.1536L140.183 11.9189C140.147 11.7086 140.094 11.4824 140.033 11.242L139.741 11.3265Z" fill="white"/>
<path d="M143.054 9.44288L144.333 11.0359L144.012 13.0538L143.666 12.9967L143.962 11.1344L142.781 9.66416L143.054 9.44288ZM143.715 9.26738L144.994 10.8604L144.673 12.8783L144.327 12.8212L144.623 10.9589L143.427 9.49277L143.715 9.26738Z" fill="white"/>
</svg>
