<svg width="98" height="39" viewBox="0 0 98 39" fill="none" xmlns="http://www.w3.org/2000/svg">
<path d="M4.82641 28.3959L5.0819 28.6574L3.70234 29.9525L3.74963 31.8376L3.39889 31.8484L3.34748 29.8058L4.82641 28.3959ZM5.45851 28.6573L5.69921 28.9126L4.33444 30.2139L4.38173 32.099L4.03099 32.1098L3.97958 30.0672L5.45851 28.6573Z" fill="white"/>
<path d="M7.05479 29.315C7.12922 29.5549 7.19305 29.8123 7.24253 30.0857L6.96707 30.1174L7.74514 30.4006C7.95843 30.2356 8.17174 30.0238 8.3837 29.7689L8.69906 29.9901C8.52608 30.2081 8.34012 30.3915 8.14733 30.547L8.86149 30.8069L8.73563 31.1527L7.51027 30.7067L7.46786 30.8232C7.39468 31.0009 7.31569 31.1595 7.23329 31.304L8.72928 31.8485L8.60342 32.1943L7.28784 31.7155C7.30649 32.2373 7.64637 32.7654 8.30612 33.3035L7.9725 33.5652C7.30081 32.9546 6.95685 32.3442 6.93174 31.7348C6.79979 31.8869 6.65963 32.0146 6.51265 32.1144C6.13393 32.3597 5.62231 32.4672 4.97779 32.4369L4.89589 32.0538C5.54314 32.0765 6.02024 31.982 6.33095 31.7716C6.44204 31.6886 6.54596 31.5902 6.64134 31.4802L5.35583 31.0123L5.4817 30.6665L6.86493 31.1699C6.95245 31.023 7.0352 30.8658 7.10702 30.6919L7.14943 30.5754L5.92031 30.128L6.04617 29.7822L6.85055 30.075C6.80586 29.8118 6.74407 29.5722 6.67032 29.3538L7.05479 29.315Z" fill="white"/>
<path d="M9.87744 30.4507L12.7766 31.3246L12.6693 31.6807L11.4476 31.3125L11.1659 32.247L12.6557 32.696L12.546 33.0598L11.0562 32.6108L10.6626 33.9168C10.5818 34.1849 10.3986 34.28 10.119 34.1958L9.51004 34.0122L9.53964 33.6368C9.7315 33.7072 9.91685 33.7714 10.093 33.8245C10.2156 33.8614 10.2942 33.8224 10.3265 33.7152L10.6924 32.5012L9.1375 32.0325L9.24716 31.6687L10.8021 32.1373L11.0837 31.2028L9.77009 30.8069L9.87744 30.4507Z" fill="white"/>
<path d="M13.5278 33.2163L13.2935 34.2542C13.6293 34.2562 13.9872 34.2509 14.3613 34.2288L14.3822 34.5903C13.8723 34.6145 13.3551 34.6167 12.8337 34.6015L12.755 34.2597C12.8601 34.2302 12.9237 34.1666 12.9457 34.0691L13.4805 31.7007C13.9859 31.7328 14.4536 31.7318 14.8845 31.6938L15.0478 32.0423C14.675 32.077 14.255 32.0847 13.7869 32.0692L13.608 32.8613L14.6849 33.1044L14.6047 33.4595L13.5278 33.2163ZM15.6421 35.1126L15.2753 35.0298L15.2549 34.6479L15.6004 34.7341C15.7019 34.757 15.7658 34.71 15.7905 34.6007L16.2469 32.5796L15.4782 32.406L14.7857 35.4728L14.4111 35.3882L15.183 31.9703L16.7007 32.313L16.1474 34.7633C16.0813 35.056 15.9113 35.1734 15.6421 35.1126Z" fill="white"/>
<path d="M17.073 33.4954L17.5498 32.3833L17.917 32.4999L17.6073 33.2034L18.1934 33.2865C18.3102 33.0041 18.4134 32.7036 18.5069 32.3856L18.8843 32.4876C18.7925 32.7937 18.6915 33.0783 18.5855 33.3421L20.3994 33.5991L20.3483 33.9595L18.4394 33.689C18.3812 33.8141 18.3203 33.9307 18.2638 34.0439L19.848 34.2684L19.8031 34.5852C19.6541 34.8954 19.4185 35.161 19.0884 35.3808C19.3658 35.5898 19.7083 35.7959 20.1118 35.9985L19.8673 36.3275C19.4127 36.0853 19.0363 35.834 18.7407 35.582C18.397 35.7555 17.9847 35.8991 17.504 36.0127L17.3565 35.6282C17.7728 35.5418 18.1358 35.4316 18.4411 35.3012C18.2129 35.0588 18.0503 34.8095 17.9567 34.5579C17.5884 35.1036 17.1618 35.5198 16.6807 35.8072L16.5361 35.4312C17.1511 35.0254 17.6522 34.4258 18.0394 33.6323L17.073 33.4954ZM18.2591 34.3906C18.3567 34.6428 18.5318 34.8898 18.7849 35.1277C19.063 34.9611 19.2761 34.7691 19.4195 34.5551L18.2591 34.3906ZM19.5559 32.5383C19.8 32.783 19.9999 33.0254 20.1563 33.2617L19.8488 33.4928C19.7196 33.2644 19.5281 33.0191 19.267 32.7519L19.5559 32.5383Z" fill="white"/>
<path d="M24.1282 32.8826L24.4399 33.0439L23.5828 34.7236L24.2514 36.4867L23.9241 36.613L23.1994 34.7026L24.1282 32.8826Z" fill="white"/>
<path d="M26.1662 33.3474L26.982 33.3298L26.973 32.9139L27.3609 32.9055L27.3699 33.3214L28.2177 33.3031L28.2255 33.663L27.3777 33.6813L27.3985 34.6451L27.4166 34.7447L28.3284 34.725L28.3361 35.0809L27.5083 35.0988C27.6703 35.5594 27.9787 35.9449 28.4335 36.2551L28.2081 36.564C27.7248 36.2304 27.3989 35.7773 27.2265 35.2049C27.094 35.7359 26.752 36.2034 26.1926 36.6076L25.9541 36.3086C26.4665 35.9535 26.79 35.5544 26.9284 35.1113L26.1246 35.1287L26.1169 34.7728L27.0007 34.7537L27.0106 34.6535L26.9898 33.6897L26.174 33.7073L26.1662 33.3474ZM27.8045 33.8081L28.1504 33.8927C28.0925 34.174 28.0178 34.4197 27.9224 34.6338L27.5879 34.521C27.6719 34.3351 27.7467 34.0974 27.8045 33.8081ZM26.5371 33.8475C26.6295 34.0535 26.7107 34.2918 26.7886 34.5622L26.4504 34.6535C26.3813 34.415 26.2964 34.1888 26.1997 33.9708L26.5371 33.8475ZM24.7879 33.0691L26.0396 33.042L26.046 33.342C25.9375 33.6884 25.8133 34.0512 25.6696 34.4383C25.9135 34.8012 26.0484 35.1183 26.0783 35.3937C26.0823 35.5777 26.0453 35.7145 25.967 35.7962C25.8573 35.9026 25.6624 35.9589 25.3866 35.9688L25.2542 35.5836C25.3346 35.5979 25.4027 35.6044 25.4587 35.6032C25.5585 35.593 25.6262 35.5756 25.6575 35.5469C25.6889 35.5182 25.7079 35.4698 25.7064 35.4018C25.7006 35.1298 25.5661 34.8327 25.3029 34.5023C25.4622 34.0987 25.5864 33.732 25.6753 33.406L25.1675 33.417L25.2366 36.6202L24.8647 36.6282L24.7879 33.0691Z" fill="white"/>
<path d="M28.6124 32.9813L32.1915 32.6769L32.223 33.0475L31.0473 33.1475L31.091 33.6617L32.0555 33.5796L32.2789 36.2062L31.9003 36.2384L31.8871 36.0829L29.4957 36.2863L29.5089 36.4418L29.1303 36.474L28.9069 33.8475L29.8475 33.7675L29.8038 33.2533L28.644 33.352L28.6124 32.9813ZM29.4655 35.9316L31.8569 35.7282L31.8084 35.1583L31.2744 35.2037C30.9874 35.2281 30.8354 35.0925 30.8106 34.8015L30.7469 34.0523L30.2527 34.0943L30.2557 34.1302C30.302 34.7685 30.1224 35.2535 29.7211 35.5847L29.4171 35.3617L29.4655 35.9316ZM30.1784 33.2214L30.2221 33.7356L30.7164 33.6935L30.6726 33.1794L30.1784 33.2214ZM29.4154 35.3417C29.7617 35.0714 29.9172 34.6808 29.8811 34.162L29.878 34.1262L29.316 34.174L29.4154 35.3417ZM31.1215 34.0204L31.1778 34.682C31.188 34.8016 31.2452 34.8609 31.3568 34.8514L31.7793 34.8155L31.7074 33.9706L31.1215 34.0204Z" fill="white"/>
<path d="M33.989 32.289L34.3578 32.2403L34.4914 33.2515L34.1226 33.3003L33.989 32.289ZM33.3346 34.2073C33.1648 34.266 32.9951 34.3248 32.8248 34.3795L32.6251 34.0589C33.7975 33.7104 34.6777 33.2875 35.2617 32.7907C35.1172 32.7049 34.9648 32.6201 34.8044 32.5364L35.0263 32.261C35.468 32.4891 35.8502 32.7251 36.1644 32.966L35.9378 33.2662C35.824 33.1683 35.6983 33.0719 35.5567 32.9777C35.2357 33.2662 34.8426 33.5279 34.374 33.7674L35.7778 33.5819L36.0622 35.7352L35.6934 35.7839L35.6735 35.6332L33.9247 35.8643L33.9457 36.0229L33.5808 36.0711L33.3346 34.2073ZM33.8807 35.5312L35.6295 35.3001L35.5944 35.0344L33.8456 35.2655L33.8807 35.5312ZM33.8058 34.9641L35.5546 34.7331L35.5226 34.4912L33.7738 34.7222L33.8058 34.9641ZM33.7345 34.4248L35.4834 34.1937L35.4503 33.9439L33.7015 34.1749L33.7345 34.4248ZM33.3963 32.5973L33.6929 32.7962C33.4972 33.1166 33.2412 33.4086 32.9245 33.6683L32.6692 33.4156C32.9671 33.1664 33.2099 32.8963 33.3963 32.5973Z" fill="white"/>
<path d="M37.9527 32.3642L36.6305 32.5822L36.5713 32.2231L39.5984 31.7238L39.6577 32.083L38.3316 32.3017L38.7273 34.7013L40.3021 34.4415L40.3619 34.8046L36.8297 35.3872L36.7698 35.0241L38.3485 34.7638L37.9527 32.3642Z" fill="white"/>
<path d="M41.5122 31.1203L41.8844 31.044L42.5158 34.1239L42.986 34.0275L42.3546 30.9476L42.7269 30.8713L43.3583 33.9512L44.5025 33.7167L44.5772 34.0811L41.0819 34.7976L41.0072 34.4332L42.1435 34.2002L41.5122 31.1203ZM43.6091 31.4499L43.9575 31.4765C43.9468 32.181 43.8753 32.8081 43.7438 33.3618L43.3866 33.3125C43.5128 32.813 43.5891 32.189 43.6091 31.4499ZM40.9194 31.9931C41.2269 32.4772 41.5261 33.0406 41.821 33.6824L41.4977 33.8385C41.2384 33.2506 40.9439 32.6904 40.6229 32.16L40.9194 31.9931Z" fill="white"/>
<path d="M44.4556 30.5176C44.7524 30.6372 45.0078 30.772 45.2273 30.9122L45.044 31.2342C44.8487 31.0917 44.5885 30.9541 44.2683 30.8242L44.4556 30.5176ZM44.2545 31.751L45.1203 31.5203L45.556 33.1552C45.649 33.0228 45.7457 32.8728 45.8498 32.7043L46.0533 33.064C45.8639 33.3629 45.6528 33.6427 45.4191 33.8996L45.1913 33.6042C45.2388 33.5336 45.255 33.4548 45.2334 33.3736L44.8584 31.9667L44.3482 32.1027L44.2545 31.751ZM45.7569 31.8432L47.6315 31.3436L47.7211 31.6799C47.7007 32.0537 47.5934 32.3969 47.4004 32.7133C47.691 32.8097 48.0317 32.8762 48.4125 32.9072L48.2998 33.2767C47.8721 33.2251 47.5039 33.1328 47.1896 33.0096C46.9458 33.3064 46.6172 33.5802 46.2116 33.8291L45.9244 33.5745C46.3022 33.3454 46.606 33.103 46.8348 32.8433C46.504 32.6583 46.2471 32.4246 46.072 32.1401L45.8517 32.1988L45.7569 31.8432ZM46.416 32.0484C46.5677 32.2605 46.7751 32.4329 47.043 32.5684C47.2013 32.3234 47.307 32.0676 47.3552 31.7981L46.416 32.0484ZM45.6298 30.2792L46.9981 29.9145L47.2144 30.7262C47.2371 30.8112 47.2958 30.8452 47.3924 30.8195L47.7326 30.7288L47.8222 31.0651L47.3854 31.1815C47.111 31.2546 46.9407 31.1593 46.8727 30.9042L46.7264 30.3553L46.0848 30.5263L46.1157 30.6423C46.2229 31.0442 46.1015 31.4119 45.7543 31.7404L45.4356 31.5231C45.7212 31.2897 45.8328 31.0406 45.7627 30.7778L45.6298 30.2792Z" fill="white"/>
<path d="M49.3047 30.2899L50.2997 29.9609L49.9318 28.8481L50.304 28.7251L50.6719 29.8378L51.6137 29.5264L51.7318 29.8834L50.7899 30.1948L51.4668 32.2418L51.0946 32.3649L50.4177 30.3179L49.4227 30.6469L49.3047 30.2899ZM48.2569 29.4399C48.5653 29.5443 48.8357 29.6613 49.0693 29.7947L48.9054 30.127C48.6944 29.9987 48.4228 29.8779 48.0878 29.7696L48.2569 29.4399ZM48.1197 30.707L48.997 30.4169L49.532 32.0347C49.6208 31.8958 49.7085 31.7404 49.8 31.5712L50.0167 31.9082C49.849 32.2164 49.6548 32.5081 49.4366 32.7783L49.1931 32.5007C49.2401 32.4262 49.2529 32.3503 49.2278 32.2743L48.7657 30.8768L48.234 31.0526L48.1197 30.707Z" fill="white"/>
<path d="M52.9521 27.7376L53.3169 27.5941L53.5703 28.238L54.8954 27.7167L55.6027 29.5145L55.2491 29.6536L55.1656 29.4415L54.1941 29.8237L54.6847 31.0707L54.3199 31.2142L53.8293 29.9672L52.8615 30.348L52.945 30.5601L52.5914 30.6993L51.8841 28.9014L53.2055 28.3815L52.9521 27.7376ZM52.7253 30.0018L53.6931 29.621L53.3417 28.7277L52.3739 29.1085L52.7253 30.0018ZM54.0579 29.4775L55.0294 29.0953L54.678 28.202L53.7064 28.5842L54.0579 29.4775Z" fill="white"/>
<path d="M58.6786 29.188L57.8699 29.5548C57.5858 29.6837 57.3793 29.606 57.2537 29.3292L56.3185 27.2674L56.6646 27.1104L57.5667 29.0994C57.613 29.2014 57.698 29.2243 57.8219 29.1681L58.4594 28.8789C58.5322 28.8459 58.5667 28.7863 58.5681 28.7022C58.5682 28.6056 58.4883 28.3519 58.3178 27.9373L58.6952 27.8979C58.9007 28.4284 58.9848 28.7592 58.951 28.8975C58.9194 29.0216 58.828 29.1202 58.6786 29.188ZM55.932 27.8775L56.2949 27.7964C56.4907 28.4894 56.603 29.1148 56.6341 29.6674L56.2511 29.6171C56.2118 29.0463 56.103 28.4676 55.932 27.8775ZM58.3353 26.6688C58.768 27.0611 59.1921 27.4924 59.6035 27.9734L59.351 28.2593C58.9052 27.7412 58.4709 27.2969 58.0514 26.9337L58.3353 26.6688ZM56.5709 26.2261C57.0584 26.4486 57.4515 26.6568 57.7519 26.8544L57.5497 27.1833C57.2321 26.9672 56.8393 26.75 56.3677 26.5335L56.5709 26.2261Z" fill="white"/>
<path d="M60.7214 24.2606L61.0635 24.0861C61.2198 24.3926 61.3563 24.6867 61.4693 24.9613C62.1016 25.7435 62.7784 26.2784 63.4998 26.5661L63.4029 26.9747C62.8175 26.6985 62.2669 26.2878 61.7474 25.7445L61.7897 25.898C61.974 26.5763 61.9272 27.2332 61.6532 27.8758L61.2834 27.7141C61.5116 27.1578 61.5555 26.5921 61.4221 26.0136C61.3021 25.5315 61.0667 24.9466 60.7214 24.2606ZM59.1446 25.069C59.4653 25.1255 59.7503 25.2002 60.0015 25.2966L59.8898 25.6499C59.6618 25.5551 59.375 25.4769 59.0275 25.4205L59.1446 25.069ZM59.2011 26.3423L60.0243 25.9226L60.7837 27.4121C60.847 27.2632 60.9101 27.0963 60.9766 26.9097L61.2402 27.2153C61.1193 27.5419 60.9733 27.8543 60.8003 28.158L60.5176 27.9205C60.5528 27.8397 60.5539 27.7628 60.5158 27.6879L59.8653 26.4122L59.3664 26.6665L59.2011 26.3423Z" fill="white"/>
<path d="M63.1241 24.2719L65.1982 23.1127L65.3738 23.427L64.5149 23.9071L64.8076 24.4308L65.8132 23.8688L65.9888 24.183L64.9832 24.7451L65.3423 25.3875C65.5993 25.2897 65.8988 25.1452 66.2499 24.9535C66.4245 24.856 66.6002 24.744 66.774 24.6286L66.8946 24.9919L66.5664 25.1754C65.8331 25.5852 65.2688 25.8135 64.8804 25.8565C64.5984 25.8766 64.331 25.8245 64.0781 25.7C64.1015 26.0535 64.0701 26.3827 63.9839 26.6875L63.6191 26.5431C63.7561 26.0175 63.7219 25.4317 63.5136 24.7966L63.8661 24.6729C63.9374 24.8989 63.9923 25.1202 64.0305 25.3279C64.3469 25.5086 64.6524 25.5715 64.9397 25.5117L64.9751 25.5011L64.1867 24.0905L63.2998 24.5862L63.1241 24.2719ZM65.2401 22.1957L65.6831 22.9883L65.3584 23.1698L65.0871 22.6845L62.8106 23.9569L63.0916 24.4597L62.7669 24.6412L62.3141 23.8311L63.627 23.0973C63.5156 23.0129 63.4032 22.9429 63.2966 22.8833L63.6215 22.6284C63.7309 22.7093 63.8461 22.8007 63.9657 22.908L65.2401 22.1957Z" fill="white"/>
<path d="M68.7611 21.4832L69.1945 22.2027L67.5259 23.2079L67.6353 23.3895L69.4649 22.2873L70.016 23.2022L69.6905 23.3982L69.6162 23.2749L68.112 24.181L68.1843 24.3009L67.8588 24.497L66.7669 22.6844L68.7611 21.4832ZM67.9387 23.8932L69.4428 22.9871L69.2942 22.7404L67.7901 23.6465L67.9387 23.8932ZM67.369 22.9475L68.719 22.1343L68.5993 21.9355L67.2493 22.7488L67.369 22.9475ZM68.9759 20.7701L69.3701 21.4245L69.0515 21.6165L68.8224 21.2361L66.513 22.6272L66.7421 23.0076L66.4235 23.1995L66.0292 22.5451L67.3553 21.7463C67.2866 21.6943 67.2186 21.6512 67.1547 21.615L67.4136 21.3936L67.3327 21.391C67.3665 21.0905 67.3509 20.801 67.277 20.5233L67.6301 20.404C67.6446 20.4747 67.6605 20.5398 67.6729 20.607L68.6255 20.0332L68.7968 20.3176L68.2383 20.6541C68.3385 20.6964 68.4285 20.745 68.5074 20.7908L68.2836 21.0704C68.1627 20.9938 68.0316 20.9233 67.8922 20.8625L67.7175 20.9678C67.7273 21.1159 67.7262 21.2614 67.7121 21.4006L67.4836 21.3935C67.5482 21.4387 67.6134 21.4927 67.6842 21.5482L68.9759 20.7701ZM66.2441 21.8553C66.2431 22.024 66.231 22.1901 66.2059 22.3499L65.8142 22.3431C65.8849 22.0109 65.8851 21.6933 65.8221 21.395L66.1752 21.2757C66.1897 21.3464 66.2008 21.4191 66.2133 21.4863L67.0768 20.9661L67.2481 21.2505L66.7341 21.5601C66.8474 21.6086 66.9517 21.6579 67.0403 21.7119L66.8103 22.0045C66.6778 21.9163 66.5404 21.8356 66.3949 21.7645L66.2441 21.8553Z" fill="white"/>
<path d="M70.1486 18.92L71.8538 17.8295L72.8839 19.4403L72.193 19.8821L72.4085 20.2191L73.1432 19.7493L73.3328 20.0459L72.5982 20.5156L72.8223 20.8661L73.6749 20.3209L73.871 20.6276L71.8322 21.9313L71.6361 21.6247L72.5055 21.0687L72.2814 20.7182L71.5434 21.1902L71.3538 20.8936L72.0918 20.4217L71.8763 20.0847L71.1787 20.5308L70.1486 18.92ZM72.3962 19.3534L72.1505 18.9692L71.7664 19.2149L72.012 19.599L72.3962 19.3534ZM71.6953 19.8016L71.4496 19.4175L71.0587 19.6674L71.3044 20.0516L71.6953 19.8016ZM70.882 19.3911L71.2729 19.1411L71.0272 18.757L70.6363 19.0069L70.882 19.3911ZM71.344 18.5544L71.5896 18.9386L71.9738 18.6929L71.7281 18.3087L71.344 18.5544ZM69.695 20.7721L70.0286 20.5588L69.5675 19.8377L69.1833 20.0833L68.9893 19.78L70.0778 19.084L70.2718 19.3873L69.891 19.6308L70.3521 20.3519L70.6925 20.1343L70.8886 20.4409L70.5482 20.6586L70.9793 21.3325C71.068 21.2188 71.1533 21.1073 71.231 20.9911L71.4292 21.3012C71.1968 21.6207 70.9334 21.9364 70.6334 22.2469L70.3598 21.9898C70.4862 21.8757 70.605 21.7571 70.7182 21.6372L70.2247 20.8655L69.8911 21.0788L69.695 20.7721Z" fill="white"/>
<path d="M73.2911 18.4349L73.6438 18.3579C73.7986 18.827 73.858 19.2252 73.8207 19.5581L73.4467 19.5098C73.4818 19.188 73.4314 18.8319 73.2911 18.4349ZM73.1903 16.7943L73.5095 16.5809L73.923 17.1994L74.9738 16.4969C75.1228 16.7341 75.264 16.9524 75.3907 17.1564L75.539 16.9033C75.8921 17.1003 76.2618 17.3295 76.6471 17.5963L76.4512 17.9294C76.1136 17.6836 75.7838 17.471 75.473 17.2939C75.6242 17.5488 75.7576 17.7772 75.8688 17.9723C76.0756 18.3537 76.1881 18.6442 76.2094 18.8416C76.2263 19.0324 76.1522 19.1879 75.9915 19.3145L75.6024 19.5746L75.3114 19.3265C75.4289 19.2576 75.5375 19.1898 75.6373 19.1231C75.8002 19.0141 75.8344 18.8277 75.7442 18.5704C75.6418 18.3021 75.3438 17.7844 74.8558 17.0184L74.1142 17.5142C74.4345 18.0651 74.6304 18.5597 74.7019 18.9978C74.7713 19.4759 74.6721 19.9464 74.4098 20.4105L74.0523 20.2501C74.2914 19.7871 74.3729 19.3477 74.2991 18.9351C74.2188 18.5702 74.0507 18.1677 73.795 17.7276L73.0036 18.2567L72.799 17.9508L73.6038 17.4128L73.1903 16.7943Z" fill="white"/>
<path d="M77.265 14.0211L77.5809 13.8028L77.9243 14.2996L78.7437 13.7334L78.9529 14.0361L78.1335 14.6024L78.5088 15.1453L79.417 14.5177L79.6262 14.8204L78.5567 15.5595C78.6739 16.1301 78.7345 16.5696 78.7353 16.8802C79.0699 16.5906 79.3877 16.2835 79.6931 15.9655C79.4847 15.8469 79.2821 15.7438 79.0887 15.6538L79.3232 15.3459C79.7448 15.5408 80.1569 15.7713 80.561 16.0464L80.3558 16.3827C80.2357 16.3004 80.1179 16.2213 80.0069 16.1522C79.5825 16.5865 79.1017 17.0306 78.5668 17.4878L78.3056 17.2647C78.3251 17.2366 78.3414 17.2108 78.351 17.1896C78.4071 16.9612 78.3627 16.4959 78.2178 15.7938L77.4906 16.2963L77.2814 15.9936L78.1929 15.3637L77.8176 14.8207L77.0641 15.3415L76.8549 15.0387L77.6084 14.518L77.265 14.0211ZM75.8551 15.0344C76.1794 15.0534 76.4685 15.0918 76.728 15.1507L76.6612 15.5324C76.4292 15.4642 76.1345 15.4247 75.7781 15.4085L75.8551 15.0344ZM76.3049 15.8612C76.6128 15.8916 76.891 15.9424 77.143 16.0114L77.0705 16.3921C76.8485 16.3171 76.568 16.2629 76.2313 16.2331L76.3049 15.8612ZM77.2654 16.5686L77.628 16.4882C77.7708 16.9973 77.8812 17.4948 77.9625 17.9783L77.5544 18.0561C77.4883 17.5524 77.3923 17.0547 77.2654 16.5686Z" fill="white"/>
<path d="M79.1271 12.6817L80.8812 13.7296L81.2828 15.7331L80.9384 15.8001L80.5676 13.9512L78.9488 12.984L79.1271 12.6817Z" fill="white"/>
<path d="M83.4298 10.4724L85.0501 12.7363L84.7541 12.9481L84.6331 12.779L84.1191 13.1469L84.3077 13.4103L84.0117 13.6222L82.3238 11.264L82.6329 11.0428C82.5657 10.8253 82.4832 10.6138 82.3742 10.4065L82.7134 10.2276C82.809 10.4298 82.8789 10.6306 82.9288 10.831L83.4298 10.4724ZM83.9143 12.8606L84.4282 12.4928L83.9696 11.852L83.4556 12.2198L83.9143 12.8606ZM83.2577 11.9434L83.7717 11.5755L83.3433 10.977L82.8294 11.3449L83.2577 11.9434ZM84.574 10.834C84.9796 10.9471 85.3107 11.0593 85.5689 11.1795L85.4484 11.5265C85.1711 11.4003 84.832 11.2839 84.4353 11.1694L84.574 10.834ZM85.1105 9.27437C85.9137 10.3965 86.3933 11.101 86.547 11.3845C86.6821 11.642 86.6098 11.8708 86.3333 12.0687C86.2683 12.1153 86.1465 12.1926 85.9769 12.2992L85.6995 12.0698C85.8473 11.9739 85.9756 11.8919 86.0797 11.8174C86.2098 11.7243 86.2357 11.6024 86.1574 11.4518C86.0605 11.2752 85.6792 10.7218 85.0222 9.79013L84.2057 10.3745C84.2543 10.6348 84.2783 10.8882 84.2711 11.1393L83.9111 11.0281C83.9023 10.5622 83.7795 10.0745 83.5363 9.56978L83.87 9.38997C83.9678 9.5954 84.0434 9.79713 84.1054 9.99376L85.1105 9.27437Z" fill="white"/>
<path d="M85.396 8.29976C85.7406 8.31287 86.0495 8.35169 86.3203 8.41298L86.2571 8.78382C86.0104 8.715 85.7024 8.6706 85.3299 8.65294L85.396 8.29976ZM89.3567 9.86435C89.1781 9.99289 88.981 10.1299 88.7709 10.2762C88.5576 10.4249 88.3715 10.5293 88.2118 10.595C88.0539 10.6495 87.8842 10.6534 87.7074 10.6132C87.6222 10.5907 87.5646 10.5928 87.5256 10.6209C87.4574 10.6699 87.4458 10.9002 87.4906 11.3115L87.1114 11.2641C87.0844 10.8843 87.1113 10.6136 87.1944 10.4552L86.5329 9.53653L86.0979 9.84972L85.8923 9.56406L86.6161 9.04285L87.4996 10.2699C87.5252 10.2712 87.5531 10.2757 87.5834 10.2835C87.7211 10.3174 87.8458 10.3262 87.9573 10.31C88.0874 10.2853 88.2513 10.2117 88.4475 10.0803C88.6349 9.95031 88.8547 9.79696 89.1079 9.61466C89.2669 9.50013 89.4269 9.38002 89.5869 9.25991C89.7469 9.1398 89.8688 9.04216 89.9517 8.97256L90.0968 9.33145L89.3567 9.86435ZM86.9323 7.68155L86.3058 8.13264L86.1212 7.8762L87.9033 6.59304L88.0599 6.81053C87.9885 7.10839 87.8854 7.38964 87.7553 7.66076C87.7664 7.66258 87.7753 7.66115 87.7864 7.66297L88.4389 7.19318L89.4766 8.63445C89.6145 8.82597 89.5775 9.00048 89.3665 9.1524L89.1166 9.33237L88.867 9.12267L89.1068 8.96971C89.1783 8.91829 89.1915 8.85454 89.1401 8.78312L89.0209 8.61757L88.5534 8.95414L88.9368 9.4865L88.6543 9.68984L88.271 9.15748L87.8133 9.48704L88.2013 10.0259L87.9092 10.2362L86.647 8.48335L87.3936 7.94578C87.2351 7.95149 87.0612 7.96331 86.8767 7.98772L86.9323 7.68155ZM87.4618 7.65025C87.5491 7.48391 87.6196 7.31485 87.6757 7.14631L86.9485 7.66986C87.128 7.65895 87.2986 7.64947 87.4618 7.65025ZM87.4697 9.00986L87.6334 9.23709L88.0911 8.90753L87.9274 8.6803L87.4697 9.00986ZM88.2099 8.47696L88.3735 8.70419L88.8409 8.36762L88.6773 8.1404L88.2099 8.47696ZM88.495 7.8872L88.3314 7.65997L87.8639 7.99654L88.0276 8.22377L88.495 7.8872ZM87.7451 8.42711L87.5815 8.19988L87.1238 8.52944L87.2874 8.75666L87.7451 8.42711Z" fill="white"/>
<path d="M91.5593 4.2959L93.3817 6.82835L93.083 7.0433L92.9499 6.85824L92.3817 7.26711L92.5172 7.45542L92.2185 7.67037L90.3938 5.13467L91.5593 4.2959ZM92.1737 6.97815L92.7419 6.56928L91.4686 4.79981L90.9004 5.20868L92.1737 6.97815ZM89.5062 6.3598C89.5484 6.57587 89.5714 6.78597 89.5786 6.98775L89.1853 7.00959C89.1735 6.55487 89.0869 6.11948 88.9222 5.70575L89.2741 5.55106C89.3304 5.6978 89.3733 5.83947 89.4137 5.9779L90.3001 5.34006L90.5127 5.63551L90.0711 5.95326C90.2095 6.15923 90.3353 6.35455 90.4396 6.54065L90.9461 6.17617L91.1587 6.47162L90.61 6.86647C90.6484 6.94725 90.6836 7.03036 90.7174 7.10464C91.0603 7.16341 91.4228 7.24258 91.8081 7.3398L91.8254 7.76103C91.4185 7.62017 91.0885 7.51764 90.8353 7.45343C90.9443 7.89247 90.9217 8.34731 90.7587 8.81939L90.3799 8.71749C90.5376 8.22451 90.5388 7.76044 90.3842 7.31971C90.3528 7.24867 90.3223 7.17206 90.2886 7.09778L89.649 7.55805L89.4364 7.26259L90.1214 6.76961C90.0171 6.58352 89.8913 6.3882 89.753 6.18223L89.5062 6.3598Z" fill="white"/>
<path d="M92.0241 3.44481L93.7843 4.48246L94.1976 6.48351L93.8535 6.55255L93.472 4.70586L91.8476 3.7481L92.0241 3.44481ZM92.5804 3.04688L94.3406 4.08453L94.7539 6.08558L94.4099 6.15462L94.0283 4.30793L92.3909 3.35948L92.5804 3.04688Z" fill="white"/>
</svg>
