<svg width="146" height="37" viewBox="0 0 146 37" fill="none" xmlns="http://www.w3.org/2000/svg">
<path d="M3.79669 3.64236L4.09999 3.84642L3.01258 5.395L3.44215 7.23112L3.10094 7.31301L2.6353 5.32349L3.79669 3.64236ZM4.46872 3.76974L4.75631 3.97082L3.68461 5.52238L4.11419 7.3585L3.77297 7.44039L3.30733 5.45087L4.46872 3.76974Z" fill="white"/>
<path d="M6.10122 4.09958C6.21795 4.32202 6.32741 4.56352 6.42567 4.82341L6.16053 4.90457L6.97707 5.04189C7.15689 4.84093 7.32823 4.59393 7.49042 4.30482L7.84068 4.46513C7.71012 4.71088 7.56053 4.92504 7.39914 5.11287L8.14861 5.23892L8.08758 5.60182L6.80164 5.38555L6.78108 5.50784C6.74134 5.69585 6.69243 5.8661 6.63762 6.02318L8.20757 6.28722L8.14654 6.65012L6.76593 6.41793C6.87894 6.92773 7.30899 7.3854 8.05542 7.79486L7.77481 8.11273C7.0035 7.63418 6.5545 7.09626 6.41925 6.50159C6.31707 6.67505 6.20242 6.82612 6.07598 6.95088C5.74804 7.26078 5.26441 7.45932 4.6251 7.5465L4.47504 7.1846C5.11568 7.08954 5.56772 6.91002 5.83509 6.64672C5.92928 6.54493 6.01362 6.42932 6.08745 6.30382L4.7384 6.07694L4.79943 5.71404L6.25105 5.95817C6.31047 5.7978 6.36332 5.62822 6.40239 5.44415L6.42296 5.32187L5.13307 5.10493L5.19411 4.74203L6.03825 4.884C5.94656 4.63332 5.84233 4.40893 5.73018 4.20754L6.10122 4.09958Z" fill="white"/>
<path d="M9.26174 4.73896L12.2579 5.17705L12.2041 5.54514L10.9415 5.36053L10.8003 6.32626L12.3399 6.55138L12.2849 6.92738L10.7453 6.70226L10.548 8.05191C10.5074 8.32896 10.3402 8.45003 10.0512 8.40779L9.42193 8.31577L9.39601 7.94007C9.59613 7.98146 9.78891 8.01773 9.97097 8.04435C10.0976 8.06287 10.1696 8.01276 10.1858 7.90194L10.3693 6.64728L8.76238 6.41232L8.81736 6.03632L10.4243 6.27128L10.5655 5.30555L9.20791 5.10705L9.26174 4.73896Z" fill="white"/>
<path d="M13.2246 6.96084L13.0927 8.01664C13.4271 7.98585 13.7828 7.94563 14.1529 7.88705L14.209 8.24476C13.704 8.31873 13.1895 8.37137 12.669 8.40714L12.5574 8.07473C12.6591 8.03503 12.7161 7.96557 12.7285 7.86634L13.0295 5.45706C13.5355 5.43965 14.0009 5.39297 14.4261 5.31306L14.6226 5.64397C14.2549 5.71495 13.8377 5.7636 13.3703 5.79391L13.2697 6.59965L14.3652 6.73649L14.3201 7.09768L13.2246 6.96084ZM15.5139 8.64156L15.1408 8.59495L15.0832 8.2169L15.4355 8.26897C15.5387 8.28186 15.5977 8.22876 15.6116 8.11763L15.8684 6.0616L15.0865 5.96393L14.6968 9.08369L14.3158 9.0361L14.7501 5.55911L16.2941 5.75198L15.9827 8.24461C15.9455 8.54229 15.7878 8.67577 15.5139 8.64156Z" fill="white"/>
<path d="M16.6626 6.89435L17.0982 5.76549L17.4695 5.86861L17.1857 6.58301L17.7745 6.64449C17.8809 6.35799 17.9729 6.05391 18.0548 5.73267L18.4357 5.82071C18.3551 6.13001 18.2647 6.41818 18.1684 6.68562L19.9905 6.87591L19.9527 7.23794L18.0351 7.03769C17.9816 7.16482 17.925 7.28358 17.8727 7.39877L19.4641 7.56496L19.4308 7.88323C19.2933 8.19865 19.0676 8.47269 18.7458 8.70452C19.0307 8.90319 19.3805 9.09656 19.7913 9.28424L19.5589 9.62193C19.0958 9.39662 18.7104 9.1593 18.4058 8.91836C18.0686 9.10435 17.662 9.26296 17.1857 9.39421L17.0242 9.01539C17.437 8.91371 17.7958 8.79031 18.0961 8.64873C17.8591 8.41485 17.6874 8.17171 17.5846 7.92369C17.2367 8.48258 16.8257 8.91422 16.3555 9.21903L16.1971 8.84857C16.7968 8.42055 17.2755 7.80293 17.6333 6.99572L16.6626 6.89435ZM17.8808 7.74548C17.9875 7.99392 18.1715 8.23433 18.4332 8.46275C18.7051 8.28602 18.9109 8.08632 19.0464 7.86721L17.8808 7.74548ZM19.1086 5.84674C19.3615 6.08228 19.5702 6.31723 19.7352 6.54761L19.4364 6.78989C19.2989 6.5664 19.0985 6.3283 18.8278 6.07079L19.1086 5.84674Z" fill="white"/>
<path d="M23.5394 6.9541L23.9181 6.98593L23.6738 9.89169L23.2952 9.85986L23.3149 9.62469L20.8556 9.41798L20.8362 9.64916L20.4575 9.61734L20.7031 6.69564L21.0817 6.72747L20.8861 9.05526L21.9264 9.1427L22.1757 6.17716L22.5583 6.20932L22.3091 9.17486L23.3454 9.26197L23.5394 6.9541Z" fill="white"/>
<path d="M24.4786 6.4821L28.0631 6.71496L28.0389 7.08618L26.8614 7.00968L26.828 7.52459L27.7939 7.58735L27.623 10.2178L27.2438 10.1932L27.254 10.0375L24.859 9.88191L24.8489 10.0376L24.4697 10.0129L24.6406 7.38249L25.5826 7.44369L25.616 6.92877L24.4545 6.85331L24.4786 6.4821ZM24.8821 9.52666L27.277 9.68225L27.3141 9.11145L26.7792 9.0767C26.4919 9.05803 26.3617 8.90127 26.3807 8.60988L26.4294 7.85946L25.9345 7.82731L25.9321 7.86323C25.8827 8.50137 25.6328 8.95412 25.1865 9.22175L24.9192 8.95586L24.8821 9.52666ZM25.9913 6.95315L25.9578 7.46806L26.4528 7.50022L26.4862 6.9853L25.9913 6.95315ZM24.9205 8.9359C25.3033 8.72026 25.5152 8.35724 25.5569 7.83886L25.5593 7.80293L24.9964 7.76637L24.9205 8.9359ZM26.8046 7.88384L26.7616 8.54644C26.7538 8.66619 26.8016 8.73342 26.9133 8.74069L27.3364 8.76817L27.3914 7.92196L26.8046 7.88384Z" fill="white"/>
<path d="M30.249 6.67125L30.6206 6.68856L30.5731 7.70746L30.2015 7.69015L30.249 6.67125ZM29.2654 8.4434C29.0879 8.47117 28.9105 8.49894 28.7332 8.52271L28.5933 8.17183C29.809 8.03625 30.7501 7.77577 31.4128 7.39019C31.2858 7.28016 31.1507 7.16976 31.0078 7.05899L31.2748 6.82716C31.6692 7.12984 32.0036 7.42973 32.2702 7.72246L31.9941 7.97788C31.8994 7.86135 31.7927 7.74426 31.6701 7.62642C31.3031 7.85359 30.8699 8.04163 30.3662 8.19436L31.7807 8.26026L31.6796 10.4299L31.308 10.4126L31.3151 10.2608L29.553 10.1787L29.5455 10.3385L29.1779 10.3214L29.2654 8.4434ZM29.5686 9.84303L31.3307 9.92512L31.3432 9.65741L29.5811 9.57532L29.5686 9.84303ZM29.5952 9.27165L31.3573 9.35374L31.3687 9.11001L29.6066 9.02791L29.5952 9.27165ZM29.6206 8.72824L31.3827 8.81033L31.3944 8.5586L29.6323 8.47651L29.6206 8.72824ZM29.611 6.86978L29.8678 7.118C29.6184 7.3987 29.3148 7.64083 28.9572 7.8404L28.7506 7.54647C29.0879 7.35396 29.3746 7.13106 29.611 6.86978Z" fill="white"/>
<path d="M34.3405 8.67623L34.3269 9.12002L34.9466 9.13904L34.9602 8.69525L34.3405 8.67623ZM34.3161 9.47185L34.3009 9.96762L34.9206 9.98664L34.9358 9.49087L34.3161 9.47185ZM34.2897 10.3314L34.2842 10.5114L33.9084 10.4998L33.9764 8.28487C33.8928 8.39836 33.8014 8.50761 33.706 8.61673L33.5904 8.213C33.9192 7.79889 34.1572 7.34598 34.3006 6.84614L34.6663 6.9294C34.6041 7.12758 34.5303 7.31741 34.4447 7.49887L35.0564 7.51764C34.9983 7.32377 34.9322 7.12965 34.8579 6.94328L35.2247 6.85849C35.3052 7.10508 35.3704 7.32718 35.4122 7.52856L36.0239 7.54734L36.0128 7.91117L35.3611 7.89117L35.347 8.35095L35.9187 8.3685L35.9078 8.72433L35.336 8.70678L35.3224 9.15057L35.8942 9.16812L35.8834 9.51995L35.3116 9.50241L35.2964 9.99817L35.9921 10.0195L35.9809 10.3834L34.2897 10.3314ZM34.9853 7.87963L34.3655 7.86061L34.3514 8.32039L34.9711 8.33941L34.9853 7.87963ZM33.6516 8.43498L33.6397 8.8228C33.5261 8.87134 33.4087 8.91575 33.2953 8.9603L33.2619 10.0478C33.254 10.3077 33.114 10.4354 32.8461 10.4272L32.4863 10.4162L32.4136 10.0458C32.5211 10.0651 32.6248 10.0763 32.7247 10.0793C32.8287 10.0825 32.8821 10.0361 32.8851 9.94017L32.9111 9.09257C32.7575 9.13988 32.6001 9.18308 32.4469 9.22239L32.3627 8.83563C32.5518 8.80141 32.7372 8.75908 32.9229 8.70875L32.9486 7.86915L32.4688 7.85442L32.4801 7.4866L32.9599 7.50132L32.9815 6.79765L33.3613 6.80931L33.3397 7.51298L33.7116 7.52439L33.7003 7.89222L33.3284 7.8808L33.307 8.58048C33.4244 8.53606 33.5379 8.48752 33.6516 8.43498Z" fill="white"/>
<path d="M36.986 6.95152C37.2466 7.16371 37.4673 7.37527 37.6479 7.58618L37.3716 7.8538C37.2188 7.65133 37.0022 7.43584 36.718 7.19927L36.986 6.95152ZM39.2164 10.5716C39.0004 10.5682 38.7645 10.5604 38.5126 10.5524C38.2567 10.5443 38.0491 10.517 37.8858 10.4744C37.7266 10.4238 37.5921 10.3256 37.4743 10.1877C37.4234 10.1189 37.3759 10.0862 37.3279 10.0854C37.248 10.0841 37.1011 10.2618 36.8914 10.6185L36.6156 10.354C36.8207 10.0333 37.004 9.83218 37.1652 9.75474L37.1833 8.62289L36.6434 8.61426L36.649 8.2623L37.5449 8.27662L37.5207 9.79243C37.5364 9.80868 37.5561 9.825 37.5757 9.84932C37.662 9.95871 37.7567 10.0402 37.8559 10.0938C37.971 10.1517 38.1424 10.1904 38.3742 10.2021C38.5981 10.2097 38.862 10.2179 39.17 10.2228C39.362 10.2259 39.562 10.2251 39.766 10.2244C39.9661 10.2236 40.1222 10.2181 40.2303 10.2118L40.1323 10.5863L39.2164 10.5716ZM37.8849 7.52596L38.3249 7.53299L38.3345 6.92907L38.6985 6.93488L38.6888 7.53881L39.2327 7.5475L39.2423 6.94758L39.6103 6.95346L39.6007 7.55338L40.0766 7.56099L40.0709 7.91694L39.595 7.90934L39.5837 8.61724L40.1876 8.6269L40.1819 8.98685L39.5779 8.9772L39.5606 10.0651L39.1926 10.0592L39.21 8.97132L38.5741 8.96116C38.4547 9.41931 38.2493 9.75607 37.9498 9.97531L37.7267 9.6677C37.9532 9.5113 38.113 9.27383 38.2061 8.95527L37.7222 8.94754L37.7279 8.58759L38.2839 8.59647C38.302 8.46074 38.3123 8.32089 38.3146 8.17291L38.3192 7.88894L37.8792 7.88191L37.8849 7.52596ZM38.6831 7.89476L38.68 8.09074C38.6771 8.27471 38.6624 8.4425 38.6438 8.60222L39.2157 8.61136L39.2271 7.90345L38.6831 7.89476Z" fill="white"/>
<path d="M40.4685 7.60953L42.0805 7.61575C41.9773 7.42335 41.85 7.24286 41.6986 7.07027L42.0792 6.93174C42.2224 7.12429 42.3575 7.35281 42.4805 7.61729L43.9965 7.62314L43.9951 7.99914L43.3831 7.99678C43.1887 8.60403 42.9028 9.11093 42.5252 9.52148C42.9399 9.86308 43.4588 10.1491 44.0739 10.3755L43.8607 10.6946C43.2176 10.4522 42.6827 10.1501 42.2601 9.78846C41.8066 10.1867 41.2495 10.4806 40.5887 10.67L40.386 10.3332C41.0347 10.1677 41.5677 9.90579 41.9931 9.54342C41.5548 9.10173 41.2488 8.58055 41.0791 7.98789L40.4671 7.98553L40.4685 7.60953ZM41.4431 7.98929C41.6092 8.48194 41.8795 8.91498 42.2581 9.28445C42.5835 8.9297 42.8291 8.49864 42.9911 7.99526L41.4431 7.98929Z" fill="white"/>
<path d="M45.394 6.93659L45.751 7.10235C45.6171 7.43119 45.4431 7.74429 45.2289 8.03764L45.2454 10.6736L44.8694 10.676L44.8557 8.484C44.6927 8.65302 44.5178 8.81812 44.3308 8.9753L44.2083 8.58006C44.7453 8.10868 45.1419 7.56218 45.394 6.93659ZM47.3169 10.5886L46.569 10.5933C46.249 10.5953 46.088 10.4363 46.086 10.1163L46.0789 8.99633C45.9354 9.07323 45.7879 9.15016 45.6363 9.22311L45.4621 8.8642C45.6775 8.76684 45.8848 8.66554 46.0761 8.55234L46.0664 6.99637L46.4464 6.99398L46.4546 8.31395C46.845 8.0515 47.1911 7.75332 47.4851 7.41947L47.7509 7.71781C47.3734 8.11218 46.9436 8.46689 46.4575 8.77395L46.4656 10.0619C46.4663 10.1739 46.5267 10.2295 46.6547 10.2287L47.2507 10.225C47.3427 10.2244 47.4105 10.192 47.4541 10.1317C47.4937 10.0715 47.5204 9.85929 47.5261 9.49125L47.8788 9.60504C47.8537 10.0652 47.8034 10.3455 47.732 10.442C47.6566 10.5385 47.5169 10.5873 47.3169 10.5886Z" fill="white"/>
<path d="M49.9708 8.53301L49.2269 8.54394L49.2493 10.0678C49.2507 10.1638 49.3034 10.215 49.4114 10.2134L50.1074 10.2032C50.2273 10.2014 50.3029 10.1683 50.33 10.1079C50.361 10.0434 50.383 9.9071 50.396 9.70289L50.7538 9.81765C50.7269 10.1661 50.682 10.3788 50.6111 10.4518C50.548 10.5167 50.4165 10.5507 50.2245 10.5535L49.2526 10.5678C49.0007 10.5715 48.8749 10.4533 48.8714 10.2133L48.8435 8.31354L48.6543 8.50834L48.4258 8.20367C48.8007 7.85012 49.1426 7.43306 49.4516 6.95646L49.7316 6.95235C50.0889 7.31514 50.4305 7.69416 50.7484 8.08954L50.5042 8.35315C50.1536 7.90226 49.8644 7.55447 49.6289 7.3139C49.4254 7.62492 49.1978 7.9243 48.938 8.21214L50.3378 8.19158L50.3541 9.29546C50.3533 9.5155 50.235 9.63325 49.9953 9.65277C49.8393 9.65506 49.6912 9.65324 49.5511 9.64729L49.4539 9.29268C49.6021 9.30651 49.7302 9.31263 49.8422 9.31098C49.9342 9.30963 49.9815 9.26093 49.9802 9.17294L49.9708 8.53301ZM50.9163 7.26698L51.2883 7.26152L51.3245 9.72925L50.9526 9.73472L50.9163 7.26698ZM51.6568 10.5605L51.0528 10.5693L50.9595 10.2067C51.1557 10.2198 51.3438 10.225 51.5198 10.2224C51.6158 10.221 51.6629 10.1603 51.6612 10.0443L51.6152 6.91668L51.9952 6.9111L52.0426 10.1347C52.0467 10.4147 51.9167 10.5566 51.6568 10.5605Z" fill="white"/>
<path d="M53.3041 7.41333L52.6802 7.42619L52.6736 7.10626L53.9934 7.07904C53.96 7.01171 53.9267 6.94839 53.8935 6.89306L54.3041 6.82058C54.3377 6.8959 54.3754 6.97914 54.4093 7.07046L55.793 7.04192L55.7996 7.36185L55.1637 7.37497L55.0527 7.61731L55.9925 7.59792L55.9993 7.92585L52.504 7.99795L52.4972 7.67002L53.405 7.65129L53.3041 7.41333ZM53.801 7.64313L54.6568 7.62547L54.7678 7.38313L53.7 7.40516L53.801 7.64313ZM52.9234 8.15734L55.5868 8.10239L55.6126 9.35013L52.9491 9.40507L52.9234 8.15734ZM55.2347 9.06986L55.2306 8.8699L53.311 8.9095L53.3151 9.10946L55.2347 9.06986ZM53.3054 8.63756L55.225 8.59796L55.2209 8.402L53.3013 8.4416L53.3054 8.63756ZM52.8004 9.56417L53.1699 9.63257C53.0844 9.9504 52.962 10.225 52.8028 10.4603L52.4707 10.2631C52.6262 10.0439 52.7335 9.8136 52.8004 9.56417ZM54.8635 10.4698L53.8877 10.4899C53.5798 10.4963 53.4249 10.3595 53.4193 10.0875L53.4087 9.57563L53.7927 9.56771L53.8016 9.99962C53.8036 10.0996 53.8647 10.1503 53.9887 10.1478L54.7845 10.1314C54.8565 10.1299 54.9081 10.1128 54.9355 10.0842C54.9748 10.0474 55.0006 9.94287 55.013 9.76658L55.3753 9.87513C55.3491 10.1557 55.2967 10.3289 55.2098 10.3867C55.1348 10.4362 55.0194 10.4666 54.8635 10.4698ZM54.3771 9.39162C54.5404 9.54828 54.6633 9.68578 54.7498 9.80802L54.4384 10.0345C54.3437 9.90442 54.2167 9.759 54.0574 9.60226L54.3771 9.39162ZM55.6266 9.44986C55.8519 9.70527 56.0246 9.92975 56.1445 10.1193L55.8331 10.3458C55.7047 10.1324 55.5359 9.89983 55.3226 9.64817L55.6266 9.44986Z" fill="white"/>
<path d="M59.9471 6.96147L60.0276 10.2445L59.6597 10.2535L59.6526 9.96159L58.7848 9.98286L58.7932 10.3228L58.4293 10.3317L58.3476 7.00068L59.9471 6.96147ZM58.776 9.62297L59.6438 9.6017L59.588 7.32638L58.7202 7.34765L58.776 9.62297ZM56.5565 7.87284L57.2243 7.85647L57.2125 7.37661C57.0292 7.40911 56.8418 7.43371 56.6582 7.45422L56.5299 7.11726C57.1446 7.05418 57.638 6.94205 58.0143 6.78878L58.202 7.10028C57.9998 7.17726 57.7935 7.24633 57.5787 7.29961L57.5921 7.84745L58.244 7.83147L58.2527 8.18736L57.6009 8.20334L57.6048 8.36329C57.8335 8.55375 58.0669 8.76809 58.3048 9.00633L58.0889 9.33972C57.9026 9.08821 57.7457 8.888 57.6138 8.73118L57.6555 10.4307L57.2876 10.4397L57.2479 8.82018C57.0962 9.16 56.8958 9.473 56.6547 9.759L56.4806 9.34714C56.8246 9.01861 57.0755 8.64435 57.2335 8.23235L57.233 8.21236L56.5652 8.22873L56.5565 7.87284Z" fill="white"/>
<path d="M60.7012 6.76144C60.9622 6.94663 61.1793 7.13697 61.3602 7.32427L61.1073 7.59503C60.9504 7.4111 60.7292 7.21686 60.4478 7.0162L60.7012 6.76144ZM60.2194 7.91453L61.1151 7.89093L61.1597 9.58234C61.2809 9.47511 61.4097 9.35167 61.55 9.21193L61.6645 9.60905C61.4109 9.85581 61.1407 10.079 60.8538 10.2746L60.7008 9.93455C60.7633 9.87688 60.7974 9.80396 60.7952 9.71999L60.7568 8.26449L60.229 8.2784L60.2194 7.91453ZM61.6594 8.35275L63.5988 8.30165L63.6079 8.64953C63.5014 9.00846 63.3174 9.31741 63.0563 9.58038C63.3166 9.74158 63.6325 9.88531 63.9957 10.0038L63.8004 10.337C63.3964 10.1876 63.0596 10.0124 62.7825 9.81968C62.4765 10.0518 62.0934 10.242 61.6411 10.3899L61.4207 10.0756C61.8413 9.94051 62.1931 9.77519 62.4759 9.57567C62.1971 9.31892 62.0014 9.03198 61.8971 8.71461L61.6691 8.72062L61.6594 8.35275ZM62.2529 8.70524C62.3513 8.94673 62.5131 9.16254 62.7423 9.35658C62.953 9.15495 63.1152 8.93061 63.2246 8.67964L62.2529 8.70524ZM61.8987 6.80191L63.3142 6.76461L63.3363 7.60432C63.3386 7.69229 63.3879 7.73901 63.4878 7.73637L63.8397 7.7271L63.8489 8.07498L63.397 8.08689C63.1131 8.09437 62.9696 7.9621 62.9627 7.69819L62.9477 7.13039L62.2839 7.14788L62.2871 7.26784C62.298 7.6837 62.0946 8.01317 61.6808 8.25215L61.4212 7.96689C61.7531 7.80609 61.9194 7.58964 61.9123 7.31773L61.8987 6.80191Z" fill="white"/>
<path d="M65.7334 7.73663L66.7811 7.709L66.7502 6.53741L67.142 6.52708L67.1729 7.69867L68.1646 7.67252L68.1745 8.04839L67.1828 8.07454L67.2397 10.2298L66.8478 10.2401L66.791 8.08487L65.7433 8.1125L65.7334 7.73663ZM64.9757 6.62022C65.2408 6.80929 65.4659 6.99943 65.6511 7.19461L65.3982 7.46537C65.2333 7.28166 65.0081 7.08753 64.7187 6.88708L64.9757 6.62022ZM64.4785 7.79373L65.4022 7.76937L65.4471 9.47278C65.5723 9.36544 65.7011 9.242 65.8376 9.10636L65.9478 9.49159C65.6982 9.73825 65.428 9.96145 65.141 10.1571L64.9881 9.821C65.0546 9.76323 65.0888 9.6943 65.0867 9.61433L65.0479 8.14284L64.4881 8.1576L64.4785 7.79373Z" fill="white"/>
<path d="M69.1067 7.90044L69.1211 8.48427L69.6809 8.47046L69.6665 7.88664L69.1067 7.90044ZM69.6581 7.54674L69.6435 6.95492L69.0837 6.96873L69.0983 7.56055L69.6581 7.54674ZM69.1215 8.82836C69.107 9.37289 69.0221 9.82711 68.867 10.187L68.5726 9.93423C68.724 9.58239 68.793 9.13655 68.7837 8.59662L68.7353 6.63321L69.9789 6.60255L70.056 9.7296C70.0627 10.0015 69.9421 10.1405 69.6982 10.1465L69.3783 10.1544L69.2781 9.8208C69.3903 9.83004 69.4905 9.83557 69.5865 9.8332C69.6704 9.83113 69.7126 9.75807 69.7092 9.61811L69.6894 8.81436L69.1215 8.82836ZM70.6513 8.39451L70.6865 9.82208C70.8917 9.70499 71.0641 9.55669 71.2079 9.38509C70.9687 9.0949 70.8004 8.76295 70.7033 8.39323L70.6513 8.39451ZM70.6868 9.83408L70.6943 10.138L70.3384 10.1468L70.2508 6.59584L71.9343 6.55432C71.9472 7.07417 71.9316 7.41865 71.8879 7.59178C71.8441 7.76092 71.6942 7.84864 71.4382 7.85495L71.1023 7.86323L70.9945 7.5458C71.0585 7.54422 71.1465 7.54605 71.2585 7.54329C71.3425 7.54122 71.4063 7.53164 71.446 7.51866C71.4856 7.50567 71.5168 7.4689 71.5394 7.41232C71.5617 7.34375 71.5735 7.17541 71.5749 6.90729L70.6152 6.93096L70.643 8.05862L71.9946 8.02528L72.0025 8.34519C71.9402 8.73884 71.8285 9.0777 71.6674 9.35776C71.8352 9.50967 72.0306 9.64489 72.2496 9.76753L72.0696 10.0921C71.8383 9.96173 71.6346 9.8147 71.4626 9.6549C71.3032 9.84288 71.111 9.99967 70.89 10.1252L70.6868 9.83408ZM71.0272 8.38524C71.1136 8.64319 71.2394 8.87616 71.4085 9.08406C71.5234 8.87316 71.6095 8.63496 71.667 8.36947L71.0272 8.38524Z" fill="white"/>
<path d="M73.4053 6.3611L73.7944 6.40873C73.7565 6.50557 73.7145 6.5985 73.6683 6.68351L75.3799 6.64662L75.3865 6.95455C75.1525 7.23566 74.8658 7.4819 74.5301 7.68917C74.9615 7.83992 75.4397 7.93764 75.9686 7.97425L75.8043 8.33387C75.1829 8.27525 74.6198 8.13535 74.1188 7.91009C73.6436 8.13638 73.0871 8.30441 72.4573 8.414L72.2736 8.06188C72.8081 7.98235 73.2855 7.86003 73.6981 7.6951C73.5037 7.58727 73.325 7.46309 73.1581 7.33065C73.0246 7.44956 72.879 7.56072 72.7172 7.66423L72.4787 7.3653C72.9408 7.08728 73.2497 6.75255 73.4053 6.3611ZM74.1062 7.51027C74.3792 7.36835 74.6197 7.20313 74.8317 7.01452L73.428 7.04477C73.4163 7.05703 73.4084 7.0652 73.4046 7.07328C73.6163 7.24076 73.8515 7.38773 74.1062 7.51027ZM73.8321 8.16032L74.208 8.15222C74.2111 8.29619 74.2021 8.43242 74.1848 8.56082L75.5645 8.53108C75.5716 9.23109 75.5207 9.65229 75.4116 9.79067C75.3026 9.92905 75.1042 10.0053 74.8242 10.0114C74.6883 10.0143 74.5201 10.0099 74.3279 10.0021L74.2245 9.66022C74.4327 9.66373 74.6008 9.66811 74.7289 9.67335C74.9328 9.66496 75.0598 9.61821 75.1101 9.53711C75.1603 9.45201 75.1875 9.23137 75.1919 8.87919L74.1082 8.90255C74.0743 8.9993 74.0363 9.09214 73.9901 9.17716C73.7979 9.54138 73.3364 9.8474 72.6016 10.0993L72.343 9.79679C72.9908 9.59078 73.4137 9.34961 73.6077 9.06937C73.6385 9.01669 73.6694 8.96402 73.6923 8.91151L72.5685 8.93573L72.5612 8.59581L73.8009 8.56909C73.8222 8.4406 73.8352 8.30429 73.8321 8.16032Z" fill="white"/>
<path d="M77.0983 6.28048L77.4747 6.30737L77.4294 6.80403L79.7852 6.77205L79.7901 7.13602L77.3984 7.16849L77.35 7.73319L79.5658 7.70312C79.581 8.81901 79.5098 9.46804 79.3602 9.64609C79.2105 9.81613 78.8876 9.90452 78.3877 9.91131C78.2597 9.91305 78.1236 9.90689 77.9835 9.9008L77.8788 9.55419C78.083 9.57141 78.2272 9.58146 78.3072 9.58037C78.7311 9.57462 78.9861 9.49915 79.0682 9.35802C79.1542 9.20484 79.1963 8.77623 79.1867 8.0643L76.9309 8.09492L77.0983 6.28048ZM76.4505 8.65749L78.7063 8.62687L78.7112 8.99083L76.4554 9.02146L76.4505 8.65749Z" fill="white"/>
<path d="M84.0191 6.66642L83.8236 10.1369L83.4522 10.116L83.465 9.88835L82.2709 9.82106L82.2578 10.0527L81.8984 10.0324L82.0942 6.55795L84.0191 6.66642ZM82.2909 9.46562L83.485 9.53291L83.5195 8.92188L82.3254 8.85459L82.2909 9.46562ZM82.3449 8.50714L83.539 8.57443L83.5744 7.94743L82.3803 7.88014L82.3449 8.50714ZM82.3998 7.53269L83.594 7.59998L83.6277 7.00093L82.4336 6.93364L82.3998 7.53269ZM81.3715 8.00759L81.2599 9.98844L80.8885 9.96752L80.9936 8.10247C80.8473 8.42275 80.6745 8.71749 80.4754 8.97871L80.3528 8.59521C80.6486 8.2513 80.8713 7.8552 81.0252 7.39914L80.502 7.36966L80.5225 7.00623L81.0536 7.03617L81.0957 6.28935L81.4671 6.31028L81.4251 7.05709L81.9083 7.08432L81.8878 7.44775L81.4046 7.42052L81.3947 7.59624C81.5603 7.78586 81.7287 7.99567 81.8923 8.22123L81.6673 8.51704C81.5545 8.31437 81.4559 8.14455 81.3715 8.00759Z" fill="white"/>
<path d="M85.8626 6.65852C85.9879 6.87624 86.1067 7.11328 86.2151 7.36914L85.9533 7.46058L86.7746 7.56591C86.9464 7.35809 87.108 7.10458 87.2588 6.80936L87.615 6.95587C87.4942 7.20653 87.353 7.42637 87.1991 7.62036L87.9529 7.71705L87.9061 8.08206L86.6127 7.91617L86.5969 8.03916C86.5646 8.22858 86.5224 8.40061 86.4737 8.55971L88.0528 8.76224L88.006 9.12725L86.6173 8.94915C86.7502 9.45415 87.1978 9.89467 87.9596 10.2747L87.6916 10.6033C86.9022 10.1552 86.4326 9.63522 86.2742 9.04628C86.1789 9.2236 86.0702 9.37904 85.9487 9.50864C85.6331 9.83111 85.1576 10.0484 84.5222 10.1605L84.3581 9.80469C84.9946 9.68468 85.4393 9.48765 85.6961 9.21411C85.7863 9.10872 85.8661 8.9899 85.9349 8.86162L84.578 8.68759L84.6249 8.32258L86.0849 8.50984C86.138 8.34728 86.1842 8.17576 86.2161 7.99031L86.2318 7.86732L84.9345 7.70092L84.9813 7.33591L85.8303 7.4448C85.7289 7.1979 85.616 6.97774 85.4961 6.78089L85.8626 6.65852Z" fill="white"/>
<path d="M90.9697 7.40358C90.9994 7.54009 91.0221 7.69151 91.0456 7.85939L92.4065 8.13225L92.3357 8.48523L91.6768 8.35312C91.6022 8.52175 91.5127 8.6833 91.4091 8.83387L92.3151 9.01551L92.2427 9.37633L89.4581 8.81804L89.352 9.3475C89.2136 9.95618 88.9773 10.4228 88.6359 10.7419L88.3999 10.4335C88.6715 10.1779 88.8631 9.79206 88.9755 9.27201L89.154 8.38173L89.9462 8.54057L89.912 7.99927L89.2139 7.85931L89.2846 7.50633L90.6651 7.78312C90.6401 7.64347 90.6057 7.5101 90.5649 7.3877L90.9697 7.40358ZM90.3149 8.61449L91.0522 8.76232C91.1558 8.61175 91.2453 8.45019 91.3199 8.28157L90.2767 8.0724L90.3149 8.61449Z" fill="white"/>
<path d="M94.0589 8.18093L94.4262 8.27827L93.6208 11.3174L94.0848 11.4403L94.8902 8.40122L95.2575 8.49856L94.4522 11.5377L95.5812 11.8368L95.4859 12.1964L92.0369 11.2825L92.1322 10.9229L93.2535 11.22L94.0589 8.18093ZM95.79 9.40934L96.0902 9.5882C95.767 10.2143 95.4238 10.7441 95.0597 11.1814L94.7618 10.9783C95.0971 10.5872 95.4431 10.0623 95.79 9.40934ZM93.1396 8.69873C93.1995 9.2691 93.2167 9.90679 93.1951 10.6128L92.8362 10.6087C92.8656 9.96686 92.8512 9.33406 92.7997 8.71627L93.1396 8.69873Z" fill="white"/>
<path d="M98.953 10.2941L99.4736 10.4653L99.681 9.83454L100.019 9.94575L99.8118 10.5765L100.348 10.7527L99.8253 12.341L99.2895 12.1648L99.0446 12.9096L99.3369 12.9426C99.3464 12.7857 99.3534 12.6364 99.3541 12.4935L99.6602 12.4973C99.6703 12.8122 99.6553 13.1652 99.6113 13.555L99.2798 13.5259C99.2921 13.4373 99.2993 13.3513 99.3104 13.2665C98.9118 13.2365 98.4954 13.1838 98.0651 13.1096L98.0927 12.744C98.2927 12.7887 98.4902 12.8284 98.6864 12.8592L98.9513 12.0536L98.4307 11.8825L98.953 10.2941ZM99.6237 11.9295L99.9411 10.9643L99.6903 10.8819L99.3729 11.847L99.6237 11.9295ZM99.0766 11.7496L99.3939 10.7844L99.1583 10.7069L98.841 11.6721L99.0766 11.7496ZM97.2231 9.15258L99.0546 9.75486L98.9484 10.0778L97.1168 9.47557L97.2231 9.15258ZM97.2646 9.71783L98.6743 10.1814L98.3894 11.0478L96.9797 10.5842L97.2646 9.71783ZM98.1665 10.6629L98.2664 10.3589L97.4913 10.104L97.3913 10.408L98.1665 10.6629ZM96.8969 11.7065L97.0603 11.7602C97.0597 11.6085 97.0528 11.463 97.0358 11.3227L97.2875 11.3255C97.3058 11.462 97.3102 11.615 97.302 11.7808L97.0907 11.7702L97.3643 11.8602C97.4751 11.7282 97.5858 11.5836 97.6876 11.4276L97.9033 11.5911C97.809 11.7243 97.7121 11.8398 97.6189 11.9439L97.7899 12.0002L97.6999 12.2737L97.3845 12.17L97.1684 12.8274L96.8834 12.7337L97.0995 12.0763L96.807 11.9801L96.8969 11.7065ZM97.5839 12.9851L97.3141 12.8964L97.3317 12.5485L97.5762 12.6499C97.6408 12.6712 97.6837 12.6558 97.7 12.6064L98.0761 11.4627L96.9856 11.1041L96.4757 12.6544L96.1642 12.5519L96.7714 10.7052L98.4852 11.2687L97.9891 12.7773C97.9216 12.9825 97.7853 13.0513 97.5839 12.9851Z" fill="white"/>
<path d="M102.655 10.8828L102.917 10.9826C103.185 11.6929 103.564 12.3169 104.06 12.8572L103.739 13.1245C103.577 12.934 103.428 12.7402 103.297 12.5447L103.196 12.8101L101.23 12.06L101.334 11.7872C101.096 11.8504 100.851 11.8981 100.597 11.9341L100.542 11.519C101.324 11.4322 102.031 11.2181 102.655 10.8828ZM101.453 11.7555L103.225 12.4315C102.99 12.0593 102.802 11.6664 102.663 11.2541C102.296 11.465 101.894 11.6326 101.453 11.7555ZM103.279 13.2998L102.687 14.8507L102.343 14.7195L102.42 14.5177L100.671 13.8503L100.594 14.0521L100.25 13.9209L100.842 12.37L103.279 13.2998ZM100.799 13.514L102.548 14.1814L102.808 13.5012L101.059 12.8338L100.799 13.514Z" fill="white"/>
<path d="M104.558 13.0095L105.305 12.058L105.63 12.2654L105.149 12.8652L105.694 13.0966C105.88 12.8539 106.057 12.5901 106.229 12.307L106.568 12.5028C106.4 12.7749 106.229 13.0239 106.059 13.2514L107.745 13.9675L107.603 14.3025L105.828 13.5489C105.74 13.6548 105.651 13.7517 105.567 13.8465L107.04 14.4719L106.915 14.7665C106.691 15.0277 106.395 15.2236 106.019 15.3509C106.233 15.6243 106.511 15.9118 106.848 16.2116L106.527 16.4663C106.151 16.1152 105.852 15.7753 105.631 15.4556C105.254 15.5346 104.819 15.567 104.325 15.5529L104.282 15.1434C104.706 15.1672 105.085 15.1544 105.414 15.1071C105.256 14.814 105.163 14.5312 105.138 14.2639C104.641 14.6963 104.122 14.9884 103.583 15.142L103.54 14.7414C104.239 14.508 104.877 14.0579 105.456 13.391L104.558 13.0095ZM105.473 14.1804C105.502 14.4492 105.608 14.733 105.791 15.0281C106.103 14.9388 106.358 14.8082 106.552 14.6385L105.473 14.1804ZM107.204 12.725C107.376 13.0243 107.507 13.3102 107.597 13.5788L107.24 13.7228C107.174 13.4688 107.053 13.1825 106.869 12.8569L107.204 12.725Z" fill="white"/>
<path d="M108.692 15.0224L109.194 15.2518L109.327 14.9607L108.719 14.6831L108.593 14.9596C108.493 15.1779 108.382 15.3823 108.27 15.5688L108.914 15.863L109.054 15.5574L108.552 15.328L108.692 15.0224ZM108.084 15.8618C107.834 16.2268 107.556 16.5354 107.253 16.7841L107.088 16.4051C107.527 16.0514 107.911 15.5188 108.243 14.8001L108.802 13.5776L111.585 14.8491L111.153 15.7951L110.647 15.5641L110.514 15.8551L111.06 16.1044L110.92 16.4101L110.375 16.1607L110.235 16.4664L110.905 16.7722L110.762 17.0851L110.398 16.9189L110.514 17.2227C110.338 17.3094 110.163 17.3657 109.992 17.3931C110.129 17.5834 110.305 17.7562 110.524 17.9132L110.211 18.1659C109.634 17.6957 109.336 17.1155 109.314 16.4236L108.862 16.2175L108.547 16.9087C108.79 16.9539 109.011 16.9801 109.206 16.9858L109.127 17.3322C108.786 17.2995 108.397 17.2272 107.96 17.1155L108.003 16.7703C108.132 16.7765 108.222 16.7251 108.275 16.6086L108.524 16.0629L108.084 15.8618ZM109.663 16.5831C109.689 16.7576 109.737 16.9206 109.807 17.0757C109.984 17.0551 110.164 16.9969 110.35 16.8973L109.663 16.5831ZM110.313 15.4111L109.658 15.112L109.525 15.403L110.18 15.7022L110.313 15.4111ZM109.245 16.0143L109.9 16.3134L110.04 16.0078L109.385 15.7086L109.245 16.0143ZM111.091 15.0061L109.007 14.0537L108.86 14.3739L110.945 15.3263L111.091 15.0061Z" fill="white"/>
<path d="M113.294 16.2439L112.095 18.7564L111.766 18.5996L111.856 18.4119L111.285 18.1396L111.146 18.432L110.817 18.2752L112.067 15.6581L112.41 15.8217C112.568 15.6578 112.713 15.4834 112.842 15.2878L113.162 15.4984C113.031 15.6797 112.889 15.838 112.738 15.9785L113.294 16.2439ZM111.437 17.822L112.007 18.0942L112.347 17.383L111.777 17.1108L111.437 17.822ZM111.923 16.804L112.493 17.0762L112.81 16.412L112.24 16.1397L111.923 16.804ZM113.53 17.4204C113.627 17.8301 113.689 18.1743 113.708 18.4584L113.346 18.5205C113.323 18.2168 113.261 17.8637 113.17 17.461L113.53 17.4204ZM115.155 17.1365C114.561 18.3819 114.175 19.1422 114.002 19.4138C113.841 19.6565 113.606 19.7037 113.299 19.5573C113.227 19.5228 113.101 19.4536 112.925 19.3566L112.992 19.0029C113.147 19.0859 113.281 19.1586 113.397 19.2138C113.541 19.2827 113.66 19.2465 113.754 19.1052C113.862 18.9351 114.162 18.3338 114.661 17.3084L113.755 16.8759C113.55 17.0443 113.34 17.1877 113.117 17.3027L113.04 16.9338C113.444 16.7009 113.811 16.3578 114.136 15.901L114.454 16.1063C114.322 16.2912 114.182 16.4548 114.039 16.6041L115.155 17.1365Z" fill="white"/>
<path d="M117.201 17.6421L118.957 18.4948L118.795 18.8294L117.039 17.9767L117.201 17.6421ZM116.675 18.498L118.675 19.4695L118.513 19.8041L117.951 19.5315L117.211 21.0572C117.099 21.2874 116.913 21.3397 116.658 21.2156L116.136 20.9623L116.223 20.5909C116.382 20.6857 116.54 20.7715 116.691 20.8449C116.795 20.8956 116.869 20.8822 116.905 20.8067L117.606 19.3638L116.512 18.8326L116.675 18.498ZM116.675 17.1688L116.919 17.4647C116.532 17.7662 116.037 17.9615 115.423 18.0545L115.484 17.662C115.954 17.5832 116.349 17.4194 116.675 17.1688ZM116.444 18.0749L116.684 18.3691C116.492 18.5162 116.281 18.6403 116.05 18.7414L115.186 20.5189L114.852 20.3564L115.552 18.9135C115.369 18.9622 115.18 19.0037 114.978 19.0347L115.041 18.6475C115.591 18.5588 116.061 18.3691 116.444 18.0749Z" fill="white"/>
<path d="M119.409 18.7432L120.749 19.3896L120.591 19.7174L119.251 19.0711L119.409 18.7432ZM118.806 19.6517L120.41 20.4249L120.25 20.7564L119.439 20.3655C119.071 20.7965 118.786 21.1029 118.581 21.2883C118.843 21.3526 119.119 21.3969 119.404 21.4233C119.406 21.2068 119.403 21.0011 119.395 20.8062L119.751 20.8047C119.771 21.1872 119.768 21.5988 119.744 22.0356L119.375 22.0445L119.393 21.7687C118.952 21.716 118.495 21.6241 118.017 21.4914L118.09 21.1272C118.13 21.1374 118.157 21.137 118.176 21.1331C118.341 21.0395 118.65 20.731 119.108 20.2056L118.646 19.9832L118.806 19.6517ZM121.471 19.4759L121.81 19.6392L121.473 20.3382L122.251 20.7135C121.685 21.888 121.317 22.6035 121.153 22.8617C120.981 23.1164 120.731 23.1647 120.404 23.0066C120.346 22.9788 120.249 22.9229 120.108 22.8462L120.175 22.5054C120.299 22.5787 120.407 22.6398 120.501 22.685C120.659 22.7614 120.791 22.7184 120.903 22.5593C121.007 22.4004 121.29 21.84 121.76 20.8851L121.313 20.6696L121.297 20.7021C120.786 21.7345 120.173 22.3712 119.452 22.6141L119.305 22.2637C119.946 22.0488 120.498 21.4756 120.959 20.5387L120.974 20.5063L120.517 20.2856L120.677 19.9542L121.134 20.1748L121.471 19.4759Z" fill="white"/>
<path d="M123.483 21.7171L124.432 22.1616L124.929 21.1002L125.284 21.2664L124.787 22.3278L125.685 22.7485L125.526 23.0891L124.627 22.6683L123.713 24.6208L123.358 24.4545L124.272 22.5021L123.323 22.0576L123.483 21.7171ZM123.305 20.3795C123.458 20.6673 123.574 20.9381 123.652 21.1956L123.304 21.3244C123.239 21.0863 123.125 20.8118 122.956 20.503L123.305 20.3795ZM122.335 21.2061L123.172 21.598L122.449 23.1411C122.609 23.1012 122.78 23.0486 122.962 22.9884L122.888 23.3822C122.555 23.4909 122.213 23.5695 121.869 23.6159L121.883 23.2469C121.968 23.2251 122.03 23.1787 122.064 23.1063L122.688 21.7732L122.181 21.5357L122.335 21.2061Z" fill="white"/>
<path d="M128.431 23.0808L128.767 23.2303L127.763 25.4891L127.426 25.3396L128.431 23.0808ZM127.781 26.4123L127.255 26.1783L127.322 25.8099C127.488 25.9009 127.645 25.9797 127.799 26.048C127.901 26.0935 127.979 26.0667 128.023 25.968L129.298 23.0988L129.642 23.2516L128.327 26.2085C128.217 26.457 128.033 26.5244 127.781 26.4123ZM127.901 23.4057L127.806 23.7663L126.706 23.4652C126.647 23.6362 126.603 23.7958 126.572 23.944C126.539 24.0959 126.512 24.2368 126.498 24.3664C126.789 24.2243 127.07 24.0342 127.339 23.7947L127.572 24.0867C127.211 24.4075 126.84 24.6499 126.459 24.8087C126.457 24.8822 126.458 24.9484 126.464 25.0125C126.494 25.2798 126.564 25.4378 126.665 25.4869C126.728 25.502 126.865 25.3525 127.078 25.0402L127.286 25.3603C127.148 25.5223 127.02 25.6535 126.897 25.7522C126.749 25.8699 126.621 25.9097 126.519 25.8642C126.344 25.7862 126.225 25.5892 126.158 25.2789C126.133 25.1672 126.119 25.0515 126.115 24.9317C125.815 25.0169 125.508 25.0559 125.196 25.0485L125.126 24.6452C125.471 24.6582 125.804 24.6181 126.125 24.5158C126.136 24.3631 126.152 24.2083 126.181 24.0459C126.214 23.842 126.27 23.6174 126.347 23.3668L125.87 23.238L125.968 22.879L126.461 23.0107C126.566 22.7069 126.697 22.3715 126.858 22.0096L127.209 22.1656C127.056 22.5092 126.926 22.8231 126.824 23.1106L127.901 23.4057ZM127.703 22.3635C127.764 22.5828 127.812 22.8188 127.846 23.0661L127.489 23.0823C127.461 22.8293 127.417 22.5949 127.357 22.3756L127.703 22.3635Z" fill="white"/>
<path d="M131.228 24.6219L130.167 27.1959L129.83 27.0572L129.91 26.8649L129.325 26.6241L129.202 26.9236L128.865 26.7849L129.97 24.1037L130.322 24.2485C130.47 24.0762 130.606 23.8942 130.724 23.6919L131.056 23.8847C130.935 24.0729 130.802 24.2386 130.658 24.3872L131.228 24.6219ZM129.459 26.2986L130.044 26.5394L130.344 25.8109L129.76 25.5701L129.459 26.2986ZM129.889 25.2557L130.473 25.4965L130.754 24.8161L130.17 24.5752L129.889 25.2557ZM131.528 25.7838C131.647 26.1877 131.727 26.528 131.762 26.8106L131.404 26.8923C131.364 26.5903 131.283 26.2411 131.17 25.844L131.528 25.7838ZM133.134 25.4121C132.609 26.688 132.265 27.4681 132.107 27.7487C131.96 27.9997 131.727 28.0597 131.413 27.9301C131.339 27.8997 131.209 27.8374 131.029 27.7501L131.076 27.3933C131.236 27.4677 131.373 27.5331 131.492 27.5818C131.64 27.6428 131.757 27.6002 131.843 27.454C131.941 27.2782 132.208 26.6615 132.65 25.6106L131.722 25.228C131.527 25.4072 131.325 25.5619 131.108 25.6888L131.012 25.3246C131.402 25.0702 131.75 24.7076 132.05 24.2338L132.379 24.4214C132.257 24.6133 132.125 24.7843 131.992 24.9411L133.134 25.4121Z" fill="white"/>
<path d="M133.935 25.0592C134.116 25.3531 134.255 25.6315 134.354 25.8908L134.011 26.0442C133.931 25.8008 133.797 25.52 133.605 25.2004L133.935 25.0592ZM134.834 29.2219C134.628 29.1448 134.404 29.057 134.166 28.9635C133.924 28.8687 133.734 28.7719 133.59 28.6756C133.457 28.5746 133.36 28.4356 133.295 28.2662C133.266 28.1829 133.233 28.1361 133.188 28.1193C133.109 28.0898 132.911 28.208 132.594 28.4737L132.423 28.132C132.724 27.8987 132.964 27.7707 133.141 27.7518L133.538 26.6916L133.036 26.5038L133.159 26.1741L133.995 26.4866L133.465 27.9028C133.478 27.9248 133.49 27.9505 133.5 27.98C133.549 28.1134 133.61 28.2219 133.686 28.3057C133.779 28.4002 133.931 28.4956 134.149 28.5858C134.361 28.6694 134.611 28.767 134.903 28.8764C135.087 28.945 135.275 29.0114 135.464 29.0777C135.653 29.144 135.802 29.1912 135.906 29.2215L135.688 29.5415L134.834 29.2219ZM135.303 25.9936L134.58 25.7231L134.69 25.4271L136.747 26.1965L136.653 26.4476C136.366 26.5536 136.075 26.624 135.777 26.6664C135.782 26.6767 135.788 26.6833 135.792 26.6935L136.545 26.9753L135.923 28.6387C135.84 28.8597 135.675 28.9258 135.431 28.8347L135.143 28.7268L135.179 28.4028L135.439 28.5173C135.521 28.5482 135.582 28.5238 135.613 28.4413L135.684 28.2503L135.145 28.0485L134.915 28.6629L134.589 28.5409L134.819 27.9265L134.29 27.7289L134.058 28.3508L133.721 28.2247L134.477 26.2016L135.339 26.524C135.246 26.3953 135.14 26.2573 135.017 26.1174L135.303 25.9936ZM135.623 26.4165C135.809 26.3967 135.989 26.3615 136.161 26.3145L135.321 26.0006C135.43 26.1437 135.533 26.2804 135.623 26.4165ZM134.496 27.1782L134.398 27.4404L134.927 27.638L135.025 27.3758L134.496 27.1782ZM135.351 27.4977L135.252 27.76L135.792 27.9618L135.89 27.6996L135.351 27.4977ZM135.999 27.4073L136.097 27.1451L135.558 26.9433L135.46 27.2055L135.999 27.4073ZM135.134 27.0836L135.232 26.8213L134.704 26.6237L134.606 26.886L135.134 27.0836Z" fill="white"/>
<path d="M140.486 27.743L139.507 30.7055L139.158 30.5901L139.229 30.3736L138.565 30.154L138.492 30.3743L138.143 30.2589L139.122 27.2926L140.486 27.743ZM138.676 29.816L139.341 30.0356L140.025 27.9656L139.36 27.746L138.676 29.816ZM137.61 27.2941C137.46 27.4552 137.303 27.5973 137.144 27.7217L136.895 27.4162C137.256 27.1395 137.558 26.8136 137.796 26.4373L138.128 26.6312C138.042 26.763 137.953 26.8808 137.864 26.9949L138.901 27.3374L138.787 27.6831L138.27 27.5124C138.185 27.7454 138.101 27.9619 138.012 28.1557L138.604 28.3514L138.49 28.6971L137.848 28.485C137.805 28.5636 137.759 28.6409 137.718 28.7118C137.872 29.0238 138.021 29.3637 138.169 29.7326L137.838 29.9941C137.713 29.5821 137.602 29.2548 137.505 29.0122C137.214 29.3583 136.833 29.6072 136.355 29.7527L136.215 29.3863C136.707 29.2243 137.083 28.9526 137.349 28.5686C137.388 28.5014 137.432 28.4318 137.472 28.3608L136.724 28.1136L136.838 27.768L137.639 28.0327C137.729 27.839 137.813 27.6224 137.898 27.3895L137.61 27.2941Z" fill="white"/>
<path d="M141.517 27.6212L141.807 29.6438L140.503 31.217L140.234 30.9916L141.438 29.5396L141.17 27.673L141.517 27.6212ZM142.176 27.8069L142.466 29.8295L141.162 31.4026L140.893 31.1772L142.096 29.7252L141.813 27.8543L142.176 27.8069Z" fill="white"/>
</svg>
