<svg width="133" height="68" viewBox="0 0 133 68" fill="none" xmlns="http://www.w3.org/2000/svg">
<path d="M3.55302 1.50042L3.71473 1.72182L2.55219 2.53581L2.38581 3.94027L2.12429 3.9108L2.30445 2.38896L3.55302 1.50042ZM3.99432 1.762L4.14571 1.97728L2.99349 2.79739L2.82711 4.20185L2.56559 4.17238L2.74575 2.65054L3.99432 1.762Z" fill="white"/>
<path d="M6.14875 3.63251L6.39573 3.77474L5.30432 5.66995L5.05734 5.52772L5.14567 5.37433L3.54164 4.4506L3.45481 4.60139L3.20783 4.45916L4.30523 2.55356L4.55221 2.69579L3.67788 4.21403L4.35641 4.60478L5.47028 2.67058L5.71985 2.8143L4.60598 4.7485L5.28191 5.13776L6.14875 3.63251Z" fill="white"/>
<path d="M6.90292 3.59238L9.25765 4.90114L9.12212 5.145L8.34857 4.71507L8.16056 5.05333L8.79513 5.40603L7.8347 7.13406L7.58559 6.9956L7.64243 6.89334L6.06911 6.01889L6.01227 6.12116L5.76316 5.9827L6.72359 4.25467L7.34243 4.59862L7.53044 4.26036L6.76738 3.83625L6.90292 3.59238ZM6.19882 5.78551L7.77214 6.65996L7.98055 6.28499L7.62917 6.08969C7.44037 5.98476 7.40252 5.83673 7.50891 5.64531L7.7829 5.15233L7.45775 4.97162L7.44463 4.99521C7.2062 5.41185 6.89147 5.63849 6.50304 5.67659L6.40723 5.41054L6.19882 5.78551ZM7.77692 4.39735L7.58892 4.73562L7.91407 4.91634L8.10208 4.57807L7.77692 4.39735ZM6.41451 5.39743C6.7432 5.37418 7.00344 5.19619 7.19815 4.85822L7.21126 4.83462L6.84153 4.62912L6.41451 5.39743ZM8.02939 5.28933L7.78746 5.72462C7.74374 5.80328 7.75451 5.86418 7.82793 5.90499L8.10588 6.05948L8.41486 5.50357L8.02939 5.28933Z" fill="white"/>
<path d="M10.6862 5.53685L10.9326 5.66767L10.5739 6.34335L10.3275 6.21253L10.6862 5.53685ZM9.45136 6.42331C9.32211 6.38526 9.19286 6.34722 9.06502 6.30652L9.08265 6.02378C9.9504 6.32142 10.672 6.4464 11.245 6.39731C11.1941 6.282 11.1379 6.16387 11.0765 6.04293L11.3319 5.97133C11.5022 6.30294 11.6329 6.61346 11.7199 6.89741L11.4508 6.9821C11.4239 6.87274 11.3891 6.75916 11.3437 6.63995C11.0221 6.67639 10.6681 6.66506 10.2776 6.60721L11.2156 7.1052L10.4517 8.544L10.2053 8.41318L10.2588 8.31249L9.09024 7.69212L9.03397 7.79811L8.79019 7.66869L9.45136 6.42331ZM9.2084 7.46954L10.3769 8.08991L10.4712 7.91238L9.30265 7.29201L9.2084 7.46954ZM9.40957 7.09063L10.5781 7.711L10.6639 7.54936L9.49538 6.92899L9.40957 7.09063ZM9.60088 6.73026L10.7694 7.35063L10.858 7.1837L9.6895 6.56333L9.60088 6.73026ZM10.19 5.46702L10.2845 5.71761C10.0255 5.82804 9.74206 5.89494 9.43557 5.91564L9.38971 5.65013C9.68014 5.6277 9.94597 5.56843 10.19 5.46702Z" fill="white"/>
<path d="M13.5924 7.05283C13.474 7.28879 13.3664 7.48317 13.2723 7.64404C13.0699 8.43532 13.1829 9.17338 13.6059 9.85554L13.3253 9.99333C12.9827 9.39178 12.8548 8.7503 12.939 8.07423C12.4821 8.54315 11.8807 8.81867 11.1346 8.90079L11.0935 8.59484C12.0381 8.51837 12.7135 8.10208 13.1211 7.34329C13.2113 7.16364 13.2839 7.02556 13.335 6.92366L13.5924 7.05283Z" fill="white"/>
<path d="M14.6117 9.40649L14.3089 10.0531C14.5533 10.1112 14.8053 10.1531 15.0637 10.1814L15.009 10.4539C14.7087 10.4159 14.3391 10.3422 13.9068 10.2325L13.9534 9.9562C14.0096 9.94939 14.0531 9.92009 14.0786 9.86575L15.0176 7.86073L17.0009 8.78955L16.6013 9.64263L15.8624 9.29655C15.8185 9.41846 15.7852 9.53205 15.7557 9.63749L16.6196 10.0421L16.5026 10.292L15.6957 9.91416C15.6878 9.97341 15.6812 10.03 15.6799 10.0823C15.6738 10.3147 15.6958 10.4939 15.7447 10.6229C15.7935 10.7451 15.8559 10.824 15.9307 10.8623C15.9552 10.8738 15.9884 10.8595 16.029 10.8222C16.0709 10.7823 16.1394 10.6785 16.2371 10.5123L16.4095 10.7454C16.2634 10.9585 16.1499 11.0876 16.0719 11.1339C15.9966 11.1814 15.923 11.19 15.8566 11.1622C15.7274 11.0984 15.6236 10.9736 15.5423 10.7864C15.4595 10.5953 15.4212 10.3587 15.4247 10.0755C15.4265 9.98683 15.4362 9.89532 15.4512 9.79965L14.6117 9.40649ZM15.607 9.17695L14.8789 8.83596L14.7287 9.15655L15.5085 9.52171C15.5351 9.40829 15.5684 9.2947 15.607 9.17695ZM16.6324 8.91845L15.1626 8.23011L14.9934 8.59145L16.4632 9.27979L16.6324 8.91845Z" fill="white"/>
<path d="M17.447 9.16447L18.6324 9.67319L18.5224 9.92958L18.1227 9.75803L17.8955 10.2874L18.185 10.4116L18.114 10.577C18.434 10.3258 18.7245 9.98364 18.9894 9.54888L19.2328 9.68923C19.1516 9.81761 19.0672 9.93811 18.9824 10.0519L19.793 10.3997L19.6829 10.6561L19.501 10.578C19.2896 11.0097 19.0279 11.3381 18.7103 11.5609C18.7732 11.8556 18.885 12.1125 19.0428 12.3304L18.7993 12.487C18.6399 12.2652 18.5265 12.0044 18.4637 11.7097C18.1804 11.8525 17.8609 11.9276 17.5107 11.9373L17.443 11.6536C17.8141 11.6562 18.1415 11.5779 18.4173 11.4221C18.3926 11.183 18.3939 10.9289 18.4185 10.6587C18.316 10.7453 18.2092 10.8268 18.1005 10.8976L18.0372 10.6419L17.789 10.5355L17.5169 11.1696C17.6658 11.1877 17.8104 11.2008 17.9494 11.2115L17.8453 11.4541C17.4569 11.4311 17.0181 11.3734 16.5277 11.2837L16.559 11.0131C16.6189 11.0257 16.6772 11.0344 16.737 11.0471L17.2765 9.78993L17.5219 9.89522L17.0072 11.0945C17.086 11.1087 17.1593 11.1205 17.2325 11.1324L17.869 9.64919L17.337 9.42086L17.447 9.16447ZM18.664 11.2505C18.8985 11.054 19.0916 10.7941 19.2446 10.468L18.798 10.2764C18.7613 10.3161 18.7274 10.3571 18.692 10.3941C18.6509 10.7029 18.6393 10.9885 18.664 11.2505Z" fill="white"/>
<path d="M20.8684 10.9555L21.1008 11.1031C21.0027 11.2325 20.8982 11.3529 20.7848 11.4635L20.1859 13.0138L19.9228 12.9122L20.3455 11.818C20.2543 11.8793 20.1625 11.9338 20.0689 11.9845L20.0879 11.6606C20.3988 11.472 20.6595 11.2382 20.8684 10.9555ZM20.9631 11.468L21.7635 11.7772L21.9051 11.4106L22.1653 11.5111L22.0237 11.8777L22.2924 11.9815L22.1929 12.239L21.9243 12.1352L21.5232 13.1734C21.4454 13.3749 21.3103 13.4417 21.1228 13.3693L20.745 13.2233L20.7856 12.9432C20.8999 12.997 21.0125 13.0469 21.1245 13.0901C21.2 13.1193 21.2565 13.0897 21.2889 13.0057L21.664 12.0347L20.8637 11.7255L20.9631 11.468ZM22.5384 11.2114L22.4433 11.4577L20.4396 10.6837L20.1866 11.3385C19.9398 11.9443 19.6414 12.3919 19.2889 12.6802L19.1566 12.4232C19.4462 12.1814 19.7022 11.785 19.9236 11.2369L20.2716 10.3358L21.2987 10.7325C21.2966 10.6546 21.2907 10.5783 21.2815 10.5104L21.5871 10.577C21.5852 10.6567 21.5802 10.7448 21.5729 10.8385L22.5384 11.2114ZM21.0343 12.0165C21.1231 12.2695 21.1813 12.485 21.214 12.6584L20.9624 12.7188C20.9284 12.532 20.8684 12.3126 20.7841 12.0646L21.0343 12.0165Z" fill="white"/>
<path d="M22.923 12.2584L23.1298 12.4331C22.9213 12.7394 22.7114 12.9564 22.4963 13.0861L22.3544 12.8415C22.5619 12.7156 22.7508 12.5231 22.923 12.2584ZM23.8534 11.4496L24.1261 11.5421L23.9468 12.0705L24.8444 12.3753C24.7712 12.5722 24.7057 12.7559 24.6422 12.9244L24.8605 12.8971C24.9044 13.1972 24.9368 13.5218 24.9538 13.8729L24.6661 13.9083C24.6584 13.5952 24.6344 13.3019 24.5979 13.0361C24.5152 13.2425 24.4402 13.4261 24.3748 13.5813C24.2422 13.8785 24.1206 14.078 24.0129 14.1808C23.907 14.2779 23.7807 14.3047 23.632 14.2669L23.2996 14.1541L23.3145 13.8677C23.4091 13.9061 23.4991 13.9398 23.5843 13.9688C23.7235 14.016 23.85 13.9513 23.962 13.7802C24.0749 13.5967 24.247 13.1831 24.4802 12.5431L23.8467 12.328C23.6649 12.77 23.46 13.1123 23.2319 13.3549C22.9791 13.6144 22.6538 13.7701 22.2578 13.8258L22.1902 13.5398C22.5748 13.4708 22.8735 13.3188 23.0854 13.0866C23.2659 12.8722 23.4287 12.5885 23.574 12.2354L22.8978 12.0059L22.9866 11.7445L23.674 11.9779L23.8534 11.4496Z" fill="white"/>
<path d="M26.4354 12.3101L26.659 12.4853C26.2778 13.0267 25.8719 13.4077 25.4421 13.6253L25.2812 13.3748C25.7222 13.1511 26.1082 12.7955 26.4354 12.3101ZM27.0691 14.1537C27.1849 14.5255 27.2698 14.9069 27.3162 15.302L27.0262 15.3418C27.013 15.2379 27.0027 15.1348 26.9878 15.0366C26.4649 14.9642 25.8925 14.8584 25.2648 14.7176L25.2937 14.4385C25.5175 14.4323 25.9319 14.0758 26.5398 13.3695L26.7804 13.5403C26.4071 13.9591 26.0518 14.2955 25.7202 14.5513C26.1373 14.6427 26.5472 14.7163 26.944 14.7705C26.9049 14.5526 26.8578 14.3511 26.7999 14.1652L27.0691 14.1537ZM27.4754 12.5908C27.4826 13.162 27.6328 13.6721 27.9327 14.1199L27.671 14.2869C27.3586 13.8073 27.2024 13.2642 27.2034 12.6547L27.4754 12.5908Z" fill="white"/>
<path d="M31.1199 13.6527L31.0528 13.9204L29.0361 13.4151L28.821 14.2735C28.6584 14.873 28.4123 15.3247 28.0854 15.6294L27.9225 15.3907C28.1904 15.1361 28.398 14.7397 28.5446 14.2043L28.8267 13.0781L31.1199 13.6527ZM29.0679 13.856L30.9129 14.3183L30.8472 14.5802L30.1372 14.4023L29.8178 15.6769C29.7631 15.8951 29.6336 15.9802 29.4299 15.9292L29.1214 15.8519L29.123 15.5739C29.2161 15.6096 29.3078 15.6388 29.3951 15.6607C29.4795 15.6818 29.5362 15.6404 29.561 15.5414L29.8636 14.3338L29.0023 14.1179L29.0679 13.856Z" fill="white"/>
<path d="M31.7193 14.5328L31.9863 14.5899L31.8978 15.0035L32.2029 15.0688L32.1495 15.3181L31.8444 15.2529L31.7729 15.5873C31.9105 15.5891 32.043 15.5868 32.1666 15.5826L32.1101 15.8466C31.9836 15.8502 31.8511 15.8525 31.7158 15.8543L31.5821 16.4791L31.3151 16.422L31.4375 15.85C31.2611 15.8429 31.0759 15.8339 30.886 15.8179L30.9092 15.5375C31.1137 15.5567 31.31 15.5711 31.4953 15.5801L31.5775 15.1958L31.1081 15.0953L31.1021 14.8364C31.2123 14.6943 31.3283 14.5105 31.4479 14.2814L31.1897 14.2262L31.2475 13.9563L31.576 14.0266C31.6269 13.9178 31.6791 13.8032 31.7295 13.6821L31.9854 13.7767C31.9381 13.8832 31.8914 13.9867 31.8459 14.0843L32.374 14.1973L32.3162 14.4672L31.7178 14.3392C31.6055 14.5483 31.4954 14.7334 31.3844 14.8937L31.6308 14.9464L31.7193 14.5328ZM32.4913 14.2224L32.9343 14.3172C32.9835 14.2019 33.0298 14.086 33.0767 13.9672L33.3438 14.052C33.2982 14.1649 33.2538 14.272 33.213 14.3768L33.8936 14.5224L33.8359 14.7923L33.0995 14.6348C33.0589 14.7243 33.0189 14.8108 32.9795 14.8944L33.8508 15.0808L33.7937 15.3478L32.855 15.1469C32.7988 15.2515 32.744 15.3502 32.6939 15.4408L33.6092 15.6366L33.5603 15.8654C33.4262 16.0331 33.2459 16.1877 33.0121 16.3341C33.1039 16.4212 33.1886 16.513 33.2703 16.6041L33.0634 16.8114C32.8114 16.512 32.5429 16.2613 32.255 16.0586L32.4516 15.8706C32.5799 15.9594 32.7004 16.0557 32.8138 16.1567C32.9952 16.0544 33.1479 15.9428 33.269 15.8215L32.295 15.6131C32.392 15.4467 32.485 15.2703 32.5792 15.0879L32.233 15.0139L32.2901 14.7469L32.7038 14.8354C32.7444 14.7459 32.7844 14.6594 32.8238 14.5758L32.4336 14.4923L32.4913 14.2224Z" fill="white"/>
<path d="M34.3027 15.2077L34.6942 14.389L34.9658 14.4877L34.712 15.0053L35.1487 15.0856C35.2449 14.8776 35.3315 14.6556 35.4113 14.4201L35.691 14.5081C35.6128 14.7347 35.5284 14.9449 35.4408 15.1393L36.7922 15.3877L36.7428 15.6562L35.3207 15.3948C35.2733 15.4867 35.224 15.5722 35.1782 15.6553L36.3584 15.8723L36.3151 16.1083C36.1939 16.3361 36.0092 16.5279 35.755 16.6825C35.9565 16.8477 36.2068 17.0126 36.503 17.1769L36.3096 17.4159C35.9764 17.2204 35.7021 17.0205 35.4883 16.8226C35.2254 16.9421 34.9121 17.037 34.5483 17.1074L34.4496 16.8147C34.7642 16.7627 35.0396 16.6913 35.2725 16.603C35.1089 16.4143 34.9947 16.2225 34.9322 16.031C34.6395 16.4287 34.307 16.7275 33.9377 16.928L33.8408 16.6418C34.3142 16.3567 34.7081 15.9228 35.0227 15.34L34.3027 15.2077ZM35.164 15.915C35.2294 16.107 35.353 16.2975 35.5354 16.4835C35.7489 16.3672 35.9145 16.2299 36.0285 16.0739L35.164 15.915ZM36.1927 14.5668C36.3681 14.7576 36.5105 14.9455 36.6204 15.1273L36.3829 15.2911C36.2931 15.116 36.1571 14.9263 35.9697 14.718L36.1927 14.5668Z" fill="white"/>
<path d="M38.491 14.9613L38.7665 15.0058L38.6446 15.761L38.3692 15.7166L38.491 14.9613ZM37.6077 16.1984C37.4731 16.204 37.3385 16.2097 37.2043 16.2123L37.1299 15.939C38.0473 15.9412 38.7707 15.827 39.2973 15.5959C39.2119 15.5031 39.1207 15.4094 39.0236 15.3147L39.2423 15.1646C39.5104 15.4236 39.7341 15.6755 39.908 15.9163L39.6805 16.0832C39.6199 15.9883 39.5503 15.892 39.4689 15.7938C39.1762 15.9319 38.8374 16.0352 38.4491 16.1063L39.4975 16.2755L39.238 17.8837L38.9626 17.8392L38.9807 17.7267L37.6746 17.5159L37.6555 17.6344L37.3831 17.5904L37.6077 16.1984ZM37.7148 17.2671L39.0209 17.4779L39.0529 17.2795L37.7468 17.0687L37.7148 17.2671ZM37.7831 16.8436L39.0892 17.0544L39.1184 16.8737L37.8123 16.6629L37.7831 16.8436ZM37.8481 16.4408L39.1542 16.6516L39.1843 16.465L37.8782 16.2542L37.8481 16.4408ZM37.9988 15.0551L38.1691 15.2619C37.9594 15.4499 37.7126 15.6045 37.4292 15.7229L37.3002 15.4863C37.5679 15.3715 37.8005 15.2297 37.9988 15.0551Z" fill="white"/>
<path d="M40.1749 15.7251L41.3712 15.9002C41.3149 15.7464 41.2394 15.5989 41.1453 15.4548L41.4425 15.3922C41.5285 15.5503 41.6047 15.7343 41.668 15.9436L42.793 16.1083L42.7522 16.3873L42.298 16.3208C42.0895 16.7512 41.8236 17.0973 41.4998 17.3622C41.7716 17.6597 42.1266 17.927 42.5594 18.1601L42.3674 18.3745C41.9155 18.1265 41.5503 17.8456 41.2748 17.5324C40.8959 17.7802 40.4512 17.9395 39.9405 18.0102L39.8256 17.7387C40.3248 17.6845 40.7482 17.5463 41.1024 17.3223C40.8237 16.9479 40.6516 16.5286 40.5883 16.0706L40.1341 16.0041L40.1749 15.7251ZM40.8584 16.1101C40.9296 16.4935 41.0845 16.8436 41.3266 17.158C41.6057 16.929 41.8337 16.6349 42.0071 16.2783L40.8584 16.1101Z" fill="white"/>
<path d="M44.0604 15.7679L44.3079 15.9289C44.1735 16.1588 44.0109 16.3728 43.8208 16.5678L43.5527 18.5265L43.2733 18.4883L43.4962 16.8595C43.3573 16.9676 43.2098 17.0716 43.0543 17.1684L43.0053 16.862C43.4542 16.5691 43.8067 16.2055 44.0604 15.7679ZM45.0997 18.6837L44.5439 18.6076C44.3061 18.5751 44.2035 18.4399 44.236 18.2022L44.3499 17.3699C44.2352 17.4118 44.1175 17.4532 43.9972 17.4912L43.906 17.2062C44.0763 17.1569 44.241 17.1037 44.395 17.04L44.5532 15.8838L44.8356 15.9224L44.7014 16.9033C45.0191 16.7499 45.3078 16.5654 45.5615 16.3488L45.7272 16.5985C45.405 16.8512 45.0482 17.0688 44.6546 17.2451L44.5237 18.2022C44.5123 18.2854 44.5512 18.3331 44.6463 18.3461L45.0892 18.4067C45.1575 18.4161 45.2113 18.3992 45.2501 18.3591C45.2859 18.3186 45.3283 18.1639 45.3717 17.8913L45.6214 18.0132C45.5538 18.3522 45.4867 18.555 45.4235 18.619C45.3572 18.6826 45.2483 18.704 45.0997 18.6837Z" fill="white"/>
<path d="M48.6764 16.5187L48.6403 16.7924L46.5792 16.5206L46.4635 17.398C46.3704 18.0121 46.1774 18.489 45.8875 18.829L45.6984 18.6104C45.9355 18.327 46.0965 17.9094 46.1809 17.3607L46.3327 16.2097L48.6764 16.5187ZM46.6611 16.955L48.5468 17.2037L48.5115 17.4714L47.7858 17.3757L47.614 18.6784C47.5846 18.9015 47.4656 19.0008 47.2574 18.9733L46.9421 18.9317L46.912 18.6554C47.0085 18.6803 47.1029 18.6988 47.1922 18.7105C47.2784 18.7219 47.3301 18.6742 47.3434 18.5731L47.5062 17.3388L46.6258 17.2227L46.6611 16.955Z" fill="white"/>
<path d="M49.4958 17.4668L50.3333 17.7022L50.3747 17.5549L50.6462 17.6313L50.6048 17.7785L51.4308 18.0107L51.3634 18.2504L50.5374 18.0183L50.4757 18.2378L51.6309 18.5625L51.5644 18.7993L51.0301 18.6491L50.9668 18.8744L51.3769 18.9897L51.3095 19.2294L50.8994 19.1141L50.7882 19.5098C50.737 19.6917 50.61 19.7557 50.4136 19.7005L50.0064 19.586L50.0188 19.3091C50.1484 19.358 50.2701 19.4015 50.3856 19.434C50.4665 19.4567 50.5167 19.4334 50.5345 19.3699L50.6279 19.0378L49.0192 18.5856L49.0866 18.3459L50.6953 18.7981L50.7586 18.5728L48.9796 18.0727L49.0461 17.8359L50.2042 18.1614L50.2659 17.9419L49.4284 17.7065L49.4958 17.4668ZM49.5319 18.7796C49.6378 18.9683 49.7139 19.1299 49.7631 19.2652L49.508 19.3525C49.4554 19.2068 49.3772 19.0415 49.2705 18.8557L49.5319 18.7796ZM49.7534 17.0936C49.6512 17.202 49.5429 17.2993 49.4283 17.3855L49.2337 17.1688C49.458 17.0137 49.6365 16.8332 49.7736 16.6225L50.0173 16.7533C49.9854 16.8004 49.9505 16.8467 49.9186 16.8939L50.6088 17.0879L50.5447 17.316L50.1 17.191C50.1391 17.2955 50.1692 17.3881 50.1885 17.4746L49.9142 17.4972C49.8918 17.3662 49.857 17.2349 49.8111 17.1098L49.7534 17.0936ZM50.9284 17.4145C50.8562 17.494 50.7807 17.5631 50.7039 17.6257L50.5184 17.4208C50.6876 17.2845 50.8282 17.1277 50.9354 16.946L51.177 17.0731C51.1451 17.1202 51.1161 17.1681 51.0849 17.2123L51.8734 17.434L51.8092 17.6621L51.3443 17.5314C51.3863 17.6367 51.4148 17.7351 51.4312 17.8208L51.1692 17.8437C51.1439 17.712 51.1084 17.5835 51.0641 17.4527L50.9284 17.4145Z" fill="white"/>
<path d="M52.6605 18.1692C52.6707 18.3151 52.6655 18.4839 52.6475 18.6767L52.896 18.7746C53.0201 18.6558 53.142 18.5265 53.256 18.3844L53.4659 18.5638C53.3607 18.6836 53.2581 18.7883 53.1556 18.8768L53.457 18.9956L53.357 19.2496L51.953 18.6966L52.053 18.4426L52.3991 18.5789C52.4039 18.4357 52.401 18.2959 52.3863 18.1611L52.6605 18.1692ZM53.9287 18.1173L54.8973 18.4988L54.8181 18.6998C54.6194 18.9504 54.4201 19.1782 54.2228 19.3843C54.3283 19.7224 54.3519 19.9735 54.2909 20.1365C54.2161 20.3263 54.1254 20.4421 54.0242 20.4861C53.9175 20.5279 53.743 20.5043 53.5085 20.412L53.5347 20.0999C53.6308 20.1506 53.7124 20.1892 53.7821 20.2167C53.8446 20.2381 53.8931 20.2378 53.9231 20.2109C53.9508 20.1896 53.9845 20.1287 54.0257 20.0321C54.0856 19.8719 54.0564 19.6186 53.9409 19.2732C54.1155 19.1002 54.3038 18.8841 54.5074 18.629L54.0887 18.4641L53.2103 20.6943L52.9535 20.5932L53.9287 18.1173ZM52.4073 17.6986L52.9209 17.9009C52.9248 17.809 52.9266 17.7226 52.9251 17.6447L53.2134 17.7066C53.2067 17.7975 53.1966 17.8967 53.1805 18.0032L53.7331 18.2209L53.6331 18.4749L52.3072 17.9527L52.4073 17.6986ZM53.1651 19.4094L52.7341 20.5036L52.4689 20.3991L52.5261 20.254L51.9064 20.0099L51.8493 20.155L51.5897 20.0528L52.0206 18.9586L53.1651 19.4094ZM52.0054 19.7587L52.625 20.0027L52.8009 19.5561L52.1813 19.3121L52.0054 19.7587Z" fill="white"/>
<path d="M56.0821 21.9753L55.86 21.8697L55.9096 21.5976L56.1427 21.7151C56.2131 21.7486 56.2743 21.7178 56.3193 21.623L57.1475 19.8808L56.1287 19.3966L56.2421 19.1581L57.5101 19.7609L56.5351 21.812C56.4372 22.0179 56.2853 22.0719 56.0821 21.9753ZM55.1258 19.0327L55.3751 19.1512L54.3988 21.205L54.1495 21.0865L55.1258 19.0327ZM55.805 18.771C55.8601 18.9765 55.8939 19.1919 55.9063 19.4104L55.618 19.4228C55.6052 19.1842 55.5727 18.9661 55.523 18.7632L55.805 18.771Z" fill="white"/>
<path d="M58.6828 20.238C58.7121 20.4241 58.7317 20.622 58.7389 20.8303L58.531 20.8241L59.0779 21.1183C59.254 21.0189 59.4352 20.8848 59.6201 20.7185L59.8302 20.9168C59.6783 21.0599 59.5204 21.1759 59.3605 21.2704L59.8625 21.5405L59.7317 21.7836L58.8705 21.3201L58.8264 21.402C58.7529 21.526 58.6771 21.6351 58.6003 21.7335L59.6518 22.2993L59.521 22.5423L58.5964 22.0448C58.5538 22.4341 58.749 22.8628 59.1805 23.3334L58.9046 23.4916C58.4721 22.9659 58.2828 22.4756 58.33 22.0207C58.2156 22.1193 58.0978 22.1989 57.9779 22.2571C57.6703 22.3982 57.279 22.4227 56.8039 22.3305L56.7845 22.0373C57.2625 22.1242 57.6268 22.1056 57.8801 21.983C57.9715 21.9334 58.0593 21.8716 58.142 21.8003L57.2385 21.3141L57.3693 21.071L58.3414 21.5942C58.4223 21.4946 58.5007 21.3869 58.5728 21.2656L58.6169 21.1837L57.753 20.7188L57.8838 20.4758L58.4491 20.78C58.4444 20.5799 58.4244 20.3954 58.3933 20.2253L58.6828 20.238Z" fill="white"/>
<path d="M60.7306 21.4507L62.6896 22.5996L62.5485 22.8402L61.723 22.3561L61.3527 22.9876L62.3593 23.5779L62.2152 23.8237L61.2085 23.2334L60.691 24.1158C60.5848 24.297 60.4344 24.334 60.2455 24.2232L59.834 23.9819L59.9219 23.7135C60.0493 23.7987 60.1731 23.8782 60.2921 23.948C60.3749 23.9966 60.4391 23.982 60.4816 23.9096L60.9627 23.0892L59.912 22.4731L60.0562 22.2272L61.1068 22.8434L61.4771 22.212L60.5895 21.6914L60.7306 21.4507Z" fill="white"/>
<path d="M63.9124 24.8547L63.7357 25.137L64.1299 25.3837L64.3065 25.1014L63.9124 24.8547ZM63.5956 25.3608L63.3983 25.6761L63.7924 25.9228L63.9898 25.6075L63.5956 25.3608ZM63.2534 25.9075L63.1818 26.022L62.9428 25.8724L63.8245 24.4635C63.7275 24.5055 63.627 24.5416 63.5239 24.5762L63.6017 24.271C63.9713 24.1272 64.2968 23.9239 64.5787 23.6544L64.784 23.8466C64.6688 23.9515 64.5492 24.0465 64.4251 24.1316L64.8142 24.3751C64.8499 24.2276 64.8805 24.0769 64.9029 23.9281L65.1725 24.0119C65.1314 24.202 65.0896 24.3705 65.0405 24.5168L65.4296 24.7603L65.2848 24.9917L64.8703 24.7323L64.6872 25.0247L65.0509 25.2523L64.9092 25.4786L64.5456 25.251L64.3689 25.5333L64.7325 25.7609L64.5925 25.9847L64.2288 25.7571L64.0315 26.0724L64.474 26.3494L64.3291 26.5808L63.2534 25.9075ZM64.6312 24.5827L64.2371 24.336L64.054 24.6284L64.4482 24.8751L64.6312 24.5827ZM63.5574 24.4379L63.403 24.6846C63.3111 24.6731 63.2183 24.6575 63.128 24.6434L62.6951 25.3351C62.5916 25.5004 62.4526 25.5302 62.2823 25.4236L62.0534 25.2803L62.1464 25.0129C62.2087 25.0661 62.2716 25.1125 62.3352 25.1523C62.4013 25.1937 62.4535 25.1839 62.4917 25.1229L62.8291 24.5837C62.7118 24.5563 62.5935 24.5248 62.4794 24.4923L62.5711 24.2099C62.7066 24.2593 62.8426 24.302 62.9819 24.3396L63.3161 23.8056L63.011 23.6146L63.1574 23.3806L63.4626 23.5716L63.7427 23.1241L63.9843 23.2753L63.7042 23.7228L63.9407 23.8709L63.7942 24.1048L63.5577 23.9568L63.2792 24.4018C63.372 24.4175 63.4639 24.429 63.5574 24.4379Z" fill="white"/>
<path d="M65.7303 24.5893L66.6644 25.1999L66.515 25.4284L65.5809 24.8178L65.7303 24.5893ZM65.1942 25.2065L66.3116 25.937L66.1606 26.168L65.5956 25.7987C65.2803 26.0836 65.0383 26.2838 64.868 26.4018C65.0567 26.475 65.2578 26.5348 65.4671 26.582C65.4897 26.4212 65.5075 26.2679 65.5203 26.1222L65.7852 26.1556C65.7628 26.442 65.7207 26.7478 65.6604 27.0703L65.3855 27.0412L65.4253 26.8378C65.1025 26.7559 64.7712 26.6432 64.4287 26.4982L64.5187 26.2344C64.5471 26.2458 64.567 26.2481 64.582 26.2472C64.7138 26.1935 64.9733 25.994 65.3646 25.6476L65.0432 25.4375L65.1942 25.2065ZM67.1932 25.334L67.4292 25.4883L67.1108 25.9755L67.6532 26.3301C67.118 27.1487 66.7756 27.6452 66.6282 27.8213C66.4758 27.9941 66.2854 28.0058 66.0569 27.8564C66.0167 27.8301 65.9497 27.7791 65.8525 27.7085L65.9351 27.4614C66.0206 27.528 66.0952 27.584 66.1605 27.6266C66.271 27.6989 66.3731 27.6796 66.472 27.5722C66.5642 27.464 66.8295 27.0747 67.2711 26.4101L66.9597 26.2065L66.945 26.2291C66.4647 26.9474 65.9467 27.3615 65.3869 27.4722L65.312 27.1975C65.8096 27.0998 66.2755 26.7269 66.7089 26.0748L66.7237 26.0522L66.4048 25.8438L66.5558 25.6127L66.8747 25.8212L67.1932 25.334Z" fill="white"/>
<path d="M70.1304 27.9144L70.3663 28.0743L69.1395 29.8848L68.9035 29.7249L69.0028 29.5784L67.4705 28.54L67.3729 28.6841L67.137 28.5242L68.3705 26.7038L68.6065 26.8637L67.6237 28.314L68.2718 28.7533L69.5239 26.9056L69.7624 27.0671L68.5103 28.9148L69.156 29.3524L70.1304 27.9144Z" fill="white"/>
<path d="M70.6914 27.7976L72.905 29.3331L72.746 29.5623L72.0188 29.0579L71.7983 29.3759L72.3948 29.7897L71.268 31.4142L71.0338 31.2517L71.1005 31.1556L69.6215 30.1297L69.5548 30.2258L69.3206 30.0634L70.4474 28.4389L71.0292 28.8424L71.2498 28.5244L70.5324 28.0269L70.6914 27.7976ZM69.7737 29.9103L71.2527 30.9362L71.4972 30.5837L71.1669 30.3546C70.9894 30.2315 70.9664 30.0804 71.0912 29.9005L71.4127 29.437L71.107 29.225L71.0916 29.2472C70.8131 29.6382 70.4775 29.8326 70.0872 29.832L70.0182 29.5578L69.7737 29.9103ZM71.4815 28.6852L71.2609 29.0032L71.5666 29.2152L71.7871 28.8972L71.4815 28.6852ZM70.0267 29.5454C70.3561 29.5549 70.6327 29.4035 70.8599 29.0865L70.8753 29.0643L70.5277 28.8232L70.0267 29.5454ZM71.6444 29.5978L71.3605 30.007C71.3092 30.0809 71.3139 30.1426 71.383 30.1905L71.6442 30.3717L72.0067 29.8491L71.6444 29.5978Z" fill="white"/>
<path d="M74.3841 30.2353L74.6119 30.3963L74.1705 31.021L73.9426 30.86L74.3841 30.2353ZM73.0468 30.958C72.9234 30.9039 72.8001 30.8498 72.6784 30.7932L72.7318 30.515C73.5548 30.9202 74.2547 31.1357 74.8292 31.1596C74.7934 31.0388 74.7527 30.9145 74.707 30.7867L74.9694 30.7481C75.0964 31.0986 75.1867 31.4232 75.237 31.7159L74.9593 31.7658C74.9465 31.6539 74.9264 31.5368 74.8964 31.4128C74.5728 31.4082 74.2231 31.3521 73.8431 31.2452L74.7104 31.8581L73.7703 33.1884L73.5424 33.0274L73.6082 32.9343L72.5278 32.1708L72.4585 32.2688L72.2331 32.1095L73.0468 30.958ZM72.6732 31.965L73.7536 32.7285L73.8696 32.5644L72.7892 31.8008L72.6732 31.965ZM72.9208 31.6146L74.0012 32.3782L74.1068 32.2287L73.0264 31.4652L72.9208 31.6146ZM73.1562 31.2814L74.2367 32.045L74.3457 31.8906L73.2653 31.1271L73.1562 31.2814ZM73.9008 30.1031L73.9628 30.3636C73.6918 30.4403 73.4022 30.4708 73.0955 30.4524L73.0837 30.1833C73.3746 30.1978 73.6458 30.1727 73.9008 30.1031Z" fill="white"/>
<path d="M75.5661 31.6705L76.5496 32.3736C76.5699 32.2111 76.5703 32.0455 76.5526 31.8742L76.8455 31.9546C76.8496 32.1345 76.8332 32.3329 76.7937 32.5481L77.7186 33.2094L77.5546 33.4388L77.1812 33.1718C76.7988 33.459 76.404 33.6451 75.9949 33.7324C76.1004 34.1213 76.2937 34.5214 76.5719 34.9268L76.3029 35.0295C76.0147 34.6022 75.8186 34.1854 75.7169 33.7808C75.2666 33.8277 74.7983 33.7657 74.3119 33.595L74.334 33.301C74.8026 33.4812 75.2424 33.5522 75.6598 33.515C75.5833 33.0547 75.6222 32.603 75.7755 32.1668L75.4021 31.8999L75.5661 31.6705ZM75.9976 32.3256C75.8855 32.6991 75.863 33.0813 75.9343 33.4716C76.2873 33.3957 76.6246 33.2385 76.942 33.0008L75.9976 32.3256Z" fill="white"/>
<path d="M79.015 33.5139L79.158 33.7722C78.9315 33.9123 78.6877 34.0251 78.4283 34.1081L77.2733 35.7127L77.0444 35.5479L78.0049 34.2137C77.8314 34.2441 77.6524 34.2668 77.4696 34.2793L77.5701 33.9857C78.1039 33.9375 78.5857 33.7816 79.015 33.5139ZM78.566 36.5767L78.1107 36.249C77.9159 36.1088 77.8887 35.9413 78.0289 35.7465L78.5196 35.0647C78.3987 35.0479 78.2753 35.0293 78.1512 35.0065L78.2043 34.712C78.3778 34.7483 78.5482 34.7785 78.7142 34.7945L79.396 33.8474L79.6273 34.0139L79.0489 34.8173C79.4014 34.8308 79.7429 34.8032 80.0686 34.7308L80.0978 35.029C79.6948 35.1012 79.2776 35.1261 78.8473 35.0973L78.283 35.8813C78.2339 35.9495 78.2459 36.0099 78.3238 36.066L78.6866 36.3271C78.7426 36.3674 78.798 36.3777 78.851 36.3605C78.9017 36.3415 79.0116 36.2247 79.1777 36.0042L79.3412 36.2291C79.1226 36.4968 78.9682 36.6445 78.8823 36.6714C78.794 36.6965 78.6878 36.6644 78.566 36.5767Z" fill="white"/>
<path d="M80.6035 35.2867L81.5839 35.9941C81.6049 35.8317 81.6061 35.6661 81.5891 35.4947L81.8817 35.5764C81.885 35.7563 81.8676 35.9547 81.8272 36.1697L82.7492 36.835L82.5842 37.0637L82.212 36.7951C81.8284 37.0806 81.4327 37.2649 81.0232 37.3505C81.127 37.7398 81.3186 38.1408 81.595 38.5473L81.3256 38.6489C81.0392 38.2203 80.8449 37.8026 80.745 37.3976C80.2946 37.4425 79.8265 37.3785 79.3409 37.2056L79.3642 36.9118C79.8321 37.094 80.2715 37.1669 80.6891 37.1316C80.6146 36.6709 80.6555 36.2195 80.8107 35.7839L80.4385 35.5153L80.6035 35.2867ZM81.0321 35.9437C80.9183 36.3166 80.8942 36.6987 80.9638 37.0893C81.3171 37.015 81.6551 36.8594 81.9736 36.623L81.0321 35.9437Z" fill="white"/>
<path d="M84.1788 37.2631L84.3575 37.4769C84.249 37.5762 84.1451 37.664 84.0457 37.7403L84.9731 38.4085C84.3698 39.2458 83.9858 39.753 83.8212 39.9302C83.6411 40.1185 83.4294 40.125 83.1836 39.9478C83.1495 39.9233 83.0922 39.8746 83.008 39.8066L83.1036 39.5611C83.1762 39.6245 83.2384 39.6767 83.2968 39.7188C83.4307 39.8153 83.5594 39.8008 83.6806 39.6737C83.7829 39.5625 84.0855 39.163 84.5902 38.4729L84.4807 38.3939C84.143 38.7497 83.8462 39.0128 83.5871 39.1774C83.2893 39.3547 82.9565 39.4625 82.5901 39.5091L82.578 39.2231C82.9074 39.1868 83.2014 39.0917 83.465 38.9415C83.7052 38.7928 83.975 38.562 84.2714 38.2431L84.1302 38.1414C83.6551 38.5904 83.199 38.8385 82.7594 38.8841L82.7354 38.6044C83.1213 38.5718 83.5183 38.3697 83.9257 37.9941L83.804 37.9064C83.6355 38.0068 83.4755 38.0801 83.325 38.1196L83.2581 37.8532C83.55 37.7714 83.8577 37.5753 84.1788 37.2631ZM82.8242 37.3778C82.7205 37.4806 82.6131 37.5733 82.5049 37.6618L82.3432 37.4602C82.6022 37.2549 82.8382 37.0145 83.0514 36.7392L83.2453 36.9011C83.1703 36.9949 83.0928 37.087 83.0147 37.1749L83.1413 37.2661L83.492 36.7793L83.716 36.9407L83.3652 37.4275L83.5429 37.5555L83.3815 37.7794L83.2039 37.6514L82.8338 38.165C82.9115 38.1803 82.9868 38.1939 83.0596 38.2057L82.9018 38.4247C82.8265 38.4112 82.7513 38.3976 82.6777 38.3816L82.099 39.1848L81.8751 39.0235L82.3889 38.3103C82.243 38.2717 82.0981 38.2265 81.9525 38.177L82.0603 37.9145C82.2176 37.9835 82.3802 38.0452 82.545 38.0937L82.9799 37.4901L82.8242 37.3778Z" fill="white"/>
<path d="M85.3577 38.6742L85.8502 39.0273C85.8571 38.8735 85.8546 38.7278 85.8384 38.5907L86.0974 38.6361C86.1157 38.7858 86.122 38.9417 86.1147 39.1063L85.916 39.0745L86.4085 39.4277C86.5739 39.3617 86.7324 39.2797 86.8864 39.1834L87.053 39.4246C86.9189 39.4983 86.7845 39.557 86.6498 39.6007L87.0936 39.9189L86.3436 40.9648L85.5903 40.4246L85.4522 40.6172L86.4274 41.3165L86.27 41.5359L85.2948 40.8366L84.9819 41.2731L84.7527 41.1087L85.0657 40.6723L84.0904 39.9731L84.2478 39.7536L85.223 40.4529L85.3611 40.2603L84.6077 39.7201L85.3577 38.6742ZM86.2662 40.5992L86.427 40.3749L85.8979 39.9955L85.7371 40.2198L86.2662 40.5992ZM85.5079 40.0555L85.6688 39.8312L85.1397 39.4519L84.9789 39.6762L85.5079 40.0555ZM85.2796 39.2568L85.8086 39.6362L85.9659 39.4167L85.4369 39.0374L85.2796 39.2568ZM86.1951 39.5811L86.0378 39.8005L86.5668 40.1798L86.7242 39.9604L86.1951 39.5811Z" fill="white"/>
<path d="M88.6426 40.4427L88.789 40.6976C88.5958 40.84 88.3907 40.9629 88.173 41.0622L87.0019 42.7105L86.772 42.5471L87.7016 41.2388C87.564 41.2771 87.4256 41.3113 87.2858 41.3371L87.3855 41.0362C87.8365 40.9298 88.2552 40.7341 88.6426 40.4427ZM88.5341 40.958L89.165 41.4063C89.2142 41.2646 89.254 41.131 89.2854 40.9987L89.5577 41.1333C89.5155 41.2653 89.4629 41.4119 89.3973 41.5714L90.021 42.0145L89.8628 42.237L88.3759 41.1806L88.5341 40.958ZM87.3874 42.4839L88.2189 43.0747C88.5681 42.837 88.9582 42.5106 89.3868 42.0939L89.5694 42.3082C89.1828 42.6813 88.8115 42.9916 88.4561 43.2432L88.9794 43.615L88.8178 43.8425L87.2258 42.7113L87.3874 42.4839ZM88.6081 41.5737C88.4821 41.9479 88.3109 42.3598 88.0993 42.813L87.8441 42.7164C88.0394 42.3068 88.2048 41.898 88.3443 41.4893L88.6081 41.5737Z" fill="white"/>
<path d="M90.2435 42.2019L91.233 42.8966C91.2519 42.734 91.2509 42.5683 91.2317 42.3972L91.5253 42.4751C91.5309 42.655 91.5161 42.8535 91.4785 43.069L92.409 43.7224L92.2469 43.9532L91.8713 43.6894C91.4914 43.9799 91.0981 44.1693 90.6898 44.2601C90.7986 44.6481 90.9954 45.0465 91.2769 45.4495L91.0089 45.5545C90.717 45.1297 90.5173 44.7145 90.4122 44.3108C89.9624 44.3615 89.4936 44.3036 89.0057 44.137L89.0253 43.8428C89.4954 44.019 89.9358 44.0862 90.3529 44.0456C90.2725 43.5858 90.3075 43.1339 90.4571 42.6964L90.0815 42.4327L90.2435 42.2019ZM90.6805 42.8533C90.5716 43.2277 90.5524 43.6101 90.627 43.9997C90.9793 43.9209 91.3153 43.7609 91.6307 43.5205L90.6805 42.8533Z" fill="white"/>
<path d="M93.629 43.9487L93.7769 44.2042C93.5531 44.3485 93.3114 44.4658 93.0536 44.5538L91.9291 46.1798L91.6971 46.0194L92.6323 44.6673C92.4594 44.701 92.2809 44.727 92.0984 44.7431L92.1933 44.4476C92.7261 44.3893 93.2049 44.2244 93.629 43.9487ZM93.2379 47.0194L92.7765 46.7003C92.5791 46.5637 92.5487 46.3968 92.6852 46.1994L93.163 45.5085C93.0417 45.494 92.918 45.4777 92.7935 45.4573L92.841 45.1618C93.0152 45.1948 93.1862 45.2218 93.3524 45.2346L94.0162 44.2748L94.2506 44.4369L93.6875 45.2512C94.0402 45.258 94.3811 45.2239 94.7054 45.1454L94.7402 45.4431C94.3386 45.5228 93.922 45.5556 93.4912 45.5349L92.9418 46.3294C92.894 46.3985 92.9071 46.4587 92.9861 46.5133L93.3537 46.7675C93.4105 46.8068 93.4661 46.816 93.5188 46.7978C93.5691 46.7779 93.6768 46.659 93.8387 46.4354L94.0063 46.6572C93.7928 46.929 93.6413 47.0795 93.5559 47.108C93.4681 47.1348 93.3613 47.1047 93.2379 47.0194Z" fill="white"/>
<path d="M95.5872 46.7866L95.1256 46.4732L94.4836 47.4189C94.4431 47.4785 94.4535 47.5326 94.5205 47.5781L94.9524 47.8713C95.0269 47.9219 95.0875 47.934 95.1302 47.9086C95.177 47.8824 95.2492 47.8081 95.345 47.6882L95.5154 47.9127C95.3489 48.1151 95.2298 48.2265 95.1548 48.2408C95.0882 48.2536 94.9928 48.2178 94.8736 48.1369L94.2705 47.7275C94.1141 47.6213 94.0877 47.4946 94.1888 47.3457L94.9892 46.1667L94.7892 46.205L94.7799 45.9195C95.1623 45.8636 95.5518 45.7546 95.9467 45.5948L96.1204 45.7127C96.1839 46.0894 96.2306 46.4692 96.2557 46.8488L95.9923 46.9057C95.9709 46.4778 95.943 46.1398 95.9018 45.8906C95.643 45.9941 95.3743 46.0801 95.0909 46.1451L95.9596 46.7348L95.4945 47.4199C95.3994 47.5547 95.2761 47.5762 95.1204 47.485C95.0236 47.4193 94.9334 47.3545 94.8499 47.2905L94.9428 47.0309C95.0279 47.1031 95.104 47.162 95.1735 47.2092C95.2306 47.2479 95.2806 47.2384 95.3176 47.1838L95.5872 46.7866ZM96.7128 46.4158L96.9437 46.5725L95.904 48.104L95.6732 47.9473L96.7128 46.4158ZM95.7504 48.7575L95.3756 48.5031L95.4744 48.2402C95.5892 48.3327 95.7025 48.4168 95.8117 48.491C95.8713 48.5314 95.9264 48.5144 95.9752 48.4424L97.2929 46.5014L97.5287 46.6615L96.1706 48.662C96.0526 48.8358 95.9118 48.8671 95.7504 48.7575Z" fill="white"/>
<path d="M98.1416 47.548L97.7517 47.2891L97.8845 47.0892L98.7092 47.6368C98.7174 47.581 98.724 47.5278 98.7272 47.4795L99.0112 47.6105C98.9997 47.6712 98.9873 47.7386 98.9691 47.8094L99.8339 48.3836L99.7011 48.5835L99.3037 48.3196L99.1317 48.4215L99.719 48.8114L99.583 49.0164L97.3986 47.566L97.5347 47.3611L98.102 47.7378L98.1416 47.548ZM98.3494 47.9021L98.8843 48.2572L99.0563 48.1554L98.389 47.7123L98.3494 47.9021ZM97.5888 47.8436L99.2533 48.9488L98.7356 49.7285L97.0711 48.6234L97.5888 47.8436ZM98.6226 49.3943L98.7056 49.2693L97.506 48.4728L97.423 48.5977L98.6226 49.3943ZM97.6188 48.3028L98.8185 49.0994L98.8998 48.9769L97.7001 48.1804L97.6188 48.3028ZM96.9114 48.6578L97.1098 48.8579C96.9212 49.0172 96.7284 49.134 96.5297 49.211L96.4094 48.9474C96.599 48.8788 96.7635 48.7829 96.9114 48.6578ZM97.7952 50.0981L97.1854 49.6932C96.993 49.5654 96.9561 49.4149 97.0689 49.2449L97.2813 48.925L97.5213 49.0843L97.342 49.3542C97.3005 49.4167 97.3165 49.4741 97.3939 49.5255L97.8913 49.8558C97.9363 49.8856 97.9754 49.8972 98.0045 49.8913C98.0444 49.8854 98.1051 49.8321 98.1881 49.7287L98.3649 49.9506C98.2288 50.1122 98.1224 50.1965 98.0442 50.1949C97.9768 50.1934 97.8927 50.1628 97.7952 50.0981ZM97.9567 49.2258C97.9903 49.3921 98.0072 49.5294 98.0082 49.6417L97.7195 49.6481C97.7168 49.5274 97.7007 49.3835 97.6696 49.2188L97.9567 49.2258ZM98.7016 49.796C98.7312 50.0497 98.7416 50.2619 98.7344 50.43L98.4457 50.4363C98.4578 50.2499 98.4533 50.0344 98.4295 49.7882L98.7016 49.796Z" fill="white"/>
<path d="M101.5 49.2289C101.483 49.3323 101.457 49.4442 101.428 49.5677L102.302 50.1332L102.155 50.3599L101.732 50.0861C101.633 50.1832 101.526 50.2712 101.413 50.3476L101.994 50.7241L101.844 50.9558L100.056 49.7988L99.8361 50.1388C99.5718 50.5252 99.2783 50.7856 98.9522 50.914L98.8726 50.6339C99.1325 50.5304 99.3725 50.3141 99.5943 49.9824L99.9642 49.4106L100.473 49.7398L100.598 49.3528L100.15 49.0627L100.297 48.836L101.183 49.4096C101.204 49.3053 101.217 49.2028 101.222 49.1062L101.5 49.2289ZM100.71 49.893L101.183 50.1993C101.297 50.1229 101.404 50.0349 101.503 49.9378L100.833 49.5043L100.71 49.893Z" fill="white"/>
<path d="M103.185 50.4754L104.629 51.3816L104.072 52.2683L102.629 51.3621L103.185 50.4754ZM103.974 51.888L104.244 51.4587L103.283 50.8557L103.014 51.285L103.974 51.888ZM103.109 51.9292L102.391 53.0725L102.157 52.9257L102.234 52.8038L101.764 52.5086L101.687 52.6306L101.451 52.4822L102.169 51.3389L103.109 51.9292ZM101.906 52.2825L102.376 52.5777L102.731 52.0111L102.261 51.716L101.906 52.2825ZM104.293 52.6726L103.575 53.8159L103.333 53.6643L103.41 53.5424L102.92 53.2345L102.843 53.3565L102.607 53.2081L103.325 52.0648L104.293 52.6726ZM103.062 53.0084L103.552 53.3163L103.908 52.7497L103.417 52.4418L103.062 53.0084Z" fill="white"/>
<path d="M105.395 51.9267L107.416 53.1529L107.273 53.3889L106.862 53.1399L106.489 53.7555L107.03 54.0838L106.887 54.3198L106.346 53.9915L105.672 55.102L105.428 54.9542L106.102 53.8436L105.415 53.4266C105.233 53.6675 105.056 53.8508 104.874 53.976C104.646 54.1323 104.381 54.1994 104.083 54.1763L104.076 53.8918C104.355 53.8957 104.589 53.8274 104.775 53.6879C104.905 53.5841 105.035 53.4453 105.166 53.2756L104.602 52.9333L104.745 52.6973L105.327 53.0506C105.339 53.03 105.354 53.0111 105.364 52.9957L105.703 52.4366L105.252 52.1627L105.395 51.9267ZM105.949 52.5859L105.61 53.1451C105.598 53.1656 105.584 53.182 105.573 53.2L106.245 53.6077L106.619 52.9921L105.949 52.5859Z" fill="white"/>
<path d="M107.501 54.1417L108.147 53.5045L108.369 53.6895L107.954 54.0903L108.338 54.3141C108.499 54.151 108.656 53.9716 108.811 53.7773L109.044 53.955C108.894 54.1416 108.743 54.3106 108.594 54.4637L109.781 55.1561L109.644 55.3919L108.395 54.6632C108.319 54.7336 108.243 54.7973 108.172 54.8599L109.209 55.4647L109.088 55.672C108.896 55.8451 108.658 55.9628 108.366 56.022C108.499 56.2457 108.679 56.4858 108.902 56.7409L108.639 56.9C108.392 56.6031 108.201 56.3219 108.068 56.0632C107.78 56.0863 107.453 56.0692 107.087 56.0119L107.093 55.7031C107.407 55.761 107.69 55.7874 107.939 55.7833C107.849 55.5503 107.807 55.3311 107.813 55.1298C107.403 55.4045 106.989 55.5727 106.573 55.6359L106.579 55.3338C107.121 55.2263 107.639 54.9519 108.133 54.5105L107.501 54.1417ZM108.071 55.0994C108.067 55.3022 108.119 55.5233 108.227 55.7602C108.467 55.7233 108.67 55.6503 108.83 55.5424L108.071 55.0994ZM109.496 54.1805C109.596 54.4195 109.666 54.6446 109.708 54.853L109.429 54.9263C109.404 54.7311 109.34 54.5065 109.235 54.247L109.496 54.1805Z" fill="white"/>
<path d="M110.501 57.2689C110.163 57.3758 109.726 57.3586 109.192 57.2189L109.174 56.9307C109.733 57.0743 110.157 57.0975 110.443 56.9964L110.521 56.961L109.505 56.3937L109.637 56.158L110.781 56.7968C110.932 56.6748 111.067 56.5197 111.185 56.3317L111.364 56.0121L111.605 56.1466L111.426 56.4662C111.31 56.6557 111.183 56.8151 111.043 56.943L111.866 57.4021L111.734 57.6379L110.81 57.1218C110.785 57.1354 110.76 57.1491 110.738 57.1642C111.02 57.5074 111.259 57.8607 111.458 58.219L111.202 58.3577C111 57.9564 110.765 57.5952 110.501 57.2689ZM110.289 55.8693C110.433 56.0491 110.552 56.2358 110.646 56.4294L110.408 56.5543C110.315 56.3405 110.197 56.1512 110.062 55.9866L110.289 55.8693ZM110.75 55.6458C110.895 55.823 111.014 56.0097 111.106 56.2019L110.868 56.3267C110.773 56.1156 110.66 55.9251 110.525 55.7605L110.75 55.6458ZM112.507 56.197L112.208 56.734L111.967 56.5995L112.139 56.2904L110.431 55.3372L110.259 55.6463L110.018 55.5118L110.317 54.9748L111.3 55.523C111.312 55.4336 111.321 55.3494 111.325 55.269L111.602 55.3689C111.593 55.4598 111.576 55.5571 111.551 55.6634L112.507 56.197Z" fill="white"/>
<path d="M112.7 56.4615L113.085 56.6654C113.101 56.5249 113.111 56.3909 113.11 56.2647L113.391 56.3561C113.379 56.4886 113.359 56.6344 113.328 56.7947L113.641 56.9607L113.512 57.2045L112.995 56.9303L112.83 57.2403L113.299 57.4892C112.934 58.1782 112.694 58.5979 112.587 58.7483C112.476 58.8932 112.316 58.9135 112.104 58.801C112.083 58.7897 112.049 58.7648 112.001 58.7327L112.065 58.478C112.108 58.5112 112.148 58.539 112.185 58.5587C112.278 58.6079 112.357 58.5924 112.424 58.5121C112.485 58.4291 112.657 58.1232 112.942 57.5987L112.704 57.4721C112.377 58.0494 112.05 58.4293 111.722 58.6119L111.621 58.3478C111.921 58.1738 112.225 57.7987 112.531 57.2277L112.756 56.8037L112.571 56.7053L112.7 56.4615ZM113.941 57.3169C113.752 57.4613 113.567 57.5735 113.384 57.6563L113.324 57.3731C113.584 57.2599 113.861 57.0573 114.157 56.7692L114.365 56.9473C114.296 57.0128 114.23 57.0729 114.164 57.133L115.079 57.6182L114.953 57.854L113.941 57.3169ZM114.705 58.099C114.436 58.6051 114.26 58.9055 114.182 59.0002C114.102 59.0936 113.974 59.0972 113.8 59.0044L113.786 58.9974L113.835 58.7516C113.88 58.7755 113.919 58.7993 113.953 58.8175C113.982 58.833 114.015 58.8164 114.047 58.7688C114.076 58.7266 114.167 58.5677 114.313 58.2921L114.074 58.2568L113.616 59.1207L113.382 58.997L113.797 58.2152L113.555 58.1785L113.188 58.8702C113.126 58.9868 113.134 59.0688 113.213 59.111L113.714 59.3768C113.77 59.4063 113.819 59.4155 113.86 59.4031C113.908 59.3882 113.979 59.3067 114.072 59.1559L114.253 59.3401C114.108 59.5554 113.997 59.6695 113.913 59.6862C113.839 59.6978 113.748 59.6769 113.637 59.6178L113.025 59.293C112.845 59.1974 112.818 59.0303 112.942 58.7971L113.29 58.1399L113.067 58.1063L113.188 57.8784L113.411 57.912L113.6 57.5569L113.822 57.675L113.676 57.9506L113.92 57.9847L114.14 57.5686L114.374 57.6924L114.196 58.0263L114.705 58.099Z" fill="white"/>
<path d="M116.214 58.3084L115.795 58.0997L115.902 57.8849L116.788 58.3263C116.79 58.27 116.79 58.2163 116.787 58.168L117.085 58.2629C117.081 58.3246 117.077 58.393 117.068 58.4655L117.997 58.9283L117.89 59.1432L117.463 58.9305L117.305 59.0528L117.936 59.3672L117.826 59.5873L115.479 58.4181L115.589 58.1979L116.198 58.5016L116.214 58.3084ZM116.464 58.634L117.039 58.9203L117.197 58.798L116.48 58.4408L116.464 58.634ZM115.702 58.67L117.491 59.561L117.073 60.3988L115.285 59.5078L115.702 58.67ZM116.92 60.081L116.987 59.9468L115.698 59.3046L115.631 59.4389L116.92 60.081ZM115.789 59.122L117.078 59.7642L117.143 59.6326L115.854 58.9905L115.789 59.122ZM115.131 59.5617L115.352 59.7358C115.185 59.9171 115.008 60.0569 114.82 60.1578L114.668 59.9112C114.848 59.8197 114.999 59.7041 115.131 59.5617ZM116.186 60.8817L115.531 60.5553C115.324 60.4523 115.269 60.3074 115.36 60.1248L115.531 59.7811L115.789 59.9096L115.644 60.1996C115.611 60.2667 115.634 60.3217 115.717 60.3631L116.251 60.6294C116.299 60.6534 116.34 60.6601 116.368 60.6507C116.407 60.6399 116.46 60.5794 116.53 60.4666L116.733 60.6649C116.618 60.8422 116.523 60.9389 116.445 60.9471C116.378 60.9539 116.29 60.9339 116.186 60.8817ZM116.238 59.9961C116.292 60.1571 116.326 60.2912 116.341 60.4025L116.055 60.4445C116.037 60.3251 116.004 60.1843 115.952 60.0247L116.238 59.9961ZM117.048 60.4699C117.109 60.718 117.145 60.9273 117.159 61.095L116.873 61.137C116.862 60.9505 116.831 60.7372 116.777 60.4958L117.048 60.4699Z" fill="white"/>
<path d="M120.281 59.9422L119.572 61.4621L119.311 61.3404L119.902 60.0733L118.765 59.5434L118.173 60.8132L117.912 60.6915L118.622 59.1689L120.281 59.9422ZM119.114 59.8949L119.37 60.0141L119.133 60.5225C119.059 60.6668 118.981 60.7925 118.895 60.9048L119.126 61.0126L118.827 61.6543C118.78 61.7549 118.791 61.823 118.862 61.856L119.259 62.0411C119.292 62.0563 119.331 62.0579 119.369 62.0461C119.412 62.0329 119.487 61.9288 119.591 61.7327L119.801 61.9296C119.648 62.1794 119.538 62.3166 119.469 62.344C119.394 62.3622 119.309 62.3524 119.214 62.3148L118.679 62.065C118.483 61.9737 118.439 61.8112 118.547 61.5801L118.818 60.9982C118.683 61.1536 118.539 61.2716 118.38 61.3565C118.094 61.5012 117.722 61.5396 117.261 61.477L117.224 61.1949C117.685 61.2574 118.034 61.225 118.269 61.0965C118.507 60.9557 118.708 60.7248 118.877 60.4034L119.114 59.8949Z" fill="white"/>
<path d="M121.556 60.9322L120.728 62.849L120.477 62.7407L120.539 62.5975L120.104 62.4095L120.008 62.6326L119.757 62.5243L120.62 60.5277L120.881 60.6407C120.995 60.5134 121.099 60.3786 121.19 60.2284L121.436 60.3773C121.343 60.5168 121.241 60.6394 121.132 60.749L121.556 60.9322ZM120.209 62.1672L120.644 62.3552L120.878 61.8126L120.443 61.6246L120.209 62.1672ZM120.544 61.3906L120.979 61.5786L121.198 61.0718L120.763 60.8838L120.544 61.3906ZM121.766 61.8074C121.85 62.1117 121.906 62.3679 121.929 62.5803L121.659 62.637C121.633 62.4101 121.577 62.1472 121.497 61.8479L121.766 61.8074ZM122.976 61.549C122.565 62.4991 122.298 63.0797 122.175 63.2881C122.062 63.4745 121.887 63.5166 121.653 63.4154C121.598 63.3916 121.501 63.3433 121.367 63.2755L121.407 63.0086C121.526 63.0664 121.628 63.1171 121.716 63.1552C121.827 63.2028 121.915 63.1723 121.981 63.0638C122.057 62.9333 122.266 62.4742 122.61 61.6917L121.919 61.393C121.771 61.5249 121.617 61.6383 121.453 61.7308L121.385 61.4564C121.681 61.2706 121.947 61.0031 122.177 60.6516L122.422 60.7965C122.328 60.9388 122.227 61.0654 122.125 61.1813L122.976 61.549Z" fill="white"/>
<path d="M123.86 61.4114C123.992 61.6339 124.093 61.8444 124.164 62.04L123.905 62.151C123.848 61.9675 123.751 61.7553 123.61 61.5134L123.86 61.4114ZM124.484 64.5437C124.331 64.4834 124.164 64.4149 123.987 64.342C123.806 64.268 123.665 64.1932 123.558 64.1193C123.46 64.042 123.388 63.9366 123.342 63.8088C123.321 63.746 123.297 63.7105 123.263 63.6973C123.204 63.6743 123.055 63.7606 122.814 63.9561L122.689 63.6979C122.918 63.5264 123.099 63.4333 123.233 63.4212L123.543 62.6308L123.169 62.4841L123.265 62.2383L123.888 62.4825L123.474 63.5383C123.483 63.5549 123.492 63.5743 123.499 63.5966C123.534 63.6972 123.579 63.7793 123.635 63.843C123.703 63.915 123.816 63.9883 123.979 64.0585C124.137 64.1237 124.323 64.1999 124.541 64.2854C124.677 64.339 124.818 64.391 124.959 64.443C125.1 64.4949 125.211 64.5321 125.288 64.5561L125.121 64.7934L124.484 64.5437ZM124.874 62.1282L124.335 61.9168L124.422 61.6962L125.955 62.2975L125.882 62.4847C125.665 62.5608 125.446 62.6102 125.222 62.6384C125.225 62.6462 125.23 62.6512 125.233 62.659L125.795 62.8791L125.308 64.1192C125.244 64.2839 125.119 64.3316 124.937 64.2604L124.722 64.1761L124.753 63.9335L124.947 64.0224C125.008 64.0465 125.054 64.029 125.078 63.9675L125.134 63.8251L124.731 63.6674L124.552 64.1254L124.309 64.0301L124.488 63.5721L124.095 63.4176L123.913 63.8812L123.661 63.7827L124.253 62.2745L124.895 62.5264C124.827 62.4288 124.749 62.3241 124.659 62.2177L124.874 62.1282ZM125.109 62.4492C125.25 62.4366 125.385 62.4123 125.514 62.3791L124.888 62.1337C124.968 62.2424 125.043 62.346 125.109 62.4492ZM124.256 63.0071L124.179 63.2026L124.573 63.357L124.649 63.1615L124.256 63.0071ZM124.892 63.2568L124.816 63.4523L125.218 63.61L125.295 63.4145L124.892 63.2568ZM125.38 63.1967L125.457 63.0012L125.054 62.8435L124.978 63.039L125.38 63.1967ZM124.735 62.9437L124.811 62.7482L124.418 62.5937L124.341 62.7892L124.735 62.9437Z" fill="white"/>
<path d="M128.86 63.5484L128.088 65.7573L127.828 65.6662L127.884 65.5048L127.388 65.3316L127.331 65.4958L127.07 65.4048L127.844 63.193L128.86 63.5484ZM127.476 65.0795L127.972 65.2528L128.512 63.7094L128.016 63.5361L127.476 65.0795ZM126.709 63.1746C126.594 63.2935 126.475 63.398 126.354 63.4892L126.172 63.257C126.446 63.0541 126.676 62.8136 126.86 62.5345L127.106 62.6842C127.04 62.7819 126.972 62.8691 126.904 62.9536L127.677 63.2238L127.587 63.4815L127.202 63.3469C127.135 63.5205 127.069 63.6818 126.999 63.8259L127.441 63.9803L127.351 64.2381L126.873 64.0708C126.839 64.1291 126.803 64.1865 126.772 64.2391C126.884 64.4751 126.991 64.7319 127.097 65.0105L126.846 65.2023C126.757 64.8917 126.678 64.6448 126.609 64.4616C126.386 64.7174 126.097 64.8992 125.737 65.0021L125.636 64.7255C126.007 64.6104 126.293 64.4115 126.497 64.127C126.527 64.0771 126.561 64.0254 126.592 63.9728L126.034 63.7778L126.124 63.52L126.722 63.7289C126.791 63.5848 126.857 63.4235 126.924 63.2499L126.709 63.1746Z" fill="white"/>
<path d="M129.566 63.4476L129.752 64.9687L128.751 66.1284L128.552 65.9553L129.477 64.8849L129.305 63.4811L129.566 63.4476ZM130.057 63.5968L130.243 65.1179L129.241 66.2776L129.043 66.1045L129.968 65.0341L129.784 63.6268L130.057 63.5968Z" fill="white"/>
</svg>
