<svg width="93" height="18" viewBox="0 0 93 18" fill="none" xmlns="http://www.w3.org/2000/svg">
<path d="M4.94268 2.47664L5.18139 2.7535L3.72387 3.96025L3.65371 5.84464L3.30297 5.83359L3.37884 3.79171L4.94268 2.47664ZM5.55728 2.77685L5.78161 3.04668L4.33848 4.26045L4.26831 6.14485L3.91757 6.13379L3.99344 4.09191L5.55728 2.77685Z" fill="white"/>
<path d="M7.0643 3.52846C7.12012 3.77338 7.16404 4.03487 7.1924 4.31127L6.91533 4.32176L7.6694 4.66376C7.89472 4.5156 8.12363 4.32076 8.35451 4.08288L8.65198 4.3276C8.4628 4.53168 8.26332 4.70035 8.05918 4.84055L8.75132 5.15446L8.59932 5.48961L7.41175 4.95099L7.36054 5.06392C7.27395 5.23547 7.18303 5.3875 7.0898 5.52529L8.53964 6.18286L8.38764 6.518L7.11265 5.93973C7.09123 6.46147 7.38963 7.01407 8.00619 7.60116L7.65349 7.83649C7.03058 7.17624 6.73444 6.54122 6.75611 5.93175C6.61289 6.07323 6.46335 6.18988 6.30916 6.27806C5.91275 6.49357 5.39439 6.56153 4.75409 6.48195L4.7018 6.09368C5.3454 6.16598 5.82835 6.10831 6.15427 5.92232C6.2714 5.84807 6.38255 5.75793 6.48608 5.65556L5.24023 5.09051L5.39223 4.75537L6.7328 5.36337C6.83133 5.22359 6.92589 5.07322 7.01082 4.90531L7.06204 4.79238L5.87083 4.25212L6.02284 3.91697L6.8024 4.27054C6.77802 4.00474 6.73478 3.76112 6.67798 3.53772L7.0643 3.52846Z" fill="white"/>
<path d="M9.91962 4.93879L12.7189 6.09325L12.5771 6.43715L11.3975 5.95066L11.0253 6.85294L12.4638 7.44619L12.3189 7.79748L10.8805 7.20424L10.3604 8.46522C10.2537 8.72407 10.062 8.80076 9.79201 8.68943L9.20405 8.44695L9.27039 8.07625C9.45441 8.16512 9.63255 8.24724 9.80266 8.31739C9.92099 8.3662 10.003 8.33513 10.0457 8.23159L10.5292 7.05936L9.02783 6.44019L9.17271 6.0889L10.674 6.70807L11.0462 5.80579L9.77779 5.28269L9.91962 4.93879Z" fill="white"/>
<path d="M13.2866 8.07303L12.9204 9.072C13.2531 9.11731 13.6088 9.15823 13.9826 9.18451L13.9567 9.54567C13.4479 9.50399 12.9348 9.43941 12.4196 9.35705L12.3857 9.00804C12.4937 8.99226 12.565 8.93743 12.5994 8.84354L13.4352 6.56393C13.9322 6.66094 14.3961 6.72027 14.8284 6.73816L14.9453 7.10482C14.5711 7.09118 14.1536 7.04462 13.6915 6.9689L13.4119 7.73127L14.4485 8.11131L14.3232 8.45306L13.2866 8.07303ZM15.1387 10.2261L14.7856 10.0967L14.8147 9.7154L15.1462 9.84546C15.2438 9.88126 15.3133 9.84283 15.3518 9.73767L16.0651 7.79231L15.3252 7.52105L14.243 10.4729L13.8824 10.3407L15.0886 7.05086L16.5495 7.58649L15.6848 9.94497C15.5816 10.2266 15.3978 10.3212 15.1387 10.2261Z" fill="white"/>
<path d="M16.8148 8.83387L17.4691 7.81601L17.812 7.99188L17.39 8.63439L17.9543 8.81333C18.1163 8.55415 18.2678 8.27488 18.4127 7.97673L18.768 8.13976C18.6267 8.42647 18.4801 8.69049 18.3318 8.93302L20.0781 9.48676L19.9681 9.83373L18.1303 9.25098C18.0523 9.36472 17.9728 9.46962 17.8984 9.57192L19.4236 10.0555L19.3269 10.3606C19.1286 10.6418 18.8523 10.8647 18.4904 11.0269C18.7294 11.2789 19.033 11.5388 19.3974 11.8055L19.1018 12.0894C18.6936 11.7753 18.364 11.4652 18.1142 11.1678C17.7465 11.282 17.3162 11.3553 16.8233 11.3879L16.7414 10.9843C17.1662 10.9679 17.5425 10.9194 17.8652 10.8412C17.6803 10.5644 17.5611 10.2916 17.5104 10.028C17.057 10.5052 16.5673 10.8451 16.0453 11.0489L15.9649 10.6541C16.6386 10.3558 17.232 9.84737 17.7452 9.12887L16.8148 8.83387ZM17.8364 9.91313C17.8909 10.178 18.0227 10.4506 18.2329 10.7271C18.5348 10.6088 18.7767 10.4547 18.9536 10.2674L17.8364 9.91313ZM19.4219 8.30093C19.6221 8.58263 19.7792 8.85483 19.8943 9.11374L19.5528 9.29081C19.4631 9.04417 19.3149 8.77057 19.1017 8.46377L19.4219 8.30093Z" fill="white"/>
<path d="M22.4215 9.89809L22.6952 10.0989C22.4269 10.4085 22.1271 10.6187 21.7918 10.7285L21.5854 10.4296C21.9264 10.3297 22.2045 10.1551 22.4215 9.89809ZM23.2097 10.078C23.4259 10.4333 23.5807 10.7392 23.679 10.9928L23.3319 11.116C23.2387 10.843 23.0909 10.5266 22.894 10.1764L23.2097 10.078ZM21.0817 8.8643C21.3127 9.13244 21.5001 9.39317 21.6461 9.63876L21.3331 9.82063C21.2121 9.58994 21.0247 9.32921 20.7707 9.03844L21.0817 8.8643ZM20.7491 9.74447C20.9675 10.0134 21.1395 10.27 21.2728 10.5164L20.9646 10.6954C20.8514 10.4668 20.6756 10.2091 20.4409 9.92349L20.7491 9.74447ZM20.9424 10.9668L21.2122 11.1666C20.8975 11.6046 20.5677 12.0055 20.223 12.3693L19.9227 12.1283C20.2927 11.7629 20.6358 11.3738 20.9424 10.9668ZM21.9728 11.3723L21.3078 11.1961L21.397 10.8597L22.3713 11.1179L22.4748 10.7274L22.8306 10.8217L22.727 11.2122L23.7091 11.4725L23.62 11.8089L22.9433 11.6296C23.0294 11.9917 23.2214 12.3447 23.5249 12.6983L23.2161 12.9268C22.9119 12.482 22.735 12.0254 22.6804 11.5599L22.6379 11.5486L22.27 12.9367L21.9142 12.8424L22.2822 11.4543L22.2435 11.4441C21.9174 11.8625 21.4881 12.1708 20.9566 12.3651L20.8491 12.0056C21.3127 11.8802 21.6873 11.6691 21.9728 11.3723ZM24.101 9.75978L23.8991 10.5215L23.5512 10.4292L23.6649 10.0001L22.157 9.60038L22.0391 10.045L21.695 9.95381L21.901 9.17665L24.101 9.75978Z" fill="white"/>
<path d="M24.3118 10.7368L24.7812 10.8371L24.9902 9.85919L25.354 9.93696L25.1449 10.9149L25.583 11.0085L25.5061 11.3684L25.068 11.2747L24.8146 12.46C24.9962 12.4333 25.1747 12.4019 25.3541 12.3667L25.2746 12.7383C24.8349 12.8242 24.3729 12.8809 23.8901 12.9004L23.8804 12.5057C24.0632 12.512 24.2445 12.5058 24.4266 12.4956L24.7042 11.197L24.2348 11.0966L24.3118 10.7368ZM26.7972 10.495L27.1375 10.5677L26.4786 13.6501L26.1383 13.5773L26.7972 10.495ZM27.6127 10.4689L27.9608 10.5433L27.2057 14.0755L26.8576 14.0011L27.6127 10.4689ZM26.069 10.1512L26.4211 10.2264L26.0866 11.7911C25.8848 12.6969 25.54 13.3145 25.0602 13.6455L24.8313 13.3388C25.2563 13.0534 25.5561 12.5121 25.7345 11.7158L26.069 10.1512Z" fill="white"/>
<path d="M28.2722 11.1784L29.8627 11.4406C29.7913 11.2343 29.6943 11.0359 29.5723 10.8414L29.97 10.7651C30.0809 10.978 30.178 11.2251 30.2574 11.5057L31.7532 11.7523L31.692 12.1233L31.0882 12.0238C30.7998 12.5924 30.437 13.0475 29.999 13.3928C30.3541 13.796 30.821 14.1608 31.3924 14.482L31.1311 14.7632C30.5347 14.4217 30.0547 14.0385 29.6949 13.6143C29.1838 13.9354 28.5871 14.137 27.9047 14.2191L27.758 13.8544C28.4247 13.7941 28.9926 13.6201 29.4702 13.3299C29.1076 12.8242 28.8883 12.2611 28.8149 11.649L28.211 11.5494L28.2722 11.1784ZM29.174 11.7082C29.2598 12.2209 29.4579 12.6914 29.7729 13.1164C30.1505 12.8178 30.4616 12.4313 30.7014 11.96L29.174 11.7082Z" fill="white"/>
<path d="M33.226 11.2542L33.5593 11.4637C33.3848 11.773 33.1726 12.0616 32.9231 12.3255L32.6063 14.9424L32.233 14.8972L32.4965 12.7211C32.3135 12.8682 32.119 13.0098 31.9136 13.1421L31.8421 12.7346C32.4344 12.3349 32.8969 11.8429 33.226 11.2542ZM34.6719 15.1199L33.9294 15.03C33.6117 14.9916 33.4721 14.8135 33.5105 14.4958L33.6451 13.384C33.493 13.4421 33.337 13.4998 33.1774 13.553L33.0499 13.1749C33.2759 13.1056 33.4944 13.0313 33.6985 12.9432L33.8855 11.3985L34.2627 11.4441L34.1041 12.7546C34.5245 12.5436 34.9055 12.2915 35.2393 11.9975L35.4653 12.3271C35.041 12.6705 34.5698 12.9681 34.0488 13.2112L33.894 14.4899C33.8806 14.6011 33.9334 14.6639 34.0605 14.6793L34.6521 14.7509C34.7435 14.7619 34.8148 14.7384 34.8657 14.6841C34.9126 14.6293 34.9659 14.4222 35.0181 14.0578L35.3536 14.2153C35.2705 14.6686 35.1852 14.9403 35.1022 15.027C35.0152 15.1132 34.8705 15.144 34.6719 15.1199Z" fill="white"/>
<path d="M37.4241 13.3483L36.6825 13.2877L36.5583 14.8066C36.5505 14.9023 36.5981 14.9583 36.7057 14.9671L37.3994 15.0239C37.519 15.0336 37.5974 15.0079 37.6302 14.9504C37.6673 14.8892 37.7023 14.7556 37.7349 14.5536L38.0799 14.7022C38.0196 15.0465 37.9545 15.2539 37.8769 15.3197C37.8079 15.3783 37.6737 15.3995 37.4824 15.3838L36.5136 15.3046C36.2624 15.2841 36.1486 15.1543 36.1682 14.9151L36.323 13.0215L36.116 13.1972L35.9179 12.8719C36.325 12.5561 36.7054 12.1738 37.0588 11.7291L37.3379 11.752C37.6587 12.1474 37.9623 12.5575 38.2407 12.9816L37.9723 13.2205C37.6666 12.738 37.4122 12.364 37.2009 12.102C36.9685 12.392 36.7131 12.6681 36.4269 12.9296L37.8222 13.0437L37.7322 14.144C37.7103 14.363 37.5813 14.4688 37.3408 14.4652C37.1853 14.4525 37.0381 14.4364 36.8992 14.4171L36.8365 14.0548C36.9827 14.0828 37.1097 14.1012 37.2213 14.1103C37.313 14.1178 37.3647 14.0739 37.3719 13.9862L37.4241 13.3483ZM38.4869 12.179L38.8577 12.2093L38.6565 14.6691L38.2857 14.6388L38.4869 12.179ZM38.9073 15.5284L38.3053 15.4792L38.2473 15.1092C38.4413 15.1412 38.628 15.1645 38.8035 15.1788C38.8991 15.1866 38.9519 15.1307 38.9613 15.0151L39.2163 11.8975L39.595 11.9285L39.3322 15.1418C39.3094 15.4208 39.1664 15.5496 38.9073 15.5284Z" fill="white"/>
<path d="M40.7498 12.5214L40.1266 12.4904L40.1424 12.1708L41.4608 12.2362C41.4322 12.1667 41.4034 12.1012 41.3742 12.0437L41.7889 12.0002C41.8171 12.0777 41.8489 12.1633 41.8763 12.2568L43.2586 12.3254L43.2427 12.645L42.6075 12.6135L42.4798 12.8474L43.4186 12.894L43.4024 13.2216L39.9107 13.0484L39.9269 12.7208L40.8338 12.7658L40.7498 12.5214ZM41.2293 12.7854L42.0843 12.8278L42.212 12.5939L41.1453 12.541L41.2293 12.7854ZM40.3178 13.2368L42.9786 13.3688L42.9168 14.6152L40.256 14.4833L40.3178 13.2368ZM42.5595 14.3092L42.5694 14.1094L40.6518 14.0143L40.6418 14.2141L42.5595 14.3092ZM40.6652 13.7427L42.5829 13.8377L42.5926 13.642L40.6749 13.5469L40.6652 13.7427ZM40.0965 14.6316L40.4603 14.7257C40.3528 15.0368 40.2114 15.3021 40.0362 15.5257L39.7187 15.3057C39.8892 15.0979 40.0123 14.8757 40.0965 14.6316ZM42.091 15.6796L41.1162 15.6313C40.8086 15.6161 40.6637 15.4687 40.6772 15.197L40.7026 14.6857L41.0861 14.7047L41.0647 15.1362C41.0598 15.236 41.1171 15.2909 41.241 15.2971L42.036 15.3365C42.1079 15.3401 42.1606 15.3267 42.19 15.3001C42.2317 15.2661 42.2648 15.1636 42.2895 14.9886L42.6433 15.1223C42.5975 15.4004 42.5331 15.5694 42.4424 15.621C42.3641 15.6652 42.2469 15.6874 42.091 15.6796ZM41.6815 14.57C41.8334 14.7377 41.9463 14.8835 42.0241 15.0115L41.6975 15.2156C41.6122 15.0792 41.4957 14.9252 41.3478 14.7577L41.6815 14.57ZM42.9238 14.7157C43.1307 14.9863 43.2872 15.2223 43.3935 15.4198L43.067 15.6239C42.9539 15.402 42.8017 15.1582 42.6067 14.8922L42.9238 14.7157Z" fill="white"/>
<path d="M45.6698 12.1239C45.7229 12.2532 45.7716 12.3983 45.8239 12.5596L47.2115 12.5914L47.2033 12.9513L46.5314 12.9359C46.4873 13.1149 46.4273 13.2896 46.3515 13.4559L47.2752 13.4771L47.2668 13.845L44.4275 13.7799L44.4151 14.3197C44.3848 14.9432 44.2333 15.4438 43.9526 15.8175L43.6666 15.5549C43.8895 15.2559 44.011 14.8426 44.0312 14.3109L44.0521 13.4032L44.8598 13.4217L44.7319 12.8946L44.0201 12.8783L44.0284 12.5184L45.436 12.5507C45.387 12.4175 45.3299 12.2922 45.2685 12.1787L45.6698 12.1239ZM45.2357 13.4303L45.9876 13.4476C46.0634 13.2813 46.1234 13.1066 46.1675 12.9276L45.1038 12.9031L45.2357 13.4303Z" fill="white"/>
<path d="M49.0083 12.251L49.3883 12.2515L49.3839 15.3955L49.8639 15.3962L49.8683 12.2522L50.2483 12.2527L50.2439 15.3967L51.4119 15.3983L51.4114 15.7703L47.8434 15.7654L47.8439 15.3934L49.0039 15.395L49.0083 12.251ZM50.9952 12.9977L51.3311 13.0942C51.1781 13.782 50.9813 14.3817 50.7406 14.8974L50.4008 14.7769C50.6254 14.3132 50.8262 13.7175 50.9952 12.9977ZM48.2512 12.9859C48.4545 13.5222 48.6336 14.1345 48.7927 14.8227L48.4446 14.9102C48.3094 14.282 48.1343 13.6738 47.9271 13.0895L48.2512 12.9859Z" fill="white"/>
<path d="M52.4564 15.847L52.1126 15.8592L52.02 15.5063C52.1245 15.5186 52.2207 15.5232 52.3167 15.5198C52.4086 15.5165 52.4547 15.4628 52.451 15.3589L52.4205 14.4994C52.2786 14.5605 52.1364 14.6136 51.9942 14.6667L51.8895 14.3102C52.0639 14.264 52.238 14.2057 52.4076 14.1357L52.3768 13.2682L51.9251 13.2843L51.9121 12.9205L52.3639 12.9045L52.339 12.2049L52.7068 12.1918L52.7316 12.8914L53.1234 12.8775L53.1363 13.2412L52.7445 13.2552L52.77 13.9707C52.9036 13.9019 53.033 13.8253 53.1623 13.7486L53.1755 14.1204C53.046 14.1931 52.9164 14.2617 52.7827 14.3305L52.8222 15.4418C52.8314 15.7016 52.7082 15.8381 52.4564 15.847ZM53.6524 14.0234C53.6224 14.7569 53.4758 15.3625 53.2126 15.8402L52.9198 15.5984C53.1869 15.1166 53.3115 14.4558 53.2977 13.6158L53.2511 12.3046L55.3738 12.2292L55.3864 12.585L53.6235 12.6476L53.6575 13.603C53.6583 13.627 53.655 13.6471 53.6559 13.6711L55.4587 13.607L55.4712 13.9588L54.7637 13.9839C54.7822 14.1674 54.8243 14.338 54.8901 14.4998C55.0306 14.3987 55.1659 14.2658 55.2919 14.0933L55.5443 14.3245C55.3909 14.514 55.2163 14.6683 55.0241 14.7792C55.1734 15.0381 55.3858 15.2707 55.6611 15.473L55.4066 15.7462C54.8334 15.2703 54.5124 14.6853 54.4479 13.9952L54.204 14.0038L54.2506 15.315C54.4088 15.2613 54.5627 15.1998 54.7126 15.1385L54.8077 15.4473C54.5478 15.5686 54.2354 15.6758 53.8708 15.7768L53.7556 15.4647C53.8578 15.413 53.9068 15.3272 53.9029 15.2153L53.8603 14.016L53.6524 14.0234ZM53.8115 12.9811L55.2586 12.9297L55.2708 13.2735L53.8237 13.3249L53.8115 12.9811Z" fill="white"/>
<path d="M55.867 13.8489L58.0824 13.7061C58.3353 13.1527 58.537 12.5505 58.6914 11.8992L59.0756 12.0147C58.8943 12.6837 58.6935 13.2378 58.4815 13.6804L59.5074 13.6142L59.5311 13.9815L55.8906 14.2161L55.867 13.8489ZM56.3552 12.2822C56.5734 12.6209 56.782 12.9963 56.9849 13.4081L56.637 13.6069C56.4413 13.1826 56.2324 12.8032 56.0107 12.4728L56.3552 12.2822ZM57.3018 11.9807C57.5175 12.3436 57.7237 12.7432 57.9241 13.1792L57.5842 13.3775C57.3832 12.9335 57.1728 12.5302 56.9536 12.1755L57.3018 11.9807ZM56.9625 14.3034L57.3165 14.4489C57.0747 14.9254 56.7808 15.3412 56.4312 15.7004L56.1015 15.4972C56.4441 15.1545 56.7313 14.7592 56.9625 14.3034ZM58.4977 14.1804C58.9249 14.5897 59.2525 14.9454 59.4886 15.2508L59.1608 15.5125C58.9186 15.1753 58.5943 14.8074 58.1875 14.4048L58.4977 14.1804Z" fill="white"/>
<path d="M60.1647 13.0678L60.3765 11.8765L60.7607 11.9067L60.6187 12.6622L61.2084 12.61C61.258 12.3085 61.2903 11.9924 61.3092 11.6614L61.6999 11.6751C61.6799 11.9941 61.6463 12.2942 61.6028 12.5751L63.4277 12.4136L63.4598 12.7762L61.5393 12.9462C61.5111 13.0812 61.4782 13.2086 61.4489 13.3316L63.0427 13.1906L63.0709 13.5093C62.9962 13.8452 62.8271 14.1574 62.5555 14.4464C62.8731 14.587 63.2534 14.7099 63.6925 14.8156L63.529 15.1915C63.0313 15.0589 62.6076 14.8996 62.2626 14.7213C61.9672 14.9683 61.5983 15.2017 61.156 15.4216L60.9251 15.0806C61.3108 14.9019 61.6394 14.7122 61.9071 14.5158C61.6298 14.3316 61.4148 14.1257 61.2665 13.9019C61.0318 14.517 60.7108 15.0193 60.3075 15.4083L60.0813 15.075C60.5881 14.5402 60.94 13.8425 61.1369 12.9818L60.1647 13.0678ZM61.5231 13.6704C61.6754 13.8939 61.9019 14.0947 62.2025 14.2689C62.4355 14.0434 62.5994 13.8081 62.6905 13.5671L61.5231 13.6704ZM62.3654 11.572C62.6587 11.7549 62.9084 11.9456 63.1144 12.1402L62.8674 12.4351C62.6897 12.242 62.4475 12.0466 62.1326 11.8456L62.3654 11.572Z" fill="white"/>
<path d="M64.627 12.8638L65.1758 12.8045L65.1415 12.4864L64.4773 12.5582L64.51 12.8604C64.5358 13.099 64.5448 13.3314 64.5441 13.5487L65.248 13.4726L65.2119 13.1386L64.6631 13.1979L64.627 12.8638ZM64.5334 13.8959C64.5047 14.3375 64.4239 14.7446 64.2907 15.113L63.9549 14.8717C64.1513 14.3435 64.2093 13.6895 64.1282 12.9017L63.9838 11.5654L67.0261 11.2367L67.1378 12.2706L66.5851 12.3304L66.6194 12.6485L67.216 12.5841L67.2521 12.9181L66.6555 12.9826L66.6916 13.3166L67.4234 13.2376L67.4603 13.5796L67.0626 13.6225L67.3178 13.8243C67.2109 13.9887 67.089 14.1266 66.9561 14.2376C67.1714 14.331 67.4111 14.3896 67.6791 14.4129L67.5389 14.7901C66.8028 14.6806 66.2504 14.3339 65.8775 13.7506L65.3844 13.8039L65.4661 14.5595C65.6982 14.4741 65.9017 14.3837 66.0725 14.2888L66.1815 14.627C65.8714 14.7732 65.4999 14.9099 65.0671 15.0371L64.928 14.7182C65.0422 14.6576 65.0928 14.5677 65.079 14.4404L65.0146 13.8439L64.5334 13.8959ZM66.2593 13.7094C66.3707 13.8462 66.4958 13.9614 66.6351 14.059C66.7763 13.9512 66.9017 13.8089 67.0109 13.6281L66.2593 13.7094ZM66.2192 12.3699L65.5033 12.4473L65.5377 12.7654L66.2536 12.6881L66.2192 12.3699ZM65.6099 13.4335L66.3258 13.3562L66.2897 13.0221L65.5738 13.0995L65.6099 13.4335ZM66.6817 11.6239L64.403 11.8702L64.4408 12.2201L66.7195 11.9739L66.6817 11.6239Z" fill="white"/>
<path d="M67.8412 11.3444L69.5478 11.1303L69.5941 11.4994L69.0186 11.5716L69.1143 12.3336L69.531 12.2813L69.5609 12.5194C69.7596 12.0148 69.863 11.4253 69.8746 10.7466L70.2491 10.7439C70.2423 10.9463 70.2265 11.1418 70.2058 11.3299L71.3726 11.1834L71.4189 11.5525L71.157 11.5854C71.2049 12.2244 71.1253 12.7787 70.9102 13.2491C71.1813 13.5457 71.483 13.7658 71.8116 13.91L71.6371 14.2544C71.3041 14.1067 70.9979 13.8831 70.7268 13.5866C70.4973 13.9419 70.1804 14.2437 69.7841 14.491L69.5151 14.2103C69.9436 13.963 70.2674 13.6523 70.4796 13.287C70.29 13.0286 70.1201 12.7355 69.9662 12.4081C69.9067 12.5768 69.8388 12.7426 69.7615 12.8974L69.5163 12.646L69.1591 12.6908L69.2737 13.6036C69.4572 13.5242 69.6323 13.4417 69.7994 13.3603L69.8433 13.7095C69.381 13.9449 68.8373 14.1744 68.2128 14.402L68.0663 14.0696C68.1437 14.0438 68.2166 14.0145 68.294 13.9886L68.0668 12.1788L68.4201 12.1345L68.6367 13.861C68.7369 13.8242 68.8292 13.7884 68.9215 13.7527L68.6535 11.6174L67.8875 11.7135L67.8412 11.3444ZM70.6476 12.9233C70.7849 12.5392 70.8318 12.11 70.7879 11.6317L70.1449 11.7124C70.1296 11.7829 70.1182 11.8529 70.1024 11.9193C70.2633 12.3023 70.4426 12.6386 70.6476 12.9233Z" fill="white"/>
<path d="M71.8351 11.6787L73.4037 11.4582L73.3703 11.2206L73.7189 11.1716L73.4895 11.0624C73.6281 10.7844 73.713 10.4978 73.7437 10.1986L74.1193 10.2266C74.1077 10.3171 74.0923 10.4082 74.0757 10.4913L75.2125 10.3315L75.2593 10.6642L74.5859 10.7589C74.6824 10.8705 74.7619 10.9765 74.8279 11.0722L74.5169 11.2452C74.4233 11.0968 74.3179 10.95 74.2017 10.8129L73.9878 10.8429C73.9422 10.9786 73.891 11.1029 73.8353 11.2239L73.7534 11.1869L73.784 11.4048L75.3526 11.1843L75.4004 11.5249L73.8319 11.7454L73.8642 11.9752L75.1634 11.7925L75.2714 12.561C75.3026 12.7828 75.1993 12.9104 74.9617 12.9438L74.6923 12.9817L74.5505 12.6623L74.8107 12.6459C74.8702 12.6376 74.8968 12.5975 74.8879 12.5341L74.8373 12.1736L73.9104 12.3039L73.9555 12.6248C74.4277 12.9381 75.0189 13.1499 75.7382 13.2669L75.5886 13.6393C74.9961 13.5045 74.4688 13.2878 74.0056 12.9813L74.1375 13.9201L73.7573 13.9735L73.627 13.0466C73.2832 13.4746 72.8723 13.8273 72.4027 14.1074L72.1296 13.8024C72.7096 13.5028 73.1935 13.1237 73.5741 12.6703L73.5301 12.3574L72.6666 12.4788L72.7729 13.2353L72.4046 13.2871L72.252 12.2018L73.4839 12.0286L73.4516 11.7989L71.883 12.0194L71.8351 11.6787ZM72.3202 11.0774C72.2525 11.2282 72.1798 11.3718 72.0935 11.5051L71.7403 11.3487C71.9486 11.0488 72.0828 10.7391 72.1429 10.4196L72.5145 10.4482C72.4956 10.5437 72.4722 10.6359 72.4477 10.7201L73.3944 10.5871L73.4411 10.9198L72.8589 11.0016C72.9553 11.1133 73.0428 11.2181 73.1133 11.3173L72.7899 11.488C72.6963 11.3395 72.5869 11.1933 72.4707 11.0562L72.3202 11.0774Z" fill="white"/>
<path d="M77.1003 10.4078L77.5245 13.1593L77.1648 13.2148L77.1331 13.0092L76.5085 13.1055L76.5578 13.4257L76.1981 13.4812L75.7562 10.615L76.1318 10.5571C76.17 10.3327 76.1918 10.1067 76.1881 9.87256L76.5716 9.86605C76.5656 10.0896 76.5374 10.3003 76.4915 10.5017L77.1003 10.4078ZM76.4548 12.7576L77.0794 12.6613L76.9594 11.8825L76.3348 11.9788L76.4548 12.7576ZM76.2829 11.6428L76.9076 11.5465L76.7954 10.8191L76.1708 10.9154L76.2829 11.6428ZM77.9582 11.2469C78.2691 11.5308 78.514 11.7804 78.6901 12.0042L78.4259 12.2594C78.2355 12.0217 77.9854 11.7648 77.683 11.4836L77.9582 11.2469ZM79.1408 10.0973C79.3511 11.4612 79.4612 12.3063 79.4704 12.6286C79.4747 12.9193 79.3069 13.0909 78.9709 13.1427C78.8918 13.1549 78.7483 13.1689 78.5488 13.1876L78.4048 12.8576C78.58 12.8387 78.7314 12.8235 78.858 12.804C79.0161 12.7796 79.0942 12.6826 79.0923 12.5129C79.0856 12.3115 78.995 11.6456 78.8292 10.5177L77.837 10.6706C77.7628 10.9249 77.6699 11.1618 77.5501 11.3827L77.2791 11.1209C77.4815 10.7012 77.592 10.2106 77.6028 9.65041L77.9817 9.64056C77.9763 9.86803 77.9526 10.0821 77.9193 10.2856L79.1408 10.0973Z" fill="white"/>
<path d="M79.9175 9.33895C80.2207 9.50328 80.4805 9.67486 80.6962 9.84973L80.4753 10.1542C80.2846 9.98331 80.0281 9.80714 79.7019 9.62637L79.9175 9.33895ZM82.7762 12.4954C82.5592 12.5316 82.3218 12.5672 82.0686 12.6054C81.8115 12.6443 81.5984 12.6555 81.4261 12.6437C81.2604 12.6227 81.1065 12.551 80.9658 12.4366C80.8994 12.3788 80.8467 12.3551 80.7994 12.363C80.7165 12.3769 80.6041 12.5781 80.4622 12.9668L80.1432 12.7564C80.2871 12.4039 80.4311 12.1731 80.5757 12.0678L80.3894 10.9513L79.8607 11.0395L79.8027 10.6923L80.6826 10.5455L80.9315 12.0368C80.9539 12.0493 80.9769 12.0658 81.0006 12.0861C81.1091 12.1775 81.2169 12.2406 81.3241 12.2755C81.4517 12.3109 81.6312 12.3175 81.8653 12.2865C82.0909 12.2529 82.3559 12.2127 82.6636 12.1614C82.857 12.1291 83.0536 12.0922 83.2502 12.0554C83.4468 12.0185 83.5994 11.9849 83.7046 11.9593L83.6757 12.3453L82.7762 12.4954ZM81.5688 9.46483L80.8073 9.59192L80.7553 9.28023L82.9213 8.91871L82.9654 9.18306C82.7695 9.41852 82.5526 9.62506 82.3159 9.81055C82.3251 9.81713 82.3336 9.81975 82.3428 9.82633L83.1359 9.69397L83.4283 11.4457C83.4671 11.6785 83.3567 11.8186 83.1002 11.8614L82.7964 11.9121L82.6655 11.6136L82.9482 11.5826C83.035 11.5681 83.0751 11.5168 83.0607 11.43L83.0271 11.2288L82.4589 11.3236L82.5669 11.9707L82.2237 12.028L82.1157 11.3809L81.5594 11.4738L81.6687 12.1287L81.3136 12.188L80.958 10.0575L81.8654 9.90601C81.7208 9.84094 81.5596 9.77456 81.3834 9.71476L81.5688 9.46483ZM82.0574 9.6712C82.2093 9.56069 82.3474 9.44032 82.4723 9.31403L81.5885 9.46154C81.7542 9.5312 81.9114 9.59824 82.0574 9.6712ZM81.4626 10.8938L81.5087 11.17L82.065 11.0771L82.0189 10.801L81.4626 10.8938ZM82.3621 10.7437L82.4082 11.0198L82.9764 10.925L82.9303 10.6488L82.3621 10.7437ZM82.8789 10.3411L82.8328 10.0649L82.2647 10.1597L82.3108 10.4359L82.8789 10.3411ZM81.9675 10.4932L81.9214 10.217L81.3651 10.3099L81.4112 10.5861L81.9675 10.4932Z" fill="white"/>
<path d="M86.9248 8.48379L87.4738 11.5551L87.1116 11.6199L87.0714 11.3954L86.3824 11.5186L86.4232 11.747L86.0609 11.8117L85.5112 8.73648L86.9248 8.48379ZM86.3197 11.1681L87.0088 11.045L86.6252 8.89899L85.9361 9.02217L86.3197 11.1681ZM84.1814 9.45774C84.126 9.67081 84.056 9.87024 83.9753 10.0553L83.6112 9.90506C83.797 9.48988 83.9071 9.0598 83.9374 8.61554L84.3216 8.62813C84.3089 8.78479 84.2863 8.93106 84.263 9.07338L85.338 8.88122L85.402 9.23954L84.8665 9.33527C84.9023 9.58081 84.9313 9.8113 84.945 10.0242L85.5592 9.91441L85.6233 10.2727L84.9578 10.3917C84.9576 10.4811 84.9534 10.5713 84.9517 10.6528C85.2355 10.854 85.5282 11.0821 85.8337 11.3363L85.6673 11.7236C85.3612 11.4208 85.1079 11.1857 84.9073 11.0184C84.8158 11.4614 84.5989 11.8618 84.248 12.2171L83.9503 11.9615C84.3057 11.5851 84.5072 11.1671 84.5584 10.7028C84.5607 10.6252 84.5663 10.5429 84.568 10.4614L83.7923 10.6L83.7283 10.2417L84.5591 10.0932C84.5454 9.88028 84.5164 9.64979 84.4806 9.40425L84.1814 9.45774Z" fill="white"/>
<path d="M87.686 7.9152L88.8493 9.59507L88.3858 11.5851L88.0445 11.5036L88.472 9.66699L87.3987 8.11659L87.686 7.9152ZM88.3579 7.7871L89.5211 9.46696L89.0577 11.457L88.7164 11.3755L89.1439 9.53888L88.0549 7.99148L88.3579 7.7871Z" fill="white"/>
</svg>
