<svg width="67" height="42" viewBox="0 0 67 42" fill="none" xmlns="http://www.w3.org/2000/svg">
<path d="M2.90662 5.07588L3.26532 5.00538L3.59305 6.86903L5.19601 7.8622L5.01289 8.16154L3.27589 7.08552L2.90662 5.07588ZM3.47156 4.69025L3.81704 4.62878L4.15798 6.4834L5.76094 7.47658L5.57783 7.77592L3.84082 6.69989L3.47156 4.69025Z" fill="white"/>
<path d="M6.32009 3.82036L6.65691 3.77811C6.67485 4.18738 6.60153 4.54615 6.43342 4.85635L6.07816 4.78111C6.25712 4.47411 6.33904 4.15621 6.32009 3.82036ZM7.01627 3.40929C7.41748 3.51871 7.74016 3.63447 7.9859 3.75114L7.81842 4.07921C7.56311 3.94498 7.23821 3.81677 6.85456 3.69778L7.01627 3.40929ZM4.63634 3.99044C4.98843 4.02641 5.3038 4.08694 5.57862 4.165L5.47625 4.51227C5.22985 4.42784 4.91448 4.36731 4.53015 4.33068L4.63634 3.99044ZM4.99974 4.85835C5.34321 4.90357 5.64453 4.97175 5.91071 5.05906L5.80995 5.4009C5.57057 5.31265 5.26575 5.24638 4.89897 5.20019L4.99974 4.85835ZM5.98029 5.6133L6.31359 5.57296C6.38605 6.1074 6.42213 6.62522 6.42183 7.12642L6.03809 7.15779C6.05564 6.63808 6.03744 6.11964 5.98029 5.6133ZM7.00752 5.19955L6.40333 5.52864L6.23687 5.22303L7.12208 4.74088L6.92884 4.3861L7.25202 4.21008L7.44526 4.56486L8.3375 4.07889L8.50395 4.3845L7.88922 4.71932C8.20067 4.92319 8.58272 5.0476 9.04622 5.09577L8.97895 5.47402C8.45228 5.36005 8.00995 5.15004 7.65035 4.84943L7.61171 4.87047L8.29858 6.13155L7.9754 6.30757L7.28854 5.04649L7.25341 5.06563C7.30417 5.59367 7.20425 6.11269 6.95175 6.61916L6.62656 6.43189C6.87709 6.02214 7.00408 5.61136 7.00752 5.19955ZM7.44488 2.56549L7.82179 3.25751L7.50565 3.4297L7.29327 3.03979L5.9233 3.78596L6.14333 4.18993L5.83069 4.36021L5.44613 3.65415L7.44488 2.56549Z" fill="white"/>
<path d="M8.7168 2.96875L9.18795 2.877L8.9968 1.89544L9.36194 1.82433L9.55309 2.80589L9.99283 2.72025L10.0632 3.08147L9.62343 3.1671L9.85511 4.35675C10.0117 4.26106 10.1636 4.1622 10.3147 4.05941L10.3874 4.4324C10.0166 4.68391 9.6138 4.91722 9.17737 5.12446L9.01366 4.76513C9.18422 4.69931 9.34857 4.62248 9.51215 4.54172L9.25829 3.23821L8.78715 3.32997L8.7168 2.96875ZM10.9084 1.77175L11.25 1.70522L11.8525 4.7991L11.5109 4.86562L10.9084 1.77175ZM11.6483 1.42797L11.9978 1.35992L12.6882 4.90531L12.3388 4.97336L11.6483 1.42797ZM10.1037 1.741L10.457 1.67219L10.7629 3.24268C10.9324 4.1551 10.8575 4.8584 10.5459 5.35104L10.2151 5.15874C10.4941 4.72947 10.5577 4.11398 10.4095 3.3115L10.1037 1.741Z" fill="white"/>
<path d="M13.0178 1.69237L14.5919 1.76969C14.5391 1.62292 14.4818 1.48394 14.4198 1.36075L14.8304 1.31684C14.8835 1.45962 14.9318 1.61818 14.9795 1.78872L16.5815 1.86741L16.5637 2.23097L14.9736 2.15287L14.9522 2.58835L16.2506 2.65212L16.1778 4.13434C16.1653 4.39003 16.023 4.5152 15.7593 4.50225L15.3558 4.48243L15.2775 4.11815L15.6561 4.15677C15.752 4.16148 15.8023 4.11589 15.8066 4.028L15.8572 2.99724L14.9343 2.95191L14.8315 5.04538L14.448 5.02655L14.5508 2.93307L13.6759 2.89009L13.6005 4.42425L13.2289 4.406L13.3222 2.50828L14.5687 2.56951L14.59 2.13403L13 2.05593L13.0178 1.69237Z" fill="white"/>
<path d="M18.7978 2.38762L17.4736 2.1822L17.5294 1.8225L20.5612 2.29283L20.5054 2.65253L19.1772 2.44649L18.8044 4.84974L20.3816 5.09441L20.3251 5.45806L16.7875 4.90924L16.8439 4.54559L18.425 4.79088L18.7978 2.38762Z" fill="white"/>
<path d="M22.8611 2.8312L23.2139 2.97246L22.0452 5.89116L22.4908 6.06959L23.6595 3.15089L24.0123 3.29215L22.8435 6.21085L23.9278 6.64504L23.7895 6.99038L20.4772 5.66403L20.6155 5.31868L21.6924 5.7499L22.8611 2.8312ZM24.4301 4.2609L24.7063 4.47492C24.3095 5.05711 23.9045 5.54126 23.4899 5.93106L23.2188 5.69327C23.5993 5.34579 24.0065 4.86685 24.4301 4.2609ZM21.8857 3.23343C21.8758 3.80685 21.8154 4.44191 21.7082 5.14008L21.3524 5.09241C21.4596 4.45886 21.5223 3.829 21.5463 3.20953L21.8857 3.23343Z" fill="white"/>
<path d="M26.0671 4.26319C26.2007 4.55395 26.2938 4.82727 26.3571 5.07992L26.0027 5.18821C25.9586 4.9505 25.864 4.67176 25.7204 4.35741L26.0671 4.26319ZM25.0739 5.0217L25.8618 5.44847L25.0558 6.93621C25.2144 6.90383 25.3876 6.86119 25.579 6.81019L25.4799 7.21144C25.137 7.29863 24.7914 7.35709 24.4451 7.38331L24.4824 7.01225C24.5653 6.99349 24.6313 6.94733 24.6713 6.87347L25.3648 5.59325L24.9005 5.34175L25.0739 5.0217ZM26.1028 6.12041L27.8086 7.04445L27.6428 7.35044C27.3713 7.60821 27.0577 7.78406 26.7001 7.8815C26.8452 8.15116 27.0471 8.43341 27.3027 8.71743L26.9671 8.90867C26.6916 8.57746 26.4873 8.25754 26.3434 7.95213C25.9623 8.00047 25.5355 7.97394 25.0697 7.87632L25.0357 7.49397C25.4676 7.5869 25.8549 7.6193 26.1996 7.58765C26.0862 7.22597 26.06 6.87967 26.128 6.55258L25.9275 6.44398L26.1028 6.12041ZM26.441 6.72215C26.4057 6.98051 26.4381 7.24826 26.5398 7.5308C26.823 7.46135 27.0756 7.34793 27.2957 7.18512L26.441 6.72215ZM27.0844 4.89617L28.3295 5.57063L27.9294 6.30922C27.8875 6.3866 27.9068 6.45166 27.9947 6.4993L28.3042 6.66696L28.1385 6.97295L27.7411 6.75765C27.4913 6.62238 27.433 6.43612 27.5588 6.20399L27.8293 5.70456L27.2455 5.38829L27.1883 5.4938C26.9902 5.85958 26.6494 6.04349 26.1715 6.04391L26.089 5.66713C26.4569 5.69352 26.7091 5.58904 26.8386 5.34988L27.0844 4.89617Z" fill="white"/>
<path d="M29.6658 7.59506L30.5496 8.15828L31.1794 7.16992L31.51 7.38059L30.8801 8.36895L31.7167 8.90207L31.5146 9.21916L30.6781 8.68604L29.5194 10.5042L29.1888 10.2935L30.3475 8.47537L29.4637 7.91215L29.6658 7.59506ZM29.6623 6.24581C29.7763 6.55083 29.8565 6.83436 29.9008 7.09975L29.5396 7.18266C29.5057 6.93813 29.4277 6.65123 29.3 6.3232L29.6623 6.24581ZM28.5937 6.9403L29.3729 7.43688L28.4571 8.87388C28.621 8.85497 28.7968 8.82471 28.9858 8.78863L28.8616 9.16958C28.5167 9.23439 28.1679 9.26822 27.8206 9.26984L27.8819 8.90572C27.9693 8.89504 28.0362 8.85704 28.0792 8.78958L28.8703 7.54822L28.398 7.24726L28.5937 6.9403Z" fill="white"/>
<path d="M32.2148 9.38907L33.1483 8.61917L33.4212 8.89121L32.8234 9.37448L33.3063 9.71696C33.5395 9.51949 33.769 9.29971 33.9979 9.05994L34.2866 9.32355C34.0646 9.55354 33.8444 9.76027 33.6293 9.94605L35.1236 11.0059L34.913 11.3028L33.3404 10.1874C33.2314 10.2719 33.1238 10.3476 33.0218 10.4224L34.3268 11.348L34.1417 11.609C33.8671 11.8164 33.536 11.9444 33.1418 11.9885C33.2926 12.3014 33.5025 12.6416 33.7683 13.0066L33.4002 13.1869C33.1072 12.7633 32.8878 12.3674 32.7406 12.008C32.3556 12.0046 31.9234 11.9433 31.4441 11.824L31.4892 11.4147C31.8988 11.5286 32.2719 11.5971 32.6031 11.6211C32.5113 11.3011 32.4811 11.005 32.5132 10.7384C31.9358 11.0547 31.3658 11.2291 30.8066 11.264L30.8503 10.8635C31.5829 10.7848 32.3031 10.4815 33.0109 9.9537L32.2148 9.38907ZM32.8586 10.7284C32.8298 10.9973 32.8722 11.2971 32.9881 11.6245C33.3117 11.6039 33.589 11.5309 33.8146 11.4064L32.8586 10.7284ZM34.8602 9.67643C34.965 10.0058 35.0316 10.3129 35.0623 10.5946L34.683 10.6591C34.6729 10.3969 34.6151 10.0911 34.5056 9.73388L34.8602 9.67643Z" fill="white"/>
<path d="M35.8493 12.27L36.2877 12.6054L36.4821 12.3512L35.9515 11.9453L35.7668 12.1868C35.621 12.3774 35.4674 12.552 35.3171 12.7089L35.8794 13.1391L36.0835 12.8722L35.6451 12.5369L35.8493 12.27ZM35.0699 12.953C34.7447 13.2531 34.4056 13.4923 34.0551 13.6674L33.9782 13.2611C34.4845 13.0139 34.9775 12.5801 35.4618 11.9535L36.2784 10.886L38.7089 12.7452L38.077 13.5712L37.6354 13.2334L37.441 13.4876L37.9175 13.8521L37.7134 14.119L37.2368 13.7544L37.0327 14.0213L37.6173 14.4685L37.4083 14.7417L37.0905 14.4987L37.1363 14.8207C36.9455 14.8661 36.7621 14.882 36.5894 14.8707C36.6809 15.0868 36.8142 15.2945 36.9923 15.4962L36.6306 15.6728C36.1729 15.086 36.0117 14.454 36.1438 13.7744L35.7498 13.4731L35.2881 14.0767C35.5152 14.1749 35.7249 14.2497 35.914 14.2987L35.7597 14.6188C35.4344 14.5109 35.071 14.3539 34.6698 14.1477L34.7889 13.8208C34.9134 13.8556 35.012 13.8253 35.0898 13.7236L35.4544 13.2471L35.0699 12.953ZM36.4488 14.0078C36.4351 14.1836 36.4463 14.3533 36.4799 14.5201C36.6565 14.5394 36.8455 14.5227 37.0492 14.4671L36.4488 14.0078ZM37.3431 13.0098L36.7712 12.5724L36.5768 12.8265L37.1487 13.264L37.3431 13.0098ZM36.1685 13.3603L36.7404 13.7977L36.9445 13.5308L36.3727 13.0934L36.1685 13.3603ZM38.1924 12.7883L36.372 11.3957L36.1581 11.6753L37.9786 13.0678L38.1924 12.7883Z" fill="white"/>
<path d="M39.1442 14.9014L38.9078 15.1937C38.7686 15.1686 38.6319 15.1404 38.4922 15.1096L37.7778 15.9929C37.6092 16.2012 37.421 16.224 37.2158 16.0579L36.9639 15.8542L37.13 15.5152C37.1971 15.5849 37.2636 15.649 37.332 15.7043C37.4067 15.7647 37.4767 15.7545 37.5396 15.6767L38.0855 15.0019C37.9352 14.9523 37.7849 14.9028 37.634 14.8476L37.7914 14.5068C37.9621 14.5883 38.1373 14.6579 38.3169 14.7158L38.8527 14.0533L38.4733 13.7464L38.7022 13.4634L39.0816 13.7703L39.5193 13.2292L39.8179 13.4707L39.3802 14.0118L39.6943 14.2659L39.4654 14.5489L39.1513 14.2948L38.7211 14.8266C38.8609 14.8574 39.0057 14.8819 39.1442 14.9014ZM39.925 14.3496L40.5003 14.815L40.8852 14.3392L41.1807 14.5782L40.7958 15.054L41.4209 15.5596L41.1894 15.8457L40.5643 15.3401L40.2926 15.676C40.2348 15.7475 40.1707 15.814 40.1066 15.8805L40.8779 16.5044L40.6465 16.7905L39.9685 16.2421C39.7962 16.7921 39.7708 17.3324 39.8892 17.8603L39.5015 17.9325C39.4064 17.3823 39.4418 16.8296 39.6028 16.2807C39.149 16.5619 38.621 16.7058 38.0188 16.7126L37.9446 16.3336C38.5655 16.342 39.0929 16.1924 39.5269 15.8849L38.9204 15.3943L39.1519 15.1082L39.8112 15.6415C39.8778 15.5719 39.9419 15.5054 39.9972 15.437L40.2689 15.1011L39.6935 14.6357L39.925 14.3496Z" fill="white"/>
<path d="M44.0499 16.9867L44.3338 17.2272L44.0933 17.511L44.6946 18.0203L44.4697 18.2859L43.8684 17.7766L43.6228 18.0665L44.3401 18.6741L44.1074 18.9488L42.4226 17.5217L42.6553 17.247L43.339 17.8261L43.5846 17.5361L43.0108 17.0501L43.2357 16.7846L43.8095 17.2706L44.0499 16.9867ZM42.0997 17.8039L43.1863 18.7242L43.3647 18.5136L43.6546 18.7592L43.4763 18.9698L43.8364 19.2749L43.6063 19.5466L43.2462 19.2415L42.5998 20.0045C42.4292 20.206 42.2406 20.2244 42.0391 20.0538L41.6362 19.7126L41.81 19.3775C41.9304 19.4952 42.0443 19.6021 42.1603 19.7004C42.2366 19.765 42.3099 19.7589 42.3719 19.6857L42.9562 18.9959L41.8696 18.0755L42.0997 17.8039ZM40.3198 18.587L40.0512 18.3595L40.2254 18.03C40.2944 18.1095 40.3656 18.1802 40.4388 18.2422C40.5121 18.3043 40.5854 18.2982 40.6526 18.2189L41.1929 17.5809C41.0551 17.5271 40.9172 17.4732 40.7789 17.4137L40.9538 17.0587C41.114 17.1419 41.2763 17.2164 41.4437 17.2849L41.984 16.647L41.6361 16.3522L41.8713 16.0745L42.2193 16.3692L42.6614 15.8473L42.9452 16.0877L42.5031 16.6097L42.7962 16.8578L42.5609 17.1356L42.2679 16.8874L41.818 17.4185C41.9575 17.458 42.0966 17.4919 42.2356 17.5258L41.9848 17.8219C41.8458 17.788 41.7063 17.7485 41.5724 17.7085L40.8744 18.5326C40.7038 18.734 40.5151 18.7525 40.3198 18.587ZM42.1592 18.4886C42.1502 18.7902 42.1256 19.042 42.0856 19.2439L41.7222 19.2088C41.7639 18.9924 41.7906 18.732 41.8027 18.433L42.1592 18.4886Z" fill="white"/>
<path d="M45.7162 19.9355L46.5028 20.628L47.2772 19.7483L47.5715 20.0073L46.797 20.887L47.5416 21.5425L47.2931 21.8247L46.5486 21.1692L45.1239 22.7875L44.8297 22.5284L46.2543 20.9102L45.4677 20.2177L45.7162 19.9355ZM45.9204 18.6018C45.9861 18.9207 46.0217 19.2132 46.0246 19.4822L45.655 19.5086C45.6592 19.2617 45.6262 18.9663 45.5505 18.6225L45.9204 18.6018ZM44.7576 19.1235L45.4511 19.7341L44.3252 21.0131C44.4899 21.0196 44.6683 21.0168 44.8606 21.0102L44.6793 21.3675C44.3286 21.3785 43.9787 21.3582 43.6353 21.3064L43.7519 20.956C43.8399 20.9589 43.9119 20.9317 43.9647 20.8716L44.9374 19.7668L44.5171 19.3967L44.7576 19.1235Z" fill="white"/>
<path d="M50.1011 22.7578L50.3735 23.0052L48.7112 24.8349L48.4388 24.5874L50.1011 22.7578ZM48.4392 25.7172L48.0129 25.3299L48.1925 25.0013C48.3209 25.1396 48.4458 25.2638 48.5701 25.3768C48.653 25.4521 48.7351 25.451 48.8077 25.3711L50.9192 23.047L51.1975 23.2999L49.0214 25.695C48.8385 25.8963 48.6435 25.9028 48.4392 25.7172ZM49.4963 22.9L49.2933 23.2127L48.3427 22.5815C48.2335 22.7255 48.141 22.863 48.0652 22.9941C47.9866 23.1281 47.9162 23.2532 47.8624 23.3719C48.1831 23.3282 48.51 23.2361 48.8401 23.0929L48.9702 23.4434C48.5263 23.6346 48.0985 23.7485 47.6866 23.7796C47.6616 23.8488 47.6419 23.912 47.628 23.975C47.5726 24.2381 47.5893 24.4101 47.6695 24.4883C47.725 24.5225 47.9015 24.4234 48.2019 24.1938L48.2989 24.5629C48.1173 24.6736 47.9543 24.7579 47.8069 24.8131C47.6288 24.8782 47.4956 24.8761 47.4127 24.8008C47.2706 24.6717 47.2202 24.4476 47.2532 24.1317C47.2647 24.0179 47.2876 23.9035 47.3217 23.7886C47.0096 23.7752 46.7066 23.7161 46.4127 23.6113L46.4726 23.2063C46.7955 23.3268 47.1244 23.3931 47.4615 23.3968C47.5198 23.2552 47.5838 23.1134 47.6618 22.9681C47.7578 22.7851 47.8815 22.5895 48.0327 22.3755L47.6204 22.1036L47.8264 21.7936L48.2532 22.0733C48.4477 21.8176 48.6779 21.5404 48.9442 21.2473L49.2284 21.5055C48.9756 21.7838 48.7529 22.0408 48.5662 22.282L49.4963 22.9ZM49.6356 21.8484C49.6239 22.0755 49.5957 22.3148 49.5508 22.5604L49.2064 22.4637C49.2596 22.2148 49.2907 21.9782 49.3025 21.7511L49.6356 21.8484Z" fill="white"/>
<path d="M50.9398 26.6493L50.4629 26.2046L50.6948 25.956L51.4379 26.6489L51.577 26.4997L51.8432 26.7479L51.7041 26.8971L52.4472 27.59L52.2153 27.8387L51.7238 27.3804C51.6966 27.6558 51.7533 27.9822 51.8936 28.3537L51.5022 28.4098C51.3952 27.9381 51.3921 27.525 51.4898 27.1621L51.4722 27.1458L50.7629 27.9064L50.4967 27.6581L51.206 26.8975L51.1855 26.8784C50.7969 27.0137 50.3643 27.026 49.8936 26.9207L49.9712 26.5501C50.329 26.665 50.6528 26.6989 50.9398 26.6493ZM51.1582 25.4473L50.9017 25.7223C50.776 25.6871 50.653 25.6489 50.5329 25.6135L49.7718 26.4297C49.5999 26.614 49.419 26.6203 49.2318 26.4457L49.0065 26.2357L49.1933 25.9122C49.2497 25.9866 49.3086 26.0525 49.3671 26.1071C49.4344 26.1698 49.4995 26.1704 49.5595 26.106L50.1515 25.4712C50.0251 25.419 49.9044 25.3666 49.7865 25.3113L49.9783 24.9706C50.1199 25.0534 50.264 25.1276 50.4106 25.1933L50.9808 24.5818L50.6765 24.2981L50.9248 24.0319L51.229 24.3156L51.72 23.789L51.995 24.0455L51.504 24.572L51.7819 24.8312L51.5337 25.0974L51.2558 24.8383L50.7893 25.3385C50.9123 25.3767 51.0353 25.4148 51.1582 25.4473ZM52.4716 24.643L53.633 25.726L53.0383 26.3637L51.8769 25.2807L52.4716 24.643ZM52.9858 25.9156L53.1822 25.7049L52.5211 25.0884L52.3247 25.299L52.9858 25.9156ZM51.5119 25.2029L52.255 25.8958L51.6875 26.5043L50.9445 25.8114L51.5119 25.2029ZM51.6423 26.1012L51.8497 25.8788L51.5571 25.606L51.3498 25.8284L51.6423 26.1012ZM52.3983 26.0295L53.1472 26.7278L52.5798 27.3363L51.8309 26.638L52.3983 26.0295ZM52.5346 26.9332L52.7419 26.7109L52.4435 26.4326L52.2362 26.6549L52.5346 26.9332Z" fill="white"/>
<path d="M55.0762 28.1644C54.678 28.3151 54.2983 28.4115 53.94 28.4566L53.9698 28.0315C54.4778 27.9802 55.0534 27.7886 55.6908 27.457L55.9105 27.783C55.754 27.8658 55.6001 27.9401 55.4517 28.0086L56.6437 29.1467L56.3868 29.4157L55.4581 28.529L55.0631 28.9427L55.876 29.7189L55.6219 29.9851L54.809 29.2089L54.4029 29.6342L55.2216 30.4159L54.9703 30.6792L54.1515 29.8974L53.5273 30.5513L53.2495 30.2861L55.1804 28.2638L55.0762 28.1644ZM53.6339 27.6998C53.459 27.7208 53.2754 27.7336 53.0917 27.7406L53.2808 27.3571C53.891 27.3147 54.4755 27.1428 55.0316 26.8442L55.1759 27.2143C54.8908 27.3624 54.5964 27.4795 54.2928 27.5657L52.4366 29.5099L52.1588 29.2447L53.6339 27.6998Z" fill="white"/>
<path d="M57.0082 29.5096L57.3978 29.8893L57.7579 29.5198L58.0301 29.7851L57.6699 30.1546L58.0222 30.498L57.7682 30.7586L57.4158 30.4152L57.0166 30.8249L57.409 31.2074L57.155 31.468L56.7511 31.0744C56.6839 31.1318 56.6167 31.1836 56.5551 31.2353C56.5702 31.5293 56.5742 31.8404 56.5615 32.1743L56.1807 32.2556C56.2301 31.9183 56.2578 31.6493 56.2665 31.4455C55.8064 31.7456 55.3615 31.8984 54.9316 31.9039L54.9013 31.5281C55.4104 31.5215 55.9335 31.2829 56.479 30.8091L56.0607 30.4015L56.3148 30.1409L56.7445 30.5596L57.1437 30.15L56.7541 29.7703L57.0082 29.5096ZM59.6507 31.5322L58.09 33.1334L57.8293 32.8794L59.1471 31.5273L58.4453 30.8433L57.1275 32.1953L56.8669 31.9413L58.4275 30.34L59.6507 31.5322ZM57.113 33.9295L56.861 33.6838C56.6977 33.5247 56.704 33.3577 56.8715 33.1858L57.3825 32.6616C57.2448 32.7341 57.1097 32.7868 56.98 32.8224C56.6051 32.9205 56.1915 32.8749 55.7422 32.694L55.8224 32.3309C56.266 32.5062 56.6455 32.5466 56.9583 32.4549C57.2822 32.3461 57.616 32.124 57.9653 31.7886L58.479 31.2615L58.7282 31.5044L58.2145 32.0315C57.9798 32.2608 57.7446 32.4448 57.5201 32.5835L57.7378 32.7957L57.1738 33.3743C57.1263 33.423 57.1241 33.4711 57.1728 33.5186L57.3046 33.647C57.339 33.6805 57.3758 33.6885 57.4209 33.6766C57.4716 33.659 57.5809 33.5756 57.7514 33.4178L57.9108 33.7184C57.6535 33.948 57.4768 34.0606 57.3835 34.0646C57.2958 34.0629 57.2047 34.0188 57.113 33.9295Z" fill="white"/>
<path d="M61.2119 33.059L62.4584 34.2959L61.6047 35.1562L60.3582 33.9193L61.2119 33.059ZM61.5829 34.6556L61.9605 34.2752L61.2393 33.5595L60.8617 33.94L61.5829 34.6556ZM60.0532 34.0506L61.4814 35.4678L61.2391 35.712L60.6429 35.1203L60.3498 35.4156L60.8581 35.9199L60.6186 36.1613L60.1104 35.657L59.7976 35.9721L60.462 36.6314L60.2085 36.887L58.6042 35.2951L58.8578 35.0396L59.5251 35.7017L59.8378 35.3865L59.3437 34.8963L59.5832 34.6549L60.0773 35.1452L60.3703 34.8499L59.8109 34.2948L60.0532 34.0506ZM59.4055 32.5795L59.7973 32.9683L60.1382 32.6248C60.0162 32.5319 59.8886 32.4334 59.7637 32.3321L59.9605 32.0258C60.3408 32.3468 60.7123 32.5971 61.0722 32.7852L60.9123 33.1337C60.7564 33.0466 60.6005 32.9482 60.4388 32.8386L60.0557 33.2247L60.3822 33.5487L60.1258 33.8071L59.7993 33.4831L59.681 33.6024C59.6904 33.8484 59.6857 34.1086 59.6755 34.3802L59.2996 34.458C59.3553 34.2202 59.3997 34.0221 59.4274 33.8579L58.2159 35.0788L57.9575 34.8225L59.1324 33.6384C58.8049 33.7868 58.4715 33.8956 58.1352 33.9563L58.3146 33.5369C58.7387 33.507 59.1342 33.3923 59.5097 33.1957L59.1491 32.8379L59.4055 32.5795Z" fill="white"/>
<path d="M63.275 34.8869L62.5316 36.7901L60.6222 37.5175L60.4991 37.1888L62.2612 36.5174L62.9474 34.761L63.275 34.8869ZM63.7566 35.3725L63.0132 37.2758L61.1038 38.0032L60.9807 37.6745L62.7428 37.0031L63.4178 35.2354L63.7566 35.3725Z" fill="white"/>
</svg>
