<svg width="105" height="31" viewBox="0 0 105 31" fill="none" xmlns="http://www.w3.org/2000/svg">
<path d="M5.80767 2.3053L5.9819 2.62666L4.3007 3.49508L3.83057 5.32124L3.49025 5.2357L3.9995 3.25689L5.80767 2.3053ZM6.34418 2.72958L6.50585 3.04102L4.83721 3.91937L4.36708 5.74552L4.02676 5.65998L4.53601 3.68117L6.34418 2.72958Z" fill="white"/>
<path d="M8.1737 5.04931L8.35075 5.33894C7.98508 5.52363 7.6279 5.60437 7.27601 5.57872L7.19847 5.22395C7.5519 5.26081 7.87537 5.20472 8.1737 5.04931ZM8.83473 5.5148C8.90001 5.92551 8.92721 6.26725 8.92194 6.53922L8.55402 6.5215C8.57137 6.23358 8.5546 5.8847 8.50526 5.48606L8.83473 5.5148ZM7.32613 3.58453C7.43817 3.92026 7.51271 4.23261 7.55459 4.51521L7.19595 4.56474C7.17156 4.30542 7.09702 3.99307 6.97233 3.62768L7.32613 3.58453ZM6.68451 4.27274C6.78456 4.60441 6.84635 4.90711 6.87625 5.18565L6.52321 5.2344C6.5052 4.97991 6.44023 4.6748 6.33148 4.32149L6.68451 4.27274ZM6.39968 5.47702L6.57354 5.76424C6.1162 6.05011 5.65904 6.29597 5.20208 6.50184L5.01565 6.16496C5.49658 5.96721 5.96166 5.73738 6.39968 5.47702ZM7.19931 6.24317L6.65084 5.8278L6.86094 5.55038L7.66451 6.15894L7.90841 5.83688L8.20178 6.05905L7.95787 6.38112L8.76781 6.99451L8.55771 7.27193L7.99968 6.84932C7.94196 7.21705 7.9857 7.61646 8.13243 8.05875L7.75999 8.15301C7.64725 7.62608 7.65674 7.13652 7.78285 6.6851L7.74777 6.65854L6.88081 7.8033L6.58745 7.58112L7.45441 6.43636L7.42252 6.41221C6.96208 6.67567 6.44791 6.79806 5.8824 6.77622L5.91935 6.40279C6.39587 6.46262 6.82253 6.40941 7.19931 6.24317ZM9.78013 5.55842L9.30439 6.18661L9.01741 5.96926L9.28546 5.61531L8.04185 4.67349L7.76414 5.0402L7.48034 4.82527L7.96574 4.18433L9.78013 5.55842Z" fill="white"/>
<path d="M9.40798 6.40296L9.7972 6.68387L10.3824 5.87301L10.6841 6.09071L10.0988 6.90158L10.4621 7.16376L10.2467 7.46216L9.88347 7.19998L9.17417 8.18275C9.3511 8.23151 9.52712 8.27469 9.70548 8.31463L9.48309 8.62276C9.04601 8.52435 8.60028 8.3901 8.15057 8.21352L8.30069 7.8483C8.46538 7.9277 8.63384 7.99502 8.80464 8.0591L9.58183 6.98227L9.19262 6.70136L9.40798 6.40296ZM11.7803 7.1828L12.0625 7.38646L10.2178 9.94231L9.93563 9.73865L11.7803 7.1828ZM12.5372 7.48737L12.8259 7.69572L10.712 10.6246L10.4233 10.4162L12.5372 7.48737ZM11.2522 6.57478L11.5442 6.78546L10.6078 8.08285C10.0582 8.83065 9.49392 9.25706 8.92144 9.36678L8.83539 8.99389C9.33942 8.90384 9.83183 8.52915 10.3159 7.87216L11.2522 6.57478Z" fill="white"/>
<path d="M13.0771 8.30294L14.3808 9.18849C14.412 9.03566 14.4355 8.8872 14.4467 8.74972L14.8201 8.92603C14.7911 9.07556 14.7498 9.23607 14.7017 9.4065L16.0285 10.3078L15.824 10.6089L14.5071 9.71435L14.2621 10.075L15.3375 10.8055L14.5036 12.0331C14.3598 12.2448 14.1731 12.2776 13.9547 12.1293L13.6205 11.9022L13.7434 11.5505L14.0465 11.7806C14.1259 11.8345 14.1926 11.8218 14.242 11.749L14.8219 10.8953L14.0576 10.3761L12.8798 12.1099L12.5622 11.8942L13.7399 10.1603L13.0153 9.66812L12.1522 10.9387L11.8445 10.7297L12.9121 9.15799L13.9445 9.85924L14.1895 9.49858L12.8725 8.60404L13.0771 8.30294Z" fill="white"/>
<path d="M17.4538 11.0419L15.8506 13.5728L15.5397 13.3759L15.6724 13.1664L15.2669 12.9096L15.0828 13.2002L14.7686 13.0011L16.4232 10.3891L17.4538 11.0419ZM15.4553 12.6122L15.8608 12.8691L16.3253 12.1358L15.9198 11.8789L15.4553 12.6122ZM16.1103 11.5782L16.5158 11.8351L16.9588 11.1356L16.5534 10.8787L16.1103 11.5782ZM17.3142 12.3835C17.3213 12.8283 17.3067 13.2026 17.265 13.5077L16.8803 13.5244C16.9205 13.1994 16.9415 12.815 16.9424 12.38L17.3142 12.3835ZM16.8907 14.6816L16.2926 14.3027L16.4186 13.9469C16.6081 14.0812 16.7897 14.2057 16.9688 14.3191C17.0499 14.3705 17.1183 14.3522 17.1739 14.2644L18.287 12.5073L17.1618 11.7945L17.3566 11.487L18.4818 12.1998L18.8414 11.6321L19.1692 11.8397L18.8096 12.4074L19.188 12.6471L18.9932 12.9546L18.6148 12.7149L17.4503 14.5531C17.3048 14.7829 17.1171 14.825 16.8907 14.6816Z" fill="white"/>
<path d="M21.2405 13.0462L21.5722 13.2395L21.0204 14.1864L22.2403 14.8974L21.1587 16.7532C21.0137 17.0021 20.8237 17.058 20.5921 16.9231L20.2984 16.7519L20.3959 16.3781L20.6663 16.5496C20.7561 16.602 20.8272 16.5832 20.8796 16.4934L21.7356 15.0246L19.6206 13.7919L18.4967 15.7203L18.1753 15.533L19.4825 13.2901L20.6886 13.9931L21.2405 13.0462ZM19.8301 14.3539L21.1434 15.1193L20.521 16.1871L19.2078 15.4218L19.8301 14.3539ZM20.3818 15.7032L20.6517 15.2401L19.9674 14.8413L19.6975 15.3044L20.3818 15.7032ZM22.2649 13.759L22.4997 14.0393C22.2579 14.2317 22.0046 14.3804 21.7417 14.4819L21.5657 14.1802C21.8067 14.0845 22.0416 13.9436 22.2649 13.759ZM20.4189 12.7479C20.4406 12.9967 20.437 13.2492 20.408 13.5054L20.0446 13.4696C20.0739 13.1811 20.0766 12.9142 20.0529 12.6689L20.4189 12.7479Z" fill="white"/>
<path d="M24.8071 14.9798C24.7967 15.1192 24.7752 15.2708 24.7498 15.4384L25.9763 16.0882L25.8077 16.4063L25.2139 16.0917C25.0943 16.232 24.9624 16.3613 24.8201 16.4761L25.6366 16.9087L25.4643 17.2338L22.9548 15.9041L22.702 16.3813C22.3957 16.9252 22.036 17.305 21.6177 17.5134L21.4796 17.1505C21.8128 16.983 22.1065 16.6678 22.3627 16.2015L22.7878 15.3992L23.5018 15.7775L23.6234 15.2489L22.9943 14.9156L23.1628 14.5975L24.4069 15.2567C24.4228 15.1157 24.4278 14.978 24.4237 14.8491L24.8071 14.9798ZM23.834 15.9535L24.4985 16.3056C24.6408 16.1909 24.7726 16.0616 24.8923 15.9213L23.9521 15.4231L23.834 15.9535Z" fill="white"/>
<path d="M27.7209 16.5513L28.0644 16.7138L26.7195 19.5557L27.1533 19.761L28.4982 16.9192L28.8417 17.0817L27.4968 19.9235L28.5526 20.4232L28.3934 20.7594L25.1684 19.2332L25.3275 18.8969L26.376 19.3931L27.7209 16.5513ZM29.1996 18.0742L29.4622 18.3047C29.0305 18.8615 28.5967 19.32 28.159 19.6838L27.903 19.4299C28.304 19.1063 28.7397 18.6531 29.1996 18.0742ZM26.7227 16.8932C26.6778 17.4649 26.5787 18.0951 26.4291 18.7854L26.0769 18.7161C26.2226 18.0903 26.3236 17.4654 26.3854 16.8486L26.7227 16.8932Z" fill="white"/>
<path d="M31.9806 18.4017C31.9755 18.5079 31.9672 18.6214 31.9544 18.746L33.3911 19.3436L33.2559 19.6686L29.9726 18.303L30.1077 17.978L31.574 18.5878C31.5761 18.489 31.5714 18.3961 31.5615 18.3054L31.9806 18.4017ZM31.4963 22.2119L31.1897 22.0844L31.239 21.7366L31.5173 21.8697C31.6539 21.9265 31.7456 21.904 31.7855 21.808L32.1742 20.8736L29.8843 19.9212L29.3052 21.3135L28.9728 21.1753L29.6779 19.4801L32.6325 20.709L32.0872 22.0201C31.9843 22.2675 31.7843 22.3317 31.4963 22.2119ZM30.4802 18.7177L32.6112 19.6041L32.2917 20.3723L30.1607 19.4859L30.4802 18.7177ZM32.0662 19.9666L32.1645 19.7302L30.7057 19.1234L30.6074 19.3598L32.0662 19.9666ZM30.2058 20.2628L31.709 20.888L31.3864 21.6636L29.8832 21.0384L30.2058 20.2628ZM31.1837 21.2761L31.2912 21.0175L30.4122 20.6519L30.3047 20.9105L31.1837 21.2761Z" fill="white"/>
<path d="M34.0496 20.5714L33.9469 20.8575C33.6255 21.6941 33.2232 22.3062 32.7334 22.7L32.5795 22.3473C32.9718 22.012 33.3143 21.472 33.6043 20.7346L34.0339 19.5373C35.0469 19.888 35.9751 20.1318 36.8185 20.2686L36.8806 20.6522C36.0817 20.51 35.2075 20.2814 34.2684 19.9614L34.1685 20.2401L35.3507 20.6642C35.4022 20.568 35.4486 20.4741 35.495 20.3803L35.8365 20.5538C35.7979 20.6377 35.7569 20.7165 35.7159 20.7952L36.868 21.2086L36.7491 21.5399L35.5405 21.1063C35.4842 21.1923 35.4329 21.2759 35.3779 21.3582L36.3305 21.6999L35.859 23.0139L35.5164 22.891L35.869 21.9083L34.4646 21.4045L34.1107 22.3909L33.7681 22.268L34.2409 20.9502L35.0165 21.2285C35.0728 21.1425 35.1241 21.0589 35.1753 20.9753L34.0496 20.5714ZM35.0976 22.6132C35.4591 22.9087 35.767 23.2231 36.0302 23.5555L35.7236 23.794C35.45 23.4196 35.1499 23.0952 34.821 22.8157L35.0976 22.6132ZM35.0276 21.7424L35.3659 21.8893C35.1613 22.3174 34.9028 22.6113 34.5856 22.761C34.2671 22.9145 33.8381 22.9731 33.3038 22.9343L33.2307 22.5341C33.7052 22.5854 34.0817 22.5547 34.3577 22.437C34.635 22.3155 34.8578 22.0853 35.0276 21.7424Z" fill="white"/>
<path d="M37.3556 22.2154L40.0815 23.0403L39.7802 24.0357L38.5896 23.6754L38.5386 23.8438L39.8058 24.2273L39.7351 24.4609L38.4679 24.0774L38.4134 24.2573L39.9602 24.7254L39.8767 25.0011L36.4311 23.9583L36.5145 23.6826L38.0536 24.1484L38.108 23.9685L36.8561 23.5896L36.9268 23.3561L38.1787 23.7349L38.2297 23.5665L37.0543 23.2108L37.3556 22.2154ZM39.5005 23.717L39.5562 23.5333L38.7101 23.2772L38.6544 23.461L39.5005 23.717ZM38.2946 23.3521L38.3502 23.1683L37.5194 22.9169L37.4638 23.1007L38.2946 23.3521ZM37.5796 22.7178L38.4104 22.9692L38.466 22.7855L37.6352 22.534L37.5796 22.7178ZM38.8259 22.8944L38.7703 23.0781L39.6164 23.3342L39.672 23.1504L38.8259 22.8944ZM37.909 20.6903L40.4703 21.4654L40.176 22.4379L37.6147 21.6627L37.909 20.6903ZM39.8902 22.1257L39.9435 21.9496L38.079 21.3853L38.0257 21.5614L39.8902 22.1257ZM38.1416 21.1786L40.0061 21.7428L40.0582 21.5706L38.1937 21.0063L38.1416 21.1786ZM37.1181 21.688L40.5638 22.7307L40.485 22.9911L37.0394 21.9483L37.1181 21.688Z" fill="white"/>
<path d="M41.2091 22.9461L41.7972 21.8886L42.1506 22.0423L41.7704 22.7104L42.345 22.853C42.49 22.584 42.6234 22.2956 42.749 21.9889L43.1141 22.1289C42.9913 22.4241 42.8618 22.6969 42.7293 22.9484L44.5074 23.3897L44.4197 23.743L42.5485 23.2785C42.4778 23.397 42.4053 23.5068 42.3375 23.6136L43.8904 23.999L43.8133 24.3096C43.6334 24.6029 43.3718 24.8429 43.021 25.0279C43.2755 25.2642 43.5951 25.5042 43.9758 25.7471L43.6989 26.0493C43.2715 25.7618 42.9228 25.4733 42.6545 25.1924C42.2948 25.3298 41.8701 25.4305 41.3803 25.4944L41.2729 25.0968C41.6958 25.0534 42.0682 24.981 42.3853 24.8825C42.183 24.6179 42.0468 24.3533 41.9794 24.0934C41.5573 24.5986 41.0903 24.969 40.5823 25.2056L40.4769 24.8168C41.1302 24.4761 41.69 23.9309 42.1564 23.1812L41.2091 22.9461ZM42.2974 23.9581C42.3686 24.2189 42.5175 24.4825 42.745 24.7451C43.0387 24.6078 43.2703 24.4386 43.4349 24.2404L42.2974 23.9581ZM43.7769 22.2481C43.9946 22.5165 44.1687 22.7781 44.3001 23.0292L43.9706 23.2276C43.8654 22.9872 43.7001 22.7236 43.4677 22.431L43.7769 22.2481Z" fill="white"/>
<path d="M45.5419 24.1892L46.0834 24.2964L46.1456 23.9825L45.4903 23.8527L45.4312 24.1509C45.3846 24.3864 45.3238 24.6108 45.2583 24.8181L45.9528 24.9556L46.0181 24.626L45.4766 24.5188L45.5419 24.1892ZM45.1444 25.1462C44.9852 25.5591 44.7866 25.9235 44.5495 26.2353L44.301 25.9048C44.6461 25.4593 44.8968 24.8525 45.0546 24.0763L45.3157 22.758L48.3174 23.3525L48.1153 24.3727L47.5699 24.2646L47.5077 24.5785L48.0963 24.6951L48.031 25.0247L47.4425 24.9081L47.3772 25.2377L48.0992 25.3807L48.0323 25.7182L47.6399 25.6405L47.8232 25.9092C47.6721 26.0342 47.5145 26.1294 47.3546 26.1956C47.5322 26.349 47.7435 26.4765 47.9923 26.5788L47.7458 26.897C47.0761 26.5727 46.6523 26.0769 46.4707 25.4089L45.9841 25.3125L45.8364 26.058C46.0835 26.0458 46.3047 26.0203 46.496 25.9807L46.4991 26.3361C46.1595 26.383 45.7641 26.4025 45.313 26.3947L45.2755 26.0489C45.4026 26.0251 45.4778 25.9543 45.5026 25.8288L45.6192 25.2402L45.1444 25.1462ZM46.8473 25.4835C46.9128 25.6473 46.9977 25.7946 47.1015 25.9294C47.2685 25.8686 47.4307 25.7703 47.5889 25.6304L46.8473 25.4835ZM47.2089 24.1931L46.5026 24.0532L46.4405 24.3672L47.1468 24.507L47.2089 24.1931ZM46.3099 25.0263L47.0162 25.1662L47.0815 24.8366L46.3752 24.6967L46.3099 25.0263ZM47.8731 23.6192L45.6248 23.1739L45.5564 23.5192L47.8047 23.9645L47.8731 23.6192Z" fill="white"/>
<path d="M50.1017 23.7336L52.0314 24.0276L51.9754 24.3954L50.0456 24.1014L50.1017 23.7336ZM49.8522 24.7072L52.0508 25.0421L51.9948 25.4099L51.3779 25.3159L51.1225 26.9925C51.0839 27.2456 50.9223 27.3505 50.6415 27.3077L50.0681 27.2203L50.0411 26.8399C50.2206 26.8835 50.3974 26.9185 50.5635 26.9438C50.6781 26.9613 50.7441 26.9268 50.7567 26.8438L50.9983 25.2581L49.7962 25.0749L49.8522 24.7072ZM49.4589 23.4374L49.7789 23.648C49.4991 24.0505 49.0841 24.3838 48.525 24.6547L48.4675 24.2615C48.8927 24.0471 49.2216 23.7735 49.4589 23.4374ZM49.5068 24.3713L49.8228 24.5813C49.6835 24.7786 49.5183 24.9598 49.3273 25.1249L49.0297 27.0783L48.6619 27.0223L48.9035 25.4366C48.7425 25.5375 48.5741 25.6332 48.3906 25.7226L48.3365 25.334C48.8355 25.0864 49.2282 24.7658 49.5068 24.3713Z" fill="white"/>
<path d="M52.664 24.1398L54.1432 24.3015L54.1036 24.6633L52.6244 24.5017L52.664 24.1398ZM52.3995 25.1974L54.169 25.3907L54.129 25.7566L53.2343 25.6588C53.0317 26.1879 52.8649 26.5721 52.7337 26.8152C53.0023 26.7883 53.2774 26.7378 53.5547 26.6676C53.4845 26.4627 53.413 26.2698 53.3403 26.0888L53.6753 25.9685C53.8217 26.3225 53.9563 26.7114 54.0794 27.1313L53.7351 27.2627L53.6595 26.9969C53.2263 27.0944 52.7644 27.1606 52.2697 27.1951L52.2174 26.8272C52.258 26.8236 52.2832 26.8143 52.3004 26.8041C52.4247 26.6608 52.6126 26.2668 52.8685 25.6188L52.3596 25.5632L52.3995 25.1974ZM54.8527 24.1416L55.2265 24.1825L55.1422 24.9539L56.0011 25.0477C55.8594 26.344 55.7522 27.1411 55.6834 27.4394C55.6066 27.7368 55.3873 27.8657 55.0255 27.8262C54.9619 27.8192 54.8514 27.7991 54.6932 27.7738L54.6422 27.4302C54.7841 27.4578 54.9065 27.4792 55.0099 27.4905C55.1848 27.5096 55.2947 27.4251 55.3473 27.2377C55.3916 27.0534 55.4718 26.4304 55.5953 25.3736L55.1022 25.3197L55.0983 25.3555C54.9612 26.4994 54.5956 27.3044 53.9971 27.7742L53.7421 27.4928C54.2745 27.0762 54.6032 26.3516 54.7246 25.3146L54.7285 25.2788L54.2235 25.2237L54.2634 24.8578L54.7684 24.913L54.8527 24.1416Z" fill="white"/>
<path d="M57.5065 25.5464L58.5519 25.6203L58.6345 24.4512L59.0256 24.4788L58.9429 25.6479L59.9325 25.7178L59.906 26.0929L58.9164 26.023L58.7644 28.1736L58.3734 28.146L58.5254 25.9953L57.48 25.9215L57.5065 25.5464ZM56.8604 24.3619C57.1059 24.5757 57.3116 24.7868 57.477 24.999L57.1991 25.244C57.0527 25.0452 56.8474 24.8301 56.5787 24.6026L56.8604 24.3619ZM56.2519 25.4818L57.1736 25.5469L57.0535 27.2467C57.1885 27.152 57.3287 27.0416 57.4776 26.9198L57.55 27.3139C57.2777 27.5352 56.9872 27.7312 56.6827 27.8982L56.563 27.5489C56.6348 27.4978 56.6755 27.4325 56.6811 27.3527L56.7849 25.8844L56.2263 25.8449L56.2519 25.4818Z" fill="white"/>
<path d="M62.8024 25.0082L63.1701 25.021L63.0843 27.4915L62.7165 27.4787L62.8024 25.0082ZM63.447 28.3406L62.8713 28.3206L62.796 27.9538C62.9834 27.9763 63.159 27.9904 63.3269 27.9962C63.4388 28.0001 63.5007 27.9462 63.5045 27.8383L63.6135 24.7002L63.9893 24.7133L63.8769 27.9473C63.8674 28.2191 63.7228 28.3502 63.447 28.3406ZM62.4328 25.5077L62.48 25.8775L61.3467 26.0102C61.3564 26.1907 61.3747 26.3554 61.4015 26.5044C61.4282 26.6575 61.4553 26.7985 61.491 26.9238C61.7075 26.6832 61.8974 26.4016 62.0567 26.0789L62.3825 26.2624C62.1674 26.6952 61.9146 27.0586 61.6203 27.3486C61.646 27.4175 61.6719 27.4784 61.7019 27.5355C61.8298 27.7721 61.9536 27.8925 62.0654 27.9004C62.1298 27.8906 62.2004 27.7009 62.2813 27.3315L62.5939 27.5505C62.5269 27.7523 62.4569 27.922 62.3801 28.0594C62.2863 28.2242 62.1833 28.3087 62.0714 28.3048C61.8795 28.2981 61.6962 28.1597 61.5172 27.8973C61.4524 27.803 61.396 27.701 61.3477 27.5912C61.1009 27.7828 60.8315 27.9335 60.5395 28.0434L60.3235 27.6957C60.6477 27.5789 60.9416 27.417 61.2012 27.2019C61.1542 27.0562 61.1114 26.9066 61.077 26.7453C61.0319 26.5436 60.9999 26.3144 60.9769 26.0534L60.4866 26.1124L60.4434 25.7427L60.9499 25.6803C60.933 25.3595 60.9295 24.9991 60.9433 24.6034L61.3271 24.6167C61.314 24.9925 61.3102 25.3326 61.3236 25.6372L62.4328 25.5077ZM61.8594 24.6152C61.9972 24.7961 62.1303 24.9969 62.2549 25.2133L61.9295 25.3621C61.8093 25.1378 61.6801 24.9372 61.5424 24.7563L61.8594 24.6152Z" fill="white"/>
<path d="M64.9209 24.6791L65.2769 24.6831C65.1058 24.9532 64.9746 25.2277 64.8834 25.5067C64.7595 25.8493 64.6996 26.1966 64.6956 26.5446C64.6917 26.8886 64.7437 27.2372 64.8598 27.5865C64.9446 27.8635 65.0695 28.141 65.2343 28.4189L64.8783 28.4148C64.6933 28.1487 64.5524 27.8751 64.4556 27.5939C64.3355 27.2525 64.2795 26.9039 64.2836 26.5439C64.2877 26.1799 64.3517 25.8286 64.4796 25.4941C64.5828 25.2072 64.7299 24.9369 64.9209 24.6791Z" fill="white"/>
<path d="M67.3683 25.0795C67.6403 25.0743 67.8697 25.146 68.0487 25.3026C68.2236 25.4594 68.3155 25.6617 68.3202 25.9136C68.3249 26.1616 68.2332 26.3874 68.0531 26.5948C67.9433 26.7129 67.7502 26.8686 67.4698 27.0659C67.1658 27.2757 66.9852 27.4591 66.9281 27.6162L68.3559 27.5893L68.3631 27.9732L66.3955 28.0103C66.3901 27.7264 66.4774 27.4767 66.6653 27.2571C66.767 27.1312 66.9797 26.9551 67.2994 26.7251C67.4888 26.5854 67.6227 26.4749 67.7011 26.3894C67.8264 26.243 67.8914 26.0858 67.8882 25.9178C67.8852 25.7578 67.839 25.6387 67.7495 25.5603C67.66 25.482 67.5272 25.4445 67.3593 25.4477C67.1793 25.4511 67.0445 25.5136 66.9548 25.6394C66.8611 25.7612 66.8164 25.934 66.8127 26.1661L66.3768 26.1744C66.3748 25.8544 66.4619 25.5967 66.6383 25.4013C66.8183 25.1899 67.0644 25.0852 67.3683 25.0795Z" fill="white"/>
<path d="M70.424 24.9785C70.7594 24.959 71.0271 25.0838 71.2272 25.3566C71.4102 25.6105 71.5144 25.957 71.5401 26.4003C71.5655 26.8396 71.5023 27.1998 71.3498 27.4731C71.1823 27.7633 70.9311 27.9221 70.5956 27.9415C70.2602 27.9609 69.9923 27.8322 69.7924 27.5633C69.6094 27.3095 69.5052 26.9629 69.4795 26.5197C69.4536 26.0724 69.5171 25.7161 69.6698 25.4469C69.8371 25.1527 70.0886 24.9979 70.424 24.9785ZM70.4453 25.3458C70.2097 25.3595 70.0533 25.4968 69.9725 25.7619C69.9108 25.9417 69.893 26.1872 69.9108 26.4947C69.9284 26.7982 69.9745 27.0399 70.0567 27.2154C70.1674 27.4655 70.3387 27.5878 70.5744 27.5741C70.806 27.5607 70.966 27.4192 71.0471 27.1581C71.1046 26.9744 71.1264 26.7288 71.1088 26.4253C71.091 26.1178 71.0409 25.8763 70.9629 25.7045C70.852 25.4505 70.6769 25.3324 70.4453 25.3458Z" fill="white"/>
<path d="M73.4278 24.7596C73.6985 24.7332 73.9328 24.7867 74.1235 24.9288C74.3103 25.0713 74.4177 25.2658 74.4422 25.5166C74.4662 25.7635 74.3925 25.9957 74.2292 26.2166C74.129 26.343 73.9487 26.5133 73.6846 26.732C73.3979 26.9649 73.2323 27.162 73.1877 27.3231L74.609 27.1843L74.6463 27.5665L72.6876 27.7577C72.66 27.475 72.7275 27.2193 72.8976 26.9856C72.989 26.8521 73.1873 26.66 73.488 26.4055C73.6659 26.2515 73.7907 26.1308 73.8622 26.0394C73.9756 25.8837 74.0281 25.7218 74.0118 25.5546C73.9963 25.3954 73.9408 25.2802 73.8455 25.2091C73.7501 25.1381 73.6148 25.1111 73.4476 25.1274C73.2685 25.1449 73.139 25.2178 73.0594 25.3502C72.9756 25.4789 72.9445 25.6548 72.9591 25.8865L72.5251 25.9288C72.498 25.61 72.5647 25.3462 72.7252 25.1376C72.8881 24.9128 73.1252 24.7891 73.4278 24.7596Z" fill="white"/>
<path d="M76.2172 24.4461C76.5501 24.4002 76.8268 24.5034 77.0478 24.7596C77.2503 24.9982 77.3816 25.3354 77.4423 25.7753C77.5024 26.2111 77.4678 26.5753 77.3374 26.8598C77.1934 27.1623 76.9555 27.3404 76.6226 27.3863C76.2898 27.4322 76.0125 27.3251 75.792 27.0728C75.5895 26.8342 75.4582 26.497 75.3976 26.0572C75.3364 25.6134 75.3715 25.2532 75.5025 24.9727C75.6459 24.6662 75.8844 24.492 76.2172 24.4461ZM76.2675 24.8107C76.0337 24.8429 75.8887 24.9921 75.8291 25.2628C75.7819 25.447 75.7835 25.6931 75.8256 25.9982C75.8671 26.2993 75.9321 26.5367 76.028 26.7051C76.1581 26.9456 76.3386 27.054 76.5724 27.0218C76.8022 26.9901 76.9506 26.8364 77.0107 26.5697C77.0535 26.3821 77.0558 26.1354 77.0143 25.8343C76.9722 25.5292 76.9033 25.2924 76.8118 25.1273C76.6812 24.8828 76.4973 24.779 76.2675 24.8107Z" fill="white"/>
<path d="M78.2106 25.4958L82.1421 24.7591L82.207 25.1051L78.2754 25.8418L78.2106 25.4958Z" fill="white"/>
<path d="M82.9607 23.2227C83.2253 23.1599 83.4647 23.1812 83.6729 23.2962C83.8772 23.4121 84.0099 23.5903 84.0681 23.8355C84.1254 24.0768 84.0837 24.3169 83.9518 24.5579C83.8696 24.6966 83.7141 24.8898 83.4821 25.1422C83.2295 25.4118 83.0921 25.6294 83.0697 25.7951L84.4591 25.4653L84.5478 25.8389L82.633 26.2934C82.5674 26.0171 82.5996 25.7545 82.7366 25.5C82.8091 25.3554 82.9796 25.1381 83.2431 24.8453C83.3985 24.6687 83.5058 24.5322 83.5643 24.432C83.6556 24.2623 83.6857 24.0948 83.6469 23.9314C83.6099 23.7757 83.5394 23.6691 83.4353 23.6116C83.3312 23.5541 83.1936 23.5456 83.0301 23.5844C82.855 23.626 82.7365 23.7158 82.6756 23.8577C82.6099 23.9966 82.6029 24.1751 82.6487 24.4026L82.2245 24.5033C82.1545 24.1911 82.1849 23.9207 82.3157 23.6924C82.4467 23.4475 82.6649 23.2929 82.9607 23.2227Z" fill="white"/>
<path d="M85.7821 22.5068C86.1055 22.4157 86.3937 22.4799 86.6478 22.7034C86.8811 22.9119 87.0574 23.228 87.1778 23.6553C87.2971 24.0789 87.3128 24.4443 87.2227 24.744C87.1215 25.0634 86.9103 25.2725 86.5869 25.3636C86.2635 25.4547 85.9742 25.3866 85.7211 25.167C85.4878 24.9584 85.3115 24.6424 85.1911 24.215C85.0697 23.7838 85.0551 23.4222 85.1463 23.1264C85.2464 22.8031 85.4587 22.5979 85.7821 22.5068ZM85.8819 22.861C85.6547 22.925 85.5316 23.0926 85.5097 23.3689C85.4881 23.5579 85.5234 23.8014 85.607 24.0979C85.6894 24.3905 85.7864 24.6167 85.9045 24.7704C86.0663 24.9908 86.2599 25.0734 86.4871 25.0094C86.7104 24.9465 86.8363 24.7738 86.8593 24.5014C86.8759 24.3097 86.8444 24.0651 86.762 23.7725C86.6785 23.476 86.5777 23.2509 86.4645 23.1C86.3016 22.8757 86.1052 22.7981 85.8819 22.861Z" fill="white"/>
<path d="M88.5996 21.6668C88.8582 21.5825 89.0985 21.5841 89.3155 21.6816C89.5286 21.7804 89.6755 21.9471 89.7536 22.1867C89.8305 22.4224 89.8087 22.6652 89.697 22.9162C89.6265 23.0612 89.4872 23.2664 89.2767 23.537C89.0472 23.8265 88.928 24.0546 88.9193 24.2215L90.277 23.7789L90.396 24.1439L88.525 24.754C88.4369 24.484 88.4475 24.2197 88.5631 23.9548C88.6235 23.8047 88.7756 23.5742 89.0142 23.2608C89.1546 23.072 89.2504 22.9272 89.3004 22.8225C89.3774 22.6459 89.3937 22.4765 89.3417 22.3168C89.2921 22.1647 89.213 22.0642 89.1046 22.0154C88.9961 21.9667 88.8582 21.9696 88.6985 22.0216C88.5273 22.0774 88.4166 22.1766 88.3676 22.3231C88.3135 22.4669 88.3212 22.6453 88.3855 22.8684L87.971 23.0035C87.8756 22.6981 87.8837 22.4261 87.9953 22.1878C88.1058 21.933 88.3106 21.7611 88.5996 21.6668Z" fill="white"/>
<path d="M91.5466 20.7107L91.9217 20.5718L92.5773 22.3423L92.9824 22.1923L93.1032 22.5186L92.6981 22.6686L92.9134 23.25L92.5233 23.3945L92.308 22.8131L91.0026 23.2964L90.8595 22.9101L91.5466 20.7107ZM91.712 21.238L91.2156 22.8465L92.1872 22.4867L91.7232 21.2339L91.712 21.238Z" fill="white"/>
<path d="M94.0446 20.1369C93.9989 20.4602 93.8976 20.7549 93.7403 21.0299L93.3799 20.8349C93.6315 20.4028 93.7225 19.93 93.6515 19.4128L94.0406 19.3265C94.0567 19.4673 94.0682 19.5971 94.0707 19.7263L96.3107 18.7792L96.454 19.1181L95.323 19.5963L95.5379 20.1048L96.54 19.681L96.6787 20.0089L95.6766 20.4327L95.9788 21.1474L97.2241 20.6209L97.3689 20.9635L96.1237 21.49L96.4602 22.2858L96.1102 22.4338L95.7737 21.638L94.1011 22.3453L93.9562 22.0026L94.5346 21.7581L94.0937 20.7154L95.1879 20.2528L94.973 19.7443L94.0446 20.1369ZM94.8883 21.6085L95.6288 21.2954L95.3266 20.5806L94.5861 20.8938L94.8883 21.6085Z" fill="white"/>
<path d="M96.43 18.229L96.7527 18.0786C97.0293 18.2366 97.2747 18.4223 97.4906 18.6394C97.7413 18.8933 97.948 19.1853 98.1017 19.5153C98.2538 19.8416 98.3427 20.1841 98.3776 20.5429C98.4016 20.8407 98.3859 21.148 98.3306 21.465L98.0079 21.6154C98.04 21.2959 98.0395 20.9917 98.0063 20.7027C97.9645 20.3382 97.8719 19.9975 97.7266 19.6857C97.5796 19.3702 97.3782 19.0801 97.1278 18.8173C96.9262 18.6024 96.6936 18.4062 96.43 18.229Z" fill="white"/>
<path d="M98.7271 17.1566L100.314 18.4432L100.427 20.4834L100.077 20.5008L99.9725 18.618L98.5077 17.4304L98.7271 17.1566ZM99.3362 16.8453L100.924 18.132L101.036 20.1722L100.686 20.1895L100.582 18.3067L99.1025 17.1264L99.3362 16.8453Z" fill="white"/>
</svg>
