<svg width="96" height="47" viewBox="0 0 96 47" fill="none" xmlns="http://www.w3.org/2000/svg">
<path d="M8.23374 29.2166L8.42406 29.5287L6.78911 30.4814L6.4123 32.3291L6.06807 32.2609L6.47621 30.2588L8.23374 29.2166ZM8.7911 29.6131L8.96838 29.916L7.34647 30.8779L6.96965 32.7256L6.62543 32.6574L7.03357 30.6553L8.7911 29.6131Z" fill="white"/>
<path d="M10.5392 31.6414L10.7379 31.9166C10.3875 32.1287 10.0375 32.2366 9.68471 32.238L9.58023 31.8902C9.93545 31.8999 10.2537 31.8192 10.5392 31.6414ZM11.234 32.0549C11.3305 32.4594 11.3838 32.7981 11.3993 33.0696L11.0311 33.0801C11.0264 32.7917 10.983 32.4452 10.9033 32.0515L11.234 32.0549ZM9.58202 30.2458C9.71943 30.5719 9.81766 30.8777 9.88105 31.1562L9.52726 31.2331C9.48309 30.9764 9.38486 30.6707 9.23256 30.3159L9.58202 30.2458ZM8.99497 30.9811C9.12011 31.3041 9.20489 31.6012 9.25602 31.8766L8.90776 31.9523C8.87032 31.6999 8.78218 31.4007 8.6467 31.0567L8.99497 30.9811ZM8.80316 32.2036L8.9985 32.4767C8.56438 32.7967 8.12739 33.0769 7.68752 33.3171L7.47585 32.9955C7.94023 32.7615 8.38635 32.4968 8.80316 32.2036ZM9.65909 32.9063L9.08044 32.5342L9.26868 32.2415L10.1165 32.7867L10.335 32.4469L10.6445 32.646L10.426 32.9858L11.2805 33.5354L11.0923 33.8281L10.5035 33.4494C10.4741 33.8205 10.5483 34.2154 10.7285 34.6451L10.3643 34.7676C10.2116 34.2509 10.1836 33.762 10.2748 33.3023L10.2377 33.2785L9.46096 34.4863L9.15145 34.2872L9.92823 33.0794L9.89459 33.0578C9.45567 33.3557 8.95237 33.5171 8.38686 33.5386L8.39511 33.1635C8.87481 33.1866 9.29614 33.1009 9.65909 32.9063ZM12.1799 32.026L11.7537 32.6888L11.4509 32.494L11.6911 32.1206L10.379 31.2768L10.1302 31.6636L9.83075 31.4711L10.2657 30.7949L12.1799 32.026Z" fill="white"/>
<path d="M12.2033 33.0968L12.6224 33.3309L13.11 32.4578L13.4347 32.6392L12.9471 33.5123L13.3383 33.7307L13.1588 34.052L12.7677 33.8336L12.1767 34.8917C12.3581 34.9197 12.5379 34.9423 12.7197 34.9613L12.5344 35.2931C12.0889 35.2459 11.6306 35.164 11.1635 35.0406L11.2704 34.6605C11.4432 34.7203 11.6183 34.7677 11.7954 34.8116L12.4429 33.6522L12.0238 33.4181L12.2033 33.0968ZM14.6498 33.5973L14.9536 33.767L13.4167 36.5189L13.1129 36.3492L14.6498 33.5973ZM15.4368 33.8124L15.7476 33.986L13.9864 37.1395L13.6756 36.9659L15.4368 33.8124ZM14.055 33.0544L14.3693 33.2299L13.5892 34.6268C13.1297 35.4331 12.6185 35.9219 12.0625 36.097L11.9339 35.7366C12.4242 35.5889 12.87 35.1598 13.2749 34.4513L14.055 33.0544Z" fill="white"/>
<path d="M15.7551 34.3896L17.1835 35.0555C17.19 34.8996 17.1894 34.7493 17.1785 34.6118L17.5753 34.7262C17.5706 34.8785 17.5554 35.0435 17.5352 35.2195L18.9889 35.8972L18.8351 36.2271L17.3922 35.5544L17.208 35.9496L18.3862 36.4989L17.7592 37.8439C17.651 38.0759 17.472 38.1381 17.2327 38.0266L16.8665 37.8558L16.9316 37.489L17.2676 37.6677C17.3546 37.7083 17.4184 37.685 17.4556 37.6053L17.8916 36.6699L17.0542 36.2795L16.1685 38.1792L15.8205 38.0169L16.7062 36.1172L15.9122 35.7471L15.2632 37.1392L14.926 36.982L15.7289 35.26L16.86 35.7873L17.0442 35.3922L15.6013 34.7195L15.7551 34.3896Z" fill="white"/>
<path d="M20.7125 36.7826L19.4547 36.3205L19.5802 35.9789L22.4601 37.0367L22.3346 37.3784L21.073 36.915L20.2344 39.1978L21.7326 39.7481L21.6057 40.0936L18.2452 38.8592L18.3721 38.5138L19.874 39.0654L20.7125 36.7826Z" fill="white"/>
<path d="M24.0566 37.251L24.4231 37.3513L23.5935 40.3839L24.0565 40.5105L24.8861 37.4779L25.2526 37.5782L24.4231 40.6108L25.5497 40.919L25.4515 41.2778L22.01 40.3363L22.1081 39.9775L23.227 40.2836L24.0566 37.251ZM25.7778 38.4932L26.0766 38.6744C25.7484 39.2979 25.4011 39.825 25.0334 40.2594L24.7371 40.0539C25.0756 39.6654 25.4258 39.1433 25.7778 38.4932ZM23.1332 37.7615C23.1885 38.3323 23.2006 38.9701 23.1734 39.6759L22.8146 39.669C22.8491 39.0274 22.8397 38.3945 22.7932 37.7763L23.1332 37.7615Z" fill="white"/>
<path d="M29.9861 38.7936L29.3763 42.0205L29.0147 41.9522L29.0689 41.6653L28.216 41.5041L28.1529 41.8382L27.7952 41.7706L28.4139 38.4965L29.9861 38.7936ZM28.2829 41.1504L29.1358 41.3115L29.5584 39.0751L28.7055 38.9139L28.2829 41.1504ZM26.4797 38.9737L27.1361 39.0977L27.2252 38.6261C27.0392 38.6194 26.8508 38.6041 26.667 38.5857L26.6122 38.2293C27.2264 38.2966 27.7324 38.2904 28.1325 38.2195L28.2507 38.5634C28.0369 38.5963 27.8206 38.6205 27.5994 38.6276L27.4977 39.166L28.1383 39.2871L28.0722 39.6369L27.4316 39.5159L27.4019 39.6731C27.5856 39.9073 27.7688 40.1658 27.9514 40.4486L27.6704 40.7293C27.5411 40.4443 27.4296 40.2157 27.3335 40.0347L27.0179 41.7051L26.6563 41.6368L26.9571 40.0449C26.7375 40.3454 26.4759 40.6094 26.1802 40.8385L26.0963 40.3993C26.5016 40.1502 26.8254 39.8369 27.0663 39.4672L27.07 39.4475L26.4136 39.3235L26.4797 38.9737Z" fill="white"/>
<path d="M30.5926 40.2375C30.4735 40.3605 30.3504 40.483 30.2154 40.6041L30.1397 40.1844C30.5593 39.7664 30.8968 39.2583 31.1473 38.6675L31.4813 38.8758C31.3555 39.1591 31.2067 39.4316 31.0315 39.6889L30.7156 42.3825L30.3461 42.3391L30.5926 40.2375ZM31.3684 39.221L32.5324 39.3575C32.4966 39.2164 32.4524 39.0783 32.3997 38.9433L32.7729 38.8864C32.8354 39.0749 32.8798 39.2453 32.9058 39.4013L33.9785 39.5272L33.937 39.8808L31.3269 39.5746L31.3684 39.221ZM31.66 39.8593L33.5709 40.0835L33.5312 40.4212L31.6203 40.197L31.66 39.8593ZM31.5943 40.4195L33.5051 40.6436L33.4651 40.9853L31.5542 40.7611L31.5943 40.4195ZM33.5191 41.2454L33.3504 42.6835L32.9849 42.6406L33.0092 42.434L31.6584 42.2756L31.6342 42.4822L31.2687 42.4393L31.4374 41.0012L33.5191 41.2454ZM31.6999 41.922L33.0506 42.0805L33.1126 41.5521L31.7619 41.3936L31.6999 41.922Z" fill="white"/>
<path d="M34.7141 39.3637L35.5966 39.4164C35.6504 39.3194 35.6923 39.2218 35.7265 39.1196L36.1187 39.1951C36.0895 39.2815 36.0485 39.3632 36.0038 39.4407L37.2696 39.5163L37.1492 41.5327L34.5937 41.3801L34.7141 39.3637ZM36.8011 41.1873L36.8166 40.9278L34.9959 40.8191L34.9804 41.0786L36.8011 41.1873ZM35.014 40.5156L36.8348 40.6244L36.8498 40.3728L35.029 40.2641L35.014 40.5156ZM35.0469 39.9646L36.8677 40.0733L36.8829 39.8178L35.0622 39.7091L35.0469 39.9646ZM34.3643 41.5988L34.7193 41.6922C34.6013 42.0578 34.4545 42.3696 34.2706 42.6311L33.9633 42.4084C34.1463 42.1628 34.2787 41.8902 34.3643 41.5988ZM36.2867 42.8236L35.2725 42.763C35.009 42.7473 34.8848 42.6117 34.9001 42.3561L34.9437 41.6254L35.327 41.6483L35.2882 42.2991C35.2834 42.379 35.3207 42.4253 35.4006 42.4301L36.2351 42.4799C36.3109 42.4844 36.364 42.4676 36.3944 42.4293C36.4412 42.384 36.4775 42.2459 36.5035 42.0111L36.8599 42.1486C36.8077 42.4861 36.7357 42.6861 36.6475 42.753C36.5641 42.8081 36.4464 42.8331 36.2867 42.8236ZM35.8714 41.5245C36.0551 41.7359 36.1966 41.9166 36.2913 42.0745L35.9959 42.2573C35.8941 42.0829 35.7574 41.8904 35.5816 41.6795L35.8714 41.5245ZM37.1441 41.6847C37.3651 42.0104 37.5283 42.2967 37.6422 42.5359L37.3301 42.7296C37.2096 42.466 37.0467 42.1757 36.8377 41.8507L37.1441 41.6847Z" fill="white"/>
<path d="M39.2531 39.2538L39.6157 39.407C39.4933 39.7403 39.3303 40.0593 39.1264 40.3599L39.2347 42.9937L38.859 43.0091L38.769 40.819C38.612 40.9936 38.4429 41.1647 38.2615 41.3283L38.1253 40.9375C38.6456 40.4478 39.0229 39.8878 39.2531 39.2538ZM41.302 42.8367L40.5546 42.8674C40.2349 42.8805 40.0685 42.7272 40.0553 42.4075L40.0093 41.2885C39.8686 41.3703 39.7238 41.4523 39.5749 41.5305L39.3882 41.1779C39.6001 41.0731 39.8038 40.9646 39.9911 40.8448L39.9272 39.2901L40.3068 39.2745L40.3611 40.5934C40.7421 40.3175 41.0776 40.0075 41.3597 39.6636L41.6358 39.9525C41.2722 40.3598 40.8551 40.7292 40.38 41.053L40.4329 42.3399C40.4375 42.4518 40.4997 42.5053 40.6276 42.5001L41.2231 42.4756C41.315 42.4718 41.3816 42.4371 41.4231 42.3753C41.4606 42.3137 41.4799 42.1007 41.4728 41.7327L41.8293 41.8342C41.8202 42.2949 41.7797 42.5768 41.7117 42.6757C41.6397 42.7747 41.5018 42.8284 41.302 42.8367Z" fill="white"/>
<path d="M43.2724 41.0339L44.7335 40.7746L44.9194 41.8222L43.4583 42.0815L43.2724 41.0339ZM44.5294 41.5705L44.4533 41.1412L43.6656 41.2809L43.7418 41.7102L44.5294 41.5705ZM44.7665 39.1518L42.7028 39.5181L42.7643 39.8646L44.828 39.4984L44.7665 39.1518ZM42.8244 40.2033L42.8726 40.4751L45.4877 40.0111C45.6631 40.9996 45.7518 41.6136 45.7543 41.8569C45.7555 42.0923 45.5946 42.2387 45.2716 42.296C45.1771 42.3127 45.0182 42.3328 44.7923 42.3648L44.6537 42.0644C44.8527 42.0412 45.0195 42.0198 45.1573 41.9953C45.307 41.9687 45.3825 41.8904 45.3877 41.7594C45.3836 41.622 45.3164 41.1749 45.1887 40.4094L42.932 40.8099C43.0434 41.5295 42.972 42.18 42.7169 42.7574L42.3747 42.5459C42.6104 42.0654 42.6708 41.49 42.5552 40.8158L42.2743 39.2325L45.0667 38.737L45.2505 39.7728L42.8244 40.2033Z" fill="white"/>
<path d="M47.1371 38.7027L45.8538 39.0883L45.749 38.7396L48.6873 37.8569L48.792 38.2055L47.5049 38.5922L48.2046 40.9214L49.7331 40.4622L49.839 40.8147L46.4103 41.8447L46.3045 41.4922L47.8368 41.0319L47.1371 38.7027Z" fill="white"/>
<path d="M50.2744 36.9805L50.6254 36.835L51.8293 39.7394L52.2728 39.5556L51.0689 36.6512L51.4199 36.5057L52.6238 39.4101L53.7028 38.9628L53.8452 39.3065L50.5492 40.6727L50.4067 40.3291L51.4783 39.8849L50.2744 36.9805ZM52.3958 36.9066L52.7429 36.8666C52.866 37.5604 52.9147 38.1897 52.8905 38.7583L52.5305 38.7776C52.5598 38.2632 52.5163 37.636 52.3958 36.9066ZM49.8579 37.9499C50.2516 38.367 50.6522 38.8634 51.0634 39.4377L50.7757 39.6522C50.4096 39.1242 50.0142 38.6299 49.5984 38.1701L49.8579 37.9499Z" fill="white"/>
<path d="M53.0179 35.8296C53.3333 35.8841 53.6112 35.9621 53.8553 36.053L53.7439 36.4064C53.523 36.3082 53.2397 36.2284 52.8993 36.1687L53.0179 35.8296ZM53.0807 37.0777L53.8786 36.67L54.6485 38.1767C54.7116 38.0276 54.7746 37.8607 54.8409 37.6741L55.1155 37.9829C54.9932 38.315 54.8457 38.6329 54.6713 38.9332L54.3865 38.6924C54.418 38.6134 54.4173 38.5329 54.3791 38.4581L53.7166 37.1616L53.2464 37.4018L53.0807 37.0777ZM54.5689 36.8518L56.2965 35.969L56.4548 36.2789C56.5135 36.6487 56.4809 37.0067 56.3587 37.3567C56.6631 37.3898 57.0101 37.3831 57.3889 37.3333L57.3565 37.7182C56.9275 37.7578 56.5482 37.745 56.215 37.6907C56.0391 38.0321 55.7755 38.3689 55.4313 38.6975L55.0969 38.5091C55.418 38.2057 55.6641 37.9048 55.8331 37.6028C55.4708 37.4915 55.1705 37.317 54.9394 37.0757L54.7364 37.1795L54.5689 36.8518ZM55.2564 36.9137C55.4494 37.0891 55.6884 37.2141 55.9789 37.2902C56.082 37.0174 56.1315 36.745 56.122 36.4714L55.2564 36.9137ZM54.1157 35.3495L55.3766 34.7051L55.7588 35.4531C55.7989 35.5315 55.8635 35.5524 55.9525 35.5069L56.266 35.3467L56.4243 35.6566L56.0218 35.8623C55.7689 35.9915 55.5824 35.9341 55.4622 35.699L55.2038 35.1932L54.6125 35.4954L54.6671 35.6022C54.8564 35.9727 54.8151 36.3577 54.5448 36.7518L54.1875 36.6065C54.4176 36.3182 54.4743 36.0512 54.3505 35.809L54.1157 35.3495Z" fill="white"/>
<path d="M57.7982 34.5185L58.6972 33.9801L58.0951 32.9746L58.4314 32.7732L59.0335 33.7787L59.8846 33.269L60.0778 33.5915L59.2267 34.1012L60.3345 35.9509L59.9982 36.1523L58.8904 34.3026L57.9914 34.8411L57.7982 34.5185ZM56.5899 33.918C56.9137 33.9526 57.2031 34.0077 57.4603 34.0868L57.3729 34.4469C57.139 34.3678 56.8475 34.3092 56.497 34.2767L56.5899 33.918ZM56.733 35.1845L57.5257 34.7097L58.4012 36.1716C58.4576 36.0166 58.5092 35.8458 58.5614 35.6606L58.8466 35.9421C58.7503 36.2796 58.6245 36.6067 58.4706 36.918L58.1723 36.7003C58.2019 36.6173 58.1978 36.5405 58.1567 36.4718L57.4004 35.209L56.92 35.4967L56.733 35.1845Z" fill="white"/>
<path d="M60.2345 33.1754L59.8458 32.0295L60.197 31.8708L60.4367 32.6011L60.9283 32.2712C60.8264 31.9831 60.7023 31.6906 60.5593 31.3915L60.9082 31.2151C61.0445 31.5042 61.1596 31.7834 61.257 32.0504L62.778 31.0293L62.9809 31.3315L61.3802 32.4062C61.4206 32.538 61.4532 32.6655 61.4869 32.7874L62.8152 31.8956L62.9936 32.1613C63.0901 32.4916 63.0924 32.8466 62.9938 33.2307C63.3398 33.2008 63.7323 33.1252 64.1679 33.0062L64.2058 33.4143C63.7059 33.538 63.2579 33.6027 62.8696 33.6128C62.7299 33.9716 62.5193 34.3539 62.2377 34.7597L61.871 34.5723C62.1228 34.2298 62.3192 33.9052 62.4591 33.6041C62.1273 33.5764 61.8397 33.4996 61.6019 33.3751C61.6928 34.0271 61.6537 34.6219 61.4879 35.1571L61.129 34.9741C61.3152 34.2613 61.2872 33.4804 61.0448 32.6313L60.2345 33.1754ZM61.7151 33.0485C61.9563 33.1709 62.2516 33.2376 62.5989 33.2453C62.6944 32.9355 62.7245 32.6503 62.6882 32.3952L61.7151 33.0485ZM61.4416 30.804C61.7867 30.8228 62.0974 30.8695 62.3717 30.9407L62.2975 31.3182C62.0487 31.2347 61.7423 31.1802 61.3695 31.1559L61.4416 30.804Z" fill="white"/>
<path d="M64.2306 30.6869L64.6751 30.3596L64.4854 30.1019L63.9475 30.498L64.1277 30.7428C64.27 30.936 64.3946 31.1324 64.5034 31.3205L65.0735 30.9008L64.8743 30.6302L64.4298 30.9575L64.2306 30.6869ZM64.6687 31.626C64.866 32.0222 65.0009 32.4146 65.0711 32.8L64.6594 32.7604C64.5635 32.2051 64.2848 31.6106 63.8185 30.9704L63.0216 29.8881L65.4858 28.0739L66.1024 28.9114L65.6547 29.2411L65.8444 29.4988L66.3276 29.143L66.5268 29.4136L66.0436 29.7693L66.2428 30.0399L66.8355 29.6036L67.0395 29.8806L66.7173 30.1177L67.0393 30.1638C67.0296 30.3597 66.9936 30.5402 66.9346 30.7029C67.1676 30.6754 67.4042 30.6055 67.6477 30.4908L67.7161 30.8874C67.0249 31.1629 66.373 31.1411 65.7574 30.8244L65.358 31.1185L65.8086 31.7305C65.9663 31.5399 66.0967 31.3595 66.1966 31.1916L66.4609 31.4291C66.2664 31.7114 66.0141 32.0164 65.7039 32.344L65.4234 32.1383C65.4915 32.0285 65.49 31.9253 65.4142 31.8222L65.0584 31.3391L64.6687 31.626ZM66.0667 30.5968C66.2317 30.659 66.3978 30.6957 66.5673 30.71C66.6351 30.5458 66.672 30.3597 66.6755 30.1486L66.0667 30.5968ZM65.3583 29.4592L64.7785 29.8861L64.9682 30.1438L65.5481 29.7169L65.3583 29.4592ZM65.3667 30.685L65.9465 30.2581L65.7473 29.9875L65.1675 30.4144L65.3667 30.685ZM65.3829 28.5818L63.5372 29.9407L63.7459 30.2242L65.5916 28.8653L65.3829 28.5818Z" fill="white"/>
<path d="M67.5428 28.262L67.7756 28.5573C67.7203 28.6874 67.6625 28.8145 67.6016 28.944L68.3049 29.8361C68.4708 30.0466 68.4513 30.2351 68.244 30.3985L67.9895 30.5991L67.6957 30.3621C67.7786 30.3121 67.8558 30.2614 67.9249 30.207C68.0003 30.1475 68.0058 30.077 67.9439 29.9984L67.4065 29.3168C67.325 29.4524 67.2434 29.588 67.1562 29.7229L66.8586 29.494C66.9759 29.3455 67.0826 29.1901 67.1787 29.0278L66.6513 28.3586L66.268 28.6607L66.0427 28.3749L66.426 28.0728L65.9951 27.5262L66.2967 27.2884L66.7275 27.8351L67.0448 27.585L67.2701 27.8708L66.9529 28.1209L67.3763 28.6581C67.4372 28.5286 67.4932 28.3928 67.5428 28.262ZM67.1775 27.3785L67.7586 26.9204L67.3798 26.4398L67.6782 26.2045L68.0571 26.6852L68.6885 26.1874L68.9163 26.4765L68.2849 26.9742L68.5523 27.3134C68.6093 27.3857 68.6599 27.4629 68.7106 27.5401L69.4897 26.926L69.7175 27.215L69.0327 27.7548C69.531 28.0445 70.0522 28.1889 70.5932 28.1903L70.5778 28.5843C70.0202 28.5553 69.4891 28.3984 68.9894 28.12C69.1632 28.6247 69.1868 29.1715 69.0601 29.7604L68.6741 29.7488C68.8196 29.1452 68.7904 28.5977 68.5866 28.1065L67.974 28.5893L67.7462 28.3003L68.4122 27.7753C68.359 27.695 68.3084 27.6178 68.2539 27.5487L67.9865 27.2094L67.4053 27.6675L67.1775 27.3785Z" fill="white"/>
<path d="M70.7306 23.7177L71.0159 23.479L71.2546 23.7644L71.8591 23.2589L72.0823 23.5259L71.4778 24.0314L71.7216 24.3229L72.4427 23.7199L72.6736 23.996L70.9798 25.4124L70.7488 25.1363L71.4362 24.5615L71.1924 24.27L70.6155 24.7524L70.3923 24.4854L70.9692 24.003L70.7306 23.7177ZM71.2027 25.7788L72.2951 24.8653L72.118 24.6536L72.4095 24.4098L72.5866 24.6215L72.9487 24.3187L73.177 24.5918L72.8149 24.8946L73.4564 25.6618C73.6258 25.8643 73.6118 26.0533 73.4092 26.2226L73.0042 26.5613L72.7037 26.3329C72.8403 26.2344 72.9651 26.1404 73.0817 26.0429C73.1584 25.9788 73.1649 25.9055 73.1033 25.8319L72.5234 25.1384L71.431 26.0519L71.2027 25.7788ZM71.6704 27.6663L71.4004 27.8921L71.1055 27.6642C71.1955 27.6097 71.2774 27.5517 71.351 27.4901C71.4247 27.4285 71.4312 27.3553 71.3645 27.2755L70.8282 26.6342C70.7516 26.7608 70.675 26.8874 70.5927 27.0136L70.2728 26.7806C70.3821 26.637 70.4833 26.4898 70.5793 26.3365L70.043 25.6952L69.6932 25.9877L69.4597 25.7085L69.8095 25.416L69.3707 24.8912L69.6561 24.6526L70.0949 25.1773L70.3895 24.931L70.623 25.2102L70.3284 25.4566L70.7749 25.9905C70.8376 25.8598 70.8948 25.7286 70.9519 25.5974L71.2008 25.895C71.1437 26.0262 71.0809 26.1569 71.0186 26.282L71.7114 27.1105C71.8808 27.313 71.8668 27.502 71.6704 27.6663ZM71.8875 25.837C72.1831 25.8975 72.427 25.9647 72.6192 26.0386L72.5225 26.3906C72.3165 26.3126 72.0644 26.2418 71.7718 26.1788L71.8875 25.837Z" fill="white"/>
<path d="M73.5586 22.8059L74.3479 22.1165L73.5769 21.2338L73.8721 20.9759L74.6431 21.8586L75.3902 21.2061L75.6376 21.4893L74.8905 22.1418L76.3088 23.7656L76.0135 24.0235L74.5952 22.3997L73.8059 23.0891L73.5586 22.8059ZM72.263 22.4293C72.5877 22.4058 72.8823 22.4087 73.1495 22.441L73.1273 22.8108C72.8831 22.7745 72.5859 22.7686 72.2352 22.7988L72.263 22.4293ZM72.6284 23.6503L73.3243 23.0424L74.4453 24.3258C74.4732 24.1633 74.4937 23.9861 74.5123 23.7945L74.8429 24.021C74.808 24.3701 74.7422 24.7144 74.6459 25.0481L74.3138 24.8867C74.3282 24.7998 74.3106 24.7249 74.2579 24.6647L73.2896 23.556L72.8678 23.9244L72.6284 23.6503Z" fill="white"/>
<path d="M76.8424 18.7892L77.1152 18.5422L78.7741 20.375L78.5013 20.6219L76.8424 18.7892ZM79.6258 20.7317L79.1987 21.1182L78.8892 20.9074C79.0393 20.7931 79.1752 20.6809 79.2997 20.5682C79.3828 20.493 79.3897 20.4113 79.3172 20.3312L77.21 18.0032L77.4888 17.7509L79.6604 20.15C79.8429 20.3517 79.8304 20.5465 79.6258 20.7317ZM76.925 19.405L77.2165 19.6376L76.4956 20.5221C76.6283 20.6448 76.7561 20.7502 76.8791 20.8385C77.0049 20.9297 77.1225 21.012 77.2354 21.0771C77.2232 20.7537 77.1634 20.4194 77.053 20.0769L77.4146 19.9816C77.5616 20.442 77.6333 20.8789 77.624 21.2919C77.6904 21.3235 77.7514 21.3492 77.8127 21.3692C78.0693 21.45 78.242 21.4501 78.3277 21.3779C78.3671 21.326 78.2857 21.1407 78.0865 20.8193L78.4633 20.7588C78.5557 20.9503 78.6237 21.1208 78.6643 21.2729C78.7118 21.4565 78.6967 21.5888 78.6137 21.664C78.4713 21.7928 78.2434 21.8211 77.9322 21.7575C77.82 21.7349 77.7084 21.701 77.5974 21.6559C77.5537 21.9652 77.4653 22.261 77.3323 22.5432L76.9351 22.4442C77.0865 22.1345 77.1846 21.8137 77.2211 21.4785C77.0859 21.4067 76.951 21.3292 76.814 21.2374C76.6412 21.124 76.4586 20.9818 76.2603 20.8105L75.9495 21.1944L75.6611 20.9591L75.9811 20.5616C75.7456 20.3431 75.4921 20.0869 75.2264 19.7934L75.5111 19.5357C75.7634 19.8144 75.9975 20.0611 76.2193 20.2704L76.925 19.405ZM75.8921 19.1638C76.1169 19.1977 76.3522 19.249 76.5924 19.3176L76.4625 19.651C76.22 19.5738 75.9876 19.5197 75.7627 19.4859L75.8921 19.1638Z" fill="white"/>
<path d="M80.8295 18.2368L80.3521 18.6809L80.1205 18.4319L80.8644 17.7399L80.7255 17.5906L80.992 17.3427L81.131 17.492L81.8749 16.8001L82.1065 17.049L81.6144 17.5067C81.8873 17.5534 82.2168 17.52 82.5973 17.4064L82.6255 17.8009C82.1474 17.8741 81.7351 17.8479 81.3801 17.7246L81.3625 17.741L82.0708 18.5025L81.8043 18.7504L81.096 17.9889L81.0755 18.008C81.1828 18.4053 81.1643 18.8376 81.0259 19.2996L80.6617 19.1959C80.8017 18.8471 80.8586 18.5265 80.8295 18.2368ZM79.6461 17.9336L79.9022 18.2089C79.8581 18.3318 79.8113 18.4518 79.7674 18.5691L80.5275 19.3863C80.6991 19.5708 80.6925 19.7517 80.5051 19.9261L80.2796 20.1358L79.9702 19.9265C80.0484 19.8756 80.1183 19.8215 80.1769 19.767C80.2442 19.7043 80.2494 19.6394 80.1895 19.575L79.5983 18.9394C79.5373 19.0617 79.4765 19.1784 79.4129 19.2922L79.0868 19.0766C79.1794 18.9412 79.2637 18.8028 79.3395 18.6612L78.7702 18.049L78.4656 18.3324L78.2177 18.0658L78.5223 17.7825L78.0319 17.2553L78.3072 16.9992L78.7976 17.5264L79.0758 17.2676L79.3237 17.5342L79.0455 17.793L79.5113 18.2938C79.5581 18.1738 79.6049 18.0538 79.6461 17.9336ZM78.9371 16.5663L80.0998 15.4848L80.6937 16.1233L79.5309 17.2049L78.9371 16.5663ZM80.243 16.1438L80.0468 15.9329L79.3849 16.5486L79.581 16.7595L80.243 16.1438ZM79.4274 17.5634L80.1713 16.8714L80.738 17.4806L79.994 18.1726L79.4274 17.5634ZM80.3327 17.4971L80.1256 17.2745L79.8327 17.5469L80.0398 17.7695L80.3327 17.4971ZM80.3149 16.7379L81.0647 16.0405L81.6313 16.6497L80.8815 17.3471L80.3149 16.7379ZM81.226 16.6662L81.0189 16.4436L80.7202 16.7215L80.9272 16.9441L81.226 16.6662Z" fill="white"/>
<path d="M82.5462 14.2402C82.6774 14.6453 82.7553 15.0293 82.7829 15.3893L82.3598 15.3389C82.3332 14.829 82.1698 14.2448 81.8695 13.5921L82.2057 13.3884C82.2809 13.5488 82.3476 13.7061 82.4088 13.8576L83.6034 12.7223L83.8597 12.992L82.9289 13.8765L83.323 14.2911L84.1377 13.5168L84.3912 13.7836L83.5765 14.5579L83.9816 14.9841L84.8021 14.2043L85.0529 14.4681L84.2323 15.2479L84.8551 15.9032L84.5767 16.1677L82.6506 14.141L82.5462 14.2402ZM82.0122 15.6583C82.0247 15.834 82.0285 16.018 82.0266 16.2019L81.6528 15.9943C81.64 15.3829 81.4967 14.7907 81.2254 14.2208L81.6021 14.0946C81.7361 14.3866 81.8388 14.6863 81.9102 14.9936L83.762 16.9421L83.4836 17.2066L82.0122 15.6583Z" fill="white"/>
<path d="M84.0852 12.2709L84.4765 11.8929L84.118 11.5218L84.3913 11.2578L84.7498 11.6289L85.1036 11.2871L85.3565 11.5489L85.0027 11.8907L85.4001 12.3021L85.7942 11.9213L86.0471 12.1831L85.6415 12.575C85.6969 12.6438 85.7466 12.7126 85.7965 12.7757C86.0908 12.7694 86.4019 12.7748 86.7353 12.7975L86.805 13.1806C86.4694 13.1211 86.2013 13.0853 85.9979 13.0705C86.284 13.5394 86.4234 13.9888 86.4159 14.4186L86.0394 14.4376C86.0482 13.9285 85.8253 13.3985 85.3682 12.839L84.9482 13.2448L84.6953 12.983L85.1268 12.5661L84.7294 12.1547L84.3381 12.5327L84.0852 12.2709ZM86.1863 9.69047L87.7399 11.2986L87.4781 11.5515L86.1663 10.1937L85.4615 10.8746L86.7733 12.2324L86.5115 12.4853L84.9579 10.8772L86.1863 9.69047ZM88.5062 12.2991L88.2531 12.5437C88.0891 12.7021 87.9224 12.6907 87.7556 12.5181L87.247 11.9916C87.3154 12.1314 87.3639 12.2681 87.3956 12.3987C87.4824 12.7765 87.4244 13.1885 87.2301 13.6321L86.8695 13.541C87.0581 13.103 87.1099 12.7248 87.0277 12.4094C86.9287 12.0823 86.7167 11.742 86.3919 11.3828L85.8805 10.8535L86.1308 10.6117L86.6422 11.141C86.8643 11.3825 87.0412 11.6232 87.1731 11.8518L87.3917 11.6405L87.9531 12.2216C88.0004 12.2706 88.0484 12.2742 88.0973 12.227L88.2296 12.0991C88.2642 12.0658 88.2733 12.0292 88.2627 11.9837C88.2467 11.9325 88.1665 11.8208 88.014 11.6456L88.3193 11.4953C88.541 11.7594 88.6482 11.9394 88.6494 12.0328C88.6451 12.1204 88.5983 12.2101 88.5062 12.2991Z" fill="white"/>
<path d="M87.7392 8.15917L88.9954 6.93211L89.8423 7.7991L88.5861 9.02616L87.7392 8.15917ZM89.3414 7.81304L88.9669 7.42962L88.2401 8.13957L88.6147 8.523L89.3414 7.81304ZM88.7127 9.33313L90.1519 7.92719L90.3923 8.17326L89.7914 8.76024L90.0821 9.05782L90.5943 8.55749L90.8319 8.80071L90.3197 9.30103L90.6299 9.61864L91.2995 8.96459L91.5511 9.22211L89.9344 10.8013L89.6828 10.5438L90.3553 9.88697L90.045 9.56936L89.5471 10.0557L89.3095 9.8125L89.8074 9.32615L89.5167 9.02857L88.953 9.57921L88.7127 9.33313ZM87.2316 9.95788L87.6265 9.57216L87.2883 9.22593C87.1935 9.34645 87.0931 9.47256 86.9898 9.59581L86.6867 9.39426C87.0135 9.01905 87.2696 8.6515 87.4633 8.29454L87.8092 8.45982C87.7197 8.61435 87.6189 8.76874 87.5067 8.92866L87.8869 9.3178L88.2159 8.99636L88.4703 9.25675L88.1412 9.57818L88.2586 9.69836C88.5048 9.69276 88.7649 9.70146 89.0363 9.71595L89.1083 10.093C88.8713 10.0337 88.6739 9.98609 88.5102 9.95588L89.7121 11.1863L89.4517 11.4406L88.2861 10.2474C88.4294 10.5772 88.5329 10.9122 88.5884 11.2495L88.1719 11.0636C88.1486 10.639 88.0401 10.2417 87.8494 9.86329L87.486 10.2183L87.2316 9.95788Z" fill="white"/>
<path d="M89.6135 6.10126L91.5138 6.85213L92.2337 8.7644L91.9046 8.88618L91.2401 7.12144L89.4864 6.42834L89.6135 6.10126ZM90.1011 5.62155L92.0014 6.37242L92.7213 8.28469L92.3922 8.40647L91.7277 6.64173L89.9626 5.95985L90.1011 5.62155Z" fill="white"/>
</svg>
