<svg width="88" height="50" viewBox="0 0 88 50" fill="none" xmlns="http://www.w3.org/2000/svg">
<path d="M6.42026 2.55585L6.52334 2.90657L4.69758 3.40375L3.85552 5.091L3.54065 4.9361L4.45293 3.10778L6.42026 2.55585ZM6.85604 3.08306L6.94893 3.42145L5.13336 3.93096L4.29131 5.61821L3.97644 5.46331L4.88871 3.63498L6.85604 3.08306Z" fill="white"/>
<path d="M7.92404 4.34963C7.87949 4.59685 7.81751 4.85466 7.73539 5.12009L7.47633 5.02125L8.03627 5.63121C8.30161 5.58311 8.58854 5.49346 8.89412 5.36498L9.07202 5.70665C8.81803 5.82035 8.56844 5.89744 8.3257 5.94651L8.83965 6.50638L8.56856 6.75524L7.68673 5.79462L7.59538 5.87848C7.44853 6.00242 7.30535 6.10671 7.1656 6.19699L8.24219 7.36977L7.9711 7.61863L7.02435 6.58729C6.80034 7.05898 6.85854 7.6843 7.19597 8.46593L6.77929 8.54437C6.46466 7.69293 6.44081 6.99265 6.6994 6.44034C6.51222 6.51443 6.32895 6.56322 6.15254 6.58398C5.70339 6.62706 5.19982 6.48662 4.64181 6.16268L4.74572 5.78493C5.30963 6.10347 5.77659 6.23951 6.14931 6.196C6.28616 6.17354 6.42373 6.13413 6.55909 6.08046L5.63397 5.0727L5.90507 4.82384L6.90051 5.90821C7.04591 5.81818 7.19179 5.71684 7.3357 5.5956L7.42705 5.51174L6.54251 4.54818L6.8136 4.29931L7.39247 4.9299C7.47412 4.67577 7.52972 4.43468 7.56494 4.20688L7.92404 4.34963Z" fill="white"/>
<path d="M9.89777 6.64874L12.0477 8.78099L11.7858 9.04512L10.8798 8.14659L10.1925 8.83957L11.2973 9.93527L11.0297 10.2051L9.92491 9.10938L8.96441 10.0779C8.76724 10.2767 8.56076 10.2747 8.35343 10.0691L7.90186 9.62121L8.10419 9.30358C8.24059 9.45576 8.37412 9.59945 8.50476 9.72902C8.59565 9.81916 8.68334 9.82162 8.76221 9.7421L9.6551 8.84179L8.50202 7.69821L8.76961 7.4284L9.92269 8.57198L10.61 7.879L9.63582 6.91287L9.89777 6.64874Z" fill="white"/>
<path d="M11.9622 10.9538L11.2475 11.742C11.5388 11.909 11.8531 12.0805 12.1896 12.2453L12.0299 12.5703C11.5741 12.3406 11.1228 12.088 10.6763 11.8181L10.776 11.4819C10.882 11.5079 10.9687 11.4838 11.0358 11.4097L12.6667 9.61103C13.0909 9.88761 13.4985 10.1169 13.8924 10.2958L13.8631 10.6795C13.5214 10.5264 13.152 10.3264 12.7521 10.0826L12.2067 10.6841L13.0245 11.4257L12.78 11.6954L11.9622 10.9538ZM12.8698 13.6449L12.5912 13.3924L12.7614 13.0499L13.0197 13.2949C13.0968 13.3648 13.1756 13.3553 13.2508 13.2723L14.6426 11.7373L14.0588 11.208L11.947 13.5372L11.6625 13.2792L14.0162 10.6834L15.1689 11.7285L13.4816 13.5895C13.2801 13.8117 13.0742 13.8303 12.8698 13.6449Z" fill="white"/>
<path d="M14.8272 12.8786L15.8189 12.1855L16.0693 12.4784L15.435 12.9125L15.8891 13.2924C16.1373 13.1141 16.3835 12.9132 16.6308 12.6925L16.8976 12.9782C16.658 13.1898 16.4221 13.3784 16.1929 13.5464L17.5981 14.7218L17.3646 15.001L15.8857 13.764C15.7703 13.8396 15.657 13.9065 15.5493 13.9729L16.7766 14.9994L16.5713 15.2449C16.2811 15.4298 15.9408 15.5311 15.5444 15.5436C15.6698 15.8676 15.852 16.2233 16.0879 16.6084L15.7066 16.7588C15.4483 16.3132 15.261 15.9011 15.1429 15.5311C14.7594 15.4971 14.3334 15.4016 13.8651 15.2446L13.9427 14.8401C14.3419 14.9863 14.7084 15.0843 15.0366 15.1345C14.9706 14.8082 14.964 14.5106 15.0172 14.2475C14.4165 14.5168 13.8345 14.6453 13.2742 14.6355L13.3497 14.2398C14.0862 14.2196 14.8282 13.9746 15.5758 13.5048L14.8272 12.8786ZM15.3624 14.265C15.3122 14.5307 15.3306 14.8329 15.4201 15.1685C15.7443 15.1737 16.0266 15.123 16.2614 15.0169L15.3624 14.265ZM17.4413 13.3756C17.5195 13.7122 17.5615 14.0237 17.5697 14.3069L17.1865 14.3411C17.1972 14.0789 17.164 13.7695 17.0832 13.4047L17.4413 13.3756Z" fill="white"/>
<path d="M21.0202 16.1831L21.1855 16.4926L19.5274 17.3905L19.0788 19.2221L18.7375 19.1406L19.2234 17.1559L21.0202 16.1831Z" fill="white"/>
<path d="M21.0303 17.9584L22.1873 18.7817C22.3693 18.6019 22.5554 18.3955 22.7423 18.1604L21.5951 17.3441L21.8061 17.0475L24.4004 18.8935L24.1894 19.19L23.0552 18.383C22.8627 18.6191 22.6766 18.8254 22.5002 19.0043L23.8039 19.9319L23.5928 20.2285L22.4358 19.4053C22.2489 20.151 22.3493 20.8999 22.7403 21.6543L22.3695 21.7685C21.9797 20.9708 21.8909 20.1712 22.0973 19.3705C21.9152 19.5159 21.7476 19.6274 21.5878 19.7002C21.0934 19.9327 20.483 20.004 19.7598 19.9165L19.7451 19.5231C20.3972 19.614 20.9426 19.5651 21.3858 19.37C21.5512 19.2962 21.7245 19.1838 21.9111 19.0319L20.8193 18.255L21.0303 17.9584Z" fill="white"/>
<path d="M26.6484 22.4451L25.8995 21.9532L25.748 22.1839L26.5772 22.7285L26.3839 23.0227L25.5548 22.4781L25.3967 22.7188L26.4197 23.3908L26.2221 23.6917L25.199 23.0197L24.9179 23.4477L24.607 23.2434L24.8881 22.8155L23.9954 22.2292L24.1931 21.9283L25.0857 22.5146L25.2438 22.2739L24.515 21.7951L24.7083 21.5009L25.4371 21.9797L25.5886 21.749L24.92 21.3098L25.1022 21.0323L25.7709 21.4715L25.9422 21.2107L25.103 20.6595L25.2941 20.3687L26.1332 20.9199L26.3001 20.6658L25.6482 20.2375L25.8327 19.9567L26.4846 20.3849L26.6449 20.1409L26.9558 20.3451L26.7955 20.5892L27.5444 21.0811L27.193 21.616L27.4338 21.7741L27.2427 22.065L27.002 21.9069L26.6484 22.4451ZM26.6111 20.87L26.4442 21.1241L26.8821 21.4118L27.049 21.1577L26.6111 20.87ZM26.2531 21.4149L26.0818 21.6757L26.5198 21.9634L26.6911 21.7026L26.2531 21.4149ZM25.2244 19.2652C25.3306 19.5408 25.4066 19.7965 25.4526 20.0325L25.0793 20.1127C25.0456 19.8944 24.9684 19.6331 24.8488 19.3344L25.2244 19.2652ZM24.6193 20.0116C24.719 20.3116 24.7852 20.5896 24.8202 20.8423L24.4469 20.9225C24.4209 20.6853 24.3546 20.4072 24.247 20.0829L24.6193 20.0116ZM24.2994 21.0888L24.5122 21.3913C24.1063 21.7325 23.7024 22.0414 23.3004 22.3182L23.0751 21.9692C23.5014 21.6989 23.9088 21.4066 24.2994 21.0888Z" fill="white"/>
<path d="M27.827 21.4436L29.1745 22.2611C29.1978 22.1068 29.2137 21.9574 29.2178 21.8195L29.5998 21.9764C29.5785 22.1272 29.5454 22.2896 29.5062 22.4623L30.8775 23.2943L30.6887 23.6055L29.3276 22.7798L29.1015 23.1525L30.213 23.8268L29.4432 25.0956C29.3104 25.3145 29.1257 25.3568 28.9 25.2198L28.5546 25.0103L28.6592 24.6527L28.9738 24.8669C29.0558 24.9167 29.1218 24.9006 29.1674 24.8253L29.7027 23.943L28.9127 23.4637L27.8255 25.2557L27.4972 25.0566L28.5844 23.2646L27.8354 22.8102L27.0387 24.1234L26.7207 23.9305L27.7062 22.306L28.7732 22.9533L28.9993 22.5806L27.6382 21.7548L27.827 21.4436Z" fill="white"/>
<path d="M31.19 24.7924C31.0187 24.8619 30.8423 24.9241 30.6573 24.9769L30.7452 24.5635C31.3233 24.3631 31.8455 24.0492 32.3121 23.613L32.5452 23.9347C32.3121 24.1483 32.0568 24.336 31.7829 24.4995L30.4851 26.8352L30.1564 26.6525L31.19 24.7924ZM32.3882 24.2089L33.0596 24.582L33.3891 24.2114L33.6967 24.4235C33.593 24.5443 33.4896 24.6562 33.3917 24.7665L34.3987 25.3261L34.22 25.6478L33.1291 25.0416C33.03 25.1375 32.9383 25.2285 32.8485 25.3159L34.1807 26.0561L34.0039 26.3743L32.5669 25.5758C32.4441 25.6814 32.3306 25.7785 32.2176 25.8667L33.6092 26.64L33.4498 26.9267C33.1856 27.0728 32.848 27.178 32.428 27.2421C32.5321 27.4006 32.6289 27.5642 32.7167 27.7274L32.3685 27.9092C32.1013 27.3854 31.7851 26.9168 31.4288 26.5038L31.7529 26.3407C31.9199 26.5342 32.0741 26.7343 32.2194 26.934C32.5574 26.9021 32.8465 26.8431 33.085 26.7514L31.6165 25.9354C31.8279 25.7692 32.0381 25.5885 32.2487 25.399L31.6962 25.092L31.873 24.7738L32.5269 25.1371C32.6186 25.0462 32.7103 24.9553 32.8004 24.859L32.2095 24.5306L32.3882 24.2089Z" fill="white"/>
<path d="M34.9379 28.1202L34.7731 28.4447C34.3652 28.4439 33.9255 28.391 33.4611 28.2807L33.5939 27.922C34.0779 28.0467 34.5283 28.114 34.9379 28.1202ZM35.5548 25.3692L35.8141 25.6625C35.4273 25.9999 35.0804 26.2589 34.7752 26.4358C34.9037 26.4831 35.034 26.5269 35.1661 26.5671C35.2847 26.4838 35.4123 26.3916 35.5435 26.2922L35.7887 26.5603C35.228 26.9575 34.7862 27.2355 34.4596 27.3926C34.7115 27.4443 34.976 27.48 35.255 27.4961L35.0974 27.8064C34.6307 27.7712 34.209 27.6916 33.8341 27.5729L33.9044 27.2138C33.9795 27.216 34.0457 27.2093 34.1084 27.1918C34.2788 27.1303 34.5211 26.9977 34.8355 26.794C34.6569 26.7392 34.4731 26.6772 34.2821 26.6115L34.3541 26.2578C34.4185 26.2636 34.492 26.2426 34.5674 26.2001C34.8998 25.9697 35.2289 25.6927 35.5548 25.3692ZM35.4616 27.3543L35.5389 27.0167C35.571 27.0241 35.6014 27.026 35.6193 27.0261C35.7662 27.002 36.0085 26.8694 36.3392 26.6336L35.7864 26.3528L35.9513 26.0283L36.8179 26.4685C36.833 26.3326 36.841 26.2021 36.8418 26.0769L37.2167 26.1956C37.2051 26.3332 37.1881 26.4816 37.1602 26.6424L37.9412 27.0392L37.7764 27.3637L36.6922 26.813C36.4263 27.0009 36.2054 27.1354 36.0259 27.2237C36.3293 27.3419 36.6363 27.453 36.9433 27.5552C36.9227 27.4191 36.9003 27.2866 36.8779 27.154L37.2162 27.124C37.2976 27.5467 37.3436 27.9066 37.356 28.2L36.9997 28.2478C36.9986 28.1441 36.9903 28.0367 36.9839 27.9257C36.5072 27.7688 35.9986 27.5778 35.4616 27.3543ZM35.6693 27.5989L35.9974 27.7656C35.7495 28.2094 35.524 28.5121 35.3244 28.6754C35.1086 28.844 34.8396 28.9496 34.5138 28.9905L34.4357 28.6143C34.7006 28.5874 34.9212 28.5065 35.0973 28.3716C35.2663 28.2421 35.4558 27.984 35.6693 27.5989ZM36.2046 29.7776L35.9764 29.6617C35.7232 29.533 35.6563 29.3555 35.7705 29.1308L36.3882 27.9148L36.7128 28.0796L36.1276 29.2315C36.0986 29.2886 36.1019 29.3351 36.1411 29.364L36.3408 29.4654C36.4086 29.4909 36.4714 29.4645 36.522 29.3825C36.5816 29.2917 36.6594 29.1562 36.75 28.9779L36.9899 29.2299C36.8159 29.5722 36.6823 29.7646 36.5926 29.8177C36.5064 29.8636 36.3759 29.8467 36.2046 29.7776Z" fill="white"/>
<path d="M39.7152 28.1467L38.4982 27.5857L38.6506 27.2552L41.4368 28.5396L41.2844 28.8701L40.0639 28.3075L39.0457 30.5161L40.4952 31.1843L40.3411 31.5185L37.0899 30.0197L37.244 29.6855L38.697 30.3553L39.7152 28.1467Z" fill="white"/>
<path d="M41.7424 28.7424L42.5769 29.09L42.7107 28.7688L43.0689 28.9179L42.9351 29.2392L43.8213 29.6083L43.9551 29.2871L44.3133 29.4362L44.1795 29.7575L45.014 30.1051L44.8771 30.4337L44.0426 30.0861L43.9211 30.3778L43.5629 30.2286L43.6844 29.9369L42.7982 29.5678L42.6767 29.8595L42.3186 29.7103L42.4401 29.4186L41.6056 29.0711L41.7424 28.7424ZM41.7647 29.6356L44.2165 30.6569L44.0766 30.9929C42.8304 31.1238 41.9978 31.271 41.5825 31.436C41.4465 31.492 41.3588 31.5465 41.3127 31.6052C41.2896 31.6606 41.3068 31.7025 41.3733 31.7302L43.1863 32.4853C43.286 32.5268 43.3743 32.5333 43.446 32.5068C43.5162 32.484 43.6497 32.2883 43.8465 31.9197L44.1161 32.188C43.8971 32.5994 43.7193 32.8286 43.579 32.8742C43.4439 32.9176 43.2778 32.9004 43.0857 32.8204L41.2579 32.0591C40.933 31.9238 40.8219 31.7432 40.9173 31.5142C40.9819 31.3591 41.1806 31.2253 41.5061 31.1095C41.9347 30.9544 42.599 30.8368 43.4932 30.7499L41.6248 29.9717L41.7647 29.6356Z" fill="white"/>
<path d="M44.769 33.5614L44.4463 33.442L44.4948 33.0804C44.5868 33.1315 44.674 33.1723 44.7641 33.2056C44.8504 33.2375 44.9134 33.2054 44.9495 33.1078L45.2478 32.3012C45.0933 32.3038 44.9416 32.2989 44.7899 32.2939L44.8285 31.9244C45.0075 31.9479 45.1906 31.9602 45.3741 31.9598L45.6752 31.1457L45.2513 30.989L45.3775 30.6476L45.8015 30.8043L46.0443 30.1478L46.3894 30.2755L46.1466 30.932L46.5143 31.068L46.388 31.4094L46.0203 31.2734L45.772 31.9449C45.9217 31.9321 46.0705 31.9104 46.2193 31.8886L46.0902 32.2375C45.9428 32.2555 45.7968 32.2697 45.6471 32.2826L45.2613 33.3255C45.1711 33.5694 45.0053 33.6488 44.769 33.5614ZM46.5682 32.329C46.2617 32.9961 45.896 33.5006 45.4711 33.8424L45.2921 33.5075C45.7222 33.1633 46.0886 32.5994 46.395 31.8171L46.8501 30.5866L48.8422 31.3234L48.7187 31.6573L47.0643 31.0454L46.7326 31.942C46.7243 31.9645 46.7136 31.9819 46.7053 32.0044L48.3973 32.6302L48.2752 32.9603L47.6111 32.7147C47.5586 32.8915 47.5327 33.0653 47.532 33.2399C47.7004 33.1998 47.8761 33.1283 48.0582 33.0166L48.2038 33.3263C47.9899 33.4434 47.7697 33.5197 47.5498 33.5493C47.5896 33.8455 47.6976 34.1413 47.8754 34.4331L47.5363 34.5892C47.1868 33.9311 47.1122 33.268 47.3148 32.6051L47.0859 32.5205L46.6308 33.751C46.7975 33.7615 46.9632 33.7631 47.1252 33.7633L47.0958 34.0851C46.8093 34.0985 46.4796 34.0789 46.104 34.0338L46.116 33.7014C46.2302 33.6924 46.3081 33.6317 46.347 33.5266L46.7633 32.4011L46.5682 32.329ZM47.1114 31.4253L48.4695 31.9276L48.3501 32.2503L46.9921 31.748L47.1114 31.4253Z" fill="white"/>
<path d="M48.5692 32.971L50.6803 33.6577C51.12 33.237 51.5301 32.7521 51.9144 32.2041L52.2287 32.4535C51.8128 33.0081 51.4213 33.4486 51.0607 33.7814L52.0383 34.0993L51.9245 34.4493L48.4554 33.321L48.5692 32.971ZM49.6022 31.696C49.6797 32.0914 49.7347 32.5172 49.7709 32.9749L49.3741 33.0309C49.3492 32.5643 49.2955 32.1346 49.2117 31.7457L49.6022 31.696ZM50.5932 31.7659C50.6595 32.1829 50.7032 32.6304 50.7282 33.1096L50.339 33.1681C50.3165 32.6812 50.2702 32.2287 50.1976 31.8182L50.5932 31.7659ZM49.419 33.7984L49.6941 34.0646C49.2932 34.4179 48.8664 34.6955 48.4087 34.9L48.1775 34.5892C48.6226 34.3975 49.0356 34.1364 49.419 33.7984ZM50.8909 34.2519C51.1364 34.7902 51.3092 35.2418 51.4156 35.613L51.0143 35.7348C50.9139 35.332 50.7486 34.8702 50.5197 34.3457L50.8909 34.2519Z" fill="white"/>
<path d="M53.7254 35.7548C53.3206 35.9986 52.7486 36.1125 52.0134 36.0976L51.9005 35.7295C52.6698 35.7415 53.2259 35.6398 53.566 35.4194L53.6563 35.3491L52.1618 34.9303L52.259 34.5837L53.9421 35.0554C54.0993 34.8502 54.2256 34.6072 54.3209 34.3265L54.4525 33.8566L54.8069 33.9559L54.6752 34.4258C54.5838 34.7076 54.4691 34.9538 54.3273 35.1633L55.5367 35.5022L55.4396 35.8489L54.0799 35.4679C54.0521 35.4933 54.0242 35.5187 54.0001 35.5452C54.4734 35.9021 54.8934 36.2857 55.2625 36.6882L54.9737 36.9479C54.5868 36.4906 54.1699 36.0954 53.7254 35.7548ZM53.0148 34.0062C53.257 34.1946 53.4696 34.3995 53.6526 34.6211L53.3829 34.8571C53.1948 34.6092 52.9833 34.4003 52.7572 34.229L53.0148 34.0062ZM53.5434 33.5728C53.7867 33.7573 53.9992 33.9622 54.1784 34.1827L53.9087 34.4187C53.7195 34.1746 53.513 33.963 53.2868 33.7917L53.5434 33.5728ZM55.9932 33.74L55.7719 34.5296L55.4175 34.4303L55.5449 33.9758L53.0336 33.2721L52.9063 33.7266L52.5519 33.6273L52.7732 32.8377L54.2176 33.2424C54.2054 33.1227 54.1911 33.0107 54.1708 32.9053L54.5617 32.9484C54.5777 33.0692 54.5866 33.2005 54.5873 33.3461L55.9932 33.74Z" fill="white"/>
<path d="M56.7093 34.1165L57.2742 34.2477C57.2478 34.0609 57.2148 33.8849 57.1704 33.7226L57.5637 33.7442C57.5928 33.9193 57.6174 34.1139 57.6327 34.331L58.0924 34.4378L58.0091 34.7963L57.2494 34.6198L57.1435 35.0756L57.8331 35.2359C57.5977 36.2489 57.4325 36.8716 57.3461 37.1021C57.2528 37.3268 57.0533 37.4077 56.7416 37.3353C56.7105 37.3281 56.6577 37.3076 56.5855 37.2826L56.5806 36.9324C56.6481 36.9604 56.7086 36.9827 56.7631 36.9954C56.8995 37.027 56.9967 36.9798 57.0548 36.8537C57.105 36.7257 57.2226 36.2726 57.4106 35.4991L57.0599 35.4176C56.8365 36.2732 56.5448 36.8748 56.1848 37.2224L55.9643 36.9165C56.2906 36.5899 56.5545 36.0024 56.7539 35.1617L56.8987 34.5383L56.626 34.4749L56.7093 34.1165ZM58.601 34.7942C58.4072 35.0448 58.2069 35.2529 57.9992 35.4223L57.8246 35.0778C58.1215 34.8429 58.4096 34.4869 58.6918 34.0145L59.0204 34.173C58.9543 34.2808 58.89 34.3809 58.8257 34.4809L60.1699 34.7932L60.0893 35.14L58.601 34.7942ZM59.8525 35.5408C59.6796 36.285 59.5551 36.7324 59.4877 36.881C59.4164 37.0287 59.2533 37.077 58.9961 37.0173L58.9766 37.0128L58.9555 36.6793C59.0218 36.6947 59.0793 36.7122 59.13 36.724C59.1728 36.7339 59.2092 36.7013 59.2341 36.6291C59.2573 36.5646 59.3203 36.3288 59.4145 35.9236L59.0939 35.96L58.7988 37.2301L58.456 37.1505L58.723 36.0011L58.3986 36.0366L58.1623 37.0535C58.1224 37.2249 58.1601 37.3281 58.277 37.3553L59.0133 37.5264C59.0952 37.5454 59.162 37.5404 59.21 37.5105C59.2677 37.4746 59.3305 37.3455 59.3995 37.1192L59.6955 37.2947C59.5825 37.6217 59.4779 37.8068 59.3759 37.857C59.2844 37.8974 59.1603 37.9014 58.9967 37.8633L58.0966 37.6542C57.8317 37.5927 57.7399 37.3866 57.8196 37.0437L58.0441 36.0774L57.7448 36.1106L57.8227 35.7755L58.122 35.7424L58.2433 35.2203L58.5705 35.2963L58.4764 35.7015L58.8018 35.6621L58.9439 35.0504L59.2867 35.1301L59.1727 35.621L59.8525 35.5408Z" fill="white"/>
<path d="M61.3255 35.153L60.712 35.0389L60.7705 34.7243L62.0683 34.9656C62.0493 34.8929 62.0295 34.8241 62.0083 34.7632L62.425 34.7756C62.4426 34.8562 62.4626 34.9453 62.4773 35.0416L63.838 35.2946L63.7795 35.6092L63.1542 35.493L62.9963 35.7077L63.9204 35.8796L63.8605 36.202L60.4234 35.563L60.4833 35.2405L61.376 35.4065L61.3255 35.153ZM61.7654 35.4789L62.6069 35.6354L62.7649 35.4206L61.7148 35.2254L61.7654 35.4789ZM60.8017 35.8042L63.4208 36.2912L63.1926 37.5181L60.5735 37.0312L60.8017 35.8042ZM62.8796 37.167L62.9161 36.9704L61.0285 36.6194L60.9919 36.816L62.8796 37.167ZM61.0782 36.352L62.9658 36.7029L63.0017 36.5102L61.114 36.1593L61.0782 36.352ZM60.3956 37.1568L60.7435 37.2988C60.5953 37.5926 60.4197 37.8366 60.2161 38.0347L59.9309 37.7742C60.1277 37.5911 60.2795 37.3874 60.3956 37.1568ZM62.2318 38.4624L61.2723 38.284C60.9695 38.2277 60.8456 38.0623 60.8953 37.7949L60.9889 37.2915L61.3665 37.3617L61.2875 37.7864C61.2692 37.8847 61.3187 37.9468 61.4406 37.9695L62.2232 38.115C62.294 38.1281 62.348 38.1219 62.3807 38.0995C62.4266 38.0714 62.4731 37.9743 62.521 37.8042L62.8538 37.984C62.7711 38.2535 62.6846 38.4123 62.5879 38.4513C62.5044 38.4846 62.3852 38.4909 62.2318 38.4624ZM61.9745 37.3079C62.1026 37.4945 62.195 37.6541 62.2549 37.7913L61.904 37.9499C61.8377 37.8033 61.7428 37.6351 61.6187 37.4493L61.9745 37.3079ZM63.1862 37.6186C63.3549 37.9145 63.4784 38.1694 63.5574 38.3793L63.2065 38.5378C63.124 38.3028 63.006 38.0408 62.8483 37.7511L63.1862 37.6186Z" fill="white"/>
<path d="M67.3463 35.7282L67.0395 37.943L66.6591 37.8903L66.9149 36.044L65.2587 35.8145L65.0024 37.6649L64.622 37.6122L64.9294 35.3933L67.3463 35.7282ZM65.8416 36.1255L66.214 36.1771L66.1114 36.918C66.0738 37.1308 66.0231 37.3217 65.9583 37.4985L66.295 37.5451L66.1655 38.4802C66.1452 38.6268 66.1863 38.7092 66.2893 38.7235L66.8678 38.8036C66.9153 38.8102 66.9656 38.797 67.0101 38.7668C67.0592 38.7332 67.114 38.5712 67.1704 38.2802L67.5145 38.449C67.4177 38.8273 67.3309 39.0455 67.2537 39.1075C67.1657 39.1599 67.0538 39.1807 66.9179 39.17L66.1374 39.0618C65.8521 39.0223 65.7331 38.8322 65.7798 38.4954L65.8972 37.6475C65.7857 37.8986 65.648 38.1056 65.479 38.276C65.1714 38.5726 64.7123 38.7675 64.1007 38.8685L63.9425 38.5235C64.5542 38.4225 64.9867 38.2442 65.2362 37.988C65.484 37.7154 65.6487 37.3425 65.7389 36.8664L65.8416 36.1255Z" fill="white"/>
<path d="M69.0964 35.6928L69.5409 37.6871L68.3618 39.3558L68.0763 39.1517L69.1644 37.6116L68.7543 35.771L69.0964 35.6928Z" fill="white"/>
<path d="M74.171 37.8347L73.0349 40.3763L72.7025 40.2277L72.7874 40.0378L72.2105 39.7799L72.0782 40.0757L71.7459 39.9271L72.9295 37.2796L73.2764 37.4347C73.4303 37.2669 73.5712 37.0889 73.6951 36.8902L74.0207 37.0927C73.8944 37.2773 73.7564 37.439 73.6087 37.5833L74.171 37.8347ZM72.3541 39.4586L72.9311 39.7165L73.2527 38.9971L72.6757 38.7392L72.3541 39.4586ZM72.8145 38.4288L73.3914 38.6867L73.6918 38.0148L73.1148 37.7569L72.8145 38.4288ZM74.4366 39.0049C74.5437 39.4121 74.614 39.7547 74.6406 40.0382L74.2802 40.1093C74.2492 39.8063 74.1785 39.4548 74.077 39.0545L74.4366 39.0049ZM76.0537 38.6807C75.4905 39.9405 75.1245 40.7102 74.9574 40.986C74.8034 41.2326 74.5693 41.2857 74.2589 41.1469C74.1859 41.1143 74.0577 41.0482 73.88 40.9556L73.938 40.6004C74.0954 40.6795 74.2309 40.7489 74.3478 40.8011C74.4939 40.8664 74.6121 40.8273 74.7026 40.6837C74.8061 40.5109 75.0913 39.9023 75.5639 38.8648L74.6473 38.4551C74.4471 38.6285 74.2405 38.7771 74.0201 38.8976L73.9344 38.5307C74.3321 38.2879 74.6911 37.9357 75.004 37.471L75.3277 37.6682C75.1997 37.8564 75.0637 38.0234 74.9253 38.1763L76.0537 38.6807Z" fill="white"/>
<path d="M77.3999 38.7581C77.5105 39.0848 77.5844 39.3872 77.6237 39.6621L77.2547 39.7353C77.231 39.4802 77.1627 39.1767 77.0464 38.8223L77.3999 38.7581ZM77.3505 43.0164C77.1667 42.8954 76.9684 42.7601 76.7568 42.616C76.5418 42.4697 76.378 42.3331 76.2596 42.2073C76.1524 42.0793 76.0882 41.9221 76.0628 41.7425C76.0534 41.6549 76.0309 41.6018 75.9908 41.5754C75.9206 41.5292 75.7014 41.6004 75.333 41.789L75.2421 41.4178C75.5873 41.2572 75.8498 41.1857 76.0274 41.2069L76.6498 40.2613L76.2021 39.9666L76.3957 39.6726L77.1407 40.1631L76.3094 41.426C76.3173 41.4504 76.323 41.4781 76.3265 41.5091C76.344 41.6499 76.3802 41.7695 76.4351 41.8679C76.5046 41.9807 76.6318 42.1075 76.8245 42.244C77.0128 42.3727 77.2344 42.5234 77.495 42.6949C77.6588 42.8027 77.828 42.9093 77.9973 43.0159C78.1665 43.1225 78.3012 43.2016 78.3958 43.2543L78.1123 43.5178L77.3505 43.0164ZM78.5253 39.973L77.8805 39.5486L78.0542 39.2846L79.8885 40.492L79.7411 40.7159C79.4374 40.7554 79.1379 40.7593 78.8382 40.7345C78.8405 40.7455 78.8449 40.7533 78.8472 40.7644L79.5188 41.2064L78.5423 42.6899C78.4125 42.887 78.2363 42.9147 78.0191 42.7717L77.7619 42.6024L77.8688 42.2944L78.0972 42.464C78.1707 42.5123 78.235 42.502 78.2834 42.4285L78.3956 42.2581L77.9144 41.9414L77.5537 42.4893L77.2631 42.298L77.6237 41.75L77.1526 41.4399L76.7876 41.9946L76.4869 41.7966L77.6745 39.9924L78.4429 40.4983C78.3811 40.3522 78.308 40.194 78.2194 40.0303L78.5253 39.973ZM78.7433 40.4566C78.9299 40.4788 79.1129 40.4844 79.2904 40.4767L78.542 39.984C78.6162 40.1478 78.6859 40.3038 78.7433 40.4566ZM77.4759 40.9488L77.322 41.1827L77.7931 41.4928L77.947 41.2589L77.4759 40.9488ZM78.2377 41.4502L78.0838 41.6841L78.5649 42.0008L78.7188 41.7669L78.2377 41.4502ZM78.8904 41.5063L79.0443 41.2724L78.5632 40.9557L78.4093 41.1896L78.8904 41.5063ZM78.1186 40.9983L78.2725 40.7644L77.8014 40.4543L77.6475 40.6882L78.1186 40.9983Z" fill="white"/>
<path d="M83.0825 43.3487L81.1392 45.7896L80.8513 45.5604L80.9933 45.382L80.4457 44.946L80.3012 45.1276L80.0133 44.8983L81.9591 42.4543L83.0825 43.3487ZM80.6674 44.6675L81.215 45.1035L82.5729 43.398L82.0252 42.962L80.6674 44.6675ZM80.5391 41.9323C80.3426 42.0315 80.1466 42.1106 79.9544 42.1723L79.8267 41.7997C80.2611 41.665 80.6567 41.4635 81.0103 41.1928L81.2546 41.4896C81.1287 41.5836 81.0039 41.6632 80.8816 41.7397L81.736 42.4199L81.5092 42.7046L81.0836 42.3658C80.9229 42.5548 80.769 42.7289 80.6182 42.8798L81.1064 43.2684L80.8797 43.5532L80.3508 43.1322C80.2835 43.191 80.213 43.2474 80.1507 43.3C80.1871 43.646 80.2092 44.0164 80.2201 44.4137L79.8194 44.5446C79.8446 44.1147 79.8538 43.7693 79.8469 43.5082C79.4539 43.7321 79.01 43.8337 78.5114 43.8049L78.5067 43.4126C79.024 43.4308 79.471 43.306 79.8533 43.0377C79.9132 42.9883 79.9787 42.9381 80.041 42.8855L79.4245 42.3947L79.6512 42.1099L80.3115 42.6356C80.4624 42.4847 80.6162 42.3107 80.777 42.1216L80.5391 41.9323Z" fill="white"/>
<path d="M83.976 43.5651L83.3852 45.5211L81.5391 46.3969L81.3905 46.079L83.0941 45.2706L83.6395 43.4655L83.976 43.5651ZM84.4945 44.0113L83.9036 45.9672L82.0575 46.8431L81.9089 46.5252L83.6126 45.7168L84.1459 43.9012L84.4945 44.0113Z" fill="white"/>
</svg>
