<svg width="123" height="49" viewBox="0 0 123 49" fill="none" xmlns="http://www.w3.org/2000/svg">
<path d="M5.91124 14.5567L6.01176 14.9081L4.18241 15.3919L3.32805 17.073L3.01432 16.9158L3.93993 15.0942L5.91124 14.5567ZM6.34316 15.087L6.43357 15.4261L4.61433 15.9223L3.75997 17.6034L3.44624 17.4462L4.37185 15.6246L6.34316 15.087Z" fill="white"/>
<path d="M7.55461 16.5751C7.50395 16.8211 7.4356 17.0773 7.34693 17.3407L7.0904 17.2354L7.63505 17.8591C7.9015 17.8176 8.19057 17.735 8.49924 17.6142L8.66862 17.9601C8.41189 18.0675 8.16047 18.1384 7.91659 18.1814L8.41651 18.7539L8.13934 18.9959L7.28157 18.0138L7.18818 18.0953C7.0383 18.2156 6.89258 18.3163 6.75064 18.4031L7.79785 19.6022L7.52067 19.8443L6.59976 18.7898C6.36414 19.2558 6.40682 19.8824 6.7248 20.6721L6.3063 20.7402C6.01285 19.8812 6.00636 19.1806 6.27855 18.6348C6.08959 18.7043 5.90517 18.7485 5.7283 18.7649C5.27823 18.7968 4.77828 18.644 4.22847 18.3063L4.34171 17.9312C4.89755 18.2636 5.361 18.4112 5.73468 18.3769C5.87205 18.3579 6.01056 18.3219 6.1472 18.2716L5.24733 17.2412L5.52451 16.9992L6.49278 18.1079C6.64037 18.0214 6.78872 17.9238 6.93558 17.8061L7.02898 17.7245L6.16858 16.7394L6.44576 16.4973L7.00883 17.142C7.09674 16.89 7.1583 16.6504 7.19916 16.4235L7.55461 16.5751Z" fill="white"/>
<path d="M9.36793 18.8151L11.4381 21.0249L11.1667 21.2792L10.2943 20.348L9.58202 21.0153L10.6458 22.1508L10.3685 22.4106L9.3047 21.2751L8.30929 22.2077C8.10496 22.3991 7.89868 22.3895 7.69905 22.1765L7.26422 21.7123L7.47808 21.4023C7.6088 21.5594 7.73696 21.7079 7.86276 21.8422C7.95027 21.9356 8.03781 21.9413 8.11955 21.8647L9.0449 20.9978L7.93459 19.8127L8.2119 19.5529L9.32222 20.738L10.0345 20.0707L9.09645 19.0695L9.36793 18.8151Z" fill="white"/>
<path d="M11.2936 23.2211L10.547 23.9791C10.8312 24.158 11.1381 24.3424 11.4675 24.5209L11.2946 24.839C10.8486 24.5906 10.4081 24.3196 9.9732 24.0316L10.0866 23.6998C10.1915 23.7301 10.2791 23.7096 10.3492 23.6384L12.053 21.9086C12.4654 22.2024 12.8632 22.4483 13.2494 22.6434L13.2042 23.0256C12.8692 22.8584 12.5083 22.6433 12.1188 22.3832L11.549 22.9618L12.3356 23.7365L12.0802 23.9958L11.2936 23.2211ZM12.0893 25.9474L11.8214 25.6835L12.0056 25.3484L12.2536 25.6039C12.3277 25.6769 12.4069 25.6706 12.4854 25.5908L13.9394 24.1146L13.378 23.5617L11.1718 25.8016L10.8982 25.5322L13.357 23.0357L14.4656 24.1276L12.7029 25.9173C12.4924 26.131 12.286 26.1411 12.0893 25.9474Z" fill="white"/>
<path d="M14.0863 25.2721L15.1052 24.6195L15.3436 24.9223L14.6923 25.3305L15.1307 25.7284C15.3859 25.5602 15.64 25.3695 15.896 25.1589L16.151 25.4552C15.9031 25.6569 15.6598 25.8358 15.424 25.9945L16.7806 27.2256L16.536 27.4952L15.1082 26.1995C14.9899 26.2704 14.874 26.3326 14.7637 26.3946L15.9486 27.4699L15.7336 27.7068C15.4361 27.8798 15.0921 27.9673 14.6954 27.9639C14.8077 28.2926 14.9753 28.6554 15.1955 29.0497L14.8085 29.1846C14.5683 28.729 14.3979 28.3097 14.2948 27.9352C13.9129 27.8858 13.4912 27.7731 13.0296 27.5973L13.1234 27.1963C13.5164 27.3585 13.8787 27.4712 14.2045 27.5346C14.1518 27.2059 14.1572 26.9083 14.221 26.6475C13.6099 26.8924 13.0231 26.9973 12.4637 26.9649L12.5551 26.5726C13.2918 26.5821 14.0432 26.3673 14.8091 25.928L14.0863 25.2721ZM14.5652 26.6789C14.5043 26.9424 14.5105 27.2451 14.5864 27.5841C14.9101 27.6024 15.1942 27.5631 15.4331 27.4665L14.5652 26.6789ZM16.6782 25.8742C16.7429 26.2137 16.7722 26.5266 16.7689 26.8099L16.3847 26.8285C16.406 26.567 16.3853 26.2565 16.3193 25.8887L16.6782 25.8742Z" fill="white"/>
<path d="M20.1528 28.809L20.3073 29.1241L18.6191 29.9642L18.1076 31.7792L17.7693 31.686L18.3234 29.7193L20.1528 28.809Z" fill="white"/>
<path d="M20.2846 29.7876L21.5736 30.7556C21.6057 30.5396 21.6115 30.3188 21.5932 30.09L21.9811 30.2063C21.981 30.4463 21.9528 30.7103 21.8934 30.9958L23.1056 31.9062L22.8798 32.2069L22.3904 31.8394C21.8718 32.2102 21.3396 32.4459 20.7916 32.5495C20.92 33.0712 21.1653 33.6105 21.5233 34.1596L21.1616 34.2881C20.7908 33.7095 20.5424 33.1477 20.4195 32.6052C19.8179 32.6536 19.1956 32.5564 18.5525 32.3136L18.5912 31.9224C19.2102 32.1772 19.7941 32.2856 20.3518 32.2492C20.2642 31.6331 20.3302 31.0324 20.5482 30.4557L20.0588 30.0882L20.2846 29.7876ZM20.8392 30.6743C20.6781 31.1686 20.6362 31.6774 20.719 32.1998C21.1919 32.1098 21.6464 31.9109 22.077 31.604L20.8392 30.6743Z" fill="white"/>
<path d="M24.8044 32.2502L25.0062 32.5882C24.7104 32.7846 24.3902 32.9453 24.0481 33.0672L22.5777 35.255L22.2656 35.0453L23.4884 33.226C23.2585 33.2739 23.021 33.3119 22.7779 33.3365L22.8992 32.9409C23.6085 32.8537 24.2439 32.6253 24.8044 32.2502ZM24.3376 36.351L23.7167 35.9338C23.4512 35.7553 23.4076 35.5332 23.5861 35.2677L24.2109 34.3381C24.0489 34.3208 23.8837 34.3014 23.7174 34.2763L23.7755 33.8816C24.0083 33.9224 24.2367 33.9554 24.4585 33.9696L25.3265 32.6782L25.6419 32.8901L24.9056 33.9857C25.3759 33.9886 25.8299 33.937 26.2607 33.8266L26.3125 34.2228C25.7785 34.3362 25.2236 34.3874 24.649 34.3675L23.9305 35.4365C23.868 35.5294 23.8866 35.6094 23.9928 35.6808L24.4875 36.0132C24.5638 36.0645 24.6381 36.0759 24.7081 36.0507C24.7748 36.0232 24.9163 35.8628 25.1282 35.5619L25.3556 35.8545C25.0758 36.2207 24.8765 36.4241 24.7631 36.4636C24.6465 36.5009 24.5035 36.4626 24.3376 36.351Z" fill="white"/>
<path d="M26.785 34.3909L28.1706 35.2148C28.1793 34.9966 28.1613 34.7765 28.1186 34.5509L28.5167 34.6248C28.5424 34.8635 28.5427 35.1289 28.5144 35.4192L29.8174 36.194L29.6253 36.5172L29.0992 36.2044C28.6235 36.6289 28.1197 36.9204 27.586 37.0823C27.7698 37.5872 28.0716 38.0971 28.4865 38.6044L28.1408 38.7711C27.7099 38.2357 27.4025 37.7039 27.2221 37.1778C26.6291 37.2906 26 37.2608 25.3345 37.0885L25.3309 36.6955C25.9738 36.8823 26.566 36.9272 27.1164 36.8311C26.9631 36.228 26.9642 35.6236 27.1189 35.0269L26.5928 34.7141L26.785 34.3909ZM27.4317 35.2129C27.3247 35.7217 27.3377 36.232 27.4762 36.7425C27.9367 36.6021 28.3672 36.3555 28.7623 36.0041L27.4317 35.2129Z" fill="white"/>
<path d="M31.9373 36.5738L32.2145 36.8211C32.0906 36.9732 31.9705 37.1092 31.8543 37.2291L33.2072 37.9306C32.5738 39.1522 32.1657 39.8958 31.9829 40.1615C31.7819 40.4448 31.5039 40.4943 31.1452 40.3084C31.0955 40.2826 31.0104 40.2295 30.8863 40.1561L30.9647 39.8137C31.0728 39.8833 31.165 39.9401 31.2502 39.9843C31.4455 40.0856 31.6125 40.0415 31.7477 39.8503C31.8611 39.6838 32.1828 39.0981 32.7147 38.0898L32.5549 38.0069C32.1785 38.5417 31.838 38.9464 31.5281 39.2137C31.1696 39.5054 30.7515 39.7122 30.2772 39.8448L30.2058 39.4698C30.6332 39.358 31.0027 39.1756 31.3212 38.9262C31.6093 38.6836 31.9204 38.3268 32.2495 37.8486L32.0435 37.7418C31.5039 38.4262 30.9503 38.8421 30.3793 38.9875L30.2934 38.6231C30.7961 38.5052 31.2806 38.1617 31.7453 37.5871L31.5677 37.495C31.3649 37.6602 31.168 37.7879 30.9772 37.8692L30.8372 37.5308C31.2064 37.3663 31.5743 37.0479 31.9373 36.5738ZM30.1725 36.9879C30.0558 37.1436 29.932 37.2867 29.8065 37.4244L29.5541 37.1899C29.8559 36.8687 30.1206 36.5059 30.3484 36.1013L30.6356 36.2773C30.5549 36.4157 30.4706 36.5522 30.3846 36.6833L30.5692 36.779L30.9375 36.0688L31.2642 36.2382L30.8959 36.9484L31.1551 37.0829L30.9857 37.4095L30.7265 37.2751L30.338 38.0244C30.4435 38.0295 30.5454 38.0328 30.6438 38.0343L30.4781 38.3539C30.3761 38.3506 30.2742 38.3473 30.1741 38.3404L29.5665 39.5123L29.2398 39.3429L29.7793 38.3024C29.5793 38.2798 29.3793 38.2482 29.1777 38.2113L29.269 37.8441C29.49 37.9046 29.7164 37.9544 29.9432 37.9864L30.3998 37.1057L30.1725 36.9879Z" fill="white"/>
<path d="M33.7987 38.1985L34.5373 38.5262C34.5047 38.3235 34.4619 38.1339 34.4037 37.9593L34.7542 37.9485C34.8185 38.139 34.869 38.3408 34.9041 38.5576L34.636 38.57L35.3746 38.8977C35.5727 38.7668 35.7574 38.6168 35.9323 38.4494L36.2152 38.7193C36.0601 38.8518 35.9006 38.9648 35.7365 39.0583L36.402 39.3536L35.706 40.9221L34.5762 40.4208L34.448 40.7096L35.9105 41.3586L35.7645 41.6876L34.302 41.0387L34.0116 41.6932L33.6679 41.5407L33.9583 40.8862L32.4958 40.2373L32.6419 39.9082L34.1043 40.5571L34.2325 40.2683L33.1027 39.767L33.7987 38.1985ZM35.5059 40.4657L35.6551 40.1294L34.8617 39.7773L34.7125 40.1137L35.5059 40.4657ZM34.3688 39.9612L34.518 39.6248L33.7246 39.2728L33.5754 39.6091L34.3688 39.9612ZM33.8544 38.9803L34.6478 39.3323L34.7938 39.0032L34.0004 38.6512L33.8544 38.9803ZM35.1375 39.1558L34.9915 39.4848L35.7849 39.8369L35.9309 39.5078L35.1375 39.1558Z" fill="white"/>
<path d="M38.1426 39.3671L38.4202 39.6438C38.2216 39.8947 38.0007 40.1246 37.7554 40.3286L36.8258 42.8592L36.4729 42.7296L37.2107 40.7208C37.0471 40.8184 36.881 40.9108 36.7102 40.9929L36.7331 40.5709C37.2761 40.2761 37.7463 39.8778 38.1426 39.3671ZM38.1834 40.0682L39.1521 40.424C39.1658 40.2245 39.1701 40.0386 39.1642 39.8574L39.5618 39.9353C39.5536 40.1198 39.5372 40.3268 39.5088 40.555L40.4663 40.9067L40.3408 41.2484L38.0579 40.4098L38.1834 40.0682ZM37.2424 42.4327L38.519 42.9016C38.885 42.4736 39.2727 41.9171 39.6782 41.2309L39.9881 41.4427C39.6215 42.058 39.2524 42.5872 38.8832 43.0354L39.6867 43.3306L39.5585 43.6798L37.1141 42.7819L37.2424 42.4327ZM38.4943 40.8343C38.4632 41.3599 38.3871 41.9498 38.2736 42.6069L37.9114 42.5719C38.0193 41.9766 38.0889 41.3928 38.1253 40.8181L38.4943 40.8343Z" fill="white"/>
<path d="M40.6633 41.013L42.2095 41.4689C42.164 41.2554 42.0922 41.0465 41.995 40.8385L42.3991 40.8117C42.4829 41.0366 42.5489 41.2938 42.5931 41.5821L44.0472 42.0109L43.9409 42.3715L43.3539 42.1984C42.9977 42.7273 42.5817 43.1342 42.1045 43.423C42.4073 43.8668 42.8257 44.2863 43.3532 44.6754L43.0594 44.9224C42.5096 44.51 42.0803 44.0707 41.7754 43.6054C41.2288 43.8612 40.6117 43.9879 39.9244 43.9854L39.8238 43.6054C40.4928 43.6275 41.0778 43.5248 41.5874 43.2956C41.2898 42.7491 41.1415 42.1632 41.144 41.5467L40.557 41.3736L40.6633 41.013ZM41.4931 41.6497C41.5151 42.1691 41.6538 42.6604 41.9142 43.1209C42.3256 42.8711 42.6819 42.5257 42.9779 42.0876L41.4931 41.6497Z" fill="white"/>
<path d="M45.7562 41.7165L46.0676 41.9573C45.8641 42.2482 45.625 42.5149 45.3511 42.7535L44.7828 45.3275L44.4156 45.2464L44.8882 43.106C44.6919 43.2347 44.4846 43.3569 44.2674 43.4687L44.2356 43.0561C44.8638 42.7156 45.3717 42.2706 45.7562 41.7165ZM46.8216 45.7039L46.0912 45.5427C45.7787 45.4737 45.657 45.2829 45.7259 44.9705L45.9674 43.8768C45.8104 43.92 45.6495 43.9623 45.4856 43.9998L45.3952 43.6112C45.6268 43.564 45.8515 43.5112 46.0631 43.4432L46.3986 41.9238L46.7697 42.0058L46.4851 43.2947C46.9239 43.1253 47.3276 42.9113 47.6882 42.651L47.8813 43.0008C47.4257 43.3017 46.928 43.5523 46.3859 43.7439L46.1082 45.0016C46.0841 45.111 46.1306 45.1786 46.2556 45.2062L46.8376 45.3347C46.9274 45.3545 47.0007 45.3379 47.0566 45.2888C47.1086 45.2389 47.1816 45.0379 47.2688 44.6803L47.5875 44.8694C47.461 45.3126 47.3498 45.5748 47.2588 45.653C47.1639 45.7304 47.0169 45.747 46.8216 45.7039Z" fill="white"/>
<path d="M49.4994 44.1176L48.7637 44.0069L48.537 45.514C48.5227 45.6089 48.5664 45.6681 48.6732 45.6841L49.3614 45.7877C49.4801 45.8055 49.56 45.7852 49.5966 45.73C49.6378 45.6715 49.6817 45.5406 49.7279 45.3412L50.0621 45.5128C49.9787 45.8522 49.8997 46.0547 49.8178 46.1152C49.7449 46.169 49.6097 46.181 49.4198 46.1524L48.4586 46.0078C48.2094 45.9703 48.1046 45.8332 48.1404 45.5959L48.423 43.717L48.2046 43.8783L48.0289 43.5404C48.4564 43.2528 48.8619 42.8972 49.2446 42.4774L49.5215 42.5191C49.8148 42.9354 50.0899 43.3651 50.3389 43.8071L50.055 44.0273C49.7827 43.5252 49.5542 43.1348 49.3611 42.859C49.1096 43.1327 48.8361 43.3908 48.5328 43.6324L49.9172 43.8407L49.753 44.9324C49.7163 45.1494 49.5804 45.2462 49.3407 45.2263C49.1864 45.2031 49.0407 45.1772 48.9034 45.1484L48.8654 44.7827C49.0094 44.8205 49.1348 44.8475 49.2455 44.8641C49.3365 44.8778 49.3911 44.8375 49.4042 44.7505L49.4994 44.1176ZM50.6389 43.023L51.0068 43.0783L50.6396 45.5188L50.2718 45.4635L50.6389 43.023ZM50.8317 46.3931L50.2344 46.3033L50.2015 45.9302C50.393 45.9752 50.5777 46.0111 50.7517 46.0373C50.8467 46.0516 50.9031 45.9994 50.9203 45.8847L51.3857 42.7915L51.7614 42.848L51.2818 46.0361C51.2402 46.313 51.0888 46.4318 50.8317 46.3931Z" fill="white"/>
<path d="M52.8919 43.4907L52.2699 43.4403L52.2958 43.1214L53.6114 43.228C53.585 43.1576 53.5583 43.0913 53.5309 43.0328L53.9468 43.0023C53.9725 43.0807 54.0016 43.1673 54.0261 43.2616L55.4056 43.3734L55.3797 43.6923L54.7458 43.6409L54.6108 43.8708L55.5477 43.9467L55.5212 44.2736L52.0367 43.9913L52.0631 43.6644L52.9682 43.7377L52.8919 43.4907ZM53.3629 43.7697L54.2161 43.8388L54.3511 43.609L53.2866 43.5227L53.3629 43.7697ZM52.4377 44.1924L55.093 44.4075L54.9922 45.6514L52.3369 45.4363L52.4377 44.1924ZM54.6447 45.3343L54.6609 45.135L52.7471 44.9799L52.731 45.1793L54.6447 45.3343ZM52.7691 44.7088L54.6828 44.8639L54.6987 44.6685L52.7849 44.5134L52.7691 44.7088ZM52.1728 45.5795L52.5335 45.685C52.4163 45.9925 52.2667 46.2533 52.0845 46.4713L51.7741 46.2415C51.951 46.0391 52.0811 45.8209 52.1728 45.5795ZM54.1336 46.6895L53.1608 46.6106C52.8538 46.5858 52.7136 46.434 52.7356 46.1628L52.7769 45.6525L53.1597 45.6835L53.1248 46.1141C53.1167 46.2138 53.1723 46.2705 53.2959 46.2805L54.0893 46.3448C54.1611 46.3506 54.2142 46.3388 54.2444 46.3132C54.2871 46.2805 54.3234 46.1791 54.3536 46.005L54.7031 46.1497C54.6486 46.4262 54.5788 46.5931 54.4866 46.6418C54.407 46.6835 54.2891 46.7021 54.1336 46.6895ZM53.759 45.5675C53.9055 45.7399 54.0139 45.8892 54.0876 46.0196L53.7548 46.2133C53.6738 46.0743 53.5621 45.9168 53.4196 45.7447L53.759 45.5675ZM54.9961 45.7521C55.1944 46.029 55.3435 46.2698 55.4436 46.4705L55.1108 46.6643C55.0047 46.439 54.8603 46.1905 54.6736 45.9186L54.9961 45.7521Z" fill="white"/>
<path d="M58.0052 43.1719C58.06 43.3005 58.1106 43.445 58.165 43.6055L59.5529 43.6192L59.5494 43.9792L58.8774 43.9725C58.8356 44.1521 58.7779 44.3276 58.7042 44.4949L59.6282 44.504L59.6246 44.8719L56.7847 44.844L56.7794 45.3839C56.7572 46.0078 56.6123 46.5104 56.3366 46.8877L56.0471 46.6288C56.2661 46.3269 56.3822 45.9121 56.3954 45.3802L56.4044 44.4722L57.2123 44.4802L57.0775 43.9548L56.3655 43.9478L56.3691 43.5878L57.777 43.6017C57.7263 43.4692 57.6675 43.3446 57.6046 43.232L58.0052 43.1719ZM57.5883 44.4839L58.3403 44.4913C58.4139 44.324 58.4716 44.1486 58.5134 43.969L57.4495 43.9585L57.5883 44.4839Z" fill="white"/>
<path d="M60.4524 43.3192L62.7146 43.1083L62.8442 44.4982L60.582 44.7092L60.4524 43.3192ZM62.4325 44.1751L62.3697 43.502L60.8642 43.6424L60.927 44.3154L62.4325 44.1751ZM61.5498 44.9202L61.7169 46.7125L61.3505 46.7466L61.3327 46.5555L60.5959 46.6242L60.6137 46.8153L60.2433 46.8499L60.0762 45.0576L61.5498 44.9202ZM60.5629 46.2697L61.2997 46.201L61.2168 45.3128L60.48 45.3816L60.5629 46.2697ZM63.4058 44.7472L63.5729 46.5394L63.1945 46.5747L63.1767 46.3835L62.408 46.4552L62.4259 46.6464L62.0555 46.6809L61.8884 44.8887L63.4058 44.7472ZM62.375 46.1007L63.1437 46.029L63.0608 45.1409L62.2922 45.2126L62.375 46.1007Z" fill="white"/>
<path d="M64.0136 43.0254L67.1066 42.4182L67.1774 42.7793L66.5494 42.9026L66.7344 43.8446L67.5626 43.682L67.6335 44.0431L66.8053 44.2057L67.139 45.9053L66.7661 45.9785L66.4324 44.2789L65.3805 44.4855C65.4183 44.8857 65.4077 45.2261 65.3416 45.5122C65.2571 45.8712 65.056 46.1756 64.7414 46.4208L64.4795 46.1461C64.7573 45.9 64.927 45.6221 64.9853 45.3172C65.0198 45.0984 65.0231 44.8451 64.9998 44.5602L64.1362 44.7297L64.0653 44.3686L64.9563 44.1937C64.9502 44.1623 64.9479 44.1301 64.9433 44.1066L64.7753 43.2509L64.0845 43.3865L64.0136 43.0254ZM65.1521 43.1769L65.3201 44.0326C65.3263 44.064 65.3277 44.0923 65.3331 44.1197L66.3615 43.9178L66.1766 42.9758L65.1521 43.1769Z" fill="white"/>
<path d="M68.0466 43.2916L68.0228 42.0818L68.4056 42.0368L68.4131 42.8055L68.9814 42.6397C68.9715 42.3342 68.9417 42.0179 68.8959 41.6896L69.2819 41.627C69.3243 41.9438 69.3496 42.2448 69.3616 42.5288L71.1203 42.0157L71.2222 42.3651L69.3714 42.9051C69.3699 43.043 69.3624 43.1744 69.3576 43.3008L70.8936 42.8527L70.9832 43.1599C70.9752 43.5039 70.87 43.8429 70.6598 44.1793C70.9986 44.2554 71.3956 44.3021 71.8468 44.3205L71.7595 44.721C71.2456 44.6875 70.799 44.6137 70.4259 44.5058C70.1841 44.8055 69.8677 45.1062 69.4765 45.4078L69.1837 45.1182C69.5273 44.868 69.8128 44.618 70.0372 44.3734C69.7294 44.2465 69.4785 44.0864 69.2895 43.8957C69.1788 44.5446 68.9616 45.0997 68.6416 45.5597L68.3549 45.2767C68.7481 44.6536 68.9577 43.9008 68.9835 43.0182L68.0466 43.2916ZM69.4962 43.6187C69.689 43.8083 69.9503 43.9612 70.279 44.0737C70.4637 43.8073 70.5788 43.5445 70.6213 43.2905L69.4962 43.6187ZM69.9146 41.3966C70.2378 41.519 70.5199 41.6575 70.7598 41.8084L70.5748 42.1457C70.363 41.9908 70.0875 41.8462 69.7395 41.7102L69.9146 41.3966Z" fill="white"/>
<path d="M71.9703 41.0788L72.3255 40.9438C72.3194 40.8263 72.3058 40.7116 72.2833 40.5961L72.6495 40.5125C72.664 40.6183 72.6719 40.718 72.6695 40.813L73.1369 40.6354L73.4922 41.5701C73.5475 41.164 73.5169 40.7006 73.4003 40.1801L73.7559 40.1134C73.8018 40.3356 73.836 40.5494 73.8518 40.7487L74.6183 40.4574L74.7463 40.7939L74.5556 40.8664C74.7614 41.4643 74.8561 42.006 74.8357 42.493C75.0937 42.6988 75.3565 42.8385 75.6265 42.9071L75.5345 43.2844C75.2832 43.2087 75.0359 43.0759 74.7926 42.886C74.7377 43.1807 74.6401 43.4531 74.4984 43.6995L74.1898 43.4617C74.3464 43.2096 74.4435 42.9245 74.4786 42.6116C74.2491 42.3907 74.0213 42.1179 73.8018 41.7991C73.7819 41.8708 73.7607 41.9388 73.7432 42.0053L73.5278 41.8775L73.0753 42.0495L73.2734 42.278L73.7894 42.0819L73.9031 42.381L73.1778 42.6567C73.1978 42.7433 73.215 42.8223 73.2345 42.8962L73.8889 42.6475C74.0807 43.1522 74.1636 43.4716 74.1464 43.6065C74.1241 43.7391 74.0369 43.8364 73.8828 43.9036L73.6509 43.9917L73.4498 43.7215L73.6816 43.6334C73.7513 43.6027 73.7848 43.5557 73.7821 43.4925C73.7729 43.4233 73.7316 43.2807 73.658 43.0647L73.2841 43.2068C73.2972 43.3088 73.3037 43.4048 73.306 43.4895C73.3001 43.7442 73.2408 43.9935 73.1267 44.2338L72.8047 44.0395C72.8928 43.8434 72.9401 43.6414 72.9495 43.441C72.9496 43.2612 72.9178 43.0423 72.8599 42.7775L72.5159 42.9083L72.4023 42.6092L72.9407 42.4045L72.7426 42.176L72.4322 42.2939L71.9703 41.0788ZM73.8644 41.3559C74.0676 41.6766 74.2739 41.9491 74.4869 42.172C74.468 41.8069 74.382 41.4117 74.2377 40.9872L73.8713 41.1265C73.867 41.2051 73.8664 41.2824 73.8644 41.3559ZM73.1904 41.7105L73.1094 41.4974L72.5598 41.7063L72.6408 41.9194L73.1904 41.7105ZM72.4617 41.4483L73.0113 41.2394L72.9232 41.0076L72.3736 41.2165L72.4617 41.4483ZM71.2306 41.0689C71.5203 41.1557 71.7749 41.2514 71.9974 41.3638L71.8522 41.6799C71.6551 41.5666 71.399 41.4671 71.0826 41.3777L71.2306 41.0689ZM71.5184 41.9951C71.7946 42.0913 72.0409 42.1988 72.2549 42.3228L72.1066 42.6531C71.9141 42.5294 71.6664 42.4181 71.3658 42.3141L71.5184 41.9951ZM72.2126 43.0108L72.5557 43.013C72.586 43.4979 72.5913 43.9623 72.5718 44.4062L72.214 44.3881C72.2368 43.9301 72.238 43.4718 72.2126 43.0108Z" fill="white"/>
<path d="M75.8477 40.4792L75.5685 40.6092L75.8724 41.262C76.1687 41.927 76.3225 42.504 76.3305 42.9856L75.9899 42.8794C75.9685 42.4923 75.8194 42.0014 75.5532 41.4105L74.7936 39.7786L76.4618 39.0022L76.6069 39.314L75.2579 39.942L75.4233 40.2973L76.6781 39.7133L76.8232 40.0252L76.1524 40.3374L76.3701 40.8052L77.0374 40.4947C77.381 41.2613 77.5728 41.7588 77.6132 41.9782C77.6483 42.1957 77.5706 42.351 77.3764 42.4458C77.3148 42.4745 77.2425 42.4993 77.1577 42.5256L76.9353 42.2849C77.0439 42.2432 77.1343 42.21 77.2068 42.1762C77.2832 42.1318 77.3 42.0446 77.2643 41.9112C77.227 41.7741 77.0894 41.4499 76.8567 40.9406L76.5049 41.1043C76.7887 41.7708 76.8734 42.3226 76.7628 42.7579L76.4273 42.6626C76.5262 42.2592 76.4282 41.7357 76.1347 41.0957L75.8477 40.4792ZM76.81 38.7077L77.1437 38.5524L77.4863 39.2885L78.1246 38.9915C78.6647 40.1519 78.9808 40.8784 79.0748 41.1655C79.1634 41.4508 79.0663 41.6592 78.7835 41.7909C78.7182 41.8213 78.6096 41.863 78.454 41.9266L78.2464 41.6703C78.382 41.6204 78.5014 41.5736 78.5993 41.528C78.7263 41.4689 78.7636 41.3501 78.7111 41.1804C78.6535 40.9998 78.3994 40.4254 77.954 39.4591L77.6312 39.6094C78.0922 40.6566 78.2364 41.5161 78.0726 42.1879L77.7284 42.0835C77.8667 41.4896 77.722 40.7143 77.3012 39.763L76.9168 39.9419L76.7683 39.6228L77.1527 39.4438L76.81 38.7077Z" fill="white"/>
<path d="M79.0825 40.0427L80.4525 39.2965C80.421 39.2135 80.384 39.1289 80.3342 39.0376L80.6574 38.8615C80.7071 38.9529 80.7441 39.0375 80.7792 39.1186L82.1456 38.3743L82.3236 38.701L81.0485 39.3955C81.4672 39.5956 82.0393 39.5755 82.7612 39.3372L82.7926 39.7209C81.942 39.9656 81.3112 39.9448 80.8967 39.6604C80.8718 40.175 80.5225 40.7296 79.8562 41.3294L79.5509 41.0949C80.1663 40.5775 80.4881 40.1061 80.518 39.6845L79.2605 40.3694L79.0825 40.0427ZM78.9604 37.6359L79.2977 37.4523L80.1893 39.0892L79.852 39.2729L79.6148 38.8373C79.441 39.0868 79.2209 39.3434 78.9653 39.6101L78.6635 39.3737C78.9717 39.0783 79.2282 38.7882 79.433 38.5036L78.9604 37.6359ZM78.3303 38.1431C78.5946 38.1267 78.8532 38.1498 79.1057 38.2036L79.0777 38.5787C78.8016 38.515 78.5411 38.4884 78.2946 38.5042L78.3303 38.1431ZM80.0034 37.0588L80.3652 36.9118C80.3754 36.9974 80.3785 37.0868 80.3762 37.1745L81.1841 36.7345L81.3372 37.0155C81.4715 37.6301 81.1912 38.2611 80.4981 38.9119L80.1777 38.7083C80.3946 38.5128 80.5687 38.3223 80.7016 38.1315C80.5551 38.0883 80.4178 38.0537 80.2898 38.0278L80.4244 37.7313C80.5741 37.7637 80.7206 37.8068 80.8655 37.8554C80.9742 37.6368 81.0222 37.4239 81.0185 37.2164L80.3124 37.601C80.2571 37.8088 80.166 38.0178 80.0445 38.2297L79.6954 38.0737C79.9245 37.7167 80.0272 37.3783 80.0034 37.0588Z" fill="white"/>
<path d="M82.7681 36.8636L82.5065 37.0262L82.8866 37.6377C83.2606 38.2624 83.4827 38.8167 83.5484 39.2938L83.1975 39.2293C83.1298 38.8476 82.9228 38.3781 82.5876 37.8235L81.6375 36.2947L83.2003 35.3235L83.3819 35.6156L82.1181 36.401L82.325 36.734L83.5005 36.0035L83.682 36.2957L83.0535 36.6862L83.3259 37.1245L83.951 36.736C84.3842 37.4558 84.6344 37.9267 84.7009 38.1397C84.7618 38.3514 84.7033 38.5149 84.5219 38.6323C84.4642 38.6682 84.3954 38.7016 84.3143 38.7378L84.0647 38.5256C84.1675 38.4712 84.2532 38.4273 84.3212 38.3851C84.3917 38.3318 84.3979 38.2432 84.3465 38.115C84.293 37.9835 84.1173 37.6782 83.8252 37.2004L83.4956 37.4052C83.8574 38.0328 84.0078 38.5704 83.9503 39.0159L83.6057 38.9616C83.6555 38.5491 83.4953 38.0412 83.1271 37.4412L82.7681 36.8636ZM83.5107 34.9893L83.8233 34.7951L84.2518 35.4847L84.8498 35.1131C85.5254 36.2003 85.9265 36.8835 86.0542 37.1573C86.1765 37.4299 86.1051 37.6485 85.8401 37.8132C85.779 37.8512 85.6762 37.9056 85.5293 37.9875L85.2925 37.7579C85.4211 37.6921 85.5341 37.6313 85.6258 37.5743C85.7447 37.5004 85.7675 37.3779 85.695 37.2158C85.6161 37.0434 85.2948 36.5037 84.7366 35.5979L84.4342 35.7858C85.0177 36.7701 85.264 37.606 85.1821 38.2927L84.8278 38.2303C84.8938 37.6242 84.657 36.8718 84.1251 35.9779L83.765 36.2017L83.5792 35.9028L83.9393 35.679L83.5107 34.9893Z" fill="white"/>
<path d="M88.096 35.4087C88.0266 35.8761 87.7506 36.3898 87.2713 36.9475L86.9155 36.8004C87.4142 36.2146 87.6895 35.7208 87.7358 35.3182L87.7391 35.2039L86.4652 36.0904L86.2595 35.7949L87.6943 34.7964C87.636 34.5446 87.5289 34.2926 87.3729 34.0405L87.0942 33.64L87.3962 33.4298L87.675 33.8303C87.8342 34.0801 87.9512 34.3252 88.0226 34.5679L89.0535 33.8505L89.2592 34.1459L88.1002 34.9525C88.1021 34.9902 88.1039 35.0279 88.1091 35.0633C88.6855 34.9253 89.2487 34.8452 89.7941 34.8166L89.8107 35.2046C89.2117 35.2121 88.6416 35.2823 88.096 35.4087ZM86.2949 34.8444C86.5943 34.7773 86.8877 34.7437 87.175 34.7435L87.1855 35.1017C86.8746 35.0891 86.5789 35.1194 86.3028 35.1849L86.2949 34.8444ZM86.2968 34.1608C86.5939 34.0905 86.8872 34.0569 87.1713 34.059L87.1818 34.4172C86.8732 34.4078 86.5785 34.4326 86.3024 34.498L86.2968 34.1608ZM87.9844 32.3772L88.4528 33.0502L88.1507 33.2604L87.8811 32.873L85.7405 34.3628L86.0101 34.7502L85.708 34.9604L85.2396 34.2873L86.4708 33.4305C86.3707 33.3637 86.2752 33.3035 86.181 33.2521L86.4629 32.9779C86.5662 33.0425 86.6732 33.1191 86.786 33.2112L87.9844 32.3772Z" fill="white"/>
<path d="M88.2766 32.391L88.7379 32.0395C88.5772 31.9407 88.4205 31.8539 88.2672 31.7847L88.5346 31.4954C88.688 31.5846 88.8537 31.6898 89.0306 31.8164L89.406 31.5303L89.6291 31.823L89.0087 32.2958L89.2924 32.668L89.8555 32.2389C90.4859 33.0661 90.8603 33.5904 90.9827 33.8039C91.0964 34.019 91.0316 34.2243 90.777 34.4183C90.7516 34.4377 90.7022 34.4653 90.6369 34.505L90.364 34.2855C90.4286 34.2514 90.4843 34.2189 90.5289 34.185C90.6402 34.1001 90.6658 33.9951 90.6056 33.87C90.5391 33.7497 90.265 33.3702 89.7889 32.7322L89.5025 32.9504C90.0193 33.6681 90.2967 34.2764 90.335 34.7753L89.9588 34.7502C89.9152 34.2905 89.6308 33.7127 89.1103 33.023L88.7224 32.514L88.4997 32.6837L88.2766 32.391ZM90.0048 31.3657C90.0744 31.6748 90.107 31.9618 90.105 32.2298L89.7284 32.1447C89.7367 31.7662 89.646 31.3173 89.462 30.7987L89.7937 30.6465C89.8346 30.7662 89.8707 30.8795 89.9067 30.9929L91.0044 30.1564L91.2201 30.4396L90.0048 31.3657ZM91.3779 30.8776C91.841 31.4852 92.1063 31.8664 92.1778 32.0131C92.2462 32.1622 92.1794 32.3187 91.9694 32.4787L91.9535 32.4908L91.6832 32.2945C91.7373 32.2533 91.7874 32.2201 91.8288 32.1886C91.8638 32.1619 91.8618 32.1131 91.8221 32.0478C91.7872 31.9889 91.6457 31.79 91.3936 31.4591L91.2172 31.7292L92.0076 32.7664L91.7276 32.9798L91.0124 32.0412L90.8329 32.3138L91.4657 33.1442C91.5724 33.2842 91.6759 33.321 91.7713 33.2482L92.3726 32.79C92.4394 32.7391 92.4782 32.6844 92.4858 32.6283C92.4948 32.5611 92.4354 32.4303 92.3051 32.2329L92.629 32.1168C92.8089 32.4122 92.8848 32.6109 92.8585 32.7215C92.8312 32.8177 92.7552 32.9159 92.6216 33.0177L91.8866 33.5778C91.6703 33.7426 91.453 33.6819 91.2397 33.4019L90.6384 32.6129L90.4731 32.8646L90.2646 32.591L90.4299 32.3393L90.105 31.913L90.3722 31.7093L90.6244 32.0402L90.8015 31.7644L90.4208 31.2649L90.7008 31.0516L91.0063 31.4525L91.3779 30.8776Z" fill="white"/>
<path d="M93.9838 30.8431L94.2111 31.1171C94.0372 31.4588 93.8059 31.8066 93.5173 32.1603L93.248 31.9108C93.5582 31.5392 93.8043 31.1843 93.9838 30.8431ZM91.6467 29.097L92.0014 28.9795C92.1836 29.4624 92.3041 29.877 92.3658 30.2208C92.4479 30.1318 92.5281 30.0342 92.6051 29.9391C92.565 29.7905 92.5228 29.6332 92.4756 29.4697L92.8077 29.3501C92.9834 30.0255 93.0893 30.5353 93.1192 30.8847C93.261 30.7047 93.4012 30.5104 93.5313 30.3038L93.7458 30.5624C93.5258 30.9112 93.29 31.2159 93.0472 31.4745L92.767 31.2808C92.7983 31.2184 92.8179 31.1606 92.8263 31.1017C92.8256 30.9255 92.7827 30.6545 92.6975 30.2886L92.337 30.7124L92.0594 30.5217C92.0871 30.4675 92.0965 30.3974 92.0864 30.3226C91.9808 29.9321 91.8342 29.5236 91.6467 29.097ZM93.3986 28.4962L92.9707 28.8511L93.6295 29.6454L94.0575 29.2905L93.3986 28.4962ZM94.2771 29.5552L93.8492 29.9102L94.5336 30.7353L94.9615 30.3803L94.2771 29.5552ZM95.2263 30.1607L95.6419 29.8159L94.9575 28.9908L94.5419 29.3356L95.2263 30.1607ZM94.3222 29.0708L94.7379 28.7261L94.079 27.9318L93.6634 28.2765L94.3222 29.0708ZM95.8615 30.0807L94.7532 31L94.9039 31.1817L94.636 31.4039L92.4806 28.8055L94.1339 27.4341L96.2893 30.0325L96.0122 30.2623L95.8615 30.0807Z" fill="white"/>
<path d="M95.5831 25.9381L97.255 27.8182L96.98 28.0627L95.55 26.4546L94.7668 27.151L96.2208 28.7861L95.9458 29.0306L94.25 27.1236L95.5831 25.9381ZM96.9276 28.2325C97.2684 28.2185 97.5763 28.2337 97.8544 28.2755L97.8279 28.6791C97.5761 28.6247 97.2658 28.6008 96.9031 28.6022L96.9276 28.2325ZM95.1807 27.0988L95.4557 26.8543L96.2877 27.7898C96.5894 28.1532 96.7675 28.4979 96.828 28.8188C96.8723 29.1274 96.8046 29.4606 96.6193 29.8181L96.232 29.7075C96.4106 29.3667 96.479 29.0704 96.4364 28.8299C96.3832 28.5774 96.24 28.314 96.0127 28.0344L95.1807 27.0988ZM96.0049 25.8466L96.2799 25.6021L97.9226 27.4493L97.6476 27.6939L96.0049 25.8466ZM98.7714 27.8079L98.3619 28.1721L98.0516 27.9556C98.1911 27.8476 98.322 27.7419 98.4415 27.6356C98.5282 27.5585 98.5332 27.4738 98.4588 27.3901L96.3854 25.0586L96.6664 24.8088L98.8035 27.212C98.9896 27.4212 98.9807 27.6218 98.7714 27.8079Z" fill="white"/>
<path d="M97.5506 23.9236L97.8105 23.6803C97.8737 23.9937 97.9689 24.2827 98.096 24.5472C98.2435 24.8804 98.4404 25.1727 98.6783 25.4268C98.9133 25.6779 99.192 25.8937 99.5175 26.0658C99.7703 26.2071 100.052 26.3211 100.364 26.4078L100.104 26.6511C99.7861 26.5868 99.4951 26.4867 99.2307 26.3506C98.9078 26.1871 98.6262 25.9741 98.3802 25.7112C98.1314 25.4455 97.9347 25.1475 97.7956 24.8175C97.6718 24.5389 97.591 24.2419 97.5506 23.9236Z" fill="white"/>
<path d="M101.058 23.3128L100.812 23.5535L100.563 23.2992L101.321 22.5575L101.57 22.8119L101.324 23.0526L102.012 23.7556C102.102 23.618 102.188 23.4775 102.269 23.3369L102.518 23.5912C102.336 23.9033 102.129 24.2236 101.894 24.5492L101.573 24.3535C101.648 24.2581 101.722 24.1627 101.794 24.0645L101.058 23.3128ZM103.365 23.4389C103.262 23.5397 103.092 23.5549 102.867 23.4846C102.599 23.3941 102.301 23.2213 101.975 22.9689C101.695 22.751 101.373 22.4676 101.003 22.1129L100.12 22.9777L99.8623 22.7148L100.74 21.8556C100.577 21.7012 100.412 21.5325 100.244 21.3611L100.507 21.1036C100.681 21.2808 100.843 21.4465 101.003 21.5981L101.549 21.0636L101.806 21.3266L101.266 21.8555C101.705 22.2816 102.078 22.6051 102.376 22.8289C102.752 23.0987 102.983 23.203 103.074 23.1417C103.114 23.0912 102.995 22.8778 102.727 22.5016L103.112 22.4661C103.415 22.9812 103.502 23.3046 103.365 23.4389ZM100.744 20.8657C100.993 20.8796 101.199 20.9072 101.363 20.9372L101.303 21.2534C101.128 21.2119 100.917 21.1843 100.673 21.1647L100.744 20.8657ZM98.8975 22.7414C99.2118 22.7079 99.4976 22.7024 99.7575 22.7278L99.7565 23.0983C99.5163 23.0704 99.2249 23.0758 98.8908 23.1119L98.8975 22.7414ZM99.3233 23.948L99.9663 23.3183L101.119 24.4958C101.121 24.3657 101.119 24.2271 101.112 24.0771L101.464 24.293C101.472 24.6212 101.451 24.9378 101.4 25.2455L101.059 25.1033C101.066 25.0186 101.047 24.9476 100.994 24.8933L99.958 23.8359L99.5779 24.2081L99.3233 23.948Z" fill="white"/>
<path d="M102.539 19.3791L103.895 17.9749L104.163 18.2333L102.807 19.6375L102.539 19.3791ZM103.189 20.1457L104.734 18.5459L105.002 18.8043L104.568 19.2531L105.788 20.4313C105.973 20.6091 105.965 20.8016 105.767 21.0059L105.364 21.4231L105.038 21.2251C105.178 21.1039 105.309 20.98 105.425 20.8591C105.506 20.7757 105.516 20.7019 105.455 20.6436L104.302 19.5294L103.457 20.4041L103.189 20.1457ZM101.926 19.7321L102.283 19.5929C102.449 20.054 102.481 20.5852 102.379 21.1981L102.025 21.0175C102.096 20.5467 102.063 20.1201 101.926 19.7321ZM102.716 20.2332L103.07 20.0969C103.15 20.3246 103.202 20.5641 103.226 20.8155L104.648 22.1881L104.39 22.4557L103.236 21.3415C103.225 21.5312 103.206 21.7239 103.172 21.9253L102.824 21.7447C102.911 21.1944 102.876 20.6887 102.716 20.2332Z" fill="white"/>
<path d="M104.113 17.368L104.355 17.1071C104.67 17.1492 104.968 17.2287 105.25 17.3484C105.577 17.4891 105.879 17.6817 106.146 17.9294C106.41 18.1743 106.621 18.458 106.789 18.7773C106.923 19.044 107.024 19.3346 107.093 19.6491L106.85 19.91C106.76 19.602 106.645 19.3204 106.505 19.0652C106.329 18.7434 106.115 18.4627 105.862 18.2286C105.607 17.9918 105.312 17.799 104.981 17.65C104.713 17.5269 104.423 17.4329 104.113 17.368Z" fill="white"/>
<path d="M105.617 15.7477L107.561 16.3784L108.399 18.2419L108.078 18.384L107.304 16.6642L105.511 16.0821L105.617 15.7477Z" fill="white"/>
<path d="M109.364 12.5499L111.477 14.3622L111.241 14.6385L111.083 14.5031L110.671 14.9829L110.917 15.1938L110.68 15.4701L108.479 13.5822L108.726 13.2938C108.609 13.0985 108.479 12.9128 108.323 12.7375L108.61 12.4829C108.751 12.6564 108.867 12.8348 108.963 13.0175L109.364 12.5499ZM110.404 14.7537L110.815 14.274L110.217 13.761L109.806 14.2407L110.404 14.7537ZM109.548 14.0194L109.959 13.5397L109.4 13.0605L108.989 13.5403L109.548 14.0194ZM110.562 12.6283C110.982 12.6414 111.331 12.6714 111.61 12.7266L111.576 13.0923C111.277 13.0358 110.919 13.0036 110.507 12.9871L110.562 12.6283ZM110.711 10.9857C111.758 11.8841 112.392 12.4539 112.609 12.6926C112.802 12.9104 112.786 13.1499 112.565 13.408C112.512 13.4687 112.413 13.5728 112.273 13.7168L111.949 13.5601C112.07 13.4317 112.175 13.3216 112.258 13.2244C112.362 13.1029 112.359 12.9784 112.247 12.8508C112.11 12.7024 111.608 12.2558 110.748 11.5076L110.094 12.2698C110.204 12.511 110.287 12.7514 110.34 12.997L109.964 12.9748C109.844 12.5244 109.609 12.0801 109.252 11.6478L109.534 11.3937C109.678 11.5698 109.799 11.7478 109.906 11.9239L110.711 10.9857Z" fill="white"/>
<path d="M110.721 10.0022C111.058 9.92675 111.367 9.8853 111.644 9.8753L111.678 10.25C111.422 10.2465 111.113 10.2823 110.748 10.3605L110.721 10.0022ZM114.951 10.5022C114.811 10.6721 114.655 10.8549 114.49 11.0501C114.321 11.2484 114.168 11.3969 114.031 11.5012C113.892 11.5943 113.729 11.6415 113.548 11.6478C113.459 11.6479 113.404 11.6646 113.374 11.7017C113.32 11.7666 113.368 11.9921 113.516 12.3783L113.138 12.4295C113.015 12.0692 112.971 11.8006 113.011 11.6262L112.137 10.9072L111.796 11.3212L111.525 11.0976L112.091 10.4086L113.259 11.369C113.284 11.3637 113.312 11.361 113.343 11.3608C113.485 11.3583 113.608 11.335 113.712 11.2908C113.831 11.2337 113.971 11.1206 114.127 10.9434C114.275 10.7698 114.448 10.5654 114.646 10.3244C114.771 10.173 114.895 10.016 115.019 9.85898C115.143 9.70197 115.235 9.5764 115.298 9.4879L115.53 9.79778L114.951 10.5022ZM112.049 9.01173L111.558 9.608L111.314 9.40729L112.709 7.71116L112.916 7.88139C112.923 8.18761 112.895 8.48587 112.839 8.78124C112.85 8.78014 112.858 8.77651 112.87 8.77541L113.38 8.15442L114.752 9.28249C114.934 9.43239 114.943 9.61056 114.778 9.81138L114.582 10.0493L114.288 9.91035L114.48 9.70115C114.536 9.63319 114.533 9.56816 114.465 9.51227L114.307 9.38269L113.941 9.82758L114.448 10.2443L114.227 10.513L113.72 10.0964L113.362 10.532L113.875 10.9537L113.646 11.2318L111.978 9.85982L112.562 9.14924C112.41 9.19529 112.245 9.25117 112.073 9.32194L112.049 9.01173ZM112.553 8.8461C112.594 8.66299 112.619 8.48152 112.631 8.30424L112.061 8.99629C112.232 8.93986 112.395 8.88708 112.553 8.8461ZM112.908 10.1585L113.124 10.3363L113.482 9.90073L113.266 9.72288L112.908 10.1585ZM113.487 9.4541L113.703 9.63195L114.069 9.18706L113.853 9.00921L113.487 9.4541ZM113.612 8.81104L113.396 8.63319L113.03 9.07808L113.246 9.25592L113.612 8.81104ZM113.025 9.52471L112.809 9.34686L112.451 9.78248L112.667 9.96033L113.025 9.52471Z" fill="white"/>
<path d="M115.481 4.66017L117.928 6.59498L117.7 6.88367L117.521 6.74228L117.087 7.29143L117.269 7.4353L117.041 7.724L114.59 5.7867L115.481 4.66017ZM116.808 7.07066L117.242 6.52152L115.532 5.16963L115.098 5.71878L116.808 7.07066ZM114.073 7.20843C114.173 7.40463 114.253 7.60032 114.315 7.79236L113.943 7.92135C113.807 7.48735 113.604 7.09247 113.332 6.73984L113.628 6.49448C113.722 6.62012 113.802 6.7446 113.879 6.86659L114.557 6.00992L114.842 6.23565L114.505 6.66242C114.694 6.82248 114.869 6.97577 115.02 7.12606L115.407 6.63654L115.693 6.86227L115.274 7.39259C115.333 7.45971 115.389 7.52997 115.442 7.59213C115.788 7.55451 116.158 7.53111 116.556 7.5188L116.688 7.91909C116.258 7.89536 115.912 7.88738 115.651 7.89515C115.877 8.2874 115.98 8.73096 115.953 9.22964L115.561 9.23567C115.577 8.71832 115.451 8.27177 115.181 7.89039C115.131 7.83071 115.081 7.76541 115.028 7.70325L114.539 8.32143L114.254 8.0957L114.777 7.43359C114.626 7.28329 114.451 7.13001 114.262 6.96994L114.073 7.20843Z" fill="white"/>
<path d="M115.707 3.68194L117.695 4.15485L118.68 5.94528L118.371 6.11264L117.462 4.46036L115.628 4.02377L115.707 3.68194ZM116.122 3.13775L118.109 3.61066L119.094 5.40109L118.786 5.56845L117.877 3.91617L116.033 3.49231L116.122 3.13775Z" fill="white"/>
</svg>
