<svg width="122" height="38" viewBox="0 0 122 38" fill="none" xmlns="http://www.w3.org/2000/svg">
<path d="M6.06772 2.86635L6.24199 3.1877L4.5609 4.05633L4.091 5.88255L3.75067 5.79705L4.25967 3.81818L6.06772 2.86635ZM6.60428 3.29057L6.766 3.60199L5.09746 4.48055L4.62756 6.30677L4.28723 6.22126L4.79624 4.24239L6.60428 3.29057Z" fill="white"/>
<path d="M7.90551 4.39774C7.89752 4.64882 7.87382 4.91291 7.8313 5.18748L7.56059 5.1275L8.20354 5.64924C8.45902 5.56293 8.7298 5.43237 9.01337 5.26068L9.23921 5.57273C9.00453 5.72228 8.76886 5.83496 8.53588 5.91892L9.12602 6.39781L8.89414 6.68356L7.88158 5.8619L7.80345 5.95818C7.67625 6.10223 7.54982 6.22629 7.42474 6.33599L8.66093 7.33914L8.42905 7.62489L7.34195 6.74273C7.18917 7.24206 7.33798 7.85219 7.78585 8.57622L7.38507 8.71462C6.94957 7.9182 6.8238 7.2289 6.99904 6.64476C6.82467 6.74538 6.65048 6.82038 6.47899 6.86666C6.04094 6.97481 5.52226 6.90936 4.92295 6.6703L4.97063 6.28143C5.57498 6.51428 6.0568 6.58073 6.41918 6.4833C6.55129 6.44111 6.68164 6.38205 6.80771 6.30921L5.74546 5.44722L5.97734 5.16146L7.12035 6.08899C7.25106 5.9787 7.3806 5.85716 7.50527 5.71622L7.5834 5.61993L6.56774 4.79574L6.79962 4.50999L7.46431 5.04937C7.50799 4.78604 7.52783 4.53942 7.52943 4.30891L7.90551 4.39774Z" fill="white"/>
<path d="M10.3211 6.51342L12.6641 8.43158L12.4284 8.71942L11.4411 7.91111L10.8228 8.6663L12.0268 9.65198L11.7861 9.94602L10.5821 8.96033L9.71804 10.0157C9.54067 10.2324 9.33494 10.2501 9.109 10.0651L8.61688 9.66221L8.7881 9.32679C8.93834 9.4653 9.08493 9.59565 9.22731 9.71221C9.32635 9.79329 9.41388 9.78741 9.48483 9.70075L10.2881 8.71961L9.03148 7.69085L9.27219 7.39682L10.5288 8.42558L11.1471 7.67039L10.0855 6.80126L10.3211 6.51342Z" fill="white"/>
<path d="M12.7529 10.6234L12.0817 11.449C12.3817 11.6 12.7047 11.7544 13.0496 11.9008L12.9077 12.2339C12.4401 12.029 11.9759 11.8011 11.5155 11.5557L11.5969 11.2146C11.7042 11.2348 11.7894 11.2062 11.8525 11.1286L13.3842 9.24463C13.8226 9.49797 14.242 9.70494 14.645 9.86242L14.6363 10.2472C14.2869 10.1126 13.9072 9.93282 13.4948 9.71091L12.9826 10.341L13.8392 11.0374L13.6096 11.3198L12.7529 10.6234ZM13.8041 13.2617L13.5124 13.0245L13.6638 12.6734L13.935 12.9042C14.0157 12.9698 14.0939 12.956 14.1646 12.8691L15.4717 11.2614L14.8602 10.7643L12.8769 13.2038L12.5789 12.9616L14.7894 10.2428L15.9967 11.2243L14.4121 13.1734C14.2228 13.4062 14.0183 13.4358 13.8041 13.2617Z" fill="white"/>
<path d="M15.8705 12.5266L16.8452 11.8096L17.1026 12.0964L16.479 12.5458L16.9422 12.9145C17.186 12.7302 17.4272 12.5235 17.6691 12.2968L17.9427 12.576C17.7084 12.7934 17.4771 12.9876 17.252 13.1611L18.6852 14.3022L18.4585 14.587L16.9501 13.3861C16.8366 13.4645 16.725 13.5341 16.6189 13.603L17.8707 14.5996L17.6714 14.8499C17.3857 15.0418 17.048 15.1513 16.652 15.1734C16.7852 15.4942 16.9759 15.8455 17.2211 16.2247L16.8435 16.3843C16.5745 15.9451 16.3774 15.5377 16.2503 15.1706C15.8661 15.1459 15.4379 15.0607 14.966 14.915L15.0337 14.5088C15.4363 14.6453 15.8051 14.7344 16.1344 14.7767C16.0606 14.4521 16.0468 14.1547 16.0936 13.8904C15.4996 14.1741 14.9208 14.3167 14.3605 14.3205L14.4264 13.923C15.1622 13.8851 15.8981 13.6222 16.6341 13.1345L15.8705 12.5266ZM16.4391 13.8996C16.3954 14.1664 16.4211 14.4681 16.5187 14.8014C16.8429 14.7988 17.1239 14.7413 17.356 14.6295L16.4391 13.8996ZM18.4959 12.9602C18.5823 13.2948 18.6317 13.6052 18.6467 13.8881L18.2645 13.9315C18.2689 13.6691 18.2282 13.3606 18.1386 12.9979L18.4959 12.9602Z" fill="white"/>
<path d="M21.9767 15.6477L22.1424 15.957L20.4852 16.8568L20.0386 18.6888L19.6972 18.6077L20.1809 16.6225L21.9767 15.6477Z" fill="white"/>
<path d="M21.9631 17.4129L23.108 18.2528C23.2926 18.0757 23.4816 17.872 23.672 17.6396L22.5367 16.8068L22.752 16.5133L25.3193 18.3966L25.104 18.6901L23.9816 17.8667C23.7857 18.1 23.5966 18.3036 23.4177 18.48L24.7078 19.4263L24.4925 19.7198L23.3475 18.8799C23.1498 19.6229 23.2394 20.3732 23.6195 21.1332L23.247 21.2419C22.8688 20.4387 22.7915 19.6379 23.0095 18.8403C22.8254 18.9831 22.6561 19.0921 22.4953 19.1626C21.9976 19.3879 21.3863 19.4504 20.6644 19.3524L20.6554 18.9589C21.3061 19.0592 21.8521 19.0182 22.2981 18.8295C22.4646 18.7581 22.6394 18.6482 22.8282 18.499L21.7478 17.7064L21.9631 17.4129Z" fill="white"/>
<path d="M27.4075 21.9431L26.67 21.4342L26.5133 21.6614L27.3298 22.2248L27.1299 22.5145L26.3134 21.9511L26.1498 22.1882L27.1572 22.8833L26.9528 23.1796L25.9453 22.4845L25.6546 22.9059L25.3484 22.6946L25.6392 22.2732L24.7601 21.6666L24.9646 21.3703L25.8436 21.9769L26.0072 21.7398L25.2895 21.2446L25.4894 20.9549L26.2071 21.4501L26.3639 21.223L25.7054 20.7686L25.894 20.4953L26.5524 20.9497L26.7296 20.6929L25.9033 20.1227L26.1009 19.8363L26.9273 20.4065L27.0999 20.1563L26.4579 19.7133L26.6488 19.4367L27.2908 19.8797L27.4566 19.6394L27.7628 19.8506L27.5969 20.091L28.3344 20.5999L27.9709 21.1266L28.208 21.2902L28.0103 21.5766L27.7733 21.4131L27.4075 21.9431ZM27.4061 20.3675L27.2334 20.6177L27.6647 20.9153L27.8374 20.6651L27.4061 20.3675ZM27.0358 20.9042L26.8586 21.161L27.2899 21.4586L27.4671 21.2018L27.0358 20.9042ZM26.0565 18.7315C26.1563 19.0094 26.2265 19.2668 26.2671 19.5038L25.892 19.5755C25.8634 19.3565 25.7921 19.0935 25.6793 18.7921L26.0565 18.7315ZM25.4345 19.4639C25.5273 19.766 25.5872 20.0455 25.6164 20.2989L25.2413 20.3706C25.2207 20.1328 25.1609 19.8534 25.0607 19.5267L25.4345 19.4639ZM25.09 20.5335L25.2959 20.8408C24.8823 21.1726 24.4714 21.4723 24.0633 21.7398L23.8459 21.3857C24.2784 21.1252 24.6923 20.8423 25.09 20.5335Z" fill="white"/>
<path d="M28.7045 21.0363L30.0324 21.8849C30.0594 21.7313 30.0787 21.5822 30.0861 21.4445L30.4643 21.6103C30.4395 21.7606 30.4027 21.9222 30.3594 22.0939L31.711 22.9576L31.515 23.2643L30.1735 22.4071L29.9387 22.7744L31.0341 23.4745L30.235 24.7249C30.0972 24.9407 29.9115 24.9787 29.689 24.8365L29.3486 24.619L29.4616 24.2639L29.771 24.4854C29.8519 24.5371 29.9182 24.5225 29.9656 24.4483L30.5213 23.5787L29.7427 23.0812L28.614 24.8473L28.2905 24.6406L29.4191 22.8744L28.681 22.4027L27.8539 23.697L27.5404 23.4966L28.5635 21.8956L29.6151 22.5677L29.8499 22.2003L28.5084 21.343L28.7045 21.0363Z" fill="white"/>
<path d="M31.9456 24.4361C31.773 24.5027 31.5956 24.5617 31.4097 24.6113L31.5048 24.1995C32.0864 24.0093 32.614 23.7046 33.0882 23.2766L33.3156 23.6023C33.0788 23.8119 32.8202 23.995 32.5435 24.1537L31.2049 26.4662L30.8795 26.2779L31.9456 24.4361ZM33.1538 23.8738L33.8185 24.2585L34.1544 23.8937L34.4584 24.1113C34.3525 24.2302 34.2472 24.3403 34.1474 24.4489L35.1444 25.026L34.9601 25.3445L33.8799 24.7193C33.7792 24.8135 33.6859 24.9028 33.5947 24.9886L34.9136 25.7521L34.7313 26.0671L33.3084 25.2435C33.1838 25.347 33.0687 25.4421 32.9541 25.5283L34.3319 26.3259L34.1676 26.6097C33.9009 26.7511 33.5615 26.8505 33.1404 26.9072C33.2417 27.0675 33.3356 27.2327 33.4205 27.3974L33.0692 27.5731C32.8112 27.0447 32.5033 26.5707 32.1543 26.1515L32.4812 25.9941C32.6448 26.1904 32.7955 26.3932 32.9372 26.5954C33.2758 26.5695 33.5658 26.5156 33.8059 26.4281L32.352 25.5865C32.5662 25.424 32.7795 25.247 32.9934 25.0612L32.4464 24.7446L32.6288 24.4295L33.2762 24.8043C33.3694 24.715 33.4627 24.6257 33.5545 24.5309L32.9695 24.1923L33.1538 23.8738Z" fill="white"/>
<path d="M35.5634 27.7749L35.3968 28.0985C34.989 28.0955 34.5495 28.0403 34.0857 27.9275L34.2205 27.5695C34.7038 27.6968 35.1538 27.7665 35.5634 27.7749ZM36.1949 25.0272L36.4526 25.3218C36.0641 25.6572 35.7158 25.9143 35.4096 26.0896C35.5379 26.1376 35.6679 26.1821 35.7999 26.223C35.9189 26.1403 36.047 26.0488 36.1787 25.9501L36.4225 26.2196C35.8597 26.6137 35.4164 26.8894 35.089 27.0448C35.3406 27.0978 35.6049 27.1349 35.8838 27.1525L35.7245 27.4619C35.258 27.4242 34.8368 27.3424 34.4625 27.2217L34.5347 26.863C34.6098 26.8656 34.6761 26.8592 34.7389 26.8421C34.9096 26.7815 35.1526 26.6501 35.468 26.4481C35.2898 26.3923 35.1063 26.3294 34.9156 26.2627L34.9895 25.9094C35.0539 25.9155 35.1275 25.8949 35.2031 25.8529C35.5367 25.6242 35.8673 25.349 36.1949 25.0272ZM36.0912 27.0118L36.1702 26.6746C36.2024 26.6821 36.2328 26.6843 36.2506 26.6845C36.3976 26.6611 36.6407 26.5298 36.9726 26.2958L36.4213 26.012L36.5879 25.6884L37.4521 26.1332C37.468 25.9974 37.4767 25.867 37.4782 25.7417L37.8525 25.8624C37.8401 26 37.8223 26.1483 37.7936 26.309L38.5724 26.7099L38.4058 27.0335L37.3247 26.477C37.0577 26.6635 36.8361 26.7969 36.6562 26.8842C36.9589 27.004 37.2653 27.1168 37.5718 27.2205C37.5519 27.0843 37.5302 26.9517 37.5085 26.8191L37.8469 26.7908C37.9261 27.2139 37.9702 27.5741 37.981 27.8676L37.6245 27.9135C37.6239 27.8097 37.6162 27.7023 37.6104 27.5913C37.1346 27.4319 36.627 27.2381 36.0912 27.0118ZM36.2976 27.2575L36.6248 27.4259C36.3745 27.8684 36.1474 28.1699 35.9469 28.3321C35.7303 28.4996 35.4607 28.6037 35.1346 28.6429L35.0585 28.2663C35.3236 28.2408 35.5446 28.1611 35.7215 28.0272C35.8911 27.8986 36.082 27.6414 36.2976 27.2575ZM36.8213 29.439L36.5936 29.3219C36.3411 29.1919 36.2752 29.014 36.3906 28.7899L37.0148 27.5772L37.3385 27.7438L36.7472 28.8925C36.7179 28.9494 36.7209 28.996 36.7599 29.025L36.9591 29.1276C37.0268 29.1534 37.0897 29.1273 37.1407 29.0456C37.2008 28.9551 37.2793 28.82 37.3709 28.6422L37.6094 28.8955C37.4337 29.2369 37.299 29.4285 37.209 29.4811C37.1226 29.5266 36.9922 29.509 36.8213 29.439Z" fill="white"/>
<path d="M40.4257 27.8317L39.2002 27.2897L39.3475 26.9568L42.1533 28.1978L42.006 28.5307L40.7769 27.987L39.7931 30.2112L41.2527 30.8568L41.1039 31.1933L37.8298 29.7452L37.9787 29.4087L39.442 30.0559L40.4257 27.8317Z" fill="white"/>
<path d="M42.5155 28.4194L43.3639 28.7315L43.484 28.4048L43.8482 28.5388L43.7281 28.8654L44.6291 29.1968L44.7492 28.8702L45.1133 29.0041L44.9932 29.3307L45.8416 29.6427L45.7188 29.9769L44.8703 29.6648L44.7612 29.9614L44.3971 29.8275L44.5062 29.5309L43.6052 29.1995L43.4961 29.4961L43.132 29.3621L43.241 29.0656L42.3926 28.7535L42.5155 28.4194ZM42.5754 29.3109L45.0682 30.2277L44.9425 30.5693C43.703 30.7528 42.8774 30.935 42.4694 31.1173C42.3359 31.179 42.2506 31.2371 42.2069 31.2978C42.1862 31.3541 42.2052 31.3952 42.2728 31.4201L44.1161 32.098C44.2174 32.1353 44.3059 32.138 44.3764 32.1085C44.4456 32.0828 44.5707 31.8816 44.7518 31.505L45.0325 31.7617C44.831 32.182 44.663 32.4185 44.5248 32.47C44.3917 32.519 44.2249 32.5088 44.0297 32.437L42.1714 31.7536C41.8411 31.6321 41.7224 31.4563 41.808 31.2236C41.866 31.0659 42.059 30.9237 42.3793 30.7944C42.801 30.6213 43.4597 30.4757 44.3494 30.3512L42.4498 29.6525L42.5754 29.3109Z" fill="white"/>
<path d="M46.4304 29.878L47.2573 30.1143C47.2403 29.9847 47.2161 29.8654 47.1821 29.7517L47.5843 29.8001C47.6062 29.927 47.62 30.0682 47.6304 30.221L48.3726 30.4332C48.4655 30.3266 48.549 30.209 48.6183 30.0832L48.9963 30.2454C48.9276 30.3547 48.8496 30.453 48.7611 30.5442L49.561 30.7729L49.4665 31.1037L48.0858 30.709L48.0022 31.0013L49.1791 31.3377L49.0889 31.6531L47.9121 31.3166L47.8274 31.6128L49.335 32.0437L49.2383 32.3822L45.8539 31.4147L45.9506 31.0762L47.4582 31.5072L47.5429 31.2111L46.3775 30.8779L46.4677 30.5626L47.633 30.8957L47.7166 30.6034L46.3359 30.2087L46.4304 29.878ZM47.3675 31.9264L47.7257 32.0704C47.6933 32.1402 47.657 32.2089 47.618 32.2726L49.0602 32.6849L48.9613 33.031L47.6921 32.6682C47.8679 33.043 48.298 33.3864 48.9826 33.6986L48.6913 33.9898C47.9145 33.593 47.4596 33.1467 47.324 32.6462C47.2036 32.7615 47.0734 32.8533 46.9283 32.9241C46.6107 33.0746 46.1179 33.1251 45.4421 33.0734L45.3943 32.6728C45.9679 32.7328 46.4036 32.7076 46.6987 32.5922C46.7932 32.5527 46.8724 32.5088 46.946 32.4549L45.7499 32.113L45.8489 31.7669L47.2334 32.1627C47.2845 32.0857 47.3279 32.0066 47.3675 31.9264Z" fill="white"/>
<path d="M49.8663 31.4106L51.3557 31.7136L51.5399 30.8082L51.9084 30.8832L51.7242 31.7886L53.2176 32.0924L53.145 32.4491L51.9927 32.2147C52.1191 32.8772 52.4316 33.5081 52.9301 34.1075L52.6155 34.3701C52.0851 33.6662 51.7612 32.9309 51.6477 32.1649L51.1724 34.501L50.804 34.4261L51.2776 32.0978C50.832 32.8235 50.2261 33.3738 49.4608 33.7447L49.3248 33.37C49.9989 33.0663 50.5409 32.6092 50.9422 32.001L49.7937 31.7673L49.8663 31.4106ZM52.5465 31.017C52.7221 31.2977 52.8531 31.5366 52.9395 31.7338L52.5986 31.8848C52.513 31.6633 52.3836 31.4166 52.2198 31.1383L52.5465 31.017Z" fill="white"/>
<path d="M54.3301 31.4633L56.5864 31.7293L56.423 33.1157L54.1666 32.8496L54.3301 31.4633ZM56.0877 32.7137L56.1669 32.0423L54.6653 31.8653L54.5861 32.5366L56.0877 32.7137ZM55.069 33.2581L54.8582 35.0457L54.4927 35.0026L54.5152 34.812L53.7803 34.7253L53.7578 34.916L53.3884 34.8724L53.5992 33.0848L55.069 33.2581ZM53.822 34.3718L54.5569 34.4584L54.6614 33.5726L53.9264 33.4859L53.822 34.3718ZM56.9202 33.4764L56.7094 35.264L56.332 35.2195L56.3545 35.0288L55.5878 34.9384L55.5653 35.1291L55.1959 35.0856L55.4066 33.2979L56.9202 33.4764ZM55.6295 34.5849L56.3962 34.6753L56.5006 33.7894L55.7339 33.699L55.6295 34.5849Z" fill="white"/>
<path d="M59.9345 31.7815L60.3144 31.7909L60.2977 32.4627L61.0775 32.4821L61.0311 34.3495L60.6632 34.3404L60.6677 34.1604L60.2558 34.1502L60.2232 35.4658L59.8433 35.4564L59.8759 34.1408L59.4801 34.1309L59.4756 34.3109L59.1117 34.3018L59.1581 32.4344L59.9178 32.4533L59.9345 31.7815ZM59.4887 33.783L59.8846 33.7929L59.9089 32.8132L59.513 32.8033L59.4887 33.783ZM60.2645 33.8023L60.6763 33.8125L60.7006 32.8328L60.2888 32.8226L60.2645 33.8023ZM57.6484 32.3209L57.5812 31.9671C58.066 31.9392 58.5 31.8659 58.8829 31.7514L59.0061 32.1065C58.8491 32.1467 58.6842 32.1826 58.5112 32.2183L58.4969 32.7941L58.9808 32.8061L58.9717 33.17L58.4879 33.158L58.4839 33.318C58.6716 33.4947 58.8589 33.6874 59.0456 33.9001L58.8258 34.2147C58.6913 33.9913 58.5758 33.8084 58.4754 33.6619L58.4316 35.4253L58.0637 35.4162L58.1061 33.7087C57.9657 34.0453 57.79 34.3531 57.575 34.6318L57.429 34.2281C57.721 33.9112 57.9379 33.5525 58.08 33.1479L57.5362 33.1344L57.5452 32.7705L58.129 32.785L58.1417 32.2731C57.9812 32.2932 57.8168 32.3091 57.6484 32.3209Z" fill="white"/>
<path d="M64.8204 31.7773L65.067 35.052L64.7 35.0797L64.6781 34.7885L63.8126 34.8537L63.8381 35.1927L63.4751 35.2201L63.2249 31.8975L64.8204 31.7773ZM63.7855 34.4947L64.6511 34.4295L64.4802 32.16L63.6146 32.2251L63.7855 34.4947ZM61.4802 32.8592L62.1463 32.809L62.1103 32.3304C61.9289 32.3721 61.7429 32.4062 61.5607 32.436L61.4155 32.1059C62.0261 32.0118 62.5132 31.8749 62.8813 31.7027L63.0845 32.0043C62.8865 32.0914 62.6839 32.1709 62.4721 32.235L62.5133 32.7814L63.1634 32.7324L63.1902 33.0874L62.54 33.1364L62.552 33.296C62.7901 33.4746 63.034 33.6768 63.2837 33.9027L63.0849 34.2466C62.8862 34.0049 62.7193 33.8128 62.5797 33.6629L62.7073 35.3581L62.3404 35.3857L62.2187 33.7703C62.0844 34.1174 61.9001 34.4401 61.6738 34.738L61.4791 34.3355C61.806 33.9899 62.0377 33.6034 62.1746 33.184L62.1731 33.164L61.5069 33.2142L61.4802 32.8592Z" fill="white"/>
<path d="M66.0555 35.0489L65.7203 35.1058L65.5818 34.7682C65.687 34.7665 65.783 34.7584 65.8737 34.743C65.9684 34.7269 66.0063 34.6637 65.9882 34.5572L65.8463 33.7211C65.7137 33.8005 65.5772 33.8804 65.4432 33.9519L65.2856 33.5972C65.4564 33.5277 65.6212 33.4469 65.784 33.3544L65.6394 32.5026L65.1938 32.5782L65.1328 32.2194L65.5785 32.1437L65.4613 31.4536L65.8241 31.392L65.9413 32.0821L66.3277 32.0165L66.3887 32.3754L66.0022 32.441L66.1214 33.1429C66.2447 33.0571 66.3635 32.9679 66.4816 32.8749L66.5439 33.2416C66.4258 33.3347 66.3063 33.4199 66.183 33.5057L66.3671 34.5902C66.4113 34.8505 66.3079 35.006 66.0555 35.0489ZM66.412 31.844L67.3348 31.6873L67.2451 31.1588L67.6079 31.0972L67.6977 31.6257L68.6204 31.469L68.6814 31.8279L67.7586 31.9845L67.8543 32.5485L68.6273 32.4172L68.6835 32.7485C68.6269 33.1801 68.4782 33.5705 68.2287 33.9171C68.504 34.057 68.8312 34.1678 69.2056 34.2462L69.0646 34.5867C68.6579 34.4853 68.3063 34.3502 68.0112 34.1894C67.751 34.4729 67.4203 34.7238 67.0199 34.946L66.7895 34.6646C67.1624 34.4714 67.4702 34.2528 67.7075 34.0016C67.3477 33.7462 67.0843 33.4379 66.9122 33.0695L66.7072 33.1043L66.6476 32.7534L67.4915 32.6101L67.3958 32.0461L66.473 32.2028L66.412 31.844ZM67.2632 33.0099C67.4101 33.3015 67.6298 33.5441 67.927 33.7411C68.1234 33.4644 68.2547 33.1621 68.3201 32.8305L67.2632 33.0099Z" fill="white"/>
<path d="M69.0982 31.1524L69.9732 30.9253L69.8858 30.5885L70.2614 30.4911L70.3488 30.8279L71.278 30.5868L71.1906 30.2499L71.5662 30.1525L71.6536 30.4893L72.5286 30.2623L72.618 30.6069L71.743 30.8339L71.8224 31.1398L71.4468 31.2373L71.3674 30.9314L70.4382 31.1725L70.5176 31.4784L70.142 31.5758L70.0626 31.2699L69.1876 31.497L69.0982 31.1524ZM69.6555 31.8508L72.2264 31.1838L72.3178 31.5361C71.4037 32.3931 70.8291 33.0133 70.5977 33.3957C70.5231 33.5225 70.4862 33.6189 70.4849 33.6936C70.5 33.7516 70.539 33.7746 70.6087 33.7565L72.5097 33.2632C72.6142 33.2361 72.6885 33.1879 72.7297 33.1235C72.7718 33.063 72.76 32.8264 72.6943 32.4137L73.0711 32.4646C73.1451 32.9248 73.1418 33.2149 73.0575 33.336C72.9761 33.4522 72.8333 33.5388 72.632 33.591L70.7154 34.0883C70.3747 34.1767 70.1771 34.0999 70.1148 33.8599C70.0726 33.6972 70.1501 33.4705 70.3397 33.1816C70.5875 32.7991 71.0459 32.3041 71.706 31.6948L69.7469 32.2031L69.6555 31.8508Z" fill="white"/>
<path d="M73.8153 29.6527L75.8948 28.9596L76.0074 29.2973L75.1384 29.587L75.5887 30.9379L76.5716 30.6103L76.6854 30.9518L75.7026 31.2794L76.1428 32.6L75.7936 32.7163L75.3534 31.3958L74.3858 31.7183L74.2719 31.3768L75.2396 31.0543L74.7893 29.7033L73.9279 29.9905L73.8153 29.6527ZM75.6621 29.5768L76.0049 29.5553C76.0504 29.9449 76.058 30.2966 76.0276 30.6103L75.6886 30.6052C75.7127 30.3231 75.7038 29.9803 75.6621 29.5768ZM74.3314 30.0373C74.53 30.2789 74.7273 30.5673 74.931 30.8999L74.6489 31.0783C74.468 30.776 74.2694 30.4964 74.0569 30.2384L74.3314 30.0373ZM72.9666 29.8007C73.2752 29.9045 73.5459 30.0208 73.7799 30.1536L73.6167 30.4863C73.4055 30.3586 73.1335 30.2384 72.7983 30.1309L72.9666 29.8007ZM72.8211 31.072L73.6977 30.7798L74.2302 32.3774C74.301 32.2483 74.3757 32.1054 74.4554 31.9523L74.6805 32.2989C74.5275 32.5987 74.3478 32.8821 74.148 33.1426L73.9026 32.8618C73.9456 32.7884 73.9583 32.7126 73.933 32.6367L73.4675 31.2402L72.9362 31.4173L72.8211 31.072Z" fill="white"/>
<path d="M77.9682 30.3395L78.1061 30.685L78.8528 30.3871L78.715 30.0416L77.9682 30.3395ZM78.9818 30.7104L78.235 31.0083L78.315 31.2089L77.9695 31.3467L77.23 29.4928L78.3223 29.0571L78.1933 28.7338L78.5426 28.5945L78.6715 28.9177L79.775 28.4776L80.5101 30.3204L80.1645 30.4582L80.0889 30.2687L79.331 30.5711L79.6245 31.3067L79.2752 31.446L78.9818 30.7104ZM79.2021 30.2478L79.96 29.9455L79.8222 29.6L79.0643 29.9023L79.2021 30.2478ZM79.6992 29.2916L79.5599 28.9424L78.8019 29.2447L78.9412 29.5939L79.6992 29.2916ZM78.4527 29.384L77.7059 29.6819L77.8452 30.0311L78.592 29.7332L78.4527 29.384ZM79.7424 27.5647L80.0225 28.2669L79.6807 28.4032L79.5295 28.0242L77.0477 29.0143L77.2063 29.4118L76.8645 29.5482L76.5769 28.8274L77.9665 28.2731C77.9004 28.2047 77.8373 28.1437 77.772 28.088L78.1236 27.8788C78.1874 27.9524 78.2594 28.0357 78.3306 28.1279L79.7424 27.5647Z" fill="white"/>
<path d="M81.9821 26.2995L82.3324 26.1424C82.4732 26.4562 82.5949 26.7568 82.6941 27.0367C83.2866 27.8494 83.936 28.4173 84.6421 28.7406L84.5249 29.1439C83.9541 28.8389 83.4246 28.4012 82.9328 27.8327L82.9675 27.9881C83.1177 28.6748 83.0383 29.3286 82.7326 29.9567L82.3713 29.7768C82.6269 29.2325 82.6989 28.6697 82.5945 28.0853C82.4987 27.5978 82.2927 27.0019 81.9821 26.2995ZM80.3669 27.0284C80.6843 27.1008 80.9653 27.1896 81.2114 27.2984L81.0822 27.6457C80.8593 27.5397 80.5767 27.4472 80.2324 27.3737L80.3669 27.0284ZM80.3599 28.3029L81.203 27.9247L81.8873 29.4503C81.9578 29.3046 82.0292 29.1411 82.1049 28.9581L82.3529 29.2765C82.2159 29.5966 82.0545 29.9013 81.8667 30.196L81.5961 29.9447C81.6353 29.8658 81.6403 29.789 81.6059 29.7124L81.0198 28.4058L80.5089 28.635L80.3599 28.3029Z" fill="white"/>
<path d="M84.6498 26.3068L86.7859 25.2663L86.9436 25.59L86.0589 26.0209L86.3217 26.5603L87.3573 26.0558L87.515 26.3795L86.4793 26.8839L86.8016 27.5456C87.0637 27.4624 87.3709 27.335 87.7323 27.1635C87.9121 27.0759 88.0938 26.974 88.2738 26.8686L88.3737 27.2381L88.0357 27.4028C87.2805 27.7706 86.7042 27.9668 86.314 27.9878C86.0313 27.992 85.7672 27.9249 85.5218 27.7863C85.5253 28.1406 85.4754 28.4675 85.3721 28.7669L85.016 28.6022C85.1824 28.0852 85.1813 27.4984 85.0091 26.8526L85.368 26.7489C85.4264 26.9785 85.4688 27.2026 85.4953 27.4122C85.8009 27.6103 86.1024 27.6904 86.3927 27.6469L86.4285 27.6383L85.7209 26.1855L84.8075 26.6304L84.6498 26.3068ZM86.8795 24.3531L87.2771 25.1694L86.9427 25.3323L86.6992 24.8325L84.3545 25.9745L84.6068 26.4924L84.2723 26.6553L83.866 25.821L85.2181 25.1624C85.1117 25.0718 85.0033 24.9956 84.9003 24.9301L85.239 24.6939C85.3437 24.7808 85.4536 24.8786 85.5669 24.9925L86.8795 24.3531Z" fill="white"/>
<path d="M90.2554 23.9689L90.6386 24.7164L88.9051 25.6051L89.0018 25.7937L90.9026 24.8193L91.3898 25.7697L91.0516 25.943L90.9859 25.8149L89.4233 26.616L89.4872 26.7405L89.149 26.9139L88.1837 25.0309L90.2554 23.9689ZM89.27 26.317L90.8327 25.5159L90.7013 25.2596L89.1386 26.0607L89.27 26.317ZM88.7664 25.3345L90.1688 24.6156L90.063 24.4091L88.6606 25.1281L88.7664 25.3345ZM90.5185 23.2721L90.867 23.952L90.536 24.1217L90.3334 23.7266L87.9343 24.9565L88.1369 25.3516L87.8058 25.5213L87.4573 24.8414L88.8348 24.1353C88.7699 24.0787 88.705 24.031 88.6437 23.9905L88.9172 23.7874L88.8366 23.7792C88.8909 23.4817 88.8951 23.1919 88.8404 22.9098L89.2008 22.8149C89.2105 22.8864 89.2219 22.9524 89.2297 23.0203L90.2192 22.5131L90.3707 22.8085L89.7905 23.1059C89.8876 23.1551 89.974 23.2096 90.0497 23.2608L89.8072 23.5244C89.6919 23.4397 89.5659 23.3604 89.431 23.2902L89.2494 23.3833C89.2492 23.5318 89.2381 23.6768 89.2144 23.8148L88.987 23.792C89.0483 23.8415 89.1097 23.8999 89.1765 23.9601L90.5185 23.2721ZM87.7189 24.168C87.7062 24.3362 87.6828 24.5011 87.6469 24.6589L87.2565 24.6252C87.3499 24.2987 87.3717 23.9818 87.3293 23.6799L87.6897 23.5851C87.6994 23.6565 87.7055 23.7298 87.7133 23.7977L88.6103 23.3379L88.7618 23.6333L88.2279 23.907C88.3376 23.9632 88.4383 24.0194 88.523 24.0794L88.2735 24.3556C88.1473 24.2585 88.0158 24.1685 87.8755 24.0877L87.7189 24.168Z" fill="white"/>
<path d="M92.0102 21.4274L93.799 20.4803L94.6936 22.1701L93.9689 22.5538L94.1561 22.9073L94.9267 22.4993L95.0914 22.8104L94.3208 23.2184L94.5154 23.586L95.4098 23.1125L95.5801 23.4342L93.4414 24.5666L93.2711 24.2449L94.1831 23.762L93.9885 23.3943L93.2143 23.8042L93.0496 23.4931L93.8238 23.0832L93.6366 22.7297L92.9049 23.1172L92.0102 21.4274ZM94.2147 22.0435L94.0013 21.6405L93.5983 21.8538L93.8117 22.2568L94.2147 22.0435ZM93.4794 22.4328L93.266 22.0298L92.856 22.2469L93.0693 22.6499L93.4794 22.4328ZM92.7025 21.957L93.1126 21.7399L92.8992 21.3369L92.4891 21.554L92.7025 21.957ZM93.2315 21.161L93.4449 21.564L93.8479 21.3506L93.6345 20.9476L93.2315 21.161ZM91.4064 23.2361L91.7563 23.0508L91.3558 22.2943L90.9528 22.5077L90.7844 22.1895L91.9262 21.585L92.0947 21.9032L91.6952 22.1147L92.0957 22.8712L92.4528 22.6821L92.6231 23.0038L92.266 23.1929L92.6404 23.8999C92.7381 23.7938 92.8323 23.6896 92.9192 23.5803L93.0914 23.9055C92.8336 24.2049 92.5451 24.498 92.2207 24.7829L91.9691 24.5042C92.1045 24.4008 92.2326 24.2923 92.3553 24.1821L91.9267 23.3725L91.5767 23.5578L91.4064 23.2361Z" fill="white"/>
<path d="M95.1333 21.2348L95.4918 21.1923C95.6005 21.6742 95.621 22.0763 95.5517 22.404L95.1842 22.3197C95.2502 22.0028 95.2345 21.6435 95.1333 21.2348ZM95.1917 19.5921L95.5301 19.4106L95.8818 20.0662L96.9957 19.4687C97.121 19.7193 97.2404 19.9503 97.3468 20.1655L97.5189 19.928C97.8512 20.1582 98.197 20.4221 98.5547 20.725L98.3275 21.0375C98.0153 20.7602 97.7076 20.5167 97.4154 20.3103C97.5412 20.5787 97.6519 20.8189 97.7437 21.0239C97.9126 21.4235 97.9964 21.7235 97.9985 21.9221C97.9969 22.1136 97.908 22.2611 97.7358 22.3717L97.3234 22.5929L97.0578 22.3178C97.1814 22.2605 97.2961 22.2035 97.4019 22.1468C97.5746 22.0542 97.6266 21.8719 97.5618 21.6071C97.4858 21.3302 97.2393 20.786 96.8277 19.9764L96.0417 20.3981C96.3071 20.9774 96.4542 21.4886 96.483 21.9316C96.5058 22.4141 96.3615 22.8728 96.0555 23.3093L95.7152 23.1151C95.998 22.6775 96.1216 22.248 96.0882 21.8302C96.0435 21.4593 95.9152 21.0424 95.7033 20.5796L94.8644 21.0296L94.6904 20.7053L95.5434 20.2477L95.1917 19.5921Z" fill="white"/>
<path d="M99.5396 17.2545L99.8781 17.0731L100.163 17.6055L101.041 17.135L101.215 17.4594L100.337 17.9298L100.649 18.5116L101.622 17.9901L101.796 18.3145L100.65 18.9285C100.702 19.5087 100.713 19.9522 100.679 20.2609C101.044 20.0108 101.394 19.7414 101.733 19.4598C101.54 19.3185 101.35 19.1932 101.168 19.0821L101.436 18.8025C101.833 19.0436 102.216 19.3191 102.587 19.6378L102.345 19.9489C102.235 19.8536 102.127 19.7618 102.024 19.6806C101.554 20.0644 101.026 20.4515 100.443 20.8456L100.209 20.5946C100.231 20.5689 100.25 20.5451 100.262 20.5251C100.344 20.3044 100.352 19.8371 100.287 19.1231L99.5077 19.5407L99.3339 19.2163L100.31 18.693L99.9988 18.1112L99.1914 18.5439L99.0176 18.2195L99.8249 17.7869L99.5396 17.2545ZM98.0246 18.1027C98.3447 18.158 98.6277 18.2288 98.8789 18.3165L98.7695 18.6883C98.5468 18.5943 98.2584 18.522 97.906 18.4657L98.0246 18.1027ZM98.3786 18.9749C98.6811 19.0397 98.9518 19.1215 99.1944 19.2185L99.0796 19.5886C98.8674 19.489 98.5947 19.4037 98.2635 19.3361L98.3786 18.9749ZM99.2534 19.7859L99.6227 19.7468C99.7073 20.2688 99.761 20.7755 99.7874 21.2651L99.3731 21.2965C99.3641 20.7885 99.3247 20.2832 99.2534 19.7859Z" fill="white"/>
<path d="M101.583 16.1205L103.188 17.3845L103.33 19.4229L102.979 19.4453L102.849 17.5641L101.367 16.3974L101.583 16.1205Z" fill="white"/>
<path d="M106.192 14.4748L107.471 16.9476L107.148 17.1148L107.052 16.9301L106.491 17.2205L106.64 17.5082L106.317 17.6755L104.984 15.0996L105.322 14.9251C105.286 14.7001 105.235 14.479 105.157 14.2582L105.518 14.1298C105.584 14.3436 105.624 14.5524 105.645 14.7578L106.192 14.4748ZM106.329 16.9078L106.891 16.6174L106.529 15.9175L105.967 16.2079L106.329 16.9078ZM105.811 15.9059L106.372 15.6155L106.034 14.9618L105.473 15.2522L105.811 15.9059ZM107.273 14.9967C107.658 15.1668 107.97 15.3253 108.208 15.4813L108.039 15.8074C107.783 15.6427 107.464 15.4789 107.087 15.3088L107.273 14.9967ZM108.027 13.5301C108.661 14.7559 109.035 15.5218 109.146 15.8244C109.243 16.0986 109.139 16.3147 108.837 16.4709C108.766 16.5077 108.634 16.5667 108.451 16.6479L108.209 16.3811C108.369 16.3074 108.508 16.2446 108.622 16.1858C108.764 16.1123 108.807 15.9954 108.751 15.8352C108.681 15.6465 108.383 15.0441 107.866 14.0279L106.974 14.4892C106.985 14.7538 106.972 15.008 106.929 15.2555L106.589 15.0938C106.647 14.6314 106.595 14.1312 106.427 13.5968L106.783 13.4667C106.85 13.684 106.896 13.8945 106.929 14.098L108.027 13.5301Z" fill="white"/>
<path d="M108.522 12.577C108.86 12.6447 109.159 12.7321 109.417 12.8357L109.295 13.1918C109.063 13.0846 108.766 12.9918 108.401 12.9152L108.522 12.577ZM112.184 14.7512C111.987 14.8497 111.771 14.9536 111.54 15.0647C111.306 15.1776 111.105 15.2511 110.937 15.2906C110.773 15.3193 110.605 15.2962 110.436 15.2284C110.356 15.1927 110.299 15.1856 110.256 15.2071C110.181 15.2447 110.132 15.4701 110.111 15.8834L109.744 15.7763C109.778 15.3971 109.848 15.134 109.955 14.9908L109.448 13.9788L108.969 14.2188L108.811 13.9041L109.609 13.5046L110.286 14.8564C110.311 14.8618 110.338 14.8707 110.366 14.8832C110.497 14.9385 110.619 14.9671 110.731 14.9688C110.864 14.9651 111.037 14.9184 111.252 14.8199C111.457 14.7213 111.699 14.6049 111.978 14.4651C112.153 14.3773 112.33 14.2842 112.507 14.191C112.684 14.0978 112.82 14.0208 112.913 13.9653L112.999 14.3427L112.184 14.7512ZM110.137 12.2108L109.447 12.5566L109.305 12.2741L111.269 11.2905L111.389 11.5301C111.271 11.8128 111.124 12.0741 110.953 12.3211C110.964 12.3246 110.972 12.3246 110.983 12.3282L111.702 11.9681L112.498 13.556C112.603 13.767 112.539 13.9334 112.307 14.0498L112.031 14.1878L111.818 13.9411L112.079 13.8282C112.158 13.7888 112.181 13.7279 112.142 13.6493L112.05 13.4669L111.535 13.7249L111.829 14.3114L111.518 14.4673L111.224 13.8807L110.72 14.1334L111.017 14.727L110.695 14.8883L109.728 12.9571L110.55 12.545C110.393 12.5255 110.22 12.5095 110.033 12.5043L110.137 12.2108ZM110.665 12.2641C110.777 12.1137 110.874 11.958 110.956 11.8005L110.155 12.2019C110.334 12.2196 110.504 12.2374 110.665 12.2641ZM110.457 13.6077L110.582 13.858L111.086 13.6054L110.961 13.355L110.457 13.6077ZM111.272 13.1992L111.397 13.4495L111.912 13.1915L111.787 12.9412L111.272 13.1992ZM111.647 12.6622L111.522 12.4119L111.007 12.6699L111.132 12.9202L111.647 12.6622ZM110.821 13.0761L110.696 12.8257L110.191 13.0784L110.317 13.3287L110.821 13.0761Z" fill="white"/>
<path d="M115.344 9.62009L116.696 12.4319L116.365 12.5914L116.266 12.3859L115.635 12.6893L115.736 12.8983L115.404 13.0578L114.05 10.2424L115.344 9.62009ZM115.481 12.3684L116.112 12.0651L115.167 10.1004L114.536 10.4037L115.481 12.3684ZM112.962 11.2936C112.966 11.5137 112.952 11.7246 112.924 11.9246L112.533 11.8774C112.601 11.4276 112.591 10.9837 112.502 10.5476L112.875 10.4568C112.905 10.6111 112.922 10.7581 112.938 10.9014L113.922 10.4282L114.08 10.7563L113.59 10.992C113.69 11.219 113.78 11.4333 113.85 11.6347L114.412 11.3643L114.57 11.6924L113.961 11.9853C113.984 12.0716 114.004 12.1595 114.025 12.2386C114.352 12.3563 114.695 12.4976 115.058 12.6606L115.001 13.0784C114.625 12.8686 114.318 12.71 114.08 12.6026C114.11 13.0539 114.009 13.4978 113.766 13.9342L113.411 13.7677C113.652 13.3098 113.734 12.8531 113.659 12.3921C113.641 12.3167 113.624 12.2359 113.604 12.1569L112.894 12.4984L112.736 12.1703L113.496 11.8046C113.426 11.6031 113.337 11.3888 113.236 11.1619L112.962 11.2936Z" fill="white"/>
<path d="M115.667 9.00416L117.2 10.3555L117.228 12.3986L116.877 12.4014L116.851 10.5159L115.436 9.26868L115.667 9.00416ZM116.288 8.71842L117.821 10.0697L117.849 12.1128L117.498 12.1157L117.472 10.2301L116.043 8.98962L116.288 8.71842Z" fill="white"/>
</svg>
