<svg width="61" height="15" viewBox="0 0 61 15" fill="none" xmlns="http://www.w3.org/2000/svg">
<path d="M5.38131 2.06164L5.62336 2.33558L4.18064 3.55997L4.13341 5.44508L3.78257 5.43829L3.83358 3.39564L5.38131 2.06164ZM5.99951 2.35435L6.22711 2.62143L4.79885 3.85267L4.75162 5.73778L4.40077 5.73099L4.45179 3.68834L5.99951 2.35435Z" fill="white"/>
<path d="M6.15733 3.98634L7.46136 4.54839C7.60151 4.33438 7.74014 4.09359 7.87358 3.82442L6.58056 3.26712L6.72464 2.93285L9.64861 4.1931L9.50454 4.52738L8.22622 3.97641C8.08752 4.24767 7.94889 4.48846 7.814 4.70038L9.28333 5.33367L9.13926 5.66794L7.83523 5.10589C7.80896 5.87425 8.06433 6.58541 8.60502 7.24095L8.26638 7.43039C7.71791 6.73228 7.46317 5.96913 7.4969 5.14302C7.34947 5.32339 7.20894 5.46754 7.06796 5.57229C6.63344 5.90334 6.05161 6.10121 5.32613 6.16747L5.22923 5.78596C5.88586 5.73793 6.40879 5.57566 6.8012 5.2918C6.94743 5.18495 7.09322 5.03872 7.24382 4.85099L6.01325 4.32061L6.15733 3.98634Z" fill="white"/>
<path d="M12.5602 7.14616L11.7212 6.83177L11.6243 7.09023L12.5532 7.43829L12.4297 7.76792L11.5008 7.41985L11.3998 7.68954L12.5459 8.11901L12.4196 8.45612L11.2734 8.02665L11.0938 8.5061L10.7454 8.37557L10.9251 7.89612L9.92499 7.52139L10.0513 7.18428L11.0514 7.55901L11.1525 7.28932L10.3359 6.98336L10.4594 6.65374L11.276 6.9597L11.3728 6.70125L10.6237 6.42055L10.7402 6.10966L11.4893 6.39036L11.5988 6.09819L10.6586 5.74591L10.7807 5.42004L11.7209 5.77232L11.8275 5.48764L11.0971 5.21396L11.215 4.89932L11.9454 5.17301L12.0479 4.89957L12.3962 5.0301L12.2938 5.30353L13.1328 5.61792L12.9083 6.21723L13.1779 6.31828L13.0558 6.64415L12.7862 6.5431L12.5602 7.14616ZM12.1759 5.61817L12.0692 5.90284L12.5599 6.0867L12.6666 5.80203L12.1759 5.61817ZM11.9471 6.22872L11.8376 6.52088L12.3283 6.70474L12.4378 6.41258L11.9471 6.22872ZM10.4691 4.35926C10.6335 4.60453 10.7642 4.83718 10.8611 5.05719L10.5147 5.21786C10.4337 5.01236 10.3007 4.77457 10.118 4.50963L10.4691 4.35926ZM10.0438 5.22079C10.2072 5.49135 10.3332 5.74787 10.4232 5.98661L10.0768 6.14728C9.999 5.92165 9.873 5.66513 9.69642 5.37257L10.0438 5.22079ZM9.96962 6.34207L10.244 6.59012C9.92345 7.01249 9.59771 7.40303 9.26681 7.76173L8.96992 7.47108C9.3261 7.11331 9.65886 6.73822 9.96962 6.34207Z" fill="white"/>
<path d="M13.6837 5.9781L15.1907 6.43919C15.1755 6.28394 15.1541 6.13517 15.1241 6.00052L15.533 6.05869C15.5494 6.21012 15.5573 6.37568 15.5617 6.55271L17.0955 7.02199L16.989 7.37007L15.4667 6.90429L15.3391 7.32122L16.5823 7.70156L16.1481 9.12063C16.0732 9.36542 15.9045 9.45186 15.6521 9.37462L15.2658 9.25642L15.2793 8.88409L15.6368 9.01439C15.7286 9.04247 15.7885 9.01062 15.8143 8.92647L16.1162 7.93963L15.2327 7.66929L14.6194 9.67358L14.2522 9.56123L14.8655 7.55694L14.0278 7.30065L13.5784 8.76944L13.2227 8.6606L13.7786 6.84374L14.9719 7.20887L15.0995 6.79195L13.5772 6.32617L13.6837 5.9781Z" fill="white"/>
<path d="M17.5666 8.32196C17.4211 8.43603 17.2687 8.5444 17.1055 8.64616L17.0759 8.22459C17.5764 7.87255 17.9918 7.42688 18.3201 6.87888L18.6329 7.12386C18.4677 7.39352 18.274 7.64425 18.0558 7.87697L17.4522 10.4799L17.0859 10.3949L17.5666 8.32196ZM18.5576 7.43079L19.3057 7.60429L19.5203 7.15721L19.8745 7.27632C19.8081 7.42105 19.7396 7.55709 19.6759 7.69014L20.7981 7.9504L20.715 8.30888L19.4992 8.02694C19.4305 8.14649 19.3674 8.25915 19.3052 8.36792L20.7898 8.71221L20.7076 9.0668L19.1061 8.6954C19.0172 8.83081 18.9349 8.95545 18.8505 9.07138L20.4014 9.43104L20.3273 9.75056C20.1136 9.9638 19.818 10.1581 19.432 10.3354C19.5758 10.4591 19.7138 10.5897 19.8432 10.7223L19.5587 10.9931C19.1574 10.5633 18.7243 10.2 18.268 9.90123L18.5345 9.65508C18.7484 9.79502 18.9518 9.94485 19.1465 10.0968C19.4627 9.97299 19.7242 9.83655 19.9283 9.68267L18.2917 9.30313C18.4491 9.08504 18.6013 8.85345 18.7515 8.61316L18.1358 8.47038L18.218 8.11579L18.9467 8.28478C19.0098 8.17212 19.0729 8.05946 19.133 7.94199L18.4744 7.78928L18.5576 7.43079Z" fill="white"/>
<path d="M22.1592 10.4527L22.1012 10.8121C21.7125 10.9357 21.2776 11.0195 20.8017 11.0561L20.8188 10.674C21.3178 10.6451 21.7672 10.5718 22.1592 10.4527ZM21.9074 7.64472L22.2438 7.84488C21.9784 8.2842 21.7271 8.63665 21.4904 8.89828C21.6272 8.90415 21.7646 8.90608 21.9027 8.90405C21.9902 8.78853 22.0836 8.66179 22.1783 8.52715L22.4935 8.70769C22.0808 9.25693 21.7448 9.65651 21.4817 9.90577C21.7374 9.87816 22.0002 9.83144 22.2708 9.76166L22.2153 10.1052C21.7601 10.2141 21.3343 10.2669 20.941 10.2682L20.8984 9.90481C20.9706 9.88406 21.0317 9.85744 21.0861 9.82165C21.2295 9.7111 21.4198 9.51087 21.6571 9.22096C21.4703 9.22324 21.2763 9.22028 21.0744 9.21606L21.0351 8.85721C21.0981 8.84307 21.1617 8.80066 21.2206 8.73723C21.4668 8.41637 21.6958 8.0522 21.9074 7.64472ZM22.4243 9.56359L22.3949 9.2185C22.4278 9.2157 22.4573 9.20831 22.4744 9.20297C22.6069 9.13521 22.7972 8.93498 23.0402 8.60954L22.4281 8.51075L22.4861 8.1514L23.4457 8.30628C23.4187 8.17227 23.3865 8.04551 23.349 7.92602L23.7423 7.92466C23.7732 8.05931 23.8022 8.20581 23.8248 8.36747L24.6896 8.50705L24.6316 8.8664L23.4311 8.67264C23.2352 8.93274 23.0658 9.12826 22.9219 9.26709C23.2468 9.28713 23.5731 9.29927 23.8966 9.30287C23.8355 9.17955 23.7737 9.06019 23.712 8.94082L24.025 8.80901C24.2314 9.18673 24.385 9.5154 24.4864 9.79108L24.1617 9.94531C24.1289 9.84683 24.0883 9.74709 24.0483 9.64339C23.5465 9.63938 23.0039 9.61257 22.4243 9.56359ZM22.6967 9.73317L23.06 9.79181C22.9593 10.2901 22.8369 10.6472 22.6966 10.8636C22.5426 11.0899 22.3186 11.2726 22.0208 11.4109L21.8316 11.0765C22.0757 10.97 22.2611 10.8257 22.3877 10.6436C22.5091 10.4687 22.6108 10.165 22.6967 9.73317ZM23.8711 11.6447L23.6184 11.6039C23.338 11.5587 23.2202 11.41 23.2604 11.1612L23.4777 9.81466L23.8371 9.87266L23.6312 11.1482C23.621 11.2113 23.6383 11.2546 23.6844 11.2702L23.9056 11.3059C23.9779 11.3095 24.0297 11.2651 24.0529 11.1716C24.0819 11.0669 24.1147 10.9142 24.1465 10.7168L24.4519 10.8835C24.3907 11.2626 24.3221 11.4866 24.2528 11.5645C24.1848 11.6346 24.0553 11.6583 23.8711 11.6447Z" fill="white"/>
<path d="M26.5816 8.96246L25.2485 8.82727L25.2852 8.46513L28.3375 8.77466L28.3008 9.13681L26.9637 9.00121L26.7183 11.4208L28.3062 11.5818L28.269 11.9479L24.7073 11.5867L24.7444 11.2206L26.3363 11.3821L26.5816 8.96246Z" fill="white"/>
<path d="M28.9288 8.88036L29.8315 8.92847L29.85 8.58096L30.2375 8.60161L30.219 8.94912L31.1776 9.00021L31.1961 8.6527L31.5836 8.67335L31.5651 9.02086L32.4678 9.06897L32.4488 9.42446L31.5461 9.37635L31.5293 9.69191L31.1418 9.67126L31.1587 9.3557L30.2 9.30461L30.1832 9.62017L29.7958 9.59952L29.8126 9.28396L28.9099 9.23585L28.9288 8.88036ZM29.2489 9.71457L31.9011 9.85593L31.8817 10.2194C30.7513 10.76 30.0161 11.1775 29.6799 11.472C29.5706 11.5703 29.5062 11.651 29.4824 11.7218C29.4792 11.7818 29.5094 11.8154 29.5813 11.8192L31.5425 11.9238C31.6504 11.9295 31.7358 11.906 31.7944 11.8571C31.8529 11.8121 31.9132 11.583 31.9753 11.1697L32.3191 11.3323C32.2505 11.7933 32.1597 12.0688 32.0427 12.1587C31.93 12.2448 31.7677 12.2843 31.56 12.2732L29.5828 12.1678C29.2313 12.1491 29.0661 12.0161 29.0793 11.7685C29.0883 11.6007 29.2307 11.408 29.4987 11.19C29.8506 10.9003 30.4372 10.567 31.2506 10.1858L29.2295 10.0781L29.2489 9.71457Z" fill="white"/>
<path d="M32.9729 9.13801L33.8329 9.13356C33.7802 9.01383 33.7237 8.90612 33.6592 8.80645L34.0588 8.74038C34.1154 8.85609 34.1681 8.98782 34.2209 9.13155L34.9929 9.12755C35.0522 8.99924 35.0995 8.863 35.1308 8.72283L35.539 8.77272C35.5037 8.89691 35.4563 9.01315 35.3968 9.12546L36.2288 9.12116L36.2306 9.46515L34.7946 9.47258L34.7962 9.77658L36.0202 9.77025L36.0219 10.0982L34.7979 10.1046L34.7995 10.4126L36.3675 10.4045L36.3693 10.7565L32.8493 10.7747L32.8475 10.4227L34.4155 10.4146L34.4139 10.1066L33.2019 10.1128L33.2002 9.78484L34.4122 9.77857L34.4106 9.47457L32.9747 9.482L32.9729 9.13801ZM34.4457 10.8424L34.8299 10.8804C34.8183 10.9565 34.8027 11.0326 34.7831 11.1047L36.2831 11.0969L36.2849 11.4569L34.9649 11.4637C35.2386 11.7743 35.7476 11.9837 36.4922 12.0918L36.2941 12.4529C35.4372 12.2893 34.8757 11.9882 34.6054 11.5456C34.5221 11.69 34.4228 11.8145 34.3033 11.9232C34.0405 12.1565 33.5815 12.3429 32.9182 12.4823L32.7603 12.1111C33.3277 12.0082 33.739 11.8621 33.99 11.6688C34.0697 11.6044 34.1333 11.54 34.189 11.4677L32.945 11.4742L32.9431 11.1142L34.3831 11.1067C34.4106 11.0186 34.4302 10.9305 34.4457 10.8424Z" fill="white"/>
<path d="M36.7828 9.64888L38.2972 9.51854L38.2179 8.59794L38.5926 8.5657L38.6718 9.4863L40.1902 9.35561L40.2214 9.71827L39.0497 9.81912C39.3583 10.4189 39.8364 10.9358 40.484 11.3698L40.2564 11.7106C39.5487 11.1854 39.0302 10.5716 38.7047 9.86888L38.9091 12.2441L38.5345 12.2763L38.3308 9.9091C38.1085 10.7312 37.6828 11.4303 37.0536 12.0023L36.8172 11.6814C37.3779 11.1996 37.7686 10.6079 37.9817 9.91104L36.814 10.0115L36.7828 9.64888ZM39.2425 8.51378C39.4902 8.73334 39.6834 8.92548 39.8221 9.0902L39.5377 9.33147C39.393 9.14319 39.1992 8.94307 38.9634 8.72248L39.2425 8.51378Z" fill="white"/>
<path d="M41.17 8.25047L41.5529 8.34994C41.5126 8.65343 41.4459 8.9453 41.3496 9.23017L41.8214 11.9252L41.4432 11.9914L41.0735 9.87953C40.9854 10.0493 40.8881 10.2125 40.7822 10.3731L40.5904 9.99658C40.8965 9.47193 41.091 8.88967 41.17 8.25047ZM41.7239 8.35248L43.6309 8.01862L43.8599 9.32672L43.0876 9.46192L43.1483 9.80865L44.2515 9.61551L44.315 9.97799L43.5467 10.1125C43.8137 10.4312 44.1479 10.6935 44.5533 10.8987L44.3663 11.2685C43.9445 10.9931 43.5719 10.6279 43.2433 10.1656L43.2118 10.1711L43.467 11.629L43.0966 11.6938L42.8414 10.236L42.806 10.2422C42.6522 10.8254 42.4187 11.3008 42.1054 11.6684L41.8333 11.3668C42.1308 11.071 42.3528 10.7154 42.5065 10.2946L41.7776 10.4222L41.7141 10.0597L42.778 9.87349L42.7172 9.52677L41.9529 9.66059L41.7239 8.35248ZM43.4267 9.03302L43.3233 8.44201L42.157 8.64619L42.2605 9.2372L43.4267 9.03302Z" fill="white"/>
<path d="M45.6174 11.1506L45.2311 11.2544L45.0545 10.9207C45.1735 10.9012 45.2915 10.8778 45.3996 10.8488C45.4885 10.8249 45.5224 10.7661 45.4975 10.6734L45.2776 9.85441C45.1443 9.94405 45.0099 10.0298 44.8745 10.1117L44.6833 9.76964C44.8506 9.68329 45.0159 9.58921 45.179 9.48741L44.9622 8.68001L44.5064 8.80242L44.412 8.45087L44.8678 8.32846L44.6801 7.62924L45.0471 7.53069L45.2348 8.22992L45.625 8.12514L45.7194 8.47669L45.3292 8.58146L45.5118 9.26137C45.6353 9.16608 45.7578 9.06693 45.8792 8.96391L45.9778 9.33091C45.8553 9.43006 45.7328 9.52922 45.6083 9.62065L45.8894 10.6676C45.9579 10.9225 45.8646 11.0842 45.6174 11.1506ZM47.4934 7.71041L46.2069 8.05585L46.3812 8.70486L47.6677 8.35941L47.4934 7.71041ZM46.4718 9.05744C46.641 9.74923 46.6385 10.3877 46.4583 10.9662L46.1138 10.7937C46.2722 10.3038 46.2642 9.73442 46.0917 9.07665L45.7504 7.80568L46.5733 7.58472C46.4798 7.45244 46.3894 7.33176 46.2944 7.22473L46.668 7.05815C46.7555 7.18374 46.8473 7.32478 46.9442 7.48513L47.7554 7.26729L48.1175 8.61552L46.4718 9.05744Z" fill="white"/>
<path d="M48.8024 7.9412L49.1632 7.95241C49.1991 8.44507 49.1597 8.84572 49.0424 9.15949L48.6915 9.02154C48.8039 8.718 48.8418 8.3604 48.8024 7.9412ZM49.1042 6.32537L49.4658 6.19613L49.7162 6.89672L50.9064 6.4713C50.9931 6.73766 51.0769 6.98384 51.1501 7.21253L51.3556 7.00314C51.6501 7.28021 51.9528 7.59253 52.2616 7.94521L51.9904 8.22053C51.7229 7.89986 51.4548 7.61337 51.1964 7.36589C51.281 7.65 51.3548 7.90399 51.4151 8.12031C51.5228 8.54057 51.5611 8.84972 51.5337 9.04641C51.5036 9.23558 51.3939 9.36825 51.2072 9.45198L50.7665 9.60949L50.5447 9.29796C50.6754 9.25972 50.7973 9.22041 50.9103 9.18002C51.0949 9.11406 51.1734 8.94156 51.1486 8.67008C51.1146 8.38487 50.9517 7.81018 50.6649 6.94842L49.825 7.24864C50.0013 7.861 50.0709 8.38835 50.0336 8.83071C49.9845 9.31128 49.7736 9.74346 49.4062 10.1297L49.0986 9.88704C49.4432 9.49626 49.6293 9.08992 49.6582 8.67178C49.6692 8.29831 49.6042 7.86701 49.4634 7.37788L48.5669 7.69829L48.443 7.35176L49.3546 7.02596L49.1042 6.32537Z" fill="white"/>
<path d="M53.3933 4.63671L53.7458 4.48445L53.9853 5.03894L54.8996 4.64401L55.0455 4.98184L54.1312 5.37677L54.3929 5.98267L55.4064 5.54492L55.5523 5.88275L54.3589 6.39822C54.3621 6.98069 54.3355 7.42353 54.2754 7.72834C54.6603 7.5098 55.0321 7.27083 55.3937 7.01874C55.2126 6.86169 55.0342 6.72091 54.8621 6.59481L55.1523 6.33873C55.5276 6.61237 55.8867 6.91913 56.229 7.26797L55.962 7.5576C55.8603 7.45337 55.7602 7.3528 55.6649 7.26326C55.1638 7.60607 54.6054 7.94747 53.9913 8.29113L53.7789 8.02124C53.8035 7.99753 53.8244 7.97542 53.838 7.95647C53.9378 7.74347 53.9853 7.27851 53.9806 6.56159L53.1691 6.9121L53.0232 6.57427L54.0404 6.13493L53.7787 5.52903L52.9377 5.89224L52.7918 5.55441L53.6327 5.1912L53.3933 4.63671ZM51.8122 5.35444C52.1266 5.43653 52.4026 5.53082 52.6455 5.63938L52.5053 6.00061C52.2912 5.88829 52.0099 5.79192 51.6635 5.70623L51.8122 5.35444ZM52.0916 6.25336C52.3875 6.34339 52.6504 6.44769 52.884 6.56468L52.7385 6.92383C52.5354 6.80675 52.2709 6.69877 51.9466 6.60357L52.0916 6.25336ZM52.895 7.13505L53.2664 7.12717C53.3067 7.65439 53.3176 8.16383 53.3027 8.65391L52.8872 8.65035C52.921 8.14341 52.9243 7.63656 52.895 7.13505Z" fill="white"/>
<path d="M55.3076 3.74371L56.8686 5.06214L56.94 7.10417L56.5893 7.11447L56.5232 5.22993L55.0826 4.01306L55.3076 3.74371ZM55.9228 3.44483L57.4838 4.76326L57.5553 6.80529L57.2045 6.81559L57.1384 4.93105L55.6835 3.72117L55.9228 3.44483Z" fill="white"/>
</svg>
