<svg width="67" height="19" viewBox="0 0 67 19" fill="none" xmlns="http://www.w3.org/2000/svg">
<path d="M3.75084 10.4016L4.05174 10.6092L2.94631 12.145L3.35441 13.986L3.01226 14.0639L2.56989 12.0691L3.75084 10.4016ZM4.42134 10.5369L4.70656 10.7413L3.61681 12.2802L4.02491 14.1212L3.68276 14.1991L3.24039 12.2043L4.42134 10.5369Z" fill="white"/>
<path d="M6.1336 11.2856C6.40033 11.3389 6.60901 11.4581 6.75024 11.6495C6.88755 11.8401 6.93386 12.0574 6.88448 12.3045C6.83587 12.5477 6.69783 12.7485 6.47742 12.9125C6.34486 13.0043 6.12287 13.1149 5.80675 13.2475C5.46474 13.3872 5.24904 13.5277 5.15963 13.6689L6.55993 13.9488L6.48468 14.3253L4.55484 13.9396C4.6105 13.6611 4.74932 13.436 4.97993 13.2618C5.10621 13.1606 5.35173 13.0342 5.71335 12.8781C5.92828 12.7823 6.08281 12.7031 6.17772 12.6364C6.33146 12.5203 6.42871 12.3806 6.46164 12.2159C6.49299 12.059 6.47336 11.9327 6.40275 11.837C6.33213 11.7413 6.21053 11.6762 6.04579 11.6433C5.86928 11.608 5.72416 11.6402 5.60964 11.7438C5.49199 11.8426 5.41121 12.0019 5.3579 12.2278L4.93035 12.1424C4.99699 11.8293 5.13737 11.5963 5.35151 11.4433C5.57271 11.2754 5.8355 11.226 6.1336 11.2856Z" fill="white"/>
<path d="M8.94183 11.8401C9.27179 11.9035 9.50069 12.0901 9.62778 12.4037C9.74293 12.6947 9.75899 13.0562 9.67519 13.4922C9.59214 13.9243 9.44246 14.2581 9.22765 14.4856C8.99411 14.7258 8.7116 14.8182 8.38164 14.7548C8.05168 14.6913 7.82353 14.5009 7.69569 14.1912C7.58053 13.9002 7.56448 13.5387 7.64828 13.1026C7.73284 12.6627 7.88177 12.3329 8.09582 12.1093C8.33012 11.8651 8.61187 11.7767 8.94183 11.8401ZM8.87237 12.2015C8.64061 12.1569 8.4554 12.2517 8.31205 12.4889C8.20813 12.6481 8.13065 12.8817 8.07252 13.1842C8.01514 13.4827 8.00051 13.7284 8.03724 13.9187C8.0832 14.1882 8.21934 14.3488 8.4511 14.3934C8.67893 14.4372 8.86882 14.3392 9.01141 14.106C9.11217 13.942 9.19357 13.7092 9.25095 13.4107C9.30908 13.1082 9.31978 12.8618 9.28622 12.6761C9.24102 12.4027 9.1002 12.2453 8.87237 12.2015Z" fill="white"/>
<path d="M11.7273 12.4195L12.0501 12.4776L11.5441 15.2884L11.115 15.2111L11.5281 12.916C11.3298 13.047 11.092 13.1261 10.8187 13.1541L10.8953 12.729C11.0269 12.7201 11.1667 12.6884 11.3226 12.6352C11.48 12.5741 11.6144 12.5048 11.7273 12.4195Z" fill="white"/>
<path d="M12.868 12.6288L14.7631 12.9369L14.7067 13.2843L13.306 15.5935L12.848 15.519L14.2653 13.2572L12.8045 13.0197L12.868 12.6288Z" fill="white"/>
<path d="M16.6458 13.5854C16.4436 13.8418 16.2078 14.0455 15.9334 14.2039L15.7202 13.8539C16.1551 13.6072 16.4718 13.2445 16.6708 12.7619L17.0504 12.8832C16.9935 13.013 16.938 13.1309 16.8751 13.2438L19.2874 13.5531L19.2406 13.9181L18.0226 13.7619L17.9524 14.3094L19.0316 14.4478L18.9863 14.8009L17.9071 14.6626L17.8084 15.4323L19.1495 15.6042L19.1022 15.9732L17.7611 15.8012L17.6513 16.6582L17.2744 16.6099L17.3842 15.7529L15.583 15.522L15.6303 15.153L16.2532 15.2329L16.3971 14.1101L17.5755 14.2611L17.6457 13.7136L16.6458 13.5854ZM16.6341 15.2817L17.4315 15.3839L17.5302 14.6142L16.7327 14.512L16.6341 15.2817Z" fill="white"/>
<path d="M20.3837 15.4418L22.7449 15.6216L22.7236 15.9008C22.5013 16.1326 22.2422 16.3215 21.9417 16.4751C22.271 16.6286 22.6546 16.7541 23.0891 16.8433L22.9006 17.1579C22.3768 17.0298 21.9328 16.8555 21.5679 16.6432C21.1547 16.8003 20.6778 16.9003 20.1446 16.948L20.0063 16.6045C20.4539 16.5744 20.856 16.5087 21.2091 16.4032C20.9705 16.2166 20.7774 16.0133 20.6263 15.7852L20.3591 15.7648L20.3837 15.4418ZM21.0331 15.8162C21.1805 15.9879 21.3576 16.1378 21.5679 16.2741C21.8083 16.1721 22.0224 16.048 22.2097 15.9058L21.0331 15.8162ZM20.2717 14.5948L20.2547 14.8182C20.1725 15.6864 19.98 16.3698 19.6687 16.8756L19.401 16.5985C19.6498 16.1762 19.8123 15.5707 19.8798 14.7896L19.9788 13.4894L21.4904 13.6045C21.4533 13.5134 21.4118 13.426 21.3694 13.3506L21.7771 13.3175C21.814 13.4126 21.8499 13.5196 21.8813 13.6343L23.2214 13.7364L23.1941 14.0954L20.3264 13.8769L20.2984 14.2438L20.8967 14.2894L20.9171 14.0222L21.284 14.0501L21.2636 14.3174L22.2009 14.3888L22.2216 14.1175L22.5885 14.1455L22.5679 14.4167L23.1661 14.4623L23.1394 14.8133L22.5411 14.7677L22.4943 15.3819L20.8232 15.2546L20.87 14.6404L20.2717 14.5948ZM21.2369 14.6683L21.2141 14.9675L22.1514 15.0389L22.1742 14.7397L21.2369 14.6683Z" fill="white"/>
<path d="M26.6529 15.5164L26.6297 17.2162L26.2457 17.211L26.2479 17.047L24.2801 17.0201L24.2779 17.1841L23.8939 17.1789L23.9171 15.479L26.6529 15.5164ZM24.2851 16.6561L26.2529 16.683L26.2639 15.8751L24.2961 15.8482L24.2851 16.6561ZM23.6622 15.1035L23.5952 14.7425C23.9001 14.6787 24.3259 14.2565 24.8725 13.4799L25.2666 13.6213C24.9365 14.0648 24.6034 14.4363 24.2633 14.7357C24.9436 14.721 25.6001 14.6859 26.2369 14.6346C26.1115 14.4409 25.9819 14.2631 25.8522 14.0933L26.1984 13.934C26.5169 14.3384 26.8189 14.7826 27.1043 15.2705L26.7298 15.4494C26.6361 15.2801 26.5462 15.1229 26.4563 14.9736C25.6194 15.0342 24.6867 15.0775 23.6622 15.1035Z" fill="white"/>
<path d="M29.2793 14.0508L28.5923 14.0889L28.5729 13.7374L29.5394 13.6839C29.4946 13.5983 29.442 13.517 29.3859 13.444L29.7777 13.3582C29.8268 13.4477 29.8764 13.5491 29.9308 13.6622L30.9772 13.6043L30.9966 13.9557L30.2618 13.9964L30.3056 14.7872L29.9581 14.8065L29.9143 14.0157L29.6307 14.0314L29.6743 14.8182L29.3228 14.8376L29.2793 14.0508ZM28.9322 14.2223L29.1833 14.4167C29.0351 14.6332 28.8533 14.8236 28.6305 14.9962L28.4123 14.7438C28.6202 14.5921 28.7948 14.4182 28.9322 14.2223ZM30.6143 14.0691C30.8353 14.2251 31.0243 14.3829 31.1814 14.5424L30.9588 14.7911C30.8221 14.6384 30.6367 14.4724 30.3986 14.2973L30.6143 14.0691ZM27.7615 13.554C28.0277 13.7316 28.2582 13.9151 28.4445 14.0971L28.1995 14.375C28.0294 14.1962 27.8027 14.0084 27.5156 13.816L27.7615 13.554ZM27.7247 14.5536C27.9754 14.74 28.1939 14.9242 28.3727 15.1146L28.1235 15.3888C27.9653 15.2093 27.7506 15.0209 27.475 14.8198L27.7247 14.5536ZM28.1993 15.6009L28.5339 15.7106C28.39 16.2233 28.2242 16.7012 28.0368 17.1523L27.6566 17.0131C27.8714 16.5525 28.0497 16.0819 28.1993 15.6009ZM29.2066 15.8496L29.1522 16.097L31.0373 15.9926C31.0612 16.424 31.0405 16.7015 30.979 16.8211C30.9138 16.9449 30.7576 17.0177 30.5099 17.0314C30.2903 17.0435 30.0784 17.0513 29.8705 17.0588L29.7643 16.7321C30.0046 16.7308 30.2287 16.7264 30.4323 16.7152C30.5641 16.7079 30.6422 16.6715 30.6671 16.614C30.6878 16.5528 30.6986 16.4601 30.692 16.3402L28.751 16.4477L28.8856 15.5509L30.4871 15.4622L30.4743 15.2306L28.7689 15.325L28.7508 14.9975L30.8076 14.8836L30.8561 15.7583L29.2066 15.8496Z" fill="white"/>
<path d="M32.8864 14.7234L32.1478 14.8134L32.3321 16.3262C32.3437 16.4215 32.4016 16.4668 32.5088 16.4538L33.1997 16.3696C33.3188 16.3551 33.3904 16.3141 33.411 16.2512C33.435 16.1838 33.4424 16.0459 33.4336 15.8414L33.8015 15.9175C33.8118 16.2668 33.7898 16.4831 33.727 16.5632C33.6712 16.6345 33.5441 16.6822 33.3535 16.7055L32.3886 16.823C32.1384 16.8535 32.0008 16.7493 31.9718 16.5111L31.7421 14.6251L31.5747 14.8389L31.3151 14.5602C31.6502 14.1688 31.9459 13.7178 32.2025 13.211L32.4804 13.1771C32.8743 13.4999 33.2543 13.8404 33.6124 14.1998L33.3976 14.4878C33.001 14.0768 32.6765 13.7617 32.4167 13.5476C32.2475 13.8785 32.053 14.2003 31.8253 14.5142L33.215 14.3449L33.3485 15.4408C33.3711 15.6597 33.266 15.7893 33.0297 15.8342C32.8749 15.8531 32.7275 15.867 32.5875 15.876L32.4532 15.5337C32.602 15.5317 32.73 15.5242 32.8412 15.5106C32.9326 15.4995 32.9744 15.4461 32.9638 15.3587L32.8864 14.7234ZM33.6919 13.364L34.0612 13.319L34.3596 15.7689L33.9903 15.8139L33.6919 13.364ZM34.7783 16.5601L34.1788 16.6331L34.0474 16.2824C34.2439 16.2746 34.4315 16.2598 34.6062 16.2386C34.7015 16.2269 34.7419 16.1616 34.7279 16.0464L34.3496 12.9414L34.7268 12.8954L35.1167 16.0958C35.1505 16.3737 35.0364 16.5287 34.7783 16.5601Z" fill="white"/>
<path d="M36.0253 13.2075L35.4116 13.3203L35.3537 13.0056L36.6519 12.7669C36.6082 12.7058 36.5651 12.6486 36.5235 12.5993L36.9172 12.4619C36.9624 12.5308 37.013 12.6069 37.0611 12.6916L38.4223 12.4414L38.4801 12.7561L37.8546 12.8711L37.7839 13.1281L38.7084 12.9581L38.7678 13.2807L35.3294 13.9129L35.2701 13.5903L36.1631 13.4261L36.0253 13.2075ZM36.5526 13.3545L37.3945 13.1997L37.4652 12.9427L36.4148 13.1358L36.5526 13.3545ZM35.7689 14.0029L38.389 13.5212L38.6147 14.7486L35.9946 15.2304L35.7689 14.0029ZM38.1967 14.5326L38.1606 14.3359L36.2722 14.6831L36.3084 14.8798L38.1967 14.5326ZM36.223 14.4156L38.1114 14.0684L38.0759 13.8756L36.1876 14.2229L36.223 14.4156ZM35.8733 15.4113L36.249 15.4195C36.2157 15.7469 36.139 16.0376 36.0196 16.2954L35.6601 16.1541C35.7784 15.9127 35.8474 15.6682 35.8733 15.4113ZM38.0551 15.974L37.0951 16.1505C36.7922 16.2062 36.6174 16.096 36.5682 15.8285L36.4756 15.3249L36.8533 15.2555L36.9314 15.6804C36.9495 15.7787 37.0179 15.819 37.1399 15.7966L37.9228 15.6526C37.9936 15.6396 38.0418 15.6145 38.0643 15.5819C38.0971 15.5392 38.1059 15.4319 38.0898 15.2559L38.4648 15.3049C38.484 15.5861 38.46 15.7653 38.3836 15.8363C38.3175 15.8973 38.2085 15.9458 38.0551 15.974ZM37.4019 14.9879C37.5882 15.1163 37.7316 15.2323 37.8366 15.339L37.5656 15.6126C37.4513 15.4994 37.3025 15.3762 37.1202 15.2471L37.4019 14.9879ZM38.6446 14.8448C38.908 15.0607 39.1144 15.2546 39.2632 15.4224L38.9922 15.696C38.8312 15.5059 38.6272 15.3035 38.3764 15.0893L38.6446 14.8448Z" fill="white"/>
<path d="M39.3837 12.0683C39.6774 12.1955 39.9291 12.3368 40.145 12.4826L39.9535 12.7998C39.7619 12.6523 39.5053 12.508 39.1885 12.3699L39.3837 12.0683ZM39.1508 13.2961L40.0223 13.0877L40.4157 14.7334C40.5121 14.6034 40.6126 14.456 40.721 14.2902L40.9152 14.6551C40.7181 14.949 40.4999 15.2232 40.2596 15.4739L40.0395 15.1729C40.0888 15.1035 40.107 15.0251 40.0875 14.9434L39.749 13.5273L39.2355 13.6501L39.1508 13.2961ZM40.6504 13.427L42.5372 12.9759L42.6181 13.3144C42.5881 13.6876 42.472 14.0279 42.2709 14.3392C42.5589 14.4431 42.8977 14.5184 43.2776 14.5592L43.1555 14.9256C42.7292 14.863 42.3635 14.7612 42.0525 14.63C41.8011 14.9204 41.4656 15.1856 41.0537 15.4239L40.7731 15.162C41.1567 14.9428 41.4666 14.7083 41.7021 14.4546C41.3762 14.2611 41.1254 14.0208 40.9577 13.7319L40.7359 13.7849L40.6504 13.427ZM41.3039 13.6491C41.4501 13.8651 41.653 14.0428 41.9174 14.1852C42.0819 13.9443 42.1941 13.6913 42.2493 13.4231L41.3039 13.6491ZM40.5637 11.8602L41.9409 11.531L42.1362 12.348C42.1567 12.4336 42.2145 12.4691 42.3118 12.4458L42.6541 12.364L42.735 12.7025L42.2954 12.8075C42.0192 12.8736 41.8514 12.7739 41.79 12.5171L41.658 11.9647L41.0122 12.119L41.0401 12.2357C41.1368 12.6403 41.0059 13.0048 40.6505 13.3242L40.3375 13.0987C40.6289 12.8728 40.7469 12.6266 40.6837 12.3621L40.5637 11.8602Z" fill="white"/>
<path d="M44.2377 11.9784L45.2434 11.6834L44.9135 10.5588L45.2897 10.4485L45.6195 11.5731L46.5714 11.2939L46.6773 11.6547L45.7254 11.9339L46.3322 14.0027L45.956 14.1131L45.3492 12.0442L44.3436 12.3392L44.2377 11.9784ZM43.2194 11.0932C43.5241 11.2081 43.7904 11.3343 44.0194 11.4755L43.8442 11.802C43.6377 11.6667 43.3704 11.5367 43.0393 11.417L43.2194 11.0932ZM43.0393 12.3549L43.9259 12.0949L44.4055 13.73C44.4991 13.5942 44.592 13.4419 44.6892 13.2758L44.8943 13.62C44.7162 13.9223 44.5122 14.2073 44.2849 14.4699L44.051 14.1841C44.1005 14.1113 44.1159 14.0359 44.0934 13.9591L43.6791 12.5466L43.1417 12.7042L43.0393 12.3549Z" fill="white"/>
<path d="M47.9198 9.57319L48.2895 9.44272L48.5198 10.0953L49.8626 9.6213L50.5057 11.4431L50.1473 11.5696L50.0714 11.3546L49.087 11.7021L49.533 12.9657L49.1633 13.0962L48.7173 11.8326L47.7366 12.1787L47.8125 12.3937L47.4542 12.5202L46.8111 10.6984L48.1502 10.2257L47.9198 9.57319ZM47.6128 11.8279L48.5935 11.4818L48.274 10.5765L47.2933 10.9227L47.6128 11.8279ZM48.9631 11.3513L49.9476 11.0038L49.6281 10.0986L48.6436 10.4461L48.9631 11.3513Z" fill="white"/>
<path d="M53.6289 11.1955L52.8103 11.5395C52.5227 11.6604 52.3184 11.5771 52.2006 11.2968L51.3235 9.20963L51.6738 9.0624L52.52 11.0758C52.5633 11.1791 52.6477 11.2044 52.7731 11.1517L53.4184 10.8804C53.4922 10.8495 53.5283 10.7909 53.5321 10.7069C53.5348 10.6102 53.4621 10.3545 53.3032 9.93526L53.6816 9.90641C53.8722 10.4424 53.947 10.7754 53.9093 10.9128C53.8743 11.036 53.7801 11.132 53.6289 11.1955ZM50.9201 9.80872L51.2851 9.73775C51.4614 10.436 51.5562 11.0643 51.5718 11.6175L51.1903 11.5565C51.1671 10.9849 51.0745 10.4033 50.9201 9.80872ZM53.3563 8.66771C53.7778 9.07195 54.1896 9.515 54.5875 10.0073L54.3271 10.286C53.8959 9.7556 53.4742 9.29935 53.0651 8.9246L53.3563 8.66771ZM51.6049 8.17584C52.0859 8.41191 52.4731 8.63103 52.7679 8.83689L52.5565 9.16001C52.2451 8.93511 51.8585 8.70707 51.3932 8.47741L51.6049 8.17584Z" fill="white"/>
<path d="M54.7206 7.6669C54.6941 7.99236 54.6105 8.29251 54.4697 8.57632L54.0984 8.40294C54.324 7.95672 54.3869 7.47937 54.2855 6.9673L54.6688 6.8581C54.6932 6.99774 54.7123 7.12662 54.7225 7.25547L56.9025 6.17752L57.0656 6.5074L55.9648 7.05169L56.2095 7.5465L57.1848 7.06426L57.3426 7.38338L56.3673 7.86562L56.7112 8.56123L57.9232 7.96198L58.0881 8.29544L56.8761 8.8947L57.2591 9.66919L56.9184 9.83762L56.5355 9.06313L54.9076 9.86804L54.7427 9.53458L55.3057 9.25623L54.8039 8.2415L55.8689 7.71493L55.6242 7.22012L54.7206 7.6669ZM55.6499 9.08603L56.3706 8.72966L56.0267 8.03405L55.3059 8.39041L55.6499 9.08603Z" fill="white"/>
<path d="M59.1007 6.26224L59.289 6.58774C59.2003 6.72215 59.1112 6.84764 59.0166 6.97166L59.5892 7.96201C59.7214 8.19055 59.6787 8.37236 59.457 8.50051L59.1315 8.68873L58.8731 8.41767C58.9816 8.37345 59.0791 8.32632 59.1691 8.27426C59.2522 8.2262 59.2712 8.15515 59.2211 8.06858L58.7686 7.286C58.6483 7.42951 58.526 7.56955 58.4016 7.70613L58.1303 7.42869C58.2898 7.28101 58.4418 7.12841 58.5824 6.96397L58.1599 6.23333L57.6855 6.50764L57.5033 6.19253L57.9777 5.91821L57.6313 5.31916L57.9533 5.13294L58.2997 5.732L58.6598 5.52375L58.8421 5.83887L58.4819 6.04711L58.8323 6.65309C58.925 6.5256 59.0156 6.39465 59.1007 6.26224ZM59.7306 6.30466L60.6196 7.84212L60.308 8.02233L58.5299 4.9474L60.1262 4.02433C60.3625 4.43293 60.4944 4.71704 60.531 4.87612C60.562 5.03373 60.4616 5.17962 60.2296 5.31378L59.9699 5.46395L59.7156 5.23207C59.7676 5.20203 59.8354 5.16745 59.9185 5.11939C59.9981 5.07334 60.0585 5.03384 60.096 5.00288C60.1246 4.97247 60.1418 4.93021 60.1425 4.88357C60.1367 4.81761 60.0825 4.69187 59.9833 4.50434L59.0137 5.06499L59.5564 6.0034L60.8653 5.24651L61.0295 5.53046C61.1803 5.91916 61.2457 6.28796 61.2237 6.63339C61.467 6.68672 61.7301 6.71018 62.0198 6.69976L61.9464 7.08415C61.6625 7.07271 61.4078 7.03978 61.1748 6.98044C61.1137 7.24223 60.9998 7.49287 60.8403 7.72836L60.5148 7.53306C60.6596 7.31997 60.7572 7.0972 60.8076 6.86474C60.4278 6.71933 60.1225 6.50309 59.8829 6.21655L59.7306 6.30466ZM60.1773 6.04636C60.3584 6.25579 60.583 6.41242 60.853 6.51969C60.8591 6.26662 60.8161 6.00041 60.7313 5.72598L60.1773 6.04636Z" fill="white"/>
<path d="M60.7724 3.42192L62.5006 4.51202L62.8536 6.52459L62.5076 6.58326L62.1817 4.72593L60.5869 3.71977L60.7724 3.42192ZM61.3405 3.0409L63.0687 4.131L63.4216 6.14357L63.0756 6.20224L62.7498 4.34491L61.1416 3.34766L61.3405 3.0409Z" fill="white"/>
</svg>
