<svg width="93" height="28" viewBox="0 0 93 28" fill="none" xmlns="http://www.w3.org/2000/svg">
<g clip-path="url(#clip0_250_2949)">
<path fill-rule="evenodd" clip-rule="evenodd" d="M2.77869 0.599968L6.34271 2.41593L4.52675 5.97996L0.962724 4.16399L2.77869 0.599968Z" fill="#FFD700"/>
<path fill-rule="evenodd" clip-rule="evenodd" d="M2.77869 0.599968L6.34271 2.41593L5.43473 4.19794L1.87071 2.38198L2.77869 0.599968Z" fill="#0057B8"/>
</g>
<path d="M7.76651 3.71725L7.99757 4.03435L6.4602 5.11584L6.24641 6.97671L5.87083 6.93658L6.10518 4.90678L7.76651 3.71725ZM8.36626 4.07041L8.58353 4.37938L7.05995 5.46899L6.84616 7.32986L6.47058 7.28974L6.70493 5.25994L8.36626 4.07041Z" fill="white"/>
<path d="M7.73881 6.7882L10.0206 8.10795L9.82438 8.44728L7.54255 7.12753L7.73881 6.7882ZM9.2297 8.88426L9.31862 8.48284C9.46496 8.58135 9.60292 8.67038 9.73796 8.74849C9.82799 8.80056 9.90742 8.79105 9.98118 8.72743C10.0515 8.66181 10.2115 8.41705 10.4668 7.9917L8.35808 6.77208L9.31936 5.11005L10.0188 5.51459C10.1428 5.41997 10.2605 5.31243 10.3643 5.19687L10.7151 5.4691C10.6124 5.5668 10.4978 5.65303 10.3789 5.72286L11.4177 6.32366C11.1224 6.81826 10.9035 7.11679 10.7581 7.20832C10.6093 7.29784 10.4051 7.2675 10.1419 7.1153L9.94801 7.00315L10.0284 6.62451C10.149 6.70353 10.2682 6.77709 10.3894 6.84718C10.4794 6.89925 10.5569 6.89321 10.6162 6.83051C10.6761 6.75888 10.7626 6.63331 10.8668 6.45326L9.49559 5.6602L8.91883 6.65742L11.0171 7.87103C10.6217 8.53877 10.3373 8.94263 10.1674 9.08463C10.0034 9.21625 9.79756 9.21269 9.55171 9.0705L9.2297 8.88426Z" fill="white"/>
<path d="M13.9705 7.31429L14.3402 7.52196L14.1541 7.85326L15.4793 8.59773L15.2814 8.94996L13.9562 8.20548L13.7975 8.48796L14.7356 9.01497L14.1224 10.1065L13.5505 9.78522L13.188 10.4304C13.1449 10.5071 13.1652 10.569 13.2524 10.618L13.6325 10.8315C13.6709 10.8531 13.7171 10.8607 13.7726 10.8597C13.8267 10.8534 13.9153 10.761 14.039 10.5735L14.3215 10.8791C14.1147 11.1574 13.9659 11.3079 13.8757 11.3214C13.7696 11.3306 13.6528 11.3017 13.5253 11.2347L12.9499 10.9114C12.6918 10.7664 12.6427 10.5599 12.7936 10.2914L13.1913 9.58343L12.717 9.31698C12.5027 9.60036 12.2917 9.78002 12.0799 9.86294C11.8067 9.95722 11.4372 9.96984 10.9678 9.89885L10.9081 9.46614C11.3051 9.55156 11.6143 9.56468 11.8396 9.49853C12.0104 9.44767 12.1796 9.31793 12.3438 9.10736L11.873 8.84287L12.4862 7.75132L13.4278 8.28029L13.5865 7.99781L12.2613 7.25334L12.4592 6.90112L13.7844 7.64559L13.9705 7.31429ZM13.9587 9.56492L14.1879 9.1569L12.6534 8.29488L12.4242 8.7029L13.9587 9.56492Z" fill="white"/>
<path d="M15.4493 10.4157L17.8011 11.684L17.6074 12.0431L15.2557 10.7748L15.4493 10.4157ZM14.5142 11.1975L17.6616 12.8949L17.4679 13.254L14.3205 11.5566L14.5142 11.1975ZM15.6922 9.33326L17.4455 10.2788C17.716 10.0975 17.9749 9.88718 18.2291 9.65165L18.5199 9.97206C18.2846 10.1724 18.0485 10.3405 17.8152 10.4782L18.5721 10.8864L18.3803 11.242L15.5005 9.68885L15.6922 9.33326ZM16.8599 8.96316C16.8865 9.20023 16.8983 9.45652 16.897 9.72852L16.4803 9.7174C16.4835 9.44188 16.4647 9.18179 16.4256 8.94255L16.8599 8.96316Z" fill="white"/>
<path d="M19.853 11.4045C19.9314 11.4444 19.9828 11.5021 20.0107 11.5882C20.0369 11.6689 20.0308 11.7511 19.9909 11.8295C19.9509 11.9079 19.8896 11.9575 19.8089 11.9837C19.7247 12.0081 19.646 12.0039 19.5676 11.9639C19.4892 11.9239 19.436 11.8608 19.4099 11.7801C19.3837 11.6994 19.3915 11.6226 19.4314 11.5442C19.4714 11.4658 19.5309 11.4108 19.6116 11.3846C19.6941 11.3549 19.7746 11.3645 19.853 11.4045ZM19.1877 12.7086C19.2661 12.7486 19.3175 12.8062 19.3454 12.8923C19.3716 12.973 19.3656 13.0553 19.3256 13.1337C19.2856 13.212 19.2244 13.2616 19.1437 13.2878C19.0594 13.3122 18.9807 13.308 18.9023 13.268C18.8239 13.228 18.7708 13.165 18.7446 13.0842C18.7184 13.0035 18.7262 12.9267 18.7662 12.8483C18.8062 12.7699 18.8656 12.7149 18.9464 12.6887C19.0289 12.659 19.1093 12.6686 19.1877 12.7086Z" fill="white"/>
<path d="M23.6158 12.4552L23.9987 12.6372C23.7377 13.1863 23.4804 13.6531 23.2305 14.0392C23.3639 14.448 23.454 14.8363 23.5096 15.2038L23.0832 15.3554C23.067 15.082 23.0216 14.7769 22.9434 14.4475C22.5617 14.9525 22.0964 15.3071 21.5493 15.5077L21.4348 15.0591C21.9354 14.863 22.3529 14.5344 22.6962 14.0731C22.98 13.681 23.2859 13.1399 23.6158 12.4552ZM25.0337 13.1247L25.413 13.305C25.2413 13.6663 25.0689 13.9918 24.903 14.2849C24.667 15.1914 24.6435 15.9863 24.8397 16.673L24.4069 16.8659C24.2906 16.3279 24.2789 15.7377 24.3699 15.0989C23.974 15.615 23.4892 15.9735 22.9099 16.1765L22.799 15.7296C23.3141 15.5404 23.7495 15.2115 24.1017 14.75C24.3909 14.356 24.7004 13.8166 25.0337 13.1247Z" fill="white"/>
<path d="M26.9875 14.0621C27.1458 14.3402 27.2675 14.6023 27.3525 14.8485L26.9773 14.9996C26.9074 14.7687 26.789 14.4992 26.6186 14.1985L26.9875 14.0621ZM26.0471 14.8923L26.8946 15.2603L26.2335 16.7829C26.3813 16.7337 26.5397 16.6804 26.7102 16.6192L26.6413 17.069C26.3036 17.184 25.9623 17.267 25.6143 17.3252L25.6173 16.9166C25.7036 16.8886 25.7669 16.8333 25.8019 16.7526L26.3611 15.4647L25.8878 15.2592L26.0471 14.8923ZM27.1694 15.9029L28.96 16.6803L28.8086 17.0288C28.5689 17.2998 28.2806 17.5017 27.9455 17.6309C28.1092 17.8764 28.3287 18.1243 28.6058 18.3798L28.257 18.6208C27.9611 18.3179 27.7267 18.0243 27.5626 17.7394C27.1888 17.8169 26.7701 17.827 26.2993 17.7665L26.2266 17.3512C26.6524 17.4052 27.0321 17.4044 27.3696 17.3503C27.2367 17.0135 27.1831 16.685 27.2193 16.3606L27.0101 16.2698L27.1694 15.9029ZM27.5789 16.5167C27.5688 16.7609 27.618 17.009 27.7355 17.2606C27.9959 17.1731 28.2203 17.0481 28.4154 16.8799L27.5789 16.5167ZM28.0354 14.5913L29.3563 15.1647L29.0266 15.9242C28.9915 16.005 29.0164 16.0681 29.1082 16.1079L29.4237 16.2449L29.2724 16.5935L28.8541 16.4119C28.5789 16.2924 28.4989 16.1051 28.6104 15.8482L28.8223 15.3602L28.2572 15.1149L28.2142 15.214C28.0486 15.5956 27.7214 15.8067 27.2433 15.8433L27.1139 15.4383C27.4778 15.4437 27.7152 15.3287 27.8188 15.0903L28.0354 14.5913Z" fill="white"/>
<path d="M30.9142 16.9084L31.876 17.2822L32.2963 16.201L32.699 16.3576L32.2787 17.4387L33.1921 17.7938L33.0414 18.1815L32.128 17.8265L31.3512 19.8248L30.9486 19.6683L31.7253 17.67L30.7634 17.2961L30.9142 16.9084ZM30.6667 15.6019C30.8305 15.8759 30.9608 16.1369 31.0591 16.381L30.6848 16.5488C30.6098 16.3223 30.4758 16.0599 30.2864 15.7631L30.6667 15.6019ZM29.7296 16.478L30.6169 16.8229L30.0112 18.3813C30.1555 18.3301 30.3117 18.2706 30.4796 18.2029L30.4252 18.6409C30.096 18.7704 29.7605 18.8718 29.415 18.9435L29.4021 18.5351C29.4909 18.5052 29.5506 18.4512 29.581 18.3729L30.0955 17.0493L29.5847 16.8508L29.7296 16.478Z" fill="white"/>
<path d="M34.0804 17.0069L36.5559 17.8525L35.9236 19.7035L33.4481 18.8579L34.0804 17.0069ZM35.663 19.1918L35.7897 18.8208L35.1235 18.5933L34.9968 18.9642L35.663 19.1918ZM34.6259 18.8375L34.7526 18.4665L34.094 18.2416L33.9672 18.6125L34.6259 18.8375ZM34.2129 17.8933L34.8716 18.1183L35.0021 17.736L34.3435 17.511L34.2129 17.8933ZM35.3731 17.8627L35.2425 18.245L35.9087 18.4726L36.0393 18.0903L35.3731 17.8627ZM33.2402 19.0827L33.5878 19.2902C33.3421 19.6755 33.0741 19.9897 32.7839 20.233L32.5131 19.8996C32.8045 19.6652 33.0456 19.3925 33.2402 19.0827ZM34.7963 19.3903C34.8641 19.6374 34.9115 19.8946 34.931 20.1591L34.5121 20.1977C34.4953 19.9003 34.4606 19.6307 34.4004 19.3861L34.7963 19.3903ZM35.8781 19.8739C35.9639 20.2414 36.0243 20.6213 36.0505 21.0149L35.6277 21.0523C35.6018 20.6207 35.5466 20.2257 35.4582 19.8658L35.8781 19.8739ZM34.7618 20.9763L33.7625 20.6349C33.471 20.5353 33.3776 20.3386 33.4772 20.0471L33.7552 19.2333L34.1488 19.3678L33.8993 20.0983C33.8657 20.1967 33.9019 20.264 34.0116 20.3015L34.8179 20.577C34.8709 20.5951 34.9165 20.5853 34.9534 20.5514C34.9992 20.5163 35.0634 20.3903 35.1498 20.1746L35.4856 20.4289C35.3364 20.7668 35.2136 20.9531 35.1159 20.9915C35.027 21.0288 34.9056 21.0254 34.7618 20.9763Z" fill="white"/>
<path d="M37.9994 21.1266L37.8877 21.5107C37.471 21.5395 37.0073 21.5296 36.5015 21.4783L36.5639 21.0632C37.0982 21.1312 37.5751 21.1532 37.9994 21.1266ZM38.0216 18.1712L38.361 18.4366C38.0701 18.8352 37.7961 19.1471 37.5444 19.3822L37.8804 19.4299C37.9821 19.3095 38.0937 19.1837 38.2086 19.0463L38.5191 19.2824C38.0716 19.7896 37.7072 20.1544 37.4325 20.3827C37.6567 20.3854 37.8941 20.3712 38.1371 20.3377L38.0299 20.7064C37.5912 20.7538 37.1912 20.7541 36.8299 20.7074L36.8312 20.3162C36.9093 20.3055 36.9819 20.285 37.0452 20.2534C37.1786 20.1673 37.3618 19.9956 37.5976 19.7434C37.4258 19.7184 37.2451 19.695 37.0606 19.6705L37.0707 19.2777C37.14 19.2687 37.2083 19.2344 37.2783 19.1798C37.5352 18.8838 37.783 18.5476 38.0216 18.1712ZM38.8887 20.3605L38.7747 20.7523L39.3394 20.9165L39.4533 20.5247L38.8887 20.3605ZM38.6686 21.1171L38.5357 21.5742L39.1003 21.7384L39.2332 21.2813L38.6686 21.1171ZM38.4274 21.9468L38.3704 22.1427L37.9863 22.0309L38.5984 19.9262C38.4699 20.0387 38.3397 20.1425 38.2068 20.2413L38.2023 19.7985C38.6117 19.4509 38.9488 19.0366 39.2137 18.5554L39.5716 18.7428C39.473 18.91 39.364 19.0699 39.2534 19.221L39.8026 19.3807C39.7964 19.1873 39.7825 18.9916 39.7548 18.8003L40.1729 18.8094C40.1877 19.0595 40.1927 19.2859 40.1867 19.4924L40.7245 19.6488L40.615 20.0252L40.0619 19.8644L39.9446 20.2677L40.4324 20.4095L40.3252 20.7783L39.8374 20.6364L39.7234 21.0282L40.2112 21.17L40.1051 21.5349L39.6173 21.393L39.4844 21.8501L40.1143 22.0333L40.0059 22.4059L38.4274 21.9468ZM39.6778 19.7527L39.1132 19.5885L38.9959 19.9918L39.5605 20.156L39.6778 19.7527Z" fill="white"/>
<path d="M42.5289 22.4266L42.4316 22.8311C41.7949 22.8095 41.1193 22.7621 40.4065 22.681L40.4028 22.2687C40.7098 22.3097 41.0138 22.3458 41.3118 22.3723L41.4579 21.7656L40.754 21.5962L40.8476 21.2073L41.5515 21.3768L41.646 20.984L42.0543 21.0823L41.9598 21.475L42.6015 21.6295L42.5079 22.0184L41.8662 21.8639L41.737 22.4006C42.0049 22.4157 42.2669 22.4212 42.5289 22.4266ZM41.1991 19.2513L43.163 19.724L43.0713 20.1051L42.1029 19.872C41.8715 20.1496 41.6726 20.3609 41.5069 20.502C41.7944 20.5383 42.0828 20.5707 42.3741 20.5914C42.3303 20.4657 42.2835 20.3351 42.2329 20.2036L42.5918 20.0802C42.767 20.4803 42.8903 20.8227 42.9665 21.1043L42.572 21.2562C42.5478 21.1517 42.5197 21.0462 42.4877 20.9397C41.981 20.9083 41.4353 20.851 40.8535 20.7726L40.8511 20.3894C40.9229 20.3985 40.9772 20.3951 41.0199 20.3889C41.1503 20.3257 41.3687 20.1191 41.6673 19.7672L41.1073 19.6324L41.1991 19.2513ZM43.3437 23.4003L42.7642 23.2609L42.7693 22.8466C42.9522 22.907 43.1254 22.9569 43.2926 22.9972C43.382 23.0187 43.4409 22.9794 43.4633 22.8861L44.1944 19.8488L44.6066 19.948L43.8503 23.0903C43.7848 23.3625 43.6159 23.4659 43.3437 23.4003ZM43.3635 20.0191L43.7563 20.1136L43.1843 22.4898L42.7916 22.3952L43.3635 20.0191Z" fill="white"/>
<path d="M45.3365 20.1407C45.5516 20.3775 45.7275 20.6068 45.8641 20.8286L45.5308 21.0578C45.4124 20.8477 45.238 20.6105 45.0062 20.3542L45.3365 20.1407ZM44.5996 21.1558L45.507 21.3302L45.1937 22.9604C45.3272 22.8802 45.4701 22.7936 45.6232 22.6967L45.654 23.1507C45.3495 23.3366 45.0345 23.4919 44.7076 23.6246L44.6214 23.2251C44.6995 23.1791 44.7492 23.1112 44.7658 23.0248L45.0308 21.646L44.5241 21.5486L44.5996 21.1558ZM45.9153 21.8975L47.8322 22.2659L47.7605 22.6391C47.5856 22.9558 47.3482 23.2156 47.0493 23.4148C47.2626 23.6187 47.5308 23.8128 47.857 24.0018L47.5691 24.313C47.2143 24.0819 46.9215 23.8464 46.6992 23.6041C46.3513 23.7613 45.9449 23.8624 45.4722 23.906L45.3108 23.5165C45.7381 23.4764 46.1085 23.3928 46.4261 23.2665C46.223 22.9668 46.0991 22.6578 46.0637 22.3333L45.8398 22.2903L45.9153 21.8975ZM46.4486 22.4073C46.492 22.6478 46.5942 22.8793 46.7637 23.0992C46.9988 22.957 47.1905 22.7861 47.3442 22.5795L46.4486 22.4073ZM46.4746 20.4286L47.8887 20.7004L47.7324 21.5136C47.7158 21.6 47.7539 21.6562 47.8521 21.675L48.1899 21.74L48.1182 22.1131L47.6704 22.0271C47.3758 21.9705 47.2568 21.805 47.3097 21.5301L47.4101 21.0076L46.8052 20.8914L46.7848 20.9974C46.7063 21.4059 46.433 21.6834 45.9743 21.8233L45.7598 21.4562C46.1162 21.3821 46.3228 21.2182 46.3719 20.9629L46.4746 20.4286Z" fill="white"/>
<path d="M49.8323 22.0598L50.8537 22.2073L51.0195 21.0592L51.4471 21.1209L51.2813 22.269L52.2512 22.4091L52.1918 22.8208L51.2219 22.6808L50.9154 24.8027L50.4878 24.741L50.7943 22.619L49.7729 22.4715L49.8323 22.0598ZM49.2968 20.8427C49.5182 21.0727 49.704 21.2976 49.8547 21.5134L49.5279 21.7612C49.4038 21.5574 49.214 21.3319 48.9627 21.0855L49.2968 20.8427ZM48.5813 21.9074L49.5235 22.0435L49.2845 23.6983C49.4136 23.6159 49.5524 23.5228 49.7007 23.4189L49.7464 23.858C49.4548 24.0583 49.1508 24.2327 48.8304 24.3804L48.7258 23.9854C48.8056 23.9363 48.8515 23.8702 48.8635 23.787L49.0665 22.3816L48.5241 22.3033L48.5813 21.9074Z" fill="white"/>
<path d="M54.2607 21.6795L56.2166 21.8971L56.171 22.3066L54.2151 22.089L54.2607 21.6795ZM54.0556 22.6548L56.2779 22.902L56.2323 23.3115L55.6201 23.2434L55.4348 24.9091C55.4056 25.1715 55.244 25.2863 54.9498 25.2536L54.3733 25.1895L54.327 24.7738C54.5081 24.8101 54.6817 24.8414 54.8487 24.86C54.956 24.872 55.0161 24.8384 55.0249 24.7589L55.1987 23.1965L54.01 23.0643L54.0556 22.6548ZM53.5897 21.4157L53.9475 21.6366C53.6886 22.0465 53.283 22.3999 52.7308 22.6966L52.6501 22.2651C53.0534 22.0403 53.3666 21.7572 53.5897 21.4157ZM53.6748 22.3509L54.0291 22.5674C53.9027 22.7626 53.7494 22.9468 53.5692 23.1199L53.3499 25.0917L52.9404 25.0462L53.1142 23.4838C52.9666 23.5801 52.8071 23.6751 52.6441 23.7656L52.5625 23.342C53.0422 23.0814 53.4133 22.7484 53.6748 22.3509Z" fill="white"/>
<path d="M56.7989 21.986L58.2974 22.1138L58.2638 22.5084L56.7652 22.3806L56.7989 21.986ZM56.56 23.0455L58.3495 23.1981L58.3148 23.6047L57.422 23.5285C57.2463 24.0354 57.0981 24.4082 56.9767 24.6548C57.2326 24.6204 57.4861 24.5657 57.7367 24.4988C57.6654 24.3 57.5926 24.1172 57.5192 23.9423L57.8803 23.8045C58.0277 24.1462 58.1722 24.5239 58.3056 24.9367C58.612 24.4971 58.7999 23.8949 58.8724 23.1384L58.8752 23.1065L58.3849 23.0647L58.4189 22.6661L58.9091 22.7079L58.9744 21.9427L59.3889 21.978L59.3236 22.7433L60.1805 22.8163C60.0684 24.1316 59.9791 24.9429 59.9167 25.2507C59.8438 25.5416 59.6239 25.6714 59.2573 25.6401C59.1935 25.6347 59.0866 25.6175 58.9282 25.592L58.8634 25.2211C59.0022 25.241 59.1211 25.2592 59.2248 25.268C59.3922 25.2823 59.4953 25.2027 59.5421 25.0301C59.5813 24.8528 59.646 24.2361 59.744 23.1806L59.2897 23.1418L59.2869 23.1737C59.1774 24.3165 58.8311 25.13 58.2438 25.6139L57.9524 25.312C58.0775 25.2103 58.188 25.0913 58.2876 24.9593L57.9299 25.1054C57.9055 25.015 57.8804 24.9326 57.855 24.8541C57.4243 24.9619 56.9644 25.0351 56.4786 25.082L56.4163 24.6832C56.4572 24.6747 56.4861 24.6651 56.503 24.6545C56.6196 24.5119 56.7931 24.1252 57.0195 23.4942L56.5253 23.4521L56.56 23.0455Z" fill="white"/>
<path d="M61.7133 23.2868L62.7438 23.3435L62.8074 22.1852L63.2388 22.2089L63.1751 23.3672L64.1536 23.421L64.1308 23.8364L63.1523 23.7826L63.0346 25.9233L62.6033 25.8996L62.7209 23.7589L61.6905 23.7022L61.7133 23.2868ZM61.0723 22.1219C61.3132 22.3314 61.5181 22.539 61.6873 22.7406L61.3837 23.0163C61.242 22.8243 61.0331 22.6165 60.7609 22.3932L61.0723 22.1219ZM60.4537 23.2457L61.4042 23.2979L61.3125 24.9674C61.4338 24.8739 61.5638 24.7689 61.7024 24.6523L61.7867 25.0856C61.5139 25.311 61.2265 25.5115 60.9204 25.6869L60.7813 25.3027C60.8565 25.2468 60.8964 25.1769 60.901 25.093L60.9789 23.6751L60.4317 23.645L60.4537 23.2457Z" fill="white"/>
<path d="M66.9165 22.6831L67.3204 22.6913L67.27 25.1508L66.8661 25.1425L66.9165 22.6831ZM67.6284 26.0143L67.0525 26.0025L66.9646 25.6047C67.1522 25.6245 67.328 25.6361 67.492 25.6395C67.6 25.6417 67.657 25.5908 67.6592 25.4869L67.7232 22.3635L68.1391 22.372L68.0729 25.6034C68.0671 25.8833 67.9163 26.0202 67.6284 26.0143ZM66.5743 23.1761L66.6341 23.5775L65.5148 23.7266C65.5274 23.8908 65.5483 24.0433 65.5735 24.1798C65.5986 24.3244 65.6278 24.461 65.6613 24.5817C65.8662 24.3459 66.0398 24.0734 66.1902 23.7604L66.5503 23.9558C66.3454 24.3877 66.0979 24.7507 65.8118 25.0489C65.8346 25.1054 65.8576 25.1539 65.8807 25.1984C66.008 25.429 66.1256 25.5474 66.2335 25.5537C66.2937 25.5429 66.3575 25.3602 66.4289 25.0015L66.776 25.2407C66.7079 25.4434 66.6403 25.614 66.5655 25.7525C66.4701 25.9186 66.3644 26.0004 66.2484 25.9981C66.0564 25.9941 65.8672 25.8582 65.6845 25.5984C65.6222 25.5131 65.5681 25.42 65.5182 25.315C65.2784 25.5021 65.0152 25.6527 64.7328 25.767L64.4926 25.382C64.8111 25.2645 65.0946 25.0982 65.347 24.8874C65.3018 24.7504 65.2567 24.6054 65.2199 24.4487C65.172 24.2516 65.1366 24.0269 65.1096 23.7783L64.6323 23.8405L64.5805 23.4393L65.0739 23.3734C65.0525 23.0529 65.0438 22.6967 65.0518 22.3048L65.4757 22.3135C65.4682 22.6814 65.4693 23.0175 65.4872 23.3179L66.5743 23.1761ZM66.0081 22.3004C66.1485 22.4793 66.2805 22.674 66.4081 22.8887L66.0525 23.0614C65.933 22.8429 65.8051 22.6403 65.6647 22.4614L66.0081 22.3004Z" fill="white"/>
<path d="M71.2902 22.8739L70.7942 22.8805L70.8073 23.8644L71.3033 23.8578L71.2902 22.8739ZM71.3087 24.2618L70.8087 24.2684C70.7793 25.0689 70.5512 25.664 70.1324 26.0536L69.8127 25.7778C70.1804 25.4529 70.3778 24.9542 70.4007 24.2739L70.0128 24.279L70.0074 23.8751L70.3994 23.8698L70.3863 22.8859L70.0823 22.89L70.0771 22.498L72.0089 22.4723L72.0141 22.8643L71.6941 22.8685L71.7072 23.8524L72.1392 23.8467L72.1446 24.2507L71.7126 24.2564L71.736 26.0123L71.332 26.0176L71.3087 24.2618ZM68.9467 22.9291L68.5187 22.9348L68.5134 22.5348L69.9373 22.5159L69.9426 22.9158L69.3427 22.9238C69.2944 23.2045 69.2259 23.4654 69.1372 23.7146L69.8451 23.7052L69.8706 25.621L69.1907 25.6301L69.1945 25.9141L68.8105 25.9192L68.7907 24.4353C68.7359 24.524 68.677 24.6088 68.6221 24.6896L68.3973 24.3325C68.6718 23.9128 68.8576 23.4463 68.9467 22.9291ZM69.1858 25.2661L69.4818 25.2622L69.466 24.0783L69.1701 24.0822L69.1858 25.2661Z" fill="white"/>
<path d="M74.3077 23.6062C74.5952 23.9664 74.8127 24.2815 74.9684 24.5551L74.6348 24.8095C74.4703 24.5161 74.2483 24.1892 73.969 23.8327L74.3077 23.6062ZM75.3552 25.844L74.6158 25.8752L74.5028 25.4756C74.7473 25.4813 74.9794 25.4795 75.1952 25.4704C75.2991 25.466 75.3491 25.4158 75.345 25.3199L75.2613 23.3377L73.8186 23.3987L73.8015 22.995L75.2442 22.9341L75.2133 22.2027L75.6369 22.1848L75.6678 22.9162L76.1714 22.8949L76.1884 23.2985L75.6849 23.3198L75.773 25.4059C75.7849 25.6857 75.6429 25.8318 75.3552 25.844ZM72.9756 22.3053C73.2357 22.4905 73.4598 22.6772 73.6477 22.8614L73.3723 23.1653C73.2127 22.9879 72.9846 22.8013 72.6921 22.6055L72.9756 22.3053ZM72.4689 23.4837L73.4201 23.4435L73.492 25.146C73.6273 25.0322 73.77 24.9021 73.9239 24.7554L74.0544 25.1903C73.7808 25.4421 73.486 25.6667 73.1702 25.8682L72.9945 25.4993C73.0639 25.4363 73.0968 25.3629 73.0933 25.279L73.0333 23.8602L72.4858 23.8834L72.4689 23.4837Z" fill="white"/>
<path d="M77.969 22.0247L78.2725 22.0067C78.804 22.5242 79.4045 22.9215 80.0778 23.1941L79.8743 23.6149C79.6356 23.5088 79.412 23.3858 79.1998 23.2541L79.2168 23.5416L77.2243 23.6596L77.2064 23.3561C77.0035 23.5164 76.7841 23.6696 76.5524 23.8155L76.3046 23.4215C76.9831 23.0367 77.5365 22.5712 77.969 22.0247ZM77.3209 23.2612L79.0579 23.1583C78.7161 22.9342 78.4125 22.6796 78.143 22.3911C77.9129 22.7012 77.6417 22.9937 77.3209 23.2612ZM76.6215 24.104L79.8638 23.912L79.888 24.3193L78.0312 24.4292C77.8819 24.7506 77.7026 25.0377 77.4927 25.2825C78.0299 25.2187 78.5543 25.1436 79.0619 25.0534C78.9376 24.9165 78.8051 24.7761 78.6643 24.6322L78.9757 24.4094C79.3622 24.7792 79.662 25.1061 79.8787 25.3817L79.5457 25.6459C79.4717 25.5461 79.3935 25.4425 79.3114 25.3432C78.6982 25.4757 77.932 25.5971 77.009 25.7079L76.8757 25.3511C76.9741 25.3213 77.0436 25.2771 77.0847 25.2266C77.2704 24.9792 77.4234 24.7217 77.5481 24.4578L76.6456 24.5113L76.6215 24.104Z" fill="white"/>
<path d="M84.2119 24.2317C84.1975 24.6454 84.1545 24.9206 84.0826 25.0533C84.0142 25.1778 83.8545 25.2519 83.5989 25.2677L82.557 25.3324C82.2935 25.3488 82.1573 25.221 82.1407 24.9535L82.0281 23.141L83.4294 23.054L83.3798 22.2555L81.8148 22.3527L81.79 21.9535L83.7543 21.8315L83.8534 23.4284L82.4601 23.515L82.5375 24.7606C82.5444 24.8723 82.604 24.9288 82.7163 24.9298L83.5068 24.8807C83.6425 24.8723 83.7269 24.8109 83.7524 24.7051C83.7779 24.5994 83.7899 24.4062 83.7883 24.1218L84.2119 24.2317ZM80.8719 21.8823C81.1355 22.0623 81.3633 22.2445 81.5548 22.425L81.2855 22.7343C81.1223 22.56 80.8906 22.3781 80.5943 22.1881L80.8719 21.8823ZM80.3886 23.0705L81.3387 23.0115L81.4434 24.6962C81.5647 24.5845 81.6932 24.4603 81.8288 24.3196L81.9676 24.7479C81.711 25.0043 81.4327 25.2339 81.1369 25.4407L80.9539 25.0753C81.0221 25.011 81.0535 24.9369 81.0483 24.853L80.9603 23.4358L80.4134 23.4697L80.3886 23.0705Z" fill="white"/>
<path d="M84.9331 21.7253L87.3138 21.5995L87.3819 22.8897L88.057 22.854L88.077 23.2335L87.4579 23.2662L87.7872 23.5092C87.593 23.7758 87.368 23.992 87.112 24.1497C87.419 24.3498 87.7724 24.5194 88.1727 24.6665L87.9804 25.0451C87.4073 24.811 86.9393 24.5193 86.5761 24.166L86.6099 24.8051C86.6246 25.0847 86.5084 25.235 86.2648 25.2479L85.7974 25.2726L85.6849 24.886C85.8295 24.8944 85.9699 24.899 86.1058 24.8918C86.1657 24.8886 86.1947 24.831 86.1892 24.7272L86.1615 24.2039C85.7882 24.5681 85.3411 24.9001 84.8244 25.2038L84.6362 24.8252C85.221 24.522 85.7194 24.1752 86.139 23.7765L86.1158 23.3371L84.6218 23.416L84.6018 23.0366L86.9585 22.9121L86.944 22.6365L85.1225 22.7327L85.1035 22.3732L86.925 22.277L86.9102 21.9973L84.9529 22.1007L84.9331 21.7253ZM85.1243 23.4496C85.3644 23.5971 85.5686 23.7465 85.7368 23.8979L85.4795 24.1838C85.3317 24.0394 85.1275 23.89 84.8626 23.7278L85.1243 23.4496ZM87.4499 23.2666L86.5312 23.3152L86.5519 23.7066C86.6322 23.7865 86.7203 23.862 86.8164 23.937C87.064 23.7717 87.2765 23.5482 87.4499 23.2666Z" fill="white"/>
<path d="M88.7176 21.3912L89.6138 23.2274L88.8551 25.1246L88.5056 24.9814L89.2021 23.2426L88.3796 21.5597L88.7176 21.3912ZM89.4131 21.3655L90.3093 23.2018L89.5506 25.099L89.2011 24.9558L89.8976 23.217L89.0591 21.5347L89.4131 21.3655Z" fill="white"/>
<defs>
<clipPath id="clip0_250_2949">
<rect x="2.77869" y="0.599968" width="4" height="4" rx="2" transform="rotate(27 2.77869 0.599968)" fill="white"/>
</clipPath>
</defs>
</svg>
