<svg width="95" height="19" viewBox="0 0 95 19" fill="none" xmlns="http://www.w3.org/2000/svg">
<path d="M6.41903 12.8527L6.7765 13.0144L5.97335 14.7139L6.70601 16.4377L6.35957 16.5883L5.56141 14.7073L6.41903 12.8527ZM7.11494 12.8638L7.45642 13.0253L6.66926 14.7249L7.40192 16.4488L7.05548 16.5993L6.25732 14.7184L7.11494 12.8638Z" fill="white"/>
<path d="M9.17934 14.5472L8.48339 14.5389L8.46595 16.0068C8.46471 16.1108 8.51609 16.1634 8.62808 16.1647L9.29204 16.1726C9.40803 16.174 9.4804 16.1429 9.50512 16.0832C9.53387 16.0195 9.55939 15.8918 9.57777 15.692L9.96812 15.8326C9.93194 16.1842 9.87743 16.3956 9.80858 16.4668C9.73982 16.53 9.60745 16.5604 9.41547 16.5581L8.43554 16.5465C8.17155 16.5433 8.04108 16.4138 8.04413 16.1578L8.06608 14.3099L7.90014 14.472L7.66015 14.1331C8.04021 13.7936 8.38899 13.3937 8.71057 12.9255L9.01455 12.9291C9.36615 13.3013 9.69357 13.6892 10.0009 14.0849L9.72554 14.3657C9.39098 13.9056 9.11513 13.5543 8.8939 13.3197C8.6904 13.6133 8.46299 13.8986 8.20378 14.1676L9.59168 14.1841L9.57843 15.3C9.57176 15.5239 9.44635 15.6424 9.20217 15.6555C9.04219 15.6536 8.89429 15.6439 8.7584 15.6343L8.65901 15.245C8.80681 15.2628 8.93471 15.2723 9.0387 15.2736C9.12669 15.2746 9.17121 15.2311 9.17216 15.1511L9.17934 14.5472ZM10.1705 13.2789L10.5784 13.2837L10.5492 15.7435L10.1413 15.7387L10.1705 13.2789ZM10.8271 16.5989L10.2311 16.5918L10.1398 16.1947C10.3316 16.213 10.5155 16.2232 10.6875 16.2252C10.7835 16.2264 10.8322 16.1669 10.8335 16.0549L10.8705 12.9472L11.2864 12.9521L11.2483 16.1639C11.2448 16.4559 11.1031 16.6022 10.8271 16.5989Z" fill="white"/>
<path d="M12.6936 13.5118L12.0817 13.5078L12.0839 13.1558L13.3799 13.1642C13.3523 13.104 13.3247 13.0478 13.297 12.9957L13.7495 12.9266C13.781 12.9988 13.8085 13.079 13.8399 13.1672L15.2119 13.1761L15.2096 13.5281L14.5856 13.524L14.4803 13.7313L15.3962 13.7373L15.3939 14.0973L11.89 14.0746L11.8923 13.7146L12.7763 13.7203L12.6936 13.5118ZM13.2123 13.7231L14.0443 13.7285L14.1496 13.5212L13.1296 13.5146L13.2123 13.7231ZM12.2891 14.2172L14.993 14.2347L14.9848 15.5066L13.7568 15.4987C13.9078 15.6517 14.0229 15.7884 14.1022 15.9049L13.7526 16.1467C13.6654 16.0181 13.5464 15.8733 13.3954 15.7124L13.7448 15.4986L12.2808 15.4891L12.2891 14.2172ZM14.5788 15.192L14.58 15.016L12.692 15.0038L12.6909 15.1798L14.5788 15.192ZM12.6939 14.7078L14.5819 14.72L14.583 14.548L12.695 14.5358L12.6939 14.7078ZM12.1279 15.6322L12.5354 15.7188C12.4413 16.0342 12.3116 16.3054 12.1461 16.5363L11.7875 16.306C11.9489 16.095 12.0624 15.8717 12.1279 15.6322ZM14.1897 16.5975L13.2137 16.5912C12.8897 16.5891 12.7307 16.4441 12.7325 16.1641L12.7358 15.6561L13.1598 15.6588L13.1571 16.0748C13.1564 16.1708 13.2161 16.2232 13.3361 16.224L14.1121 16.229C14.1801 16.2294 14.2282 16.2138 14.2564 16.1819C14.2966 16.1502 14.3213 16.0504 14.3343 15.8864L14.7295 16.021C14.6956 16.3008 14.6346 16.4684 14.5462 16.5238C14.4699 16.5713 14.3497 16.5986 14.1897 16.5975ZM14.9923 15.5827C15.2066 15.8441 15.3732 16.0692 15.4879 16.2619L15.1383 16.5037C15.0197 16.2909 14.8572 16.0538 14.6549 15.7925L14.9923 15.5827Z" fill="white"/>
<path d="M18.0587 15.4191L17.3347 15.4193L17.3346 15.0153L19.2146 15.0149L19.2147 15.4189L18.4827 15.4191L18.4828 16.1351L19.3948 16.1349L19.3949 16.5429L17.1549 16.5433L17.1548 16.1353L18.0588 16.1351L18.0587 15.4191ZM18.4145 14.3071C18.1345 14.5391 17.7826 14.7392 17.3626 14.8993L17.0945 14.5553C17.7985 14.3032 18.2864 13.9551 18.5664 13.507L17.2904 13.5073L17.2903 13.1073L19.0703 13.107L19.0703 13.435C18.9784 13.655 18.8504 13.859 18.6904 14.043C18.9905 14.235 19.2505 14.4229 19.4665 14.6109L19.1586 14.9189C18.9746 14.723 18.7265 14.519 18.4145 14.3071ZM17.1347 15.7033L17.1348 16.0913C16.7508 16.2914 16.3189 16.4554 15.8349 16.5755L15.7788 16.1715C16.2948 16.0554 16.7468 15.8994 17.1347 15.7033ZM16.4183 12.9474L16.8183 13.1034C16.6344 13.5714 16.4464 13.9554 16.2545 14.2515C16.3905 14.2354 16.5225 14.2194 16.6505 14.1994C16.7185 14.0674 16.7904 13.9274 16.8664 13.7753L17.2504 13.9193C16.9305 14.5193 16.6586 14.9594 16.4347 15.2434C16.6666 15.1834 16.9026 15.1073 17.1426 15.0153L17.1427 15.3913C16.7147 15.5514 16.3107 15.6594 15.9267 15.7155L15.8187 15.3395C15.8907 15.3075 15.9547 15.2675 16.0067 15.2195C16.1226 15.0995 16.2706 14.8834 16.4465 14.5754C16.2625 14.5994 16.0705 14.6275 15.8706 14.6555L15.7705 14.2755C15.8345 14.2475 15.8905 14.1955 15.9425 14.1235C16.1264 13.7635 16.2823 13.3714 16.4183 12.9474Z" fill="white"/>
<path d="M20.0152 13.0042C20.2808 13.2061 20.5024 13.4083 20.6881 13.6108L20.3945 13.9092C20.2369 13.7145 20.0152 13.5042 19.7294 13.2785L20.0152 13.0042ZM19.9225 13.917C20.1802 14.1229 20.3938 14.3252 20.5715 14.5278L20.2779 14.8262C20.1323 14.6273 19.9186 14.417 19.6447 14.1912L19.9225 13.917ZM20.2885 15.1541L20.6697 15.303C20.5015 15.7764 20.3171 16.2179 20.1124 16.6316L19.7191 16.4627C19.9396 16.0369 20.1281 15.6034 20.2885 15.1541ZM22.4107 14.921L22.8227 14.9176L22.8365 16.6336L22.4246 16.6369L22.4107 14.921ZM20.7976 13.3019L21.7736 13.294C21.7207 13.1905 21.664 13.0949 21.5992 13.0074L22.0466 12.9318C22.0995 13.0394 22.1525 13.159 22.2015 13.2906L23.1775 13.2827L23.1807 13.6747L22.8687 13.6772C22.7828 13.9339 22.6285 14.1552 22.406 14.337C22.6707 14.4268 22.9872 14.4883 23.3515 14.5173L23.2065 14.8905C22.7261 14.8464 22.3293 14.7456 22.016 14.5921C21.6973 14.7467 21.3022 14.8619 20.8348 14.9337L20.6598 14.5631C21.0394 14.512 21.3628 14.4414 21.6261 14.3473C21.4006 14.1651 21.2348 13.9464 21.1287 13.6913L20.8008 13.6939L20.7976 13.3019ZM21.5207 13.6881C21.6303 13.8792 21.7956 14.0379 22.0166 14.1641C22.2395 14.0263 22.3902 13.8651 22.4767 13.6804L21.5207 13.6881ZM21.2189 14.9506L21.6229 14.9473L21.6255 15.2673C21.6165 15.6474 21.555 15.9519 21.4368 16.1809C21.3225 16.3898 21.1359 16.5553 20.8808 16.6694L20.6539 16.3192C20.8771 16.2134 21.024 16.0802 21.0988 15.9236C21.1734 15.755 21.2157 15.5386 21.2215 15.2706L21.2189 14.9506Z" fill="white"/>
<path d="M25.175 14.4564L25.1823 14.8723C25.0475 14.9387 24.9086 15.0051 24.7737 15.0675L24.7936 16.1954C24.7984 16.4673 24.6649 16.6097 24.4009 16.6143L24.021 16.621L23.9179 16.2228C24.0342 16.2368 24.1424 16.2468 24.2464 16.245C24.3344 16.2435 24.3815 16.1946 24.3798 16.0986L24.3647 15.2388C24.1978 15.3057 24.0268 15.3647 23.8598 15.4197L23.7485 15.0096C23.9557 14.9619 24.1587 14.9024 24.3575 14.8308L24.3431 14.015L23.8112 14.0243L23.8042 13.6284L24.3361 13.619L24.3241 12.9391L24.7361 12.9319L24.7481 13.6118L25.152 13.6046L25.159 14.0006L24.755 14.0077L24.7666 14.6636C24.9014 14.5972 25.0403 14.5308 25.175 14.4564ZM25.7218 14.8388L25.753 16.6065L25.3571 16.6135L25.294 13.0381L27.1737 13.0049C27.1822 13.4848 27.1599 13.8093 27.1107 13.9702C27.0574 14.1231 26.8948 14.202 26.6228 14.2068L26.3189 14.2122L26.2006 13.8582C26.2606 13.8571 26.3367 13.8598 26.4287 13.8582C26.5206 13.8566 26.5886 13.8514 26.6364 13.8425C26.6762 13.8298 26.7118 13.8052 26.7351 13.7648C26.7581 13.7123 26.7759 13.588 26.7804 13.3879L25.6966 13.407L25.7151 14.4588L27.2229 14.4323L27.2292 14.7922C27.1764 15.1972 27.0585 15.5473 26.8756 15.8386C27.0584 15.9914 27.2729 16.1316 27.5192 16.2593L27.2449 16.5882C27.0144 16.4483 26.8158 16.2997 26.645 16.1427C26.4643 16.3339 26.251 16.4897 26.0052 16.6141L25.7987 16.2497C26.0208 16.1377 26.2063 15.9984 26.3555 15.8358C26.102 15.5282 25.9401 15.195 25.8738 14.8361L25.7218 14.8388ZM26.2418 14.8296C26.2983 15.0847 26.4104 15.3187 26.5782 15.5318C26.6985 15.3216 26.7863 15.0841 26.8377 14.8191L26.2418 14.8296Z" fill="white"/>
<path d="M31.0464 14.9368L31.0902 16.4722L30.6664 16.4843L30.661 16.2964L28.7978 16.3495L28.8032 16.5374L28.3793 16.5495L28.3355 15.0141L31.0464 14.9368ZM28.7866 15.9577L30.6499 15.9045L30.6338 15.3408L28.7705 15.3939L28.7866 15.9577ZM28.6158 13.7576C28.485 13.9414 28.3298 14.1099 28.1581 14.2629L27.9008 13.9421C28.2446 13.6482 28.4706 13.2936 28.5829 12.8822L29.0001 12.9184C28.9604 13.0715 28.9084 13.2131 28.8483 13.3509L29.4721 13.3331L29.4573 12.8133L29.8771 12.8013L29.8919 13.3211L31.1514 13.2852L31.1628 13.685L29.9033 13.7209L29.918 14.2367L31.4854 14.192L31.497 14.5999L27.8425 14.7041L27.8309 14.2962L29.4982 14.2487L29.4835 13.7329L28.6158 13.7576Z" fill="white"/>
<path d="M33.159 13.0654C33.4348 13.0547 33.6657 13.1257 33.8518 13.2785C34.034 13.4315 34.1299 13.6319 34.1399 13.8878C34.1495 14.1356 34.0624 14.3631 33.8865 14.5742C33.7792 14.6985 33.5853 14.8582 33.3129 15.0569C33.0286 15.2602 32.8593 15.435 32.801 15.5813L34.2079 15.5263L34.224 15.938L32.2335 16.0158C32.2221 15.7241 32.3042 15.4687 32.4876 15.2453C32.5869 15.1214 32.7998 14.9369 33.1227 14.6961C33.3015 14.561 33.4252 14.4481 33.5019 14.361C33.6203 14.2163 33.6783 14.0619 33.6721 13.902C33.666 13.7462 33.6175 13.632 33.5346 13.5591C33.4476 13.4865 33.3223 13.4554 33.1585 13.4618C32.9826 13.4686 32.853 13.5338 32.7698 13.6571C32.6862 13.7724 32.645 13.9462 32.6458 14.1703L32.1781 14.1886C32.1696 13.8687 32.2515 13.6093 32.4277 13.4063C32.6075 13.1911 32.8512 13.0775 33.159 13.0654Z" fill="white"/>
<path d="M36.0798 12.9371C36.4115 12.9209 36.6778 13.044 36.8792 13.3145C37.0679 13.5696 37.1732 13.9208 37.1951 14.3683C37.217 14.8158 37.1465 15.1756 36.9836 15.4479C36.8093 15.7328 36.5564 15.8853 36.2248 15.9015C35.8892 15.9179 35.6227 15.7908 35.4255 15.5241C35.2368 15.269 35.1315 14.9178 35.1096 14.4703C35.0877 14.0228 35.1582 13.663 35.3211 13.3907C35.4912 13.102 35.7443 12.9535 36.0798 12.9371ZM36.0992 13.3326C35.8715 13.3437 35.7177 13.4754 35.6383 13.7356C35.5828 13.9105 35.5624 14.1478 35.577 14.4474C35.5915 14.7431 35.635 14.9772 35.7075 15.1499C35.8117 15.3971 35.9778 15.5171 36.2055 15.506C36.4292 15.4951 36.5828 15.3594 36.6664 15.103C36.7217 14.9241 36.7421 14.6868 36.7277 14.3912C36.713 14.0915 36.6695 13.8574 36.5972 13.6887C36.4888 13.4377 36.3229 13.3217 36.0992 13.3326Z" fill="white"/>
<path d="M38.6502 12.8562L39.0016 12.8359L39.1658 15.6872L38.6986 15.7141L38.5668 13.4259C38.4041 13.5915 38.1951 13.7198 37.9359 13.8108L37.9092 13.3476C38.0352 13.3083 38.1677 13.2445 38.3069 13.1564C38.4456 13.0603 38.5601 12.9615 38.6502 12.8562Z" fill="white"/>
<path d="M41.0245 12.6523C41.3119 12.6332 41.5519 12.6853 41.7368 12.8133C41.9177 12.9415 42.0183 13.1272 42.0348 13.3747C42.0556 13.686 41.9098 13.9042 41.6014 14.029C41.7725 14.0697 41.9093 14.1367 42.004 14.2346C42.107 14.336 42.1642 14.4725 42.1754 14.6401C42.1929 14.9035 42.1155 15.1252 41.9431 15.3051C41.763 15.4895 41.5174 15.594 41.2061 15.6148C40.9107 15.6345 40.6662 15.5746 40.4765 15.435C40.2657 15.2806 40.1375 15.0406 40.0922 14.723L40.5672 14.6913C40.5874 14.8743 40.6529 15.0143 40.7713 15.1066C40.8772 15.1918 41.0121 15.2309 41.1757 15.2199C41.3553 15.208 41.4955 15.1465 41.5927 15.0398C41.6783 14.9419 41.7188 14.8269 41.7097 14.6912C41.6988 14.5276 41.6389 14.4113 41.5381 14.3419C41.437 14.2684 41.2949 14.2418 41.1113 14.2541L40.9117 14.2674L40.8883 13.9162L41.0879 13.9029C41.2555 13.8917 41.3808 13.8473 41.4638 13.7696C41.5429 13.6921 41.5796 13.5814 41.5703 13.4417C41.5609 13.3021 41.5141 13.2009 41.4335 13.1342C41.3449 13.0679 41.2188 13.0403 41.0551 13.0512C40.8875 13.0623 40.7624 13.1108 40.6762 13.2007C40.586 13.2909 40.5387 13.4224 40.5342 13.595L40.0752 13.6257C40.08 13.3367 40.1688 13.1063 40.3497 12.9339C40.5187 12.7622 40.7451 12.671 41.0245 12.6523Z" fill="white"/>
<path d="M44.9532 11.9799L45.3718 11.9463L45.4031 12.3371L46.0929 12.2818L46.1233 12.6606L45.4335 12.7159L45.4613 13.0628L46.3265 12.9934L46.3578 13.3842L44.2047 13.5567L44.1734 13.166L45.0426 13.0963L45.0148 12.7494L44.3649 12.8015L44.3346 12.4227L44.9845 12.3706L44.9532 11.9799ZM44.3206 13.9006L45.5247 13.8041L45.5075 13.5887L45.9142 13.5562L45.9314 13.7715L46.3461 13.7382L46.3774 14.129L45.9627 14.1622L46.0429 15.163C46.0653 15.4421 45.9449 15.5922 45.6897 15.6127L45.1833 15.6532L45.0683 15.2692C45.2251 15.2727 45.3775 15.2725 45.5211 15.261C45.6008 15.2546 45.6366 15.1996 45.6282 15.0959L45.556 14.1948L44.3519 14.2913L44.3206 13.9006ZM44.7144 14.3586C44.932 14.5699 45.0992 14.7531 45.2242 14.9116L44.9118 15.1694C44.7852 14.9909 44.617 14.7957 44.4078 14.5878L44.7144 14.3586ZM43.1272 13.3301C43.1106 13.524 43.0815 13.7109 43.044 13.8945L42.6729 13.8199C42.7589 13.3917 42.7912 12.9437 42.7701 12.4799L43.1472 12.4777C43.1513 12.6299 43.1555 12.7821 43.1511 12.9269L43.3504 12.9109L43.2875 12.1254L43.6902 12.0931L43.7531 12.8786L44.0522 12.8547L44.0841 13.2534L43.7851 13.2773L43.8503 14.0907C43.9584 14.0379 44.0585 13.9858 44.1584 13.9296L44.1897 14.3204C44.0856 14.3728 43.9814 14.4253 43.8809 14.4735L43.9854 15.7773L43.5827 15.8096L43.4897 14.6493C43.2878 14.7337 43.0856 14.8141 42.8788 14.8869L42.7468 14.4922C42.9905 14.4285 43.2253 14.3535 43.4587 14.2626L43.3824 13.3096L43.1272 13.3301Z" fill="white"/>
<path d="M47.4592 13.2737L46.858 13.3316L46.7264 11.966L48.4902 11.796L48.6218 13.1617L47.8653 13.2346C47.8704 13.3707 47.8704 13.4953 47.8699 13.6159L48.714 13.5345C48.7827 14.2472 48.8054 14.6911 48.7817 14.8622C48.7703 15.1606 48.5818 15.3315 48.2195 15.3664C48.1637 15.3718 48.0674 15.373 47.9349 15.3738L47.8004 15.021C47.9206 15.0175 48.0289 15.0151 48.1165 15.0066C48.2797 14.9909 48.3668 14.8941 48.3778 14.7162C48.3908 14.6426 48.3786 14.3907 48.3451 13.9599L47.8554 14.0071C47.8363 14.2259 47.8014 14.4061 47.7595 14.5548C47.6452 14.9114 47.4307 15.2295 47.1128 15.5173L46.8138 15.2085C47.0889 14.9771 47.2765 14.7139 47.3683 14.4157C47.4025 14.3119 47.4269 14.189 47.4453 14.0466L46.8003 14.1088L46.763 13.7226L47.4678 13.6546C47.4642 13.5344 47.4639 13.4059 47.4592 13.2737ZM48.8704 11.9884L49.2765 11.9493L49.5125 14.3979L49.1064 14.437L48.8704 11.9884ZM49.9884 15.208L49.4151 15.2632L49.2855 14.8779C49.4702 14.8762 49.6462 14.8673 49.8094 14.8515C49.9169 14.8412 49.9661 14.7681 49.9538 14.6407L49.658 11.5709L50.0721 11.531L50.3783 14.7083C50.4074 15.0109 50.2751 15.1804 49.9884 15.208ZM48.1916 12.8254L48.1321 12.2082L47.1566 12.3022L47.2161 12.9194L48.1916 12.8254Z" fill="white"/>
<path d="M51.4452 11.4131L51.8506 11.3672L51.9647 12.3727L52.1396 12.3529L52.186 12.7622L51.3116 12.8614L51.326 12.9886C51.3382 13.0959 51.346 13.1997 51.3533 13.2995L52.1124 13.2134L52.2769 14.6641C52.4293 14.2684 52.474 13.74 52.416 13.0864L52.2424 11.5562C52.873 11.4726 53.4279 11.3251 53.9107 11.1093L54.1514 11.4564C53.7136 11.6429 53.2139 11.7801 52.6601 11.8671L52.716 12.3599L54.1588 12.1963L54.1989 12.55C54.1701 13.0766 54.0651 13.5354 53.8756 13.9232C54.0766 14.1339 54.3111 14.2844 54.5755 14.3792L54.4107 14.7723C54.1242 14.6599 53.8725 14.4992 53.6591 14.2859C53.4786 14.5399 53.2613 14.7537 53.0002 14.9363L52.7631 14.5848C53.0127 14.4076 53.2185 14.199 53.377 13.9637C53.1426 13.636 52.9597 13.23 52.8318 12.7413L52.7602 12.7494L52.7936 13.0436C52.8656 13.8204 52.7968 14.4562 52.5908 14.9465L52.2783 14.676L52.3126 14.9781L51.9072 15.0241L51.7516 13.6529L51.378 13.6953C51.3952 14.273 51.3384 14.7303 51.2146 15.0584L50.8695 14.8197C50.987 14.436 51.0038 13.8384 50.9167 13.035L50.7503 11.5685L51.1597 11.522L51.2652 12.4521L51.5593 12.4187L51.4452 11.4131ZM53.2054 12.699C53.3077 13.0336 53.4369 13.3208 53.5934 13.5647C53.7138 13.2773 53.7833 12.9675 53.8055 12.6309L53.2054 12.699Z" fill="white"/>
<path d="M55.1662 11.7187C55.2535 11.7073 55.3285 11.7257 55.4002 11.7809C55.4675 11.8327 55.509 11.9039 55.5204 11.9911C55.5318 12.0784 55.5094 12.1539 55.4576 12.2212C55.4019 12.289 55.3347 12.33 55.2474 12.3414C55.1602 12.3528 55.0807 12.3309 55.0134 12.2791C54.9461 12.2274 54.9091 12.1596 54.8977 12.0724C54.8863 11.9851 54.9042 11.9061 54.956 11.8389C55.0072 11.7676 55.0789 11.73 55.1662 11.7187ZM55.3555 13.1704C55.4428 13.159 55.5178 13.1774 55.5895 13.2326C55.6568 13.2844 55.6984 13.3556 55.7097 13.4429C55.7211 13.5301 55.6987 13.6056 55.647 13.6729C55.5913 13.7407 55.524 13.7817 55.4367 13.7931C55.3495 13.8045 55.27 13.7826 55.2027 13.7308C55.1355 13.6791 55.0984 13.6113 55.087 13.5241C55.0756 13.4368 55.0936 13.3578 55.1453 13.2906C55.1965 13.2193 55.2683 13.1818 55.3555 13.1704Z" fill="white"/>
<path d="M59.4888 14.0493L59.0378 14.1163L58.8874 13.7303C59.0322 13.7249 59.1639 13.7134 59.2866 13.6952C59.3657 13.6834 59.3982 13.6301 59.3853 13.543L59.2653 12.7359C59.1141 12.8069 58.9589 12.8785 58.8071 12.9455L58.6454 12.5652C58.8374 12.4962 59.0242 12.4199 59.2053 12.3323L59.0876 11.541L58.5851 11.6157L58.5257 11.2161L59.0282 11.1414L58.9247 10.4451L59.3401 10.3833L59.4436 11.0796L59.8788 11.0149L59.9383 11.4146L59.503 11.4793L59.5995 12.1281C59.7337 12.0516 59.8628 11.9677 59.9918 11.8838L60.053 12.2952C59.9234 12.3752 59.7931 12.4512 59.6589 12.5277L59.8166 13.5881C59.8566 13.8571 59.746 14.0111 59.4888 14.0493ZM59.7163 10.4932L61.9913 10.1549L62.0513 10.5585L60.8565 10.7361C60.855 11.0801 60.8224 11.4044 60.754 11.7058L62.0319 11.5158L62.3519 13.6681L61.9523 13.7275L61.9282 13.5653L60.9865 13.7053L61.0107 13.8675L60.611 13.9269L60.4128 12.5936C60.3131 12.7661 60.1998 12.9286 60.0694 13.0854L59.8151 12.735C60.2438 12.2184 60.4551 11.5723 60.4529 10.7961L59.7763 10.8967L59.7163 10.4932ZM61.8705 13.1776L61.6899 11.9629L60.7483 12.1029L60.9289 13.3176L61.8705 13.1776Z" fill="white"/>
<path d="M63.204 10.8444L62.8607 10.9015L62.731 10.1202L64.1357 9.88688C64.0713 9.81648 64.0043 9.75463 63.9386 9.70066L64.3871 9.54508C64.4528 9.62337 64.5205 9.7135 64.5856 9.81218L66.0298 9.57235L66.1628 10.3734L65.8471 10.4258L65.8891 10.6783L65.3208 10.7727L65.3634 11.0292L64.9807 11.0928L64.9381 10.8363L64.1884 10.9608L64.2309 11.2173L63.8482 11.2808L63.8056 11.0243L63.2492 11.1167L63.204 10.8444ZM65.7407 10.3218L65.6915 10.0259L63.1977 10.44L63.2468 10.736L63.744 10.6534L63.7093 10.4443L64.092 10.3807L64.1268 10.5898L64.8765 10.4653L64.8411 10.2523L65.2239 10.1887L65.2592 10.4018L65.7407 10.3218ZM65.829 11.0492L66.0439 12.3435L65.6336 12.4116L65.4815 11.4962L63.8795 11.7622L64.0315 12.6777L63.6211 12.7458L63.4062 11.4515L65.829 11.0492ZM64.4502 11.8053L64.8488 11.7391L64.8966 12.0271C64.8992 12.0673 64.9012 12.1034 64.8998 12.1442L65.2313 12.0892L65.325 12.6534C65.3348 12.7126 65.3756 12.7383 65.4506 12.7258L66.0819 12.621C66.1372 12.6118 66.1773 12.5849 66.1997 12.5487C66.2253 12.508 66.23 12.3896 66.2104 12.1982L66.6016 12.259C66.6218 12.5759 66.6013 12.7699 66.5329 12.8462C66.471 12.9132 66.3651 12.9592 66.2152 12.9841L65.3944 13.1204C65.134 13.1636 64.9822 13.055 64.9402 12.8025L64.8694 12.3763C64.8194 12.563 64.7252 12.7287 64.5792 12.8746C64.341 13.1007 63.9338 13.3102 63.3537 13.5039L63.0704 13.19C63.6604 13.0069 64.0498 12.8368 64.238 12.6758C64.4202 12.5036 64.5098 12.3103 64.4981 12.0933L64.4502 11.8053Z" fill="white"/>
<path d="M70.0233 9.32722C70.1714 10.1662 70.2375 10.6786 70.2262 10.8674C70.2102 11.053 70.045 11.1756 69.726 11.2319L69.7102 11.2347L69.5211 10.8538C69.6045 10.8431 69.6801 10.8339 69.7431 10.8227C69.8061 10.8116 69.8346 10.766 69.8364 10.6844C69.8325 10.616 69.7965 10.3665 69.7247 9.93644L69.3064 10.1443L69.5583 11.5703L69.1644 11.6398L68.9334 10.3321L68.5119 10.5446L68.7603 11.9508C68.7791 12.0572 68.8479 12.1019 68.9739 12.0796L70.0178 11.8953C70.0769 11.8849 70.1153 11.8496 70.1332 11.7896C70.1549 11.7289 70.1487 11.5554 70.1104 11.2697L70.5134 11.3204C70.5556 11.7435 70.5443 12.0014 70.4787 12.0901C70.4171 12.1782 70.3137 12.2371 70.164 12.2635L68.9154 12.484C68.6081 12.5383 68.4274 12.4118 68.3731 12.1045L68.1317 10.7377L67.8928 10.857L67.8219 10.4552L68.0601 10.3319L67.8945 9.39445L68.2963 9.32349L68.4403 10.1389L68.8611 9.92241L68.6705 8.84311L69.0644 8.77354L69.2334 9.73073L70.0233 9.32722ZM68.0308 11.3851L68.1031 11.7947C67.7674 12.0328 67.4032 12.2474 67.0065 12.4393L66.8257 12.0366C66.9738 11.9779 67.1211 11.9154 67.2632 11.8456L67.0392 10.5772L66.6335 10.6489L66.5625 10.2471L66.9682 10.1754L66.7943 9.19067L67.2 9.11902L67.3739 10.1038L67.7403 10.0391L67.8112 10.4409L67.4449 10.5056L67.6452 11.64C67.7773 11.5598 67.904 11.4725 68.0308 11.3851Z" fill="white"/>
<path d="M70.3749 9.10011L72.0118 8.77951C71.9127 8.6481 71.8034 8.52686 71.6791 8.41262L72.0393 8.19126C72.1721 8.32829 72.3071 8.49749 72.4358 8.69647L73.8842 8.41277L73.9619 8.80924L71.9285 9.20749C71.9499 9.3582 71.9797 9.55208 72.0109 9.79461L73.6282 9.47785C73.7832 10.3524 73.8508 10.9057 73.8295 11.13C73.7992 11.4538 73.629 11.6461 73.3243 11.7139C73.1948 11.7393 73.0441 11.7607 72.8691 11.7827L72.6743 11.4337C72.8847 11.4047 73.0629 11.3779 73.2081 11.3495C73.3597 11.3117 73.4355 11.1786 73.4395 10.9495C73.4393 10.8232 73.3865 10.4912 73.2882 9.94796L72.0399 10.1924C72.0434 10.5015 72.0022 10.7909 71.9133 11.0651C71.7878 11.4442 71.5785 11.8113 71.2845 12.1624L70.9293 11.9303C71.2777 11.5034 71.4894 11.1277 71.5652 10.8072C71.6371 10.4874 71.6463 10.1391 71.5937 9.76627C71.5631 9.56846 71.5402 9.40991 71.5203 9.28745L70.4526 9.49658L70.3749 9.10011Z" fill="white"/>
<path d="M74.6207 9.03403L74.6644 7.80446L75.085 7.77682L75.0535 8.52728L75.5913 8.4027C75.5955 8.10199 75.5845 7.78839 75.5551 7.46672L75.9838 7.42078C76.0066 7.73167 76.017 8.02487 76.0122 8.3052L77.7852 7.89445L77.8746 8.28023L76.0002 8.71446C75.9883 8.84039 75.9785 8.95763 75.9687 9.07486L77.5119 8.71737L77.5913 9.06029C77.5682 9.3859 77.4462 9.70981 77.2291 10.0311C77.5583 10.1232 77.9386 10.187 78.3706 10.2265L78.2496 10.661C77.7461 10.597 77.314 10.5041 76.9523 10.3785C76.6971 10.6594 76.3712 10.9361 75.9745 11.2086L75.6717 10.8764C76.0181 10.6524 76.3072 10.4294 76.5351 10.2083C76.2523 10.0685 76.0261 9.90739 75.8518 9.72196C75.7051 10.3472 75.463 10.8796 75.1246 11.3152L74.8227 10.9868C75.2404 10.3974 75.4877 9.67489 75.5677 8.81466L74.6207 9.03403ZM76.0965 9.43123C76.2747 9.61576 76.5156 9.76936 76.82 9.89592C77.0066 9.65561 77.1272 9.41416 77.1837 9.17936L76.0965 9.43123ZM76.6258 7.21456C76.9369 7.35191 77.2089 7.49829 77.4351 7.6594L77.2145 8.01846C77.0164 7.85493 76.7495 7.69506 76.4106 7.54364L76.6258 7.21456Z" fill="white"/>
<path d="M79.0678 8.14001L79.5823 7.98969L79.5015 7.71325L78.8987 7.88937L78.975 8.15045C79.0423 8.38082 79.0947 8.60304 79.1334 8.82094L79.7707 8.63473L79.6855 8.34293L79.171 8.49324L79.0678 8.14001ZM79.1889 9.19643C79.2371 9.63241 79.2269 10.0396 79.1643 10.4246L78.7527 10.2282C78.8467 9.67979 78.7851 9.02686 78.568 8.26936L78.1922 6.98313L81.164 6.11489L81.4635 7.14004L80.9336 7.29484L81.0144 7.57128L81.5788 7.40638L81.682 7.75962L81.1176 7.92451L81.2028 8.21631L81.9016 8.01216L82.0071 8.37307L81.6231 8.48524L81.9109 8.64287C81.8426 8.80866 81.76 8.95366 81.6591 9.07899C81.8725 9.12497 82.105 9.13622 82.3527 9.11387L82.2756 9.54895C81.5395 9.56816 80.9358 9.3278 80.4674 8.82289L80.0105 8.95638L80.2113 9.64365C80.4161 9.51715 80.5939 9.39851 80.7427 9.28005L80.9261 9.62236C80.6388 9.82297 80.2856 10.0262 79.8703 10.2308L79.6607 9.91286C79.7701 9.83089 79.8085 9.71967 79.7704 9.58913L79.6189 9.0708L79.1889 9.19643ZM80.8706 8.70511C80.997 8.80985 81.1294 8.89203 81.2726 8.95436C81.3758 8.83672 81.4623 8.6906 81.5348 8.51104L80.8706 8.70511ZM80.542 7.40926L79.8893 7.59995L79.9701 7.8764L80.6228 7.6857L80.542 7.40926ZM80.1585 8.52143L80.8112 8.33073L80.726 8.03893L80.0733 8.22963L80.1585 8.52143ZM80.8674 6.59743L78.7058 7.22897L78.7955 7.53613L80.9571 6.90459L80.8674 6.59743Z" fill="white"/>
<path d="M83.7488 7.2546L84.1083 7.29141C84.0889 7.60598 84.0382 7.89379 83.9548 8.15111L83.5856 8.05388C83.676 7.81531 83.7299 7.54763 83.7488 7.2546ZM85.162 6.69393C85.4547 6.88369 85.6949 7.05882 85.8725 7.21463L85.6485 7.5414C85.4588 7.3645 85.2232 7.17908 84.9404 6.98138L85.162 6.69393ZM83.6293 5.10078L83.9367 4.98627C84.2564 5.22571 84.7135 5.37556 85.3051 5.42831L85.2163 5.81998C85.074 5.80469 84.9429 5.78522 84.8231 5.76156L84.9069 5.98645L84.4384 6.16102L84.5501 6.46089L85.4085 6.14108L85.5384 6.48967L84.68 6.80948L84.9314 7.48417C85.0235 7.73156 84.9511 7.90369 84.7149 7.99167L84.3888 8.11317L84.1672 7.78171C84.2702 7.76039 84.3681 7.73672 84.4581 7.7032C84.5293 7.67667 84.55 7.61772 84.5179 7.53151L84.3014 6.95053L83.4356 7.27313L83.3057 6.92454L84.1715 6.60194L84.0598 6.30207L83.5463 6.4934L83.4751 6.30224C83.4014 6.40227 83.3211 6.4962 83.2357 6.58778L82.915 6.35723C83.281 5.96475 83.5183 5.54765 83.6293 5.10078ZM83.6254 6.0755L84.6074 5.7096C84.3403 5.63413 84.1087 5.5283 83.9143 5.39586C83.8431 5.6401 83.7485 5.86742 83.6254 6.0755ZM81.9486 5.75686C82.27 5.86335 82.5577 5.98241 82.8027 6.11308L82.6296 6.4849C82.4136 6.35195 82.1269 6.224 81.776 6.10715L81.9486 5.75686ZM85.3434 8.33804C85.1373 8.41485 84.911 8.4949 84.6697 8.58053C84.4246 8.66755 84.2176 8.71908 84.0462 8.74025C83.8795 8.75113 83.7162 8.7138 83.5563 8.62826C83.4801 8.58409 83.4239 8.57086 83.3827 8.58622C83.3077 8.61415 83.2431 8.83031 83.1814 9.23748L82.7922 9.07514C82.8679 8.70545 82.9616 8.45284 83.0808 8.31451L82.6982 7.28748L82.2034 7.47183L82.0693 7.11199L82.9277 6.79218L83.4584 8.21653L83.515 8.2424C83.6375 8.30774 83.7516 8.35058 83.8597 8.36579C83.9894 8.38152 84.1655 8.35005 84.3894 8.27516C84.6082 8.1979 84.8645 8.10669 85.1569 7.99776C85.3405 7.92933 85.5266 7.85575 85.7215 7.78313C85.9098 7.70441 86.0532 7.64245 86.1516 7.59724L86.2018 8.01823L85.3434 8.33804Z" fill="white"/>
<path d="M88.2201 5.87454L87.4907 6.19334L87.3321 5.83048L89.15 5.0359L89.3086 5.39875L88.6049 5.70633L88.9125 6.41005L89.8471 6.00155L90.0025 6.35707L87.7191 7.35511L87.5637 6.99958L88.5277 6.57826L88.2201 5.87454ZM88.0982 4.69678C87.9263 5.04257 87.6667 5.38741 87.325 5.72444L86.9612 5.52115C87.5298 4.98448 87.8553 4.44063 87.9285 3.88913L86.6933 4.42899L86.5332 4.06248L88.2191 3.32556L88.3505 3.62611C88.3506 3.86614 88.3151 4.10433 88.2437 4.34067C88.6171 4.39578 88.9448 4.46644 89.2306 4.55105L89.0759 4.94609C88.8178 4.84499 88.4926 4.76013 88.0982 4.69678ZM85.892 4.16371L86.2981 4.17393C86.2931 4.65194 86.1455 5.15302 85.8498 5.67513L85.5707 5.35621C85.7791 4.96394 85.8855 4.56819 85.892 4.16371ZM86.4332 5.0622L86.8267 5.07356C86.8229 5.28473 86.7887 5.49612 86.7346 5.71186L87.5147 7.49681L87.1409 7.66021L86.5321 6.26744C86.468 6.40026 86.3965 6.53628 86.3197 6.67024L86.0459 6.35338C86.2865 5.92517 86.4142 5.49828 86.4332 5.0622Z" fill="white"/>
<path d="M89.2483 2.67604L90.7883 4.01901L90.8274 6.06192L90.4497 6.06594L90.4149 4.19315L89.0025 2.96281L89.2483 2.67604ZM89.8791 2.38186L91.419 3.72484L91.4582 5.76774L91.0805 5.77176L91.0457 3.89897L89.6188 2.6754L89.8791 2.38186Z" fill="white"/>
<g clip-path="url(#clip0_255_5799)">
<path fill-rule="evenodd" clip-rule="evenodd" d="M0.5 12.4H4.5V16.4H0.5V12.4Z" fill="#4B92DB"/>
<path d="M2.814 15.335C2.7995 15.3507 2.7836 15.3651 2.7665 15.378C2.6605 15.268 2.5355 15.147 2.417 15.147C2.3435 15.147 2.291 15.203 2.229 15.242C2.1435 15.297 2.026 15.328 1.9255 15.2875C1.86866 15.268 1.81819 15.2335 1.7795 15.1875C1.82206 15.214 1.87029 15.2301 1.92025 15.2345C1.97022 15.2388 2.0205 15.2313 2.067 15.2125C2.1655 15.1715 2.2665 15.117 2.379 15.117C2.545 15.117 2.703 15.2295 2.814 15.335ZM1.586 14.99C1.696 15.115 1.8755 15.075 2.022 15.106C2.0425 15.111 2.062 15.1175 2.084 15.114C2.0665 15.103 2.043 15.1015 2.023 15.094C1.909 15.051 1.8915 14.929 1.829 14.8455C1.909 14.8985 1.9745 14.9705 2.049 15.039C2.10152 15.0824 2.16503 15.1104 2.2325 15.12C2.2165 15.126 2.1955 15.125 2.1775 15.129C2.0575 15.159 1.9245 15.206 1.7965 15.164C1.70724 15.1342 1.63234 15.0722 1.5865 14.99H1.586ZM1.41 14.7C1.4785 14.8555 1.651 14.868 1.765 14.963C1.78544 14.9811 1.80813 14.9966 1.8325 15.009L1.834 15.008C1.80581 14.9834 1.78049 14.9557 1.7585 14.9255C1.693 14.8305 1.7145 14.7005 1.664 14.5995C1.71091 14.6516 1.74983 14.7104 1.7795 14.774C1.822 14.875 1.8365 14.9905 1.932 15.0675C1.8285 15.0335 1.7095 15.04 1.617 14.9795C1.519 14.9155 1.4285 14.8145 1.41 14.7005V14.7ZM1.3365 14.386C1.3465 14.523 1.4915 14.596 1.5615 14.7085C1.5765 14.7325 1.5915 14.7575 1.613 14.7765C1.6095 14.762 1.598 14.749 1.591 14.735C1.56805 14.6844 1.5589 14.6287 1.5645 14.5735C1.571 14.5035 1.6 14.4385 1.589 14.365C1.649 14.4945 1.6295 14.656 1.664 14.7955C1.672 14.8265 1.6905 14.8535 1.702 14.883C1.6435 14.838 1.5665 14.798 1.502 14.748C1.4377 14.7018 1.3875 14.6386 1.357 14.5655C1.33737 14.5078 1.33038 14.4466 1.3365 14.386ZM1.3405 14.134C1.3475 14.1035 1.353 14.072 1.366 14.044C1.341 14.173 1.427 14.266 1.456 14.378C1.467 14.42 1.471 14.4645 1.488 14.504C1.4895 14.5045 1.491 14.503 1.492 14.502C1.4495 14.383 1.512 14.273 1.572 14.1795C1.5867 14.1538 1.59717 14.126 1.603 14.097C1.6095 14.151 1.598 14.213 1.588 14.2685C1.5755 14.34 1.551 14.407 1.5315 14.476C1.52094 14.521 1.52009 14.5677 1.529 14.613L1.5225 14.608C1.4775 14.525 1.3885 14.46 1.362 14.369C1.33667 14.2934 1.32931 14.2129 1.3405 14.134ZM1.388 13.995C1.38964 13.9031 1.42323 13.8147 1.483 13.745C1.4845 13.744 1.486 13.7425 1.488 13.743C1.425 13.838 1.4825 13.959 1.474 14.0675L1.466 14.1785C1.467 14.1795 1.467 14.183 1.47 14.1815C1.474 14.169 1.475 14.156 1.477 14.143C1.492 14.053 1.571 13.991 1.6375 13.928C1.65288 13.9135 1.66484 13.8957 1.6725 13.876C1.667 13.921 1.6545 13.9665 1.6345 14.007C1.583 14.111 1.484 14.195 1.466 14.3135C1.4575 14.2 1.388 14.1155 1.388 13.995ZM1.553 13.6655C1.58175 13.6309 1.61999 13.6055 1.663 13.5925C1.5805 13.649 1.585 13.7495 1.56 13.8335C1.551 13.864 1.5375 13.893 1.53 13.9245L1.5325 13.9265C1.54724 13.8887 1.57031 13.8547 1.6 13.827C1.6575 13.773 1.744 13.74 1.7725 13.6605C1.771 13.771 1.677 13.855 1.591 13.92C1.55272 13.9489 1.52158 13.9862 1.5 14.029C1.503 13.999 1.505 13.973 1.502 13.9435C1.493 13.847 1.487 13.7385 1.5535 13.6655H1.553ZM1.8855 13.48C1.825 13.5335 1.7845 13.602 1.7375 13.6635C1.699 13.715 1.6455 13.7465 1.6 13.7895C1.625 13.7385 1.629 13.6795 1.6605 13.63C1.714 13.545 1.803 13.512 1.8855 13.48Z" fill="white"/>
<path d="M2.186 15.335C2.2005 15.3507 2.2164 15.3651 2.2335 15.378C2.3395 15.268 2.4645 15.147 2.583 15.147C2.6565 15.147 2.709 15.203 2.771 15.242C2.8565 15.297 2.974 15.328 3.0745 15.2875C3.13134 15.268 3.18181 15.2335 3.2205 15.1875C3.17794 15.214 3.12971 15.2301 3.07975 15.2345C3.02978 15.2388 2.9795 15.2313 2.933 15.2125C2.8345 15.1715 2.7335 15.117 2.621 15.117C2.455 15.117 2.297 15.2295 2.186 15.335ZM3.414 14.99C3.304 15.115 3.1245 15.075 2.978 15.106C2.9575 15.111 2.938 15.1175 2.916 15.114C2.9335 15.103 2.957 15.1015 2.977 15.094C3.091 15.051 3.1085 14.929 3.171 14.8455C3.091 14.8985 3.0255 14.9705 2.951 15.039C2.89848 15.0824 2.83497 15.1104 2.7675 15.12C2.7835 15.126 2.8045 15.125 2.8225 15.129C2.9425 15.159 3.0755 15.206 3.2035 15.164C3.29276 15.1342 3.36766 15.0722 3.4135 14.99H3.414ZM3.59 14.7C3.5215 14.8555 3.349 14.868 3.235 14.963C3.21456 14.9811 3.19187 14.9966 3.1675 15.009L3.166 15.008C3.19419 14.9834 3.21951 14.9557 3.2415 14.9255C3.307 14.8305 3.2855 14.7005 3.336 14.5995C3.28909 14.6516 3.25017 14.7104 3.2205 14.774C3.178 14.875 3.1635 14.9905 3.068 15.0675C3.1715 15.0335 3.2905 15.04 3.383 14.9795C3.481 14.9155 3.5715 14.8145 3.59 14.7005V14.7ZM3.6635 14.386C3.6535 14.523 3.5085 14.596 3.4385 14.7085C3.4235 14.7325 3.4085 14.7575 3.387 14.7765C3.3905 14.762 3.402 14.749 3.409 14.735C3.43195 14.6844 3.4411 14.6287 3.4355 14.5735C3.429 14.5035 3.4 14.4385 3.411 14.365C3.351 14.4945 3.3705 14.656 3.336 14.7955C3.328 14.8265 3.3095 14.8535 3.298 14.883C3.3565 14.838 3.4335 14.798 3.498 14.748C3.5623 14.7018 3.6125 14.6386 3.643 14.5655C3.66263 14.5078 3.66962 14.4466 3.6635 14.386ZM3.6595 14.134C3.6525 14.1035 3.647 14.072 3.634 14.044C3.659 14.173 3.573 14.266 3.544 14.378C3.533 14.42 3.529 14.4645 3.512 14.504C3.5105 14.5045 3.509 14.503 3.508 14.502C3.5505 14.383 3.488 14.273 3.428 14.1795C3.4133 14.1538 3.40283 14.126 3.397 14.097C3.3905 14.151 3.402 14.213 3.412 14.2685C3.4245 14.34 3.449 14.407 3.4685 14.476C3.47906 14.521 3.47991 14.5677 3.471 14.613L3.4775 14.608C3.5225 14.525 3.6115 14.46 3.638 14.369C3.66333 14.2934 3.67069 14.2129 3.6595 14.134ZM3.612 13.995C3.61036 13.9031 3.57677 13.8147 3.517 13.745C3.5155 13.744 3.514 13.7425 3.512 13.743C3.575 13.838 3.5175 13.959 3.526 14.0675L3.534 14.1785C3.533 14.1795 3.533 14.183 3.53 14.1815C3.526 14.169 3.525 14.156 3.523 14.143C3.508 14.053 3.429 13.991 3.3625 13.928C3.34712 13.9135 3.33516 13.8957 3.3275 13.876C3.333 13.921 3.3455 13.9665 3.3655 14.007C3.417 14.111 3.516 14.195 3.534 14.3135C3.5425 14.2 3.612 14.1155 3.612 13.995ZM3.447 13.6655C3.41825 13.6309 3.38001 13.6055 3.337 13.5925C3.4195 13.649 3.415 13.7495 3.44 13.8335C3.449 13.864 3.4625 13.893 3.47 13.9245L3.4675 13.9265C3.45276 13.8887 3.42969 13.8547 3.4 13.827C3.3425 13.773 3.256 13.74 3.2275 13.6605C3.229 13.771 3.323 13.855 3.409 13.92C3.44728 13.9489 3.47842 13.9862 3.5 14.029C3.497 13.999 3.495 13.973 3.498 13.9435C3.507 13.847 3.513 13.7385 3.4465 13.6655H3.447ZM3.1145 13.48C3.175 13.5335 3.2155 13.602 3.2625 13.6635C3.301 13.715 3.3545 13.7465 3.4 13.7895C3.375 13.7385 3.371 13.6795 3.3395 13.63C3.286 13.545 3.197 13.512 3.1145 13.48Z" fill="white"/>
<path d="M3.24219 14.5836L3.22344 14.5734C3.18565 14.6515 3.13553 14.723 3.075 14.7851L2.97031 14.6805C3.02113 14.6281 3.06285 14.5676 3.09375 14.5015L3.07578 14.4922C3.04583 14.5562 3.00544 14.6148 2.95625 14.6656L2.86094 14.5703C2.90128 14.5286 2.93406 14.4802 2.95781 14.4273L2.93984 14.418C2.9171 14.4691 2.88564 14.5159 2.84688 14.5562L2.74219 14.4523C2.77108 14.4218 2.79388 14.386 2.80938 14.3469L2.79141 14.3375C2.77695 14.3748 2.75546 14.409 2.72813 14.4383L2.63281 14.343C2.66005 14.3128 2.67606 14.2742 2.67813 14.2336H2.8125C2.81147 14.2692 2.80433 14.3043 2.79141 14.3375L2.80938 14.3469C2.82367 14.311 2.8316 14.2729 2.83281 14.2344H2.98125C2.97985 14.298 2.96577 14.3606 2.93984 14.4187L2.95781 14.4281C2.98504 14.3668 2.99965 14.3007 3.00078 14.2336H3.13516C3.13402 14.3233 3.11378 14.4117 3.07578 14.493L3.09375 14.5023C3.13281 14.4195 3.15391 14.3281 3.15547 14.2336H3.30391C3.30246 14.3514 3.27499 14.4675 3.22344 14.5734L3.24141 14.5836C3.29593 14.4716 3.32425 14.3487 3.32422 14.2242C3.32422 14.1164 3.30313 14.0117 3.26406 13.9148L3.24609 13.9226C3.28281 14.014 3.30234 14.1125 3.30391 14.214H3.15547C3.15409 14.1345 3.1382 14.0559 3.10859 13.982L3.09063 13.9898C3.11894 14.0613 3.13403 14.1372 3.13516 14.214H3.00078C2.99978 14.1552 2.98841 14.097 2.96719 14.0422L2.94922 14.05C2.96913 14.1024 2.97971 14.158 2.98047 14.214H2.83203C2.8312 14.1783 2.8246 14.143 2.8125 14.1094L2.79375 14.1172C2.80509 14.1483 2.81142 14.181 2.8125 14.214H2.67813C2.67606 14.1735 2.66005 14.1348 2.63281 14.1047L2.72813 14.0101C2.75733 14.0409 2.77993 14.0773 2.79453 14.1172L2.8125 14.1094C2.79698 14.0672 2.77306 14.0287 2.74219 13.9961L2.84688 13.8906C2.89107 13.9367 2.9256 13.9911 2.94844 14.0508L2.96719 14.043C2.9432 13.981 2.90708 13.9244 2.86094 13.8765L2.95625 13.782C3.01427 13.8418 3.05993 13.9124 3.09063 13.9898L3.10938 13.982C3.07753 13.9022 3.03028 13.8295 2.97031 13.768L3.07578 13.6625C3.14899 13.7373 3.20685 13.8256 3.24609 13.9226L3.26406 13.9148C3.22264 13.8124 3.16099 13.7194 3.08281 13.6414C3.00439 13.5628 2.91084 13.5008 2.80781 13.4594L2.8 13.4781C2.89756 13.5172 2.98649 13.575 3.06172 13.6484L2.95625 13.7539C2.89573 13.6949 2.82436 13.6482 2.74609 13.6164L2.73828 13.6351C2.81419 13.6658 2.88344 13.7109 2.94219 13.768L2.84688 13.8633C2.80152 13.8193 2.74823 13.7843 2.68984 13.7601L2.68203 13.7789C2.73805 13.8019 2.78922 13.8353 2.83281 13.8773L2.72813 13.982C2.69898 13.9545 2.6651 13.9326 2.62813 13.9172L2.62031 13.9359C2.65491 13.9502 2.68667 13.9706 2.71406 13.9961L2.61875 14.0914C2.58859 14.0642 2.54996 14.0481 2.50938 14.0461V13.9117C2.54774 13.9126 2.58561 13.9205 2.62109 13.9351L2.62891 13.9172C2.59125 13.9013 2.55099 13.8926 2.51016 13.8914V13.743C2.56917 13.7443 2.62744 13.7564 2.68203 13.7789L2.68984 13.7601C2.63272 13.7369 2.5718 13.7245 2.51016 13.7234V13.5875C2.5887 13.5888 2.66632 13.6047 2.73906 13.6344L2.74688 13.6156C2.67161 13.5852 2.59134 13.569 2.51016 13.568V13.4195C2.61172 13.4203 2.70938 13.4406 2.80078 13.4773L2.80859 13.4586C2.71045 13.4194 2.60567 13.3995 2.5 13.4C2.37193 13.3999 2.24563 13.4299 2.13125 13.4875L2.14063 13.5047C2.24913 13.4504 2.36855 13.4216 2.48984 13.4203V13.5687C2.39245 13.5701 2.2966 13.5933 2.20938 13.6367L2.21875 13.6539C2.30309 13.6121 2.39572 13.5897 2.48984 13.5883V13.7234C2.4175 13.7247 2.34632 13.7418 2.28125 13.7734L2.28984 13.7906C2.35227 13.7604 2.42051 13.7442 2.48984 13.743V13.8914C2.44468 13.8928 2.40027 13.9034 2.35938 13.9226L2.36797 13.9398C2.40622 13.922 2.44768 13.9122 2.48984 13.9109V14.0461C2.46875 14.0469 2.44922 14.0523 2.43047 14.0601L2.43984 14.0773C2.45894 14.0695 2.47937 14.0655 2.5 14.0656C2.52079 14.0657 2.54136 14.0699 2.56054 14.0779C2.57971 14.0859 2.5971 14.0977 2.61172 14.1125C2.62651 14.1271 2.63826 14.1445 2.6463 14.1637C2.65435 14.1828 2.65853 14.2034 2.65859 14.2242C2.65859 14.3109 2.5875 14.3828 2.5 14.3828C2.47907 14.3829 2.45834 14.3788 2.43902 14.3707C2.4197 14.3627 2.40218 14.3508 2.3875 14.3359C2.37285 14.3212 2.36124 14.3038 2.35334 14.2847C2.34543 14.2655 2.34137 14.2449 2.34141 14.2242C2.34141 14.1812 2.35781 14.1414 2.38828 14.1117C2.40304 14.097 2.42056 14.0853 2.43984 14.0773L2.43047 14.0594C2.41246 14.067 2.39583 14.0776 2.38125 14.0906L2.28594 13.9961C2.30981 13.9729 2.33724 13.9536 2.36719 13.939L2.35938 13.9234C2.32724 13.9384 2.2977 13.9585 2.27188 13.9828L2.16641 13.8765C2.20279 13.8416 2.24445 13.8126 2.28984 13.7906L2.28125 13.7734C2.23412 13.7965 2.19089 13.8268 2.15313 13.8633L2.05781 13.7672C2.10519 13.721 2.15949 13.6825 2.21875 13.6531L2.20938 13.6359C2.14845 13.6662 2.09257 13.7057 2.04375 13.7531L1.93828 13.6476C1.99789 13.5895 2.06615 13.5411 2.14063 13.5039L2.13125 13.4867C1.97071 13.5675 1.84075 13.6983 1.76094 13.8594L1.77813 13.8687C1.81558 13.7924 1.86489 13.7226 1.92422 13.6617L2.02969 13.7672C1.98058 13.8179 1.93995 13.8762 1.90938 13.9398L1.92656 13.9492C1.95629 13.8873 1.99587 13.8305 2.04375 13.7812L2.13906 13.8765C2.10047 13.9166 2.06879 13.9628 2.04531 14.0133L2.0625 14.0226C2.0848 13.9737 2.11517 13.9288 2.15234 13.8898L2.25781 13.9953C2.2308 14.0241 2.20911 14.0574 2.19375 14.0937L2.21094 14.1031C2.22543 14.0684 2.24608 14.0367 2.27188 14.0094L2.36719 14.1047C2.34016 14.1347 2.32418 14.173 2.32188 14.2133H2.1875C2.18858 14.1754 2.19652 14.1381 2.21094 14.1031L2.19375 14.0937C2.17753 14.1316 2.16852 14.1721 2.16719 14.2133H2.01875C2.02007 14.1474 2.03496 14.0825 2.0625 14.0226L2.04531 14.0133C2.01595 14.0759 1.99998 14.1441 1.99844 14.2133H1.86406C1.86556 14.1218 1.88688 14.0317 1.92656 13.9492L1.90938 13.9398C1.8681 14.0252 1.84597 14.1185 1.84453 14.2133H1.69609C1.69747 14.094 1.7255 13.9766 1.77813 13.8695L1.76094 13.8594C1.70485 13.9725 1.67571 14.0971 1.67578 14.2234C1.6759 14.302 1.68721 14.3801 1.70938 14.4555L1.72891 14.4508C1.70804 14.38 1.697 14.3066 1.69609 14.2328H1.84453C1.84538 14.2942 1.85484 14.3552 1.87266 14.414L1.89219 14.4094C1.87482 14.3521 1.86561 14.2926 1.86484 14.2328H1.99922C2.00001 14.2816 2.0079 14.33 2.02266 14.3765L2.04219 14.3719C2.0276 14.3269 2.0197 14.2801 2.01875 14.2328H2.16719C2.16828 14.2677 2.17488 14.3023 2.18672 14.3351L2.20625 14.3305C2.19483 14.2991 2.1885 14.2661 2.1875 14.2328H2.32188C2.32394 14.2734 2.33995 14.312 2.36719 14.3422L2.27188 14.4375C2.24297 14.4066 2.22064 14.3702 2.20625 14.3305L2.18672 14.3351C2.20208 14.3785 2.2263 14.4181 2.25781 14.4515L2.15313 14.5562C2.10264 14.504 2.0647 14.4409 2.04219 14.3719L2.02266 14.3765C2.04608 14.4492 2.08591 14.5155 2.13906 14.5703L2.04375 14.6656C1.97355 14.5935 1.92158 14.5056 1.89219 14.4094L1.87266 14.414C1.90278 14.5138 1.95636 14.6049 2.02891 14.6797L1.925 14.7844C1.8333 14.6909 1.76596 14.5764 1.72891 14.4508L1.70938 14.4555C1.74799 14.588 1.81947 14.7087 1.91719 14.8062C1.98438 14.8734 2.06172 14.9273 2.14453 14.9672L2.15469 14.95C2.07441 14.9118 2.00102 14.8606 1.9375 14.7984L2.04297 14.6937C2.09678 14.7459 2.15915 14.7884 2.22734 14.8195L2.23672 14.8023C2.17021 14.7721 2.10943 14.7306 2.05703 14.6797L2.15234 14.5844C2.19611 14.6266 2.2472 14.6605 2.30313 14.6844L2.31328 14.6672C2.25877 14.6442 2.20897 14.6114 2.16641 14.5703L2.27109 14.4656C2.30439 14.4968 2.34375 14.5207 2.38672 14.5359L2.39688 14.5187C2.35532 14.5045 2.31724 14.4816 2.28516 14.4515L2.38047 14.3562C2.41063 14.3835 2.44926 14.3995 2.48984 14.4015V14.5359C2.4579 14.535 2.42628 14.5292 2.39609 14.5187L2.38672 14.5367C2.41964 14.5483 2.45417 14.5546 2.48906 14.5555V14.7039C2.42868 14.7028 2.36904 14.6904 2.31328 14.6672L2.30313 14.6844C2.36198 14.7094 2.4251 14.723 2.48906 14.7242V14.8586C2.40197 14.8574 2.31607 14.8382 2.23672 14.8023L2.22734 14.8195C2.30953 14.8572 2.39865 14.8774 2.48906 14.8789V15.0273C2.37188 15.0258 2.25781 14.9992 2.15313 14.9492L2.14375 14.9672C2.25489 15.0207 2.37665 15.0484 2.5 15.0484C2.63125 15.0484 2.75781 15.0172 2.87109 14.9601L2.86172 14.9414C2.75265 14.9966 2.63238 15.026 2.51016 15.0273V14.8789C2.60867 14.8777 2.70562 14.8542 2.79375 14.8101L2.78438 14.7922C2.69921 14.835 2.60546 14.858 2.51016 14.8594V14.725C2.58425 14.7236 2.6571 14.7057 2.72344 14.6726L2.71406 14.6547C2.6507 14.6865 2.58105 14.7039 2.51016 14.7055V14.557C2.55735 14.5557 2.6037 14.5442 2.64609 14.5234L2.63672 14.5055C2.59721 14.5247 2.55408 14.5353 2.51016 14.5367V14.4023C2.55047 14.4001 2.5888 14.3841 2.61875 14.357L2.71406 14.4523C2.69109 14.4738 2.66501 14.4917 2.63672 14.5055L2.64609 14.5234C2.67615 14.5086 2.70381 14.4894 2.72813 14.4664L2.83281 14.5711C2.79768 14.6048 2.75764 14.633 2.71406 14.6547L2.72344 14.6726C2.76877 14.6499 2.81039 14.6204 2.84688 14.5851L2.94219 14.6805C2.89557 14.7255 2.84235 14.7632 2.78438 14.7922L2.79375 14.8101C2.8535 14.7801 2.9083 14.7411 2.95625 14.6945L3.06094 14.7992C3.00215 14.8565 2.93497 14.9044 2.86172 14.9414L2.87109 14.9601C2.94907 14.9206 3.02027 14.8689 3.08203 14.807C3.14726 14.742 3.20113 14.6664 3.24141 14.5836H3.24219Z" fill="white"/>
<path d="M2.54217 14.0328V14.0398H2.54764V14.0336L2.54217 14.0328ZM2.53436 14.025H2.54217V14.0305H2.53436V14.025ZM2.52889 14.025V14.0195L2.52342 14.0187V14.0234L2.52889 14.025ZM2.51795 14.0219L2.51248 14.0211V14.0156L2.51873 14.0164L2.51795 14.0219ZM2.4703 14.0156H2.47655V14.0203H2.4703V14.0156ZM2.46092 14.025V14.0203L2.45545 14.0195V14.0242L2.46092 14.025ZM2.45545 14.0328L2.44842 14.0305L2.44998 14.0258L2.45623 14.0273L2.45545 14.0328ZM2.44373 14.0383L2.44295 14.0336L2.44764 14.0328L2.44842 14.0375L2.44373 14.0383ZM1.78905 14.5484H1.78514V14.5562H1.79217V14.568H1.79686L1.79608 14.5547L1.78905 14.5523V14.5484ZM1.85467 14.6219L1.85155 14.6273L1.84217 14.6195L1.83592 14.6101L1.8328 14.6023L1.82655 14.5867L1.83905 14.593L1.84295 14.6047L1.8492 14.6094L1.85467 14.6219ZM2.02342 14.8453L2.01717 14.8351L2.02733 14.8367L2.03748 14.8461L2.04217 14.857L2.03592 14.8601L2.0328 14.8555L2.02498 14.8531L2.02342 14.8453ZM2.47498 14.0875H2.46561L2.46405 14.0687L2.46952 14.0648V14.0562H2.43983V14.0484L2.44373 14.0453L2.4367 14.043L2.43202 14.05L2.43045 14.0578L2.42186 14.0594V14.0633H2.41561V14.0742L2.39217 14.0937L2.34608 14.0922C2.34295 14.1 2.33436 14.0914 2.33436 14.0914C2.3328 14.0859 2.32108 14.0914 2.32108 14.0914C2.32108 14.1 2.30545 14.0867 2.30545 14.0867L2.27655 14.0656C2.26014 14.05 2.23514 14.0703 2.23436 14.0742C2.23436 14.0859 2.21483 14.0765 2.21483 14.0765C2.21483 14.0765 2.19842 14.0719 2.19608 14.0781C2.19295 14.0851 2.1828 14.0836 2.1828 14.0836L2.18045 14.0867L2.17264 14.0883L2.17108 14.0937L2.16092 14.0953L2.18592 14.0945C2.19217 14.0937 2.18358 14.1086 2.17889 14.1078L2.16717 14.1086L2.16326 14.1133H2.15233L2.14764 14.1195H2.13201C2.13201 14.1195 2.12264 14.1265 2.12342 14.1289C2.1242 14.1312 2.12186 14.139 2.11951 14.139C2.11717 14.139 2.1117 14.1469 2.11326 14.1492C2.11483 14.1515 2.10858 14.1601 2.10858 14.1601L2.10701 14.168L2.10155 14.1703V14.1937L2.09217 14.2V14.2101L2.07655 14.2258L2.07889 14.2398L2.06639 14.2531L2.06795 14.2664L2.06014 14.2687L2.05858 14.275L2.05545 14.293H2.06326C2.06795 14.2922 2.06717 14.3047 2.06326 14.3062C2.06014 14.3078 2.05076 14.3109 2.05545 14.314C2.06092 14.318 2.04295 14.3172 2.04295 14.3117C2.04295 14.307 2.0328 14.3031 2.03045 14.3039C2.02811 14.3062 2.02342 14.2969 2.02342 14.2969C2.01483 14.2875 1.9867 14.2976 1.9867 14.2976L1.98201 14.3109C1.97264 14.3133 1.96717 14.3281 1.96717 14.3281C1.95936 14.3305 1.95389 14.3398 1.95623 14.3422C1.95858 14.3453 1.95233 14.3461 1.95233 14.3461V14.364L1.94842 14.3703V14.3906C1.95389 14.3906 1.95311 14.4 1.95311 14.4C1.9453 14.4 1.94608 14.4117 1.94608 14.4117L1.92889 14.4172L1.92576 14.4226L1.90389 14.4219L1.89842 14.4273L1.89217 14.4219H1.85076L1.8492 14.4172L1.84139 14.4156L1.83983 14.4062L1.82733 14.407L1.82498 14.4125H1.8117C1.81248 14.4219 1.79842 14.4344 1.79608 14.4312C1.7953 14.4273 1.78592 14.4187 1.78983 14.4164L1.80545 14.4133V14.407H1.7742L1.77108 14.4117H1.7578V14.4258L1.75233 14.4273C1.74764 14.4305 1.75233 14.439 1.75233 14.439C1.75858 14.4453 1.75233 14.4547 1.75233 14.4547C1.74686 14.4594 1.75623 14.4687 1.75623 14.4687C1.76248 14.4703 1.75233 14.4758 1.75233 14.4758C1.75389 14.4836 1.75858 14.4867 1.75858 14.4867C1.75389 14.4945 1.7617 14.4992 1.7617 14.4992L1.76248 14.5133L1.76873 14.5172V14.5265L1.77186 14.532H1.78514L1.78436 14.5109C1.77264 14.4976 1.79451 14.4945 1.7953 14.4992C1.7953 14.5047 1.80545 14.507 1.80545 14.507C1.80701 14.5195 1.82108 14.5273 1.82498 14.5148C1.82889 14.5015 1.8328 14.5094 1.83514 14.5148C1.83748 14.5211 1.85311 14.5359 1.85311 14.5359H1.86561L1.86717 14.5476C1.88123 14.5469 1.88592 14.5476 1.89139 14.568C1.89303 14.5733 1.89585 14.5781 1.89963 14.5822C1.90342 14.5862 1.90808 14.5894 1.91326 14.5914H1.92498C1.92498 14.5812 1.9367 14.593 1.9367 14.5984C1.9367 14.6031 1.95858 14.6219 1.95858 14.6219L1.98201 14.6273L2.00233 14.6445L2.01795 14.643H2.02498C2.02889 14.6281 2.04842 14.643 2.05076 14.6484C2.05233 14.6539 2.06561 14.6625 2.06639 14.6578C2.06873 14.6539 2.07811 14.6562 2.07967 14.6687C2.08123 14.6812 2.08748 14.6789 2.08748 14.6789H2.13436L2.15076 14.6633H2.19295C2.21483 14.6625 2.20155 14.632 2.19764 14.632C2.18983 14.6265 2.19998 14.6023 2.19998 14.6023L2.13905 14.5461C2.12498 14.5461 2.13748 14.525 2.13748 14.525C2.14842 14.5187 2.13514 14.5078 2.13514 14.5078C2.1367 14.4976 2.12967 14.4859 2.12967 14.4859C2.11405 14.4758 2.11873 14.4562 2.11873 14.4562V14.443C2.10623 14.4312 2.12342 14.4289 2.12342 14.4289C2.12967 14.4187 2.11951 14.4117 2.11951 14.4117L2.11873 14.4008L2.10545 14.3992L2.10389 14.3594L2.07342 14.3164C2.06795 14.3148 2.07186 14.3047 2.07186 14.3047C2.07967 14.3 2.0703 14.2898 2.0703 14.2898L2.06951 14.2719L2.0867 14.2695L2.09139 14.2633H2.0992V14.2414C2.10233 14.2305 2.11248 14.2359 2.11248 14.2359L2.1242 14.2367L2.13123 14.2242L2.1328 14.214H2.12342C2.11326 14.207 2.11873 14.1851 2.11873 14.1851C2.13436 14.1617 2.15233 14.175 2.15233 14.175H2.16405C2.18201 14.1859 2.16561 14.2086 2.16561 14.2086C2.16248 14.2133 2.16405 14.2297 2.16405 14.2297L2.16873 14.2562L2.1578 14.2656C2.14842 14.2703 2.14842 14.2828 2.1578 14.2851C2.16561 14.2851 2.16248 14.3015 2.15233 14.2906C2.13748 14.2906 2.16014 14.3047 2.15389 14.3008C2.16951 14.3086 2.16561 14.2945 2.16561 14.2945L2.18592 14.2789C2.19373 14.2726 2.20623 14.2906 2.20623 14.2937C2.20623 14.2961 2.23983 14.2937 2.23983 14.2937C2.2492 14.3 2.25233 14.3156 2.25233 14.3156C2.2617 14.3039 2.28045 14.3148 2.26639 14.3211C2.27967 14.3297 2.27967 14.3367 2.27967 14.3367C2.29061 14.3336 2.29061 14.3422 2.29061 14.3445L2.29373 14.332C2.28123 14.3226 2.31014 14.3195 2.30155 14.3367L2.29686 14.3445L2.30545 14.3508L2.30623 14.3703C2.32498 14.3687 2.31951 14.3461 2.31951 14.3461L2.32733 14.3437C2.32733 14.3359 2.33358 14.3406 2.33358 14.3406C2.32811 14.3117 2.34686 14.307 2.34686 14.307C2.3578 14.3047 2.35858 14.2812 2.35858 14.2812C2.35076 14.2781 2.35545 14.2664 2.36405 14.2765C2.37186 14.2867 2.35858 14.2562 2.35858 14.2562L2.35233 14.2508L2.34295 14.2492L2.34217 14.2406H2.32655L2.32498 14.2523L2.31873 14.2539L2.31717 14.2508L2.31483 14.2594H2.2992V14.2492L2.3078 14.2469L2.3117 14.2422L2.31405 14.2281H2.32498L2.33905 14.2242C2.33905 14.2101 2.34686 14.2133 2.34686 14.2133L2.35233 14.2172L2.36014 14.2234V14.2281L2.35545 14.2312L2.35467 14.2375L2.35701 14.2469H2.36405C2.36639 14.2336 2.38358 14.2336 2.38905 14.2422L2.39373 14.2305C2.38201 14.2242 2.39373 14.2148 2.39686 14.2195C2.39998 14.2234 2.4078 14.2086 2.4078 14.2086C2.4078 14.2086 2.41326 14.2164 2.4078 14.2055C2.40155 14.1953 2.4117 14.1898 2.4117 14.1898C2.41014 14.1805 2.42264 14.182 2.42264 14.182L2.42342 14.1687L2.4117 14.168C2.40936 14.1797 2.3992 14.1695 2.40389 14.1672C2.40858 14.1648 2.41405 14.1594 2.41405 14.1594V14.1515L2.41951 14.1492V14.1414H2.4328L2.44373 14.1359L2.44608 14.1312H2.4578L2.4742 14.1156L2.47264 14.1086C2.46248 14.1086 2.47264 14.1008 2.47264 14.1008L2.4742 14.0883L2.47498 14.0875Z" fill="white"/>
<path d="M2.13904 14.2547L2.1242 14.2531L2.12498 14.2594H2.12967C2.13592 14.2711 2.12967 14.2992 2.12967 14.2992C2.12967 14.2992 2.12029 14.3 2.11873 14.2953C2.11717 14.2898 2.11248 14.3062 2.11639 14.3086C2.11951 14.3109 2.13123 14.3086 2.13201 14.318C2.13201 14.3273 2.13982 14.3125 2.13982 14.3125V14.2547H2.13904Z" fill="white"/>
<path d="M2.14297 14.3492L2.14453 14.3414L2.13828 14.3391L2.13906 14.3266L2.14453 14.3258V14.3195L2.13281 14.3281L2.125 14.3234V14.3437L2.1375 14.3609L2.14297 14.3492ZM2.14609 14.3711L2.13984 14.3719V14.3789H2.14609V14.3711ZM2.13828 14.4141L2.13125 14.4148V14.4211L2.13906 14.4203L2.13828 14.4141ZM2.14844 14.3937C2.15 14.3937 2.15156 14.393 2.15156 14.3906C2.15156 14.3883 2.15 14.3867 2.14844 14.3867C2.14687 14.3867 2.14453 14.3883 2.14453 14.3906C2.14453 14.3922 2.14609 14.3937 2.14844 14.3937Z" fill="white"/>
<path d="M2.15393 14.4125C2.15609 14.4125 2.15784 14.4107 2.15784 14.4086C2.15784 14.4064 2.15609 14.4047 2.15393 14.4047C2.15177 14.4047 2.15002 14.4064 2.15002 14.4086C2.15002 14.4107 2.15177 14.4125 2.15393 14.4125Z" fill="white"/>
<path d="M2.15393 14.3156C2.15609 14.3156 2.15784 14.3139 2.15784 14.3117C2.15784 14.3095 2.15609 14.3078 2.15393 14.3078C2.15177 14.3078 2.15002 14.3095 2.15002 14.3117C2.15002 14.3139 2.15177 14.3156 2.15393 14.3156Z" fill="white"/>
<path d="M2.38669 14.2859L2.38904 14.2781L2.39373 14.275V14.2672L2.39763 14.2609L2.4031 14.2547L2.40466 14.2476L2.41248 14.243L2.42263 14.2414L2.42654 14.2359L2.42888 14.2258V14.218L2.43279 14.2133L2.44294 14.2094V14.1937H2.43748V14.1875L2.4281 14.1867L2.42576 14.1906H2.42185L2.42107 14.1976H2.42576L2.42654 14.2023L2.42341 14.2055L2.42185 14.2101L2.4156 14.2117L2.39998 14.2258V14.2328L2.39529 14.239L2.3906 14.2515H2.37263L2.36951 14.2672L2.37185 14.2797L2.38669 14.2859ZM2.46013 14.2445V14.2328L2.45857 14.2219L2.44607 14.2156L2.43669 14.2242L2.43513 14.2359V14.2437L2.42732 14.2453L2.42498 14.2687L2.41873 14.2711V14.2789L2.41091 14.282L2.40076 14.2844L2.39919 14.2953L2.39294 14.2992L2.38982 14.3094L2.38513 14.3344C2.38513 14.3344 2.39294 14.3484 2.39685 14.3422C2.39798 14.3401 2.39954 14.3384 2.40144 14.337C2.40333 14.3357 2.4055 14.3348 2.40779 14.3344L2.41013 14.3281L2.43279 14.3289C2.43435 14.3195 2.44529 14.3234 2.44529 14.3273C2.44529 14.3312 2.4531 14.3281 2.4531 14.3281L2.45935 14.3187H2.46873V14.3086L2.47341 14.3062V14.2906C2.48669 14.2867 2.48513 14.2742 2.48513 14.2742L2.48826 14.2703L2.48669 14.264C2.47966 14.2617 2.48357 14.2562 2.48748 14.257C2.49138 14.2594 2.48201 14.2492 2.48201 14.2492C2.47654 14.2539 2.47263 14.2445 2.47263 14.2445H2.46013ZM2.47341 14.3461C2.47263 14.357 2.46013 14.3601 2.46013 14.3601L2.45076 14.3578L2.44607 14.3531L2.44529 14.3414H2.4531L2.45388 14.3461H2.47341ZM2.51794 14.293C2.52029 14.3008 2.51951 14.2812 2.52341 14.282C2.52654 14.282 2.52341 14.2703 2.52341 14.2703L2.50935 14.2812C2.51716 14.2812 2.51716 14.289 2.51794 14.293ZM2.56248 14.2484C2.5656 14.2562 2.56482 14.2672 2.57732 14.2758C2.58123 14.2789 2.57498 14.2836 2.57029 14.282C2.56638 14.2789 2.55466 14.2609 2.55466 14.2609V14.25C2.55701 14.243 2.56091 14.2453 2.56248 14.2492V14.2484ZM2.57341 14.5031L2.56794 14.5008L2.56248 14.5055L2.56482 14.5078L2.56716 14.5117L2.57341 14.5031ZM2.54216 14.4914V14.5023ZM2.66873 14.475L2.6656 14.4711L2.65935 14.475L2.66169 14.4797L2.66873 14.475ZM2.90232 14.6555L2.91013 14.6586V14.6734C2.92029 14.6836 2.9531 14.675 2.9531 14.6726L2.95154 14.6414L2.94685 14.6367V14.6156C2.94998 14.6047 2.93123 14.589 2.92888 14.5922C2.92732 14.5953 2.91638 14.593 2.91638 14.5961C2.91638 14.6 2.90935 14.6164 2.91326 14.6226C2.91638 14.6281 2.91091 14.6281 2.90935 14.6344C2.90935 14.6406 2.90076 14.65 2.90154 14.6555H2.90232ZM2.88357 14.6219C2.88201 14.6281 2.87654 14.632 2.87341 14.6297C2.86951 14.6265 2.87732 14.6336 2.87888 14.6375C2.87931 14.6381 2.87989 14.6387 2.88057 14.639C2.88125 14.6394 2.88201 14.6396 2.88279 14.6396C2.88356 14.6396 2.88432 14.6394 2.885 14.639C2.88569 14.6387 2.88627 14.6381 2.88669 14.6375C2.88904 14.6336 2.88826 14.6258 2.88982 14.6219C2.89138 14.6195 2.88513 14.6187 2.88357 14.6219ZM2.84529 14.4672H2.85076V14.4828H2.84529V14.4672ZM2.93123 14.3047C2.92732 14.3 2.94763 14.2914 2.95154 14.3015C2.95466 14.3117 2.95154 14.3094 2.94763 14.3094C2.94451 14.3078 2.93591 14.3109 2.93201 14.3047H2.93123ZM2.94841 14.1969L2.95779 14.1984V14.193L2.94998 14.1914L2.94841 14.1969ZM2.92654 14.2078L2.93123 14.2055L2.92966 14.2015L2.9281 14.1992L2.92576 14.2L2.91951 14.2039L2.91404 14.2L2.91169 14.2047L2.91873 14.2086L2.91951 14.2094H2.92107L2.92576 14.2062L2.92654 14.2078ZM2.95779 14.0008H2.94451C2.94451 14.0008 2.94841 14.0023 2.93669 13.9914C2.92498 13.9805 2.91794 13.9937 2.91794 13.9937L2.90466 13.9961V14.0094L2.89841 14.0117V14.0195H2.90779C2.90779 14.0195 2.90779 14.0297 2.91091 14.025C2.91404 14.0203 2.93435 14.0258 2.93201 14.0359C2.93201 14.0406 2.9531 14.0515 2.95076 14.0648C2.96091 14.0664 2.95857 14.0773 2.95857 14.0773L2.97263 14.0797L2.97732 14.0711H2.98123V14.0664L2.97185 14.064L2.97029 14.0375L2.96482 14.0328L2.96638 14.0265L2.95935 14.0234L2.96326 14.0125L2.95701 14.0008H2.95779ZM2.99373 14.0867H2.98669L2.97185 14.0883L2.96404 14.1039C2.96404 14.1039 2.96794 14.107 2.97185 14.1133C2.97419 14.1187 2.97654 14.1539 2.96638 14.1601C2.95623 14.1656 2.96638 14.1617 2.96638 14.1617L2.9656 14.1805C2.96794 14.1883 2.97185 14.1851 2.97419 14.1805C2.97732 14.1765 2.97966 14.1758 2.98279 14.1711C2.98715 14.1661 2.99035 14.1602 2.99216 14.1539C2.99216 14.1476 2.99685 14.1383 2.99451 14.1359C2.99216 14.1336 2.99685 14.1219 2.99685 14.1219C2.99685 14.1219 2.99998 14.114 2.99685 14.1078C2.99373 14.1015 2.99763 14.0937 2.99998 14.0906L2.99373 14.0867ZM3.00388 14.1211V14.1148H3.00935V14.1226L3.00388 14.1211ZM3.00388 14.1445L2.99919 14.1422L3.00154 14.1375L3.00623 14.1398L3.00388 14.1445ZM2.99607 14.0773L2.99294 14.0695C2.99294 14.0695 2.99294 14.0633 2.99451 14.0601C2.99607 14.0562 2.99138 14.0531 2.98826 14.0523C2.98591 14.0515 2.98669 14.0445 2.98591 14.0414C2.98591 14.0383 2.97966 14.0351 2.97966 14.0351L2.9781 14.0203C2.9781 14.018 2.97029 14.014 2.97263 14.0125L2.97966 14.0047C2.98201 14.0023 2.97732 13.9906 2.98123 13.993C2.98513 13.9961 2.98513 14.0008 2.98669 14.0031C2.98826 14.007 2.98669 14.0187 2.9906 14.0211C2.99451 14.0234 2.98982 14.032 2.99607 14.032C3.0031 14.032 2.99841 14.0476 2.99841 14.0476C2.99841 14.0476 2.99685 14.0601 3.00076 14.0609C3.00544 14.0609 3.0031 14.082 3.0031 14.082L2.99607 14.0773ZM2.94216 13.9406C2.94451 13.9445 2.94998 13.9469 2.94998 13.95C2.94998 13.9539 2.94763 13.9562 2.9531 13.957C2.95779 13.9578 2.96091 13.9562 2.96326 13.9601C2.96486 13.965 2.96486 13.9702 2.96326 13.975C2.96326 13.9781 2.96482 13.9828 2.96873 13.9828C2.97263 13.9828 2.97341 13.9844 2.97341 13.9867C2.97341 13.989 2.97888 13.9773 2.97888 13.9773C2.97419 13.9742 2.97107 13.9664 2.97107 13.9664L2.96716 13.9531C2.96716 13.9508 2.96169 13.9492 2.95935 13.9484C2.95623 13.9484 2.95154 13.9406 2.95154 13.9406H2.94216ZM2.94998 13.9328C2.94794 13.9299 2.94527 13.9275 2.94216 13.9258C2.93904 13.9242 2.93669 13.9226 2.93279 13.9226C2.93189 13.9226 2.93101 13.9223 2.93024 13.9219C2.92946 13.9214 2.92881 13.9208 2.92835 13.92C2.92789 13.9192 2.92762 13.9183 2.92758 13.9174C2.92753 13.9165 2.92771 13.9156 2.9281 13.9148C2.92966 13.9109 2.92576 13.9086 2.92576 13.9055C2.92576 13.9023 2.9281 13.9023 2.93201 13.9055C2.93669 13.907 2.93591 13.9078 2.93904 13.9125C2.94216 13.9164 2.94373 13.9203 2.94685 13.9203C2.95076 13.9187 2.9531 13.9281 2.95623 13.925C2.95935 13.9226 2.95857 13.9312 2.95857 13.9312L2.95076 13.9336L2.94998 13.9328ZM2.8531 14.0289C2.85779 14.0336 2.8281 14.032 2.8281 14.0289C2.8281 14.0258 2.83123 14.0133 2.83826 14.0156C2.84607 14.0187 2.84607 14.0008 2.84607 14.0008C2.84607 14.0008 2.83982 14.0015 2.84607 13.9984C2.85154 13.9953 2.84607 13.9906 2.84294 13.9875L2.83826 13.9805H2.84998C2.85466 13.9773 2.85623 13.9609 2.85623 13.9609C2.86638 13.9648 2.87185 13.9578 2.87185 13.9578C2.87185 13.9578 2.87341 13.9633 2.87654 13.9672C2.87966 13.9711 2.86873 13.9734 2.87263 13.975C2.87654 13.9781 2.8781 13.9859 2.87654 13.9883C2.87498 13.9906 2.8656 13.9883 2.8656 13.9859C2.8656 13.982 2.86248 13.9898 2.8656 13.9937C2.86873 13.9984 2.86169 14.0047 2.86013 14.0047C2.85857 14.0047 2.84763 14.0062 2.85623 14.0109C2.8656 14.0164 2.87576 14.0133 2.87576 14.0133C2.87576 14.0133 2.88357 14.0133 2.88591 14.0172C2.88826 14.0211 2.88513 14.0219 2.88044 14.0219L2.85701 14.0203C2.85701 14.0203 2.85076 14.0265 2.8531 14.0281V14.0289ZM2.79998 14.0367C2.80388 14.0351 2.81404 14.0344 2.8156 14.0367C2.81716 14.0398 2.81013 14.043 2.81013 14.043L2.79998 14.0445C2.79685 14.0406 2.79607 14.0367 2.79998 14.0367ZM2.90701 13.9656C2.91404 13.9617 2.9281 13.9617 2.92732 13.957C2.92654 13.9515 2.93513 13.95 2.93513 13.95L2.93826 13.9601L2.94607 13.9656V13.975C2.94607 13.975 2.94919 13.9734 2.93982 13.975C2.93044 13.9781 2.93669 13.9828 2.93669 13.9828H2.91638L2.91404 13.975L2.90701 13.9656ZM2.87498 13.9195C2.87966 13.9195 2.87341 13.939 2.88669 13.9375C2.89998 13.9359 2.88669 13.9437 2.89763 13.9445C2.90701 13.9445 2.90544 13.9367 2.90779 13.9305C2.91169 13.925 2.91013 13.9219 2.90388 13.9195C2.89841 13.918 2.89841 13.918 2.89607 13.9117C2.89451 13.9047 2.88826 13.9031 2.88826 13.9031L2.88591 13.893L2.87498 13.9L2.86404 13.914C2.86404 13.925 2.86951 13.9195 2.87498 13.9195ZM2.89685 13.9914L2.89919 13.9859L2.90388 13.9883L2.90154 13.9937L2.89685 13.9914ZM2.88826 13.9836H2.89294V13.989H2.88826V13.9836ZM2.89216 13.8711L2.89294 13.8789H2.88826L2.88748 13.8711H2.89216ZM2.8781 13.9492H2.88357V13.9539H2.8781V13.9492ZM2.86482 13.9492V13.9445L2.87263 13.9437L2.87341 13.9484L2.86482 13.9492ZM2.79685 14.0305L2.79216 14.0281L2.79451 14.0226L2.79919 14.0242L2.79685 14.0305ZM2.77029 14.0148V14.0101L2.7781 14.0094V14.014L2.77029 14.0148ZM2.60779 14.0148V14.0195L2.62654 14.0187V14.0133L2.60779 14.0148ZM2.59607 14.0211L2.59451 14.0133L2.59919 14.0125L2.60076 14.0203L2.59607 14.0211ZM2.59216 14.0258L2.5906 14.0211H2.59294L2.59451 14.025L2.59216 14.0258ZM2.63357 14.0117V14.018H2.64138C2.64138 14.018 2.64607 14.0219 2.64607 14.0242C2.64607 14.0265 2.65232 14.0297 2.65544 14.0297C2.65857 14.0297 2.66794 14.0226 2.66794 14.0226C2.66794 14.0226 2.67185 14.0109 2.66794 14.0117C2.6656 14.0125 2.65857 14.018 2.65779 14.0125C2.65779 14.0078 2.64685 14.0101 2.64685 14.0101L2.63357 14.0117ZM2.67498 14.0023C2.67498 14.0055 2.67341 14.0086 2.67888 14.0094C2.68357 14.0094 2.69294 14.0062 2.69373 14.0109C2.69373 14.0164 2.69373 14.0187 2.70154 14.0219C2.70648 14.024 2.7118 14.025 2.71716 14.025L2.73279 14.0234C2.73279 14.0234 2.74451 14.0258 2.74685 14.0281C2.75623 14.0375 2.76248 14.0398 2.76404 14.0359C2.76716 14.0312 2.76404 14.0219 2.76248 14.0187C2.76248 14.0156 2.74998 13.9992 2.74607 14.0031C2.74216 14.0062 2.74138 14.0031 2.73357 14.0055C2.72576 14.0078 2.71013 14.0055 2.71013 14.0023C2.70857 13.9992 2.69685 13.9976 2.69685 13.9945C2.69685 13.9906 2.68904 13.9867 2.68904 13.9914C2.6906 13.9969 2.68357 13.9992 2.68123 13.9976C2.68044 13.9961 2.67498 14.0023 2.67498 14.0023ZM2.86638 13.8945L2.87263 13.8758C2.86404 13.8742 2.8656 13.8648 2.8656 13.8648C2.8656 13.857 2.8531 13.8492 2.84919 13.8515C2.84529 13.8539 2.84685 13.8336 2.84685 13.8336C2.84685 13.8336 2.85466 13.8289 2.85779 13.8312C2.86091 13.8336 2.82888 13.789 2.82263 13.793C2.8156 13.7976 2.80076 13.789 2.80154 13.7812C2.80232 13.7734 2.77185 13.7484 2.77185 13.7484C2.77185 13.7484 2.76169 13.7422 2.76013 13.7469C2.75857 13.7515 2.75544 13.7547 2.76013 13.7578C2.76482 13.7601 2.76404 13.7539 2.77029 13.7594C2.77576 13.7656 2.78669 13.7726 2.78279 13.7781C2.7781 13.7828 2.77341 13.7851 2.77341 13.7851L2.77966 13.7914H2.78826L2.78982 13.8062C2.78982 13.8062 2.79998 13.8109 2.80232 13.8172C2.80544 13.8226 2.80544 13.8265 2.80232 13.8297C2.79998 13.8328 2.79451 13.839 2.79607 13.8453C2.79607 13.8508 2.80388 13.8531 2.80388 13.8531L2.81013 13.8539L2.81482 13.8562V13.8672C2.82185 13.8656 2.83279 13.875 2.83201 13.8812C2.83123 13.8867 2.83357 13.8836 2.84138 13.889C2.84919 13.8953 2.84763 13.8969 2.8531 13.9008C2.85935 13.9047 2.86404 13.9023 2.86638 13.8945Z" fill="white"/>
<path d="M2.7297 13.7797C2.72892 13.7765 2.72657 13.764 2.73204 13.7656C2.73673 13.7656 2.73361 13.7656 2.73986 13.768C2.74532 13.7703 2.74611 13.764 2.74611 13.764H2.75548L2.7672 13.7734L2.76486 13.7812H2.75704C2.75236 13.775 2.74454 13.7773 2.74611 13.7836C2.74767 13.789 2.7422 13.8 2.73829 13.8008C2.73517 13.8015 2.72423 13.8015 2.72501 13.7969L2.7297 13.7797ZM2.72267 13.757V13.75C2.72267 13.75 2.72267 13.7437 2.71798 13.7437C2.71329 13.7437 2.70626 13.7383 2.70782 13.7351C2.70939 13.732 2.69376 13.7281 2.69376 13.7281C2.69376 13.7281 2.6797 13.7148 2.68439 13.7164C2.68986 13.718 2.68673 13.7109 2.68673 13.7109C2.68673 13.7109 2.67736 13.7125 2.67423 13.7109C2.67189 13.7109 2.67267 13.7031 2.67267 13.7031C2.67267 13.7031 2.66251 13.7008 2.66251 13.7031C2.66251 13.7055 2.66642 13.7055 2.66798 13.7109C2.66954 13.7156 2.66798 13.7242 2.67579 13.7265C2.68361 13.7273 2.68517 13.7289 2.68595 13.7328C2.68673 13.7359 2.69611 13.7367 2.69611 13.7367L2.70314 13.7398L2.72267 13.757ZM2.63048 13.664L2.62423 13.6625V13.6703H2.63282L2.63048 13.664ZM2.63048 13.6359C2.62189 13.6289 2.6422 13.6406 2.6422 13.6406C2.64845 13.6406 2.65314 13.6461 2.65314 13.6484C2.65314 13.6508 2.66173 13.65 2.66173 13.65L2.66329 13.6437L2.65626 13.6359L2.65079 13.6312C2.65079 13.6312 2.64142 13.6312 2.64142 13.6281C2.64142 13.6258 2.63361 13.6383 2.63048 13.6359ZM2.78361 13.6406C2.78126 13.6484 2.7797 13.6586 2.77579 13.6586C2.77189 13.6586 2.77345 13.6695 2.77345 13.6695H2.78751C2.79064 13.6711 2.79064 13.6797 2.79064 13.6797C2.80314 13.6789 2.80861 13.6953 2.80626 13.7C2.80548 13.7039 2.81173 13.7039 2.81173 13.7039C2.81173 13.7039 2.81173 13.7172 2.81017 13.7211C2.80861 13.7242 2.82111 13.7265 2.82423 13.732C2.82736 13.7367 2.82267 13.7539 2.82032 13.7547C2.8172 13.7547 2.82657 13.7578 2.82579 13.7625C2.82501 13.7664 2.82814 13.7625 2.82892 13.7687L2.83204 13.7898L2.84298 13.7906C2.84532 13.7797 2.86642 13.7797 2.86954 13.7805C2.88439 13.7859 2.89454 13.8078 2.89454 13.8125C2.89454 13.818 2.88595 13.8187 2.88595 13.8187L2.88751 13.843C2.90157 13.8476 2.91329 13.868 2.91095 13.8711C2.90939 13.8742 2.92111 13.8734 2.92111 13.8734C2.92267 13.8578 2.93673 13.8633 2.93829 13.8687C2.93829 13.8734 2.94142 13.8844 2.94142 13.8844L2.94532 13.8922L2.95157 13.8976H2.96017L2.96251 13.9023L2.97345 13.9039C2.97345 13.9039 2.98282 13.914 2.98361 13.9164C2.98439 13.9187 2.99689 13.918 3.00001 13.9187C3.00392 13.9195 3.00861 13.9226 3.00939 13.9265C3.01017 13.9312 3.01564 13.9375 3.01564 13.9375C3.01564 13.9375 3.02501 13.9398 3.02579 13.9437L3.03126 13.9547L3.03907 13.9609L3.03986 13.9687L3.04923 13.9695L3.05157 13.9797H3.0672L3.07501 13.9734C3.08595 13.9672 3.09376 13.9594 3.09454 13.9562C3.09454 13.9531 3.09689 13.9406 3.1047 13.943C3.11329 13.9453 3.10782 13.9242 3.10782 13.9242C3.10782 13.9242 3.09611 13.9164 3.09689 13.9117C3.09689 13.907 3.08517 13.8992 3.08595 13.8961C3.08673 13.8922 3.07501 13.8851 3.07579 13.882C3.07657 13.8789 3.07032 13.8695 3.07032 13.8695L3.05782 13.8578L3.05626 13.85L3.04611 13.8492L3.02579 13.825L3.02657 13.8172H3.02111V13.8078L3.01564 13.8047L3.00626 13.8039L2.98751 13.7836L2.98595 13.7742H2.97736L2.97892 13.7562C2.98439 13.7484 2.98126 13.7344 2.98126 13.7344C2.98126 13.7344 2.96954 13.7406 2.96407 13.7375C2.95782 13.7351 2.96642 13.7297 2.96642 13.7297V13.7219L2.96095 13.7172C2.96095 13.7172 2.94689 13.7195 2.94611 13.7172L2.94298 13.7031L2.9422 13.689L2.93595 13.6859V13.6812H2.92657V13.6719L2.92111 13.6703L2.91642 13.668L2.91564 13.6578L2.89689 13.657L2.89142 13.6484L2.88439 13.6383L2.86407 13.6367L2.85861 13.6312L2.85079 13.6297L2.84454 13.6273L2.8422 13.6312L2.82657 13.632L2.82579 13.6375C2.81798 13.6414 2.78439 13.6375 2.78361 13.6406ZM2.87032 13.6187C2.86954 13.6125 2.88751 13.6062 2.89142 13.6109C2.89532 13.6164 2.90704 13.6172 2.90861 13.6422C2.90939 13.6515 2.89376 13.6328 2.89376 13.6328L2.88126 13.6289C2.87501 13.6273 2.87111 13.6226 2.87032 13.6187ZM2.62736 13.6289L2.62267 13.6273L2.62579 13.6195L2.63048 13.6219L2.62736 13.6289ZM2.58361 13.5461L2.57345 13.5351V13.5258L2.56954 13.5226L2.56642 13.5109L2.55548 13.5078L2.54454 13.5117L2.53361 13.5195L2.52032 13.5211L2.51407 13.5289L2.54064 13.5312L2.54532 13.539L2.56486 13.5414L2.57736 13.5539C2.58829 13.557 2.59064 13.5523 2.58361 13.5461ZM2.58204 13.5047C2.58048 13.4969 2.56954 13.514 2.58048 13.5172C2.59142 13.5211 2.60236 13.5172 2.60236 13.5172L2.6047 13.5125L2.64611 13.5133L2.65157 13.5055C2.65157 13.5055 2.66095 13.5015 2.66564 13.5031C2.66954 13.5047 2.66564 13.4914 2.66173 13.493C2.65782 13.4945 2.64923 13.4937 2.64923 13.4937H2.63439C2.63439 13.4883 2.62032 13.4906 2.61954 13.4937C2.61954 13.4969 2.61407 13.4984 2.61407 13.4984L2.59454 13.5C2.59298 13.5047 2.58282 13.5078 2.58204 13.5047ZM2.50001 13.6469C2.51251 13.6515 2.5172 13.6484 2.51798 13.6445C2.51876 13.6414 2.51954 13.6406 2.52501 13.6398C2.5297 13.639 2.52423 13.6289 2.51954 13.6297C2.51407 13.6305 2.50939 13.6281 2.50861 13.6234C2.50782 13.6195 2.49923 13.6086 2.49845 13.6172C2.49767 13.625 2.4922 13.625 2.49298 13.6312C2.49454 13.6375 2.49689 13.6469 2.50001 13.6469ZM2.4047 13.657C2.40392 13.6539 2.42111 13.6531 2.42345 13.6555C2.42579 13.6586 2.42423 13.6633 2.43126 13.6633C2.43829 13.6633 2.43595 13.668 2.43517 13.6703C2.43439 13.6726 2.42579 13.6719 2.42501 13.6695C2.42501 13.6664 2.41173 13.6656 2.41173 13.6656C2.41173 13.6656 2.40548 13.6609 2.40392 13.657H2.4047ZM2.68048 13.4812L2.67657 13.4765L2.67267 13.4805L2.67892 13.4867L2.68048 13.4883L2.68204 13.4867L2.68986 13.4797L2.68751 13.4758L2.68048 13.4812ZM2.63595 13.4578L2.63361 13.4617L2.63986 13.4656L2.64142 13.4664H2.64298L2.65157 13.4601L2.64923 13.4555L2.64142 13.4609L2.63595 13.4578ZM2.61329 13.6336H2.60548L2.6047 13.6383H2.61173L2.6172 13.6469L2.62111 13.6445L2.61486 13.6351V13.6344L2.61329 13.6336ZM2.33986 13.8695V13.8789H2.35314C2.35782 13.8789 2.34845 13.8726 2.34845 13.8726C2.34845 13.8726 2.33907 13.8734 2.33986 13.8695ZM2.35548 13.8695L2.35861 13.8656L2.36329 13.8695L2.36017 13.8734L2.35548 13.8695ZM2.20392 13.7117L2.20782 13.7078L2.21251 13.7133L2.20939 13.7172L2.20392 13.7117ZM2.43751 14.793L2.43517 14.7976L2.43986 14.8008L2.43829 14.8023L2.4422 14.8055L2.44611 14.8015L2.44845 14.7992L2.44532 14.7976L2.43751 14.793ZM2.37814 14.7328L2.37267 14.7367L2.37032 14.739L2.37345 14.7414L2.37892 14.7453L2.38204 14.7414L2.37892 14.739L2.38126 14.7367L2.37814 14.7328ZM2.99923 14.5765C2.99845 14.5726 2.99298 14.5703 2.99298 14.5703L2.99142 14.575L2.99298 14.5758V14.582L2.99611 14.5851C2.99845 14.582 3.00001 14.5797 2.99923 14.5773V14.5765ZM2.99923 14.5601V14.5523L3.00704 14.5539V14.5609L2.99923 14.5601ZM3.19923 14.4953C3.20314 14.493 3.20704 14.4883 3.20704 14.4976C3.20704 14.5078 3.20236 14.5047 3.19923 14.5078C3.19611 14.5109 3.19454 14.4984 3.19923 14.4945V14.4953ZM3.24142 14.4594V14.4578C3.24143 14.4562 3.24116 14.4546 3.24064 14.4531L3.23595 14.4547V14.4586C3.23673 14.4601 3.23673 14.4617 3.23829 14.4625L3.24142 14.4633V14.4586V14.4594ZM3.23048 14.4633L3.23361 14.4734L3.23829 14.4719C3.23707 14.4685 3.23603 14.4651 3.23517 14.4617L3.23048 14.4633ZM3.21251 14.4828H3.20782C3.20782 14.4867 3.20782 14.4914 3.21173 14.4922L3.21329 14.4875L3.21251 14.4836V14.4828ZM3.19064 14.3828C3.19061 14.382 3.19038 14.3812 3.18997 14.3805C3.18956 14.3799 3.18898 14.3793 3.18829 14.3789C3.18439 14.3773 3.17814 14.3797 3.17501 14.382L3.17736 14.3859C3.18126 14.3844 3.18517 14.3828 3.18595 14.3836L3.19064 14.3828ZM2.96017 14.1133C2.95704 14.1164 2.95001 14.118 2.95001 14.118L2.94689 14.1273L2.94298 14.1305V14.139C2.9422 14.1453 2.93517 14.1484 2.93517 14.1484L2.93126 14.1523C2.93126 14.1523 2.91173 14.1539 2.90861 14.1523C2.90079 14.1492 2.90626 14.139 2.91173 14.1398C2.91642 14.1406 2.91095 14.1258 2.91095 14.1258L2.9172 14.125C2.9172 14.125 2.91798 14.1094 2.92032 14.1094C2.92267 14.1094 2.92032 14.1047 2.91642 14.1015C2.91329 14.0992 2.90861 14.0914 2.90548 14.0922H2.88907L2.88673 14.0969L2.87736 14.0984C2.87736 14.0984 2.87814 14.1055 2.87657 14.107C2.87189 14.1133 2.85236 14.1258 2.86095 14.1047L2.86329 14.1V14.0922L2.84767 14.0914C2.84767 14.0914 2.84064 14.0883 2.84064 14.0851V14.0773L2.82267 14.0586L2.80157 14.0555L2.80001 14.0515L2.78751 14.05C2.77189 14.0422 2.75939 14.0492 2.76173 14.0617C2.76407 14.0742 2.76876 14.0797 2.76017 14.0797C2.75236 14.0797 2.75001 14.0719 2.75001 14.0719C2.75001 14.0719 2.74376 14.0703 2.74376 14.0734C2.74376 14.0765 2.74142 14.0836 2.74376 14.0867C2.74611 14.0906 2.74064 14.0953 2.73751 14.093C2.73517 14.0906 2.72892 14.0828 2.7297 14.0805C2.73204 14.0773 2.71876 14.0617 2.73204 14.0594C2.74532 14.0562 2.73126 14.0492 2.73595 14.0476L2.74298 14.0437H2.74923L2.75392 14.0406L2.74298 14.039L2.73595 14.0383L2.72345 14.0375C2.7166 14.0416 2.71137 14.0479 2.70861 14.0555C2.70236 14.0687 2.68595 14.0508 2.6922 14.0437C2.69767 14.0375 2.67345 14.0437 2.66954 14.0469C2.66564 14.05 2.65314 14.0484 2.65314 14.0484C2.65079 14.0562 2.63907 14.0476 2.6422 14.0422C2.64532 14.0375 2.64532 14.0344 2.64532 14.0344L2.64142 14.0328L2.63673 14.0422C2.62501 14.0422 2.62111 14.0492 2.62423 14.0531C2.62657 14.0578 2.62032 14.0531 2.61876 14.0586C2.6172 14.064 2.61954 14.064 2.62501 14.0664C2.6297 14.0695 2.62189 14.0695 2.62501 14.0734C2.62892 14.0773 2.63907 14.0734 2.63282 14.0797C2.62736 14.0851 2.61564 14.0828 2.61564 14.0828C2.61486 14.0906 2.59923 14.0883 2.59767 14.0859C2.59283 14.0801 2.58788 14.0744 2.58282 14.0687L2.5672 14.068C2.56564 14.0555 2.57501 14.0617 2.57814 14.0523C2.58126 14.043 2.58282 14.0281 2.58282 14.0281C2.58282 14.0281 2.56954 14.0273 2.56876 14.0312C2.56876 14.0351 2.56017 14.0383 2.56017 14.0383C2.56017 14.0383 2.55314 14.0406 2.55548 14.0437C2.55861 14.0476 2.55079 14.0492 2.55079 14.0492C2.55079 14.0492 2.55236 14.0547 2.55001 14.057C2.54298 14.0633 2.52657 14.057 2.52423 14.0547L2.51407 14.0508L2.50392 14.0437L2.4922 14.0492L2.48907 14.0523H2.47657V14.0625L2.49845 14.0648L2.50001 14.0859L2.49064 14.0828H2.48517L2.48282 14.0773H2.47736V14.0953L2.48282 14.0992L2.48673 14.1039H2.49454L2.49689 14.1148H2.5172L2.52032 14.1195L2.53282 14.1203L2.55626 14.1453L2.5547 14.1531L2.55079 14.1555C2.55236 14.1609 2.53986 14.1578 2.53986 14.1578V14.1625L2.54611 14.1633L2.55157 14.1672L2.55939 14.1523C2.56876 14.1469 2.57345 14.1555 2.57423 14.1601C2.57423 14.1656 2.56954 14.1648 2.56954 14.1648V14.1765L2.57501 14.1781C2.58282 14.1883 2.57189 14.1937 2.57189 14.1937L2.56876 14.2023C2.56642 14.2101 2.55704 14.2086 2.55704 14.2086L2.55392 14.2133L2.54376 14.2156L2.56407 14.2187C2.56564 14.2117 2.57032 14.2101 2.57345 14.2133C2.57579 14.2164 2.57579 14.2226 2.57579 14.2226L2.58048 14.2234V14.2328L2.58517 14.2344V14.2617L2.59064 14.268C2.60079 14.264 2.60079 14.2711 2.59532 14.2742C2.58986 14.2773 2.59376 14.293 2.59376 14.293L2.58986 14.2969V14.3039L2.58517 14.307V14.3164C2.57657 14.3117 2.56642 14.314 2.56407 14.3164C2.55626 14.3109 2.54064 14.3133 2.54064 14.3172C2.54611 14.3242 2.53517 14.325 2.53517 14.325L2.52892 14.3328C2.53361 14.3406 2.52501 14.3414 2.52501 14.3414V14.357L2.51486 14.3672L2.51564 14.389C2.51564 14.3945 2.52814 14.3953 2.53126 14.3922C2.53361 14.389 2.54298 14.3992 2.54298 14.3992H2.55079L2.55236 14.3836L2.54767 14.3812V14.357L2.55548 14.3476C2.56564 14.3437 2.56251 14.3695 2.56251 14.3719C2.56251 14.3812 2.5672 14.3805 2.57189 14.3789C2.5797 14.375 2.57345 14.3883 2.56642 14.3867C2.56017 14.3867 2.56407 14.3953 2.56407 14.3953L2.56798 14.3976L2.56017 14.4031L2.55392 14.4109L2.54611 14.4086L2.53595 14.4078L2.53282 14.4015L2.52657 14.4008L2.52579 14.4125L2.52189 14.418L2.51173 14.4281C2.52501 14.4281 2.51017 14.4367 2.50704 14.4367C2.51486 14.4398 2.50626 14.4469 2.48673 14.4414V14.4469L2.4797 14.4476L2.48595 14.4547L2.4922 14.4555L2.48986 14.4695C2.48986 14.4805 2.46251 14.4734 2.46017 14.4703L2.45939 14.4859H2.4547V14.5109L2.46329 14.5094V14.5156H2.48595L2.51798 14.482L2.53751 14.4773C2.53907 14.4695 2.54767 14.4789 2.54767 14.4789C2.55548 14.4789 2.55704 14.4844 2.55704 14.4844L2.56798 14.4859C2.57736 14.4883 2.57189 14.489 2.57267 14.493C2.57267 14.4976 2.57736 14.4961 2.57736 14.4961L2.57892 14.4851H2.58439L2.57892 14.4797L2.56954 14.4758L2.56017 14.4719C2.55314 14.4625 2.56173 14.464 2.56798 14.464H2.57892C2.57892 14.464 2.59142 14.482 2.59142 14.4859C2.59142 14.4898 2.59767 14.4906 2.59767 14.4906H2.6047L2.60704 14.4961H2.61486L2.6172 14.5008H2.63282V14.493L2.61876 14.4906V14.4828L2.60782 14.4797C2.6047 14.4656 2.61095 14.4617 2.61486 14.468L2.61954 14.4687L2.61798 14.4562L2.62423 14.4547L2.62189 14.4367L2.6172 14.4351V14.4297H2.63829C2.63673 14.4195 2.63829 14.414 2.63829 14.414H2.64454L2.64532 14.4187L2.67111 14.4211L2.68907 14.4C2.68829 14.3984 2.69064 14.3976 2.68907 14.3953C2.68595 14.393 2.68282 14.3953 2.67892 14.393C2.67423 14.3906 2.67892 14.3765 2.67814 14.3726C2.67736 14.3695 2.6922 14.3648 2.68986 14.3726C2.68673 14.3797 2.68986 14.3828 2.68986 14.3828C2.70001 14.3726 2.70939 14.3836 2.70861 14.3867C2.70782 14.389 2.71407 14.3914 2.71876 14.389C2.72267 14.3867 2.72814 14.3969 2.72657 14.4015C2.72423 14.4062 2.70939 14.4055 2.70861 14.4008C2.70782 14.3953 2.70548 14.3976 2.70392 14.4C2.70236 14.4023 2.69454 14.4039 2.69064 14.4015C2.68998 14.4012 2.68943 14.4006 2.68907 14.4L2.67111 14.4211H2.67189C2.68204 14.4265 2.67736 14.4344 2.67345 14.4367L2.66486 14.4375L2.66329 14.4414L2.64142 14.443L2.63986 14.4508C2.62892 14.45 2.62423 14.4617 2.62736 14.4672C2.6297 14.4734 2.62736 14.4781 2.62736 14.4781L2.63595 14.4828L2.64767 14.4789C2.64923 14.4711 2.65704 14.4687 2.66329 14.4633C2.67032 14.4586 2.68126 14.4734 2.67814 14.4797C2.67423 14.4867 2.67423 14.489 2.67423 14.489L2.67501 14.4969L2.6672 14.5L2.66017 14.5039V14.5078H2.63673L2.63282 14.5117L2.62189 14.5125L2.61876 14.518L2.61095 14.5187C2.61095 14.5187 2.59923 14.525 2.60392 14.5312C2.60861 14.5383 2.58282 14.5375 2.57736 14.5281C2.57579 14.5359 2.56642 14.5281 2.56642 14.5281L2.55704 14.5265V14.514C2.5547 14.5055 2.53907 14.5055 2.53986 14.5109C2.54064 14.5172 2.51017 14.514 2.51017 14.514L2.50001 14.5187L2.49064 14.5242V14.5281L2.47501 14.5297L2.46876 14.5328L2.46564 14.5281H2.45939L2.45236 14.5375C2.43517 14.5375 2.41876 14.5484 2.42032 14.5531C2.42189 14.557 2.41329 14.5609 2.41329 14.5609L2.40548 14.5633L2.40079 14.5711L2.39142 14.5742L2.38986 14.5922L2.38439 14.5953V14.6031L2.37892 14.6047V14.6094H2.37032L2.37501 14.6226L2.38204 14.6258C2.39376 14.6273 2.38829 14.6414 2.38829 14.6414L2.39532 14.643L2.39845 14.6523L2.40548 14.6656C2.40782 14.6758 2.41564 14.6734 2.41876 14.6726C2.42189 14.6719 2.42501 14.6828 2.42501 14.6828H2.45861C2.45861 14.6828 2.45704 14.6867 2.46251 14.6883C2.46876 14.6898 2.50704 14.6914 2.50861 14.689C2.50704 14.6812 2.52892 14.6797 2.53829 14.6867C2.54767 14.6937 2.56017 14.689 2.56017 14.689L2.57267 14.7047L2.58048 14.7226L2.59454 14.7273L2.6047 14.7297L2.60782 14.7437L2.61564 14.7445L2.61798 14.7539C2.62736 14.7609 2.61564 14.775 2.61564 14.775V14.7937L2.62189 14.7969V14.8039L2.63204 14.8148L2.64454 14.8156L2.67579 14.8492L2.70157 14.857L2.70548 14.8703H2.71173L2.7172 14.8656L2.73673 14.8648L2.74689 14.8555L2.75782 14.8539L2.85001 14.7758L2.8422 14.7703V14.7515C2.85626 14.7406 2.85782 14.7211 2.84298 14.7203C2.83282 14.718 2.83751 14.707 2.84767 14.7047L2.85314 14.7031V14.6953L2.87267 14.6773V14.664L2.83126 14.6297C2.81251 14.6219 2.83126 14.582 2.84298 14.5828C2.85548 14.5836 2.84298 14.5203 2.84298 14.5203L2.83517 14.5172L2.83751 14.4969H2.82814L2.81329 14.5164L2.80939 14.5297C2.80782 14.5476 2.75626 14.5437 2.75392 14.5414L2.73361 14.5312C2.73361 14.5312 2.72032 14.5203 2.71798 14.5234C2.71564 14.5273 2.70392 14.5195 2.70392 14.5219C2.70392 14.525 2.69298 14.5164 2.69298 14.5164L2.67657 14.5101L2.68907 14.5078L2.68595 14.4976L2.70782 14.5086C2.71017 14.5117 2.72111 14.5109 2.72111 14.5109L2.72423 14.5156C2.72423 14.5156 2.73126 14.5148 2.73517 14.5195C2.73907 14.525 2.76095 14.5203 2.76095 14.5203L2.7672 14.5258L2.77579 14.5289L2.80157 14.5297L2.80236 14.514L2.80782 14.5086L2.80704 14.4984L2.81251 14.4937V14.4851L2.8172 14.4836L2.81798 14.4648L2.82267 14.464V14.4234L2.81017 14.4117C2.80939 14.4156 2.79611 14.4156 2.79611 14.4156C2.79611 14.4156 2.79298 14.4219 2.78986 14.4219C2.78673 14.4219 2.79376 14.4297 2.79142 14.4344C2.78986 14.4398 2.78361 14.4398 2.78361 14.4398L2.77111 14.443L2.76798 14.4469H2.7547L2.75236 14.4359L2.76798 14.432L2.77579 14.4273L2.78048 14.4195C2.78048 14.4109 2.79064 14.4117 2.79064 14.4117C2.79064 14.4117 2.81017 14.3961 2.81095 14.3883C2.81095 14.3805 2.81876 14.3594 2.8297 14.3594H2.85157C2.85939 14.3562 2.85704 14.3453 2.85704 14.3453L2.86798 14.343L2.86954 14.3492C2.86954 14.3492 2.88517 14.3508 2.88673 14.3484C2.88829 14.3461 2.89142 14.3406 2.89532 14.3422C2.90001 14.3453 2.91329 14.3367 2.91329 14.3367C2.91329 14.3305 2.93439 14.3328 2.93439 14.3328L2.93751 14.325C2.93751 14.325 2.92267 14.3062 2.92032 14.3062C2.91798 14.3062 2.9047 14.2945 2.90314 14.2984C2.88986 14.2953 2.89064 14.2765 2.89064 14.2765L2.88595 14.2648C2.88595 14.2578 2.87345 14.2437 2.87032 14.2453C2.85782 14.2359 2.8672 14.225 2.87032 14.2242C2.87423 14.2242 2.88204 14.2117 2.88204 14.2117L2.88673 14.2L2.90079 14.1961L2.90236 14.1851L2.89454 14.1836C2.89454 14.1836 2.90236 14.168 2.90704 14.168L2.94142 14.1672C2.94376 14.1656 2.94923 14.1515 2.94923 14.1492C2.94923 14.1469 2.95548 14.1461 2.95782 14.1453C2.96017 14.1445 2.96564 14.1375 2.96798 14.1344C2.96954 14.1305 2.96407 14.1094 2.96017 14.1133Z" fill="white"/>
<path d="M2.50002 14.4172C2.50159 14.4156 2.50237 14.4211 2.50471 14.4203C2.50784 14.4203 2.50862 14.425 2.50627 14.425C2.50393 14.425 2.50393 14.4281 2.50393 14.4289C2.50393 14.4305 2.50393 14.4336 2.50159 14.4351C2.50002 14.4375 2.49846 14.4359 2.49534 14.4351C2.49299 14.4336 2.49221 14.4336 2.48909 14.4336C2.48596 14.4336 2.48831 14.4383 2.48831 14.4383C2.48831 14.4383 2.47502 14.4383 2.47737 14.4359C2.48049 14.4344 2.48284 14.4336 2.48049 14.432C2.47893 14.4312 2.48049 14.4297 2.48049 14.4273C2.48049 14.425 2.48674 14.4258 2.48518 14.4242C2.48362 14.4219 2.48518 14.4148 2.48831 14.4187L2.48987 14.4148C2.48831 14.4125 2.48987 14.4125 2.48596 14.4109C2.48206 14.4094 2.48518 14.4023 2.48518 14.4023V14.3969C2.48674 14.3906 2.49924 14.3898 2.50002 14.3953V14.4055L2.50393 14.4062C2.50393 14.4062 2.50315 14.4101 2.50002 14.4101C2.4969 14.4101 2.50002 14.4125 2.49846 14.414L2.50002 14.4172ZM2.45862 14.4234C2.46096 14.4195 2.46487 14.4031 2.47034 14.4078C2.47502 14.4133 2.47815 14.4078 2.47815 14.4078C2.47815 14.4078 2.48049 14.4109 2.47971 14.4156C2.47815 14.4211 2.47659 14.4258 2.47346 14.4265C2.47034 14.4265 2.46799 14.4289 2.46409 14.4297C2.46096 14.4305 2.45862 14.4234 2.45862 14.4234Z" fill="white"/>
</g>
<defs>
<clipPath id="clip0_255_5799">
<rect x="0.5" y="12.4" width="4" height="4" rx="2" fill="white"/>
</clipPath>
</defs>
</svg>
