<svg width="70" height="7" viewBox="0 0 70 7" fill="none" xmlns="http://www.w3.org/2000/svg">
<path d="M5.9258 0.978178L6.28641 1.13254L5.51711 2.84805L6.28379 4.55659L5.94041 4.71415L5.10511 2.84992L5.9258 0.978178ZM6.62179 0.975019L6.9664 1.12946L6.2131 2.84489L6.97979 4.55343L6.6364 4.71099L5.80111 2.84676L6.62179 0.975019ZM8.45132 1.36272C8.72732 1.36147 8.95563 1.44043 9.13625 1.59961C9.31288 1.75881 9.40167 1.96241 9.40268 2.21841C9.40365 2.46641 9.30852 2.69084 9.12532 2.89568C9.01379 3.01618 8.81439 3.16909 8.53513 3.35836C8.24388 3.55168 8.06854 3.72048 8.0051 3.86477L9.41309 3.85838L9.4147 4.27038L7.42272 4.27942C7.42158 3.98742 7.51259 3.735 7.70374 3.51813C7.80727 3.39766 8.02658 3.22067 8.35769 2.99116C8.54119 2.86233 8.66876 2.75375 8.74843 2.66938C8.87189 2.52882 8.93529 2.37653 8.93466 2.21653C8.93405 2.06053 8.8896 1.94474 8.80931 1.8691C8.72501 1.79348 8.60087 1.75804 8.43687 1.75879C8.26087 1.75959 8.12911 1.82019 8.04158 1.94058C7.95402 2.05298 7.90669 2.2252 7.89957 2.44923L7.43157 2.45136C7.43432 2.13134 7.52532 1.87493 7.70855 1.67809C7.89574 1.46924 8.14333 1.36412 8.45132 1.36272ZM10.8057 1.35203C11.1377 1.35053 11.3983 1.48534 11.5874 1.76449C11.7644 2.02769 11.8538 2.38329 11.8555 2.83128C11.8573 3.27928 11.7707 3.63568 11.5957 3.90047C11.4088 4.17732 11.1493 4.3185 10.8173 4.32001C10.4813 4.32153 10.2208 4.18272 10.0357 3.90755C9.85869 3.64435 9.7693 3.28876 9.76755 2.84076C9.7658 2.39276 9.8524 2.03637 10.0274 1.77157C10.2103 1.49074 10.4697 1.35356 10.8057 1.35203ZM10.8073 1.74803C10.5793 1.74906 10.4198 1.87379 10.3288 2.1302C10.2654 2.30249 10.2344 2.53864 10.2355 2.83864C10.2367 3.13463 10.2696 3.37049 10.3343 3.54619C10.4273 3.79777 10.5878 3.92505 10.8158 3.92401C11.0398 3.923 11.1993 3.79427 11.2943 3.54184C11.3576 3.36555 11.3887 3.1294 11.3875 2.83341C11.3864 2.53341 11.3534 2.29756 11.2888 2.12585C11.1918 1.87029 11.0313 1.74701 10.8073 1.74803ZM13.2041 1.34115C13.5361 1.33964 13.7967 1.47446 13.9858 1.7536C14.1628 2.0168 14.2522 2.3724 14.2539 2.8204C14.2557 3.26839 14.1691 3.62479 13.9941 3.88959C13.8072 4.16644 13.5478 4.30762 13.2158 4.30912C12.8798 4.31065 12.6192 4.17183 12.4341 3.89667C12.2571 3.63347 12.1677 3.27787 12.166 2.82987C12.1642 2.38188 12.2508 2.02548 12.4258 1.76068C12.6087 1.47985 12.8682 1.34267 13.2041 1.34115ZM13.2057 1.73714C12.9777 1.73818 12.8182 1.8629 12.7272 2.11932C12.6639 2.29161 12.6328 2.52775 12.634 2.82775C12.6351 3.12375 12.668 3.3596 12.7327 3.53531C12.8257 3.78689 12.9862 3.91416 13.2142 3.91313C13.4382 3.91211 13.5977 3.78338 13.6927 3.53095C13.756 3.35466 13.7871 3.11852 13.7859 2.82252C13.7848 2.52252 13.7518 2.28667 13.6872 2.11496C13.5902 1.8594 13.4297 1.73613 13.2057 1.73714ZM15.5706 1.3304C15.9186 1.32882 16.187 1.45161 16.372 1.70277C16.557 1.94993 16.6503 2.28951 16.652 2.72951C16.6539 3.19351 16.5553 3.57396 16.3645 3.86283C16.1696 4.15171 15.9062 4.29691 15.5782 4.2984C15.0142 4.30096 14.6972 4.0424 14.6271 3.52271L15.0831 3.52064C15.1402 3.78438 15.3047 3.91564 15.5807 3.91438C15.7687 3.91353 15.9203 3.81684 16.0356 3.63232C16.1429 3.45583 16.198 3.23558 16.197 2.97158L16.1968 2.93558L16.1768 2.93567C16.0933 3.05205 15.9936 3.1405 15.8779 3.19703C15.7661 3.24954 15.6382 3.27812 15.4942 3.27877C15.2142 3.28004 14.9858 3.18908 14.8171 3.00584C14.6484 2.83061 14.5675 2.60297 14.5664 2.32297C14.5653 2.03497 14.6604 1.79854 14.8517 1.61367C15.0429 1.4248 15.2826 1.33171 15.5706 1.3304ZM15.5881 1.71833C15.4201 1.71909 15.2843 1.77571 15.1807 1.88818C15.0772 2.00065 15.0297 2.14487 15.0304 2.32087C15.0311 2.49686 15.0797 2.63665 15.1841 2.74017C15.2805 2.84374 15.4167 2.89912 15.5927 2.89832C15.7647 2.89754 15.9005 2.84092 16.0001 2.73647C16.0956 2.62803 16.1471 2.4838 16.1464 2.2998C16.1456 2.1158 16.0931 1.97604 15.9887 1.87251C15.8843 1.76898 15.7481 1.7176 15.5881 1.71833ZM17.169 1.31515L18.0049 1.31135C17.9565 1.19957 17.9001 1.09583 17.8397 1.0001L18.2834 0.926086C18.3359 1.04185 18.3884 1.16961 18.4369 1.30939L19.1809 1.30602C19.2364 1.17776 19.2799 1.04556 19.3114 0.90942L19.7596 0.967387C19.7281 1.08753 19.6805 1.19975 19.6249 1.304L20.4329 1.30033L20.4344 1.67633L19.0144 1.68278L19.0155 1.95477L20.2235 1.94929L20.2249 2.30929L19.0169 2.31477L19.018 2.59077L20.5699 2.58372L20.5714 2.96772L17.0435 2.98374L17.042 2.59974L18.594 2.59269L18.5929 2.3167L17.3969 2.32212L17.3955 1.96213L18.5915 1.9567L18.5904 1.6847L17.1704 1.69115L17.169 1.31515ZM18.6237 3.04456L19.0479 3.08264C19.0361 3.15069 19.0244 3.21875 19.0087 3.28282L20.4846 3.27612L20.4862 3.66812L19.1982 3.67396C19.4713 3.96073 19.9721 4.15845 20.6965 4.25917L20.478 4.65616C19.6334 4.496 19.0763 4.20252 18.8066 3.77574C18.7271 3.9081 18.6276 4.02456 18.5159 4.12506C18.2529 4.35826 17.7856 4.54438 17.1221 4.6834L16.9485 4.27618C17.5161 4.1736 17.9236 4.03175 18.1709 3.84663C18.2386 3.79032 18.2984 3.73405 18.3502 3.67781L17.1382 3.68331L17.1367 3.29132L18.5687 3.28482C18.5924 3.20471 18.608 3.12464 18.6237 3.04456ZM21.8105 1.70608L23.7905 1.6971L23.792 2.07309L23.016 2.07662L23.0178 2.53261L23.6697 2.52965L23.6712 2.89765L23.0192 2.90061L23.0212 3.42461L23.3852 3.42295C23.3207 3.27525 23.2482 3.14757 23.1677 3.03594L23.4993 2.92643C23.5878 3.05003 23.6683 3.18567 23.7329 3.33338L23.5372 3.42226L23.9132 3.42056L23.9147 3.79656L21.7107 3.80656L21.7093 3.43056L22.5972 3.42653L22.5952 2.90254L21.9432 2.90549L21.9418 2.5375L22.5938 2.53454L22.592 2.07854L21.812 2.08208L21.8105 1.70608ZM24.496 1.05789L24.5099 4.61386L24.0859 4.61579L24.0853 4.46779L21.5414 4.47933L21.5419 4.62733L21.1179 4.62926L21.104 1.07329L24.496 1.05789ZM21.5398 4.08734L24.0838 4.07579L24.0735 1.45181L21.5296 1.46336L21.5398 4.08734ZM25.8105 1.68793L27.7905 1.67894L27.7919 2.05494L27.0159 2.05846L27.0177 2.51446L27.6697 2.5115L27.6711 2.8795L27.0192 2.88245L27.0212 3.40645L27.3852 3.4048C27.3206 3.25709 27.2481 3.12942 27.1677 3.01778L27.4993 2.90828C27.5877 3.03188 27.6683 3.16751 27.7329 3.31522L27.5372 3.40411L27.9132 3.4024L27.9147 3.7784L25.7107 3.7884L25.7092 3.41241L26.5972 3.40838L26.5952 2.88438L25.9432 2.88734L25.9417 2.51934L26.5937 2.51638L26.5919 2.06039L25.8119 2.06393L25.8105 1.68793ZM28.496 1.03973L28.5099 4.59571L28.0859 4.59763L28.0853 4.44963L25.5413 4.46118L25.5419 4.60918L25.1179 4.6111L25.104 1.05513L28.496 1.03973ZM25.5398 4.06918L28.0838 4.05763L28.0735 1.43365L25.5295 1.4452L25.5398 4.06918ZM31.4119 3.07052C31.364 3.08674 31.316 3.09895 31.2681 3.11117C31.3248 3.29492 31.3535 3.48679 31.3584 3.69477C31.3596 4.02276 31.3125 4.24298 31.225 4.36338C31.1175 4.50787 30.8778 4.58496 30.5098 4.58663L30.3858 4.58719L30.2444 4.21983L30.4524 4.21888C30.6684 4.2179 30.8043 4.18529 30.8601 4.12903C30.9238 4.05274 30.9592 3.90858 30.9584 3.69658C30.9582 3.66458 30.9541 3.6366 30.954 3.6126C30.5233 3.93456 29.9683 4.20108 29.2852 4.41218L29.0758 4.05713C29.8549 3.83359 30.4578 3.55485 30.8845 3.21691C30.8602 3.14102 30.8359 3.07313 30.8077 3.00926C30.4367 3.28295 29.9456 3.51318 29.3343 3.69195L29.1249 3.3369C29.7723 3.16996 30.2755 2.95967 30.6345 2.71004C30.6023 2.66219 30.5662 2.62235 30.534 2.5825C30.526 2.58253 30.518 2.58657 30.518 2.59057C30.2625 2.71573 29.8911 2.85342 29.4116 2.9996L29.1983 2.65256C29.562 2.57891 29.9056 2.47335 30.2291 2.33988C30.3049 2.30753 30.3808 2.27519 30.4527 2.24286L29.6207 2.24664L29.6192 1.86264L31.9872 1.85189L31.9887 2.23589L31.1127 2.23987C31.0249 2.30027 30.9411 2.35665 30.8533 2.40905C30.9658 2.52854 31.0583 2.65612 31.1308 2.79179C31.4784 2.69021 31.8059 2.54072 32.1171 2.33931L32.3982 2.61804C32.1947 2.74696 31.9751 2.85996 31.7435 2.95301C31.9292 3.40417 32.2227 3.77084 32.6278 4.04901L32.3331 4.39835C31.9077 4.04428 31.602 3.60166 31.4119 3.07052ZM30.9073 0.860786C30.9477 0.960604 30.9881 1.07242 31.0286 1.19624L32.5246 1.18945L32.5275 1.94944L32.1116 1.95133L32.1101 1.57533L29.4901 1.58723L29.4916 1.96322L29.0796 1.96509L29.0766 1.2051L30.6046 1.19816C30.5642 1.10235 30.5239 1.01453 30.4796 0.934728L30.9073 0.860786ZM33.4876 0.929075C33.7443 1.11991 33.9611 1.31093 34.1378 1.50213L33.8549 1.79142C33.6982 1.60813 33.4814 1.40911 33.2046 1.20236L33.4876 0.929075ZM32.96 2.06748L33.884 2.06329L33.8905 3.72327C34.0061 3.61875 34.1296 3.50619 34.2612 3.38159L34.3789 3.82106C34.1158 4.06225 33.8367 4.27552 33.5414 4.46887L33.3799 4.0936C33.4477 4.03329 33.4834 3.95712 33.4831 3.86913L33.4776 2.46514L32.9616 2.46748L32.96 2.06748ZM34.3939 2.54098L36.3459 2.53212L36.3473 2.91211C36.2367 3.25662 36.0539 3.55745 35.7988 3.81061C36.0475 3.96949 36.348 4.10812 36.7045 4.23051L36.4819 4.59152C36.0893 4.4333 35.7566 4.25881 35.4918 4.06401C35.1807 4.28542 34.8014 4.46315 34.3459 4.59722L34.1125 4.24627C34.5241 4.1244 34.8715 3.97082 35.1587 3.78552C34.9017 3.53068 34.7207 3.2515 34.6234 2.93994L34.3954 2.94097L34.3939 2.54098ZM35.0154 2.93816C35.1043 3.16576 35.2491 3.3731 35.4579 3.55616C35.6611 3.37123 35.8163 3.16653 35.9274 2.93402L35.0154 2.93816ZM34.6598 0.991755L36.0998 0.985218L36.103 1.81321C36.1034 1.90121 36.1516 1.94899 36.2516 1.94854L36.5956 1.94698L36.5971 2.32697L36.1411 2.32904C35.8411 2.33041 35.6925 2.19108 35.6914 1.91108L35.6893 1.37909L35.0733 1.38188L35.0738 1.48988C35.0754 1.90588 34.8607 2.23086 34.4375 2.45678L34.1563 2.13805C34.4917 1.99653 34.663 1.79575 34.6619 1.53575L34.6598 0.991755ZM38.2198 2.00761L39.2518 2.00292L39.2473 0.842931L39.6793 0.84097L39.6838 2.00096L40.6638 1.99651L40.6654 2.41251L39.6854 2.41696L39.6938 4.56094L39.2618 4.5629L39.2534 2.41892L38.2214 2.4236L38.2198 2.00761ZM37.5114 0.88281C37.7642 1.07766 37.9809 1.27268 38.1617 1.46386L37.8748 1.75717C37.7221 1.57386 37.5014 1.37886 37.2165 1.17215L37.5114 0.88281ZM36.9599 2.04132L37.9119 2.037L37.9185 3.70899C38.0341 3.60847 38.1576 3.4959 38.2891 3.37131L38.3988 3.79881C38.1398 4.03999 37.8646 4.25724 37.5694 4.45058L37.4079 4.07531C37.4797 4.01499 37.5154 3.94282 37.515 3.85882L37.5095 2.43883L36.9615 2.44132L36.9599 2.04132ZM41.0565 1.16272L42.7925 1.15484L42.7941 1.56284L42.2261 1.56542L42.229 2.29741L42.633 2.29558L42.6338 2.51158C42.88 2.04245 43.0458 1.4817 43.1352 0.825283L43.5474 0.871412C43.5162 1.06756 43.4809 1.25572 43.4376 1.43192L44.5936 1.42667L44.5952 1.83467L44.3392 1.83583C44.3096 2.45597 44.1677 2.98462 43.9094 3.4258C44.1347 3.74478 44.3996 3.99558 44.7043 4.17419L44.4657 4.53128C44.157 4.34468 43.888 4.0899 43.6628 3.77092C43.392 4.08815 43.049 4.34571 42.6298 4.54361L42.3724 4.20078C42.8237 4.00673 43.1786 3.74512 43.4333 3.41196C43.2843 3.14863 43.1552 2.85321 43.0499 2.52569C42.9705 2.67805 42.887 2.82243 42.7996 2.95883L42.5905 2.68777L42.2305 2.68941L42.2339 3.5654C42.4177 3.50857 42.5975 3.45175 42.7653 3.39499L42.7668 3.77899C42.2755 3.95722 41.7081 4.12379 41.0647 4.27472L40.9512 3.89123L41.179 3.84219L41.1719 2.03421L41.5599 2.03245L41.5666 3.74843C41.6586 3.72401 41.7465 3.70362 41.8304 3.67923L41.8221 1.56725L41.0581 1.57072L41.0565 1.16272ZM43.6639 3.03091C43.8305 2.67815 43.9209 2.28173 43.9352 1.83766L43.3232 1.84044C43.3035 1.90453 43.2837 1.96462 43.2639 2.02071C43.3734 2.40022 43.5067 2.73562 43.6639 3.03091ZM45.0157 1.97676L46.5917 1.96961L46.5909 1.74561L46.9708 1.74388L46.7423 1.59692C46.9133 1.34014 47.0322 1.0716 47.1031 0.783272L47.5034 0.869456C47.4797 0.949564 47.4561 1.02967 47.4323 1.10178L48.5603 1.09666L48.5618 1.46466L47.9058 1.46764C47.9782 1.57931 48.0386 1.68703 48.087 1.78682L47.7236 1.92847C47.651 1.7688 47.5704 1.61716 47.4818 1.46956L47.2898 1.47043C47.2303 1.5987 47.1667 1.71499 47.0952 1.82332L47.015 1.77168L47.0157 1.96768L48.5917 1.96053L48.5932 2.33652L47.0172 2.34368L47.018 2.54368L48.33 2.53772L48.333 3.32172C48.3339 3.55371 48.2064 3.67029 47.9544 3.67144L47.7104 3.67254C47.999 3.82724 48.3275 3.95775 48.692 4.06809L48.4734 4.44909C47.9126 4.24363 47.4315 3.96181 47.0222 3.61167L47.0258 4.53166L46.6018 4.53359L46.5982 3.62959C46.2076 3.99137 45.7647 4.27738 45.2735 4.48361L45.0241 4.11274C45.6353 3.89797 46.1581 3.59959 46.5966 3.2136L46.5954 2.9096L45.7634 2.91337L45.7664 3.66537L45.3544 3.66724L45.35 2.55125L46.594 2.5456L46.5932 2.3456L45.0172 2.35276L45.0157 1.97676ZM47.0206 3.21967C47.2132 3.3788 47.4298 3.52582 47.6783 3.65669L47.577 3.30515L47.837 3.32397C47.889 3.32373 47.9169 3.2916 47.9167 3.2356L47.9154 2.90361L47.0194 2.90767L47.0206 3.21967ZM45.6058 1.47808C45.5223 1.61446 45.4308 1.74287 45.3313 1.86333L44.9704 1.63696C45.2094 1.37187 45.3803 1.0871 45.4791 0.786644L45.8794 0.872827C45.8517 0.952954 45.8201 1.0331 45.7884 1.10924L46.7163 1.10503L46.7178 1.47303L46.1658 1.47553C46.2382 1.58721 46.3027 1.69491 46.3551 1.79868L45.9796 1.94038C45.907 1.78071 45.8264 1.62508 45.7378 1.47748L45.6058 1.47808ZM49.0332 1.30652L49.3612 1.30503L49.3705 3.68901C49.4264 3.68076 49.4864 3.67648 49.5424 3.66823L49.5314 0.852251L49.8594 0.850762L49.8702 3.62274C49.9302 3.61047 49.9901 3.5982 50.0461 3.58994L50.0371 1.30196L50.3651 1.30047L50.3684 2.14446C50.6642 2.08712 50.9239 2.01394 51.1436 1.93294C51.0473 1.85338 50.963 1.77376 50.8947 1.69007C50.8309 1.75436 50.7631 1.81067 50.6994 1.86696L50.4422 1.56412C50.6935 1.37898 50.9124 1.12199 51.0992 0.793134L51.4675 0.875463C51.4357 0.939608 51.4 1.00377 51.3682 1.05992L52.3562 1.05543L52.3575 1.38343C52.2623 1.58386 52.111 1.76055 51.9116 1.92146C52.1319 1.99646 52.3841 2.05531 52.6643 2.10204L52.5177 2.47471C52.1215 2.40451 51.7891 2.30202 51.5205 2.16724C51.2371 2.30852 50.8975 2.42607 50.4979 2.52388L50.369 2.28846L50.376 4.08445L50.048 4.08594L50.0475 3.94594C49.7677 3.99921 49.4599 4.04461 49.124 4.07813L48.9667 3.74284C49.0146 3.71863 49.0424 3.6785 49.0422 3.6265L49.0332 1.30652ZM50.5582 2.59161L51.3102 2.58819L51.3093 2.3522L51.7213 2.35033L51.7222 2.58632L52.4622 2.58297L52.4636 2.94296L51.7236 2.94632L51.7245 3.17032L52.3765 3.16736L52.3779 3.52736L51.7259 3.53032L51.7267 3.74232L52.5987 3.73836L52.6001 4.09835L51.7281 4.10231L51.7296 4.49431L51.3176 4.49618L51.3161 4.10418L50.4641 4.10805L50.4627 3.74805L51.3147 3.74419L51.3139 3.53219L50.6339 3.53527L50.6325 3.17528L51.3125 3.17219L51.3116 2.94819L50.5596 2.95161L50.5582 2.59161ZM51.5229 1.74722C51.6825 1.65049 51.8141 1.5379 51.9096 1.40946L51.1336 1.41298C51.1296 1.417 51.1256 1.42102 51.1216 1.42904C51.2221 1.54858 51.3545 1.65598 51.5229 1.74722ZM54.6471 0.76903L54.9511 0.76765C55.4532 1.31338 56.0309 1.74276 56.6881 2.05178L56.4617 2.46081C56.2293 2.34186 56.0127 2.20685 55.8082 2.06377L55.8093 2.35177L53.8133 2.36083L53.8121 2.05683C53.6007 2.20579 53.3733 2.34683 53.1338 2.47992L52.9082 2.07294C53.6068 1.72576 54.1851 1.29113 54.6471 0.76903ZM53.9318 1.96829L55.6718 1.96039C55.3428 1.71788 55.0537 1.44719 54.8006 1.14434C54.5537 1.44146 54.2668 1.71877 53.9318 1.96829ZM53.1869 2.77168L56.4349 2.75694L56.4365 3.16493L54.5765 3.17337C54.4097 3.48613 54.2148 3.76302 53.9917 3.99604C54.5316 3.96159 55.0594 3.91519 55.5712 3.85287C55.4546 3.70939 55.33 3.56196 55.1974 3.41056L55.5206 3.20509C55.8862 3.59543 56.1675 3.93816 56.3686 4.22525L56.0216 4.47083C55.9532 4.36714 55.8808 4.25947 55.8043 4.15581C55.1847 4.25462 54.413 4.33413 53.4853 4.39434L53.3718 4.03085C53.4717 4.0064 53.5436 3.96607 53.5874 3.91787C53.7865 3.68097 53.9535 3.43221 54.0925 3.17557L53.1885 3.17967L53.1869 2.77168ZM58.3691 2.30815L58.3708 2.72415C58.235 2.78876 58.0953 2.8534 57.9595 2.91402L57.9639 4.04201C57.965 4.31401 57.8295 4.45462 57.5655 4.45582L57.1855 4.45755L57.088 4.05798C57.204 4.07346 57.3121 4.08497 57.4161 4.08449C57.5041 4.0841 57.5519 4.03588 57.5515 3.93988L57.5482 3.07989C57.3804 3.14465 57.2086 3.20143 57.0408 3.25419L56.9352 2.84267C57.143 2.79772 57.3468 2.7408 57.5466 2.67189L57.5434 1.85589L57.0114 1.85831L57.0098 1.46231L57.5418 1.4599L57.5392 0.779903L57.9512 0.778033L57.9538 1.45803L58.3578 1.45619L58.3594 1.85219L57.9554 1.85402L57.9579 2.51002C58.0937 2.4454 58.2334 2.38077 58.3691 2.30815ZM58.9107 2.6977L58.9176 4.46568L58.5216 4.46748L58.5076 0.891508L60.3876 0.882975C60.3895 1.36297 60.3627 1.6871 60.3114 1.84733C60.2559 1.99958 60.0922 2.07633 59.8202 2.07756L59.5163 2.07894L59.4029 1.72345C59.4629 1.72318 59.5389 1.72684 59.6309 1.72642C59.7229 1.726 59.7909 1.72169 59.8388 1.71347C59.8788 1.70129 59.9147 1.67713 59.9385 1.63702C59.9623 1.58491 59.9818 1.46082 59.9891 1.26079L58.9051 1.26571L58.9092 2.3177L60.4172 2.31086L60.4186 2.67085C60.3602 3.07512 60.2375 3.42368 60.0506 3.71253C60.2313 3.86771 60.4438 4.01075 60.6883 4.14164L60.4096 4.46691C60.181 4.32395 59.9844 4.17284 59.8158 4.0136C59.6326 4.20244 59.4172 4.35541 59.1696 4.47654L58.9682 4.10945C59.1918 4.00043 59.3792 3.86358 59.5306 3.70289C59.2814 3.39202 59.1241 3.05673 59.0627 2.69701L58.9107 2.6977ZM59.4307 2.69534C59.4837 2.9511 59.5926 3.18661 59.7574 3.40186C59.8806 3.1933 59.9717 2.95688 60.0267 2.69263L59.4307 2.69534ZM64.1755 2.9018L64.1815 4.43779L63.7575 4.43971L63.7568 4.25172L61.8928 4.26018L61.8935 4.44818L61.4695 4.4501L61.4635 2.91411L64.1755 2.9018ZM61.8913 3.86818L63.7552 3.85972L63.753 3.29572L61.8891 3.30418L61.8913 3.86818ZM61.7747 1.66469C61.6394 1.8453 61.48 2.01003 61.3046 2.15883L61.0553 1.83195C61.4062 1.54636 61.6408 1.19729 61.7632 0.78873L62.1794 0.834841C62.136 0.98704 62.0806 1.12729 62.0171 1.26358L62.6411 1.26075L62.639 0.740754L63.059 0.738848L63.0611 1.25884L64.3211 1.25312L64.3226 1.65312L63.0626 1.65884L63.0647 2.17484L64.6326 2.16772L64.6342 2.57572L60.9783 2.59231L60.9767 2.18431L62.6447 2.17674L62.6426 1.66075L61.7747 1.66469ZM65.3829 0.708299L66.2182 2.57253L65.3975 4.44427L65.0529 4.28983L65.8062 2.5744L65.0396 0.865859L65.3829 0.708299ZM66.0789 0.70514L66.9142 2.56937L66.0935 4.44111L65.7489 4.28667L66.5022 2.57124L65.7195 0.862773L66.0789 0.70514Z" fill="white"/>
<g clip-path="url(#clip0_251_4103)">
<path d="M0 1.00001H7.6V5.00001H0" fill="#B31942"/>
<path d="M-3.05176e-05 1.46154H7.59997ZM7.59997 2.07692H-3.05176e-05ZM-3.05176e-05 2.69231H7.59997ZM7.59997 3.30769H-3.05176e-05ZM-3.05176e-05 3.92308H7.59997ZM7.59997 4.53846H-3.05176e-05Z" fill="black"/>
<path d="M-3.05176e-05 1.46154H7.59997M7.59997 2.07692H-3.05176e-05M-3.05176e-05 2.69231H7.59997M7.59997 3.30769H-3.05176e-05M-3.05176e-05 3.92308H7.59997M7.59997 4.53846H-3.05176e-05" stroke="white" stroke-width="0.307692"/>
<path d="M0 1.00001H3.04V3.15386H0" fill="#0A3161"/>
<path d="M0.253329 1.09231L0.325672 1.31496L0.136276 1.17736H0.370382L0.180987 1.31496L0.253329 1.09231Z" fill="white"/>
<path d="M0.253314 1.52308L0.325657 1.74573L0.136261 1.60812H0.370367L0.180971 1.74573L0.253314 1.52308Z" fill="white"/>
<path d="M0.253314 1.95385L0.325657 2.1765L0.136261 2.03889H0.370367L0.180971 2.1765L0.253314 1.95385Z" fill="white"/>
<path d="M0.253314 2.38461L0.325657 2.60726L0.136261 2.46966H0.370367L0.180971 2.60726L0.253314 2.38461Z" fill="white"/>
<path d="M0.253314 2.81538L0.325657 3.03803L0.136261 2.90043H0.370367L0.180971 3.03803L0.253314 2.81538Z" fill="white"/>
<path d="M0.506656 1.30769L0.578999 1.53034L0.389603 1.39274H0.623709L0.434313 1.53034L0.506656 1.30769Z" fill="white"/>
<path d="M0.506625 1.73847L0.578968 1.96111L0.389572 1.82351H0.623678L0.434282 1.96111L0.506625 1.73847Z" fill="white"/>
<path d="M0.506625 2.16924L0.578968 2.39188L0.389572 2.25428H0.623678L0.434282 2.39188L0.506625 2.16924Z" fill="white"/>
<path d="M0.506625 2.6L0.578968 2.82265L0.389572 2.68505H0.623678L0.434282 2.82265L0.506625 2.6Z" fill="white"/>
<path d="M0.760013 1.09231L0.832356 1.31496L0.64296 1.17735H0.877066L0.68767 1.31496L0.760013 1.09231Z" fill="white"/>
<path d="M0.760043 1.52308L0.832386 1.74573L0.64299 1.60812H0.877096L0.6877 1.74573L0.760043 1.52308Z" fill="white"/>
<path d="M0.760043 1.95385L0.832386 2.17649L0.64299 2.03889H0.877096L0.6877 2.17649L0.760043 1.95385Z" fill="white"/>
<path d="M0.760043 2.38461L0.832386 2.60726L0.64299 2.46966H0.877096L0.6877 2.60726L0.760043 2.38461Z" fill="white"/>
<path d="M0.760043 2.81538L0.832386 3.03803L0.64299 2.90043H0.877096L0.6877 3.03803L0.760043 2.81538Z" fill="white"/>
<path d="M1.01338 1.30769L1.08573 1.53034L0.896332 1.39274H1.13044L0.941042 1.53034L1.01338 1.30769Z" fill="white"/>
<path d="M1.0134 1.73846L1.08574 1.96111L0.896347 1.82351H1.13045L0.941057 1.96111L1.0134 1.73846Z" fill="white"/>
<path d="M1.0134 2.16923L1.08574 2.39188L0.896347 2.25428H1.13045L0.941057 2.39188L1.0134 2.16923Z" fill="white"/>
<path d="M1.0134 2.6L1.08574 2.82265L0.896347 2.68505H1.13045L0.941057 2.82265L1.0134 2.6Z" fill="white"/>
<path d="M1.26664 1.09231L1.33898 1.31496L1.14958 1.17735H1.38369L1.19429 1.31496L1.26664 1.09231Z" fill="white"/>
<path d="M1.26664 1.52308L1.33898 1.74573L1.14958 1.60812H1.38369L1.19429 1.74573L1.26664 1.52308Z" fill="white"/>
<path d="M1.26664 1.95385L1.33898 2.17649L1.14958 2.03889H1.38369L1.19429 2.17649L1.26664 1.95385Z" fill="white"/>
<path d="M1.26664 2.38461L1.33898 2.60726L1.14958 2.46966H1.38369L1.19429 2.60726L1.26664 2.38461Z" fill="white"/>
<path d="M1.26664 2.81538L1.33898 3.03803L1.14958 2.90043H1.38369L1.19429 3.03803L1.26664 2.81538Z" fill="white"/>
<path d="M1.51998 1.30769L1.59232 1.53034L1.40292 1.39274H1.63703L1.44763 1.53034L1.51998 1.30769Z" fill="white"/>
<path d="M1.51996 1.73846L1.5923 1.96111L1.40291 1.82351H1.63701L1.44762 1.96111L1.51996 1.73846Z" fill="white"/>
<path d="M1.51996 2.16923L1.5923 2.39188L1.40291 2.25428H1.63701L1.44762 2.39188L1.51996 2.16923Z" fill="white"/>
<path d="M1.51996 2.6L1.5923 2.82265L1.40291 2.68505H1.63701L1.44762 2.82265L1.51996 2.6Z" fill="white"/>
<path d="M1.77333 1.09231L1.84568 1.31496L1.65628 1.17735H1.89039L1.70099 1.31496L1.77333 1.09231Z" fill="white"/>
<path d="M1.77332 1.52308L1.84566 1.74572L1.65627 1.60812H1.89037L1.70098 1.74572L1.77332 1.52308Z" fill="white"/>
<path d="M1.77332 1.95384L1.84566 2.17649L1.65627 2.03889H1.89037L1.70098 2.17649L1.77332 1.95384Z" fill="white"/>
<path d="M1.77332 2.38461L1.84566 2.60726L1.65627 2.46966H1.89037L1.70098 2.60726L1.77332 2.38461Z" fill="white"/>
<path d="M1.77332 2.81538L1.84566 3.03803L1.65627 2.90042H1.89037L1.70098 3.03803L1.77332 2.81538Z" fill="white"/>
<path d="M2.02666 1.30769L2.099 1.53034L1.90961 1.39273H2.14371L1.95432 1.53034L2.02666 1.30769Z" fill="white"/>
<path d="M2.02663 1.73846L2.09897 1.96111L1.90958 1.82351H2.14368L1.95429 1.96111L2.02663 1.73846Z" fill="white"/>
<path d="M2.02663 2.16923L2.09897 2.39188L1.90958 2.25428H2.14368L1.95429 2.39188L2.02663 2.16923Z" fill="white"/>
<path d="M2.02663 2.6L2.09897 2.82265L1.90958 2.68504H2.14368L1.95429 2.82265L2.02663 2.6Z" fill="white"/>
<path d="M2.27996 1.09231L2.3523 1.31496L2.1629 1.17735H2.39701L2.20761 1.31496L2.27996 1.09231Z" fill="white"/>
<path d="M2.27997 1.52308L2.35231 1.74573L2.16292 1.60812H2.39702L2.20763 1.74573L2.27997 1.52308Z" fill="white"/>
<path d="M2.27997 1.95385L2.35231 2.17649L2.16292 2.03889H2.39702L2.20763 2.17649L2.27997 1.95385Z" fill="white"/>
<path d="M2.27997 2.38461L2.35231 2.60726L2.16292 2.46966H2.39702L2.20763 2.60726L2.27997 2.38461Z" fill="white"/>
<path d="M2.27997 2.81538L2.35231 3.03803L2.16292 2.90043H2.39702L2.20763 3.03803L2.27997 2.81538Z" fill="white"/>
<path d="M2.53333 1.30769L2.60567 1.53034L2.41628 1.39274H2.65038L2.46099 1.53034L2.53333 1.30769Z" fill="white"/>
<path d="M2.53334 1.73846L2.60569 1.96111L2.41629 1.82351H2.6504L2.461 1.96111L2.53334 1.73846Z" fill="white"/>
<path d="M2.53334 2.16923L2.60569 2.39188L2.41629 2.25428H2.6504L2.461 2.39188L2.53334 2.16923Z" fill="white"/>
<path d="M2.53334 2.6L2.60569 2.82265L2.41629 2.68505H2.6504L2.461 2.82265L2.53334 2.6Z" fill="white"/>
<path d="M2.78665 1.09231L2.859 1.31496L2.6696 1.17735H2.90371L2.71431 1.31496L2.78665 1.09231Z" fill="white"/>
<path d="M2.78665 1.52308L2.859 1.74573L2.6696 1.60812H2.90371L2.71431 1.74573L2.78665 1.52308Z" fill="white"/>
<path d="M2.78665 1.95385L2.859 2.17649L2.6696 2.03889H2.90371L2.71431 2.17649L2.78665 1.95385Z" fill="white"/>
<path d="M2.78665 2.38461L2.859 2.60726L2.6696 2.46966H2.90371L2.71431 2.60726L2.78665 2.38461Z" fill="white"/>
<path d="M2.78665 2.81538L2.859 3.03803L2.6696 2.90043H2.90371L2.71431 3.03803L2.78665 2.81538Z" fill="white"/>
</g>
<defs>
<clipPath id="clip0_251_4103">
<rect y="1.00001" width="4" height="4" rx="2" fill="white"/>
</clipPath>
</defs>
</svg>
