<svg width="114" height="37" viewBox="0 0 114 37" fill="none" xmlns="http://www.w3.org/2000/svg">
<path d="M4.43118 3.28691L4.71148 3.52157L3.46805 4.94792L3.70321 6.8189L3.3553 6.86465L3.10032 4.83734L4.43118 3.28691ZM5.0862 3.48389L5.35118 3.71394L4.12307 5.14489L4.35824 7.01588L4.01033 7.06162L3.75534 5.03431L5.0862 3.48389Z" fill="white"/>
<path d="M6.7649 4.01963C6.85603 4.25372 6.93782 4.50594 7.00641 4.77519L6.73387 4.8262L7.52994 5.05393C7.73109 4.87433 7.92896 4.64802 8.12246 4.37886L8.45261 4.57732C8.29539 4.80693 8.1228 5.00303 7.94143 5.17165L8.67212 5.38067L8.5709 5.73448L7.3172 5.37583L7.28309 5.49505C7.22259 5.67745 7.15496 5.84116 7.08293 5.99113L8.61353 6.42899L8.51232 6.7828L7.16631 6.39775C7.22163 6.91699 7.59784 7.41985 8.29382 7.91018L7.97944 8.19469C7.26645 7.63292 6.88039 7.04819 6.81246 6.44213C6.69153 6.60308 6.56071 6.7404 6.42112 6.85024C6.0606 7.12155 5.55781 7.26479 4.91276 7.27996L4.80409 6.90355C5.45134 6.88069 5.92061 6.75282 6.21574 6.52106C6.32071 6.43043 6.41745 6.32497 6.50485 6.20852L5.1896 5.83227L5.29082 5.47846L6.70605 5.88332C6.78302 5.7306 6.8545 5.56798 6.9139 5.38944L6.948 5.27022L5.69045 4.91047L5.79166 4.55666L6.61465 4.79209C6.55155 4.53274 6.47306 4.2981 6.38412 4.08543L6.7649 4.01963Z" fill="white"/>
<path d="M9.97632 5.05153L12.9013 5.83464L12.8051 6.19398L11.5725 5.86398L11.3201 6.80678L12.8232 7.20919L12.7249 7.57626L11.2218 7.17385L10.869 8.49144C10.7966 8.76192 10.6164 8.86274 10.3344 8.78722L9.72 8.62274L9.7379 8.24657C9.93185 8.31092 10.1191 8.36934 10.2969 8.41692C10.4205 8.45003 10.4978 8.40862 10.5268 8.30043L10.8547 7.07557L9.28599 6.65557L9.38427 6.28849L10.953 6.7085L11.2054 5.7657L9.88011 5.41087L9.97632 5.05153Z" fill="white"/>
<path d="M14.7903 8.06687L14.6838 8.49791L15.2857 8.64662L15.3922 8.21558L14.7903 8.06687ZM14.5994 8.83963L14.4804 9.32115L15.0823 9.46987L15.2013 8.98835L14.5994 8.83963ZM14.3931 9.67452L14.3499 9.84927L13.9849 9.75908L14.5164 7.60777C14.411 7.7012 14.2987 7.78882 14.1825 7.87548L14.1542 7.45646C14.5626 7.12063 14.8904 6.72779 15.1356 6.26921L15.4756 6.42738C15.3732 6.6081 15.2612 6.77819 15.1394 6.93763L15.7335 7.08443C15.7174 6.88268 15.6936 6.67901 15.6601 6.4812L16.0365 6.47531C16.0634 6.7333 16.0805 6.96414 16.0791 7.16982L16.6732 7.31662L16.5859 7.66999L15.953 7.5136L15.8426 7.96017L16.3979 8.09737L16.3125 8.44298L15.7572 8.30577L15.6507 8.73681L16.206 8.87402L16.1216 9.21574L15.5663 9.07854L15.4473 9.56006L16.123 9.727L16.0357 10.0804L14.3931 9.67452ZM15.5879 7.42341L14.986 7.27469L14.8757 7.72126L15.4776 7.86998L15.5879 7.42341ZM14.1674 7.68634L14.0743 8.06302C13.9531 8.08663 13.829 8.10541 13.7088 8.12514L13.4478 9.18138C13.3854 9.43379 13.2217 9.52931 12.9616 9.46503L12.6121 9.37868L12.6188 9.00127C12.7198 9.04271 12.8188 9.07542 12.9159 9.09941C13.0169 9.12436 13.0789 9.09023 13.1019 8.99703L13.3053 8.17379C13.1453 8.18781 12.9823 8.19699 12.8242 8.20325L12.8231 7.80743C13.0152 7.81369 13.2054 7.81123 13.3974 7.801L13.5989 6.98552L13.1329 6.87039L13.2212 6.51313L13.6872 6.62827L13.8561 5.94482L14.225 6.03597L14.0561 6.71941L14.4172 6.80864L14.329 7.1659L13.9678 7.07667L13.7999 7.75624C13.924 7.73746 14.0452 7.71384 14.1674 7.68634Z" fill="white"/>
<path d="M17.6215 6.90646C17.8341 7.16679 18.0076 7.41843 18.1421 7.6614L17.8175 7.8679C17.7087 7.63882 17.5399 7.38413 17.3091 7.09517L17.6215 6.90646ZM19.0773 10.9015C18.8664 10.8547 18.6369 10.7995 18.3918 10.741C18.1428 10.6815 17.9449 10.6129 17.7935 10.5383C17.6478 10.4567 17.5358 10.3335 17.4482 10.1747C17.4122 10.0971 17.3723 10.0554 17.3254 10.045C17.2473 10.0276 17.0677 10.1721 16.7904 10.4793L16.5735 10.1647C16.8391 9.89181 17.059 9.73173 17.2326 9.68835L17.4782 8.58332L16.9511 8.46615L17.0275 8.12253L17.9021 8.31695L17.5732 9.79683C17.5853 9.81593 17.6014 9.83588 17.6157 9.86365C17.6782 9.98817 17.7545 10.0871 17.8408 10.1596C17.9419 10.2394 18.102 10.3119 18.3268 10.37C18.5445 10.4225 18.8014 10.4837 19.1021 10.5505C19.2895 10.5922 19.4856 10.6317 19.6856 10.6721C19.8817 10.7115 20.0357 10.7376 20.1429 10.7532L19.9715 11.1003L19.0773 10.9015ZM18.3864 7.65014L18.8159 7.74561L18.9469 7.156L19.3023 7.23499L19.1712 7.8246L19.7022 7.94264L19.8324 7.35693L20.1917 7.43679L20.0615 8.02249L20.5261 8.12578L20.4489 8.47329L19.9842 8.37001L19.8306 9.06114L20.4202 9.1922L20.3421 9.54362L19.7525 9.41256L19.5164 10.4746L19.1572 10.3948L19.3932 9.33271L18.7724 9.19471C18.5632 9.61944 18.2942 9.90795 17.9567 10.0624L17.8001 9.71615C18.0535 9.60857 18.2578 9.40814 18.4132 9.11485L17.9407 9.00983L18.0188 8.65841L18.5616 8.77906C18.6067 8.64977 18.6449 8.51484 18.677 8.37036L18.7386 8.09313L18.3091 7.99766L18.3864 7.65014ZM19.0939 8.17211L19.0514 8.36345C19.0115 8.54306 18.9633 8.70445 18.913 8.85717L19.4714 8.98129L19.625 8.29016L19.0939 8.17211Z" fill="white"/>
<path d="M21.1017 8.2951L22.684 8.60279C22.6186 8.39447 22.5273 8.19335 22.4109 7.9955L22.8107 7.93061C22.9154 8.14656 23.0054 8.39633 23.0767 8.67915L24.5648 8.96851L24.493 9.3376L23.8923 9.22078C23.5878 9.78096 23.212 10.2254 22.7643 10.5581C23.1078 10.9712 23.564 11.3493 24.1259 11.6867L23.8567 11.9604C23.2704 11.6019 22.8015 11.2051 22.454 10.7707C21.934 11.0771 21.3317 11.2615 20.6472 11.324L20.5111 10.9553C21.1792 10.9141 21.7518 10.7565 22.2375 10.4801C21.8896 9.96418 21.6865 9.39495 21.6307 8.781L21.0299 8.66419L21.1017 8.2951ZM21.988 8.85048C22.059 9.36551 22.2435 9.84148 22.5463 10.2752C22.9323 9.98764 23.2542 9.61015 23.5075 9.14596L21.988 8.85048Z" fill="white"/>
<path d="M26.2715 8.56894L26.5955 8.79241C26.4082 9.09404 26.184 9.3734 25.9235 9.62653L25.4963 12.2277L25.1253 12.1668L25.4805 10.0037C25.2915 10.1429 25.0912 10.2763 24.8804 10.3997L24.8262 9.98951C25.4349 9.6152 25.9177 9.14321 26.2715 8.56894ZM27.5526 12.4924L26.8145 12.3712C26.4987 12.3193 26.3668 12.1355 26.4186 11.8198L26.6001 10.7146C26.4457 10.7662 26.2873 10.8172 26.1257 10.8637L26.0143 10.4805C26.243 10.4208 26.4645 10.3558 26.6721 10.2764L26.9242 8.74099L27.2992 8.80257L27.0853 10.1051C27.5142 9.91208 27.9056 9.67639 28.2515 9.39674L28.4634 9.73556C28.0249 10.0608 27.5416 10.3381 27.0107 10.559L26.802 11.83C26.7839 11.9405 26.834 12.0055 26.9603 12.0263L27.5484 12.1228C27.6392 12.1378 27.7115 12.1172 27.7647 12.0651C27.8139 12.0124 27.8758 11.8077 27.9434 11.4459L28.2719 11.6174C28.1697 12.0668 28.0731 12.3347 27.9865 12.4177C27.8959 12.5001 27.75 12.5248 27.5526 12.4924Z" fill="white"/>
<path d="M30.1966 10.8275L29.4592 10.7289L29.2572 12.2394C29.2445 12.3346 29.2891 12.393 29.3961 12.4073L30.086 12.4996C30.2049 12.5155 30.2845 12.4939 30.3202 12.4381C30.3604 12.3789 30.4022 12.2473 30.4451 12.0472L30.7821 12.2133C30.7042 12.554 30.6286 12.7578 30.5477 12.8196C30.4757 12.8746 30.3407 12.8888 30.1504 12.8633L29.1869 12.7345C28.9372 12.7011 28.8302 12.5657 28.862 12.3278L29.1138 10.4446L28.8981 10.6094L28.7169 10.2745C29.1397 9.9799 29.5392 9.61767 29.915 9.19173L30.1925 9.22885C30.4926 9.64026 30.7748 10.0654 31.031 10.5032L30.7507 10.7281C30.4702 10.2305 30.2354 9.84396 30.0378 9.57135C29.7908 9.84906 29.5216 10.1117 29.2223 10.3582L30.6099 10.5438L30.4635 11.638C30.4304 11.8556 30.2961 11.9546 30.0561 11.9387C29.9015 11.918 29.7553 11.8944 29.6176 11.8679L29.5736 11.5029C29.7182 11.5383 29.844 11.5632 29.955 11.5781C30.0462 11.5903 30.1001 11.5491 30.1118 11.4619L30.1966 10.8275ZM31.3181 9.71435L31.6868 9.76366L31.3597 12.2099L30.9909 12.1606L31.3181 9.71435ZM31.566 13.0809L30.9673 13.0009L30.9284 12.6284C31.1205 12.6702 31.3058 12.7031 31.4802 12.7264C31.5754 12.7391 31.6309 12.686 31.6463 12.5711L32.061 9.47067L32.4376 9.52105L32.0102 12.7166C31.9731 12.9941 31.8237 13.1154 31.566 13.0809Z" fill="white"/>
<path d="M33.5555 10.176L32.9349 10.1113L32.9681 9.79306L34.281 9.92994C34.2562 9.85898 34.231 9.79201 34.205 9.733L34.6214 9.71206C34.6453 9.79097 34.6724 9.87825 34.6947 9.97307L36.0713 10.1166L36.0381 10.4349L35.4055 10.3689L35.2652 10.5956L36.2002 10.6931L36.1662 11.0193L32.689 10.6568L32.723 10.3305L33.6261 10.4247L33.5555 10.176ZM34.02 10.4658L34.8714 10.5545L35.0116 10.3278L33.9494 10.2171L34.02 10.4658ZM33.0854 10.867L35.735 11.1433L35.6056 12.3845L32.9559 12.1083L33.0854 10.867ZM35.2654 12.0595L35.2862 11.8606L33.3765 11.6615L33.3558 11.8604L35.2654 12.0595ZM33.4047 11.391L35.3144 11.59L35.3347 11.3951L33.4251 11.196L33.4047 11.391ZM32.7886 12.2477L33.1467 12.3614C33.0224 12.6662 32.8669 12.9234 32.6798 13.1372L32.3747 12.9003C32.5562 12.702 32.6913 12.4869 32.7886 12.2477ZM34.7233 13.4025L33.7525 13.3013C33.4462 13.2694 33.3095 13.1144 33.3377 12.8438L33.3908 12.3346L33.7727 12.3744L33.7279 12.8041C33.7176 12.9035 33.7719 12.9615 33.8952 12.9743L34.6869 13.0569C34.7585 13.0644 34.8119 13.0538 34.8426 13.0289C34.8862 12.9972 34.9248 12.8967 34.959 12.7233L35.305 12.876C35.2441 13.1512 35.1706 13.3164 35.0773 13.363C34.9967 13.4029 34.8784 13.4187 34.7233 13.4025ZM34.3746 12.2723C34.5171 12.448 34.622 12.5997 34.6927 12.7317L34.3555 12.9178C34.2777 12.7769 34.1697 12.6169 34.0312 12.4416L34.3746 12.2723ZM35.6071 12.4852C35.799 12.7666 35.9424 13.0108 36.0379 13.2138L35.7008 13.3999C35.5999 13.1722 35.4612 12.9204 35.2809 12.6443L35.6071 12.4852Z" fill="white"/>
<path d="M40.0825 10.4577L39.8306 13.732L39.4637 13.7038L39.4861 13.4126L38.6207 13.3461L38.5946 13.6851L38.2317 13.6572L38.4872 10.335L40.0825 10.4577ZM38.6483 12.9871L39.5137 13.0537L39.6882 10.7844L38.8228 10.7178L38.6483 12.9871ZM36.617 11.0216L37.283 11.0728L37.3198 10.5942C37.1342 10.6081 36.9453 10.6136 36.7606 10.6154L36.667 10.2672C37.2849 10.2666 37.7871 10.2049 38.177 10.0905L38.3322 10.4194C38.1233 10.4755 37.911 10.5234 37.692 10.5547L37.65 11.101L38.3 11.151L38.2727 11.506L37.6227 11.456L37.6104 11.6155C37.8187 11.8281 38.0292 12.065 38.2418 12.326L37.9933 12.6359C37.8334 12.3668 37.6975 12.1518 37.5822 11.9824L37.4518 13.6774L37.0849 13.6492L37.2091 12.034C37.0238 12.3567 36.7928 12.6479 36.5241 12.908L36.3925 12.4807C36.768 12.1886 37.0554 11.8416 37.2542 11.4477L37.2557 11.4278L36.5897 11.3766L36.617 11.0216Z" fill="white"/>
<path d="M41.1712 10.344C41.4167 10.5492 41.6182 10.756 41.7838 10.957L41.5103 11.207C41.3684 11.0113 41.1632 10.8002 40.8985 10.578L41.1712 10.344ZM40.6 11.4555L41.4948 11.5026L41.4058 13.1923C41.5351 13.0949 41.6733 12.982 41.8242 12.8538L41.907 13.2587C41.6348 13.4847 41.3478 13.6859 41.0463 13.8583L40.9206 13.5072C40.9875 13.4546 41.0272 13.3846 41.0316 13.3007L41.1081 11.8467L40.5809 11.819L40.6 11.4555ZM42.001 12.0059L43.9383 12.1078L43.92 12.4554C43.7855 12.8048 43.5778 13.0983 43.2967 13.3398C43.5435 13.521 43.8471 13.6892 44.1999 13.836L43.9789 14.1528C43.5879 13.972 43.266 13.7708 43.0049 13.5568C42.6816 13.7641 42.2846 13.9234 41.8221 14.0353L41.6272 13.7046C42.0572 13.603 42.4209 13.466 42.7186 13.2894C42.4608 13.0114 42.2884 12.71 42.2094 12.3854L41.9817 12.3734L42.001 12.0059ZM42.5649 12.4041C42.6439 12.6526 42.7881 12.8805 43.0013 13.092C43.2273 12.9076 43.4066 12.6967 43.5355 12.4551L42.5649 12.4041ZM42.3618 10.4787L43.7758 10.5531L43.7317 11.392C43.727 11.4799 43.7724 11.5303 43.8723 11.5356L44.2238 11.5541L44.2055 11.9016L43.7542 11.8778C43.4705 11.8629 43.3379 11.7197 43.3518 11.4561L43.3816 10.8889L42.7185 10.854L42.7122 10.9738C42.6904 11.3893 42.4616 11.7017 42.0302 11.9073L41.7939 11.6024C42.1374 11.4683 42.3203 11.2656 42.3346 10.994L42.3618 10.4787Z" fill="white"/>
<path d="M45.6252 11.6634L46.6726 11.6984L46.7117 10.5271L47.1035 10.5401L47.0644 11.7115L48.0558 11.7446L48.0433 12.1204L47.0518 12.0873L46.9798 14.2421L46.588 14.229L46.66 12.0742L45.6126 12.0392L45.6252 11.6634ZM44.9355 10.5037C45.1888 10.7083 45.4022 10.9115 45.5754 11.1174L45.3067 11.3726C45.1531 11.1793 44.9399 10.9721 44.663 10.7547L44.9355 10.5037ZM44.3691 11.6454L45.2926 11.6763L45.2356 13.3793C45.367 13.2797 45.503 13.1641 45.6473 13.0369L45.7343 13.428C45.4704 13.6593 45.1874 13.866 44.8892 14.0441L44.7567 13.6995C44.8265 13.6458 44.8648 13.5791 44.8674 13.4991L44.9166 12.0279L44.3569 12.0092L44.3691 11.6454Z" fill="white"/>
<path d="M49.0817 12.0184L49.0714 12.6024L49.6313 12.6122L49.6416 12.0283L49.0817 12.0184ZM49.6476 11.6884L49.6581 11.0965L49.0981 11.0866L49.0877 11.6785L49.6476 11.6884ZM49.0573 12.9462C49.0198 13.4896 48.9158 13.9398 48.7455 14.2929L48.4622 14.0278C48.6283 13.6827 48.7161 13.2402 48.7296 12.7003L48.7643 10.7366L50.0081 10.7586L49.9529 13.8861C49.9481 14.1581 49.8217 14.2918 49.5778 14.2875L49.2578 14.2819L49.1718 13.9443C49.2835 13.9583 49.3834 13.9681 49.4794 13.9698C49.5633 13.9712 49.6086 13.9 49.6111 13.7601L49.6253 12.9562L49.0573 12.9462ZM50.6041 12.5774L50.5789 14.0052C50.7888 13.8968 50.9674 13.756 51.1183 13.5906C50.8916 13.2906 50.7375 12.9518 50.6561 12.5783L50.6041 12.5774ZM50.5787 14.0172L50.5733 14.3211L50.2174 14.3148L50.28 10.7634L51.9638 10.7931C51.9546 11.313 51.9245 11.6565 51.8735 11.8276C51.8225 11.9948 51.6691 12.0761 51.4131 12.0716L51.0772 12.0656L50.9828 11.7439C51.0468 11.7451 51.1347 11.7506 51.2467 11.7526C51.3307 11.7541 51.3948 11.7472 51.4351 11.7359C51.4753 11.7246 51.5079 11.6892 51.5329 11.6336C51.5581 11.566 51.577 11.3984 51.5898 11.1305L50.6299 11.1136L50.61 12.2414L51.9618 12.2653L51.9562 12.5852C51.8773 12.9759 51.7513 13.3097 51.5785 13.5827C51.7397 13.7416 51.9292 13.885 52.1429 14.0167L51.9493 14.3334C51.7238 14.1934 51.5265 14.0379 51.3614 13.8709C51.1942 14.052 50.9955 14.2005 50.7694 14.3166L50.5787 14.0172ZM50.98 12.584C51.0554 12.8454 51.1712 13.0835 51.3315 13.2983C51.4551 13.0925 51.5513 12.8581 51.6199 12.5953L50.98 12.584Z" fill="white"/>
<path d="M53.491 10.6459L53.8787 10.7043C53.8381 10.8001 53.7935 10.8918 53.745 10.9755L55.457 10.986L55.4551 11.294C55.2134 11.5685 54.92 11.8067 54.5787 12.0046C55.0057 12.1673 55.4811 12.2782 56.0088 12.3294L55.8346 12.6843C55.215 12.6085 54.656 12.4531 54.1614 12.2141C53.6801 12.4271 53.1192 12.5797 52.4866 12.6718L52.3128 12.3147C52.8492 12.25 53.3299 12.141 53.7468 11.9875C53.5555 11.8744 53.3803 11.7453 53.2171 11.6083C53.0804 11.7234 52.9318 11.8305 52.7672 11.9295L52.537 11.6241C53.0067 11.359 53.3247 11.0329 53.491 10.6459ZM54.1599 11.8141C54.4367 11.6798 54.6817 11.5213 54.8988 11.3386L53.4949 11.33C53.4828 11.3419 53.4747 11.3499 53.4707 11.3578C53.6776 11.5311 53.9087 11.6845 54.1599 11.8141ZM53.868 12.4563L54.2439 12.4586C54.2431 12.6026 54.2302 12.7385 54.2094 12.8664L55.5894 12.8748C55.5771 13.5748 55.5146 13.9944 55.4017 14.1297C55.2889 14.265 55.0885 14.3358 54.8085 14.3341C54.6725 14.3333 54.5045 14.3242 54.3126 14.311L54.2187 13.9665C54.4267 13.9757 54.5946 13.9848 54.7225 13.9936C54.9266 13.9908 55.0548 13.9476 55.1073 13.8679C55.1598 13.7842 55.1932 13.5644 55.2073 13.2125L54.1234 13.2059C54.0868 13.3016 54.0462 13.3934 53.9977 13.4771C53.7955 13.8359 53.3257 14.129 52.5843 14.3605L52.3342 14.0509C52.9873 13.8629 53.4167 13.6335 53.6184 13.3588C53.6507 13.307 53.6831 13.2552 53.7074 13.2033L52.5834 13.1964L52.5855 12.8564L53.8255 12.864C53.8502 12.7362 53.8671 12.6003 53.868 12.4563Z" fill="white"/>
<path d="M57.2986 10.6602L57.6747 10.6912L57.624 11.1874L59.98 11.1812L59.981 11.5452L57.589 11.5514L57.5345 12.1156L59.7505 12.1098C59.7534 13.2258 59.6751 13.874 59.5236 14.0504C59.372 14.2188 59.0482 14.3036 58.5482 14.3049C58.4202 14.3053 58.2842 14.2976 58.1442 14.29L58.0433 13.9423C58.2473 13.9617 58.3913 13.9733 58.4713 13.9731C58.8953 13.972 59.1512 13.8994 59.2348 13.7591C59.3224 13.6069 59.3693 13.1788 59.3674 12.4668L57.1114 12.4727L57.2986 10.6602ZM56.6249 13.03L58.8809 13.0241L58.8818 13.3881L56.6258 13.394L56.6249 13.03Z" fill="white"/>
<path d="M64.0912 10.8525L64.1205 14.3284L63.7485 14.3315L63.7466 14.1035L62.5506 14.1135L62.5526 14.3455L62.1926 14.3486L62.1633 10.8687L64.0912 10.8525ZM62.5476 13.7576L63.7436 13.7475L63.7384 13.1355L62.5425 13.1456L62.5476 13.7576ZM62.5395 12.7976L63.7355 12.7875L63.7302 12.1596L62.5343 12.1696L62.5395 12.7976ZM62.5313 11.8216L63.7273 11.8116L63.7223 11.2116L62.5263 11.2216L62.5313 11.8216ZM61.5358 12.362L61.5525 14.3459L61.1805 14.3491L61.1648 12.4811C61.0396 12.8102 60.8862 13.1155 60.7044 13.389L60.5573 13.0143C60.8303 12.652 61.0268 12.2423 61.1509 11.7772L60.6269 11.7816L60.6239 11.4176L61.1559 11.4132L61.1496 10.6652L61.5216 10.6621L61.5278 11.41L62.0118 11.406L62.0149 11.77L61.5309 11.774L61.5324 11.95C61.7099 12.1285 61.8916 12.327 62.0694 12.5415L61.864 12.8513C61.7383 12.6563 61.6289 12.4932 61.5358 12.362Z" fill="white"/>
<path d="M65.8678 10.6237C66.0129 10.8287 66.1534 11.0536 66.2852 11.2982L66.0331 11.4138L66.8606 11.4418C67.0123 11.2188 67.1494 10.9513 67.2719 10.6433L67.6403 10.7558C67.5434 11.0167 67.4235 11.2488 67.2884 11.4563L68.048 11.4821L68.0355 11.8499L66.7322 11.8057L66.728 11.9296C66.7135 12.1212 66.6876 12.2964 66.654 12.4594L68.2451 12.5133L68.2327 12.8811L66.8335 12.8337C67.0129 13.3241 67.4998 13.7208 68.2938 14.0279L68.0578 14.3801C67.2299 14.0078 66.7137 13.534 66.5009 12.9625C66.4226 13.148 66.3289 13.3129 66.2201 13.4533C65.9361 13.8038 65.483 14.0646 64.8608 14.2357L64.6642 13.8968C65.2866 13.7178 65.7109 13.48 65.9411 13.1837C66.021 13.0703 66.0893 12.9445 66.1459 12.8104L64.7786 12.764L64.7911 12.3962L66.2623 12.4461C66.2999 12.2793 66.3299 12.1042 66.3443 11.9166L66.3485 11.7927L65.0412 11.7483L65.0537 11.3806L65.9092 11.4096C65.7851 11.1732 65.6521 10.9646 65.5143 10.7798L65.8678 10.6237Z" fill="white"/>
<path d="M71.0556 11.083C71.0866 11.2193 71.1106 11.3705 71.1356 11.5381L72.499 11.7985L72.4315 12.1521L71.7714 12.026C71.6983 12.1953 71.6103 12.3577 71.5081 12.5092L72.4157 12.6825L72.3467 13.044L69.5571 12.5113L69.4558 13.0417C69.323 13.6517 69.091 14.1205 68.7526 14.4427L68.5138 14.1365C68.7829 13.8784 68.971 13.4908 69.0786 12.9697L69.2489 12.0778L70.0426 12.2294L70.0033 11.6884L69.304 11.5549L69.3715 11.2013L70.7545 11.4654C70.7282 11.3259 70.6925 11.1929 70.6507 11.0709L71.0556 11.083ZM70.4119 12.2999L71.1506 12.4409C71.2528 12.2894 71.3408 12.1271 71.4139 11.9578L70.3687 11.7582L70.4119 12.2999Z" fill="white"/>
<path d="M74.5688 12.0459L74.9296 12.1653L73.9411 15.1499L74.3968 15.3008L75.3852 12.3163L75.746 12.4357L74.7575 15.4203L75.8663 15.7875L75.7493 16.1406L72.3623 15.0189L72.4792 14.6658L73.5804 15.0305L74.5688 12.0459ZM76.2221 13.3772L76.5109 13.5739C76.1503 14.1793 75.7756 14.6872 75.3856 15.1016L75.1005 14.8808C75.4591 14.5107 75.8363 14.0078 76.2221 13.3772ZM73.6198 12.5069C73.6449 13.0798 73.6234 13.7174 73.559 14.4208L73.201 14.3949C73.2693 13.756 73.2934 13.1235 73.2795 12.5037L73.6198 12.5069Z" fill="white"/>
<path d="M78.9733 14.4259L79.4745 14.6476L79.7432 14.0404L80.0687 14.1845L79.8 14.7917L80.3158 15.0199L79.6392 16.5489L79.1234 16.3207L78.8062 17.0376L79.0938 17.0993C79.1187 16.9441 79.1404 16.7962 79.1552 16.6541L79.4595 16.6881C79.4385 17.0025 79.3887 17.3522 79.3064 17.7358L78.9794 17.6742C79.0004 17.5872 79.0161 17.5023 79.0354 17.419C78.6418 17.3498 78.2326 17.2562 77.8117 17.1399L77.8753 16.7788C78.0699 16.843 78.2625 16.902 78.4547 16.9521L78.7979 16.1766L78.2967 15.9548L78.9733 14.4259ZM79.4793 16.1195L79.8904 15.1904L79.649 15.0835L79.2379 16.0126L79.4793 16.1195ZM78.9525 15.8864L79.3637 14.9573L79.1369 14.8569L78.7258 15.786L78.9525 15.8864ZM77.3646 13.1191L79.1276 13.8993L78.9901 14.2102L77.227 13.43L77.3646 13.1191ZM77.35 13.6856L78.7071 14.2862L78.338 15.1202L76.981 14.5196L77.35 13.6856ZM78.1542 14.7151L78.2837 14.4225L77.5375 14.0923L77.408 14.3849L78.1542 14.7151ZM76.7878 15.6283L76.9451 15.6979C76.9595 15.5468 76.967 15.4014 76.9639 15.2601L77.2141 15.2877C77.2188 15.4254 77.2081 15.5781 77.1836 15.7422L76.9744 15.7109L77.2377 15.8274C77.361 15.707 77.4855 15.574 77.6022 15.4288L77.8007 15.6129C77.6937 15.7361 77.5858 15.8415 77.4828 15.9358L77.6474 16.0087L77.5309 16.2721L77.2273 16.1377L76.9472 16.7705L76.6729 16.6491L76.9529 16.0163L76.6713 15.8917L76.7878 15.6283ZM77.3452 16.9685L77.0855 16.8535L77.1373 16.5091L77.3706 16.6342C77.4328 16.6617 77.4771 16.6507 77.4981 16.6031L77.9853 15.5021L76.9355 15.0375L76.2751 16.5299L75.9752 16.3972L76.7618 14.6195L78.4115 15.3495L77.7689 16.8017C77.6815 16.9992 77.539 17.0543 77.3452 16.9685Z" fill="white"/>
<path d="M82.6544 15.444L82.9027 15.5733C83.0874 16.3099 83.3913 16.9733 83.8217 17.5672L83.4726 17.7958C83.3329 17.5877 83.2075 17.3781 83.1001 17.1688L82.9689 17.4207L81.1028 16.4489L81.2376 16.19C80.9937 16.2253 80.7447 16.2445 80.4888 16.251L80.4814 15.8322C81.2685 15.8362 81.9952 15.7051 82.6544 15.444ZM81.3596 16.1723L83.0412 17.048C82.851 16.6513 82.7092 16.2392 82.6196 15.8137C82.2304 15.9809 81.8116 16.101 81.3596 16.1723ZM82.9947 17.9167L82.228 19.3891L81.9016 19.2191L82.0014 19.0275L80.341 18.1629L80.2412 18.3545L79.9149 18.1845L80.6816 16.7122L82.9947 17.9167ZM80.5073 17.8436L82.1676 18.7082L82.5039 18.0625L80.8435 17.1979L80.5073 17.8436Z" fill="white"/>
<path d="M84.4015 17.8374L85.2515 16.9762L85.5508 17.2189L85.0055 17.7607L85.5208 18.0521C85.7327 17.8318 85.9385 17.5898 86.1417 17.3279L86.4558 17.5607C86.2585 17.8121 86.0606 18.0402 85.8655 18.247L87.4602 19.1487L87.2811 19.4656L85.6028 18.5166C85.503 18.6118 85.4037 18.6981 85.3098 18.7829L86.7025 19.5704L86.545 19.849C86.2931 20.0833 85.9768 20.2445 85.5892 20.3286C85.7711 20.6245 86.0146 20.9414 86.3163 21.2774L85.9685 21.4943C85.6338 21.1029 85.3751 20.7314 85.192 20.3889C84.8087 20.4249 84.3725 20.408 83.8835 20.3383L83.8866 19.9265C84.3056 19.998 84.6838 20.028 85.0157 20.0181C84.8918 19.7091 84.8314 19.4176 84.8361 19.1492C84.294 19.5228 83.7449 19.7545 83.1921 19.8463L83.1947 19.4434C83.9154 19.2903 84.6009 18.9151 85.2511 18.3178L84.4015 17.8374ZM85.1788 19.104C85.1775 19.3744 85.2503 19.6683 85.3991 19.9822C85.7188 19.9286 85.9873 19.8277 86.199 19.6809L85.1788 19.104ZM87.0624 17.8531C87.2003 18.17 87.2979 18.4688 87.3572 18.7458L86.9866 18.8487C86.9497 18.5889 86.861 18.2906 86.7156 17.9465L87.0624 17.8531Z" fill="white"/>
<path d="M88.2251 20.2572L88.7027 20.5339L88.8631 20.257L88.2851 19.9221L88.1327 20.1852C88.0124 20.3928 87.8823 20.5855 87.7532 20.7604L88.3658 21.1154L88.5342 20.8246L88.0566 20.5479L88.2251 20.2572ZM87.5392 21.034C87.2548 21.3731 86.949 21.6536 86.6237 21.8719L86.4956 21.4787C86.9663 21.169 87.3999 20.6759 87.8005 19.9926L88.4743 18.8298L91.1219 20.3639L90.6005 21.2638L90.1195 20.985L89.959 21.2619L90.4782 21.5627L90.3097 21.8534L89.7906 21.5526L89.6221 21.8433L90.2589 22.2123L90.0865 22.51L89.7404 22.3094L89.8268 22.623C89.6433 22.6924 89.4635 22.7315 89.2907 22.7423C89.4091 22.945 89.5677 23.134 89.7701 23.3113L89.4338 23.5326C88.9051 23.0089 88.6647 22.4027 88.709 21.7118L88.2798 21.4631L87.8988 22.1207C88.1366 22.1891 88.3541 22.2366 88.5479 22.2611L88.4357 22.5983C88.0993 22.5327 87.7189 22.4233 87.2946 22.2699L87.3711 21.9305C87.499 21.9491 87.593 21.9065 87.6572 21.7958L87.958 21.2766L87.5392 21.034ZM89.0413 21.9043C89.0501 22.0805 89.0828 22.2474 89.1374 22.4085C89.3151 22.4051 89.5004 22.3645 89.6954 22.2834L89.0413 21.9043ZM89.801 20.8005L89.1781 20.4395L89.0176 20.7164L89.6406 21.0774L89.801 20.8005ZM88.6807 21.2979L89.3037 21.6588L89.4722 21.3681L88.8492 21.0071L88.6807 21.2979ZM90.6152 20.4725L88.6321 19.3234L88.4556 19.628L90.4387 20.7771L90.6152 20.4725Z" fill="white"/>
<path d="M92.63 21.8405L91.2529 24.26L90.9365 24.08L91.0394 23.8992L90.4902 23.5866L90.3299 23.8681L90.0135 23.6881L91.4481 21.1678L91.7783 21.3557C91.9478 21.2036 92.1053 21.0401 92.2478 20.8543L92.5524 21.0875C92.4088 21.2589 92.2557 21.4065 92.0947 21.5358L92.63 21.8405ZM90.6643 23.2806L91.2136 23.5933L91.6033 22.9084L91.0541 22.5958L90.6643 23.2806ZM91.2223 22.3003L91.7715 22.613L92.1356 21.9733L91.5864 21.6607L91.2223 22.3003ZM92.7809 23.031C92.8481 23.4466 92.8849 23.7944 92.8839 24.0791L92.5183 24.115C92.5168 23.8104 92.4805 23.4537 92.4182 23.0455L92.7809 23.031ZM94.4218 22.865C93.7392 24.0643 93.3004 24.7949 93.1073 25.0532C92.9301 25.2837 92.692 25.3139 92.3965 25.1457C92.327 25.1061 92.2058 25.0279 92.0379 24.9186L92.1301 24.5706C92.2791 24.6646 92.4072 24.7468 92.5185 24.8101C92.6575 24.8892 92.779 24.8617 92.883 24.7276C93.0028 24.5657 93.3456 23.9876 93.9165 23.0008L93.0439 22.5041C92.8279 22.6573 92.6078 22.7852 92.3768 22.8838L92.327 22.5103C92.7464 22.3072 93.1378 21.9915 93.4943 21.5592L93.7974 21.7869C93.6518 21.9618 93.5002 22.1149 93.3477 22.2536L94.4218 22.865Z" fill="white"/>
<path d="M95.3717 25.9373C94.9232 26.086 94.3402 26.0712 93.6263 25.8947L93.5973 25.5108C94.345 25.6919 94.9098 25.7151 95.2901 25.575L95.3937 25.5263L94.0281 24.7888L94.1992 24.4721L95.7372 25.3027C95.9357 25.1372 96.1124 24.928 96.2671 24.6752L96.499 24.2458L96.8228 24.4207L96.5909 24.85C96.4397 25.1048 96.2736 25.3197 96.0892 25.4928L97.1943 26.0897L97.0232 26.4065L95.7808 25.7354C95.748 25.7541 95.7152 25.7727 95.6859 25.7933C96.069 26.2457 96.3943 26.7123 96.6657 27.1862L96.3268 27.376C96.05 26.8446 95.7304 26.3674 95.3717 25.9373ZM95.0636 24.0752C95.2584 24.3122 95.4206 24.5589 95.5504 24.8154L95.2353 24.9862C95.1065 24.7029 94.9461 24.4527 94.7633 24.2357L95.0636 24.0752ZM95.6747 23.7687C95.8713 24.0022 96.0336 24.249 96.1598 24.5035L95.8447 24.6744C95.714 24.3946 95.5591 24.1427 95.3762 23.9258L95.6747 23.7687ZM98.0275 24.4712L97.6378 25.1927L97.314 25.0178L97.5383 24.6025L95.2436 23.3632L95.0193 23.7785L94.6955 23.6036L95.0852 22.8821L96.405 23.5949C96.4195 23.4755 96.4302 23.3631 96.4336 23.2558L96.8054 23.3839C96.7944 23.5052 96.7742 23.6352 96.7429 23.7774L98.0275 24.4712Z" fill="white"/>
<path d="M98.4254 24.8884L98.9447 25.1467C98.9622 24.9588 98.9708 24.7799 98.9651 24.6118L99.3428 24.7238C99.3306 24.9009 99.3095 25.0959 99.2742 25.3106L99.6968 25.5209L99.5328 25.8504L98.8345 25.5029L98.626 25.9219L99.2599 26.2373C98.7967 27.1684 98.4919 27.7361 98.3546 27.9403C98.2119 28.1374 97.999 28.17 97.7125 28.0274C97.6839 28.0132 97.6373 27.9811 97.5728 27.9401L97.6491 27.5982C97.7082 27.6411 97.7619 27.6767 97.8121 27.7017C97.9374 27.764 98.0429 27.7406 98.1286 27.6313C98.207 27.5184 98.4262 27.1048 98.788 26.3956L98.4657 26.2353C98.0504 27.0161 97.6275 27.5339 97.1969 27.7888L97.0531 27.4402C97.4461 27.1979 97.8387 26.6873 98.2271 25.9156L98.5122 25.3426L98.2615 25.2178L98.4254 24.8884ZM100.109 25.9852C99.8627 26.1842 99.6197 26.3403 99.3784 26.4571L99.2882 26.0816C99.6314 25.9217 99.994 25.6419 100.378 25.2476L100.661 25.4778C100.572 25.5674 100.486 25.6499 100.4 25.7324L101.636 26.3471L101.477 26.6658L100.109 25.9852ZM101.154 27.0009C100.814 27.685 100.589 28.0915 100.489 28.2205C100.386 28.3477 100.216 28.357 99.9794 28.2394L99.9615 28.2305L100.018 27.9012C100.079 27.9315 100.131 27.9618 100.178 27.985C100.217 28.0046 100.26 27.9812 100.301 27.9167C100.338 27.8594 100.454 27.6445 100.639 27.2721L100.319 27.2334L99.7383 28.4009L99.4231 28.2441L99.9487 27.1876L99.6249 27.1471L99.1598 28.0818C99.0814 28.2394 99.0942 28.3485 99.2016 28.4019L99.8785 28.7387C99.9537 28.7761 100.02 28.7867 100.074 28.7687C100.138 28.7471 100.229 28.636 100.348 28.4318L100.596 28.6711C100.41 28.963 100.266 29.1189 100.155 29.1442C100.056 29.1623 99.9347 29.1375 99.7843 29.0626L98.957 28.6511C98.7135 28.5299 98.6719 28.3082 98.8287 27.993L99.2706 27.1049L98.9718 27.0679L99.125 26.7599L99.4238 26.7969L99.6626 26.317L99.9634 26.4667L99.7781 26.8391L100.104 26.876L100.383 26.3138L100.699 26.4706L100.474 26.9218L101.154 27.0009Z" fill="white"/>
<path d="M102.788 27.0209L102.218 26.7667L102.348 26.4745L103.554 27.0122C103.552 26.9371 103.549 26.8656 103.543 26.8014L103.945 26.9108C103.943 26.9933 103.942 27.0847 103.934 27.1817L105.198 27.7456L105.067 28.0378L104.487 27.7787L104.283 27.9506L105.141 28.3336L105.008 28.6331L101.815 27.2089L101.949 26.9093L102.778 27.2792L102.788 27.0209ZM103.14 27.4406L103.921 27.7893L104.125 27.6174L103.15 27.1823L103.14 27.4406ZM102.126 27.5318L104.559 28.6171L104.051 29.7568L101.618 28.6715L102.126 27.5318ZM103.829 29.3422L103.91 29.1596L102.157 28.3774L102.075 28.56L103.829 29.3422ZM102.267 28.129L104.021 28.9112L104.101 28.7322L102.347 27.95L102.267 28.129ZM101.416 28.752L101.721 28.9714C101.508 29.2225 101.28 29.4187 101.036 29.5638L100.82 29.2439C101.054 29.1118 101.249 28.9492 101.416 28.752ZM102.896 30.4505L102.005 30.0529C101.724 29.9274 101.642 29.7376 101.753 29.4892L101.961 29.0217L102.312 29.1781L102.136 29.5726C102.095 29.6639 102.129 29.7359 102.242 29.7864L102.969 30.1107C103.035 30.14 103.089 30.1466 103.126 30.1324C103.177 30.1158 103.245 30.0323 103.331 29.8781L103.613 30.1307C103.469 30.3733 103.348 30.5076 103.245 30.5229C103.156 30.5358 103.039 30.5141 102.896 30.4505ZM102.916 29.2679C102.997 29.4792 103.049 29.6559 103.075 29.8034L102.697 29.8756C102.667 29.7175 102.614 29.5319 102.537 29.3222L102.916 29.2679ZM104.021 29.853C104.116 30.1801 104.177 30.4568 104.204 30.6794L103.826 30.7515C103.801 30.5038 103.747 30.2214 103.662 29.9029L104.021 29.853Z" fill="white"/>
<path d="M108.328 28.9136L107.512 30.9954L107.154 30.8553L107.834 29.1198L106.278 28.5097L105.596 30.2489L105.239 30.1088L106.056 28.0232L108.328 28.9136ZM106.772 28.9482L107.122 29.0854L106.849 29.7818C106.763 29.98 106.669 30.1538 106.564 30.3105L106.881 30.4345L106.536 31.3135C106.482 31.4512 106.503 31.541 106.6 31.5789L107.144 31.792C107.188 31.8095 107.24 31.8084 107.291 31.7895C107.346 31.7683 107.437 31.6236 107.56 31.3538L107.855 31.5984C107.673 31.9436 107.538 32.1354 107.448 32.1776C107.35 32.208 107.236 32.2022 107.107 32.16L106.373 31.8724C106.105 31.7673 106.034 31.5547 106.158 31.2381L106.47 30.4411C106.303 30.6592 106.121 30.8283 105.917 30.9545C105.548 31.171 105.056 31.2532 104.438 31.2085L104.365 30.8361C104.983 30.8808 105.446 30.8085 105.748 30.6178C106.053 30.4106 106.3 30.0865 106.499 29.6446L106.772 28.9482Z" fill="white"/>
<path d="M109.687 29.2306L109.882 31.2646L108.505 32.7747L108.247 32.5369L109.518 31.1431L109.338 29.266L109.687 29.2306ZM110.336 29.447L110.531 31.481L109.154 32.9911L108.896 32.7533L110.166 31.3595L109.972 29.4773L110.336 29.447Z" fill="white"/>
</svg>
