<svg width="122" height="72" viewBox="0 0 122 72" fill="none" xmlns="http://www.w3.org/2000/svg">
<path d="M4.73338 2.85938L4.82365 3.11826L3.47452 3.55863L2.90655 4.85385L2.66493 4.74953L3.28025 3.34603L4.73338 2.85938ZM5.07944 3.23808L5.16161 3.4881L3.82058 3.93733L3.25261 5.23255L3.01099 5.12823L3.6263 3.72473L5.07944 3.23808Z" fill="white"/>
<path d="M5.42934 3.87132L6.91139 5.43441L6.7111 5.62431L5.22905 4.06122L5.42934 3.87132ZM4.63033 4.23203L6.49424 6.19786L6.28743 6.39395L5.30903 5.36205C4.75707 5.52986 4.33448 5.62048 4.03922 5.63172C4.39951 5.96811 4.77503 6.29004 5.15949 6.59524C5.21753 6.40792 5.27373 6.20994 5.32591 6.00337L5.58511 6.07181C5.47905 6.54857 5.36665 6.94453 5.25216 7.2598L4.94826 7.19653C4.98925 7.09152 5.03025 6.98651 5.06711 6.87714C4.59126 6.49736 4.09339 6.06818 3.57142 5.58744L3.73098 5.33279C3.75816 5.34837 3.7812 5.35959 3.79805 5.36429C4.02411 5.40213 4.45483 5.32447 5.09023 5.13129L4.42351 4.42812L4.63033 4.23203Z" fill="white"/>
<path d="M7.29957 5.98404L8.16245 6.85637C8.23487 6.80161 8.30943 6.74474 8.38188 6.68574L8.55879 6.92005C8.49275 6.97272 8.43096 7.02118 8.3692 7.06539L9.18989 7.89507L9.00007 8.08283L8.14773 7.22116C8.07322 7.26955 8.00084 7.31583 7.9306 7.35999L8.71753 8.15554L7.54447 9.3159C7.3909 9.4678 7.24026 9.47334 7.10101 9.33257L6.90059 9.12995L7.04407 8.88254L7.22757 9.07658C7.28031 9.1299 7.3376 9.12809 7.39305 9.07324L8.3315 8.14495L7.04456 6.84392L5.81605 8.05913L5.61984 7.86077L7.03818 6.4578L7.72595 7.15311C7.79833 7.10683 7.87071 7.06055 7.94098 7.01215L7.10974 6.17181L7.29957 5.98404ZM7.43656 7.317C7.40624 7.43138 7.36103 7.55205 7.30092 7.68325L7.4929 7.87734C7.61828 7.83772 7.7437 7.78961 7.86704 7.73512L7.98022 7.98606C7.88033 8.02158 7.78259 8.05075 7.68489 8.07143L7.89164 8.28045L7.71462 8.45555L7.31588 8.05245L7.13672 8.22967L7.59242 8.69036L7.4154 8.86547L6.95969 8.40477L6.58645 8.77398L6.39235 8.57776L6.7656 8.20855L6.31201 7.74999L6.48903 7.57488L6.94262 8.03344L7.12178 7.85623L6.72937 7.45952L6.9064 7.28441L7.10893 7.48916C7.14551 7.3939 7.17361 7.29859 7.19111 7.20111L7.43656 7.317Z" fill="white"/>
<path d="M10.4182 8.73013L10.6188 8.92401L10.0872 9.47411L9.88654 9.28023L10.4182 8.73013ZM8.98629 9.24045C8.87261 9.16814 8.75893 9.09583 8.64733 9.02135L8.74248 8.75452C9.49404 9.28057 10.153 9.60029 10.7171 9.71158C10.7001 9.58669 10.6788 9.45764 10.6532 9.32441L10.9184 9.32624C10.9905 9.69206 11.0301 10.0266 11.0352 10.3235L10.7531 10.3305C10.7576 10.218 10.7556 10.0992 10.7449 9.97206C10.4257 9.91811 10.0887 9.80931 9.72942 9.64572L10.4931 10.3837L9.36107 11.5551L9.16044 11.3612L9.23966 11.2793L8.28831 10.3599L8.20492 10.4462L8.00645 10.2544L8.98629 9.24045ZM8.46343 10.1787L9.41478 11.098L9.55446 10.9535L8.60311 10.0341L8.46343 10.1787ZM8.76155 9.87018L9.7129 10.7896L9.84007 10.658L8.88872 9.73858L8.76155 9.87018ZM9.04508 9.57679L9.99643 10.4962L10.1278 10.3603L9.17642 9.44088L9.04508 9.57679ZM9.96063 8.52579L9.98217 8.79274C9.7027 8.82722 9.4118 8.8131 9.11154 8.74822L9.14091 8.48039C9.42621 8.53916 9.69806 8.55573 9.96063 8.52579Z" fill="white"/>
<path d="M12.7217 10.9232C12.5428 11.1174 12.3858 11.2745 12.2509 11.4032C11.8382 12.108 11.7433 12.8486 11.9618 13.621L11.6541 13.676C11.4906 13.0033 11.5446 12.3515 11.8119 11.7248C11.2435 12.0496 10.5894 12.1486 9.8496 12.0218L9.8944 11.7163C10.8235 11.9033 11.5875 11.6894 12.1886 11.0724C12.3247 10.9246 12.4327 10.8119 12.5099 10.7281L12.7217 10.9232Z" fill="white"/>
<path d="M13.2534 13.646L12.784 14.184C13.0029 14.3073 13.2336 14.4171 13.4742 14.5155L13.3464 14.7623C13.0682 14.6431 12.7333 14.4703 12.348 14.2456L12.469 13.9928C12.5249 14.0018 12.5748 13.9856 12.6143 13.9404L14.0699 12.2722L15.72 13.712L15.1007 14.4218L14.4859 13.8853C14.4101 13.9904 14.3467 14.0904 14.2893 14.1836L15.0081 14.8108L14.8267 15.0188L14.1553 14.433C14.1314 14.4878 14.1095 14.5403 14.0937 14.5903C14.0238 14.8119 13.9955 14.9903 14.007 15.1277C14.0202 15.2587 14.0584 15.3517 14.1197 15.4092C14.1401 15.427 14.1759 15.4224 14.2252 15.3978C14.2766 15.3709 14.371 15.2901 14.5108 15.1572L14.6122 15.4289C14.4129 15.5934 14.2683 15.6862 14.1805 15.7091C14.095 15.7341 14.0219 15.7221 13.9657 15.677C13.8592 15.5801 13.7938 15.4314 13.7673 15.2291C13.7404 15.0226 13.7689 14.7846 13.8504 14.5133C13.8765 14.4286 13.9111 14.3433 13.9519 14.2555L13.2534 13.646ZM14.2734 13.6999L13.6676 13.1713L13.4348 13.4381L14.0836 14.0041C14.1405 13.9024 14.2038 13.8025 14.2734 13.6999ZM15.3303 13.7343L14.1074 12.6672L13.8451 12.9679L15.068 14.0349L15.3303 13.7343Z" fill="white"/>
<path d="M15.8192 14.0037L16.8133 14.8259L16.6355 15.0409L16.3002 14.7636L15.9332 15.2075L16.1759 15.4083L16.0612 15.547C16.439 15.3961 16.8141 15.1497 17.1908 14.8072L17.3848 15.0104C17.2707 15.1107 17.1558 15.2025 17.0424 15.2879L17.7221 15.85L17.5443 16.065L17.3917 15.9388C17.0673 16.2934 16.7236 16.5347 16.3561 16.659C16.3334 16.9595 16.3683 17.2374 16.4583 17.491L16.1805 17.5727C16.0901 17.3149 16.0548 17.0327 16.0775 16.7323C15.7655 16.7895 15.4377 16.7715 15.099 16.6822L15.1141 16.3909C15.4694 16.4979 15.8055 16.5151 16.1141 16.4433C16.1578 16.2069 16.2306 15.9635 16.3303 15.7111C16.2076 15.7654 16.0822 15.8135 15.9578 15.8508L15.9692 15.5876L15.7611 15.4156L15.3213 15.9473C15.4591 16.0067 15.5941 16.06 15.7245 16.1094L15.5563 16.3129C15.1901 16.1813 14.7853 16.0023 14.3401 15.7781L14.4463 15.5273C14.5002 15.5563 14.5537 15.581 14.6076 15.61L15.4794 14.5558L15.6851 14.726L14.8535 15.7316C14.925 15.7675 14.992 15.7995 15.0589 15.8315L16.0876 14.5877L15.6414 14.2187L15.8192 14.0037ZM16.3991 16.3481C16.6795 16.2257 16.938 16.0307 17.1767 15.761L16.8022 15.4512C16.7558 15.4791 16.7117 15.5088 16.6673 15.5343C16.5408 15.819 16.4493 16.0898 16.3991 16.3481Z" fill="white"/>
<path d="M18.6377 16.7296L18.8176 16.9381C18.6863 17.0335 18.5515 17.1187 18.411 17.1918L17.39 18.5033L17.1675 18.3301L17.8881 17.4045C17.7831 17.4368 17.6794 17.4625 17.5752 17.484L17.6869 17.1794C18.039 17.0885 18.3561 16.94 18.6377 16.7296ZM18.5804 17.2477L19.2574 17.7747L19.4988 17.4646L19.719 17.636L19.4776 17.9461L19.7048 18.123L19.5353 18.3408L19.3081 18.1639L18.6244 19.0421C18.4917 19.2126 18.343 19.2375 18.1844 19.1141L17.8648 18.8653L17.9846 18.6088C18.0785 18.6933 18.1719 18.7736 18.2666 18.8473C18.3305 18.897 18.3931 18.885 18.4484 18.814L19.0879 17.9925L18.4109 17.4655L18.5804 17.2477ZM20.1627 17.4567L20.0005 17.6651L18.3056 16.3456L17.8743 16.8995C17.4631 17.4082 17.0483 17.7506 16.6275 17.9249L16.575 17.6407C16.9221 17.4927 17.2817 17.1871 17.6518 16.7263L18.2452 15.964L19.114 16.6404C19.1345 16.5651 19.1509 16.4904 19.1617 16.4228L19.435 16.5747C19.4103 16.6505 19.38 16.7334 19.346 16.821L20.1627 17.4567ZM18.4902 17.7933C18.5022 18.0612 18.4958 18.2843 18.477 18.4598L18.2186 18.445C18.24 18.2563 18.2459 18.029 18.2368 17.7672L18.4902 17.7933Z" fill="white"/>
<path d="M20.3579 18.6727L20.5035 18.901C20.2135 19.1315 19.9486 19.2764 19.7046 19.3364L19.6418 19.0607C19.8773 19.002 20.1149 18.8743 20.3579 18.6727ZM21.4866 18.1767L21.7195 18.3461L21.3913 18.7974L22.158 19.3549C22.0296 19.5212 21.9125 19.6772 21.8018 19.8192L22.0184 19.858C21.9712 20.1576 21.9056 20.4772 21.8176 20.8175L21.5325 20.7659C21.618 20.4646 21.6822 20.1774 21.7263 19.9127C21.586 20.0852 21.4599 20.2383 21.3514 20.3671C21.1365 20.6115 20.9612 20.7659 20.8278 20.8321C20.6978 20.8934 20.5693 20.8815 20.4385 20.8012L20.1546 20.5947L20.2538 20.3257C20.3328 20.3905 20.4087 20.4494 20.4815 20.5023C20.6003 20.5888 20.7404 20.5645 20.8981 20.4344C21.0604 20.2928 21.3476 19.9489 21.7603 19.407L21.2192 19.0135C20.9144 19.3816 20.6171 19.6476 20.3273 19.8115C20.0088 19.9842 19.6519 20.0363 19.2573 19.9719L19.2776 19.6787C19.6654 19.727 19.9958 19.6706 20.2671 19.5118C20.5031 19.3607 20.7428 19.1381 20.9863 18.8441L20.4089 18.4242L20.5712 18.201L21.1584 18.628L21.4866 18.1767Z" fill="white"/>
<path d="M23.6304 19.7289L23.7896 19.9642C23.2609 20.3628 22.7578 20.6012 22.2819 20.6766L22.2055 20.3889C22.6939 20.311 23.1702 20.0907 23.6304 19.7289ZM23.6689 21.678C23.6653 22.0674 23.6293 22.4565 23.5524 22.8468L23.2642 22.7959C23.2834 22.6929 23.3052 22.5916 23.3211 22.4935C22.8456 22.2645 22.333 21.9885 21.7786 21.6622L21.8916 21.4053C22.1065 21.468 22.6102 21.2555 23.4052 20.7694L23.5819 21.0057C23.0984 21.29 22.6571 21.5014 22.263 21.6434C22.6321 21.8581 22.9998 22.0537 23.361 22.2268C23.3904 22.0074 23.4073 21.8012 23.4091 21.6065L23.6689 21.678ZM24.5344 20.3147C24.3663 20.8607 24.353 21.3923 24.5013 21.9103L24.2011 21.9891C24.0506 21.4369 24.0683 20.8721 24.2559 20.2922L24.5344 20.3147Z" fill="white"/>
<path d="M27.743 22.5052L27.5957 22.7386L25.8374 21.6292L25.3652 22.3776C25.0236 22.8964 24.6488 23.2487 24.2432 23.4362L24.1629 23.1585C24.4969 23.0003 24.8178 22.6885 25.1241 22.2255L25.7437 21.2437L27.743 22.5052ZM25.73 22.058L27.3386 23.073L27.1945 23.3013L26.5754 22.9107L25.8742 24.022C25.7541 24.2123 25.6045 24.2526 25.4269 24.1406L25.158 23.9709L25.2462 23.7073C25.3236 23.7703 25.4015 23.8266 25.4777 23.8746C25.5512 23.921 25.6181 23.8994 25.6725 23.8131L26.3369 22.7602L25.5859 22.2863L25.73 22.058Z" fill="white"/>
<path d="M27.9082 23.4538L28.1437 23.5919L27.9298 23.9568L28.1989 24.1146L28.0699 24.3345L27.8008 24.1767L27.6278 24.4718C27.7579 24.5167 27.8844 24.5561 28.0031 24.5909L27.8665 24.8238C27.7452 24.7875 27.6188 24.7481 27.4897 24.7073L27.1665 25.2585L26.931 25.1204L27.2269 24.6158C27.0616 24.5536 26.8886 24.4869 26.7134 24.4121L26.8235 24.1532C27.0116 24.2356 27.1935 24.311 27.3665 24.3777L27.5653 24.0386L27.1512 23.7959L27.2269 23.5481C27.3761 23.4478 27.544 23.3098 27.7295 23.1299L27.5018 22.9964L27.6414 22.7583L27.9312 22.9282C28.0137 22.8409 28.0992 22.7485 28.1851 22.6493L28.3983 22.8196C28.32 22.9058 28.2431 22.9894 28.1693 23.0678L28.6351 23.3409L28.4955 23.579L27.9676 23.2695C27.7953 23.4328 27.6326 23.5739 27.4769 23.6912L27.6943 23.8187L27.9082 23.4538ZM28.7386 23.4016L29.1294 23.6308C29.2123 23.5368 29.2927 23.4413 29.3745 23.3432L29.6015 23.5077C29.5227 23.6005 29.447 23.6883 29.3753 23.7749L29.9757 24.127L29.8361 24.365L29.1865 23.9842C29.1198 24.0564 29.0547 24.126 28.991 24.193L29.7597 24.6437L29.6216 24.8792L28.7934 24.3936C28.7073 24.4752 28.6242 24.5517 28.5483 24.622L29.3557 25.0954L29.2373 25.2972C29.0574 25.4143 28.8376 25.5045 28.5697 25.57C28.6295 25.6816 28.681 25.7953 28.73 25.9074L28.4684 26.0392C28.3233 25.6759 28.1471 25.3535 27.9374 25.0706L28.1832 24.9539C28.2771 25.0785 28.3612 25.2078 28.4372 25.3393C28.6415 25.2991 28.8216 25.2412 28.9746 25.1641L28.1154 24.6603C28.2597 24.5328 28.4034 24.3945 28.5502 24.251L28.2448 24.0719L28.3829 23.8364L28.7478 24.0504C28.8145 23.9782 28.8796 23.9086 28.9432 23.8415L28.599 23.6397L28.7386 23.4016Z" fill="white"/>
<path d="M30.1848 24.9287L30.8097 24.2707L31.0376 24.4484L30.6366 24.8625L31.0272 25.0736C31.1829 24.9053 31.3337 24.7209 31.4823 24.5216L31.7212 24.6916C31.5769 24.883 31.4317 25.0569 31.2885 25.2148L32.4973 25.8679L32.3675 26.1081L31.0953 25.4207C31.0219 25.4935 30.9486 25.5597 30.8795 25.6246L31.9352 26.1951L31.8211 26.4062C31.6355 26.5855 31.4007 26.711 31.1112 26.7796C31.2519 26.9989 31.4391 27.233 31.6702 27.4806L31.4125 27.6483C31.1559 27.3596 30.9565 27.0848 30.8143 26.8306C30.5273 26.8631 30.2 26.8567 29.8323 26.8115L29.8287 26.5026C30.144 26.5502 30.428 26.5673 30.6767 26.5551C30.5793 26.3251 30.5299 26.1075 30.5296 25.9061C30.1285 26.194 29.72 26.3757 29.3068 26.4525L29.303 26.1503C29.8412 26.0252 30.3498 25.7339 30.8288 25.2767L30.1848 24.9287ZM30.7858 25.8673C30.7888 26.07 30.8476 26.2894 30.9637 26.5226C31.2027 26.4778 31.4025 26.3983 31.5592 26.2851L30.7858 25.8673ZM32.1803 24.9021C32.2882 25.1378 32.3657 25.3604 32.4142 25.5673L32.1377 25.6498C32.1063 25.4555 32.0355 25.2331 31.9215 24.9771L32.1803 24.9021Z" fill="white"/>
<path d="M34.2597 25.9784L34.5096 26.1024L34.1695 26.7876L33.9196 26.6636L34.2597 25.9784ZM33.0495 26.8983C32.9193 26.8638 32.789 26.8293 32.6601 26.7921L32.67 26.509C33.5456 26.7828 34.2704 26.888 34.8417 26.8232C34.7877 26.7094 34.7284 26.5928 34.6636 26.4736L34.917 26.395C35.0964 26.7219 35.2355 27.0287 35.3302 27.3102L35.0635 27.4022C35.0336 27.2936 34.9957 27.181 34.9471 27.0631C34.6266 27.1083 34.2724 27.1067 33.8805 27.0595L34.8318 27.5317L34.1075 28.9908L33.8576 28.8668L33.9083 28.7647L32.7232 28.1765L32.6699 28.284L32.4227 28.1613L33.0495 26.8983ZM32.8353 27.9508L34.0203 28.5389L34.1097 28.3589L32.9246 27.7707L32.8353 27.9508ZM33.026 27.5665L34.2111 28.1547L34.2924 27.9907L33.1074 27.4026L33.026 27.5665ZM33.2074 27.201L34.3925 27.7892L34.4765 27.6199L33.2914 27.0317L33.2074 27.201ZM33.7618 25.9221L33.8631 26.17C33.6072 26.2875 33.3257 26.3621 33.0199 26.3912L32.9668 26.1271C33.2565 26.0967 33.5206 26.0302 33.7618 25.9221Z" fill="white"/>
<path d="M35.4805 27.1317L36.5801 27.6342C36.569 27.4708 36.5378 27.3081 36.4877 27.1434L36.7906 27.1663C36.829 27.3422 36.8507 27.5401 36.853 27.7589L37.8871 28.2314L37.7699 28.4879L37.3524 28.2971C37.0319 28.652 36.6799 28.9101 36.2949 29.0739C36.4727 29.4355 36.7389 29.7913 37.0893 30.1361L36.845 30.2883C36.4805 29.9239 36.2083 29.5522 36.0313 29.1744C35.5983 29.3064 35.1267 29.335 34.6167 29.2603L34.5822 28.9675C35.0767 29.0548 35.5219 29.0406 35.9245 28.9244C35.7615 28.4871 35.7135 28.0364 35.7807 27.579L35.3633 27.3882L35.4805 27.1317ZM36.029 27.6924C35.9903 28.0804 36.0412 28.4599 36.1857 28.8294C36.5177 28.6875 36.8188 28.4689 37.085 28.1749L36.029 27.6924Z" fill="white"/>
<path d="M39.3186 28.2886L39.5166 28.5077C39.3277 28.6955 39.1158 28.8606 38.882 29.0004L38.121 30.8251L37.8607 30.7165L38.4935 29.1992C38.3315 29.2681 38.1623 29.3308 37.9872 29.3845L38.0184 29.0758C38.5273 28.9077 38.9613 28.6466 39.3186 28.2886ZM39.576 31.3734L39.0582 31.1575C38.8367 31.0651 38.7722 30.9081 38.8646 30.6866L39.1879 29.9113C39.0663 29.9224 38.9419 29.9323 38.8159 29.9382L38.8008 29.6394C38.978 29.6353 39.1509 29.6261 39.3161 29.604L39.7653 28.5269L40.0284 28.6366L39.6473 29.5503C39.9937 29.4835 40.32 29.3791 40.6208 29.2348L40.7169 29.5186C40.3407 29.6803 39.94 29.7992 39.5145 29.8688L39.1426 30.7603C39.1103 30.8379 39.1356 30.8939 39.2243 30.9309L39.6368 31.103C39.7005 31.1295 39.7568 31.127 39.8046 31.0982C39.8496 31.0682 39.9302 30.9295 40.042 30.6771L40.2521 30.859C40.0999 31.1694 39.9831 31.3482 39.9056 31.3938C39.8252 31.4383 39.7145 31.4311 39.576 31.3734Z" fill="white"/>
<path d="M43.5765 30.1205L43.4781 30.3783L41.5358 29.6368L41.2202 30.4636C40.9875 31.0395 40.6893 31.4587 40.3285 31.7224L40.1952 31.466C40.4915 31.2451 40.7447 30.8762 40.9539 30.362L41.368 29.2773L43.5765 30.1205ZM41.5149 30.0784L43.2918 30.7568L43.1955 31.009L42.5117 30.748L42.043 31.9755C41.9628 32.1857 41.824 32.2548 41.6278 32.1799L41.3307 32.0665L41.3654 31.7907C41.4536 31.8372 41.5411 31.8771 41.6252 31.9092C41.7065 31.9402 41.7678 31.9058 41.8042 31.8105L42.2482 30.6474L41.4186 30.3307L41.5149 30.0784Z" fill="white"/>
<path d="M43.9064 31.0508L44.7279 31.3372L44.7783 31.1927L45.0446 31.2855L44.9942 31.43L45.8044 31.7124L45.7224 31.9475L44.9122 31.6651L44.8372 31.8804L45.9703 32.2754L45.8894 32.5077L45.3653 32.325L45.2883 32.546L45.6905 32.6862L45.6086 32.9213L45.2063 32.7811L45.0711 33.1692C45.0089 33.3477 44.8781 33.4038 44.6855 33.3366L44.286 33.1974L44.3154 32.9217C44.4418 32.9784 44.5606 33.0294 44.6739 33.0689C44.7533 33.0965 44.8048 33.0764 44.8265 33.0141L44.94 32.6883L43.3621 32.1383L43.4441 31.9032L45.022 32.4531L45.099 32.2322L43.354 31.6239L43.4349 31.3917L44.5709 31.7876L44.646 31.5723L43.8244 31.286L43.9064 31.0508ZM43.8619 32.3633C43.956 32.5582 44.0221 32.7241 44.0629 32.8623L43.8029 32.9337C43.7594 32.7851 43.6915 32.6153 43.5964 32.4233L43.8619 32.3633ZM44.1864 30.6941C44.0778 30.7961 43.9637 30.8865 43.844 30.9655L43.663 30.7373C43.8965 30.5962 44.0857 30.4271 44.2355 30.2251L44.4707 30.3707C44.4359 30.4157 44.3983 30.4598 44.3635 30.5049L45.0406 30.7409L44.9626 30.9647L44.5263 30.8126C44.559 30.9193 44.5834 31.0136 44.5974 31.101L44.3221 31.1068C44.3078 30.9747 44.2812 30.8415 44.243 30.7139L44.1864 30.6941ZM45.3395 31.0865C45.2626 31.1614 45.1829 31.2257 45.1025 31.2835L44.9299 31.0676C45.1071 30.942 45.2571 30.7941 45.3753 30.6192L45.6086 30.7609C45.5739 30.806 45.5419 30.8521 45.5081 30.8943L46.2815 31.1639L46.2035 31.3877L45.7474 31.2287C45.783 31.3364 45.8053 31.4363 45.8165 31.5228L45.5536 31.5296C45.5364 31.3966 45.5088 31.2662 45.4726 31.1329L45.3395 31.0865Z" fill="white"/>
<path d="M46.9688 31.8359C46.989 31.9808 46.9952 32.1496 46.9904 32.3432L47.2449 32.424C47.3607 32.2971 47.4735 32.1598 47.5776 32.0102L47.7992 32.175C47.7023 32.3016 47.6071 32.413 47.5108 32.5084L47.8196 32.6064L47.737 32.8666L46.2987 32.4101L46.3813 32.1499L46.7359 32.2624C46.731 32.1192 46.7185 31.9799 46.6948 31.8465L46.9688 31.8359ZM48.2306 31.6982L49.2228 32.0131L49.1575 32.219C48.9763 32.4825 48.7928 32.7233 48.61 32.9422C48.7381 33.2725 48.7787 33.5214 48.729 33.6882C48.6672 33.8826 48.5845 34.0043 48.4866 34.0551C48.3829 34.104 48.2073 34.0923 47.9671 34.016L47.972 33.7029C48.0713 33.747 48.1553 33.7799 48.2268 33.8026C48.2906 33.8197 48.3389 33.8162 48.367 33.7873C48.3932 33.7642 48.4227 33.7011 48.4573 33.602C48.5062 33.4381 48.4599 33.1873 48.3212 32.8506C48.4837 32.6661 48.6569 32.4378 48.8427 32.1694L48.4138 32.0333L47.6887 34.318L47.4256 34.2345L48.2306 31.6982ZM46.6843 31.3836L47.2105 31.5506C47.2082 31.4586 47.2041 31.3723 47.1973 31.2946L47.4892 31.3369C47.4886 31.428 47.4853 31.5277 47.4764 31.635L48.0426 31.8147L47.96 32.0749L46.6017 31.6438L46.6843 31.3836ZM47.5564 33.039L47.2006 34.1599L46.929 34.0737L46.9762 33.925L46.3414 33.7235L46.2942 33.8722L46.0283 33.7878L46.384 32.6669L47.5564 33.039ZM46.4231 33.4662L47.0578 33.6677L47.2031 33.2102L46.5683 33.0087L46.4231 33.4662Z" fill="white"/>
<path d="M51.0895 35.31L50.8531 35.2419L50.8579 34.9654L51.107 35.0435C51.182 35.0651 51.2373 35.0248 51.2664 34.9239L51.8008 33.0704L50.7169 32.7579L50.7901 32.5043L52.1391 32.8932L51.51 35.0753C51.4468 35.2944 51.3057 35.3724 51.0895 35.31ZM49.6682 32.5617L49.9334 32.6382L49.3035 34.8232L49.0383 34.7467L49.6682 32.5617ZM50.2959 32.1932C50.3836 32.3871 50.452 32.5941 50.4996 32.8077L50.2172 32.8667C50.1659 32.6334 50.0984 32.4235 50.0164 32.2312L50.2959 32.1932Z" fill="white"/>
<path d="M53.2093 33.0564C53.2814 33.2305 53.3468 33.4183 53.4025 33.6191L53.199 33.6617L53.7996 33.8197C53.9475 33.6818 54.0923 33.5089 54.233 33.304L54.4838 33.4475C54.3696 33.6222 54.2433 33.772 54.11 33.9014L54.6613 34.0464L54.5911 34.3133L53.6452 34.0645L53.6216 34.1544C53.5791 34.2922 53.5311 34.416 53.4795 34.5296L54.6342 34.8334L54.564 35.1003L53.5485 34.8332C53.5983 35.2216 53.8885 35.5926 54.4182 35.9491L54.1871 36.1675C53.6434 35.7577 53.3446 35.3255 53.2839 34.8721C53.1958 34.9948 53.0999 35.0998 52.997 35.1844C52.731 35.3937 52.3563 35.5091 51.8729 35.5309L51.7854 35.2504C52.2703 35.2228 52.6201 35.1194 52.8377 34.9409C52.915 34.8713 52.9858 34.7906 53.0495 34.7019L52.0572 34.4409L52.1274 34.174L53.1951 34.4548C53.2504 34.3391 53.3014 34.216 53.343 34.0812L53.3667 33.9912L52.418 33.7417L52.4882 33.4747L53.1091 33.6381C53.0576 33.4446 52.995 33.2699 52.9249 33.1119L53.2093 33.0564Z" fill="white"/>
<path d="M55.461 33.7327L57.6696 34.2617L57.6046 34.533L56.6739 34.3101L56.5034 35.0219L57.6383 35.2938L57.5719 35.5709L56.437 35.2991L56.1988 36.294C56.1498 36.4982 56.0167 36.5774 55.8038 36.5264L55.3399 36.4152L55.3458 36.1329C55.4925 36.1773 55.6341 36.2173 55.7683 36.2495C55.8616 36.2718 55.9188 36.2393 55.9384 36.1576L56.1599 35.2327L54.9754 34.949L55.0418 34.6719L56.2263 34.9556L56.3968 34.2437L55.3961 34.004L55.461 33.7327Z" fill="white"/>
<path d="M59.3978 35.9554L59.327 36.2808L59.7813 36.3797L59.8521 36.0543L59.3978 35.9554ZM59.2708 36.5387L59.1917 36.9022L59.646 37.0011L59.7252 36.6376L59.2708 36.5387ZM59.1336 37.1689L59.1049 37.3009L58.8293 37.2409L59.1829 35.6169C59.1057 35.6892 59.0234 35.7572 58.9381 35.8246L58.9081 35.511C59.2073 35.2507 59.4449 34.9494 59.6191 34.6004L59.8773 34.7119C59.8043 34.8495 59.7239 34.9794 59.6359 35.1015L60.0844 35.1991C60.0681 35.0482 60.046 34.896 60.0167 34.7484L60.2988 34.7361C60.3243 34.929 60.342 35.1017 60.3453 35.2559L60.7938 35.3535L60.7357 35.6203L60.2579 35.5163L60.1845 35.8534L60.6037 35.9446L60.5469 36.2055L60.1277 36.1143L60.0569 36.4396L60.476 36.5309L60.4199 36.7889L60.0007 36.6976L59.9216 37.0611L60.4316 37.1721L60.3736 37.4389L59.1336 37.1689ZM59.9823 35.4563L59.528 35.3574L59.4546 35.6945L59.9089 35.7934L59.9823 35.4563ZM58.9228 35.6831L58.8609 35.9675C58.7706 35.9877 58.6779 36.0044 58.5882 36.0217L58.4146 36.819C58.3731 37.0095 58.2524 37.0846 58.056 37.0418L57.7922 36.9844L57.7893 36.7013C57.8659 36.7303 57.9408 36.7527 58.0141 36.7687C58.0903 36.7853 58.1361 36.7584 58.1514 36.688L58.2867 36.0666C58.167 36.0804 58.045 36.0907 57.9266 36.0987L57.9175 35.802C58.0617 35.8027 58.2042 35.7969 58.348 35.7852L58.482 35.1696L58.1302 35.093L58.1889 34.8233L58.5407 34.8999L58.653 34.384L58.9315 34.4446L58.8192 34.9605L59.0918 35.0199L59.0331 35.2896L58.7605 35.2302L58.6488 35.7432C58.7414 35.7265 58.8318 35.7063 58.9228 35.6831Z" fill="white"/>
<path d="M61.0923 35.1036L62.1869 35.3213L62.1336 35.5891L61.0391 35.3713L61.0923 35.1036ZM60.8254 35.8764L62.1348 36.1368L62.0809 36.4075L61.4189 36.2758C61.2328 36.6579 61.0831 36.934 60.9691 37.1071C61.1715 37.1045 61.3803 37.0849 61.5921 37.0505C61.5531 36.8929 61.5124 36.7441 61.4698 36.6041L61.7281 36.5362C61.8142 36.8102 61.8893 37.1096 61.9537 37.4314L61.6879 37.507L61.6488 37.3034C61.3188 37.3479 60.9694 37.3671 60.5975 37.3604L60.5825 37.0822C60.6131 37.0821 60.6325 37.0768 60.6461 37.0703C60.7483 36.9714 60.9145 36.6894 61.1482 36.222L60.7716 36.1471L60.8254 35.8764ZM62.7275 35.2484L63.0041 35.3034L62.8905 35.8742L63.5261 36.0007C63.3353 36.9599 63.2029 37.5484 63.132 37.7667C63.0551 37.9839 62.8828 38.0658 62.6151 38.0126C62.568 38.0032 62.4868 37.9809 62.3702 37.9516L62.3547 37.6916C62.4588 37.7215 62.5489 37.7455 62.6254 37.7608C62.7548 37.7865 62.8425 37.7305 62.8941 37.594C62.9393 37.4592 63.04 36.999 63.2015 36.2175L62.8367 36.1449L62.8314 36.1714C62.654 37.0171 62.3281 37.5946 61.8501 37.9063L61.6781 37.6794C62.1031 37.403 62.3962 36.8832 62.5548 36.1164L62.5601 36.0899L62.1864 36.0156L62.2403 35.7449L62.614 35.8192L62.7275 35.2484Z" fill="white"/>
<path d="M63.8381 35.9522L65.0277 36.1682C64.9766 36.0126 64.9063 35.8626 64.8172 35.7153L65.1163 35.6629C65.1969 35.8239 65.2667 36.0103 65.3228 36.2218L66.4416 36.4249L66.3912 36.7023L65.9396 36.6203C65.7164 37.0433 65.4388 37.3801 65.1061 37.6338C65.3676 37.9404 65.7133 38.2196 66.1378 38.4675L65.9385 38.6752C65.4954 38.4118 65.1401 38.1186 64.8754 37.7962C64.4883 38.0308 64.0383 38.1747 63.5256 38.228L63.4201 37.9527C63.9207 37.9156 64.3487 37.792 64.7103 37.5802C64.4446 37.1966 64.287 36.7716 64.2394 36.3117L63.7877 36.2297L63.8381 35.9522ZM64.508 36.3604C64.566 36.746 64.7089 37.1012 64.94 37.4237C65.2268 37.2044 65.4647 36.9183 65.6503 36.5678L64.508 36.3604Z" fill="white"/>
<path d="M67.7666 36.1319L68.0095 36.2998C67.8687 36.5258 67.7002 36.7351 67.5047 36.9247L67.1819 38.8752L66.9037 38.8292L67.1721 37.2072C67.0301 37.3115 66.8798 37.4113 66.7216 37.5037L66.6813 37.196C67.1382 36.9158 67.5008 36.5622 67.7666 36.1319ZM68.7238 39.0757L68.1704 38.9841C67.9336 38.9449 67.8348 38.8069 67.874 38.5701L68.0111 37.7414C67.8953 37.78 67.7764 37.8181 67.6552 37.8528L67.572 37.5653C67.7435 37.5207 67.9097 37.4722 68.0655 37.4129L68.256 36.2615L68.5372 36.308L68.3756 37.2848C68.6974 37.1404 68.9912 36.964 69.2509 36.7546L69.4095 37.0089C69.0803 37.2524 68.7175 37.4599 68.3192 37.6251L68.1615 38.5782C68.1478 38.661 68.1853 38.7098 68.28 38.7255L68.7211 38.7985C68.7891 38.8097 68.8434 38.7944 68.8833 38.7554C68.9202 38.7159 68.9669 38.5624 69.0179 38.2911L69.2641 38.4201C69.1871 38.757 69.1143 38.9578 69.0493 39.02C68.9813 39.0818 68.8718 39.1001 68.7238 39.0757Z" fill="white"/>
<path d="M70.256 37.0056L71.434 37.2774C71.3904 37.1196 71.3272 36.9664 71.2451 36.8151L71.5464 36.7769C71.6193 36.9415 71.6802 37.131 71.7263 37.3448L72.8342 37.6005L72.7708 37.8752L72.3236 37.7721C72.0807 38.184 71.7875 38.5074 71.4433 38.7451C71.69 39.0637 72.0221 39.3589 72.4345 39.6265L72.2256 39.8246C71.7955 39.5406 71.4543 39.231 71.2052 38.8964C70.8074 39.1125 70.3512 39.2351 69.8365 39.2641L69.744 38.9842C70.2459 38.9706 70.6792 38.8674 71.0505 38.6729C70.8031 38.2772 70.6657 37.8452 70.6398 37.3836L70.1926 37.2804L70.256 37.0056ZM70.9058 37.4449C70.9456 37.8328 71.0716 38.1944 71.2872 38.5274C71.584 38.3219 71.8352 38.0473 72.0371 37.706L70.9058 37.4449Z" fill="white"/>
<path d="M74.7596 37.7772L74.987 37.9382C74.9075 38.0619 74.8295 38.1734 74.7529 38.2726L75.8202 38.6815C75.451 39.6452 75.2094 40.2337 75.0955 40.4471C74.9696 40.6751 74.7666 40.7355 74.4836 40.6271C74.4444 40.6121 74.3765 40.5796 74.2778 40.5354L74.3074 40.2736C74.3938 40.3164 74.4673 40.351 74.5346 40.3767C74.6886 40.4358 74.8094 40.3889 74.8941 40.235C74.9646 40.1014 75.155 39.6378 75.4666 38.8416L75.3405 38.7933C75.105 39.2235 74.8853 39.5537 74.6768 39.7791C74.4342 40.0266 74.14 40.2159 73.7977 40.3546L73.7129 40.0812C74.0221 39.9619 74.2821 39.7949 74.4985 39.5822C74.6927 39.3771 74.8946 39.085 75.0996 38.701L74.9371 38.6387C74.5925 39.1942 74.215 39.5507 73.8016 39.7072L73.707 39.4428C74.0717 39.3127 74.4038 39.0159 74.7018 38.5485L74.5617 38.4949C74.4245 38.635 74.2885 38.7468 74.1531 38.8234L74.0203 38.583C74.2816 38.4293 74.529 38.1611 74.7596 37.7772ZM73.4793 38.2343C73.4053 38.3602 73.3251 38.4772 73.2432 38.5904L73.0354 38.4369C73.2332 38.1722 73.4 37.8795 73.5357 37.5588L73.7646 37.6658C73.7161 37.7757 73.6647 37.8845 73.6116 37.9895L73.7573 38.0453L73.972 37.485L74.2297 37.5838L74.015 38.144L74.2195 38.2224L74.1208 38.4801L73.9163 38.4018L73.6898 38.9929C73.7688 38.9878 73.8451 38.9817 73.9185 38.9745L73.8219 39.2266C73.7457 39.2327 73.6694 39.2389 73.5943 39.2422L73.24 40.1666L72.9823 40.0679L73.2968 39.2471C73.1458 39.2471 72.9942 39.2404 72.8408 39.2298L72.878 38.9484C73.0477 38.9749 73.2207 38.993 73.3924 38.9978L73.6586 38.303L73.4793 38.2343Z" fill="white"/>
<path d="M76.3179 38.9069L76.858 39.1817C76.8417 39.0286 76.8172 38.8849 76.7805 38.7518L77.0435 38.7577C77.084 38.9029 77.1138 39.056 77.1315 39.2198L76.9302 39.2184L77.4703 39.4932C77.6239 39.4031 77.7682 39.2981 77.9059 39.1796L78.107 39.393C77.9856 39.4861 77.8616 39.5644 77.735 39.6279L78.2217 39.8755L77.638 41.0226L76.8118 40.6022L76.7044 40.8134L77.7739 41.3576L77.6514 41.5982L76.5819 41.0541L76.3384 41.5327L76.0871 41.4048L76.3306 40.9262L75.2611 40.382L75.3835 40.1414L76.453 40.6855L76.5605 40.4743L75.7343 40.0539L76.3179 38.9069ZM77.5063 40.6728L77.6315 40.4268L77.0513 40.1316L76.9261 40.3776L77.5063 40.6728ZM76.6748 40.2497L76.7999 40.0037L76.2197 39.7085L76.0946 39.9545L76.6748 40.2497ZM76.3285 39.4946L76.9088 39.7898L77.0312 39.5492L76.451 39.254L76.3285 39.4946ZM77.2825 39.6771L77.1601 39.9177L77.7403 40.2129L77.8628 39.9723L77.2825 39.6771Z" fill="white"/>
<path d="M79.619 40.1318L79.7819 40.3765C79.5985 40.5314 79.402 40.6675 79.1913 40.7809L78.1312 42.5027L77.891 42.3549L78.7325 40.9881C78.5977 41.0355 78.4618 41.0787 78.3241 41.1136L78.4037 40.8069C78.8467 40.6709 79.2517 40.4482 79.619 40.1318ZM79.5446 40.6532L80.2037 41.059C80.2435 40.9143 80.2744 40.7783 80.297 40.6443L80.5776 40.7607C80.5442 40.8951 80.5013 41.0449 80.4464 41.2084L81.0979 41.6095L80.9548 41.8419L79.4015 40.8857L79.5446 40.6532ZM78.5009 42.2512L79.3695 42.786C79.7023 42.5258 80.0701 42.1745 80.4703 41.7304L80.6666 41.9323C80.3055 42.33 79.9554 42.6641 79.6173 42.9385L80.164 43.2751L80.0177 43.5127L78.3546 42.4888L78.5009 42.2512ZM79.6591 41.2627C79.558 41.6443 79.4143 42.0667 79.233 42.5328L78.972 42.4532C79.1399 42.0316 79.2779 41.6128 79.3903 41.1958L79.6591 41.2627Z" fill="white"/>
<path d="M81.4925 41.8986L82.4841 42.5902C82.5025 42.4275 82.501 42.2619 82.4813 42.0908L82.7751 42.1678C82.7813 42.3477 82.7671 42.5463 82.7301 42.7619L83.6627 43.4124L83.5013 43.6437L83.1249 43.3811C82.7459 43.6727 82.3532 43.8633 81.9451 43.9554C82.0551 44.343 82.2532 44.7409 82.536 45.143L82.2682 45.2488C81.9751 44.8249 81.7741 44.4104 81.6678 44.007C81.2181 44.0591 80.7491 44.0026 80.2607 43.8375L80.2794 43.5433C80.7501 43.718 81.1906 43.7839 81.6076 43.7419C81.5257 43.2824 81.5594 42.8304 81.7076 42.3924L81.3312 42.1298L81.4925 41.8986ZM81.9315 42.5486C81.8238 42.9234 81.8057 43.3058 81.8816 43.6952C82.2336 43.6153 82.5691 43.4542 82.8838 43.2129L81.9315 42.5486Z" fill="white"/>
<path d="M85.0029 43.7787L85.1399 44.0402C84.9103 44.175 84.6639 44.2821 84.4026 44.3592L83.2107 45.9365L82.9857 45.7665L83.9768 44.4549C83.8027 44.4813 83.6233 44.4998 83.4402 44.5082L83.5475 44.2169C84.0822 44.181 84.5675 44.0364 85.0029 43.7787ZM84.4831 46.8303L84.0356 46.4921C83.8441 46.3474 83.8207 46.1793 83.9654 45.9878L84.4718 45.3177C84.3512 45.298 84.2283 45.2766 84.1048 45.2509L84.1646 44.9577C84.3373 44.998 84.507 45.0322 84.6725 45.052L85.376 44.1209L85.6034 44.2927L85.0066 45.0826C85.3587 45.1042 85.7008 45.0844 86.028 45.0196L86.0504 45.3185C85.6457 45.3813 85.2281 45.3966 84.7986 45.3578L84.2163 46.1285C84.1656 46.1956 84.1762 46.2562 84.2528 46.3141L84.6094 46.5836C84.6645 46.6251 84.7196 46.6367 84.7731 46.6207C84.8242 46.6029 84.9368 46.4887 85.1079 46.2721L85.2661 46.5007C85.0414 46.7633 84.8837 46.9073 84.7972 46.9322C84.7083 46.9553 84.6028 46.9207 84.4831 46.8303Z" fill="white"/>
<path d="M86.6741 46.617L86.2365 46.2708L85.5275 47.1674C85.4828 47.2238 85.4892 47.2786 85.5527 47.3289L85.9622 47.6527C86.0328 47.7085 86.0924 47.725 86.1367 47.7027C86.1853 47.68 86.2627 47.6111 86.367 47.4986L86.5206 47.7348C86.3399 47.9246 86.2131 48.027 86.1372 48.0359C86.0698 48.0437 85.9772 48.0012 85.8643 47.9118L85.2925 47.4596C85.1442 47.3424 85.1271 47.2141 85.2388 47.0729L86.1227 45.9552L85.9205 45.9788L85.932 45.6934C86.3174 45.6655 86.7138 45.585 87.1193 45.4544L87.284 45.5846C87.3199 45.9649 87.3389 46.3471 87.3363 46.7276L87.0695 46.7651C87.0793 46.3368 87.0759 45.9977 87.053 45.7462C86.7873 45.8306 86.5131 45.8968 86.2257 45.941L87.0493 46.5924L86.5357 47.2418C86.431 47.3694 86.3064 47.3818 86.1578 47.2795C86.066 47.207 85.9808 47.1358 85.9022 47.0659L86.0137 46.8137C86.0933 46.892 86.1649 46.9562 86.2308 47.0083C86.2849 47.0511 86.3355 47.0452 86.3764 46.9935L86.6741 46.617ZM87.8237 46.3289L88.0425 46.502L86.8944 47.9538L86.6755 47.7808L87.8237 46.3289ZM86.6937 48.5945L86.3384 48.3135L86.4559 48.0584C86.5638 48.159 86.6707 48.2512 86.7742 48.3331C86.8307 48.3777 86.8868 48.3648 86.9408 48.2965L88.396 46.4564L88.6196 46.6332L87.1197 48.5298C86.9894 48.6945 86.8466 48.7155 86.6937 48.5945Z" fill="white"/>
<path d="M89.1773 47.5926L88.8136 47.298L88.9646 47.1115L89.734 47.7346C89.7474 47.6798 89.759 47.6274 89.7668 47.5797L90.0371 47.7368C90.0199 47.7962 90.0012 47.8622 89.9765 47.9309L90.7831 48.5842L90.6321 48.7707L90.2614 48.4705L90.0805 48.5556L90.6284 48.9993L90.4736 49.1905L88.4359 47.5404L88.5907 47.3492L89.12 47.7778L89.1773 47.5926ZM89.3508 47.9647L89.8497 48.3687L90.0306 48.2836L89.4081 47.7795L89.3508 47.9647ZM88.5991 47.8346L90.1518 49.092L89.5627 49.8194L88.01 48.562L88.5991 47.8346ZM89.4819 49.476L89.5763 49.3594L88.4572 48.4532L88.3628 48.5697L89.4819 49.476ZM88.5856 48.2946L89.7046 49.2009L89.7972 49.0866L88.6781 48.1804L88.5856 48.2946ZM87.8478 48.5812L88.0264 48.7992C87.8236 48.94 87.6207 49.0381 87.4156 49.0959L87.3207 48.8222C87.5159 48.7718 87.6888 48.6918 87.8478 48.5812ZM88.5917 50.0985L88.0228 49.6378C87.8433 49.4925 87.8208 49.3391 87.9492 49.1806L88.1908 48.8822L88.4147 49.0634L88.2108 49.3152C88.1636 49.3735 88.174 49.4321 88.2463 49.4906L88.7102 49.8664C88.7522 49.9003 88.79 49.9156 88.8196 49.9125C88.8599 49.9104 88.9253 49.863 89.0177 49.7679L89.1728 50.0055C89.0219 50.1536 88.9081 50.2274 88.8304 50.2185C88.7634 50.2106 88.6826 50.1721 88.5917 50.0985ZM88.8348 49.2454C88.8525 49.4141 88.8564 49.5524 88.8468 49.6643L88.5588 49.6434C88.5675 49.523 88.5651 49.3782 88.5497 49.2113L88.8348 49.2454ZM89.5225 49.8834C89.528 50.1388 89.5183 50.3509 89.4953 50.5176L89.2073 50.4967C89.237 50.3123 89.2528 50.0973 89.2524 49.8499L89.5225 49.8834Z" fill="white"/>
<path d="M92.5198 49.7396C92.4918 49.8406 92.4539 49.949 92.4108 50.0686L93.2183 50.7255L93.0479 50.935L92.657 50.6169C92.5485 50.7027 92.4326 50.7786 92.3112 50.8423L92.8488 51.2796L92.6746 51.4937L91.0223 50.1495L90.7667 50.4637C90.4621 50.8191 90.1421 51.0461 89.804 51.1385L89.7553 50.8513C90.0248 50.7767 90.2869 50.5877 90.5433 50.2819L90.9731 49.7537L91.4432 50.1361L91.6097 49.765L91.1955 49.428L91.3659 49.2185L92.185 49.8849C92.2173 49.7835 92.241 49.683 92.2568 49.5875L92.5198 49.7396ZM91.6619 50.3141L92.0994 50.67C92.2208 50.6063 92.3367 50.5304 92.4452 50.4446L91.8261 49.941L91.6619 50.3141Z" fill="white"/>
<path d="M93.9254 51.0595L95.2528 52.128L94.5963 52.9436L93.2689 51.8751L93.9254 51.0595ZM94.5436 52.5546L94.8615 52.1596L93.9782 51.4485L93.6602 51.8435L94.5436 52.5546ZM93.6793 52.4943L92.8328 53.5459L92.6178 53.3729L92.7081 53.2607L92.2758 52.9127L92.1855 53.0249L91.9682 52.8499L92.8147 51.7983L93.6793 52.4943ZM92.4432 52.7047L92.8755 53.0527L93.295 52.5316L92.8627 52.1836L92.4432 52.7047ZM94.7684 53.3709L93.9218 54.4226L93.6998 54.2438L93.7901 54.1317L93.3391 53.7686L93.2488 53.8808L93.0315 53.7058L93.878 52.6542L94.7684 53.3709ZM93.5065 53.5606L93.9575 53.9237L94.377 53.4026L93.926 53.0395L93.5065 53.5606Z" fill="white"/>
<path d="M95.9442 52.7567L97.8024 54.218L97.6318 54.435L97.2545 54.1383L96.8094 54.7042L97.307 55.0955L97.1364 55.3125L96.6388 54.9212L95.8358 55.9422L95.6118 55.766L96.4148 54.745L95.7828 54.248C95.5738 54.4652 95.375 54.6257 95.18 54.7281C94.9346 54.8557 94.6632 54.8903 94.3699 54.8313L94.398 54.5481C94.6738 54.5856 94.9147 54.5461 95.1167 54.4301C95.2579 54.3427 95.4035 54.2207 95.5541 54.0681L95.0353 53.6601L95.2059 53.4431L95.7412 53.8641C95.756 53.8452 95.7732 53.8282 95.7843 53.8141L96.1886 53.3L95.7736 52.9736L95.9442 52.7567ZM96.415 53.478L96.0107 53.9921C95.9959 54.011 95.9806 54.0256 95.9676 54.0421L96.5854 54.528L97.0305 53.9621L96.415 53.478Z" fill="white"/>
<path d="M97.8987 55.3119L98.6172 54.7575L98.8152 54.9681L98.3553 55.3158L98.7089 55.5843C98.8886 55.4419 99.0659 55.2828 99.2433 55.1086L99.4533 55.3133C99.2813 55.4803 99.1113 55.6299 98.9455 55.7639L100.04 56.5948L99.8747 56.8122L98.723 55.9378C98.6393 55.9985 98.5567 56.0526 98.4784 56.1061L99.4341 56.8318L99.289 57.0229C99.0781 57.1717 98.8268 57.2596 98.5303 57.2831C98.6356 57.5213 98.7847 57.7814 98.975 58.0615L98.6947 58.1876C98.4854 57.863 98.3306 57.5609 98.229 57.2879C97.9405 57.276 97.618 57.2194 97.2616 57.1183L97.3054 56.8126C97.6097 56.908 97.8877 56.9684 98.1354 56.9945C98.0744 56.7523 98.0589 56.5296 98.0895 56.3306C97.649 56.5536 97.2175 56.6705 96.7974 56.683L96.8399 56.3838C97.391 56.3427 97.9383 56.1329 98.4817 55.7545L97.8987 55.3119ZM98.3487 56.3316C98.3205 56.5324 98.345 56.7581 98.4239 57.0064C98.6669 56.9989 98.8766 56.9509 99.0487 56.8631L98.3487 56.3316ZM99.8747 55.5918C99.9452 55.8412 99.9876 56.0731 100.004 56.285L99.718 56.3241C99.7167 56.1273 99.6809 55.8966 99.6075 55.6262L99.8747 55.5918Z" fill="white"/>
<path d="M100.528 58.7967C100.18 58.8625 99.748 58.7933 99.2349 58.591L99.2516 58.3027C99.7894 58.5119 100.207 58.5855 100.504 58.5192L100.585 58.4934L99.6439 57.809L99.8026 57.5906L100.863 58.3614C101.027 58.2582 101.179 58.1203 101.32 57.9478L101.535 57.6517L101.758 57.814L101.543 58.1101C101.405 58.2843 101.26 58.4275 101.106 58.5378L101.868 59.0917L101.709 59.3101L100.852 58.6874C100.826 58.698 100.8 58.7086 100.776 58.721C101.016 59.0954 101.211 59.4748 101.365 59.8541L101.095 59.9614C100.942 59.5388 100.752 59.1522 100.528 58.7967ZM100.485 57.3818C100.606 57.5774 100.702 57.777 100.773 57.9806L100.522 58.0761C100.454 57.8527 100.36 57.6507 100.245 57.4712L100.485 57.3818ZM100.97 57.2149C101.092 57.4081 101.188 57.6077 101.257 57.8095L101.006 57.9051C100.936 57.6841 100.846 57.4814 100.732 57.3019L100.97 57.2149ZM102.648 57.9718L102.287 58.4692L102.064 58.3069L102.272 58.0206L100.69 56.8705L100.481 57.1568L100.258 56.9945L100.62 56.4971L101.53 57.1586C101.552 57.0712 101.572 56.9887 101.585 56.9093L101.848 57.0416C101.828 57.1307 101.8 57.2253 101.763 57.3279L102.648 57.9718Z" fill="white"/>
<path d="M102.98 58.3751L103.338 58.6219C103.371 58.4843 103.396 58.3524 103.41 58.227L103.679 58.3501C103.651 58.4803 103.614 58.6229 103.565 58.7786L103.857 58.9795L103.7 59.2067L103.219 58.8747L103.019 59.1637L103.457 59.4651C103.014 60.1073 102.727 60.4965 102.604 60.6336C102.477 60.7648 102.316 60.7664 102.118 60.6302C102.098 60.6166 102.067 60.5878 102.023 60.5505L102.116 60.3048C102.156 60.3429 102.192 60.3751 102.226 60.3989C102.313 60.4585 102.394 60.4522 102.469 60.3802C102.539 60.3047 102.746 60.0208 103.089 59.5326L102.867 59.3794C102.476 59.9151 102.107 60.2548 101.76 60.3984L101.691 60.1243C102.008 59.9861 102.354 59.6486 102.724 59.1167L102.996 58.7215L102.823 58.6023L102.98 58.3751ZM104.114 59.3679C103.91 59.4896 103.713 59.5797 103.521 59.6408L103.494 59.3525C103.766 59.2701 104.065 59.1008 104.391 58.8488L104.577 59.0497C104.501 59.1068 104.429 59.1589 104.357 59.211L105.209 59.7984L105.057 60.0182L104.114 59.3679ZM104.782 60.2328C104.457 60.7046 104.247 60.9826 104.159 61.0678C104.069 61.1513 103.942 61.1402 103.779 61.0278L103.766 61.0193L103.843 60.7809C103.885 60.8098 103.921 60.8378 103.953 60.8599C103.98 60.8787 104.014 60.8659 104.051 60.8224C104.085 60.7838 104.194 60.6365 104.371 60.3796L104.137 60.3169L103.582 61.1222L103.365 60.9724L103.867 60.2437L103.631 60.1793L103.187 60.824C103.112 60.9327 103.11 61.015 103.184 61.0661L103.651 61.3878C103.703 61.4236 103.751 61.4385 103.792 61.4308C103.842 61.4216 103.922 61.3488 104.032 61.2098L104.19 61.4137C104.022 61.6108 103.898 61.7112 103.813 61.7182C103.738 61.7212 103.65 61.6899 103.546 61.6184L102.976 61.2251C102.808 61.1094 102.801 60.9403 102.95 60.723L103.373 60.1104L103.155 60.0512L103.301 59.8388L103.519 59.8979L103.747 59.5669L103.955 59.7099L103.778 59.9668L104.015 60.0288L104.283 59.6409L104.5 59.7908L104.286 60.102L104.782 60.2328Z" fill="white"/>
<path d="M105.892 60.3664L105.5 60.1114L105.63 59.9101L106.461 60.4495C106.468 60.3937 106.474 60.3403 106.477 60.292L106.762 60.4201C106.751 60.481 106.74 60.5486 106.722 60.6195L107.593 61.185L107.462 61.3863L107.062 61.1264L106.891 61.2299L107.482 61.614L107.348 61.8203L105.149 60.3918L105.283 60.1855L105.854 60.5565L105.892 60.3664ZM106.103 60.7183L106.642 61.0681L106.813 60.9646L106.141 60.5282L106.103 60.7183ZM105.342 60.6674L107.018 61.756L106.508 62.5409L104.832 61.4523L105.342 60.6674ZM106.391 62.2077L106.473 62.082L105.266 61.2974L105.184 61.4232L106.391 62.2077ZM105.377 61.1263L106.584 61.9109L106.664 61.7876L105.457 61.0031L105.377 61.1263ZM104.673 61.4883L104.873 61.6865C104.686 61.8476 104.495 61.9664 104.297 62.0453L104.174 61.7829C104.363 61.7125 104.526 61.6149 104.673 61.4883ZM105.571 62.9197L104.957 62.5209C104.764 62.3951 104.725 62.2449 104.836 62.0738L105.046 61.7518L105.287 61.9088L105.111 62.1804C105.07 62.2433 105.086 62.3006 105.164 62.3512L105.665 62.6765C105.71 62.7059 105.749 62.7171 105.778 62.7109C105.818 62.7046 105.878 62.6507 105.96 62.5465L106.139 62.7666C106.005 62.9296 105.899 63.0149 105.821 63.0141C105.754 63.0133 105.669 62.9835 105.571 62.9197ZM105.724 62.0459C105.759 62.2119 105.777 62.349 105.78 62.4613L105.491 62.4705C105.487 62.3499 105.469 62.2062 105.437 62.0418L105.724 62.0459ZM106.474 62.6087C106.507 62.8621 106.519 63.0741 106.514 63.2423L106.225 63.2515C106.235 63.065 106.228 62.8496 106.202 62.6036L106.474 62.6087Z" fill="white"/>
<path d="M109.957 62.5711L109.087 64.0046L108.841 63.8551L109.566 62.6601L108.494 62.0093L107.767 63.2068L107.521 63.0573L108.393 61.6213L109.957 62.5711ZM108.803 62.3968L109.044 62.5431L108.753 63.0227C108.664 63.158 108.572 63.2743 108.475 63.3767L108.693 63.5091L108.325 64.1142C108.268 64.2091 108.271 64.2781 108.338 64.3186L108.713 64.5459C108.743 64.5646 108.782 64.5704 108.821 64.5629C108.865 64.5544 108.951 64.4592 109.077 64.2757L109.263 64.4943C109.084 64.7259 108.959 64.8502 108.888 64.8699C108.812 64.8798 108.728 64.8609 108.638 64.813L108.133 64.5063C107.948 64.3942 107.923 64.2279 108.055 64.0099L108.388 63.4611C108.237 63.6008 108.081 63.7024 107.913 63.7694C107.613 63.882 107.239 63.8795 106.788 63.767L106.782 63.4825C107.233 63.595 107.584 63.6009 107.832 63.4988C108.084 63.3849 108.308 63.1772 108.512 62.8763L108.803 62.3968Z" fill="white"/>
<path d="M111.189 63.729L110.162 65.5467L109.924 65.4123L110.001 65.2765L109.588 65.0432L109.469 65.2548L109.231 65.1204L110.301 63.227L110.55 63.3673C110.676 63.2528 110.794 63.1299 110.901 62.9902L111.129 63.1644C111.022 63.2933 110.908 63.4043 110.787 63.5016L111.189 63.729ZM109.718 64.8134L110.131 65.0467L110.422 64.5322L110.009 64.2989L109.718 64.8134ZM110.135 64.077L110.547 64.3102L110.819 63.8297L110.406 63.5964L110.135 64.077ZM111.305 64.6215C111.356 64.9331 111.385 65.1938 111.385 65.4074L111.111 65.4351C111.109 65.2066 111.081 64.9392 111.033 64.6332L111.305 64.6215ZM112.535 64.4934C112.026 65.3944 111.699 65.9433 111.554 66.1375C111.422 66.3107 111.243 66.3339 111.021 66.2084C110.969 66.1789 110.878 66.1205 110.752 66.0388L110.82 65.7777C110.932 65.8479 111.029 65.9092 111.112 65.9564C111.217 66.0155 111.308 65.9946 111.385 65.8938C111.475 65.772 111.731 65.3377 112.157 64.5964L111.501 64.2258C111.34 64.3412 111.175 64.4376 111.002 64.512L110.964 64.232C111.278 64.0787 111.571 63.8411 111.837 63.5161L112.065 63.6863C111.956 63.8177 111.843 63.9329 111.728 64.0372L112.535 64.4934Z" fill="white"/>
<path d="M113.238 64.3433C113.346 64.5787 113.424 64.7988 113.474 65.0009L113.204 65.0834C113.167 64.8949 113.093 64.6736 112.979 64.418L113.238 64.3433ZM113.524 67.5245C113.378 67.4481 113.219 67.3622 113.051 67.2707C112.879 67.1778 112.746 67.0882 112.649 67.0034C112.559 66.9159 112.499 66.8035 112.467 66.6714C112.453 66.6068 112.432 66.5689 112.4 66.5522C112.344 66.523 112.186 66.5928 111.926 66.7613L111.83 66.4913C112.075 66.3453 112.266 66.2721 112.4 66.2744L112.793 65.5218L112.436 65.3358L112.558 65.1017L113.151 65.4113L112.627 66.4166C112.634 66.4342 112.641 66.4544 112.646 66.4773C112.669 66.581 112.705 66.6675 112.754 66.7368C112.814 66.8157 112.919 66.9007 113.073 66.9879C113.223 67.0697 113.4 67.1654 113.607 67.2736C113.738 67.3417 113.872 67.4084 114.006 67.4751C114.141 67.5419 114.247 67.5907 114.322 67.6229L114.13 67.8409L113.524 67.5245ZM114.17 65.1647L113.657 64.8967L113.766 64.6866L115.227 65.4487L115.134 65.6269C114.91 65.6794 114.687 65.705 114.461 65.7091C114.464 65.7172 114.468 65.7227 114.47 65.7308L115.005 66.0098L114.388 67.1906C114.307 67.3475 114.177 67.3815 114.004 67.2913L113.799 67.1844L113.856 66.9465L114.039 67.0557C114.098 67.0863 114.145 67.0737 114.175 67.0151L114.246 66.8795L113.863 66.6796L113.636 67.1158L113.404 66.995L113.632 66.5589L113.257 66.3631L113.026 66.8046L112.787 66.6797L113.537 65.2435L114.148 65.5628C114.091 65.4585 114.025 65.346 113.946 65.2305L114.17 65.1647ZM114.369 65.5089C114.51 65.5114 114.647 65.5017 114.779 65.4825L114.183 65.1716C114.251 65.2882 114.315 65.3993 114.369 65.5089ZM113.461 65.9722L113.364 66.1584L113.739 66.3541L113.836 66.1679L113.461 65.9722ZM114.067 66.2887L113.97 66.4748L114.353 66.6747L114.45 66.4886L114.067 66.2887ZM114.559 66.2811L114.656 66.0949L114.273 65.8951L114.176 66.0812L114.559 66.2811ZM113.944 65.9605L114.041 65.7743L113.666 65.5786L113.569 65.7647L113.944 65.9605Z" fill="white"/>
<path d="M117.977 67.0054L116.969 69.117L116.72 68.9981L116.793 68.8438L116.32 68.6175L116.245 68.7745L115.996 68.6556L117.005 66.5413L117.977 67.0054ZM116.435 68.3766L116.908 68.6028L117.613 67.1274L117.139 66.9012L116.435 68.3766ZM115.88 66.3993C115.753 66.505 115.623 66.5959 115.493 66.6734L115.337 66.4226C115.631 66.2509 115.886 66.0369 116.099 65.7794L116.328 65.9551C116.252 66.0451 116.174 66.1243 116.097 66.2008L116.836 66.5538L116.719 66.8001L116.351 66.6243C116.265 66.7895 116.182 66.9427 116.097 67.0784L116.52 67.2801L116.402 67.5264L115.944 67.3079C115.905 67.3623 115.863 67.4154 115.826 67.4644C115.911 67.7111 115.99 67.978 116.065 68.2665L115.794 68.4298C115.74 68.1114 115.689 67.8574 115.64 67.6677C115.39 67.8977 115.083 68.0468 114.714 68.1099L114.644 67.824C115.025 67.75 115.331 67.5834 115.565 67.3229C115.6 67.2766 115.64 67.2289 115.676 67.18L115.143 66.9253L115.261 66.6789L115.832 66.9517C115.917 66.816 116 66.6628 116.085 66.4976L115.88 66.3993Z" fill="white"/>
<path d="M118.534 66.9131L118.544 68.4455L117.415 69.4819L117.238 69.2871L118.28 68.3305L118.271 66.9162L118.534 66.9131ZM119.004 67.118L119.014 68.6504L117.885 69.6868L117.708 69.4919L118.75 68.5354L118.73 67.1163L119.004 67.118Z" fill="white"/>
</svg>
