<svg width="80" height="26" viewBox="0 0 80 26" fill="none" xmlns="http://www.w3.org/2000/svg">
<path d="M6.33271 5.45167L6.50912 5.77184L4.83386 6.65167L4.37616 8.48099L4.03527 8.39776L4.53105 6.41553L6.33271 5.45167ZM6.87209 5.87229L7.03588 6.18263L5.37324 7.0723L4.91554 8.90161L4.57465 8.81838L5.07043 6.83616L6.87209 5.87229Z" fill="white"/>
<path d="M7.61004 6.70164L9.98673 8.31402L9.78013 8.61855L7.40344 7.00617L7.61004 6.70164ZM6.67247 7.39966L9.66153 9.42748L9.44819 9.74194L7.87918 8.6775C7.20826 9.05372 6.68378 9.29245 6.30245 9.39143C6.86777 9.72662 7.44881 10.0386 8.0367 10.3263C8.05878 10.0658 8.07542 9.79186 8.08437 9.50791L8.44149 9.52301C8.43955 10.1742 8.40627 10.722 8.34721 11.1653L7.93335 11.1697C7.95674 11.0213 7.98013 10.8728 7.9969 10.7198C7.26869 10.3611 6.49767 9.9444 5.68055 9.46739L5.81562 9.09016C5.85546 9.10269 5.88868 9.11072 5.91197 9.11202C6.21718 9.09674 6.75597 8.87255 7.52831 8.43947L6.45913 7.71412L6.67247 7.39966Z" fill="white"/>
<path d="M10.3235 8.70079L11.7395 9.5202C11.8134 9.42435 11.8894 9.32504 11.9619 9.22372L12.2717 9.46307C12.2052 9.55399 12.1427 9.638 12.0788 9.71654L13.4255 10.4959L13.2472 10.804L11.8485 9.99461C11.7697 10.083 11.6928 10.1679 11.6179 10.2494L12.9093 10.9967L11.8074 12.9008C11.6632 13.1501 11.4713 13.2101 11.2428 13.0778L10.9139 12.8875L11.0117 12.5189L11.3158 12.7041C11.4024 12.7542 11.4754 12.7318 11.5275 12.6418L12.409 11.1185L10.2971 9.89636L9.14315 11.8905L8.82117 11.7042L10.1535 9.40192L11.2821 10.055C11.359 9.97012 11.4358 9.8852 11.5093 9.79828L10.1452 9.00892L10.3235 8.70079ZM10.9673 10.3674C10.9685 10.5252 10.9526 10.6962 10.9213 10.8861L11.2364 11.0684C11.3838 10.9735 11.5282 10.8676 11.6678 10.7542L11.9014 11.0373C11.7854 11.118 11.6699 11.1899 11.5515 11.2507L11.8907 11.4471L11.7245 11.7344L11.0701 11.3558L10.9018 11.6466L11.6496 12.0793L11.4834 12.3667L10.7355 11.9339L10.3849 12.5398L10.0664 12.3555L10.417 11.7496L9.67267 11.3189L9.83896 11.0315L10.5833 11.4623L10.7516 11.1715L10.1076 10.7988L10.2739 10.5115L10.6063 10.7038C10.6199 10.5684 10.6226 10.436 10.611 10.3044L10.9673 10.3674Z" fill="white"/>
<path d="M15.2046 10.9876L15.5399 11.1488L15.0979 12.0681L14.7626 11.9069L15.2046 10.9876ZM13.6066 12.2343C13.4323 12.1904 13.2581 12.1466 13.0856 12.0992L13.0941 11.7216C14.266 12.072 15.2341 12.2001 15.9948 12.1043C15.9209 11.9534 15.8397 11.799 15.7514 11.6411L16.0879 11.5321C16.3325 11.9649 16.5231 12.3716 16.6541 12.7453L16.3 12.8724C16.2585 12.7282 16.206 12.5787 16.1392 12.4223C15.7126 12.4879 15.2404 12.4917 14.7171 12.4354L15.9933 13.0489L15.0521 15.0064L14.7168 14.8452L14.7827 14.7082L13.1929 13.9439L13.1236 14.0881L12.7919 13.9286L13.6066 12.2343ZM13.3385 13.641L14.9283 14.4054L15.0444 14.1639L13.4546 13.3995L13.3385 13.641ZM13.5864 13.1255L15.1761 13.8899L15.2819 13.67L13.6921 12.9056L13.5864 13.1255ZM13.8221 12.6353L15.4119 13.3996L15.5211 13.1725L13.9313 12.4081L13.8221 12.6353ZM14.5398 10.921L14.6791 11.2498C14.3399 11.4107 13.9658 11.5149 13.5585 11.5587L13.4833 11.2075C13.8691 11.1621 14.2201 11.069 14.5398 10.921Z" fill="white"/>
<path d="M18.3611 14.3796L18.1997 14.7932L18.7773 15.0186L18.9387 14.6049L18.3611 14.3796ZM18.0718 15.1211L17.8915 15.5832L18.4691 15.8086L18.6494 15.3465L18.0718 15.1211ZM17.7592 15.9223L17.6938 16.09L17.3435 15.9533L18.149 13.8889C18.0323 13.9679 17.9096 14.0402 17.7832 14.1111L17.8093 13.692C18.2578 13.4118 18.6337 13.0647 18.9361 12.6417L19.2528 12.8426C19.1279 13.0085 18.9948 13.1627 18.8534 13.305L19.4235 13.5275C19.4337 13.3253 19.4364 13.1203 19.4287 12.9198L19.8027 12.9627C19.796 13.222 19.7831 13.4531 19.7552 13.6569L20.3253 13.8793L20.193 14.2184L19.5856 13.9814L19.4184 14.41L19.9513 14.6179L19.8219 14.9495L19.289 14.7416L19.1276 15.1552L19.6605 15.3631L19.5325 15.6911L18.9997 15.4832L18.8194 15.9452L19.4678 16.1982L19.3355 16.5373L17.7592 15.9223ZM19.2353 13.8448L18.6577 13.6194L18.4905 14.0479L19.0681 14.2733L19.2353 13.8448ZM17.7927 13.9216L17.6517 14.2831C17.5284 14.2908 17.4029 14.2934 17.2811 14.2974L16.8856 15.311C16.7911 15.5532 16.6165 15.6267 16.3668 15.5293L16.0314 15.3985L16.0869 15.0251C16.1817 15.0793 16.2757 15.1245 16.3689 15.1609C16.4657 15.1987 16.5316 15.1729 16.5665 15.0834L16.8748 14.2934C16.7143 14.2866 16.5515 14.2746 16.3939 14.2604L16.444 13.8677C16.6337 13.8988 16.8226 13.921 17.0143 13.9357L17.3197 13.1531L16.8725 12.9787L17.0063 12.6358L17.4534 12.8103L17.7093 12.1545L18.0633 12.2926L17.8074 12.9484L18.154 13.0837L18.0202 13.4265L17.6737 13.2913L17.4192 13.9434C17.5447 13.9408 17.668 13.9331 17.7927 13.9216Z" fill="white"/>
<path d="M20.8301 13.6249L22.2511 14.0662L22.1431 14.4139L20.7221 13.9725L20.8301 13.6249ZM20.3684 14.6124L22.0683 15.1404L21.9591 15.4918L21.0996 15.2249C20.7996 15.7055 20.5625 16.0507 20.3873 16.2643C20.656 16.2892 20.9357 16.2922 21.2213 16.2762C21.1915 16.0618 21.1583 15.8588 21.1214 15.6672L21.4733 15.6131C21.5493 15.9886 21.6071 16.3961 21.6477 16.8317L21.2846 16.8949L21.2612 16.6195C20.8174 16.6325 20.3514 16.6092 19.8592 16.5485L19.8781 16.1774C19.9187 16.1816 19.9452 16.1773 19.964 16.1706C20.1134 16.0536 20.3732 15.7029 20.7482 15.1157L20.2592 14.9638L20.3684 14.6124ZM22.9781 14.0449L23.3372 14.1565L23.1071 14.8975L23.9322 15.1538C23.5454 16.3991 23.2878 17.161 23.1633 17.4407C23.0311 17.7179 22.7912 17.8026 22.4436 17.6946C22.3825 17.6756 22.2779 17.6348 22.1274 17.5797L22.1431 17.2327C22.277 17.2869 22.3931 17.3313 22.4924 17.3621C22.6605 17.4143 22.7844 17.3523 22.8719 17.1784C22.9506 17.006 23.1484 16.4098 23.4716 15.3961L22.9979 15.249L22.9872 15.2834C22.6341 16.38 22.1214 17.1003 21.444 17.447L21.2476 17.1221C21.8498 16.8149 22.3109 16.1665 22.6281 15.1718L22.6388 15.1374L22.1537 14.9868L22.2628 14.6353L22.748 14.786L22.9781 14.0449Z" fill="white"/>
<path d="M26.0481 15.5343L24.7452 15.2212L24.8303 14.8673L27.8134 15.5841L27.7283 15.938L26.4215 15.624L25.8533 17.9887L27.4051 18.3616L27.3192 18.7194L23.8382 17.883L23.9242 17.5251L25.4799 17.899L26.0481 15.5343Z" fill="white"/>
<path d="M29.3648 15.635L29.7385 15.7039L29.1684 18.7958L29.6404 18.8829L30.2105 15.791L30.5842 15.8599L30.0141 18.9518L31.1628 19.1635L31.0953 19.5294L27.5865 18.8824L27.6539 18.5166L28.7947 18.7269L29.3648 15.635ZM31.1849 16.7272L31.4979 16.8825C31.2237 17.5315 30.9222 18.0861 30.5926 18.55L30.28 18.3703C30.5844 17.9546 30.8892 17.4048 31.1849 16.7272ZM28.4879 16.2218C28.5913 16.7859 28.6573 17.4203 28.6899 18.126L28.3317 18.1494C28.3119 17.5071 28.249 16.8773 28.1504 16.2653L28.4879 16.2218Z" fill="white"/>
<path d="M32.6944 16.2431C32.9221 16.4679 33.1057 16.6907 33.2541 16.9047L32.9609 17.1312C32.8356 16.9244 32.6486 16.697 32.4032 16.4537L32.6944 16.2431ZM32.0331 17.3035L32.9209 17.4245L32.6924 19.101C32.8293 19.0147 32.9763 18.9136 33.1373 18.7983L33.1864 19.2087C32.8963 19.4114 32.5937 19.5881 32.279 19.7349L32.1828 19.3747C32.2537 19.3278 32.2991 19.2613 32.3105 19.1781L32.5071 17.7354L31.9839 17.6641L32.0331 17.3035ZM33.3837 17.9679L35.306 18.2299L35.259 18.5747C35.096 18.9118 34.8647 19.1871 34.5645 19.4046C34.7955 19.6056 35.0841 19.7983 35.4235 19.9738L35.1771 20.2712C34.8024 20.0587 34.4983 19.8315 34.2558 19.5966C33.9164 19.7764 33.5076 19.9024 33.0374 19.9756L32.8706 19.6299C33.3075 19.5643 33.6813 19.4578 33.9926 19.3064C33.7587 19.0081 33.6119 18.6934 33.5599 18.3634L33.334 18.3326L33.3837 17.9679ZM33.9127 18.4114C33.9709 18.6656 34.0958 18.9047 34.2907 19.1331C34.5312 18.9681 34.7274 18.7728 34.8758 18.5427L33.9127 18.4114ZM33.8697 16.4759L35.2727 16.6671L35.1593 17.4994C35.1474 17.5866 35.1885 17.6407 35.2875 17.6542L35.6363 17.7017L35.5893 18.0465L35.1415 17.9855C34.8601 17.9471 34.7397 17.7935 34.7754 17.5319L34.8521 16.9691L34.1942 16.8794L34.178 16.9983C34.1218 17.4105 33.868 17.7029 33.421 17.8721L33.2108 17.5487C33.5642 17.4435 33.7633 17.2567 33.8 16.9872L33.8697 16.4759Z" fill="white"/>
<path d="M37.3352 17.9365L38.3789 18.0315L38.4852 16.8643L38.8756 16.8999L38.7693 18.067L39.7572 18.157L39.7231 18.5314L38.7352 18.4415L38.5397 20.5886L38.1494 20.5531L38.3448 18.4059L37.3012 18.3109L37.3352 17.9365ZM36.7132 16.7391C36.9544 16.9579 37.1557 17.173 37.3169 17.3885L37.034 17.6279C36.8917 17.4261 36.6907 17.207 36.4268 16.9741L36.7132 16.7391ZM36.0822 17.8465L37.0024 17.9303L36.8479 19.6272C36.9848 19.5353 37.1272 19.4277 37.2786 19.309L37.343 19.7044C37.0663 19.9202 36.7718 20.1103 36.464 20.2711L36.3514 19.9194C36.4242 19.8698 36.4662 19.8054 36.4735 19.7257L36.6069 18.2598L36.0492 18.209L36.0822 17.8465Z" fill="white"/>
<path d="M43.3219 17.6246L43.2662 20.6921L42.8983 20.6854L42.9028 20.4335L42.2709 20.422L42.2664 20.674L41.9024 20.6674L41.9581 17.5999L43.3219 17.6246ZM42.2775 20.0581L42.9094 20.0696L42.9474 17.9819L42.3155 17.9704L42.2775 20.0581ZM40.4804 17.0209L40.8563 17.0278L40.8422 17.8036L41.6461 17.8182C41.6224 19.122 41.5878 19.9255 41.5423 20.2328C41.4967 20.536 41.294 20.6843 40.9421 20.6779C40.8781 20.6768 40.7742 20.6669 40.6305 20.6523L40.5408 20.3026C40.6766 20.317 40.7924 20.3272 40.8884 20.3289C41.0564 20.3319 41.1581 20.2378 41.1894 20.0543C41.2168 19.8668 41.2402 19.2431 41.2675 18.1794L40.8356 18.1716C40.7904 19.335 40.515 20.1821 40.0052 20.7169L39.7258 20.4598C40.1785 19.9879 40.4245 19.2203 40.4596 18.1648L39.8517 18.1537L39.8584 17.7858L40.4663 17.7968L40.4804 17.0209Z" fill="white"/>
<path d="M45.235 17.5581L45.9138 17.5176L45.8798 16.9466L46.2471 16.9247L46.2812 17.4957L47.1317 17.4449L47.2031 18.6428L47.4747 18.6266L47.4968 18.9979L46.4906 19.058C46.76 19.5428 47.1516 19.9282 47.6733 20.2096L47.4356 20.5243C46.9111 20.195 46.5051 19.7704 46.2258 19.2541C46.0739 19.8642 45.753 20.3282 45.2595 20.6541L45.0093 20.3565C45.4735 20.0764 45.7688 19.654 45.8957 19.0935L45.169 19.1368L45.1468 18.7655L45.9494 18.7176C45.9633 18.5485 45.9648 18.3721 45.9539 18.1884L45.935 17.873L45.2563 17.9135L45.235 17.5581ZM46.3024 17.851L46.3162 18.0826C46.3291 18.2983 46.3253 18.5028 46.3127 18.6959L46.8358 18.6647L46.7855 17.8222L46.3024 17.851ZM43.9216 17.8408L44.2142 17.8434C44.2301 18.2432 44.209 18.6291 44.1546 18.993L43.8419 18.9235C43.9055 18.5791 43.932 18.2169 43.9216 17.8408ZM44.9937 17.6767C45.1167 17.9258 45.2302 18.2156 45.3338 18.542L45.0309 18.6362C44.9491 18.3405 44.8441 18.0583 44.7197 17.7852L44.9937 17.6767ZM44.2948 17.0452L44.6662 17.023L44.8844 20.6805L44.5131 20.7027L44.2948 17.0452Z" fill="white"/>
<path d="M48.0267 18.0703L48.182 16.8703L48.5671 16.8824L48.461 17.6437L49.0476 17.5637C49.0829 17.2601 49.1002 16.9429 49.1034 16.6114L49.4943 16.6065C49.4895 16.9261 49.47 17.2275 49.44 17.5102L51.2552 17.2626L51.3044 17.6233L49.394 17.8838C49.3722 18.02 49.3454 18.1488 49.322 18.2731L50.9073 18.0569L50.9506 18.374C50.8918 18.713 50.7376 19.0328 50.48 19.3344C50.8039 19.4597 51.1897 19.5646 51.6332 19.6494L51.4876 20.0326C50.9843 19.9236 50.5535 19.7846 50.2004 19.6228C49.9171 19.8835 49.5597 20.1341 49.1282 20.3746L48.8814 20.0449C49.2583 19.8482 49.5775 19.6432 49.8356 19.4344C49.5499 19.2634 49.3254 19.068 49.1667 18.8514C48.9614 19.4769 48.6645 19.9938 48.2801 20.4015L48.0383 20.0792C48.5193 19.5211 48.8378 18.8075 48.9937 17.9384L48.0267 18.0703ZM49.4121 18.608C49.5748 18.824 49.8106 19.0139 50.119 19.1737C50.3411 18.9375 50.4937 18.6946 50.5733 18.4496L49.4121 18.608ZM50.1542 16.4721C50.4558 16.6409 50.7143 16.8196 50.9293 17.0043L50.6965 17.3105C50.5099 17.1261 50.2587 16.9423 49.9346 16.7564L50.1542 16.4721Z" fill="white"/>
<path d="M52.5403 17.5948L53.0805 17.481L53.0145 17.1679L52.3609 17.3055L52.4235 17.603C52.473 17.8379 52.5051 18.0682 52.5261 18.2845L53.2189 18.1386L53.1497 17.8098L52.6095 17.9236L52.5403 17.5948ZM52.55 18.631C52.5655 19.0733 52.5258 19.4864 52.43 19.8662L52.0717 19.6596C52.2145 19.1145 52.207 18.458 52.0477 17.6821L51.7708 16.367L54.7651 15.7364L54.9794 16.7541L54.4354 16.8687L54.5013 17.1818L55.0884 17.0582L55.1577 17.387L54.5705 17.5106L54.6398 17.8394L55.36 17.6877L55.4309 18.0244L55.0394 18.1068L55.3135 18.2821C55.2234 18.4564 55.1159 18.6057 54.9948 18.7294C55.2183 18.8008 55.4626 18.8352 55.7317 18.8317L55.6297 19.2211C54.8864 19.1855 54.3022 18.8956 53.873 18.3524L53.3877 18.4546L53.5443 19.1983C53.7668 19.0901 53.9602 18.9799 54.1207 18.8685L54.2628 19.1941C53.9689 19.3705 53.6129 19.5436 53.1949 19.7133L53.0247 19.4099C53.1323 19.3382 53.1737 19.2436 53.1473 19.1184L53.0237 18.5313L52.55 18.631ZM54.2488 18.2733C54.3732 18.3983 54.5092 18.5005 54.6575 18.5837C54.7873 18.4624 54.8979 18.3083 54.9886 18.1175L54.2488 18.2733ZM54.0753 16.9445L53.3707 17.0929L53.4367 17.406L54.1412 17.2577L54.0753 16.9445ZM53.5751 18.0636L54.2797 17.9152L54.2104 17.5864L53.5059 17.7348L53.5751 18.0636ZM54.4611 16.1561L52.2183 16.6284L52.2908 16.9728L54.5336 16.5005L54.4611 16.1561Z" fill="white"/>
<path d="M56.8439 15.7272L57.5966 18.4076L57.2461 18.506L57.1899 18.3057L56.5814 18.4766L56.669 18.7885L56.3186 18.8869L55.5346 16.0949L55.9004 15.9922C55.9113 15.7647 55.9058 15.5378 55.8739 15.3058L56.2538 15.2531C56.2747 15.4757 56.2721 15.6884 56.2509 15.8938L56.8439 15.7272ZM56.4863 18.1377L57.0947 17.9668L56.8817 17.2082L56.2732 17.379L56.4863 18.1377ZM56.1813 17.0517L56.7898 16.8808L56.5908 16.1722L55.9823 16.3431L56.1813 17.0517ZM57.7966 16.4568C58.1395 16.7013 58.4127 16.9195 58.6145 17.1204L58.383 17.4057C58.1653 17.1926 57.8861 16.9677 57.552 16.725L57.7966 16.4568ZM58.8322 15.1731C59.2052 16.5017 59.4163 17.3274 59.4643 17.6463C59.5036 17.9344 59.3577 18.1249 59.0304 18.2168C58.9534 18.2385 58.8126 18.2697 58.6168 18.3122L58.4341 18.002C58.6057 17.9622 58.7542 17.9288 58.8775 17.8942C59.0315 17.8509 59.0974 17.7452 59.0751 17.5769C59.0441 17.3779 58.874 16.7277 58.5735 15.628L57.6069 15.8994C57.5639 16.1607 57.5002 16.4071 57.4079 16.6408L57.1073 16.4136C57.2576 15.9725 57.3083 15.4722 57.2515 14.9148L57.6264 14.8594C57.6485 15.0858 57.6508 15.3012 57.6422 15.5072L58.8322 15.1731Z" fill="white"/>
<path d="M61.6197 16.5947C61.4251 17.0254 61.0192 17.4441 60.4058 17.8497L60.1037 17.6109C60.7435 17.1836 61.1433 16.7839 61.2979 16.4093L61.3323 16.3002L59.8646 16.8049L59.7475 16.4644L61.4005 15.896C61.4133 15.6378 61.3791 15.3662 61.298 15.0811L61.1393 14.6196L61.4873 14.4999L61.646 14.9614C61.7309 15.2452 61.7764 15.513 61.7788 15.766L62.9665 15.3575L63.0836 15.698L61.7483 16.1571C61.7398 16.1939 61.7313 16.2306 61.7266 16.2661C62.3188 16.2909 62.8825 16.3678 63.4149 16.4892L63.3249 16.867C62.7466 16.7106 62.179 16.6223 61.6197 16.5947ZM60.0413 15.5597C60.3476 15.5771 60.639 15.6249 60.9155 15.7033L60.8277 16.0507C60.5321 15.9536 60.2394 15.9019 59.9559 15.8894L60.0413 15.5597ZM60.2299 14.9027C60.5349 14.9163 60.8263 14.9641 61.099 15.0438L61.0112 15.3912C60.7169 15.2978 60.4267 15.2411 60.1432 15.2286L60.2299 14.9027ZM62.3407 13.6481L62.6073 14.4236L62.2593 14.5432L62.1058 14.0969L59.6396 14.945L59.7931 15.3913L59.4451 15.511L59.1784 14.7355L60.5969 14.2478C60.5189 14.1562 60.4434 14.0721 60.3668 13.9969L60.7129 13.8103C60.7947 13.9006 60.8767 14.0035 60.96 14.1229L62.3407 13.6481Z" fill="white"/>
<path d="M62.7374 13.6957L63.2761 13.4806C63.1476 13.3424 63.02 13.2168 62.8908 13.109L63.2259 12.902C63.3499 13.0291 63.4813 13.1747 63.6178 13.3442L64.0562 13.1691L64.1926 13.5109L63.4682 13.8001L63.6418 14.2348L64.2993 13.9723C64.6849 14.9381 64.9051 15.5436 64.9659 15.7821C65.0177 16.0198 64.9003 16.2002 64.6031 16.3189C64.5734 16.3308 64.5184 16.3441 64.4448 16.3648L64.2407 16.0802C64.3121 16.0647 64.3745 16.0484 64.4265 16.0276C64.5565 15.9757 64.6093 15.8814 64.5849 15.7447C64.553 15.611 64.3906 15.1719 64.1029 14.4297L63.7686 14.5632C64.0741 15.393 64.1784 16.0534 64.0815 16.5444L63.7258 16.4193C63.807 15.9648 63.6879 15.3319 63.3712 14.528L63.1339 13.9336L62.8739 14.0374L62.7374 13.6957ZM64.6771 13.171C64.6613 13.4874 64.6158 13.7726 64.5421 14.0303L64.2021 13.8474C64.3115 13.485 64.3445 13.0282 64.3062 12.4793L64.6665 12.4216C64.6738 12.5478 64.6782 12.6667 64.6826 12.7855L65.9642 12.2738L66.0962 12.6045L64.6771 13.171ZM66.1308 13.0687C66.4141 13.7783 66.5676 14.2166 66.5972 14.3771C66.6231 14.539 66.5168 14.6719 66.2716 14.7698L66.253 14.7772L66.0452 14.5156C66.1084 14.4904 66.1656 14.4719 66.2139 14.4526C66.2547 14.4363 66.2659 14.3887 66.2452 14.3152C66.2274 14.2491 66.1443 14.0195 65.9901 13.6331L65.7478 13.8462L66.2313 15.0572L65.9044 15.1877L65.4669 14.0918L65.2209 14.3064L65.608 15.2759C65.6732 15.4394 65.7631 15.5026 65.8745 15.4581L66.5766 15.1778C66.6546 15.1466 66.7067 15.1043 66.729 15.0523C66.7558 14.99 66.7336 14.8481 66.6609 14.623L67.0041 14.5979C67.0982 14.9307 67.1181 15.1425 67.0631 15.242C67.0111 15.3273 66.9115 15.4016 66.7555 15.4638L65.8973 15.8065C65.6447 15.9073 65.4517 15.7906 65.3211 15.4637L64.9533 14.5424L64.7266 14.7406L64.5991 14.4211L64.8258 14.2229L64.627 13.7251L64.9391 13.6005L65.0933 13.9869L65.3378 13.7687L65.105 13.1854L65.4319 13.0549L65.6188 13.523L66.1308 13.0687Z" fill="white"/>
<path d="M67.2554 11.852L66.686 12.1072L66.5551 11.8152L67.7596 11.2752C67.7026 11.2263 67.6472 11.181 67.5951 11.143L67.9448 10.916C68.0051 10.9723 68.0723 11.0342 68.1392 11.1051L69.4021 10.5389L69.533 10.8309L68.9526 11.0911L68.945 11.3575L69.8027 10.973L69.9369 11.2723L66.7468 12.7024L66.6126 12.4031L67.4411 12.0317L67.2554 11.852ZM67.8025 11.8697L68.5836 11.5195L68.5913 11.2531L67.6167 11.69L67.8025 11.8697ZM67.1951 12.6856L69.626 11.5958L70.1365 12.7346L67.7056 13.8244L67.1951 12.6856ZM69.6793 12.624L69.5974 12.4415L67.8454 13.2269L67.9273 13.4094L69.6793 12.624ZM67.7342 12.9787L69.4862 12.1933L69.406 12.0144L67.654 12.7998L67.7342 12.9787ZM67.6307 14.0289L67.9976 13.9477C68.0429 14.2737 68.0374 14.5742 67.9826 14.853L67.5999 14.8011C67.6575 14.5385 67.6665 14.2846 67.6307 14.0289ZM69.8837 14.0578L68.9931 14.4571C68.712 14.583 68.5161 14.5175 68.4048 14.2693L68.1953 13.8021L68.5457 13.645L68.7225 14.0392C68.7634 14.1304 68.8394 14.1533 68.9525 14.1026L69.6789 13.777C69.7446 13.7476 69.7855 13.7117 69.7996 13.6747C69.8214 13.6255 69.8044 13.5191 69.747 13.352L70.1229 13.3106C70.2083 13.5791 70.2275 13.759 70.1701 13.8461C70.1204 13.921 70.026 13.994 69.8837 14.0578ZM69.0152 13.2548C69.2267 13.3354 69.3934 13.414 69.5208 13.4928L69.3225 13.8228C69.1845 13.74 69.0108 13.6557 68.803 13.5735L69.0152 13.2548ZM70.1884 12.8209C70.4955 12.9682 70.7421 13.1075 70.9264 13.2353L70.7281 13.5653C70.5266 13.4189 70.2804 13.2707 69.9859 13.1221L70.1884 12.8209Z" fill="white"/>
<path d="M72.4352 8.99045L73.4158 11L73.0707 11.1684L72.2532 9.49317L70.7506 10.2264L71.5698 11.9052L71.2246 12.0736L70.2423 10.0605L72.4352 8.99045ZM71.4078 10.1594L71.7457 9.99452L72.0737 10.6668C72.1612 10.8644 72.2256 11.0511 72.2704 11.234L72.5759 11.0849L72.9899 11.9333C73.0548 12.0663 73.1349 12.1118 73.2283 12.0662L73.7532 11.8101C73.7963 11.789 73.8307 11.75 73.8508 11.7001C73.8728 11.6448 73.8279 11.4798 73.7125 11.2068L74.0923 11.155C74.2229 11.523 74.2725 11.7525 74.243 11.847C74.1992 11.9396 74.1179 12.0193 73.9992 12.0862L73.291 12.4317C73.0321 12.558 72.8273 12.4666 72.6782 12.161L72.3028 11.3917C72.3503 11.6623 72.3515 11.911 72.3062 12.1467C72.2163 12.5644 71.9439 12.9822 71.4926 13.4072L71.1689 13.209C71.6203 12.7841 71.8799 12.3948 71.9441 12.043C71.9977 11.6786 71.9265 11.2772 71.7358 10.8317L71.4078 10.1594Z" fill="white"/>
<path d="M73.6104 8.20408L75.2082 9.47769L75.3376 11.5169L74.9873 11.5371L74.8677 9.65521L73.3932 8.47971L73.6104 8.20408ZM74.2169 7.88787L75.8147 9.16147L75.9441 11.2007L75.5938 11.2209L75.4742 9.339L73.9856 8.17089L74.2169 7.88787Z" fill="white"/>
</svg>
