<svg width="83" height="38" viewBox="0 0 83 38" fill="none" xmlns="http://www.w3.org/2000/svg">
<path d="M5.90899 31.6109L6.30065 31.5877L6.38077 33.4656L7.83158 34.6504L7.59501 34.9449L6.01311 33.6516L5.90899 31.6109ZM6.53009 31.2968L6.90747 31.2808L7.00187 33.1515L8.45268 34.3363L8.2161 34.6308L6.63421 33.3375L6.53009 31.2968Z" fill="white"/>
<path d="M7.99436 31.0385L8.40843 30.8204L9.73939 33.3473L9.32532 33.5654L7.99436 31.0385Z" fill="white"/>
<path d="M9.29585 30.3526L10.2149 29.8574C10.6234 29.6372 10.9904 29.5848 11.3232 29.6963C11.6377 29.7995 11.9049 30.0508 12.1213 30.4522C12.3357 30.8501 12.3986 31.2115 12.3137 31.5344C12.2238 31.8737 11.9782 32.1514 11.5697 32.3715L10.6507 32.8668L9.29585 30.3526ZM9.8976 30.4827L10.8729 32.2927L11.3025 32.0612C11.6159 31.8923 11.805 31.695 11.8715 31.4728C11.9327 31.249 11.8798 30.9822 11.7128 30.6723C11.542 30.3554 11.3463 30.161 11.1296 30.096C10.9074 30.0294 10.6406 30.0823 10.3272 30.2512L9.8976 30.4827Z" fill="white"/>
<path d="M12.8227 28.44L13.289 28.184L15.6207 30.1621L15.1824 30.4027L14.6099 29.9002L13.5615 30.4757L13.6781 31.2285L13.2398 31.4691L12.8227 28.44ZM13.4994 30.0717L14.3024 29.6309L13.3072 28.749L13.2931 28.7567L13.4994 30.0717Z" fill="white"/>
<path d="M14.6337 27.9884L15.0465 27.7596L14.6315 27.0109L15.0023 26.8054L15.4173 27.554L16.0121 27.2244L15.5777 26.4407L15.938 26.241L16.3724 27.0246L16.9706 26.693L16.5363 25.9093L16.8966 25.7096L17.331 26.4933L17.8208 26.2218L18.0166 26.5751L17.5269 26.8466L18.1377 27.9486L16.8188 28.6797L16.2079 27.5777L15.6132 27.9074L16.4975 29.5027L18.782 28.2364L18.9875 28.6072L16.3322 30.0791L15.2423 28.1129L14.8295 28.3418L14.6337 27.9884ZM16.5683 27.378L16.9813 28.1231L17.5796 27.7915L17.1665 27.0464L16.5683 27.378Z" fill="white"/>
<path d="M18.2721 25.078L20.7568 23.7026L21.5704 25.1724L20.9685 25.5056C21.3145 25.6021 21.7458 25.5965 22.2569 25.4874L22.2776 25.8965C21.9127 25.9476 21.5891 25.9576 21.3047 25.923L21.9731 27.1303L21.6056 27.3337L20.8598 25.9864L21.0487 25.8818C20.8716 25.8427 20.712 25.7939 20.5731 25.7245L20.0691 26.0035C20.0401 26.1658 19.9952 26.3324 19.9304 26.4963L20.1929 26.351C20.3498 26.6345 20.4415 26.8992 20.4679 27.1451C20.5094 27.4514 20.3877 27.7931 20.1027 28.1703L19.6985 28.01C19.9332 27.7154 20.0475 27.451 20.0412 27.2168C20.0341 27.047 19.9777 26.8542 19.8684 26.6403C19.7387 26.9179 19.5572 27.2013 19.324 27.4903L18.9517 27.2804C19.3191 26.9033 19.5551 26.5532 19.6667 26.2262L19.0857 26.5478L18.2721 25.078ZM21.0426 25.0531L20.8915 24.7801L20.1741 25.1773L20.3252 25.4502L21.0426 25.0531ZM19.9683 25.6478L19.8172 25.3749L19.1137 25.7642L19.2648 26.0372L19.9683 25.6478ZM18.9471 25.4633L19.6505 25.0739L19.5072 24.8149L18.8038 25.2043L18.9471 25.4633ZM19.8641 24.6173L20.0075 24.8763L20.7249 24.4792L20.5816 24.2202L19.8641 24.6173Z" fill="white"/>
<path d="M21.6415 23.1321C21.9582 23.1778 22.2398 23.2426 22.4863 23.3267L22.3753 23.7156C22.1501 23.629 21.8647 23.5571 21.5227 23.5069L21.6415 23.1321ZM21.7195 24.384L22.5303 23.9409L23.3264 25.3975C23.3783 25.2506 23.4334 25.0929 23.4898 24.9207L23.8026 25.2512C23.686 25.5884 23.542 25.9087 23.3744 26.2192L23.0536 25.966C23.0845 25.8807 23.0797 25.7968 23.0375 25.7195L22.3641 24.4875L21.9113 24.735L21.7195 24.384ZM23.2063 24.1184L24.9191 23.1822L25.1014 23.5157C25.1681 23.8713 25.1505 24.2228 25.0467 24.5667C25.3411 24.5881 25.6715 24.5671 26.0433 24.5051L26.0194 24.9285C25.5987 24.9761 25.223 24.9809 24.8973 24.9355C24.729 25.2782 24.48 25.6149 24.1432 25.9494L23.7708 25.7518C24.0748 25.4489 24.3072 25.1486 24.4717 24.849C24.1243 24.7472 23.832 24.5878 23.5982 24.3601L23.3981 24.4694L23.2063 24.1184ZM23.9421 24.1721C24.1287 24.3299 24.3548 24.4434 24.6256 24.5051C24.7163 24.2458 24.7554 23.992 24.7424 23.7347L23.9421 24.1721ZM22.7025 22.6296L23.9661 21.939L24.3632 22.6656C24.4054 22.7428 24.4705 22.7619 24.5583 22.7139L24.8601 22.5489L25.0424 22.8824L24.6423 23.1011C24.379 23.245 24.182 23.1931 24.0477 22.9474L23.7926 22.4806L23.252 22.776L23.3038 22.8708C23.5033 23.2358 23.4692 23.6237 23.2046 24.0236L22.8054 23.8771C23.0331 23.5931 23.0881 23.3351 22.9634 23.107L22.7025 22.6296Z" fill="white"/>
<path d="M26.4961 21.7474L27.4067 21.2618L26.8609 20.2382L27.2421 20.035L27.7879 21.0585L28.6526 20.5974L28.8484 20.9645L27.9836 21.4256L28.9925 23.3174L28.6113 23.5207L27.6025 21.6289L26.6918 22.1145L26.4961 21.7474ZM25.3441 21.0833C25.6587 21.1377 25.9415 21.209 26.1907 21.2937L26.074 21.6869C25.8533 21.5961 25.5669 21.5266 25.2185 21.4767L25.3441 21.0833ZM25.3975 22.365L26.2375 21.917L27.0242 23.3924C27.0795 23.2495 27.1363 23.0924 27.1944 22.9208L27.4911 23.2477C27.3746 23.5818 27.2327 23.9023 27.0618 24.211L26.7437 23.9545C26.779 23.8676 26.7769 23.7872 26.7374 23.7131L26.0692 22.4601L25.5857 22.7179L25.3975 22.365Z" fill="white"/>
<path d="M30.4366 19.3549L30.7887 19.1736L30.666 18.9353L31.0181 18.754L31.1408 18.9923L31.4964 18.8092L31.6465 19.1008L31.2909 19.2839L31.4154 19.5257L31.8173 19.3188L31.9748 19.6246L30.8226 20.218L30.6651 19.9121L31.0634 19.707L30.9389 19.4652L30.5868 19.6465L30.4366 19.3549ZM31.0048 20.3446L31.9685 19.8483L32.4685 20.8191L31.5047 21.3154L31.0048 20.3446ZM32.0017 20.6816L31.8094 20.3082L31.4751 20.4803L31.6674 20.8537L32.0017 20.6816ZM31.634 17.8969L33.0734 20.6921C33.1998 20.9375 33.1358 21.1278 32.8798 21.2597L32.5562 21.4264L32.2969 21.1325C32.409 21.0882 32.5158 21.0422 32.6083 20.9946C32.7008 20.947 32.7158 20.8627 32.6554 20.7454L31.4541 18.4125L30.1419 19.0883L30.9971 20.749C31.2427 21.2434 31.3393 21.6931 31.2905 22.1051L30.8867 21.9937C30.9186 21.6713 30.8447 21.3269 30.6614 20.9534L29.6212 18.9335L31.634 17.8969ZM28.907 19.1978C29.2082 19.2586 29.4793 19.3395 29.7166 19.4332L29.596 19.8193C29.3802 19.7235 29.1073 19.648 28.7774 19.584L28.907 19.1978ZM28.9294 20.482L29.7473 20.0608L30.4615 21.4477C30.4891 21.3615 30.522 21.2681 30.5531 21.1711L30.8341 21.4898C30.7445 21.7699 30.6349 22.0378 30.5056 22.2934L30.193 22.0359C30.2314 21.9531 30.2323 21.8762 30.1938 21.8015L29.5748 20.5995L29.1125 20.8376L28.9294 20.482Z" fill="white"/>
<path d="M33.0012 18.7285L35.2188 17.6362L35.8957 19.0106L33.6781 20.1029L33.0012 18.7285ZM35.3671 18.8607L35.2717 18.667L33.7861 19.3987L33.8815 19.5924L35.3671 18.8607ZM33.6306 19.0829L35.1161 18.3512L35.0154 18.1466L33.5298 18.8784L33.6306 19.0829ZM32.1083 17.8753L33.4144 17.2319L33.2713 16.9413L33.6373 16.761L33.7804 17.0516L35.0866 16.4083L35.2563 16.7528L34.2767 17.2353C34.6412 17.3054 35.0975 17.2813 35.6528 17.1594L35.6574 17.5762C34.9574 17.6669 34.3924 17.6152 33.9625 17.4212L34.2417 17.9882L33.8757 18.1685L33.5965 17.6015C33.4703 18.0605 33.1741 18.5364 32.7078 19.0291L32.3407 18.7997C32.7831 18.4124 33.0911 18.06 33.2647 17.7337L32.278 18.2197L32.1083 17.8753ZM33.3179 20.5121L36.429 18.9798L36.5969 19.3207L33.4858 20.853L33.3179 20.5121Z" fill="white"/>
<path d="M37.888 16.9182L37.5905 17.0564L37.4271 16.7045L38.3957 16.2546L38.5591 16.6065L38.258 16.7464L38.6557 17.6025C38.7837 17.5078 38.9047 17.4075 39.0257 17.3072L39.1891 17.6591C38.914 17.8927 38.612 18.1256 38.2851 18.3524L38.0223 18.0335L38.3177 17.8433L37.888 16.9182ZM40.0388 17.7981C39.9009 17.8621 39.7357 17.8198 39.5448 17.6747C39.3173 17.4981 39.0903 17.2374 38.8677 16.891C38.6775 16.5956 38.4682 16.2209 38.2414 15.7706L37.1313 16.2862L36.9594 15.9161L38.0586 15.4056C37.957 15.2058 37.861 14.999 37.7616 14.785L38.1316 14.6131C38.2344 14.8344 38.3304 15.0412 38.4287 15.2337L39.1071 14.9186L39.2789 15.2886L38.6078 15.6004C38.8683 16.1233 39.0998 16.5362 39.3003 16.8444C39.565 17.2243 39.7459 17.4049 39.8467 17.3845C39.8924 17.3501 39.8508 17.118 39.7201 16.6847L40.1288 16.786C40.2442 17.3763 40.2129 17.7172 40.0388 17.7981ZM38.431 14.4696C38.6573 14.5674 38.8408 14.6586 38.9815 14.7432L38.8045 15.0459C38.6534 14.9485 38.4719 14.852 38.2493 14.7525L38.431 14.4696ZM36.0661 15.6166C36.3663 15.6932 36.6339 15.7851 36.8672 15.8884L36.7326 16.2729C36.5209 16.1684 36.2497 16.0782 35.919 16.0025L36.0661 15.6166ZM36.0379 16.9043L36.876 16.515L37.5533 17.9734C37.5888 17.8599 37.6299 17.7394 37.6729 17.6136L37.9562 17.9671C37.8541 18.2791 37.7258 18.5725 37.5764 18.8492L37.2729 18.5756C37.3146 18.4945 37.3169 18.414 37.2832 18.3414L36.6817 17.0463L36.2064 17.2671L36.0379 16.9043Z" fill="white"/>
<path d="M40.5781 13.5699L40.9562 13.4062L41.0913 13.7181L42.4788 13.1173L42.633 13.4733L41.2455 14.0742L41.4013 14.4339L42.5649 13.93L43.1149 15.2L40.5822 16.2969L40.0322 15.0268L41.0232 14.5976L40.5781 13.5699ZM42.5806 15.0129L42.3373 14.4514L40.5681 15.2176L40.8114 15.7792L42.5806 15.0129ZM40.621 16.4065L41.0071 16.4224C41.0101 16.7916 40.9772 17.1284 40.8996 17.4323L40.4838 17.3377C40.5709 17.0559 40.6165 16.7484 40.621 16.4065ZM41.5801 16.135C41.7552 16.3381 41.9257 16.5607 42.1021 16.8069L41.7564 17.0655C41.5852 16.791 41.4152 16.5595 41.2521 16.3642L41.5801 16.135ZM42.3176 15.7545C42.5269 15.9559 42.7347 16.1841 42.9395 16.4355L42.5975 16.6926C42.3979 16.4129 42.1942 16.1741 41.9897 15.9837L42.3176 15.7545ZM43.0099 15.3501C43.3678 15.5525 43.6569 15.7368 43.8771 15.903L43.6494 16.2631C43.416 16.0765 43.1275 15.8833 42.7837 15.6834L43.0099 15.3501Z" fill="white"/>
<path d="M43.7697 12.9984L43.3718 13.156L43.2216 12.7767L44.4042 12.3083L44.5544 12.6876L44.164 12.8423L44.7664 14.3633C44.8885 14.259 44.9996 14.1591 45.1069 14.0607L45.26 14.4475C44.9858 14.711 44.664 14.9847 44.2857 15.2679L44.0187 14.9305C44.1601 14.8315 44.2927 14.7316 44.4193 14.6385L43.7697 12.9984ZM44.4273 12.0625L46.5248 11.2318L46.6751 11.6111L45.816 11.9514C45.8394 12.054 45.8591 12.158 45.8721 12.2561L46.6494 11.9483L47.3696 13.7668L46.9903 13.9171L46.4115 12.4555L45.3367 12.8812L45.9155 14.3427L45.5399 14.4915L44.8197 12.6729L45.4891 12.4078C45.4746 12.306 45.4563 12.2057 45.4329 12.1031L44.5776 12.4418L44.4273 12.0625ZM46.8023 13.9528C47.1748 14.0462 47.499 14.1587 47.7809 14.2837L47.6124 14.6731C47.3655 14.5386 47.0406 14.4134 46.6406 14.3051L46.8023 13.9528ZM45.7377 12.916L46.1244 12.7628L46.3837 13.4173C46.5219 13.8315 46.5399 14.203 46.4363 14.528C46.3276 14.8292 46.077 15.1306 45.6793 15.4301L45.3363 15.1831C45.7205 14.8932 45.9569 14.6318 46.0416 14.4004C46.113 14.157 46.0976 13.8791 45.9969 13.5705L45.7377 12.916Z" fill="white"/>
<path d="M50.039 9.97994L51.2578 13.312L50.8634 13.4563L50.7837 13.2384L48.9204 13.92L49.0029 14.1454L48.6047 14.291L47.3831 10.9514L50.039 9.97994ZM48.7816 13.5406L50.6449 12.859L50.4305 12.273L48.5673 12.9545L48.7816 13.5406ZM48.4367 12.5977L50.3 11.9161L50.1008 11.3714L48.2375 12.0529L48.4367 12.5977ZM48.1056 11.6923L49.9689 11.0108L49.782 10.4999L47.9187 11.1814L48.1056 11.6923Z" fill="white"/>
<path d="M51.7854 10.0229C51.8684 9.99383 51.9456 9.99645 52.0272 10.0357C52.1037 10.0725 52.159 10.1336 52.1881 10.2167C52.2172 10.2997 52.2108 10.3782 52.174 10.4547C52.1335 10.5325 52.0761 10.5865 51.993 10.6156C51.91 10.6447 51.8277 10.6396 51.7512 10.6028C51.6747 10.5661 51.6245 10.5074 51.5954 10.4243C51.5663 10.3413 51.5676 10.2603 51.6044 10.1838C51.6399 10.1036 51.7023 10.052 51.7854 10.0229ZM52.2695 11.4046C52.3525 11.3755 52.4297 11.3781 52.5113 11.4173C52.5878 11.4541 52.6431 11.5152 52.6722 11.5983C52.7013 11.6813 52.6949 11.7599 52.6581 11.8363C52.6176 11.9141 52.5602 11.9681 52.4771 11.9972C52.3941 12.0263 52.3118 12.0213 52.2353 11.9845C52.1589 11.9477 52.1086 11.889 52.0795 11.806C52.0504 11.7229 52.0517 11.6419 52.0885 11.5655C52.124 11.4852 52.1864 11.4337 52.2695 11.4046Z" fill="white"/>
<path d="M54.7388 8.49917L56.2838 7.9862C56.2612 7.86727 56.2348 7.7496 56.2134 7.63447L56.6347 7.55781L56.6938 7.85007L58.1478 7.36735L58.2713 7.73938L56.7528 8.24353C56.7628 8.3498 56.7766 8.4548 56.7853 8.55727L58.1899 8.09093L58.8831 10.1789C58.9789 10.4674 58.8939 10.6558 58.6282 10.744L58.2752 10.8612L58.0454 10.5118L58.3756 10.4148C58.4667 10.3845 58.4946 10.3163 58.4619 10.2176L57.9224 8.59278L55.6599 9.34396L56.3821 11.5192L55.991 11.649L55.1453 9.10175L56.3791 8.69213C56.3691 8.58587 56.3553 8.48086 56.3428 8.37965L54.8623 8.8712L54.7388 8.49917ZM56.4418 9.13492C56.5556 9.23625 56.6718 9.35782 56.788 9.50469L57.1107 9.39756C57.1399 9.23189 57.1553 9.06241 57.1593 8.88406L57.559 8.89466C57.545 9.02999 57.5233 9.15519 57.4941 9.27026L57.8395 9.15557L57.9542 9.50103L57.2557 9.73294L57.3515 10.0215L58.1487 9.75677L58.2634 10.1022L57.4662 10.3669L57.683 11.0199L57.2958 11.1484L57.079 10.4955L56.2856 10.7589L56.1709 10.4134L56.9643 10.15L56.8685 9.86149L56.1814 10.0896L56.0667 9.74416L56.4084 9.63073C56.3187 9.53828 56.2277 9.45469 56.1316 9.38121L56.4418 9.13492Z" fill="white"/>
<path d="M59.4624 6.6219L59.8673 6.49588L60.9681 10.0325L60.5633 10.1585L60.2946 9.29537L59.1909 9.63895L59.0732 9.26085L60.1769 8.91726L60.0236 8.42458L59.0955 8.71348L58.9766 8.33155L59.9047 8.04266L59.7561 7.56525L58.7401 7.88149L58.6224 7.50339L59.6384 7.18715L59.4624 6.6219ZM60.3561 6.34371L60.761 6.21769L60.9369 6.78293L61.949 6.46788L62.0667 6.84599L61.0546 7.16104L61.2032 7.63844L62.1313 7.34955L62.2502 7.73147L61.3221 8.02037L61.4755 8.51305L62.5487 8.17898L62.6664 8.55708L61.5932 8.89115L61.8618 9.7543L61.457 9.88032L60.3561 6.34371Z" fill="white"/>
<path d="M64.2845 6.07367L64.665 5.96401L64.5908 5.70649L64.9713 5.59684L65.0455 5.85436L65.4299 5.7436L65.5207 6.05877L65.1363 6.16953L65.2117 6.4309L65.646 6.30574L65.7412 6.63628L64.4959 6.99516L64.4007 6.66461L64.8311 6.54055L64.7558 6.27919L64.3753 6.38884L64.2845 6.07367ZM64.6501 7.15469L65.6917 6.85453L65.9941 7.90383L64.9525 8.20399L64.6501 7.15469ZM65.5628 7.67844L65.4465 7.27486L65.0852 7.37898L65.2015 7.78255L65.5628 7.67844ZM65.7416 4.87532L66.6122 7.89638C66.6887 8.16158 66.5891 8.33598 66.3123 8.41573L65.9625 8.51653L65.7651 8.17797C65.8837 8.15627 65.9974 8.13184 66.0973 8.10304C66.1973 8.07424 66.2284 7.9945 66.1918 7.86766L65.4652 5.34627L64.047 5.75498L64.5642 7.54994C64.7094 8.08257 64.717 8.54244 64.5893 8.93723L64.2147 8.74962C64.3085 8.43952 64.3028 8.08734 64.1953 7.68539L63.5662 5.50223L65.7416 4.87532ZM62.8142 5.62317C63.098 5.74121 63.3483 5.87305 63.5629 6.01103L63.3698 6.36641C63.1766 6.23058 62.9236 6.10369 62.6123 5.97692L62.8142 5.62317ZM62.5875 6.88741L63.4715 6.63265L63.9035 8.13165C63.9472 8.05243 63.9976 7.96716 64.0468 7.87803L64.2609 8.24513C64.1186 8.50259 63.9592 8.74416 63.7828 8.96983L63.5261 8.65668C63.5798 8.58293 63.5955 8.50762 63.5723 8.42691L63.1979 7.12778L62.6982 7.27177L62.5875 6.88741Z" fill="white"/>
<path d="M67.0368 5.92827L69.4264 5.29562L69.8185 6.77659L67.4289 7.40925L67.0368 5.92827ZM69.3299 6.52527L69.2747 6.31646L67.6738 6.74028L67.7291 6.94909L69.3299 6.52527ZM67.5837 6.4L69.1846 5.97619L69.1262 5.75578L67.5254 6.1796L67.5837 6.4ZM66.33 4.91542L67.7375 4.54279L67.6546 4.22958L68.049 4.12516L68.1319 4.43837L69.5395 4.06574L69.6377 4.43695L68.5821 4.71642C68.9256 4.85721 69.3776 4.92372 69.9461 4.91392L69.8683 5.32346C69.1642 5.27402 68.6206 5.11175 68.2374 4.83665L68.3991 5.4476L68.0047 5.55202L67.843 4.94107C67.6286 5.36608 67.2442 5.77405 66.6898 6.16496L66.3752 5.86756C66.8854 5.57526 67.2569 5.29069 67.4917 5.00511L66.4283 5.28663L66.33 4.91542ZM66.9949 7.73931L70.3474 6.85175L70.4446 7.2191L67.0921 8.10665L66.9949 7.73931Z" fill="white"/>
<path d="M72.1476 6.00609L72.2396 6.38713C71.8768 6.62289 71.4579 6.84753 70.974 7.05903L70.8277 6.67464C71.3406 6.46434 71.7809 6.24278 72.1476 6.00609ZM70.678 3.43112L71.0948 3.48685C71.0219 3.9859 70.9254 4.40425 70.8053 4.74188C70.9415 4.69252 71.0777 4.64316 71.213 4.58991C71.2481 4.44564 71.2852 4.29265 71.3283 4.13L71.714 4.17675C71.537 4.84087 71.369 5.33819 71.2189 5.67073C71.4546 5.5562 71.6866 5.42611 71.9225 5.27859L72.0099 5.6402C71.6062 5.89406 71.2184 6.09469 70.8418 6.23915L70.6447 5.89995C70.7072 5.85194 70.76 5.79803 70.7993 5.73917C70.8877 5.59435 70.9848 5.3487 71.0913 5.00611C70.9103 5.07452 70.7225 5.14869 70.5269 5.22473L70.3405 4.87883C70.3961 4.83659 70.4383 4.77289 70.472 4.6907C70.575 4.29957 70.6424 3.88003 70.678 3.43112ZM71.5285 3.7154L72.4112 3.50224L72.3079 3.07453L72.7161 2.97594L72.8194 3.40364L73.702 3.19048L73.7959 3.5793L72.9133 3.79246L73.0241 4.25127L73.794 4.06534L73.8879 4.45416L71.9555 4.92086L71.8616 4.53204L72.6159 4.34987L72.5051 3.89106L71.6224 4.10422L71.5285 3.7154ZM73.8798 4.74418L74.2751 6.38111L73.8824 6.47596L73.8476 6.33209L72.86 6.57061L72.8948 6.71447L72.4982 6.81026L72.1028 5.17332L73.8798 4.74418ZM72.768 6.18957L73.7556 5.95105L73.5791 5.22006L72.5915 5.45858L72.768 6.18957Z" fill="white"/>
<path d="M74.3748 2.70195L77.109 2.09862L77.4633 3.704L76.3071 3.95912L76.3648 4.22083L77.8999 3.8821L77.9835 4.26099L76.7687 4.52904C77.1085 4.76947 77.6024 4.94722 78.2535 5.05752L78.0507 5.47503C77.3499 5.2692 76.8201 4.98467 76.4553 4.63096L76.7217 5.83793L76.3076 5.92929L76.0413 4.72232C75.8492 5.24397 75.4719 5.72456 74.9141 6.16713L74.5962 5.83996C75.1277 5.50148 75.4988 5.14106 75.7102 4.76261L74.4993 5.0298L74.4157 4.65091L75.9508 4.31219L75.8931 4.05048L74.7291 4.30733L74.3748 2.70195ZM76.9803 3.446L76.9209 3.17648L76.1709 3.34197L76.2304 3.61148L76.9803 3.446ZM75.8163 3.70285L75.7569 3.43333L74.9991 3.60054L75.0586 3.87005L75.8163 3.70285ZM74.9215 3.24899L75.6793 3.08179L75.6181 2.80446L74.8603 2.97166L74.9215 3.24899ZM76.0321 2.7131L76.0933 2.99042L76.8433 2.82494L76.7821 2.54761L76.0321 2.7131Z" fill="white"/>
<path d="M78.4423 1.66552L79.6244 3.33217L79.1834 5.32729L78.8153 5.24262L79.2206 3.41389L78.1361 1.88666L78.4423 1.66552ZM79.1245 1.52747L80.3066 3.19411L79.8655 5.18923L79.4974 5.10457L79.9028 3.27584L78.8026 1.75178L79.1245 1.52747Z" fill="white"/>
<g clip-path="url(#clip0_255_5551)">
<mask id="mask0_255_5551" style="mask-type:luminance" maskUnits="userSpaceOnUse" x="0" y="32" width="6" height="6">
<path d="M0.599655 33.6002L4.3339 32.1667L5.76735 35.901L2.0331 37.3344L0.599655 33.6002Z" fill="white"/>
</mask>
<g mask="url(#mask0_255_5551)">
<path fill-rule="evenodd" clip-rule="evenodd" d="M1.21735 36.7754L0.368073 34.563L2.4398 35.0361L1.21735 36.7754Z" fill="black"/>
<path fill-rule="evenodd" clip-rule="evenodd" d="M2.63359 37.1048L4.00505 35.1504L6.63308 34.1416L7.1108 35.3861L2.63359 37.1048Z" fill="#000C8A"/>
<path fill-rule="evenodd" clip-rule="evenodd" d="M1.08101 33.4154L5.67782 31.6509L6.15582 32.8961L3.5263 33.9055C3.5263 33.9055 1.10109 33.394 1.08101 33.4154Z" fill="#E1392D"/>
<path fill-rule="evenodd" clip-rule="evenodd" d="M0.25502 34.2685L0.367779 34.5622L2.43979 35.0361L1.21706 36.7747L1.3301 37.0692L2.86733 34.8719L0.25502 34.2685Z" fill="#FFB915"/>
<path fill-rule="evenodd" clip-rule="evenodd" d="M0.255053 34.2685L0.0757294 33.8014L0.767866 33.5357L3.53633 34.1796L6.24807 33.1386L6.53987 33.8988L3.82813 34.9397L2.20131 37.2699L1.50917 37.5356L1.33014 37.0692L2.86737 34.872L0.255053 34.2685Z" fill="#007847"/>
<path fill-rule="evenodd" clip-rule="evenodd" d="M0.767838 33.5356L1.19986 33.3698L3.52705 33.9052L6.15508 32.8964L6.24804 33.1386L3.5363 34.1795L0.767838 33.5356ZM2.20157 37.2706L2.63359 37.1048L4.00506 35.1504L6.63309 34.1416L6.54013 33.8995L3.82838 34.9404L2.20128 37.2699L2.20157 37.2706Z" fill="white"/>
</g>
</g>
<defs>
<clipPath id="clip0_255_5551">
<rect x="0.600098" y="33.6" width="4" height="4" rx="2" transform="rotate(-21 0.600098 33.6)" fill="white"/>
</clipPath>
</defs>
</svg>
