<svg width="77" height="20" viewBox="0 0 77 20" fill="none" xmlns="http://www.w3.org/2000/svg">
<path d="M6.1031 10.0575L6.49006 10.1223L6.14876 11.9708L7.29835 13.4496L7.00198 13.6838L5.74887 12.0699L6.1031 10.0575ZM6.77866 9.89009L7.15009 9.95874L6.82432 11.8033L7.9739 13.2822L7.67754 13.5163L6.42442 11.9024L6.77866 9.89009Z" fill="white"/>
<path d="M7.74708 10.6116L8.2097 10.5179L8.03983 9.67893L8.4554 9.5948L8.62526 10.4338L9.29174 10.2988L9.11394 9.42065L9.51775 9.3389L9.69555 10.2171L10.3659 10.0813L10.1881 9.20316L10.592 9.12141L10.7698 9.99959L11.3186 9.88846L11.3988 10.2844L10.8499 10.3956L11.1 11.6305L9.62194 11.9297L9.37191 10.6948L8.70543 10.8297L9.06739 12.6175L11.6274 12.0991L11.7116 12.5147L8.73596 13.1172L8.28987 10.9139L7.82725 11.0075L7.74708 10.6116ZM9.77572 10.613L9.94479 11.4481L10.6152 11.3124L10.4461 10.4773L9.77572 10.613Z" fill="white"/>
<path d="M11.9898 8.9806L14.7947 8.53554L15.058 10.1948L14.3785 10.3026C14.6708 10.5114 15.0781 10.6533 15.5957 10.7251L15.4756 11.1167C15.1152 11.0403 14.8075 10.9392 14.5521 10.8097L14.7683 12.1726L14.3535 12.2384L14.1122 10.7175L14.3255 10.6836C14.1724 10.5864 14.039 10.4861 13.932 10.3734L13.3632 10.4637C13.2805 10.6064 13.1814 10.7477 13.0647 10.8796L13.3609 10.8326C13.4117 11.1526 13.4076 11.4327 13.3485 11.6729C13.283 11.9749 13.052 12.2546 12.6554 12.5119L12.3302 12.2233C12.6513 12.0266 12.8489 11.817 12.923 11.5947C12.9742 11.4326 12.9869 11.2322 12.9572 10.9939C12.7405 11.2105 12.4732 11.4149 12.1554 11.6071L11.8771 11.2827C12.3511 11.0536 12.6924 10.805 12.9088 10.5358L12.2531 10.6398L11.9898 8.9806ZM14.6025 9.90254L14.5536 9.5944L13.7438 9.7229L13.7927 10.031L14.6025 9.90254ZM13.3897 10.095L13.3408 9.78684L12.5467 9.91284L12.5956 10.221L13.3897 10.095ZM12.4928 9.57309L13.2869 9.44709L13.2405 9.15475L12.4465 9.28074L12.4928 9.57309ZM13.6435 9.09081L13.6899 9.38315L14.4997 9.25465L14.4533 8.96231L13.6435 9.09081Z" fill="white"/>
<path d="M16.1557 8.27533C16.4322 8.4364 16.669 8.6021 16.866 8.77243L16.6173 9.09138C16.441 8.92667 16.2033 8.75302 15.9051 8.57838L16.1557 8.27533ZM15.7588 9.46528L16.6766 9.3583L16.8688 11.0071C16.9719 10.8904 17.0821 10.7648 17.1989 10.6264L17.3651 11.05C17.1306 11.3189 16.8771 11.5619 16.6053 11.7869L16.4028 11.4319C16.4634 11.3645 16.4904 11.2848 16.4802 11.1974L16.3176 9.80285L15.8051 9.86259L15.7588 9.46528ZM17.2367 9.77627L19.1756 9.55028L19.2196 9.92773C19.1482 10.2824 19.0002 10.6017 18.7751 10.8816C19.0399 11.0118 19.3541 11.1161 19.7221 11.1981L19.5412 11.5816C19.1334 11.4681 18.7832 11.3317 18.4983 11.1676C18.2139 11.4222 17.8568 11.641 17.4191 11.8249L17.148 11.5021C17.5433 11.3353 17.8714 11.144 18.1361 10.9279C17.8522 10.7032 17.641 10.446 17.5095 10.1472L17.2831 10.1736L17.2367 9.77627ZM17.8989 10.1018C18.0127 10.3181 18.1798 10.508 18.4077 10.6667C18.589 10.4603 18.7204 10.2396 18.8048 9.99621L17.8989 10.1018ZM17.3277 8.20718L18.758 8.04047L18.8539 8.86291C18.8641 8.95031 18.9173 8.99244 19.0166 8.98086L19.3583 8.94103L19.4023 9.31848L18.9494 9.37127C18.6514 9.406 18.4882 9.28408 18.4558 9.00596L18.3942 8.47754L17.7823 8.54885L17.7948 8.65612C17.843 9.06933 17.6659 9.41616 17.2707 9.68774L16.9556 9.4023C17.2731 9.22435 17.4208 9.00578 17.3907 8.74753L17.3277 8.20718Z" fill="white"/>
<path d="M21.1388 8.86099L22.1678 8.78263L22.0797 7.62598L22.5105 7.59317L22.5986 8.74982L23.5757 8.6754L23.6073 9.0902L22.6302 9.16462L22.793 11.3024L22.3622 11.3352L22.1994 9.19742L21.1704 9.27579L21.1388 8.86099ZM20.3512 7.78971C20.6173 7.96601 20.8476 8.14504 21.0416 8.32282L20.7766 8.63585C20.6111 8.46392 20.3769 8.28519 20.0779 8.09936L20.3512 7.78971ZM19.8846 8.9846L20.8338 8.9123L20.9608 10.5795C21.0688 10.471 21.184 10.3499 21.3062 10.2162L21.4464 10.6348C21.2054 10.8938 20.9466 11.1301 20.666 11.3441L20.4779 10.9813C20.5451 10.916 20.5756 10.8415 20.5692 10.7577L20.4613 9.34183L19.9149 9.38344L19.8846 8.9846Z" fill="white"/>
<path d="M25.6336 7.41734C25.7532 7.61289 25.8737 7.83243 25.9913 8.08009L27.2184 8.03293L27.2305 8.34869C26.812 9.22942 26.1859 9.91397 25.356 10.4022C25.5214 10.54 25.7164 10.6125 25.9408 10.6199C26.129 10.6207 26.3969 10.6144 26.7447 10.601C26.9565 10.5929 27.2478 10.5697 27.623 10.5392L27.5349 10.9549L26.8234 10.9823C26.4676 10.9959 26.2117 11.0018 26.0596 11.0036C25.6197 11.0125 25.2873 10.9052 25.0542 10.674C24.9628 10.5854 24.8931 10.5441 24.8372 10.5462C24.7612 10.5492 24.6252 10.7585 24.425 11.1745L24.0843 10.9555C24.3352 10.4014 24.5808 10.1238 24.8286 10.1143C24.8805 10.1123 24.9288 10.1184 24.9777 10.1405C24.9898 10.1441 25.002 10.1476 25.0103 10.1553C25.762 9.71811 26.3327 9.15177 26.7224 8.46029L24.2443 8.55555L24.2286 8.14785L25.5276 8.09791C25.4156 7.89007 25.292 7.69467 25.153 7.51587L25.6336 7.41734Z" fill="white"/>
<path d="M30.0741 7.48507L31.4541 7.48054L31.4551 7.79254C31.3365 8.20093 31.2057 8.57736 31.0628 8.92184C31.3561 9.31287 31.5052 9.63639 31.51 9.88437C31.5108 10.1324 31.4594 10.3045 31.3557 10.3969C31.244 10.4932 31.0242 10.546 30.6882 10.5471L30.5668 10.1275C30.7148 10.143 30.8389 10.1546 30.9429 10.1542C31.0149 10.15 31.0588 10.1299 31.0787 10.0978C31.0946 10.0657 31.1064 9.9977 31.11 9.88569C31.1052 9.6377 30.9481 9.31821 30.6348 8.92324C30.7619 8.62682 30.8847 8.27442 31.0114 7.866L30.4794 7.86775L30.4898 11.0437L30.0858 11.0451L30.0741 7.48507ZM28.1351 7.77944L28.6631 7.77771L28.6617 7.36171L29.0697 7.36037L29.0711 7.77637L29.4511 7.77512L29.4521 8.07912C29.5475 7.9188 29.627 7.74654 29.6944 7.57032L30.0469 7.72516C29.9319 8.02954 29.7888 8.30201 29.6216 8.54656L29.9536 8.54547L29.9548 8.92147L29.3188 8.92356C29.2272 9.01986 29.1315 9.11218 29.0277 9.20052L29.7957 9.198L29.8018 11.05L29.4058 11.0513L29.4054 10.9153L28.7214 10.9175L28.7218 11.0575L28.3218 11.0588L28.3173 9.67485C28.2294 9.71914 28.1416 9.76343 28.0537 9.80372L27.8327 9.48444C28.1802 9.3353 28.4876 9.15029 28.7508 8.92543L27.9548 8.92804L27.9536 8.55204L28.6656 8.5497L28.6643 8.14971L28.1363 8.15144L28.1351 7.77944ZM29.1256 8.54819C29.2292 8.41985 29.3248 8.28754 29.4123 8.14725L29.0723 8.14837L29.0736 8.54836L29.1256 8.54819ZM28.7191 10.2255L28.7202 10.5495L29.4042 10.5473L29.4031 10.2233L28.7191 10.2255ZM29.402 9.87129L29.4009 9.55129L28.7169 9.55354L28.718 9.87354L29.402 9.87129Z" fill="white"/>
<path d="M32.2335 7.55687L35.4 7.65268L35.3878 8.0565L34.7601 8.0375L34.7323 8.95708L35.5599 8.98213L35.5477 9.38594L34.7201 9.3609L34.6682 11.0761L34.2483 11.0634L34.3002 9.3482L33.2647 9.31686C33.2129 9.70747 33.1229 10.0369 32.9988 10.3013C32.8327 10.6324 32.569 10.8845 32.2077 11.0537L31.9906 10.691C32.3201 10.5128 32.5432 10.2835 32.6636 10.007C32.7416 9.80927 32.8007 9.57495 32.8409 9.30404L31.9773 9.27791L31.9895 8.87409L32.8811 8.90107C32.8818 8.87708 32.8864 8.85721 32.8872 8.83322L32.9129 7.98161L32.2213 7.96068L32.2335 7.55687ZM33.3367 7.99444L33.311 8.84605C33.3103 8.87004 33.3056 8.88991 33.3049 8.9139L34.3125 8.94438L34.3403 8.0248L33.3367 7.99444Z" fill="white"/>
<path d="M37.3572 8.33352L36.322 8.29221L36.3375 7.90452L37.1129 7.93546C37.0654 7.82148 37.0134 7.71932 36.9531 7.62485L37.3956 7.57045C37.4551 7.68491 37.51 7.8152 37.5645 7.95348L38.2999 7.98283C38.3893 7.85029 38.4706 7.71743 38.5443 7.57625L38.9383 7.73609C38.8823 7.83393 38.8227 7.92363 38.7636 8.00133L39.5829 8.03403L39.5674 8.42172L38.5283 8.38025L38.5021 9.03573L38.9577 9.05391L38.719 8.91628C38.8615 8.75784 38.9719 8.59811 39.0582 8.44143L39.3798 8.61038C39.2974 8.76723 39.1955 8.91528 39.0736 9.05853L39.6932 9.08326L39.6775 9.47494L36.1283 9.33332L36.144 8.94163L36.7595 8.96619C36.6949 8.77947 36.6175 8.61225 36.5353 8.46485L36.8996 8.3633C36.9893 8.523 37.0706 8.69438 37.1355 8.87311L36.8874 8.9713L37.331 8.989L37.3572 8.33352ZM38.1246 8.36414L37.7609 8.34963L37.7347 9.00511L38.0984 9.01962L38.1246 8.36414ZM39.1784 9.64318L39.1111 11.3298L38.7074 11.3137L38.7143 11.1419L36.9477 11.0714L36.9408 11.2432L36.5372 11.2271L36.6045 9.54047L39.1784 9.64318ZM36.9614 10.7276L38.728 10.7981L38.7377 10.5543L36.9711 10.4838L36.9614 10.7276ZM36.9842 10.1561L38.7508 10.2266L38.761 9.9708L36.9944 9.9003L36.9842 10.1561Z" fill="white"/>
<path d="M42.5453 8.64902C42.5247 8.72085 42.5041 8.78869 42.4876 8.85255C42.5646 9.2172 42.666 9.54204 42.7876 9.83104C42.9265 9.48416 43.0097 9.09283 43.0293 8.65298L42.5453 8.64902ZM42.275 9.41883C42.2262 9.51444 42.1774 9.60604 42.1288 9.68965L41.8754 9.36756C42.0908 8.94531 42.2396 8.37051 42.3174 7.65112L42.7168 7.72639C42.6913 7.91019 42.6659 8.08199 42.6366 8.24575L43.6286 8.25387L43.6252 8.65785L43.4213 8.65618C43.3921 9.28797 43.2557 9.82687 43.016 10.2769C43.2134 10.5985 43.4473 10.8525 43.7178 11.0347L43.4749 11.3887C43.2125 11.1986 42.9865 10.9487 42.793 10.6351C42.5625 10.9412 42.2765 11.1949 41.9388 11.4002L41.7177 11.0343C42.0834 10.8333 42.3696 10.5676 42.5803 10.2414C42.4623 9.99239 42.3605 9.71954 42.275 9.41883ZM41.9925 10.2046L41.9896 10.5645C41.7814 10.5908 41.5612 10.617 41.3369 10.6432L41.3342 10.9752C41.3322 11.2272 41.2231 11.3543 41.0071 11.3525L40.6071 11.3493L40.4983 10.9644C40.6461 10.9816 40.762 10.9945 40.85 10.9952C40.898 10.9956 40.9224 10.9518 40.9231 10.8638L40.9246 10.6798C40.6604 10.7017 40.3882 10.7234 40.1081 10.7412L40.0633 10.3488C40.3674 10.3353 40.6556 10.3176 40.9277 10.2998L40.9294 10.0999C41.0499 10.0368 41.1664 9.97379 41.279 9.9027L40.187 9.89377L40.19 9.53379L41.9219 9.54795L41.9196 9.83594C41.7585 9.96263 41.5655 10.0851 41.3405 10.2072L41.34 10.2672C41.5682 10.2451 41.7844 10.2268 41.9925 10.2046ZM40.0912 7.91692L40.8432 7.92307C40.8038 7.84275 40.7644 7.76642 40.721 7.69407L41.1255 7.63337C41.1688 7.72173 41.212 7.81809 41.2552 7.92644L42.0631 7.93305L42.0601 8.30504L40.0881 8.28891L40.0912 7.91692ZM40.2787 8.46248L41.8547 8.47536L41.8472 9.38733L40.2713 9.37444L40.2787 8.46248ZM41.446 9.04804L41.4479 8.80805L40.68 8.80177L40.678 9.04176L41.446 9.04804Z" fill="white"/>
<path d="M44.8088 8.4516C44.8968 8.44974 44.9694 8.47621 45.0347 8.53884C45.096 8.59756 45.1296 8.67286 45.1314 8.76084C45.1333 8.84882 45.1028 8.92148 45.0441 8.98274C44.9814 9.04408 44.9101 9.0776 44.8221 9.07946C44.7341 9.08133 44.6575 9.05094 44.5962 8.99223C44.5349 8.93351 44.5054 8.86212 44.5036 8.77414C44.5017 8.68616 44.5281 8.60959 44.5868 8.54833C44.6454 8.48307 44.7208 8.45347 44.8088 8.4516ZM44.8398 9.91528C44.9278 9.91341 45.0004 9.93988 45.0657 10.0025C45.127 10.0612 45.1606 10.1365 45.1624 10.2245C45.1643 10.3125 45.1338 10.3852 45.0751 10.4464C45.0124 10.5078 44.9411 10.5413 44.8531 10.5431C44.7651 10.545 44.6885 10.5146 44.6272 10.4559C44.566 10.3972 44.5364 10.3258 44.5346 10.2378C44.5327 10.1498 44.5591 10.0733 44.6178 10.012C44.6764 9.94674 44.7518 9.91714 44.8398 9.91528Z" fill="white"/>
<path d="M48.3828 7.63116C48.6478 7.81054 48.8728 7.99186 49.0579 8.17512L48.7882 8.47653C48.6235 8.3003 48.3981 8.11099 48.1123 7.91659L48.3828 7.63116ZM47.9064 8.79158L48.8293 8.74686L48.9097 10.4049C49.0205 10.2954 49.139 10.1775 49.2648 10.0473L49.402 10.4812C49.1499 10.7337 48.8805 10.959 48.5941 11.1651L48.4161 10.7973C48.4811 10.734 48.5134 10.6564 48.5091 10.5685L48.4412 9.16613L47.9258 9.19111L47.9064 8.79158ZM49.36 9.2017L51.3097 9.10722L51.3281 9.48678C51.2329 9.8358 51.0636 10.1444 50.8201 10.4084C51.0756 10.5563 51.382 10.6816 51.7436 10.7882L51.5372 11.1586C51.138 11.0178 50.7978 10.8581 50.5247 10.6751C50.2237 10.9099 49.8526 11.1041 49.4036 11.258L49.1548 10.9176C49.5605 10.7778 49.9007 10.6092 50.1795 10.4115C49.9114 10.1681 49.7181 9.89719 49.6071 9.5902L49.3793 9.60124L49.36 9.2017ZM49.9986 9.57123C50.0975 9.7947 50.2514 9.99549 50.4681 10.1692C50.663 9.97554 50.8089 9.76423 50.9095 9.52708L49.9986 9.57123ZM49.5567 7.64235L50.995 7.57265L51.0351 8.39968C51.0394 8.48758 51.0896 8.5332 51.1895 8.52836L51.5331 8.51171L51.5515 8.89127L51.0961 8.91334C50.7964 8.92786 50.6418 8.79519 50.6283 8.51551L50.6025 7.98414L49.9872 8.01395L49.9924 8.12183C50.0126 8.53734 49.8125 8.87141 49.3999 9.11567L49.1047 8.8096C49.4335 8.6535 49.5956 8.44541 49.5831 8.18572L49.5567 7.64235Z" fill="white"/>
<path d="M53.0632 8.4724L54.0924 8.39637L54.0069 7.23952L54.4378 7.2077L54.5232 8.36454L55.5006 8.29234L55.5312 8.70721L54.5539 8.77941L54.7118 10.9176L54.281 10.9494L54.123 8.81124L53.0938 8.88727L53.0632 8.4724ZM52.278 7.39933C52.5438 7.57623 52.7736 7.75579 52.9673 7.934L52.7016 8.24643C52.5364 8.07413 52.3026 7.89487 52.004 7.70836L52.278 7.39933ZM51.8087 8.59315L52.7581 8.52302L52.8813 10.1905C52.9896 10.0822 53.105 9.96137 53.2275 9.82798L53.3668 10.2469C53.1251 10.5054 52.8658 10.7411 52.5848 10.9544L52.3975 10.5912C52.4649 10.5261 52.4955 10.4516 52.4893 10.3678L52.3847 8.95169L51.8382 8.99207L51.8087 8.59315Z" fill="white"/>
<path d="M55.9057 7.4221L57.6333 7.25229L57.6733 7.65833L57.108 7.71389L57.1796 8.44238L57.5816 8.40286L57.6028 8.61783C57.8038 8.12781 57.9162 7.55407 57.9436 6.89221L58.3583 6.89968C58.3457 7.09787 58.3282 7.28849 58.3016 7.46795L59.4521 7.35488L59.492 7.76092L59.2372 7.78596C59.266 8.40612 59.1744 8.94567 58.9587 9.40899C59.2129 9.70555 59.5003 9.93051 59.8204 10.0799L59.6164 10.4577C59.2915 10.3007 58.9997 10.0722 58.7455 9.7756C58.5057 10.1167 58.1884 10.4051 57.7896 10.6413L57.5012 10.3239C57.9322 10.0887 58.2611 9.79508 58.4834 9.43963C58.3103 9.19137 58.1539 8.90931 58.0183 8.59306C57.9536 8.75216 57.8841 8.90368 57.8098 9.04764L57.5762 8.79729L57.2179 8.8325L57.3036 9.7043C57.4813 9.63057 57.6549 9.55723 57.8166 9.48507L57.8542 9.86723C57.3818 10.0905 56.8325 10.3093 56.2061 10.5196L56.0571 10.1484L56.2793 10.0783L56.1024 8.27896L56.4886 8.24101L56.6564 9.94878C56.7456 9.91589 56.8313 9.88738 56.9125 9.85528L56.7059 7.75341L55.9456 7.82814L55.9057 7.4221ZM58.6771 9.03876C58.8099 8.67201 58.8627 8.26891 58.8352 7.82548L58.2261 7.88534C58.2125 7.95099 58.1984 8.01266 58.184 8.07035C58.3287 8.43796 58.4929 8.75944 58.6771 9.03876Z" fill="white"/>
<path d="M59.9707 7.85315L61.5353 7.6636L61.5083 7.44122L61.8856 7.39552L61.6414 7.27602C61.7814 7.00119 61.8683 6.7207 61.9051 6.42613L62.3128 6.46538C62.2986 6.54769 62.2844 6.62999 62.2692 6.70436L63.389 6.56869L63.4333 6.93402L62.7821 7.01292C62.867 7.11545 62.9396 7.21544 62.9992 7.30895L62.6547 7.49171C62.564 7.34153 62.4663 7.20026 62.3611 7.06391L62.1705 7.08701C62.1264 7.22129 62.0768 7.34415 62.0183 7.46003L61.9326 7.41802L61.9562 7.6126L63.5208 7.42305L63.566 7.79632L62.0014 7.98587L62.0255 8.18442L63.328 8.02662L63.4222 8.80493C63.4502 9.03525 63.337 9.1658 63.0869 9.19611L62.8446 9.22545C63.1493 9.34568 63.4908 9.43728 63.8656 9.50468L63.6929 9.90838C63.112 9.76925 62.6013 9.54504 62.1539 9.24467L62.2646 10.158L61.8437 10.209L61.7349 9.31155C61.3891 9.71608 60.9825 10.0514 60.5186 10.3131L60.2276 9.97364C60.8097 9.68958 61.2943 9.3327 61.6849 8.89857L61.6483 8.59677L60.8224 8.69684L60.9128 9.44338L60.5038 9.49294L60.3696 8.38504L61.6046 8.23542L61.5805 8.03687L60.0159 8.22642L59.9707 7.85315ZM62.1068 8.85551C62.3166 8.99126 62.5489 9.11221 62.8109 9.21342L62.6693 8.876L62.9298 8.86459C62.9815 8.85833 63.0054 8.8232 62.9987 8.7676L62.9588 8.43801L62.0693 8.54578L62.1068 8.85551ZM60.4988 7.28955C60.4317 7.43466 60.3558 7.5728 60.271 7.70396L59.8861 7.52091C60.0926 7.22996 60.2292 6.92733 60.2924 6.61749L60.7001 6.65674C60.6819 6.73952 60.6598 6.82279 60.6372 6.90209L61.5584 6.79047L61.6027 7.1558L61.0547 7.22219C61.1396 7.32472 61.2162 7.42424 61.2803 7.52123L60.9239 7.70544C60.8331 7.55526 60.735 7.41001 60.6298 7.27367L60.4988 7.28955Z" fill="white"/>
<path d="M63.7093 7.407L65.028 7.21974C65.0728 7.13662 65.1051 7.05123 65.1335 6.9664C64.8025 7.02552 64.4557 7.08689 64.0964 7.14598L63.9864 6.79799C64.2008 6.7433 64.4918 6.48786 64.8554 6.03222L65.283 6.11291C65.1187 6.32207 64.9477 6.512 64.77 6.68269C65.1717 6.60949 65.5689 6.53289 65.9575 6.45345C65.8597 6.39058 65.7619 6.32771 65.6562 6.26596L65.9443 6.019C66.3695 6.25355 66.7025 6.46483 66.9388 6.64944L66.628 6.93598C66.5455 6.8669 66.459 6.79838 66.3646 6.73098C66.1055 6.78394 65.8339 6.83462 65.5589 6.88983C65.5357 6.98201 65.5079 7.0708 65.4716 7.15676L67.2141 6.90933L67.267 7.28159L66.3918 7.40587C66.6468 7.55147 66.9878 7.64849 67.4148 7.69693L67.29 8.09846C66.6905 7.9735 66.2365 7.76325 65.9324 7.4711L65.2393 7.56951C64.9652 7.94376 64.5486 8.28169 63.9849 8.5799L63.7465 8.23802C64.146 8.06413 64.4612 7.86584 64.6928 7.64712L63.7621 7.77927L63.7093 7.407ZM65.4927 7.59009L65.8411 7.73859C65.619 8.1095 65.2442 8.42936 64.71 8.70722L64.4823 8.41231C64.9616 8.17456 65.2984 7.90049 65.4927 7.59009ZM66.6062 8.06225L66.9902 8.1774C66.718 8.87862 65.9867 9.44709 64.7995 9.87827L64.5158 9.58727C65.6651 9.17359 66.3607 8.66676 66.6062 8.06225ZM66.0429 7.85134L66.3941 8.01964C65.9823 8.61949 65.4344 9.02858 64.7514 9.25484L64.4773 8.9746C65.1931 8.75176 65.7138 8.37884 66.0429 7.85134Z" fill="white"/>
<path d="M68.0516 5.96582L69.0662 5.80062L69.0077 5.44135L69.4183 5.37451L69.4768 5.73378L70.3414 5.59301L70.3723 5.78252C70.4972 5.60412 70.6057 5.42434 70.6985 5.24714L71.0391 5.42268C70.8854 5.72329 70.7048 6.00801 70.4967 6.2729L71.306 6.14113L71.3696 6.53198L70.0826 6.74152C69.9532 6.86795 69.8199 6.99503 69.6774 7.11549L71.2053 6.86674L71.2651 7.23391L69.3029 7.55336L69.2518 7.86158L71.131 7.55563C71.1952 8.14902 71.1886 8.50673 71.1079 8.63335C71.0266 8.75601 70.8421 8.84278 70.5579 8.88906C70.3723 8.91927 70.2046 8.93442 70.0553 8.93847L69.8665 8.60041C70.0671 8.58801 70.2506 8.57029 70.4086 8.54457C70.5981 8.51372 70.716 8.46616 70.7543 8.40317C70.7842 8.33753 70.7939 8.19815 70.7789 7.98174L68.8207 8.30056L68.8914 7.68925C68.6449 7.84286 68.3852 7.99051 68.1112 8.12428L67.881 7.78081C68.4449 7.51068 68.938 7.20346 69.3601 6.85915L67.9349 7.09119L67.8712 6.70034L69.178 6.48758L69.1279 6.17963L68.1133 6.34483L68.0516 5.96582ZM69.8847 6.37252C70.0022 6.24802 70.1079 6.12545 70.2057 6.00416L69.5385 6.11279L69.5886 6.42073L69.8847 6.37252Z" fill="white"/>
<path d="M71.7379 4.97237L72.8868 6.66211L72.4063 8.6481L72.0399 8.55616L72.4814 6.73581L71.4274 5.1874L71.7379 4.97237ZM72.4227 4.84786L73.5715 6.5376L73.0911 8.52359L72.7247 8.43165L73.1662 6.6113L72.0964 5.06575L72.4227 4.84786Z" fill="white"/>
<g clip-path="url(#clip0_255_5564)">
<mask id="mask0_255_5564" style="mask-type:luminance" maskUnits="userSpaceOnUse" x="0" y="10" width="6" height="6">
<path d="M0.399475 11.8002L4.13372 10.3667L5.56717 14.101L1.83292 15.5344L0.399475 11.8002Z" fill="white"/>
</mask>
<g mask="url(#mask0_255_5564)">
<path fill-rule="evenodd" clip-rule="evenodd" d="M1.01719 14.9754L0.167908 12.763L2.23963 13.2361L1.01719 14.9754Z" fill="black"/>
<path fill-rule="evenodd" clip-rule="evenodd" d="M2.43341 15.3048L3.80487 13.3504L6.4329 12.3416L6.91062 13.5861L2.43341 15.3048Z" fill="#000C8A"/>
<path fill-rule="evenodd" clip-rule="evenodd" d="M0.880831 11.6154L5.47764 9.85086L5.95564 11.0961L3.32612 12.1055C3.32612 12.1055 0.900906 11.594 0.880831 11.6154Z" fill="#E1392D"/>
<path fill-rule="evenodd" clip-rule="evenodd" d="M0.0548706 12.4685L0.16763 12.7622L2.23964 13.2361L1.01691 14.9747L1.12995 15.2691L2.66718 13.0719L0.0548706 12.4685Z" fill="#FFB915"/>
<path fill-rule="evenodd" clip-rule="evenodd" d="M0.0548733 12.4685L-0.124451 12.0014L0.567686 11.7357L3.33615 12.3796L6.04789 11.3386L6.33969 12.0988L3.62795 13.1397L2.00113 15.4699L1.30899 15.7356L1.12996 15.2692L2.66719 13.072L0.0548733 12.4685Z" fill="#007847"/>
<path fill-rule="evenodd" clip-rule="evenodd" d="M0.567688 11.7356L0.999713 11.5698L3.3269 12.1052L5.95493 11.0964L6.04789 11.3386L3.33615 12.3795L0.567688 11.7356ZM2.00142 15.4706L2.43344 15.3048L3.80491 13.3504L6.43294 12.3416L6.33998 12.0995L3.62823 13.1404L2.00113 15.4699L2.00142 15.4706Z" fill="white"/>
</g>
</g>
<defs>
<clipPath id="clip0_255_5564">
<rect x="0.399902" y="11.8" width="4" height="4" rx="2" transform="rotate(-21 0.399902 11.8)" fill="white"/>
</clipPath>
</defs>
</svg>
