<svg width="141" height="73" viewBox="0 0 141 73" fill="none" xmlns="http://www.w3.org/2000/svg">
<path d="M6.77411 3.61339L6.8144 3.97672L4.92989 4.14762L3.80628 5.66201L3.52328 5.45453L4.74065 3.81348L6.77411 3.61339ZM7.1112 4.20856L7.14359 4.55797L5.26697 4.74279L4.14336 6.25718L3.86036 6.0497L5.07773 4.40866L7.1112 4.20856Z" fill="white"/>
<path d="M8.51906 6.54987L8.30514 6.67534C8.21742 6.59694 8.1177 6.55341 8.00192 6.53785C7.88958 6.52026 7.79404 6.5392 7.71325 6.59122C7.73372 6.6024 7.75336 6.62798 7.77562 6.66593C7.81609 6.73494 7.82836 6.81121 7.80839 6.88785C7.78841 6.96448 7.74047 7.02506 7.66457 7.06958C7.58866 7.1141 7.51036 7.12292 7.43373 7.10295C7.35507 7.07952 7.29247 7.02813 7.24592 6.94877C7.19128 6.85561 7.18472 6.75744 7.22825 6.65772C7.26631 6.55657 7.34328 6.47433 7.45714 6.40755C7.63656 6.30232 7.81873 6.26503 8.01055 6.29165C8.20035 6.31481 8.371 6.40021 8.51906 6.54987ZM8.04756 5.74594L7.83364 5.8714C7.74794 5.79646 7.64822 5.75293 7.53446 5.74081C7.42213 5.72323 7.32456 5.73872 7.24377 5.79073C7.26222 5.79846 7.28186 5.82404 7.30614 5.86545C7.34661 5.93445 7.35686 6.00728 7.33689 6.08391C7.31691 6.16055 7.27099 6.22458 7.19509 6.26909C7.11918 6.31361 7.04088 6.32244 6.96425 6.30246C6.88559 6.27904 6.82299 6.22765 6.77644 6.14829C6.72181 6.05513 6.71726 5.96041 6.76079 5.86069C6.79683 5.75608 6.8738 5.67384 6.98766 5.60706C7.16708 5.50184 7.34722 5.4611 7.53905 5.48771C7.73087 5.51433 7.90152 5.59973 8.04756 5.74594Z" fill="white"/>
<path d="M9.16185 7.88141C9.13019 8.19984 9.07232 8.4827 8.99922 8.73269L8.63873 8.647C8.72083 8.41961 8.78006 8.13126 8.81505 7.78743L9.16185 7.88141ZM7.92149 8.03382L8.38552 8.8003L6.93811 9.67658C7.09129 9.72879 7.26231 9.77956 7.45322 9.83231L7.16491 10.1284C6.82495 10.0303 6.49723 9.90608 6.18518 9.75365L6.40488 9.45231C6.48593 9.47806 6.56617 9.47157 6.63802 9.42806L7.88355 8.67401L7.6101 8.22233L7.92149 8.03382ZM8.25385 9.50191L9.25856 11.1615L8.96087 11.3417C8.59625 11.4268 8.23676 11.42 7.87897 11.3234C7.86784 11.6294 7.8994 11.975 7.97634 12.3492L7.5901 12.3446C7.51982 11.9195 7.50528 11.5402 7.5355 11.204C7.1823 11.0531 6.82737 10.8144 6.47487 10.4948L6.63882 10.1477C6.96448 10.4462 7.2823 10.6699 7.5957 10.8168C7.68067 10.4474 7.8331 10.1354 8.05712 9.88754L7.93904 9.6925L8.25385 9.50191ZM8.24149 10.1921C8.08041 10.3971 7.97301 10.6445 7.91793 10.9397C8.19746 11.023 8.47266 11.0528 8.74489 11.0236L8.24149 10.1921ZM9.71966 8.94181L10.453 10.1531L9.73443 10.5881C9.65915 10.6337 9.64295 10.6996 9.69474 10.7852L9.87704 11.0863L9.57934 11.2665L9.34525 10.8799C9.19817 10.6369 9.24201 10.4467 9.46784 10.31L9.95374 10.0158L9.60985 9.44783L9.5072 9.50997C9.15134 9.72542 8.76438 9.71186 8.35182 9.47065L8.4711 9.10386C8.77514 9.31257 9.04557 9.34991 9.27825 9.20904L9.71966 8.94181Z" fill="white"/>
<path d="M10.7279 12.5622L11.2854 13.4496L12.2778 12.8262L12.4863 13.1581L11.4939 13.7816L12.0216 14.6216L11.7032 14.8216L11.1755 13.9816L9.34983 15.1284L9.14131 14.7965L10.967 13.6496L10.4095 12.7622L10.7279 12.5622ZM11.3026 11.3415C11.2749 11.6659 11.226 11.9564 11.1524 12.2152L10.7905 12.1355C10.8646 11.9 10.9169 11.6073 10.942 11.2562L11.3026 11.3415ZM10.0395 11.5114L10.531 12.2938L9.08805 13.2002C9.24421 13.2533 9.41604 13.3013 9.60228 13.3496L9.32692 13.6407C8.98752 13.5515 8.6578 13.4327 8.34328 13.2855L8.55459 12.9827C8.63818 13.0105 8.71491 13.0048 8.78266 12.9622L10.0291 12.1792L9.73124 11.705L10.0395 11.5114Z" fill="white"/>
<path d="M12.4306 15.3739L12.6219 15.6694L11.9234 16.1215L12.3754 16.82L12.0799 17.0112L11.6279 16.3128L10.926 16.767L10.7348 16.4715L11.4366 16.0172L10.9824 15.3154L11.2779 15.1242L11.7321 15.826L12.4306 15.3739Z" fill="white"/>
<path d="M13.9751 18.1297L15.1296 19.8551L14.4182 20.3311L13.2637 18.6058L13.9751 18.1297ZM14.4574 19.8862L14.6967 19.726L13.9315 18.5824L13.6921 18.7426L14.4574 19.8862ZM14.4478 20.7637L13.4704 21.4178L13.2658 21.1119L13.3954 21.0252L12.2431 19.3031L12.1135 19.3899L11.9066 19.0807L12.8839 18.4267L14.4478 20.7637ZM12.5057 19.1274L13.658 20.8494L13.9838 20.6314L12.8315 18.9094L12.5057 19.1274ZM14.5809 16.8773L15.0636 17.5987L15.2631 17.4652L15.4722 17.7777L15.2727 17.9112L15.8155 18.7223L16.015 18.5888L16.2241 18.9013L16.0246 19.0348L16.5073 19.7562L16.2314 19.9408L15.7487 19.2194L15.5791 19.3329L15.37 19.0204L15.5396 18.9069L14.9968 18.0958L14.8272 18.2092L14.6181 17.8968L14.7877 17.7833L14.305 17.0619L14.5809 16.8773ZM15.9143 20.0567L15.2528 20.4994L15.0503 20.1969L15.4459 19.9322L14.0133 17.7913L13.6011 18.0671L13.3987 17.7646L14.0768 17.3108L15.9143 20.0567Z" fill="white"/>
<path d="M18.3069 21.9429L18.5191 22.2485L17.6354 22.8623L18.0599 23.4734L16.3154 24.6851C16.0657 24.8585 15.8656 24.8368 15.715 24.62L15.4936 24.3014L15.7355 24.0116L15.9268 24.3219C15.9793 24.3975 16.0625 24.3981 16.1676 24.3251L16.4206 24.1494L15.7907 23.2427L15.0877 23.731L14.8709 23.4189L16.9964 21.9425L17.4232 22.5568L18.3069 21.9429ZM16.3525 22.8524L16.0536 23.0601L16.6834 23.9668L16.9823 23.7592L16.3525 22.8524ZM17.2484 23.5743L17.5474 23.3667L16.9176 22.4599L16.6186 22.6676L17.2484 23.5743ZM17.8785 21.5927C17.7827 21.8054 17.6738 22.0272 17.5406 22.2561L17.2368 22.0921C17.3765 21.8586 17.4855 21.6369 17.5679 21.4189L17.8785 21.5927ZM18.7306 22.7493L18.7894 23.0933C18.5375 23.1513 18.2706 23.1808 17.9967 23.1861L17.9524 22.8418C18.2296 22.8343 18.4909 22.8038 18.7306 22.7493ZM17.2103 20.3572L17.3578 20.7028C17.2443 20.7427 17.134 20.7803 17.0271 20.8156L17.4173 21.3774L17.1216 21.5828L16.6584 20.9159C16.4904 20.9546 16.3245 20.9822 16.1685 21.0029L16.7116 21.7848L16.4323 21.9788L16.2133 21.6634L15.8749 21.8984L16.1716 22.3255L15.8825 22.5263L15.5858 22.0992L14.9058 22.5716C15.0542 22.6731 15.2213 22.7664 15.3993 22.8474L15.1598 23.0916C14.8887 22.9537 14.6177 22.7669 14.3413 22.5303L14.5184 22.2173C14.6027 22.2756 14.6728 22.2854 14.7254 22.2488L15.3759 21.797L15.0792 21.3699L15.3683 21.1691L15.665 21.5962L16.0033 21.3611L15.8824 21.187L16.1386 21.009C16.0423 21.0175 15.9515 21.027 15.8584 21.0333L15.8436 20.6685C16.3136 20.644 16.7698 20.5365 17.2103 20.3572Z" fill="white"/>
<path d="M19.9209 24.0853C19.9815 24.1699 19.998 24.2614 19.9661 24.368C19.9351 24.4689 19.8651 24.5635 19.7546 24.6427C19.5921 24.7593 19.4108 24.8154 19.2197 24.8097C19.0262 24.8008 18.8517 24.7291 18.6897 24.5992L18.8912 24.4546C18.9811 24.5182 19.0867 24.5556 19.2002 24.5629C19.3146 24.5645 19.408 24.5369 19.486 24.4809C19.4678 24.4694 19.4427 24.448 19.417 24.4123C19.3704 24.3472 19.3544 24.2701 19.3673 24.1919C19.3802 24.1138 19.4191 24.0514 19.4906 24.0001C19.5622 23.9489 19.637 23.9296 19.7198 23.949C19.7979 23.9619 19.865 24.0073 19.9209 24.0853ZM19.3778 23.328C19.4384 23.4125 19.4572 23.5073 19.4229 23.6106C19.3943 23.7148 19.3243 23.8093 19.2138 23.8886C19.0512 24.0052 18.87 24.0613 18.6765 24.0524C18.4831 24.0434 18.3086 23.9717 18.1465 23.8418L18.348 23.6973C18.4402 23.7641 18.5435 23.7983 18.657 23.8055C18.7737 23.8104 18.8671 23.7828 18.9452 23.7268C18.927 23.7152 18.9018 23.6939 18.8762 23.6581C18.8296 23.5931 18.816 23.5192 18.8288 23.4411C18.8394 23.3597 18.8783 23.2973 18.9498 23.246C19.0213 23.1947 19.0962 23.1755 19.1743 23.1884C19.2548 23.2045 19.3218 23.25 19.3778 23.328Z" fill="white"/>
<path d="M21.6409 26.7958L19.5994 28.3138L19.399 28.0441L21.158 26.7362L20.7809 26.229L19.0186 27.5394L18.8205 27.2729L20.8652 25.7526L21.6409 26.7958ZM20.6765 26.511L20.8603 26.7582L19.8107 27.5386C19.444 27.7963 19.1193 27.963 18.843 28.0338C18.5795 28.0951 18.3204 28.0685 18.0657 27.9538L18.1951 27.6183C18.4347 27.7193 18.6602 27.7411 18.8708 27.6891C19.0919 27.6245 19.346 27.4903 19.6269 27.2915L20.6765 26.511ZM19.2762 28.1204C19.2363 28.2947 19.1925 28.4569 19.1438 28.6127C19.194 28.6601 19.2418 28.7043 19.2864 28.7509L20.4484 27.8869L20.6298 28.1308L19.5128 28.9614C19.5638 29.0032 19.6116 29.0474 19.657 29.0884L21.0277 28.0693L21.2186 28.3261L20.7371 28.6841L20.8923 28.8927L20.6419 29.0789L20.4868 28.8702L19.909 29.2999C20.0142 29.3811 20.1171 29.4591 20.2184 29.5283L19.952 29.7264C19.6002 29.4946 19.243 29.2019 18.8716 28.85L18.8917 28.83L18.7158 28.8013C18.8087 28.5977 18.8905 28.3524 18.9581 28.0679L19.2762 28.1204ZM21.6935 27.0408L22.1971 27.7181L21.9243 27.921L21.4207 27.2437L21.6935 27.0408ZM21.0947 27.3415L21.8155 28.3109C22.0282 28.1478 22.2625 27.9736 22.5128 27.7874L22.7133 28.057L22.5689 28.1644L22.813 28.3319C22.7306 28.5227 22.629 28.7079 22.5107 28.8906L22.2521 28.7439C22.3793 28.5397 22.4849 28.3465 22.5625 28.1692C22.3667 28.3148 22.1837 28.4508 22.016 28.5806L22.362 29.046L22.0764 29.2584L21.7327 28.7962C21.1548 29.2458 20.7767 29.5618 20.6015 29.7419C20.3862 29.9618 20.2848 30.107 20.3006 30.1751C20.3237 30.1928 20.4664 30.1166 20.7255 29.9488L20.7368 30.2993C20.3215 30.5384 20.0596 30.5885 19.9594 30.4537C19.8997 30.3734 19.8994 30.259 19.9584 30.1105C20.0416 29.914 20.1897 29.7042 20.4026 29.4811C20.5923 29.2803 20.9704 28.9642 21.5346 28.5298L20.809 27.554L21.0947 27.3415Z" fill="white"/>
<path d="M21.7708 30.6491L21.54 30.828L22.0447 31.4794L22.2755 31.3005L21.7708 30.6491ZM22.5221 31.1095L22.7656 30.9208L22.261 30.2694L22.0175 30.4581L22.5221 31.1095ZM21.2902 31.0215L20.6989 31.4796L20.4735 31.1887L22.298 29.7752L23.2534 31.0084L21.7799 32.15C21.5617 32.319 21.3702 32.3004 21.2134 32.098L21.0223 31.8514L21.2474 31.5606L21.4087 31.7949C21.4651 31.8677 21.5356 31.8738 21.6178 31.8101L21.7948 31.6729L21.2902 31.0215ZM23.7884 32.3194L23.3891 31.804C23.2176 31.5826 23.2545 31.382 23.4948 31.1959L24.5225 30.3997L24.7528 30.6969L24.3796 30.986C24.6825 31.2725 24.9389 31.4989 25.1551 31.6604L24.9654 31.9642C24.7044 31.7514 24.4172 31.4983 24.1045 31.1991L23.7883 31.4441C23.6871 31.5225 23.6628 31.6021 23.7216 31.678L24.0131 32.0543C24.0523 32.1049 24.095 32.1274 24.1438 32.125C24.2013 32.1209 24.3236 32.0566 24.5055 31.9257L24.6319 32.2782C24.3498 32.4562 24.1574 32.5345 24.0596 32.5192C23.968 32.499 23.8766 32.4332 23.7884 32.3194ZM22.6342 32.3383L22.2484 32.6371C22.1915 32.6812 22.1899 32.738 22.2487 32.8139L22.5452 33.1965C22.5844 33.2471 22.6296 33.2728 22.6752 33.2729C22.7327 33.2688 22.8549 33.2045 23.0393 33.0768L23.1615 33.4173C22.8763 33.5978 22.6863 33.6792 22.5916 33.6615C22.5026 33.6445 22.4111 33.5787 22.3205 33.4617L21.9138 32.9368C21.7472 32.7218 21.762 32.5383 21.9517 32.3913L23.0236 31.5609L23.2539 31.8581L22.9061 32.1276C23.168 32.4003 23.4275 32.6243 23.6784 32.8044L23.4855 33.1106C23.1941 32.8912 22.9107 32.63 22.6342 32.3383ZM23.9561 30.0997C23.8508 30.4798 23.7429 30.7911 23.6379 31.0344L23.2697 30.9249C23.3085 30.8443 23.3479 30.7581 23.3849 30.6687C23.0796 30.3791 22.7354 30.0132 22.3525 29.5711L22.5386 29.2954C22.5992 29.3344 22.6588 29.3591 22.7198 29.3726C23.0843 29.3989 23.4144 29.3809 23.7078 29.3155L23.8454 29.6694C23.4832 29.7375 23.1625 29.7481 22.877 29.7061C23.0612 29.9177 23.2726 30.1384 23.5027 30.37C23.5471 30.2445 23.5891 30.1159 23.6318 29.9816L23.9561 30.0997Z" fill="white"/>
<path d="M25.3602 32.7931C25.2049 32.8365 25.0582 32.8523 24.9282 32.8443L24.9055 32.4665C25.1879 32.4849 25.4842 32.3995 25.8029 32.2084L25.9834 32.5203C25.8837 32.5753 25.7903 32.6251 25.7037 32.6644L25.9327 32.9473L26.2996 32.6504L26.5361 32.9426L26.1693 33.2396L26.6197 33.7961L26.3492 34.0151L25.8988 33.4585L25.5661 33.7278L26.0895 34.3745L25.8128 34.5985L25.2894 33.9517L25.0282 34.1631L25.5139 34.7632L24.6837 35.4351C24.4785 35.6012 24.2904 35.5785 24.1192 35.3671L23.9959 35.2148L24.2122 34.9162L24.3105 35.0631C24.3785 35.147 24.451 35.1603 24.5194 35.105L25.0138 34.7048L24.7546 34.3846L23.6757 35.2578L23.4391 34.9656L24.518 34.0923L24.2588 33.7721L23.3727 34.4893L23.1412 34.2032L24.3009 33.2646L24.7916 33.8709L25.0528 33.6595L24.4639 32.9319L24.7407 32.708L25.3295 33.4355L25.6622 33.1662L25.3602 32.7931ZM26.898 33.962L27.1296 34.248L25.2267 35.7881L24.9952 35.5021L26.898 33.962ZM24.8311 36.6281L24.4561 36.1648L24.6862 35.8705C24.7946 36.0298 24.9016 36.1748 25.0123 36.3116C25.0777 36.3924 25.154 36.3976 25.2379 36.3297L27.6787 34.3542L27.9152 34.6465L25.3999 36.6823C25.1884 36.8535 24.9972 36.8333 24.8311 36.6281Z" fill="white"/>
<path d="M28.4679 35.3177C28.4709 35.6613 28.4506 35.9775 28.4049 36.2576L28.0302 36.224C28.0853 35.9674 28.1138 35.6547 28.1106 35.2799L28.4679 35.3177ZM27.1964 39.3964C27.0567 39.2317 26.9045 39.0461 26.7419 38.8483C26.5768 38.6474 26.458 38.4702 26.3824 38.3193C26.3155 38.1662 26.2982 37.9974 26.3242 37.8179C26.3399 37.7312 26.3306 37.6708 26.3022 37.6373C26.2453 37.5702 26.0148 37.5768 25.6053 37.6567L25.6224 37.2749C26.002 37.2153 26.2765 37.2237 26.4411 37.2939L27.3043 36.5617L26.9576 36.1529L27.226 35.9252L27.803 36.6055L26.6469 37.5861C26.6451 37.6087 26.6458 37.6343 26.6405 37.665C26.6202 37.8081 26.6213 37.9331 26.6437 38.0399C26.6786 38.1677 26.765 38.3252 26.9142 38.5134C27.056 38.6868 27.2263 38.8937 27.4282 39.1317C27.5549 39.2811 27.6874 39.4311 27.8224 39.5841C27.9548 39.734 28.0618 39.8478 28.1404 39.928L27.7941 40.1011L27.1964 39.3964ZM28.7363 36.8524C28.5912 36.8915 28.4501 36.9168 28.3124 36.9339L28.2601 36.5692C28.5917 36.5397 28.9054 36.4519 29.2012 36.3059L29.3714 36.6179C29.277 36.6612 29.1857 36.702 29.0979 36.7345L29.3566 37.0395L29.6983 36.7497L29.9338 37.0273L29.5921 37.3171L30.1018 37.9181L29.8334 38.1458L29.3237 37.5448L28.9973 37.8217L29.6416 38.5812L29.3762 38.8063L27.7771 36.9212L28.0425 36.6961L28.7618 37.5441L29.0882 37.2672L28.7363 36.8524ZM27.7945 37.3313L28.9951 38.7467L28.0952 39.51L26.8947 38.0946L27.7945 37.3313ZM28.1252 39.0073L28.4943 38.6942L27.7646 37.834L27.3955 38.1471L28.1252 39.0073Z" fill="white"/>
<path d="M31.3503 38.7018L31.6027 38.9858L29.253 41.0748L29.5719 41.4335L31.9217 39.3446L32.1741 39.6286L29.8244 41.7175L30.6005 42.5904L30.3224 42.8376L27.9518 40.171L28.2298 39.9238L29.0005 40.7908L31.3503 38.7018ZM32.1151 40.6819L32.2666 40.9968C31.6514 41.3403 31.0728 41.5925 30.5277 41.756L30.3914 41.4221C30.887 41.2813 31.4654 41.0347 32.1151 40.6819ZM30.2979 38.6258C30.0329 39.1344 29.6951 39.6756 29.2872 40.2523L28.9902 40.0507C29.3692 39.5318 29.7066 38.9963 30.0049 38.4528L30.2979 38.6258Z" fill="white"/>
<path d="M34.6185 42.2143C34.5703 42.309 34.5161 42.4091 34.4533 42.5175L35.5181 43.652L35.2615 43.8929L32.8279 41.3001L33.0846 41.0592L34.1713 42.2171C34.2138 42.1279 34.2476 42.0412 34.2759 41.9544L34.6185 42.2143ZM32.6131 45.4899L32.3859 45.2479L32.5736 44.951L32.7727 45.1865C32.874 45.2945 32.9668 45.3115 33.0426 45.2404L33.7805 44.5478L32.0833 42.7395L30.9838 43.7715L30.7374 43.509L32.0761 42.2526L34.2661 44.5858L33.2307 45.5576C33.0353 45.741 32.8266 45.7174 32.6131 45.4899ZM33.1206 41.8866L34.7001 43.5695L34.0934 44.1389L32.514 42.456L33.1206 41.8866ZM34.0543 43.6764L34.241 43.5012L33.1597 42.3492L32.9731 42.5243L34.0543 43.6764ZM32.2362 43.183L33.3504 44.37L32.7379 44.9449L31.6237 43.7578L32.2362 43.183ZM32.7121 44.5083L32.9163 44.3167L32.2648 43.6225L32.0606 43.8141L32.7121 44.5083Z" fill="white"/>
<path d="M35.7003 45.1541L35.4849 45.3686C34.8358 45.9866 34.2099 46.367 33.5986 46.5127L33.6108 46.1281C34.1089 45.9934 34.6499 45.6524 35.2281 45.1106L36.1295 44.2132C36.8944 44.9644 37.6284 45.5827 38.3316 46.0679L38.2233 46.441C37.5625 45.97 36.8708 45.3886 36.1596 44.6969L35.9498 44.9058L36.836 45.7959C36.9238 45.731 37.0059 45.6661 37.0881 45.6013L37.3222 45.9044C37.2514 45.9637 37.1805 46.0172 37.1097 46.0708L37.9733 46.9382L37.7238 47.1866L36.8179 46.2766C36.7301 46.3302 36.648 46.3837 36.563 46.4345L37.277 47.1517L36.2877 48.1366L36.0309 47.8786L36.7707 47.142L35.7181 46.0847L34.9754 46.8241L34.7186 46.5661L35.7107 45.5784L36.2921 46.1623C36.3799 46.1088 36.462 46.0552 36.5442 46.0017L35.7003 45.1541ZM35.7716 47.4481C35.9715 47.87 36.1148 48.2861 36.2101 48.6993L35.8309 48.7833C35.7442 48.3277 35.6122 47.906 35.4349 47.5124L35.7716 47.4481ZM36.0817 46.6314L36.3244 46.9091C35.956 47.2081 35.5964 47.3629 35.2457 47.3621C34.8922 47.3641 34.4795 47.2331 34.0134 46.969L34.1189 46.5761C34.5257 46.8259 34.8789 46.9596 35.1787 46.9716C35.4813 46.9808 35.7814 46.8683 36.0817 46.6314Z" fill="white"/>
<path d="M38.0234 48.1097L40.0967 50.0622L39.3837 50.8193L38.4781 49.9665L38.3574 50.0946L39.3213 51.0023L39.154 51.1799L38.1901 50.2722L38.0613 50.4091L39.2377 51.517L39.0402 51.7266L36.4195 49.2585L36.6169 49.0489L37.7875 50.1513L37.9164 50.0144L36.9642 49.1177L37.1315 48.94L38.0837 49.8368L38.2044 49.7087L37.3104 48.8668L38.0234 48.1097ZM39.2752 50.4094L39.4068 50.2697L38.7633 49.6636L38.6317 49.8034L39.2752 50.4094ZM38.3579 49.5456L38.4896 49.4058L37.8577 48.8107L37.726 48.9505L38.3579 49.5456ZM38.0003 48.6593L38.6322 49.2544L38.7638 49.1146L38.1319 48.5195L38.0003 48.6593ZM39.0375 49.3724L38.9059 49.5122L39.5494 50.1182L39.6811 49.9785L39.0375 49.3724ZM39.1981 46.9906L41.1462 48.8253L40.4497 49.5649L38.5016 47.7303L39.1981 46.9906ZM40.3328 49.1581L40.4589 49.0242L39.0408 47.6886L38.9146 47.8226L40.3328 49.1581ZM39.1889 47.5314L40.607 48.8669L40.7304 48.7359L39.3123 47.4004L39.1889 47.5314ZM38.0457 47.5317L40.6665 49.9998L40.48 50.1979L37.8592 47.7297L38.0457 47.5317Z" fill="white"/>
<path d="M41.0931 50.4396L42.1009 49.7699L42.3444 50.0686L41.7 50.4877L42.1451 50.8781C42.3974 50.7057 42.6483 50.5108 42.9006 50.2959L43.1607 50.5878C42.9162 50.7937 42.6759 50.9767 42.4428 51.1393L43.82 52.3474L43.5799 52.621L42.1306 51.3496C42.0134 51.4225 41.8986 51.4867 41.7894 51.5505L42.9922 52.6056L42.7811 52.8462C42.4867 53.0242 42.1441 53.1174 41.7475 53.1207C41.8652 53.4475 42.039 53.8074 42.2658 54.1979L41.881 54.3393C41.6333 53.8878 41.4558 53.4714 41.3464 53.0987C40.9638 53.0557 40.5402 52.9502 40.0757 52.7822L40.1628 52.3797C40.5584 52.5352 40.9225 52.6418 41.2495 52.6998C41.1912 52.3719 41.1915 52.0743 41.251 51.8125C40.6441 52.0676 40.0592 52.1824 39.4993 52.1594L39.5841 51.7656C40.3208 51.7627 41.0684 51.5353 41.8268 51.0832L41.0931 50.4396ZM41.5956 51.8381C41.5392 52.1026 41.5505 52.4051 41.6321 52.7428C41.9561 52.7556 42.2395 52.7115 42.4766 52.611L41.5956 51.8381ZM43.6949 50.9979C43.7652 51.3363 43.7998 51.6486 43.8013 51.932L43.4174 51.9571C43.4343 51.6952 43.4084 51.3851 43.3362 51.0185L43.6949 50.9979Z" fill="white"/>
<path d="M44.386 53.5576L44.8147 53.9053L45.0163 53.6567L44.4974 53.236L44.3059 53.4721C44.1548 53.6586 43.9962 53.8287 43.8416 53.9814L44.3915 54.4272L44.6031 54.1663L44.1743 53.8186L44.386 53.5576ZM43.5876 54.2183C43.254 54.5091 42.9083 54.7386 42.553 54.9037L42.4876 54.4954C43.0007 54.2626 43.5057 53.843 44.0077 53.2303L44.8541 52.1863L47.231 54.1135L46.576 54.9213L46.1441 54.5712L45.9426 54.8197L46.4086 55.1976L46.197 55.4586L45.731 55.0807L45.5194 55.3417L46.0911 55.8052L45.8744 56.0724L45.5637 55.8205L45.6003 56.1437C45.4083 56.1837 45.2245 56.1944 45.0522 56.1783C45.1376 56.3968 45.2649 56.6082 45.4372 56.8149L45.0707 56.9811C44.6298 56.3816 44.4866 55.7454 44.6378 55.0698L44.2525 54.7574L43.7739 55.3478C43.9981 55.4523 44.2056 55.533 44.3933 55.5873L44.23 55.903C43.9078 55.7859 43.5491 55.6187 43.1538 55.4012L43.2821 55.0778C43.4056 55.1161 43.5051 55.0886 43.5857 54.9892L43.9636 54.5231L43.5876 54.2183ZM44.9361 55.3117C44.9174 55.4871 44.9238 55.657 44.9527 55.8246C45.1287 55.8489 45.3181 55.8377 45.5233 55.7878L44.9361 55.3117ZM45.8583 54.3394L45.299 53.8859L45.0975 54.1345L45.6567 54.588L45.8583 54.3394ZM44.6742 54.6565L45.2335 55.1099L45.4451 54.849L44.8859 54.3955L44.6742 54.6565ZM46.7135 54.142L44.9332 52.6985L44.7115 52.9719L46.4919 54.4154L46.7135 54.142Z" fill="white"/>
<path d="M48.798 55.4093L47.3627 57.3428C47.45 57.3727 47.5342 57.4003 47.6127 57.4287L47.3981 57.7178C46.8717 57.5412 46.2913 57.3097 45.6507 57.0184L45.7841 56.6641C45.8731 56.7053 45.9589 56.7441 46.0423 56.7861L47.6803 54.5796L48.798 55.4093ZM46.3887 56.9436C46.5996 57.0353 46.8072 57.1247 47.0052 57.2069L47.2913 56.8215L46.7678 56.4329L46.3887 56.9436ZM46.9705 56.1599L47.494 56.5485L47.8039 56.131L47.2804 55.7424L46.9705 56.1599ZM47.4854 55.4661L48.009 55.8548L48.2951 55.4694L47.7715 55.0807L47.4854 55.4661ZM49.4439 55.6397L49.7458 55.8638L49.2881 56.4805L49.9882 57.0002C49.2134 58.0441 48.7181 58.6777 48.5048 58.898C48.2882 59.1158 48.0315 59.1195 47.736 58.9002C47.6846 58.862 47.5994 58.7888 47.4789 58.6894L47.6053 58.3648C47.7106 58.4579 47.8022 58.5358 47.8857 58.5978C48.0334 58.7075 48.1765 58.6892 48.3167 58.5541C48.448 58.4174 48.8296 57.9236 49.4702 57.074L49.0687 56.776L49.0449 56.8081C48.351 57.7227 47.6255 58.2303 46.8716 58.3332L46.7937 57.9616C47.4645 57.8767 48.1143 57.4175 48.743 56.584L48.7668 56.5518L48.4007 56.28L48.62 55.9846L48.9862 56.2564L49.4439 55.6397Z" fill="white"/>
<path d="M51.7525 57.2681L52.0712 57.4822L51.8348 57.8341C51.7646 57.9315 51.6966 58.0256 51.6252 58.1174L52.8903 58.9672C52.4845 59.5427 52.1479 60.0008 51.8716 60.3404C51.5997 60.6734 51.376 60.8845 51.2004 60.9738C51.0293 61.0564 50.854 61.0447 50.6691 60.9398L50.2076 60.6297L50.3264 60.2663C50.4614 60.3666 50.5887 60.4569 50.7115 60.5394C50.8875 60.6576 51.0773 60.6261 51.2754 60.446C51.4858 60.2548 51.8502 59.7912 52.3664 59.0586L51.3935 58.4051C51.0303 58.8309 50.6731 59.1547 50.3207 59.3709C49.8471 59.6455 49.3131 59.7446 48.721 59.6649L48.7301 59.2855C49.329 59.3409 49.8274 59.2372 50.2344 58.9757C50.5113 58.7858 50.794 58.5228 51.0747 58.1909L50.1417 57.5642L50.3469 57.2587L51.3065 57.9033C51.38 57.8082 51.448 57.7141 51.516 57.62L51.7525 57.2681Z" fill="white"/>
<path d="M53.6752 59.4704L54.2736 59.8258L54.678 59.1448L55.0048 59.3388L54.6004 60.0198L55.4946 60.5508L55.8908 59.8836L56.2175 60.0776L55.8213 60.7448L56.4232 61.1023L56.2353 61.4187L55.6334 61.0613L55.1902 61.8076L55.9606 62.2651L55.7706 62.5849L52.6822 60.7508L52.8721 60.431L53.6425 60.8885L54.0857 60.1422L53.4873 59.7868L53.6752 59.4704ZM53.9693 61.0825L54.8635 61.6135L55.3067 60.8672L54.4125 60.3362L53.9693 61.0825ZM53.6703 61.4214L53.7852 61.792C53.3098 61.9423 52.7936 62.0126 52.2344 62.0062L52.1831 61.5756C52.7231 61.5985 53.2181 61.5483 53.6703 61.4214ZM54.7359 62.0635C54.9721 62.5666 55.1504 63.0261 55.2704 63.4509L54.8537 63.557C54.771 63.1636 54.6056 62.6979 54.3617 62.153L54.7359 62.0635Z" fill="white"/>
<path d="M58.2521 65.3329L57.7859 65.0936L57.8669 64.7081L58.308 64.9524C58.3862 64.9926 58.451 64.9629 58.5021 64.8633L59.7094 62.511L57.4675 61.3603L56.0118 64.1965L55.6737 64.023L57.2974 60.8594L60.2155 62.3571L58.8018 65.1115C58.6667 65.3748 58.4798 65.4498 58.2521 65.3329ZM57.5075 61.808L59.3224 62.7395L59.1616 63.0526L57.3467 62.1211L57.5075 61.808ZM57.3656 62.5399L58.8139 63.2833L58.2021 64.4755L56.7537 63.7321L57.3656 62.5399ZM58.0299 64.0049L58.3313 63.4178L57.5377 63.0105L57.2364 63.5976L58.0299 64.0049Z" fill="white"/>
<path d="M60.7434 63.3567L62.9447 64.3027L62.8263 64.5783L60.625 63.6323L60.7434 63.3567ZM60.6473 63.8335L62.6723 64.7037L62.358 65.435L60.3331 64.5648L60.6473 63.8335ZM62.1404 65.0498L62.2399 64.8183L60.8618 64.2261L60.7623 64.4576L62.1404 65.0498ZM62.6151 65.7284L62.0449 67.0551L61.7105 66.9113L61.7579 66.8011L59.7623 65.9435L59.7134 66.0574L59.379 65.9137L59.9507 64.5834L62.6151 65.7284ZM59.8808 65.6679L60.704 66.0217L60.7972 65.8048L59.974 65.4511L59.8808 65.6679ZM61.0458 66.1685L61.8763 66.5255L61.9695 66.3086L61.139 65.9517L61.0458 66.1685ZM60.0829 65.1975L60.9062 65.5513L60.9946 65.3455L60.1714 64.9917L60.0829 65.1975ZM61.3364 65.4923L61.2479 65.6981L62.0785 66.0551L62.1669 65.8493L61.3364 65.4923ZM63.6236 64.0198L63.3078 64.7548L62.9733 64.611L63.1565 64.1847L60.6869 63.1234L60.5037 63.5497L60.1693 63.406L60.4851 62.671L61.8743 63.268C61.8739 63.1677 61.8666 63.0731 61.8541 62.9807L62.2506 63.0814C62.2567 63.1885 62.2545 63.3051 62.2455 63.4275L63.6236 64.0198Z" fill="white"/>
<path d="M66.5819 66.928C66.3744 66.592 66.2442 66.2398 66.1938 65.8766C65.8841 66.1436 65.5595 66.3422 65.2213 66.4686L66.5819 66.928ZM65.1301 66.5012C65.0503 66.5249 64.9706 66.5486 64.8921 66.5686L64.7935 66.1976C65.3417 66.0745 65.8145 65.8372 66.2079 65.4845L66.4202 65.5562C66.4803 66.0282 66.6974 66.4984 67.0788 66.9691L66.7756 67.2045C66.7189 67.1347 66.6712 67.0637 66.6297 66.999L66.1204 68.5074L65.7831 68.3935L65.8394 68.2267L65.0132 67.9478L64.9569 68.1146L64.6234 68.002L65.1301 66.5012ZM65.1233 67.6219L65.9495 67.9008L66.199 67.1618L65.3728 66.8829L65.1233 67.6219ZM66.9058 64.9306C67.1044 65.2426 67.2576 65.5392 67.3653 65.8204L67.0358 65.9836C66.9483 65.7176 66.8015 65.4147 66.5953 65.0749L66.9058 64.9306ZM66.0972 64.6872L66.3009 64.984C65.9877 65.1991 65.6809 65.3699 65.3781 65.4915L65.2074 65.1594C65.5342 65.0291 65.8321 64.8721 66.0972 64.6872ZM63.9056 66.1891C63.7535 66.2771 63.59 66.3612 63.4189 66.4427L63.4318 66.0418C63.9932 65.767 64.4144 65.4574 64.6953 65.1132L63.9259 64.8534L64.036 64.5275L64.4528 64.6682C64.4561 64.4836 64.453 64.3052 64.4435 64.1331L64.8242 64.1561C64.8245 64.3926 64.8174 64.6013 64.8053 64.7872L65.1464 64.9024L65.0479 65.1942C64.8762 65.4276 64.6628 65.6468 64.4091 65.8482L64.3989 65.8786C64.4177 65.9103 64.434 65.9369 64.4491 65.9673C64.5619 65.9209 64.6798 65.8467 64.7978 65.7473L64.9409 66.0236C64.823 66.1104 64.7063 66.1808 64.5898 66.2259C64.6551 66.3577 64.709 66.4856 64.7578 66.6161L64.4469 66.8616C64.3947 66.6413 64.336 66.4399 64.2683 66.2651L63.7783 67.7166L63.4296 67.5989L63.9056 66.1891Z" fill="white"/>
<path d="M68.5787 69.1178L68.0772 68.9966L68.0859 68.6201C68.2386 68.6694 68.3884 68.7138 68.5322 68.7486C68.6411 68.7749 68.7077 68.7375 68.7322 68.6364L69.1006 67.1123L67.6115 66.7523L67.6999 66.3869L71.0358 67.1933L70.9474 67.5588L69.4777 67.2035L69.0867 68.8209C69.0228 69.0853 68.8509 69.1836 68.5787 69.1178ZM68.0802 67.2648L68.4259 67.4348C68.1368 67.9328 67.7995 68.341 67.4178 68.6602L67.143 68.3839C67.5344 68.0588 67.8468 67.6857 68.0802 67.2648ZM70.2416 67.7379C70.4044 68.2217 70.5228 68.7195 70.5996 69.236L70.2246 69.3058C70.1436 68.7389 70.029 68.2256 69.8799 67.7698L70.2416 67.7379ZM68.2944 65.4935L70.9266 66.1299L70.8401 66.4876L68.2079 65.8512L68.2944 65.4935Z" fill="white"/>
<path d="M71.5711 66.4291L72.4661 66.5561L72.5133 66.2234L72.8975 66.2779L72.8503 66.6106L73.8008 66.7455L73.848 66.4128L74.2321 66.4673L74.1849 66.8L75.08 66.927L75.0311 67.2715L74.136 67.1445L74.0883 67.4811L73.7041 67.4266L73.7519 67.09L72.8014 66.9551L72.7536 67.2918L72.3695 67.2373L72.4172 66.9006L71.5222 66.7736L71.5711 66.4291ZM72.0396 67.1137C72.2643 67.3233 72.4501 67.5234 72.5996 67.7224L72.3056 67.9433C72.1788 67.7556 71.9896 67.551 71.7428 67.3261L72.0396 67.1137ZM71.6945 67.7515C71.9159 67.9567 72.1016 68.1567 72.2517 68.3518L71.9617 68.5732C71.8343 68.3895 71.6452 68.1849 71.4017 67.9645L71.6945 67.7515ZM71.9675 68.675L72.2664 68.875C72.0687 69.2146 71.8291 69.5361 71.5477 69.8396L71.2251 69.608C71.5229 69.3028 71.7692 68.9903 71.9675 68.675ZM74.2329 67.942L73.1953 67.7948L72.9666 69.4067C72.9497 69.5255 73.0081 69.5984 73.1427 69.6175L73.8992 69.7248C74.0695 69.749 74.1775 69.728 74.2232 69.6617C74.278 69.5887 74.3322 69.4348 74.3897 69.2006L74.7338 69.3665C74.638 69.757 74.5448 69.9861 74.4504 70.0535C74.3532 70.1125 74.1892 70.1296 73.9595 70.097L72.9298 69.9509C72.6446 69.9104 72.5251 69.7561 72.5628 69.4908L72.8584 67.4076L74.6524 67.6622L74.4939 68.779C74.4596 68.9923 74.3211 69.0858 74.0779 69.0634C73.9115 69.0398 73.7497 69.0128 73.5924 68.9824L73.5553 68.6175C73.7154 68.6564 73.8569 68.6846 73.9797 68.702C74.0747 68.7155 74.1284 68.6787 74.1402 68.5955L74.2329 67.942Z" fill="white"/>
<path d="M76.4448 67.4561C76.7864 67.7372 77.1081 68.0175 77.4017 68.2968C77.62 68.0289 77.8117 67.7239 77.9769 67.3779L78.3137 67.5748C78.1311 67.9561 77.9224 68.2885 77.6875 68.5718C77.9654 68.8465 78.2231 69.1244 78.4529 69.3973L78.1459 69.6819C77.9398 69.4179 77.6981 69.1406 77.4205 68.8579C77.0712 69.205 76.6692 69.462 76.2183 69.6371L76.0114 69.285C76.4376 69.129 76.8147 68.8951 77.1389 68.5791C76.8454 68.2958 76.516 68.0072 76.1589 67.7134L76.4448 67.4561ZM75.5295 66.785L78.7352 66.9062L78.7215 67.2699L75.8795 67.1625L75.7793 69.8126L78.7452 69.9247L78.7314 70.2885L75.4018 70.1626L75.5295 66.785Z" fill="white"/>
<path d="M82.8315 68.227L81.9851 68.2784L81.9999 68.522L82.9023 68.4671L82.9212 68.7785L82.0189 68.8334L82.0339 69.0809L83.052 69.019L83.0712 69.3345L82.0531 69.3964L82.0727 69.7198L81.7054 69.7421L81.6858 69.4187L80.8114 69.4719L80.7922 69.1564L81.6666 69.1033L81.6515 68.8557L80.9009 68.9014L80.882 68.5899L81.6326 68.5443L81.6178 68.3008L80.951 68.3413L80.9318 68.0259L81.5986 67.9853L81.5836 67.7378L80.7212 67.7902L80.7025 67.4828L81.5649 67.4304L81.5503 67.1908L80.8835 67.2313L80.8646 66.9199L81.5314 66.8794L81.5151 66.6119L81.8824 66.5895L81.8987 66.857L82.7451 66.8056L82.7786 67.3566L83.0182 67.342L83.0369 67.6494L82.7973 67.664L82.8315 68.227ZM81.9176 67.1685L81.9322 67.408L82.4153 67.3787L82.4007 67.1391L81.9176 67.1685ZM81.9509 67.7155L81.9659 67.963L82.449 67.9336L82.434 67.6861L81.9509 67.7155ZM81.8135 69.8718C82.2647 69.8443 82.7311 69.804 83.2092 69.7589L83.1674 70.1261L81.9976 70.1972C81.2629 70.2419 80.7334 70.1659 80.4053 69.9774C80.3637 69.9519 80.33 69.9259 80.3046 69.9034C80.1875 70.0869 80.049 70.2476 79.8894 70.3895L79.6222 70.0812C79.7906 69.9507 79.9255 69.7982 80.0311 69.6235C79.8698 69.4089 79.7333 69.1407 79.6176 68.8191L79.9299 68.6839C80.0124 68.9193 80.1006 69.1183 80.1984 69.2767C80.2909 69.0186 80.3373 68.7273 80.3418 68.4064L79.6232 68.4501L79.6057 68.1626C79.8043 67.87 79.982 67.5627 80.1467 67.2401L79.5518 67.2763L79.53 66.9169L80.5481 66.855L80.567 67.1664C80.4077 67.5127 80.2498 67.8149 80.0894 68.0771L80.6683 68.0419L80.6822 68.2695C80.6973 68.7815 80.6242 69.2268 80.4628 69.6053C80.5137 69.6503 80.568 69.687 80.6258 69.7156C80.8941 69.8435 81.29 69.8956 81.8135 69.8718Z" fill="white"/>
<path d="M83.5162 66.5223C83.7969 66.6758 84.0347 66.8396 84.2363 67.0045L84.0166 67.3029C83.8394 67.1385 83.597 66.9714 83.2942 66.8048L83.5162 66.5223ZM83.172 67.7237L84.0588 67.5959L84.3001 69.2706C84.408 69.15 84.5216 69.0124 84.6447 68.8572L84.8047 69.2383C84.5816 69.5129 84.3392 69.7661 84.077 69.9938L83.8854 69.6738C83.9408 69.6093 83.9661 69.5329 83.9542 69.4498L83.7465 68.0086L83.2239 68.0839L83.172 67.7237ZM84.6533 67.9911L86.5735 67.7145L86.6231 68.0589C86.559 68.4278 86.4124 68.7561 86.1836 69.0477C86.461 69.1775 86.7914 69.2834 87.166 69.3587L87.0109 69.7125C86.5922 69.6112 86.2373 69.4764 85.9396 69.3172C85.6627 69.5834 85.3043 69.8169 84.8724 70.0166L84.6169 69.7301C85.0189 69.5469 85.349 69.3417 85.6067 69.1106C85.2998 68.8881 85.0721 68.6259 84.9314 68.3229L84.7058 68.3554L84.6533 67.9911ZM85.2838 68.2721C85.4097 68.5005 85.5954 68.696 85.8457 68.862C86.0315 68.6372 86.1664 68.3955 86.2459 68.1335L85.2838 68.2721ZM84.7102 66.423L86.1117 66.221L86.2315 67.0524C86.2441 67.1395 86.2984 67.1802 86.3974 67.1659L86.7458 67.1157L86.7955 67.4602L86.3481 67.5247C86.067 67.5652 85.909 67.4505 85.8714 67.1892L85.7904 66.627L85.1331 66.7217L85.1503 66.8405C85.2096 67.2522 85.046 67.6032 84.6628 67.8887L84.3717 67.6357C84.6826 67.4373 84.8226 67.2029 84.7838 66.9337L84.7102 66.423Z" fill="white"/>
<path d="M88.432 66.2943L89.0507 69.0087L88.6958 69.0896L88.6496 68.8868L88.0334 69.0272L88.1054 69.3431L87.7505 69.424L87.106 66.5965L87.4765 66.5121C87.4987 66.2855 87.5044 66.0585 87.4841 65.8252L87.8661 65.7915C87.876 66.0149 87.8628 66.2271 87.8314 66.4312L88.432 66.2943ZM87.9552 68.684L88.5714 68.5436L88.3962 67.7753L87.78 67.9157L87.9552 68.684ZM87.7045 67.5842L88.3207 67.4438L88.1571 66.7262L87.5409 66.8666L87.7045 67.5842ZM89.3473 67.0703C89.6776 67.3314 89.9396 67.563 90.1313 67.7737L89.8859 68.047C89.679 67.8234 89.4113 67.5849 89.0897 67.3259L89.3473 67.0703ZM90.4453 65.8395C90.752 67.185 90.9218 68.0201 90.9539 68.341C90.9789 68.6307 90.8237 68.8138 90.4922 68.8893C90.4142 68.9071 90.272 68.9313 90.0744 68.9641L89.9073 68.6452C90.0807 68.6139 90.2307 68.5879 90.3555 68.5595C90.5115 68.5239 90.5825 68.4216 90.5686 68.2524C90.5476 68.0521 90.4099 67.3943 90.1644 66.281L89.1855 66.5041C89.1296 66.763 89.0537 67.0059 88.95 67.2347L88.661 66.9929C88.833 66.5598 88.9084 66.0626 88.8794 65.5031L89.2566 65.4663C89.2674 65.6936 89.259 65.9089 89.2402 66.1142L90.4453 65.8395Z" fill="white"/>
<path d="M92.141 64.88L94.0069 64.3066L94.1162 64.6622L92.2503 65.2356L92.141 64.88ZM92.3392 65.8653L94.4651 65.2119L94.5743 65.5675L93.9779 65.7508L94.4761 67.372C94.5513 67.6167 94.4513 67.7813 94.1798 67.8648L93.6254 68.0352L93.4358 67.7043C93.6164 67.6655 93.7908 67.6203 93.9514 67.5709C94.0623 67.5368 94.1067 67.4771 94.082 67.3969L93.6108 65.8636L92.4485 66.2209L92.3392 65.8653ZM91.4334 64.8924L91.8131 64.9431C91.7359 65.4272 91.5069 65.9076 91.1209 66.3945L90.8984 66.0654C91.1882 65.6875 91.3657 65.2982 91.4334 64.8924ZM91.8822 65.7128L92.258 65.7647C92.2183 66.0029 92.1482 66.2378 92.0478 66.4695L92.6283 68.3583L92.2727 68.4676L91.8015 66.9344C91.7003 67.0952 91.5903 67.2546 91.4638 67.4148L91.2462 67.0883C91.5881 66.6485 91.8027 66.1892 91.8822 65.7128Z" fill="white"/>
<path d="M94.3996 64.202L95.7914 63.6758L95.9202 64.0163L94.5283 64.5425L94.3996 64.202ZM94.643 65.2645L96.308 64.6351L96.4382 64.9793L95.5963 65.2976C95.6554 65.8611 95.6809 66.2791 95.6741 66.5553C95.9012 66.4096 96.1236 66.24 96.339 66.0517C96.1836 65.9009 96.0325 65.7613 95.8856 65.633L96.1298 65.3739C96.4207 65.6231 96.7169 65.9089 97.0169 66.2273L96.7695 66.5005L96.5817 66.2978C96.2397 66.581 95.8579 66.8493 95.4326 67.1042L95.2192 66.8C95.2538 66.7784 95.272 66.7587 95.2827 66.7418C95.3286 66.5577 95.3176 66.1214 95.2521 65.4277L94.7732 65.6088L94.643 65.2645ZM96.3515 63.2118L96.7033 63.0788L96.9777 63.8047L97.7858 63.4992C98.2469 64.7189 98.5125 65.4781 98.5864 65.7751C98.6527 66.0751 98.5156 66.2894 98.1751 66.4181C98.1153 66.4407 98.0077 66.4728 97.8552 66.5219L97.6541 66.2388C97.793 66.1991 97.9118 66.1627 98.0091 66.1259C98.1737 66.0637 98.2333 65.9385 98.1954 65.7476C98.1513 65.5633 97.9405 64.9716 97.5717 63.9735L97.1078 64.1489L97.1205 64.1826C97.5166 65.2644 97.5555 66.1477 97.2348 66.8377L96.88 66.7024C97.1658 66.0898 97.1305 65.2949 96.7688 64.3155L96.7561 64.2819L96.2809 64.4615L96.1508 64.1173L96.6259 63.9376L96.3515 63.2118Z" fill="white"/>
<path d="M99.6277 63.1176L100.585 62.692L100.11 61.621L100.468 61.4618L100.944 62.5329L101.85 62.1301L102.003 62.4737L101.096 62.8765L101.972 64.8468L101.614 65.0059L100.738 63.0357L99.7804 63.4612L99.6277 63.1176ZM98.5012 62.375C98.8184 62.4486 99.099 62.5383 99.3447 62.648L99.2143 62.9949C98.9918 62.888 98.7095 62.7946 98.3655 62.7198L98.5012 62.375ZM98.4897 63.6495L99.3341 63.2743L100.026 64.8315C100.101 64.6845 100.173 64.5212 100.247 64.3438L100.496 64.6577C100.359 64.981 100.195 65.2905 100.004 65.5808L99.7347 65.3286C99.7741 65.2498 99.7794 65.173 99.7469 65.0999L99.1492 63.7547L98.6375 63.9821L98.4897 63.6495Z" fill="white"/>
<path d="M103.664 60.3123L103.993 60.1483L105.095 62.3612L104.766 62.5253L103.664 60.3123ZM105.818 62.9349L105.303 63.1916L105.062 62.905C105.237 62.8355 105.398 62.7643 105.549 62.6894C105.649 62.6395 105.678 62.5626 105.63 62.4659L104.23 59.655L104.567 59.4874L106.009 62.3843C106.13 62.6278 106.066 62.8119 105.818 62.9349ZM103.577 60.9275L103.795 61.2302L102.862 61.8869C102.956 62.0409 103.051 62.177 103.145 62.2953C103.242 62.4171 103.333 62.5282 103.424 62.6213C103.499 62.3066 103.532 61.9686 103.518 61.609L103.892 61.615C103.909 62.098 103.86 62.538 103.74 62.9331C103.795 62.9815 103.847 63.0228 103.901 63.0586C104.126 63.2057 104.292 63.2525 104.394 63.2062C104.446 63.1669 104.418 62.9665 104.313 62.6032L104.692 62.6468C104.729 62.8561 104.749 63.0386 104.746 63.196C104.743 63.3857 104.692 63.509 104.592 63.5589C104.42 63.6445 104.193 63.6101 103.911 63.4647C103.809 63.4127 103.71 63.3499 103.616 63.2764C103.49 63.5624 103.325 63.8233 103.121 64.059L102.765 63.8563C102.995 63.5991 103.176 63.3168 103.301 63.0039C103.191 62.8982 103.082 62.7871 102.975 62.6617C102.839 62.5058 102.702 62.3196 102.557 62.1011L102.154 62.3866L101.94 62.0821L102.355 61.7859C102.188 61.5119 102.013 61.1968 101.837 60.8423L102.18 60.6711C102.348 61.0077 102.507 61.3085 102.663 61.57L103.577 60.9275ZM102.648 60.4161C102.855 60.5095 103.068 60.6226 103.28 60.7535L103.065 61.0394C102.852 60.8995 102.643 60.7846 102.436 60.6912L102.648 60.4161Z" fill="white"/>
<path d="M105.43 58.9767L105.744 58.8093C105.724 59.1284 105.74 59.4322 105.794 59.7207C105.85 60.0807 105.964 60.4141 106.128 60.7213C106.29 61.0249 106.503 61.3057 106.772 61.5564C106.98 61.7586 107.222 61.942 107.501 62.1066L107.186 62.274C106.896 62.1294 106.641 61.9571 106.421 61.7569C106.152 61.5152 105.936 61.2362 105.766 60.9185C105.595 60.5973 105.483 60.2584 105.434 59.9035C105.387 59.6023 105.386 59.2946 105.43 58.9767Z" fill="white"/>
<path d="M107.787 58.1484C108.025 58.0159 108.261 57.9711 108.493 58.025C108.721 58.0809 108.897 58.2161 109.02 58.4362C109.141 58.6527 109.166 58.8951 109.105 59.1629C109.064 59.3188 108.967 59.5471 108.812 59.8531C108.643 60.1814 108.57 60.4282 108.593 60.5937L109.84 59.8977L110.027 60.233L108.309 61.1922C108.171 60.9442 108.13 60.6828 108.192 60.4006C108.223 60.2417 108.328 59.9862 108.501 59.6327C108.603 59.4204 108.669 59.2598 108.698 59.1474C108.739 58.9593 108.723 58.7899 108.641 58.6432C108.563 58.5035 108.466 58.4202 108.35 58.3932C108.234 58.3663 108.099 58.3957 107.953 58.4776C107.796 58.5653 107.706 58.684 107.686 58.8371C107.661 58.9886 107.703 59.1622 107.809 59.3687L107.428 59.5812C107.276 59.2998 107.231 59.0315 107.295 58.7761C107.354 58.5048 107.522 58.2966 107.787 58.1484Z" fill="white"/>
<path d="M110.479 56.6171C110.77 56.4476 111.065 56.4374 111.367 56.5898C111.645 56.733 111.895 56.9946 112.119 57.3779C112.341 57.7579 112.448 58.1076 112.436 58.4203C112.419 58.7549 112.267 59.0104 111.977 59.1799C111.686 59.3494 111.389 59.3562 111.089 59.2072C110.811 59.064 110.561 58.8024 110.337 58.419C110.111 58.0322 110.006 57.6859 110.02 57.3767C110.035 57.0386 110.189 56.7866 110.479 56.6171ZM110.665 56.9349C110.461 57.0539 110.384 57.2472 110.433 57.5201C110.459 57.7084 110.555 57.9352 110.71 58.2011C110.863 58.4636 111.014 58.6582 111.167 58.7773C111.379 58.9499 111.587 58.9812 111.791 58.8621C111.991 58.7451 112.07 58.5464 112.024 58.2769C111.991 58.0872 111.899 57.8583 111.746 57.5958C111.591 57.3299 111.437 57.1374 111.289 57.0197C111.075 56.8436 110.865 56.8178 110.665 56.9349Z" fill="white"/>
<path d="M113.047 55.0951C113.28 54.9544 113.515 54.9016 113.748 54.9475C113.978 54.9955 114.159 55.1246 114.289 55.3403C114.417 55.5525 114.451 55.7939 114.399 56.0637C114.363 56.2209 114.274 56.4523 114.13 56.7635C113.972 57.0974 113.908 57.3466 113.937 57.5112L115.159 56.7727L115.358 57.1014L113.673 58.1191C113.526 57.876 113.477 57.6162 113.53 57.332C113.554 57.1721 113.65 56.9132 113.812 56.5539C113.906 56.3382 113.966 56.1754 113.991 56.0622C114.027 55.8727 114.004 55.704 113.917 55.5603C113.834 55.4233 113.735 55.3433 113.618 55.3204C113.501 55.2974 113.368 55.3314 113.224 55.4183C113.07 55.5114 112.984 55.6331 112.97 55.7868C112.95 55.9391 112.998 56.1112 113.111 56.3139L112.738 56.5394C112.575 56.2634 112.522 55.9967 112.577 55.7393C112.627 55.4661 112.787 55.2523 113.047 55.0951Z" fill="white"/>
<path d="M115.376 53.6742C115.608 53.5311 115.842 53.4757 116.075 53.5191C116.306 53.5646 116.488 53.6918 116.621 53.9061C116.751 54.1169 116.788 54.3579 116.738 54.6282C116.704 54.7858 116.618 55.0182 116.477 55.3309C116.323 55.6665 116.261 55.9164 116.292 56.0806L117.506 55.3291L117.708 55.6556L116.035 56.6913C115.885 56.4498 115.833 56.1906 115.883 55.9058C115.906 55.7457 115.999 55.4857 116.157 55.1247C116.248 54.9081 116.307 54.7446 116.331 54.6311C116.364 54.4413 116.34 54.2729 116.251 54.13C116.167 53.994 116.067 53.9151 115.95 53.8934C115.833 53.8717 115.699 53.9071 115.557 53.9956C115.403 54.0903 115.319 54.2129 115.306 54.3667C115.288 54.5193 115.338 54.6908 115.453 54.8923L115.082 55.1218C114.917 54.8476 114.861 54.5815 114.913 54.3235C114.96 54.0498 115.118 53.8342 115.376 53.6742Z" fill="white"/>
<path d="M118.096 53.9869L119.805 52.9097L119.993 53.2074L118.284 54.2847L118.096 53.9869Z" fill="white"/>
<path d="M120.571 50.4096C120.801 50.2634 121.034 50.2049 121.268 50.2452C121.499 50.2877 121.683 50.4125 121.819 50.625C121.952 50.8341 121.991 51.0746 121.946 51.3455C121.914 51.5035 121.83 51.7371 121.694 52.0516C121.544 52.3892 121.485 52.6399 121.518 52.8037L122.723 52.0362L122.929 52.36L121.269 53.4177C121.117 53.1782 121.061 52.9196 121.107 52.6343C121.128 52.4738 121.218 52.2127 121.371 51.8497C121.459 51.6318 121.516 51.4676 121.538 51.3538C121.569 51.1636 121.542 50.9955 121.452 50.8538C121.366 50.7189 121.264 50.6413 121.147 50.6211C121.03 50.601 120.897 50.6382 120.756 50.7285C120.604 50.8252 120.521 50.9489 120.51 51.1029C120.494 51.2557 120.546 51.4266 120.664 51.6265L120.296 51.8608C120.128 51.5888 120.068 51.3235 120.116 51.0649C120.16 50.7906 120.315 50.5729 120.571 50.4096Z" fill="white"/>
<path d="M123.123 48.7791C123.406 48.5978 123.7 48.5755 124.008 48.7153C124.292 48.847 124.553 49.0981 124.792 49.472C125.03 49.8425 125.151 50.1875 125.152 50.5005C125.148 50.8355 125.007 51.097 124.724 51.2782C124.441 51.4595 124.144 51.4785 123.838 51.342C123.554 51.2103 123.294 50.9592 123.054 50.5853C122.813 50.2081 122.693 49.8664 122.695 49.5569C122.696 49.2185 122.84 48.9603 123.123 48.7791ZM123.321 49.0889C123.123 49.2163 123.053 49.4125 123.113 49.6832C123.147 49.8702 123.252 50.093 123.418 50.3523C123.582 50.6083 123.741 50.7965 123.898 50.9092C124.117 51.073 124.327 51.0957 124.525 50.9684C124.721 50.8432 124.791 50.6414 124.734 50.3741C124.694 50.1859 124.592 49.961 124.428 49.705C124.262 49.4457 124.1 49.2596 123.948 49.1481C123.727 48.981 123.517 48.9638 123.321 49.0889Z" fill="white"/>
<path d="M125.541 47.2295C125.77 47.0828 126.003 47.0238 126.238 47.0636C126.469 47.1056 126.653 47.2299 126.789 47.4421C126.923 47.6509 126.963 47.8913 126.918 48.1623C126.886 48.3204 126.803 48.5541 126.667 48.869C126.518 49.2069 126.46 49.4577 126.494 49.6215L127.696 48.8512L127.903 49.1745L126.246 50.2361C126.093 49.9969 126.037 49.7385 126.082 49.453C126.103 49.2925 126.192 49.0312 126.344 48.6678C126.432 48.4497 126.488 48.2854 126.51 48.1715C126.54 47.9812 126.514 47.8132 126.423 47.6717C126.337 47.537 126.235 47.4597 126.118 47.4398C126 47.4199 125.868 47.4574 125.726 47.548C125.575 47.6451 125.492 47.769 125.482 47.923C125.466 48.0759 125.518 48.2466 125.636 48.4463L125.269 48.6814C125.1 48.4098 125.039 48.1446 125.087 47.8859C125.13 47.6115 125.285 47.3935 125.541 47.2295Z" fill="white"/>
<path d="M127.313 46.1609L128.764 45.2361L128.97 45.5599L127.817 46.2954L128.189 47.0354L128.199 47.0289C128.224 46.904 128.274 46.7963 128.35 46.7002C128.414 46.6072 128.504 46.5258 128.612 46.457C128.838 46.3129 129.071 46.2688 129.307 46.3269C129.544 46.385 129.747 46.54 129.912 46.7997C130.072 47.0493 130.106 47.3119 130.025 47.5865C129.943 47.8378 129.783 48.0398 129.543 48.1925C129.328 48.3302 129.103 48.3878 128.873 48.3686C128.619 48.3502 128.411 48.2316 128.252 48.0198L128.613 47.7897C128.712 47.916 128.833 47.9861 128.967 47.9955C129.087 48.0046 129.214 47.9661 129.349 47.8801C129.497 47.7855 129.592 47.6587 129.635 47.5031C129.676 47.3442 129.649 47.1905 129.55 47.0353C129.443 46.8667 129.315 46.7631 129.167 46.7246C129.019 46.6861 128.868 46.7163 128.706 46.8195C128.598 46.8883 128.518 46.9633 128.463 47.0554C128.401 47.1517 128.377 47.2567 128.386 47.3745L128.042 47.5938L127.313 46.1609Z" fill="white"/>
<path d="M130.792 44.3735C130.799 44.7 130.747 45.0072 130.636 45.304L130.249 45.1699C130.427 44.7027 130.441 44.2214 130.287 43.7226L130.657 43.5744C130.695 43.7108 130.728 43.837 130.751 43.9641L132.808 42.6668L133.005 42.9781L131.966 43.6331L132.26 44.1L133.181 43.5197L133.371 43.8208L132.45 44.4012L132.864 45.0575L134.008 44.3363L134.206 44.651L133.063 45.3722L133.524 46.103L133.202 46.3057L132.741 45.5749L131.205 46.5436L131.007 46.2289L131.538 45.8939L130.934 44.9364L131.939 44.3027L131.644 43.8358L130.792 44.3735ZM131.863 45.6891L132.543 45.2602L132.129 44.6039L131.449 45.0327L131.863 45.6891Z" fill="white"/>
<path d="M132.843 42.1229L133.145 41.9347C133.439 42.0581 133.705 42.2129 133.946 42.4024C134.225 42.6242 134.466 42.8892 134.658 43.1982C134.848 43.5037 134.978 43.833 135.056 44.185C135.115 44.4777 135.137 44.7847 135.12 45.1061L134.818 45.2943C134.811 44.9733 134.774 44.6713 134.706 44.3884C134.621 44.0317 134.488 43.7046 134.306 43.4125C134.122 43.1171 133.887 42.8535 133.607 42.6228C133.381 42.4337 133.126 42.2671 132.843 42.1229Z" fill="white"/>
<path d="M135.099 40.7185L136.781 41.8796L137.049 43.9051L136.701 43.9493L136.453 42.08L134.901 41.0084L135.099 40.7185ZM135.683 40.3615L137.364 41.5225L137.633 43.548L137.285 43.5922L137.036 41.723L135.471 40.6597L135.683 40.3615Z" fill="white"/>
</svg>
