<svg width="122" height="91" viewBox="0 0 122 91" fill="none" xmlns="http://www.w3.org/2000/svg">
<path d="M2.66323 84.1037L3.02169 84.0321L3.35539 85.8947L4.96153 86.8827L4.77938 87.1826L3.03893 86.1122L2.66323 84.1037ZM3.22692 83.7163L3.5722 83.6537L3.91909 85.5072L5.52523 86.4952L5.34307 86.7952L3.60263 85.7247L3.22692 83.7163Z" fill="white"/>
<path d="M4.61973 82.7584C4.86104 82.8282 5.11107 82.9165 5.36662 83.0255L5.24159 83.273L5.90605 82.779C5.88558 82.5101 5.82601 82.2155 5.72973 81.8983L6.08792 81.7565C6.17482 82.0209 6.22575 82.2771 6.24952 82.5236L6.85942 82.0702L7.07899 82.3655L6.03253 83.1435L6.10652 83.243C6.21466 83.4019 6.30362 83.5551 6.379 83.7034L7.65658 82.7535L7.87614 83.0488L6.75265 83.8841C7.19872 84.1556 7.8267 84.1622 8.63897 83.9072L8.674 84.3298C7.79466 84.5549 7.09565 84.5064 6.57296 84.1922C6.62735 84.386 6.65697 84.5733 6.65943 84.751C6.65594 85.2021 6.46431 85.6886 6.08453 86.2102L5.71952 86.0678C6.09453 85.5398 6.27801 85.0894 6.27318 84.7141C6.26496 84.5757 6.23994 84.4348 6.20053 84.2946L5.10271 85.1109L4.88314 84.8155L6.06442 83.9373C5.98986 83.7834 5.90411 83.6278 5.79836 83.4722L5.72437 83.3726L4.67471 84.1531L4.45514 83.8577L5.14208 83.347C4.89772 83.2396 4.66365 83.1594 4.4407 83.1009L4.61973 82.7584Z" fill="white"/>
<path d="M7.22418 80.9481L9.59787 79.0681L9.82883 79.3597L8.82856 80.1519L9.43453 80.917L10.6543 79.9509L10.8902 80.2488L9.67047 81.2149L10.5173 82.2842C10.6912 82.5037 10.6646 82.7084 10.4357 82.8897L9.9371 83.2846L9.6459 83.0458C9.81327 82.9285 9.97189 82.8131 10.1161 82.6989C10.2165 82.6194 10.2294 82.5326 10.1598 82.4448L9.37258 81.4508L8.09951 82.4591L7.86358 82.1613L9.13665 81.153L8.53068 80.3879L7.45515 81.2397L7.22418 80.9481Z" fill="white"/>
<path d="M10.2764 78.6208L12.7051 76.6117L12.9396 76.8952L12.4465 77.3032L13.0584 78.0429L13.7087 77.5049L13.9433 77.7884L13.293 78.3264L14.397 79.6609L14.1042 79.9032L13.0002 78.5686L12.1742 79.252C12.3984 79.5857 12.5514 79.8899 12.6298 80.1729C12.7269 80.5287 12.6953 80.8922 12.5358 81.2578L12.1746 81.1413C12.3013 80.7925 12.3179 80.4673 12.2237 80.1714C12.1496 79.9627 12.0316 79.7385 11.8753 79.4993L11.1972 80.0602L10.9626 79.7767L11.6623 79.1979C11.6419 79.1732 11.6245 79.146 11.6092 79.1275L11.0534 78.4556L10.511 78.9044L10.2764 78.6208ZM11.3493 78.2109L11.9051 78.8828C11.9255 78.9074 11.9403 78.9315 11.9581 78.9531L12.7656 78.2851L12.1537 77.5454L11.3493 78.2109Z" fill="white"/>
<path d="M14.6783 76.6212L15.0995 76.2644L14.8927 76.0203L14.383 76.452L14.5794 76.684C14.7345 76.8671 14.8723 77.0545 14.9936 77.2348L15.5338 76.7772L15.3167 76.5208L14.8954 76.8776L14.6783 76.6212ZM15.1793 77.5283C15.403 77.9102 15.5644 78.2925 15.6606 78.6723L15.2472 78.6607C15.1138 78.1132 14.7952 77.5391 14.2864 76.9321L13.4178 75.9065L15.7528 73.9289L16.425 74.7225L16.0007 75.0818L16.2075 75.326L16.6654 74.9382L16.8825 75.1946L16.4247 75.5824L16.6418 75.8388L17.2035 75.3631L17.4258 75.6256L17.1206 75.8842L17.4449 75.9082C17.4486 76.1043 17.4249 76.2869 17.3771 76.4532C17.6077 76.4099 17.839 76.324 18.0741 76.1931L18.1694 76.5841C17.4985 76.906 16.8467 76.9286 16.2109 76.6546L15.8325 76.9751L16.3236 77.5551C16.468 77.3542 16.5858 77.1653 16.6741 76.9909L16.9539 77.21C16.7791 77.5048 16.5481 77.8263 16.261 78.1743L15.967 77.9881C16.0276 77.8739 16.0191 77.7711 15.9364 77.6734L15.5486 77.2155L15.1793 77.5283ZM16.504 76.4064C16.6729 76.4573 16.8411 76.4826 17.0111 76.4853C17.0677 76.3169 17.0918 76.1287 17.0809 75.9178L16.504 76.4064ZM15.7199 75.3197L15.1705 75.785L15.3773 76.0292L15.9267 75.5639L15.7199 75.3197ZM15.8116 76.542L16.361 76.0767L16.1439 75.8203L15.5944 76.2856L15.8116 76.542ZM15.6847 74.4426L13.9357 75.9239L14.1632 76.1925L15.9122 74.7112L15.6847 74.4426Z" fill="white"/>
<path d="M17.5325 72.725C17.7399 72.549 17.9629 72.4594 18.2007 72.4675C18.4353 72.4783 18.6344 72.5769 18.7975 72.769C18.9579 72.9581 19.0297 73.191 19.0214 73.4656C19.011 73.6265 18.9599 73.8692 18.8676 74.1994C18.7648 74.5542 18.741 74.8105 18.7962 74.9683L19.8849 74.0443L20.1334 74.3371L18.6329 75.6104C18.4491 75.3939 18.3588 75.1453 18.3654 74.8564C18.3645 74.6945 18.4179 74.4236 18.52 74.0432C18.5784 73.8153 18.6122 73.6449 18.6189 73.5291C18.6233 73.3365 18.5742 73.1736 18.4655 73.0455C18.362 72.9235 18.2508 72.8604 18.1319 72.8564C18.0131 72.8523 17.8865 72.9072 17.7584 73.0159C17.6212 73.1324 17.5563 73.2662 17.5664 73.4202C17.5709 73.5738 17.6456 73.736 17.7896 73.9181L17.4571 74.2002C17.2531 73.9536 17.1576 73.6989 17.1706 73.4361C17.1764 73.1584 17.3007 72.9217 17.5325 72.725Z" fill="white"/>
<path d="M19.9459 70.6902C20.2035 70.4744 20.4927 70.4148 20.8161 70.5143C21.1144 70.6088 21.4049 70.8247 21.69 71.1651C21.9725 71.5024 22.1367 71.8293 22.1774 72.1395C22.2162 72.4723 22.1093 72.7497 21.8518 72.9654C21.5942 73.1812 21.3024 73.2377 20.9816 73.1412C20.6832 73.0467 20.3928 72.8308 20.1077 72.4905C19.82 72.147 19.6584 71.8232 19.6202 71.5161C19.5789 71.1802 19.6883 70.9059 19.9459 70.6902ZM20.1822 70.9723C20.0013 71.1238 19.9578 71.3272 20.0511 71.5882C20.109 71.7694 20.2411 71.9769 20.4389 72.2131C20.6341 72.4461 20.8153 72.6126 20.9861 72.7044C21.2241 72.839 21.4345 72.8348 21.6155 72.6833C21.7933 72.5343 21.8373 72.3253 21.7465 72.0674C21.6831 71.8857 21.554 71.6755 21.3588 71.4425C21.161 71.2064 20.9767 71.0425 20.8116 70.9512C20.5711 70.8135 20.3601 70.8233 20.1822 70.9723Z" fill="white"/>
<path d="M22.2456 68.7909C22.4563 68.6189 22.681 68.5336 22.9185 68.5462C23.153 68.5614 23.3501 68.6638 23.5095 68.859C23.6663 69.0511 23.7336 69.2853 23.7201 69.5597C23.7067 69.7204 23.651 69.9621 23.5524 70.2904C23.4428 70.6432 23.4141 70.899 23.4663 71.0578L24.5725 70.1547L24.8153 70.4522L23.2909 71.6968C23.1112 71.4768 23.0257 71.2265 23.0378 70.9377C23.04 70.7759 23.0985 70.5061 23.2078 70.1277C23.2706 69.9009 23.3076 69.7312 23.3165 69.6156C23.3245 69.4231 23.2786 69.2592 23.1723 69.1291C23.0711 69.0051 22.9612 68.94 22.8424 68.9337C22.7236 68.9274 22.5961 68.9799 22.466 69.0861C22.3265 69.1999 22.2591 69.3324 22.2663 69.4866C22.2678 69.6403 22.3394 69.8039 22.4799 69.9887L22.1422 70.2644C21.9429 70.014 21.8523 69.7575 21.8703 69.4949C21.8813 69.2175 22.0101 68.9832 22.2456 68.7909Z" fill="white"/>
<path d="M24.5381 66.9591C24.7646 66.7812 24.9859 66.6938 25.2108 66.6952C25.4294 66.7016 25.6172 66.7982 25.7679 66.9901C25.9606 67.2355 25.9657 67.501 25.7846 67.7755C25.9488 67.7127 26.0989 67.6965 26.2323 67.724C26.3746 67.7496 26.4988 67.8301 26.6025 67.9622C26.7656 68.1698 26.8266 68.3965 26.7889 68.6398C26.7416 68.8905 26.5978 69.1154 26.3587 69.3031C26.129 69.4835 25.8965 69.5695 25.6667 69.5618C25.4056 69.5532 25.1668 69.4305 24.9503 69.1936L25.2964 68.9219C25.4212 69.0679 25.5598 69.1473 25.7184 69.1549C25.8595 69.1662 25.9961 69.12 26.1283 69.0162C26.273 68.9026 26.3548 68.7671 26.3786 68.6161C26.3948 68.4813 26.3641 68.358 26.2751 68.2447C26.1714 68.1126 26.0539 68.0472 25.9227 68.0485C25.7978 68.0449 25.6598 68.1024 25.512 68.2185L25.3484 68.347L25.1458 68.089L25.3062 67.963C25.4447 67.8543 25.5238 67.7413 25.546 67.6272C25.5683 67.5131 25.5369 67.3953 25.4479 67.2821C25.359 67.1688 25.2577 67.1111 25.1478 67.1007C25.0292 67.0922 24.9032 67.1454 24.771 67.2491C24.6358 67.3554 24.556 67.474 24.5348 67.6025C24.5137 67.731 24.548 67.8719 24.6441 68.0202L24.3075 68.2845C24.151 68.0463 24.0969 67.8091 24.1459 67.5671C24.1855 67.3326 24.3179 67.132 24.5381 66.9591Z" fill="white"/>
<path d="M26.6537 65.8537C26.6845 66.1788 26.6547 66.489 26.5657 66.793L26.1698 66.6873C26.3138 66.2085 26.2923 65.7275 26.1028 65.2411L26.4611 65.0665C26.5096 65.1997 26.5509 65.3233 26.5835 65.4483L28.5414 64.0057L28.7597 64.3019L27.7711 65.0304L28.0985 65.4748L28.9744 64.8294L29.1856 65.116L28.3097 65.7614L28.77 66.3861L29.8585 65.5841L30.0791 65.8836L28.9907 66.6856L29.5032 67.3812L29.1973 67.6066L28.6848 66.911L27.2228 67.9882L27.0021 67.6888L27.5077 67.3162L26.8362 66.4049L27.7926 65.7002L27.4651 65.2558L26.6537 65.8537ZM27.8168 67.0885L28.4641 66.6115L28.0038 65.9868L27.3565 66.4637L27.8168 67.0885Z" fill="white"/>
<path d="M29.1735 63.1097C29.4631 63.1466 29.7207 63.2003 29.9516 63.2718L29.8816 63.6414C29.6717 63.5654 29.4086 63.5107 29.0957 63.4749L29.1735 63.1097ZM29.6295 63.955C29.9192 63.9919 30.1822 64.0467 30.4154 64.1215L30.3432 64.4878C30.1277 64.4107 29.8647 64.3559 29.5517 64.3202L29.6295 63.955ZM30.4214 64.7194L30.7718 64.6386C30.944 65.1396 31.0906 65.624 31.2072 66.0852L30.828 66.1517C30.7158 65.6683 30.5791 65.1916 30.4214 64.7194ZM31.4288 63.4853L31.6449 63.8075C31.5853 63.9198 31.5201 64.0309 31.4561 64.1364L32.0598 65.0368C32.2068 65.256 32.1862 65.4336 31.9935 65.5628L31.7244 65.7432L31.4731 65.512C31.565 65.4696 31.6492 65.4228 31.7223 65.3738C31.7755 65.3382 31.772 65.2683 31.7074 65.1719L31.2395 64.4743L31.0273 64.7611L30.7515 64.5078C30.851 64.3977 30.9428 64.2831 31.0324 64.1653L30.5267 63.4112L30.1978 63.6317L30.0151 63.3593L30.344 63.1387L29.9474 62.5474L30.2531 62.3424L30.6496 62.9338L30.9254 62.7489L31.108 63.0213L30.8323 63.2062L31.2489 63.8275C31.3107 63.7186 31.3714 63.6008 31.4288 63.4853ZM31.7361 61.4154L32.0549 61.5821C31.8538 61.8566 31.5982 62.1147 31.286 62.353L31.6647 62.9177L32.6016 62.2895L32.7909 62.5719L32.5052 62.7635L33.6592 64.4844L33.3602 64.6849L32.2062 62.964L31.854 63.2001L31.9899 63.4028C32.3944 64.0418 32.6078 64.6259 32.6303 65.155L32.2662 65.0717C32.2384 64.6424 32.0496 64.1526 31.6976 63.5988L30.8243 62.2965C31.2052 62.0315 31.5084 61.7366 31.7361 61.4154Z" fill="white"/>
<path d="M34.3939 60.3905L33.5599 60.8896L33.375 60.5807L35.3348 59.4078L35.5197 59.7167L34.7131 60.1994L36.0545 62.4407L36.9777 61.8881L37.1647 62.2004L34.92 63.5439L34.7331 63.2315L35.7353 62.6317L34.3939 60.3905ZM32.535 60.883C32.8738 60.904 33.1763 60.942 33.4376 61.0047L33.3487 61.3703C33.1121 61.3021 32.8076 61.2606 32.4385 61.2437L32.535 60.883ZM32.9367 61.7567C33.2756 61.7777 33.5753 61.8267 33.8386 61.8929L33.7477 62.255C33.509 62.1834 33.2079 62.1398 32.8403 62.1174L32.9367 61.7567ZM33.8565 62.4602L34.2106 62.3975C34.3088 62.9354 34.3733 63.4561 34.4043 63.9597L34.0222 64.0066C34.0022 63.4825 33.9451 62.9666 33.8565 62.4602Z" fill="white"/>
<path d="M37.2234 58.1328L37.5532 57.9607L38.025 58.865L37.6952 59.0371L37.2234 58.1328ZM37.2656 60.1592C37.1262 60.2725 36.9868 60.3858 36.8456 60.4956L36.5481 60.2628C37.5303 59.5338 38.2124 58.8349 38.5909 58.1682C38.4257 58.1371 38.2535 58.1096 38.0742 58.0859L38.1882 57.7511C38.6813 57.8142 39.1212 57.905 39.499 58.0237L39.3889 58.3834C39.2485 58.3304 39.0974 58.2829 38.9321 58.2428C38.7293 58.6238 38.4497 59.0044 38.0913 59.3899L39.3467 58.7348L40.3515 60.6604L40.0217 60.8325L39.9514 60.6978L38.3875 61.5138L38.4615 61.6556L38.1353 61.8259L37.2656 60.1592ZM38.2321 61.2159L39.796 60.3999L39.672 60.1623L38.1081 60.9783L38.2321 61.2159ZM37.9674 60.7088L39.5313 59.8928L39.4185 59.6764L37.8546 60.4925L37.9674 60.7088ZM37.7158 60.2265L39.2797 59.4105L39.1631 59.1871L37.5992 60.0031L37.7158 60.2265ZM36.7721 58.6255L37.1188 58.7107C37.0447 59.0788 36.9042 59.4408 36.6956 59.7933L36.3692 59.6433C36.5638 59.3071 36.6993 58.9702 36.7721 58.6255Z" fill="white"/>
<path d="M40.7402 57.6491L41.0799 57.4974L41.3033 57.9978L41.7234 57.8103L41.862 58.1207L41.4419 58.3083L41.6262 58.721C41.7796 58.6131 41.9276 58.5032 42.0647 58.3982L42.2098 58.7233C42.0707 58.8336 41.9263 58.9418 41.7746 59.0534L42.1252 59.8387L41.7856 59.9903L41.4643 59.2708C41.2542 59.4084 41.033 59.551 40.8014 59.6894L40.6059 59.3693C40.8558 59.2227 41.0915 59.0736 41.3126 58.9311L41.1023 58.4599L40.474 58.7404L40.264 58.4663C40.2742 58.2339 40.2542 57.9537 40.2057 57.6293L39.8989 57.7663L39.7489 57.4303L40.1433 57.2541C40.1114 57.0844 40.0741 56.9127 40.032 56.73L40.3872 56.6327C40.4232 56.7919 40.4539 56.949 40.483 57.1025L41.3267 56.7258L41.4768 57.0618L40.5454 57.4776C40.5914 57.7769 40.617 58.0502 40.624 58.3012L40.9636 58.1495L40.7402 57.6491ZM41.404 56.0648L41.7718 55.9663C41.8347 56.166 41.8837 56.3544 41.9226 56.5298L43.0403 56.0308L43.1397 56.2536C43.2142 56.597 43.2652 56.9466 43.2979 57.3044L42.9085 57.3643C42.9052 57.1117 42.878 56.8348 42.8198 56.5279L41.987 56.8997C42.0265 57.2237 42.0217 57.4975 41.9685 57.7315L41.5939 57.6578C41.6704 57.2207 41.6057 56.6932 41.404 56.0648ZM42.209 57.0634L42.5414 56.915C42.6556 57.1706 42.7437 57.4073 42.8164 57.6289C43.229 58.1018 43.7116 58.4076 44.2642 58.5463L44.1467 58.9405C43.7054 58.7958 43.3094 58.5565 42.9583 58.2314C43.0306 58.7072 42.9226 59.1716 42.6411 59.6302L42.2854 59.4517C42.5284 59.0541 42.6244 58.6608 42.5774 58.2613C42.5346 57.9299 42.4125 57.5289 42.209 57.0634Z" fill="white"/>
<path d="M44.041 54.9738L44.4319 55.0024C44.4491 55.3334 44.4308 55.6606 44.3793 55.979L45.3142 58.4735L44.9659 58.6041L44.2247 56.6264C44.1703 56.8006 44.1057 56.97 44.0359 57.1372L43.778 56.8024C43.9897 56.2275 44.0774 55.618 44.041 54.9738ZM44.7713 55.0076L45.1365 54.922C45.1697 55.1018 45.1963 55.2755 45.2113 55.4407L45.6608 55.2723L45.38 54.5232L45.7358 54.3898L46.0166 55.1389L46.8444 54.8287L46.9749 55.177L46.1471 55.4873L46.449 56.2926L47.4153 55.9304L47.5445 56.275L46.5781 56.6371L47.0203 57.817L46.6645 57.9504L46.2223 56.7705L45.1585 57.1692L45.0294 56.8246L46.0931 56.4259L45.7913 55.6206L45.2257 55.8326C45.2205 56.1037 45.1882 56.3593 45.1263 56.6046L44.787 56.3943C44.8793 55.9795 44.8761 55.5151 44.7713 55.0076Z" fill="white"/>
<path d="M50.5651 53.0552L51.5318 56.1937L51.1801 56.302L51.0941 56.023L50.2646 56.2785L50.3647 56.6034L50.0168 56.7106L49.036 53.5262L50.5651 53.0552ZM50.1586 55.9344L50.9881 55.6789L50.3182 53.5038L49.4886 53.7593L50.1586 55.9344ZM47.548 54.8509L48.1864 54.6543L48.0451 54.1955C47.8775 54.2764 47.7037 54.3509 47.5326 54.4203L47.3178 54.1307C47.8924 53.9035 48.337 53.662 48.6577 53.4125L48.9228 53.6615C48.749 53.7904 48.5691 53.9128 48.3768 54.0222L48.5381 54.5459L49.1612 54.354L49.266 54.6942L48.6429 54.8862L48.69 55.0391C48.9617 55.1604 49.2444 55.3036 49.5379 55.4685L49.4204 55.8479C49.173 55.6562 48.9677 55.506 48.7983 55.3908L49.2987 57.0154L48.947 57.1238L48.4701 55.5755C48.4161 55.9438 48.308 56.2993 48.1534 56.6399L47.8742 56.2906C48.1165 55.8812 48.2566 55.453 48.2971 55.0136L48.2912 54.9945L47.6528 55.1911L47.548 54.8509Z" fill="white"/>
<path d="M51.8651 54.0947C51.7967 54.2517 51.7245 54.4096 51.6405 54.5704L51.4224 54.204C51.6685 53.6653 51.8062 53.0711 51.8333 52.4299L52.2192 52.5077C52.2008 52.8171 52.1572 53.1245 52.0835 53.427L52.7332 56.06L52.372 56.1491L51.8651 54.0947ZM52.2346 52.8706L53.3725 52.5898C53.2894 52.4702 53.1995 52.3564 53.1029 52.2485L53.4323 52.0642C53.557 52.2188 53.6584 52.3627 53.7375 52.4997L54.7861 52.241L54.8714 52.5866L52.3199 53.2162L52.2346 52.8706ZM52.7317 53.3659L54.5997 52.905L54.6812 53.2351L52.8132 53.696L52.7317 53.3659ZM52.8669 53.9135L54.7348 53.4526L54.8172 53.7865L52.9493 54.2475L52.8669 53.9135ZM54.9592 54.0111L55.3061 55.4169L54.9488 55.5051L54.8989 55.3031L53.5786 55.6289L53.6284 55.8309L53.2711 55.919L52.9242 54.5132L54.9592 54.0111ZM53.4933 55.2833L54.8137 54.9575L54.6862 54.441L53.3658 54.7668L53.4933 55.2833Z" fill="white"/>
<path d="M55.7476 51.8288L56.6158 51.6628C56.6442 51.5556 56.6608 51.4506 56.6688 51.3432L57.0675 51.3199C57.0604 51.4109 57.0408 51.5001 57.0166 51.5862L58.262 51.3481L58.6413 53.3322L56.1269 53.8129L55.7476 51.8288ZM58.219 53.083L58.1702 52.8277L56.3787 53.1702L56.4275 53.4256L58.219 53.083ZM56.3216 52.8716L58.1131 52.5291L58.0658 52.2816L56.2743 52.6241L56.3216 52.8716ZM56.2179 52.3294L58.0095 51.9869L57.9614 51.7354L56.1699 52.078L56.2179 52.3294ZM55.9583 54.0813L56.3254 54.0844C56.301 54.4679 56.2353 54.8062 56.1214 55.1049L55.7688 54.9646C55.8857 54.6816 55.9471 54.3848 55.9583 54.0813ZM58.1229 54.7956L57.125 54.9863C56.8657 55.0359 56.712 54.935 56.6639 54.6835L56.5265 53.9646L56.9036 53.8924L57.0261 54.5328C57.0411 54.6114 57.0886 54.6471 57.1672 54.6321L57.9883 54.4751C58.063 54.4609 58.1103 54.4314 58.1303 54.3869C58.1645 54.3315 58.1657 54.1887 58.1332 53.9547L58.5125 54.0003C58.5449 54.3402 58.5243 54.5519 58.4553 54.6383C58.388 54.7123 58.2801 54.7655 58.1229 54.7956ZM57.4008 53.6386C57.6309 53.7982 57.8125 53.9386 57.9432 54.0684L57.7018 54.3181C57.5602 54.1742 57.3803 54.0212 57.1581 53.8601L57.4008 53.6386ZM58.6738 53.4807C58.9681 53.7421 59.1968 53.9794 59.366 54.1832L59.1112 54.4478C58.9295 54.2219 58.7002 53.9807 58.4176 53.717L58.6738 53.4807Z" fill="white"/>
<path d="M59.9127 52.1379L60.0891 52.6946L60.623 52.5254L60.4466 51.9687L59.9127 52.1379ZM60.3439 51.6446L60.165 51.0803L59.6312 51.2494L59.81 51.8138L60.3439 51.6446ZM60.1854 53.0249C60.323 53.552 60.3681 54.0119 60.3193 54.4008L59.9662 54.2399C60.0136 53.8599 59.9557 53.4124 59.7964 52.8964L59.2032 51.0242L60.3891 50.6484L61.3339 53.6303C61.4161 53.8896 61.339 54.0567 61.1064 54.1304L60.8013 54.2271L60.6121 53.9345C60.7225 53.9122 60.8202 53.8896 60.9118 53.8606C60.9918 53.8352 61.012 53.7533 60.9697 53.6198L60.7269 52.8534L60.1854 53.0249ZM61.5339 52.1823L61.9652 53.5436C62.1297 53.374 62.2539 53.1835 62.3443 52.9787C62.0337 52.7666 61.7797 52.4946 61.5834 52.1666L61.5339 52.1823ZM61.9688 53.555L62.0607 53.8448L61.7213 53.9523L60.6484 50.5663L62.2537 50.0576C62.4108 50.5533 62.4918 50.8885 62.498 51.0669C62.503 51.2416 62.3835 51.3676 62.1394 51.4449L61.8191 51.5464L61.6271 51.2716C61.6881 51.2522 61.7732 51.2294 61.88 51.1956C61.9601 51.1702 62.0187 51.1433 62.0532 51.1198C62.0877 51.0962 62.1073 51.0523 62.1133 50.9916C62.1156 50.9196 62.0801 50.7546 62.0068 50.4967L61.0916 50.7867L61.4324 51.862L62.7212 51.4536L62.8179 51.7586C62.8676 52.1541 62.8547 52.5106 62.778 52.8245C62.9814 52.9236 63.2067 52.9991 63.4513 53.0559L63.3688 53.4177C63.1103 53.3569 62.8738 53.2725 62.6641 53.1669C62.5633 53.3918 62.4224 53.5959 62.2451 53.778L61.9688 53.555ZM61.8923 52.0687C62.0471 52.2924 62.2328 52.4811 62.4532 52.6337C62.5047 52.3991 62.5211 52.1464 62.5024 51.8754L61.8923 52.0687Z" fill="white"/>
<path d="M63.4129 49.4127L63.7918 49.3124C63.7926 49.4164 63.7881 49.5183 63.7768 49.6144L65.3522 48.9442L65.4728 49.2276C65.36 49.5755 65.1852 49.9107 64.9507 50.2278C65.4071 50.2075 65.8874 50.1206 66.3921 49.958L66.3732 50.353C65.7744 50.5294 65.1996 50.6087 64.6508 50.5857C64.2937 50.9724 63.8395 51.3352 63.2955 51.6709L62.9942 51.4122C63.4608 51.1398 63.8586 50.8489 64.1803 50.5425C63.9598 50.5146 63.7478 50.4657 63.5436 50.4047C63.4639 50.5647 63.37 50.722 63.2582 50.8782L62.9257 50.6893C63.2515 50.2595 63.4138 49.834 63.4129 49.4127ZM64.4906 50.2192C64.6913 49.986 64.8532 49.7433 64.9799 49.4894L63.688 50.039C63.6816 50.0548 63.6774 50.0653 63.6769 50.0742C63.9356 50.151 64.2086 50.2001 64.4906 50.2192ZM64.4777 50.9246L64.8236 50.7774C64.88 50.9099 64.9222 51.0397 64.9539 51.1654L66.2238 50.6252C66.4904 51.2724 66.5996 51.6824 66.5498 51.8514C66.5 52.0204 66.3441 52.1649 66.0865 52.2745C65.9613 52.3278 65.8036 52.3862 65.6222 52.4503L65.3992 52.1713C65.5938 52.0973 65.7515 52.0388 65.8724 51.9961C66.0586 51.9126 66.1591 51.822 66.1757 51.728C66.1906 51.6303 66.134 51.4154 66.0072 51.0868L65.0097 51.5111C65.0142 51.6135 65.0134 51.7139 65.0021 51.8099C64.959 52.2195 64.6442 52.6751 64.0556 53.1819L63.7032 52.9971C64.228 52.5652 64.531 52.1842 64.607 51.8519C64.6161 51.7916 64.6252 51.7312 64.6269 51.674L63.5926 52.1139L63.4595 51.8011L64.6006 51.3157C64.5725 51.1885 64.534 51.0571 64.4777 50.9246Z" fill="white"/>
<path d="M67.0198 47.8274L67.3573 47.6528L68.802 50.4452L69.2283 50.2247L67.7837 47.4322L68.1212 47.2576L69.5658 50.0501L70.6032 49.5134L70.7741 49.8438L67.6051 51.4833L67.4342 51.1529L68.4645 50.6198L67.0198 47.8274ZM69.1274 47.5747L69.4699 47.5056C69.6511 48.1865 69.7527 48.8095 69.7766 49.3781L69.4195 49.4277C69.4052 48.9127 69.309 48.2914 69.1274 47.5747ZM66.6865 48.8285C67.114 49.2108 67.5551 49.6717 68.0133 50.2092L67.7447 50.4473C67.3353 49.952 66.8996 49.4928 66.4466 49.0697L66.6865 48.8285Z" fill="white"/>
<path d="M71.3682 48.5133C71.5719 48.5268 71.779 48.5616 71.9915 48.6212C72.169 48.6689 72.3438 48.7277 72.5179 48.8008L72.4073 49.123C72.2401 49.0457 72.0653 48.987 71.8857 48.9358C71.6842 48.879 71.4819 48.8367 71.2789 48.8087L71.3682 48.5133Z" fill="white"/>
<path d="M74.4763 44.1859L73.3591 44.9259L73.1581 44.6224L75.7159 42.9282L75.9169 43.2317L74.7964 43.9739L76.1394 46.0014L77.47 45.1201L77.6732 45.4269L74.6885 47.4038L74.4853 47.097L75.8193 46.2135L74.4763 44.1859Z" fill="white"/>
<path d="M77.1806 41.5887L77.4884 41.3659L79.3319 43.9127L79.7207 43.6313L77.8772 41.0844L78.185 40.8616L80.0285 43.4084L80.9747 42.7236L81.1928 43.0249L78.3025 45.117L78.0844 44.8157L79.0241 44.1355L77.1806 41.5887ZM79.2272 41.0257L79.5557 40.9065C79.836 41.5529 80.029 42.1539 80.1372 42.7126L79.7914 42.8147C79.7008 42.3075 79.5133 41.7075 79.2272 41.0257ZM76.9997 42.6282C77.4793 42.9428 77.9839 43.333 78.5169 43.7965L78.2866 44.0718C77.8083 43.6428 77.3092 43.2535 76.7983 42.9024L76.9997 42.6282Z" fill="white"/>
<path d="M79.5474 39.8917C79.8673 39.8866 80.155 39.9115 80.4117 39.9554L80.368 40.3233C80.1327 40.2679 79.8395 40.2423 79.4939 40.2471L79.5474 39.8917ZM79.8414 41.1063L80.5495 40.5572L81.5864 41.8942C81.6207 41.736 81.6514 41.5603 81.6819 41.3646L82.0092 41.6169C81.9508 41.9659 81.8651 42.3058 81.7496 42.6333L81.425 42.4497C81.4412 42.3662 81.4256 42.2873 81.3741 42.2209L80.4817 41.0704L80.0645 41.394L79.8414 41.1063ZM81.2616 40.6073L82.7945 39.4184L83.0078 39.6933C83.1343 40.0457 83.1689 40.4036 83.114 40.7702C83.4193 40.746 83.759 40.6749 84.1219 40.5554L84.1617 40.9396C83.7476 41.0584 83.3725 41.1164 83.035 41.1251C82.9257 41.4933 82.7294 41.8733 82.4525 42.2603L82.0888 42.1373C82.3479 41.7795 82.5336 41.438 82.6435 41.1098C82.2667 41.0679 81.9392 40.9524 81.6673 40.7584L81.4871 40.8981L81.2616 40.6073ZM81.9486 40.5402C82.1708 40.6766 82.4289 40.7548 82.7285 40.7756C82.779 40.4883 82.777 40.2115 82.7166 39.9445L81.9486 40.5402ZM80.5365 39.2157L81.6555 38.3478L82.1703 39.0116C82.2242 39.0811 82.2915 39.0896 82.3706 39.0284L82.6487 38.8126L82.862 39.0876L82.5048 39.3646C82.2804 39.5387 82.0864 39.517 81.9246 39.3084L81.5765 38.8596L81.0518 39.2665L81.1254 39.3613C81.3803 39.6901 81.4114 40.076 81.2192 40.5136L80.8412 40.4373C81.0135 40.1113 81.0195 39.8383 80.8528 39.6234L80.5365 39.2157Z" fill="white"/>
<path d="M83.8862 37.88L84.6946 37.213L83.9487 36.309L84.2511 36.0595L84.997 36.9635L85.7621 36.3322L86.0014 36.6222L85.2363 37.2535L86.6084 38.9165L86.306 39.166L84.9339 37.503L84.1255 38.17L83.8862 37.88ZM82.6017 37.467C82.927 37.4527 83.2214 37.4639 83.4876 37.5036L83.455 37.8727C83.212 37.8295 82.915 37.8153 82.5636 37.8356L82.6017 37.467ZM82.9327 38.6978L83.6454 38.1098L84.7299 39.4241C84.7624 39.2624 84.7879 39.0859 84.8119 38.895L85.1359 39.1306C85.0912 39.4786 85.0158 39.8209 84.9102 40.1517L84.5827 39.9811C84.5996 39.8947 84.584 39.8193 84.5331 39.7576L83.5963 38.6222L83.1644 38.9786L82.9327 38.6978Z" fill="white"/>
<path d="M86.7319 34.1273L88.1785 32.8648L88.4152 33.136L87.8366 33.641C87.9034 33.7419 87.9673 33.8455 88.0228 33.9457L88.5773 33.4617L89.8504 34.9203L89.5731 35.1623L88.5316 33.9689L87.8234 34.587L88.8912 35.8105L88.611 36.0551L87.3116 34.5664L87.7426 34.1903C87.6844 34.0871 87.6232 33.9865 87.5563 33.8856L86.9687 34.3985L86.7319 34.1273ZM89.4571 35.2423C89.8033 35.2374 90.1194 35.2589 90.4053 35.3067L90.3792 35.6905C90.1197 35.6303 89.8014 35.6002 89.4273 35.5974L89.4571 35.2423ZM88.1741 34.5569L88.4423 34.3228L88.9 34.8472C89.172 35.1832 89.3375 35.5006 89.3936 35.8021C89.4369 36.0829 89.368 36.3872 89.1983 36.7159L88.8398 36.6093C88.9967 36.3024 89.0573 36.0372 89.0188 35.8107C88.969 35.5833 88.841 35.3393 88.6318 35.0813L88.1741 34.5569ZM85.9384 34.6659L86.1524 34.4791C86.5651 34.5384 86.9763 34.6202 87.3893 34.7163L87.3757 35.0839C86.9311 34.9516 86.5741 34.865 86.3134 34.8218C86.3979 35.2471 86.4448 35.684 86.4427 36.1318L86.0801 36.0448C86.0866 35.6143 86.0387 35.1518 85.9384 34.6659ZM86.6494 36.3443L87.7584 35.3763L87.9688 35.6174C88.0715 35.9844 88.1323 36.3401 88.1545 36.6818C88.3524 36.6896 88.5439 36.7083 88.7238 36.7318L88.6977 37.1156C88.3283 37.0452 87.8734 37.0228 87.3364 37.0401L87.3632 36.6876C87.5167 36.681 87.6672 36.6771 87.8147 36.6757C87.7962 36.4477 87.751 36.1951 87.6851 35.9128L86.8835 36.6125L86.6494 36.3443ZM86.6433 35.2241C86.9224 35.2884 87.1503 35.3549 87.3271 35.4236L87.2484 35.7471C87.0525 35.6686 86.8193 35.5961 86.5488 35.5295L86.6433 35.2241Z" fill="white"/>
<path d="M88.4941 32.5881L89.4143 31.7451L90.133 32.5296C90.1184 32.0873 89.99 31.657 89.7481 31.2331L90.0435 31.0167C90.1169 31.1501 90.1791 31.2831 90.2356 31.4158L91.1734 30.5565C91.8642 31.3341 92.2575 31.793 92.3562 31.9304C92.452 32.0705 92.4979 32.1857 92.494 32.2761C92.4844 32.3663 92.3939 32.4926 92.2228 32.6493L92.1462 32.7196L91.8867 32.5667L91.4414 32.9747L91.8791 33.4525C91.9629 33.5439 92.0445 33.556 92.1241 33.483L92.7464 32.9128C92.8145 32.845 92.8401 32.7782 92.8263 32.704C92.8116 32.6524 92.732 32.53 92.5903 32.3398L92.9053 32.1922C93.0441 32.3851 93.134 32.5306 93.1777 32.6316C93.2416 32.7901 93.201 32.9412 93.053 33.0876L92.2449 33.828C92.062 33.9956 91.8844 33.9793 91.7115 33.7905L90.4712 32.4368C90.4731 32.5218 90.478 32.6041 90.4773 32.6862L90.2411 32.6476L90.3114 32.7242L90.0489 32.9647L90.4353 33.3865L90.745 33.1028L90.972 33.3505L90.6623 33.6342L91.1054 34.1179C91.1792 33.9853 91.2529 33.8526 91.3208 33.7253L91.5667 33.9937C91.3749 34.3647 91.1306 34.773 90.8282 35.2128L90.5138 35.0235C90.544 34.9795 90.5713 34.9382 90.6013 34.8999L89.6501 33.8618L89.892 33.6402L90.7891 34.6193C90.8316 34.5533 90.8712 34.4899 90.9135 34.4294L89.7894 33.2025L89.3912 33.5673L88.4941 32.5881ZM91.9349 32.4357C91.9762 32.3979 92.0232 32.3603 92.0644 32.3225C92.1057 32.2846 92.1163 32.237 92.093 32.1878C92.0667 32.1414 92.0132 32.0711 91.9353 31.9742C91.8515 31.8828 91.5816 31.5822 91.1281 31.0754L90.3613 31.778C90.405 31.9441 90.4374 32.1097 90.4584 32.2749L91.181 31.6128L91.9349 32.4357ZM89.8249 32.7143L89.3817 32.2306L88.9777 32.6008L89.4208 33.0845L89.8249 32.7143ZM91.2171 32.7299L91.4973 32.4732L91.1514 32.0957L90.8712 32.3524L91.2171 32.7299Z" fill="white"/>
<path d="M92.5302 28.6483L92.7324 28.4546C93.4754 28.5014 94.1902 28.4146 94.8796 28.1859L94.9841 28.5955C94.281 28.8041 93.5751 28.8712 92.8666 28.7969C92.9148 29.4599 92.8122 30.1678 92.5672 30.918L92.1653 30.7935C92.4325 30.0608 92.5551 29.3448 92.5302 28.6483ZM93.3211 29.3808L93.5954 29.1178L94.1877 29.7357L94.9529 29.0022L95.2048 29.2649L94.4396 29.9985L95.0486 30.6337L96.0217 29.7009L96.2764 29.9665L93.8566 32.2862L93.602 32.0206L94.0178 31.6219L92.9631 30.5218L93.2346 30.2616L94.2892 31.3617L94.7743 30.8967L93.3211 29.3808Z" fill="white"/>
<path d="M94.913 26.3696L95.182 26.1012L97.4025 28.327L97.7423 27.988L95.5218 25.7622L95.7908 25.4938L98.0113 27.7196L98.8382 26.8947L99.1009 27.158L96.575 29.678L96.3123 29.4147L97.1335 28.5954L94.913 26.3696ZM96.8458 25.4923L97.1515 25.3229C97.5298 25.9173 97.8148 26.4805 98.0093 27.0153L97.6839 27.1705C97.5147 26.6838 97.2354 26.1206 96.8458 25.4923ZM94.8976 27.4246C95.4206 27.66 95.9802 27.9661 96.5794 28.3402L96.3952 28.6483C95.8554 28.2997 95.3014 27.9936 94.7416 27.7271L94.8976 27.4246Z" fill="white"/>
<path d="M98.4265 22.7962L98.6932 22.5199C98.9407 22.7587 99.1655 22.9923 99.3618 23.2152C100.214 23.7488 101.028 24.0342 101.804 24.0713L101.846 24.4892C101.202 24.4186 100.548 24.2096 99.8798 23.8651L99.9698 23.9964C100.365 24.5778 100.535 25.2141 100.485 25.9109L100.083 25.8784C100.117 25.2781 99.9744 24.729 99.6599 24.2254C99.3894 23.8087 98.9764 23.3324 98.4265 22.7962ZM97.1989 24.074C97.5205 24.0231 97.8143 24.0009 98.0832 24.0102L98.0926 24.3806C97.8462 24.3652 97.5496 24.3846 97.2027 24.4446L97.1989 24.074ZM97.667 25.2595L98.3086 24.5946L99.5117 25.7557C99.523 25.5942 99.5283 25.4159 99.5305 25.2178L99.8792 25.421C99.8713 25.7691 99.8349 26.112 99.7703 26.4554L99.4257 26.323C99.4326 26.2351 99.4087 26.162 99.3482 26.1037L98.3178 25.1093L97.9289 25.5123L97.667 25.2595Z" fill="white"/>
<path d="M100.912 21.8248L102.53 20.0854L102.794 20.3306L102.123 21.051L102.563 21.4597L103.347 20.6164L103.611 20.8616L102.826 21.705L103.365 22.2063C103.58 22.0345 103.82 21.805 104.096 21.5149C104.232 21.3685 104.365 21.2081 104.495 21.0449L104.721 21.3537L104.465 21.629C103.893 22.2439 103.426 22.6344 103.069 22.7944C102.807 22.9 102.537 22.9324 102.258 22.8915C102.388 23.2208 102.459 23.5437 102.471 23.8603L102.079 23.8347C102.049 23.2924 101.836 22.7454 101.443 22.2048L101.741 21.979C101.878 22.1721 101.998 22.3659 102.098 22.552C102.455 22.6269 102.765 22.5931 103.02 22.448L103.05 22.4271L101.867 21.3263L101.175 22.0701L100.912 21.8248ZM102.289 19.1997L102.954 19.8183L102.7 20.0906L102.293 19.7119L100.517 21.6211L100.938 22.0135L100.685 22.2859L100.006 21.6537L101.03 20.5526C100.898 20.5064 100.77 20.4743 100.65 20.4503L100.881 20.108C101.01 20.1515 101.148 20.2031 101.294 20.2686L102.289 19.1997Z" fill="white"/>
<path d="M103.708 18.0324L102.811 19.0281L102.54 18.7845L104.593 16.5047L104.864 16.7483L103.965 17.747L105.772 19.3745L106.84 18.1886L107.113 18.4348L104.718 21.0951L104.444 20.8488L105.515 19.6599L103.708 18.0324Z" fill="white"/>
<path d="M106.849 14.8809C107.018 15.2718 107.132 15.6467 107.194 16.0025L106.768 15.9923C106.693 15.4872 106.475 14.9211 106.114 14.2997L106.43 14.0651C106.52 14.2177 106.601 14.368 106.676 14.513L107.758 13.2698L108.039 13.514L107.196 14.4826L107.628 14.8581L108.365 14.0102L108.643 14.2518L107.905 15.0997L108.349 15.4857L109.092 14.6318L109.366 14.8707L108.623 15.7247L109.305 16.3181L109.053 16.6078L106.944 14.7723L106.849 14.8809ZM106.452 16.3431C106.481 16.5169 106.502 16.6997 106.518 16.8829L106.126 16.7117C106.055 16.1041 105.857 15.5282 105.533 14.9865L105.896 14.8252C106.057 15.1032 106.187 15.3918 106.288 15.6911L108.315 17.4557L108.063 17.7454L106.452 16.3431Z" fill="white"/>
<path d="M108.974 12.0331L111.101 13.8282L110.867 14.1065L110.708 13.9723L110.3 14.4554L110.548 14.6643L110.313 14.9425L108.097 13.0726L108.342 12.7822C108.223 12.5879 108.091 12.4032 107.934 12.2292L108.219 11.9722C108.361 12.1447 108.479 12.3221 108.576 12.504L108.974 12.0331ZM110.031 14.2284L110.439 13.7454L109.836 13.2373L109.429 13.7203L110.031 14.2284ZM109.169 13.5011L109.577 13.018L109.014 12.5435L108.606 13.0265L109.169 13.5011ZM110.172 12.1018C110.592 12.1115 110.941 12.1387 111.221 12.1916L111.19 12.5576C110.89 12.5035 110.532 12.4742 110.12 12.461L110.172 12.1018ZM110.307 10.4581C111.362 11.3479 112.001 11.9125 112.219 12.1495C112.414 12.3657 112.4 12.6053 112.181 12.8652C112.129 12.9264 112.03 13.0313 111.892 13.1764L111.567 13.0223C111.686 12.893 111.79 12.7819 111.873 12.6841C111.976 12.5618 111.971 12.4373 111.858 12.3107C111.721 12.1634 111.215 11.7209 110.349 10.9797L109.701 11.7471C109.813 11.9875 109.898 12.2272 109.953 12.4723L109.577 12.4531C109.454 12.0037 109.215 11.5613 108.854 11.132L109.134 10.8756C109.279 11.0506 109.402 11.2275 109.51 11.4028L110.307 10.4581Z" fill="white"/>
<path d="M110.313 9.47492C110.649 9.39864 110.958 9.35641 111.235 9.34571L111.27 9.72031C111.014 9.7175 110.705 9.7541 110.34 9.83319L110.313 9.47492ZM114.543 9.96422C114.404 10.1345 114.249 10.3177 114.084 10.5133C113.916 10.712 113.763 10.8609 113.626 10.9656C113.487 11.059 113.324 11.1066 113.143 11.1134C113.055 11.1137 113 11.1305 112.97 11.1677C112.916 11.2327 112.964 11.4581 113.114 11.844L112.735 11.8961C112.611 11.5361 112.567 11.2676 112.607 11.0931L111.731 10.3763L111.391 10.7912L111.119 10.5683L111.684 9.8779L112.854 10.8353C112.879 10.83 112.907 10.8272 112.938 10.8269C113.08 10.8241 113.203 10.8004 113.306 10.7559C113.426 10.6985 113.565 10.5851 113.721 10.4075C113.868 10.2336 114.041 10.0287 114.238 9.78721C114.363 9.63551 114.486 9.47818 114.61 9.32085C114.733 9.16352 114.826 9.03772 114.888 8.94906L115.121 9.25836L114.543 9.96422ZM111.638 8.48112L111.149 9.07863L110.904 8.87853L112.295 7.17888L112.502 7.34858C112.51 7.65479 112.483 7.95312 112.427 8.24863C112.439 8.2475 112.447 8.24384 112.458 8.24272L112.967 7.62044L114.342 8.74503C114.524 8.89447 114.534 9.07262 114.369 9.27386L114.174 9.51224L113.879 9.37406L114.071 9.16439C114.127 9.09628 114.123 9.03126 114.055 8.97554L113.897 8.84636L113.532 9.29217L114.04 9.70756L113.82 9.97691L113.312 9.56152L112.955 9.99804L113.469 10.4185L113.241 10.6971L111.569 9.32938L112.152 8.61732C112 8.66376 111.835 8.72006 111.663 8.79127L111.638 8.48112ZM112.141 8.31421C112.183 8.13099 112.207 7.94947 112.218 7.77216L111.65 8.46564C111.821 8.40879 111.983 8.35559 112.141 8.31421ZM112.5 9.62571L112.716 9.80301L113.074 9.36649L112.857 9.18919L112.5 9.62571ZM113.077 8.91984L113.294 9.09714L113.659 8.65133L113.442 8.47403L113.077 8.91984ZM113.201 8.27647L112.984 8.09917L112.619 8.54498L112.836 8.72228L113.201 8.27647ZM112.615 8.99162L112.399 8.81432L112.042 9.25084L112.258 9.42814L112.615 8.99162Z" fill="white"/>
<path d="M115.072 4.12956L117.516 6.06921L117.288 6.35745L117.109 6.21571L116.674 6.764L116.855 6.90823L116.627 7.19647L114.18 5.25433L115.072 4.12956ZM116.395 6.54268L116.83 5.99439L115.123 4.63912L114.687 5.18741L116.395 6.54268ZM113.66 6.67503C113.759 6.87143 113.839 7.06728 113.901 7.25945L113.528 7.38769C113.393 6.95342 113.191 6.55814 112.92 6.20498L113.216 5.96021C113.31 6.08604 113.39 6.21067 113.467 6.33281L114.146 5.47748L114.431 5.70378L114.093 6.12987C114.282 6.29032 114.456 6.44395 114.607 6.59454L114.995 6.10578L115.28 6.33208L114.86 6.86157C114.919 6.92881 114.975 6.99918 115.028 7.06145C115.374 7.02451 115.744 7.00184 116.142 6.99031L116.273 7.39086C115.843 7.36628 115.498 7.35762 115.237 7.36487C115.461 7.75757 115.564 8.20134 115.536 8.69995L115.143 8.70521C115.161 8.18789 115.035 7.74109 114.766 7.35919C114.717 7.29941 114.667 7.23401 114.614 7.17174L114.124 7.78896L113.839 7.56266L114.364 6.90158C114.212 6.75099 114.038 6.59736 113.849 6.43692L113.66 6.67503Z" fill="white"/>
<path d="M115.306 3.14774L117.291 3.63149L118.266 5.42727L117.957 5.59294L117.057 3.93573L115.225 3.48913L115.306 3.14774ZM115.723 2.60582L117.708 3.08957L118.683 4.88535L118.374 5.05102L117.474 3.39381L115.632 2.95989L115.723 2.60582Z" fill="white"/>
</svg>
