<svg width="175" height="11" viewBox="0 0 175 11" fill="none" xmlns="http://www.w3.org/2000/svg">
<path d="M2.90938 1.75233L3.14558 1.89154L2.40071 3.09953L2.8044 4.45496L2.55261 4.53152L2.11505 3.06286L2.90938 1.75233ZM3.41821 1.81765L3.6425 1.95533L2.90953 3.16485L3.31323 4.52028L3.06143 4.59684L2.62387 3.12818L3.41821 1.81765Z" fill="white"/>
<path d="M4.91267 2.04131C5.00692 2.20445 5.09631 2.38209 5.17786 2.57385L4.98165 2.64275L5.59773 2.72077C5.72636 2.56469 5.84723 2.37437 5.95997 2.15278L6.22733 2.26224C6.13698 2.45038 6.0314 2.61542 5.91619 2.7611L6.48167 2.83272L6.44699 3.10653L5.47674 2.98365L5.46506 3.07591C5.44101 3.21802 5.40955 3.34709 5.37326 3.46648L6.5578 3.61649L6.52312 3.89031L5.48144 3.75838C5.58167 4.13697 5.91789 4.46683 6.48972 4.75093L6.28913 4.99768C5.69654 4.66257 5.34367 4.27315 5.2242 3.83164C5.15291 3.96474 5.0716 4.08145 4.98065 4.17879C4.74434 4.42102 4.38797 4.58454 3.91154 4.66935L3.78806 4.40273C4.26525 4.31196 4.59852 4.16366 4.79086 3.9582C4.85834 3.87905 4.91802 3.78984 4.96953 3.69355L3.95166 3.56464L3.98634 3.29083L5.08159 3.42954C5.12123 3.30755 5.15567 3.17886 5.17934 3.03973L5.19102 2.94747L4.2178 2.82421L4.25248 2.5504L4.88939 2.63106C4.81304 2.446 4.72809 2.28102 4.63791 2.13352L4.91267 2.04131Z" fill="white"/>
<path d="M7.27151 2.42739L9.52508 2.70828L9.49057 2.98514L8.54092 2.86677L8.45038 3.59315L9.60842 3.73749L9.57317 4.0203L8.41513 3.87596L8.2886 4.89111C8.26262 5.09949 8.13912 5.19294 7.9218 5.16585L7.44846 5.10685L7.42306 4.82555C7.57377 4.8534 7.7189 4.87754 7.85584 4.89461C7.9511 4.90648 8.0043 4.86776 8.01469 4.78441L8.13232 3.84071L6.92367 3.69006L6.95892 3.40725L8.16757 3.5579L8.2581 2.83152L7.23701 2.70425L7.27151 2.42739Z" fill="white"/>
<path d="M10.2242 4.034L10.1273 4.82609C10.378 4.80236 10.6447 4.77153 10.9222 4.7269L10.9649 4.99508C10.5863 5.05151 10.2005 5.09195 9.81026 5.11976L9.72588 4.87067C9.80209 4.8407 9.84474 4.7885 9.85385 4.71405L10.075 2.90653C10.4545 2.89252 10.8035 2.85663 11.1222 2.79589L11.2702 3.0437C10.9946 3.09763 10.6818 3.13491 10.3313 3.15852L10.2573 3.76302L11.0792 3.86358L11.0461 4.13456L10.2242 4.034ZM11.9444 5.29021L11.6644 5.25596L11.6205 4.97253L11.8848 5.01091C11.9623 5.02039 12.0064 4.98046 12.0166 4.89708L12.2054 3.35458L11.6187 3.2828L11.3324 5.62335L11.0465 5.58837L11.3657 2.97982L12.524 3.12156L12.2952 4.99161C12.2679 5.21494 12.1498 5.31535 11.9444 5.29021Z" fill="white"/>
<path d="M13.1525 4.02295L13.4919 3.18129L13.7691 3.26279L13.5483 3.79534L13.9892 3.84806C14.0722 3.6344 14.1446 3.4074 14.2096 3.16742L14.4943 3.23771C14.4304 3.46876 14.3593 3.68385 14.2841 3.88333L15.6484 4.04648L15.616 4.31754L14.1802 4.14585C14.1387 4.24059 14.0948 4.32901 14.0544 4.41481L15.2459 4.5573L15.2174 4.7956C15.1107 5.0306 14.9384 5.23357 14.6945 5.40381C14.9059 5.55599 15.166 5.70494 15.472 5.85029L15.2939 6.10092C14.9492 5.92675 14.6628 5.74446 14.4371 5.56035C14.1821 5.69605 13.8754 5.81043 13.5168 5.90351L13.3999 5.61761C13.7106 5.546 13.981 5.45748 14.2079 5.35468C14.0328 5.17663 13.9067 4.99237 13.8324 4.80522C13.5653 5.22043 13.2522 5.53951 12.8961 5.76282L12.7815 5.48323C13.236 5.16898 13.602 4.71119 13.8793 4.10987L13.1525 4.02295ZM14.0565 4.6749C14.1338 4.86241 14.2691 5.04476 14.4628 5.21899C14.6686 5.08952 14.8252 4.94207 14.9293 4.77927L14.0565 4.6749ZM14.9986 3.26479C15.1856 3.44427 15.3395 3.6228 15.4606 3.79742L15.2338 3.97575C15.1332 3.80661 14.9856 3.62581 14.7855 3.42966L14.9986 3.26479Z" fill="white"/>
<path d="M18.5224 3.66645L18.7483 3.80149L18.0295 5.01951L18.4491 6.37012L18.1982 6.44963L17.7435 4.98619L18.5224 3.66645Z" fill="white"/>
<path d="M19.3641 3.8206C19.5119 3.98222 19.6332 4.13783 19.7307 4.29075L19.5113 4.46823C19.4281 4.32297 19.3042 4.16404 19.1425 3.99179L19.3641 3.8206ZM19.215 4.52531C19.3628 4.68694 19.4868 4.84586 19.5839 5.00176L19.3649 5.17626C19.279 5.02768 19.1551 4.86875 18.9934 4.6965L19.215 4.52531ZM19.2973 5.34675L19.5369 5.47045C19.3924 5.84056 19.2413 6.1888 19.0844 6.50919L18.8352 6.36328C19.0054 6.03231 19.1585 5.69335 19.2973 5.34675ZM20.4721 5.12934L20.4395 5.4185C20.3509 5.45378 20.2598 5.48574 20.1719 5.51506L20.0806 6.32292C20.0584 6.51966 19.9604 6.61125 19.7875 6.5917L19.5461 6.5644L19.5144 6.31024C19.5876 6.33059 19.6585 6.34464 19.7241 6.35205C19.7718 6.35744 19.8036 6.31576 19.8134 6.22931L19.8842 5.6033L19.6237 5.66442L19.5888 5.38574C19.6991 5.37104 19.8071 5.35004 19.9155 5.32607L19.992 4.64938L19.6969 4.61601L19.7245 4.37157L20.0197 4.40493L20.0796 3.87431L20.3539 3.90531L20.2939 4.43593L20.5413 4.4639L20.5137 4.70835L20.2663 4.68038L20.2033 5.23783C20.2914 5.20553 20.3833 5.16761 20.4721 5.12934ZM21.6519 4.09431L21.7534 4.3443C21.5052 4.40379 21.2338 4.42746 20.9396 4.41232L20.8824 4.91909L21.723 5.01412L21.6944 5.26751L21.438 5.23853L21.2634 6.78269L20.9951 6.75236L21.1697 5.2082L20.8537 5.17248L20.8332 5.35432C20.7546 5.91605 20.5934 6.35371 20.3496 6.66731L20.1817 6.44304C20.3741 6.184 20.5036 5.8122 20.5708 5.32467L20.7029 4.15611C21.0494 4.18924 21.3658 4.16764 21.6519 4.09431Z" fill="white"/>
<path d="M23.5846 4.69301L22.8599 4.61382L22.8892 4.34541L24.5921 4.53151L24.5628 4.79991L23.8619 4.72332L23.6491 6.67073L24.4513 6.75839L24.4217 7.02978L22.4713 6.81664L22.501 6.54525L23.3718 6.64042L23.5846 4.69301ZM22.2501 4.1458C22.4432 4.31176 22.6069 4.47148 22.7347 4.62729L22.516 4.80559C22.4054 4.6577 22.2422 4.495 22.0291 4.31781L22.2501 4.1458ZM22.0947 4.85009C22.2878 5.01605 22.4448 5.18108 22.5723 5.33987L22.354 5.51519C22.2437 5.36432 22.0834 5.20194 21.8737 5.0221L22.0947 4.85009ZM22.3261 5.68718L22.5662 5.80999C22.3814 6.17607 22.1842 6.51667 21.9747 6.83178L21.725 6.68679C21.9503 6.36437 22.1498 6.03006 22.3261 5.68718Z" fill="white"/>
<path d="M25.9747 4.50616L26.2522 4.53535L26.1721 5.29615L25.8947 5.26696L25.9747 4.50616ZM25.1609 5.79006C25.0268 5.8031 24.8927 5.81614 24.7589 5.8262L24.6696 5.55738C25.5857 5.50896 26.3017 5.35503 26.8147 5.09528C26.7244 5.00735 26.6281 4.91879 26.5259 4.8296L26.736 4.6677C27.018 4.91154 27.2553 5.15068 27.4422 5.3815L27.2242 5.56068C27.1584 5.4693 27.0837 5.37697 26.997 5.28339C26.7123 5.43745 26.3797 5.55932 25.996 5.65167L27.0521 5.76279L26.8817 7.38285L26.6042 7.35365L26.6162 7.24028L25.3004 7.10186L25.2879 7.2212L25.0134 7.19232L25.1609 5.79006ZM25.3268 6.85124L26.6425 6.98966L26.6636 6.78977L25.3478 6.65135L25.3268 6.85124ZM25.3717 6.4246L26.6874 6.56302L26.7066 6.38102L25.3908 6.2426L25.3717 6.4246ZM25.4144 6.01884L26.7301 6.15726L26.7499 5.96929L25.4341 5.83087L25.4144 6.01884ZM25.4884 4.62694L25.6698 4.824C25.4708 5.02328 25.233 5.19131 24.9564 5.32512L24.8146 5.09602C25.0756 4.96662 25.3 4.81225 25.4884 4.62694Z" fill="white"/>
<path d="M28.1279 5.92247C28.0306 6.02123 27.9275 6.1164 27.8159 6.20769L27.7536 5.8969C28.0923 5.58723 28.3588 5.21602 28.5506 4.777L28.8067 4.92938C28.7096 5.14575 28.5894 5.35076 28.4493 5.54472L28.2489 7.53867L27.9683 7.51047L28.1279 5.92247ZM28.78 5.16489L29.3531 5.2225L29.47 4.86942L29.7449 4.92419C29.7093 5.0382 29.6714 5.14595 29.6367 5.25101L30.4963 5.33742L30.4687 5.61204L29.5374 5.51842C29.4977 5.61392 29.4615 5.70376 29.4256 5.7906L30.5629 5.90493L30.5356 6.17656L29.3088 6.05323C29.2556 6.16246 29.2063 6.26303 29.1546 6.35734L30.3426 6.47676L30.318 6.72153C30.1794 6.90056 29.9781 7.07329 29.7079 7.24211C29.8267 7.32038 29.9418 7.40433 30.0507 7.49065L29.865 7.71921C29.5254 7.43784 29.1685 7.209 28.8005 7.0303L28.9753 6.82173C29.1478 6.9054 29.3134 6.99743 29.4727 7.09184C29.6961 6.96957 29.8776 6.84309 30.0147 6.70913L28.761 6.58311C28.8573 6.40584 28.9484 6.21902 29.0372 6.02593L28.5655 5.97852L28.5928 5.70689L29.151 5.763C29.1872 5.67317 29.2234 5.58333 29.2568 5.49022L28.7524 5.43951L28.78 5.16489Z" fill="white"/>
<path d="M31.7944 7.14793L31.7685 7.41969C31.4836 7.53111 31.1622 7.61492 30.8078 7.66545L30.802 7.3786C31.1741 7.33277 31.5069 7.25607 31.7944 7.14793ZM31.4696 5.05858L31.7311 5.19205C31.5538 5.53373 31.3828 5.80972 31.2184 6.01702C31.3211 6.01478 31.424 6.00955 31.5273 6.00133C31.5872 5.91061 31.6509 5.81122 31.7152 5.70586L31.9599 5.82567C31.6777 6.25678 31.4456 6.57215 31.2608 6.77148C31.4508 6.7384 31.6453 6.69067 31.8444 6.62531L31.8195 6.88512C31.4842 6.9887 31.168 7.04891 30.8738 7.06902L30.8242 6.79909C30.8773 6.78005 30.9216 6.75716 30.9606 6.72774C31.0626 6.63803 31.1953 6.47893 31.3588 6.25044C31.2192 6.26121 31.0738 6.26842 30.9225 6.27506L30.8756 6.0084C30.9221 5.99476 30.9677 5.95993 31.0086 5.90959C31.1774 5.6575 31.331 5.37382 31.4696 5.05858ZM31.9496 6.46961L31.9109 6.21276C31.9354 6.20907 31.9571 6.20211 31.9696 6.19728C32.0655 6.14014 32.1982 5.98104 32.3643 5.72567L31.9014 5.68145L31.9273 5.40969L32.653 5.47901C32.6263 5.38002 32.5961 5.28672 32.5622 5.1991L32.8565 5.17899C32.8862 5.27827 32.915 5.3865 32.9397 5.50639L33.5937 5.56886L33.5678 5.84063L32.6599 5.75391C32.5259 5.95809 32.4087 6.11264 32.3077 6.22354C32.5519 6.22276 32.7966 6.216 33.0389 6.20298C32.9872 6.11366 32.9352 6.02732 32.8831 5.94098L33.111 5.82713C33.2839 6.0998 33.4148 6.33833 33.504 6.53973L33.2685 6.67093C33.2392 6.59882 33.204 6.52614 33.169 6.45047C32.7933 6.47184 32.3858 6.47812 31.9496 6.46961ZM32.1618 6.5833L32.4365 6.60954C32.3854 6.98739 32.3111 7.26056 32.2166 7.42934C32.1123 7.60623 31.9536 7.7538 31.7374 7.87178L31.5796 7.63068C31.7571 7.53915 31.8888 7.42214 31.9747 7.27967C32.0571 7.14288 32.1185 6.91066 32.1618 6.5833ZM33.1336 7.95693L32.9425 7.93867C32.7304 7.91842 32.635 7.81287 32.653 7.62473L32.7503 6.60636L33.022 6.63232L32.9299 7.59693C32.9253 7.64471 32.9404 7.67629 32.9757 7.68568L33.1429 7.70166C33.1972 7.70082 33.2338 7.66514 33.2466 7.59403C33.2633 7.51425 33.2804 7.39836 33.2946 7.24904L33.5312 7.35903C33.5039 7.64573 33.4634 7.81666 33.4153 7.87836C33.3678 7.9341 33.2721 7.95811 33.1336 7.95693Z" fill="white"/>
<path d="M35.1842 5.90344L34.1832 5.81312L34.2078 5.54123L36.4995 5.748L36.4749 6.0199L35.471 5.92932L35.3071 7.74594L36.4993 7.8535L36.4745 8.12839L33.8003 7.8871L33.8251 7.61222L35.0203 7.72006L35.1842 5.90344Z" fill="white"/>
<path d="M37.0232 5.83656L37.6988 5.89377L37.7208 5.6337L38.0108 5.65825L37.9888 5.91832L38.7062 5.97907L38.7282 5.719L39.0182 5.74355L38.9962 6.00362L39.6718 6.06083L39.6492 6.32688L38.9737 6.26967L38.9537 6.50583L38.6637 6.48127L38.6837 6.24512L37.9663 6.18437L37.9463 6.42052L37.6563 6.39597L37.6763 6.15982L37.0007 6.10261L37.0232 5.83656ZM37.2436 6.46941L39.2285 6.63749L39.2055 6.90951C38.3455 7.2883 37.7845 7.58403 37.5256 7.79694C37.4413 7.86808 37.3912 7.92706 37.3717 7.9796C37.3679 8.02444 37.3898 8.05038 37.4436 8.05494L38.9113 8.17922C38.992 8.18605 39.0566 8.17044 39.1017 8.13513C39.1466 8.1028 39.1972 7.93246 39.2534 7.6241L39.5073 7.75399C39.4451 8.09797 39.3706 8.30241 39.2808 8.36706C39.1943 8.42898 39.0716 8.45473 38.9162 8.44157L37.4365 8.31627C37.1734 8.294 37.0527 8.19045 37.0684 8.00511C37.0791 7.87956 37.1904 7.73845 37.3964 7.58127C37.667 7.37235 38.1145 7.13627 38.7332 6.86952L37.2206 6.74144L37.2436 6.46941Z" fill="white"/>
<path d="M40.1183 6.12729L40.7613 6.17802C40.7295 6.08523 40.694 6.00118 40.652 5.92264L40.9549 5.89838C40.9899 5.98842 41.021 6.09018 41.0514 6.20091L41.6286 6.24645C41.681 6.15429 41.7249 6.05544 41.7571 5.95265L42.0591 6.0156C42.0248 6.10619 41.9821 6.19009 41.9306 6.27029L42.5527 6.31937L42.5324 6.57657L41.4587 6.49186L41.4408 6.71915L42.356 6.79136L42.3366 7.0366L41.4215 6.96439L41.4033 7.19467L42.5756 7.28717L42.5549 7.55036L39.9231 7.3427L39.9438 7.07952L41.1162 7.17202L41.1343 6.94173L40.2282 6.87023L40.2475 6.625L41.1537 6.6965L41.1716 6.4692L40.098 6.38449L40.1183 6.12729ZM41.1119 7.49368L41.3966 7.54624C41.3832 7.60235 41.3667 7.65823 41.3475 7.71088L42.469 7.79937L42.4478 8.06854L41.4609 7.99067C41.6458 8.23999 42.0131 8.42846 42.5628 8.55609L42.392 8.81346C41.7619 8.63735 41.3612 8.37702 41.187 8.02924C41.1157 8.13195 41.0336 8.21877 40.9375 8.29244C40.7264 8.45032 40.3716 8.56076 39.8672 8.62327L39.7725 8.33593C40.203 8.29467 40.5196 8.21131 40.7193 8.08262C40.7829 8.03949 40.8345 7.99542 40.8807 7.94489L39.9505 7.8715L39.9718 7.60234L41.0484 7.68729C41.0746 7.62314 41.0947 7.55853 41.1119 7.49368Z" fill="white"/>
<path d="M43.0215 6.76141L44.1585 6.84435L44.2089 6.15319L44.4901 6.17371L44.4397 6.86487L45.5797 6.94803L45.5598 7.22031L44.6802 7.15614C44.8376 7.63686 45.1304 8.07633 45.5586 8.47454L45.3496 8.69993C44.8878 8.22708 44.5765 7.71106 44.4188 7.15211L44.2887 8.93537L44.0074 8.91485L44.1371 7.13757C43.875 7.72005 43.4769 8.18733 42.9431 8.53641L42.8061 8.27074C43.2785 7.98034 43.6379 7.58845 43.8783 7.09764L43.0016 7.03369L43.0215 6.76141ZM44.9776 6.21228C45.1351 6.40424 45.2554 6.56943 45.3385 6.70785L45.0993 6.85283C45.0145 6.69624 44.8946 6.52507 44.7462 6.33376L44.9776 6.21228Z" fill="white"/>
<path d="M46.1247 6.39912L47.8249 6.51344L47.7546 7.55808L46.0545 7.44376L46.1247 6.39912ZM47.4884 7.26957L47.5224 6.76371L46.391 6.68763L46.3569 7.19349L47.4884 7.26957ZM46.7458 7.71575L46.6552 9.06271L46.3798 9.04419L46.3895 8.90052L45.8357 8.86328L45.8261 9.00696L45.5477 8.98824L45.6383 7.64128L46.7458 7.71575ZM45.8536 8.59688L46.4074 8.63412L46.4523 7.96663L45.8985 7.92939L45.8536 8.59688ZM48.1406 7.80955L48.05 9.1565L47.7657 9.13738L47.7754 8.99371L47.1977 8.95486L47.188 9.09854L46.9096 9.07982L47.0002 7.73286L48.1406 7.80955ZM47.2156 8.68846L47.7933 8.72731L47.8381 8.05982L47.2605 8.02097L47.2156 8.68846Z" fill="white"/>
<path d="M50.4367 6.58792L50.7212 6.60529L50.6905 7.10836L51.2744 7.14401L51.189 8.54241L50.9135 8.52559L50.9218 8.39084L50.6133 8.372L50.5532 9.35717L50.2687 9.3398L50.3289 8.35463L50.0324 8.33653L50.0242 8.47128L49.7517 8.45464L49.8371 7.05624L50.406 7.09099L50.4367 6.58792ZM50.0483 8.07601L50.3448 8.09412L50.3896 7.36048L50.0931 7.34238L50.0483 8.07601ZM50.6292 8.11149L50.9377 8.13032L50.9825 7.39669L50.674 7.37786L50.6292 8.11149ZM48.7087 6.93023L48.6679 6.66325C49.032 6.65543 49.3593 6.61229 49.6494 6.53684L49.7321 6.80638C49.6133 6.83219 49.4887 6.85464 49.3581 6.87672L49.3318 7.30791L49.6941 7.33004L49.6775 7.60253L49.3152 7.58041L49.3078 7.70018C49.4437 7.83772 49.5789 7.98724 49.7131 8.15172L49.5397 8.38158C49.445 8.21049 49.3634 8.07026 49.2921 7.9577L49.2115 9.27824L48.936 9.26142L49.0141 7.9828C48.8997 8.23129 48.7597 8.45718 48.591 8.66027L48.4925 8.3537C48.7199 8.12414 48.8923 7.86115 49.0097 7.56175L48.6025 7.53689L48.6191 7.26439L49.0563 7.29109L49.0797 6.9078C48.9588 6.91846 48.8352 6.92593 48.7087 6.93023Z" fill="white"/>
<path d="M54.3508 6.97861L54.2159 9.43791L53.9403 9.4228L53.9523 9.20413L53.3023 9.16848L53.2883 9.4231L53.0157 9.40815L53.1526 6.9129L54.3508 6.97861ZM53.3171 8.89889L53.9671 8.93453L54.0606 7.23009L53.4105 7.19445L53.3171 8.89889ZM51.7616 7.45856L52.2619 7.48599L52.2816 7.12653C52.1426 7.13994 52.001 7.1472 51.8626 7.15162L51.7867 6.89208C52.2499 6.88143 52.6255 6.82691 52.916 6.73468L53.0378 6.97872C52.8821 7.02426 52.7237 7.06364 52.56 7.09072L52.5374 7.5011L53.0257 7.52788L53.0111 7.79448L52.5228 7.7677L52.5163 7.88752C52.676 8.0435 52.8377 8.21762 53.0014 8.40987L52.8202 8.6463C52.6959 8.4472 52.5904 8.28818 52.5011 8.16311L52.4313 9.43619L52.1557 9.42108L52.2223 8.2079C52.0887 8.45296 51.9202 8.67507 51.723 8.87457L51.6173 8.5563C51.894 8.33112 52.1039 8.06621 52.2464 7.76757L52.2472 7.75259L51.747 7.72516L51.7616 7.45856Z" fill="white"/>
<path d="M55.0885 9.57571L54.8338 9.56333L54.7868 9.29374C54.8641 9.30951 54.9357 9.319 55.0047 9.32235C55.0766 9.32584 55.1146 9.28564 55.1185 9.20473L55.1494 8.56948C55.0395 8.60619 54.9266 8.64275 54.8169 8.67347L54.7587 8.38831C54.895 8.36489 55.0288 8.33235 55.1629 8.29081L55.1944 7.64358L54.8558 7.62712L54.869 7.35444L55.2076 7.3709L55.2331 6.84652L55.5088 6.85992L55.4833 7.3843L55.777 7.39857L55.7637 7.67125L55.4701 7.65698L55.4441 8.19035C55.5483 8.14736 55.6497 8.10122 55.7512 8.05209L55.7377 8.33076C55.6362 8.37989 55.5349 8.42303 55.4307 8.46602L55.3907 9.29005C55.3811 9.48782 55.2802 9.58503 55.0885 9.57571ZM55.8665 7.28579L56.5677 7.31987L56.5872 6.91834L56.8629 6.93174L56.8434 7.33327L57.5446 7.36735L57.5313 7.64003L56.8301 7.60595L56.8093 8.03444L57.3966 8.06299L57.3844 8.31469C57.2734 8.62166 57.1014 8.88362 56.8628 9.09729C57.0419 9.24416 57.2636 9.37808 57.5252 9.49592L57.367 9.7225C57.0855 9.58267 56.8498 9.42704 56.6596 9.26162C56.4232 9.42734 56.1406 9.55777 55.8114 9.65591L55.6881 9.41263C55.9924 9.33131 56.2531 9.22083 56.4674 9.07507C56.245 8.82998 56.1019 8.56172 56.0352 8.26413L55.8794 8.25656L55.8924 7.98987L56.5336 8.02104L56.5545 7.59255L55.8533 7.55847L55.8665 7.28579ZM56.3019 8.27709C56.3625 8.51431 56.4843 8.72748 56.6702 8.91973C56.8587 8.74868 57.0036 8.54848 57.105 8.31613L56.3019 8.27709Z" fill="white"/>
<path d="M57.7254 7.2168L58.4027 7.24579L58.4139 6.98503L58.7046 6.99747L58.6935 7.25823L59.4128 7.28901L59.424 7.02825L59.7147 7.04069L59.7035 7.30146L60.3809 7.33044L60.3695 7.5972L59.6921 7.56821L59.682 7.80499L59.3913 7.79255L59.4014 7.55577L58.6821 7.52499L58.6719 7.76177L58.3812 7.74933L58.3913 7.51254L57.7139 7.48356L57.7254 7.2168ZM57.9719 7.83991L59.9621 7.92508L59.9505 8.19783C59.107 8.61215 58.5588 8.931 58.309 9.15453C58.2278 9.22912 58.1801 9.29014 58.1628 9.34345C58.1609 9.38841 58.1839 9.41341 58.2378 9.41572L59.7095 9.4787C59.7904 9.48216 59.8542 9.46388 59.8979 9.42671C59.9414 9.39254 59.9848 9.22023 60.0281 8.9098L60.2872 9.02899C60.2394 9.37526 60.1734 9.58263 60.0864 9.65098C60.0026 9.71645 59.8811 9.74729 59.7253 9.74062L58.2416 9.67712C57.9779 9.66584 57.853 9.56741 57.8609 9.38158C57.8663 9.25569 57.9716 9.11006 58.1709 8.94443C58.4325 8.72441 58.8698 8.46988 59.4769 8.17757L57.9603 8.11266L57.9719 7.83991Z" fill="white"/>
<path d="M62.3111 7.17225L62.5989 7.18291C62.5893 7.44074 62.5713 7.68324 62.5451 7.90442C62.6737 8.64769 62.9217 9.24528 63.2893 9.6972L63.0765 9.92948C62.7939 9.53475 62.5832 9.06462 62.4413 8.519L62.413 8.63503C62.2859 9.14667 62.0155 9.55994 61.6013 9.88083L61.4181 9.63988C61.7707 9.35874 62.006 9.00421 62.13 8.57651C62.2273 8.21687 62.2867 7.74774 62.3111 7.17225ZM60.9829 7.12604C61.1723 7.28016 61.3317 7.43317 61.4611 7.58807L61.2589 7.77871C61.1442 7.63336 60.9849 7.47736 60.7778 7.31358L60.9829 7.12604ZM60.5549 7.98078L61.2475 8.00644L61.201 9.25958C61.2968 9.18508 61.3991 9.09881 61.5108 9.00088L61.5719 9.29734C61.3735 9.46711 61.1637 9.61845 60.9395 9.75424L60.841 9.49542C60.8936 9.45533 60.9224 9.40537 60.9248 9.34241L60.9645 8.26915L60.5448 8.2536L60.5549 7.98078Z" fill="white"/>
<path d="M64.038 8.0803L65.8191 8.13624L65.8106 8.4061L65.073 8.38294L65.0589 8.83272L65.9225 8.85984L65.914 9.1297L65.0504 9.10258L65.0331 9.65431C65.236 9.6907 65.4844 9.71351 65.7842 9.72592C65.9341 9.73063 66.0903 9.72653 66.2466 9.71944L66.1838 9.9996L65.9019 9.99075C65.2723 9.97097 64.8213 9.89978 64.555 9.77737C64.3659 9.68138 64.2141 9.54455 64.0996 9.36687C63.9782 9.60317 63.8308 9.80265 63.6576 9.96529L63.4789 9.73157C63.77 9.44656 63.9743 9.05678 64.0857 8.56804L64.3601 8.62468C64.3186 8.79746 64.2685 8.96097 64.2128 9.10929C64.3464 9.34761 64.5185 9.50609 64.7263 9.57864L64.7531 9.58549L64.7911 8.37409L64.0295 8.35017L64.038 8.0803ZM66.2003 7.56292L66.1789 8.24358L65.9001 8.23483L65.9132 7.81803L63.9581 7.75663L63.9446 8.18842L63.6657 8.17966L63.6875 7.48401L64.815 7.51941C64.776 7.42214 64.7308 7.33368 64.6852 7.25421L64.9926 7.21584C65.0317 7.31011 65.0704 7.41338 65.1058 7.52855L66.2003 7.56292Z" fill="white"/>
<path d="M68.0066 9.50864C67.757 9.76027 67.362 9.94811 66.8246 10.0722L66.6749 9.82529C67.2365 9.69278 67.6222 9.5167 67.8291 9.29398L67.8818 9.22632L66.7182 9.1962L66.7252 8.92629L68.0358 8.96021C68.1124 8.78214 68.1596 8.58229 68.1773 8.36067L68.1868 7.9948L68.4627 8.00194L68.4532 8.36782C68.4385 8.58951 68.4003 8.78959 68.3357 8.96797L69.2773 8.99235L69.2704 9.26226L68.2117 9.23486C68.1961 9.25846 68.1805 9.28206 68.1679 9.30575C68.5775 9.4784 68.9534 9.6802 69.2957 9.90513L69.1334 10.147C68.7681 9.88547 68.3924 9.67468 68.0066 9.50864ZM67.1688 8.36758C67.3795 8.46007 67.5717 8.57008 67.7455 8.69761L67.5927 8.91873C67.4104 8.77297 67.2183 8.65996 67.0223 8.57686L67.1688 8.36758ZM67.4736 7.95533C67.6843 8.04481 67.8765 8.15482 68.0473 8.28228L67.8945 8.50341C67.7122 8.36064 67.5231 8.24471 67.3272 8.16161L67.4736 7.95533ZM69.2857 7.62711L69.2698 8.2419L68.9939 8.23476L69.003 7.88088L67.0477 7.83027L67.0385 8.18415L66.7626 8.17701L66.7785 7.56222L67.9031 7.59132C67.8723 7.5065 67.8414 7.42767 67.8072 7.35476L68.0994 7.31431C68.1332 7.39921 68.1638 7.49303 68.191 7.59877L69.2857 7.62711Z" fill="white"/>
<path d="M69.9006 7.77666L70.3355 7.78558C70.2872 7.65256 70.2358 7.52848 70.178 7.41627L70.47 7.37125C70.5185 7.49527 70.5667 7.63429 70.6114 7.79124L70.9654 7.7985L70.9597 8.07444L70.3748 8.06244L70.3676 8.41337L70.8985 8.42426C70.8825 9.20409 70.8576 9.68668 70.8299 9.86915C70.7962 10.0485 70.6623 10.1388 70.4224 10.1339C70.3984 10.1334 70.3565 10.1265 70.2996 10.1193L70.2419 9.8631C70.2957 9.8732 70.3436 9.88018 70.3855 9.88105C70.4905 9.8832 70.5546 9.8335 70.5776 9.73195C70.5947 9.63028 70.6109 9.27954 70.6292 8.68279L70.3592 8.67725C70.3276 9.33974 70.2066 9.82637 69.9962 10.1371L69.7871 9.94679C69.9761 9.6566 70.0788 9.18461 70.095 8.53681L70.1049 8.05691L69.8949 8.0526L69.9006 7.77666ZM71.3937 7.98132C71.2903 8.19524 71.1755 8.37893 71.0493 8.53537L70.8679 8.30961C71.0494 8.09128 71.2057 7.78542 71.3397 7.39509L71.6054 7.46055C71.5736 7.54992 71.5419 7.63328 71.5102 7.71665L72.5449 7.73787L72.5395 8.00482L71.3937 7.98132ZM72.4277 8.33559C72.4159 8.90847 72.3938 9.25609 72.3673 9.37558C72.3379 9.495 72.2256 9.55571 72.0276 9.55165L72.0126 9.55134L71.9456 9.30991C71.9966 9.31096 72.0415 9.31488 72.0805 9.31568C72.1135 9.31636 72.1351 9.2868 72.1423 9.22993C72.1493 9.17906 72.1591 8.99623 72.1655 8.68429L71.9358 8.7606L71.9158 9.73839L71.6518 9.73298L71.67 8.84817L71.4374 8.92441L71.4213 9.70725C71.4186 9.83922 71.4622 9.90913 71.5522 9.91097L72.1191 9.9226C72.182 9.92389 72.2303 9.90988 72.2609 9.8805C72.2977 9.84525 72.3238 9.74076 72.3395 9.56404L72.5838 9.64707C72.5515 9.90446 72.5034 10.0565 72.4363 10.1091C72.3754 10.1529 72.2849 10.1751 72.1589 10.1725L71.4661 10.1583C71.2621 10.1541 71.1629 10.017 71.1683 9.75307L71.1836 9.00923L70.9691 9.07984L70.9744 8.8219L71.1889 8.75128L71.1971 8.34937L71.4491 8.35453L71.4427 8.66647L71.6753 8.58722L71.685 8.11632L71.9489 8.12173L71.9412 8.49965L72.4277 8.33559Z" fill="white"/>
<path d="M73.0888 8.51532L73.3392 8.61825C73.2346 8.97366 73.1014 9.24461 72.9364 9.43405L72.7263 9.24474C72.8852 9.0612 73.006 8.82006 73.0888 8.51532ZM73.7264 7.46017L74.0143 7.46467L74.0056 8.0226L74.9535 8.03744C74.9442 8.24732 74.9382 8.44225 74.9293 8.62213L75.1288 8.52924C75.2626 8.80137 75.3929 9.10044 75.5168 9.42942L75.2538 9.55132C75.1505 9.25567 75.0377 8.98387 74.9215 8.74202C74.906 8.96381 74.8909 9.1616 74.8763 9.32939C74.8412 9.65288 74.7866 9.88005 74.7156 10.011C74.6446 10.1359 74.5326 10.2001 74.3794 10.2097L74.0285 10.2042L73.9548 9.92704C74.0567 9.93464 74.1526 9.93914 74.2426 9.94055C74.3896 9.94285 74.4902 9.84241 74.5443 9.64523C74.5956 9.43601 74.6326 8.98953 74.6582 8.30885L73.9893 8.29838C73.9518 8.77486 73.8617 9.16349 73.719 9.4643C73.5579 9.78882 73.296 10.0367 72.9362 10.2111L72.7841 9.95973C73.1291 9.7761 73.3668 9.53979 73.4973 9.2538C73.6034 8.99443 73.6714 8.67445 73.7013 8.29388L72.9874 8.2827L72.9917 8.00674L73.7176 8.0181L73.7264 7.46017Z" fill="white"/>
<path d="M77.3744 7.50638L77.6624 7.50953L77.6574 7.96251L78.4044 7.97069L78.4014 8.24667L77.6544 8.23849L77.649 8.73346L78.4769 8.74253L78.4739 9.01851L77.499 9.00783C77.3236 9.40794 77.1703 9.70328 77.0362 9.89382C77.3666 9.86144 77.6942 9.81102 78.0189 9.74857C77.9427 9.58573 77.8633 9.43485 77.7838 9.29597L78.0608 9.209C78.2345 9.51092 78.387 9.83061 78.5152 10.174L78.244 10.2911C78.2061 10.1886 78.1682 10.0892 78.1301 9.99881C77.6822 10.0809 77.1955 10.1446 76.6699 10.1928L76.6067 9.94312C76.6308 9.93438 76.6519 9.92561 76.667 9.91678C76.8002 9.80123 76.9746 9.49712 77.19 9.00445L76.527 8.99719L76.53 8.7212L77.361 8.73031L77.3664 8.23534L76.6795 8.22781L76.6825 7.95183L77.3694 7.95935L77.3744 7.50638ZM76.0722 7.51612C76.2626 7.66821 76.4229 7.81698 76.5563 7.96545L76.3501 8.1702C76.2376 8.02796 76.0743 7.87616 75.8631 7.71184L76.0722 7.51612ZM75.9895 8.21725C76.1649 8.36918 76.3132 8.52082 76.4376 8.67219L76.2284 8.87391C76.1249 8.73177 75.9766 8.57713 75.7834 8.41301L75.9895 8.21725ZM76.2712 9.06639L76.5281 9.17421C76.395 9.54777 76.2471 9.90018 76.0875 10.2314L75.8039 10.1023C75.9816 9.76526 76.1384 9.41896 76.2712 9.06639Z" fill="white"/>
<path d="M78.8437 7.4944L79.4552 8.89955L78.8248 10.2963L78.5855 10.1867L79.1672 8.89761L78.603 7.60077L78.8437 7.4944Z" fill="white"/>
<path d="M81.9765 7.51304L82.2435 7.51409C82.1167 7.71759 82.0199 7.92422 81.9531 8.13395C81.8621 8.3916 81.8191 8.65243 81.818 8.91343C81.817 9.17143 81.858 9.43259 81.947 9.69394C82.0122 9.9012 82.1073 10.1086 82.2325 10.3161L81.9655 10.315C81.8253 10.1165 81.7181 9.91204 81.6439 9.70175C81.5519 9.44639 81.508 9.18521 81.509 8.91522C81.5101 8.64222 81.5561 8.3784 81.6501 8.12676C81.726 7.91106 81.8348 7.70749 81.9765 7.51304Z" fill="white"/>
<path d="M83.8297 9.0032L83.5717 9.00289L83.572 8.73589L84.367 8.73684L84.3667 9.00384L84.1087 9.00353L84.1078 9.74153C84.2278 9.71467 84.3479 9.68482 84.4649 9.65196L84.4646 9.91896C84.2035 9.99064 83.9244 10.0533 83.6274 10.104L83.5587 9.83088C83.6487 9.81898 83.7387 9.80709 83.8287 9.7922L83.8297 9.0032ZM84.9982 10.2826C84.8902 10.2825 84.7913 10.2013 84.7074 10.0452C84.6117 9.85613 84.543 9.60705 84.5013 9.301C84.4656 9.03696 84.442 8.71593 84.4305 8.33191L83.5035 8.33081L83.5038 8.05481L84.4248 8.05591C84.419 7.8879 84.4192 7.7109 84.4194 7.5309L84.6954 7.53123C84.6952 7.71723 84.695 7.89123 84.7008 8.05624L85.2738 8.05692L85.2735 8.33292L84.7065 8.33224C84.7179 8.79126 84.7475 9.16029 84.7892 9.43634C84.8488 9.77841 84.9176 9.9555 84.9985 9.97059C85.0465 9.96465 85.0948 9.78771 85.1492 9.44577L85.3739 9.62904C85.2654 10.0639 85.1422 10.2828 84.9982 10.2826ZM84.9474 7.52853C85.0733 7.66668 85.1691 7.78979 85.241 7.89188L85.0428 8.02964C84.971 7.91556 84.8721 7.78944 84.7523 7.6513L84.9474 7.52853ZM82.9734 7.56218C83.1592 7.7094 83.3151 7.85658 83.4409 8.00673L83.2456 8.2045C83.1318 8.06337 82.973 7.91318 82.7752 7.75694L82.9734 7.56218ZM82.5674 8.43169L83.2424 8.4325L83.2409 9.6685C83.31 9.59958 83.3821 9.52467 83.4572 9.44075L83.5318 9.74084C83.3636 9.92064 83.1864 10.0794 82.9972 10.2172L82.8895 9.96208C82.9376 9.92014 82.9647 9.87217 82.9647 9.81517L82.966 8.70517L82.567 8.70469L82.5674 8.43169Z" fill="white"/>
<path d="M87.1578 7.70791L88.6218 7.7078L88.6218 7.9868L87.1578 7.98691L87.1578 7.70791ZM87.0828 8.45791L88.7508 8.45779L88.7508 8.73679L88.2828 8.73683L88.2829 10.0088C88.2829 10.2008 88.1749 10.2968 87.9619 10.2968L87.5269 10.2969L87.4639 10.0179C87.6019 10.0299 87.7369 10.0359 87.8629 10.0359C87.9499 10.0359 87.9949 10.0028 87.9949 9.93985L87.9948 8.73685L87.0828 8.73691L87.0828 8.45791ZM86.6477 7.56095L86.9088 7.68093C86.7468 8.01094 86.4768 8.30496 86.0928 8.56899L86.0058 8.28399C86.2968 8.07697 86.5098 7.83696 86.6477 7.56095ZM86.7888 8.24793L87.0468 8.36792C86.9658 8.52992 86.8638 8.68293 86.7408 8.82694L86.7409 10.3089L86.4619 10.309L86.4619 9.10596C86.3539 9.19897 86.2399 9.28898 86.1139 9.37598L86.0299 9.09399C86.3718 8.85397 86.6268 8.57195 86.7888 8.24793Z" fill="white"/>
<path d="M89.0043 7.51872L89.2713 7.51866C89.4093 7.71362 89.5174 7.91759 89.5954 8.13358C89.6855 8.38555 89.7336 8.64954 89.7336 8.92254C89.7337 9.19254 89.6858 9.45355 89.5958 9.70858C89.5179 9.91859 89.4099 10.1226 89.272 10.3207L89.005 10.3207C89.1279 10.1137 89.2239 9.90667 89.2928 9.69965C89.3797 9.43863 89.4247 9.17762 89.4246 8.91962C89.4246 8.65862 89.3795 8.39763 89.2924 8.13965C89.2234 7.92967 89.1273 7.72269 89.0043 7.51872Z" fill="white"/>
<path d="M90.3088 9.55523C90.4348 9.64217 90.5549 9.7441 90.6689 9.86404C90.765 9.96299 90.855 10.0679 90.9391 10.1819L90.7442 10.347C90.6661 10.233 90.5761 10.1281 90.48 10.0261C90.372 9.9122 90.2579 9.80726 90.1378 9.71132L90.3088 9.55523Z" fill="white"/>
<path d="M95.0836 7.51434L95.3237 7.62206L94.7522 8.91573L95.3268 10.2081L95.0869 10.3163L94.4642 8.91606L95.0836 7.51434Z" fill="white"/>
<path d="M96.0019 7.57027C96.1672 7.71392 96.3055 7.85462 96.4198 7.99538L96.2222 8.1968C96.123 8.06201 95.9816 7.91832 95.8013 7.7657L96.0019 7.57027ZM95.9344 8.28742C96.0997 8.43106 96.2411 8.57476 96.3554 8.71852L96.1578 8.91694C96.0555 8.77916 95.9142 8.63546 95.7339 8.48285L95.9344 8.28742ZM96.1102 9.09404L96.3624 9.1895C96.2612 9.57372 96.151 9.93696 96.0317 10.2732L95.7675 10.1568C95.8987 9.8085 96.0119 9.45426 96.1102 9.09404ZM97.2524 8.74359L97.253 9.03459C97.1691 9.07977 97.0822 9.12196 96.9983 9.16114L97.0001 9.97414C97.0005 10.1721 96.9137 10.2743 96.7397 10.2747L96.4967 10.2752L96.4362 10.0263C96.5112 10.0382 96.5832 10.044 96.6492 10.0439C96.6972 10.0438 96.7241 9.99873 96.7239 9.91173L96.7226 9.28173L96.4708 9.37227L96.4042 9.09941C96.5121 9.07218 96.6171 9.03896 96.722 9.00273L96.7205 8.32173L96.4235 8.32237L96.423 8.07637L96.72 8.07573L96.7188 7.54173L96.9948 7.54114L96.996 8.07514L97.245 8.0746L97.2455 8.3206L96.9965 8.32114L96.9977 8.88214C97.0816 8.83996 97.1685 8.79177 97.2524 8.74359ZM98.3059 7.58033L98.4354 7.81705C98.1956 7.90456 97.9287 7.95914 97.6348 7.97777L97.6359 8.48777L98.4819 8.48595L98.4824 8.74095L98.2244 8.7415L98.2278 10.2955L97.9578 10.2961L97.9544 8.74208L97.6364 8.74277L97.6368 8.92577C97.623 9.4928 97.513 9.94603 97.3067 10.2855L97.1143 10.0819C97.2757 9.80254 97.3619 9.41836 97.3728 8.92633L97.3703 7.75034C97.7183 7.74359 98.0302 7.68592 98.3059 7.58033Z" fill="white"/>
<path d="M100.701 7.95673L99.9719 7.9593L99.9709 7.6893L101.684 7.68326L101.685 7.95326L100.98 7.95574L100.987 9.91473L101.794 9.91189L101.795 10.1849L99.8327 10.1918L99.8318 9.9188L100.708 9.91571L100.701 7.95673ZM99.3135 7.56262C99.524 7.70587 99.7045 7.84624 99.849 7.98673L99.6517 8.18843C99.5252 8.05387 99.3447 7.91051 99.1131 7.75832L99.3135 7.56262ZM99.238 8.27989C99.4485 8.42315 99.623 8.56953 99.7675 8.71302L99.5702 8.91172C99.4437 8.77416 99.2662 8.63079 99.0377 8.47559L99.238 8.27989ZM99.5618 9.08575L99.8142 9.18086C99.6715 9.56537 99.5138 9.92592 99.341 10.2625L99.0766 10.1465C99.2643 9.8008 99.4251 9.44623 99.5618 9.08575Z" fill="white"/>
<path d="M103.065 7.50544L103.344 7.504L103.348 8.26899L103.069 8.27043L103.065 7.50544ZM102.397 8.8709C102.265 8.89858 102.134 8.92627 102.002 8.95095L101.883 8.69355C102.789 8.54488 103.483 8.3133 103.965 7.99881C103.865 7.92132 103.76 7.84386 103.649 7.76644L103.84 7.58245C104.147 7.79387 104.409 8.00552 104.62 8.21443L104.423 8.41645C104.348 8.33284 104.263 8.24927 104.167 8.16577C103.901 8.35014 103.583 8.50778 103.212 8.6417L104.274 8.63622L104.282 10.2652L104.003 10.2666L104.003 10.1526L102.68 10.1595L102.681 10.2795L102.405 10.2809L102.397 8.8709ZM102.679 9.90747L104.002 9.90064L104.001 9.69965L102.678 9.70647L102.679 9.90747ZM102.676 9.47847L103.999 9.47165L103.998 9.28865L102.675 9.29548L102.676 9.47847ZM102.674 9.07048L103.997 9.06366L103.996 8.87466L102.673 8.88148L102.674 9.07048ZM102.595 7.67887L102.797 7.85483C102.621 8.07474 102.403 8.26787 102.143 8.43121L101.977 8.21906C102.222 8.0618 102.428 7.88373 102.595 7.67887Z" fill="white"/>
<path d="M106.207 7.97552L105.202 7.98281L105.2 7.70982L107.501 7.69313L107.503 7.96613L106.495 7.97343L106.508 9.79739L107.705 9.78871L107.707 10.0647L105.022 10.0842L105.02 9.80817L106.22 9.79947L106.207 7.97552Z" fill="white"/>
<path d="M108.038 7.73098L108.716 7.72439L108.713 7.4634L109.004 7.46057L109.007 7.72156L109.726 7.71457L109.724 7.45358L110.015 7.45075L110.017 7.71174L110.695 7.70515L110.698 7.97214L110.02 7.97873L110.022 8.21572L109.731 8.21854L109.729 7.98155L109.009 7.98855L109.011 8.22554L108.72 8.22836L108.718 7.99138L108.04 7.99796L108.038 7.73098ZM108.317 8.34029L110.308 8.32094L110.311 8.59393C109.49 9.05192 108.96 9.39909 108.722 9.63542C108.645 9.71417 108.6 9.7776 108.586 9.83175C108.586 9.87674 108.611 9.90051 108.665 9.89999L110.138 9.88568C110.219 9.88489 110.281 9.86328 110.323 9.82387C110.365 9.78747 110.399 9.61312 110.426 9.30085L110.691 9.40628C110.661 9.75458 110.606 9.96512 110.523 10.0379C110.443 10.1077 110.323 10.1449 110.167 10.1464L108.682 10.1608C108.418 10.1634 108.288 10.0716 108.287 9.88566C108.285 9.75966 108.383 9.60871 108.573 9.43285C108.823 9.19942 109.246 8.92229 109.837 8.59853L108.319 8.61328L108.317 8.34029Z" fill="white"/>
<path d="M111.099 7.73079L111.744 7.72269C111.703 7.63319 111.66 7.55272 111.611 7.47833L111.911 7.42657C111.954 7.51304 111.994 7.61154 112.035 7.71904L112.613 7.71178C112.657 7.61522 112.692 7.51278 112.715 7.40748L113.021 7.44264C112.995 7.53597 112.96 7.62342 112.916 7.70798L113.54 7.70015L113.544 7.95813L112.467 7.97164L112.47 8.19962L113.388 8.1881L113.391 8.43408L112.473 8.4456L112.476 8.67658L113.652 8.66183L113.655 8.92581L111.015 8.95893L111.012 8.69495L112.188 8.6802L112.185 8.44922L111.276 8.46062L111.273 8.21464L112.182 8.20324L112.179 7.97525L111.102 7.98877L111.099 7.73079ZM112.213 9.00091L112.501 9.02729C112.493 9.0844 112.481 9.14155 112.467 9.19573L113.592 9.18162L113.595 9.45159L112.605 9.46402C112.812 9.69544 113.195 9.84965 113.754 9.92664L113.608 10.1985C112.964 10.0806 112.541 9.85785 112.336 9.5274C112.275 9.63618 112.201 9.73012 112.112 9.81224C111.916 9.98871 111.573 10.131 111.076 10.2393L110.956 9.96176C111.381 9.88142 111.688 9.76955 111.875 9.62319C111.935 9.57444 111.982 9.52584 112.024 9.47132L111.091 9.48303L111.087 9.21305L112.167 9.1995C112.187 9.13324 112.201 9.06705 112.213 9.00091Z" fill="white"/>
<path d="M113.944 8.09987L115.084 8.08192L115.073 7.38901L115.355 7.38457L115.366 8.07749L116.509 8.0595L116.513 8.33246L115.631 8.34634C115.831 8.81126 116.161 9.22311 116.623 9.58189L116.435 9.82488C115.933 9.39473 115.577 8.90827 115.371 8.36545L115.399 10.1532L115.117 10.1577L115.089 8.37589C114.879 8.97926 114.524 9.47991 114.023 9.87484L113.863 9.62233C114.308 9.29129 114.632 8.86915 114.828 8.359L113.949 8.37283L113.944 8.09987ZM115.844 7.37987C116.018 7.55716 116.152 7.71106 116.248 7.84158L116.022 8.00715C115.924 7.85868 115.789 7.69878 115.624 7.52135L115.844 7.37987Z" fill="white"/>
<path d="M116.747 8.41028L117.152 8.40247L117.132 7.36766L117.405 7.3624L117.425 8.39721L117.761 8.39073L117.766 8.65169L117.43 8.65816L117.432 8.74814C117.578 8.88334 117.722 9.0336 117.87 9.19879L117.712 9.44487C117.607 9.26387 117.514 9.11563 117.437 9.0001L117.458 10.1249L117.185 10.1302L117.165 9.08035C117.08 9.31604 116.967 9.53125 116.833 9.72888L116.704 9.4223C116.903 9.19941 117.052 8.94751 117.142 8.66371L116.752 8.67123L116.747 8.41028ZM117.598 7.55972L117.808 7.58267C117.795 7.83497 117.755 8.0578 117.686 8.25415L117.502 8.19769C117.553 8.01368 117.585 7.80002 117.598 7.55972ZM116.936 7.61749C116.981 7.79965 117.024 8.00886 117.062 8.24218L116.874 8.29381C116.834 8.08454 116.788 7.88139 116.733 7.68741L116.936 7.61749ZM118.506 7.33218L118.779 7.32692L118.782 7.50389L119.385 7.49227L119.389 7.72322L118.787 7.73485L118.789 7.88182L119.305 7.87187L119.31 8.09683L118.794 8.10678L118.797 8.25675L119.468 8.2438L119.473 8.48075L117.847 8.51209L117.843 8.27514L118.524 8.26201L118.521 8.11204L117.987 8.12233L117.983 7.89737L118.516 7.88708L118.514 7.74011L117.893 7.75208L117.888 7.52112L118.509 7.50915L118.506 7.33218ZM118.267 9.26015L118.27 9.42212L119.077 9.40656L119.074 9.24459L118.267 9.26015ZM119.07 9.02863L119.066 8.85766L118.259 8.87322L118.263 9.04419L119.07 9.02863ZM118.274 9.63508L118.283 10.103L118.016 10.1081L117.988 8.64741L119.335 8.62145L119.357 9.79123C119.361 9.97419 119.27 10.069 119.084 10.0726L118.877 10.0765L118.803 9.82892L118.998 9.84016C119.055 9.83906 119.084 9.80549 119.083 9.7395L119.081 9.61952L118.274 9.63508Z" fill="white"/>
<path d="M120.402 7.39817L122.105 7.35835L122.13 8.40507L120.426 8.44488L120.402 7.39817ZM121.839 8.1418L121.827 7.63494L120.693 7.66143L120.705 8.1683L121.839 8.1418ZM121.139 8.65328L121.171 10.0029L120.895 10.0094L120.892 9.8654L120.337 9.87837L120.34 10.0223L120.061 10.0288L120.03 8.67921L121.139 8.65328ZM120.331 9.61144L120.885 9.59847L120.87 8.92965L120.315 8.94262L120.331 9.61144ZM122.537 8.62061L122.569 9.97024L122.284 9.9769L122.28 9.83294L121.701 9.84647L121.705 9.99043L121.426 9.99695L121.394 8.64732L122.537 8.62061ZM121.695 9.57954L122.274 9.56601L122.258 8.8972L121.68 8.91073L121.695 9.57954Z" fill="white"/>
<path d="M123.737 7.33441L125.38 7.28914L125.387 7.55603L124.701 7.57495L124.73 8.64255L125.507 8.62115L125.514 8.89105L124.738 8.91244L124.766 9.95605L124.49 9.96365L124.462 8.92004L123.697 8.94111L123.69 8.67121L124.454 8.65015L124.425 7.58255L123.744 7.6013L123.737 7.33441ZM125.079 7.68158L125.33 7.7407C125.278 8.03024 125.206 8.2843 125.116 8.50286L124.874 8.4255C124.953 8.22826 125.021 7.98029 125.079 7.68158ZM124.024 7.72266C124.114 7.93926 124.192 8.18918 124.266 8.47226L124.025 8.53892C123.961 8.28259 123.879 8.03875 123.783 7.80732L124.024 7.72266ZM123.095 7.25604C123.294 7.39761 123.463 7.54001 123.602 7.68624L123.413 7.88953C123.289 7.75189 123.12 7.60649 122.903 7.45642L123.095 7.25604ZM122.714 8.13686L123.407 8.11778L123.442 9.3803C123.521 9.3031 123.606 9.21673 123.696 9.12421L123.782 9.42194C123.607 9.60383 123.417 9.76814 123.217 9.91171L123.101 9.65678C123.148 9.61347 123.174 9.56175 123.172 9.50177L123.142 8.39819L122.722 8.40976L122.714 8.13686Z" fill="white"/>
<path d="M126.566 8.77759L126.575 9.05644L127.178 9.037L127.169 8.75815L126.566 8.77759ZM127.186 9.29787L126.584 9.31731L126.589 9.47922L126.31 9.48822L126.262 7.99199L127.143 7.96356L127.135 7.7027L127.417 7.6936L127.425 7.95447L128.316 7.92574L128.364 9.41297L128.085 9.42197L128.08 9.26905L127.468 9.28878L127.487 9.88247L127.205 9.89156L127.186 9.29787ZM127.46 9.02791L128.071 9.00818L128.062 8.72933L127.451 8.74906L127.46 9.02791ZM128.054 8.48046L128.045 8.1986L127.434 8.21833L127.443 8.50019L128.054 8.48046ZM127.152 8.22742L126.549 8.24686L126.558 8.52872L127.161 8.50928L127.152 8.22742ZM128.526 7.27363L128.544 7.84034L128.268 7.84924L128.258 7.5434L126.255 7.608L126.266 7.92883L125.99 7.93773L125.971 7.35603L127.092 7.31986C127.063 7.25477 127.034 7.19567 127.003 7.13967L127.304 7.08192C127.33 7.15011 127.36 7.2272 127.386 7.31038L128.526 7.27363Z" fill="white"/>
<path d="M131.367 7.14584L131.458 9.60716L131.182 9.61735L131.174 9.3985L130.524 9.42253L130.533 9.67735L130.26 9.68743L130.168 7.19013L131.367 7.14584ZM130.514 9.15271L131.164 9.12868L131.101 7.42284L130.451 7.44687L130.514 9.15271ZM128.833 7.86088L129.333 7.84238L129.32 7.48263C129.183 7.50871 129.043 7.5289 128.905 7.54599L128.806 7.29448C129.266 7.24145 129.635 7.15277 129.916 7.03433L130.06 7.26618C129.909 7.32579 129.755 7.37952 129.594 7.42147L129.609 7.83219L130.098 7.81414L130.108 8.08096L129.619 8.09901L129.623 8.21893C129.797 8.35963 129.974 8.5182 130.154 8.69466L129.996 8.94669C129.854 8.7598 129.734 8.61112 129.634 8.49474L129.681 9.76887L129.405 9.77906L129.36 8.56489C129.249 8.82115 129.102 9.05775 128.924 9.27447L128.79 8.96722C129.044 8.71764 129.229 8.43463 129.344 8.12419L129.343 8.1092L128.843 8.12769L128.833 7.86088Z" fill="white"/>
<path d="M134.256 8.02646L134.282 8.6559L132.822 8.71736L132.829 8.87622L134.43 8.80883L134.463 9.60912L134.179 9.62111L134.174 9.5132L132.858 9.56861L132.863 9.67351L132.578 9.6855L132.511 8.09991L134.256 8.02646ZM132.848 9.31683L134.163 9.26143L134.154 9.04562L132.838 9.10102L132.848 9.31683ZM132.813 8.48956L133.994 8.43984L133.986 8.26599L132.805 8.31572L132.813 8.48956ZM134.653 7.63437L134.678 8.20686L134.399 8.2186L134.385 7.8859L132.365 7.97096L132.379 8.30367L132.1 8.3154L132.076 7.74291L133.236 7.69407C133.209 7.63513 133.18 7.58231 133.151 7.53549L133.401 7.48293L133.349 7.4521C133.479 7.26646 133.573 7.07034 133.624 6.86099L133.899 6.90946C133.883 6.96117 133.87 7.00976 133.854 7.05847L134.688 7.02339L134.698 7.27217L134.21 7.29274C134.26 7.35666 134.302 7.42096 134.338 7.47952L134.09 7.58304C134.038 7.48914 133.977 7.39563 133.907 7.30548L133.754 7.31192C133.707 7.41298 133.654 7.5083 133.595 7.59487L133.447 7.50801C133.473 7.56095 133.497 7.62002 133.523 7.68195L134.653 7.63437ZM132.465 7.36619C132.404 7.47687 132.336 7.58181 132.262 7.67801L132.007 7.53262C132.173 7.33947 132.287 7.13047 132.353 6.91151L132.628 6.95997C132.612 7.01168 132.594 7.06352 132.578 7.11224L133.333 7.08043L133.343 7.32921L132.894 7.34814C132.951 7.42081 133.002 7.49072 133.041 7.55815L132.784 7.66804C132.729 7.56228 132.667 7.45977 132.597 7.36064L132.465 7.36619Z" fill="white"/>
<path d="M135.995 6.86943L137.511 6.79795L137.579 8.23036L136.964 8.25932L136.978 8.55899L137.632 8.52819L137.644 8.7919L136.991 8.82269L137.006 9.13435L137.764 9.0986L137.777 9.3713L135.964 9.45677L135.951 9.18408L136.724 9.14763L136.709 8.83597L136.053 8.86691L136.04 8.6032L136.697 8.57227L136.683 8.2726L136.062 8.30184L135.995 6.86943ZM137.294 7.99149L137.278 7.64987L136.936 7.66598L136.952 8.0076L137.294 7.99149ZM136.671 8.02088L136.655 7.67926L136.307 7.69565L136.323 8.03727L136.671 8.02088ZM136.295 7.44992L136.643 7.43353L136.627 7.09191L136.279 7.1083L136.295 7.44992ZM136.909 7.07863L136.925 7.42025L137.266 7.40415L137.25 7.06252L136.909 7.07863ZM135.007 7.90408L135.304 7.89009L135.274 7.2488L134.932 7.26491L134.919 6.99521L135.887 6.94958L135.9 7.21928L135.561 7.23524L135.592 7.87653L135.894 7.86226L135.907 8.13496L135.605 8.14923L135.633 8.74856C135.733 8.7078 135.83 8.66718 135.924 8.6207L135.937 8.8964C135.667 9.01727 135.377 9.12401 135.066 9.21377L134.984 8.94432C135.109 8.91741 135.231 8.88464 135.349 8.84903L135.317 8.16279L135.02 8.17678L135.007 7.90408Z" fill="white"/>
<path d="M139.406 8.7794C139.177 9.04973 138.797 9.26783 138.271 9.43353L138.103 9.199C138.652 9.02307 139.023 8.81742 139.212 8.57924L139.259 8.50767L138.097 8.56845L138.083 8.29882L139.392 8.23036C139.455 8.04685 139.486 7.84393 139.486 7.6216L139.467 7.2561L139.743 7.24169L139.762 7.60719C139.765 7.82936 139.742 8.03181 139.692 8.2147L140.632 8.1655L140.646 8.43514L139.589 8.49044C139.575 8.51519 139.561 8.53994 139.551 8.56453C139.973 8.70469 140.363 8.87653 140.722 9.07407L140.579 9.32788C140.194 9.09565 139.803 8.91482 139.406 8.7794ZM138.481 7.7072C138.699 7.78296 138.899 7.87763 139.082 7.99122L138.947 8.22359C138.754 8.09249 138.554 7.99482 138.352 7.92727L138.481 7.7072ZM138.753 7.27242C138.97 7.34518 139.17 7.43985 139.351 7.5536L139.216 7.78597C139.023 7.65787 138.825 7.55705 138.623 7.48949L138.753 7.27242ZM140.534 6.80378L140.566 7.41794L140.291 7.43235L140.272 7.07883L138.319 7.18098L138.337 7.53449L138.062 7.54891L138.03 6.93474L139.153 6.876C139.116 6.79383 139.079 6.71766 139.039 6.64764L139.327 6.58451C139.367 6.66652 139.405 6.75767 139.441 6.86096L140.534 6.80378Z" fill="white"/>
<path d="M140.683 6.93146L141.117 6.90662C141.059 6.77775 140.998 6.65803 140.931 6.55064L141.219 6.48311C141.277 6.60299 141.336 6.73785 141.393 6.89086L141.746 6.87064L141.762 7.14619L141.178 7.1796L141.198 7.53003L141.728 7.4997C141.772 8.27843 141.785 8.7615 141.772 8.94557C141.752 9.12699 141.625 9.22738 141.386 9.24108C141.362 9.24245 141.32 9.23886 141.262 9.23613L141.185 8.98514C141.239 8.99104 141.288 8.99429 141.329 8.99189C141.434 8.9859 141.494 8.93138 141.509 8.82835C141.519 8.72566 141.507 8.37472 141.479 7.77835L141.21 7.79377C141.23 8.45671 141.147 8.95125 140.961 9.27739L140.738 9.10386C140.904 8.79989 140.97 8.32135 140.936 7.67424L140.908 7.19502L140.698 7.20701L140.683 6.93146ZM142.187 7.01969C142.101 7.24099 142.001 7.43302 141.887 7.59879L141.688 7.38777C141.852 7.15603 141.985 6.83897 142.088 6.43941L142.358 6.48407C142.333 6.57563 142.308 6.66121 142.283 6.74678L143.316 6.68768L143.331 6.95424L142.187 7.01969ZM143.246 7.29269C143.278 7.86476 143.283 8.21305 143.266 8.33422C143.246 8.45557 143.139 8.5248 142.941 8.53611L142.926 8.53697L142.84 8.30147C142.891 8.29856 142.936 8.29898 142.975 8.29676C143.008 8.29487 143.028 8.26372 143.03 8.20647C143.033 8.15521 143.029 7.97217 143.011 7.66068L142.788 7.75457L142.844 8.73097L142.58 8.74605L142.53 7.86249L142.304 7.95655L142.349 8.73827C142.356 8.87006 142.405 8.93638 142.495 8.93124L143.061 8.89886C143.124 8.89526 143.171 8.87754 143.199 8.84588C143.233 8.80788 143.251 8.70168 143.253 8.52428L143.503 8.58811C143.491 8.84723 143.455 9.00255 143.392 9.06023C143.334 9.10858 143.246 9.13768 143.12 9.14488L142.428 9.18446C142.225 9.19611 142.115 9.06715 142.1 8.80358L142.057 8.0608L141.849 8.14784L141.834 7.89026L142.043 7.80322L142.02 7.40187L142.271 7.38748L142.289 7.69897L142.515 7.60192L142.488 7.13169L142.752 7.11661L142.773 7.49399L143.246 7.29269Z" fill="white"/>
<path d="M144.193 7.40458L144.45 7.48768C144.374 7.85015 144.262 8.13066 144.112 8.33239L143.888 8.16002C144.032 7.96466 144.134 7.71484 144.193 7.40458ZM144.746 6.30294L145.033 6.28499L145.068 6.8419L146.014 6.78281C146.021 6.99278 146.031 7.18759 146.036 7.36761L146.227 7.25946C146.382 7.52033 146.535 7.80834 146.684 8.12666L146.432 8.26869C146.306 7.98199 146.172 7.71981 146.037 7.48775C146.039 7.71007 146.04 7.90843 146.038 8.07685C146.028 8.40209 145.992 8.63283 145.931 8.76887C145.87 8.89893 145.763 8.97172 145.611 8.99323L145.261 9.01511L145.166 8.74451C145.268 8.74414 145.364 8.74115 145.454 8.73554C145.601 8.72638 145.693 8.6184 145.732 8.41761C145.767 8.20503 145.769 7.75703 145.741 7.07642L145.073 7.11811C145.073 7.59606 145.014 7.99053 144.895 8.30155C144.76 8.63763 144.518 8.90523 144.173 9.10713L144.001 8.86833C144.331 8.65839 144.55 8.40427 144.657 8.10897C144.743 7.84212 144.786 7.51782 144.786 7.13607L144.073 7.18057L144.056 6.90511L144.781 6.85985L144.746 6.30294Z" fill="white"/>
<path d="M148.279 6.07168L148.566 6.05231L148.597 6.50429L149.342 6.45406L149.36 6.72944L148.615 6.77966L148.648 7.27354L149.475 7.21787L149.493 7.49325L148.52 7.5588C148.377 7.97139 148.247 8.2778 148.128 8.47824C148.455 8.42014 148.778 8.34427 149.097 8.25664C149.008 8.10025 148.917 7.95603 148.827 7.82379L149.096 7.71544C149.293 8.00286 149.47 8.30965 149.625 8.642L149.363 8.77988C149.318 8.68074 149.272 8.58458 149.227 8.49741C148.787 8.61427 148.307 8.71579 147.786 8.80497L147.704 8.56097C147.727 8.55037 147.748 8.53998 147.762 8.52999C147.886 8.40438 148.036 8.08758 148.212 7.57958L147.551 7.62416L147.532 7.34878L148.361 7.29291L148.328 6.79903L147.642 6.84522L147.624 6.56984L148.309 6.52365L148.279 6.07168ZM146.981 6.18317C147.183 6.31992 147.355 6.45569 147.499 6.59328L147.309 6.81353C147.186 6.68051 147.012 6.54195 146.788 6.39464L146.981 6.18317ZM146.954 6.88862C147.14 7.02638 147.3 7.16595 147.436 7.30714L147.243 7.5246C147.129 7.39098 146.969 7.24841 146.763 7.09989L146.954 6.88862ZM147.301 7.71314L147.565 7.80055C147.462 8.18338 147.342 8.54626 147.209 8.889L146.916 8.78244C147.067 8.43251 147.196 8.07501 147.301 7.71314Z" fill="white"/>
<path d="M150.058 5.92273L150.779 7.27531L150.26 8.71744L150.013 8.62703L150.492 7.29608L149.827 6.04776L150.058 5.92273Z" fill="white"/>
<path d="M163.375 5.14315L163.676 7.20934L163.406 7.2487L163.384 7.09433L162.915 7.16267L162.95 7.40313L162.68 7.44249L162.366 5.29022L162.648 5.24913C162.678 5.08103 162.696 4.9117 162.694 4.73606L162.982 4.73356C162.976 4.90116 162.954 5.05905 162.918 5.20976L163.375 5.14315ZM162.877 6.90143L163.346 6.83309L163.26 6.24826L162.791 6.3166L162.877 6.90143ZM162.755 6.06427L163.224 5.99592L163.144 5.44969L162.675 5.51803L162.755 6.06427ZM164.013 5.77777C164.245 5.99265 164.427 6.18137 164.558 6.35028L164.358 6.54006C164.217 6.36057 164.031 6.16635 163.806 5.95357L164.013 5.77777ZM164.908 4.92293C165.057 5.94711 165.134 6.5816 165.139 6.82342C165.14 7.04149 165.014 7.16912 164.761 7.20589C164.702 7.21454 164.594 7.22417 164.444 7.23689L164.338 6.98857C164.47 6.97547 164.584 6.96497 164.679 6.95113C164.797 6.93383 164.857 6.86154 164.856 6.73426C164.852 6.58323 164.789 6.0832 164.671 5.23627L163.926 5.34484C163.869 5.53507 163.798 5.71219 163.707 5.87706L163.505 5.67906C163.659 5.36552 163.745 4.99829 163.757 4.57824L164.041 4.5732C164.036 4.74377 164.017 4.9042 163.99 5.05658L164.908 4.92293ZM165.452 4.37071C165.676 4.49864 165.869 4.63132 166.028 4.7658L165.857 4.99071C165.717 4.85958 165.527 4.72349 165.285 4.58289L165.452 4.37071ZM167.546 6.78191C167.383 6.8057 167.204 6.82869 167.014 6.8534C166.82 6.87855 166.661 6.88366 166.532 6.87214C166.408 6.85382 166.293 6.79771 166.19 6.70975C166.141 6.66534 166.102 6.64678 166.066 6.65197C166.004 6.66106 165.916 6.81022 165.804 7.09946L165.568 6.93677C165.681 6.67468 165.793 6.50382 165.903 6.42714L165.78 5.58701L165.383 5.64498L165.345 5.38373L166.007 5.28728L166.17 6.40943C166.187 6.41914 166.204 6.43182 166.221 6.44747C166.301 6.51767 166.381 6.56667 166.461 6.59445C166.556 6.62303 166.69 6.63072 166.866 6.61113C167.036 6.58945 167.235 6.56344 167.467 6.5297C167.612 6.5085 167.76 6.48391 167.908 6.45931C168.056 6.43471 168.171 6.41191 168.251 6.39429L168.223 6.68329L167.546 6.78191ZM166.688 4.49073L166.115 4.57421L166.081 4.33968L167.71 4.10222L167.739 4.30112C167.589 4.47464 167.423 4.62614 167.243 4.76156C167.249 4.76663 167.256 4.76873 167.263 4.77381L167.859 4.68687L168.051 6.00495C168.077 6.1801 167.992 6.28343 167.799 6.31155L167.57 6.34485L167.477 6.11898L167.689 6.10014C167.755 6.09063 167.786 6.05278 167.776 5.98747L167.754 5.83607L167.326 5.89836L167.397 6.38522L167.139 6.42285L167.068 5.93599L166.65 5.99698L166.721 6.48977L166.454 6.5287L166.221 4.92563L166.903 4.82614C166.796 4.77511 166.676 4.72283 166.545 4.67526L166.688 4.49073ZM167.051 4.65306C167.167 4.57255 167.272 4.48443 167.368 4.39167L166.703 4.48856C166.826 4.54338 166.943 4.59608 167.051 4.65306ZM166.586 5.56059L166.616 5.76839L167.035 5.7074L167.005 5.4996L166.586 5.56059ZM167.263 5.46196L167.293 5.66977L167.721 5.60748L167.69 5.39968L167.263 5.46196ZM167.657 5.16812L167.626 4.96032L167.199 5.0226L167.229 5.23041L167.657 5.16812ZM166.971 5.26804L166.941 5.06024L166.522 5.12122L166.552 5.32903L166.971 5.26804ZM170.798 3.85857L171.135 6.17412L170.862 6.21391L170.837 6.0447L170.318 6.12039L170.343 6.29257L170.07 6.33237L169.732 4.01385L170.798 3.85857ZM170.279 5.85618L170.799 5.78049L170.563 4.16257L170.043 4.23826L170.279 5.85618ZM168.718 4.5224C168.671 4.68078 168.614 4.82859 168.549 4.96538L168.279 4.84394C168.429 4.53721 168.522 4.21748 168.555 3.88518L168.843 3.9039C168.829 4.02103 168.809 4.13013 168.788 4.23625L169.599 4.11817L169.638 4.38831L169.234 4.44714C169.255 4.63206 169.271 4.80554 169.276 4.96547L169.739 4.898L169.779 5.16815L169.277 5.24125C169.275 5.30829 169.269 5.37576 169.266 5.43686C169.474 5.59453 169.688 5.77255 169.911 5.97049L169.777 6.25682C169.555 6.02239 169.37 5.84005 169.224 5.70978C169.145 6.03966 168.973 6.33458 168.701 6.59244L168.484 6.39364C168.759 6.12007 168.921 5.8116 168.97 5.46484C168.974 5.40671 168.98 5.34517 168.983 5.28407L168.398 5.36928L168.359 5.09913L168.985 5.00786C168.98 4.84793 168.964 4.67445 168.943 4.48953L168.718 4.5224ZM171.396 3.45299L172.213 4.74982L171.8 6.22572L171.547 6.15345L171.928 4.79134L171.174 3.59447L171.396 3.45299ZM171.904 3.37903L172.721 4.67585L172.308 6.15175L172.055 6.07948L172.436 4.71738L171.67 3.52223L171.904 3.37903Z" fill="white"/>
<path d="M153.373 5.67928L153.639 5.65914C153.529 5.87207 153.449 6.08572 153.399 6.3001C153.329 6.56415 153.306 6.82757 153.326 7.08783C153.346 7.3451 153.407 7.60219 153.517 7.85565C153.598 8.05709 153.709 8.25626 153.851 8.45316L153.584 8.4733C153.429 8.2865 153.306 8.09123 153.215 7.88748C153.103 7.64022 153.039 7.38336 153.018 7.11413C152.998 6.84191 153.023 6.57526 153.096 6.31697C153.155 6.09593 153.247 5.88436 153.373 5.67928Z" fill="white"/>
<path d="M155.142 7.03245L154.884 7.05268L154.864 6.7865L155.656 6.72417L155.677 6.99035L155.42 7.01058L155.478 7.7463C155.595 7.70998 155.712 7.67066 155.827 7.62859L155.847 7.89477C155.593 7.98701 155.32 8.07169 155.028 8.14582L154.937 7.87907C155.026 7.86005 155.115 7.84103 155.204 7.81902L155.142 7.03245ZM156.408 8.21479C156.301 8.22325 156.196 8.15027 156.1 8.00133C155.989 7.82044 155.901 7.57762 155.835 7.27585C155.778 7.01549 155.729 6.69736 155.687 6.31548L154.763 6.38816L154.741 6.11301L155.66 6.0408C155.64 5.87379 155.627 5.69733 155.612 5.51788L155.888 5.49625C155.902 5.68167 155.916 5.85514 155.935 6.01916L156.506 5.97424L156.528 6.24939L155.962 6.29384C156.01 6.75049 156.069 7.116 156.133 7.38786C156.219 7.7241 156.302 7.89514 156.384 7.90375C156.431 7.894 156.465 7.71378 156.492 7.3686L156.731 7.5334C156.657 7.97553 156.552 8.2035 156.408 8.21479ZM156.139 5.4735C156.275 5.60119 156.38 5.71629 156.46 5.81233L156.274 5.96543C156.193 5.85742 156.084 5.73957 155.954 5.61141L156.139 5.4735ZM154.173 5.66415C154.37 5.79612 154.537 5.93043 154.675 6.07009L154.496 6.28277C154.371 6.15114 154.201 6.01407 153.991 5.87407L154.173 5.66415ZM153.838 6.56323L154.511 6.51031L154.608 7.7425C154.671 7.6683 154.737 7.58789 154.805 7.49827L154.903 7.79146C154.75 7.98408 154.586 8.15647 154.409 8.30886L154.281 8.06311C154.325 8.01748 154.349 7.96751 154.344 7.91069L154.257 6.8041L153.859 6.83539L153.838 6.56323Z" fill="white"/>
<path d="M157.832 5.51579L159.291 5.39457L159.314 5.67261L157.855 5.79383L157.832 5.51579ZM157.819 6.26943L159.481 6.13131L159.504 6.40936L159.038 6.44811L159.143 7.71574C159.159 7.90708 159.06 8.01169 158.847 8.02933L158.414 8.06535L158.328 7.79252C158.466 7.79305 158.601 7.78785 158.727 7.77742C158.814 7.77022 158.856 7.73361 158.851 7.67082L158.751 6.47195L157.842 6.54747L157.819 6.26943ZM157.311 5.41152L157.581 5.5095C157.447 5.85178 157.202 6.16713 156.842 6.46202L156.731 6.1852C157.004 5.95481 157.197 5.698 157.311 5.41152ZM157.509 6.08449L157.776 6.18271C157.708 6.35087 157.619 6.51179 157.509 6.66548L157.631 8.14239L157.353 8.16549L157.254 6.96662C157.154 7.06824 157.048 7.16737 156.929 7.26451L156.822 6.99043C157.143 6.72294 157.374 6.42079 157.509 6.08449Z" fill="white"/>
<path d="M159.7 5.16934L159.966 5.14647C160.12 5.32893 160.246 5.52292 160.342 5.73144C160.453 5.97481 160.523 6.23372 160.547 6.50572C160.57 6.77473 160.544 7.03888 160.477 7.30065C160.417 7.51656 160.327 7.72907 160.206 7.93816L159.94 7.96104C160.045 7.74426 160.123 7.5298 160.174 7.31765C160.238 7.05015 160.261 6.78626 160.239 6.52921C160.216 6.26917 160.149 6.01298 160.04 5.76338C159.954 5.56007 159.84 5.36205 159.7 5.16934Z" fill="white"/>
</svg>
