<svg width="121" height="36" viewBox="0 0 121 36" fill="none" xmlns="http://www.w3.org/2000/svg">
<path d="M5.36141 29.4735L5.72195 29.4131L5.99714 31.2853L7.57154 32.3231L7.38008 32.6172L5.67402 31.4927L5.36141 29.4735ZM5.93697 29.1039L6.28404 29.0522L6.57269 30.9157L8.14709 31.9535L7.95563 32.2476L6.24958 31.1232L5.93697 29.1039Z" fill="white"/>
<path d="M7.53501 28.1242C7.77117 28.2099 8.01481 28.3145 8.26257 28.4402L8.12141 28.6789L8.81715 28.23C8.81453 27.9603 8.77461 27.6624 8.69956 27.3395L9.06636 27.2218C9.13555 27.4913 9.1694 27.7504 9.17678 27.9979L9.81538 27.5859L10.0149 27.8951L8.9192 28.6021L8.98643 28.7063C9.08381 28.8719 9.16242 29.0307 9.22781 29.1836L10.5655 28.3205L10.765 28.6297L9.58866 29.3888C10.0158 29.6892 10.6419 29.7374 11.4693 29.5368L11.4763 29.9607C10.5839 30.1271 9.88969 30.0324 9.38896 29.6842C9.43039 29.8812 9.44753 30.0701 9.43822 30.2475C9.40485 30.6975 9.18141 31.1701 8.76791 31.6654L8.41313 31.4992C8.8223 30.9972 9.03522 30.5599 9.05526 30.1852C9.05623 30.0465 9.0406 29.9043 9.01056 29.7618L7.86108 30.5035L7.66156 30.1943L8.89843 29.3962C8.83423 29.2377 8.75898 29.0768 8.66377 28.9145L8.59654 28.8103L7.49747 29.5194L7.29795 29.2102L8.01722 28.7461C7.78052 28.6227 7.55228 28.5272 7.33369 28.4541L7.53501 28.1242Z" fill="white"/>
<path d="M10.3283 26.4598L12.8793 24.8285L13.0797 25.1419L12.0048 25.8293L12.5306 26.6516L13.8414 25.8133L14.0462 26.1334L12.7353 26.9717L13.4702 28.1208C13.621 28.3567 13.5739 28.5578 13.3279 28.7151L12.7921 29.0577L12.5265 28.7908C12.7048 28.691 12.8742 28.5921 13.0292 28.493C13.1371 28.4241 13.1587 28.339 13.0983 28.2447L12.4152 27.1764L11.047 28.0514L10.8423 27.7312L12.2104 26.8563L11.6846 26.034L10.5288 26.7732L10.3283 26.4598Z" fill="white"/>
<path d="M14.8652 25.511L15.43 26.4127C15.6698 26.1775 15.9201 25.9216 16.17 25.6424L16.4395 25.8842C16.0947 26.2606 15.7292 26.6265 15.3484 26.983L15.0518 26.7959C15.1056 26.7009 15.1059 26.611 15.0528 26.5263L13.7639 24.4687C14.1451 24.1354 14.4763 23.8052 14.7554 23.4746L15.1168 23.607C14.8767 23.8943 14.584 24.1956 14.2409 24.5144L14.672 25.2025L15.6076 24.6164L15.8008 24.9249L14.8652 25.511ZM17.7016 25.3673L17.383 25.5669L17.0995 25.3103L17.4054 25.1281C17.4935 25.0728 17.5058 24.9944 17.4463 24.8995L16.3463 23.1436L15.6786 23.5619L17.3476 26.2263L17.0222 26.4301L15.162 23.4606L16.4807 22.6346L17.8142 24.7634C17.9735 25.0177 17.9355 25.2208 17.7016 25.3673Z" fill="white"/>
<path d="M17.6003 23.225L17.2642 22.0626L17.6222 21.9201L17.8285 22.6605L18.3345 22.3533C18.2458 22.0608 18.1352 21.763 18.006 21.4577L18.3625 21.2974C18.4855 21.5924 18.5879 21.8765 18.673 22.1478L20.2389 21.1969L20.4278 21.5081L18.7799 22.5087C18.8142 22.6423 18.8409 22.7711 18.869 22.8945L20.2366 22.064L20.4027 22.3376C20.4841 22.6719 20.4702 23.0266 20.3542 23.4059C20.7012 23.3918 21.0967 23.3341 21.5373 23.2351L21.5566 23.6445C21.0516 23.7453 20.6011 23.7895 20.2128 23.7819C20.0568 24.134 19.829 24.5063 19.5292 24.8989L19.1714 24.695C19.4386 24.3643 19.6496 24.049 19.8031 23.7546C19.4729 23.7117 19.1891 23.622 18.9572 23.4867C19.0183 24.1422 18.9521 24.7346 18.7621 25.2617L18.4119 25.0626C18.6305 24.359 18.638 23.5776 18.4345 22.7184L17.6003 23.225ZM19.0852 23.1657C19.3205 23.2989 19.6124 23.379 19.959 23.4025C20.0685 23.0974 20.1116 22.8138 20.0869 22.5574L19.0852 23.1657ZM18.9141 20.911C19.258 20.9455 19.5663 21.0063 19.837 21.09L19.7457 21.4636C19.501 21.3689 19.1974 21.3005 18.8261 21.2593L18.9141 20.911Z" fill="white"/>
<path d="M20.5008 20.0256C20.7875 20.0809 21.041 20.1509 21.267 20.2369L21.1736 20.6013C20.9689 20.5121 20.7099 20.4407 20.3999 20.3851L20.5008 20.0256ZM20.902 20.8982C21.1887 20.9535 21.4477 21.0249 21.6757 21.1144L21.5803 21.4754C21.3702 21.3847 21.1111 21.3133 20.8011 21.2577L20.902 20.8982ZM21.6436 21.7115L21.9984 21.6532C22.1383 22.1641 22.2538 22.6569 22.3408 23.1246L21.9581 23.1668C21.8769 22.6772 21.7709 22.1928 21.6436 21.7115ZM22.7276 20.5441L22.9227 20.8795C22.856 20.9876 22.7839 21.0944 22.7133 21.1956L23.2584 22.1326C23.3912 22.3608 23.3593 22.5367 23.1588 22.6534L22.8787 22.8163L22.6426 22.5695C22.7371 22.5331 22.8241 22.4917 22.9001 22.4475C22.9555 22.4153 22.9564 22.3453 22.8981 22.2451L22.4757 21.519L22.2456 21.7917L21.9865 21.5213C22.0928 21.4178 22.1917 21.3094 22.2886 21.1975L21.832 20.4126L21.4897 20.6118L21.3247 20.3283L21.667 20.1291L21.309 19.5137L21.6271 19.3286L21.9851 19.9441L22.2721 19.7771L22.437 20.0606L22.1501 20.2276L22.5262 20.8741C22.5949 20.7694 22.6629 20.6557 22.7276 20.5441ZM23.1661 18.498L23.4737 18.6846C23.2554 18.9458 22.9839 19.1871 22.6572 19.405L22.9991 19.9927L23.9741 19.4255L24.1451 19.7194L23.8478 19.8924L24.8897 21.6833L24.5786 21.8643L23.5366 20.0734L23.1701 20.2866L23.2928 20.4975C23.6557 21.161 23.8315 21.7575 23.8203 22.287L23.4622 22.1806C23.4618 21.7505 23.3046 21.2496 22.9886 20.6745L22.2 19.3192C22.5971 19.079 22.9184 18.8041 23.1661 18.498Z" fill="white"/>
<path d="M25.9254 17.547L25.0738 18.0157L24.9002 17.7003L26.9012 16.599L27.0748 16.9143L26.2512 17.3676L27.5107 19.6559L28.4534 19.1371L28.6289 19.4559L26.3371 20.7173L26.1616 20.3985L27.1848 19.8353L25.9254 17.547ZM24.0499 17.972C24.3877 18.0052 24.6886 18.0542 24.9475 18.1263L24.8454 18.4884C24.6115 18.4117 24.3086 18.3592 23.9404 18.329L24.0499 17.972ZM24.4197 18.8597C24.7576 18.8928 25.0553 18.9527 25.3161 19.0283L25.2121 19.3869C24.9762 19.3067 24.6769 19.2523 24.3103 19.2167L24.4197 18.8597ZM25.3135 19.5959L25.6696 19.546C25.7483 20.0872 25.794 20.6099 25.8068 21.1143L25.4232 21.1473C25.4221 20.6228 25.3838 20.1052 25.3135 19.5959Z" fill="white"/>
<path d="M28.7256 15.3897L29.0565 15.2199L29.5222 16.1274L29.1912 16.2972L28.7256 15.3897ZM28.7538 17.4163C28.6137 17.5287 28.4735 17.6411 28.3315 17.7499L28.0357 17.515C29.0228 16.7927 29.7097 16.0986 30.0928 15.4345C29.9279 15.4022 29.7558 15.3736 29.5767 15.3487L29.693 15.0147C30.1857 15.0811 30.625 15.1749 31.0019 15.2962L30.8894 15.6552C30.7493 15.6012 30.5985 15.5527 30.4335 15.5115C30.2281 15.8911 29.9458 16.2697 29.5849 16.6527L30.8447 16.0063L31.8363 17.9388L31.5053 18.1086L31.4359 17.9734L29.8664 18.7786L29.9395 18.921L29.6121 19.089L28.7538 17.4163ZM29.713 18.4797L31.2825 17.6744L31.1602 17.436L29.5907 18.2412L29.713 18.4797ZM29.4519 17.9708L31.0214 17.1655L30.91 16.9484L29.3405 17.7537L29.4519 17.9708ZM29.2036 17.4868L30.773 16.6815L30.658 16.4573L29.0885 17.2626L29.2036 17.4868ZM28.2709 15.8793L28.6171 15.9669C28.5404 16.3344 28.3975 16.6955 28.1864 17.0465L27.8611 16.8943C28.0579 16.5595 28.1958 16.2235 28.2709 15.8793Z" fill="white"/>
<path d="M32.4042 13.5686L32.7409 13.4104L33.1747 14.3336L32.838 14.4918L32.4042 13.5686ZM32.3619 15.5949C32.2179 15.7024 32.0739 15.8098 31.9283 15.9136L31.6408 15.6686C32.6525 14.9811 33.3631 14.3113 33.7691 13.661C33.6054 13.623 33.4344 13.5884 33.2562 13.5572L33.3842 13.2275C33.8742 13.311 34.31 13.4201 34.6825 13.5544L34.5575 13.9092C34.4193 13.8504 34.2703 13.7967 34.1069 13.7497C33.8884 14.1219 33.5931 14.4905 33.2191 14.8607L34.5006 14.2586L35.4243 16.2244L35.0876 16.3826L35.023 16.245L33.4264 16.9952L33.4944 17.14L33.1614 17.2965L32.3619 15.5949ZM33.2835 16.6911L34.8801 15.9409L34.7661 15.6984L33.1696 16.4485L33.2835 16.6911ZM33.0403 16.1734L34.6368 15.4232L34.5331 15.2024L32.9365 15.9525L33.0403 16.1734ZM32.8089 15.681L34.4055 14.9308L34.2983 14.7028L32.7018 15.4529L32.8089 15.681ZM31.9328 14.042L32.2757 14.1416C32.1863 14.5063 32.0309 14.8621 31.8078 15.2056L31.4879 15.0421C31.6963 14.7144 31.8457 14.3834 31.9328 14.042Z" fill="white"/>
<path d="M36.8552 14.6273L36.9948 14.9592C36.7246 15.2247 36.403 15.4814 36.0226 15.7326L35.8356 15.412C36.2397 15.1552 36.5798 14.8907 36.8552 14.6273ZM35.274 12.2504L35.6653 12.2421C35.6609 12.7473 35.6239 13.1751 35.5453 13.5249C35.6829 13.4497 35.8205 13.3745 35.9513 13.2934C35.9718 13.146 35.9912 12.9859 36.0076 12.8184L36.3617 12.804C36.2735 13.492 36.175 14.0108 36.0681 14.3552C36.2818 14.2132 36.4914 14.0513 36.7037 13.8752L36.8371 14.1923C36.4885 14.4778 36.1429 14.7186 35.8001 14.9148L35.5746 14.6365C35.628 14.588 35.6656 14.5331 35.6913 14.4703C35.7612 14.3064 35.8302 14.0474 35.893 13.6911C35.7195 13.7945 35.5423 13.8994 35.3599 14.0022L35.1364 13.7186C35.1824 13.6732 35.2133 13.6125 35.2312 13.5312C35.2828 13.1276 35.2983 12.7002 35.274 12.2504ZM36.4797 12.2901L36.1441 12.4312L36.0061 12.1031L37.6727 11.4021L37.7642 11.6196C37.8355 11.9542 37.8918 12.2429 37.9311 12.4911L38.3883 12.2988L38.4705 12.4942C38.6003 13.0298 38.6164 13.522 38.5157 13.9636C38.7792 14.0741 39.0644 14.1538 39.3698 14.1989L39.2689 14.5885C38.9573 14.5286 38.6712 14.4363 38.4104 14.3116C38.2875 14.6281 38.1033 14.9225 37.8598 15.1898L37.5295 14.9512C37.7655 14.687 37.9397 14.4098 38.052 14.1196C37.7627 13.9375 37.4995 13.7141 37.266 13.4478C37.4489 14.2127 37.4523 14.8709 37.2732 15.4148L36.9153 15.2963C37.1528 14.5715 37.0321 13.6243 36.5464 12.4486L36.4797 12.2901ZM38.1561 13.7894C38.2319 13.4538 38.2347 13.1098 38.1668 12.7521L37.6579 12.9662C37.6245 12.7112 37.555 12.3499 37.4531 11.8807L36.8189 12.1474L36.8856 12.306C36.9507 12.4608 37.0054 12.6114 37.0569 12.7546C37.3559 13.1973 37.7223 13.5423 38.1561 13.7894Z" fill="white"/>
<path d="M40.8282 10.0633L41.1892 9.93223L41.3257 10.3082L41.9874 10.0679L42.1062 10.395L41.4445 10.6353L41.5742 10.9925L42.4014 10.6921L42.5243 11.0304L40.5053 11.7637L40.3824 11.4253L41.2133 11.1236L41.0836 10.7664L40.4595 10.9931L40.3407 10.666L40.9648 10.4393L40.8282 10.0633ZM40.7191 12.0946L41.8771 11.674L41.7993 11.4597L42.1452 11.3341L42.223 11.5484L42.6215 11.4037L42.7444 11.742L42.3459 11.8868L42.7009 12.8643C42.791 13.1124 42.7195 13.2788 42.494 13.3608L42.0165 13.5342L41.8184 13.2231C41.9742 13.1835 42.1212 13.1429 42.2566 13.0938C42.3355 13.0651 42.3577 12.9974 42.3222 12.8997L42 12.0124L40.842 12.433L40.7191 12.0946ZM41.2025 12.4297C41.4684 12.5757 41.6833 12.7105 41.8459 12.8301L41.6363 13.1318C41.4631 12.9947 41.2454 12.8525 40.9885 12.7075L41.2025 12.4297ZM39.3874 11.8378C39.4191 12.0305 39.442 12.2223 39.4559 12.413L39.1111 12.4361C39.0818 12.0041 38.9956 11.5673 38.8522 11.1257L39.1837 11.0308C39.2295 11.1802 39.2738 11.3258 39.3107 11.4741L39.5363 11.3922L39.2632 10.6403L39.6053 10.516L39.8784 11.2679L40.1792 11.1587L40.3048 11.5046L40.004 11.6138L40.2949 12.4146C40.3875 12.3299 40.4778 12.2503 40.5629 12.1684L40.6858 12.5067C40.5969 12.5901 40.508 12.6734 40.4164 12.7493L40.8643 13.9824L40.5222 14.1067L40.1193 12.9976C39.9446 13.1376 39.7635 13.2715 39.5758 13.3993L39.3637 13.0848C39.5804 12.955 39.793 12.814 39.9978 12.663L39.6619 11.7381L39.3874 11.8378Z" fill="white"/>
<path d="M44.3276 10.4635L43.5117 10.7091L43.6928 11.3105L44.5086 11.0648L44.3276 10.4635ZM44.8725 10.9553L45.6806 10.712L45.4996 10.1106L44.6914 10.3539L44.8725 10.9553ZM43.5462 9.87999C43.4532 10.0709 43.3454 10.2537 43.2291 10.4224L44.4509 10.0546C44.5389 9.90276 44.6199 9.72797 44.7029 9.53173L43.5462 9.87999ZM43.0852 10.6245C43.0209 10.7023 42.9605 10.779 42.8989 10.8519L42.5649 10.6308C42.9526 10.2258 43.2403 9.73815 43.4328 9.17055L43.8286 9.13912C43.7961 9.25333 43.7587 9.36485 43.7189 9.46872L45.0748 9.06049L45.1578 9.33626C45.0895 9.55318 45.013 9.74329 44.9335 9.90927L45.7646 9.65903L46.1521 10.946L43.7966 11.6552L43.9765 12.2527C44.0099 12.3638 44.0885 12.4028 44.2034 12.3682L45.9806 11.8331C46.097 11.7897 46.1671 11.731 46.1846 11.6505C46.1991 11.5877 46.1875 11.4241 46.142 11.1621L46.5328 11.1697C46.5771 11.4279 46.5919 11.6156 46.5858 11.7344C46.5699 11.9313 46.4444 12.0694 46.2092 12.1486L44.1563 12.7667C43.8958 12.8451 43.7275 12.7579 43.6514 12.5051L43.0852 10.6245Z" fill="white"/>
<path d="M48.1655 8.57587L46.8588 8.8729L46.7781 8.51796L49.7698 7.83788L49.8505 8.19283L48.5399 8.49075L49.079 10.8622L50.6353 10.5085L50.7169 10.8673L47.2259 11.6609L47.1444 11.302L48.7046 10.9474L48.1655 8.57587Z" fill="white"/>
<path d="M51.505 7.28732L51.8809 7.23169L52.3411 10.3418L52.816 10.2715L52.3557 7.16142L52.7316 7.10579L53.1919 10.2159L54.3473 10.0449L54.4018 10.4129L50.8722 10.9353L50.8177 10.5673L51.9652 10.3974L51.505 7.28732ZM53.5805 7.73226L53.9269 7.77804C53.8773 8.48088 53.7712 9.10311 53.6093 9.64869L53.2554 9.57975C53.4091 9.08796 53.5197 8.4691 53.5805 7.73226ZM50.8649 8.12607C51.1451 8.62643 51.4128 9.20549 51.6718 9.86265L51.3404 10.0006C51.1139 9.39932 50.8508 8.82364 50.5596 8.27639L50.8649 8.12607Z" fill="white"/>
<path d="M55.1188 6.82564C55.3936 6.98955 55.6251 7.16208 55.8204 7.33443L55.5897 7.6244C55.4187 7.45349 55.1828 7.2774 54.8864 7.09969L55.1188 6.82564ZM54.73 8.01331L55.621 7.91875L55.7995 9.6013C55.9119 9.48479 56.0305 9.35153 56.1593 9.20109L56.3049 9.58788C56.0717 9.85398 55.8201 10.0979 55.5495 10.3157L55.37 9.98879C55.4278 9.92635 55.456 9.85095 55.4471 9.76742L55.2934 8.31955L54.7684 8.37527L54.73 8.01331ZM56.2002 8.33594L58.1294 8.1312L58.1661 8.47726C58.0883 8.84351 57.9295 9.16608 57.69 9.44893C57.9623 9.58898 58.2886 9.7072 58.6601 9.79649L58.4919 10.1442C58.0772 10.0273 57.7277 9.87936 57.4361 9.70919C57.1494 9.96486 56.7826 10.1848 56.3435 10.3682L56.0989 10.0723C56.5075 9.90428 56.845 9.71158 57.1111 9.49026C56.8128 9.25644 56.595 8.98591 56.4658 8.67783L56.2391 8.70189L56.2002 8.33594ZM56.8198 8.64025C56.937 8.87318 57.1154 9.07549 57.3592 9.25073C57.5534 9.03303 57.6972 8.79653 57.7864 8.53767L56.8198 8.64025ZM56.3157 6.77101L57.7238 6.62158L57.8125 7.45688C57.8218 7.54439 57.8745 7.58706 57.974 7.57651L58.324 7.53936L58.3608 7.88541L57.9113 7.93312C57.6289 7.96309 57.4753 7.84262 57.4474 7.5801L57.3875 7.01527L56.7272 7.08535L56.7399 7.20468C56.7838 7.61835 56.6071 7.96292 56.2135 8.23397L55.9321 7.97019C56.2502 7.78358 56.3989 7.55461 56.3702 7.28413L56.3157 6.77101Z" fill="white"/>
<path d="M59.9901 7.46611L61.0351 7.38701L60.9466 6.21835L61.3375 6.18876L61.426 7.35742L62.4152 7.28254L62.4435 7.65747L61.4544 7.73235L61.6171 9.8822L61.2262 9.91178L61.0635 7.76193L60.0185 7.84104L59.9901 7.46611ZM59.1784 6.3883C59.4525 6.56411 59.6866 6.74295 59.8812 6.92879L59.6419 7.21166C59.4682 7.03628 59.2337 6.85345 58.9348 6.66748L59.1784 6.3883ZM58.7395 7.58484L59.6609 7.5151L59.7895 9.21424C59.9093 9.10087 60.0318 8.97125 60.1615 8.82906L60.2905 9.20841C60.0533 9.46704 59.7944 9.70326 59.5174 9.91276L59.3482 9.5846C59.4117 9.52363 59.4425 9.45311 59.4365 9.37334L59.3254 7.90553L58.767 7.9478L58.7395 7.58484Z" fill="white"/>
<path d="M64.5187 9.65444L64.0033 9.67951L63.9056 9.31583C64.066 9.32005 64.2222 9.32046 64.37 9.31327C64.4819 9.30783 64.5353 9.25317 64.5302 9.14929L64.454 7.58314L62.9238 7.65757L62.9056 7.28202L66.3335 7.11527L66.3518 7.49083L64.8416 7.56429L64.9224 9.22632C64.9356 9.498 64.7984 9.64084 64.5187 9.65444ZM63.518 8.01713L63.8976 8.08276C63.7607 8.64208 63.5521 9.12879 63.2758 9.5427L62.9343 9.35507C63.2181 8.93278 63.4127 8.4868 63.518 8.01713ZM65.7251 7.86171C66.0177 8.27999 66.2716 8.72418 66.4909 9.19808L66.1509 9.37081C65.9133 8.84974 65.6586 8.38957 65.3871 7.99429L65.7251 7.86171ZM63.2242 6.25733L65.929 6.12576L65.9468 6.49332L63.242 6.62489L63.2242 6.25733Z" fill="white"/>
<path d="M66.9217 6.22907L67.8254 6.20646L67.817 5.87057L68.2049 5.86087L68.2133 6.19676L69.173 6.17275L69.1646 5.83685L69.5525 5.82715L69.5609 6.16305L70.4646 6.14044L70.4733 6.48833L69.5696 6.51094L69.5781 6.85083L69.1902 6.86053L69.1817 6.52064L68.222 6.54465L68.2305 6.88454L67.8426 6.89425L67.8341 6.55436L66.9304 6.57696L66.9217 6.22907ZM67.4969 6.82688C67.7532 6.99652 67.9694 7.16316 68.1498 7.33471L67.8963 7.60113C67.7402 7.43698 67.5199 7.26644 67.2392 7.0854L67.4969 6.82688ZM67.2619 7.51297C67.5142 7.67871 67.7304 7.84535 67.9106 8.0129L67.6612 8.27922C67.5052 8.11907 67.2848 7.94853 67.0083 7.77139L67.2619 7.51297ZM67.6837 8.37869L68.0115 8.52654C67.8727 8.89412 67.6895 9.25082 67.4621 9.59661L67.1056 9.42147C67.3489 9.07128 67.5403 8.72238 67.6837 8.37869ZM69.7969 7.28149L68.7493 7.3077L68.79 8.93519C68.793 9.05516 68.8626 9.11744 68.9985 9.11403L69.7623 9.09493C69.9342 9.09062 70.0373 9.05203 70.0715 8.97916C70.1135 8.89808 70.1415 8.73733 70.1595 8.49681L70.5262 8.60367C70.4963 9.00454 70.4423 9.24597 70.3603 9.32804C70.2741 9.40222 70.1152 9.44621 69.8833 9.45201L68.8436 9.47802C68.5557 9.48523 68.4123 9.35277 68.4056 9.08485L68.353 6.98151L70.1644 6.93619L70.1926 8.06384C70.194 8.27987 70.0729 8.39494 69.8293 8.41304C69.6613 8.41724 69.4973 8.41734 69.3371 8.41335L69.2402 8.05966C69.4046 8.07155 69.5487 8.07595 69.6727 8.07285C69.7687 8.07045 69.8155 8.02526 69.8134 7.94129L69.7969 7.28149Z" fill="white"/>
<path d="M70.8594 6.07548L71.5354 6.07173L71.5339 5.79574L71.9018 5.79369L71.9034 6.06969L73.1954 6.06252L73.1938 5.78653L73.5618 5.78449L73.5634 6.06048L74.2393 6.05673L74.2411 6.37673L73.5651 6.38048L73.5721 7.63246L74.3081 7.62837L74.3099 7.95637L73.5459 7.96061C73.743 8.15952 74.0199 8.31398 74.3725 8.43203L74.2183 8.76089C73.9417 8.64242 73.7129 8.50769 73.5281 8.35271L73.5299 8.68071L72.7499 8.68503L72.7517 9.00103L74.0916 8.9936L74.0936 9.34559L71.0176 9.36265L71.0157 9.01066L72.3837 9.00307L72.3819 8.68708L71.5939 8.69145L71.5921 8.37145C71.417 8.52043 71.2057 8.6536 70.9624 8.77495L70.7646 8.45604C71.1239 8.32605 71.391 8.16456 71.5739 7.97155L70.8099 7.97578L70.8081 7.64779L71.5441 7.64371L71.5372 6.39173L70.8612 6.39548L70.8594 6.07548ZM71.6081 8.35536L72.38 8.35108L72.3785 8.07109L72.7465 8.06904L72.748 8.34904L73.52 8.34476C73.3754 8.22556 73.2587 8.0982 73.1699 7.96269L71.9459 7.96948C71.8547 8.10599 71.7434 8.23461 71.6081 8.35536ZM71.9121 7.64167L73.2041 7.6345L73.2029 7.4185L71.9109 7.42567L71.9121 7.64167ZM71.9093 7.12967L73.2012 7.12251L73.2 6.90651L71.9081 6.91368L71.9093 7.12967ZM71.9064 6.61768L73.1984 6.61051L73.1971 6.38252L71.9052 6.38968L71.9064 6.61768Z" fill="white"/>
<path d="M78.1975 6.55401C78.1885 7.39396 78.159 7.90167 78.1131 8.08119C78.0672 8.25671 77.8862 8.34677 77.5662 8.34333L77.5503 8.34315L77.4423 7.96997C77.5222 7.97483 77.5902 7.97956 77.6502 7.98021C77.7262 7.98102 77.7746 7.93754 77.7915 7.85772C77.8083 7.7859 77.8192 7.514 77.8282 7.04607L77.3387 7.18481L77.3229 8.65273L76.9549 8.64877L76.9695 7.29285L76.4799 7.43559L76.4642 8.89951C76.463 9.0115 76.5264 9.06819 76.6544 9.06956L77.7343 9.08118C77.7983 9.08186 77.8466 9.05438 77.8792 8.99873C77.9158 8.94312 77.9417 8.76739 77.961 8.46358L78.3118 8.57936C78.2753 8.99499 78.2206 9.24641 78.1397 9.32555C78.0629 9.40073 77.9505 9.43952 77.8025 9.43793L76.5346 9.4243C76.2346 9.42107 76.0882 9.26749 76.0914 8.97151L76.1068 7.54359L75.8259 7.62457L75.8299 7.25259L76.1108 7.17161L76.1211 6.20767L76.4931 6.21166L76.484 7.05962L76.9736 6.91687L76.9855 5.80894L77.3534 5.81289L77.3427 6.80883L78.1975 6.55401ZM75.8676 8.21305L75.8635 8.59303C75.4896 8.76102 75.0921 8.90076 74.6668 9.01619L74.575 8.63118C74.7353 8.6009 74.8957 8.56263 75.0522 8.52031L75.0665 7.18838L74.6425 7.18382L74.6465 6.81585L75.0705 6.8204L75.0813 5.81246L75.4533 5.81646L75.4425 6.8244L75.8264 6.82853L75.8225 7.19651L75.4385 7.19238L75.4256 8.39631C75.5741 8.34191 75.7228 8.2795 75.8676 8.21305Z" fill="white"/>
<path d="M81.9701 7.592L81.1223 7.57172L81.1165 7.81565L82.0203 7.83727L82.0128 8.14918L81.1091 8.12757L81.1031 8.37549L82.1228 8.39988L82.1153 8.71579L81.0956 8.6914L81.0878 9.01531L80.7199 9.00651L80.7277 8.68261L79.8519 8.66167L79.8595 8.34576L80.7352 8.3667L80.7412 8.11877L79.9894 8.10079L79.9968 7.78888L80.7486 7.80686L80.7545 7.56293L80.0866 7.54696L80.0942 7.23105L80.762 7.24702L80.7679 6.99909L79.9042 6.97843L79.9115 6.67052L80.7753 6.69118L80.781 6.45124L80.1132 6.43528L80.1207 6.12336L80.7885 6.13933L80.7949 5.87141L81.1628 5.88021L81.1564 6.14813L82.0041 6.1684L81.9909 6.72025L82.2309 6.72598L82.2235 7.03389L81.9836 7.02816L81.9701 7.592ZM81.1489 6.46004L81.1432 6.69997L81.6271 6.71154L81.6328 6.47161L81.1489 6.46004ZM81.1358 7.00789L81.1299 7.25581L81.6138 7.26738L81.6197 7.01946L81.1358 7.00789ZM80.8167 9.14487C81.2685 9.15567 81.7367 9.15486 82.2169 9.15034L82.1442 9.51271L80.9726 9.48469C80.2368 9.4671 79.7155 9.3466 79.4046 9.13111C79.3653 9.10216 79.3339 9.0734 79.3105 9.04883C79.1783 9.22172 79.0268 9.37014 78.8556 9.49809L78.6155 9.16825C78.7943 9.05249 78.9417 8.91198 79.0617 8.7468C78.9191 8.51932 78.8057 8.24053 78.7176 7.91033L79.0402 7.80202C79.1025 8.04357 79.1736 8.24933 79.2576 8.41539C79.3716 8.16604 79.4425 7.87965 79.4741 7.56032L78.7544 7.54311L78.7612 7.25519C78.9839 6.98043 79.1869 6.6892 79.3783 6.38169L78.7825 6.36744L78.7911 6.00755L79.8108 6.03193L79.8033 6.34384C79.6153 6.67544 79.4324 6.96315 79.2504 7.21087L79.8303 7.22474L79.8248 7.45267C79.7966 7.96414 79.6861 8.40163 79.4934 8.76512C79.5402 8.81426 79.5912 8.85549 79.6464 8.88882C79.9029 9.03899 80.293 9.12434 80.8167 9.14487Z" fill="white"/>
<path d="M83.238 6.00466C83.4873 6.20524 83.6925 6.40833 83.8619 6.6062L83.5931 6.86122C83.4476 6.66816 83.2385 6.46094 82.9697 6.24369L83.238 6.00466ZM82.6876 7.12661L83.583 7.15704L83.5256 8.84807C83.653 8.74834 83.789 8.63289 83.9376 8.50186L84.0279 8.90516C83.7599 9.1362 83.4767 9.3427 83.1785 9.52067L83.0463 9.17198C83.1122 9.11818 83.1506 9.04745 83.1534 8.9635L83.2029 7.50834L82.6752 7.4904L82.6876 7.12661ZM84.0986 7.65084L86.0374 7.71674L86.0256 8.06453C85.8976 8.41639 85.6954 8.71369 85.4188 8.96044C85.669 9.13704 85.9756 9.29955 86.3311 9.4397L86.1161 9.76059C85.7217 9.58709 85.3962 9.39192 85.1311 9.1828C84.8117 9.39607 84.4178 9.56279 83.9575 9.68322L83.7564 9.3562C84.1844 9.24668 84.5455 9.10286 84.8399 8.92075C84.577 8.64767 84.399 8.34945 84.3139 8.02637L84.0861 8.01863L84.0986 7.65084ZM84.6697 8.03846C84.7534 8.28545 84.9018 8.51062 85.1189 8.71811C85.3414 8.52956 85.5168 8.3154 85.6412 8.07148L84.6697 8.03846ZM84.4308 6.11724L85.846 6.16534L85.8175 7.00485C85.8145 7.0928 85.8609 7.14241 85.9608 7.1458L86.3126 7.15776L86.3008 7.50556L85.849 7.4902C85.5652 7.48056 85.4299 7.33988 85.4389 7.07603L85.4582 6.50836L84.7945 6.48581L84.7905 6.60574C84.7763 7.0215 84.5535 7.33811 84.1259 7.55171L83.884 7.25132C84.225 7.11082 84.4041 6.90479 84.4133 6.63294L84.4308 6.11724Z" fill="white"/>
<path d="M88.6496 9.04958C88.3118 9.38 87.7814 9.62245 87.0625 9.7771L86.8679 9.44484C87.6194 9.27952 88.1371 9.05256 88.4173 8.75981L88.4891 8.67067L86.9384 8.60703L86.9531 8.24733L88.6996 8.31901C88.8054 8.08315 88.8724 7.81767 88.9005 7.52258L88.9205 7.03499L89.2882 7.05008L89.2682 7.53767C89.244 7.83293 89.1891 8.0989 89.0993 8.33542L90.3543 8.38693L90.3395 8.74662L88.9287 8.68872C88.9074 8.71987 88.8861 8.75102 88.8688 8.78234C89.4115 9.0208 89.9085 9.29741 90.3603 9.6042L90.1391 9.92339C89.6573 9.56734 89.1607 9.27873 88.6496 9.04958ZM87.5558 7.51143C87.8348 7.63897 88.0889 7.78952 88.3179 7.96306L88.1098 8.25477C87.8697 8.05676 87.6158 7.90222 87.3563 7.78748L87.5558 7.51143ZM87.9704 6.96797C88.2496 7.09153 88.5037 7.24207 88.7287 7.41545L88.5206 7.70716C88.2803 7.51314 88.0306 7.35477 87.7711 7.24003L87.9704 6.96797ZM90.3929 6.56698L90.3593 7.38629L89.9916 7.3712L90.011 6.8996L87.4052 6.79264L87.3858 7.26425L87.0181 7.24915L87.0517 6.42984L88.5505 6.49136C88.5111 6.37765 88.4714 6.27193 88.4274 6.17404L88.8177 6.12601C88.8611 6.23988 88.8999 6.36558 88.9342 6.50711L90.3929 6.56698Z" fill="white"/>
<path d="M90.8856 6.76894L91.465 6.79505C91.405 6.61616 91.3404 6.44909 91.2672 6.29764L91.6579 6.24717C91.7184 6.41407 91.778 6.60094 91.8326 6.81161L92.3041 6.83286L92.2876 7.20049L91.5084 7.16538L91.4873 7.6329L92.1946 7.66477C92.1478 8.70372 92.0988 9.34617 92.0558 9.58848C92.0051 9.82644 91.8237 9.94239 91.504 9.92798C91.472 9.92654 91.4164 9.91603 91.3409 9.90461L91.2723 9.56118C91.3437 9.5764 91.4072 9.58728 91.4632 9.5898C91.603 9.5961 91.69 9.53195 91.7241 9.39735C91.7502 9.26239 91.7833 8.7954 91.8271 8.00057L91.4675 7.98436C91.4037 8.86639 91.2265 9.51106 90.9358 9.91839L90.6633 9.65786C90.9247 9.27724 91.077 8.65146 91.1199 7.78852L91.1487 7.14917L90.869 7.13656L90.8856 6.76894ZM92.8691 7.09056C92.7243 7.37233 92.5653 7.61341 92.3919 7.81781L92.1575 7.51095C92.4066 7.22587 92.6249 6.82329 92.8163 6.30739L93.1684 6.40334C93.123 6.52141 93.078 6.6315 93.033 6.74158L94.4116 6.80371L94.3956 7.15935L92.8691 7.09056ZM94.2357 7.5966C94.2013 8.35982 94.1605 8.82245 94.1213 8.98085C94.0781 9.13907 93.9265 9.21632 93.6628 9.20443L93.6428 9.20353L93.5613 8.87954C93.6292 8.8826 93.689 8.88929 93.7409 8.89163C93.7849 8.89362 93.8146 8.85492 93.8261 8.77935C93.8371 8.71178 93.8561 8.46839 93.8748 8.05281L93.5663 8.14702L93.5076 9.44969L93.1559 9.43385L93.209 8.25504L92.8965 8.34907L92.8495 9.39201C92.8416 9.56783 92.8974 9.66244 93.0172 9.66784L93.7725 9.70188C93.8564 9.70566 93.9212 9.68856 93.963 9.6504C94.0131 9.60461 94.0514 9.46619 94.078 9.23115L94.401 9.34981C94.3495 9.69184 94.2804 9.89294 94.1892 9.9609C94.1066 10.0172 93.9853 10.0438 93.8175 10.0362L92.8944 9.99464C92.6227 9.9824 92.4949 9.79646 92.5108 9.44481L92.5554 8.45382L92.2672 8.54093L92.2827 8.19728L92.5709 8.11017L92.595 7.57471L92.9307 7.58984L92.912 8.00542L93.2247 7.9074L93.253 7.28003L93.6046 7.29588L93.5819 7.79937L94.2357 7.5966Z" fill="white"/>
<path d="M95.2884 7.86993L95.6179 8.01739C95.4639 8.48675 95.2752 8.84237 95.0475 9.08806L94.7754 8.82714C94.9947 8.58907 95.1655 8.27266 95.2884 7.86993ZM96.1814 6.48991L96.565 6.50774L96.5304 7.25093L97.7931 7.30962C97.7721 7.58895 97.756 7.84848 97.7369 8.08785L98.0065 7.97225C98.1736 8.3404 98.3351 8.74434 98.4866 9.18785L98.1312 9.33951C98.0056 8.94125 97.8664 8.57439 97.7215 8.24731C97.6917 8.54225 97.6635 8.80522 97.6371 9.02824C97.5771 9.45791 97.4951 9.75843 97.395 9.92997C97.2953 10.0935 97.1434 10.1745 96.9388 10.1811L96.4713 10.1593L96.3845 9.7869C96.52 9.8012 96.6477 9.81114 96.7676 9.81671C96.9634 9.82581 97.1015 9.69609 97.1817 9.43553C97.2586 9.1588 97.3263 8.5653 97.3884 7.65921L96.4974 7.61779C96.4279 8.25125 96.2919 8.76549 96.0893 9.16051C95.8613 9.58638 95.5021 9.90605 95.0154 10.1237L94.8231 9.78239C95.2903 9.55183 95.6168 9.24667 95.8024 8.87088C95.9545 8.52957 96.0582 8.10593 96.1138 7.59997L95.1628 7.55576L95.1799 7.18816L96.1469 7.2331L96.1814 6.48991Z" fill="white"/>
<path d="M100.84 6.70091L101.224 6.71836L101.197 7.32173L102.191 7.36699L102.175 7.73461L101.18 7.68935L101.15 8.34867L102.253 8.39884L102.236 8.76646L100.937 8.70738C100.685 9.23247 100.467 9.61897 100.28 9.86671C100.722 9.83875 101.16 9.78664 101.596 9.71836C101.502 9.49786 101.403 9.29316 101.304 9.10444L101.677 9.00129C101.894 9.4116 102.083 9.84461 102.238 10.3081L101.871 10.4516C101.825 10.3134 101.779 10.1792 101.733 10.0569C101.132 10.1457 100.481 10.2082 99.7781 10.2483L99.7052 9.91264C99.7378 9.90211 99.7663 9.8914 99.7868 9.88032C99.9697 9.73248 100.216 9.33526 100.526 8.68866L99.6426 8.64849L99.6593 8.28087L100.766 8.33122L100.796 7.6719L99.8811 7.63028L99.8979 7.26266L100.813 7.30428L100.84 6.70091ZM99.1047 6.65399C99.3513 6.86542 99.5582 7.07103 99.7291 7.27501L99.4449 7.53836C99.3016 7.34365 99.0909 7.13386 98.817 6.90518L99.1047 6.65399ZM98.9623 7.58448C99.1889 7.795 99.3796 8.00388 99.5384 8.2113L99.2503 8.47048C99.119 8.27631 98.9285 8.06344 98.6786 7.83585L98.9623 7.58448ZM99.2986 8.72894L99.6359 8.88443C99.4413 9.3761 99.2281 9.83889 99.0001 10.273L98.6282 10.0879C98.8805 9.64689 99.1053 9.19264 99.2986 8.72894Z" fill="white"/>
<path d="M104.109 7.49838L103.992 10.2799L103.628 10.2645L103.637 10.0567L103.005 10.03L102.992 10.3537L102.628 10.3383L102.751 7.44091L103.13 7.45697C103.211 7.2442 103.276 7.02677 103.318 6.79633L103.696 6.86434C103.646 7.08245 103.578 7.28373 103.494 7.47235L104.109 7.49838ZM103.02 9.67831L103.652 9.70501L103.685 8.91771L103.054 8.89101L103.02 9.67831ZM103.068 8.55131L103.699 8.57802L103.73 7.84268L103.099 7.81597L103.068 8.55131ZM104.788 8.48795C105.038 8.82681 105.23 9.11917 105.359 9.37287L105.051 9.572C104.91 9.30182 104.714 9.00129 104.472 8.66676L104.788 8.48795ZM106.171 7.58959C106.113 8.96836 106.057 9.81875 106.004 10.1368C105.951 10.4228 105.753 10.5586 105.414 10.5442C105.334 10.5408 105.19 10.5268 104.991 10.5063L104.914 10.1547C105.089 10.1702 105.241 10.1846 105.369 10.19C105.529 10.1968 105.624 10.1167 105.655 9.94989C105.688 9.75108 105.728 9.08019 105.784 7.94154L104.781 7.89912C104.659 8.13417 104.522 8.34857 104.361 8.54196L104.146 8.2326C104.426 7.8601 104.63 7.40029 104.749 6.85284L105.123 6.91668C105.073 7.13879 105.009 7.34424 104.936 7.53736L106.171 7.58959Z" fill="white"/>
<path d="M107.068 7.00137C107.332 7.22329 107.552 7.44357 107.728 7.65823L107.45 7.91214C107.298 7.70636 107.082 7.48223 106.799 7.23959L107.068 7.00137ZM109.234 10.668C109.014 10.6598 108.774 10.647 108.518 10.6335C108.259 10.6199 108.048 10.5881 107.881 10.5419C107.723 10.488 107.587 10.3869 107.472 10.2465C107.419 10.1765 107.372 10.1428 107.324 10.141C107.24 10.1379 107.089 10.3124 106.872 10.6646L106.602 10.3945C106.814 10.0781 107.001 9.88088 107.164 9.80685L107.206 8.67563L106.67 8.65581L106.683 8.30405L107.575 8.33703L107.519 9.848C107.538 9.86473 107.557 9.88545 107.576 9.91018C107.664 10.0215 107.757 10.105 107.855 10.1607C107.973 10.2211 108.148 10.2635 108.383 10.2803C108.611 10.2927 108.879 10.3066 109.19 10.3181C109.386 10.3254 109.586 10.3288 109.786 10.3322C109.986 10.3356 110.143 10.3334 110.251 10.3294L110.145 10.7017L109.234 10.668ZM108.66 7.45656L107.888 7.42801L107.9 7.11223L110.095 7.19344L110.085 7.46125C109.846 7.65254 109.591 7.81125 109.322 7.94539C109.33 7.95368 109.338 7.95797 109.346 7.96626L110.149 7.99599L110.083 9.77078C110.075 10.0066 109.938 10.1217 109.678 10.112L109.371 10.1007L109.302 9.78191L109.586 9.8084C109.674 9.81165 109.723 9.76946 109.726 9.68152L109.734 9.47766L109.158 9.45636L109.134 10.1119L108.786 10.099L108.811 9.44349L108.247 9.42264L108.222 10.0862L107.863 10.0729L107.943 7.91435L108.862 7.94837C108.733 7.85555 108.589 7.75814 108.428 7.66413L108.66 7.45656ZM109.097 7.75693C109.268 7.6792 109.428 7.58904 109.575 7.49043L108.68 7.4573C108.828 7.55886 108.969 7.65612 109.097 7.75693ZM108.269 8.83504L108.258 9.11485L108.822 9.1357L108.832 8.85589L108.269 8.83504ZM109.18 8.86876L109.17 9.14857L109.745 9.16987L109.756 8.89006L109.18 8.86876ZM109.767 8.57827L109.778 8.29847L109.202 8.27717L109.192 8.55697L109.767 8.57827ZM108.844 8.54411L108.854 8.2643L108.291 8.24344L108.28 8.52325L108.844 8.54411Z" fill="white"/>
<path d="M114.374 7.59792L114.281 10.7165L113.914 10.7056L113.92 10.4777L113.221 10.4569L113.214 10.6888L112.846 10.6779L112.939 7.55525L114.374 7.59792ZM113.231 10.1011L113.931 10.1219L113.996 7.94283L113.296 7.92203L113.231 10.1011ZM111.489 7.98837C111.391 8.18555 111.282 8.36638 111.165 8.53098L110.839 8.30921C111.106 7.94098 111.302 7.54262 111.423 7.11402L111.797 7.20516C111.752 7.35591 111.7 7.49442 111.648 7.62893L112.74 7.66138L112.729 8.02522L112.185 8.00905C112.17 8.25671 112.151 8.48825 112.12 8.69944L112.744 8.71798L112.733 9.08182L112.058 9.06173C112.039 9.14922 112.016 9.23659 111.998 9.31608C112.235 9.57122 112.474 9.85446 112.721 10.1659L112.479 10.5109C112.241 10.1517 112.042 9.86962 111.88 9.66471C111.699 10.0795 111.405 10.4269 110.988 10.7027L110.75 10.3915C111.174 10.096 111.458 9.7282 111.603 9.28432C111.621 9.20883 111.643 9.12946 111.662 9.04997L110.874 9.02655L110.885 8.66271L111.729 8.68779C111.759 8.4766 111.778 8.24506 111.793 7.99741L111.489 7.98837Z" fill="white"/>
<path d="M115.19 7.19824L115.979 9.08322L115.112 10.9334L114.795 10.7827L115.595 9.07516L114.867 7.33549L115.19 7.19824ZM115.874 7.21261L116.663 9.09759L115.796 10.9478L115.479 10.7971L116.279 9.08953L115.535 7.34952L115.874 7.21261Z" fill="white"/>
</svg>
