<svg width="114" height="34" viewBox="0 0 114 34" fill="none" xmlns="http://www.w3.org/2000/svg">
<path d="M5.11058 27.2695L5.46849 27.1951L5.81654 29.055L7.43025 30.0306L7.25042 30.332L5.50177 29.275L5.11058 27.2695ZM5.67127 26.8777L6.01606 26.8125L6.37723 28.6633L7.99094 29.6389L7.81111 29.9402L6.06246 28.8832L5.67127 26.8777Z" fill="white"/>
<path d="M7.30071 25.8171C7.53852 25.898 7.7842 25.9978 8.03441 26.1186L7.89804 26.36L8.58469 25.8973C8.5767 25.6278 8.53086 25.3307 8.44939 25.0093L8.81377 24.8844C8.88832 25.1525 8.92731 25.4108 8.93963 25.6581L9.5699 25.2334L9.77554 25.5386L8.69414 26.2673L8.76343 26.3701C8.86409 26.5338 8.94585 26.691 9.01428 26.8426L10.3345 25.953L10.5402 26.2582L9.37915 27.0405C9.81215 27.3324 10.4391 27.3681 11.2624 27.151L11.2778 27.5747C10.3889 27.7588 9.69294 27.678 9.18537 27.3399C9.23072 27.536 9.25162 27.7245 9.24584 27.9021C9.22145 28.3526 9.00747 28.8296 8.60392 29.3331L8.2459 29.174C8.64498 28.6639 8.84915 28.2224 8.86172 27.8474C8.85992 27.7087 8.84147 27.5668 8.80859 27.425L7.67412 28.1894L7.46847 27.8842L8.6892 27.0617C8.62185 26.9045 8.54341 26.7451 8.44498 26.5847L8.37569 26.4819L7.29097 27.2128L7.08533 26.9076L7.79521 26.4293C7.5561 26.3107 7.326 26.2197 7.10599 26.1509L7.30071 25.8171Z" fill="white"/>
<path d="M10.0577 24.1091L12.6074 22.4757L12.8081 22.7889L11.7336 23.4772L12.2601 24.2991L13.5703 23.4597L13.7753 23.7797L12.4651 24.619L13.2008 25.7676C13.3519 26.0034 13.3049 26.2044 13.0591 26.3619L12.5235 26.705L12.2576 26.4383C12.4359 26.3384 12.6053 26.2394 12.7602 26.1401C12.868 26.0711 12.8895 25.986 12.8291 25.8917L12.1451 24.824L10.7776 25.7L10.5726 25.3801L11.9401 24.504L11.4136 23.6822L10.2584 24.4223L10.0577 24.1091Z" fill="white"/>
<path d="M14.5812 23.1828L15.1274 24.0958C15.3719 23.8656 15.6274 23.6149 15.883 23.3408L16.1475 23.5881C15.7951 23.9574 15.4221 24.3157 15.0341 24.6644L14.7414 24.4713C14.7971 24.3774 14.7993 24.2875 14.748 24.2017L13.5014 22.1181C13.8894 21.7928 14.2273 21.4694 14.5131 21.1446L14.8717 21.2843C14.6257 21.5666 14.3269 21.8619 13.9774 22.1736L14.3943 22.8704L15.3417 22.3036L15.5285 22.616L14.5812 23.1828ZM17.4199 23.0971L17.0973 23.2902L16.8191 23.0278L17.1287 22.8519C17.2179 22.7985 17.2317 22.7203 17.1742 22.6242L16.1104 20.8461L15.4342 21.2507L17.0484 23.9487L16.7189 24.1458L14.9199 21.1389L16.2551 20.34L17.5448 22.4957C17.6989 22.7531 17.6568 22.9554 17.4199 23.0971Z" fill="white"/>
<path d="M17.472 20.8983L17.1884 19.722L17.5525 19.5957L17.7253 20.3447L18.2446 20.0605C18.1692 19.7643 18.072 19.4618 17.9566 19.1511L18.32 19.0069C18.4296 19.3071 18.5191 19.5956 18.592 19.8703L20.199 18.9908L20.3738 19.3101L18.6825 20.2357C18.7108 20.3707 18.7317 20.5006 18.7543 20.6251L20.1578 19.857L20.3114 20.1377C20.3777 20.4753 20.3479 20.8291 20.2149 21.2028C20.5623 21.2042 20.96 21.1644 21.4046 21.0852L21.4055 21.4951C20.8964 21.5731 20.4444 21.597 20.0568 21.572C19.8852 21.9167 19.6409 22.2784 19.3238 22.6572L18.9755 22.4374C19.2573 22.1191 19.4822 21.8135 19.6488 21.5263C19.3208 21.4687 19.0413 21.3663 18.8158 21.2207C18.8473 21.8783 18.7546 22.4671 18.5412 22.9852L18.2002 22.7705C18.4502 22.0774 18.4928 21.2972 18.3281 20.4297L17.472 20.8983ZM18.958 20.9057C19.1871 21.0494 19.4752 21.1425 19.8203 21.1816C19.9435 20.8817 19.9992 20.6004 19.9861 20.3431L18.958 20.9057ZM18.8884 18.6457C19.2304 18.6956 19.5357 18.7702 19.8024 18.8659L19.6944 19.2351C19.4541 19.1295 19.1539 19.0475 18.7848 18.9896L18.8884 18.6457Z" fill="white"/>
<path d="M20.5149 17.8451C20.797 17.9205 21.0451 18.0081 21.2644 18.1099L21.1455 18.4668C20.9477 18.3634 20.6943 18.274 20.389 18.1966L20.5149 17.8451ZM20.8537 18.7438C21.1358 18.8192 21.3892 18.9086 21.6103 19.014L21.4897 19.3673C21.2865 19.2621 21.0331 19.1726 20.7278 19.0953L20.8537 18.7438ZM21.5362 19.6074L21.8943 19.5742C21.9979 20.0937 22.0784 20.5934 22.1322 21.066L21.7475 21.0812C21.7009 20.5871 21.6293 20.0964 21.5362 19.6074ZM22.6997 18.5191L22.8707 18.8674C22.7966 18.9706 22.7172 19.072 22.6396 19.1681L23.1174 20.1411C23.2337 20.3781 23.1896 20.5513 22.9813 20.6535L22.6905 20.7963L22.4723 20.5336C22.5692 20.5039 22.6589 20.4687 22.7378 20.43C22.7953 20.4017 22.8012 20.332 22.75 20.2279L22.3798 19.4739L22.1311 19.7297L21.8916 19.4418C22.005 19.346 22.1113 19.2448 22.2158 19.14L21.8156 18.3249L21.4601 18.4995L21.3156 18.2051L21.671 18.0305L21.3572 17.3914L21.6875 17.2292L22.0013 17.8683L22.2993 17.722L22.4439 18.0164L22.1459 18.1627L22.4756 18.8342C22.5515 18.7345 22.6274 18.6259 22.6997 18.5191ZM23.2812 16.509L23.5749 16.7168C23.3388 16.962 23.051 17.1836 22.7097 17.3779L23.0094 17.9883L24.0219 17.4911L24.1718 17.7963L23.863 17.9479L24.7763 19.8077L24.4532 19.9664L23.5399 18.1066L23.1593 18.2935L23.2668 18.5125C23.5821 19.1999 23.7155 19.8073 23.667 20.3347L23.3173 20.2033C23.3472 19.7742 23.2257 19.2635 22.9509 18.6676L22.2597 17.2602C22.6727 17.0485 23.0126 16.7969 23.2812 16.509Z" fill="white"/>
<path d="M26.1447 15.7976L25.2528 16.1838L25.1097 15.8535L27.2056 14.9458L27.3487 15.2762L26.4861 15.6497L27.5241 18.0466L28.5115 17.6191L28.6561 17.9531L26.2555 18.9927L26.1109 18.6586L27.1827 18.1945L26.1447 15.7976ZM24.2375 16.0438C24.5707 16.1087 24.8657 16.1858 25.1166 16.282L24.9808 16.6329C24.7551 16.5345 24.4586 16.4537 24.0949 16.3888L24.2375 16.0438ZM24.522 16.9624C24.8552 17.0273 25.146 17.1149 25.3985 17.2148L25.2611 17.562C25.0338 17.4599 24.741 17.3775 24.3793 17.3074L24.522 16.9624ZM25.3423 17.7797L25.7015 17.7636C25.7288 18.3097 25.725 18.8345 25.6901 19.3378L25.3051 19.3345C25.3536 18.8122 25.3642 18.2933 25.3423 17.7797Z" fill="white"/>
<path d="M29.2373 13.911L29.5852 13.7793L29.9463 14.7332L29.5984 14.8649L29.2373 13.911ZM29.0385 15.928C28.8867 16.024 28.7348 16.12 28.5815 16.2122L28.3138 15.9457C29.3756 15.3385 30.1359 14.7256 30.5909 14.1085C30.4306 14.058 30.2629 14.0103 30.0876 13.9654L30.2407 13.6466C30.7228 13.7678 31.1488 13.9102 31.5098 14.0729L31.3578 14.417C31.2246 14.3477 31.0802 14.2826 30.9208 14.2231C30.6743 14.5774 30.3514 14.922 29.9498 15.2622L31.2741 14.7609L32.0431 16.7922L31.6952 16.9239L31.6414 16.7818L29.9916 17.4063L30.0483 17.5559L29.7041 17.6862L29.0385 15.928ZM29.8727 17.0921L31.5224 16.4675L31.4275 16.2169L29.7778 16.8414L29.8727 17.0921ZM29.6702 16.5571L31.3199 15.9326L31.2335 15.7044L29.5838 16.3289L29.6702 16.5571ZM29.4776 16.0483L31.1273 15.4238L31.0381 15.1881L29.3883 15.8127L29.4776 16.0483ZM28.7307 14.3465L29.0649 14.4724C28.9475 14.829 28.7651 15.1718 28.5161 15.497L28.2098 15.3093C28.4429 14.9987 28.6175 14.6802 28.7307 14.3465Z" fill="white"/>
<path d="M33.2965 13.1507L32.0251 13.5739L31.9101 13.2285L34.8211 12.2596L34.9361 12.605L33.6609 13.0294L34.4289 15.337L35.9432 14.8329L36.0594 15.1821L32.6626 16.3127L32.5464 15.9635L34.0645 15.4582L33.2965 13.1507Z" fill="white"/>
<path d="M36.4875 11.4913L36.8519 11.3833L37.745 14.3978L38.2053 14.2614L37.3121 11.2469L37.6764 11.139L38.5696 14.1535L39.6895 13.8216L39.7952 14.1783L36.3742 15.1919L36.2685 14.8353L37.3807 14.5057L36.4875 11.4913ZM38.605 11.6398L38.9544 11.6364C39.0041 12.3393 38.9866 12.9702 38.9031 13.5331L38.543 13.5147C38.626 13.0062 38.6484 12.3779 38.605 11.6398ZM35.9718 12.4117C36.3196 12.8677 36.6661 13.4033 37.0149 14.0175L36.7063 14.2007C36.3975 13.6373 36.056 13.1043 35.6907 12.6035L35.9718 12.4117Z" fill="white"/>
<path d="M39.901 10.5325C40.1979 10.6518 40.4533 10.7864 40.6729 10.9264L40.49 11.2486C40.2946 11.1063 40.0342 10.9689 39.7139 10.8392L39.901 10.5325ZM39.7009 11.7661L40.5664 11.5346L41.0036 13.1691C41.0965 13.0366 41.193 12.8866 41.297 12.718L41.5008 13.0776C41.3116 13.3766 41.1008 13.6566 40.8673 13.9136L40.6393 13.6185C40.6867 13.5479 40.7029 13.469 40.6811 13.3879L40.305 11.9813L39.7949 12.1177L39.7009 11.7661ZM41.2034 11.857L43.0775 11.3557L43.1674 11.6919C43.1473 12.0658 43.0404 12.4091 42.8476 12.7256C43.1383 12.8218 43.479 12.888 43.8599 12.9187L43.7475 13.2883C43.3198 13.237 42.9515 13.145 42.6371 13.0221C42.3935 13.3191 42.0652 13.5932 41.6598 13.8424L41.3723 13.5881C41.7499 13.3587 42.0535 13.1161 42.2821 12.8562C41.9512 12.6714 41.6941 12.4379 41.5187 12.1536L41.2984 12.2125L41.2034 11.857ZM41.8626 12.0616C42.0145 12.2735 42.2221 12.4458 42.4901 12.5811C42.6482 12.3359 42.7536 12.08 42.8016 11.8105L41.8626 12.0616ZM41.075 10.293L42.4429 9.92721L42.6599 10.7387C42.6826 10.8237 42.7414 10.8577 42.838 10.8318L43.1781 10.7409L43.268 11.0771L42.8313 11.1939C42.557 11.2672 42.3866 11.172 42.3184 10.917L42.1716 10.3683L41.5302 10.5398L41.5612 10.6557C41.6686 11.0576 41.5475 11.4254 41.2007 11.7542L40.8818 11.5372C41.1671 11.3035 41.2785 11.0543 41.2083 10.7915L41.075 10.293Z" fill="white"/>
<path d="M44.801 10.3995L45.8185 10.1485L45.5379 9.01064L45.9185 8.91676L46.1991 10.0547L47.1623 9.8171L47.2523 10.1822L46.2892 10.4197L46.8055 12.513L46.4249 12.6069L45.9086 10.5136L44.8911 10.7646L44.801 10.3995ZM43.8222 9.4709C44.1215 9.59893 44.3821 9.73654 44.6047 9.88762L44.4155 10.2062C44.2151 10.062 43.9537 9.92049 43.6281 9.78655L43.8222 9.4709ZM43.5873 10.7236L44.4844 10.5023L44.8925 12.1567C44.9919 12.0251 45.0913 11.877 45.1956 11.7153L45.3856 12.0681C45.1945 12.3624 44.9783 12.6382 44.7398 12.8907L44.5186 12.595C44.5712 12.5244 44.5899 12.4497 44.5707 12.3721L44.2182 10.9429L43.6745 11.077L43.5873 10.7236Z" fill="white"/>
<path d="M47.413 8.67L48.9938 8.3543L49.0627 8.69948L48.8744 8.73708L49.2841 10.7886C49.3579 10.7494 49.4308 10.7062 49.5046 10.667L49.5767 11.0279C49.5029 11.0671 49.4284 11.1024 49.3546 11.1416L49.5027 11.883L49.1418 11.955L49.0133 11.3117C48.7152 11.4529 48.3998 11.5893 48.0711 11.7202L47.9096 11.3812L48.1645 11.2895L47.7016 8.97131L47.4819 9.01518L47.413 8.67ZM48.505 11.1563C48.6518 11.0943 48.7977 11.0285 48.9428 10.9587L48.8433 10.4605L48.3844 10.5522L48.505 11.1563ZM48.317 10.2149L48.776 10.1232L48.6796 9.64073L48.2207 9.73239L48.317 10.2149ZM48.1533 9.39505L48.6122 9.30339L48.5135 8.80915L48.0546 8.90081L48.1533 9.39505ZM49.1561 8.39121L50.8585 8.05123L51.2416 9.96935L49.5392 10.3093L49.1561 8.39121ZM50.8071 9.6931L50.5642 8.47711L49.5914 8.67139L49.8343 9.88737L50.8071 9.6931ZM49.933 10.4224L50.2867 10.519C50.2089 11.0077 50.0864 11.436 49.9247 11.8109L49.5702 11.6492C49.7366 11.2978 49.8544 10.8868 49.933 10.4224ZM50.8799 10.2211C51.232 10.5953 51.5104 10.9273 51.719 11.216L51.453 11.4975C51.2381 11.1774 50.9613 10.833 50.6256 10.4595L50.8799 10.2211Z" fill="white"/>
<path d="M52.5883 7.62802L52.9651 7.57843L53.3754 10.6955L53.8513 10.6329L53.441 7.51579L53.8177 7.4662L54.228 10.5833L55.386 10.4309L55.4346 10.7997L51.8971 11.2653L51.8485 10.8965L52.9986 10.7451L52.5883 7.62802ZM54.6564 8.10623L55.0021 8.15756C54.9412 8.85951 54.8251 9.47996 54.6545 10.0229L54.3018 9.94826C54.4633 9.459 54.5838 8.84199 54.6564 8.10623ZM51.9349 8.45638C52.2071 8.96117 52.4654 9.54445 52.7138 10.2057L52.3803 10.3383C52.1635 9.73347 51.9096 9.15363 51.6272 8.60177L51.9349 8.45638Z" fill="white"/>
<path d="M55.8365 7.25611C56.0818 7.31288 56.3124 7.38687 56.5206 7.48269L56.3416 7.80587C56.1198 7.69106 55.8966 7.60847 55.6716 7.5541L55.8365 7.25611ZM57.051 7.08747L57.4256 7.10588C57.408 7.18753 57.3858 7.26152 57.3596 7.33583L58.9227 7.21174L58.9407 7.43902C58.9121 7.6339 58.8678 7.83404 58.8112 8.03113L58.4398 7.95228C58.4911 7.83987 58.5331 7.71214 58.5622 7.5734L57.98 7.61962C57.9704 7.70064 57.9562 7.77399 57.9379 7.84767C58.1718 8.114 58.586 8.27773 59.1847 8.33854L59.0754 8.68026C58.504 8.60926 58.0808 8.4342 57.8062 8.15907C57.7707 8.21806 57.7347 8.26908 57.6946 8.32041C57.5221 8.5227 57.2108 8.69587 56.7651 8.84361L56.5986 8.51575C56.9671 8.40625 57.2297 8.27706 57.3858 8.12022C57.5042 7.99445 57.5839 7.83565 57.6212 7.64811L57.1865 7.68262C57.0939 7.83041 56.9765 7.96813 56.8418 8.09118L56.5951 7.81384C56.8317 7.61047 56.9848 7.36558 57.051 7.08747ZM58.7795 8.74388L58.8742 9.93613L58.4914 9.96651L58.4246 9.12516L56.5704 9.27236L56.6404 10.1536L56.2616 10.1837L56.1637 8.95154L58.7795 8.74388ZM57.3485 9.31893L57.7299 9.32075C57.7146 9.83558 57.6179 10.1843 57.4474 10.3624C57.2648 10.5895 56.8051 10.7625 56.0645 10.8855L55.8897 10.5542C56.5132 10.4727 56.9163 10.3443 57.1027 10.165C57.2655 9.99161 57.3477 9.71223 57.3485 9.31893ZM56.4034 7.97752L56.6473 8.21897C56.4641 8.43816 56.2317 8.6452 55.9506 8.84407L55.6762 8.57293C55.966 8.3814 56.2113 8.18537 56.4034 7.97752ZM57.8591 9.98862C58.3836 10.0754 58.8665 10.1935 59.3077 10.3431L59.1254 10.6746C58.654 10.4993 58.1785 10.3725 57.6905 10.2909L57.8591 9.98862Z" fill="white"/>
<path d="M60.431 8.61236L60.5106 10.5547L60.1389 10.57L60.0633 8.72351C59.9609 9.05998 59.8295 9.36962 59.6729 9.65226L59.4922 9.24732C59.7416 8.88481 59.9209 8.47313 60.0261 8.01243L59.5345 8.03257L59.5196 7.66888L60.0192 7.64841L59.9886 6.90104L60.3603 6.88581L60.3909 7.63318L60.7946 7.61665L60.8095 7.98034L60.4058 7.99688L60.4132 8.17673C60.5802 8.34603 60.7438 8.52749 60.9122 8.72877C61.2267 8.58777 61.5005 8.43243 61.7338 8.26275C61.5843 8.13275 61.4547 7.99795 61.3448 7.85433C61.2612 7.96584 61.1694 8.06968 61.0774 8.16953L60.8257 7.8876C61.0873 7.62868 61.3052 7.27946 61.479 6.83197L61.8462 6.90101C61.8098 6.99057 61.7774 7.07997 61.7407 7.16154L62.8238 7.11717L62.8358 7.40892C62.7123 7.71824 62.5316 7.99787 62.2897 8.24798C62.5563 8.4052 62.8658 8.53264 63.2144 8.63846L63.0573 9.0052C62.6547 8.85354 62.3115 8.68345 62.0272 8.48692C61.787 8.68092 61.5017 8.85274 61.1796 9.00205L62.8702 8.93279L62.9329 10.4635L62.5652 10.4786L62.559 10.3267L61.5718 10.3671L61.578 10.519L61.2063 10.5342L61.1443 9.01951C61.0813 9.04611 61.0183 9.07271 60.9594 9.09914L60.8373 8.95202L60.7511 9.09567C60.627 8.90058 60.5203 8.74081 60.431 8.61236ZM61.5574 10.0154L62.5446 9.97499L62.5169 9.29956L61.5297 9.34L61.5574 10.0154ZM61.9852 8.04827C62.1662 7.87272 62.3109 7.69065 62.4189 7.49406L61.5516 7.52959C61.5403 7.54606 61.5291 7.56654 61.5218 7.58285C61.6449 7.75396 61.7993 7.90777 61.9852 8.04827Z" fill="white"/>
<path d="M64.2112 7.58107C64.1488 7.72979 64.0702 7.85468 63.9833 7.95167L63.6729 7.73516C63.8625 7.52501 63.9793 7.23967 64.0271 6.87111L64.3837 6.92308C64.365 7.0353 64.3462 7.13952 64.3232 7.23179L64.6872 7.22768L64.6819 6.75571L65.0579 6.75147L65.0632 7.22344L65.7791 7.21536L65.7831 7.56333L65.0671 7.57141L65.0719 7.99939L65.9039 7.99L65.9079 8.34598L65.076 8.35536L65.0797 8.69134L65.8517 8.68263L65.8638 9.75056C65.8667 10.0145 65.7322 10.1481 65.4602 10.1511L65.2643 10.1534L65.1642 9.79846L65.3404 9.81247C65.4484 9.81125 65.5039 9.76263 65.5029 9.67463L65.4957 9.03867L65.0837 9.04332L65.0994 10.4312L64.7234 10.4355L64.7077 9.04756L64.2958 9.05221L64.3086 10.1921L63.9407 10.1963L63.9238 8.70439L64.7038 8.69559L64.7 8.35961L63.764 8.37017L63.76 8.01419L64.696 8.00363L64.6911 7.57566L64.2112 7.58107ZM66.0819 7.09993L66.4498 7.09578L66.4775 9.54362L66.1095 9.54778L66.0819 7.09993ZM66.8909 10.375L66.2949 10.3817L66.2068 10.0187C66.399 10.0325 66.579 10.0385 66.755 10.0365C66.859 10.0353 66.9104 9.97877 66.9092 9.87077L66.8737 6.73097L67.2497 6.72673L67.2862 9.96252C67.2893 10.2345 67.1548 10.372 66.8909 10.375Z" fill="white"/>
<path d="M68.5469 8.91878L70.9148 8.94114L70.9121 9.22113C70.7058 9.46719 70.4599 9.67288 70.1702 9.84615C70.509 9.97736 70.9001 10.0771 71.3395 10.1372L71.1724 10.4636C70.6413 10.3706 70.1866 10.2263 69.8084 10.0387C69.4066 10.223 68.9374 10.3545 68.4085 10.4375L68.2477 10.104C68.6923 10.0442 69.0892 9.95195 69.4344 9.8232C69.184 9.65283 68.9778 9.46287 68.8118 9.2453L68.5438 9.24277L68.5469 8.91878ZM69.2198 9.24915C69.3783 9.41065 69.565 9.54842 69.7839 9.6705C70.017 9.55269 70.2223 9.41463 70.3998 9.26029L69.2198 9.24915ZM68.3788 8.08116L68.3767 8.30515C68.3524 9.17696 68.2059 9.8716 67.9289 10.397L67.6433 10.1383C67.8635 9.70036 67.9853 9.08548 68.0007 8.30159L68.013 6.99765L69.5289 7.01197C69.4858 6.92356 69.4386 6.83911 69.3913 6.76666L69.7958 6.70648C69.839 6.79889 69.882 6.9033 69.9209 7.01567L71.2649 7.02837L71.2615 7.38835L68.3856 7.36119L68.3821 7.72917L68.9821 7.73484L68.9846 7.46685L69.3526 7.47033L69.3501 7.73831L70.29 7.74719L70.2926 7.4752L70.6606 7.47868L70.658 7.75067L71.258 7.75633L71.2547 8.10832L70.6547 8.10265L70.6489 8.71862L68.973 8.70279L68.9788 8.08682L68.3788 8.08116ZM69.3468 8.0903L69.3439 8.39028L70.2839 8.39916L70.2867 8.09918L69.3468 8.0903Z" fill="white"/>
<path d="M73.2938 8.7467L72.9499 8.73851L72.9584 8.38261L74.0181 8.40785L74.0096 8.76375L73.6657 8.75556L73.6423 9.73928C73.8031 9.7071 73.964 9.67092 74.121 9.63065L74.1125 9.98655C73.7623 10.0742 73.3884 10.1494 72.9909 10.2079L72.9076 9.84182C73.028 9.82868 73.1483 9.81554 73.2688 9.7984L73.2938 8.7467ZM74.8128 10.4874C74.6688 10.4839 74.5394 10.3728 74.4324 10.1622C74.3105 9.90724 74.2264 9.57315 74.1801 9.16393C74.1405 8.81088 74.1187 8.38224 74.1149 7.87001L72.8793 7.84057L72.888 7.47268L74.1157 7.50192C74.113 7.2778 74.1187 7.04186 74.1244 6.80193L74.4923 6.81069C74.4864 7.05862 74.4808 7.29056 74.4836 7.51069L75.2474 7.52888L75.2386 7.89678L74.4828 7.87877C74.4842 8.49098 74.5125 8.98379 74.5597 9.35302C74.6289 9.8108 74.7152 10.0489 74.8227 10.0715C74.8869 10.065 74.9565 9.83061 75.0393 9.37645L75.3334 9.62752C75.1757 10.2039 75.0047 10.4919 74.8128 10.4874ZM74.8283 6.8147C74.9918 7.00264 75.1159 7.16965 75.2086 7.30789L74.9403 7.48556C74.848 7.33131 74.72 7.16022 74.5644 6.97246L74.8283 6.8147ZM72.1959 6.8C72.4391 7.00185 72.6424 7.20275 72.8056 7.4067L72.5394 7.66443C72.3919 7.47286 72.1847 7.26787 71.9258 7.05364L72.1959 6.8ZM71.6284 7.94682L72.5281 7.96825L72.4889 9.61578C72.5831 9.526 72.6814 9.42831 72.7841 9.31873L72.8745 9.72099C72.6448 9.95559 72.4039 10.1619 72.1476 10.3399L72.0117 9.99652C72.077 9.94206 72.1145 9.87894 72.1163 9.80296L72.1516 8.32338L71.6197 8.31071L71.6284 7.94682Z" fill="white"/>
<path d="M77.1654 6.92649L77.5412 6.9389L77.5296 7.2907L79.0527 7.34097L79.041 7.69678L77.5178 7.64651L77.5038 8.07028L78.7751 8.11223L78.7304 9.4675L76.0039 9.37752L76.0486 8.02226L77.128 8.05788L77.1654 6.92649ZM78.3622 9.10315L78.3836 8.45551L76.4127 8.39046L76.3913 9.03811L78.3622 9.10315ZM75.9916 9.50918L76.3022 9.67552C76.147 10.0146 75.9653 10.3047 75.7652 10.5463L75.4609 10.3081C75.6603 10.0866 75.8372 9.82026 75.9916 9.50918ZM76.9388 9.66851C77.0103 9.92701 77.0731 10.2092 77.1271 10.5112L76.7404 10.5865C76.703 10.2651 76.6484 9.9791 76.5805 9.73273L76.9388 9.66851ZM77.7721 9.64398C77.879 9.91966 77.9694 10.2148 78.0469 10.5335L77.6682 10.6091C77.6033 10.2708 77.5173 9.96775 77.4139 9.7042L77.7721 9.64398ZM78.5745 9.58242C78.8156 9.91855 78.9981 10.2087 79.126 10.4571L78.8029 10.6665C78.6717 10.3981 78.4936 10.096 78.2642 9.76828L78.5745 9.58242Z" fill="white"/>
<path d="M81.3628 7.69585L80.0238 7.64488L80.0376 7.28114L83.1034 7.39783L83.0896 7.76157L81.7465 7.71045L81.654 10.1407L83.2489 10.2014L83.2349 10.5691L79.6575 10.433L79.6715 10.0652L81.2703 10.1261L81.3628 7.69585Z" fill="white"/>
<path d="M85.5761 8.12019C85.3771 8.49665 85.1562 8.82021 84.9174 9.09102L84.6585 8.75257C85.0055 8.37793 85.3104 7.85353 85.569 7.18318L85.9493 7.28223C85.8868 7.4479 85.8205 7.60541 85.7546 7.75493L87.4013 7.81979L87.3867 8.1915L86.1037 8.14097L86.0812 8.71253L87.2043 8.75676L87.1898 9.12448L86.0667 9.08024L86.0435 9.66779L87.1747 9.71234L87.1603 10.0761L86.0292 10.0315L85.9936 10.9348L85.6099 10.9197L85.72 8.12586L85.5761 8.12019ZM84.1872 8.72599C84.0699 8.85748 83.9406 8.9885 83.8075 9.11536L83.6957 8.70263C84.1252 8.2672 84.4497 7.75157 84.6692 7.15975L85.0223 7.34179C84.9064 7.64146 84.7632 7.92404 84.5926 8.18954L84.4868 10.8755L84.1031 10.8603L84.1872 8.72599Z" fill="white"/>
<path d="M87.7813 7.86351L89.4641 7.92692C89.394 7.76817 89.3117 7.61696 89.2132 7.46915L89.5779 7.3508C89.6796 7.51875 89.7723 7.71437 89.8518 7.94153L91.3348 7.99741L91.3209 8.36515L89.2424 8.28683L89.1868 8.91318L90.8336 8.97523C90.7892 9.83417 90.7329 10.3724 90.6607 10.5899C90.5607 10.9063 90.3547 11.0627 90.0386 11.0588C89.9107 11.054 89.7551 11.0401 89.5797 11.0215L89.4807 10.6735C89.6922 10.6895 89.8718 10.7042 90.0157 10.7097C90.1839 10.708 90.2963 10.5921 90.3533 10.3541C90.3824 10.2191 90.4075 9.87182 90.4363 9.32052L89.1292 9.27126C89.0617 9.57694 88.9551 9.85712 88.8015 10.1075C88.5927 10.4439 88.305 10.7493 87.9424 11.0238L87.6765 10.7496C88.1137 10.4098 88.4058 10.0926 88.5532 9.79394C88.7005 9.49528 88.7893 9.15838 88.8234 8.7834C88.8397 8.56386 88.8541 8.39228 88.8667 8.27267L87.7674 8.23125L87.7813 7.86351Z" fill="white"/>
<path d="M93.0397 8.14408L93.3802 8.25555C93.3177 8.3295 93.2593 8.39958 93.2012 8.46167L94.9202 8.5193L94.91 8.82313L94.2544 8.80115C94.1251 8.95691 93.9887 9.08441 93.8493 9.18379C94.1783 9.27887 94.5149 9.38621 94.859 9.50981L94.6294 9.79027C94.2462 9.64135 93.8586 9.50428 93.4703 9.38721C93.0441 9.56503 92.4971 9.64674 91.833 9.63648L91.6356 9.31769C92.1953 9.33645 92.6405 9.30736 92.963 9.23813C92.7132 9.16971 92.463 9.1093 92.2168 9.05302C92.3204 8.94843 92.4199 8.84371 92.5193 8.74298L91.7118 8.71591L91.722 8.41208L92.7854 8.44773C92.8728 8.3466 92.9563 8.24534 93.0397 8.14408ZM93.4329 9.06978C93.5878 8.98692 93.7231 8.8914 93.8306 8.78694L92.9351 8.75692L92.7777 8.91573C92.9924 8.95895 93.2108 9.0103 93.4329 9.06978ZM94.9666 7.85248L94.9465 8.45215L94.5947 8.44035L94.6042 8.15651L92.0536 8.071L92.0441 8.35484L91.6923 8.34304L91.7124 7.74338L93.1476 7.7915C93.1026 7.70194 93.0534 7.61624 93.0001 7.53441L93.398 7.48372C93.4428 7.58127 93.4833 7.68669 93.5274 7.80423L94.9666 7.85248ZM91.5473 9.803L93.0864 9.85461L93.0961 9.56677L93.4799 9.57964L93.4702 9.86747L94.9973 9.91868L94.9864 10.2465L93.779 10.206C94.0548 10.4554 94.472 10.6655 95.0269 10.8282L94.8519 11.1545C94.2117 10.9089 93.7495 10.6092 93.4575 10.2473L93.4258 11.1907L93.0421 11.1779L93.074 10.2264C92.7906 10.5611 92.3169 10.8414 91.6447 11.075L91.4481 10.7322C92.0619 10.5687 92.4964 10.3831 92.7516 10.1716L91.5363 10.1308L91.5473 9.803Z" fill="white"/>
<path d="M96.9465 8.27847L96.8712 11.0615L96.5073 11.0516L96.5129 10.8437L95.8812 10.8266L95.8724 11.1504L95.5085 11.1406L95.587 8.24165L95.9669 8.25194C96.0447 8.03797 96.1067 7.81956 96.1449 7.58851L96.5234 7.65078C96.4774 7.86962 96.4119 8.07192 96.3308 8.26179L96.9465 8.27847ZM95.8907 10.4747L96.5225 10.4918L96.5438 9.70409L95.912 9.68698L95.8907 10.4747ZM95.9212 9.3471L96.553 9.36422L96.5729 8.62848L95.9412 8.61137L95.9212 9.3471ZM97.6403 9.25762C97.8953 9.59264 98.0915 9.88206 98.2248 10.1338L97.9192 10.3376C97.7744 10.0695 97.5743 9.77202 97.3272 9.44121L97.6403 9.25762ZM99.0097 8.33836C98.9723 9.71785 98.9293 10.569 98.8806 10.8878C98.8328 11.1746 98.637 11.3134 98.2971 11.3042C98.2171 11.302 98.0734 11.2901 97.8738 11.2727L97.7913 10.9223C97.967 10.9351 98.1187 10.9472 98.2467 10.9507C98.4066 10.955 98.5009 10.8735 98.5294 10.7062C98.5588 10.5069 98.589 9.83552 98.6279 8.69615L97.6242 8.66897C97.5058 8.90584 97.3719 9.1223 97.2145 9.31811L96.9947 9.01205C97.269 8.63533 97.4656 8.17249 97.5765 7.62329L97.9511 7.68145C97.905 7.90429 97.8434 8.1107 97.7741 8.30489L99.0097 8.33836Z" fill="white"/>
<path d="M99.9975 7.73715C100.266 7.95415 100.49 8.17033 100.67 8.3817L100.397 8.6407C100.241 8.43777 100.021 8.21766 99.733 7.9803L99.9975 7.73715ZM102.231 11.3631C102.011 11.359 101.771 11.3506 101.515 11.3419C101.255 11.333 101.044 11.3051 100.876 11.262C100.717 11.2111 100.579 11.1125 100.462 10.9743C100.407 10.9053 100.36 10.8724 100.312 10.8715C100.228 10.8699 100.08 11.0472 99.8696 11.4034L99.5945 11.1383C99.8005 10.818 99.9842 10.6174 100.146 10.5404L100.167 9.40857L99.6307 9.39865L99.6372 9.04671L100.529 9.06322L100.501 10.575C100.521 10.5913 100.54 10.6117 100.56 10.6361C100.65 10.7457 100.744 10.8275 100.843 10.8813C100.962 10.9396 101.138 10.9788 101.374 10.9912C101.601 10.9994 101.869 11.0084 102.181 11.0141C102.377 11.0178 102.577 11.0175 102.777 11.0172C102.977 11.0169 103.133 11.0118 103.242 11.0058L103.143 11.38L102.231 11.3631ZM101.598 8.16285L100.826 8.14856L100.832 7.83261L103.028 7.87326L103.023 8.14121C102.787 8.33688 102.536 8.50026 102.269 8.63935C102.277 8.6475 102.285 8.65165 102.293 8.65979L103.097 8.67468L103.064 10.4504C103.059 10.6863 102.925 10.8039 102.665 10.7991L102.357 10.7934L102.283 10.4759L102.567 10.4972C102.655 10.4988 102.704 10.4557 102.705 10.3677L102.709 10.1638L102.133 10.1531L102.121 10.809L101.773 10.8025L101.785 10.1467L101.221 10.1362L101.209 10.8001L100.849 10.7934L100.889 8.63381L101.809 8.65083C101.679 8.56041 101.532 8.46568 101.37 8.37466L101.598 8.16285ZM102.041 8.45509C102.21 8.37421 102.368 8.28112 102.514 8.1798L101.618 8.16322C101.768 8.26201 101.91 8.35666 102.041 8.45509ZM101.232 9.54831L101.227 9.82827L101.791 9.83871L101.796 9.55875L101.232 9.54831ZM102.144 9.56519L102.139 9.84515L102.715 9.85581L102.72 9.57586L102.144 9.56519ZM102.726 9.26391L102.731 8.98396L102.155 8.9733L102.15 9.25325L102.726 9.26391ZM101.802 9.24681L101.807 8.96685L101.243 8.95642L101.238 9.23637L101.802 9.24681Z" fill="white"/>
<path d="M107.094 8.18521L107.067 11.3051L106.699 11.302L106.701 11.074L106.001 11.0681L105.999 11.3001L105.631 11.2969L105.658 8.17305L107.094 8.18521ZM106.004 10.7121L106.704 10.718L106.723 8.53808L106.023 8.53215L106.004 10.7121ZM104.218 8.63688C104.124 8.83609 104.018 9.0192 103.905 9.18625L103.575 8.97145C103.834 8.59763 104.021 8.1952 104.133 7.76413L104.508 7.84731C104.467 7.99897 104.418 8.13855 104.369 8.27414L105.461 8.28339L105.458 8.64737L104.914 8.64277C104.904 8.89069 104.89 9.12258 104.864 9.33437L105.488 9.33965L105.485 9.70364L104.809 9.69792C104.792 9.78578 104.771 9.87361 104.755 9.95347C104.996 10.2035 105.242 10.4816 105.495 10.7878L105.261 11.1378C105.016 10.7837 104.81 10.506 104.644 10.3045C104.472 10.7231 104.185 11.0767 103.775 11.3612L103.529 11.0551C103.948 10.7507 104.223 10.377 104.359 9.93012C104.375 9.85426 104.396 9.77443 104.413 9.69457L103.625 9.6879L103.628 9.32391L104.472 9.33105C104.498 9.11926 104.512 8.88737 104.522 8.63945L104.218 8.63688Z" fill="white"/>
<path d="M108.076 7.76755L108.911 9.63281L108.089 11.5035L107.768 11.3606L108.527 9.63408L107.757 7.9126L108.076 7.76755ZM108.76 7.7653L109.595 9.63056L108.773 11.5013L108.452 11.3583L109.211 9.63183L108.425 7.9104L108.76 7.7653Z" fill="white"/>
</svg>
