<svg width="78" height="19" viewBox="0 0 78 19" fill="none" xmlns="http://www.w3.org/2000/svg">
<path d="M4.77702 1.84686L5.04922 2.09087L3.75827 3.47435L3.93004 5.35221L3.58077 5.38617L3.39449 3.35139L4.77702 1.84686ZM5.42501 2.06587L5.68206 2.30476L4.40626 3.69336L4.57802 5.57123L4.22876 5.60518L4.04248 3.57041L5.42501 2.06587Z" fill="white"/>
<path d="M7.17194 2.67973C7.25673 2.9162 7.33168 3.17053 7.39299 3.44153L7.11918 3.48517L7.90882 3.73428C8.11474 3.56016 8.31864 3.33928 8.51932 3.07543L8.844 3.28271C8.68065 3.508 8.50284 3.69937 8.31699 3.86304L9.04178 4.09169L8.93106 4.44264L7.68748 4.05033L7.65017 4.16859C7.58478 4.34928 7.51275 4.51111 7.43671 4.65909L8.95496 5.13805L8.84424 5.489L7.5091 5.06781C7.55041 5.58835 7.91292 6.10117 8.59543 6.61008L8.2735 6.88601C7.57591 6.30524 7.20575 5.71031 7.15418 5.10264C7.02895 5.26027 6.89449 5.39401 6.75198 5.50005C6.38428 5.76154 5.87781 5.89117 5.23259 5.88895L5.13411 5.50976C5.78174 5.50435 6.25428 5.38918 6.55555 5.16545C6.66293 5.07769 6.76247 4.97487 6.85298 4.86082L5.54836 4.44925L5.65907 4.0983L7.06287 4.54116C7.14393 4.39057 7.21977 4.22994 7.28396 4.05306L7.32127 3.9348L6.07387 3.54129L6.18458 3.19034L7.00092 3.44787C6.94483 3.1869 6.87269 2.95023 6.78952 2.73525L7.17194 2.67973Z" fill="white"/>
<path d="M10.2045 3.75012L13.1134 4.59129L13.01 4.94865L11.7842 4.59418L11.5131 5.53176L13.0079 5.96402L12.9023 6.32906L11.4075 5.89681L11.0286 7.20712C10.9508 7.4761 10.7687 7.57332 10.4882 7.4922L9.87719 7.31552L9.90257 6.93978C10.0952 7.00798 10.2813 7.07012 10.458 7.12123C10.581 7.15679 10.6591 7.11693 10.6903 7.00934L11.0425 5.79124L9.48242 5.3401L9.58798 4.97506L11.1481 5.4262L11.4192 4.48862L10.1012 4.10748L10.2045 3.75012Z" fill="white"/>
<path d="M17.1335 6.09899L16.3633 9.06875L16.0071 8.97637L16.0704 8.73244L15.4586 8.57379L15.3953 8.81772L15.043 8.72635L15.8131 5.75659L17.1335 6.09899ZM15.55 8.22145L16.1617 8.3801L16.6859 6.35895L16.0741 6.2003L15.55 8.22145ZM14.5114 4.84873L14.8753 4.94312L14.6805 5.69427L15.4588 5.8961C15.1314 7.15834 14.9102 7.93158 14.7942 8.21967C14.6792 8.5039 14.4474 8.60083 14.1067 8.51246C14.0447 8.4964 13.9461 8.46255 13.8097 8.41478L13.8041 8.05383C13.9328 8.09958 14.0431 8.13645 14.136 8.16054C14.2986 8.20272 14.4195 8.13489 14.4928 7.96382C14.5632 7.78786 14.7315 7.18685 15.0063 6.15893L14.5881 6.05049C14.2727 7.17119 13.8072 7.93064 13.1866 8.33171L12.975 8.01648C13.5252 7.66331 13.9436 6.97427 14.2242 5.9561L13.6356 5.80347L13.728 5.44726L14.3166 5.59988L14.5114 4.84873Z" fill="white"/>
<path d="M18.9393 6.53728L19.6023 6.6883L19.7293 6.13059L20.0882 6.21232L19.9611 6.77003L20.7918 6.95926L20.5253 8.12929L20.7905 8.1897L20.7079 8.55241L19.7251 8.32854C19.848 8.86935 20.1162 9.34889 20.5384 9.76504L20.2221 10.0007C19.8107 9.53774 19.5397 9.01654 19.416 8.44274C19.0994 8.986 18.6615 9.34163 18.0966 9.51652L17.9397 9.16079C18.4636 9.02169 18.8654 8.69885 19.144 8.19617L18.4342 8.03448L18.5168 7.67177L19.3007 7.85034C19.3614 7.69186 19.4122 7.52293 19.4531 7.34352L19.5232 7.03541L18.8602 6.88439L18.9393 6.53728ZM19.8821 7.11714L19.8305 7.34335C19.7826 7.55395 19.7216 7.74931 19.6556 7.93118L20.1665 8.04756L20.354 7.22464L19.8821 7.11714ZM17.5992 6.44124L17.8794 6.52559C17.7828 6.91383 17.6546 7.27847 17.5005 7.6126L17.2198 7.45839C17.3772 7.14554 17.5039 6.80519 17.5992 6.44124ZM18.6744 6.5836C18.7228 6.85719 18.7507 7.16712 18.7589 7.50949L18.4417 7.51518C18.4459 7.20846 18.4241 6.90811 18.3809 6.61112L18.6744 6.5836ZM18.1801 5.7818L18.5428 5.86442L17.7291 9.43691L17.3664 9.35429L18.1801 5.7818Z" fill="white"/>
<path d="M22.9592 8.67832L22.8741 9.11407L23.4825 9.23304L23.5677 8.79729L22.9592 8.67832ZM22.8065 9.45953L22.7113 9.94632L23.3198 10.0653L23.415 9.5785L22.8065 9.45953ZM22.6415 10.3036L22.607 10.4802L22.2379 10.4081L22.6631 8.23324C22.5624 8.33174 22.4545 8.42477 22.3427 8.51704L22.2939 8.09991C22.6853 7.74442 22.9934 7.33594 23.2158 6.86587L23.5631 7.00714C23.4698 7.19268 23.3662 7.36807 23.2524 7.5333L23.853 7.65072C23.827 7.45001 23.7932 7.24776 23.75 7.05183L24.1257 7.02746C24.1652 7.28381 24.1937 7.51354 24.2024 7.71903L24.803 7.83646L24.7332 8.19369L24.0933 8.06859L24.005 8.52005L24.5664 8.6298L24.4981 8.97918L23.9367 8.86943L23.8515 9.30518L24.4129 9.41493L24.3454 9.76039L23.784 9.65064L23.6888 10.1374L24.3719 10.271L24.3021 10.6282L22.6415 10.3036ZM23.7243 7.99645L23.1158 7.87749L23.0276 8.32894L23.636 8.4479L23.7243 7.99645ZM22.3184 8.32887L22.2439 8.70966C22.124 8.7392 22.001 8.76405 21.8819 8.78967L21.6731 9.85746C21.6232 10.1126 21.4644 10.2161 21.2014 10.1647L20.8481 10.0956L20.8363 9.7183C20.9392 9.75473 21.0397 9.78253 21.1379 9.80172C21.2399 9.82167 21.3002 9.78454 21.3186 9.69033L21.4813 8.85808C21.3221 8.87995 21.1598 8.89713 21.0022 8.91115L20.9817 8.51586C21.1739 8.51268 21.3636 8.50087 21.555 8.48122L21.7161 7.65683L21.2451 7.56473L21.3157 7.20356L21.7868 7.29566L21.9218 6.60474L22.2948 6.67766L22.1597 7.36858L22.5248 7.43995L22.4542 7.80112L22.0891 7.72974L21.9548 8.41673C22.0778 8.39188 22.1977 8.36234 22.3184 8.32887Z" fill="white"/>
<path d="M25.5471 7.34287C25.774 7.59075 25.9615 7.83218 26.1095 8.06715L25.7972 8.29168C25.6755 8.06913 25.4926 7.8244 25.2459 7.54896L25.5471 7.34287ZM27.2266 11.2492C27.0135 11.2143 26.7812 11.1723 26.5332 11.1276C26.2812 11.0824 26.0798 11.0251 25.9244 10.9592C25.7742 10.886 25.6555 10.7693 25.559 10.6157C25.5187 10.5402 25.4765 10.5009 25.4291 10.4931C25.3501 10.4802 25.179 10.6346 24.9195 10.957L24.6852 10.6552C24.9349 10.3677 25.1454 10.1954 25.3162 10.1423L25.4989 9.02516L24.966 8.93801L25.0228 8.59062L25.9071 8.73523L25.6624 10.2314C25.6756 10.2497 25.6928 10.2687 25.7086 10.2957C25.778 10.4164 25.8599 10.5109 25.9502 10.5783C26.0556 10.6523 26.2195 10.7156 26.4472 10.761C26.6676 10.8011 26.9275 10.8476 27.2315 10.8973C27.421 10.9283 27.619 10.9566 27.821 10.9856C28.019 11.0139 28.1742 11.0312 28.2821 11.0408L28.1306 11.397L27.2266 11.2492ZM26.3528 8.04208L26.787 8.11309L26.8845 7.51701L27.2437 7.57575L27.1462 8.17184L27.6831 8.25963L27.7799 7.6675L28.1431 7.72689L28.0463 8.31903L28.516 8.39585L28.4586 8.74718L27.9888 8.67036L27.8746 9.36908L28.4706 9.46656L28.4125 9.82184L27.8165 9.72436L27.6409 10.7981L27.2777 10.7387L27.4533 9.66497L26.8256 9.56232C26.6409 9.99821 26.3886 10.3015 26.0603 10.4748L25.8844 10.138C26.1313 10.0162 26.324 9.80453 26.4624 9.50293L25.9848 9.42481L26.0429 9.06953L26.5916 9.15927C26.6293 9.02763 26.6598 8.89076 26.6837 8.7447L26.7296 8.46442L26.2953 8.39341L26.3528 8.04208ZM27.0888 8.52317L27.0572 8.7166C27.0275 8.89819 26.9885 9.06205 26.9469 9.21737L27.5114 9.30968L27.6257 8.61097L27.0888 8.52317Z" fill="white"/>
<path d="M30.6122 8.73188L29.2839 8.5554L29.3318 8.19457L32.3731 8.59863L32.3251 8.95946L30.9928 8.78245L30.6725 11.1933L32.2546 11.4035L32.2062 11.7683L28.6573 11.2968L28.7058 10.932L30.2919 11.1427L30.6122 8.73188Z" fill="white"/>
<path d="M34.3667 8.57333L34.7447 8.61276L34.4184 11.7398L34.8959 11.7896L35.2221 8.66256L35.6 8.70199L35.2738 11.829L36.4355 11.9502L36.3969 12.3202L32.8482 11.95L32.8868 11.58L34.0405 11.7004L34.3667 8.57333ZM36.2668 9.51959L36.591 9.64993C36.3685 10.3184 36.1113 10.8949 35.819 11.3832L35.4933 11.2286C35.7642 10.7903 36.025 10.2183 36.2668 9.51959ZM33.5384 9.22692C33.6857 9.78119 33.8012 10.4086 33.889 11.1095L33.5337 11.1609C33.4636 10.5221 33.3517 9.89917 33.2054 9.29674L33.5384 9.22692Z" fill="white"/>
<path d="M37.3905 8.90473C37.6303 9.11665 37.8259 9.32903 37.9859 9.53453L37.7056 9.77682C37.5691 9.57723 37.3699 9.36054 37.1115 9.13106L37.3905 8.90473ZM36.7887 9.99997L37.6818 10.0719L37.546 11.7584C37.678 11.6647 37.8192 11.5557 37.9736 11.4317L38.0452 11.8387C37.7668 12.0571 37.4743 12.2502 37.1682 12.4142L37.0523 12.0598C37.1206 12.0091 37.1622 11.9402 37.169 11.8565L37.2858 10.4052L36.7595 10.3628L36.7887 9.99997ZM38.1739 10.589L40.1076 10.7447L40.0797 11.0916C39.9355 11.4371 39.7198 11.7247 39.4321 11.9584C39.6738 12.1464 39.9726 12.3229 40.3211 12.4794L40.0915 12.79C39.7056 12.5984 39.3894 12.3884 39.1344 12.1672C38.8054 12.3654 38.4042 12.5137 37.9388 12.6127L37.7531 12.2767C38.1857 12.1871 38.5531 12.0602 38.8555 11.8919C38.6056 11.6069 38.4416 11.3008 38.3716 10.9741L38.1444 10.9558L38.1739 10.589ZM38.7265 11.0027C38.7986 11.2533 38.9365 11.4851 39.1437 11.7024C39.3747 11.5244 39.5598 11.3186 39.6954 11.0807L38.7265 11.0027ZM38.5769 9.07247L39.9883 9.18609L39.9209 10.0234C39.9139 10.1111 39.9579 10.1628 40.0575 10.1708L40.4084 10.1991L40.3805 10.5459L39.9299 10.5097C39.6468 10.4869 39.5182 10.3401 39.5394 10.0769L39.585 9.51077L38.9231 9.45749L38.9135 9.5771C38.8801 9.99176 38.6428 10.2977 38.2058 10.4913L37.9781 10.18C38.3252 10.0554 38.5137 9.85793 38.5355 9.5868L38.5769 9.07247Z" fill="white"/>
<path d="M42.1128 10.3665L43.1589 10.4286L43.2284 9.25866L43.6197 9.28188L43.5503 10.4518L44.5405 10.5106L44.5182 10.8859L43.528 10.8272L43.4003 12.9794L43.0089 12.9561L43.1367 10.8039L42.0905 10.7419L42.1128 10.3665ZM41.4534 9.18938C41.7013 9.40044 41.9093 9.60913 42.0771 9.81944L41.802 10.0676C41.6534 9.87042 41.4456 9.65774 41.1744 9.43328L41.4534 9.18938ZM40.8576 10.3161L41.7799 10.3708L41.679 12.0718C41.8129 11.9756 41.9518 11.8636 42.0994 11.7401L42.1762 12.1334C41.9065 12.3578 41.6181 12.5571 41.3155 12.7274L41.1919 12.3795C41.2631 12.3276 41.3031 12.2619 41.3078 12.182L41.395 10.7126L40.836 10.6794L40.8576 10.3161Z" fill="white"/>
<path d="M45.1816 10.6566L45.546 9.50284L45.923 9.58263L45.6843 10.3133L46.2758 10.338C46.3641 10.0454 46.4371 9.7362 46.4987 9.41048L46.8844 9.47462C46.8232 9.78835 46.7509 10.0816 46.6715 10.3545L48.5019 10.4309L48.4867 10.7946L46.5604 10.7142C46.5149 10.8444 46.4658 10.9665 46.4208 11.0847L48.0194 11.1514L48.0061 11.4711C47.8885 11.7945 47.6803 12.0821 47.3736 12.3335C47.6703 12.514 48.0315 12.6852 48.4531 12.847L48.2423 13.1985C47.766 13.0025 47.3665 12.7896 47.0475 12.5681C46.7226 12.7747 46.3266 12.9584 45.8595 13.1191L45.6747 12.751C46.0803 12.6238 46.4307 12.4783 46.7216 12.3183C46.4705 12.0996 46.284 11.8677 46.166 11.6265C45.8536 12.206 45.4702 12.6624 45.0199 12.9959L44.8388 12.6361C45.4106 12.1715 45.85 11.5253 46.1567 10.6973L45.1816 10.6566ZM46.4504 11.4302C46.5725 11.6715 46.7711 11.9 47.0465 12.1117C47.3068 11.9184 47.4998 11.7062 47.6214 11.4791L46.4504 11.4302ZM47.5576 9.45868C47.8247 9.67801 48.0477 9.8995 48.2267 10.1192L47.9435 10.3796C47.7924 10.1651 47.5776 9.93993 47.2913 9.69979L47.5576 9.45868Z" fill="white"/>
<path d="M49.4756 11.0325L50.0273 11.048L50.0363 10.7281L49.3685 10.7094L49.36 11.0133C49.3533 11.2532 49.3309 11.4847 49.3008 11.6999L50.0086 11.7197L50.0179 11.3838L49.4662 11.3684L49.4756 11.0325ZM49.2432 12.0424C49.1551 12.4761 49.0201 12.8685 48.8383 13.2156L48.5381 12.9311C48.8041 12.4343 48.9501 11.7941 48.9762 11.0026L49.0138 9.65908L52.0726 9.74462L52.0435 10.7842L51.4877 10.7687L51.4788 11.0885L52.0785 11.1053L52.0691 11.4412L51.4694 11.4244L51.46 11.7603L52.1957 11.7809L52.1861 12.1247L51.7862 12.1135L52.0118 12.3479C51.8836 12.4964 51.7442 12.6166 51.5975 12.7085C51.7982 12.8302 52.0278 12.9206 52.2902 12.98L52.1002 13.3348C51.3858 13.1267 50.8853 12.7086 50.5947 12.0802L50.0989 12.0664L50.0777 12.8261C50.3192 12.7728 50.5331 12.7107 50.7151 12.6398L50.7774 12.9897C50.4503 13.0926 50.0638 13.1778 49.6178 13.2454L49.5231 12.9106C49.6444 12.866 49.7067 12.7837 49.7103 12.6557L49.727 12.056L49.2432 12.0424ZM50.9786 12.091C51.0704 12.2416 51.1788 12.3727 51.3036 12.4882C51.4581 12.4005 51.6016 12.2764 51.7343 12.1121L50.9786 12.091ZM51.1199 10.7584L50.4001 10.7383L50.3912 11.0581L51.1109 11.0783L51.1199 10.7584ZM50.3724 11.7299L51.0921 11.75L51.1015 11.4141L50.3818 11.394L50.3724 11.7299ZM51.679 10.0818L49.3879 10.0177L49.3781 10.3695L51.6692 10.4336L51.679 10.0818Z" fill="white"/>
<path d="M54.2246 10.3139L54.1793 13.0975L53.8154 13.0916L53.8187 12.8836L53.1868 12.8734L53.1816 13.1973L52.8176 13.1914L52.8647 10.2918L53.2447 10.298C53.3202 10.0832 53.3798 9.86411 53.4155 9.63266L53.7946 9.69083C53.7511 9.91015 53.6878 10.1131 53.6086 10.3039L54.2246 10.3139ZM53.1925 12.5214L53.8245 12.5317L53.8373 11.7438L53.2054 11.7335L53.1925 12.5214ZM53.2109 11.3936L53.8428 11.4038L53.8548 10.6679L53.2228 10.6577L53.2109 11.3936ZM54.9289 11.2855C55.1875 11.6177 55.3869 11.905 55.5228 12.1552L55.2194 12.3623C55.0717 12.0959 54.8685 11.8006 54.6178 11.4724L54.9289 11.2855ZM56.2882 10.3515C56.2658 11.7313 56.2319 12.5828 56.1867 12.9021C56.1421 13.1895 55.9478 13.3303 55.6078 13.3248C55.5278 13.3235 55.384 13.3131 55.1842 13.2979L55.0978 12.9484C55.2737 12.9593 55.4255 12.9698 55.5535 12.9719C55.7135 12.9745 55.8069 12.892 55.8336 12.7244C55.8608 12.5248 55.8838 11.8531 55.9103 10.7134L54.9064 10.697C54.7905 10.9352 54.659 11.1531 54.5037 11.3506L54.2807 11.0469C54.5509 10.6673 54.7424 10.2023 54.8474 9.65194L55.2226 9.70604C55.1789 9.92936 55.1196 10.1364 55.0524 10.3314L56.2882 10.3515Z" fill="white"/>
<path d="M58.7299 10.5476L58.7285 10.7356C58.7279 10.8236 58.7716 10.8719 58.8596 10.8725L59.8316 10.8792C59.9036 10.8797 59.9597 10.8601 60 10.8244C60.0403 10.7807 60.0692 10.6449 60.0868 10.417L60.438 10.5314C60.4036 10.8712 60.3422 11.0748 60.2578 11.1382C60.1773 11.2016 60.0571 11.2328 59.8971 11.2317L58.7412 11.2237C58.4852 11.2219 58.3581 11.085 58.36 10.813L58.3676 9.72104L58.7356 9.7236L58.7322 10.2156C59.1968 10.1228 59.6457 9.98993 60.075 9.8169L60.2809 10.1183C59.7355 10.3106 59.2185 10.455 58.7299 10.5476ZM57.3463 13.354L56.9303 13.3512L56.8489 12.9866C56.9768 13.0035 57.1007 13.0123 57.2167 13.0131C57.3127 13.0138 57.3651 12.9622 57.3657 12.8622L57.3717 12.0102C57.2113 12.0651 57.0469 12.1119 56.8826 12.1588L56.7933 11.7782C56.9895 11.7395 57.1819 11.6889 57.3743 11.6302L57.3801 10.7982L56.8721 10.7947L56.8746 10.4307L57.3826 10.4342L57.3876 9.71424L57.7516 9.71677L57.7466 10.4367L58.1586 10.4396L58.1561 10.8036L57.7441 10.8007L57.7392 11.5047C57.8916 11.4458 58.044 11.3828 58.1885 11.3118L58.1858 11.6998C58.0374 11.7628 57.889 11.8258 57.7366 11.8807L57.7291 12.9607C57.7272 13.2247 57.5983 13.3558 57.3463 13.354ZM60.2834 11.4864L60.27 13.4103L59.89 13.4077L59.8912 13.2317L58.7513 13.2238L58.75 13.3998L58.3741 13.3972L58.3874 11.4732L60.2834 11.4864ZM58.7536 12.8878L59.8936 12.8957L59.8962 12.5197L58.7562 12.5118L58.7536 12.8878ZM58.7585 12.1758L59.8985 12.1837L59.9011 11.8157L58.7611 11.8078L58.7585 12.1758Z" fill="white"/>
<path d="M61.0782 11.8482L63.4888 11.93L63.4957 11.7262L63.8795 11.7392L63.8726 11.9431L64.7361 11.9724L64.7236 12.3402L63.8601 12.3109L63.8339 13.0824C63.8253 13.3343 63.6811 13.4574 63.4092 13.4482L62.9055 13.4311L62.8302 13.0563C62.9896 13.0778 63.1452 13.0911 63.2891 13.0959C63.3931 13.0995 63.4505 13.0574 63.4532 12.9774L63.4763 12.2978L61.0657 12.216L61.0782 11.8482ZM64.218 9.90161L64.1836 10.917L61.9009 10.8395L61.8939 11.0434C61.8903 11.1514 61.9443 11.2092 62.0603 11.2132L64.1511 11.2841C64.2152 11.2823 64.26 11.2598 64.2853 11.2207C64.3064 11.1894 64.3296 11.0941 64.351 10.9347L64.7069 11.0629C64.6767 11.2459 64.6443 11.3729 64.6137 11.4519C64.5573 11.5781 64.4392 11.6381 64.2591 11.64L61.9004 11.5599C61.6286 11.5507 61.4969 11.4222 61.5051 11.1783L61.5516 9.8111L64.218 9.90161ZM61.9125 10.4957L63.8154 10.5603L63.8266 10.2325L61.9237 10.1679L61.9125 10.4957ZM62.0635 12.2979C62.3164 12.5106 62.5294 12.7219 62.7023 12.9319L62.4049 13.206C62.2596 13.005 62.0509 12.7858 61.7827 12.5525L62.0635 12.2979Z" fill="white"/>
<path d="M66.3082 10.6466L65.6991 10.5114L65.7684 10.199L67.057 10.485C67.0405 10.4117 67.0232 10.3423 67.004 10.2807L67.4201 10.3074C67.4349 10.3886 67.4518 10.4784 67.4632 10.5751L68.8143 10.875L68.745 11.1874L68.1241 11.0496L67.9588 11.2587L68.8765 11.4624L68.8054 11.7826L65.3925 11.0252L65.4635 10.705L66.35 10.9017L66.3082 10.6466ZM66.7366 10.9875L67.5722 11.173L67.7375 10.9638L66.6948 10.7324L66.7366 10.9875ZM65.7622 11.2793L68.3629 11.8565L68.0926 13.0749L65.4918 12.4977L65.7622 11.2793ZM67.7918 12.7131L67.8351 12.5178L65.9607 12.1019L65.9174 12.2971L67.7918 12.7131ZM66.0196 11.8364L67.894 12.2523L67.9365 12.061L66.0621 11.645L66.0196 11.8364ZM65.3096 12.6171L65.6524 12.771C65.4942 13.0596 65.3103 13.2974 65.0999 13.4883L64.8239 13.2181C65.0269 13.0419 65.1856 12.8436 65.3096 12.6171ZM67.0997 13.9854L66.1469 13.7739C65.8462 13.7072 65.7281 13.5376 65.7871 13.2721L65.898 12.7722L66.2729 12.8554L66.1793 13.2772C66.1576 13.3748 66.2049 13.4385 66.326 13.4654L67.1031 13.6379C67.1734 13.6535 67.2276 13.6491 67.261 13.6278C67.3079 13.6014 67.3577 13.5059 67.4115 13.3375L67.7378 13.5288C67.6459 13.7952 67.554 13.951 67.4559 13.9866C67.3713 14.017 67.252 14.0192 67.0997 13.9854ZM66.8824 12.8227C67.004 13.0136 67.0908 13.1762 67.1459 13.3155L66.7898 13.4618C66.7286 13.313 66.6396 13.1417 66.5219 12.9517L66.8824 12.8227ZM68.0826 13.1751C68.2411 13.4766 68.3557 13.7355 68.4273 13.9481L68.0712 14.0944C67.9969 13.8567 67.8879 13.5908 67.7403 13.2958L68.0826 13.1751Z" fill="white"/>
<path d="M72.4365 11.9221L71.7542 14.0514L71.3885 13.9342L71.9573 12.1591L70.3651 11.6489L69.795 13.4278L69.4293 13.3106L70.1129 11.1774L72.4365 11.9221ZM70.8859 12.0552L71.244 12.17L71.0157 12.8823C70.9422 13.0855 70.8595 13.2648 70.7653 13.4279L71.0891 13.5316L70.801 14.4306C70.7558 14.5715 70.7821 14.6598 70.8812 14.6915L71.4373 14.8697C71.483 14.8844 71.5348 14.88 71.5839 14.8579C71.638 14.8333 71.7198 14.683 71.8253 14.406L72.1353 14.6314C71.975 14.9875 71.8521 15.1875 71.7654 15.2353C71.6697 15.2718 71.5558 15.2732 71.4239 15.2393L70.6735 14.9988C70.3992 14.9109 70.3146 14.7032 70.4183 14.3794L70.6796 13.5642C70.5266 13.7924 70.3554 13.9728 70.1597 14.1117C69.8058 14.3511 69.32 14.4642 68.7001 14.4588L68.6035 14.0918C69.2234 14.0973 69.6802 13.9958 69.97 13.7862C70.2608 13.5602 70.4871 13.2211 70.6577 12.7675L70.8859 12.0552Z" fill="white"/>
<path d="M73.9517 12.2661L74.052 14.3069L72.6072 15.7518L72.3605 15.5023L73.6937 14.1687L73.6013 12.2853L73.9517 12.2661ZM74.5898 12.5123L74.6901 14.5531L73.2454 15.998L72.9986 15.7484L74.3319 14.4149L74.2245 12.5257L74.5898 12.5123Z" fill="white"/>
</svg>
