<svg width="92" height="21" viewBox="0 0 92 21" fill="none" xmlns="http://www.w3.org/2000/svg">
<path d="M4.66778 1.74768L4.91682 2.01529L3.50611 3.27643L3.50744 5.16213L3.15654 5.16438L3.15493 3.1211L4.66778 1.74768ZM5.29333 2.02436L5.52773 2.2855L4.13165 3.55311L4.13298 5.43882L3.78208 5.44107L3.78047 3.39778L5.29333 2.02436Z" fill="white"/>
<path d="M7.0088 2.8244C7.06835 3.06844 7.11625 3.32923 7.14883 3.60516L6.87194 3.61988L7.63114 3.95034C7.85417 3.79876 8.08009 3.60045 8.30731 3.35908L8.60849 3.59924C8.42243 3.80618 8.22555 3.97787 8.02357 4.12116L8.72042 4.42449L8.57355 4.76191L7.37791 4.24146L7.32842 4.35516C7.24445 4.52801 7.15587 4.6814 7.06474 4.8206L8.52445 5.45599L8.37757 5.79341L7.09391 5.23465C7.08045 5.75666 7.38724 6.30464 8.01268 6.88226L7.66361 7.12294C7.03071 6.47227 6.72491 5.84184 6.73729 5.23211C6.59624 5.37575 6.4485 5.49467 6.29567 5.58519C5.9026 5.80672 5.38534 5.88258 4.7439 5.81277L4.68569 5.42534C5.33032 5.48782 5.81233 5.42279 6.13538 5.23185C6.25136 5.15583 6.36113 5.06401 6.46308 4.96006L5.20876 4.41407L5.35564 4.07665L6.70532 4.66415C6.80171 4.52288 6.89396 4.37109 6.97633 4.2019L7.02582 4.08821L5.82651 3.56617L5.97338 3.22875L6.75825 3.57039C6.72981 3.30498 6.68287 3.06206 6.62267 2.83954L7.0088 2.8244Z" fill="white"/>
<path d="M9.87911 4.19743L12.6666 5.38002L12.5213 5.72248L11.3467 5.22413L10.9655 6.12262L12.3979 6.73032L12.2495 7.08014L10.8171 6.47244L10.2844 7.72812C10.175 7.98588 9.98255 8.06064 9.71374 7.9466L9.12825 7.69821L9.19833 7.32819C9.38144 7.41891 9.55875 7.50283 9.72813 7.57469C9.84597 7.62468 9.92832 7.59444 9.97206 7.49133L10.4673 6.32403L8.97225 5.68978L9.12066 5.33996L10.6157 5.97421L10.9969 5.07573L9.73383 4.53989L9.87911 4.19743Z" fill="white"/>
<path d="M13.8626 7.40316L13.7204 7.75124C13.5799 7.76731 13.4409 7.77967 13.2982 7.79051L12.8686 8.84217C12.7673 9.09027 12.5937 9.16625 12.3493 9.06643L12.0493 8.94391L12.1107 8.57147C12.195 8.61888 12.2772 8.66108 12.3587 8.69435C12.4475 8.73065 12.5116 8.70066 12.5494 8.60809L12.8777 7.80454C12.7195 7.80042 12.5613 7.79629 12.4009 7.78696L12.4534 7.4152C12.6404 7.44404 12.8282 7.46026 13.0168 7.46386L13.339 6.67512L12.8872 6.49059L13.0249 6.15362L13.4766 6.33815L13.7398 5.69383L14.0953 5.83903L13.8321 6.48335L14.2061 6.63612L14.0685 6.97309L13.6945 6.82033L13.4358 7.45354C13.5785 7.44269 13.7242 7.42444 13.8626 7.40316ZM14.4511 6.64979L15.1362 6.92961L15.3676 6.36305L15.7194 6.50674L15.488 7.0733L16.2323 7.37732L16.0931 7.71799L15.3488 7.41397L15.1855 7.8139C15.1507 7.89907 15.1085 7.98121 15.0663 8.06336L15.9846 8.43846L15.8455 8.77914L15.0382 8.44941C15.0318 9.02577 15.1632 9.5504 15.4287 10.0218L15.0782 10.2027C14.8286 9.70322 14.7032 9.16377 14.6992 8.59179C14.3457 8.99181 13.8816 9.28184 13.3068 9.46188L13.1266 9.12036C13.7236 8.94941 14.1855 8.65416 14.5124 8.23463L13.7903 7.93968L13.9295 7.59901L14.7145 7.91966C14.7582 7.83382 14.8004 7.75167 14.8337 7.67021L14.997 7.27028L14.312 6.99046L14.4511 6.64979Z" fill="white"/>
<path d="M19.0462 7.83367L19.3931 7.96803L19.2587 8.31492L19.9935 8.59953L19.8678 8.92404L19.133 8.63943L18.9958 8.99378L19.8723 9.33328L19.7423 9.66898L17.6834 8.87151L17.8134 8.53581L18.6489 8.85942L18.7861 8.50507L18.0849 8.23347L18.2106 7.90896L18.9118 8.18056L19.0462 7.83367ZM17.4705 9.24377L18.7984 9.75809L18.8981 9.50072L19.2524 9.63796L19.1528 9.89533L19.5929 10.0658L19.4643 10.3978L19.0242 10.2273L18.663 11.1598C18.5677 11.406 18.3954 11.4851 18.1493 11.3898L17.6569 11.1991L17.7115 10.8256C17.8638 10.8974 18.0064 10.9612 18.1481 11.0161C18.2414 11.0523 18.3087 11.0226 18.3433 10.933L18.6698 10.0901L17.342 9.57574L17.4705 9.24377ZM16.0447 10.5661L15.7165 10.4389L15.7733 10.0706C15.8645 10.1231 15.9549 10.1667 16.0444 10.2013C16.1339 10.236 16.2012 10.2063 16.2388 10.1093L16.5407 9.32975C16.3928 9.32394 16.2449 9.31814 16.0948 9.30716L16.1439 8.91441C16.3225 8.94067 16.5002 8.95804 16.6809 8.96794L16.9828 8.18837L16.5576 8.02367L16.689 7.68425L17.1143 7.84894L17.3613 7.21111L17.7082 7.34547L17.4612 7.9833L17.8192 8.12199L17.6878 8.46142L17.3297 8.32273L17.0783 8.97175C17.2231 8.96347 17.3655 8.95002 17.508 8.93657L17.3679 9.29838C17.2254 9.31183 17.0806 9.32011 16.9411 9.3261L16.551 10.3332C16.4556 10.5794 16.2834 10.6585 16.0447 10.5661ZM17.7508 9.87135C17.8409 10.1593 17.9 10.4053 17.9282 10.6093L17.5734 10.6949C17.542 10.4768 17.482 10.2219 17.3957 9.93542L17.7508 9.87135Z" fill="white"/>
<path d="M20.3777 9.15012L21.819 9.66955L22.0794 8.94704L22.4482 9.07995L22.1878 9.80246L23.6554 10.3314L23.532 10.6738L22.3541 10.2493C22.3756 10.9331 22.5894 11.6139 22.997 12.288L22.636 12.5109C22.2387 11.7256 22.0465 10.9378 22.063 10.1487L21.2032 12.5344L20.8344 12.4015L21.6956 10.012C21.1576 10.7025 20.4943 11.1862 19.7029 11.4708L19.6204 11.0626C20.3242 10.8443 20.918 10.4588 21.4021 9.9062L20.2543 9.49256L20.3777 9.15012Z" fill="white"/>
<path d="M24.566 10.7469L24.7789 10.8166L24.866 10.5506L25.1625 10.6477L25.0753 10.9138L25.3148 10.9922L25.2177 11.2887L24.9782 11.2103L24.8861 11.4916L25.1521 11.5787L25.055 11.8752L24.2605 11.615L24.3577 11.3185L24.5896 11.3944L24.6817 11.1131L24.4688 11.0434L24.566 10.7469ZM24.2552 11.811L24.9394 12.0352L24.5995 13.0729L23.9152 12.8488L24.2552 11.811ZM24.4409 12.7348L24.6127 12.2102L24.4113 12.1442L24.2394 12.6687L24.4409 12.7348ZM25.9837 10.4411L25.5914 11.6385C25.8703 11.2753 26.1187 10.8641 26.3428 10.4114L26.6231 10.5706C26.5216 10.752 26.4175 10.9284 26.3121 11.0959L26.7455 11.2379C26.7444 11.0355 26.732 10.8294 26.7056 10.6271L27.0586 10.6417C27.0777 10.9048 27.0814 11.1375 27.0686 11.3437L27.4487 11.4683L27.3441 11.7876L26.9525 11.6593L26.8019 12.1192L27.1059 12.2189L27.0026 12.5344L26.6985 12.4347L26.5515 12.8833L26.867 12.9866L26.7649 13.2983L26.4494 13.195L26.2875 13.6891L26.7246 13.8323L26.62 14.1516L25.4911 13.7818L25.4251 13.9832L25.102 13.8774L25.7857 11.7905C25.665 11.9278 25.5391 12.0549 25.4145 12.1782L25.0023 13.4364C24.9276 13.6645 24.7749 13.745 24.5507 13.6715L24.2428 13.5706L24.26 13.2227C24.3627 13.269 24.459 13.3089 24.5502 13.3388C24.6263 13.3637 24.6817 13.323 24.7166 13.2165L25.556 10.6545L24.5866 10.337L24.0362 12.0171C23.8456 12.586 23.6138 13.0236 23.346 13.3273L23.1596 12.9969C23.3708 12.7377 23.5498 12.3839 23.7018 11.9328L24.3644 9.91056L25.9837 10.4411ZM26.0067 12.2081L25.8597 12.6566L26.2246 12.7762L26.3716 12.3276L26.0067 12.2081ZM25.7576 12.9683L25.5957 13.4625L25.9606 13.582L26.1225 13.0879L25.7576 12.9683ZM26.6256 11.5522L26.2607 11.4326L26.11 11.8926L26.4749 12.0121L26.6256 11.5522Z" fill="white"/>
<path d="M29.7927 13.4647L29.4238 13.358L29.0758 14.5606C29.3 14.563 29.5286 14.5501 29.7617 14.5217L29.7478 14.8717C29.4252 14.9074 29.0268 14.9171 28.5565 14.9017L28.5643 14.5584C28.65 14.5499 28.7045 14.5198 28.7223 14.4583L29.5651 11.5458L31.3134 12.0518L30.8186 13.7616L30.1155 13.5581C30.0988 13.774 30.1146 13.9784 30.1579 14.1742C30.3597 14.1243 30.5649 14.0338 30.772 13.8939L30.9347 14.195C30.7178 14.3404 30.49 14.4369 30.2552 14.4855C30.3604 14.7408 30.5194 14.9826 30.7362 15.2119L30.4392 15.4757C29.9291 14.8784 29.7149 14.2084 29.7927 13.4647ZM27.9519 11.7244L28.4322 11.8634L28.639 11.1487L28.9964 11.2522L28.7896 11.9668L29.2199 12.0914L29.1187 12.441L28.6884 12.3165L28.6372 12.4932C28.7491 12.7255 28.8592 12.978 28.9692 13.2597L28.6656 13.5175C28.6148 13.2613 28.5694 13.0441 28.5294 12.8659L27.9779 14.7717L27.6205 14.6683L28.1276 12.9162C27.9238 13.2029 27.701 13.4549 27.4579 13.676L27.4149 13.2347C27.7724 12.9634 28.0753 12.6221 28.3233 12.2109L27.8507 12.0741L27.9519 11.7244ZM29.6229 12.6702L29.5184 13.0314L30.5558 13.3316L30.6603 12.9704L29.6229 12.6702ZM30.7515 12.6553L30.8605 12.2788L29.823 11.9786L29.7141 12.3551L30.7515 12.6553Z" fill="white"/>
<path d="M32.2968 13.0772L32.5142 13.1311L32.5816 12.8593L32.8844 12.9344L32.817 13.2062L33.0616 13.2668L32.9865 13.5697L32.7419 13.509L32.6707 13.7963L32.9424 13.8637L32.8674 14.1665L32.0559 13.9653L32.131 13.6625L32.3679 13.7212L32.4391 13.4339L32.2217 13.38L32.2968 13.0772ZM32.065 14.1613L32.7639 14.3346L32.501 15.3945L31.8022 15.2212L32.065 14.1613ZM32.318 15.0689L32.4509 14.5331L32.2451 14.4821L32.1123 15.0178L32.318 15.0689ZM33.6882 12.668L33.3849 13.891C33.6364 13.5083 33.8539 13.08 34.0441 12.6121L34.3354 12.7502C34.2475 12.9386 34.1566 13.1222 34.0638 13.297L34.5064 13.4067C34.4905 13.2049 34.463 13.0003 34.4218 12.8005L34.7749 12.7892C34.8133 13.0501 34.8341 13.2819 34.8364 13.4885L35.2247 13.5848L35.1438 13.9109L34.7439 13.8118L34.6274 14.2815L34.938 14.3586L34.8581 14.6808L34.5475 14.6038L34.4339 15.0619L34.7561 15.1418L34.6772 15.4602L34.355 15.3803L34.2298 15.885L34.6763 15.9957L34.5954 16.3218L33.4423 16.0359L33.3913 16.2417L33.0613 16.1598L33.5898 14.0284C33.4795 14.1741 33.3634 14.3101 33.2482 14.4423L32.9295 15.7274C32.8717 15.9603 32.7254 16.0518 32.4964 15.995L32.1819 15.917L32.1735 15.5688C32.2793 15.6074 32.3783 15.6402 32.4715 15.6633C32.5491 15.6825 32.6014 15.6378 32.6284 15.5291L33.2773 12.9123L32.2873 12.6668L31.8617 14.3829C31.7134 14.9643 31.5144 15.4177 31.2696 15.7403L31.0595 15.4244C31.251 15.1504 31.4036 14.7844 31.5221 14.3234L32.0342 12.2579L33.6882 12.668ZM33.8409 14.4286L33.7273 14.8867L34.1 14.9791L34.2136 14.521L33.8409 14.4286ZM33.6484 15.205L33.5232 15.7098L33.8959 15.8022L34.0211 15.2975L33.6484 15.205ZM34.41 13.729L34.0373 13.6366L33.9208 14.1063L34.2935 14.1987L34.41 13.729Z" fill="white"/>
<path d="M35.5599 13.1924L39.0229 13.9069L38.9486 14.2673L37.1309 13.8922C36.9375 14.2158 36.7137 14.5087 36.4642 14.7676L38.4661 15.1806L38.0441 17.2256L37.6641 17.1472L37.7029 16.9591L36.1595 16.6407L36.1207 16.8287L35.7367 16.7495L36.0714 15.1276C35.797 15.3488 35.4962 15.5399 35.1775 15.6988L35.0232 15.279C35.7359 14.9522 36.3029 14.4607 36.7274 13.809L35.4855 13.5528L35.5599 13.1924ZM36.2338 16.2802L37.7773 16.5987L38.0117 15.4626L36.4682 15.1442L36.2338 16.2802Z" fill="white"/>
<path d="M41.6031 14.4961L41.9623 14.5552L41.5618 16.9904L41.2026 16.9314L41.6031 14.4961ZM41.7972 17.8764L41.213 17.7803L41.1852 17.4069C41.3721 17.4538 41.5524 17.4916 41.7221 17.5195C41.8247 17.5363 41.8851 17.4895 41.9026 17.383L42.4122 14.2846L42.7832 14.3456L42.2581 17.5387C42.2139 17.8071 42.0577 17.9192 41.7972 17.8764ZM40.1341 16.9705C39.7506 17.2074 39.3274 17.3648 38.868 17.4473L38.708 17.0886C39.5994 16.9434 40.3232 16.5111 40.8714 15.7905L41.1717 16.0101C40.9442 16.3092 40.7001 16.5609 40.4316 16.764C40.6425 17.0095 40.8226 17.2459 40.971 17.477L40.6447 17.7112C40.5278 17.4852 40.3576 17.2383 40.1341 16.9705ZM40.4656 13.9198C40.5079 14.0565 40.5438 14.2084 40.5731 14.3753L41.394 14.5103L41.3363 14.8616L40.2508 14.6831C40.0233 14.9822 39.8291 15.2016 39.6683 15.3413C39.9044 15.3599 40.1419 15.3705 40.3799 15.3773C40.4842 15.2606 40.5813 15.1388 40.6744 15.0163L40.9629 15.234C40.4673 15.9308 39.8415 16.3589 39.0816 16.5177L38.929 16.1642C39.347 16.0871 39.7182 15.9252 40.0419 15.6825C39.7683 15.6699 39.4881 15.6481 39.1922 15.6238L39.1585 15.2615C39.1953 15.2595 39.2249 15.2522 39.2466 15.2436C39.3878 15.1736 39.5925 14.964 39.8562 14.6182L39.2167 14.5131L39.2745 14.1618L40.1784 14.3104C40.1445 14.1711 40.1015 14.0383 40.0526 13.9168L40.4656 13.9198Z" fill="white"/>
<path d="M45.1713 14.5962C45.2112 14.7301 45.2451 14.8794 45.2811 15.045L46.6586 15.2153L46.6144 15.5726L45.9475 15.4902C45.8857 15.6639 45.8086 15.8317 45.7165 15.9896L46.6335 16.1029L46.5884 16.4682L43.7698 16.1197L43.7036 16.6557C43.6111 17.273 43.4104 17.756 43.0938 18.0997L42.8354 17.8099C43.0871 17.5347 43.2493 17.1355 43.3225 16.6085L43.4339 15.7074L44.2358 15.8065L44.1611 15.2693L43.4545 15.182L43.4987 14.8247L44.896 14.9974C44.8606 14.86 44.8163 14.7296 44.7665 14.6106L45.1713 14.5962ZM44.6089 15.8527L45.3552 15.9449C45.4473 15.787 45.5245 15.6192 45.5863 15.4455L44.5303 15.315L44.6089 15.8527Z" fill="white"/>
<path d="M48.2408 15.0131L48.6194 15.0462L48.3454 18.1782L48.8236 18.22L49.0975 15.088L49.4761 15.1211L49.2022 18.2531L50.3657 18.3549L50.3333 18.7255L46.7789 18.4146L46.8113 18.044L47.9669 18.1451L48.2408 15.0131ZM50.1564 15.9274L50.4828 16.0524C50.2714 16.7245 50.0239 17.3051 49.7398 17.7983L49.4116 17.6491C49.6752 17.2064 49.9263 16.6301 50.1564 15.9274ZM47.4235 15.6804C47.5801 16.2321 47.7061 16.8575 47.8055 17.5568L47.4512 17.6142C47.3704 16.9767 47.248 16.3557 47.0917 15.7558L47.4235 15.6804Z" fill="white"/>
<path d="M51.5123 16.8227C51.3888 16.9602 51.2574 17.0934 51.1143 17.2219L51.0122 16.8118C51.4441 16.3784 51.776 15.8674 52.0043 15.2708L52.3548 15.4579C52.2388 15.7521 52.0916 16.0326 51.917 16.2996L51.7736 18.9678L51.3982 18.9476L51.5123 16.8227ZM52.3338 15.7732L53.1007 15.8144L53.2345 15.3369L53.6041 15.3928C53.5637 15.5469 53.5198 15.6928 53.4802 15.8348L54.6305 15.8966L54.6108 16.2641L53.3646 16.1971C53.3175 16.3268 53.2749 16.4487 53.2325 16.5666L54.7544 16.6484L54.7348 17.0118L53.0932 16.9236C53.0291 17.0724 52.9697 17.2094 52.9067 17.3382L54.4964 17.4236L54.4788 17.7512C54.3053 17.9982 54.0479 18.2408 53.6984 18.4824C53.8615 18.5792 54.0201 18.6839 54.1705 18.7921L53.9372 19.1081C53.4675 18.7544 52.978 18.4717 52.4768 18.2565L52.6966 17.9679C52.9315 18.0686 53.1578 18.1809 53.3759 18.2968C53.6658 18.1201 53.8998 17.9404 54.0741 17.7535L52.3965 17.6633C52.5137 17.4213 52.6235 17.1668 52.7297 16.9041L52.0986 16.8702L52.1182 16.5067L52.8651 16.5469C52.9077 16.425 52.9503 16.3031 52.9891 16.177L52.3141 16.1407L52.3338 15.7732Z" fill="white"/>
<path d="M55.6676 15.5781L58.0068 15.6367L57.9978 15.9966C57.7215 16.1658 57.4094 16.326 57.0654 16.4814L57.0604 16.6814L57.5242 16.693L57.5155 17.0409L57.0516 17.0292L57.0444 17.3172L57.5843 17.3307L57.5754 17.6826L57.0356 17.669L57.0284 17.957L57.7402 17.9748L57.7312 18.3347L57.0194 18.3168L57.0071 18.8087C57.001 19.0526 56.8779 19.1736 56.646 19.1678L56.1821 19.1561L56.095 18.8018C56.2227 18.813 56.3666 18.8207 56.5185 18.8245C56.5905 18.8263 56.6278 18.7752 56.6304 18.6712L56.6395 18.3073L55.8957 18.2887L55.9048 17.9288L56.6485 17.9474L56.6557 17.6595L56.0559 17.6445L56.0647 17.2926L56.6646 17.3076L56.6718 17.0197L56.1559 17.0068L56.1646 16.6589L56.6805 16.6718L56.6898 16.3C57.0011 16.1717 57.2478 16.0659 57.426 15.9823L55.6585 15.938L55.6676 15.5781ZM58.3893 16.5026L58.6963 16.7023C58.5962 16.8679 58.4967 17.0054 58.3939 17.1149C58.3117 17.2009 58.2095 17.2903 58.0831 17.3832C58.1704 17.8935 58.3512 18.3422 58.6295 18.7333L58.3548 18.9945C57.8724 18.2862 57.6415 17.4402 57.6663 16.4525L58.0142 16.4612C58.0095 16.6491 58.0129 16.8333 58.0324 17.0098C58.0694 16.9707 58.1064 16.9316 58.1435 16.8885C58.2262 16.7826 58.3095 16.6526 58.3893 16.5026ZM55.0519 16.515L56.0036 16.5388L55.9954 16.8667C55.9252 17.7533 55.6399 18.4383 55.1476 18.9222L54.9111 18.6201C55.3218 18.1983 55.5723 17.6244 55.6587 16.8903L55.0429 16.8749L55.0519 16.515Z" fill="white"/>
<path d="M59.376 16.8166L59.6896 15.648L60.0698 15.7113L59.8633 16.4517L60.4552 16.4505C60.5307 16.1543 60.59 15.8422 60.6374 15.5141L61.0255 15.5613C60.9781 15.8774 60.9187 16.1735 60.8512 16.4497L62.6832 16.446L62.684 16.81L60.756 16.8139C60.7162 16.946 60.6725 17.07 60.6327 17.1901L62.2327 17.1869L62.2334 17.5069C62.13 17.8351 61.9346 18.1315 61.6392 18.3961C61.9435 18.5635 62.3118 18.7188 62.7401 18.8619L62.5448 19.2223C62.0605 19.0473 61.6521 18.8521 61.3237 18.6447C61.0081 18.8654 60.6205 19.0662 60.1609 19.2471L59.9601 18.8875C60.3598 18.7427 60.7035 18.582 60.9872 18.4094C60.7268 18.2019 60.5303 17.9783 60.4018 17.7426C60.115 18.3352 59.752 18.8079 59.3167 19.1608L59.12 18.8092C59.671 18.3201 60.0817 17.6552 60.352 16.8147L59.376 16.8166ZM60.6774 17.534C60.8099 17.7698 61.0183 17.9894 61.3027 18.1888C61.5543 17.9843 61.7379 17.7639 61.8494 17.5317L60.6774 17.534ZM61.6974 15.516C61.9738 15.7234 62.2062 15.935 62.3946 16.1466L62.1232 16.4191C61.9628 16.2115 61.7383 15.9959 61.4419 15.7685L61.6974 15.516Z" fill="white"/>
<path d="M64.0263 16.9634L64.5774 16.9326L64.5596 16.6131L63.8926 16.6503L63.9096 16.9539C63.923 17.1935 63.9199 17.426 63.908 17.643L64.6149 17.6035L64.5962 17.2681L64.045 17.2988L64.0263 16.9634ZM63.8793 17.9892C63.8277 18.4287 63.726 18.831 63.5739 19.1921L63.251 18.9337C63.4745 18.4164 63.5664 17.7663 63.5262 16.9753L63.4512 15.6334L66.5065 15.4627L66.5645 16.5011L66.0093 16.5321L66.0272 16.8516L66.6262 16.8181L66.645 17.1536L66.0459 17.1871L66.0646 17.5226L66.7995 17.4815L66.8187 17.825L66.4193 17.8473L66.6637 18.062C66.5483 18.2207 66.4195 18.3521 66.281 18.4559C66.4912 18.5604 66.7275 18.6313 66.994 18.6685L66.8344 19.038C66.105 18.8904 65.5713 18.5156 65.2292 17.9138L64.7339 17.9414L64.7763 18.7002C65.0126 18.6269 65.2205 18.5472 65.396 18.4613L65.4873 18.8048C65.17 18.9346 64.792 19.0519 64.3531 19.1566L64.2308 18.8309C64.3479 18.7763 64.4031 18.689 64.396 18.5612L64.3625 17.9622L63.8793 17.9892ZM65.6126 17.8923C65.7167 18.0348 65.8356 18.1563 65.9697 18.261C66.1163 18.1607 66.249 18.0251 66.3674 17.8502L65.6126 17.8923ZM65.6419 16.5526L64.923 16.5928L64.9409 16.9123L65.6597 16.8721L65.6419 16.5526ZM64.9783 17.5832L65.6972 17.5431L65.6785 17.2076L64.9596 17.2478L64.9783 17.5832ZM66.1425 15.8316L63.854 15.9594L63.8737 16.3109L66.1621 16.183L66.1425 15.8316Z" fill="white"/>
<path d="M68.2855 15.8134L68.5974 18.5799L68.2357 18.6207L68.2124 18.414L67.5844 18.4848L67.6207 18.8068L67.2589 18.8475L66.934 15.9658L67.3116 15.9232C67.359 15.7005 67.39 15.4756 67.3958 15.2415L67.7792 15.2506C67.7641 15.4737 67.7274 15.6831 67.6733 15.8824L68.2855 15.8134ZM67.5449 18.135L68.1729 18.0642L68.0846 17.2812L67.4566 17.352L67.5449 18.135ZM67.4185 17.0141L68.0466 16.9433L67.9641 16.2119L67.3361 16.2827L67.4185 17.0141ZM69.1085 16.6867C69.4076 16.9831 69.6421 17.2424 69.809 17.4732L69.5347 17.7175C69.354 17.4721 69.1146 17.2053 68.8239 16.912L69.1085 16.6867ZM70.3369 15.5861C70.4915 16.9575 70.5671 17.8063 70.5632 18.1288C70.5557 18.4195 70.3811 18.5841 70.0432 18.6222C69.9637 18.6311 69.8197 18.6393 69.6197 18.6498L69.4892 18.3143C69.665 18.3025 69.817 18.2934 69.9442 18.2791C70.1032 18.2612 70.1852 18.1674 70.1902 17.9978C70.1916 17.7963 70.1283 17.1272 70.0085 15.9935L69.0108 16.106C68.9264 16.357 68.8239 16.59 68.6952 16.8058L68.4351 16.5332C68.6544 16.122 68.7848 15.6364 68.8183 15.0771L69.1973 15.0827C69.1827 15.3097 69.1503 15.5227 69.1087 15.7246L70.3369 15.5861Z" fill="white"/>
<path d="M72.6619 15.3788L72.6946 15.5639C72.7099 15.6506 72.7616 15.6902 72.8483 15.6748L73.8054 15.5054C73.8763 15.4929 73.928 15.4634 73.9611 15.421C73.9928 15.3707 73.9967 15.2319 73.9727 15.0046L74.3388 15.0536C74.3666 15.3939 74.343 15.6053 74.2715 15.6829C74.2039 15.7599 74.0913 15.8123 73.9337 15.8402L72.7954 16.0417C72.5433 16.0863 72.3936 15.9746 72.3462 15.7068L72.1559 14.6315L72.5183 14.5674L72.604 15.0519C73.0442 14.8765 73.4616 14.6645 73.8524 14.4166L74.1095 14.6758C73.608 14.9636 73.1257 15.1992 72.6619 15.3788ZM71.8094 18.3894L71.3998 18.4619L71.2537 18.1181C71.3825 18.1115 71.506 18.0978 71.6202 18.0776C71.7147 18.0609 71.7569 18.0006 71.7395 17.9021L71.591 17.0632C71.4432 17.1462 71.2901 17.222 71.1369 17.2979L70.9801 16.9397C71.1662 16.8662 71.3462 16.7815 71.5248 16.689L71.3798 15.8697L70.8796 15.9582L70.8161 15.5998L71.3164 15.5113L71.1909 14.8023L71.5493 14.7389L71.6748 15.4478L72.0805 15.3761L72.1439 15.7345L71.7382 15.8063L71.8609 16.4995C72.0001 16.4139 72.1386 16.3244 72.2679 16.2284L72.3355 16.6105C72.2009 16.6993 72.0663 16.7881 71.9264 16.8698L72.1146 17.9332C72.1606 18.1932 72.0576 18.3455 71.8094 18.3894ZM74.3597 16.0207L74.695 17.9153L74.3208 17.9815L74.2901 17.8082L73.1676 18.0069L73.1982 18.1802L72.828 18.2457L72.4927 16.3511L74.3597 16.0207ZM73.109 17.676L74.2316 17.4774L74.166 17.1071L73.0435 17.3058L73.109 17.676ZM72.9849 16.9749L74.1075 16.7762L74.0434 16.4139L72.9208 16.6125L72.9849 16.9749Z" fill="white"/>
<path d="M75.0278 16.3169L77.3699 15.7407L77.3212 15.5426L77.6941 15.4509L77.7428 15.6489L78.5818 15.4425L78.6697 15.7999L77.8307 16.0063L78.0152 16.7559C78.0754 17.0006 77.97 17.1584 77.7059 17.2234L77.2165 17.3438L77.0421 17.0036C77.2013 16.9809 77.3547 16.9514 77.4946 16.917C77.5955 16.8921 77.6394 16.836 77.6203 16.7583L77.4579 16.098L75.1157 16.6742L75.0278 16.3169ZM77.5206 13.5904L77.7633 14.577L75.5455 15.1226L75.5942 15.3207C75.62 15.4256 75.6878 15.4666 75.8004 15.4389L77.8318 14.9391C77.893 14.92 77.93 14.8861 77.9438 14.8416C77.9555 14.8057 77.952 14.7077 77.9293 14.5485L78.3066 14.5752C78.3273 14.7596 78.3307 14.8906 78.3226 14.9749C78.3027 15.1116 78.2053 15.2015 78.0324 15.2523L75.7408 15.8161C75.4767 15.881 75.315 15.7931 75.2567 15.5562L74.9299 14.2278L77.5206 13.5904ZM75.4633 14.7886L77.3122 14.3337L77.2338 14.0152L75.3849 14.4701L75.4633 14.7886ZM76.0982 16.482C76.3994 16.6179 76.6618 16.7635 76.8853 16.9186L76.6735 17.2631C76.4791 17.1091 76.2187 16.9549 75.8971 16.8033L76.0982 16.482Z" fill="white"/>
<path d="M79.1711 13.545L78.5762 13.7334L78.4796 13.4283L79.738 13.0298C79.687 12.9747 79.6372 12.9233 79.5898 12.8796L79.9632 12.6942C80.0167 12.757 80.0763 12.8262 80.1346 12.9042L81.454 12.4864L81.5507 12.7915L80.9443 12.9835L80.9062 13.2473L81.8023 12.9635L81.9014 13.2762L78.5685 14.3317L78.4695 14.019L79.3351 13.7448L79.1711 13.545ZM79.7126 13.6253L80.5287 13.3668L80.5668 13.103L79.5486 13.4255L79.7126 13.6253ZM79.0158 14.3662L81.5555 13.5619L81.9323 14.7517L79.3926 15.556L79.0158 14.3662ZM81.4907 14.5895L81.4303 14.3988L79.5999 14.9785L79.6603 15.1691L81.4907 14.5895ZM79.5178 14.7191L81.3482 14.1395L81.289 13.9526L79.4586 14.5323L79.5178 14.7191ZM79.2948 15.7506L79.6685 15.712C79.6762 16.041 79.6363 16.3389 79.55 16.6096L79.1757 16.5142C79.2631 16.2599 79.301 16.0088 79.2948 15.7506ZM81.5296 16.0373L80.5991 16.3319C80.3055 16.4249 80.1183 16.3373 80.0362 16.078L79.8816 15.5899L80.2477 15.474L80.3782 15.8858C80.4083 15.9812 80.4812 16.0126 80.5995 15.9752L81.3583 15.7349C81.427 15.7131 81.4717 15.6822 81.4899 15.647C81.5172 15.6006 81.5125 15.493 81.4746 15.3204L81.8528 15.3223C81.9069 15.5989 81.9054 15.7798 81.8384 15.8598C81.7805 15.9285 81.6783 15.9902 81.5296 16.0373ZM80.7588 15.1401C80.9596 15.2444 81.1163 15.3416 81.2338 15.4344L80.999 15.7396C80.8714 15.6415 80.7085 15.5379 80.5115 15.4324L80.7588 15.1401ZM81.9739 14.8434C82.2621 15.0249 82.4911 15.1915 82.6597 15.3395L82.4248 15.6447C82.2414 15.4762 82.0138 15.3007 81.7382 15.1194L81.9739 14.8434Z" fill="white"/>
<path d="M84.7464 11.1575L85.5592 13.2406L85.2015 13.3801L84.5239 11.6437L82.9663 12.2515L83.6453 13.9917L83.2876 14.1313L82.4733 12.0445L84.7464 11.1575ZM83.6267 12.2385L83.977 12.1018L84.2489 12.7986C84.32 13.0028 84.3689 13.1941 84.3985 13.38L84.7152 13.2564L85.0584 14.1359C85.1122 14.2737 85.1883 14.3256 85.2852 14.2878L85.8292 14.0755C85.8739 14.0581 85.9114 14.022 85.9355 13.9739C85.962 13.9207 85.9307 13.7525 85.838 13.471L86.2208 13.4504C86.3208 13.8279 86.3515 14.0606 86.3143 14.1524C86.2631 14.2411 86.1756 14.3139 86.0518 14.3708L85.3177 14.6573C85.0494 14.762 84.8527 14.6541 84.7291 14.3373L84.4179 13.5399C84.4431 13.8135 84.4239 14.0614 84.3596 14.2926C84.2358 14.7016 83.9301 15.0957 83.4455 15.4823L83.1391 15.2583C83.6238 14.8717 83.9143 14.505 84.0071 14.1596C84.0904 13.8008 84.0522 13.3949 83.8986 12.9353L83.6267 12.2385Z" fill="white"/>
<path d="M85.8325 10.515L87.3683 11.8626L87.4012 13.9057L87.0503 13.9093L87.0198 12.0239L85.6025 10.78L85.8325 10.515ZM86.4533 10.2278L87.9891 11.5754L88.022 13.6185L87.6711 13.6221L87.6406 11.7367L86.2088 10.4995L86.4533 10.2278Z" fill="white"/>
</svg>
