<svg width="95" height="24" viewBox="0 0 95 24" fill="none" xmlns="http://www.w3.org/2000/svg">
<path d="M4.31204 1.539L4.58414 1.78312L3.29262 3.16607L3.46362 5.044L3.11434 5.07782L2.92889 3.04297L4.31204 1.539ZM4.95994 1.75828L5.21688 1.99727L3.94052 3.38535L4.11152 5.26328L3.76224 5.2971L3.57679 3.26225L4.95994 1.75828Z" fill="white"/>
<path d="M6.66343 2.39012C6.74186 2.62876 6.80999 2.88501 6.86403 3.15755L6.58914 3.19386L7.37183 3.464C7.58234 3.29546 7.79208 3.0801 7.99974 2.82171L8.31876 3.03761C8.14944 3.25845 7.96658 3.445 7.77641 3.60364L8.49483 3.85159L8.37476 4.19946L7.14212 3.77402L7.10166 3.89123C7.03146 4.07012 6.95513 4.22996 6.87516 4.37585L8.38004 4.89525L8.25998 5.24312L6.93659 4.78636C6.96395 5.30782 7.31262 5.83015 7.98127 6.35714L7.65207 6.62436C6.97027 6.02513 6.61616 5.42051 6.58086 4.81168C6.45146 4.9659 6.31347 5.096 6.16818 5.19819C5.79361 5.44975 5.28386 5.56579 4.63892 5.54631L4.55062 5.16461C5.19816 5.17653 5.67362 5.07404 5.98076 4.85846C6.09045 4.7736 6.19271 4.67348 6.28623 4.56189L4.99309 4.11557L5.11315 3.76771L6.50461 4.24796C6.58967 4.09959 6.66977 3.94105 6.73867 3.76595L6.77913 3.64873L5.5427 3.22199L5.66276 2.87413L6.47192 3.1534C6.42284 2.89103 6.35706 2.65252 6.27966 2.43539L6.66343 2.39012Z" fill="white"/>
<path d="M9.72253 3.57061L12.5825 4.56541L12.4602 4.91676L11.2551 4.49755L10.9344 5.41938L12.4041 5.93057L12.2792 6.28948L10.8096 5.77828L10.3615 7.06657C10.2695 7.33103 10.0824 7.41842 9.8066 7.32249L9.2059 7.11354L9.25124 6.73968C9.43997 6.81804 9.62246 6.88999 9.79625 6.95044C9.91715 6.99249 9.99731 6.95684 10.0341 6.85106L10.4507 5.65344L8.91682 5.11991L9.04166 4.761L10.5755 5.29454L10.8962 4.37271L9.60032 3.92197L9.72253 3.57061Z" fill="white"/>
<path d="M13.7087 4.86064C13.8898 5.14376 14.0331 5.41375 14.1387 5.67061L13.7925 5.83828C13.7108 5.59817 13.5725 5.32571 13.3766 5.01204L13.7087 4.86064ZM14.6938 8.997C14.4898 8.92612 14.2681 8.84489 14.0314 8.75842C13.7909 8.67063 13.6023 8.5797 13.4605 8.48809C13.3251 8.39024 13.2282 8.25493 13.1594 8.08708C13.1326 8.00578 13.0978 7.9598 13.0524 7.94405C12.9769 7.91779 12.7818 8.04057 12.4709 8.31369L12.2918 7.9762C12.587 7.73577 12.824 7.60214 13.0014 7.57908L13.3729 6.50977L12.8628 6.33256L12.9783 6.00005L13.8247 6.29409L13.3272 7.72614C13.337 7.7465 13.3507 7.76818 13.3617 7.79741C13.4094 7.92831 13.4738 8.03538 13.5512 8.11732C13.6424 8.20829 13.7931 8.29874 14.0096 8.38243C14.2199 8.45972 14.4679 8.55014 14.7589 8.65121C14.9403 8.71422 15.1305 8.77608 15.3245 8.83924C15.5147 8.9011 15.6647 8.94474 15.7694 8.97262L15.5591 9.29761L14.6938 8.997ZM14.3826 5.6876L14.7982 5.832L14.9965 5.26145L15.3403 5.3809L15.1421 5.95145L15.656 6.12997L15.8529 5.5632L16.2005 5.68397L16.0036 6.25074L16.4532 6.40695L16.3364 6.74323L15.8867 6.58703L15.6544 7.25582L16.225 7.45403L16.1068 7.79409L15.5363 7.59588L15.1792 8.62362L14.8316 8.50286L15.1886 7.47511L14.5879 7.2664C14.3311 7.66417 14.0306 7.9197 13.6775 8.03416L13.5619 7.67217C13.826 7.59454 14.0521 7.41903 14.2402 7.14563L13.7831 6.9868L13.9012 6.64673L14.4264 6.8292C14.4861 6.70598 14.5396 6.57636 14.5882 6.43655L14.6814 6.16828L14.2658 6.02389L14.3826 5.6876ZM15.0253 6.28773L14.9609 6.47288C14.9006 6.64669 14.8341 6.80145 14.7665 6.94734L15.3068 7.13505L15.5391 6.46626L15.0253 6.28773Z" fill="white"/>
<path d="M16.3946 7.47121L19.8171 8.65058L19.6946 9.00606L16.2721 7.8267L16.3946 7.47121Z" fill="white"/>
<path d="M22.4312 7.81716L22.7949 7.94055L22.6496 8.36858L23.7746 8.75032L23.6577 9.09502L22.5327 8.71328L22.3861 9.1451L23.8861 9.65408L23.7679 10.0026L22.2944 9.50258L21.9178 10.6124L21.5579 10.4903L21.9345 9.38047L20.3815 8.8535L20.4998 8.50501L21.0376 8.68753L21.3461 7.77844L21.7098 7.90183L21.4013 8.81092L22.0225 9.02171L22.4312 7.81716ZM23.0822 10.0191L23.3488 10.3039C22.5168 11.1874 21.4177 11.4016 20.0528 10.9427L20.0372 10.553C21.3478 10.9977 22.3632 10.8185 23.0822 10.0191ZM21.2192 9.2729L21.3971 9.5825C21.0579 9.86022 20.6811 10.0745 20.2679 10.2215L20.1396 9.85275C20.5325 9.71572 20.894 9.52161 21.2192 9.2729Z" fill="white"/>
<path d="M25.896 10.9264L25.7561 11.3478L26.3445 11.5432L26.4844 11.1218L25.896 10.9264ZM25.6452 11.6819L25.4889 12.1526L26.0773 12.348L26.2336 11.8772L25.6452 11.6819ZM25.3742 12.4981L25.3175 12.6689L24.9606 12.5504L25.6589 10.4473C25.5464 10.5322 25.4276 10.6107 25.305 10.688L25.3096 10.2681C25.7431 9.96526 26.1006 9.59928 26.3809 9.16129L26.7075 9.34558C26.5913 9.51774 26.4663 9.67853 26.3324 9.82795L26.9132 10.0208C26.9129 9.81841 26.9051 9.6135 26.8872 9.41367L27.2629 9.43726C27.2695 9.69656 27.2685 9.92804 27.251 10.133L27.8319 10.3258L27.7172 10.6713L27.0984 10.4658L26.9534 10.9024L27.4963 11.0826L27.3841 11.4205L26.8413 11.2403L26.7014 11.6616L27.2442 11.8419L27.1333 12.1759L26.5904 11.9957L26.4342 12.4664L27.0947 12.6858L26.98 13.0312L25.3742 12.4981ZM26.7415 10.3473L26.1531 10.152L26.0082 10.5885L26.5966 10.7839L26.7415 10.3473ZM25.3048 10.4983L25.1825 10.8665C25.0598 10.8806 24.9346 10.8896 24.8132 10.8999L24.4704 11.9324C24.3885 12.1792 24.2178 12.2616 23.9634 12.1772L23.6218 12.0637L23.658 11.688C23.7555 11.7372 23.8517 11.7776 23.9466 11.8091C24.0453 11.8419 24.1097 11.8127 24.14 11.7216L24.4072 10.9168C24.2465 10.9183 24.0834 10.9146 23.9253 10.9085L23.9551 10.5138C24.1462 10.5351 24.3359 10.5475 24.5282 10.5524L24.7929 9.75515L24.3373 9.6039L24.4533 9.25465L24.9088 9.4059L25.1307 8.73776L25.4913 8.8575L25.2695 9.52563L25.6225 9.64285L25.5066 9.99211L25.1535 9.87489L24.9329 10.5392C25.0582 10.5302 25.1808 10.5162 25.3048 10.4983Z" fill="white"/>
<path d="M28.5421 10.1294L29.9583 10.5861L29.8466 10.9325L28.4304 10.4758L28.5421 10.1294ZM28.0698 11.1119L29.7639 11.6581L29.651 12.0084L28.7944 11.7322C28.4892 12.2095 28.2484 12.5522 28.0709 12.7639C28.3393 12.7916 28.6189 12.7977 28.9047 12.7848C28.8773 12.57 28.8462 12.3667 28.8114 12.1747L29.1638 12.1245C29.2358 12.5007 29.2892 12.9088 29.3251 13.3449L28.9614 13.4041L28.9409 13.1285C28.497 13.1367 28.0312 13.1084 27.5398 13.0423L27.5627 12.6715C27.6032 12.6761 27.6297 12.6721 27.6487 12.6656C27.7993 12.5502 28.0628 12.2023 28.4442 11.6192L27.9569 11.4621L28.0698 11.1119ZM30.6856 10.5726L31.0434 10.688L30.8053 11.4265L31.6276 11.6917C31.2274 12.9328 30.9616 13.6918 30.834 13.9701C30.6988 14.2459 30.458 14.328 30.1116 14.2163C30.0507 14.1967 29.9465 14.1547 29.7967 14.0979L29.8161 13.7512C29.9495 13.8068 30.065 13.8524 30.164 13.8844C30.3315 13.9384 30.4561 13.8777 30.5455 13.7048C30.6261 13.5332 30.8302 12.9392 31.1644 11.929L30.6923 11.7768L30.6813 11.811C30.3163 12.9038 29.7958 13.6185 29.1148 13.9579L28.9218 13.6309C29.5273 13.3302 29.9954 12.6868 30.3234 11.6957L30.3345 11.6614L29.851 11.5055L29.9639 11.1552L30.4474 11.3112L30.6856 10.5726Z" fill="white"/>
<path d="M33.5201 13.3723L33.4051 13.7429C33.1774 13.7476 32.9407 13.7411 32.6925 13.731L32.4446 14.5294C32.3687 14.7739 32.1996 14.8596 31.9437 14.7801L31.5159 14.6473L31.5436 14.2747C31.6725 14.3315 31.7962 14.3783 31.9185 14.4163C32.014 14.4459 32.0779 14.4155 32.1063 14.3238L32.2997 13.7012C32.0551 13.6797 31.8078 13.6531 31.5515 13.6154L31.6145 13.2371C31.8911 13.2769 32.1575 13.3094 32.4136 13.3344L32.6259 12.6507L31.8695 12.4158L31.9775 12.0682L32.7339 12.303L32.8596 11.8981C32.6567 11.877 32.4524 11.8471 32.2405 11.8147L32.2708 11.4472C32.8234 11.556 33.3315 11.5923 33.7963 11.5523L33.8168 11.9315C33.6347 11.9378 33.4462 11.9379 33.2512 11.9318L33.1006 12.4169L33.9257 12.6731C33.9953 12.3681 34.0859 12.036 34.1974 11.6769L34.5641 11.7908C34.4479 12.1651 34.3573 12.4972 34.2925 12.787L35.4461 13.1453L35.3382 13.4929L34.2151 13.1441C34.1597 13.4034 34.1288 13.6242 34.1225 13.8065C34.1152 13.8838 34.1141 13.9547 34.1143 14.0217C34.3402 13.8741 34.5554 13.6938 34.7559 13.4796L35.0181 13.7412C34.7371 14.0392 34.4409 14.2781 34.1258 14.4567C34.1396 14.5741 34.1543 14.675 34.1788 14.758C34.24 14.9655 34.3006 15.0806 34.3617 15.0996C34.4114 15.115 34.5227 14.9318 34.6958 14.5499L34.9645 14.8177C34.7005 15.3305 34.4738 15.5616 34.2904 15.5047C34.1261 15.4537 33.9898 15.2857 33.8803 15.0045C33.8362 14.8903 33.8032 14.767 33.7839 14.627C33.4515 14.7667 33.1028 14.8511 32.7351 14.8751L32.6299 14.499C33.0294 14.4806 33.4007 14.3907 33.7441 14.2293C33.7374 14.089 33.7395 13.9472 33.7478 13.799C33.7584 13.5761 33.7923 13.3186 33.8483 13.0303L32.9926 12.7645L32.8064 13.3643C33.0546 13.3743 33.2925 13.377 33.5201 13.3723ZM34.9737 11.9556C35.1915 12.2118 35.3673 12.4549 35.5049 12.6861L35.1607 12.864C35.0524 12.6461 34.8866 12.3977 34.6568 12.1127L34.9737 11.9556Z" fill="white"/>
<path d="M37.5724 12.6854L37.9291 12.791L37.6395 13.769L37.2828 13.6634L37.5724 12.6854ZM36.1939 14.1712C36.0149 14.1558 35.836 14.1403 35.6581 14.1211L35.6062 13.7469C36.819 13.9057 37.7951 13.8776 38.5307 13.6615C38.4337 13.5243 38.3289 13.3849 38.2165 13.2431L38.5313 13.0818C38.8419 13.47 39.0949 13.8411 39.284 14.189L38.9547 14.3711C38.8906 14.2353 38.815 14.0961 38.7241 13.9524C38.3135 14.0853 37.8479 14.1644 37.3223 14.1924L38.6801 14.5943L38.0636 16.677L37.7069 16.5714L37.75 16.4256L36.0586 15.9249L36.0132 16.0784L35.6603 15.9739L36.1939 14.1712ZM36.154 15.6027L37.8454 16.1034L37.9215 15.8465L36.23 15.3458L36.154 15.6027ZM36.3163 15.0543L38.0078 15.555L38.077 15.321L36.3856 14.8203L36.3163 15.0543ZM36.4707 14.5326L38.1622 15.0333L38.2337 14.7917L36.5422 14.291L36.4707 14.5326ZM36.9055 12.7257L37.0955 13.0281C36.7863 13.2411 36.4336 13.4037 36.0386 13.512L35.9083 13.1773C36.2818 13.0709 36.6135 12.923 36.9055 12.7257Z" fill="white"/>
<path d="M39.6079 13.9671L41.1607 14.3998C41.1121 14.1869 41.0371 13.9792 40.9368 13.7727L41.3404 13.7398C41.4276 13.9634 41.4974 14.2195 41.546 14.5071L43.0064 14.914L42.9055 15.2762L42.316 15.1119C41.9678 15.6461 41.5579 16.0592 41.0851 16.3552C41.3946 16.7944 41.8193 17.2075 42.3526 17.5886L42.0625 17.84C41.5066 17.436 41.0707 17.0031 40.7589 16.5425C40.2161 16.8066 39.6011 16.9425 38.9138 16.9503L38.8074 16.5719C39.4767 16.584 40.0601 16.4724 40.5662 16.2356C40.2604 15.6936 40.1033 15.11 40.0965 14.4936L39.5069 14.3293L39.6079 13.9671ZM40.4471 14.5913C40.4769 15.1103 40.623 15.5995 40.8903 16.056C41.298 15.8 41.649 15.4493 41.9383 15.0067L40.4471 14.5913Z" fill="white"/>
<path d="M44.6657 14.6461L44.9687 14.8975C44.7553 15.1813 44.5072 15.4397 44.2253 15.6687L43.5692 18.2217L43.205 18.1282L43.7506 16.0051C43.55 16.127 43.3387 16.2421 43.1178 16.3464L43.1001 15.933C43.7396 15.6141 44.2624 15.1868 44.6657 14.6461ZM45.5939 18.6677L44.8695 18.4816C44.5595 18.4019 44.4444 18.2071 44.524 17.8972L44.8028 16.8124C44.6444 16.8502 44.4822 16.887 44.317 16.9189L44.24 16.5274C44.4731 16.4882 44.6995 16.4431 44.9133 16.3824L45.3006 14.8754L45.6687 14.97L45.3401 16.2484C45.7845 16.0942 46.1952 15.8941 46.5645 15.6462L46.7455 16.0025C46.2799 16.2876 45.7739 16.521 45.2256 16.6939L44.905 17.9414C44.8771 18.0499 44.9213 18.1191 45.0453 18.1509L45.6225 18.2993C45.7116 18.3222 45.7855 18.3081 45.843 18.2609C45.8967 18.2128 45.9766 18.0144 46.0759 17.66L46.388 17.86C46.2463 18.2985 46.1263 18.5568 46.0327 18.6318C45.9352 18.7059 45.7876 18.7175 45.5939 18.6677Z" fill="white"/>
<path d="M49.2475 15.7613C49.2734 15.8986 49.2917 16.0506 49.3104 16.2191L50.6631 16.5303L50.5824 16.8811L49.9275 16.7305C49.8481 16.8969 49.7541 17.0559 49.6462 17.2034L50.5467 17.4106L50.4642 17.7693L47.6965 17.1324L47.5754 17.6586C47.4199 18.2632 47.1704 18.7229 46.8201 19.0323L46.593 18.7173C46.8717 18.4695 47.0741 18.0892 47.2012 17.5725L47.4048 16.6877L48.1922 16.8689L48.1733 16.3268L47.4794 16.1671L47.5602 15.8163L48.9323 16.1321C48.9112 15.9918 48.8806 15.8575 48.8433 15.734L49.2475 15.7613ZM48.5587 16.9532L49.2915 17.1218C49.3993 16.9742 49.4934 16.8153 49.5727 16.6488L48.5358 16.4102L48.5587 16.9532Z" fill="white"/>
<path d="M52.4367 16.5368L52.8096 16.61L52.2036 19.6951L52.6747 19.7876L53.2806 16.7025L53.6535 16.7758L53.0475 19.8608L54.1936 20.0859L54.1219 20.451L50.6208 19.7633L50.6925 19.3983L51.8308 19.6218L52.4367 16.5368ZM54.2441 17.65L54.5553 17.8089C54.2735 18.4548 53.9655 19.0057 53.6306 19.4658L53.3201 19.2825C53.6293 18.8704 53.9404 18.3241 54.2441 17.65ZM51.553 17.1133C51.6499 17.6786 51.7086 18.3138 51.733 19.0197L51.3746 19.039C51.3621 18.3966 51.3066 17.766 51.2151 17.1529L51.553 17.1133Z" fill="white"/>
<path d="M58.3748 18.1002L57.9089 21.1326L57.5452 21.0767L57.5835 20.8276L56.9588 20.7317L56.9205 20.9807L56.5608 20.9255L57.0267 17.893L58.3748 18.1002ZM57.0141 20.3719L57.6387 20.4679L57.9558 18.4041L57.3312 18.3081L57.0141 20.3719ZM55.6398 17.1215L56.0114 17.1786L55.8935 17.9456L56.6882 18.0677C56.4902 19.3565 56.3483 20.1482 56.262 20.4465C56.1763 20.7409 55.9556 20.8608 55.6076 20.8073C55.5444 20.7976 55.4428 20.7739 55.3023 20.7402L55.2603 20.3817C55.3929 20.4142 55.5063 20.4397 55.6012 20.4543C55.7672 20.4798 55.8806 20.4001 55.9363 20.2225C55.9885 20.0403 56.0952 19.4254 56.2647 18.3749L55.8377 18.3093C55.6372 19.4562 55.2508 20.2588 54.674 20.7206L54.4315 20.4283C54.9433 20.0213 55.2898 19.2935 55.466 18.2522L54.8651 18.1599L54.921 17.7961L55.5219 17.8885L55.6398 17.1215Z" fill="white"/>
<path d="M60.3999 18.3358L61.0773 18.3944L61.1266 17.8246L61.4933 17.8563L61.444 18.4262L62.2928 18.4996L62.1893 19.6951L62.4603 19.7186L62.4283 20.0892L61.424 20.0023C61.62 20.5211 61.9515 20.9594 62.4267 21.3136L62.1458 21.5905C61.6747 21.1883 61.3347 20.7093 61.1335 20.1579C60.8945 20.7394 60.5095 21.1518 59.9739 21.4025L59.7697 21.0717C60.2696 20.862 60.6232 20.4871 60.8302 19.9509L60.1049 19.8882L60.137 19.5176L60.938 19.5869C60.9764 19.4216 61.0035 19.2473 61.0194 19.0639L61.0466 18.7491L60.3692 18.6905L60.3999 18.3358ZM61.4133 18.7808L61.3933 19.012C61.3747 19.2272 61.3411 19.429 61.3007 19.6183L61.8227 19.6634L61.8955 18.8226L61.4133 18.7808ZM59.0592 18.4246L59.3484 18.4697C59.306 18.8675 59.229 19.2463 59.1223 19.5984L58.823 19.4842C58.936 19.1527 59.0149 18.7981 59.0592 18.4246ZM60.1438 18.4181C60.2294 18.6824 60.2995 18.9856 60.3545 19.3236L60.0411 19.3728C60.0032 19.0684 59.9404 18.7738 59.8569 18.4856L60.1438 18.4181ZM59.5442 17.6917L59.9148 17.7237L59.599 21.3741L59.2283 21.342L59.5442 17.6917Z" fill="white"/>
<path d="M63.09 19.2464L63.4149 18.0808L63.7944 18.1477L63.5808 18.8861L64.1727 18.8906C64.251 18.5952 64.3134 18.2837 64.3639 17.9561L64.7515 18.0071C64.7011 18.3227 64.6388 18.6182 64.5687 18.8937L66.4007 18.9077L66.3979 19.2717L64.4699 19.2569C64.4289 19.3886 64.384 19.5123 64.3431 19.632L65.943 19.6442L65.9406 19.9642C65.8341 20.2914 65.6358 20.5859 65.3378 20.8476C65.6405 21.018 66.0073 21.1768 66.4342 21.324L66.2354 21.6825C65.7528 21.5028 65.3463 21.3037 65.0199 21.0932C64.7022 21.3108 64.3127 21.5078 63.8513 21.6843L63.6541 21.3227C64.0552 21.1818 64.4004 21.0245 64.6857 20.8546C64.4273 20.6446 64.233 20.4192 64.1068 20.1822C63.8143 20.772 63.4467 21.2411 63.008 21.5898L62.8147 21.2363C63.3705 20.7525 63.7875 20.0917 64.066 19.2538L63.09 19.2464ZM64.3844 19.9763C64.5146 20.2133 64.7209 20.4349 65.0034 20.6371C65.2569 20.435 65.4426 20.2164 65.5564 19.9853L64.3844 19.9763ZM65.4239 17.9682C65.6983 18.1783 65.9286 18.3921 66.115 18.6055L65.8409 18.8754C65.6825 18.6662 65.4602 18.4485 65.1659 18.2182L65.4239 17.9682Z" fill="white"/>
<path d="M67.5708 19.4194L68.1216 19.383L68.1005 19.0637L67.4339 19.1078L67.454 19.4111C67.4698 19.6506 67.4692 19.8831 67.4595 20.1003L68.166 20.0535L68.1438 19.7182L67.593 19.7547L67.5708 19.4194ZM67.4343 20.4467C67.3873 20.8867 67.2897 21.2901 67.1413 21.6527L66.8158 21.3976C67.0339 20.8781 67.1191 20.227 67.0708 19.4365L66.9821 18.0954L70.0354 17.8934L70.1041 18.9311L69.5493 18.9678L69.5704 19.2871L70.1691 19.2475L70.1913 19.5828L69.5926 19.6224L69.6148 19.9576L70.3492 19.909L70.3719 20.2523L69.9728 20.2787L70.2193 20.4909C70.1056 20.6507 69.9781 20.7834 69.8408 20.8887C70.052 20.991 70.289 21.0595 70.5559 21.094L70.4 21.4651C69.6692 21.325 69.1316 20.9557 68.7834 20.3574L68.2885 20.3902L68.3386 21.1485C68.5742 21.0728 68.7812 20.9909 68.9558 20.9032L69.0506 21.2457C68.7347 21.3788 68.3579 21.5 67.9201 21.6091L67.7945 21.2847C67.911 21.2289 67.9653 21.1411 67.9569 21.0134L67.9173 20.4147L67.4343 20.4467ZM69.1665 20.3321C69.2721 20.4734 69.3923 20.5937 69.5274 20.697C69.673 20.5952 69.8043 20.4582 69.9209 20.2821L69.1665 20.3321ZM69.1821 18.9921L68.4637 19.0396L68.4848 19.3589L69.2032 19.3114L69.1821 18.9921ZM68.5292 20.0295L69.2476 19.9819L69.2254 19.6467L68.507 19.6942L68.5292 20.0295ZM69.6752 18.266L67.3882 18.4173L67.4115 18.7685L69.6985 18.6172L69.6752 18.266Z" fill="white"/>
<path d="M71.9797 18.1903L72.3491 20.9497L71.9883 20.998L71.9607 20.7919L71.3343 20.8757L71.3773 21.1969L71.0165 21.2452L70.6317 18.3708L71.0083 18.3204C71.051 18.0967 71.0774 17.8713 71.0783 17.6371L71.4618 17.6382C71.4514 17.8615 71.419 18.0717 71.3691 18.2721L71.9797 18.1903ZM71.2876 20.5268L71.914 20.443L71.8094 19.6619L71.183 19.7458L71.2876 20.5268ZM71.1379 19.4088L71.7643 19.325L71.6667 18.5955L71.0403 18.6793L71.1379 19.4088ZM72.8207 19.0463C73.1259 19.3364 73.3658 19.5908 73.5374 19.818L73.2682 20.068C73.0825 19.8265 72.8376 19.5647 72.5409 19.2775L72.8207 19.0463ZM74.026 17.9204C74.2091 19.2882 74.3023 20.1354 74.3051 20.4578C74.3037 20.7486 74.1325 20.9168 73.7955 20.9619C73.7162 20.9725 73.5724 20.9837 73.3726 20.9984L73.2352 20.6656C73.4107 20.6502 73.5624 20.638 73.6893 20.621C73.8479 20.5998 73.9279 20.5043 73.9294 20.3346C73.9267 20.1332 73.8494 19.4655 73.7061 18.3345L72.711 18.4678C72.6318 18.7205 72.5341 18.9555 72.41 19.1739L72.1442 18.9069C72.3549 18.4912 72.4752 18.0029 72.4971 17.4431L72.8761 17.4408C72.8662 17.6681 72.8383 17.8817 72.8009 18.0844L74.026 17.9204Z" fill="white"/>
<path d="M76.6483 19.7083C76.396 20.1078 75.9359 20.4662 75.2721 20.7828L75.0061 20.5044C75.699 20.17 76.1503 19.8296 76.3554 19.48L76.4045 19.3767L74.8811 19.673L74.8124 19.3196L76.5282 18.986C76.5766 18.732 76.5805 18.4583 76.5397 18.1647L76.4465 17.6856L76.8077 17.6154L76.9009 18.0944C76.9456 18.3873 76.9536 18.6587 76.9209 18.9096L78.1538 18.6698L78.2225 19.0232L76.8365 19.2928C76.8229 19.328 76.8094 19.3632 76.7998 19.3977C77.3829 19.5043 77.9304 19.6587 78.4409 19.8528L78.2993 20.2145C77.7483 19.9793 77.1985 19.8132 76.6483 19.7083ZM75.2288 18.4644C75.5297 18.5241 75.8116 18.6119 76.0746 18.7278L75.9395 19.0597C75.6601 18.9225 75.3774 18.8308 75.0984 18.7791L75.2288 18.4644ZM75.5067 17.8399C75.8068 17.8956 76.0888 17.9834 76.3478 18.1001L76.2127 18.432C75.9341 18.2987 75.6546 18.2023 75.3756 18.1506L75.5067 17.8399ZM77.771 16.8902L77.9275 17.6951L77.5663 17.7653L77.4762 17.302L74.9162 17.7999L75.0063 18.2632L74.645 18.3334L74.4885 17.5285L75.9609 17.2422C75.8963 17.1406 75.8333 17.047 75.7679 16.9619L76.1365 16.825C76.205 16.9258 76.2719 17.0391 76.3379 17.1689L77.771 16.8902Z" fill="white"/>
<path d="M78.3929 16.9385L78.956 16.7993C78.8477 16.6448 78.7385 16.5028 78.6253 16.3784L78.9856 16.2192C79.091 16.3621 79.2012 16.5244 79.3132 16.711L79.7714 16.5977L79.8597 16.955L79.1025 17.1422L79.2148 17.5965L79.9022 17.4266C80.1517 18.4362 80.2869 19.0662 80.3144 19.3107C80.3331 19.5533 80.192 19.7159 79.8814 19.7927C79.8503 19.8004 79.794 19.8061 79.7183 19.8165L79.5552 19.5066C79.628 19.501 79.692 19.4934 79.7464 19.48C79.8823 19.4464 79.9475 19.3602 79.9421 19.2215C79.9288 19.0846 79.8282 18.6274 79.6449 17.8528L79.2954 17.9392C79.4843 18.8031 79.4971 19.4716 79.3338 19.9446L78.9986 19.772C79.1414 19.3329 79.1101 18.6896 78.9066 17.8499L78.7531 17.2286L78.4812 17.2957L78.3929 16.9385ZM80.3863 16.6847C80.3272 16.996 80.2431 17.2723 80.1348 17.5174L79.823 17.2896C79.981 16.9456 80.0763 16.4976 80.1137 15.9486L80.4785 15.9409C80.4684 16.067 80.4565 16.1853 80.4445 16.3036L81.7842 15.9724L81.8696 16.318L80.3863 16.6847ZM81.8403 16.7827C82.0236 17.5243 82.1155 17.9796 82.1229 18.1426C82.1263 18.3065 82.0028 18.4236 81.7465 18.487L81.7271 18.4918L81.5571 18.2042C81.6231 18.1878 81.6823 18.1773 81.7328 18.1648C81.7755 18.1543 81.7931 18.1087 81.7826 18.033C81.7741 17.9651 81.7233 17.7263 81.6235 17.3225L81.3543 17.5003L81.6672 18.7662L81.3255 18.8506L81.0423 17.7051L80.7692 17.8839L81.0198 18.8974C81.062 19.0682 81.1423 19.1431 81.2588 19.1143L81.9927 18.9329C82.0743 18.9128 82.1316 18.878 82.1608 18.8295C82.1959 18.7714 82.1934 18.6278 82.1523 18.3949L82.4957 18.4171C82.5433 18.7597 82.534 18.9722 82.4658 19.0632C82.4026 19.1406 82.2937 19.2005 82.1307 19.2408L81.2337 19.4625C80.9696 19.5278 80.7944 19.3857 80.7099 19.044L80.4718 18.081L80.2201 18.2462L80.1376 17.9123L80.3893 17.747L80.2607 17.2267L80.5869 17.1461L80.6867 17.5499L80.9588 17.3673L80.8081 16.7576L81.1498 16.6732L81.2708 17.1624L81.8403 16.7827Z" fill="white"/>
<path d="M82.9316 15.7827L82.3322 15.9563L82.2432 15.6489L83.5111 15.2817C83.4614 15.2253 83.4129 15.1727 83.3666 15.1278L83.7445 14.9518C83.7964 15.0159 83.8544 15.0865 83.9107 15.166L85.2401 14.781L85.3291 15.0884L84.7182 15.2653L84.6735 15.5281L85.5764 15.2666L85.6677 15.5817L82.3096 16.5542L82.2184 16.2391L83.0906 15.9865L82.9316 15.7827ZM83.4709 15.8764L84.2931 15.6382L84.3378 15.3754L83.312 15.6725L83.4709 15.8764ZM82.756 16.5998L85.3148 15.8587L85.662 17.0575L83.1031 17.7985L82.756 16.5998ZM85.2245 16.8843L85.1689 16.6922L83.3247 17.2263L83.3803 17.4184L85.2245 16.8843ZM83.249 16.9651L85.0932 16.431L85.0387 16.2427L83.1945 16.7768L83.249 16.9651ZM83.0005 17.9907L83.3751 17.9613C83.3747 18.2904 83.3274 18.5873 83.2344 18.8558L82.8626 18.7511C82.9562 18.4991 83.0003 18.2489 83.0005 17.9907ZM85.2275 18.3327L84.2901 18.6042C83.9942 18.6898 83.8093 18.5977 83.7336 18.3364L83.5912 17.8446L83.96 17.7378L84.0802 18.1527C84.108 18.2488 84.1801 18.282 84.2992 18.2475L85.0638 18.0261C85.133 18.0061 85.1785 17.9763 85.1976 17.9416C85.226 17.8959 85.2239 17.7882 85.1904 17.6147L85.5684 17.626C85.6156 17.9038 85.6096 18.0846 85.5407 18.1629C85.481 18.2301 85.3774 18.2893 85.2275 18.3327ZM84.4792 17.4167C84.6774 17.5259 84.8316 17.627 84.9468 17.7227L84.7045 18.0219C84.5794 17.9207 84.4191 17.813 84.2247 17.7028L84.4792 17.4167ZM85.7013 17.1502C85.985 17.3387 86.2097 17.511 86.3746 17.6632L86.1323 17.9624C85.9531 17.7894 85.7299 17.6083 85.4589 17.4203L85.7013 17.1502Z" fill="white"/>
<path d="M88.6948 13.5981L89.3843 15.7252L89.019 15.8436L88.4442 14.0704L86.8537 14.5859L87.4297 16.3629L87.0644 16.4813L86.3737 14.3505L88.6948 13.5981ZM87.5138 14.6117L87.8715 14.4957L88.1021 15.2073C88.1611 15.4152 88.1987 15.6091 88.2174 15.7965L88.5408 15.6916L88.8319 16.5896C88.8775 16.7304 88.9504 16.7867 89.0493 16.7546L89.6049 16.5746C89.6505 16.5598 89.69 16.5259 89.717 16.4794C89.7465 16.4277 89.7252 16.2581 89.6491 15.9715L90.0324 15.9735C90.1102 16.3561 90.1272 16.5903 90.0847 16.6797C90.0283 16.7653 89.9367 16.8328 89.8098 16.8824L89.0602 17.1253C88.7862 17.2141 88.5962 17.0949 88.4913 16.7715L88.2274 15.9572C88.2365 16.2318 88.2029 16.4781 88.1251 16.7052C87.9775 17.1062 87.6493 17.4817 87.1429 17.8393L86.8502 17.5978C87.3566 17.2402 87.6681 16.8911 87.781 16.5518C87.8851 16.1985 87.8708 15.791 87.7444 15.3232L87.5138 14.6117Z" fill="white"/>
<path d="M89.7799 13.0486L91.1779 14.5387L91.0126 16.5753L90.663 16.545L90.8154 14.6654L89.5253 13.2901L89.7799 13.0486ZM90.4256 12.8229L91.8236 14.3131L91.6583 16.3496L91.3087 16.3193L91.4611 14.4398L90.1559 13.0697L90.4256 12.8229Z" fill="white"/>
</svg>
