<svg width="159" height="106" viewBox="0 0 159 106" fill="none" xmlns="http://www.w3.org/2000/svg">
<path d="M6.05738 7.35386L6.11105 7.71546L4.23414 7.95584L3.16723 9.51069L2.87676 9.3138L4.03269 7.62892L6.05738 7.35386ZM6.41621 7.93618L6.46149 8.28415L4.59297 8.53815L3.52606 10.093L3.23559 9.89612L4.39152 8.21124L6.41621 7.93618Z" fill="white"/>
<path d="M6.74599 8.60539C6.70486 8.89448 6.64747 9.1512 6.57264 9.38109L6.20407 9.30573C6.28309 9.09698 6.34166 8.83472 6.38196 8.52232L6.74599 8.60539ZM5.89423 9.04912C5.85309 9.3382 5.79452 9.60046 5.71634 9.83253L5.35113 9.75499C5.43132 9.5407 5.48989 9.27845 5.53019 8.96605L5.89423 9.04912ZM5.11836 9.82991L5.1941 10.1814C4.69067 10.3463 4.20418 10.4859 3.74134 10.5958L3.68036 10.2157C4.16534 10.1105 4.64394 9.98075 5.11836 9.82991ZM6.33779 10.855L6.01243 11.0664C5.9011 11.0052 5.79094 10.9384 5.68631 10.8729L4.77734 11.4635C4.55596 11.6073 4.37872 11.5841 4.25232 11.3896L4.07579 11.1179L4.31059 10.8699C4.35166 10.9625 4.39726 11.0474 4.4452 11.1212C4.48007 11.1748 4.55 11.1723 4.64727 11.1091L5.35164 10.6515L5.06795 10.4351L5.32523 10.163C5.43388 10.2641 5.54705 10.3575 5.66358 10.4488L6.42497 9.95406L6.20921 9.622L6.48425 9.44329L6.70001 9.77535L7.29705 9.38742L7.49755 9.696L6.90051 10.0839L7.0814 10.3623L6.80636 10.541L6.62547 10.2626L5.99825 10.6702C6.10623 10.7336 6.2231 10.796 6.33779 10.855ZM8.40298 11.1923L8.23172 11.5087C7.9601 11.3035 7.70576 11.0443 7.47205 10.7286L6.90185 11.0991L7.51643 12.045L7.23133 12.2302L7.0439 11.9418L5.30645 13.0707L5.11031 12.7688L6.84776 11.6399L6.61674 11.2844L6.41214 11.4173C5.76731 11.8124 5.1802 12.0174 4.6508 12.0323L4.7394 11.6694C5.16903 11.6478 5.66156 11.4661 6.22036 11.1221L7.53518 10.2678C7.7947 10.6525 8.08508 10.96 8.40298 11.1923Z" fill="white"/>
<path d="M9.51256 13.7322L8.96166 12.9314L9.25826 12.7273L10.5528 14.6091L10.2562 14.8131L9.7234 14.0387L7.57143 15.5191L8.18128 16.4055L7.88139 16.6119L6.39872 14.4566L6.69861 14.2503L7.3606 15.2126L9.51256 13.7322ZM8.90347 11.9081C8.90398 12.2476 8.88512 12.5519 8.83905 12.8167L8.46863 12.751C8.52171 12.5106 8.54387 12.2041 8.53737 11.8347L8.90347 11.9081ZM8.0569 12.3643C8.05741 12.7038 8.02743 13.006 7.97806 13.273L7.61093 13.2051C7.66731 12.9624 7.69173 12.6592 7.6908 12.2908L8.0569 12.3643ZM7.41299 13.3267L7.49797 13.6761C6.96732 13.8081 6.45171 13.9055 5.95112 13.9683L5.88014 13.5898C6.40195 13.5368 6.91324 13.4472 7.41299 13.3267Z" fill="white"/>
<path d="M12.0691 16.3219L12.2887 16.6222L11.4654 17.2243L11.2458 16.9241L12.0691 16.3219ZM10.072 16.6675C9.93905 16.5467 9.80609 16.4258 9.67637 16.3027L9.86196 15.9737C10.73 16.8354 11.5232 17.405 12.2391 17.6793C12.2452 17.5114 12.2465 17.337 12.2431 17.1561L12.5911 17.2187C12.6027 17.7157 12.5789 18.1642 12.5182 18.5555L12.146 18.5006C12.1774 18.3538 12.2017 18.1973 12.2165 18.0279C11.8094 17.8845 11.3913 17.6651 10.9564 17.3686L11.7923 18.5116L10.0391 19.7937L9.81947 19.4934L9.94216 19.4037L8.90087 17.9798L8.77172 18.0743L8.55449 17.7772L10.072 16.6675ZM9.17208 17.7815L10.2134 19.2054L10.4297 19.0472L9.38841 17.6233L9.17208 17.7815ZM9.63379 17.4438L10.6751 18.8677L10.872 18.7237L9.83075 17.2998L9.63379 17.4438ZM10.0729 17.1227L11.1142 18.5466L11.3176 18.3978L10.2763 16.974L10.0729 17.1227ZM11.5144 15.9496L11.4821 16.3053C11.1071 16.2871 10.7281 16.2026 10.3483 16.0492L10.4477 15.7039C10.8092 15.8459 11.1626 15.9294 11.5144 15.9496Z" fill="white"/>
<path d="M14.5182 19.6077C14.2399 19.8233 13.9985 19.9951 13.7927 20.1343C13.0935 20.9692 12.8043 21.9218 12.92 22.9858L12.5032 22.9898C12.4377 22.0691 12.6534 21.2241 13.144 20.4596C12.3246 20.7603 11.4427 20.7452 10.4982 20.4143L10.6249 20.0226C11.8049 20.4748 12.8569 20.3632 13.7841 19.6856C13.996 19.5214 14.1629 19.3972 14.283 19.3042L14.5182 19.6077Z" fill="white"/>
<path d="M14.4968 23.1594L13.7619 23.7645C14.0229 23.9745 14.3025 24.1692 14.5974 24.3512L14.3755 24.648C14.0357 24.4304 13.6328 24.13 13.1751 23.7504L13.3894 23.4443C13.461 23.4683 13.5302 23.458 13.5919 23.4071L15.8707 21.5305L17.7269 23.7846L16.7574 24.583L16.0658 23.7432C15.9432 23.8648 15.838 23.9825 15.7421 24.0926L16.5507 25.0745L16.2666 25.3084L15.5114 24.3914C15.468 24.4582 15.4277 24.5225 15.3961 24.5848C15.2557 24.8611 15.1796 25.0896 15.1647 25.2728C15.1534 25.4479 15.1834 25.5787 15.2515 25.6677C15.2744 25.6955 15.3225 25.6973 15.3928 25.6757C15.4662 25.6515 15.608 25.5658 15.8209 25.4216L15.895 25.801C15.5969 25.9739 15.3864 26.0644 15.266 26.0755C15.1481 26.0896 15.0546 26.0578 14.9905 25.9863C14.8715 25.8355 14.8179 25.6257 14.8272 25.3538C14.837 25.0763 14.9264 24.7695 15.0927 24.4304C15.1456 24.3247 15.2097 24.2201 15.2826 24.1135L14.4968 23.1594ZM15.8267 23.4529L15.1453 22.6254L14.7809 22.9254L15.5107 23.8116C15.6077 23.6903 15.7128 23.5726 15.8267 23.4529ZM17.2095 23.7288L15.8338 22.0583L15.4232 22.3965L16.7988 24.067L17.2095 23.7288Z" fill="white"/>
<path d="M18.2527 24.7277L19.3881 26.0197L19.1086 26.2653L18.7258 25.8296L18.1489 26.3366L18.4261 26.6521L18.2459 26.8105C18.775 26.6916 19.3209 26.4462 19.889 26.0747L20.1015 26.3832C19.9302 26.4912 19.7596 26.5879 19.5923 26.6763L20.3686 27.5597L20.0892 27.8052L19.9149 27.6069C19.413 28.0053 18.9097 28.2506 18.3996 28.3368C18.3064 28.7275 18.2936 29.1009 18.3587 29.4537L17.9758 29.5027C17.911 29.1442 17.9242 28.7652 18.0174 28.3745C17.5945 28.384 17.1668 28.2912 16.7397 28.1021L16.8209 27.7219C17.2661 27.9377 17.7051 28.0312 18.1265 28.0017C18.2338 27.6997 18.3811 27.3946 18.5655 27.0834C18.3925 27.1289 18.2173 27.1658 18.0457 27.1887L18.1161 26.8446L17.8785 26.5742L17.1874 27.1815C17.3562 27.2888 17.5227 27.3874 17.684 27.48L17.4196 27.7123C16.9652 27.4619 16.4701 27.1409 15.9312 26.7518L16.1239 26.444C16.1888 26.4935 16.2539 26.5374 16.3188 26.5869L17.6889 25.3829L17.9239 25.6503L16.6169 26.7989C16.7036 26.8612 16.7849 26.9175 16.8663 26.9737L18.4829 25.5532L17.9733 24.9733L18.2527 24.7277ZM18.5218 27.9365C18.9167 27.8344 19.2982 27.6323 19.6693 27.3275L19.2416 26.8407C19.1747 26.8676 19.1104 26.8974 19.0465 26.9217C18.8199 27.2698 18.6423 27.607 18.5218 27.9365Z" fill="white"/>
<path d="M21.3015 28.8053L21.4946 29.1175C21.3016 29.2156 21.1063 29.2995 20.9059 29.3663L19.2864 30.8788L19.0297 30.604L20.1728 29.5365C20.0278 29.557 19.8858 29.5691 19.7441 29.5756L19.9551 29.1979C20.4378 29.1522 20.8865 29.0232 21.3015 28.8053ZM21.1173 29.4754L21.8981 30.3115L22.2811 29.9538L22.535 30.2257L22.152 30.5833L22.4141 30.864L22.1452 31.1152L21.8831 30.8345L20.7985 31.8474C20.588 32.044 20.387 32.0456 20.2041 31.8497L19.8355 31.4551L20.0471 31.1425C20.153 31.2735 20.2591 31.3988 20.3683 31.5157C20.4421 31.5947 20.5271 31.5919 20.6148 31.51L21.6292 30.5626L20.8483 29.7265L21.1173 29.4754ZM23.1568 30.0828L22.8996 30.323L20.9448 28.2299L20.2607 28.8688C19.6125 29.4522 18.9944 29.816 18.4038 29.9571L18.3943 29.5719C18.8824 29.4499 19.42 29.123 20.0041 28.594L20.9454 27.7148L21.9474 28.7877C21.9902 28.693 22.0274 28.598 22.0559 28.5113L22.3839 28.7687C22.3353 28.8633 22.2781 28.966 22.2149 29.0742L23.1568 30.0828ZM20.884 30.1749C20.8435 30.5301 20.7882 30.8226 20.7267 31.0497L20.3896 30.9759C20.4574 30.732 20.5129 30.4339 20.5558 30.0873L20.884 30.1749Z" fill="white"/>
<path d="M22.7547 31.3059L22.8976 31.6374C22.4667 31.879 22.0872 32.0132 21.7533 32.0402L21.7294 31.6639C22.0519 31.6369 22.3918 31.5194 22.7547 31.3059ZM24.3459 30.8937L24.6164 31.1663L24.0882 31.6903L24.9784 32.5876C24.774 32.7792 24.5866 32.9594 24.4105 33.1228L24.6873 33.22C24.5614 33.6042 24.407 34.0109 24.2186 34.4401L23.8542 34.3113C24.0311 33.933 24.1768 33.5687 24.2913 33.2298C24.0699 33.4269 23.8712 33.6014 23.7009 33.7478C23.3661 34.0237 23.1024 34.1895 22.9126 34.2482C22.7286 34.3012 22.5618 34.2581 22.4068 34.1245L22.0772 33.7923L22.2652 33.4593C22.3553 33.5614 22.4426 33.6551 22.5272 33.7403C22.6652 33.8795 22.8547 33.8774 23.09 33.7397C23.3339 33.588 23.7852 33.1966 24.4439 32.5714L23.8157 31.9381C23.336 32.3576 22.8879 32.6443 22.4715 32.7982C22.0155 32.9576 21.5347 32.95 21.0291 32.7811L21.1183 32.3997C21.6183 32.5459 22.0653 32.542 22.4562 32.3909C22.799 32.2423 23.162 32.0005 23.5452 31.6655L22.8748 30.9896L23.136 30.7305L23.8177 31.4177L24.3459 30.8937Z" fill="white"/>
<path d="M27.0589 33.6116L27.2184 33.9552C26.4376 34.3674 25.7246 34.5739 25.0822 34.5719L25.043 34.1768C25.7023 34.1783 26.3762 33.9899 27.0589 33.6116ZM26.6945 36.1853C26.6068 36.697 26.4765 37.2014 26.2922 37.6989L25.9236 37.5705C25.9709 37.439 26.0211 37.3103 26.0629 37.1846C25.4858 36.7818 24.8701 36.3094 24.2098 35.7618L24.4133 35.4477C24.6828 35.5761 25.3911 35.4037 26.541 34.9332L26.7232 35.2819C26.0262 35.553 25.4003 35.7373 24.8514 35.8402C25.2915 36.2015 25.7337 36.5373 26.1723 36.842C26.2578 36.5595 26.3239 36.2917 26.3678 36.0359L26.6945 36.1853ZM28.1241 34.5753C27.7865 35.2581 27.6558 35.9549 27.7407 36.6684L27.3286 36.7081C27.2482 35.9492 27.3918 35.2096 27.7622 34.4863L28.1241 34.5753Z" fill="white"/>
<path d="M31.7728 38.0588L31.5283 38.3339L29.4564 36.4924L28.6725 37.3744C28.1105 37.9827 27.5408 38.3648 26.9665 38.5233L26.9213 38.1406C27.395 38.005 27.8849 37.6645 28.3884 37.122L29.4168 35.9649L31.7728 38.0588ZM29.2219 37.0332L31.1174 38.7179L30.8783 38.987L30.1488 38.3387L28.9849 39.6482C28.7856 39.8724 28.58 39.8931 28.3707 39.707L28.0538 39.4254L28.2271 39.0978C28.3152 39.1975 28.4055 39.2885 28.4952 39.3682C28.5819 39.4453 28.6746 39.4313 28.765 39.3297L29.8677 38.0889L28.9827 37.3023L29.2219 37.0332Z" fill="white"/>
<path d="M32.0462 39.5678L32.3255 39.8012L31.9638 40.234L32.2829 40.5008L32.0649 40.7616L31.7457 40.4948L31.4533 40.8447C31.6144 40.9325 31.7721 41.0121 31.9205 41.0841L31.6896 41.3603C31.5381 41.2858 31.3805 41.2062 31.2198 41.124L30.6734 41.7777L30.3941 41.5442L30.8943 40.9458C30.6907 40.8277 30.4778 40.7019 30.264 40.5648L30.4657 40.2486C30.6949 40.3985 30.9175 40.5376 31.1304 40.6634L31.4664 40.2614L30.9754 39.8509L31.1295 39.5418C31.3478 39.4428 31.599 39.2982 31.8825 39.1025L31.6124 38.8768L31.8484 38.5944L32.1922 38.8817C32.3198 38.7851 32.4527 38.6824 32.5875 38.5709L32.8304 38.8417C32.7083 38.9378 32.5889 39.0309 32.4745 39.1177L33.0269 39.5795L32.7909 39.8619L32.1649 39.3385C31.9024 39.5153 31.6573 39.665 31.4267 39.785L31.6845 40.0005L32.0462 39.5678ZM33.1497 39.6821L33.6131 40.0695C33.7429 39.9642 33.8695 39.8563 33.9988 39.7454L34.2611 40.0116C34.137 40.1164 34.018 40.2151 33.9047 40.3132L34.6167 40.9084L34.3807 41.1907L33.6104 40.5468C33.5068 40.6271 33.4058 40.7043 33.3073 40.7784L34.2188 41.5403L33.9854 41.8196L33.0033 40.9986C32.872 41.087 32.7459 41.1693 32.6306 41.2449L33.5881 42.0453L33.388 42.2847C33.1256 42.399 32.8167 42.4692 32.45 42.4964C32.504 42.6562 32.5468 42.8171 32.5865 42.9754L32.2135 43.0911C32.1026 42.5814 31.942 42.1186 31.7285 41.7004L32.0774 41.6011C32.1734 41.7856 32.2556 41.9742 32.3265 42.1638C32.6041 42.156 32.8536 42.1195 33.0719 42.0517L32.053 41.2C32.2708 41.0641 32.4902 40.9139 32.7148 40.7575L32.3527 40.4548L32.5861 40.1755L33.0188 40.5372C33.1224 40.457 33.2234 40.3798 33.3219 40.3057L32.9137 39.9645L33.1497 39.6821Z" fill="white"/>
<path d="M34.6226 41.9312L35.5934 41.209L35.8524 41.4944L35.2312 41.9471L35.6963 42.3133C35.9392 42.1278 36.1793 41.9197 36.4199 41.6917L36.6951 41.9694C36.4619 42.188 36.2316 42.3835 36.0075 42.5583L37.4469 43.6916L37.2217 43.9776L35.7069 42.7849C35.5938 42.8639 35.4825 42.9341 35.3769 43.0036L36.634 43.9934L36.436 44.2448C36.1514 44.4382 35.8143 44.5495 35.4184 44.5738C35.5534 44.8939 35.746 45.2441 35.9932 45.622L35.6165 45.7836C35.3451 45.3459 35.1458 44.9395 35.0167 44.5732C34.6324 44.5506 34.2038 44.4677 33.731 44.3246L33.7966 43.918C34.1999 44.0523 34.5692 44.1394 34.8987 44.1799C34.8231 43.8557 34.8077 43.5584 34.8531 43.2938C34.2606 43.5808 33.6826 43.7265 33.1223 43.7333L33.1861 43.3355C33.9217 43.2936 34.6561 43.0267 35.3895 42.535L34.6226 41.9312ZM35.1986 43.3011C35.1564 43.5682 35.1837 43.8697 35.2831 44.2025C35.6073 44.1981 35.888 44.1391 36.1195 44.0261L35.1986 43.3011ZM37.2503 42.3506C37.3385 42.6847 37.3896 42.9948 37.4062 43.2777L37.0242 43.3231C37.0272 43.0607 36.9848 42.7525 36.8933 42.3902L37.2503 42.3506Z" fill="white"/>
<path d="M39.639 44.175L39.9376 44.3968L39.3294 45.2156L39.0307 44.9938L39.639 44.175ZM37.8336 45.0961C37.6708 45.02 37.5081 44.944 37.3477 44.8647L37.4276 44.4956C38.5118 45.0618 39.4381 45.3711 40.2031 45.4212C40.1592 45.259 40.1088 45.092 40.052 44.9203L40.403 44.877C40.5612 45.3483 40.6712 45.7838 40.729 46.1756L40.3573 46.2333C40.3438 46.0837 40.3206 45.927 40.2847 45.7608C39.8534 45.7444 39.389 45.6585 38.8859 45.504L40.0226 46.3484L38.7274 48.092L38.4288 47.8702L38.5194 47.7482L37.1034 46.6963L37.0079 46.8247L36.7125 46.6053L37.8336 45.0961ZM37.3037 46.4266L38.7198 47.4784L38.8796 47.2633L37.4635 46.2114L37.3037 46.4266ZM37.6448 45.9674L39.0609 47.0193L39.2064 46.8234L37.7903 45.7715L37.6448 45.9674ZM37.9692 45.5307L39.3853 46.5826L39.5355 46.3803L38.1195 45.3284L37.9692 45.5307ZM38.9989 43.9835L39.0733 44.3328C38.7097 44.4264 38.3226 44.4578 37.9145 44.4237L37.9072 44.0645C38.2946 44.0932 38.6569 44.0683 38.9989 43.9835Z" fill="white"/>
<path d="M41.2579 46.1818L42.5771 47.1082C42.6024 46.8913 42.6011 46.6704 42.5755 46.4423L42.9669 46.5461C42.9745 46.786 42.9547 47.0508 42.9045 47.3381L44.1452 48.2093L43.9291 48.517L43.4282 48.1653C42.9217 48.5525 42.3973 48.8051 41.8529 48.9262C41.9979 49.4435 42.2603 49.9747 42.6357 50.512L42.2783 50.6521C41.8892 50.0856 41.6229 49.532 41.4828 48.9938C40.883 49.0614 40.2579 48.9841 39.6074 48.7619L39.6336 48.3697C40.2604 48.6046 40.8475 48.6943 41.4037 48.6401C41.2965 48.0271 41.3432 47.4246 41.5427 46.8412L41.0418 46.4895L41.2579 46.1818ZM41.8406 47.0504C41.6953 47.5496 41.6697 48.0595 41.7692 48.579C42.2389 48.4739 42.6868 48.2605 43.1074 47.94L41.8406 47.0504Z" fill="white"/>
<path d="M45.527 48.3174L45.7298 48.6548C45.4346 48.8521 45.115 49.0139 44.7733 49.1369L43.31 51.3294L42.9973 51.1207L44.2141 49.2975C43.9844 49.3462 43.747 49.3849 43.504 49.4103L43.624 49.0143C44.333 48.9248 44.9676 48.6943 45.527 48.3174ZM45.0734 52.4197L44.4512 52.0045C44.1851 51.8269 44.1408 51.605 44.3184 51.3388L44.9402 50.4072C44.7782 50.3905 44.6129 50.3716 44.4465 50.3471L44.5033 49.9521C44.7362 49.9922 44.9648 50.0245 45.1866 50.0379L46.0504 48.7437L46.3665 48.9546L45.6337 50.0526C46.1041 50.0539 46.5579 50.0009 46.9884 49.889L47.0414 50.2851C46.5078 50.4002 45.953 50.4532 45.3784 50.4352L44.6634 51.5065C44.6012 51.5997 44.62 51.6795 44.7265 51.7506L45.2222 52.0814C45.2988 52.1325 45.3731 52.1436 45.443 52.1182C45.5096 52.0905 45.6505 51.9297 45.8615 51.628L46.0899 51.9199C45.8112 52.287 45.6125 52.491 45.4994 52.5309C45.3829 52.5686 45.2398 52.5308 45.0734 52.4197Z" fill="white"/>
<path d="M50.8848 52.0002L50.6878 52.3111L48.3464 50.8271L47.7147 51.8238C47.258 52.5146 46.7572 52.9834 46.2159 53.2322L46.1097 52.8618C46.5554 52.6518 46.9841 52.2369 47.3938 51.6204L48.2225 50.3129L50.8848 52.0002ZM48.2021 51.3986L50.3441 52.7562L50.1514 53.0603L49.327 52.5378L48.3891 54.0176C48.2285 54.271 48.0289 54.3245 47.7924 54.1746L47.4342 53.9476L47.5526 53.5964C47.6556 53.6806 47.7594 53.7559 47.8607 53.8201C47.9587 53.8822 48.0479 53.8535 48.1207 53.7386L49.0094 52.3365L48.0093 51.7027L48.2021 51.3986Z" fill="white"/>
<path d="M50.9336 53.223L51.926 53.8237L52.0316 53.6492L52.3533 53.8438L52.2476 54.0184L53.2264 54.6107L53.0544 54.8948L52.0757 54.3024L51.9183 54.5625L53.2871 55.3909L53.1173 55.6715L52.4842 55.2884L52.3227 55.5553L52.8086 55.8494L52.6367 56.1334L52.1508 55.8393L51.867 56.3081C51.7366 56.5237 51.5505 56.5608 51.3178 56.4199L50.8353 56.1279L50.9498 55.7764C51.099 55.8854 51.2399 55.9847 51.3768 56.0675C51.4726 56.1255 51.5454 56.1135 51.5909 56.0382L51.8291 55.6446L49.923 54.491L50.0949 54.207L52.001 55.3606L52.1626 55.0937L50.0546 53.8179L50.2244 53.5373L51.5967 54.3678L51.7541 54.1077L50.7617 53.5071L50.9336 53.223ZM50.5127 54.9227C50.5816 55.2029 50.6219 55.4376 50.6369 55.6291L50.278 55.6503C50.2624 55.4445 50.2208 55.2042 50.1498 54.9275L50.5127 54.9227ZM51.3974 52.8352C51.2276 52.9381 51.0537 53.0246 50.8758 53.0945L50.7029 52.7468C51.0463 52.6273 51.3399 52.459 51.5911 52.2371L51.8577 52.4919C51.7999 52.5411 51.7386 52.5882 51.6808 52.6373L52.4987 53.1323L52.3351 53.4027L51.8081 53.0837C51.8212 53.232 51.8269 53.3616 51.821 53.4796L51.4604 53.411C51.4782 53.2347 51.4803 53.0537 51.4659 52.8766L51.3974 52.8352ZM52.793 53.6658C52.672 53.7422 52.5503 53.8041 52.4294 53.8572L52.2639 53.5279C52.5299 53.413 52.7664 53.2617 52.9689 53.0662L53.2341 53.3156C53.1763 53.3648 53.1219 53.416 53.0661 53.4617L54.0003 54.0272L53.8367 54.2975L53.2858 53.9641C53.3023 54.1144 53.3039 54.2509 53.2945 54.3668L52.9497 54.303C52.9641 54.1247 52.9641 53.947 52.9538 53.7632L52.793 53.6658Z" fill="white"/>
<path d="M54.9265 55.2262C54.9112 55.4206 54.8709 55.6422 54.8091 55.893L55.1173 56.0711C55.3045 55.9391 55.4908 55.7926 55.6693 55.6278L55.9105 55.9058C55.7481 56.043 55.5922 56.1608 55.4394 56.2573L55.8134 56.4734L55.6313 56.7886L53.8893 55.7817L54.0715 55.4666L54.5009 55.7148C54.5356 55.5269 54.5593 55.342 54.5666 55.1614L54.9265 55.2262ZM56.609 55.4087L57.8108 56.1032L57.6666 56.3526C57.3551 56.6438 57.0472 56.9047 56.7464 57.1374C56.8185 57.6041 56.8 57.9399 56.6874 58.1428C56.5512 58.3783 56.4087 58.513 56.2666 58.551C56.1176 58.585 55.8922 58.5194 55.6013 58.3513L55.6975 57.9449C55.8142 58.0308 55.9141 58.0978 56.0007 58.1479C56.0789 58.1884 56.1428 58.1977 56.1876 58.1681C56.2284 58.1455 56.2848 58.0719 56.3584 57.9526C56.469 57.7532 56.4806 57.4134 56.3966 56.9352C56.661 56.7416 56.952 56.4939 57.271 56.1978L56.7515 55.8976L55.1522 58.6646L54.8336 58.4805L56.609 55.4087ZM54.6857 54.5557L55.3229 54.924C55.3464 54.8036 55.3658 54.6901 55.3792 54.5869L55.7471 54.7257C55.7203 54.8441 55.6874 54.973 55.645 55.1102L56.3307 55.5065L56.1486 55.8217L54.5036 54.8709L54.6857 54.5557ZM55.3466 56.9613L54.562 58.3189L54.233 58.1287L54.3371 57.9486L53.5683 57.5043L53.4642 57.6844L53.1421 57.4982L53.9267 56.1406L55.3466 56.9613ZM53.7484 57.1926L54.5172 57.637L54.8375 57.0829L54.0687 56.6385L53.7484 57.1926Z" fill="white"/>
<path d="M59.0415 60.8209L58.7547 60.6617L58.8436 60.3039L59.144 60.4797C59.2349 60.5302 59.3188 60.4944 59.3867 60.372L60.635 58.1233L59.32 57.3933L59.4908 57.0856L61.1276 57.9941L59.658 60.6416C59.5105 60.9074 59.3038 60.9665 59.0415 60.8209ZM58.016 56.825L58.3377 57.0036L56.8662 59.6546L56.5444 59.476L58.016 56.825ZM58.9417 56.5337C58.9977 56.8118 59.0246 57.1013 59.0228 57.393L58.6382 57.3854C58.6412 57.0668 58.6162 56.7739 58.5671 56.4996L58.9417 56.5337Z" fill="white"/>
<path d="M62.6809 58.6499C62.7206 58.898 62.7474 59.1618 62.7577 59.4394L62.4805 59.4318L63.2107 59.8223C63.4452 59.6891 63.6863 59.5096 63.9322 59.2873L64.2131 59.5509C64.011 59.7422 63.8009 59.8975 63.5881 60.0241L64.2583 60.3824L64.0848 60.707L62.9349 60.0921L62.8764 60.2014C62.7788 60.367 62.6782 60.5127 62.5762 60.6442L63.9801 61.3948L63.8065 61.7194L62.5719 61.0592C62.5166 61.5785 62.7783 62.1493 63.3553 62.7754L62.988 62.9872C62.4095 62.2878 62.1553 61.6348 62.2167 61.028C62.0645 61.1599 61.9077 61.2665 61.7481 61.3445C61.3385 61.5337 60.8168 61.5677 60.1831 61.4466L60.1562 61.0557C60.7937 61.1698 61.2794 61.1437 61.6167 60.9794C61.7385 60.9129 61.8552 60.8302 61.9652 60.7348L60.7589 60.0898L60.9324 59.7652L62.2305 60.4593C62.3379 60.3263 62.4421 60.1824 62.5378 60.0204L62.5962 59.911L61.4428 59.2943L61.6163 58.9697L62.3712 59.3734C62.3641 59.1065 62.3369 58.8606 62.2948 58.634L62.6809 58.6499Z" fill="white"/>
<path d="M65.1412 60.0935L67.8301 61.4857L67.6591 61.8161L66.526 61.2294L66.0772 62.0961L67.459 62.8115L67.2842 63.149L65.9025 62.4336L65.2753 63.6448C65.1466 63.8935 64.9489 63.9533 64.6896 63.819L64.1249 63.5266L64.223 63.163C64.3987 63.2675 64.569 63.3647 64.7324 63.4493C64.8461 63.5082 64.9305 63.4843 64.982 63.3849L65.565 62.2588L64.1229 61.5121L64.2976 61.1747L65.7397 61.9214L66.1885 61.0547L64.9701 60.4238L65.1412 60.0935Z" fill="white"/>
<path d="M69.627 64.3034L69.4278 64.7002L69.9819 64.9783L70.1811 64.5815L69.627 64.3034ZM69.2699 65.0148L69.0474 65.4581L69.6016 65.7362L69.824 65.2929L69.2699 65.0148ZM68.8842 65.7835L68.8034 65.9443L68.4674 65.7757L69.4614 63.7951C69.3378 63.8629 69.209 63.9235 69.0765 63.9824L69.1415 63.5674C69.6141 63.3302 70.0207 63.0196 70.3612 62.6266L70.6578 62.856C70.518 63.0096 70.3711 63.1507 70.2171 63.2793L70.764 63.5538C70.793 63.3535 70.8147 63.1496 70.8258 62.9493L71.1942 63.0267C71.1634 63.2843 71.129 63.5132 71.0822 63.7135L71.6292 63.988L71.4659 64.3133L70.8832 64.0209L70.6768 64.432L71.1881 64.6886L71.0284 65.0068L70.5172 64.7502L70.318 65.147L70.8292 65.4036L70.6713 65.7182L70.1601 65.4616L69.9376 65.9049L70.5597 66.2171L70.3964 66.5424L68.8842 65.7835ZM70.5471 63.8522L69.993 63.5741L69.7867 63.9852L70.3408 64.2633L70.5471 63.8522ZM69.1036 63.7946L68.9296 64.1414C68.8061 64.1376 68.6809 64.1285 68.5593 64.1211L68.0713 65.0935C67.9546 65.3259 67.7739 65.3829 67.5344 65.2626L67.2126 65.1012L67.3026 64.7346C67.3919 64.7973 67.4813 64.8511 67.5707 64.896C67.6636 64.9426 67.7316 64.9231 67.7747 64.8373L68.1551 64.0794C67.9959 64.0576 67.835 64.0306 67.6794 64.0017L67.7658 63.6155C67.9518 63.664 68.1378 63.7037 68.3273 63.7362L68.7041 62.9854L68.2751 62.7701L68.4402 62.4412L68.8692 62.6565L69.185 62.0273L69.5246 62.1978L69.2088 62.827L69.5413 62.9938L69.3762 63.3227L69.0438 63.1559L68.7298 63.7815C68.855 63.7906 68.9784 63.7944 69.1036 63.7946Z" fill="white"/>
<path d="M72.2543 63.8417L73.591 64.4953L73.4311 64.8223L72.0944 64.1687L72.2543 63.8417ZM71.6469 64.7469L73.246 65.5288L73.0843 65.8594L72.2758 65.4641C71.9057 65.8931 71.6186 66.198 71.4128 66.3823C71.6745 66.448 71.9504 66.4938 72.2351 66.5217C72.2386 66.3052 72.2367 66.0995 72.2296 65.9046L72.5856 65.905C72.6033 66.2877 72.5981 66.6992 72.5715 67.1359L72.2031 67.1427L72.2221 66.8671C71.7815 66.8119 71.3245 66.7176 70.8474 66.5823L70.9229 66.2185C70.9624 66.2289 70.9892 66.2286 71.0089 66.2249C71.1744 66.1322 71.4847 65.8253 71.9452 65.3024L71.4853 65.0775L71.6469 64.7469ZM74.3128 64.5855L74.6505 64.7507L74.3097 65.4478L75.0859 65.8273C74.5131 66.9988 74.1419 67.7123 73.9761 67.9696C73.803 68.2234 73.553 68.2703 73.226 68.1104C73.1685 68.0823 73.0714 68.0259 72.9311 67.9484L72.9997 67.6079C73.1238 67.682 73.2317 67.7436 73.3251 67.7893C73.4832 67.8666 73.6152 67.8243 73.7283 67.6659C73.8324 67.5075 74.1191 66.9486 74.5936 65.9963L74.148 65.7784L74.1322 65.8108C73.6154 66.8404 72.9985 67.4738 72.2761 67.7128L72.1317 67.3616C72.7738 67.1502 73.3287 66.58 73.7944 65.6456L73.8103 65.6133L73.3539 65.3901L73.5155 65.0595L73.9719 65.2827L74.3128 64.5855Z" fill="white"/>
<path d="M75.6132 65.9226L77.0677 66.6175C77.0566 66.3994 77.0187 66.1818 76.9557 65.9611L77.359 65.9986C77.4061 66.2339 77.4305 66.4983 77.4286 66.79L78.7965 67.4435L78.6344 67.7828L78.0822 67.519C77.6468 67.9848 77.1716 68.3207 76.6547 68.5304C76.8835 69.0165 77.2302 69.4969 77.6895 69.9646L77.3602 70.1619C76.8826 69.6677 76.5283 69.166 76.3009 68.6584C75.7207 68.8244 75.0914 68.8518 74.4131 68.7405L74.3739 68.3494C75.031 68.4772 75.6248 68.4683 76.1643 68.3227C75.957 67.736 75.9033 67.134 76.0033 66.5257L75.4511 66.2618L75.6132 65.9226ZM76.3317 66.6826C76.2712 67.199 76.3304 67.706 76.5146 68.2019C76.9604 68.0203 77.3668 67.7357 77.7285 67.35L76.3317 66.6826Z" fill="white"/>
<path d="M80.1922 67.3479L80.4432 67.6511C80.1808 67.8903 79.889 68.0981 79.5695 68.2708L78.4504 70.6574L78.1099 70.4978L79.0405 68.5132C78.8207 68.5956 78.5917 68.6694 78.3553 68.7308L78.4148 68.3214C79.1024 68.1269 79.6955 67.8042 80.1922 67.3479ZM80.3569 71.4719L79.6797 71.1544C79.39 71.0185 79.313 70.8057 79.4489 70.516L79.9244 69.5019C79.7617 69.5096 79.5955 69.5156 79.4273 69.5162L79.4244 69.1173C79.6607 69.122 79.8915 69.1198 80.1129 69.0999L80.7734 67.6911L81.1175 67.8524L80.5571 69.0476C81.0224 68.9786 81.4632 68.8583 81.8721 68.6834L81.9838 69.0671C81.4733 69.2607 80.9327 69.396 80.3618 69.4641L79.815 70.6302C79.7675 70.7316 79.798 70.8078 79.9139 70.8621L80.4535 71.1152C80.5368 71.1542 80.612 71.1541 80.6773 71.1185C80.739 71.0811 80.8543 70.9011 81.0178 70.5713L81.2873 70.8258C81.0666 71.2304 80.9007 71.4618 80.7947 71.5181C80.6851 71.5728 80.538 71.5568 80.3569 71.4719Z" fill="white"/>
<path d="M82.929 69.3794L84.3933 70.0536C84.3791 69.8357 84.3381 69.6187 84.272 69.3989L84.6757 69.4307C84.7262 69.6653 84.7544 69.9293 84.7566 70.2209L86.1336 70.855L85.9763 71.1966L85.4205 70.9406C84.9918 71.4125 84.5213 71.7552 84.0075 71.9722C84.2431 72.455 84.5967 72.9304 85.0625 73.3915L84.7361 73.5935C84.2515 73.1062 83.8901 72.6095 83.6556 72.1052C83.0777 72.2794 82.4489 72.3158 81.7691 72.2141L81.7243 71.8236C82.3832 71.942 82.9768 71.9247 83.5142 71.7714C83.2986 71.1877 83.2363 70.5866 83.3277 69.9769L82.7718 69.721L82.929 69.3794ZM83.6583 70.1292C83.6051 70.6463 83.6715 71.1525 83.8627 71.6457C84.3059 71.4578 84.7083 71.1675 85.0644 70.7766L83.6583 70.1292Z" fill="white"/>
<path d="M88.3829 71.1601L88.673 71.3923C88.5574 71.5508 88.4447 71.693 88.335 71.8189L89.7235 72.4473C89.1561 73.7009 88.7883 74.4652 88.6199 74.7403C88.4343 75.0339 88.1593 75.0982 87.7913 74.9316C87.7403 74.9086 87.6525 74.86 87.5246 74.7934L87.5846 74.4473C87.6962 74.511 87.7913 74.5629 87.8788 74.6024C88.0792 74.6931 88.2437 74.6402 88.3685 74.4421C88.4728 74.2698 88.7628 73.6678 89.2401 72.6325L89.0761 72.5583C88.7288 73.1123 88.4104 73.5346 88.1152 73.8181C87.7727 74.1286 87.3663 74.3573 86.8998 74.515L86.8084 74.1444C87.2293 74.01 87.5885 73.8081 87.8933 73.5421C88.1679 73.2844 88.4596 72.9115 88.7627 72.4164L88.5514 72.3208C88.049 73.033 87.5184 73.4778 86.9559 73.6535L86.8507 73.2942C87.3464 73.1497 87.8119 72.7808 88.2453 72.1822L88.063 72.0998C87.8693 72.2756 87.6796 72.4136 87.4933 72.5049L87.3355 72.1745C87.6954 71.9905 88.0458 71.6529 88.3829 71.1601ZM86.6428 71.6678C86.5345 71.8295 86.4186 71.979 86.3006 72.1232L86.0361 71.9025C86.3202 71.5657 86.5652 71.1892 86.7711 70.7731L87.0673 70.9335C86.9941 71.076 86.9172 71.2168 86.8383 71.3523L87.0278 71.4381L87.3576 70.7092L87.6929 70.861L87.363 71.5898L87.6291 71.7102L87.4773 72.0455L87.2113 71.9251L86.8633 72.694C86.9689 72.6935 87.0709 72.6913 87.1692 72.6875L87.0208 73.0155C86.9188 73.0177 86.8169 73.0198 86.7166 73.0183L86.1723 74.2209L85.837 74.0692L86.3203 73.0014C86.1193 72.9895 85.918 72.9687 85.7147 72.9425L85.7862 72.571C86.0101 72.6196 86.2389 72.6573 86.467 72.6771L86.8761 71.7733L86.6428 71.6678Z" fill="white"/>
<path d="M90.6739 72.8596L91.4125 73.1872C91.3799 72.9846 91.3371 72.7949 91.2789 72.6203L91.6294 72.6095C91.6937 72.8 91.7442 73.0018 91.7793 73.2186L91.5113 73.231L92.2499 73.5586C92.448 73.4277 92.6327 73.2777 92.8076 73.1102L93.0905 73.3801C92.9354 73.5126 92.7759 73.6256 92.6119 73.7192L93.2773 74.0143L92.5816 75.583L91.4517 75.0818L91.3236 75.3707L92.7862 76.0194L92.6402 76.3485L91.1776 75.6998L90.8873 76.3543L90.5436 76.2018L90.8339 75.5473L89.3714 74.8986L89.5173 74.5695L90.9799 75.2182L91.108 74.9294L89.9782 74.4282L90.6739 72.8596ZM92.3814 75.1266L92.5306 74.7902L91.7372 74.4383L91.588 74.7747L92.3814 75.1266ZM91.2443 74.6222L91.3935 74.2858L90.6 73.9339L90.4508 74.2703L91.2443 74.6222ZM90.7298 73.6414L91.5232 73.9933L91.6692 73.6642L90.8757 73.3123L90.7298 73.6414ZM92.0129 73.8167L91.8669 74.1458L92.6604 74.4977L92.8063 74.1686L92.0129 73.8167Z" fill="white"/>
<path d="M94.9282 74.0473L95.1895 74.3395C94.9767 74.5786 94.7431 74.7955 94.4864 74.985L93.4132 77.4581L93.0683 77.3085L93.9202 75.3453C93.7512 75.4333 93.5801 75.5161 93.4049 75.5883L93.452 75.1683C94.0109 74.9051 94.5032 74.5344 94.9282 74.0473ZM94.9287 74.7496L95.8754 75.1604C95.9005 74.9619 95.9155 74.7766 95.92 74.5954L96.3124 74.6959C96.2937 74.8797 96.2655 75.0855 96.224 75.3116L97.1597 75.7177L97.0148 76.0516L94.7838 75.0835L94.9287 74.7496ZM93.8536 77.0562L95.1012 77.5976C95.4912 77.1913 95.9101 76.658 96.3543 75.9961L96.6516 76.2254C96.2503 76.8186 95.8514 77.3258 95.4572 77.7521L96.2424 78.0928L96.0943 78.4341L93.7055 77.3975L93.8536 77.0562ZM95.1951 75.5323C95.1339 76.0552 95.0241 76.6398 94.8731 77.2893L94.5136 77.2336C94.6554 76.6455 94.7583 76.0666 94.8276 75.4949L95.1951 75.5323Z" fill="white"/>
<path d="M97.7024 75.9856L99.1869 76.6138C99.166 76.3964 99.1183 76.1808 99.0453 75.9631L99.4498 75.9823C99.5076 76.2152 99.544 76.4782 99.5553 76.7697L100.951 77.3605L100.805 77.7067L100.241 77.4682C99.8276 77.9533 99.368 78.3105 98.8612 78.5434C99.1118 79.0186 99.48 79.4828 99.96 79.9292L99.6401 80.1413C99.1405 79.6693 98.7638 79.1841 98.5136 78.6873C97.9415 78.8796 97.3141 78.9355 96.6315 78.8551L96.5745 78.4662C97.2368 78.564 97.8296 78.5282 98.3619 78.3582C98.1282 77.7815 98.0472 77.1826 98.1195 76.5704L97.5559 76.3319L97.7024 75.9856ZM98.4547 76.7122C98.4177 77.2308 98.4998 77.7346 98.7064 78.2216C99.1435 78.02 99.5366 77.7173 99.8803 77.3155L98.4547 76.7122Z" fill="white"/>
<path d="M102.555 77.2879L102.82 77.5789C102.569 77.8304 102.288 78.0518 101.977 78.2396L100.973 80.677L100.626 80.5338L101.46 78.5069C101.245 78.5998 101.019 78.6844 100.786 78.7571L100.826 78.3452C101.504 78.1181 102.081 77.7674 102.555 77.2879ZM102.917 81.3994L102.225 81.1146C101.929 80.9927 101.842 80.7838 101.964 80.488L102.39 79.4523C102.228 79.4678 102.062 79.4817 101.894 79.4904L101.873 79.092C102.109 79.0855 102.339 79.0722 102.559 79.0418L103.152 77.603L103.503 77.7477L103.001 78.9683C103.462 78.8771 103.897 78.736 104.297 78.5417L104.427 78.9196C103.926 79.1374 103.392 79.2984 102.825 79.3936L102.335 80.5846C102.292 80.6881 102.327 80.7628 102.445 80.8115L102.996 81.0385C103.081 81.0735 103.156 81.0698 103.22 81.0311C103.279 80.9908 103.386 80.8055 103.534 80.4682L103.815 80.7095C103.614 81.1242 103.459 81.3633 103.356 81.4247C103.249 81.4845 103.101 81.4756 102.917 81.3994Z" fill="white"/>
<path d="M106.025 80.4717L105.334 80.1957L104.769 81.611C104.733 81.7002 104.762 81.7678 104.862 81.8078L105.509 82.066C105.62 82.1105 105.703 82.1089 105.751 82.0636C105.804 82.016 105.877 81.8986 105.968 81.7151L106.254 81.9586C106.095 82.2699 105.972 82.449 105.878 82.4892C105.795 82.5249 105.66 82.5056 105.482 82.4344L104.579 82.0739C104.345 81.9804 104.275 81.823 104.364 81.6001L105.069 79.8356L104.819 79.9427L104.725 79.5736C105.207 79.3914 105.683 79.1378 106.152 78.8167L106.412 78.9206C106.602 79.3929 106.772 79.8741 106.913 80.3613L106.586 80.5108C106.436 79.9597 106.303 79.5275 106.178 79.2148C105.871 79.4237 105.545 79.6125 105.195 79.7784L106.495 80.2976L106.085 81.3229C106 81.5257 105.846 81.5889 105.617 81.5148C105.472 81.4569 105.336 81.3983 105.209 81.3389L105.256 80.9742C105.387 81.044 105.503 81.0989 105.607 81.1404C105.692 81.1745 105.755 81.1478 105.787 81.066L106.025 80.4717ZM107.384 79.6665L107.73 79.8045L106.815 82.0965L106.469 81.9585L107.384 79.6665ZM106.802 82.9915L106.241 82.7675L106.294 82.3968C106.47 82.4844 106.642 82.5615 106.805 82.6268C106.894 82.6624 106.961 82.6245 107.004 82.5168L108.164 79.6119L108.517 79.7528L107.321 82.7469C107.218 83.0069 107.043 83.088 106.802 82.9915Z" fill="white"/>
<path d="M109.492 80.6988L108.91 80.4738L109.026 80.1753L110.257 80.6513C110.251 80.5763 110.245 80.5051 110.235 80.4413L110.642 80.5302C110.645 80.6126 110.648 80.7039 110.645 80.8013L111.936 81.3003L111.82 81.5988L111.227 81.3695L111.032 81.5515L111.909 81.8904L111.791 82.1964L108.53 80.9358L108.648 80.6299L109.495 80.9573L109.492 80.6988ZM109.865 81.1L110.663 81.4087L110.858 81.2267L109.862 80.8416L109.865 81.1ZM108.857 81.2425L111.342 82.2031L110.892 83.3671L108.407 82.4065L108.857 81.2425ZM110.649 82.9644L110.721 82.7778L108.93 82.0855L108.858 82.272L110.649 82.9644ZM109.028 81.8318L110.819 82.5241L110.89 82.3413L109.099 81.649L109.028 81.8318ZM108.209 82.4972L108.525 82.7008C108.326 82.9624 108.108 83.1699 107.871 83.3272L107.639 83.0186C107.866 82.8749 108.053 82.7026 108.209 82.4972ZM109.774 84.1185L108.864 83.7666C108.576 83.6555 108.485 83.4701 108.583 83.2164L108.768 82.7388L109.126 82.8773L108.97 83.2802C108.934 83.3735 108.971 83.4437 109.087 83.4884L109.83 83.7754C109.897 83.8014 109.951 83.8052 109.987 83.7892C110.037 83.77 110.101 83.6831 110.179 83.5247L110.473 83.7627C110.343 84.0123 110.228 84.1526 110.126 84.1731C110.038 84.1904 109.92 84.1747 109.774 84.1185ZM109.734 82.9364C109.825 83.1433 109.887 83.3171 109.92 83.4631L109.546 83.5543C109.508 83.3981 109.446 83.2153 109.358 83.0098L109.734 82.9364ZM110.867 83.4647C110.979 83.7866 111.053 84.0598 111.092 84.2807L110.718 84.372C110.68 84.1258 110.613 83.8465 110.511 83.5327L110.867 83.4647Z" fill="white"/>
<path d="M114.124 81.8371C114.132 81.9766 114.13 82.1297 114.127 82.2992L115.427 82.7849L115.301 83.1222L114.671 82.887C114.571 83.0416 114.457 83.1869 114.331 83.3191L115.196 83.6424L115.067 83.9872L112.407 82.9933L112.218 83.4991C111.985 84.0781 111.677 84.5012 111.289 84.762L111.105 84.42C111.414 84.2108 111.665 83.8603 111.858 83.3648L112.176 82.5142L112.933 82.7969L112.985 82.2571L112.318 82.0079L112.444 81.6707L113.763 82.1634C113.761 82.0216 113.748 81.8844 113.727 81.7571L114.124 81.8371ZM113.285 82.9285L113.99 83.1917C114.116 83.0595 114.23 82.9142 114.33 82.7596L113.334 82.3873L113.285 82.9285Z" fill="white"/>
<path d="M116.711 82.9906L118.848 83.7599L118.376 85.0734L116.238 84.3041L116.711 82.9906ZM118.14 84.606L118.369 83.97L116.946 83.458L116.717 84.094L118.14 84.606ZM117.025 84.906L116.415 86.5997L116.069 86.4751L116.134 86.2944L115.438 86.0439L115.373 86.2245L115.022 86.0986L115.632 84.4049L117.025 84.906ZM115.558 85.7089L116.254 85.9595L116.556 85.1202L115.86 84.8696L115.558 85.7089ZM118.778 85.5372L118.169 87.2309L117.811 87.1022L117.876 86.9215L117.15 86.6601L117.085 86.8408L116.735 86.7148L117.344 85.0212L118.778 85.5372ZM117.271 86.3252L117.997 86.5866L118.299 85.7473L117.573 85.4859L117.271 86.3252Z" fill="white"/>
<path d="M119.976 84.2432L122.954 85.2747L122.834 85.6225L122.229 85.413L121.915 86.3201L122.712 86.5964L122.592 86.9441L121.794 86.6679L121.228 88.3045L120.869 88.1801L121.435 86.5435L120.422 86.1927C120.254 86.5576 120.073 86.8464 119.872 87.0604C119.619 87.3281 119.292 87.49 118.896 87.5436L118.808 87.1744C119.172 87.1015 119.459 86.9467 119.662 86.7126C119.802 86.5409 119.933 86.3236 120.056 86.0657L119.224 85.7777L119.345 85.43L120.203 85.7271C120.213 85.6969 120.227 85.668 120.235 85.6453L120.521 84.8213L119.855 84.5909L119.976 84.2432ZM120.884 84.947L120.598 85.7709C120.588 85.8012 120.575 85.8263 120.566 85.8528L121.556 86.1958L121.87 85.2886L120.884 84.947Z" fill="white"/>
<path d="M123.663 86.6483L124.331 85.6397L124.672 85.8204L124.241 86.4569L124.802 86.6438C124.968 86.3869 125.123 86.1097 125.272 85.8137L125.625 85.9817C125.48 86.2664 125.33 86.5283 125.178 86.7687L126.917 87.3469L126.802 87.6923L124.972 87.0838C124.893 87.1965 124.812 87.3002 124.736 87.4015L126.254 87.9064L126.153 88.2101C125.951 88.4885 125.672 88.7075 125.307 88.8646C125.543 89.12 125.843 89.3841 126.203 89.6558L125.904 89.9356C125.5 89.6158 125.175 89.3011 124.929 89.0002C124.56 89.1092 124.129 89.1766 123.635 89.2022L123.559 88.7975C123.984 88.7871 124.361 88.7438 124.685 88.6702C124.504 88.3908 124.389 88.1164 124.342 87.8521C123.881 88.3229 123.387 88.6559 122.862 88.8523L122.787 88.4564C123.465 88.1676 124.066 87.6676 124.589 86.9563L123.663 86.6483ZM124.669 87.7418C124.72 88.0074 124.848 88.2818 125.054 88.5612C125.358 88.4471 125.602 88.2965 125.781 88.1117L124.669 87.7418ZM126.277 86.152C126.473 86.4365 126.627 86.7108 126.738 86.9713L126.394 87.1436C126.308 86.8957 126.163 86.6201 125.955 86.3103L126.277 86.152Z" fill="white"/>
<path d="M128.418 89.9135C128.004 90.1424 127.429 90.2352 126.694 90.1934L126.595 89.8214C127.364 89.8616 127.923 89.7803 128.271 89.5724L128.364 89.5056L126.886 89.0324L126.995 88.6895L128.66 89.2225C128.825 89.0232 128.96 88.785 129.065 88.508L129.214 88.0432L129.564 88.1554L129.416 88.6201C129.314 88.8984 129.19 89.1402 129.041 89.3444L130.237 89.7273L130.128 90.0702L128.783 89.6397C128.754 89.6641 128.725 89.6885 128.7 89.7141C129.16 90.0881 129.566 90.4868 129.92 90.9025L129.622 91.1515C129.252 90.6803 128.85 90.2701 128.418 89.9135ZM127.772 88.1401C128.007 88.3372 128.212 88.5498 128.387 88.7779L128.108 89.0039C127.93 88.7492 127.726 88.5328 127.506 88.3533L127.772 88.1401ZM128.316 87.7263C128.552 87.9195 128.757 88.1321 128.928 88.3591L128.65 88.585C128.47 88.3342 128.271 88.1152 128.051 87.9356L128.316 87.7263ZM130.758 87.983L130.508 88.764L130.157 88.6518L130.301 88.2022L127.817 87.4071L127.674 87.8567L127.323 87.7445L127.573 86.9635L129.002 87.4208C128.994 87.3007 128.984 87.1883 128.967 87.0822L129.356 87.1395C129.368 87.2608 129.372 87.3924 129.367 87.5379L130.758 87.983Z" fill="white"/>
<path d="M131.179 88.3047L131.733 88.4756C131.72 88.2874 131.699 88.1095 131.666 87.9445L132.057 87.9938C132.074 88.1706 132.085 88.3665 132.085 88.5841L132.536 88.7232L132.427 89.0749L131.682 88.845L131.544 89.2922L132.22 89.5009C131.914 90.4947 131.705 91.1042 131.602 91.3279C131.493 91.5454 131.289 91.612 130.983 91.5177C130.952 91.5083 130.901 91.4841 130.831 91.4541L130.851 91.1044C130.916 91.1371 130.975 91.1636 131.028 91.1802C131.162 91.2214 131.263 91.1812 131.329 91.0595C131.389 90.9354 131.538 90.4918 131.78 89.7335L131.436 89.6274C131.153 90.465 130.819 91.0444 130.435 91.3656L130.237 91.0449C130.586 90.7422 130.891 90.1749 131.149 89.3504L131.338 88.7389L131.07 88.6563L131.179 88.3047ZM133.018 89.1147C132.807 89.351 132.592 89.5443 132.373 89.6986L132.223 89.3426C132.536 89.1293 132.848 88.7946 133.163 88.3434L133.48 88.5248C133.406 88.6276 133.335 88.7229 133.264 88.8181L134.583 89.2249L134.478 89.565L133.018 89.1147ZM134.213 89.9481C133.988 90.6781 133.832 91.1156 133.754 91.2591C133.673 91.4014 133.507 91.438 133.254 91.3602L133.235 91.3543L133.238 91.0202C133.303 91.0403 133.359 91.0618 133.409 91.0771C133.451 91.0901 133.489 91.0601 133.519 90.9898C133.547 90.9272 133.626 90.6964 133.749 90.2989L133.427 90.3125L133.042 91.5586L132.706 91.4548L133.054 90.3272L132.728 90.3396L132.42 91.3373C132.368 91.5054 132.398 91.611 132.513 91.6464L133.235 91.8692C133.316 91.894 133.383 91.8937 133.433 91.8673C133.493 91.8356 133.565 91.7112 133.649 91.4904L133.932 91.6865C133.796 92.0046 133.679 92.1819 133.574 92.2247C133.479 92.2585 133.355 92.2537 133.195 92.2042L132.312 91.9318C132.052 91.8517 131.975 91.6396 132.079 91.3032L132.371 90.3553L132.07 90.3671L132.172 90.0384L132.473 90.0266L132.631 89.5144L132.952 89.6134L132.829 90.0109L133.156 89.9947L133.341 89.3946L133.678 89.4983L133.529 89.9799L134.213 89.9481Z" fill="white"/>
<path d="M135.843 89.741L135.245 89.5629L135.337 89.2562L136.602 89.6329C136.59 89.5585 136.578 89.4881 136.563 89.4253L136.976 89.4815C136.985 89.5635 136.996 89.6542 137 89.7516L138.327 90.1465L138.236 90.4532L137.626 90.2717L137.446 90.4686L138.347 90.7368L138.254 91.0512L134.903 90.0536L134.997 89.7393L135.867 89.9984L135.843 89.741ZM136.246 90.1114L137.067 90.3556L137.246 90.1587L136.223 89.8539L136.246 90.1114ZM135.254 90.3334L137.807 91.0935L137.451 92.2896L134.898 91.5295L135.254 90.3334ZM137.177 91.9074L137.234 91.7158L135.393 91.1679L135.336 91.3596L137.177 91.9074ZM135.471 90.9072L137.311 91.4551L137.367 91.2672L135.527 90.7194L135.471 90.9072ZM134.708 91.6356L135.039 91.8135C134.86 92.0901 134.66 92.3142 134.437 92.4898L134.18 92.2007C134.395 92.0393 134.568 91.8528 134.708 91.6356ZM136.396 93.1274L135.461 92.849C135.165 92.7611 135.06 92.5835 135.137 92.3228L135.283 91.8321L135.651 91.9417L135.528 92.3557C135.5 92.4516 135.542 92.5185 135.661 92.5539L136.424 92.781C136.493 92.8016 136.547 92.8011 136.582 92.7822C136.631 92.7591 136.687 92.6675 136.753 92.5033L137.065 92.7172C136.954 92.9765 136.852 93.1253 136.751 93.1539C136.665 93.1782 136.546 93.172 136.396 93.1274ZM136.262 91.9523C136.369 92.1513 136.445 92.3197 136.49 92.4625L136.124 92.5832C136.074 92.4304 135.997 92.2532 135.893 92.0553L136.262 91.9523ZM137.434 92.3889C137.571 92.7009 137.667 92.9673 137.723 93.1844L137.357 93.3051C137.3 93.0627 137.21 92.7897 137.084 92.485L137.434 92.3889Z" fill="white"/>
<path d="M141.605 91.0209L140.985 93.1693L140.616 93.0628L141.133 91.2719L139.527 90.8084L139.009 92.6032L138.64 92.4968L139.261 90.3446L141.605 91.0209ZM140.059 91.1993L140.42 91.3036L140.213 92.0223C140.145 92.2276 140.068 92.4092 139.979 92.5749L140.305 92.6692L140.044 93.5762C140.003 93.7184 140.032 93.8058 140.131 93.8347L140.693 93.9966C140.739 94.0099 140.79 94.0039 140.839 93.9804C140.892 93.9542 140.969 93.8017 141.067 93.5217L141.383 93.7379C141.234 94.0985 141.117 94.302 141.031 94.3524C140.937 94.3917 140.823 94.3963 140.69 94.3663L139.933 94.1479C139.656 94.0681 139.565 93.8629 139.66 93.5362L139.897 92.7137C139.751 92.9463 139.585 93.1316 139.393 93.2762C139.047 93.5258 138.564 93.6532 137.945 93.6658L137.837 93.3018C138.457 93.2891 138.911 93.1744 139.194 92.9564C139.478 92.722 139.695 92.3764 139.852 91.918L140.059 91.1993Z" fill="white"/>
<path d="M143.761 92.1638L143.009 94.8445L142.659 94.7463L142.715 94.546L142.106 94.3754L142.019 94.6874L141.668 94.5891L142.451 91.7968L142.817 91.8993C142.945 91.7108 143.058 91.5141 143.151 91.2993L143.503 91.4519C143.405 91.653 143.293 91.8332 143.168 91.9976L143.761 92.1638ZM142.201 94.0365L142.81 94.207L143.023 93.4483L142.414 93.2777L142.201 94.0365ZM142.506 92.9503L143.114 93.1209L143.313 92.4122L142.704 92.2416L142.506 92.9503ZM144.195 93.2825C144.361 93.6696 144.48 93.9981 144.548 94.2747L144.202 94.3979C144.127 94.1027 144.006 93.7654 143.846 93.3843L144.195 93.2825ZM145.747 92.7248C145.375 94.0536 145.125 94.8685 145 95.1659C144.884 95.4324 144.66 95.5192 144.333 95.4274C144.256 95.4059 144.12 95.3593 143.93 95.2937L143.936 94.9338C144.103 94.989 144.247 95.0378 144.37 95.0723C144.524 95.1155 144.636 95.0594 144.704 94.9042C144.781 94.7181 144.974 94.0742 145.289 92.9787L144.323 92.7077C144.15 92.9086 143.968 93.0859 143.767 93.2374L143.629 92.887C143.986 92.5885 144.29 92.1876 144.531 91.682L144.88 91.8297C144.781 92.0346 144.671 92.2197 144.557 92.3912L145.747 92.7248Z" fill="white"/>
<path d="M146.818 92.3732C147.024 92.6494 147.188 92.914 147.311 93.1631L146.983 93.3472C146.881 93.1121 146.722 92.8447 146.502 92.544L146.818 92.3732ZM148.092 96.4367C147.88 96.3787 147.649 96.3116 147.403 96.2403C147.154 96.1679 146.955 96.0889 146.804 96.006C146.662 95.9175 146.552 95.788 146.473 95.6252C146.436 95.5449 146.399 95.5014 146.352 95.4887C146.271 95.4666 146.085 95.6023 145.793 95.8958L145.592 95.5712C145.87 95.3113 146.097 95.162 146.273 95.127L146.571 94.035L146.054 93.8937L146.147 93.5542L147.007 93.7892L146.609 95.2478C146.624 95.2685 146.638 95.2931 146.651 95.3215C146.711 95.4499 146.783 95.5524 146.865 95.6289C146.966 95.7145 147.127 95.7957 147.352 95.8656C147.571 95.9295 147.829 96.004 148.13 96.0862C148.319 96.1378 148.513 96.1867 148.707 96.2355C148.901 96.2844 149.053 96.3178 149.16 96.3385L148.972 96.677L148.092 96.4367ZM148.265 93.179L147.52 92.9755L147.603 92.6707L149.721 93.2494L149.651 93.5079C149.374 93.6397 149.091 93.7364 148.798 93.8058C148.804 93.8156 148.81 93.8216 148.816 93.8314L149.592 94.0433L149.124 95.7565C149.061 95.9841 148.903 96.0651 148.652 95.9966L148.355 95.9154L148.361 95.5895L148.63 95.6798C148.715 95.703 148.773 95.6732 148.796 95.5883L148.85 95.3915L148.295 95.2397L148.122 95.8725L147.786 95.7808L147.959 95.148L147.415 94.9994L147.24 95.6399L146.893 95.5451L147.462 93.4614L148.349 93.7039C148.245 93.5842 148.127 93.4564 147.992 93.3283L148.265 93.179ZM148.622 93.571C148.806 93.5342 148.982 93.4827 149.148 93.4204L148.284 93.1843C148.405 93.3169 148.52 93.4436 148.622 93.571ZM147.57 94.4322L147.496 94.7023L148.04 94.8509L148.114 94.5808L147.57 94.4322ZM148.449 94.6725L148.376 94.9426L148.931 95.0944L149.005 94.8243L148.449 94.6725ZM149.087 94.5233L149.161 94.2532L148.605 94.1014L148.532 94.3715L149.087 94.5233ZM148.196 94.2798L148.27 94.0097L147.726 93.8611L147.652 94.1312L148.196 94.2798Z" fill="white"/>
<path d="M153.54 94.5546L152.734 97.5687L152.379 97.4736L152.438 97.2534L151.761 97.0725L151.701 97.2967L151.346 97.2016L152.153 94.1836L153.54 94.5546ZM151.853 96.7286L152.53 96.9094L153.093 94.8034L152.416 94.6226L151.853 96.7286ZM150.643 94.2725C150.502 94.442 150.354 94.5929 150.203 94.7262L149.937 94.4357C150.281 94.1386 150.563 93.7958 150.779 93.4064L151.122 93.5808C151.044 93.7173 150.961 93.8401 150.88 93.9591L151.935 94.2412L151.841 94.5928L151.315 94.4523C151.243 94.6898 151.172 94.9109 151.094 95.1095L151.697 95.2707L151.603 95.6223L150.95 95.4477C150.911 95.5286 150.869 95.6084 150.833 95.6816C151.005 95.9842 151.173 96.3149 151.342 96.6747L151.027 96.9548C150.878 96.5507 150.749 96.2303 150.638 95.9937C150.367 96.3561 150.001 96.6266 149.532 96.7995L149.371 96.4417C149.853 96.2516 150.213 95.9586 150.456 95.5599C150.491 95.4907 150.531 95.4185 150.567 95.3454L149.806 95.1418L149.9 94.7902L150.715 95.0082C150.793 94.8096 150.865 94.5886 150.936 94.3511L150.643 94.2725Z" fill="white"/>
<path d="M154.625 94.407L154.951 96.424L153.676 98.0205L153.403 97.8L154.58 96.3265L154.279 94.465L154.625 94.407ZM155.286 94.5807L155.613 96.5977L154.338 98.1942L154.065 97.9737L155.241 96.5002L154.925 94.6346L155.286 94.5807Z" fill="white"/>
</svg>
