<svg width="67" height="39" viewBox="0 0 67 39" fill="none" xmlns="http://www.w3.org/2000/svg">
<path d="M4.853 2.37496L5.11587 2.62899L3.77402 3.96315L3.87533 5.84613L3.52504 5.86699L3.41509 3.82666L4.853 2.37496ZM5.49233 2.61809L5.74025 2.86643L4.41335 4.20628L4.51466 6.08926L4.16437 6.11011L4.05442 4.06979L5.49233 2.61809Z" fill="white"/>
<path d="M6.34573 2.95474C6.541 3.22829 6.69787 3.49065 6.81634 3.74182L6.4791 3.92686C6.38528 3.69121 6.23337 3.42613 6.02178 3.12282L6.34573 2.95474ZM7.53974 7.03571C7.33236 6.97528 7.10691 6.90542 6.86609 6.83108C6.62143 6.75563 6.42845 6.6744 6.28219 6.59011C6.142 6.49927 6.03829 6.36906 5.96113 6.20492C5.93023 6.12508 5.8931 6.08093 5.84701 6.06751C5.77021 6.04512 5.5816 6.17765 5.28503 6.46621L5.08895 6.13826C5.3716 5.88315 5.60149 5.73765 5.77748 5.7056L6.09416 4.6188L5.57572 4.46773L5.67419 4.12979L6.53442 4.38045L6.11031 5.83592C6.1212 5.85575 6.13592 5.87671 6.14841 5.90535C6.20268 6.03365 6.27247 6.13732 6.35393 6.21521C6.44963 6.30143 6.60469 6.38411 6.82519 6.45669C7.03913 6.5232 7.29147 6.60089 7.58717 6.68706C7.7715 6.74077 7.96464 6.79288 8.16161 6.84611C8.35474 6.89822 8.50675 6.93418 8.61268 6.95672L8.41917 7.29197L7.53974 7.03571ZM7.06082 3.74639L7.48325 3.86949L7.65222 3.2896L8.00169 3.39143L7.83271 3.97132L8.35499 4.1235L8.52285 3.54746L8.87615 3.65041L8.7083 4.22645L9.16529 4.35961L9.0657 4.7014L8.60871 4.56824L8.41064 5.24797L8.99053 5.41694L8.88981 5.76256L8.30993 5.59359L8.00556 6.63815L7.65225 6.5352L7.95662 5.49064L7.34602 5.31272C7.1098 5.72302 6.82267 5.99349 6.47583 6.12574L6.34198 5.7701C6.60179 5.67915 6.8187 5.49238 6.99271 5.20977L6.52804 5.07437L6.62875 4.72874L7.16255 4.88429C7.21596 4.75819 7.2628 4.62602 7.30421 4.48393L7.38366 4.21127L6.96122 4.08818L7.06082 3.74639ZM7.73312 4.3131L7.67829 4.50128C7.62682 4.67793 7.5683 4.83586 7.50817 4.985L8.05734 5.14502L8.2554 4.46529L7.73312 4.3131Z" fill="white"/>
<path d="M9.30691 5.44995L12.8089 6.36685L12.7136 6.73059L9.21167 5.81369L9.30691 5.44995Z" fill="white"/>
<path d="M15.2355 5.3249L15.6057 5.42673L15.4859 5.86255L16.6313 6.17758L16.5348 6.52855L15.3893 6.21352L15.2684 6.65319L16.7957 7.07324L16.6981 7.42806L15.1978 7.01544L14.887 8.14548L14.5206 8.04471L14.8314 6.91467L13.2501 6.47978L13.3477 6.12495L13.8954 6.27557L14.15 5.34994L14.5202 5.45177L14.2656 6.3774L14.8982 6.55136L15.2355 5.3249ZM16.0146 7.48484L16.2975 7.75347C15.5188 8.6843 14.4341 8.96263 13.0446 8.58463L13.0062 8.19654C14.3406 8.56355 15.3438 8.32503 16.0146 7.48484ZM14.111 6.84928L14.3068 7.1479C13.9845 7.44506 13.6208 7.68109 13.217 7.85213L13.0673 7.49151C13.4514 7.33166 13.801 7.11665 14.111 6.84928Z" fill="white"/>
<path d="M16.9652 9.61921L16.6314 9.50761L16.6684 9.13196C16.7632 9.17632 16.8593 9.21688 16.9504 9.24731C17.0376 9.27648 17.0984 9.24618 17.1275 9.15892L17.3989 8.34708C17.2535 8.35328 17.1055 8.35442 16.9575 8.35556L16.992 7.9622C17.1678 7.9788 17.3436 7.98274 17.5219 7.9791L17.7832 7.19761L17.3545 7.05431L17.4699 6.70908L17.8986 6.85239L18.1281 6.16574L18.4923 6.28749L18.2628 6.97414L18.6156 7.09208L18.5002 7.4373L18.1474 7.31936L17.9369 7.9491C18.0507 7.93655 18.162 7.91894 18.2746 7.89753L18.1516 8.26551C18.0365 8.28186 17.9252 8.29947 17.8151 8.31329L17.46 9.37551C17.3789 9.6183 17.2118 9.70164 16.9652 9.61921ZM19.0676 6.59789L20.7747 7.16857L20.3169 8.53808L18.6098 7.96739L19.0676 6.59789ZM20.0618 8.12802L20.148 7.87006L19.1427 7.53399L19.0564 7.79195L20.0618 8.12802ZM19.234 7.26084L20.2393 7.59691L20.3243 7.34274L19.319 7.00667L19.234 7.26084ZM18.2972 8.08223L20.4786 8.81144L20.3708 9.1339L19.4603 8.82953L19.3436 9.17855L20.091 9.42838L19.9845 9.74704L19.2371 9.49721L19.1027 9.89934C19.238 9.96143 19.3973 10.0273 19.587 10.0908C19.7918 10.1592 19.9689 10.21 20.1181 10.243L19.9028 10.559C19.7549 10.5096 19.6233 10.4614 19.5032 10.417C18.9999 10.2446 18.6699 10.0836 18.5145 9.93045C18.4045 9.81778 18.3237 9.6558 18.2758 9.44578C18.1188 9.62527 17.9403 9.7807 17.7404 9.91207L17.5484 9.59062C17.9357 9.3405 18.213 9.01566 18.3828 8.60851L18.6888 8.75297C18.6355 8.887 18.5735 9.00965 18.5051 9.12596C18.5453 9.38404 18.6261 9.57131 18.7538 9.68147L18.7841 9.70427L19.1151 8.71413L18.1894 8.40469L18.2972 8.08223Z" fill="white"/>
<path d="M23.3353 8.12085L23.3737 8.47756C23.1195 8.47504 22.8736 8.45435 22.6325 8.41382L22.2478 9.24955L23.1417 9.66095L23.7471 8.34558L24.0923 8.50446L23.4869 9.81983L24.2972 10.1928L24.1433 10.5271L23.333 10.1541L22.5671 11.8183L22.2219 11.6594L22.9878 9.99524L22.0867 9.58049C21.688 10.3129 21.1341 10.7317 20.4182 10.8425L20.262 10.4932C20.8983 10.4118 21.3932 10.0539 21.7379 9.41995L20.8912 9.03028L21.0451 8.69599L21.899 9.089L22.2435 8.34047C22.0054 8.28374 21.7668 8.20912 21.5331 8.1236L21.5679 7.76094C22.2557 7.99823 22.8448 8.11522 23.3353 8.12085Z" fill="white"/>
<path d="M26.5865 10.586L25.4272 9.91382L25.6098 9.59892L28.2639 11.1379L28.0813 11.4528L26.9187 10.7786L25.6987 12.8825L27.0794 13.6831L26.8948 14.0014L23.7978 12.2057L23.9824 11.8873L25.3665 12.6899L26.5865 10.586Z" fill="white"/>
<path d="M30.0311 11.9172L30.3553 12.1154L28.716 14.7982L29.1256 15.0485L30.7649 12.3657L31.0892 12.5638L29.4499 15.2466L30.4465 15.8556L30.2526 16.173L27.208 14.3126L27.4019 13.9952L28.3918 14.6001L30.0311 11.9172ZM31.3395 13.5887L31.5762 13.8458C31.0878 14.3536 30.6077 14.7634 30.1338 15.0786L29.9063 14.7989C30.3393 14.5197 30.8208 14.1155 31.3395 13.5887ZM29.0022 12.1511C28.8968 12.7148 28.7313 13.3309 28.5091 14.0014L28.1663 13.8951C28.3777 13.2883 28.5445 12.6777 28.6715 12.0709L29.0022 12.1511Z" fill="white"/>
<path d="M32.8397 13.6797C32.954 13.9786 33.0289 14.2575 33.0754 14.5137L32.7147 14.5985C32.6863 14.3584 32.6102 14.0741 32.4876 13.7509L32.8397 13.6797ZM31.7989 14.3713L32.5569 14.8489L31.655 16.2805C31.8153 16.2586 31.991 16.2274 32.1853 16.1891L32.0601 16.583C31.7122 16.6475 31.3635 16.6831 31.0162 16.6865L31.0778 16.3187C31.1618 16.3054 31.2306 16.2637 31.2754 16.1926L32.0515 14.9607L31.6048 14.6793L31.7989 14.3713ZM32.7533 15.5353L34.3947 16.5694L34.2092 16.8639C33.9212 17.1032 33.5967 17.2581 33.2335 17.3318C33.3606 17.6104 33.5435 17.9053 33.7799 18.2055L33.4324 18.3743C33.1793 18.0257 32.9965 17.693 32.873 17.3788C32.4896 17.402 32.0653 17.3475 31.607 17.2195L31.5983 16.8357C32.0231 16.9568 32.4075 17.0146 32.7535 17.0057C32.6641 16.6373 32.6607 16.2901 32.75 15.9682L32.5571 15.8466L32.7533 15.5353ZM33.0512 16.1579C32.999 16.4134 33.0137 16.6827 33.0966 16.9713C33.3838 16.9206 33.6433 16.8241 33.8736 16.6761L33.0512 16.1579ZM33.8133 14.3782L35.0113 15.133L34.5635 15.8437C34.5166 15.9182 34.5316 15.9844 34.6162 16.0377L34.914 16.2253L34.7285 16.5197L34.3461 16.2788C34.1058 16.1274 34.0599 15.9377 34.2006 15.7144L34.5034 15.2338L33.9416 14.8798L33.8776 14.9814C33.6559 15.3333 33.3038 15.4944 32.8269 15.4634L32.7694 15.0821C33.1347 15.1326 33.3932 15.0449 33.5382 14.8148L33.8133 14.3782Z" fill="white"/>
<path d="M36.1327 17.0771L37.0154 17.6419L37.6471 16.6547L37.9773 16.866L37.3456 17.8532L38.1812 18.3878L37.9786 18.7045L37.143 18.1699L35.981 19.986L35.6508 19.7747L36.8128 17.9586L35.93 17.3938L36.1327 17.0771ZM36.1317 15.7278C36.2451 16.0331 36.3248 16.3167 36.3686 16.5822L36.0073 16.6644C35.9738 16.4199 35.8963 16.1328 35.7692 15.8046L36.1317 15.7278ZM35.0618 16.4204L35.8401 16.9184L34.9217 18.3537C35.0856 18.3351 35.2614 18.3051 35.4505 18.2694L35.3256 18.6501C34.9806 18.7143 34.6317 18.7475 34.2845 18.7485L34.3464 18.3845C34.4339 18.374 34.5008 18.3361 34.544 18.2687L35.3373 17.0288L34.8656 16.727L35.0618 16.4204Z" fill="white"/>
<path d="M38.7041 18.8627L39.6014 18.051L39.8865 18.3103L39.3114 18.8203L39.8094 19.1404C40.0334 18.9325 40.2525 18.7024 40.4703 18.4525L40.7707 18.7026C40.5595 18.9425 40.349 19.1591 40.1426 19.3545L41.6837 20.3449L41.487 20.6511L39.865 19.6088C39.76 19.6982 39.6559 19.7787 39.5574 19.8581L40.9034 20.7231L40.7304 20.9923C40.4656 21.212 40.1407 21.355 39.7489 21.4171C39.9139 21.7228 40.1391 22.053 40.4213 22.4055L40.0618 22.6024C39.7498 22.1927 39.5125 21.8072 39.349 21.4549C38.9643 21.4691 38.5297 21.4276 38.0454 21.3304L38.0718 20.9194C38.4862 21.0145 38.8621 21.0659 39.194 21.0747C39.0877 20.7592 39.0439 20.4648 39.0638 20.197C38.5015 20.5393 37.9401 20.7396 37.383 20.8L37.4084 20.3979C38.1366 20.2858 38.8422 19.95 39.5251 19.3904L38.7041 18.8627ZM39.4085 20.1713C39.3919 20.4412 39.4479 20.7387 39.5787 21.0605C39.901 21.0251 40.1748 20.9395 40.3944 20.8049L39.4085 20.1713ZM41.3598 19.0289C41.4796 19.3531 41.5601 19.6569 41.6037 19.9369L41.2278 20.0186C41.2056 19.7571 41.134 19.4543 41.0082 19.1025L41.3598 19.0289Z" fill="white"/>
<path d="M42.3516 21.4534L42.8166 21.7509L42.989 21.4813L42.4263 21.1214L42.2625 21.3774C42.1332 21.5796 41.9947 21.7664 41.8581 21.9355L42.4545 22.317L42.6355 22.0339L42.1705 21.7365L42.3516 21.4534ZM41.6323 22.1994C41.3333 22.5257 41.0155 22.7925 40.6809 22.9964L40.5702 22.5979C41.054 22.3091 41.5089 21.8356 41.939 21.1705L42.6632 20.0383L45.241 21.6872L44.6806 22.5633L44.2122 22.2637L44.0398 22.5333L44.5452 22.8566L44.3642 23.1396L43.8587 22.8163L43.6777 23.0994L44.2977 23.496L44.1123 23.7857L43.7753 23.5702L43.8479 23.8873C43.6616 23.9485 43.4802 23.9797 43.3072 23.983C43.4165 24.1906 43.5667 24.3864 43.761 24.5724L43.4154 24.7787C42.9102 24.2324 42.6966 23.6162 42.7712 22.9279L42.3534 22.6606L41.9438 23.3009C42.1784 23.3797 42.3936 23.4366 42.5862 23.4696L42.4593 23.8015C42.126 23.7213 41.7508 23.5952 41.3337 23.4234L41.425 23.0877C41.5519 23.1119 41.6477 23.0735 41.7167 22.9656L42.04 22.4602L41.6323 22.1994ZM43.0947 23.1348C43.0958 23.3112 43.1212 23.4794 43.1687 23.6427C43.3463 23.6471 43.5332 23.6147 43.7315 23.5422L43.0947 23.1348ZM43.9022 22.0654L43.2956 21.6774L43.1232 21.947L43.7298 22.335L43.9022 22.0654ZM42.7611 22.5131L43.3677 22.9011L43.5487 22.618L42.9422 22.2301L42.7611 22.5131ZM44.73 21.7734L42.7992 20.5384L42.6095 20.8349L44.5403 22.07L44.73 21.7734Z" fill="white"/>
<path d="M45.4406 22.826L46.5532 23.5288L46.393 23.7824C45.7564 24.4306 45.0559 24.783 44.295 24.8417L44.2587 24.4497C44.9034 24.4028 45.4971 24.1296 46.0388 23.6391L45.244 23.1371L45.4406 22.826ZM48.2318 24.1444L48.3705 24.5017C47.9126 24.6572 47.4733 24.7535 47.0572 24.7981C47.0569 25.3752 47.176 25.9282 47.4143 26.4573L47.0255 26.6233C46.7575 25.8342 46.6682 25.0918 46.7589 24.4015L45.883 25.7881C45.7335 26.0248 45.545 26.076 45.3252 25.9372L44.8788 25.6552L45.0064 25.2958C45.1399 25.3991 45.2709 25.4913 45.3994 25.5725C45.4772 25.6216 45.5498 25.5965 45.6096 25.5018L47.2994 22.8268L47.624 23.0319L47.1818 23.7319C47.1213 23.9776 47.0862 24.2203 47.0677 24.4594C47.4623 24.3964 47.8504 24.2914 48.2318 24.1444Z" fill="white"/>
<path d="M49.3524 24.3106L52.12 26.0258L51.924 26.342L50.6865 25.575L49.9405 26.7786L51.3073 27.6257L51.1156 27.9351L49.7488 27.088L49.0197 28.2644L48.6933 28.0621L49.4224 26.8857L48.0828 26.0555L48.2745 25.7461L49.6141 26.5763L50.3601 25.3727L49.1565 24.6268L49.3524 24.3106ZM49.5334 25.0816C49.5125 25.3887 49.4756 25.714 49.4184 26.0645L49.0231 26.0265C49.0879 25.6714 49.1269 25.3426 49.1402 25.0403L49.5334 25.0816ZM51.3778 26.2059L51.5872 26.5286C51.3264 26.7293 51.0392 26.9042 50.7268 27.0589L50.5271 26.7281C50.8471 26.5687 51.1288 26.3951 51.3778 26.2059Z" fill="white"/>
<path d="M53.4741 27.4439L52.0336 29.8263L51.7221 29.6379L51.8297 29.4599L51.2889 29.1329L51.1212 29.4102L50.8098 29.2218L52.3103 26.7402L52.6354 26.9368C52.8088 26.7892 52.9706 26.6299 53.118 26.448L53.4163 26.6891C53.2682 26.8567 53.1113 27.0002 52.9469 27.1252L53.4741 27.4439ZM51.471 28.8317L52.0118 29.1587L52.4196 28.4844L51.8787 28.1574L51.471 28.8317ZM52.0547 27.8664L52.5955 28.1934L52.9763 27.5636L52.4355 27.2366L52.0547 27.8664ZM53.5935 28.6379C53.6497 29.0552 53.6773 29.4038 53.6688 29.6884L53.3024 29.7146C53.3089 29.4101 53.282 29.0526 53.2306 28.6429L53.5935 28.6379ZM55.2382 28.5152C54.5242 29.6962 54.0662 30.4149 53.8664 30.668C53.6832 30.8938 53.4444 30.9177 53.1534 30.7418C53.085 30.7004 52.9659 30.619 52.801 30.5053L52.9023 30.1599C53.0488 30.2578 53.1747 30.3433 53.2842 30.4095C53.4211 30.4923 53.5433 30.468 53.6508 30.3367C53.7748 30.1779 54.1328 29.6091 54.7295 28.6377L53.8703 28.1182C53.6503 28.2656 53.4269 28.3877 53.1934 28.4802L53.1535 28.1055C53.5781 27.9135 53.9777 27.6082 54.3455 27.1855L54.6424 27.4211C54.4923 27.5921 54.3367 27.7411 54.1805 27.8757L55.2382 28.5152Z" fill="white"/>
<path d="M56.476 29.1041L55.9376 28.7885L56.0995 28.5125L57.2382 29.18C57.245 29.1052 57.2498 29.0338 57.2505 28.9693L57.6383 29.1225C57.6274 29.2042 57.616 29.2949 57.5971 29.3904L58.791 30.0904L58.6292 30.3665L58.0805 30.0448L57.8591 30.1932L58.67 30.6686L58.5041 30.9515L55.4882 29.1834L55.6541 28.9005L56.4374 29.3597L56.476 29.1041ZM56.779 29.56L57.5175 29.9929L57.7389 29.8445L56.8176 29.3044L56.779 29.56ZM55.7621 29.5388L58.0603 30.8861L57.4291 31.9627L55.1309 30.6154L55.7621 29.5388ZM57.2538 31.5261L57.355 31.3536L55.6986 30.3825L55.5975 30.5551L57.2538 31.5261ZM55.8362 30.1479L57.4926 31.1189L57.5917 30.9498L55.9353 29.9788L55.8362 30.1479ZM54.9209 30.6731L55.1999 30.9248C54.9607 31.1508 54.7128 31.3208 54.4539 31.438L54.2742 31.0961C54.5214 30.9907 54.7334 30.8506 54.9209 30.6731ZM56.2048 32.5247L55.3628 32.031C55.0971 31.8753 55.0368 31.6776 55.1743 31.443L55.4333 31.0013L55.7645 31.1955L55.5461 31.5682C55.4955 31.6544 55.5209 31.7296 55.6279 31.7924L56.3146 32.1949C56.3767 32.2313 56.4297 32.2438 56.468 32.2338C56.5207 32.223 56.5975 32.1475 56.7003 32.0037L56.9522 32.2859C56.783 32.5112 56.6477 32.6313 56.5434 32.6351C56.4536 32.6381 56.3393 32.6036 56.2048 32.5247ZM56.3547 31.3514C56.4118 31.5703 56.4446 31.7518 56.4543 31.9013L56.0704 31.9312C56.0578 31.7708 56.0257 31.5804 55.9721 31.3635L56.3547 31.3514ZM57.3889 32.055C57.4472 32.3906 57.4768 32.6723 57.4798 32.8966L57.0959 32.9265C57.0982 32.6775 57.076 32.3909 57.0261 32.0649L57.3889 32.055Z" fill="white"/>
<path d="M61.8454 31.7447L60.7444 33.6908L60.4102 33.5017L61.328 31.8794L59.8727 31.0561L58.953 32.6819L58.6187 32.4929L59.7217 30.5432L61.8454 31.7447ZM60.3001 31.5598L60.6274 31.745L60.2591 32.396C60.1457 32.5801 60.0283 32.7388 59.9029 32.8793L60.1989 33.0467L59.734 33.8683C59.6612 33.9971 59.669 34.0889 59.7595 34.1401L60.2678 34.4277C60.3096 34.4513 60.3612 34.4575 60.4138 34.4459C60.4717 34.4327 60.5823 34.3023 60.742 34.0525L60.9997 34.3362C60.7704 34.6522 60.6094 34.8231 60.5147 34.8523C60.4136 34.8686 60.3019 34.8468 60.1796 34.7868L59.4937 34.3987C59.243 34.2569 59.2024 34.0363 59.3698 33.7404L59.7913 32.9954C59.5952 33.1877 59.3909 33.3295 59.171 33.4257C58.7758 33.5882 58.2772 33.6002 57.6713 33.4689L57.6513 33.0899C58.2572 33.2213 58.725 33.2148 59.0514 33.0685C59.3821 32.9063 59.6726 32.6203 59.9318 32.2109L60.3001 31.5598Z" fill="white"/>
<path d="M63.085 32.2361L62.9219 34.2729L61.3033 35.5199L61.0907 35.2407L62.5844 34.0898L62.7351 32.2101L63.085 32.2361ZM63.6862 32.5624L63.5231 34.5991L61.9044 35.8461L61.6919 35.5669L63.1856 34.416L63.3222 32.5287L63.6862 32.5624Z" fill="white"/>
</svg>
