<svg width="136" height="37" viewBox="0 0 136 37" fill="none" xmlns="http://www.w3.org/2000/svg">
<path d="M5.16203 17.2877L5.42018 17.5465L4.05399 18.8558L4.12063 20.7403L3.77002 20.7547L3.69764 18.7127L5.16203 17.2877ZM5.79677 17.5425L6.04008 17.7954L4.68874 19.1106L4.75538 20.9951L4.40477 21.0095L4.33239 18.9675L5.79677 17.5425Z" fill="white"/>
<path d="M7.51138 18.2636C7.58088 18.505 7.63943 18.7636 7.68329 19.038L7.40724 19.064L8.17935 19.3631C8.39598 19.2025 8.61358 18.9951 8.83071 18.7446L9.14148 18.9722C8.96406 19.1866 8.77438 19.3662 8.57845 19.5177L9.28714 19.7922L9.15422 20.1353L7.93826 19.6643L7.89347 19.78C7.81666 19.9561 7.73444 20.113 7.64909 20.2558L9.13362 20.8308L9.0007 21.174L7.69521 20.6683C7.70316 21.1905 8.03215 21.7254 8.68074 22.2769L8.34183 22.5317C7.68279 21.9075 7.35141 21.2901 7.33879 20.6804C7.20374 20.8297 7.06101 20.9546 6.91201 21.0513C6.52835 21.2888 6.01463 21.3857 5.37087 21.3423L5.29683 20.9576C5.94348 20.9936 6.42242 20.9088 6.73737 20.7048C6.85014 20.6241 6.95605 20.5279 7.05366 20.4198L5.77801 19.9257L5.91093 19.5826L7.28356 20.1142C7.37408 19.9691 7.46003 19.8137 7.53539 19.6413L7.58018 19.5256L6.36048 19.0532L6.4934 18.71L7.29161 19.0192C7.25232 18.7552 7.19546 18.5144 7.12619 18.2946L7.51138 18.2636Z" fill="white"/>
<path d="M10.5398 19.5548L13.3788 20.6079L13.2494 20.9566L12.053 20.5129L11.7136 21.4279L13.1725 21.9691L13.0403 22.3254L11.5814 21.7842L11.1071 23.0631C11.0097 23.3256 10.8208 23.4091 10.5471 23.3076L9.95077 23.0864L10.0037 22.7135C10.1908 22.7957 10.3718 22.8714 10.5443 22.9354C10.6643 22.9799 10.7452 22.9459 10.7842 22.8409L11.2252 21.6521L9.70254 21.0873L9.8347 20.731L11.3573 21.2958L11.6968 20.3807L10.4104 19.9035L10.5398 19.5548Z" fill="white"/>
<path d="M13.89 22.5366L13.5358 23.5399C13.8691 23.5812 14.2252 23.6179 14.5993 23.6396L14.5778 24.0011C14.0685 23.9655 13.5547 23.9072 13.0386 23.831L13.0004 23.4825C13.1083 23.4654 13.1788 23.4097 13.2121 23.3154L14.0203 21.0258C14.5184 21.1168 14.983 21.1706 15.4155 21.1832L15.5368 21.5484C15.1625 21.5393 14.7445 21.4978 14.2814 21.4277L14.0112 22.1934L15.0522 22.5609L14.931 22.9041L13.89 22.5366ZM15.7679 24.6672L15.4133 24.542L15.4378 24.1604L15.7708 24.2864C15.8689 24.3211 15.9379 24.2818 15.9752 24.1762L16.6648 22.2223L15.9218 21.96L14.8753 24.9248L14.5132 24.7969L15.6795 21.4928L17.1468 22.0107L16.3106 24.3794C16.2108 24.6623 16.0282 24.7591 15.7679 24.6672Z" fill="white"/>
<path d="M17.4196 23.2609L18.0881 22.2523L18.4285 22.4329L17.9975 23.0695L18.5593 23.2563C18.7248 22.9994 18.8802 22.7223 19.0293 22.4262L19.3823 22.5942C19.237 22.8789 19.0867 23.1409 18.935 23.3813L20.6734 23.9595L20.5585 24.3049L18.7291 23.6964C18.6494 23.809 18.5686 23.9128 18.4927 24.014L20.0109 24.519L19.91 24.8227C19.7077 25.1011 19.4283 25.3201 19.0642 25.4772C19.2996 25.7325 19.5995 25.9967 19.9602 26.2684L19.6606 26.5482C19.2569 26.2284 18.9316 25.9137 18.686 25.6128C18.3167 25.7218 17.8855 25.7891 17.3922 25.8147L17.316 25.41C17.741 25.3996 18.1179 25.3564 18.4417 25.2828C18.2606 25.0034 18.1453 24.7289 18.0984 24.4646C17.6382 24.9355 17.1439 25.2684 16.6191 25.4648L16.5442 25.069C17.222 24.7801 17.8225 24.2801 18.3457 23.5689L17.4196 23.2609ZM18.4259 24.3543C18.4767 24.6199 18.6046 24.8943 18.811 25.1738C19.1145 25.0597 19.3585 24.909 19.538 24.7242L18.4259 24.3543ZM20.0338 22.7646C20.2301 23.049 20.3833 23.3234 20.4948 23.5839L20.1509 23.7562C20.0647 23.5083 19.9203 23.2327 19.7114 22.9229L20.0338 22.7646Z" fill="white"/>
<path d="M21.7372 23.3857C21.8905 23.6342 22.0107 23.8682 22.1003 24.0928L21.7688 24.2707C21.696 24.0597 21.5732 23.8207 21.4043 23.5548L21.7372 23.3857ZM21.3665 24.2717C21.5198 24.5202 21.6426 24.7592 21.731 24.9876L21.4007 25.1617C21.3252 24.9457 21.2025 24.7066 21.0336 24.4408L21.3665 24.2717ZM21.2698 25.3682L21.5529 25.5898C21.2715 26.0387 20.9869 26.4572 20.7015 26.8378L20.4114 26.5847C20.7168 26.1935 21.0017 25.7876 21.2698 25.3682ZM22.8628 25.3758L22.748 25.7464C22.6233 25.7706 22.4959 25.7898 22.3735 25.8063L22.0528 26.8418C21.9747 27.094 21.8237 27.1896 21.6021 27.121L21.2926 27.0251L21.3144 26.6843C21.4052 26.7292 21.4945 26.7652 21.5786 26.7912C21.6397 26.8102 21.6919 26.7635 21.7262 26.6527L21.9747 25.8503L21.6182 25.8655L21.6419 25.4918C21.7901 25.5 21.9368 25.4994 22.0847 25.495L22.3534 24.6276L21.9751 24.5104L22.0721 24.1971L22.4504 24.3143L22.6611 23.6342L23.0126 23.743L22.8019 24.4232L23.1191 24.5214L23.022 24.8347L22.7049 24.7365L22.4836 25.451C22.6072 25.4306 22.7369 25.4038 22.8628 25.3758ZM24.6658 24.3137L24.7366 24.6664C24.3966 24.6825 24.0352 24.646 23.6537 24.553L23.4525 25.2025L24.53 25.5362L24.4294 25.861L24.1008 25.7592L23.4878 27.7385L23.1439 27.632L23.7569 25.6527L23.3519 25.5273L23.2797 25.7604C23.0369 26.4766 22.7169 27.0098 22.3195 27.3599L22.1554 27.0243C22.4718 26.7329 22.7341 26.2781 22.9435 25.6562L23.4074 24.1584C23.853 24.2881 24.2728 24.3385 24.6658 24.3137Z" fill="white"/>
<path d="M27.3292 25.6165L26.3943 25.3507L26.4927 25.0044L28.6896 25.629L28.5912 25.9753L27.687 25.7183L26.9727 28.2307L28.0077 28.5249L27.9081 28.8751L25.3919 28.1597L25.4914 27.8095L26.6149 28.1289L27.3292 25.6165ZM25.6971 24.5994C25.914 24.8607 26.0934 25.1071 26.2267 25.3405L25.8994 25.5261C25.7871 25.307 25.6087 25.0567 25.3683 24.7762L25.6971 24.5994ZM25.3357 25.4905C25.5525 25.7518 25.722 26.0038 25.8542 26.2409L25.5281 26.4227C25.4168 26.1998 25.2423 25.9505 25.0068 25.6673L25.3357 25.4905ZM25.4531 26.6426L25.7413 26.8576C25.4166 27.2975 25.0814 27.7013 24.7357 28.0687L24.4398 27.8224C24.808 27.4489 25.1448 27.0539 25.4531 26.6426Z" fill="white"/>
<path d="M30.6868 25.916L31.047 26.0088L30.7925 26.9966L30.4323 26.9038L30.6868 25.916ZM29.3621 27.45C29.1827 27.4409 29.0033 27.4319 28.8249 27.419L28.7596 27.0469C29.9773 27.1624 30.9518 27.0996 31.6793 26.8574C31.5774 26.7238 31.4678 26.5882 31.3504 26.4505L31.6592 26.2781C31.9834 26.6549 32.2496 27.0168 32.4508 27.3578L32.1283 27.5514C32.0594 27.418 31.9789 27.2816 31.8829 27.1412C31.4773 27.2887 31.0148 27.3843 30.4906 27.431L31.8618 27.7843L31.3198 29.8876L30.9596 29.7948L30.9975 29.6476L29.2893 29.2074L29.2494 29.3624L28.893 29.2705L29.3621 27.45ZM29.3731 28.882L31.0813 29.3222L31.1482 29.0627L29.44 28.6225L29.3731 28.882ZM29.5159 28.3281L31.2241 28.7683L31.2849 28.532L29.5767 28.0919L29.5159 28.3281ZM29.6516 27.8014L31.3598 28.2415L31.4227 27.9975L29.7145 27.5573L29.6516 27.8014ZM30.0218 25.9801L30.2224 26.2755C29.921 26.4994 29.5744 26.6744 29.1835 26.7968L29.0413 26.4668C29.4108 26.3473 29.737 26.1876 30.0218 25.9801Z" fill="white"/>
<path d="M36.0873 27.8044L35.3991 30.7942L35.0405 30.7117L35.097 30.4661L34.4811 30.3244L34.4246 30.5699L34.0699 30.4883L34.7581 27.4985L36.0873 27.8044ZM34.5628 29.9696L35.1787 30.1114L35.647 28.0766L35.0311 27.9348L34.5628 29.9696ZM33.4318 26.6268L33.7982 26.7111L33.6241 27.4673L34.4077 27.6477C34.1152 28.9184 33.9153 29.6975 33.8073 29.9887C33.7001 30.2759 33.4711 30.3792 33.1281 30.3002C33.0657 30.2859 32.9661 30.2548 32.8285 30.2108L32.813 29.8501C32.9429 29.8923 33.0541 29.9261 33.1477 29.9477C33.3114 29.9853 33.4304 29.9142 33.4989 29.7412C33.5645 29.5634 33.7161 28.958 33.9626 27.9229L33.5416 27.826C33.2571 28.9549 32.8126 29.7269 32.2034 30.1449L31.9831 29.8356C32.5235 29.4674 32.9227 28.7671 33.1752 27.7416L32.5827 27.6052L32.6652 27.2466L33.2577 27.383L33.4318 26.6268Z" fill="white"/>
<path d="M37.9706 28.2114L38.6372 28.3454L38.75 27.7846L39.1108 27.8572L38.998 28.4179L39.8333 28.5859L39.5968 29.7623L39.8635 29.8159L39.7901 30.1806L38.8019 29.982C38.9387 30.5195 39.219 30.992 39.6516 31.3972L39.3415 31.6409C38.9184 31.1886 38.6341 30.6745 38.4958 30.104C38.1933 30.6552 37.7646 31.0219 37.2043 31.2112L37.0383 30.8596C37.5586 30.7071 37.9519 30.3741 38.2176 29.8645L37.5039 29.721L37.5772 29.3563L38.3654 29.5148C38.4221 29.3548 38.4685 29.1846 38.5048 29.0042L38.5671 28.6944L37.9004 28.5604L37.9706 28.2114ZM38.9279 28.767L38.8821 28.9944C38.8396 29.2062 38.7837 29.403 38.7223 29.5865L39.236 29.6898L39.4024 28.8623L38.9279 28.767ZM36.6284 28.1496L36.9107 28.2268C36.8241 28.6174 36.7052 28.9852 36.5598 29.3231L36.2752 29.1761C36.4245 28.8594 36.5425 28.5159 36.6284 28.1496ZM37.7069 28.2645C37.7624 28.5367 37.7981 28.8458 37.8151 29.1879L37.4981 29.2017C37.4945 28.895 37.465 28.5953 37.4143 28.2995L37.7069 28.2645ZM37.1923 27.4756L37.557 27.5489L36.8349 31.141L36.4702 31.0677L37.1923 27.4756Z" fill="white"/>
<path d="M40.7174 29.7599C40.5786 29.8821 40.4327 29.9991 40.2756 30.1101L40.2219 29.6909C40.7012 29.3106 41.0903 28.8418 41.3865 28.2758L41.7128 28.5023C41.5634 28.781 41.3845 29.0425 41.1801 29.2874L40.7274 31.9208L40.3568 31.8571L40.7174 29.7599ZM41.6553 28.8131L42.4122 28.9432L42.6007 28.4845L42.9612 28.583C42.9032 28.7313 42.8427 28.8711 42.7867 29.0076L43.9221 29.2028L43.8597 29.5655L42.6298 29.354C42.568 29.4773 42.5115 29.5934 42.4557 29.7056L43.9577 29.9638L43.896 30.3225L42.2758 30.044C42.1948 30.1843 42.1198 30.3135 42.0423 30.4341L43.6113 30.7038L43.5557 31.0271C43.3546 31.2523 43.0708 31.4632 42.6956 31.6625C42.8463 31.7777 42.9916 31.9001 43.1284 32.0251L42.86 32.3118C42.4346 31.9058 41.9813 31.5681 41.5085 31.2961L41.7604 31.035C41.982 31.1624 42.1937 31.3003 42.3969 31.4407C42.7053 31.2989 42.9586 31.1477 43.1535 30.9823L41.4978 30.6976C41.6423 30.4708 41.7809 30.2309 41.917 29.9823L41.2942 29.8752L41.3558 29.5165L42.093 29.6432C42.1495 29.5271 42.206 29.411 42.2592 29.2903L41.593 29.1758L41.6553 28.8131Z" fill="white"/>
<path d="M45.3572 31.6771L45.3055 32.0374C44.9191 32.1679 44.4858 32.2594 44.0106 32.3044L44.0209 31.922C44.5193 31.8843 44.9674 31.8031 45.3572 31.6771ZM45.0558 28.874L45.3956 29.0682C45.1381 29.5121 44.893 29.869 44.6609 30.1347C44.7978 30.1382 44.9353 30.1377 45.0733 30.1332C45.1588 30.0161 45.2499 29.8878 45.3422 29.7515L45.6606 29.9264C45.2576 30.4829 44.9287 30.8883 44.6701 31.1422C44.9252 31.1101 45.1872 31.0587 45.4565 30.9842L45.4071 31.3286C44.9539 31.4455 44.5291 31.5059 44.1359 31.5142L44.0869 31.1516C44.1587 31.1295 44.2193 31.1019 44.273 31.0651C44.4145 30.952 44.6013 30.7485 44.8333 30.4544C44.6466 30.46 44.4526 30.4605 44.2507 30.4598L44.205 30.1017C44.2678 30.0865 44.3306 30.0429 44.3883 29.9785C44.6289 29.6533 44.8514 29.2851 45.0558 28.874ZM45.6065 30.7834L45.571 30.4389C45.6038 30.4355 45.6332 30.4276 45.6502 30.422C45.7815 30.3519 45.9682 30.1483 46.2054 29.8186L45.5917 29.7307L45.6433 29.3703L46.6055 29.5082C46.5761 29.3747 46.5416 29.2485 46.5021 29.1297L46.8953 29.1214C46.9286 29.2555 46.9602 29.4015 46.9856 29.5627L47.8527 29.687L47.8011 30.0473L46.5974 29.8748C46.4061 30.1383 46.2402 30.3368 46.0987 30.4782C46.424 30.4924 46.7504 30.4988 47.074 30.4967C47.0107 30.3745 46.9468 30.2562 46.8829 30.138L47.1936 30.0006C47.4067 30.3746 47.566 30.7005 47.6723 30.9744L47.3503 31.1343C47.3159 31.0364 47.2735 30.9374 47.2317 30.8345C46.7299 30.8393 46.1868 30.8221 45.6065 30.7834ZM45.8819 30.9481L46.2462 31.0003C46.1543 31.5004 46.0382 31.8595 45.9018 32.0784C45.7518 32.3074 45.5311 32.494 45.2357 32.6376L45.0407 32.3066C45.2828 32.1958 45.4656 32.0482 45.589 31.8639C45.7073 31.6869 45.8036 31.3814 45.8819 30.9481ZM47.0899 32.8386L46.8365 32.8023C46.5554 32.762 46.435 32.6155 46.4707 32.366L46.6642 31.0158L47.0245 31.0674L46.8412 32.3464C46.8322 32.4097 46.8503 32.4527 46.8966 32.4675L47.1184 32.4992C47.1908 32.5015 47.2417 32.4563 47.2632 32.3624C47.2904 32.2572 47.3205 32.1039 47.3489 31.9059L47.6571 32.0673C47.6026 32.4474 47.538 32.6725 47.4701 32.7517C47.4033 32.8229 47.2743 32.8489 47.0899 32.8386Z" fill="white"/>
<path d="M48.7136 30.2384C48.633 30.3781 48.5393 30.4921 48.4409 30.5773L48.1602 30.3234C48.3748 30.1388 48.5267 29.8705 48.6206 29.5109L48.9678 29.6074C48.9351 29.7164 48.9033 29.8174 48.8688 29.906L49.2304 29.9479L49.2847 29.479L49.6582 29.5222L49.6039 29.9911L50.3152 30.0733L50.2752 30.419L49.564 30.3368L49.5148 30.7619L50.3413 30.8575L50.3004 31.2112L49.4739 31.1156L49.4353 31.4493L50.2021 31.5381L50.0794 32.599C50.0491 32.8612 49.8988 32.9767 49.6286 32.9455L49.4339 32.923L49.3795 32.5583L49.5525 32.5944C49.6597 32.6068 49.7209 32.5656 49.731 32.4781L49.8041 31.8464L49.3948 31.799L49.2353 33.1778L48.8618 33.1346L49.0213 31.7558L48.612 31.7085L48.481 32.8409L48.1155 32.7986L48.2869 31.3165L49.0618 31.4061L49.1004 31.0724L48.1706 30.9648L48.2115 30.6112L49.1413 30.7187L49.1904 30.2936L48.7136 30.2384ZM50.6301 29.997L50.9956 30.0393L50.7143 32.4711L50.3488 32.4288L50.6301 29.997ZM51.0196 33.348L50.4275 33.2795L50.3859 32.9082C50.5748 32.9462 50.7527 32.9748 50.9275 32.9951C51.0308 33.007 51.0889 32.9574 51.1013 32.8501L51.4621 29.7309L51.8357 29.7741L51.4638 32.9886C51.4326 33.2588 51.2818 33.3783 51.0196 33.348Z" fill="white"/>
<path d="M52.7311 29.867C52.9745 30.1096 53.182 30.3491 53.346 30.5806L53.0555 30.8197C52.9147 30.5983 52.7155 30.3555 52.4501 30.0908L52.7311 29.867ZM54.6886 33.6645C54.4734 33.6453 54.2347 33.6199 53.9801 33.5931C53.7215 33.5659 53.5125 33.5232 53.3527 33.4687C53.1976 33.4066 53.0667 33.2985 52.9593 33.1524C52.9096 33.0797 52.8607 33.0432 52.8168 33.0392C52.7292 33.0314 52.5697 33.1979 52.3341 33.5422L52.0784 33.2583C52.3068 32.9494 52.5082 32.7627 52.6747 32.6972L52.7756 31.5697L52.2417 31.522L52.2731 31.1714L53.1616 31.2508L53.0265 32.7608C53.041 32.7782 53.0595 32.7959 53.0773 32.8216C53.1633 32.9377 53.2517 33.0259 53.3427 33.0863C53.4573 33.1528 53.6294 33.2043 53.8677 33.2337C54.0904 33.2576 54.357 33.2855 54.6678 33.3133C54.863 33.3307 55.0626 33.3446 55.2661 33.3587C55.4657 33.3726 55.6218 33.3785 55.734 33.3805L55.6089 33.7468L54.6886 33.6645ZM53.9996 30.7716C53.9237 30.9014 53.841 31.0185 53.7549 31.1272L53.4616 30.9042C53.6771 30.6504 53.8389 30.3677 53.9471 30.0561L54.2873 30.1588C54.2505 30.2559 54.2141 30.349 54.1744 30.4338L54.5728 30.4695L54.6127 30.0233L54.9753 30.0557L54.9353 30.5019L55.7202 30.5721L55.6888 30.9227L54.904 30.8525L54.8658 31.2788L55.8579 31.3676L55.8269 31.7142L53.3647 31.4939L53.3957 31.1473L54.5033 31.2464L54.5414 30.8201L53.9996 30.7716ZM53.665 31.7738L55.5136 31.9392L55.4084 33.1145L53.5598 32.9491L53.665 31.7738ZM55.0769 32.7354L55.12 32.2533L53.9965 32.1528L53.9534 32.6349L55.0769 32.7354Z" fill="white"/>
<path d="M57.43 30.2723L57.8092 30.2973L57.6022 33.4345L58.0812 33.4661L58.2881 30.3289L58.6673 30.3539L58.4604 33.4911L59.6259 33.568L59.6014 33.9392L56.0411 33.7044L56.0656 33.3332L57.2231 33.4095L57.43 30.2723ZM59.3647 31.1455L59.6937 31.2634C59.4967 31.9399 59.2616 32.5257 58.9882 33.0248L58.6568 32.8827C58.9109 32.4345 59.1497 31.8529 59.3647 31.1455ZM56.6272 30.957C56.7955 31.5052 56.9348 32.1278 57.0492 32.8248L56.6961 32.8897C56.6018 32.2541 56.4662 31.6358 56.297 31.0394L56.6272 30.957Z" fill="white"/>
<path d="M62.1526 31.4355C62.1254 31.5064 62.0984 31.5732 62.0715 31.6361C62.1721 32.0691 62.3071 32.4476 62.4765 32.7755C62.6853 32.4086 62.8052 31.9695 62.8399 31.4666L62.1526 31.4355ZM63.2076 31.4832C63.1498 32.1413 62.9768 32.69 62.6845 33.1333C62.9171 33.4801 63.1891 33.7527 63.5043 33.9551L63.2741 34.265C62.9512 34.0543 62.6755 33.7775 62.4507 33.435C62.1723 33.7468 61.8209 33.9912 61.3963 34.1722L61.1787 33.85C61.6269 33.6781 61.9824 33.4299 62.2533 33.1058C62.0911 32.7982 61.9546 32.4516 61.8477 32.0704C61.7703 32.1871 61.6932 32.2997 61.6085 32.4L61.3901 32.0938C61.6879 31.7068 61.9001 31.1759 62.0267 30.5009L62.3954 30.5816C62.3555 30.756 62.316 30.9224 62.2728 31.0806L63.5035 31.1362L63.4873 31.4959L63.2076 31.4832ZM60.4091 33.4229C60.7297 33.3293 61.0595 33.208 61.4024 33.0633L61.4386 33.4133C61.0059 33.598 60.5219 33.7643 59.9948 33.9087L59.8977 33.5759C59.9873 33.544 60.0388 33.4662 60.0446 33.3383L60.11 31.8918L60.9851 31.9314L61.0239 31.0722L59.969 31.0246L59.9854 30.6609L61.4119 30.7254L61.3408 32.2998L60.4617 32.2601L60.4091 33.4229Z" fill="white"/>
<path d="M64.2603 30.6101C64.5184 30.837 64.7406 31.0629 64.9188 31.2837L64.644 31.5406C64.4895 31.3284 64.2755 31.0987 63.9939 30.8512L64.2603 30.6101ZM66.4527 34.277C66.2368 34.2713 65.997 34.261 65.7412 34.2503C65.4814 34.2395 65.2701 34.2099 65.1072 34.1656C64.9485 34.1134 64.8111 34.0138 64.6947 33.8747C64.6405 33.8052 64.5894 33.7719 64.5454 33.7707C64.4574 33.7684 64.3087 33.9446 64.0952 34.3031L63.8222 34.0358C64.0307 33.7132 64.22 33.5141 64.382 33.4383L64.4118 32.3067L63.876 32.2926L63.8852 31.9408L64.7769 31.9642L64.7371 33.4797C64.7527 33.4961 64.7722 33.5126 64.7916 33.5371C64.8847 33.6476 64.9786 33.7301 65.0732 33.7846C65.1917 33.8437 65.3667 33.8843 65.6064 33.8987C65.8302 33.9085 66.098 33.9196 66.4099 33.9278C66.6058 33.9329 66.8059 33.9342 67.0099 33.9355C67.2099 33.9368 67.3661 33.9329 67.4782 33.9278L67.3764 34.3013L66.4527 34.277ZM65.5831 31.4332C65.5156 31.5675 65.4404 31.6895 65.3613 31.8035L65.0546 31.5994C65.2537 31.3325 65.3974 31.0402 65.4858 30.7224L65.8318 30.8035C65.8012 30.9027 65.7706 30.998 65.7363 31.0851L66.1362 31.0956L66.148 30.6478L66.5119 30.6573L66.5001 31.1052L67.2878 31.1259L67.2786 31.4778L66.4908 31.457L66.4796 31.8849L67.4752 31.9111L67.4661 32.259L64.995 32.194L65.0041 31.8461L66.1157 31.8753L66.127 31.4475L65.5831 31.4332ZM65.3122 32.4544L67.1676 32.5032L67.1366 33.6828L65.2812 33.634L65.3122 32.4544ZM66.7818 33.3253L66.7946 32.8415L65.6669 32.8119L65.6542 33.2957L66.7818 33.3253Z" fill="white"/>
<path d="M68.5272 34.3512L68.1752 34.3479L68.0947 33.9791C68.1985 33.9921 68.3025 34.0011 68.3985 34.002C68.4905 34.0028 68.5389 33.9553 68.5398 33.8633L68.5478 33.0073C68.4113 33.058 68.2708 33.1047 68.1304 33.1514L68.042 32.7666C68.2144 32.7282 68.3828 32.6778 68.5514 32.6193L68.5591 31.7954L68.1071 31.7911L68.1105 31.4272L68.5625 31.4314L68.5692 30.7074L68.9532 30.711L68.9465 31.435L69.3184 31.4384L69.315 31.8024L68.9431 31.7989L68.9369 32.4629C69.0413 32.4159 69.1418 32.3648 69.2423 32.3098L69.2387 32.6977C69.1342 32.7488 69.0337 32.7998 68.9333 32.8469L68.9228 33.9669C68.9204 34.2228 68.7872 34.3536 68.5272 34.3512ZM69.5962 30.829L71.3961 30.8458L71.3826 32.2898L69.5827 32.2729L69.5962 30.829ZM71.0135 31.9783L71.016 31.7063L69.9561 31.6964L69.9535 31.9684L71.0135 31.9783ZM69.9588 31.4084L71.0187 31.4183L71.0212 31.1503L69.9613 31.1404L69.9588 31.4084ZM69.3207 32.4785L71.6206 32.5L71.6175 32.84L70.6575 32.831L70.6541 33.199L71.442 33.2064L71.4389 33.5423L70.6509 33.535L70.647 33.959C70.7948 33.9763 70.9667 33.9899 71.1667 33.9918C71.3827 33.9938 71.5667 33.9876 71.7189 33.973L71.6114 34.34C71.4554 34.3385 71.3155 34.3332 71.1875 34.328C70.6556 34.3191 70.2921 34.2677 70.097 34.1698C69.9576 34.0965 69.8308 33.9673 69.7206 33.7823C69.6265 34.0014 69.5046 34.2043 69.3549 34.3909L69.0732 34.1443C69.3645 33.787 69.5282 33.3925 69.5643 32.9528L69.8999 32.9959C69.8906 33.1399 69.8693 33.2757 69.8401 33.4074C69.9579 33.6405 70.0925 33.7938 70.2479 33.8592L70.2838 33.8716L70.2935 32.8276L69.3176 32.8185L69.3207 32.4785Z" fill="white"/>
<path d="M73.9451 30.7152L74.1349 31.0196C73.9049 31.128 73.6745 31.2164 73.4398 31.2848L73.4571 32.2046L74.4409 32.1861L74.4137 30.7383L74.7936 30.7312L74.8209 32.1789L75.7127 32.1621L75.7196 32.5301L74.8278 32.5469L74.8623 34.3785L74.4824 34.3857L74.4479 32.554L73.4561 32.5727C73.4157 33.4056 73.0993 34.0237 72.503 34.435L72.2103 34.1885C72.7478 33.8383 73.0377 33.3007 73.0721 32.5799L72.1403 32.5975L72.1334 32.2296L73.0732 32.2119L73.0577 31.388C72.8186 31.4405 72.5713 31.4772 72.3237 31.5019L72.1972 31.1602C72.9197 31.0745 73.501 30.9236 73.9451 30.7152Z" fill="white"/>
<path d="M77.3374 30.7985L79.2849 30.6659L79.3101 31.037L77.3626 31.1696L77.3374 30.7985ZM77.3055 31.8029L79.5244 31.6519L79.5496 32.0231L78.9271 32.0654L79.0422 33.7575C79.0596 34.0129 78.9247 34.1504 78.6413 34.1697L78.0626 34.2091L77.9536 33.8436C78.1382 33.8471 78.3184 33.8429 78.486 33.8315C78.6017 33.8236 78.6586 33.7756 78.6529 33.6918L78.544 32.0915L77.3308 32.1741L77.3055 31.8029ZM76.6457 30.6491L77.0037 30.7851C76.8181 31.2387 76.4855 31.6543 75.9986 32.0402L75.8571 31.669C76.2254 31.3673 76.4871 31.0287 76.6457 30.6491ZM76.8954 31.5502L77.2495 31.6865C77.1564 31.9093 77.0346 32.1221 76.884 32.3248L77.0182 34.2962L76.647 34.3215L76.5381 32.7212C76.4029 32.8547 76.2593 32.9847 76.0996 33.1118L75.9623 32.7443C76.3956 32.3941 76.7092 31.9959 76.8954 31.5502Z" fill="white"/>
<path d="M80.0347 30.6278L81.5118 30.4486L81.5557 30.8099L80.0785 30.9891L80.0347 30.6278ZM80.0178 31.7177L81.7848 31.5034L81.8292 31.8687L80.9357 31.9771C80.8588 32.5384 80.7838 32.9505 80.7114 33.2171C80.9667 33.1297 81.2232 33.018 81.4772 32.8865C81.3622 32.703 81.2487 32.5314 81.1367 32.3718L81.4356 32.1784C81.6587 32.4897 81.8782 32.8378 82.0937 33.2187L81.7883 33.425L81.6542 33.1833C81.2546 33.3769 80.8199 33.5465 80.346 33.6926L80.2113 33.3463C80.2501 33.3335 80.2724 33.3187 80.2869 33.3049C80.3753 33.137 80.4687 32.7107 80.5704 32.0214L80.0621 32.0831L80.0178 31.7177ZM82.1664 30.1314L82.5397 30.0862L82.6331 30.8565L83.4908 30.7525C83.6479 32.047 83.7248 32.8475 83.7257 33.1537C83.7186 33.4608 83.5344 33.6362 83.1731 33.68C83.1095 33.6878 82.9974 33.6933 82.8376 33.7046L82.7098 33.3817C82.8542 33.3762 82.9782 33.3692 83.0815 33.3567C83.2562 33.3355 83.3439 33.2282 83.3525 33.0337C83.3537 32.8442 83.29 32.2193 83.1698 31.1621L82.6774 31.2218L82.6818 31.2576C82.8086 32.4026 82.6358 33.2698 82.1598 33.8634L81.8475 33.6474C82.2711 33.1206 82.4263 32.3402 82.3085 31.3029L82.3042 31.2671L81.7999 31.3283L81.7556 30.963L82.2599 30.9018L82.1664 30.1314Z" fill="white"/>
<path d="M85.136 30.8661L86.1681 30.6844L85.9649 29.5302L86.351 29.4622L86.5542 30.6164L87.5312 30.4444L87.5964 30.8147L86.6194 30.9867L86.9932 33.1101L86.6072 33.1781L86.2333 31.0547L85.2012 31.2364L85.136 30.8661ZM84.2221 29.8736C84.5121 30.0215 84.7628 30.1764 84.9747 30.3421L84.7644 30.6472C84.5743 30.4898 84.3229 30.331 84.0071 30.1754L84.2221 29.8736ZM83.9032 31.1075L84.8132 30.9473L85.1087 32.6255C85.2167 32.5009 85.3259 32.3598 85.4409 32.2055L85.6066 32.5703C85.3961 32.8511 85.1618 33.1117 84.9068 33.3474L84.706 33.0376C84.7633 32.9706 84.7869 32.8974 84.7731 32.8186L84.5178 31.3689L83.9663 31.466L83.9032 31.1075Z" fill="white"/>
<path d="M89.8009 29.0859L90.1593 29.0026L90.7191 31.4104L90.3607 31.4937L89.8009 29.0859ZM91.2902 32.1359L90.7292 32.2663L90.561 31.9317C90.7478 31.9047 90.921 31.8727 91.0847 31.8346C91.1937 31.8093 91.2395 31.7411 91.2151 31.6359L90.504 28.5775L90.8702 28.4924L91.603 31.6443C91.6646 31.9092 91.5591 32.0734 91.2902 32.1359ZM89.5739 29.6644L89.7157 30.0092L88.656 30.4322C88.7123 30.6039 88.7728 30.7582 88.8375 30.8951C88.9031 31.0359 88.966 31.165 89.033 31.2767C89.1795 30.9881 89.2896 30.6668 89.3594 30.3138L89.7218 30.4062C89.6266 30.88 89.4771 31.2967 89.2684 31.6532C89.3111 31.7131 89.3519 31.7652 89.3958 31.8125C89.5808 32.0077 89.7317 32.0917 89.8417 32.0702C89.9013 32.044 89.9202 31.8425 89.9022 31.4648L90.261 31.5949C90.2487 31.8072 90.2253 31.9892 90.1869 32.1419C90.1393 32.3255 90.0618 32.4338 89.9527 32.4592C89.7657 32.5027 89.5527 32.4167 89.3116 32.2099C89.2245 32.1357 89.1434 32.0519 89.0683 31.9585C88.8798 32.2076 88.6589 32.4232 88.4056 32.6053L88.1065 32.3258C88.3892 32.1287 88.6308 31.8959 88.8255 31.6207C88.7423 31.4922 88.662 31.3589 88.5868 31.2121C88.4909 31.0291 88.4003 30.8161 88.3102 30.5701L87.8521 30.7546L87.7142 30.4088L88.187 30.2168C88.0873 29.9114 87.9902 29.5644 87.9005 29.1787L88.2745 29.0917C88.3597 29.458 88.4445 29.7873 88.5367 30.078L89.5739 29.6644ZM88.7882 28.9518C88.9683 29.0906 89.149 29.2498 89.3256 29.4264L89.0502 29.6547C88.8757 29.4694 88.6988 29.3093 88.5187 29.1705L88.7882 28.9518Z" fill="white"/>
<path d="M92.6194 27.9606L92.9623 27.8651C92.8734 28.1722 92.8241 28.4724 92.8144 28.7657C92.7911 29.1293 92.8305 29.4796 92.9238 29.8148C93.016 30.1462 93.1633 30.4665 93.3723 30.7696C93.531 31.0118 93.7284 31.2434 93.9642 31.4642L93.6213 31.5597C93.3694 31.3558 93.1577 31.1324 92.9863 30.8895C92.7756 30.5952 92.6245 30.276 92.528 29.9292C92.4303 29.5785 92.3937 29.2233 92.4231 28.8664C92.4422 28.5621 92.508 28.2615 92.6194 27.9606Z" fill="white"/>
<path d="M94.8449 27.7013C95.1043 27.6193 95.3446 27.6231 95.5606 27.7226C95.7729 27.8234 95.9182 27.9914 95.9942 28.2316C96.0689 28.4681 96.0449 28.7106 95.9309 28.9606C95.859 29.105 95.718 29.309 95.505 29.5776C95.2728 29.8649 95.1516 30.092 95.1414 30.2588L96.503 29.8285L96.6187 30.1947L94.7422 30.7877C94.6566 30.5169 94.6696 30.2527 94.7876 29.9889C94.8494 29.8393 95.0035 29.6102 95.245 29.299C95.3871 29.1115 95.4842 28.9675 95.5352 28.8633C95.6138 28.6874 95.6317 28.5182 95.581 28.358C95.5328 28.2054 95.4547 28.1043 95.3467 28.0545C95.2387 28.0047 95.1008 28.0064 94.9406 28.057C94.7689 28.1112 94.6573 28.2094 94.607 28.3554C94.5516 28.4987 94.5577 28.6772 94.6199 28.9008L94.2042 29.0322C94.1116 28.7259 94.1222 28.4541 94.236 28.2167C94.3487 27.963 94.5551 27.7929 94.8449 27.7013Z" fill="white"/>
<path d="M97.636 26.7417C97.9517 26.6267 98.2439 26.6693 98.514 26.8731C98.7622 27.0637 98.9616 27.3656 99.1136 27.7828C99.2642 28.1962 99.3072 28.5595 99.2397 28.865C99.1627 29.1911 98.9677 29.4154 98.652 29.5304C98.3363 29.6455 98.0427 29.5992 97.7739 29.3991C97.5257 29.2085 97.3263 28.9065 97.1743 28.4894C97.0209 28.0684 96.9794 27.7089 97.0482 27.4071C97.1239 27.0773 97.3203 26.8568 97.636 26.7417ZM97.7619 27.0875C97.5402 27.1683 97.4299 27.3447 97.4287 27.6219C97.4213 27.8119 97.4748 28.0521 97.5802 28.3415C97.6843 28.6271 97.7979 28.8454 97.9271 28.9899C98.105 29.1976 98.3042 29.2655 98.526 29.1847C98.744 29.1053 98.8566 28.9237 98.8592 28.6503C98.8615 28.4579 98.8118 28.2163 98.7077 27.9307C98.6023 27.6413 98.4849 27.4244 98.3608 27.2823C98.1816 27.0709 97.9799 27.0081 97.7619 27.0875Z" fill="white"/>
<path d="M99.774 25.9736L100.078 25.8508L101.148 28.4987L100.744 28.6621L99.8702 26.4999C99.7721 26.7164 99.6131 26.9101 99.3968 27.0795L99.235 26.6789C99.3417 26.6013 99.4431 26.4999 99.5466 26.3718C99.6471 26.2363 99.7239 26.106 99.774 25.9736Z" fill="white"/>
<path d="M102.184 24.8778C102.461 24.7535 102.713 24.7283 102.943 24.8006C103.147 24.8666 103.294 24.9981 103.381 25.1915C103.441 25.3266 103.463 25.4528 103.445 25.5703C103.424 25.6983 103.358 25.8154 103.25 25.9255L103.255 25.9364C103.392 25.91 103.534 25.9339 103.674 26.0114C103.832 26.0897 103.947 26.2091 104.02 26.3734C104.123 26.6033 104.123 26.8271 104.02 27.0484C103.913 27.2676 103.705 27.4486 103.398 27.5861C103.088 27.7252 102.814 27.7602 102.582 27.6931C102.349 27.6224 102.182 27.4739 102.079 27.2439C102.005 27.0797 101.992 26.9144 102.039 26.7445C102.074 26.5884 102.147 26.468 102.262 26.3815L102.257 26.3706C102.103 26.3784 101.971 26.3496 101.861 26.2805C101.762 26.2154 101.682 26.1153 101.622 25.9803C101.535 25.7868 101.534 25.5899 101.621 25.393C101.716 25.175 101.906 25.0022 102.184 24.8778ZM102.326 25.1954C102.166 25.2674 102.056 25.3648 102 25.4949C101.949 25.6056 101.951 25.7185 102 25.828C102.056 25.9521 102.133 26.0359 102.235 26.0778C102.358 26.1278 102.513 26.111 102.699 26.0276C102.882 25.9457 102.997 25.8414 103.045 25.7145C103.078 25.6121 103.071 25.4972 103.015 25.3731C102.966 25.2636 102.88 25.1883 102.767 25.1513C102.632 25.1062 102.487 25.1234 102.326 25.1954ZM102.832 26.3232C102.642 26.4083 102.516 26.5176 102.463 26.655C102.404 26.7868 102.407 26.9212 102.473 27.0672C102.533 27.2023 102.63 27.2905 102.77 27.3286C102.906 27.3684 103.068 27.3483 103.254 27.2649C103.436 27.1831 103.563 27.0738 103.631 26.9424C103.688 26.8159 103.687 26.6851 103.626 26.5501C103.561 26.4041 103.462 26.3122 103.33 26.2708C103.185 26.2217 103.022 26.2381 102.832 26.3232Z" fill="white"/>
<path d="M103.616 25.6799L107.182 23.8674L107.342 24.1812L103.776 25.9937L103.616 25.6799Z" fill="white"/>
<path d="M108.255 21.7512C108.49 21.6156 108.726 21.5679 108.958 21.619C109.187 21.672 109.365 21.8051 109.491 22.0236C109.614 22.2386 109.643 22.4806 109.585 22.7492C109.545 22.9056 109.451 23.135 109.301 23.443C109.135 23.7733 109.065 24.021 109.091 24.1862L110.329 23.4747L110.52 23.8077L108.814 24.7882C108.673 24.5419 108.629 24.2811 108.688 23.9981C108.716 23.8388 108.818 23.5821 108.987 23.2264C109.086 23.0128 109.15 22.8514 109.177 22.7388C109.217 22.5501 109.198 22.381 109.114 22.2353C109.034 22.0966 108.936 22.0145 108.82 21.9889C108.704 21.9634 108.57 21.9945 108.424 22.0782C108.268 22.1679 108.18 22.2877 108.162 22.441C108.138 22.5929 108.183 22.7659 108.291 22.9711L107.913 23.1883C107.757 22.9089 107.709 22.6411 107.77 22.3849C107.826 22.1129 107.991 21.9026 108.255 21.7512Z" fill="white"/>
<path d="M110.691 20.2685C110.975 20.0889 111.27 20.0682 111.577 20.2099C111.86 20.3433 112.119 20.5959 112.356 20.9712C112.592 21.343 112.711 21.6888 112.71 22.0017C112.704 22.3367 112.561 22.5974 112.277 22.777C111.993 22.9566 111.697 22.9738 111.392 22.8355C111.108 22.7022 110.849 22.4496 110.612 22.0743C110.373 21.6956 110.255 21.3532 110.258 21.0437C110.262 20.7053 110.407 20.448 110.691 20.2685ZM110.888 20.5795C110.688 20.7056 110.618 20.9015 110.676 21.1725C110.709 21.3598 110.812 21.5831 110.977 21.8434C111.14 22.1003 111.297 22.2895 111.454 22.4031C111.672 22.5682 111.881 22.5921 112.081 22.466C112.277 22.342 112.348 22.1406 112.293 21.8729C112.254 21.6844 112.154 21.459 111.991 21.202C111.827 20.9417 111.666 20.7547 111.514 20.6423C111.294 20.4739 111.084 20.4555 110.888 20.5795Z" fill="white"/>
<path d="M113.139 18.6346C113.363 18.4797 113.593 18.4123 113.829 18.4437C114.062 18.4773 114.25 18.5949 114.394 18.802C114.535 19.0059 114.584 19.2447 114.548 19.5172C114.522 19.6763 114.448 19.9128 114.324 20.2324C114.187 20.5755 114.138 20.8282 114.177 20.9906L115.351 20.1775L115.57 20.4932L113.952 21.6138C113.79 21.3803 113.725 21.124 113.76 20.8371C113.775 20.676 113.854 20.4116 113.993 20.043C114.073 19.8219 114.124 19.6556 114.142 19.541C114.165 19.3498 114.132 19.1828 114.036 19.0447C113.945 18.9132 113.841 18.8396 113.723 18.8239C113.605 18.8083 113.474 18.8505 113.335 18.9462C113.188 19.0487 113.11 19.1754 113.105 19.3298C113.094 19.4831 113.153 19.6518 113.278 19.8471L112.92 20.0953C112.741 19.83 112.671 19.5672 112.709 19.3068C112.742 19.0311 112.889 18.8077 113.139 18.6346Z" fill="white"/>
<path d="M115.488 16.9203C115.705 16.7563 115.933 16.6795 116.17 16.701C116.404 16.725 116.597 16.8347 116.749 17.0357C116.898 17.2336 116.957 17.4702 116.933 17.7438C116.913 17.9039 116.849 18.1434 116.738 18.4678C116.615 18.8162 116.577 19.0708 116.623 19.2314L117.762 18.3704L117.994 18.6768L116.424 19.8633C116.253 19.6367 116.176 19.3834 116.199 19.0953C116.208 18.9337 116.276 18.6663 116.4 18.2922C116.471 18.0679 116.514 17.8998 116.527 17.7845C116.543 17.5925 116.503 17.427 116.402 17.293C116.305 17.1653 116.198 17.0961 116.079 17.0854C115.961 17.0746 115.831 17.1223 115.697 17.2236C115.554 17.3321 115.481 17.4619 115.483 17.6163C115.479 17.77 115.544 17.9361 115.677 18.126L115.33 18.3889C115.14 18.1312 115.059 17.8715 115.087 17.6098C115.108 17.3329 115.246 17.1036 115.488 16.9203Z" fill="white"/>
<path d="M117.274 16.0606C117.323 16.3833 117.312 16.6947 117.24 17.0034L116.839 16.9209C116.955 16.4346 116.905 15.9556 116.688 15.4811L117.035 15.2859C117.092 15.4161 117.14 15.537 117.18 15.66L119.05 14.1056L119.285 14.3886L118.341 15.1735L118.694 15.598L119.531 14.9027L119.758 15.1765L118.921 15.8718L119.417 16.4686L120.457 15.6045L120.695 15.8906L119.655 16.7548L120.207 17.4193L119.915 17.6621L119.363 16.9976L117.966 18.1583L117.728 17.8722L118.211 17.4708L117.488 16.6002L118.402 15.8409L118.049 15.4164L117.274 16.0606ZM118.507 17.2254L119.125 16.7115L118.629 16.1147L118.011 16.6286L118.507 17.2254Z" fill="white"/>
<path d="M119.607 13.0047L119.871 12.7664C120.182 12.8363 120.471 12.942 120.741 13.0863C121.055 13.2556 121.338 13.4742 121.582 13.7446C121.823 14.012 122.009 14.3134 122.147 14.6463C122.257 14.9239 122.332 15.2224 122.372 15.5417L122.108 15.78C122.045 15.4652 121.955 15.1744 121.839 14.9078C121.692 14.5717 121.504 14.273 121.273 14.0174C121.04 13.7589 120.763 13.5406 120.446 13.3627C120.191 13.2163 119.911 13.097 119.607 13.0047Z" fill="white"/>
<path d="M122.11 11.62L124.054 13.613L123.793 13.8672L123.648 13.7183L123.196 14.1596L123.422 14.3915L123.161 14.6457L121.136 12.5696L121.408 12.3043C121.309 12.0994 121.196 11.9028 121.057 11.7144L121.365 11.4863C121.49 11.6717 121.589 11.8596 121.669 12.0502L122.11 11.62ZM122.95 13.9076L123.402 13.4663L122.852 12.9022L122.4 13.3435L122.95 13.9076ZM122.162 13.1001L122.615 12.6588L122.101 12.1319L121.648 12.5732L122.162 13.1001ZM123.296 11.8045C123.714 11.855 124.058 11.9159 124.332 11.9956L124.265 12.3569C123.972 12.274 123.619 12.2102 123.209 12.157L123.296 11.8045ZM123.59 10.1817C124.554 11.1696 125.135 11.7935 125.329 12.0505C125.502 12.2846 125.465 12.5218 125.222 12.7592C125.164 12.815 125.056 12.9098 124.904 13.0409L124.595 12.856C124.727 12.7388 124.841 12.6384 124.933 12.5491C125.047 12.4373 125.055 12.313 124.954 12.176C124.832 12.016 124.371 11.5266 123.581 10.7049L122.862 11.406C122.95 11.656 123.012 11.9028 123.043 12.1521L122.67 12.0966C122.591 11.6373 122.396 11.1738 122.079 10.7117L122.382 10.4835C122.509 10.6718 122.615 10.8598 122.706 11.0448L123.59 10.1817Z" fill="white"/>
<path d="M123.721 9.15056C124.061 9.09481 124.371 9.07136 124.649 9.07749L124.661 9.4535C124.405 9.43517 124.095 9.45297 123.726 9.50983L123.721 9.15056ZM127.913 9.89536C127.764 10.0569 127.598 10.2304 127.421 10.4156C127.242 10.6038 127.08 10.7431 126.937 10.8393C126.793 10.9242 126.628 10.9618 126.446 10.9575C126.358 10.9525 126.302 10.966 126.27 11.0012C126.213 11.0629 126.247 11.2908 126.373 11.685L125.992 11.7141C125.89 11.3473 125.862 11.0766 125.912 10.9048L125.081 10.1362L124.717 10.5298L124.459 10.2908L125.064 9.63588L126.174 10.6625C126.2 10.6586 126.228 10.6575 126.259 10.6592C126.401 10.6649 126.525 10.6488 126.631 10.6107C126.753 10.5606 126.899 10.4558 127.065 10.288C127.223 10.1233 127.408 9.92926 127.62 9.7002C127.753 9.5563 127.886 9.40675 128.019 9.2572C128.152 9.10765 128.252 8.98769 128.319 8.90296L128.533 9.2258L127.913 9.89536ZM125.103 8.23888L124.579 8.80566L124.347 8.59111L125.838 6.97887L126.035 7.16083C126.024 7.46695 125.979 7.76309 125.905 8.05468C125.917 8.05424 125.925 8.05108 125.936 8.05064L126.482 7.46036L127.786 8.6662C127.959 8.82644 127.958 9.00482 127.781 9.19571L127.572 9.42183L127.286 9.26601L127.49 9.06837C127.55 9.00377 127.551 8.93865 127.486 8.8789L127.336 8.74039L126.945 9.16328L127.427 9.60868L127.19 9.86417L126.709 9.41877L126.326 9.83284L126.813 10.2837L126.569 10.548L124.983 9.08142L125.608 8.40598C125.453 8.44314 125.285 8.48934 125.11 8.54999L125.103 8.23888ZM125.616 8.1028C125.668 7.92242 125.704 7.74271 125.725 7.56638L125.117 8.2242C125.29 8.17778 125.456 8.13453 125.616 8.1028ZM125.894 9.43361L126.1 9.62372L126.483 9.20965L126.277 9.01954L125.894 9.43361ZM126.513 8.76405L126.719 8.95416L127.11 8.53127L126.904 8.34116L126.513 8.76405ZM126.675 8.12933L126.47 7.93922L126.079 8.3621L126.284 8.55221L126.675 8.12933ZM126.048 8.8077L125.842 8.6176L125.46 9.03167L125.665 9.22178L126.048 8.8077Z" fill="white"/>
<path d="M128.738 3.97018L131.132 5.97089L130.896 6.25327L130.721 6.10707L130.272 6.6442L130.45 6.79297L130.214 7.07534L127.817 5.07207L128.738 3.97018ZM129.999 6.41591L130.448 5.87878L128.775 4.48085L128.326 5.01798L129.999 6.41591ZM127.261 6.47919C127.356 6.67803 127.43 6.87583 127.487 7.0695L127.112 7.18831C126.988 6.75076 126.796 6.3505 126.533 5.99061L126.836 5.75339C126.927 5.88156 127.003 6.00817 127.077 6.13221L127.777 5.29428L128.057 5.5277L127.708 5.94513C127.893 6.1103 128.063 6.26828 128.211 6.42264L128.611 5.94382L128.89 6.17724L128.456 6.69595C128.514 6.76466 128.568 6.83644 128.62 6.90002C128.966 6.87182 129.337 6.85851 129.735 6.85701L129.856 7.26075C129.427 7.22533 129.082 7.20795 128.82 7.20861C129.035 7.60685 129.126 8.05306 129.085 8.55081L128.693 8.54616C128.724 8.02945 128.609 7.57962 128.35 7.19105C128.302 7.13004 128.254 7.06339 128.203 6.99982L127.697 7.60447L127.418 7.37106L127.959 6.72343C127.812 6.56907 127.642 6.41109 127.456 6.24592L127.261 6.47919Z" fill="white"/>
<path d="M128.812 3.19582L130.8 3.66646L131.787 5.45576L131.478 5.62347L130.568 3.97224L128.733 3.53774L128.812 3.19582ZM129.225 2.65115L131.214 3.12179L132.2 4.9111L131.892 5.07881L130.981 3.42757L129.137 3.00581L129.225 2.65115Z" fill="white"/>
</svg>
