<svg width="87" height="30" viewBox="0 0 87 30" fill="none" xmlns="http://www.w3.org/2000/svg">
<path d="M4.38217 16.4899L4.66386 16.7229L3.42892 18.1566L3.6752 20.0262L3.32756 20.074L3.06054 18.0482L4.38217 16.4899ZM5.03835 16.683L5.30469 16.9115L4.08511 18.3497L4.33138 20.2193L3.98374 20.2671L3.71672 18.2413L5.03835 16.683Z" fill="white"/>
<path d="M6.72943 17.1942C6.82449 17.4267 6.91052 17.6775 6.98364 17.9455L6.712 18.0011L7.51179 18.2154C7.70989 18.0324 7.90392 17.8028 8.09285 17.5305L8.4263 17.7233C8.27297 17.9555 8.10371 18.1545 7.92521 18.3262L8.65932 18.5229L8.56408 18.8783L7.30451 18.5409L7.27241 18.6606C7.215 18.844 7.15013 19.0089 7.08064 19.16L8.61841 19.572L8.52317 19.9275L7.17087 19.5652C7.23494 20.0834 7.61956 20.5799 8.32371 21.0584L8.01417 21.3482C7.29182 20.7985 6.89595 20.2203 6.81781 19.6155C6.69961 19.7785 6.57113 19.918 6.43341 20.0302C6.07751 20.3075 5.57721 20.4592 4.93251 20.4852L4.81751 20.1107C5.46428 20.077 5.93133 19.9412 6.22251 19.7045C6.32594 19.6121 6.42088 19.505 6.50631 19.3871L5.18491 19.0331L5.28015 18.6776L6.702 19.0586C6.77639 18.9046 6.84512 18.7408 6.9015 18.5613L6.93359 18.4415L5.67015 18.103L5.76538 17.7475L6.59222 17.969C6.52476 17.7108 6.44232 17.4775 6.34981 17.2664L6.72943 17.1942Z" fill="white"/>
<path d="M9.77038 18.1191L12.7118 18.838L12.6235 19.1994L11.384 18.8965L11.1522 19.8446L12.6638 20.214L12.5735 20.5831L11.062 20.2137L10.7382 21.5387C10.6717 21.8107 10.4938 21.9154 10.2101 21.8461L9.59229 21.6951L9.60195 21.3186C9.79727 21.3787 9.98576 21.433 10.1645 21.4767C10.2888 21.5071 10.3653 21.464 10.3918 21.3552L10.6929 20.1235L9.11533 19.7379L9.20555 19.3688L10.7831 19.7543L11.0148 18.8062L9.68206 18.4805L9.77038 18.1191Z" fill="white"/>
<path d="M13.6304 18.9587C13.8433 19.2188 14.0172 19.4702 14.152 19.713L13.8277 19.9199C13.7185 19.691 13.5494 19.4365 13.3183 19.1478L13.6304 18.9587ZM15.0914 22.9519C14.8805 22.9053 14.6509 22.8505 14.4057 22.7922C14.1566 22.7331 13.9587 22.6648 13.8071 22.5903C13.6613 22.509 13.5492 22.3859 13.4613 22.2272C13.4252 22.1496 13.3853 22.108 13.3384 22.0976C13.2603 22.0804 13.0808 22.2251 12.804 22.5326L12.5867 22.2183C12.8519 21.9451 13.0716 21.7847 13.2451 21.7411L13.4893 20.6358L12.962 20.5193L13.038 20.1756L13.9129 20.3688L13.5858 21.8491C13.598 21.8682 13.6141 21.8882 13.6284 21.9159C13.6911 22.0404 13.7675 22.1392 13.854 22.2115C13.9552 22.2912 14.1153 22.3635 14.3402 22.4213C14.558 22.4736 14.8149 22.5344 15.1157 22.6009C15.3032 22.6423 15.4993 22.6815 15.6994 22.7216C15.8955 22.7609 16.0496 22.7867 16.1568 22.8022L15.9858 23.1495L15.0914 22.9519ZM14.3962 19.7014L14.8259 19.7963L14.9562 19.2065L15.3116 19.2851L15.1813 19.8748L15.7125 19.9922L15.8419 19.4063L16.2013 19.4857L16.0718 20.0716L16.5366 20.1743L16.4598 20.5219L15.995 20.4192L15.8423 21.1105L16.4321 21.2408L16.3544 21.5924L15.7646 21.4621L15.5299 22.5244L15.1706 22.4451L15.4053 21.3827L14.7843 21.2455C14.5757 21.6705 14.307 21.9593 13.9697 22.1142L13.8126 21.7682C14.0659 21.6603 14.27 21.4596 14.4249 21.1661L13.9523 21.0617L14.03 20.7101L14.5729 20.8301C14.6179 20.7007 14.6559 20.5658 14.6878 20.4213L14.7491 20.1439L14.3194 20.049L14.3962 19.7014ZM15.1045 20.2225L15.0622 20.4138C15.0225 20.5935 14.9746 20.755 14.9244 20.9078L15.483 21.0311L15.6357 20.3398L15.1045 20.2225Z" fill="white"/>
<path d="M16.9603 21.3122L20.5133 22.0054L20.4413 22.3744L16.8883 21.6813L16.9603 21.3122Z" fill="white"/>
<path d="M22.5238 20.6927L22.9025 20.7563L22.8277 21.202L23.9994 21.3986L23.9391 21.7576L22.7675 21.561L22.6921 22.0107L24.2542 22.2728L24.1934 22.6357L22.6588 22.3783L22.4649 23.5342L22.0901 23.4713L22.284 22.3154L20.6666 22.0441L20.7275 21.6812L21.2877 21.7752L21.4465 20.8284L21.8252 20.8919L21.6664 21.8387L22.3134 21.9472L22.5238 20.6927ZM23.5192 22.7619L23.828 23.0003C23.1483 24.0057 22.0977 24.3932 20.6769 24.159L20.599 23.7768C21.964 24.0058 22.9376 23.6662 23.5192 22.7619ZM21.5607 22.3239L21.7859 22.601C21.4956 22.9295 21.158 23.2013 20.7737 23.4127L20.588 23.0692C20.9538 22.871 21.2796 22.6215 21.5607 22.3239Z" fill="white"/>
<path d="M26.4342 23.1577L26.3745 23.5976L26.9889 23.681L27.0486 23.241L26.4342 23.1577ZM26.3272 23.9464L26.2605 24.4379L26.8749 24.5213L26.9416 24.0298L26.3272 23.9464ZM26.2116 24.7986L26.1874 24.977L25.8148 24.9265L26.1127 22.7306C26.0178 22.8348 25.9156 22.9339 25.8094 23.0325L25.7363 22.619C26.1064 22.2413 26.3902 21.8156 26.5848 21.3333L26.9398 21.4542C26.8574 21.6448 26.7642 21.8259 26.6602 21.9975L27.2666 22.0798C27.229 21.8809 27.1835 21.681 27.129 21.4879L27.5026 21.4417C27.557 21.6953 27.5987 21.923 27.6194 22.1276L28.2259 22.2099L28.1769 22.5706L27.5309 22.4829L27.469 22.9388L28.0358 23.0157L27.988 23.3684L27.4212 23.2915L27.3615 23.7315L27.9283 23.8084L27.881 24.1572L27.3142 24.0803L27.2475 24.5718L27.9372 24.6654L27.8883 25.0261L26.2116 24.7986ZM27.1583 22.4324L26.5439 22.3491L26.4821 22.8049L27.0964 22.8882L27.1583 22.4324ZM25.7741 22.8461L25.7219 23.2306C25.604 23.2671 25.4826 23.299 25.3651 23.3315L25.2189 24.4097C25.1839 24.6673 25.0314 24.7798 24.7659 24.7438L24.4091 24.6954L24.3754 24.3195C24.4802 24.3498 24.5822 24.3717 24.6813 24.3852C24.7844 24.3992 24.8423 24.3586 24.8552 24.2635L24.9692 23.4231C24.8116 23.4542 24.6506 23.4808 24.494 23.504L24.4505 23.1106C24.6422 23.0962 24.831 23.0734 25.0208 23.0426L25.1338 22.2103L24.6581 22.1457L24.7076 21.7811L25.1832 21.8456L25.2778 21.148L25.6544 21.1991L25.5598 21.8967L25.9284 21.9467L25.8789 22.3113L25.5103 22.2613L25.4162 22.955C25.5376 22.923 25.6556 22.8865 25.7741 22.8461Z" fill="white"/>
<path d="M29.0914 21.6916C29.3339 21.9243 29.5367 22.153 29.6997 22.3779L29.4026 22.6222C29.2667 22.408 29.0683 22.1757 28.8042 21.9168L29.0914 21.6916ZM31.0211 25.4806C30.8061 25.4597 30.5716 25.4328 30.3212 25.4044C30.0667 25.3756 29.8621 25.3315 29.7027 25.2758C29.5481 25.2125 29.4221 25.1038 29.3158 24.9568C29.2707 24.8841 29.226 24.8476 29.1782 24.8429C29.0986 24.8351 28.9378 25.0003 28.6999 25.3389L28.4464 25.0529C28.6769 24.7499 28.8758 24.5643 29.0428 24.5002L29.1526 23.3735L28.6151 23.3211L28.6492 22.9708L29.541 23.0577L29.394 24.5665C29.4084 24.584 29.4268 24.6019 29.4443 24.6277C29.5214 24.7437 29.6092 24.8326 29.7037 24.8941C29.8137 24.9611 29.9814 25.0136 30.2116 25.0441C30.4341 25.0698 30.6965 25.0993 31.003 25.1292C31.1941 25.1478 31.3936 25.1632 31.597 25.179C31.7965 25.1944 31.9525 25.2016 32.0608 25.2041L31.9327 25.5694L31.0211 25.4806ZM29.9408 22.337L30.3787 22.3797L30.4373 21.7785L30.7996 21.8138L30.741 22.415L31.2824 22.4677L31.3406 21.8706L31.7069 21.9063L31.6487 22.5034L32.1224 22.5496L32.0879 22.9039L31.6142 22.8577L31.5455 23.5624L32.1467 23.621L32.1118 23.9793L31.5106 23.9207L31.4051 25.0036L31.0389 24.9679L31.1444 23.885L30.5113 23.8234C30.3553 24.2703 30.1232 24.5893 29.8069 24.7836L29.6095 24.4589C29.8479 24.3214 30.0265 24.0976 30.1451 23.7877L29.6634 23.7408L29.6983 23.3824L30.2516 23.4364C30.2808 23.3026 30.3023 23.164 30.3166 23.0167L30.3442 22.734L29.9063 22.6914L29.9408 22.337ZM30.7065 22.7693L30.6875 22.9644C30.6696 23.1475 30.6414 23.3136 30.61 23.4713L31.1793 23.5267L31.2479 22.8221L30.7065 22.7693Z" fill="white"/>
<path d="M34.2239 22.7233L32.8856 22.6549L32.9042 22.2914L35.9682 22.4481L35.9496 22.8116L34.6074 22.7429L34.4831 25.1718L36.0771 25.2533L36.0583 25.6208L32.4829 25.4379L32.5017 25.0704L34.0996 25.1521L34.2239 22.7233Z" fill="white"/>
<path d="M37.7855 22.2204L38.1655 22.2172L38.1914 25.3611L38.6714 25.3572L38.6455 22.2133L39.0254 22.2101L39.0514 25.354L40.2193 25.3444L40.2224 25.7164L36.6545 25.7458L36.6515 25.3738L37.8114 25.3642L37.7855 22.2204ZM39.7796 22.9479L40.1163 23.0411C39.97 23.7304 39.779 24.332 39.5432 24.8499L39.2023 24.7327C39.4224 24.2669 39.6175 23.6693 39.7796 22.9479ZM37.0356 22.9626C37.244 23.4969 37.429 24.1074 37.5947 24.794L37.2475 24.8849C37.1063 24.258 36.9253 23.6515 36.7124 23.0692L37.0356 22.9626Z" fill="white"/>
<path d="M40.9379 22.1852C41.2096 22.3543 41.4378 22.5311 41.6298 22.7071L41.3937 22.9927C41.226 22.8186 40.9934 22.6381 40.7004 22.4548L40.9379 22.1852ZM40.5268 23.3653L41.4194 23.2876L41.5662 24.9732C41.6807 24.8588 41.8018 24.7278 41.9335 24.5798L42.0718 24.9693C41.8336 25.231 41.5774 25.4701 41.3028 25.6827L41.1295 25.3525C41.1884 25.2912 41.218 25.2163 41.2107 25.1326L41.0844 23.6821L40.5583 23.728L40.5268 23.3653ZM41.9907 23.7156L43.9234 23.5473L43.9536 23.894C43.8689 24.2587 43.704 24.5782 43.4592 24.8565C43.7288 25.0016 44.0528 25.126 44.4226 25.2223L44.2478 25.5667C43.8354 25.4421 43.4887 25.2876 43.2004 25.1119C42.909 25.3621 42.5381 25.5751 42.0956 25.7502L41.8566 25.4498C42.2683 25.2895 42.6094 25.1032 42.8797 24.8869C42.5858 24.6475 42.3732 24.3729 42.2497 24.0624L42.0226 24.0822L41.9907 23.7156ZM42.6044 24.0316C42.7172 24.2667 42.8917 24.4723 43.1322 24.6521C43.3304 24.4381 43.4787 24.2043 43.5727 23.9472L42.6044 24.0316ZM42.1356 22.1531L43.5463 22.0303L43.6192 22.8671C43.6268 22.9548 43.6788 22.9984 43.7784 22.9898L44.1291 22.9592L44.1593 23.3059L43.709 23.3451C43.4261 23.3698 43.2748 23.2464 43.2519 22.9834L43.2026 22.4176L42.5411 22.4752L42.5515 22.5947C42.5876 23.0092 42.4045 23.3503 42.0059 23.6139L41.7295 23.3449C42.0511 23.1643 42.204 22.9382 42.1804 22.6672L42.1356 22.1531Z" fill="white"/>
<path d="M45.7871 22.7441L46.8224 22.5811L46.6401 21.4234L47.0274 21.3624L47.2096 22.5202L48.1895 22.3659L48.248 22.7373L47.2681 22.8916L47.6033 25.0214L47.2161 25.0823L46.8808 22.9526L45.8456 23.1155L45.7871 22.7441ZM44.8913 21.7351C45.1786 21.8883 45.4265 22.0477 45.6354 22.2173L45.4196 22.5185C45.2323 22.3577 44.9839 22.1943 44.671 22.033L44.8913 21.7351ZM44.5501 22.9631L45.4629 22.8194L45.7279 24.5027C45.8381 24.3801 45.9499 24.241 46.0676 24.0888L46.2267 24.4566C46.0112 24.7334 45.7721 24.9897 45.5129 25.2209L45.3178 24.9074C45.3763 24.8415 45.4012 24.7687 45.3888 24.6897L45.1599 23.2356L44.6067 23.3227L44.5501 22.9631Z" fill="white"/>
<path d="M49.3997 24.6692L49.0545 24.7382L48.9 24.3938C49.0044 24.3852 49.1079 24.3726 49.2021 24.3538C49.2923 24.3358 49.3299 24.2793 49.3119 24.1891L49.1442 23.3497C49.021 23.4273 48.8931 23.5018 48.7652 23.5763L48.5998 23.2178C48.7606 23.1449 48.9152 23.061 49.0682 22.9692L48.9067 22.1612L48.4635 22.2498L48.3921 21.8928L48.8354 21.8043L48.6935 21.0943L49.07 21.019L49.2119 21.729L49.5767 21.6561L49.648 22.0131L49.2832 22.0859L49.4134 22.7371C49.5059 22.6696 49.5938 22.599 49.6809 22.5245L49.7569 22.905C49.6651 22.9764 49.5773 23.047 49.4886 23.1136L49.7081 24.2119C49.7582 24.463 49.6547 24.6183 49.3997 24.6692ZM49.7235 21.0027L51.4886 20.65L51.7716 22.066L50.0065 22.4187L49.7235 21.0027ZM51.3464 21.8368L51.2931 21.5701L50.2537 21.7778L50.307 22.0445L51.3464 21.8368ZM50.1972 21.4954L51.2367 21.2877L51.1842 21.0249L50.1447 21.2326L50.1972 21.4954ZM49.7923 22.6736L52.0477 22.2229L52.1143 22.5563L51.1729 22.7444L51.245 23.1053L52.0177 22.9509L52.0836 23.2804L51.3109 23.4348L51.3939 23.8506C51.5422 23.8372 51.7132 23.8153 51.9094 23.7761C52.1212 23.7338 52.3 23.6899 52.4459 23.6444L52.4161 24.0257C52.2631 24.0562 52.125 24.0797 51.9987 24.1009C51.4763 24.2012 51.1099 24.2255 50.8989 24.1698C50.7475 24.1266 50.5969 24.0261 50.451 23.8677C50.4039 24.1014 50.3262 24.325 50.2179 24.5383L49.8916 24.3547C50.1035 23.9453 50.1828 23.5256 50.1279 23.0879L50.4653 23.0612C50.4856 23.204 50.4927 23.3413 50.4911 23.4762C50.6542 23.6802 50.8174 23.8026 50.9829 23.8348L51.0205 23.8395L50.816 22.8158L49.8589 23.007L49.7923 22.6736Z" fill="white"/>
<path d="M53.7555 19.9901L54.0085 20.2445C53.8086 20.4015 53.6037 20.5391 53.3902 20.6583L53.6126 21.551L54.5674 21.3131L54.2174 19.908L54.5861 19.8162L54.9362 21.2212L55.8017 21.0056L55.8907 21.3627L55.0251 21.5783L55.468 23.356L55.0993 23.4478L54.6564 21.6702L53.6938 21.91C53.8406 22.7308 53.6703 23.404 53.1809 23.9381L52.8405 23.7632C53.2862 23.3018 53.4487 22.7131 53.3212 22.0028L52.4168 22.2281L52.3279 21.871L53.24 21.6438L53.0408 20.8442C52.8195 20.9488 52.5866 21.0398 52.3508 21.1192L52.1512 20.8144C52.8363 20.5695 53.3692 20.2925 53.7555 19.9901Z" fill="white"/>
<path d="M56.4028 20.6259L56.3612 19.4166L56.7432 19.366L56.7621 20.1344L57.3279 19.9602C57.3135 19.655 57.279 19.3391 57.2284 19.0115L57.6133 18.9433C57.6604 19.2594 57.6902 19.5599 57.7064 19.8437L59.4573 19.3048L59.5644 19.6526L57.7217 20.2199C57.7223 20.3578 57.7167 20.4893 57.7138 20.6157L59.243 20.145L59.3372 20.4508C59.3343 20.7949 59.234 21.1355 59.0288 21.4749C59.3688 21.546 59.7664 21.5868 60.2178 21.5985L60.1364 22.0003C59.622 21.9744 59.1744 21.9072 58.7997 21.8049C58.5625 22.1081 58.2505 22.4134 57.8638 22.7208L57.5667 22.4355C57.9066 22.1802 58.1884 21.9261 58.4092 21.6782C58.0995 21.5559 57.8463 21.3994 57.6545 21.2115C57.5534 21.8621 57.3444 22.4203 57.0312 22.885L56.7404 22.6062C57.1244 21.9774 57.3228 21.2216 57.3356 20.3387L56.4028 20.6259ZM57.8571 20.9315C58.0527 21.1183 58.3162 21.2673 58.6465 21.3749C58.8273 21.1058 58.9384 20.8414 58.9772 20.5867L57.8571 20.9315ZM58.2426 18.7035C58.5676 18.8211 58.8517 18.9555 59.0938 19.1028L58.9138 19.4427C58.6997 19.291 58.4221 19.1505 58.0721 19.0197L58.2426 18.7035Z" fill="white"/>
<path d="M60.6632 19.4816L61.1804 19.2889L61.0687 18.989L60.4427 19.2222L60.5489 19.5071C60.6327 19.732 60.6987 19.955 60.7516 20.1658L61.4151 19.9186L61.2978 19.6037L60.7805 19.7964L60.6632 19.4816ZM60.8268 20.5049C60.9078 20.94 60.9298 21.3543 60.8916 21.7442L60.5066 21.5932C60.5667 21.0329 60.4618 20.3847 60.1891 19.6412L59.7198 18.3818L62.5872 17.3133L62.9503 18.2879L62.4293 18.482L62.5411 18.7819L63.1033 18.5724L63.2206 18.8872L62.6584 19.0967L62.7757 19.4116L63.4654 19.1546L63.5855 19.477L63.2107 19.6166L63.5077 19.7493C63.4445 19.935 63.3604 20.0987 63.259 20.2389C63.4906 20.2764 63.7374 20.2741 64.0029 20.2307L63.9599 20.6308C63.2196 20.7061 62.5988 20.5063 62.0937 20.0328L61.6289 20.206L61.8942 20.9182C62.0982 20.7781 62.2731 20.6404 62.4152 20.5063L62.6042 20.8073C62.3397 21.0254 62.0134 21.2494 61.6253 21.4794L61.4119 21.2046C61.5076 21.1177 61.5345 21.0181 61.4898 20.8981L61.2803 20.3359L60.8268 20.5049ZM62.4535 19.8987C62.5951 20.0039 62.7448 20.0847 62.9038 20.145C63.0141 20.0057 63.1006 19.8369 63.1619 19.6348L62.4535 19.8987ZM62.0845 18.6105L61.4098 18.8619L61.5215 19.1618L62.1962 18.9104L62.0845 18.6105ZM61.7562 19.7915L62.4308 19.5401L62.3135 19.2252L61.6388 19.4766L61.7562 19.7915ZM62.3489 17.7735L60.2011 18.5738L60.324 18.9036L62.4718 18.1034L62.3489 17.7735Z" fill="white"/>
<path d="M64.8683 16.8892L63.6452 17.4365L63.4965 17.1043L66.2969 15.8512L66.4456 16.1835L65.2188 16.7324L66.2121 18.9523L67.6689 18.3005L67.8192 18.6364L64.5514 20.0985L64.4011 19.7626L65.8616 19.1092L64.8683 16.8892Z" fill="white"/>
<path d="M68.4971 15.4273C68.5127 15.8528 68.4829 16.2435 68.4111 16.5974L68.0179 16.4334C68.1314 15.9355 68.1337 15.329 68.0231 14.619L68.4021 14.5149C68.4306 14.6897 68.4519 14.8593 68.4694 15.0217L69.9285 14.2557L70.1015 14.585L68.9646 15.1819L69.2305 15.6883L70.2257 15.1659L70.3967 15.4917L69.4015 16.0142L69.6749 16.5348L70.6771 16.0086L70.8463 16.3309L69.8441 16.8571L70.2643 17.6575L69.9243 17.836L68.6246 15.3604L68.4971 15.4273ZM67.5962 16.6457C67.5603 16.8182 67.5137 16.9963 67.4617 17.1726L67.1588 16.8709C67.3134 16.2792 67.3372 15.6704 67.2318 15.048L67.6286 15.0294C67.6779 15.3469 67.6949 15.6633 67.6796 15.9785L68.9291 18.3584L68.5891 18.5369L67.5962 16.6457Z" fill="white"/>
<path d="M71.551 13.4375L72.998 15.8159L72.687 16.0051L72.5789 15.8274L72.039 16.1559L72.2074 16.4326L71.8964 16.6218L70.3891 14.1444L70.7137 13.9468C70.663 13.7249 70.5965 13.5078 70.5032 13.293L70.8549 13.1399C70.9351 13.3487 70.9898 13.5541 71.0247 13.7576L71.551 13.4375ZM71.856 15.8551L72.396 15.5266L71.9864 14.8535L71.4465 15.1819L71.856 15.8551ZM71.2697 14.8915L71.8097 14.563L71.4271 13.9342L70.8872 14.2627L71.2697 14.8915ZM72.665 13.8834C73.0611 14.0264 73.383 14.163 73.6315 14.3021L73.4854 14.6391C73.2183 14.4926 72.8888 14.3512 72.5017 14.2075L72.665 13.8834ZM73.3163 12.3681C74.0336 13.547 74.4594 14.2853 74.5915 14.5795C74.707 14.8463 74.6179 15.0691 74.3274 15.2458C74.2591 15.2874 74.1319 15.3554 73.9548 15.4491L73.6953 15.1996C73.8498 15.115 73.9838 15.0428 74.0932 14.9763C74.2299 14.8931 74.2648 14.7736 74.198 14.6176C74.1145 14.4342 73.7755 13.8539 73.1898 12.8758L72.3321 13.3977C72.3611 13.6609 72.3661 13.9154 72.3402 14.1653L71.9895 14.0275C72.0155 13.5622 71.9294 13.0668 71.7245 12.5453L72.0707 12.3909C72.1529 12.603 72.2132 12.8098 72.2604 13.0105L73.3163 12.3681Z" fill="white"/>
<path d="M73.6849 11.3757C74.0292 11.3949 74.3374 11.4392 74.6071 11.5053L74.5373 11.875C74.2919 11.8018 73.9847 11.7519 73.6126 11.7276L73.6849 11.3757ZM77.6172 13.0104C77.4364 13.1357 77.2369 13.2692 77.0243 13.4118C76.8083 13.5566 76.6204 13.6577 76.4596 13.7206C76.3007 13.7723 76.131 13.7732 75.9549 13.7298C75.8701 13.7058 75.8124 13.7069 75.773 13.7342C75.704 13.7821 75.6882 14.0121 75.7257 14.4241L75.3474 14.37C75.3272 13.9898 75.3589 13.7196 75.4448 13.5627L74.7997 12.6324L74.3593 12.9379L74.1587 12.6486L74.8917 12.1403L75.7533 13.3829C75.7788 13.3846 75.8066 13.3896 75.8368 13.398C75.9739 13.4343 76.0984 13.4453 76.2102 13.4311C76.3407 13.4087 76.5058 13.338 76.7043 13.2101C76.894 13.0835 77.1165 12.9341 77.3729 12.7563C77.534 12.6446 77.696 12.5274 77.8581 12.4101C78.0202 12.2929 78.1438 12.1974 78.228 12.1293L78.3667 12.4907L77.6172 13.0104ZM75.232 10.7849L74.5976 11.2247L74.4175 10.9651L76.2221 9.71376L76.3748 9.934C76.2981 10.2305 76.1901 10.5099 76.0552 10.7787C76.0663 10.7807 76.0752 10.7794 76.0863 10.7814L76.747 10.3233L77.759 11.7828C77.8935 11.9767 77.8534 12.1506 77.6397 12.2987L77.3866 12.4742L77.1408 12.2601L77.3833 12.1114C77.4556 12.0613 77.47 11.9978 77.4198 11.9255L77.3036 11.7578L76.8303 12.086L77.2041 12.6251L76.9181 12.8234L76.5443 12.2843L76.0808 12.6057L76.4592 13.1514L76.1633 13.3565L74.9325 11.5815L75.6886 11.0572C75.5299 11.0601 75.3559 11.0689 75.171 11.09L75.232 10.7849ZM75.762 10.763C75.8522 10.5982 75.9257 10.4304 75.9847 10.2629L75.2484 10.7735C75.428 10.7657 75.5988 10.7593 75.762 10.763ZM75.7458 12.1225L75.9053 12.3526L76.3688 12.0312L76.2092 11.8011L75.7458 12.1225ZM76.4952 11.6028L76.6548 11.8329L77.1281 11.5047L76.9686 11.2746L76.4952 11.6028ZM76.7908 11.0182L76.6312 10.7881L76.1579 11.1163L76.3174 11.3464L76.7908 11.0182ZM76.0315 11.5447L75.8719 11.3146L75.4084 11.636L75.568 11.8661L76.0315 11.5447Z" fill="white"/>
<path d="M79.4617 7.57406L81.3694 10.0428L81.0782 10.2679L80.9388 10.0874L80.3849 10.5155L80.5268 10.699L80.2356 10.9241L78.3254 8.45211L79.4617 7.57406ZM80.1673 10.2338L80.7212 9.80575L79.3882 8.08077L78.8343 8.50879L80.1673 10.2338ZM77.4802 9.70681C77.5297 9.92132 77.5599 10.1305 77.574 10.3319L77.1817 10.3672C77.1543 9.91313 77.0529 9.48094 76.8742 9.07307L77.2206 8.90647C77.2819 9.0512 77.3296 9.19133 77.3747 9.32829L78.2388 8.66058L78.4614 8.9486L78.0309 9.28124C78.1762 9.48237 78.3086 9.67328 78.4192 9.85571L78.913 9.47416L79.1356 9.76218L78.6007 10.1755C78.6418 10.2549 78.6798 10.3368 78.716 10.4099C79.0608 10.4569 79.4258 10.5237 79.8142 10.6077L79.8459 11.0281C79.4344 10.9012 79.101 10.81 78.8458 10.7545C78.9697 11.1895 78.9627 11.6449 78.8159 12.1222L78.4338 12.0333C78.5746 11.5352 78.56 11.0714 78.3905 10.6362C78.3567 10.5663 78.3236 10.4907 78.2873 10.4177L77.6638 10.8995L77.4412 10.6115L78.1091 10.0954C77.9984 9.91297 77.8661 9.72206 77.7207 9.52093L77.4802 9.70681Z" fill="white"/>
<path d="M79.8504 6.71076L81.6908 7.59842L82.2691 9.55816L81.932 9.65558L81.3981 7.84702L79.6997 7.02768L79.8504 6.71076ZM80.3717 6.26794L82.2121 7.15559L82.7904 9.11534L82.4533 9.21276L81.9194 7.4042L80.2088 6.59522L80.3717 6.26794Z" fill="white"/>
</svg>
